<?xml version="1.0" encoding="utf-8"?>
<!-- Generator: Adobe Illustrator 16.0.0, SVG Export Plug-In . SVG Version: 6.00 Build 0)  -->
<!DOCTYPE svg PUBLIC "-//W3C//DTD SVG 1.1//EN" "http://www.w3.org/Graphics/SVG/1.1/DTD/svg11.dtd">
<svg preserveAspectRatio="none"   version="1.1" id="图层_1" xmlns="http://www.w3.org/2000/svg" xmlns:xlink="http://www.w3.org/1999/xlink" x="0px" y="0px"
	 width="321px" height="563.082px" viewBox="122.965 1.887 321 563.082" enable-background="new 122.965 1.887 321 563.082"
	 xml:space="preserve">
<g id="surface181">
	
		<linearGradient id="SVGID_1_" gradientUnits="userSpaceOnUse" x1="620.2251" y1="24.8066" x2="202.2256" y2="24.8066" gradientTransform="matrix(0.75 0 0 -0.75 -24.7946 385.7169)">
		<stop  offset="0" style="stop-color:#BAC0C1"/>
		<stop  offset="0.15" style="stop-color:#F4FAFC"/>
		<stop  offset="0.25" style="stop-color:#F8FCFD"/>
		<stop  offset="0.44" style="stop-color:#D5DBDD"/>
		<stop  offset="0.6" style="stop-color:#BDC3C4"/>
		<stop  offset="0.8" style="stop-color:#A0A4A6"/>
		<stop  offset="0.97" style="stop-color:#929697"/>
		<stop  offset="1" style="stop-color:#C2C7C9"/>
	</linearGradient>
	<path fill="url(#SVGID_1_)" d="M126.875,234.738h313.5v264.75h-313.5V234.738z"/>
	
		<linearGradient id="SVGID_2_" gradientUnits="userSpaceOnUse" x1="600.2251" y1="159.1191" x2="202.2256" y2="159.1191" gradientTransform="matrix(0.75 0 0 -0.75 -17.5333 309.1915)">
		<stop  offset="0" style="stop-color:#BAC0C1"/>
		<stop  offset="0.15" style="stop-color:#F4FAFC"/>
		<stop  offset="0.25" style="stop-color:#F8FCFD"/>
		<stop  offset="0.44" style="stop-color:#D5DBDD"/>
		<stop  offset="0.6" style="stop-color:#BDC3C4"/>
		<stop  offset="0.8" style="stop-color:#A0A4A6"/>
		<stop  offset="0.97" style="stop-color:#929697"/>
		<stop  offset="1" style="stop-color:#C2C7C9"/>
	</linearGradient>
	<path fill="url(#SVGID_2_)" d="M134.137,221.215h298.5c0,0-28.789-63-100.352-63c-0.148,0-98.496,0-98.496,0
		c-68.152,0-99.652,63.277-99.652,63.277V221.215z"/>
	
		<linearGradient id="SVGID_3_" gradientUnits="userSpaceOnUse" x1="327.2222" y1="164.8027" x2="202.2222" y2="164.8027" gradientTransform="matrix(0.75 0 0 -0.75 85.0199 243.9913)">
		<stop  offset="0" style="stop-color:#A7B1B4"/>
		<stop  offset="0.15" style="stop-color:#DCE9EC"/>
		<stop  offset="0.25" style="stop-color:#ECF2F4"/>
		<stop  offset="0.44" style="stop-color:#BFCACE"/>
		<stop  offset="0.6" style="stop-color:#AAB4B7"/>
		<stop  offset="0.8" style="stop-color:#8F979A"/>
		<stop  offset="0.97" style="stop-color:#828A8D"/>
		<stop  offset="1" style="stop-color:#AEB8BB"/>
	</linearGradient>
	<path fill="url(#SVGID_3_)" d="M236.688,147.766h93.75l-12.75-54.75h-68.25L236.688,147.766z"/>
	
		<linearGradient id="SVGID_4_" gradientUnits="userSpaceOnUse" x1="267.2256" y1="191.3037" x2="202.2266" y2="191.3037" gradientTransform="matrix(0.75 0 0 -0.75 107.2987 152.8634)">
		<stop  offset="0" style="stop-color:#BAC0C1"/>
		<stop  offset="0.15" style="stop-color:#F4FAFC"/>
		<stop  offset="0.25" style="stop-color:#F8FCFD"/>
		<stop  offset="0.44" style="stop-color:#D5DBDD"/>
		<stop  offset="0.6" style="stop-color:#BDC3C4"/>
		<stop  offset="0.8" style="stop-color:#A0A4A6"/>
		<stop  offset="0.97" style="stop-color:#929697"/>
		<stop  offset="1" style="stop-color:#C2C7C9"/>
	</linearGradient>
	<path fill="url(#SVGID_4_)" d="M258.969,1.887h48.75v15h-48.75V1.887z"/>
	
		<linearGradient id="SVGID_5_" gradientUnits="userSpaceOnUse" x1="295.2231" y1="143.8057" x2="202.2231" y2="143.8056" gradientTransform="matrix(0.75 0 0 -0.75 96.9725 159.9669)">
		<stop  offset="0" style="stop-color:#BAC0C1"/>
		<stop  offset="0.15" style="stop-color:#F4FAFC"/>
		<stop  offset="0.25" style="stop-color:#F8FCFD"/>
		<stop  offset="0.44" style="stop-color:#D5DBDD"/>
		<stop  offset="0.6" style="stop-color:#BDC3C4"/>
		<stop  offset="0.8" style="stop-color:#A0A4A6"/>
		<stop  offset="0.97" style="stop-color:#929697"/>
		<stop  offset="1" style="stop-color:#C2C7C9"/>
	</linearGradient>
	<path fill="url(#SVGID_5_)" d="M248.641,8.988h69.75v86.25h-69.75V8.988z"/>
	
		<linearGradient id="SVGID_6_" gradientUnits="userSpaceOnUse" x1="205.2266" y1="148.8047" x2="202.2266" y2="148.8047" gradientTransform="matrix(0.75 0 0 -0.75 101.7323 167.5792)">
		<stop  offset="0" style="stop-color:#BAC0C1"/>
		<stop  offset="0.15" style="stop-color:#F4FAFC"/>
		<stop  offset="0.25" style="stop-color:#F8FCFD"/>
		<stop  offset="0.44" style="stop-color:#D5DBDD"/>
		<stop  offset="0.6" style="stop-color:#BDC3C4"/>
		<stop  offset="0.8" style="stop-color:#A0A4A6"/>
		<stop  offset="0.97" style="stop-color:#929697"/>
		<stop  offset="1" style="stop-color:#C2C7C9"/>
	</linearGradient>
	<path fill="url(#SVGID_6_)" d="M253.402,16.602h2.25v78.75h-2.25V16.602z"/>
	
		<linearGradient id="SVGID_7_" gradientUnits="userSpaceOnUse" x1="205.2261" y1="148.8047" x2="202.2261" y2="148.8047" gradientTransform="matrix(0.75 0 0 -0.75 110.3417 167.5792)">
		<stop  offset="0" style="stop-color:#BAC0C1"/>
		<stop  offset="0.15" style="stop-color:#F4FAFC"/>
		<stop  offset="0.25" style="stop-color:#F8FCFD"/>
		<stop  offset="0.44" style="stop-color:#D5DBDD"/>
		<stop  offset="0.6" style="stop-color:#BDC3C4"/>
		<stop  offset="0.8" style="stop-color:#A0A4A6"/>
		<stop  offset="0.97" style="stop-color:#929697"/>
		<stop  offset="1" style="stop-color:#C2C7C9"/>
	</linearGradient>
	<path fill="url(#SVGID_7_)" d="M262.012,16.602h2.25v78.75h-2.25V16.602z"/>
	
		<linearGradient id="SVGID_8_" gradientUnits="userSpaceOnUse" x1="205.2256" y1="148.8047" x2="202.2256" y2="148.8047" gradientTransform="matrix(0.75 0 0 -0.75 118.9515 167.5792)">
		<stop  offset="0" style="stop-color:#BAC0C1"/>
		<stop  offset="0.15" style="stop-color:#F4FAFC"/>
		<stop  offset="0.25" style="stop-color:#F8FCFD"/>
		<stop  offset="0.44" style="stop-color:#D5DBDD"/>
		<stop  offset="0.6" style="stop-color:#BDC3C4"/>
		<stop  offset="0.8" style="stop-color:#A0A4A6"/>
		<stop  offset="0.97" style="stop-color:#929697"/>
		<stop  offset="1" style="stop-color:#C2C7C9"/>
	</linearGradient>
	<path fill="url(#SVGID_8_)" d="M270.621,16.602h2.25v78.75h-2.25V16.602z"/>
	
		<linearGradient id="SVGID_9_" gradientUnits="userSpaceOnUse" x1="205.2231" y1="148.8047" x2="202.2231" y2="148.8047" gradientTransform="matrix(0.75 0 0 -0.75 126.1371 167.5792)">
		<stop  offset="0" style="stop-color:#BAC0C1"/>
		<stop  offset="0.15" style="stop-color:#F4FAFC"/>
		<stop  offset="0.25" style="stop-color:#F8FCFD"/>
		<stop  offset="0.44" style="stop-color:#D5DBDD"/>
		<stop  offset="0.6" style="stop-color:#BDC3C4"/>
		<stop  offset="0.8" style="stop-color:#A0A4A6"/>
		<stop  offset="0.97" style="stop-color:#929697"/>
		<stop  offset="1" style="stop-color:#C2C7C9"/>
	</linearGradient>
	<path fill="url(#SVGID_9_)" d="M277.805,16.602h2.25v78.75h-2.25V16.602z"/>
	
		<linearGradient id="SVGID_10_" gradientUnits="userSpaceOnUse" x1="205.2256" y1="148.8047" x2="202.2256" y2="148.8047" gradientTransform="matrix(0.75 0 0 -0.75 134.2719 167.5792)">
		<stop  offset="0" style="stop-color:#BAC0C1"/>
		<stop  offset="0.15" style="stop-color:#F4FAFC"/>
		<stop  offset="0.25" style="stop-color:#F8FCFD"/>
		<stop  offset="0.44" style="stop-color:#D5DBDD"/>
		<stop  offset="0.6" style="stop-color:#BDC3C4"/>
		<stop  offset="0.8" style="stop-color:#A0A4A6"/>
		<stop  offset="0.97" style="stop-color:#929697"/>
		<stop  offset="1" style="stop-color:#C2C7C9"/>
	</linearGradient>
	<path fill="url(#SVGID_10_)" d="M285.941,16.602h2.25v78.75h-2.25V16.602z"/>
	
		<linearGradient id="SVGID_11_" gradientUnits="userSpaceOnUse" x1="205.2227" y1="148.8047" x2="202.2227" y2="148.8047" gradientTransform="matrix(0.75 0 0 -0.75 142.4066 167.5792)">
		<stop  offset="0" style="stop-color:#BAC0C1"/>
		<stop  offset="0.15" style="stop-color:#F4FAFC"/>
		<stop  offset="0.25" style="stop-color:#F8FCFD"/>
		<stop  offset="0.44" style="stop-color:#D5DBDD"/>
		<stop  offset="0.6" style="stop-color:#BDC3C4"/>
		<stop  offset="0.8" style="stop-color:#A0A4A6"/>
		<stop  offset="0.97" style="stop-color:#929697"/>
		<stop  offset="1" style="stop-color:#C2C7C9"/>
	</linearGradient>
	<path fill="url(#SVGID_11_)" d="M294.074,16.602h2.25v78.75h-2.25V16.602z"/>
	
		<linearGradient id="SVGID_12_" gradientUnits="userSpaceOnUse" x1="205.2246" y1="148.8047" x2="202.2246" y2="148.8047" gradientTransform="matrix(0.75 0 0 -0.75 150.5419 167.5792)">
		<stop  offset="0" style="stop-color:#BAC0C1"/>
		<stop  offset="0.15" style="stop-color:#F4FAFC"/>
		<stop  offset="0.25" style="stop-color:#F8FCFD"/>
		<stop  offset="0.44" style="stop-color:#D5DBDD"/>
		<stop  offset="0.6" style="stop-color:#BDC3C4"/>
		<stop  offset="0.8" style="stop-color:#A0A4A6"/>
		<stop  offset="0.97" style="stop-color:#929697"/>
		<stop  offset="1" style="stop-color:#C2C7C9"/>
	</linearGradient>
	<path fill="url(#SVGID_12_)" d="M302.21,16.602h2.25v78.75h-2.25V16.602z"/>
	
		<linearGradient id="SVGID_13_" gradientUnits="userSpaceOnUse" x1="205.2266" y1="148.8047" x2="202.2266" y2="148.8047" gradientTransform="matrix(0.75 0 0 -0.75 158.6766 167.5792)">
		<stop  offset="0" style="stop-color:#BAC0C1"/>
		<stop  offset="0.15" style="stop-color:#F4FAFC"/>
		<stop  offset="0.25" style="stop-color:#F8FCFD"/>
		<stop  offset="0.44" style="stop-color:#D5DBDD"/>
		<stop  offset="0.6" style="stop-color:#BDC3C4"/>
		<stop  offset="0.8" style="stop-color:#A0A4A6"/>
		<stop  offset="0.97" style="stop-color:#929697"/>
		<stop  offset="1" style="stop-color:#C2C7C9"/>
	</linearGradient>
	<path fill="url(#SVGID_13_)" d="M310.347,16.602h2.25v78.75h-2.25V16.602z"/>
	
		<linearGradient id="SVGID_14_" gradientUnits="userSpaceOnUse" x1="295.2231" y1="193.3066" x2="202.2231" y2="193.3066" gradientTransform="matrix(0.75 0 0 -0.75 96.9725 237.4786)">
		<stop  offset="0" style="stop-color:#A7B1B4"/>
		<stop  offset="0.15" style="stop-color:#DCE9EC"/>
		<stop  offset="0.25" style="stop-color:#ECF2F4"/>
		<stop  offset="0.44" style="stop-color:#BFCACE"/>
		<stop  offset="0.6" style="stop-color:#AAB4B7"/>
		<stop  offset="0.8" style="stop-color:#8F979A"/>
		<stop  offset="0.97" style="stop-color:#828A8D"/>
		<stop  offset="1" style="stop-color:#AEB8BB"/>
	</linearGradient>
	<path fill="url(#SVGID_14_)" d="M248.641,86.5h69.75v12h-69.75V86.5z"/>
	
		<linearGradient id="SVGID_15_" gradientUnits="userSpaceOnUse" x1="310.2222" y1="193.3315" x2="201.9937" y2="193.3315" gradientTransform="matrix(0.75 0 0 -0.75 91.4769 244.8517)">
		<stop  offset="0" style="stop-color:#BAC0C1"/>
		<stop  offset="0.15" style="stop-color:#F4FAFC"/>
		<stop  offset="0.25" style="stop-color:#F8FCFD"/>
		<stop  offset="0.44" style="stop-color:#D5DBDD"/>
		<stop  offset="0.6" style="stop-color:#BDC3C4"/>
		<stop  offset="0.8" style="stop-color:#A0A4A6"/>
		<stop  offset="0.97" style="stop-color:#929697"/>
		<stop  offset="1" style="stop-color:#C2C7C9"/>
	</linearGradient>
	<path fill="url(#SVGID_15_)" d="M245.395,93.875h75.75c1.5,0,2.637,1.191,2.637,2.715l0.363,6.285c0,1.5-1.664,2.914-3.184,2.914
		l-75.566,0.086c-1.5,0-2.422-1.324-2.422-2.848l0.172-6.152c0-1.5,1.063-3.043,2.582-3.043L245.395,93.875z"/>
	
		<linearGradient id="SVGID_16_" gradientUnits="userSpaceOnUse" x1="620.2231" y1="156.5654" x2="202.2246" y2="156.5654" gradientTransform="matrix(0.75 0 0 -0.75 -24.837 648.8361)">
		<stop  offset="0" style="stop-color:#BAC0C1"/>
		<stop  offset="0.15" style="stop-color:#F4FAFC"/>
		<stop  offset="0.25" style="stop-color:#F8FCFD"/>
		<stop  offset="0.44" style="stop-color:#D5DBDD"/>
		<stop  offset="0.6" style="stop-color:#BDC3C4"/>
		<stop  offset="0.8" style="stop-color:#A0A4A6"/>
		<stop  offset="0.97" style="stop-color:#929697"/>
		<stop  offset="1" style="stop-color:#C2C7C9"/>
	</linearGradient>
	<path fill="url(#SVGID_16_)" d="M126.832,497.859h313.5c0,0-8.016,67.109-157.292,67.109
		C133.582,564.609,126.832,497.859,126.832,497.859z"/>
	
		<linearGradient id="SVGID_17_" gradientUnits="userSpaceOnUse" x1="354.2681" y1="192.292" x2="202.2217" y2="192.292" gradientTransform="matrix(0.75 0 0 -0.75 74.7782 296.2931)">
		<stop  offset="0" style="stop-color:#BAC0C1"/>
		<stop  offset="0.15" style="stop-color:#F4FAFC"/>
		<stop  offset="0.25" style="stop-color:#F8FCFD"/>
		<stop  offset="0.44" style="stop-color:#D5DBDD"/>
		<stop  offset="0.6" style="stop-color:#BDC3C4"/>
		<stop  offset="0.8" style="stop-color:#A0A4A6"/>
		<stop  offset="0.97" style="stop-color:#929697"/>
		<stop  offset="1" style="stop-color:#C2C7C9"/>
	</linearGradient>
	<path fill="url(#SVGID_17_)" d="M229.445,145.316h108c1.5,0,3.035,1.488,3.035,3.328l-0.035,7.172c0,1.5-1.449,3.016-3.281,3.016
		l-107.718-0.016c-1.5,0-3-1.473-3-3.313v-7.188c0-1.5,1.488-3,3.32-3H229.445z"/>
	<path fill="#ACB1B2" d="M174.996,245.117h216.75v254.25h-216.75V245.117z"/>
	
		<linearGradient id="SVGID_18_" gradientUnits="userSpaceOnUse" x1="220.2246" y1="34.3052" x2="202.2256" y2="34.3052" gradientTransform="matrix(0.75 0 0 -0.75 125.057 381.3185)">
		<stop  offset="0" style="stop-color:#BAC0C1"/>
		<stop  offset="0.15" style="stop-color:#F4FAFC"/>
		<stop  offset="0.25" style="stop-color:#F8FCFD"/>
		<stop  offset="0.44" style="stop-color:#D5DBDD"/>
		<stop  offset="0.6" style="stop-color:#BDC3C4"/>
		<stop  offset="0.8" style="stop-color:#A0A4A6"/>
		<stop  offset="0.97" style="stop-color:#929697"/>
		<stop  offset="1" style="stop-color:#C2C7C9"/>
	</linearGradient>
	<path fill="url(#SVGID_18_)" d="M276.727,230.34h13.5v250.5h-13.5V230.34z"/>
	
		<linearGradient id="SVGID_19_" gradientUnits="userSpaceOnUse" x1="317.2251" y1="195.7588" x2="202.2251" y2="195.7588" gradientTransform="matrix(0.75 0 0 -0.75 88.7679 525.8517)">
		<stop  offset="0" style="stop-color:#BAC0C1"/>
		<stop  offset="0.15" style="stop-color:#F4FAFC"/>
		<stop  offset="0.25" style="stop-color:#F8FCFD"/>
		<stop  offset="0.44" style="stop-color:#D5DBDD"/>
		<stop  offset="0.6" style="stop-color:#BDC3C4"/>
		<stop  offset="0.8" style="stop-color:#A0A4A6"/>
		<stop  offset="0.97" style="stop-color:#929697"/>
		<stop  offset="1" style="stop-color:#C2C7C9"/>
	</linearGradient>
	<path fill="url(#SVGID_19_)" d="M243.438,374.875h79.5c2.25,0,3.555,1.488,3.555,3.328l0.195,1.922c0,1.5-1.68,3.066-3.512,3.066
		l-79.738-0.066c-1.5,0-3-1.422-3-3.262v-1.988c0-1.5,1.484-3,3.316-3H243.438z"/>
	
		<linearGradient id="SVGID_20_" gradientUnits="userSpaceOnUse" x1="209.2246" y1="185.3579" x2="202.2246" y2="185.3579" gradientTransform="matrix(0.75 0 0 -0.75 87.472 518.0529)">
		<stop  offset="0" style="stop-color:#BAC0C1"/>
		<stop  offset="0.15" style="stop-color:#F4FAFC"/>
		<stop  offset="0.25" style="stop-color:#F8FCFD"/>
		<stop  offset="0.44" style="stop-color:#D5DBDD"/>
		<stop  offset="0.6" style="stop-color:#BDC3C4"/>
		<stop  offset="0.8" style="stop-color:#A0A4A6"/>
		<stop  offset="0.97" style="stop-color:#929697"/>
		<stop  offset="1" style="stop-color:#C2C7C9"/>
	</linearGradient>
	<path fill="url(#SVGID_20_)" d="M241.391,367.074c1.5,0,2.934,1.164,2.934,2.602l0.066,18.398c0,1.5-1.227,2.918-2.656,2.918
		c-1.094,0.082-2.594-1.164-2.594-2.602v-19.066c0-0.75,1.16-2.25,2.594-2.25H241.391z"/>
	
		<linearGradient id="SVGID_21_" gradientUnits="userSpaceOnUse" x1="209.2227" y1="185.3579" x2="202.2227" y2="185.3579" gradientTransform="matrix(0.75 0 0 -0.75 104.1649 518.0529)">
		<stop  offset="0" style="stop-color:#BAC0C1"/>
		<stop  offset="0.15" style="stop-color:#F4FAFC"/>
		<stop  offset="0.25" style="stop-color:#F8FCFD"/>
		<stop  offset="0.44" style="stop-color:#D5DBDD"/>
		<stop  offset="0.6" style="stop-color:#BDC3C4"/>
		<stop  offset="0.8" style="stop-color:#A0A4A6"/>
		<stop  offset="0.97" style="stop-color:#929697"/>
		<stop  offset="1" style="stop-color:#C2C7C9"/>
	</linearGradient>
	<path fill="url(#SVGID_21_)" d="M258.082,367.074c1.5,0,2.938,1.164,2.938,2.602l0.063,18.398c0,1.5-1.227,2.918-2.656,2.918
		c-1.094,0.082-2.594-1.164-2.594-2.602v-19.066c0-0.75,1.164-2.25,2.594-2.25H258.082z"/>
	
		<linearGradient id="SVGID_22_" gradientUnits="userSpaceOnUse" x1="209.2266" y1="185.3579" x2="202.2266" y2="185.3579" gradientTransform="matrix(0.75 0 0 -0.75 120.8573 518.0529)">
		<stop  offset="0" style="stop-color:#BAC0C1"/>
		<stop  offset="0.15" style="stop-color:#F4FAFC"/>
		<stop  offset="0.25" style="stop-color:#F8FCFD"/>
		<stop  offset="0.44" style="stop-color:#D5DBDD"/>
		<stop  offset="0.6" style="stop-color:#BDC3C4"/>
		<stop  offset="0.8" style="stop-color:#A0A4A6"/>
		<stop  offset="0.97" style="stop-color:#929697"/>
		<stop  offset="1" style="stop-color:#C2C7C9"/>
	</linearGradient>
	<path fill="url(#SVGID_22_)" d="M274.777,367.074c1.5,0,2.934,1.164,2.934,2.602l0.066,18.398c0,1.5-1.227,2.918-2.66,2.918
		c-1.09,0.082-2.59-1.164-2.59-2.602v-19.066c0-0.75,1.16-2.25,2.59-2.25H274.777z"/>
	
		<linearGradient id="SVGID_23_" gradientUnits="userSpaceOnUse" x1="209.2236" y1="185.3579" x2="202.2236" y2="185.3579" gradientTransform="matrix(0.75 0 0 -0.75 137.5502 518.0529)">
		<stop  offset="0" style="stop-color:#BAC0C1"/>
		<stop  offset="0.15" style="stop-color:#F4FAFC"/>
		<stop  offset="0.25" style="stop-color:#F8FCFD"/>
		<stop  offset="0.44" style="stop-color:#D5DBDD"/>
		<stop  offset="0.6" style="stop-color:#BDC3C4"/>
		<stop  offset="0.8" style="stop-color:#A0A4A6"/>
		<stop  offset="0.97" style="stop-color:#929697"/>
		<stop  offset="1" style="stop-color:#C2C7C9"/>
	</linearGradient>
	<path fill="url(#SVGID_23_)" d="M291.468,367.074c1.5,0,2.934,1.164,2.934,2.602l0.066,18.398c0,1.5-1.227,2.918-2.656,2.918
		c-1.094,0.082-2.594-1.164-2.594-2.602v-19.066c0-0.75,1.16-2.25,2.594-2.25H291.468z"/>
	
		<linearGradient id="SVGID_24_" gradientUnits="userSpaceOnUse" x1="209.2241" y1="185.3579" x2="202.2241" y2="185.3579" gradientTransform="matrix(0.75 0 0 -0.75 155.9012 518.0529)">
		<stop  offset="0" style="stop-color:#BAC0C1"/>
		<stop  offset="0.15" style="stop-color:#F4FAFC"/>
		<stop  offset="0.25" style="stop-color:#F8FCFD"/>
		<stop  offset="0.44" style="stop-color:#D5DBDD"/>
		<stop  offset="0.6" style="stop-color:#BDC3C4"/>
		<stop  offset="0.8" style="stop-color:#A0A4A6"/>
		<stop  offset="0.97" style="stop-color:#929697"/>
		<stop  offset="1" style="stop-color:#C2C7C9"/>
	</linearGradient>
	<path fill="url(#SVGID_24_)" d="M309.82,367.074c1.5,0,2.934,1.164,2.934,2.602l0.066,18.398c0,1.5-1.227,2.918-2.656,2.918
		c-1.094,0.082-2.594-1.164-2.594-2.602v-19.066c0-0.75,1.16-2.25,2.594-2.25H309.82z"/>
	
		<linearGradient id="SVGID_25_" gradientUnits="userSpaceOnUse" x1="209.2256" y1="185.3579" x2="202.2256" y2="185.3579" gradientTransform="matrix(0.75 0 0 -0.75 170.9354 518.0529)">
		<stop  offset="0" style="stop-color:#BAC0C1"/>
		<stop  offset="0.15" style="stop-color:#F4FAFC"/>
		<stop  offset="0.25" style="stop-color:#F8FCFD"/>
		<stop  offset="0.44" style="stop-color:#D5DBDD"/>
		<stop  offset="0.6" style="stop-color:#BDC3C4"/>
		<stop  offset="0.8" style="stop-color:#A0A4A6"/>
		<stop  offset="0.97" style="stop-color:#929697"/>
		<stop  offset="1" style="stop-color:#C2C7C9"/>
	</linearGradient>
	<path fill="url(#SVGID_25_)" d="M324.855,367.074c1.5,0,2.934,1.164,2.934,2.602l0.066,18.398c0,1.5-1.227,2.918-2.66,2.918
		c-1.09,0.082-2.59-1.164-2.59-2.602v-19.066c0-0.75,1.16-2.25,2.59-2.25H324.855z"/>
	
		<linearGradient id="SVGID_26_" gradientUnits="userSpaceOnUse" x1="317.2251" y1="195.7598" x2="202.2251" y2="195.7598" gradientTransform="matrix(0.75 0 0 -0.75 88.7679 625.1544)">
		<stop  offset="0" style="stop-color:#BAC0C1"/>
		<stop  offset="0.15" style="stop-color:#F4FAFC"/>
		<stop  offset="0.25" style="stop-color:#F8FCFD"/>
		<stop  offset="0.44" style="stop-color:#D5DBDD"/>
		<stop  offset="0.6" style="stop-color:#BDC3C4"/>
		<stop  offset="0.8" style="stop-color:#A0A4A6"/>
		<stop  offset="0.97" style="stop-color:#929697"/>
		<stop  offset="1" style="stop-color:#C2C7C9"/>
	</linearGradient>
	<path fill="url(#SVGID_26_)" d="M243.438,474.175h79.5c2.25,0,3.555,1.492,3.555,3.328l0.195,1.922c0,1.5-1.68,3.07-3.512,3.07
		l-79.738-0.07c-1.5,0-3-1.422-3-3.258v-1.992c0-1.5,1.484-3,3.316-3H243.438z"/>
	
		<linearGradient id="SVGID_27_" gradientUnits="userSpaceOnUse" x1="209.2246" y1="185.3584" x2="202.2246" y2="185.3584" gradientTransform="matrix(0.75 0 0 -0.75 87.472 617.3556)">
		<stop  offset="0" style="stop-color:#BAC0C1"/>
		<stop  offset="0.15" style="stop-color:#F4FAFC"/>
		<stop  offset="0.25" style="stop-color:#F8FCFD"/>
		<stop  offset="0.44" style="stop-color:#D5DBDD"/>
		<stop  offset="0.6" style="stop-color:#BDC3C4"/>
		<stop  offset="0.8" style="stop-color:#A0A4A6"/>
		<stop  offset="0.97" style="stop-color:#929697"/>
		<stop  offset="1" style="stop-color:#C2C7C9"/>
	</linearGradient>
	<path fill="url(#SVGID_27_)" d="M241.391,466.378c1.5,0,2.934,1.164,2.934,2.598l0.066,18.402c0,1.5-1.227,2.914-2.656,2.914
		c-1.094,0.086-2.594-1.164-2.594-2.598v-19.066c0-0.75,1.16-2.25,2.594-2.25H241.391z"/>
	
		<linearGradient id="SVGID_28_" gradientUnits="userSpaceOnUse" x1="209.2227" y1="185.3584" x2="202.2227" y2="185.3584" gradientTransform="matrix(0.75 0 0 -0.75 104.1649 617.3556)">
		<stop  offset="0" style="stop-color:#BAC0C1"/>
		<stop  offset="0.15" style="stop-color:#F4FAFC"/>
		<stop  offset="0.25" style="stop-color:#F8FCFD"/>
		<stop  offset="0.44" style="stop-color:#D5DBDD"/>
		<stop  offset="0.6" style="stop-color:#BDC3C4"/>
		<stop  offset="0.8" style="stop-color:#A0A4A6"/>
		<stop  offset="0.97" style="stop-color:#929697"/>
		<stop  offset="1" style="stop-color:#C2C7C9"/>
	</linearGradient>
	<path fill="url(#SVGID_28_)" d="M258.082,466.378c1.5,0,2.938,1.164,2.938,2.598l0.063,18.402c0,1.5-1.227,2.914-2.656,2.914
		c-1.094,0.086-2.594-1.164-2.594-2.598v-19.066c0-0.75,1.164-2.25,2.594-2.25H258.082z"/>
	
		<linearGradient id="SVGID_29_" gradientUnits="userSpaceOnUse" x1="209.2266" y1="185.3584" x2="202.2266" y2="185.3584" gradientTransform="matrix(0.75 0 0 -0.75 120.8573 617.3556)">
		<stop  offset="0" style="stop-color:#BAC0C1"/>
		<stop  offset="0.15" style="stop-color:#F4FAFC"/>
		<stop  offset="0.25" style="stop-color:#F8FCFD"/>
		<stop  offset="0.44" style="stop-color:#D5DBDD"/>
		<stop  offset="0.6" style="stop-color:#BDC3C4"/>
		<stop  offset="0.8" style="stop-color:#A0A4A6"/>
		<stop  offset="0.97" style="stop-color:#929697"/>
		<stop  offset="1" style="stop-color:#C2C7C9"/>
	</linearGradient>
	<path fill="url(#SVGID_29_)" d="M274.777,466.378c1.5,0,2.934,1.164,2.934,2.598l0.066,18.402c0,1.5-1.227,2.914-2.66,2.914
		c-1.09,0.086-2.59-1.164-2.59-2.598v-19.066c0-0.75,1.16-2.25,2.59-2.25H274.777z"/>
	
		<linearGradient id="SVGID_30_" gradientUnits="userSpaceOnUse" x1="209.2236" y1="185.3584" x2="202.2236" y2="185.3584" gradientTransform="matrix(0.75 0 0 -0.75 137.5502 617.3556)">
		<stop  offset="0" style="stop-color:#BAC0C1"/>
		<stop  offset="0.15" style="stop-color:#F4FAFC"/>
		<stop  offset="0.25" style="stop-color:#F8FCFD"/>
		<stop  offset="0.44" style="stop-color:#D5DBDD"/>
		<stop  offset="0.6" style="stop-color:#BDC3C4"/>
		<stop  offset="0.8" style="stop-color:#A0A4A6"/>
		<stop  offset="0.97" style="stop-color:#929697"/>
		<stop  offset="1" style="stop-color:#C2C7C9"/>
	</linearGradient>
	<path fill="url(#SVGID_30_)" d="M291.468,466.378c1.5,0,2.934,1.164,2.934,2.598l0.066,18.402c0,1.5-1.227,2.914-2.656,2.914
		c-1.094,0.086-2.594-1.164-2.594-2.598v-19.066c0-0.75,1.16-2.25,2.594-2.25H291.468z"/>
	
		<linearGradient id="SVGID_31_" gradientUnits="userSpaceOnUse" x1="209.2241" y1="185.3584" x2="202.2241" y2="185.3584" gradientTransform="matrix(0.75 0 0 -0.75 155.9012 617.3556)">
		<stop  offset="0" style="stop-color:#BAC0C1"/>
		<stop  offset="0.15" style="stop-color:#F4FAFC"/>
		<stop  offset="0.25" style="stop-color:#F8FCFD"/>
		<stop  offset="0.44" style="stop-color:#D5DBDD"/>
		<stop  offset="0.6" style="stop-color:#BDC3C4"/>
		<stop  offset="0.8" style="stop-color:#A0A4A6"/>
		<stop  offset="0.97" style="stop-color:#929697"/>
		<stop  offset="1" style="stop-color:#C2C7C9"/>
	</linearGradient>
	<path fill="url(#SVGID_31_)" d="M309.82,466.378c1.5,0,2.934,1.164,2.934,2.598l0.066,18.402c0,1.5-1.227,2.914-2.656,2.914
		c-1.094,0.086-2.594-1.164-2.594-2.598v-19.066c0-0.75,1.16-2.25,2.594-2.25H309.82z"/>
	
		<linearGradient id="SVGID_32_" gradientUnits="userSpaceOnUse" x1="209.2256" y1="185.3584" x2="202.2256" y2="185.3584" gradientTransform="matrix(0.75 0 0 -0.75 170.9354 617.3556)">
		<stop  offset="0" style="stop-color:#BAC0C1"/>
		<stop  offset="0.15" style="stop-color:#F4FAFC"/>
		<stop  offset="0.25" style="stop-color:#F8FCFD"/>
		<stop  offset="0.44" style="stop-color:#D5DBDD"/>
		<stop  offset="0.6" style="stop-color:#BDC3C4"/>
		<stop  offset="0.8" style="stop-color:#A0A4A6"/>
		<stop  offset="0.97" style="stop-color:#929697"/>
		<stop  offset="1" style="stop-color:#C2C7C9"/>
	</linearGradient>
	<path fill="url(#SVGID_32_)" d="M324.855,466.378c1.5,0,2.934,1.164,2.934,2.598l0.066,18.402c0,1.5-1.227,2.914-2.66,2.914
		c-1.09,0.086-2.59-1.164-2.59-2.598v-19.066c0-0.75,1.16-2.25,2.59-2.25H324.855z"/>
	
		<linearGradient id="SVGID_33_" gradientUnits="userSpaceOnUse" x1="630.2241" y1="189.3301" x2="202.2251" y2="189.33" gradientTransform="matrix(0.75 0 0 -0.75 -28.7047 371.7111)">
		<stop  offset="0" style="stop-color:#BAC0C1"/>
		<stop  offset="0.15" style="stop-color:#F4FAFC"/>
		<stop  offset="0.25" style="stop-color:#F8FCFD"/>
		<stop  offset="0.44" style="stop-color:#D5DBDD"/>
		<stop  offset="0.6" style="stop-color:#BDC3C4"/>
		<stop  offset="0.8" style="stop-color:#A0A4A6"/>
		<stop  offset="0.97" style="stop-color:#929697"/>
		<stop  offset="1" style="stop-color:#C2C7C9"/>
	</linearGradient>
	<path fill="url(#SVGID_33_)" d="M128.965,220.734h309c3.75,0,6,2.551,6,5.746v6.254c0,3-2.621,5.715-5.809,5.715l-309.191,0.285
		c-3.75,0-6-2.887-6-6.082v-5.918c0-3.75,2.512-6.039,5.703-6.039L128.965,220.734z"/>
	
		<linearGradient id="SVGID_34_" gradientUnits="userSpaceOnUse" x1="589.2251" y1="196.8062" x2="202.2251" y2="196.8061" gradientTransform="matrix(0.75 0 0 -0.75 -12.7281 366.0763)">
		<stop  offset="0" style="stop-color:#A7B1B4"/>
		<stop  offset="0.15" style="stop-color:#DCE9EC"/>
		<stop  offset="0.25" style="stop-color:#ECF2F4"/>
		<stop  offset="0.44" style="stop-color:#BFCACE"/>
		<stop  offset="0.6" style="stop-color:#AAB4B7"/>
		<stop  offset="0.8" style="stop-color:#8F979A"/>
		<stop  offset="0.97" style="stop-color:#828A8D"/>
		<stop  offset="1" style="stop-color:#AEB8BB"/>
	</linearGradient>
	<path fill="url(#SVGID_34_)" d="M138.941,221.848h290.25v-6.75h-290.25V221.848z"/>
	
		<linearGradient id="SVGID_35_" gradientUnits="userSpaceOnUse" x1="630.2241" y1="198.3071" x2="202.2251" y2="198.3071" gradientTransform="matrix(0.75 0 0 -0.75 -28.7047 378.1622)">
		<stop  offset="0" style="stop-color:#9AA3A5"/>
		<stop  offset="0.15" style="stop-color:#CDD8DA"/>
		<stop  offset="0.25" style="stop-color:#E3E9EA"/>
		<stop  offset="0.44" style="stop-color:#B0BABC"/>
		<stop  offset="0.6" style="stop-color:#9CA6A7"/>
		<stop  offset="0.8" style="stop-color:#838B8D"/>
		<stop  offset="0.97" style="stop-color:#787F80"/>
		<stop  offset="1" style="stop-color:#A0A9AB"/>
	</linearGradient>
	<path fill="url(#SVGID_35_)" d="M122.965,227.184h321v4.5h-321V227.184z"/>
	
		<linearGradient id="SVGID_36_" gradientUnits="userSpaceOnUse" x1="620.2251" y1="196.3042" x2="202.2256" y2="196.3042" gradientTransform="matrix(0.75 0 0 -0.75 -24.7946 389.8761)">
		<stop  offset="0" style="stop-color:#A7B1B4"/>
		<stop  offset="0.15" style="stop-color:#DCE9EC"/>
		<stop  offset="0.25" style="stop-color:#ECF2F4"/>
		<stop  offset="0.44" style="stop-color:#BFCACE"/>
		<stop  offset="0.6" style="stop-color:#AAB4B7"/>
		<stop  offset="0.8" style="stop-color:#8F979A"/>
		<stop  offset="0.97" style="stop-color:#828A8D"/>
		<stop  offset="1" style="stop-color:#AEB8BB"/>
	</linearGradient>
	<path fill="url(#SVGID_36_)" d="M126.875,238.898h313.5v7.5h-313.5V238.898z"/>
</g>
</svg>
