<?xml version="1.0" encoding="utf-8"?>
<!-- Generator: Adobe Illustrator 16.0.0, SVG Export Plug-In . SVG Version: 6.00 Build 0)  -->
<!DOCTYPE svg PUBLIC "-//W3C//DTD SVG 1.1//EN" "http://www.w3.org/Graphics/SVG/1.1/DTD/svg11.dtd">
<svg preserveAspectRatio="none"   version="1.1" id="图层_1" xmlns="http://www.w3.org/2000/svg" xmlns:xlink="http://www.w3.org/1999/xlink" x="0px" y="0px"
	 width="564.328px" height="214.477px" viewBox="1.301 351 564.328 214.477" enable-background="new 1.301 351 564.328 214.477"
	 xml:space="preserve">
<g id="surface256">
	
		<linearGradient id="SVGID_1_" gradientUnits="userSpaceOnUse" x1="242.2266" y1="181.8047" x2="202.2266" y2="181.8047" gradientTransform="matrix(0.75 0 0 -0.75 -28.5919 529.4347)">
		<stop  offset="0" style="stop-color:#99AEB6"/>
		<stop  offset="0.15" style="stop-color:#D2ECF7"/>
		<stop  offset="0.25" style="stop-color:#E6F4FA"/>
		<stop  offset="0.52" style="stop-color:#B5CED7"/>
		<stop  offset="0.69" style="stop-color:#A1B7C0"/>
		<stop  offset="0.8" style="stop-color:#98ADB5"/>
		<stop  offset="0.92" style="stop-color:#8FA3AB"/>
		<stop  offset="1" style="stop-color:#A5BBC4"/>
	</linearGradient>
	<path fill="url(#SVGID_1_)" d="M123.078,407.707h30v-29.25h-30V407.707z"/>
	
		<linearGradient id="SVGID_2_" gradientUnits="userSpaceOnUse" x1="256.6855" y1="194.3066" x2="202.2275" y2="194.3066" gradientTransform="matrix(0.75 0 0 -0.75 -34.0382 519.1388)">
		<stop  offset="0" style="stop-color:#99AEB6"/>
		<stop  offset="0.15" style="stop-color:#D2ECF7"/>
		<stop  offset="0.25" style="stop-color:#E6F4FA"/>
		<stop  offset="0.52" style="stop-color:#B5CED7"/>
		<stop  offset="0.69" style="stop-color:#A1B7C0"/>
		<stop  offset="0.8" style="stop-color:#98ADB5"/>
		<stop  offset="0.92" style="stop-color:#8FA3AB"/>
		<stop  offset="1" style="stop-color:#A5BBC4"/>
	</linearGradient>
	<path fill="url(#SVGID_2_)" d="M119.133,368.16h37.5c0.75,0,1.844,0.77,1.844,1.719l-0.344,6.531c0,1.5-0.418,2.047-1.359,2.047
		l-37.641,0.203c-0.75,0-1.5-0.973-1.5-1.918v-7.082c0-0.75,0.762-1.5,1.699-1.5H119.133z"/>
	
		<linearGradient id="SVGID_3_" gradientUnits="userSpaceOnUse" x1="430.2241" y1="201.3027" x2="430.2241" y2="120.3027" gradientTransform="matrix(0.75 0 0 -0.75 -127.9811 572.2618)">
		<stop  offset="0" style="stop-color:#BDBDBD"/>
		<stop  offset="0.15" style="stop-color:#FFFFFF"/>
		<stop  offset="0.25" style="stop-color:#FFFFFF"/>
		<stop  offset="0.52" style="stop-color:#DFDFDF"/>
		<stop  offset="0.69" style="stop-color:#C7C7C7"/>
		<stop  offset="0.8" style="stop-color:#BCBCBC"/>
		<stop  offset="0.92" style="stop-color:#B1B1B1"/>
		<stop  offset="1" style="stop-color:#CBCBCB"/>
	</linearGradient>
	<path fill="url(#SVGID_3_)" d="M23.688,421.285h342v60.75h-342V421.285z"/>
	
		<linearGradient id="SVGID_4_" gradientUnits="userSpaceOnUse" x1="207.2275" y1="201.3047" x2="207.2275" y2="98.3047" gradientTransform="matrix(0.75 0 0 -0.75 206.8055 563.92)">
		<stop  offset="0" style="stop-color:#BDBDBD"/>
		<stop  offset="0.15" style="stop-color:#FFFFFF"/>
		<stop  offset="0.25" style="stop-color:#FFFFFF"/>
		<stop  offset="0.52" style="stop-color:#DFDFDF"/>
		<stop  offset="0.69" style="stop-color:#C7C7C7"/>
		<stop  offset="0.8" style="stop-color:#BCBCBC"/>
		<stop  offset="0.92" style="stop-color:#B1B1B1"/>
		<stop  offset="1" style="stop-color:#CBCBCB"/>
	</linearGradient>
	<path fill="url(#SVGID_4_)" d="M358.476,412.941h7.5v77.25h-7.5V412.941z"/>
	
		<linearGradient id="SVGID_5_" gradientUnits="userSpaceOnUse" x1="211.2271" y1="201.3037" x2="211.2271" y2="64.3037" gradientTransform="matrix(0.75 0 0 -0.75 213.4198 551.2189)">
		<stop  offset="0" style="stop-color:#97AA93"/>
		<stop  offset="0.15" style="stop-color:#D0E8CB"/>
		<stop  offset="0.25" style="stop-color:#E5F2E2"/>
		<stop  offset="0.52" style="stop-color:#B3C9AE"/>
		<stop  offset="0.69" style="stop-color:#9FB39B"/>
		<stop  offset="0.8" style="stop-color:#96A992"/>
		<stop  offset="0.92" style="stop-color:#8E9F89"/>
		<stop  offset="1" style="stop-color:#A3B79E"/>
	</linearGradient>
	<path fill="url(#SVGID_5_)" d="M367.339,400.242h11.25v102.75h-11.25c-1.5,0-2.25-0.848-2.25-2.203v-98.297
		c0-1.5,1.09-2.25,2.434-2.25H367.339z"/>
	
		<linearGradient id="SVGID_6_" gradientUnits="userSpaceOnUse" x1="274.7266" y1="201.3066" x2="274.7266" y2="58.3057" gradientTransform="matrix(0.75 0 0 -0.75 232.9823 549.2286)">
		<stop  offset="0" style="stop-color:#97AA93"/>
		<stop  offset="0.15" style="stop-color:#D0E8CB"/>
		<stop  offset="0.25" style="stop-color:#E5F2E2"/>
		<stop  offset="0.52" style="stop-color:#B3C9AE"/>
		<stop  offset="0.69" style="stop-color:#9FB39B"/>
		<stop  offset="0.8" style="stop-color:#96A992"/>
		<stop  offset="0.92" style="stop-color:#8E9F89"/>
		<stop  offset="1" style="stop-color:#A3B79E"/>
	</linearGradient>
	<path fill="url(#SVGID_6_)" d="M384.652,398.25h108.75V505.5h-108.75V398.25z"/>
	
		<linearGradient id="SVGID_7_" gradientUnits="userSpaceOnUse" x1="234.6631" y1="201.3027" x2="234.6631" y2="58.3027" gradientTransform="matrix(0.75 0 0 -0.75 341.1552 549.2423)">
		<stop  offset="0" style="stop-color:#97AA93"/>
		<stop  offset="0.15" style="stop-color:#D0E8CB"/>
		<stop  offset="0.25" style="stop-color:#E5F2E2"/>
		<stop  offset="0.52" style="stop-color:#B3C9AE"/>
		<stop  offset="0.69" style="stop-color:#9FB39B"/>
		<stop  offset="0.8" style="stop-color:#96A992"/>
		<stop  offset="0.92" style="stop-color:#8E9F89"/>
		<stop  offset="1" style="stop-color:#A3B79E"/>
	</linearGradient>
	<path fill="url(#SVGID_7_)" d="M492.824,398.265h39c0,0,9.434,0,9.656,53.559c0.094,53.691-9.883,53.559-9.883,53.559
		l-38.773,0.133V398.265z"/>
	
		<linearGradient id="SVGID_8_" gradientUnits="userSpaceOnUse" x1="203.7241" y1="201.3066" x2="203.7241" y2="58.3066" gradientTransform="matrix(0.75 0 0 -0.75 340.7616 549.2286)">
		<stop  offset="0" style="stop-color:#789947"/>
		<stop  offset="0.15" style="stop-color:#AAD274"/>
		<stop  offset="0.25" style="stop-color:#D3E6BE"/>
		<stop  offset="0.52" style="stop-color:#8EB555"/>
		<stop  offset="0.69" style="stop-color:#7EA14B"/>
		<stop  offset="0.8" style="stop-color:#779846"/>
		<stop  offset="0.92" style="stop-color:#708F42"/>
		<stop  offset="1" style="stop-color:#81A54D"/>
	</linearGradient>
	<path fill="url(#SVGID_8_)" d="M492.429,398.25h2.25V505.5h-2.25V398.25z"/>
	
		<linearGradient id="SVGID_9_" gradientUnits="userSpaceOnUse" x1="170.1772" y1="201.3037" x2="170.1772" y2="50.8301" gradientTransform="matrix(-0.75 0 0 -0.75 509.1036 546.3019)">
		<stop  offset="0" style="stop-color:#789947"/>
		<stop  offset="0.15" style="stop-color:#AAD274"/>
		<stop  offset="0.25" style="stop-color:#D3E6BE"/>
		<stop  offset="0.52" style="stop-color:#8EB555"/>
		<stop  offset="0.69" style="stop-color:#7EA14B"/>
		<stop  offset="0.8" style="stop-color:#779846"/>
		<stop  offset="0.92" style="stop-color:#708F42"/>
		<stop  offset="1" style="stop-color:#81A54D"/>
	</linearGradient>
	<path fill="url(#SVGID_9_)" d="M384.078,395.324h-4.5c-0.75,0-1.223,0.496-1.223,1.113l-0.277,110.637
		c0,0.75,0.773,1.105,1.391,1.105l4.609-0.355c0,0,0.789-0.188,0.789-0.809l-0.039-110.941c0,0-0.461-0.75-1.074-0.75H384.078z"/>
	
		<linearGradient id="SVGID_10_" gradientUnits="userSpaceOnUse" x1="168.2744" y1="201.3027" x2="168.2744" y2="51.1826" gradientTransform="matrix(-0.75 0 0 -0.75 506.546 546.4337)">
		<stop  offset="0" style="stop-color:#97AA93"/>
		<stop  offset="0.15" style="stop-color:#D0E8CB"/>
		<stop  offset="0.25" style="stop-color:#E5F2E2"/>
		<stop  offset="0.52" style="stop-color:#B3C9AE"/>
		<stop  offset="0.69" style="stop-color:#9FB39B"/>
		<stop  offset="0.8" style="stop-color:#96A992"/>
		<stop  offset="0.92" style="stop-color:#8E9F89"/>
		<stop  offset="1" style="stop-color:#A3B79E"/>
	</linearGradient>
	<path fill="url(#SVGID_10_)" d="M380.769,395.457h-0.75c-0.75,0-1.66,0.5-1.66,1.121l0.16,110.629c0,0,0.48,0.84,1.273,0.84
		l0.977-0.09c0.75,0,1.555-0.441,1.555-1.063l-0.055-110.688c0,0-0.59-0.75-1.383-0.75H380.769z"/>
	<path fill="#C1D9BD" d="M389.316,489.144h99v26.25h-99V489.144z"/>
	<path fill="#9DBF6E" d="M389.316,514.55h99v7.5h-99V514.55z"/>
	
		<linearGradient id="SVGID_11_" gradientUnits="userSpaceOnUse" x1="265.2275" y1="201.3486" x2="265.2275" y2="196.3018" gradientTransform="matrix(0.75 0 0 -0.75 244.8134 573.2491)">
		<stop  offset="0" style="stop-color:#97AA93"/>
		<stop  offset="0.15" style="stop-color:#D0E8CB"/>
		<stop  offset="0.25" style="stop-color:#E5F2E2"/>
		<stop  offset="0.52" style="stop-color:#B3C9AE"/>
		<stop  offset="0.69" style="stop-color:#9FB39B"/>
		<stop  offset="0.8" style="stop-color:#96A992"/>
		<stop  offset="0.92" style="stop-color:#8E9F89"/>
		<stop  offset="1" style="stop-color:#A3B79E"/>
	</linearGradient>
	<path fill="url(#SVGID_11_)" d="M397.234,422.273h93c0,0,0.641,0.465,0.641,1.086l0.109,1.164c0,0.75-0.516,1.324-1.012,1.324
		l-92.738,0.176c0,0-0.75-0.68-0.75-1.297v-1.703c0,0,0.375-0.785,0.871-0.785L397.234,422.273z"/>
	
		<linearGradient id="SVGID_12_" gradientUnits="userSpaceOnUse" x1="265.2275" y1="201.3496" x2="265.2275" y2="196.3027" gradientTransform="matrix(0.75 0 0 -0.75 244.8134 583.7697)">
		<stop  offset="0" style="stop-color:#97AA93"/>
		<stop  offset="0.15" style="stop-color:#D0E8CB"/>
		<stop  offset="0.25" style="stop-color:#E5F2E2"/>
		<stop  offset="0.52" style="stop-color:#B3C9AE"/>
		<stop  offset="0.69" style="stop-color:#9FB39B"/>
		<stop  offset="0.8" style="stop-color:#96A992"/>
		<stop  offset="0.92" style="stop-color:#8E9F89"/>
		<stop  offset="1" style="stop-color:#A3B79E"/>
	</linearGradient>
	<path fill="url(#SVGID_12_)" d="M397.234,432.792h93c0,0,0.641,0.469,0.641,1.086l0.109,1.164c0,0.75-0.516,1.324-1.012,1.324
		l-92.738,0.176c0,0-0.75-0.676-0.75-1.297v-1.703c0,0,0.375-0.785,0.871-0.785L397.234,432.792z"/>
	
		<linearGradient id="SVGID_13_" gradientUnits="userSpaceOnUse" x1="265.2275" y1="201.3506" x2="265.2275" y2="196.3037" gradientTransform="matrix(0.75 0 0 -0.75 244.8134 594.2902)">
		<stop  offset="0" style="stop-color:#97AA93"/>
		<stop  offset="0.15" style="stop-color:#D0E8CB"/>
		<stop  offset="0.25" style="stop-color:#E5F2E2"/>
		<stop  offset="0.52" style="stop-color:#B3C9AE"/>
		<stop  offset="0.69" style="stop-color:#9FB39B"/>
		<stop  offset="0.8" style="stop-color:#96A992"/>
		<stop  offset="0.92" style="stop-color:#8E9F89"/>
		<stop  offset="1" style="stop-color:#A3B79E"/>
	</linearGradient>
	<path fill="url(#SVGID_13_)" d="M397.234,443.312h93c0,0,0.641,0.469,0.641,1.09l0.109,1.16c0,0.75-0.516,1.328-1.012,1.328
		l-92.738,0.172c0,0-0.75-0.676-0.75-1.297v-1.703c0,0,0.375-0.785,0.871-0.785L397.234,443.312z"/>
	
		<linearGradient id="SVGID_14_" gradientUnits="userSpaceOnUse" x1="265.2275" y1="201.3525" x2="265.2275" y2="196.3057" gradientTransform="matrix(0.75 0 0 -0.75 244.8134 604.8107)">
		<stop  offset="0" style="stop-color:#97AA93"/>
		<stop  offset="0.15" style="stop-color:#D0E8CB"/>
		<stop  offset="0.25" style="stop-color:#E5F2E2"/>
		<stop  offset="0.52" style="stop-color:#B3C9AE"/>
		<stop  offset="0.69" style="stop-color:#9FB39B"/>
		<stop  offset="0.8" style="stop-color:#96A992"/>
		<stop  offset="0.92" style="stop-color:#8E9F89"/>
		<stop  offset="1" style="stop-color:#A3B79E"/>
	</linearGradient>
	<path fill="url(#SVGID_14_)" d="M397.234,453.832h93c0,0,0.641,0.469,0.641,1.09l0.109,1.16c0,0.75-0.516,1.328-1.012,1.328
		l-92.738,0.172c0,0-0.75-0.676-0.75-1.297v-1.703c0,0,0.375-0.785,0.871-0.785L397.234,453.832z"/>
	
		<linearGradient id="SVGID_15_" gradientUnits="userSpaceOnUse" x1="265.2275" y1="201.3486" x2="265.2275" y2="196.3018" gradientTransform="matrix(0.75 0 0 -0.75 244.8134 615.3312)">
		<stop  offset="0" style="stop-color:#97AA93"/>
		<stop  offset="0.15" style="stop-color:#D0E8CB"/>
		<stop  offset="0.25" style="stop-color:#E5F2E2"/>
		<stop  offset="0.52" style="stop-color:#B3C9AE"/>
		<stop  offset="0.69" style="stop-color:#9FB39B"/>
		<stop  offset="0.8" style="stop-color:#96A992"/>
		<stop  offset="0.92" style="stop-color:#8E9F89"/>
		<stop  offset="1" style="stop-color:#A3B79E"/>
	</linearGradient>
	<path fill="url(#SVGID_15_)" d="M397.234,464.355h93c0,0,0.641,0.465,0.641,1.086l0.109,1.164c0,0.75-0.516,1.324-1.012,1.324
		l-92.738,0.176c0,0-0.75-0.68-0.75-1.297v-1.703c0,0,0.375-0.785,0.871-0.785L397.234,464.355z"/>
	
		<linearGradient id="SVGID_16_" gradientUnits="userSpaceOnUse" x1="265.2285" y1="201.3496" x2="265.2285" y2="196.3027" gradientTransform="matrix(0.75 0 0 -0.75 244.8134 625.8517)">
		<stop  offset="0" style="stop-color:#97AA93"/>
		<stop  offset="0.15" style="stop-color:#D0E8CB"/>
		<stop  offset="0.25" style="stop-color:#E5F2E2"/>
		<stop  offset="0.52" style="stop-color:#B3C9AE"/>
		<stop  offset="0.69" style="stop-color:#9FB39B"/>
		<stop  offset="0.8" style="stop-color:#96A992"/>
		<stop  offset="0.92" style="stop-color:#8E9F89"/>
		<stop  offset="1" style="stop-color:#A3B79E"/>
	</linearGradient>
	<path fill="url(#SVGID_16_)" d="M397.234,474.875h93c0,0,0.641,0.469,0.641,1.086l0.109,1.164c0,0.75-0.516,1.324-1.012,1.324
		l-92.738,0.176c0,0-0.75-0.676-0.75-1.297v-1.703c0,0,0.375-0.785,0.871-0.785L397.234,474.875z"/>
	
		<linearGradient id="SVGID_17_" gradientUnits="userSpaceOnUse" x1="14.3066" y1="321.2026" x2="1.3066" y2="321.2026" gradientTransform="matrix(0 -0.75 -0.75 0 662.964 402.8263)">
		<stop  offset="0" style="stop-color:#889985"/>
		<stop  offset="0.03" style="stop-color:#CFE1CC"/>
		<stop  offset="0.08" style="stop-color:#B2C8AE"/>
		<stop  offset="0.64" style="stop-color:#AFC4AB"/>
		<stop  offset="0.95" style="stop-color:#ABC0A7"/>
		<stop  offset="1" style="stop-color:#7E8E7B"/>
	</linearGradient>
	<path fill="url(#SVGID_17_)" d="M388.687,401.847l6.75-9.75h53.25l6.75,9.75H388.687z"/>
	
		<linearGradient id="SVGID_18_" gradientUnits="userSpaceOnUse" x1="253.7031" y1="173.8047" x2="165.7031" y2="173.8047" gradientTransform="matrix(-0.75 0 0 -0.75 579.5587 501.9777)">
		<stop  offset="0" style="stop-color:#889985"/>
		<stop  offset="0.03" style="stop-color:#CFE1CC"/>
		<stop  offset="0.08" style="stop-color:#B2C8AE"/>
		<stop  offset="0.64" style="stop-color:#AFC4AB"/>
		<stop  offset="0.95" style="stop-color:#ABC0A7"/>
		<stop  offset="1" style="stop-color:#7E8E7B"/>
	</linearGradient>
	<path fill="url(#SVGID_18_)" d="M455.281,392.25h-66V351h66V392.25z"/>
	
		<linearGradient id="SVGID_19_" gradientUnits="userSpaceOnUse" x1="253.7021" y1="199.3066" x2="165.7021" y2="199.3066" gradientTransform="matrix(-0.75 0 0 -0.75 579.3849 517.131)">
		<stop  offset="0" style="stop-color:#769052"/>
		<stop  offset="0.03" style="stop-color:#BED89F"/>
		<stop  offset="0.08" style="stop-color:#9BBD6D"/>
		<stop  offset="0.64" style="stop-color:#99BA6B"/>
		<stop  offset="0.95" style="stop-color:#95B569"/>
		<stop  offset="1" style="stop-color:#6E864C"/>
	</linearGradient>
	<path fill="url(#SVGID_19_)" d="M455.109,369.152h-66v-3h66V369.152z"/>
	
		<linearGradient id="SVGID_20_" gradientUnits="userSpaceOnUse" x1="177.7041" y1="191.3047" x2="165.7041" y2="191.3047" gradientTransform="matrix(-0.75 0 0 -0.75 579.379 501.9767)">
		<stop  offset="0" style="stop-color:#889985"/>
		<stop  offset="0.03" style="stop-color:#CFE1CC"/>
		<stop  offset="0.08" style="stop-color:#B2C8AE"/>
		<stop  offset="0.64" style="stop-color:#AFC4AB"/>
		<stop  offset="0.95" style="stop-color:#ABC0A7"/>
		<stop  offset="1" style="stop-color:#7E8E7B"/>
	</linearGradient>
	<path fill="url(#SVGID_20_)" d="M455.101,366h-9v-15h9V366z"/>
	
		<linearGradient id="SVGID_21_" gradientUnits="userSpaceOnUse" x1="177.7021" y1="191.3047" x2="165.7021" y2="191.3047" gradientTransform="matrix(-0.75 0 0 -0.75 522.4952 501.9767)">
		<stop  offset="0" style="stop-color:#889985"/>
		<stop  offset="0.03" style="stop-color:#CFE1CC"/>
		<stop  offset="0.08" style="stop-color:#B2C8AE"/>
		<stop  offset="0.64" style="stop-color:#AFC4AB"/>
		<stop  offset="0.95" style="stop-color:#ABC0A7"/>
		<stop  offset="1" style="stop-color:#7E8E7B"/>
	</linearGradient>
	<path fill="url(#SVGID_21_)" d="M398.218,366h-9v-15h9V366z"/>
	
		<linearGradient id="SVGID_22_" gradientUnits="userSpaceOnUse" x1="172.9346" y1="197.6641" x2="165.7051" y2="197.6641" gradientTransform="matrix(-0.75 0 0 -0.75 577.4972 506.8165)">
		<stop  offset="0" style="stop-color:#C4AA84"/>
		<stop  offset="0.15" style="stop-color:#FFE0B3"/>
		<stop  offset="0.25" style="stop-color:#FFEED7"/>
		<stop  offset="0.44" style="stop-color:#DFC297"/>
		<stop  offset="0.6" style="stop-color:#C7AD86"/>
		<stop  offset="0.8" style="stop-color:#A89170"/>
		<stop  offset="0.97" style="stop-color:#998566"/>
		<stop  offset="1" style="stop-color:#CBB189"/>
	</linearGradient>
	<path fill="url(#SVGID_22_)" d="M453.218,358.839c0-1.5-1.211-3-2.711-3c-1.789,0-2.711,1.219-2.711,2.73
		c0.172,1.77,1.211,2.73,2.711,2.73c1.211-0.211,2.711-1.223,2.711-2.73V358.839z"/>
	<path fill="#9C8059" d="M452.128,357.457c-0.531-0.531-0.609-0.395-0.746-0.254l-2.438,2.375c0,0,0.055,0.23,0.191,0.367
		c0.34,0.16,0.363,0.141,0.5,0L452.128,357.457c0,0-0.109-0.117-0.246-0.254L452.128,357.457z"/>
	<path fill="#9C8059" d="M449.394,356.957c-0.531,0.531-0.391,0.605-0.254,0.742l2.375,2.438c0,0,0.23-0.051,0.371-0.191
		c0.16-0.336,0.137-0.359,0-0.496L449.394,356.957c0,0-0.117,0.105-0.254,0.246L449.394,356.957z"/>
	
		<linearGradient id="SVGID_23_" gradientUnits="userSpaceOnUse" x1="172.9395" y1="197.6641" x2="165.7051" y2="197.6641" gradientTransform="matrix(-0.75 0 0 -0.75 520.6144 506.8165)">
		<stop  offset="0" style="stop-color:#C4AA84"/>
		<stop  offset="0.15" style="stop-color:#FFE0B3"/>
		<stop  offset="0.25" style="stop-color:#FFEED7"/>
		<stop  offset="0.44" style="stop-color:#DFC297"/>
		<stop  offset="0.6" style="stop-color:#C7AD86"/>
		<stop  offset="0.8" style="stop-color:#A89170"/>
		<stop  offset="0.97" style="stop-color:#998566"/>
		<stop  offset="1" style="stop-color:#CBB189"/>
	</linearGradient>
	<path fill="url(#SVGID_23_)" d="M396.335,358.839c0-1.5-1.215-3-2.711-3c-1.789,0-2.715,1.219-2.715,2.73
		c0.176,1.77,1.215,2.73,2.715,2.73c1.211-0.211,2.711-1.223,2.711-2.73V358.839z"/>
	<path fill="#9C8059" d="M395.246,357.457c-0.531-0.531-0.609-0.395-0.746-0.254l-2.438,2.375c0,0,0.055,0.23,0.191,0.367
		c0.34,0.16,0.363,0.141,0.5,0L395.246,357.457c0,0-0.109-0.117-0.246-0.254L395.246,357.457z"/>
	<path fill="#9C8059" d="M392.511,356.957c-0.531,0.531-0.391,0.605-0.254,0.742l2.375,2.438c0,0,0.23-0.051,0.371-0.191
		c0.16-0.336,0.137-0.359,0-0.496L392.511,356.957c0,0-0.117,0.105-0.254,0.246L392.511,356.957z"/>
	
		<linearGradient id="SVGID_24_" gradientUnits="userSpaceOnUse" x1="287.2251" y1="201.3037" x2="287.2251" y2="111.3037" gradientTransform="matrix(0.75 0 0 -0.75 30.202 568.9659)">
		<stop  offset="0" style="stop-color:#97AA93"/>
		<stop  offset="0.15" style="stop-color:#D0E8CB"/>
		<stop  offset="0.25" style="stop-color:#E5F2E2"/>
		<stop  offset="0.52" style="stop-color:#B3C9AE"/>
		<stop  offset="0.69" style="stop-color:#9FB39B"/>
		<stop  offset="0.8" style="stop-color:#96A992"/>
		<stop  offset="0.92" style="stop-color:#8E9F89"/>
		<stop  offset="1" style="stop-color:#A3B79E"/>
	</linearGradient>
	<path fill="url(#SVGID_24_)" d="M181.871,417.988h127.5v67.5h-127.5V417.988z"/>
	
		<linearGradient id="SVGID_25_" gradientUnits="userSpaceOnUse" x1="204.2271" y1="201.3037" x2="204.2271" y2="111.3037" gradientTransform="matrix(0.75 0 0 -0.75 154.7557 568.9659)">
		<stop  offset="0" style="stop-color:#789947"/>
		<stop  offset="0.15" style="stop-color:#AAD274"/>
		<stop  offset="0.25" style="stop-color:#D3E6BE"/>
		<stop  offset="0.52" style="stop-color:#8EB555"/>
		<stop  offset="0.69" style="stop-color:#7EA14B"/>
		<stop  offset="0.8" style="stop-color:#779846"/>
		<stop  offset="0.92" style="stop-color:#708F42"/>
		<stop  offset="1" style="stop-color:#81A54D"/>
	</linearGradient>
	<path fill="url(#SVGID_25_)" d="M306.425,417.988h3v67.5h-3V417.988z"/>
	
		<linearGradient id="SVGID_26_" gradientUnits="userSpaceOnUse" x1="204.2261" y1="201.3037" x2="204.2261" y2="111.3037" gradientTransform="matrix(0.75 0 0 -0.75 30.202 568.9659)">
		<stop  offset="0" style="stop-color:#789947"/>
		<stop  offset="0.15" style="stop-color:#AAD274"/>
		<stop  offset="0.25" style="stop-color:#D3E6BE"/>
		<stop  offset="0.52" style="stop-color:#8EB555"/>
		<stop  offset="0.69" style="stop-color:#7EA14B"/>
		<stop  offset="0.8" style="stop-color:#779846"/>
		<stop  offset="0.92" style="stop-color:#708F42"/>
		<stop  offset="1" style="stop-color:#81A54D"/>
	</linearGradient>
	<path fill="url(#SVGID_26_)" d="M181.871,417.988h3v67.5h-3V417.988z"/>
	
		<linearGradient id="SVGID_27_" gradientUnits="userSpaceOnUse" x1="286.7241" y1="201.3057" x2="286.7241" y2="84.3057" gradientTransform="matrix(0.75 0 0 -0.75 -112.1212 558.8654)">
		<stop  offset="0" style="stop-color:#99AEB6"/>
		<stop  offset="0.15" style="stop-color:#D2ECF7"/>
		<stop  offset="0.25" style="stop-color:#E6F4FA"/>
		<stop  offset="0.52" style="stop-color:#B5CED7"/>
		<stop  offset="0.69" style="stop-color:#A1B7C0"/>
		<stop  offset="0.8" style="stop-color:#98ADB5"/>
		<stop  offset="0.92" style="stop-color:#8FA3AB"/>
		<stop  offset="1" style="stop-color:#A5BBC4"/>
	</linearGradient>
	<path fill="url(#SVGID_27_)" d="M166.297,407.886H39.547v87.75h126.75V407.886z"/>
	
		<linearGradient id="SVGID_28_" gradientUnits="userSpaceOnUse" x1="286.7241" y1="201.3047" x2="286.7241" y2="194.3047" gradientTransform="matrix(0.75 0 0 -0.75 -112.1212 575.7677)">
		<stop  offset="0" style="stop-color:#99AEB6"/>
		<stop  offset="0.15" style="stop-color:#D2ECF7"/>
		<stop  offset="0.25" style="stop-color:#E6F4FA"/>
		<stop  offset="0.52" style="stop-color:#B5CED7"/>
		<stop  offset="0.69" style="stop-color:#A1B7C0"/>
		<stop  offset="0.8" style="stop-color:#98ADB5"/>
		<stop  offset="0.92" style="stop-color:#8FA3AB"/>
		<stop  offset="1" style="stop-color:#A5BBC4"/>
	</linearGradient>
	<path fill="url(#SVGID_28_)" d="M166.297,424.789H39.547v5.25h126.75V424.789z"/>
	
		<linearGradient id="SVGID_29_" gradientUnits="userSpaceOnUse" x1="286.7241" y1="201.3047" x2="286.7241" y2="194.3047" gradientTransform="matrix(0.75 0 0 -0.75 -112.1212 600.3771)">
		<stop  offset="0" style="stop-color:#99AEB6"/>
		<stop  offset="0.15" style="stop-color:#D2ECF7"/>
		<stop  offset="0.25" style="stop-color:#E6F4FA"/>
		<stop  offset="0.52" style="stop-color:#B5CED7"/>
		<stop  offset="0.69" style="stop-color:#A1B7C0"/>
		<stop  offset="0.8" style="stop-color:#98ADB5"/>
		<stop  offset="0.92" style="stop-color:#8FA3AB"/>
		<stop  offset="1" style="stop-color:#A5BBC4"/>
	</linearGradient>
	<path fill="url(#SVGID_29_)" d="M166.297,449.398H39.547v5.25h126.75V449.398z"/>
	
		<linearGradient id="SVGID_30_" gradientUnits="userSpaceOnUse" x1="286.7251" y1="201.3066" x2="286.7251" y2="194.3066" gradientTransform="matrix(0.75 0 0 -0.75 -112.1212 624.9874)">
		<stop  offset="0" style="stop-color:#99AEB6"/>
		<stop  offset="0.15" style="stop-color:#D2ECF7"/>
		<stop  offset="0.25" style="stop-color:#E6F4FA"/>
		<stop  offset="0.52" style="stop-color:#B5CED7"/>
		<stop  offset="0.69" style="stop-color:#A1B7C0"/>
		<stop  offset="0.8" style="stop-color:#98ADB5"/>
		<stop  offset="0.92" style="stop-color:#8FA3AB"/>
		<stop  offset="1" style="stop-color:#A5BBC4"/>
	</linearGradient>
	<path fill="url(#SVGID_30_)" d="M166.297,474.007H39.547v5.25h126.75V474.007z"/>
	
		<linearGradient id="SVGID_31_" gradientUnits="userSpaceOnUse" x1="286.7251" y1="201.3066" x2="286.7251" y2="194.3066" gradientTransform="matrix(0.75 0 0 -0.75 -112.1212 649.5968)">
		<stop  offset="0" style="stop-color:#99AEB6"/>
		<stop  offset="0.15" style="stop-color:#D2ECF7"/>
		<stop  offset="0.25" style="stop-color:#E6F4FA"/>
		<stop  offset="0.52" style="stop-color:#B5CED7"/>
		<stop  offset="0.69" style="stop-color:#A1B7C0"/>
		<stop  offset="0.8" style="stop-color:#98ADB5"/>
		<stop  offset="0.92" style="stop-color:#8FA3AB"/>
		<stop  offset="1" style="stop-color:#A5BBC4"/>
	</linearGradient>
	<path fill="url(#SVGID_31_)" d="M166.297,498.617H39.547v5.25h126.75V498.617z"/>
	
		<linearGradient id="SVGID_32_" gradientUnits="userSpaceOnUse" x1="286.7241" y1="201.3047" x2="286.7241" y2="194.3047" gradientTransform="matrix(0.75 0 0 -0.75 -112.1212 551.1583)">
		<stop  offset="0" style="stop-color:#99AEB6"/>
		<stop  offset="0.15" style="stop-color:#D2ECF7"/>
		<stop  offset="0.25" style="stop-color:#E6F4FA"/>
		<stop  offset="0.52" style="stop-color:#B5CED7"/>
		<stop  offset="0.69" style="stop-color:#A1B7C0"/>
		<stop  offset="0.8" style="stop-color:#98ADB5"/>
		<stop  offset="0.92" style="stop-color:#8FA3AB"/>
		<stop  offset="1" style="stop-color:#A5BBC4"/>
	</linearGradient>
	<path fill="url(#SVGID_32_)" d="M166.297,400.179H39.547v5.25h126.75V400.179z"/>
	
		<linearGradient id="SVGID_33_" gradientUnits="userSpaceOnUse" x1="206.4019" y1="201.3076" x2="206.4019" y2="53.8545" gradientTransform="matrix(0.75 0 0 -0.75 14.6034 547.4249)">
		<stop  offset="0" style="stop-color:#99AEB6"/>
		<stop  offset="0.15" style="stop-color:#D2ECF7"/>
		<stop  offset="0.25" style="stop-color:#E6F4FA"/>
		<stop  offset="0.52" style="stop-color:#B5CED7"/>
		<stop  offset="0.69" style="stop-color:#A1B7C0"/>
		<stop  offset="0.8" style="stop-color:#98ADB5"/>
		<stop  offset="0.92" style="stop-color:#8FA3AB"/>
		<stop  offset="1" style="stop-color:#A5BBC4"/>
	</linearGradient>
	<path fill="url(#SVGID_33_)" d="M167.773,396.445h3.75c0.75,0,1.031,0.516,1.031,1.172l-0.281,108.328
		c0,0.75-0.246,1.09-0.898,1.09l-3.602-0.34c-0.75,0-1.52-0.215-1.52-0.871l0.02-107.879c0-0.75,0.508-1.5,1.16-1.5H167.773z"/>
	
		<linearGradient id="SVGID_34_" gradientUnits="userSpaceOnUse" x1="206.4014" y1="201.3076" x2="206.4014" y2="53.8545" gradientTransform="matrix(0.75 0 0 -0.75 -115.2833 547.4249)">
		<stop  offset="0" style="stop-color:#99AEB6"/>
		<stop  offset="0.15" style="stop-color:#D2ECF7"/>
		<stop  offset="0.25" style="stop-color:#E6F4FA"/>
		<stop  offset="0.52" style="stop-color:#B5CED7"/>
		<stop  offset="0.69" style="stop-color:#A1B7C0"/>
		<stop  offset="0.8" style="stop-color:#98ADB5"/>
		<stop  offset="0.92" style="stop-color:#8FA3AB"/>
		<stop  offset="1" style="stop-color:#A5BBC4"/>
	</linearGradient>
	<path fill="url(#SVGID_34_)" d="M37.887,396.445h3.75c0.75,0,1.031,0.516,1.031,1.172l-0.281,108.328c0,0.75-0.246,1.09-0.898,1.09
		l-3.602-0.34c-0.75,0-1.52-0.215-1.52-0.871l0.02-107.879c0-0.75,0.508-1.5,1.16-1.5H37.887z"/>
	
		<linearGradient id="SVGID_35_" gradientUnits="userSpaceOnUse" x1="207.7139" y1="201.3018" x2="207.7139" y2="112.3018" gradientTransform="matrix(0.75 0 0 -0.75 -132.9039 569.3517)">
		<stop  offset="0" style="stop-color:#99AEB6"/>
		<stop  offset="0.15" style="stop-color:#D2ECF7"/>
		<stop  offset="0.25" style="stop-color:#E6F4FA"/>
		<stop  offset="0.52" style="stop-color:#B5CED7"/>
		<stop  offset="0.69" style="stop-color:#A1B7C0"/>
		<stop  offset="0.8" style="stop-color:#98ADB5"/>
		<stop  offset="0.92" style="stop-color:#8FA3AB"/>
		<stop  offset="1" style="stop-color:#A5BBC4"/>
	</linearGradient>
	<path fill="url(#SVGID_35_)" d="M20.266,418.375h5.25c0.75,0,1.426,0.531,1.426,1.191l0.074,64.059c0,0.75-0.605,1.484-1.258,1.484
		l-5.492,0.016c-0.75,0-1.52-0.551-1.52-1.207l0.02-64.043c0-0.75,0.508-1.5,1.16-1.5H20.266z"/>
	
		<linearGradient id="SVGID_36_" gradientUnits="userSpaceOnUse" x1="568.4673" y1="201.3047" x2="568.4673" y2="158.2949" gradientTransform="matrix(0.75 0 0 -0.75 -142.8849 673.5675)">
		<stop  offset="0" style="stop-color:#B5B5B5"/>
		<stop  offset="0.03" style="stop-color:#FFFFFF"/>
		<stop  offset="0.08" style="stop-color:#EBEBEB"/>
		<stop  offset="0.64" style="stop-color:#E7E7E7"/>
		<stop  offset="0.95" style="stop-color:#E2E2E2"/>
		<stop  offset="1" style="stop-color:#A8A8A8"/>
	</linearGradient>
	<path fill="url(#SVGID_36_)" d="M10.285,522.589h546c0.75,0,1.859,0.77,1.859,1.715l-0.359,29.035c0,0.75-0.402,1.508-1.344,1.508
		l-546.156-0.008c-0.75,0-1.5-0.762-1.5-1.707v-29.043c0-0.75,0.762-1.5,1.699-1.5H10.285z"/>
	
		<linearGradient id="SVGID_37_" gradientUnits="userSpaceOnUse" x1="578.4468" y1="201.3047" x2="578.4468" y2="185.3037" gradientTransform="matrix(0.75 0 0 -0.75 -150.3702 704.4532)">
		<stop  offset="0" style="stop-color:#9B9B9C"/>
		<stop  offset="0.03" style="stop-color:#E4E4E4"/>
		<stop  offset="0.08" style="stop-color:#CBCBCB"/>
		<stop  offset="0.64" style="stop-color:#C7C7C8"/>
		<stop  offset="0.95" style="stop-color:#C3C3C4"/>
		<stop  offset="1" style="stop-color:#909091"/>
	</linearGradient>
	<path fill="url(#SVGID_37_)" d="M2.801,553.476h561c0.75,0,1.828,0.766,1.828,1.715l-0.328,8.035c0,1.5-0.434,1.918-1.371,1.918
		L2.801,565.476c-0.75,0-1.5-1.102-1.5-2.051v-8.449c0-0.75,0.762-1.5,1.699-1.5H2.801z"/>
	
		<linearGradient id="SVGID_38_" gradientUnits="userSpaceOnUse" x1="235.2241" y1="201.3018" x2="235.2241" y2="53.3018" gradientTransform="matrix(0.75 0 0 -0.75 157.703 562.4259)">
		<stop  offset="0" style="stop-color:#889985"/>
		<stop  offset="0.03" style="stop-color:#CFE1CC"/>
		<stop  offset="0.08" style="stop-color:#B2C8AE"/>
		<stop  offset="1" style="stop-color:#AFC4AB"/>
	</linearGradient>
	<path fill="url(#SVGID_38_)" d="M309.371,411.449h49.5v111h-49.5V411.449z"/>
	
		<linearGradient id="SVGID_39_" gradientUnits="userSpaceOnUse" x1="282.228" y1="201.3037" x2="282.228" y2="152.3037" gradientTransform="matrix(0.75 0 0 -0.75 34.0795 636.4493)">
		<stop  offset="0.08" style="stop-color:#B2C8AE"/>
		<stop  offset="0.64" style="stop-color:#AFC4AB"/>
		<stop  offset="0.95" style="stop-color:#ABC0A7"/>
		<stop  offset="1" style="stop-color:#7E8E7B"/>
	</linearGradient>
	<path fill="url(#SVGID_39_)" d="M185.75,485.472h120v36.75h-120V485.472z"/>
	<path fill="#9DBF6E" d="M185.75,515.238h120v6.75h-120V515.238z"/>
	
		<linearGradient id="SVGID_40_" gradientUnits="userSpaceOnUse" x1="242.2266" y1="199.3047" x2="202.2266" y2="199.3047" gradientTransform="matrix(0.75 0 0 -0.75 -28.5919 529.4347)">
		<stop  offset="0" style="stop-color:#75A0B1"/>
		<stop  offset="0.15" style="stop-color:#A8DBF0"/>
		<stop  offset="0.25" style="stop-color:#D2EBF6"/>
		<stop  offset="0.52" style="stop-color:#8BBDD1"/>
		<stop  offset="0.69" style="stop-color:#7CA8BA"/>
		<stop  offset="0.8" style="stop-color:#749EB0"/>
		<stop  offset="0.92" style="stop-color:#6E95A6"/>
		<stop  offset="1" style="stop-color:#7FACBE"/>
	</linearGradient>
	<path fill="url(#SVGID_40_)" d="M123.078,381.457h30v-3h-30V381.457z"/>
</g>
</svg>
