<?xml version="1.0" encoding="utf-8"?>
<!-- Generator: Adobe Illustrator 16.0.0, SVG Export Plug-In . SVG Version: 6.00 Build 0)  -->
<!DOCTYPE svg PUBLIC "-//W3C//DTD SVG 1.1//EN" "http://www.w3.org/Graphics/SVG/1.1/DTD/svg11.dtd">
<svg preserveAspectRatio="none"   version="1.1" id="图层_1" xmlns="http://www.w3.org/2000/svg" xmlns:xlink="http://www.w3.org/1999/xlink" x="0px" y="0px"
	 width="564.75px" height="462.886px" viewBox="1.18 101.457 564.75 462.886" enable-background="new 1.18 101.457 564.75 462.886"
	 xml:space="preserve">
<g id="surface221">
	
		<linearGradient id="SVGID_1_" gradientUnits="userSpaceOnUse" x1="882.2251" y1="8.8057" x2="202.2256" y2="8.8056" gradientTransform="matrix(0.75 0 0 -0.75 -123.295 264.587)">
		<stop  offset="0" style="stop-color:#B3BDBD"/>
		<stop  offset="0.15" style="stop-color:#EAF7F7"/>
		<stop  offset="0.25" style="stop-color:#F3FBFB"/>
		<stop  offset="0.44" style="stop-color:#CCD8D8"/>
		<stop  offset="0.6" style="stop-color:#B5C0C0"/>
		<stop  offset="0.8" style="stop-color:#99A2A2"/>
		<stop  offset="0.97" style="stop-color:#8C9494"/>
	</linearGradient>
	<path fill="url(#SVGID_1_)" d="M28.375,113.609h510v288.75h-510V113.609z"/>
	
		<linearGradient id="SVGID_2_" gradientUnits="userSpaceOnUse" x1="955.2231" y1="191.584" x2="202.2236" y2="191.5839" gradientTransform="matrix(0.75 0 0 -0.75 -150.4884 252.4357)">
		<stop  offset="0" style="stop-color:#B3BDBD"/>
		<stop  offset="0.15" style="stop-color:#EAF7F7"/>
		<stop  offset="0.25" style="stop-color:#F3FBFB"/>
		<stop  offset="0.44" style="stop-color:#CCD8D8"/>
		<stop  offset="0.6" style="stop-color:#B5C0C0"/>
		<stop  offset="0.8" style="stop-color:#99A2A2"/>
		<stop  offset="0.97" style="stop-color:#8C9494"/>
	</linearGradient>
	<path fill="url(#SVGID_2_)" d="M3.43,101.457h559.5c1.5,0,2.82,0.523,2.82,1.168l0.18,12.332c0,0.75-1.375,1.082-2.766,1.082
		L3.43,115.707c-1.5,0-2.25-0.191-2.25-0.836v-11.914c0-0.75,0.996-1.5,2.387-1.5H3.43z"/>
	
		<linearGradient id="SVGID_3_" gradientUnits="userSpaceOnUse" x1="933.2212" y1="192.8467" x2="202.2222" y2="192.8466" gradientTransform="matrix(0.75 0 0 -0.75 -142.1906 550.423)">
		<stop  offset="0" style="stop-color:#B3BDBD"/>
		<stop  offset="0.15" style="stop-color:#EAF7F7"/>
		<stop  offset="0.25" style="stop-color:#F3FBFB"/>
		<stop  offset="0.44" style="stop-color:#CCD8D8"/>
		<stop  offset="0.6" style="stop-color:#B5C0C0"/>
		<stop  offset="0.8" style="stop-color:#99A2A2"/>
		<stop  offset="0.97" style="stop-color:#8C9494"/>
	</linearGradient>
	<path fill="url(#SVGID_3_)" d="M11.727,399.445h543c1.5,0,2.723,0.461,2.723,1.105l0.277,10.145c0,0.75-1.402,1.324-2.797,1.324
		l-543.203,0.176c-0.75,0-2.25-0.695-2.25-1.34v-10.66c0,0,1.129-0.813,2.52-0.813L11.727,399.445z"/>
	
		<linearGradient id="SVGID_4_" gradientUnits="userSpaceOnUse" x1="933.2212" y1="192.8467" x2="202.2222" y2="192.8466" gradientTransform="matrix(0.75 0 0 -0.75 -142.1906 562.7853)">
		<stop  offset="0" style="stop-color:#B3BDBD"/>
		<stop  offset="0.15" style="stop-color:#EAF7F7"/>
		<stop  offset="0.25" style="stop-color:#F3FBFB"/>
		<stop  offset="0.44" style="stop-color:#CCD8D8"/>
		<stop  offset="0.6" style="stop-color:#B5C0C0"/>
		<stop  offset="0.8" style="stop-color:#99A2A2"/>
		<stop  offset="0.97" style="stop-color:#8C9494"/>
	</linearGradient>
	<path fill="url(#SVGID_4_)" d="M11.727,411.808h543c1.5,0,2.723,0.461,2.723,1.105l0.277,10.145c0,0.75-1.402,1.324-2.797,1.324
		l-543.203,0.176c-0.75,0-2.25-0.699-2.25-1.34v-10.66c0,0,1.129-0.813,2.52-0.813L11.727,411.808z"/>
	
		<linearGradient id="SVGID_5_" gradientUnits="userSpaceOnUse" x1="884.2251" y1="124.3071" x2="202.2261" y2="124.3071" gradientTransform="matrix(0.75 0 0 -0.75 -127.17 575.3615)">
		<stop  offset="0" style="stop-color:#B3BDBD"/>
		<stop  offset="0.15" style="stop-color:#EAF7F7"/>
		<stop  offset="0.25" style="stop-color:#F3FBFB"/>
		<stop  offset="0.44" style="stop-color:#CCD8D8"/>
		<stop  offset="0.6" style="stop-color:#B5C0C0"/>
		<stop  offset="0.8" style="stop-color:#99A2A2"/>
		<stop  offset="0.97" style="stop-color:#8C9494"/>
	</linearGradient>
	<path fill="url(#SVGID_5_)" d="M24.5,424.382H536l-216.75,115.5H242L24.5,424.382z"/>
	
		<linearGradient id="SVGID_6_" gradientUnits="userSpaceOnUse" x1="305.2261" y1="184.8047" x2="202.2261" y2="184.8047" gradientTransform="matrix(0.75 0 0 -0.75 90.1381 690.5714)">
		<stop  offset="0" style="stop-color:#B3BDBD"/>
		<stop  offset="0.15" style="stop-color:#EAF7F7"/>
		<stop  offset="0.25" style="stop-color:#F3FBFB"/>
		<stop  offset="0.44" style="stop-color:#CCD8D8"/>
		<stop  offset="0.6" style="stop-color:#B5C0C0"/>
		<stop  offset="0.8" style="stop-color:#99A2A2"/>
		<stop  offset="0.97" style="stop-color:#8C9494"/>
	</linearGradient>
	<path fill="url(#SVGID_6_)" d="M241.809,564.343h77.25v-24.75h-77.25V564.343z"/>
	
		<linearGradient id="SVGID_7_" gradientUnits="userSpaceOnUse" x1="933.2212" y1="198.7905" x2="202.2222" y2="198.7905" gradientTransform="matrix(0.75 0 0 -0.75 -142.1906 561.0548)">
		<stop  offset="0" style="stop-color:#90A7AA"/>
		<stop  offset="0.15" style="stop-color:#C2DCE0"/>
		<stop  offset="0.25" style="stop-color:#DEECEE"/>
		<stop  offset="0.44" style="stop-color:#A5BFC2"/>
		<stop  offset="0.6" style="stop-color:#93AAAD"/>
		<stop  offset="0.8" style="stop-color:#7B8F91"/>
		<stop  offset="0.97" style="stop-color:#708285"/>
	</linearGradient>
	<path fill="url(#SVGID_7_)" d="M11.727,410.078h543c1.5,0,2.723,0.137,2.723,0.332l0.277,3.418c0,0-1.402,0.039-2.797,0.039
		l-543.203-0.039c-0.75,0-2.25-0.117-2.25-0.313v-3.438c0,0,1.129-0.02,2.52-0.02L11.727,410.078z"/>
	
		<linearGradient id="SVGID_8_" gradientUnits="userSpaceOnUse" x1="882.2251" y1="197.3052" x2="202.2256" y2="197.3051" gradientTransform="matrix(0.75 0 0 -0.75 -123.295 267.2599)">
		<stop  offset="0" style="stop-color:#90A7AA"/>
		<stop  offset="0.15" style="stop-color:#C2DCE0"/>
		<stop  offset="0.25" style="stop-color:#DEECEE"/>
		<stop  offset="0.44" style="stop-color:#A5BFC2"/>
		<stop  offset="0.6" style="stop-color:#93AAAD"/>
		<stop  offset="0.8" style="stop-color:#7B8F91"/>
		<stop  offset="0.97" style="stop-color:#708285"/>
	</linearGradient>
	<path fill="url(#SVGID_8_)" d="M28.375,116.281h510v6h-510V116.281z"/>
	
		<linearGradient id="SVGID_9_" gradientUnits="userSpaceOnUse" x1="882.2251" y1="198.8032" x2="202.2256" y2="198.8032" gradientTransform="matrix(0.75 0 0 -0.75 -123.295 545.8907)">
		<stop  offset="0" style="stop-color:#90A7AA"/>
		<stop  offset="0.15" style="stop-color:#C2DCE0"/>
		<stop  offset="0.25" style="stop-color:#DEECEE"/>
		<stop  offset="0.44" style="stop-color:#A5BFC2"/>
		<stop  offset="0.6" style="stop-color:#93AAAD"/>
		<stop  offset="0.8" style="stop-color:#7B8F91"/>
		<stop  offset="0.97" style="stop-color:#708285"/>
	</linearGradient>
	<path fill="url(#SVGID_9_)" d="M28.375,394.914h510v3.75h-510V394.914z"/>
	
		<linearGradient id="SVGID_10_" gradientUnits="userSpaceOnUse" x1="884.2251" y1="198.8091" x2="202.2256" y2="198.809" gradientTransform="matrix(0.75 0 0 -0.75 -127.1696 574.9054)">
		<stop  offset="0" style="stop-color:#90A7AA"/>
		<stop  offset="0.15" style="stop-color:#C2DCE0"/>
		<stop  offset="0.25" style="stop-color:#DEECEE"/>
		<stop  offset="0.44" style="stop-color:#A5BFC2"/>
		<stop  offset="0.6" style="stop-color:#93AAAD"/>
		<stop  offset="0.8" style="stop-color:#7B8F91"/>
		<stop  offset="0.97" style="stop-color:#708285"/>
	</linearGradient>
	<path fill="url(#SVGID_10_)" d="M24.5,423.925H536l-5.25,3.75H30.5L24.5,423.925z"/>
</g>
</svg>
