<?xml version="1.0" encoding="utf-8"?>
<!-- Generator: Adobe Illustrator 16.0.0, SVG Export Plug-In . SVG Version: 6.00 Build 0)  -->
<!DOCTYPE svg PUBLIC "-//W3C//DTD SVG 1.1//EN" "http://www.w3.org/Graphics/SVG/1.1/DTD/svg11.dtd">
<svg preserveAspectRatio="none"   version="1.1" id="图层_1" xmlns="http://www.w3.org/2000/svg" xmlns:xlink="http://www.w3.org/1999/xlink" x="0px" y="0px"
	 width="566.25px" height="500.968px" viewBox="1.004 60.68 566.25 500.968" enable-background="new 1.004 60.68 566.25 500.968"
	 xml:space="preserve">
<g id="surface196">
	
		<linearGradient id="SVGID_1_" gradientUnits="userSpaceOnUse" x1="926.2622" y1="248.1504" x2="202.2271" y2="248.1503" gradientTransform="matrix(0.75 0 0 0.75 -139.1823 136.6434)">
		<stop  offset="0" style="stop-color:#BAC0C1"/>
		<stop  offset="0.15" style="stop-color:#F4FAFC"/>
		<stop  offset="0.25" style="stop-color:#F8FCFD"/>
		<stop  offset="0.52" style="stop-color:#D5DBDD"/>
		<stop  offset="0.69" style="stop-color:#BDC3C4"/>
		<stop  offset="0.8" style="stop-color:#B3B8B9"/>
		<stop  offset="0.97" style="stop-color:#A9AEAF"/>
		<stop  offset="1" style="stop-color:#C2C7C9"/>
	</linearGradient>
	<path fill="url(#SVGID_1_)" d="M12.488,515.863c0,0,18.699,44.48,270.457,45.75c251.542,1.5,272.57-46.039,272.57-46.039
		l-0.027-431.71h-543V515.863z"/>
	
		<linearGradient id="SVGID_2_" gradientUnits="userSpaceOnUse" x1="957.2271" y1="548.9448" x2="202.2275" y2="548.9448" gradientTransform="matrix(0.75 0 0 0.75 -150.6671 -337.7057)">
		<stop  offset="0" style="stop-color:#ACB6BA"/>
		<stop  offset="0.15" style="stop-color:#E2EFF4"/>
		<stop  offset="0.25" style="stop-color:#EFF6F8"/>
		<stop  offset="0.44" style="stop-color:#C4D0D5"/>
		<stop  offset="0.6" style="stop-color:#AEB9BD"/>
		<stop  offset="0.8" style="stop-color:#939CA0"/>
		<stop  offset="0.97" style="stop-color:#868F92"/>
	</linearGradient>
	<path fill="url(#SVGID_2_)" d="M6.254,87.262h555c3,0,5.746-3.008,5.746-6.789l0.254-12.711c0-3.75-2.727-7.082-5.719-7.082
		L6.254,61.012c-3,0-5.25,2.734-5.25,6.52v12.98c0,3.75,2.426,6.813,5.418,6.813L6.254,87.262z"/>
	
		<linearGradient id="SVGID_3_" gradientUnits="userSpaceOnUse" x1="923.7954" y1="580.6597" x2="211.0857" y2="454.9896" gradientTransform="matrix(0.75 0 0 0.75 -139.1823 136.6434)">
		<stop  offset="0" style="stop-color:#A8B2B3"/>
		<stop  offset="0.18" style="stop-color:#DDE9EB"/>
		<stop  offset="0.29" style="stop-color:#ECF3F4"/>
		<stop  offset="0.46" style="stop-color:#C0CBCD"/>
		<stop  offset="0.6" style="stop-color:#AAB5B6"/>
		<stop  offset="1" style="stop-color:#838B8C"/>
	</linearGradient>
	<path fill="url(#SVGID_3_)" d="M12.488,515.863c0,0,18.699,44.48,270.457,45.75c251.542,1.5,272.57-46.039,272.57-46.039
		L12.488,515.863z"/>
</g>
</svg>
