<?xml version="1.0" encoding="utf-8"?>
<!-- Generator: Adobe Illustrator 16.0.0, SVG Export Plug-In . SVG Version: 6.00 Build 0)  -->
<!DOCTYPE svg PUBLIC "-//W3C//DTD SVG 1.1//EN" "http://www.w3.org/Graphics/SVG/1.1/DTD/svg11.dtd">
<svg preserveAspectRatio="none"   version="1.1" id="图层_1" xmlns="http://www.w3.org/2000/svg" xmlns:xlink="http://www.w3.org/1999/xlink" x="0px" y="0px"
	 width="567.019px" height="477.335px" viewBox="-0.073 44.867 567.019 477.335"
	 enable-background="new -0.073 44.867 567.019 477.335" xml:space="preserve">
<g id="surface169">
	<path fill="#E3E0CE" d="M544.632,504.617v17.25h-517.5c0,0-27-1.938-27-36.883c0-35.117,26.824-36.605,26.824-36.605l490.675-0.012
		c0,0,9.816-1.652,9.816-18.293c-0.066-16.957-10.059-18.301-10.059-18.301l-490.257-0.156c0,0-27,3.148-27-33.457
		c0-36.293,28.504-36.023,28.504-36.023l488.996-0.27c0,0,10.484-0.313,10.484-17.621c0.016-17.629-10.727-18.633-10.727-18.633
		l-490.257,0.254c0,0-27-1.59-27-36.199c-1.5-34.301,26.824-35.523,26.824-35.523l500.425,1.223v-54c0,0-18.879-7.707-21.645-30.836
		c-0.105,0.086,0-57.242,0-57.242c6.645-14.672,21.711-19.969,21.711-19.969l-0.066-28.453h17.25v28.5
		c0,0,15.574,0.457,22.164,19.922c0.336,0.328,0,57.242,0,57.242c-1.164,20.336-21.074,31.449-21.074,31.449l-0.34,48.887
		c0,0,0.176,10.184-4.52,16.172c-4.48,6.328-22.805,4.578-22.805,4.578l-489.425,0.25c0,0-11.566,0.496-12.238,18.469
		c-0.512,18.281,10.563,17.804,10.563,17.804l490.675-0.273c0,0,27.316,0.438,27.316,35.715
		c-0.316,35.535-27.559,36.023-27.559,36.023l-490.257,0.262c0,0-10.066-0.344-10.066,17.629
		c0.316,17.621,9.891,16.805,9.891,16.805l490.675,0.066c0,0,27.316-1.566,27.316,35.043c-0.316,36.957-27.559,36.441-27.559,36.441
		l-490.257-0.234c0,0-11.41,1.73-11.41,19.703c0.16,17.797,11.234,18.801,11.234,18.801L544.632,504.617z"/>
	
		<linearGradient id="SVGID_1_" gradientUnits="userSpaceOnUse" x1="202.2227" y1="182.3042" x2="225.2227" y2="182.3042" gradientTransform="matrix(0.75 0 0 -0.75 375.7157 195.8458)">
		<stop  offset="0" style="stop-color:#BEBBAC"/>
		<stop  offset="0.22" style="stop-color:#D5D3C2"/>
		<stop  offset="0.57" style="stop-color:#F0EFE6"/>
		<stop  offset="0.84" style="stop-color:#E9E7D9"/>
		<stop  offset="1" style="stop-color:#CECBBA"/>
	</linearGradient>
	<path fill="url(#SVGID_1_)" d="M527.382,73.367h17.25v-28.5h-17.25V73.367z"/>
	
		<linearGradient id="SVGID_2_" gradientUnits="userSpaceOnUse" x1="220.228" y1="103.3066" x2="220.228" y2="201.3066" gradientTransform="matrix(0.75 0 0 -0.75 -151.6866 599.4083)">
		<stop  offset="0" style="stop-color:#BEBBAC"/>
		<stop  offset="0.22" style="stop-color:#D5D3C2"/>
		<stop  offset="0.57" style="stop-color:#F0EFE6"/>
		<stop  offset="0.84" style="stop-color:#E9E7D9"/>
		<stop  offset="1" style="stop-color:#CECBBA"/>
	</linearGradient>
	<path fill="url(#SVGID_2_)" d="M26.984,521.929c0,0-27-2-27-36.945c0-35.055,26.824-36.555,26.824-36.555l0.176,17.25
		c0,0-11.41,1.668-11.41,19.641c0.16,17.859,11.234,18.801,11.234,18.801L26.984,521.929z"/>
	
		<linearGradient id="SVGID_3_" gradientUnits="userSpaceOnUse" x1="221.2285" y1="108.2407" x2="221.2285" y2="201.3091" gradientTransform="matrix(0.75 0 0 -0.75 -151.6866 493.1749)">
		<stop  offset="0" style="stop-color:#BEBBAC"/>
		<stop  offset="0.22" style="stop-color:#D5D3C2"/>
		<stop  offset="0.57" style="stop-color:#F0EFE6"/>
		<stop  offset="0.84" style="stop-color:#E9E7D9"/>
		<stop  offset="1" style="stop-color:#CECBBA"/>
	</linearGradient>
	<path fill="url(#SVGID_3_)" d="M26.984,411.945c0,0-27,2.82-27-33.793c0-36.707,28.5-35.957,28.5-35.957l-1.5,17.25
		c0,0-10.066,0.078-10.066,18.051c0.316,17.949,9.891,16.805,9.891,16.805L26.984,411.945z"/>
	
		<linearGradient id="SVGID_4_" gradientUnits="userSpaceOnUse" x1="221.1904" y1="106.3027" x2="221.1904" y2="201.3027" gradientTransform="matrix(0.75 0 0 -0.75 -151.6866 385.2267)">
		<stop  offset="0" style="stop-color:#BEBBAC"/>
		<stop  offset="0.22" style="stop-color:#D5D3C2"/>
		<stop  offset="0.57" style="stop-color:#F0EFE6"/>
		<stop  offset="0.84" style="stop-color:#E9E7D9"/>
		<stop  offset="1" style="stop-color:#CECBBA"/>
	</linearGradient>
	<path fill="url(#SVGID_4_)" d="M26.984,305.5c0,0-27-1.223-27-35.828C-1.516,235,26.809,234.25,26.809,234.25l1.676,17.25
		c0,0-11.566,0.863-12.238,18.836c-0.512,17.914,10.563,17.804,10.563,17.804L26.984,305.5z"/>
	
		<linearGradient id="SVGID_5_" gradientUnits="userSpaceOnUse" x1="220.5308" y1="105.835" x2="220.5308" y2="201.3149" gradientTransform="matrix(0.75 0 0 -0.75 365.6239 545.2775)">
		<stop  offset="0" style="stop-color:#BEBBAC"/>
		<stop  offset="0.22" style="stop-color:#D5D3C2"/>
		<stop  offset="0.57" style="stop-color:#F0EFE6"/>
		<stop  offset="0.84" style="stop-color:#E9E7D9"/>
		<stop  offset="1" style="stop-color:#CECBBA"/>
	</linearGradient>
	<path fill="url(#SVGID_5_)" d="M517.292,448.3c0,0,10.008-1.586,10.008-18.199c-0.258-16.301-10.059-18.332-10.059-18.332
		l0.051-17.469c0,0,27.508-1.5,27.508,35.109c0.242,36.141-27.559,36.492-27.559,36.492L517.292,448.3z"/>
	
		<linearGradient id="SVGID_6_" gradientUnits="userSpaceOnUse" x1="220.5308" y1="106.043" x2="220.5308" y2="201.3037" gradientTransform="matrix(0.75 0 0 -0.75 365.6239 439.2003)">
		<stop  offset="0" style="stop-color:#BEBBAC"/>
		<stop  offset="0.22" style="stop-color:#D5D3C2"/>
		<stop  offset="0.57" style="stop-color:#F0EFE6"/>
		<stop  offset="0.84" style="stop-color:#E9E7D9"/>
		<stop  offset="1" style="stop-color:#CECBBA"/>
	</linearGradient>
	<path fill="url(#SVGID_6_)" d="M517.292,342.222c0,0,10.68-0.672,10.68-17.977c-0.18-17.273-10.73-18.633-10.73-18.633
		l0.051-17.391c0,0,27.508,0,27.508,35.332c0.242,35.168-27.559,36.113-27.559,36.113L517.292,342.222z"/>
	
		<linearGradient id="SVGID_7_" gradientUnits="userSpaceOnUse" x1="548.7222" y1="178.3018" x2="548.7222" y2="201.3027" gradientTransform="matrix(0.75 0 0 -0.75 -126.3668 655.9298)">
		<stop  offset="0" style="stop-color:#BEBBAC"/>
		<stop  offset="0.22" style="stop-color:#D5D3C2"/>
		<stop  offset="0.57" style="stop-color:#F0EFE6"/>
		<stop  offset="0.84" style="stop-color:#E9E7D9"/>
		<stop  offset="1" style="stop-color:#CECBBA"/>
	</linearGradient>
	<path fill="url(#SVGID_7_)" d="M545.05,522.203H25.301v-17.25h519.75V522.203z"/>
	
		<linearGradient id="SVGID_8_" gradientUnits="userSpaceOnUse" x1="530.2261" y1="178.3076" x2="530.2261" y2="201.3086" gradientTransform="matrix(0.75 0 0 -0.75 -126.3678 599.8546)">
		<stop  offset="0" style="stop-color:#BEBBAC"/>
		<stop  offset="0.22" style="stop-color:#D5D3C2"/>
		<stop  offset="0.57" style="stop-color:#F0EFE6"/>
		<stop  offset="0.84" style="stop-color:#E9E7D9"/>
		<stop  offset="1" style="stop-color:#CECBBA"/>
	</linearGradient>
	<path fill="url(#SVGID_8_)" d="M517.3,466.125h-492v-17.25h492V466.125z"/>
	
		<linearGradient id="SVGID_9_" gradientUnits="userSpaceOnUse" x1="529.7261" y1="179.3076" x2="529.7261" y2="201.3086" gradientTransform="matrix(0.75 0 0 -0.75 -126.3683 545.9366)">
		<stop  offset="0" style="stop-color:#BEBBAC"/>
		<stop  offset="0.22" style="stop-color:#D5D3C2"/>
		<stop  offset="0.57" style="stop-color:#F0EFE6"/>
		<stop  offset="0.84" style="stop-color:#E9E7D9"/>
		<stop  offset="1" style="stop-color:#CECBBA"/>
	</linearGradient>
	<path fill="url(#SVGID_9_)" d="M516.55,411.457H25.301v-16.5h491.25V411.457z"/>
	
		<linearGradient id="SVGID_10_" gradientUnits="userSpaceOnUse" x1="530.7241" y1="178.3027" x2="530.7241" y2="201.3037" gradientTransform="matrix(0.75 0 0 -0.75 -126.3712 494.0275)">
		<stop  offset="0" style="stop-color:#BEBBAC"/>
		<stop  offset="0.22" style="stop-color:#D5D3C2"/>
		<stop  offset="0.57" style="stop-color:#F0EFE6"/>
		<stop  offset="0.84" style="stop-color:#E9E7D9"/>
		<stop  offset="1" style="stop-color:#CECBBA"/>
	</linearGradient>
	<path fill="url(#SVGID_10_)" d="M518.046,360.3H25.297v-17.25h492.75V360.3z"/>
	
		<linearGradient id="SVGID_11_" gradientUnits="userSpaceOnUse" x1="529.7261" y1="180.3037" x2="529.7261" y2="201.3047" gradientTransform="matrix(0.75 0 0 -0.75 -126.3688 440.1144)">
		<stop  offset="0" style="stop-color:#BEBBAC"/>
		<stop  offset="0.22" style="stop-color:#D5D3C2"/>
		<stop  offset="0.57" style="stop-color:#F0EFE6"/>
		<stop  offset="0.84" style="stop-color:#E9E7D9"/>
		<stop  offset="1" style="stop-color:#CECBBA"/>
	</linearGradient>
	<path fill="url(#SVGID_11_)" d="M516.55,304.886H25.301v-15.75h491.25V304.886z"/>
	
		<linearGradient id="SVGID_12_" gradientUnits="userSpaceOnUse" x1="537.7241" y1="180.2998" x2="537.7241" y2="201.3008" gradientTransform="matrix(0.75 0 0 -0.75 -126.3673 386.2023)">
		<stop  offset="0" style="stop-color:#BEBBAC"/>
		<stop  offset="0.22" style="stop-color:#D5D3C2"/>
		<stop  offset="0.57" style="stop-color:#F0EFE6"/>
		<stop  offset="0.84" style="stop-color:#E9E7D9"/>
		<stop  offset="1" style="stop-color:#CECBBA"/>
	</linearGradient>
	<path fill="url(#SVGID_12_)" d="M528.55,250.977H25.301v-15.75h503.25V250.977z"/>
	
		<linearGradient id="SVGID_13_" gradientUnits="userSpaceOnUse" x1="202.2222" y1="154.2427" x2="226.2222" y2="154.2427" gradientTransform="matrix(0.75 0 0 -0.75 375.6844 332.1857)">
		<stop  offset="0" style="stop-color:#BEBBAC"/>
		<stop  offset="0.22" style="stop-color:#D5D3C2"/>
		<stop  offset="0.57" style="stop-color:#F0EFE6"/>
		<stop  offset="0.84" style="stop-color:#E9E7D9"/>
		<stop  offset="1" style="stop-color:#CECBBA"/>
	</linearGradient>
	<path fill="url(#SVGID_13_)" d="M527.351,235.207v-54l18,0.75v48.75c0,0,0.059,10.34-4.637,16.332
		c-4.363,6.168-13.078,4.578-13.078,4.578L527.351,235.207z"/>
	
		<linearGradient id="SVGID_14_" gradientUnits="userSpaceOnUse" x1="201.2476" y1="198.6201" x2="281.5705" y2="169.385" gradientTransform="matrix(0.75 0 0 -0.75 353.9921 224.3927)">
		<stop  offset="0" style="stop-color:#BEBBAC"/>
		<stop  offset="0.22" style="stop-color:#D5D3C2"/>
		<stop  offset="0.57" style="stop-color:#F0EFE6"/>
		<stop  offset="0.84" style="stop-color:#E9E7D9"/>
		<stop  offset="1" style="stop-color:#CECBBA"/>
	</linearGradient>
	<path fill="url(#SVGID_14_)" d="M505.66,92.914c6.75-14.25,21.641-19.5,21.641-19.5h17.359c0,0,15.398,0.41,21.992,19.875
		L505.66,92.914z"/>
	
		<linearGradient id="SVGID_15_" gradientUnits="userSpaceOnUse" x1="201.9419" y1="200.9258" x2="287.0322" y2="169.9555" gradientTransform="matrix(0.75 0 0 -0.75 353.9921 301.6115)">
		<stop  offset="0" style="stop-color:#BEBBAC"/>
		<stop  offset="0.22" style="stop-color:#D5D3C2"/>
		<stop  offset="0.57" style="stop-color:#F0EFE6"/>
		<stop  offset="0.84" style="stop-color:#E9E7D9"/>
		<stop  offset="1" style="stop-color:#CECBBA"/>
	</linearGradient>
	<path fill="url(#SVGID_15_)" d="M527.41,181.383c0,0-19.055-7.723-21.82-30.852l60.82,0.102
		c-1.5,20.25-20.836,31.355-20.836,31.355L527.41,181.383z"/>
	
		<linearGradient id="SVGID_16_" gradientUnits="userSpaceOnUse" x1="202.2227" y1="162.3032" x2="283.2227" y2="162.3032" gradientTransform="matrix(0.75 0 0 -0.75 353.9188 244.2697)">
		<stop  offset="0" style="stop-color:#BEBBAC"/>
		<stop  offset="0.22" style="stop-color:#D5D3C2"/>
		<stop  offset="0.57" style="stop-color:#F0EFE6"/>
		<stop  offset="0.84" style="stop-color:#E9E7D9"/>
		<stop  offset="1" style="stop-color:#CECBBA"/>
	</linearGradient>
	<path fill="url(#SVGID_16_)" d="M505.585,93.293h60.75v58.5h-60.75V93.293z"/>
</g>
</svg>
