<?xml version="1.0" encoding="utf-8"?>
<!-- Generator: Adobe Illustrator 16.0.0, SVG Export Plug-In . SVG Version: 6.00 Build 0)  -->
<!DOCTYPE svg PUBLIC "-//W3C//DTD SVG 1.1//EN" "http://www.w3.org/Graphics/SVG/1.1/DTD/svg11.dtd">
<svg preserveAspectRatio="none"   version="1.1" id="图层_1" xmlns="http://www.w3.org/2000/svg" xmlns:xlink="http://www.w3.org/1999/xlink" x="0px" y="0px"
	 width="553.507px" height="325.55px" viewBox="6.762 120.648 553.507 325.55"
	 enable-background="new 6.762 120.648 553.507 325.55" xml:space="preserve">
<g id="surface219">
	
		<linearGradient id="SVGID_1_" gradientUnits="userSpaceOnUse" x1="206.7031" y1="201.2998" x2="206.7031" y2="120.3008" gradientTransform="matrix(-0.75 0 0 -0.75 211.7023 403.9093)">
		<stop  offset="0" style="stop-color:#BAC0C1"/>
		<stop  offset="0.15" style="stop-color:#F4FAFC"/>
		<stop  offset="0.25" style="stop-color:#F8FCFD"/>
		<stop  offset="0.52" style="stop-color:#D5DBDD"/>
		<stop  offset="0.69" style="stop-color:#BDC3C4"/>
		<stop  offset="0.8" style="stop-color:#B3B8B9"/>
		<stop  offset="0.97" style="stop-color:#A9AEAF"/>
		<stop  offset="1" style="stop-color:#C2C7C9"/>
	</linearGradient>
	<path fill="url(#SVGID_1_)" d="M87.426,252.934h-61.5v60.75h61.5V252.934z"/>
	
		<linearGradient id="SVGID_2_" gradientUnits="userSpaceOnUse" x1="448.2026" y1="201.3037" x2="448.2026" y2="-5.6963" gradientTransform="matrix(-0.75 0 0 -0.75 650.796 356.674)">
		<stop  offset="0" style="stop-color:#BAC0C1"/>
		<stop  offset="0.15" style="stop-color:#F4FAFC"/>
		<stop  offset="0.25" style="stop-color:#F8FCFD"/>
		<stop  offset="0.52" style="stop-color:#D5DBDD"/>
		<stop  offset="0.69" style="stop-color:#BDC3C4"/>
		<stop  offset="0.8" style="stop-color:#B3B8B9"/>
		<stop  offset="0.97" style="stop-color:#A9AEAF"/>
		<stop  offset="1" style="stop-color:#C2C7C9"/>
	</linearGradient>
	<path fill="url(#SVGID_2_)" d="M526.519,205.695H102.77v155.25h423.75V205.695z"/>
	
		<linearGradient id="SVGID_3_" gradientUnits="userSpaceOnUse" x1="224.7231" y1="201.3047" x2="224.7231" y2="-95.9131" gradientTransform="matrix(0.75 0 0 -0.75 -80.6715 322.9865)">
		<stop  offset="0" style="stop-color:#BAC0C1"/>
		<stop  offset="0.15" style="stop-color:#F4FAFC"/>
		<stop  offset="0.25" style="stop-color:#F8FCFD"/>
		<stop  offset="0.52" style="stop-color:#D5DBDD"/>
		<stop  offset="0.69" style="stop-color:#BDC3C4"/>
		<stop  offset="0.8" style="stop-color:#B3B8B9"/>
		<stop  offset="0.97" style="stop-color:#A9AEAF"/>
		<stop  offset="1" style="stop-color:#C2C7C9"/>
	</linearGradient>
	<path fill="url(#SVGID_3_)" d="M72.496,172.008h30.75c0.75,0,1.324,0.68,1.324,1.52l0.176,219.73c0,0.75-0.863,1.664-1.707,1.664
		l-30.543-0.164c-0.75,0-1.5-0.582-1.5-1.422V173.508c0-0.75,0.672-1.5,1.516-1.5H72.496z"/>
	
		<linearGradient id="SVGID_4_" gradientUnits="userSpaceOnUse" x1="224.7261" y1="201.3057" x2="224.7261" y2="-95.9121" gradientTransform="matrix(0.75 0 0 -0.75 374.8495 322.9865)">
		<stop  offset="0" style="stop-color:#BAC0C1"/>
		<stop  offset="0.15" style="stop-color:#F4FAFC"/>
		<stop  offset="0.25" style="stop-color:#F8FCFD"/>
		<stop  offset="0.52" style="stop-color:#D5DBDD"/>
		<stop  offset="0.69" style="stop-color:#BDC3C4"/>
		<stop  offset="0.8" style="stop-color:#B3B8B9"/>
		<stop  offset="0.97" style="stop-color:#A9AEAF"/>
		<stop  offset="1" style="stop-color:#C2C7C9"/>
	</linearGradient>
	<path fill="url(#SVGID_4_)" d="M528.019,172.008h30.75c0.75,0,1.32,0.68,1.32,1.52l0.18,219.73c0,0.75-0.863,1.664-1.711,1.664
		l-30.539-0.164c-0.75,0-1.5-0.582-1.5-1.422V173.508c0-0.75,0.668-1.5,1.512-1.5H528.019z"/>
	
		<linearGradient id="SVGID_5_" gradientUnits="userSpaceOnUse" x1="217.7246" y1="201.3047" x2="217.7246" y2="-95.9131" gradientTransform="matrix(0.75 0 0 -0.75 -144.9069 322.9865)">
		<stop  offset="0" style="stop-color:#BAC0C1"/>
		<stop  offset="0.15" style="stop-color:#F4FAFC"/>
		<stop  offset="0.25" style="stop-color:#F8FCFD"/>
		<stop  offset="0.52" style="stop-color:#D5DBDD"/>
		<stop  offset="0.69" style="stop-color:#BDC3C4"/>
		<stop  offset="0.8" style="stop-color:#B3B8B9"/>
		<stop  offset="0.97" style="stop-color:#A9AEAF"/>
		<stop  offset="1" style="stop-color:#C2C7C9"/>
	</linearGradient>
	<path fill="url(#SVGID_5_)" d="M7.512,172.008h21c0.75,0,1.148,0.68,1.148,1.52l0.352,219.73c0,0.75-0.816,1.664-1.395,1.664
		l-21.105-0.164c0,0-0.75-0.582-0.75-1.422V173.508c0-0.75,0.457-1.5,1.035-1.5H7.512z"/>
	
		<linearGradient id="SVGID_6_" gradientUnits="userSpaceOnUse" x1="165.7046" y1="139.3657" x2="284.7046" y2="139.3657" gradientTransform="matrix(-0.75 0 0 -0.75 361.5743 281.6173)">
		<stop  offset="0" style="stop-color:#BAC0C1"/>
		<stop  offset="0.15" style="stop-color:#F4FAFC"/>
		<stop  offset="0.25" style="stop-color:#F8FCFD"/>
		<stop  offset="0.52" style="stop-color:#D5DBDD"/>
		<stop  offset="0.69" style="stop-color:#BDC3C4"/>
		<stop  offset="0.8" style="stop-color:#B3B8B9"/>
		<stop  offset="0.97" style="stop-color:#A9AEAF"/>
		<stop  offset="1" style="stop-color:#C2C7C9"/>
	</linearGradient>
	<path fill="url(#SVGID_6_)" d="M237.297,207.141v-76.5h-89.25v76.5c0,0,8.949,16.406,45.688,16.406
		c36.813,0.094,43.309-16.375,43.563-16.375V207.141z"/>
	
		<linearGradient id="SVGID_7_" gradientUnits="userSpaceOnUse" x1="165.7046" y1="196.8042" x2="284.7046" y2="196.8042" gradientTransform="matrix(-0.75 0 0 -0.75 361.5743 290.463)">
		<stop  offset="0" style="stop-color:#A3A8A9"/>
		<stop  offset="0.15" style="stop-color:#D8DDDF"/>
		<stop  offset="0.25" style="stop-color:#E9ECED"/>
		<stop  offset="0.52" style="stop-color:#BAC0C1"/>
		<stop  offset="0.69" style="stop-color:#A6AAAC"/>
		<stop  offset="0.8" style="stop-color:#9CA1A2"/>
		<stop  offset="0.97" style="stop-color:#939799"/>
		<stop  offset="1" style="stop-color:#A9AEB0"/>
	</linearGradient>
	<path fill="url(#SVGID_7_)" d="M237.297,146.234v-6.75h-89.25v6.75H237.297z"/>
	
		<linearGradient id="SVGID_8_" gradientUnits="userSpaceOnUse" x1="165.7026" y1="187.8188" x2="295.1558" y2="187.8188" gradientTransform="matrix(-0.75 0 0 -0.75 365.6749 271.6515)">
		<stop  offset="0" style="stop-color:#BAC0C1"/>
		<stop  offset="0.15" style="stop-color:#F4FAFC"/>
		<stop  offset="0.25" style="stop-color:#F8FCFD"/>
		<stop  offset="0.52" style="stop-color:#D5DBDD"/>
		<stop  offset="0.69" style="stop-color:#BDC3C4"/>
		<stop  offset="0.8" style="stop-color:#B3B8B9"/>
		<stop  offset="0.97" style="stop-color:#A9AEAF"/>
		<stop  offset="1" style="stop-color:#C2C7C9"/>
	</linearGradient>
	<path fill="url(#SVGID_8_)" d="M239.898,120.676h-93.75c-0.75,0-1.84,0.652-1.84,1.488l0.34,17.262c0,0.75,0.398,1.18,1.246,1.18
		l94.004,0.32c0.75,0,1.5-1,1.5-1.84v-16.91c0-0.75-0.633-1.527-1.477-1.527L239.898,120.676z"/>
	
		<linearGradient id="SVGID_9_" gradientUnits="userSpaceOnUse" x1="165.7065" y1="504.687" x2="284.7065" y2="504.687" gradientTransform="matrix(-0.75 0 0 0.75 606.8107 11.2382)">
		<stop  offset="0" style="stop-color:#BAC0C1"/>
		<stop  offset="0.15" style="stop-color:#F4FAFC"/>
		<stop  offset="0.25" style="stop-color:#F8FCFD"/>
		<stop  offset="0.52" style="stop-color:#D5DBDD"/>
		<stop  offset="0.69" style="stop-color:#BDC3C4"/>
		<stop  offset="0.8" style="stop-color:#B3B8B9"/>
		<stop  offset="0.97" style="stop-color:#A9AEAF"/>
		<stop  offset="1" style="stop-color:#C2C7C9"/>
	</linearGradient>
	<path fill="url(#SVGID_9_)" d="M482.531,359.707v76.5h-89.25v-76.5c0,0,8.949-16.406,45.688-16.406
		c36.813-0.094,43.309,16.375,43.563,16.375V359.707z"/>
	
		<linearGradient id="SVGID_10_" gradientUnits="userSpaceOnUse" x1="165.7065" y1="562.1274" x2="284.7065" y2="562.1274" gradientTransform="matrix(-0.75 0 0 0.75 606.8107 2.3925)">
		<stop  offset="0" style="stop-color:#A3A8A9"/>
		<stop  offset="0.15" style="stop-color:#D8DDDF"/>
		<stop  offset="0.25" style="stop-color:#E9ECED"/>
		<stop  offset="0.52" style="stop-color:#BAC0C1"/>
		<stop  offset="0.69" style="stop-color:#A6AAAC"/>
		<stop  offset="0.8" style="stop-color:#9CA1A2"/>
		<stop  offset="0.97" style="stop-color:#939799"/>
		<stop  offset="1" style="stop-color:#A9AEB0"/>
	</linearGradient>
	<path fill="url(#SVGID_10_)" d="M482.531,420.613v6.75h-89.25v-6.75H482.531z"/>
	
		<linearGradient id="SVGID_11_" gradientUnits="userSpaceOnUse" x1="165.7046" y1="553.1401" x2="295.1577" y2="553.1401" gradientTransform="matrix(-0.75 0 0 0.75 610.9103 21.205)">
		<stop  offset="0" style="stop-color:#BAC0C1"/>
		<stop  offset="0.15" style="stop-color:#F4FAFC"/>
		<stop  offset="0.25" style="stop-color:#F8FCFD"/>
		<stop  offset="0.52" style="stop-color:#D5DBDD"/>
		<stop  offset="0.69" style="stop-color:#BDC3C4"/>
		<stop  offset="0.8" style="stop-color:#B3B8B9"/>
		<stop  offset="0.97" style="stop-color:#A9AEAF"/>
		<stop  offset="1" style="stop-color:#C2C7C9"/>
	</linearGradient>
	<path fill="url(#SVGID_11_)" d="M485.132,446.171h-93.75c-0.75,0-1.84-0.652-1.84-1.488l0.34-17.262c0-0.75,0.398-1.18,1.246-1.18
		l94.004-0.32c0.75,0,1.5,1,1.5,1.84v16.91c0,0.75-0.629,1.527-1.477,1.527L485.132,446.171z"/>
</g>
</svg>
