<?xml version="1.0" encoding="utf-8"?>
<!-- Generator: Adobe Illustrator 16.0.0, SVG Export Plug-In . SVG Version: 6.00 Build 0)  -->
<!DOCTYPE svg PUBLIC "-//W3C//DTD SVG 1.1//EN" "http://www.w3.org/Graphics/SVG/1.1/DTD/svg11.dtd">
<svg preserveAspectRatio="none"   version="1.1" id="图层_1" xmlns="http://www.w3.org/2000/svg" xmlns:xlink="http://www.w3.org/1999/xlink" x="0px" y="0px"
	 width="141.417px" height="545.933px" viewBox="212.797 10.465 141.417 545.933"
	 enable-background="new 212.797 10.465 141.417 545.933" xml:space="preserve">
<g id="surface91">
	
		<linearGradient id="SVGID_1_" gradientUnits="userSpaceOnUse" x1="12.3066" y1="402.2241" x2="12.3066" y2="382.2241" gradientTransform="matrix(0 -0.75 0.75 0 -34.0236 48.0382)">
		<stop  offset="0" style="stop-color:#97A6B1"/>
		<stop  offset="0.15" style="stop-color:#D3E0EA"/>
		<stop  offset="0.25" style="stop-color:#D6E2EC"/>
		<stop  offset="0.52" style="stop-color:#A9BAC7"/>
		<stop  offset="0.69" style="stop-color:#97A6B1"/>
		<stop  offset="0.8" style="stop-color:#8E9CA7"/>
		<stop  offset="0.92" style="stop-color:#86939D"/>
	</linearGradient>
	<path fill="url(#SVGID_1_)" d="M267.645,47.059v-16.5h-15v16.5H267.645z"/>
	
		<linearGradient id="SVGID_2_" gradientUnits="userSpaceOnUse" x1="256.7266" y1="201.3027" x2="256.7266" y2="181.3027" gradientTransform="matrix(0.75 0 0 -0.75 120.7943 162.1095)">
		<stop  offset="0" style="stop-color:#97A6B1"/>
		<stop  offset="0.15" style="stop-color:#D3E0EA"/>
		<stop  offset="0.25" style="stop-color:#D6E2EC"/>
		<stop  offset="0.52" style="stop-color:#A9BAC7"/>
		<stop  offset="0.69" style="stop-color:#97A6B1"/>
		<stop  offset="0.8" style="stop-color:#8E9CA7"/>
		<stop  offset="0.92" style="stop-color:#86939D"/>
	</linearGradient>
	<path fill="url(#SVGID_2_)" d="M272.465,11.133h81.75v15h-81.75V11.133z"/>
	
		<linearGradient id="SVGID_3_" gradientUnits="userSpaceOnUse" x1="162.3179" y1="175.167" x2="197.7915" y2="195.6477" gradientTransform="matrix(-0.75 0 0 -0.75 398.6681 161.4445)">
		<stop  offset="0" style="stop-color:#8F9CA5"/>
		<stop  offset="0.15" style="stop-color:#CDD8DF"/>
		<stop  offset="0.25" style="stop-color:#D1DAE2"/>
		<stop  offset="0.52" style="stop-color:#A2B0B9"/>
		<stop  offset="0.69" style="stop-color:#8F9CA5"/>
		<stop  offset="0.8" style="stop-color:#87939B"/>
		<stop  offset="0.92" style="stop-color:#7F8B93"/>
	</linearGradient>
	<path fill="url(#SVGID_3_)" d="M274.391,10.465c0,0-11.539,0.316-17.031,6.918c-5.469,6.582-4.523,16.914-4.523,16.914
		l14.805,0.168c0,0,0.211-6.18,6.75-8.602V10.465z"/>
	
		<linearGradient id="SVGID_4_" gradientUnits="userSpaceOnUse" x1="280.2227" y1="-5.6948" x2="202.2236" y2="-5.6948" gradientTransform="matrix(0.75 0 0 -0.75 78.5702 392.0284)">
		<stop  offset="0" style="stop-color:#97A6B1"/>
		<stop  offset="0.15" style="stop-color:#D3E0EA"/>
		<stop  offset="0.25" style="stop-color:#D6E2EC"/>
		<stop  offset="0.52" style="stop-color:#A9BAC7"/>
		<stop  offset="0.69" style="stop-color:#97A6B1"/>
		<stop  offset="0.8" style="stop-color:#8E9CA7"/>
		<stop  offset="0.92" style="stop-color:#86939D"/>
	</linearGradient>
	<path fill="url(#SVGID_4_)" d="M230.238,241.051h58.5v310.5h-58.5V241.051z"/>
	
		<linearGradient id="SVGID_5_" gradientUnits="userSpaceOnUse" x1="254.2261" y1="191.8037" x2="202.2261" y2="191.8037" gradientTransform="matrix(0.75 0 0 -0.75 88.1346 207.4611)">
		<stop  offset="0" style="stop-color:#97A6B1"/>
		<stop  offset="0.15" style="stop-color:#D3E0EA"/>
		<stop  offset="0.25" style="stop-color:#D6E2EC"/>
		<stop  offset="0.52" style="stop-color:#A9BAC7"/>
		<stop  offset="0.69" style="stop-color:#97A6B1"/>
		<stop  offset="0.8" style="stop-color:#8E9CA7"/>
		<stop  offset="0.92" style="stop-color:#86939D"/>
	</linearGradient>
	<path fill="url(#SVGID_5_)" d="M239.805,56.484h39v14.25h-39V56.484z"/>
	
		<linearGradient id="SVGID_6_" gradientUnits="userSpaceOnUse" x1="326.2231" y1="82.3564" x2="202.2241" y2="82.3564" gradientTransform="matrix(0.75 0 0 -0.75 61.1986 218.8966)">
		<stop  offset="0" style="stop-color:#97A6B1"/>
		<stop  offset="0.15" style="stop-color:#D3E0EA"/>
		<stop  offset="0.25" style="stop-color:#D6E2EC"/>
		<stop  offset="0.52" style="stop-color:#A9BAC7"/>
		<stop  offset="0.69" style="stop-color:#97A6B1"/>
		<stop  offset="0.8" style="stop-color:#8E9CA7"/>
		<stop  offset="0.92" style="stop-color:#86939D"/>
	</linearGradient>
	<path fill="url(#SVGID_6_)" d="M212.867,85.168c0,0,1.883-13.926,26.938-17.25c0.063,0,39.102,0,39.102,0
		c25.46,1.5,26.945,17.512,26.945,17.512l0.016,136.988c0,0-0.785,23.922-46.675,23.922c-45.574,0.078-46.324-23.93-46.324-23.93
		V85.168z"/>
	
		<linearGradient id="SVGID_7_" gradientUnits="userSpaceOnUse" x1="268.2241" y1="194.8027" x2="202.2251" y2="194.8027" gradientTransform="matrix(0.75 0 0 -0.75 82.9755 198.0431)">
		<stop  offset="0" style="stop-color:#97A6B1"/>
		<stop  offset="0.15" style="stop-color:#D3E0EA"/>
		<stop  offset="0.25" style="stop-color:#D6E2EC"/>
		<stop  offset="0.52" style="stop-color:#A9BAC7"/>
		<stop  offset="0.69" style="stop-color:#97A6B1"/>
		<stop  offset="0.8" style="stop-color:#8E9CA7"/>
		<stop  offset="0.92" style="stop-color:#86939D"/>
	</linearGradient>
	<path fill="url(#SVGID_7_)" d="M237.645,47.066h43.5c1.5,0,2.917,1.238,2.917,2.77l0.082,3.98c0,1.5-1.296,2.945-2.796,2.945
		l-43.703,0.055c-1.5,0-3-1.293-3-2.824v-3.926c0-1.5,1.215-3,2.715-3H237.645z"/>
	
		<linearGradient id="SVGID_8_" gradientUnits="userSpaceOnUse" x1="326.2954" y1="189.6226" x2="202.2231" y2="189.6225" gradientTransform="matrix(0.75 0 0 -0.75 61.1293 218.8966)">
		<stop  offset="0" style="stop-color:#97A6B1"/>
		<stop  offset="0.15" style="stop-color:#D3E0EA"/>
		<stop  offset="0.25" style="stop-color:#D6E2EC"/>
		<stop  offset="0.52" style="stop-color:#A9BAC7"/>
		<stop  offset="0.69" style="stop-color:#97A6B1"/>
		<stop  offset="0.8" style="stop-color:#8E9CA7"/>
		<stop  offset="0.92" style="stop-color:#86939D"/>
	</linearGradient>
	<path fill="url(#SVGID_8_)" d="M212.797,85.168c0,0,1.953-13.922,27.004-17.25c-0.004,0,39.102,0,39.102,0
		c25.394,1.5,26.949,17.523,26.949,17.523L212.797,85.168z"/>
	
		<linearGradient id="SVGID_9_" gradientUnits="userSpaceOnUse" x1="326.2231" y1="185.3506" x2="202.2241" y2="185.3506" gradientTransform="matrix(0.75 0 0 -0.75 61.1986 373.3868)">
		<stop  offset="0" style="stop-color:#97A6B1"/>
		<stop  offset="0.15" style="stop-color:#D3E0EA"/>
		<stop  offset="0.25" style="stop-color:#D6E2EC"/>
		<stop  offset="0.52" style="stop-color:#A9BAC7"/>
		<stop  offset="0.69" style="stop-color:#97A6B1"/>
		<stop  offset="0.8" style="stop-color:#8E9CA7"/>
		<stop  offset="0.92" style="stop-color:#86939D"/>
	</linearGradient>
	<path fill="url(#SVGID_9_)" d="M305.867,222.41c0,0-0.785,23.93-46.675,23.93c-45.574,0.07-46.324-23.93-46.324-23.93H305.867z"/>
	
		<linearGradient id="SVGID_10_" gradientUnits="userSpaceOnUse" x1="326.2231" y1="200.3018" x2="202.2241" y2="200.3017" gradientTransform="matrix(0.75 0 0 -0.75 61.1986 236.4054)">
		<stop  offset="0" style="stop-color:#70899D"/>
		<stop  offset="0.15" style="stop-color:#B4C7D8"/>
		<stop  offset="0.25" style="stop-color:#BACCDB"/>
		<stop  offset="0.52" style="stop-color:#7E9AB1"/>
		<stop  offset="0.69" style="stop-color:#70899D"/>
		<stop  offset="0.8" style="stop-color:#698194"/>
		<stop  offset="0.92" style="stop-color:#637A8B"/>
	</linearGradient>
	<path fill="url(#SVGID_10_)" d="M212.867,85.43h93v1.5h-93V85.43z"/>
	
		<linearGradient id="SVGID_11_" gradientUnits="userSpaceOnUse" x1="326.2231" y1="200.3027" x2="202.2236" y2="200.3027" gradientTransform="matrix(0.75 0 0 -0.75 61.1478 372.8165)">
		<stop  offset="0" style="stop-color:#70899D"/>
		<stop  offset="0.15" style="stop-color:#B4C7D8"/>
		<stop  offset="0.25" style="stop-color:#BACCDB"/>
		<stop  offset="0.52" style="stop-color:#7E9AB1"/>
		<stop  offset="0.69" style="stop-color:#70899D"/>
		<stop  offset="0.8" style="stop-color:#698194"/>
		<stop  offset="0.92" style="stop-color:#637A8B"/>
	</linearGradient>
	<path fill="url(#SVGID_11_)" d="M212.816,221.84h93v1.5h-93V221.84z"/>
	
		<linearGradient id="SVGID_12_" gradientUnits="userSpaceOnUse" x1="254.2261" y1="200.3076" x2="202.2261" y2="200.3076" gradientTransform="matrix(0.75 0 0 -0.75 88.1346 207.464)">
		<stop  offset="0" style="stop-color:#70899D"/>
		<stop  offset="0.15" style="stop-color:#B4C7D8"/>
		<stop  offset="0.25" style="stop-color:#BACCDB"/>
		<stop  offset="0.52" style="stop-color:#7E9AB1"/>
		<stop  offset="0.69" style="stop-color:#70899D"/>
		<stop  offset="0.8" style="stop-color:#698194"/>
		<stop  offset="0.92" style="stop-color:#637A8B"/>
	</linearGradient>
	<path fill="url(#SVGID_12_)" d="M239.805,56.484h39v1.5h-39V56.484z"/>
	
		<linearGradient id="SVGID_13_" gradientUnits="userSpaceOnUse" x1="203.5562" y1="194.1025" x2="202.2144" y2="194.1025" gradientTransform="matrix(0.75 0 0 -0.75 84.6454 197.4904)">
		<stop  offset="0" style="stop-color:#97A6B1"/>
		<stop  offset="0.15" style="stop-color:#D3E0EA"/>
		<stop  offset="0.25" style="stop-color:#D6E2EC"/>
		<stop  offset="0.52" style="stop-color:#A9BAC7"/>
		<stop  offset="0.69" style="stop-color:#97A6B1"/>
		<stop  offset="0.8" style="stop-color:#8E9CA7"/>
		<stop  offset="0.92" style="stop-color:#86939D"/>
	</linearGradient>
	<path fill="url(#SVGID_13_)" d="M236.316,57.012v-10.5c0,0,0.184,0,0.422,0c0.328,0,0.574,0.059,0.574,0.129l-0.246,10.371
		c0,0,0.051,0.305-0.188,0.305c-0.563-0.305-0.574-0.055-0.574-0.125L236.316,57.012z"/>
	
		<linearGradient id="SVGID_14_" gradientUnits="userSpaceOnUse" x1="203.5659" y1="194.1025" x2="202.2262" y2="194.1025" gradientTransform="matrix(0.75 0 0 -0.75 89.6376 197.4904)">
		<stop  offset="0" style="stop-color:#97A6B1"/>
		<stop  offset="0.15" style="stop-color:#D3E0EA"/>
		<stop  offset="0.25" style="stop-color:#D6E2EC"/>
		<stop  offset="0.52" style="stop-color:#A9BAC7"/>
		<stop  offset="0.69" style="stop-color:#97A6B1"/>
		<stop  offset="0.8" style="stop-color:#8E9CA7"/>
		<stop  offset="0.92" style="stop-color:#86939D"/>
	</linearGradient>
	<path fill="url(#SVGID_14_)" d="M241.309,57.012v-10.5c0,0,0.191,0,0.43,0c0.32,0,0.574,0.059,0.574,0.129l-0.254,10.371
		c0,0,0.063,0.305-0.176,0.305c-0.574-0.305-0.574-0.055-0.574-0.125V57.012z"/>
	
		<linearGradient id="SVGID_15_" gradientUnits="userSpaceOnUse" x1="203.5669" y1="194.1025" x2="202.2253" y2="194.1025" gradientTransform="matrix(0.75 0 0 -0.75 94.6469 197.4904)">
		<stop  offset="0" style="stop-color:#97A6B1"/>
		<stop  offset="0.15" style="stop-color:#D3E0EA"/>
		<stop  offset="0.25" style="stop-color:#D6E2EC"/>
		<stop  offset="0.52" style="stop-color:#A9BAC7"/>
		<stop  offset="0.69" style="stop-color:#97A6B1"/>
		<stop  offset="0.8" style="stop-color:#8E9CA7"/>
		<stop  offset="0.92" style="stop-color:#86939D"/>
	</linearGradient>
	<path fill="url(#SVGID_15_)" d="M246.316,57.012v-10.5c0,0,0.191,0,0.43,0c0.32,0,0.574,0.059,0.574,0.129l-0.254,10.371
		c0,0,0.063,0.305-0.176,0.305c-0.574-0.305-0.574-0.055-0.574-0.125V57.012z"/>
	
		<linearGradient id="SVGID_16_" gradientUnits="userSpaceOnUse" x1="203.5659" y1="194.1025" x2="202.2253" y2="194.1025" gradientTransform="matrix(0.75 0 0 -0.75 99.6561 197.4904)">
		<stop  offset="0" style="stop-color:#97A6B1"/>
		<stop  offset="0.15" style="stop-color:#D3E0EA"/>
		<stop  offset="0.25" style="stop-color:#D6E2EC"/>
		<stop  offset="0.52" style="stop-color:#A9BAC7"/>
		<stop  offset="0.69" style="stop-color:#97A6B1"/>
		<stop  offset="0.8" style="stop-color:#8E9CA7"/>
		<stop  offset="0.92" style="stop-color:#86939D"/>
	</linearGradient>
	<path fill="url(#SVGID_16_)" d="M251.324,57.012v-10.5c0,0,0.195,0,0.43,0c0.32,0,0.578,0.059,0.578,0.129l-0.258,10.371
		c0,0,0.063,0.305-0.176,0.305c-0.574-0.305-0.574-0.055-0.574-0.125V57.012z"/>
	
		<linearGradient id="SVGID_17_" gradientUnits="userSpaceOnUse" x1="203.5659" y1="194.1025" x2="202.2243" y2="194.1025" gradientTransform="matrix(0.75 0 0 -0.75 104.6654 197.4904)">
		<stop  offset="0" style="stop-color:#97A6B1"/>
		<stop  offset="0.15" style="stop-color:#D3E0EA"/>
		<stop  offset="0.25" style="stop-color:#D6E2EC"/>
		<stop  offset="0.52" style="stop-color:#A9BAC7"/>
		<stop  offset="0.69" style="stop-color:#97A6B1"/>
		<stop  offset="0.8" style="stop-color:#8E9CA7"/>
		<stop  offset="0.92" style="stop-color:#86939D"/>
	</linearGradient>
	<path fill="url(#SVGID_17_)" d="M256.336,57.012v-10.5c0,0,0.191,0,0.43,0c0.32,0,0.574,0.059,0.574,0.129l-0.254,10.371
		c0,0,0.063,0.305-0.176,0.305c-0.574-0.305-0.574-0.055-0.574-0.125V57.012z"/>
	
		<linearGradient id="SVGID_18_" gradientUnits="userSpaceOnUse" x1="203.5659" y1="194.1025" x2="202.2253" y2="194.1025" gradientTransform="matrix(0.75 0 0 -0.75 109.6747 197.4904)">
		<stop  offset="0" style="stop-color:#97A6B1"/>
		<stop  offset="0.15" style="stop-color:#D3E0EA"/>
		<stop  offset="0.25" style="stop-color:#D6E2EC"/>
		<stop  offset="0.52" style="stop-color:#A9BAC7"/>
		<stop  offset="0.69" style="stop-color:#97A6B1"/>
		<stop  offset="0.8" style="stop-color:#8E9CA7"/>
		<stop  offset="0.92" style="stop-color:#86939D"/>
	</linearGradient>
	<path fill="url(#SVGID_18_)" d="M261.344,57.012v-10.5c0,0,0.191,0,0.43,0c0.32,0,0.574,0.059,0.574,0.129l-0.254,10.371
		c0,0,0.063,0.305-0.176,0.305c-0.574-0.305-0.574-0.055-0.574-0.125V57.012z"/>
	
		<linearGradient id="SVGID_19_" gradientUnits="userSpaceOnUse" x1="203.5649" y1="194.1025" x2="202.2243" y2="194.1025" gradientTransform="matrix(0.75 0 0 -0.75 119.6932 197.4904)">
		<stop  offset="0" style="stop-color:#97A6B1"/>
		<stop  offset="0.15" style="stop-color:#D3E0EA"/>
		<stop  offset="0.25" style="stop-color:#D6E2EC"/>
		<stop  offset="0.52" style="stop-color:#A9BAC7"/>
		<stop  offset="0.69" style="stop-color:#97A6B1"/>
		<stop  offset="0.8" style="stop-color:#8E9CA7"/>
		<stop  offset="0.92" style="stop-color:#86939D"/>
	</linearGradient>
	<path fill="url(#SVGID_19_)" d="M271.363,57.012v-10.5c0,0,0.191,0,0.43,0c0.32,0,0.574,0.059,0.574,0.129l-0.254,10.371
		c0,0,0.063,0.305-0.176,0.305c-0.574-0.305-0.574-0.055-0.574-0.125V57.012z"/>
	
		<linearGradient id="SVGID_20_" gradientUnits="userSpaceOnUse" x1="203.5674" y1="194.1025" x2="202.2267" y2="194.1025" gradientTransform="matrix(0.75 0 0 -0.75 114.684 197.4904)">
		<stop  offset="0" style="stop-color:#97A6B1"/>
		<stop  offset="0.15" style="stop-color:#D3E0EA"/>
		<stop  offset="0.25" style="stop-color:#D6E2EC"/>
		<stop  offset="0.52" style="stop-color:#A9BAC7"/>
		<stop  offset="0.69" style="stop-color:#97A6B1"/>
		<stop  offset="0.8" style="stop-color:#8E9CA7"/>
		<stop  offset="0.92" style="stop-color:#86939D"/>
	</linearGradient>
	<path fill="url(#SVGID_20_)" d="M266.352,57.012v-10.5c0,0,0.195,0,0.434,0c0.316,0,0.574,0.059,0.574,0.129l-0.258,10.371
		c0,0,0.063,0.305-0.176,0.305c-0.574-0.305-0.574-0.055-0.574-0.125V57.012z"/>
	
		<linearGradient id="SVGID_21_" gradientUnits="userSpaceOnUse" x1="203.5659" y1="194.1025" x2="202.2262" y2="194.1025" gradientTransform="matrix(0.75 0 0 -0.75 124.7025 197.4904)">
		<stop  offset="0" style="stop-color:#97A6B1"/>
		<stop  offset="0.15" style="stop-color:#D3E0EA"/>
		<stop  offset="0.25" style="stop-color:#D6E2EC"/>
		<stop  offset="0.52" style="stop-color:#A9BAC7"/>
		<stop  offset="0.69" style="stop-color:#97A6B1"/>
		<stop  offset="0.8" style="stop-color:#8E9CA7"/>
		<stop  offset="0.92" style="stop-color:#86939D"/>
	</linearGradient>
	<path fill="url(#SVGID_21_)" d="M276.371,57.012v-10.5c0,0,0.191,0,0.43,0c0.32,0,0.574,0.059,0.574,0.129l-0.254,10.371
		c0,0,0.063,0.305-0.176,0.305c-0.574-0.305-0.574-0.055-0.574-0.125V57.012z"/>
	
		<linearGradient id="SVGID_22_" gradientUnits="userSpaceOnUse" x1="203.5664" y1="194.1025" x2="202.2258" y2="194.1025" gradientTransform="matrix(0.75 0 0 -0.75 129.7118 197.4904)">
		<stop  offset="0" style="stop-color:#97A6B1"/>
		<stop  offset="0.15" style="stop-color:#D3E0EA"/>
		<stop  offset="0.25" style="stop-color:#D6E2EC"/>
		<stop  offset="0.52" style="stop-color:#A9BAC7"/>
		<stop  offset="0.69" style="stop-color:#97A6B1"/>
		<stop  offset="0.8" style="stop-color:#8E9CA7"/>
		<stop  offset="0.92" style="stop-color:#86939D"/>
	</linearGradient>
	<path fill="url(#SVGID_22_)" d="M281.379,57.012v-10.5c0,0,0.195,0,0.434,0c0.316,0,0.574,0.059,0.574,0.129l-0.258,10.371
		c0,0,0.063,0.305-0.176,0.305c-0.574-0.305-0.574-0.055-0.574-0.125V57.012z"/>
	
		<linearGradient id="SVGID_23_" gradientUnits="userSpaceOnUse" x1="280.2246" y1="192.8018" x2="202.2256" y2="192.8018" gradientTransform="matrix(0.75 0 0 -0.75 78.4833 404.9796)">
		<stop  offset="0" style="stop-color:#70899D"/>
		<stop  offset="0.15" style="stop-color:#B4C7D8"/>
		<stop  offset="0.25" style="stop-color:#BACCDB"/>
		<stop  offset="0.52" style="stop-color:#7E9AB1"/>
		<stop  offset="0.69" style="stop-color:#70899D"/>
		<stop  offset="0.8" style="stop-color:#698194"/>
		<stop  offset="0.92" style="stop-color:#637A8B"/>
	</linearGradient>
	<path fill="url(#SVGID_23_)" d="M230.152,254.004h58.5v12.75h-58.5V254.004z"/>
	
		<linearGradient id="SVGID_24_" gradientUnits="userSpaceOnUse" x1="287.2954" y1="194.8037" x2="202.2236" y2="194.8037" gradientTransform="matrix(0.75 0 0 -0.75 75.7889 406.3995)">
		<stop  offset="0" style="stop-color:#97A6B1"/>
		<stop  offset="0.15" style="stop-color:#D3E0EA"/>
		<stop  offset="0.25" style="stop-color:#D6E2EC"/>
		<stop  offset="0.52" style="stop-color:#A9BAC7"/>
		<stop  offset="0.69" style="stop-color:#97A6B1"/>
		<stop  offset="0.8" style="stop-color:#8E9CA7"/>
		<stop  offset="0.92" style="stop-color:#86939D"/>
	</linearGradient>
	<path fill="url(#SVGID_24_)" d="M231.207,255.422h56.25c2.25,0,3.805,1.242,3.805,2.77l-0.055,3.98c0,1.5-1.516,2.945-3.453,2.945
		l-56.546,0.055c-2.25,0-3.75-1.293-3.75-2.824v-3.926c0-1.5,1.57-3,3.508-3H231.207z"/>
	
		<linearGradient id="SVGID_25_" gradientUnits="userSpaceOnUse" x1="204.2231" y1="194.1016" x2="202.2075" y2="194.1016" gradientTransform="matrix(0.75 0 0 -0.75 77.9261 405.8458)">
		<stop  offset="0" style="stop-color:#97A6B1"/>
		<stop  offset="0.15" style="stop-color:#D3E0EA"/>
		<stop  offset="0.25" style="stop-color:#D6E2EC"/>
		<stop  offset="0.52" style="stop-color:#A9BAC7"/>
		<stop  offset="0.69" style="stop-color:#97A6B1"/>
		<stop  offset="0.8" style="stop-color:#8E9CA7"/>
		<stop  offset="0.92" style="stop-color:#86939D"/>
	</linearGradient>
	<path fill="url(#SVGID_25_)" d="M229.594,265.367v-10.5c0,0,0.238,0,0.547,0c0.203,0,0.742,0.059,0.742,0.129l0.211,10.371
		c0,0-0.461,0.305-0.77,0.305c-0.73-0.305-0.742-0.055-0.742-0.125L229.594,265.367z"/>
	
		<linearGradient id="SVGID_26_" gradientUnits="userSpaceOnUse" x1="204.2251" y1="194.1016" x2="202.2251" y2="194.1016" gradientTransform="matrix(0.75 0 0 -0.75 84.3759 405.8458)">
		<stop  offset="0" style="stop-color:#97A6B1"/>
		<stop  offset="0.15" style="stop-color:#D3E0EA"/>
		<stop  offset="0.25" style="stop-color:#D6E2EC"/>
		<stop  offset="0.52" style="stop-color:#A9BAC7"/>
		<stop  offset="0.69" style="stop-color:#97A6B1"/>
		<stop  offset="0.8" style="stop-color:#8E9CA7"/>
		<stop  offset="0.92" style="stop-color:#86939D"/>
	</linearGradient>
	<path fill="url(#SVGID_26_)" d="M236.043,265.367v-10.5c0,0,0.25,0,0.559,0c0.191,0,0.742,0.059,0.742,0.129l0.199,10.371
		c0,0-0.449,0.305-0.758,0.305c-0.742-0.305-0.742-0.055-0.742-0.125V265.367z"/>
	
		<linearGradient id="SVGID_27_" gradientUnits="userSpaceOnUse" x1="204.2246" y1="194.1016" x2="202.2246" y2="194.1016" gradientTransform="matrix(0.75 0 0 -0.75 90.847 405.8458)">
		<stop  offset="0" style="stop-color:#97A6B1"/>
		<stop  offset="0.15" style="stop-color:#D3E0EA"/>
		<stop  offset="0.25" style="stop-color:#D6E2EC"/>
		<stop  offset="0.52" style="stop-color:#A9BAC7"/>
		<stop  offset="0.69" style="stop-color:#97A6B1"/>
		<stop  offset="0.8" style="stop-color:#8E9CA7"/>
		<stop  offset="0.92" style="stop-color:#86939D"/>
	</linearGradient>
	<path fill="url(#SVGID_27_)" d="M242.516,265.367v-10.5c0,0,0.25,0,0.555,0c0.195,0,0.746,0.059,0.746,0.129l0.199,10.371
		c0,0-0.449,0.305-0.758,0.305c-0.742-0.305-0.742-0.055-0.742-0.125V265.367z"/>
	
		<linearGradient id="SVGID_28_" gradientUnits="userSpaceOnUse" x1="204.2266" y1="194.1016" x2="202.2266" y2="194.1016" gradientTransform="matrix(0.75 0 0 -0.75 97.3182 405.8458)">
		<stop  offset="0" style="stop-color:#97A6B1"/>
		<stop  offset="0.15" style="stop-color:#D3E0EA"/>
		<stop  offset="0.25" style="stop-color:#D6E2EC"/>
		<stop  offset="0.52" style="stop-color:#A9BAC7"/>
		<stop  offset="0.69" style="stop-color:#97A6B1"/>
		<stop  offset="0.8" style="stop-color:#8E9CA7"/>
		<stop  offset="0.92" style="stop-color:#86939D"/>
	</linearGradient>
	<path fill="url(#SVGID_28_)" d="M248.988,265.367v-10.5c0,0,0.246,0,0.555,0c0.195,0,0.742,0.059,0.742,0.129l0.203,10.371
		c0,0-0.453,0.305-0.758,0.305c-0.742-0.305-0.742-0.055-0.742-0.125V265.367z"/>
	
		<linearGradient id="SVGID_29_" gradientUnits="userSpaceOnUse" x1="204.2231" y1="194.1016" x2="202.2231" y2="194.1016" gradientTransform="matrix(0.75 0 0 -0.75 103.7894 405.8458)">
		<stop  offset="0" style="stop-color:#97A6B1"/>
		<stop  offset="0.15" style="stop-color:#D3E0EA"/>
		<stop  offset="0.25" style="stop-color:#D6E2EC"/>
		<stop  offset="0.52" style="stop-color:#A9BAC7"/>
		<stop  offset="0.69" style="stop-color:#97A6B1"/>
		<stop  offset="0.8" style="stop-color:#8E9CA7"/>
		<stop  offset="0.92" style="stop-color:#86939D"/>
	</linearGradient>
	<path fill="url(#SVGID_29_)" d="M255.457,265.367v-10.5c0,0,0.25,0,0.559,0c0.191,0,0.742,0.059,0.742,0.129l0.199,10.371
		c0,0-0.449,0.305-0.758,0.305c-0.742-0.305-0.742-0.055-0.742-0.125V265.367z"/>
	
		<linearGradient id="SVGID_30_" gradientUnits="userSpaceOnUse" x1="204.2241" y1="194.1016" x2="202.2241" y2="194.1016" gradientTransform="matrix(0.75 0 0 -0.75 110.2611 405.8458)">
		<stop  offset="0" style="stop-color:#97A6B1"/>
		<stop  offset="0.15" style="stop-color:#D3E0EA"/>
		<stop  offset="0.25" style="stop-color:#D6E2EC"/>
		<stop  offset="0.52" style="stop-color:#A9BAC7"/>
		<stop  offset="0.69" style="stop-color:#97A6B1"/>
		<stop  offset="0.8" style="stop-color:#8E9CA7"/>
		<stop  offset="0.92" style="stop-color:#86939D"/>
	</linearGradient>
	<path fill="url(#SVGID_30_)" d="M261.93,265.367v-10.5c0,0,0.25,0,0.555,0c0.195,0,0.746,0.059,0.746,0.129l0.199,10.371
		c0,0-0.449,0.305-0.758,0.305c-0.742-0.305-0.742-0.055-0.742-0.125V265.367z"/>
	
		<linearGradient id="SVGID_31_" gradientUnits="userSpaceOnUse" x1="204.2261" y1="194.1016" x2="202.2261" y2="194.1016" gradientTransform="matrix(0.75 0 0 -0.75 123.2035 405.8458)">
		<stop  offset="0" style="stop-color:#97A6B1"/>
		<stop  offset="0.15" style="stop-color:#D3E0EA"/>
		<stop  offset="0.25" style="stop-color:#D6E2EC"/>
		<stop  offset="0.52" style="stop-color:#A9BAC7"/>
		<stop  offset="0.69" style="stop-color:#97A6B1"/>
		<stop  offset="0.8" style="stop-color:#8E9CA7"/>
		<stop  offset="0.92" style="stop-color:#86939D"/>
	</linearGradient>
	<path fill="url(#SVGID_31_)" d="M274.871,265.367v-10.5c0,0,0.25,0,0.559,0c0.191,0,0.742,0.059,0.742,0.129l0.199,10.371
		c0,0-0.449,0.305-0.758,0.305c-0.742-0.305-0.742-0.055-0.742-0.125V265.367z"/>
	
		<linearGradient id="SVGID_32_" gradientUnits="userSpaceOnUse" x1="204.2266" y1="194.1016" x2="202.2266" y2="194.1016" gradientTransform="matrix(0.75 0 0 -0.75 116.7323 405.8458)">
		<stop  offset="0" style="stop-color:#97A6B1"/>
		<stop  offset="0.15" style="stop-color:#D3E0EA"/>
		<stop  offset="0.25" style="stop-color:#D6E2EC"/>
		<stop  offset="0.52" style="stop-color:#A9BAC7"/>
		<stop  offset="0.69" style="stop-color:#97A6B1"/>
		<stop  offset="0.8" style="stop-color:#8E9CA7"/>
		<stop  offset="0.92" style="stop-color:#86939D"/>
	</linearGradient>
	<path fill="url(#SVGID_32_)" d="M268.402,265.367v-10.5c0,0,0.246,0,0.555,0c0.195,0,0.742,0.059,0.742,0.129l0.203,10.371
		c0,0-0.453,0.305-0.758,0.305c-0.742-0.305-0.742-0.055-0.742-0.125V265.367z"/>
	
		<linearGradient id="SVGID_33_" gradientUnits="userSpaceOnUse" x1="204.2251" y1="194.1016" x2="202.2251" y2="194.1016" gradientTransform="matrix(0.75 0 0 -0.75 129.6747 405.8458)">
		<stop  offset="0" style="stop-color:#97A6B1"/>
		<stop  offset="0.15" style="stop-color:#D3E0EA"/>
		<stop  offset="0.25" style="stop-color:#D6E2EC"/>
		<stop  offset="0.52" style="stop-color:#A9BAC7"/>
		<stop  offset="0.69" style="stop-color:#97A6B1"/>
		<stop  offset="0.8" style="stop-color:#8E9CA7"/>
		<stop  offset="0.92" style="stop-color:#86939D"/>
	</linearGradient>
	<path fill="url(#SVGID_33_)" d="M281.344,265.367v-10.5c0,0,0.25,0,0.555,0c0.195,0,0.746,0.059,0.746,0.129l0.199,10.371
		c0,0-0.449,0.305-0.758,0.305c-0.742-0.305-0.742-0.055-0.742-0.125V265.367z"/>
	
		<linearGradient id="SVGID_34_" gradientUnits="userSpaceOnUse" x1="204.2261" y1="194.1016" x2="202.2261" y2="194.1016" gradientTransform="matrix(0.75 0 0 -0.75 136.1464 405.8458)">
		<stop  offset="0" style="stop-color:#97A6B1"/>
		<stop  offset="0.15" style="stop-color:#D3E0EA"/>
		<stop  offset="0.25" style="stop-color:#D6E2EC"/>
		<stop  offset="0.52" style="stop-color:#A9BAC7"/>
		<stop  offset="0.69" style="stop-color:#97A6B1"/>
		<stop  offset="0.8" style="stop-color:#8E9CA7"/>
		<stop  offset="0.92" style="stop-color:#86939D"/>
	</linearGradient>
	<path fill="url(#SVGID_34_)" d="M287.816,265.367v-10.5c0,0,0.246,0,0.555,0c0.195,0,0.742,0.059,0.742,0.129l0.203,10.371
		c0,0-0.453,0.305-0.758,0.305c-0.742-0.305-0.742-0.055-0.742-0.125V265.367z"/>
	
		<linearGradient id="SVGID_35_" gradientUnits="userSpaceOnUse" x1="295.2241" y1="198.1289" x2="202.2251" y2="198.1289" gradientTransform="matrix(0.75 0 0 -0.75 73.5883 431.0275)">
		<stop  offset="0" style="stop-color:#97A6B1"/>
		<stop  offset="0.15" style="stop-color:#D3E0EA"/>
		<stop  offset="0.25" style="stop-color:#D6E2EC"/>
		<stop  offset="0.52" style="stop-color:#A9BAC7"/>
		<stop  offset="0.69" style="stop-color:#97A6B1"/>
		<stop  offset="0.8" style="stop-color:#8E9CA7"/>
		<stop  offset="0.92" style="stop-color:#86939D"/>
	</linearGradient>
	<path fill="url(#SVGID_35_)" d="M226.758,280.051h66c1.5,0,2.141,0.789,2.141,1.82l0.109,1.18c0,0.75-0.969,1.808-1.98,1.808
		l-66.269-0.309c-0.75,0-1.5-0.527-1.5-1.558v-1.441c0-0.75,0.809-1.547,1.82-1.547L226.758,280.051z"/>
	
		<linearGradient id="SVGID_36_" gradientUnits="userSpaceOnUse" x1="212.2266" y1="23.3057" x2="202.2266" y2="23.3057" gradientTransform="matrix(0.75 0 0 -0.75 77.1302 435.9279)">
		<stop  offset="0" style="stop-color:#97A6B1"/>
		<stop  offset="0.15" style="stop-color:#D3E0EA"/>
		<stop  offset="0.25" style="stop-color:#D6E2EC"/>
		<stop  offset="0.52" style="stop-color:#A9BAC7"/>
		<stop  offset="0.69" style="stop-color:#97A6B1"/>
		<stop  offset="0.8" style="stop-color:#8E9CA7"/>
		<stop  offset="0.92" style="stop-color:#86939D"/>
	</linearGradient>
	<path fill="url(#SVGID_36_)" d="M228.801,284.949h7.5v267h-7.5V284.949z"/>
	
		<linearGradient id="SVGID_37_" gradientUnits="userSpaceOnUse" x1="212.2241" y1="23.3057" x2="202.2241" y2="23.3057" gradientTransform="matrix(0.75 0 0 -0.75 91.1171 435.9279)">
		<stop  offset="0" style="stop-color:#97A6B1"/>
		<stop  offset="0.15" style="stop-color:#D3E0EA"/>
		<stop  offset="0.25" style="stop-color:#D6E2EC"/>
		<stop  offset="0.52" style="stop-color:#A9BAC7"/>
		<stop  offset="0.69" style="stop-color:#97A6B1"/>
		<stop  offset="0.8" style="stop-color:#8E9CA7"/>
		<stop  offset="0.92" style="stop-color:#86939D"/>
	</linearGradient>
	<path fill="url(#SVGID_37_)" d="M242.785,284.949h7.5v267h-7.5V284.949z"/>
	
		<linearGradient id="SVGID_38_" gradientUnits="userSpaceOnUse" x1="212.2261" y1="23.3057" x2="202.2261" y2="23.3057" gradientTransform="matrix(0.75 0 0 -0.75 105.1034 435.9279)">
		<stop  offset="0" style="stop-color:#97A6B1"/>
		<stop  offset="0.15" style="stop-color:#D3E0EA"/>
		<stop  offset="0.25" style="stop-color:#D6E2EC"/>
		<stop  offset="0.52" style="stop-color:#A9BAC7"/>
		<stop  offset="0.69" style="stop-color:#97A6B1"/>
		<stop  offset="0.8" style="stop-color:#8E9CA7"/>
		<stop  offset="0.92" style="stop-color:#86939D"/>
	</linearGradient>
	<path fill="url(#SVGID_38_)" d="M256.773,284.949h7.5v267h-7.5V284.949z"/>
	
		<linearGradient id="SVGID_39_" gradientUnits="userSpaceOnUse" x1="212.2241" y1="23.3057" x2="202.2241" y2="23.3057" gradientTransform="matrix(0.75 0 0 -0.75 119.0897 435.9279)">
		<stop  offset="0" style="stop-color:#97A6B1"/>
		<stop  offset="0.15" style="stop-color:#D3E0EA"/>
		<stop  offset="0.25" style="stop-color:#D6E2EC"/>
		<stop  offset="0.52" style="stop-color:#A9BAC7"/>
		<stop  offset="0.69" style="stop-color:#97A6B1"/>
		<stop  offset="0.8" style="stop-color:#8E9CA7"/>
		<stop  offset="0.92" style="stop-color:#86939D"/>
	</linearGradient>
	<path fill="url(#SVGID_39_)" d="M270.758,284.949h7.5v267h-7.5V284.949z"/>
	
		<linearGradient id="SVGID_40_" gradientUnits="userSpaceOnUse" x1="212.2261" y1="23.3057" x2="202.2261" y2="23.3057" gradientTransform="matrix(0.75 0 0 -0.75 133.076 435.9279)">
		<stop  offset="0" style="stop-color:#97A6B1"/>
		<stop  offset="0.15" style="stop-color:#D3E0EA"/>
		<stop  offset="0.25" style="stop-color:#D6E2EC"/>
		<stop  offset="0.52" style="stop-color:#A9BAC7"/>
		<stop  offset="0.69" style="stop-color:#97A6B1"/>
		<stop  offset="0.8" style="stop-color:#8E9CA7"/>
		<stop  offset="0.92" style="stop-color:#86939D"/>
	</linearGradient>
	<path fill="url(#SVGID_40_)" d="M284.746,284.949h7.5v267h-7.5V284.949z"/>
	
		<linearGradient id="SVGID_41_" gradientUnits="userSpaceOnUse" x1="295.2241" y1="198.1318" x2="202.2251" y2="198.1318" gradientTransform="matrix(0.75 0 0 -0.75 73.5883 702.5685)">
		<stop  offset="0" style="stop-color:#97A6B1"/>
		<stop  offset="0.15" style="stop-color:#D3E0EA"/>
		<stop  offset="0.25" style="stop-color:#D6E2EC"/>
		<stop  offset="0.52" style="stop-color:#A9BAC7"/>
		<stop  offset="0.69" style="stop-color:#97A6B1"/>
		<stop  offset="0.8" style="stop-color:#8E9CA7"/>
		<stop  offset="0.92" style="stop-color:#86939D"/>
	</linearGradient>
	<path fill="url(#SVGID_41_)" d="M226.758,551.589h66c1.5,0,2.141,0.789,2.141,1.82l0.109,1.18c0,0.75-0.969,1.809-1.98,1.809
		l-66.269-0.309c-0.75,0-1.5-0.527-1.5-1.559v-1.441c0-0.75,0.809-1.547,1.82-1.547L226.758,551.589z"/>
</g>
</svg>
