<?xml version="1.0" encoding="utf-8"?>
<!-- Generator: Adobe Illustrator 16.0.0, SVG Export Plug-In . SVG Version: 6.00 Build 0)  -->
<!DOCTYPE svg PUBLIC "-//W3C//DTD SVG 1.1//EN" "http://www.w3.org/Graphics/SVG/1.1/DTD/svg11.dtd">
<svg preserveAspectRatio="none"   version="1.1" id="图层_1" xmlns="http://www.w3.org/2000/svg" xmlns:xlink="http://www.w3.org/1999/xlink" x="0px" y="0px"
	 width="150.757px" height="557.722px" viewBox="208.086 4.438 150.757 557.722"
	 enable-background="new 208.086 4.438 150.757 557.722" xml:space="preserve">
<g id="surface66">
	
		<linearGradient id="SVGID_1_" gradientUnits="userSpaceOnUse" x1="357.2261" y1="-109.6973" x2="202.2271" y2="-109.6973" gradientTransform="matrix(0.75 0 0 -0.75 73.5282 228.9103)">
		<stop  offset="0" style="stop-color:#A7ACAD"/>
		<stop  offset="0.15" style="stop-color:#DCE2E4"/>
		<stop  offset="0.25" style="stop-color:#ECEFF0"/>
		<stop  offset="0.44" style="stop-color:#BFC4C6"/>
		<stop  offset="0.6" style="stop-color:#AAAEB0"/>
		<stop  offset="0.8" style="stop-color:#8F9394"/>
		<stop  offset="0.97" style="stop-color:#828687"/>
		<stop  offset="1" style="stop-color:#AEB2B4"/>
	</linearGradient>
	<path fill="url(#SVGID_1_)" d="M225.199,77.934h116.25v466.5h-116.25V77.934z"/>
	
		<linearGradient id="SVGID_2_" gradientUnits="userSpaceOnUse" x1="358.2261" y1="152.3193" x2="202.1704" y2="152.3193" gradientTransform="matrix(0.75 0 0 -0.75 73.2938 155.4366)">
		<stop  offset="0" style="stop-color:#898A8A"/>
		<stop  offset="0.15" style="stop-color:#BABBBB"/>
		<stop  offset="0.25" style="stop-color:#DADADA"/>
		<stop  offset="0.44" style="stop-color:#9D9E9E"/>
		<stop  offset="0.6" style="stop-color:#8B8C8C"/>
		<stop  offset="0.8" style="stop-color:#757676"/>
		<stop  offset="0.97" style="stop-color:#6B6B6B"/>
		<stop  offset="1" style="stop-color:#8F9090"/>
	</linearGradient>
	<path fill="url(#SVGID_2_)" d="M224.965,25.457c0,0-3.621-20.051,56.059-21c59.441-0.75,60.761,20.828,60.761,20.828l0.18,52.672
		h-117V25.457z"/>
	
		<linearGradient id="SVGID_3_" gradientUnits="userSpaceOnUse" x1="357.2261" y1="198.3027" x2="202.2271" y2="198.3027" gradientTransform="matrix(0.75 0 0 -0.75 73.5282 173.3165)">
		<stop  offset="0" style="stop-color:#787979"/>
		<stop  offset="0.15" style="stop-color:#A6A7A7"/>
		<stop  offset="0.25" style="stop-color:#D1D1D1"/>
		<stop  offset="0.44" style="stop-color:#8A8B8B"/>
		<stop  offset="0.6" style="stop-color:#7A7B7B"/>
		<stop  offset="0.8" style="stop-color:#666767"/>
		<stop  offset="0.97" style="stop-color:#5D5E5E"/>
		<stop  offset="1" style="stop-color:#7D7E7E"/>
	</linearGradient>
	<path fill="url(#SVGID_3_)" d="M225.199,22.34h116.25v4.5h-116.25V22.34z"/>
	
		<linearGradient id="SVGID_4_" gradientUnits="userSpaceOnUse" x1="361.2261" y1="189.8047" x2="202.2271" y2="189.8047" gradientTransform="matrix(0.75 0 0 -0.75 72.1805 694.1066)">
		<stop  offset="0" style="stop-color:#898A8A"/>
		<stop  offset="0.15" style="stop-color:#BABBBB"/>
		<stop  offset="0.25" style="stop-color:#DADADA"/>
		<stop  offset="0.44" style="stop-color:#9D9E9E"/>
		<stop  offset="0.6" style="stop-color:#8B8C8C"/>
		<stop  offset="0.8" style="stop-color:#757676"/>
		<stop  offset="0.97" style="stop-color:#6B6B6B"/>
		<stop  offset="1" style="stop-color:#8F9090"/>
	</linearGradient>
	<path fill="url(#SVGID_4_)" d="M226.102,543.128h114.75c0.75,0,2.227,1.152,2.227,2.578l0.023,11.672c0,1.5-1.172,2.867-2.59,2.867
		l-114.41,0.133c-1.5,0-2.25-1.285-2.25-2.711v-12.289c0-0.75,1.09-2.25,2.512-2.25H226.102z"/>
	
		<linearGradient id="SVGID_5_" gradientUnits="userSpaceOnUse" x1="14.7842" y1="337.9907" x2="1.3047" y2="337.9907" gradientTransform="matrix(0 -0.75 -0.75 0 558.6456 426.4073)">
		<stop  offset="0" style="stop-color:#C5B5A2"/>
		<stop  offset="0.15" style="stop-color:#FDEFDD"/>
		<stop  offset="0.25" style="stop-color:#FEF0DF"/>
		<stop  offset="0.52" style="stop-color:#DECCB6"/>
		<stop  offset="0.69" style="stop-color:#C5B5A2"/>
		<stop  offset="0.8" style="stop-color:#BAAB98"/>
		<stop  offset="0.92" style="stop-color:#B0A190"/>
	</linearGradient>
	<path fill="url(#SVGID_5_)" d="M284.367,420.929v-0.75c0-3,0.352-4.859,0.785-4.859l39.715,0.359c0.75,0,1.074,1.73,1.074,4.305
		l-0.324,0.945c0,2.25-0.027,4.5-0.465,4.5h-40.035c-0.75,0-0.75-2.09-0.75-4.668V420.929z"/>
	
		<linearGradient id="SVGID_6_" gradientUnits="userSpaceOnUse" x1="14.7871" y1="337.9849" x2="1.3027" y2="337.9849" gradientTransform="matrix(0 -0.75 -0.75 0 558.9669 483.9454)">
		<stop  offset="0" style="stop-color:#C5B5A2"/>
		<stop  offset="0.15" style="stop-color:#FDEFDD"/>
		<stop  offset="0.25" style="stop-color:#FEF0DF"/>
		<stop  offset="0.52" style="stop-color:#DECCB6"/>
		<stop  offset="0.69" style="stop-color:#C5B5A2"/>
		<stop  offset="0.8" style="stop-color:#BAAB98"/>
		<stop  offset="0.92" style="stop-color:#B0A190"/>
	</linearGradient>
	<path fill="url(#SVGID_6_)" d="M284.691,478.468v-0.75c0-3,0.348-4.863,0.781-4.863l39.719,0.363c0.75,0,1.074,1.727,1.074,4.305
		l-0.324,0.945c0,2.25-0.031,4.5-0.465,4.5h-40.035c-0.75,0-0.75-2.09-0.75-4.668V478.468z"/>
	
		<linearGradient id="SVGID_7_" gradientUnits="userSpaceOnUse" x1="14.7871" y1="337.9868" x2="1.3027" y2="337.9868" gradientTransform="matrix(0 -0.75 -0.75 0 559.2267 540.1007)">
		<stop  offset="0" style="stop-color:#C5B5A2"/>
		<stop  offset="0.15" style="stop-color:#FDEFDD"/>
		<stop  offset="0.25" style="stop-color:#FEF0DF"/>
		<stop  offset="0.52" style="stop-color:#DECCB6"/>
		<stop  offset="0.69" style="stop-color:#C5B5A2"/>
		<stop  offset="0.8" style="stop-color:#BAAB98"/>
		<stop  offset="0.92" style="stop-color:#B0A190"/>
	</linearGradient>
	<path fill="url(#SVGID_7_)" d="M284.949,534.625v-0.75c0-3,0.352-4.863,0.785-4.863l39.715,0.363c0.75,0,1.074,1.727,1.074,4.305
		l-0.324,0.945c0,2.25-0.031,4.5-0.465,4.5h-40.035c-0.75,0-0.75-2.09-0.75-4.668V534.625z"/>
	
		<linearGradient id="SVGID_8_" gradientUnits="userSpaceOnUse" x1="14.7852" y1="337.9849" x2="1.3066" y2="337.9849" gradientTransform="matrix(0 -0.75 -0.75 0 558.9669 368.8536)">
		<stop  offset="0" style="stop-color:#C5B5A2"/>
		<stop  offset="0.15" style="stop-color:#FDEFDD"/>
		<stop  offset="0.25" style="stop-color:#FEF0DF"/>
		<stop  offset="0.52" style="stop-color:#DECCB6"/>
		<stop  offset="0.69" style="stop-color:#C5B5A2"/>
		<stop  offset="0.8" style="stop-color:#BAAB98"/>
		<stop  offset="0.92" style="stop-color:#B0A190"/>
	</linearGradient>
	<path fill="url(#SVGID_8_)" d="M284.691,363.375v-0.75c0-3,0.348-4.859,0.781-4.859l39.719,0.359c0.75,0,1.074,1.73,1.074,4.305
		l-0.324,0.945c0,2.25-0.031,4.5-0.465,4.5h-40.035c-0.75,0-0.75-2.09-0.75-4.664V363.375z"/>
	
		<linearGradient id="SVGID_9_" gradientUnits="userSpaceOnUse" x1="14.7852" y1="337.9888" x2="1.3057" y2="337.9888" gradientTransform="matrix(0 -0.75 -0.75 0 558.0988 311.299)">
		<stop  offset="0" style="stop-color:#C5B5A2"/>
		<stop  offset="0.15" style="stop-color:#FDEFDD"/>
		<stop  offset="0.25" style="stop-color:#FEF0DF"/>
		<stop  offset="0.52" style="stop-color:#DECCB6"/>
		<stop  offset="0.69" style="stop-color:#C5B5A2"/>
		<stop  offset="0.8" style="stop-color:#BAAB98"/>
		<stop  offset="0.92" style="stop-color:#B0A190"/>
	</linearGradient>
	<path fill="url(#SVGID_9_)" d="M283.82,305.82v-0.75c0-3,0.351-4.859,0.785-4.859l39.715,0.359c0.75,0,1.074,1.73,1.074,4.309
		l-0.324,0.941c0,2.25-0.027,4.5-0.465,4.5H284.57c-0.75,0-0.75-2.09-0.75-4.664V305.82z"/>
	
		<linearGradient id="SVGID_10_" gradientUnits="userSpaceOnUse" x1="14.7852" y1="337.9888" x2="1.3066" y2="337.9888" gradientTransform="matrix(0 -0.75 -0.75 0 558.0919 253.3575)">
		<stop  offset="0" style="stop-color:#C5B5A2"/>
		<stop  offset="0.15" style="stop-color:#FDEFDD"/>
		<stop  offset="0.25" style="stop-color:#FEF0DF"/>
		<stop  offset="0.52" style="stop-color:#DECCB6"/>
		<stop  offset="0.69" style="stop-color:#C5B5A2"/>
		<stop  offset="0.8" style="stop-color:#BAAB98"/>
		<stop  offset="0.92" style="stop-color:#B0A190"/>
	</linearGradient>
	<path fill="url(#SVGID_10_)" d="M283.813,247.879v-0.75c0-3,0.351-4.859,0.785-4.859l39.715,0.359c0.75,0,1.078,1.73,1.078,4.305
		l-0.328,0.945c0,2.25-0.027,4.5-0.461,4.5h-40.039c-0.75,0-0.75-2.09-0.75-4.664V247.879z"/>
	
		<linearGradient id="SVGID_11_" gradientUnits="userSpaceOnUse" x1="14.7861" y1="337.9888" x2="1.3066" y2="337.9888" gradientTransform="matrix(0 -0.75 -0.75 0 558.1027 195.9874)">
		<stop  offset="0" style="stop-color:#C5B5A2"/>
		<stop  offset="0.15" style="stop-color:#FDEFDD"/>
		<stop  offset="0.25" style="stop-color:#FEF0DF"/>
		<stop  offset="0.52" style="stop-color:#DECCB6"/>
		<stop  offset="0.69" style="stop-color:#C5B5A2"/>
		<stop  offset="0.8" style="stop-color:#BAAB98"/>
		<stop  offset="0.92" style="stop-color:#B0A190"/>
	</linearGradient>
	<path fill="url(#SVGID_11_)" d="M283.824,190.508v-0.75c0-3,0.351-4.859,0.785-4.859l39.715,0.359c0.75,0,1.074,1.73,1.074,4.309
		l-0.324,0.941c0,2.25-0.027,4.5-0.465,4.5h-40.035c-0.75,0-0.75-2.086-0.75-4.664V190.508z"/>
	
		<linearGradient id="SVGID_12_" gradientUnits="userSpaceOnUse" x1="14.7881" y1="337.9888" x2="1.3037" y2="337.9888" gradientTransform="matrix(0 -0.75 -0.75 0 558.965 138.6134)">
		<stop  offset="0" style="stop-color:#C5B5A2"/>
		<stop  offset="0.15" style="stop-color:#FDEFDD"/>
		<stop  offset="0.25" style="stop-color:#FEF0DF"/>
		<stop  offset="0.52" style="stop-color:#DECCB6"/>
		<stop  offset="0.69" style="stop-color:#C5B5A2"/>
		<stop  offset="0.8" style="stop-color:#BAAB98"/>
		<stop  offset="0.92" style="stop-color:#B0A190"/>
	</linearGradient>
	<path fill="url(#SVGID_12_)" d="M284.687,133.137v-0.75c0-3,0.348-4.863,0.785-4.863l39.715,0.363c0.75,0,1.074,1.727,1.074,4.305
		l-0.324,0.945c0,2.25-0.031,4.5-0.465,4.5h-40.035c-0.75,0-0.75-2.09-0.75-4.668V133.137z"/>
	
		<linearGradient id="SVGID_13_" gradientUnits="userSpaceOnUse" x1="210.5059" y1="-115.8677" x2="202.2246" y2="-115.8677" gradientTransform="matrix(0.75 0 0 -0.75 128.202 237.38)">
		<stop  offset="0" style="stop-color:#C5B5A2"/>
		<stop  offset="0.15" style="stop-color:#FDEFDD"/>
		<stop  offset="0.25" style="stop-color:#FEF0DF"/>
		<stop  offset="0.52" style="stop-color:#DECCB6"/>
		<stop  offset="0.69" style="stop-color:#C5B5A2"/>
		<stop  offset="0.8" style="stop-color:#BAAB98"/>
		<stop  offset="0.92" style="stop-color:#B0A190"/>
	</linearGradient>
	<path fill="url(#SVGID_13_)" d="M282.871,86.402c1.5,0,3.21,2.277,3.21,5.18l-0.211,465.07c0,3-1.18,5.508-2.894,5.508
		c-1.605-0.258-3.105-2.352-3.105-5.254V91.652c0-3,1.383-5.25,3.105-5.25H282.871z"/>
	
		<linearGradient id="SVGID_14_" gradientUnits="userSpaceOnUse" x1="210.5054" y1="-115.8677" x2="202.2241" y2="-115.8677" gradientTransform="matrix(0.75 0 0 -0.75 169.495 237.38)">
		<stop  offset="0" style="stop-color:#C5B5A2"/>
		<stop  offset="0.15" style="stop-color:#FDEFDD"/>
		<stop  offset="0.25" style="stop-color:#FEF0DF"/>
		<stop  offset="0.52" style="stop-color:#DECCB6"/>
		<stop  offset="0.69" style="stop-color:#C5B5A2"/>
		<stop  offset="0.8" style="stop-color:#BAAB98"/>
		<stop  offset="0.92" style="stop-color:#B0A190"/>
	</linearGradient>
	<path fill="url(#SVGID_14_)" d="M324.164,86.402c1.5,0,3.211,2.277,3.211,5.18l-0.211,465.07c0,3-1.184,5.508-2.895,5.508
		c-1.605-0.258-3.105-2.352-3.105-5.254V91.652c0-3,1.383-5.25,3.105-5.25H324.164z"/>
	
		<linearGradient id="SVGID_15_" gradientUnits="userSpaceOnUse" x1="209.2236" y1="174.2568" x2="202.1553" y2="174.2568" gradientTransform="matrix(0.75 0 0 -0.75 58.2347 188.3956)">
		<stop  offset="0" style="stop-color:#676768"/>
		<stop  offset="0.15" style="stop-color:#939394"/>
		<stop  offset="0.25" style="stop-color:#C9C9CA"/>
		<stop  offset="0.44" style="stop-color:#767677"/>
		<stop  offset="0.6" style="stop-color:#696969"/>
		<stop  offset="0.8" style="stop-color:#575758"/>
		<stop  offset="0.97" style="stop-color:#4F4F50"/>
		<stop  offset="1" style="stop-color:#6B6B6C"/>
	</linearGradient>
	<path fill="url(#SVGID_15_)" d="M212.152,37.418c1.5,0,2.895,0.977,2.895,2.223l0.105,36.027c0,1.5-1.27,2.32-2.703,2.32
		c-1.797-0.07-2.598-1.008-2.598-2.254l0.051-36.066c0-1.5,1.113-2.25,2.547-2.25H212.152z"/>
	
		<linearGradient id="SVGID_16_" gradientUnits="userSpaceOnUse" x1="209.2261" y1="174.2568" x2="202.1538" y2="174.2568" gradientTransform="matrix(0.75 0 0 -0.75 93.701 188.3956)">
		<stop  offset="0" style="stop-color:#676768"/>
		<stop  offset="0.15" style="stop-color:#939394"/>
		<stop  offset="0.25" style="stop-color:#C9C9CA"/>
		<stop  offset="0.44" style="stop-color:#767677"/>
		<stop  offset="0.6" style="stop-color:#696969"/>
		<stop  offset="0.8" style="stop-color:#575758"/>
		<stop  offset="0.97" style="stop-color:#4F4F50"/>
		<stop  offset="1" style="stop-color:#6B6B6C"/>
	</linearGradient>
	<path fill="url(#SVGID_16_)" d="M247.621,37.418c1.5,0,2.891,0.977,2.891,2.223l0.109,36.027c0,1.5-1.27,2.32-2.707,2.32
		c-1.793-0.07-2.598-1.008-2.598-2.254l0.055-36.066c0-1.5,1.109-2.25,2.543-2.25H247.621z"/>
	
		<linearGradient id="SVGID_17_" gradientUnits="userSpaceOnUse" x1="209.2236" y1="174.2568" x2="202.1572" y2="174.2568" gradientTransform="matrix(0.75 0 0 -0.75 129.1947 188.3956)">
		<stop  offset="0" style="stop-color:#676768"/>
		<stop  offset="0.15" style="stop-color:#939394"/>
		<stop  offset="0.25" style="stop-color:#C9C9CA"/>
		<stop  offset="0.44" style="stop-color:#767677"/>
		<stop  offset="0.6" style="stop-color:#696969"/>
		<stop  offset="0.8" style="stop-color:#575758"/>
		<stop  offset="0.97" style="stop-color:#4F4F50"/>
		<stop  offset="1" style="stop-color:#6B6B6C"/>
	</linearGradient>
	<path fill="url(#SVGID_17_)" d="M283.113,37.418c1.5,0,2.894,0.977,2.894,2.223l0.105,36.027c0,1.5-1.27,2.32-2.703,2.32
		c-1.797-0.07-2.598-1.008-2.598-2.254l0.051-36.066c0-1.5,1.113-2.25,2.547-2.25H283.113z"/>
	
		<linearGradient id="SVGID_18_" gradientUnits="userSpaceOnUse" x1="209.2227" y1="174.2568" x2="202.1553" y2="174.2568" gradientTransform="matrix(0.75 0 0 -0.75 164.6327 188.3956)">
		<stop  offset="0" style="stop-color:#676768"/>
		<stop  offset="0.15" style="stop-color:#939394"/>
		<stop  offset="0.25" style="stop-color:#C9C9CA"/>
		<stop  offset="0.44" style="stop-color:#767677"/>
		<stop  offset="0.6" style="stop-color:#696969"/>
		<stop  offset="0.8" style="stop-color:#575758"/>
		<stop  offset="0.97" style="stop-color:#4F4F50"/>
		<stop  offset="1" style="stop-color:#6B6B6C"/>
	</linearGradient>
	<path fill="url(#SVGID_18_)" d="M318.55,37.418c1.5,0,2.895,0.977,2.895,2.223l0.105,36.027c0,1.5-1.27,2.32-2.703,2.32
		c-1.797-0.07-2.598-1.008-2.598-2.254l0.051-36.066c0-1.5,1.113-2.25,2.547-2.25H318.55z"/>
	
		<linearGradient id="SVGID_19_" gradientUnits="userSpaceOnUse" x1="209.2271" y1="174.2568" x2="202.1538" y2="174.2568" gradientTransform="matrix(0.75 0 0 -0.75 200.0985 188.3956)">
		<stop  offset="0" style="stop-color:#676768"/>
		<stop  offset="0.15" style="stop-color:#939394"/>
		<stop  offset="0.25" style="stop-color:#C9C9CA"/>
		<stop  offset="0.44" style="stop-color:#767677"/>
		<stop  offset="0.6" style="stop-color:#696969"/>
		<stop  offset="0.8" style="stop-color:#575758"/>
		<stop  offset="0.97" style="stop-color:#4F4F50"/>
		<stop  offset="1" style="stop-color:#6B6B6C"/>
	</linearGradient>
	<path fill="url(#SVGID_19_)" d="M354.019,37.418c1.5,0,2.891,0.977,2.891,2.223l0.109,36.027c0,1.5-1.273,2.32-2.707,2.32
		c-1.793-0.07-2.598-1.008-2.598-2.254l0.055-36.066c0-1.5,1.109-2.25,2.543-2.25H354.019z"/>
	
		<linearGradient id="SVGID_20_" gradientUnits="userSpaceOnUse" x1="401.2231" y1="196.3027" x2="202.2236" y2="196.3027" gradientTransform="matrix(0.75 0 0 -0.75 57.2338 234.1134)">
		<stop  offset="0" style="stop-color:#676768"/>
		<stop  offset="0.15" style="stop-color:#939394"/>
		<stop  offset="0.25" style="stop-color:#C9C9CA"/>
		<stop  offset="0.44" style="stop-color:#767677"/>
		<stop  offset="0.6" style="stop-color:#696969"/>
		<stop  offset="0.8" style="stop-color:#575758"/>
		<stop  offset="0.97" style="stop-color:#4F4F50"/>
		<stop  offset="1" style="stop-color:#6B6B6C"/>
	</linearGradient>
	<path fill="url(#SVGID_20_)" d="M208.902,83.137h149.25v7.5h-149.25V83.137z"/>
	
		<linearGradient id="SVGID_21_" gradientUnits="userSpaceOnUse" x1="402.2231" y1="197.8047" x2="202.2231" y2="197.8047" gradientTransform="matrix(0.75 0 0 -0.75 56.6132 228.6583)">
		<stop  offset="0" style="stop-color:#676768"/>
		<stop  offset="0.15" style="stop-color:#939394"/>
		<stop  offset="0.25" style="stop-color:#C9C9CA"/>
		<stop  offset="0.44" style="stop-color:#767677"/>
		<stop  offset="0.6" style="stop-color:#696969"/>
		<stop  offset="0.8" style="stop-color:#575758"/>
		<stop  offset="0.97" style="stop-color:#4F4F50"/>
		<stop  offset="1" style="stop-color:#6B6B6C"/>
	</linearGradient>
	<path fill="url(#SVGID_21_)" d="M358.281,77.68v5.25h-150v-5.25H358.281z"/>
	
		<linearGradient id="SVGID_22_" gradientUnits="userSpaceOnUse" x1="403.2349" y1="198.8325" x2="202.2251" y2="198.8325" gradientTransform="matrix(0.75 0 0 -0.75 56.4169 187.9972)">
		<stop  offset="0" style="stop-color:#676768"/>
		<stop  offset="0.15" style="stop-color:#939394"/>
		<stop  offset="0.25" style="stop-color:#C9C9CA"/>
		<stop  offset="0.44" style="stop-color:#767677"/>
		<stop  offset="0.6" style="stop-color:#696969"/>
		<stop  offset="0.8" style="stop-color:#575758"/>
		<stop  offset="0.97" style="stop-color:#4F4F50"/>
		<stop  offset="1" style="stop-color:#6B6B6C"/>
	</linearGradient>
	<path fill="url(#SVGID_22_)" d="M211.086,37.02h144.75c1.5,0,3.008,0.66,3.008,1.527c-0.008,1.473-1.293,1.855-2.773,1.855
		L211.086,40.77c-1.5,0-3-1.07-3-1.938c0-1.063,1.18-1.855,2.66-1.855L211.086,37.02z"/>
	
		<linearGradient id="SVGID_23_" gradientUnits="userSpaceOnUse" x1="402.2231" y1="197.8037" x2="202.2231" y2="197.8037" gradientTransform="matrix(0.75 0 0 -0.75 56.6132 226.0948)">
		<stop  offset="0" style="stop-color:#676768"/>
		<stop  offset="0.15" style="stop-color:#939394"/>
		<stop  offset="0.25" style="stop-color:#C9C9CA"/>
		<stop  offset="0.44" style="stop-color:#767677"/>
		<stop  offset="0.6" style="stop-color:#696969"/>
		<stop  offset="0.8" style="stop-color:#575758"/>
		<stop  offset="0.97" style="stop-color:#4F4F50"/>
		<stop  offset="1" style="stop-color:#6B6B6C"/>
	</linearGradient>
	<path fill="url(#SVGID_23_)" d="M358.281,75.117v5.25h-150v-5.25H358.281z"/>
	
		<linearGradient id="SVGID_24_" gradientUnits="userSpaceOnUse" x1="209.2236" y1="174.2568" x2="202.1553" y2="174.2568" gradientTransform="matrix(0.75 0 0 -0.75 58.2347 294.4025)">
		<stop  offset="0" style="stop-color:#676768"/>
		<stop  offset="0.15" style="stop-color:#939394"/>
		<stop  offset="0.25" style="stop-color:#C9C9CA"/>
		<stop  offset="0.44" style="stop-color:#767677"/>
		<stop  offset="0.6" style="stop-color:#696969"/>
		<stop  offset="0.8" style="stop-color:#575758"/>
		<stop  offset="0.97" style="stop-color:#4F4F50"/>
		<stop  offset="1" style="stop-color:#6B6B6C"/>
	</linearGradient>
	<path fill="url(#SVGID_24_)" d="M212.152,143.426c1.5,0,2.895,0.977,2.895,2.223l0.105,36.027c0,1.5-1.27,2.32-2.703,2.32
		c-1.797-0.07-2.598-1.012-2.598-2.258l0.051-36.063c0-1.5,1.113-2.25,2.547-2.25H212.152z"/>
	
		<linearGradient id="SVGID_25_" gradientUnits="userSpaceOnUse" x1="209.2261" y1="174.2568" x2="202.1538" y2="174.2568" gradientTransform="matrix(0.75 0 0 -0.75 93.701 294.4025)">
		<stop  offset="0" style="stop-color:#676768"/>
		<stop  offset="0.15" style="stop-color:#939394"/>
		<stop  offset="0.25" style="stop-color:#C9C9CA"/>
		<stop  offset="0.44" style="stop-color:#767677"/>
		<stop  offset="0.6" style="stop-color:#696969"/>
		<stop  offset="0.8" style="stop-color:#575758"/>
		<stop  offset="0.97" style="stop-color:#4F4F50"/>
		<stop  offset="1" style="stop-color:#6B6B6C"/>
	</linearGradient>
	<path fill="url(#SVGID_25_)" d="M247.621,143.426c1.5,0,2.891,0.977,2.891,2.223l0.109,36.027c0,1.5-1.27,2.32-2.707,2.32
		c-1.793-0.07-2.598-1.012-2.598-2.258l0.055-36.063c0-1.5,1.109-2.25,2.543-2.25H247.621z"/>
	
		<linearGradient id="SVGID_26_" gradientUnits="userSpaceOnUse" x1="209.2236" y1="174.2568" x2="202.1572" y2="174.2568" gradientTransform="matrix(0.75 0 0 -0.75 129.1947 294.4025)">
		<stop  offset="0" style="stop-color:#676768"/>
		<stop  offset="0.15" style="stop-color:#939394"/>
		<stop  offset="0.25" style="stop-color:#C9C9CA"/>
		<stop  offset="0.44" style="stop-color:#767677"/>
		<stop  offset="0.6" style="stop-color:#696969"/>
		<stop  offset="0.8" style="stop-color:#575758"/>
		<stop  offset="0.97" style="stop-color:#4F4F50"/>
		<stop  offset="1" style="stop-color:#6B6B6C"/>
	</linearGradient>
	<path fill="url(#SVGID_26_)" d="M283.113,143.426c1.5,0,2.894,0.977,2.894,2.223l0.105,36.027c0,1.5-1.27,2.32-2.703,2.32
		c-1.797-0.07-2.598-1.012-2.598-2.258l0.051-36.063c0-1.5,1.113-2.25,2.547-2.25H283.113z"/>
	
		<linearGradient id="SVGID_27_" gradientUnits="userSpaceOnUse" x1="209.2227" y1="174.2568" x2="202.1553" y2="174.2568" gradientTransform="matrix(0.75 0 0 -0.75 164.6327 294.4025)">
		<stop  offset="0" style="stop-color:#676768"/>
		<stop  offset="0.15" style="stop-color:#939394"/>
		<stop  offset="0.25" style="stop-color:#C9C9CA"/>
		<stop  offset="0.44" style="stop-color:#767677"/>
		<stop  offset="0.6" style="stop-color:#696969"/>
		<stop  offset="0.8" style="stop-color:#575758"/>
		<stop  offset="0.97" style="stop-color:#4F4F50"/>
		<stop  offset="1" style="stop-color:#6B6B6C"/>
	</linearGradient>
	<path fill="url(#SVGID_27_)" d="M318.55,143.426c1.5,0,2.895,0.977,2.895,2.223l0.105,36.027c0,1.5-1.27,2.32-2.703,2.32
		c-1.797-0.07-2.598-1.012-2.598-2.258l0.051-36.063c0-1.5,1.113-2.25,2.547-2.25H318.55z"/>
	
		<linearGradient id="SVGID_28_" gradientUnits="userSpaceOnUse" x1="209.2271" y1="174.2568" x2="202.1538" y2="174.2568" gradientTransform="matrix(0.75 0 0 -0.75 200.0985 294.4025)">
		<stop  offset="0" style="stop-color:#676768"/>
		<stop  offset="0.15" style="stop-color:#939394"/>
		<stop  offset="0.25" style="stop-color:#C9C9CA"/>
		<stop  offset="0.44" style="stop-color:#767677"/>
		<stop  offset="0.6" style="stop-color:#696969"/>
		<stop  offset="0.8" style="stop-color:#575758"/>
		<stop  offset="0.97" style="stop-color:#4F4F50"/>
		<stop  offset="1" style="stop-color:#6B6B6C"/>
	</linearGradient>
	<path fill="url(#SVGID_28_)" d="M354.019,143.426c1.5,0,2.891,0.977,2.891,2.223l0.109,36.027c0,1.5-1.273,2.32-2.707,2.32
		c-1.793-0.07-2.598-1.012-2.598-2.258l0.055-36.063c0-1.5,1.109-2.25,2.543-2.25H354.019z"/>
	
		<linearGradient id="SVGID_29_" gradientUnits="userSpaceOnUse" x1="401.2231" y1="196.3027" x2="202.2236" y2="196.3027" gradientTransform="matrix(0.75 0 0 -0.75 57.2338 340.1202)">
		<stop  offset="0" style="stop-color:#676768"/>
		<stop  offset="0.15" style="stop-color:#939394"/>
		<stop  offset="0.25" style="stop-color:#C9C9CA"/>
		<stop  offset="0.44" style="stop-color:#767677"/>
		<stop  offset="0.6" style="stop-color:#696969"/>
		<stop  offset="0.8" style="stop-color:#575758"/>
		<stop  offset="0.97" style="stop-color:#4F4F50"/>
		<stop  offset="1" style="stop-color:#6B6B6C"/>
	</linearGradient>
	<path fill="url(#SVGID_29_)" d="M208.902,189.145h149.25v7.5h-149.25V189.145z"/>
	
		<linearGradient id="SVGID_30_" gradientUnits="userSpaceOnUse" x1="402.2231" y1="197.8027" x2="202.2231" y2="197.8027" gradientTransform="matrix(0.75 0 0 -0.75 56.6132 334.6642)">
		<stop  offset="0" style="stop-color:#676768"/>
		<stop  offset="0.15" style="stop-color:#939394"/>
		<stop  offset="0.25" style="stop-color:#C9C9CA"/>
		<stop  offset="0.44" style="stop-color:#767677"/>
		<stop  offset="0.6" style="stop-color:#696969"/>
		<stop  offset="0.8" style="stop-color:#575758"/>
		<stop  offset="0.97" style="stop-color:#4F4F50"/>
		<stop  offset="1" style="stop-color:#6B6B6C"/>
	</linearGradient>
	<path fill="url(#SVGID_30_)" d="M358.281,183.688v5.25h-150v-5.25H358.281z"/>
	
		<linearGradient id="SVGID_31_" gradientUnits="userSpaceOnUse" x1="403.2349" y1="198.835" x2="202.2251" y2="198.8349" gradientTransform="matrix(0.75 0 0 -0.75 56.4169 294.004)">
		<stop  offset="0" style="stop-color:#676768"/>
		<stop  offset="0.15" style="stop-color:#939394"/>
		<stop  offset="0.25" style="stop-color:#C9C9CA"/>
		<stop  offset="0.44" style="stop-color:#767677"/>
		<stop  offset="0.6" style="stop-color:#696969"/>
		<stop  offset="0.8" style="stop-color:#575758"/>
		<stop  offset="0.97" style="stop-color:#4F4F50"/>
		<stop  offset="1" style="stop-color:#6B6B6C"/>
	</linearGradient>
	<path fill="url(#SVGID_31_)" d="M211.086,143.027h144.75c1.5,0,3.008,0.656,3.008,1.523c-0.008,1.477-1.293,1.855-2.773,1.855
		l-144.984,0.371c-1.5,0-3-1.074-3-1.941c0-1.059,1.18-1.855,2.66-1.855L211.086,143.027z"/>
	
		<linearGradient id="SVGID_32_" gradientUnits="userSpaceOnUse" x1="402.2231" y1="197.8037" x2="202.2231" y2="197.8037" gradientTransform="matrix(0.75 0 0 -0.75 56.6132 332.1017)">
		<stop  offset="0" style="stop-color:#676768"/>
		<stop  offset="0.15" style="stop-color:#939394"/>
		<stop  offset="0.25" style="stop-color:#C9C9CA"/>
		<stop  offset="0.44" style="stop-color:#767677"/>
		<stop  offset="0.6" style="stop-color:#696969"/>
		<stop  offset="0.8" style="stop-color:#575758"/>
		<stop  offset="0.97" style="stop-color:#4F4F50"/>
		<stop  offset="1" style="stop-color:#6B6B6C"/>
	</linearGradient>
	<path fill="url(#SVGID_32_)" d="M358.281,181.125v5.25h-150v-5.25H358.281z"/>
	
		<linearGradient id="SVGID_33_" gradientUnits="userSpaceOnUse" x1="209.2236" y1="174.2559" x2="202.1553" y2="174.2559" gradientTransform="matrix(0.75 0 0 -0.75 58.2347 400.4083)">
		<stop  offset="0" style="stop-color:#676768"/>
		<stop  offset="0.15" style="stop-color:#939394"/>
		<stop  offset="0.25" style="stop-color:#C9C9CA"/>
		<stop  offset="0.44" style="stop-color:#767677"/>
		<stop  offset="0.6" style="stop-color:#696969"/>
		<stop  offset="0.8" style="stop-color:#575758"/>
		<stop  offset="0.97" style="stop-color:#4F4F50"/>
		<stop  offset="1" style="stop-color:#6B6B6C"/>
	</linearGradient>
	<path fill="url(#SVGID_33_)" d="M212.152,249.43c1.5,0,2.895,0.98,2.895,2.227l0.105,36.023c0,1.5-1.27,2.324-2.703,2.324
		c-1.797-0.074-2.598-1.012-2.598-2.258l0.051-36.066c0-1.5,1.113-2.25,2.547-2.25H212.152z"/>
	
		<linearGradient id="SVGID_34_" gradientUnits="userSpaceOnUse" x1="209.2261" y1="174.2559" x2="202.1538" y2="174.2559" gradientTransform="matrix(0.75 0 0 -0.75 93.701 400.4083)">
		<stop  offset="0" style="stop-color:#676768"/>
		<stop  offset="0.15" style="stop-color:#939394"/>
		<stop  offset="0.25" style="stop-color:#C9C9CA"/>
		<stop  offset="0.44" style="stop-color:#767677"/>
		<stop  offset="0.6" style="stop-color:#696969"/>
		<stop  offset="0.8" style="stop-color:#575758"/>
		<stop  offset="0.97" style="stop-color:#4F4F50"/>
		<stop  offset="1" style="stop-color:#6B6B6C"/>
	</linearGradient>
	<path fill="url(#SVGID_34_)" d="M247.621,249.43c1.5,0,2.891,0.98,2.891,2.227l0.109,36.023c0,1.5-1.27,2.324-2.707,2.324
		c-1.793-0.074-2.598-1.012-2.598-2.258l0.055-36.066c0-1.5,1.109-2.25,2.543-2.25H247.621z"/>
	
		<linearGradient id="SVGID_35_" gradientUnits="userSpaceOnUse" x1="209.2236" y1="174.2559" x2="202.1572" y2="174.2559" gradientTransform="matrix(0.75 0 0 -0.75 129.1947 400.4083)">
		<stop  offset="0" style="stop-color:#676768"/>
		<stop  offset="0.15" style="stop-color:#939394"/>
		<stop  offset="0.25" style="stop-color:#C9C9CA"/>
		<stop  offset="0.44" style="stop-color:#767677"/>
		<stop  offset="0.6" style="stop-color:#696969"/>
		<stop  offset="0.8" style="stop-color:#575758"/>
		<stop  offset="0.97" style="stop-color:#4F4F50"/>
		<stop  offset="1" style="stop-color:#6B6B6C"/>
	</linearGradient>
	<path fill="url(#SVGID_35_)" d="M283.113,249.43c1.5,0,2.894,0.98,2.894,2.227l0.105,36.023c0,1.5-1.27,2.324-2.703,2.324
		c-1.797-0.074-2.598-1.012-2.598-2.258l0.051-36.066c0-1.5,1.113-2.25,2.547-2.25H283.113z"/>
	
		<linearGradient id="SVGID_36_" gradientUnits="userSpaceOnUse" x1="209.2227" y1="174.2559" x2="202.1553" y2="174.2559" gradientTransform="matrix(0.75 0 0 -0.75 164.6327 400.4083)">
		<stop  offset="0" style="stop-color:#676768"/>
		<stop  offset="0.15" style="stop-color:#939394"/>
		<stop  offset="0.25" style="stop-color:#C9C9CA"/>
		<stop  offset="0.44" style="stop-color:#767677"/>
		<stop  offset="0.6" style="stop-color:#696969"/>
		<stop  offset="0.8" style="stop-color:#575758"/>
		<stop  offset="0.97" style="stop-color:#4F4F50"/>
		<stop  offset="1" style="stop-color:#6B6B6C"/>
	</linearGradient>
	<path fill="url(#SVGID_36_)" d="M318.55,249.43c1.5,0,2.895,0.98,2.895,2.227l0.105,36.023c0,1.5-1.27,2.324-2.703,2.324
		c-1.797-0.074-2.598-1.012-2.598-2.258l0.051-36.066c0-1.5,1.113-2.25,2.547-2.25H318.55z"/>
	
		<linearGradient id="SVGID_37_" gradientUnits="userSpaceOnUse" x1="209.2271" y1="174.2559" x2="202.1538" y2="174.2559" gradientTransform="matrix(0.75 0 0 -0.75 200.0985 400.4083)">
		<stop  offset="0" style="stop-color:#676768"/>
		<stop  offset="0.15" style="stop-color:#939394"/>
		<stop  offset="0.25" style="stop-color:#C9C9CA"/>
		<stop  offset="0.44" style="stop-color:#767677"/>
		<stop  offset="0.6" style="stop-color:#696969"/>
		<stop  offset="0.8" style="stop-color:#575758"/>
		<stop  offset="0.97" style="stop-color:#4F4F50"/>
		<stop  offset="1" style="stop-color:#6B6B6C"/>
	</linearGradient>
	<path fill="url(#SVGID_37_)" d="M354.019,249.43c1.5,0,2.891,0.98,2.891,2.227l0.109,36.023c0,1.5-1.273,2.324-2.707,2.324
		c-1.793-0.074-2.598-1.012-2.598-2.258l0.055-36.066c0-1.5,1.109-2.25,2.543-2.25H354.019z"/>
	
		<linearGradient id="SVGID_38_" gradientUnits="userSpaceOnUse" x1="401.2231" y1="196.3066" x2="202.2236" y2="196.3066" gradientTransform="matrix(0.75 0 0 -0.75 57.2338 446.1271)">
		<stop  offset="0" style="stop-color:#676768"/>
		<stop  offset="0.15" style="stop-color:#939394"/>
		<stop  offset="0.25" style="stop-color:#C9C9CA"/>
		<stop  offset="0.44" style="stop-color:#767677"/>
		<stop  offset="0.6" style="stop-color:#696969"/>
		<stop  offset="0.8" style="stop-color:#575758"/>
		<stop  offset="0.97" style="stop-color:#4F4F50"/>
		<stop  offset="1" style="stop-color:#6B6B6C"/>
	</linearGradient>
	<path fill="url(#SVGID_38_)" d="M208.902,295.148h149.25v7.5h-149.25V295.148z"/>
	
		<linearGradient id="SVGID_39_" gradientUnits="userSpaceOnUse" x1="402.2231" y1="197.8018" x2="202.2231" y2="197.8017" gradientTransform="matrix(0.75 0 0 -0.75 56.6132 440.671)">
		<stop  offset="0" style="stop-color:#676768"/>
		<stop  offset="0.15" style="stop-color:#939394"/>
		<stop  offset="0.25" style="stop-color:#C9C9CA"/>
		<stop  offset="0.44" style="stop-color:#767677"/>
		<stop  offset="0.6" style="stop-color:#696969"/>
		<stop  offset="0.8" style="stop-color:#575758"/>
		<stop  offset="0.97" style="stop-color:#4F4F50"/>
		<stop  offset="1" style="stop-color:#6B6B6C"/>
	</linearGradient>
	<path fill="url(#SVGID_39_)" d="M358.281,289.695v5.25h-150v-5.25H358.281z"/>
	
		<linearGradient id="SVGID_40_" gradientUnits="userSpaceOnUse" x1="403.2349" y1="198.8335" x2="202.2251" y2="198.8335" gradientTransform="matrix(0.75 0 0 -0.75 56.4169 400.0099)">
		<stop  offset="0" style="stop-color:#676768"/>
		<stop  offset="0.15" style="stop-color:#939394"/>
		<stop  offset="0.25" style="stop-color:#C9C9CA"/>
		<stop  offset="0.44" style="stop-color:#767677"/>
		<stop  offset="0.6" style="stop-color:#696969"/>
		<stop  offset="0.8" style="stop-color:#575758"/>
		<stop  offset="0.97" style="stop-color:#4F4F50"/>
		<stop  offset="1" style="stop-color:#6B6B6C"/>
	</linearGradient>
	<path fill="url(#SVGID_40_)" d="M211.086,249.031h144.75c1.5,0,3.008,0.66,3.008,1.527c-0.008,1.473-1.293,1.855-2.773,1.855
		l-144.984,0.367c-1.5,0-3-1.07-3-1.938c0-1.063,1.18-1.855,2.66-1.855L211.086,249.031z"/>
	
		<linearGradient id="SVGID_41_" gradientUnits="userSpaceOnUse" x1="402.2231" y1="197.8057" x2="202.2231" y2="197.8056" gradientTransform="matrix(0.75 0 0 -0.75 56.6132 438.1075)">
		<stop  offset="0" style="stop-color:#676768"/>
		<stop  offset="0.15" style="stop-color:#939394"/>
		<stop  offset="0.25" style="stop-color:#C9C9CA"/>
		<stop  offset="0.44" style="stop-color:#767677"/>
		<stop  offset="0.6" style="stop-color:#696969"/>
		<stop  offset="0.8" style="stop-color:#575758"/>
		<stop  offset="0.97" style="stop-color:#4F4F50"/>
		<stop  offset="1" style="stop-color:#6B6B6C"/>
	</linearGradient>
	<path fill="url(#SVGID_41_)" d="M358.281,287.128v5.25h-150v-5.25H358.281z"/>
</g>
</svg>
