<?xml version="1.0" encoding="utf-8"?>
<!-- Generator: Adobe Illustrator 16.0.0, SVG Export Plug-In . SVG Version: 6.00 Build 0)  -->
<!DOCTYPE svg PUBLIC "-//W3C//DTD SVG 1.1//EN" "http://www.w3.org/Graphics/SVG/1.1/DTD/svg11.dtd">
<svg preserveAspectRatio="none"   version="1.1" id="图层_1" xmlns="http://www.w3.org/2000/svg" xmlns:xlink="http://www.w3.org/1999/xlink" x="0px" y="0px"
	 width="182.222px" height="552.941px" viewBox="192.422 7.082 182.222 552.941"
	 enable-background="new 192.422 7.082 182.222 552.941" xml:space="preserve">
<g id="surface26">
	
		<linearGradient id="SVGID_1_" gradientUnits="userSpaceOnUse" x1="414.3804" y1="-100.1938" x2="202.2241" y2="-100.1939" gradientTransform="matrix(0.75 0 0 -0.75 63.6552 232.6349)">
		<stop  offset="0" style="stop-color:#BAC0C1"/>
		<stop  offset="0.15" style="stop-color:#F4FAFC"/>
		<stop  offset="0.25" style="stop-color:#F8FCFD"/>
		<stop  offset="0.44" style="stop-color:#D5DBDD"/>
		<stop  offset="0.6" style="stop-color:#BDC3C4"/>
		<stop  offset="0.8" style="stop-color:#A0A4A6"/>
		<stop  offset="0.97" style="stop-color:#929697"/>
		<stop  offset="1" style="stop-color:#C2C7C9"/>
	</linearGradient>
	<path fill="url(#SVGID_1_)" d="M224.324,81.656h141c5.25,0,9.117,4.176,9.117,9.32l-0.117,433.179c0,5.25-4.074,9.566-9.242,9.566
		l-140.757,0.184c-4.5,0-9-4.359-9-9.504V90.656c0-4.5,4.191-9,9.359-9H224.324z"/>
	
		<linearGradient id="SVGID_2_" gradientUnits="userSpaceOnUse" x1="399.2251" y1="517.0376" x2="202.2261" y2="517.0376" gradientTransform="matrix(0.75 0 0 0.75 69.4354 -343.506)">
		<stop  offset="0" style="stop-color:#BAC0C1"/>
		<stop  offset="0.15" style="stop-color:#F4FAFC"/>
		<stop  offset="0.25" style="stop-color:#F8FCFD"/>
		<stop  offset="0.44" style="stop-color:#D5DBDD"/>
		<stop  offset="0.6" style="stop-color:#BDC3C4"/>
		<stop  offset="0.8" style="stop-color:#A0A4A6"/>
		<stop  offset="0.97" style="stop-color:#929697"/>
		<stop  offset="1" style="stop-color:#C2C7C9"/>
	</linearGradient>
	<path fill="url(#SVGID_2_)" d="M221.105,81.461h147.75v-15c0,0,0.379-59.379-72.391-59.379
		c-73.109,0.129-75.359,59.387-75.359,59.387V81.461z"/>
	
		<linearGradient id="SVGID_3_" gradientUnits="userSpaceOnUse" x1="399.2251" y1="562.6235" x2="202.2261" y2="562.6235" gradientTransform="matrix(0.75 0 0 0.75 69.4354 -343.506)">
		<stop  offset="0" style="stop-color:#8C9192"/>
		<stop  offset="0.15" style="stop-color:#BDC3C4"/>
		<stop  offset="0.25" style="stop-color:#DCDEDF"/>
		<stop  offset="0.44" style="stop-color:#A1A6A7"/>
		<stop  offset="0.6" style="stop-color:#8F9394"/>
		<stop  offset="0.8" style="stop-color:#787C7C"/>
		<stop  offset="0.97" style="stop-color:#6D7172"/>
		<stop  offset="1" style="stop-color:#929798"/>
	</linearGradient>
	<path fill="url(#SVGID_3_)" d="M221.105,81.461h147.75v-6h-147.75V81.461z"/>
	
		<linearGradient id="SVGID_4_" gradientUnits="userSpaceOnUse" x1="379.2212" y1="195.8057" x2="202.2227" y2="195.8056" gradientTransform="matrix(0.75 0 0 -0.75 40.7543 309.1115)">
		<stop  offset="0" style="stop-color:#8C9192"/>
		<stop  offset="0.15" style="stop-color:#BDC3C4"/>
		<stop  offset="0.25" style="stop-color:#DCDEDF"/>
		<stop  offset="0.44" style="stop-color:#A1A6A7"/>
		<stop  offset="0.6" style="stop-color:#8F9394"/>
		<stop  offset="0.8" style="stop-color:#787C7C"/>
		<stop  offset="0.97" style="stop-color:#6D7172"/>
		<stop  offset="1" style="stop-color:#929798"/>
	</linearGradient>
	<path fill="url(#SVGID_4_)" d="M325.171,158.133v8.25h-132.75v-8.25H325.171z"/>
	
		<linearGradient id="SVGID_5_" gradientUnits="userSpaceOnUse" x1="208.2666" y1="162.0581" x2="202.1621" y2="162.0581" gradientTransform="matrix(0.75 0 0 -0.75 43.6361 250.7111)">
		<stop  offset="0" style="stop-color:#B6B6B6"/>
		<stop  offset="0.15" style="stop-color:#EFEFEF"/>
		<stop  offset="0.25" style="stop-color:#F6F6F6"/>
		<stop  offset="0.44" style="stop-color:#D0D0D0"/>
		<stop  offset="0.6" style="stop-color:#B9B9B9"/>
		<stop  offset="0.8" style="stop-color:#9C9C9C"/>
		<stop  offset="0.97" style="stop-color:#8F8F8F"/>
		<stop  offset="1" style="stop-color:#BEBEBE"/>
	</linearGradient>
	<path fill="url(#SVGID_5_)" d="M197.555,99.734c1.5,0,2.281,1.418,2.281,3.227l-0.031,52.273c0,2.25-0.992,3.367-2.258,3.367
		c-1.492-0.367-2.289-1.465-2.289-3.273l0.047-52.594c0-1.5,0.98-3,2.242-3H197.555z"/>
	
		<linearGradient id="SVGID_6_" gradientUnits="userSpaceOnUse" x1="208.2637" y1="162.0581" x2="202.165" y2="162.0581" gradientTransform="matrix(0.75 0 0 -0.75 68.6298 250.7111)">
		<stop  offset="0" style="stop-color:#B6B6B6"/>
		<stop  offset="0.15" style="stop-color:#EFEFEF"/>
		<stop  offset="0.25" style="stop-color:#F6F6F6"/>
		<stop  offset="0.44" style="stop-color:#D0D0D0"/>
		<stop  offset="0.6" style="stop-color:#B9B9B9"/>
		<stop  offset="0.8" style="stop-color:#9C9C9C"/>
		<stop  offset="0.97" style="stop-color:#8F8F8F"/>
		<stop  offset="1" style="stop-color:#BEBEBE"/>
	</linearGradient>
	<path fill="url(#SVGID_6_)" d="M222.547,99.734c1.5,0,2.281,1.418,2.281,3.227l-0.031,52.273c0,2.25-0.992,3.367-2.254,3.367
		c-1.496-0.367-2.289-1.465-2.289-3.273l0.043-52.594c0-1.5,0.98-3,2.246-3H222.547z"/>
	
		<linearGradient id="SVGID_7_" gradientUnits="userSpaceOnUse" x1="208.2646" y1="162.0581" x2="202.165" y2="162.0581" gradientTransform="matrix(0.75 0 0 -0.75 92.5634 250.7111)">
		<stop  offset="0" style="stop-color:#B6B6B6"/>
		<stop  offset="0.15" style="stop-color:#EFEFEF"/>
		<stop  offset="0.25" style="stop-color:#F6F6F6"/>
		<stop  offset="0.44" style="stop-color:#D0D0D0"/>
		<stop  offset="0.6" style="stop-color:#B9B9B9"/>
		<stop  offset="0.8" style="stop-color:#9C9C9C"/>
		<stop  offset="0.97" style="stop-color:#8F8F8F"/>
		<stop  offset="1" style="stop-color:#BEBEBE"/>
	</linearGradient>
	<path fill="url(#SVGID_7_)" d="M246.48,99.734c1.5,0,2.281,1.418,2.281,3.227l-0.031,52.273c0,2.25-0.992,3.367-2.254,3.367
		c-1.496-0.367-2.289-1.465-2.289-3.273l0.043-52.594c0-1.5,0.98-3,2.246-3H246.48z"/>
	
		<linearGradient id="SVGID_8_" gradientUnits="userSpaceOnUse" x1="208.2656" y1="162.0581" x2="202.167" y2="162.0581" gradientTransform="matrix(0.75 0 0 -0.75 118.6171 250.7111)">
		<stop  offset="0" style="stop-color:#B6B6B6"/>
		<stop  offset="0.15" style="stop-color:#EFEFEF"/>
		<stop  offset="0.25" style="stop-color:#F6F6F6"/>
		<stop  offset="0.44" style="stop-color:#D0D0D0"/>
		<stop  offset="0.6" style="stop-color:#B9B9B9"/>
		<stop  offset="0.8" style="stop-color:#9C9C9C"/>
		<stop  offset="0.97" style="stop-color:#8F8F8F"/>
		<stop  offset="1" style="stop-color:#BEBEBE"/>
	</linearGradient>
	<path fill="url(#SVGID_8_)" d="M272.535,99.734c1.5,0,2.281,1.418,2.281,3.227l-0.031,52.273c0,2.25-0.992,3.367-2.258,3.367
		c-1.492-0.367-2.285-1.465-2.285-3.273l0.043-52.594c0-1.5,0.98-3,2.242-3H272.535z"/>
	
		<linearGradient id="SVGID_9_" gradientUnits="userSpaceOnUse" x1="208.2637" y1="162.0581" x2="202.165" y2="162.0581" gradientTransform="matrix(0.75 0 0 -0.75 143.6102 250.7111)">
		<stop  offset="0" style="stop-color:#B6B6B6"/>
		<stop  offset="0.15" style="stop-color:#EFEFEF"/>
		<stop  offset="0.25" style="stop-color:#F6F6F6"/>
		<stop  offset="0.44" style="stop-color:#D0D0D0"/>
		<stop  offset="0.6" style="stop-color:#B9B9B9"/>
		<stop  offset="0.8" style="stop-color:#9C9C9C"/>
		<stop  offset="0.97" style="stop-color:#8F8F8F"/>
		<stop  offset="1" style="stop-color:#BEBEBE"/>
	</linearGradient>
	<path fill="url(#SVGID_9_)" d="M297.531,99.734c1.5,0,2.277,1.418,2.277,3.227l-0.027,52.273c0,2.25-0.996,3.367-2.258,3.367
		c-1.492-0.367-2.289-1.465-2.289-3.273l0.047-52.594c0-1.5,0.977-3,2.242-3H297.531z"/>
	
		<linearGradient id="SVGID_10_" gradientUnits="userSpaceOnUse" x1="208.2661" y1="162.0581" x2="202.1616" y2="162.0581" gradientTransform="matrix(0.75 0 0 -0.75 168.6044 250.7111)">
		<stop  offset="0" style="stop-color:#B6B6B6"/>
		<stop  offset="0.15" style="stop-color:#EFEFEF"/>
		<stop  offset="0.25" style="stop-color:#F6F6F6"/>
		<stop  offset="0.44" style="stop-color:#D0D0D0"/>
		<stop  offset="0.6" style="stop-color:#B9B9B9"/>
		<stop  offset="0.8" style="stop-color:#9C9C9C"/>
		<stop  offset="0.97" style="stop-color:#8F8F8F"/>
		<stop  offset="1" style="stop-color:#BEBEBE"/>
	</linearGradient>
	<path fill="url(#SVGID_10_)" d="M322.523,99.734c1.5,0,2.281,1.418,2.281,3.227l-0.031,52.273c0,2.25-0.996,3.367-2.258,3.367
		c-1.492-0.367-2.289-1.465-2.289-3.273l0.047-52.594c0-1.5,0.977-3,2.242-3H322.523z"/>
	
		<linearGradient id="SVGID_11_" gradientUnits="userSpaceOnUse" x1="373.687" y1="197.8481" x2="202.2241" y2="197.8481" gradientTransform="matrix(0.75 0 0 -0.75 44.0262 250.1115)">
		<stop  offset="0" style="stop-color:#B6B6B6"/>
		<stop  offset="0.15" style="stop-color:#EFEFEF"/>
		<stop  offset="0.25" style="stop-color:#F6F6F6"/>
		<stop  offset="0.44" style="stop-color:#D0D0D0"/>
		<stop  offset="0.6" style="stop-color:#B9B9B9"/>
		<stop  offset="0.8" style="stop-color:#9C9C9C"/>
		<stop  offset="0.97" style="stop-color:#8F8F8F"/>
		<stop  offset="1" style="stop-color:#BEBEBE"/>
	</linearGradient>
	<path fill="url(#SVGID_11_)" d="M197.945,99.133h123.75c1.5,0,2.598,0.957,2.598,2.215c-0.348,1.535-1.102,2.691-2.363,2.691
		l-123.984,0.344c-1.5,0-2.25-1.363-2.25-2.621c0-1.879,1.004-2.691,2.27-2.691L197.945,99.133z"/>
	
		<linearGradient id="SVGID_12_" gradientUnits="userSpaceOnUse" x1="379.2212" y1="195.8047" x2="202.2227" y2="195.8047" gradientTransform="matrix(0.75 0 0 -0.75 40.7543 305.3927)">
		<stop  offset="0" style="stop-color:#A7ACAD"/>
		<stop  offset="0.15" style="stop-color:#DCE2E4"/>
		<stop  offset="0.25" style="stop-color:#ECEFF0"/>
		<stop  offset="0.44" style="stop-color:#BFC4C6"/>
		<stop  offset="0.6" style="stop-color:#AAAEB0"/>
		<stop  offset="0.8" style="stop-color:#8F9394"/>
		<stop  offset="0.97" style="stop-color:#828687"/>
		<stop  offset="1" style="stop-color:#AEB2B4"/>
	</linearGradient>
	<path fill="url(#SVGID_12_)" d="M325.171,154.414v8.25h-132.75v-8.25H325.171z"/>
	
		<linearGradient id="SVGID_13_" gradientUnits="userSpaceOnUse" x1="379.2212" y1="195.8076" x2="202.2227" y2="195.8076" gradientTransform="matrix(0.75 0 0 -0.75 40.7543 403.507)">
		<stop  offset="0" style="stop-color:#8C9192"/>
		<stop  offset="0.15" style="stop-color:#BDC3C4"/>
		<stop  offset="0.25" style="stop-color:#DCDEDF"/>
		<stop  offset="0.44" style="stop-color:#A1A6A7"/>
		<stop  offset="0.6" style="stop-color:#8F9394"/>
		<stop  offset="0.8" style="stop-color:#787C7C"/>
		<stop  offset="0.97" style="stop-color:#6D7172"/>
		<stop  offset="1" style="stop-color:#929798"/>
	</linearGradient>
	<path fill="url(#SVGID_13_)" d="M325.171,252.527v8.25h-132.75v-8.25H325.171z"/>
	
		<linearGradient id="SVGID_14_" gradientUnits="userSpaceOnUse" x1="208.2666" y1="162.0601" x2="202.1621" y2="162.0601" gradientTransform="matrix(0.75 0 0 -0.75 43.6361 345.1066)">
		<stop  offset="0" style="stop-color:#B6B6B6"/>
		<stop  offset="0.15" style="stop-color:#EFEFEF"/>
		<stop  offset="0.25" style="stop-color:#F6F6F6"/>
		<stop  offset="0.44" style="stop-color:#D0D0D0"/>
		<stop  offset="0.6" style="stop-color:#B9B9B9"/>
		<stop  offset="0.8" style="stop-color:#9C9C9C"/>
		<stop  offset="0.97" style="stop-color:#8F8F8F"/>
		<stop  offset="1" style="stop-color:#BEBEBE"/>
	</linearGradient>
	<path fill="url(#SVGID_14_)" d="M197.555,194.129c1.5,0,2.281,1.418,2.281,3.227l-0.031,52.273c0,2.25-0.992,3.367-2.258,3.367
		c-1.492-0.367-2.289-1.465-2.289-3.27l0.047-52.598c0-1.5,0.98-3,2.242-3H197.555z"/>
	
		<linearGradient id="SVGID_15_" gradientUnits="userSpaceOnUse" x1="208.2637" y1="162.0601" x2="202.165" y2="162.0601" gradientTransform="matrix(0.75 0 0 -0.75 68.6298 345.1066)">
		<stop  offset="0" style="stop-color:#B6B6B6"/>
		<stop  offset="0.15" style="stop-color:#EFEFEF"/>
		<stop  offset="0.25" style="stop-color:#F6F6F6"/>
		<stop  offset="0.44" style="stop-color:#D0D0D0"/>
		<stop  offset="0.6" style="stop-color:#B9B9B9"/>
		<stop  offset="0.8" style="stop-color:#9C9C9C"/>
		<stop  offset="0.97" style="stop-color:#8F8F8F"/>
		<stop  offset="1" style="stop-color:#BEBEBE"/>
	</linearGradient>
	<path fill="url(#SVGID_15_)" d="M222.547,194.129c1.5,0,2.281,1.418,2.281,3.227l-0.031,52.273c0,2.25-0.992,3.367-2.254,3.367
		c-1.496-0.367-2.289-1.465-2.289-3.27l0.043-52.598c0-1.5,0.98-3,2.246-3H222.547z"/>
	
		<linearGradient id="SVGID_16_" gradientUnits="userSpaceOnUse" x1="208.2646" y1="162.0601" x2="202.165" y2="162.0601" gradientTransform="matrix(0.75 0 0 -0.75 92.5634 345.1066)">
		<stop  offset="0" style="stop-color:#B6B6B6"/>
		<stop  offset="0.15" style="stop-color:#EFEFEF"/>
		<stop  offset="0.25" style="stop-color:#F6F6F6"/>
		<stop  offset="0.44" style="stop-color:#D0D0D0"/>
		<stop  offset="0.6" style="stop-color:#B9B9B9"/>
		<stop  offset="0.8" style="stop-color:#9C9C9C"/>
		<stop  offset="0.97" style="stop-color:#8F8F8F"/>
		<stop  offset="1" style="stop-color:#BEBEBE"/>
	</linearGradient>
	<path fill="url(#SVGID_16_)" d="M246.48,194.129c1.5,0,2.281,1.418,2.281,3.227l-0.031,52.273c0,2.25-0.992,3.367-2.254,3.367
		c-1.496-0.367-2.289-1.465-2.289-3.27l0.043-52.598c0-1.5,0.98-3,2.246-3H246.48z"/>
	
		<linearGradient id="SVGID_17_" gradientUnits="userSpaceOnUse" x1="208.2656" y1="162.0601" x2="202.167" y2="162.0601" gradientTransform="matrix(0.75 0 0 -0.75 118.6171 345.1066)">
		<stop  offset="0" style="stop-color:#B6B6B6"/>
		<stop  offset="0.15" style="stop-color:#EFEFEF"/>
		<stop  offset="0.25" style="stop-color:#F6F6F6"/>
		<stop  offset="0.44" style="stop-color:#D0D0D0"/>
		<stop  offset="0.6" style="stop-color:#B9B9B9"/>
		<stop  offset="0.8" style="stop-color:#9C9C9C"/>
		<stop  offset="0.97" style="stop-color:#8F8F8F"/>
		<stop  offset="1" style="stop-color:#BEBEBE"/>
	</linearGradient>
	<path fill="url(#SVGID_17_)" d="M272.535,194.129c1.5,0,2.281,1.418,2.281,3.227l-0.031,52.273c0,2.25-0.992,3.367-2.258,3.367
		c-1.492-0.367-2.285-1.465-2.285-3.27l0.043-52.598c0-1.5,0.98-3,2.242-3H272.535z"/>
	
		<linearGradient id="SVGID_18_" gradientUnits="userSpaceOnUse" x1="208.2637" y1="162.0601" x2="202.165" y2="162.0601" gradientTransform="matrix(0.75 0 0 -0.75 143.6102 345.1066)">
		<stop  offset="0" style="stop-color:#B6B6B6"/>
		<stop  offset="0.15" style="stop-color:#EFEFEF"/>
		<stop  offset="0.25" style="stop-color:#F6F6F6"/>
		<stop  offset="0.44" style="stop-color:#D0D0D0"/>
		<stop  offset="0.6" style="stop-color:#B9B9B9"/>
		<stop  offset="0.8" style="stop-color:#9C9C9C"/>
		<stop  offset="0.97" style="stop-color:#8F8F8F"/>
		<stop  offset="1" style="stop-color:#BEBEBE"/>
	</linearGradient>
	<path fill="url(#SVGID_18_)" d="M297.531,194.129c1.5,0,2.277,1.418,2.277,3.227l-0.027,52.273c0,2.25-0.996,3.367-2.258,3.367
		c-1.492-0.367-2.289-1.465-2.289-3.27l0.047-52.598c0-1.5,0.977-3,2.242-3H297.531z"/>
	
		<linearGradient id="SVGID_19_" gradientUnits="userSpaceOnUse" x1="208.2661" y1="162.0601" x2="202.1616" y2="162.0601" gradientTransform="matrix(0.75 0 0 -0.75 168.6044 345.1066)">
		<stop  offset="0" style="stop-color:#B6B6B6"/>
		<stop  offset="0.15" style="stop-color:#EFEFEF"/>
		<stop  offset="0.25" style="stop-color:#F6F6F6"/>
		<stop  offset="0.44" style="stop-color:#D0D0D0"/>
		<stop  offset="0.6" style="stop-color:#B9B9B9"/>
		<stop  offset="0.8" style="stop-color:#9C9C9C"/>
		<stop  offset="0.97" style="stop-color:#8F8F8F"/>
		<stop  offset="1" style="stop-color:#BEBEBE"/>
	</linearGradient>
	<path fill="url(#SVGID_19_)" d="M322.523,194.129c1.5,0,2.281,1.418,2.281,3.227l-0.031,52.273c0,2.25-0.996,3.367-2.258,3.367
		c-1.492-0.367-2.289-1.465-2.289-3.27l0.047-52.598c0-1.5,0.977-3,2.242-3H322.523z"/>
	
		<linearGradient id="SVGID_20_" gradientUnits="userSpaceOnUse" x1="373.687" y1="197.8472" x2="202.2241" y2="197.8472" gradientTransform="matrix(0.75 0 0 -0.75 44.0262 344.5079)">
		<stop  offset="0" style="stop-color:#B6B6B6"/>
		<stop  offset="0.15" style="stop-color:#EFEFEF"/>
		<stop  offset="0.25" style="stop-color:#F6F6F6"/>
		<stop  offset="0.44" style="stop-color:#D0D0D0"/>
		<stop  offset="0.6" style="stop-color:#B9B9B9"/>
		<stop  offset="0.8" style="stop-color:#9C9C9C"/>
		<stop  offset="0.97" style="stop-color:#8F8F8F"/>
		<stop  offset="1" style="stop-color:#BEBEBE"/>
	</linearGradient>
	<path fill="url(#SVGID_20_)" d="M197.945,193.531h123.75c1.5,0,2.598,0.953,2.598,2.211c-0.348,1.539-1.102,2.695-2.363,2.695
		l-123.984,0.344c-1.5,0-2.25-1.367-2.25-2.625c0-1.875,1.004-2.691,2.27-2.691L197.945,193.531z"/>
	
		<linearGradient id="SVGID_21_" gradientUnits="userSpaceOnUse" x1="379.2212" y1="195.8066" x2="202.2227" y2="195.8066" gradientTransform="matrix(0.75 0 0 -0.75 40.7543 399.7882)">
		<stop  offset="0" style="stop-color:#A7ACAD"/>
		<stop  offset="0.15" style="stop-color:#DCE2E4"/>
		<stop  offset="0.25" style="stop-color:#ECEFF0"/>
		<stop  offset="0.44" style="stop-color:#BFC4C6"/>
		<stop  offset="0.6" style="stop-color:#AAAEB0"/>
		<stop  offset="0.8" style="stop-color:#8F9394"/>
		<stop  offset="0.97" style="stop-color:#828687"/>
		<stop  offset="1" style="stop-color:#AEB2B4"/>
	</linearGradient>
	<path fill="url(#SVGID_21_)" d="M325.171,248.809v8.25h-132.75v-8.25H325.171z"/>
	
		<linearGradient id="SVGID_22_" gradientUnits="userSpaceOnUse" x1="379.2212" y1="195.8066" x2="202.2227" y2="195.8066" gradientTransform="matrix(0.75 0 0 -0.75 40.7543 592.299)">
		<stop  offset="0" style="stop-color:#8C9192"/>
		<stop  offset="0.15" style="stop-color:#BDC3C4"/>
		<stop  offset="0.25" style="stop-color:#DCDEDF"/>
		<stop  offset="0.44" style="stop-color:#A1A6A7"/>
		<stop  offset="0.6" style="stop-color:#8F9394"/>
		<stop  offset="0.8" style="stop-color:#787C7C"/>
		<stop  offset="0.97" style="stop-color:#6D7172"/>
		<stop  offset="1" style="stop-color:#929798"/>
	</linearGradient>
	<path fill="url(#SVGID_22_)" d="M325.171,441.32v8.25h-132.75v-8.25H325.171z"/>
	
		<linearGradient id="SVGID_23_" gradientUnits="userSpaceOnUse" x1="208.2666" y1="162.0596" x2="202.1621" y2="162.0596" gradientTransform="matrix(0.75 0 0 -0.75 43.6361 533.8986)">
		<stop  offset="0" style="stop-color:#B6B6B6"/>
		<stop  offset="0.15" style="stop-color:#EFEFEF"/>
		<stop  offset="0.25" style="stop-color:#F6F6F6"/>
		<stop  offset="0.44" style="stop-color:#D0D0D0"/>
		<stop  offset="0.6" style="stop-color:#B9B9B9"/>
		<stop  offset="0.8" style="stop-color:#9C9C9C"/>
		<stop  offset="0.97" style="stop-color:#8F8F8F"/>
		<stop  offset="1" style="stop-color:#BEBEBE"/>
	</linearGradient>
	<path fill="url(#SVGID_23_)" d="M197.555,382.921c1.5,0,2.281,1.418,2.281,3.227l-0.031,52.273c0,2.25-0.992,3.367-2.258,3.367
		c-1.492-0.367-2.289-1.465-2.289-3.273l0.047-52.594c0-1.5,0.98-3,2.242-3H197.555z"/>
	
		<linearGradient id="SVGID_24_" gradientUnits="userSpaceOnUse" x1="208.2637" y1="162.0596" x2="202.165" y2="162.0596" gradientTransform="matrix(0.75 0 0 -0.75 68.6298 533.8986)">
		<stop  offset="0" style="stop-color:#B6B6B6"/>
		<stop  offset="0.15" style="stop-color:#EFEFEF"/>
		<stop  offset="0.25" style="stop-color:#F6F6F6"/>
		<stop  offset="0.44" style="stop-color:#D0D0D0"/>
		<stop  offset="0.6" style="stop-color:#B9B9B9"/>
		<stop  offset="0.8" style="stop-color:#9C9C9C"/>
		<stop  offset="0.97" style="stop-color:#8F8F8F"/>
		<stop  offset="1" style="stop-color:#BEBEBE"/>
	</linearGradient>
	<path fill="url(#SVGID_24_)" d="M222.547,382.921c1.5,0,2.281,1.418,2.281,3.227l-0.031,52.273c0,2.25-0.992,3.367-2.254,3.367
		c-1.496-0.367-2.289-1.465-2.289-3.273l0.043-52.594c0-1.5,0.98-3,2.246-3H222.547z"/>
	
		<linearGradient id="SVGID_25_" gradientUnits="userSpaceOnUse" x1="208.2646" y1="162.0596" x2="202.165" y2="162.0596" gradientTransform="matrix(0.75 0 0 -0.75 92.5634 533.8986)">
		<stop  offset="0" style="stop-color:#B6B6B6"/>
		<stop  offset="0.15" style="stop-color:#EFEFEF"/>
		<stop  offset="0.25" style="stop-color:#F6F6F6"/>
		<stop  offset="0.44" style="stop-color:#D0D0D0"/>
		<stop  offset="0.6" style="stop-color:#B9B9B9"/>
		<stop  offset="0.8" style="stop-color:#9C9C9C"/>
		<stop  offset="0.97" style="stop-color:#8F8F8F"/>
		<stop  offset="1" style="stop-color:#BEBEBE"/>
	</linearGradient>
	<path fill="url(#SVGID_25_)" d="M246.48,382.921c1.5,0,2.281,1.418,2.281,3.227l-0.031,52.273c0,2.25-0.992,3.367-2.254,3.367
		c-1.496-0.367-2.289-1.465-2.289-3.273l0.043-52.594c0-1.5,0.98-3,2.246-3H246.48z"/>
	
		<linearGradient id="SVGID_26_" gradientUnits="userSpaceOnUse" x1="208.2656" y1="162.0596" x2="202.167" y2="162.0596" gradientTransform="matrix(0.75 0 0 -0.75 118.6171 533.8986)">
		<stop  offset="0" style="stop-color:#B6B6B6"/>
		<stop  offset="0.15" style="stop-color:#EFEFEF"/>
		<stop  offset="0.25" style="stop-color:#F6F6F6"/>
		<stop  offset="0.44" style="stop-color:#D0D0D0"/>
		<stop  offset="0.6" style="stop-color:#B9B9B9"/>
		<stop  offset="0.8" style="stop-color:#9C9C9C"/>
		<stop  offset="0.97" style="stop-color:#8F8F8F"/>
		<stop  offset="1" style="stop-color:#BEBEBE"/>
	</linearGradient>
	<path fill="url(#SVGID_26_)" d="M272.535,382.921c1.5,0,2.281,1.418,2.281,3.227l-0.031,52.273c0,2.25-0.992,3.367-2.258,3.367
		c-1.492-0.367-2.285-1.465-2.285-3.273l0.043-52.594c0-1.5,0.98-3,2.242-3H272.535z"/>
	
		<linearGradient id="SVGID_27_" gradientUnits="userSpaceOnUse" x1="208.2637" y1="162.0596" x2="202.165" y2="162.0596" gradientTransform="matrix(0.75 0 0 -0.75 143.6102 533.8986)">
		<stop  offset="0" style="stop-color:#B6B6B6"/>
		<stop  offset="0.15" style="stop-color:#EFEFEF"/>
		<stop  offset="0.25" style="stop-color:#F6F6F6"/>
		<stop  offset="0.44" style="stop-color:#D0D0D0"/>
		<stop  offset="0.6" style="stop-color:#B9B9B9"/>
		<stop  offset="0.8" style="stop-color:#9C9C9C"/>
		<stop  offset="0.97" style="stop-color:#8F8F8F"/>
		<stop  offset="1" style="stop-color:#BEBEBE"/>
	</linearGradient>
	<path fill="url(#SVGID_27_)" d="M297.531,382.921c1.5,0,2.277,1.418,2.277,3.227l-0.027,52.273c0,2.25-0.996,3.367-2.258,3.367
		c-1.492-0.367-2.289-1.465-2.289-3.273l0.047-52.594c0-1.5,0.977-3,2.242-3H297.531z"/>
	
		<linearGradient id="SVGID_28_" gradientUnits="userSpaceOnUse" x1="208.2661" y1="162.0596" x2="202.1616" y2="162.0596" gradientTransform="matrix(0.75 0 0 -0.75 168.6044 533.8986)">
		<stop  offset="0" style="stop-color:#B6B6B6"/>
		<stop  offset="0.15" style="stop-color:#EFEFEF"/>
		<stop  offset="0.25" style="stop-color:#F6F6F6"/>
		<stop  offset="0.44" style="stop-color:#D0D0D0"/>
		<stop  offset="0.6" style="stop-color:#B9B9B9"/>
		<stop  offset="0.8" style="stop-color:#9C9C9C"/>
		<stop  offset="0.97" style="stop-color:#8F8F8F"/>
		<stop  offset="1" style="stop-color:#BEBEBE"/>
	</linearGradient>
	<path fill="url(#SVGID_28_)" d="M322.523,382.921c1.5,0,2.281,1.418,2.281,3.227l-0.031,52.273c0,2.25-0.996,3.367-2.258,3.367
		c-1.492-0.367-2.289-1.465-2.289-3.273l0.047-52.594c0-1.5,0.977-3,2.242-3H322.523z"/>
	
		<linearGradient id="SVGID_29_" gradientUnits="userSpaceOnUse" x1="373.687" y1="197.8472" x2="202.2241" y2="197.8472" gradientTransform="matrix(0.75 0 0 -0.75 44.0262 533.299)">
		<stop  offset="0" style="stop-color:#B6B6B6"/>
		<stop  offset="0.15" style="stop-color:#EFEFEF"/>
		<stop  offset="0.25" style="stop-color:#F6F6F6"/>
		<stop  offset="0.44" style="stop-color:#D0D0D0"/>
		<stop  offset="0.6" style="stop-color:#B9B9B9"/>
		<stop  offset="0.8" style="stop-color:#9C9C9C"/>
		<stop  offset="0.97" style="stop-color:#8F8F8F"/>
		<stop  offset="1" style="stop-color:#BEBEBE"/>
	</linearGradient>
	<path fill="url(#SVGID_29_)" d="M197.945,382.32h123.75c1.5,0,2.598,0.957,2.598,2.215c-0.348,1.535-1.102,2.691-2.363,2.691
		l-123.984,0.344c-1.5,0-2.25-1.363-2.25-2.621c0-1.879,1.004-2.691,2.27-2.691L197.945,382.32z"/>
	
		<linearGradient id="SVGID_30_" gradientUnits="userSpaceOnUse" x1="379.2212" y1="195.8066" x2="202.2227" y2="195.8066" gradientTransform="matrix(0.75 0 0 -0.75 40.7543 588.5802)">
		<stop  offset="0" style="stop-color:#A7ACAD"/>
		<stop  offset="0.15" style="stop-color:#DCE2E4"/>
		<stop  offset="0.25" style="stop-color:#ECEFF0"/>
		<stop  offset="0.44" style="stop-color:#BFC4C6"/>
		<stop  offset="0.6" style="stop-color:#AAAEB0"/>
		<stop  offset="0.8" style="stop-color:#8F9394"/>
		<stop  offset="0.97" style="stop-color:#828687"/>
		<stop  offset="1" style="stop-color:#AEB2B4"/>
	</linearGradient>
	<path fill="url(#SVGID_30_)" d="M325.171,437.601v8.25h-132.75v-8.25H325.171z"/>
	
		<linearGradient id="SVGID_31_" gradientUnits="userSpaceOnUse" x1="379.2212" y1="195.8027" x2="202.2227" y2="195.8027" gradientTransform="matrix(0.75 0 0 -0.75 40.7543 497.9025)">
		<stop  offset="0" style="stop-color:#8C9192"/>
		<stop  offset="0.15" style="stop-color:#BDC3C4"/>
		<stop  offset="0.25" style="stop-color:#DCDEDF"/>
		<stop  offset="0.44" style="stop-color:#A1A6A7"/>
		<stop  offset="0.6" style="stop-color:#8F9394"/>
		<stop  offset="0.8" style="stop-color:#787C7C"/>
		<stop  offset="0.97" style="stop-color:#6D7172"/>
		<stop  offset="1" style="stop-color:#929798"/>
	</linearGradient>
	<path fill="url(#SVGID_31_)" d="M325.171,346.925v8.25h-132.75v-8.25H325.171z"/>
	
		<linearGradient id="SVGID_32_" gradientUnits="userSpaceOnUse" x1="208.2666" y1="162.0581" x2="202.1621" y2="162.0581" gradientTransform="matrix(0.75 0 0 -0.75 43.6361 439.5021)">
		<stop  offset="0" style="stop-color:#B6B6B6"/>
		<stop  offset="0.15" style="stop-color:#EFEFEF"/>
		<stop  offset="0.25" style="stop-color:#F6F6F6"/>
		<stop  offset="0.44" style="stop-color:#D0D0D0"/>
		<stop  offset="0.6" style="stop-color:#B9B9B9"/>
		<stop  offset="0.8" style="stop-color:#9C9C9C"/>
		<stop  offset="0.97" style="stop-color:#8F8F8F"/>
		<stop  offset="1" style="stop-color:#BEBEBE"/>
	</linearGradient>
	<path fill="url(#SVGID_32_)" d="M197.555,288.523c1.5,0,2.281,1.422,2.281,3.227l-0.031,52.273c0,2.25-0.992,3.371-2.258,3.371
		c-1.492-0.371-2.289-1.465-2.289-3.273l0.047-52.598c0-1.5,0.98-3,2.242-3H197.555z"/>
	
		<linearGradient id="SVGID_33_" gradientUnits="userSpaceOnUse" x1="208.2637" y1="162.0581" x2="202.165" y2="162.0581" gradientTransform="matrix(0.75 0 0 -0.75 68.6298 439.5021)">
		<stop  offset="0" style="stop-color:#B6B6B6"/>
		<stop  offset="0.15" style="stop-color:#EFEFEF"/>
		<stop  offset="0.25" style="stop-color:#F6F6F6"/>
		<stop  offset="0.44" style="stop-color:#D0D0D0"/>
		<stop  offset="0.6" style="stop-color:#B9B9B9"/>
		<stop  offset="0.8" style="stop-color:#9C9C9C"/>
		<stop  offset="0.97" style="stop-color:#8F8F8F"/>
		<stop  offset="1" style="stop-color:#BEBEBE"/>
	</linearGradient>
	<path fill="url(#SVGID_33_)" d="M222.547,288.523c1.5,0,2.281,1.422,2.281,3.227l-0.031,52.273c0,2.25-0.992,3.371-2.254,3.371
		c-1.496-0.371-2.289-1.465-2.289-3.273l0.043-52.598c0-1.5,0.98-3,2.246-3H222.547z"/>
	
		<linearGradient id="SVGID_34_" gradientUnits="userSpaceOnUse" x1="208.2646" y1="162.0581" x2="202.165" y2="162.0581" gradientTransform="matrix(0.75 0 0 -0.75 92.5634 439.5021)">
		<stop  offset="0" style="stop-color:#B6B6B6"/>
		<stop  offset="0.15" style="stop-color:#EFEFEF"/>
		<stop  offset="0.25" style="stop-color:#F6F6F6"/>
		<stop  offset="0.44" style="stop-color:#D0D0D0"/>
		<stop  offset="0.6" style="stop-color:#B9B9B9"/>
		<stop  offset="0.8" style="stop-color:#9C9C9C"/>
		<stop  offset="0.97" style="stop-color:#8F8F8F"/>
		<stop  offset="1" style="stop-color:#BEBEBE"/>
	</linearGradient>
	<path fill="url(#SVGID_34_)" d="M246.48,288.523c1.5,0,2.281,1.422,2.281,3.227l-0.031,52.273c0,2.25-0.992,3.371-2.254,3.371
		c-1.496-0.371-2.289-1.465-2.289-3.273l0.043-52.598c0-1.5,0.98-3,2.246-3H246.48z"/>
	
		<linearGradient id="SVGID_35_" gradientUnits="userSpaceOnUse" x1="208.2656" y1="162.0581" x2="202.167" y2="162.0581" gradientTransform="matrix(0.75 0 0 -0.75 118.6171 439.5021)">
		<stop  offset="0" style="stop-color:#B6B6B6"/>
		<stop  offset="0.15" style="stop-color:#EFEFEF"/>
		<stop  offset="0.25" style="stop-color:#F6F6F6"/>
		<stop  offset="0.44" style="stop-color:#D0D0D0"/>
		<stop  offset="0.6" style="stop-color:#B9B9B9"/>
		<stop  offset="0.8" style="stop-color:#9C9C9C"/>
		<stop  offset="0.97" style="stop-color:#8F8F8F"/>
		<stop  offset="1" style="stop-color:#BEBEBE"/>
	</linearGradient>
	<path fill="url(#SVGID_35_)" d="M272.535,288.523c1.5,0,2.281,1.422,2.281,3.227l-0.031,52.273c0,2.25-0.992,3.371-2.258,3.371
		c-1.492-0.371-2.285-1.465-2.285-3.273l0.043-52.598c0-1.5,0.98-3,2.242-3H272.535z"/>
	
		<linearGradient id="SVGID_36_" gradientUnits="userSpaceOnUse" x1="208.2637" y1="162.0581" x2="202.165" y2="162.0581" gradientTransform="matrix(0.75 0 0 -0.75 143.6102 439.5021)">
		<stop  offset="0" style="stop-color:#B6B6B6"/>
		<stop  offset="0.15" style="stop-color:#EFEFEF"/>
		<stop  offset="0.25" style="stop-color:#F6F6F6"/>
		<stop  offset="0.44" style="stop-color:#D0D0D0"/>
		<stop  offset="0.6" style="stop-color:#B9B9B9"/>
		<stop  offset="0.8" style="stop-color:#9C9C9C"/>
		<stop  offset="0.97" style="stop-color:#8F8F8F"/>
		<stop  offset="1" style="stop-color:#BEBEBE"/>
	</linearGradient>
	<path fill="url(#SVGID_36_)" d="M297.531,288.523c1.5,0,2.277,1.422,2.277,3.227l-0.027,52.273c0,2.25-0.996,3.371-2.258,3.371
		c-1.492-0.371-2.289-1.465-2.289-3.273l0.047-52.598c0-1.5,0.977-3,2.242-3H297.531z"/>
	
		<linearGradient id="SVGID_37_" gradientUnits="userSpaceOnUse" x1="208.2661" y1="162.0581" x2="202.1616" y2="162.0581" gradientTransform="matrix(0.75 0 0 -0.75 168.6044 439.5021)">
		<stop  offset="0" style="stop-color:#B6B6B6"/>
		<stop  offset="0.15" style="stop-color:#EFEFEF"/>
		<stop  offset="0.25" style="stop-color:#F6F6F6"/>
		<stop  offset="0.44" style="stop-color:#D0D0D0"/>
		<stop  offset="0.6" style="stop-color:#B9B9B9"/>
		<stop  offset="0.8" style="stop-color:#9C9C9C"/>
		<stop  offset="0.97" style="stop-color:#8F8F8F"/>
		<stop  offset="1" style="stop-color:#BEBEBE"/>
	</linearGradient>
	<path fill="url(#SVGID_37_)" d="M322.523,288.523c1.5,0,2.281,1.422,2.281,3.227l-0.031,52.273c0,2.25-0.996,3.371-2.258,3.371
		c-1.492-0.371-2.289-1.465-2.289-3.273l0.047-52.598c0-1.5,0.977-3,2.242-3H322.523z"/>
	
		<linearGradient id="SVGID_38_" gradientUnits="userSpaceOnUse" x1="373.687" y1="197.8501" x2="202.2241" y2="197.8501" gradientTransform="matrix(0.75 0 0 -0.75 44.0262 438.9034)">
		<stop  offset="0" style="stop-color:#B6B6B6"/>
		<stop  offset="0.15" style="stop-color:#EFEFEF"/>
		<stop  offset="0.25" style="stop-color:#F6F6F6"/>
		<stop  offset="0.44" style="stop-color:#D0D0D0"/>
		<stop  offset="0.6" style="stop-color:#B9B9B9"/>
		<stop  offset="0.8" style="stop-color:#9C9C9C"/>
		<stop  offset="0.97" style="stop-color:#8F8F8F"/>
		<stop  offset="1" style="stop-color:#BEBEBE"/>
	</linearGradient>
	<path fill="url(#SVGID_38_)" d="M197.945,287.925h123.75c1.5,0,2.598,0.957,2.598,2.215c-0.348,1.535-1.102,2.691-2.363,2.691
		l-123.984,0.344c-1.5,0-2.25-1.363-2.25-2.621c0-1.879,1.004-2.695,2.27-2.695L197.945,287.925z"/>
	
		<linearGradient id="SVGID_39_" gradientUnits="userSpaceOnUse" x1="379.2212" y1="195.8047" x2="202.2227" y2="195.8047" gradientTransform="matrix(0.75 0 0 -0.75 40.7543 494.1837)">
		<stop  offset="0" style="stop-color:#A7ACAD"/>
		<stop  offset="0.15" style="stop-color:#DCE2E4"/>
		<stop  offset="0.25" style="stop-color:#ECEFF0"/>
		<stop  offset="0.44" style="stop-color:#BFC4C6"/>
		<stop  offset="0.6" style="stop-color:#AAAEB0"/>
		<stop  offset="0.8" style="stop-color:#8F9394"/>
		<stop  offset="0.97" style="stop-color:#828687"/>
		<stop  offset="1" style="stop-color:#AEB2B4"/>
	</linearGradient>
	<path fill="url(#SVGID_39_)" d="M325.171,343.207v8.25h-132.75v-8.25H325.171z"/>
	
		<linearGradient id="SVGID_40_" gradientUnits="userSpaceOnUse" x1="414.2261" y1="150.3057" x2="202.2271" y2="150.3056" gradientTransform="matrix(0.75 0 0 -0.75 63.974 634.5021)">
		<stop  offset="0" style="stop-color:#A2AFAF"/>
		<stop  offset="0.15" style="stop-color:#D7E6E6"/>
		<stop  offset="0.25" style="stop-color:#E9F1F1"/>
		<stop  offset="0.44" style="stop-color:#B9C7C7"/>
		<stop  offset="0.6" style="stop-color:#A5B1B1"/>
		<stop  offset="0.8" style="stop-color:#8B9595"/>
		<stop  offset="0.97" style="stop-color:#7F8989"/>
		<stop  offset="1" style="stop-color:#A9B6B6"/>
	</linearGradient>
	<path fill="url(#SVGID_40_)" d="M374.644,483.523v74.25c0,0.75-1.332,1.977-2.598,1.977l-154.152,0.273
		c-1.5,0-2.25-1.328-2.25-2.594v-73.906H374.644z"/>
</g>
</svg>
