<?xml version="1.0" encoding="utf-8"?>
<!-- Generator: Adobe Illustrator 16.0.0, SVG Export Plug-In . SVG Version: 6.00 Build 0)  -->
<!DOCTYPE svg PUBLIC "-//W3C//DTD SVG 1.1//EN" "http://www.w3.org/Graphics/SVG/1.1/DTD/svg11.dtd">
<svg preserveAspectRatio="none"   version="1.1" id="图层_1" xmlns="http://www.w3.org/2000/svg" xmlns:xlink="http://www.w3.org/1999/xlink" x="0px" y="0px"
	 width="372.402px" height="555.399px" viewBox="97.25 5.721 372.402 555.399" enable-background="new 97.25 5.721 372.402 555.399"
	 xml:space="preserve">
<g id="surface16">
	
		<linearGradient id="SVGID_1_" gradientUnits="userSpaceOnUse" x1="7.3018" y1="262.7051" x2="7.3018" y2="365.7051" gradientTransform="matrix(0 -0.75 -0.75 0 520.1056 207.5861)">
		<stop  offset="0" style="stop-color:#8B8E91"/>
		<stop  offset="0.15" style="stop-color:#C2C5C8"/>
		<stop  offset="0.25" style="stop-color:#DEDFE1"/>
		<stop  offset="0.52" style="stop-color:#A5A8AB"/>
		<stop  offset="0.69" style="stop-color:#939598"/>
		<stop  offset="0.8" style="stop-color:#8A8C8F"/>
		<stop  offset="0.92" style="stop-color:#828487"/>
		<stop  offset="1" style="stop-color:#96999C"/>
	</linearGradient>
	<path fill="url(#SVGID_1_)" d="M245.828,206.609v-9h77.25v9H245.828z"/>
	
		<linearGradient id="SVGID_2_" gradientUnits="userSpaceOnUse" x1="11.3037" y1="217.7031" x2="11.3037" y2="365.7021" gradientTransform="matrix(0 -0.75 -0.75 0 501.1154 199.2325)">
		<stop  offset="0" style="stop-color:#8B8E91"/>
		<stop  offset="0.15" style="stop-color:#C2C5C8"/>
		<stop  offset="0.25" style="stop-color:#DEDFE1"/>
		<stop  offset="0.52" style="stop-color:#A5A8AB"/>
		<stop  offset="0.69" style="stop-color:#939598"/>
		<stop  offset="0.8" style="stop-color:#8A8C8F"/>
		<stop  offset="0.92" style="stop-color:#828487"/>
		<stop  offset="1" style="stop-color:#96999C"/>
	</linearGradient>
	<path fill="url(#SVGID_2_)" d="M226.84,195.254v-12h111v12c0,1.5-0.977,3-2.441,3H229.84c-1.5,0-3-1.188-3-2.656V195.254z"/>
	
		<linearGradient id="SVGID_3_" gradientUnits="userSpaceOnUse" x1="80.8008" y1="211.7021" x2="80.8008" y2="365.7012" gradientTransform="matrix(0 -0.75 -0.75 0 498.9904 177.9757)">
		<stop  offset="0" style="stop-color:#8B8E91"/>
		<stop  offset="0.15" style="stop-color:#C2C5C8"/>
		<stop  offset="0.25" style="stop-color:#DEDFE1"/>
		<stop  offset="0.52" style="stop-color:#A5A8AB"/>
		<stop  offset="0.69" style="stop-color:#939598"/>
		<stop  offset="0.8" style="stop-color:#8A8C8F"/>
		<stop  offset="0.92" style="stop-color:#828487"/>
		<stop  offset="1" style="stop-color:#96999C"/>
	</linearGradient>
	<path fill="url(#SVGID_3_)" d="M224.715,177V57.75h115.5V177H224.715z"/>
	
		<linearGradient id="SVGID_4_" gradientUnits="userSpaceOnUse" x1="36.7129" y1="211.5195" x2="36.7129" y2="365.707" gradientTransform="matrix(0 -0.75 -0.75 0 498.9904 59.8107)">
		<stop  offset="0" style="stop-color:#8B8E91"/>
		<stop  offset="0.15" style="stop-color:#C2C5C8"/>
		<stop  offset="0.25" style="stop-color:#DEDFE1"/>
		<stop  offset="0.52" style="stop-color:#A5A8AB"/>
		<stop  offset="0.69" style="stop-color:#939598"/>
		<stop  offset="0.8" style="stop-color:#8A8C8F"/>
		<stop  offset="0.92" style="stop-color:#828487"/>
		<stop  offset="1" style="stop-color:#96999C"/>
	</linearGradient>
	<path fill="url(#SVGID_4_)" d="M224.711,58.832v-42c0,0,0-10.863,57.82-11.109c57.679-0.141,57.82,10.789,57.82,10.789
		l-0.141,42.32H224.711z"/>
	
		<linearGradient id="SVGID_5_" gradientUnits="userSpaceOnUse" x1="2.8047" y1="211.7041" x2="2.8047" y2="365.7031" gradientTransform="matrix(0 -0.75 -0.75 0 498.9913 60.2404)">
		<stop  offset="0" style="stop-color:#75787B"/>
		<stop  offset="0.15" style="stop-color:#A8ABAF"/>
		<stop  offset="0.25" style="stop-color:#D2D3D5"/>
		<stop  offset="0.52" style="stop-color:#8B8F93"/>
		<stop  offset="0.69" style="stop-color:#7C7F82"/>
		<stop  offset="0.8" style="stop-color:#74777A"/>
		<stop  offset="0.92" style="stop-color:#6E7073"/>
		<stop  offset="1" style="stop-color:#7F8285"/>
	</linearGradient>
	<path fill="url(#SVGID_5_)" d="M224.715,59.262v-2.25h115.5v2.25H224.715z"/>
	
		<linearGradient id="SVGID_6_" gradientUnits="userSpaceOnUse" x1="371.3052" y1="203.2393" x2="371.3052" y2="365.7021" gradientTransform="matrix(0 0.75 -0.75 0 495.8077 -98.256)">
		<stop  offset="0" style="stop-color:#75787B"/>
		<stop  offset="0.15" style="stop-color:#A8ABAF"/>
		<stop  offset="0.25" style="stop-color:#D2D3D5"/>
		<stop  offset="0.52" style="stop-color:#8B8F93"/>
		<stop  offset="0.69" style="stop-color:#7C7F82"/>
		<stop  offset="0.8" style="stop-color:#74777A"/>
		<stop  offset="0.92" style="stop-color:#6E7073"/>
		<stop  offset="1" style="stop-color:#7F8285"/>
	</linearGradient>
	<path fill="url(#SVGID_6_)" d="M221.531,178.211v4.5c0,0.75,0.531,1.066,1.203,1.066l119.546-0.316c0.75,0,1.098-0.227,1.098-0.898
		l-0.348-4.352c0-0.75-0.238-1.543-0.91-1.543l-119.089,0.043c-0.75,0-1.5,0.5-1.5,1.172V178.211z"/>
	
		<linearGradient id="SVGID_7_" gradientUnits="userSpaceOnUse" x1="369.5864" y1="203.6182" x2="369.5864" y2="365.7012" gradientTransform="matrix(0 0.75 -0.75 0 495.9513 -95.465)">
		<stop  offset="0" style="stop-color:#8B8E91"/>
		<stop  offset="0.15" style="stop-color:#C2C5C8"/>
		<stop  offset="0.25" style="stop-color:#DEDFE1"/>
		<stop  offset="0.52" style="stop-color:#A5A8AB"/>
		<stop  offset="0.69" style="stop-color:#939598"/>
		<stop  offset="0.8" style="stop-color:#8A8C8F"/>
		<stop  offset="0.92" style="stop-color:#828487"/>
		<stop  offset="1" style="stop-color:#96999C"/>
	</linearGradient>
	<path fill="url(#SVGID_7_)" d="M221.676,181.004v1.5c0,0.75,0.539,1.27,1.207,1.27l118.792,0.23c0.75,0,1.563-0.934,1.563-1.801
		l-0.063-1.199c0-0.75-0.516-1.559-1.184-1.559l-118.816,0.059c-0.75,0-1.5,0.645-1.5,1.512V181.004z"/>
	<path fill="#B6BCBD" d="M322.828,171.813v-108h29.25v108H322.828z"/>
	
		<linearGradient id="SVGID_8_" gradientUnits="userSpaceOnUse" x1="69.9912" y1="360.5562" x2="69.9912" y2="365.7534" gradientTransform="matrix(0 -0.75 -0.75 0 524.9044 164.9669)">
		<stop  offset="0" style="stop-color:#8B8E91"/>
		<stop  offset="0.15" style="stop-color:#C2C5C8"/>
		<stop  offset="0.25" style="stop-color:#DEDFE1"/>
		<stop  offset="0.52" style="stop-color:#A5A8AB"/>
		<stop  offset="0.69" style="stop-color:#939598"/>
		<stop  offset="0.8" style="stop-color:#8A8C8F"/>
		<stop  offset="0.92" style="stop-color:#828487"/>
		<stop  offset="1" style="stop-color:#96999C"/>
	</linearGradient>
	<path fill="url(#SVGID_8_)" d="M250.625,163.238V61.988c0-0.75,0.508-1.031,1.176-1.031l1.824,0.281c0,0,0.863,0.164,0.863,0.707
		l-0.113,101.293c0,0-0.43,0.75-1.102,0.75h-1.148c-0.75,0-1.535-0.41-1.535-0.953L250.625,163.238z"/>
	
		<linearGradient id="SVGID_9_" gradientUnits="userSpaceOnUse" x1="69.9912" y1="360.5542" x2="69.9912" y2="365.7524" gradientTransform="matrix(0 -0.75 -0.75 0 536.2628 164.9669)">
		<stop  offset="0" style="stop-color:#8B8E91"/>
		<stop  offset="0.15" style="stop-color:#C2C5C8"/>
		<stop  offset="0.25" style="stop-color:#DEDFE1"/>
		<stop  offset="0.52" style="stop-color:#A5A8AB"/>
		<stop  offset="0.69" style="stop-color:#939598"/>
		<stop  offset="0.8" style="stop-color:#8A8C8F"/>
		<stop  offset="0.92" style="stop-color:#828487"/>
		<stop  offset="1" style="stop-color:#96999C"/>
	</linearGradient>
	<path fill="url(#SVGID_9_)" d="M261.984,163.238V61.988c0-0.75,0.508-1.031,1.176-1.031l1.824,0.281c0,0,0.863,0.164,0.863,0.707
		l-0.113,101.293c0,0-0.43,0.75-1.102,0.75h-1.148c-0.75,0-1.535-0.41-1.535-0.953L261.984,163.238z"/>
	
		<linearGradient id="SVGID_10_" gradientUnits="userSpaceOnUse" x1="69.9912" y1="360.5532" x2="69.9912" y2="365.7563" gradientTransform="matrix(0 -0.75 -0.75 0 547.6212 164.9669)">
		<stop  offset="0" style="stop-color:#8B8E91"/>
		<stop  offset="0.15" style="stop-color:#C2C5C8"/>
		<stop  offset="0.25" style="stop-color:#DEDFE1"/>
		<stop  offset="0.52" style="stop-color:#A5A8AB"/>
		<stop  offset="0.69" style="stop-color:#939598"/>
		<stop  offset="0.8" style="stop-color:#8A8C8F"/>
		<stop  offset="0.92" style="stop-color:#828487"/>
		<stop  offset="1" style="stop-color:#96999C"/>
	</linearGradient>
	<path fill="url(#SVGID_10_)" d="M273.344,163.238V61.988c0-0.75,0.508-1.031,1.176-1.031l1.824,0.281c0,0,0.863,0.164,0.863,0.707
		l-0.113,101.293c0,0-0.43,0.75-1.102,0.75h-1.148c-0.75,0-1.539-0.41-1.539-0.953L273.344,163.238z"/>
	
		<linearGradient id="SVGID_11_" gradientUnits="userSpaceOnUse" x1="69.9912" y1="360.5522" x2="69.9912" y2="365.7554" gradientTransform="matrix(0 -0.75 -0.75 0 558.9806 164.9669)">
		<stop  offset="0" style="stop-color:#8B8E91"/>
		<stop  offset="0.15" style="stop-color:#C2C5C8"/>
		<stop  offset="0.25" style="stop-color:#DEDFE1"/>
		<stop  offset="0.52" style="stop-color:#A5A8AB"/>
		<stop  offset="0.69" style="stop-color:#939598"/>
		<stop  offset="0.8" style="stop-color:#8A8C8F"/>
		<stop  offset="0.92" style="stop-color:#828487"/>
		<stop  offset="1" style="stop-color:#96999C"/>
	</linearGradient>
	<path fill="url(#SVGID_11_)" d="M284.703,163.238V61.988c0-0.75,0.504-1.031,1.176-1.031l1.824,0.281c0,0,0.863,0.164,0.863,0.707
		l-0.113,101.293c0,0-0.43,0.75-1.102,0.75h-1.148c-0.75,0-1.539-0.41-1.539-0.953L284.703,163.238z"/>
	
		<linearGradient id="SVGID_12_" gradientUnits="userSpaceOnUse" x1="69.9912" y1="360.5532" x2="69.9912" y2="365.7563" gradientTransform="matrix(0 -0.75 -0.75 0 570.34 164.9669)">
		<stop  offset="0" style="stop-color:#8B8E91"/>
		<stop  offset="0.15" style="stop-color:#C2C5C8"/>
		<stop  offset="0.25" style="stop-color:#DEDFE1"/>
		<stop  offset="0.52" style="stop-color:#A5A8AB"/>
		<stop  offset="0.69" style="stop-color:#939598"/>
		<stop  offset="0.8" style="stop-color:#8A8C8F"/>
		<stop  offset="0.92" style="stop-color:#828487"/>
		<stop  offset="1" style="stop-color:#96999C"/>
	</linearGradient>
	<path fill="url(#SVGID_12_)" d="M296.062,163.238V61.988c0-0.75,0.504-1.031,1.176-1.031l1.824,0.281c0,0,0.863,0.164,0.863,0.707
		l-0.113,101.293c0,0-0.43,0.75-1.102,0.75h-1.148c-0.75,0-1.539-0.41-1.539-0.953L296.062,163.238z"/>
	
		<linearGradient id="SVGID_13_" gradientUnits="userSpaceOnUse" x1="69.9912" y1="360.5571" x2="69.9912" y2="365.7554" gradientTransform="matrix(0 -0.75 -0.75 0 581.6984 164.9669)">
		<stop  offset="0" style="stop-color:#8B8E91"/>
		<stop  offset="0.15" style="stop-color:#C2C5C8"/>
		<stop  offset="0.25" style="stop-color:#DEDFE1"/>
		<stop  offset="0.52" style="stop-color:#A5A8AB"/>
		<stop  offset="0.69" style="stop-color:#939598"/>
		<stop  offset="0.8" style="stop-color:#8A8C8F"/>
		<stop  offset="0.92" style="stop-color:#828487"/>
		<stop  offset="1" style="stop-color:#96999C"/>
	</linearGradient>
	<path fill="url(#SVGID_13_)" d="M307.421,163.238V61.988c0-0.75,0.504-1.031,1.176-1.031l1.824,0.281c0,0,0.859,0.164,0.859,0.707
		l-0.109,101.293c0,0-0.434,0.75-1.102,0.75h-1.148c-0.75,0-1.539-0.41-1.539-0.953L307.421,163.238z"/>
	<path fill="#BEC4C5" d="M204.594,175.676v-59.25l20.25,6v46.5L204.594,175.676z"/>
	<path fill="#9CA0A2" d="M201.813,176.246v-60.75c0,0,0.273-0.625,0.605-0.625l3.145-0.125c0,0,0.395,0.395,0.395,0.73l0.355,60.77
		c0,0.75-0.625,0.75-0.961,0.75h-2.789c-0.75,0-0.75-0.242-0.75-0.578V176.246z"/>
	
		<linearGradient id="SVGID_14_" gradientUnits="userSpaceOnUse" x1="395.2261" y1="201.3018" x2="395.2261" y2="193.3018" gradientTransform="matrix(0.75 0 0 -0.75 -3.92 656.0773)">
		<stop  offset="0" style="stop-color:#BAC0C1"/>
		<stop  offset="0.15" style="stop-color:#F4FAFC"/>
		<stop  offset="0.25" style="stop-color:#F8FCFD"/>
		<stop  offset="0.44" style="stop-color:#D5DBDD"/>
		<stop  offset="0.6" style="stop-color:#BDC3C4"/>
		<stop  offset="0.8" style="stop-color:#A0A4A6"/>
		<stop  offset="0.97" style="stop-color:#929697"/>
		<stop  offset="1" style="stop-color:#C2C7C9"/>
	</linearGradient>
	<path fill="url(#SVGID_14_)" d="M147.75,505.101h289.5v6h-289.5V505.101z"/>
	
		<linearGradient id="SVGID_15_" gradientUnits="userSpaceOnUse" x1="229.2256" y1="29.3047" x2="202.2256" y2="29.3047" gradientTransform="matrix(0.75 0 0 -0.75 284.6268 442.0988)">
		<stop  offset="0" style="stop-color:#ADAEAE"/>
		<stop  offset="0.03" style="stop-color:#F7F8F8"/>
		<stop  offset="0.08" style="stop-color:#E2E3E3"/>
		<stop  offset="0.64" style="stop-color:#DEDFDF"/>
		<stop  offset="0.95" style="stop-color:#D9DADA"/>
		<stop  offset="1" style="stop-color:#A1A2A2"/>
	</linearGradient>
	<path fill="url(#SVGID_15_)" d="M436.296,291.121h20.25v258h-20.25V291.121z"/>
	
		<linearGradient id="SVGID_16_" gradientUnits="userSpaceOnUse" x1="229.2256" y1="107.8047" x2="202.2256" y2="107.8047" gradientTransform="matrix(0.75 0 0 -0.75 284.6268 442.0988)">
		<stop  offset="0" style="stop-color:#969B9C"/>
		<stop  offset="0.03" style="stop-color:#DEE3E4"/>
		<stop  offset="0.08" style="stop-color:#C4CACB"/>
		<stop  offset="0.64" style="stop-color:#C1C6C8"/>
		<stop  offset="0.95" style="stop-color:#BCC2C4"/>
		<stop  offset="1" style="stop-color:#8B8F91"/>
	</linearGradient>
	<path fill="url(#SVGID_16_)" d="M436.296,291.121h20.25v140.25h-20.25V291.121z"/>
	
		<linearGradient id="SVGID_17_" gradientUnits="userSpaceOnUse" x1="229.2266" y1="29.3027" x2="202.2266" y2="29.3027" gradientTransform="matrix(0.75 0 0 -0.75 -21.6388 442.0968)">
		<stop  offset="0" style="stop-color:#ADAEAE"/>
		<stop  offset="0.03" style="stop-color:#F7F8F8"/>
		<stop  offset="0.08" style="stop-color:#E2E3E3"/>
		<stop  offset="0.64" style="stop-color:#DEDFDF"/>
		<stop  offset="0.95" style="stop-color:#D9DADA"/>
		<stop  offset="1" style="stop-color:#A1A2A2"/>
	</linearGradient>
	<path fill="url(#SVGID_17_)" d="M130.031,291.121h20.25v258h-20.25V291.121z"/>
	
		<linearGradient id="SVGID_18_" gradientUnits="userSpaceOnUse" x1="229.2266" y1="107.8027" x2="202.2266" y2="107.8027" gradientTransform="matrix(0.75 0 0 -0.75 -21.6388 442.0968)">
		<stop  offset="0" style="stop-color:#969B9C"/>
		<stop  offset="0.03" style="stop-color:#DEE3E4"/>
		<stop  offset="0.08" style="stop-color:#C4CACB"/>
		<stop  offset="0.64" style="stop-color:#C1C6C8"/>
		<stop  offset="0.95" style="stop-color:#BCC2C4"/>
		<stop  offset="1" style="stop-color:#8B8F91"/>
	</linearGradient>
	<path fill="url(#SVGID_18_)" d="M130.031,291.121h20.25v140.25h-20.25V291.121z"/>
	
		<linearGradient id="SVGID_19_" gradientUnits="userSpaceOnUse" x1="233.2222" y1="170.8086" x2="202.2222" y2="170.8086" gradientTransform="matrix(0.75 0 0 -0.75 89.7548 636.3351)">
		<stop  offset="0" style="stop-color:#8C9192"/>
		<stop  offset="0.15" style="stop-color:#BDC3C4"/>
		<stop  offset="0.25" style="stop-color:#DCDEDF"/>
		<stop  offset="0.44" style="stop-color:#A1A6A7"/>
		<stop  offset="0.6" style="stop-color:#8F9394"/>
		<stop  offset="0.8" style="stop-color:#787C7C"/>
		<stop  offset="0.97" style="stop-color:#6D7172"/>
		<stop  offset="1" style="stop-color:#929798"/>
	</linearGradient>
	<path fill="url(#SVGID_19_)" d="M241.422,485.355h23.25v45.75h-23.25V485.355z"/>
	
		<linearGradient id="SVGID_20_" gradientUnits="userSpaceOnUse" x1="241.0801" y1="181.9365" x2="202.1611" y2="181.9365" gradientTransform="matrix(0.75 0 0 -0.75 86.8944 659.2657)">
		<stop  offset="0" style="stop-color:#BAC0C1"/>
		<stop  offset="0.15" style="stop-color:#F4FAFC"/>
		<stop  offset="0.25" style="stop-color:#F8FCFD"/>
		<stop  offset="0.44" style="stop-color:#D5DBDD"/>
		<stop  offset="0.6" style="stop-color:#BDC3C4"/>
		<stop  offset="0.8" style="stop-color:#A0A4A6"/>
		<stop  offset="0.97" style="stop-color:#929697"/>
		<stop  offset="1" style="stop-color:#C2C7C9"/>
	</linearGradient>
	<path fill="url(#SVGID_20_)" d="M238.563,522.539c0-7.5,6.488-14.359,14.547-14.359c7.953,0.109,14.594,6.547,14.594,14.621
		c0.109,7.988-6.535,14.648-14.594,14.648c-7.797,0.09-14.594-6.574-14.594-14.648L238.563,522.539z"/>
	<path fill="#BAC0C1" d="M242.77,522.984c0-6,4.617-10.578,10.359-10.578c5.391,0.078,10.391,4.664,10.391,10.414
		c0.25,5.414-4.652,10.43-10.391,10.43c-5.859,0.234-10.395-4.68-10.395-10.43L242.77,522.984z"/>
	
		<linearGradient id="SVGID_21_" gradientUnits="userSpaceOnUse" x1="233.2266" y1="170.8086" x2="202.2275" y2="170.8086" gradientTransform="matrix(0.75 0 0 -0.75 122.5677 636.3351)">
		<stop  offset="0" style="stop-color:#8C9192"/>
		<stop  offset="0.15" style="stop-color:#BDC3C4"/>
		<stop  offset="0.25" style="stop-color:#DCDEDF"/>
		<stop  offset="0.44" style="stop-color:#A1A6A7"/>
		<stop  offset="0.6" style="stop-color:#8F9394"/>
		<stop  offset="0.8" style="stop-color:#787C7C"/>
		<stop  offset="0.97" style="stop-color:#6D7172"/>
		<stop  offset="1" style="stop-color:#929798"/>
	</linearGradient>
	<path fill="url(#SVGID_21_)" d="M274.238,485.355h23.25v45.75h-23.25V485.355z"/>
	
		<linearGradient id="SVGID_22_" gradientUnits="userSpaceOnUse" x1="241.0752" y1="181.9346" x2="202.1631" y2="181.9346" gradientTransform="matrix(0.75 0 0 -0.75 119.7098 659.2648)">
		<stop  offset="0" style="stop-color:#BAC0C1"/>
		<stop  offset="0.15" style="stop-color:#F4FAFC"/>
		<stop  offset="0.25" style="stop-color:#F8FCFD"/>
		<stop  offset="0.44" style="stop-color:#D5DBDD"/>
		<stop  offset="0.6" style="stop-color:#BDC3C4"/>
		<stop  offset="0.8" style="stop-color:#A0A4A6"/>
		<stop  offset="0.97" style="stop-color:#929697"/>
		<stop  offset="1" style="stop-color:#C2C7C9"/>
	</linearGradient>
	<path fill="url(#SVGID_22_)" d="M271.379,522.539c0-7.5,6.488-14.359,14.546-14.359c7.953,0.109,14.59,6.547,14.59,14.621
		c0.113,7.988-6.531,14.648-14.59,14.648c-7.796,0.09-14.593-6.574-14.593-14.648L271.379,522.539z"/>
	<path fill="#BAC0C1" d="M275.582,522.984c0-6,4.621-10.578,10.359-10.578c5.391,0.078,10.391,4.664,10.391,10.414
		c0.25,5.414-4.652,10.43-10.391,10.43c-5.859,0.234-10.394-4.68-10.394-10.43L275.582,522.984z"/>
	
		<linearGradient id="SVGID_23_" gradientUnits="userSpaceOnUse" x1="233.2231" y1="170.8086" x2="202.2231" y2="170.8086" gradientTransform="matrix(0.75 0 0 -0.75 155.3827 636.3351)">
		<stop  offset="0" style="stop-color:#8C9192"/>
		<stop  offset="0.15" style="stop-color:#BDC3C4"/>
		<stop  offset="0.25" style="stop-color:#DCDEDF"/>
		<stop  offset="0.44" style="stop-color:#A1A6A7"/>
		<stop  offset="0.6" style="stop-color:#8F9394"/>
		<stop  offset="0.8" style="stop-color:#787C7C"/>
		<stop  offset="0.97" style="stop-color:#6D7172"/>
		<stop  offset="1" style="stop-color:#929798"/>
	</linearGradient>
	<path fill="url(#SVGID_23_)" d="M307.05,485.355h23.25v45.75h-23.25V485.355z"/>
	
		<linearGradient id="SVGID_24_" gradientUnits="userSpaceOnUse" x1="241.0796" y1="181.9346" x2="202.1606" y2="181.9346" gradientTransform="matrix(0.75 0 0 -0.75 152.5233 659.2648)">
		<stop  offset="0" style="stop-color:#BAC0C1"/>
		<stop  offset="0.15" style="stop-color:#F4FAFC"/>
		<stop  offset="0.25" style="stop-color:#F8FCFD"/>
		<stop  offset="0.44" style="stop-color:#D5DBDD"/>
		<stop  offset="0.6" style="stop-color:#BDC3C4"/>
		<stop  offset="0.8" style="stop-color:#A0A4A6"/>
		<stop  offset="0.97" style="stop-color:#929697"/>
		<stop  offset="1" style="stop-color:#C2C7C9"/>
	</linearGradient>
	<path fill="url(#SVGID_24_)" d="M304.191,522.539c0-7.5,6.488-14.359,14.547-14.359c7.953,0.109,14.594,6.547,14.594,14.621
		c0.109,7.988-6.535,14.648-14.594,14.648c-7.797,0.09-14.594-6.574-14.594-14.648L304.191,522.539z"/>
	<path fill="#BAC0C1" d="M308.398,522.984c0-6,4.617-10.578,10.359-10.578c5.391,0.078,10.391,4.664,10.391,10.414
		c0.25,5.414-4.652,10.43-10.391,10.43c-5.859,0.234-10.395-4.68-10.395-10.43L308.398,522.984z"/>
	
		<linearGradient id="SVGID_25_" gradientUnits="userSpaceOnUse" x1="404.7241" y1="201.3018" x2="404.7241" y2="193.3018" gradientTransform="matrix(0.75 0 0 -0.75 -11.5582 679.2736)">
		<stop  offset="0" style="stop-color:#BAC0C1"/>
		<stop  offset="0.15" style="stop-color:#F4FAFC"/>
		<stop  offset="0.25" style="stop-color:#F8FCFD"/>
		<stop  offset="0.44" style="stop-color:#D5DBDD"/>
		<stop  offset="0.6" style="stop-color:#BDC3C4"/>
		<stop  offset="0.8" style="stop-color:#A0A4A6"/>
		<stop  offset="0.97" style="stop-color:#929697"/>
		<stop  offset="1" style="stop-color:#C2C7C9"/>
	</linearGradient>
	<path fill="url(#SVGID_25_)" d="M140.109,528.296h303.75v6h-303.75V528.296z"/>
	
		<linearGradient id="SVGID_26_" gradientUnits="userSpaceOnUse" x1="229.2217" y1="21.3066" x2="202.2217" y2="21.3066" gradientTransform="matrix(0.75 0 0 -0.75 290.7977 442.0997)">
		<stop  offset="0" style="stop-color:#ADAEAE"/>
		<stop  offset="0.03" style="stop-color:#F7F8F8"/>
		<stop  offset="0.08" style="stop-color:#E2E3E3"/>
		<stop  offset="0.64" style="stop-color:#DEDFDF"/>
		<stop  offset="0.95" style="stop-color:#D9DADA"/>
		<stop  offset="1" style="stop-color:#A1A2A2"/>
	</linearGradient>
	<path fill="url(#SVGID_26_)" d="M442.464,291.121h20.25v270h-20.25V291.121z"/>
	
		<linearGradient id="SVGID_27_" gradientUnits="userSpaceOnUse" x1="535.2231" y1="89.8057" x2="202.2241" y2="89.8056" gradientTransform="matrix(0.75 0 0 -0.75 9.5189 364.5021)">
		<stop  offset="0" style="stop-color:#BAC0C1"/>
		<stop  offset="0.15" style="stop-color:#F4FAFC"/>
		<stop  offset="0.25" style="stop-color:#F8FCFD"/>
		<stop  offset="0.44" style="stop-color:#D5DBDD"/>
		<stop  offset="0.6" style="stop-color:#BDC3C4"/>
		<stop  offset="0.8" style="stop-color:#A0A4A6"/>
		<stop  offset="0.97" style="stop-color:#929697"/>
		<stop  offset="1" style="stop-color:#C2C7C9"/>
	</linearGradient>
	<path fill="url(#SVGID_27_)" d="M161.188,213.523h249.75v167.25h-249.75V213.523z"/>
	
		<linearGradient id="SVGID_28_" gradientUnits="userSpaceOnUse" x1="535.2231" y1="116.9312" x2="202.2241" y2="116.9311" gradientTransform="matrix(0.75 0 0 -0.75 9.5189 531.3868)">
		<stop  offset="0" style="stop-color:#BAC0C1"/>
		<stop  offset="0.15" style="stop-color:#F4FAFC"/>
		<stop  offset="0.25" style="stop-color:#F8FCFD"/>
		<stop  offset="0.44" style="stop-color:#D5DBDD"/>
		<stop  offset="0.6" style="stop-color:#BDC3C4"/>
		<stop  offset="0.8" style="stop-color:#A0A4A6"/>
		<stop  offset="0.97" style="stop-color:#929697"/>
		<stop  offset="1" style="stop-color:#C2C7C9"/>
	</linearGradient>
	<path fill="url(#SVGID_28_)" d="M161.188,380.41h249.75v25.5c0,0,0.762,101.059-122.301,101.059
		c-122.949,0.191-127.449-101.051-127.449-101.051V380.41z"/>
	
		<linearGradient id="SVGID_29_" gradientUnits="userSpaceOnUse" x1="419.7222" y1="201.3018" x2="419.7222" y2="183.3018" gradientTransform="matrix(0.75 0 0 -0.75 -35.6945 442.0978)">
		<stop  offset="0" style="stop-color:#BAC0C1"/>
		<stop  offset="0.15" style="stop-color:#F4FAFC"/>
		<stop  offset="0.25" style="stop-color:#F8FCFD"/>
		<stop  offset="0.44" style="stop-color:#D5DBDD"/>
		<stop  offset="0.6" style="stop-color:#BDC3C4"/>
		<stop  offset="0.8" style="stop-color:#A0A4A6"/>
		<stop  offset="0.97" style="stop-color:#929697"/>
		<stop  offset="1" style="stop-color:#C2C7C9"/>
	</linearGradient>
	<path fill="url(#SVGID_29_)" d="M115.973,291.121h326.25v13.5h-326.25V291.121z"/>
	
		<linearGradient id="SVGID_30_" gradientUnits="userSpaceOnUse" x1="543.9849" y1="196.3184" x2="202.2261" y2="196.3183" gradientTransform="matrix(0.75 0 0 -0.75 6.0912 357.295)">
		<stop  offset="0" style="stop-color:#BAC0C1"/>
		<stop  offset="0.15" style="stop-color:#F4FAFC"/>
		<stop  offset="0.25" style="stop-color:#F8FCFD"/>
		<stop  offset="0.44" style="stop-color:#D5DBDD"/>
		<stop  offset="0.6" style="stop-color:#BDC3C4"/>
		<stop  offset="0.8" style="stop-color:#A0A4A6"/>
		<stop  offset="0.97" style="stop-color:#929697"/>
		<stop  offset="1" style="stop-color:#C2C7C9"/>
	</linearGradient>
	<path fill="url(#SVGID_30_)" d="M161.512,206.316h249c2.25,0,3.555,1.598,3.555,3.594c0.195,1.656-1.613,3.617-3.605,3.617
		l-248.949,0.289c-2.25,0-3.75-1.91-3.75-3.906c0-2.094,1.605-3.613,3.598-3.613L161.512,206.316z"/>
	
		<linearGradient id="SVGID_31_" gradientUnits="userSpaceOnUse" x1="229.2217" y1="103.3027" x2="202.2217" y2="103.3027" gradientTransform="matrix(0.75 0 0 -0.75 290.7977 442.0978)">
		<stop  offset="0" style="stop-color:#969B9C"/>
		<stop  offset="0.03" style="stop-color:#DEE3E4"/>
		<stop  offset="0.08" style="stop-color:#C4CACB"/>
		<stop  offset="0.64" style="stop-color:#C1C6C8"/>
		<stop  offset="0.95" style="stop-color:#BCC2C4"/>
		<stop  offset="1" style="stop-color:#8B8F91"/>
	</linearGradient>
	<path fill="url(#SVGID_31_)" d="M442.464,291.121h20.25v147h-20.25V291.121z"/>
	
		<linearGradient id="SVGID_32_" gradientUnits="userSpaceOnUse" x1="229.228" y1="21.3037" x2="202.228" y2="21.3037" gradientTransform="matrix(0.75 0 0 -0.75 -28.5343 441.0353)">
		<stop  offset="0" style="stop-color:#ADAEAE"/>
		<stop  offset="0.03" style="stop-color:#F7F8F8"/>
		<stop  offset="0.08" style="stop-color:#E2E3E3"/>
		<stop  offset="0.64" style="stop-color:#DEDFDF"/>
		<stop  offset="0.95" style="stop-color:#D9DADA"/>
		<stop  offset="1" style="stop-color:#A1A2A2"/>
	</linearGradient>
	<path fill="url(#SVGID_32_)" d="M123.137,290.058h20.25v270h-20.25V290.058z"/>
	
		<linearGradient id="SVGID_33_" gradientUnits="userSpaceOnUse" x1="229.228" y1="103.3037" x2="202.228" y2="103.3037" gradientTransform="matrix(0.75 0 0 -0.75 -28.5343 441.0353)">
		<stop  offset="0" style="stop-color:#969B9C"/>
		<stop  offset="0.03" style="stop-color:#DEE3E4"/>
		<stop  offset="0.08" style="stop-color:#C4CACB"/>
		<stop  offset="0.64" style="stop-color:#C1C6C8"/>
		<stop  offset="0.95" style="stop-color:#BCC2C4"/>
		<stop  offset="1" style="stop-color:#8B8F91"/>
	</linearGradient>
	<path fill="url(#SVGID_33_)" d="M123.137,290.058h20.25v147h-20.25V290.058z"/>
	
		<linearGradient id="SVGID_34_" gradientUnits="userSpaceOnUse" x1="230.4106" y1="201.3926" x2="230.4106" y2="181.3037" gradientTransform="matrix(0.75 0 0 -0.75 275.6132 441.1027)">
		<stop  offset="0" style="stop-color:#969A9B"/>
		<stop  offset="0.15" style="stop-color:#C8CECF"/>
		<stop  offset="0.25" style="stop-color:#E1E4E4"/>
		<stop  offset="0.44" style="stop-color:#ABB1B1"/>
		<stop  offset="0.6" style="stop-color:#989D9E"/>
		<stop  offset="0.8" style="stop-color:#808485"/>
		<stop  offset="0.97" style="stop-color:#757879"/>
		<stop  offset="1" style="stop-color:#9CA1A1"/>
	</linearGradient>
	<path fill="url(#SVGID_34_)" d="M431.031,290.125h35.25c1.5,0,3.371,1.551,3.371,3.547l-0.371,7.703c0,2.25-1.27,3.566-3.262,3.566
		l-34.988,0.184c-2.25,0-3.84-1.805-3.84-3.801l0.09-7.449c0-2.25,1.523-3.816,3.516-3.816L431.031,290.125z"/>
	
		<linearGradient id="SVGID_35_" gradientUnits="userSpaceOnUse" x1="230.4097" y1="201.3926" x2="230.4097" y2="181.3037" gradientTransform="matrix(0.75 0 0 -0.75 -39.6393 441.1027)">
		<stop  offset="0" style="stop-color:#969A9B"/>
		<stop  offset="0.15" style="stop-color:#C8CECF"/>
		<stop  offset="0.25" style="stop-color:#E1E4E4"/>
		<stop  offset="0.44" style="stop-color:#ABB1B1"/>
		<stop  offset="0.6" style="stop-color:#989D9E"/>
		<stop  offset="0.8" style="stop-color:#808485"/>
		<stop  offset="0.97" style="stop-color:#757879"/>
		<stop  offset="1" style="stop-color:#9CA1A1"/>
	</linearGradient>
	<path fill="url(#SVGID_35_)" d="M115.781,290.125h35.25c1.5,0,3.367,1.551,3.367,3.547l-0.367,7.703
		c0,2.25-1.273,3.566-3.266,3.566l-34.984,0.184c-2.25,0-3.844-1.805-3.844-3.801l0.094-7.449c0-2.25,1.52-3.816,3.512-3.816
		L115.781,290.125z"/>
	
		<linearGradient id="SVGID_36_" gradientUnits="userSpaceOnUse" x1="215.2383" y1="201.3018" x2="215.2383" y2="70.917" gradientTransform="matrix(0.75 0 0 -0.75 -54.4191 400.1134)">
		<stop  offset="0" style="stop-color:#BAC0C1"/>
		<stop  offset="0.15" style="stop-color:#F4FAFC"/>
		<stop  offset="0.25" style="stop-color:#F8FCFD"/>
		<stop  offset="0.44" style="stop-color:#D5DBDD"/>
		<stop  offset="0.6" style="stop-color:#BDC3C4"/>
		<stop  offset="0.8" style="stop-color:#A0A4A6"/>
		<stop  offset="0.97" style="stop-color:#929697"/>
		<stop  offset="1" style="stop-color:#C2C7C9"/>
	</linearGradient>
	<path fill="url(#SVGID_36_)" d="M106.25,249.137h1.5c5.25,0,9.02,4,9.02,8.941l-0.02,79.558c0,5.25-3.977,9.289-8.902,9.289
		l-1.598-0.289c-5.25,0-9-3.715-9-8.652v-79.847c0-5.25,3.996-9,8.922-9H106.25z"/>
</g>
</svg>
