<?xml version="1.0" encoding="utf-8"?>
<!-- Generator: Adobe Illustrator 16.0.0, SVG Export Plug-In . SVG Version: 6.00 Build 0)  -->
<!DOCTYPE svg PUBLIC "-//W3C//DTD SVG 1.1//EN" "http://www.w3.org/Graphics/SVG/1.1/DTD/svg11.dtd">
<svg preserveAspectRatio="none"   version="1.1" id="图层_1" xmlns="http://www.w3.org/2000/svg" xmlns:xlink="http://www.w3.org/1999/xlink" x="0px" y="0px"
	 width="567.417px" height="340.738px" viewBox="-0.285 113.215 567.417 340.738"
	 enable-background="new -0.285 113.215 567.417 340.738" xml:space="preserve">
<g id="surface81">
	
		<linearGradient id="SVGID_1_" gradientUnits="userSpaceOnUse" x1="209.9551" y1="201.3057" x2="209.9551" y2="120.8574" gradientTransform="matrix(0.75 0 0 -0.75 291.3866 367.2404)">
		<stop  offset="0" style="stop-color:#A5A8A9"/>
		<stop  offset="0.03" style="stop-color:#EEF2F2"/>
		<stop  offset="0.08" style="stop-color:#D7DBDC"/>
		<stop  offset="0.64" style="stop-color:#D3D8D9"/>
		<stop  offset="0.95" style="stop-color:#CED3D4"/>
		<stop  offset="1" style="stop-color:#999C9D"/>
	</linearGradient>
	<path fill="url(#SVGID_1_)" d="M445.304,216.262h6.75c1.5,0,2.617,1.031,2.617,2.363l-0.367,55.387c0,1.5-0.719,2.586-2.059,2.586
		l-6.941-0.336c-1.5,0-2.27-0.762-2.27-2.094l0.02-55.656c0-1.5,1.063-2.25,2.402-2.25H445.304z"/>
	
		<linearGradient id="SVGID_2_" gradientUnits="userSpaceOnUse" x1="220.2217" y1="193.8086" x2="202.2217" y2="193.8086" gradientTransform="matrix(0.75 0 0 -0.75 233.5399 593.2218)">
		<stop  offset="0" style="stop-color:#A5A8A9"/>
		<stop  offset="0.03" style="stop-color:#EEF2F2"/>
		<stop  offset="0.08" style="stop-color:#D7DBDC"/>
		<stop  offset="0.64" style="stop-color:#D3D8D9"/>
		<stop  offset="0.95" style="stop-color:#CED3D4"/>
		<stop  offset="1" style="stop-color:#999C9D"/>
	</linearGradient>
	<path fill="url(#SVGID_2_)" d="M385.207,453.492h13.5v-11.25h-13.5V453.492z"/>
	
		<linearGradient id="SVGID_3_" gradientUnits="userSpaceOnUse" x1="434.7261" y1="201.3037" x2="434.7261" y2="-117.6953" gradientTransform="matrix(0.75 0 0 -0.75 -127.7091 278.0763)">
		<stop  offset="0" style="stop-color:#DEE2E3"/>
		<stop  offset="0.64" style="stop-color:#DADEDF"/>
		<stop  offset="0.86" style="stop-color:#D5D9DA"/>
		<stop  offset="1" style="stop-color:#9EA1A2"/>
	</linearGradient>
	<path fill="url(#SVGID_3_)" d="M23.961,127.098h348.75v239.25H23.961V127.098z"/>
	
		<linearGradient id="SVGID_4_" gradientUnits="userSpaceOnUse" x1="433.2231" y1="166.8057" x2="202.2236" y2="166.8056" gradientTransform="matrix(0.75 0 0 -0.75 -38.6095 517.1505)">
		<stop  offset="0" style="stop-color:#A5A8A9"/>
		<stop  offset="0.03" style="stop-color:#EEF2F2"/>
		<stop  offset="0.08" style="stop-color:#D7DBDC"/>
		<stop  offset="0.64" style="stop-color:#D3D8D9"/>
		<stop  offset="0.95" style="stop-color:#CED3D4"/>
		<stop  offset="1" style="stop-color:#999C9D"/>
	</linearGradient>
	<path fill="url(#SVGID_4_)" d="M113.059,366.171h173.25v51.75h-173.25V366.171z"/>
	
		<linearGradient id="SVGID_5_" gradientUnits="userSpaceOnUse" x1="454.2212" y1="191.8066" x2="202.2227" y2="191.8066" gradientTransform="matrix(0.75 0 0 -0.75 -45.8824 569.0724)">
		<stop  offset="0" style="stop-color:#A5A8A9"/>
		<stop  offset="0.03" style="stop-color:#EEF2F2"/>
		<stop  offset="0.08" style="stop-color:#D7DBDC"/>
		<stop  offset="0.64" style="stop-color:#D3D8D9"/>
		<stop  offset="0.95" style="stop-color:#CED3D4"/>
		<stop  offset="1" style="stop-color:#999C9D"/>
	</linearGradient>
	<path fill="url(#SVGID_5_)" d="M105.785,418.093h189v14.25h-189V418.093z"/>
	
		<linearGradient id="SVGID_6_" gradientUnits="userSpaceOnUse" x1="246.2275" y1="-8.6978" x2="202.2275" y2="-8.6978" gradientTransform="matrix(0.75 0 0 -0.75 233.5399 278.0773)">
		<stop  offset="0" style="stop-color:#A5A8A9"/>
		<stop  offset="0.03" style="stop-color:#EEF2F2"/>
		<stop  offset="0.08" style="stop-color:#D7DBDC"/>
		<stop  offset="0.64" style="stop-color:#D3D8D9"/>
		<stop  offset="0.95" style="stop-color:#CED3D4"/>
		<stop  offset="1" style="stop-color:#999C9D"/>
	</linearGradient>
	<path fill="url(#SVGID_6_)" d="M385.21,442.101h14.25l18.75-63.75v-187.5l-33-63.75V442.101z"/>
	
		<linearGradient id="SVGID_7_" gradientUnits="userSpaceOnUse" x1="219.2256" y1="201.3037" x2="219.2256" y2="1.3037" gradientTransform="matrix(0.75 0 0 -0.75 266.8768 360.1847)">
		<stop  offset="0" style="stop-color:#A5A8A9"/>
		<stop  offset="0.03" style="stop-color:#EEF2F2"/>
		<stop  offset="0.08" style="stop-color:#D7DBDC"/>
		<stop  offset="0.64" style="stop-color:#D3D8D9"/>
		<stop  offset="0.95" style="stop-color:#CED3D4"/>
		<stop  offset="1" style="stop-color:#999C9D"/>
	</linearGradient>
	<path fill="url(#SVGID_7_)" d="M418.546,209.207h25.5v150h-25.5V209.207z"/>
	
		<linearGradient id="SVGID_8_" gradientUnits="userSpaceOnUse" x1="434.7222" y1="201.3057" x2="434.7222" y2="192.3057" gradientTransform="matrix(0.75 0 0 -0.75 -128.316 287.4952)">
		<stop  offset="0" style="stop-color:#DEE2E3"/>
		<stop  offset="0.64" style="stop-color:#DADEDF"/>
		<stop  offset="0.86" style="stop-color:#D5D9DA"/>
		<stop  offset="1" style="stop-color:#9EA1A2"/>
	</linearGradient>
	<path fill="url(#SVGID_8_)" d="M23.352,136.516h348.75v6.75H23.352V136.516z"/>
	
		<linearGradient id="SVGID_9_" gradientUnits="userSpaceOnUse" x1="221.2266" y1="-16.1948" x2="202.2266" y2="-16.1948" gradientTransform="matrix(0.75 0 0 -0.75 -142.2565 278.0763)">
		<stop  offset="0" style="stop-color:#A5A8A9"/>
		<stop  offset="0.03" style="stop-color:#EEF2F2"/>
		<stop  offset="0.08" style="stop-color:#D7DBDC"/>
		<stop  offset="0.64" style="stop-color:#D3D8D9"/>
		<stop  offset="0.95" style="stop-color:#CED3D4"/>
		<stop  offset="1" style="stop-color:#999C9D"/>
	</linearGradient>
	<path fill="url(#SVGID_9_)" d="M9.414,127.098h14.25v326.25H9.414V127.098z"/>
	
		<linearGradient id="SVGID_10_" gradientUnits="userSpaceOnUse" x1="221.2266" y1="-16.1934" x2="202.2266" y2="-16.1934" gradientTransform="matrix(0.75 0 0 -0.75 218.993 278.6818)">
		<stop  offset="0" style="stop-color:#A5A8A9"/>
		<stop  offset="0.03" style="stop-color:#EEF2F2"/>
		<stop  offset="0.08" style="stop-color:#D7DBDC"/>
		<stop  offset="0.64" style="stop-color:#D3D8D9"/>
		<stop  offset="0.95" style="stop-color:#CED3D4"/>
		<stop  offset="1" style="stop-color:#999C9D"/>
	</linearGradient>
	<path fill="url(#SVGID_10_)" d="M370.664,127.703h14.25v326.25h-14.25V127.703z"/>
	
		<linearGradient id="SVGID_11_" gradientUnits="userSpaceOnUse" x1="730.2251" y1="191.8042" x2="202.2256" y2="191.8042" gradientTransform="matrix(0.75 0 0 -0.75 -151.9547 264.1915)">
		<stop  offset="0" style="stop-color:#A5A8A9"/>
		<stop  offset="0.03" style="stop-color:#EEF2F2"/>
		<stop  offset="0.08" style="stop-color:#D7DBDC"/>
		<stop  offset="0.64" style="stop-color:#D3D8D9"/>
		<stop  offset="0.95" style="stop-color:#CED3D4"/>
		<stop  offset="1" style="stop-color:#999C9D"/>
	</linearGradient>
	<path fill="url(#SVGID_11_)" d="M-0.285,113.215h396v14.25h-396V113.215z"/>
	
		<linearGradient id="SVGID_12_" gradientUnits="userSpaceOnUse" x1="219.2241" y1="194.3047" x2="202.2241" y2="194.3047" gradientTransform="matrix(0.75 0 0 -0.75 -106.8053 278.8029)">
		<stop  offset="0" style="stop-color:#A5AFAD"/>
		<stop  offset="0.15" style="stop-color:#DBE6E4"/>
		<stop  offset="0.25" style="stop-color:#EBF1F0"/>
		<stop  offset="0.52" style="stop-color:#BDC7C6"/>
		<stop  offset="0.69" style="stop-color:#A8B1B0"/>
		<stop  offset="0.8" style="stop-color:#9EA7A6"/>
		<stop  offset="0.97" style="stop-color:#959E9C"/>
		<stop  offset="1" style="stop-color:#ACB6B4"/>
	</linearGradient>
	<path fill="url(#SVGID_12_)" d="M44.863,127.824h12.75v10.5h-12.75V127.824z"/>
	
		<linearGradient id="SVGID_13_" gradientUnits="userSpaceOnUse" x1="219.2275" y1="194.3047" x2="202.2275" y2="194.3047" gradientTransform="matrix(0.75 0 0 -0.75 -65.0494 278.8029)">
		<stop  offset="0" style="stop-color:#A5AFAD"/>
		<stop  offset="0.15" style="stop-color:#DBE6E4"/>
		<stop  offset="0.25" style="stop-color:#EBF1F0"/>
		<stop  offset="0.52" style="stop-color:#BDC7C6"/>
		<stop  offset="0.69" style="stop-color:#A8B1B0"/>
		<stop  offset="0.8" style="stop-color:#9EA7A6"/>
		<stop  offset="0.97" style="stop-color:#959E9C"/>
		<stop  offset="1" style="stop-color:#ACB6B4"/>
	</linearGradient>
	<path fill="url(#SVGID_13_)" d="M86.621,127.824h12.75v10.5h-12.75V127.824z"/>
	
		<linearGradient id="SVGID_14_" gradientUnits="userSpaceOnUse" x1="219.2261" y1="194.3047" x2="202.2261" y2="194.3047" gradientTransform="matrix(0.75 0 0 -0.75 -23.2946 278.8029)">
		<stop  offset="0" style="stop-color:#A5AFAD"/>
		<stop  offset="0.15" style="stop-color:#DBE6E4"/>
		<stop  offset="0.25" style="stop-color:#EBF1F0"/>
		<stop  offset="0.52" style="stop-color:#BDC7C6"/>
		<stop  offset="0.69" style="stop-color:#A8B1B0"/>
		<stop  offset="0.8" style="stop-color:#9EA7A6"/>
		<stop  offset="0.97" style="stop-color:#959E9C"/>
		<stop  offset="1" style="stop-color:#ACB6B4"/>
	</linearGradient>
	<path fill="url(#SVGID_14_)" d="M128.375,127.824h12.75v10.5h-12.75V127.824z"/>
	
		<linearGradient id="SVGID_15_" gradientUnits="userSpaceOnUse" x1="219.2236" y1="194.3047" x2="202.2236" y2="194.3047" gradientTransform="matrix(0.75 0 0 -0.75 18.4613 278.8029)">
		<stop  offset="0" style="stop-color:#A5AFAD"/>
		<stop  offset="0.15" style="stop-color:#DBE6E4"/>
		<stop  offset="0.25" style="stop-color:#EBF1F0"/>
		<stop  offset="0.52" style="stop-color:#BDC7C6"/>
		<stop  offset="0.69" style="stop-color:#A8B1B0"/>
		<stop  offset="0.8" style="stop-color:#9EA7A6"/>
		<stop  offset="0.97" style="stop-color:#959E9C"/>
		<stop  offset="1" style="stop-color:#ACB6B4"/>
	</linearGradient>
	<path fill="url(#SVGID_15_)" d="M170.129,127.824h12.75v10.5h-12.75V127.824z"/>
	
		<linearGradient id="SVGID_16_" gradientUnits="userSpaceOnUse" x1="219.2271" y1="194.3047" x2="202.2271" y2="194.3047" gradientTransform="matrix(0.75 0 0 -0.75 60.2162 278.8029)">
		<stop  offset="0" style="stop-color:#A5AFAD"/>
		<stop  offset="0.15" style="stop-color:#DBE6E4"/>
		<stop  offset="0.25" style="stop-color:#EBF1F0"/>
		<stop  offset="0.52" style="stop-color:#BDC7C6"/>
		<stop  offset="0.69" style="stop-color:#A8B1B0"/>
		<stop  offset="0.8" style="stop-color:#9EA7A6"/>
		<stop  offset="0.97" style="stop-color:#959E9C"/>
		<stop  offset="1" style="stop-color:#ACB6B4"/>
	</linearGradient>
	<path fill="url(#SVGID_16_)" d="M211.887,127.824h12.75v10.5h-12.75V127.824z"/>
	
		<linearGradient id="SVGID_17_" gradientUnits="userSpaceOnUse" x1="219.2251" y1="194.3047" x2="202.2251" y2="194.3047" gradientTransform="matrix(0.75 0 0 -0.75 101.9716 278.8029)">
		<stop  offset="0" style="stop-color:#A5AFAD"/>
		<stop  offset="0.15" style="stop-color:#DBE6E4"/>
		<stop  offset="0.25" style="stop-color:#EBF1F0"/>
		<stop  offset="0.52" style="stop-color:#BDC7C6"/>
		<stop  offset="0.69" style="stop-color:#A8B1B0"/>
		<stop  offset="0.8" style="stop-color:#9EA7A6"/>
		<stop  offset="0.97" style="stop-color:#959E9C"/>
		<stop  offset="1" style="stop-color:#ACB6B4"/>
	</linearGradient>
	<path fill="url(#SVGID_17_)" d="M253.641,127.824h12.75v10.5h-12.75V127.824z"/>
	
		<linearGradient id="SVGID_18_" gradientUnits="userSpaceOnUse" x1="219.2227" y1="194.3047" x2="202.2227" y2="194.3047" gradientTransform="matrix(0.75 0 0 -0.75 143.7264 278.8029)">
		<stop  offset="0" style="stop-color:#A5AFAD"/>
		<stop  offset="0.15" style="stop-color:#DBE6E4"/>
		<stop  offset="0.25" style="stop-color:#EBF1F0"/>
		<stop  offset="0.52" style="stop-color:#BDC7C6"/>
		<stop  offset="0.69" style="stop-color:#A8B1B0"/>
		<stop  offset="0.8" style="stop-color:#9EA7A6"/>
		<stop  offset="0.97" style="stop-color:#959E9C"/>
		<stop  offset="1" style="stop-color:#ACB6B4"/>
	</linearGradient>
	<path fill="url(#SVGID_18_)" d="M295.394,127.824h12.75v10.5h-12.75V127.824z"/>
	
		<linearGradient id="SVGID_19_" gradientUnits="userSpaceOnUse" x1="219.2261" y1="194.3047" x2="202.2261" y2="194.3047" gradientTransform="matrix(0.75 0 0 -0.75 185.4823 278.8029)">
		<stop  offset="0" style="stop-color:#A5AFAD"/>
		<stop  offset="0.15" style="stop-color:#DBE6E4"/>
		<stop  offset="0.25" style="stop-color:#EBF1F0"/>
		<stop  offset="0.52" style="stop-color:#BDC7C6"/>
		<stop  offset="0.69" style="stop-color:#A8B1B0"/>
		<stop  offset="0.8" style="stop-color:#9EA7A6"/>
		<stop  offset="0.97" style="stop-color:#959E9C"/>
		<stop  offset="1" style="stop-color:#ACB6B4"/>
	</linearGradient>
	<path fill="url(#SVGID_19_)" d="M337.152,127.824h12.75v10.5h-12.75V127.824z"/>
	
		<linearGradient id="SVGID_20_" gradientUnits="userSpaceOnUse" x1="219.2261" y1="194.3047" x2="202.2261" y2="194.3047" gradientTransform="matrix(0.75 0 0 -0.75 227.2362 278.8029)">
		<stop  offset="0" style="stop-color:#A5AFAD"/>
		<stop  offset="0.15" style="stop-color:#DBE6E4"/>
		<stop  offset="0.25" style="stop-color:#EBF1F0"/>
		<stop  offset="0.52" style="stop-color:#BDC7C6"/>
		<stop  offset="0.69" style="stop-color:#A8B1B0"/>
		<stop  offset="0.8" style="stop-color:#9EA7A6"/>
		<stop  offset="0.97" style="stop-color:#959E9C"/>
		<stop  offset="1" style="stop-color:#ACB6B4"/>
	</linearGradient>
	<path fill="url(#SVGID_20_)" d="M378.906,127.824h12.75v10.5h-12.75V127.824z"/>
	
		<linearGradient id="SVGID_21_" gradientUnits="userSpaceOnUse" x1="219.2256" y1="194.3047" x2="202.2256" y2="194.3047" gradientTransform="matrix(0.75 0 0 -0.75 -148.5602 278.8029)">
		<stop  offset="0" style="stop-color:#A5AFAD"/>
		<stop  offset="0.15" style="stop-color:#DBE6E4"/>
		<stop  offset="0.25" style="stop-color:#EBF1F0"/>
		<stop  offset="0.52" style="stop-color:#BDC7C6"/>
		<stop  offset="0.69" style="stop-color:#A8B1B0"/>
		<stop  offset="0.8" style="stop-color:#9EA7A6"/>
		<stop  offset="0.97" style="stop-color:#959E9C"/>
		<stop  offset="1" style="stop-color:#ACB6B4"/>
	</linearGradient>
	<path fill="url(#SVGID_21_)" d="M3.109,127.824h12.75v10.5H3.109V127.824z"/>
	
		<linearGradient id="SVGID_22_" gradientUnits="userSpaceOnUse" x1="95.3037" y1="355.2231" x2="1.3047" y2="355.2231" gradientTransform="matrix(0 -0.75 0.75 0 228.0546 353.0441)">
		<stop  offset="0" style="stop-color:#A5AFAD"/>
		<stop  offset="0.15" style="stop-color:#DBE6E4"/>
		<stop  offset="0.25" style="stop-color:#EBF1F0"/>
		<stop  offset="0.52" style="stop-color:#BDC7C6"/>
		<stop  offset="0.69" style="stop-color:#A8B1B0"/>
		<stop  offset="0.8" style="stop-color:#9EA7A6"/>
		<stop  offset="0.97" style="stop-color:#959E9C"/>
		<stop  offset="1" style="stop-color:#ACB6B4"/>
	</linearGradient>
	<path fill="url(#SVGID_22_)" d="M459.222,352.066h70.5v-70.5h-70.5V352.066z"/>
	
		<linearGradient id="SVGID_23_" gradientUnits="userSpaceOnUse" x1="95.3057" y1="377.2251" x2="1.3066" y2="377.2251" gradientTransform="matrix(0 -0.75 0.75 0 265.4637 353.0685)">
		<stop  offset="0" style="stop-color:#A5AFAD"/>
		<stop  offset="0.15" style="stop-color:#DBE6E4"/>
		<stop  offset="0.25" style="stop-color:#EBF1F0"/>
		<stop  offset="0.52" style="stop-color:#BDC7C6"/>
		<stop  offset="0.69" style="stop-color:#A8B1B0"/>
		<stop  offset="0.8" style="stop-color:#9EA7A6"/>
		<stop  offset="0.97" style="stop-color:#959E9C"/>
		<stop  offset="1" style="stop-color:#ACB6B4"/>
	</linearGradient>
	<path fill="url(#SVGID_23_)" d="M529.632,352.089h29.25c0,0,3.688-0.523,4.723-4.457c-0.223-0.043,3.527-13.793,3.527-30.652
		c0-16.641-3.527-30.668-3.527-30.668c-0.973-4.722-4.457-4.441-4.457-4.441l-29.516-0.281V352.089z"/>
	
		<linearGradient id="SVGID_24_" gradientUnits="userSpaceOnUse" x1="95.3027" y1="401.2241" x2="1.3027" y2="401.2241" gradientTransform="matrix(0 -0.75 0.75 0 229.328 353.0577)">
		<stop  offset="0" style="stop-color:#7A9691"/>
		<stop  offset="0.15" style="stop-color:#A8C8C3"/>
		<stop  offset="0.25" style="stop-color:#D2E1DE"/>
		<stop  offset="0.52" style="stop-color:#8BABA6"/>
		<stop  offset="0.69" style="stop-color:#7C9893"/>
		<stop  offset="0.8" style="stop-color:#748F8B"/>
		<stop  offset="0.97" style="stop-color:#6E8783"/>
		<stop  offset="1" style="stop-color:#7F9C97"/>
	</linearGradient>
	<path fill="url(#SVGID_24_)" d="M529.496,352.082h1.5v-70.5h-1.5V352.082z"/>
	
		<linearGradient id="SVGID_25_" gradientUnits="userSpaceOnUse" x1="245.2515" y1="566.646" x2="245.2515" y2="564.6268" gradientTransform="matrix(0.75 0 0 0.75 313.1591 -107.2501)">
		<stop  offset="0" style="stop-color:#A5AFAD"/>
		<stop  offset="0.15" style="stop-color:#DBE6E4"/>
		<stop  offset="0.25" style="stop-color:#EBF1F0"/>
		<stop  offset="0.52" style="stop-color:#BDC7C6"/>
		<stop  offset="0.69" style="stop-color:#A8B1B0"/>
		<stop  offset="0.8" style="stop-color:#9EA7A6"/>
		<stop  offset="0.97" style="stop-color:#959E9C"/>
		<stop  offset="1" style="stop-color:#ACB6B4"/>
	</linearGradient>
	<path fill="url(#SVGID_25_)" d="M465.578,317.718h63c0.75,0,0.789-0.191,0.789-0.445c-0.039-1.055-0.277-1.023-0.617-1.023
		l-63.172-0.031c-0.75,0-0.75,0.238-0.75,0.492c0,1.008,0.258,1.023,0.598,1.023L465.578,317.718z"/>
	
		<linearGradient id="SVGID_26_" gradientUnits="userSpaceOnUse" x1="245.2515" y1="566.644" x2="245.2515" y2="564.6235" gradientTransform="matrix(0.75 0 0 0.75 313.1591 -112.1749)">
		<stop  offset="0" style="stop-color:#A5AFAD"/>
		<stop  offset="0.15" style="stop-color:#DBE6E4"/>
		<stop  offset="0.25" style="stop-color:#EBF1F0"/>
		<stop  offset="0.52" style="stop-color:#BDC7C6"/>
		<stop  offset="0.69" style="stop-color:#A8B1B0"/>
		<stop  offset="0.8" style="stop-color:#9EA7A6"/>
		<stop  offset="0.97" style="stop-color:#959E9C"/>
		<stop  offset="1" style="stop-color:#ACB6B4"/>
	</linearGradient>
	<path fill="url(#SVGID_26_)" d="M465.578,312.792h63c0.75,0,0.789-0.191,0.789-0.445c-0.039-1.055-0.277-1.02-0.617-1.02
		l-63.172-0.035c-0.75,0-0.75,0.238-0.75,0.496c0,1.004,0.258,1.02,0.598,1.02L465.578,312.792z"/>
	
		<linearGradient id="SVGID_27_" gradientUnits="userSpaceOnUse" x1="245.2515" y1="566.645" x2="245.2515" y2="564.6258" gradientTransform="matrix(0.75 0 0 0.75 313.1591 -117.1051)">
		<stop  offset="0" style="stop-color:#A5AFAD"/>
		<stop  offset="0.15" style="stop-color:#DBE6E4"/>
		<stop  offset="0.25" style="stop-color:#EBF1F0"/>
		<stop  offset="0.52" style="stop-color:#BDC7C6"/>
		<stop  offset="0.69" style="stop-color:#A8B1B0"/>
		<stop  offset="0.8" style="stop-color:#9EA7A6"/>
		<stop  offset="0.97" style="stop-color:#959E9C"/>
		<stop  offset="1" style="stop-color:#ACB6B4"/>
	</linearGradient>
	<path fill="url(#SVGID_27_)" d="M465.578,307.863h63c0.75,0,0.789-0.191,0.789-0.445c-0.039-1.055-0.277-1.02-0.617-1.02
		l-63.172-0.035c-0.75,0-0.75,0.238-0.75,0.496c0,1.004,0.258,1.02,0.598,1.02L465.578,307.863z"/>
	
		<linearGradient id="SVGID_28_" gradientUnits="userSpaceOnUse" x1="245.2515" y1="566.645" x2="245.2515" y2="564.6245" gradientTransform="matrix(0.75 0 0 0.75 313.1591 -122.0348)">
		<stop  offset="0" style="stop-color:#A5AFAD"/>
		<stop  offset="0.15" style="stop-color:#DBE6E4"/>
		<stop  offset="0.25" style="stop-color:#EBF1F0"/>
		<stop  offset="0.52" style="stop-color:#BDC7C6"/>
		<stop  offset="0.69" style="stop-color:#A8B1B0"/>
		<stop  offset="0.8" style="stop-color:#9EA7A6"/>
		<stop  offset="0.97" style="stop-color:#959E9C"/>
		<stop  offset="1" style="stop-color:#ACB6B4"/>
	</linearGradient>
	<path fill="url(#SVGID_28_)" d="M465.578,302.933h63c0.75,0,0.789-0.191,0.789-0.445c-0.039-1.055-0.277-1.023-0.617-1.023
		l-63.172-0.031c-0.75,0-0.75,0.238-0.75,0.496c0,1.004,0.258,1.02,0.598,1.02L465.578,302.933z"/>
	
		<linearGradient id="SVGID_29_" gradientUnits="userSpaceOnUse" x1="245.2515" y1="566.644" x2="245.2515" y2="564.6248" gradientTransform="matrix(0.75 0 0 0.75 313.1591 -127.2765)">
		<stop  offset="0" style="stop-color:#A5AFAD"/>
		<stop  offset="0.15" style="stop-color:#DBE6E4"/>
		<stop  offset="0.25" style="stop-color:#EBF1F0"/>
		<stop  offset="0.52" style="stop-color:#BDC7C6"/>
		<stop  offset="0.69" style="stop-color:#A8B1B0"/>
		<stop  offset="0.8" style="stop-color:#9EA7A6"/>
		<stop  offset="0.97" style="stop-color:#959E9C"/>
		<stop  offset="1" style="stop-color:#ACB6B4"/>
	</linearGradient>
	<path fill="url(#SVGID_29_)" d="M465.578,297.691h63c0.75,0,0.789-0.191,0.789-0.445c-0.039-1.055-0.277-1.02-0.617-1.02
		l-63.172-0.035c-0.75,0-0.75,0.238-0.75,0.496c0,1.004,0.258,1.02,0.598,1.02L465.578,297.691z"/>
	
		<linearGradient id="SVGID_30_" gradientUnits="userSpaceOnUse" x1="245.2515" y1="566.645" x2="245.2515" y2="564.6245" gradientTransform="matrix(0.75 0 0 0.75 313.1591 -132.0509)">
		<stop  offset="0" style="stop-color:#A5AFAD"/>
		<stop  offset="0.15" style="stop-color:#DBE6E4"/>
		<stop  offset="0.25" style="stop-color:#EBF1F0"/>
		<stop  offset="0.52" style="stop-color:#BDC7C6"/>
		<stop  offset="0.69" style="stop-color:#A8B1B0"/>
		<stop  offset="0.8" style="stop-color:#9EA7A6"/>
		<stop  offset="0.97" style="stop-color:#959E9C"/>
		<stop  offset="1" style="stop-color:#ACB6B4"/>
	</linearGradient>
	<path fill="url(#SVGID_30_)" d="M465.578,292.917h63c0.75,0,0.789-0.191,0.789-0.445c-0.039-1.055-0.277-1.023-0.617-1.023
		l-63.172-0.031c-0.75,0-0.75,0.238-0.75,0.492c0,1.008,0.258,1.023,0.598,1.023L465.578,292.917z"/>
	
		<linearGradient id="SVGID_31_" gradientUnits="userSpaceOnUse" x1="245.2515" y1="566.644" x2="245.2515" y2="564.6248" gradientTransform="matrix(0.75 0 0 0.75 313.1591 -102.3156)">
		<stop  offset="0" style="stop-color:#A5AFAD"/>
		<stop  offset="0.15" style="stop-color:#DBE6E4"/>
		<stop  offset="0.25" style="stop-color:#EBF1F0"/>
		<stop  offset="0.52" style="stop-color:#BDC7C6"/>
		<stop  offset="0.69" style="stop-color:#A8B1B0"/>
		<stop  offset="0.8" style="stop-color:#9EA7A6"/>
		<stop  offset="0.97" style="stop-color:#959E9C"/>
		<stop  offset="1" style="stop-color:#ACB6B4"/>
	</linearGradient>
	<path fill="url(#SVGID_31_)" d="M465.578,322.652h63c0.75,0,0.789-0.191,0.789-0.445c-0.039-1.055-0.277-1.02-0.617-1.02
		l-63.172-0.035c-0.75,0-0.75,0.238-0.75,0.496c0,1.004,0.258,1.02,0.598,1.02L465.578,322.652z"/>
	
		<linearGradient id="SVGID_32_" gradientUnits="userSpaceOnUse" x1="245.2515" y1="566.646" x2="245.2515" y2="564.6255" gradientTransform="matrix(0.75 0 0 0.75 313.1591 -136.8248)">
		<stop  offset="0" style="stop-color:#A5AFAD"/>
		<stop  offset="0.15" style="stop-color:#DBE6E4"/>
		<stop  offset="0.25" style="stop-color:#EBF1F0"/>
		<stop  offset="0.52" style="stop-color:#BDC7C6"/>
		<stop  offset="0.69" style="stop-color:#A8B1B0"/>
		<stop  offset="0.8" style="stop-color:#9EA7A6"/>
		<stop  offset="0.97" style="stop-color:#959E9C"/>
		<stop  offset="1" style="stop-color:#ACB6B4"/>
	</linearGradient>
	<path fill="url(#SVGID_32_)" d="M465.578,288.144h63c0.75,0,0.789-0.191,0.789-0.445c-0.039-1.055-0.277-1.023-0.617-1.023
		l-63.172-0.031c-0.75,0-0.75,0.238-0.75,0.492c0,1.008,0.258,1.023,0.598,1.023L465.578,288.144z"/>
	
		<linearGradient id="SVGID_33_" gradientUnits="userSpaceOnUse" x1="245.2515" y1="566.6431" x2="245.2515" y2="564.6226" gradientTransform="matrix(0.75 0 0 0.75 313.1591 -82.5963)">
		<stop  offset="0" style="stop-color:#A5AFAD"/>
		<stop  offset="0.15" style="stop-color:#DBE6E4"/>
		<stop  offset="0.25" style="stop-color:#EBF1F0"/>
		<stop  offset="0.52" style="stop-color:#BDC7C6"/>
		<stop  offset="0.69" style="stop-color:#A8B1B0"/>
		<stop  offset="0.8" style="stop-color:#9EA7A6"/>
		<stop  offset="0.97" style="stop-color:#959E9C"/>
		<stop  offset="1" style="stop-color:#ACB6B4"/>
	</linearGradient>
	<path fill="url(#SVGID_33_)" d="M465.578,342.371h63c0.75,0,0.789-0.191,0.789-0.445c-0.039-1.055-0.277-1.02-0.617-1.02
		l-63.172-0.035c-0.75,0-0.75,0.242-0.75,0.496c0,1.004,0.258,1.02,0.598,1.02L465.578,342.371z"/>
	
		<linearGradient id="SVGID_34_" gradientUnits="userSpaceOnUse" x1="245.2515" y1="566.644" x2="245.2515" y2="564.6248" gradientTransform="matrix(0.75 0 0 0.75 313.1591 -87.526)">
		<stop  offset="0" style="stop-color:#A5AFAD"/>
		<stop  offset="0.15" style="stop-color:#DBE6E4"/>
		<stop  offset="0.25" style="stop-color:#EBF1F0"/>
		<stop  offset="0.52" style="stop-color:#BDC7C6"/>
		<stop  offset="0.69" style="stop-color:#A8B1B0"/>
		<stop  offset="0.8" style="stop-color:#9EA7A6"/>
		<stop  offset="0.97" style="stop-color:#959E9C"/>
		<stop  offset="1" style="stop-color:#ACB6B4"/>
	</linearGradient>
	<path fill="url(#SVGID_34_)" d="M465.578,337.441h63c0.75,0,0.789-0.191,0.789-0.445c-0.039-1.055-0.277-1.02-0.617-1.02
		l-63.172-0.035c-0.75,0-0.75,0.242-0.75,0.496c0,1.004,0.258,1.02,0.598,1.02L465.578,337.441z"/>
	
		<linearGradient id="SVGID_35_" gradientUnits="userSpaceOnUse" x1="245.2515" y1="566.644" x2="245.2515" y2="564.6235" gradientTransform="matrix(0.75 0 0 0.75 313.1591 -92.4562)">
		<stop  offset="0" style="stop-color:#A5AFAD"/>
		<stop  offset="0.15" style="stop-color:#DBE6E4"/>
		<stop  offset="0.25" style="stop-color:#EBF1F0"/>
		<stop  offset="0.52" style="stop-color:#BDC7C6"/>
		<stop  offset="0.69" style="stop-color:#A8B1B0"/>
		<stop  offset="0.8" style="stop-color:#9EA7A6"/>
		<stop  offset="0.97" style="stop-color:#959E9C"/>
		<stop  offset="1" style="stop-color:#ACB6B4"/>
	</linearGradient>
	<path fill="url(#SVGID_35_)" d="M465.578,332.511h63c0.75,0,0.789-0.191,0.789-0.445c-0.039-1.055-0.277-1.02-0.617-1.02
		l-63.172-0.035c-0.75,0-0.75,0.238-0.75,0.496c0,1.004,0.258,1.02,0.598,1.02L465.578,332.511z"/>
	
		<linearGradient id="SVGID_36_" gradientUnits="userSpaceOnUse" x1="245.2515" y1="566.644" x2="245.2515" y2="564.6235" gradientTransform="matrix(0.75 0 0 0.75 313.1591 -97.3859)">
		<stop  offset="0" style="stop-color:#A5AFAD"/>
		<stop  offset="0.15" style="stop-color:#DBE6E4"/>
		<stop  offset="0.25" style="stop-color:#EBF1F0"/>
		<stop  offset="0.52" style="stop-color:#BDC7C6"/>
		<stop  offset="0.69" style="stop-color:#A8B1B0"/>
		<stop  offset="0.8" style="stop-color:#9EA7A6"/>
		<stop  offset="0.97" style="stop-color:#959E9C"/>
		<stop  offset="1" style="stop-color:#ACB6B4"/>
	</linearGradient>
	<path fill="url(#SVGID_36_)" d="M465.578,327.582h63c0.75,0,0.789-0.191,0.789-0.445c-0.039-1.055-0.277-1.02-0.617-1.02
		l-63.172-0.035c-0.75,0-0.75,0.238-0.75,0.496c0,1.004,0.258,1.02,0.598,1.02L465.578,327.582z"/>
	
		<linearGradient id="SVGID_37_" gradientUnits="userSpaceOnUse" x1="245.2515" y1="566.6431" x2="245.2515" y2="564.6226" gradientTransform="matrix(0.75 0 0 0.75 313.1591 -77.6666)">
		<stop  offset="0" style="stop-color:#A5AFAD"/>
		<stop  offset="0.15" style="stop-color:#DBE6E4"/>
		<stop  offset="0.25" style="stop-color:#EBF1F0"/>
		<stop  offset="0.52" style="stop-color:#BDC7C6"/>
		<stop  offset="0.69" style="stop-color:#A8B1B0"/>
		<stop  offset="0.8" style="stop-color:#9EA7A6"/>
		<stop  offset="0.97" style="stop-color:#959E9C"/>
		<stop  offset="1" style="stop-color:#ACB6B4"/>
	</linearGradient>
	<path fill="url(#SVGID_37_)" d="M465.578,347.3h63c0.75,0,0.789-0.191,0.789-0.445c-0.039-1.055-0.277-1.02-0.617-1.02
		l-63.172-0.035c-0.75,0-0.75,0.242-0.75,0.496c0,1.004,0.258,1.02,0.598,1.02L465.578,347.3z"/>
	
		<linearGradient id="SVGID_38_" gradientUnits="userSpaceOnUse" x1="454.6245" y1="396.3384" x2="366.6255" y2="396.3384" gradientTransform="matrix(0 0.75 0.75 0 154.9471 8.8358)">
		<stop  offset="0" style="stop-color:#A5AFAD"/>
		<stop  offset="0.15" style="stop-color:#DBE6E4"/>
		<stop  offset="0.25" style="stop-color:#EBF1F0"/>
		<stop  offset="0.52" style="stop-color:#BDC7C6"/>
		<stop  offset="0.69" style="stop-color:#A8B1B0"/>
		<stop  offset="0.8" style="stop-color:#9EA7A6"/>
		<stop  offset="0.97" style="stop-color:#959E9C"/>
		<stop  offset="1" style="stop-color:#ACB6B4"/>
	</linearGradient>
	<path fill="url(#SVGID_38_)" d="M456.617,349.804c0,0-4.844-1.695-8.699-8.961c-0.301-0.039,0-47.711,0-47.711
		c4.199-7.828,8.699-9.328,8.699-9.328V349.804z"/>
	
		<linearGradient id="SVGID_39_" gradientUnits="userSpaceOnUse" x1="465.104" y1="400.2319" x2="366.6255" y2="400.2319" gradientTransform="matrix(0 0.75 0.75 0 159.412 5.0819)">
		<stop  offset="0" style="stop-color:#99A5A3"/>
		<stop  offset="0.15" style="stop-color:#CCDBD8"/>
		<stop  offset="0.25" style="stop-color:#E3EBE9"/>
		<stop  offset="0.52" style="stop-color:#AFBDBA"/>
		<stop  offset="0.69" style="stop-color:#9BA8A6"/>
		<stop  offset="0.8" style="stop-color:#929E9C"/>
		<stop  offset="0.97" style="stop-color:#8A9593"/>
		<stop  offset="1" style="stop-color:#9FACA9"/>
	</linearGradient>
	<path fill="url(#SVGID_39_)" d="M459.582,353.55h-1.5v-73.5h1.5c0.75,0,1.508,0.359,1.508,0.766l-0.008,71.984
		c0,0.75-0.688,1.109-1.543,1.109L459.582,353.55z"/>
	
		<linearGradient id="SVGID_40_" gradientUnits="userSpaceOnUse" x1="465.104" y1="400.5122" x2="366.6255" y2="400.5122" gradientTransform="matrix(0 0.75 0.75 0 157.1093 5.0819)">
		<stop  offset="0" style="stop-color:#A5AFAD"/>
		<stop  offset="0.15" style="stop-color:#DBE6E4"/>
		<stop  offset="0.25" style="stop-color:#EBF1F0"/>
		<stop  offset="0.52" style="stop-color:#BDC7C6"/>
		<stop  offset="0.69" style="stop-color:#A8B1B0"/>
		<stop  offset="0.8" style="stop-color:#9EA7A6"/>
		<stop  offset="0.97" style="stop-color:#959E9C"/>
		<stop  offset="1" style="stop-color:#ACB6B4"/>
	</linearGradient>
	<path fill="url(#SVGID_40_)" d="M458.027,353.55c-1.5,0-1.852,0.023-1.852-0.383l0.352-72.367c0-0.75,0.078-0.75,0.605-0.75
		c0.895,0,1.68,0.359,1.68,0.766l-0.035,71.984c0,0.75-0.395,1.109-0.922,1.109L458.027,353.55z"/>
	
		<linearGradient id="SVGID_41_" gradientUnits="userSpaceOnUse" x1="166.2051" y1="566.6245" x2="166.2051" y2="503.6245" gradientTransform="matrix(-0.75 0 0 0.75 573.0509 -84.7848)">
		<stop  offset="0" style="stop-color:#979DA0"/>
		<stop  offset="0.15" style="stop-color:#CAD1D4"/>
		<stop  offset="0.25" style="stop-color:#E2E6E7"/>
		<stop  offset="0.52" style="stop-color:#ADB4B7"/>
		<stop  offset="0.69" style="stop-color:#9AA0A2"/>
		<stop  offset="0.8" style="stop-color:#919799"/>
		<stop  offset="0.97" style="stop-color:#898E90"/>
		<stop  offset="1" style="stop-color:#9DA4A6"/>
	</linearGradient>
	<path fill="url(#SVGID_41_)" d="M448.023,340.183v-47.25h0.75v47.25H448.023z"/>
	
		<linearGradient id="SVGID_42_" gradientUnits="userSpaceOnUse" x1="168.2002" y1="566.6245" x2="168.2002" y2="501.2603" gradientTransform="matrix(-0.75 0 0 0.75 572.1661 -83.4757)">
		<stop  offset="0" style="stop-color:#A5AFAD"/>
		<stop  offset="0.15" style="stop-color:#DBE6E4"/>
		<stop  offset="0.25" style="stop-color:#EBF1F0"/>
		<stop  offset="0.52" style="stop-color:#BDC7C6"/>
		<stop  offset="0.69" style="stop-color:#A8B1B0"/>
		<stop  offset="0.8" style="stop-color:#9EA7A6"/>
		<stop  offset="0.97" style="stop-color:#959E9C"/>
		<stop  offset="1" style="stop-color:#ACB6B4"/>
	</linearGradient>
	<path fill="url(#SVGID_42_)" d="M446.386,341.492c-1.5,0-2.016-0.723-2.016-1.613l-0.234-45.637c0-0.75,0.961-1.773,1.855-1.773
		c1.145,0.273,1.906,0.738,1.906,1.633l-0.012,45.891c0,0.75-0.715,1.5-1.609,1.5H446.386z"/>
</g>
</svg>
