<?xml version="1.0" encoding="utf-8"?>
<!-- Generator: Adobe Illustrator 16.0.0, SVG Export Plug-In . SVG Version: 6.00 Build 0)  -->
<!DOCTYPE svg PUBLIC "-//W3C//DTD SVG 1.1//EN" "http://www.w3.org/Graphics/SVG/1.1/DTD/svg11.dtd">
<svg preserveAspectRatio="none"   version="1.1" id="图层_1" xmlns="http://www.w3.org/2000/svg" xmlns:xlink="http://www.w3.org/1999/xlink" x="0px" y="0px"
	 width="178.515px" height="552.355px" viewBox="194.207 7.234 178.515 552.355"
	 enable-background="new 194.207 7.234 178.515 552.355" xml:space="preserve">
<g id="surface36">
	
		<linearGradient id="SVGID_1_" gradientUnits="userSpaceOnUse" x1="356.2251" y1="188.8047" x2="202.2261" y2="188.8047" gradientTransform="matrix(0.75 0 0 -0.75 73.9823 166.4669)">
		<stop  offset="0" style="stop-color:#BC9A6B"/>
		<stop  offset="0.15" style="stop-color:#F4D6B0"/>
		<stop  offset="0.25" style="stop-color:#F5D9B7"/>
		<stop  offset="0.52" style="stop-color:#D3AD79"/>
		<stop  offset="0.69" style="stop-color:#BC9A6B"/>
		<stop  offset="0.8" style="stop-color:#B19165"/>
		<stop  offset="0.92" style="stop-color:#A7895F"/>
	</linearGradient>
	<path fill="url(#SVGID_1_)" d="M225.652,15.488h115.5v18.75h-115.5V15.488z"/>
	
		<linearGradient id="SVGID_2_" gradientUnits="userSpaceOnUse" x1="375.2212" y1="-151.1973" x2="202.2227" y2="-151.1973" gradientTransform="matrix(0.75 0 0 -0.75 66.9222 181.7072)">
		<stop  offset="0" style="stop-color:#C7AD86"/>
		<stop  offset="0.15" style="stop-color:#FFE6C5"/>
		<stop  offset="0.25" style="stop-color:#FFE8C9"/>
		<stop  offset="0.52" style="stop-color:#DFC297"/>
		<stop  offset="0.69" style="stop-color:#C7AD86"/>
		<stop  offset="0.8" style="stop-color:#BCA37E"/>
		<stop  offset="0.92" style="stop-color:#B19A77"/>
	</linearGradient>
	<path fill="url(#SVGID_2_)" d="M348.339,30.73v528.75H218.59V30.73H348.339z"/>
	
		<linearGradient id="SVGID_3_" gradientUnits="userSpaceOnUse" x1="236.2266" y1="191.3037" x2="202.2266" y2="191.3037" gradientTransform="matrix(0.75 0 0 -0.75 55.474 166.3878)">
		<stop  offset="0" style="stop-color:#B5A080"/>
		<stop  offset="0.52" style="stop-color:#CCB491"/>
		<stop  offset="0.69" style="stop-color:#B5A080"/>
		<stop  offset="0.8" style="stop-color:#AB9779"/>
		<stop  offset="0.92" style="stop-color:#A18E72"/>
	</linearGradient>
	<path fill="url(#SVGID_3_)" d="M207.145,15.41c0,0,12.918,1.078,18.375,3.367l0.375,11.633h6.75v-15H207.145z"/>
	
		<linearGradient id="SVGID_4_" gradientUnits="userSpaceOnUse" x1="199.7051" y1="191.3066" x2="165.7051" y2="191.3066" gradientTransform="matrix(-0.75 0 0 -0.75 487.005 166.3224)">
		<stop  offset="0" style="stop-color:#9B805C"/>
		<stop  offset="0.52" style="stop-color:#AE9068"/>
		<stop  offset="0.69" style="stop-color:#9B805C"/>
		<stop  offset="0.8" style="stop-color:#927856"/>
		<stop  offset="0.92" style="stop-color:#897151"/>
	</linearGradient>
	<path fill="url(#SVGID_4_)" d="M362.726,15.344c0,0-12.918,1.082-18.375,3.367l-0.375,11.633h-6.75v-15H362.726z"/>
	<path fill="#F4DBB8" d="M259.004,15.344c0,0,1.031,0.641,3.5,3.367l0.25,11.633h4.5v-15H259.004z"/>
	
		<linearGradient id="SVGID_5_" gradientUnits="userSpaceOnUse" x1="212.6831" y1="191.3066" x2="202.2046" y2="191.3066" gradientTransform="matrix(0.75 0 0 -0.75 102.9911 166.3224)">
		<stop  offset="0" style="stop-color:#9B805C"/>
		<stop  offset="0.52" style="stop-color:#AE9068"/>
		<stop  offset="0.69" style="stop-color:#9B805C"/>
		<stop  offset="0.8" style="stop-color:#927856"/>
		<stop  offset="0.92" style="stop-color:#897151"/>
	</linearGradient>
	<path fill="url(#SVGID_5_)" d="M259.16,15.344c0,0,2.785,0.551,3.344,3.367l-0.344,11.633h-3v-12c0,0,0.602-1.945-4.516-3H259.16z"
		/>
	
		<linearGradient id="SVGID_6_" gradientUnits="userSpaceOnUse" x1="176.7021" y1="191.3066" x2="165.7021" y2="191.3066" gradientTransform="matrix(-0.75 0 0 -0.75 440.9757 166.3224)">
		<stop  offset="0" style="stop-color:#9B805C"/>
		<stop  offset="0.52" style="stop-color:#AE9068"/>
		<stop  offset="0.69" style="stop-color:#9B805C"/>
		<stop  offset="0.8" style="stop-color:#927856"/>
		<stop  offset="0.92" style="stop-color:#897151"/>
	</linearGradient>
	<path fill="url(#SVGID_6_)" d="M316.699,15.344c0,0-1.031,0.641-3.5,3.367l-0.25,11.633h-4.5v-15H316.699z"/>
	<path fill="#FCE5CA" d="M316.542,15.344c0,0-2.785,0.551-3.344,3.367l0.344,11.633h3v-12c0,0-0.602-1.945,4.516-3H316.542z"/>
	
		<linearGradient id="SVGID_7_" gradientUnits="userSpaceOnUse" x1="399.8403" y1="193.2158" x2="202.2227" y2="193.2158" gradientTransform="matrix(0.75 0 0 -0.75 57.6996 698.4366)">
		<stop  offset="0" style="stop-color:#BEA277"/>
		<stop  offset="0.15" style="stop-color:#F7DDB9"/>
		<stop  offset="0.25" style="stop-color:#F7DFBF"/>
		<stop  offset="0.52" style="stop-color:#D6B686"/>
		<stop  offset="0.69" style="stop-color:#BEA277"/>
		<stop  offset="0.8" style="stop-color:#B39870"/>
		<stop  offset="0.92" style="stop-color:#A99069"/>
	</linearGradient>
	<path fill="url(#SVGID_7_)" d="M215.367,547.46h136.5c3,0,5.691,2.715,5.691,6.063c0.309,3.688-2.707,6.066-6,6.066l-136.191-0.129
		c-3,0-6-2.586-6-5.938c0-3.063,2.672-6.063,5.965-6.063H215.367z"/>
	
		<linearGradient id="SVGID_8_" gradientUnits="userSpaceOnUse" x1="440.2437" y1="195.8779" x2="202.2231" y2="195.8779" gradientTransform="matrix(0.75 0 0 -0.75 42.5389 158.3224)">
		<stop  offset="0" style="stop-color:#C7AD86"/>
		<stop  offset="0.15" style="stop-color:#FFE6C5"/>
		<stop  offset="0.25" style="stop-color:#FFE8C9"/>
		<stop  offset="0.52" style="stop-color:#DFC297"/>
		<stop  offset="0.69" style="stop-color:#C7AD86"/>
		<stop  offset="0.8" style="stop-color:#BCA37E"/>
		<stop  offset="0.92" style="stop-color:#B19A77"/>
	</linearGradient>
	<path fill="url(#SVGID_8_)" d="M197.957,7.344h171c1.5,0,3.766,1.719,3.766,3.977c-0.016,2.023-1.914,4.086-4.133,4.086
		l-170.632,0.188c-2.25,0-3.75-2.016-3.75-4.273c0-2.477,1.785-4.086,4.004-4.086L197.957,7.344z"/>
	
		<linearGradient id="SVGID_9_" gradientUnits="userSpaceOnUse" x1="209.2275" y1="159.8047" x2="202.2275" y2="159.8047" gradientTransform="matrix(0.75 0 0 -0.75 48.1454 242.2169)">
		<stop  offset="0" style="stop-color:#B9B9B9"/>
		<stop  offset="0.15" style="stop-color:#F2F2F2"/>
		<stop  offset="0.25" style="stop-color:#F3F3F3"/>
		<stop  offset="0.52" style="stop-color:#D0D0D0"/>
		<stop  offset="0.69" style="stop-color:#B9B9B9"/>
		<stop  offset="0.8" style="stop-color:#AFAFAF"/>
		<stop  offset="0.92" style="stop-color:#A5A5A5"/>
	</linearGradient>
	<path fill="url(#SVGID_9_)" d="M202.066,91.238h0.75c0.75,0,1.949,1.559,1.949,3.563l0.301,58.688h-5.25v-58.5
		c0-2.25,0.863-3.75,1.961-3.75H202.066z"/>
	
		<linearGradient id="SVGID_10_" gradientUnits="userSpaceOnUse" x1="209.2246" y1="159.8047" x2="202.2246" y2="159.8047" gradientTransform="matrix(0.75 0 0 -0.75 66.1864 242.2169)">
		<stop  offset="0" style="stop-color:#B9B9B9"/>
		<stop  offset="0.15" style="stop-color:#F2F2F2"/>
		<stop  offset="0.25" style="stop-color:#F3F3F3"/>
		<stop  offset="0.52" style="stop-color:#D0D0D0"/>
		<stop  offset="0.69" style="stop-color:#B9B9B9"/>
		<stop  offset="0.8" style="stop-color:#AFAFAF"/>
		<stop  offset="0.92" style="stop-color:#A5A5A5"/>
	</linearGradient>
	<path fill="url(#SVGID_10_)" d="M220.105,91.238h0.75c0.75,0,1.953,1.559,1.953,3.563l0.297,58.688h-5.25v-58.5
		c0-2.25,0.863-3.75,1.965-3.75H220.105z"/>
	
		<linearGradient id="SVGID_11_" gradientUnits="userSpaceOnUse" x1="209.2275" y1="159.8047" x2="202.2275" y2="159.8047" gradientTransform="matrix(0.75 0 0 -0.75 84.2274 242.2169)">
		<stop  offset="0" style="stop-color:#B9B9B9"/>
		<stop  offset="0.15" style="stop-color:#F2F2F2"/>
		<stop  offset="0.25" style="stop-color:#F3F3F3"/>
		<stop  offset="0.52" style="stop-color:#D0D0D0"/>
		<stop  offset="0.69" style="stop-color:#B9B9B9"/>
		<stop  offset="0.8" style="stop-color:#AFAFAF"/>
		<stop  offset="0.92" style="stop-color:#A5A5A5"/>
	</linearGradient>
	<path fill="url(#SVGID_11_)" d="M238.148,91.238h0.75c0.75,0,1.949,1.559,1.949,3.563l0.301,58.688h-5.25v-58.5
		c0-2.25,0.863-3.75,1.961-3.75H238.148z"/>
	
		<linearGradient id="SVGID_12_" gradientUnits="userSpaceOnUse" x1="209.2246" y1="159.8047" x2="202.2246" y2="159.8047" gradientTransform="matrix(0.75 0 0 -0.75 102.2684 242.2169)">
		<stop  offset="0" style="stop-color:#B9B9B9"/>
		<stop  offset="0.15" style="stop-color:#F2F2F2"/>
		<stop  offset="0.25" style="stop-color:#F3F3F3"/>
		<stop  offset="0.52" style="stop-color:#D0D0D0"/>
		<stop  offset="0.69" style="stop-color:#B9B9B9"/>
		<stop  offset="0.8" style="stop-color:#AFAFAF"/>
		<stop  offset="0.92" style="stop-color:#A5A5A5"/>
	</linearGradient>
	<path fill="url(#SVGID_12_)" d="M256.188,91.238h0.75c0.75,0,1.953,1.559,1.953,3.563l0.297,58.688h-5.25v-58.5
		c0-2.25,0.863-3.75,1.965-3.75H256.188z"/>
	
		<linearGradient id="SVGID_13_" gradientUnits="userSpaceOnUse" x1="209.2227" y1="159.8047" x2="202.2227" y2="159.8047" gradientTransform="matrix(0.75 0 0 -0.75 120.3094 242.2169)">
		<stop  offset="0" style="stop-color:#B9B9B9"/>
		<stop  offset="0.15" style="stop-color:#F2F2F2"/>
		<stop  offset="0.25" style="stop-color:#F3F3F3"/>
		<stop  offset="0.52" style="stop-color:#D0D0D0"/>
		<stop  offset="0.69" style="stop-color:#B9B9B9"/>
		<stop  offset="0.8" style="stop-color:#AFAFAF"/>
		<stop  offset="0.92" style="stop-color:#A5A5A5"/>
	</linearGradient>
	<path fill="url(#SVGID_13_)" d="M274.227,91.238h0.75c0.75,0,1.953,1.559,1.953,3.563l0.297,58.688h-5.25v-58.5
		c0-2.25,0.867-3.75,1.965-3.75H274.227z"/>
	
		<linearGradient id="SVGID_14_" gradientUnits="userSpaceOnUse" x1="209.2246" y1="159.8047" x2="202.2246" y2="159.8047" gradientTransform="matrix(0.75 0 0 -0.75 138.3505 242.2169)">
		<stop  offset="0" style="stop-color:#B9B9B9"/>
		<stop  offset="0.15" style="stop-color:#F2F2F2"/>
		<stop  offset="0.25" style="stop-color:#F3F3F3"/>
		<stop  offset="0.52" style="stop-color:#D0D0D0"/>
		<stop  offset="0.69" style="stop-color:#B9B9B9"/>
		<stop  offset="0.8" style="stop-color:#AFAFAF"/>
		<stop  offset="0.92" style="stop-color:#A5A5A5"/>
	</linearGradient>
	<path fill="url(#SVGID_14_)" d="M292.269,91.238h0.75c0.75,0,1.953,1.559,1.953,3.563l0.297,58.688h-5.25v-58.5
		c0-2.25,0.863-3.75,1.965-3.75H292.269z"/>
	
		<linearGradient id="SVGID_15_" gradientUnits="userSpaceOnUse" x1="209.2217" y1="159.8047" x2="202.2217" y2="159.8047" gradientTransform="matrix(0.75 0 0 -0.75 156.3915 242.2169)">
		<stop  offset="0" style="stop-color:#B9B9B9"/>
		<stop  offset="0.15" style="stop-color:#F2F2F2"/>
		<stop  offset="0.25" style="stop-color:#F3F3F3"/>
		<stop  offset="0.52" style="stop-color:#D0D0D0"/>
		<stop  offset="0.69" style="stop-color:#B9B9B9"/>
		<stop  offset="0.8" style="stop-color:#AFAFAF"/>
		<stop  offset="0.92" style="stop-color:#A5A5A5"/>
	</linearGradient>
	<path fill="url(#SVGID_15_)" d="M310.308,91.238h0.75c0.75,0,1.953,1.559,1.953,3.563l0.297,58.688h-5.25v-58.5
		c0-2.25,0.867-3.75,1.965-3.75H310.308z"/>
	
		<linearGradient id="SVGID_16_" gradientUnits="userSpaceOnUse" x1="209.2246" y1="159.8047" x2="202.2246" y2="159.8047" gradientTransform="matrix(0.75 0 0 -0.75 174.4325 242.2169)">
		<stop  offset="0" style="stop-color:#B9B9B9"/>
		<stop  offset="0.15" style="stop-color:#F2F2F2"/>
		<stop  offset="0.25" style="stop-color:#F3F3F3"/>
		<stop  offset="0.52" style="stop-color:#D0D0D0"/>
		<stop  offset="0.69" style="stop-color:#B9B9B9"/>
		<stop  offset="0.8" style="stop-color:#AFAFAF"/>
		<stop  offset="0.92" style="stop-color:#A5A5A5"/>
	</linearGradient>
	<path fill="url(#SVGID_16_)" d="M328.351,91.238h0.75c0.75,0,1.949,1.559,1.949,3.563l0.301,58.688h-5.25v-58.5
		c0-2.25,0.863-3.75,1.965-3.75H328.351z"/>
	
		<linearGradient id="SVGID_17_" gradientUnits="userSpaceOnUse" x1="209.2217" y1="159.8047" x2="202.2217" y2="159.8047" gradientTransform="matrix(0.75 0 0 -0.75 192.4735 242.2169)">
		<stop  offset="0" style="stop-color:#B9B9B9"/>
		<stop  offset="0.15" style="stop-color:#F2F2F2"/>
		<stop  offset="0.25" style="stop-color:#F3F3F3"/>
		<stop  offset="0.52" style="stop-color:#D0D0D0"/>
		<stop  offset="0.69" style="stop-color:#B9B9B9"/>
		<stop  offset="0.8" style="stop-color:#AFAFAF"/>
		<stop  offset="0.92" style="stop-color:#A5A5A5"/>
	</linearGradient>
	<path fill="url(#SVGID_17_)" d="M346.39,91.238h0.75c0.75,0,1.953,1.559,1.953,3.563l0.297,58.688h-5.25v-58.5
		c0-2.25,0.867-3.75,1.965-3.75H346.39z"/>
	
		<linearGradient id="SVGID_18_" gradientUnits="userSpaceOnUse" x1="209.2246" y1="159.8047" x2="202.2246" y2="159.8047" gradientTransform="matrix(0.75 0 0 -0.75 210.5145 242.2169)">
		<stop  offset="0" style="stop-color:#B9B9B9"/>
		<stop  offset="0.15" style="stop-color:#F2F2F2"/>
		<stop  offset="0.25" style="stop-color:#F3F3F3"/>
		<stop  offset="0.52" style="stop-color:#D0D0D0"/>
		<stop  offset="0.69" style="stop-color:#B9B9B9"/>
		<stop  offset="0.8" style="stop-color:#AFAFAF"/>
		<stop  offset="0.92" style="stop-color:#A5A5A5"/>
	</linearGradient>
	<path fill="url(#SVGID_18_)" d="M364.433,91.238h0.75c0.75,0,1.949,1.559,1.949,3.563l0.301,58.688h-5.25v-58.5
		c0-2.25,0.863-3.75,1.965-3.75H364.433z"/>
	
		<linearGradient id="SVGID_19_" gradientUnits="userSpaceOnUse" x1="315.7261" y1="201.3018" x2="315.7261" y2="194.3018" gradientTransform="matrix(0.75 0 0 -0.75 46.6429 252.7032)">
		<stop  offset="0" style="stop-color:#B9B9B9"/>
		<stop  offset="0.15" style="stop-color:#F2F2F2"/>
		<stop  offset="0.25" style="stop-color:#F3F3F3"/>
		<stop  offset="0.52" style="stop-color:#D0D0D0"/>
		<stop  offset="0.69" style="stop-color:#B9B9B9"/>
		<stop  offset="0.8" style="stop-color:#AFAFAF"/>
		<stop  offset="0.92" style="stop-color:#A5A5A5"/>
	</linearGradient>
	<path fill="url(#SVGID_19_)" d="M198.313,101.727h170.25v5.25h-170.25V101.727z"/>
	
		<linearGradient id="SVGID_20_" gradientUnits="userSpaceOnUse" x1="208.2461" y1="198.2559" x2="202.1777" y2="198.2559" gradientTransform="matrix(0.75 0 0 -0.75 66.8427 253.1622)">
		<stop  offset="0" style="stop-color:#7A7B7B"/>
		<stop  offset="0.15" style="stop-color:#BBBCBC"/>
		<stop  offset="0.25" style="stop-color:#C1C1C1"/>
		<stop  offset="0.52" style="stop-color:#8A8B8B"/>
		<stop  offset="0.69" style="stop-color:#7A7B7B"/>
		<stop  offset="0.8" style="stop-color:#737474"/>
		<stop  offset="0.92" style="stop-color:#6C6D6D"/>
	</linearGradient>
	<path fill="url(#SVGID_20_)" stroke="#9E9F9F" stroke-width="0.25" stroke-linejoin="bevel" stroke-miterlimit="10" d="
		M218.512,104.434c0-1.5,0.984-2.277,2.238-2.277c1.512,0.027,2.277,1.035,2.277,2.316c-0.016,1.461-1.02,2.313-2.277,2.313
		c-1.488-0.102-2.273-1.035-2.273-2.313L218.512,104.434z"/>
	
		<linearGradient id="SVGID_21_" gradientUnits="userSpaceOnUse" x1="208.2451" y1="198.2559" x2="202.1777" y2="198.2559" gradientTransform="matrix(0.75 0 0 -0.75 48.7572 253.1622)">
		<stop  offset="0" style="stop-color:#7A7B7B"/>
		<stop  offset="0.15" style="stop-color:#BBBCBC"/>
		<stop  offset="0.25" style="stop-color:#C1C1C1"/>
		<stop  offset="0.52" style="stop-color:#8A8B8B"/>
		<stop  offset="0.69" style="stop-color:#7A7B7B"/>
		<stop  offset="0.8" style="stop-color:#737474"/>
		<stop  offset="0.92" style="stop-color:#6C6D6D"/>
	</linearGradient>
	<path fill="url(#SVGID_21_)" stroke="#9E9F9F" stroke-width="0.25" stroke-linejoin="bevel" stroke-miterlimit="10" d="
		M200.426,104.434c0-1.5,0.984-2.277,2.238-2.277c1.512,0.027,2.277,1.035,2.277,2.316c-0.016,1.461-1.02,2.313-2.277,2.313
		c-1.488-0.102-2.273-1.035-2.273-2.313L200.426,104.434z"/>
	
		<linearGradient id="SVGID_22_" gradientUnits="userSpaceOnUse" x1="208.2466" y1="198.2559" x2="202.1792" y2="198.2559" gradientTransform="matrix(0.75 0 0 -0.75 84.9281 253.1622)">
		<stop  offset="0" style="stop-color:#7A7B7B"/>
		<stop  offset="0.15" style="stop-color:#BBBCBC"/>
		<stop  offset="0.25" style="stop-color:#C1C1C1"/>
		<stop  offset="0.52" style="stop-color:#8A8B8B"/>
		<stop  offset="0.69" style="stop-color:#7A7B7B"/>
		<stop  offset="0.8" style="stop-color:#737474"/>
		<stop  offset="0.92" style="stop-color:#6C6D6D"/>
	</linearGradient>
	<path fill="url(#SVGID_22_)" stroke="#9E9F9F" stroke-width="0.25" stroke-linejoin="bevel" stroke-miterlimit="10" d="
		M236.598,104.434c0-1.5,0.984-2.277,2.238-2.277c1.512,0.027,2.277,1.035,2.277,2.316c-0.016,1.461-1.02,2.313-2.277,2.313
		c-1.488-0.102-2.273-1.035-2.273-2.313L236.598,104.434z"/>
	
		<linearGradient id="SVGID_23_" gradientUnits="userSpaceOnUse" x1="208.2427" y1="198.2559" x2="202.1802" y2="198.2559" gradientTransform="matrix(0.75 0 0 -0.75 103.0131 253.1622)">
		<stop  offset="0" style="stop-color:#7A7B7B"/>
		<stop  offset="0.15" style="stop-color:#BBBCBC"/>
		<stop  offset="0.25" style="stop-color:#C1C1C1"/>
		<stop  offset="0.52" style="stop-color:#8A8B8B"/>
		<stop  offset="0.69" style="stop-color:#7A7B7B"/>
		<stop  offset="0.8" style="stop-color:#737474"/>
		<stop  offset="0.92" style="stop-color:#6C6D6D"/>
	</linearGradient>
	<path fill="url(#SVGID_23_)" stroke="#9E9F9F" stroke-width="0.25" stroke-linejoin="bevel" stroke-miterlimit="10" d="
		M254.684,104.434c0-1.5,0.98-2.277,2.238-2.277c1.512,0.027,2.273,1.035,2.273,2.316c-0.012,1.461-1.016,2.313-2.273,2.313
		c-1.488-0.102-2.273-1.035-2.273-2.313L254.684,104.434z"/>
	
		<linearGradient id="SVGID_24_" gradientUnits="userSpaceOnUse" x1="208.2432" y1="198.2559" x2="202.1758" y2="198.2559" gradientTransform="matrix(0.75 0 0 -0.75 121.0985 253.1622)">
		<stop  offset="0" style="stop-color:#7A7B7B"/>
		<stop  offset="0.15" style="stop-color:#BBBCBC"/>
		<stop  offset="0.25" style="stop-color:#C1C1C1"/>
		<stop  offset="0.52" style="stop-color:#8A8B8B"/>
		<stop  offset="0.69" style="stop-color:#7A7B7B"/>
		<stop  offset="0.8" style="stop-color:#737474"/>
		<stop  offset="0.92" style="stop-color:#6C6D6D"/>
	</linearGradient>
	<path fill="url(#SVGID_24_)" stroke="#9E9F9F" stroke-width="0.25" stroke-linejoin="bevel" stroke-miterlimit="10" d="
		M272.77,104.434c0-1.5,0.98-2.277,2.238-2.277c1.512,0.027,2.273,1.035,2.273,2.316c-0.012,1.461-1.016,2.313-2.273,2.313
		c-1.488-0.102-2.277-1.035-2.277-2.313L272.77,104.434z"/>
	
		<linearGradient id="SVGID_25_" gradientUnits="userSpaceOnUse" x1="208.2437" y1="198.2559" x2="202.1763" y2="198.2559" gradientTransform="matrix(0.75 0 0 -0.75 157.2694 253.1622)">
		<stop  offset="0" style="stop-color:#7A7B7B"/>
		<stop  offset="0.15" style="stop-color:#BBBCBC"/>
		<stop  offset="0.25" style="stop-color:#C1C1C1"/>
		<stop  offset="0.52" style="stop-color:#8A8B8B"/>
		<stop  offset="0.69" style="stop-color:#7A7B7B"/>
		<stop  offset="0.8" style="stop-color:#737474"/>
		<stop  offset="0.92" style="stop-color:#6C6D6D"/>
	</linearGradient>
	<path fill="url(#SVGID_25_)" stroke="#9E9F9F" stroke-width="0.25" stroke-linejoin="bevel" stroke-miterlimit="10" d="
		M308.937,104.434c0-1.5,0.984-2.277,2.242-2.277c1.508,0.027,2.273,1.035,2.273,2.316c-0.016,1.461-1.02,2.313-2.273,2.313
		c-1.492-0.102-2.277-1.035-2.277-2.313L308.937,104.434z"/>
	
		<linearGradient id="SVGID_26_" gradientUnits="userSpaceOnUse" x1="208.2432" y1="198.2559" x2="202.1758" y2="198.2559" gradientTransform="matrix(0.75 0 0 -0.75 139.184 253.1622)">
		<stop  offset="0" style="stop-color:#7A7B7B"/>
		<stop  offset="0.15" style="stop-color:#BBBCBC"/>
		<stop  offset="0.25" style="stop-color:#C1C1C1"/>
		<stop  offset="0.52" style="stop-color:#8A8B8B"/>
		<stop  offset="0.69" style="stop-color:#7A7B7B"/>
		<stop  offset="0.8" style="stop-color:#737474"/>
		<stop  offset="0.92" style="stop-color:#6C6D6D"/>
	</linearGradient>
	<path fill="url(#SVGID_26_)" stroke="#9E9F9F" stroke-width="0.25" stroke-linejoin="bevel" stroke-miterlimit="10" d="
		M290.851,104.434c0-1.5,0.984-2.277,2.242-2.277c1.508,0.027,2.273,1.035,2.273,2.316c-0.016,1.461-1.02,2.313-2.273,2.313
		c-1.492-0.102-2.277-1.035-2.277-2.313L290.851,104.434z"/>
	
		<linearGradient id="SVGID_27_" gradientUnits="userSpaceOnUse" x1="208.2456" y1="198.2559" x2="202.1772" y2="198.2559" gradientTransform="matrix(0.75 0 0 -0.75 175.3544 253.1622)">
		<stop  offset="0" style="stop-color:#7A7B7B"/>
		<stop  offset="0.15" style="stop-color:#BBBCBC"/>
		<stop  offset="0.25" style="stop-color:#C1C1C1"/>
		<stop  offset="0.52" style="stop-color:#8A8B8B"/>
		<stop  offset="0.69" style="stop-color:#7A7B7B"/>
		<stop  offset="0.8" style="stop-color:#737474"/>
		<stop  offset="0.92" style="stop-color:#6C6D6D"/>
	</linearGradient>
	<path fill="url(#SVGID_27_)" stroke="#9E9F9F" stroke-width="0.25" stroke-linejoin="bevel" stroke-miterlimit="10" d="
		M327.023,104.434c0-1.5,0.984-2.277,2.238-2.277c1.512,0.027,2.277,1.035,2.277,2.316c-0.016,1.461-1.02,2.313-2.277,2.313
		c-1.488-0.102-2.273-1.035-2.273-2.313L327.023,104.434z"/>
	
		<linearGradient id="SVGID_28_" gradientUnits="userSpaceOnUse" x1="208.2451" y1="198.2559" x2="202.1777" y2="198.2559" gradientTransform="matrix(0.75 0 0 -0.75 193.4403 253.1622)">
		<stop  offset="0" style="stop-color:#7A7B7B"/>
		<stop  offset="0.15" style="stop-color:#BBBCBC"/>
		<stop  offset="0.25" style="stop-color:#C1C1C1"/>
		<stop  offset="0.52" style="stop-color:#8A8B8B"/>
		<stop  offset="0.69" style="stop-color:#7A7B7B"/>
		<stop  offset="0.8" style="stop-color:#737474"/>
		<stop  offset="0.92" style="stop-color:#6C6D6D"/>
	</linearGradient>
	<path fill="url(#SVGID_28_)" stroke="#9E9F9F" stroke-width="0.25" stroke-linejoin="bevel" stroke-miterlimit="10" d="
		M345.109,104.434c0-1.5,0.984-2.277,2.238-2.277c1.512,0.027,2.277,1.035,2.277,2.316c-0.016,1.461-1.02,2.313-2.277,2.313
		c-1.488-0.102-2.273-1.035-2.273-2.313L345.109,104.434z"/>
	
		<linearGradient id="SVGID_29_" gradientUnits="userSpaceOnUse" x1="208.2451" y1="198.2559" x2="202.1777" y2="198.2559" gradientTransform="matrix(0.75 0 0 -0.75 210.3192 253.1622)">
		<stop  offset="0" style="stop-color:#7A7B7B"/>
		<stop  offset="0.15" style="stop-color:#BBBCBC"/>
		<stop  offset="0.25" style="stop-color:#C1C1C1"/>
		<stop  offset="0.52" style="stop-color:#8A8B8B"/>
		<stop  offset="0.69" style="stop-color:#7A7B7B"/>
		<stop  offset="0.8" style="stop-color:#737474"/>
		<stop  offset="0.92" style="stop-color:#6C6D6D"/>
	</linearGradient>
	<path fill="url(#SVGID_29_)" stroke="#9E9F9F" stroke-width="0.25" stroke-linejoin="bevel" stroke-miterlimit="10" d="
		M361.988,104.434c0-1.5,0.984-2.277,2.238-2.277c1.512,0.027,2.277,1.035,2.277,2.316c-0.016,1.461-1.02,2.313-2.277,2.313
		c-1.488-0.102-2.273-1.035-2.273-2.313L361.988,104.434z"/>
	
		<linearGradient id="SVGID_30_" gradientUnits="userSpaceOnUse" x1="440.2437" y1="195.8779" x2="202.2231" y2="195.8779" gradientTransform="matrix(0.75 0 0 -0.75 42.5389 301.0333)">
		<stop  offset="0" style="stop-color:#C7AD86"/>
		<stop  offset="0.15" style="stop-color:#FFE6C5"/>
		<stop  offset="0.25" style="stop-color:#FFE8C9"/>
		<stop  offset="0.52" style="stop-color:#DFC297"/>
		<stop  offset="0.69" style="stop-color:#C7AD86"/>
		<stop  offset="0.8" style="stop-color:#BCA37E"/>
		<stop  offset="0.92" style="stop-color:#B19A77"/>
	</linearGradient>
	<path fill="url(#SVGID_30_)" d="M197.957,150.055h171c1.5,0,3.766,1.719,3.766,3.977c-0.016,2.023-1.914,4.086-4.133,4.086
		l-170.632,0.188c-2.25,0-3.75-2.02-3.75-4.273c0-2.477,1.785-4.086,4.004-4.086L197.957,150.055z"/>
	
		<linearGradient id="SVGID_31_" gradientUnits="userSpaceOnUse" x1="375.2212" y1="198.8057" x2="202.2227" y2="198.8056" gradientTransform="matrix(0.75 0 0 -0.75 66.9222 309.3927)">
		<stop  offset="0" style="stop-color:#B69F75"/>
		<stop  offset="0.15" style="stop-color:#EFDAB8"/>
		<stop  offset="0.25" style="stop-color:#F0DDBE"/>
		<stop  offset="0.52" style="stop-color:#CDB384"/>
		<stop  offset="0.69" style="stop-color:#B69F75"/>
		<stop  offset="0.8" style="stop-color:#AC966E"/>
		<stop  offset="0.92" style="stop-color:#A28E68"/>
	</linearGradient>
	<path fill="url(#SVGID_31_)" d="M348.339,158.414v3.75H218.59v-3.75H348.339z"/>
</g>
</svg>
