<?xml version="1.0" encoding="utf-8"?>
<!-- Generator: Adobe Illustrator 16.0.0, SVG Export Plug-In . SVG Version: 6.00 Build 0)  -->
<!DOCTYPE svg PUBLIC "-//W3C//DTD SVG 1.1//EN" "http://www.w3.org/Graphics/SVG/1.1/DTD/svg11.dtd">
<svg preserveAspectRatio="none"   version="1.1" id="图层_1" xmlns="http://www.w3.org/2000/svg" xmlns:xlink="http://www.w3.org/1999/xlink" x="0px" y="0px"
	 width="224.515px" height="545.144px" viewBox="171.207 10.84 224.515 545.144"
	 enable-background="new 171.207 10.84 224.515 545.144" xml:space="preserve">
<g id="surface21">
	
		<linearGradient id="SVGID_1_" gradientUnits="userSpaceOnUse" x1="396.2251" y1="185.8076" x2="202.2256" y2="185.8076" gradientTransform="matrix(0.75 0 0 -0.75 59.0839 257.9366)">
		<stop  offset="0" style="stop-color:#BC9A6B"/>
		<stop  offset="0.15" style="stop-color:#F4D6B0"/>
		<stop  offset="0.25" style="stop-color:#F5D9B7"/>
		<stop  offset="0.52" style="stop-color:#D3AD79"/>
		<stop  offset="0.69" style="stop-color:#BC9A6B"/>
		<stop  offset="0.8" style="stop-color:#B19165"/>
		<stop  offset="0.92" style="stop-color:#A7895F"/>
	</linearGradient>
	<path fill="url(#SVGID_1_)" d="M210.754,106.957h145.5v23.25h-145.5V106.957z"/>
	
		<linearGradient id="SVGID_2_" gradientUnits="userSpaceOnUse" x1="397.4946" y1="193.8037" x2="202.2241" y2="193.8037" gradientTransform="matrix(0.75 0 0 -0.75 58.5692 409.5978)">
		<stop  offset="0" style="stop-color:#AC9890"/>
		<stop  offset="0.15" style="stop-color:#E6D4CD"/>
		<stop  offset="0.25" style="stop-color:#E8D7D1"/>
		<stop  offset="0.52" style="stop-color:#C1ABA2"/>
		<stop  offset="0.69" style="stop-color:#AC9890"/>
		<stop  offset="0.8" style="stop-color:#A28F88"/>
		<stop  offset="0.92" style="stop-color:#998780"/>
	</linearGradient>
	<path fill="url(#SVGID_2_)" d="M213.988,258.621h138.75c2.25,0,3.953,1.121,3.953,2.508l-0.203,5.742
		c0,1.5-1.461,2.734-3.516,2.734l-138.984,0.266c-2.25,0-3.75-1.391-3.75-2.777v-6.223c0-1.5,1.664-2.25,3.719-2.25H213.988z"/>
	
		<linearGradient id="SVGID_3_" gradientUnits="userSpaceOnUse" x1="420.2261" y1="-77.6973" x2="202.2271" y2="-77.6973" gradientTransform="matrix(0.75 0 0 -0.75 50.2045 276.6173)">
		<stop  offset="0" style="stop-color:#C7AD86"/>
		<stop  offset="0.15" style="stop-color:#FFE6C5"/>
		<stop  offset="0.25" style="stop-color:#FFE8C9"/>
		<stop  offset="0.52" style="stop-color:#DFC297"/>
		<stop  offset="0.69" style="stop-color:#C7AD86"/>
		<stop  offset="0.8" style="stop-color:#BCA37E"/>
		<stop  offset="0.92" style="stop-color:#B19A77"/>
	</linearGradient>
	<path fill="url(#SVGID_3_)" d="M365.375,125.641v418.5h-163.5v-418.5H365.375z"/>
	
		<linearGradient id="SVGID_4_" gradientUnits="userSpaceOnUse" x1="244.2227" y1="188.8037" x2="202.2227" y2="188.8037" gradientTransform="matrix(0.75 0 0 -0.75 35.6805 257.84)">
		<stop  offset="0" style="stop-color:#B5A080"/>
		<stop  offset="0.52" style="stop-color:#CCB491"/>
		<stop  offset="0.69" style="stop-color:#B5A080"/>
		<stop  offset="0.8" style="stop-color:#AB9779"/>
		<stop  offset="0.92" style="stop-color:#A18E72"/>
	</linearGradient>
	<path fill="url(#SVGID_4_)" d="M187.348,106.863c0,0,16.25,1.32,23.113,4.125l0.137,14.625h8.25v-18.75H187.348z"/>
	
		<linearGradient id="SVGID_5_" gradientUnits="userSpaceOnUse" x1="207.7041" y1="188.8027" x2="165.7041" y2="188.8027" gradientTransform="matrix(-0.75 0 0 -0.75 507.3048 257.7609)">
		<stop  offset="0" style="stop-color:#9B805C"/>
		<stop  offset="0.52" style="stop-color:#AE9068"/>
		<stop  offset="0.69" style="stop-color:#9B805C"/>
		<stop  offset="0.8" style="stop-color:#927856"/>
		<stop  offset="0.92" style="stop-color:#897151"/>
	</linearGradient>
	<path fill="url(#SVGID_5_)" d="M383.027,106.785c0,0-16.246,1.32-23.109,4.125l-0.141,14.625h-8.25v-18.75H383.027z"/>
	<path fill="#F4DBB8" d="M252.574,106.785c0,0,1.301,0.781,4.402,4.125l0.098,14.625h6v-18.75H252.574z"/>
	
		<linearGradient id="SVGID_6_" gradientUnits="userSpaceOnUse" x1="215.3789" y1="188.8027" x2="202.1963" y2="188.8027" gradientTransform="matrix(0.75 0 0 -0.75 95.4423 257.7609)">
		<stop  offset="0" style="stop-color:#9B805C"/>
		<stop  offset="0.52" style="stop-color:#AE9068"/>
		<stop  offset="0.69" style="stop-color:#9B805C"/>
		<stop  offset="0.8" style="stop-color:#927856"/>
		<stop  offset="0.92" style="stop-color:#897151"/>
	</linearGradient>
	<path fill="url(#SVGID_6_)" d="M252.363,106.785c0,0,3.914,0.672,4.613,4.125l-0.113,14.625h-3.75v-14.25
		c0,0,0.418-3.211-6.023-4.5H252.363z"/>
	
		<linearGradient id="SVGID_7_" gradientUnits="userSpaceOnUse" x1="179.7041" y1="188.8027" x2="165.7041" y2="188.8027" gradientTransform="matrix(-0.75 0 0 -0.75 449.4142 257.7609)">
		<stop  offset="0" style="stop-color:#9B805C"/>
		<stop  offset="0.52" style="stop-color:#AE9068"/>
		<stop  offset="0.69" style="stop-color:#9B805C"/>
		<stop  offset="0.8" style="stop-color:#927856"/>
		<stop  offset="0.92" style="stop-color:#897151"/>
	</linearGradient>
	<path fill="url(#SVGID_7_)" d="M325.136,106.785c0,0-1.297,0.781-4.398,4.125l-0.102,14.625h-6v-18.75H325.136z"/>
	<path fill="#FCE5CA" d="M325.351,106.785c0,0-3.914,0.672-4.613,4.125l0.113,14.625h3.75v-14.25c0,0-0.418-3.211,6.02-4.5H325.351z
		"/>
	
		<linearGradient id="SVGID_8_" gradientUnits="userSpaceOnUse" x1="450.7661" y1="191.3066" x2="202.2231" y2="191.3066" gradientTransform="matrix(0.75 0 0 -0.75 38.6058 687.714)">
		<stop  offset="0" style="stop-color:#BEA277"/>
		<stop  offset="0.15" style="stop-color:#F7DDB9"/>
		<stop  offset="0.25" style="stop-color:#F7DFBF"/>
		<stop  offset="0.52" style="stop-color:#D6B686"/>
		<stop  offset="0.69" style="stop-color:#BEA277"/>
		<stop  offset="0.8" style="stop-color:#B39870"/>
		<stop  offset="0.92" style="stop-color:#A99069"/>
	</linearGradient>
	<path fill="url(#SVGID_8_)" d="M197.773,536.734h171c4.5,0,7.883,3.332,7.883,7.438c0.367,3.813-3.41,7.434-7.551,7.434
		l-171.332,0.129c-4.5,0-7.5-3.457-7.5-7.563C190.273,539.734,193.633,536.734,197.773,536.734z"/>
	
		<linearGradient id="SVGID_9_" gradientUnits="userSpaceOnUse" x1="501.5786" y1="194.8091" x2="202.2251" y2="194.8091" gradientTransform="matrix(0.75 0 0 -0.75 19.538 247.9552)">
		<stop  offset="0" style="stop-color:#C7AD86"/>
		<stop  offset="0.15" style="stop-color:#FFE6C5"/>
		<stop  offset="0.25" style="stop-color:#FFE8C9"/>
		<stop  offset="0.52" style="stop-color:#DFC297"/>
		<stop  offset="0.69" style="stop-color:#C7AD86"/>
		<stop  offset="0.8" style="stop-color:#BCA37E"/>
		<stop  offset="0.92" style="stop-color:#B19A77"/>
	</linearGradient>
	<path fill="url(#SVGID_9_)" d="M176.457,96.977h213.75c3,0,5.516,2.105,5.516,4.871c-0.266,2.629-2.406,5.012-5.199,5.012
		l-214.066-0.133c-3,0-5.25-2.113-5.25-4.879c0-2.621,2.242-5.008,5.035-5.008L176.457,96.977z"/>
	
		<linearGradient id="SVGID_10_" gradientUnits="userSpaceOnUse" x1="219.2246" y1="144.3037" x2="202.2246" y2="144.3037" gradientTransform="matrix(0.75 0 0 -0.75 26.347 161.8175)">
		<stop  offset="0" style="stop-color:#B9B9B9"/>
		<stop  offset="0.15" style="stop-color:#F2F2F2"/>
		<stop  offset="0.25" style="stop-color:#F3F3F3"/>
		<stop  offset="0.52" style="stop-color:#D0D0D0"/>
		<stop  offset="0.69" style="stop-color:#B9B9B9"/>
		<stop  offset="0.8" style="stop-color:#AFAFAF"/>
		<stop  offset="0.92" style="stop-color:#A5A5A5"/>
	</linearGradient>
	<path fill="url(#SVGID_10_)" d="M183.266,10.84h2.25c3,0,5.063,2.156,5.063,4.922l0.188,80.578h-12.75V16.09
		c0-3,2.195-5.25,4.984-5.25H183.266z"/>
	
		<linearGradient id="SVGID_11_" gradientUnits="userSpaceOnUse" x1="219.2246" y1="144.3037" x2="202.2246" y2="144.3037" gradientTransform="matrix(0.75 0 0 -0.75 76.0385 161.8175)">
		<stop  offset="0" style="stop-color:#B9B9B9"/>
		<stop  offset="0.15" style="stop-color:#F2F2F2"/>
		<stop  offset="0.25" style="stop-color:#F3F3F3"/>
		<stop  offset="0.52" style="stop-color:#D0D0D0"/>
		<stop  offset="0.69" style="stop-color:#B9B9B9"/>
		<stop  offset="0.8" style="stop-color:#AFAFAF"/>
		<stop  offset="0.92" style="stop-color:#A5A5A5"/>
	</linearGradient>
	<path fill="url(#SVGID_11_)" d="M232.957,10.84h2.25c3,0,5.063,2.156,5.063,4.922l0.188,80.578h-12.75V16.09
		c0-3,2.195-5.25,4.984-5.25H232.957z"/>
	
		<linearGradient id="SVGID_12_" gradientUnits="userSpaceOnUse" x1="219.2236" y1="144.3037" x2="202.2236" y2="144.3037" gradientTransform="matrix(0.75 0 0 -0.75 125.7303 161.8175)">
		<stop  offset="0" style="stop-color:#B9B9B9"/>
		<stop  offset="0.15" style="stop-color:#F2F2F2"/>
		<stop  offset="0.25" style="stop-color:#F3F3F3"/>
		<stop  offset="0.52" style="stop-color:#D0D0D0"/>
		<stop  offset="0.69" style="stop-color:#B9B9B9"/>
		<stop  offset="0.8" style="stop-color:#AFAFAF"/>
		<stop  offset="0.92" style="stop-color:#A5A5A5"/>
	</linearGradient>
	<path fill="url(#SVGID_12_)" d="M282.648,10.84h2.25c3,0,5.066,2.156,5.066,4.922l0.184,80.578h-12.75V16.09
		c0-3,2.195-5.25,4.984-5.25H282.648z"/>
	
		<linearGradient id="SVGID_13_" gradientUnits="userSpaceOnUse" x1="219.2217" y1="144.3037" x2="202.2217" y2="144.3037" gradientTransform="matrix(0.75 0 0 -0.75 175.4227 161.8175)">
		<stop  offset="0" style="stop-color:#B9B9B9"/>
		<stop  offset="0.15" style="stop-color:#F2F2F2"/>
		<stop  offset="0.25" style="stop-color:#F3F3F3"/>
		<stop  offset="0.52" style="stop-color:#D0D0D0"/>
		<stop  offset="0.69" style="stop-color:#B9B9B9"/>
		<stop  offset="0.8" style="stop-color:#AFAFAF"/>
		<stop  offset="0.92" style="stop-color:#A5A5A5"/>
	</linearGradient>
	<path fill="url(#SVGID_13_)" d="M332.339,10.84h2.25c3,0,5.066,2.156,5.066,4.922l0.184,80.578h-12.75V16.09
		c0-3,2.195-5.25,4.984-5.25H332.339z"/>
	
		<linearGradient id="SVGID_14_" gradientUnits="userSpaceOnUse" x1="219.2227" y1="144.3037" x2="202.2227" y2="144.3037" gradientTransform="matrix(0.75 0 0 -0.75 225.1132 161.8175)">
		<stop  offset="0" style="stop-color:#B9B9B9"/>
		<stop  offset="0.15" style="stop-color:#F2F2F2"/>
		<stop  offset="0.25" style="stop-color:#F3F3F3"/>
		<stop  offset="0.52" style="stop-color:#D0D0D0"/>
		<stop  offset="0.69" style="stop-color:#B9B9B9"/>
		<stop  offset="0.8" style="stop-color:#AFAFAF"/>
		<stop  offset="0.92" style="stop-color:#A5A5A5"/>
	</linearGradient>
	<path fill="url(#SVGID_14_)" d="M382.031,10.84h2.25c3,0,5.063,2.156,5.063,4.922l0.188,80.578h-12.75V16.09
		c0-3,2.195-5.25,4.984-5.25H382.031z"/>
	
		<linearGradient id="SVGID_15_" gradientUnits="userSpaceOnUse" x1="345.2222" y1="201.3057" x2="345.2222" y2="188.3057" gradientTransform="matrix(0.75 0 0 -0.75 24.6996 180.6661)">
		<stop  offset="0" style="stop-color:#B9B9B9"/>
		<stop  offset="0.15" style="stop-color:#F2F2F2"/>
		<stop  offset="0.25" style="stop-color:#F3F3F3"/>
		<stop  offset="0.52" style="stop-color:#D0D0D0"/>
		<stop  offset="0.69" style="stop-color:#B9B9B9"/>
		<stop  offset="0.8" style="stop-color:#AFAFAF"/>
		<stop  offset="0.92" style="stop-color:#A5A5A5"/>
	</linearGradient>
	<path fill="url(#SVGID_15_)" d="M176.367,29.688h214.5v9.75h-214.5V29.688z"/>
	
		<linearGradient id="SVGID_16_" gradientUnits="userSpaceOnUse" x1="217.2676" y1="193.8818" x2="202.1064" y2="193.8818" gradientTransform="matrix(0.75 0 0 -0.75 76.6307 180.8937)">
		<stop  offset="0" style="stop-color:#7A7B7B"/>
		<stop  offset="0.15" style="stop-color:#BBBCBC"/>
		<stop  offset="0.25" style="stop-color:#C1C1C1"/>
		<stop  offset="0.52" style="stop-color:#8A8B8B"/>
		<stop  offset="0.69" style="stop-color:#7A7B7B"/>
		<stop  offset="0.8" style="stop-color:#737474"/>
		<stop  offset="0.92" style="stop-color:#6C6D6D"/>
	</linearGradient>
	<path fill="url(#SVGID_16_)" stroke="#9E9F9F" stroke-width="0.25" stroke-linejoin="bevel" stroke-miterlimit="10" d="
		M228.301,35.164c0-3,2.457-5.316,5.594-5.316c3.406,0.066,5.688,2.523,5.688,5.633c-0.031,3.434-2.547,5.637-5.688,5.637
		c-3.344,0.047-5.684-2.523-5.684-5.637L228.301,35.164z"/>
	
		<linearGradient id="SVGID_17_" gradientUnits="userSpaceOnUse" x1="217.2637" y1="193.8799" x2="202.1074" y2="193.8799" gradientTransform="matrix(0.75 0 0 -0.75 26.9388 180.0255)">
		<stop  offset="0" style="stop-color:#7A7B7B"/>
		<stop  offset="0.15" style="stop-color:#BBBCBC"/>
		<stop  offset="0.25" style="stop-color:#C1C1C1"/>
		<stop  offset="0.52" style="stop-color:#8A8B8B"/>
		<stop  offset="0.69" style="stop-color:#7A7B7B"/>
		<stop  offset="0.8" style="stop-color:#737474"/>
		<stop  offset="0.92" style="stop-color:#6C6D6D"/>
	</linearGradient>
	<path fill="url(#SVGID_17_)" stroke="#9E9F9F" stroke-width="0.25" stroke-linejoin="bevel" stroke-miterlimit="10" d="
		M178.609,34.297c0-3,2.453-5.316,5.594-5.316c3.406,0.066,5.684,2.523,5.684,5.633c-0.027,3.434-2.543,5.637-5.684,5.637
		c-3.344,0.047-5.684-2.523-5.684-5.637L178.609,34.297z"/>
	
		<linearGradient id="SVGID_18_" gradientUnits="userSpaceOnUse" x1="217.2676" y1="193.8799" x2="202.1064" y2="193.8799" gradientTransform="matrix(0.75 0 0 -0.75 126.3221 180.0255)">
		<stop  offset="0" style="stop-color:#7A7B7B"/>
		<stop  offset="0.15" style="stop-color:#BBBCBC"/>
		<stop  offset="0.25" style="stop-color:#C1C1C1"/>
		<stop  offset="0.52" style="stop-color:#8A8B8B"/>
		<stop  offset="0.69" style="stop-color:#7A7B7B"/>
		<stop  offset="0.8" style="stop-color:#737474"/>
		<stop  offset="0.92" style="stop-color:#6C6D6D"/>
	</linearGradient>
	<path fill="url(#SVGID_18_)" stroke="#9E9F9F" stroke-width="0.25" stroke-linejoin="bevel" stroke-miterlimit="10" d="
		M277.992,34.297c0-3,2.457-5.316,5.594-5.316c3.406,0.066,5.687,2.523,5.687,5.633c-0.031,3.434-2.547,5.637-5.687,5.637
		c-3.344,0.047-5.684-2.523-5.684-5.637L277.992,34.297z"/>
	
		<linearGradient id="SVGID_19_" gradientUnits="userSpaceOnUse" x1="217.2656" y1="193.8799" x2="202.1045" y2="193.8799" gradientTransform="matrix(0.75 0 0 -0.75 176.0145 180.0255)">
		<stop  offset="0" style="stop-color:#7A7B7B"/>
		<stop  offset="0.15" style="stop-color:#BBBCBC"/>
		<stop  offset="0.25" style="stop-color:#C1C1C1"/>
		<stop  offset="0.52" style="stop-color:#8A8B8B"/>
		<stop  offset="0.69" style="stop-color:#7A7B7B"/>
		<stop  offset="0.8" style="stop-color:#737474"/>
		<stop  offset="0.92" style="stop-color:#6C6D6D"/>
	</linearGradient>
	<path fill="url(#SVGID_19_)" stroke="#9E9F9F" stroke-width="0.25" stroke-linejoin="bevel" stroke-miterlimit="10" d="
		M327.683,34.297c0-3,2.457-5.316,5.598-5.316c3.402,0.066,5.684,2.523,5.684,5.633c-0.031,3.434-2.547,5.637-5.684,5.637
		c-3.348,0.047-5.688-2.523-5.688-5.637L327.683,34.297z"/>
	
		<linearGradient id="SVGID_20_" gradientUnits="userSpaceOnUse" x1="217.2676" y1="193.8818" x2="202.1055" y2="193.8818" gradientTransform="matrix(0.75 0 0 -0.75 225.705 180.8937)">
		<stop  offset="0" style="stop-color:#7A7B7B"/>
		<stop  offset="0.15" style="stop-color:#BBBCBC"/>
		<stop  offset="0.25" style="stop-color:#C1C1C1"/>
		<stop  offset="0.52" style="stop-color:#8A8B8B"/>
		<stop  offset="0.69" style="stop-color:#7A7B7B"/>
		<stop  offset="0.8" style="stop-color:#737474"/>
		<stop  offset="0.92" style="stop-color:#6C6D6D"/>
	</linearGradient>
	<path fill="url(#SVGID_20_)" stroke="#9E9F9F" stroke-width="0.25" stroke-linejoin="bevel" stroke-miterlimit="10" d="
		M377.375,35.164c0-3,2.457-5.316,5.594-5.316c3.406,0.066,5.688,2.523,5.688,5.633c-0.031,3.434-2.547,5.637-5.688,5.637
		c-3.344,0.047-5.684-2.523-5.684-5.637L377.375,35.164z"/>
	
		<linearGradient id="SVGID_21_" gradientUnits="userSpaceOnUse" x1="14.3984" y1="319.7056" x2="1.3047" y2="319.7056" gradientTransform="matrix(0 -0.75 -0.75 0 526.8419 424.1525)">
		<stop  offset="0" style="stop-color:#B9B9B9"/>
		<stop  offset="0.15" style="stop-color:#F2F2F2"/>
		<stop  offset="0.25" style="stop-color:#F3F3F3"/>
		<stop  offset="0.52" style="stop-color:#D0D0D0"/>
		<stop  offset="0.69" style="stop-color:#B9B9B9"/>
		<stop  offset="0.8" style="stop-color:#AFAFAF"/>
		<stop  offset="0.92" style="stop-color:#A5A5A5"/>
	</linearGradient>
	<path fill="url(#SVGID_21_)" d="M252.563,418.675v-0.75c0-2.25,0.578-4.57,1.297-4.57l66.203,0.07c0.75,0,1.262,1.957,1.262,4.461
		l0.238,0.789c0,2.25-0.824,4.5-1.543,4.5h-65.957c-0.75,0-1.5-2.031-1.5-4.531V418.675z"/>
	
		<linearGradient id="SVGID_22_" gradientUnits="userSpaceOnUse" x1="14.4004" y1="319.7017" x2="1.3066" y2="319.7017" gradientTransform="matrix(0 -0.75 -0.75 0 527.3732 480.0411)">
		<stop  offset="0" style="stop-color:#B9B9B9"/>
		<stop  offset="0.15" style="stop-color:#F2F2F2"/>
		<stop  offset="0.25" style="stop-color:#F3F3F3"/>
		<stop  offset="0.52" style="stop-color:#D0D0D0"/>
		<stop  offset="0.69" style="stop-color:#B9B9B9"/>
		<stop  offset="0.8" style="stop-color:#AFAFAF"/>
		<stop  offset="0.92" style="stop-color:#A5A5A5"/>
	</linearGradient>
	<path fill="url(#SVGID_22_)" d="M253.098,474.562v-0.75c0-2.25,0.578-4.57,1.297-4.57l66.203,0.07c0.75,0,1.258,1.961,1.258,4.461
		l0.242,0.789c0,2.25-0.828,4.5-1.547,4.5h-65.953c-0.75,0-1.5-2.027-1.5-4.531V474.562z"/>
	
		<linearGradient id="SVGID_23_" gradientUnits="userSpaceOnUse" x1="14.3994" y1="319.7056" x2="1.3057" y2="319.7056" gradientTransform="matrix(0 -0.75 -0.75 0 527.8029 534.587)">
		<stop  offset="0" style="stop-color:#B9B9B9"/>
		<stop  offset="0.15" style="stop-color:#F2F2F2"/>
		<stop  offset="0.25" style="stop-color:#F3F3F3"/>
		<stop  offset="0.52" style="stop-color:#D0D0D0"/>
		<stop  offset="0.69" style="stop-color:#B9B9B9"/>
		<stop  offset="0.8" style="stop-color:#AFAFAF"/>
		<stop  offset="0.92" style="stop-color:#A5A5A5"/>
	</linearGradient>
	<path fill="url(#SVGID_23_)" d="M253.523,529.109v-0.75c0-2.25,0.582-4.57,1.301-4.57l66.199,0.07c0.75,0,1.262,1.957,1.262,4.461
		l0.238,0.789c0,2.25-0.824,4.5-1.543,4.5h-65.957c-0.75,0-1.5-2.031-1.5-4.531V529.109z"/>
	
		<linearGradient id="SVGID_24_" gradientUnits="userSpaceOnUse" x1="14.4004" y1="319.7017" x2="1.3066" y2="319.7017" gradientTransform="matrix(0 -0.75 -0.75 0 527.3732 368.2482)">
		<stop  offset="0" style="stop-color:#B9B9B9"/>
		<stop  offset="0.15" style="stop-color:#F2F2F2"/>
		<stop  offset="0.25" style="stop-color:#F3F3F3"/>
		<stop  offset="0.52" style="stop-color:#D0D0D0"/>
		<stop  offset="0.69" style="stop-color:#B9B9B9"/>
		<stop  offset="0.8" style="stop-color:#AFAFAF"/>
		<stop  offset="0.92" style="stop-color:#A5A5A5"/>
	</linearGradient>
	<path fill="url(#SVGID_24_)" d="M253.098,362.769v-0.75c0-2.25,0.578-4.57,1.297-4.57l66.203,0.07c0.75,0,1.258,1.961,1.258,4.465
		l0.242,0.785c0,2.25-0.828,4.5-1.547,4.5h-65.953c-0.75,0-1.5-2.027-1.5-4.531V362.769z"/>
	
		<linearGradient id="SVGID_25_" gradientUnits="userSpaceOnUse" x1="14.3984" y1="319.7017" x2="1.3047" y2="319.7017" gradientTransform="matrix(0 -0.75 -0.75 0 525.9366 312.3439)">
		<stop  offset="0" style="stop-color:#B9B9B9"/>
		<stop  offset="0.15" style="stop-color:#F2F2F2"/>
		<stop  offset="0.25" style="stop-color:#F3F3F3"/>
		<stop  offset="0.52" style="stop-color:#D0D0D0"/>
		<stop  offset="0.69" style="stop-color:#B9B9B9"/>
		<stop  offset="0.8" style="stop-color:#AFAFAF"/>
		<stop  offset="0.92" style="stop-color:#A5A5A5"/>
	</linearGradient>
	<path fill="url(#SVGID_25_)" d="M251.66,306.867v-0.75c0-2.25,0.578-4.57,1.297-4.57l66.203,0.07c0.75,0,1.258,1.957,1.258,4.461
		l0.242,0.789c0,2.25-0.828,4.5-1.547,4.5H253.16c-0.75,0-1.5-2.031-1.5-4.535V306.867z"/>
	
		<linearGradient id="SVGID_26_" gradientUnits="userSpaceOnUse" x1="14.3965" y1="319.7036" x2="1.3027" y2="319.7036" gradientTransform="matrix(0 -0.75 -0.75 0 525.9259 256.0626)">
		<stop  offset="0" style="stop-color:#B9B9B9"/>
		<stop  offset="0.15" style="stop-color:#F2F2F2"/>
		<stop  offset="0.25" style="stop-color:#F3F3F3"/>
		<stop  offset="0.52" style="stop-color:#D0D0D0"/>
		<stop  offset="0.69" style="stop-color:#B9B9B9"/>
		<stop  offset="0.8" style="stop-color:#AFAFAF"/>
		<stop  offset="0.92" style="stop-color:#A5A5A5"/>
	</linearGradient>
	<path fill="url(#SVGID_26_)" d="M251.648,250.586v-0.75c0-2.25,0.578-4.57,1.297-4.57l66.203,0.07c0.75,0,1.258,1.957,1.258,4.461
		l0.242,0.789c0,2.25-0.828,4.5-1.547,4.5h-65.953c-0.75,0-1.5-2.031-1.5-4.531V250.586z"/>
	
		<linearGradient id="SVGID_27_" gradientUnits="userSpaceOnUse" x1="14.3994" y1="319.7065" x2="1.3057" y2="319.7065" gradientTransform="matrix(0 -0.75 -0.75 0 525.9435 200.338)">
		<stop  offset="0" style="stop-color:#B9B9B9"/>
		<stop  offset="0.15" style="stop-color:#F2F2F2"/>
		<stop  offset="0.25" style="stop-color:#F3F3F3"/>
		<stop  offset="0.52" style="stop-color:#D0D0D0"/>
		<stop  offset="0.69" style="stop-color:#B9B9B9"/>
		<stop  offset="0.8" style="stop-color:#AFAFAF"/>
		<stop  offset="0.92" style="stop-color:#A5A5A5"/>
	</linearGradient>
	<path fill="url(#SVGID_27_)" d="M251.664,194.859v-0.75c0-2.25,0.578-4.57,1.297-4.57l66.203,0.07c0.75,0,1.262,1.961,1.262,4.465
		l0.238,0.785c0,2.25-0.824,4.5-1.543,4.5h-65.957c-0.75,0-1.5-2.027-1.5-4.531V194.859z"/>
	
		<linearGradient id="SVGID_28_" gradientUnits="userSpaceOnUse" x1="14.3965" y1="319.7056" x2="1.3027" y2="319.7056" gradientTransform="matrix(0 -0.75 -0.75 0 527.3693 144.6095)">
		<stop  offset="0" style="stop-color:#B9B9B9"/>
		<stop  offset="0.15" style="stop-color:#F2F2F2"/>
		<stop  offset="0.25" style="stop-color:#F3F3F3"/>
		<stop  offset="0.52" style="stop-color:#D0D0D0"/>
		<stop  offset="0.69" style="stop-color:#B9B9B9"/>
		<stop  offset="0.8" style="stop-color:#AFAFAF"/>
		<stop  offset="0.92" style="stop-color:#A5A5A5"/>
	</linearGradient>
	<path fill="url(#SVGID_28_)" d="M253.09,139.133v-0.75c0-2.25,0.578-4.57,1.297-4.57l66.203,0.07c0.75,0,1.262,1.957,1.262,4.461
		l0.238,0.789c0,2.25-0.824,4.5-1.543,4.5H254.59c-0.75,0-1.5-2.031-1.5-4.535V139.133z"/>
	
		<linearGradient id="SVGID_29_" gradientUnits="userSpaceOnUse" x1="216.2222" y1="-106.7739" x2="202.2222" y2="-106.7739" gradientTransform="matrix(0.75 0 0 -0.75 93.4579 244.8439)">
		<stop  offset="0" style="stop-color:#B9B9B9"/>
		<stop  offset="0.15" style="stop-color:#F2F2F2"/>
		<stop  offset="0.25" style="stop-color:#F3F3F3"/>
		<stop  offset="0.52" style="stop-color:#D0D0D0"/>
		<stop  offset="0.69" style="stop-color:#B9B9B9"/>
		<stop  offset="0.8" style="stop-color:#AFAFAF"/>
		<stop  offset="0.92" style="stop-color:#A5A5A5"/>
	</linearGradient>
	<path fill="url(#SVGID_29_)" d="M250.375,93.867c3,0,5.023,2.215,5.023,5.031l0.227,451.718c0,3-2.531,5.367-5.363,5.367
		c-2.887-0.117-5.137-2.285-5.137-5.102V99.117c0-3,2.285-5.25,5.137-5.25H250.375z"/>
	
		<linearGradient id="SVGID_30_" gradientUnits="userSpaceOnUse" x1="216.2217" y1="-106.7739" x2="202.2217" y2="-106.7739" gradientTransform="matrix(0.75 0 0 -0.75 161.7509 244.8439)">
		<stop  offset="0" style="stop-color:#B9B9B9"/>
		<stop  offset="0.15" style="stop-color:#F2F2F2"/>
		<stop  offset="0.25" style="stop-color:#F3F3F3"/>
		<stop  offset="0.52" style="stop-color:#D0D0D0"/>
		<stop  offset="0.69" style="stop-color:#B9B9B9"/>
		<stop  offset="0.8" style="stop-color:#AFAFAF"/>
		<stop  offset="0.92" style="stop-color:#A5A5A5"/>
	</linearGradient>
	<path fill="url(#SVGID_30_)" d="M318.667,93.867c3,0,5.023,2.215,5.023,5.031l0.227,451.718c0,3-2.531,5.367-5.363,5.367
		c-2.887-0.117-5.137-2.285-5.137-5.102V99.117c0-3,2.285-5.25,5.137-5.25H318.667z"/>
</g>
</svg>
