<?xml version="1.0" encoding="utf-8"?>
<!-- Generator: Adobe Illustrator 16.0.0, SVG Export Plug-In . SVG Version: 6.00 Build 0)  -->
<!DOCTYPE svg PUBLIC "-//W3C//DTD SVG 1.1//EN" "http://www.w3.org/Graphics/SVG/1.1/DTD/svg11.dtd">
<svg preserveAspectRatio="none"   version="1.1" id="图层_1" xmlns="http://www.w3.org/2000/svg" xmlns:xlink="http://www.w3.org/1999/xlink" x="0px" y="0px"
	 width="304.855px" height="550.709px" viewBox="131.172 8.071 304.855 550.709"
	 enable-background="new 131.172 8.071 304.855 550.709" xml:space="preserve">
<g id="surface31">
	
		<linearGradient id="SVGID_1_" gradientUnits="userSpaceOnUse" x1="24.3037" y1="326.2046" x2="1.3037" y2="326.2046" gradientTransform="matrix(0 -0.75 -0.75 0 614.379 244.0822)">
		<stop  offset="0" style="stop-color:#B4A59F"/>
		<stop  offset="0.15" style="stop-color:#EDDFDA"/>
		<stop  offset="0.25" style="stop-color:#EEE2DD"/>
		<stop  offset="0.52" style="stop-color:#CAB9B3"/>
		<stop  offset="0.69" style="stop-color:#B4A59F"/>
		<stop  offset="0.8" style="stop-color:#AA9B96"/>
		<stop  offset="0.92" style="stop-color:#A0938E"/>
	</linearGradient>
	<path fill="url(#SVGID_1_)" d="M340.101,243.105v-17.25h59.25v17.25H340.101z"/>
	
		<linearGradient id="SVGID_2_" gradientUnits="userSpaceOnUse" x1="225.2256" y1="167.3076" x2="202.2256" y2="167.3076" gradientTransform="matrix(0.75 0 0 -0.75 77.3231 634.1046)">
		<stop  offset="0" style="stop-color:#B4A59F"/>
		<stop  offset="0.15" style="stop-color:#EDDFDA"/>
		<stop  offset="0.25" style="stop-color:#EEE2DD"/>
		<stop  offset="0.52" style="stop-color:#CAB9B3"/>
		<stop  offset="0.69" style="stop-color:#B4A59F"/>
		<stop  offset="0.8" style="stop-color:#AA9B96"/>
		<stop  offset="0.92" style="stop-color:#A0938E"/>
	</linearGradient>
	<path fill="url(#SVGID_2_)" d="M228.992,483.125h17.25v51h-17.25V483.125z"/>
	
		<linearGradient id="SVGID_3_" gradientUnits="userSpaceOnUse" x1="225.2275" y1="168.3086" x2="202.2275" y2="168.3086" gradientTransform="matrix(0.75 0 0 -0.75 251.7977 632.339)">
		<stop  offset="0" style="stop-color:#B4A59F"/>
		<stop  offset="0.15" style="stop-color:#EDDFDA"/>
		<stop  offset="0.25" style="stop-color:#EEE2DD"/>
		<stop  offset="0.52" style="stop-color:#CAB9B3"/>
		<stop  offset="0.69" style="stop-color:#B4A59F"/>
		<stop  offset="0.8" style="stop-color:#AA9B96"/>
		<stop  offset="0.92" style="stop-color:#A0938E"/>
	</linearGradient>
	<path fill="url(#SVGID_3_)" d="M403.468,481.359h17.25v49.5h-17.25V481.359z"/>
	
		<linearGradient id="SVGID_4_" gradientUnits="userSpaceOnUse" x1="321.2261" y1="183.3037" x2="202.2261" y2="183.3037" gradientTransform="matrix(0.75 0 0 -0.75 41.3495 261.4025)">
		<stop  offset="0" style="stop-color:#B4A59F"/>
		<stop  offset="0.15" style="stop-color:#EDDFDA"/>
		<stop  offset="0.25" style="stop-color:#EEE2DD"/>
		<stop  offset="0.52" style="stop-color:#CAB9B3"/>
		<stop  offset="0.69" style="stop-color:#B4A59F"/>
		<stop  offset="0.8" style="stop-color:#AA9B96"/>
		<stop  offset="0.92" style="stop-color:#A0938E"/>
	</linearGradient>
	<path fill="url(#SVGID_4_)" d="M193.02,110.426h89.25v27h-89.25V110.426z"/>
	
		<linearGradient id="SVGID_5_" gradientUnits="userSpaceOnUse" x1="486.2251" y1="-33.0718" x2="202.2261" y2="-33.0718" gradientTransform="matrix(0.75 0 0 -0.75 -20.338 287.6251)">
		<stop  offset="0" style="stop-color:#B4A59F"/>
		<stop  offset="0.15" style="stop-color:#EDDFDA"/>
		<stop  offset="0.25" style="stop-color:#EEE2DD"/>
		<stop  offset="0.52" style="stop-color:#CAB9B3"/>
		<stop  offset="0.69" style="stop-color:#B4A59F"/>
		<stop  offset="0.8" style="stop-color:#AA9B96"/>
		<stop  offset="0.92" style="stop-color:#A0938E"/>
	</linearGradient>
	<path fill="url(#SVGID_5_)" d="M131.332,171.148c0,0,4.309-27.949,61.688-34.5c-0.188,0,89.547,0,89.547,0
		c58.015,3,61.71,34.5,61.71,34.5l0.055,270c0,0-1.82,47.063-106.914,47.063c-105.336,0.188-106.086-47.152-106.086-47.152V171.148z
		"/>
	
		<linearGradient id="SVGID_6_" gradientUnits="userSpaceOnUse" x1="486.3589" y1="178.2861" x2="202.2241" y2="178.2861" gradientTransform="matrix(0.75 0 0 -0.75 -20.4972 287.629)">
		<stop  offset="0" style="stop-color:#B4A59F"/>
		<stop  offset="0.15" style="stop-color:#EDDFDA"/>
		<stop  offset="0.25" style="stop-color:#EEE2DD"/>
		<stop  offset="0.52" style="stop-color:#CAB9B3"/>
		<stop  offset="0.69" style="stop-color:#B4A59F"/>
		<stop  offset="0.8" style="stop-color:#AA9B96"/>
		<stop  offset="0.92" style="stop-color:#A0938E"/>
	</linearGradient>
	<path fill="url(#SVGID_6_)" d="M131.172,171.152c0,0,4.469-27.949,61.844-34.5c-0.344,0,89.547,0,89.547,0
		c57.859,3,61.71,34.527,61.71,34.527L131.172,171.152z"/>
	
		<linearGradient id="SVGID_7_" gradientUnits="userSpaceOnUse" x1="486.2251" y1="169.8701" x2="202.2261" y2="169.8701" gradientTransform="matrix(0.75 0 0 -0.75 -20.338 592.0353)">
		<stop  offset="0" style="stop-color:#B4A59F"/>
		<stop  offset="0.15" style="stop-color:#EDDFDA"/>
		<stop  offset="0.25" style="stop-color:#EEE2DD"/>
		<stop  offset="0.52" style="stop-color:#CAB9B3"/>
		<stop  offset="0.69" style="stop-color:#B4A59F"/>
		<stop  offset="0.8" style="stop-color:#AA9B96"/>
		<stop  offset="0.92" style="stop-color:#A0938E"/>
	</linearGradient>
	<path fill="url(#SVGID_7_)" d="M344.332,441.058c0,0-1.82,47.152-106.914,47.152c-105.336,0.098-106.086-47.152-106.086-47.152
		H344.332z"/>
	
		<linearGradient id="SVGID_8_" gradientUnits="userSpaceOnUse" x1="486.2241" y1="199.8052" x2="202.2251" y2="199.8051" gradientTransform="matrix(0.75 0 0 -0.75 -20.3375 322.1271)">
		<stop  offset="0" style="stop-color:#A78F87"/>
		<stop  offset="0.15" style="stop-color:#E1CDC6"/>
		<stop  offset="0.25" style="stop-color:#E4D1CA"/>
		<stop  offset="0.52" style="stop-color:#BCA298"/>
		<stop  offset="0.69" style="stop-color:#A78F87"/>
		<stop  offset="0.8" style="stop-color:#9E877F"/>
		<stop  offset="0.92" style="stop-color:#957F78"/>
	</linearGradient>
	<path fill="url(#SVGID_8_)" d="M131.332,171.148h213v2.25h-213V171.148z"/>
	
		<linearGradient id="SVGID_9_" gradientUnits="userSpaceOnUse" x1="486.2241" y1="199.8032" x2="202.2251" y2="199.8032" gradientTransform="matrix(0.75 0 0 -0.75 -20.4547 590.9142)">
		<stop  offset="0" style="stop-color:#A78F87"/>
		<stop  offset="0.15" style="stop-color:#E1CDC6"/>
		<stop  offset="0.25" style="stop-color:#E4D1CA"/>
		<stop  offset="0.52" style="stop-color:#BCA298"/>
		<stop  offset="0.69" style="stop-color:#A78F87"/>
		<stop  offset="0.8" style="stop-color:#9E877F"/>
		<stop  offset="0.92" style="stop-color:#957F78"/>
	</linearGradient>
	<path fill="url(#SVGID_9_)" d="M131.215,439.937h213v2.25h-213V439.937z"/>
	
		<linearGradient id="SVGID_10_" gradientUnits="userSpaceOnUse" x1="11.8027" y1="402.2251" x2="11.8027" y2="310.2251" gradientTransform="matrix(0 -0.75 0.75 0 -29.2701 111.5861)">
		<stop  offset="0" style="stop-color:#B4A59F"/>
		<stop  offset="0.15" style="stop-color:#EDDFDA"/>
		<stop  offset="0.25" style="stop-color:#EEE2DD"/>
		<stop  offset="0.52" style="stop-color:#CAB9B3"/>
		<stop  offset="0.69" style="stop-color:#B4A59F"/>
		<stop  offset="0.8" style="stop-color:#AA9B96"/>
		<stop  offset="0.92" style="stop-color:#A0938E"/>
	</linearGradient>
	<path fill="url(#SVGID_10_)" d="M263.398,110.609l9-15.75h-69l9,15.75H263.398z"/>
	
		<linearGradient id="SVGID_11_" gradientUnits="userSpaceOnUse" x1="39.8027" y1="402.2271" x2="39.8027" y2="306.2271" gradientTransform="matrix(0 -0.75 0.75 0 -27.9166 92.9259)">
		<stop  offset="0" style="stop-color:#B4A59F"/>
		<stop  offset="0.15" style="stop-color:#EDDFDA"/>
		<stop  offset="0.25" style="stop-color:#EEE2DD"/>
		<stop  offset="0.52" style="stop-color:#CAB9B3"/>
		<stop  offset="0.69" style="stop-color:#B4A59F"/>
		<stop  offset="0.8" style="stop-color:#AA9B96"/>
		<stop  offset="0.92" style="stop-color:#A0938E"/>
	</linearGradient>
	<path fill="url(#SVGID_11_)" d="M273.754,91.949v-57.75h-72v57.75H273.754z"/>
	
		<linearGradient id="SVGID_12_" gradientUnits="userSpaceOnUse" x1="20.1748" y1="402.2251" x2="20.1748" y2="306.2251" gradientTransform="matrix(0 -0.75 0.75 0 -27.9889 37.3556)">
		<stop  offset="0" style="stop-color:#B4A59F"/>
		<stop  offset="0.15" style="stop-color:#EDDFDA"/>
		<stop  offset="0.25" style="stop-color:#EEE2DD"/>
		<stop  offset="0.52" style="stop-color:#CAB9B3"/>
		<stop  offset="0.69" style="stop-color:#B4A59F"/>
		<stop  offset="0.8" style="stop-color:#AA9B96"/>
		<stop  offset="0.92" style="stop-color:#A0938E"/>
	</linearGradient>
	<path fill="url(#SVGID_12_)" d="M273.68,36.379v-20.25c0,0,0-7.93-35.969-8.055c-36.031-0.195-35.969,8.398-35.969,8.398
		l-0.063,19.906H273.68z"/>
	
		<linearGradient id="SVGID_13_" gradientUnits="userSpaceOnUse" x1="368.8267" y1="402.2251" x2="368.8267" y2="301.0845" gradientTransform="matrix(0 0.75 0.75 0 -25.9498 -183.1451)">
		<stop  offset="0" style="stop-color:#97867F"/>
		<stop  offset="0.09" style="stop-color:#998881"/>
		<stop  offset="0.36" style="stop-color:#BDA8A0"/>
		<stop  offset="0.56" style="stop-color:#AA9790"/>
		<stop  offset="0.83" style="stop-color:#887973"/>
		<stop  offset="1" style="stop-color:#615551"/>
	</linearGradient>
	<path fill="url(#SVGID_13_)" d="M275.719,92.574v2.25c0,0-0.332,0.32-0.75,0.32l-74.25-0.32c-0.75,0-0.855,0.066-0.855-0.25
		l0.105-2c0-0.75,0.258-0.77,0.676-0.77l74.324,0.02c0.75,0,0.75,0.234,0.75,0.551V92.574z"/>
	
		<linearGradient id="SVGID_14_" gradientUnits="userSpaceOnUse" x1="368.1089" y1="402.2271" x2="368.1089" y2="301.3667" gradientTransform="matrix(0 0.75 0.75 0 -26.0651 -181.8414)">
		<stop  offset="0" style="stop-color:#B4A59F"/>
		<stop  offset="0.15" style="stop-color:#EDDFDA"/>
		<stop  offset="0.25" style="stop-color:#EEE2DD"/>
		<stop  offset="0.52" style="stop-color:#CAB9B3"/>
		<stop  offset="0.69" style="stop-color:#B4A59F"/>
		<stop  offset="0.8" style="stop-color:#AA9B96"/>
		<stop  offset="0.92" style="stop-color:#A0938E"/>
	</linearGradient>
	<path fill="url(#SVGID_14_)" d="M275.605,93.879c0,0.75-0.336,1.258-0.754,1.258l-74.246,0.242c0,0-0.625-0.574-0.625-0.98
		c-0.125-1.27,0.355-1.297,0.773-1.297l74.102,0.027c0.75,0,0.75,0.301,0.75,0.707V93.879z"/>
	
		<linearGradient id="SVGID_15_" gradientUnits="userSpaceOnUse" x1="33.8047" y1="402.2544" x2="33.8047" y2="399.02" gradientTransform="matrix(0 -0.75 0.75 0 -44.109 86.8097)">
		<stop  offset="0" style="stop-color:#B4A59F"/>
		<stop  offset="0.15" style="stop-color:#EDDFDA"/>
		<stop  offset="0.25" style="stop-color:#EEE2DD"/>
		<stop  offset="0.52" style="stop-color:#CAB9B3"/>
		<stop  offset="0.69" style="stop-color:#B4A59F"/>
		<stop  offset="0.8" style="stop-color:#AA9B96"/>
		<stop  offset="0.92" style="stop-color:#A0938E"/>
	</linearGradient>
	<path fill="url(#SVGID_15_)" d="M257.559,85.082v-47.25c0,0-0.313-0.453-0.73-0.453l-0.77-0.297c-0.75,0-0.902,0.504-0.902,0.762
		l0.152,47.238c0,0.75,0.188,0.75,0.605,0.75h0.895c0.75,0,0.773-0.191,0.773-0.449L257.559,85.082z"/>
	
		<linearGradient id="SVGID_16_" gradientUnits="userSpaceOnUse" x1="33.8047" y1="402.2544" x2="33.8047" y2="399.02" gradientTransform="matrix(0 -0.75 0.75 0 -51.1754 86.8097)">
		<stop  offset="0" style="stop-color:#B4A59F"/>
		<stop  offset="0.15" style="stop-color:#EDDFDA"/>
		<stop  offset="0.25" style="stop-color:#EEE2DD"/>
		<stop  offset="0.52" style="stop-color:#CAB9B3"/>
		<stop  offset="0.69" style="stop-color:#B4A59F"/>
		<stop  offset="0.8" style="stop-color:#AA9B96"/>
		<stop  offset="0.92" style="stop-color:#A0938E"/>
	</linearGradient>
	<path fill="url(#SVGID_16_)" d="M250.492,85.082v-47.25c0,0-0.313-0.453-0.73-0.453l-0.77-0.297c-0.75,0-0.902,0.504-0.902,0.762
		l0.152,47.238c0,0.75,0.188,0.75,0.605,0.75h0.895c0.75,0,0.773-0.191,0.773-0.449L250.492,85.082z"/>
	
		<linearGradient id="SVGID_17_" gradientUnits="userSpaceOnUse" x1="33.8047" y1="402.2544" x2="33.8047" y2="399.02" gradientTransform="matrix(0 -0.75 0.75 0 -58.2418 86.8097)">
		<stop  offset="0" style="stop-color:#B4A59F"/>
		<stop  offset="0.15" style="stop-color:#EDDFDA"/>
		<stop  offset="0.25" style="stop-color:#EEE2DD"/>
		<stop  offset="0.52" style="stop-color:#CAB9B3"/>
		<stop  offset="0.69" style="stop-color:#B4A59F"/>
		<stop  offset="0.8" style="stop-color:#AA9B96"/>
		<stop  offset="0.92" style="stop-color:#A0938E"/>
	</linearGradient>
	<path fill="url(#SVGID_17_)" d="M243.426,85.082v-47.25c0,0-0.313-0.453-0.73-0.453l-0.77-0.297c-0.75,0-0.902,0.504-0.902,0.762
		l0.152,47.238c0,0.75,0.188,0.75,0.605,0.75h0.895c0.75,0,0.773-0.191,0.773-0.449L243.426,85.082z"/>
	
		<linearGradient id="SVGID_18_" gradientUnits="userSpaceOnUse" x1="33.8047" y1="402.2544" x2="33.8047" y2="399.02" gradientTransform="matrix(0 -0.75 0.75 0 -65.3082 86.8097)">
		<stop  offset="0" style="stop-color:#B4A59F"/>
		<stop  offset="0.15" style="stop-color:#EDDFDA"/>
		<stop  offset="0.25" style="stop-color:#EEE2DD"/>
		<stop  offset="0.52" style="stop-color:#CAB9B3"/>
		<stop  offset="0.69" style="stop-color:#B4A59F"/>
		<stop  offset="0.8" style="stop-color:#AA9B96"/>
		<stop  offset="0.92" style="stop-color:#A0938E"/>
	</linearGradient>
	<path fill="url(#SVGID_18_)" d="M236.359,85.082v-47.25c0,0-0.313-0.453-0.73-0.453l-0.77-0.297c-0.75,0-0.902,0.504-0.902,0.762
		l0.152,47.238c0,0.75,0.188,0.75,0.605,0.75h0.895c0.75,0,0.773-0.191,0.773-0.449L236.359,85.082z"/>
	
		<linearGradient id="SVGID_19_" gradientUnits="userSpaceOnUse" x1="33.8047" y1="402.2544" x2="33.8047" y2="399.02" gradientTransform="matrix(0 -0.75 0.75 0 -72.3746 86.8097)">
		<stop  offset="0" style="stop-color:#B4A59F"/>
		<stop  offset="0.15" style="stop-color:#EDDFDA"/>
		<stop  offset="0.25" style="stop-color:#EEE2DD"/>
		<stop  offset="0.52" style="stop-color:#CAB9B3"/>
		<stop  offset="0.69" style="stop-color:#B4A59F"/>
		<stop  offset="0.8" style="stop-color:#AA9B96"/>
		<stop  offset="0.92" style="stop-color:#A0938E"/>
	</linearGradient>
	<path fill="url(#SVGID_19_)" d="M229.293,85.082v-47.25c0,0-0.313-0.453-0.73-0.453l-0.77-0.297c-0.75,0-0.902,0.504-0.902,0.762
		l0.152,47.238c0,0.75,0.188,0.75,0.605,0.75h0.895c0.75,0,0.773-0.191,0.773-0.449L229.293,85.082z"/>
	
		<linearGradient id="SVGID_20_" gradientUnits="userSpaceOnUse" x1="33.8047" y1="402.2544" x2="33.8047" y2="399.02" gradientTransform="matrix(0 -0.75 0.75 0 -79.441 86.8097)">
		<stop  offset="0" style="stop-color:#B4A59F"/>
		<stop  offset="0.15" style="stop-color:#EDDFDA"/>
		<stop  offset="0.25" style="stop-color:#EEE2DD"/>
		<stop  offset="0.52" style="stop-color:#CAB9B3"/>
		<stop  offset="0.69" style="stop-color:#B4A59F"/>
		<stop  offset="0.8" style="stop-color:#AA9B96"/>
		<stop  offset="0.92" style="stop-color:#A0938E"/>
	</linearGradient>
	<path fill="url(#SVGID_20_)" d="M222.227,85.082v-47.25c0,0-0.313-0.453-0.73-0.453l-0.77-0.297c-0.75,0-0.902,0.504-0.902,0.762
		l0.152,47.238c0,0.75,0.188,0.75,0.605,0.75h0.895c0.75,0,0.773-0.191,0.773-0.449L222.227,85.082z"/>
	
		<linearGradient id="SVGID_21_" gradientUnits="userSpaceOnUse" x1="1.8057" y1="402.2271" x2="1.8057" y2="306.2271" gradientTransform="matrix(0 -0.75 0.75 0 -27.9166 35.7716)">
		<stop  offset="0" style="stop-color:#97867F"/>
		<stop  offset="0.09" style="stop-color:#998881"/>
		<stop  offset="0.36" style="stop-color:#BDA8A0"/>
		<stop  offset="0.56" style="stop-color:#AA9790"/>
		<stop  offset="0.83" style="stop-color:#887973"/>
		<stop  offset="1" style="stop-color:#615551"/>
	</linearGradient>
	<path fill="url(#SVGID_21_)" d="M273.754,34.793v-0.75h-72v0.75H273.754z"/>
	
		<linearGradient id="SVGID_22_" gradientUnits="userSpaceOnUse" x1="225.2227" y1="154.3081" x2="202.2227" y2="154.3081" gradientTransform="matrix(0.75 0 0 -0.75 251.7968 394.6359)">
		<stop  offset="0" style="stop-color:#B4A59F"/>
		<stop  offset="0.15" style="stop-color:#EDDFDA"/>
		<stop  offset="0.25" style="stop-color:#EEE2DD"/>
		<stop  offset="0.52" style="stop-color:#CAB9B3"/>
		<stop  offset="0.69" style="stop-color:#B4A59F"/>
		<stop  offset="0.8" style="stop-color:#AA9B96"/>
		<stop  offset="0.92" style="stop-color:#A0938E"/>
	</linearGradient>
	<path fill="url(#SVGID_22_)" d="M403.464,243.656h17.25v70.5h-17.25V243.656z"/>
	
		<linearGradient id="SVGID_23_" gradientUnits="userSpaceOnUse" x1="268.7153" y1="87.1416" x2="202.2261" y2="87.1416" gradientTransform="matrix(0.75 0 0 -0.75 234.1151 461.8839)">
		<stop  offset="0" style="stop-color:#B4A59F"/>
		<stop  offset="0.15" style="stop-color:#EDDFDA"/>
		<stop  offset="0.25" style="stop-color:#EEE2DD"/>
		<stop  offset="0.52" style="stop-color:#CAB9B3"/>
		<stop  offset="0.69" style="stop-color:#B4A59F"/>
		<stop  offset="0.8" style="stop-color:#AA9B96"/>
		<stop  offset="0.92" style="stop-color:#A0938E"/>
	</linearGradient>
	<path fill="url(#SVGID_23_)" d="M385.785,327.406c0,0,1.008-13.309,14.445-16.5c-0.195,0,20.969,0,20.969,0
		c13.336,1.5,14.453,16.805,14.453,16.805l-0.367,131.695c0,0-0.047,22.746-24.656,22.746
		c-24.844-0.246-24.844-22.969-24.844-22.969V327.406z"/>
	
		<linearGradient id="SVGID_24_" gradientUnits="userSpaceOnUse" x1="268.7651" y1="189.3066" x2="202.2231" y2="189.3066" gradientTransform="matrix(0.75 0 0 -0.75 234.0975 461.881)">
		<stop  offset="0" style="stop-color:#B4A59F"/>
		<stop  offset="0.15" style="stop-color:#EDDFDA"/>
		<stop  offset="0.25" style="stop-color:#EEE2DD"/>
		<stop  offset="0.52" style="stop-color:#CAB9B3"/>
		<stop  offset="0.69" style="stop-color:#B4A59F"/>
		<stop  offset="0.8" style="stop-color:#AA9B96"/>
		<stop  offset="0.92" style="stop-color:#A0938E"/>
	</linearGradient>
	<path fill="url(#SVGID_24_)" d="M385.765,328.902c0,0,1.047-14.648,14.484-18c-0.234,0,20.969,0,20.969,0
		c13.297,1.5,14.453,17.668,14.453,17.668L385.765,328.902z"/>
	
		<linearGradient id="SVGID_25_" gradientUnits="userSpaceOnUse" x1="269.2246" y1="200.3047" x2="202.2246" y2="200.3047" gradientTransform="matrix(0.75 0 0 -0.75 234.1083 479.5363)">
		<stop  offset="0" style="stop-color:#A78F87"/>
		<stop  offset="0.15" style="stop-color:#E1CDC6"/>
		<stop  offset="0.25" style="stop-color:#E4D1CA"/>
		<stop  offset="0.52" style="stop-color:#BCA298"/>
		<stop  offset="0.69" style="stop-color:#A78F87"/>
		<stop  offset="0.8" style="stop-color:#9E877F"/>
		<stop  offset="0.92" style="stop-color:#957F78"/>
	</linearGradient>
	<path fill="url(#SVGID_25_)" d="M385.777,328.558h50.25v1.5h-50.25V328.558z"/>
	
		<linearGradient id="SVGID_26_" gradientUnits="userSpaceOnUse" x1="269.2246" y1="200.3057" x2="202.2246" y2="200.3057" gradientTransform="matrix(0.75 0 0 -0.75 234.1083 608.7794)">
		<stop  offset="0" style="stop-color:#A78F87"/>
		<stop  offset="0.15" style="stop-color:#E1CDC6"/>
		<stop  offset="0.25" style="stop-color:#E4D1CA"/>
		<stop  offset="0.52" style="stop-color:#BCA298"/>
		<stop  offset="0.69" style="stop-color:#A78F87"/>
		<stop  offset="0.8" style="stop-color:#9E877F"/>
		<stop  offset="0.92" style="stop-color:#957F78"/>
	</linearGradient>
	<path fill="url(#SVGID_26_)" d="M385.777,457.8h50.25v1.5h-50.25V457.8z"/>
	
		<linearGradient id="SVGID_27_" gradientUnits="userSpaceOnUse" x1="232.998" y1="196.4385" x2="202.1816" y2="196.4385" gradientTransform="matrix(0.75 0 0 -0.75 248.9257 446.715)">
		<stop  offset="0" style="stop-color:#A2887D"/>
		<stop  offset="0.15" style="stop-color:#DDC7BE"/>
		<stop  offset="0.25" style="stop-color:#DFCBC3"/>
		<stop  offset="0.52" style="stop-color:#B69A8D"/>
		<stop  offset="0.69" style="stop-color:#A2887D"/>
		<stop  offset="0.8" style="stop-color:#988076"/>
		<stop  offset="0.92" style="stop-color:#90796F"/>
	</linearGradient>
	<path fill="url(#SVGID_27_)" d="M402.093,295.738h19.5c1.5,0,2.059,1.445,2.059,3.477c0.191,1.773-0.852,3.68-1.898,3.68
		l-19.66,0.344c-0.75,0-1.531-1.992-1.531-4.023c0.031-1.977,0.852-3.68,1.898-3.68L402.093,295.738z"/>
	
		<linearGradient id="SVGID_28_" gradientUnits="userSpaceOnUse" x1="232.998" y1="196.4419" x2="202.1816" y2="196.4419" gradientTransform="matrix(0.75 0 0 -0.75 248.9257 436.4357)">
		<stop  offset="0" style="stop-color:#A2887D"/>
		<stop  offset="0.15" style="stop-color:#DDC7BE"/>
		<stop  offset="0.25" style="stop-color:#DFCBC3"/>
		<stop  offset="0.52" style="stop-color:#B69A8D"/>
		<stop  offset="0.69" style="stop-color:#A2887D"/>
		<stop  offset="0.8" style="stop-color:#988076"/>
		<stop  offset="0.92" style="stop-color:#90796F"/>
	</linearGradient>
	<path fill="url(#SVGID_28_)" d="M402.093,285.457h19.5c1.5,0,2.059,1.445,2.059,3.48c0.191,1.77-0.852,3.676-1.898,3.676
		l-19.66,0.344c-0.75,0-1.531-1.988-1.531-4.02c0.031-1.98,0.852-3.684,1.898-3.684L402.093,285.457z"/>
	
		<linearGradient id="SVGID_29_" gradientUnits="userSpaceOnUse" x1="232.9995" y1="196.4395" x2="202.1831" y2="196.4395" gradientTransform="matrix(0.75 0 0 -0.75 248.8778 647.6115)">
		<stop  offset="0" style="stop-color:#A2887D"/>
		<stop  offset="0.15" style="stop-color:#DDC7BE"/>
		<stop  offset="0.25" style="stop-color:#DFCBC3"/>
		<stop  offset="0.52" style="stop-color:#B69A8D"/>
		<stop  offset="0.69" style="stop-color:#A2887D"/>
		<stop  offset="0.8" style="stop-color:#988076"/>
		<stop  offset="0.92" style="stop-color:#90796F"/>
	</linearGradient>
	<path fill="url(#SVGID_29_)" d="M402.046,496.632h19.5c1.5,0,2.059,1.445,2.059,3.48c0.191,1.77-0.852,3.68-1.898,3.68l-19.66,0.34
		c-0.75,0-1.531-1.988-1.531-4.02c0.031-1.98,0.848-3.68,1.895-3.68L402.046,496.632z"/>
	
		<linearGradient id="SVGID_30_" gradientUnits="userSpaceOnUse" x1="232.9995" y1="196.4385" x2="202.1831" y2="196.4385" gradientTransform="matrix(0.75 0 0 -0.75 248.8778 637.3322)">
		<stop  offset="0" style="stop-color:#A2887D"/>
		<stop  offset="0.15" style="stop-color:#DDC7BE"/>
		<stop  offset="0.25" style="stop-color:#DFCBC3"/>
		<stop  offset="0.52" style="stop-color:#B69A8D"/>
		<stop  offset="0.69" style="stop-color:#A2887D"/>
		<stop  offset="0.8" style="stop-color:#988076"/>
		<stop  offset="0.92" style="stop-color:#90796F"/>
	</linearGradient>
	<path fill="url(#SVGID_30_)" d="M402.046,486.355h19.5c1.5,0,2.059,1.445,2.059,3.477c0.191,1.773-0.852,3.68-1.898,3.68
		l-19.66,0.344c-0.75,0-1.531-1.992-1.531-4.023c0.031-1.977,0.848-3.68,1.895-3.68L402.046,486.355z"/>
	
		<linearGradient id="SVGID_31_" gradientUnits="userSpaceOnUse" x1="24.3047" y1="276.7056" x2="1.3047" y2="276.7056" gradientTransform="matrix(0 -0.75 -0.75 0 536.0519 559.3165)">
		<stop  offset="0" style="stop-color:#B4A59F"/>
		<stop  offset="0.15" style="stop-color:#EDDFDA"/>
		<stop  offset="0.25" style="stop-color:#EEE2DD"/>
		<stop  offset="0.52" style="stop-color:#CAB9B3"/>
		<stop  offset="0.69" style="stop-color:#B4A59F"/>
		<stop  offset="0.8" style="stop-color:#AA9B96"/>
		<stop  offset="0.92" style="stop-color:#A0938E"/>
	</linearGradient>
	<path fill="url(#SVGID_31_)" d="M261.773,558.339v-17.25h133.5v17.25H261.773z"/>
	
		<linearGradient id="SVGID_32_" gradientUnits="userSpaceOnUse" x1="225.2935" y1="537.1636" x2="165.6108" y2="537.1636" gradientTransform="matrix(-0.75 0 0 0.75 397.1388 133.7518)">
		<stop  offset="0" style="stop-color:#B9AEAA"/>
		<stop  offset="0.02" style="stop-color:#BCB1AD"/>
		<stop  offset="0.22" style="stop-color:#EBE0DC"/>
		<stop  offset="0.4" style="stop-color:#D0C4C0"/>
		<stop  offset="1" style="stop-color:#D0C4C0"/>
	</linearGradient>
	<path fill="url(#SVGID_32_)" d="M272.863,558.718h-27.75c0,0-16.84,2.137-16.84-19.137c0.34-21.363-0.105-24.859-0.105-24.859
		l19.195-0.254v6c0,0-1.641,17.992,12.074,19.109c7.426-0.359,13.473,0,13.492,0L272.863,558.718z"/>
	
		<linearGradient id="SVGID_33_" gradientUnits="userSpaceOnUse" x1="263.3057" y1="536.6001" x2="202.1289" y2="536.6001" gradientTransform="matrix(0.75 0 0 0.75 225.5663 133.7509)">
		<stop  offset="0" style="stop-color:#B9AEAA"/>
		<stop  offset="0.02" style="stop-color:#BCB1AD"/>
		<stop  offset="0.22" style="stop-color:#EBE0DC"/>
		<stop  offset="0.4" style="stop-color:#D0C4C0"/>
		<stop  offset="1" style="stop-color:#D0C4C0"/>
	</linearGradient>
	<path fill="url(#SVGID_33_)" d="M377.234,558.718h28.5c0,0,17.207,2.191,17.207-19.617c0.043-21.633,0.105-25.48,0.105-25.48
		l-19.563,0.098v6c0,0,1.57,18.234-12.492,19.383c-7.758,0.117-13.809,0-13.828,0L377.234,558.718z"/>
	
		<linearGradient id="SVGID_34_" gradientUnits="userSpaceOnUse" x1="263.3062" y1="171.2803" x2="202.1294" y2="171.2803" gradientTransform="matrix(0.75 0 0 -0.75 225.5663 376.1788)">
		<stop  offset="0" style="stop-color:#B9AEAA"/>
		<stop  offset="0.02" style="stop-color:#BCB1AD"/>
		<stop  offset="0.22" style="stop-color:#EBE0DC"/>
		<stop  offset="0.4" style="stop-color:#D0C4C0"/>
		<stop  offset="1" style="stop-color:#D0C4C0"/>
	</linearGradient>
	<path fill="url(#SVGID_34_)" d="M377.234,225.199h28.5c0,0,17.207-2.188,17.207,19.621c0.043,21.629,0.105,25.48,0.105,25.48
		l-19.563-0.102v-6c0,0,1.57-18.23-12.492-19.379c-7.758-0.121-13.809,0-13.828,0L377.234,225.199z"/>
</g>
</svg>
