<?xml version="1.0" encoding="utf-8"?>
<!-- Generator: Adobe Illustrator 16.0.0, SVG Export Plug-In . SVG Version: 6.00 Build 0)  -->
<!DOCTYPE svg PUBLIC "-//W3C//DTD SVG 1.1//EN" "http://www.w3.org/Graphics/SVG/1.1/DTD/svg11.dtd">
<svg preserveAspectRatio="none"   version="1.1" id="图层_1" xmlns="http://www.w3.org/2000/svg" xmlns:xlink="http://www.w3.org/1999/xlink" x="0px" y="0px"
	 width="254.351px" height="554.167px" viewBox="156.352 6.457 254.351 554.167"
	 enable-background="new 156.352 6.457 254.351 554.167" xml:space="preserve">
<g id="surface41">
	
		<linearGradient id="SVGID_1_" gradientUnits="userSpaceOnUse" x1="434.2251" y1="-72.6958" x2="202.2256" y2="-72.6958" gradientTransform="matrix(0.75 0 0 -0.75 71.1 288.6027)">
		<stop  offset="0" style="stop-color:#A6A49D"/>
		<stop  offset="0.15" style="stop-color:#DCD9D0"/>
		<stop  offset="0.25" style="stop-color:#EBEAE5"/>
		<stop  offset="0.52" style="stop-color:#BEBBB3"/>
		<stop  offset="0.69" style="stop-color:#A9A69F"/>
		<stop  offset="0.8" style="stop-color:#9F9D96"/>
		<stop  offset="0.97" style="stop-color:#96948E"/>
		<stop  offset="1" style="stop-color:#ADAAA3"/>
	</linearGradient>
	<path fill="url(#SVGID_1_)" d="M222.77,137.625h174v411h-174V137.625z"/>
	
		<linearGradient id="SVGID_2_" gradientUnits="userSpaceOnUse" x1="326.7261" y1="201.3018" x2="326.7261" y2="185.2705" gradientTransform="matrix(0.75 0 0 -0.75 64.7367 388.84)">
		<stop  offset="0" style="stop-color:#A6A49D"/>
		<stop  offset="0.15" style="stop-color:#DCD9D0"/>
		<stop  offset="0.25" style="stop-color:#EBEAE5"/>
		<stop  offset="0.52" style="stop-color:#BEBBB3"/>
		<stop  offset="0.69" style="stop-color:#A9A69F"/>
		<stop  offset="0.8" style="stop-color:#9F9D96"/>
		<stop  offset="0.97" style="stop-color:#96948E"/>
		<stop  offset="1" style="stop-color:#ADAAA3"/>
	</linearGradient>
	<path fill="url(#SVGID_2_)" d="M217.906,237.863h183c1.5,0,2.133,0.84,2.133,1.879l0.117,8.621c0,0.75-0.934,1.523-1.914,1.523
		l-183.335-0.023c-0.75,0-1.5-0.816-1.5-1.855v-7.895c0-1.5,0.785-2.25,1.762-2.25H217.906z"/>
	
		<linearGradient id="SVGID_3_" gradientUnits="userSpaceOnUse" x1="326.7261" y1="201.3027" x2="326.7261" y2="185.2715" gradientTransform="matrix(0.75 0 0 -0.75 64.7367 500.4376)">
		<stop  offset="0" style="stop-color:#A6A49D"/>
		<stop  offset="0.15" style="stop-color:#DCD9D0"/>
		<stop  offset="0.25" style="stop-color:#EBEAE5"/>
		<stop  offset="0.52" style="stop-color:#BEBBB3"/>
		<stop  offset="0.69" style="stop-color:#A9A69F"/>
		<stop  offset="0.8" style="stop-color:#9F9D96"/>
		<stop  offset="0.97" style="stop-color:#96948E"/>
		<stop  offset="1" style="stop-color:#ADAAA3"/>
	</linearGradient>
	<path fill="url(#SVGID_3_)" d="M217.906,349.46h183c1.5,0,2.133,0.84,2.133,1.879l0.117,8.621c0,0.75-0.934,1.523-1.914,1.523
		l-183.335-0.023c-0.75,0-1.5-0.816-1.5-1.855v-7.895c0-1.5,0.785-2.25,1.762-2.25H217.906z"/>
	
		<linearGradient id="SVGID_4_" gradientUnits="userSpaceOnUse" x1="326.7261" y1="201.3057" x2="326.7261" y2="185.2695" gradientTransform="matrix(0.75 0 0 -0.75 64.7367 612.0333)">
		<stop  offset="0" style="stop-color:#A6A49D"/>
		<stop  offset="0.15" style="stop-color:#DCD9D0"/>
		<stop  offset="0.25" style="stop-color:#EBEAE5"/>
		<stop  offset="0.52" style="stop-color:#BEBBB3"/>
		<stop  offset="0.69" style="stop-color:#A9A69F"/>
		<stop  offset="0.8" style="stop-color:#9F9D96"/>
		<stop  offset="0.97" style="stop-color:#96948E"/>
		<stop  offset="1" style="stop-color:#ADAAA3"/>
	</linearGradient>
	<path fill="url(#SVGID_4_)" d="M217.906,461.054h183c1.5,0,2.133,0.844,2.133,1.879l0.117,8.621c0,0.75-0.934,1.527-1.914,1.527
		l-183.335-0.027c-0.75,0-1.5-0.816-1.5-1.852v-7.898c0-1.5,0.785-2.25,1.762-2.25H217.906z"/>
	
		<linearGradient id="SVGID_5_" gradientUnits="userSpaceOnUse" x1="255.7974" y1="201.3008" x2="255.7974" y2="171.9102" gradientTransform="matrix(0.75 0 0 -0.75 4.684 660.632)">
		<stop  offset="0" style="stop-color:#A6A49D"/>
		<stop  offset="0.15" style="stop-color:#DCD9D0"/>
		<stop  offset="0.25" style="stop-color:#EBEAE5"/>
		<stop  offset="0.52" style="stop-color:#BEBBB3"/>
		<stop  offset="0.69" style="stop-color:#A9A69F"/>
		<stop  offset="0.8" style="stop-color:#9F9D96"/>
		<stop  offset="0.97" style="stop-color:#96948E"/>
		<stop  offset="1" style="stop-color:#ADAAA3"/>
	</linearGradient>
	<path fill="url(#SVGID_5_)" d="M160.102,509.656h69.75c0,0,6.859,0,6.859,11.461c-0.109,10.289-7.199,10.582-7.199,10.582
		l-69.41-0.293c0,0-3.75,0.645-3.75-10.469c0-11.281,4-11.281,4-11.281H160.102z"/>
	
		<linearGradient id="SVGID_6_" gradientUnits="userSpaceOnUse" x1="236.2266" y1="113.3027" x2="202.2266" y2="113.3027" gradientTransform="matrix(0.75 0 0 -0.75 22.6698 295.7072)">
		<stop  offset="0" style="stop-color:#6F6F75"/>
		<stop  offset="0.15" style="stop-color:#9C9CA2"/>
		<stop  offset="0.25" style="stop-color:#CDCDD0"/>
		<stop  offset="0.52" style="stop-color:#7F7F86"/>
		<stop  offset="0.69" style="stop-color:#717177"/>
		<stop  offset="0.8" style="stop-color:#6A6A70"/>
		<stop  offset="0.97" style="stop-color:#646469"/>
		<stop  offset="1" style="stop-color:#73737A"/>
	</linearGradient>
	<path fill="url(#SVGID_6_)" d="M174.34,144.73h25.5v132h-25.5V144.73z"/>
	
		<linearGradient id="SVGID_7_" gradientUnits="userSpaceOnUse" x1="245.2266" y1="152.3066" x2="202.2266" y2="152.3066" gradientTransform="matrix(0.75 0 0 -0.75 18.8177 426.338)">
		<stop  offset="0" style="stop-color:#576168"/>
		<stop  offset="0.15" style="stop-color:#818C94"/>
		<stop  offset="0.25" style="stop-color:#C3C7CA"/>
		<stop  offset="0.52" style="stop-color:#646F77"/>
		<stop  offset="0.69" style="stop-color:#586269"/>
		<stop  offset="0.8" style="stop-color:#535C63"/>
		<stop  offset="0.97" style="stop-color:#3E4449"/>
		<stop  offset="1" style="stop-color:#2D3336"/>
	</linearGradient>
	<path fill="url(#SVGID_7_)" d="M170.488,275.359h32.25v73.5h-32.25V275.359z"/>
	
		<linearGradient id="SVGID_8_" gradientUnits="userSpaceOnUse" x1="232.2256" y1="173.8086" x2="202.2256" y2="173.8086" gradientTransform="matrix(0.75 0 0 -0.75 22.6703 499.5773)">
		<stop  offset="0" style="stop-color:#6F6F75"/>
		<stop  offset="0.15" style="stop-color:#9C9CA2"/>
		<stop  offset="0.25" style="stop-color:#CDCDD0"/>
		<stop  offset="0.52" style="stop-color:#7F7F86"/>
		<stop  offset="0.69" style="stop-color:#717177"/>
		<stop  offset="0.8" style="stop-color:#6A6A70"/>
		<stop  offset="0.97" style="stop-color:#646469"/>
		<stop  offset="1" style="stop-color:#73737A"/>
	</linearGradient>
	<path fill="url(#SVGID_8_)" d="M174.34,348.597h22.5v41.25h-22.5V348.597z"/>
	
		<linearGradient id="SVGID_9_" gradientUnits="userSpaceOnUse" x1="258.2266" y1="179.8018" x2="202.2266" y2="179.8018" gradientTransform="matrix(0.75 0 0 -0.75 14.974 561.339)">
		<stop  offset="0" style="stop-color:#576168"/>
		<stop  offset="0.15" style="stop-color:#818C94"/>
		<stop  offset="0.25" style="stop-color:#C3C7CA"/>
		<stop  offset="0.52" style="stop-color:#646F77"/>
		<stop  offset="0.69" style="stop-color:#586269"/>
		<stop  offset="0.8" style="stop-color:#535C63"/>
		<stop  offset="0.97" style="stop-color:#3E4449"/>
		<stop  offset="1" style="stop-color:#2D3336"/>
	</linearGradient>
	<path fill="url(#SVGID_9_)" d="M168.895,410.363h37.5c1.5,0,2.082,0.84,2.082,1.879l0.168,28.121c0,1.5-1.031,2.246-2.074,2.246
		l-37.676,0.004c-1.5,0-2.25-0.844-2.25-1.883v-28.117c0-1.5,0.836-2.25,1.883-2.25H168.895z"/>
	
		<linearGradient id="SVGID_10_" gradientUnits="userSpaceOnUse" x1="227.2256" y1="187.8076" x2="202.2256" y2="187.8076" gradientTransform="matrix(0.75 0 0 -0.75 22.6703 541.1163)">
		<stop  offset="0" style="stop-color:#576168"/>
		<stop  offset="0.15" style="stop-color:#818C94"/>
		<stop  offset="0.25" style="stop-color:#C3C7CA"/>
		<stop  offset="0.52" style="stop-color:#646F77"/>
		<stop  offset="0.69" style="stop-color:#586269"/>
		<stop  offset="0.8" style="stop-color:#535C63"/>
		<stop  offset="0.97" style="stop-color:#3E4449"/>
		<stop  offset="1" style="stop-color:#2D3336"/>
	</linearGradient>
	<path fill="url(#SVGID_10_)" d="M174.34,390.136h18.75v20.25h-18.75V390.136z"/>
	
		<linearGradient id="SVGID_11_" gradientUnits="userSpaceOnUse" x1="237.2251" y1="178.3027" x2="202.2251" y2="178.3027" gradientTransform="matrix(0.75 0 0 -0.75 22.12 593.5861)">
		<stop  offset="0" style="stop-color:#576168"/>
		<stop  offset="0.15" style="stop-color:#818C94"/>
		<stop  offset="0.25" style="stop-color:#C3C7CA"/>
		<stop  offset="0.52" style="stop-color:#646F77"/>
		<stop  offset="0.69" style="stop-color:#586269"/>
		<stop  offset="0.8" style="stop-color:#535C63"/>
		<stop  offset="0.97" style="stop-color:#3E4449"/>
		<stop  offset="1" style="stop-color:#2D3336"/>
	</linearGradient>
	<path fill="url(#SVGID_11_)" d="M173.789,442.609h26.25v34.5h-26.25V442.609z"/>
	
		<linearGradient id="SVGID_12_" gradientUnits="userSpaceOnUse" x1="434.2231" y1="136.3047" x2="202.2241" y2="136.3047" gradientTransform="matrix(0.75 0 0 -0.75 71.6674 183.2482)">
		<stop  offset="0" style="stop-color:#6F6F75"/>
		<stop  offset="0.15" style="stop-color:#9C9CA2"/>
		<stop  offset="0.25" style="stop-color:#CDCDD0"/>
		<stop  offset="0.52" style="stop-color:#7F7F86"/>
		<stop  offset="0.69" style="stop-color:#717177"/>
		<stop  offset="0.8" style="stop-color:#6A6A70"/>
		<stop  offset="0.97" style="stop-color:#646469"/>
		<stop  offset="1" style="stop-color:#73737A"/>
	</linearGradient>
	<path fill="url(#SVGID_12_)" d="M223.336,32.27h174v97.5h-174V32.27z"/>
	
		<linearGradient id="SVGID_13_" gradientUnits="userSpaceOnUse" x1="217.2241" y1="191.1084" x2="202.188" y2="191.1084" gradientTransform="matrix(0.75 0 0 -0.75 150.4169 162.9005)">
		<stop  offset="0" style="stop-color:#A6A49D"/>
		<stop  offset="0.15" style="stop-color:#DCD9D0"/>
		<stop  offset="0.25" style="stop-color:#EBEAE5"/>
		<stop  offset="0.52" style="stop-color:#BEBBB3"/>
		<stop  offset="0.69" style="stop-color:#A9A69F"/>
		<stop  offset="0.8" style="stop-color:#9F9D96"/>
		<stop  offset="0.97" style="stop-color:#96948E"/>
		<stop  offset="1" style="stop-color:#ADAAA3"/>
	</linearGradient>
	<path fill="url(#SVGID_13_)" d="M303.585,11.922h7.5c1.5,0,1.98,0.832,1.98,1.871l0.27,11.629c0,0.75-1.117,1.797-2.16,1.797
		l-7.59-0.297c-0.75,0-1.527-0.547-1.527-1.582l0.027-11.918c0-0.75,0.82-1.5,1.867-1.5H303.585z"/>
	
		<linearGradient id="SVGID_14_" gradientUnits="userSpaceOnUse" x1="237.4233" y1="194.7515" x2="202.2261" y2="194.7515" gradientTransform="matrix(0.75 0 0 -0.75 142.7206 157.4347)">
		<stop  offset="0" style="stop-color:#A6A49D"/>
		<stop  offset="0.15" style="stop-color:#DCD9D0"/>
		<stop  offset="0.25" style="stop-color:#EBEAE5"/>
		<stop  offset="0.52" style="stop-color:#BEBBB3"/>
		<stop  offset="0.69" style="stop-color:#A9A69F"/>
		<stop  offset="0.8" style="stop-color:#9F9D96"/>
		<stop  offset="0.97" style="stop-color:#96948E"/>
		<stop  offset="1" style="stop-color:#ADAAA3"/>
	</linearGradient>
	<path fill="url(#SVGID_14_)" d="M295.89,6.457h23.25c0.75,0,1.648,0.832,1.648,1.871l-0.148,6.379c0,0.75-0.707,1.578-1.754,1.578
		l-22.996-0.078c-0.75,0-1.5-0.762-1.5-1.801V7.957c0-0.75,0.82-1.5,1.867-1.5H295.89z"/>
	
		<linearGradient id="SVGID_15_" gradientUnits="userSpaceOnUse" x1="217.2261" y1="191.1084" x2="202.189" y2="191.1084" gradientTransform="matrix(0.75 0 0 -0.75 85.4086 162.9005)">
		<stop  offset="0" style="stop-color:#A6A49D"/>
		<stop  offset="0.15" style="stop-color:#DCD9D0"/>
		<stop  offset="0.25" style="stop-color:#EBEAE5"/>
		<stop  offset="0.52" style="stop-color:#BEBBB3"/>
		<stop  offset="0.69" style="stop-color:#A9A69F"/>
		<stop  offset="0.8" style="stop-color:#9F9D96"/>
		<stop  offset="0.97" style="stop-color:#96948E"/>
		<stop  offset="1" style="stop-color:#ADAAA3"/>
	</linearGradient>
	<path fill="url(#SVGID_15_)" d="M238.578,11.922h7.5c1.5,0,1.98,0.832,1.98,1.871l0.27,11.629c0,0.75-1.117,1.797-2.16,1.797
		l-7.59-0.297c-0.75,0-1.527-0.547-1.527-1.582l0.027-11.918c0-0.75,0.82-1.5,1.867-1.5H238.578z"/>
	
		<linearGradient id="SVGID_16_" gradientUnits="userSpaceOnUse" x1="237.4253" y1="194.7515" x2="202.2271" y2="194.7515" gradientTransform="matrix(0.75 0 0 -0.75 77.7123 157.4347)">
		<stop  offset="0" style="stop-color:#A6A49D"/>
		<stop  offset="0.15" style="stop-color:#DCD9D0"/>
		<stop  offset="0.25" style="stop-color:#EBEAE5"/>
		<stop  offset="0.52" style="stop-color:#BEBBB3"/>
		<stop  offset="0.69" style="stop-color:#A9A69F"/>
		<stop  offset="0.8" style="stop-color:#9F9D96"/>
		<stop  offset="0.97" style="stop-color:#96948E"/>
		<stop  offset="1" style="stop-color:#ADAAA3"/>
	</linearGradient>
	<path fill="url(#SVGID_16_)" d="M230.883,6.457h23.25c0.75,0,1.648,0.832,1.648,1.871l-0.148,6.379c0,0.75-0.707,1.578-1.754,1.578
		l-22.996-0.078c-0.75,0-1.5-0.762-1.5-1.801V7.957c0-0.75,0.82-1.5,1.863-1.5H230.883z"/>
	
		<linearGradient id="SVGID_17_" gradientUnits="userSpaceOnUse" x1="217.2236" y1="191.1084" x2="202.1924" y2="191.1084" gradientTransform="matrix(0.75 0 0 -0.75 215.4257 162.9005)">
		<stop  offset="0" style="stop-color:#A6A49D"/>
		<stop  offset="0.15" style="stop-color:#DCD9D0"/>
		<stop  offset="0.25" style="stop-color:#EBEAE5"/>
		<stop  offset="0.52" style="stop-color:#BEBBB3"/>
		<stop  offset="0.69" style="stop-color:#A9A69F"/>
		<stop  offset="0.8" style="stop-color:#9F9D96"/>
		<stop  offset="0.97" style="stop-color:#96948E"/>
		<stop  offset="1" style="stop-color:#ADAAA3"/>
	</linearGradient>
	<path fill="url(#SVGID_17_)" d="M368.593,11.922h7.5c1.5,0,1.98,0.832,1.98,1.871l0.27,11.629c0,0.75-1.113,1.797-2.16,1.797
		l-7.59-0.297c-0.75,0-1.523-0.547-1.523-1.582l0.023-11.918c0-0.75,0.82-1.5,1.867-1.5H368.593z"/>
	
		<linearGradient id="SVGID_18_" gradientUnits="userSpaceOnUse" x1="237.4229" y1="194.7515" x2="202.2246" y2="194.7515" gradientTransform="matrix(0.75 0 0 -0.75 207.7294 157.4347)">
		<stop  offset="0" style="stop-color:#A6A49D"/>
		<stop  offset="0.15" style="stop-color:#DCD9D0"/>
		<stop  offset="0.25" style="stop-color:#EBEAE5"/>
		<stop  offset="0.52" style="stop-color:#BEBBB3"/>
		<stop  offset="0.69" style="stop-color:#A9A69F"/>
		<stop  offset="0.8" style="stop-color:#9F9D96"/>
		<stop  offset="0.97" style="stop-color:#96948E"/>
		<stop  offset="1" style="stop-color:#ADAAA3"/>
	</linearGradient>
	<path fill="url(#SVGID_18_)" d="M360.898,6.457h23.25c0.75,0,1.648,0.832,1.648,1.871l-0.148,6.379c0,0.75-0.707,1.578-1.75,1.578
		l-23-0.078c-0.75,0-1.5-0.762-1.5-1.801V7.957c0-0.75,0.82-1.5,1.867-1.5H360.898z"/>
	
		<linearGradient id="SVGID_19_" gradientUnits="userSpaceOnUse" x1="472.2915" y1="194.7744" x2="202.2236" y2="194.7744" gradientTransform="matrix(0.75 0 0 -0.75 56.2494 175.6251)">
		<stop  offset="0" style="stop-color:#576168"/>
		<stop  offset="0.15" style="stop-color:#818C94"/>
		<stop  offset="0.25" style="stop-color:#C3C7CA"/>
		<stop  offset="0.52" style="stop-color:#646F77"/>
		<stop  offset="0.69" style="stop-color:#586269"/>
		<stop  offset="0.8" style="stop-color:#535C63"/>
		<stop  offset="0.97" style="stop-color:#3E4449"/>
		<stop  offset="1" style="stop-color:#2D3336"/>
	</linearGradient>
	<path fill="url(#SVGID_19_)" d="M210.168,24.648h198c1.5,0,2.301,0.813,2.301,1.852l-0.051,6.398c0,0.75-0.832,1.57-1.875,1.57
		l-198.375-0.07c-1.5,0-2.25-0.781-2.25-1.816v-6.434c0-0.75,0.84-1.527,1.883-1.527L210.168,24.648z"/>
	
		<linearGradient id="SVGID_20_" gradientUnits="userSpaceOnUse" x1="468.2261" y1="193.2891" x2="202.2261" y2="193.289" gradientTransform="matrix(0.75 0 0 -0.75 59.0013 277.2443)">
		<stop  offset="0" style="stop-color:#938F83"/>
		<stop  offset="0.15" style="stop-color:#C5C1B2"/>
		<stop  offset="0.25" style="stop-color:#E0DDD7"/>
		<stop  offset="0.52" style="stop-color:#A9A496"/>
		<stop  offset="0.69" style="stop-color:#969285"/>
		<stop  offset="0.8" style="stop-color:#8D897D"/>
		<stop  offset="0.97" style="stop-color:#858176"/>
		<stop  offset="1" style="stop-color:#999588"/>
	</linearGradient>
	<path fill="url(#SVGID_20_)" d="M212.922,126.266h195c0.75,0,1.988,0.84,1.988,1.879l0.262,8.621c0,0.75-1.137,1.523-2.18,1.523
		l-195.07-0.023c-1.5,0-2.25-0.816-2.25-1.855v-7.895c0-1.5,0.836-2.25,1.883-2.25H212.922z"/>
	
		<linearGradient id="SVGID_21_" gradientUnits="userSpaceOnUse" x1="258.2231" y1="190.3066" x2="202.2231" y2="190.3066" gradientTransform="matrix(0.75 0 0 -0.75 14.2816 626.1154)">
		<stop  offset="0" style="stop-color:#6F6F75"/>
		<stop  offset="0.15" style="stop-color:#9C9CA2"/>
		<stop  offset="0.25" style="stop-color:#CDCDD0"/>
		<stop  offset="0.52" style="stop-color:#7F7F86"/>
		<stop  offset="0.69" style="stop-color:#717177"/>
		<stop  offset="0.8" style="stop-color:#6A6A70"/>
		<stop  offset="0.97" style="stop-color:#646469"/>
		<stop  offset="1" style="stop-color:#73737A"/>
	</linearGradient>
	<path fill="url(#SVGID_21_)" d="M173.449,475.136h27l7.5,16.5h-42L173.449,475.136z"/>
	
		<linearGradient id="SVGID_22_" gradientUnits="userSpaceOnUse" x1="258.2266" y1="199.8057" x2="202.2266" y2="199.8057" gradientTransform="matrix(0.75 0 0 -0.75 14.2792 642.5177)">
		<stop  offset="0" style="stop-color:#576168"/>
		<stop  offset="0.15" style="stop-color:#818C94"/>
		<stop  offset="0.25" style="stop-color:#C3C7CA"/>
		<stop  offset="0.52" style="stop-color:#646F77"/>
		<stop  offset="0.69" style="stop-color:#586269"/>
		<stop  offset="0.8" style="stop-color:#535C63"/>
		<stop  offset="0.97" style="stop-color:#3E4449"/>
		<stop  offset="1" style="stop-color:#2D3336"/>
	</linearGradient>
	<path fill="url(#SVGID_22_)" d="M165.949,491.539h42v2.25h-42V491.539z"/>
	
		<linearGradient id="SVGID_23_" gradientUnits="userSpaceOnUse" x1="258.2251" y1="555.6265" x2="202.2251" y2="555.6265" gradientTransform="matrix(0.75 0 0 0.75 14.0067 85.2411)">
		<stop  offset="0" style="stop-color:#6F6F75"/>
		<stop  offset="0.15" style="stop-color:#9C9CA2"/>
		<stop  offset="0.25" style="stop-color:#CDCDD0"/>
		<stop  offset="0.52" style="stop-color:#7F7F86"/>
		<stop  offset="0.69" style="stop-color:#717177"/>
		<stop  offset="0.8" style="stop-color:#6A6A70"/>
		<stop  offset="0.97" style="stop-color:#646469"/>
		<stop  offset="1" style="stop-color:#73737A"/>
	</linearGradient>
	<path fill="url(#SVGID_23_)" d="M173.176,510.21h27l7.5-16.5h-42L173.176,510.21z"/>
	
		<linearGradient id="SVGID_24_" gradientUnits="userSpaceOnUse" x1="249.3447" y1="196.7852" x2="202.2246" y2="196.7852" gradientTransform="matrix(0.75 0 0 -0.75 16.9559 290.712)">
		<stop  offset="0" style="stop-color:#6F6F75"/>
		<stop  offset="0.15" style="stop-color:#9C9CA2"/>
		<stop  offset="0.25" style="stop-color:#CDCDD0"/>
		<stop  offset="0.52" style="stop-color:#7F7F86"/>
		<stop  offset="0.69" style="stop-color:#717177"/>
		<stop  offset="0.8" style="stop-color:#6A6A70"/>
		<stop  offset="0.97" style="stop-color:#646469"/>
		<stop  offset="1" style="stop-color:#73737A"/>
	</linearGradient>
	<path fill="url(#SVGID_24_)" d="M170.875,139.734h31.5c0.75,0,1.59,0.813,1.59,1.852l-0.09,3.398c0,0.75-0.785,1.555-1.828,1.555
		l-31.172-0.055c-1.5,0-2.25-0.789-2.25-1.824v-3.426c0-0.75,0.848-1.527,1.891-1.527L170.875,139.734z"/>
	
		<linearGradient id="SVGID_25_" gradientUnits="userSpaceOnUse" x1="245.9336" y1="190.248" x2="198.227" y2="172.8843" gradientTransform="matrix(0.75 0 0 -0.75 108.1757 239.4962)">
		<stop  offset="0.15" style="stop-color:#818C94"/>
		<stop  offset="0.25" style="stop-color:#A4AAAF"/>
		<stop  offset="0.52" style="stop-color:#69747B"/>
		<stop  offset="0.69" style="stop-color:#586269"/>
		<stop  offset="0.97" style="stop-color:#3E4449"/>
		<stop  offset="1" style="stop-color:#2D3336"/>
	</linearGradient>
	<path fill="url(#SVGID_25_)" d="M259.844,103.52c0-8.25,6.664-15,14.879-15c8.371,0,14.878,6.613,14.878,14.773
		c0.242,8.477-6.66,14.777-14.878,14.777c-8.129-0.301-14.879-6.613-14.879-14.777V103.52z"/>
	<path fill="#48484C" d="M264.055,103.199c0-6,4.777-10.5,10.668-10.5c5.832,0,10.667,4.742,10.667,10.594
		c-0.336,5.906-4.777,10.598-10.667,10.598c-6.168-0.191-10.668-4.746-10.668-10.598V103.199z"/>
	
		<linearGradient id="SVGID_26_" gradientUnits="userSpaceOnUse" x1="225.2236" y1="-100.6934" x2="202.2236" y2="-100.6934" gradientTransform="matrix(0.75 0 0 -0.75 114.1639 247.756)">
		<stop  offset="0" style="stop-color:#6F6F75"/>
		<stop  offset="0.15" style="stop-color:#9C9CA2"/>
		<stop  offset="0.25" style="stop-color:#CDCDD0"/>
		<stop  offset="0.52" style="stop-color:#7F7F86"/>
		<stop  offset="0.69" style="stop-color:#717177"/>
		<stop  offset="0.8" style="stop-color:#6A6A70"/>
		<stop  offset="0.97" style="stop-color:#646469"/>
		<stop  offset="1" style="stop-color:#73737A"/>
	</linearGradient>
	<path fill="url(#SVGID_26_)" d="M265.832,101.277c0,0,1.164-4.5,8.734-4.5c7.766,0,8.465,4.773,8.465,4.773l0.051,448.226h-17.25
		V101.277z"/>
	
		<linearGradient id="SVGID_27_" gradientUnits="userSpaceOnUse" x1="340.2231" y1="201.3418" x2="340.2231" y2="185.3057" gradientTransform="matrix(0.75 0 0 -0.75 52.036 699.6036)">
		<stop  offset="0" style="stop-color:#A6A49D"/>
		<stop  offset="0.15" style="stop-color:#DCD9D0"/>
		<stop  offset="0.25" style="stop-color:#EBEAE5"/>
		<stop  offset="0.52" style="stop-color:#BEBBB3"/>
		<stop  offset="0.69" style="stop-color:#A9A69F"/>
		<stop  offset="0.8" style="stop-color:#9F9D96"/>
		<stop  offset="0.97" style="stop-color:#96948E"/>
		<stop  offset="1" style="stop-color:#ADAAA3"/>
	</linearGradient>
	<path fill="url(#SVGID_27_)" d="M205.953,548.625h202.5c1.5,0,2.102,0.813,2.102,1.852l0.148,7.898c0,1.5-1.023,2.066-2.07,2.066
		l-202.679,0.184c-1.5,0-2.25-1.027-2.25-2.063v-8.438c0-0.75,0.836-1.527,1.879-1.527L205.953,548.625z"/>
</g>
</svg>
