<?xml version="1.0" encoding="utf-8"?>
<!-- Generator: Adobe Illustrator 16.0.0, SVG Export Plug-In . SVG Version: 6.00 Build 0)  -->
<!DOCTYPE svg PUBLIC "-//W3C//DTD SVG 1.1//EN" "http://www.w3.org/Graphics/SVG/1.1/DTD/svg11.dtd">
<svg preserveAspectRatio="none"   version="1.1" id="图层_1" xmlns="http://www.w3.org/2000/svg" xmlns:xlink="http://www.w3.org/1999/xlink" x="0px" y="0px"
	 width="134.724px" height="552.789px" viewBox="216.113 7.09 134.724 552.789"
	 enable-background="new 216.113 7.09 134.724 552.789" xml:space="preserve">
<g id="surface241">
	
		<linearGradient id="SVGID_1_" gradientUnits="userSpaceOnUse" x1="362.5278" y1="164.0459" x2="202.2256" y2="164.0459" gradientTransform="matrix(0.75 0 0 -0.75 71.6815 158.0665)">
		<stop  offset="0" style="stop-color:#BC9A6B"/>
		<stop  offset="0.15" style="stop-color:#F4D6B0"/>
		<stop  offset="0.25" style="stop-color:#F5D9B7"/>
		<stop  offset="0.52" style="stop-color:#D3AD79"/>
		<stop  offset="0.69" style="stop-color:#BC9A6B"/>
		<stop  offset="0.8" style="stop-color:#B19165"/>
		<stop  offset="0.92" style="stop-color:#A7895F"/>
	</linearGradient>
	<path fill="url(#SVGID_1_)" d="M223.352,46.84c0-21.75,26.852-39.75,60.113-39.75c32.886,0,60.113,17.633,60.113,39.438
		c-0.227,22.063-120.226,21.801-120.226,0V46.84z"/>
	
		<linearGradient id="SVGID_2_" gradientUnits="userSpaceOnUse" x1="356.2212" y1="189.8027" x2="202.2217" y2="189.8027" gradientTransform="matrix(0.75 0 0 -0.75 74.1571 203.5314)">
		<stop  offset="0" style="stop-color:#BC9A6B"/>
		<stop  offset="0.15" style="stop-color:#F4D6B0"/>
		<stop  offset="0.25" style="stop-color:#F5D9B7"/>
		<stop  offset="0.52" style="stop-color:#D3AD79"/>
		<stop  offset="0.69" style="stop-color:#BC9A6B"/>
		<stop  offset="0.8" style="stop-color:#B19165"/>
		<stop  offset="0.92" style="stop-color:#A7895F"/>
	</linearGradient>
	<path fill="url(#SVGID_2_)" d="M225.824,52.555h115.5v17.25h-115.5V52.555z"/>
	
		<linearGradient id="SVGID_3_" gradientUnits="userSpaceOnUse" x1="359.2251" y1="-127.1938" x2="202.2251" y2="-127.1939" gradientTransform="matrix(0.75 0 0 -0.75 72.807 217.5997)">
		<stop  offset="0" style="stop-color:#C7AD86"/>
		<stop  offset="0.15" style="stop-color:#FFE6C5"/>
		<stop  offset="0.25" style="stop-color:#FFE8C9"/>
		<stop  offset="0.52" style="stop-color:#DFC297"/>
		<stop  offset="0.69" style="stop-color:#C7AD86"/>
		<stop  offset="0.8" style="stop-color:#BCA37E"/>
		<stop  offset="0.92" style="stop-color:#B19A77"/>
	</linearGradient>
	<path fill="url(#SVGID_3_)" d="M342.226,66.621v492.75h-117.75V66.621H342.226z"/>
	
		<linearGradient id="SVGID_4_" gradientUnits="userSpaceOnUse" x1="381.8579" y1="193.8057" x2="202.2256" y2="193.8056" gradientTransform="matrix(0.75 0 0 -0.75 64.4437 698.8732)">
		<stop  offset="0" style="stop-color:#BEA277"/>
		<stop  offset="0.15" style="stop-color:#F7DDB9"/>
		<stop  offset="0.25" style="stop-color:#F7DFBF"/>
		<stop  offset="0.52" style="stop-color:#D6B686"/>
		<stop  offset="0.69" style="stop-color:#BEA277"/>
		<stop  offset="0.8" style="stop-color:#B39870"/>
		<stop  offset="0.92" style="stop-color:#A99069"/>
	</linearGradient>
	<path fill="url(#SVGID_4_)" d="M221.363,547.894h123.75c3,0,5.703,2.508,5.703,5.598c0.297,3.402-2.461,5.602-5.457,5.602
		l-123.996,0.051c-3,0-5.25-2.559-5.25-5.652c0-3.348,2.426-5.598,5.422-5.598H221.363z"/>
	
		<linearGradient id="SVGID_5_" gradientUnits="userSpaceOnUse" x1="367.2778" y1="196.374" x2="202.2261" y2="196.374" gradientTransform="matrix(0.75 0 0 -0.75 69.8998 197.881)">
		<stop  offset="0" style="stop-color:#C7AD86"/>
		<stop  offset="0.15" style="stop-color:#FFE6C5"/>
		<stop  offset="0.25" style="stop-color:#FFE8C9"/>
		<stop  offset="0.52" style="stop-color:#DFC297"/>
		<stop  offset="0.69" style="stop-color:#C7AD86"/>
		<stop  offset="0.8" style="stop-color:#BCA37E"/>
		<stop  offset="0.92" style="stop-color:#B19A77"/>
	</linearGradient>
	<path fill="url(#SVGID_5_)" d="M224.57,46.902h117.75c1.5,0,3.039,1.586,3.039,3.668c-0.039,2.332-1.324,3.773-2.863,3.773
		L224.57,54.402c-1.5,0-3-1.746-3-3.832c0-2.168,1.234-3.77,2.773-3.77L224.57,46.902z"/>
	
		<linearGradient id="SVGID_6_" gradientUnits="userSpaceOnUse" x1="359.2251" y1="198.3047" x2="202.2261" y2="198.3047" gradientTransform="matrix(0.75 0 0 -0.75 72.9198 273.2247)">
		<stop  offset="0" style="stop-color:#BC9A6B"/>
		<stop  offset="0.15" style="stop-color:#F4D6B0"/>
		<stop  offset="0.25" style="stop-color:#F5D9B7"/>
		<stop  offset="0.52" style="stop-color:#D3AD79"/>
		<stop  offset="0.69" style="stop-color:#BC9A6B"/>
		<stop  offset="0.8" style="stop-color:#B19165"/>
		<stop  offset="0.92" style="stop-color:#A7895F"/>
	</linearGradient>
	<path fill="url(#SVGID_6_)" d="M342.339,122.246v4.5H224.59v-4.5H342.339z"/>
	
		<linearGradient id="SVGID_7_" gradientUnits="userSpaceOnUse" x1="359.2251" y1="198.3047" x2="202.2261" y2="198.3047" gradientTransform="matrix(0.75 0 0 -0.75 72.9198 391.4786)">
		<stop  offset="0" style="stop-color:#BC9A6B"/>
		<stop  offset="0.15" style="stop-color:#F4D6B0"/>
		<stop  offset="0.25" style="stop-color:#F5D9B7"/>
		<stop  offset="0.52" style="stop-color:#D3AD79"/>
		<stop  offset="0.69" style="stop-color:#BC9A6B"/>
		<stop  offset="0.8" style="stop-color:#B19165"/>
		<stop  offset="0.92" style="stop-color:#A7895F"/>
	</linearGradient>
	<path fill="url(#SVGID_7_)" d="M342.339,240.5v4.5H224.59v-4.5H342.339z"/>
	
		<linearGradient id="SVGID_8_" gradientUnits="userSpaceOnUse" x1="359.2251" y1="198.3057" x2="202.2261" y2="198.3056" gradientTransform="matrix(0.75 0 0 -0.75 72.9198 509.7316)">
		<stop  offset="0" style="stop-color:#BC9A6B"/>
		<stop  offset="0.15" style="stop-color:#F4D6B0"/>
		<stop  offset="0.25" style="stop-color:#F5D9B7"/>
		<stop  offset="0.52" style="stop-color:#D3AD79"/>
		<stop  offset="0.69" style="stop-color:#BC9A6B"/>
		<stop  offset="0.8" style="stop-color:#B19165"/>
		<stop  offset="0.92" style="stop-color:#A7895F"/>
	</linearGradient>
	<path fill="url(#SVGID_8_)" d="M342.339,358.753v4.5H224.59v-4.5H342.339z"/>
	
		<linearGradient id="SVGID_9_" gradientUnits="userSpaceOnUse" x1="359.2241" y1="198.3057" x2="202.2251" y2="198.3056" gradientTransform="matrix(0.75 0 0 -0.75 72.9203 627.9855)">
		<stop  offset="0" style="stop-color:#BC9A6B"/>
		<stop  offset="0.15" style="stop-color:#F4D6B0"/>
		<stop  offset="0.25" style="stop-color:#F5D9B7"/>
		<stop  offset="0.52" style="stop-color:#D3AD79"/>
		<stop  offset="0.69" style="stop-color:#BC9A6B"/>
		<stop  offset="0.8" style="stop-color:#B19165"/>
		<stop  offset="0.92" style="stop-color:#A7895F"/>
	</linearGradient>
	<path fill="url(#SVGID_9_)" d="M342.339,477.007v4.5H224.59v-4.5H342.339z"/>
	
		<linearGradient id="SVGID_10_" gradientUnits="userSpaceOnUse" x1="207.2271" y1="-129.5454" x2="202.1177" y2="-129.5454" gradientTransform="matrix(0.75 0 0 -0.75 109.8802 214.5822)">
		<stop  offset="0" style="stop-color:#B9B9B9"/>
		<stop  offset="0.15" style="stop-color:#F2F2F2"/>
		<stop  offset="0.25" style="stop-color:#F3F3F3"/>
		<stop  offset="0.52" style="stop-color:#D0D0D0"/>
		<stop  offset="0.69" style="stop-color:#B9B9B9"/>
		<stop  offset="0.8" style="stop-color:#AFAFAF"/>
		<stop  offset="0.92" style="stop-color:#A5A5A5"/>
	</linearGradient>
	<path fill="url(#SVGID_10_)" d="M263.051,63.605c1.5,0,2.043,0.801,2.043,1.82l0.207,492.429c0,0.75-1.02,1.984-2.02,1.984
		c-0.98,0.266-1.813-0.883-1.813-1.902l0.082-492.832c0-0.75,0.727-1.5,1.73-1.5H263.051z"/>
	
		<linearGradient id="SVGID_11_" gradientUnits="userSpaceOnUse" x1="207.2266" y1="-129.5454" x2="202.1172" y2="-129.5454" gradientTransform="matrix(0.75 0 0 -0.75 137.5287 214.5822)">
		<stop  offset="0" style="stop-color:#B9B9B9"/>
		<stop  offset="0.15" style="stop-color:#F2F2F2"/>
		<stop  offset="0.25" style="stop-color:#F3F3F3"/>
		<stop  offset="0.52" style="stop-color:#D0D0D0"/>
		<stop  offset="0.69" style="stop-color:#B9B9B9"/>
		<stop  offset="0.8" style="stop-color:#AFAFAF"/>
		<stop  offset="0.92" style="stop-color:#A5A5A5"/>
	</linearGradient>
	<path fill="url(#SVGID_11_)" d="M290.699,63.605c1.5,0,2.043,0.801,2.043,1.82l0.207,492.429c0,0.75-1.02,1.984-2.02,1.984
		c-0.98,0.266-1.813-0.883-1.813-1.902l0.082-492.832c0-0.75,0.73-1.5,1.73-1.5H290.699z"/>
	
		<linearGradient id="SVGID_12_" gradientUnits="userSpaceOnUse" x1="6.7295" y1="347.1743" x2="1.3027" y2="347.1743" gradientTransform="matrix(0 -0.75 -0.75 0 538.6017 202.6954)">
		<stop  offset="0" style="stop-color:#B9B9B9"/>
		<stop  offset="0.15" style="stop-color:#F2F2F2"/>
		<stop  offset="0.25" style="stop-color:#F3F3F3"/>
		<stop  offset="0.52" style="stop-color:#D0D0D0"/>
		<stop  offset="0.69" style="stop-color:#B9B9B9"/>
		<stop  offset="0.8" style="stop-color:#AFAFAF"/>
		<stop  offset="0.92" style="stop-color:#A5A5A5"/>
	</linearGradient>
	<path fill="url(#SVGID_12_)" d="M264.324,199.469c0-0.75,0.234-1.82,0.523-1.82l26.476,0.32c0.75,0,0.793,0.523,0.793,1.559
		c-0.043,1.441-0.234,2.191-0.527,2.191h-26.515c-0.75,0-0.75-0.84-0.75-1.879V199.469z"/>
	
		<linearGradient id="SVGID_13_" gradientUnits="userSpaceOnUse" x1="6.7266" y1="347.1753" x2="1.3047" y2="347.1753" gradientTransform="matrix(0 -0.75 -0.75 0 538.8165 225.8448)">
		<stop  offset="0" style="stop-color:#B9B9B9"/>
		<stop  offset="0.15" style="stop-color:#F2F2F2"/>
		<stop  offset="0.25" style="stop-color:#F3F3F3"/>
		<stop  offset="0.52" style="stop-color:#D0D0D0"/>
		<stop  offset="0.69" style="stop-color:#B9B9B9"/>
		<stop  offset="0.8" style="stop-color:#AFAFAF"/>
		<stop  offset="0.92" style="stop-color:#A5A5A5"/>
	</linearGradient>
	<path fill="url(#SVGID_13_)" d="M264.539,222.617c0-0.75,0.234-1.816,0.523-1.816l26.476,0.316c0.75,0,0.793,0.523,0.793,1.559
		c-0.043,1.441-0.234,2.191-0.527,2.191h-26.515c-0.75,0-0.75-0.84-0.75-1.879V222.617z"/>
	
		<linearGradient id="SVGID_14_" gradientUnits="userSpaceOnUse" x1="6.7266" y1="347.1733" x2="1.3047" y2="347.1733" gradientTransform="matrix(0 -0.75 -0.75 0 538.9904 248.4386)">
		<stop  offset="0" style="stop-color:#B9B9B9"/>
		<stop  offset="0.15" style="stop-color:#F2F2F2"/>
		<stop  offset="0.25" style="stop-color:#F3F3F3"/>
		<stop  offset="0.52" style="stop-color:#D0D0D0"/>
		<stop  offset="0.69" style="stop-color:#B9B9B9"/>
		<stop  offset="0.8" style="stop-color:#AFAFAF"/>
		<stop  offset="0.92" style="stop-color:#A5A5A5"/>
	</linearGradient>
	<path fill="url(#SVGID_14_)" d="M264.715,245.211c0-0.75,0.23-1.816,0.523-1.816l26.476,0.316c0.75,0,0.793,0.523,0.793,1.559
		c-0.043,1.441-0.238,2.191-0.527,2.191h-26.515c-0.75,0-0.75-0.84-0.75-1.879V245.211z"/>
	
		<linearGradient id="SVGID_15_" gradientUnits="userSpaceOnUse" x1="6.7295" y1="347.1753" x2="1.3027" y2="347.1753" gradientTransform="matrix(0 -0.75 -0.75 0 538.8165 179.5392)">
		<stop  offset="0" style="stop-color:#B9B9B9"/>
		<stop  offset="0.15" style="stop-color:#F2F2F2"/>
		<stop  offset="0.25" style="stop-color:#F3F3F3"/>
		<stop  offset="0.52" style="stop-color:#D0D0D0"/>
		<stop  offset="0.69" style="stop-color:#B9B9B9"/>
		<stop  offset="0.8" style="stop-color:#AFAFAF"/>
		<stop  offset="0.92" style="stop-color:#A5A5A5"/>
	</linearGradient>
	<path fill="url(#SVGID_15_)" d="M264.539,176.313c0-0.75,0.234-1.82,0.523-1.82l26.476,0.32c0.75,0,0.793,0.523,0.793,1.559
		c-0.043,1.441-0.234,2.191-0.527,2.191h-26.515c-0.75,0-0.75-0.84-0.75-1.879V176.313z"/>
	
		<linearGradient id="SVGID_16_" gradientUnits="userSpaceOnUse" x1="6.7295" y1="347.1753" x2="1.3027" y2="347.1753" gradientTransform="matrix(0 -0.75 -0.75 0 538.2365 156.3829)">
		<stop  offset="0" style="stop-color:#B9B9B9"/>
		<stop  offset="0.15" style="stop-color:#F2F2F2"/>
		<stop  offset="0.25" style="stop-color:#F3F3F3"/>
		<stop  offset="0.52" style="stop-color:#D0D0D0"/>
		<stop  offset="0.69" style="stop-color:#B9B9B9"/>
		<stop  offset="0.8" style="stop-color:#AFAFAF"/>
		<stop  offset="0.92" style="stop-color:#A5A5A5"/>
	</linearGradient>
	<path fill="url(#SVGID_16_)" d="M263.957,153.156c0-0.75,0.234-1.82,0.527-1.82l26.472,0.32c0.75,0,0.797,0.523,0.797,1.559
		c-0.047,1.441-0.238,2.191-0.527,2.191h-26.519c-0.75,0-0.75-0.84-0.75-1.879V153.156z"/>
	
		<linearGradient id="SVGID_17_" gradientUnits="userSpaceOnUse" x1="6.7305" y1="347.1743" x2="1.3037" y2="347.1743" gradientTransform="matrix(0 -0.75 -0.75 0 538.2325 133.0704)">
		<stop  offset="0" style="stop-color:#B9B9B9"/>
		<stop  offset="0.15" style="stop-color:#F2F2F2"/>
		<stop  offset="0.25" style="stop-color:#F3F3F3"/>
		<stop  offset="0.52" style="stop-color:#D0D0D0"/>
		<stop  offset="0.69" style="stop-color:#B9B9B9"/>
		<stop  offset="0.8" style="stop-color:#AFAFAF"/>
		<stop  offset="0.92" style="stop-color:#A5A5A5"/>
	</linearGradient>
	<path fill="url(#SVGID_17_)" d="M263.953,129.844c0-0.75,0.234-1.82,0.527-1.82l26.472,0.32c0.75,0,0.797,0.523,0.797,1.559
		c-0.047,1.441-0.238,2.191-0.531,2.191h-26.515c-0.75,0-0.75-0.84-0.75-1.879V129.844z"/>
	
		<linearGradient id="SVGID_18_" gradientUnits="userSpaceOnUse" x1="6.7295" y1="347.1743" x2="1.3027" y2="347.1743" gradientTransform="matrix(0 -0.75 -0.75 0 538.2384 109.9884)">
		<stop  offset="0" style="stop-color:#B9B9B9"/>
		<stop  offset="0.15" style="stop-color:#F2F2F2"/>
		<stop  offset="0.25" style="stop-color:#F3F3F3"/>
		<stop  offset="0.52" style="stop-color:#D0D0D0"/>
		<stop  offset="0.69" style="stop-color:#B9B9B9"/>
		<stop  offset="0.8" style="stop-color:#AFAFAF"/>
		<stop  offset="0.92" style="stop-color:#A5A5A5"/>
	</linearGradient>
	<path fill="url(#SVGID_18_)" d="M263.961,106.762c0-0.75,0.234-1.82,0.523-1.82l26.476,0.32c0.75,0,0.793,0.523,0.793,1.559
		c-0.043,1.441-0.234,2.191-0.527,2.191h-26.515c-0.75,0-0.75-0.84-0.75-1.879V106.762z"/>
	
		<linearGradient id="SVGID_19_" gradientUnits="userSpaceOnUse" x1="6.7285" y1="347.1733" x2="1.3066" y2="347.1733" gradientTransform="matrix(0 -0.75 -0.75 0 538.8146 86.9044)">
		<stop  offset="0" style="stop-color:#B9B9B9"/>
		<stop  offset="0.15" style="stop-color:#F2F2F2"/>
		<stop  offset="0.25" style="stop-color:#F3F3F3"/>
		<stop  offset="0.52" style="stop-color:#D0D0D0"/>
		<stop  offset="0.69" style="stop-color:#B9B9B9"/>
		<stop  offset="0.8" style="stop-color:#AFAFAF"/>
		<stop  offset="0.92" style="stop-color:#A5A5A5"/>
	</linearGradient>
	<path fill="url(#SVGID_19_)" d="M264.539,83.676c0-0.75,0.234-1.816,0.523-1.816l26.476,0.316c0.75,0,0.793,0.523,0.793,1.563
		c-0.043,1.438-0.238,2.188-0.527,2.188h-26.515c-0.75,0-0.75-0.84-0.75-1.875V83.676z"/>
	
		<linearGradient id="SVGID_20_" gradientUnits="userSpaceOnUse" x1="6.7285" y1="347.1743" x2="1.3066" y2="347.1743" gradientTransform="matrix(0 -0.75 -0.75 0 538.6017 386.5997)">
		<stop  offset="0" style="stop-color:#B9B9B9"/>
		<stop  offset="0.15" style="stop-color:#F2F2F2"/>
		<stop  offset="0.25" style="stop-color:#F3F3F3"/>
		<stop  offset="0.52" style="stop-color:#D0D0D0"/>
		<stop  offset="0.69" style="stop-color:#B9B9B9"/>
		<stop  offset="0.8" style="stop-color:#AFAFAF"/>
		<stop  offset="0.92" style="stop-color:#A5A5A5"/>
	</linearGradient>
	<path fill="url(#SVGID_20_)" d="M264.324,383.371c0-0.75,0.234-1.816,0.523-1.816l26.476,0.316c0.75,0,0.793,0.523,0.793,1.559
		c-0.043,1.441-0.234,2.191-0.527,2.191h-26.515c-0.75,0-0.75-0.84-0.75-1.879V383.371z"/>
	
		<linearGradient id="SVGID_21_" gradientUnits="userSpaceOnUse" x1="6.7275" y1="347.1753" x2="1.3057" y2="347.1753" gradientTransform="matrix(0 -0.75 -0.75 0 538.8165 409.7482)">
		<stop  offset="0" style="stop-color:#B9B9B9"/>
		<stop  offset="0.15" style="stop-color:#F2F2F2"/>
		<stop  offset="0.25" style="stop-color:#F3F3F3"/>
		<stop  offset="0.52" style="stop-color:#D0D0D0"/>
		<stop  offset="0.69" style="stop-color:#B9B9B9"/>
		<stop  offset="0.8" style="stop-color:#AFAFAF"/>
		<stop  offset="0.92" style="stop-color:#A5A5A5"/>
	</linearGradient>
	<path fill="url(#SVGID_21_)" d="M264.539,406.519c0-0.75,0.234-1.816,0.523-1.816l26.476,0.316c0.75,0,0.793,0.523,0.793,1.563
		c-0.043,1.438-0.234,2.188-0.527,2.188h-26.515c-0.75,0-0.75-0.84-0.75-1.875V406.519z"/>
	
		<linearGradient id="SVGID_22_" gradientUnits="userSpaceOnUse" x1="6.7295" y1="347.1733" x2="1.3076" y2="347.1733" gradientTransform="matrix(0 -0.75 -0.75 0 538.9904 432.3429)">
		<stop  offset="0" style="stop-color:#B9B9B9"/>
		<stop  offset="0.15" style="stop-color:#F2F2F2"/>
		<stop  offset="0.25" style="stop-color:#F3F3F3"/>
		<stop  offset="0.52" style="stop-color:#D0D0D0"/>
		<stop  offset="0.69" style="stop-color:#B9B9B9"/>
		<stop  offset="0.8" style="stop-color:#AFAFAF"/>
		<stop  offset="0.92" style="stop-color:#A5A5A5"/>
	</linearGradient>
	<path fill="url(#SVGID_22_)" d="M264.715,429.113c0-0.75,0.23-1.816,0.523-1.816l26.476,0.316c0.75,0,0.793,0.523,0.793,1.563
		c-0.043,1.438-0.238,2.188-0.527,2.188h-26.515c-0.75,0-0.75-0.84-0.75-1.875V429.113z"/>
	
		<linearGradient id="SVGID_23_" gradientUnits="userSpaceOnUse" x1="6.7266" y1="347.1753" x2="1.3047" y2="347.1753" gradientTransform="matrix(0 -0.75 -0.75 0 538.8165 363.4425)">
		<stop  offset="0" style="stop-color:#B9B9B9"/>
		<stop  offset="0.15" style="stop-color:#F2F2F2"/>
		<stop  offset="0.25" style="stop-color:#F3F3F3"/>
		<stop  offset="0.52" style="stop-color:#D0D0D0"/>
		<stop  offset="0.69" style="stop-color:#B9B9B9"/>
		<stop  offset="0.8" style="stop-color:#AFAFAF"/>
		<stop  offset="0.92" style="stop-color:#A5A5A5"/>
	</linearGradient>
	<path fill="url(#SVGID_23_)" d="M264.539,360.214c0-0.75,0.234-1.816,0.523-1.816l26.476,0.316c0.75,0,0.793,0.523,0.793,1.559
		c-0.043,1.441-0.234,2.191-0.527,2.191h-26.515c-0.75,0-0.75-0.84-0.75-1.879V360.214z"/>
	
		<linearGradient id="SVGID_24_" gradientUnits="userSpaceOnUse" x1="6.7266" y1="347.1753" x2="1.3047" y2="347.1753" gradientTransform="matrix(0 -0.75 -0.75 0 538.2365 340.2863)">
		<stop  offset="0" style="stop-color:#B9B9B9"/>
		<stop  offset="0.15" style="stop-color:#F2F2F2"/>
		<stop  offset="0.25" style="stop-color:#F3F3F3"/>
		<stop  offset="0.52" style="stop-color:#D0D0D0"/>
		<stop  offset="0.69" style="stop-color:#B9B9B9"/>
		<stop  offset="0.8" style="stop-color:#AFAFAF"/>
		<stop  offset="0.92" style="stop-color:#A5A5A5"/>
	</linearGradient>
	<path fill="url(#SVGID_24_)" d="M263.957,337.058c0-0.75,0.234-1.816,0.527-1.816l26.472,0.316c0.75,0,0.797,0.523,0.797,1.559
		c-0.047,1.441-0.238,2.191-0.527,2.191h-26.519c-0.75,0-0.75-0.84-0.75-1.879V337.058z"/>
	
		<linearGradient id="SVGID_25_" gradientUnits="userSpaceOnUse" x1="6.7266" y1="347.1743" x2="1.3047" y2="347.1743" gradientTransform="matrix(0 -0.75 -0.75 0 538.2325 316.9738)">
		<stop  offset="0" style="stop-color:#B9B9B9"/>
		<stop  offset="0.15" style="stop-color:#F2F2F2"/>
		<stop  offset="0.25" style="stop-color:#F3F3F3"/>
		<stop  offset="0.52" style="stop-color:#D0D0D0"/>
		<stop  offset="0.69" style="stop-color:#B9B9B9"/>
		<stop  offset="0.8" style="stop-color:#AFAFAF"/>
		<stop  offset="0.92" style="stop-color:#A5A5A5"/>
	</linearGradient>
	<path fill="url(#SVGID_25_)" d="M263.953,313.746c0-0.75,0.234-1.816,0.527-1.816l26.472,0.316c0.75,0,0.797,0.523,0.797,1.559
		c-0.047,1.441-0.238,2.191-0.531,2.191h-26.515c-0.75,0-0.75-0.84-0.75-1.879V313.746z"/>
	
		<linearGradient id="SVGID_26_" gradientUnits="userSpaceOnUse" x1="6.7266" y1="347.1743" x2="1.3047" y2="347.1743" gradientTransform="matrix(0 -0.75 -0.75 0 538.2384 293.8917)">
		<stop  offset="0" style="stop-color:#B9B9B9"/>
		<stop  offset="0.15" style="stop-color:#F2F2F2"/>
		<stop  offset="0.25" style="stop-color:#F3F3F3"/>
		<stop  offset="0.52" style="stop-color:#D0D0D0"/>
		<stop  offset="0.69" style="stop-color:#B9B9B9"/>
		<stop  offset="0.8" style="stop-color:#AFAFAF"/>
		<stop  offset="0.92" style="stop-color:#A5A5A5"/>
	</linearGradient>
	<path fill="url(#SVGID_26_)" d="M263.961,290.664c0-0.75,0.234-1.816,0.523-1.816l26.476,0.316c0.75,0,0.793,0.523,0.793,1.559
		c-0.043,1.441-0.234,2.191-0.527,2.191h-26.515c-0.75,0-0.75-0.84-0.75-1.879V290.664z"/>
	
		<linearGradient id="SVGID_27_" gradientUnits="userSpaceOnUse" x1="6.7285" y1="347.1733" x2="1.3008" y2="347.1733" gradientTransform="matrix(0 -0.75 -0.75 0 538.8146 270.8077)">
		<stop  offset="0" style="stop-color:#B9B9B9"/>
		<stop  offset="0.15" style="stop-color:#F2F2F2"/>
		<stop  offset="0.25" style="stop-color:#F3F3F3"/>
		<stop  offset="0.52" style="stop-color:#D0D0D0"/>
		<stop  offset="0.69" style="stop-color:#B9B9B9"/>
		<stop  offset="0.8" style="stop-color:#AFAFAF"/>
		<stop  offset="0.92" style="stop-color:#A5A5A5"/>
	</linearGradient>
	<path fill="url(#SVGID_27_)" d="M264.539,267.582c0-0.75,0.234-1.82,0.523-1.82l26.476,0.32c0.75,0,0.793,0.52,0.793,1.559
		c-0.043,1.441-0.238,2.191-0.527,2.191h-26.515c-0.75,0-0.75-0.844-0.75-1.879V267.582z"/>
	
		<linearGradient id="SVGID_28_" gradientUnits="userSpaceOnUse" x1="6.7314" y1="347.1733" x2="1.3047" y2="347.1733" gradientTransform="matrix(0 -0.75 -0.75 0 538.6095 544.1642)">
		<stop  offset="0" style="stop-color:#B9B9B9"/>
		<stop  offset="0.15" style="stop-color:#F2F2F2"/>
		<stop  offset="0.25" style="stop-color:#F3F3F3"/>
		<stop  offset="0.52" style="stop-color:#D0D0D0"/>
		<stop  offset="0.69" style="stop-color:#B9B9B9"/>
		<stop  offset="0.8" style="stop-color:#AFAFAF"/>
		<stop  offset="0.92" style="stop-color:#A5A5A5"/>
	</linearGradient>
	<path fill="url(#SVGID_28_)" d="M264.332,540.937c0-0.75,0.234-1.82,0.523-1.82l26.476,0.32c0.75,0,0.797,0.523,0.797,1.559
		c-0.047,1.441-0.238,2.191-0.527,2.191h-26.519c-0.75,0-0.75-0.84-0.75-1.879V540.937z"/>
	
		<linearGradient id="SVGID_29_" gradientUnits="userSpaceOnUse" x1="6.7314" y1="347.1724" x2="1.3047" y2="347.1724" gradientTransform="matrix(0 -0.75 -0.75 0 538.5958 521.0079)">
		<stop  offset="0" style="stop-color:#B9B9B9"/>
		<stop  offset="0.15" style="stop-color:#F2F2F2"/>
		<stop  offset="0.25" style="stop-color:#F3F3F3"/>
		<stop  offset="0.52" style="stop-color:#D0D0D0"/>
		<stop  offset="0.69" style="stop-color:#B9B9B9"/>
		<stop  offset="0.8" style="stop-color:#AFAFAF"/>
		<stop  offset="0.92" style="stop-color:#A5A5A5"/>
	</linearGradient>
	<path fill="url(#SVGID_29_)" d="M264.32,517.781c0-0.75,0.23-1.82,0.523-1.82l26.476,0.32c0.75,0,0.793,0.523,0.793,1.559
		c-0.043,1.441-0.234,2.191-0.527,2.191H265.07c-0.75,0-0.75-0.84-0.75-1.879V517.781z"/>
	
		<linearGradient id="SVGID_30_" gradientUnits="userSpaceOnUse" x1="6.7266" y1="347.1763" x2="1.3047" y2="347.1763" gradientTransform="matrix(0 -0.75 -0.75 0 538.5919 499.462)">
		<stop  offset="0" style="stop-color:#B9B9B9"/>
		<stop  offset="0.15" style="stop-color:#F2F2F2"/>
		<stop  offset="0.25" style="stop-color:#F3F3F3"/>
		<stop  offset="0.52" style="stop-color:#D0D0D0"/>
		<stop  offset="0.69" style="stop-color:#B9B9B9"/>
		<stop  offset="0.8" style="stop-color:#AFAFAF"/>
		<stop  offset="0.92" style="stop-color:#A5A5A5"/>
	</linearGradient>
	<path fill="url(#SVGID_30_)" d="M264.313,496.234c0-0.75,0.234-1.816,0.527-1.816l26.472,0.316c0.75,0,0.797,0.523,0.797,1.559
		c-0.047,1.441-0.234,2.191-0.527,2.191h-26.519c-0.75,0-0.75-0.84-0.75-1.879V496.234z"/>
	
		<linearGradient id="SVGID_31_" gradientUnits="userSpaceOnUse" x1="6.7285" y1="347.1733" x2="1.3018" y2="347.1733" gradientTransform="matrix(0 -0.75 -0.75 0 538.5988 477.0226)">
		<stop  offset="0" style="stop-color:#B9B9B9"/>
		<stop  offset="0.15" style="stop-color:#F2F2F2"/>
		<stop  offset="0.25" style="stop-color:#F3F3F3"/>
		<stop  offset="0.52" style="stop-color:#D0D0D0"/>
		<stop  offset="0.69" style="stop-color:#B9B9B9"/>
		<stop  offset="0.8" style="stop-color:#AFAFAF"/>
		<stop  offset="0.92" style="stop-color:#A5A5A5"/>
	</linearGradient>
	<path fill="url(#SVGID_31_)" d="M264.32,473.796c0-0.75,0.234-1.82,0.523-1.82l26.476,0.32c0.75,0,0.797,0.52,0.797,1.559
		c-0.047,1.441-0.238,2.191-0.527,2.191H265.07c-0.75,0-0.75-0.844-0.75-1.879V473.796z"/>
	
		<linearGradient id="SVGID_32_" gradientUnits="userSpaceOnUse" x1="6.7275" y1="347.1714" x2="1.3057" y2="347.1714" gradientTransform="matrix(0 -0.75 -0.75 0 538.6085 454.6779)">
		<stop  offset="0" style="stop-color:#B9B9B9"/>
		<stop  offset="0.15" style="stop-color:#F2F2F2"/>
		<stop  offset="0.25" style="stop-color:#F3F3F3"/>
		<stop  offset="0.52" style="stop-color:#D0D0D0"/>
		<stop  offset="0.69" style="stop-color:#B9B9B9"/>
		<stop  offset="0.8" style="stop-color:#AFAFAF"/>
		<stop  offset="0.92" style="stop-color:#A5A5A5"/>
	</linearGradient>
	<path fill="url(#SVGID_32_)" d="M264.332,451.449c0-0.75,0.234-1.816,0.523-1.816l26.476,0.316c0.75,0,0.797,0.523,0.797,1.563
		c-0.047,1.438-0.238,2.188-0.531,2.188h-26.515c-0.75,0-0.75-0.84-0.75-1.875V451.449z"/>
</g>
</svg>
