<?xml version="1.0" encoding="utf-8"?>
<!-- Generator: Adobe Illustrator 16.0.0, SVG Export Plug-In . SVG Version: 6.00 Build 0)  -->
<!DOCTYPE svg PUBLIC "-//W3C//DTD SVG 1.1//EN" "http://www.w3.org/Graphics/SVG/1.1/DTD/svg11.dtd">
<svg preserveAspectRatio="none"   version="1.1" id="图层_1" xmlns="http://www.w3.org/2000/svg" xmlns:xlink="http://www.w3.org/1999/xlink" x="0px" y="0px"
	 width="281.457px" height="556.467px" viewBox="142.699 5.154 281.457 556.467"
	 enable-background="new 142.699 5.154 281.457 556.467" xml:space="preserve">
<g id="surface6">
	
		<linearGradient id="SVGID_1_" gradientUnits="userSpaceOnUse" x1="335.2231" y1="192.8086" x2="202.2241" y2="192.8086" gradientTransform="matrix(0.75 0 0 -0.75 74.9564 649.4015)">
		<stop  offset="0" style="stop-color:#AC9890"/>
		<stop  offset="0.15" style="stop-color:#E6D4CD"/>
		<stop  offset="0.25" style="stop-color:#E8D7D1"/>
		<stop  offset="0.52" style="stop-color:#C1ABA2"/>
		<stop  offset="0.69" style="stop-color:#AC9890"/>
		<stop  offset="0.8" style="stop-color:#A28F88"/>
		<stop  offset="0.92" style="stop-color:#998780"/>
	</linearGradient>
	<path fill="url(#SVGID_1_)" d="M228.875,498.421h95.25c0.75,0,2.195,1.27,2.195,2.836l0.055,6.914c0,1.5-1.188,2.648-2.586,2.648
		l-94.914,0.352c-0.75,0-2.25-1.621-2.25-3.188v-6.563c0-1.5,1.133-3,2.531-3H228.875z"/>
	
		<linearGradient id="SVGID_2_" gradientUnits="userSpaceOnUse" x1="406.6392" y1="194.2217" x2="202.2227" y2="194.2217" gradientTransform="matrix(0.75 0 0 -0.75 48.1488 308.5206)">
		<stop  offset="0" style="stop-color:#B4A59F"/>
		<stop  offset="0.15" style="stop-color:#EDDFDA"/>
		<stop  offset="0.25" style="stop-color:#EEE2DD"/>
		<stop  offset="0.52" style="stop-color:#CAB9B3"/>
		<stop  offset="0.69" style="stop-color:#B4A59F"/>
		<stop  offset="0.8" style="stop-color:#AA9B96"/>
		<stop  offset="0.92" style="stop-color:#A0938E"/>
	</linearGradient>
	<path fill="url(#SVGID_2_)" d="M202.816,157.543h147.75c1.5,0,2.563,1.27,2.563,2.832l-0.313,4.668c0,1.5-0.941,3.125-2.492,3.125
		l-147.507-0.125c-1.5,0-3-1.145-3-2.707v-4.793c0-1.5,1.258-3,2.805-3H202.816z"/>
	
		<linearGradient id="SVGID_3_" gradientUnits="userSpaceOnUse" x1="334.2251" y1="148.3047" x2="202.2256" y2="148.3047" gradientTransform="matrix(0.75 0 0 -0.75 75.307 318.2599)">
		<stop  offset="0" style="stop-color:#B4A59F"/>
		<stop  offset="0.15" style="stop-color:#EDDFDA"/>
		<stop  offset="0.25" style="stop-color:#EEE2DD"/>
		<stop  offset="0.52" style="stop-color:#CAB9B3"/>
		<stop  offset="0.69" style="stop-color:#B4A59F"/>
		<stop  offset="0.8" style="stop-color:#AA9B96"/>
		<stop  offset="0.92" style="stop-color:#A0938E"/>
	</linearGradient>
	<path fill="url(#SVGID_3_)" d="M226.977,167.281h99v79.5h-99V167.281z"/>
	
		<linearGradient id="SVGID_4_" gradientUnits="userSpaceOnUse" x1="517.2212" y1="195.8062" x2="202.2222" y2="195.8061" gradientTransform="matrix(0.75 0 0 -0.75 6.536 397.0607)">
		<stop  offset="0" style="stop-color:#B4A59F"/>
		<stop  offset="0.15" style="stop-color:#EDDFDA"/>
		<stop  offset="0.25" style="stop-color:#EEE2DD"/>
		<stop  offset="0.52" style="stop-color:#CAB9B3"/>
		<stop  offset="0.69" style="stop-color:#B4A59F"/>
		<stop  offset="0.8" style="stop-color:#AA9B96"/>
		<stop  offset="0.92" style="stop-color:#A0938E"/>
	</linearGradient>
	<path fill="url(#SVGID_4_)" d="M158.203,246.082h236.25v8.25h-236.25V246.082z"/>
	
		<linearGradient id="SVGID_5_" gradientUnits="userSpaceOnUse" x1="334.2251" y1="43.3052" x2="202.2256" y2="43.3052" gradientTransform="matrix(0.75 0 0 -0.75 75.307 404.3224)">
		<stop  offset="0" style="stop-color:#B4A59F"/>
		<stop  offset="0.15" style="stop-color:#EDDFDA"/>
		<stop  offset="0.25" style="stop-color:#EEE2DD"/>
		<stop  offset="0.52" style="stop-color:#CAB9B3"/>
		<stop  offset="0.69" style="stop-color:#B4A59F"/>
		<stop  offset="0.8" style="stop-color:#AA9B96"/>
		<stop  offset="0.92" style="stop-color:#A0938E"/>
	</linearGradient>
	<path fill="url(#SVGID_5_)" d="M226.977,253.344h99v237h-99V253.344z"/>
	
		<linearGradient id="SVGID_6_" gradientUnits="userSpaceOnUse" x1="349.4009" y1="192.8037" x2="202.2251" y2="192.8037" gradientTransform="matrix(0.75 0 0 -0.75 69.6122 640.547)">
		<stop  offset="0" style="stop-color:#B4A59F"/>
		<stop  offset="0.15" style="stop-color:#EDDFDA"/>
		<stop  offset="0.25" style="stop-color:#EEE2DD"/>
		<stop  offset="0.52" style="stop-color:#CAB9B3"/>
		<stop  offset="0.69" style="stop-color:#B4A59F"/>
		<stop  offset="0.8" style="stop-color:#AA9B96"/>
		<stop  offset="0.92" style="stop-color:#A0938E"/>
	</linearGradient>
	<path fill="url(#SVGID_6_)" d="M224.281,489.57h104.25c2.25,0,3.133,1.27,3.133,2.832l-0.133,6.918c0,1.5-1.121,2.645-2.668,2.645
		l-104.582,0.355c-1.5,0-3-1.625-3-3.188v-6.563c0-1.5,1.254-3,2.805-3H224.281z"/>
	
		<linearGradient id="SVGID_7_" gradientUnits="userSpaceOnUse" x1="350.2231" y1="165.2988" x2="202.2246" y2="165.2988" gradientTransform="matrix(0.75 0 0 -0.75 69.4755 658.588)">
		<stop  offset="0" style="stop-color:#B4A59F"/>
		<stop  offset="0.15" style="stop-color:#EDDFDA"/>
		<stop  offset="0.25" style="stop-color:#EEE2DD"/>
		<stop  offset="0.52" style="stop-color:#CAB9B3"/>
		<stop  offset="0.69" style="stop-color:#B4A59F"/>
		<stop  offset="0.8" style="stop-color:#AA9B96"/>
		<stop  offset="0.92" style="stop-color:#A0938E"/>
	</linearGradient>
	<path fill="url(#SVGID_7_)" d="M224.145,507.609h105c1.5,0,2.656,1.23,2.656,2.797l0.344,48.203c0,1.5-1.617,3.012-3.164,3.012
		l-104.835-0.012c-1.5,0-3-1.297-3-2.859v-48.141c0-1.5,1.219-3,2.766-3H224.145z"/>
	
		<linearGradient id="SVGID_8_" gradientUnits="userSpaceOnUse" x1="238.2266" y1="-59.6978" x2="202.2266" y2="-59.6978" gradientTransform="matrix(0.75 0 0 -0.75 242.1962 274.4327)">
		<stop  offset="0" style="stop-color:#B4A59F"/>
		<stop  offset="0.15" style="stop-color:#EDDFDA"/>
		<stop  offset="0.25" style="stop-color:#EEE2DD"/>
		<stop  offset="0.52" style="stop-color:#CAB9B3"/>
		<stop  offset="0.69" style="stop-color:#B4A59F"/>
		<stop  offset="0.8" style="stop-color:#AA9B96"/>
		<stop  offset="0.92" style="stop-color:#A0938E"/>
	</linearGradient>
	<path fill="url(#SVGID_8_)" d="M393.867,123.457h27v391.5h-27V123.457z"/>
	
		<linearGradient id="SVGID_9_" gradientUnits="userSpaceOnUse" x1="252.2241" y1="201.3008" x2="252.2241" y2="184.3008" gradientTransform="matrix(0.75 0 0 -0.75 171.0975 611.507)">
		<stop  offset="0" style="stop-color:#B4A59F"/>
		<stop  offset="0.15" style="stop-color:#EDDFDA"/>
		<stop  offset="0.25" style="stop-color:#EEE2DD"/>
		<stop  offset="0.52" style="stop-color:#CAB9B3"/>
		<stop  offset="0.69" style="stop-color:#B4A59F"/>
		<stop  offset="0.8" style="stop-color:#AA9B96"/>
		<stop  offset="0.92" style="stop-color:#A0938E"/>
	</linearGradient>
	<path fill="url(#SVGID_9_)" d="M325.015,460.531h70.5c1.5,0,2.109,1.266,2.109,2.832l0.141,6.918c0,1.5-0.992,2.645-2.043,2.645
		l-70.707,0.355c-1.5,0-2.25-1.625-2.25-3.191v-6.559c0-1.5,0.852-3,1.902-3H325.015z"/>
	
		<linearGradient id="SVGID_10_" gradientUnits="userSpaceOnUse" x1="37.459" y1="339.2036" x2="1.3027" y2="339.2036" gradientTransform="matrix(0 -0.75 -0.75 0 599.0577 551.7921)">
		<stop  offset="0" style="stop-color:#B4A59F"/>
		<stop  offset="0.15" style="stop-color:#EDDFDA"/>
		<stop  offset="0.25" style="stop-color:#EEE2DD"/>
		<stop  offset="0.52" style="stop-color:#CAB9B3"/>
		<stop  offset="0.69" style="stop-color:#B4A59F"/>
		<stop  offset="0.8" style="stop-color:#AA9B96"/>
		<stop  offset="0.92" style="stop-color:#A0938E"/>
	</linearGradient>
	<path fill="url(#SVGID_10_)" d="M329.281,550.816c0,0-4.5-0.449-4.5-12.844c0-12.656,4.352-14.273,4.352-14.273l35.398,0.117v27
		H329.281z"/>
	
		<linearGradient id="SVGID_11_" gradientUnits="userSpaceOnUse" x1="286.1694" y1="524.6821" x2="202.0898" y2="524.6821" gradientTransform="matrix(0.75 0 0 0.75 206.0487 125.8475)">
		<stop  offset="0" style="stop-color:#9D908C"/>
		<stop  offset="0" style="stop-color:#A0938E"/>
		<stop  offset="0.07" style="stop-color:#CFC2BD"/>
		<stop  offset="0.24" style="stop-color:#B1A39D"/>
		<stop  offset="1" style="stop-color:#B1A39D"/>
	</linearGradient>
	<path fill="url(#SVGID_11_)" d="M357.718,550.816h39.75c0,0,23.055,3.051,23.055-27.355c0.195-30.395,0.148-35.531,0.148-35.531
		l-26.953-0.113v8.25c0,0,2.227,25.793-17.094,27.391c-10.656,0.359-18.977,0-19.008,0L357.718,550.816z"/>
	
		<linearGradient id="SVGID_12_" gradientUnits="userSpaceOnUse" x1="247.2256" y1="195.6968" x2="202.2256" y2="195.6968" gradientTransform="matrix(0.75 0 0 -0.75 238.7362 266.0206)">
		<stop  offset="0" style="stop-color:#B4A59F"/>
		<stop  offset="0.15" style="stop-color:#EDDFDA"/>
		<stop  offset="0.25" style="stop-color:#EEE2DD"/>
		<stop  offset="0.52" style="stop-color:#CAB9B3"/>
		<stop  offset="0.69" style="stop-color:#B4A59F"/>
		<stop  offset="0.8" style="stop-color:#AA9B96"/>
		<stop  offset="0.92" style="stop-color:#A0938E"/>
	</linearGradient>
	<path fill="url(#SVGID_12_)" d="M393.406,115.043h27.75c1.5,0,2.977,1.27,2.977,2.832l0.023,2.418c0,2.25-1.277,3.16-2.824,3.16
		l-27.926-0.16c-1.5,0-3-1.105-3-2.672v-2.578c0-1.5,1.254-3,2.801-3H393.406z"/>
	
		<linearGradient id="SVGID_13_" gradientUnits="userSpaceOnUse" x1="231.2231" y1="148.8057" x2="202.2231" y2="148.8057" gradientTransform="matrix(0.75 0 0 -0.75 59.516 318.5919)">
		<stop  offset="0" style="stop-color:#B4A59F"/>
		<stop  offset="0.52" style="stop-color:#CAB9B3"/>
		<stop  offset="0.69" style="stop-color:#B4A59F"/>
		<stop  offset="0.8" style="stop-color:#AA9B96"/>
		<stop  offset="0.92" style="stop-color:#A0938E"/>
	</linearGradient>
	<path fill="url(#SVGID_13_)" d="M211.184,168.363c0,0,11.063,4.82,15.734,16.625l0.016,61.375h6v-78.75L211.184,168.363z"/>
	
		<linearGradient id="SVGID_14_" gradientUnits="userSpaceOnUse" x1="194.7041" y1="148.8047" x2="165.7041" y2="148.8047" gradientTransform="matrix(-0.75 0 0 -0.75 468.6681 318.2599)">
		<stop  offset="0" style="stop-color:#B7ADA9"/>
		<stop  offset="0.52" style="stop-color:#CEC2BE"/>
		<stop  offset="0.69" style="stop-color:#B7ADA9"/>
		<stop  offset="0.8" style="stop-color:#ADA39F"/>
		<stop  offset="0.92" style="stop-color:#A39A96"/>
	</linearGradient>
	<path fill="url(#SVGID_14_)" d="M344.39,168.031c0,0-11.063,4.82-15.734,16.629l-0.016,61.371h-6v-78.75L344.39,168.031z"/>
	<path fill="#D3C1BD" d="M255.586,168.031c0,0,0.883,2.555,2.996,16.629l0.004,61.371h3.75v-78.75L255.586,168.031z"/>
	<path fill="#A59792" d="M255.617,167.281c0,0,2.488,2.836,2.965,17.379l0.035,61.371h-2.25v-61.5c0,0-0.129-11.82-4.516-17.25
		H255.617z"/>
	<path fill="#A59792" d="M304.98,168.031c0,0-0.883,2.555-2.992,16.629l-0.008,61.371h-3.75v-78.75L304.98,168.031z"/>
	<path fill="#D3C1BD" d="M304.953,167.281c0,0-2.488,2.836-2.965,17.379l-0.035,61.371h2.25v-61.5c0,0,0.129-11.82,4.512-17.25
		H304.953z"/>
	
		<linearGradient id="SVGID_15_" gradientUnits="userSpaceOnUse" x1="351.2261" y1="112.8027" x2="202.2261" y2="112.8027" gradientTransform="matrix(0.75 0 0 -0.75 83.892 176.004)">
		<stop  offset="0" style="stop-color:#A89F9B"/>
		<stop  offset="0.03" style="stop-color:#F2E7E4"/>
		<stop  offset="0.08" style="stop-color:#DBCFCB"/>
		<stop  offset="0.64" style="stop-color:#D8CCC7"/>
		<stop  offset="0.95" style="stop-color:#D3C7C3"/>
		<stop  offset="1" style="stop-color:#9C9390"/>
	</linearGradient>
	<path fill="url(#SVGID_15_)" d="M235.563,25.027h111.75v132.75h-111.75V25.027z"/>
	
		<linearGradient id="SVGID_16_" gradientUnits="userSpaceOnUse" x1="5.3027" y1="365.7007" x2="5.3027" y2="297.7007" gradientTransform="matrix(0 -0.75 -0.75 0 447.1075 140.8673)">
		<stop  offset="0" style="stop-color:#8B8E91"/>
		<stop  offset="0.15" style="stop-color:#C2C5C8"/>
		<stop  offset="0.25" style="stop-color:#DEDFE1"/>
		<stop  offset="0.52" style="stop-color:#A5A8AB"/>
		<stop  offset="0.69" style="stop-color:#939598"/>
		<stop  offset="0.8" style="stop-color:#8A8C8F"/>
		<stop  offset="0.92" style="stop-color:#828487"/>
		<stop  offset="1" style="stop-color:#96999C"/>
	</linearGradient>
	<path fill="url(#SVGID_16_)" d="M172.832,139.891v-6h51v6H172.832z"/>
	
		<linearGradient id="SVGID_17_" gradientUnits="userSpaceOnUse" x1="7.8076" y1="365.7017" x2="7.8076" y2="266.7017" gradientTransform="matrix(0 -0.75 -0.75 0 434.4835 135.2648)">
		<stop  offset="0" style="stop-color:#9E9797"/>
		<stop  offset="0.15" style="stop-color:#D9D0D0"/>
		<stop  offset="0.25" style="stop-color:#EAE5E5"/>
		<stop  offset="0.52" style="stop-color:#BBB3B3"/>
		<stop  offset="0.69" style="stop-color:#A69F9F"/>
		<stop  offset="0.8" style="stop-color:#9D9696"/>
		<stop  offset="0.92" style="stop-color:#948E8E"/>
		<stop  offset="1" style="stop-color:#AAA3A3"/>
	</linearGradient>
	<path fill="url(#SVGID_17_)" d="M160.207,132.785v-8.25h74.25v8.25c0,0.75-1.098,1.5-2.074,1.5h-70.676
		c-0.75,0-1.5-0.797-1.5-1.781V132.785z"/>
	
		<linearGradient id="SVGID_18_" gradientUnits="userSpaceOnUse" x1="54.3027" y1="365.7046" x2="54.3027" y2="263.7046" gradientTransform="matrix(0 -0.75 -0.75 0 433.0704 121.0079)">
		<stop  offset="0" style="stop-color:#968E8E"/>
		<stop  offset="0.15" style="stop-color:#CFC5C5"/>
		<stop  offset="0.25" style="stop-color:#E4DFE0"/>
		<stop  offset="0.52" style="stop-color:#B1A8A9"/>
		<stop  offset="0.69" style="stop-color:#9E9596"/>
		<stop  offset="0.8" style="stop-color:#958C8D"/>
		<stop  offset="0.92" style="stop-color:#8C8485"/>
		<stop  offset="1" style="stop-color:#A19999"/>
	</linearGradient>
	<path fill="url(#SVGID_18_)" d="M158.793,120.031v-79.5h76.5v79.5H158.793z"/>
	
		<linearGradient id="SVGID_19_" gradientUnits="userSpaceOnUse" x1="25.0566" y1="365.7046" x2="25.0566" y2="262.7046" gradientTransform="matrix(0 -0.75 -0.75 0 433.0704 41.7618)">
		<stop  offset="0" style="stop-color:#968E8E"/>
		<stop  offset="0.15" style="stop-color:#CFC5C5"/>
		<stop  offset="0.25" style="stop-color:#E4DFE0"/>
		<stop  offset="0.52" style="stop-color:#B1A8A9"/>
		<stop  offset="0.69" style="stop-color:#9E9596"/>
		<stop  offset="0.8" style="stop-color:#958C8D"/>
		<stop  offset="0.92" style="stop-color:#8C8485"/>
		<stop  offset="1" style="stop-color:#A19999"/>
	</linearGradient>
	<path fill="url(#SVGID_19_)" d="M158.793,40.785v-28.5c0,0,0-6.953,38.441-7.117c38.059-0.383,38.441,7.234,38.441,7.234
		l0.367,28.383H158.793z"/>
	
		<linearGradient id="SVGID_20_" gradientUnits="userSpaceOnUse" x1="2.3037" y1="365.7046" x2="2.3037" y2="263.7046" gradientTransform="matrix(0 -0.75 -0.75 0 433.0704 42.0509)">
		<stop  offset="0" style="stop-color:#817A7A"/>
		<stop  offset="0.15" style="stop-color:#B5ADAD"/>
		<stop  offset="0.25" style="stop-color:#D8D4D4"/>
		<stop  offset="0.52" style="stop-color:#999191"/>
		<stop  offset="0.69" style="stop-color:#888080"/>
		<stop  offset="0.8" style="stop-color:#807979"/>
		<stop  offset="0.92" style="stop-color:#787272"/>
		<stop  offset="1" style="stop-color:#8B8383"/>
	</linearGradient>
	<path fill="url(#SVGID_20_)" d="M158.793,41.074v-1.5h76.5v1.5H158.793z"/>
	
		<linearGradient id="SVGID_21_" gradientUnits="userSpaceOnUse" x1="369.7632" y1="365.7046" x2="369.7632" y2="257.689" gradientTransform="matrix(0 0.75 -0.75 0 430.9542 -155.129)">
		<stop  offset="0" style="stop-color:#696363"/>
		<stop  offset="0.15" style="stop-color:#999292"/>
		<stop  offset="0.25" style="stop-color:#CCC9C9"/>
		<stop  offset="0.52" style="stop-color:#7C7575"/>
		<stop  offset="0.69" style="stop-color:#6E6868"/>
		<stop  offset="0.8" style="stop-color:#686262"/>
		<stop  offset="0.92" style="stop-color:#625C5C"/>
		<stop  offset="1" style="stop-color:#716A6A"/>
	</linearGradient>
	<path fill="url(#SVGID_21_)" d="M156.676,120.59v3c0,0.75,0.355,0.988,0.801,0.988l79.449-0.238c0,0,0.762-0.129,0.762-0.578
		l-0.012-3.172c0-0.75-0.379-0.781-0.824-0.781l-79.426,0.031c-0.75,0-0.75,0.336-0.75,0.785V120.59z"/>
	
		<linearGradient id="SVGID_22_" gradientUnits="userSpaceOnUse" x1="368.5981" y1="365.7065" x2="368.5981" y2="257.7065" gradientTransform="matrix(0 0.75 -0.75 0 431.049 -153.257)">
		<stop  offset="0" style="stop-color:#968E8E"/>
		<stop  offset="0.15" style="stop-color:#CFC5C5"/>
		<stop  offset="0.25" style="stop-color:#E4DFE0"/>
		<stop  offset="0.52" style="stop-color:#B1A8A9"/>
		<stop  offset="0.69" style="stop-color:#9E9596"/>
		<stop  offset="0.8" style="stop-color:#958C8D"/>
		<stop  offset="0.92" style="stop-color:#8C8485"/>
		<stop  offset="1" style="stop-color:#A19999"/>
	</linearGradient>
	<path fill="url(#SVGID_22_)" d="M156.77,122.461v0.75c0,0.75,0.359,1.363,0.805,1.363l79.445,0.137c0,0,0.574-0.605,0.574-1.188
		l0.176-1.063c0,0-0.559-0.789-1.004-0.789l-79.246,0.039c-0.75,0-0.75,0.434-0.75,1.012V122.461z"/>
	<path fill="#A59C9D" d="M224.027,116.555v-72.75h16.5v72.75H224.027z"/>
	
		<linearGradient id="SVGID_23_" gradientUnits="userSpaceOnUse" x1="47.3701" y1="365.7358" x2="47.3701" y2="362.2769" gradientTransform="matrix(0 -0.75 -0.75 0 450.298 112.2843)">
		<stop  offset="0" style="stop-color:#968E8E"/>
		<stop  offset="0.15" style="stop-color:#CFC5C5"/>
		<stop  offset="0.25" style="stop-color:#E4DFE0"/>
		<stop  offset="0.52" style="stop-color:#B1A8A9"/>
		<stop  offset="0.69" style="stop-color:#9E9596"/>
		<stop  offset="0.8" style="stop-color:#958C8D"/>
		<stop  offset="0.92" style="stop-color:#8C8485"/>
		<stop  offset="1" style="stop-color:#A19999"/>
	</linearGradient>
	<path fill="url(#SVGID_23_)" d="M176.02,110.555v-67.5c0-0.75,0.336-0.844,0.781-0.844l0.719,0.094c0.75,0,1.07,0.203,1.07,0.566
		l-0.32,67.684c0,0.75-0.043,0.75-0.488,0.75h-1.012c-0.75,0-0.773-0.273-0.773-0.637L176.02,110.555z"/>
	
		<linearGradient id="SVGID_24_" gradientUnits="userSpaceOnUse" x1="47.3701" y1="365.7378" x2="47.3701" y2="362.2798" gradientTransform="matrix(0 -0.75 -0.75 0 457.8497 112.2843)">
		<stop  offset="0" style="stop-color:#968E8E"/>
		<stop  offset="0.15" style="stop-color:#CFC5C5"/>
		<stop  offset="0.25" style="stop-color:#E4DFE0"/>
		<stop  offset="0.52" style="stop-color:#B1A8A9"/>
		<stop  offset="0.69" style="stop-color:#9E9596"/>
		<stop  offset="0.8" style="stop-color:#958C8D"/>
		<stop  offset="0.92" style="stop-color:#8C8485"/>
		<stop  offset="1" style="stop-color:#A19999"/>
	</linearGradient>
	<path fill="url(#SVGID_24_)" d="M183.574,110.555v-67.5c0-0.75,0.336-0.844,0.781-0.844l0.719,0.094
		c0.75,0,1.066,0.203,1.066,0.566l-0.316,67.684c0,0.75-0.047,0.75-0.492,0.75h-1.008c-0.75,0-0.777-0.273-0.777-0.637
		L183.574,110.555z"/>
	
		<linearGradient id="SVGID_25_" gradientUnits="userSpaceOnUse" x1="47.3701" y1="365.7368" x2="47.3701" y2="362.2788" gradientTransform="matrix(0 -0.75 -0.75 0 465.4025 112.2843)">
		<stop  offset="0" style="stop-color:#968E8E"/>
		<stop  offset="0.15" style="stop-color:#CFC5C5"/>
		<stop  offset="0.25" style="stop-color:#E4DFE0"/>
		<stop  offset="0.52" style="stop-color:#B1A8A9"/>
		<stop  offset="0.69" style="stop-color:#9E9596"/>
		<stop  offset="0.8" style="stop-color:#958C8D"/>
		<stop  offset="0.92" style="stop-color:#8C8485"/>
		<stop  offset="1" style="stop-color:#A19999"/>
	</linearGradient>
	<path fill="url(#SVGID_25_)" d="M191.125,110.555v-67.5c0-0.75,0.336-0.844,0.781-0.844l0.719,0.094
		c0.75,0,1.066,0.203,1.066,0.566l-0.316,67.684c0,0.75-0.043,0.75-0.488,0.75h-1.012c-0.75,0-0.777-0.273-0.777-0.637
		L191.125,110.555z"/>
	
		<linearGradient id="SVGID_26_" gradientUnits="userSpaceOnUse" x1="47.3701" y1="365.7358" x2="47.3701" y2="362.2778" gradientTransform="matrix(0 -0.75 -0.75 0 472.9542 112.2843)">
		<stop  offset="0" style="stop-color:#968E8E"/>
		<stop  offset="0.15" style="stop-color:#CFC5C5"/>
		<stop  offset="0.25" style="stop-color:#E4DFE0"/>
		<stop  offset="0.52" style="stop-color:#B1A8A9"/>
		<stop  offset="0.69" style="stop-color:#9E9596"/>
		<stop  offset="0.8" style="stop-color:#958C8D"/>
		<stop  offset="0.92" style="stop-color:#8C8485"/>
		<stop  offset="1" style="stop-color:#A19999"/>
	</linearGradient>
	<path fill="url(#SVGID_26_)" d="M198.676,110.555v-67.5c0-0.75,0.336-0.844,0.781-0.844l0.719,0.094c0.75,0,1.07,0.203,1.07,0.566
		l-0.32,67.684c0,0.75-0.043,0.75-0.488,0.75h-1.012c-0.75,0-0.773-0.273-0.773-0.637L198.676,110.555z"/>
	
		<linearGradient id="SVGID_27_" gradientUnits="userSpaceOnUse" x1="47.3701" y1="365.7368" x2="47.3701" y2="362.2788" gradientTransform="matrix(0 -0.75 -0.75 0 480.506 112.2843)">
		<stop  offset="0" style="stop-color:#968E8E"/>
		<stop  offset="0.15" style="stop-color:#CFC5C5"/>
		<stop  offset="0.25" style="stop-color:#E4DFE0"/>
		<stop  offset="0.52" style="stop-color:#B1A8A9"/>
		<stop  offset="0.69" style="stop-color:#9E9596"/>
		<stop  offset="0.8" style="stop-color:#958C8D"/>
		<stop  offset="0.92" style="stop-color:#8C8485"/>
		<stop  offset="1" style="stop-color:#A19999"/>
	</linearGradient>
	<path fill="url(#SVGID_27_)" d="M206.23,110.555v-67.5c0-0.75,0.336-0.844,0.781-0.844l0.719,0.094c0.75,0,1.066,0.203,1.066,0.566
		l-0.316,67.684c0,0.75-0.047,0.75-0.492,0.75h-1.008c-0.75,0-0.777-0.273-0.777-0.637L206.23,110.555z"/>
	
		<linearGradient id="SVGID_28_" gradientUnits="userSpaceOnUse" x1="47.3701" y1="365.7397" x2="47.3701" y2="362.2808" gradientTransform="matrix(0 -0.75 -0.75 0 488.0587 112.2843)">
		<stop  offset="0" style="stop-color:#968E8E"/>
		<stop  offset="0.15" style="stop-color:#CFC5C5"/>
		<stop  offset="0.25" style="stop-color:#E4DFE0"/>
		<stop  offset="0.52" style="stop-color:#B1A8A9"/>
		<stop  offset="0.69" style="stop-color:#9E9596"/>
		<stop  offset="0.8" style="stop-color:#958C8D"/>
		<stop  offset="0.92" style="stop-color:#8C8485"/>
		<stop  offset="1" style="stop-color:#A19999"/>
	</linearGradient>
	<path fill="url(#SVGID_28_)" d="M213.781,110.555v-67.5c0-0.75,0.336-0.844,0.781-0.844l0.719,0.094
		c0.75,0,1.066,0.203,1.066,0.566l-0.316,67.684c0,0.75-0.043,0.75-0.488,0.75h-1.012c-0.75,0-0.777-0.273-0.777-0.637
		L213.781,110.555z"/>
	<path fill="#C7C0C1" d="M145.414,119.145v-39.75l13.5,4.5v30.75L145.414,119.145z"/>
	<path fill="#A59C9D" d="M143.566,119.281v-40.5c0,0,0.18-0.414,0.402-0.414l1.848-0.336c0,0,0.508,0.516,0.508,0.742l0.242,40.508
		c0,0.75-0.422,0.75-0.645,0.75h-1.605c-0.75,0-0.75-0.164-0.75-0.391V119.281z"/>
	
		<linearGradient id="SVGID_29_" gradientUnits="userSpaceOnUse" x1="369.2261" y1="188.3066" x2="202.2261" y2="188.3066" gradientTransform="matrix(0.75 0 0 -0.75 -8.9708 289.0997)">
		<stop  offset="0" style="stop-color:#B4A59F"/>
		<stop  offset="0.15" style="stop-color:#EDDFDA"/>
		<stop  offset="0.25" style="stop-color:#EEE2DD"/>
		<stop  offset="0.52" style="stop-color:#CAB9B3"/>
		<stop  offset="0.69" style="stop-color:#B4A59F"/>
		<stop  offset="0.8" style="stop-color:#AA9B96"/>
		<stop  offset="0.92" style="stop-color:#A0938E"/>
	</linearGradient>
	<path fill="url(#SVGID_29_)" d="M142.699,138.121h125.25v19.5h-125.25V138.121z"/>
	
		<linearGradient id="SVGID_30_" gradientUnits="userSpaceOnUse" x1="324.2271" y1="164.3027" x2="202.2275" y2="164.3027" gradientTransform="matrix(0.75 0 0 -0.75 93.7626 169.4601)">
		<stop  offset="0" style="stop-color:#A09693"/>
		<stop  offset="0.03" style="stop-color:#E9DEDA"/>
		<stop  offset="0.08" style="stop-color:#D1C4BF"/>
		<stop  offset="0.64" style="stop-color:#CEC1BC"/>
		<stop  offset="0.95" style="stop-color:#C9BCB8"/>
		<stop  offset="1" style="stop-color:#958B88"/>
	</linearGradient>
	<path fill="url(#SVGID_30_)" d="M245.434,18.484h91.5v55.5h-91.5V18.484z"/>
</g>
</svg>
