<?xml version="1.0" encoding="utf-8"?>
<!-- Generator: Adobe Illustrator 16.0.0, SVG Export Plug-In . SVG Version: 6.00 Build 0)  -->
<!DOCTYPE svg PUBLIC "-//W3C//DTD SVG 1.1//EN" "http://www.w3.org/Graphics/SVG/1.1/DTD/svg11.dtd">
<svg preserveAspectRatio="none"   version="1.1" id="图层_1" xmlns="http://www.w3.org/2000/svg" xmlns:xlink="http://www.w3.org/1999/xlink" x="0px" y="0px"
	 width="554.257px" height="453.007px" viewBox="6.336 56.93 554.257 453.007" enable-background="new 6.336 56.93 554.257 453.007"
	 xml:space="preserve">
<g id="surface66">
	
		<linearGradient id="SVGID_1_" gradientUnits="userSpaceOnUse" x1="233.2227" y1="180.8066" x2="202.2236" y2="180.8066" gradientTransform="matrix(0.75 0 0 -0.75 120.2186 216.9523)">
		<stop  offset="0" style="stop-color:#B8B8B8"/>
		<stop  offset="0.15" style="stop-color:#F8F8F8"/>
		<stop  offset="0.25" style="stop-color:#FBFBFB"/>
		<stop  offset="0.52" style="stop-color:#D9D9D9"/>
		<stop  offset="0.69" style="stop-color:#C1C1C1"/>
		<stop  offset="0.8" style="stop-color:#B6B6B6"/>
		<stop  offset="0.92" style="stop-color:#ACACAC"/>
		<stop  offset="1" style="stop-color:#C6C6C6"/>
	</linearGradient>
	<path fill="url(#SVGID_1_)" d="M271.887,96.723h23.25v-30.75h-23.25V96.723z"/>
	<path fill="#BEB0A6" d="M12.859,368.742h541.5v35.25h-541.5V368.742z"/>
	
		<linearGradient id="SVGID_2_" gradientUnits="userSpaceOnUse" x1="929.5679" y1="54.8071" x2="202.2251" y2="54.8071" gradientTransform="matrix(0.75 0 0 -0.75 -140.9586 300.8185)">
		<stop  offset="0" style="stop-color:#B8B8B8"/>
		<stop  offset="0.15" style="stop-color:#F8F8F8"/>
		<stop  offset="0.25" style="stop-color:#FBFBFB"/>
		<stop  offset="0.52" style="stop-color:#D9D9D9"/>
		<stop  offset="0.69" style="stop-color:#C1C1C1"/>
		<stop  offset="0.8" style="stop-color:#B6B6B6"/>
		<stop  offset="0.92" style="stop-color:#ACACAC"/>
		<stop  offset="1" style="stop-color:#C6C6C6"/>
	</linearGradient>
	<path fill="url(#SVGID_2_)" d="M13.711,149.84h540c1.5,0,2.508,1.184,2.508,2.703l-0.258,214.046c0,1.5-0.973,2.875-2.492,2.875
		l-539.757,0.125c-1.5,0-3-1.355-3-2.871V152.84c0-1.5,1.184-3,2.703-3H13.711z"/>
	
		<linearGradient id="SVGID_3_" gradientUnits="userSpaceOnUse" x1="565.897" y1="201.3066" x2="565.897" y2="60.2549" gradientTransform="matrix(0.75 0 0 -0.75 -140.9586 555.1271)">
		<stop  offset="0" style="stop-color:#AEAEAD"/>
		<stop  offset="0.03" style="stop-color:#F8F8F7"/>
		<stop  offset="0.08" style="stop-color:#E3E3E2"/>
		<stop  offset="0.64" style="stop-color:#DFDFDE"/>
		<stop  offset="0.95" style="stop-color:#DADAD9"/>
		<stop  offset="1" style="stop-color:#A2A2A1"/>
	</linearGradient>
	<path fill="url(#SVGID_3_)" d="M13.711,404.148h540c1.5,0,2.508,1.277,2.508,2.91l-0.258,99.84c0,1.5-0.973,3.039-2.492,3.039
		l-539.757-0.039c-1.5,0-3-1.285-3-2.918v-99.832c0-1.5,1.184-3,2.703-3H13.711z"/>
	<path fill="#276F71" d="M480.652,431.882c0-9,6.902-15.789,15.5-15.789c8.5,0.039,15.5,6.941,15.5,15.531
		c-0.25,8.508-6.965,15.496-15.5,15.496c-8.75-0.238-15.539-6.961-15.539-15.496L480.652,431.882z"/>
	
		<linearGradient id="SVGID_4_" gradientUnits="userSpaceOnUse" x1="207.5527" y1="204.4482" x2="230.6399" y2="164.4602" gradientTransform="matrix(0.75 0 0 -0.75 331.8221 569.9474)">
		<stop  offset="0" style="stop-color:#91CFD1"/>
		<stop  offset="1" style="stop-color:#49AEB1"/>
	</linearGradient>
	<path fill="url(#SVGID_4_)" stroke="#FFFFFF" stroke-linejoin="bevel" stroke-miterlimit="10" d="M483.492,431.718
		c0-6.75,5.641-12.781,12.66-12.781c6.84,0.031,12.66,5.672,12.66,12.688c0.18,6.844-5.688,12.656-12.66,12.656
		c-6.66,0.188-12.691-5.688-12.691-12.656L483.492,431.718z"/>
	<path fill="#7D040F" d="M480.652,483.632c0-9,6.902-15.789,15.5-15.789c8.5,0.039,15.5,6.941,15.5,15.535
		c-0.25,8.504-6.965,15.492-15.5,15.492c-8.75-0.238-15.539-6.961-15.539-15.492L480.652,483.632z"/>
	
		<linearGradient id="SVGID_5_" gradientUnits="userSpaceOnUse" x1="207.5527" y1="204.4458" x2="230.6385" y2="164.46" gradientTransform="matrix(0.75 0 0 -0.75 331.8221 621.6993)">
		<stop  offset="0" style="stop-color:#9F5153"/>
		<stop  offset="1" style="stop-color:#7B030D"/>
	</linearGradient>
	<path fill="url(#SVGID_5_)" stroke="#FFFFFF" stroke-linejoin="bevel" stroke-miterlimit="10" d="M483.492,483.472
		c0-6.75,5.641-12.781,12.66-12.781c6.84,0.031,12.66,5.668,12.66,12.688c0.18,6.844-5.688,12.652-12.66,12.652
		c-6.66,0.191-12.691-5.684-12.691-12.652L483.492,483.472z"/>
	
		<linearGradient id="SVGID_6_" gradientUnits="userSpaceOnUse" x1="941.2358" y1="195.0718" x2="202.2261" y2="195.0717" gradientTransform="matrix(0.75 0 0 -0.75 -145.3341 292.1134)">
		<stop  offset="0" style="stop-color:#979898"/>
		<stop  offset="0.15" style="stop-color:#D0D1D1"/>
		<stop  offset="0.25" style="stop-color:#E5E6E6"/>
		<stop  offset="0.52" style="stop-color:#B3B4B4"/>
		<stop  offset="0.69" style="stop-color:#9FA0A0"/>
		<stop  offset="0.8" style="stop-color:#969797"/>
		<stop  offset="0.92" style="stop-color:#8E8E8E"/>
		<stop  offset="1" style="stop-color:#A3A4A4"/>
	</linearGradient>
	<path fill="url(#SVGID_6_)" d="M10.836,141.137h545.25c2.25,0,4.508,1.918,4.508,4.313c-0.008,3.188-2.004,5.059-4.402,5.059
		l-545.355-0.371c-2.25,0-4.5-1.57-4.5-3.965c0-2.785,1.906-5.059,4.305-5.059L10.836,141.137z"/>
	<path fill="#717070" d="M80.402,462.386c0-7.5,5.852-13.531,13.141-13.531c7.109,0.031,13.137,5.883,13.137,13.164
		c-0.027,7.117-5.902,13.133-13.137,13.133c-7.141-0.016-13.172-5.898-13.172-13.133L80.402,462.386z"/>
	
		<linearGradient id="SVGID_7_" gradientUnits="userSpaceOnUse" x1="206.6665" y1="203.9243" x2="226.2415" y2="170.0195" gradientTransform="matrix(0.75 0 0 -0.75 -68.859 602.2706)">
		<stop  offset="0" style="stop-color:#848484"/>
		<stop  offset="1" style="stop-color:#5E5D5D"/>
	</linearGradient>
	<path fill="url(#SVGID_7_)" stroke="#FFFFFF" stroke-linejoin="bevel" stroke-miterlimit="10" d="M82.809,461.792
		c0-6,4.781-10.527,10.734-10.527c5.766,0.027,10.73,4.805,10.73,10.754c0.285,5.773-4.82,10.727-10.73,10.727
		c-6.234,0.297-10.758-4.82-10.758-10.727L82.809,461.792z"/>
	<path fill="#717070" d="M128.918,462.386c0-7.5,5.852-13.531,13.137-13.531c7.113,0.031,13.141,5.883,13.141,13.164
		c-0.027,7.117-5.902,13.133-13.141,13.133c-7.137-0.016-13.172-5.898-13.172-13.133L128.918,462.386z"/>
	
		<linearGradient id="SVGID_8_" gradientUnits="userSpaceOnUse" x1="206.6646" y1="203.9233" x2="226.2394" y2="170.0188" gradientTransform="matrix(0.75 0 0 -0.75 -20.3448 602.2706)">
		<stop  offset="0" style="stop-color:#848484"/>
		<stop  offset="1" style="stop-color:#5E5D5D"/>
	</linearGradient>
	<path fill="url(#SVGID_8_)" stroke="#FFFFFF" stroke-linejoin="bevel" stroke-miterlimit="10" d="M131.324,461.792
		c0-6,4.781-10.527,10.73-10.527c5.77,0.027,10.73,4.805,10.73,10.754c0.289,5.773-4.82,10.727-10.73,10.727
		c-6.23,0.297-10.758-4.82-10.758-10.727L131.324,461.792z"/>
	<path fill="#717070" d="M177.43,462.386c0-7.5,5.855-13.531,13.141-13.531c7.109,0.031,13.137,5.883,13.137,13.164
		c-0.027,7.117-5.902,13.133-13.137,13.133c-7.141-0.016-13.172-5.898-13.172-13.133L177.43,462.386z"/>
	
		<linearGradient id="SVGID_9_" gradientUnits="userSpaceOnUse" x1="206.6655" y1="203.9233" x2="226.2403" y2="170.0188" gradientTransform="matrix(0.75 0 0 -0.75 28.1698 602.2706)">
		<stop  offset="0" style="stop-color:#848484"/>
		<stop  offset="1" style="stop-color:#5E5D5D"/>
	</linearGradient>
	<path fill="url(#SVGID_9_)" stroke="#FFFFFF" stroke-linejoin="bevel" stroke-miterlimit="10" d="M179.84,461.792
		c0-6,4.781-10.527,10.73-10.527c5.77,0.027,10.73,4.805,10.73,10.754c0.289,5.773-4.82,10.727-10.73,10.727
		c-6.23,0.297-10.758-4.82-10.758-10.727L179.84,461.792z"/>
	<path fill="#717070" d="M225.945,462.386c0-7.5,5.852-13.531,13.137-13.531c7.113,0.031,13.141,5.883,13.141,13.164
		c-0.027,7.117-5.902,13.133-13.141,13.133c-7.137-0.016-13.168-5.898-13.168-13.133L225.945,462.386z"/>
	
		<linearGradient id="SVGID_10_" gradientUnits="userSpaceOnUse" x1="206.6646" y1="203.9229" x2="226.2395" y2="170.018" gradientTransform="matrix(0.75 0 0 -0.75 76.684 602.2706)">
		<stop  offset="0" style="stop-color:#848484"/>
		<stop  offset="1" style="stop-color:#5E5D5D"/>
	</linearGradient>
	<path fill="url(#SVGID_10_)" stroke="#FFFFFF" stroke-linejoin="bevel" stroke-miterlimit="10" d="M228.352,461.792
		c0-6,4.781-10.527,10.73-10.527c5.77,0.027,10.734,4.805,10.734,10.754c0.285,5.773-4.824,10.727-10.734,10.727
		c-6.23,0.297-10.758-4.82-10.758-10.727L228.352,461.792z"/>
	<path fill="#717070" d="M274.461,462.386c0-7.5,5.852-13.531,13.136-13.531c7.113,0.031,13.141,5.883,13.141,13.164
		c-0.027,7.117-5.902,13.133-13.141,13.133c-7.136-0.016-13.171-5.898-13.171-13.133L274.461,462.386z"/>
	
		<linearGradient id="SVGID_11_" gradientUnits="userSpaceOnUse" x1="206.6636" y1="203.9224" x2="226.2386" y2="170.0175" gradientTransform="matrix(0.75 0 0 -0.75 125.1981 602.2706)">
		<stop  offset="0" style="stop-color:#848484"/>
		<stop  offset="1" style="stop-color:#5E5D5D"/>
	</linearGradient>
	<path fill="url(#SVGID_11_)" stroke="#FFFFFF" stroke-linejoin="bevel" stroke-miterlimit="10" d="M276.867,461.792
		c0-6,4.781-10.527,10.73-10.527c5.77,0.027,10.73,4.805,10.73,10.754c0.289,5.773-4.82,10.727-10.73,10.727
		c-6.23,0.297-10.757-4.82-10.757-10.727L276.867,461.792z"/>
	<path fill="#717070" d="M322.972,462.386c0-7.5,5.855-13.531,13.141-13.531c7.109,0.031,13.137,5.883,13.137,13.164
		c-0.027,7.117-5.902,13.133-13.137,13.133c-7.141-0.016-13.172-5.898-13.172-13.133L322.972,462.386z"/>
	
		<linearGradient id="SVGID_12_" gradientUnits="userSpaceOnUse" x1="206.6665" y1="203.9238" x2="226.2413" y2="170.0193" gradientTransform="matrix(0.75 0 0 -0.75 173.7118 602.2706)">
		<stop  offset="0" style="stop-color:#848484"/>
		<stop  offset="1" style="stop-color:#5E5D5D"/>
	</linearGradient>
	<path fill="url(#SVGID_12_)" stroke="#FFFFFF" stroke-linejoin="bevel" stroke-miterlimit="10" d="M325.382,461.792
		c0-6,4.777-10.527,10.73-10.527c5.77,0.027,10.73,4.805,10.73,10.754c0.289,5.773-4.82,10.727-10.73,10.727
		c-6.23,0.297-10.758-4.82-10.758-10.727L325.382,461.792z"/>
	<path fill="#717070" d="M371.488,462.386c0-7.5,5.852-13.531,13.137-13.531c7.113,0.031,13.141,5.883,13.141,13.164
		c-0.027,7.117-5.902,13.133-13.141,13.133c-7.137-0.016-13.172-5.898-13.172-13.133L371.488,462.386z"/>
	
		<linearGradient id="SVGID_13_" gradientUnits="userSpaceOnUse" x1="206.6626" y1="203.9224" x2="226.2376" y2="170.0175" gradientTransform="matrix(0.75 0 0 -0.75 222.2264 602.2706)">
		<stop  offset="0" style="stop-color:#848484"/>
		<stop  offset="1" style="stop-color:#5E5D5D"/>
	</linearGradient>
	<path fill="url(#SVGID_13_)" stroke="#FFFFFF" stroke-linejoin="bevel" stroke-miterlimit="10" d="M373.894,461.792
		c0-6,4.781-10.527,10.73-10.527c5.77,0.027,10.73,4.805,10.73,10.754c0.289,5.773-4.82,10.727-10.73,10.727
		c-6.23,0.297-10.758-4.82-10.758-10.727L373.894,461.792z"/>
	
		<linearGradient id="SVGID_14_" gradientUnits="userSpaceOnUse" x1="412.2231" y1="171.8027" x2="202.2241" y2="171.8027" gradientTransform="matrix(0.75 0 0 -0.75 52.9291 248.0236)">
		<stop  offset="0" style="stop-color:#B8B8B8"/>
		<stop  offset="0.15" style="stop-color:#F8F8F8"/>
		<stop  offset="0.25" style="stop-color:#FBFBFB"/>
		<stop  offset="0.52" style="stop-color:#D9D9D9"/>
		<stop  offset="0.69" style="stop-color:#C1C1C1"/>
		<stop  offset="0.8" style="stop-color:#B6B6B6"/>
		<stop  offset="0.92" style="stop-color:#ACACAC"/>
		<stop  offset="1" style="stop-color:#C6C6C6"/>
	</linearGradient>
	<path fill="url(#SVGID_14_)" d="M204.598,141.297h157.5v-44.25h-157.5V141.297z"/>
	
		<linearGradient id="SVGID_15_" gradientUnits="userSpaceOnUse" x1="215.7256" y1="201.3018" x2="215.7256" y2="173.3018" gradientTransform="matrix(0.75 0 0 -0.75 210.6503 261.0304)">
		<stop  offset="0" style="stop-color:#B8B8B8"/>
		<stop  offset="0.15" style="stop-color:#F8F8F8"/>
		<stop  offset="0.25" style="stop-color:#FBFBFB"/>
		<stop  offset="0.52" style="stop-color:#D9D9D9"/>
		<stop  offset="0.69" style="stop-color:#C1C1C1"/>
		<stop  offset="0.8" style="stop-color:#B6B6B6"/>
		<stop  offset="0.92" style="stop-color:#ACACAC"/>
		<stop  offset="1" style="stop-color:#C6C6C6"/>
	</linearGradient>
	<path fill="url(#SVGID_15_)" d="M362.32,110.055h20.25v21h-20.25V110.055z"/>
	
		<linearGradient id="SVGID_16_" gradientUnits="userSpaceOnUse" x1="211.8418" y1="201.3018" x2="211.8418" y2="141.3018" gradientTransform="matrix(0.75 0 0 -0.75 230.9325 247.3009)">
		<stop  offset="0" style="stop-color:#979898"/>
		<stop  offset="0.15" style="stop-color:#D0D1D1"/>
		<stop  offset="0.25" style="stop-color:#E5E6E6"/>
		<stop  offset="0.52" style="stop-color:#B3B4B4"/>
		<stop  offset="0.69" style="stop-color:#9FA0A0"/>
		<stop  offset="0.8" style="stop-color:#969797"/>
		<stop  offset="0.92" style="stop-color:#8E8E8E"/>
		<stop  offset="1" style="stop-color:#A3A4A4"/>
	</linearGradient>
	<path fill="url(#SVGID_16_)" d="M387.101,96.324h5.25c3,0,4.699,1.941,4.699,4.336l-0.199,36.164c0,2.25-1.746,4.301-4.145,4.301
		l-5.605,0.199c-2.25,0-4.523-2.141-4.523-4.535l0.023-35.965c0-2.25,1.922-4.5,4.32-4.5H387.101z"/>
	
		<linearGradient id="SVGID_17_" gradientUnits="userSpaceOnUse" x1="308.3149" y1="189.2612" x2="202.2227" y2="189.2612" gradientTransform="matrix(0.75 0 0 -0.75 92.0121 207.9083)">
		<stop  offset="0" style="stop-color:#979898"/>
		<stop  offset="0.15" style="stop-color:#D0D1D1"/>
		<stop  offset="0.25" style="stop-color:#E5E6E6"/>
		<stop  offset="0.52" style="stop-color:#B3B4B4"/>
		<stop  offset="0.69" style="stop-color:#9FA0A0"/>
		<stop  offset="0.8" style="stop-color:#969797"/>
		<stop  offset="0.92" style="stop-color:#8E8E8E"/>
		<stop  offset="1" style="stop-color:#A3A4A4"/>
	</linearGradient>
	<path fill="url(#SVGID_17_)" d="M248.18,56.93h70.5c2.25,0,4.57,1.941,4.57,4.336l-0.07,9.164c0,2.25-1.875,4.566-4.273,4.566
		L248.18,74.93c-2.25,0-4.5-1.875-4.5-4.27v-9.23c0-2.25,1.922-4.5,4.32-4.5H248.18z"/>
</g>
</svg>
