<?xml version="1.0" encoding="utf-8"?>
<!-- Generator: Adobe Illustrator 16.0.0, SVG Export Plug-In . SVG Version: 6.00 Build 0)  -->
<!DOCTYPE svg PUBLIC "-//W3C//DTD SVG 1.1//EN" "http://www.w3.org/Graphics/SVG/1.1/DTD/svg11.dtd">
<svg preserveAspectRatio="none"   version="1.1" id="图层_1" xmlns="http://www.w3.org/2000/svg" xmlns:xlink="http://www.w3.org/1999/xlink" x="0px" y="0px"
	 width="254.66px" height="550.457px" viewBox="156.133 8.383 254.66 550.457"
	 enable-background="new 156.133 8.383 254.66 550.457" xml:space="preserve">
<g id="surface251">
	
		<linearGradient id="SVGID_1_" gradientUnits="userSpaceOnUse" x1="349.0942" y1="182.7441" x2="202.2236" y2="182.7441" gradientTransform="matrix(0.75 0 0 -0.75 12.1635 159.3595)">
		<stop  offset="0" style="stop-color:#A4A166"/>
		<stop  offset="0.15" style="stop-color:#DFDC96"/>
		<stop  offset="0.25" style="stop-color:#EDECCB"/>
		<stop  offset="0.52" style="stop-color:#C1BF7A"/>
		<stop  offset="0.69" style="stop-color:#ACAA6C"/>
		<stop  offset="0.8" style="stop-color:#A2A065"/>
		<stop  offset="0.92" style="stop-color:#99975F"/>
		<stop  offset="1" style="stop-color:#B0AE6E"/>
	</linearGradient>
	<path fill="url(#SVGID_1_)" d="M163.832,27.883c0-10.5,24.602-19.5,55.074-19.5c30.426,0,55.078,8.758,55.078,19.59
		c0.098,11.16-110.152,10.832-110.152,0V27.883z"/>
	
		<linearGradient id="SVGID_2_" gradientUnits="userSpaceOnUse" x1="343.2261" y1="190.8047" x2="202.2261" y2="190.8047" gradientTransform="matrix(0.75 0 0 -0.75 14.4315 181.8185)">
		<stop  offset="0" style="stop-color:#A4A166"/>
		<stop  offset="0.15" style="stop-color:#DFDC96"/>
		<stop  offset="0.25" style="stop-color:#EDECCB"/>
		<stop  offset="0.52" style="stop-color:#C1BF7A"/>
		<stop  offset="0.69" style="stop-color:#ACAA6C"/>
		<stop  offset="0.8" style="stop-color:#A2A065"/>
		<stop  offset="0.92" style="stop-color:#99975F"/>
		<stop  offset="1" style="stop-color:#B0AE6E"/>
	</linearGradient>
	<path fill="url(#SVGID_2_)" d="M166.102,30.84h105.75v15.75h-105.75V30.84z"/>
	
		<linearGradient id="SVGID_3_" gradientUnits="userSpaceOnUse" x1="349.2251" y1="-142.1948" x2="202.2251" y2="-142.1948" gradientTransform="matrix(0.75 0 0 -0.75 12.2841 194.5685)">
		<stop  offset="0" style="stop-color:#ADAB86"/>
		<stop  offset="0.15" style="stop-color:#EBE9BB"/>
		<stop  offset="0.25" style="stop-color:#F4F2DB"/>
		<stop  offset="0.52" style="stop-color:#CDCA9F"/>
		<stop  offset="0.69" style="stop-color:#B6B48D"/>
		<stop  offset="0.8" style="stop-color:#ACAA85"/>
		<stop  offset="0.92" style="stop-color:#A2A07D"/>
		<stop  offset="1" style="stop-color:#BAB890"/>
	</linearGradient>
	<path fill="url(#SVGID_3_)" d="M274.203,43.59v515.25h-110.25V43.59H274.203z"/>
	
		<linearGradient id="SVGID_4_" gradientUnits="userSpaceOnUse" x1="369.6187" y1="194.3047" x2="202.2222" y2="194.3047" gradientTransform="matrix(0.75 0 0 -0.75 4.4652 699.2618)">
		<stop  offset="0" style="stop-color:#A4A166"/>
		<stop  offset="0.15" style="stop-color:#DFDC96"/>
		<stop  offset="0.25" style="stop-color:#EDECCB"/>
		<stop  offset="0.52" style="stop-color:#C1BF7A"/>
		<stop  offset="0.69" style="stop-color:#ACAA6C"/>
		<stop  offset="0.8" style="stop-color:#A2A065"/>
		<stop  offset="0.92" style="stop-color:#99975F"/>
		<stop  offset="1" style="stop-color:#B0AE6E"/>
	</linearGradient>
	<path fill="url(#SVGID_4_)" d="M161.383,548.285h115.5c2.25,0,4.797,2.27,4.797,5.074c-0.297,3.176-2.293,5.07-5.082,5.07
		l-115.215,0.355c-3,0-5.25-2.625-5.25-5.426c0-2.824,2.262-5.074,5.055-5.074H161.383z"/>
	
		<linearGradient id="SVGID_5_" gradientUnits="userSpaceOnUse" x1="353.4419" y1="196.8647" x2="202.2231" y2="196.8647" gradientTransform="matrix(0.75 0 0 -0.75 10.5311 176.6974)">
		<stop  offset="0" style="stop-color:#ADAB86"/>
		<stop  offset="0.15" style="stop-color:#EBE9BB"/>
		<stop  offset="0.25" style="stop-color:#F4F2DB"/>
		<stop  offset="0.52" style="stop-color:#CDCA9F"/>
		<stop  offset="0.69" style="stop-color:#B6B48D"/>
		<stop  offset="0.8" style="stop-color:#ACAA85"/>
		<stop  offset="0.92" style="stop-color:#A2A07D"/>
		<stop  offset="1" style="stop-color:#BAB890"/>
	</linearGradient>
	<path fill="url(#SVGID_5_)" d="M164.449,25.719h108.75c1.5,0,2.414,1.438,2.414,3.328c-0.164,1.922-1.215,3.414-2.625,3.414
		l-108.539,0.008c-0.75,0-2.25-1.535-2.25-3.422c0-1.828,1.133-3.418,2.543-3.418L164.449,25.719z"/>
	
		<linearGradient id="SVGID_6_" gradientUnits="userSpaceOnUse" x1="269.9482" y1="183.8442" x2="195.8701" y2="156.882" gradientTransform="matrix(0.75 0 0 -0.75 44.2255 618.8712)">
		<stop  offset="0" style="stop-color:#A4A166"/>
		<stop  offset="0.15" style="stop-color:#DFDC96"/>
		<stop  offset="0.25" style="stop-color:#EDECCB"/>
		<stop  offset="0.52" style="stop-color:#C1BF7A"/>
		<stop  offset="0.69" style="stop-color:#ACAA6C"/>
		<stop  offset="0.8" style="stop-color:#A2A065"/>
		<stop  offset="0.92" style="stop-color:#99975F"/>
		<stop  offset="1" style="stop-color:#B0AE6E"/>
	</linearGradient>
	<path fill="url(#SVGID_6_)" d="M195.895,491.144c0-12.75,10.305-23.25,23.012-23.25c12.988,0,23.016,10.387,23.016,23.203
		c-0.277,12.797-10.305,23.207-23.016,23.207c-12.512,0.09-23.012-10.391-23.012-23.207V491.144z"/>
	
		<linearGradient id="SVGID_7_" gradientUnits="userSpaceOnUse" x1="279.8442" y1="181.3125" x2="194.9469" y2="150.4124" gradientTransform="matrix(0.75 0 0 -0.75 40.8602 615.4933)">
		<stop  offset="0" style="stop-color:#918D2B"/>
		<stop  offset="0.15" style="stop-color:#C8C45B"/>
		<stop  offset="0.25" style="stop-color:#E1DFB8"/>
		<stop  offset="0.52" style="stop-color:#ABA735"/>
		<stop  offset="0.69" style="stop-color:#98942E"/>
		<stop  offset="0.8" style="stop-color:#8F8C2B"/>
		<stop  offset="0.92" style="stop-color:#878428"/>
		<stop  offset="1" style="stop-color:#9C982F"/>
	</linearGradient>
	<path fill="url(#SVGID_7_)" d="M192.531,490.765c0-14.25,11.809-26.25,26.375-26.25c14.875,0,26.379,11.902,26.379,26.582
		c-0.254,14.668-11.809,26.586-26.379,26.586c-14.375,0.082-26.375-11.902-26.375-26.586V490.765z"/>
	
		<linearGradient id="SVGID_8_" gradientUnits="userSpaceOnUse" x1="269.9482" y1="183.8442" x2="195.8701" y2="156.882" gradientTransform="matrix(0.75 0 0 -0.75 44.2255 618.8712)">
		<stop  offset="0" style="stop-color:#A4A166"/>
		<stop  offset="0.15" style="stop-color:#DFDC96"/>
		<stop  offset="0.25" style="stop-color:#EDECCB"/>
		<stop  offset="0.52" style="stop-color:#C1BF7A"/>
		<stop  offset="0.69" style="stop-color:#ACAA6C"/>
		<stop  offset="0.8" style="stop-color:#A2A065"/>
		<stop  offset="0.92" style="stop-color:#99975F"/>
		<stop  offset="1" style="stop-color:#B0AE6E"/>
	</linearGradient>
	<path fill="url(#SVGID_8_)" d="M195.895,491.144c0-12.75,10.305-23.25,23.012-23.25c12.988,0,23.016,10.387,23.016,23.203
		c-0.277,12.797-10.305,23.207-23.016,23.207c-12.512,0.09-23.012-10.391-23.012-23.207V491.144z"/>
	
		<linearGradient id="SVGID_9_" gradientUnits="userSpaceOnUse" x1="349.0923" y1="182.7441" x2="202.2222" y2="182.7441" gradientTransform="matrix(0.75 0 0 -0.75 141.2772 159.3595)">
		<stop  offset="0" style="stop-color:#A4A166"/>
		<stop  offset="0.15" style="stop-color:#DFDC96"/>
		<stop  offset="0.25" style="stop-color:#EDECCB"/>
		<stop  offset="0.52" style="stop-color:#C1BF7A"/>
		<stop  offset="0.69" style="stop-color:#ACAA6C"/>
		<stop  offset="0.8" style="stop-color:#A2A065"/>
		<stop  offset="0.92" style="stop-color:#99975F"/>
		<stop  offset="1" style="stop-color:#B0AE6E"/>
	</linearGradient>
	<path fill="url(#SVGID_9_)" d="M292.945,27.883c0-10.5,24.602-19.5,55.074-19.5c30.426,0,55.078,8.758,55.078,19.59
		c0.098,11.16-110.152,10.832-110.152,0V27.883z"/>
	
		<linearGradient id="SVGID_10_" gradientUnits="userSpaceOnUse" x1="343.2251" y1="190.8047" x2="202.2246" y2="190.8047" gradientTransform="matrix(0.75 0 0 -0.75 143.5453 181.8175)">
		<stop  offset="0" style="stop-color:#A4A166"/>
		<stop  offset="0.15" style="stop-color:#DFDC96"/>
		<stop  offset="0.25" style="stop-color:#EDECCB"/>
		<stop  offset="0.52" style="stop-color:#C1BF7A"/>
		<stop  offset="0.69" style="stop-color:#ACAA6C"/>
		<stop  offset="0.8" style="stop-color:#A2A065"/>
		<stop  offset="0.92" style="stop-color:#99975F"/>
		<stop  offset="1" style="stop-color:#B0AE6E"/>
	</linearGradient>
	<path fill="url(#SVGID_10_)" d="M295.214,30.84h105.75v15.75h-105.75V30.84z"/>
	
		<linearGradient id="SVGID_11_" gradientUnits="userSpaceOnUse" x1="349.2241" y1="-142.1948" x2="202.2241" y2="-142.1948" gradientTransform="matrix(0.75 0 0 -0.75 141.3973 194.5685)">
		<stop  offset="0" style="stop-color:#ADAB86"/>
		<stop  offset="0.15" style="stop-color:#EBE9BB"/>
		<stop  offset="0.25" style="stop-color:#F4F2DB"/>
		<stop  offset="0.52" style="stop-color:#CDCA9F"/>
		<stop  offset="0.69" style="stop-color:#B6B48D"/>
		<stop  offset="0.8" style="stop-color:#ACAA85"/>
		<stop  offset="0.92" style="stop-color:#A2A07D"/>
		<stop  offset="1" style="stop-color:#BAB890"/>
	</linearGradient>
	<path fill="url(#SVGID_11_)" d="M403.316,43.59v515.25h-110.25V43.59H403.316z"/>
	
		<linearGradient id="SVGID_12_" gradientUnits="userSpaceOnUse" x1="369.6177" y1="194.3047" x2="202.2217" y2="194.3047" gradientTransform="matrix(0.75 0 0 -0.75 133.5785 699.2618)">
		<stop  offset="0" style="stop-color:#A4A166"/>
		<stop  offset="0.15" style="stop-color:#DFDC96"/>
		<stop  offset="0.25" style="stop-color:#EDECCB"/>
		<stop  offset="0.52" style="stop-color:#C1BF7A"/>
		<stop  offset="0.69" style="stop-color:#ACAA6C"/>
		<stop  offset="0.8" style="stop-color:#A2A065"/>
		<stop  offset="0.92" style="stop-color:#99975F"/>
		<stop  offset="1" style="stop-color:#B0AE6E"/>
	</linearGradient>
	<path fill="url(#SVGID_12_)" d="M290.496,548.285h115.5c2.25,0,4.797,2.27,4.797,5.074c-0.297,3.176-2.293,5.07-5.082,5.07
		l-115.215,0.355c-3,0-5.25-2.625-5.25-5.426c0-2.824,2.262-5.074,5.055-5.074H290.496z"/>
	
		<linearGradient id="SVGID_13_" gradientUnits="userSpaceOnUse" x1="353.4458" y1="196.8667" x2="202.2227" y2="196.8667" gradientTransform="matrix(0.75 0 0 -0.75 139.6444 176.6984)">
		<stop  offset="0" style="stop-color:#ADAB86"/>
		<stop  offset="0.15" style="stop-color:#EBE9BB"/>
		<stop  offset="0.25" style="stop-color:#F4F2DB"/>
		<stop  offset="0.52" style="stop-color:#CDCA9F"/>
		<stop  offset="0.69" style="stop-color:#B6B48D"/>
		<stop  offset="0.8" style="stop-color:#ACAA85"/>
		<stop  offset="0.92" style="stop-color:#A2A07D"/>
		<stop  offset="1" style="stop-color:#BAB890"/>
	</linearGradient>
	<path fill="url(#SVGID_13_)" d="M293.562,25.719h108.75c1.5,0,2.418,1.438,2.418,3.328c-0.168,1.922-1.219,3.418-2.629,3.418
		l-108.539,0.004c-0.75,0-2.25-1.535-2.25-3.422c0-1.828,1.133-3.418,2.543-3.418L293.562,25.719z"/>
	
		<radialGradient id="SVGID_14_" cx="222.5942" cy="180.7686" r="28.9225" gradientTransform="matrix(0.75 0 0 -0.75 181.078 227.4083)" gradientUnits="userSpaceOnUse">
		<stop  offset="0" style="stop-color:#B9B884"/>
		<stop  offset="0.54" style="stop-color:#C6C58D"/>
		<stop  offset="0.74" style="stop-color:#DEDEBC"/>
		<stop  offset="0.91" style="stop-color:#B9B884"/>
		<stop  offset="1" style="stop-color:#C6C58D"/>
	</radialGradient>
	<path fill="url(#SVGID_14_)" stroke="#DCDAAB" stroke-width="0.25" stroke-linejoin="bevel" stroke-miterlimit="10" d="
		M332.746,92.18c0-9,6.84-15.75,15.273-15.75c8.727,0,15.277,6.895,15.277,15.402c0.199,8.598-6.84,15.402-15.277,15.402
		c-8.523-0.055-15.273-6.898-15.273-15.402V92.18z"/>
	<path fill="#C4C281" stroke="#BDBB78" stroke-linejoin="bevel" stroke-miterlimit="10" d="M336.3,92.02c0-6.75,5.242-12,11.719-12
		c6.281,0,11.723,5.289,11.723,11.813c-0.191,6.188-5.25,11.813-11.723,11.813c-6.469,0.375-11.719-5.289-11.719-11.813V92.02z"/>
	<path fill="#DDDAB8" stroke="#9C994D" stroke-linejoin="bevel" stroke-miterlimit="10" d="M336.691,91.664
		c0-6,5.07-11.25,11.328-11.25c5.922,0,11.332,5.109,11.332,11.418c-0.16,6.582-5.074,11.418-11.332,11.418
		c-6.078-0.336-11.328-5.113-11.328-11.418V91.664z"/>
	
		<linearGradient id="SVGID_15_" gradientUnits="userSpaceOnUse" x1="224.1982" y1="202.1855" x2="203.2597" y2="177.2319" gradientTransform="matrix(0.75 0 0 -0.75 187.7177 234.1085)">
		<stop  offset="0" style="stop-color:#8E8C59"/>
		<stop  offset="0.15" style="stop-color:#C5C388"/>
		<stop  offset="0.52" style="stop-color:#A8A66B"/>
		<stop  offset="0.69" style="stop-color:#95935E"/>
		<stop  offset="0.8" style="stop-color:#8C8B59"/>
		<stop  offset="0.92" style="stop-color:#848353"/>
		<stop  offset="1" style="stop-color:#999761"/>
	</linearGradient>
	<path fill="url(#SVGID_15_)" d="M339.386,92.129c0-5.25,3.863-9,8.633-9c4.867,0,8.637,3.898,8.637,8.703
		c-0.02,4.797-3.867,8.699-8.637,8.699c-4.883-0.152-8.633-3.895-8.633-8.699V92.129z"/>
	
		<linearGradient id="SVGID_16_" gradientUnits="userSpaceOnUse" x1="269.9478" y1="183.8423" x2="195.8696" y2="156.8801" gradientTransform="matrix(0.75 0 0 -0.75 173.3387 618.8702)">
		<stop  offset="0" style="stop-color:#A4A166"/>
		<stop  offset="0.15" style="stop-color:#DFDC96"/>
		<stop  offset="0.25" style="stop-color:#EDECCB"/>
		<stop  offset="0.52" style="stop-color:#C1BF7A"/>
		<stop  offset="0.69" style="stop-color:#ACAA6C"/>
		<stop  offset="0.8" style="stop-color:#A2A065"/>
		<stop  offset="0.92" style="stop-color:#99975F"/>
		<stop  offset="1" style="stop-color:#B0AE6E"/>
	</linearGradient>
	<path fill="url(#SVGID_16_)" d="M325.007,491.144c0-12.75,10.305-23.25,23.012-23.25c12.988,0,23.016,10.387,23.016,23.203
		c-0.277,12.797-10.305,23.207-23.016,23.207c-12.512,0.09-23.012-10.391-23.012-23.207V491.144z"/>
	
		<linearGradient id="SVGID_17_" gradientUnits="userSpaceOnUse" x1="279.8433" y1="181.313" x2="194.9459" y2="150.4129" gradientTransform="matrix(0.75 0 0 -0.75 169.9735 615.4923)">
		<stop  offset="0" style="stop-color:#918D2B"/>
		<stop  offset="0.15" style="stop-color:#C8C45B"/>
		<stop  offset="0.25" style="stop-color:#E1DFB8"/>
		<stop  offset="0.52" style="stop-color:#ABA735"/>
		<stop  offset="0.69" style="stop-color:#98942E"/>
		<stop  offset="0.8" style="stop-color:#8F8C2B"/>
		<stop  offset="0.92" style="stop-color:#878428"/>
		<stop  offset="1" style="stop-color:#9C982F"/>
	</linearGradient>
	<path fill="url(#SVGID_17_)" d="M321.644,490.765c0-14.25,11.809-26.25,26.375-26.25c14.875,0,26.379,11.902,26.379,26.582
		c-0.254,14.668-11.809,26.582-26.379,26.582c-14.375,0.086-26.375-11.898-26.375-26.582V490.765z"/>
	
		<linearGradient id="SVGID_18_" gradientUnits="userSpaceOnUse" x1="269.9478" y1="183.8423" x2="195.8696" y2="156.8801" gradientTransform="matrix(0.75 0 0 -0.75 173.3387 618.8702)">
		<stop  offset="0" style="stop-color:#A4A166"/>
		<stop  offset="0.15" style="stop-color:#DFDC96"/>
		<stop  offset="0.25" style="stop-color:#EDECCB"/>
		<stop  offset="0.52" style="stop-color:#C1BF7A"/>
		<stop  offset="0.69" style="stop-color:#ACAA6C"/>
		<stop  offset="0.8" style="stop-color:#A2A065"/>
		<stop  offset="0.92" style="stop-color:#99975F"/>
		<stop  offset="1" style="stop-color:#B0AE6E"/>
	</linearGradient>
	<path fill="url(#SVGID_18_)" d="M325.007,491.144c0-12.75,10.305-23.25,23.012-23.25c12.988,0,23.016,10.387,23.016,23.203
		c-0.277,12.797-10.305,23.207-23.016,23.207c-12.512,0.09-23.012-10.391-23.012-23.207V491.144z"/>
	
		<radialGradient id="SVGID_19_" cx="222.5942" cy="180.7686" r="28.9232" gradientTransform="matrix(0.75 0 0 -0.75 51.9647 227.4083)" gradientUnits="userSpaceOnUse">
		<stop  offset="0" style="stop-color:#B9B884"/>
		<stop  offset="0.54" style="stop-color:#C6C58D"/>
		<stop  offset="0.74" style="stop-color:#DEDEBC"/>
		<stop  offset="0.91" style="stop-color:#B9B884"/>
		<stop  offset="1" style="stop-color:#C6C58D"/>
	</radialGradient>
	<path fill="url(#SVGID_19_)" stroke="#DCDAAB" stroke-width="0.25" stroke-linejoin="bevel" stroke-miterlimit="10" d="
		M203.633,92.18c0-9,6.84-15.75,15.273-15.75c8.727,0,15.277,6.895,15.277,15.402c0.199,8.598-6.84,15.402-15.277,15.402
		c-8.523-0.055-15.273-6.898-15.273-15.402V92.18z"/>
	<path fill="#C4C281" stroke="#BDBB78" stroke-linejoin="bevel" stroke-miterlimit="10" d="M207.188,92.02
		c0-6.75,5.242-12,11.719-12c6.281,0,11.723,5.289,11.723,11.813c-0.191,6.188-5.25,11.813-11.723,11.813
		c-6.469,0.375-11.719-5.289-11.719-11.813V92.02z"/>
	<path fill="#DDDAB8" stroke="#9C994D" stroke-linejoin="bevel" stroke-miterlimit="10" d="M207.578,91.664
		c0-6,5.07-11.25,11.328-11.25c5.922,0,11.332,5.109,11.332,11.418c-0.16,6.582-5.074,11.418-11.332,11.418
		c-6.078-0.336-11.328-5.113-11.328-11.418V91.664z"/>
	
		<linearGradient id="SVGID_20_" gradientUnits="userSpaceOnUse" x1="224.1978" y1="202.187" x2="203.2592" y2="177.2334" gradientTransform="matrix(0.75 0 0 -0.75 58.6049 234.1085)">
		<stop  offset="0" style="stop-color:#8E8C59"/>
		<stop  offset="0.15" style="stop-color:#C5C388"/>
		<stop  offset="0.52" style="stop-color:#A8A66B"/>
		<stop  offset="0.69" style="stop-color:#95935E"/>
		<stop  offset="0.8" style="stop-color:#8C8B59"/>
		<stop  offset="0.92" style="stop-color:#848353"/>
		<stop  offset="1" style="stop-color:#999761"/>
	</linearGradient>
	<path fill="url(#SVGID_20_)" d="M210.273,92.129c0-5.25,3.863-9,8.633-9c4.867,0,8.637,3.898,8.637,8.703
		c-0.02,4.797-3.867,8.699-8.637,8.699c-4.883-0.152-8.633-3.895-8.633-8.699V92.129z"/>
	
		<linearGradient id="SVGID_21_" gradientUnits="userSpaceOnUse" x1="296.7612" y1="201.3008" x2="296.7612" y2="183.8896" gradientTransform="matrix(0.75 0 0 -0.75 60.8934 236.2648)">
		<stop  offset="0" style="stop-color:#A4A166"/>
		<stop  offset="0.15" style="stop-color:#DFDC96"/>
		<stop  offset="0.25" style="stop-color:#EDECCB"/>
		<stop  offset="0.52" style="stop-color:#C1BF7A"/>
		<stop  offset="0.69" style="stop-color:#ACAA6C"/>
		<stop  offset="0.8" style="stop-color:#A2A065"/>
		<stop  offset="0.92" style="stop-color:#99975F"/>
		<stop  offset="1" style="stop-color:#B0AE6E"/>
	</linearGradient>
	<path fill="url(#SVGID_21_)" d="M217.813,85.289h131.25c3,0,5.305,2.418,5.305,5.402l-0.055,2.098c0,3-2.391,5.559-5.359,5.559
		l-131.14-0.309c-3,0-5.25-2.109-5.25-5.094v-2.406c0-3,2.305-5.25,5.273-5.25H217.813z"/>
</g>
</svg>
