<?xml version="1.0" encoding="utf-8"?>
<!-- Generator: Adobe Illustrator 16.0.0, SVG Export Plug-In . SVG Version: 6.00 Build 0)  -->
<!DOCTYPE svg PUBLIC "-//W3C//DTD SVG 1.1//EN" "http://www.w3.org/Graphics/SVG/1.1/DTD/svg11.dtd">
<svg preserveAspectRatio="none"   version="1.1" id="图层_1" xmlns="http://www.w3.org/2000/svg" xmlns:xlink="http://www.w3.org/1999/xlink" x="0px" y="0px"
	 width="419.25px" height="559.144px" viewBox="73.809 3.922 419.25 559.144" enable-background="new 73.809 3.922 419.25 559.144"
	 xml:space="preserve">
<g id="surface86">
	
		<linearGradient id="SVGID_1_" gradientUnits="userSpaceOnUse" x1="761.2241" y1="-170.1968" x2="202.2241" y2="-170.1968" gradientTransform="matrix(0.75 0 0 -0.75 -77.8605 156.7931)">
		<stop  offset="0" style="stop-color:#AEAEAD"/>
		<stop  offset="0.03" style="stop-color:#F8F8F7"/>
		<stop  offset="0.08" style="stop-color:#E3E3E2"/>
		<stop  offset="0.64" style="stop-color:#DFDFDE"/>
		<stop  offset="0.95" style="stop-color:#DADAD9"/>
		<stop  offset="1" style="stop-color:#A2A2A1"/>
	</linearGradient>
	<path fill="url(#SVGID_1_)" d="M73.809,5.816h419.25v557.25H73.809V5.816z"/>
	
		<linearGradient id="SVGID_2_" gradientUnits="userSpaceOnUse" x1="365.2241" y1="118.3037" x2="202.2241" y2="118.3037" gradientTransform="matrix(0.75 0 0 -0.75 -39.0631 250.6681)">
		<stop  offset="0" style="stop-color:#3D3B3B"/>
		<stop  offset="0.03" style="stop-color:#908F8F"/>
		<stop  offset="0.08" style="stop-color:#514F4F"/>
		<stop  offset="0.64" style="stop-color:#504E4E"/>
		<stop  offset="0.95" style="stop-color:#4E4C4C"/>
		<stop  offset="1" style="stop-color:#383636"/>
	</linearGradient>
	<path fill="url(#SVGID_2_)" d="M112.605,99.691h122.25v124.5h-122.25V99.691z"/>
	
		<linearGradient id="SVGID_3_" gradientUnits="userSpaceOnUse" x1="365.2231" y1="118.3057" x2="202.2236" y2="118.3056" gradientTransform="matrix(0.75 0 0 -0.75 -36.0782 435.3888)">
		<stop  offset="0" style="stop-color:#3D3B3B"/>
		<stop  offset="0.03" style="stop-color:#908F8F"/>
		<stop  offset="0.08" style="stop-color:#514F4F"/>
		<stop  offset="0.64" style="stop-color:#504E4E"/>
		<stop  offset="0.95" style="stop-color:#4E4C4C"/>
		<stop  offset="1" style="stop-color:#383636"/>
	</linearGradient>
	<path fill="url(#SVGID_3_)" d="M115.59,284.41h122.25v124.5H115.59V284.41z"/>
	
		<linearGradient id="SVGID_4_" gradientUnits="userSpaceOnUse" x1="269.9438" y1="191.1812" x2="196.3688" y2="148.7026" gradientTransform="matrix(0.75 0 0 -0.75 167.9891 478.5743)">
		<stop  offset="0" style="stop-color:#BCBCBC"/>
		<stop  offset="0.52" style="stop-color:#4D4B4B"/>
		<stop  offset="0.69" style="stop-color:#434242"/>
		<stop  offset="0.8" style="stop-color:#3F3E3E"/>
		<stop  offset="0.92" style="stop-color:#3B3A3A"/>
		<stop  offset="1" style="stop-color:#454444"/>
	</linearGradient>
	<path fill="url(#SVGID_4_)" d="M319.656,350.847c0-12.75,10.363-23.305,23.191-23.305c12.809,0.055,23.188,10.539,23.188,23.582
		c0.121,13.223-10.391,23.527-23.188,23.527c-12.691,0.195-23.191-10.566-23.191-23.527V350.847z"/>
	
		<linearGradient id="SVGID_5_" gradientUnits="userSpaceOnUse" x1="275.2256" y1="156.3086" x2="202.2256" y2="156.3086" gradientTransform="matrix(0.75 0 0 -0.75 -8.2238 617.0812)">
		<stop  offset="0" style="stop-color:#3D3B3B"/>
		<stop  offset="0.03" style="stop-color:#908F8F"/>
		<stop  offset="0.08" style="stop-color:#514F4F"/>
		<stop  offset="0.64" style="stop-color:#504E4E"/>
		<stop  offset="0.95" style="stop-color:#4E4C4C"/>
		<stop  offset="1" style="stop-color:#383636"/>
	</linearGradient>
	<path fill="url(#SVGID_5_)" d="M143.445,466.101h54.75v67.5h-54.75V466.101z"/>
	<path fill="#D4DCD2" d="M147.922,125.43h60.75v21h-60.75V125.43z"/>
	<path fill="#00AE9D" stroke="#00AE9D" stroke-linejoin="bevel" stroke-miterlimit="10" d="M136.105,184.844h17.25v18h-17.25
		V184.844z"/>
	<path fill="#CDCECE" stroke="#CDCECE" stroke-linejoin="bevel" stroke-miterlimit="10" d="M158.57,184.844h17.25v18h-17.25V184.844
		z"/>
	<path fill="#CDCECE" stroke="#CDCECE" stroke-linejoin="bevel" stroke-miterlimit="10" d="M181.035,184.844h17.25v18h-17.25
		V184.844z"/>
	<path fill="#CDCECE" stroke="#CDCECE" stroke-linejoin="bevel" stroke-miterlimit="10" d="M203.5,184.844h17.25v18H203.5V184.844z"
		/>
	<path fill="#D4DCD2" d="M147.922,151.422h60.75v21h-60.75V151.422z"/>
	<path fill="#DCDCDD" d="M124.047,99.691h3.75v125.25h-3.75V99.691z"/>
	<path fill="#D4DCD2" d="M148.293,309.644h60.75v21h-60.75V309.644z"/>
	<path fill="#D4DCD2" d="M148.293,335.632h60.75v21h-60.75V335.632z"/>
	<path fill="#DCDCDD" d="M124.418,283.906h3.75v125.25h-3.75V283.906z"/>
	<path fill="#EEEEEE" d="M153.938,479.089h33.75v42h-33.75V479.089z"/>
	<path fill="#B4B5B5" d="M153.938,479.089h33.75v9.75h-33.75V479.089z"/>
	<path d="M259.234,66.066c0-6,4.836-11.277,10.852-11.277c5.648,0.027,10.855,4.938,10.855,11.051
		c0.043,6.227-4.879,11.02-10.855,11.02c-6.352-0.293-10.879-4.949-10.879-11.02L259.234,66.066z"/>
	
		<linearGradient id="SVGID_6_" gradientUnits="userSpaceOnUse" x1="205.8164" y1="203.4233" x2="222.1458" y2="175.1401" gradientTransform="matrix(0.75 0 0 -0.75 109.5531 207.8126)">
		<stop  offset="0" style="stop-color:#505050"/>
		<stop  offset="1" style="stop-color:#000000"/>
	</linearGradient>
	<path fill="url(#SVGID_6_)" stroke="#FFFFFF" stroke-linejoin="bevel" stroke-miterlimit="10" d="M261.223,65.836
		c0-5.25,3.949-9.023,8.863-9.023c4.637,0.023,8.867,4.035,8.867,9.027c0.27,5.246-3.984,9-8.867,9
		c-5.113-0.004-8.887-4.043-8.887-9L261.223,65.836z"/>
	<path d="M259.234,285.71c0-6,4.836-11.277,10.852-11.277c5.648,0.027,10.855,4.938,10.855,11.05
		c0.043,6.227-4.879,11.023-10.855,11.023c-6.352-0.297-10.879-4.953-10.879-11.023L259.234,285.71z"/>
	
		<linearGradient id="SVGID_7_" gradientUnits="userSpaceOnUse" x1="205.8154" y1="203.4248" x2="222.1453" y2="175.1406" gradientTransform="matrix(0.75 0 0 -0.75 109.5531 427.4591)">
		<stop  offset="0" style="stop-color:#505050"/>
		<stop  offset="1" style="stop-color:#000000"/>
	</linearGradient>
	<path fill="url(#SVGID_7_)" stroke="#FFFFFF" stroke-linejoin="bevel" stroke-miterlimit="10" d="M261.223,285.48
		c0-5.25,3.949-9.023,8.863-9.023c4.637,0.023,8.867,4.035,8.867,9.027c0.27,5.246-3.984,9.004-8.867,9.004
		c-5.113-0.008-8.887-4.047-8.887-9.004L261.223,285.48z"/>
	<path d="M259.234,506.468c0-6,4.836-11.277,10.852-11.277c5.648,0.027,10.855,4.938,10.855,11.051
		c0.043,6.227-4.879,11.023-10.855,11.023c-6.352-0.297-10.879-4.953-10.879-11.023L259.234,506.468z"/>
	
		<linearGradient id="SVGID_8_" gradientUnits="userSpaceOnUse" x1="205.8159" y1="203.4238" x2="222.145" y2="175.1411" gradientTransform="matrix(0.75 0 0 -0.75 109.5531 648.2159)">
		<stop  offset="0" style="stop-color:#505050"/>
		<stop  offset="1" style="stop-color:#000000"/>
	</linearGradient>
	<path fill="url(#SVGID_8_)" stroke="#FFFFFF" stroke-linejoin="bevel" stroke-miterlimit="10" d="M261.223,506.238
		c0-5.25,3.949-9.023,8.863-9.023c4.637,0.023,8.867,4.035,8.867,9.027c0.27,5.246-3.984,9-8.867,9
		c-5.113-0.004-8.887-4.043-8.887-9L261.223,506.238z"/>
	
		<linearGradient id="SVGID_9_" gradientUnits="userSpaceOnUse" x1="237.6709" y1="185.5557" x2="202.2236" y2="185.5557" gradientTransform="matrix(0.75 0 0 -0.75 228.4921 490.2286)">
		<stop  offset="0" style="stop-color:#161616"/>
		<stop  offset="0.15" style="stop-color:#464646"/>
		<stop  offset="0.25" style="stop-color:#474747"/>
		<stop  offset="0.63" style="stop-color:#000000"/>
	</linearGradient>
	<path fill="url(#SVGID_9_)" d="M400.41,339.25c0.75,0.75,0.352,3.578,1.965,6.434c1.785,2.566,4.371,3.832,4.371,5.359
		c-0.336,1.707-2.734,2.574-4.258,5.164c-1.328,2.543-0.895,5.613-2.391,6.5c-1.188,0.543-3.25-1.098-6.68-1.078
		c-3.508,0.121-5.313,1.773-6.609,1.078c-1.398-0.957-0.695-3.301-2.508-6.414c-1.891-2.793-4.141-3.512-4.141-5.25
		c0-2.043,2.43-2.449,4.242-5.512c1.758-3.281,1.438-5.664,2.406-6.148c0.852-0.133,2.98,1.074,6.703,1.074
		c3.898,0.293,5.566-1.715,6.586-1.074L400.41,339.25z"/>
	<path fill="#FFFFFF" fill-opacity="0.2" d="M399.636,339.875c0.75,0.75,0.727,3.387,2.25,6.094c1.5,2.906,4.137,3.633,4.137,5.078
		c0.363,1.578-2.59,2.438-4.027,4.887c-1.609,2.691-0.844,5.32-2.262,6.16c-1.598,1.031-3.07-1.039-6.313-1.02
		c-3.535-0.199-5.023,1.68-6.254,1.02c-1.031-0.469-0.656-3.129-2.367-6.074c-1.664-2.645-3.914-3.328-3.914-4.973
		c0-1.422,2.293-2.324,4.008-5.223c1.992-2.949,1.359-5.367,2.273-5.824c1.219-0.125,2.82,1.02,6.344,1.02
		c3.875,0.355,5.262-1.625,6.223-1.02L399.636,339.875z"/>
	<path fill="#242020" stroke="#3E3938" stroke-linejoin="bevel" stroke-miterlimit="10" d="M385.289,351.046
		c0-4.5,3.656-8.25,8.164-8.25c4.586,0,8.164,3.707,8.164,8.285c0.172,4.465-3.656,8.281-8.164,8.281
		c-4.414-0.066-8.164-3.707-8.164-8.281V351.046z"/>
	<path fill="#FFFFFF" fill-opacity="0.1725" d="M394.136,351.414c0-3.75-4.582-7.5-0.684-7.5c3.684,0,7.063,3.211,7.063,7.176
		c0.371,4.074-3.164,7.156-7.063,7.156c-3.816-0.082,0.391-2.676,0.391-6.633L394.136,351.414z"/>
	
		<linearGradient id="SVGID_10_" gradientUnits="userSpaceOnUse" x1="237.6689" y1="185.5557" x2="202.2256" y2="185.5557" gradientTransform="matrix(0.75 0 0 -0.75 267.7089 490.2286)">
		<stop  offset="0" style="stop-color:#161616"/>
		<stop  offset="0.15" style="stop-color:#464646"/>
		<stop  offset="0.25" style="stop-color:#474747"/>
		<stop  offset="0.63" style="stop-color:#000000"/>
	</linearGradient>
	<path fill="url(#SVGID_10_)" d="M439.628,339.25c0.75,0.75,0.352,3.578,1.961,6.434c1.789,2.566,4.371,3.832,4.371,5.359
		c-0.332,1.707-2.734,2.574-4.258,5.164c-1.324,2.543-0.891,5.613-2.391,6.5c-1.184,0.543-3.246-1.098-6.676-1.078
		c-3.508,0.121-5.316,1.773-6.613,1.078c-1.395-0.957-0.695-3.301-2.508-6.414c-1.887-2.793-4.137-3.512-4.137-5.25
		c0-2.043,2.426-2.449,4.238-5.512c1.762-3.281,1.438-5.664,2.406-6.148c0.855-0.133,2.98,1.074,6.707,1.074
		c3.898,0.293,5.563-1.715,6.582-1.074L439.628,339.25z"/>
	<path fill="#FFFFFF" fill-opacity="0.2" d="M438.851,339.875c0.75,0.75,0.73,3.387,2.254,6.094
		c1.496,2.906,4.133,3.633,4.133,5.078c0.363,1.578-2.586,2.438-4.027,4.887c-1.609,2.691-0.844,5.32-2.262,6.16
		c-1.598,1.031-3.07-1.039-6.313-1.02c-3.535-0.199-5.023,1.68-6.25,1.02c-1.035-0.469-0.656-3.129-2.371-6.074
		c-1.664-2.645-3.914-3.328-3.914-4.973c0-1.422,2.297-2.324,4.008-5.223c1.992-2.949,1.363-5.367,2.277-5.824
		c1.215-0.125,2.816,1.02,6.34,1.02c3.875,0.355,5.262-1.625,6.223-1.02L438.851,339.875z"/>
	<path fill="#242020" stroke="#3E3938" stroke-linejoin="bevel" stroke-miterlimit="10" d="M424.507,351.046
		c0-4.5,3.652-8.25,8.164-8.25c4.586,0,8.16,3.707,8.16,8.285c0.176,4.465-3.652,8.281-8.16,8.281
		c-4.414-0.066-8.164-3.707-8.164-8.281V351.046z"/>
	<path fill="#FFFFFF" fill-opacity="0.1725" d="M433.351,351.414c0-3.75-4.582-7.5-0.68-7.5c3.68,0,7.059,3.211,7.059,7.176
		c0.371,4.074-3.16,7.156-7.059,7.156c-3.82-0.082,0.387-2.676,0.387-6.633L433.351,351.414z"/>
	<path d="M382.628,442.121c0-6,4.836-11.281,10.855-11.281c5.645,0.031,10.852,4.941,10.852,11.051
		c0.043,6.23-4.875,11.023-10.852,11.023c-6.355-0.293-10.883-4.953-10.883-11.023L382.628,442.121z"/>
	
		<linearGradient id="SVGID_11_" gradientUnits="userSpaceOnUse" x1="205.8159" y1="203.4243" x2="222.1458" y2="175.1402" gradientTransform="matrix(0.75 0 0 -0.75 232.9501 583.8663)">
		<stop  offset="0" style="stop-color:#505050"/>
		<stop  offset="1" style="stop-color:#000000"/>
	</linearGradient>
	<path fill="url(#SVGID_11_)" stroke="#FFFFFF" stroke-linejoin="bevel" stroke-miterlimit="10" d="M384.617,441.89
		c0-5.25,3.949-9.023,8.867-9.023c4.633,0.023,8.863,4.031,8.863,9.023c0.27,5.25-3.98,9.004-8.863,9.004
		c-5.117-0.004-8.887-4.043-8.887-9.004H384.617z"/>
	<path d="M421.847,442.121c0-6,4.832-11.281,10.852-11.281c5.648,0.031,10.852,4.941,10.852,11.051
		c0.047,6.23-4.875,11.023-10.852,11.023c-6.352-0.293-10.879-4.953-10.879-11.023L421.847,442.121z"/>
	
		<linearGradient id="SVGID_12_" gradientUnits="userSpaceOnUse" x1="205.8159" y1="203.4243" x2="222.1453" y2="175.141" gradientTransform="matrix(0.75 0 0 -0.75 272.1659 583.8663)">
		<stop  offset="0" style="stop-color:#505050"/>
		<stop  offset="1" style="stop-color:#000000"/>
	</linearGradient>
	<path fill="url(#SVGID_12_)" stroke="#FFFFFF" stroke-linejoin="bevel" stroke-miterlimit="10" d="M423.835,441.89
		c0-5.25,3.949-9.023,8.863-9.023c4.637,0.023,8.863,4.031,8.863,9.023c0.273,5.25-3.98,9.004-8.863,9.004
		c-5.113-0.004-8.887-4.043-8.887-9.004H423.835z"/>
	
		<linearGradient id="SVGID_13_" gradientUnits="userSpaceOnUse" x1="761.2241" y1="190.3062" x2="202.2241" y2="190.3061" gradientTransform="matrix(0.75 0 0 -0.75 -77.8605 697.3615)">
		<stop  offset="0" style="stop-color:#9B9B9C"/>
		<stop  offset="0.03" style="stop-color:#E4E4E4"/>
		<stop  offset="0.08" style="stop-color:#CBCBCB"/>
		<stop  offset="0.64" style="stop-color:#C7C7C8"/>
		<stop  offset="0.95" style="stop-color:#C3C3C4"/>
		<stop  offset="1" style="stop-color:#909091"/>
	</linearGradient>
	<path fill="url(#SVGID_13_)" d="M73.809,546.382h419.25v16.5H73.809V546.382z"/>
	
		<linearGradient id="SVGID_14_" gradientUnits="userSpaceOnUse" x1="761.2241" y1="190.3052" x2="202.2241" y2="190.3051" gradientTransform="matrix(0.75 0 0 -0.75 -77.8605 154.9005)">
		<stop  offset="0" style="stop-color:#9B9B9C"/>
		<stop  offset="0.03" style="stop-color:#E4E4E4"/>
		<stop  offset="0.08" style="stop-color:#CBCBCB"/>
		<stop  offset="0.64" style="stop-color:#C7C7C8"/>
		<stop  offset="0.95" style="stop-color:#C3C3C4"/>
		<stop  offset="1" style="stop-color:#909091"/>
	</linearGradient>
	<path fill="url(#SVGID_14_)" d="M73.809,3.922h419.25v16.5H73.809V3.922z"/>
	<path fill="#00AE9D" stroke="#00AE9D" stroke-linejoin="bevel" stroke-miterlimit="10" d="M136.234,369.062h17.25v18h-17.25
		V369.062z"/>
	<path fill="#CDCECE" stroke="#CDCECE" stroke-linejoin="bevel" stroke-miterlimit="10" d="M158.691,369.062h17.25v18h-17.25
		V369.062z"/>
	<path fill="#CDCECE" stroke="#CDCECE" stroke-linejoin="bevel" stroke-miterlimit="10" d="M181.148,369.062h17.25v18h-17.25
		V369.062z"/>
	<path fill="#CDCECE" stroke="#CDCECE" stroke-linejoin="bevel" stroke-miterlimit="10" d="M203.625,369.062h17.25v18h-17.25
		V369.062z"/>
</g>
</svg>
