<?xml version="1.0" encoding="utf-8"?>
<!-- Generator: Adobe Illustrator 16.0.0, SVG Export Plug-In . SVG Version: 6.00 Build 0)  -->
<!DOCTYPE svg PUBLIC "-//W3C//DTD SVG 1.1//EN" "http://www.w3.org/Graphics/SVG/1.1/DTD/svg11.dtd">
<svg preserveAspectRatio="none"   version="1.1" id="图层_1" xmlns="http://www.w3.org/2000/svg" xmlns:xlink="http://www.w3.org/1999/xlink" x="0px" y="0px"
	 width="240.714px" height="563.718px" viewBox="162.988 1.398 240.714 563.718"
	 enable-background="new 162.988 1.398 240.714 563.718" xml:space="preserve">
<g id="surface246">
	
		<linearGradient id="SVGID_1_" gradientUnits="userSpaceOnUse" x1="184.2051" y1="201.3018" x2="184.2051" y2="143.3018" gradientTransform="matrix(-0.75 0 0 -0.75 524.2306 356.7189)">
		<stop  offset="0" style="stop-color:#C2B39F"/>
		<stop  offset="0.15" style="stop-color:#FDEAD3"/>
		<stop  offset="0.25" style="stop-color:#FEF3E7"/>
		<stop  offset="0.52" style="stop-color:#DECCB6"/>
		<stop  offset="0.69" style="stop-color:#C5B5A2"/>
		<stop  offset="0.8" style="stop-color:#BAAB98"/>
		<stop  offset="0.97" style="stop-color:#B0A190"/>
		<stop  offset="1" style="stop-color:#CABAA5"/>
	</linearGradient>
	<path fill="url(#SVGID_1_)" d="M372.203,205.742h27.75v43.5h-27.75V205.742z"/>
	
		<linearGradient id="SVGID_2_" gradientUnits="userSpaceOnUse" x1="207.2305" y1="201.3057" x2="207.2305" y2="133.3057" gradientTransform="matrix(0.75 0 0 -0.75 244.4716 353.0607)">
		<stop  offset="0" style="stop-color:#C2B39F"/>
		<stop  offset="0.15" style="stop-color:#FDEAD3"/>
		<stop  offset="0.25" style="stop-color:#FEF3E7"/>
		<stop  offset="0.52" style="stop-color:#DECCB6"/>
		<stop  offset="0.69" style="stop-color:#C5B5A2"/>
		<stop  offset="0.8" style="stop-color:#BAAB98"/>
		<stop  offset="0.97" style="stop-color:#B0A190"/>
		<stop  offset="1" style="stop-color:#CABAA5"/>
	</linearGradient>
	<path fill="url(#SVGID_2_)" d="M396.89,202.082h6c0,0,0.813,0.438,0.813,1.016l-0.063,49.234c0,0-0.402,0.746-0.977,0.746
		l-5.773,0.004c0,0-0.805-0.473-0.805-1.051l0.055-49.199c0,0,0.41-0.75,0.984-0.75H396.89z"/>
	
		<linearGradient id="SVGID_3_" gradientUnits="userSpaceOnUse" x1="184.2051" y1="201.3008" x2="184.2051" y2="143.3008" gradientTransform="matrix(-0.75 0 0 -0.75 524.2306 232.9952)">
		<stop  offset="0" style="stop-color:#C2B39F"/>
		<stop  offset="0.15" style="stop-color:#FDEAD3"/>
		<stop  offset="0.25" style="stop-color:#FEF3E7"/>
		<stop  offset="0.52" style="stop-color:#DECCB6"/>
		<stop  offset="0.69" style="stop-color:#C5B5A2"/>
		<stop  offset="0.8" style="stop-color:#BAAB98"/>
		<stop  offset="0.97" style="stop-color:#B0A190"/>
		<stop  offset="1" style="stop-color:#CABAA5"/>
	</linearGradient>
	<path fill="url(#SVGID_3_)" d="M372.203,82.02h27.75v43.5h-27.75V82.02z"/>
	
		<linearGradient id="SVGID_4_" gradientUnits="userSpaceOnUse" x1="207.229" y1="201.3037" x2="207.229" y2="133.3037" gradientTransform="matrix(0.75 0 0 -0.75 244.4725 229.338)">
		<stop  offset="0" style="stop-color:#C2B39F"/>
		<stop  offset="0.15" style="stop-color:#FDEAD3"/>
		<stop  offset="0.25" style="stop-color:#FEF3E7"/>
		<stop  offset="0.52" style="stop-color:#DECCB6"/>
		<stop  offset="0.69" style="stop-color:#C5B5A2"/>
		<stop  offset="0.8" style="stop-color:#BAAB98"/>
		<stop  offset="0.97" style="stop-color:#B0A190"/>
		<stop  offset="1" style="stop-color:#CABAA5"/>
	</linearGradient>
	<path fill="url(#SVGID_4_)" d="M396.89,78.359h6c0,0,0.813,0.438,0.813,1.016l-0.063,49.234c0,0-0.402,0.746-0.977,0.746
		l-5.773,0.004c0,0-0.805-0.473-0.805-1.055l0.055-49.195c0,0,0.41-0.75,0.984-0.75H396.89z"/>
	
		<linearGradient id="SVGID_5_" gradientUnits="userSpaceOnUse" x1="480.2251" y1="-124.6943" x2="202.2256" y2="-124.6944" gradientTransform="matrix(0.75 0 0 -0.75 13.4979 212.5919)">
		<stop  offset="0" style="stop-color:#C2B39F"/>
		<stop  offset="0.15" style="stop-color:#FDEAD3"/>
		<stop  offset="0.25" style="stop-color:#FEF3E7"/>
		<stop  offset="0.44" style="stop-color:#DECCB6"/>
		<stop  offset="0.6" style="stop-color:#C5B5A2"/>
		<stop  offset="0.8" style="stop-color:#A69988"/>
		<stop  offset="0.97" style="stop-color:#988C7C"/>
		<stop  offset="1" style="stop-color:#CABAA5"/>
	</linearGradient>
	<path fill="url(#SVGID_5_)" d="M165.168,61.613h208.5v489h-208.5V61.613z"/>
	
		<linearGradient id="SVGID_6_" gradientUnits="userSpaceOnUse" x1="480.2231" y1="197.3042" x2="202.2241" y2="197.3042" gradientTransform="matrix(0.75 0 0 -0.75 13.4955 212.5939)">
		<stop  offset="0" style="stop-color:#C3A156"/>
		<stop  offset="0.15" style="stop-color:#FED681"/>
		<stop  offset="0.25" style="stop-color:#FEE8C2"/>
		<stop  offset="0.44" style="stop-color:#DEB863"/>
		<stop  offset="0.6" style="stop-color:#C6A457"/>
		<stop  offset="0.8" style="stop-color:#A78A48"/>
		<stop  offset="0.97" style="stop-color:#997E42"/>
		<stop  offset="1" style="stop-color:#CBA859"/>
	</linearGradient>
	<path fill="url(#SVGID_6_)" d="M165.164,61.617h208.5v6h-208.5V61.617z"/>
	
		<linearGradient id="SVGID_7_" gradientUnits="userSpaceOnUse" x1="486.2251" y1="190.7866" x2="202.2251" y2="190.7866" gradientTransform="matrix(0.75 0 0 -0.75 11.3187 700.3175)">
		<stop  offset="0" style="stop-color:#C2B39F"/>
		<stop  offset="0.15" style="stop-color:#FDEAD3"/>
		<stop  offset="0.25" style="stop-color:#FEF3E7"/>
		<stop  offset="0.44" style="stop-color:#DECCB6"/>
		<stop  offset="0.6" style="stop-color:#C5B5A2"/>
		<stop  offset="0.8" style="stop-color:#A69988"/>
		<stop  offset="0.97" style="stop-color:#988C7C"/>
		<stop  offset="1" style="stop-color:#CABAA5"/>
	</linearGradient>
	<path fill="url(#SVGID_7_)" d="M165.238,549.339h207.75c1.5,0,2.738,1.086,2.738,2.426l0.262,11.074c0,1.5-1.355,2.277-2.684,2.277
		l-208.066-0.027c-1.5,0-2.25-1.059-2.25-2.398v-11.102c0-1.5,1-2.25,2.328-2.25H165.238z"/>
	
		<linearGradient id="SVGID_8_" gradientUnits="userSpaceOnUse" x1="480.2251" y1="199.3071" x2="202.2256" y2="199.3071" gradientTransform="matrix(0.75 0 0 -0.75 13.4979 697.4161)">
		<stop  offset="0" style="stop-color:#C3A156"/>
		<stop  offset="0.15" style="stop-color:#FED681"/>
		<stop  offset="0.25" style="stop-color:#FEE8C2"/>
		<stop  offset="0.44" style="stop-color:#DEB863"/>
		<stop  offset="0.6" style="stop-color:#C6A457"/>
		<stop  offset="0.8" style="stop-color:#A78A48"/>
		<stop  offset="0.97" style="stop-color:#997E42"/>
		<stop  offset="1" style="stop-color:#CBA859"/>
	</linearGradient>
	<path fill="url(#SVGID_8_)" d="M165.168,546.437h208.5v3h-208.5V546.437z"/>
	
		<linearGradient id="SVGID_9_" gradientUnits="userSpaceOnUse" x1="480.2231" y1="132.3062" x2="202.2231" y2="132.3061" gradientTransform="matrix(0.75 0 0 -0.75 13.4999 592.7472)">
		<stop  offset="0" style="stop-color:#AC8C55"/>
		<stop  offset="0.15" style="stop-color:#E3BD80"/>
		<stop  offset="0.25" style="stop-color:#EFDCC2"/>
		<stop  offset="0.44" style="stop-color:#C5A162"/>
		<stop  offset="0.6" style="stop-color:#AF8F56"/>
		<stop  offset="0.8" style="stop-color:#937848"/>
		<stop  offset="0.97" style="stop-color:#876D41"/>
		<stop  offset="1" style="stop-color:#B39259"/>
	</linearGradient>
	<path fill="url(#SVGID_9_)" d="M165.168,441.769h208.5v103.5h-208.5V441.769z"/>
	
		<linearGradient id="SVGID_10_" gradientUnits="userSpaceOnUse" x1="480.2231" y1="196.3071" x2="202.2231" y2="196.3071" gradientTransform="matrix(0.75 0 0 -0.75 13.4999 640.8224)">
		<stop  offset="0" style="stop-color:#C3A156"/>
		<stop  offset="0.15" style="stop-color:#FED681"/>
		<stop  offset="0.25" style="stop-color:#FEE8C2"/>
		<stop  offset="0.44" style="stop-color:#DEB863"/>
		<stop  offset="0.6" style="stop-color:#C6A457"/>
		<stop  offset="0.8" style="stop-color:#A78A48"/>
		<stop  offset="0.97" style="stop-color:#997E42"/>
		<stop  offset="1" style="stop-color:#CBA859"/>
	</linearGradient>
	<path fill="url(#SVGID_10_)" d="M165.168,489.843h208.5v7.5h-208.5V489.843z"/>
	
		<linearGradient id="SVGID_11_" gradientUnits="userSpaceOnUse" x1="225.2227" y1="132.3057" x2="202.2227" y2="132.3057" gradientTransform="matrix(0.75 0 0 -0.75 13.5004 592.7472)">
		<stop  offset="0" style="stop-color:#C6A457"/>
		<stop  offset="0.8" style="stop-color:#A78A48"/>
		<stop  offset="0.97" style="stop-color:#997E42"/>
		<stop  offset="1" style="stop-color:#CBA859"/>
	</linearGradient>
	<path fill="url(#SVGID_11_)" d="M179.418,493.519l-14.25,51.75h3l14.25-51.75l-14.25-50.25l-3-1.5L179.418,493.519z"/>
	
		<linearGradient id="SVGID_12_" gradientUnits="userSpaceOnUse" x1="225.2231" y1="132.3057" x2="202.2231" y2="132.3057" gradientTransform="matrix(0.75 0 0 -0.75 27.1371 592.7472)">
		<stop  offset="0" style="stop-color:#C6A457"/>
		<stop  offset="0.8" style="stop-color:#A78A48"/>
		<stop  offset="0.97" style="stop-color:#997E42"/>
		<stop  offset="1" style="stop-color:#CBA859"/>
	</linearGradient>
	<path fill="url(#SVGID_12_)" d="M193.055,493.519l-14.25,51.75h3l14.25-51.75l-14.25-50.25l-3-1.5L193.055,493.519z"/>
	
		<linearGradient id="SVGID_13_" gradientUnits="userSpaceOnUse" x1="225.2241" y1="132.3057" x2="202.2241" y2="132.3057" gradientTransform="matrix(0.75 0 0 -0.75 42.1517 592.7472)">
		<stop  offset="0" style="stop-color:#C6A457"/>
		<stop  offset="0.8" style="stop-color:#A78A48"/>
		<stop  offset="0.97" style="stop-color:#997E42"/>
		<stop  offset="1" style="stop-color:#CBA859"/>
	</linearGradient>
	<path fill="url(#SVGID_13_)" d="M208.07,493.519l-14.25,51.75h3l14.25-51.75l-14.25-50.25l-3-1.5L208.07,493.519z"/>
	
		<linearGradient id="SVGID_14_" gradientUnits="userSpaceOnUse" x1="225.2275" y1="132.3057" x2="202.2275" y2="132.3057" gradientTransform="matrix(0.75 0 0 -0.75 54.4115 592.7472)">
		<stop  offset="0" style="stop-color:#C6A457"/>
		<stop  offset="0.8" style="stop-color:#A78A48"/>
		<stop  offset="0.97" style="stop-color:#997E42"/>
		<stop  offset="1" style="stop-color:#CBA859"/>
	</linearGradient>
	<path fill="url(#SVGID_14_)" d="M220.332,493.519l-14.25,51.75h3l14.25-51.75l-14.25-50.25l-3-1.5L220.332,493.519z"/>
	
		<linearGradient id="SVGID_15_" gradientUnits="userSpaceOnUse" x1="225.2261" y1="132.3057" x2="202.2261" y2="132.3057" gradientTransform="matrix(0.75 0 0 -0.75 68.0487 592.7472)">
		<stop  offset="0" style="stop-color:#C6A457"/>
		<stop  offset="0.8" style="stop-color:#A78A48"/>
		<stop  offset="0.97" style="stop-color:#997E42"/>
		<stop  offset="1" style="stop-color:#CBA859"/>
	</linearGradient>
	<path fill="url(#SVGID_15_)" d="M233.969,493.519l-14.25,51.75h3l14.25-51.75l-14.25-50.25l-3-1.5L233.969,493.519z"/>
	
		<linearGradient id="SVGID_16_" gradientUnits="userSpaceOnUse" x1="225.2256" y1="132.3057" x2="202.2256" y2="132.3057" gradientTransform="matrix(0.75 0 0 -0.75 81.6859 592.7472)">
		<stop  offset="0" style="stop-color:#C6A457"/>
		<stop  offset="0.8" style="stop-color:#A78A48"/>
		<stop  offset="0.97" style="stop-color:#997E42"/>
		<stop  offset="1" style="stop-color:#CBA859"/>
	</linearGradient>
	<path fill="url(#SVGID_16_)" d="M247.605,493.519l-14.25,51.75h3l14.25-51.75l-14.25-50.25l-3-1.5L247.605,493.519z"/>
	
		<linearGradient id="SVGID_17_" gradientUnits="userSpaceOnUse" x1="225.2227" y1="132.3057" x2="202.2227" y2="132.3057" gradientTransform="matrix(0.75 0 0 -0.75 136.2347 592.7472)">
		<stop  offset="0" style="stop-color:#C6A457"/>
		<stop  offset="0.8" style="stop-color:#A78A48"/>
		<stop  offset="0.97" style="stop-color:#997E42"/>
		<stop  offset="1" style="stop-color:#CBA859"/>
	</linearGradient>
	<path fill="url(#SVGID_17_)" d="M302.152,493.519l-14.25,51.75h3l14.25-51.75l-14.25-50.25l-3-1.5L302.152,493.519z"/>
	
		<linearGradient id="SVGID_18_" gradientUnits="userSpaceOnUse" x1="225.2271" y1="132.3057" x2="202.2271" y2="132.3057" gradientTransform="matrix(0.75 0 0 -0.75 149.8719 592.7472)">
		<stop  offset="0" style="stop-color:#C6A457"/>
		<stop  offset="0.8" style="stop-color:#A78A48"/>
		<stop  offset="0.97" style="stop-color:#997E42"/>
		<stop  offset="1" style="stop-color:#CBA859"/>
	</linearGradient>
	<path fill="url(#SVGID_18_)" d="M315.792,493.519l-14.25,51.75h3l14.25-51.75l-14.25-50.25l-3-1.5L315.792,493.519z"/>
	
		<linearGradient id="SVGID_19_" gradientUnits="userSpaceOnUse" x1="225.2275" y1="132.3057" x2="202.2275" y2="132.3057" gradientTransform="matrix(0.75 0 0 -0.75 163.5087 592.7472)">
		<stop  offset="0" style="stop-color:#C6A457"/>
		<stop  offset="0.8" style="stop-color:#A78A48"/>
		<stop  offset="0.97" style="stop-color:#997E42"/>
		<stop  offset="1" style="stop-color:#CBA859"/>
	</linearGradient>
	<path fill="url(#SVGID_19_)" d="M329.429,493.519l-14.25,51.75h3l14.25-51.75l-14.25-50.25l-3-1.5L329.429,493.519z"/>
	
		<linearGradient id="SVGID_20_" gradientUnits="userSpaceOnUse" x1="225.2256" y1="132.3057" x2="202.2256" y2="132.3057" gradientTransform="matrix(0.75 0 0 -0.75 177.1464 592.7472)">
		<stop  offset="0" style="stop-color:#C6A457"/>
		<stop  offset="0.8" style="stop-color:#A78A48"/>
		<stop  offset="0.97" style="stop-color:#997E42"/>
		<stop  offset="1" style="stop-color:#CBA859"/>
	</linearGradient>
	<path fill="url(#SVGID_20_)" d="M343.066,493.519l-14.25,51.75h3l14.25-51.75l-14.25-50.25l-3-1.5L343.066,493.519z"/>
	
		<linearGradient id="SVGID_21_" gradientUnits="userSpaceOnUse" x1="225.2256" y1="132.3057" x2="202.2256" y2="132.3057" gradientTransform="matrix(0.75 0 0 -0.75 190.7831 592.7472)">
		<stop  offset="0" style="stop-color:#C6A457"/>
		<stop  offset="0.8" style="stop-color:#A78A48"/>
		<stop  offset="0.97" style="stop-color:#997E42"/>
		<stop  offset="1" style="stop-color:#CBA859"/>
	</linearGradient>
	<path fill="url(#SVGID_21_)" d="M356.703,493.519l-14.25,51.75h3l14.25-51.75l-14.25-50.25l-3-1.5L356.703,493.519z"/>
	
		<linearGradient id="SVGID_22_" gradientUnits="userSpaceOnUse" x1="225.2261" y1="132.3057" x2="202.2261" y2="132.3057" gradientTransform="matrix(0.75 0 0 -0.75 204.4198 592.7472)">
		<stop  offset="0" style="stop-color:#C6A457"/>
		<stop  offset="0.8" style="stop-color:#A78A48"/>
		<stop  offset="0.97" style="stop-color:#997E42"/>
		<stop  offset="1" style="stop-color:#CBA859"/>
	</linearGradient>
	<path fill="url(#SVGID_22_)" d="M370.339,493.519l-14.25,51.75h3l14.25-51.75l-14.25-50.25l-3-1.5L370.339,493.519z"/>
	
		<linearGradient id="SVGID_23_" gradientUnits="userSpaceOnUse" x1="225.2256" y1="132.3057" x2="202.2256" y2="132.3057" gradientTransform="matrix(0.75 0 0 -0.75 95.3231 592.7472)">
		<stop  offset="0" style="stop-color:#C6A457"/>
		<stop  offset="0.8" style="stop-color:#A78A48"/>
		<stop  offset="0.97" style="stop-color:#997E42"/>
		<stop  offset="1" style="stop-color:#CBA859"/>
	</linearGradient>
	<path fill="url(#SVGID_23_)" d="M261.242,493.519l-14.25,51.75h3l14.25-51.75l-14.25-50.25l-3-1.5L261.242,493.519z"/>
	
		<linearGradient id="SVGID_24_" gradientUnits="userSpaceOnUse" x1="225.2246" y1="132.3057" x2="202.2246" y2="132.3057" gradientTransform="matrix(0.75 0 0 -0.75 108.9598 592.7472)">
		<stop  offset="0" style="stop-color:#C6A457"/>
		<stop  offset="0.8" style="stop-color:#A78A48"/>
		<stop  offset="0.97" style="stop-color:#997E42"/>
		<stop  offset="1" style="stop-color:#CBA859"/>
	</linearGradient>
	<path fill="url(#SVGID_24_)" d="M274.879,493.519l-14.25,51.75h3l14.25-51.75l-14.25-50.25l-3-1.5L274.879,493.519z"/>
	
		<linearGradient id="SVGID_25_" gradientUnits="userSpaceOnUse" x1="225.2227" y1="132.3057" x2="202.2236" y2="132.3057" gradientTransform="matrix(0.75 0 0 -0.75 122.5975 592.7472)">
		<stop  offset="0" style="stop-color:#C6A457"/>
		<stop  offset="0.8" style="stop-color:#A78A48"/>
		<stop  offset="0.97" style="stop-color:#997E42"/>
		<stop  offset="1" style="stop-color:#CBA859"/>
	</linearGradient>
	<path fill="url(#SVGID_25_)" d="M288.515,493.519l-14.25,51.75h3l14.25-51.75l-14.25-50.25l-3-1.5L288.515,493.519z"/>
	
		<linearGradient id="SVGID_26_" gradientUnits="userSpaceOnUse" x1="479.2261" y1="197.3052" x2="202.2261" y2="197.3051" gradientTransform="matrix(0.75 0 0 -0.75 13.4974 588.2042)">
		<stop  offset="0" style="stop-color:#C3A156"/>
		<stop  offset="0.15" style="stop-color:#FED681"/>
		<stop  offset="0.25" style="stop-color:#FEE8C2"/>
		<stop  offset="0.44" style="stop-color:#DEB863"/>
		<stop  offset="0.6" style="stop-color:#C6A457"/>
		<stop  offset="0.8" style="stop-color:#A78A48"/>
		<stop  offset="0.97" style="stop-color:#997E42"/>
		<stop  offset="1" style="stop-color:#CBA859"/>
	</linearGradient>
	<path fill="url(#SVGID_26_)" d="M165.168,437.226h207.75v6h-207.75V437.226z"/>
	
		<linearGradient id="SVGID_27_" gradientUnits="userSpaceOnUse" x1="480.2593" y1="160.7632" x2="202.2231" y2="160.7632" gradientTransform="matrix(0.75 0 0 -0.75 13.1093 152.3761)">
		<stop  offset="0" style="stop-color:#C2B39F"/>
		<stop  offset="0.15" style="stop-color:#FDEAD3"/>
		<stop  offset="0.25" style="stop-color:#FEF3E7"/>
		<stop  offset="0.44" style="stop-color:#DECCB6"/>
		<stop  offset="0.6" style="stop-color:#C5B5A2"/>
		<stop  offset="0.8" style="stop-color:#A69988"/>
		<stop  offset="0.97" style="stop-color:#988C7C"/>
		<stop  offset="1" style="stop-color:#CABAA5"/>
	</linearGradient>
	<path fill="url(#SVGID_27_)" d="M268.277,1.398c99.75,0,105.027,60.813,105.027,60.813l-208.527-0.063
		c0,0,3.77-60.75,103.473-60.75H268.277z"/>
</g>
</svg>
