<?xml version="1.0" encoding="utf-8"?>
<!-- Generator: Adobe Illustrator 16.0.0, SVG Export Plug-In . SVG Version: 6.00 Build 0)  -->
<!DOCTYPE svg PUBLIC "-//W3C//DTD SVG 1.1//EN" "http://www.w3.org/Graphics/SVG/1.1/DTD/svg11.dtd">
<svg preserveAspectRatio="none"   version="1.1" id="图层_1" xmlns="http://www.w3.org/2000/svg" xmlns:xlink="http://www.w3.org/1999/xlink" x="0px" y="0px"
	 width="99px" height="542.566px" viewBox="233.965 12.27 99 542.566" enable-background="new 233.965 12.27 99 542.566"
	 xml:space="preserve">
<g id="surface61">
	
		<linearGradient id="SVGID_1_" gradientUnits="userSpaceOnUse" x1="281.2266" y1="142.8066" x2="202.2275" y2="142.8066" gradientTransform="matrix(0.75 0 0 -0.75 102.1068 167.1896)">
		<stop  offset="0" style="stop-color:#B4A59F"/>
		<stop  offset="0.15" style="stop-color:#EDDFDA"/>
		<stop  offset="0.25" style="stop-color:#EEE2DD"/>
		<stop  offset="0.52" style="stop-color:#CAB9B3"/>
		<stop  offset="0.69" style="stop-color:#B4A59F"/>
		<stop  offset="0.8" style="stop-color:#AA9B96"/>
		<stop  offset="0.92" style="stop-color:#A0938E"/>
	</linearGradient>
	<path fill="url(#SVGID_1_)" d="M253.777,16.211h59.25v87.75h-59.25V16.211z"/>
	
		<linearGradient id="SVGID_2_" gradientUnits="userSpaceOnUse" x1="287.2222" y1="-50.6948" x2="202.2231" y2="-50.6948" gradientTransform="matrix(0.75 0 0 -0.75 99.7811 320.8146)">
		<stop  offset="0" style="stop-color:#B4A59F"/>
		<stop  offset="0.15" style="stop-color:#EDDFDA"/>
		<stop  offset="0.25" style="stop-color:#EEE2DD"/>
		<stop  offset="0.52" style="stop-color:#CAB9B3"/>
		<stop  offset="0.69" style="stop-color:#B4A59F"/>
		<stop  offset="0.8" style="stop-color:#AA9B96"/>
		<stop  offset="0.92" style="stop-color:#A0938E"/>
	</linearGradient>
	<path fill="url(#SVGID_2_)" d="M251.449,169.836h63.75v378h-63.75V169.836z"/>
	
		<linearGradient id="SVGID_3_" gradientUnits="userSpaceOnUse" x1="288.2231" y1="165.623" x2="202.2236" y2="165.623" gradientTransform="matrix(0.75 0 0 -0.75 99.5546 414.4874)">
		<stop  offset="0" style="stop-color:#A1857B"/>
		<stop  offset="0.15" style="stop-color:#DCC4BC"/>
		<stop  offset="0.25" style="stop-color:#DEC9C1"/>
		<stop  offset="0.52" style="stop-color:#B5968B"/>
		<stop  offset="0.69" style="stop-color:#A1857B"/>
		<stop  offset="0.8" style="stop-color:#987D74"/>
		<stop  offset="0.92" style="stop-color:#8F766D"/>
	</linearGradient>
	<path fill="url(#SVGID_3_)" d="M252.723,263.508h61.5c0.75,0,1.484,5.48,1.484,12.238l0.016,29.011
		c0,6.75-0.75,12.277-1.656,12.277l-61.343-0.277c-0.75,0-1.5-5.199-1.5-11.957v-29.292c0-6.75,0.734-12,1.641-12H252.723z"/>
	
		<linearGradient id="SVGID_4_" gradientUnits="userSpaceOnUse" x1="297.4146" y1="195.8027" x2="202.2231" y2="195.8027" gradientTransform="matrix(0.75 0 0 -0.75 96.098 417.7579)">
		<stop  offset="0" style="stop-color:#B4A59F"/>
		<stop  offset="0.15" style="stop-color:#EDDFDA"/>
		<stop  offset="0.25" style="stop-color:#EEE2DD"/>
		<stop  offset="0.52" style="stop-color:#CAB9B3"/>
		<stop  offset="0.69" style="stop-color:#B4A59F"/>
		<stop  offset="0.8" style="stop-color:#AA9B96"/>
		<stop  offset="0.92" style="stop-color:#A0938E"/>
	</linearGradient>
	<path fill="url(#SVGID_4_)" d="M249.266,266.781h68.25c0.75,0,1.645,0.809,1.645,1.805l-0.145,4.195
		c0,0.75-0.664,1.891-1.668,1.891l-68.082,0.359c-0.75,0-1.5-1.168-1.5-2.164v-4.586c0-0.75,0.813-1.5,1.816-1.5H249.266z"/>
	
		<linearGradient id="SVGID_5_" gradientUnits="userSpaceOnUse" x1="297.6528" y1="178.3027" x2="202.2256" y2="178.3027" gradientTransform="matrix(0.75 0 0 -0.75 96.0096 429.5236)">
		<stop  offset="0" style="stop-color:#B4A59F"/>
		<stop  offset="0.15" style="stop-color:#EDDFDA"/>
		<stop  offset="0.25" style="stop-color:#EEE2DD"/>
		<stop  offset="0.52" style="stop-color:#CAB9B3"/>
		<stop  offset="0.69" style="stop-color:#B4A59F"/>
		<stop  offset="0.8" style="stop-color:#AA9B96"/>
		<stop  offset="0.92" style="stop-color:#A0938E"/>
	</linearGradient>
	<path fill="url(#SVGID_5_)" d="M249.18,278.547h68.25c0.75,0,1.82,0.781,1.82,1.777l-0.32,30.472c0,1.5-0.504,2.125-1.504,2.125
		l-68.246,0.125c-0.75,0-1.5-0.957-1.5-1.953v-31.046c0-0.75,0.789-1.5,1.789-1.5H249.18z"/>
	
		<linearGradient id="SVGID_6_" gradientUnits="userSpaceOnUse" x1="288.2231" y1="194.3037" x2="202.2236" y2="194.3037" gradientTransform="matrix(0.75 0 0 -0.75 99.5546 313.4689)">
		<stop  offset="0" style="stop-color:#A1857B"/>
		<stop  offset="0.15" style="stop-color:#DCC4BC"/>
		<stop  offset="0.25" style="stop-color:#DEC9C1"/>
		<stop  offset="0.52" style="stop-color:#B5968B"/>
		<stop  offset="0.69" style="stop-color:#A1857B"/>
		<stop  offset="0.8" style="stop-color:#987D74"/>
		<stop  offset="0.92" style="stop-color:#8F766D"/>
	</linearGradient>
	<path fill="url(#SVGID_6_)" d="M252.723,162.492h61.5c0.75,0,1.484,1.074,1.484,2.398l0.016,5.852c0,1.5-0.75,2.246-1.656,2.246
		l-61.343,0.004c-0.75,0-1.5-1.078-1.5-2.402v-5.848c0-1.5,0.734-2.25,1.641-2.25H252.723z"/>
	
		<linearGradient id="SVGID_7_" gradientUnits="userSpaceOnUse" x1="287.2222" y1="198.8057" x2="202.2231" y2="198.8057" gradientTransform="matrix(0.75 0 0 -0.75 99.7811 487.1388)">
		<stop  offset="0" style="stop-color:#A1857B"/>
		<stop  offset="0.15" style="stop-color:#DCC4BC"/>
		<stop  offset="0.25" style="stop-color:#DEC9C1"/>
		<stop  offset="0.52" style="stop-color:#B5968B"/>
		<stop  offset="0.69" style="stop-color:#A1857B"/>
		<stop  offset="0.8" style="stop-color:#987D74"/>
		<stop  offset="0.92" style="stop-color:#8F766D"/>
	</linearGradient>
	<path fill="url(#SVGID_7_)" d="M251.449,336.16h63.75v3.75h-63.75V336.16z"/>
	
		<linearGradient id="SVGID_8_" gradientUnits="userSpaceOnUse" x1="287.2222" y1="198.8066" x2="202.2231" y2="198.8066" gradientTransform="matrix(0.75 0 0 -0.75 99.7811 566.9982)">
		<stop  offset="0" style="stop-color:#A1857B"/>
		<stop  offset="0.15" style="stop-color:#DCC4BC"/>
		<stop  offset="0.25" style="stop-color:#DEC9C1"/>
		<stop  offset="0.52" style="stop-color:#B5968B"/>
		<stop  offset="0.69" style="stop-color:#A1857B"/>
		<stop  offset="0.8" style="stop-color:#987D74"/>
		<stop  offset="0.92" style="stop-color:#8F766D"/>
	</linearGradient>
	<path fill="url(#SVGID_8_)" d="M251.449,416.019h63.75v3.75h-63.75V416.019z"/>
	
		<linearGradient id="SVGID_9_" gradientUnits="userSpaceOnUse" x1="287.2222" y1="198.8027" x2="202.2231" y2="198.8027" gradientTransform="matrix(0.75 0 0 -0.75 99.7811 589.8478)">
		<stop  offset="0" style="stop-color:#A1857B"/>
		<stop  offset="0.15" style="stop-color:#DCC4BC"/>
		<stop  offset="0.25" style="stop-color:#DEC9C1"/>
		<stop  offset="0.52" style="stop-color:#B5968B"/>
		<stop  offset="0.69" style="stop-color:#A1857B"/>
		<stop  offset="0.8" style="stop-color:#987D74"/>
		<stop  offset="0.92" style="stop-color:#8F766D"/>
	</linearGradient>
	<path fill="url(#SVGID_9_)" d="M251.449,438.871h63.75v3.75h-63.75V438.871z"/>
	
		<linearGradient id="SVGID_10_" gradientUnits="userSpaceOnUse" x1="287.2222" y1="198.8018" x2="202.2231" y2="198.8018" gradientTransform="matrix(0.75 0 0 -0.75 99.7811 364.5031)">
		<stop  offset="0" style="stop-color:#A1857B"/>
		<stop  offset="0.15" style="stop-color:#DCC4BC"/>
		<stop  offset="0.25" style="stop-color:#DEC9C1"/>
		<stop  offset="0.52" style="stop-color:#B5968B"/>
		<stop  offset="0.69" style="stop-color:#A1857B"/>
		<stop  offset="0.8" style="stop-color:#987D74"/>
		<stop  offset="0.92" style="stop-color:#8F766D"/>
	</linearGradient>
	<path fill="url(#SVGID_10_)" d="M251.449,213.527h63.75v3.75h-63.75V213.527z"/>
	
		<linearGradient id="SVGID_11_" gradientUnits="userSpaceOnUse" x1="297.4146" y1="195.8047" x2="202.2231" y2="195.8047" gradientTransform="matrix(0.75 0 0 -0.75 96.098 697.5626)">
		<stop  offset="0" style="stop-color:#B4A59F"/>
		<stop  offset="0.15" style="stop-color:#EDDFDA"/>
		<stop  offset="0.25" style="stop-color:#EEE2DD"/>
		<stop  offset="0.52" style="stop-color:#CAB9B3"/>
		<stop  offset="0.69" style="stop-color:#B4A59F"/>
		<stop  offset="0.8" style="stop-color:#AA9B96"/>
		<stop  offset="0.92" style="stop-color:#A0938E"/>
	</linearGradient>
	<path fill="url(#SVGID_11_)" d="M249.266,546.585h68.25c0.75,0,1.645,0.805,1.645,1.801l-0.145,4.199
		c0,0.75-0.664,1.887-1.668,1.887l-68.082,0.363c-0.75,0-1.5-1.168-1.5-2.164v-4.586c0-0.75,0.813-1.5,1.816-1.5H249.266z"/>
	
		<linearGradient id="SVGID_12_" gradientUnits="userSpaceOnUse" x1="287.2222" y1="198.8027" x2="202.2231" y2="198.8027" gradientTransform="matrix(0.75 0 0 -0.75 99.7811 692.5743)">
		<stop  offset="0" style="stop-color:#A1857B"/>
		<stop  offset="0.15" style="stop-color:#DCC4BC"/>
		<stop  offset="0.25" style="stop-color:#DEC9C1"/>
		<stop  offset="0.52" style="stop-color:#B5968B"/>
		<stop  offset="0.69" style="stop-color:#A1857B"/>
		<stop  offset="0.8" style="stop-color:#987D74"/>
		<stop  offset="0.92" style="stop-color:#8F766D"/>
	</linearGradient>
	<path fill="url(#SVGID_12_)" d="M251.449,541.597h63.75v3.75h-63.75V541.597z"/>
	
		<linearGradient id="SVGID_13_" gradientUnits="userSpaceOnUse" x1="287.2251" y1="196.3057" x2="202.2261" y2="196.3057" gradientTransform="matrix(0.75 0 0 -0.75 99.6581 251.0216)">
		<stop  offset="0" style="stop-color:#A1857B"/>
		<stop  offset="0.15" style="stop-color:#DCC4BC"/>
		<stop  offset="0.25" style="stop-color:#DEC9C1"/>
		<stop  offset="0.52" style="stop-color:#B5968B"/>
		<stop  offset="0.69" style="stop-color:#A1857B"/>
		<stop  offset="0.8" style="stop-color:#987D74"/>
		<stop  offset="0.92" style="stop-color:#8F766D"/>
	</linearGradient>
	<path fill="url(#SVGID_13_)" d="M251.328,100.043h63.75v7.5h-63.75V100.043z"/>
	
		<linearGradient id="SVGID_14_" gradientUnits="userSpaceOnUse" x1="334.2241" y1="196.7969" x2="202.2251" y2="196.7969" gradientTransform="matrix(0.75 0 0 -0.75 82.2953 257.5919)">
		<stop  offset="0" style="stop-color:#B4A59F"/>
		<stop  offset="0.15" style="stop-color:#EDDFDA"/>
		<stop  offset="0.25" style="stop-color:#EEE2DD"/>
		<stop  offset="0.52" style="stop-color:#CAB9B3"/>
		<stop  offset="0.69" style="stop-color:#B4A59F"/>
		<stop  offset="0.8" style="stop-color:#AA9B96"/>
		<stop  offset="0.92" style="stop-color:#A0938E"/>
	</linearGradient>
	<path fill="url(#SVGID_14_)" d="M235.465,106.613h96c0.75,0,1.5,0.809,1.5,1.805v3.445c0,0.75-0.813,1.512-1.809,1.512
		l-95.691-0.012c-0.75,0-1.5-0.793-1.5-1.789v-3.461c0-0.75,0.809-1.5,1.809-1.5H235.465z"/>
	
		<linearGradient id="SVGID_15_" gradientUnits="userSpaceOnUse" x1="287.2222" y1="167.3047" x2="202.2222" y2="167.3047" gradientTransform="matrix(0.75 0 0 -0.75 99.809 263.7911)">
		<stop  offset="0" style="stop-color:#B4A59F"/>
		<stop  offset="0.15" style="stop-color:#EDDFDA"/>
		<stop  offset="0.25" style="stop-color:#EEE2DD"/>
		<stop  offset="0.52" style="stop-color:#CAB9B3"/>
		<stop  offset="0.69" style="stop-color:#B4A59F"/>
		<stop  offset="0.8" style="stop-color:#AA9B96"/>
		<stop  offset="0.92" style="stop-color:#A0938E"/>
	</linearGradient>
	<path fill="url(#SVGID_15_)" d="M251.477,112.813h63.75v51h-63.75V112.813z"/>
	
		<linearGradient id="SVGID_16_" gradientUnits="userSpaceOnUse" x1="221.2261" y1="167.8047" x2="202.2261" y2="167.8047" gradientTransform="matrix(0.75 0 0 -0.75 89.5643 264.0021)">
		<stop  offset="0" style="stop-color:#B4A59F"/>
		<stop  offset="0.52" style="stop-color:#CAB9B3"/>
		<stop  offset="0.69" style="stop-color:#B4A59F"/>
		<stop  offset="0.8" style="stop-color:#AA9B96"/>
		<stop  offset="0.92" style="stop-color:#A0938E"/>
	</linearGradient>
	<path fill="url(#SVGID_16_)" d="M241.234,113.023c0,0,7.145,3.547,10.164,11.063l0.336,39.188h3.75v-50.25H241.234z"/>
	
		<linearGradient id="SVGID_17_" gradientUnits="userSpaceOnUse" x1="184.707" y1="167.8047" x2="165.707" y2="167.8047" gradientTransform="matrix(-0.75 0 0 -0.75 451.5919 263.7911)">
		<stop  offset="0" style="stop-color:#B7ADA9"/>
		<stop  offset="0.52" style="stop-color:#CEC2BE"/>
		<stop  offset="0.69" style="stop-color:#B7ADA9"/>
		<stop  offset="0.8" style="stop-color:#ADA39F"/>
		<stop  offset="0.92" style="stop-color:#A39A96"/>
	</linearGradient>
	<path fill="url(#SVGID_17_)" d="M327.312,112.813c0,0-7.145,3.547-10.164,11.059l-0.336,39.191h-3.75v-50.25H327.312z"/>
	<path fill="#D3C1BD" d="M269.926,113.563c0,0,0.57,1.355,1.938,10.309l0.313,39.191h2.25v-50.25L269.926,113.563z"/>
	<path fill="#A59792" d="M269.773,112.813c0,0,1.781,1.805,2.09,11.059l0.16,39.191h-1.5v-39c0,0-0.176-7.793-3.008-11.25H269.773z"
		/>
	<path fill="#A59792" d="M301.847,113.563c0,0-0.57,1.355-1.934,10.309l-0.316,39.191h-2.25v-50.25L301.847,113.563z"/>
	<path fill="#D3C1BD" d="M302,112.813c0,0-1.781,1.805-2.086,11.059l-0.164,39.191h1.5v-39c0,0,0.176-7.793,3.012-11.25H302z"/>
	
		<linearGradient id="SVGID_18_" gradientUnits="userSpaceOnUse" x1="297.4146" y1="195.8037" x2="202.2231" y2="195.8037" gradientTransform="matrix(0.75 0 0 -0.75 96.098 313.4689)">
		<stop  offset="0" style="stop-color:#B4A59F"/>
		<stop  offset="0.15" style="stop-color:#EDDFDA"/>
		<stop  offset="0.25" style="stop-color:#EEE2DD"/>
		<stop  offset="0.52" style="stop-color:#CAB9B3"/>
		<stop  offset="0.69" style="stop-color:#B4A59F"/>
		<stop  offset="0.8" style="stop-color:#AA9B96"/>
		<stop  offset="0.92" style="stop-color:#A0938E"/>
	</linearGradient>
	<path fill="url(#SVGID_18_)" d="M249.266,162.492h68.25c0.75,0,1.645,0.809,1.645,1.805l-0.145,4.195
		c0,0.75-0.664,1.891-1.668,1.891l-68.082,0.359c-0.75,0-1.5-1.168-1.5-2.164v-4.586c0-0.75,0.813-1.5,1.816-1.5H249.266z"/>
	
		<linearGradient id="SVGID_19_" gradientUnits="userSpaceOnUse" x1="281.2266" y1="197.8047" x2="202.2275" y2="197.8047" gradientTransform="matrix(0.75 0 0 -0.75 102.1068 169.9816)">
		<stop  offset="0" style="stop-color:#A1857B"/>
		<stop  offset="0.15" style="stop-color:#DCC4BC"/>
		<stop  offset="0.25" style="stop-color:#DEC9C1"/>
		<stop  offset="0.52" style="stop-color:#B5968B"/>
		<stop  offset="0.69" style="stop-color:#A1857B"/>
		<stop  offset="0.8" style="stop-color:#987D74"/>
		<stop  offset="0.92" style="stop-color:#8F766D"/>
	</linearGradient>
	<path fill="url(#SVGID_19_)" d="M253.777,19.004h59.25v5.25h-59.25V19.004z"/>
	
		<linearGradient id="SVGID_20_" gradientUnits="userSpaceOnUse" x1="297.4146" y1="195.8018" x2="202.2231" y2="195.8017" gradientTransform="matrix(0.75 0 0 -0.75 96.098 163.2452)">
		<stop  offset="0" style="stop-color:#B4A59F"/>
		<stop  offset="0.15" style="stop-color:#EDDFDA"/>
		<stop  offset="0.25" style="stop-color:#EEE2DD"/>
		<stop  offset="0.52" style="stop-color:#CAB9B3"/>
		<stop  offset="0.69" style="stop-color:#B4A59F"/>
		<stop  offset="0.8" style="stop-color:#AA9B96"/>
		<stop  offset="0.92" style="stop-color:#A0938E"/>
	</linearGradient>
	<path fill="url(#SVGID_20_)" d="M249.266,12.27h68.25c0.75,0,1.645,0.805,1.645,1.801l-0.145,4.199c0,0.75-0.664,1.887-1.668,1.887
		l-68.082,0.363c-0.75,0-1.5-1.168-1.5-2.164V13.77c0-0.75,0.813-1.5,1.816-1.5H249.266z"/>
</g>
</svg>
