<?xml version="1.0" encoding="utf-8"?>
<!-- Generator: Adobe Illustrator 16.0.0, SVG Export Plug-In . SVG Version: 6.00 Build 0)  -->
<!DOCTYPE svg PUBLIC "-//W3C//DTD SVG 1.1//EN" "http://www.w3.org/Graphics/SVG/1.1/DTD/svg11.dtd">
<svg preserveAspectRatio="none"   version="1.1" id="图层_1" xmlns="http://www.w3.org/2000/svg" xmlns:xlink="http://www.w3.org/1999/xlink" x="0px" y="0px"
	 width="120.101px" height="558.257px" viewBox="223.465 4.336 120.101 558.257"
	 enable-background="new 223.465 4.336 120.101 558.257" xml:space="preserve">
<g id="surface296">
	
		<linearGradient id="SVGID_1_" gradientUnits="userSpaceOnUse" x1="362.2241" y1="-170.8696" x2="202.2251" y2="-170.8696" gradientTransform="matrix(0.75 0 0 -0.75 71.7953 155.3116)">
		<stop  offset="0" style="stop-color:#5288AF"/>
		<stop  offset="0.15" style="stop-color:#7DB8E7"/>
		<stop  offset="0.25" style="stop-color:#A1C7EB"/>
		<stop  offset="0.44" style="stop-color:#5E9BC8"/>
		<stop  offset="0.6" style="stop-color:#538AB2"/>
		<stop  offset="0.8" style="stop-color:#457496"/>
		<stop  offset="0.97" style="stop-color:#3F6989"/>
		<stop  offset="1" style="stop-color:#558DB6"/>
	</linearGradient>
	<path fill="url(#SVGID_1_)" d="M223.465,37.336c0,0,0-33,59.453-33c59.796,0,60.546,32.711,60.546,32.711v493.039
		c0,0-1.859,32.508-60.238,32.508c-58.262-0.258-59.762-32.32-59.762-32.32V37.336z"/>
	
		<linearGradient id="SVGID_2_" gradientUnits="userSpaceOnUse" x1="362.2222" y1="198.8027" x2="202.2231" y2="198.8027" gradientTransform="matrix(0.75 0 0 -0.75 71.8988 675.1241)">
		<stop  offset="0" style="stop-color:#3475A8"/>
		<stop  offset="0.15" style="stop-color:#61A2DE"/>
		<stop  offset="0.25" style="stop-color:#7FADE1"/>
		<stop  offset="0.44" style="stop-color:#3D86C0"/>
		<stop  offset="0.6" style="stop-color:#3577AB"/>
		<stop  offset="0.8" style="stop-color:#2B6390"/>
		<stop  offset="0.97" style="stop-color:#275A84"/>
		<stop  offset="1" style="stop-color:#377AAF"/>
	</linearGradient>
	<path fill="url(#SVGID_2_)" d="M223.566,524.148h120v3.75h-120V524.148z"/>
	
		<linearGradient id="SVGID_3_" gradientUnits="userSpaceOnUse" x1="362.2222" y1="198.8057" x2="202.2231" y2="198.8056" gradientTransform="matrix(0.75 0 0 -0.75 71.8988 188.1857)">
		<stop  offset="0" style="stop-color:#3475A8"/>
		<stop  offset="0.15" style="stop-color:#61A2DE"/>
		<stop  offset="0.25" style="stop-color:#7FADE1"/>
		<stop  offset="0.44" style="stop-color:#3D86C0"/>
		<stop  offset="0.6" style="stop-color:#3577AB"/>
		<stop  offset="0.8" style="stop-color:#2B6390"/>
		<stop  offset="0.97" style="stop-color:#275A84"/>
		<stop  offset="1" style="stop-color:#377AAF"/>
	</linearGradient>
	<path fill="url(#SVGID_3_)" d="M223.566,37.207h120v3.75h-120V37.207z"/>
	<path fill="#467597" d="M258.945,58.594c0,0,27.203-7.367,43.14,0.031l18.359,15.719l10.5,200.25l-8.25,219.75l-11.25,18
		l-13.5-3.75c0,0-15.992,8.852-25.218,11.316c-9.281,2.184-14.258-2.465-14.258-2.465l-16.773-14.102l-7.5-135.75l3-285
		L258.945,58.594z"/>
	
		<linearGradient id="SVGID_4_" gradientUnits="userSpaceOnUse" x1="215.7173" y1="199.604" x2="201.0057" y2="191.1103" gradientTransform="matrix(0.75 0 0 -0.75 112.0946 232.9337)">
		<stop  offset="0" style="stop-color:#555454"/>
		<stop  offset="0.15" style="stop-color:#807F7F"/>
		<stop  offset="0.25" style="stop-color:#9F9F9F"/>
		<stop  offset="0.44" style="stop-color:#626161"/>
		<stop  offset="0.6" style="stop-color:#565656"/>
		<stop  offset="0.8" style="stop-color:#484747"/>
		<stop  offset="0.97" style="stop-color:#414040"/>
		<stop  offset="1" style="stop-color:#595858"/>
	</linearGradient>
	<path fill="url(#SVGID_4_)" d="M263.762,86.457c0-2.25,2.012-4.645,4.605-4.645c2.895,0.145,4.695,2.063,4.695,4.605
		c-0.301,2.289-2.102,4.605-4.695,4.605c-2.355-0.066-4.699-2.063-4.699-4.605L263.762,86.457z"/>
	
		<linearGradient id="SVGID_5_" gradientUnits="userSpaceOnUse" x1="213.8843" y1="199.7588" x2="201.2701" y2="192.476" gradientTransform="matrix(0.75 0 0 -0.75 105.8036 254.3634)">
		<stop  offset="0" style="stop-color:#555454"/>
		<stop  offset="0.15" style="stop-color:#807F7F"/>
		<stop  offset="0.25" style="stop-color:#9F9F9F"/>
		<stop  offset="0.44" style="stop-color:#626161"/>
		<stop  offset="0.6" style="stop-color:#565656"/>
		<stop  offset="0.8" style="stop-color:#484747"/>
		<stop  offset="0.97" style="stop-color:#414040"/>
		<stop  offset="1" style="stop-color:#595858"/>
	</linearGradient>
	<path fill="url(#SVGID_5_)" d="M257.473,107.137c0-2.25,1.793-3.781,4.016-3.781c1.984,0.031,4.027,1.766,4.027,3.945
		c0.207,2.086-1.805,3.949-4.027,3.949c-2.516-0.363-4.016-1.77-4.016-3.949V107.137z"/>
	
		<linearGradient id="SVGID_6_" gradientUnits="userSpaceOnUse" x1="216.6763" y1="199.3457" x2="200.914" y2="190.2453" gradientTransform="matrix(0.75 0 0 -0.75 106.9042 278.7238)">
		<stop  offset="0" style="stop-color:#555454"/>
		<stop  offset="0.15" style="stop-color:#807F7F"/>
		<stop  offset="0.25" style="stop-color:#9F9F9F"/>
		<stop  offset="0.44" style="stop-color:#626161"/>
		<stop  offset="0.6" style="stop-color:#565656"/>
		<stop  offset="0.8" style="stop-color:#484747"/>
		<stop  offset="0.97" style="stop-color:#414040"/>
		<stop  offset="1" style="stop-color:#595858"/>
	</linearGradient>
	<path fill="url(#SVGID_6_)" d="M258.574,132.996c0-3,2.148-5.301,4.926-5.301c2.574,0.051,5.035,2.207,5.035,4.934
		c-0.211,2.617-2.254,4.934-5.035,4.934c-2.676-0.066-5.031-2.211-5.031-4.934L258.574,132.996z"/>
	
		<linearGradient id="SVGID_7_" gradientUnits="userSpaceOnUse" x1="213.8779" y1="199.8018" x2="201.2729" y2="192.5243" gradientTransform="matrix(0.75 0 0 -0.75 110.6791 310.4825)">
		<stop  offset="0" style="stop-color:#555454"/>
		<stop  offset="0.15" style="stop-color:#807F7F"/>
		<stop  offset="0.25" style="stop-color:#9F9F9F"/>
		<stop  offset="0.44" style="stop-color:#626161"/>
		<stop  offset="0.6" style="stop-color:#565656"/>
		<stop  offset="0.8" style="stop-color:#484747"/>
		<stop  offset="0.97" style="stop-color:#414040"/>
		<stop  offset="1" style="stop-color:#595858"/>
	</linearGradient>
	<path fill="url(#SVGID_7_)" d="M262.348,163.254c0-2.25,1.781-3.82,4.004-3.82c1.996,0.07,4.027,1.766,4.027,3.945
		c0.219,2.125-1.801,3.949-4.027,3.949c-2.504-0.324-4.004-1.77-4.004-3.949V163.254z"/>
	
		<linearGradient id="SVGID_8_" gradientUnits="userSpaceOnUse" x1="218.6558" y1="199.1763" x2="200.7898" y2="188.8614" gradientTransform="matrix(0.75 0 0 -0.75 90.0765 320.1954)">
		<stop  offset="0" style="stop-color:#555454"/>
		<stop  offset="0.15" style="stop-color:#807F7F"/>
		<stop  offset="0.25" style="stop-color:#9F9F9F"/>
		<stop  offset="0.44" style="stop-color:#626161"/>
		<stop  offset="0.6" style="stop-color:#565656"/>
		<stop  offset="0.8" style="stop-color:#484747"/>
		<stop  offset="0.97" style="stop-color:#414040"/>
		<stop  offset="1" style="stop-color:#595858"/>
	</linearGradient>
	<path fill="url(#SVGID_8_)" d="M241.746,174.469c0-3,2.5-5.332,5.652-5.332c3.348,0.082,5.703,2.504,5.703,5.59
		c-0.105,2.742-2.555,5.594-5.703,5.594c-3.402,0.148-5.703-2.504-5.703-5.594L241.746,174.469z"/>
	
		<linearGradient id="SVGID_9_" gradientUnits="userSpaceOnUse" x1="213.8276" y1="199.7671" x2="201.1945" y2="192.4734" gradientTransform="matrix(0.75 0 0 -0.75 145.2802 269.0099)">
		<stop  offset="0" style="stop-color:#555454"/>
		<stop  offset="0.15" style="stop-color:#807F7F"/>
		<stop  offset="0.25" style="stop-color:#9F9F9F"/>
		<stop  offset="0.44" style="stop-color:#626161"/>
		<stop  offset="0.6" style="stop-color:#565656"/>
		<stop  offset="0.8" style="stop-color:#484747"/>
		<stop  offset="0.97" style="stop-color:#414040"/>
		<stop  offset="1" style="stop-color:#595858"/>
	</linearGradient>
	<path fill="url(#SVGID_9_)" d="M296.949,121.781c0-2.25,1.738-3.789,3.965-3.789c2.035,0.039,4.023,1.766,4.023,3.945
		c0.262,2.094-1.801,3.949-4.023,3.949c-2.465-0.355-4.027-1.77-4.027-3.949L296.949,121.781z"/>
	
		<linearGradient id="SVGID_10_" gradientUnits="userSpaceOnUse" x1="215.791" y1="199.5669" x2="201.0795" y2="191.0732" gradientTransform="matrix(0.75 0 0 -0.75 130.6527 245.8839)">
		<stop  offset="0" style="stop-color:#555454"/>
		<stop  offset="0.15" style="stop-color:#807F7F"/>
		<stop  offset="0.25" style="stop-color:#9F9F9F"/>
		<stop  offset="0.44" style="stop-color:#626161"/>
		<stop  offset="0.6" style="stop-color:#565656"/>
		<stop  offset="0.8" style="stop-color:#484747"/>
		<stop  offset="0.97" style="stop-color:#414040"/>
		<stop  offset="1" style="stop-color:#595858"/>
	</linearGradient>
	<path fill="url(#SVGID_10_)" d="M282.32,99.406c0-2.25,2.074-4.602,4.667-4.602c2.832,0.102,4.695,2.059,4.695,4.602
		c-0.363,2.25-2.102,4.605-4.695,4.605c-2.418-0.105-4.699-2.059-4.699-4.605H282.32z"/>
	
		<linearGradient id="SVGID_11_" gradientUnits="userSpaceOnUse" x1="220.7549" y1="198.7632" x2="200.6264" y2="187.142" gradientTransform="matrix(0.75 0 0 -0.75 134.6469 322.8165)">
		<stop  offset="0" style="stop-color:#555454"/>
		<stop  offset="0.15" style="stop-color:#807F7F"/>
		<stop  offset="0.25" style="stop-color:#9F9F9F"/>
		<stop  offset="0.44" style="stop-color:#626161"/>
		<stop  offset="0.6" style="stop-color:#565656"/>
		<stop  offset="0.8" style="stop-color:#484747"/>
		<stop  offset="0.97" style="stop-color:#414040"/>
		<stop  offset="1" style="stop-color:#595858"/>
	</linearGradient>
	<path fill="url(#SVGID_11_)" d="M286.316,177.84c0-3,2.789-6.063,6.34-6.063c3.41,0.063,6.422,2.82,6.422,6.301
		c-0.012,3.512-2.875,6.297-6.422,6.297c-3.34,0.215-6.426-2.82-6.426-6.297L286.316,177.84z"/>
	
		<linearGradient id="SVGID_12_" gradientUnits="userSpaceOnUse" x1="219.0234" y1="198.9946" x2="200.8145" y2="188.4817" gradientTransform="matrix(0.75 0 0 -0.75 88.9969 360.7423)">
		<stop  offset="0" style="stop-color:#555454"/>
		<stop  offset="0.15" style="stop-color:#807F7F"/>
		<stop  offset="0.25" style="stop-color:#9F9F9F"/>
		<stop  offset="0.44" style="stop-color:#626161"/>
		<stop  offset="0.6" style="stop-color:#565656"/>
		<stop  offset="0.8" style="stop-color:#484747"/>
		<stop  offset="0.97" style="stop-color:#414040"/>
		<stop  offset="1" style="stop-color:#595858"/>
	</linearGradient>
	<path fill="url(#SVGID_12_)" d="M240.668,215.766c0-3.75,2.57-6,5.781-6c3.219,0,5.816,2.543,5.816,5.691
		c-0.348,3.309-2.605,5.699-5.816,5.699c-3.531-0.141-5.816-2.551-5.816-5.699L240.668,215.766z"/>
	
		<linearGradient id="SVGID_13_" gradientUnits="userSpaceOnUse" x1="218.7095" y1="199.0537" x2="200.8451" y2="188.7397" gradientTransform="matrix(0.75 0 0 -0.75 127.9799 389.8829)">
		<stop  offset="0" style="stop-color:#555454"/>
		<stop  offset="0.15" style="stop-color:#807F7F"/>
		<stop  offset="0.25" style="stop-color:#9F9F9F"/>
		<stop  offset="0.44" style="stop-color:#626161"/>
		<stop  offset="0.6" style="stop-color:#565656"/>
		<stop  offset="0.8" style="stop-color:#484747"/>
		<stop  offset="0.97" style="stop-color:#414040"/>
		<stop  offset="1" style="stop-color:#595858"/>
	</linearGradient>
	<path fill="url(#SVGID_13_)" d="M279.648,244.156c0-3,2.512-5.293,5.664-5.293c3.336,0.043,5.703,2.504,5.703,5.59
		c-0.117,3.453-2.555,5.594-5.703,5.594c-3.414,0.109-5.707-2.504-5.707-5.594L279.648,244.156z"/>
	
		<linearGradient id="SVGID_14_" gradientUnits="userSpaceOnUse" x1="219.6328" y1="198.855" x2="200.7251" y2="187.9386" gradientTransform="matrix(0.75 0 0 -0.75 117.285 414.8575)">
		<stop  offset="0" style="stop-color:#555454"/>
		<stop  offset="0.15" style="stop-color:#807F7F"/>
		<stop  offset="0.25" style="stop-color:#9F9F9F"/>
		<stop  offset="0.44" style="stop-color:#626161"/>
		<stop  offset="0.6" style="stop-color:#565656"/>
		<stop  offset="0.8" style="stop-color:#484747"/>
		<stop  offset="0.97" style="stop-color:#414040"/>
		<stop  offset="1" style="stop-color:#595858"/>
	</linearGradient>
	<path fill="url(#SVGID_14_)" d="M268.953,269.879c0-3,2.621-6,5.957-6c3.043,0,6.039,2.633,6.039,5.902
		c0.004,3.098-2.703,5.918-6.039,5.918c-3.707,0.18-6.039-2.648-6.039-5.918L268.953,269.879z"/>
	
		<linearGradient id="SVGID_15_" gradientUnits="userSpaceOnUse" x1="216.7803" y1="199.3345" x2="201.0377" y2="190.2455" gradientTransform="matrix(0.75 0 0 -0.75 103.1293 451.7042)">
		<stop  offset="0" style="stop-color:#555454"/>
		<stop  offset="0.15" style="stop-color:#807F7F"/>
		<stop  offset="0.25" style="stop-color:#9F9F9F"/>
		<stop  offset="0.44" style="stop-color:#626161"/>
		<stop  offset="0.6" style="stop-color:#565656"/>
		<stop  offset="0.8" style="stop-color:#484747"/>
		<stop  offset="0.97" style="stop-color:#414040"/>
		<stop  offset="1" style="stop-color:#595858"/>
	</linearGradient>
	<path fill="url(#SVGID_15_)" d="M254.797,305.976c0-3,2.234-5.281,5.012-5.281c2.488,0.031,5.035,2.211,5.035,4.934
		c-0.297,2.598-2.254,4.934-5.035,4.934c-2.762-0.086-5.012-2.207-5.012-4.934V305.976z"/>
	
		<linearGradient id="SVGID_16_" gradientUnits="userSpaceOnUse" x1="212.8052" y1="199.8901" x2="201.2121" y2="193.1968" gradientTransform="matrix(0.75 0 0 -0.75 104.5458 382.6368)">
		<stop  offset="0" style="stop-color:#555454"/>
		<stop  offset="0.15" style="stop-color:#807F7F"/>
		<stop  offset="0.25" style="stop-color:#9F9F9F"/>
		<stop  offset="0.44" style="stop-color:#626161"/>
		<stop  offset="0.6" style="stop-color:#565656"/>
		<stop  offset="0.8" style="stop-color:#484747"/>
		<stop  offset="0.97" style="stop-color:#414040"/>
		<stop  offset="1" style="stop-color:#595858"/>
	</linearGradient>
	<path fill="url(#SVGID_16_)" d="M256.215,235.41c0-2.25,1.559-3.781,3.598-3.781c2.402,0.031,3.691,1.617,3.691,3.617
		c0.211,1.664-1.652,3.617-3.691,3.617c-2.098,0.297-3.691-1.621-3.691-3.617L256.215,235.41z"/>
	
		<linearGradient id="SVGID_17_" gradientUnits="userSpaceOnUse" x1="211.8252" y1="199.9897" x2="201.2941" y2="193.9096" gradientTransform="matrix(0.75 0 0 -0.75 136.7865 364.9064)">
		<stop  offset="0" style="stop-color:#555454"/>
		<stop  offset="0.15" style="stop-color:#807F7F"/>
		<stop  offset="0.25" style="stop-color:#9F9F9F"/>
		<stop  offset="0.44" style="stop-color:#626161"/>
		<stop  offset="0.6" style="stop-color:#565656"/>
		<stop  offset="0.8" style="stop-color:#484747"/>
		<stop  offset="0.97" style="stop-color:#414040"/>
		<stop  offset="1" style="stop-color:#595858"/>
	</linearGradient>
	<path fill="url(#SVGID_17_)" d="M288.457,216.93c0-1.5,1.375-3.063,3.227-3.063c2.023,0.063,3.355,1.473,3.355,3.289
		c0.168,2.023-1.5,3.289-3.355,3.289c-1.727,0.234-3.355-1.473-3.355-3.289L288.457,216.93z"/>
	
		<linearGradient id="SVGID_18_" gradientUnits="userSpaceOnUse" x1="215.6519" y1="199.4722" x2="200.9401" y2="190.9783" gradientTransform="matrix(0.75 0 0 -0.75 93.8514 412.2355)">
		<stop  offset="0" style="stop-color:#555454"/>
		<stop  offset="0.15" style="stop-color:#807F7F"/>
		<stop  offset="0.25" style="stop-color:#9F9F9F"/>
		<stop  offset="0.44" style="stop-color:#626161"/>
		<stop  offset="0.6" style="stop-color:#565656"/>
		<stop  offset="0.8" style="stop-color:#484747"/>
		<stop  offset="0.97" style="stop-color:#414040"/>
		<stop  offset="1" style="stop-color:#595858"/>
	</linearGradient>
	<path fill="url(#SVGID_18_)" d="M245.52,265.758c0-2.25,1.969-4.531,4.563-4.531c2.938,0.031,4.695,2.063,4.695,4.605
		c-0.258,2.176-2.102,4.605-4.695,4.605c-2.313-0.18-4.699-2.063-4.699-4.605L245.52,265.758z"/>
	
		<linearGradient id="SVGID_19_" gradientUnits="userSpaceOnUse" x1="215.7969" y1="199.4868" x2="201.106" y2="191.0051" gradientTransform="matrix(0.75 0 0 -0.75 123.2611 461.5704)">
		<stop  offset="0" style="stop-color:#555454"/>
		<stop  offset="0.15" style="stop-color:#807F7F"/>
		<stop  offset="0.25" style="stop-color:#9F9F9F"/>
		<stop  offset="0.44" style="stop-color:#626161"/>
		<stop  offset="0.6" style="stop-color:#565656"/>
		<stop  offset="0.8" style="stop-color:#484747"/>
		<stop  offset="0.97" style="stop-color:#414040"/>
		<stop  offset="1" style="stop-color:#595858"/>
	</linearGradient>
	<path fill="url(#SVGID_19_)" d="M274.93,315.093c0-2.25,2.082-4.531,4.676-4.531c2.824,0.031,4.699,2.063,4.699,4.605
		c-0.375,2.176-2.105,4.605-4.699,4.605c-2.426-0.18-4.676-2.063-4.676-4.605V315.093z"/>
	
		<linearGradient id="SVGID_20_" gradientUnits="userSpaceOnUse" x1="217.6099" y1="199.1724" x2="200.7993" y2="189.4668" gradientTransform="matrix(0.75 0 0 -0.75 144.1776 501.0411)">
		<stop  offset="0" style="stop-color:#555454"/>
		<stop  offset="0.15" style="stop-color:#807F7F"/>
		<stop  offset="0.25" style="stop-color:#9F9F9F"/>
		<stop  offset="0.44" style="stop-color:#626161"/>
		<stop  offset="0.6" style="stop-color:#565656"/>
		<stop  offset="0.8" style="stop-color:#484747"/>
		<stop  offset="0.97" style="stop-color:#414040"/>
		<stop  offset="1" style="stop-color:#595858"/>
	</linearGradient>
	<path fill="url(#SVGID_20_)" d="M295.847,355.312c0-3,2.266-5.277,5.23-5.277c3.02,0.027,5.367,2.355,5.367,5.262
		c-0.098,3.016-2.402,5.262-5.367,5.262c-2.98,0.004-5.367-2.355-5.367-5.262L295.847,355.312z"/>
	
		<linearGradient id="SVGID_21_" gradientUnits="userSpaceOnUse" x1="215.7661" y1="199.3774" x2="201.0664" y2="190.8905" gradientTransform="matrix(0.75 0 0 -0.75 87.246 520.9298)">
		<stop  offset="0" style="stop-color:#555454"/>
		<stop  offset="0.15" style="stop-color:#807F7F"/>
		<stop  offset="0.25" style="stop-color:#9F9F9F"/>
		<stop  offset="0.44" style="stop-color:#626161"/>
		<stop  offset="0.6" style="stop-color:#565656"/>
		<stop  offset="0.8" style="stop-color:#484747"/>
		<stop  offset="0.97" style="stop-color:#414040"/>
		<stop  offset="1" style="stop-color:#595858"/>
	</linearGradient>
	<path fill="url(#SVGID_21_)" d="M238.914,374.453c0-2.25,2.031-4.5,4.625-4.5c2.875,0,4.699,2.039,4.699,4.582
		c-0.324,2.918-2.105,4.605-4.699,4.605c-2.375-0.188-4.699-2.063-4.699-4.605L238.914,374.453z"/>
	
		<linearGradient id="SVGID_22_" gradientUnits="userSpaceOnUse" x1="214.9194" y1="199.4976" x2="201.256" y2="191.6089" gradientTransform="matrix(0.75 0 0 -0.75 115.868 543.13)">
		<stop  offset="0" style="stop-color:#555454"/>
		<stop  offset="0.15" style="stop-color:#807F7F"/>
		<stop  offset="0.25" style="stop-color:#9F9F9F"/>
		<stop  offset="0.44" style="stop-color:#626161"/>
		<stop  offset="0.6" style="stop-color:#565656"/>
		<stop  offset="0.8" style="stop-color:#484747"/>
		<stop  offset="0.97" style="stop-color:#414040"/>
		<stop  offset="1" style="stop-color:#595858"/>
	</linearGradient>
	<path fill="url(#SVGID_22_)" d="M267.535,396.652c0-2.25,1.945-4.5,4.352-4.5c2.398,0,4.363,1.895,4.363,4.254
		c0.285,2.496-1.953,4.277-4.363,4.277c-2.102-0.281-4.352-1.914-4.352-4.277V396.652z"/>
	
		<linearGradient id="SVGID_23_" gradientUnits="userSpaceOnUse" x1="212.8325" y1="199.9365" x2="201.2378" y2="193.2423" gradientTransform="matrix(0.75 0 0 -0.75 99.827 549.7599)">
		<stop  offset="0" style="stop-color:#555454"/>
		<stop  offset="0.15" style="stop-color:#807F7F"/>
		<stop  offset="0.25" style="stop-color:#9F9F9F"/>
		<stop  offset="0.44" style="stop-color:#626161"/>
		<stop  offset="0.6" style="stop-color:#565656"/>
		<stop  offset="0.8" style="stop-color:#484747"/>
		<stop  offset="0.97" style="stop-color:#414040"/>
		<stop  offset="1" style="stop-color:#595858"/>
	</linearGradient>
	<path fill="url(#SVGID_23_)" d="M251.496,402.531c0-2.25,1.578-3.82,3.617-3.82c2.383,0.07,3.691,1.617,3.691,3.617
		c0.191,1.703-1.652,3.617-3.691,3.617c-2.117,0.336-3.691-1.621-3.691-3.617L251.496,402.531z"/>
	
		<linearGradient id="SVGID_24_" gradientUnits="userSpaceOnUse" x1="211.9282" y1="200.042" x2="201.4002" y2="193.9637" gradientTransform="matrix(0.75 0 0 -0.75 127.9799 581.3663)">
		<stop  offset="0" style="stop-color:#555454"/>
		<stop  offset="0.15" style="stop-color:#807F7F"/>
		<stop  offset="0.25" style="stop-color:#9F9F9F"/>
		<stop  offset="0.44" style="stop-color:#626161"/>
		<stop  offset="0.6" style="stop-color:#565656"/>
		<stop  offset="0.8" style="stop-color:#484747"/>
		<stop  offset="0.97" style="stop-color:#414040"/>
		<stop  offset="1" style="stop-color:#595858"/>
	</linearGradient>
	<path fill="url(#SVGID_24_)" d="M279.648,433.39c0-1.5,1.461-3.105,3.313-3.105c1.937,0.105,3.355,1.473,3.355,3.289
		c0.082,2.066-1.5,3.289-3.355,3.289c-1.813,0.277-3.355-1.473-3.355-3.289L279.648,433.39z"/>
	
		<linearGradient id="SVGID_25_" gradientUnits="userSpaceOnUse" x1="216.7114" y1="199.3286" x2="200.9503" y2="190.2289" gradientTransform="matrix(0.75 0 0 -0.75 150.1552 579.9786)">
		<stop  offset="0" style="stop-color:#555454"/>
		<stop  offset="0.15" style="stop-color:#807F7F"/>
		<stop  offset="0.25" style="stop-color:#9F9F9F"/>
		<stop  offset="0.44" style="stop-color:#626161"/>
		<stop  offset="0.6" style="stop-color:#565656"/>
		<stop  offset="0.8" style="stop-color:#484747"/>
		<stop  offset="0.97" style="stop-color:#414040"/>
		<stop  offset="1" style="stop-color:#595858"/>
	</linearGradient>
	<path fill="url(#SVGID_25_)" d="M301.824,434.25c0-3,2.18-5.281,4.961-5.281c2.539,0.031,5.031,2.211,5.031,4.934
		c-0.242,2.598-2.254,4.934-5.031,4.934c-2.711-0.086-5.035-2.207-5.035-4.934L301.824,434.25z"/>
	
		<linearGradient id="SVGID_26_" gradientUnits="userSpaceOnUse" x1="214.7412" y1="199.5464" x2="201.0802" y2="191.6592" gradientTransform="matrix(0.75 0 0 -0.75 149.5262 599.713)">
		<stop  offset="0" style="stop-color:#555454"/>
		<stop  offset="0.15" style="stop-color:#807F7F"/>
		<stop  offset="0.25" style="stop-color:#9F9F9F"/>
		<stop  offset="0.44" style="stop-color:#626161"/>
		<stop  offset="0.6" style="stop-color:#565656"/>
		<stop  offset="0.8" style="stop-color:#484747"/>
		<stop  offset="0.97" style="stop-color:#414040"/>
		<stop  offset="1" style="stop-color:#595858"/>
	</linearGradient>
	<path fill="url(#SVGID_26_)" d="M301.195,453.234c0-2.25,1.836-4.531,4.246-4.531c2.504,0.031,4.363,1.918,4.363,4.277
		c-0.359,2.504-1.953,4.277-4.363,4.277c-2.746-0.273-4.363-1.914-4.363-4.277L301.195,453.234z"/>
	
		<linearGradient id="SVGID_27_" gradientUnits="userSpaceOnUse" x1="215.7905" y1="199.5698" x2="201.0788" y2="191.076" gradientTransform="matrix(0.75 0 0 -0.75 110.5219 601.0997)">
		<stop  offset="0" style="stop-color:#555454"/>
		<stop  offset="0.15" style="stop-color:#807F7F"/>
		<stop  offset="0.25" style="stop-color:#9F9F9F"/>
		<stop  offset="0.44" style="stop-color:#626161"/>
		<stop  offset="0.6" style="stop-color:#565656"/>
		<stop  offset="0.8" style="stop-color:#484747"/>
		<stop  offset="0.97" style="stop-color:#414040"/>
		<stop  offset="1" style="stop-color:#595858"/>
	</linearGradient>
	<path fill="url(#SVGID_27_)" d="M262.191,454.621c0-2.25,2.07-4.602,4.664-4.602c2.836,0.102,4.699,2.063,4.699,4.605
		c-0.363,2.246-2.102,4.602-4.699,4.602c-2.414-0.105-4.695-2.059-4.695-4.602L262.191,454.621z"/>
	
		<linearGradient id="SVGID_28_" gradientUnits="userSpaceOnUse" x1="215.6704" y1="199.5435" x2="200.9587" y2="191.0497" gradientTransform="matrix(0.75 0 0 -0.75 96.5248 613.5861)">
		<stop  offset="0" style="stop-color:#555454"/>
		<stop  offset="0.15" style="stop-color:#807F7F"/>
		<stop  offset="0.25" style="stop-color:#9F9F9F"/>
		<stop  offset="0.44" style="stop-color:#626161"/>
		<stop  offset="0.6" style="stop-color:#565656"/>
		<stop  offset="0.8" style="stop-color:#484747"/>
		<stop  offset="0.97" style="stop-color:#414040"/>
		<stop  offset="1" style="stop-color:#595858"/>
	</linearGradient>
	<path fill="url(#SVGID_28_)" d="M248.195,467.109c0-2.25,1.977-4.594,4.57-4.594c2.93,0.094,4.695,2.063,4.695,4.605
		c-0.266,2.238-2.102,4.605-4.695,4.605c-2.32-0.117-4.699-2.063-4.699-4.605L248.195,467.109z"/>
	
		<linearGradient id="SVGID_29_" gradientUnits="userSpaceOnUse" x1="213.7573" y1="199.8286" x2="201.113" y2="192.5284" gradientTransform="matrix(0.75 0 0 -0.75 113.9823 630.7013)">
		<stop  offset="0" style="stop-color:#555454"/>
		<stop  offset="0.15" style="stop-color:#807F7F"/>
		<stop  offset="0.25" style="stop-color:#9F9F9F"/>
		<stop  offset="0.44" style="stop-color:#626161"/>
		<stop  offset="0.6" style="stop-color:#565656"/>
		<stop  offset="0.8" style="stop-color:#484747"/>
		<stop  offset="0.97" style="stop-color:#414040"/>
		<stop  offset="1" style="stop-color:#595858"/>
	</linearGradient>
	<path fill="url(#SVGID_29_)" d="M265.652,483.472c0-2.25,1.664-3.852,3.891-3.852c2.109,0.102,4.023,1.766,4.023,3.945
		c0.336,2.156-1.801,3.949-4.023,3.949c-2.391-0.293-4.027-1.77-4.027-3.949L265.652,483.472z"/>
	
		<linearGradient id="SVGID_30_" gradientUnits="userSpaceOnUse" x1="213.8989" y1="199.7954" x2="201.2758" y2="192.5074" gradientTransform="matrix(0.75 0 0 -0.75 108.4774 651.0519)">
		<stop  offset="0" style="stop-color:#555454"/>
		<stop  offset="0.15" style="stop-color:#807F7F"/>
		<stop  offset="0.25" style="stop-color:#9F9F9F"/>
		<stop  offset="0.44" style="stop-color:#626161"/>
		<stop  offset="0.6" style="stop-color:#565656"/>
		<stop  offset="0.8" style="stop-color:#484747"/>
		<stop  offset="0.97" style="stop-color:#414040"/>
		<stop  offset="1" style="stop-color:#595858"/>
	</linearGradient>
	<path fill="url(#SVGID_30_)" d="M260.145,503.824c0-2.25,1.805-3.813,4.027-3.813c1.973,0.063,4.027,1.77,4.027,3.949
		c0.195,2.113-1.805,3.945-4.027,3.945c-2.527-0.332-4.027-1.766-4.027-3.945V503.824z"/>
	
		<linearGradient id="SVGID_31_" gradientUnits="userSpaceOnUse" x1="222.5732" y1="198.5347" x2="200.4967" y2="185.7888" gradientTransform="matrix(0.75 0 0 -0.75 132.6971 641.4943)">
		<stop  offset="0" style="stop-color:#555454"/>
		<stop  offset="0.15" style="stop-color:#807F7F"/>
		<stop  offset="0.25" style="stop-color:#9F9F9F"/>
		<stop  offset="0.44" style="stop-color:#626161"/>
		<stop  offset="0.6" style="stop-color:#565656"/>
		<stop  offset="0.8" style="stop-color:#484747"/>
		<stop  offset="0.97" style="stop-color:#414040"/>
		<stop  offset="1" style="stop-color:#595858"/>
	</linearGradient>
	<path fill="url(#SVGID_31_)" d="M284.367,497.265c0-3.75,3.09-6.789,6.98-6.789c3.52,0.039,7.047,3.09,7.047,6.906
		c0.223,3.633-3.152,6.906-7.047,6.906c-3.98-0.273-7.043-3.094-7.043-6.906L284.367,497.265z"/>
	
		<linearGradient id="SVGID_32_" gradientUnits="userSpaceOnUse" x1="212.8179" y1="199.9126" x2="201.2252" y2="193.2195" gradientTransform="matrix(0.75 0 0 -0.75 157.5477 633.9376)">
		<stop  offset="0" style="stop-color:#555454"/>
		<stop  offset="0.15" style="stop-color:#807F7F"/>
		<stop  offset="0.25" style="stop-color:#9F9F9F"/>
		<stop  offset="0.44" style="stop-color:#626161"/>
		<stop  offset="0.6" style="stop-color:#565656"/>
		<stop  offset="0.8" style="stop-color:#484747"/>
		<stop  offset="0.97" style="stop-color:#414040"/>
		<stop  offset="1" style="stop-color:#595858"/>
	</linearGradient>
	<path fill="url(#SVGID_32_)" d="M309.214,486.71c0-2.25,1.57-3.801,3.609-3.801c2.391,0.051,3.691,1.617,3.691,3.617
		c0.199,1.684-1.652,3.617-3.691,3.617c-2.109,0.316-3.691-1.621-3.691-3.617L309.214,486.71z"/>
	
		<linearGradient id="SVGID_33_" gradientUnits="userSpaceOnUse" x1="213.7378" y1="199.7876" x2="201.0927" y2="192.487" gradientTransform="matrix(0.75 0 0 -0.75 131.4398 621.4513)">
		<stop  offset="0" style="stop-color:#555454"/>
		<stop  offset="0.15" style="stop-color:#807F7F"/>
		<stop  offset="0.25" style="stop-color:#9F9F9F"/>
		<stop  offset="0.44" style="stop-color:#626161"/>
		<stop  offset="0.6" style="stop-color:#565656"/>
		<stop  offset="0.8" style="stop-color:#484747"/>
		<stop  offset="0.97" style="stop-color:#414040"/>
		<stop  offset="1" style="stop-color:#595858"/>
	</linearGradient>
	<path fill="url(#SVGID_33_)" d="M283.109,474.222c0-2.25,1.656-3.813,3.878-3.813c2.121,0.063,4.027,1.77,4.027,3.949
		c0.344,2.113-1.805,3.945-4.027,3.945c-2.379-0.332-4.027-1.766-4.027-3.945L283.109,474.222z"/>
	
		<linearGradient id="SVGID_34_" gradientUnits="userSpaceOnUse" x1="215.7026" y1="199.605" x2="200.9909" y2="191.1112" gradientTransform="matrix(0.75 0 0 -0.75 101.8715 501.8126)">
		<stop  offset="0" style="stop-color:#555454"/>
		<stop  offset="0.15" style="stop-color:#807F7F"/>
		<stop  offset="0.25" style="stop-color:#9F9F9F"/>
		<stop  offset="0.44" style="stop-color:#626161"/>
		<stop  offset="0.6" style="stop-color:#565656"/>
		<stop  offset="0.8" style="stop-color:#484747"/>
		<stop  offset="0.97" style="stop-color:#414040"/>
		<stop  offset="1" style="stop-color:#595858"/>
	</linearGradient>
	<path fill="url(#SVGID_34_)" d="M253.539,355.335c0-2.25,2-4.645,4.594-4.645c2.906,0.145,4.699,2.063,4.699,4.605
		c-0.293,2.289-2.105,4.605-4.699,4.605c-2.344-0.066-4.695-2.063-4.695-4.605L253.539,355.335z"/>
	
		<linearGradient id="SVGID_35_" gradientUnits="userSpaceOnUse" x1="217.7534" y1="199.2686" x2="200.9384" y2="189.5604" gradientTransform="matrix(0.75 0 0 -0.75 160.8505 541.8966)">
		<stop  offset="0" style="stop-color:#555454"/>
		<stop  offset="0.15" style="stop-color:#807F7F"/>
		<stop  offset="0.25" style="stop-color:#9F9F9F"/>
		<stop  offset="0.44" style="stop-color:#626161"/>
		<stop  offset="0.6" style="stop-color:#565656"/>
		<stop  offset="0.8" style="stop-color:#484747"/>
		<stop  offset="0.97" style="stop-color:#414040"/>
		<stop  offset="1" style="stop-color:#595858"/>
	</linearGradient>
	<path fill="url(#SVGID_35_)" d="M312.519,396.167c0-3,2.371-5.352,5.336-5.352c2.914,0.102,5.367,2.355,5.367,5.262
		c-0.203,3.09-2.402,5.262-5.367,5.262c-3.086,0.078-5.367-2.355-5.367-5.262L312.519,396.167z"/>
	
		<linearGradient id="SVGID_36_" gradientUnits="userSpaceOnUse" x1="212.7495" y1="199.9233" x2="201.145" y2="193.2235" gradientTransform="matrix(0.75 0 0 -0.75 121.3734 512.9132)">
		<stop  offset="0" style="stop-color:#555454"/>
		<stop  offset="0.15" style="stop-color:#807F7F"/>
		<stop  offset="0.25" style="stop-color:#9F9F9F"/>
		<stop  offset="0.44" style="stop-color:#626161"/>
		<stop  offset="0.6" style="stop-color:#565656"/>
		<stop  offset="0.8" style="stop-color:#484747"/>
		<stop  offset="0.97" style="stop-color:#414040"/>
		<stop  offset="1" style="stop-color:#595858"/>
	</linearGradient>
	<path fill="url(#SVGID_36_)" d="M273.043,365.683c0-2.25,1.504-3.809,3.543-3.809c1.707,0.059,3.691,1.617,3.691,3.617
		c0.266,1.691-1.652,3.617-3.691,3.617c-2.043,0.324-3.691-1.621-3.691-3.617L273.043,365.683z"/>
	
		<linearGradient id="SVGID_37_" gradientUnits="userSpaceOnUse" x1="213.7266" y1="199.7275" x2="201.0904" y2="192.4321" gradientTransform="matrix(0.75 0 0 -0.75 151.5712 464.1935)">
		<stop  offset="0" style="stop-color:#555454"/>
		<stop  offset="0.15" style="stop-color:#807F7F"/>
		<stop  offset="0.25" style="stop-color:#9F9F9F"/>
		<stop  offset="0.44" style="stop-color:#626161"/>
		<stop  offset="0.6" style="stop-color:#565656"/>
		<stop  offset="0.8" style="stop-color:#484747"/>
		<stop  offset="0.97" style="stop-color:#414040"/>
		<stop  offset="1" style="stop-color:#595858"/>
	</linearGradient>
	<path fill="url(#SVGID_37_)" d="M303.238,316.964c0-2.25,1.656-3.75,3.883-3.75c2.117,0,4.023,1.746,4.023,3.93
		c0.344,2.07-1.801,3.945-4.023,3.945c-2.383-0.375-4.027-1.766-4.027-3.945L303.238,316.964z"/>
	
		<linearGradient id="SVGID_38_" gradientUnits="userSpaceOnUse" x1="218.6362" y1="199.2197" x2="200.766" y2="188.9023" gradientTransform="matrix(0.75 0 0 -0.75 160.2206 428.1173)">
		<stop  offset="0" style="stop-color:#555454"/>
		<stop  offset="0.15" style="stop-color:#807F7F"/>
		<stop  offset="0.25" style="stop-color:#9F9F9F"/>
		<stop  offset="0.44" style="stop-color:#626161"/>
		<stop  offset="0.6" style="stop-color:#565656"/>
		<stop  offset="0.8" style="stop-color:#484747"/>
		<stop  offset="0.97" style="stop-color:#414040"/>
		<stop  offset="1" style="stop-color:#595858"/>
	</linearGradient>
	<path fill="url(#SVGID_38_)" d="M311.89,282.391c0-3,2.48-5.375,5.629-5.375c3.371,0.125,5.703,2.504,5.703,5.594
		c-0.082,2.781-2.551,5.589-5.703,5.589c-3.379,0.191-5.703-2.504-5.703-5.589L311.89,282.391z"/>
	
		<linearGradient id="SVGID_39_" gradientUnits="userSpaceOnUse" x1="216.6748" y1="199.3354" x2="200.9113" y2="190.2344" gradientTransform="matrix(0.75 0 0 -0.75 152.1991 399.7501)">
		<stop  offset="0" style="stop-color:#555454"/>
		<stop  offset="0.15" style="stop-color:#807F7F"/>
		<stop  offset="0.25" style="stop-color:#9F9F9F"/>
		<stop  offset="0.44" style="stop-color:#626161"/>
		<stop  offset="0.6" style="stop-color:#565656"/>
		<stop  offset="0.8" style="stop-color:#484747"/>
		<stop  offset="0.97" style="stop-color:#414040"/>
		<stop  offset="1" style="stop-color:#595858"/>
	</linearGradient>
	<path fill="url(#SVGID_39_)" d="M303.867,254.023c0-3,2.148-5.293,4.93-5.293c2.57,0.043,5.031,2.211,5.031,4.934
		c-0.211,2.609-2.254,4.934-5.031,4.934c-2.68-0.074-5.031-2.207-5.031-4.934L303.867,254.023z"/>
	
		<linearGradient id="SVGID_40_" gradientUnits="userSpaceOnUse" x1="211.9233" y1="199.9956" x2="201.3988" y2="193.9193" gradientTransform="matrix(0.75 0 0 -0.75 138.0453 414.2423)">
		<stop  offset="0" style="stop-color:#555454"/>
		<stop  offset="0.15" style="stop-color:#807F7F"/>
		<stop  offset="0.25" style="stop-color:#9F9F9F"/>
		<stop  offset="0.44" style="stop-color:#626161"/>
		<stop  offset="0.6" style="stop-color:#565656"/>
		<stop  offset="0.8" style="stop-color:#484747"/>
		<stop  offset="0.97" style="stop-color:#414040"/>
		<stop  offset="1" style="stop-color:#595858"/>
	</linearGradient>
	<path fill="url(#SVGID_40_)" d="M289.714,266.266c0-1.5,1.461-3.063,3.313-3.063c1.938,0.063,3.355,1.473,3.355,3.289
		c0.082,2.023-1.504,3.289-3.355,3.289c-1.813,0.234-3.355-1.473-3.355-3.289L289.714,266.266z"/>
	
		<linearGradient id="SVGID_41_" gradientUnits="userSpaceOnUse" x1="214.9067" y1="199.7046" x2="201.2225" y2="191.804" gradientTransform="matrix(0.75 0 0 -0.75 148.7382 378.7814)">
		<stop  offset="0" style="stop-color:#555454"/>
		<stop  offset="0.15" style="stop-color:#807F7F"/>
		<stop  offset="0.25" style="stop-color:#9F9F9F"/>
		<stop  offset="0.44" style="stop-color:#626161"/>
		<stop  offset="0.6" style="stop-color:#565656"/>
		<stop  offset="0.8" style="stop-color:#484747"/>
		<stop  offset="0.97" style="stop-color:#414040"/>
		<stop  offset="1" style="stop-color:#595858"/>
	</linearGradient>
	<path fill="url(#SVGID_41_)" d="M300.406,232.305c0-3,1.953-4.625,4.363-4.625c2.387,0.125,4.363,1.914,4.363,4.277
		c0.273,2.598-1.953,4.273-4.363,4.273c-2.113-0.176-4.363-1.914-4.363-4.273V232.305z"/>
	
		<linearGradient id="SVGID_42_" gradientUnits="userSpaceOnUse" x1="212.8828" y1="199.9717" x2="201.2914" y2="193.2794" gradientTransform="matrix(0.75 0 0 -0.75 150.7841 295.2198)">
		<stop  offset="0" style="stop-color:#555454"/>
		<stop  offset="0.15" style="stop-color:#807F7F"/>
		<stop  offset="0.25" style="stop-color:#9F9F9F"/>
		<stop  offset="0.44" style="stop-color:#626161"/>
		<stop  offset="0.6" style="stop-color:#565656"/>
		<stop  offset="0.8" style="stop-color:#484747"/>
		<stop  offset="0.97" style="stop-color:#414040"/>
		<stop  offset="1" style="stop-color:#595858"/>
	</linearGradient>
	<path fill="url(#SVGID_42_)" d="M302.453,147.992c0-2.25,1.621-3.852,3.66-3.852c2.34,0.102,3.691,1.617,3.691,3.617
		c0.148,1.734-1.652,3.617-3.691,3.617c-2.16,0.367-3.691-1.621-3.691-3.617L302.453,147.992z"/>
	
		<linearGradient id="SVGID_43_" gradientUnits="userSpaceOnUse" x1="215.7563" y1="199.3677" x2="201.0458" y2="190.8745" gradientTransform="matrix(0.75 0 0 -0.75 127.35 281.9611)">
		<stop  offset="0" style="stop-color:#555454"/>
		<stop  offset="0.15" style="stop-color:#807F7F"/>
		<stop  offset="0.25" style="stop-color:#9F9F9F"/>
		<stop  offset="0.44" style="stop-color:#626161"/>
		<stop  offset="0.6" style="stop-color:#565656"/>
		<stop  offset="0.8" style="stop-color:#484747"/>
		<stop  offset="0.97" style="stop-color:#414040"/>
		<stop  offset="1" style="stop-color:#595858"/>
	</linearGradient>
	<path fill="url(#SVGID_43_)" d="M279.02,135.484c0-2.25,2.02-4.5,4.613-4.5c2.886,0,4.695,2.059,4.695,4.602
		c-0.309,2.898-2.102,4.605-4.695,4.605c-2.363-0.207-4.699-2.063-4.699-4.605L279.02,135.484z"/>
	
		<linearGradient id="SVGID_44_" gradientUnits="userSpaceOnUse" x1="214.8755" y1="199.6455" x2="201.2101" y2="191.7558" gradientTransform="matrix(0.75 0 0 -0.75 93.0629 293.2159)">
		<stop  offset="0" style="stop-color:#555454"/>
		<stop  offset="0.15" style="stop-color:#807F7F"/>
		<stop  offset="0.25" style="stop-color:#9F9F9F"/>
		<stop  offset="0.44" style="stop-color:#626161"/>
		<stop  offset="0.6" style="stop-color:#565656"/>
		<stop  offset="0.8" style="stop-color:#484747"/>
		<stop  offset="0.97" style="stop-color:#414040"/>
		<stop  offset="1" style="stop-color:#595858"/>
	</linearGradient>
	<path fill="url(#SVGID_44_)" d="M244.73,146.738c0-3,1.934-4.57,4.344-4.57c2.406,0.07,4.359,1.914,4.359,4.273
		c0.297,2.547-1.953,4.277-4.359,4.277c-2.094-0.23-4.344-1.914-4.344-4.277V146.738z"/>
	
		<linearGradient id="SVGID_45_" gradientUnits="userSpaceOnUse" x1="215.7769" y1="199.5659" x2="201.0628" y2="191.0708" gradientTransform="matrix(0.75 0 0 -0.75 138.0438 221.2159)">
		<stop  offset="0" style="stop-color:#555454"/>
		<stop  offset="0.15" style="stop-color:#807F7F"/>
		<stop  offset="0.25" style="stop-color:#9F9F9F"/>
		<stop  offset="0.44" style="stop-color:#626161"/>
		<stop  offset="0.6" style="stop-color:#565656"/>
		<stop  offset="0.8" style="stop-color:#484747"/>
		<stop  offset="0.97" style="stop-color:#414040"/>
		<stop  offset="1" style="stop-color:#595858"/>
	</linearGradient>
	<path fill="url(#SVGID_45_)" d="M289.714,74.738c0-2.25,2.059-4.602,4.652-4.602c2.848,0.102,4.699,2.063,4.699,4.605
		c-0.352,2.246-2.105,4.602-4.699,4.602c-2.402-0.105-4.695-2.059-4.695-4.602L289.714,74.738z"/>
	
		<linearGradient id="SVGID_46_" gradientUnits="userSpaceOnUse" x1="212.8149" y1="199.8901" x2="201.2233" y2="193.1977" gradientTransform="matrix(0.75 0 0 -0.75 157.5477 254.3634)">
		<stop  offset="0" style="stop-color:#555454"/>
		<stop  offset="0.15" style="stop-color:#807F7F"/>
		<stop  offset="0.25" style="stop-color:#9F9F9F"/>
		<stop  offset="0.44" style="stop-color:#626161"/>
		<stop  offset="0.6" style="stop-color:#565656"/>
		<stop  offset="0.8" style="stop-color:#484747"/>
		<stop  offset="0.97" style="stop-color:#414040"/>
		<stop  offset="1" style="stop-color:#595858"/>
	</linearGradient>
	<path fill="url(#SVGID_46_)" d="M309.214,107.137c0-2.25,1.57-3.781,3.609-3.781c2.391,0.031,3.691,1.621,3.691,3.617
		c0.199,1.664-1.652,3.617-3.691,3.617c-2.109,0.297-3.691-1.617-3.691-3.617L309.214,107.137z"/>
	
		<linearGradient id="SVGID_47_" gradientUnits="userSpaceOnUse" x1="212.7446" y1="199.8862" x2="201.1458" y2="193.1896" gradientTransform="matrix(0.75 0 0 -0.75 91.1776 234.63)">
		<stop  offset="0" style="stop-color:#555454"/>
		<stop  offset="0.15" style="stop-color:#807F7F"/>
		<stop  offset="0.25" style="stop-color:#9F9F9F"/>
		<stop  offset="0.44" style="stop-color:#626161"/>
		<stop  offset="0.6" style="stop-color:#565656"/>
		<stop  offset="0.8" style="stop-color:#484747"/>
		<stop  offset="0.97" style="stop-color:#414040"/>
		<stop  offset="1" style="stop-color:#595858"/>
	</linearGradient>
	<path fill="url(#SVGID_47_)" d="M242.848,87.402c0-2.25,1.504-3.781,3.543-3.781c1.707,0.031,3.691,1.621,3.691,3.617
		c0.266,1.664-1.652,3.621-3.691,3.621c-2.043,0.293-3.691-1.621-3.691-3.621L242.848,87.402z"/>
	
		<linearGradient id="SVGID_48_" gradientUnits="userSpaceOnUse" x1="214.7061" y1="199.7007" x2="201.047" y2="191.8146" gradientTransform="matrix(0.75 0 0 -0.75 159.5917 354.422)">
		<stop  offset="0" style="stop-color:#555454"/>
		<stop  offset="0.15" style="stop-color:#807F7F"/>
		<stop  offset="0.25" style="stop-color:#9F9F9F"/>
		<stop  offset="0.44" style="stop-color:#626161"/>
		<stop  offset="0.6" style="stop-color:#565656"/>
		<stop  offset="0.8" style="stop-color:#484747"/>
		<stop  offset="0.97" style="stop-color:#414040"/>
		<stop  offset="1" style="stop-color:#595858"/>
	</linearGradient>
	<path fill="url(#SVGID_48_)" d="M311.261,207.945c0-3,1.836-4.602,4.246-4.602c2.504,0.102,4.359,1.914,4.359,4.273
		c-0.355,2.578-1.949,4.277-4.359,4.277c-2.746-0.199-4.363-1.914-4.363-4.277L311.261,207.945z"/>
	
		<linearGradient id="SVGID_49_" gradientUnits="userSpaceOnUse" x1="215.8716" y1="199.4653" x2="201.1343" y2="190.9568" gradientTransform="matrix(0.75 0 0 -0.75 115.869 343.1671)">
		<stop  offset="0" style="stop-color:#555454"/>
		<stop  offset="0.15" style="stop-color:#807F7F"/>
		<stop  offset="0.25" style="stop-color:#9F9F9F"/>
		<stop  offset="0.44" style="stop-color:#626161"/>
		<stop  offset="0.6" style="stop-color:#565656"/>
		<stop  offset="0.8" style="stop-color:#484747"/>
		<stop  offset="0.97" style="stop-color:#414040"/>
		<stop  offset="1" style="stop-color:#595858"/>
	</linearGradient>
	<path fill="url(#SVGID_49_)" d="M267.539,196.691c0-2.25,2.094-4.531,4.688-4.531c2.813,0.031,4.695,2.059,4.695,4.602
		c0.367,2.18-2.102,4.605-4.695,4.605c-2.438-0.176-4.688-2.063-4.688-4.605V196.691z"/>
	
		<linearGradient id="SVGID_50_" gradientUnits="userSpaceOnUse" x1="216.7944" y1="199.4146" x2="201.0426" y2="190.3202" gradientTransform="matrix(0.75 0 0 -0.75 95.7382 574.1202)">
		<stop  offset="0" style="stop-color:#555454"/>
		<stop  offset="0.15" style="stop-color:#807F7F"/>
		<stop  offset="0.25" style="stop-color:#9F9F9F"/>
		<stop  offset="0.44" style="stop-color:#626161"/>
		<stop  offset="0.6" style="stop-color:#565656"/>
		<stop  offset="0.8" style="stop-color:#484747"/>
		<stop  offset="0.97" style="stop-color:#414040"/>
		<stop  offset="1" style="stop-color:#595858"/>
	</linearGradient>
	<path fill="url(#SVGID_50_)" d="M247.406,427.644c0-2.25,2.242-4.594,5.023-4.594c2.477,0.094,5.031,2.207,5.031,4.934
		c-0.305,2.66-2.25,4.934-5.031,4.934c-2.773-0.023-5.023-2.211-5.023-4.934V427.644z"/>
	
		<linearGradient id="SVGID_51_" gradientUnits="userSpaceOnUse" x1="216.7524" y1="199.3315" x2="200.9901" y2="190.2312" gradientTransform="matrix(0.75 0 0 -0.75 138.0438 540.5099)">
		<stop  offset="0" style="stop-color:#555454"/>
		<stop  offset="0.15" style="stop-color:#807F7F"/>
		<stop  offset="0.25" style="stop-color:#9F9F9F"/>
		<stop  offset="0.44" style="stop-color:#626161"/>
		<stop  offset="0.6" style="stop-color:#565656"/>
		<stop  offset="0.8" style="stop-color:#484747"/>
		<stop  offset="0.97" style="stop-color:#414040"/>
		<stop  offset="1" style="stop-color:#595858"/>
	</linearGradient>
	<path fill="url(#SVGID_51_)" d="M289.714,394.781c0-3,2.211-5.277,4.988-5.277c2.512,0.027,5.035,2.207,5.035,4.93
		c-0.273,2.598-2.254,4.934-5.035,4.934c-2.738-0.086-5.031-2.207-5.031-4.934L289.714,394.781z"/>
	
		<linearGradient id="SVGID_52_" gradientUnits="userSpaceOnUse" x1="218.6587" y1="199.0493" x2="200.7921" y2="188.734" gradientTransform="matrix(0.75 0 0 -0.75 97.1537 468.8185)">
		<stop  offset="0" style="stop-color:#555454"/>
		<stop  offset="0.15" style="stop-color:#807F7F"/>
		<stop  offset="0.25" style="stop-color:#9F9F9F"/>
		<stop  offset="0.44" style="stop-color:#626161"/>
		<stop  offset="0.6" style="stop-color:#565656"/>
		<stop  offset="0.8" style="stop-color:#484747"/>
		<stop  offset="0.97" style="stop-color:#414040"/>
		<stop  offset="1" style="stop-color:#595858"/>
	</linearGradient>
	<path fill="url(#SVGID_52_)" d="M248.824,323.089c0-3,2.469-5.289,5.617-5.289c3.383,0.039,5.703,2.504,5.703,5.59
		c-0.07,3.449-2.551,5.59-5.703,5.59c-3.367,0.109-5.703-2.5-5.703-5.59L248.824,323.089z"/>
	
		<linearGradient id="SVGID_53_" gradientUnits="userSpaceOnUse" x1="218.7075" y1="199.0547" x2="200.8432" y2="188.7407" gradientTransform="matrix(0.75 0 0 -0.75 158.1766 332.299)">
		<stop  offset="0" style="stop-color:#555454"/>
		<stop  offset="0.15" style="stop-color:#807F7F"/>
		<stop  offset="0.25" style="stop-color:#9F9F9F"/>
		<stop  offset="0.44" style="stop-color:#626161"/>
		<stop  offset="0.6" style="stop-color:#565656"/>
		<stop  offset="0.8" style="stop-color:#484747"/>
		<stop  offset="0.97" style="stop-color:#414040"/>
		<stop  offset="1" style="stop-color:#595858"/>
	</linearGradient>
	<path fill="url(#SVGID_53_)" d="M309.843,186.57c0-3,2.512-5.289,5.664-5.289c3.336,0.039,5.703,2.504,5.703,5.59
		c-0.117,3.449-2.555,5.59-5.703,5.59c-3.414,0.109-5.703-2.5-5.703-5.59L309.843,186.57z"/>
</g>
</svg>
