<?xml version="1.0" encoding="utf-8"?>
<!-- Generator: Adobe Illustrator 16.0.0, SVG Export Plug-In . SVG Version: 6.00 Build 0)  -->
<!DOCTYPE svg PUBLIC "-//W3C//DTD SVG 1.1//EN" "http://www.w3.org/Graphics/SVG/1.1/DTD/svg11.dtd">
<svg preserveAspectRatio="none"   version="1.1" id="图层_1" xmlns="http://www.w3.org/2000/svg" xmlns:xlink="http://www.w3.org/1999/xlink" x="0px" y="0px"
	 width="558.093px" height="485.792px" viewBox="4.379 40.531 558.093 485.792"
	 enable-background="new 4.379 40.531 558.093 485.792" xml:space="preserve">
<g id="surface1">
	
		<linearGradient id="SVGID_1_" gradientUnits="userSpaceOnUse" x1="574.2241" y1="198.3062" x2="202.2251" y2="198.3061" gradientTransform="matrix(0.75 0 0 -0.75 -8.3961 554.4865)">
		<stop  offset="0" style="stop-color:#68727B"/>
		<stop  offset="0.15" style="stop-color:#98A4AF"/>
		<stop  offset="0.25" style="stop-color:#CBD0D5"/>
		<stop  offset="0.52" style="stop-color:#7C8893"/>
		<stop  offset="0.69" style="stop-color:#6D7882"/>
		<stop  offset="1" style="stop-color:#565E66"/>
	</linearGradient>
	<path fill="url(#SVGID_1_)" d="M143.273,403.507h279v4.5h-279V403.507z"/>
	
		<linearGradient id="SVGID_2_" gradientUnits="userSpaceOnUse" x1="276.2261" y1="181.8037" x2="202.2271" y2="181.8037" gradientTransform="matrix(0.75 0 0 -0.75 103.3295 199.0939)">
		<stop  offset="0" style="stop-color:#A1A9B3"/>
		<stop  offset="0.09" style="stop-color:#A3ACB6"/>
		<stop  offset="0.36" style="stop-color:#C9D4E0"/>
		<stop  offset="0.56" style="stop-color:#B5BFC9"/>
		<stop  offset="0.83" style="stop-color:#9199A2"/>
		<stop  offset="1" style="stop-color:#676D74"/>
	</linearGradient>
	<path fill="url(#SVGID_2_)" d="M255,48.117h55.5v29.25H255V48.117z"/>
	
		<linearGradient id="SVGID_3_" gradientUnits="userSpaceOnUse" x1="574.2231" y1="170.3062" x2="202.2236" y2="170.3061" gradientTransform="matrix(0.75 0 0 -0.75 -6.7462 574.3136)">
		<stop  offset="0" style="stop-color:#A1A9B3"/>
		<stop  offset="0.09" style="stop-color:#A3ACB6"/>
		<stop  offset="0.36" style="stop-color:#C9D4E0"/>
		<stop  offset="0.56" style="stop-color:#B5BFC9"/>
		<stop  offset="0.83" style="stop-color:#9199A2"/>
		<stop  offset="1" style="stop-color:#676D74"/>
	</linearGradient>
	<path fill="url(#SVGID_3_)" d="M144.922,423.335h279v46.5h-279V423.335z"/>
	
		<linearGradient id="SVGID_4_" gradientUnits="userSpaceOnUse" x1="566.7935" y1="134.8979" x2="223.529" y2="259.8359" gradientTransform="matrix(0.75 0 0 -0.75 -6.7462 622.7745)">
		<stop  offset="0" style="stop-color:#A1A9B3"/>
		<stop  offset="0.09" style="stop-color:#A3ACB6"/>
		<stop  offset="0.36" style="stop-color:#C9D4E0"/>
		<stop  offset="0.56" style="stop-color:#B5BFC9"/>
		<stop  offset="0.83" style="stop-color:#9199A2"/>
		<stop  offset="1" style="stop-color:#676D74"/>
	</linearGradient>
	<path fill="url(#SVGID_4_)" d="M423.921,471.796c0,0-25.617,15.805-101.57,34.488c0.32,0.012-75.871,0-75.871,0
		c-73.059-17.988-101.559-34.488-101.559-34.488H423.921z"/>
	
		<linearGradient id="SVGID_5_" gradientUnits="userSpaceOnUse" x1="303.2222" y1="190.8027" x2="202.2231" y2="190.8027" gradientTransform="matrix(0.75 0 0 -0.75 94.9999 656.0773)">
		<stop  offset="0" style="stop-color:#A1A9B3"/>
		<stop  offset="0.09" style="stop-color:#A3ACB6"/>
		<stop  offset="0.36" style="stop-color:#C9D4E0"/>
		<stop  offset="0.56" style="stop-color:#B5BFC9"/>
		<stop  offset="0.83" style="stop-color:#9199A2"/>
		<stop  offset="1" style="stop-color:#676D74"/>
	</linearGradient>
	<path fill="url(#SVGID_5_)" d="M246.668,505.101h75.75v15.75h-75.75V505.101z"/>
	
		<linearGradient id="SVGID_6_" gradientUnits="userSpaceOnUse" x1="348.2759" y1="197.0923" x2="202.2246" y2="197.0923" gradientTransform="matrix(0.75 0 0 -0.75 78.0067 670.9825)">
		<stop  offset="0" style="stop-color:#A1A9B3"/>
		<stop  offset="0.09" style="stop-color:#A3ACB6"/>
		<stop  offset="0.36" style="stop-color:#C9D4E0"/>
		<stop  offset="0.56" style="stop-color:#B5BFC9"/>
		<stop  offset="0.83" style="stop-color:#9199A2"/>
		<stop  offset="1" style="stop-color:#676D74"/>
	</linearGradient>
	<path fill="url(#SVGID_6_)" d="M232.676,520.003h103.5c1.5,0,3.039,1.414,3.039,3.16c-0.039,2.09-1.434,3.16-3.176,3.16
		l-103.363-0.32c-1.5,0-3-1.094-3-2.84c0-1.66,1.355-3.16,3.098-3.16H232.676z"/>
	
		<linearGradient id="SVGID_7_" gradientUnits="userSpaceOnUse" x1="574.2231" y1="198.8052" x2="202.2236" y2="198.8051" gradientTransform="matrix(0.75 0 0 -0.75 -6.7462 619.5861)">
		<stop  offset="0" style="stop-color:#68727B"/>
		<stop  offset="0.15" style="stop-color:#98A4AF"/>
		<stop  offset="0.25" style="stop-color:#CBD0D5"/>
		<stop  offset="0.52" style="stop-color:#7C8893"/>
		<stop  offset="0.69" style="stop-color:#6D7882"/>
		<stop  offset="1" style="stop-color:#565E66"/>
	</linearGradient>
	<path fill="url(#SVGID_7_)" d="M144.922,468.609h279v3.75h-279V468.609z"/>
	
		<linearGradient id="SVGID_8_" gradientUnits="userSpaceOnUse" x1="574.2231" y1="198.3071" x2="202.2236" y2="198.3071" gradientTransform="matrix(0.75 0 0 -0.75 -6.7462 573.4161)">
		<stop  offset="0" style="stop-color:#68727B"/>
		<stop  offset="0.15" style="stop-color:#98A4AF"/>
		<stop  offset="0.25" style="stop-color:#CBD0D5"/>
		<stop  offset="0.52" style="stop-color:#7C8893"/>
		<stop  offset="0.69" style="stop-color:#6D7882"/>
		<stop  offset="1" style="stop-color:#565E66"/>
	</linearGradient>
	<path fill="url(#SVGID_8_)" d="M144.922,422.437h279v4.5h-279V422.437z"/>
	
		<linearGradient id="SVGID_9_" gradientUnits="userSpaceOnUse" x1="574.2817" y1="-11.1909" x2="202.2251" y2="-11.191" gradientTransform="matrix(0.75 0 0 -0.75 -8.3961 220.5851)">
		<stop  offset="0" style="stop-color:#A1A9B3"/>
		<stop  offset="0.09" style="stop-color:#A3ACB6"/>
		<stop  offset="0.36" style="stop-color:#C9D4E0"/>
		<stop  offset="0.56" style="stop-color:#B5BFC9"/>
		<stop  offset="0.83" style="stop-color:#9199A2"/>
		<stop  offset="1" style="stop-color:#676D74"/>
	</linearGradient>
	<path fill="url(#SVGID_9_)" d="M143.273,137.105c0,0,0-67.918,139.117-67.5c139.882,0.75,139.925,67.422,139.925,67.422
		l-0.043,251.328h-279V137.105z"/>
	
		<linearGradient id="SVGID_10_" gradientUnits="userSpaceOnUse" x1="298.1968" y1="201.3037" x2="298.1968" y2="90.3037" gradientTransform="matrix(0.75 0 0 -0.75 -140.5021 428.2238)">
		<stop  offset="0" style="stop-color:#A1A9B3"/>
		<stop  offset="0.09" style="stop-color:#A3ACB6"/>
		<stop  offset="0.36" style="stop-color:#C9D4E0"/>
		<stop  offset="0.56" style="stop-color:#B5BFC9"/>
		<stop  offset="0.83" style="stop-color:#9199A2"/>
		<stop  offset="1" style="stop-color:#676D74"/>
	</linearGradient>
	<path fill="url(#SVGID_10_)" d="M11.168,277.246h133.5c0,0,10.457,1.668,10.457,41.597c0.043,40.152-10.137,41.602-10.137,41.602
		l-133.82,0.051V277.246z"/>
	
		<linearGradient id="SVGID_11_" gradientUnits="userSpaceOnUse" x1="207.8042" y1="201.3018" x2="207.8042" y2="70.4565" gradientTransform="matrix(0.75 0 0 -0.75 -147.2633 420.7579)">
		<stop  offset="0" style="stop-color:#A1A9B3"/>
		<stop  offset="0.09" style="stop-color:#A3ACB6"/>
		<stop  offset="0.36" style="stop-color:#C9D4E0"/>
		<stop  offset="0.56" style="stop-color:#B5BFC9"/>
		<stop  offset="0.83" style="stop-color:#9199A2"/>
		<stop  offset="1" style="stop-color:#676D74"/>
	</linearGradient>
	<path fill="url(#SVGID_11_)" d="M8.156,269.781c3,0,4.645,1.758,4.645,3.992l-0.145,89.757c0,2.25-1.664,4.379-3.898,4.379
		c-2.852,0.121-4.379-1.813-4.379-4.047l0.027-90.332c0-2.25,1.785-3.75,4.016-3.75H8.156z"/>
	
		<linearGradient id="SVGID_12_" gradientUnits="userSpaceOnUse" x1="261.6782" y1="201.3037" x2="261.6782" y2="90.3027" gradientTransform="matrix(-0.75 0 0 -0.75 679.964 428.2238)">
		<stop  offset="0" style="stop-color:#A1A9B3"/>
		<stop  offset="0.09" style="stop-color:#A3ACB6"/>
		<stop  offset="0.36" style="stop-color:#C9D4E0"/>
		<stop  offset="0.56" style="stop-color:#B5BFC9"/>
		<stop  offset="0.83" style="stop-color:#9199A2"/>
		<stop  offset="1" style="stop-color:#676D74"/>
	</linearGradient>
	<path fill="url(#SVGID_12_)" d="M555.687,277.246h-133.5c0,0-10.461,1.668-10.461,41.597
		c-0.039,40.152,10.137,41.602,10.137,41.602l133.824,0.051V277.246z"/>
	
		<linearGradient id="SVGID_13_" gradientUnits="userSpaceOnUse" x1="171.2876" y1="201.3008" x2="171.2876" y2="70.4556" gradientTransform="matrix(-0.75 0 0 -0.75 686.7257 420.7579)">
		<stop  offset="0" style="stop-color:#A1A9B3"/>
		<stop  offset="0.09" style="stop-color:#A3ACB6"/>
		<stop  offset="0.36" style="stop-color:#C9D4E0"/>
		<stop  offset="0.56" style="stop-color:#B5BFC9"/>
		<stop  offset="0.83" style="stop-color:#9199A2"/>
		<stop  offset="1" style="stop-color:#676D74"/>
	</linearGradient>
	<path fill="url(#SVGID_13_)" d="M558.699,269.781c-3,0-4.648,1.758-4.648,3.992l0.148,89.757c0,2.25,1.664,4.379,3.895,4.379
		c2.855,0.121,4.379-1.813,4.379-4.047l-0.023-90.332c0-2.25-1.785-3.75-4.02-3.75H558.699z"/>
	
		<linearGradient id="SVGID_14_" gradientUnits="userSpaceOnUse" x1="281.2236" y1="194.8047" x2="202.2246" y2="194.8047" gradientTransform="matrix(0.75 0 0 -0.75 101.3353 191.5089)">
		<stop  offset="0" style="stop-color:#909BA9"/>
		<stop  offset="0.09" style="stop-color:#929DAB"/>
		<stop  offset="0.36" style="stop-color:#B4C2D3"/>
		<stop  offset="0.56" style="stop-color:#A2AEBE"/>
		<stop  offset="0.83" style="stop-color:#828C98"/>
		<stop  offset="1" style="stop-color:#5C636C"/>
	</linearGradient>
	<path fill="url(#SVGID_14_)" d="M253.004,40.531h59.25v9.75h-59.25V40.531z"/>
	
		<linearGradient id="SVGID_15_" gradientUnits="userSpaceOnUse" x1="574.2251" y1="198.3052" x2="202.2261" y2="198.3051" gradientTransform="matrix(0.75 0 0 -0.75 -8.3966 535.7267)">
		<stop  offset="0" style="stop-color:#68727B"/>
		<stop  offset="0.15" style="stop-color:#98A4AF"/>
		<stop  offset="0.25" style="stop-color:#CBD0D5"/>
		<stop  offset="0.52" style="stop-color:#7C8893"/>
		<stop  offset="0.69" style="stop-color:#6D7882"/>
		<stop  offset="1" style="stop-color:#565E66"/>
	</linearGradient>
	<path fill="url(#SVGID_15_)" d="M143.273,384.75h279v4.5h-279V384.75z"/>
	
		<linearGradient id="SVGID_16_" gradientUnits="userSpaceOnUse" x1="593.2271" y1="188.8672" x2="202.2275" y2="188.8672" gradientTransform="matrix(0.75 0 0 -0.75 -13.7687 556.6388)">
		<stop  offset="0" style="stop-color:#A1A9B3"/>
		<stop  offset="0.09" style="stop-color:#A3ACB6"/>
		<stop  offset="0.36" style="stop-color:#C9D4E0"/>
		<stop  offset="0.56" style="stop-color:#B5BFC9"/>
		<stop  offset="0.83" style="stop-color:#9199A2"/>
		<stop  offset="1" style="stop-color:#676D74"/>
	</linearGradient>
	<path fill="url(#SVGID_16_)" d="M144.652,405.66h279.75c3.75,0,6.586,2.961,6.586,6.73l0.164,4.52c0,3.75-3.258,7.137-7.023,7.137
		l-279.476,0.363c-3.75,0-6.75-3.418-6.75-7.184v-4.816c0-3.75,2.926-6.84,6.691-6.84L144.652,405.66z"/>
	
		<linearGradient id="SVGID_17_" gradientUnits="userSpaceOnUse" x1="593.2271" y1="188.8672" x2="202.2275" y2="188.8672" gradientTransform="matrix(0.75 0 0 -0.75 -13.7687 537.8771)">
		<stop  offset="0" style="stop-color:#A1A9B3"/>
		<stop  offset="0.09" style="stop-color:#A3ACB6"/>
		<stop  offset="0.36" style="stop-color:#C9D4E0"/>
		<stop  offset="0.56" style="stop-color:#B5BFC9"/>
		<stop  offset="0.83" style="stop-color:#9199A2"/>
		<stop  offset="1" style="stop-color:#676D74"/>
	</linearGradient>
	<path fill="url(#SVGID_17_)" d="M144.652,386.898h279.75c3.75,0,6.59,2.965,6.59,6.73l0.16,4.52c0,3.75-3.258,7.137-7.023,7.137
		l-279.476,0.363c-3.75,0-6.75-3.418-6.75-7.184v-4.816c0-3.75,2.926-6.84,6.691-6.84L144.652,386.898z"/>
</g>
</svg>
