<?xml version="1.0" encoding="utf-8"?>
<!-- Generator: Adobe Illustrator 16.0.0, SVG Export Plug-In . SVG Version: 6.00 Build 0)  -->
<!DOCTYPE svg PUBLIC "-//W3C//DTD SVG 1.1//EN" "http://www.w3.org/Graphics/SVG/1.1/DTD/svg11.dtd">
<svg preserveAspectRatio="none"   version="1.1" id="图层_1" xmlns="http://www.w3.org/2000/svg" xmlns:xlink="http://www.w3.org/1999/xlink" x="0px" y="0px"
	 width="565.082px" height="205.863px" viewBox="0.902 180.715 565.082 205.863"
	 enable-background="new 0.902 180.715 565.082 205.863" xml:space="preserve">
<g id="surface1">
	
		<linearGradient id="SVGID_1_" gradientUnits="userSpaceOnUse" x1="209.7266" y1="178.3066" x2="209.7266" y2="201.3066" gradientTransform="matrix(0.75 0 0 -0.75 -127.2443 467.9708)">
		<stop  offset="0" style="stop-color:#918689"/>
		<stop  offset="0.26" style="stop-color:#B7A9AD"/>
		<stop  offset="0.54" style="stop-color:#D6CBCE"/>
		<stop  offset="0.76" style="stop-color:#CFC2C5"/>
		<stop  offset="1" style="stop-color:#918689"/>
	</linearGradient>
	<path fill="url(#SVGID_1_)" d="M24.426,316.992h11.25v17.25h-11.25V316.992z"/>
	
		<linearGradient id="SVGID_2_" gradientUnits="userSpaceOnUse" x1="435.7241" y1="566.6235" x2="435.7241" y2="438.6235" gradientTransform="matrix(0.75 0 0 0.75 -107.7194 -51.0304)">
		<stop  offset="0" style="stop-color:#9E9799"/>
		<stop  offset="0.26" style="stop-color:#C7BEC0"/>
		<stop  offset="0.54" style="stop-color:#E4DCDD"/>
		<stop  offset="0.76" style="stop-color:#DFD6D8"/>
		<stop  offset="1" style="stop-color:#9E9798"/>
	</linearGradient>
	<path fill="url(#SVGID_2_)" d="M65.699,373.937h328.5v-96h-328.5c0,0-21.75,0.535-21.75,34.785c0-0.285,0,26.676,0,26.676
		c0.75,33.039,21.879,34.25,21.879,34.25L65.699,373.937z"/>
	
		<linearGradient id="SVGID_3_" gradientUnits="userSpaceOnUse" x1="437.2251" y1="120.3042" x2="202.2256" y2="120.3042" gradientTransform="matrix(0.75 0 0 -0.75 66.5883 416.0548)">
		<stop  offset="0" style="stop-color:#A09B9A"/>
		<stop  offset="0.01" style="stop-color:#E8E3E2"/>
		<stop  offset="0.02" style="stop-color:#D0CAC9"/>
		<stop  offset="0.64" style="stop-color:#CDC6C5"/>
		<stop  offset="0.99" style="stop-color:#C8C2C1"/>
		<stop  offset="1" style="stop-color:#948F8F"/>
	</linearGradient>
	<path fill="url(#SVGID_3_)" d="M218.258,265.078h176.25v121.5h-176.25V265.078z"/>
	
		<linearGradient id="SVGID_4_" gradientUnits="userSpaceOnUse" x1="218.2266" y1="106.3027" x2="218.2266" y2="201.3027" gradientTransform="matrix(0.75 0 0 -0.75 282.2362 441.1134)">
		<stop  offset="0" style="stop-color:#918689"/>
		<stop  offset="0.26" style="stop-color:#B7A9AD"/>
		<stop  offset="0.54" style="stop-color:#D6CBCE"/>
		<stop  offset="0.76" style="stop-color:#CFC2C5"/>
		<stop  offset="1" style="stop-color:#918689"/>
	</linearGradient>
	<path fill="url(#SVGID_4_)" d="M433.906,290.136h24v71.25h-24V290.136z"/>
	
		<linearGradient id="SVGID_5_" gradientUnits="userSpaceOnUse" x1="276.7256" y1="566.6284" x2="276.7256" y2="453.6284" gradientTransform="matrix(0.75 0 0 0.75 302.5653 -57.0529)">
		<stop  offset="0" style="stop-color:#9E9799"/>
		<stop  offset="0.26" style="stop-color:#C7BEC0"/>
		<stop  offset="0.54" style="stop-color:#E4DCDD"/>
		<stop  offset="0.76" style="stop-color:#DFD6D8"/>
		<stop  offset="1" style="stop-color:#9E9798"/>
	</linearGradient>
	<path fill="url(#SVGID_5_)" d="M454.234,367.917h111.75v-84.75h-111.75V367.917z"/>
	
		<linearGradient id="SVGID_6_" gradientUnits="userSpaceOnUse" x1="229.2251" y1="566.6274" x2="229.2251" y2="453.6284" gradientTransform="matrix(0.75 0 0 0.75 242.7255 -57.0529)">
		<stop  offset="0" style="stop-color:#9E9799"/>
		<stop  offset="0.26" style="stop-color:#C7BEC0"/>
		<stop  offset="0.54" style="stop-color:#E4DCDD"/>
		<stop  offset="0.76" style="stop-color:#DFD6D8"/>
		<stop  offset="1" style="stop-color:#9E9798"/>
	</linearGradient>
	<path fill="url(#SVGID_6_)" d="M394.394,367.917h40.5v-84.75h-40.5V367.917z"/>
	
		<linearGradient id="SVGID_7_" gradientUnits="userSpaceOnUse" x1="207.7251" y1="566.6226" x2="207.7251" y2="530.6226" gradientTransform="matrix(0.75 0 0 0.75 -116.1876 -85.983)">
		<stop  offset="0" style="stop-color:#9E9799"/>
		<stop  offset="0.26" style="stop-color:#C7BEC0"/>
		<stop  offset="0.54" style="stop-color:#E4DCDD"/>
		<stop  offset="0.76" style="stop-color:#DFD6D8"/>
		<stop  offset="1" style="stop-color:#9E9798"/>
	</linearGradient>
	<path fill="url(#SVGID_7_)" d="M35.48,338.984h8.25v-27h-8.25V338.984z"/>
	
		<linearGradient id="SVGID_8_" gradientUnits="userSpaceOnUse" x1="219.7266" y1="566.6226" x2="219.7266" y2="512.6226" gradientTransform="matrix(0.75 0 0 0.75 -150.7672 -79.2413)">
		<stop  offset="0" style="stop-color:#9E9799"/>
		<stop  offset="0.26" style="stop-color:#C7BEC0"/>
		<stop  offset="0.54" style="stop-color:#E4DCDD"/>
		<stop  offset="0.76" style="stop-color:#DFD6D8"/>
		<stop  offset="1" style="stop-color:#9E9798"/>
	</linearGradient>
	<path fill="url(#SVGID_8_)" d="M0.902,345.726h26.25v-40.5H0.902V345.726z"/>
	<path fill="#9E9799" d="M76.566,294.539h114.75c3,0,5.57,2.582,5.57,5.77l-0.32,5.48c0,3.75-2.207,6.055-5.324,6.055
		l-114.676-0.055c-3.75,0-6-2.527-6-5.711v-5.539c0-3.75,2.527-6,5.645-6H76.566z"/>
	<path fill="#9E9799" d="M76.566,341.011h114.75c3,0,5.57,2.582,5.57,5.77l-0.32,5.48c0,3.75-2.207,6.055-5.324,6.055
		l-114.676-0.055c-3.75,0-6-2.527-6-5.711v-5.539c0-3.75,2.527-6,5.645-6H76.566z"/>
	
		<linearGradient id="SVGID_9_" gradientUnits="userSpaceOnUse" x1="437.2241" y1="143.8042" x2="202.2251" y2="143.8042" gradientTransform="matrix(0.75 0 0 -0.75 66.5887 433.5509)">
		<stop  offset="0" style="stop-color:#ACA8A8"/>
		<stop  offset="0.01" style="stop-color:#F5F2F2"/>
		<stop  offset="0.02" style="stop-color:#E0DBDB"/>
		<stop  offset="0.64" style="stop-color:#DCD8D8"/>
		<stop  offset="0.99" style="stop-color:#D7D3D3"/>
		<stop  offset="1" style="stop-color:#A09C9C"/>
	</linearGradient>
	<path fill="url(#SVGID_9_)" d="M218.258,282.574h176.25v86.25h-176.25V282.574z"/>
	
		<linearGradient id="SVGID_10_" gradientUnits="userSpaceOnUse" x1="303.2241" y1="143.8042" x2="202.2251" y2="143.8042" gradientTransform="matrix(0.75 0 0 -0.75 116.8973 433.5509)">
		<stop  offset="0" style="stop-color:#A09B9A"/>
		<stop  offset="0.01" style="stop-color:#E8E3E2"/>
		<stop  offset="0.02" style="stop-color:#D0CAC9"/>
		<stop  offset="0.64" style="stop-color:#CDC6C5"/>
		<stop  offset="0.99" style="stop-color:#C8C2C1"/>
		<stop  offset="1" style="stop-color:#948F8F"/>
	</linearGradient>
	<path fill="url(#SVGID_10_)" d="M268.566,282.574h75.75v86.25h-75.75V282.574z"/>
	
		<linearGradient id="SVGID_11_" gradientUnits="userSpaceOnUse" x1="202.2241" y1="193.3071" x2="255.2241" y2="193.3071" gradientTransform="matrix(0.75 0 0 -0.75 134.6439 386.9249)">
		<stop  offset="0" style="stop-color:#918689"/>
		<stop  offset="0.26" style="stop-color:#B7A9AD"/>
		<stop  offset="0.54" style="stop-color:#D6CBCE"/>
		<stop  offset="0.76" style="stop-color:#CFC2C5"/>
		<stop  offset="1" style="stop-color:#918689"/>
	</linearGradient>
	<path fill="url(#SVGID_11_)" d="M286.312,235.945h39.75v12h-39.75V235.945z"/>
	
		<linearGradient id="SVGID_12_" gradientUnits="userSpaceOnUse" x1="202.2236" y1="170.3032" x2="309.2222" y2="170.3032" gradientTransform="matrix(0.75 0 0 -0.75 114.4535 341.547)">
		<stop  offset="0" style="stop-color:#9E9799"/>
		<stop  offset="0.26" style="stop-color:#C7BEC0"/>
		<stop  offset="0.54" style="stop-color:#E4DCDD"/>
		<stop  offset="0.76" style="stop-color:#DFD6D8"/>
		<stop  offset="1" style="stop-color:#9E9798"/>
	</linearGradient>
	<path fill="url(#SVGID_12_)" d="M266.121,190.57h80.25v46.5h-80.25V190.57z"/>
	
		<linearGradient id="SVGID_13_" gradientUnits="userSpaceOnUse" x1="202.228" y1="194.5742" x2="317.6079" y2="194.5742" gradientTransform="matrix(0.75 0 0 -0.75 111.3915 331.6915)">
		<stop  offset="0" style="stop-color:#9E9799"/>
		<stop  offset="0.26" style="stop-color:#C7BEC0"/>
		<stop  offset="0.54" style="stop-color:#E4DCDD"/>
		<stop  offset="0.76" style="stop-color:#DFD6D8"/>
		<stop  offset="1" style="stop-color:#9E9798"/>
	</linearGradient>
	<path fill="url(#SVGID_13_)" d="M264.563,180.715h83.25c0.75,0,1.785,0.773,1.785,1.73l-0.285,6.52c0,0.75-0.504,1.844-1.438,1.844
		l-83.312-0.344c-0.75,0-1.5-0.43-1.5-1.387v-6.863c0-0.75,0.699-1.5,1.633-1.5H264.563z"/>
	
		<linearGradient id="SVGID_14_" gradientUnits="userSpaceOnUse" x1="326.2222" y1="189.3066" x2="202.2231" y2="189.3066" gradientTransform="matrix(0.75 0 0 -0.75 108.1132 398.0773)">
		<stop  offset="0" style="stop-color:#A09B9A"/>
		<stop  offset="0.01" style="stop-color:#E8E3E2"/>
		<stop  offset="0.02" style="stop-color:#D0CAC9"/>
		<stop  offset="0.64" style="stop-color:#CDC6C5"/>
		<stop  offset="0.99" style="stop-color:#C8C2C1"/>
		<stop  offset="1" style="stop-color:#948F8F"/>
	</linearGradient>
	<path fill="url(#SVGID_14_)" d="M259.781,247.098h93v18h-93V247.098z"/>
	
		<linearGradient id="SVGID_15_" gradientUnits="userSpaceOnUse" x1="202.2231" y1="198.3032" x2="309.2222" y2="198.3032" gradientTransform="matrix(0.75 0 0 -0.75 114.454 341.547)">
		<stop  offset="0" style="stop-color:#918689"/>
		<stop  offset="0.26" style="stop-color:#B7A9AD"/>
		<stop  offset="0.54" style="stop-color:#D6CBCE"/>
		<stop  offset="0.76" style="stop-color:#CFC2C5"/>
		<stop  offset="1" style="stop-color:#918689"/>
	</linearGradient>
	<path fill="url(#SVGID_15_)" d="M266.121,190.57h80.25v4.5h-80.25V190.57z"/>
</g>
</svg>
