<?xml version="1.0" encoding="utf-8"?>
<!-- Generator: Adobe Illustrator 16.0.0, SVG Export Plug-In . SVG Version: 6.00 Build 0)  -->
<!DOCTYPE svg PUBLIC "-//W3C//DTD SVG 1.1//EN" "http://www.w3.org/Graphics/SVG/1.1/DTD/svg11.dtd">
<svg preserveAspectRatio="none"   version="1.1" id="图层_1" xmlns="http://www.w3.org/2000/svg" xmlns:xlink="http://www.w3.org/1999/xlink" x="0px" y="0px"
	 width="355.5px" height="565.464px" viewBox="105.836 0.773 355.5 565.464" enable-background="new 105.836 0.773 355.5 565.464"
	 xml:space="preserve">
<g id="surface86">
	
		<linearGradient id="SVGID_1_" gradientUnits="userSpaceOnUse" x1="676.2241" y1="-105.1934" x2="202.2241" y2="-105.1934" gradientTransform="matrix(0.75 0 0 -0.75 -45.8331 174.4044)">
		<stop  offset="0" style="stop-color:#ADAB86"/>
		<stop  offset="0.15" style="stop-color:#EBE9BB"/>
		<stop  offset="0.25" style="stop-color:#F4F2DB"/>
		<stop  offset="0.52" style="stop-color:#CDCA9F"/>
		<stop  offset="0.69" style="stop-color:#B6B48D"/>
		<stop  offset="0.8" style="stop-color:#ACAA85"/>
		<stop  offset="0.92" style="stop-color:#A2A07D"/>
		<stop  offset="1" style="stop-color:#BAB890"/>
	</linearGradient>
	<path fill="url(#SVGID_1_)" d="M105.836,23.426h355.5v459.75h-355.5V23.426z"/>
	
		<linearGradient id="SVGID_2_" gradientUnits="userSpaceOnUse" x1="676.2241" y1="197.8042" x2="202.2241" y2="197.8042" gradientTransform="matrix(0.75 0 0 -0.75 -45.8331 508.8282)">
		<stop  offset="0" style="stop-color:#A09D5C"/>
		<stop  offset="0.15" style="stop-color:#DBD78B"/>
		<stop  offset="0.25" style="stop-color:#EBE9C6"/>
		<stop  offset="0.52" style="stop-color:#BDB96E"/>
		<stop  offset="0.69" style="stop-color:#A8A562"/>
		<stop  offset="0.8" style="stop-color:#9E9B5C"/>
		<stop  offset="0.92" style="stop-color:#959356"/>
		<stop  offset="1" style="stop-color:#ACA964"/>
	</linearGradient>
	<path fill="url(#SVGID_2_)" d="M105.836,357.851h355.5v5.25h-355.5V357.851z"/>
	
		<linearGradient id="SVGID_3_" gradientUnits="userSpaceOnUse" x1="676.2241" y1="192.8032" x2="202.2241" y2="192.8032" gradientTransform="matrix(0.75 0 0 -0.75 -45.8331 621.0187)">
		<stop  offset="0" style="stop-color:#A09D5C"/>
		<stop  offset="0.15" style="stop-color:#DBD78B"/>
		<stop  offset="0.25" style="stop-color:#EBE9C6"/>
		<stop  offset="0.52" style="stop-color:#BDB96E"/>
		<stop  offset="0.69" style="stop-color:#A8A562"/>
		<stop  offset="0.8" style="stop-color:#9E9B5C"/>
		<stop  offset="0.92" style="stop-color:#959356"/>
		<stop  offset="1" style="stop-color:#ACA964"/>
	</linearGradient>
	<path fill="url(#SVGID_3_)" d="M105.836,470.042h355.5v12.75h-355.5V470.042z"/>
	
		<linearGradient id="SVGID_4_" gradientUnits="userSpaceOnUse" x1="676.2241" y1="192.8062" x2="202.2241" y2="192.8061" gradientTransform="matrix(0.75 0 0 -0.75 -45.8331 174.4044)">
		<stop  offset="0" style="stop-color:#A09D5C"/>
		<stop  offset="0.15" style="stop-color:#DBD78B"/>
		<stop  offset="0.25" style="stop-color:#EBE9C6"/>
		<stop  offset="0.52" style="stop-color:#BDB96E"/>
		<stop  offset="0.69" style="stop-color:#A8A562"/>
		<stop  offset="0.8" style="stop-color:#9E9B5C"/>
		<stop  offset="0.92" style="stop-color:#959356"/>
		<stop  offset="1" style="stop-color:#ACA964"/>
	</linearGradient>
	<path fill="url(#SVGID_4_)" d="M105.836,23.426h355.5v12.75h-355.5V23.426z"/>
	
		<linearGradient id="SVGID_5_" gradientUnits="userSpaceOnUse" x1="202.2266" y1="145.8062" x2="248.2266" y2="145.8062" gradientTransform="matrix(0.75 0 0 -0.75 -36.0607 633.9669)">
		<stop  offset="0" style="stop-color:#9B976F"/>
		<stop  offset="0.01" style="stop-color:#E4DFB8"/>
		<stop  offset="0.05" style="stop-color:#CBC592"/>
		<stop  offset="0.9" style="stop-color:#C7C290"/>
		<stop  offset="0.95" style="stop-color:#C3BD8C"/>
		<stop  offset="1" style="stop-color:#908C67"/>
	</linearGradient>
	<path fill="url(#SVGID_5_)" d="M115.609,482.988h34.5l-19.5,83.25h-15V482.988z"/>
	
		<linearGradient id="SVGID_6_" gradientUnits="userSpaceOnUse" x1="165.7026" y1="145.8062" x2="211.7026" y2="145.8062" gradientTransform="matrix(-0.75 0 0 -0.75 576.2091 633.9669)">
		<stop  offset="0" style="stop-color:#9B976F"/>
		<stop  offset="0.01" style="stop-color:#E4DFB8"/>
		<stop  offset="0.05" style="stop-color:#CBC592"/>
		<stop  offset="0.9" style="stop-color:#C7C290"/>
		<stop  offset="0.95" style="stop-color:#C3BD8C"/>
		<stop  offset="1" style="stop-color:#908C67"/>
	</linearGradient>
	<path fill="url(#SVGID_6_)" d="M451.933,482.988h-34.5l19.5,83.25h15V482.988z"/>
	
		<linearGradient id="SVGID_7_" gradientUnits="userSpaceOnUse" x1="165.7046" y1="145.8062" x2="211.7046" y2="145.8062" gradientTransform="matrix(-0.75 0 0 -0.75 407.6407 633.9669)">
		<stop  offset="0" style="stop-color:#9B976F"/>
		<stop  offset="0.01" style="stop-color:#E4DFB8"/>
		<stop  offset="0.05" style="stop-color:#CBC592"/>
		<stop  offset="0.9" style="stop-color:#C7C290"/>
		<stop  offset="0.95" style="stop-color:#C3BD8C"/>
		<stop  offset="1" style="stop-color:#908C67"/>
	</linearGradient>
	<path fill="url(#SVGID_7_)" d="M283.363,482.988h-34.5l19.5,83.25h15V482.988z"/>
	
		<linearGradient id="SVGID_8_" gradientUnits="userSpaceOnUse" x1="202.2251" y1="145.8062" x2="248.2251" y2="145.8062" gradientTransform="matrix(0.75 0 0 -0.75 131.6942 633.9669)">
		<stop  offset="0" style="stop-color:#9B976F"/>
		<stop  offset="0.01" style="stop-color:#E4DFB8"/>
		<stop  offset="0.05" style="stop-color:#CBC592"/>
		<stop  offset="0.9" style="stop-color:#C7C290"/>
		<stop  offset="0.95" style="stop-color:#C3BD8C"/>
		<stop  offset="1" style="stop-color:#908C67"/>
	</linearGradient>
	<path fill="url(#SVGID_8_)" d="M283.363,482.988h34.5l-19.5,83.25h-15V482.988z"/>
	
		<linearGradient id="SVGID_9_" gradientUnits="userSpaceOnUse" x1="675.9009" y1="185.3042" x2="202.2241" y2="185.3042" gradientTransform="matrix(0.75 0 0 -0.75 -45.8331 151.7501)">
		<stop  offset="0" style="stop-color:#ADAB86"/>
		<stop  offset="0.15" style="stop-color:#EBE9BB"/>
		<stop  offset="0.25" style="stop-color:#F4F2DB"/>
		<stop  offset="0.52" style="stop-color:#CDCA9F"/>
		<stop  offset="0.69" style="stop-color:#B6B48D"/>
		<stop  offset="0.8" style="stop-color:#ACAA85"/>
		<stop  offset="0.92" style="stop-color:#A2A07D"/>
		<stop  offset="1" style="stop-color:#BAB890"/>
	</linearGradient>
	<path fill="url(#SVGID_9_)" d="M283.586,0.773c177.75,0,177.507,23.73,177.507,23.73l-355.257,0.27c0,0,1.094-24,178.078-24
		H283.586z"/>
	
		<radialGradient id="SVGID_10_" cx="265.4141" cy="138.4971" r="89.0913" gradientTransform="matrix(0.75 0 0 -0.75 84.4042 407.254)" gradientUnits="userSpaceOnUse">
		<stop  offset="0" style="stop-color:#C3C07F"/>
		<stop  offset="0.54" style="stop-color:#BFBC7D"/>
		<stop  offset="0.74" style="stop-color:#E8E6D2"/>
		<stop  offset="0.91" style="stop-color:#BFBC7D"/>
		<stop  offset="1" style="stop-color:#BFBC7D"/>
	</radialGradient>
	<path fill="url(#SVGID_10_)" stroke="#D4D199" stroke-width="0.25" stroke-linejoin="bevel" stroke-miterlimit="10" d="
		M236.074,303.527c0-26.25,21.219-47.25,47.391-47.25c26.109,0,47.39,21.086,47.39,47.101c-0.281,25.648-21.219,47.105-47.39,47.105
		c-26.391,0.293-47.391-21.09-47.391-47.105V303.527z"/>
	<path fill="#727970" d="M244.43,303.582c0-21.75,17.477-39,39.035-39c21.714,0,39.031,17.371,39.031,38.796
		c-0.066,21.203-17.473,38.797-39.031,38.797c-21.785-0.344-39.035-17.367-39.035-38.797V303.582z"/>
	
		<radialGradient id="SVGID_11_" cx="251.6538" cy="152.1748" r="69.6903" gradientTransform="matrix(0.75 0 0 -0.75 94.725 417.5118)" gradientUnits="userSpaceOnUse">
		<stop  offset="0" style="stop-color:#D3D1A7"/>
		<stop  offset="0.05" style="stop-color:#D3D1A7"/>
		<stop  offset="0.54" style="stop-color:#CFCDA4"/>
		<stop  offset="0.59" style="stop-color:#E5E4C9"/>
		<stop  offset="0.63" style="stop-color:#CFCDA4"/>
		<stop  offset="1" style="stop-color:#CFCDA4"/>
	</radialGradient>
	<path fill="url(#SVGID_11_)" stroke="#DCDAB6" stroke-width="0.25" stroke-linejoin="bevel" stroke-miterlimit="10" d="
		M246.395,303.285c0-20.25,16.598-36.75,37.07-36.75c20.679,0,37.07,16.496,37.07,36.843c0.109,20.156-16.598,36.848-37.07,36.848
		c-20.57-0.191-37.07-16.496-37.07-36.848V303.285z"/>
	<path fill="#DAE0D7" d="M252.34,303.195c0-17.25,13.934-30.75,31.125-30.75c16.875,0,31.125,13.851,31.125,30.933
		c0,17.066-13.938,30.938-31.125,30.938c-16.875-0.371-31.125-13.852-31.125-30.938V303.195z"/>
	
		<linearGradient id="SVGID_12_" gradientUnits="userSpaceOnUse" x1="233.7778" y1="117.3823" x2="249.5553" y2="206.8609" gradientTransform="matrix(0.75 0 0 -0.75 102.2308 424.9728)">
		<stop  offset="0" style="stop-color:#DFDDBE"/>
		<stop  offset="0.18" style="stop-color:#D3D1B0"/>
		<stop  offset="0.44" style="stop-color:#C1C0A2"/>
		<stop  offset="0.69" style="stop-color:#ACAA8F"/>
		<stop  offset="1" style="stop-color:#918F78"/>
	</linearGradient>
	<path fill="url(#SVGID_12_)" d="M253.898,303.246c0-15.75,13.238-29.25,29.566-29.25c16.183,0,29.562,13.156,29.562,29.382
		c0.121,16.367-13.234,29.387-29.562,29.387c-16.066-0.27-29.566-13.156-29.566-29.387V303.246z"/>
</g>
</svg>
