<?xml version="1.0" encoding="utf-8"?>
<!-- Generator: Adobe Illustrator 16.0.0, SVG Export Plug-In . SVG Version: 6.00 Build 0)  -->
<!DOCTYPE svg PUBLIC "-//W3C//DTD SVG 1.1//EN" "http://www.w3.org/Graphics/SVG/1.1/DTD/svg11.dtd">
<svg preserveAspectRatio="none"   version="1.1" id="图层_1" xmlns="http://www.w3.org/2000/svg" xmlns:xlink="http://www.w3.org/1999/xlink" x="0px" y="0px"
	 width="370.332px" height="558.695px" viewBox="98.391 4.254 370.332 558.695"
	 enable-background="new 98.391 4.254 370.332 558.695" xml:space="preserve">
<g id="surface301">
	<path fill="#D4CBCD" d="M247.641,205.316c0,0,2.473-28.41-21.879-53.199c-24.621-24.801-55.18-22.551-55.18-22.551
		c-0.191,0-25.988-0.375-45.969,15.117c-20.223,15.633-26.223,37.18-26.223,37.18c0,0.203,26.848,0,26.848,0
		c18.902-26.047,45.344-26.211,45.344-26.211c-0.191,0.164,22.391-0.313,35.637,11.313c14.422,12.102,14.297,38.23,14.297,38.23
		L247.641,205.316z"/>
	<path fill="#DBD2D4" d="M245.922,203.734c0,0,0.348-27.949-21.512-49.805c-24.238-23.695-53.688-22.195-53.688-22.195
		c0.199,0-25.809,0-45.242,15.496c-16.809,13.004-23.363,29.898-25.059,34.793c0-0.039,6.945-0.07,6.945-0.07
		c16.305-47.969,63.605-45.613,63.605-45.613c-0.051-0.105,30.523-1.027,50.23,21.094c17.219,17.051,18.891,46.629,18.891,46.629
		L245.922,203.734z"/>
	<path fill="#E5DEE0" d="M242.699,204.414c0,0-1.48-28.02-20.164-47.664c-21.836-22.836-50.996-22.086-50.996-22.086
		c-0.09,0-24.633,0-42.527,14.195c-16.813,13.555-25.063,33.094-25.063,33.094c0-0.039,3.973-0.086,3.973-0.086
		c20.027-46.453,63.441-43.641,63.441-43.641c0.086,0.188,27.141-2.059,48.926,20.75c17.91,19.938,18.84,45.145,18.84,45.145
		L242.699,204.414z"/>
	<path fill="#E0D7D9" d="M239.922,203.984c0,0,0.281-24.797-20.383-45.934c-22.367-22.316-48.176-19.98-48.176-19.98
		c0.309-0.086-20.859-1.043-39.414,12.789c-18.027,13.375-24.027,31.008-24.027,31.008c0,0.367,4.148-0.25,4.148-0.25
		c21.352-42.883,59.121-40.133,59.121-40.133c-0.27,0.25,23.332-2.551,46.156,19.039c18.824,17.211,18.672,43.742,18.672,43.742
		L239.922,203.984z"/>
	<path fill="#D9D0D2" d="M235.84,204.398c0,0,0.402-25.363-17.223-42.676c-23.277-23.324-47.426-20.219-47.426-20.219
		c0.148-0.105-19.074-1.16-37.168,12.445c-15.184,11.449-21.934,27.668-21.934,27.668c0,0.281,5.109,0.25,5.109,0.25
		c18.891-37.469,53.934-35.238,53.934-35.238c0.207,0.02,24.781-1.141,43.336,18.523c15.371,16.746,15.902,38.875,15.902,38.871
		L235.84,204.398z"/>
	<path fill="#CDC5C7" d="M226.313,204.086c0,0-1.227-23.152-15.73-37.848c-17.27-17.652-40.863-16.152-40.863-16.152
		c0.344,0-14.227-1.035-29.922,10.422c-13.234,9.828-18.484,21.293-18.484,21.293c0-0.215,4.234-0.266,4.234-0.266
		c19.016-25.449,42.961-25.609,42.961-25.609c0.055,0.16,23.047-2.664,37.617,12.277c15.688,16.383,14.473,35.73,14.473,35.73
		L226.313,204.086z"/>
	
		<linearGradient id="SVGID_1_" gradientUnits="userSpaceOnUse" x1="202.2261" y1="-100.1958" x2="305.2251" y2="-100.1958" gradientTransform="matrix(0.75 0 0 -0.75 119.077 261.6769)">
		<stop  offset="0" style="stop-color:#9E9799;stop-opacity:0.502"/>
		<stop  offset="0.17" style="stop-color:#C7BEC0;stop-opacity:0.502"/>
		<stop  offset="0.68" style="stop-color:#E4DCDD;stop-opacity:0.502"/>
		<stop  offset="0.83" style="stop-color:#DFD6D8;stop-opacity:0.502"/>
		<stop  offset="1" style="stop-color:#9E9798;stop-opacity:0.502"/>
	</linearGradient>
	<path fill="url(#SVGID_1_)" d="M347.996,110.699v445.5c0,3.75-2.402,6.418-5.664,6.418l-65.585,0.332c-3.75,0-6-3.219-6-6.73
		V110.699H347.996z"/>
	
		<linearGradient id="SVGID_2_" gradientUnits="userSpaceOnUse" x1="202.2241" y1="-13.6938" x2="240.2241" y2="-13.6938" gradientTransform="matrix(0.75 0 0 -0.75 68.3788 354.2208)">
		<stop  offset="0" style="stop-color:#9E9799"/>
		<stop  offset="0.26" style="stop-color:#C7BEC0"/>
		<stop  offset="0.54" style="stop-color:#E4DCDD"/>
		<stop  offset="0.76" style="stop-color:#DFD6D8"/>
		<stop  offset="1" style="stop-color:#9E9798"/>
	</linearGradient>
	<path fill="url(#SVGID_2_)" d="M220.047,203.242h28.5v322.5h-28.5V203.242z"/>
	
		<linearGradient id="SVGID_3_" gradientUnits="userSpaceOnUse" x1="202.2246" y1="194.3042" x2="215.2246" y2="194.3042" gradientTransform="matrix(0.75 0 0 -0.75 77.765 695.7003)">
		<stop  offset="0" style="stop-color:#9E9799"/>
		<stop  offset="0.26" style="stop-color:#C7BEC0"/>
		<stop  offset="0.54" style="stop-color:#E4DCDD"/>
		<stop  offset="0.76" style="stop-color:#DFD6D8"/>
		<stop  offset="1" style="stop-color:#9E9798"/>
	</linearGradient>
	<path fill="url(#SVGID_3_)" d="M229.434,544.722h9.75v10.5h-9.75V544.722z"/>
	
		<linearGradient id="SVGID_4_" gradientUnits="userSpaceOnUse" x1="202.2241" y1="195.8062" x2="240.2241" y2="195.8062" gradientTransform="matrix(0.75 0 0 -0.75 68.3788 687.8888)">
		<stop  offset="0" style="stop-color:#9E9799"/>
		<stop  offset="0.26" style="stop-color:#C7BEC0"/>
		<stop  offset="0.54" style="stop-color:#E4DCDD"/>
		<stop  offset="0.76" style="stop-color:#DFD6D8"/>
		<stop  offset="1" style="stop-color:#9E9798"/>
	</linearGradient>
	<path fill="url(#SVGID_4_)" d="M220.047,536.91h28.5l-9,8.25h-9.75L220.047,536.91z"/>
	
		<linearGradient id="SVGID_5_" gradientUnits="userSpaceOnUse" x1="202.2246" y1="186.8042" x2="245.2246" y2="186.8042" gradientTransform="matrix(0.75 0 0 -0.75 66.3905 649.3097)">
		<stop  offset="0" style="stop-color:#90868A"/>
		<stop  offset="0.26" style="stop-color:#B6A9AE"/>
		<stop  offset="0.54" style="stop-color:#D5CBCF"/>
		<stop  offset="0.76" style="stop-color:#CEC2C6"/>
		<stop  offset="1" style="stop-color:#90868A"/>
	</linearGradient>
	<path fill="url(#SVGID_5_)" d="M218.059,498.332h32.25v21.75h-32.25V498.332z"/>
	
		<linearGradient id="SVGID_6_" gradientUnits="userSpaceOnUse" x1="206.2227" y1="166.3066" x2="206.2227" y2="201.3066" gradientTransform="matrix(0.75 0 0 -0.75 113.1332 667.2404)">
		<stop  offset="0" style="stop-color:#9E9799"/>
		<stop  offset="0.26" style="stop-color:#C7BEC0"/>
		<stop  offset="0.54" style="stop-color:#E4DCDD"/>
		<stop  offset="0.76" style="stop-color:#DFD6D8"/>
		<stop  offset="1" style="stop-color:#9E9798"/>
	</linearGradient>
	<path fill="url(#SVGID_6_)" d="M270.801,516.261h-6v26.25h6V516.261z"/>
	
		<linearGradient id="SVGID_7_" gradientUnits="userSpaceOnUse" x1="202.2241" y1="-22.1958" x2="216.2241" y2="-22.1958" gradientTransform="matrix(0.75 0 0 -0.75 152.5897 261.6769)">
		<stop  offset="0" style="stop-color:#9E9799"/>
		<stop  offset="0.26" style="stop-color:#C7BEC0"/>
		<stop  offset="0.54" style="stop-color:#E4DCDD"/>
		<stop  offset="0.76" style="stop-color:#DFD6D8"/>
		<stop  offset="1" style="stop-color:#9E9798"/>
	</linearGradient>
	<path fill="url(#SVGID_7_)" d="M314.757,110.699v335.25h-10.5v-335.25H314.757z"/>
	
		<linearGradient id="SVGID_8_" gradientUnits="userSpaceOnUse" x1="211.7246" y1="181.3057" x2="211.7246" y2="201.3057" gradientTransform="matrix(0.75 0 0 -0.75 99.3553 381.5685)">
		<stop  offset="0" style="stop-color:#9E9799"/>
		<stop  offset="0.26" style="stop-color:#C7BEC0"/>
		<stop  offset="0.54" style="stop-color:#E4DCDD"/>
		<stop  offset="0.76" style="stop-color:#DFD6D8"/>
		<stop  offset="1" style="stop-color:#9E9798"/>
	</linearGradient>
	<path fill="url(#SVGID_8_)" d="M251.023,230.59h14.25v15h-14.25V230.59z"/>
	
		<linearGradient id="SVGID_9_" gradientUnits="userSpaceOnUse" x1="206.2266" y1="165.3057" x2="206.2266" y2="201.3057" gradientTransform="matrix(0.75 0 0 -0.75 113.139 375.463)">
		<stop  offset="0" style="stop-color:#9E9799"/>
		<stop  offset="0.26" style="stop-color:#C7BEC0"/>
		<stop  offset="0.54" style="stop-color:#E4DCDD"/>
		<stop  offset="0.76" style="stop-color:#DFD6D8"/>
		<stop  offset="1" style="stop-color:#9E9798"/>
	</linearGradient>
	<path fill="url(#SVGID_9_)" d="M270.809,224.484h-6v27h6V224.484z"/>
	
		<linearGradient id="SVGID_10_" gradientUnits="userSpaceOnUse" x1="211.7246" y1="181.3037" x2="211.7246" y2="201.3027" gradientTransform="matrix(0.75 0 0 -0.75 99.3553 421.4298)">
		<stop  offset="0" style="stop-color:#9E9799"/>
		<stop  offset="0.26" style="stop-color:#C7BEC0"/>
		<stop  offset="0.54" style="stop-color:#E4DCDD"/>
		<stop  offset="0.76" style="stop-color:#DFD6D8"/>
		<stop  offset="1" style="stop-color:#9E9798"/>
	</linearGradient>
	<path fill="url(#SVGID_10_)" d="M251.023,270.453h14.25v15h-14.25V270.453z"/>
	
		<linearGradient id="SVGID_11_" gradientUnits="userSpaceOnUse" x1="206.2266" y1="165.3057" x2="206.2266" y2="201.3047" gradientTransform="matrix(0.75 0 0 -0.75 113.139 415.3263)">
		<stop  offset="0" style="stop-color:#9E9799"/>
		<stop  offset="0.26" style="stop-color:#C7BEC0"/>
		<stop  offset="0.54" style="stop-color:#E4DCDD"/>
		<stop  offset="0.76" style="stop-color:#DFD6D8"/>
		<stop  offset="1" style="stop-color:#9E9798"/>
	</linearGradient>
	<path fill="url(#SVGID_11_)" d="M270.809,264.348h-6v27h6V264.348z"/>
	
		<linearGradient id="SVGID_12_" gradientUnits="userSpaceOnUse" x1="202.2246" y1="157.856" x2="247.3496" y2="157.856" gradientTransform="matrix(0.75 0 0 -0.75 65.6947 375.6017)">
		<stop  offset="0" style="stop-color:#93888B"/>
		<stop  offset="0.26" style="stop-color:#B9ABB0"/>
		<stop  offset="0.54" style="stop-color:#D7CCD0"/>
		<stop  offset="0.76" style="stop-color:#D1C3C8"/>
		<stop  offset="1" style="stop-color:#93888B"/>
	</linearGradient>
	<path fill="url(#SVGID_12_)" d="M218.863,224.625h30.75c0.75,0,1.594,0.578,1.594,1.387l-0.094,62.363
		c0,0.75-0.566,1.492-1.383,1.492l-30.867,0.008c-0.75,0-1.5-0.664-1.5-1.473v-62.277c0-0.75,0.66-1.578,1.477-1.578
		L218.863,224.625z"/>
	
		<linearGradient id="SVGID_13_" gradientUnits="userSpaceOnUse" x1="202.2261" y1="191.3032" x2="305.2251" y2="191.3032" gradientTransform="matrix(0.75 0 0 -0.75 119.077 344.1613)">
		<stop  offset="0" style="stop-color:#93888B"/>
		<stop  offset="0.26" style="stop-color:#B9ABB0"/>
		<stop  offset="0.54" style="stop-color:#D7CCD0"/>
		<stop  offset="0.76" style="stop-color:#D1C3C8"/>
		<stop  offset="1" style="stop-color:#93888B"/>
	</linearGradient>
	<path fill="url(#SVGID_13_)" d="M347.996,193.184v14.25c0,0.75-2.402,0.496-5.664,0.496l-65.585,0.254c-3.75,0-6-0.348-6-0.461
		v-14.539H347.996z"/>
	
		<linearGradient id="SVGID_14_" gradientUnits="userSpaceOnUse" x1="202.2271" y1="191.3062" x2="311.2261" y2="191.3062" gradientTransform="matrix(0.75 0 0 -0.75 117.1542 358.9327)">
		<stop  offset="0" style="stop-color:#9E9799"/>
		<stop  offset="0.26" style="stop-color:#C7BEC0"/>
		<stop  offset="0.54" style="stop-color:#E4DCDD"/>
		<stop  offset="0.76" style="stop-color:#DFD6D8"/>
		<stop  offset="1" style="stop-color:#9E9798"/>
	</linearGradient>
	<path fill="url(#SVGID_14_)" d="M350.574,207.953v14.25c0,0.75-3.188,0.5-6.613,0.5l-69.136,0.25c-3,0-6-0.348-6-0.461v-14.539
		H350.574z"/>
	
		<linearGradient id="SVGID_15_" gradientUnits="userSpaceOnUse" x1="202.2271" y1="191.3042" x2="311.2261" y2="191.3042" gradientTransform="matrix(0.75 0 0 -0.75 117.1542 442.673)">
		<stop  offset="0" style="stop-color:#9E9799"/>
		<stop  offset="0.26" style="stop-color:#C7BEC0"/>
		<stop  offset="0.54" style="stop-color:#E4DCDD"/>
		<stop  offset="0.76" style="stop-color:#DFD6D8"/>
		<stop  offset="1" style="stop-color:#9E9798"/>
	</linearGradient>
	<path fill="url(#SVGID_15_)" d="M350.574,291.695v14.25c0,0.75-3.188,0.496-6.613,0.496l-69.136,0.254c-3,0-6-0.348-6-0.461
		v-14.539H350.574z"/>
	
		<linearGradient id="SVGID_16_" gradientUnits="userSpaceOnUse" x1="202.2261" y1="176.8042" x2="225.2261" y2="176.8042" gradientTransform="matrix(0.75 0 0 -0.75 149.2284 373.755)">
		<stop  offset="0" style="stop-color:#007D3A"/>
		<stop  offset="0.26" style="stop-color:#009E4B"/>
		<stop  offset="0.54" style="stop-color:#7CC38E"/>
		<stop  offset="0.76" style="stop-color:#50B770"/>
		<stop  offset="1" style="stop-color:#007D3A"/>
	</linearGradient>
	<path fill="url(#SVGID_16_)" d="M300.898,222.777h17.25v36.75h-17.25V222.777z"/>
	
		<linearGradient id="SVGID_17_" gradientUnits="userSpaceOnUse" x1="202.2261" y1="188.3042" x2="221.2261" y2="188.3042" gradientTransform="matrix(0.75 0 0 -0.75 150.7675 410.6261)">
		<stop  offset="0" style="stop-color:#005531"/>
		<stop  offset="0.26" style="stop-color:#006D3F"/>
		<stop  offset="0.54" style="stop-color:#7CA089"/>
		<stop  offset="0.76" style="stop-color:#508A68"/>
		<stop  offset="1" style="stop-color:#005531"/>
	</linearGradient>
	<path fill="url(#SVGID_17_)" d="M302.437,259.648h14.25v19.5h-14.25V259.648z"/>
	
		<linearGradient id="SVGID_18_" gradientUnits="userSpaceOnUse" x1="221.7227" y1="190.3027" x2="221.7227" y2="201.3027" gradientTransform="matrix(0.75 0 0 -0.75 166.9188 389.8712)">
		<stop  offset="0" style="stop-color:#126A2B"/>
		<stop  offset="0.26" style="stop-color:#198738"/>
		<stop  offset="0.54" style="stop-color:#7EB186"/>
		<stop  offset="0.76" style="stop-color:#55A163"/>
		<stop  offset="1" style="stop-color:#126A2B"/>
	</linearGradient>
	<path fill="url(#SVGID_18_)" d="M318.585,238.895h29.25v8.25h-29.25V238.895z"/>
	
		<linearGradient id="SVGID_19_" gradientUnits="userSpaceOnUse" x1="202.2271" y1="151.3022" x2="334.2261" y2="151.3022" gradientTransform="matrix(0.75 0 0 -0.75 108.4628 167.3634)">
		<stop  offset="0" style="stop-color:#9E9799;stop-opacity:0.502"/>
		<stop  offset="0.17" style="stop-color:#C7BEC0;stop-opacity:0.502"/>
		<stop  offset="0.68" style="stop-color:#E4DCDD;stop-opacity:0.502"/>
		<stop  offset="0.83" style="stop-color:#DFD6D8;stop-opacity:0.502"/>
		<stop  offset="1" style="stop-color:#9E9798;stop-opacity:0.502"/>
	</linearGradient>
	<path fill="url(#SVGID_19_)" d="M260.133,16.387h99v75h-99V16.387z"/>
	
		<linearGradient id="SVGID_20_" gradientUnits="userSpaceOnUse" x1="202.2271" y1="188.3022" x2="334.2261" y2="188.3022" gradientTransform="matrix(0.75 0 0 -0.75 108.4628 242.754)">
		<stop  offset="0" style="stop-color:#242830"/>
		<stop  offset="0.83" style="stop-color:#5D5F64"/>
		<stop  offset="1" style="stop-color:#20242C"/>
	</linearGradient>
	<path fill="url(#SVGID_20_)" d="M260.133,91.777h99l-10.5,19.5h-78L260.133,91.777z"/>
	
		<linearGradient id="SVGID_21_" gradientUnits="userSpaceOnUse" x1="202.2271" y1="192.3032" x2="334.2261" y2="192.3032" gradientTransform="matrix(0.75 0 0 -0.75 108.4628 155.2306)">
		<stop  offset="0" style="stop-color:#242830"/>
		<stop  offset="0.83" style="stop-color:#5D5F64"/>
		<stop  offset="1" style="stop-color:#20242C"/>
	</linearGradient>
	<path fill="url(#SVGID_21_)" d="M266.133,4.254h87c3,0,5.762,2.605,5.762,5.844l0.238,7.656h-99v-7.5c0-3.75,2.613-6,5.875-6
		H266.133z"/>
	
		<linearGradient id="SVGID_22_" gradientUnits="userSpaceOnUse" x1="202.2271" y1="182.8071" x2="334.2261" y2="182.8071" gradientTransform="matrix(0.75 0 0 -0.75 108.4628 214.9171)">
		<stop  offset="0" style="stop-color:#9E9799"/>
		<stop  offset="0.26" style="stop-color:#C7BEC0"/>
		<stop  offset="0.54" style="stop-color:#E4DCDD"/>
		<stop  offset="0.76" style="stop-color:#DFD6D8"/>
		<stop  offset="1" style="stop-color:#9E9798"/>
	</linearGradient>
	<path fill="url(#SVGID_22_)" d="M297.632,63.938h24l37.5,27.75h-99L297.632,63.938z"/>
	
		<linearGradient id="SVGID_23_" gradientUnits="userSpaceOnUse" x1="202.2256" y1="180.8042" x2="234.2256" y2="180.8042" gradientTransform="matrix(0.75 0 0 -0.75 145.7367 184.1505)">
		<stop  offset="0" style="stop-color:#9E9799"/>
		<stop  offset="0.26" style="stop-color:#C7BEC0"/>
		<stop  offset="0.54" style="stop-color:#E4DCDD"/>
		<stop  offset="0.76" style="stop-color:#DFD6D8"/>
		<stop  offset="1" style="stop-color:#9E9798"/>
	</linearGradient>
	<path fill="url(#SVGID_23_)" d="M297.406,33.172h24v30.75h-24V33.172z"/>
	
		<linearGradient id="SVGID_24_" gradientUnits="userSpaceOnUse" x1="202.2251" y1="190.5957" x2="306.2251" y2="190.5957" gradientTransform="matrix(0.75 0 0 -0.75 118.8505 697.5343)">
		<stop  offset="0" style="stop-color:#93888B"/>
		<stop  offset="0.26" style="stop-color:#B9ABB0"/>
		<stop  offset="0.54" style="stop-color:#D7CCD0"/>
		<stop  offset="0.76" style="stop-color:#D1C3C8"/>
		<stop  offset="1" style="stop-color:#93888B"/>
	</linearGradient>
	<path fill="url(#SVGID_24_)" d="M348.519,546.558v9.75c0,3.75-2.922,6.309-6.184,6.309l-65.816-0.309c-3,0-5.77-2.578-6-6.09v-9.66
		H348.519z"/>
	
		<linearGradient id="SVGID_25_" gradientUnits="userSpaceOnUse" x1="202.2246" y1="198.8081" x2="245.2246" y2="198.8081" gradientTransform="matrix(0.75 0 0 -0.75 66.3905 667.3781)">
		<stop  offset="0" style="stop-color:#82767A"/>
		<stop  offset="0.26" style="stop-color:#A5959A"/>
		<stop  offset="0.54" style="stop-color:#C7BCBF"/>
		<stop  offset="0.76" style="stop-color:#BDAFB3"/>
		<stop  offset="1" style="stop-color:#82767A"/>
	</linearGradient>
	<path fill="url(#SVGID_25_)" d="M218.059,516.398h32.25v3.75h-32.25V516.398z"/>
	
		<linearGradient id="SVGID_26_" gradientUnits="userSpaceOnUse" x1="202.228" y1="187.8042" x2="268.228" y2="187.8042" gradientTransform="matrix(0.75 0 0 -0.75 64.1615 670.0636)">
		<stop  offset="0" style="stop-color:#867D81"/>
		<stop  offset="0.26" style="stop-color:#BAAEB3"/>
		<stop  offset="0.54" style="stop-color:#DCD2D5"/>
		<stop  offset="1" style="stop-color:#D6CACE"/>
	</linearGradient>
	<path fill="url(#SVGID_26_)" d="M215.832,519.085h49.5v20.25h-49.5V519.085z"/>
	
		<linearGradient id="SVGID_27_" gradientUnits="userSpaceOnUse" x1="202.2261" y1="154.3037" x2="305.2251" y2="154.3037" gradientTransform="matrix(0.75 0 0 -0.75 119.077 372.7775)">
		<stop  offset="0" style="stop-color:#9E9799;stop-opacity:0.702"/>
		<stop  offset="0.17" style="stop-color:#C7BEC0;stop-opacity:0.702"/>
		<stop  offset="0.68" style="stop-color:#E4DCDD;stop-opacity:0.702"/>
		<stop  offset="0.83" style="stop-color:#DFD6D8;stop-opacity:0.702"/>
		<stop  offset="1" style="stop-color:#9E9798;stop-opacity:0.702"/>
	</linearGradient>
	<path fill="url(#SVGID_27_)" d="M347.996,221.801v70.5h-77.25v-70.5H347.996z"/>
	
		<linearGradient id="SVGID_28_" gradientUnits="userSpaceOnUse" x1="202.228" y1="191.3022" x2="207.228" y2="191.3022" gradientTransform="matrix(0.75 0 0 -0.75 118.9501 358.8702)">
		<stop  offset="0" style="stop-color:#9E9799"/>
		<stop  offset="0.26" style="stop-color:#C7BEC0"/>
		<stop  offset="0.54" style="stop-color:#E4DCDD"/>
		<stop  offset="0.76" style="stop-color:#DFD6D8"/>
		<stop  offset="1" style="stop-color:#9E9798"/>
	</linearGradient>
	<path fill="url(#SVGID_28_)" d="M274.371,207.895v14.25c0,0.75-0.309,0.496-0.457,0.496l-3.293,0.254c0,0,0-0.348,0-0.465v-14.535
		H274.371z"/>
	
		<linearGradient id="SVGID_29_" gradientUnits="userSpaceOnUse" x1="202.2246" y1="191.3022" x2="207.2236" y2="191.3022" gradientTransform="matrix(0.75 0 0 -0.75 129.6952 358.8702)">
		<stop  offset="0" style="stop-color:#9E9799"/>
		<stop  offset="0.26" style="stop-color:#C7BEC0"/>
		<stop  offset="0.54" style="stop-color:#E4DCDD"/>
		<stop  offset="0.76" style="stop-color:#DFD6D8"/>
		<stop  offset="1" style="stop-color:#9E9798"/>
	</linearGradient>
	<path fill="url(#SVGID_29_)" d="M285.113,207.895v14.25c0,0.75-0.305,0.496-0.457,0.496l-3.292,0.254c0,0,0-0.348,0-0.465v-14.535
		H285.113z"/>
	
		<linearGradient id="SVGID_30_" gradientUnits="userSpaceOnUse" x1="202.2251" y1="191.3022" x2="207.2251" y2="191.3022" gradientTransform="matrix(0.75 0 0 -0.75 140.1356 358.8702)">
		<stop  offset="0" style="stop-color:#9E9799"/>
		<stop  offset="0.26" style="stop-color:#C7BEC0"/>
		<stop  offset="0.54" style="stop-color:#E4DCDD"/>
		<stop  offset="0.76" style="stop-color:#DFD6D8"/>
		<stop  offset="1" style="stop-color:#9E9798"/>
	</linearGradient>
	<path fill="url(#SVGID_30_)" d="M295.554,207.895v14.25c0,0.75-0.305,0.496-0.457,0.496l-3.293,0.254c0,0,0-0.348,0-0.465v-14.535
		H295.554z"/>
	
		<linearGradient id="SVGID_31_" gradientUnits="userSpaceOnUse" x1="202.2261" y1="191.3022" x2="207.2261" y2="191.3022" gradientTransform="matrix(0.75 0 0 -0.75 150.7284 358.8702)">
		<stop  offset="0" style="stop-color:#9E9799"/>
		<stop  offset="0.26" style="stop-color:#C7BEC0"/>
		<stop  offset="0.54" style="stop-color:#E4DCDD"/>
		<stop  offset="0.76" style="stop-color:#DFD6D8"/>
		<stop  offset="1" style="stop-color:#9E9798"/>
	</linearGradient>
	<path fill="url(#SVGID_31_)" d="M306.148,207.895v14.25c0,0.75-0.309,0.496-0.457,0.496l-3.293,0.254c0,0,0-0.348,0-0.465v-14.535
		H306.148z"/>
	
		<linearGradient id="SVGID_32_" gradientUnits="userSpaceOnUse" x1="202.2227" y1="191.3022" x2="207.2227" y2="191.3022" gradientTransform="matrix(0.75 0 0 -0.75 161.3212 358.8702)">
		<stop  offset="0" style="stop-color:#9E9799"/>
		<stop  offset="0.26" style="stop-color:#C7BEC0"/>
		<stop  offset="0.54" style="stop-color:#E4DCDD"/>
		<stop  offset="0.76" style="stop-color:#DFD6D8"/>
		<stop  offset="1" style="stop-color:#9E9798"/>
	</linearGradient>
	<path fill="url(#SVGID_32_)" d="M316.738,207.895v14.25c0,0.75-0.305,0.496-0.453,0.496l-3.297,0.254c0,0,0-0.348,0-0.465v-14.535
		H316.738z"/>
	
		<linearGradient id="SVGID_33_" gradientUnits="userSpaceOnUse" x1="202.2241" y1="191.3022" x2="207.2241" y2="191.3022" gradientTransform="matrix(0.75 0 0 -0.75 171.9139 358.8702)">
		<stop  offset="0" style="stop-color:#9E9799"/>
		<stop  offset="0.26" style="stop-color:#C7BEC0"/>
		<stop  offset="0.54" style="stop-color:#E4DCDD"/>
		<stop  offset="0.76" style="stop-color:#DFD6D8"/>
		<stop  offset="1" style="stop-color:#9E9798"/>
	</linearGradient>
	<path fill="url(#SVGID_33_)" d="M327.332,207.895v14.25c0,0.75-0.305,0.496-0.457,0.496l-3.293,0.254c0,0,0-0.348,0-0.465v-14.535
		H327.332z"/>
	
		<linearGradient id="SVGID_34_" gradientUnits="userSpaceOnUse" x1="202.2251" y1="191.3022" x2="207.2251" y2="191.3022" gradientTransform="matrix(0.75 0 0 -0.75 182.5067 358.8702)">
		<stop  offset="0" style="stop-color:#9E9799"/>
		<stop  offset="0.26" style="stop-color:#C7BEC0"/>
		<stop  offset="0.54" style="stop-color:#E4DCDD"/>
		<stop  offset="0.76" style="stop-color:#DFD6D8"/>
		<stop  offset="1" style="stop-color:#9E9798"/>
	</linearGradient>
	<path fill="url(#SVGID_34_)" d="M337.925,207.895v14.25c0,0.75-0.305,0.496-0.457,0.496l-3.293,0.254c0,0,0-0.348,0-0.465v-14.535
		H337.925z"/>
	
		<linearGradient id="SVGID_35_" gradientUnits="userSpaceOnUse" x1="202.2222" y1="191.3022" x2="207.2222" y2="191.3022" gradientTransform="matrix(0.75 0 0 -0.75 193.0985 358.8702)">
		<stop  offset="0" style="stop-color:#9E9799"/>
		<stop  offset="0.26" style="stop-color:#C7BEC0"/>
		<stop  offset="0.54" style="stop-color:#E4DCDD"/>
		<stop  offset="0.76" style="stop-color:#DFD6D8"/>
		<stop  offset="1" style="stop-color:#9E9798"/>
	</linearGradient>
	<path fill="url(#SVGID_35_)" d="M348.515,207.895v14.25c0,0.75-0.305,0.496-0.453,0.496l-3.297,0.254c0,0,0-0.348,0-0.465v-14.535
		H348.515z"/>
	
		<linearGradient id="SVGID_36_" gradientUnits="userSpaceOnUse" x1="202.2251" y1="194.8022" x2="207.2251" y2="194.8022" gradientTransform="matrix(0.75 0 0 -0.75 124.2025 346.7648)">
		<stop  offset="0" style="stop-color:#9E9799"/>
		<stop  offset="0.26" style="stop-color:#C7BEC0"/>
		<stop  offset="0.54" style="stop-color:#E4DCDD"/>
		<stop  offset="0.76" style="stop-color:#DFD6D8"/>
		<stop  offset="1" style="stop-color:#9E9798"/>
	</linearGradient>
	<path fill="url(#SVGID_36_)" d="M279.621,195.789v9c0,0.75-0.305,0.477-0.457,0.477l-3.293,0.273c0,0,0-0.336,0-0.41v-9.34H279.621
		z"/>
	
		<linearGradient id="SVGID_37_" gradientUnits="userSpaceOnUse" x1="202.2251" y1="194.8022" x2="207.2251" y2="194.8022" gradientTransform="matrix(0.75 0 0 -0.75 134.9476 346.7648)">
		<stop  offset="0" style="stop-color:#9E9799"/>
		<stop  offset="0.26" style="stop-color:#C7BEC0"/>
		<stop  offset="0.54" style="stop-color:#E4DCDD"/>
		<stop  offset="0.76" style="stop-color:#DFD6D8"/>
		<stop  offset="1" style="stop-color:#9E9798"/>
	</linearGradient>
	<path fill="url(#SVGID_37_)" d="M290.367,195.789v9c0,0.75-0.305,0.477-0.457,0.477l-3.293,0.273c0,0,0-0.336,0-0.41v-9.34H290.367
		z"/>
	
		<linearGradient id="SVGID_38_" gradientUnits="userSpaceOnUse" x1="202.2266" y1="194.8022" x2="207.2266" y2="194.8022" gradientTransform="matrix(0.75 0 0 -0.75 145.3881 346.7648)">
		<stop  offset="0" style="stop-color:#9E9799"/>
		<stop  offset="0.26" style="stop-color:#C7BEC0"/>
		<stop  offset="0.54" style="stop-color:#E4DCDD"/>
		<stop  offset="0.76" style="stop-color:#DFD6D8"/>
		<stop  offset="1" style="stop-color:#9E9798"/>
	</linearGradient>
	<path fill="url(#SVGID_38_)" d="M300.808,195.789v9c0,0.75-0.309,0.477-0.457,0.477l-3.293,0.273c0,0,0-0.336,0-0.41v-9.34H300.808
		z"/>
	
		<linearGradient id="SVGID_39_" gradientUnits="userSpaceOnUse" x1="202.2222" y1="194.8022" x2="207.2222" y2="194.8022" gradientTransform="matrix(0.75 0 0 -0.75 155.9813 346.7648)">
		<stop  offset="0" style="stop-color:#9E9799"/>
		<stop  offset="0.26" style="stop-color:#C7BEC0"/>
		<stop  offset="0.54" style="stop-color:#E4DCDD"/>
		<stop  offset="0.76" style="stop-color:#DFD6D8"/>
		<stop  offset="1" style="stop-color:#9E9798"/>
	</linearGradient>
	<path fill="url(#SVGID_39_)" d="M311.398,195.789v9c0,0.75-0.305,0.477-0.453,0.477l-3.297,0.273c0,0,0-0.336,0-0.41v-9.34H311.398
		z"/>
	
		<linearGradient id="SVGID_40_" gradientUnits="userSpaceOnUse" x1="202.2251" y1="194.8022" x2="207.2251" y2="194.8022" gradientTransform="matrix(0.75 0 0 -0.75 166.5731 346.7648)">
		<stop  offset="0" style="stop-color:#9E9799"/>
		<stop  offset="0.26" style="stop-color:#C7BEC0"/>
		<stop  offset="0.54" style="stop-color:#E4DCDD"/>
		<stop  offset="0.76" style="stop-color:#DFD6D8"/>
		<stop  offset="1" style="stop-color:#9E9798"/>
	</linearGradient>
	<path fill="url(#SVGID_40_)" d="M321.992,195.789v9c0,0.75-0.305,0.477-0.457,0.477l-3.293,0.273c0,0,0-0.336,0-0.41v-9.34H321.992
		z"/>
	
		<linearGradient id="SVGID_41_" gradientUnits="userSpaceOnUse" x1="202.2261" y1="194.8022" x2="207.2261" y2="194.8022" gradientTransform="matrix(0.75 0 0 -0.75 177.1659 346.7648)">
		<stop  offset="0" style="stop-color:#9E9799"/>
		<stop  offset="0.26" style="stop-color:#C7BEC0"/>
		<stop  offset="0.54" style="stop-color:#E4DCDD"/>
		<stop  offset="0.76" style="stop-color:#DFD6D8"/>
		<stop  offset="1" style="stop-color:#9E9798"/>
	</linearGradient>
	<path fill="url(#SVGID_41_)" d="M332.585,195.789v9c0,0.75-0.305,0.477-0.457,0.477l-3.293,0.273c0,0,0-0.336,0-0.41v-9.34H332.585
		z"/>
	
		<linearGradient id="SVGID_42_" gradientUnits="userSpaceOnUse" x1="202.2275" y1="194.8022" x2="207.2275" y2="194.8022" gradientTransform="matrix(0.75 0 0 -0.75 187.7587 346.7648)">
		<stop  offset="0" style="stop-color:#9E9799"/>
		<stop  offset="0.26" style="stop-color:#C7BEC0"/>
		<stop  offset="0.54" style="stop-color:#E4DCDD"/>
		<stop  offset="0.76" style="stop-color:#DFD6D8"/>
		<stop  offset="1" style="stop-color:#9E9798"/>
	</linearGradient>
	<path fill="url(#SVGID_42_)" d="M343.179,195.789v9c0,0.75-0.309,0.477-0.457,0.477l-3.293,0.273c0,0,0-0.336,0-0.41v-9.34H343.179
		z"/>
	
		<linearGradient id="SVGID_43_" gradientUnits="userSpaceOnUse" x1="202.228" y1="191.3042" x2="207.228" y2="191.3042" gradientTransform="matrix(0.75 0 0 -0.75 118.9501 442.6105)">
		<stop  offset="0" style="stop-color:#9E9799"/>
		<stop  offset="0.26" style="stop-color:#C7BEC0"/>
		<stop  offset="0.54" style="stop-color:#E4DCDD"/>
		<stop  offset="0.76" style="stop-color:#DFD6D8"/>
		<stop  offset="1" style="stop-color:#9E9798"/>
	</linearGradient>
	<path fill="url(#SVGID_43_)" d="M274.371,291.632v14.25c0,0.75-0.309,0.496-0.457,0.496l-3.293,0.254c0,0,0-0.348,0-0.461v-14.539
		H274.371z"/>
	
		<linearGradient id="SVGID_44_" gradientUnits="userSpaceOnUse" x1="202.2246" y1="191.3042" x2="207.2236" y2="191.3042" gradientTransform="matrix(0.75 0 0 -0.75 129.6952 442.6105)">
		<stop  offset="0" style="stop-color:#9E9799"/>
		<stop  offset="0.26" style="stop-color:#C7BEC0"/>
		<stop  offset="0.54" style="stop-color:#E4DCDD"/>
		<stop  offset="0.76" style="stop-color:#DFD6D8"/>
		<stop  offset="1" style="stop-color:#9E9798"/>
	</linearGradient>
	<path fill="url(#SVGID_44_)" d="M285.113,291.632v14.25c0,0.75-0.305,0.496-0.457,0.496l-3.292,0.254c0,0,0-0.348,0-0.461v-14.539
		H285.113z"/>
	
		<linearGradient id="SVGID_45_" gradientUnits="userSpaceOnUse" x1="202.2251" y1="191.3042" x2="207.2251" y2="191.3042" gradientTransform="matrix(0.75 0 0 -0.75 140.1356 442.6105)">
		<stop  offset="0" style="stop-color:#9E9799"/>
		<stop  offset="0.26" style="stop-color:#C7BEC0"/>
		<stop  offset="0.54" style="stop-color:#E4DCDD"/>
		<stop  offset="0.76" style="stop-color:#DFD6D8"/>
		<stop  offset="1" style="stop-color:#9E9798"/>
	</linearGradient>
	<path fill="url(#SVGID_45_)" d="M295.554,291.632v14.25c0,0.75-0.305,0.496-0.457,0.496l-3.293,0.254c0,0,0-0.348,0-0.461v-14.539
		H295.554z"/>
	
		<linearGradient id="SVGID_46_" gradientUnits="userSpaceOnUse" x1="202.2261" y1="191.3042" x2="207.2261" y2="191.3042" gradientTransform="matrix(0.75 0 0 -0.75 150.7284 442.6105)">
		<stop  offset="0" style="stop-color:#9E9799"/>
		<stop  offset="0.26" style="stop-color:#C7BEC0"/>
		<stop  offset="0.54" style="stop-color:#E4DCDD"/>
		<stop  offset="0.76" style="stop-color:#DFD6D8"/>
		<stop  offset="1" style="stop-color:#9E9798"/>
	</linearGradient>
	<path fill="url(#SVGID_46_)" d="M306.148,291.632v14.25c0,0.75-0.309,0.496-0.457,0.496l-3.293,0.254c0,0,0-0.348,0-0.461v-14.539
		H306.148z"/>
	
		<linearGradient id="SVGID_47_" gradientUnits="userSpaceOnUse" x1="202.2227" y1="191.3042" x2="207.2227" y2="191.3042" gradientTransform="matrix(0.75 0 0 -0.75 161.3212 442.6105)">
		<stop  offset="0" style="stop-color:#9E9799"/>
		<stop  offset="0.26" style="stop-color:#C7BEC0"/>
		<stop  offset="0.54" style="stop-color:#E4DCDD"/>
		<stop  offset="0.76" style="stop-color:#DFD6D8"/>
		<stop  offset="1" style="stop-color:#9E9798"/>
	</linearGradient>
	<path fill="url(#SVGID_47_)" d="M316.738,291.632v14.25c0,0.75-0.305,0.496-0.453,0.496l-3.297,0.254c0,0,0-0.348,0-0.461v-14.539
		H316.738z"/>
	
		<linearGradient id="SVGID_48_" gradientUnits="userSpaceOnUse" x1="202.2241" y1="191.3042" x2="207.2241" y2="191.3042" gradientTransform="matrix(0.75 0 0 -0.75 171.9139 442.6105)">
		<stop  offset="0" style="stop-color:#9E9799"/>
		<stop  offset="0.26" style="stop-color:#C7BEC0"/>
		<stop  offset="0.54" style="stop-color:#E4DCDD"/>
		<stop  offset="0.76" style="stop-color:#DFD6D8"/>
		<stop  offset="1" style="stop-color:#9E9798"/>
	</linearGradient>
	<path fill="url(#SVGID_48_)" d="M327.332,291.632v14.25c0,0.75-0.305,0.496-0.457,0.496l-3.293,0.254c0,0,0-0.348,0-0.461v-14.539
		H327.332z"/>
	
		<linearGradient id="SVGID_49_" gradientUnits="userSpaceOnUse" x1="202.2251" y1="191.3042" x2="207.2251" y2="191.3042" gradientTransform="matrix(0.75 0 0 -0.75 182.5067 442.6105)">
		<stop  offset="0" style="stop-color:#9E9799"/>
		<stop  offset="0.26" style="stop-color:#C7BEC0"/>
		<stop  offset="0.54" style="stop-color:#E4DCDD"/>
		<stop  offset="0.76" style="stop-color:#DFD6D8"/>
		<stop  offset="1" style="stop-color:#9E9798"/>
	</linearGradient>
	<path fill="url(#SVGID_49_)" d="M337.925,291.632v14.25c0,0.75-0.305,0.496-0.457,0.496l-3.293,0.254c0,0,0-0.348,0-0.461v-14.539
		H337.925z"/>
	
		<linearGradient id="SVGID_50_" gradientUnits="userSpaceOnUse" x1="202.2222" y1="191.3042" x2="207.2222" y2="191.3042" gradientTransform="matrix(0.75 0 0 -0.75 193.0985 442.6105)">
		<stop  offset="0" style="stop-color:#9E9799"/>
		<stop  offset="0.26" style="stop-color:#C7BEC0"/>
		<stop  offset="0.54" style="stop-color:#E4DCDD"/>
		<stop  offset="0.76" style="stop-color:#DFD6D8"/>
		<stop  offset="1" style="stop-color:#9E9798"/>
	</linearGradient>
	<path fill="url(#SVGID_50_)" d="M348.515,291.632v14.25c0,0.75-0.305,0.496-0.453,0.496l-3.297,0.254c0,0,0-0.348,0-0.461v-14.539
		H348.515z"/>
	
		<linearGradient id="SVGID_51_" gradientUnits="userSpaceOnUse" x1="202.2271" y1="191.3052" x2="311.2261" y2="191.3052" gradientTransform="matrix(0.75 0 0 -0.75 117.1542 652.9122)">
		<stop  offset="0" style="stop-color:#9E9799"/>
		<stop  offset="0.26" style="stop-color:#C7BEC0"/>
		<stop  offset="0.54" style="stop-color:#E4DCDD"/>
		<stop  offset="0.76" style="stop-color:#DFD6D8"/>
		<stop  offset="1" style="stop-color:#9E9798"/>
	</linearGradient>
	<path fill="url(#SVGID_51_)" d="M350.574,501.933v14.25c0,0.75-3.188,0.496-6.613,0.496l-69.136,0.254c-3,0-6-0.348-6-0.461
		v-14.539H350.574z"/>
	
		<linearGradient id="SVGID_52_" gradientUnits="userSpaceOnUse" x1="241.2227" y1="194.3037" x2="241.2227" y2="201.3037" gradientTransform="matrix(0.75 0 0 -0.75 192.4618 542.8478)">
		<stop  offset="0" style="stop-color:#308558"/>
		<stop  offset="0.26" style="stop-color:#3FA871"/>
		<stop  offset="0.54" style="stop-color:#89CAA3"/>
		<stop  offset="0.76" style="stop-color:#67C18E"/>
		<stop  offset="1" style="stop-color:#308558"/>
	</linearGradient>
	<path fill="url(#SVGID_52_)" d="M344.128,391.871h58.5v5.25h-58.5V391.871z"/>
	
		<linearGradient id="SVGID_53_" gradientUnits="userSpaceOnUse" x1="202.2241" y1="194.8042" x2="306.2241" y2="194.8042" gradientTransform="matrix(0.75 0 0 -0.75 119.0741 540.8947)">
		<stop  offset="0" style="stop-color:#308558"/>
		<stop  offset="0.26" style="stop-color:#3FA871"/>
		<stop  offset="0.54" style="stop-color:#89CAA3"/>
		<stop  offset="0.76" style="stop-color:#67C18E"/>
		<stop  offset="1" style="stop-color:#308558"/>
	</linearGradient>
	<path fill="url(#SVGID_53_)" d="M270.742,389.917h78v9.75h-78V389.917z"/>
	
		<linearGradient id="SVGID_54_" gradientUnits="userSpaceOnUse" x1="202.2236" y1="57.3022" x2="215.2236" y2="57.3022" gradientTransform="matrix(0.75 0 0 -0.75 246.9178 354.465)">
		<stop  offset="0" style="stop-color:#308558"/>
		<stop  offset="0.26" style="stop-color:#3FA871"/>
		<stop  offset="0.54" style="stop-color:#89CAA3"/>
		<stop  offset="0.76" style="stop-color:#67C18E"/>
		<stop  offset="1" style="stop-color:#308558"/>
	</linearGradient>
	<path fill="url(#SVGID_54_)" d="M398.585,203.488h9.75v216h-9.75V203.488z"/>
	
		<linearGradient id="SVGID_55_" gradientUnits="userSpaceOnUse" x1="202.2261" y1="173.8022" x2="246.2261" y2="173.8022" gradientTransform="matrix(0.75 0 0 -0.75 246.9159 341.6447)">
		<stop  offset="0" style="stop-color:#308558"/>
		<stop  offset="0.26" style="stop-color:#3FA871"/>
		<stop  offset="0.54" style="stop-color:#89CAA3"/>
		<stop  offset="0.76" style="stop-color:#67C18E"/>
		<stop  offset="1" style="stop-color:#308558"/>
	</linearGradient>
	<path fill="url(#SVGID_55_)" d="M398.585,190.668h33v41.25h-33V190.668z"/>
	
		<linearGradient id="SVGID_56_" gradientUnits="userSpaceOnUse" x1="221.7236" y1="187.3027" x2="221.7236" y2="201.3027" gradientTransform="matrix(0.75 0 0 -0.75 280.1405 354.1593)">
		<stop  offset="0" style="stop-color:#308558"/>
		<stop  offset="0.26" style="stop-color:#3FA871"/>
		<stop  offset="0.54" style="stop-color:#89CAA3"/>
		<stop  offset="0.76" style="stop-color:#67C18E"/>
		<stop  offset="1" style="stop-color:#308558"/>
	</linearGradient>
	<path fill="url(#SVGID_56_)" d="M431.808,213.684h29.25v-10.5h-29.25V213.684z"/>
	
		<linearGradient id="SVGID_57_" gradientUnits="userSpaceOnUse" x1="202.2251" y1="196.3062" x2="272.2251" y2="196.3062" gradientTransform="matrix(0.75 0 0 -0.75 246.913 336.1515)">
		<stop  offset="0" style="stop-color:#308558"/>
		<stop  offset="0.26" style="stop-color:#3FA871"/>
		<stop  offset="0.54" style="stop-color:#89CAA3"/>
		<stop  offset="0.76" style="stop-color:#67C18E"/>
		<stop  offset="1" style="stop-color:#308558"/>
	</linearGradient>
	<path fill="url(#SVGID_57_)" d="M398.582,192.672h52.5v-7.5h-52.5V192.672z"/>
	
		<linearGradient id="SVGID_58_" gradientUnits="userSpaceOnUse" x1="207.2256" y1="174.3057" x2="207.2256" y2="201.3057" gradientTransform="matrix(0.75 0 0 -0.75 309.5536 349.4591)">
		<stop  offset="0" style="stop-color:#308558"/>
		<stop  offset="0.26" style="stop-color:#3FA871"/>
		<stop  offset="0.54" style="stop-color:#89CAA3"/>
		<stop  offset="0.76" style="stop-color:#67C18E"/>
		<stop  offset="1" style="stop-color:#308558"/>
	</linearGradient>
	<path fill="url(#SVGID_58_)" d="M468.722,198.48h-7.5v20.25h7.5V198.48z"/>
	
		<linearGradient id="SVGID_59_" gradientUnits="userSpaceOnUse" x1="207.2256" y1="143.3027" x2="207.2256" y2="201.3027" gradientTransform="matrix(0.75 0 0 -0.75 294.913 336.1525)">
		<stop  offset="0" style="stop-color:#308558"/>
		<stop  offset="0.26" style="stop-color:#3FA871"/>
		<stop  offset="0.54" style="stop-color:#89CAA3"/>
		<stop  offset="0.76" style="stop-color:#67C18E"/>
		<stop  offset="1" style="stop-color:#308558"/>
	</linearGradient>
	<path fill="url(#SVGID_59_)" d="M454.082,185.176h-7.5v43.5h7.5V185.176z"/>
	
		<linearGradient id="SVGID_60_" gradientUnits="userSpaceOnUse" x1="202.2231" y1="146.8032" x2="305.2222" y2="146.8032" gradientTransform="matrix(0.75 0 0 -0.75 119.4462 262.797)">
		<stop  offset="0" style="stop-color:#9E9799"/>
		<stop  offset="0.26" style="stop-color:#C7BEC0"/>
		<stop  offset="0.54" style="stop-color:#E4DCDD"/>
		<stop  offset="0.76" style="stop-color:#DFD6D8"/>
		<stop  offset="1" style="stop-color:#9E9798"/>
	</linearGradient>
	<path fill="url(#SVGID_60_)" d="M348.363,111.82v81.75h-77.25v-81.75H348.363z"/>
	
		<linearGradient id="SVGID_61_" gradientUnits="userSpaceOnUse" x1="202.2241" y1="195.3022" x2="216.2241" y2="195.3022" gradientTransform="matrix(0.75 0 0 -0.75 152.6249 594.0031)">
		<stop  offset="0" style="stop-color:#90868A"/>
		<stop  offset="0.26" style="stop-color:#B6A9AE"/>
		<stop  offset="0.54" style="stop-color:#D5CBCF"/>
		<stop  offset="0.76" style="stop-color:#CEC2C6"/>
		<stop  offset="1" style="stop-color:#90868A"/>
	</linearGradient>
	<path fill="url(#SVGID_61_)" d="M304.292,443.027h10.5v9h-10.5V443.027z"/>
	
		<linearGradient id="SVGID_62_" gradientUnits="userSpaceOnUse" x1="226.2222" y1="183.8047" x2="202.2222" y2="183.8047" gradientTransform="matrix(0.75 0 0 -0.75 148.829 602.7931)">
		<stop  offset="0" style="stop-color:#B59D79"/>
		<stop  offset="0.01" style="stop-color:#FFE5C1"/>
		<stop  offset="0.05" style="stop-color:#EBCC9F"/>
		<stop  offset="0.9" style="stop-color:#E7C99C"/>
		<stop  offset="0.95" style="stop-color:#E2C499"/>
		<stop  offset="1" style="stop-color:#A89170"/>
	</linearGradient>
	<path fill="url(#SVGID_62_)" d="M300.496,457.816l3.75-6h10.5l3.75,6v20.25h-18V457.816z"/>
	
		<linearGradient id="SVGID_63_" gradientUnits="userSpaceOnUse" x1="202.2251" y1="169.3032" x2="262.2251" y2="169.3032" gradientTransform="matrix(0.75 0 0 -0.75 196.6083 652.9103)">
		<stop  offset="0" style="stop-color:#9E9799;stop-opacity:0.7529"/>
		<stop  offset="0.17" style="stop-color:#C7BEC0;stop-opacity:0.7529"/>
		<stop  offset="0.68" style="stop-color:#E4DCDD;stop-opacity:0.7529"/>
		<stop  offset="0.83" style="stop-color:#DFD6D8;stop-opacity:0.7529"/>
		<stop  offset="1" style="stop-color:#9E9798;stop-opacity:0.7529"/>
	</linearGradient>
	<path fill="url(#SVGID_63_)" d="M348.277,501.933h45v48h-45V501.933z"/>
	
		<linearGradient id="SVGID_64_" gradientUnits="userSpaceOnUse" x1="202.2261" y1="169.3071" x2="270.2261" y2="169.3071" gradientTransform="matrix(0.75 0 0 -0.75 195.8339 383.0343)">
		<stop  offset="0" style="stop-color:#9E9799;stop-opacity:0.7529"/>
		<stop  offset="0.17" style="stop-color:#C7BEC0;stop-opacity:0.7529"/>
		<stop  offset="0.68" style="stop-color:#E4DCDD;stop-opacity:0.7529"/>
		<stop  offset="0.83" style="stop-color:#DFD6D8;stop-opacity:0.7529"/>
		<stop  offset="1" style="stop-color:#9E9798;stop-opacity:0.7529"/>
	</linearGradient>
	<path fill="url(#SVGID_64_)" d="M347.503,232.055h51v48h-51V232.055z"/>
	
		<linearGradient id="SVGID_65_" gradientUnits="userSpaceOnUse" x1="210.2256" y1="137.3037" x2="210.2256" y2="201.3037" gradientTransform="matrix(0.75 0 0 -0.75 250.4823 652.9103)">
		<stop  offset="0" style="stop-color:#9E9799"/>
		<stop  offset="0.26" style="stop-color:#C7BEC0"/>
		<stop  offset="0.54" style="stop-color:#E4DCDD"/>
		<stop  offset="0.76" style="stop-color:#DFD6D8"/>
		<stop  offset="1" style="stop-color:#9E9798"/>
	</linearGradient>
	<path fill="url(#SVGID_65_)" d="M402.152,519.933l12-18v48l-12-18V519.933z"/>
	
		<linearGradient id="SVGID_66_" gradientUnits="userSpaceOnUse" x1="208.2246" y1="185.3047" x2="208.2246" y2="201.3047" gradientTransform="matrix(0.75 0 0 -0.75 241.1239 670.9191)">
		<stop  offset="0" style="stop-color:#9E9799"/>
		<stop  offset="0.26" style="stop-color:#C7BEC0"/>
		<stop  offset="0.54" style="stop-color:#E4DCDD"/>
		<stop  offset="0.76" style="stop-color:#DFD6D8"/>
		<stop  offset="1" style="stop-color:#9E9798"/>
	</linearGradient>
	<path fill="url(#SVGID_66_)" d="M392.792,519.941h9v12h-9V519.941z"/>
	
		<linearGradient id="SVGID_67_" gradientUnits="userSpaceOnUse" x1="202.2241" y1="193.583" x2="217.9858" y2="193.583" gradientTransform="matrix(0.75 0 0 -0.75 229.3593 378.2677)">
		<stop  offset="0" style="stop-color:#AE7600"/>
		<stop  offset="0.26" style="stop-color:#DA9500"/>
		<stop  offset="0.54" style="stop-color:#F4BC7C"/>
		<stop  offset="0.76" style="stop-color:#F2AF50"/>
		<stop  offset="1" style="stop-color:#AE7600"/>
	</linearGradient>
	<path fill="url(#SVGID_67_)" d="M381.027,233.289c0-3.75,2.645-6.082,5.906-6.082c3.094,0.082,5.906,2.625,5.906,5.859
		c0.188,3.223-2.645,5.859-5.906,5.859c-2.906,0.363-5.906-2.625-5.906-5.859V233.289z"/>
	
		<linearGradient id="SVGID_68_" gradientUnits="userSpaceOnUse" x1="202.2261" y1="193.5791" x2="217.9834" y2="193.5791" gradientTransform="matrix(0.75 0 0 -0.75 192.6268 387.9806)">
		<stop  offset="0" style="stop-color:#AE7600"/>
		<stop  offset="0.26" style="stop-color:#DA9500"/>
		<stop  offset="0.54" style="stop-color:#F4BC7C"/>
		<stop  offset="0.76" style="stop-color:#F2AF50"/>
		<stop  offset="1" style="stop-color:#AE7600"/>
	</linearGradient>
	<path fill="url(#SVGID_68_)" d="M344.296,243.004c0-3.75,2.645-6.082,5.906-6.082c3.094,0.082,5.902,2.621,5.902,5.859
		c0.191,3.223-2.645,5.859-5.902,5.859c-2.906,0.363-5.906-2.625-5.906-5.859V243.004z"/>
</g>
</svg>
