<?xml version="1.0" encoding="utf-8"?>
<!-- Generator: Adobe Illustrator 16.0.0, SVG Export Plug-In . SVG Version: 6.00 Build 0)  -->
<!DOCTYPE svg PUBLIC "-//W3C//DTD SVG 1.1//EN" "http://www.w3.org/Graphics/SVG/1.1/DTD/svg11.dtd">
<svg preserveAspectRatio="none"   version="1.1" id="图层_1" xmlns="http://www.w3.org/2000/svg" xmlns:xlink="http://www.w3.org/1999/xlink" x="0px" y="0px"
	 width="532.144px" height="558.378px" viewBox="17.336 4.066 532.144 558.378"
	 enable-background="new 17.336 4.066 532.144 558.378" xml:space="preserve">
<g id="surface61">
	
		<linearGradient id="SVGID_1_" gradientUnits="userSpaceOnUse" x1="282.2246" y1="201.3027" x2="282.2246" y2="130.3018" gradientTransform="matrix(0.75 0 0 -0.75 226.2802 294.5118)">
		<stop  offset="0" style="stop-color:#BAC0C1"/>
		<stop  offset="0.15" style="stop-color:#F4FAFC"/>
		<stop  offset="0.25" style="stop-color:#F8FCFD"/>
		<stop  offset="0.52" style="stop-color:#D5DBDD"/>
		<stop  offset="0.69" style="stop-color:#BDC3C4"/>
		<stop  offset="0.8" style="stop-color:#B3B8B9"/>
		<stop  offset="0.97" style="stop-color:#A9AEAF"/>
		<stop  offset="1" style="stop-color:#C2C7C9"/>
	</linearGradient>
	<path fill="url(#SVGID_1_)" d="M377.949,196.785v-53.25h120v53.25H377.949z"/>
	
		<linearGradient id="SVGID_2_" gradientUnits="userSpaceOnUse" x1="273.2222" y1="-47.6973" x2="202.2222" y2="-47.6973" gradientTransform="matrix(0.75 0 0 -0.75 342.4227 339.922)">
		<stop  offset="0" style="stop-color:#BAC0C1"/>
		<stop  offset="0.15" style="stop-color:#F4FAFC"/>
		<stop  offset="0.25" style="stop-color:#F8FCFD"/>
		<stop  offset="0.52" style="stop-color:#D5DBDD"/>
		<stop  offset="0.69" style="stop-color:#BDC3C4"/>
		<stop  offset="0.8" style="stop-color:#B3B8B9"/>
		<stop  offset="0.97" style="stop-color:#A9AEAF"/>
		<stop  offset="1" style="stop-color:#C2C7C9"/>
	</linearGradient>
	<path fill="url(#SVGID_2_)" d="M494.089,188.945h53.25v373.5h-53.25V188.945z"/>
	
		<linearGradient id="SVGID_3_" gradientUnits="userSpaceOnUse" x1="374.4526" y1="116.6841" x2="201.9526" y2="116.6841" gradientTransform="matrix(0.75 0 0 -0.75 268.6395 293.3829)">
		<stop  offset="0" style="stop-color:#B9BDBE"/>
		<stop  offset="0.02" style="stop-color:#BCC0C0"/>
		<stop  offset="0.22" style="stop-color:#EBEFF0"/>
		<stop  offset="0.4" style="stop-color:#D0D4D5"/>
		<stop  offset="1" style="stop-color:#D0D4D5"/>
	</linearGradient>
	<path fill="url(#SVGID_3_)" d="M420.308,142.406h81c0,0,47.867-6.168,47.867,55.289c0.133,61.711,0.305,71.813,0.305,71.813
		l-55.672-0.352v-16.5c0,0,4.938-51.723-34.707-54.957c-21.543,0.207-38.934,0-38.996,0L420.308,142.406z"/>
	
		<linearGradient id="SVGID_4_" gradientUnits="userSpaceOnUse" x1="547.2241" y1="523.6274" x2="202.2241" y2="523.6274" gradientTransform="matrix(0.75 0 0 0.75 -49.0441 -328.13)">
		<stop  offset="0" style="stop-color:#ACB5B6"/>
		<stop  offset="0.15" style="stop-color:#E2EDEF"/>
		<stop  offset="0.25" style="stop-color:#EFF5F6"/>
		<stop  offset="0.52" style="stop-color:#C4CFD0"/>
		<stop  offset="0.69" style="stop-color:#AEB8B9"/>
		<stop  offset="0.8" style="stop-color:#A4ADAF"/>
		<stop  offset="0.97" style="stop-color:#9BA4A5"/>
		<stop  offset="1" style="stop-color:#B2BCBE"/>
	</linearGradient>
	<path fill="url(#SVGID_4_)" d="M102.625,96.84h258.75v-64.5h-258.75V96.84z"/>
	
		<linearGradient id="SVGID_5_" gradientUnits="userSpaceOnUse" x1="605.2397" y1="-91.7759" x2="202.2251" y2="-91.7759" gradientTransform="matrix(0.75 0 0 -0.75 -70.6578 245.6818)">
		<stop  offset="0" style="stop-color:#BAC0C1"/>
		<stop  offset="0.15" style="stop-color:#F4FAFC"/>
		<stop  offset="0.25" style="stop-color:#F8FCFD"/>
		<stop  offset="0.52" style="stop-color:#D5DBDD"/>
		<stop  offset="0.69" style="stop-color:#BDC3C4"/>
		<stop  offset="0.8" style="stop-color:#B3B8B9"/>
		<stop  offset="0.97" style="stop-color:#A9AEAF"/>
		<stop  offset="1" style="stop-color:#C2C7C9"/>
	</linearGradient>
	<path fill="url(#SVGID_5_)" d="M99.012,94.703h266.25c9.75,0,18.012,4.059,18.012,9.066l-0.012,421.433
		c0,5.25-7.949,9.125-17.77,9.125l-266.48-0.125c-9.75,0-18-3.934-18-8.941V103.703c0-5.25,7.961-9,17.781-9H99.012z"/>
	
		<linearGradient id="SVGID_6_" gradientUnits="userSpaceOnUse" x1="604.2222" y1="151.8032" x2="202.2222" y2="151.8032" gradientTransform="matrix(0.75 0 0 -0.75 -70.3239 636.4884)">
		<stop  offset="0" style="stop-color:#A9B6BA"/>
		<stop  offset="0.15" style="stop-color:#DFEFF3"/>
		<stop  offset="0.25" style="stop-color:#EDF6F8"/>
		<stop  offset="0.52" style="stop-color:#C1D0D4"/>
		<stop  offset="0.69" style="stop-color:#ACB9BD"/>
		<stop  offset="0.8" style="stop-color:#A2AFB2"/>
		<stop  offset="0.97" style="stop-color:#99A5A8"/>
		<stop  offset="1" style="stop-color:#B0BEC1"/>
	</linearGradient>
	<path fill="url(#SVGID_6_)" d="M382.843,485.511v72c0,0.75-1.98,2.129-4.391,2.129l-292.609,0.121c-2.25,0-4.5-1.148-4.5-2.379
		v-71.871H382.843z"/>
	
		<linearGradient id="SVGID_7_" gradientUnits="userSpaceOnUse" x1="630.2251" y1="182.8706" x2="202.2261" y2="182.8706" gradientTransform="matrix(0.75 0 0 -0.75 -80.0099 155.17)">
		<stop  offset="0" style="stop-color:#BAC0C1"/>
		<stop  offset="0.15" style="stop-color:#F4FAFC"/>
		<stop  offset="0.25" style="stop-color:#F8FCFD"/>
		<stop  offset="0.52" style="stop-color:#D5DBDD"/>
		<stop  offset="0.69" style="stop-color:#BDC3C4"/>
		<stop  offset="0.8" style="stop-color:#B3B8B9"/>
		<stop  offset="0.97" style="stop-color:#A9AEAF"/>
		<stop  offset="1" style="stop-color:#C2C7C9"/>
	</linearGradient>
	<path fill="url(#SVGID_7_)" d="M84.41,4.191h295.5c6.75,0,12.715,5.297,12.715,11.984l0.035,3.766
		c0,6.75-5.91,12.027-13.078,12.027L84.41,31.941c-6.75,0-12.75-5.395-12.75-12.082v-3.668c0-6.75,5.754-12.125,12.922-12.125
		L84.41,4.191z"/>
	
		<linearGradient id="SVGID_8_" gradientUnits="userSpaceOnUse" x1="287.2261" y1="46.8057" x2="202.2261" y2="46.8057" gradientTransform="matrix(0.75 0 0 -0.75 -134.3346 477.9747)">
		<stop  offset="0" style="stop-color:#A5A9AB"/>
		<stop  offset="0.03" style="stop-color:#EEF2F4"/>
		<stop  offset="0.08" style="stop-color:#D7DCDE"/>
		<stop  offset="0.64" style="stop-color:#D3D9DA"/>
		<stop  offset="0.95" style="stop-color:#CED4D5"/>
		<stop  offset="1" style="stop-color:#999D9E"/>
	</linearGradient>
	<path fill="url(#SVGID_8_)" d="M81.086,326.996h-63.75v231.75h63.75V326.996z"/>
	
		<linearGradient id="SVGID_9_" gradientUnits="userSpaceOnUse" x1="255.2266" y1="129.3027" x2="202.2266" y2="129.3027" gradientTransform="matrix(0.75 0 0 -0.75 -110.0099 369.7931)">
		<stop  offset="0" style="stop-color:#A5A9AB"/>
		<stop  offset="0.03" style="stop-color:#EEF2F4"/>
		<stop  offset="0.08" style="stop-color:#D7DCDE"/>
		<stop  offset="0.64" style="stop-color:#D3D9DA"/>
		<stop  offset="0.95" style="stop-color:#CED4D5"/>
		<stop  offset="1" style="stop-color:#999D9E"/>
	</linearGradient>
	<path fill="url(#SVGID_9_)" d="M41.66,218.816h39.75v108H41.66V218.816z"/>
	
		<linearGradient id="SVGID_10_" gradientUnits="userSpaceOnUse" x1="287.2251" y1="191.4043" x2="202.0532" y2="191.4043" gradientTransform="matrix(0.75 0 0 -0.75 -124.4781 354.6056)">
		<stop  offset="0" style="stop-color:#BAC0C1"/>
		<stop  offset="0.15" style="stop-color:#F4FAFC"/>
		<stop  offset="0.25" style="stop-color:#F8FCFD"/>
		<stop  offset="0.52" style="stop-color:#D5DBDD"/>
		<stop  offset="0.69" style="stop-color:#BDC3C4"/>
		<stop  offset="0.8" style="stop-color:#B3B8B9"/>
		<stop  offset="0.97" style="stop-color:#A9AEAF"/>
		<stop  offset="1" style="stop-color:#C2C7C9"/>
	</linearGradient>
	<path fill="url(#SVGID_10_)" d="M34.691,203.629h56.25v15h-56.25c-4.5,0-7.629-3.246-7.629-7.484
		c0.129-4.516,3.449-7.668,7.703-7.668L34.691,203.629z"/>
</g>
</svg>
