<?xml version="1.0" encoding="utf-8"?>
<!-- Generator: Adobe Illustrator 16.0.0, SVG Export Plug-In . SVG Version: 6.00 Build 0)  -->
<!DOCTYPE svg PUBLIC "-//W3C//DTD SVG 1.1//EN" "http://www.w3.org/Graphics/SVG/1.1/DTD/svg11.dtd">
<svg preserveAspectRatio="none"   version="1.1" id="图层_1" xmlns="http://www.w3.org/2000/svg" xmlns:xlink="http://www.w3.org/1999/xlink" x="0px" y="0px"
	 width="98.16px" height="552.66px" viewBox="234.34 7.086 98.16 552.66" enable-background="new 234.34 7.086 98.16 552.66"
	 xml:space="preserve">
<g id="surface276">
	
		<linearGradient id="SVGID_1_" gradientUnits="userSpaceOnUse" x1="307.2231" y1="-145.6987" x2="202.2241" y2="-145.6987" gradientTransform="matrix(0.75 0 0 -0.75 87.601 189.8663)">
		<stop  offset="0" style="stop-color:#75A0B1"/>
		<stop  offset="0.15" style="stop-color:#A8DBF0"/>
		<stop  offset="0.25" style="stop-color:#D2EBF6"/>
		<stop  offset="0.52" style="stop-color:#8BBDD1"/>
		<stop  offset="0.69" style="stop-color:#7CA8BA"/>
		<stop  offset="0.8" style="stop-color:#749EB0"/>
		<stop  offset="0.92" style="stop-color:#6E95A6"/>
		<stop  offset="1" style="stop-color:#7FACBE"/>
	</linearGradient>
	<path fill="url(#SVGID_1_)" d="M239.27,38.891h78.75v520.5h-78.75V38.891z"/>
	
		<linearGradient id="SVGID_2_" gradientUnits="userSpaceOnUse" x1="320.2251" y1="194.5625" x2="202.2266" y2="194.5625" gradientTransform="matrix(0.75 0 0 -0.75 82.6693 700.6095)">
		<stop  offset="0" style="stop-color:#5D96AD"/>
		<stop  offset="0.15" style="stop-color:#8CCFEA"/>
		<stop  offset="0.25" style="stop-color:#C7E4F3"/>
		<stop  offset="0.52" style="stop-color:#6FB1CC"/>
		<stop  offset="0.69" style="stop-color:#629EB5"/>
		<stop  offset="0.8" style="stop-color:#5C95AB"/>
		<stop  offset="0.92" style="stop-color:#578CA1"/>
		<stop  offset="1" style="stop-color:#65A1BA"/>
	</linearGradient>
	<path fill="url(#SVGID_2_)" d="M235.09,549.632h86.25c0.75,0,1.309,0.48,1.309,1.078l0.191,7.922c0,0.75-0.664,1.113-1.246,1.113
		l-86.503-0.363c0,0-0.75-0.121-0.75-0.715v-8.285c0,0,0.473-0.75,1.055-0.75H235.09z"/>
	
		<linearGradient id="SVGID_3_" gradientUnits="userSpaceOnUse" x1="302.6245" y1="185.769" x2="202.2241" y2="185.769" gradientTransform="matrix(0.75 0 0 -0.75 89.1752 158.0626)">
		<stop  offset="0" style="stop-color:#75A0B1"/>
		<stop  offset="0.15" style="stop-color:#A8DBF0"/>
		<stop  offset="0.25" style="stop-color:#D2EBF6"/>
		<stop  offset="0.52" style="stop-color:#8BBDD1"/>
		<stop  offset="0.69" style="stop-color:#7CA8BA"/>
		<stop  offset="0.8" style="stop-color:#749EB0"/>
		<stop  offset="0.92" style="stop-color:#6E95A6"/>
		<stop  offset="1" style="stop-color:#7FACBE"/>
	</linearGradient>
	<path fill="url(#SVGID_3_)" d="M240.844,30.336c0-12.75,16.855-23.25,37.648-23.25c20.851,0,37.652,10.43,37.652,23.301
		c-0.301-0.051-75.3,0-75.3,0V30.336z"/>
	
		<linearGradient id="SVGID_4_" gradientUnits="userSpaceOnUse" x1="315.2798" y1="194.8047" x2="202.2231" y2="194.8047" gradientTransform="matrix(0.75 0 0 -0.75 84.4296 180.7159)">
		<stop  offset="0" style="stop-color:#5D96AD"/>
		<stop  offset="0.15" style="stop-color:#8CCFEA"/>
		<stop  offset="0.25" style="stop-color:#C7E4F3"/>
		<stop  offset="0.52" style="stop-color:#6FB1CC"/>
		<stop  offset="0.69" style="stop-color:#629EB5"/>
		<stop  offset="0.8" style="stop-color:#5C95AB"/>
		<stop  offset="0.92" style="stop-color:#578CA1"/>
		<stop  offset="1" style="stop-color:#65A1BA"/>
	</linearGradient>
	<path fill="url(#SVGID_4_)" d="M236.848,29.738h83.25c0,0,0.793,0.465,0.793,1.035l-0.043,7.965c0,0-0.41,0.707-0.969,0.707
		l-83.031,0.043c0,0-0.75-0.504-0.75-1.078v-7.922c0,0,0.453-0.75,1.012-0.75H236.848z"/>
	
		<linearGradient id="SVGID_5_" gradientUnits="userSpaceOnUse" x1="174.7031" y1="201.3018" x2="174.7031" y2="184.3018" gradientTransform="matrix(-0.75 0 0 -0.75 454.4171 208.8712)">
		<stop  offset="0" style="stop-color:#75A0B1"/>
		<stop  offset="0.15" style="stop-color:#A8DBF0"/>
		<stop  offset="0.25" style="stop-color:#D2EBF6"/>
		<stop  offset="0.52" style="stop-color:#8BBDD1"/>
		<stop  offset="0.69" style="stop-color:#7CA8BA"/>
		<stop  offset="0.8" style="stop-color:#749EB0"/>
		<stop  offset="0.92" style="stop-color:#6E95A6"/>
		<stop  offset="1" style="stop-color:#7FACBE"/>
	</linearGradient>
	<path fill="url(#SVGID_5_)" d="M330.14,57.895h-13.5v12.75h13.5V57.895z"/>
	
		<linearGradient id="SVGID_6_" gradientUnits="userSpaceOnUse" x1="167.7051" y1="201.4043" x2="167.7051" y2="181.6426" gradientTransform="matrix(-0.75 0 0 -0.75 455.4611 207.8888)">
		<stop  offset="0" style="stop-color:#5290AA"/>
		<stop  offset="0.15" style="stop-color:#80C7E7"/>
		<stop  offset="0.25" style="stop-color:#C2E1F1"/>
		<stop  offset="0.52" style="stop-color:#62AAC8"/>
		<stop  offset="0.69" style="stop-color:#5697B2"/>
		<stop  offset="0.8" style="stop-color:#518FA8"/>
		<stop  offset="0.92" style="stop-color:#4C869F"/>
		<stop  offset="1" style="stop-color:#599BB6"/>
	</linearGradient>
	<path fill="url(#SVGID_6_)" d="M330.433,56.91c-1.5,0-2.051,0.41-2.051,1.008l-0.199,12.492c0,0.75,0.672,1.172,1.254,1.172
		c0.996,0.328,1.746-0.484,1.746-1.078V57.66c0,0-0.461-0.824-1.043-0.824L330.433,56.91z"/>
	
		<linearGradient id="SVGID_7_" gradientUnits="userSpaceOnUse" x1="174.7041" y1="201.3037" x2="174.7041" y2="184.3037" gradientTransform="matrix(-0.75 0 0 -0.75 455.7335 664.087)">
		<stop  offset="0" style="stop-color:#75A0B1"/>
		<stop  offset="0.15" style="stop-color:#A8DBF0"/>
		<stop  offset="0.25" style="stop-color:#D2EBF6"/>
		<stop  offset="0.52" style="stop-color:#8BBDD1"/>
		<stop  offset="0.69" style="stop-color:#7CA8BA"/>
		<stop  offset="0.8" style="stop-color:#749EB0"/>
		<stop  offset="0.92" style="stop-color:#6E95A6"/>
		<stop  offset="1" style="stop-color:#7FACBE"/>
	</linearGradient>
	<path fill="url(#SVGID_7_)" d="M331.457,513.109h-13.5v12.75h13.5V513.109z"/>
	
		<linearGradient id="SVGID_8_" gradientUnits="userSpaceOnUse" x1="167.7061" y1="201.3994" x2="167.7061" y2="181.6421" gradientTransform="matrix(-0.75 0 0 -0.75 456.7775 663.1036)">
		<stop  offset="0" style="stop-color:#5290AA"/>
		<stop  offset="0.15" style="stop-color:#80C7E7"/>
		<stop  offset="0.25" style="stop-color:#C2E1F1"/>
		<stop  offset="0.52" style="stop-color:#62AAC8"/>
		<stop  offset="0.69" style="stop-color:#5697B2"/>
		<stop  offset="0.8" style="stop-color:#518FA8"/>
		<stop  offset="0.92" style="stop-color:#4C869F"/>
		<stop  offset="1" style="stop-color:#599BB6"/>
	</linearGradient>
	<path fill="url(#SVGID_8_)" d="M331.75,512.125c-1.5,0-2.051,0.41-2.051,1.008l-0.199,12.492c0,0.75,0.672,1.172,1.254,1.172
		c0.996,0.328,1.746-0.48,1.746-1.078v-12.844c0,0-0.461-0.82-1.043-0.82L331.75,512.125z"/>
</g>
</svg>
