<?xml version="1.0" encoding="utf-8"?>
<!-- Generator: Adobe Illustrator 16.0.0, SVG Export Plug-In . SVG Version: 6.00 Build 0)  -->
<!DOCTYPE svg PUBLIC "-//W3C//DTD SVG 1.1//EN" "http://www.w3.org/Graphics/SVG/1.1/DTD/svg11.dtd">
<svg preserveAspectRatio="none"   version="1.1" id="图层_1" xmlns="http://www.w3.org/2000/svg" xmlns:xlink="http://www.w3.org/1999/xlink" x="0px" y="0px"
	 width="347.214px" height="554.23px" viewBox="109.84 6.316 347.214 554.23" enable-background="new 109.84 6.316 347.214 554.23"
	 xml:space="preserve">
<g id="surface121">
	
		<linearGradient id="SVGID_1_" gradientUnits="userSpaceOnUse" x1="532.2241" y1="-11.1968" x2="202.2251" y2="-11.1968" gradientTransform="matrix(0.75 0 0 -0.75 -41.8297 294.2423)">
		<stop  offset="0" style="stop-color:#9DB098"/>
		<stop  offset="0.15" style="stop-color:#D0E8CB"/>
		<stop  offset="0.25" style="stop-color:#E5F2E2"/>
		<stop  offset="0.44" style="stop-color:#B3C9AE"/>
		<stop  offset="0.6" style="stop-color:#9FB39B"/>
		<stop  offset="0.8" style="stop-color:#869782"/>
		<stop  offset="0.97" style="stop-color:#7A8A76"/>
	</linearGradient>
	<path fill="url(#SVGID_1_)" d="M109.84,143.266h247.5v318.75h-247.5V143.266z"/>
	
		<linearGradient id="SVGID_2_" gradientUnits="userSpaceOnUse" x1="529.1733" y1="209.2012" x2="213.8066" y2="94.4171" gradientTransform="matrix(0.75 0 0 -0.75 -41.8297 238.3575)">
		<stop  offset="0" style="stop-color:#9DB098"/>
		<stop  offset="0.22" style="stop-color:#D0E8CB"/>
		<stop  offset="0.31" style="stop-color:#E5F2E2"/>
		<stop  offset="0.44" style="stop-color:#B3C9AE"/>
		<stop  offset="0.6" style="stop-color:#9FB39B"/>
		<stop  offset="0.8" style="stop-color:#869782"/>
		<stop  offset="0.97" style="stop-color:#7A8A76"/>
	</linearGradient>
	<path fill="url(#SVGID_2_)" d="M179.59,87.379c48.75,0,59.355,0,107.445,0.074c62.055-0.074,70.172,56.227,70.172,56.227
		l-247.367-0.051c0,0,10.238-56.078,70.074-56.176L179.59,87.379z"/>
	
		<linearGradient id="SVGID_3_" gradientUnits="userSpaceOnUse" x1="532.2241" y1="196.8052" x2="202.2251" y2="196.8051" gradientTransform="matrix(0.75 0 0 -0.75 -41.8297 294.2433)">
		<stop  offset="0" style="stop-color:#85A57F"/>
		<stop  offset="0.15" style="stop-color:#B5DBAE"/>
		<stop  offset="0.25" style="stop-color:#D8EBD5"/>
		<stop  offset="0.44" style="stop-color:#99BD92"/>
		<stop  offset="0.6" style="stop-color:#88A881"/>
		<stop  offset="0.8" style="stop-color:#728D6C"/>
		<stop  offset="0.97" style="stop-color:#688163"/>
	</linearGradient>
	<path fill="url(#SVGID_3_)" d="M109.84,143.266h247.5v6.75h-247.5V143.266z"/>
	
		<linearGradient id="SVGID_4_" gradientUnits="userSpaceOnUse" x1="529.1733" y1="574.522" x2="213.8066" y2="459.7379" gradientTransform="matrix(0.75 0 0 0.75 -41.8297 95.1766)">
		<stop  offset="0" style="stop-color:#9DB098"/>
		<stop  offset="0.22" style="stop-color:#D0E8CB"/>
		<stop  offset="0.31" style="stop-color:#E5F2E2"/>
		<stop  offset="0.44" style="stop-color:#B3C9AE"/>
		<stop  offset="0.6" style="stop-color:#9FB39B"/>
		<stop  offset="0.8" style="stop-color:#869782"/>
		<stop  offset="0.97" style="stop-color:#7A8A76"/>
	</linearGradient>
	<path fill="url(#SVGID_4_)" d="M179.59,520.144c48.75,0,59.355,0,107.445-0.074c62.055,0.074,70.172-56.223,70.172-56.223
		l-247.367,0.047c0,0,10.238,56.078,70.074,56.176L179.59,520.144z"/>
	
		<linearGradient id="SVGID_5_" gradientUnits="userSpaceOnUse" x1="345.2261" y1="180.3037" x2="202.2271" y2="180.3037" gradientTransform="matrix(0.75 0 0 -0.75 28.2938 206.8878)">
		<stop  offset="0" style="stop-color:#9DB098"/>
		<stop  offset="0.15" style="stop-color:#D0E8CB"/>
		<stop  offset="0.25" style="stop-color:#E5F2E2"/>
		<stop  offset="0.44" style="stop-color:#B3C9AE"/>
		<stop  offset="0.6" style="stop-color:#9FB39B"/>
		<stop  offset="0.8" style="stop-color:#869782"/>
		<stop  offset="0.97" style="stop-color:#7A8A76"/>
	</linearGradient>
	<path fill="url(#SVGID_5_)" d="M179.965,55.91h107.25v31.5h-107.25V55.91z"/>
	
		<linearGradient id="SVGID_6_" gradientUnits="userSpaceOnUse" x1="345.2261" y1="198.8057" x2="202.2271" y2="198.8056" gradientTransform="matrix(0.75 0 0 -0.75 28.2938 235.049)">
		<stop  offset="0" style="stop-color:#85A57F"/>
		<stop  offset="0.15" style="stop-color:#B5DBAE"/>
		<stop  offset="0.25" style="stop-color:#D8EBD5"/>
		<stop  offset="0.44" style="stop-color:#99BD92"/>
		<stop  offset="0.6" style="stop-color:#88A881"/>
		<stop  offset="0.8" style="stop-color:#728D6C"/>
		<stop  offset="0.97" style="stop-color:#688163"/>
	</linearGradient>
	<path fill="url(#SVGID_6_)" d="M179.965,84.07h107.25v3.75h-107.25V84.07z"/>
	
		<linearGradient id="SVGID_7_" gradientUnits="userSpaceOnUse" x1="369.6938" y1="195.189" x2="202.2256" y2="195.1889" gradientTransform="matrix(0.75 0 0 -0.75 19.0526 198.0284)">
		<stop  offset="0" style="stop-color:#9DB098"/>
		<stop  offset="0.15" style="stop-color:#D0E8CB"/>
		<stop  offset="0.25" style="stop-color:#E5F2E2"/>
		<stop  offset="0.44" style="stop-color:#B3C9AE"/>
		<stop  offset="0.6" style="stop-color:#9FB39B"/>
		<stop  offset="0.8" style="stop-color:#869782"/>
		<stop  offset="0.97" style="stop-color:#7A8A76"/>
	</linearGradient>
	<path fill="url(#SVGID_7_)" d="M171.473,47.051h124.5c0,0,0.352,0.273,0.352,0.617l-0.352,7.633c0,0.75,0.098,0.922-0.176,0.922
		l-124.324-0.172c-0.75,0-0.75-0.109-0.75-0.453v-7.797c0-0.75,0.164-0.75,0.438-0.75H171.473z"/>
	
		<linearGradient id="SVGID_8_" gradientUnits="userSpaceOnUse" x1="345.2261" y1="198.8047" x2="202.2271" y2="198.8047" gradientTransform="matrix(0.75 0 0 -0.75 28.2938 206.8966)">
		<stop  offset="0" style="stop-color:#85A57F"/>
		<stop  offset="0.15" style="stop-color:#B5DBAE"/>
		<stop  offset="0.25" style="stop-color:#D8EBD5"/>
		<stop  offset="0.44" style="stop-color:#99BD92"/>
		<stop  offset="0.6" style="stop-color:#88A881"/>
		<stop  offset="0.8" style="stop-color:#728D6C"/>
		<stop  offset="0.97" style="stop-color:#688163"/>
	</linearGradient>
	<path fill="url(#SVGID_8_)" d="M179.965,55.918h107.25v3.75h-107.25V55.918z"/>
	
		<linearGradient id="SVGID_9_" gradientUnits="userSpaceOnUse" x1="345.2261" y1="545.6245" x2="202.2271" y2="545.6245" gradientTransform="matrix(0.75 0 0 0.75 28.2938 126.7196)">
		<stop  offset="0" style="stop-color:#9DB098"/>
		<stop  offset="0.15" style="stop-color:#D0E8CB"/>
		<stop  offset="0.25" style="stop-color:#E5F2E2"/>
		<stop  offset="0.44" style="stop-color:#B3C9AE"/>
		<stop  offset="0.6" style="stop-color:#9FB39B"/>
		<stop  offset="0.8" style="stop-color:#869782"/>
		<stop  offset="0.97" style="stop-color:#7A8A76"/>
	</linearGradient>
	<path fill="url(#SVGID_9_)" d="M179.965,551.687h107.25v-31.5h-107.25V551.687z"/>
	
		<linearGradient id="SVGID_10_" gradientUnits="userSpaceOnUse" x1="345.2261" y1="564.1245" x2="202.2271" y2="564.1245" gradientTransform="matrix(0.75 0 0 0.75 28.2938 98.5594)">
		<stop  offset="0" style="stop-color:#85A57F"/>
		<stop  offset="0.15" style="stop-color:#B5DBAE"/>
		<stop  offset="0.25" style="stop-color:#D8EBD5"/>
		<stop  offset="0.44" style="stop-color:#99BD92"/>
		<stop  offset="0.6" style="stop-color:#88A881"/>
		<stop  offset="0.8" style="stop-color:#728D6C"/>
		<stop  offset="0.97" style="stop-color:#688163"/>
	</linearGradient>
	<path fill="url(#SVGID_10_)" d="M179.965,523.527h107.25v-3.75h-107.25V523.527z"/>
	
		<linearGradient id="SVGID_11_" gradientUnits="userSpaceOnUse" x1="369.6948" y1="560.5112" x2="202.2261" y2="560.5112" gradientTransform="matrix(0.75 0 0 0.75 19.0521 135.58)">
		<stop  offset="0" style="stop-color:#9DB098"/>
		<stop  offset="0.15" style="stop-color:#D0E8CB"/>
		<stop  offset="0.25" style="stop-color:#E5F2E2"/>
		<stop  offset="0.44" style="stop-color:#B3C9AE"/>
		<stop  offset="0.6" style="stop-color:#9FB39B"/>
		<stop  offset="0.8" style="stop-color:#869782"/>
		<stop  offset="0.97" style="stop-color:#7A8A76"/>
	</linearGradient>
	<path fill="url(#SVGID_11_)" d="M171.473,560.546h124.5c0,0,0.352-0.273,0.352-0.617l-0.352-7.633c0-0.75,0.102-0.918-0.176-0.918
		l-124.324,0.168c-0.75,0-0.75,0.109-0.75,0.457v7.793c0,0.75,0.164,0.75,0.438,0.75H171.473z"/>
	
		<linearGradient id="SVGID_12_" gradientUnits="userSpaceOnUse" x1="345.2261" y1="564.1255" x2="202.2271" y2="564.1255" gradientTransform="matrix(0.75 0 0 0.75 28.2938 126.7108)">
		<stop  offset="0" style="stop-color:#85A57F"/>
		<stop  offset="0.15" style="stop-color:#B5DBAE"/>
		<stop  offset="0.25" style="stop-color:#D8EBD5"/>
		<stop  offset="0.44" style="stop-color:#99BD92"/>
		<stop  offset="0.6" style="stop-color:#88A881"/>
		<stop  offset="0.8" style="stop-color:#728D6C"/>
		<stop  offset="0.97" style="stop-color:#688163"/>
	</linearGradient>
	<path fill="url(#SVGID_12_)" d="M179.965,551.679h107.25v-3.75h-107.25V551.679z"/>
	
		<linearGradient id="SVGID_13_" gradientUnits="userSpaceOnUse" x1="532.2241" y1="196.8062" x2="202.2251" y2="196.8061" gradientTransform="matrix(0.75 0 0 -0.75 -41.8297 610.9933)">
		<stop  offset="0" style="stop-color:#85A57F"/>
		<stop  offset="0.15" style="stop-color:#B5DBAE"/>
		<stop  offset="0.25" style="stop-color:#D8EBD5"/>
		<stop  offset="0.44" style="stop-color:#99BD92"/>
		<stop  offset="0.6" style="stop-color:#88A881"/>
		<stop  offset="0.8" style="stop-color:#728D6C"/>
		<stop  offset="0.97" style="stop-color:#688163"/>
	</linearGradient>
	<path fill="url(#SVGID_13_)" d="M109.84,460.015h247.5v6.75h-247.5V460.015z"/>
	
		<linearGradient id="SVGID_14_" gradientUnits="userSpaceOnUse" x1="532.2241" y1="196.8042" x2="202.2251" y2="196.8042" gradientTransform="matrix(0.75 0 0 -0.75 -41.8297 412.423)">
		<stop  offset="0" style="stop-color:#85A57F"/>
		<stop  offset="0.15" style="stop-color:#B5DBAE"/>
		<stop  offset="0.25" style="stop-color:#D8EBD5"/>
		<stop  offset="0.44" style="stop-color:#99BD92"/>
		<stop  offset="0.6" style="stop-color:#88A881"/>
		<stop  offset="0.8" style="stop-color:#728D6C"/>
		<stop  offset="0.97" style="stop-color:#688163"/>
	</linearGradient>
	<path fill="url(#SVGID_14_)" d="M109.84,261.445h247.5v6.75h-247.5V261.445z"/>
	
		<linearGradient id="SVGID_15_" gradientUnits="userSpaceOnUse" x1="532.2241" y1="196.8052" x2="202.2251" y2="196.8051" gradientTransform="matrix(0.75 0 0 -0.75 -41.8297 498.379)">
		<stop  offset="0" style="stop-color:#85A57F"/>
		<stop  offset="0.15" style="stop-color:#B5DBAE"/>
		<stop  offset="0.25" style="stop-color:#D8EBD5"/>
		<stop  offset="0.44" style="stop-color:#99BD92"/>
		<stop  offset="0.6" style="stop-color:#88A881"/>
		<stop  offset="0.8" style="stop-color:#728D6C"/>
		<stop  offset="0.97" style="stop-color:#688163"/>
	</linearGradient>
	<path fill="url(#SVGID_15_)" d="M109.84,347.402h247.5v6.75h-247.5V347.402z"/>
	
		<linearGradient id="SVGID_16_" gradientUnits="userSpaceOnUse" x1="215.2256" y1="180.3027" x2="202.2256" y2="180.3027" gradientTransform="matrix(0.75 0 0 -0.75 31.2484 166.4845)">
		<stop  offset="0" style="stop-color:#9DB098"/>
		<stop  offset="0.15" style="stop-color:#D0E8CB"/>
		<stop  offset="0.25" style="stop-color:#E5F2E2"/>
		<stop  offset="0.44" style="stop-color:#B3C9AE"/>
		<stop  offset="0.6" style="stop-color:#9FB39B"/>
		<stop  offset="0.8" style="stop-color:#869782"/>
		<stop  offset="0.97" style="stop-color:#7A8A76"/>
	</linearGradient>
	<path fill="url(#SVGID_16_)" d="M182.918,15.508h9.75v31.5h-9.75V15.508z"/>
	
		<linearGradient id="SVGID_17_" gradientUnits="userSpaceOnUse" x1="215.2261" y1="180.3027" x2="202.2261" y2="180.3027" gradientTransform="matrix(0.75 0 0 -0.75 122.3929 166.4845)">
		<stop  offset="0" style="stop-color:#9DB098"/>
		<stop  offset="0.15" style="stop-color:#D0E8CB"/>
		<stop  offset="0.25" style="stop-color:#E5F2E2"/>
		<stop  offset="0.44" style="stop-color:#B3C9AE"/>
		<stop  offset="0.6" style="stop-color:#9FB39B"/>
		<stop  offset="0.8" style="stop-color:#869782"/>
		<stop  offset="0.97" style="stop-color:#7A8A76"/>
	</linearGradient>
	<path fill="url(#SVGID_17_)" d="M274.063,15.508h9.75v31.5h-9.75V15.508z"/>
	
		<linearGradient id="SVGID_18_" gradientUnits="userSpaceOnUse" x1="349.2261" y1="190.8037" x2="202.2271" y2="190.8037" gradientTransform="matrix(0.75 0 0 -0.75 26.8373 157.2931)">
		<stop  offset="0" style="stop-color:#9DB098"/>
		<stop  offset="0.15" style="stop-color:#D0E8CB"/>
		<stop  offset="0.25" style="stop-color:#E5F2E2"/>
		<stop  offset="0.44" style="stop-color:#B3C9AE"/>
		<stop  offset="0.6" style="stop-color:#9FB39B"/>
		<stop  offset="0.8" style="stop-color:#869782"/>
		<stop  offset="0.97" style="stop-color:#7A8A76"/>
	</linearGradient>
	<path fill="url(#SVGID_18_)" d="M179.258,6.316h108.75c0,0,0.531,0.469,0.531,1.059l0.219,13.941c0,0-0.438,0.703-0.68,0.703
		l-108.82,0.047c-0.75,0-0.75-0.527-0.75-1.117V7.066c0,0,0.145-0.75,0.383-0.75H179.258z"/>
	
		<linearGradient id="SVGID_19_" gradientUnits="userSpaceOnUse" x1="221.2246" y1="201.3057" x2="221.2246" y2="159.3057" gradientTransform="matrix(0.75 0 0 -0.75 205.538 316.1515)">
		<stop  offset="0" style="stop-color:#9EB4BD"/>
		<stop  offset="0.22" style="stop-color:#C7E2ED"/>
		<stop  offset="0.31" style="stop-color:#D7EEF7"/>
		<stop  offset="0.44" style="stop-color:#B5CED7"/>
		<stop  offset="0.6" style="stop-color:#A1B7C0"/>
		<stop  offset="0.8" style="stop-color:#879AA2"/>
		<stop  offset="0.97" style="stop-color:#7B8D94"/>
	</linearGradient>
	<path fill="url(#SVGID_19_)" d="M357.207,165.172h28.5v31.5h-28.5V165.172z"/>
	
		<linearGradient id="SVGID_20_" gradientUnits="userSpaceOnUse" x1="299.6548" y1="-30.1953" x2="202.2231" y2="-30.1953" gradientTransform="matrix(0.75 0 0 -0.75 232.3124 274.6027)">
		<stop  offset="0" style="stop-color:#92A6AE"/>
		<stop  offset="0.03" style="stop-color:#DAEFF8"/>
		<stop  offset="0.08" style="stop-color:#BED8E3"/>
		<stop  offset="0.64" style="stop-color:#BBD5DF"/>
		<stop  offset="0.95" style="stop-color:#B7D0DA"/>
		<stop  offset="1" style="stop-color:#879AA2"/>
	</linearGradient>
	<path fill="url(#SVGID_20_)" d="M384.73,123.625h71.25c0.75,0,1.074,0.461,1.074,1.027l-0.324,345.472c0,0-0.145,0.719-0.711,0.719
		l-71.289,0.031c0,0-0.75-0.504-0.75-1.07V124.375c0,0,0.418-0.75,0.984-0.75H384.73z"/>
	
		<linearGradient id="SVGID_21_" gradientUnits="userSpaceOnUse" x1="216.2246" y1="175.8057" x2="202.2246" y2="175.8057" gradientTransform="matrix(0.75 0 0 -0.75 263.6981 286.67)">
		<stop  offset="0" style="stop-color:#9EB4BD"/>
		<stop  offset="0.15" style="stop-color:#D2ECF7"/>
		<stop  offset="0.25" style="stop-color:#E6F4FA"/>
		<stop  offset="0.44" style="stop-color:#B5CED7"/>
		<stop  offset="0.6" style="stop-color:#A1B7C0"/>
		<stop  offset="0.8" style="stop-color:#879AA2"/>
		<stop  offset="0.97" style="stop-color:#7B8D94"/>
	</linearGradient>
	<path fill="url(#SVGID_21_)" d="M419.117,135.691h3c1.5,0,3.508,2.734,3.508,6.145l0.242,32.105h-10.5v-32.25c0-3,1.711-6,3.836-6
		H419.117z"/>
	<path fill="#EDF6F9" d="M401.699,171.574h36.75c1.5,0,3.039,1.207,3.039,2.695l-0.039,187.804c0,1.5-1.164,2.465-2.648,2.465
		l-37.102-0.215c-1.5,0-3-0.992-3-2.48V174.574c0-1.5,1.199-3,2.684-3H401.699z"/>
	<path fill="none" stroke="#000000" stroke-width="0.25" stroke-linejoin="bevel" stroke-miterlimit="10" d="M410.496,198.508h21"/>
	<path fill="none" stroke="#000000" stroke-width="0.25" stroke-linejoin="bevel" stroke-miterlimit="10" d="M404.984,209.984h32.25
		"/>
	<path fill="none" stroke="#000000" stroke-width="0.25" stroke-linejoin="bevel" stroke-miterlimit="10" d="M404.984,232.543h32.25
		"/>
	<path fill="none" stroke="#000000" stroke-width="0.25" stroke-linejoin="bevel" stroke-miterlimit="10" d="M404.984,255.004h32.25
		"/>
	<path fill="none" stroke="#000000" stroke-width="0.25" stroke-linejoin="bevel" stroke-miterlimit="10" d="M404.984,277.617h32.25
		"/>
	<path fill="none" stroke="#000000" stroke-width="0.25" stroke-linejoin="bevel" stroke-miterlimit="10" d="M404.984,300.273h32.25
		"/>
	<path fill="none" stroke="#FF4500" stroke-width="0.25" stroke-linejoin="bevel" stroke-miterlimit="10" d="M404.984,322.734h32.25
		"/>
	<path fill="none" stroke="#FF4500" stroke-width="0.25" stroke-linejoin="bevel" stroke-miterlimit="10" d="M404.984,345.492h32.25
		"/>
	<path fill="none" stroke="#000000" stroke-width="0.25" stroke-linejoin="bevel" stroke-miterlimit="10" d="M410.496,221.086h21"/>
	<path fill="none" stroke="#000000" stroke-width="0.25" stroke-linejoin="bevel" stroke-miterlimit="10" d="M410.496,243.82h21"/>
	<path fill="none" stroke="#000000" stroke-width="0.25" stroke-linejoin="bevel" stroke-miterlimit="10" d="M410.496,266.324h21"/>
	<path fill="none" stroke="#000000" stroke-width="0.25" stroke-linejoin="bevel" stroke-miterlimit="10" d="M410.496,288.902h21"/>
	<path fill="none" stroke="#FF4500" stroke-width="0.25" stroke-linejoin="bevel" stroke-miterlimit="10" d="M410.496,311.636h21"/>
	<path fill="none" stroke="#FF4500" stroke-width="0.25" stroke-linejoin="bevel" stroke-miterlimit="10" d="M410.496,334.109h21"/>
	<path fill="none" stroke="#000000" stroke-width="0.25" stroke-linejoin="bevel" stroke-miterlimit="10" d="M404.984,186.957h32.25
		"/>
	<path fill="#DE0C00" d="M407.957,343.488v1.5h-5.25c0-0.75,0.215-1.168,0.484-1.605c0.266-0.645,0.805-1.02,1.605-1.742
		c0.91-0.402,1.035-0.977,1.18-1.188c0.48,0.035,0.293-0.57,0.293-0.852c0.188-0.613-0.082-0.547-0.254-0.711
		c-0.309,0.098-0.406-0.25-0.707-0.254c-0.352,0.352-0.535,0.09-0.711,0.266c-0.391,0.086-0.277,0.465-0.305,0.871l-1.586-0.035
		c0-0.75,0.516-1.418,0.961-1.754c0.539-0.496,1.004-0.496,1.676-0.496c0.363,0,1.309,0.191,1.73,0.578
		c0.133,0.172,0.629,0.863,0.629,1.438c0.254,0.234-0.063,0.637-0.184,0.934c-0.313,0.051-0.309,0.605-0.57,0.926
		c-0.492-0.125-0.48,0.523-0.93,0.926c-0.313,0.449-0.738,0.672-0.855,0.805c-0.207,0.395-0.219,0.258-0.293,0.383L407.957,343.488z
		 M410.957,337.488c0.75,0,1.398,0.25,1.805,0.75c0.445,0.75,0.727,1.578,0.727,2.953c-0.281,1.547-0.242,2.359-0.73,2.961
		c-0.301,0.836-0.965,0.742-1.684,0.742c-0.867,0.094-1.309-0.273-1.75-0.816c-0.617-0.59-0.664-1.508-0.664-2.902
		c0.047-1.438,0.242-2.348,0.73-2.949c0.066-0.738,0.961-0.738,1.684-0.738H410.957z M410.957,338.988c0,0-0.211-0.297-0.344-0.188
		c-0.406,0.188-0.242,0.297-0.316,0.574c-0.09,0.363-0.145,0.965-0.145,1.816c0.055,0.797,0.043,1.438,0.129,1.754
		c-0.074,0.543,0.199,0.531,0.332,0.637c0.344-0.094,0.289,0.156,0.461,0.156c-0.117-0.25,0.324-0.051,0.461-0.16
		c0.172-0.09,0.238-0.297,0.316-0.574c-0.145-0.266,0.145-0.961,0.145-1.813c-0.289-0.703-0.043-1.434-0.133-1.754
		c-0.156-0.449-0.195-0.531-0.332-0.637c0.176,0.188-0.285-0.16-0.457-0.164L410.957,338.988z"/>
	<path fill="#DE0C00" d="M405.988,322.433h-1.5v-5.25c0,0-0.797,0.617-1.5,0.844v-1.594c0,0,0.773-0.012,1.211-0.344
		c0.289-0.406,0.734-0.719,0.898-1.156h0.891V322.433z M410.488,314.933c0.75,0,1.59,0.246,1.996,0.75
		c0.254,0.75,0.727,1.578,0.727,2.953c0.277,1.547-0.246,2.359-0.73,2.957c-0.492,0.84-0.965,0.746-1.688,0.746
		c-1.055,0.094-1.305-0.273-1.75-0.816c-0.805-0.59-0.664-1.512-0.664-2.902c-0.141-1.438,0.242-2.348,0.73-2.949
		c0.629-0.738,0.965-0.738,1.684-0.738H410.488z M410.488,316.433c0,0-0.02-0.297-0.156-0.188c0.156,0.188-0.238,0.297-0.313,0.574
		c-0.281,0.363-0.148,0.965-0.148,1.816c-0.133,0.797,0.043,1.438,0.133,1.754c-0.266,0.543,0.199,0.531,0.332,0.637
		c0.152-0.094,0.285,0.156,0.457,0.156c0.445-0.25,0.328-0.051,0.465-0.16c-0.02-0.09,0.238-0.301,0.313-0.578
		c0.418-0.262,0.148-0.957,0.148-1.809c0.27-0.703-0.043-1.438-0.133-1.754c-0.348-0.449-0.199-0.531-0.332-0.637
		c-0.016,0.188-0.285-0.164-0.461-0.164L410.488,316.433z"/>
	<path fill="#DE0C00" d="M407.933,292.371c0.75,0,1.445,0.246,1.852,0.746c0.398,0.754,0.73,1.578,0.73,2.957
		c-0.332,1.547-0.25,2.355-0.734,2.957c-0.348,0.84-0.965,0.746-1.684,0.746c-0.914,0.094-1.309-0.273-1.754-0.816
		c-0.66-0.59-0.66-1.512-0.66-2.902c0-1.438,0.238-2.348,0.727-2.949c0.773-0.738,0.965-0.738,1.688-0.738H407.933z
		 M407.933,293.871c0,0-0.164-0.297-0.301-0.191c-0.449,0.191-0.238,0.301-0.313,0.578c-0.137,0.363-0.148,0.965-0.148,1.816
		c0.012,0.797,0.043,1.434,0.133,1.754c-0.121,0.543,0.199,0.527,0.332,0.633c0.297-0.09,0.285,0.16,0.461,0.16
		c-0.164-0.25,0.324-0.055,0.461-0.16c0.125-0.09,0.238-0.301,0.313-0.578c-0.188-0.262,0.148-0.961,0.148-1.809
		c-0.336-0.703-0.043-1.438-0.133-1.754c-0.203-0.449-0.199-0.531-0.332-0.641c0.129,0.191-0.285-0.16-0.457-0.16L407.933,293.871z"
		/>
	<path d="M402.906,230.184h1.5c0,0,0,0.398,0.188,0.574c0.563,0.176,0.414,0.266,0.684,0.266c0.629-0.09,0.527-0.105,0.723-0.32
		c-0.094-0.52,0.293-0.496,0.293-0.855c0.363-0.414-0.094-0.613-0.281-0.813c-0.105-0.352-0.418-0.297-0.688-0.297
		c-0.168-0.055-0.391,0.031-0.637,0.102l0.469-0.906c0,0,0.348-0.27,0.543-0.438c0.207-0.313,0.297-0.395,0.297-0.672
		c-0.09-0.391-0.07-0.43-0.215-0.57c0.125,0.18-0.34-0.211-0.578-0.211c-0.047-0.359-0.441,0.078-0.609,0.238
		c-0.188,0.152-0.27,0.398-0.309,0.707l-1.379-0.555c0,0,0.324-0.43,0.504-0.684c0.246-0.066,0.43-0.457,0.75-0.602
		c0.246-0.215,0.684-0.215,1.082-0.215c0.664,0,1.23,0.207,1.641,0.629c0.523,0.121,0.508,0.742,0.508,1.18
		c0.016,0.441-0.348,1.113-1.043,1.484c0.309,0.457,0.75,0.281,0.996,0.582c0.063,0.625,0.375,0.668,0.375,1.094
		c-0.313,0.281-0.23,1.152-0.695,1.59c-0.367,0.191-1.047,0.66-1.738,0.66c-0.879,0.281-1.199-0.188-1.633-0.559
		c-0.746-0.66-0.68-0.848-0.746-1.445V230.184z M411.156,224.934c0.75,0,1.027,0.238,1.422,0.727
		c0.828,0.773,0.715,1.539,0.715,2.883c0.113,1.641-0.242,2.297-0.719,2.879c-0.668,0.262-0.938,0.73-1.641,0.73
		c-0.527,0.281-1.273-0.27-1.707-0.797c-0.32-0.422-0.648-1.473-0.648-2.832c0.328-1.34,0.238-2.289,0.711-2.871
		c0.367-0.719,0.941-0.719,1.645-0.719H411.156z M411.156,225.684c-0.75,0-0.543,0.422-0.672,0.523
		c-0.078,0.227-0.234,0.293-0.309,0.563c0.23,0.414-0.145,0.941-0.145,1.773c0.375,0.891,0.043,1.395,0.129,1.707
		c0.246,0.684,0.195,0.516,0.324,0.617c-0.078,0.066,0.281,0.156,0.449,0.156c0.223-0.09,0.316-0.051,0.449-0.156
		c-0.227,0.066,0.234-0.293,0.305-0.563c0.219-0.121,0.145-0.934,0.145-1.762c0.074-0.609-0.043-1.402-0.129-1.711
		c0.203-0.398-0.191-0.52-0.324-0.625c-0.223,0.227-0.277-0.156-0.445-0.156L411.156,225.684z"/>
	<path d="M405.812,209.227v-0.75h-3v-1.5l3-4.5h1.5v4.5h0.75v1.5h-0.75v0.75H405.812z M405.812,206.977v-2.25l-1.5,2.25H405.812z
		 M411.062,202.477c0.75,0,1.215,0.242,1.609,0.73c0.641,0.77,0.715,1.539,0.715,2.879c-0.074,1.641-0.242,2.297-0.719,2.883
		c-0.105,0.258-0.938,0.727-1.641,0.727c-0.715,0.281-1.273-0.266-1.707-0.797c-0.508-0.422-0.648-1.473-0.648-2.828
		c0.141-1.344,0.238-2.289,0.711-2.875c0.18-0.719,0.941-0.719,1.645-0.719H411.062z M411.062,203.227c0,0-0.355,0.422-0.484,0.527
		c-0.266,0.223-0.234,0.293-0.309,0.563c0.043,0.41-0.145,0.938-0.145,1.77c0.188,0.891,0.043,1.398,0.129,1.707
		c0.059,0.684,0.195,0.52,0.324,0.621c0.484,0.063,0.281,0.156,0.449,0.152c0.035-0.09,0.316-0.051,0.449-0.156
		c0.336,0.066,0.234-0.289,0.309-0.559c0.027-0.125,0.141-0.938,0.141-1.766c-0.113-0.609-0.043-1.398-0.129-1.711
		c0.016-0.398-0.191-0.516-0.324-0.621c-0.41,0.223-0.277-0.156-0.445-0.156L411.062,203.227z"/>
	<path d="M402.937,184.59h1.5c0,0,0.039,0.434,0.234,0.613c0.516,0.137,0.418,0.27,0.672,0.27c0.594-0.133,0.539-0.117,0.738-0.348
		c-0.145-0.535,0.301-0.574,0.301-1.039c0.305-0.246-0.098-0.758-0.297-0.977c-0.148-0.02-0.461-0.324-0.781-0.324
		c-0.117,0.305-0.754,0.164-1.07,0.516l-1.297-0.211l0.75-3.75h3.75v1.5h-2.25l-0.75,0.75c0.75,0,0.844,0.113,1.164,0.113
		c0.336-0.113,1.141,0.219,1.57,0.656c0.266,0.73,0.641,1.008,0.641,1.703c-0.375,0.527-0.172,1.102-0.52,1.559
		c-0.605,0.469-1.125,0.938-1.961,0.938c-0.895,0.281-1.215-0.176-1.637-0.527c-0.758-0.691-0.676-0.82-0.758-1.414V184.59z
		 M411.187,179.34c0.75,0,0.961,0.242,1.359,0.73c0.141,0.77,0.711,1.539,0.711,2.879c0.18,1.641-0.242,2.297-0.719,2.883
		c-0.602,0.258-0.938,0.727-1.641,0.727c-0.461,0.281-1.273-0.266-1.707-0.797c-0.254-0.422-0.648-1.469-0.648-2.828
		c-0.355-1.344,0.238-2.289,0.715-2.875c0.43-0.719,0.938-0.719,1.641-0.719H411.187z M411.187,180.09
		c-0.75,0-0.605,0.422-0.738,0.527c-0.012,0.223-0.234,0.293-0.309,0.563c-0.453,0.41-0.141,0.941-0.141,1.77
		c-0.313,0.891,0.043,1.398,0.129,1.711c0.309,0.68,0.191,0.516,0.32,0.617c-0.012,0.063,0.281,0.156,0.449,0.156
		c0.289-0.094,0.32-0.055,0.449-0.156c-0.16,0.063,0.234-0.293,0.309-0.563c0.281-0.125,0.141-0.938,0.141-1.766
		c0.141-0.609-0.039-1.398-0.125-1.711c0.266-0.398-0.195-0.516-0.324-0.621c-0.16,0.223-0.281-0.156-0.449-0.156L411.187,180.09z"
		/>
	<path d="M405.988,277.305h-1.5v-5.25c0,0-0.797,0.617-1.5,0.844v-1.594c0,0,0.773-0.012,1.211-0.344
		c0.289-0.406,0.734-0.719,0.898-1.156h0.891V277.305z M410.488,269.805c0.75,0,1.59,0.246,1.996,0.746
		c0.254,0.754,0.727,1.582,0.727,2.957c0.277,1.547-0.246,2.355-0.73,2.957c-0.492,0.84-0.965,0.746-1.688,0.746
		c-1.055,0.094-1.305-0.273-1.75-0.816c-0.805-0.59-0.664-1.512-0.664-2.902c-0.141-1.438,0.242-2.348,0.73-2.949
		c0.629-0.738,0.965-0.738,1.684-0.738H410.488z M410.488,271.305c0,0-0.02-0.297-0.156-0.191c0.156,0.191-0.238,0.301-0.313,0.578
		c-0.281,0.363-0.148,0.965-0.148,1.816c-0.133,0.797,0.043,1.434,0.133,1.754c-0.266,0.543,0.199,0.527,0.332,0.633
		c0.152-0.09,0.285,0.16,0.457,0.16c0.445-0.25,0.328-0.055,0.465-0.16c-0.02-0.09,0.238-0.301,0.313-0.578
		c0.418-0.262,0.148-0.957,0.148-1.809c0.27-0.703-0.043-1.438-0.133-1.754c-0.348-0.449-0.199-0.531-0.332-0.641
		c-0.016,0.191-0.285-0.16-0.461-0.16L410.488,271.305z"/>
	<path d="M407.957,253.094v1.5h-5.25c0-0.75,0.215-1.172,0.484-1.609c0.266-0.641,0.805-1.016,1.605-1.738
		c0.91-0.402,1.035-0.98,1.18-1.188c0.48,0.035,0.293-0.57,0.293-0.852c0.188-0.613-0.082-0.547-0.254-0.715
		c-0.309,0.102-0.406-0.25-0.707-0.25c-0.352,0.352-0.535,0.09-0.711,0.266c-0.391,0.086-0.277,0.465-0.305,0.867l-1.586-0.031
		c0-0.75,0.516-1.418,0.961-1.754c0.539-0.496,1.004-0.496,1.676-0.496c0.363,0,1.309,0.191,1.73,0.574
		c0.133,0.176,0.629,0.867,0.629,1.441c0.254,0.234-0.063,0.637-0.184,0.934c-0.313,0.051-0.309,0.605-0.57,0.926
		c-0.492-0.125-0.48,0.523-0.93,0.926c-0.313,0.449-0.738,0.672-0.855,0.801c-0.207,0.398-0.219,0.262-0.293,0.387L407.957,253.094z
		 M410.957,247.094c0.75,0,1.398,0.246,1.805,0.75c0.445,0.75,0.727,1.578,0.727,2.953c-0.281,1.547-0.242,2.359-0.73,2.957
		c-0.301,0.84-0.965,0.746-1.684,0.746c-0.867,0.094-1.309-0.273-1.75-0.816c-0.617-0.59-0.664-1.508-0.664-2.902
		c0.047-1.438,0.242-2.348,0.73-2.949c0.066-0.738,0.961-0.738,1.684-0.738H410.957z M410.957,248.594c0,0-0.211-0.297-0.344-0.188
		c-0.406,0.188-0.242,0.297-0.316,0.574c-0.09,0.363-0.145,0.965-0.145,1.816c0.055,0.797,0.043,1.438,0.129,1.754
		c-0.074,0.543,0.199,0.531,0.332,0.637c0.344-0.094,0.289,0.156,0.461,0.156c-0.117-0.25,0.324-0.051,0.461-0.16
		c0.172-0.09,0.238-0.297,0.316-0.574c-0.145-0.266,0.145-0.961,0.145-1.813c-0.289-0.703-0.043-1.434-0.133-1.754
		c-0.156-0.449-0.195-0.531-0.332-0.637c0.176,0.188-0.285-0.164-0.457-0.164L410.957,248.594z"/>
	<path fill="#DE0C00" d="M432.753,343.488v1.5h-5.25c0-0.75,0.215-1.172,0.484-1.605c0.266-0.645,0.805-1.02,1.602-1.742
		c0.914-0.402,1.039-0.977,1.184-1.188c0.48,0.035,0.297-0.57,0.297-0.852c0.184-0.613-0.086-0.547-0.258-0.715
		c-0.309,0.102-0.406-0.25-0.707-0.25c-0.352,0.352-0.535,0.09-0.711,0.266c-0.391,0.086-0.277,0.465-0.305,0.867l-1.586-0.031
		c0-0.75,0.516-1.418,0.961-1.754c0.539-0.496,1.004-0.496,1.676-0.496c0.363,0,1.309,0.191,1.73,0.578
		c0.133,0.172,0.629,0.863,0.629,1.438c0.254,0.234-0.059,0.637-0.18,0.934c-0.316,0.051-0.313,0.605-0.57,0.926
		c-0.496-0.125-0.484,0.523-0.934,0.926c-0.313,0.449-0.738,0.672-0.855,0.801c-0.207,0.398-0.219,0.262-0.293,0.387
		L432.753,343.488z M435.753,337.488c0.75,0,1.402,0.25,1.809,0.75c0.441,0.75,0.727,1.578,0.727,2.953
		c-0.285,1.547-0.242,2.359-0.73,2.957c-0.305,0.84-0.965,0.746-1.684,0.746c-0.871,0.094-1.309-0.273-1.754-0.816
		c-0.617-0.59-0.664-1.508-0.664-2.902c0.047-1.438,0.246-2.348,0.73-2.949c0.066-0.738,0.965-0.738,1.688-0.738H435.753z
		 M435.753,338.988c0,0-0.207-0.297-0.344-0.188c-0.406,0.188-0.238,0.297-0.313,0.574c-0.094,0.363-0.148,0.965-0.148,1.816
		c0.055,0.797,0.043,1.438,0.133,1.754c-0.078,0.543,0.199,0.531,0.332,0.637c0.34-0.094,0.285,0.156,0.461,0.156
		c-0.121-0.25,0.324-0.051,0.461-0.16c0.168-0.09,0.238-0.297,0.313-0.574c-0.145-0.266,0.148-0.961,0.148-1.813
		c-0.293-0.703-0.043-1.434-0.133-1.754c-0.16-0.449-0.199-0.531-0.332-0.637c0.172,0.188-0.285-0.164-0.457-0.164L435.753,338.988z
		"/>
	<path fill="#DE0C00" d="M430.785,322.433h-1.5v-5.25c0,0-0.793,0.617-1.5,0.844v-1.594c0,0,0.777-0.012,1.211-0.344
		c0.289-0.406,0.738-0.719,0.898-1.156h0.891V322.433z M435.285,314.933c0.75,0,1.59,0.246,1.996,0.746
		c0.254,0.754,0.73,1.582,0.73,2.957c0.273,1.547-0.246,2.359-0.734,2.957c-0.492,0.84-0.965,0.746-1.684,0.746
		c-1.059,0.094-1.309-0.273-1.75-0.816c-0.809-0.59-0.668-1.512-0.668-2.902c-0.141-1.438,0.246-2.348,0.73-2.949
		c0.629-0.738,0.965-0.738,1.688-0.738H435.285z M435.285,316.433c0,0-0.02-0.297-0.152-0.191c0.152,0.191-0.242,0.301-0.316,0.578
		c-0.281,0.363-0.148,0.965-0.148,1.816c-0.133,0.797,0.047,1.434,0.133,1.754c-0.266,0.543,0.199,0.531,0.332,0.637
		c0.152-0.094,0.289,0.156,0.461,0.156c0.441-0.25,0.324-0.055,0.461-0.16c-0.02-0.09,0.238-0.301,0.316-0.578
		c0.414-0.262,0.145-0.957,0.145-1.809c0.27-0.703-0.043-1.438-0.133-1.754c-0.348-0.449-0.195-0.531-0.332-0.641
		c-0.016,0.191-0.285-0.16-0.457-0.16L435.285,316.433z"/>
	<path fill="#DE0C00" d="M432.73,292.367c0.75,0,1.445,0.25,1.852,0.75c0.398,0.75,0.73,1.578,0.73,2.953
		c-0.332,1.547-0.246,2.359-0.734,2.961c-0.348,0.836-0.965,0.746-1.68,0.746c-0.918,0.09-1.313-0.277-1.754-0.816
		c-0.664-0.594-0.664-1.512-0.664-2.902c0-1.441,0.242-2.352,0.73-2.949c0.77-0.742,0.961-0.742,1.688-0.742H432.73z
		 M432.73,293.867c0,0-0.164-0.293-0.297-0.188c-0.453,0.188-0.242,0.301-0.316,0.578c-0.137,0.359-0.148,0.965-0.148,1.813
		c0.012,0.797,0.047,1.438,0.133,1.754c-0.121,0.543,0.199,0.531,0.332,0.637c0.297-0.094,0.289,0.16,0.465,0.16
		c-0.168-0.254,0.32-0.055,0.457-0.16c0.125-0.094,0.238-0.301,0.316-0.578c-0.191-0.266,0.145-0.961,0.145-1.813
		c-0.336-0.703-0.043-1.434-0.133-1.754c-0.203-0.449-0.195-0.531-0.332-0.637c0.129,0.188-0.285-0.16-0.453-0.16L432.73,293.867z"
		/>
	<path d="M430.785,277.305h-1.5v-5.25c0,0-0.793,0.613-1.5,0.844v-1.594c0,0,0.777-0.012,1.211-0.344
		c0.289-0.406,0.738-0.719,0.898-1.156h0.891V277.305z M435.285,269.805c0.75,0,1.59,0.246,1.996,0.746
		c0.254,0.754,0.73,1.578,0.73,2.957c0.273,1.547-0.246,2.355-0.734,2.957c-0.492,0.84-0.965,0.746-1.684,0.746
		c-1.059,0.094-1.309-0.273-1.75-0.816c-0.809-0.59-0.668-1.512-0.668-2.902c-0.141-1.438,0.246-2.352,0.73-2.949
		c0.629-0.738,0.965-0.738,1.688-0.738H435.285z M435.285,271.305c0,0-0.02-0.297-0.152-0.191c0.152,0.191-0.242,0.301-0.316,0.578
		c-0.281,0.363-0.148,0.965-0.148,1.816c-0.133,0.797,0.047,1.434,0.133,1.754c-0.266,0.543,0.199,0.527,0.332,0.633
		c0.152-0.09,0.289,0.16,0.461,0.16c0.441-0.25,0.324-0.055,0.461-0.16c-0.02-0.09,0.238-0.301,0.316-0.578
		c0.414-0.262,0.145-0.961,0.145-1.809c0.27-0.703-0.043-1.438-0.133-1.754c-0.348-0.449-0.195-0.531-0.332-0.641
		c-0.016,0.191-0.285-0.16-0.457-0.16L435.285,271.305z"/>
	<path d="M432.753,253.094v1.5h-5.25c0-0.75,0.215-1.172,0.484-1.609c0.266-0.641,0.805-1.016,1.602-1.738
		c0.914-0.402,1.039-0.98,1.184-1.188c0.48,0.035,0.297-0.57,0.297-0.852c0.184-0.613-0.086-0.547-0.258-0.715
		c-0.309,0.102-0.406-0.25-0.707-0.25c-0.352,0.352-0.535,0.09-0.711,0.262c-0.391,0.09-0.277,0.465-0.305,0.871l-1.586-0.031
		c0-0.75,0.516-1.422,0.961-1.754c0.539-0.496,1.004-0.496,1.676-0.496c0.363,0,1.309,0.191,1.73,0.574
		c0.133,0.176,0.629,0.867,0.629,1.441c0.254,0.234-0.059,0.637-0.18,0.934c-0.316,0.051-0.313,0.602-0.57,0.926
		c-0.496-0.125-0.484,0.523-0.934,0.926c-0.313,0.449-0.738,0.672-0.855,0.801c-0.207,0.398-0.219,0.262-0.293,0.387
		L432.753,253.094z M435.753,247.094c0.75,0,1.402,0.246,1.809,0.75c0.441,0.75,0.727,1.578,0.727,2.953
		c-0.285,1.547-0.242,2.359-0.73,2.957c-0.305,0.84-0.965,0.746-1.684,0.746c-0.871,0.094-1.309-0.273-1.754-0.816
		c-0.617-0.59-0.664-1.512-0.664-2.902c0.047-1.438,0.246-2.348,0.73-2.949c0.066-0.738,0.965-0.738,1.688-0.738H435.753z
		 M435.753,248.594c0,0-0.207-0.297-0.344-0.191c-0.406,0.191-0.238,0.301-0.313,0.578c-0.094,0.363-0.148,0.965-0.148,1.816
		c0.055,0.797,0.043,1.434,0.133,1.754c-0.078,0.543,0.199,0.531,0.332,0.637c0.34-0.094,0.285,0.156,0.461,0.156
		c-0.121-0.25,0.324-0.055,0.461-0.16c0.168-0.09,0.238-0.301,0.313-0.578c-0.145-0.262,0.148-0.957,0.148-1.809
		c-0.293-0.703-0.043-1.438-0.133-1.754c-0.16-0.449-0.199-0.531-0.332-0.641c0.172,0.191-0.285-0.16-0.457-0.16L435.753,248.594z"
		/>
	<path d="M427.703,230.18h1.5c0,0,0,0.398,0.188,0.578c0.563,0.172,0.418,0.262,0.684,0.262c0.629-0.09,0.527-0.105,0.723-0.316
		c-0.094-0.523,0.297-0.5,0.297-0.859c0.359-0.414-0.094-0.609-0.281-0.809c-0.109-0.355-0.418-0.301-0.688-0.301
		c-0.172-0.055-0.391,0.035-0.641,0.102l0.469-0.906c0,0,0.348-0.266,0.547-0.438c0.203-0.313,0.297-0.391,0.297-0.672
		c-0.094-0.391-0.074-0.426-0.219-0.57c0.125,0.18-0.336-0.211-0.578-0.211c-0.047-0.359-0.441,0.082-0.609,0.242
		c-0.188,0.148-0.27,0.395-0.305,0.703l-1.383-0.555c0,0,0.324-0.426,0.504-0.684c0.246-0.066,0.43-0.453,0.75-0.602
		c0.246-0.215,0.684-0.215,1.082-0.215c0.664,0,1.23,0.207,1.641,0.633c0.523,0.117,0.512,0.738,0.512,1.176
		c0.012,0.441-0.348,1.117-1.043,1.484c0.305,0.457,0.746,0.281,0.996,0.586c0.059,0.621,0.371,0.668,0.371,1.094
		c-0.313,0.277-0.23,1.148-0.695,1.586c-0.367,0.191-1.043,0.66-1.738,0.66c-0.879,0.281-1.199-0.188-1.629-0.555
		c-0.75-0.664-0.684-0.852-0.75-1.445V230.18z M435.953,224.93c0.75,0,1.027,0.242,1.426,0.73c0.824,0.77,0.711,1.535,0.711,2.879
		c0.113,1.641-0.242,2.297-0.719,2.883c-0.668,0.258-0.938,0.727-1.641,0.727c-0.527,0.281-1.273-0.27-1.707-0.797
		c-0.32-0.422-0.648-1.473-0.648-2.828c0.328-1.344,0.238-2.289,0.715-2.875c0.363-0.719,0.938-0.719,1.641-0.719H435.953z
		 M435.953,225.68c-0.75,0-0.539,0.422-0.672,0.527c-0.078,0.223-0.234,0.289-0.309,0.559c0.23,0.414-0.141,0.941-0.141,1.773
		c0.371,0.891,0.043,1.398,0.129,1.707c0.242,0.684,0.191,0.52,0.324,0.621c-0.082,0.063,0.277,0.152,0.445,0.152
		c0.223-0.09,0.32-0.051,0.449-0.156c-0.227,0.066,0.234-0.289,0.309-0.563c0.215-0.121,0.145-0.934,0.145-1.762
		c0.07-0.609-0.043-1.402-0.129-1.711c0.199-0.398-0.195-0.516-0.324-0.621c-0.227,0.223-0.281-0.156-0.449-0.156L435.953,225.68z"
		/>
	<path d="M430.609,209.227v-0.75h-3v-1.5l3-4.5h1.5v4.5h0.75v1.5h-0.75v0.75H430.609z M430.609,206.977v-2.25l-1.5,2.25H430.609z
		 M435.859,202.477c0.75,0,1.215,0.238,1.613,0.727c0.637,0.773,0.711,1.539,0.711,2.883c-0.074,1.641-0.242,2.297-0.715,2.883
		c-0.109,0.258-0.941,0.727-1.645,0.727c-0.715,0.281-1.273-0.27-1.707-0.797c-0.508-0.422-0.645-1.473-0.645-2.828
		c0.137-1.344,0.234-2.289,0.711-2.875c0.176-0.719,0.938-0.719,1.641-0.719H435.859z M435.859,203.227c0,0-0.352,0.422-0.484,0.523
		c-0.266,0.227-0.234,0.293-0.309,0.563c0.043,0.414-0.141,0.941-0.141,1.773c0.184,0.891,0.043,1.398,0.129,1.707
		c0.055,0.684,0.191,0.516,0.324,0.621c0.48,0.063,0.277,0.152,0.445,0.152c0.035-0.09,0.32-0.051,0.449-0.156
		c0.336,0.066,0.234-0.293,0.309-0.563c0.027-0.121,0.145-0.934,0.145-1.762c-0.117-0.609-0.043-1.402-0.129-1.711
		c0.012-0.398-0.195-0.52-0.324-0.625c-0.414,0.227-0.281-0.156-0.449-0.156L435.859,203.227z"/>
	<path d="M427.738,184.59h1.5c0,0,0.039,0.434,0.234,0.613c0.516,0.137,0.418,0.266,0.672,0.266
		c0.594-0.129,0.535-0.113,0.734-0.344c-0.141-0.535,0.305-0.578,0.305-1.039c0.305-0.246-0.102-0.762-0.301-0.977
		c-0.145-0.02-0.457-0.324-0.777-0.328c-0.117,0.309-0.758,0.168-1.074,0.52l-1.293-0.211l0.75-3.75h3.75v1.5h-2.25l-0.75,0.75
		c0.75,0,0.84,0.113,1.164,0.113c0.336-0.113,1.137,0.219,1.566,0.656c0.27,0.73,0.645,1.004,0.645,1.703
		c-0.375,0.527-0.176,1.102-0.52,1.555c-0.605,0.473-1.129,0.941-1.965,0.941c-0.891,0.281-1.215-0.18-1.637-0.531
		c-0.754-0.688-0.676-0.82-0.754-1.41V184.59z M435.988,179.34c0.75,0,0.961,0.238,1.355,0.727c0.145,0.773,0.715,1.539,0.715,2.883
		c0.18,1.641-0.246,2.297-0.719,2.883c-0.602,0.258-0.941,0.727-1.645,0.727c-0.457,0.281-1.273-0.27-1.703-0.797
		c-0.254-0.422-0.648-1.473-0.648-2.828c-0.355-1.344,0.238-2.289,0.711-2.875c0.434-0.719,0.941-0.719,1.641-0.719H435.988z
		 M435.988,180.09c-0.75,0-0.609,0.422-0.742,0.527c-0.008,0.223-0.234,0.289-0.305,0.559c-0.453,0.414-0.145,0.941-0.145,1.773
		c-0.309,0.891,0.043,1.398,0.129,1.707c0.313,0.684,0.191,0.516,0.324,0.621c-0.012,0.063,0.277,0.152,0.445,0.152
		c0.293-0.09,0.32-0.051,0.453-0.156c-0.16,0.066,0.23-0.293,0.305-0.563c0.285-0.121,0.145-0.934,0.145-1.762
		c0.141-0.609-0.043-1.402-0.129-1.711c0.27-0.398-0.195-0.52-0.324-0.621c-0.156,0.223-0.281-0.156-0.449-0.16L435.988,180.09z"/>
	<path fill="#E0E0E0" d="M417.265,184.484h7.5v180.75h-7.5V184.484z"/>
	<path fill="#FFFFFF" d="M418.667,192.32h4.5v171.75h-4.5V192.32z"/>
	<path fill="#DE0C00" d="M419.988,257.066h2.25v107.25h-2.25V257.066z"/>
	<path fill="#202020" d="M417.695,192.258h6.75v3.75h-6.75V192.258z"/>
	<path fill="#202020" d="M419.898,186.266h2.25v6h-2.25V186.266z"/>
	<path fill="#202020" d="M417.265,184.484h7.5v1.5h-7.5V184.484z"/>
	<path fill="#202020" d="M417.628,359.91h6.75v4.5h-6.75V359.91z"/>
	<path fill="#202020" d="M417.5,351.347h6.75v2.25h-6.75V351.347z"/>
	
		<linearGradient id="SVGID_22_" gradientUnits="userSpaceOnUse" x1="259.2275" y1="182.3027" x2="202.2275" y2="182.3027" gradientTransform="matrix(0.75 0 0 -0.75 247.0282 512.8204)">
		<stop  offset="0" style="stop-color:#9EB4BD"/>
		<stop  offset="0.15" style="stop-color:#D2ECF7"/>
		<stop  offset="0.25" style="stop-color:#E6F4FA"/>
		<stop  offset="0.44" style="stop-color:#B5CED7"/>
		<stop  offset="0.6" style="stop-color:#A1B7C0"/>
		<stop  offset="0.8" style="stop-color:#879AA2"/>
		<stop  offset="0.97" style="stop-color:#7B8D94"/>
	</linearGradient>
	<path fill="url(#SVGID_22_)" d="M398.699,361.843h42.75v28.5h-42.75V361.843z"/>
	
		<linearGradient id="SVGID_23_" gradientUnits="userSpaceOnUse" x1="276.2256" y1="186.3047" x2="202.2256" y2="186.3047" gradientTransform="matrix(0.75 0 0 -0.75 240.8807 541.1056)">
		<stop  offset="0" style="stop-color:#9EB4BD"/>
		<stop  offset="0.15" style="stop-color:#D2ECF7"/>
		<stop  offset="0.25" style="stop-color:#E6F4FA"/>
		<stop  offset="0.44" style="stop-color:#B5CED7"/>
		<stop  offset="0.6" style="stop-color:#A1B7C0"/>
		<stop  offset="0.8" style="stop-color:#879AA2"/>
		<stop  offset="0.97" style="stop-color:#7B8D94"/>
	</linearGradient>
	<path fill="url(#SVGID_23_)" d="M392.55,390.128h55.5v22.5h-55.5V390.128z"/>
	
		<linearGradient id="SVGID_24_" gradientUnits="userSpaceOnUse" x1="243.2227" y1="194.3047" x2="202.2227" y2="194.3047" gradientTransform="matrix(0.75 0 0 -0.75 253.121 563.4064)">
		<stop  offset="0" style="stop-color:#9EB4BD"/>
		<stop  offset="0.15" style="stop-color:#D2ECF7"/>
		<stop  offset="0.25" style="stop-color:#E6F4FA"/>
		<stop  offset="0.44" style="stop-color:#B5CED7"/>
		<stop  offset="0.6" style="stop-color:#A1B7C0"/>
		<stop  offset="0.8" style="stop-color:#879AA2"/>
		<stop  offset="0.97" style="stop-color:#7B8D94"/>
	</linearGradient>
	<path fill="url(#SVGID_24_)" d="M404.789,412.429h30.75v10.5h-30.75V412.429z"/>
	
		<linearGradient id="SVGID_25_" gradientUnits="userSpaceOnUse" x1="216.2246" y1="177.8047" x2="202.2246" y2="177.8047" gradientTransform="matrix(0.75 0 0 -0.75 263.0848 574.2706)">
		<stop  offset="0" style="stop-color:#9EB4BD"/>
		<stop  offset="0.15" style="stop-color:#D2ECF7"/>
		<stop  offset="0.25" style="stop-color:#E6F4FA"/>
		<stop  offset="0.44" style="stop-color:#B5CED7"/>
		<stop  offset="0.6" style="stop-color:#A1B7C0"/>
		<stop  offset="0.8" style="stop-color:#879AA2"/>
		<stop  offset="0.97" style="stop-color:#7B8D94"/>
	</linearGradient>
	<path fill="url(#SVGID_25_)" d="M414.753,423.292h10.5v35.25h-10.5V423.292z"/>
	
		<linearGradient id="SVGID_26_" gradientUnits="userSpaceOnUse" x1="224.2256" y1="190.3027" x2="202.2256" y2="190.3027" gradientTransform="matrix(0.75 0 0 -0.75 260.2792 585.8868)">
		<stop  offset="0" style="stop-color:#9EB4BD"/>
		<stop  offset="0.15" style="stop-color:#D2ECF7"/>
		<stop  offset="0.25" style="stop-color:#E6F4FA"/>
		<stop  offset="0.44" style="stop-color:#B5CED7"/>
		<stop  offset="0.6" style="stop-color:#A1B7C0"/>
		<stop  offset="0.8" style="stop-color:#879AA2"/>
		<stop  offset="0.97" style="stop-color:#7B8D94"/>
	</linearGradient>
	<path fill="url(#SVGID_26_)" d="M411.949,434.91h16.5v16.5h-16.5V434.91z"/>
	
		<linearGradient id="SVGID_27_" gradientUnits="userSpaceOnUse" x1="221.2246" y1="201.3037" x2="221.2246" y2="159.3037" gradientTransform="matrix(0.75 0 0 -0.75 205.538 550.0939)">
		<stop  offset="0" style="stop-color:#9EB4BD"/>
		<stop  offset="0.22" style="stop-color:#C7E2ED"/>
		<stop  offset="0.31" style="stop-color:#D7EEF7"/>
		<stop  offset="0.44" style="stop-color:#B5CED7"/>
		<stop  offset="0.6" style="stop-color:#A1B7C0"/>
		<stop  offset="0.8" style="stop-color:#879AA2"/>
		<stop  offset="0.97" style="stop-color:#7B8D94"/>
	</linearGradient>
	<path fill="url(#SVGID_27_)" d="M357.207,399.117h28.5v31.5h-28.5V399.117z"/>
</g>
</svg>
