<?xml version="1.0" encoding="utf-8"?>
<!-- Generator: Adobe Illustrator 16.0.0, SVG Export Plug-In . SVG Version: 6.00 Build 0)  -->
<!DOCTYPE svg PUBLIC "-//W3C//DTD SVG 1.1//EN" "http://www.w3.org/Graphics/SVG/1.1/DTD/svg11.dtd">
<svg preserveAspectRatio="none"   version="1.1" id="图层_1" xmlns="http://www.w3.org/2000/svg" xmlns:xlink="http://www.w3.org/1999/xlink" x="0px" y="0px"
	 width="93.953px" height="556.828px" viewBox="236.488 5.008 93.953 556.828"
	 enable-background="new 236.488 5.008 93.953 556.828" xml:space="preserve">
<g id="surface286">
	
		<linearGradient id="SVGID_1_" gradientUnits="userSpaceOnUse" x1="299.2231" y1="-145.1973" x2="202.2241" y2="-145.1973" gradientTransform="matrix(0.75 0 0 -0.75 95.5736 184.59)">
		<stop  offset="0" style="stop-color:#B4A59F"/>
		<stop  offset="0.15" style="stop-color:#EDDFDA"/>
		<stop  offset="0.25" style="stop-color:#EEE2DD"/>
		<stop  offset="0.52" style="stop-color:#CAB9B3"/>
		<stop  offset="0.69" style="stop-color:#B4A59F"/>
		<stop  offset="0.8" style="stop-color:#AA9B96"/>
		<stop  offset="0.92" style="stop-color:#A0938E"/>
	</linearGradient>
	<path fill="url(#SVGID_1_)" d="M247.242,33.613h72.75v519.75h-72.75V33.613z"/>
	
		<linearGradient id="SVGID_2_" gradientUnits="userSpaceOnUse" x1="298.8169" y1="184.0645" x2="202.2241" y2="184.0644" gradientTransform="matrix(0.75 0 0 -0.75 95.5736 155.9874)">
		<stop  offset="0" style="stop-color:#B4A59F"/>
		<stop  offset="0.15" style="stop-color:#EDDFDA"/>
		<stop  offset="0.25" style="stop-color:#EEE2DD"/>
		<stop  offset="0.52" style="stop-color:#CAB9B3"/>
		<stop  offset="0.69" style="stop-color:#B4A59F"/>
		<stop  offset="0.8" style="stop-color:#AA9B96"/>
		<stop  offset="0.92" style="stop-color:#A0938E"/>
	</linearGradient>
	<path fill="url(#SVGID_2_)" d="M283.242,5.008c34.5,0,36.445,25.863,36.445,25.863l-72.445-0.363c0,0,1.758-25.5,36.004-25.5
		H283.242z"/>
	
		<linearGradient id="SVGID_3_" gradientUnits="userSpaceOnUse" x1="327.4937" y1="194.6074" x2="202.2231" y2="194.6074" gradientTransform="matrix(0.75 0 0 -0.75 84.8202 702.7452)">
		<stop  offset="0" style="stop-color:#A78F87"/>
		<stop  offset="0.15" style="stop-color:#E1CDC6"/>
		<stop  offset="0.25" style="stop-color:#E4D1CA"/>
		<stop  offset="0.52" style="stop-color:#BCA298"/>
		<stop  offset="0.69" style="stop-color:#A78F87"/>
		<stop  offset="0.8" style="stop-color:#9E877F"/>
		<stop  offset="0.92" style="stop-color:#957F78"/>
	</linearGradient>
	<path fill="url(#SVGID_3_)" d="M238.738,551.765h90c0.75,0,1.703,0.863,1.703,1.953l-0.203,6.297c0,0.75-0.691,1.82-1.781,1.82
		l-89.718-0.32c-1.5,0-2.25-0.57-2.25-1.66v-5.84c0-1.5,0.871-2.27,1.965-2.27L238.738,551.765z"/>
	
		<linearGradient id="SVGID_4_" gradientUnits="userSpaceOnUse" x1="312.2222" y1="198.0952" x2="202.1128" y2="198.0952" gradientTransform="matrix(0.75 0 0 -0.75 90.6215 185.0314)">
		<stop  offset="0" style="stop-color:#A78F87"/>
		<stop  offset="0.15" style="stop-color:#E1CDC6"/>
		<stop  offset="0.25" style="stop-color:#E4D1CA"/>
		<stop  offset="0.52" style="stop-color:#BCA298"/>
		<stop  offset="0.69" style="stop-color:#A78F87"/>
		<stop  offset="0.8" style="stop-color:#9E877F"/>
		<stop  offset="0.92" style="stop-color:#957F78"/>
	</linearGradient>
	<path fill="url(#SVGID_4_)" d="M243.789,34.055h78.75c1.5,0,2.098,0.875,2.098,1.965l0.152,1.035c0,0.75-0.969,1.813-1.938,1.813
		l-79.062-0.313c-0.75,0-1.582-0.57-1.582-1.66l0.082-0.59c0-1.5,0.699-2.25,1.664-2.25H243.789z"/>
	
		<linearGradient id="SVGID_5_" gradientUnits="userSpaceOnUse" x1="312.2222" y1="198.0952" x2="202.1128" y2="198.0952" gradientTransform="matrix(0.75 0 0 -0.75 90.6215 180.2032)">
		<stop  offset="0" style="stop-color:#A78F87"/>
		<stop  offset="0.15" style="stop-color:#E1CDC6"/>
		<stop  offset="0.25" style="stop-color:#E4D1CA"/>
		<stop  offset="0.52" style="stop-color:#BCA298"/>
		<stop  offset="0.69" style="stop-color:#A78F87"/>
		<stop  offset="0.8" style="stop-color:#9E877F"/>
		<stop  offset="0.92" style="stop-color:#957F78"/>
	</linearGradient>
	<path fill="url(#SVGID_5_)" d="M243.789,29.227h78.75c1.5,0,2.098,0.875,2.098,1.965l0.152,1.035c0,0.75-0.969,1.813-1.938,1.813
		l-79.062-0.313c-0.75,0-1.582-0.57-1.582-1.66l0.082-0.59c0-1.5,0.699-2.25,1.664-2.25H243.789z"/>
	
		<linearGradient id="SVGID_6_" gradientUnits="userSpaceOnUse" x1="312.2212" y1="198.0938" x2="202.1133" y2="198.0937" gradientTransform="matrix(0.75 0 0 -0.75 90.3129 407.0519)">
		<stop  offset="0" style="stop-color:#A78F87"/>
		<stop  offset="0.15" style="stop-color:#E1CDC6"/>
		<stop  offset="0.25" style="stop-color:#E4D1CA"/>
		<stop  offset="0.52" style="stop-color:#BCA298"/>
		<stop  offset="0.69" style="stop-color:#A78F87"/>
		<stop  offset="0.8" style="stop-color:#9E877F"/>
		<stop  offset="0.92" style="stop-color:#957F78"/>
	</linearGradient>
	<path fill="url(#SVGID_6_)" d="M243.48,256.074h78.75c1.5,0,2.102,0.875,2.102,1.965l0.148,1.035c0,0.75-0.969,1.816-1.938,1.816
		l-79.062-0.316c-0.75,0-1.582-0.57-1.582-1.656l0.082-0.594c0-1.5,0.699-2.25,1.664-2.25H243.48z"/>
	
		<linearGradient id="SVGID_7_" gradientUnits="userSpaceOnUse" x1="312.2212" y1="198.0947" x2="202.1133" y2="198.0947" gradientTransform="matrix(0.75 0 0 -0.75 90.3129 402.2228)">
		<stop  offset="0" style="stop-color:#A78F87"/>
		<stop  offset="0.15" style="stop-color:#E1CDC6"/>
		<stop  offset="0.25" style="stop-color:#E4D1CA"/>
		<stop  offset="0.52" style="stop-color:#BCA298"/>
		<stop  offset="0.69" style="stop-color:#A78F87"/>
		<stop  offset="0.8" style="stop-color:#9E877F"/>
		<stop  offset="0.92" style="stop-color:#957F78"/>
	</linearGradient>
	<path fill="url(#SVGID_7_)" d="M243.48,251.246h78.75c1.5,0,2.102,0.875,2.102,1.965l0.148,1.035c0,0.75-0.969,1.813-1.938,1.813
		l-79.062-0.313c-0.75,0-1.582-0.57-1.582-1.66l0.082-0.59c0-1.5,0.699-2.25,1.664-2.25H243.48z"/>
</g>
</svg>
