<?xml version="1.0" encoding="utf-8"?>
<!-- Generator: Adobe Illustrator 16.0.0, SVG Export Plug-In . SVG Version: 6.00 Build 0)  -->
<!DOCTYPE svg PUBLIC "-//W3C//DTD SVG 1.1//EN" "http://www.w3.org/Graphics/SVG/1.1/DTD/svg11.dtd">
<svg preserveAspectRatio="none"   version="1.1" id="图层_1" xmlns="http://www.w3.org/2000/svg" xmlns:xlink="http://www.w3.org/1999/xlink" x="0px" y="0px"
	 width="157.5px" height="545.263px" viewBox="204.602 10.84 157.5 545.263" enable-background="new 204.602 10.84 157.5 545.263"
	 xml:space="preserve">
<g id="surface256">
	
		<linearGradient id="SVGID_1_" gradientUnits="userSpaceOnUse" x1="402.4448" y1="-162.2051" x2="202.2251" y2="-162.2051" gradientTransform="matrix(0.75 0 0 -0.75 56.452 161.8165)">
		<stop  offset="0" style="stop-color:#BCAD9A"/>
		<stop  offset="0.15" style="stop-color:#FDEAD3"/>
		<stop  offset="0.25" style="stop-color:#FEF3E7"/>
		<stop  offset="0.52" style="stop-color:#DECCB6"/>
		<stop  offset="0.69" style="stop-color:#C5B5A2"/>
		<stop  offset="0.8" style="stop-color:#BAAB98"/>
		<stop  offset="0.92" style="stop-color:#B0A190"/>
		<stop  offset="1" style="stop-color:#CABAA5"/>
	</linearGradient>
	<path fill="url(#SVGID_1_)" d="M208.121,64.09v434.25c0,0,2.402,58.785,76.882,57.75c74.617-0.75,73.281-57.902,73.281-57.902
		L358.121,64.09c0,0-10.648-53.25-74.316-53.25c-63.684,0-73.281,52.879-75.684,52.879V64.09z"/>
	
		<linearGradient id="SVGID_2_" gradientUnits="userSpaceOnUse" x1="412.2241" y1="190.0981" x2="202.2241" y2="190.0981" gradientTransform="matrix(0.75 0 0 -0.75 52.9325 216.4259)">
		<stop  offset="0" style="stop-color:#AD976F"/>
		<stop  offset="0.15" style="stop-color:#EBD0A1"/>
		<stop  offset="0.25" style="stop-color:#F4E5CF"/>
		<stop  offset="0.52" style="stop-color:#CDB384"/>
		<stop  offset="0.69" style="stop-color:#B69F75"/>
		<stop  offset="0.8" style="stop-color:#AC966E"/>
		<stop  offset="0.92" style="stop-color:#A28E68"/>
		<stop  offset="1" style="stop-color:#BAA378"/>
	</linearGradient>
	<path fill="url(#SVGID_2_)" d="M206.102,65.449h154.5c0.75,0,1.391,0.77,1.391,1.766l0.109,13.234c0,0.75-0.746,1.809-1.484,1.809
		l-154.515-0.309c-0.75,0-1.5-0.496-1.5-1.496V66.949c0-0.75,0.516-1.5,1.25-1.5H206.102z"/>
	
		<linearGradient id="SVGID_3_" gradientUnits="userSpaceOnUse" x1="412.2231" y1="190.0947" x2="202.2236" y2="190.0947" gradientTransform="matrix(0.75 0 0 -0.75 52.933 624.4181)">
		<stop  offset="0" style="stop-color:#AD976F"/>
		<stop  offset="0.15" style="stop-color:#EBD0A1"/>
		<stop  offset="0.25" style="stop-color:#F4E5CF"/>
		<stop  offset="0.52" style="stop-color:#CDB384"/>
		<stop  offset="0.69" style="stop-color:#B69F75"/>
		<stop  offset="0.8" style="stop-color:#AC966E"/>
		<stop  offset="0.92" style="stop-color:#A28E68"/>
		<stop  offset="1" style="stop-color:#BAA378"/>
	</linearGradient>
	<path fill="url(#SVGID_3_)" d="M206.102,473.441h154.5c0.75,0,1.391,0.77,1.391,1.766l0.109,13.234c0,0.75-0.746,1.813-1.484,1.813
		l-154.515-0.313c-0.75,0-1.5-0.496-1.5-1.496v-13.504c0-0.75,0.516-1.5,1.25-1.5H206.102z"/>
	<path fill="#FFFFFF" fill-opacity="0.3216" d="M208.215,82.711v39.75h150v-39.75H208.215z"/>
	<path fill="#FFFFFF" fill-opacity="0.3216" d="M208.215,432.933v39.75h150v-39.75H208.215z"/>
	
		<linearGradient id="SVGID_4_" gradientUnits="userSpaceOnUse" x1="412.2241" y1="194.8027" x2="202.2241" y2="194.8027" gradientTransform="matrix(0.75 0 0 -0.75 52.9325 220.0548)">
		<stop  offset="0" style="stop-color:#BCAD9A"/>
		<stop  offset="0.15" style="stop-color:#FDEAD3"/>
		<stop  offset="0.25" style="stop-color:#FEF3E7"/>
		<stop  offset="0.52" style="stop-color:#DECCB6"/>
		<stop  offset="0.69" style="stop-color:#C5B5A2"/>
		<stop  offset="0.8" style="stop-color:#BAAB98"/>
		<stop  offset="0.92" style="stop-color:#B0A190"/>
		<stop  offset="1" style="stop-color:#CABAA5"/>
	</linearGradient>
	<path fill="url(#SVGID_4_)" d="M206.102,69.078h154.5c0.75,0,1.391,0.438,1.391,1.008l0.109,7.242c0,0.75-0.746,1.352-1.484,1.352
		l-154.515,0.148c-0.75,0-1.5-0.609-1.5-1.18v-7.82c0,0,0.516-0.75,1.25-0.75H206.102z"/>
	
		<linearGradient id="SVGID_5_" gradientUnits="userSpaceOnUse" x1="412.2231" y1="194.8047" x2="202.2236" y2="194.8047" gradientTransform="matrix(0.75 0 0 -0.75 52.933 628.048)">
		<stop  offset="0" style="stop-color:#BCAD9A"/>
		<stop  offset="0.15" style="stop-color:#FDEAD3"/>
		<stop  offset="0.25" style="stop-color:#FEF3E7"/>
		<stop  offset="0.52" style="stop-color:#DECCB6"/>
		<stop  offset="0.69" style="stop-color:#C5B5A2"/>
		<stop  offset="0.8" style="stop-color:#BAAB98"/>
		<stop  offset="0.92" style="stop-color:#B0A190"/>
		<stop  offset="1" style="stop-color:#CABAA5"/>
	</linearGradient>
	<path fill="url(#SVGID_5_)" d="M206.102,477.07h154.5c0.75,0,1.391,0.441,1.391,1.008l0.109,7.242c0,0.75-0.746,1.352-1.484,1.352
		l-154.515,0.148c-0.75,0-1.5-0.609-1.5-1.18v-7.82c0,0,0.516-0.75,1.25-0.75H206.102z"/>
</g>
</svg>
