<?xml version="1.0" encoding="utf-8"?>
<!-- Generator: Adobe Illustrator 16.0.0, SVG Export Plug-In . SVG Version: 6.00 Build 0)  -->
<!DOCTYPE svg PUBLIC "-//W3C//DTD SVG 1.1//EN" "http://www.w3.org/Graphics/SVG/1.1/DTD/svg11.dtd">
<svg preserveAspectRatio="none"   version="1.1" id="图层_1" xmlns="http://www.w3.org/2000/svg" xmlns:xlink="http://www.w3.org/1999/xlink" x="0px" y="0px"
	 width="353.933px" height="553.71px" viewBox="106.379 6.617 353.933 553.71"
	 enable-background="new 106.379 6.617 353.933 553.71" xml:space="preserve">
<g id="surface191">
	
		<linearGradient id="SVGID_1_" gradientUnits="userSpaceOnUse" x1="247.7227" y1="201.3037" x2="247.7227" y2="100.3037" gradientTransform="matrix(0.75 0 0 -0.75 -30.6085 253.1613)">
		<stop  offset="0" style="stop-color:#9DB098"/>
		<stop  offset="0.15" style="stop-color:#D0E8CB"/>
		<stop  offset="0.25" style="stop-color:#E5F2E2"/>
		<stop  offset="0.44" style="stop-color:#B3C9AE"/>
		<stop  offset="0.6" style="stop-color:#9FB39B"/>
		<stop  offset="0.8" style="stop-color:#869782"/>
		<stop  offset="0.97" style="stop-color:#7A8A76"/>
		<stop  offset="1" style="stop-color:#A3B79E"/>
	</linearGradient>
	<path fill="url(#SVGID_1_)" d="M189.309,102.184h-68.25v75.75h68.25V102.184z"/>
	
		<linearGradient id="SVGID_2_" gradientUnits="userSpaceOnUse" x1="211.2012" y1="201.3037" x2="211.2012" y2="100.3037" gradientTransform="matrix(-0.75 0 0 -0.75 569.9083 253.1613)">
		<stop  offset="0" style="stop-color:#9DB098"/>
		<stop  offset="0.15" style="stop-color:#D0E8CB"/>
		<stop  offset="0.25" style="stop-color:#E5F2E2"/>
		<stop  offset="0.44" style="stop-color:#B3C9AE"/>
		<stop  offset="0.6" style="stop-color:#9FB39B"/>
		<stop  offset="0.8" style="stop-color:#869782"/>
		<stop  offset="0.97" style="stop-color:#7A8A76"/>
		<stop  offset="1" style="stop-color:#A3B79E"/>
	</linearGradient>
	<path fill="url(#SVGID_2_)" d="M377.382,102.184h68.25v75.75h-68.25V102.184z"/>
	
		<linearGradient id="SVGID_3_" gradientUnits="userSpaceOnUse" x1="246.2266" y1="191.3057" x2="202.2266" y2="191.3057" gradientTransform="matrix(0.75 0 0 -0.75 115.4506 696.3058)">
		<stop  offset="0" style="stop-color:#9DB098"/>
		<stop  offset="0.15" style="stop-color:#D0E8CB"/>
		<stop  offset="0.25" style="stop-color:#E5F2E2"/>
		<stop  offset="0.44" style="stop-color:#B3C9AE"/>
		<stop  offset="0.6" style="stop-color:#9FB39B"/>
		<stop  offset="0.8" style="stop-color:#869782"/>
		<stop  offset="0.97" style="stop-color:#7A8A76"/>
		<stop  offset="1" style="stop-color:#A3B79E"/>
	</linearGradient>
	<path fill="url(#SVGID_3_)" d="M267.121,545.328h33v15h-33V545.328z"/>
	
		<linearGradient id="SVGID_4_" gradientUnits="userSpaceOnUse" x1="205.2266" y1="201.3037" x2="205.2266" y2="100.3037" gradientTransform="matrix(0.75 0 0 -0.75 -28.0172 253.1613)">
		<stop  offset="0" style="stop-color:#739D6C"/>
		<stop  offset="0.15" style="stop-color:#A1D098"/>
		<stop  offset="0.25" style="stop-color:#CFE5CB"/>
		<stop  offset="0.44" style="stop-color:#84B37C"/>
		<stop  offset="0.6" style="stop-color:#759F6D"/>
		<stop  offset="0.8" style="stop-color:#62865B"/>
		<stop  offset="0.97" style="stop-color:#597A53"/>
		<stop  offset="1" style="stop-color:#78A370"/>
	</linearGradient>
	<path fill="url(#SVGID_4_)" d="M128.152,102.184h-4.5v75.75h4.5V102.184z"/>
	
		<linearGradient id="SVGID_5_" gradientUnits="userSpaceOnUse" x1="213.1689" y1="201.3018" x2="213.1689" y2="8.3018" gradientTransform="matrix(0.75 0 0 -0.75 -45.2047 218.7306)">
		<stop  offset="0" style="stop-color:#9DB098"/>
		<stop  offset="0.15" style="stop-color:#D0E8CB"/>
		<stop  offset="0.25" style="stop-color:#E5F2E2"/>
		<stop  offset="0.44" style="stop-color:#B3C9AE"/>
		<stop  offset="0.6" style="stop-color:#9FB39B"/>
		<stop  offset="0.8" style="stop-color:#869782"/>
		<stop  offset="0.97" style="stop-color:#7A8A76"/>
		<stop  offset="1" style="stop-color:#A3B79E"/>
	</linearGradient>
	<path fill="url(#SVGID_5_)" d="M108.715,67.754h12c1.5,0,2.246,0.902,2.246,2.031l0.004,140.469c0,0.75-0.934,1.957-2.078,1.957
		l-12.172,0.293c-1.5,0-2.336-1.293-2.336-2.422l0.086-140.078c0-1.5,0.84-2.25,1.984-2.25H108.715z"/>
	
		<linearGradient id="SVGID_6_" gradientUnits="userSpaceOnUse" x1="205.2217" y1="201.3027" x2="205.2217" y2="100.3027" gradientTransform="matrix(0.75 0 0 -0.75 286.5321 252.6027)">
		<stop  offset="0" style="stop-color:#739D6C"/>
		<stop  offset="0.15" style="stop-color:#A1D098"/>
		<stop  offset="0.25" style="stop-color:#CFE5CB"/>
		<stop  offset="0.44" style="stop-color:#84B37C"/>
		<stop  offset="0.6" style="stop-color:#759F6D"/>
		<stop  offset="0.8" style="stop-color:#62865B"/>
		<stop  offset="0.97" style="stop-color:#597A53"/>
		<stop  offset="1" style="stop-color:#78A370"/>
	</linearGradient>
	<path fill="url(#SVGID_6_)" d="M442.699,101.625h-4.5v75.75h4.5V101.625z"/>
	
		<linearGradient id="SVGID_7_" gradientUnits="userSpaceOnUse" x1="176.6489" y1="201.3018" x2="176.6489" y2="8.3018" gradientTransform="matrix(-0.75 0 0 -0.75 584.505 218.7306)">
		<stop  offset="0" style="stop-color:#9DB098"/>
		<stop  offset="0.15" style="stop-color:#D0E8CB"/>
		<stop  offset="0.25" style="stop-color:#E5F2E2"/>
		<stop  offset="0.44" style="stop-color:#B3C9AE"/>
		<stop  offset="0.6" style="stop-color:#9FB39B"/>
		<stop  offset="0.8" style="stop-color:#869782"/>
		<stop  offset="0.97" style="stop-color:#7A8A76"/>
		<stop  offset="1" style="stop-color:#A3B79E"/>
	</linearGradient>
	<path fill="url(#SVGID_7_)" d="M457.976,67.754h-12c-1.5,0-2.246,0.902-2.246,2.031l-0.004,140.469c0,0.75,0.934,1.957,2.078,1.957
		l12.172,0.293c1.5,0,2.336-1.293,2.336-2.422l-0.086-140.078c0-1.5-0.84-2.25-1.984-2.25H457.976z"/>
	
		<linearGradient id="SVGID_8_" gradientUnits="userSpaceOnUse" x1="452.6919" y1="-158.377" x2="202.2241" y2="-158.377" gradientTransform="matrix(0.75 0 0 -0.75 37.8705 157.5958)">
		<stop  offset="0" style="stop-color:#9DB098"/>
		<stop  offset="0.15" style="stop-color:#D0E8CB"/>
		<stop  offset="0.25" style="stop-color:#E5F2E2"/>
		<stop  offset="0.44" style="stop-color:#B3C9AE"/>
		<stop  offset="0.6" style="stop-color:#9FB39B"/>
		<stop  offset="0.8" style="stop-color:#869782"/>
		<stop  offset="0.97" style="stop-color:#7A8A76"/>
		<stop  offset="1" style="stop-color:#A3B79E"/>
	</linearGradient>
	<path fill="url(#SVGID_8_)" d="M189.539,41.117c0,0,0-34.5,93.363-34.5c93.386,0,94.488,34.48,94.488,34.48l-0.352,472.519
		c0,0-1.117,32.523-93.574,32.523c-92.426-0.273-93.926-32.566-93.926-32.566V41.117z"/>
</g>
</svg>
