<?xml version="1.0" encoding="utf-8"?>
<!-- Generator: Adobe Illustrator 16.0.0, SVG Export Plug-In . SVG Version: 6.00 Build 0)  -->
<!DOCTYPE svg PUBLIC "-//W3C//DTD SVG 1.1//EN" "http://www.w3.org/Graphics/SVG/1.1/DTD/svg11.dtd">
<svg preserveAspectRatio="none"   version="1.1" id="图层_1" xmlns="http://www.w3.org/2000/svg" xmlns:xlink="http://www.w3.org/1999/xlink" x="0px" y="0px"
	 width="57px" height="562.917px" viewBox="254.965 1.984 57 562.917" enable-background="new 254.965 1.984 57 562.917"
	 xml:space="preserve">
<g id="surface261">
	
		<linearGradient id="SVGID_1_" gradientUnits="userSpaceOnUse" x1="261.2236" y1="-160.1934" x2="202.2246" y2="-160.1934" gradientTransform="matrix(0.75 0 0 -0.75 109.8197 171.2325)">
		<stop  offset="0" style="stop-color:#768CA9"/>
		<stop  offset="0.15" style="stop-color:#A9C3E6"/>
		<stop  offset="0.25" style="stop-color:#D2DEF1"/>
		<stop  offset="0.52" style="stop-color:#8CA6C7"/>
		<stop  offset="0.69" style="stop-color:#7C93B1"/>
		<stop  offset="0.8" style="stop-color:#758BA7"/>
		<stop  offset="0.92" style="stop-color:#6E839E"/>
		<stop  offset="1" style="stop-color:#7F97B6"/>
	</linearGradient>
	<path fill="url(#SVGID_1_)" d="M261.488,20.254h44.25v542.25h-44.25V20.254z"/>
	
		<linearGradient id="SVGID_2_" gradientUnits="userSpaceOnUse" x1="260.8281" y1="189.3047" x2="202.2246" y2="189.3047" gradientTransform="matrix(0.75 0 0 -0.75 109.8197 152.962)">
		<stop  offset="0" style="stop-color:#768CA9"/>
		<stop  offset="0.15" style="stop-color:#A9C3E6"/>
		<stop  offset="0.25" style="stop-color:#D2DEF1"/>
		<stop  offset="0.52" style="stop-color:#8CA6C7"/>
		<stop  offset="0.69" style="stop-color:#7C93B1"/>
		<stop  offset="0.8" style="stop-color:#758BA7"/>
		<stop  offset="0.92" style="stop-color:#6E839E"/>
		<stop  offset="1" style="stop-color:#7F97B6"/>
	</linearGradient>
	<path fill="url(#SVGID_2_)" d="M283.238,1.984c21,0,22.203,17.734,22.203,17.734l-43.953,0.266c0,0,1.066-18,21.844-18H283.238z"/>
	
		<linearGradient id="SVGID_3_" gradientUnits="userSpaceOnUse" x1="277.4746" y1="199.1021" x2="202.1475" y2="199.1021" gradientTransform="matrix(0.75 0 0 -0.75 103.5765 340.8947)">
		<stop  offset="0" style="stop-color:#768CA9"/>
		<stop  offset="0.15" style="stop-color:#A9C3E6"/>
		<stop  offset="0.25" style="stop-color:#D2DEF1"/>
		<stop  offset="0.52" style="stop-color:#8CA6C7"/>
		<stop  offset="0.69" style="stop-color:#7C93B1"/>
		<stop  offset="0.8" style="stop-color:#758BA7"/>
		<stop  offset="0.92" style="stop-color:#6E839E"/>
		<stop  offset="1" style="stop-color:#7F97B6"/>
	</linearGradient>
	<path fill="url(#SVGID_3_)" d="M256.746,189.918h54c0.75,0,0.938,0.602,0.938,1.348c-0.188,1.652-0.563,1.953-1.223,1.953
		l-53.714-0.301c-0.75,0-1.559-0.305-1.559-1.051c0.059-1.199,0.535-1.949,1.199-1.949H256.746z"/>
	
		<linearGradient id="SVGID_4_" gradientUnits="userSpaceOnUse" x1="278.2246" y1="196.7114" x2="202.2256" y2="196.7114" gradientTransform="matrix(0.75 0 0 -0.75 103.2953 708.9757)">
		<stop  offset="0" style="stop-color:#768CA9"/>
		<stop  offset="0.15" style="stop-color:#A9C3E6"/>
		<stop  offset="0.25" style="stop-color:#D2DEF1"/>
		<stop  offset="0.52" style="stop-color:#8CA6C7"/>
		<stop  offset="0.69" style="stop-color:#7C93B1"/>
		<stop  offset="0.8" style="stop-color:#758BA7"/>
		<stop  offset="0.92" style="stop-color:#6E839E"/>
		<stop  offset="1" style="stop-color:#7F97B6"/>
	</linearGradient>
	<path fill="url(#SVGID_4_)" d="M256.465,557.996h54c0.75,0,1.5,0.594,1.5,1.34v3.91c0,0.75-0.543,1.656-1.203,1.656l-54.296-0.156
		c-0.75,0-1.5-0.453-1.5-1.203v-4.047c0-0.75,0.527-1.512,1.191-1.512L256.465,557.996z"/>
	
		<linearGradient id="SVGID_5_" gradientUnits="userSpaceOnUse" x1="277.4746" y1="199.106" x2="202.1475" y2="199.106" gradientTransform="matrix(0.75 0 0 -0.75 103.5765 507.1232)">
		<stop  offset="0" style="stop-color:#768CA9"/>
		<stop  offset="0.15" style="stop-color:#A9C3E6"/>
		<stop  offset="0.25" style="stop-color:#D2DEF1"/>
		<stop  offset="0.52" style="stop-color:#8CA6C7"/>
		<stop  offset="0.69" style="stop-color:#7C93B1"/>
		<stop  offset="0.8" style="stop-color:#758BA7"/>
		<stop  offset="0.92" style="stop-color:#6E839E"/>
		<stop  offset="1" style="stop-color:#7F97B6"/>
	</linearGradient>
	<path fill="url(#SVGID_5_)" d="M256.746,356.144h54c0.75,0,0.938,0.602,0.938,1.348c-0.188,1.652-0.563,1.953-1.223,1.953
		l-53.714-0.301c-0.75,0-1.559-0.305-1.559-1.051c0.059-1.199,0.535-1.949,1.199-1.949H256.746z"/>
	
		<linearGradient id="SVGID_6_" gradientUnits="userSpaceOnUse" x1="261.2236" y1="199.8057" x2="202.2246" y2="199.8057" gradientTransform="matrix(0.75 0 0 -0.75 109.8197 666.881)">
		<stop  offset="0" style="stop-color:#768CA9"/>
		<stop  offset="0.15" style="stop-color:#A9C3E6"/>
		<stop  offset="0.25" style="stop-color:#D2DEF1"/>
		<stop  offset="0.52" style="stop-color:#8CA6C7"/>
		<stop  offset="0.69" style="stop-color:#7C93B1"/>
		<stop  offset="0.8" style="stop-color:#758BA7"/>
		<stop  offset="0.92" style="stop-color:#6E839E"/>
		<stop  offset="1" style="stop-color:#7F97B6"/>
	</linearGradient>
	<path fill="url(#SVGID_6_)" d="M261.488,515.902h44.25v2.25h-44.25V515.902z"/>
	
		<linearGradient id="SVGID_7_" gradientUnits="userSpaceOnUse" x1="277.4746" y1="199.1011" x2="202.1475" y2="199.1011" gradientTransform="matrix(0.75 0 0 -0.75 103.5765 169.5734)">
		<stop  offset="0" style="stop-color:#768CA9"/>
		<stop  offset="0.15" style="stop-color:#A9C3E6"/>
		<stop  offset="0.25" style="stop-color:#D2DEF1"/>
		<stop  offset="0.52" style="stop-color:#8CA6C7"/>
		<stop  offset="0.69" style="stop-color:#7C93B1"/>
		<stop  offset="0.8" style="stop-color:#758BA7"/>
		<stop  offset="0.92" style="stop-color:#6E839E"/>
		<stop  offset="1" style="stop-color:#7F97B6"/>
	</linearGradient>
	<path fill="url(#SVGID_7_)" d="M256.746,18.598h54c0.75,0,0.938,0.598,0.938,1.348c-0.188,1.652-0.563,1.953-1.223,1.953
		l-53.714-0.301c-0.75,0-1.559-0.305-1.559-1.055c0.059-1.195,0.535-1.945,1.199-1.945H256.746z"/>
</g>
</svg>
