<?xml version="1.0" encoding="utf-8"?>
<!-- Generator: Adobe Illustrator 16.0.0, SVG Export Plug-In . SVG Version: 6.00 Build 0)  -->
<!DOCTYPE svg PUBLIC "-//W3C//DTD SVG 1.1//EN" "http://www.w3.org/Graphics/SVG/1.1/DTD/svg11.dtd">
<svg preserveAspectRatio="none"   version="1.1" id="图层_1" xmlns="http://www.w3.org/2000/svg" xmlns:xlink="http://www.w3.org/1999/xlink" x="0px" y="0px"
	 width="142.656px" height="551.183px" viewBox="212.137 7.875 142.656 551.183"
	 enable-background="new 212.137 7.875 142.656 551.183" xml:space="preserve">
<g id="surface51">
	
		<linearGradient id="SVGID_1_" gradientUnits="userSpaceOnUse" x1="250.2256" y1="145.1978" x2="202.2266" y2="145.1978" gradientTransform="matrix(0.75 0 0 -0.75 113.8182 158.8507)">
		<stop  offset="0" style="stop-color:#C5B5A2"/>
		<stop  offset="0.15" style="stop-color:#FDEFDD"/>
		<stop  offset="0.25" style="stop-color:#FEF0DF"/>
		<stop  offset="0.52" style="stop-color:#DECCB6"/>
		<stop  offset="0.69" style="stop-color:#C5B5A2"/>
		<stop  offset="0.8" style="stop-color:#BAAB98"/>
		<stop  offset="0.92" style="stop-color:#B0A190"/>
	</linearGradient>
	<path fill="url(#SVGID_1_)" d="M274.488,7.875h18c4.5,0,8.953,4.242,8.953,9.48l0.047,65.52c0,5.25-4.199,9.156-9.324,9.156
		l-17.675-0.156c-4.5,0-9-4.09-9-9.324V17.625c0-5.25,4.152-9.75,9.277-9.75H274.488z"/>
	
		<linearGradient id="SVGID_2_" gradientUnits="userSpaceOnUse" x1="303.3198" y1="88.5991" x2="202.2222" y2="88.5991" gradientTransform="matrix(0.75 0 0 -0.75 93.8837 220.0685)">
		<stop  offset="0" style="stop-color:#C5B5A2"/>
		<stop  offset="0.15" style="stop-color:#FDEFDD"/>
		<stop  offset="0.25" style="stop-color:#FEF0DF"/>
		<stop  offset="0.52" style="stop-color:#DECCB6"/>
		<stop  offset="0.69" style="stop-color:#C5B5A2"/>
		<stop  offset="0.8" style="stop-color:#BAAB98"/>
		<stop  offset="0.92" style="stop-color:#B0A190"/>
	</linearGradient>
	<path fill="url(#SVGID_2_)" d="M254.551,69.09h57.75c4.5,0,9.074,4.195,9.074,9.434L321.3,228.84c0,5.25-4.129,9.309-9.25,9.309
		l-57.5-0.309c-4.5,0-9-3.938-9-9.172V78.84c0-5.25,4.156-9.75,9.281-9.75H254.551z"/>
	
		<linearGradient id="SVGID_3_" gradientUnits="userSpaceOnUse" x1="334.2534" y1="84.6479" x2="202.2231" y2="84.6479" gradientTransform="matrix(0.75 0 0 -0.75 82.285 270.8898)">
		<stop  offset="0" style="stop-color:#C5B5A2"/>
		<stop  offset="0.15" style="stop-color:#FDEFDD"/>
		<stop  offset="0.25" style="stop-color:#FEF0DF"/>
		<stop  offset="0.52" style="stop-color:#DECCB6"/>
		<stop  offset="0.69" style="stop-color:#C5B5A2"/>
		<stop  offset="0.8" style="stop-color:#BAAB98"/>
		<stop  offset="0.92" style="stop-color:#B0A190"/>
	</linearGradient>
	<path fill="url(#SVGID_3_)" d="M242.953,119.91h81c4.5,0,9.023,4.109,9.023,9.348l-0.023,156.402c0,5.25-4.23,9.238-9.352,9.238
		l-80.648-0.238c-5.25,0-9-4.02-9-9.254V128.91c0-5.25,4.105-9,9.23-9H242.953z"/>
	
		<linearGradient id="SVGID_4_" gradientUnits="userSpaceOnUse" x1="365.2231" y1="28.3032" x2="202.2236" y2="28.3032" gradientTransform="matrix(0.75 0 0 -0.75 70.8319 366.9025)">
		<stop  offset="0" style="stop-color:#C5B5A2"/>
		<stop  offset="0.15" style="stop-color:#FDEFDD"/>
		<stop  offset="0.25" style="stop-color:#FEF0DF"/>
		<stop  offset="0.52" style="stop-color:#DECCB6"/>
		<stop  offset="0.69" style="stop-color:#C5B5A2"/>
		<stop  offset="0.8" style="stop-color:#BAAB98"/>
		<stop  offset="0.92" style="stop-color:#B0A190"/>
	</linearGradient>
	<path fill="url(#SVGID_4_)" d="M231.5,215.926H335c5.25,0,9.43,4.184,9.43,9.422l0.32,240.328c0,5.25-4.477,9.543-9.602,9.543
		L231.5,475.425c-5.25,0-9-4.453-9-9.691V225.676c0-5.25,4.066-9.75,9.191-9.75H231.5z"/>
	
		<linearGradient id="SVGID_5_" gradientUnits="userSpaceOnUse" x1="392.4341" y1="63.8027" x2="202.2261" y2="63.8027" gradientTransform="matrix(0.75 0 0 -0.75 60.4662 503.7843)">
		<stop  offset="0" style="stop-color:#C5B5A2"/>
		<stop  offset="0.15" style="stop-color:#FDEFDD"/>
		<stop  offset="0.25" style="stop-color:#FEF0DF"/>
		<stop  offset="0.52" style="stop-color:#DECCB6"/>
		<stop  offset="0.69" style="stop-color:#C5B5A2"/>
		<stop  offset="0.8" style="stop-color:#BAAB98"/>
		<stop  offset="0.92" style="stop-color:#B0A190"/>
	</linearGradient>
	<path fill="url(#SVGID_5_)" d="M221.137,352.808h124.5c5.25,0,9.156,4.242,9.156,9.48l-0.156,187.02
		c0,5.25-3.996,9.746-9.121,9.746l-124.378,0.004c-4.5,0-9-4.25-9-9.484V362.558c0-5.25,4.152-9.75,9.277-9.75H221.137z"/>
</g>
</svg>
