<?xml version="1.0" encoding="utf-8"?>
<!-- Generator: Adobe Illustrator 16.0.0, SVG Export Plug-In . SVG Version: 6.00 Build 0)  -->
<!DOCTYPE svg PUBLIC "-//W3C//DTD SVG 1.1//EN" "http://www.w3.org/Graphics/SVG/1.1/DTD/svg11.dtd">
<svg preserveAspectRatio="none"   version="1.1" id="图层_1" xmlns="http://www.w3.org/2000/svg" xmlns:xlink="http://www.w3.org/1999/xlink" x="0px" y="0px"
	 width="562.5px" height="529.453px" viewBox="2.086 18.855 562.5 529.453" enable-background="new 2.086 18.855 562.5 529.453"
	 xml:space="preserve">
<g id="surface11">
	
		<linearGradient id="SVGID_1_" gradientUnits="userSpaceOnUse" x1="917.5093" y1="112.8062" x2="202.2231" y2="112.8061" gradientTransform="matrix(0.75 0 0 -0.75 -137.6251 169.8341)">
		<stop  offset="0" style="stop-color:#C4C4C4"/>
		<stop  offset="0.15" style="stop-color:#FFFFFF"/>
		<stop  offset="0.25" style="stop-color:#FFFFFF"/>
		<stop  offset="0.44" style="stop-color:#DFDFDF"/>
		<stop  offset="0.6" style="stop-color:#C7C7C7"/>
		<stop  offset="0.8" style="stop-color:#A8A8A8"/>
		<stop  offset="0.97" style="stop-color:#999999"/>
		<stop  offset="1" style="stop-color:#CBCBCB"/>
	</linearGradient>
	<path fill="url(#SVGID_1_)" d="M14.043,151.605c0-54.75,120.531-132.75,268.234-132.75c148.765,0,268.23,77.738,268.23,132.398
		c-0.215,0.352-536.464,0-536.464,0V151.605z"/>
	<path fill="#EEEEEE" d="M282.523,18.859c0,0-145.371,20.527-241.5,131.957l18.75,0.043c0,0,84.957-102.676,222.406-132H282.523z"/>
	<path fill="#EEEEEE" d="M281.957,18.969c0,0-75.969,39.879-129,132.613l14.25,0.137c0,0,52.785-92.871,115.082-132.75H281.957z"/>
	<path fill="#EEEEEE" d="M281.93,18.969l-8.25,132.75h14.25L281.93,18.969z"/>
	<path fill="#EEEEEE" d="M281.613,18.859c0,0,145.371,20.527,241.5,131.957l-18.75,0.043c0,0-84.957-102.676-222.406-132H281.613z"
		/>
	<path fill="#EEEEEE" d="M282.18,18.969c0,0,75.968,39.879,129,132.613l-14.25,0.137c0,0-52.785-92.871-115.082-132.75H282.18z"/>
	
		<linearGradient id="SVGID_2_" gradientUnits="userSpaceOnUse" x1="920.2251" y1="-49.6943" x2="202.2261" y2="-49.6944" gradientTransform="matrix(0.75 0 0 -0.75 -137.6232 304.3253)">
		<stop  offset="0" style="stop-color:#97AA93"/>
		<stop  offset="0.15" style="stop-color:#D0E8CB"/>
		<stop  offset="0.25" style="stop-color:#E5F2E2"/>
		<stop  offset="0.52" style="stop-color:#B3C9AE"/>
		<stop  offset="0.69" style="stop-color:#9FB39B"/>
		<stop  offset="0.8" style="stop-color:#96A992"/>
		<stop  offset="0.92" style="stop-color:#8E9F89"/>
	</linearGradient>
	<path fill="url(#SVGID_2_)" d="M14.047,153.348h538.5v376.5h-538.5V153.348z"/>
	
		<linearGradient id="SVGID_3_" gradientUnits="userSpaceOnUse" x1="577.2261" y1="201.3047" x2="577.2261" y2="176.3037" gradientTransform="matrix(0.75 0 0 -0.75 -149.5831 680.5353)">
		<stop  offset="0" style="stop-color:#3D3B3B"/>
		<stop  offset="0.03" style="stop-color:#908F8F"/>
		<stop  offset="0.08" style="stop-color:#514F4F"/>
		<stop  offset="0.64" style="stop-color:#504E4E"/>
		<stop  offset="0.95" style="stop-color:#4E4C4C"/>
		<stop  offset="1" style="stop-color:#383636"/>
	</linearGradient>
	<path fill="url(#SVGID_3_)" d="M2.086,529.558h562.5v18.75H2.086V529.558z"/>
	
		<linearGradient id="SVGID_4_" gradientUnits="userSpaceOnUse" x1="920.2251" y1="189.8052" x2="202.2261" y2="189.8051" gradientTransform="matrix(0.75 0 0 -0.75 -137.6232 304.3253)">
		<stop  offset="0" style="stop-color:#8C9F2E"/>
		<stop  offset="0.15" style="stop-color:#C3DA5E"/>
		<stop  offset="0.25" style="stop-color:#DEEAB8"/>
		<stop  offset="0.52" style="stop-color:#A6BC39"/>
		<stop  offset="0.69" style="stop-color:#93A731"/>
		<stop  offset="0.8" style="stop-color:#8B9E2E"/>
		<stop  offset="0.92" style="stop-color:#83952B"/>
		<stop  offset="1" style="stop-color:#97AB33"/>
	</linearGradient>
	<path fill="url(#SVGID_4_)" d="M14.047,153.348h538.5v17.25h-538.5V153.348z"/>
</g>
</svg>
