<?xml version="1.0" encoding="utf-8"?>
<!-- Generator: Adobe Illustrator 16.0.0, SVG Export Plug-In . SVG Version: 6.00 Build 0)  -->
<!DOCTYPE svg PUBLIC "-//W3C//DTD SVG 1.1//EN" "http://www.w3.org/Graphics/SVG/1.1/DTD/svg11.dtd">
<svg preserveAspectRatio="none" version="1.1" id="图层_1" xmlns="http://www.w3.org/2000/svg" xmlns:xlink="http://www.w3.org/1999/xlink" x="0px" y="0px"
	 width="447.14px" height="558.964px" viewBox="59.781 3.863 447.14 558.964" enable-background="new 59.781 3.863 447.14 558.964"
	 xml:space="preserve">
<g id="surface61">
	
		<linearGradient id="SVGID_1_" gradientUnits="userSpaceOnUse" x1="522.2231" y1="-9.1968" x2="202.2236" y2="-9.1968" gradientTransform="matrix(0.75 0 0 -0.75 18.2616 362.4689)">
		<stop  offset="0" style="stop-color:#9A908B"/>
		<stop  offset="0.03" style="stop-color:#E2D7D3"/>
		<stop  offset="0.08" style="stop-color:#C9BCB6"/>
		<stop  offset="0.64" style="stop-color:#C5B9B3"/>
		<stop  offset="0.95" style="stop-color:#C1B4AF"/>
		<stop  offset="1" style="stop-color:#8F8581"/>
	</linearGradient>
	<path fill="url(#SVGID_1_)" d="M169.93,211.492h240v315.75h-240V211.492z"/>
	
		<linearGradient id="SVGID_2_" gradientUnits="userSpaceOnUse" x1="543.2231" y1="193.8052" x2="202.2246" y2="193.8051" gradientTransform="matrix(0.75 0 0 -0.75 10.4716 350.9152)">
		<stop  offset="0" style="stop-color:#9A908B"/>
		<stop  offset="0.03" style="stop-color:#E2D7D3"/>
		<stop  offset="0.08" style="stop-color:#C9BCB6"/>
		<stop  offset="0.64" style="stop-color:#C5B9B3"/>
		<stop  offset="0.95" style="stop-color:#C1B4AF"/>
		<stop  offset="1" style="stop-color:#8F8581"/>
	</linearGradient>
	<path fill="url(#SVGID_2_)" d="M162.141,199.938h255.75v11.25h-255.75V199.938z"/>
	
		<linearGradient id="SVGID_3_" gradientUnits="userSpaceOnUse" x1="543.2231" y1="195.8062" x2="202.2246" y2="195.8061" gradientTransform="matrix(0.75 0 0 -0.75 10.4716 678.5167)">
		<stop  offset="0" style="stop-color:#9A908B"/>
		<stop  offset="0.03" style="stop-color:#E2D7D3"/>
		<stop  offset="0.08" style="stop-color:#C9BCB6"/>
		<stop  offset="0.64" style="stop-color:#C5B9B3"/>
		<stop  offset="0.95" style="stop-color:#C1B4AF"/>
		<stop  offset="1" style="stop-color:#8F8581"/>
	</linearGradient>
	<path fill="url(#SVGID_3_)" d="M162.141,527.539h255.75v8.25h-255.75V527.539z"/>
	<path fill="#B5A49C" d="M205.551,237.617h72v33.75h-72V237.617z"/>
	
		<linearGradient id="SVGID_4_" gradientUnits="userSpaceOnUse" x1="285.2251" y1="186.3047" x2="202.2251" y2="186.3047" gradientTransform="matrix(0.75 0 0 -0.75 58.5453 393.9698)">
		<stop  offset="0" style="stop-color:#9A908B"/>
		<stop  offset="0.03" style="stop-color:#E2D7D3"/>
		<stop  offset="0.08" style="stop-color:#C9BCB6"/>
		<stop  offset="0.64" style="stop-color:#C5B9B3"/>
		<stop  offset="0.95" style="stop-color:#C1B4AF"/>
		<stop  offset="1" style="stop-color:#8F8581"/>
	</linearGradient>
	<path fill="url(#SVGID_4_)" d="M210.215,242.992h62.25v22.5h-62.25V242.992z"/>
	
		<linearGradient id="SVGID_5_" gradientUnits="userSpaceOnUse" x1="216.7271" y1="201.3037" x2="216.7271" y2="184.3037" gradientTransform="matrix(0.75 0 0 -0.75 258.3329 380.0167)">
		<stop  offset="0" style="stop-color:#A19792"/>
		<stop  offset="0.15" style="stop-color:#DCD0CA"/>
		<stop  offset="0.25" style="stop-color:#ECE5E2"/>
		<stop  offset="0.52" style="stop-color:#BFB2AD"/>
		<stop  offset="0.69" style="stop-color:#AA9E9A"/>
		<stop  offset="0.8" style="stop-color:#A09591"/>
		<stop  offset="0.92" style="stop-color:#978D89"/>
		<stop  offset="1" style="stop-color:#AEA29D"/>
	</linearGradient>
	<path fill="url(#SVGID_5_)" d="M410.003,229.039h21.75v12.75h-21.75V229.039z"/>
	
		<linearGradient id="SVGID_6_" gradientUnits="userSpaceOnUse" x1="302.2231" y1="132.8066" x2="202.2231" y2="132.8066" gradientTransform="matrix(0.75 0 0 -0.75 280.2538 364.6036)">
		<stop  offset="0" style="stop-color:#9A908B"/>
		<stop  offset="0.03" style="stop-color:#E2D7D3"/>
		<stop  offset="0.08" style="stop-color:#C9BCB6"/>
		<stop  offset="0.64" style="stop-color:#C5B9B3"/>
		<stop  offset="0.95" style="stop-color:#C1B4AF"/>
		<stop  offset="1" style="stop-color:#8F8581"/>
	</linearGradient>
	<path fill="url(#SVGID_6_)" d="M431.921,213.625h75v102.75h-75V213.625z"/>
	
		<linearGradient id="SVGID_7_" gradientUnits="userSpaceOnUse" x1="315.2241" y1="116.8066" x2="202.2241" y2="116.8066" gradientTransform="matrix(0.75 0 0 -0.75 172.7919 179.4708)">
		<stop  offset="0" style="stop-color:#9A908B"/>
		<stop  offset="0.03" style="stop-color:#E2D7D3"/>
		<stop  offset="0.08" style="stop-color:#C9BCB6"/>
		<stop  offset="0.64" style="stop-color:#C5B9B3"/>
		<stop  offset="0.95" style="stop-color:#C1B4AF"/>
		<stop  offset="1" style="stop-color:#8F8581"/>
	</linearGradient>
	<path fill="url(#SVGID_7_)" d="M324.46,28.492h84.75v126.75h-84.75V28.492z"/>
	
		<linearGradient id="SVGID_8_" gradientUnits="userSpaceOnUse" x1="235.2246" y1="194.8066" x2="202.2246" y2="194.8066" gradientTransform="matrix(0.75 0 0 -0.75 202.6669 306.1866)">
		<stop  offset="0" style="stop-color:#A19792"/>
		<stop  offset="0.15" style="stop-color:#DCD0CA"/>
		<stop  offset="0.25" style="stop-color:#ECE5E2"/>
		<stop  offset="0.52" style="stop-color:#BFB2AD"/>
		<stop  offset="0.69" style="stop-color:#AA9E9A"/>
		<stop  offset="0.8" style="stop-color:#A09591"/>
		<stop  offset="0.92" style="stop-color:#978D89"/>
		<stop  offset="1" style="stop-color:#AEA29D"/>
	</linearGradient>
	<path fill="url(#SVGID_8_)" d="M354.335,155.207h24.75v9.75h-24.75V155.207z"/>
	
		<linearGradient id="SVGID_9_" gradientUnits="userSpaceOnUse" x1="219.2261" y1="186.3037" x2="202.2261" y2="186.3037" gradientTransform="matrix(0.75 0 0 -0.75 208.6854 315.8126)">
		<stop  offset="0" style="stop-color:#A19792"/>
		<stop  offset="0.15" style="stop-color:#DCD0CA"/>
		<stop  offset="0.25" style="stop-color:#ECE5E2"/>
		<stop  offset="0.52" style="stop-color:#BFB2AD"/>
		<stop  offset="0.69" style="stop-color:#AA9E9A"/>
		<stop  offset="0.8" style="stop-color:#A09591"/>
		<stop  offset="0.92" style="stop-color:#978D89"/>
		<stop  offset="1" style="stop-color:#AEA29D"/>
	</linearGradient>
	<path fill="url(#SVGID_9_)" d="M360.355,164.836h12.75v22.5h-12.75V164.836z"/>
	
		<linearGradient id="SVGID_10_" gradientUnits="userSpaceOnUse" x1="240.2256" y1="192.8027" x2="202.2256" y2="192.8027" gradientTransform="matrix(0.75 0 0 -0.75 200.7323 338.2853)">
		<stop  offset="0" style="stop-color:#A19792"/>
		<stop  offset="0.15" style="stop-color:#DCD0CA"/>
		<stop  offset="0.25" style="stop-color:#ECE5E2"/>
		<stop  offset="0.52" style="stop-color:#BFB2AD"/>
		<stop  offset="0.69" style="stop-color:#AA9E9A"/>
		<stop  offset="0.8" style="stop-color:#A09591"/>
		<stop  offset="0.92" style="stop-color:#978D89"/>
		<stop  offset="1" style="stop-color:#AEA29D"/>
	</linearGradient>
	<path fill="url(#SVGID_10_)" d="M352.402,187.309h28.5v12.75h-28.5V187.309z"/>
	
		<linearGradient id="SVGID_11_" gradientUnits="userSpaceOnUse" x1="322.2222" y1="148.8047" x2="202.2222" y2="148.8047" gradientTransform="matrix(0.75 0 0 -0.75 -91.8864 617.1886)">
		<stop  offset="0" style="stop-color:#A19792"/>
		<stop  offset="0.15" style="stop-color:#DCD0CA"/>
		<stop  offset="0.25" style="stop-color:#ECE5E2"/>
		<stop  offset="0.52" style="stop-color:#BFB2AD"/>
		<stop  offset="0.69" style="stop-color:#AA9E9A"/>
		<stop  offset="0.8" style="stop-color:#A09591"/>
		<stop  offset="0.92" style="stop-color:#978D89"/>
		<stop  offset="1" style="stop-color:#AEA29D"/>
	</linearGradient>
	<path fill="url(#SVGID_11_)" d="M59.781,466.21h90v78.75h-90V466.21z"/>
	
		<linearGradient id="SVGID_12_" gradientUnits="userSpaceOnUse" x1="322.2222" y1="189.8047" x2="202.2222" y2="189.8047" gradientTransform="matrix(0.75 0 0 -0.75 -91.8864 600.0558)">
		<stop  offset="0" style="stop-color:#A19792"/>
		<stop  offset="0.15" style="stop-color:#DCD0CA"/>
		<stop  offset="0.25" style="stop-color:#ECE5E2"/>
		<stop  offset="0.52" style="stop-color:#BFB2AD"/>
		<stop  offset="0.69" style="stop-color:#AA9E9A"/>
		<stop  offset="0.8" style="stop-color:#A09591"/>
		<stop  offset="0.92" style="stop-color:#978D89"/>
		<stop  offset="1" style="stop-color:#AEA29D"/>
	</linearGradient>
	<path fill="url(#SVGID_12_)" d="M81.531,449.078h47.25l21,17.25h-90L81.531,449.078z"/>
	
		<linearGradient id="SVGID_13_" gradientUnits="userSpaceOnUse" x1="265.2222" y1="193.3047" x2="202.2222" y2="193.3047" gradientTransform="matrix(0.75 0 0 -0.75 -70.3937 589.3566)">
		<stop  offset="0" style="stop-color:#A19792"/>
		<stop  offset="0.15" style="stop-color:#DCD0CA"/>
		<stop  offset="0.25" style="stop-color:#ECE5E2"/>
		<stop  offset="0.52" style="stop-color:#BFB2AD"/>
		<stop  offset="0.69" style="stop-color:#AA9E9A"/>
		<stop  offset="0.8" style="stop-color:#A09591"/>
		<stop  offset="0.92" style="stop-color:#978D89"/>
		<stop  offset="1" style="stop-color:#AEA29D"/>
	</linearGradient>
	<path fill="url(#SVGID_13_)" d="M81.273,438.378h47.25v12h-47.25V438.378z"/>
	
		<linearGradient id="SVGID_14_" gradientUnits="userSpaceOnUse" x1="282.2266" y1="196.8643" x2="202.2266" y2="196.8643" gradientTransform="matrix(0.75 0 0 -0.75 -76.6232 582.6075)">
		<stop  offset="0" style="stop-color:#A19792"/>
		<stop  offset="0.15" style="stop-color:#DCD0CA"/>
		<stop  offset="0.25" style="stop-color:#ECE5E2"/>
		<stop  offset="0.52" style="stop-color:#BFB2AD"/>
		<stop  offset="0.69" style="stop-color:#AA9E9A"/>
		<stop  offset="0.8" style="stop-color:#A09591"/>
		<stop  offset="0.92" style="stop-color:#978D89"/>
		<stop  offset="1" style="stop-color:#AEA29D"/>
	</linearGradient>
	<path fill="url(#SVGID_14_)" d="M77.297,431.628h54.75c1.5,0,2.742,1.059,2.742,2.477l0.258,2.023c0,0.75-1.461,2.258-2.887,2.258
		l-54.863-0.008c-1.5,0-2.25-1.145-2.25-2.563v-1.938c0-1.5,1.102-2.344,2.523-2.344L77.297,431.628z"/>
	
		<linearGradient id="SVGID_15_" gradientUnits="userSpaceOnUse" x1="263.2251" y1="56.8066" x2="202.2251" y2="56.8066" gradientTransform="matrix(0.75 0 0 -0.75 -70.0714 365.4718)">
		<stop  offset="0" style="stop-color:#A19792"/>
		<stop  offset="0.15" style="stop-color:#DCD0CA"/>
		<stop  offset="0.25" style="stop-color:#ECE5E2"/>
		<stop  offset="0.52" style="stop-color:#BFB2AD"/>
		<stop  offset="0.69" style="stop-color:#AA9E9A"/>
		<stop  offset="0.8" style="stop-color:#A09591"/>
		<stop  offset="0.92" style="stop-color:#978D89"/>
		<stop  offset="1" style="stop-color:#AEA29D"/>
	</linearGradient>
	<path fill="url(#SVGID_15_)" d="M81.598,431.242h45.75v-216.75h-45.75V431.242z"/>
	
		<linearGradient id="SVGID_16_" gradientUnits="userSpaceOnUse" x1="263.2271" y1="191.8027" x2="202.2271" y2="191.8027" gradientTransform="matrix(0.75 0 0 -0.75 -70.0729 350.9142)">
		<stop  offset="0" style="stop-color:#A19792"/>
		<stop  offset="0.15" style="stop-color:#DCD0CA"/>
		<stop  offset="0.25" style="stop-color:#ECE5E2"/>
		<stop  offset="0.52" style="stop-color:#BFB2AD"/>
		<stop  offset="0.69" style="stop-color:#AA9E9A"/>
		<stop  offset="0.8" style="stop-color:#A09591"/>
		<stop  offset="0.92" style="stop-color:#978D89"/>
		<stop  offset="1" style="stop-color:#AEA29D"/>
	</linearGradient>
	<path fill="url(#SVGID_16_)" d="M81.598,214.188h45.75l-8.25-14.25h-29.25L81.598,214.188z"/>
	
		<linearGradient id="SVGID_17_" gradientUnits="userSpaceOnUse" x1="256.0439" y1="197.6826" x2="202.1533" y2="197.6826" gradientTransform="matrix(0.75 0 0 -0.75 -67.2755 345.4122)">
		<stop  offset="0" style="stop-color:#A19792"/>
		<stop  offset="0.15" style="stop-color:#DCD0CA"/>
		<stop  offset="0.25" style="stop-color:#ECE5E2"/>
		<stop  offset="0.52" style="stop-color:#BFB2AD"/>
		<stop  offset="0.69" style="stop-color:#AA9E9A"/>
		<stop  offset="0.8" style="stop-color:#A09591"/>
		<stop  offset="0.92" style="stop-color:#978D89"/>
		<stop  offset="1" style="stop-color:#AEA29D"/>
	</linearGradient>
	<path fill="url(#SVGID_17_)" d="M86.645,194.434h35.25c1.5,0,2.852,1.086,2.852,2.504c0.148,1.996-1.156,2.996-2.578,2.996
		l-35.523-0.25c-1.5,0-2.305-0.902-2.305-2.32c0.055-2.18,1.156-2.996,2.578-2.996L86.645,194.434z"/>
	
		<linearGradient id="SVGID_18_" gradientUnits="userSpaceOnUse" x1="391.6274" y1="174.8247" x2="202.2217" y2="174.8247" gradientTransform="matrix(0.75 0 0 -0.75 -60.1515 305.5831)">
		<stop  offset="0" style="stop-color:#A19792"/>
		<stop  offset="0.15" style="stop-color:#DCD0CA"/>
		<stop  offset="0.25" style="stop-color:#ECE5E2"/>
		<stop  offset="0.52" style="stop-color:#BFB2AD"/>
		<stop  offset="0.69" style="stop-color:#AA9E9A"/>
		<stop  offset="0.8" style="stop-color:#A09591"/>
		<stop  offset="0.92" style="stop-color:#978D89"/>
		<stop  offset="1" style="stop-color:#AEA29D"/>
	</linearGradient>
	<path fill="url(#SVGID_18_)" d="M91.516,194.355c0,0,0.828-30.809,37.793-39.797l64.957,0.047c0,0,34.77,3.805,39.305,39.121
		l-26.555-0.121c0,0-2.051-12.934-14.949-13.789l-60.051,0.289c0,0-12.16,1.852-14.313,14.266L91.516,194.355z"/>
	
		<linearGradient id="SVGID_19_" gradientUnits="userSpaceOnUse" x1="256.042" y1="197.6826" x2="202.1514" y2="197.6826" gradientTransform="matrix(0.75 0 0 -0.75 49.2963 345.4122)">
		<stop  offset="0" style="stop-color:#A19792"/>
		<stop  offset="0.15" style="stop-color:#DCD0CA"/>
		<stop  offset="0.25" style="stop-color:#ECE5E2"/>
		<stop  offset="0.52" style="stop-color:#BFB2AD"/>
		<stop  offset="0.69" style="stop-color:#AA9E9A"/>
		<stop  offset="0.8" style="stop-color:#A09591"/>
		<stop  offset="0.92" style="stop-color:#978D89"/>
		<stop  offset="1" style="stop-color:#AEA29D"/>
	</linearGradient>
	<path fill="url(#SVGID_19_)" d="M203.215,194.434h35.25c1.5,0,2.852,1.086,2.852,2.504c0.148,1.996-1.152,2.996-2.578,2.996
		l-35.523-0.25c-1.5,0-2.305-0.902-2.305-2.32c0.055-2.18,1.156-2.996,2.582-2.996L203.215,194.434z"/>
	<path fill="#B5A49C" d="M441.96,223.469h25.5v18h-25.5V223.469z"/>
	<path fill="#B5A49C" d="M441.96,246.766h25.5v28.5h-25.5V246.766z"/>
	<path fill="#7D040F" d="M436.128,299.777c0-3.75,2.602-6.016,5.836-6.016c3.164,0.016,5.832,2.605,5.832,5.828
		c0.332,3.188-2.621,5.816-5.832,5.816c-3.586,0.371-5.848-2.613-5.848-5.816L436.128,299.777z"/>
	
		<linearGradient id="SVGID_20_" gradientUnits="userSpaceOnUse" x1="204.2451" y1="202.4956" x2="212.9319" y2="187.4496" gradientTransform="matrix(0.75 0 0 -0.75 285.5302 445.8204)">
		<stop  offset="0" style="stop-color:#9F5153"/>
		<stop  offset="1" style="stop-color:#7B030D"/>
	</linearGradient>
	<path fill="url(#SVGID_20_)" stroke="#FFFFFF" stroke-linejoin="bevel" stroke-miterlimit="10" d="M437.199,299.343
		c0-2.25,2.121-4.512,4.766-4.512c2.734,0.012,4.766,2.125,4.766,4.758c0.219,2.754-2.141,4.75-4.766,4.75
		c-2.516,0.254-4.777-2.133-4.777-4.75L437.199,299.343z"/>
	<path fill="#276F71" d="M454.871,299.777c0-3.75,2.598-6.016,5.832-6.016c3.168,0.016,5.836,2.605,5.836,5.828
		c0.332,3.188-2.621,5.816-5.836,5.816c-3.582,0.371-5.848-2.613-5.848-5.816L454.871,299.777z"/>
	
		<linearGradient id="SVGID_21_" gradientUnits="userSpaceOnUse" x1="204.2441" y1="202.4946" x2="212.9309" y2="187.4487" gradientTransform="matrix(0.75 0 0 -0.75 304.2694 445.8204)">
		<stop  offset="0" style="stop-color:#91CFD1"/>
		<stop  offset="1" style="stop-color:#49AEB1"/>
	</linearGradient>
	<path fill="url(#SVGID_21_)" stroke="#FFFFFF" stroke-linejoin="bevel" stroke-miterlimit="10" d="M455.937,299.343
		c0-2.25,2.125-4.512,4.766-4.512c2.734,0.012,4.766,2.125,4.766,4.758c0.219,2.754-2.141,4.75-4.766,4.75
		c-2.516,0.254-4.777-2.133-4.777-4.75L455.937,299.343z"/>
	<path fill="#7D040F" d="M489.753,299.777c0-3.75,2.602-6.016,5.836-6.016c3.164,0.016,5.832,2.605,5.832,5.828
		c0.332,3.188-2.621,5.816-5.832,5.816c-3.586,0.371-5.848-2.613-5.848-5.816L489.753,299.777z"/>
	
		<linearGradient id="SVGID_22_" gradientUnits="userSpaceOnUse" x1="204.2451" y1="202.4956" x2="212.9319" y2="187.4496" gradientTransform="matrix(0.75 0 0 -0.75 339.1552 445.8204)">
		<stop  offset="0" style="stop-color:#9F5153"/>
		<stop  offset="1" style="stop-color:#7B030D"/>
	</linearGradient>
	<path fill="url(#SVGID_22_)" stroke="#FFFFFF" stroke-linejoin="bevel" stroke-miterlimit="10" d="M490.824,299.343
		c0-2.25,2.121-4.512,4.766-4.512c2.734,0.012,4.766,2.125,4.766,4.758c0.219,2.754-2.141,4.75-4.766,4.75
		c-2.516,0.254-4.777-2.133-4.777-4.75L490.824,299.343z"/>
	<path fill="#276F71" d="M471.878,299.777c0-3.75,2.598-6.016,5.832-6.016c3.168,0.016,5.836,2.605,5.836,5.828
		c0.332,3.188-2.621,5.816-5.836,5.816c-3.582,0.371-5.848-2.613-5.848-5.816L471.878,299.777z"/>
	
		<linearGradient id="SVGID_23_" gradientUnits="userSpaceOnUse" x1="204.2441" y1="202.4946" x2="212.9306" y2="187.4492" gradientTransform="matrix(0.75 0 0 -0.75 321.2772 445.8204)">
		<stop  offset="0" style="stop-color:#91CFD1"/>
		<stop  offset="1" style="stop-color:#49AEB1"/>
	</linearGradient>
	<path fill="url(#SVGID_23_)" stroke="#FFFFFF" stroke-linejoin="bevel" stroke-miterlimit="10" d="M472.945,299.343
		c0-2.25,2.125-4.512,4.766-4.512c2.734,0.012,4.766,2.125,4.766,4.758c0.219,2.754-2.141,4.75-4.766,4.75
		c-2.516,0.254-4.777-2.133-4.777-4.75L472.945,299.343z"/>
	
		<linearGradient id="SVGID_24_" gradientUnits="userSpaceOnUse" x1="228.2256" y1="186.8066" x2="202.2256" y2="186.8066" gradientTransform="matrix(0.75 0 0 -0.75 293.2987 401.1476)">
		<stop  offset="0" style="stop-color:#9A908B"/>
		<stop  offset="0.03" style="stop-color:#E2D7D3"/>
		<stop  offset="0.08" style="stop-color:#C9BCB6"/>
		<stop  offset="0.64" style="stop-color:#C5B9B3"/>
		<stop  offset="0.95" style="stop-color:#C1B4AF"/>
		<stop  offset="1" style="stop-color:#8F8581"/>
	</linearGradient>
	<path fill="url(#SVGID_24_)" d="M444.968,250.168h19.5v21.75h-19.5V250.168z"/>
	
		<linearGradient id="SVGID_25_" gradientUnits="userSpaceOnUse" x1="228.2256" y1="194.3066" x2="202.2256" y2="194.3066" gradientTransform="matrix(0.75 0 0 -0.75 293.2987 378.1388)">
		<stop  offset="0" style="stop-color:#9A908B"/>
		<stop  offset="0.03" style="stop-color:#E2D7D3"/>
		<stop  offset="0.08" style="stop-color:#C9BCB6"/>
		<stop  offset="0.64" style="stop-color:#C5B9B3"/>
		<stop  offset="0.95" style="stop-color:#C1B4AF"/>
		<stop  offset="1" style="stop-color:#8F8581"/>
	</linearGradient>
	<path fill="url(#SVGID_25_)" d="M444.968,227.16h19.5v10.5h-19.5V227.16z"/>
	
		<linearGradient id="SVGID_26_" gradientUnits="userSpaceOnUse" x1="241.2236" y1="183.8066" x2="202.2236" y2="183.8066" gradientTransform="matrix(0.75 0 0 -0.75 18.2621 687.5568)">
		<stop  offset="0" style="stop-color:#9A908B"/>
		<stop  offset="0.03" style="stop-color:#E2D7D3"/>
		<stop  offset="0.08" style="stop-color:#C9BCB6"/>
		<stop  offset="0.64" style="stop-color:#C5B9B3"/>
		<stop  offset="0.95" style="stop-color:#C1B4AF"/>
		<stop  offset="1" style="stop-color:#8F8581"/>
	</linearGradient>
	<path fill="url(#SVGID_26_)" d="M169.93,536.578h29.25v16.5h-14.25v9.75h-15V536.578z"/>
	
		<linearGradient id="SVGID_27_" gradientUnits="userSpaceOnUse" x1="204.7002" y1="183.8066" x2="165.7002" y2="183.8066" gradientTransform="matrix(-0.75 0 0 -0.75 534.3888 687.5568)">
		<stop  offset="0" style="stop-color:#9A908B"/>
		<stop  offset="0.03" style="stop-color:#E2D7D3"/>
		<stop  offset="0.08" style="stop-color:#C9BCB6"/>
		<stop  offset="0.64" style="stop-color:#C5B9B3"/>
		<stop  offset="0.95" style="stop-color:#C1B4AF"/>
		<stop  offset="1" style="stop-color:#8F8581"/>
	</linearGradient>
	<path fill="url(#SVGID_27_)" d="M410.113,536.578h-29.25v16.5h14.25v9.75h15V536.578z"/>
	
		<linearGradient id="SVGID_28_" gradientUnits="userSpaceOnUse" x1="207.2246" y1="-9.1973" x2="202.2246" y2="-9.1973" gradientTransform="matrix(0.75 0 0 -0.75 34.1122 362.4689)">
		<stop  offset="0" style="stop-color:#A19792"/>
		<stop  offset="0.15" style="stop-color:#DCD0CA"/>
		<stop  offset="0.25" style="stop-color:#ECE5E2"/>
		<stop  offset="0.52" style="stop-color:#BFB2AD"/>
		<stop  offset="0.69" style="stop-color:#AA9E9A"/>
		<stop  offset="0.8" style="stop-color:#A09591"/>
		<stop  offset="0.92" style="stop-color:#978D89"/>
		<stop  offset="1" style="stop-color:#AEA29D"/>
	</linearGradient>
	<path fill="url(#SVGID_28_)" d="M185.781,211.492h3.75v315.75h-3.75V211.492z"/>
	
		<linearGradient id="SVGID_29_" gradientUnits="userSpaceOnUse" x1="207.2241" y1="-9.1973" x2="202.2241" y2="-9.1973" gradientTransform="matrix(0.75 0 0 -0.75 150.8153 362.4689)">
		<stop  offset="0" style="stop-color:#A19792"/>
		<stop  offset="0.15" style="stop-color:#DCD0CA"/>
		<stop  offset="0.25" style="stop-color:#ECE5E2"/>
		<stop  offset="0.52" style="stop-color:#BFB2AD"/>
		<stop  offset="0.69" style="stop-color:#AA9E9A"/>
		<stop  offset="0.8" style="stop-color:#A09591"/>
		<stop  offset="0.92" style="stop-color:#978D89"/>
		<stop  offset="1" style="stop-color:#AEA29D"/>
	</linearGradient>
	<path fill="url(#SVGID_29_)" d="M302.484,211.492h3.75v315.75h-3.75V211.492z"/>
	
		<linearGradient id="SVGID_30_" gradientUnits="userSpaceOnUse" x1="207.2241" y1="-9.1973" x2="202.2241" y2="-9.1973" gradientTransform="matrix(0.75 0 0 -0.75 233.3973 362.4689)">
		<stop  offset="0" style="stop-color:#A19792"/>
		<stop  offset="0.15" style="stop-color:#DCD0CA"/>
		<stop  offset="0.25" style="stop-color:#ECE5E2"/>
		<stop  offset="0.52" style="stop-color:#BFB2AD"/>
		<stop  offset="0.69" style="stop-color:#AA9E9A"/>
		<stop  offset="0.8" style="stop-color:#A09591"/>
		<stop  offset="0.92" style="stop-color:#978D89"/>
		<stop  offset="1" style="stop-color:#AEA29D"/>
	</linearGradient>
	<path fill="url(#SVGID_30_)" d="M385.066,211.492h3.75v315.75h-3.75V211.492z"/>
	
		<linearGradient id="SVGID_31_" gradientUnits="userSpaceOnUse" x1="211.2246" y1="201.3037" x2="211.2246" y2="111.3037" gradientTransform="matrix(0.75 0 0 -0.75 258.3309 466.4923)">
		<stop  offset="0" style="stop-color:#A19792"/>
		<stop  offset="0.15" style="stop-color:#DCD0CA"/>
		<stop  offset="0.25" style="stop-color:#ECE5E2"/>
		<stop  offset="0.52" style="stop-color:#BFB2AD"/>
		<stop  offset="0.69" style="stop-color:#AA9E9A"/>
		<stop  offset="0.8" style="stop-color:#A09591"/>
		<stop  offset="0.92" style="stop-color:#978D89"/>
		<stop  offset="1" style="stop-color:#AEA29D"/>
	</linearGradient>
	<path fill="url(#SVGID_31_)" d="M410,315.515h13.5v67.5H410V315.515z"/>
	
		<linearGradient id="SVGID_32_" gradientUnits="userSpaceOnUse" x1="211.2227" y1="70.8047" x2="202.2227" y2="70.8047" gradientTransform="matrix(0.75 0 0 -0.75 99.3954 154.8536)">
		<stop  offset="0" style="stop-color:#A19792"/>
		<stop  offset="0.15" style="stop-color:#DCD0CA"/>
		<stop  offset="0.25" style="stop-color:#ECE5E2"/>
		<stop  offset="0.52" style="stop-color:#BFB2AD"/>
		<stop  offset="0.69" style="stop-color:#AA9E9A"/>
		<stop  offset="0.8" style="stop-color:#A09591"/>
		<stop  offset="0.92" style="stop-color:#978D89"/>
		<stop  offset="1" style="stop-color:#AEA29D"/>
	</linearGradient>
	<path fill="url(#SVGID_32_)" d="M251.063,199.625h6.75V3.875h-6.75V199.625z"/>
	
		<linearGradient id="SVGID_33_" gradientUnits="userSpaceOnUse" x1="211.2246" y1="185.3027" x2="202.2246" y2="185.3027" gradientTransform="matrix(0.75 0 0 -0.75 186.2255 155.3868)">
		<stop  offset="0" style="stop-color:#A19792"/>
		<stop  offset="0.15" style="stop-color:#DCD0CA"/>
		<stop  offset="0.25" style="stop-color:#ECE5E2"/>
		<stop  offset="0.52" style="stop-color:#BFB2AD"/>
		<stop  offset="0.69" style="stop-color:#AA9E9A"/>
		<stop  offset="0.8" style="stop-color:#A09591"/>
		<stop  offset="0.92" style="stop-color:#978D89"/>
		<stop  offset="1" style="stop-color:#AEA29D"/>
	</linearGradient>
	<path fill="url(#SVGID_33_)" d="M337.894,28.41h6.75v-24h-6.75V28.41z"/>
	
		<linearGradient id="SVGID_34_" gradientUnits="userSpaceOnUse" x1="264.7256" y1="201.3018" x2="264.7256" y2="192.3018" gradientTransform="matrix(0.75 0 0 -0.75 99.3969 154.84)">
		<stop  offset="0" style="stop-color:#A19792"/>
		<stop  offset="0.15" style="stop-color:#DCD0CA"/>
		<stop  offset="0.25" style="stop-color:#ECE5E2"/>
		<stop  offset="0.52" style="stop-color:#BFB2AD"/>
		<stop  offset="0.69" style="stop-color:#AA9E9A"/>
		<stop  offset="0.8" style="stop-color:#A09591"/>
		<stop  offset="0.92" style="stop-color:#978D89"/>
		<stop  offset="1" style="stop-color:#AEA29D"/>
	</linearGradient>
	<path fill="url(#SVGID_34_)" d="M344.816,10.613v-6.75h-93.75v6.75H344.816z"/>
	
		<linearGradient id="SVGID_35_" gradientUnits="userSpaceOnUse" x1="224.4956" y1="197.6826" x2="202.147" y2="197.6826" gradientTransform="matrix(0.75 0 0 -0.75 94.1903 345.4122)">
		<stop  offset="0" style="stop-color:#A19792"/>
		<stop  offset="0.15" style="stop-color:#DCD0CA"/>
		<stop  offset="0.25" style="stop-color:#ECE5E2"/>
		<stop  offset="0.52" style="stop-color:#BFB2AD"/>
		<stop  offset="0.69" style="stop-color:#AA9E9A"/>
		<stop  offset="0.8" style="stop-color:#A09591"/>
		<stop  offset="0.92" style="stop-color:#978D89"/>
		<stop  offset="1" style="stop-color:#AEA29D"/>
	</linearGradient>
	<path fill="url(#SVGID_35_)" d="M248.109,194.434h12c1.5,0,2.453,1.086,2.453,2.504c-0.203,1.996-1.152,2.996-2.578,2.996
		l-11.875-0.25c-1.5,0-2.309-0.902-2.309-2.32c0.059-2.18,1.152-2.996,2.578-2.996L248.109,194.434z"/>
	
		<linearGradient id="SVGID_36_" gradientUnits="userSpaceOnUse" x1="346.0376" y1="267.7144" x2="346.0376" y2="261.7148" gradientTransform="matrix(0.5303 0.5303 0.5303 -0.5303 62.8109 218.7613)">
		<stop  offset="0" style="stop-color:#A19792"/>
		<stop  offset="0.15" style="stop-color:#DCD0CA"/>
		<stop  offset="0.25" style="stop-color:#ECE5E2"/>
		<stop  offset="0.52" style="stop-color:#BFB2AD"/>
		<stop  offset="0.69" style="stop-color:#AA9E9A"/>
		<stop  offset="0.8" style="stop-color:#A09591"/>
		<stop  offset="0.92" style="stop-color:#978D89"/>
		<stop  offset="1" style="stop-color:#AEA29D"/>
	</linearGradient>
	<path fill="url(#SVGID_36_)" d="M377.695,249.691l21.215,21.215l-3.184,3.18l-21.211-21.211L377.695,249.691z"/>
	
		<linearGradient id="SVGID_37_" gradientUnits="userSpaceOnUse" x1="335.5366" y1="267.7158" x2="335.5366" y2="258.7148" gradientTransform="matrix(0.5303 0.5303 0.5303 -0.5303 79.4896 233.6529)">
		<stop  offset="0" style="stop-color:#A19792"/>
		<stop  offset="0.15" style="stop-color:#DCD0CA"/>
		<stop  offset="0.25" style="stop-color:#ECE5E2"/>
		<stop  offset="0.52" style="stop-color:#BFB2AD"/>
		<stop  offset="0.69" style="stop-color:#AA9E9A"/>
		<stop  offset="0.8" style="stop-color:#A09591"/>
		<stop  offset="0.92" style="stop-color:#978D89"/>
		<stop  offset="1" style="stop-color:#AEA29D"/>
	</linearGradient>
	<path fill="url(#SVGID_37_)" d="M394.375,264.582l10.078,10.078l-4.773,4.773l-10.078-10.078L394.375,264.582z"/>
	
		<linearGradient id="SVGID_38_" gradientUnits="userSpaceOnUse" x1="242.2275" y1="201.3018" x2="242.2275" y2="152.3018" gradientTransform="matrix(0.75 0 0 -0.75 161.5321 385.172)">
		<stop  offset="0" style="stop-color:#7E7F7F"/>
		<stop  offset="0.03" style="stop-color:#C6C7C7"/>
		<stop  offset="0.08" style="stop-color:#A6A6A6"/>
		<stop  offset="0.64" style="stop-color:#A3A4A4"/>
		<stop  offset="0.95" style="stop-color:#9FA0A0"/>
		<stop  offset="1" style="stop-color:#757676"/>
	</linearGradient>
	<path fill="url(#SVGID_38_)" d="M373.203,234.195v36.75h-54c0,0-1.117-7.543-6-10.48c0-0.02,0-15.277,0-15.277
		c5.25-3.492,5.648-10.992,5.648-10.992H373.203z"/>
	<path fill="#CDCECE" d="M369.593,237.98v29.25h-45.75l-4.5-8.25v-12l4.5-9H369.593z"/>
	<path stroke="#000000" stroke-linejoin="bevel" stroke-miterlimit="10" d="M328.667,244.316h30.75c1.5,0,2.203,0.836,2.203,1.879
		l0.047,13.121c0,0.75-0.895,1.703-1.945,1.703l-31.055-0.203c-0.75,0-1.555-0.648-1.555-1.695l0.055-12.555
		c0-1.5,0.797-2.25,1.844-2.25H328.667z"/>
	
		<linearGradient id="SVGID_39_" gradientUnits="userSpaceOnUse" x1="377.6245" y1="402.2251" x2="377.6245" y2="395.2251" gradientTransform="matrix(0 0.75 0.75 0 76.7802 -30.3859)">
		<stop  offset="0" style="stop-color:#7E7F7F"/>
		<stop  offset="0.03" style="stop-color:#C6C7C7"/>
		<stop  offset="0.08" style="stop-color:#A6A6A6"/>
		<stop  offset="0.64" style="stop-color:#A3A4A4"/>
		<stop  offset="0.95" style="stop-color:#9FA0A0"/>
		<stop  offset="1" style="stop-color:#757676"/>
	</linearGradient>
	<path fill="url(#SVGID_39_)" d="M373.199,244.582v16.5l5.25-3v-10.5L373.199,244.582z"/>
	
		<linearGradient id="SVGID_40_" gradientUnits="userSpaceOnUse" x1="205.7256" y1="201.3027" x2="205.7256" y2="193.3027" gradientTransform="matrix(0.75 0 0 -0.75 221.2323 400.4933)">
		<stop  offset="0" style="stop-color:#A19792"/>
		<stop  offset="0.15" style="stop-color:#DCD0CA"/>
		<stop  offset="0.25" style="stop-color:#ECE5E2"/>
		<stop  offset="0.52" style="stop-color:#BFB2AD"/>
		<stop  offset="0.69" style="stop-color:#AA9E9A"/>
		<stop  offset="0.8" style="stop-color:#A09591"/>
		<stop  offset="0.92" style="stop-color:#978D89"/>
		<stop  offset="1" style="stop-color:#AEA29D"/>
	</linearGradient>
	<path fill="url(#SVGID_40_)" d="M372.902,249.516h5.25v6h-5.25V249.516z"/>
	
		<linearGradient id="SVGID_41_" gradientUnits="userSpaceOnUse" x1="346.0366" y1="267.7158" x2="346.0366" y2="261.7129" gradientTransform="matrix(0.5303 0.5303 0.5303 -0.5303 62.8109 331.4386)">
		<stop  offset="0" style="stop-color:#A19792"/>
		<stop  offset="0.15" style="stop-color:#DCD0CA"/>
		<stop  offset="0.25" style="stop-color:#ECE5E2"/>
		<stop  offset="0.52" style="stop-color:#BFB2AD"/>
		<stop  offset="0.69" style="stop-color:#AA9E9A"/>
		<stop  offset="0.8" style="stop-color:#A09591"/>
		<stop  offset="0.92" style="stop-color:#978D89"/>
		<stop  offset="1" style="stop-color:#AEA29D"/>
	</linearGradient>
	<path fill="url(#SVGID_41_)" d="M377.695,362.367l21.215,21.215l-3.184,3.184l-21.211-21.215L377.695,362.367z"/>
	
		<linearGradient id="SVGID_42_" gradientUnits="userSpaceOnUse" x1="335.5347" y1="267.7188" x2="335.5347" y2="258.7173" gradientTransform="matrix(0.5303 0.5303 0.5303 -0.5303 79.4896 346.3311)">
		<stop  offset="0" style="stop-color:#A19792"/>
		<stop  offset="0.15" style="stop-color:#DCD0CA"/>
		<stop  offset="0.25" style="stop-color:#ECE5E2"/>
		<stop  offset="0.52" style="stop-color:#BFB2AD"/>
		<stop  offset="0.69" style="stop-color:#AA9E9A"/>
		<stop  offset="0.8" style="stop-color:#A09591"/>
		<stop  offset="0.92" style="stop-color:#978D89"/>
		<stop  offset="1" style="stop-color:#AEA29D"/>
	</linearGradient>
	<path fill="url(#SVGID_42_)" d="M394.375,377.261l10.078,10.074l-4.773,4.773l-10.078-10.078L394.375,377.261z"/>
	
		<linearGradient id="SVGID_43_" gradientUnits="userSpaceOnUse" x1="242.2275" y1="201.3047" x2="242.2275" y2="152.3047" gradientTransform="matrix(0.75 0 0 -0.75 161.5321 497.8497)">
		<stop  offset="0" style="stop-color:#7E7F7F"/>
		<stop  offset="0.03" style="stop-color:#C6C7C7"/>
		<stop  offset="0.08" style="stop-color:#A6A6A6"/>
		<stop  offset="0.64" style="stop-color:#A3A4A4"/>
		<stop  offset="0.95" style="stop-color:#9FA0A0"/>
		<stop  offset="1" style="stop-color:#757676"/>
	</linearGradient>
	<path fill="url(#SVGID_43_)" d="M373.203,346.871v36.75h-54c0,0-1.117-7.539-6-10.48c0-0.02,0-15.277,0-15.277
		c5.25-3.492,5.648-10.992,5.648-10.992H373.203z"/>
	<path fill="#CDCECE" d="M369.593,350.66v29.25h-45.75l-4.5-8.25v-12l4.5-9H369.593z"/>
	<path stroke="#000000" stroke-linejoin="bevel" stroke-miterlimit="10" d="M328.667,356.996h30.75c1.5,0,2.203,0.832,2.203,1.879
		l0.047,13.121c0,0.75-0.895,1.699-1.945,1.699l-31.055-0.199c-0.75,0-1.555-0.652-1.555-1.695l0.055-12.555
		c0-1.5,0.797-2.25,1.844-2.25H328.667z"/>
	
		<linearGradient id="SVGID_44_" gradientUnits="userSpaceOnUse" x1="377.6265" y1="402.2251" x2="377.6265" y2="395.2251" gradientTransform="matrix(0 0.75 0.75 0 76.7802 82.2919)">
		<stop  offset="0" style="stop-color:#7E7F7F"/>
		<stop  offset="0.03" style="stop-color:#C6C7C7"/>
		<stop  offset="0.08" style="stop-color:#A6A6A6"/>
		<stop  offset="0.64" style="stop-color:#A3A4A4"/>
		<stop  offset="0.95" style="stop-color:#9FA0A0"/>
		<stop  offset="1" style="stop-color:#757676"/>
	</linearGradient>
	<path fill="url(#SVGID_44_)" d="M373.199,357.261v16.5l5.25-3v-10.5L373.199,357.261z"/>
	
		<linearGradient id="SVGID_45_" gradientUnits="userSpaceOnUse" x1="205.7256" y1="201.3018" x2="205.7256" y2="193.3018" gradientTransform="matrix(0.75 0 0 -0.75 221.2323 513.172)">
		<stop  offset="0" style="stop-color:#A19792"/>
		<stop  offset="0.15" style="stop-color:#DCD0CA"/>
		<stop  offset="0.25" style="stop-color:#ECE5E2"/>
		<stop  offset="0.52" style="stop-color:#BFB2AD"/>
		<stop  offset="0.69" style="stop-color:#AA9E9A"/>
		<stop  offset="0.8" style="stop-color:#A09591"/>
		<stop  offset="0.92" style="stop-color:#978D89"/>
		<stop  offset="1" style="stop-color:#AEA29D"/>
	</linearGradient>
	<path fill="url(#SVGID_45_)" d="M372.902,362.195h5.25v6h-5.25V362.195z"/>
	
		<linearGradient id="SVGID_46_" gradientUnits="userSpaceOnUse" x1="346.0366" y1="267.7163" x2="346.0366" y2="261.7134" gradientTransform="matrix(0.5303 0.5303 0.5303 -0.5303 62.8109 400.463)">
		<stop  offset="0" style="stop-color:#A19792"/>
		<stop  offset="0.15" style="stop-color:#DCD0CA"/>
		<stop  offset="0.25" style="stop-color:#ECE5E2"/>
		<stop  offset="0.52" style="stop-color:#BFB2AD"/>
		<stop  offset="0.69" style="stop-color:#AA9E9A"/>
		<stop  offset="0.8" style="stop-color:#A09591"/>
		<stop  offset="0.92" style="stop-color:#978D89"/>
		<stop  offset="1" style="stop-color:#AEA29D"/>
	</linearGradient>
	<path fill="url(#SVGID_46_)" d="M377.695,431.394l21.215,21.211l-3.184,3.184l-21.211-21.215L377.695,431.394z"/>
	
		<linearGradient id="SVGID_47_" gradientUnits="userSpaceOnUse" x1="335.5366" y1="267.7188" x2="335.5366" y2="258.7139" gradientTransform="matrix(0.5303 0.5303 0.5303 -0.5303 79.4896 415.3546)">
		<stop  offset="0" style="stop-color:#A19792"/>
		<stop  offset="0.15" style="stop-color:#DCD0CA"/>
		<stop  offset="0.25" style="stop-color:#ECE5E2"/>
		<stop  offset="0.52" style="stop-color:#BFB2AD"/>
		<stop  offset="0.69" style="stop-color:#AA9E9A"/>
		<stop  offset="0.8" style="stop-color:#A09591"/>
		<stop  offset="0.92" style="stop-color:#978D89"/>
		<stop  offset="1" style="stop-color:#AEA29D"/>
	</linearGradient>
	<path fill="url(#SVGID_47_)" d="M394.375,446.285l10.078,10.074l-4.773,4.773l-10.078-10.074L394.375,446.285z"/>
	
		<linearGradient id="SVGID_48_" gradientUnits="userSpaceOnUse" x1="242.2275" y1="201.3037" x2="242.2275" y2="152.3037" gradientTransform="matrix(0.75 0 0 -0.75 161.5321 566.8751)">
		<stop  offset="0" style="stop-color:#7E7F7F"/>
		<stop  offset="0.03" style="stop-color:#C6C7C7"/>
		<stop  offset="0.08" style="stop-color:#A6A6A6"/>
		<stop  offset="0.64" style="stop-color:#A3A4A4"/>
		<stop  offset="0.95" style="stop-color:#9FA0A0"/>
		<stop  offset="1" style="stop-color:#757676"/>
	</linearGradient>
	<path fill="url(#SVGID_48_)" d="M373.203,415.898v36.75h-54c0,0-1.117-7.543-6-10.48c0-0.02,0-15.277,0-15.277
		c5.25-3.492,5.648-10.992,5.648-10.992H373.203z"/>
	<path fill="#CDCECE" d="M369.593,419.683v29.25h-45.75l-4.5-8.25v-12l4.5-9H369.593z"/>
	<path stroke="#000000" stroke-linejoin="bevel" stroke-miterlimit="10" d="M328.667,426.019h30.75c1.5,0,2.203,0.832,2.203,1.879
		l0.047,13.121c0,0.75-0.895,1.703-1.945,1.703l-31.055-0.203c-0.75,0-1.555-0.648-1.555-1.695l0.055-12.555
		c0-1.5,0.797-2.25,1.844-2.25H328.667z"/>
	
		<linearGradient id="SVGID_49_" gradientUnits="userSpaceOnUse" x1="377.6245" y1="402.2251" x2="377.6245" y2="395.2251" gradientTransform="matrix(0 0.75 0.75 0 76.7802 151.3163)">
		<stop  offset="0" style="stop-color:#7E7F7F"/>
		<stop  offset="0.03" style="stop-color:#C6C7C7"/>
		<stop  offset="0.08" style="stop-color:#A6A6A6"/>
		<stop  offset="0.64" style="stop-color:#A3A4A4"/>
		<stop  offset="0.95" style="stop-color:#9FA0A0"/>
		<stop  offset="1" style="stop-color:#757676"/>
	</linearGradient>
	<path fill="url(#SVGID_49_)" d="M373.199,426.285v16.5l5.25-3v-10.5L373.199,426.285z"/>
	
		<linearGradient id="SVGID_50_" gradientUnits="userSpaceOnUse" x1="205.7256" y1="201.3018" x2="205.7256" y2="193.3018" gradientTransform="matrix(0.75 0 0 -0.75 221.2323 582.1954)">
		<stop  offset="0" style="stop-color:#A19792"/>
		<stop  offset="0.15" style="stop-color:#DCD0CA"/>
		<stop  offset="0.25" style="stop-color:#ECE5E2"/>
		<stop  offset="0.52" style="stop-color:#BFB2AD"/>
		<stop  offset="0.69" style="stop-color:#AA9E9A"/>
		<stop  offset="0.8" style="stop-color:#A09591"/>
		<stop  offset="0.92" style="stop-color:#978D89"/>
		<stop  offset="1" style="stop-color:#AEA29D"/>
	</linearGradient>
	<path fill="url(#SVGID_50_)" d="M372.902,431.218h5.25v6h-5.25V431.218z"/>
	
		<linearGradient id="SVGID_51_" gradientUnits="userSpaceOnUse" x1="346.0356" y1="267.7173" x2="346.0356" y2="261.7144" gradientTransform="matrix(0.5303 0.5303 0.5303 -0.5303 62.8109 466.8311)">
		<stop  offset="0" style="stop-color:#A19792"/>
		<stop  offset="0.15" style="stop-color:#DCD0CA"/>
		<stop  offset="0.25" style="stop-color:#ECE5E2"/>
		<stop  offset="0.52" style="stop-color:#BFB2AD"/>
		<stop  offset="0.69" style="stop-color:#AA9E9A"/>
		<stop  offset="0.8" style="stop-color:#A09591"/>
		<stop  offset="0.92" style="stop-color:#978D89"/>
		<stop  offset="1" style="stop-color:#AEA29D"/>
	</linearGradient>
	<path fill="url(#SVGID_51_)" d="M377.695,497.761l21.215,21.211l-3.184,3.184l-21.211-21.215L377.695,497.761z"/>
	
		<linearGradient id="SVGID_52_" gradientUnits="userSpaceOnUse" x1="335.5356" y1="267.7192" x2="335.5356" y2="258.7148" gradientTransform="matrix(0.5303 0.5303 0.5303 -0.5303 79.4896 481.7227)">
		<stop  offset="0" style="stop-color:#A19792"/>
		<stop  offset="0.15" style="stop-color:#DCD0CA"/>
		<stop  offset="0.25" style="stop-color:#ECE5E2"/>
		<stop  offset="0.52" style="stop-color:#BFB2AD"/>
		<stop  offset="0.69" style="stop-color:#AA9E9A"/>
		<stop  offset="0.8" style="stop-color:#A09591"/>
		<stop  offset="0.92" style="stop-color:#978D89"/>
		<stop  offset="1" style="stop-color:#AEA29D"/>
	</linearGradient>
	<path fill="url(#SVGID_52_)" d="M394.375,512.652l10.078,10.074l-4.773,4.773l-10.078-10.074L394.375,512.652z"/>
	
		<linearGradient id="SVGID_53_" gradientUnits="userSpaceOnUse" x1="242.2285" y1="201.3018" x2="242.2285" y2="152.3018" gradientTransform="matrix(0.75 0 0 -0.75 161.5321 633.2423)">
		<stop  offset="0" style="stop-color:#7E7F7F"/>
		<stop  offset="0.03" style="stop-color:#C6C7C7"/>
		<stop  offset="0.08" style="stop-color:#A6A6A6"/>
		<stop  offset="0.64" style="stop-color:#A3A4A4"/>
		<stop  offset="0.95" style="stop-color:#9FA0A0"/>
		<stop  offset="1" style="stop-color:#757676"/>
	</linearGradient>
	<path fill="url(#SVGID_53_)" d="M373.203,482.265v36.75h-54c0,0-1.117-7.543-6-10.48c0-0.02,0-15.277,0-15.277
		c5.25-3.492,5.648-10.992,5.648-10.992H373.203z"/>
	<path fill="#CDCECE" d="M369.593,486.05v29.25h-45.75l-4.5-8.25v-12l4.5-9H369.593z"/>
	<path stroke="#000000" stroke-linejoin="bevel" stroke-miterlimit="10" d="M328.667,492.386h30.75c1.5,0,2.203,0.832,2.203,1.879
		l0.047,13.121c0,0.75-0.895,1.703-1.945,1.703l-31.055-0.203c-0.75,0-1.555-0.648-1.555-1.695l0.055-12.555
		c0-1.5,0.797-2.25,1.844-2.25H328.667z"/>
	
		<linearGradient id="SVGID_54_" gradientUnits="userSpaceOnUse" x1="377.6245" y1="402.2251" x2="377.6245" y2="395.2251" gradientTransform="matrix(0 0.75 0.75 0 76.7802 217.6835)">
		<stop  offset="0" style="stop-color:#7E7F7F"/>
		<stop  offset="0.03" style="stop-color:#C6C7C7"/>
		<stop  offset="0.08" style="stop-color:#A6A6A6"/>
		<stop  offset="0.64" style="stop-color:#A3A4A4"/>
		<stop  offset="0.95" style="stop-color:#9FA0A0"/>
		<stop  offset="1" style="stop-color:#757676"/>
	</linearGradient>
	<path fill="url(#SVGID_54_)" d="M373.199,492.652v16.5l5.25-3v-10.5L373.199,492.652z"/>
	
		<linearGradient id="SVGID_55_" gradientUnits="userSpaceOnUse" x1="205.7266" y1="201.3027" x2="205.7266" y2="193.3027" gradientTransform="matrix(0.75 0 0 -0.75 221.2323 648.5626)">
		<stop  offset="0" style="stop-color:#A19792"/>
		<stop  offset="0.15" style="stop-color:#DCD0CA"/>
		<stop  offset="0.25" style="stop-color:#ECE5E2"/>
		<stop  offset="0.52" style="stop-color:#BFB2AD"/>
		<stop  offset="0.69" style="stop-color:#AA9E9A"/>
		<stop  offset="0.8" style="stop-color:#A09591"/>
		<stop  offset="0.92" style="stop-color:#978D89"/>
		<stop  offset="1" style="stop-color:#AEA29D"/>
	</linearGradient>
	<path fill="url(#SVGID_55_)" d="M372.902,497.585h5.25v6h-5.25V497.585z"/>
</g>
</svg>
