<?xml version="1.0" encoding="utf-8"?>
<!-- Generator: Adobe Illustrator 16.0.0, SVG Export Plug-In . SVG Version: 6.00 Build 0)  -->
<!DOCTYPE svg PUBLIC "-//W3C//DTD SVG 1.1//EN" "http://www.w3.org/Graphics/SVG/1.1/DTD/svg11.dtd">
<svg preserveAspectRatio="none" version="1.1" id="图层_1" xmlns="http://www.w3.org/2000/svg" xmlns:xlink="http://www.w3.org/1999/xlink" x="0px" y="0px"
	 width="564.894px" height="327.093px" viewBox="0.988 119.977 564.894 327.093"
	 enable-background="new 0.988 119.977 564.894 327.093" xml:space="preserve">
<g id="surface46">
	
		<linearGradient id="SVGID_1_" gradientUnits="userSpaceOnUse" x1="37.3057" y1="373.7271" x2="1.3057" y2="373.7271" gradientTransform="matrix(0 -0.75 0.75 0 -225.3571 326.0646)">
		<stop  offset="0" style="stop-color:#A6A6A5"/>
		<stop  offset="0.15" style="stop-color:#E2E2E1"/>
		<stop  offset="0.25" style="stop-color:#EFEFEE"/>
		<stop  offset="0.52" style="stop-color:#C4C4C3"/>
		<stop  offset="0.69" style="stop-color:#AEAEAE"/>
		<stop  offset="0.8" style="stop-color:#A4A4A4"/>
		<stop  offset="0.92" style="stop-color:#9B9B9A"/>
		<stop  offset="1" style="stop-color:#B2B2B2"/>
	</linearGradient>
	<path fill="url(#SVGID_1_)" d="M76.313,325.085v-27h-42.75v27H76.313z"/>
	
		<radialGradient id="SVGID_2_" cx="44.605" cy="359.1812" r="61.0563" gradientTransform="matrix(0 -0.75 0.75 0 -235.9869 363.7687)" gradientUnits="userSpaceOnUse">
		<stop  offset="0" style="stop-color:#CDCDCC"/>
		<stop  offset="0.54" style="stop-color:#DBDBDA"/>
		<stop  offset="0.74" style="stop-color:#EDEDEC"/>
		<stop  offset="0.91" style="stop-color:#CDCDCC"/>
		<stop  offset="1" style="stop-color:#DBDBDA"/>
	</radialGradient>
	<path fill="url(#SVGID_2_)" stroke="#D4D6DB" stroke-width="0.25" stroke-linejoin="bevel" stroke-miterlimit="10" d="
		M33.434,362.792c18,0,32.25-14.539,32.25-32.477c0-17.773-14.457-32.473-32.285-32.473c-17.965-0.301-32.285,14.539-32.285,32.473
		c0.07,18.227,14.453,32.477,32.285,32.477H33.434z"/>
	
		<linearGradient id="SVGID_3_" gradientUnits="userSpaceOnUse" x1="224.8481" y1="536.9272" x2="165.7017" y2="536.9272" gradientTransform="matrix(-0.75 0 0 0.75 179.8673 -72.3785)">
		<stop  offset="0.16" style="stop-color:#A0A0A0"/>
		<stop  offset="0.64" style="stop-color:#9D9D9D"/>
		<stop  offset="0.92" style="stop-color:#9A9A9A"/>
	</linearGradient>
	<path fill="url(#SVGID_3_)" d="M55.59,330.089c0,12.75-9.93,22.5-22.18,22.5c-12.32,0-22.18-9.973-22.18-22.273
		c0.109-12.227,9.93-22.273,22.18-22.273c12.43,0.297,22.18,9.973,22.18,22.273V330.089z"/>
	
		<linearGradient id="SVGID_4_" gradientUnits="userSpaceOnUse" x1="168.2163" y1="509.1899" x2="218.2219" y2="568.7842" gradientTransform="matrix(-0.75 0 0 0.75 178.4025 -73.9044)">
		<stop  offset="0" style="stop-color:#D8D8D8"/>
		<stop  offset="0.18" style="stop-color:#E9E9E9"/>
		<stop  offset="0.72" style="stop-color:#BABABA"/>
		<stop  offset="1" style="stop-color:#A6A6A6"/>
	</linearGradient>
	<path fill="url(#SVGID_4_)" d="M54.125,330.066c0,12-9.25,21-20.66,21c-11.59,0-20.66-9.289-20.66-20.75
		c0.07-11.5,9.25-20.746,20.66-20.746c11.66,0.246,20.66,9.289,20.66,20.746V330.066z"/>
	
		<linearGradient id="SVGID_5_" gradientUnits="userSpaceOnUse" x1="509.7261" y1="201.3027" x2="509.7261" y2="-112.6982" gradientTransform="matrix(0.75 0 0 -0.75 -60.1041 315.1251)">
		<stop  offset="0" style="stop-color:#A6A6A5"/>
		<stop  offset="0.15" style="stop-color:#E2E2E1"/>
		<stop  offset="0.25" style="stop-color:#EFEFEE"/>
		<stop  offset="0.52" style="stop-color:#C4C4C3"/>
		<stop  offset="0.69" style="stop-color:#AEAEAE"/>
		<stop  offset="0.8" style="stop-color:#A4A4A4"/>
		<stop  offset="0.92" style="stop-color:#9B9B9A"/>
		<stop  offset="1" style="stop-color:#B2B2B2"/>
	</linearGradient>
	<path fill="url(#SVGID_5_)" d="M91.566,164.148h461.25v235.5H91.566V164.148z"/>
	
		<linearGradient id="SVGID_6_" gradientUnits="userSpaceOnUse" x1="209.8877" y1="201.3018" x2="209.8877" y2="-121.6064" gradientTransform="matrix(0.75 0 0 -0.75 -71.3004 311.7023)">
		<stop  offset="0" style="stop-color:#A6A6A5"/>
		<stop  offset="0.15" style="stop-color:#E2E2E1"/>
		<stop  offset="0.25" style="stop-color:#EFEFEE"/>
		<stop  offset="0.52" style="stop-color:#C4C4C3"/>
		<stop  offset="0.69" style="stop-color:#AEAEAE"/>
		<stop  offset="0.8" style="stop-color:#A4A4A4"/>
		<stop  offset="0.92" style="stop-color:#9B9B9A"/>
		<stop  offset="1" style="stop-color:#B2B2B2"/>
	</linearGradient>
	<path fill="url(#SVGID_6_)" d="M85.617,160.727c3.75,0,6.266,2.363,6.266,5.359l-0.266,231.64c0,3-2.156,5.18-5.141,5.18
		c-3.859,0.07-6.129-2.465-6.129-5.465l0.02-231.464c0-3,2.398-5.25,5.387-5.25H85.617z"/>
	
		<linearGradient id="SVGID_7_" gradientUnits="userSpaceOnUse" x1="209.8862" y1="201.3027" x2="209.8862" y2="-121.6055" gradientTransform="matrix(0.75 0 0 -0.75 400.9325 311.7023)">
		<stop  offset="0" style="stop-color:#A6A6A5"/>
		<stop  offset="0.15" style="stop-color:#E2E2E1"/>
		<stop  offset="0.25" style="stop-color:#EFEFEE"/>
		<stop  offset="0.52" style="stop-color:#C4C4C3"/>
		<stop  offset="0.69" style="stop-color:#AEAEAE"/>
		<stop  offset="0.8" style="stop-color:#A4A4A4"/>
		<stop  offset="0.92" style="stop-color:#9B9B9A"/>
		<stop  offset="1" style="stop-color:#B2B2B2"/>
	</linearGradient>
	<path fill="url(#SVGID_7_)" d="M557.851,160.727c3.75,0,6.266,2.363,6.266,5.359l-0.266,231.64c0,3-2.156,5.18-5.145,5.18
		c-3.855,0.07-6.129-2.465-6.129-5.465l0.023-231.464c0-3,2.398-5.25,5.387-5.25H557.851z"/>
	
		<linearGradient id="SVGID_8_" gradientUnits="userSpaceOnUse" x1="254.2256" y1="181.3027" x2="202.2256" y2="181.3027" gradientTransform="matrix(0.75 0 0 -0.75 5.5492 285.4337)">
		<stop  offset="0" style="stop-color:#A6A6A5"/>
		<stop  offset="0.15" style="stop-color:#E2E2E1"/>
		<stop  offset="0.25" style="stop-color:#EFEFEE"/>
		<stop  offset="0.52" style="stop-color:#C4C4C3"/>
		<stop  offset="0.69" style="stop-color:#AEAEAE"/>
		<stop  offset="0.8" style="stop-color:#A4A4A4"/>
		<stop  offset="0.92" style="stop-color:#9B9B9A"/>
		<stop  offset="1" style="stop-color:#B2B2B2"/>
	</linearGradient>
	<path fill="url(#SVGID_8_)" d="M157.219,134.457h39v30h-39V134.457z"/>
	
		<linearGradient id="SVGID_9_" gradientUnits="userSpaceOnUse" x1="316.2251" y1="185.3027" x2="202.2256" y2="185.3027" gradientTransform="matrix(0.75 0 0 -0.75 83.2054 291.0304)">
		<stop  offset="0" style="stop-color:#A6A6A5"/>
		<stop  offset="0.15" style="stop-color:#E2E2E1"/>
		<stop  offset="0.25" style="stop-color:#EFEFEE"/>
		<stop  offset="0.52" style="stop-color:#C4C4C3"/>
		<stop  offset="0.69" style="stop-color:#AEAEAE"/>
		<stop  offset="0.8" style="stop-color:#A4A4A4"/>
		<stop  offset="0.92" style="stop-color:#9B9B9A"/>
		<stop  offset="1" style="stop-color:#B2B2B2"/>
	</linearGradient>
	<path fill="url(#SVGID_9_)" d="M234.875,140.055h85.5v24h-85.5V140.055z"/>
	
		<linearGradient id="SVGID_10_" gradientUnits="userSpaceOnUse" x1="254.2261" y1="175.8047" x2="202.2261" y2="175.8047" gradientTransform="matrix(0.75 0 0 -0.75 188.3417 276.7472)">
		<stop  offset="0" style="stop-color:#A6A6A5"/>
		<stop  offset="0.15" style="stop-color:#E2E2E1"/>
		<stop  offset="0.25" style="stop-color:#EFEFEE"/>
		<stop  offset="0.52" style="stop-color:#C4C4C3"/>
		<stop  offset="0.69" style="stop-color:#AEAEAE"/>
		<stop  offset="0.8" style="stop-color:#A4A4A4"/>
		<stop  offset="0.92" style="stop-color:#9B9B9A"/>
		<stop  offset="1" style="stop-color:#B2B2B2"/>
	</linearGradient>
	<path fill="url(#SVGID_10_)" d="M340.011,125.77h39v38.25h-39V125.77z"/>
	
		<linearGradient id="SVGID_11_" gradientUnits="userSpaceOnUse" x1="254.2222" y1="175.8066" x2="202.2222" y2="175.8066" gradientTransform="matrix(0.75 0 0 -0.75 243.7743 276.7482)">
		<stop  offset="0" style="stop-color:#A6A6A5"/>
		<stop  offset="0.15" style="stop-color:#E2E2E1"/>
		<stop  offset="0.25" style="stop-color:#EFEFEE"/>
		<stop  offset="0.52" style="stop-color:#C4C4C3"/>
		<stop  offset="0.69" style="stop-color:#AEAEAE"/>
		<stop  offset="0.8" style="stop-color:#A4A4A4"/>
		<stop  offset="0.92" style="stop-color:#9B9B9A"/>
		<stop  offset="1" style="stop-color:#B2B2B2"/>
	</linearGradient>
	<path fill="url(#SVGID_11_)" d="M395.441,125.77h39v38.25h-39V125.77z"/>
	
		<linearGradient id="SVGID_12_" gradientUnits="userSpaceOnUse" x1="304.2231" y1="185.3027" x2="202.2236" y2="185.3027" gradientTransform="matrix(0.75 0 0 -0.75 308.7255 291.0304)">
		<stop  offset="0" style="stop-color:#AEAEAD"/>
		<stop  offset="0.03" style="stop-color:#F8F8F7"/>
		<stop  offset="0.08" style="stop-color:#E3E3E2"/>
		<stop  offset="0.64" style="stop-color:#DFDFDE"/>
		<stop  offset="0.95" style="stop-color:#DADAD9"/>
		<stop  offset="1" style="stop-color:#A2A2A1"/>
	</linearGradient>
	<path fill="url(#SVGID_12_)" d="M460.394,140.055h76.5v24h-76.5V140.055z"/>
	
		<linearGradient id="SVGID_13_" gradientUnits="userSpaceOnUse" x1="316.2231" y1="199.8047" x2="202.2236" y2="199.8047" gradientTransform="matrix(0.75 0 0 -0.75 83.2025 290.505)">
		<stop  offset="0" style="stop-color:#8A8A89"/>
		<stop  offset="0.15" style="stop-color:#C0C0BF"/>
		<stop  offset="0.25" style="stop-color:#DDDDDD"/>
		<stop  offset="0.52" style="stop-color:#A3A3A2"/>
		<stop  offset="0.69" style="stop-color:#919190"/>
		<stop  offset="0.8" style="stop-color:#898988"/>
		<stop  offset="0.92" style="stop-color:#818180"/>
		<stop  offset="1" style="stop-color:#949494"/>
	</linearGradient>
	<path fill="url(#SVGID_13_)" d="M234.871,139.527h85.5v2.25h-85.5V139.527z"/>
	
		<linearGradient id="SVGID_14_" gradientUnits="userSpaceOnUse" x1="328.6353" y1="197.2075" x2="202.2241" y2="197.2075" gradientTransform="matrix(0.75 0 0 -0.75 78.5262 285.0802)">
		<stop  offset="0" style="stop-color:#A6A6A5"/>
		<stop  offset="0.15" style="stop-color:#E2E2E1"/>
		<stop  offset="0.25" style="stop-color:#EFEFEE"/>
		<stop  offset="0.52" style="stop-color:#C4C4C3"/>
		<stop  offset="0.69" style="stop-color:#AEAEAE"/>
		<stop  offset="0.8" style="stop-color:#A4A4A4"/>
		<stop  offset="0.92" style="stop-color:#9B9B9A"/>
		<stop  offset="1" style="stop-color:#B2B2B2"/>
	</linearGradient>
	<path fill="url(#SVGID_14_)" d="M232.445,134.102h90c1.5,0,2.559,1.051,2.559,2.348l-0.309,1.402c0,1.5-0.789,2.398-2.086,2.398
		l-90.164-0.148c-1.5,0-2.25-0.902-2.25-2.203v-1.547c0-1.5,0.988-2.25,2.281-2.25H232.445z"/>
	
		<linearGradient id="SVGID_15_" gradientUnits="userSpaceOnUse" x1="254.2256" y1="199.8027" x2="202.2256" y2="199.8027" gradientTransform="matrix(0.75 0 0 -0.75 5.5492 285.4337)">
		<stop  offset="0" style="stop-color:#8A8A89"/>
		<stop  offset="0.15" style="stop-color:#C0C0BF"/>
		<stop  offset="0.25" style="stop-color:#DDDDDD"/>
		<stop  offset="0.52" style="stop-color:#A3A3A2"/>
		<stop  offset="0.69" style="stop-color:#919190"/>
		<stop  offset="0.8" style="stop-color:#898988"/>
		<stop  offset="0.92" style="stop-color:#818180"/>
		<stop  offset="1" style="stop-color:#949494"/>
	</linearGradient>
	<path fill="url(#SVGID_15_)" d="M157.219,134.457h39v2.25h-39V134.457z"/>
	
		<linearGradient id="SVGID_16_" gradientUnits="userSpaceOnUse" x1="267.124" y1="197.2539" x2="202.2236" y2="197.2539" gradientTransform="matrix(0.75 0 0 -0.75 0.5741 279.3517)">
		<stop  offset="0" style="stop-color:#A6A6A5"/>
		<stop  offset="0.15" style="stop-color:#E2E2E1"/>
		<stop  offset="0.25" style="stop-color:#EFEFEE"/>
		<stop  offset="0.52" style="stop-color:#C4C4C3"/>
		<stop  offset="0.69" style="stop-color:#AEAEAE"/>
		<stop  offset="0.8" style="stop-color:#A4A4A4"/>
		<stop  offset="0.92" style="stop-color:#9B9B9A"/>
		<stop  offset="1" style="stop-color:#B2B2B2"/>
	</linearGradient>
	<path fill="url(#SVGID_16_)" d="M155.242,128.375h42.75c1.5,0,2.922,1.336,2.922,3.039c0.078,1.461-1.414,3.074-3.109,3.074
		l-42.563-0.113c-1.5,0-3-1.262-3-2.961c0-1.539,1.328-3.078,3.02-3.078L155.242,128.375z"/>
	
		<linearGradient id="SVGID_17_" gradientUnits="userSpaceOnUse" x1="254.2261" y1="199.8047" x2="202.2261" y2="199.8047" gradientTransform="matrix(0.75 0 0 -0.75 188.3417 276.7472)">
		<stop  offset="0" style="stop-color:#8A8A89"/>
		<stop  offset="0.15" style="stop-color:#C0C0BF"/>
		<stop  offset="0.25" style="stop-color:#DDDDDD"/>
		<stop  offset="0.52" style="stop-color:#A3A3A2"/>
		<stop  offset="0.69" style="stop-color:#919190"/>
		<stop  offset="0.8" style="stop-color:#898988"/>
		<stop  offset="0.92" style="stop-color:#818180"/>
		<stop  offset="1" style="stop-color:#949494"/>
	</linearGradient>
	<path fill="url(#SVGID_17_)" d="M340.011,125.77h39v2.25h-39V125.77z"/>
	
		<linearGradient id="SVGID_18_" gradientUnits="userSpaceOnUse" x1="254.2222" y1="199.8047" x2="202.2222" y2="199.8047" gradientTransform="matrix(0.75 0 0 -0.75 243.7743 276.7472)">
		<stop  offset="0" style="stop-color:#8A8A89"/>
		<stop  offset="0.15" style="stop-color:#C0C0BF"/>
		<stop  offset="0.25" style="stop-color:#DDDDDD"/>
		<stop  offset="0.52" style="stop-color:#A3A3A2"/>
		<stop  offset="0.69" style="stop-color:#919190"/>
		<stop  offset="0.8" style="stop-color:#898988"/>
		<stop  offset="0.92" style="stop-color:#818180"/>
		<stop  offset="1" style="stop-color:#949494"/>
	</linearGradient>
	<path fill="url(#SVGID_18_)" d="M395.441,125.77h39v2.25h-39V125.77z"/>
	
		<linearGradient id="SVGID_19_" gradientUnits="userSpaceOnUse" x1="267.126" y1="197.2544" x2="202.2256" y2="197.2544" gradientTransform="matrix(0.75 0 0 -0.75 238.7987 270.9943)">
		<stop  offset="0" style="stop-color:#A6A6A5"/>
		<stop  offset="0.15" style="stop-color:#E2E2E1"/>
		<stop  offset="0.25" style="stop-color:#EFEFEE"/>
		<stop  offset="0.52" style="stop-color:#C4C4C3"/>
		<stop  offset="0.69" style="stop-color:#AEAEAE"/>
		<stop  offset="0.8" style="stop-color:#A4A4A4"/>
		<stop  offset="0.92" style="stop-color:#9B9B9A"/>
		<stop  offset="1" style="stop-color:#B2B2B2"/>
	</linearGradient>
	<path fill="url(#SVGID_19_)" d="M393.468,120.016h42.75c1.5,0,2.922,1.34,2.922,3.039c0.078,1.461-1.418,3.078-3.109,3.078
		l-42.563-0.117c-1.5,0-3-1.262-3-2.961c0-1.539,1.324-3.078,3.02-3.078L393.468,120.016z"/>
	
		<linearGradient id="SVGID_20_" gradientUnits="userSpaceOnUse" x1="267.124" y1="197.2544" x2="202.2246" y2="197.2544" gradientTransform="matrix(0.75 0 0 -0.75 183.3661 270.9943)">
		<stop  offset="0" style="stop-color:#A6A6A5"/>
		<stop  offset="0.15" style="stop-color:#E2E2E1"/>
		<stop  offset="0.25" style="stop-color:#EFEFEE"/>
		<stop  offset="0.52" style="stop-color:#C4C4C3"/>
		<stop  offset="0.69" style="stop-color:#AEAEAE"/>
		<stop  offset="0.8" style="stop-color:#A4A4A4"/>
		<stop  offset="0.92" style="stop-color:#9B9B9A"/>
		<stop  offset="1" style="stop-color:#B2B2B2"/>
	</linearGradient>
	<path fill="url(#SVGID_20_)" d="M338.035,120.016h42.75c1.5,0,2.922,1.34,2.922,3.039c0.078,1.461-1.414,3.078-3.109,3.078
		l-42.563-0.117c-1.5,0-3-1.262-3-2.961c0-1.539,1.328-3.078,3.02-3.078L338.035,120.016z"/>
	
		<linearGradient id="SVGID_21_" gradientUnits="userSpaceOnUse" x1="304.2231" y1="199.8057" x2="202.2236" y2="199.8056" gradientTransform="matrix(0.75 0 0 -0.75 308.7255 292.3888)">
		<stop  offset="0" style="stop-color:#888888"/>
		<stop  offset="0.03" style="stop-color:#D0D0CF"/>
		<stop  offset="0.08" style="stop-color:#B2B2B2"/>
		<stop  offset="0.64" style="stop-color:#B0B0AF"/>
		<stop  offset="0.95" style="stop-color:#ACACAB"/>
		<stop  offset="1" style="stop-color:#7E7E7E"/>
	</linearGradient>
	<path fill="url(#SVGID_21_)" d="M460.394,141.41h76.5v2.25h-76.5V141.41z"/>
	
		<linearGradient id="SVGID_22_" gradientUnits="userSpaceOnUse" x1="321.1997" y1="195.8047" x2="202.2256" y2="195.8047" gradientTransform="matrix(0.75 0 0 -0.75 302.5057 283.8068)">
		<stop  offset="0" style="stop-color:#A8A8A7"/>
		<stop  offset="0.03" style="stop-color:#F1F1F0"/>
		<stop  offset="0.08" style="stop-color:#DADAD9"/>
		<stop  offset="0.64" style="stop-color:#D7D7D6"/>
		<stop  offset="0.95" style="stop-color:#D2D2D1"/>
		<stop  offset="1" style="stop-color:#9C9C9B"/>
	</linearGradient>
	<path fill="url(#SVGID_22_)" d="M457.925,132.828h81.75c2.25,0,3.73,1.824,3.73,4.074c0.02,1.926-1.844,4.074-4.082,4.074
		l-81.398,0.102c-2.25,0-3.75-1.926-3.75-4.176c0-2.574,1.785-4.074,4.027-4.074H457.925z"/>
	
		<linearGradient id="SVGID_23_" gradientUnits="userSpaceOnUse" x1="527.2241" y1="201.3047" x2="527.2241" y2="132.3037" gradientTransform="matrix(0.75 0 0 -0.75 -73.2863 546.297)">
		<stop  offset="0" style="stop-color:#5F5F5F"/>
		<stop  offset="0.07" style="stop-color:#A9A9AA"/>
		<stop  offset="0.08" style="stop-color:#7D7D7E"/>
		<stop  offset="0.64" style="stop-color:#7B7B7C"/>
		<stop  offset="0.85" style="stop-color:#787879"/>
		<stop  offset="1" style="stop-color:#575758"/>
	</linearGradient>
	<path fill="url(#SVGID_23_)" d="M102.383,395.32h439.5l24,51.75h-487.5L102.383,395.32z"/>
	
		<linearGradient id="SVGID_24_" gradientUnits="userSpaceOnUse" x1="495.7241" y1="201.3027" x2="495.7241" y2="177.3018" gradientTransform="matrix(0.75 0 0 -0.75 -49.5319 528.1945)">
		<stop  offset="0.07" style="stop-color:#C6C7C7"/>
		<stop  offset="0.08" style="stop-color:#A6A6A6"/>
		<stop  offset="0.64" style="stop-color:#A3A4A4"/>
		<stop  offset="0.85" style="stop-color:#9FA0A0"/>
	</linearGradient>
	<path fill="url(#SVGID_24_)" d="M102.137,395.218h440.25v-18h-440.25V395.218z"/>
	
		<linearGradient id="SVGID_25_" gradientUnits="userSpaceOnUse" x1="206.7271" y1="201.3018" x2="206.727" y2="-35.6973" gradientTransform="matrix(0.75 0 0 -0.75 -78.1315 345.7384)">
		<stop  offset="0" style="stop-color:#898988"/>
		<stop  offset="0.03" style="stop-color:#D1D1D0"/>
		<stop  offset="0.08" style="stop-color:#B3B3B2"/>
		<stop  offset="0.64" style="stop-color:#B0B0B0"/>
		<stop  offset="0.95" style="stop-color:#ACACAC"/>
		<stop  offset="1" style="stop-color:#7F7F7E"/>
	</linearGradient>
	<path fill="url(#SVGID_25_)" d="M80.289,194.762h-6.75v177.75h6.75V194.762z"/>
	
		<linearGradient id="SVGID_26_" gradientUnits="userSpaceOnUse" x1="222.7227" y1="201.3027" x2="222.7227" y2="128.3027" gradientTransform="matrix(0.75 0 0 -0.75 -108.7765 362.1017)">
		<stop  offset="0" style="stop-color:#AEAEAD"/>
		<stop  offset="0.03" style="stop-color:#F8F8F7"/>
		<stop  offset="0.08" style="stop-color:#E3E3E2"/>
		<stop  offset="0.64" style="stop-color:#DFDFDE"/>
		<stop  offset="0.95" style="stop-color:#DADAD9"/>
		<stop  offset="1" style="stop-color:#A2A2A1"/>
	</linearGradient>
	<path fill="url(#SVGID_26_)" d="M73.641,211.125h-30.75v54.75h30.75V211.125z"/>
	
		<linearGradient id="SVGID_27_" gradientUnits="userSpaceOnUse" x1="203.7236" y1="201.3027" x2="203.7236" y2="128.3027" gradientTransform="matrix(0.75 0 0 -0.75 -108.777 362.1017)">
		<stop  offset="0" style="stop-color:#898988"/>
		<stop  offset="0.03" style="stop-color:#D1D1D0"/>
		<stop  offset="0.08" style="stop-color:#B3B3B2"/>
		<stop  offset="0.64" style="stop-color:#B0B0B0"/>
		<stop  offset="0.95" style="stop-color:#ACACAC"/>
		<stop  offset="1" style="stop-color:#7F7F7E"/>
	</linearGradient>
	<path fill="url(#SVGID_27_)" d="M45.141,211.125h-2.25v54.75h2.25V211.125z"/>
	
		<linearGradient id="SVGID_28_" gradientUnits="userSpaceOnUse" x1="205.2134" y1="201.3027" x2="205.2134" y2="122.209" gradientTransform="matrix(0.75 0 0 -0.75 -113.0861 359.7823)">
		<stop  offset="0" style="stop-color:#AEAEAD"/>
		<stop  offset="0.03" style="stop-color:#F8F8F7"/>
		<stop  offset="0.08" style="stop-color:#E3E3E2"/>
		<stop  offset="0.64" style="stop-color:#DFDFDE"/>
		<stop  offset="0.95" style="stop-color:#DADAD9"/>
		<stop  offset="1" style="stop-color:#A2A2A1"/>
	</linearGradient>
	<path fill="url(#SVGID_28_)" d="M40.832,208.805c0.75,0,2.059,0.914,2.059,2.117l0.191,54.883c0,1.5-1.16,2.32-2.352,2.32
		c-1.398-0.07-2.164-0.973-2.164-2.172l0.016-54.898c0-1.5,0.953-2.25,2.148-2.25H40.832z"/>
</g>
</svg>
