<?xml version="1.0" encoding="utf-8"?>
<!-- Generator: Adobe Illustrator 16.0.0, SVG Export Plug-In . SVG Version: 6.00 Build 0)  -->
<!DOCTYPE svg PUBLIC "-//W3C//DTD SVG 1.1//EN" "http://www.w3.org/Graphics/SVG/1.1/DTD/svg11.dtd">
<svg preserveAspectRatio="none" version="1.1" id="图层_1" xmlns="http://www.w3.org/2000/svg" xmlns:xlink="http://www.w3.org/1999/xlink" x="0px" y="0px"
	 width="318.25px" height="541.539px" viewBox="124.262 12.816 318.25 541.539"
	 enable-background="new 124.262 12.816 318.25 541.539" xml:space="preserve">
<g id="surface36">
	
		<linearGradient id="SVGID_1_" gradientUnits="userSpaceOnUse" x1="486.2231" y1="173.8052" x2="202.2241" y2="173.8051" gradientTransform="matrix(0.75 0 0 -0.75 -3.6022 179.7198)">
		<stop  offset="0" style="stop-color:#3F5871"/>
		<stop  offset="0.03" style="stop-color:#92A4BA"/>
		<stop  offset="0.08" style="stop-color:#547495"/>
		<stop  offset="0.64" style="stop-color:#537292"/>
		<stop  offset="0.95" style="stop-color:#51708F"/>
		<stop  offset="1" style="stop-color:#3A5169"/>
	</linearGradient>
	<path fill="url(#SVGID_1_)" d="M148.066,28.742h213v41.25h-213V28.742z"/>
	
		<linearGradient id="SVGID_2_" gradientUnits="userSpaceOnUse" x1="486.2212" y1="198.3032" x2="202.2222" y2="198.3032" gradientTransform="matrix(0.75 0 0 -0.75 -3.6046 217.1447)">
		<stop  offset="0" style="stop-color:#324559"/>
		<stop  offset="0.03" style="stop-color:#8A96A5"/>
		<stop  offset="0.08" style="stop-color:#435C76"/>
		<stop  offset="0.64" style="stop-color:#425B74"/>
		<stop  offset="0.95" style="stop-color:#405972"/>
		<stop  offset="1" style="stop-color:#2D4053"/>
	</linearGradient>
	<path fill="url(#SVGID_2_)" d="M148.063,66.168h213v4.5h-213V66.168z"/>
	
		<linearGradient id="SVGID_3_" gradientUnits="userSpaceOnUse" x1="524.2261" y1="-22.6948" x2="202.2261" y2="-22.6949" gradientTransform="matrix(0.75 0 0 -0.75 -17.8619 220.2511)">
		<stop  offset="0" style="stop-color:#3F5871"/>
		<stop  offset="0.03" style="stop-color:#92A4BA"/>
		<stop  offset="0.08" style="stop-color:#547495"/>
		<stop  offset="0.64" style="stop-color:#537292"/>
		<stop  offset="0.95" style="stop-color:#51708F"/>
		<stop  offset="1" style="stop-color:#3A5169"/>
	</linearGradient>
	<path fill="url(#SVGID_3_)" d="M133.809,69.273h241.5v336h-241.5V69.273z"/>
	
		<linearGradient id="SVGID_4_" gradientUnits="userSpaceOnUse" x1="242.2231" y1="126.3052" x2="202.2231" y2="126.3052" gradientTransform="matrix(0.75 0 0 -0.75 223.9257 421.0802)">
		<stop  offset="0" style="stop-color:#3F5871"/>
		<stop  offset="0.03" style="stop-color:#92A4BA"/>
		<stop  offset="0.08" style="stop-color:#547495"/>
		<stop  offset="0.64" style="stop-color:#537292"/>
		<stop  offset="0.95" style="stop-color:#51708F"/>
		<stop  offset="1" style="stop-color:#3A5169"/>
	</linearGradient>
	<path fill="url(#SVGID_4_)" d="M375.593,270.102h30v112.5h-30V270.102z"/>
	
		<linearGradient id="SVGID_5_" gradientUnits="userSpaceOnUse" x1="459.2251" y1="73.8057" x2="202.2266" y2="73.8056" gradientTransform="matrix(0.75 0 0 -0.75 6.8138 240.1232)">
		<stop  offset="0" style="stop-color:#4A5C74"/>
		<stop  offset="0.03" style="stop-color:#99A7BC"/>
		<stop  offset="0.08" style="stop-color:#627A98"/>
		<stop  offset="0.64" style="stop-color:#607895"/>
		<stop  offset="0.95" style="stop-color:#5E7592"/>
		<stop  offset="1" style="stop-color:#44556B"/>
	</linearGradient>
	<path fill="url(#SVGID_5_)" d="M158.484,89.145h192.75v191.25h-192.75V89.145z"/>
	
		<linearGradient id="SVGID_6_" gradientUnits="userSpaceOnUse" x1="400.2212" y1="154.8047" x2="202.2227" y2="154.8047" gradientTransform="matrix(0.75 0 0 -0.75 28.6371 476.798)">
		<stop  offset="0" style="stop-color:#4A5C74"/>
		<stop  offset="0.03" style="stop-color:#99A7BC"/>
		<stop  offset="0.08" style="stop-color:#627A98"/>
		<stop  offset="0.64" style="stop-color:#607895"/>
		<stop  offset="0.95" style="stop-color:#5E7592"/>
		<stop  offset="1" style="stop-color:#44556B"/>
	</linearGradient>
	<path fill="url(#SVGID_6_)" d="M180.305,325.82h148.5v69.75h-148.5V325.82z"/>
	
		<linearGradient id="SVGID_7_" gradientUnits="userSpaceOnUse" x1="524.2251" y1="113.8071" x2="202.2256" y2="113.8071" gradientTransform="matrix(0.75 0 0 -0.75 -17.8615 556.1779)">
		<stop  offset="0" style="stop-color:#3F5871"/>
		<stop  offset="0.03" style="stop-color:#92A4BA"/>
		<stop  offset="0.08" style="stop-color:#547495"/>
		<stop  offset="0.64" style="stop-color:#537292"/>
		<stop  offset="0.95" style="stop-color:#51708F"/>
		<stop  offset="1" style="stop-color:#3A5169"/>
	</linearGradient>
	<path fill="url(#SVGID_7_)" d="M133.809,405.199h241.5v131.25h-241.5V405.199z"/>
	
		<linearGradient id="SVGID_8_" gradientUnits="userSpaceOnUse" x1="491.2261" y1="125.8071" x2="202.2271" y2="125.8071" gradientTransform="matrix(0.75 0 0 -0.75 -5.5265 568.2599)">
		<stop  offset="0" style="stop-color:#4A5C74"/>
		<stop  offset="0.03" style="stop-color:#99A7BC"/>
		<stop  offset="0.08" style="stop-color:#627A98"/>
		<stop  offset="0.64" style="stop-color:#607895"/>
		<stop  offset="0.95" style="stop-color:#5E7592"/>
		<stop  offset="1" style="stop-color:#44556B"/>
	</linearGradient>
	<path fill="url(#SVGID_8_)" d="M146.145,417.281h216.75v113.25h-216.75V417.281z"/>
	<path fill="#48637F" d="M236.422,132.48c0-9.75,8.184-18,18.281-18c10.219,0,18.285,8.141,18.285,18.176
		c0.184,10.324-8.188,18.176-18.285,18.176c-10.031-0.352-18.281-8.137-18.281-18.176V132.48z"/>
	<path fill="#3F5870" d="M188.508,333.757h132.75v54h-132.75V333.757z"/>
	<path fill="#517090" d="M190.859,335.953h127.5v49.5h-127.5V335.953z"/>
	
		<linearGradient id="SVGID_9_" gradientUnits="userSpaceOnUse" x1="244.2236" y1="201.3018" x2="244.2236" y2="177.3018" gradientTransform="matrix(0.75 0 0 -0.75 223.9257 565.9406)">
		<stop  offset="0" style="stop-color:#596B7E"/>
		<stop  offset="0.15" style="stop-color:#889CB2"/>
		<stop  offset="0.25" style="stop-color:#C5CDD7"/>
		<stop  offset="0.52" style="stop-color:#6B7F96"/>
		<stop  offset="0.69" style="stop-color:#5E7185"/>
		<stop  offset="0.8" style="stop-color:#596A7D"/>
		<stop  offset="0.92" style="stop-color:#536476"/>
		<stop  offset="1" style="stop-color:#617388"/>
	</linearGradient>
	<path fill="url(#SVGID_9_)" d="M375.593,414.964h63v18h-63V414.964z"/>
	
		<linearGradient id="SVGID_10_" gradientUnits="userSpaceOnUse" x1="209.2217" y1="201.3047" x2="209.2217" y2="162.3047" gradientTransform="matrix(0.75 0 0 -0.75 241.0868 560.5685)">
		<stop  offset="0" style="stop-color:#596B7E"/>
		<stop  offset="0.15" style="stop-color:#889CB2"/>
		<stop  offset="0.25" style="stop-color:#C5CDD7"/>
		<stop  offset="0.52" style="stop-color:#6B7F96"/>
		<stop  offset="0.69" style="stop-color:#5E7185"/>
		<stop  offset="0.8" style="stop-color:#596A7D"/>
		<stop  offset="0.92" style="stop-color:#536476"/>
		<stop  offset="1" style="stop-color:#617388"/>
	</linearGradient>
	<path fill="url(#SVGID_10_)" d="M392.753,409.589h10.5v29.25h-10.5V409.589z"/>
	
		<linearGradient id="SVGID_11_" gradientUnits="userSpaceOnUse" x1="216.2227" y1="67.3052" x2="202.2227" y2="67.3052" gradientTransform="matrix(0.75 0 0 -0.75 275.0585 382.3732)">
		<stop  offset="0" style="stop-color:#596B7E"/>
		<stop  offset="0.15" style="stop-color:#889CB2"/>
		<stop  offset="0.25" style="stop-color:#C5CDD7"/>
		<stop  offset="0.52" style="stop-color:#6B7F96"/>
		<stop  offset="0.69" style="stop-color:#5E7185"/>
		<stop  offset="0.8" style="stop-color:#596A7D"/>
		<stop  offset="0.92" style="stop-color:#536476"/>
		<stop  offset="1" style="stop-color:#617388"/>
	</linearGradient>
	<path fill="url(#SVGID_11_)" d="M426.726,231.395h10.5v201h-10.5V231.395z"/>
	
		<linearGradient id="SVGID_12_" gradientUnits="userSpaceOnUse" x1="226.2222" y1="165.3037" x2="202.2222" y2="165.3037" gradientTransform="matrix(0.75 0 0 -0.75 271.1259 367.8322)">
		<stop  offset="0" style="stop-color:#2B2827"/>
		<stop  offset="0.15" style="stop-color:#5B5858"/>
		<stop  offset="0.25" style="stop-color:#B8B7B7"/>
		<stop  offset="0.52" style="stop-color:#353130"/>
		<stop  offset="0.69" style="stop-color:#2E2A29"/>
		<stop  offset="0.8" style="stop-color:#2B2726"/>
		<stop  offset="0.92" style="stop-color:#282424"/>
		<stop  offset="1" style="stop-color:#6E6B6B"/>
	</linearGradient>
	<path fill="url(#SVGID_12_)" d="M422.792,216.855h18v54h-18V216.855z"/>
	
		<linearGradient id="SVGID_13_" gradientUnits="userSpaceOnUse" x1="216.2256" y1="201.3047" x2="216.2256" y2="162.3047" gradientTransform="matrix(0.75 0 0 -0.75 269.8417 560.5685)">
		<stop  offset="0" style="stop-color:#596B7E"/>
		<stop  offset="0.15" style="stop-color:#889CB2"/>
		<stop  offset="0.25" style="stop-color:#C5CDD7"/>
		<stop  offset="0.52" style="stop-color:#6B7F96"/>
		<stop  offset="0.69" style="stop-color:#5E7185"/>
		<stop  offset="0.8" style="stop-color:#596A7D"/>
		<stop  offset="0.92" style="stop-color:#536476"/>
		<stop  offset="1" style="stop-color:#617388"/>
	</linearGradient>
	<path fill="url(#SVGID_13_)" d="M421.511,409.589h21v29.25h-21V409.589z"/>
	
		<linearGradient id="SVGID_14_" gradientUnits="userSpaceOnUse" x1="550.2261" y1="189.3071" x2="202.2271" y2="189.3071" gradientTransform="matrix(0.75 0 0 -0.75 -27.4088 687.3341)">
		<stop  offset="0" style="stop-color:#3F5871"/>
		<stop  offset="0.03" style="stop-color:#92A4BA"/>
		<stop  offset="0.08" style="stop-color:#547495"/>
		<stop  offset="0.64" style="stop-color:#537292"/>
		<stop  offset="0.95" style="stop-color:#51708F"/>
		<stop  offset="1" style="stop-color:#3A5169"/>
	</linearGradient>
	<path fill="url(#SVGID_14_)" d="M124.262,536.355h261v18h-261V536.355z"/>
	
		<linearGradient id="SVGID_15_" gradientUnits="userSpaceOnUse" x1="524.2251" y1="196.3071" x2="202.2256" y2="196.3071" gradientTransform="matrix(0.75 0 0 -0.75 -17.8615 552.9669)">
		<stop  offset="0" style="stop-color:#354A61"/>
		<stop  offset="0.03" style="stop-color:#8C99AB"/>
		<stop  offset="0.08" style="stop-color:#476380"/>
		<stop  offset="0.64" style="stop-color:#46617D"/>
		<stop  offset="0.95" style="stop-color:#445F7A"/>
		<stop  offset="1" style="stop-color:#304459"/>
	</linearGradient>
	<path fill="url(#SVGID_15_)" d="M133.809,401.988h241.5v7.5h-241.5V401.988z"/>
	<path fill="#A7B6C6" d="M240.609,132.895c0-8.25,6.309-14.25,14.094-14.25c7.656,0,14.098,6.273,14.098,14.016
		c0.309,7.734-6.313,14.012-14.098,14.012c-8.094-0.277-14.094-6.273-14.094-14.012V132.895z"/>
	<path fill="#8F9FB6" d="M173.352,132.621c0-13.5,10.824-24,24.176-24c13.324,0,24.18,10.762,24.18,24.039
		c-0.355,13.461-10.824,24.035-24.18,24.035c-13.676-0.074-24.176-10.762-24.176-24.035V132.621z"/>
	<path fill="#DCDCDD" stroke="#384E64" stroke-linejoin="bevel" stroke-miterlimit="10" d="M176.703,132.957
		c0-12,9.324-21,20.824-21c11.426,0,20.828,9.27,20.828,20.703c0.348,11.547-9.324,20.703-20.828,20.703
		c-11.824-0.156-20.824-9.27-20.824-20.703V132.957z"/>
	<path fill="#E35020" d="M188.68,138.793c0,0,21.016-20.422,22.113-19.328c1.223,1.297-19.461,21.98-19.461,21.98L188.68,138.793z"
		/>
	<path fill="#4B6884" d="M194.195,132.344c0-1.5,1.492-3,3.332-3c1.918,0,3.336,1.484,3.336,3.316
		c0.082,1.934-1.492,3.313-3.336,3.313c-1.832,0.121-3.332-1.484-3.332-3.313V132.344z"/>
	<path fill="#8F9FB6" d="M289.41,132.621c0-13.5,10.824-24,24.18-24c13.32,0,24.18,10.762,24.18,24.039
		c-0.359,13.461-10.828,24.035-24.18,24.035c-13.68-0.074-24.18-10.762-24.18-24.035V132.621z"/>
	<path fill="#DCDCDD" stroke="#384E64" stroke-linejoin="bevel" stroke-miterlimit="10" d="M292.765,132.957
		c0-12,9.324-21,20.824-21c11.426,0,20.824,9.27,20.824,20.703c0.352,11.547-9.324,20.703-20.824,20.703
		c-11.824-0.156-20.824-9.27-20.824-20.703V132.957z"/>
	<path fill="#E35020" d="M304.738,138.793c0,0,21.02-20.422,22.113-19.328c1.223,1.297-19.461,21.98-19.461,21.98L304.738,138.793z"
		/>
	<path fill="#4B6884" d="M310.253,132.344c0-1.5,1.496-3,3.336-3c1.914,0,3.332,1.484,3.332,3.316
		c0.082,1.934-1.492,3.313-3.332,3.313c-1.836,0.121-3.336-1.484-3.336-3.313V132.344z"/>
	
		<linearGradient id="SVGID_16_" gradientUnits="userSpaceOnUse" x1="230.2134" y1="202.4551" x2="203.7098" y2="170.8694" gradientTransform="matrix(0.75 0 0 -0.75 92.0253 272.6915)">
		<stop  offset="0" style="stop-color:#596B7E"/>
		<stop  offset="0.15" style="stop-color:#889CB2"/>
		<stop  offset="0.25" style="stop-color:#C5CDD7"/>
		<stop  offset="0.52" style="stop-color:#6B7F96"/>
		<stop  offset="0.69" style="stop-color:#5E7185"/>
		<stop  offset="0.8" style="stop-color:#596A7D"/>
		<stop  offset="0.92" style="stop-color:#536476"/>
		<stop  offset="1" style="stop-color:#617388"/>
	</linearGradient>
	<path fill="url(#SVGID_16_)" d="M243.695,132.965c0-6,4.93-11.25,11.008-11.25c6.242,0,11.012,4.898,11.012,10.945
		c-0.27,6.305-4.93,10.941-11.012,10.941c-5.758-0.137-11.008-4.898-11.008-10.941V132.965z"/>
	<path fill="none" stroke="#3F5770" stroke-linejoin="bevel" stroke-miterlimit="10" d="M183.191,192.75h8.25
		c0.75,0,1.754,0.656,1.754,1.531l-0.254,65.219c0,0.75-0.461,1.531-1.344,1.531L183.191,261c-0.75,0-1.527-0.68-1.527-1.559
		l0.027-65.191c0-0.75,0.688-1.5,1.57-1.5H183.191z"/>
	<path fill="none" stroke="#3F5770" stroke-linejoin="bevel" stroke-miterlimit="10" d="M202.254,192.75h8.25
		c0.75,0,1.754,0.656,1.754,1.531l-0.254,65.219c0,0.75-0.461,1.531-1.344,1.531L202.254,261c-0.75,0-1.527-0.68-1.527-1.559
		l0.027-65.191c0-0.75,0.688-1.5,1.57-1.5H202.254z"/>
	<path fill="none" stroke="#3F5770" stroke-linejoin="bevel" stroke-miterlimit="10" d="M221.316,192.75h8.25
		c0.75,0,1.75,0.656,1.75,1.531l-0.25,65.219c0,0.75-0.465,1.531-1.344,1.531L221.316,261c-0.75,0-1.527-0.68-1.527-1.559
		l0.027-65.191c0-0.75,0.688-1.5,1.566-1.5H221.316z"/>
	<path fill="none" stroke="#3F5770" stroke-linejoin="bevel" stroke-miterlimit="10" d="M240.375,192.75h8.25
		c0.75,0,1.754,0.656,1.754,1.531l-0.254,65.219c0,0.75-0.461,1.531-1.344,1.531L240.375,261c-0.75,0-1.527-0.68-1.527-1.559
		l0.027-65.191c0-0.75,0.688-1.5,1.57-1.5H240.375z"/>
	<path fill="none" stroke="#3F5770" stroke-linejoin="bevel" stroke-miterlimit="10" d="M259.438,192.75h8.25
		c0.75,0,1.754,0.656,1.754,1.531l-0.254,65.219c0,0.75-0.461,1.531-1.344,1.531L259.438,261c-0.75,0-1.527-0.68-1.527-1.559
		l0.027-65.191c0-0.75,0.688-1.5,1.57-1.5H259.438z"/>
	<path fill="none" stroke="#3F5770" stroke-linejoin="bevel" stroke-miterlimit="10" d="M278.5,192.75h8.25
		c0.75,0,1.75,0.656,1.75,1.531l-0.25,65.219c0,0.75-0.465,1.531-1.344,1.531L278.5,261c-0.75,0-1.527-0.68-1.527-1.559L277,194.25
		c0-0.75,0.688-1.5,1.566-1.5H278.5z"/>
	<path fill="none" stroke="#3F5770" stroke-linejoin="bevel" stroke-miterlimit="10" d="M297.558,192.75h8.25
		c0.75,0,1.754,0.656,1.754,1.531l-0.254,65.219c0,0.75-0.461,1.531-1.344,1.531L297.558,261c-0.75,0-1.527-0.68-1.527-1.559
		l0.027-65.191c0-0.75,0.688-1.5,1.57-1.5H297.558z"/>
	<path fill="none" stroke="#3F5770" stroke-linejoin="bevel" stroke-miterlimit="10" d="M316.621,192.75h8.25
		c0.75,0,1.754,0.656,1.754,1.531l-0.254,65.219c0,0.75-0.461,1.531-1.344,1.531L316.621,261c-0.75,0-1.527-0.68-1.527-1.559
		l0.027-65.191c0-0.75,0.688-1.5,1.57-1.5H316.621z"/>
	
		<linearGradient id="SVGID_17_" gradientUnits="userSpaceOnUse" x1="524.2251" y1="189.8052" x2="202.2256" y2="189.8051" gradientTransform="matrix(0.75 0 0 -0.75 -17.8615 163.7941)">
		<stop  offset="0" style="stop-color:#3F5871"/>
		<stop  offset="0.03" style="stop-color:#92A4BA"/>
		<stop  offset="0.08" style="stop-color:#547495"/>
		<stop  offset="0.64" style="stop-color:#537292"/>
		<stop  offset="0.95" style="stop-color:#51708F"/>
		<stop  offset="1" style="stop-color:#3A5169"/>
	</linearGradient>
	<path fill="url(#SVGID_17_)" d="M133.809,12.816h241.5v17.25h-241.5V12.816z"/>
	
		<linearGradient id="SVGID_18_" gradientUnits="userSpaceOnUse" x1="486.2222" y1="198.3042" x2="202.2231" y2="198.3042" gradientTransform="matrix(0.75 0 0 -0.75 -3.6017 181.1993)">
		<stop  offset="0" style="stop-color:#324559"/>
		<stop  offset="0.03" style="stop-color:#8A96A5"/>
		<stop  offset="0.08" style="stop-color:#435C76"/>
		<stop  offset="0.64" style="stop-color:#425B74"/>
		<stop  offset="0.95" style="stop-color:#405972"/>
		<stop  offset="1" style="stop-color:#2D4053"/>
	</linearGradient>
	<path fill="url(#SVGID_18_)" d="M148.066,30.223h213v4.5h-213V30.223z"/>
	
		<linearGradient id="SVGID_19_" gradientUnits="userSpaceOnUse" x1="209.2236" y1="201.3037" x2="209.2236" y2="156.3037" gradientTransform="matrix(0.75 0 0 -0.75 223.9257 325.3488)">
		<stop  offset="0" style="stop-color:#596B7E"/>
		<stop  offset="0.15" style="stop-color:#889CB2"/>
		<stop  offset="0.25" style="stop-color:#C5CDD7"/>
		<stop  offset="0.52" style="stop-color:#6B7F96"/>
		<stop  offset="0.69" style="stop-color:#5E7185"/>
		<stop  offset="0.8" style="stop-color:#596A7D"/>
		<stop  offset="0.92" style="stop-color:#536476"/>
		<stop  offset="1" style="stop-color:#617388"/>
	</linearGradient>
	<path fill="url(#SVGID_19_)" d="M375.593,174.371h10.5v33.75h-10.5V174.371z"/>
	
		<linearGradient id="SVGID_20_" gradientUnits="userSpaceOnUse" x1="209.2222" y1="201.3057" x2="209.2222" y2="144.3057" gradientTransform="matrix(0.75 0 0 -0.75 234.3563 320.9982)">
		<stop  offset="0" style="stop-color:#596B7E"/>
		<stop  offset="0.15" style="stop-color:#889CB2"/>
		<stop  offset="0.25" style="stop-color:#C5CDD7"/>
		<stop  offset="0.52" style="stop-color:#6B7F96"/>
		<stop  offset="0.69" style="stop-color:#5E7185"/>
		<stop  offset="0.8" style="stop-color:#596A7D"/>
		<stop  offset="0.92" style="stop-color:#536476"/>
		<stop  offset="1" style="stop-color:#617388"/>
	</linearGradient>
	<path fill="url(#SVGID_20_)" d="M386.023,170.02h10.5v42.75h-10.5V170.02z"/>
</g>
</svg>
