<?xml version="1.0" encoding="utf-8"?>
<!-- Generator: Adobe Illustrator 16.0.0, SVG Export Plug-In . SVG Version: 6.00 Build 0)  -->
<!DOCTYPE svg PUBLIC "-//W3C//DTD SVG 1.1//EN" "http://www.w3.org/Graphics/SVG/1.1/DTD/svg11.dtd">
<svg preserveAspectRatio="none" version="1.1" id="图层_1" xmlns="http://www.w3.org/2000/svg" xmlns:xlink="http://www.w3.org/1999/xlink" x="0px" y="0px"
	 width="564.464px" height="342.324px" viewBox="1.117 112.355 564.464 342.324"
	 enable-background="new 1.117 112.355 564.464 342.324" xml:space="preserve">
<g id="surface31">
	
		<linearGradient id="SVGID_1_" gradientUnits="userSpaceOnUse" x1="263.2227" y1="168.8066" x2="202.2236" y2="168.8066" gradientTransform="matrix(0.75 0 0 -0.75 90.7074 268.2531)">
		<stop  offset="0" style="stop-color:#7B684C"/>
		<stop  offset="0.09" style="stop-color:#C3B19A"/>
		<stop  offset="0.16" style="stop-color:#A18965"/>
		<stop  offset="0.64" style="stop-color:#9E8763"/>
		<stop  offset="0.92" style="stop-color:#9B8361"/>
		<stop  offset="1" style="stop-color:#726046"/>
	</linearGradient>
	<path fill="url(#SVGID_1_)" d="M242.375,166.023h45.75v-48.75h-45.75V166.023z"/>
	
		<linearGradient id="SVGID_2_" gradientUnits="userSpaceOnUse" x1="239.7241" y1="201.3037" x2="239.7241" y2="194.3037" gradientTransform="matrix(0.75 0 0 -0.75 85.2611 263.3341)">
		<stop  offset="0" style="stop-color:#7B684C"/>
		<stop  offset="0.09" style="stop-color:#C3B19A"/>
		<stop  offset="0.16" style="stop-color:#A18965"/>
		<stop  offset="0.64" style="stop-color:#9E8763"/>
		<stop  offset="0.92" style="stop-color:#9B8361"/>
		<stop  offset="1" style="stop-color:#726046"/>
	</linearGradient>
	<path fill="url(#SVGID_2_)" d="M236.93,117.605h56.25v-5.25h-56.25V117.605z"/>
	
		<linearGradient id="SVGID_3_" gradientUnits="userSpaceOnUse" x1="54.3027" y1="360.7231" x2="1.3027" y2="360.7231" gradientTransform="matrix(0 -0.75 0.75 0 -191.1324 330.6173)">
		<stop  offset="0" style="stop-color:#9C8561"/>
		<stop  offset="0.15" style="stop-color:#D6BA90"/>
		<stop  offset="0.25" style="stop-color:#E8DAC8"/>
		<stop  offset="0.52" style="stop-color:#B89D74"/>
		<stop  offset="0.69" style="stop-color:#A48B66"/>
		<stop  offset="0.8" style="stop-color:#9B8360"/>
		<stop  offset="0.92" style="stop-color:#927C5A"/>
		<stop  offset="1" style="stop-color:#A88F69"/>
	</linearGradient>
	<path fill="url(#SVGID_3_)" d="M110.535,329.64v-39.75h-62.25v39.75H110.535z"/>
	
		<radialGradient id="SVGID_4_" cx="64.2524" cy="339.6616" r="88.7539" gradientTransform="matrix(0 -0.75 0.75 0 -206.5817 385.3702)" gradientUnits="userSpaceOnUse">
		<stop  offset="0" style="stop-color:#C1AA87"/>
		<stop  offset="0.54" style="stop-color:#CEB590"/>
		<stop  offset="0.74" style="stop-color:#E4D4BD"/>
		<stop  offset="0.91" style="stop-color:#C1AA87"/>
		<stop  offset="1" style="stop-color:#CEB590"/>
	</radialGradient>
	<path fill="url(#SVGID_4_)" stroke="#D4D6DB" stroke-width="0.25" stroke-linejoin="bevel" stroke-miterlimit="10" d="
		M47.836,384.394c26.25,0,47.25-21.141,47.25-47.215c0-26.285-21.008-47.211-46.922-47.211
		c-25.828-0.074-46.922,21.137-46.922,47.211c0.094,26.215,21.008,47.215,46.922,47.215H47.836z"/>
	
		<linearGradient id="SVGID_5_" gradientUnits="userSpaceOnUse" x1="59.3203" y1="398.5474" x2="1.3047" y2="398.5474" gradientTransform="matrix(0 -0.75 0.75 0 -185.5953 332.84)">
		<stop  offset="0" style="stop-color:#9C8561"/>
		<stop  offset="0.15" style="stop-color:#D6BA90"/>
		<stop  offset="0.25" style="stop-color:#E8DAC8"/>
		<stop  offset="0.52" style="stop-color:#B89D74"/>
		<stop  offset="0.69" style="stop-color:#A48B66"/>
		<stop  offset="0.8" style="stop-color:#9B8360"/>
		<stop  offset="0.92" style="stop-color:#927C5A"/>
		<stop  offset="1" style="stop-color:#A88F69"/>
	</linearGradient>
	<path fill="url(#SVGID_5_)" d="M116.074,330.363v-40.5c0-0.75-1.23-1.512-2.758-1.512c-1.742,0.012-2.773,0.637-2.773,1.414
		l0.281,40.598c0,0.75,0.961,1.5,2.492,1.5c1.258,0,2.77-0.633,2.77-1.406L116.074,330.363z"/>
	
		<linearGradient id="SVGID_6_" gradientUnits="userSpaceOnUse" x1="1.3022" y1="401.0513" x2="59.3022" y2="401.0513" gradientTransform="matrix(0 -0.75 0.75 0 -189.3683 332.6564)">
		<stop  offset="0" style="stop-color:#86693D"/>
		<stop  offset="0.66" style="stop-color:#E1CFBD"/>
		<stop  offset="1" style="stop-color:#82653B"/>
	</linearGradient>
	<path fill="url(#SVGID_6_)" d="M112.301,288.179c-0.75,0.75-1.762,0.988-1.762,1.758l0.262,40.242c0,0.75,0.609,1.43,1.5,1.5
		v-43.148V288.179z"/>
	
		<linearGradient id="SVGID_7_" gradientUnits="userSpaceOnUse" x1="251.6655" y1="523.3794" x2="165.7017" y2="523.3794" gradientTransform="matrix(-0.75 0 0 0.75 204.6984 -55.3136)">
		<stop  offset="0" style="stop-color:#968364"/>
		<stop  offset="0.09" style="stop-color:#DECAAE"/>
		<stop  offset="0.16" style="stop-color:#C4AB84"/>
		<stop  offset="0.64" style="stop-color:#C1A882"/>
		<stop  offset="0.92" style="stop-color:#BCA47F"/>
		<stop  offset="1" style="stop-color:#8B795D"/>
	</linearGradient>
	<path fill="url(#SVGID_7_)" d="M80.422,337.406c0,18-14.434,32.25-32.238,32.25c-18.012,0-32.234-14.523-32.234-32.434
		c-0.027-17.816,14.434-32.438,32.234-32.438c17.988,0.371,32.238,14.523,32.238,32.438V337.406z"/>
	
		<linearGradient id="SVGID_8_" gradientUnits="userSpaceOnUse" x1="287.2251" y1="161.3047" x2="202.2251" y2="161.3047" gradientTransform="matrix(0.75 0 0 -0.75 -135.0206 492.8829)">
		<stop  offset="0" style="stop-color:#968364"/>
		<stop  offset="0.09" style="stop-color:#DECAAE"/>
		<stop  offset="0.16" style="stop-color:#C4AB84"/>
		<stop  offset="0.64" style="stop-color:#C1A882"/>
		<stop  offset="0.92" style="stop-color:#BCA47F"/>
		<stop  offset="1" style="stop-color:#8B795D"/>
	</linearGradient>
	<path fill="url(#SVGID_8_)" d="M16.648,341.906h63.75v60h-63.75V341.906z"/>
	
		<linearGradient id="SVGID_9_" gradientUnits="userSpaceOnUse" x1="287.2251" y1="192.3037" x2="202.2251" y2="192.3037" gradientTransform="matrix(0.75 0 0 -0.75 -135.0206 539.3204)">
		<stop  offset="0" style="stop-color:#7B684C"/>
		<stop  offset="0.09" style="stop-color:#C3B19A"/>
		<stop  offset="0.16" style="stop-color:#A18965"/>
		<stop  offset="0.64" style="stop-color:#9E8763"/>
		<stop  offset="0.92" style="stop-color:#9B8361"/>
		<stop  offset="1" style="stop-color:#726046"/>
	</linearGradient>
	<path fill="url(#SVGID_9_)" d="M16.648,388.343h63.75v13.5h-63.75V388.343z"/>
	
		<linearGradient id="SVGID_10_" gradientUnits="userSpaceOnUse" x1="492.7261" y1="201.3057" x2="492.7261" y2="-91.6943" gradientTransform="matrix(0.75 0 0 -0.75 -30.0924 316.7404)">
		<stop  offset="0" style="stop-color:#9C8561"/>
		<stop  offset="0.15" style="stop-color:#D6BA90"/>
		<stop  offset="0.25" style="stop-color:#E8DAC8"/>
		<stop  offset="0.52" style="stop-color:#B89D74"/>
		<stop  offset="0.69" style="stop-color:#A48B66"/>
		<stop  offset="0.8" style="stop-color:#9B8360"/>
		<stop  offset="0.92" style="stop-color:#927C5A"/>
		<stop  offset="1" style="stop-color:#A88F69"/>
	</linearGradient>
	<path fill="url(#SVGID_10_)" d="M121.578,165.762h435.75v219.75h-435.75V165.762z"/>
	
		<linearGradient id="SVGID_11_" gradientUnits="userSpaceOnUse" x1="326.2251" y1="201.3037" x2="326.2251" y2="152.3027" gradientTransform="matrix(0.75 0 0 -0.75 136.1307 280.1993)">
		<stop  offset="0" style="stop-color:#7B684C"/>
		<stop  offset="0.09" style="stop-color:#C3B19A"/>
		<stop  offset="0.16" style="stop-color:#A18965"/>
		<stop  offset="0.64" style="stop-color:#9E8763"/>
		<stop  offset="0.92" style="stop-color:#9B8361"/>
		<stop  offset="1" style="stop-color:#726046"/>
	</linearGradient>
	<path fill="url(#SVGID_11_)" d="M287.8,165.973h186v-36.75h-186V165.973z"/>
	
		<linearGradient id="SVGID_12_" gradientUnits="userSpaceOnUse" x1="207.814" y1="201.3018" x2="207.8139" y2="-101.3604" gradientTransform="matrix(0.75 0 0 -0.75 -38.4679 313.2267)">
		<stop  offset="0" style="stop-color:#9C8561"/>
		<stop  offset="0.15" style="stop-color:#D6BA90"/>
		<stop  offset="0.25" style="stop-color:#E8DAC8"/>
		<stop  offset="0.52" style="stop-color:#B89D74"/>
		<stop  offset="0.69" style="stop-color:#A48B66"/>
		<stop  offset="0.8" style="stop-color:#9B8360"/>
		<stop  offset="0.92" style="stop-color:#927C5A"/>
		<stop  offset="1" style="stop-color:#A88F69"/>
	</linearGradient>
	<path fill="url(#SVGID_12_)" d="M117.703,162.25c2.25,0,3.879,1.887,3.879,4.215L121.453,385c0,2.25-1.746,4.223-4.063,4.223
		c-1.938,0.277-4.188-1.891-4.188-4.219V166.75c0-2.25,1.875-4.5,4.188-4.5H117.703z"/>
	
		<linearGradient id="SVGID_13_" gradientUnits="userSpaceOnUse" x1="207.8115" y1="201.3027" x2="207.8115" y2="-101.3594" gradientTransform="matrix(0.75 0 0 -0.75 405.5331 313.2267)">
		<stop  offset="0" style="stop-color:#9C8561"/>
		<stop  offset="0.15" style="stop-color:#D6BA90"/>
		<stop  offset="0.25" style="stop-color:#E8DAC8"/>
		<stop  offset="0.52" style="stop-color:#B89D74"/>
		<stop  offset="0.69" style="stop-color:#A48B66"/>
		<stop  offset="0.8" style="stop-color:#9B8360"/>
		<stop  offset="0.92" style="stop-color:#927C5A"/>
		<stop  offset="1" style="stop-color:#A88F69"/>
	</linearGradient>
	<path fill="url(#SVGID_13_)" d="M561.703,162.25c2.25,0,3.879,1.887,3.879,4.215L565.453,385c0,2.25-1.746,4.223-4.059,4.223
		c-1.941,0.277-4.191-1.891-4.191-4.219V166.75c0-2.25,1.875-4.5,4.191-4.5H561.703z"/>
	
		<linearGradient id="SVGID_14_" gradientUnits="userSpaceOnUse" x1="452.7261" y1="201.3066" x2="452.7261" y2="169.3057" gradientTransform="matrix(0.75 0 0 -0.75 -36.3727 581.6583)">
		<stop  offset="0" style="stop-color:#7B684C"/>
		<stop  offset="0.09" style="stop-color:#C3B19A"/>
		<stop  offset="0.16" style="stop-color:#A18965"/>
		<stop  offset="0.64" style="stop-color:#9E8763"/>
		<stop  offset="0.92" style="stop-color:#9B8361"/>
		<stop  offset="1" style="stop-color:#726046"/>
	</linearGradient>
	<path fill="url(#SVGID_14_)" d="M115.297,430.679h375.75v24h-375.75V430.679z"/>
	<path fill="#B89054" d="M121.902,248.465h364.5v120h-364.5V248.465z"/>
	
		<linearGradient id="SVGID_15_" gradientUnits="userSpaceOnUse" x1="322.2251" y1="201.3027" x2="322.2251" y2="187.3027" gradientTransform="matrix(0.75 0 0 -0.75 60.1469 316.7394)">
		<stop  offset="0" style="stop-color:#7E7F7F"/>
		<stop  offset="0.09" style="stop-color:#C6C7C7"/>
		<stop  offset="0.16" style="stop-color:#A6A6A6"/>
		<stop  offset="0.64" style="stop-color:#A3A4A4"/>
		<stop  offset="0.92" style="stop-color:#9FA0A0"/>
		<stop  offset="1" style="stop-color:#757676"/>
	</linearGradient>
	<path fill="url(#SVGID_15_)" d="M211.816,165.762h180v10.5h-180V165.762z"/>
	
		<linearGradient id="SVGID_16_" gradientUnits="userSpaceOnUse" x1="212.2227" y1="146.3037" x2="202.2227" y2="146.3037" gradientTransform="matrix(0.75 0 0 -0.75 119.1884 316.7394)">
		<stop  offset="0" style="stop-color:#979898"/>
		<stop  offset="0.15" style="stop-color:#D0D1D1"/>
		<stop  offset="0.25" style="stop-color:#E5E6E6"/>
		<stop  offset="0.52" style="stop-color:#B3B4B4"/>
		<stop  offset="0.69" style="stop-color:#9FA0A0"/>
		<stop  offset="0.8" style="stop-color:#969797"/>
		<stop  offset="0.92" style="stop-color:#8E8E8E"/>
		<stop  offset="1" style="stop-color:#A3A4A4"/>
	</linearGradient>
	<path fill="url(#SVGID_16_)" d="M270.855,165.762h7.5v82.5h-7.5V165.762z"/>
	
		<linearGradient id="SVGID_17_" gradientUnits="userSpaceOnUse" x1="212.2231" y1="146.3037" x2="202.2231" y2="146.3037" gradientTransform="matrix(0.75 0 0 -0.75 173.3124 316.7394)">
		<stop  offset="0" style="stop-color:#979898"/>
		<stop  offset="0.15" style="stop-color:#D0D1D1"/>
		<stop  offset="0.25" style="stop-color:#E5E6E6"/>
		<stop  offset="0.52" style="stop-color:#B3B4B4"/>
		<stop  offset="0.69" style="stop-color:#9FA0A0"/>
		<stop  offset="0.8" style="stop-color:#969797"/>
		<stop  offset="0.92" style="stop-color:#8E8E8E"/>
		<stop  offset="1" style="stop-color:#A3A4A4"/>
	</linearGradient>
	<path fill="url(#SVGID_17_)" d="M324.98,165.762h7.5v82.5h-7.5V165.762z"/>
	
		<linearGradient id="SVGID_18_" gradientUnits="userSpaceOnUse" x1="217.2227" y1="193.3037" x2="202.2227" y2="193.3037" gradientTransform="matrix(0.75 0 0 -0.75 117.4501 316.5284)">
		<stop  offset="0" style="stop-color:#7E7F7F"/>
		<stop  offset="0.09" style="stop-color:#C6C7C7"/>
		<stop  offset="0.16" style="stop-color:#A6A6A6"/>
		<stop  offset="0.64" style="stop-color:#A3A4A4"/>
		<stop  offset="0.92" style="stop-color:#9FA0A0"/>
		<stop  offset="1" style="stop-color:#757676"/>
	</linearGradient>
	<path fill="url(#SVGID_18_)" d="M269.117,165.551h11.25v12h-11.25V165.551z"/>
	
		<linearGradient id="SVGID_19_" gradientUnits="userSpaceOnUse" x1="217.2271" y1="193.3037" x2="202.2271" y2="193.3037" gradientTransform="matrix(0.75 0 0 -0.75 171.5751 316.5284)">
		<stop  offset="0" style="stop-color:#7E7F7F"/>
		<stop  offset="0.09" style="stop-color:#C6C7C7"/>
		<stop  offset="0.16" style="stop-color:#A6A6A6"/>
		<stop  offset="0.64" style="stop-color:#A3A4A4"/>
		<stop  offset="0.92" style="stop-color:#9FA0A0"/>
		<stop  offset="1" style="stop-color:#757676"/>
	</linearGradient>
	<path fill="url(#SVGID_19_)" d="M323.246,165.551h11.25v12h-11.25V165.551z"/>
	
		<linearGradient id="SVGID_20_" gradientUnits="userSpaceOnUse" x1="11.3057" y1="333.7036" x2="1.3057" y2="333.7036" gradientTransform="matrix(0 -0.75 -0.75 0 552.3009 201.9318)">
		<stop  offset="0" style="stop-color:#979898"/>
		<stop  offset="0.15" style="stop-color:#D0D1D1"/>
		<stop  offset="0.25" style="stop-color:#E5E6E6"/>
		<stop  offset="0.52" style="stop-color:#B3B4B4"/>
		<stop  offset="0.69" style="stop-color:#9FA0A0"/>
		<stop  offset="0.8" style="stop-color:#969797"/>
		<stop  offset="0.92" style="stop-color:#8E8E8E"/>
		<stop  offset="1" style="stop-color:#A3A4A4"/>
	</linearGradient>
	<path fill="url(#SVGID_20_)" d="M278.023,200.953v-7.5h48v7.5H278.023z"/>
	<path fill="#CFB48B" d="M121.898,248.465h354v108.75h-354V248.465z"/>
	
		<linearGradient id="SVGID_21_" gradientUnits="userSpaceOnUse" x1="233.2227" y1="154.8047" x2="202.2227" y2="154.8047" gradientTransform="matrix(0.75 0 0 -0.75 12.516 512.4425)">
		<stop  offset="0" style="stop-color:#7B684C"/>
		<stop  offset="0.09" style="stop-color:#C3B19A"/>
		<stop  offset="0.16" style="stop-color:#A18965"/>
		<stop  offset="0.64" style="stop-color:#9E8763"/>
		<stop  offset="0.92" style="stop-color:#9B8361"/>
		<stop  offset="1" style="stop-color:#726046"/>
	</linearGradient>
	<path fill="url(#SVGID_21_)" d="M164.184,431.214h23.25v-69.75h-23.25V431.214z"/>
	
		<linearGradient id="SVGID_22_" gradientUnits="userSpaceOnUse" x1="233.2246" y1="154.8047" x2="202.2246" y2="154.8047" gradientTransform="matrix(0.75 0 0 -0.75 268.827 512.4425)">
		<stop  offset="0" style="stop-color:#7B684C"/>
		<stop  offset="0.09" style="stop-color:#C3B19A"/>
		<stop  offset="0.16" style="stop-color:#A18965"/>
		<stop  offset="0.64" style="stop-color:#9E8763"/>
		<stop  offset="0.92" style="stop-color:#9B8361"/>
		<stop  offset="1" style="stop-color:#726046"/>
	</linearGradient>
	<path fill="url(#SVGID_22_)" d="M420.496,431.214h23.25v-69.75h-23.25V431.214z"/>
	
		<linearGradient id="SVGID_23_" gradientUnits="userSpaceOnUse" x1="11.3027" y1="333.7036" x2="1.3027" y2="333.7036" gradientTransform="matrix(0 -0.75 -0.75 0 552.3009 232.7892)">
		<stop  offset="0" style="stop-color:#979898"/>
		<stop  offset="0.15" style="stop-color:#D0D1D1"/>
		<stop  offset="0.25" style="stop-color:#E5E6E6"/>
		<stop  offset="0.52" style="stop-color:#B3B4B4"/>
		<stop  offset="0.69" style="stop-color:#9FA0A0"/>
		<stop  offset="0.8" style="stop-color:#969797"/>
		<stop  offset="0.92" style="stop-color:#8E8E8E"/>
		<stop  offset="1" style="stop-color:#A3A4A4"/>
	</linearGradient>
	<path fill="url(#SVGID_23_)" d="M278.023,231.813v-7.5h48v7.5H278.023z"/>
	
		<linearGradient id="SVGID_24_" gradientUnits="userSpaceOnUse" x1="212.7275" y1="201.3027" x2="212.7275" y2="166.3027" gradientTransform="matrix(0.75 0 0 -0.75 -30.0768 448.6759)">
		<stop  offset="0" style="stop-color:#979898"/>
		<stop  offset="0.15" style="stop-color:#D0D1D1"/>
		<stop  offset="0.25" style="stop-color:#E5E6E6"/>
		<stop  offset="0.52" style="stop-color:#B3B4B4"/>
		<stop  offset="0.69" style="stop-color:#9FA0A0"/>
		<stop  offset="0.8" style="stop-color:#969797"/>
		<stop  offset="0.92" style="stop-color:#8E8E8E"/>
		<stop  offset="1" style="stop-color:#A3A4A4"/>
	</linearGradient>
	<path fill="url(#SVGID_24_)" d="M121.594,297.699h15.75v26.25h-15.75V297.699z"/>
	<path fill="#FE5C1C" d="M137.262,298.859c0,0,52.555-30.902,67.375-24.378c15.125,6.379,40.75,4.074,40.75,4.074
		c-0.125,0.055,72.234-12.113,62.23-3.727c-10.605,8.281,65.734-8.102,54.543,0.438c-11.148,8.594,40.906-8.539,74.699,6.785
		c17.652,6.308-33.023-3.289,33.516,14.269c13.387,3.289-18.344,7.797-0.168,13.891c6.055,11.898-68.145,9.941-40.129,19.801
		c18.434,6.348-57.234,5.035-74.02,3.289c-27.547-2.941-7.875,3.027-7.875,3.027c-0.172,0.031-19.449,20.504-80.57,2.797
		c0.148,0.234,12.965,8.387-2.781,8.387c-15.82,0.098-35.652,1.047-61.586-5.473c-26.234-6.43,26.047,20.965-65.984-19.105V298.859z
		"/>
	<path fill="#FD991F" d="M137.258,298.503c0,0,45.879-26.554,58.816-20.859c13.184,5.859,34.289,4.887,34.289,4.887
		c-0.105,0.223,63.062-10.574,54.167-3.254c-8.523,7.226,31.793,2.703,31.793,2.703c0.184,0.023,97.004-7.344,83.273,1.629
		c-12.59,8.144,68.527,8.585,29.012,18.527c-7.852,0.867,31.875,6.055,0.926,11.18c-20.027,3.188-31.609,2.336-16.051,12.039
		c8.023,5.398-73.762,7.137-98.016,3.883c-24.461-2.984-2.426,5.691-2.426,5.691c-0.285,0.324-9.914,15.934-63.277,0.48
		c-0.008-0.156,11.32,7.375-2.422,7.375c-14.086-0.031-31.867-0.879-54.504-6.57c-22.582-5.461-27.895-0.816-55.582-16.27V298.503z"
		/>
	<path fill="#FCD732" d="M137.258,300.988c0,0,40.113-21.039,51.422-16.551c11.578,4.551,29.977,3.855,29.977,3.855
		c0.352-0.055,55.129-8.339,47.355-2.566c-8.004,5.512,27.792,2.133,27.792,2.133c0.203-0.371,84.688-5.953,72.801,1.281
		c-14.848,8.848,41.09,4.609,22.566,11.262c-27.664,2.086,7.59,7.09,0.387,10.156c-12.301,5.43-29.527,3.063-21.996,5.25
		c20.945,6.18-46.191,11.172-67.398,8.609c-21.156-2.43-2.121,4.488-2.121,4.488c-0.285-0.168-15.777,13.262-62.425,1.074
		c-0.109,0.258,9.898,5.824-2.117,5.824c-12.242-0.316-27.859-0.699-47.648-5.188c-20.094-4.129-24.383-0.641-48.594-12.828V300.988
		z"/>
	<path fill="#FCFFA4" d="M137.258,303.156c0,0,35.727-16.426,45.801-12.957c9.699,3.207,26.699,2.977,26.699,2.977
		c0.25,0.23,49.102-6.438,42.176-1.98c-6.676,4.461,24.754,1.645,24.754,1.645c0.07-0.184,52.882-2.477,64.843,0.988
		c11.727,3.328,28.578,9.465,22.246,10.297c-23.27,2.781,8.914,4.805,5.453,7.527c-3.223,2.754-8.188,8.324-27.699,7.43
		c-47.523-2.426-40.289,3.961-59.175,1.98c-19.098-2.156-1.891,3.465-1.891,3.465c0.043-0.371-14.051,10.238-55.602,0.828
		c0.145,0.301,8.816,4.469-1.887,4.469c-10.719,0.332-24.813-0.512-42.438-3.977c-17.781-3.191-21.719-0.496-43.281-9.902V303.156z"
		/>
</g>
</svg>
