<?xml version="1.0" encoding="utf-8"?>
<!-- Generator: Adobe Illustrator 16.0.0, SVG Export Plug-In . SVG Version: 6.00 Build 0)  -->
<!DOCTYPE svg PUBLIC "-//W3C//DTD SVG 1.1//EN" "http://www.w3.org/Graphics/SVG/1.1/DTD/svg11.dtd">
<svg preserveAspectRatio="none" version="1.1" id="图层_1" xmlns="http://www.w3.org/2000/svg" xmlns:xlink="http://www.w3.org/1999/xlink" x="0px" y="0px"
	 width="510px" height="561.832px" viewBox="28.465 2.504 510 561.832" enable-background="new 28.465 2.504 510 561.832"
	 xml:space="preserve">
<g id="surface91">
	
		<linearGradient id="SVGID_1_" gradientUnits="userSpaceOnUse" x1="615.2222" y1="102.8052" x2="202.2222" y2="102.8051" gradientTransform="matrix(0.75 0 0 -0.75 -23.2028 165.8927)">
		<stop  offset="0" style="stop-color:#B8B8B8"/>
		<stop  offset="0.15" style="stop-color:#F8F8F8"/>
		<stop  offset="0.25" style="stop-color:#FBFBFB"/>
		<stop  offset="0.52" style="stop-color:#D9D9D9"/>
		<stop  offset="0.69" style="stop-color:#C1C1C1"/>
		<stop  offset="0.8" style="stop-color:#B6B6B6"/>
		<stop  offset="0.92" style="stop-color:#ACACAC"/>
		<stop  offset="1" style="stop-color:#C6C6C6"/>
	</linearGradient>
	<path fill="url(#SVGID_1_)" d="M128.465,14.914h309.75v147.75h-309.75V14.914z"/>
	
		<linearGradient id="SVGID_2_" gradientUnits="userSpaceOnUse" x1="822.2983" y1="272.1919" x2="274.1547" y2="-44.2788" gradientTransform="matrix(0.75 0 0 -0.75 -116.1876 313.4142)">
		<stop  offset="0" style="stop-color:#999999"/>
		<stop  offset="0.25" style="stop-color:#FCFCFC"/>
		<stop  offset="0.29" style="stop-color:#F8F8F8"/>
		<stop  offset="0.52" style="stop-color:#D9D9D9"/>
		<stop  offset="0.71" style="stop-color:#C1C1C1"/>
		<stop  offset="0.8" style="stop-color:#B6B6B6"/>
		<stop  offset="1" style="stop-color:#ACACAC"/>
	</linearGradient>
	<path fill="url(#SVGID_2_)" d="M128.48,162.438h309.75l93,90.75H35.48L128.48,162.438z"/>
	
		<linearGradient id="SVGID_3_" gradientUnits="userSpaceOnUse" x1="863.2231" y1="5.3057" x2="202.2236" y2="5.3056" gradientTransform="matrix(0.75 0 0 -0.75 -116.1876 404.6505)">
		<stop  offset="0" style="stop-color:#B8B8B8"/>
		<stop  offset="0.15" style="stop-color:#F8F8F8"/>
		<stop  offset="0.25" style="stop-color:#FBFBFB"/>
		<stop  offset="0.52" style="stop-color:#D9D9D9"/>
		<stop  offset="0.69" style="stop-color:#C1C1C1"/>
		<stop  offset="0.8" style="stop-color:#B6B6B6"/>
		<stop  offset="0.92" style="stop-color:#ACACAC"/>
		<stop  offset="1" style="stop-color:#C6C6C6"/>
	</linearGradient>
	<path fill="url(#SVGID_3_)" d="M35.48,253.672h495.75v294H35.48V253.672z"/>
	
		<linearGradient id="SVGID_4_" gradientUnits="userSpaceOnUse" x1="615.2222" y1="197.3052" x2="202.2222" y2="197.3051" gradientTransform="matrix(0.75 0 0 -0.75 -23.2028 165.5519)">
		<stop  offset="0" style="stop-color:#979797"/>
		<stop  offset="0.15" style="stop-color:#D0D0D0"/>
		<stop  offset="0.25" style="stop-color:#E5E5E5"/>
		<stop  offset="0.52" style="stop-color:#B3B3B3"/>
		<stop  offset="0.69" style="stop-color:#9F9F9F"/>
		<stop  offset="0.8" style="stop-color:#969696"/>
		<stop  offset="0.92" style="stop-color:#8E8E8E"/>
		<stop  offset="1" style="stop-color:#A3A3A3"/>
	</linearGradient>
	<path fill="url(#SVGID_4_)" d="M128.465,14.574h309.75v6h-309.75V14.574z"/>
	
		<linearGradient id="SVGID_5_" gradientUnits="userSpaceOnUse" x1="628.2251" y1="192.8052" x2="202.2251" y2="192.8051" gradientTransform="matrix(0.75 0 0 -0.75 -27.8922 153.4825)">
		<stop  offset="0" style="stop-color:#B8B8B8"/>
		<stop  offset="0.15" style="stop-color:#F8F8F8"/>
		<stop  offset="0.25" style="stop-color:#FBFBFB"/>
		<stop  offset="0.52" style="stop-color:#D9D9D9"/>
		<stop  offset="0.69" style="stop-color:#C1C1C1"/>
		<stop  offset="0.8" style="stop-color:#B6B6B6"/>
		<stop  offset="0.92" style="stop-color:#ACACAC"/>
		<stop  offset="1" style="stop-color:#C6C6C6"/>
	</linearGradient>
	<path fill="url(#SVGID_5_)" d="M127.527,2.504h312c1.5,0,3.625,1.777,3.625,3.969l0.125,4.281c0,2.25-1.895,4.156-4.074,4.156
		l-311.675,0.344c-2.25,0-3.75-2.121-3.75-4.316V6.254c0-2.25,1.766-3.75,3.949-3.75H127.527z"/>
	
		<linearGradient id="SVGID_6_" gradientUnits="userSpaceOnUse" x1="863.2231" y1="193.8032" x2="202.2236" y2="193.8032" gradientTransform="matrix(0.75 0 0 -0.75 -116.1876 687.8634)">
		<stop  offset="0" style="stop-color:#979797"/>
		<stop  offset="0.15" style="stop-color:#D0D0D0"/>
		<stop  offset="0.25" style="stop-color:#E5E5E5"/>
		<stop  offset="0.52" style="stop-color:#B3B3B3"/>
		<stop  offset="0.69" style="stop-color:#9F9F9F"/>
		<stop  offset="0.8" style="stop-color:#969696"/>
		<stop  offset="0.92" style="stop-color:#8E8E8E"/>
		<stop  offset="1" style="stop-color:#A3A3A3"/>
	</linearGradient>
	<path fill="url(#SVGID_6_)" d="M35.48,536.886h495.75v11.25H35.48V536.886z"/>
	
		<linearGradient id="SVGID_7_" gradientUnits="userSpaceOnUse" x1="882.2241" y1="190.2813" x2="202.2251" y2="190.2812" gradientTransform="matrix(0.75 0 0 -0.75 -123.2047 698.7755)">
		<stop  offset="0" style="stop-color:#B8B8B8"/>
		<stop  offset="0.15" style="stop-color:#F8F8F8"/>
		<stop  offset="0.25" style="stop-color:#FBFBFB"/>
		<stop  offset="0.52" style="stop-color:#D9D9D9"/>
		<stop  offset="0.69" style="stop-color:#C1C1C1"/>
		<stop  offset="0.8" style="stop-color:#B6B6B6"/>
		<stop  offset="0.92" style="stop-color:#ACACAC"/>
		<stop  offset="1" style="stop-color:#C6C6C6"/>
	</linearGradient>
	<path fill="url(#SVGID_7_)" d="M32.215,547.796h502.5c2.25,0,3.75,1.777,3.75,3.969v8.781c0,2.25-1.789,3.789-3.969,3.789
		l-502.281-0.039c-2.25,0-3.75-1.738-3.75-3.93v-8.82c0-2.25,1.766-3.75,3.949-3.75H32.215z"/>
	
		<linearGradient id="SVGID_8_" gradientUnits="userSpaceOnUse" x1="202.2251" y1="46.8022" x2="786.2251" y2="46.8022" gradientTransform="matrix(0.75 0 0 -0.75 -87.0831 426.465)">
		<stop  offset="0" style="stop-color:#787878"/>
		<stop  offset="0.24" style="stop-color:#ABABAB"/>
		<stop  offset="0.57" style="stop-color:#8F8F8F"/>
		<stop  offset="0.74" style="stop-color:#7F7F7F"/>
		<stop  offset="0.86" style="stop-color:#777777"/>
	</linearGradient>
	<path fill="url(#SVGID_8_)" d="M64.586,275.488h438v231.75h-438V275.488z"/>
	<path fill="#FE5C1C" d="M65.18,506.589c0,0,0-11.453,9.949-12.043c-0.199,0.043-2.215,3.355-2.215,4.934
		c-0.234,1.859,9.023-13.422,8.863-13.223c-0.098,0.082-6.016,10.063,2.059,13.617c0.094-0.035,16.777,5.523,14.719-20.723
		c-1.875-26.563,2.383-31.039,2.383-31.039c0.242-0.023-2.699,35.973,14.488,30.84c0.004-0.113,10.035-1.773,7.82-33.918
		c-0.316,0.055-0.316-15.68-7.82-8.906c0.004-0.039-3.574-12.434,3.707-10.855c0.047,0.316,10.445,1.777,9.18,27.039
		c-0.133,0.277,1.105,10.063,3.973-2.371c-0.355-0.352,7.578,31.383,22.406,27.238c-0.262,0.16,5.75-0.199,7.496-20.527
		c-0.258-0.313,5.695,8.684,2.633,23.684c0.109,0.004,7.652-1.973,8.793-0.988c0.316,0.242-2.723,17.566,6.102,20.328
		c9.215,2.414,23.621-2.762,26.152-14.602c2.563-11.484,0.477-34.539-7.281-50.723c0.094,0.238,12.82,26.645,19.949,30.195
		c-0.355,0.043,3.477-17.563-9.66-45.969c0.305,0.262,12.348,20.117,4.449,1.367c0.355-0.355,10.273,2.762,12.645,12.629
		c2.711,9.516,6.016,13.422,6.016,13.422c-0.305-0.156,0.793-9.277,3.504-8.684c-0.059,0.277-0.336,22.5,8.906,32.957
		c0.035,0.32,4.051,8.094,8.641-25.852c-0.355-0.078-0.742-13.816-5.223-25.855c-4.883-11.723,0.793-11.84,0-27.598
		c0.367,0.125,0.477-3.387,4.48,1.352c-0.363,0.273-1.789-16.184,9.164-26.84c0.223,0.113-5.098,5.918-4.148,16.379
		c0.621,10.734-4.59,26.645-4.59,26.645c-0.039-0.16-4.273,24.273,11.742,27.035c0.219-0.195,9.703-0.984,13.766-36.512
		c-0.047,0.316,2.035-19.93,2.371-23.879c-0.168,0.195-0.813,0.395-2.238,4.145c-0.93,3.551-3.164-3.75-1.23-9.867
		c1.051-6.082,7.265-11.574-4.645-9.602c-0.305-0.23,5.066-3.156,1.266-11.25c-3.82-7.73-21.848-29.785,3.004-43.402
		c-0.074-0.328,4.59-2.762-2.691,5.527c-7.133,8.395-3.141,16.184-3.141,16.184c-0.242-0.289,2.98-5.527,7.414-6.316
		c-0.156,0.027-17.285,9.656,6.058,27.023c-0.215,0.004-0.929-9.473,8.523-8.094c0.262-0.152-11.804,10.164-0.965,23.684
		c-0.273,0.164,5.086,1.113,0.652,18.285c-0.176-0.121-2.691,12.234,0.477,18.355l3.098-3.477c0,0,6.715,9.324,6.715,22.816
		c0.035,13.184,0.793,21.117,8.234,12.828c0.051,0.355,8.543-9.867,3.004-30.789c0.047-0.355-4.59-12.629-2.852-24.473
		c-0.102,0.117-0.789-6.313-4.273-10.063c-0.328-0.32,10.922,7.5,9.023,26.051c-0.352-0.121,4.117-4.539,5.078-1.578
		c-0.18-0.043-2.836,4.734,0,12.434c2.82,7.773-3.336,26.246-4.445,33.152c-0.984,6.871-2.375,26.051,7.152,34.34
		c0.113,0.281,8.516-9.867,9.313-34.141c-0.199-0.078,4.43,0.395,3.523,9.078c0.027-0.156,4.703-4.539,6.918-14.605
		c2.109-10.301,11.406-12.234,11.406-12.234c-0.297-0.316-6.34,12.234,0,7.695c-0.297,0.238,3.156-2.172,6.492-9.273
		c-0.039-0.238-15.996,28.418-11.09,47.168c-0.199-0.156,0.633,6.313,19.66-30.59c-0.359-0.316-12.063,24.273-6.523,51.707
		c0.164-0.273,4.867,14.602,19.902,14.109c14.762-0.133,11.676-20.477,11.676-20.477c0.086,0.094,7.715-1.234,9.098,0.988
		c1.488,2.105-5.539-8.883,3.391-23.438c0.348,0.043-1.805,29.109,16.023,17.27c0.074,0.023,7.691-5.922,13.059-26.395
		c-0.234,0.168-0.816,9.621,2.746,7.152c0.02-0.234,1.188-0.738,1.188-8.387c0.332-7.598,1.781-22.203,12.465-20.723
		c-0.133-0.375,4.152,7.648-0.395,10.113c0.262,0.012-3.168-9.129-6.531,2.223c0.043,0.039-5.934,35.77,8.93,40.949
		c0.113,0.34,13.625,4.441,13.059-29.852c-0.195,0.191,3.512,5.676,1.754,30.344c0.301-0.152-1.582,22.945,13.27,21.219
		c-0.219-0.371,7.703-0.742,5.934-11.348c-0.152-0.273,3.148,8.395,5.527,9.125c2.57,1.102-1.18-3.707-1.18-3.707
		c0,0.309,6.324-2.461,8.32,6.668c-0.07-0.359,0,3.578-0.809,4.785L65.18,506.589z"/>
	<path fill="#FD991F" d="M214.117,506.164c0,0-7.035-7.676-7.5-15.965c-0.75-8.035,7.902-22.688,7.902-22.688
		c0.348-0.348-1.898,25.844,12.207,20.516c0.141,0.137,10.137-5.121,0-17.762c0.141-0.102-3.344-3.539-6.984-3.539
		c-0.375-0.313,5.699-9.066,18.223,0c0.152-0.313,8.844,7.879,9.645,9.262c0.258,0.176,3-32.367,21.07-36.691
		c0.188,0.117-7.625,11.824-6.516,15.773c1.453,3.844,9.652,0,10.285-9.078c0.918-8.828-0.949-14.41-0.949-14.41
		c0.367,0.332,2.852,3.355,2.852,4.539c-0.234,1.043,6.012,4.539,7.461-34.707c-0.195-0.25,3.156,5.301,3.156,9.25
		c-0.352,0.25,2.543-22.105,0-32.75c-0.352,0,13.598,38.672-1.503,66.496c-0.348,0.254,6.238-6.906,9.253-3.156
		c0.148-0.34-9.031,8.09-1.434,29.602c0.082,0.059,2.848-18.945,4.75-20.918c2.082-2.273,1.898,8.289,9.594,3.059
		c-0.012-0.082,2.434-3.848-6.43-13.715c-0.332,0.133,15.512,3.945,21.23,36.313c0.188-0.18,12.324-16.379,27.527-9.672
		c-0.34-0.258-14.57,6.711-7.762,19.934c-0.078,0.059,7.281,8.094,12.027-5.129c-0.105-0.063,1.449-6.516,1.449-12.039
		c-0.055-0.023,9.629,13.813,5.676,26.445c0.27-0.219-4.117,10.262-6.332,10.852L214.117,506.164z"/>
	<path fill="#FCD732" d="M221.715,505.796c0,0,1.156-3.867-4.383-10.035c-5.367-6.465-3.559-12.813-3.559-12.813
		c-0.309,0.348,2.57,7.879,9.102,7.879c6.34-0.031,8.605,3.082,8.605,3.082c-0.016-0.113,1.484-7.027,3.461-9.004
		c1.773-1.609,0,11.102,6.938,11.598c0.086,0.293,0.582-0.742-2.188-4.938c-2.977-4.52,2.188-8.879,2.188-8.879
		c0.086-0.141,18.387,2.715,13.242-24.902c0.344,0.012,7.719,5.168,11.477,4.672c3.867-0.16,8.855,6.414,8.855,12.582
		c0.262,0.008,8.949-2.465,6.18-19.98c0.082-0.262,0.199-10.117,8.324-8.387c0.008-0.125-7.332,9.867-1.598,24.914l3.105,4.211
		c0,0,0.063-10.871,10.352-13.094c10.648-1.906,11.078-6.41,11.078-6.41c0.32,0.004-4.75,14.555-1.188,20.473
		c3.758,5.781,11.078,7.402,14.047,6.91c3.211-0.379,2.77,6.414,1.98,8.633c-1.02,2.238-1.387,8.879,2.77,2.465
		c4.461-6.227,0.988-13.074,4.152-3.207c0.309-0.02,1.188,4.934,2.785,0c-0.227-0.02,3.152-4.684,10.09-0.738
		c0.184-0.031,4.539,2.219,5.527-3.699c-0.094-0.082,2.57,5.426-4.945,11.594c0.352,0.324-2.574,3.207-1.98,7.402L221.715,505.796z"
		/>
	<path fill="#FCFFA4" d="M247.391,505.644c0,0,0.109-6.176-2.859-6.176c-3.141,0.176,1.98-2.223,4.75,0.492
		c2.609,2.684-0.199-2.961-1.188-5.426c-0.703-2.391-0.398-7.895,3.758-7.895c3.789,0.254,8.309,0.738,6.133-20.477
		c-0.094-0.27,4.156,4.934,7.52,4.934c3.637,0.047,6.527,7.895,5.934,9.867c-0.797,2.18,7.52-0.738,8.707-10.359
		c0.996-9.961,3.758-18.996,7.121-21.957c3.625-3.004-2.77,1.727-2.77,15.051c-0.355,13.445,4.949,19.734,11.082,16.773
		c-0.188-0.328,0.988-8.387,6.133-10.113c4.93-1.465,8.109-3.207,8.109-4.195c-0.18-1.02-7.121,21.215,8.125,21.215
		c-0.055,0.266,3.551,4.934-0.406,11.844c-4.148,7.172,2.57-2.961,5.75-0.988c-0.148-0.09-1.793,0.246-3.574,3.207
		c-1.824,2.703-1.188,4.688-1.188,4.688L247.391,505.644z"/>
	<path fill="#FCFFA4" d="M342.976,506.39c0,0-3.945-9.883,2.77-13.828c0.23,0.328-6.527-4.441-8.109,8.141
		c0.09-0.313-3.168,3.949-5.344-13.813c0.184,0,1.387,14.059-1.387,15.539c-2.93,1.711-4.547-2.465-1.582-5.672
		c0.152-0.117-5.145-2.715-2.57,5.918c-0.277-0.035,0-5.18-5.527,3.703L342.976,506.39z"/>
	<path fill="#FCFFA4" d="M224.52,505.894c0,0,4.504-12.09-3-12.582c0-0.168,9.285-7.402,8.098,6.41
		c0.152,0.172,2.969,1.48,5.738-10.359c-0.336,0.031,1.582,4.688-0.793,10.609c-2.543,5.922,3.563,4.438,4.168-2.469
		c0.039,0.141,2.352,1.727,1.176,6.168c0.363-0.027,6.527-2.469,4.551,3.453L224.52,505.894z"/>
	<path fill="#FD991F" d="M107.219,506.136c0,0-5.023-10.117-3.441-24.18c-0.309,0.18,6.727,10.359,13.652,5.18
		c7.039-5,8.508-18.746,6.922-37.25c0.117,0,4.75,12.336,7.914,14.555c3.453,1.945,16.82,13.074,16.422,30.59
		c-0.219-0.145,5.566,0.246,5.566-14.063c0.215-0.332,5.711,4.934,5.711,13.57c-0.246,0.348,2.77-9.867,11.5-8.141
		c0.254,0.238-4.773,17.762-1.211,19.488L107.219,506.136z"/>
	<path fill="#FCD732" d="M118.277,506.332c0,0-1.336-4.273,2.523-5.875c4.227-1.625,0.59-11.844-1.781-13.57
		c0.008-0.055,3.758-1.922,7.32,3.453c0.188,0.242-0.398-8.633,4.363-12.828c0.324,0.32,2.957-2.711-2.387-13.289
		c-0.289,0.109-2.57-5.457-2.176-8.141c-0.363,0,4.75,11.809,10.09,13.289c0.047,0.211,8.719,6.66,8.719,17.762
		c0.328-0.301,0.383,17.27,6.344,8.883c-0.016-0.184,0.371,5.18,2.941,0.738c2.293-4.672,2.176-8.633,2.176-8.633
		c0.117,0.211,2.77,7.152,0,11.348c0.117,0.113,3.465,0.617,4.949-3.699c1.168-4.438,8.703-6.414,8.703-6.414
		c-0.035-0.273-7.914,7.398-7.516,10.113c0.73,2.363,0.59,6.168,0,6.168L118.277,506.332z"/>
	<path fill="#FCFFA4" d="M126.07,506.945c0,0,4.457-7.285-0.75-10.246c0-0.254,1.883-1.973,3.625-0.984
		c0.125-0.02,1.105-4.738,3.164-6.906c2.211-2.113,2.375-8.863,2.375-8.863c-0.164,0,1.742,7.281,1.266,11.82
		c-0.68,4.68,1.898,7.895,3.641,7.895c0.18-0.215,1.266-7.695,3.18-7.301c0,0.336,0.461,6.117-1.438,9.473
		c-0.063-0.137,2.371-3.355,6.332,0.395c0.355,0.219-3.324,1.387-3.324,4.145L126.07,506.945z"/>
	<path fill="#FD991F" d="M459.824,506.453c0,0,5.023-10.117,3.441-24.18c0.309,0.18-6.727,10.363-13.652,5.18
		c-7.039-5-8.508-18.746-6.922-37.25c-0.117,0-4.75,12.336-7.914,14.555c-3.453,1.945-16.82,13.074-16.422,30.59
		c0.219-0.145-5.566,0.246-5.566-14.063c-0.215-0.332-5.711,4.938-5.711,13.57c0.246,0.348-2.77-9.867-11.5-8.141
		c-0.254,0.238,4.773,17.762,1.211,19.488L459.824,506.453z"/>
	<path fill="#FCD732" d="M448.765,506.664c0,0,1.336-4.273-2.523-5.879c-4.227-1.621-0.59-11.84,1.781-13.566
		c-0.008-0.055-3.758-1.926-7.32,3.453c-0.188,0.242,0.398-8.633-4.363-12.828c-0.324,0.32-2.957-2.715,2.387-13.289
		c0.289,0.109,2.57-5.461,2.176-8.141c0.363,0-4.75,11.809-10.09,13.289c-0.047,0.211-8.719,6.66-8.719,17.762
		c-0.328-0.301-0.383,17.27-6.344,8.883c0.016-0.184-0.371,5.18-2.941,0.738c-2.293-4.672-2.176-8.633-2.176-8.633
		c-0.117,0.211-2.773,7.152,0,11.348c-0.117,0.113-3.465,0.617-4.949-3.703c-1.168-4.434-8.703-6.414-8.703-6.414
		c0.035-0.27,7.914,7.402,7.516,10.117c-0.73,2.363-0.59,6.168,0,6.168L448.765,506.664z"/>
	<path fill="#FCFFA4" d="M440.972,507.273c0,0-4.457-7.281,0.75-10.242c0-0.258-1.883-1.973-3.625-0.984
		c-0.125-0.023-1.105-4.738-3.164-6.91c-2.211-2.113-2.375-8.863-2.375-8.863c0.164,0-1.742,7.285-1.266,11.824
		c0.68,4.676-1.898,7.895-3.641,7.895c-0.18-0.219-1.266-7.695-3.18-7.301c0,0.332-0.461,6.117,1.438,9.473
		c0.063-0.141-2.375-3.355-6.332,0.395c-0.355,0.215,3.324,1.383,3.324,4.145L440.972,507.273z"/>
</g>
</svg>
