<?xml version="1.0" encoding="utf-8"?>
<!-- Generator: Adobe Illustrator 16.0.0, SVG Export Plug-In . SVG Version: 6.00 Build 0)  -->
<!DOCTYPE svg PUBLIC "-//W3C//DTD SVG 1.1//EN" "http://www.w3.org/Graphics/SVG/1.1/DTD/svg11.dtd">
<svg preserveAspectRatio="none" version="1.1" id="图层_1" xmlns="http://www.w3.org/2000/svg" xmlns:xlink="http://www.w3.org/1999/xlink" x="0px" y="0px"
	 width="221.107px" height="553.003px" viewBox="172.856 7.09 221.107 553.003"
	 enable-background="new 172.856 7.09 221.107 553.003" xml:space="preserve">
<g id="surface101">
	
		<linearGradient id="SVGID_1_" gradientUnits="userSpaceOnUse" x1="212.0596" y1="201.3701" x2="212.0596" y2="181.4746" gradientTransform="matrix(0.75 0 0 -0.75 227.5165 593.4923)">
		<stop  offset="0" style="stop-color:#C4C4C4"/>
		<stop  offset="0.15" style="stop-color:#FFFFFF"/>
		<stop  offset="0.25" style="stop-color:#FFFFFF"/>
		<stop  offset="0.44" style="stop-color:#DFDFDF"/>
		<stop  offset="0.6" style="stop-color:#C7C7C7"/>
		<stop  offset="0.8" style="stop-color:#A8A8A8"/>
		<stop  offset="0.97" style="stop-color:#999999"/>
		<stop  offset="1" style="stop-color:#CBCBCB"/>
	</linearGradient>
	<path fill="url(#SVGID_1_)" d="M379.183,450.015c0-4.5,3.289-7.551,7.375-7.551c3.875,0.051,7.395,3.34,7.395,7.461
		c0.23,3.84-3.313,7.457-7.395,7.457c-4.375,0.133-7.398-3.34-7.398-7.457L379.183,450.015z"/>
	<path fill="#C0520B" d="M335.417,310.343h-104.25l-28.5,148.5l18.75,33l-2.25,68.25h129l-2.25-68.25l18-33.75L335.417,310.343z
		 M246.918,320.843h74.25l19.5,137.25l-12,33.75l1.5,45h-93l0.75-45l-12-33.75L246.918,320.843z"/>
	
		<linearGradient id="SVGID_2_" gradientUnits="userSpaceOnUse" x1="278.7256" y1="-86.6934" x2="278.7256" y2="201.3066" gradientTransform="matrix(0.75 0 0 -0.75 74.4012 471.8029)">
		<stop  offset="0" style="stop-color:#EDB35F"/>
		<stop  offset="0.18" style="stop-color:#E8870A"/>
		<stop  offset="0.3" style="stop-color:#ED6904"/>
		<stop  offset="0.6" style="stop-color:#DA4102"/>
		<stop  offset="0.8" style="stop-color:#C73B0D"/>
		<stop  offset="1" style="stop-color:#B22803"/>
	</linearGradient>
	<path fill="url(#SVGID_2_)" d="M247.07,320.824l-21,137.25l12,33.75l-1.5,45h93.75l-1.5-45l12-33.75l-20.25-137.25H247.07z"/>
	
		<linearGradient id="SVGID_3_" gradientUnits="userSpaceOnUse" x1="246.2246" y1="183.8066" x2="202.2256" y2="183.8066" gradientTransform="matrix(0.75 0 0 -0.75 115.3036 367.3927)">
		<stop  offset="0" style="stop-color:#292525"/>
		<stop  offset="0.03" style="stop-color:#868584"/>
		<stop  offset="0.08" style="stop-color:#383433"/>
		<stop  offset="0.64" style="stop-color:#373332"/>
		<stop  offset="0.94" style="stop-color:#363130"/>
		<stop  offset="1" style="stop-color:#252221"/>
	</linearGradient>
	<path fill="url(#SVGID_3_)" d="M266.973,216.414h33v26.25h-33V216.414z"/>
	
		<linearGradient id="SVGID_4_" gradientUnits="userSpaceOnUse" x1="255.4429" y1="195.3066" x2="202.2251" y2="195.3066" gradientTransform="matrix(0.75 0 0 -0.75 111.8387 358.7091)">
		<stop  offset="0" style="stop-color:#292525"/>
		<stop  offset="0.03" style="stop-color:#868584"/>
		<stop  offset="0.08" style="stop-color:#383433"/>
		<stop  offset="0.64" style="stop-color:#373332"/>
		<stop  offset="0.94" style="stop-color:#363130"/>
		<stop  offset="1" style="stop-color:#252221"/>
	</linearGradient>
	<path fill="url(#SVGID_4_)" d="M264.258,207.73h38.25c0.75,0,0.914,0.301,0.914,0.672l-0.164,7.578c0,0.75-0.133,0.695-0.5,0.695
		l-38.5,0.055c-0.75,0-0.75-0.352-0.75-0.723v-7.527c0-0.75,0.297-0.75,0.664-0.75H264.258z"/>
	
		<linearGradient id="SVGID_5_" gradientUnits="userSpaceOnUse" x1="263.2236" y1="190.8018" x2="202.2246" y2="190.8018" gradientTransform="matrix(0.75 0 0 -0.75 108.7885 343.4913)">
		<stop  offset="0" style="stop-color:#292525"/>
		<stop  offset="0.03" style="stop-color:#868584"/>
		<stop  offset="0.08" style="stop-color:#383433"/>
		<stop  offset="0.64" style="stop-color:#373332"/>
		<stop  offset="0.94" style="stop-color:#363130"/>
		<stop  offset="1" style="stop-color:#252221"/>
	</linearGradient>
	<path fill="url(#SVGID_5_)" d="M260.457,192.516h45.75l-6,15.75h-33L260.457,192.516z"/>
	
		<linearGradient id="SVGID_6_" gradientUnits="userSpaceOnUse" x1="227.2246" y1="99.3008" x2="202.2246" y2="99.3008" gradientTransform="matrix(0.75 0 0 -0.75 186.3427 227.8585)">
		<stop  offset="0" style="stop-color:#C4C4C4"/>
		<stop  offset="0.15" style="stop-color:#FFFFFF"/>
		<stop  offset="0.25" style="stop-color:#FFFFFF"/>
		<stop  offset="0.54" style="stop-color:#DFDFDF"/>
		<stop  offset="0.74" style="stop-color:#C7C7C7"/>
		<stop  offset="1" style="stop-color:#A8A8A8"/>
	</linearGradient>
	<path fill="url(#SVGID_6_)" d="M338.011,76.883h18.75v153h-18.75V76.883z"/>
	
		<linearGradient id="SVGID_7_" gradientUnits="userSpaceOnUse" x1="351.0376" y1="232.7173" x2="326.0347" y2="232.7173" gradientTransform="matrix(0.5303 0.5303 0.5303 -0.5303 28.5696 185.1754)">
		<stop  offset="0" style="stop-color:#C4C4C4"/>
		<stop  offset="0.15" style="stop-color:#FFFFFF"/>
		<stop  offset="0.25" style="stop-color:#FFFFFF"/>
		<stop  offset="0.54" style="stop-color:#DFDFDF"/>
		<stop  offset="0.74" style="stop-color:#C7C7C7"/>
		<stop  offset="1" style="stop-color:#A8A8A8"/>
	</linearGradient>
	<path fill="url(#SVGID_7_)" d="M356.714,229.363l-37.125,37.121l-13.258-13.258l31.82-31.82L356.714,229.363z"/>
	
		<linearGradient id="SVGID_8_" gradientUnits="userSpaceOnUse" x1="92.7163" y1="472.0386" x2="67.7168" y2="472.0386" gradientTransform="matrix(0.5303 -0.5303 0.5303 0.5303 28.6126 -152.6989)">
		<stop  offset="0" style="stop-color:#C4C4C4"/>
		<stop  offset="0.15" style="stop-color:#FFFFFF"/>
		<stop  offset="0.25" style="stop-color:#FFFFFF"/>
		<stop  offset="0.54" style="stop-color:#DFDFDF"/>
		<stop  offset="0.74" style="stop-color:#C7C7C7"/>
		<stop  offset="1" style="stop-color:#A8A8A8"/>
	</linearGradient>
	<path fill="url(#SVGID_8_)" d="M356.757,77.105L299.48,19.828l-13.258,13.258l51.973,51.973L356.757,77.105z"/>
	
		<linearGradient id="SVGID_9_" gradientUnits="userSpaceOnUse" x1="190.7041" y1="99.3066" x2="165.7041" y2="99.3066" gradientTransform="matrix(-0.75 0 0 -0.75 353.8175 227.8575)">
		<stop  offset="0" style="stop-color:#C4C4C4"/>
		<stop  offset="0.15" style="stop-color:#FFFFFF"/>
		<stop  offset="0.25" style="stop-color:#FFFFFF"/>
		<stop  offset="0.54" style="stop-color:#DFDFDF"/>
		<stop  offset="0.74" style="stop-color:#C7C7C7"/>
		<stop  offset="1" style="stop-color:#A8A8A8"/>
	</linearGradient>
	<path fill="url(#SVGID_9_)" d="M229.539,76.879h-18.75v153h18.75V76.879z"/>
	
		<linearGradient id="SVGID_10_" gradientUnits="userSpaceOnUse" x1="67.7144" y1="206.894" x2="92.7173" y2="206.894" gradientTransform="matrix(0.5303 -0.5303 -0.5303 -0.5303 303.3917 393.3737)">
		<stop  offset="0" style="stop-color:#C4C4C4"/>
		<stop  offset="0.15" style="stop-color:#FFFFFF"/>
		<stop  offset="0.25" style="stop-color:#FFFFFF"/>
		<stop  offset="0.54" style="stop-color:#DFDFDF"/>
		<stop  offset="0.74" style="stop-color:#C7C7C7"/>
		<stop  offset="1" style="stop-color:#A8A8A8"/>
	</linearGradient>
	<path fill="url(#SVGID_10_)" d="M211.02,229.18l18.031-8.484l32.352,32.348l-13.258,13.258L211.02,229.18z"/>
	
		<linearGradient id="SVGID_11_" gradientUnits="userSpaceOnUse" x1="326.0366" y1="446.2144" x2="351.0366" y2="446.2144" gradientTransform="matrix(0.5303 0.5303 -0.5303 0.5303 303.3487 -360.8981)">
		<stop  offset="0" style="stop-color:#C4C4C4"/>
		<stop  offset="0.15" style="stop-color:#FFFFFF"/>
		<stop  offset="0.25" style="stop-color:#FFFFFF"/>
		<stop  offset="0.54" style="stop-color:#DFDFDF"/>
		<stop  offset="0.74" style="stop-color:#C7C7C7"/>
		<stop  offset="1" style="stop-color:#A8A8A8"/>
	</linearGradient>
	<path fill="url(#SVGID_11_)" d="M210.977,77.289l18.563,7.953l51.973-51.973l-13.258-13.258L210.977,77.289z"/>
	
		<linearGradient id="SVGID_12_" gradientUnits="userSpaceOnUse" x1="212.728" y1="201.3057" x2="212.728" y2="197.3057" gradientTransform="matrix(0.75 0 0 -0.75 194.7469 658.0529)">
		<stop  offset="0" style="stop-color:#C4C4C4"/>
		<stop  offset="0.15" style="stop-color:#FFFFFF"/>
		<stop  offset="0.25" style="stop-color:#FFFFFF"/>
		<stop  offset="0.44" style="stop-color:#DFDFDF"/>
		<stop  offset="0.6" style="stop-color:#C7C7C7"/>
		<stop  offset="0.8" style="stop-color:#A8A8A8"/>
		<stop  offset="0.97" style="stop-color:#999999"/>
		<stop  offset="1" style="stop-color:#CBCBCB"/>
	</linearGradient>
	<path fill="url(#SVGID_12_)" d="M346.417,507.074h15.75v3h-15.75V507.074z"/>
	
		<linearGradient id="SVGID_13_" gradientUnits="userSpaceOnUse" x1="383.7944" y1="290.2192" x2="383.7944" y2="286.2202" gradientTransform="matrix(-0.317 0.6797 -0.6797 -0.317 691.6273 311.2653)">
		<stop  offset="0" style="stop-color:#C4C4C4"/>
		<stop  offset="0.15" style="stop-color:#FFFFFF"/>
		<stop  offset="0.25" style="stop-color:#FFFFFF"/>
		<stop  offset="0.44" style="stop-color:#DFDFDF"/>
		<stop  offset="0.6" style="stop-color:#C7C7C7"/>
		<stop  offset="0.8" style="stop-color:#A8A8A8"/>
		<stop  offset="0.97" style="stop-color:#999999"/>
		<stop  offset="1" style="stop-color:#CBCBCB"/>
	</linearGradient>
	<path fill="url(#SVGID_13_)" d="M386.019,451.605l-26.625,57.098l2.719,1.266l26.625-57.098L386.019,451.605z"/>
	
		<linearGradient id="SVGID_14_" gradientUnits="userSpaceOnUse" x1="219.7256" y1="201.3018" x2="219.7256" y2="184.3018" gradientTransform="matrix(0.75 0 0 -0.75 209.244 594.4484)">
		<stop  offset="0" style="stop-color:#B6B6B6"/>
		<stop  offset="0.15" style="stop-color:#EFEFEF"/>
		<stop  offset="0.25" style="stop-color:#F6F6F6"/>
		<stop  offset="0.44" style="stop-color:#D0D0D0"/>
		<stop  offset="0.6" style="stop-color:#B9B9B9"/>
		<stop  offset="0.8" style="stop-color:#9C9C9C"/>
		<stop  offset="0.97" style="stop-color:#8F8F8F"/>
		<stop  offset="1" style="stop-color:#BEBEBE"/>
	</linearGradient>
	<path fill="url(#SVGID_14_)" d="M360.914,443.472h26.25v12.75h-23.25L360.914,443.472z"/>
	
		<linearGradient id="SVGID_15_" gradientUnits="userSpaceOnUse" x1="176.7051" y1="201.3037" x2="176.7051" y2="197.3037" gradientTransform="matrix(-0.75 0 0 -0.75 345.4454 658.0519)">
		<stop  offset="0" style="stop-color:#C4C4C4"/>
		<stop  offset="0.15" style="stop-color:#FFFFFF"/>
		<stop  offset="0.25" style="stop-color:#FFFFFF"/>
		<stop  offset="0.44" style="stop-color:#DFDFDF"/>
		<stop  offset="0.6" style="stop-color:#C7C7C7"/>
		<stop  offset="0.8" style="stop-color:#A8A8A8"/>
		<stop  offset="0.97" style="stop-color:#999999"/>
		<stop  offset="1" style="stop-color:#CBCBCB"/>
	</linearGradient>
	<path fill="url(#SVGID_15_)" d="M221.168,507.074h-16.5v3h16.5V507.074z"/>
	
		<linearGradient id="SVGID_16_" gradientUnits="userSpaceOnUse" x1="399.229" y1="323.3208" x2="399.229" y2="319.3179" gradientTransform="matrix(0.317 0.6797 0.6797 -0.317 -152.1956 311.2653)">
		<stop  offset="0" style="stop-color:#C4C4C4"/>
		<stop  offset="0.15" style="stop-color:#FFFFFF"/>
		<stop  offset="0.25" style="stop-color:#FFFFFF"/>
		<stop  offset="0.44" style="stop-color:#DFDFDF"/>
		<stop  offset="0.6" style="stop-color:#C7C7C7"/>
		<stop  offset="0.8" style="stop-color:#A8A8A8"/>
		<stop  offset="0.97" style="stop-color:#999999"/>
		<stop  offset="1" style="stop-color:#CBCBCB"/>
	</linearGradient>
	<path fill="url(#SVGID_16_)" d="M180.805,451.605l26.625,57.098l-2.723,1.266l-26.625-57.098L180.805,451.605z"/>
	
		<linearGradient id="SVGID_17_" gradientUnits="userSpaceOnUse" x1="183.2021" y1="201.3018" x2="183.2021" y2="184.3018" gradientTransform="matrix(-0.75 0 0 -0.75 330.1866 594.4484)">
		<stop  offset="0" style="stop-color:#B6B6B6"/>
		<stop  offset="0.15" style="stop-color:#EFEFEF"/>
		<stop  offset="0.25" style="stop-color:#F6F6F6"/>
		<stop  offset="0.44" style="stop-color:#D0D0D0"/>
		<stop  offset="0.6" style="stop-color:#B9B9B9"/>
		<stop  offset="0.8" style="stop-color:#9C9C9C"/>
		<stop  offset="0.97" style="stop-color:#8F8F8F"/>
		<stop  offset="1" style="stop-color:#BEBEBE"/>
	</linearGradient>
	<path fill="url(#SVGID_17_)" d="M205.91,443.472h-26.25v12.75h24L205.91,443.472z"/>
	
		<linearGradient id="SVGID_18_" gradientUnits="userSpaceOnUse" x1="175.541" y1="201.3701" x2="175.541" y2="181.4746" gradientTransform="matrix(-0.75 0 0 -0.75 311.9142 593.4923)">
		<stop  offset="0" style="stop-color:#C4C4C4"/>
		<stop  offset="0.15" style="stop-color:#FFFFFF"/>
		<stop  offset="0.25" style="stop-color:#FFFFFF"/>
		<stop  offset="0.44" style="stop-color:#DFDFDF"/>
		<stop  offset="0.6" style="stop-color:#C7C7C7"/>
		<stop  offset="0.8" style="stop-color:#A8A8A8"/>
		<stop  offset="0.97" style="stop-color:#999999"/>
		<stop  offset="1" style="stop-color:#CBCBCB"/>
	</linearGradient>
	<path fill="url(#SVGID_18_)" d="M187.637,450.015c0-4.5-3.285-7.551-7.371-7.551c-3.879,0.051-7.398,3.34-7.398,7.461
		c-0.23,3.84,3.313,7.457,7.398,7.457c4.371,0.133,7.395-3.34,7.395-7.457L187.637,450.015z"/>
	
		<linearGradient id="SVGID_19_" gradientUnits="userSpaceOnUse" x1="263.2236" y1="198.8066" x2="202.2246" y2="198.8066" gradientTransform="matrix(0.75 0 0 -0.75 108.7885 339.7179)">
		<stop  offset="0" style="stop-color:#292525"/>
		<stop  offset="0.03" style="stop-color:#868584"/>
		<stop  offset="0.08" style="stop-color:#383433"/>
		<stop  offset="0.64" style="stop-color:#373332"/>
		<stop  offset="0.94" style="stop-color:#363130"/>
		<stop  offset="1" style="stop-color:#252221"/>
	</linearGradient>
	<path fill="url(#SVGID_19_)" d="M260.457,188.738h45.75v3.75h-45.75V188.738z"/>
	<path fill="#FE5C1C" d="M237.09,537.027c0,0,0.875-11.324,0.508-17.438c-0.508-8.813,2.27,8.285,3.625,1.23
		c1.117-7.043,0.254-20.566-3.898-30.203c-0.234-0.09,6.867,15.867,10.91,17.98c0.105-0.07,1.641-10.461-5.398-27.375
		c0.254,0.305,6.613,11.98,2.383,0.813c0.121,0.242,5.504,1.645,6.801,7.523c1.57,6.219,3.199,7.992,3.199,7.992
		c-0.129-0.273,0.422-5.523,1.879-5.172c0.242-0.352-0.184,13.398,4.773,19.629c-0.031,0.27,2.168,4.816,4.551-15.398
		c-0.082-0.082-0.32-8.227-2.723-15.398c-2.609-7.184,0.426-7.051,0-16.434c-0.359,0.25,0.254-2.02,2.402,0.805
		c0.238,0.195-0.961-9.641,4.91-15.984c-0.172-0.32-2.73,3.523-2.223,9.754c0.551,6.426-2.367,15.895-2.367,15.895
		c-0.082,0.281-2.383,14.43,6.199,16.074c-0.281-0.043,5.203-0.586,7.375-21.742c-0.156-0.051,0.895-11.871,0.895-14.223
		c-0.301-0.078,0,0.234-0.82,2.469c-0.23,1.953-1.641-2.234-0.582-5.879c0.352-3.418,3.813-6.891-2.609-5.715
		c-0.039,0.047,2.609-1.883,0.719-6.703c-2.258-4.5-11.707-17.738,1.609-26.094c-0.117-0.156,2.461-1.398-1.383,3.539
		c-3.984,5.305-1.742,9.637-1.742,9.637c0.008,0.168,1.742-3.293,3.973-3.762c-0.215,0.18-9.262,5.75,3.246,16.094
		c0.289-0.164-0.496-5.641,4.57-4.82c0.219,0.156-6.328,6.055-0.52,14.105c-0.012,0.301,2.727,0.664,0.352,10.891
		c-0.363-0.09-1.441,7.285,0.254,10.93l1.633-2.02c0,0,3.625,5.477,3.625,13.539c0.125,8.211,0.426,12.574,4.414,7.637
		c0.211-0.176,4.578-5.875,1.609-18.332c0.102,0.156-2.461-7.523-1.527-14.574c0.129-0.27-0.426-3.762-2.289-5.996
		c0.168-0.273,5.852,4.465,4.832,15.516c-0.164-0.039,2.207-2.703,2.723-0.941c0.113,0.152-1.52,2.82,0,7.406
		c1.613,4.746-1.789,15.629-2.383,19.746c-0.504,3.75-1.273,15.512,3.832,20.449c0.164-0.199,4.566-5.875,4.992-20.332
		c-0.328-0.117,2.371,0.234,1.887,5.406c0.035-0.273,2.52-2.703,3.707-8.699c0.828-5.824,6.113-7.285,6.113-7.285
		c-0.035-0.039-3.398,7.285,0,4.582c-0.035-0.121,1.691-1.293,3.477-5.523c0.238,0.152-8.57,16.926-5.941,28.09
		c0.18-0.188,0.34,3.762,10.539-18.215c0.141,0.027-6.469,14.453-3.5,30.793c-0.109-0.016,1.207,5.508,2.387,7.262
		c2.004,3.223,2.223,8.66,2.223,8.66L237.09,537.027z"/>
	<path fill="#FD991F" d="M237.09,537.179c0-5.25,8.688-26.922,8.688-26.922c0.313-0.078-1.016,15.383,6.543,12.211
		c-0.23-0.289,5.43-3.047,0-10.574c-0.23-0.215-1.793-2.105-3.742-2.105c-0.238-0.359,3.051-5.395,9.766,0
		c-0.254-0.359,4.738,4.691,5.168,5.512c-0.172,0.129,1.605-19.293,11.289-21.84c-0.211,0.219-4.086,7.039-3.492,9.391
		c0.281,2.078,5.172,0,5.512-5.402c0.02-5.27-0.508-8.578-0.508-8.578c-0.223,0.309,1.527,2,1.527,2.703
		c-0.25,0.605,3.223,2.703,4-20.66c0.25,0.266,1.625,3.156,1.625,5.508c0.125,0.008,1.425-13.16,0-19.492
		c0.125,0,7.351,23.016-0.758,39.578c0.133,0.172,3.359-4.113,4.976-1.879c-0.344-0.199-4.839,4.816-0.77,17.621
		c-0.324,0.18,1.527-11.277,2.543-12.453c0.883-0.867,1.02,4.934,5.145,1.82c0.238,0.313,1.301-2.289-3.445-8.164
		c-0.066,0.227,8.309,2.352,11.375,21.613c-0.191,0.363,6.605-9.75,14.75-5.754c0.059,0.117-7.805,3.992-4.16,11.863
		c-0.281,0.254,3.902,4.816,6.445-3.055c0.023,0.309,0.777-3.875,0.777-7.164c-0.004-0.027,5.305,8.664,5,15.457
		c0.246,0.266,5.809,5.945,4.965,10.828L237.09,537.179z"/>
	<path fill="#FCD732" d="M241.598,537.371c0,0,1.656-1.223-1.105-5.055c-1.895-2.445,4.02-12.773,4.02-12.773
		c0.086-0.172,2.25,5.852,5.746,5.852c3.34-0.023,4.609,1.836,4.609,1.836c0.23-0.359,0.793-4.188,1.852-5.359
		c1.379-1,0,6.605,3.715,6.898c-0.086,0.352,0.313-0.441-1.172-2.938c-1.164-2.711,1.172-5.285,1.172-5.285
		c-0.086,0.324,9.848,1.617,7.09-14.82c0.324,0.145,4.133,3.074,6.145,2.781c1.68-0.387,4.742,3.816,4.742,7.488
		c-0.063-0.375,4.793-1.469,3.309-11.895c-0.371,0.27,0.105-6.02,4.457-4.98c-0.328,0-3.925,5.863-0.855,14.82l2.027,2.43
		c0,0-0.398-6.395,5.176-7.715c5.324-1.285,5.934-3.82,5.934-3.82c0.141,0.285-2.543,8.664-0.637,12.188
		c2.277,3.848,5.934,4.406,7.523,4.113c1.504-0.266,1.48,3.816,1.059,5.137c-0.305,1.348-0.742,5.285,1.48,1.469
		c1.965-3.871,0.531-7.781,2.227-1.91c-0.262,0.289,0.637,2.938,1.488,0c-0.25,0.289,1.477-3.395,7.563-0.379
		c-0.313-0.082,2.43,1.32,2.957-2.203c-0.27-0.129,4.188,4.836,4.801,9.16c0.18-0.289,4.086-1.34-0.203,4.324L241.598,537.371z"/>
	<path fill="#FCFFA4" d="M264.813,533.824c0,0-1.367-4.555-2.953-4.555c-1.547,0.055,1.059-1.32,2.539,0.297
		c1.164,1.258-0.105-1.766-0.633-3.23c-0.453-1.512-0.211-4.699,2.012-4.699c2.035,0.188,4.449,0.438,3.285-12.188
		c0.25-0.375,2.223,2.938,4.023,2.938c1.477-0.313,3.496,4.695,3.18,5.871c-0.203,1.316,4.023-0.473,4.66-6.168
		c0.387-6.016,2.012-11.305,3.812-13.066c1.824-1.949-1.484,1.027-1.484,8.957c0.309,7.844,2.648,11.746,5.933,9.984
		c0.375,0.109,0.531-4.992,3.285-6.02c3.09-1.371,4.344-1.91,4.344-2.496c0.246-0.375-3.816,12.625,4.348,12.625
		c-0.352-0.25,1.902,2.938-0.219,7.051c-2.383,3.949,1.379-1.762,3.102-0.59c-0.234,0.039-0.98,0.148-1.934,1.91
		c-1.301,1.879-1.027,5.438-1.027,5.438l-0.273,1.691h-63.75L264.813,533.824z"/>
	<path fill="#FCFFA4" d="M325.105,536.968c0,0-6.449-6.598-2.441-9.219c0.191,0.219-9.004-1.961-9.945,6.387
		c-0.363-0.168-1.891,2.617-3.191-9.168c-0.172,0,0.828,9.332-0.824,10.313c-1.598,0.938-2.719-1.637-0.945-3.762
		c0.098,0.199-3.07-1.801-1.535,3.926c0.133,0.023-1.832-3.809-5.117,2.094L325.105,536.968z"/>
	<path fill="#FCFFA4" d="M239.555,537.425c0,0,8.398-12.211,3.332-12.582c-0.332-0.168,8.332-4.055,7.531,6.305
		c-0.363,0.277,4.363,0.887,6.23-7.992c0.156,0.02,1.07,3.512-0.531,7.953c-1.563,4.066,2.402,3.332,2.809-1.852
		c0.129-0.082,1.586,1.297,0.793,4.629c0.086-0.211,3.211-2.094,4.895,2.152L239.555,537.425z"/>
	
		<linearGradient id="SVGID_20_" gradientUnits="userSpaceOnUse" x1="271.7231" y1="201.3037" x2="271.7231" y2="111.0811" gradientTransform="matrix(0.75 0 0 -0.75 79.8246 393.67)">
		<stop  offset="0" style="stop-color:#292525"/>
		<stop  offset="0.03" style="stop-color:#524F4E"/>
		<stop  offset="0.08" style="stop-color:#383433"/>
		<stop  offset="0.64" style="stop-color:#373332"/>
		<stop  offset="0.94" style="stop-color:#363130"/>
		<stop  offset="1" style="stop-color:#252221"/>
	</linearGradient>
	<path fill="url(#SVGID_20_)" d="M335.742,310.191h-104.25c0,0,7.902-53.242,35.48-67.5c-0.23,0,32.984,0,32.984,0
		c27.535,12.75,35.477,67.667,35.477,67.667L335.742,310.191z"/>
	
		<linearGradient id="SVGID_21_" gradientUnits="userSpaceOnUse" x1="246.2246" y1="175.3037" x2="202.2256" y2="175.3037" gradientTransform="matrix(0.75 0 0 -0.75 115.3036 158.0665)">
		<stop  offset="0" style="stop-color:#B5B5B5"/>
		<stop  offset="0.03" style="stop-color:#FFFFFF"/>
		<stop  offset="0.08" style="stop-color:#EBEBEB"/>
		<stop  offset="0.64" style="stop-color:#E7E7E7"/>
		<stop  offset="0.94" style="stop-color:#E2E2E2"/>
		<stop  offset="1" style="stop-color:#A8A8A8"/>
	</linearGradient>
	<path fill="url(#SVGID_21_)" d="M266.973,7.09h33v39h-33V7.09z"/>
</g>
</svg>
