<?xml version="1.0" encoding="utf-8"?>
<!-- Generator: Adobe Illustrator 16.0.0, SVG Export Plug-In . SVG Version: 6.00 Build 0)  -->
<!DOCTYPE svg PUBLIC "-//W3C//DTD SVG 1.1//EN" "http://www.w3.org/Graphics/SVG/1.1/DTD/svg11.dtd">
<svg preserveAspectRatio="none" version="1.1" id="图层_1" xmlns="http://www.w3.org/2000/svg" xmlns:xlink="http://www.w3.org/1999/xlink" x="0px" y="0px"
	 width="564.585px" height="363.917px" viewBox="1.145 101.441 564.585 363.917"
	 enable-background="new 1.145 101.441 564.585 363.917" xml:space="preserve">
<g id="surface51">
	
		<linearGradient id="SVGID_1_" gradientUnits="userSpaceOnUse" x1="339.2251" y1="157.3066" x2="202.2251" y2="157.3066" gradientTransform="matrix(0.75 0 0 -0.75 308.3143 543.3966)">
		<stop  offset="0" style="stop-color:#618CBD"/>
		<stop  offset="0.03" style="stop-color:#97B2D6"/>
		<stop  offset="0.08" style="stop-color:#5F8ABA"/>
		<stop  offset="0.64" style="stop-color:#5E87B7"/>
		<stop  offset="0.95" style="stop-color:#5B84B3"/>
		<stop  offset="1" style="stop-color:#426184"/>
	</linearGradient>
	<path fill="url(#SVGID_1_)" d="M459.984,458.417v-6.75h45.75v6.75h57v-35.25l-30.75-30.75h-72V458.417z"/>
	
		<linearGradient id="SVGID_2_" gradientUnits="userSpaceOnUse" x1="325.2251" y1="143.8047" x2="202.2251" y2="143.8047" gradientTransform="matrix(0.75 0 0 -0.75 308.3143 457.6681)">
		<stop  offset="0" style="stop-color:#618CBD"/>
		<stop  offset="0.03" style="stop-color:#97B2D6"/>
		<stop  offset="0.08" style="stop-color:#5F8ABA"/>
		<stop  offset="0.64" style="stop-color:#5E87B7"/>
		<stop  offset="0.95" style="stop-color:#5B84B3"/>
		<stop  offset="1" style="stop-color:#426184"/>
	</linearGradient>
	<path fill="url(#SVGID_2_)" d="M459.984,392.941h72l20.25-86.25h-92.25V392.941z"/>
	
		<linearGradient id="SVGID_3_" gradientUnits="userSpaceOnUse" x1="337.2271" y1="196.7417" x2="202.2266" y2="196.7417" gradientTransform="matrix(0.75 0 0 -0.75 303.1884 450.9943)">
		<stop  offset="0" style="stop-color:#618CBD"/>
		<stop  offset="0.03" style="stop-color:#97B2D6"/>
		<stop  offset="0.08" style="stop-color:#5F8ABA"/>
		<stop  offset="0.64" style="stop-color:#5E87B7"/>
		<stop  offset="0.95" style="stop-color:#5B84B3"/>
		<stop  offset="1" style="stop-color:#426184"/>
	</linearGradient>
	<path fill="url(#SVGID_3_)" d="M456.359,300.015h98.25c0.75,0,1.195,0.613,1.195,1.371l0.305,3.879c0,0.75-0.941,1.598-1.699,1.598
		l-98.051-0.098c-0.75,0-1.5-0.516-1.5-1.273v-3.977c0-0.75,0.59-1.5,1.348-1.5H456.359z"/>
	
		<linearGradient id="SVGID_4_" gradientUnits="userSpaceOnUse" x1="253.2246" y1="201.3057" x2="253.2246" y2="165.9414" gradientTransform="matrix(0.75 0 0 -0.75 319.495 569.92)">
		<stop  offset="0" style="stop-color:#618CBD"/>
		<stop  offset="0.03" style="stop-color:#DFE5EF"/>
		<stop  offset="0.08" style="stop-color:#5F8ABA"/>
		<stop  offset="0.64" style="stop-color:#5E87B7"/>
		<stop  offset="0.95" style="stop-color:#5B84B3"/>
		<stop  offset="1" style="stop-color:#426184"/>
	</linearGradient>
	<path fill="url(#SVGID_4_)" d="M472.664,418.941h73.5c0.75,0,1.383,0.613,1.383,1.371l0.117,24.129c0,0.75-0.734,1.023-1.492,1.023
		l-73.508-0.273c-0.75,0-1.5-0.34-1.5-1.094v-23.656c0-0.75,0.613-1.5,1.375-1.5H472.664z"/>
	
		<linearGradient id="SVGID_5_" gradientUnits="userSpaceOnUse" x1="209.6606" y1="195.561" x2="201.5974" y2="200.2164" gradientTransform="matrix(0.75 0 0 -0.75 387.4979 588.7081)">
		<stop  offset="0" style="stop-color:#446387"/>
		<stop  offset="0.15" style="stop-color:#7192BC"/>
		<stop  offset="0.25" style="stop-color:#BDC9DB"/>
		<stop  offset="0.52" style="stop-color:#5175A0"/>
		<stop  offset="0.69" style="stop-color:#47688E"/>
		<stop  offset="0.8" style="stop-color:#436286"/>
		<stop  offset="0.92" style="stop-color:#3F5C7E"/>
		<stop  offset="1" style="stop-color:#496A91"/>
	</linearGradient>
	<path fill="url(#SVGID_5_)" stroke="#3A6890" stroke-width="0.25" stroke-linejoin="bevel" stroke-miterlimit="10" d="
		M539.167,439.98c0-0.75,1.141-2.25,2.551-2.25c1.199,0,2.555,1.141,2.555,2.547c0.145,1.203-1.145,2.543-2.555,2.543
		c-1.051,0.16-2.551-1.137-2.551-2.543V439.98z"/>
	
		<linearGradient id="SVGID_6_" gradientUnits="userSpaceOnUse" x1="209.6616" y1="195.5605" x2="201.5975" y2="200.2164" gradientTransform="matrix(0.75 0 0 -0.75 365.9071 588.7081)">
		<stop  offset="0" style="stop-color:#446387"/>
		<stop  offset="0.15" style="stop-color:#7192BC"/>
		<stop  offset="0.25" style="stop-color:#BDC9DB"/>
		<stop  offset="0.52" style="stop-color:#5175A0"/>
		<stop  offset="0.69" style="stop-color:#47688E"/>
		<stop  offset="0.8" style="stop-color:#436286"/>
		<stop  offset="0.92" style="stop-color:#3F5C7E"/>
		<stop  offset="1" style="stop-color:#496A91"/>
	</linearGradient>
	<path fill="url(#SVGID_6_)" stroke="#3A6890" stroke-width="0.25" stroke-linejoin="bevel" stroke-miterlimit="10" d="
		M517.574,439.98c0-0.75,1.145-2.25,2.555-2.25c1.195,0,2.555,1.141,2.555,2.547c0.141,1.203-1.145,2.543-2.555,2.543
		c-1.055,0.16-2.555-1.137-2.555-2.543V439.98z"/>
	
		<linearGradient id="SVGID_7_" gradientUnits="userSpaceOnUse" x1="209.6611" y1="195.5605" x2="201.5973" y2="200.2162" gradientTransform="matrix(0.75 0 0 -0.75 344.3153 588.7081)">
		<stop  offset="0" style="stop-color:#446387"/>
		<stop  offset="0.15" style="stop-color:#7192BC"/>
		<stop  offset="0.25" style="stop-color:#BDC9DB"/>
		<stop  offset="0.52" style="stop-color:#5175A0"/>
		<stop  offset="0.69" style="stop-color:#47688E"/>
		<stop  offset="0.8" style="stop-color:#436286"/>
		<stop  offset="0.92" style="stop-color:#3F5C7E"/>
		<stop  offset="1" style="stop-color:#496A91"/>
	</linearGradient>
	<path fill="url(#SVGID_7_)" stroke="#3A6890" stroke-width="0.25" stroke-linejoin="bevel" stroke-miterlimit="10" d="
		M495.984,439.98c0-0.75,1.145-2.25,2.555-2.25c1.195,0,2.551,1.141,2.551,2.547c0.145,1.203-1.141,2.543-2.551,2.543
		c-1.055,0.16-2.555-1.137-2.555-2.543V439.98z"/>
	
		<linearGradient id="SVGID_8_" gradientUnits="userSpaceOnUse" x1="209.6606" y1="195.561" x2="201.5974" y2="200.2164" gradientTransform="matrix(0.75 0 0 -0.75 322.7245 588.7081)">
		<stop  offset="0" style="stop-color:#446387"/>
		<stop  offset="0.15" style="stop-color:#7192BC"/>
		<stop  offset="0.25" style="stop-color:#BDC9DB"/>
		<stop  offset="0.52" style="stop-color:#5175A0"/>
		<stop  offset="0.69" style="stop-color:#47688E"/>
		<stop  offset="0.8" style="stop-color:#436286"/>
		<stop  offset="0.92" style="stop-color:#3F5C7E"/>
		<stop  offset="1" style="stop-color:#496A91"/>
	</linearGradient>
	<path fill="url(#SVGID_8_)" stroke="#3A6890" stroke-width="0.25" stroke-linejoin="bevel" stroke-miterlimit="10" d="
		M474.394,439.98c0-0.75,1.141-2.25,2.551-2.25c1.199,0,2.555,1.141,2.555,2.547c0.145,1.203-1.145,2.543-2.555,2.543
		c-1.051,0.16-2.551-1.137-2.551-2.543V439.98z"/>
	
		<linearGradient id="SVGID_9_" gradientUnits="userSpaceOnUse" x1="209.6597" y1="195.561" x2="201.597" y2="200.216" gradientTransform="matrix(0.75 0 0 -0.75 387.4979 573.7628)">
		<stop  offset="0" style="stop-color:#446387"/>
		<stop  offset="0.15" style="stop-color:#7192BC"/>
		<stop  offset="0.25" style="stop-color:#BDC9DB"/>
		<stop  offset="0.52" style="stop-color:#5175A0"/>
		<stop  offset="0.69" style="stop-color:#47688E"/>
		<stop  offset="0.8" style="stop-color:#436286"/>
		<stop  offset="0.92" style="stop-color:#3F5C7E"/>
		<stop  offset="1" style="stop-color:#496A91"/>
	</linearGradient>
	<path fill="url(#SVGID_9_)" stroke="#3A6890" stroke-width="0.25" stroke-linejoin="bevel" stroke-miterlimit="10" d="
		M539.167,425.035c0-0.75,1.141-2.25,2.551-2.25c1.199,0,2.555,1.141,2.555,2.547c0.145,1.203-1.145,2.543-2.555,2.543
		c-1.051,0.16-2.551-1.137-2.551-2.543V425.035z"/>
	
		<linearGradient id="SVGID_10_" gradientUnits="userSpaceOnUse" x1="209.6606" y1="195.5596" x2="201.5965" y2="200.2154" gradientTransform="matrix(0.75 0 0 -0.75 365.9071 573.7628)">
		<stop  offset="0" style="stop-color:#446387"/>
		<stop  offset="0.15" style="stop-color:#7192BC"/>
		<stop  offset="0.25" style="stop-color:#BDC9DB"/>
		<stop  offset="0.52" style="stop-color:#5175A0"/>
		<stop  offset="0.69" style="stop-color:#47688E"/>
		<stop  offset="0.8" style="stop-color:#436286"/>
		<stop  offset="0.92" style="stop-color:#3F5C7E"/>
		<stop  offset="1" style="stop-color:#496A91"/>
	</linearGradient>
	<path fill="url(#SVGID_10_)" stroke="#3A6890" stroke-width="0.25" stroke-linejoin="bevel" stroke-miterlimit="10" d="
		M517.574,425.035c0-0.75,1.145-2.25,2.555-2.25c1.195,0,2.555,1.141,2.555,2.547c0.141,1.203-1.145,2.543-2.555,2.543
		c-1.055,0.16-2.555-1.137-2.555-2.543V425.035z"/>
	
		<linearGradient id="SVGID_11_" gradientUnits="userSpaceOnUse" x1="209.6616" y1="195.5601" x2="201.5972" y2="200.2161" gradientTransform="matrix(0.75 0 0 -0.75 344.3153 573.7628)">
		<stop  offset="0" style="stop-color:#446387"/>
		<stop  offset="0.15" style="stop-color:#7192BC"/>
		<stop  offset="0.25" style="stop-color:#BDC9DB"/>
		<stop  offset="0.52" style="stop-color:#5175A0"/>
		<stop  offset="0.69" style="stop-color:#47688E"/>
		<stop  offset="0.8" style="stop-color:#436286"/>
		<stop  offset="0.92" style="stop-color:#3F5C7E"/>
		<stop  offset="1" style="stop-color:#496A91"/>
	</linearGradient>
	<path fill="url(#SVGID_11_)" stroke="#3A6890" stroke-width="0.25" stroke-linejoin="bevel" stroke-miterlimit="10" d="
		M495.984,425.035c0-0.75,1.145-2.25,2.555-2.25c1.195,0,2.551,1.141,2.551,2.547c0.145,1.203-1.141,2.543-2.551,2.543
		c-1.055,0.16-2.555-1.137-2.555-2.543V425.035z"/>
	
		<linearGradient id="SVGID_12_" gradientUnits="userSpaceOnUse" x1="209.6611" y1="195.5605" x2="201.597" y2="200.2164" gradientTransform="matrix(0.75 0 0 -0.75 322.7245 573.7628)">
		<stop  offset="0" style="stop-color:#446387"/>
		<stop  offset="0.15" style="stop-color:#7192BC"/>
		<stop  offset="0.25" style="stop-color:#BDC9DB"/>
		<stop  offset="0.52" style="stop-color:#5175A0"/>
		<stop  offset="0.69" style="stop-color:#47688E"/>
		<stop  offset="0.8" style="stop-color:#436286"/>
		<stop  offset="0.92" style="stop-color:#3F5C7E"/>
		<stop  offset="1" style="stop-color:#496A91"/>
	</linearGradient>
	<path fill="url(#SVGID_12_)" stroke="#3A6890" stroke-width="0.25" stroke-linejoin="bevel" stroke-miterlimit="10" d="
		M474.394,425.035c0-0.75,1.141-2.25,2.551-2.25c1.199,0,2.555,1.141,2.555,2.547c0.145,1.203-1.145,2.543-2.555,2.543
		c-1.051,0.16-2.551-1.137-2.551-2.543V425.035z"/>
	
		<linearGradient id="SVGID_13_" gradientUnits="userSpaceOnUse" x1="250.2256" y1="201.3047" x2="250.2256" y2="198.3037" gradientTransform="matrix(0.75 0 0 -0.75 308.3143 542.7697)">
		<stop  offset="0" style="stop-color:#3E6B91"/>
		<stop  offset="0.15" style="stop-color:#6C9CC8"/>
		<stop  offset="0.25" style="stop-color:#BCCDE1"/>
		<stop  offset="0.52" style="stop-color:#4B7FAB"/>
		<stop  offset="0.69" style="stop-color:#427198"/>
		<stop  offset="0.8" style="stop-color:#3E6A8F"/>
		<stop  offset="0.92" style="stop-color:#3A6487"/>
		<stop  offset="1" style="stop-color:#44739C"/>
	</linearGradient>
	<path fill="url(#SVGID_13_)" d="M459.984,391.792h72v2.25h-72V391.792z"/>
	<path fill="#4E729A" d="M459.98,306.574h91.5v2.25h-91.5V306.574z"/>
	<path fill="#4E729A" d="M506.109,456.3h57v2.25h-57V456.3z"/>
	
		<linearGradient id="SVGID_14_" gradientUnits="userSpaceOnUse" x1="285.5444" y1="197.3086" x2="202.2212" y2="197.3086" gradientTransform="matrix(0.75 0 0 -0.75 351.5712 609.2765)">
		<stop  offset="0" style="stop-color:#618CBD"/>
		<stop  offset="0.03" style="stop-color:#97B2D6"/>
		<stop  offset="0.08" style="stop-color:#5F8ABA"/>
		<stop  offset="0.64" style="stop-color:#5E87B7"/>
		<stop  offset="0.95" style="stop-color:#5B84B3"/>
		<stop  offset="1" style="stop-color:#426184"/>
	</linearGradient>
	<path fill="url(#SVGID_14_)" d="M504.738,458.296h59.25c0.75,0,1.742,0.613,1.742,1.371l-0.242,3.129
		c0,0.75-0.422,1.438-1.18,1.438l-59.57,0.063c-0.75,0-1.5-0.68-1.5-1.434v-3.066c0-0.75,0.582-1.5,1.34-1.5H504.738z"/>
	
		<linearGradient id="SVGID_15_" gradientUnits="userSpaceOnUse" x1="237.2261" y1="201.3047" x2="237.2261" y2="193.3037" gradientTransform="matrix(0.75 0 0 -0.75 272.2635 476.1495)">
		<stop  offset="0" style="stop-color:#403E3E"/>
		<stop  offset="0.15" style="stop-color:#6D6C6C"/>
		<stop  offset="0.25" style="stop-color:#BCBCBC"/>
		<stop  offset="0.52" style="stop-color:#4D4B4B"/>
		<stop  offset="0.69" style="stop-color:#434242"/>
		<stop  offset="0.8" style="stop-color:#3F3E3E"/>
		<stop  offset="0.92" style="stop-color:#3B3A3A"/>
		<stop  offset="1" style="stop-color:#454444"/>
	</linearGradient>
	<path fill="url(#SVGID_15_)" d="M423.933,325.171h52.5v6h-52.5V325.171z"/>
	
		<linearGradient id="SVGID_16_" gradientUnits="userSpaceOnUse" x1="292.2231" y1="155.3037" x2="202.2236" y2="155.3037" gradientTransform="matrix(0.75 0 0 -0.75 245.6786 301.2579)">
		<stop  offset="0" style="stop-color:#618CBD"/>
		<stop  offset="0.03" style="stop-color:#97B2D6"/>
		<stop  offset="0.08" style="stop-color:#5F8ABA"/>
		<stop  offset="0.64" style="stop-color:#5E87B7"/>
		<stop  offset="0.95" style="stop-color:#5B84B3"/>
		<stop  offset="1" style="stop-color:#426184"/>
	</linearGradient>
	<path fill="url(#SVGID_16_)" d="M397.347,150.281h67.5v69h-67.5V150.281z"/>
	<path fill="#33618A" d="M397.347,176.832h60.75v42.75h-60.75V176.832z"/>
	<path fill="#7CA0C7" d="M397.351,178.441h59.25v22.5h-59.25V178.441z"/>
	<path fill="#618CBD" d="M397.355,199.363h59.25v61.5h-59.25V199.363z"/>
	
		<linearGradient id="SVGID_17_" gradientUnits="userSpaceOnUse" x1="292.2231" y1="199.3037" x2="202.2236" y2="199.3037" gradientTransform="matrix(0.75 0 0 -0.75 245.6786 298.5743)">
		<stop  offset="0" style="stop-color:#587BA2"/>
		<stop  offset="0.03" style="stop-color:#93A7C1"/>
		<stop  offset="0.08" style="stop-color:#57799F"/>
		<stop  offset="0.64" style="stop-color:#55779C"/>
		<stop  offset="0.95" style="stop-color:#537499"/>
		<stop  offset="1" style="stop-color:#3C5570"/>
	</linearGradient>
	<path fill="url(#SVGID_17_)" d="M397.347,147.598h67.5v3h-67.5V147.598z"/>
	
		<linearGradient id="SVGID_18_" gradientUnits="userSpaceOnUse" x1="205.7266" y1="201.3027" x2="205.7266" y2="193.3027" gradientTransform="matrix(0.75 0 0 -0.75 247.4042 403.9376)">
		<stop  offset="0" style="stop-color:#3C72A2"/>
		<stop  offset="0.09" style="stop-color:#869FBE"/>
		<stop  offset="0.16" style="stop-color:#396D9A"/>
		<stop  offset="0.79" style="stop-color:#386B98"/>
		<stop  offset="1" style="stop-color:#4F7EAB"/>
	</linearGradient>
	<path fill="url(#SVGID_18_)" d="M404.324,252.961h-5.25v6h5.25V252.961z"/>
	
		<linearGradient id="SVGID_19_" gradientUnits="userSpaceOnUse" x1="205.7266" y1="201.3027" x2="205.7266" y2="193.3027" gradientTransform="matrix(0.75 0 0 -0.75 247.4042 352.0704)">
		<stop  offset="0" style="stop-color:#3C72A2"/>
		<stop  offset="0.09" style="stop-color:#869FBE"/>
		<stop  offset="0.16" style="stop-color:#396D9A"/>
		<stop  offset="0.79" style="stop-color:#386B98"/>
		<stop  offset="1" style="stop-color:#4F7EAB"/>
	</linearGradient>
	<path fill="url(#SVGID_19_)" d="M404.324,201.094h-5.25v6h5.25V201.094z"/>
	
		<linearGradient id="SVGID_20_" gradientUnits="userSpaceOnUse" x1="205.7266" y1="201.3057" x2="205.7266" y2="193.3057" gradientTransform="matrix(0.75 0 0 -0.75 247.4042 378.4318)">
		<stop  offset="0" style="stop-color:#3C72A2"/>
		<stop  offset="0.09" style="stop-color:#869FBE"/>
		<stop  offset="0.16" style="stop-color:#396D9A"/>
		<stop  offset="0.79" style="stop-color:#386B98"/>
		<stop  offset="1" style="stop-color:#4F7EAB"/>
	</linearGradient>
	<path fill="url(#SVGID_20_)" d="M404.324,227.453h-5.25v6h5.25V227.453z"/>
	
		<linearGradient id="SVGID_21_" gradientUnits="userSpaceOnUse" x1="205.7246" y1="201.3027" x2="205.7246" y2="193.3027" gradientTransform="matrix(0.75 0 0 -0.75 296.9481 352.0704)">
		<stop  offset="0" style="stop-color:#3C72A2"/>
		<stop  offset="0.09" style="stop-color:#869FBE"/>
		<stop  offset="0.16" style="stop-color:#396D9A"/>
		<stop  offset="0.79" style="stop-color:#386B98"/>
		<stop  offset="1" style="stop-color:#4F7EAB"/>
	</linearGradient>
	<path fill="url(#SVGID_21_)" d="M453.867,201.094h-5.25v6h5.25V201.094z"/>
	
		<linearGradient id="SVGID_22_" gradientUnits="userSpaceOnUse" x1="205.7246" y1="201.3057" x2="205.7246" y2="193.3057" gradientTransform="matrix(0.75 0 0 -0.75 296.9481 378.4318)">
		<stop  offset="0" style="stop-color:#3C72A2"/>
		<stop  offset="0.09" style="stop-color:#869FBE"/>
		<stop  offset="0.16" style="stop-color:#396D9A"/>
		<stop  offset="0.79" style="stop-color:#386B98"/>
		<stop  offset="1" style="stop-color:#4F7EAB"/>
	</linearGradient>
	<path fill="url(#SVGID_22_)" d="M453.867,227.453h-5.25v6h5.25V227.453z"/>
	
		<linearGradient id="SVGID_23_" gradientUnits="userSpaceOnUse" x1="205.7246" y1="201.3027" x2="205.7246" y2="193.3027" gradientTransform="matrix(0.75 0 0 -0.75 296.9481 403.9376)">
		<stop  offset="0" style="stop-color:#3C72A2"/>
		<stop  offset="0.09" style="stop-color:#869FBE"/>
		<stop  offset="0.16" style="stop-color:#396D9A"/>
		<stop  offset="0.79" style="stop-color:#386B98"/>
		<stop  offset="1" style="stop-color:#4F7EAB"/>
	</linearGradient>
	<path fill="url(#SVGID_23_)" d="M453.867,252.961h-5.25v6h5.25V252.961z"/>
	<path fill="#5792C4" d="M1.145,189.645h396v246.75h-396V189.645z"/>
	<path fill="#3F77A8" d="M10.871,194.305h377.25v235.5H10.871V194.305z"/>
	
		<linearGradient id="SVGID_24_" gradientUnits="userSpaceOnUse" x1="260.2246" y1="201.3057" x2="260.2246" y2="55.3057" gradientTransform="matrix(0.75 0 0 -0.75 -134.504 350.0372)">
		<stop  offset="0" style="stop-color:#618CBD"/>
		<stop  offset="0.03" style="stop-color:#97B2D6"/>
		<stop  offset="0.08" style="stop-color:#5F8ABA"/>
		<stop  offset="0.64" style="stop-color:#5E87B7"/>
		<stop  offset="0.95" style="stop-color:#5B84B3"/>
		<stop  offset="1" style="stop-color:#426184"/>
	</linearGradient>
	<path fill="url(#SVGID_24_)" d="M17.164,199.059h87v109.5h-87V199.059z"/>
	
		<linearGradient id="SVGID_25_" gradientUnits="userSpaceOnUse" x1="260.2266" y1="201.3057" x2="260.2266" y2="55.3057" gradientTransform="matrix(0.75 0 0 -0.75 -41.7208 350.0372)">
		<stop  offset="0" style="stop-color:#618CBD"/>
		<stop  offset="0.03" style="stop-color:#97B2D6"/>
		<stop  offset="0.08" style="stop-color:#5F8ABA"/>
		<stop  offset="0.64" style="stop-color:#5E87B7"/>
		<stop  offset="0.95" style="stop-color:#5B84B3"/>
		<stop  offset="1" style="stop-color:#426184"/>
	</linearGradient>
	<path fill="url(#SVGID_25_)" d="M109.949,199.059h87v109.5h-87V199.059z"/>
	
		<linearGradient id="SVGID_26_" gradientUnits="userSpaceOnUse" x1="260.2241" y1="201.3057" x2="260.2241" y2="55.3057" gradientTransform="matrix(0.75 0 0 -0.75 51.0624 350.0372)">
		<stop  offset="0" style="stop-color:#618CBD"/>
		<stop  offset="0.03" style="stop-color:#97B2D6"/>
		<stop  offset="0.08" style="stop-color:#5F8ABA"/>
		<stop  offset="0.64" style="stop-color:#5E87B7"/>
		<stop  offset="0.95" style="stop-color:#5B84B3"/>
		<stop  offset="1" style="stop-color:#426184"/>
	</linearGradient>
	<path fill="url(#SVGID_26_)" d="M202.73,199.059h87v109.5h-87V199.059z"/>
	
		<linearGradient id="SVGID_27_" gradientUnits="userSpaceOnUse" x1="260.2266" y1="201.3057" x2="260.2266" y2="55.3057" gradientTransform="matrix(0.75 0 0 -0.75 143.8456 350.0372)">
		<stop  offset="0" style="stop-color:#618CBD"/>
		<stop  offset="0.03" style="stop-color:#97B2D6"/>
		<stop  offset="0.08" style="stop-color:#5F8ABA"/>
		<stop  offset="0.64" style="stop-color:#5E87B7"/>
		<stop  offset="0.95" style="stop-color:#5B84B3"/>
		<stop  offset="1" style="stop-color:#426184"/>
	</linearGradient>
	<path fill="url(#SVGID_27_)" d="M295.515,199.059h87v109.5h-87V199.059z"/>
	
		<linearGradient id="SVGID_28_" gradientUnits="userSpaceOnUse" x1="260.2236" y1="201.3057" x2="260.2236" y2="55.3057" gradientTransform="matrix(0.75 0 0 -0.75 -134.5035 465.8546)">
		<stop  offset="0" style="stop-color:#618CBD"/>
		<stop  offset="0.03" style="stop-color:#97B2D6"/>
		<stop  offset="0.08" style="stop-color:#5F8ABA"/>
		<stop  offset="0.64" style="stop-color:#5E87B7"/>
		<stop  offset="0.95" style="stop-color:#5B84B3"/>
		<stop  offset="1" style="stop-color:#426184"/>
	</linearGradient>
	<path fill="url(#SVGID_28_)" d="M17.164,314.875h87v109.5h-87V314.875z"/>
	
		<linearGradient id="SVGID_29_" gradientUnits="userSpaceOnUse" x1="260.2256" y1="201.3057" x2="260.2256" y2="55.3057" gradientTransform="matrix(0.75 0 0 -0.75 -41.7203 465.8546)">
		<stop  offset="0" style="stop-color:#618CBD"/>
		<stop  offset="0.03" style="stop-color:#97B2D6"/>
		<stop  offset="0.08" style="stop-color:#5F8ABA"/>
		<stop  offset="0.64" style="stop-color:#5E87B7"/>
		<stop  offset="0.95" style="stop-color:#5B84B3"/>
		<stop  offset="1" style="stop-color:#426184"/>
	</linearGradient>
	<path fill="url(#SVGID_29_)" d="M109.949,314.875h87v109.5h-87V314.875z"/>
	
		<linearGradient id="SVGID_30_" gradientUnits="userSpaceOnUse" x1="260.2231" y1="201.3057" x2="260.2231" y2="55.3057" gradientTransform="matrix(0.75 0 0 -0.75 51.0629 465.8546)">
		<stop  offset="0" style="stop-color:#618CBD"/>
		<stop  offset="0.03" style="stop-color:#97B2D6"/>
		<stop  offset="0.08" style="stop-color:#5F8ABA"/>
		<stop  offset="0.64" style="stop-color:#5E87B7"/>
		<stop  offset="0.95" style="stop-color:#5B84B3"/>
		<stop  offset="1" style="stop-color:#426184"/>
	</linearGradient>
	<path fill="url(#SVGID_30_)" d="M202.73,314.875h87v109.5h-87V314.875z"/>
	
		<linearGradient id="SVGID_31_" gradientUnits="userSpaceOnUse" x1="260.2256" y1="201.3057" x2="260.2256" y2="55.3057" gradientTransform="matrix(0.75 0 0 -0.75 143.8461 465.8546)">
		<stop  offset="0" style="stop-color:#618CBD"/>
		<stop  offset="0.03" style="stop-color:#97B2D6"/>
		<stop  offset="0.08" style="stop-color:#5F8ABA"/>
		<stop  offset="0.64" style="stop-color:#5E87B7"/>
		<stop  offset="0.95" style="stop-color:#5B84B3"/>
		<stop  offset="1" style="stop-color:#426184"/>
	</linearGradient>
	<path fill="url(#SVGID_31_)" d="M295.515,314.875h87v109.5h-87V314.875z"/>
	
		<linearGradient id="SVGID_32_" gradientUnits="userSpaceOnUse" x1="466.2241" y1="201.3018" x2="466.2241" y2="123.3018" gradientTransform="matrix(0.75 0 0 -0.75 -150.524 281.7618)">
		<stop  offset="0" style="stop-color:#618CBD"/>
		<stop  offset="0.03" style="stop-color:#97B2D6"/>
		<stop  offset="0.08" style="stop-color:#5F8ABA"/>
		<stop  offset="0.64" style="stop-color:#5E87B7"/>
		<stop  offset="0.95" style="stop-color:#5B84B3"/>
		<stop  offset="1" style="stop-color:#426184"/>
	</linearGradient>
	<path fill="url(#SVGID_32_)" d="M1.145,130.785h396v58.5h-396V130.785z"/>
	
		<linearGradient id="SVGID_33_" gradientUnits="userSpaceOnUse" x1="286.2231" y1="96.8037" x2="202.2227" y2="96.8037" gradientTransform="matrix(0.75 0 0 -0.75 245.6639 459.5509)">
		<stop  offset="0" style="stop-color:#618CBD"/>
		<stop  offset="0.03" style="stop-color:#97B2D6"/>
		<stop  offset="0.08" style="stop-color:#5F8ABA"/>
		<stop  offset="0.64" style="stop-color:#5E87B7"/>
		<stop  offset="0.95" style="stop-color:#5B84B3"/>
		<stop  offset="1" style="stop-color:#426184"/>
	</linearGradient>
	<path fill="url(#SVGID_33_)" d="M397.332,308.574l63,32.25v124.5h-63V308.574z"/>
	
		<linearGradient id="SVGID_34_" gradientUnits="userSpaceOnUse" x1="466.2241" y1="201.3037" x2="466.2241" y2="192.3037" gradientTransform="matrix(0.75 0 0 -0.75 -150.524 586.1759)">
		<stop  offset="0" style="stop-color:#477FAE"/>
		<stop  offset="0.03" style="stop-color:#8BA9CA"/>
		<stop  offset="0.08" style="stop-color:#467DAB"/>
		<stop  offset="0.64" style="stop-color:#457BA8"/>
		<stop  offset="0.95" style="stop-color:#4378A4"/>
		<stop  offset="1" style="stop-color:#2F5779"/>
	</linearGradient>
	<path fill="url(#SVGID_34_)" d="M1.145,435.199h396v6.75h-396V435.199z"/>
	
		<linearGradient id="SVGID_35_" gradientUnits="userSpaceOnUse" x1="466.2241" y1="201.3027" x2="466.2241" y2="169.3027" gradientTransform="matrix(0.75 0 0 -0.75 -150.524 592.3361)">
		<stop  offset="0" style="stop-color:#618CBD"/>
		<stop  offset="0.03" style="stop-color:#97B2D6"/>
		<stop  offset="0.08" style="stop-color:#5F8ABA"/>
		<stop  offset="0.64" style="stop-color:#5E87B7"/>
		<stop  offset="0.95" style="stop-color:#5B84B3"/>
		<stop  offset="1" style="stop-color:#426184"/>
	</linearGradient>
	<path fill="url(#SVGID_35_)" d="M1.145,441.359h396v24h-396V441.359z"/>
	
		<linearGradient id="SVGID_36_" gradientUnits="userSpaceOnUse" x1="211.2222" y1="201.3037" x2="211.2222" y2="127.3037" gradientTransform="matrix(0.75 0 0 -0.75 245.6884 510.4493)">
		<stop  offset="0" style="stop-color:#403E3E"/>
		<stop  offset="0.15" style="stop-color:#6D6C6C"/>
		<stop  offset="0.25" style="stop-color:#BCBCBC"/>
		<stop  offset="0.52" style="stop-color:#4D4B4B"/>
		<stop  offset="0.69" style="stop-color:#434242"/>
		<stop  offset="0.8" style="stop-color:#3F3E3E"/>
		<stop  offset="0.92" style="stop-color:#3B3A3A"/>
		<stop  offset="1" style="stop-color:#454444"/>
	</linearGradient>
	<path fill="url(#SVGID_36_)" d="M397.355,359.472h13.5v55.5h-13.5V359.472z"/>
	
		<linearGradient id="SVGID_37_" gradientUnits="userSpaceOnUse" x1="211.2222" y1="201.3008" x2="211.2222" y2="198.3008" gradientTransform="matrix(0.75 0 0 -0.75 245.6884 509.3663)">
		<stop  offset="0" style="stop-color:#403E3E"/>
		<stop  offset="0.15" style="stop-color:#6D6C6C"/>
		<stop  offset="0.25" style="stop-color:#BCBCBC"/>
		<stop  offset="0.52" style="stop-color:#4D4B4B"/>
		<stop  offset="0.69" style="stop-color:#434242"/>
		<stop  offset="0.8" style="stop-color:#3F3E3E"/>
		<stop  offset="0.92" style="stop-color:#3B3A3A"/>
		<stop  offset="1" style="stop-color:#454444"/>
	</linearGradient>
	<path fill="url(#SVGID_37_)" d="M397.355,358.39h13.5v2.25h-13.5V358.39z"/>
	
		<linearGradient id="SVGID_38_" gradientUnits="userSpaceOnUse" x1="211.2222" y1="201.3037" x2="211.2222" y2="198.3037" gradientTransform="matrix(0.75 0 0 -0.75 245.6884 523.1456)">
		<stop  offset="0" style="stop-color:#403E3E"/>
		<stop  offset="0.15" style="stop-color:#6D6C6C"/>
		<stop  offset="0.25" style="stop-color:#BCBCBC"/>
		<stop  offset="0.52" style="stop-color:#4D4B4B"/>
		<stop  offset="0.69" style="stop-color:#434242"/>
		<stop  offset="0.8" style="stop-color:#3F3E3E"/>
		<stop  offset="0.92" style="stop-color:#3B3A3A"/>
		<stop  offset="1" style="stop-color:#454444"/>
	</linearGradient>
	<path fill="url(#SVGID_38_)" d="M397.355,372.167h13.5v2.25h-13.5V372.167z"/>
	
		<linearGradient id="SVGID_39_" gradientUnits="userSpaceOnUse" x1="211.2222" y1="201.3057" x2="211.2222" y2="198.3057" gradientTransform="matrix(0.75 0 0 -0.75 245.6884 536.924)">
		<stop  offset="0" style="stop-color:#403E3E"/>
		<stop  offset="0.15" style="stop-color:#6D6C6C"/>
		<stop  offset="0.25" style="stop-color:#BCBCBC"/>
		<stop  offset="0.52" style="stop-color:#4D4B4B"/>
		<stop  offset="0.69" style="stop-color:#434242"/>
		<stop  offset="0.8" style="stop-color:#3F3E3E"/>
		<stop  offset="0.92" style="stop-color:#3B3A3A"/>
		<stop  offset="1" style="stop-color:#454444"/>
	</linearGradient>
	<path fill="url(#SVGID_39_)" d="M397.355,385.945h13.5v2.25h-13.5V385.945z"/>
	
		<linearGradient id="SVGID_40_" gradientUnits="userSpaceOnUse" x1="211.2222" y1="201.3047" x2="211.2222" y2="198.3047" gradientTransform="matrix(0.75 0 0 -0.75 245.6884 564.4825)">
		<stop  offset="0" style="stop-color:#403E3E"/>
		<stop  offset="0.15" style="stop-color:#6D6C6C"/>
		<stop  offset="0.25" style="stop-color:#BCBCBC"/>
		<stop  offset="0.52" style="stop-color:#4D4B4B"/>
		<stop  offset="0.69" style="stop-color:#434242"/>
		<stop  offset="0.8" style="stop-color:#3F3E3E"/>
		<stop  offset="0.92" style="stop-color:#3B3A3A"/>
		<stop  offset="1" style="stop-color:#454444"/>
	</linearGradient>
	<path fill="url(#SVGID_40_)" d="M397.355,413.503h13.5v2.25h-13.5V413.503z"/>
	
		<linearGradient id="SVGID_41_" gradientUnits="userSpaceOnUse" x1="211.2222" y1="201.3037" x2="211.2222" y2="198.3037" gradientTransform="matrix(0.75 0 0 -0.75 245.6884 550.7032)">
		<stop  offset="0" style="stop-color:#403E3E"/>
		<stop  offset="0.15" style="stop-color:#6D6C6C"/>
		<stop  offset="0.25" style="stop-color:#BCBCBC"/>
		<stop  offset="0.52" style="stop-color:#4D4B4B"/>
		<stop  offset="0.69" style="stop-color:#434242"/>
		<stop  offset="0.8" style="stop-color:#3F3E3E"/>
		<stop  offset="0.92" style="stop-color:#3B3A3A"/>
		<stop  offset="1" style="stop-color:#454444"/>
	</linearGradient>
	<path fill="url(#SVGID_41_)" d="M397.355,399.726h13.5v2.25h-13.5V399.726z"/>
	
		<linearGradient id="SVGID_42_" gradientUnits="userSpaceOnUse" x1="208.2231" y1="36.8042" x2="202.2231" y2="36.8042" gradientTransform="matrix(0.75 0 0 -0.75 240.8241 340.6212)">
		<stop  offset="0" style="stop-color:#6187B3"/>
		<stop  offset="0.03" style="stop-color:#97AFCF"/>
		<stop  offset="0.08" style="stop-color:#5F85B1"/>
		<stop  offset="0.64" style="stop-color:#5E83AE"/>
		<stop  offset="0.95" style="stop-color:#5B80AA"/>
		<stop  offset="1" style="stop-color:#425D7D"/>
	</linearGradient>
	<path fill="url(#SVGID_42_)" d="M392.492,189.645h4.5v246.75h-4.5V189.645z"/>
	
		<linearGradient id="SVGID_43_" gradientUnits="userSpaceOnUse" x1="208.2246" y1="36.8042" x2="202.2246" y2="36.8042" gradientTransform="matrix(0.75 0 0 -0.75 -150.524 340.6222)">
		<stop  offset="0" style="stop-color:#6187B3"/>
		<stop  offset="0.03" style="stop-color:#97AFCF"/>
		<stop  offset="0.08" style="stop-color:#5F85B1"/>
		<stop  offset="0.64" style="stop-color:#5E83AE"/>
		<stop  offset="0.95" style="stop-color:#5B80AA"/>
		<stop  offset="1" style="stop-color:#425D7D"/>
	</linearGradient>
	<path fill="url(#SVGID_43_)" d="M1.145,189.645h4.5v246.75h-4.5V189.645z"/>
	
		<radialGradient id="SVGID_44_" cx="235.7656" cy="167.8677" r="47.3565" gradientTransform="matrix(0.75 0 0 -0.75 152.201 286.1173)" gradientUnits="userSpaceOnUse">
		<stop  offset="0" style="stop-color:#76A2C9"/>
		<stop  offset="0.54" style="stop-color:#7EADD6"/>
		<stop  offset="0.74" style="stop-color:#B4CEEA"/>
		<stop  offset="0.91" style="stop-color:#76A2C9"/>
		<stop  offset="1" style="stop-color:#7EADD6"/>
	</radialGradient>
	<path fill="url(#SVGID_44_)" stroke="#5F89B9" stroke-width="0.25" stroke-linejoin="bevel" stroke-miterlimit="10" d="
		M303.871,159.891c0-13.5,11.262-24.75,25.152-24.75c13.848,0,25.156,11.227,25.156,25.074
		c-0.059,13.926-11.262,25.078-25.156,25.078c-13.902,0.098-25.152-11.227-25.152-25.078V159.891z"/>
	<path fill="#C6D5E8" stroke="#384E64" stroke-linejoin="bevel" stroke-miterlimit="10" d="M308.414,159.898
		c0-11.25,9.227-20.25,20.609-20.25c11.641,0,20.609,9.211,20.609,20.566c0.031,11.684-9.227,20.566-20.609,20.566
		c-11.609,0.117-20.609-9.207-20.609-20.566V159.898z"/>
	<path fill="#E35020" d="M321.73,168.93c0,0,14.895-24.906,16.227-24.141c1.645,0.684-12.98,26.016-12.98,26.016L321.73,168.93z"/>
	<path fill="#4B6884" d="M325.726,159.926c0-1.5,1.477-3,3.297-3c1.953,0,3.301,1.473,3.301,3.289
		c0.152,1.961-1.477,3.289-3.301,3.289c-1.797,0.172-3.297-1.473-3.297-3.289V159.926z"/>
	<path fill="none" stroke="#000000" stroke-linejoin="bevel" stroke-miterlimit="10" d="M328.488,143.004l-0.008,4.5"/>
	<path fill="none" stroke="#000000" stroke-linejoin="bevel" stroke-miterlimit="10" d="M312.871,159.633l4.5,0.008"/>
	<path fill="none" stroke="#000000" stroke-linejoin="bevel" stroke-miterlimit="10" d="M341.617,159.633l4.5,0.008"/>
	<path fill="none" stroke="#000000" stroke-linejoin="bevel" stroke-miterlimit="10" d="M317.574,148.18l3.176,3.188"/>
	<path fill="none" stroke="#000000" stroke-linejoin="bevel" stroke-miterlimit="10" d="M340.511,148.18l-3.176,3.188"/>
	<path fill="none" stroke="#3F77A8" stroke-linejoin="bevel" stroke-miterlimit="10" d="M321.199,172.262h15.75
		c1.5,0,1.98,0.754,1.98,1.75c0.27,1.25-0.809,2.105-1.809,2.105l-15.922-0.105c-0.75,0-1.563-0.703-1.563-1.699
		c0.063-1.301,0.809-2.102,1.809-2.102L321.199,172.262z"/>
	<path fill="#FFFFFF" fill-opacity="0.3804" d="M332.265,160.648c0-11.25-14.664-21-3.281-21c11.531,0,20.609,9.207,20.609,20.566
		c-0.078,11.684-9.227,20.57-20.609,20.57c-11.719,0.113,3.613-8.91,3.613-20.27L332.265,160.648z"/>
	
		<linearGradient id="SVGID_45_" gradientUnits="userSpaceOnUse" x1="207.7256" y1="201.3066" x2="207.7256" y2="167.3066" gradientTransform="matrix(0.75 0 0 -0.75 322.6815 466.5577)">
		<stop  offset="0" style="stop-color:#2B2827"/>
		<stop  offset="0.15" style="stop-color:#5B5858"/>
		<stop  offset="0.25" style="stop-color:#B8B7B7"/>
		<stop  offset="0.52" style="stop-color:#353130"/>
		<stop  offset="0.69" style="stop-color:#2E2A29"/>
		<stop  offset="0.8" style="stop-color:#2B2726"/>
		<stop  offset="0.92" style="stop-color:#282424"/>
		<stop  offset="1" style="stop-color:#2F2B2B"/>
	</linearGradient>
	<path fill="url(#SVGID_45_)" d="M474.351,315.578h8.25v25.5h-8.25V315.578z"/>
	
		<linearGradient id="SVGID_46_" gradientUnits="userSpaceOnUse" x1="208.7251" y1="201.3037" x2="208.7251" y2="199.3037" gradientTransform="matrix(0.75 0 0 -0.75 321.8895 466.3009)">
		<stop  offset="0" style="stop-color:#2B2827"/>
		<stop  offset="0.15" style="stop-color:#5B5858"/>
		<stop  offset="0.25" style="stop-color:#B8B7B7"/>
		<stop  offset="0.52" style="stop-color:#353130"/>
		<stop  offset="0.69" style="stop-color:#2E2A29"/>
		<stop  offset="0.8" style="stop-color:#2B2726"/>
		<stop  offset="0.92" style="stop-color:#282424"/>
		<stop  offset="1" style="stop-color:#2F2B2B"/>
	</linearGradient>
	<path fill="url(#SVGID_46_)" d="M473.558,315.324h9.75v1.5h-9.75V315.324z"/>
	
		<linearGradient id="SVGID_47_" gradientUnits="userSpaceOnUse" x1="208.7251" y1="201.3037" x2="208.7251" y2="199.3037" gradientTransform="matrix(0.75 0 0 -0.75 321.8895 474.422)">
		<stop  offset="0" style="stop-color:#2B2827"/>
		<stop  offset="0.15" style="stop-color:#5B5858"/>
		<stop  offset="0.25" style="stop-color:#B8B7B7"/>
		<stop  offset="0.52" style="stop-color:#353130"/>
		<stop  offset="0.69" style="stop-color:#2E2A29"/>
		<stop  offset="0.8" style="stop-color:#2B2726"/>
		<stop  offset="0.92" style="stop-color:#282424"/>
		<stop  offset="1" style="stop-color:#2F2B2B"/>
	</linearGradient>
	<path fill="url(#SVGID_47_)" d="M473.558,323.445h9.75v1.5h-9.75V323.445z"/>
	
		<linearGradient id="SVGID_48_" gradientUnits="userSpaceOnUse" x1="208.7251" y1="201.3037" x2="208.7251" y2="199.3037" gradientTransform="matrix(0.75 0 0 -0.75 321.8895 490.6642)">
		<stop  offset="0" style="stop-color:#2B2827"/>
		<stop  offset="0.15" style="stop-color:#5B5858"/>
		<stop  offset="0.25" style="stop-color:#B8B7B7"/>
		<stop  offset="0.52" style="stop-color:#353130"/>
		<stop  offset="0.69" style="stop-color:#2E2A29"/>
		<stop  offset="0.8" style="stop-color:#2B2726"/>
		<stop  offset="0.92" style="stop-color:#282424"/>
		<stop  offset="1" style="stop-color:#2F2B2B"/>
	</linearGradient>
	<path fill="url(#SVGID_48_)" d="M473.558,339.687h9.75v1.5h-9.75V339.687z"/>
	
		<linearGradient id="SVGID_49_" gradientUnits="userSpaceOnUse" x1="208.7251" y1="201.3037" x2="208.7251" y2="199.3037" gradientTransform="matrix(0.75 0 0 -0.75 321.8895 482.5431)">
		<stop  offset="0" style="stop-color:#2B2827"/>
		<stop  offset="0.15" style="stop-color:#5B5858"/>
		<stop  offset="0.25" style="stop-color:#B8B7B7"/>
		<stop  offset="0.52" style="stop-color:#353130"/>
		<stop  offset="0.69" style="stop-color:#2E2A29"/>
		<stop  offset="0.8" style="stop-color:#2B2726"/>
		<stop  offset="0.92" style="stop-color:#282424"/>
		<stop  offset="1" style="stop-color:#2F2B2B"/>
	</linearGradient>
	<path fill="url(#SVGID_49_)" d="M473.558,331.566h9.75v1.5h-9.75V331.566z"/>
	
		<linearGradient id="SVGID_50_" gradientUnits="userSpaceOnUse" x1="261.2256" y1="187.3066" x2="202.2256" y2="187.3066" gradientTransform="matrix(0.75 0 0 -0.75 -98.5953 260.8038)">
		<stop  offset="0" style="stop-color:#55799C"/>
		<stop  offset="0.15" style="stop-color:#83ACD6"/>
		<stop  offset="0.25" style="stop-color:#C3D4E8"/>
		<stop  offset="0.52" style="stop-color:#6690B8"/>
		<stop  offset="0.69" style="stop-color:#5A80A4"/>
		<stop  offset="0.8" style="stop-color:#54789B"/>
		<stop  offset="0.92" style="stop-color:#4F7192"/>
		<stop  offset="1" style="stop-color:#5C83A8"/>
	</linearGradient>
	<path fill="url(#SVGID_50_)" d="M53.074,130.824h44.25v-21h-44.25V130.824z"/>
	
		<linearGradient id="SVGID_51_" gradientUnits="userSpaceOnUse" x1="288.2222" y1="195.252" x2="202.2222" y2="195.252" gradientTransform="matrix(0.75 0 0 -0.75 -108.757 252.42)">
		<stop  offset="0" style="stop-color:#55799C"/>
		<stop  offset="0.15" style="stop-color:#83ACD6"/>
		<stop  offset="0.25" style="stop-color:#C3D4E8"/>
		<stop  offset="0.52" style="stop-color:#6690B8"/>
		<stop  offset="0.69" style="stop-color:#5A80A4"/>
		<stop  offset="0.8" style="stop-color:#54789B"/>
		<stop  offset="0.92" style="stop-color:#4F7192"/>
		<stop  offset="1" style="stop-color:#5C83A8"/>
	</linearGradient>
	<path fill="url(#SVGID_51_)" d="M45.16,101.441h60c1.5,0,2.223,1.004,2.223,2.238l0.027,4.512c0,1.5-1.031,2.332-2.27,2.332
		l-59.98-0.082c-1.5,0-2.25-0.918-2.25-2.152v-4.598c0-1.5,1.008-2.25,2.246-2.25H45.16z"/>
	
		<linearGradient id="SVGID_52_" gradientUnits="userSpaceOnUse" x1="261.2236" y1="194.3027" x2="202.2236" y2="194.3027" gradientTransform="matrix(0.75 0 0 -0.75 -0.9532 271.0509)">
		<stop  offset="0" style="stop-color:#55799C"/>
		<stop  offset="0.15" style="stop-color:#83ACD6"/>
		<stop  offset="0.25" style="stop-color:#C3D4E8"/>
		<stop  offset="0.52" style="stop-color:#6690B8"/>
		<stop  offset="0.69" style="stop-color:#5A80A4"/>
		<stop  offset="0.8" style="stop-color:#54789B"/>
		<stop  offset="0.92" style="stop-color:#4F7192"/>
		<stop  offset="1" style="stop-color:#5C83A8"/>
	</linearGradient>
	<path fill="url(#SVGID_52_)" d="M150.715,130.574h44.25v-10.5h-44.25V130.574z"/>
	
		<linearGradient id="SVGID_53_" gradientUnits="userSpaceOnUse" x1="288.2251" y1="195.251" x2="202.2246" y2="195.251" gradientTransform="matrix(0.75 0 0 -0.75 -11.1144 262.2013)">
		<stop  offset="0" style="stop-color:#55799C"/>
		<stop  offset="0.15" style="stop-color:#83ACD6"/>
		<stop  offset="0.25" style="stop-color:#C3D4E8"/>
		<stop  offset="0.52" style="stop-color:#6690B8"/>
		<stop  offset="0.69" style="stop-color:#5A80A4"/>
		<stop  offset="0.8" style="stop-color:#54789B"/>
		<stop  offset="0.92" style="stop-color:#4F7192"/>
		<stop  offset="1" style="stop-color:#5C83A8"/>
	</linearGradient>
	<path fill="url(#SVGID_53_)" d="M142.805,111.223h60c1.5,0,2.223,1,2.223,2.234l0.027,4.516c0,1.5-1.031,2.332-2.27,2.332
		l-59.98-0.082c-1.5,0-2.25-0.918-2.25-2.152v-4.598c0-1.5,1.004-2.25,2.242-2.25H142.805z"/>
</g>
</svg>
