<?xml version="1.0" encoding="utf-8"?>
<!-- Generator: Adobe Illustrator 16.0.0, SVG Export Plug-In . SVG Version: 6.00 Build 0)  -->
<!DOCTYPE svg PUBLIC "-//W3C//DTD SVG 1.1//EN" "http://www.w3.org/Graphics/SVG/1.1/DTD/svg11.dtd">
<svg preserveAspectRatio="none" version="1.1" id="图层_1" xmlns="http://www.w3.org/2000/svg" xmlns:xlink="http://www.w3.org/1999/xlink" x="0px" y="0px"
	 width="559.07px" height="433.835px" viewBox="3.891 66.426 559.07 433.835" enable-background="new 3.891 66.426 559.07 433.835"
	 xml:space="preserve">
<g id="surface11">
	<path fill="#15636C" d="M76.465,66.426h456v403.5h-456V66.426z"/>
	<path fill="#19717B" d="M76.465,66.426h456v139.5h-456V66.426z"/>
	<path fill="#12545C" d="M70.582,470.261h468.75v30H70.582V470.261z"/>
	<path fill="#1B7B86" d="M285.355,205.918h247.5v264h-247.5V205.918z"/>
	
		<linearGradient id="SVGID_1_" gradientUnits="userSpaceOnUse" x1="223.2261" y1="14.8032" x2="202.2261" y2="14.8032" gradientTransform="matrix(0.75 0 0 -0.75 -147.7755 238.8634)">
		<stop  offset="0" style="stop-color:#17757F"/>
		<stop  offset="0.15" style="stop-color:#4EA7B3"/>
		<stop  offset="0.25" style="stop-color:#B5D1D7"/>
		<stop  offset="0.52" style="stop-color:#1D8B97"/>
		<stop  offset="0.69" style="stop-color:#197B86"/>
		<stop  offset="0.8" style="stop-color:#17747E"/>
		<stop  offset="0.92" style="stop-color:#156D77"/>
		<stop  offset="1" style="stop-color:#1A7E89"/>
	</linearGradient>
	<path fill="url(#SVGID_1_)" d="M3.895,87.887v279.75h15.75V87.887H3.895z"/>
	
		<linearGradient id="SVGID_2_" gradientUnits="userSpaceOnUse" x1="250.7266" y1="201.3018" x2="250.7266" y2="180.3018" gradientTransform="matrix(0.75 0 0 -0.75 -147.7789 238.8634)">
		<stop  offset="0" style="stop-color:#17757F"/>
		<stop  offset="0.15" style="stop-color:#4EA7B3"/>
		<stop  offset="0.25" style="stop-color:#B5D1D7"/>
		<stop  offset="0.52" style="stop-color:#1D8B97"/>
		<stop  offset="0.69" style="stop-color:#197B86"/>
		<stop  offset="0.8" style="stop-color:#17747E"/>
		<stop  offset="0.92" style="stop-color:#156D77"/>
		<stop  offset="1" style="stop-color:#1A7E89"/>
	</linearGradient>
	<path fill="url(#SVGID_2_)" d="M76.641,87.887H3.891v15.75h72.75V87.887z"/>
	<path fill="#19717B" d="M76.793,208.977h195.75v261.75H76.793V208.977z"/>
	
		<linearGradient id="SVGID_3_" gradientUnits="userSpaceOnUse" x1="387.2261" y1="201.3037" x2="387.2261" y2="180.3037" gradientTransform="matrix(0.75 0 0 -0.75 -147.7755 503.212)">
		<stop  offset="0" style="stop-color:#17757F"/>
		<stop  offset="0.15" style="stop-color:#4EA7B3"/>
		<stop  offset="0.25" style="stop-color:#B5D1D7"/>
		<stop  offset="0.52" style="stop-color:#1D8B97"/>
		<stop  offset="0.69" style="stop-color:#197B86"/>
		<stop  offset="0.8" style="stop-color:#17747E"/>
		<stop  offset="0.92" style="stop-color:#156D77"/>
		<stop  offset="1" style="stop-color:#1A7E89"/>
	</linearGradient>
	<path fill="url(#SVGID_3_)" d="M281.395,352.234H3.895v15.75h277.5V352.234z"/>
	<path fill="#15636C" d="M285.355,205.914h247.5v3h-247.5V205.914z"/>
	<path fill="#15636C" d="M324.136,267.875h169.5v82.5h-169.5V267.875z"/>
	<path fill="#19717B" d="M325.925,269.645h165.75v78.75h-165.75V269.645z"/>
	
		<linearGradient id="SVGID_4_" gradientUnits="userSpaceOnUse" x1="201.0127" y1="197.9736" x2="218.4361" y2="191.632" gradientTransform="matrix(0.75 0 0 -0.75 177.9354 424.8497)">
		<stop  offset="0" style="stop-color:#52858B"/>
		<stop  offset="0.11" style="stop-color:#77B4BC"/>
		<stop  offset="0.39" style="stop-color:#C4DADE"/>
		<stop  offset="0.55" style="stop-color:#77B4BC"/>
		<stop  offset="0.77" style="stop-color:#55898F"/>
	</linearGradient>
	<path fill="url(#SVGID_4_)" stroke="#75B7C0" stroke-linejoin="bevel" stroke-miterlimit="10" d="M337.855,273.871l3,4.5l-3,5.25
		h-5.25l-3-5.25l3-4.5H337.855z"/>
	
		<linearGradient id="SVGID_5_" gradientUnits="userSpaceOnUse" x1="201.0122" y1="197.9717" x2="218.4357" y2="191.6301" gradientTransform="matrix(0.75 0 0 -0.75 207.4618 424.8497)">
		<stop  offset="0" style="stop-color:#52858B"/>
		<stop  offset="0.11" style="stop-color:#77B4BC"/>
		<stop  offset="0.39" style="stop-color:#C4DADE"/>
		<stop  offset="0.55" style="stop-color:#77B4BC"/>
		<stop  offset="0.77" style="stop-color:#55898F"/>
	</linearGradient>
	<path fill="url(#SVGID_5_)" stroke="#75B7C0" stroke-linejoin="bevel" stroke-miterlimit="10" d="M367.378,273.871l3,4.5l-3,5.25
		h-5.25l-3-5.25l3-4.5H367.378z"/>
	
		<linearGradient id="SVGID_6_" gradientUnits="userSpaceOnUse" x1="201.0122" y1="197.9727" x2="218.4357" y2="191.631" gradientTransform="matrix(0.75 0 0 -0.75 236.9872 424.8497)">
		<stop  offset="0" style="stop-color:#52858B"/>
		<stop  offset="0.11" style="stop-color:#77B4BC"/>
		<stop  offset="0.39" style="stop-color:#C4DADE"/>
		<stop  offset="0.55" style="stop-color:#77B4BC"/>
		<stop  offset="0.77" style="stop-color:#55898F"/>
	</linearGradient>
	<path fill="url(#SVGID_6_)" stroke="#75B7C0" stroke-linejoin="bevel" stroke-miterlimit="10" d="M396.906,273.871l3,4.5l-3,5.25
		h-5.25l-3-5.25l3-4.5H396.906z"/>
	
		<linearGradient id="SVGID_7_" gradientUnits="userSpaceOnUse" x1="201.0122" y1="197.9727" x2="218.4357" y2="191.631" gradientTransform="matrix(0.75 0 0 -0.75 266.5135 424.8497)">
		<stop  offset="0" style="stop-color:#52858B"/>
		<stop  offset="0.11" style="stop-color:#77B4BC"/>
		<stop  offset="0.39" style="stop-color:#C4DADE"/>
		<stop  offset="0.55" style="stop-color:#77B4BC"/>
		<stop  offset="0.77" style="stop-color:#55898F"/>
	</linearGradient>
	<path fill="url(#SVGID_7_)" stroke="#75B7C0" stroke-linejoin="bevel" stroke-miterlimit="10" d="M426.433,273.871l3,4.5l-3,5.25
		h-5.25l-3-5.25l3-4.5H426.433z"/>
	
		<linearGradient id="SVGID_8_" gradientUnits="userSpaceOnUse" x1="201.0127" y1="197.9736" x2="218.4361" y2="191.632" gradientTransform="matrix(0.75 0 0 -0.75 296.0389 424.8497)">
		<stop  offset="0" style="stop-color:#52858B"/>
		<stop  offset="0.11" style="stop-color:#77B4BC"/>
		<stop  offset="0.39" style="stop-color:#C4DADE"/>
		<stop  offset="0.55" style="stop-color:#77B4BC"/>
		<stop  offset="0.77" style="stop-color:#55898F"/>
	</linearGradient>
	<path fill="url(#SVGID_8_)" stroke="#75B7C0" stroke-linejoin="bevel" stroke-miterlimit="10" d="M455.957,273.871l3,4.5l-3,5.25
		h-5.25l-3-5.25l3-4.5H455.957z"/>
	
		<linearGradient id="SVGID_9_" gradientUnits="userSpaceOnUse" x1="201.0127" y1="197.9736" x2="218.4361" y2="191.632" gradientTransform="matrix(0.75 0 0 -0.75 325.5643 424.8497)">
		<stop  offset="0" style="stop-color:#52858B"/>
		<stop  offset="0.11" style="stop-color:#77B4BC"/>
		<stop  offset="0.39" style="stop-color:#C4DADE"/>
		<stop  offset="0.55" style="stop-color:#77B4BC"/>
		<stop  offset="0.77" style="stop-color:#55898F"/>
	</linearGradient>
	<path fill="url(#SVGID_9_)" stroke="#75B7C0" stroke-linejoin="bevel" stroke-miterlimit="10" d="M485.484,273.871l3,4.5l-3,5.25
		h-5.25l-3-5.25l3-4.5H485.484z"/>
	
		<linearGradient id="SVGID_10_" gradientUnits="userSpaceOnUse" x1="201.0132" y1="197.9756" x2="218.4366" y2="191.634" gradientTransform="matrix(0.75 0 0 -0.75 177.9354 485.549)">
		<stop  offset="0" style="stop-color:#52858B"/>
		<stop  offset="0.11" style="stop-color:#77B4BC"/>
		<stop  offset="0.39" style="stop-color:#C4DADE"/>
		<stop  offset="0.55" style="stop-color:#77B4BC"/>
		<stop  offset="0.77" style="stop-color:#55898F"/>
	</linearGradient>
	<path fill="url(#SVGID_10_)" stroke="#75B7C0" stroke-linejoin="bevel" stroke-miterlimit="10" d="M337.855,334.57l3,4.5l-3,5.25
		h-5.25l-3-5.25l3-4.5H337.855z"/>
	
		<linearGradient id="SVGID_11_" gradientUnits="userSpaceOnUse" x1="201.0127" y1="197.9736" x2="218.4361" y2="191.632" gradientTransform="matrix(0.75 0 0 -0.75 207.4618 485.549)">
		<stop  offset="0" style="stop-color:#52858B"/>
		<stop  offset="0.11" style="stop-color:#77B4BC"/>
		<stop  offset="0.39" style="stop-color:#C4DADE"/>
		<stop  offset="0.55" style="stop-color:#77B4BC"/>
		<stop  offset="0.77" style="stop-color:#55898F"/>
	</linearGradient>
	<path fill="url(#SVGID_11_)" stroke="#75B7C0" stroke-linejoin="bevel" stroke-miterlimit="10" d="M367.378,334.57l3,4.5l-3,5.25
		h-5.25l-3-5.25l3-4.5H367.378z"/>
	
		<linearGradient id="SVGID_12_" gradientUnits="userSpaceOnUse" x1="201.0132" y1="197.9746" x2="218.4366" y2="191.633" gradientTransform="matrix(0.75 0 0 -0.75 236.9882 485.549)">
		<stop  offset="0" style="stop-color:#52858B"/>
		<stop  offset="0.11" style="stop-color:#77B4BC"/>
		<stop  offset="0.39" style="stop-color:#C4DADE"/>
		<stop  offset="0.55" style="stop-color:#77B4BC"/>
		<stop  offset="0.77" style="stop-color:#55898F"/>
	</linearGradient>
	<path fill="url(#SVGID_12_)" stroke="#75B7C0" stroke-linejoin="bevel" stroke-miterlimit="10" d="M396.906,334.57l3,4.5l-3,5.25
		h-5.25l-3-5.25l3-4.5H396.906z"/>
	
		<linearGradient id="SVGID_13_" gradientUnits="userSpaceOnUse" x1="201.0137" y1="197.9766" x2="218.4371" y2="191.6349" gradientTransform="matrix(0.75 0 0 -0.75 266.5135 485.549)">
		<stop  offset="0" style="stop-color:#52858B"/>
		<stop  offset="0.11" style="stop-color:#77B4BC"/>
		<stop  offset="0.39" style="stop-color:#C4DADE"/>
		<stop  offset="0.55" style="stop-color:#77B4BC"/>
		<stop  offset="0.77" style="stop-color:#55898F"/>
	</linearGradient>
	<path fill="url(#SVGID_13_)" stroke="#75B7C0" stroke-linejoin="bevel" stroke-miterlimit="10" d="M426.433,334.57l3,4.5l-3,5.25
		h-5.25l-3-5.25l3-4.5H426.433z"/>
	
		<linearGradient id="SVGID_14_" gradientUnits="userSpaceOnUse" x1="201.0132" y1="197.9756" x2="218.4366" y2="191.634" gradientTransform="matrix(0.75 0 0 -0.75 296.0399 485.549)">
		<stop  offset="0" style="stop-color:#52858B"/>
		<stop  offset="0.11" style="stop-color:#77B4BC"/>
		<stop  offset="0.39" style="stop-color:#C4DADE"/>
		<stop  offset="0.55" style="stop-color:#77B4BC"/>
		<stop  offset="0.77" style="stop-color:#55898F"/>
	</linearGradient>
	<path fill="url(#SVGID_14_)" stroke="#75B7C0" stroke-linejoin="bevel" stroke-miterlimit="10" d="M455.957,334.57l3,4.5l-3,5.25
		h-5.25l-3-5.25l3-4.5H455.957z"/>
	
		<linearGradient id="SVGID_15_" gradientUnits="userSpaceOnUse" x1="201.0132" y1="197.9756" x2="218.4366" y2="191.634" gradientTransform="matrix(0.75 0 0 -0.75 325.5643 485.549)">
		<stop  offset="0" style="stop-color:#52858B"/>
		<stop  offset="0.11" style="stop-color:#77B4BC"/>
		<stop  offset="0.39" style="stop-color:#C4DADE"/>
		<stop  offset="0.55" style="stop-color:#77B4BC"/>
		<stop  offset="0.77" style="stop-color:#55898F"/>
	</linearGradient>
	<path fill="url(#SVGID_15_)" stroke="#75B7C0" stroke-linejoin="bevel" stroke-miterlimit="10" d="M485.484,334.57l3,4.5l-3,5.25
		h-5.25l-3-5.25l3-4.5H485.484z"/>
	
		<linearGradient id="SVGID_16_" gradientUnits="userSpaceOnUse" x1="201.0127" y1="197.9736" x2="218.4349" y2="191.6325" gradientTransform="matrix(0.75 0 0 -0.75 177.9354 455.1993)">
		<stop  offset="0" style="stop-color:#52858B"/>
		<stop  offset="0.11" style="stop-color:#77B4BC"/>
		<stop  offset="0.39" style="stop-color:#C4DADE"/>
		<stop  offset="0.55" style="stop-color:#77B4BC"/>
		<stop  offset="0.77" style="stop-color:#55898F"/>
	</linearGradient>
	<path fill="url(#SVGID_16_)" stroke="#75B7C0" stroke-linejoin="bevel" stroke-miterlimit="10" d="M337.855,304.222l3,4.5l-3,5.25
		h-5.25l-3-5.25l3-4.5H337.855z"/>
	
		<linearGradient id="SVGID_17_" gradientUnits="userSpaceOnUse" x1="201.0117" y1="197.9741" x2="218.4364" y2="191.6321" gradientTransform="matrix(0.75 0 0 -0.75 325.5643 455.1993)">
		<stop  offset="0" style="stop-color:#52858B"/>
		<stop  offset="0.11" style="stop-color:#77B4BC"/>
		<stop  offset="0.39" style="stop-color:#C4DADE"/>
		<stop  offset="0.55" style="stop-color:#77B4BC"/>
		<stop  offset="0.77" style="stop-color:#55898F"/>
	</linearGradient>
	<path fill="url(#SVGID_17_)" stroke="#75B7C0" stroke-linejoin="bevel" stroke-miterlimit="10" d="M485.484,304.222l3,4.5l-3,5.25
		h-5.25l-3-5.25l3-4.5H485.484z"/>
	
		<linearGradient id="SVGID_18_" gradientUnits="userSpaceOnUse" x1="208.7075" y1="201.3037" x2="208.7075" y2="149.96" gradientTransform="matrix(0.75 0 0 -0.75 71.2738 491.7345)">
		<stop  offset="0" style="stop-color:#347E88"/>
		<stop  offset="0.15" style="stop-color:#63B2BE"/>
		<stop  offset="0.25" style="stop-color:#B9D6DC"/>
		<stop  offset="0.52" style="stop-color:#4095A2"/>
		<stop  offset="0.69" style="stop-color:#38848F"/>
		<stop  offset="0.8" style="stop-color:#347D87"/>
		<stop  offset="0.92" style="stop-color:#30757F"/>
		<stop  offset="1" style="stop-color:#398893"/>
	</linearGradient>
	<path fill="url(#SVGID_18_)" d="M225.941,340.757h3.75c1.5,0,2.699,1.285,2.699,2.902l0.301,32.348c0,2.25-1.617,3.258-3.242,3.258
		l-3.508-0.258c-1.5,0-3.023-1.051-3.023-2.668l0.023-32.582c0-1.5,1.293-3,2.918-3H225.941z"/>
	
		<linearGradient id="SVGID_19_" gradientUnits="userSpaceOnUse" x1="208.707" y1="201.3037" x2="208.707" y2="149.96" gradientTransform="matrix(0.75 0 0 -0.75 80.7743 491.7345)">
		<stop  offset="0" style="stop-color:#347E88"/>
		<stop  offset="0.15" style="stop-color:#63B2BE"/>
		<stop  offset="0.25" style="stop-color:#B9D6DC"/>
		<stop  offset="0.52" style="stop-color:#4095A2"/>
		<stop  offset="0.69" style="stop-color:#38848F"/>
		<stop  offset="0.8" style="stop-color:#347D87"/>
		<stop  offset="0.92" style="stop-color:#30757F"/>
		<stop  offset="1" style="stop-color:#398893"/>
	</linearGradient>
	<path fill="url(#SVGID_19_)" d="M235.441,340.757h3.75c1.5,0,2.703,1.285,2.703,2.902l0.297,32.348c0,2.25-1.617,3.258-3.242,3.258
		l-3.508-0.258c-1.5,0-3.023-1.051-3.023-2.668l0.023-32.582c0-1.5,1.293-3,2.918-3H235.441z"/>
	
		<linearGradient id="SVGID_20_" gradientUnits="userSpaceOnUse" x1="208.708" y1="201.3018" x2="208.708" y2="149.958" gradientTransform="matrix(0.75 0 0 -0.75 -94.4606 227.3868)">
		<stop  offset="0" style="stop-color:#347E88"/>
		<stop  offset="0.15" style="stop-color:#63B2BE"/>
		<stop  offset="0.25" style="stop-color:#B9D6DC"/>
		<stop  offset="0.52" style="stop-color:#4095A2"/>
		<stop  offset="0.69" style="stop-color:#38848F"/>
		<stop  offset="0.8" style="stop-color:#347D87"/>
		<stop  offset="0.92" style="stop-color:#30757F"/>
		<stop  offset="1" style="stop-color:#398893"/>
	</linearGradient>
	<path fill="url(#SVGID_20_)" d="M60.207,76.41h3.75c1.5,0,2.699,1.285,2.699,2.898l0.301,32.352c0,2.25-1.617,3.258-3.242,3.258
		l-3.508-0.258c-1.5,0-3.023-1.051-3.023-2.668l0.023-32.582c0-1.5,1.293-3,2.918-3H60.207z"/>
	
		<linearGradient id="SVGID_21_" gradientUnits="userSpaceOnUse" x1="208.707" y1="201.3018" x2="208.707" y2="149.958" gradientTransform="matrix(0.75 0 0 -0.75 -84.9601 227.3868)">
		<stop  offset="0" style="stop-color:#347E88"/>
		<stop  offset="0.15" style="stop-color:#63B2BE"/>
		<stop  offset="0.25" style="stop-color:#B9D6DC"/>
		<stop  offset="0.52" style="stop-color:#4095A2"/>
		<stop  offset="0.69" style="stop-color:#38848F"/>
		<stop  offset="0.8" style="stop-color:#347D87"/>
		<stop  offset="0.92" style="stop-color:#30757F"/>
		<stop  offset="1" style="stop-color:#398893"/>
	</linearGradient>
	<path fill="url(#SVGID_21_)" d="M69.707,76.41h3.75c1.5,0,2.699,1.285,2.699,2.898l0.301,32.352c0,2.25-1.617,3.258-3.242,3.258
		l-3.508-0.258c-1.5,0-3.023-1.051-3.023-2.668l0.023-32.582c0-1.5,1.293-3,2.918-3H69.707z"/>
	
		<linearGradient id="SVGID_22_" gradientUnits="userSpaceOnUse" x1="206.7427" y1="201.3018" x2="206.7427" y2="164.3018" gradientTransform="matrix(0.75 0 0 -0.75 122.849 497.1476)">
		<stop  offset="0" style="stop-color:#347E88"/>
		<stop  offset="0.15" style="stop-color:#63B2BE"/>
		<stop  offset="0.25" style="stop-color:#B9D6DC"/>
		<stop  offset="0.52" style="stop-color:#4095A2"/>
		<stop  offset="0.69" style="stop-color:#38848F"/>
		<stop  offset="0.8" style="stop-color:#347D87"/>
		<stop  offset="0.92" style="stop-color:#30757F"/>
		<stop  offset="1" style="stop-color:#398893"/>
	</linearGradient>
	<path fill="url(#SVGID_22_)" d="M276.77,346.171h2.25c1.5,0,2.293,0.922,2.293,2.086l-0.043,23.414c0,1.5-0.902,2.195-2.07,2.195
		l-2.43,0.055c-1.5,0-2.27-0.996-2.27-2.16l0.02-23.34c0-1.5,0.926-2.25,2.098-2.25H276.77z"/>
	
		<linearGradient id="SVGID_23_" gradientUnits="userSpaceOnUse" x1="209.7236" y1="201.3066" x2="209.7236" y2="69.3066" gradientTransform="matrix(0.75 0 0 -0.75 380.578 414.6896)">
		<stop  offset="0" style="stop-color:#347E88"/>
		<stop  offset="0.15" style="stop-color:#63B2BE"/>
		<stop  offset="0.25" style="stop-color:#B9D6DC"/>
		<stop  offset="0.52" style="stop-color:#4095A2"/>
		<stop  offset="0.69" style="stop-color:#38848F"/>
		<stop  offset="0.8" style="stop-color:#347D87"/>
		<stop  offset="0.92" style="stop-color:#30757F"/>
		<stop  offset="1" style="stop-color:#398893"/>
	</linearGradient>
	<path fill="url(#SVGID_23_)" d="M532.246,263.711h11.25v99h-11.25V263.711z"/>
	<path fill="#15636C" d="M537.765,140.148h11.25v23.25h-11.25V140.148z"/>
	
		<linearGradient id="SVGID_24_" gradientUnits="userSpaceOnUse" x1="209.7266" y1="201.3047" x2="209.7266" y2="69.3047" gradientTransform="matrix(0.75 0 0 -0.75 379.7206 253.4894)">
		<stop  offset="0" style="stop-color:#347E88"/>
		<stop  offset="0.15" style="stop-color:#63B2BE"/>
		<stop  offset="0.25" style="stop-color:#B9D6DC"/>
		<stop  offset="0.52" style="stop-color:#4095A2"/>
		<stop  offset="0.69" style="stop-color:#38848F"/>
		<stop  offset="0.8" style="stop-color:#347D87"/>
		<stop  offset="0.92" style="stop-color:#30757F"/>
		<stop  offset="1" style="stop-color:#398893"/>
	</linearGradient>
	<path fill="url(#SVGID_24_)" d="M531.39,102.512h11.25v99h-11.25V102.512z"/>
	
		<linearGradient id="SVGID_25_" gradientUnits="userSpaceOnUse" x1="211.6797" y1="201.3027" x2="211.6797" y2="146.3027" gradientTransform="matrix(0.75 0 0 -0.75 393.2557 282.3712)">
		<stop  offset="0" style="stop-color:#347E88"/>
		<stop  offset="0.15" style="stop-color:#63B2BE"/>
		<stop  offset="0.25" style="stop-color:#B9D6DC"/>
		<stop  offset="0.52" style="stop-color:#4095A2"/>
		<stop  offset="0.69" style="stop-color:#38848F"/>
		<stop  offset="0.8" style="stop-color:#347D87"/>
		<stop  offset="0.92" style="stop-color:#30757F"/>
		<stop  offset="1" style="stop-color:#398893"/>
	</linearGradient>
	<path fill="url(#SVGID_25_)" d="M547.925,131.395h8.25c1.5,0,2.969,1.434,2.969,3.246l0.031,34.254c0,2.25-1.508,3.5-3.328,3.5
		l-7.922,0.25c-1.5,0-3.07-1.754-3.07-3.566l0.07-34.684c0-1.5,1.406-3,3.227-3H547.925z"/>
	
		<linearGradient id="SVGID_26_" gradientUnits="userSpaceOnUse" x1="216.7808" y1="201.3027" x2="216.7808" y2="197.8032" gradientTransform="matrix(0.75 0 0 -0.75 389.41 289.9054)">
		<stop  offset="0" style="stop-color:#347E88"/>
		<stop  offset="0.15" style="stop-color:#63B2BE"/>
		<stop  offset="0.25" style="stop-color:#B9D6DC"/>
		<stop  offset="0.52" style="stop-color:#4095A2"/>
		<stop  offset="0.69" style="stop-color:#38848F"/>
		<stop  offset="0.8" style="stop-color:#347D87"/>
		<stop  offset="0.92" style="stop-color:#30757F"/>
		<stop  offset="1" style="stop-color:#398893"/>
	</linearGradient>
	<path fill="url(#SVGID_26_)" d="M541.828,138.93h20.25c0,0,0.883,0.586,0.883,1.309c-0.133,0.941-0.516,1.313-1.152,1.313
		l-19.98-0.371c0,0-0.797-0.215-0.797-0.941c0.047-0.559,0.516-1.309,1.152-1.309H541.828z"/>
	
		<linearGradient id="SVGID_27_" gradientUnits="userSpaceOnUse" x1="216.7808" y1="201.3037" x2="216.7808" y2="197.8037" gradientTransform="matrix(0.75 0 0 -0.75 389.41 297.6613)">
		<stop  offset="0" style="stop-color:#347E88"/>
		<stop  offset="0.15" style="stop-color:#63B2BE"/>
		<stop  offset="0.25" style="stop-color:#B9D6DC"/>
		<stop  offset="0.52" style="stop-color:#4095A2"/>
		<stop  offset="0.69" style="stop-color:#38848F"/>
		<stop  offset="0.8" style="stop-color:#347D87"/>
		<stop  offset="0.92" style="stop-color:#30757F"/>
		<stop  offset="1" style="stop-color:#398893"/>
	</linearGradient>
	<path fill="url(#SVGID_27_)" d="M541.828,146.684h20.25c0,0,0.883,0.586,0.883,1.313c-0.133,0.938-0.516,1.313-1.152,1.313
		l-19.98-0.375c0,0-0.797-0.215-0.797-0.938c0.047-0.563,0.516-1.313,1.152-1.313H541.828z"/>
	
		<linearGradient id="SVGID_28_" gradientUnits="userSpaceOnUse" x1="216.7808" y1="201.3047" x2="216.7808" y2="197.8047" gradientTransform="matrix(0.75 0 0 -0.75 389.41 305.4161)">
		<stop  offset="0" style="stop-color:#347E88"/>
		<stop  offset="0.15" style="stop-color:#63B2BE"/>
		<stop  offset="0.25" style="stop-color:#B9D6DC"/>
		<stop  offset="0.52" style="stop-color:#4095A2"/>
		<stop  offset="0.69" style="stop-color:#38848F"/>
		<stop  offset="0.8" style="stop-color:#347D87"/>
		<stop  offset="0.92" style="stop-color:#30757F"/>
		<stop  offset="1" style="stop-color:#398893"/>
	</linearGradient>
	<path fill="url(#SVGID_28_)" d="M541.828,154.438h20.25c0,0,0.883,0.59,0.883,1.313c-0.133,0.938-0.516,1.313-1.152,1.313
		l-19.98-0.375c0,0-0.797-0.211-0.797-0.938c0.047-0.563,0.516-1.313,1.152-1.313H541.828z"/>
	
		<linearGradient id="SVGID_29_" gradientUnits="userSpaceOnUse" x1="216.7808" y1="201.3027" x2="216.7808" y2="197.8027" gradientTransform="matrix(0.75 0 0 -0.75 389.41 313.172)">
		<stop  offset="0" style="stop-color:#347E88"/>
		<stop  offset="0.15" style="stop-color:#63B2BE"/>
		<stop  offset="0.25" style="stop-color:#B9D6DC"/>
		<stop  offset="0.52" style="stop-color:#4095A2"/>
		<stop  offset="0.69" style="stop-color:#38848F"/>
		<stop  offset="0.8" style="stop-color:#347D87"/>
		<stop  offset="0.92" style="stop-color:#30757F"/>
		<stop  offset="1" style="stop-color:#398893"/>
	</linearGradient>
	<path fill="url(#SVGID_29_)" d="M541.828,162.195h20.25c0,0,0.883,0.586,0.883,1.313c-0.133,0.938-0.516,1.313-1.152,1.313
		l-19.98-0.375c0,0-0.797-0.215-0.797-0.938c0.047-0.563,0.516-1.313,1.152-1.313H541.828z"/>
	<path fill="#1B7F8A" d="M83.363,72.762h442.5v126.75h-442.5V72.762z"/>
</g>
</svg>
