<?xml version="1.0" encoding="utf-8"?>
<!-- Generator: Adobe Illustrator 16.0.0, SVG Export Plug-In . SVG Version: 6.00 Build 0)  -->
<!DOCTYPE svg PUBLIC "-//W3C//DTD SVG 1.1//EN" "http://www.w3.org/Graphics/SVG/1.1/DTD/svg11.dtd">
<svg preserveAspectRatio="none" version="1.1" id="图层_1" xmlns="http://www.w3.org/2000/svg" xmlns:xlink="http://www.w3.org/1999/xlink" x="0px" y="0px"
	 width="299.25px" height="183.07px" viewBox="30 30.945 299.25 183.07" enable-background="new 30 30.945 299.25 183.07"
	 xml:space="preserve">
<g id="surface411">
	
		<linearGradient id="SVGID_1_" gradientUnits="userSpaceOnUse" x1="451.7275" y1="600.4636" x2="52.7275" y2="600.4637" gradientTransform="matrix(0.75 0 0 0.75 -9.5449 -327.8682)">
		<stop  offset="0" style="stop-color:#006190"/>
		<stop  offset="0.02" style="stop-color:#7CABD7"/>
		<stop  offset="0.02" style="stop-color:#0080BC"/>
		<stop  offset="0.64" style="stop-color:#007EB9"/>
		<stop  offset="0.95" style="stop-color:#007BB4"/>
		<stop  offset="1" style="stop-color:#005A85"/>
	</linearGradient>
	<path fill="url(#SVGID_1_)" d="M31.5,30.945h296.25c0.75,0,1.5,0.805,1.5,1.801v179.699c0,0.75-0.813,1.57-1.813,1.57L31.5,213.945
		c-0.75,0-1.5-0.738-1.5-1.734V32.445c0-0.75,0.813-1.5,1.813-1.5H31.5z"/>
	<path fill="#EEEEEE" d="M37.605,38.953h282v168h-282V38.953L37.605,38.953z"/>
	<path d="M37.605,38.953h282v48h-282V38.953L37.605,38.953z"/>
	
		<linearGradient id="SVGID_2_" gradientUnits="userSpaceOnUse" x1="78.7607" y1="485.4656" x2="52.7256" y2="485.4656" gradientTransform="matrix(0.75 0 0 0.75 21.8306 -258.129)">
		<stop  offset="0" style="stop-color:#909191"/>
		<stop  offset="0.03" style="stop-color:#D8D9D9"/>
		<stop  offset="0.08" style="stop-color:#BDBEBE"/>
		<stop  offset="0.64" style="stop-color:#BABABA"/>
		<stop  offset="0.95" style="stop-color:#B5B6B6"/>
		<stop  offset="1" style="stop-color:#868787"/>
	</linearGradient>
	<path fill="url(#SVGID_2_)" d="M62.875,100.684h16.5c0.75,0,1.527,0.805,1.527,1.805l-0.027,7.195c0,0.75-0.785,1.569-1.785,1.569
		l-16.215-0.069c-0.75,0-1.5-0.738-1.5-1.734v-7.266c0-0.75,0.813-1.5,1.813-1.5H62.875z"/>
	
		<linearGradient id="SVGID_3_" gradientUnits="userSpaceOnUse" x1="78.7607" y1="485.4617" x2="52.7256" y2="485.4617" gradientTransform="matrix(0.75 0 0 0.75 21.8306 -241.0059)">
		<stop  offset="0" style="stop-color:#909191"/>
		<stop  offset="0.03" style="stop-color:#D8D9D9"/>
		<stop  offset="0.08" style="stop-color:#BDBEBE"/>
		<stop  offset="0.64" style="stop-color:#BABABA"/>
		<stop  offset="0.95" style="stop-color:#B5B6B6"/>
		<stop  offset="1" style="stop-color:#868787"/>
	</linearGradient>
	<path fill="url(#SVGID_3_)" d="M62.875,117.805h16.5c0.75,0,1.527,0.809,1.527,1.805l-0.027,7.195c0,0.75-0.785,1.569-1.785,1.569
		l-16.215-0.069c-0.75,0-1.5-0.738-1.5-1.734v-7.266c0-0.75,0.813-1.5,1.813-1.5H62.875z"/>
	
		<linearGradient id="SVGID_4_" gradientUnits="userSpaceOnUse" x1="78.7607" y1="485.4636" x2="52.7256" y2="485.4636" gradientTransform="matrix(0.75 0 0 0.75 21.8306 -224.0938)">
		<stop  offset="0" style="stop-color:#909191"/>
		<stop  offset="0.03" style="stop-color:#D8D9D9"/>
		<stop  offset="0.08" style="stop-color:#BDBEBE"/>
		<stop  offset="0.64" style="stop-color:#BABABA"/>
		<stop  offset="0.95" style="stop-color:#B5B6B6"/>
		<stop  offset="1" style="stop-color:#868787"/>
	</linearGradient>
	<path fill="url(#SVGID_4_)" d="M62.875,134.719h16.5c0.75,0,1.527,0.806,1.527,1.806l-0.027,7.194c0,0.75-0.785,1.57-1.785,1.57
		l-16.215-0.07c-0.75,0-1.5-0.737-1.5-1.733v-7.267c0-0.75,0.813-1.5,1.813-1.5H62.875z"/>
	
		<linearGradient id="SVGID_5_" gradientUnits="userSpaceOnUse" x1="78.7573" y1="485.4656" x2="52.7271" y2="485.4656" gradientTransform="matrix(0.75 0 0 0.75 49.8452 -258.129)">
		<stop  offset="0" style="stop-color:#909191"/>
		<stop  offset="0.03" style="stop-color:#D8D9D9"/>
		<stop  offset="0.08" style="stop-color:#BDBEBE"/>
		<stop  offset="0.64" style="stop-color:#BABABA"/>
		<stop  offset="0.95" style="stop-color:#B5B6B6"/>
		<stop  offset="1" style="stop-color:#868787"/>
	</linearGradient>
	<path fill="url(#SVGID_5_)" d="M90.891,100.684h16.5c0.75,0,1.523,0.805,1.523,1.805l-0.023,7.195c0,0.75-0.785,1.569-1.785,1.569
		l-16.215-0.069c-0.75,0-1.5-0.738-1.5-1.734v-7.266c0-0.75,0.809-1.5,1.813-1.5H90.891z"/>
	
		<linearGradient id="SVGID_6_" gradientUnits="userSpaceOnUse" x1="78.7573" y1="485.4617" x2="52.7271" y2="485.4617" gradientTransform="matrix(0.75 0 0 0.75 49.8452 -241.0059)">
		<stop  offset="0" style="stop-color:#909191"/>
		<stop  offset="0.03" style="stop-color:#D8D9D9"/>
		<stop  offset="0.08" style="stop-color:#BDBEBE"/>
		<stop  offset="0.64" style="stop-color:#BABABA"/>
		<stop  offset="0.95" style="stop-color:#B5B6B6"/>
		<stop  offset="1" style="stop-color:#868787"/>
	</linearGradient>
	<path fill="url(#SVGID_6_)" d="M90.891,117.805h16.5c0.75,0,1.523,0.809,1.523,1.805l-0.023,7.195c0,0.75-0.785,1.569-1.785,1.569
		l-16.215-0.069c-0.75,0-1.5-0.738-1.5-1.734v-7.266c0-0.75,0.809-1.5,1.813-1.5H90.891z"/>
	
		<linearGradient id="SVGID_7_" gradientUnits="userSpaceOnUse" x1="78.7573" y1="485.4636" x2="52.7271" y2="485.4636" gradientTransform="matrix(0.75 0 0 0.75 49.8452 -224.0938)">
		<stop  offset="0" style="stop-color:#909191"/>
		<stop  offset="0.03" style="stop-color:#D8D9D9"/>
		<stop  offset="0.08" style="stop-color:#BDBEBE"/>
		<stop  offset="0.64" style="stop-color:#BABABA"/>
		<stop  offset="0.95" style="stop-color:#B5B6B6"/>
		<stop  offset="1" style="stop-color:#868787"/>
	</linearGradient>
	<path fill="url(#SVGID_7_)" d="M90.891,134.719h16.5c0.75,0,1.523,0.806,1.523,1.806l-0.023,7.194c0,0.75-0.785,1.57-1.785,1.57
		l-16.215-0.07c-0.75,0-1.5-0.737-1.5-1.733v-7.267c0-0.75,0.809-1.5,1.813-1.5H90.891z"/>
	
		<linearGradient id="SVGID_8_" gradientUnits="userSpaceOnUse" x1="78.7573" y1="485.4656" x2="52.7271" y2="485.4656" gradientTransform="matrix(0.75 0 0 0.75 77.8604 -258.129)">
		<stop  offset="0" style="stop-color:#909191"/>
		<stop  offset="0.03" style="stop-color:#D8D9D9"/>
		<stop  offset="0.08" style="stop-color:#BDBEBE"/>
		<stop  offset="0.64" style="stop-color:#BABABA"/>
		<stop  offset="0.95" style="stop-color:#B5B6B6"/>
		<stop  offset="1" style="stop-color:#868787"/>
	</linearGradient>
	<path fill="url(#SVGID_8_)" d="M118.906,100.684h16.5c0.75,0,1.523,0.805,1.523,1.805l-0.023,7.195c0,0.75-0.785,1.569-1.785,1.569
		l-16.215-0.069c-0.75,0-1.5-0.738-1.5-1.734v-7.266c0-0.75,0.809-1.5,1.809-1.5H118.906z"/>
	
		<linearGradient id="SVGID_9_" gradientUnits="userSpaceOnUse" x1="78.7573" y1="485.4617" x2="52.7271" y2="485.4617" gradientTransform="matrix(0.75 0 0 0.75 77.8604 -241.0059)">
		<stop  offset="0" style="stop-color:#909191"/>
		<stop  offset="0.03" style="stop-color:#D8D9D9"/>
		<stop  offset="0.08" style="stop-color:#BDBEBE"/>
		<stop  offset="0.64" style="stop-color:#BABABA"/>
		<stop  offset="0.95" style="stop-color:#B5B6B6"/>
		<stop  offset="1" style="stop-color:#868787"/>
	</linearGradient>
	<path fill="url(#SVGID_9_)" d="M118.906,117.805h16.5c0.75,0,1.523,0.809,1.523,1.805l-0.023,7.195c0,0.75-0.785,1.569-1.785,1.569
		l-16.215-0.069c-0.75,0-1.5-0.738-1.5-1.734v-7.266c0-0.75,0.809-1.5,1.809-1.5H118.906z"/>
	
		<linearGradient id="SVGID_10_" gradientUnits="userSpaceOnUse" x1="78.7573" y1="485.4636" x2="52.7271" y2="485.4636" gradientTransform="matrix(0.75 0 0 0.75 77.8604 -224.0938)">
		<stop  offset="0" style="stop-color:#909191"/>
		<stop  offset="0.03" style="stop-color:#D8D9D9"/>
		<stop  offset="0.08" style="stop-color:#BDBEBE"/>
		<stop  offset="0.64" style="stop-color:#BABABA"/>
		<stop  offset="0.95" style="stop-color:#B5B6B6"/>
		<stop  offset="1" style="stop-color:#868787"/>
	</linearGradient>
	<path fill="url(#SVGID_10_)" d="M118.906,134.719h16.5c0.75,0,1.523,0.806,1.523,1.806l-0.023,7.194c0,0.75-0.785,1.57-1.785,1.57
		l-16.215-0.07c-0.75,0-1.5-0.737-1.5-1.733v-7.267c0-0.75,0.809-1.5,1.809-1.5H118.906z"/>
	<path fill="#C9CCCE" d="M46.906,157.617h265.5v43.5h-265.5C46.906,201.117,46.906,157.617,46.906,157.617z"/>
	
		<linearGradient id="SVGID_11_" gradientUnits="userSpaceOnUse" x1="68.9268" y1="484.4285" x2="52.7021" y2="484.4285" gradientTransform="matrix(0.75 0 0 0.75 113.25 -257.2833)">
		<stop  offset="0" style="stop-color:#B3A593"/>
		<stop  offset="0.03" style="stop-color:#FDEEDA"/>
		<stop  offset="0.08" style="stop-color:#E9D7BF"/>
		<stop  offset="0.64" style="stop-color:#E5D3BC"/>
		<stop  offset="0.95" style="stop-color:#E0CEB8"/>
		<stop  offset="1" style="stop-color:#A69988"/>
	</linearGradient>
	<path fill="url(#SVGID_11_)" d="M154.297,101.527h9c0.75,0,1.648,0.809,1.648,1.805l-0.148,5.695c0,0.75-0.664,1.52-1.664,1.52
		l-8.836-0.02c-0.75,0-1.52-0.789-1.52-1.785l0.02-5.715c0-0.75,0.793-1.5,1.793-1.5H154.297L154.297,101.527z"/>
	
		<linearGradient id="SVGID_12_" gradientUnits="userSpaceOnUse" x1="68.9248" y1="484.4285" x2="52.7002" y2="484.4285" gradientTransform="matrix(0.75 0 0 0.75 136.4546 -257.2833)">
		<stop  offset="0" style="stop-color:#B3A593"/>
		<stop  offset="0.03" style="stop-color:#FDEEDA"/>
		<stop  offset="0.08" style="stop-color:#E9D7BF"/>
		<stop  offset="0.64" style="stop-color:#E5D3BC"/>
		<stop  offset="0.95" style="stop-color:#E0CEB8"/>
		<stop  offset="1" style="stop-color:#A69988"/>
	</linearGradient>
	<path fill="url(#SVGID_12_)" d="M177.5,101.527h9c0.75,0,1.648,0.809,1.648,1.805L188,109.027c0,0.75-0.66,1.52-1.66,1.52
		l-8.84-0.02c-0.75,0-1.52-0.789-1.52-1.785l0.02-5.715c0-0.75,0.793-1.5,1.793-1.5H177.5L177.5,101.527z"/>
	
		<linearGradient id="SVGID_13_" gradientUnits="userSpaceOnUse" x1="68.9263" y1="484.4285" x2="52.7026" y2="484.4285" gradientTransform="matrix(0.75 0 0 0.75 157.9609 -257.2833)">
		<stop  offset="0" style="stop-color:#B3A593"/>
		<stop  offset="0.03" style="stop-color:#FDEEDA"/>
		<stop  offset="0.08" style="stop-color:#E9D7BF"/>
		<stop  offset="0.64" style="stop-color:#E5D3BC"/>
		<stop  offset="0.95" style="stop-color:#E0CEB8"/>
		<stop  offset="1" style="stop-color:#A69988"/>
	</linearGradient>
	<path fill="url(#SVGID_13_)" d="M199.004,101.527h9c0.75,0,1.652,0.809,1.652,1.805l-0.152,5.695c0,0.75-0.66,1.52-1.66,1.52
		l-8.84-0.02c-0.75,0-1.516-0.789-1.516-1.785l0.016-5.715c0-0.75,0.797-1.5,1.797-1.5H199.004L199.004,101.527z"/>
	
		<linearGradient id="SVGID_14_" gradientUnits="userSpaceOnUse" x1="68.9258" y1="484.4285" x2="52.7021" y2="484.4285" gradientTransform="matrix(0.75 0 0 0.75 181.5044 -257.2833)">
		<stop  offset="0" style="stop-color:#B3A593"/>
		<stop  offset="0.03" style="stop-color:#FDEEDA"/>
		<stop  offset="0.08" style="stop-color:#E9D7BF"/>
		<stop  offset="0.64" style="stop-color:#E5D3BC"/>
		<stop  offset="0.95" style="stop-color:#E0CEB8"/>
		<stop  offset="1" style="stop-color:#A69988"/>
	</linearGradient>
	<path fill="url(#SVGID_14_)" d="M222.551,101.527h9c0.75,0,1.648,0.809,1.648,1.805l-0.148,5.695c0,0.75-0.66,1.52-1.66,1.52
		l-8.84-0.02c-0.75,0-1.52-0.789-1.52-1.785l0.02-5.715c0-0.75,0.793-1.5,1.793-1.5H222.551L222.551,101.527z"/>
	
		<linearGradient id="SVGID_15_" gradientUnits="userSpaceOnUse" x1="68.9268" y1="484.4265" x2="52.7021" y2="484.4265" gradientTransform="matrix(0.75 0 0 0.75 113.25 -240.3448)">
		<stop  offset="0" style="stop-color:#B3A593"/>
		<stop  offset="0.03" style="stop-color:#FDEEDA"/>
		<stop  offset="0.08" style="stop-color:#E9D7BF"/>
		<stop  offset="0.64" style="stop-color:#E5D3BC"/>
		<stop  offset="0.95" style="stop-color:#E0CEB8"/>
		<stop  offset="1" style="stop-color:#A69988"/>
	</linearGradient>
	<path fill="url(#SVGID_15_)" d="M154.297,118.465h9c0.75,0,1.648,0.81,1.648,1.806l-0.148,5.694c0,0.75-0.664,1.521-1.664,1.521
		l-8.836-0.021c-0.75,0-1.52-0.784-1.52-1.78l0.02-5.72c0-0.75,0.793-1.5,1.793-1.5H154.297z"/>
	
		<linearGradient id="SVGID_16_" gradientUnits="userSpaceOnUse" x1="68.9248" y1="484.4265" x2="52.7002" y2="484.4265" gradientTransform="matrix(0.75 0 0 0.75 136.4546 -240.3448)">
		<stop  offset="0" style="stop-color:#B3A593"/>
		<stop  offset="0.03" style="stop-color:#FDEEDA"/>
		<stop  offset="0.08" style="stop-color:#E9D7BF"/>
		<stop  offset="0.64" style="stop-color:#E5D3BC"/>
		<stop  offset="0.95" style="stop-color:#E0CEB8"/>
		<stop  offset="1" style="stop-color:#A69988"/>
	</linearGradient>
	<path fill="url(#SVGID_16_)" d="M177.5,118.465h9c0.75,0,1.648,0.81,1.648,1.806L188,125.965c0,0.75-0.66,1.521-1.66,1.521
		l-8.84-0.021c-0.75,0-1.52-0.784-1.52-1.78l0.02-5.72c0-0.75,0.793-1.5,1.793-1.5H177.5z"/>
	
		<linearGradient id="SVGID_17_" gradientUnits="userSpaceOnUse" x1="68.9263" y1="484.4265" x2="52.7026" y2="484.4265" gradientTransform="matrix(0.75 0 0 0.75 157.9609 -240.3448)">
		<stop  offset="0" style="stop-color:#B3A593"/>
		<stop  offset="0.03" style="stop-color:#FDEEDA"/>
		<stop  offset="0.08" style="stop-color:#E9D7BF"/>
		<stop  offset="0.64" style="stop-color:#E5D3BC"/>
		<stop  offset="0.95" style="stop-color:#E0CEB8"/>
		<stop  offset="1" style="stop-color:#A69988"/>
	</linearGradient>
	<path fill="url(#SVGID_17_)" d="M199.004,118.465h9c0.75,0,1.652,0.81,1.652,1.806l-0.152,5.694c0,0.75-0.66,1.521-1.66,1.521
		l-8.84-0.021c-0.75,0-1.516-0.784-1.516-1.78l0.016-5.72c0-0.75,0.797-1.5,1.797-1.5H199.004z"/>
	
		<linearGradient id="SVGID_18_" gradientUnits="userSpaceOnUse" x1="68.9258" y1="484.4265" x2="52.7021" y2="484.4265" gradientTransform="matrix(0.75 0 0 0.75 181.5044 -240.3448)">
		<stop  offset="0" style="stop-color:#B3A593"/>
		<stop  offset="0.03" style="stop-color:#FDEEDA"/>
		<stop  offset="0.08" style="stop-color:#E9D7BF"/>
		<stop  offset="0.64" style="stop-color:#E5D3BC"/>
		<stop  offset="0.95" style="stop-color:#E0CEB8"/>
		<stop  offset="1" style="stop-color:#A69988"/>
	</linearGradient>
	<path fill="url(#SVGID_18_)" d="M222.551,118.465h9c0.75,0,1.648,0.81,1.648,1.806l-0.148,5.694c0,0.75-0.66,1.521-1.66,1.521
		l-8.84-0.021c-0.75,0-1.52-0.784-1.52-1.78l0.02-5.72c0-0.75,0.793-1.5,1.793-1.5H222.551z"/>
	
		<linearGradient id="SVGID_19_" gradientUnits="userSpaceOnUse" x1="68.9268" y1="484.4324" x2="52.7021" y2="484.4324" gradientTransform="matrix(0.75 0 0 0.75 113.25 -223.4073)">
		<stop  offset="0" style="stop-color:#B3A593"/>
		<stop  offset="0.03" style="stop-color:#FDEEDA"/>
		<stop  offset="0.08" style="stop-color:#E9D7BF"/>
		<stop  offset="0.64" style="stop-color:#E5D3BC"/>
		<stop  offset="0.95" style="stop-color:#E0CEB8"/>
		<stop  offset="1" style="stop-color:#A69988"/>
	</linearGradient>
	<path fill="url(#SVGID_19_)" d="M154.297,135.406h9c0.75,0,1.648,0.805,1.648,1.801l-0.148,5.699c0,0.75-0.664,1.52-1.664,1.52
		l-8.836-0.02c-0.75,0-1.52-0.789-1.52-1.785l0.02-5.715c0-0.75,0.793-1.5,1.793-1.5H154.297z"/>
	
		<linearGradient id="SVGID_20_" gradientUnits="userSpaceOnUse" x1="68.9248" y1="484.4324" x2="52.7002" y2="484.4324" gradientTransform="matrix(0.75 0 0 0.75 136.4546 -223.4073)">
		<stop  offset="0" style="stop-color:#B3A593"/>
		<stop  offset="0.03" style="stop-color:#FDEEDA"/>
		<stop  offset="0.08" style="stop-color:#E9D7BF"/>
		<stop  offset="0.64" style="stop-color:#E5D3BC"/>
		<stop  offset="0.95" style="stop-color:#E0CEB8"/>
		<stop  offset="1" style="stop-color:#A69988"/>
	</linearGradient>
	<path fill="url(#SVGID_20_)" d="M177.5,135.406h9c0.75,0,1.648,0.805,1.648,1.801L188,142.906c0,0.75-0.66,1.52-1.66,1.52
		l-8.84-0.02c-0.75,0-1.52-0.789-1.52-1.785l0.02-5.715c0-0.75,0.793-1.5,1.793-1.5H177.5z"/>
	
		<linearGradient id="SVGID_21_" gradientUnits="userSpaceOnUse" x1="68.9263" y1="484.4324" x2="52.7026" y2="484.4324" gradientTransform="matrix(0.75 0 0 0.75 157.9609 -223.4073)">
		<stop  offset="0" style="stop-color:#B3A593"/>
		<stop  offset="0.03" style="stop-color:#FDEEDA"/>
		<stop  offset="0.08" style="stop-color:#E9D7BF"/>
		<stop  offset="0.64" style="stop-color:#E5D3BC"/>
		<stop  offset="0.95" style="stop-color:#E0CEB8"/>
		<stop  offset="1" style="stop-color:#A69988"/>
	</linearGradient>
	<path fill="url(#SVGID_21_)" d="M199.004,135.406h9c0.75,0,1.652,0.805,1.652,1.801l-0.152,5.699c0,0.75-0.66,1.52-1.66,1.52
		l-8.84-0.02c-0.75,0-1.516-0.789-1.516-1.785l0.016-5.715c0-0.75,0.797-1.5,1.797-1.5H199.004z"/>
	
		<linearGradient id="SVGID_22_" gradientUnits="userSpaceOnUse" x1="68.9258" y1="484.4324" x2="52.7021" y2="484.4324" gradientTransform="matrix(0.75 0 0 0.75 181.5044 -223.4073)">
		<stop  offset="0" style="stop-color:#B3A593"/>
		<stop  offset="0.03" style="stop-color:#FDEEDA"/>
		<stop  offset="0.08" style="stop-color:#E9D7BF"/>
		<stop  offset="0.64" style="stop-color:#E5D3BC"/>
		<stop  offset="0.95" style="stop-color:#E0CEB8"/>
		<stop  offset="1" style="stop-color:#A69988"/>
	</linearGradient>
	<path fill="url(#SVGID_22_)" d="M222.551,135.406h9c0.75,0,1.648,0.805,1.648,1.801l-0.148,5.699c0,0.75-0.66,1.52-1.66,1.52
		l-8.84-0.02c-0.75,0-1.52-0.789-1.52-1.785l0.02-5.715c0-0.75,0.793-1.5,1.793-1.5H222.551z"/>
	
		<linearGradient id="SVGID_23_" gradientUnits="userSpaceOnUse" x1="75.7251" y1="496.9148" x2="52.7251" y2="496.9148" gradientTransform="matrix(0.75 0 0 0.75 213.5767 -241.7247)">
		<stop  offset="0" style="stop-color:#3D83AD"/>
		<stop  offset="0.03" style="stop-color:#F0F7FD"/>
		<stop  offset="0.08" style="stop-color:#51ACE1"/>
		<stop  offset="0.64" style="stop-color:#50A9DD"/>
		<stop  offset="0.95" style="stop-color:#4EA5D8"/>
		<stop  offset="1" style="stop-color:#387AA0"/>
	</linearGradient>
	<path fill="url(#SVGID_23_)" d="M253.121,117.086h17.25v27.75h-17.25V117.086z"/>
	
		<linearGradient id="SVGID_24_" gradientUnits="userSpaceOnUse" x1="52.7285" y1="493.4177" x2="68.7285" y2="493.4177" gradientTransform="matrix(0.75 0 0 0.75 216.2935 -238.793)">
		<stop  offset="0" style="stop-color:#A4CFEA"/>
		<stop  offset="0.39" style="stop-color:#469DD4"/>
		<stop  offset="1" style="stop-color:#0062B3"/>
	</linearGradient>
	<path fill="url(#SVGID_24_)" d="M255.84,120.02h12v22.5h-12V120.02z"/>
	
		<linearGradient id="SVGID_25_" gradientUnits="userSpaceOnUse" x1="108.3926" y1="506.0837" x2="52.7275" y2="506.0837" gradientTransform="matrix(0.75 0 0 0.75 225.3486 -316.5235)">
		<stop  offset="0" style="stop-color:#898A8A"/>
		<stop  offset="0.15" style="stop-color:#BABBBB"/>
		<stop  offset="0.25" style="stop-color:#DADADA"/>
		<stop  offset="0.44" style="stop-color:#9D9E9E"/>
		<stop  offset="0.6" style="stop-color:#8B8C8C"/>
		<stop  offset="0.8" style="stop-color:#757676"/>
		<stop  offset="0.97" style="stop-color:#6B6B6B"/>
		<stop  offset="1" style="stop-color:#8F9090"/>
	</linearGradient>
	<path fill="url(#SVGID_25_)" d="M264.895,63.289c0-12,9.344-21.051,20.896-21.051c11.354,0.051,20.849,9.309,20.849,20.824
		c0.258,11.477-9.349,20.776-20.849,20.776c-11.896-0.301-20.896-9.332-20.896-20.776V63.289z"/>
	
		<linearGradient id="SVGID_26_" gradientUnits="userSpaceOnUse" x1="52.6689" y1="500.3201" x2="96.877" y2="500.3201" gradientTransform="matrix(0.75 0 0 0.75 229.9985 -312.5928)">
		<stop  offset="0" style="stop-color:#DBDCDC"/>
		<stop  offset="1" style="stop-color:#9A9B9B"/>
	</linearGradient>
	<path fill="url(#SVGID_26_)" d="M269.543,62.719c0-9,7.379-16.586,16.535-16.586c8.965,0.086,16.578,7.396,16.578,16.513
		c-0.113,9.073-7.422,16.516-16.578,16.516c-9.035,0.06-16.578-7.395-16.578-16.516L269.543,62.719z"/>
	<path fill="#FFFFFF" fill-opacity="0.2196" d="M37.605,38.953h32.25l194.25,48h-226.5V38.953L37.605,38.953z"/>
	
		<linearGradient id="SVGID_27_" gradientUnits="userSpaceOnUse" x1="92.7207" y1="498.3035" x2="52.7266" y2="498.3035" gradientTransform="matrix(0.75 0 0 0.75 181.439 -193.5508)">
		<stop  offset="0" style="stop-color:#C4AA84"/>
		<stop  offset="0.15" style="stop-color:#FFE0B3"/>
		<stop  offset="0.25" style="stop-color:#FFEED7"/>
		<stop  offset="0.44" style="stop-color:#DFC297"/>
		<stop  offset="0.6" style="stop-color:#C7AD86"/>
		<stop  offset="0.8" style="stop-color:#A89170"/>
		<stop  offset="0.97" style="stop-color:#998566"/>
		<stop  offset="1" style="stop-color:#CBB189"/>
	</linearGradient>
	<path fill="url(#SVGID_27_)" d="M220.984,180.262c0-8.25,6.715-15.035,15.016-15.035c8.234,0.035,14.98,6.688,14.98,14.965
		c0.004,8.32-6.715,14.93-14.98,14.93c-8.266,0.142-15.016-6.707-15.016-14.93V180.262z"/>
	<path fill="#2D2929" d="M229.207,180.176c0-3.75,3.023-6.784,6.773-6.784c3.727,0.034,6.793,3.026,6.793,6.766
		c-0.066,3.77-3.039,6.766-6.793,6.766c-3.773,0.004-6.789-3.03-6.789-6.766L229.207,180.176z"/>
	
		<linearGradient id="SVGID_28_" gradientUnits="userSpaceOnUse" x1="92.7192" y1="498.3035" x2="52.7241" y2="498.3035" gradientTransform="matrix(0.75 0 0 0.75 224.1514 -193.5508)">
		<stop  offset="0" style="stop-color:#9DB098"/>
		<stop  offset="0.15" style="stop-color:#D0E8CB"/>
		<stop  offset="0.25" style="stop-color:#E5F2E2"/>
		<stop  offset="0.44" style="stop-color:#B3C9AE"/>
		<stop  offset="0.6" style="stop-color:#9FB39B"/>
		<stop  offset="0.8" style="stop-color:#869782"/>
		<stop  offset="0.97" style="stop-color:#7A8A76"/>
		<stop  offset="1" style="stop-color:#A3B79E"/>
	</linearGradient>
	<path fill="url(#SVGID_28_)" d="M263.695,180.262c0-8.25,6.715-15.035,15.016-15.035c8.234,0.035,14.98,6.688,14.98,14.965
		c0.004,8.32-6.715,14.93-14.98,14.93c-8.266,0.142-15.016-6.707-15.016-14.93V180.262z"/>
	<path d="M271.922,180.176c0-3.75,3.02-6.784,6.773-6.784c3.727,0.034,6.789,3.026,6.789,6.766c-0.063,3.77-3.039,6.766-6.789,6.766
		c-3.773,0.004-6.793-3.03-6.793-6.766L271.922,180.176z"/>
	
		<linearGradient id="SVGID_29_" gradientUnits="userSpaceOnUse" x1="73.4595" y1="488.7263" x2="52.7246" y2="488.7263" gradientTransform="matrix(0.75 0 0 0.75 19.8662 -176.6094)">
		<stop  offset="0" style="stop-color:#6895B4"/>
		<stop  offset="0.15" style="stop-color:#94C7EC"/>
		<stop  offset="0.25" style="stop-color:#CAE1F4"/>
		<stop  offset="0.44" style="stop-color:#77AACE"/>
		<stop  offset="0.6" style="stop-color:#6997B7"/>
		<stop  offset="0.8" style="stop-color:#587F9A"/>
		<stop  offset="0.97" style="stop-color:#50748D"/>
		<stop  offset="1" style="stop-color:#6C9BBB"/>
	</linearGradient>
	<path fill="url(#SVGID_29_)" d="M59.41,189.703c0-3.75,3.48-7.52,7.781-7.52c4.219,0.02,7.762,3.465,7.762,7.754
		c0.207,4.266-3.48,7.733-7.762,7.733c-4.031,0.281-7.781-3.473-7.781-7.733V189.703z"/>
	<path fill="#89C3EB" d="M63.672,190.184c0-2.25,1.566-3.771,3.508-3.771c1.742,0.021,3.52,1.57,3.52,3.504
		c-0.277,1.767-1.574,3.504-3.52,3.504c-2.008-0.237-3.516-1.565-3.516-3.504L63.672,190.184z"/>
	
		<linearGradient id="SVGID_30_" gradientUnits="userSpaceOnUse" x1="73.458" y1="488.7263" x2="52.7285" y2="488.7263" gradientTransform="matrix(0.75 0 0 0.75 50.0083 -176.6094)">
		<stop  offset="0" style="stop-color:#676768"/>
		<stop  offset="0.15" style="stop-color:#939394"/>
		<stop  offset="0.25" style="stop-color:#C9C9CA"/>
		<stop  offset="0.44" style="stop-color:#767677"/>
		<stop  offset="0.6" style="stop-color:#696969"/>
		<stop  offset="0.8" style="stop-color:#575758"/>
		<stop  offset="0.97" style="stop-color:#4F4F50"/>
		<stop  offset="1" style="stop-color:#6B6B6C"/>
	</linearGradient>
	<path fill="url(#SVGID_30_)" d="M89.555,189.703c0-3.75,3.477-7.52,7.777-7.52c4.223,0.02,7.762,3.465,7.762,7.754
		c0.211,4.266-3.48,7.733-7.762,7.733c-4.027,0.281-7.777-3.473-7.777-7.733V189.703z"/>
	<path fill="#888889" d="M93.813,190.184c0-2.25,1.566-3.771,3.512-3.771c1.738,0.021,3.52,1.57,3.52,3.504
		c-0.281,1.767-1.578,3.504-3.52,3.504c-2.012-0.237-3.52-1.565-3.52-3.504L93.813,190.184z"/>
</g>
</svg>
