<?xml version="1.0" encoding="utf-8"?>
<!-- Generator: Adobe Illustrator 16.0.0, SVG Export Plug-In . SVG Version: 6.00 Build 0)  -->
<!DOCTYPE svg PUBLIC "-//W3C//DTD SVG 1.1//EN" "http://www.w3.org/Graphics/SVG/1.1/DTD/svg11.dtd">
<svg preserveAspectRatio="none" version="1.1" id="图层_1" xmlns="http://www.w3.org/2000/svg" xmlns:xlink="http://www.w3.org/1999/xlink" x="0px" y="0px"
	 width="299.25px" height="303.239px" viewBox="30 -29.141 299.25 303.239" enable-background="new 30 -29.141 299.25 303.239"
	 xml:space="preserve">
<g id="surface441">
	
		<linearGradient id="SVGID_1_" gradientUnits="userSpaceOnUse" x1="451.7256" y1="660.5469" x2="52.7256" y2="660.5468" gradientTransform="matrix(0.75 0 0 0.75 -9.5449 -372.9312)">
		<stop  offset="0" style="stop-color:#292525"/>
		<stop  offset="0.02" style="stop-color:#868584"/>
		<stop  offset="0.02" style="stop-color:#383433"/>
		<stop  offset="0.64" style="stop-color:#373332"/>
		<stop  offset="0.95" style="stop-color:#363130"/>
		<stop  offset="1" style="stop-color:#252221"/>
	</linearGradient>
	<path fill="url(#SVGID_1_)" d="M34.5-29.141H324c3,0,5.25,2.148,5.25,4.84v293.66c0,2.25-2.25,4.738-4.938,4.738L34.5,273.859
		c-2.25,0-4.5-2.043-4.5-4.73v-293.77c0-2.25,2.117-4.5,4.809-4.5H34.5z"/>
	<path fill="#888889" d="M52.996-10.594h252.75c3,0,5.008,2.133,5.008,4.777l0.242,256.223c0,3-2.387,5.145-5.031,5.145
		l-252.969,0.105c-2.25,0-4.5-2.277-4.5-4.922V-6.094c0-2.25,2.105-4.5,4.746-4.5H52.996z"/>
	<path fill="#EEEEEE" d="M58.816-4.18h241.5c2.25,0,4.617,2.039,4.617,4.563l-0.117,245.188c0,2.25-1.935,4.582-4.457,4.582
		L58.816,250.07c-2.25,0-4.5-1.996-4.5-4.521V0.32c0-2.25,2.012-4.5,4.539-4.5H58.816z"/>
	
		<linearGradient id="SVGID_2_" gradientUnits="userSpaceOnUse" x1="44.2998" y1="510.2363" x2="130.2178" y2="478.9647" gradientTransform="matrix(0.75 0 0 0.75 153.8369 -214.6646)">
		<stop  offset="0" style="stop-color:#000000"/>
		<stop  offset="0.15" style="stop-color:#454545"/>
		<stop  offset="0.25" style="stop-color:#B3B3B3"/>
		<stop  offset="0.44" style="stop-color:#000000"/>
		<stop  offset="0.6" style="stop-color:#000000"/>
		<stop  offset="0.8" style="stop-color:#000000"/>
		<stop  offset="0.97" style="stop-color:#000000"/>
		<stop  offset="1" style="stop-color:#000000"/>
	</linearGradient>
	<path fill="url(#SVGID_2_)" d="M193.383,129.125l46.5,56.25l6-6L193.383,129.125z"/>
	<path fill="none" stroke="#000000" stroke-linejoin="bevel" stroke-miterlimit="10" d="M172.793,197.113h13.5"/>
	<path fill="none" stroke="#000000" stroke-linejoin="bevel" stroke-miterlimit="10" d="M178.012,159.086l12,5.25"/>
	<path fill="none" stroke="#000000" stroke-linejoin="bevel" stroke-miterlimit="10" d="M219.648,116.113l6,10.5"/>
	<path fill="none" stroke="#000000" stroke-linejoin="bevel" stroke-miterlimit="10" d="M260.637,109.281l-0.008,12"/>
	
		<linearGradient id="SVGID_3_" gradientUnits="userSpaceOnUse" x1="136.7368" y1="479.7744" x2="44.9261" y2="513.1908" gradientTransform="matrix(0.75 0 0 0.75 192.5063 -173.2456)">
		<stop  offset="0" style="stop-color:#676768"/>
		<stop  offset="0.15" style="stop-color:#939394"/>
		<stop  offset="0.25" style="stop-color:#C9C9CA"/>
		<stop  offset="0.44" style="stop-color:#767677"/>
		<stop  offset="0.6" style="stop-color:#696969"/>
		<stop  offset="0.8" style="stop-color:#575758"/>
		<stop  offset="0.97" style="stop-color:#4F4F50"/>
		<stop  offset="1" style="stop-color:#6B6B6C"/>
	</linearGradient>
	<path fill="url(#SVGID_3_)" d="M232.051,199.043c0-15.75,12.793-28.5,28.586-28.5c15.664,0,28.586,12.797,28.586,28.586
		c-0.172,15.664-12.815,28.586-28.586,28.586c-15.836-0.172-28.586-12.813-28.586-28.586V199.043z"/>
	
		<linearGradient id="SVGID_4_" gradientUnits="userSpaceOnUse" x1="181.9688" y1="-119.1221" x2="144.0811" y2="-105.3321" gradientTransform="matrix(0.5303 0.5303 -0.5303 0.5303 114.6085 172.1647)">
		<stop  offset="0" style="stop-color:#B6B6B6"/>
		<stop  offset="0.15" style="stop-color:#EFEFEF"/>
		<stop  offset="0.25" style="stop-color:#F6F6F6"/>
		<stop  offset="0.44" style="stop-color:#D0D0D0"/>
		<stop  offset="0.6" style="stop-color:#B9B9B9"/>
		<stop  offset="0.8" style="stop-color:#9C9C9C"/>
		<stop  offset="0.97" style="stop-color:#8F8F8F"/>
		<stop  offset="1" style="stop-color:#BEBEBE"/>
	</linearGradient>
	<path fill="url(#SVGID_4_)" d="M279.887,178.145l1.594,1.59c1.59,1.595,1.773,4.806-0.098,6.677l-33.316,33.103
		c-2.121,2.12-5.073,2.258-6.944,0.391l-1.539-1.453c-1.59-1.59-1.621-4.789,0.246-6.656l33.694-33.648
		c1.59-1.59,4.677-1.69,6.543,0.181L279.887,178.145z"/>
	<path fill="#DCDCDD" d="M265.313,211.695l7.957,7.953c2.121,2.121,4.941,2.129,6.813,0.258l1.672-1.316
		c1.59-1.59,1.492-4.922-0.379-6.789l-9.168-9.121L265.313,211.695z"/>
	
		<linearGradient id="SVGID_5_" gradientUnits="userSpaceOnUse" x1="96.4512" y1="469.541" x2="48.6774" y2="486.9292" gradientTransform="matrix(0.75 0 0 0.75 206.2212 -159.5308)">
		<stop  offset="0" style="stop-color:#B6B6B6"/>
		<stop  offset="0.15" style="stop-color:#EFEFEF"/>
		<stop  offset="0.25" style="stop-color:#F6F6F6"/>
		<stop  offset="0.44" style="stop-color:#D0D0D0"/>
		<stop  offset="0.6" style="stop-color:#B9B9B9"/>
		<stop  offset="0.8" style="stop-color:#9C9C9C"/>
		<stop  offset="0.97" style="stop-color:#8F8F8F"/>
		<stop  offset="1" style="stop-color:#BEBEBE"/>
	</linearGradient>
	<path fill="url(#SVGID_5_)" d="M245.766,199.258c0-8.25,6.656-15,14.871-15c8.379,0,14.871,6.656,14.871,14.871
		c0.258,8.379-6.668,14.871-14.871,14.871c-8.121,0.258-14.871-6.664-14.871-14.871V199.258z"/>
	
		<linearGradient id="SVGID_6_" gradientUnits="userSpaceOnUse" x1="74.2529" y1="463.8369" x2="50.7306" y2="472.3983" gradientTransform="matrix(0.75 0 0 0.75 213.7676 -151.9722)">
		<stop  offset="0" style="stop-color:#C3A156"/>
		<stop  offset="0.15" style="stop-color:#FED681"/>
		<stop  offset="0.25" style="stop-color:#FEE8C2"/>
		<stop  offset="0.44" style="stop-color:#DEB863"/>
		<stop  offset="0.6" style="stop-color:#C6A457"/>
		<stop  offset="0.8" style="stop-color:#A78A48"/>
		<stop  offset="0.97" style="stop-color:#997E42"/>
		<stop  offset="1" style="stop-color:#CBA859"/>
	</linearGradient>
	<path fill="url(#SVGID_6_)" d="M253.313,199.32c0-4.5,3.273-7.5,7.324-7.5c3.926,0,7.309,3.266,7.309,7.309
		c0.367,3.941-3.276,7.313-7.309,7.313c-4.324-0.371-7.324-3.276-7.324-7.313V199.32z"/>
	<path fill="#9D7D37" d="M260.34,192.523c0.75,0,1.336,0.477,1.336,1.059l0.164,10.941c0,0.75-0.637,1.215-1.223,1.215
		c-0.277,0.285-1.063-0.478-1.063-1.063l0.034-11.401c0,0,0.441-0.75,1.027-0.75H260.34L260.34,192.523z"/>
	
		<linearGradient id="SVGID_7_" gradientUnits="userSpaceOnUse" x1="-425.1748" y1="822.4609" x2="-452.5241" y2="832.4152" gradientTransform="matrix(0.5303 -0.5303 0.5303 0.5303 83.1671 -542.3809)">
		<stop  offset="0" style="stop-color:#C3A156"/>
		<stop  offset="0.15" style="stop-color:#FED681"/>
		<stop  offset="0.25" style="stop-color:#FEE8C2"/>
		<stop  offset="0.44" style="stop-color:#DEB863"/>
		<stop  offset="0.6" style="stop-color:#C6A457"/>
		<stop  offset="0.8" style="stop-color:#A78A48"/>
		<stop  offset="0.97" style="stop-color:#997E42"/>
		<stop  offset="1" style="stop-color:#CBA859"/>
	</linearGradient>
	<path fill="url(#SVGID_7_)" d="M283.016,134.977c-3.18-3.184-3.137-8.531,0.195-11.863c3.52-3.516,8.699-3.328,12.023,0
		c3.69,3.379,3.315,8.707,0,12.023c-3.203,3.551-8.723,3.336-12.039,0.016L283.016,134.977z"/>
	<path fill="#9D7D37" d="M285.203,125.305c0.527-0.531,0.977-0.418,1.324-0.074l6.629,6.969c0,0,0.258,0.477-0.09,0.824
		c-0.441,0.766-0.902,0.344-1.246,0l-6.617-6.656c0,0-0.27-0.793,0.074-1.137L285.203,125.305z"/>
	<path fill="#9D7D37" d="M285.355,133.074c-0.531-0.527-0.418-0.977-0.074-1.324l6.969-6.629c0,0,0.477-0.258,0.824,0.09
		c0.766,0.441,0.344,0.902,0,1.25l-6.656,6.613c0,0-0.793,0.273-1.137-0.074L285.355,133.074z"/>
	
		<linearGradient id="SVGID_8_" gradientUnits="userSpaceOnUse" x1="-425.1733" y1="822.4619" x2="-452.5226" y2="832.4162" gradientTransform="matrix(0.5303 -0.5303 0.5303 0.5303 -4.6419 -434.2794)">
		<stop  offset="0" style="stop-color:#C3A156"/>
		<stop  offset="0.15" style="stop-color:#FED681"/>
		<stop  offset="0.25" style="stop-color:#FEE8C2"/>
		<stop  offset="0.44" style="stop-color:#DEB863"/>
		<stop  offset="0.6" style="stop-color:#C6A457"/>
		<stop  offset="0.8" style="stop-color:#A78A48"/>
		<stop  offset="0.97" style="stop-color:#997E42"/>
		<stop  offset="1" style="stop-color:#CBA859"/>
	</linearGradient>
	<path fill="url(#SVGID_8_)" d="M195.207,243.078c-3.18-3.18-3.137-8.527,0.195-11.859c3.52-3.52,8.699-3.328,12.022-0.004
		c3.691,3.379,3.316,8.707,0,12.023c-3.202,3.555-8.723,3.336-12.038,0.02L195.207,243.078z"/>
	<path fill="#9D7D37" d="M197.395,233.41c0.527-0.531,0.978-0.422,1.324-0.078l6.629,6.969c0,0,0.258,0.48-0.09,0.824
		c-0.441,0.77-0.902,0.344-1.25,0l-6.613-6.656c0,0-0.272-0.789,0.074-1.137L197.395,233.41z"/>
	<path fill="#9D7D37" d="M197.547,241.18c-0.531-0.531-0.422-0.979-0.074-1.324l6.969-6.633c0,0,0.478-0.254,0.82,0.09
		c0.771,0.441,0.348,0.906,0,1.25l-6.656,6.617c0,0-0.789,0.271-1.133-0.074L197.547,241.18z"/>
	
		<linearGradient id="SVGID_9_" gradientUnits="userSpaceOnUse" x1="-1322.1519" y1="-346.2969" x2="-1236.2369" y2="-377.5674" gradientTransform="matrix(-0.75 0 0 -0.75 -822.7217 -182.647)">
		<stop  offset="0" style="stop-color:#000000"/>
		<stop  offset="0.15" style="stop-color:#454545"/>
		<stop  offset="0.25" style="stop-color:#B3B3B3"/>
		<stop  offset="0.44" style="stop-color:#000000"/>
		<stop  offset="0.6" style="stop-color:#000000"/>
		<stop  offset="0.8" style="stop-color:#000000"/>
		<stop  offset="0.97" style="stop-color:#000000"/>
		<stop  offset="1" style="stop-color:#000000"/>
	</linearGradient>
	<path fill="url(#SVGID_9_)" d="M162.574,115.965l-46.5-56.25l-6,6L162.574,115.965z"/>
	<path fill="none" stroke="#000000" stroke-linejoin="bevel" stroke-miterlimit="10" d="M183.148,47.977h-13.5"/>
	<path fill="none" stroke="#000000" stroke-linejoin="bevel" stroke-miterlimit="10" d="M177.945,86.004l-12-5.25"/>
	<path fill="none" stroke="#000000" stroke-linejoin="bevel" stroke-miterlimit="10" d="M136.305,128.977l-6-10.5"/>
	<path fill="none" stroke="#000000" stroke-linejoin="bevel" stroke-miterlimit="10" d="M95.32,135.809l0.008-12"/>
	
		<linearGradient id="SVGID_10_" gradientUnits="userSpaceOnUse" x1="-1313.7285" y1="-360.0234" x2="-1237.4785" y2="-360.0234" gradientTransform="matrix(-0.75 0 0 -0.75 -861.3828 -224.0571)">
		<stop  offset="0" style="stop-color:#939394"/>
		<stop  offset="0.14" style="stop-color:#B4B4B4"/>
		<stop  offset="0.44" style="stop-color:#767677"/>
		<stop  offset="0.6" style="stop-color:#696969"/>
		<stop  offset="0.8" style="stop-color:#575758"/>
		<stop  offset="0.97" style="stop-color:#4F4F50"/>
		<stop  offset="1" style="stop-color:#6B6B6C"/>
	</linearGradient>
	<path fill="url(#SVGID_10_)" d="M123.914,46.055c0,15.75-12.805,28.5-28.594,28.5c-15.656,0-28.594-12.801-28.594-28.594
		c0.188-15.656,12.82-28.594,28.594-28.594c15.844,0.188,28.594,12.82,28.594,28.594V46.055z"/>
	
		<linearGradient id="SVGID_11_" gradientUnits="userSpaceOnUse" x1="-1311.1138" y1="-400.5688" x2="-1257.3871" y2="-336.54" gradientTransform="matrix(-0.75 0 0 -0.75 -867.7646 -230.4399)">
		<stop  offset="0" style="stop-color:#B6B6B6"/>
		<stop  offset="0.15" style="stop-color:#EFEFEF"/>
		<stop  offset="0.25" style="stop-color:#F6F6F6"/>
		<stop  offset="0.44" style="stop-color:#D0D0D0"/>
		<stop  offset="0.6" style="stop-color:#B9B9B9"/>
		<stop  offset="0.8" style="stop-color:#9C9C9C"/>
		<stop  offset="0.97" style="stop-color:#8F8F8F"/>
		<stop  offset="1" style="stop-color:#BEBEBE"/>
	</linearGradient>
	<path fill="url(#SVGID_11_)" d="M75.531,66.672l-0.75-1.5c-2.25-1.5-2.078-4.621-0.207-6.492l33.207-33.258
		c2.25-2.25,5.184-2.102,7.055-0.234l1.195,0.984c2.25,2.25,1.965,5.258,0.094,7.125L83.031,66.672
		c-2.25,2.25-5.273,1.965-7.141,0.094L75.531,66.672z"/>
	<path fill="#DCDCDD" d="M90.707,33.172l-8.25-8.25c-1.5-1.5-4.715-1.609-6.582,0.262l-1.668,1.238c-1.5,2.25-1.5,5,0.375,6.871
		l9.375,8.879L90.707,33.172z"/>
	
		<linearGradient id="SVGID_12_" gradientUnits="userSpaceOnUse" x1="-1315.3037" y1="-396.2705" x2="-1272.4641" y2="-360.3237" gradientTransform="matrix(-0.75 0 0 -0.75 -875.0938 -237.769)">
		<stop  offset="0" style="stop-color:#B6B6B6"/>
		<stop  offset="0.15" style="stop-color:#EFEFEF"/>
		<stop  offset="0.25" style="stop-color:#F6F6F6"/>
		<stop  offset="0.44" style="stop-color:#D0D0D0"/>
		<stop  offset="0.6" style="stop-color:#B9B9B9"/>
		<stop  offset="0.8" style="stop-color:#9C9C9C"/>
		<stop  offset="0.97" style="stop-color:#8F8F8F"/>
		<stop  offset="1" style="stop-color:#BEBEBE"/>
	</linearGradient>
	<path fill="url(#SVGID_12_)" d="M110.203,45.844c0,8.25-6.668,15-14.883,15c-8.367,0-14.883-6.668-14.883-14.883
		c-0.234-8.367,6.676-14.883,14.883-14.883c8.133-0.234,14.883,6.676,14.883,14.883V45.844z"/>
	
		<linearGradient id="SVGID_13_" gradientUnits="userSpaceOnUse" x1="-1315.5098" y1="-395.1074" x2="-1292.4446" y2="-381.7908" gradientTransform="matrix(-0.75 0 0 -0.75 -882.6729 -245.3472)">
		<stop  offset="0" style="stop-color:#C3A156"/>
		<stop  offset="0.15" style="stop-color:#FED681"/>
		<stop  offset="0.25" style="stop-color:#FEE8C2"/>
		<stop  offset="0.44" style="stop-color:#DEB863"/>
		<stop  offset="0.6" style="stop-color:#C6A457"/>
		<stop  offset="0.8" style="stop-color:#A78A48"/>
		<stop  offset="0.97" style="stop-color:#997E42"/>
		<stop  offset="1" style="stop-color:#CBA859"/>
	</linearGradient>
	<path fill="url(#SVGID_13_)" d="M102.621,45.766c0,4.5-3.254,7.5-7.301,7.5c-3.949,0-7.305-3.262-7.305-7.305
		c0.355-3.945,3.27-7.305,7.305-7.305c4.301,0.359,7.324,3.27,7.324,7.305L102.621,45.766z"/>
	<path fill="#9D7D37" d="M95.617,52.566c-0.75,0-1.336-0.473-1.336-1.059l-0.164-10.941c0-0.75,0.637-1.211,1.223-1.211
		c0.277-0.289,1.059,0.473,1.059,1.059l-0.031,11.402c0,0-0.441,0.75-1.027,0.75H95.617z"/>
	
		<linearGradient id="SVGID_14_" gradientUnits="userSpaceOnUse" x1="180.498" y1="-143.8125" x2="153.1493" y2="-133.8584" gradientTransform="matrix(0.5303 0.5303 -0.5303 0.5303 -95.3798 101.1276)">
		<stop  offset="0" style="stop-color:#C3A156"/>
		<stop  offset="0.15" style="stop-color:#FED681"/>
		<stop  offset="0.25" style="stop-color:#FEE8C2"/>
		<stop  offset="0.44" style="stop-color:#DEB863"/>
		<stop  offset="0.6" style="stop-color:#C6A457"/>
		<stop  offset="0.8" style="stop-color:#A78A48"/>
		<stop  offset="0.97" style="stop-color:#997E42"/>
		<stop  offset="1" style="stop-color:#CBA859"/>
	</linearGradient>
	<path fill="url(#SVGID_14_)" d="M60.883,109.758c3.184-3.18,8.527-3.137,11.863,0.195c3.516,3.52,3.324,8.699,0,12.023
		c-3.379,3.691-8.707,3.316-12.023,0c-3.551-3.203-3.336-8.723-0.016-12.039L60.883,109.758z"/>
	<path fill="#9D7D37" d="M70.555,111.945c0.531,0.531,0.418,0.98,0.074,1.324l-6.969,6.629c0,0-0.477,0.258-0.824-0.086
		c-0.766-0.445-0.344-0.906,0-1.25l6.656-6.617c0,0,0.793-0.27,1.137,0.074L70.555,111.945z"/>
	<path fill="#9D7D37" d="M62.781,112.098c0.531-0.531,0.98-0.418,1.328-0.074l6.629,6.969c0,0,0.258,0.477-0.09,0.824
		c-0.441,0.766-0.902,0.344-1.25,0l-6.617-6.656c0,0-0.27-0.793,0.078-1.137L62.781,112.098z"/>
	
		<linearGradient id="SVGID_15_" gradientUnits="userSpaceOnUse" x1="180.498" y1="-143.8135" x2="153.1482" y2="-133.8589" gradientTransform="matrix(0.5303 0.5303 -0.5303 0.5303 -7.5712 -6.974)">
		<stop  offset="0" style="stop-color:#C3A156"/>
		<stop  offset="0.15" style="stop-color:#FED681"/>
		<stop  offset="0.25" style="stop-color:#FEE8C2"/>
		<stop  offset="0.44" style="stop-color:#DEB863"/>
		<stop  offset="0.6" style="stop-color:#C6A457"/>
		<stop  offset="0.8" style="stop-color:#A78A48"/>
		<stop  offset="0.97" style="stop-color:#997E42"/>
		<stop  offset="1" style="stop-color:#CBA859"/>
	</linearGradient>
	<path fill="url(#SVGID_15_)" d="M148.691,1.656c3.184-3.18,8.532-3.137,11.864,0.195c3.516,3.52,3.323,8.699,0,12.023
		c-3.38,3.691-8.707,3.316-12.023,0c-3.551-3.203-3.336-8.723-0.016-12.039L148.691,1.656z"/>
	<path fill="#9D7D37" d="M158.363,3.84c0.531,0.531,0.418,0.98,0.074,1.328l-6.97,6.629c0,0-0.477,0.258-0.823-0.09
		c-0.767-0.441-0.345-0.902,0-1.25L157.3,3.84c0,0,0.793-0.27,1.138,0.078L158.363,3.84z"/>
	<path fill="#9D7D37" d="M150.594,3.996c0.527-0.531,0.977-0.422,1.324-0.074l6.629,6.969c0,0,0.258,0.477-0.09,0.82
		c-0.441,0.77-0.902,0.348-1.25,0l-6.613-6.656c0,0-0.273-0.789,0.074-1.133L150.594,3.996z"/>
	<path fill="#595757" d="M246.141,52.484l12.75-32.25h5.25l13.5,32.25h-5.25l-3.75-9.75h-14.25l-3.75,9.75H246.141z M255.891,39.734
		h11.25l-3.75-9c-0.75-3-1.578-5.316-2.098-7.082c-0.152,1.832-1.031,4.168-1.809,6.23L255.891,39.734z"/>
</g>
</svg>
