<?xml version="1.0" encoding="utf-8"?>
<!-- Generator: Adobe Illustrator 16.0.0, SVG Export Plug-In . SVG Version: 6.00 Build 0)  -->
<!DOCTYPE svg PUBLIC "-//W3C//DTD SVG 1.1//EN" "http://www.w3.org/Graphics/SVG/1.1/DTD/svg11.dtd">
<svg preserveAspectRatio="none" version="1.1" id="图层_1" xmlns="http://www.w3.org/2000/svg" xmlns:xlink="http://www.w3.org/1999/xlink" x="0px" y="0px"
	 width="299.25px" height="385.602px" viewBox="30 -70.258 299.25 385.602" enable-background="new 30 -70.258 299.25 385.602"
	 xml:space="preserve">
<g id="surface431">
	
		<linearGradient id="SVGID_1_" gradientUnits="userSpaceOnUse" x1="274.7256" y1="502.6631" x2="52.7256" y2="502.6631" gradientTransform="matrix(0.75 0 0 0.75 56.9551 -105.1533)">
		<stop  offset="0" style="stop-color:#3D4B52"/>
		<stop  offset="0.02" style="stop-color:#909A9F"/>
		<stop  offset="0.02" style="stop-color:#51646D"/>
		<stop  offset="0.64" style="stop-color:#50626B"/>
		<stop  offset="0.95" style="stop-color:#4E6069"/>
		<stop  offset="1" style="stop-color:#38454C"/>
	</linearGradient>
	<path fill="url(#SVGID_1_)" d="M99.5,228.344H260c1.5,0,2.75,0.613,2.75,1.375l0.25,84.125c0,0.75-1.43,1.316-2.891,1.316
		L99.5,315.344c-1.5,0-3-0.797-3-1.559v-83.941c0-0.75,1.18-1.5,2.641-1.5H99.5z"/>
	
		<linearGradient id="SVGID_2_" gradientUnits="userSpaceOnUse" x1="451.7256" y1="645.6611" x2="52.7256" y2="645.6611" gradientTransform="matrix(0.75 0 0 0.75 -9.5449 -403.7529)">
		<stop  offset="0" style="stop-color:#3F4E56"/>
		<stop  offset="0.02" style="stop-color:#929CA2"/>
		<stop  offset="0.02" style="stop-color:#556872"/>
		<stop  offset="0.64" style="stop-color:#536670"/>
		<stop  offset="0.95" style="stop-color:#51636D"/>
		<stop  offset="1" style="stop-color:#3A484F"/>
	</linearGradient>
	<path fill="url(#SVGID_2_)" d="M34.5-70.258h290.25c2.25,0,4.5,2.141,4.5,4.781v291.469c0,3-2.125,4.957-4.75,4.957l-290,0.293
		c-2.25,0-4.5-2.434-4.5-5.074V-65.758c0-2.25,2.125-4.5,4.75-4.5H34.5z"/>
	
		<linearGradient id="SVGID_3_" gradientUnits="userSpaceOnUse" x1="428.7285" y1="633.7305" x2="52.7285" y2="633.7304" gradientTransform="matrix(0.75 0 0 0.75 -0.8008 -394.9512)">
		<stop  offset="0" style="stop-color:#606E75"/>
		<stop  offset="0.02" style="stop-color:#AAB6BD"/>
		<stop  offset="0.02" style="stop-color:#7F9099"/>
		<stop  offset="0.64" style="stop-color:#7D8E97"/>
		<stop  offset="0.95" style="stop-color:#7A8B93"/>
		<stop  offset="1" style="stop-color:#59656C"/>
	</linearGradient>
	<path fill="url(#SVGID_3_)" d="M43.246-61.457h272.25c3,0,5.008,2.141,5.008,4.781l0.242,274.219c0,2.25-2.367,4.605-4.992,4.605
		l-272.508-0.105c-2.25,0-4.5-2.035-4.5-4.676V-56.957c0-2.25,2.125-4.5,4.75-4.5H43.246z"/>
	<path fill="#65767E" d="M59.148-25.926h240.75v212.25H59.148V-25.926z"/>
	<path fill="#D9E7F5" d="M65.164-20.617h228.75v201.75H65.164V-20.617z"/>
	<path stroke="#000000" stroke-linejoin="bevel" stroke-miterlimit="10" d="M107.91,7.977h107.25v30H107.91c-3.75,0-6-2.602-6-5.797
		V13.977c0-3.75,2.574-6,5.75-6H107.91z"/>
	<path fill="#B60717" stroke="#B60717" stroke-linejoin="bevel" stroke-miterlimit="10" d="M251.207,7.938h-27.75v30h27.75
		c3.75,0,6.039-2.602,6.039-5.797l-0.039-18.203c0-3.75-2.535-6-5.711-6H251.207z"/>
	
		<linearGradient id="SVGID_4_" gradientUnits="userSpaceOnUse" x1="63.728" y1="444.6602" x2="63.728" y2="477.6602" gradientTransform="matrix(0.75 0 0 0.75 68.3208 -322.9131)">
		<stop  offset="0" style="stop-color:#676768"/>
		<stop  offset="0.15" style="stop-color:#939394"/>
		<stop  offset="0.25" style="stop-color:#C9C9CA"/>
		<stop  offset="0.44" style="stop-color:#767677"/>
		<stop  offset="0.6" style="stop-color:#696969"/>
		<stop  offset="0.8" style="stop-color:#575758"/>
		<stop  offset="0.97" style="stop-color:#4F4F50"/>
		<stop  offset="1" style="stop-color:#6B6B6C"/>
	</linearGradient>
	<path fill="url(#SVGID_4_)" d="M107.867,10.582h16.5v24.75h-16.5V10.582z"/>
	
		<linearGradient id="SVGID_5_" gradientUnits="userSpaceOnUse" x1="63.7256" y1="444.6602" x2="63.7256" y2="477.6602" gradientTransform="matrix(0.75 0 0 0.75 89.2217 -322.9131)">
		<stop  offset="0" style="stop-color:#676768"/>
		<stop  offset="0.15" style="stop-color:#939394"/>
		<stop  offset="0.25" style="stop-color:#C9C9CA"/>
		<stop  offset="0.44" style="stop-color:#767677"/>
		<stop  offset="0.6" style="stop-color:#696969"/>
		<stop  offset="0.8" style="stop-color:#575758"/>
		<stop  offset="0.97" style="stop-color:#4F4F50"/>
		<stop  offset="1" style="stop-color:#6B6B6C"/>
	</linearGradient>
	<path fill="url(#SVGID_5_)" d="M128.766,10.582h16.5v24.75h-16.5V10.582z"/>
	
		<linearGradient id="SVGID_6_" gradientUnits="userSpaceOnUse" x1="63.7271" y1="444.6602" x2="63.7271" y2="477.6602" gradientTransform="matrix(0.75 0 0 0.75 111.9585 -322.9131)">
		<stop  offset="0" style="stop-color:#676768"/>
		<stop  offset="0.15" style="stop-color:#939394"/>
		<stop  offset="0.25" style="stop-color:#C9C9CA"/>
		<stop  offset="0.44" style="stop-color:#767677"/>
		<stop  offset="0.6" style="stop-color:#696969"/>
		<stop  offset="0.8" style="stop-color:#575758"/>
		<stop  offset="0.97" style="stop-color:#4F4F50"/>
		<stop  offset="1" style="stop-color:#6B6B6C"/>
	</linearGradient>
	<path fill="url(#SVGID_6_)" d="M151.504,10.582h16.5v24.75h-16.5V10.582z"/>
	
		<linearGradient id="SVGID_7_" gradientUnits="userSpaceOnUse" x1="63.7266" y1="444.6602" x2="63.7266" y2="477.6602" gradientTransform="matrix(0.75 0 0 0.75 132.7437 -322.9131)">
		<stop  offset="0" style="stop-color:#676768"/>
		<stop  offset="0.15" style="stop-color:#939394"/>
		<stop  offset="0.25" style="stop-color:#C9C9CA"/>
		<stop  offset="0.44" style="stop-color:#767677"/>
		<stop  offset="0.6" style="stop-color:#696969"/>
		<stop  offset="0.8" style="stop-color:#575758"/>
		<stop  offset="0.97" style="stop-color:#4F4F50"/>
		<stop  offset="1" style="stop-color:#6B6B6C"/>
	</linearGradient>
	<path fill="url(#SVGID_7_)" d="M172.289,10.582h16.5v24.75h-16.5V10.582z"/>
	
		<linearGradient id="SVGID_8_" gradientUnits="userSpaceOnUse" x1="63.729" y1="444.6631" x2="63.729" y2="477.6631" gradientTransform="matrix(0.75 0 0 0.75 153.5273 -322.915)">
		<stop  offset="0" style="stop-color:#676768"/>
		<stop  offset="0.15" style="stop-color:#939394"/>
		<stop  offset="0.25" style="stop-color:#C9C9CA"/>
		<stop  offset="0.44" style="stop-color:#767677"/>
		<stop  offset="0.6" style="stop-color:#696969"/>
		<stop  offset="0.8" style="stop-color:#575758"/>
		<stop  offset="0.97" style="stop-color:#4F4F50"/>
		<stop  offset="1" style="stop-color:#6B6B6C"/>
	</linearGradient>
	<path fill="url(#SVGID_8_)" d="M193.074,10.582h16.5v24.75h-16.5V10.582z"/>
	
		<linearGradient id="SVGID_9_" gradientUnits="userSpaceOnUse" x1="63.7275" y1="444.6602" x2="63.7275" y2="477.6602" gradientTransform="matrix(0.75 0 0 0.75 192.751 -322.9131)">
		<stop  offset="0" style="stop-color:#676768"/>
		<stop  offset="0.15" style="stop-color:#939394"/>
		<stop  offset="0.25" style="stop-color:#C9C9CA"/>
		<stop  offset="0.44" style="stop-color:#767677"/>
		<stop  offset="0.6" style="stop-color:#696969"/>
		<stop  offset="0.8" style="stop-color:#575758"/>
		<stop  offset="0.97" style="stop-color:#4F4F50"/>
		<stop  offset="1" style="stop-color:#6B6B6C"/>
	</linearGradient>
	<path fill="url(#SVGID_9_)" d="M232.297,10.582h16.5v24.75h-16.5V10.582z"/>
	<path stroke="#000000" stroke-linejoin="bevel" stroke-miterlimit="10" d="M114.172,99.09h130.5c3,0,4.906,2.086,4.906,4.727
		l0.344,14.773c0,3-2.496,4.785-5.121,4.785l-130.629-0.285c-2.25,0-4.5-1.855-4.5-4.496V103.59c0-2.25,2.098-4.555,4.723-4.555
		L114.172,99.09z"/>
	<path fill="#EEEEEE" stroke="#EEEEEE" stroke-linejoin="bevel" stroke-miterlimit="10" d="M109.777,109.602h139.5v3h-139.5V109.602
		z"/>
	<path fill="#595757" stroke="#595757" stroke-linejoin="bevel" stroke-miterlimit="10" d="M109.777,109.602h47.25v3h-47.25V109.602
		z"/>
	<path fill="#FFFFFF" fill-opacity="0.749" d="M105.75,52.555h150c2.25,0,4.438,2.113,4.438,4.754l0.063,0.496
		c0,3-2.219,5.156-4.84,5.156l-149.66,0.094c-2.25,0-4.5-2.234-4.5-4.875v-1.125c0-2.25,2.125-4.527,4.75-4.527L105.75,52.555z"/>
	<path fill="#FFFFFF" fill-opacity="0.8863" d="M98.465,136.008h34.5c3,0,4.988,2.113,4.988,4.754l0.262,24.496
		c0,2.25-2.387,4.652-5.012,4.652l-34.738-0.152c-2.25,0-4.555-2.016-4.555-4.656l0.055-24.594c0-2.25,2.07-4.5,4.695-4.5H98.465z"
		/>
	<path fill="#FFFFFF" fill-opacity="0.8863" d="M163.316,136.008h34.5c3,0,4.992,2.113,4.992,4.754l0.258,24.496
		c0,2.25-2.387,4.652-5.008,4.652l-34.742-0.152c-2.25,0-4.555-2.016-4.555-4.656l0.055-24.594c0-2.25,2.074-4.5,4.695-4.5H163.316z
		"/>
	<path fill="#FFFFFF" fill-opacity="0.8863" d="M228.172,136.008h34.5c3,0,4.988,2.113,4.988,4.754l0.262,24.496
		c0,2.25-2.387,4.652-5.012,4.652l-34.738-0.152c-2.25,0-4.555-2.016-4.555-4.656l0.055-24.594c0-2.25,2.07-4.5,4.695-4.5H228.172z"
		/>
	
		<linearGradient id="SVGID_10_" gradientUnits="userSpaceOnUse" x1="96.7251" y1="461.6611" x2="52.7251" y2="461.6611" gradientTransform="matrix(0.75 0 0 0.75 123.7173 -101.8975)">
		<stop  offset="0" style="stop-color:#3F4E56"/>
		<stop  offset="0.02" style="stop-color:#929CA2"/>
		<stop  offset="0.02" style="stop-color:#556872"/>
		<stop  offset="0.64" style="stop-color:#536670"/>
		<stop  offset="0.95" style="stop-color:#51636D"/>
		<stop  offset="1" style="stop-color:#3A484F"/>
	</linearGradient>
	<path fill="url(#SVGID_10_)" d="M163.262,231.598h33v25.5h-33V231.598z"/>
	
		<linearGradient id="SVGID_11_" gradientUnits="userSpaceOnUse" x1="77.1309" y1="456.9521" x2="52.7256" y2="456.9521" gradientTransform="matrix(0.75 0 0 0.75 130.2832 -98.2256)">
		<stop  offset="0" style="stop-color:#A8A8A9"/>
		<stop  offset="0.15" style="stop-color:#DEDEDF"/>
		<stop  offset="0.25" style="stop-color:#EDEDED"/>
		<stop  offset="0.44" style="stop-color:#C0C0C1"/>
		<stop  offset="0.6" style="stop-color:#ABABAC"/>
		<stop  offset="0.8" style="stop-color:#909091"/>
		<stop  offset="0.97" style="stop-color:#848484"/>
		<stop  offset="1" style="stop-color:#AFAFB0"/>
	</linearGradient>
	<path fill="url(#SVGID_11_)" d="M169.828,244.27c0-5.25,4.094-9,9.148-9c5.102,0,9.155,4.109,9.155,9.207
		c-0.305,5.043-4.098,9.211-9.155,9.211c-5.398,0.332-9.148-4.133-9.148-9.211V244.27z"/>
	<path fill="#595757" d="M173.852,239.402c0.531-0.531,1.181-0.621,1.586-0.215l9.021,8.698c0.531,0.531,0.211,1.188-0.194,1.595
		c-0.337,0-1.066,0.405-1.474,0l-8.938-9.017c0,0-0.289-0.871,0.117-1.276L173.852,239.402z"/>
</g>
</svg>
