<?xml version="1.0" encoding="utf-8"?>
<!-- Generator: Adobe Illustrator 16.0.0, SVG Export Plug-In . SVG Version: 6.00 Build 0)  -->
<!DOCTYPE svg PUBLIC "-//W3C//DTD SVG 1.1//EN" "http://www.w3.org/Graphics/SVG/1.1/DTD/svg11.dtd">
<svg preserveAspectRatio="none" version="1.1" id="图层_1" xmlns="http://www.w3.org/2000/svg" xmlns:xlink="http://www.w3.org/1999/xlink" x="0px" y="0px"
	 width="299.207px" height="175.668px" viewBox="30 34.465 299.207 175.668" enable-background="new 30 34.465 299.207 175.668"
	 xml:space="preserve">
<g id="surface461">
	
		<linearGradient id="SVGID_1_" gradientUnits="userSpaceOnUse" x1="419.0977" y1="586.3721" x2="52.7334" y2="586.3721" gradientTransform="matrix(0.75 0 0 0.75 14.8848 -325.272)">
		<stop  offset="0" style="stop-color:#B5B5B5"/>
		<stop  offset="0.03" style="stop-color:#FFFFFF"/>
		<stop  offset="0.08" style="stop-color:#EBEBEB"/>
		<stop  offset="0.64" style="stop-color:#E7E7E7"/>
		<stop  offset="0.95" style="stop-color:#E2E2E2"/>
		<stop  offset="1" style="stop-color:#A8A8A8"/>
	</linearGradient>
	<path fill="url(#SVGID_1_)" d="M61.934,34.465h260.25c3.75,0,7.023,3.27,7.023,7.301l-0.273,145.699
		c0,3.75-2.961,7.086-6.957,7.086l-260.042-0.336c-4.5,0-7.5-2.93-7.5-6.961V41.965c0-4.5,3.238-7.5,7.234-7.5H61.934z"/>
	<path fill="#8E9EA5" d="M79.867,62.152h80.25v44.25h-80.25V62.152z"/>
	<path fill="#8E9EA5" d="M165.309,62.152h80.25v44.25h-80.25V62.152z"/>
	<path fill="#8E9EA5" d="M79.867,111.152h80.25v44.25h-80.25V111.152z"/>
	<path fill="#8E9EA5" d="M165.309,111.152h80.25v44.25h-80.25V111.152z"/>
	<path fill="#E0E9E8" stroke="#8E9EA5" stroke-linejoin="bevel" stroke-miterlimit="10" d="M252.41,62.152h56.25v93h-56.25V62.152z"
		/>
	
		<linearGradient id="SVGID_2_" gradientUnits="userSpaceOnUse" x1="94.2329" y1="479.6465" x2="94.2329" y2="500.6465" gradientTransform="matrix(0.75 0 0 0.75 55.6104 -165.3521)">
		<stop  offset="0" style="stop-color:#B5B5B5"/>
		<stop  offset="0.03" style="stop-color:#FFFFFF"/>
		<stop  offset="0.08" style="stop-color:#EBEBEB"/>
		<stop  offset="0.64" style="stop-color:#E7E7E7"/>
		<stop  offset="0.95" style="stop-color:#E2E2E2"/>
		<stop  offset="1" style="stop-color:#A8A8A8"/>
	</linearGradient>
	<path fill="url(#SVGID_2_)" d="M95.16,194.383h62.25v15.75H95.16V194.383z"/>
	
		<linearGradient id="SVGID_3_" gradientUnits="userSpaceOnUse" x1="94.2319" y1="479.6465" x2="94.2319" y2="500.6465" gradientTransform="matrix(0.75 0 0 0.75 188.7793 -165.3521)">
		<stop  offset="0" style="stop-color:#B5B5B5"/>
		<stop  offset="0.03" style="stop-color:#FFFFFF"/>
		<stop  offset="0.08" style="stop-color:#EBEBEB"/>
		<stop  offset="0.64" style="stop-color:#E7E7E7"/>
		<stop  offset="0.95" style="stop-color:#E2E2E2"/>
		<stop  offset="1" style="stop-color:#A8A8A8"/>
	</linearGradient>
	<path fill="url(#SVGID_3_)" d="M228.328,194.383h62.25v15.75h-62.25V194.383z"/>
	
		<linearGradient id="SVGID_4_" gradientUnits="userSpaceOnUse" x1="69.2339" y1="479.6514" x2="69.2339" y2="517.6514" gradientTransform="matrix(0.75 0 0 0.75 -9.5503 -259.3247)">
		<stop  offset="0" style="stop-color:#C1C2C3"/>
		<stop  offset="0.15" style="stop-color:#FBFDFE"/>
		<stop  offset="0.25" style="stop-color:#FDFEFE"/>
		<stop  offset="0.52" style="stop-color:#DCDEDE"/>
		<stop  offset="0.69" style="stop-color:#C4C5C6"/>
		<stop  offset="0.8" style="stop-color:#B9BABB"/>
		<stop  offset="0.97" style="stop-color:#AEB0B0"/>
		<stop  offset="1" style="stop-color:#C8CACB"/>
	</linearGradient>
	<path fill="url(#SVGID_4_)" d="M54.75,100.414H30v28.5h24.75V100.414z"/>
	
		<linearGradient id="SVGID_5_" gradientUnits="userSpaceOnUse" x1="58.7319" y1="479.6494" x2="58.7319" y2="494.6494" gradientTransform="matrix(0.75 0 0 0.75 6.4077 -289.5298)">
		<stop  offset="0" style="stop-color:#C1C2C3"/>
		<stop  offset="0.15" style="stop-color:#FBFDFE"/>
		<stop  offset="0.25" style="stop-color:#FDFEFE"/>
		<stop  offset="0.52" style="stop-color:#DCDEDE"/>
		<stop  offset="0.69" style="stop-color:#C4C5C6"/>
		<stop  offset="0.8" style="stop-color:#B9BABB"/>
		<stop  offset="0.97" style="stop-color:#AEB0B0"/>
		<stop  offset="1" style="stop-color:#C8CACB"/>
	</linearGradient>
	<path fill="url(#SVGID_5_)" d="M54.957,70.207h-9v11.25h9V70.207z"/>
	
		<linearGradient id="SVGID_6_" gradientUnits="userSpaceOnUse" x1="58.7319" y1="479.6494" x2="58.7319" y2="494.6494" gradientTransform="matrix(0.75 0 0 0.75 6.4077 -212.3384)">
		<stop  offset="0" style="stop-color:#C1C2C3"/>
		<stop  offset="0.15" style="stop-color:#FBFDFE"/>
		<stop  offset="0.25" style="stop-color:#FDFEFE"/>
		<stop  offset="0.52" style="stop-color:#DCDEDE"/>
		<stop  offset="0.69" style="stop-color:#C4C5C6"/>
		<stop  offset="0.8" style="stop-color:#B9BABB"/>
		<stop  offset="0.97" style="stop-color:#AEB0B0"/>
		<stop  offset="1" style="stop-color:#C8CACB"/>
	</linearGradient>
	<path fill="url(#SVGID_6_)" d="M54.957,147.398h-9v11.25h9V147.398z"/>
	<path fill="#3E3938" stroke="#000000" stroke-linejoin="bevel" stroke-miterlimit="10" d="M92.918,75.996h54v16.5h-54V75.996z"/>
	<path fill="#3E3938" stroke="#000000" stroke-linejoin="bevel" stroke-miterlimit="10" d="M178.359,75.996h54v16.5h-54V75.996z"/>
	<path fill="#3E3938" stroke="#000000" stroke-linejoin="bevel" stroke-miterlimit="10" d="M92.918,124.996h54v16.5h-54V124.996z"/>
	<path fill="#3E3938" stroke="#000000" stroke-linejoin="bevel" stroke-miterlimit="10" d="M178.359,124.996h54v16.5h-54V124.996z"
		/>
</g>
</svg>
