<?xml version="1.0" encoding="utf-8"?>
<!-- Generator: Adobe Illustrator 16.0.0, SVG Export Plug-In . SVG Version: 6.00 Build 0)  -->
<!DOCTYPE svg PUBLIC "-//W3C//DTD SVG 1.1//EN" "http://www.w3.org/Graphics/SVG/1.1/DTD/svg11.dtd">
<svg preserveAspectRatio="none" version="1.1" id="图层_1" xmlns="http://www.w3.org/2000/svg" xmlns:xlink="http://www.w3.org/1999/xlink" x="0px" y="0px"
	 width="105.74px" height="247.989px" viewBox="29.458 29.181 105.74 247.989"
	 enable-background="new 29.458 29.181 105.74 247.989" xml:space="preserve">
<g id="surface1256">
	<path fill="#EB6D71" stroke="#EB6D71" stroke-linejoin="bevel" stroke-miterlimit="10" d="M53.25,84.469
		c0,0-0.09-7.223,9.074-9.816c-0.074,0.066,10.473-2.855,12.32-7.27c0.355-0.164,0.797-8.82,0-9.609
		c0.355-0.305-1.469-2.344-1.953-6.289c0.059-0.016-1.203,0.477-1.93-1.559c-1.012-2.207-3.742-7.063,0.605-6.344
		c-0.117-0.363-1.691-10.051,6.516-13.043c8.367-3.07,14.359,2.871,15.219,5.742c-0.102,0.188,0.934,3.59,0.348,6.941
		c0.301-0.004,3.863-0.359,1.449,4.07c0.352-0.324-1.266,5.684-2.895,4.07c0.246,0.105-0.969,5.625-2.414,6.582
		c-0.34,0.273-0.484,6.82,0,9.094c-0.34,0.18,2.895,5.625,9.793,6.941c0.367-0.012,9.637,2.035,11.086,9.453
		c-0.219,0.285,0.965,9.816,0.965,15.441c0.316,5.844,1.688,12.324,2.293,16.273c0.273,3.82,1.688,4.789,1.688,4.789
		c0.086-0.219,5.914,18.191,8.461,32.934c-0.125-0.152,1.434,2.371,3.367,3.352c0.258,0.246,1.688,1.414,2.773,3.09
		c1.234,1.656,2.414,3.59,3.988,4.566c0.246,0.09,1.684,1.797-0.488,1.797c-0.016-0.207-3.066,0.266-4.945-3.254
		c-0.32,0.047-1.086,0.121-1.086,1.078c0.016-0.281,0.602,5.266,1.086,6.719l1.18,5.75c0,0,0.266,2.73-1.18,0.934l-1.82-6.934
		c0,0-0.957-1.801-0.957,1.191l0.957,6.309c0,0-0.836,1.469-1.68,0.152l-1.32-6.902c0,0-1.094-1.715-1.094,0.32l1.094,6.43
		c0,0-0.371,1.828-1.094,0.512l-1.906-7.262c0,0-1.113-1.953-1.113,1.516l0.363,3.734c0,0-1.145,2.91-1.57,0.695
		c0.07,0.055-0.359-5.027-0.359-6.941c-0.32,0.246,0.121-4.668-0.363-5.504c-0.707-1-0.965-4.668-0.48-6.344
		c-0.227,0.094,0.723-2.035,0-3.113c-0.227,0.207-9.535-18.07-11.465-25.129c-2.262-6.914-2.414-9.457-2.414-11.969
		c0.152-2.445-3.02-14.363-3.02-14.363c0.172-0.082-0.48,9.457-2.414,16.398c0.336,0.77-1.086,2.391,0,5.145
		c1.086,3.125,8.57,16.875,8.57,24.895c0.016,8.23-0.844,25.609-3.863,38.055c-2.871,12.176-3.379,16.516-3.016,20.586
		c0.145,4.34,3.258,19.984,0,28.008c0.145,0.332-5.57,19.742-5.57,26.34c-0.285,0.242,0.984,7.527,3.52,9.441
		c2.195,2.051,0.359,2.512,0.359,2.512c0.336,0.289-2.051,2.07-6.273,0.84c-0.141,0.199-1.629-0.539-2.172,0
		c-0.219,0.199-1.934,2.152-3.379,0.477c0.16-0.277-1.188-0.598,0-3.828c0.16-0.199,0.965-3.23,0.965-4.789
		c-0.055,0.09,0.32-1.195-0.363-2.75c0.309-0.16-1.266-2.813,0.684-4.789c0.375,0.129,1.867-8.02,0.664-13.043
		c-0.289-0.328-2.676-13.645-0.383-25.613c0.094-0.215,0.727-3.949-0.281-7.18c0.375,0.215-3.098-6.582-2.734-18.07
		c0.109-11.715-1.207-32.195-1.93-34.23c-0.211,0.016-1.449-2.031-1.449,0.84c-0.262-0.074-0.965,16.395-0.965,26.09
		c-0.047,9.836-1.813,19.148-2.535,22.379c-0.512,3.207-0.242,14.961,0,18.43c0.238,3.527-1.688,24.055-0.844,27.645
		c0.332-0.117,0.359,1.438,0.844,2.277c0.238,0.605,0.844,3.949,0,6.223c-0.512,2.633,0,5.625,0,5.625
		c0.238,0.008,2.293,4.309-0.363,4.668c-2.398,0.59-3.258-1.316-3.258-1.316c0.109-0.344-1.93,1.316-2.773,1.316
		c-0.867-0.16-4.828-0.359-5.672-0.84c-1.195-0.82-1.449-1.555,0-2.273c1.805-0.797,4.102-5.387,4.102-6.82
		c-0.047-1.477-0.121-2.395,0.484-3.949c0.219,0.223-0.484-3.234-2.777-13.406c-2.254-10.371-5.43-15.676-3.863-26.809
		c1.609-11.313,2.172-11.008,0.848-21.66c0.012-0.152-6.035-27.527-6.035-33.988c0.047,0.086-2.535-15.438,3.5-29.68l4.797-11.484
		c0,0,0.754-0.844-0.211-4.555c0.211,0.055-2.898-10.41-2.535-17.711c-0.254-0.234-1.688,10.652-3.016,13.164
		c-0.238,0.102-0.484,1.316,0,2.992c-0.238,0.109,0.602,5.148-3.621,14.363c-4.117,8.996-9.414,21.063-9.414,21.063
		c0.047-0.066-0.84,0.836-0.84,2.992c0.137-0.059,1.203,4.906-0.48,10.172l-0.133,8.52c0,0-0.418,3.031-1.313,0.336L45,169.219
		c0,0-0.668-2.008-1.141,2.059l-1.109,5.441c0,0-0.469,2.219-1.293,0.902c-0.207-0.152-0.984-1.078-1.332,0
		c0.375-0.152-1.809,1.813-1.809,0L39,169.969l-2.25,6c0,0-1.574,2.371-1.574-0.621l2.324-12.129c0,0-0.285-1.273-1.434-0.977
		c-0.066,0.227-3.078,3.531-4.645,3.531c-1.422-0.305-1.934-1.195-0.969-1.555c1.047-0.25,3.621-4.191,3.984-5.027
		c0.063-0.473,3.742-4.07,5.188-4.785c0.125-0.188,1.449-1.172,2.176-5.27c0.199-0.168,4.703-22.977,7.48-28.84
		c0.219,0.172,1.93-2.633,2.051-5.863c-0.332,0.035,0.727-7.66,1.328-14.484c-0.16,0.27,0.363-6.223,0.363-9.813
		c0.227-3.418,0.426-5.582,0.426-5.582L53.25,84.469z"/>
</g>
</svg>
