<?xml version="1.0" encoding="utf-8"?>
<!-- Generator: Adobe Illustrator 16.0.0, SVG Export Plug-In . SVG Version: 6.00 Build 0)  -->
<!DOCTYPE svg PUBLIC "-//W3C//DTD SVG 1.1//EN" "http://www.w3.org/Graphics/SVG/1.1/DTD/svg11.dtd">
<svg preserveAspectRatio="none" version="1.1" id="图层_1" xmlns="http://www.w3.org/2000/svg" xmlns:xlink="http://www.w3.org/1999/xlink" x="0px" y="0px"
	 width="140.962px" height="79.646px" viewBox="29.5 29.035 140.962 79.646" enable-background="new 29.5 29.035 140.962 79.646"
	 xml:space="preserve">
<g id="surface1306">
	<path fill="#FAFAFA" stroke="#FAFAFA" stroke-linejoin="bevel" stroke-miterlimit="10" d="M39.203,29.535h92.25
		c5.25,0,13.457,2.91,16.176,8.789l22.074,51.211c1.5,4.5-3.809,8.629-8.727,8.629l-21.273,0.371c0,0-1.551-7.574-6.988-11.738
		c0.238-0.262-7.762-6.34-17.305,0c-4.957,3.488-6.43,11.367-6.43,11.367l-34.527,0.371c0,0-1.484-8.734-7.168-12.164
		c-4.082-2.086-10.879-3.184-16.07,0c-6.012,3.914-7.168,11.793-7.168,11.793l-4.844,0.371c-5.25,0-9-4.352-9-9.223V38.535
		c0-5.25,3.984-9,8.898-9H39.203z"/>
	<path fill="#01455C" stroke="#01455C" stroke-linejoin="bevel" stroke-miterlimit="10" d="M49.527,97.852
		c0-5.25,4.5-9.75,10.086-9.75c5.664,0,10.129,4.484,10.129,10.039c0.035,5.711-4.543,10.035-10.129,10.035
		C54.027,108.352,49.5,103.68,49.5,98.141L49.527,97.852z"/>
	<path fill="#01455C" stroke="#01455C" stroke-linejoin="bevel" stroke-miterlimit="10" d="M114.344,97.852
		c0-5.25,4.496-9.75,10.082-9.75c5.668,0,10.129,4.484,10.129,10.039c0.039,5.711-4.543,10.035-10.129,10.035
		c-5.582,0.176-10.113-4.496-10.113-10.035L114.344,97.852z"/>
	<path fill="#A0D8EF" stroke="#A0D8EF" stroke-linejoin="bevel" stroke-miterlimit="10" d="M107.992,35.188v31.5h42.75
		c0,0,1.871-1.141,0.883-2.855l-7.633-19.645c0,0-2.234-7.059-11.363-9H107.992z"/>
	<path fill="#F06B6C" stroke="#F16B6C" stroke-linejoin="bevel" stroke-miterlimit="10" d="M50.992,58.465v-9.75h13.5v-13.5h10.5
		v13.5h13.5v9.75h-13.5v14.25h-10.5v-14.25H50.992z"/>
	<path fill="#FED372" stroke="#FED372" stroke-linejoin="bevel" stroke-miterlimit="10" d="M30,82.305h137.25l-1.5-1.5H30V82.305z"
		/>
	<path fill="#FED372" stroke="#FED372" stroke-linejoin="bevel" stroke-miterlimit="10" d="M30,77.543h135l-0.75-1.5H30V77.543z"/>
	<path fill="#FFFFFF" stroke="#FFFFFF" stroke-linejoin="bevel" stroke-miterlimit="10" d="M55.09,98.125
		c0-2.25,2.023-4.5,4.535-4.5c2.215,0,4.559,2.016,4.559,4.516c-0.094,2.234-2.047,4.516-4.559,4.516
		c-2.285-0.031-4.551-2.023-4.551-4.516L55.09,98.125z"/>
	<path fill="#FFFFFF" stroke="#FFFFFF" stroke-linejoin="bevel" stroke-miterlimit="10" d="M119.902,98.125
		c0-2.25,2.023-4.5,4.535-4.5c2.215,0,4.559,2.016,4.559,4.516c-0.094,2.234-2.043,4.516-4.559,4.516
		c-2.285-0.031-4.551-2.023-4.551-4.516L119.902,98.125z"/>
</g>
</svg>
