<?xml version="1.0" encoding="utf-8"?>
<!-- Generator: Adobe Illustrator 16.0.0, SVG Export Plug-In . SVG Version: 6.00 Build 0)  -->
<!DOCTYPE svg PUBLIC "-//W3C//DTD SVG 1.1//EN" "http://www.w3.org/Graphics/SVG/1.1/DTD/svg11.dtd">
<svg preserveAspectRatio="none" version="1.1" id="图层_1" xmlns="http://www.w3.org/2000/svg" xmlns:xlink="http://www.w3.org/1999/xlink" x="0px" y="0px"
	 width="91.233px" height="89.216px" viewBox="29.513 29.245 91.233 89.216" enable-background="new 29.513 29.245 91.233 89.216"
	 xml:space="preserve">
<g id="surface1386">
	<path fill-opacity="0.0784" d="M77.699,37.094l0.418,2.188l0.438,0.023l1.195,0.105l1.184,0.148l1.172,0.188l1.16,0.227
		l1.145,0.266l1.125,0.301l1.113,0.344l1.098,0.375l1.078,0.414l0.047,0.02l1.828-3.039l-0.621-0.426l-0.98-0.859l-0.777-0.902
		l-0.566-0.914l-0.328-0.898l-0.074-0.855l0.203-0.789l0.359-0.547l0.512-0.438l0.645-0.328l0.762-0.219l0.863-0.109l0.945,0.004
		l1.008,0.113l1.059,0.227l1.09,0.34l1.105,0.457l1.309,0.703l1.152,0.793l0.977,0.859l0.781,0.898l0.566,0.914l0.328,0.898
		l0.074,0.859l-0.207,0.789l-0.359,0.543l-0.512,0.438l-0.645,0.328l-0.762,0.219l-0.863,0.109h-0.941l-1.012-0.113l-1.059-0.23
		l-0.242-0.074l-1.152,3.457l0.602,0.355l0.957,0.613l0.938,0.645l0.918,0.676l0.891,0.707l0.867,0.734l0.84,0.762l0.816,0.789
		l0.789,0.813l0.395,0.438l1.922-1.023l-0.199-0.43l-0.285-1.07l-0.043-0.965l0.211-0.809l0.473-0.598l0.691-0.313l0.836-0.008
		l0.926,0.273l0.969,0.535l0.961,0.773l0.898,0.992l0.746,1.113l0.52,1.121l0.285,1.066l0.039,0.965l-0.211,0.809l-0.469,0.598
		l-0.691,0.313l-0.836,0.008l-0.926-0.273l-0.969-0.535l-0.363-0.293l-1.441,1.645l0.082,0.121l0.613,0.961l0.586,0.98l0.547,1.004
		l0.52,1.023l0.48,1.043l0.449,1.059l0.414,1.078l0.379,1.098l0.34,1.113l0.066,0.246l3.543-0.371l-0.016-0.207l0.016-1.082
		l0.117-1.008l0.211-0.922l0.301-0.816l0.383-0.691l0.465-0.555l0.543-0.402l0.609-0.227l0.816-0.02l0.82,0.262l0.801,0.523
		l0.762,0.758l0.703,0.961l0.617,1.148l0.512,1.301l0.391,1.434l0.195,1.176l0.09,1.137l-0.02,1.086l-0.113,1.008l-0.211,0.922
		l-0.301,0.813l-0.387,0.695l-0.465,0.555l-0.543,0.398l-0.609,0.23l-0.816,0.02l-0.816-0.266l-0.805-0.52l-0.762-0.758
		l-0.699-0.965l-0.621-1.145l-0.293-0.746l-3.438,1.156l0.082,0.66l0.105,1.195l0.063,1.207l0.023,1.219l-0.023,1.223l-0.063,1.207
		l-0.105,1.195l-0.145,1.188l-0.188,1.172l-0.094,0.477l0.293-1.32l2.148,0.863l0.438-0.82l0.813-0.941l0.895-0.539l0.914-0.066
		l0.684,0.328l0.543,0.633l0.387,0.887l0.215,1.086l0.023,1.234l-0.184,1.328l-0.469,1.523l-0.672,1.27l-0.813,0.938l-0.895,0.539
		l-0.91,0.07l-0.688-0.332l-0.543-0.633l-0.387-0.887l-0.211-1.082l-0.012-0.469l-2.367-0.051l0.336-1.512l-0.242,0.906l-0.34,1.113
		l-0.379,1.094l-0.414,1.082l-0.449,1.059l-0.48,1.043l-0.52,1.023l-0.547,1.004l-0.586,0.98l-0.613,0.961l-0.34,0.496l2.59,2.504
		l0.328-0.313l0.938-0.723l0.941-0.566l0.922-0.402l0.887-0.23l0.82-0.047l0.742,0.145l0.637,0.348l0.449,0.473l0.309,0.598
		l0.176,0.703l0.043,0.789l-0.086,0.867l-0.215,0.918l-0.34,0.957l-0.457,0.98l-0.578,0.984l-0.695,0.973l-0.863,1.004l-0.914,0.867
		l-0.934,0.719l-0.941,0.57l-0.926,0.402l-0.883,0.23l-0.824,0.047l-0.738-0.145l-0.637-0.348l-0.449-0.473l-0.313-0.598
		l-0.176-0.703l-0.039-0.793l0.086-0.863l0.215-0.918l0.336-0.961l0.461-0.98l0.129-0.219l-3.121-1.906l-0.059,0.066l-0.789,0.813
		l-0.816,0.789l-0.84,0.762l-0.867,0.734l-0.891,0.707l-0.918,0.676l-0.938,0.645l-0.957,0.613l-0.984,0.582l-0.742,0.41
		l0.477-0.219l0.602,2.227l0.465-0.098l1.105-0.035l0.949,0.176l0.738,0.387l0.477,0.594l0.137,0.902l-0.324,0.996l-0.73,1.004
		l-1.086,0.938l-1.379,0.801l-1.254,0.477l-1.207,0.254l-1.105,0.035l-0.949-0.176l-0.742-0.387l-0.473-0.594l-0.141-0.902
		l0.324-0.992l0.734-1.008l0.699-0.605l-1.387-1.922l-0.395,0.152l-1.098,0.375l-1.113,0.344l-1.125,0.301l-1.145,0.266l-1.16,0.227
		l-1.172,0.188l-1.184,0.148l-1.141,0.098l-0.41,3.563l0.492,0.074l1.145,0.293l1.027,0.395l0.887,0.477l0.727,0.555l0.543,0.621
		l0.34,0.672l0.121,0.715l-0.121,0.715l-0.34,0.676l-0.543,0.617l-0.727,0.555l-0.887,0.48l-1.027,0.391l-1.145,0.297l-1.246,0.184
		l-1.32,0.063l-1.32-0.063l-1.246-0.184l-1.145-0.297l-1.027-0.391l-0.887-0.48l-0.727-0.555l-0.543-0.617l-0.34-0.676l-0.121-0.715
		l0.121-0.715l0.34-0.672l0.543-0.621l0.727-0.555l0.887-0.477l1.027-0.395l1.145-0.293l0.449-0.066l-0.375-3.57l-1.133-0.098
		l-1.184-0.148l-1.172-0.188l-1.16-0.227l-1.145-0.266l-1.125-0.301l-1.113-0.344l-1.098-0.375l-0.215-0.082l-1.336,1.852
		l0.699,0.605l0.73,1.008l0.324,0.992l-0.137,0.902l-0.477,0.594l-0.738,0.387l-0.949,0.176l-1.105-0.035l-1.207-0.254l-1.254-0.477
		l-1.379-0.801l-1.086-0.938l-0.73-1.004l-0.328-0.996l0.141-0.902l0.473-0.594l0.742-0.387l0.949-0.176l1.105,0.035l0.465,0.098
		l0.582-2.156l-0.477-0.262l-0.984-0.582l-0.957-0.613l-0.938-0.645l-0.918-0.676l-0.891-0.707l-0.867-0.734l-0.84-0.762
		l-0.816-0.789l-0.789-0.813l-0.031-0.039l-3.078,1.879l0.129,0.219l0.461,0.98l0.34,0.961l0.211,0.918l0.09,0.863l-0.043,0.793
		l-0.176,0.703l-0.309,0.598l-0.449,0.473l-0.637,0.348l-0.742,0.145l-0.824-0.047l-0.883-0.23l-0.922-0.402l-0.941-0.57
		l-0.938-0.719l-0.914-0.867l-0.863-1.004l-0.691-0.973l-0.578-0.984l-0.461-0.98l-0.34-0.957l-0.211-0.918l-0.09-0.867l0.043-0.789
		l0.176-0.703l0.309-0.598l0.449-0.473l0.637-0.348l0.742-0.145l0.824,0.047l0.883,0.23l0.922,0.402l0.941,0.566l0.938,0.723
		l0.328,0.313l2.551-2.461l-0.371-0.539l-0.613-0.961l-0.586-0.98l-0.547-1.004l-0.52-1.023l-0.48-1.043l-0.449-1.059l-0.414-1.082
		l-0.379-1.094l-0.156-0.508l-2.352,0.051l-0.008,0.469l-0.215,1.082l-0.387,0.887l-0.543,0.633l-0.684,0.332l-0.914-0.07
		l-0.891-0.539l-0.816-0.938l-0.672-1.27l-0.469-1.523l-0.18-1.328l0.023-1.234l0.211-1.086l0.387-0.887l0.543-0.633l0.688-0.328
		l0.91,0.066l0.895,0.539l0.813,0.941l0.438,0.82l2.113-0.848l-0.059-0.344L42.32,76.84l-0.105-1.195l-0.063-1.207l-0.023-1.223
		l0.023-1.219l0.063-1.207l0.105-1.195l0.082-0.66l-3.438-1.156l-0.293,0.746l-0.621,1.145l-0.699,0.965l-0.762,0.758l-0.805,0.52
		l-0.816,0.266l-0.816-0.02l-0.609-0.23L33,71.527l-0.465-0.555l-0.387-0.695l-0.301-0.813l-0.211-0.922l-0.113-1.008l-0.02-1.086
		l0.09-1.137l0.195-1.176l0.391-1.434l0.512-1.301l0.617-1.148l0.703-0.961l0.762-0.758l0.801-0.523l0.82-0.262l0.816,0.02
		l0.609,0.227l0.543,0.402l0.465,0.555l0.383,0.691l0.301,0.816l0.211,0.922l0.117,1.008l0.016,1.082L39.84,63.68l3.543,0.371
		l0.066-0.246l0.34-1.113l0.379-1.098l0.414-1.078l0.449-1.059l0.48-1.043l0.52-1.023l0.547-1.004l0.586-0.98l0.613-0.961
		l0.023-0.035l-1.512-1.73l-0.363,0.293l-0.969,0.535l-0.926,0.273l-0.836-0.008l-0.691-0.313l-0.473-0.598l-0.211-0.809
		l0.043-0.965l0.285-1.066l0.52-1.121l0.742-1.113l0.902-0.992l0.961-0.773l0.969-0.535l0.926-0.273L48,45.223l0.695,0.313
		l0.469,0.598l0.211,0.809l-0.039,0.965l-0.285,1.07l-0.199,0.43l2.008,1.07l0.438-0.484l0.789-0.813l0.816-0.789l0.84-0.762
		l0.867-0.734l0.891-0.707l0.918-0.676l0.938-0.645l0.957-0.613l0.617-0.367l-1.148-3.445l-0.242,0.074l-1.059,0.23l-1.008,0.113
		h-0.945l-0.863-0.109l-0.762-0.219l-0.645-0.328l-0.512-0.438l-0.359-0.543l-0.203-0.789l0.074-0.859l0.328-0.898l0.566-0.914
		l0.781-0.898l0.977-0.859l1.152-0.793l1.309-0.703l1.102-0.457l1.09-0.34l1.059-0.227l1.012-0.113l0.945-0.004l0.859,0.109
		l0.762,0.219l0.648,0.328l0.508,0.438l0.363,0.547l0.203,0.789l-0.074,0.855l-0.328,0.898l-0.566,0.914l-0.781,0.902l-0.977,0.859
		l-0.625,0.426l1.824,3.031l0.031-0.012l1.078-0.414l1.098-0.375l1.113-0.344l1.125-0.301l1.145-0.266l1.16-0.227l1.172-0.188
		L72.5,39.41l0.648-0.055l0.391-2.262l-0.461-0.105l-1.016-0.438l-0.785-0.559l-0.508-0.664l-0.18-0.738l0.18-0.738l0.508-0.664
		l0.785-0.563l1.016-0.434l1.203-0.281l1.336-0.098l1.336,0.098l1.203,0.281l1.016,0.434l0.785,0.563l0.508,0.664l0.18,0.738
		l-0.18,0.738l-0.508,0.664l-0.785,0.559l-1.016,0.438l-0.465,0.105"/>
	<path fill="#9B7CD1" stroke="#9B7CD1" stroke-linejoin="bevel" stroke-miterlimit="10" d="M72.395,35.164h3.75l0.75,3h-5.25
		L72.395,35.164z"/>
	<path fill="#9B7CD1" stroke="#9B7CD1" stroke-linejoin="bevel" stroke-miterlimit="10" d="M69.09,33.313c0-1.5,2.25-3,5.027-3
		c2.473,0,5.027,1.242,5.027,2.777c-0.305,1.723-2.25,2.777-5.027,2.777c-2.777-0.305-5.027-1.246-5.027-2.777V33.313z"/>
	<path fill="#9B7CD1" stroke="#9B7CD1" stroke-linejoin="bevel" stroke-miterlimit="10" d="M102.324,47.918l2.309,2.957
		l-1.902,2.438l-3.23-4.137L102.324,47.918z"/>
	<path fill="#9B7CD1" stroke="#9B7CD1" stroke-linejoin="bevel" stroke-miterlimit="10" d="M101.75,44.176
		c1.18-0.926,3.75-0.074,5.457,2.113c1.523,1.949,2.117,4.727,0.91,5.672c-1.547,0.82-3.574-0.066-5.285-2.254
		c-1.469-2.375-2.113-4.727-0.906-5.672L101.75,44.176z"/>
	<path fill="#9B7CD1" stroke="#9B7CD1" stroke-linejoin="bevel" stroke-miterlimit="10" d="M89.891,36.547l3.398,1.582l-1.223,4.398
		l-4.758-2.219L89.891,36.547z"/>
	<path fill="#9B7CD1" stroke="#9B7CD1" stroke-linejoin="bevel" stroke-miterlimit="10" d="M86.152,31.301
		c0.949-2.039,4.566-2.008,8.25-0.293c3.527,1.648,5.91,4.723,4.98,6.715c-0.59,1.957-4.664,2.211-8.344,0.496
		c-4.07-1.57-5.914-4.723-4.984-6.711L86.152,31.301z"/>
	<path fill="#9B7CD1" stroke="#9B7CD1" stroke-linejoin="bevel" stroke-miterlimit="10" d="M111.824,62.363l0.777,3.668
		l-4.246,1.668l-1.09-5.133L111.824,62.363z"/>
	<path fill="#9B7CD1" stroke="#9B7CD1" stroke-linejoin="bevel" stroke-miterlimit="10" d="M113.762,56.223
		c2.203-0.469,4.352,2.441,5.199,6.414c0.809,3.809-0.215,7.563-2.363,8.02c-1.918,0.707-4.574-2.395-5.418-6.367
		c-1.195-4.195,0.211-7.563,2.359-8.02L113.762,56.223z"/>
	<path fill="#9B7CD1" stroke="#9B7CD1" stroke-linejoin="bevel" stroke-miterlimit="10" d="M59.383,36.547l-3.398,1.582l1.223,4.398
		l4.758-2.219L59.383,36.547z"/>
	<path fill="#9B7CD1" stroke="#9B7CD1" stroke-linejoin="bevel" stroke-miterlimit="10" d="M63.121,31.301
		c-0.949-2.039-4.57-2.008-8.25-0.293c-3.531,1.648-5.914,4.723-4.984,6.715c0.59,1.957,4.664,2.211,8.348,0.496
		c4.07-1.57,5.91-4.723,4.984-6.711L63.121,31.301z"/>
	<path fill="#9B7CD1" stroke="#9B7CD1" stroke-linejoin="bevel" stroke-miterlimit="10" d="M46.797,47.918l-2.309,2.957l1.898,2.438
		l3.234-4.137L46.797,47.918z"/>
	<path fill="#9B7CD1" stroke="#9B7CD1" stroke-linejoin="bevel" stroke-miterlimit="10" d="M47.371,44.176
		c-1.184-0.926-3.75-0.074-5.461,2.113c-1.52,1.949-2.113,4.727-0.906,5.672c1.547,0.82,3.574-0.066,5.281-2.254
		c1.473-2.375,2.117-4.727,0.91-5.672L47.371,44.176z"/>
	<path fill="#9B7CD1" stroke="#9B7CD1" stroke-linejoin="bevel" stroke-miterlimit="10" d="M37.426,62.363l-0.777,3.668l4.246,1.668
		l1.09-5.133L37.426,62.363z"/>
	<path fill="#9B7CD1" stroke="#9B7CD1" stroke-linejoin="bevel" stroke-miterlimit="10" d="M35.488,56.223
		c-2.203-0.469-4.352,2.441-5.199,6.414c-0.809,3.809,0.215,7.563,2.363,8.02c1.918,0.707,4.574-2.395,5.418-6.367
		c1.195-4.195-0.211-7.563-2.359-8.02L35.488,56.223z"/>
	<path fill="#9B7CD1" stroke="#9B7CD1" stroke-linejoin="bevel" stroke-miterlimit="10" d="M110.785,78.152l-0.781,3.668
		l-3.09,0.109l1.094-5.137L110.785,78.152z"/>
	<path fill="#9B7CD1" stroke="#9B7CD1" stroke-linejoin="bevel" stroke-miterlimit="10" d="M113.285,75.305
		c1.465,0.313,2.465,2.824,1.887,5.543c-0.512,2.418-2.262,4.656-3.758,4.34c-1.625-0.656-2.25-2.781-1.672-5.496
		c0.875-2.652,2.262-4.66,3.762-4.34L113.285,75.305z"/>
	<path fill="#9B7CD1" stroke="#9B7CD1" stroke-linejoin="bevel" stroke-miterlimit="10" d="M38.57,78.152l0.781,3.668l3.09,0.109
		l-1.09-5.137L38.57,78.152z"/>
	<path fill="#9B7CD1" stroke="#9B7CD1" stroke-linejoin="bevel" stroke-miterlimit="10" d="M36.074,75.305
		c-1.469,0.313-2.469,2.824-1.891,5.543c0.516,2.418,2.262,4.656,3.762,4.34c1.621-0.656,2.246-2.781,1.668-5.496
		c-0.871-2.652-2.258-4.66-3.758-4.34L36.074,75.305z"/>
	<path fill="#9B7CD1" stroke="#9B7CD1" stroke-linejoin="bevel" stroke-miterlimit="10" d="M105.664,94.301l-2.309,2.957
		l-4.008-2.18l3.234-4.137L105.664,94.301z"/>
	<path fill="#9B7CD1" stroke="#9B7CD1" stroke-linejoin="bevel" stroke-miterlimit="10" d="M111.617,91.84
		c1.773,1.383,0.926,4.902-1.574,8.102c-2.398,3.07-5.93,4.699-7.66,3.348c-1.773-1.016-1.109-5.043,1.391-8.242
		c2.449-3.613,5.934-4.699,7.664-3.348L111.617,91.84z"/>
	<path fill="#9B7CD1" stroke="#9B7CD1" stroke-linejoin="bevel" stroke-miterlimit="10" d="M43.656,94.301l2.309,2.957l4.008-2.18
		l-3.23-4.137L43.656,94.301z"/>
	<path fill="#9B7CD1" stroke="#9B7CD1" stroke-linejoin="bevel" stroke-miterlimit="10" d="M37.707,91.84
		c-1.773,1.383-0.93,4.902,1.57,8.102c2.398,3.07,5.93,4.699,7.664,3.348c1.773-1.016,1.105-5.043-1.395-8.242
		c-2.449-3.613-5.93-4.699-7.664-3.348L37.707,91.84z"/>
	<path fill="#9B7CD1" stroke="#9B7CD1" stroke-linejoin="bevel" stroke-miterlimit="10" d="M91.648,104.219l-3.398,1.586
		l-1.945-2.402l4.758-2.219L91.648,104.219z"/>
	<path fill="#9B7CD1" stroke="#9B7CD1" stroke-linejoin="bevel" stroke-miterlimit="10" d="M95.43,104.5
		c0.633,1.359-0.773,3.672-3.289,4.844c-2.242,1.047-5.082,1-5.73-0.391c-0.453-1.691,0.867-3.469,3.383-4.641
		c2.645-0.898,5.082-1,5.73,0.391L95.43,104.5z"/>
	<path fill="#9B7CD1" stroke="#9B7CD1" stroke-linejoin="bevel" stroke-miterlimit="10" d="M57.828,104.219l3.402,1.586l1.945-2.402
		l-4.758-2.219L57.828,104.219z"/>
	<path fill="#9B7CD1" stroke="#9B7CD1" stroke-linejoin="bevel" stroke-miterlimit="10" d="M54.051,104.5
		c-0.633,1.359,0.773,3.672,3.289,4.844c2.242,1.047,5.082,1,5.73-0.391c0.453-1.691-0.867-3.469-3.383-4.641
		c-2.645-0.898-5.082-1-5.73,0.391L54.051,104.5z"/>
	<path fill="#9B7CD1" stroke="#9B7CD1" stroke-linejoin="bevel" stroke-miterlimit="10" d="M72.875,110.039h3.75l0.75-4.5h-5.25
		L72.875,110.039z"/>
	<path fill="#9B7CD1" stroke="#9B7CD1" stroke-linejoin="bevel" stroke-miterlimit="10" d="M67.27,113.211
		c0,2.25,3.293,3.75,7.355,3.75c3.895,0,7.355-1.777,7.355-3.977c0.289-2.023-3.293-3.977-7.355-3.977
		c-4.355-0.297-7.355,1.781-7.355,3.977V113.211z"/>
	<path fill="#9B7CD1" stroke="#9B7CD1" stroke-linejoin="bevel" stroke-miterlimit="10" d="M40.629,71.473
		c0-18.75,15.219-33.75,33.996-33.75c18.504,0,33.996,15.219,33.996,33.992c0.258,18.508-15.219,33.996-33.996,33.996
		c-18.996,0.262-33.996-15.219-33.996-33.996V71.473z"/>
	<path fill="#FFFFFF" stroke="#FFFFFF" stroke-linejoin="bevel" stroke-miterlimit="10" d="M63.828,47.52c0-1.5,1.402-3,3.129-3
		c1.371,0,3.129,1.402,3.129,3.129c-0.258,1.371-1.402,3.129-3.129,3.129c-1.629-0.258-3.129-1.398-3.129-3.129V47.52z"/>
	<path fill="#FFFFFF" stroke="#FFFFFF" stroke-linejoin="bevel" stroke-miterlimit="10" d="M46.727,75.652c0-3,1.859-4.5,4.152-4.5
		c2.598,0,4.152,1.859,4.152,4.152c-0.055,2.598-1.859,4.152-4.152,4.152c-2.652-0.055-4.152-1.859-4.152-4.152V75.652z"/>
	<path fill="#FFFFFF" stroke="#FFFFFF" stroke-linejoin="bevel" stroke-miterlimit="10" d="M75.871,92.945c0-1.5,1.426-3,3.184-3
		c2.066,0,3.184,1.426,3.184,3.184c-0.367,2.066-1.426,3.184-3.184,3.184c-1.684-0.367-3.184-1.426-3.184-3.184V92.945z"/>
	<path fill="#FFFFFF" stroke="#FFFFFF" stroke-linejoin="bevel" stroke-miterlimit="10" d="M93.695,55.645c0-1.5,1.238-3,2.766-3
		c1.734,0,2.766,1.238,2.766,2.766c-0.281,1.734-1.238,2.766-2.766,2.766c-1.266-0.281-2.766-1.238-2.766-2.766V55.645z"/>
	<path fill="#FFFFFF" stroke="#FFFFFF" stroke-linejoin="bevel" stroke-miterlimit="10" d="M85.266,66.609
		c0-2.25,1.992-4.5,4.449-4.5c2.301,0,4.449,1.992,4.449,4.449c0.102,2.301-1.992,4.449-4.449,4.449
		c-2.199,0.102-4.449-1.992-4.449-4.449V66.609z"/>
	<path fill="#FFFFFF" stroke="#FFFFFF" stroke-linejoin="bevel" stroke-miterlimit="10" d="M87.953,85.043
		c0-2.25,2.051-4.5,4.578-4.5c2.172,0,4.578,2.051,4.578,4.578c-0.156,2.172-2.051,4.578-4.578,4.578
		c-2.328-0.156-4.578-2.051-4.578-4.578V85.043z"/>
	<path fill="#FFFFFF" stroke="#FFFFFF" stroke-linejoin="bevel" stroke-miterlimit="10" d="M61.473,90.75c0-1.5,1.238-3,2.766-3
		c1.734,0,2.766,1.238,2.766,2.766c-0.281,1.734-1.238,2.766-2.766,2.766c-1.266-0.281-2.766-1.238-2.766-2.766V90.75z"/>
	<path fill="#FFFFFF" stroke="#FFFFFF" stroke-linejoin="bevel" stroke-miterlimit="10" d="M66.902,66.375c0-1.5,1.426-3,3.184-3
		c2.066,0,3.184,1.426,3.184,3.184c-0.367,2.066-1.426,3.184-3.184,3.184c-1.684-0.367-3.184-1.426-3.184-3.184V66.375z"/>
	<path fill="#FFFFFF" stroke="#FFFFFF" stroke-linejoin="bevel" stroke-miterlimit="10" d="M67.598,79.996c0-3.75,2.52-6,5.629-6
		c3.371,0,5.629,2.52,5.629,5.629c-0.008,3.371-2.52,5.629-5.629,5.629c-3.379-0.008-5.629-2.52-5.629-5.629V79.996z"/>
	<path fill="#FFFFFF" stroke="#FFFFFF" stroke-linejoin="bevel" stroke-miterlimit="10" d="M75.758,52.309
		c0-2.25,1.781-3.75,3.977-3.75c2.023,0,3.977,1.781,3.977,3.977c0.297,2.023-1.781,3.98-3.977,3.98
		c-2.477,0.293-3.977-1.781-3.977-3.98V52.309z"/>
	<path fill="#FFFFFF" stroke="#FFFFFF" stroke-linejoin="bevel" stroke-miterlimit="10" d="M53.105,56.449
		c0-1.5,0.918-2.25,2.051-2.25c0.949,0,2.047,0.918,2.047,2.051c-0.348,0.949-0.914,2.047-2.047,2.047
		c-1.301-0.348-2.051-0.918-2.051-2.047V56.449z"/>
</g>
</svg>
