<?xml version="1.0" encoding="utf-8"?>
<!-- Generator: Adobe Illustrator 16.0.0, SVG Export Plug-In . SVG Version: 6.00 Build 0)  -->
<!DOCTYPE svg PUBLIC "-//W3C//DTD SVG 1.1//EN" "http://www.w3.org/Graphics/SVG/1.1/DTD/svg11.dtd">
<svg preserveAspectRatio="none" version="1.1" id="图层_1" xmlns="http://www.w3.org/2000/svg" xmlns:xlink="http://www.w3.org/1999/xlink" x="0px" y="0px"
	 width="91.308px" height="73.023px" viewBox="29.399 29.125 91.308 73.023" enable-background="new 29.399 29.125 91.308 73.023"
	 xml:space="preserve">
<g id="surface1376">
	<path fill-opacity="0.0784" d="M36.82,52.27l12.527,7.27l-4.461,8.074l-0.172,0.242l-0.5,0.605l-0.793,0.789l-1.059,0.793
		L41.07,70.66l-1.5,0.262l-1.621-0.078l-1.238-0.219l-0.871-0.273l-0.512-0.23l-0.168-0.098l-0.414-0.281l-0.965-0.762l-1.105-1.141
		l-0.84-1.406l-0.059-0.246l-0.133-0.652l-0.113-0.953l-0.023-1.137l0.156-1.199l0.418-1.148L36.82,52.27 M50.34,58.121
		l-12.531-7.273l4.465-8.07l0.172-0.242l0.5-0.605l0.793-0.789l1.059-0.793l1.293-0.617l1.496-0.262l1.621,0.074l1.242,0.223
		l0.871,0.273l0.512,0.23L52,40.367l0.41,0.281l0.965,0.762l1.105,1.141l0.84,1.406l0.063,0.242l0.129,0.656l0.117,0.953l0.02,1.133
		l-0.156,1.199l-0.414,1.152L50.34,58.121 M59.945,46.184l0.051-1.238l0.145-1.207l0.238-1.176l0.324-1.141l0.41-1.102l0.492-1.059
		l0.566-1.012l0.641-0.961l0.711-0.906l0.777-0.852l0.836-0.785l0.895-0.719l0.953-0.648l0.996-0.574l1.047-0.496l1.09-0.418
		l1.129-0.328l1.164-0.242l1.191-0.145l1.223-0.051v30.113l-1.223-0.047l-1.191-0.148l-1.164-0.242l-1.129-0.332l-1.09-0.414
		l-1.047-0.5l-0.996-0.574l-0.953-0.652l-0.895-0.719l-0.836-0.789l-0.777-0.848l-0.711-0.906l-0.641-0.961l-0.566-1.012
		l-0.492-1.059l-0.41-1.102l-0.324-1.141l-0.238-1.172l-0.145-1.207L59.945,46.184 M91.406,46.184l-0.051-1.238l-0.145-1.207
		l-0.238-1.176l-0.324-1.141l-0.41-1.102l-0.492-1.059L89.18,38.25l-0.641-0.961l-0.711-0.906l-0.773-0.852l-0.84-0.785
		l-0.895-0.719l-0.949-0.648l-1-0.574l-1.047-0.496l-1.09-0.418l-1.125-0.328l-1.164-0.242l-1.195-0.145l-1.223-0.051v30.113
		l1.223-0.047l1.195-0.148l1.164-0.242l1.125-0.332l1.09-0.414l1.047-0.5l1-0.574l0.949-0.652l0.895-0.719l0.84-0.789l0.773-0.848
		l0.711-0.906l0.641-0.961l0.566-1.012l0.492-1.059l0.41-1.102l0.324-1.141l0.238-1.172l0.145-1.207L91.406,46.184 M46.016,77.344
		l25.191,14.543l0.586,0.766l-0.125,0.961l-1.898,3.285L42.391,81.09l1.895-3.285l0.77-0.59L46.016,77.344 M40.16,87.48
		l25.191,14.543l0.961,0.125l0.77-0.59l1.895-3.285L41.598,82.465l-1.898,3.285l-0.125,0.961L40.16,87.48 M114.266,51.578
		L89.074,66.121l-0.59,0.766l0.125,0.961l1.898,3.289l27.383-15.813l-1.898-3.285l-0.77-0.59L114.266,51.578 M120.117,61.715
		L94.926,76.258l-0.957,0.125l-0.77-0.59l-1.898-3.285l27.383-15.809l1.898,3.285l0.125,0.961L120.117,61.715 M86.766,80.785
		l-12.531,7.27l4.465,8.074l0.172,0.242l0.5,0.605l0.793,0.789l1.059,0.793l1.293,0.617l1.496,0.262l1.621-0.078l1.242-0.219
		l0.867-0.273l0.516-0.23l0.168-0.098l0.41-0.281l0.965-0.762l1.105-1.141l0.84-1.406l0.063-0.246l0.129-0.652l0.117-0.953
		l0.02-1.137l-0.156-1.199l-0.414-1.148L86.766,80.785 M73.246,86.637l12.527-7.273l-4.461-8.07l-0.172-0.242l-0.5-0.605
		l-0.793-0.789l-1.059-0.793l-1.293-0.617l-1.5-0.262l-1.621,0.074l-1.238,0.223l-0.871,0.273l-0.512,0.23l-0.168,0.098
		l-0.414,0.281l-0.965,0.762l-1.105,1.141l-0.84,1.406l-0.059,0.242l-0.133,0.656l-0.113,0.953l-0.023,1.133l0.156,1.199
		l0.418,1.152L73.246,86.637"/>
	<path fill="#EEEEEE" stroke="#EEEEEE" stroke-linejoin="bevel" stroke-miterlimit="10" d="M35.254,50.77l12.75,7.5l-4.5,7.5
		c0,0-2.254,3.605-5.434,3.652c-2.816,0.098-4.41-0.898-4.41-0.898c0.094,0.246-2.563-1.586-3.324-3.59
		c-0.332,0.086-0.898-3.164,0.246-5.336L35.254,50.77z"/>
	<path fill="#01455C" stroke="#01455C" stroke-linejoin="bevel" stroke-miterlimit="10" d="M48.906,56.621l-12.75-7.5l4.5-7.5
		c0,0,2.25-3.605,5.43-3.652c2.82-0.098,4.414,0.898,4.414,0.898c-0.094-0.246,2.563,1.586,3.32,3.59
		c0.336-0.086,0.902,3.164-0.242,5.336L48.906,56.621z"/>
	<path fill="#EEEEEE" stroke="#EEEEEE" stroke-linejoin="bevel" stroke-miterlimit="10" d="M58.445,44.625
		c0-8.25,6.652-15,14.879-15c0.121,0,0,30.113,0,30.113c-8.129-0.113-14.879-6.762-14.879-15.055V44.625z"/>
	<path fill="#01455C" stroke="#01455C" stroke-linejoin="bevel" stroke-miterlimit="10" d="M89.906,44.625
		c0-8.25-6.648-15-14.879-15c-0.121,0,0,30.113,0,30.113c8.129-0.113,14.879-6.762,14.879-15.055V44.625z"/>
	<path fill="#01455C" stroke="#01455C" stroke-linejoin="bevel" stroke-miterlimit="10" d="M44.719,75.961l24.68,14.25
		c0.652,0.375,1.121,1.297,0.77,1.902l-2.094,3.395l-27.281-15.75l1.875-3.25c0.375-0.648,1.242-1.016,1.848-0.664L44.719,75.961z"
		/>
	<path fill="#EEEEEE" stroke="#EEEEEE" stroke-linejoin="bevel" stroke-miterlimit="10" d="M38.867,86.098l24.68,14.25
		c0.648,0.375,1.684,0.316,2.035-0.289l1.891-3.508l-27.281-15.75l-1.875,3.246c-0.375,0.652-0.258,1.582,0.344,1.934L38.867,86.098
		z"/>
	<path fill="#01455C" stroke="#01455C" stroke-linejoin="bevel" stroke-miterlimit="10" d="M112.563,50.195l-24.684,14.25
		c-0.648,0.375-1.117,1.297-0.77,1.902l2.098,3.395l27.277-15.75l-1.875-3.25c-0.375-0.648-1.238-1.016-1.844-0.664L112.563,50.195z
		"/>
	<path fill="#EEEEEE" stroke="#EEEEEE" stroke-linejoin="bevel" stroke-miterlimit="10" d="M118.414,60.332L93.73,74.582
		c-0.648,0.375-1.684,0.316-2.031-0.289l-1.891-3.508l27.277-15.75l1.875,3.246c0.375,0.652,0.262,1.582-0.344,1.934L118.414,60.332
		z"/>
	<path fill="#EEEEEE" stroke="#EEEEEE" stroke-linejoin="bevel" stroke-miterlimit="10" d="M85.332,79.285l-12.75,7.5l4.5,7.5
		c0,0,2.25,3.605,5.43,3.652c2.82,0.098,4.414-0.898,4.414-0.898c-0.094,0.246,2.563-1.586,3.32-3.59
		c0.336,0.086,0.902-3.164-0.242-5.336L85.332,79.285z"/>
	<path fill="#01455C" stroke="#01455C" stroke-linejoin="bevel" stroke-miterlimit="10" d="M71.68,85.137l12.75-7.5l-4.5-7.5
		c0,0-2.254-3.605-5.434-3.652c-2.816-0.098-4.41,0.898-4.41,0.898c0.094-0.246-2.563,1.586-3.324,3.59
		c-0.332-0.086-0.902,3.164,0.246,5.336L71.68,85.137z"/>
</g>
</svg>
