<?xml version="1.0" encoding="utf-8"?>
<!-- Generator: Adobe Illustrator 16.0.0, SVG Export Plug-In . SVG Version: 6.00 Build 0)  -->
<!DOCTYPE svg PUBLIC "-//W3C//DTD SVG 1.1//EN" "http://www.w3.org/Graphics/SVG/1.1/DTD/svg11.dtd">
<svg preserveAspectRatio="none" version="1.1" id="图层_1" xmlns="http://www.w3.org/2000/svg" xmlns:xlink="http://www.w3.org/1999/xlink" x="0px" y="0px"
	 width="89.539px" height="63.8px" viewBox="30 29.251 89.539 63.8" enable-background="new 30 29.251 89.539 63.8"
	 xml:space="preserve">
<g id="surface1396">
	<path fill-opacity="0.0784" d="M76.457,40.629c0,0,4.008-12.34,21.191-8.684c15.352,5.34,19.902,20.23,7.141,36.418
		c-14.723,16.27-28.332,24.688-28.332,24.688S58.082,80.902,48.086,68.363C38.09,55.82,36.188,39.18,55.227,31.945
		C55.227,31.945,70.766,27.605,76.457,40.629"/>
	<path fill="none" stroke="#EB6D71" stroke-linejoin="bevel" stroke-miterlimit="10" d="M42,58.465H30"/>
	<path fill="none" stroke="#EB6D71" stroke-linejoin="bevel" stroke-miterlimit="10" d="M119.539,58.465h-12"/>
	<path fill="#EB6D71" stroke="#EB6D71" stroke-linejoin="bevel" stroke-miterlimit="10" d="M75.199,38.766
		c0,0,3.766-11.977,20.949-8.32c15.051,5.32,19.902,20.23,7.141,36.418c-14.59,16.152-28.332,24.688-28.332,24.688
		c0.242-0.285-18.375-12.148-28.371-24.688c-9.637-12.348-11.898-29.184,7.141-36.418c-0.277,0.07,15.539-4.34,21.23,8.684
		L75.199,38.766z"/>
	<path fill="none" stroke="#FFFFFF" stroke-linejoin="bevel" stroke-miterlimit="10" d="M41.438,58.535h8.25l2.25-4.5l2.25,8.25
		l2.25-17.25l3,29.25l1.5-19.5l3,7.5l2.25-3.75h5.25l1.5-3.75l2.25,7.5l2.25-20.25l3,32.25l2.25-20.25l2.25,8.25l2.25-3.75h4.5
		l2.25,8.25l3.75-12l0.75,3.75h10.5"/>
</g>
</svg>
