<?xml version="1.0" encoding="utf-8"?>
<!-- Generator: Adobe Illustrator 16.0.0, SVG Export Plug-In . SVG Version: 6.00 Build 0)  -->
<!DOCTYPE svg PUBLIC "-//W3C//DTD SVG 1.1//EN" "http://www.w3.org/Graphics/SVG/1.1/DTD/svg11.dtd">
<svg preserveAspectRatio="none" version="1.1" id="图层_1" xmlns="http://www.w3.org/2000/svg" xmlns:xlink="http://www.w3.org/1999/xlink" x="0px" y="0px"
	 width="149.465px" height="73.059px" viewBox="29.477 29.711 149.465 73.059"
	 enable-background="new 29.477 29.711 149.465 73.059" xml:space="preserve">
<g id="surface1356">
	<path fill="#01455C" stroke="#01455C" stroke-linejoin="bevel" stroke-miterlimit="10" d="M31.477,33.766h3
		c0.75,0,1.383,0.715,1.383,1.594l0.117,65.156c0,0.75-0.82,1.754-1.688,1.754l-2.813-0.254c-0.75,0-1.5-0.461-1.5-1.34v-65.41
		c0-0.75,0.703-1.5,1.566-1.5H31.477z"/>
	<path fill="#01455C" stroke="#01455C" stroke-linejoin="bevel" stroke-miterlimit="10" d="M174.402,58.707h2.25
		c0.75,0,1.789,0.715,1.789,1.594l-0.289,39.656c0,0.75-0.414,1.258-1.281,1.258l-2.469,0.242c-0.75,0-1.5-0.957-1.5-1.836V60.207
		c0-0.75,0.703-1.5,1.57-1.5H174.402z"/>
	<path fill="#01455C" stroke="#01455C" stroke-linejoin="bevel" stroke-miterlimit="10" d="M35.68,72.922h137.25v5.25H35.68V72.922z
		"/>
	<path fill="#50BEC1" stroke="#50BEC1" stroke-linejoin="bevel" stroke-miterlimit="10" d="M40.379,48.387
		c0,0,0.922-5.25,17.535-5.25c4.215,9,14.582,5.434,14.582,5.434l2.383,5.816h-34.5V48.387z"/>
	<path fill="#50BEC1" stroke="#50BEC1" stroke-linejoin="bevel" stroke-miterlimit="10" d="M58.699,39.211c0-5.25,3.801-9,8.5-9
		c5,0,8.48,3.855,8.48,8.629c0.27,4.871-3.801,8.605-8.48,8.605c-4.75,0.016-8.5-3.859-8.5-8.605V39.211z"/>
	<path fill="#50BEC1" stroke="#50BEC1" stroke-linejoin="bevel" stroke-miterlimit="10" d="M85.969,38.465
		c0,0,68.477,0.563,74.566,6.742c6.434,6.008,0,9.746,0,9.746l-74.566,0.012V38.465z"/>
	<path fill="#50BEC1" stroke="#50BEC1" stroke-linejoin="bevel" stroke-miterlimit="10" d="M77.156,43.34h6.75v11.25h-6.75
		c-0.75,0-1.523-0.551-1.523-1.43l0.023-8.32c0-0.75,0.68-1.516,1.547-1.516L77.156,43.34z"/>
	<path fill="#50BEC1" stroke="#50BEC1" stroke-linejoin="bevel" stroke-miterlimit="10" d="M170.008,57.129v12
		c0,0.75-0.574,1.547-1.441,1.547L40.258,70.629c-0.75,0-1.5-0.664-1.5-1.547V57.129H170.008z"/>
</g>
</svg>
