<?xml version="1.0" encoding="utf-8"?>
<!-- Generator: Adobe Illustrator 16.0.0, SVG Export Plug-In . SVG Version: 6.00 Build 0)  -->
<!DOCTYPE svg PUBLIC "-//W3C//DTD SVG 1.1//EN" "http://www.w3.org/Graphics/SVG/1.1/DTD/svg11.dtd">
<svg preserveAspectRatio="none" version="1.1" id="图层_1" xmlns="http://www.w3.org/2000/svg" xmlns:xlink="http://www.w3.org/1999/xlink" x="0px" y="0px"
	 width="178.369px" height="210.388px" viewBox="29.512 29.061 178.369 210.388"
	 enable-background="new 29.512 29.061 178.369 210.388" xml:space="preserve">
<g id="surface1271">
	<path fill="#50BEC1" stroke="#50BEC1" stroke-linejoin="bevel" stroke-miterlimit="10" d="M55.5,94.199
		c0,0,2.457-44.996,40.406-57.957c33.844-11.793,82.031-13.5,108.16,42.148c-0.066,0.059,14.887,41.816-18.191,67.172
		c0.125-0.363-16.539,20.086-19.516,42.805c-2.859,22.832,10.254,50.379,10.254,50.379l-82.863,0.203
		c0,0-8.098-35.434-16.699-39.715C68.25,194.699,50.258,191,50.258,191c-0.008-0.051-12.238-1.316-8.266-13.168
		c0.008,0.367,5.289-8.234,0.66-12.844c0.098-0.289-7.277-3.293-0.66-6.914c0.008-0.125-5.625-4.609-1.656-8.563
		c0.164,0.188,5.625-4.281,0-8.23c0.164,0.168-14.883,0.328-8.93-10.539c0.094,0.207,6.781-7.406,16.867-17.449
		c-0.273-0.344,10.254-6.914,7.277-18.77L55.5,94.199z"/>
	<path fill="#FFF5EE" stroke="#FFF5EE" stroke-width="0.25" stroke-linejoin="bevel" stroke-miterlimit="10" d="M108.941,99.285
		c-7.5,2.25-8.691-0.609-15.121,1.023c-6.629,1.977-11.703,2.609-16.648-2.938c-4.98-5.586-4.781-21.035,1.484-30.82
		c6.285-10.016,11.043-14.84,15.496-17.938c4.289-3.328,9.23-3.098,11.867-4.727c0.672-0.852,3.629-2.773,9.563-2.449
		c6.109,0.098,6.922-0.652,11.043-0.652c4.066,0,11.211,0.164,15.004,1.633c4.063,1.367,9.559,1.629,17.969,6.684
		c8.594,5.184,9.395,3.102,15.164,8.809c5.43,5.375,7.914,5.219,11.047,11.902c3.383,6.973,7.254,10.273,7.254,14.352
		c-0.121,3.871,2.637,10.273,2.637,16.145c0.242,5.727-1.32,14.023-5.277,16.957c-4.23,3.02-8.078-0.324-13.352-0.652
		c-5.129-0.078-12.859,3.262-17.473,1.957c-4.906-1.285-7.586-0.16-11.539,1.797c-3.867,2.168-6.266-1.633-10.551,1.141
		c-4.566,2.527-6.594-1.469-12.035,1.141c-5.281,2.887-15.496-2.445-18.297-6.688c-2.734-3.926-3.461-11.578,1.566-16.551
		L108.941,99.285z"/>
	<path fill="#EDCEB8" d="M108.719,99.41c6-3.75,10.25-8.664,17.285-9.426c8.215-1.074,26.156-6.637,29.016-7.289
		c3.199-0.535,4.504-6.09-2.527-8.035c-0.273,0,7.582,3.141,2.527,7.164c0.199,0.336-15.168,5.113-29.785,7.723
		c-3.016,0.863-8.188,1.906-16.516,9.871V99.41z"/>
	<path fill="#EDCEB8" d="M156.242,81.512c0.75,1.5,1.855,2.164,1.855,2.164L156.242,81.512z"/>
	<path fill="#EDCEB8" d="M111.496,97.566c-9-0.75-9.012-2.363-9.012-3.016c0.012,0.016,0.219,1.195,8.902,2.719L111.496,97.566z"/>
	<path fill="#EDCEB8" d="M107.496,99.949c-10.5-1.5-17.984-7.355-22.93-6.703c-4.82,0.703-8.57,2.066-8.57,2.5
		c1.5,0.453,5.934-2.281,10.328-1.738c4.672,0.691,15.402,6.418,21.223,5.871L107.496,99.949z"/>
	<path fill="#EDCEB8" d="M74.469,91.426c0-3,1.637-3.074,3.504-8.188c1.746-5.313,7.035-5,8.352-7.285
		c1.645-2.527,0-7.504,2.641-8.699c2.754-1.328,4.613-1.199,6.152-6.527c1.852-5.301,7.035-8.375,10.223-9.137
		c2.879-0.664,8.727-1.402,8.266-5.219c-0.137-1.445-1.672-2.195-1.781-2.195c2.395-0.75,2.859,2.52,2.418,3.609
		c-0.773,0.891-0.328,2.391-8.902,4.566c-7.621,2.324-9.23,7.504-10,9.898c-0.621,2.926-2.969,4.457-5.719,5.539
		c-2.402,1.137-1.648,6.531-2.637,8.492c-1.266,1.645-6.922,3.152-8.297,6.688c-1.219,3.207-4.453,8.434-4.219,8.434V91.426z"/>
	<path fill="#EDCEB8" d="M103.484,52.707c2.25-2.25,0.977-5.25-0.012-5.25c2.262,0.75,2.418,3.699,0,5.004L103.484,52.707z"/>
	<path fill="#EDCEB8" d="M81.828,62.023c3-1.5,5.707,0.008,6.367-1.188c0.383-1.063,1.594-3.969,3.844-5.004
		c2.539-1.309,2.805-3.645,4.617-5.438c1.672-1.871,2.418-4.121,2.418-4.121c0.004,0,0.223,2.598-1.977,4.555
		c-2.52,2.195-2.105,4.055-3.188,4.676c-2.332,1.27-4.453,3.973-5.168,5.766c-0.914,1.504-2.527,0.109-6.914,0.438V62.023z"/>
	<path fill="#EDCEB8" d="M86.699,78.68c-1.5,3.75-1.254,4.234,1.496,5.32c3.004,1.43,4.285,2.176,4.285,3.047
		c0.219-3.117-6.484-3.262-6.043-5.113c0.262-1.754,0.438-3.48,0.438-3.254H86.699z"/>
	<path fill="#EDCEB8" d="M87.988,83.598c3-1.5,3.941-4.164,3.172-6.012c-0.172,0.012,2.531,3.48-3.184,5.871L87.988,83.598z"/>
	<path fill="#EDCEB8" d="M97.969,76.496c2.25,0,3.305,2.609,3.305,2.609l2.695-1.109c0,0-2.313,1.492-2.695,1.871
		c-0.305,0.379-2.746,3.809-1.867,6.09c0.813,2.539,1.426,3.047,1.426,3.047c0.137,0.242-3.625,0.328-3.625,2.297
		c0.012,0.195-0.219-2.297,2.637-2.949c-0.375,0.145-1.539-2.609-1.098-4.676c0.723-1.93,1.867-4.023,1.867-4.023
		c0.355-0.156,0.77-1.414-2.309-3.156H97.969z"/>
	<path fill="#EDCEB8" d="M91.16,72.402c0.75,0,3.738,2.465,3.738,2.465c0.012-0.215,2.859-3.047,6.926-3.047
		c4.336-0.168,6.043,3.047,6.043,3.047c-0.207-0.215,0.879-3.48,3.078-4.242c-0.285,0.277-0.109-3.047-2.09-4.242
		c-1.945-1.48-6.152-2.395-5.824-6.73c0.129,0,0.543,4.234,5.605,5.859c2.773,1.641,2.969,5.328,2.969,5.328
		c-0.195,0.063-2.637,0.98-3.629,5.332c-0.316-0.02-2.309-4.133-6.484-3.809c-4.332,0.039-6.375,3.262-6.375,3.262
		c-0.207-0.223,0.992,1.633,0.223,3.277c0.32,0.25-0.113-2.73-0.992-3.82c-0.938-0.43-2.965-2.719-3.188-2.719V72.402z"/>
	<path fill="#EDCEB8" d="M110.863,70.273c1.5-0.75,4.809-0.41,4.809-2.586c-0.309-1.914,0.004-4.352-2.418-5.766
		c-0.141,0.102,4.066,0.219,2.969,6.637c-0.109,0.215,2.738,0.105,3.406,0.543c0.234-0.328,4.727-5.656,2.309-8.918
		c-2.074-3.41-6.707-4.895-10.992-3.809c-4.582,1.148-3.832,0-3.832,0c0-0.352,1.855,0.438,4.82-0.762
		c-0.32-0.34,0.992-1.086-0.328-2.828c-1.492-2.012-2.527-1.617-2.527-1.617c0.285,0.355,3.281-0.434,3.895,3.855
		c1.641,0.25,7.426,2.441,7.863,2.441c0.527,0.059,5.059-1.074,5.828-2.441c0.699-1.25,1.758-2.672,3.297-3.543
		c1.902-0.707,0.438-1.957,3.406-2.5c2.996-0.457,4.617-2.707,4.617-2.707c-0.121,0,0,1.617-4.398,3.25
		c-0.973,0.5-2.527,1.09-2.965,2.395c-0.258,0.355-2.199,0.762-3.188,3.48c-0.82,2.125-4.398,1.629-5.059,2.719
		c-1.012,0.906,1.402,3.215,0.934,4.949c-1.195,3.457-2.582,5.273-2.363,6.035c0.418,0.422,2.309,5.547,1.539,10.113
		c-1.121,4.559,0.77,5.234,0.77,5.234c0.359,0.074-2.309,1.184-1.426-5.559c1.035-2.617-0.77-9.355-2.418-9.355
		c-1.797-0.012-2.309-0.762-4.949,0.328c-2.848,1.16-3.297,0.762-3.297,0.762L110.863,70.273z"/>
	<path fill="#EDCEB8" d="M108.16,75.191c-0.75,3-0.074,11.637,0.918,12.398c1.332,1.102,2.195,0.98,2.195,0.98
		c-0.113,0.121-2.637-0.543-2.91-0.273c-0.203,0.395-1.703,1.047-1.703,1.047c0,0.098,2.086-1.59,1.703-1.969
		c-0.203-0.184-1.703-11.855-0.387-12.184H108.16z"/>
	<path fill="#EDCEB8" d="M95.344,68.266c1.5-2.25,3.953-2.211,5.602-0.906c-0.352,0.156-2.641-3.371-5.605,0.547L95.344,68.266z"/>
	<path fill="#EDCEB8" d="M118.922,92.309c-2.25-12.75-6-14.07-6-14.07c1.5-0.18,2.75,1.957,2.75,1.957
		c0.25,0.113,0.992-3.375,0.992-3.918c0.008-1.219,0.547-2.719,0.547-2.719c0.211,0,0.25,2.504-0.441,4.785
		c-0.848,3.465-0.438,3.48,0.441,5.984c0.961,2.73,2.199,7.504,2.199,7.504L118.922,92.309z"/>
	<path fill="#EDCEB8" d="M125.352,90.391c2.25-2.25,2.852-7.586,1.859-9c-0.359,0,3.188,4.91-1.867,8.707L125.352,90.391z"/>
	<path fill="#EDCEB8" d="M117.105,45.781c3,0,3.73,0.695,3.73,0.695c0.02,0.055,1.871-4.023,7.813-4.457
		c-0.293,0.012-5.285,0.871-7.152,4.566c0.109-0.055-0.164,2.012,0.988,3.156c-0.129-0.211-1.316-0.219-1.648-2.609
		c0.02,0.148-2.527-1.414-3.73-1.309V45.781z"/>
	<path fill="#EDCEB8" d="M140.422,42.789c-0.75,0.75-2.66,1.078-4.746,1.078c-2.004-0.328-4.727,1.957-7.254,0.98
		c2.25,0.191,5.055-1.848,8.242-1.633c3.008,0.324,3.738-0.434,3.738-0.434L140.422,42.789z"/>
	<path fill="#EDCEB8" d="M148.246,45.398c-5.25,1.5-7.516,4.234-7.516,4.234c2.266-4.234,7.805-4.242,7.805-4.242L148.246,45.398z"
		/>
	<path fill="#EDCEB8" d="M142.031,47.848c2.25-1.5-0.75-3-0.75-3s3.848,0.543,1.098,2.938L142.031,47.848z"/>
	<path fill="#EDCEB8" d="M160.535,49.457c-1.5,0-8.688,0.98-10.352,1.59c-2.398,0.66-2.309,5.328-4.617,5.328
		c-2.281-0.168-7.035,2.285-7.914,5.547c-1.117,3.285-1.867,5.004-3.848,8.156c-1.77,3.379,2.418,12.617-2.52,13.395
		c3.75-2.516-0.336-11,1.973-13.719c2.527-3.047,2.746-4.57,3.734-8.051c1.043-3.246,5.059-5.438,8.246-5.871
		c3.297-0.375,1.758-4.676,5.164-5.438c3.383-0.938,7.914-1.305,10.125-0.652L160.535,49.457z"/>
	<path fill="#EDCEB8" d="M137.684,87.348c3-3-3.176-10.035,0.301-14.004c6.449-6.996,2.195-9.246,2.195-9.246
		c3.504,0,1.387,6.168-1.648,9.57c-3.098,3.93,3.41,11.109-0.77,13.492L137.684,87.348z"/>
	<path fill="#EDCEB8" d="M174.254,57.961c-4.5-0.75-9.672-4.305-12.199-2.457c-2.801,1.707-3.629,2.613-5.719,2.938
		c-2.332,0.27-1.758,4.242-6.262,4.57c-4.32,0.199,0,3.262-4.508,8.48c-4.313,5.219-0.551,7.289,1.211,7.723
		c1.977,0.496,2.086,2.949,2.086,2.949c-0.109-0.203,1.141-1.949-1.648-3.383c-2.961-1.32-4.836-2.066,0-8.484
		c3.039-4.086,0.219-6.742,2.527-6.418c3.512,0.832,5.277-3.695,6.926-4.566c1.836-0.602,4.258-2.145,5.715-3.047
		c3.621-2.055,10.305,2.91,11.766,1.523L174.254,57.961z"/>
	<path fill="#EDCEB8" d="M145.883,78.352c0,1.5-0.758,3.039-0.758,3.039c0.008-0.039,1.98-0.324,0.441-3.043L145.883,78.352z"/>
	<path fill="#EDCEB8" d="M175.547,87.605c3-6.75,1.016-9.043-1.184-11.219c-1.816-1.531-7.582,1.633-8.574,2.066
		c-0.742,0.152-1.676-3.625-2.527-4.676c-1.215-1.922-4.395-1.738-6.594-2.719c-1.371-0.703-3.621-0.328-3.621-0.328
		c3.75-1.125,2.742-2.172,3.402-4.125c0.348,0-0.551,1.844,0,3.367c0.348,1.883,5.715,1.305,7.254,3.48
		c1.344,2.152,0.77,4.133,2.309,4.133c1.285,0.27,5.273-3.699,8.242-1.852c2.793,2.121,5.273,7.289,1.539,11.855L175.547,87.605z"/>
	<path fill="#EDCEB8" d="M164.918,81.027c0.75,0,2.027-1.43,0.434-3.008c1.066,1.508-0.441,2.938-0.441,2.938L164.918,81.027z"/>
	<path fill="#EDCEB8" d="M167.367,86.406c-4.5,8.25-11.469,10.539-14.754,9.559c-0.996,0.191-5.949,3.371-12.543,2.285
		c-6.453-1.344-8.793,3.805-11.648,4.133c-3.055,0.523-10.223,0.871-12.859,2.285c-2.945,1.238-1.648,6.852,2.965,7.504
		c4.59,0.484,12.859,0.109,15.059-0.543c2.281-0.473,5.938-1.633,8.355-0.547l1.426,0.824c0,0,0.66-2.563,2.363-2.293
		c1.387,0.043,10.938,1.633,12.367,0.816c1.77-0.773,8.242-0.652,9.34-1.195c1.43-0.328,5.496-4.352,5.496-5.766
		c-0.316,0.188-3.848,4.242-6.043,5.004c-2.523,0.434-7.805,0.871-9.453,1.305c-1.32,0.629-9.672-0.434-11.543-0.871
		c-1.777-0.75-2.746,1.742-2.746,1.742c0.219-0.242-2.527-0.871-5.387-0.543c-2.645,0.301-10.723,2.234-17.145,1.629
		c-4.25-0.578-7.582-4.238-4.891-6.254c2.891-1.824,12.289-2.039,12.914-2.336c4.977-2.488,5.824-4.785,11.102-4.242
		c5.125,0.254,12.199-0.871,12.859-2.066c-0.234,0.07,10.66,0.977,14.398-10.43H167.367z"/>
	<path fill="#EDCEB8" d="M151.832,96.719c3-2.25,2.855-7.277,1.43-8.25c3.82,2.25-0.082,9.238-1.43,8.367V96.719z"/>
	<path fill="#EDCEB8" d="M131.184,101.348c2.25-1.5,1.523-3.75,0.754-4.512c2.996,0.762-0.219,5.328-0.77,4.566L131.184,101.348z"/>
	<path fill="#EDCEB8" d="M123.902,103.043c-0.75,0-1.527-4.578-0.867-4.902c0.867-0.348,1.867-1.523,2.309-2.609
		c0.059,0.012-1.758,1.957-3.188,2.281c-1.254-0.02-3.629,0-3.516,0c0.012-0.02,3.34,0.871,3.668,0.547
		c-0.656,2.434,0.176,4.676,1.387,4.895L123.902,103.043z"/>
	<path fill="#EDCEB8" d="M115.043,105.371c-2.25-0.75-1.461-3.75-1.461-3.75c-0.039,0,0.109,2.176,1.816,3.535L115.043,105.371z"/>
	<path fill="#EDCEB8" d="M114.652,109.348c0.75,1.5-1.508,2.277-1.508,2.277c3.008-0.027,1.648-2.281,1.648-2.281L114.652,109.348z"
		/>
	<path fill="#EDCEB8" d="M129.723,121.813c0.75-0.75-3.281-3.551-4.488-4.203c-1.512-0.297-0.879-5.547-0.879-5.547
		c-1.383,1.5-0.277,5.383,0.328,5.98c0.539,0.77,3.52,2.285,5.387,3.918L129.723,121.813z"/>
	<path fill="#EDCEB8" d="M143.098,111.082c1.5,3-3.52,6.848-9.949,6.199c-6.551-0.949-5.715-3.043-5.715-3.043
		c-0.836,3.594,7.031,3.805,9.559,3.59c2.355,0.004,8.465-2.828,6.266-6.746H143.098z"/>
	<path fill="#EDCEB8" d="M143.59,113.039c4.5,3,13.406,3.918,19.02,1.961C162.34,115.289,151.281,116.957,143.59,113.039z"/>
	<path fill="#EDCEB8" d="M137.543,110.621c-2.25,0-1.977-4.105-3.625-5.195c-1.625-0.805-2.969-2.828-2.418-3.805l-1.457,0.75
		l-1.5,0.75c0,0,1.582-0.574,3.395,1.219c1.855,1.781,4.176,4.785,3.629,6.527L137.543,110.621z"/>
	<path fill="#EDCEB8" d="M128.086,107.656c-3.75,0.75-3.84-1.578-9-3.75c5.25,1.5,4.609,3.371,8.785,3.805L128.086,107.656z"/>
	<path fill="#EDCEB8" d="M138.438,103.148c3.75,3.75,5.152,4.129,5.152,4.129c0.098,0.371-4.617-1.633-5.168-4.133L138.438,103.148z
		"/>
	<path fill="#EDCEB8" d="M148.863,97.828c3,0,3.188,1.836,3.188,1.836c-0.188-0.336-2.418-1.852-3.188-1.852V97.828z"/>
	<path fill="#EDCEB8" d="M170.703,98.582c0.75,1.5-3.926,6.191-12.719,6.191c-7.531-0.191-8.242-1.086-9.781,1.965
		c0-5.156,5.828-2.398,9.453-2.617c3.297-0.289,10.551-0.766,13.195-5.539H170.703z"/>
	<path fill="#EDCEB8" d="M170.852,98.383c0-0.75,3.18-0.133,4.172-2.309c1.078-2.191,2.195-3.691,3.742-3.691
		c0.336,0-3.305,1.734-3.305,4.016c0.641,1.234,1.211,1.742,2.527,2.504c1.113,0.98,5.395,1.848,5.395,1.848
		c0.219-0.117-3.195,0.328-5.832-1.414c-2.949-1.703-1.758-2.066-3.188-1.305c-1.262,1.102-3.078,1.09-3.512,0.543V98.383z"/>
	<path fill="#EDCEB8" d="M162.414,97.324c-1.5-2.25-2.008-1.578-3-2.121c2.25-0.879,2.75,1.957,2.75,1.957L162.414,97.324z"/>
	<path fill="#EDCEB8" d="M171.086,91.969c-0.75,0-3.977-1.984-8.262,0.844c5.262-1.594,7.254-1.523,8.461-0.762L171.086,91.969z"/>
	<path fill="#EDCEB8" d="M167.453,109.313c3,1.5,8.777-3.016,10.207-9.75c0.293,6-7.695,12.609-10.223,9.672L167.453,109.313z"/>
	<path fill="#EDCEB8" d="M180.352,103.09c-0.75,9-6.43,11.125-11.266,7.82c4.516,2.68,9.672,0.867,11.52-7.832L180.352,103.09z"/>
	<path fill="#EDCEB8" d="M181.996,107.004c0.75,0.75,0.105,6.43-5.258,8.082c2.258-2.082,4.922-3.656,5.539-8.094L181.996,107.004z"
		/>
	<path fill="#EDCEB8" d="M162.332,58.102c-0.75,2.25-0.367,2.254,1.129,4.082c1.121,1.918,4.395,3.133,7.078,4.395
		c3.043,1.273,8.133,2.305,8.836,4.047c0.957,1.727,0.703,2.523,0.703,2.523c0.254-0.047,4.309,2.434,3.867,11.402
		c0.137-0.199,2.641,1.473,3.344,4.434c0.543,2.867-0.309,3.176,0.527,4c0.766,1.117,0.789,0.695,0.789,0.262
		c-0.023-0.645,0.176-2.609,1.059-3.219c1.168-0.426,2.813-1.395,4.414-0.262c-0.246-0.164-3.008-0.695-4.063,0.695
		c-0.684,1.391-0.969,1.566-0.707,4.09c0.023,2.551,1.41,5.309,0.355,8.352c-1.082,3.199-2.289,2.797-2.289,2.797
		c-0.293-0.348,1.582-0.531,1.934-3.316c0.023-3.031-0.352-8.18-1.23-8.527c-0.996-0.504-1.055-0.262-2.109,0.781
		c-1.137,0.965-3.43,1.047-3.43,1.047c0.043-0.082,3.871-1.047,4.133-2.961c0.41-1.621,0.703-5.133-2.727-7.395l-0.613-0.227
		c0,0,1.055-7.43-2.902-11.086l-1.598-0.164c0,0,1.477-0.738,0.016-2.969c-1.516-1.531-4.441-1.902-8.707-3.828
		c-4.809-2.203-8.266-5.395-8.527-5.652c-0.031-0.301-2.281,0-2.281,0c0-0.301,2.457-0.332,2.633-3.301H162.332z"/>
	<path fill="#EDCEB8" d="M165.84,64.426c0,0-0.797,0.105-1.5,0.805c0-1.555,1.668-0.523,1.668-0.523L165.84,64.426z"/>
	<path fill="#EDCEB8" d="M172.09,58.703c2.25,1.5,5.438,5.047,7.988,7.223c2.512,2.527,1.848,2.871,3.164,5.055
		c0.098-0.277,0.441-2.793-3.078-5.664c-2.074-2.113-5.449-6.613-8.086-6.613H172.09z"/>
	<path fill="#EDCEB8" d="M148.59,84.387c-3.75,1.5-2.363,8.426-5.266,9.816c3.766-0.816,2.023-5.918,4.926-9.832L148.59,84.387z"/>
	<path fill="#EDCEB8" d="M143.711,87.324c-6,0.75-4.957,6.098-7.508,9.227c0.758-2.477,1.328-7.871,4.66-8.875
		c2.098-0.352,2.902-0.258,2.902-0.258L143.711,87.324z"/>
	<path fill="#FFF5EE" stroke="#FFF5EE" stroke-width="0.25" stroke-linejoin="bevel" stroke-miterlimit="10" d="M44.203,154.871
		c0,0,27.398-13.566,44.688-2.34c10.813,6.84,12.313,62.316,25.004,85.477c0.059,0.113-4.164-0.441-4.164-0.441
		c-14.527-23.445-13.098-76.555-24.867-82.207c-18.16-8.738-41.41,4.805-41.41,4.098c2.25-1.586,0.676-4.48,0.676-4.48
		L44.203,154.871z"/>
</g>
</svg>
