<?xml version="1.0" encoding="utf-8"?>
<!-- Generator: Adobe Illustrator 16.0.0, SVG Export Plug-In . SVG Version: 6.00 Build 0)  -->
<!DOCTYPE svg PUBLIC "-//W3C//DTD SVG 1.1//EN" "http://www.w3.org/Graphics/SVG/1.1/DTD/svg11.dtd">
<svg preserveAspectRatio="none" version="1.1" id="图层_1" xmlns="http://www.w3.org/2000/svg" xmlns:xlink="http://www.w3.org/1999/xlink" x="0px" y="0px"
	 width="141.471px" height="184.113px" viewBox="29.331 29.191 141.471 184.113"
	 enable-background="new 29.331 29.191 141.471 184.113" xml:space="preserve">
<g id="surface1326">
	<path fill="#EEEEEE" stroke="#EEEEEE" stroke-linejoin="bevel" stroke-miterlimit="10" d="M60.512,104.219l73.5,42l-26.25,47.25
		c0,0-12.52,19.063-31.023,19.332c-17.727,0.168-25.691-5.238-25.691-5.238c-0.285,0.156-14.914-9.234-19.336-20.887
		c0.301,0.043-5.246-18.418,1.418-31.059L60.512,104.219z"/>
	<path fill="#01455C" stroke="#01455C" stroke-linejoin="bevel" stroke-miterlimit="10" d="M139.621,138.277l-73.5-42l26.25-47.25
		c0,0,12.52-19.059,31.023-19.332c17.727-0.168,25.691,5.242,25.691,5.242c0.285-0.16,14.914,9.234,19.336,20.887
		c-0.301-0.047,5.246,18.414-1.418,31.059L139.621,138.277z"/>
</g>
</svg>
