<?xml version="1.0" encoding="utf-8"?>
<!-- Generator: Adobe Illustrator 16.0.0, SVG Export Plug-In . SVG Version: 6.00 Build 0)  -->
<!DOCTYPE svg PUBLIC "-//W3C//DTD SVG 1.1//EN" "http://www.w3.org/Graphics/SVG/1.1/DTD/svg11.dtd">
<svg preserveAspectRatio="none" version="1.1" id="图层_1" xmlns="http://www.w3.org/2000/svg" xmlns:xlink="http://www.w3.org/1999/xlink" x="0px" y="0px"
	 width="141.25px" height="126.387px" viewBox="29.5 29.676 141.25 126.387" enable-background="new 29.5 29.676 141.25 126.387"
	 xml:space="preserve">
<g id="surface1311">
	<path fill="#FED372" stroke="#FED372" stroke-linejoin="bevel" stroke-miterlimit="10" d="M33.75,66.863H166.5
		c2.25,0,3.75,1.734,3.75,3.887v80.863c0,2.25-1.781,3.949-3.914,3.949L33.75,155.363c-2.25,0-3.75-1.563-3.75-3.719V70.613
		c0-2.25,1.68-3.75,3.816-3.75H33.75z"/>
	<path fill="#01455C" stroke="#01455C" stroke-linejoin="bevel" stroke-miterlimit="10" d="M64.297,62.473v-20.25
		c0,0,1.746-12.047,14.121-12.047c12.129,0.047,46.66,0,46.66,0c-0.031,0.047,10.875,0.777,10.875,11.703
		c0.344,10.844,0,20.551,0,20.551l-13.156,0.043v-15c0,0-0.555-3.512-1.844-3.512c-1.156-0.238-39.957,0-39.957,0
		c-0.199-0.238-3.352-0.52-3.352,3.379c0.152,3.883,0,15.09,0,15.09L64.297,62.473z"/>
	<path fill="#F06B6C" stroke="#F16B6C" stroke-linejoin="bevel" stroke-miterlimit="10" d="M75.637,118.004v-13.5h18v-18h12.75v18
		h18v13.5h-18v18h-12.75v-18H75.637z"/>
</g>
</svg>
