<?xml version="1.0" encoding="utf-8"?>
<!-- Generator: Adobe Illustrator 16.0.0, SVG Export Plug-In . SVG Version: 6.00 Build 0)  -->
<!DOCTYPE svg PUBLIC "-//W3C//DTD SVG 1.1//EN" "http://www.w3.org/Graphics/SVG/1.1/DTD/svg11.dtd">
<svg preserveAspectRatio="none" version="1.1" id="图层_1" xmlns="http://www.w3.org/2000/svg" xmlns:xlink="http://www.w3.org/1999/xlink" x="0px" y="0px"
	 width="199.75px" height="280.277px" viewBox="29.5 29.648 199.75 280.277" enable-background="new 29.5 29.648 199.75 280.277"
	 xml:space="preserve">
<g id="surface1336">
	<path fill="#50BEC1" stroke="#50BEC1" stroke-linejoin="bevel" stroke-miterlimit="10" d="M43.223,89.715h105
		c2.25,0,4.211,1.742,4.211,3.996l0.289,67.254c0,2.25-2.121,3.719-4.383,3.719l-105.117,0.031c-2.25,0-3.75-1.855-3.75-4.109
		V93.465c0-2.25,1.816-3.832,4.078-3.832L43.223,89.715z"/>
	<path fill="#50BEC1" stroke="#50BEC1" stroke-linejoin="bevel" stroke-miterlimit="10" d="M59.391,30.148v18h6.75v12.75h-11.25v24
		h82.5v-24h-11.25v-12.75h6.75v-18h-31.5v18h6.75v12.75h-24v-12.75h6.75v-18H59.391z"/>
	<path fill="#50BEC1" stroke="#50BEC1" stroke-linejoin="bevel" stroke-miterlimit="10" d="M43.527,168.813h102.75
		c0,0-3.941,13.012-14.574,20.793c-10.926,7.707-21.914,10.438-27.758,10.344l0.332,9.363h3.75v14.25h-23.25v-14.25h3.75v-9
		c0,0-13.371-1.652-23.621-7.617C54.777,186.813,44.941,178.723,43.527,168.813z"/>
	<path fill="#01455C" stroke="#01455C" stroke-linejoin="bevel" stroke-miterlimit="10" d="M75.695,262.926l-13.5,46.5h134.25
		l-13.5-46.5H75.695z"/>
	<path fill="#50BEC1" stroke="#50BEC1" stroke-linejoin="bevel" stroke-miterlimit="10" d="M41.668,231.906h108.75v9.75H41.668
		V231.906z"/>
	<path fill="#01455C" stroke="#01455C" stroke-linejoin="bevel" stroke-miterlimit="10" d="M30,240.008h198.75v15H30V240.008z"/>
	<path fill="#50BEC1" stroke="#50BEC1" stroke-linejoin="bevel" stroke-miterlimit="10" d="M159.074,153.703
		c0,0,25.941,27.707,27.508,73.656l36.992-0.156c0,0,2.523-77.059-64.5-123.75V153.703z"/>
</g>
</svg>
