<?xml version="1.0" encoding="utf-8"?>
<!-- Generator: Adobe Illustrator 16.0.0, SVG Export Plug-In . SVG Version: 6.00 Build 0)  -->
<!DOCTYPE svg PUBLIC "-//W3C//DTD SVG 1.1//EN" "http://www.w3.org/Graphics/SVG/1.1/DTD/svg11.dtd">
<svg preserveAspectRatio="none" version="1.1" id="图层_1" xmlns="http://www.w3.org/2000/svg" xmlns:xlink="http://www.w3.org/1999/xlink" x="0px" y="0px"
	 width="90.25px" height="169.527px" viewBox="29.5 29.242 90.25 169.527" enable-background="new 29.5 29.242 90.25 169.527"
	 xml:space="preserve">
<g id="surface1361">
	<path fill="#01455C" stroke="#01455C" stroke-linejoin="bevel" stroke-miterlimit="10" d="M65.832,158.41h17.25v25.5l-6,4.5h-4.5
		l-6.75-4.5V158.41z"/>
	<path fill="#01455C" stroke="#01455C" stroke-linejoin="bevel" stroke-miterlimit="10" d="M62.012,161.266h25.5v3h-25.5V161.266z"
		/>
	<path fill="#01455C" stroke="#01455C" stroke-linejoin="bevel" stroke-miterlimit="10" d="M72.336,188.52h4.5v9.75h-4.5V188.52z"/>
	<path fill="#01455C" stroke="#01455C" stroke-linejoin="bevel" stroke-miterlimit="10" d="M38.25,43.414H111
		c4.5,0,8.25,3.84,8.25,8.578v97.922c0,4.5-3.852,8.586-8.602,8.586l-72.398-0.336c-4.5,0-8.25-3.508-8.25-8.242V51.664
		c0-4.5,3.852-8.25,8.602-8.25H38.25z"/>
	<path fill="#50BEC1" stroke="#50BEC1" stroke-linejoin="bevel" stroke-miterlimit="10" d="M114.949,55.922v90
		c0,4.5-3.5,8.645-8.25,8.645l-64.5,0.355c-4.5,0-8.25-4.195-8.25-8.934V55.922H114.949z"/>
	<path fill="#FFFFFF" stroke="#FFFFFF" stroke-linejoin="bevel" stroke-miterlimit="10" d="M42.199,47.34h64.5
		c4.5,0,8.602,3.84,8.602,8.578l-0.352,20.672h-81v-21c0-4.5,3.852-8.25,8.602-8.25H42.199z"/>
	<path fill="#01455C" stroke="#01455C" stroke-linejoin="bevel" stroke-miterlimit="10" d="M65.227,38.027
		c0-4.5,3.898-8.285,8.488-8.285c4.262,0.035,8.316,3.711,8.316,8.293l-0.305,5.242h-16.5V38.027z"/>
	<path fill="#FFFFFF" stroke="#FFFFFF" stroke-linejoin="bevel" stroke-miterlimit="10" d="M70.578,37.332
		c0-1.5,1.355-3.016,3.043-3.016c1.457,0.016,3.059,1.363,3.059,3.051c-0.102,1.465-1.371,3.047-3.059,3.047
		c-1.543-0.082-3.059-1.363-3.059-3.047L70.578,37.332z"/>
</g>
</svg>
