<?xml version="1.0" encoding="utf-8"?>
<!-- Generator: Adobe Illustrator 16.0.0, SVG Export Plug-In . SVG Version: 6.00 Build 0)  -->
<!DOCTYPE svg PUBLIC "-//W3C//DTD SVG 1.1//EN" "http://www.w3.org/Graphics/SVG/1.1/DTD/svg11.dtd">
<svg preserveAspectRatio="none" version="1.1" id="图层_1" xmlns="http://www.w3.org/2000/svg" xmlns:xlink="http://www.w3.org/1999/xlink" x="0px" y="0px"
	 width="178.75px" height="157.402px" viewBox="29.5 29.426 178.75 157.402" enable-background="new 29.5 29.426 178.75 157.402"
	 xml:space="preserve">
<g id="surface1286">
	<path fill="#4F8DA2" stroke="#4F8DA2" stroke-linejoin="bevel" stroke-miterlimit="10" d="M106.152,154.238h24.75v21.75h-24.75
		V154.238z"/>
	<path fill="#4F8DA2" stroke="#4F8DA2" stroke-linejoin="bevel" stroke-miterlimit="10" d="M64.453,175.828h108
		c5.25,0,9.469,4.125,9.469,9.215l0.281,1.285H55.453v-1.5c0-4.5,4.148-9,9.266-9H64.453z"/>
	<path fill="#4F8DA2" stroke="#4F8DA2" stroke-linejoin="bevel" stroke-miterlimit="10" d="M37.5,29.926h162.75
		c3.75,0,7.125,3.188,7.125,7.164l0.375,110.586c0,3.75-3.652,7.012-7.652,7.012L37.5,154.426c-4.5,0-7.5-2.961-7.5-6.938V37.426
		c0-4.5,3.203-7.5,7.203-7.5H37.5z"/>
	<path fill="#3E3938" stroke="#3E3938" stroke-linejoin="bevel" stroke-miterlimit="10" d="M35.328,35.219h166.5v105h-166.5V35.219z
		"/>
	<path fill="none" stroke="#FFFFFF" stroke-linejoin="bevel" stroke-miterlimit="10" d="M35.188,93.547h15l3-9l2.25,17.25l3.75-39
		l5.25,66l3.75-44.25l3,17.25l3-8.25h12.75l2.25-9l4.5,17.25l3-44.25l5.25,72l3.75-45l3,17.25l3-8.25h13.5l3,8.25l2.25-17.25
		l3.75,41.25l3-66l3.75,42l3-16.5l3,8.25h11.25l5.25-9l3,17.25l4.5-35.25l5.25,59.25l2.25-41.25l4.5,17.25l4.5-8.25h15"/>
	<path fill="#FFFFFF" stroke="#FFFFFF" stroke-linejoin="bevel" stroke-miterlimit="10" d="M114.105,147.516
		c0-2.25,2.008-4.527,4.539-4.527c2.211,0.027,4.586,2.043,4.586,4.559c-0.125,2.219-2.051,4.563-4.586,4.563
		c-2.289-0.094-4.582-2.043-4.582-4.563L114.105,147.516z"/>
	<path fill="#50BEC1" stroke="#50BEC1" stroke-width="2" stroke-linejoin="bevel" stroke-miterlimit="10" d="M116.215,147.359
		c0-1.5,1.098-2.25,2.453-2.25c1.297,0,2.461,1.09,2.461,2.441c0.336,1.309-1.102,2.445-2.461,2.445
		c-1.703,0.363-2.453-1.094-2.453-2.445V147.359z"/>
</g>
</svg>
