<?xml version="1.0" encoding="utf-8"?>
<!-- Generator: Adobe Illustrator 16.0.0, SVG Export Plug-In . SVG Version: 6.00 Build 0)  -->
<!DOCTYPE svg PUBLIC "-//W3C//DTD SVG 1.1//EN" "http://www.w3.org/Graphics/SVG/1.1/DTD/svg11.dtd">
<svg preserveAspectRatio="none" version="1.1" id="图层_1" xmlns="http://www.w3.org/2000/svg" xmlns:xlink="http://www.w3.org/1999/xlink" x="0px" y="0px"
	 width="199.75px" height="136.529px" viewBox="29.5 29.694 199.75 136.529" enable-background="new 29.5 29.694 199.75 136.529"
	 xml:space="preserve">
<g id="surface1331">
	<path fill="#F9CA31" stroke="#F9CA31" stroke-linejoin="bevel" stroke-miterlimit="10" d="M30,73.699h198.75v91.5H30V73.699z"/>
	<path fill="#50BEC1" stroke="#50BEC1" stroke-linejoin="bevel" stroke-miterlimit="10" d="M54.641,59.715h41.25v105.75h-41.25
		V59.715z"/>
	<path fill="#50BEC1" stroke="#50BEC1" stroke-linejoin="bevel" stroke-miterlimit="10" d="M162.711,59.715h41.25v105.75h-41.25
		V59.715z"/>
	<path fill="#008CCC" stroke="#008CCC" stroke-linejoin="bevel" stroke-miterlimit="10" d="M95.961,68.223h66.75v97.5h-66.75V68.223
		z"/>
	<path fill="#EB6D71" stroke="#EB6D71" stroke-linejoin="bevel" stroke-miterlimit="10" d="M75.641,29.98l20.25,30h-41.25
		L75.641,29.98z"/>
	<path fill="#EB6D71" stroke="#EB6D71" stroke-linejoin="bevel" stroke-miterlimit="10" d="M183.711,29.98l20.25,30h-41.25
		L183.711,29.98z"/>
	<path fill="#FFFFFF" stroke="#FFFFFF" stroke-linejoin="bevel" stroke-miterlimit="10" d="M108.105,139.836h42.75v25.5h-42.75
		V139.836z"/>
	<path fill="#FFFFFF" stroke="#FFFFFF" stroke-linejoin="bevel" stroke-miterlimit="10" d="M99.32,73.242h3.75v7.5h-3.75V73.242z"/>
	<path fill="#FFFFFF" stroke="#FFFFFF" stroke-linejoin="bevel" stroke-miterlimit="10" d="M107.418,73.242h3.75v7.5h-3.75V73.242z"
		/>
	<path fill="#FFFFFF" stroke="#FFFFFF" stroke-linejoin="bevel" stroke-miterlimit="10" d="M115.516,73.242h3.75v7.5h-3.75V73.242z"
		/>
	<path fill="#FFFFFF" stroke="#FFFFFF" stroke-linejoin="bevel" stroke-miterlimit="10" d="M123.613,73.242h3.75v7.5h-3.75V73.242z"
		/>
	<path fill="#FFFFFF" stroke="#FFFFFF" stroke-linejoin="bevel" stroke-miterlimit="10" d="M131.711,73.242h3.75v7.5h-3.75V73.242z"
		/>
	<path fill="#FFFFFF" stroke="#FFFFFF" stroke-linejoin="bevel" stroke-miterlimit="10" d="M139.809,73.242h3.75v7.5h-3.75V73.242z"
		/>
	<path fill="#FFFFFF" stroke="#FFFFFF" stroke-linejoin="bevel" stroke-miterlimit="10" d="M147.906,73.242h3.75v7.5h-3.75V73.242z"
		/>
	<path fill="#FFFFFF" stroke="#FFFFFF" stroke-linejoin="bevel" stroke-miterlimit="10" d="M156.004,73.242h3.75v7.5h-3.75V73.242z"
		/>
	<path fill="#FFFFFF" stroke="#FFFFFF" stroke-linejoin="bevel" stroke-miterlimit="10" d="M99.32,86.344h3.75v7.5h-3.75V86.344z"/>
	<path fill="#FFFFFF" stroke="#FFFFFF" stroke-linejoin="bevel" stroke-miterlimit="10" d="M107.418,86.344h3.75v7.5h-3.75V86.344z"
		/>
	<path fill="#FFFFFF" stroke="#FFFFFF" stroke-linejoin="bevel" stroke-miterlimit="10" d="M115.516,86.344h3.75v7.5h-3.75V86.344z"
		/>
	<path fill="#FFFFFF" stroke="#FFFFFF" stroke-linejoin="bevel" stroke-miterlimit="10" d="M123.613,86.344h3.75v7.5h-3.75V86.344z"
		/>
	<path fill="#FFFFFF" stroke="#FFFFFF" stroke-linejoin="bevel" stroke-miterlimit="10" d="M131.711,86.344h3.75v7.5h-3.75V86.344z"
		/>
	<path fill="#FFFFFF" stroke="#FFFFFF" stroke-linejoin="bevel" stroke-miterlimit="10" d="M139.809,86.344h3.75v7.5h-3.75V86.344z"
		/>
	<path fill="#FFFFFF" stroke="#FFFFFF" stroke-linejoin="bevel" stroke-miterlimit="10" d="M147.906,86.344h3.75v7.5h-3.75V86.344z"
		/>
	<path fill="#FFFFFF" stroke="#FFFFFF" stroke-linejoin="bevel" stroke-miterlimit="10" d="M156.004,86.344h3.75v7.5h-3.75V86.344z"
		/>
	<path fill="#FFFFFF" stroke="#FFFFFF" stroke-linejoin="bevel" stroke-miterlimit="10" d="M99.32,99.445h3.75v7.5h-3.75V99.445z"/>
	<path fill="#FFFFFF" stroke="#FFFFFF" stroke-linejoin="bevel" stroke-miterlimit="10" d="M107.418,99.445h3.75v7.5h-3.75V99.445z"
		/>
	<path fill="#FFFFFF" stroke="#FFFFFF" stroke-linejoin="bevel" stroke-miterlimit="10" d="M115.516,99.445h3.75v7.5h-3.75V99.445z"
		/>
	<path fill="#FFFFFF" stroke="#FFFFFF" stroke-linejoin="bevel" stroke-miterlimit="10" d="M123.613,99.445h3.75v7.5h-3.75V99.445z"
		/>
	<path fill="#FFFFFF" stroke="#FFFFFF" stroke-linejoin="bevel" stroke-miterlimit="10" d="M131.711,99.445h3.75v7.5h-3.75V99.445z"
		/>
	<path fill="#FFFFFF" stroke="#FFFFFF" stroke-linejoin="bevel" stroke-miterlimit="10" d="M139.809,99.445h3.75v7.5h-3.75V99.445z"
		/>
	<path fill="#FFFFFF" stroke="#FFFFFF" stroke-linejoin="bevel" stroke-miterlimit="10" d="M147.906,99.445h3.75v7.5h-3.75V99.445z"
		/>
	<path fill="#FFFFFF" stroke="#FFFFFF" stroke-linejoin="bevel" stroke-miterlimit="10" d="M156.004,99.445h3.75v7.5h-3.75V99.445z"
		/>
	<path fill="#FFFFFF" stroke="#FFFFFF" stroke-linejoin="bevel" stroke-miterlimit="10" d="M99.32,112.551h3.75v7.5h-3.75V112.551z"
		/>
	<path fill="#FFFFFF" stroke="#FFFFFF" stroke-linejoin="bevel" stroke-miterlimit="10" d="M107.418,112.551h3.75v7.5h-3.75V112.551
		z"/>
	<path fill="#FFFFFF" stroke="#FFFFFF" stroke-linejoin="bevel" stroke-miterlimit="10" d="M115.516,112.551h3.75v7.5h-3.75V112.551
		z"/>
	<path fill="#FFFFFF" stroke="#FFFFFF" stroke-linejoin="bevel" stroke-miterlimit="10" d="M123.613,112.551h3.75v7.5h-3.75V112.551
		z"/>
	<path fill="#FFFFFF" stroke="#FFFFFF" stroke-linejoin="bevel" stroke-miterlimit="10" d="M131.711,112.551h3.75v7.5h-3.75V112.551
		z"/>
	<path fill="#FFFFFF" stroke="#FFFFFF" stroke-linejoin="bevel" stroke-miterlimit="10" d="M139.809,112.551h3.75v7.5h-3.75V112.551
		z"/>
	<path fill="#FFFFFF" stroke="#FFFFFF" stroke-linejoin="bevel" stroke-miterlimit="10" d="M147.906,112.551h3.75v7.5h-3.75V112.551
		z"/>
	<path fill="#FFFFFF" stroke="#FFFFFF" stroke-linejoin="bevel" stroke-miterlimit="10" d="M156.004,112.551h3.75v7.5h-3.75V112.551
		z"/>
	<path fill="#FFFFFF" stroke="#FFFFFF" stroke-linejoin="bevel" stroke-miterlimit="10" d="M99.32,125.652h3.75v7.5h-3.75V125.652z"
		/>
	<path fill="#FFFFFF" stroke="#FFFFFF" stroke-linejoin="bevel" stroke-miterlimit="10" d="M107.418,125.652h3.75v7.5h-3.75V125.652
		z"/>
	<path fill="#FFFFFF" stroke="#FFFFFF" stroke-linejoin="bevel" stroke-miterlimit="10" d="M115.516,125.652h3.75v7.5h-3.75V125.652
		z"/>
	<path fill="#FFFFFF" stroke="#FFFFFF" stroke-linejoin="bevel" stroke-miterlimit="10" d="M123.613,125.652h3.75v7.5h-3.75V125.652
		z"/>
	<path fill="#FFFFFF" stroke="#FFFFFF" stroke-linejoin="bevel" stroke-miterlimit="10" d="M131.711,125.652h3.75v7.5h-3.75V125.652
		z"/>
	<path fill="#FFFFFF" stroke="#FFFFFF" stroke-linejoin="bevel" stroke-miterlimit="10" d="M139.809,125.652h3.75v7.5h-3.75V125.652
		z"/>
	<path fill="#FFFFFF" stroke="#FFFFFF" stroke-linejoin="bevel" stroke-miterlimit="10" d="M147.906,125.652h3.75v7.5h-3.75V125.652
		z"/>
	<path fill="#FFFFFF" stroke="#FFFFFF" stroke-linejoin="bevel" stroke-miterlimit="10" d="M156.004,125.652h3.75v7.5h-3.75V125.652
		z"/>
	<path fill="#FFFFFF" stroke="#FFFFFF" stroke-linejoin="bevel" stroke-miterlimit="10" d="M34.629,81.258h6v9h-6V81.258z"/>
	<path fill="#FFFFFF" stroke="#FFFFFF" stroke-linejoin="bevel" stroke-miterlimit="10" d="M43.758,81.258h6v9h-6V81.258z"/>
	<path fill="#FFFFFF" stroke="#FFFFFF" stroke-linejoin="bevel" stroke-miterlimit="10" d="M34.629,97.84h6v9h-6V97.84z"/>
	<path fill="#FFFFFF" stroke="#FFFFFF" stroke-linejoin="bevel" stroke-miterlimit="10" d="M43.758,97.84h6v9h-6V97.84z"/>
	<path fill="#FFFFFF" stroke="#FFFFFF" stroke-linejoin="bevel" stroke-miterlimit="10" d="M34.629,114.418h6v9h-6V114.418z"/>
	<path fill="#FFFFFF" stroke="#FFFFFF" stroke-linejoin="bevel" stroke-miterlimit="10" d="M43.758,114.418h6v9h-6V114.418z"/>
	<path fill="#FFFFFF" stroke="#FFFFFF" stroke-linejoin="bevel" stroke-miterlimit="10" d="M34.629,131h6v9h-6V131z"/>
	<path fill="#FFFFFF" stroke="#FFFFFF" stroke-linejoin="bevel" stroke-miterlimit="10" d="M43.758,131h6v9h-6V131z"/>
	<path fill="#FFFFFF" stroke="#FFFFFF" stroke-linejoin="bevel" stroke-miterlimit="10" d="M209.289,81.258h6v9h-6V81.258z"/>
	<path fill="#FFFFFF" stroke="#FFFFFF" stroke-linejoin="bevel" stroke-miterlimit="10" d="M218.418,81.258h6v9h-6V81.258z"/>
	<path fill="#FFFFFF" stroke="#FFFFFF" stroke-linejoin="bevel" stroke-miterlimit="10" d="M209.289,97.84h6v9h-6V97.84z"/>
	<path fill="#FFFFFF" stroke="#FFFFFF" stroke-linejoin="bevel" stroke-miterlimit="10" d="M218.418,97.84h6v9h-6V97.84z"/>
	<path fill="#FFFFFF" stroke="#FFFFFF" stroke-linejoin="bevel" stroke-miterlimit="10" d="M209.289,114.418h6v9h-6V114.418z"/>
	<path fill="#FFFFFF" stroke="#FFFFFF" stroke-linejoin="bevel" stroke-miterlimit="10" d="M218.418,114.418h6v9h-6V114.418z"/>
	<path fill="#FFFFFF" stroke="#FFFFFF" stroke-linejoin="bevel" stroke-miterlimit="10" d="M209.289,131h6v9h-6V131z"/>
	<path fill="#FFFFFF" stroke="#FFFFFF" stroke-linejoin="bevel" stroke-miterlimit="10" d="M218.418,131h6v9h-6V131z"/>
	<path fill="#FFFFFF" stroke="#FFFFFF" stroke-linejoin="bevel" stroke-miterlimit="10" d="M58.211,69.281h6v9h-6V69.281z"/>
	<path fill="#FFFFFF" stroke="#FFFFFF" stroke-linejoin="bevel" stroke-miterlimit="10" d="M67.629,69.281h6v9h-6V69.281z"/>
	<path fill="#FFFFFF" stroke="#FFFFFF" stroke-linejoin="bevel" stroke-miterlimit="10" d="M77.336,69.281h6v9h-6V69.281z"/>
	<path fill="#FFFFFF" stroke="#FFFFFF" stroke-linejoin="bevel" stroke-miterlimit="10" d="M86.461,69.281h6v9h-6V69.281z"/>
	<path fill="#FFFFFF" stroke="#FFFFFF" stroke-linejoin="bevel" stroke-miterlimit="10" d="M58.211,83.137h6v9h-6V83.137z"/>
	<path fill="#FFFFFF" stroke="#FFFFFF" stroke-linejoin="bevel" stroke-miterlimit="10" d="M67.629,83.137h6v9h-6V83.137z"/>
	<path fill="#FFFFFF" stroke="#FFFFFF" stroke-linejoin="bevel" stroke-miterlimit="10" d="M77.336,83.137h6v9h-6V83.137z"/>
	<path fill="#FFFFFF" stroke="#FFFFFF" stroke-linejoin="bevel" stroke-miterlimit="10" d="M86.461,83.137h6v9h-6V83.137z"/>
	<path fill="#FFFFFF" stroke="#FFFFFF" stroke-linejoin="bevel" stroke-miterlimit="10" d="M58.211,96.996h6v9h-6V96.996z"/>
	<path fill="#FFFFFF" stroke="#FFFFFF" stroke-linejoin="bevel" stroke-miterlimit="10" d="M67.629,96.996h6v9h-6V96.996z"/>
	<path fill="#FFFFFF" stroke="#FFFFFF" stroke-linejoin="bevel" stroke-miterlimit="10" d="M77.336,96.996h6v9h-6V96.996z"/>
	<path fill="#FFFFFF" stroke="#FFFFFF" stroke-linejoin="bevel" stroke-miterlimit="10" d="M86.461,96.996h6v9h-6V96.996z"/>
	<path fill="#FFFFFF" stroke="#FFFFFF" stroke-linejoin="bevel" stroke-miterlimit="10" d="M58.211,110.855h6v9h-6V110.855z"/>
	<path fill="#FFFFFF" stroke="#FFFFFF" stroke-linejoin="bevel" stroke-miterlimit="10" d="M67.629,110.855h6v9h-6V110.855z"/>
	<path fill="#FFFFFF" stroke="#FFFFFF" stroke-linejoin="bevel" stroke-miterlimit="10" d="M77.336,110.855h6v9h-6V110.855z"/>
	<path fill="#FFFFFF" stroke="#FFFFFF" stroke-linejoin="bevel" stroke-miterlimit="10" d="M86.461,110.855h6v9h-6V110.855z"/>
	<path fill="#FFFFFF" stroke="#FFFFFF" stroke-linejoin="bevel" stroke-miterlimit="10" d="M58.211,124.711h6v9h-6V124.711z"/>
	<path fill="#FFFFFF" stroke="#FFFFFF" stroke-linejoin="bevel" stroke-miterlimit="10" d="M67.629,124.711h6v9h-6V124.711z"/>
	<path fill="#FFFFFF" stroke="#FFFFFF" stroke-linejoin="bevel" stroke-miterlimit="10" d="M77.336,124.711h6v9h-6V124.711z"/>
	<path fill="#FFFFFF" stroke="#FFFFFF" stroke-linejoin="bevel" stroke-miterlimit="10" d="M86.461,124.711h6v9h-6V124.711z"/>
	<path fill="#FFFFFF" stroke="#FFFFFF" stroke-linejoin="bevel" stroke-miterlimit="10" d="M58.211,138.57h6v9h-6V138.57z"/>
	<path fill="#FFFFFF" stroke="#FFFFFF" stroke-linejoin="bevel" stroke-miterlimit="10" d="M67.629,138.57h6v9h-6V138.57z"/>
	<path fill="#FFFFFF" stroke="#FFFFFF" stroke-linejoin="bevel" stroke-miterlimit="10" d="M77.336,138.57h6v9h-6V138.57z"/>
	<path fill="#FFFFFF" stroke="#FFFFFF" stroke-linejoin="bevel" stroke-miterlimit="10" d="M86.461,138.57h6v9h-6V138.57z"/>
	<path fill="#FFFFFF" stroke="#FFFFFF" stroke-linejoin="bevel" stroke-miterlimit="10" d="M166.277,69.281h6v9h-6V69.281z"/>
	<path fill="#FFFFFF" stroke="#FFFFFF" stroke-linejoin="bevel" stroke-miterlimit="10" d="M175.695,69.281h6v9h-6V69.281z"/>
	<path fill="#FFFFFF" stroke="#FFFFFF" stroke-linejoin="bevel" stroke-miterlimit="10" d="M185.402,69.281h6v9h-6V69.281z"/>
	<path fill="#FFFFFF" stroke="#FFFFFF" stroke-linejoin="bevel" stroke-miterlimit="10" d="M194.531,69.281h6v9h-6V69.281z"/>
	<path fill="#FFFFFF" stroke="#FFFFFF" stroke-linejoin="bevel" stroke-miterlimit="10" d="M166.277,83.137h6v9h-6V83.137z"/>
	<path fill="#FFFFFF" stroke="#FFFFFF" stroke-linejoin="bevel" stroke-miterlimit="10" d="M175.695,83.137h6v9h-6V83.137z"/>
	<path fill="#FFFFFF" stroke="#FFFFFF" stroke-linejoin="bevel" stroke-miterlimit="10" d="M185.402,83.137h6v9h-6V83.137z"/>
	<path fill="#FFFFFF" stroke="#FFFFFF" stroke-linejoin="bevel" stroke-miterlimit="10" d="M194.531,83.137h6v9h-6V83.137z"/>
	<path fill="#FFFFFF" stroke="#FFFFFF" stroke-linejoin="bevel" stroke-miterlimit="10" d="M166.277,96.996h6v9h-6V96.996z"/>
	<path fill="#FFFFFF" stroke="#FFFFFF" stroke-linejoin="bevel" stroke-miterlimit="10" d="M175.695,96.996h6v9h-6V96.996z"/>
	<path fill="#FFFFFF" stroke="#FFFFFF" stroke-linejoin="bevel" stroke-miterlimit="10" d="M185.402,96.996h6v9h-6V96.996z"/>
	<path fill="#FFFFFF" stroke="#FFFFFF" stroke-linejoin="bevel" stroke-miterlimit="10" d="M194.531,96.996h6v9h-6V96.996z"/>
	<path fill="#FFFFFF" stroke="#FFFFFF" stroke-linejoin="bevel" stroke-miterlimit="10" d="M166.277,110.852h6v9h-6V110.852z"/>
	<path fill="#FFFFFF" stroke="#FFFFFF" stroke-linejoin="bevel" stroke-miterlimit="10" d="M175.695,110.852h6v9h-6V110.852z"/>
	<path fill="#FFFFFF" stroke="#FFFFFF" stroke-linejoin="bevel" stroke-miterlimit="10" d="M185.402,110.852h6v9h-6V110.852z"/>
	<path fill="#FFFFFF" stroke="#FFFFFF" stroke-linejoin="bevel" stroke-miterlimit="10" d="M194.531,110.852h6v9h-6V110.852z"/>
	<path fill="#FFFFFF" stroke="#FFFFFF" stroke-linejoin="bevel" stroke-miterlimit="10" d="M166.277,124.711h6v9h-6V124.711z"/>
	<path fill="#FFFFFF" stroke="#FFFFFF" stroke-linejoin="bevel" stroke-miterlimit="10" d="M175.695,124.711h6v9h-6V124.711z"/>
	<path fill="#FFFFFF" stroke="#FFFFFF" stroke-linejoin="bevel" stroke-miterlimit="10" d="M185.402,124.711h6v9h-6V124.711z"/>
	<path fill="#FFFFFF" stroke="#FFFFFF" stroke-linejoin="bevel" stroke-miterlimit="10" d="M194.531,124.711h6v9h-6V124.711z"/>
	<path fill="#FFFFFF" stroke="#FFFFFF" stroke-linejoin="bevel" stroke-miterlimit="10" d="M166.277,138.57h6v9h-6V138.57z"/>
	<path fill="#FFFFFF" stroke="#FFFFFF" stroke-linejoin="bevel" stroke-miterlimit="10" d="M175.695,138.57h6v9h-6V138.57z"/>
	<path fill="#FFFFFF" stroke="#FFFFFF" stroke-linejoin="bevel" stroke-miterlimit="10" d="M185.402,138.57h6v9h-6V138.57z"/>
	<path fill="#FFFFFF" stroke="#FFFFFF" stroke-linejoin="bevel" stroke-miterlimit="10" d="M194.531,138.57h6v9h-6V138.57z"/>
	<path fill="#FFFFFF" stroke="#FFFFFF" stroke-linejoin="bevel" stroke-miterlimit="10" d="M68.477,50.016v-3h4.5l0.75-5.25h3v5.25
		h5.25v3h-5.25v5.25h-3v-5.25H68.477z"/>
	<path fill="#FFFFFF" stroke="#FFFFFF" stroke-linejoin="bevel" stroke-miterlimit="10" d="M176.551,50.023v-3h4.5l0.75-5.25h3v5.25
		h5.25v3h-5.25v5.25h-3v-5.25H176.551z"/>
</g>
</svg>
