<?xml version="1.0" encoding="utf-8"?>
<!-- Generator: Adobe Illustrator 16.0.0, SVG Export Plug-In . SVG Version: 6.00 Build 0)  -->
<!DOCTYPE svg PUBLIC "-//W3C//DTD SVG 1.1//EN" "http://www.w3.org/Graphics/SVG/1.1/DTD/svg11.dtd">
<svg preserveAspectRatio="none" version="1.1" id="图层_1" xmlns="http://www.w3.org/2000/svg" xmlns:xlink="http://www.w3.org/1999/xlink" x="0px" y="0px"
	 width="89.27px" height="137.617px" viewBox="30 29.516 89.27 137.617" enable-background="new 30 29.516 89.27 137.617"
	 xml:space="preserve">
<g id="surface1391">
	<path fill-opacity="0.0784" d="M47.035,40.047l0.027-0.02l0.082-0.051l0.133-0.078l0.188-0.105l0.238-0.121l0.289-0.141l0.34-0.156
		l0.387-0.16l0.438-0.168l0.484-0.164l0.535-0.164l0.578-0.156l0.625-0.145l0.672-0.125l0.715-0.109l0.758-0.082l0.801-0.059
		l0.844-0.023l0.887,0.012l0.926,0.051l0.969,0.094l1.004,0.145L60,38.516l1.082,0.254l1.121,0.313l1.16,0.375l1.191,0.445
		l1.23,0.516l1.262,0.594l1.297,0.672l1.328,0.758l1.363,0.848l0.688,0.473l0.668,0.516l0.641,0.559l0.621,0.594l0.598,0.633
		l0.578,0.672l0.559,0.707l0.539,0.742l0.52,0.777l0.5,0.809l0.48,0.844l0.465,0.871l0.449,0.902l0.434,0.934l0.418,0.961
		l0.402,0.984l0.391,1.016l0.375,1.035l0.359,1.063l0.352,1.086l0.336,1.105l0.324,1.125l0.316,1.148l0.305,1.164l0.297,1.184
		l0.289,1.199l0.277,1.215l0.273,1.227l0.266,1.242l0.258,1.258l0.25,1.266l0.246,1.277l0.246,1.285l0.238,1.293l0.234,1.301
		l0.23,1.309l0.23,1.313l0.23,1.316l0.453,2.641l0.227,1.324l0.23,1.324l0.461,2.641l0.234,1.316l0.238,1.313L88,93.555l0.246,1.301
		l0.25,1.297l0.258,1.285l0.262,1.273l0.27,1.266l0.277,1.254l0.285,1.242l0.293,1.227l0.305,1.215l0.313,1.195l0.32,1.18
		l0.336,1.164l0.348,1.145l0.355,1.125l0.371,1.105l0.387,1.082l0.41,1.098l0.422,1.086l0.434,1.07l0.441,1.055l0.457,1.043
		l0.461,1.027l0.469,1.016l0.48,1.004l0.484,0.988l0.488,0.973l0.492,0.961l0.5,0.949l0.5,0.934l0.504,0.926l0.504,0.906
		l0.504,0.898l0.508,0.883l0.504,0.871l0.5,0.859l0.5,0.848l0.496,0.836l0.488,0.82l0.488,0.813l0.48,0.797l0.473,0.785l0.465,0.777
		l0.457,0.762l0.449,0.75l0.434,0.742l0.43,0.73l0.414,0.715l0.402,0.707l0.387,0.695l0.375,0.688l0.359,0.672l0.344,0.664
		l0.328,0.652l0.309,0.641l0.289,0.633l0.273,0.621l0.25,0.613l0.23,0.602l0.211,0.59l0.184,0.582l0.164,0.57l0.141,0.563
		l0.113,0.555l0.086,0.543l0.063,0.531l0.035,0.523l0.008,0.516l-0.023,0.508l-0.055,0.496l-0.082,0.488l-0.117,0.48l-0.148,0.469
		l-0.18,0.465l-0.215,0.453l-0.25,0.445l-0.285,0.438l-0.32,0.43l-0.539,0.637l-0.559,0.578l-0.57,0.52l-0.586,0.465l-0.602,0.406
		l-0.617,0.352l-0.629,0.297l-0.641,0.242l-0.656,0.188l-0.668,0.137l-0.68,0.082l-0.695,0.031l-0.703-0.016l-0.715-0.07
		l-0.727-0.121l-0.734-0.168l-0.746-0.215l-0.758-0.266l-0.762-0.309l-0.773-0.359l-0.785-0.402l-0.789-0.449l-0.797-0.492
		l-0.805-0.535l-0.809-0.582l-0.82-0.621l-0.82-0.664l-0.832-0.707l-0.832-0.742l-0.84-0.785l-0.844-0.824l-0.848-0.863
		l-0.852-0.902l-0.852-0.938l-0.859-0.977l-0.859-1.008l-0.859-1.047l-0.863-1.082l-0.863-1.113l-0.605-0.801l-0.59-0.797
		l-0.57-0.793l-0.555-0.793l-0.543-0.789l-0.523-0.785l-0.512-0.785l-0.5-0.777l-0.48-0.781l-0.473-0.773l-0.457-0.773l-0.445-0.77
		l-0.434-0.766l-0.422-0.766l-0.41-0.762l-0.402-0.762l-0.391-0.758l-0.379-0.754l-0.375-0.754l-0.363-0.75l-0.355-0.75
		l-0.344-0.746l-0.34-0.746l-0.336-0.742l-0.324-0.738l-0.32-0.738l-0.316-0.738l-0.309-0.73l-0.305-0.734l-0.301-0.73l-0.297-0.727
		l-0.586-1.453l-0.57-1.445l-0.57-1.438l-0.281-0.719l-0.281-0.715l-0.285-0.711l-0.281-0.715l-0.285-0.711l-0.285-0.707
		l-0.289-0.711l-0.289-0.707l-0.293-0.703l-0.297-0.707l-0.297-0.703l-0.305-0.703l-0.309-0.699l-0.313-0.699l-0.32-0.699
		l-0.324-0.699l-0.332-0.695l-0.34-0.699l-0.488-0.996l-0.473-0.977l-0.457-0.957l-0.449-0.938l-0.434-0.922L58.367,99l-0.414-0.883
		l-0.402-0.867l-0.395-0.852l-0.387-0.84l-0.379-0.82l-0.371-0.805l-0.367-0.793l-0.363-0.781l-0.359-0.766l-0.355-0.758
		l-0.352-0.742l-0.352-0.734l-0.348-0.719l-0.352-0.715l-0.352-0.703l-0.352-0.691l-0.355-0.688l-0.355-0.676l-0.363-0.672
		l-0.367-0.664l-0.371-0.66l-0.379-0.652l-0.387-0.648l-0.395-0.645l-0.402-0.641l-0.414-0.641l-0.422-0.633L47.82,78.68
		l-0.445-0.633l-0.461-0.633l-0.473-0.629l-0.484-0.633l-0.469-0.605L45.02,74.93l-0.461-0.625l-0.453-0.641l-0.449-0.648
		l-0.441-0.656l-0.43-0.668l-0.426-0.676l-0.41-0.684l-0.398-0.695l-0.387-0.703l-0.375-0.711l-0.355-0.719l-0.34-0.723
		l-0.324-0.734l-0.309-0.738l-0.285-0.746l-0.266-0.754l-0.246-0.758l-0.223-0.762l-0.199-0.77l-0.172-0.773l-0.148-0.777
		l-0.125-0.785l-0.094-0.785l-0.066-0.793l-0.035-0.793l-0.004-0.797l0.027-0.801l0.059-0.801l0.098-0.805l0.129-0.809l0.164-0.809
		l0.203-0.809l0.242-0.809l0.277-0.813l0.32-0.813l0.363-0.813l0.406-0.813l0.445-0.809l0.102-0.164l0.309-0.453l0.516-0.684
		l0.723-0.863l0.941-0.984l1.152-1.047l1.371-1.063l1.582-1.012"/>
	<path fill="#00B4F0" stroke="#00B4F0" stroke-linejoin="bevel" stroke-miterlimit="10" d="M45.848,38.77
		c0,0,8.984-6.492,23.688,3.02c14.563,9.73,13.621,47.133,21.84,69.621c8.473,22.609,24.43,36.105,17.512,44.754
		c-6.789,8.605-17.945,2.379-29.188-12.324c-11.352-15.07-13.84-27.891-20.109-40.648c-6.242-12.672-8.863-20.539-15.133-28.539
		c-6.109-8.133-11.895-19.027-5.625-29.836c0.266-0.047,2.164-3.676,6.703-6.27L45.848,38.77z"/>
	<path fill="#008CCC" stroke="#008CCC" stroke-linejoin="bevel" stroke-miterlimit="10" d="M47.59,71.301
		c0,0-10.484-12.43-5.297-21.945c5.297-9.555,16.215-8.863,24-3.027c7.547,5.473,13.406,22.055,16.434,44.758
		c3.113,22.965,11.457,38.051,20.754,49.945c0.359,0.02,6.27,8.215,2.164,12.973c-4.055,5.047-13.84-2.598-22.27-12.109
		c-8.785-9.844-17.082-32.215-20.324-39.781c-3.461-7.563-11.895-25.082-15.57-31.137L47.59,71.301z"/>
	<path fill="none" stroke="#008CCC" stroke-linejoin="bevel" stroke-miterlimit="10" d="M58.152,42.324l1.5-12.75"/>
	<path fill="none" stroke="#008CCC" stroke-linejoin="bevel" stroke-miterlimit="10" d="M64.941,44.867l8.25-10.5"/>
	<path fill="none" stroke="#008CCC" stroke-linejoin="bevel" stroke-miterlimit="10" d="M70.332,51.051l8.25-7.5"/>
	<path fill="none" stroke="#008CCC" stroke-linejoin="bevel" stroke-miterlimit="10" d="M73.527,56.785l9.75-5.25"/>
	<path fill="none" stroke="#008CCC" stroke-linejoin="bevel" stroke-miterlimit="10" d="M76.723,62.922l9.75-3"/>
	<path fill="none" stroke="#008CCC" stroke-linejoin="bevel" stroke-miterlimit="10" d="M78.117,69.609l10.5-1.5"/>
	<path fill="none" stroke="#008CCC" stroke-linejoin="bevel" stroke-miterlimit="10" d="M79.516,76.098l10.5,0.75"/>
	<path fill="none" stroke="#008CCC" stroke-linejoin="bevel" stroke-miterlimit="10" d="M81.512,84.234l9.75-0.75"/>
	<path fill="none" stroke="#008CCC" stroke-linejoin="bevel" stroke-miterlimit="10" d="M82.313,90.422l9.75-0.75"/>
	<path fill="none" stroke="#008CCC" stroke-linejoin="bevel" stroke-miterlimit="10" d="M83.309,97.211l11.25-0.75"/>
	<path fill="none" stroke="#008CCC" stroke-linejoin="bevel" stroke-miterlimit="10" d="M84.508,106l11.25-3.75"/>
	<path fill="none" stroke="#008CCC" stroke-linejoin="bevel" stroke-miterlimit="10" d="M86.906,111.34l9.75-1.5"/>
	<path fill="none" stroke="#008CCC" stroke-linejoin="bevel" stroke-miterlimit="10" d="M90.297,117.781l9.75-3.75"/>
	<path fill="none" stroke="#008CCC" stroke-linejoin="bevel" stroke-miterlimit="10" d="M94.492,124.523c0.75,0,7.387-4.5,7.387-4.5
		"/>
	<path fill="none" stroke="#008CCC" stroke-linejoin="bevel" stroke-miterlimit="10" d="M98.484,131.414l6.75-6"/>
	<path fill="none" stroke="#008CCC" stroke-linejoin="bevel" stroke-miterlimit="10" d="M102.379,135.152l6-3.75"/>
	<path fill="none" stroke="#008CCC" stroke-linejoin="bevel" stroke-miterlimit="10" d="M104.074,141.344l9.75-3.75"/>
	<path fill="none" stroke="#008CCC" stroke-linejoin="bevel" stroke-miterlimit="10" d="M107.27,149.773h12"/>
	<path fill="none" stroke="#008CCC" stroke-linejoin="bevel" stroke-miterlimit="10" d="M104.676,156.563l1.5,10.5"/>
	<path fill="none" stroke="#008CCC" stroke-linejoin="bevel" stroke-miterlimit="10" d="M95.398,154.363l-4.5,8.25"/>
	<path fill="none" stroke="#008CCC" stroke-linejoin="bevel" stroke-miterlimit="10" d="M89.512,149.973l-6,6.75"/>
	<path fill="none" stroke="#008CCC" stroke-linejoin="bevel" stroke-miterlimit="10" d="M84.07,144.383l-6.75,7.5"/>
	<path fill="none" stroke="#008CCC" stroke-linejoin="bevel" stroke-miterlimit="10" d="M79.68,138.59l-6.75,7.5"/>
	<path fill="none" stroke="#008CCC" stroke-linejoin="bevel" stroke-miterlimit="10" d="M75.387,132l-6.75,7.09"/>
	<path fill="none" stroke="#008CCC" stroke-linejoin="bevel" stroke-miterlimit="10" d="M72.043,125.414l-7.5,5.25"/>
	<path fill="none" stroke="#008CCC" stroke-linejoin="bevel" stroke-miterlimit="10" d="M69,118.227l-8.25,6.75"/>
	<path fill="none" stroke="#008CCC" stroke-linejoin="bevel" stroke-miterlimit="10" d="M66.402,112.234l-8.25,5.25"/>
	<path fill="none" stroke="#008CCC" stroke-linejoin="bevel" stroke-miterlimit="10" d="M62.906,106.047l-6.75,3.75"/>
	<path fill="none" stroke="#008CCC" stroke-linejoin="bevel" stroke-miterlimit="10" d="M59.715,99.457l-9.75,2.25"/>
	<path fill="none" stroke="#008CCC" stroke-linejoin="bevel" stroke-miterlimit="10" d="M57.367,93.066l-9,2.25"/>
	<path fill="none" stroke="#008CCC" stroke-linejoin="bevel" stroke-miterlimit="10" d="M54.473,86.879l-7.5,1.5"/>
	<path fill="none" stroke="#008CCC" stroke-linejoin="bevel" stroke-miterlimit="10" d="M50.727,80.09l-6.75,3.75"/>
	<path fill="none" stroke="#008CCC" stroke-linejoin="bevel" stroke-miterlimit="10" d="M46.883,73.699l-7.5,5.25"/>
	<path fill="none" stroke="#008CCC" stroke-linejoin="bevel" stroke-miterlimit="10" d="M43.738,68.309l-6.75,5.25"/>
	<path fill="none" stroke="#008CCC" stroke-linejoin="bevel" stroke-miterlimit="10" d="M40.75,62.52H31"/>
	<path fill="none" stroke="#008CCC" stroke-linejoin="bevel" stroke-miterlimit="10" d="M39,52.734h-9"/>
	<path fill="none" stroke="#008CCC" stroke-linejoin="bevel" stroke-miterlimit="10" d="M43.992,45.508l-9-6.75"/>
	<path fill="none" stroke="#008CCC" stroke-linejoin="bevel" stroke-miterlimit="10" d="M50.723,41.621l-3.75-11.25"/>
	<path fill="#00B4F0" stroke="#00B4F0" stroke-linejoin="bevel" stroke-miterlimit="10" d="M50.078,58.383c0-3,2.66-6,5.945-6
		c3.055,0,5.945,2.664,5.945,5.945c0.109,3.055-2.664,5.945-5.945,5.945c-2.945,0.109-5.945-2.66-5.945-5.945V58.383z"/>
	<path fill="#00B4F0" stroke="#00B4F0" stroke-linejoin="bevel" stroke-miterlimit="10" d="M61.105,76.445
		c0-3,2.273-5.25,5.078-5.25c3.172,0,5.082,2.273,5.082,5.078c0.34,3.172-2.273,5.082-5.082,5.082
		c-2.828,0.34-5.078-2.273-5.078-5.082V76.445z"/>
	<path fill="#00B4F0" stroke="#00B4F0" stroke-linejoin="bevel" stroke-miterlimit="10" d="M70.617,96.234
		c0-2.25,2.031-4.5,4.539-4.5c2.211,0,4.543,2.031,4.543,4.539c-0.082,2.211-2.035,4.543-4.543,4.543
		c-2.289-0.082-4.539-2.035-4.539-4.543V96.234z"/>
	<path fill="#00B4F0" stroke="#00B4F0" stroke-linejoin="bevel" stroke-miterlimit="10" d="M74.727,114.293
		c0-2.25,1.645-3.75,3.676-3.75c2.324,0,3.672,1.648,3.672,3.676c0.152,2.324-1.645,3.676-3.672,3.676
		c-2.176,0.148-3.676-1.645-3.676-3.676V114.293z"/>
	<path fill="#00B4F0" stroke="#00B4F0" stroke-linejoin="bevel" stroke-miterlimit="10" d="M84.887,128.781
		c0-2.25,1.598-3.75,3.566-3.75c1.684,0,3.57,1.598,3.57,3.566c0.363,1.684-1.598,3.566-3.57,3.566
		c-2.066,0.367-3.566-1.598-3.566-3.566V128.781z"/>
	<path fill="#00B4F0" stroke="#00B4F0" stroke-linejoin="bevel" stroke-miterlimit="10" d="M95.266,145.43
		c0-2.25,1.453-3.75,3.242-3.75c2.008,0,3.242,1.598,3.242,3.566c0.266,1.684-1.449,3.566-3.242,3.566
		c-1.742,0.367-3.242-1.598-3.242-3.566V145.43z"/>
</g>
</svg>
