<?xml version="1.0" encoding="utf-8"?>
<!-- Generator: Adobe Illustrator 16.0.0, SVG Export Plug-In . SVG Version: 6.00 Build 0)  -->
<!DOCTYPE svg PUBLIC "-//W3C//DTD SVG 1.1//EN" "http://www.w3.org/Graphics/SVG/1.1/DTD/svg11.dtd">
<svg preserveAspectRatio="none" version="1.1" id="图层_1" xmlns="http://www.w3.org/2000/svg" xmlns:xlink="http://www.w3.org/1999/xlink" x="0px" y="0px"
	 width="178.523px" height="244.86px" viewBox="29.36 29.727 178.523 244.86" enable-background="new 29.36 29.727 178.523 244.86"
	 xml:space="preserve">
<g id="surface1276">
	<path fill="#F06B6C" stroke="#F16B6C" stroke-linejoin="bevel" stroke-miterlimit="10" d="M79.371,84.266
		c12-29.25,11.898-25.27,11.898-28.246c0.102-3.254-1.473-13.391-1.473-13.391c0.074-0.363,9.578-7.813,10.684-5.211
		c1.391,2.598,2.211,5.953,4.055,9.672c1.086,2.676,7.367-2.973,7.367-6.32c-0.281-3.004-0.387-7.469,2.07-8.398
		c3.648-1.355,9.723-2.695,9.723,1.328c-0.074,4.816,1.473,8.93,4.789,7.07c3.387-1.504,0.738-10.047,8.844-8.93
		c8.043,1.426,2.945,6.695,4.422,8.93c1.371,2.246,16.945,5.578,23.211,22.316c5.91,16.68,0.551,25.852-7,33.48
		c-7.34,7.949-36.477,32.734-36.477,32.734l-26.363-11.285l-20.25,4.5l-3-36L79.371,84.266z"/>
	<path fill="#F06B6C" stroke="#F16B6C" stroke-linejoin="bevel" stroke-miterlimit="10" d="M57.77,225.117
		c28.5,30,75.566,48.547,118.859,48.961c30.391,0.539,33.18-23.887,29.477-63.254c-2.086-24.707-19.652-66.336-29.477-71.918
		c-10.109-5.289-38.996-10.539-38.996-10.539l-40.113,1.5l-33,34.5l-8.25,43.5L57.77,225.117z"/>
	<path fill="#F06B6C" stroke="#F16B6C" stroke-linejoin="bevel" stroke-miterlimit="10" d="M50.461,79.082
		c0,0,0.648,38.313-3.402,45.754c-4.098,7.496,28,0,26.156,0l7.246,0.746c0,0-3.93-14.137-1.164-46.5H50.461z"/>
	<path fill="#F0909B" stroke="#F0909B" stroke-linejoin="bevel" stroke-miterlimit="10" d="M99.063,40.738
		c4.5-3.75-0.219-6.59-5.027-4.621c-6.973,3.121-5.59,9.859-0.801,7.625c5.078-2.254,5.773-3.348,5.773-3.348L99.063,40.738z"/>
	<path fill="#F0909B" stroke="#F0909B" stroke-linejoin="bevel" stroke-miterlimit="10" d="M120.504,34.758
		c6-0.75,3.695-4.289-0.738-4.531c-6.012,0.031-10.074,4.219-5.75,4.508c4.238,0.023,6.43-0.09,6.43-0.09L120.504,34.758z"/>
	<path fill="#F0909B" stroke="#F0909B" stroke-linejoin="bevel" stroke-miterlimit="10" d="M139.242,35.879
		c5.266,0.633,3.656-2.672-0.07-3.918c-5.477-1.449-9.309,1.254-5.434,2.348c4.059,1.184,5.512,1.387,5.512,1.387L139.242,35.879z"
		/>
	<path fill="#F06B6C" stroke="#F16B6C" stroke-linejoin="bevel" stroke-miterlimit="10" d="M152.316,86.836
		c-21.75-6.75-27.641-7.508-32.797,7.621c-5.453,14.879-5.406,30.75,0,38.211l2.797,0.668c0,0-5.977-41.359,29.633-46.566
		L152.316,86.836z"/>
	<path fill="#F0909B" stroke="#F0909B" stroke-linejoin="bevel" stroke-miterlimit="10" d="M80.809,119.375
		c15.75-5.25,28.883-13.016,36.254,7.445c2.746,6.055,6.008,7.301-3.379,14.258c-9.625,6.797-9.516,13.328-13.203,15.809
		c-3.922,2.238-8.289,0.93-7.215,7.285c1.043,6.203-12.129,4.184-12.129,9.766c-0.328,5.438,0.617,7.75-9.824,22.629
		c-10.754,15.059,12.895,32.547,1.844,39.152c-3.598,1.406-1.535-9.086-14.125-10.945c-4.473-0.398-13.473-21.699-13.473-21.699
		L80.809,119.375z"/>
	<path fill="#F0909B" stroke="#F0909B" stroke-linejoin="bevel" stroke-miterlimit="10" d="M141.109,131.566
		c12.75,35.25,11.535,51.422-2.246,67.434c-16.504,18.816-22,40.742-13.512,44.207c6.758,3.109,32.238-52.539,33.16-35.559
		c0.598,16.918,0.922,37.48,10.746,39.402c10.102,2.266,15.047,2.883,6.449-7.047c-8.348-10.188,1.227-21.145-6.449-41.645
		c-7.898-20.293,4.914-29.473,10.441-20.504c5.66,9.211,10.438,19.219,9.516,3.203c-0.855-15.742-6.141-23.387-11.051-27.871
		c-4.805-4.371-11.977-16.656-10.441-19.539c1.887-2.832-26.711-1.922-26.711-1.922L141.109,131.566z"/>
	<path fill="#F0909B" stroke="#F0909B" stroke-linejoin="bevel" stroke-miterlimit="10" d="M50.57,78.734
		c0-2.25,6.41-3.762,14.363-3.762c8.137,0.012,14.363,1.832,14.363,4.09c-0.227,1.922-6.445,4.094-14.363,4.094
		c-7.613,0.078-14.363-1.832-14.363-4.094V78.734z"/>
	<path fill="#F0909B" stroke="#F0909B" stroke-linejoin="bevel" stroke-miterlimit="10" d="M154.543,136.355
		c6.75,5.25,12.137,0.258,16.805,2.242c4.945,2.258,8.598,6.219,9.578,6.219c0.617-0.211,2.949-11.672-2.703-14.898
		c-5.68-3.313-10.07-8.68-14.738-12.398c-4.441-3.664-9.332,0.246-10.07,3.719c-0.371,3.117-0.734,14.383,1.23,15.375
		L154.543,136.355z"/>
	<path fill="#F0909B" stroke="#F0909B" stroke-linejoin="bevel" stroke-miterlimit="10" d="M177.859,75.363
		c0,0-18.074,0.176-39.672,11.652c-18.828,10.098-18.18,40.672-14.984,47.613c2.906,6.734,31.441,2.48,31.441,2.48
		c-0.035-0.246-5.406-26.363,23.5-32.773L177.859,75.363z"/>
	<path fill="#F06B6C" stroke="#F16B6C" stroke-linejoin="bevel" stroke-miterlimit="10" d="M174.805,89.613
		c0-7.5,1.465-14.25,3.297-14.25c1.953,0,3.316,6.469,3.316,14.477c0.137,8.023-1.484,14.496-3.316,14.496
		c-1.797,0.277-3.316-6.492-3.316-14.496L174.805,89.613z"/>
	<path fill="#FFFFFF" fill-opacity="0.1608" d="M162.754,143.254c-0.75,3-3.418,5.449,1.496,12.887
		c5.254,7.363,12.281,13.391,14.492,13.391c2.012-0.027-0.246,4.961-6.879-1.238c-6.859-6.289-7.613-8.68-7.613-7.688
		c0.004,0.648-0.98,14.133-4.422,23.309c-2.324,6.59-3.191,13.391,1.473,16.863c4.453,3.227-1.965,2.977-3.93-1.238
		c-2.117-4.535-2.453-7.938-2.453-5.207c0.336,2.922-13.512,15.621-16.949,18.102c-3.715,2.82-6.645,5.113-3.449,11.813
		c2.734,6.008,2.98,7.859,1.75,8.672c-1.266,0.336-0.266-1.734-2.969-6.941c-2.797-5.473-1.965-10.566,3.316-14.906
		c5.137-4.066,16.578-14.754,20.754-28.395c3.883-13.922,5.008-24.176,2.949-27.773c-3.566-6.398-1.125-10.641,0-12.648
		c1.684-2.75,3.316-2.852,2.332,0.867L162.754,143.254z"/>
	<path fill="#FFFFFF" fill-opacity="0.1608" d="M164.801,218.68c1.5,7.5-6.016,13.066-6.016,15.301
		c0.016,1.949,6.387-5.207,7.367-9.922c0.898-4.629,0.371-9.051-0.98-5.703L164.801,218.68z"/>
	<path fill="#FFFFFF" fill-opacity="0.1608" d="M161.848,176.82c3,6,0.02,17.602,0.02,25.535c-0.02,8.215,4.543,14.258,3.809,21.699
		c-0.828,7.516,6.508,16.773,9.945,16.773c3.477-0.258-7.613-2.516-7.613-15.906c-0.16-13.602-4.422-18.102-4.422-23.309
		c-0.238-5.293,4.367-29.293-1.039-29.293c-2.949,0-0.875,5.715-0.875,4.723L161.848,176.82z"/>
	<path fill="#FFFFFF" fill-opacity="0.1608" d="M148.855,194.426c-5.25,12-1.973,19.336-5.902,22.563
		c-3.098,2.188,2.457,6.445,4.422-10.418c0.73-7.645,1.227-12.145,1.227-12.145H148.855z"/>
	<path fill="#FFFFFF" fill-opacity="0.1608" d="M80.965,96.457c18-56.25,76.914-47.969,77.375-33.09
		c-1.625-23.16-68.543-22.008-77.375,32.742V96.457z"/>
	<path fill="#FFFFFF" fill-opacity="0.1608" d="M124.719,131.527c0-35.25,12.59-45.84,39.148-51.75
		c-0.148,0-46.949,1.695-39.086,52.078L124.719,131.527z"/>
	<path fill="#FFFFFF" fill-opacity="0.1608" d="M89.367,154.207c-3.75,9.75-14.477,16.316-14.477,17.805
		c0.227,1.695-8.105,10.91-7.367,17.852c0.844,7.094-8.105,10.168-6.879,17.113c0.973,7.23,4.617,11.406,3.441,12.207
		c-1.719,1.023-4.793-12.828-6.145-11.465c-1.574,1.238-7.574,6.449-7.574,3.723c0-2.484,6.102-2.73,8.313-7.938
		c2.188-5.047,7.859-10.414,7.125-13.641c-0.438-3.406,3.93-15.621,9.703-21.449c5.609-5.957,8.965-8.555,14.121-14.207H89.367z"/>
	<path fill="#F0909B" stroke="#F0909B" stroke-linejoin="bevel" stroke-miterlimit="10" d="M47.109,124.984
		c-22.5,14.25-18.953,51.555-11.828,67.426c7.328,15.824,22.352,14.879,22.352,0.496c-0.023-14.672,10.25-5.949,11.793-18.352
		c1.684-12.07,17.07-15.496,22.598-21.078c5.336-5.242,17.93-21.82,12.527-28.023c-5.691-6.469-29.477-4.461-38.813-9.176
		c-4.379-1.793-8.105-1.98-18.668,8.559L47.109,124.984z"/>
	<path fill="#FFFFFF" fill-opacity="0.1608" d="M46.672,137.145c-10.5,11.25-7.828,18.793-2.914,22.266
		c-0.086,0.234-15.723-6.445,3.191-22.316L46.672,137.145z"/>
	<path fill="#FFFFFF" fill-opacity="0.1608" d="M51.836,143.074c3,7.5-1.449,9.891-0.711,13.855
		c0.711,4.145,2.457,5.965,2.457,5.965c-0.246-0.32-1.965-3.484,0-7.949c2.004-4.371,1.965-8.926-1.719-11.902L51.836,143.074z"/>
	<path fill="#FFFFFF" fill-opacity="0.1608" d="M56.324,121.746c9,6,6.102,12.867,6.102,12.867
		c-0.102-0.117,5.895-8.68-6.141-12.895L56.324,121.746z"/>
	<path fill="#FFFFFF" fill-opacity="0.1608" d="M80.922,124.629c-7.5,7.5-5.422,12.969-8.832,17.449
		c-3.168,4.301-6.301,6.051-6.301,6.051c0.133-0.25,4.141-3.266,5.559-9.719c1.324-6.281,4.543-11.906,9.813-13.688L80.922,124.629z
		"/>
	<path fill="#FFFFFF" fill-opacity="0.1608" d="M33.469,173.863c7.5,7.5,15.445-2.301,15.445-2.301
		c0.305,0.051-5.156,12.648-15.473,2.23L33.469,173.863z"/>
	<path fill="#FFFFFF" fill-opacity="0.1608" d="M38.652,189.426c8.25,7.5,11.734-5.465,18.367-9.68
		c6.383-4.57,7.137-1.488,7.137-1.488c-0.004-0.082-7.383,1.488-9.84,5.953c-2.164,4.465-10.559,14.879-15.719,5.207L38.652,189.426
		z"/>
	<path fill="#FFFFFF" fill-opacity="0.1608" d="M64.672,168.508c6-13.5,20.352-18.77,20.352-18.77
		c-0.102,0.02-16.703,2.73-20.387,18.852L64.672,168.508z"/>
	<path fill="#FFFFFF" fill-opacity="0.1608" d="M91.215,141.473c5.25-6.75,3.387-20.25,3.387-20.25
		c0.363,0,5.773,12.273-3.438,20.086L91.215,141.473z"/>
</g>
</svg>
