<?xml version="1.0" encoding="utf-8"?>
<!-- Generator: Adobe Illustrator 16.0.0, SVG Export Plug-In . SVG Version: 6.00 Build 0)  -->
<!DOCTYPE svg PUBLIC "-//W3C//DTD SVG 1.1//EN" "http://www.w3.org/Graphics/SVG/1.1/DTD/svg11.dtd">
<svg preserveAspectRatio="none" version="1.1" id="图层_1" xmlns="http://www.w3.org/2000/svg" xmlns:xlink="http://www.w3.org/1999/xlink" x="0px" y="0px"
	 width="178.379px" height="196.094px" viewBox="29.492 29.41 178.379 196.094"
	 enable-background="new 29.492 29.41 178.379 196.094" xml:space="preserve">
<g id="surface1266">
	<path fill="#4F8DA2" stroke="#4F8DA2" stroke-linejoin="bevel" stroke-miterlimit="10" d="M97.93,93.254h24.75v3H97.93V93.254z"/>
	<path fill="#4F8DA2" stroke="#4F8DA2" stroke-linejoin="bevel" stroke-miterlimit="10" d="M97.621,164.465h24.75v3h-24.75V164.465z
		"/>
	<path fill="#4F8DA2" stroke="#4F8DA2" stroke-linejoin="bevel" stroke-miterlimit="10" d="M72.113,122.23l12.375-21.438l2.598,1.5
		L74.711,123.73L72.113,122.23z"/>
	<path fill="#4F8DA2" stroke="#4F8DA2" stroke-linejoin="bevel" stroke-miterlimit="10" d="M148.25,122.23l-12.375-21.438
		l-2.598,1.5l12.375,21.438L148.25,122.23z"/>
	<path fill="#4F8DA2" stroke="#4F8DA2" stroke-linejoin="bevel" stroke-miterlimit="10" d="M148.25,138.332l-12.375,21.434
		l-2.598-1.5l12.375-21.434L148.25,138.332z"/>
	<path fill="#4F8DA2" stroke="#4F8DA2" stroke-linejoin="bevel" stroke-miterlimit="10" d="M71.883,137.539l12.375,21.434l2.602-1.5
		l-12.375-21.434L71.883,137.539z"/>
	<path fill="#4F8DA2" stroke="#4F8DA2" stroke-linejoin="bevel" stroke-miterlimit="10" d="M42.516,128.941h24.75v3h-24.75V128.941z
		"/>
	<path fill="#4F8DA2" stroke="#4F8DA2" stroke-linejoin="bevel" stroke-miterlimit="10" d="M50.359,189.121h24.75v3h-24.75V189.121z
		"/>
	<path fill="#4F8DA2" stroke="#4F8DA2" stroke-linejoin="bevel" stroke-miterlimit="10" d="M148.199,188.855h24.75v3h-24.75V188.855
		z"/>
	<path fill="#4F8DA2" stroke="#4F8DA2" stroke-linejoin="bevel" stroke-miterlimit="10" d="M152.16,127.352h24.75v3h-24.75V127.352z
		"/>
	<path fill="#4F8DA2" stroke="#4F8DA2" stroke-linejoin="bevel" stroke-miterlimit="10" d="M72.113,190.004l12.375-21.434l2.598,1.5
		l-12.375,21.434L72.113,190.004z"/>
	<path fill="#4F8DA2" stroke="#4F8DA2" stroke-linejoin="bevel" stroke-miterlimit="10" d="M132.504,90.328l12.375-21.434l2.602,1.5
		l-12.375,21.434L132.504,90.328z"/>
	<path fill="#4F8DA2" stroke="#4F8DA2" stroke-linejoin="bevel" stroke-miterlimit="10" d="M76.668,63.555l12.375-21.434l2.598,1.5
		L79.266,65.055L76.668,63.555z"/>
	<path fill="#4F8DA2" stroke="#4F8DA2" stroke-linejoin="bevel" stroke-miterlimit="10" d="M46.746,66.645h24.75v3h-24.75V66.645z"
		/>
	<path fill="#4F8DA2" stroke="#4F8DA2" stroke-linejoin="bevel" stroke-miterlimit="10" d="M90.027,91.477L77.652,70.043l-2.598,1.5
		L87.43,92.977L90.027,91.477z"/>
	<path fill="#4F8DA2" stroke="#4F8DA2" stroke-linejoin="bevel" stroke-miterlimit="10" d="M197.863,157.07l-12.375-21.434
		l-2.602,1.5l12.375,21.434L197.863,157.07z"/>
	<path fill="#4F8DA2" stroke="#4F8DA2" stroke-linejoin="bevel" stroke-miterlimit="10" d="M144.273,190.004l-12.375-21.434
		l-2.598,1.5l12.375,21.434L144.273,190.004z"/>
	<path fill="#4F8DA2" stroke="#4F8DA2" stroke-linejoin="bevel" stroke-miterlimit="10" d="M88.848,212.828l-12.375-21.434
		l-2.598,1.5l12.375,21.434L88.848,212.828z"/>
	<path fill="#4F8DA2" stroke="#4F8DA2" stroke-linejoin="bevel" stroke-miterlimit="10" d="M182.91,122.23l12.375-21.438l2.598,1.5
		l-12.375,21.438L182.91,122.23z"/>
	<path fill="#F06B6C" stroke="#F16B6C" stroke-linejoin="bevel" stroke-miterlimit="10" d="M34.344,190.738
		c0-6,4.57-10.535,10.207-10.535c5.543,0.035,10.207,4.566,10.207,10.203c-0.164,5.582-4.57,10.207-10.207,10.207
		c-5.707-0.125-10.207-4.57-10.207-10.207V190.738z"/>
	<path fill="#F06B6C" stroke="#F16B6C" stroke-linejoin="bevel" stroke-miterlimit="10" d="M63.77,191.004
		c0-6,4.57-10.539,10.207-10.539c5.543,0.039,10.207,4.57,10.207,10.207c-0.164,5.582-4.57,10.203-10.207,10.203
		c-5.707-0.121-10.207-4.566-10.207-10.203V191.004z"/>
	<path fill="#F06B6C" stroke="#F16B6C" stroke-linejoin="bevel" stroke-miterlimit="10" d="M78.031,215.133
		c0-6,4.566-10.539,10.203-10.539c5.547,0.039,10.207,4.57,10.207,10.207c-0.16,5.582-4.566,10.203-10.207,10.203
		c-5.703-0.121-10.203-4.566-10.203-10.203V215.133z"/>
	<path fill="#F06B6C" stroke="#F16B6C" stroke-linejoin="bevel" stroke-miterlimit="10" d="M79.629,166.352
		c0-6,4.57-10.535,10.207-10.535c5.543,0.035,10.207,4.566,10.207,10.203c-0.164,5.582-4.57,10.207-10.207,10.207
		c-5.707-0.125-10.207-4.57-10.207-10.207V166.352z"/>
	<path fill="#F06B6C" stroke="#F16B6C" stroke-linejoin="bevel" stroke-miterlimit="10" d="M120.391,166.352
		c0-6,4.57-10.535,10.207-10.535c5.543,0.035,10.207,4.566,10.207,10.203c-0.164,5.582-4.57,10.207-10.207,10.207
		c-5.707-0.125-10.207-4.57-10.207-10.207V166.352z"/>
	<path fill="#F06B6C" stroke="#F16B6C" stroke-linejoin="bevel" stroke-miterlimit="10" d="M133.672,192.594
		c0-6,4.57-10.535,10.207-10.535c5.543,0.035,10.207,4.566,10.207,10.203c-0.164,5.582-4.57,10.207-10.207,10.207
		c-5.707-0.125-10.207-4.57-10.207-10.207V192.594z"/>
	<path fill="#F06B6C" stroke="#F16B6C" stroke-linejoin="bevel" stroke-miterlimit="10" d="M164.379,192.594
		c0-6,4.57-10.535,10.207-10.535c5.543,0.035,10.207,4.566,10.207,10.203c-0.164,5.582-4.57,10.207-10.207,10.207
		c-5.707-0.125-10.207-4.57-10.207-10.207V192.594z"/>
	<path fill="#F06B6C" stroke="#F16B6C" stroke-linejoin="bevel" stroke-miterlimit="10" d="M186.957,161.578
		c0-6,4.57-10.535,10.207-10.535c5.543,0.035,10.207,4.57,10.207,10.207c-0.164,5.578-4.57,10.203-10.207,10.203
		c-5.707-0.125-10.207-4.566-10.207-10.203V161.578z"/>
	<path fill="#F06B6C" stroke="#F16B6C" stroke-linejoin="bevel" stroke-miterlimit="10" d="M169.992,130.832
		c0-6,4.566-10.535,10.203-10.535c5.547,0.035,10.207,4.57,10.207,10.203c-0.16,5.582-4.566,10.207-10.207,10.207
		c-5.703-0.125-10.203-4.57-10.203-10.207V130.832z"/>
	<path fill="#F06B6C" stroke="#F16B6C" stroke-linejoin="bevel" stroke-miterlimit="10" d="M140.008,130.832
		c0-6,4.57-10.535,10.207-10.535c5.543,0.035,10.207,4.57,10.207,10.203c-0.164,5.582-4.57,10.207-10.207,10.207
		c-5.707-0.125-10.207-4.57-10.207-10.207V130.832z"/>
	<path fill="#F06B6C" stroke="#F16B6C" stroke-linejoin="bevel" stroke-miterlimit="10" d="M58.988,130.832
		c0-6,4.57-10.535,10.207-10.535c5.543,0.035,10.203,4.57,10.203,10.203c-0.16,5.582-4.566,10.207-10.203,10.207
		c-5.707-0.125-10.207-4.57-10.207-10.207V130.832z"/>
	<path fill="#F06B6C" stroke="#F16B6C" stroke-linejoin="bevel" stroke-miterlimit="10" d="M29.992,130.832
		c0-6,4.57-10.535,10.207-10.535c5.543,0.035,10.207,4.57,10.207,10.203c-0.164,5.582-4.57,10.207-10.207,10.207
		c-5.707-0.125-10.207-4.57-10.207-10.207V130.832z"/>
	<path fill="#F06B6C" stroke="#F16B6C" stroke-linejoin="bevel" stroke-miterlimit="10" d="M79.629,96.109
		c0-6,4.57-10.535,10.207-10.535c5.543,0.035,10.207,4.566,10.207,10.203c-0.164,5.582-4.57,10.207-10.207,10.207
		c-5.707-0.125-10.207-4.57-10.207-10.207V96.109z"/>
	<path fill="#F06B6C" stroke="#F16B6C" stroke-linejoin="bevel" stroke-miterlimit="10" d="M120.391,96.109
		c0-6,4.57-10.535,10.207-10.535c5.543,0.035,10.207,4.566,10.207,10.203c-0.164,5.582-4.57,10.207-10.207,10.207
		c-5.707-0.125-10.207-4.57-10.207-10.207V96.109z"/>
	<path fill="#F06B6C" stroke="#F16B6C" stroke-linejoin="bevel" stroke-miterlimit="10" d="M186.723,99.82
		c0-6,4.57-10.535,10.207-10.535c5.543,0.035,10.207,4.566,10.207,10.203c-0.164,5.582-4.57,10.207-10.207,10.207
		c-5.707-0.125-10.207-4.57-10.207-10.207V99.82z"/>
	<path fill="#F06B6C" stroke="#F16B6C" stroke-linejoin="bevel" stroke-miterlimit="10" d="M136.031,70.664
		c0-6,4.57-10.539,10.207-10.539c5.543,0.039,10.207,4.57,10.207,10.207c-0.164,5.582-4.57,10.203-10.207,10.203
		c-5.707-0.121-10.207-4.566-10.207-10.203V70.664z"/>
	<path fill="#F06B6C" stroke="#F16B6C" stroke-linejoin="bevel" stroke-miterlimit="10" d="M65.855,69.336
		c0-6,4.57-10.535,10.207-10.535c5.543,0.035,10.207,4.57,10.207,10.207c-0.164,5.578-4.57,10.203-10.207,10.203
		c-5.707-0.125-10.207-4.566-10.207-10.203V69.336z"/>
	<path fill="#F06B6C" stroke="#F16B6C" stroke-linejoin="bevel" stroke-miterlimit="10" d="M34.344,68.543
		c0-6,4.57-10.535,10.207-10.535c5.543,0.035,10.207,4.566,10.207,10.203c-0.164,5.582-4.57,10.207-10.207,10.207
		c-5.707-0.125-10.207-4.57-10.207-10.207V68.543z"/>
	<path fill="#F06B6C" stroke="#F16B6C" stroke-linejoin="bevel" stroke-miterlimit="10" d="M82.594,40.445
		c0-6,4.566-10.535,10.203-10.535c5.547,0.035,10.207,4.566,10.207,10.203c-0.16,5.582-4.57,10.207-10.207,10.207
		c-5.703-0.125-10.203-4.57-10.203-10.207V40.445z"/>
</g>
</svg>
