<?xml version="1.0" encoding="utf-8"?>
<!-- Generator: Adobe Illustrator 16.0.0, SVG Export Plug-In . SVG Version: 6.00 Build 0)  -->
<!DOCTYPE svg PUBLIC "-//W3C//DTD SVG 1.1//EN" "http://www.w3.org/Graphics/SVG/1.1/DTD/svg11.dtd">
<svg preserveAspectRatio="none"   version="1.1" id="图层_1" xmlns="http://www.w3.org/2000/svg" xmlns:xlink="http://www.w3.org/1999/xlink" x="0px" y="0px"
	 width="563.166px" height="548.257px" viewBox="1.841 9.293 563.166 548.257" enable-background="new 1.841 9.293 563.166 548.257"
	 xml:space="preserve">
<g id="surface39">
	
		<linearGradient id="SVGID_1_" gradientUnits="userSpaceOnUse" x1="262.7021" y1="168.8569" x2="165.7021" y2="168.8569" gradientTransform="matrix(-0.75 0 0 -0.75 683.9796 252.2589)">
		<stop  offset="0" style="stop-color:#9C9EA1"/>
		<stop  offset="0.63" style="stop-color:#D6D9DC"/>
		<stop  offset="0.71" style="stop-color:#E8EAEC"/>
		<stop  offset="0.8" style="stop-color:#B8BBBF"/>
		<stop  offset="0.86" style="stop-color:#A4A6AA"/>
		<stop  offset="0.89" style="stop-color:#9B9DA0"/>
		<stop  offset="0.95" style="stop-color:#929497"/>
		<stop  offset="1" style="stop-color:#A8AAAE"/>
	</linearGradient>
	<path fill="url(#SVGID_1_)" d="M555.203,101.281h-68.25v27.75l41.25-0.75v21.75h31.5v-45c0-2.25-1.824-3.828-4.141-3.828
		L555.203,101.281z"/>
	
		<linearGradient id="SVGID_2_" gradientUnits="userSpaceOnUse" x1="202.2222" y1="195.7402" x2="258.1113" y2="195.7402" gradientTransform="matrix(0.75 0 0 -0.75 371.4227 298.588)">
		<stop  offset="0" style="stop-color:#9C9EA1"/>
		<stop  offset="0.15" style="stop-color:#D6D9DC"/>
		<stop  offset="0.25" style="stop-color:#E8EAEC"/>
		<stop  offset="0.52" style="stop-color:#B8BBBF"/>
		<stop  offset="0.69" style="stop-color:#A4A6AA"/>
		<stop  offset="0.8" style="stop-color:#9B9DA0"/>
		<stop  offset="0.92" style="stop-color:#929497"/>
		<stop  offset="1" style="stop-color:#A8AAAE"/>
	</linearGradient>
	<path fill="url(#SVGID_2_)" d="M527.589,147.609h33c2.25,0,4.414,1.871,4.414,4.176c0.086,2.574-1.906,4.172-4.223,4.172
		l-33.191-0.098c-3,0-4.5-1.77-4.5-4.074c0-2.676,1.875-4.176,4.188-4.176H527.589z"/>
	
		<linearGradient id="SVGID_3_" gradientUnits="userSpaceOnUse" x1="230.2246" y1="201.3057" x2="230.2246" y2="164.3057" gradientTransform="matrix(0.75 0 0 -0.75 335.327 252.1818)">
		<stop  offset="0" style="stop-color:#A7A9AB"/>
		<stop  offset="0.15" style="stop-color:#E4E6E9"/>
		<stop  offset="0.25" style="stop-color:#F0F1F2"/>
		<stop  offset="0.52" style="stop-color:#C6C7CA"/>
		<stop  offset="0.69" style="stop-color:#B0B1B4"/>
		<stop  offset="0.8" style="stop-color:#A6A7AA"/>
		<stop  offset="0.92" style="stop-color:#9C9EA0"/>
		<stop  offset="1" style="stop-color:#B4B6B8"/>
	</linearGradient>
	<path fill="url(#SVGID_3_)" d="M486.996,101.203h42v27.75h-42V101.203z"/>
	
		<linearGradient id="SVGID_4_" gradientUnits="userSpaceOnUse" x1="218.2231" y1="180.8057" x2="202.2231" y2="180.8057" gradientTransform="matrix(0.75 0 0 -0.75 -42.3785 541.1613)">
		<stop  offset="0" style="stop-color:#5C7B9B"/>
		<stop  offset="0.15" style="stop-color:#8BAED5"/>
		<stop  offset="0.25" style="stop-color:#C6D5E8"/>
		<stop  offset="0.52" style="stop-color:#6E92B8"/>
		<stop  offset="0.69" style="stop-color:#6281A3"/>
		<stop  offset="0.8" style="stop-color:#5C7A9A"/>
		<stop  offset="0.92" style="stop-color:#567391"/>
		<stop  offset="1" style="stop-color:#6484A7"/>
	</linearGradient>
	<path fill="url(#SVGID_4_)" d="M109.289,390.183h12v30.75h-12V390.183z"/>
	
		<linearGradient id="SVGID_5_" gradientUnits="userSpaceOnUse" x1="218.2246" y1="180.8057" x2="202.2246" y2="180.8057" gradientTransform="matrix(0.75 0 0 -0.75 5.4877 541.1613)">
		<stop  offset="0" style="stop-color:#5C7B9B"/>
		<stop  offset="0.15" style="stop-color:#8BAED5"/>
		<stop  offset="0.25" style="stop-color:#C6D5E8"/>
		<stop  offset="0.52" style="stop-color:#6E92B8"/>
		<stop  offset="0.69" style="stop-color:#6281A3"/>
		<stop  offset="0.8" style="stop-color:#5C7A9A"/>
		<stop  offset="0.92" style="stop-color:#567391"/>
		<stop  offset="1" style="stop-color:#6484A7"/>
	</linearGradient>
	<path fill="url(#SVGID_5_)" d="M157.156,390.183h12v30.75h-12V390.183z"/>
	
		<linearGradient id="SVGID_6_" gradientUnits="userSpaceOnUse" x1="218.2256" y1="180.8057" x2="202.2256" y2="180.8057" gradientTransform="matrix(0.75 0 0 -0.75 53.3539 541.1613)">
		<stop  offset="0" style="stop-color:#5C7B9B"/>
		<stop  offset="0.15" style="stop-color:#8BAED5"/>
		<stop  offset="0.25" style="stop-color:#C6D5E8"/>
		<stop  offset="0.52" style="stop-color:#6E92B8"/>
		<stop  offset="0.69" style="stop-color:#6281A3"/>
		<stop  offset="0.8" style="stop-color:#5C7A9A"/>
		<stop  offset="0.92" style="stop-color:#567391"/>
		<stop  offset="1" style="stop-color:#6484A7"/>
	</linearGradient>
	<path fill="url(#SVGID_6_)" d="M205.023,390.183h12v30.75h-12V390.183z"/>
	
		<linearGradient id="SVGID_7_" gradientUnits="userSpaceOnUse" x1="218.2271" y1="180.8057" x2="202.2271" y2="180.8057" gradientTransform="matrix(0.75 0 0 -0.75 101.2201 541.1613)">
		<stop  offset="0" style="stop-color:#5C7B9B"/>
		<stop  offset="0.15" style="stop-color:#8BAED5"/>
		<stop  offset="0.25" style="stop-color:#C6D5E8"/>
		<stop  offset="0.52" style="stop-color:#6E92B8"/>
		<stop  offset="0.69" style="stop-color:#6281A3"/>
		<stop  offset="0.8" style="stop-color:#5C7A9A"/>
		<stop  offset="0.92" style="stop-color:#567391"/>
		<stop  offset="1" style="stop-color:#6484A7"/>
	</linearGradient>
	<path fill="url(#SVGID_7_)" d="M252.891,390.183h12v30.75h-12V390.183z"/>
	
		<linearGradient id="SVGID_8_" gradientUnits="userSpaceOnUse" x1="218.2236" y1="180.8057" x2="202.2236" y2="180.8057" gradientTransform="matrix(0.75 0 0 -0.75 149.0858 541.1613)">
		<stop  offset="0" style="stop-color:#5C7B9B"/>
		<stop  offset="0.15" style="stop-color:#8BAED5"/>
		<stop  offset="0.25" style="stop-color:#C6D5E8"/>
		<stop  offset="0.52" style="stop-color:#6E92B8"/>
		<stop  offset="0.69" style="stop-color:#6281A3"/>
		<stop  offset="0.8" style="stop-color:#5C7A9A"/>
		<stop  offset="0.92" style="stop-color:#567391"/>
		<stop  offset="1" style="stop-color:#6484A7"/>
	</linearGradient>
	<path fill="url(#SVGID_8_)" d="M300.753,390.183h12v30.75h-12V390.183z"/>
	
		<linearGradient id="SVGID_9_" gradientUnits="userSpaceOnUse" x1="218.2241" y1="180.8057" x2="202.2241" y2="180.8057" gradientTransform="matrix(0.75 0 0 -0.75 196.952 541.1613)">
		<stop  offset="0" style="stop-color:#5C7B9B"/>
		<stop  offset="0.15" style="stop-color:#8BAED5"/>
		<stop  offset="0.25" style="stop-color:#C6D5E8"/>
		<stop  offset="0.52" style="stop-color:#6E92B8"/>
		<stop  offset="0.69" style="stop-color:#6281A3"/>
		<stop  offset="0.8" style="stop-color:#5C7A9A"/>
		<stop  offset="0.92" style="stop-color:#567391"/>
		<stop  offset="1" style="stop-color:#6484A7"/>
	</linearGradient>
	<path fill="url(#SVGID_9_)" d="M348.621,390.183h12v30.75h-12V390.183z"/>
	
		<linearGradient id="SVGID_10_" gradientUnits="userSpaceOnUse" x1="218.2246" y1="180.8057" x2="202.2246" y2="180.8057" gradientTransform="matrix(0.75 0 0 -0.75 244.8192 541.1613)">
		<stop  offset="0" style="stop-color:#5C7B9B"/>
		<stop  offset="0.15" style="stop-color:#8BAED5"/>
		<stop  offset="0.25" style="stop-color:#C6D5E8"/>
		<stop  offset="0.52" style="stop-color:#6E92B8"/>
		<stop  offset="0.69" style="stop-color:#6281A3"/>
		<stop  offset="0.8" style="stop-color:#5C7A9A"/>
		<stop  offset="0.92" style="stop-color:#567391"/>
		<stop  offset="1" style="stop-color:#6484A7"/>
	</linearGradient>
	<path fill="url(#SVGID_10_)" d="M396.488,390.183h12v30.75h-12V390.183z"/>
	
		<linearGradient id="SVGID_11_" gradientUnits="userSpaceOnUse" x1="218.2261" y1="180.8057" x2="202.2261" y2="180.8057" gradientTransform="matrix(0.75 0 0 -0.75 292.6854 541.1613)">
		<stop  offset="0" style="stop-color:#5C7B9B"/>
		<stop  offset="0.15" style="stop-color:#8BAED5"/>
		<stop  offset="0.25" style="stop-color:#C6D5E8"/>
		<stop  offset="0.52" style="stop-color:#6E92B8"/>
		<stop  offset="0.69" style="stop-color:#6281A3"/>
		<stop  offset="0.8" style="stop-color:#5C7A9A"/>
		<stop  offset="0.92" style="stop-color:#567391"/>
		<stop  offset="1" style="stop-color:#6484A7"/>
	</linearGradient>
	<path fill="url(#SVGID_11_)" d="M444.355,390.183h12v30.75h-12V390.183z"/>
	
		<linearGradient id="SVGID_12_" gradientUnits="userSpaceOnUse" x1="762.3579" y1="192.3042" x2="202.2236" y2="192.3042" gradientTransform="matrix(0.75 0 0 -0.75 -78.254 229.3986)">
		<stop  offset="0" style="stop-color:#8F9194"/>
		<stop  offset="0.15" style="stop-color:#C6C9CC"/>
		<stop  offset="0.25" style="stop-color:#E0E2E3"/>
		<stop  offset="0.52" style="stop-color:#A9ACAF"/>
		<stop  offset="0.69" style="stop-color:#97999B"/>
		<stop  offset="0.8" style="stop-color:#8E9092"/>
		<stop  offset="0.92" style="stop-color:#86888A"/>
		<stop  offset="1" style="stop-color:#9A9D9F"/>
	</linearGradient>
	<path fill="url(#SVGID_12_)" d="M79.414,78.422h408c3,0,6.102,2.801,6.102,6.258l-0.102,0.492c0,3.75-2.711,6.555-6.184,6.555
		L79.414,91.922c-3,0-6-3-6-6.457v-1.043c0-3,2.813-6,6.281-6H79.414z"/>
	
		<linearGradient id="SVGID_13_" gradientUnits="userSpaceOnUse" x1="745.2212" y1="160.3032" x2="202.2222" y2="160.3032" gradientTransform="matrix(0.75 0 0 -0.75 -71.9718 242.7023)">
		<stop  offset="0" style="stop-color:#9C9EA1"/>
		<stop  offset="0.15" style="stop-color:#D6D9DC"/>
		<stop  offset="0.25" style="stop-color:#E8EAEC"/>
		<stop  offset="0.52" style="stop-color:#B8BBBF"/>
		<stop  offset="0.69" style="stop-color:#A4A6AA"/>
		<stop  offset="0.8" style="stop-color:#9B9DA0"/>
		<stop  offset="0.92" style="stop-color:#929497"/>
		<stop  offset="1" style="stop-color:#A8AAAE"/>
	</linearGradient>
	<path fill="url(#SVGID_13_)" d="M79.695,91.727h407.25v61.5H79.695V91.727z"/>
	
		<linearGradient id="SVGID_14_" gradientUnits="userSpaceOnUse" x1="762.3579" y1="192.3052" x2="202.2236" y2="192.3051" gradientTransform="matrix(0.75 0 0 -0.75 -78.254 304.5255)">
		<stop  offset="0" style="stop-color:#8F9194"/>
		<stop  offset="0.15" style="stop-color:#C6C9CC"/>
		<stop  offset="0.25" style="stop-color:#E0E2E3"/>
		<stop  offset="0.52" style="stop-color:#A9ACAF"/>
		<stop  offset="0.69" style="stop-color:#97999B"/>
		<stop  offset="0.8" style="stop-color:#8E9092"/>
		<stop  offset="0.92" style="stop-color:#86888A"/>
		<stop  offset="1" style="stop-color:#9A9D9F"/>
	</linearGradient>
	<path fill="url(#SVGID_14_)" d="M79.414,153.547h408c3,0,6.102,2.805,6.102,6.262l-0.102,0.488c0,3.75-2.711,6.555-6.184,6.555
		l-407.816,0.195c-3,0-6-3-6-6.457v-1.043c0-3,2.813-6,6.281-6H79.414z"/>
	
		<linearGradient id="SVGID_15_" gradientUnits="userSpaceOnUse" x1="745.2212" y1="160.3062" x2="202.2222" y2="160.3061" gradientTransform="matrix(0.75 0 0 -0.75 -71.9718 317.8302)">
		<stop  offset="0" style="stop-color:#9C9EA1"/>
		<stop  offset="0.15" style="stop-color:#D6D9DC"/>
		<stop  offset="0.25" style="stop-color:#E8EAEC"/>
		<stop  offset="0.52" style="stop-color:#B8BBBF"/>
		<stop  offset="0.69" style="stop-color:#A4A6AA"/>
		<stop  offset="0.8" style="stop-color:#9B9DA0"/>
		<stop  offset="0.92" style="stop-color:#929497"/>
		<stop  offset="1" style="stop-color:#A8AAAE"/>
	</linearGradient>
	<path fill="url(#SVGID_15_)" d="M79.695,166.852h407.25v61.5H79.695V166.852z"/>
	
		<linearGradient id="SVGID_16_" gradientUnits="userSpaceOnUse" x1="762.3579" y1="192.3032" x2="202.2236" y2="192.3032" gradientTransform="matrix(0.75 0 0 -0.75 -78.254 379.6525)">
		<stop  offset="0" style="stop-color:#8F9194"/>
		<stop  offset="0.15" style="stop-color:#C6C9CC"/>
		<stop  offset="0.25" style="stop-color:#E0E2E3"/>
		<stop  offset="0.52" style="stop-color:#A9ACAF"/>
		<stop  offset="0.69" style="stop-color:#97999B"/>
		<stop  offset="0.8" style="stop-color:#8E9092"/>
		<stop  offset="0.92" style="stop-color:#86888A"/>
		<stop  offset="1" style="stop-color:#9A9D9F"/>
	</linearGradient>
	<path fill="url(#SVGID_16_)" d="M79.414,228.676h408c3,0,6.102,2.801,6.102,6.262l-0.102,0.488c0,3.75-2.711,6.555-6.184,6.555
		l-407.816,0.195c-3,0-6-3-6-6.457v-1.043c0-3,2.813-6,6.281-6H79.414z"/>
	
		<linearGradient id="SVGID_17_" gradientUnits="userSpaceOnUse" x1="745.2212" y1="160.3027" x2="202.2222" y2="160.3027" gradientTransform="matrix(0.75 0 0 -0.75 -71.9718 392.9562)">
		<stop  offset="0" style="stop-color:#9C9EA1"/>
		<stop  offset="0.15" style="stop-color:#D6D9DC"/>
		<stop  offset="0.25" style="stop-color:#E8EAEC"/>
		<stop  offset="0.52" style="stop-color:#B8BBBF"/>
		<stop  offset="0.69" style="stop-color:#A4A6AA"/>
		<stop  offset="0.8" style="stop-color:#9B9DA0"/>
		<stop  offset="0.92" style="stop-color:#929497"/>
		<stop  offset="1" style="stop-color:#A8AAAE"/>
	</linearGradient>
	<path fill="url(#SVGID_17_)" d="M79.695,241.98h407.25v61.5H79.695V241.98z"/>
	
		<linearGradient id="SVGID_18_" gradientUnits="userSpaceOnUse" x1="762.3579" y1="192.3071" x2="202.2236" y2="192.3071" gradientTransform="matrix(0.75 0 0 -0.75 -78.254 454.7794)">
		<stop  offset="0" style="stop-color:#8F9194"/>
		<stop  offset="0.15" style="stop-color:#C6C9CC"/>
		<stop  offset="0.25" style="stop-color:#E0E2E3"/>
		<stop  offset="0.52" style="stop-color:#A9ACAF"/>
		<stop  offset="0.69" style="stop-color:#97999B"/>
		<stop  offset="0.8" style="stop-color:#8E9092"/>
		<stop  offset="0.92" style="stop-color:#86888A"/>
		<stop  offset="1" style="stop-color:#9A9D9F"/>
	</linearGradient>
	<path fill="url(#SVGID_18_)" d="M79.414,303.8h408c3,0,6.102,2.805,6.102,6.262l-0.102,0.488c0,3.75-2.711,6.555-6.184,6.555
		L79.414,317.3c-3,0-6-3-6-6.457V309.8c0-3,2.813-6,6.281-6H79.414z"/>
	
		<linearGradient id="SVGID_19_" gradientUnits="userSpaceOnUse" x1="745.2212" y1="160.3062" x2="202.2222" y2="160.3061" gradientTransform="matrix(0.75 0 0 -0.75 -71.9718 468.0841)">
		<stop  offset="0" style="stop-color:#9C9EA1"/>
		<stop  offset="0.15" style="stop-color:#D6D9DC"/>
		<stop  offset="0.25" style="stop-color:#E8EAEC"/>
		<stop  offset="0.52" style="stop-color:#B8BBBF"/>
		<stop  offset="0.69" style="stop-color:#A4A6AA"/>
		<stop  offset="0.8" style="stop-color:#9B9DA0"/>
		<stop  offset="0.92" style="stop-color:#929497"/>
		<stop  offset="1" style="stop-color:#A8AAAE"/>
	</linearGradient>
	<path fill="url(#SVGID_19_)" d="M79.695,317.105h407.25v61.5H79.695V317.105z"/>
	
		<linearGradient id="SVGID_20_" gradientUnits="userSpaceOnUse" x1="255.2246" y1="190.8027" x2="202.2256" y2="190.8027" gradientTransform="matrix(0.75 0 0 -0.75 111.9052 177.0704)">
		<stop  offset="0" style="stop-color:#9C9EA1"/>
		<stop  offset="0.15" style="stop-color:#D6D9DC"/>
		<stop  offset="0.25" style="stop-color:#E8EAEC"/>
		<stop  offset="0.52" style="stop-color:#B8BBBF"/>
		<stop  offset="0.69" style="stop-color:#A4A6AA"/>
		<stop  offset="0.8" style="stop-color:#9B9DA0"/>
		<stop  offset="0.92" style="stop-color:#929497"/>
		<stop  offset="1" style="stop-color:#A8AAAE"/>
	</linearGradient>
	<path fill="url(#SVGID_20_)" d="M263.574,26.094h39.75v15.75h-39.75V26.094z"/>
	
		<linearGradient id="SVGID_21_" gradientUnits="userSpaceOnUse" x1="645.2251" y1="121.8071" x2="202.2261" y2="121.8071" gradientTransform="matrix(0.75 0 0 -0.75 -34.4122 579.6437)">
		<stop  offset="0" style="stop-color:#5C7B9B"/>
		<stop  offset="0.15" style="stop-color:#8BAED5"/>
		<stop  offset="0.25" style="stop-color:#C6D5E8"/>
		<stop  offset="0.52" style="stop-color:#6E92B8"/>
		<stop  offset="0.69" style="stop-color:#6281A3"/>
		<stop  offset="0.8" style="stop-color:#5C7A9A"/>
		<stop  offset="0.92" style="stop-color:#567391"/>
		<stop  offset="1" style="stop-color:#6484A7"/>
	</linearGradient>
	<path fill="url(#SVGID_21_)" d="M117.258,428.664h332.25v119.25h-332.25V428.664z"/>
	
		<linearGradient id="SVGID_22_" gradientUnits="userSpaceOnUse" x1="688.6196" y1="193.603" x2="202.2241" y2="193.603" gradientTransform="matrix(0.75 0 0 -0.75 -50.6027 696.9738)">
		<stop  offset="0" style="stop-color:#446991"/>
		<stop  offset="0.15" style="stop-color:#7299C8"/>
		<stop  offset="0.25" style="stop-color:#BECCE1"/>
		<stop  offset="0.52" style="stop-color:#527CAB"/>
		<stop  offset="0.69" style="stop-color:#486E98"/>
		<stop  offset="0.8" style="stop-color:#44688F"/>
		<stop  offset="0.92" style="stop-color:#3F6287"/>
		<stop  offset="1" style="stop-color:#4A719C"/>
	</linearGradient>
	<path fill="url(#SVGID_22_)" d="M106.316,545.996h354c3,0,5.547,2.434,5.547,5.438c-0.297,3.563-2.441,6.117-5.457,6.117
		l-354.089-0.305c-3,0-5.25-2.133-5.25-5.133c0-3.867,2.441-6.117,5.453-6.117H106.316z"/>
	
		<linearGradient id="SVGID_23_" gradientUnits="userSpaceOnUse" x1="762.3579" y1="192.3032" x2="202.2236" y2="192.3032" gradientTransform="matrix(0.75 0 0 -0.75 -78.254 529.9064)">
		<stop  offset="0" style="stop-color:#8F9194"/>
		<stop  offset="0.15" style="stop-color:#C6C9CC"/>
		<stop  offset="0.25" style="stop-color:#E0E2E3"/>
		<stop  offset="0.52" style="stop-color:#A9ACAF"/>
		<stop  offset="0.69" style="stop-color:#97999B"/>
		<stop  offset="0.8" style="stop-color:#8E9092"/>
		<stop  offset="0.92" style="stop-color:#86888A"/>
		<stop  offset="1" style="stop-color:#9A9D9F"/>
	</linearGradient>
	<path fill="url(#SVGID_23_)" d="M79.414,378.929h408c3,0,6.102,2.801,6.102,6.262l-0.102,0.488c0,3.75-2.711,6.555-6.184,6.555
		l-407.816,0.195c-3,0-6-3-6-6.457v-1.043c0-3,2.813-6,6.281-6H79.414z"/>
	
		<linearGradient id="SVGID_24_" gradientUnits="userSpaceOnUse" x1="688.6196" y1="193.603" x2="202.2236" y2="193.603" gradientTransform="matrix(0.75 0 0 -0.75 -50.6022 568.0919)">
		<stop  offset="0" style="stop-color:#446991"/>
		<stop  offset="0.15" style="stop-color:#7299C8"/>
		<stop  offset="0.25" style="stop-color:#BECCE1"/>
		<stop  offset="0.52" style="stop-color:#527CAB"/>
		<stop  offset="0.69" style="stop-color:#486E98"/>
		<stop  offset="0.8" style="stop-color:#44688F"/>
		<stop  offset="0.92" style="stop-color:#3F6287"/>
		<stop  offset="1" style="stop-color:#4A719C"/>
	</linearGradient>
	<path fill="url(#SVGID_24_)" d="M106.316,417.113h354c3,0,5.547,2.434,5.547,5.438c-0.297,3.563-2.441,6.117-5.457,6.117
		l-354.089-0.305c-3,0-5.25-2.129-5.25-5.133c0-3.867,2.441-6.117,5.457-6.117H106.316z"/>
	
		<linearGradient id="SVGID_25_" gradientUnits="userSpaceOnUse" x1="347.8589" y1="306.4702" x2="505.3539" y2="33.6807" gradientTransform="matrix(-0.75 0 0 -0.75 611.5099 191.9913)">
		<stop  offset="0" style="stop-color:#9C9EA1"/>
		<stop  offset="0.15" style="stop-color:#D6D9DC"/>
		<stop  offset="0.25" style="stop-color:#E8EAEC"/>
		<stop  offset="0.52" style="stop-color:#B8BBBF"/>
		<stop  offset="0.69" style="stop-color:#A4A6AA"/>
		<stop  offset="0.8" style="stop-color:#9B9DA0"/>
		<stop  offset="0.92" style="stop-color:#929497"/>
		<stop  offset="1" style="stop-color:#A8AAAE"/>
	</linearGradient>
	<path fill="url(#SVGID_25_)" d="M303.48,41.012h-39.906c-94.344,9-183.879,37.387-183.879,37.387l407.535,0.113
		c0,0-89.422-28.613-183.875-37.5H303.48z"/>
	
		<linearGradient id="SVGID_26_" gradientUnits="userSpaceOnUse" x1="291.2222" y1="189.874" x2="202.2222" y2="189.874" gradientTransform="matrix(0.75 0 0 -0.75 98.4379 160.3751)">
		<stop  offset="0" style="stop-color:#9C9EA1"/>
		<stop  offset="0.15" style="stop-color:#D6D9DC"/>
		<stop  offset="0.25" style="stop-color:#E8EAEC"/>
		<stop  offset="0.52" style="stop-color:#B8BBBF"/>
		<stop  offset="0.69" style="stop-color:#A4A6AA"/>
		<stop  offset="0.8" style="stop-color:#9B9DA0"/>
		<stop  offset="0.92" style="stop-color:#929497"/>
		<stop  offset="1" style="stop-color:#A8AAAE"/>
	</linearGradient>
	<path fill="url(#SVGID_26_)" d="M256.855,9.398h52.5c4.5,0,7.469,3.086,7.469,7.023l0.031,2.727c0,3.75-3.258,7.254-7.207,7.254
		l-52.792,0.246c-3.75,0-6.75-3.438-6.75-7.375v-3.125c0-3.75,3.145-6.855,7.094-6.855L256.855,9.398z"/>
	
		<linearGradient id="SVGID_27_" gradientUnits="userSpaceOnUse" x1="299.2251" y1="168.8584" x2="202.2251" y2="168.8584" gradientTransform="matrix(0.75 0 0 -0.75 -144.4586 321.4083)">
		<stop  offset="0" style="stop-color:#9C9EA1"/>
		<stop  offset="0.63" style="stop-color:#D6D9DC"/>
		<stop  offset="0.71" style="stop-color:#E8EAEC"/>
		<stop  offset="0.8" style="stop-color:#B8BBBF"/>
		<stop  offset="0.86" style="stop-color:#A4A6AA"/>
		<stop  offset="0.89" style="stop-color:#9B9DA0"/>
		<stop  offset="0.95" style="stop-color:#929497"/>
		<stop  offset="1" style="stop-color:#A8AAAE"/>
	</linearGradient>
	<path fill="url(#SVGID_27_)" d="M11.711,170.43h68.25v27.75l-41.25-0.75v21.75h-31.5v-45c0-2.25,1.824-3.828,4.137-3.828
		L11.711,170.43z"/>
	
		<linearGradient id="SVGID_28_" gradientUnits="userSpaceOnUse" x1="165.7046" y1="195.7383" x2="221.5884" y2="195.7383" gradientTransform="matrix(-0.75 0 0 -0.75 168.0978 367.7384)">
		<stop  offset="0" style="stop-color:#9C9EA1"/>
		<stop  offset="0.15" style="stop-color:#D6D9DC"/>
		<stop  offset="0.25" style="stop-color:#E8EAEC"/>
		<stop  offset="0.52" style="stop-color:#B8BBBF"/>
		<stop  offset="0.69" style="stop-color:#A4A6AA"/>
		<stop  offset="0.8" style="stop-color:#9B9DA0"/>
		<stop  offset="0.92" style="stop-color:#929497"/>
		<stop  offset="1" style="stop-color:#A8AAAE"/>
	</linearGradient>
	<path fill="url(#SVGID_28_)" d="M39.32,216.762h-33c-2.25,0-4.41,1.867-4.41,4.172c-0.09,2.578,1.906,4.176,4.219,4.176
		l33.191-0.098c3,0,4.5-1.773,4.5-4.078c0-2.672-1.875-4.172-4.188-4.172H39.32z"/>
	
		<linearGradient id="SVGID_29_" gradientUnits="userSpaceOnUse" x1="193.7012" y1="201.3008" x2="193.7012" y2="164.3008" gradientTransform="matrix(-0.75 0 0 -0.75 204.1935 321.3312)">
		<stop  offset="0" style="stop-color:#A7A9AB"/>
		<stop  offset="0.15" style="stop-color:#E4E6E9"/>
		<stop  offset="0.25" style="stop-color:#F0F1F2"/>
		<stop  offset="0.52" style="stop-color:#C6C7CA"/>
		<stop  offset="0.69" style="stop-color:#B0B1B4"/>
		<stop  offset="0.8" style="stop-color:#A6A7AA"/>
		<stop  offset="0.92" style="stop-color:#9C9EA0"/>
		<stop  offset="1" style="stop-color:#B4B6B8"/>
	</linearGradient>
	<path fill="url(#SVGID_29_)" d="M79.918,170.355h-42v27.75h42V170.355z"/>
	
		<linearGradient id="SVGID_30_" gradientUnits="userSpaceOnUse" x1="299.2271" y1="168.8574" x2="202.2271" y2="168.8574" gradientTransform="matrix(0.75 0 0 -0.75 -144.526 473.2579)">
		<stop  offset="0" style="stop-color:#9C9EA1"/>
		<stop  offset="0.63" style="stop-color:#D6D9DC"/>
		<stop  offset="0.71" style="stop-color:#E8EAEC"/>
		<stop  offset="0.8" style="stop-color:#B8BBBF"/>
		<stop  offset="0.86" style="stop-color:#A4A6AA"/>
		<stop  offset="0.89" style="stop-color:#9B9DA0"/>
		<stop  offset="0.95" style="stop-color:#929497"/>
		<stop  offset="1" style="stop-color:#A8AAAE"/>
	</linearGradient>
	<path fill="url(#SVGID_30_)" d="M11.645,322.281h68.25v27.75l-41.25-0.75v21.75h-31.5v-45c0-2.25,1.824-3.832,4.137-3.832
		L11.645,322.281z"/>
	
		<linearGradient id="SVGID_31_" gradientUnits="userSpaceOnUse" x1="165.7026" y1="195.7383" x2="221.5874" y2="195.7383" gradientTransform="matrix(-0.75 0 0 -0.75 168.0314 519.5861)">
		<stop  offset="0" style="stop-color:#9C9EA1"/>
		<stop  offset="0.15" style="stop-color:#D6D9DC"/>
		<stop  offset="0.25" style="stop-color:#E8EAEC"/>
		<stop  offset="0.52" style="stop-color:#B8BBBF"/>
		<stop  offset="0.69" style="stop-color:#A4A6AA"/>
		<stop  offset="0.8" style="stop-color:#9B9DA0"/>
		<stop  offset="0.92" style="stop-color:#929497"/>
		<stop  offset="1" style="stop-color:#A8AAAE"/>
	</linearGradient>
	<path fill="url(#SVGID_31_)" d="M39.254,368.609h-33c-2.25,0-4.41,1.867-4.41,4.172c-0.09,2.578,1.906,4.176,4.219,4.176
		l33.191-0.098c3,0,4.5-1.773,4.5-4.078c0-2.672-1.875-4.172-4.188-4.172H39.254z"/>
	
		<linearGradient id="SVGID_32_" gradientUnits="userSpaceOnUse" x1="193.707" y1="201.3027" x2="193.707" y2="164.3027" gradientTransform="matrix(-0.75 0 0 -0.75 204.1271 473.1798)">
		<stop  offset="0" style="stop-color:#A7A9AB"/>
		<stop  offset="0.15" style="stop-color:#E4E6E9"/>
		<stop  offset="0.25" style="stop-color:#F0F1F2"/>
		<stop  offset="0.52" style="stop-color:#C6C7CA"/>
		<stop  offset="0.69" style="stop-color:#B0B1B4"/>
		<stop  offset="0.8" style="stop-color:#A6A7AA"/>
		<stop  offset="0.92" style="stop-color:#9C9EA0"/>
		<stop  offset="1" style="stop-color:#B4B6B8"/>
	</linearGradient>
	<path fill="url(#SVGID_32_)" d="M79.848,322.203h-42v27.75h42V322.203z"/>
	
		<linearGradient id="SVGID_33_" gradientUnits="userSpaceOnUse" x1="262.7021" y1="168.8589" x2="165.7021" y2="168.8589" gradientTransform="matrix(-0.75 0 0 -0.75 683.7179 402.4611)">
		<stop  offset="0" style="stop-color:#9C9EA1"/>
		<stop  offset="0.63" style="stop-color:#D6D9DC"/>
		<stop  offset="0.71" style="stop-color:#E8EAEC"/>
		<stop  offset="0.8" style="stop-color:#B8BBBF"/>
		<stop  offset="0.86" style="stop-color:#A4A6AA"/>
		<stop  offset="0.89" style="stop-color:#9B9DA0"/>
		<stop  offset="0.95" style="stop-color:#929497"/>
		<stop  offset="1" style="stop-color:#A8AAAE"/>
	</linearGradient>
	<path fill="url(#SVGID_33_)" d="M554.941,251.484h-68.25v27.75l41.25-0.75v21.75h31.5v-45c0-2.25-1.824-3.832-4.141-3.832
		L554.941,251.484z"/>
	
		<linearGradient id="SVGID_34_" gradientUnits="userSpaceOnUse" x1="202.2222" y1="195.7373" x2="258.1113" y2="195.7373" gradientTransform="matrix(0.75 0 0 -0.75 371.161 448.7892)">
		<stop  offset="0" style="stop-color:#9C9EA1"/>
		<stop  offset="0.15" style="stop-color:#D6D9DC"/>
		<stop  offset="0.25" style="stop-color:#E8EAEC"/>
		<stop  offset="0.52" style="stop-color:#B8BBBF"/>
		<stop  offset="0.69" style="stop-color:#A4A6AA"/>
		<stop  offset="0.8" style="stop-color:#9B9DA0"/>
		<stop  offset="0.92" style="stop-color:#929497"/>
		<stop  offset="1" style="stop-color:#A8AAAE"/>
	</linearGradient>
	<path fill="url(#SVGID_34_)" d="M527.328,297.812h33c2.25,0,4.414,1.867,4.414,4.172c0.086,2.578-1.906,4.176-4.223,4.176
		l-33.191-0.098c-3,0-4.5-1.773-4.5-4.078c0-2.672,1.875-4.172,4.188-4.172H527.328z"/>
	
		<linearGradient id="SVGID_35_" gradientUnits="userSpaceOnUse" x1="230.2261" y1="201.3027" x2="230.2261" y2="164.3027" gradientTransform="matrix(0.75 0 0 -0.75 335.0643 402.3829)">
		<stop  offset="0" style="stop-color:#A7A9AB"/>
		<stop  offset="0.15" style="stop-color:#E4E6E9"/>
		<stop  offset="0.25" style="stop-color:#F0F1F2"/>
		<stop  offset="0.52" style="stop-color:#C6C7CA"/>
		<stop  offset="0.69" style="stop-color:#B0B1B4"/>
		<stop  offset="0.8" style="stop-color:#A6A7AA"/>
		<stop  offset="0.92" style="stop-color:#9C9EA0"/>
		<stop  offset="1" style="stop-color:#B4B6B8"/>
	</linearGradient>
	<path fill="url(#SVGID_35_)" d="M486.734,251.406h42v27.75h-42V251.406z"/>
	
		<linearGradient id="SVGID_36_" gradientUnits="userSpaceOnUse" x1="218.1694" y1="188.855" x2="200.8202" y2="198.8716" gradientTransform="matrix(0.75 0 0 -0.75 112.0175 230.5724)">
		<stop  offset="0" style="stop-color:#AAACAD"/>
		<stop  offset="0.15" style="stop-color:#E8E9EB"/>
		<stop  offset="0.25" style="stop-color:#F2F3F4"/>
		<stop  offset="0.52" style="stop-color:#C9CBCD"/>
		<stop  offset="0.69" style="stop-color:#B3B5B6"/>
		<stop  offset="0.8" style="stop-color:#A9AAAC"/>
		<stop  offset="0.92" style="stop-color:#9FA1A2"/>
		<stop  offset="1" style="stop-color:#B7B9BA"/>
	</linearGradient>
	<path fill="url(#SVGID_36_)" stroke="#95979A" stroke-linejoin="bevel" stroke-miterlimit="10" d="M263.688,84.844
		c0-3,2.461-5.25,5.496-5.25c2.754,0,5.496,2.453,5.496,5.48c0.258,2.77-2.461,5.477-5.496,5.477
		c-3.246,0.293-5.496-2.453-5.496-5.477V84.844z"/>
	
		<linearGradient id="SVGID_37_" gradientUnits="userSpaceOnUse" x1="218.1685" y1="188.856" x2="200.8207" y2="198.8717" gradientTransform="matrix(0.75 0 0 -0.75 140.577 230.5724)">
		<stop  offset="0" style="stop-color:#AAACAD"/>
		<stop  offset="0.15" style="stop-color:#E8E9EB"/>
		<stop  offset="0.25" style="stop-color:#F2F3F4"/>
		<stop  offset="0.52" style="stop-color:#C9CBCD"/>
		<stop  offset="0.69" style="stop-color:#B3B5B6"/>
		<stop  offset="0.8" style="stop-color:#A9AAAC"/>
		<stop  offset="0.92" style="stop-color:#9FA1A2"/>
		<stop  offset="1" style="stop-color:#B7B9BA"/>
	</linearGradient>
	<path fill="url(#SVGID_37_)" stroke="#95979A" stroke-linejoin="bevel" stroke-miterlimit="10" d="M292.246,84.844
		c0-3,2.461-5.25,5.496-5.25c2.754,0,5.496,2.453,5.496,5.48c0.258,2.77-2.461,5.477-5.496,5.477
		c-3.246,0.293-5.496-2.453-5.496-5.477V84.844z"/>
	
		<linearGradient id="SVGID_38_" gradientUnits="userSpaceOnUse" x1="218.1694" y1="188.855" x2="200.8205" y2="198.8714" gradientTransform="matrix(0.75 0 0 -0.75 112.0175 305.6993)">
		<stop  offset="0" style="stop-color:#AAACAD"/>
		<stop  offset="0.15" style="stop-color:#E8E9EB"/>
		<stop  offset="0.25" style="stop-color:#F2F3F4"/>
		<stop  offset="0.52" style="stop-color:#C9CBCD"/>
		<stop  offset="0.69" style="stop-color:#B3B5B6"/>
		<stop  offset="0.8" style="stop-color:#A9AAAC"/>
		<stop  offset="0.92" style="stop-color:#9FA1A2"/>
		<stop  offset="1" style="stop-color:#B7B9BA"/>
	</linearGradient>
	<path fill="url(#SVGID_38_)" stroke="#95979A" stroke-linejoin="bevel" stroke-miterlimit="10" d="M263.688,159.973
		c0-3,2.461-5.25,5.496-5.25c2.754,0,5.496,2.453,5.496,5.477c0.258,2.773-2.461,5.477-5.496,5.477
		c-3.246,0.297-5.496-2.449-5.496-5.477V159.973z"/>
	
		<linearGradient id="SVGID_39_" gradientUnits="userSpaceOnUse" x1="218.1675" y1="188.854" x2="200.82" y2="198.8696" gradientTransform="matrix(0.75 0 0 -0.75 140.577 305.6993)">
		<stop  offset="0" style="stop-color:#AAACAD"/>
		<stop  offset="0.15" style="stop-color:#E8E9EB"/>
		<stop  offset="0.25" style="stop-color:#F2F3F4"/>
		<stop  offset="0.52" style="stop-color:#C9CBCD"/>
		<stop  offset="0.69" style="stop-color:#B3B5B6"/>
		<stop  offset="0.8" style="stop-color:#A9AAAC"/>
		<stop  offset="0.92" style="stop-color:#9FA1A2"/>
		<stop  offset="1" style="stop-color:#B7B9BA"/>
	</linearGradient>
	<path fill="url(#SVGID_39_)" stroke="#95979A" stroke-linejoin="bevel" stroke-miterlimit="10" d="M292.246,159.973
		c0-3,2.461-5.25,5.496-5.25c2.754,0,5.496,2.453,5.496,5.477c0.258,2.773-2.461,5.477-5.496,5.477
		c-3.246,0.297-5.496-2.449-5.496-5.477V159.973z"/>
	
		<linearGradient id="SVGID_40_" gradientUnits="userSpaceOnUse" x1="218.1704" y1="188.8564" x2="200.8218" y2="198.8727" gradientTransform="matrix(0.75 0 0 -0.75 112.0175 380.8263)">
		<stop  offset="0" style="stop-color:#AAACAD"/>
		<stop  offset="0.15" style="stop-color:#E8E9EB"/>
		<stop  offset="0.25" style="stop-color:#F2F3F4"/>
		<stop  offset="0.52" style="stop-color:#C9CBCD"/>
		<stop  offset="0.69" style="stop-color:#B3B5B6"/>
		<stop  offset="0.8" style="stop-color:#A9AAAC"/>
		<stop  offset="0.92" style="stop-color:#9FA1A2"/>
		<stop  offset="1" style="stop-color:#B7B9BA"/>
	</linearGradient>
	<path fill="url(#SVGID_40_)" stroke="#95979A" stroke-linejoin="bevel" stroke-miterlimit="10" d="M263.688,235.098
		c0-3,2.461-5.25,5.496-5.25c2.754,0,5.496,2.453,5.496,5.48c0.258,2.77-2.461,5.477-5.496,5.477
		c-3.246,0.293-5.496-2.453-5.496-5.477V235.098z"/>
	
		<linearGradient id="SVGID_41_" gradientUnits="userSpaceOnUse" x1="218.1685" y1="188.856" x2="200.821" y2="198.8715" gradientTransform="matrix(0.75 0 0 -0.75 140.577 380.8263)">
		<stop  offset="0" style="stop-color:#AAACAD"/>
		<stop  offset="0.15" style="stop-color:#E8E9EB"/>
		<stop  offset="0.25" style="stop-color:#F2F3F4"/>
		<stop  offset="0.52" style="stop-color:#C9CBCD"/>
		<stop  offset="0.69" style="stop-color:#B3B5B6"/>
		<stop  offset="0.8" style="stop-color:#A9AAAC"/>
		<stop  offset="0.92" style="stop-color:#9FA1A2"/>
		<stop  offset="1" style="stop-color:#B7B9BA"/>
	</linearGradient>
	<path fill="url(#SVGID_41_)" stroke="#95979A" stroke-linejoin="bevel" stroke-miterlimit="10" d="M292.246,235.098
		c0-3,2.461-5.25,5.496-5.25c2.754,0,5.496,2.453,5.496,5.48c0.258,2.77-2.461,5.477-5.496,5.477
		c-3.246,0.293-5.496-2.453-5.496-5.477V235.098z"/>
	
		<linearGradient id="SVGID_42_" gradientUnits="userSpaceOnUse" x1="218.1685" y1="188.856" x2="200.8204" y2="198.8719" gradientTransform="matrix(0.75 0 0 -0.75 112.0175 455.9532)">
		<stop  offset="0" style="stop-color:#AAACAD"/>
		<stop  offset="0.15" style="stop-color:#E8E9EB"/>
		<stop  offset="0.25" style="stop-color:#F2F3F4"/>
		<stop  offset="0.52" style="stop-color:#C9CBCD"/>
		<stop  offset="0.69" style="stop-color:#B3B5B6"/>
		<stop  offset="0.8" style="stop-color:#A9AAAC"/>
		<stop  offset="0.92" style="stop-color:#9FA1A2"/>
		<stop  offset="1" style="stop-color:#B7B9BA"/>
	</linearGradient>
	<path fill="url(#SVGID_42_)" stroke="#95979A" stroke-linejoin="bevel" stroke-miterlimit="10" d="M263.688,310.226
		c0-3,2.461-5.25,5.496-5.25c2.754,0,5.496,2.453,5.496,5.477c0.258,2.773-2.461,5.477-5.496,5.477
		c-3.246,0.297-5.496-2.449-5.496-5.477V310.226z"/>
	
		<linearGradient id="SVGID_43_" gradientUnits="userSpaceOnUse" x1="218.1675" y1="188.854" x2="200.82" y2="198.8696" gradientTransform="matrix(0.75 0 0 -0.75 140.577 455.9532)">
		<stop  offset="0" style="stop-color:#AAACAD"/>
		<stop  offset="0.15" style="stop-color:#E8E9EB"/>
		<stop  offset="0.25" style="stop-color:#F2F3F4"/>
		<stop  offset="0.52" style="stop-color:#C9CBCD"/>
		<stop  offset="0.69" style="stop-color:#B3B5B6"/>
		<stop  offset="0.8" style="stop-color:#A9AAAC"/>
		<stop  offset="0.92" style="stop-color:#9FA1A2"/>
		<stop  offset="1" style="stop-color:#B7B9BA"/>
	</linearGradient>
	<path fill="url(#SVGID_43_)" stroke="#95979A" stroke-linejoin="bevel" stroke-miterlimit="10" d="M292.246,310.226
		c0-3,2.461-5.25,5.496-5.25c2.754,0,5.496,2.453,5.496,5.477c0.258,2.773-2.461,5.477-5.496,5.477
		c-3.246,0.297-5.496-2.449-5.496-5.477V310.226z"/>
	
		<linearGradient id="SVGID_44_" gradientUnits="userSpaceOnUse" x1="218.1704" y1="188.8564" x2="200.8218" y2="198.8727" gradientTransform="matrix(0.75 0 0 -0.75 112.0175 531.0802)">
		<stop  offset="0" style="stop-color:#AAACAD"/>
		<stop  offset="0.15" style="stop-color:#E8E9EB"/>
		<stop  offset="0.25" style="stop-color:#F2F3F4"/>
		<stop  offset="0.52" style="stop-color:#C9CBCD"/>
		<stop  offset="0.69" style="stop-color:#B3B5B6"/>
		<stop  offset="0.8" style="stop-color:#A9AAAC"/>
		<stop  offset="0.92" style="stop-color:#9FA1A2"/>
		<stop  offset="1" style="stop-color:#B7B9BA"/>
	</linearGradient>
	<path fill="url(#SVGID_44_)" stroke="#95979A" stroke-linejoin="bevel" stroke-miterlimit="10" d="M263.688,385.351
		c0-3,2.461-5.25,5.496-5.25c2.754,0,5.496,2.453,5.496,5.48c0.258,2.77-2.461,5.477-5.496,5.477
		c-3.246,0.293-5.496-2.453-5.496-5.477V385.351z"/>
	
		<linearGradient id="SVGID_45_" gradientUnits="userSpaceOnUse" x1="218.1685" y1="188.856" x2="200.821" y2="198.8715" gradientTransform="matrix(0.75 0 0 -0.75 140.577 531.0802)">
		<stop  offset="0" style="stop-color:#AAACAD"/>
		<stop  offset="0.15" style="stop-color:#E8E9EB"/>
		<stop  offset="0.25" style="stop-color:#F2F3F4"/>
		<stop  offset="0.52" style="stop-color:#C9CBCD"/>
		<stop  offset="0.69" style="stop-color:#B3B5B6"/>
		<stop  offset="0.8" style="stop-color:#A9AAAC"/>
		<stop  offset="0.92" style="stop-color:#9FA1A2"/>
		<stop  offset="1" style="stop-color:#B7B9BA"/>
	</linearGradient>
	<path fill="url(#SVGID_45_)" stroke="#95979A" stroke-linejoin="bevel" stroke-miterlimit="10" d="M292.246,385.351
		c0-3,2.461-5.25,5.496-5.25c2.754,0,5.496,2.453,5.496,5.48c0.258,2.77-2.461,5.477-5.496,5.477
		c-3.246,0.293-5.496-2.453-5.496-5.477V385.351z"/>
</g>
</svg>
