<?xml version="1.0" encoding="utf-8"?>
<!-- Generator: Adobe Illustrator 16.0.0, SVG Export Plug-In . SVG Version: 6.00 Build 0)  -->
<!DOCTYPE svg PUBLIC "-//W3C//DTD SVG 1.1//EN" "http://www.w3.org/Graphics/SVG/1.1/DTD/svg11.dtd">
<svg preserveAspectRatio="none"   version="1.1" id="图层_1" xmlns="http://www.w3.org/2000/svg" xmlns:xlink="http://www.w3.org/1999/xlink" x="0px" y="0px"
	 width="298.576px" height="550.855px" viewBox="134.111 8.176 298.576 550.855"
	 enable-background="new 134.111 8.176 298.576 550.855" xml:space="preserve">
<g id="surface381">
	
		<linearGradient id="SVGID_1_" gradientUnits="userSpaceOnUse" x1="580.0903" y1="145.3052" x2="202.2261" y2="145.3051" gradientTransform="matrix(0.75 0 0 -0.75 -8.8888 166.4972)">
		<stop  offset="0" style="stop-color:#949990"/>
		<stop  offset="0.15" style="stop-color:#CDD2C7"/>
		<stop  offset="0.25" style="stop-color:#E3E6E1"/>
		<stop  offset="0.52" style="stop-color:#B0B5AA"/>
		<stop  offset="0.69" style="stop-color:#9CA197"/>
		<stop  offset="0.8" style="stop-color:#93988F"/>
		<stop  offset="0.92" style="stop-color:#8B8F86"/>
		<stop  offset="1" style="stop-color:#A0A59B"/>
	</linearGradient>
	<path fill="url(#SVGID_1_)" d="M142.781,99.52c0-36,63.57-84,141.699-84c78.051,0,141.699,47.809,141.699,83.797
		c0.102-0.547-283.398,0-283.398,0V99.52z"/>
	
		<linearGradient id="SVGID_2_" gradientUnits="userSpaceOnUse" x1="330.9976" y1="191.6401" x2="202.2231" y2="191.6401" gradientTransform="matrix(0.75 0 0 -0.75 84.5272 159.1554)">
		<stop  offset="0" style="stop-color:#949990"/>
		<stop  offset="0.15" style="stop-color:#CDD2C7"/>
		<stop  offset="0.25" style="stop-color:#E3E6E1"/>
		<stop  offset="0.52" style="stop-color:#B0B5AA"/>
		<stop  offset="0.69" style="stop-color:#9CA197"/>
		<stop  offset="0.8" style="stop-color:#93988F"/>
		<stop  offset="0.92" style="stop-color:#8B8F86"/>
		<stop  offset="1" style="stop-color:#A0A59B"/>
	</linearGradient>
	<path fill="url(#SVGID_2_)" d="M240.695,8.176h87.75c2.25,0,4.32,3.227,4.32,7.238c0.18,4.012-1.871,7.262-4.18,7.262l-87.89-0.25
		c-3,0-4.5-3-4.5-7.012c0-4.238,1.832-7.238,4.137-7.238H240.695z"/>
	
		<linearGradient id="SVGID_3_" gradientUnits="userSpaceOnUse" x1="579.2222" y1="24.8066" x2="202.2231" y2="24.8066" gradientTransform="matrix(0.75 0 0 -0.75 -8.691 248.5607)">
		<stop  offset="0" style="stop-color:#949990"/>
		<stop  offset="0.15" style="stop-color:#CDD2C7"/>
		<stop  offset="0.25" style="stop-color:#E3E6E1"/>
		<stop  offset="0.52" style="stop-color:#B0B5AA"/>
		<stop  offset="0.69" style="stop-color:#9CA197"/>
		<stop  offset="0.8" style="stop-color:#93988F"/>
		<stop  offset="0.92" style="stop-color:#8B8F86"/>
		<stop  offset="1" style="stop-color:#A0A59B"/>
	</linearGradient>
	<path fill="url(#SVGID_3_)" d="M142.977,97.582h282.75v264.75h-282.75V97.582z"/>
	
		<linearGradient id="SVGID_4_" gradientUnits="userSpaceOnUse" x1="588.0884" y1="539.5249" x2="209.7923" y2="401.8365" gradientTransform="matrix(0.75 0 0 0.75 -8.6901 48.5858)">
		<stop  offset="0" style="stop-color:#949990"/>
		<stop  offset="0.15" style="stop-color:#CDD2C7"/>
		<stop  offset="0.25" style="stop-color:#E3E6E1"/>
		<stop  offset="0.52" style="stop-color:#B0B5AA"/>
		<stop  offset="0.69" style="stop-color:#9CA197"/>
		<stop  offset="0.8" style="stop-color:#93988F"/>
		<stop  offset="0.92" style="stop-color:#8B8F86"/>
		<stop  offset="1" style="stop-color:#A0A59B"/>
	</linearGradient>
	<path fill="url(#SVGID_4_)" d="M424.98,365.554c-30.75,62.25-110.949,108-110.949,108h-59.3c0,0-88.734-54.164-111.75-107.719
		L424.98,365.554z"/>
	
		<linearGradient id="SVGID_5_" gradientUnits="userSpaceOnUse" x1="297.4458" y1="180.877" x2="202.1079" y2="180.8769" gradientTransform="matrix(0.75 0 0 -0.75 96.0472 620.1974)">
		<stop  offset="0" style="stop-color:#949990"/>
		<stop  offset="0.15" style="stop-color:#CDD2C7"/>
		<stop  offset="0.25" style="stop-color:#E3E6E1"/>
		<stop  offset="0.52" style="stop-color:#B0B5AA"/>
		<stop  offset="0.69" style="stop-color:#9CA197"/>
		<stop  offset="0.8" style="stop-color:#93988F"/>
		<stop  offset="0.92" style="stop-color:#8B8F86"/>
		<stop  offset="1" style="stop-color:#A0A59B"/>
	</linearGradient>
	<path fill="url(#SVGID_5_)" d="M247.715,469.218c0,0,8.145,1.445,8.145,10.742l0.105,20.008h57v-20.25c0,0-0.52-7.504,6.168-9.57
		c-0.168-0.18-42.695,4.648-71.503-1.035L247.715,469.218z"/>
	
		<linearGradient id="SVGID_6_" gradientUnits="userSpaceOnUse" x1="295.2241" y1="194.3066" x2="202.2251" y2="194.3066" gradientTransform="matrix(0.75 0 0 -0.75 97.3153 648.3341)">
		<stop  offset="0" style="stop-color:#888C85"/>
		<stop  offset="0.15" style="stop-color:#BEC3BA"/>
		<stop  offset="0.25" style="stop-color:#DCDEDA"/>
		<stop  offset="0.52" style="stop-color:#A2A69D"/>
		<stop  offset="0.69" style="stop-color:#8F938B"/>
		<stop  offset="0.8" style="stop-color:#878B83"/>
		<stop  offset="0.92" style="stop-color:#7F837C"/>
		<stop  offset="1" style="stop-color:#93978F"/>
	</linearGradient>
	<path fill="url(#SVGID_6_)" d="M251.984,497.355h63.75c1.5,0,3,2.328,3,5.227c0,3.023-1.352,5.246-3.016,5.246l-63.734,0.027
		c-1.5,0-3-2.375-3-5.273c0-2.977,1.32-5.227,2.988-5.227H251.984z"/>
	<path fill="#545750" d="M142.977,126.574h282.75v7.5h-282.75V126.574z"/>
	<path fill="#545750" d="M142.977,155.566h282.75v7.5h-282.75V155.566z"/>
	<path fill="#545750" d="M142.977,184.559h282.75v7.5h-282.75V184.559z"/>
	<path fill="#545750" d="M142.977,242.543h282.75v7.5h-282.75V242.543z"/>
	<path fill="#545750" d="M142.977,213.551h282.75v7.5h-282.75V213.551z"/>
	<path fill="#545750" d="M142.977,271.535h282.75v7.5h-282.75V271.535z"/>
	<path fill="#545750" d="M142.977,300.527h282.75v7.5h-282.75V300.527z"/>
	<path fill="#545750" d="M142.977,329.519h282.75v7.5h-282.75V329.519z"/>
	<path fill="#545750" d="M142.977,358.511h282.75v7.5h-282.75V358.511z"/>
	
		<linearGradient id="SVGID_7_" gradientUnits="userSpaceOnUse" x1="579.2212" y1="197.3042" x2="202.2222" y2="197.3042" gradientTransform="matrix(0.75 0 0 -0.75 -8.6906 277.5519)">
		<stop  offset="0" style="stop-color:#949990"/>
		<stop  offset="0.15" style="stop-color:#CDD2C7"/>
		<stop  offset="0.25" style="stop-color:#E3E6E1"/>
		<stop  offset="0.52" style="stop-color:#B0B5AA"/>
		<stop  offset="0.69" style="stop-color:#9CA197"/>
		<stop  offset="0.8" style="stop-color:#93988F"/>
		<stop  offset="0.92" style="stop-color:#8B8F86"/>
		<stop  offset="1" style="stop-color:#A0A59B"/>
	</linearGradient>
	<path fill="url(#SVGID_7_)" d="M142.977,126.574h282.75v6h-282.75V126.574z"/>
	
		<linearGradient id="SVGID_8_" gradientUnits="userSpaceOnUse" x1="579.2212" y1="197.3062" x2="202.2222" y2="197.3061" gradientTransform="matrix(0.75 0 0 -0.75 -8.6906 306.545)">
		<stop  offset="0" style="stop-color:#949990"/>
		<stop  offset="0.15" style="stop-color:#CDD2C7"/>
		<stop  offset="0.25" style="stop-color:#E3E6E1"/>
		<stop  offset="0.52" style="stop-color:#B0B5AA"/>
		<stop  offset="0.69" style="stop-color:#9CA197"/>
		<stop  offset="0.8" style="stop-color:#93988F"/>
		<stop  offset="0.92" style="stop-color:#8B8F86"/>
		<stop  offset="1" style="stop-color:#A0A59B"/>
	</linearGradient>
	<path fill="url(#SVGID_8_)" d="M142.977,155.566h282.75v6h-282.75V155.566z"/>
	
		<linearGradient id="SVGID_9_" gradientUnits="userSpaceOnUse" x1="579.2212" y1="197.3042" x2="202.2222" y2="197.3042" gradientTransform="matrix(0.75 0 0 -0.75 -8.6906 335.5363)">
		<stop  offset="0" style="stop-color:#949990"/>
		<stop  offset="0.15" style="stop-color:#CDD2C7"/>
		<stop  offset="0.25" style="stop-color:#E3E6E1"/>
		<stop  offset="0.52" style="stop-color:#B0B5AA"/>
		<stop  offset="0.69" style="stop-color:#9CA197"/>
		<stop  offset="0.8" style="stop-color:#93988F"/>
		<stop  offset="0.92" style="stop-color:#8B8F86"/>
		<stop  offset="1" style="stop-color:#A0A59B"/>
	</linearGradient>
	<path fill="url(#SVGID_9_)" d="M142.977,184.559h282.75v6h-282.75V184.559z"/>
	
		<linearGradient id="SVGID_10_" gradientUnits="userSpaceOnUse" x1="579.2212" y1="197.3042" x2="202.2222" y2="197.3042" gradientTransform="matrix(0.75 0 0 -0.75 -8.6906 393.5206)">
		<stop  offset="0" style="stop-color:#949990"/>
		<stop  offset="0.15" style="stop-color:#CDD2C7"/>
		<stop  offset="0.25" style="stop-color:#E3E6E1"/>
		<stop  offset="0.52" style="stop-color:#B0B5AA"/>
		<stop  offset="0.69" style="stop-color:#9CA197"/>
		<stop  offset="0.8" style="stop-color:#93988F"/>
		<stop  offset="0.92" style="stop-color:#8B8F86"/>
		<stop  offset="1" style="stop-color:#A0A59B"/>
	</linearGradient>
	<path fill="url(#SVGID_10_)" d="M142.977,242.543h282.75v6h-282.75V242.543z"/>
	
		<linearGradient id="SVGID_11_" gradientUnits="userSpaceOnUse" x1="579.2212" y1="197.3042" x2="202.2222" y2="197.3042" gradientTransform="matrix(0.75 0 0 -0.75 -8.6906 364.5284)">
		<stop  offset="0" style="stop-color:#949990"/>
		<stop  offset="0.15" style="stop-color:#CDD2C7"/>
		<stop  offset="0.25" style="stop-color:#E3E6E1"/>
		<stop  offset="0.52" style="stop-color:#B0B5AA"/>
		<stop  offset="0.69" style="stop-color:#9CA197"/>
		<stop  offset="0.8" style="stop-color:#93988F"/>
		<stop  offset="0.92" style="stop-color:#8B8F86"/>
		<stop  offset="1" style="stop-color:#A0A59B"/>
	</linearGradient>
	<path fill="url(#SVGID_11_)" d="M142.977,213.551h282.75v6h-282.75V213.551z"/>
	
		<linearGradient id="SVGID_12_" gradientUnits="userSpaceOnUse" x1="579.2212" y1="197.3042" x2="202.2222" y2="197.3042" gradientTransform="matrix(0.75 0 0 -0.75 -8.6906 422.5128)">
		<stop  offset="0" style="stop-color:#949990"/>
		<stop  offset="0.15" style="stop-color:#CDD2C7"/>
		<stop  offset="0.25" style="stop-color:#E3E6E1"/>
		<stop  offset="0.52" style="stop-color:#B0B5AA"/>
		<stop  offset="0.69" style="stop-color:#9CA197"/>
		<stop  offset="0.8" style="stop-color:#93988F"/>
		<stop  offset="0.92" style="stop-color:#8B8F86"/>
		<stop  offset="1" style="stop-color:#A0A59B"/>
	</linearGradient>
	<path fill="url(#SVGID_12_)" d="M142.977,271.535h282.75v6h-282.75V271.535z"/>
	
		<linearGradient id="SVGID_13_" gradientUnits="userSpaceOnUse" x1="579.2212" y1="197.3052" x2="202.2222" y2="197.3051" gradientTransform="matrix(0.75 0 0 -0.75 -8.6906 451.505)">
		<stop  offset="0" style="stop-color:#949990"/>
		<stop  offset="0.15" style="stop-color:#CDD2C7"/>
		<stop  offset="0.25" style="stop-color:#E3E6E1"/>
		<stop  offset="0.52" style="stop-color:#B0B5AA"/>
		<stop  offset="0.69" style="stop-color:#9CA197"/>
		<stop  offset="0.8" style="stop-color:#93988F"/>
		<stop  offset="0.92" style="stop-color:#8B8F86"/>
		<stop  offset="1" style="stop-color:#A0A59B"/>
	</linearGradient>
	<path fill="url(#SVGID_13_)" d="M142.977,300.527h282.75v6h-282.75V300.527z"/>
	
		<linearGradient id="SVGID_14_" gradientUnits="userSpaceOnUse" x1="579.2212" y1="197.3052" x2="202.2222" y2="197.3051" gradientTransform="matrix(0.75 0 0 -0.75 -8.6906 480.4972)">
		<stop  offset="0" style="stop-color:#949990"/>
		<stop  offset="0.15" style="stop-color:#CDD2C7"/>
		<stop  offset="0.25" style="stop-color:#E3E6E1"/>
		<stop  offset="0.52" style="stop-color:#B0B5AA"/>
		<stop  offset="0.69" style="stop-color:#9CA197"/>
		<stop  offset="0.8" style="stop-color:#93988F"/>
		<stop  offset="0.92" style="stop-color:#8B8F86"/>
		<stop  offset="1" style="stop-color:#A0A59B"/>
	</linearGradient>
	<path fill="url(#SVGID_14_)" d="M142.977,329.519h282.75v6h-282.75V329.519z"/>
	
		<linearGradient id="SVGID_15_" gradientUnits="userSpaceOnUse" x1="579.2212" y1="197.3052" x2="202.2222" y2="197.3051" gradientTransform="matrix(0.75 0 0 -0.75 -8.6906 509.4894)">
		<stop  offset="0" style="stop-color:#949990"/>
		<stop  offset="0.15" style="stop-color:#CDD2C7"/>
		<stop  offset="0.25" style="stop-color:#E3E6E1"/>
		<stop  offset="0.52" style="stop-color:#B0B5AA"/>
		<stop  offset="0.69" style="stop-color:#9CA197"/>
		<stop  offset="0.8" style="stop-color:#93988F"/>
		<stop  offset="0.92" style="stop-color:#8B8F86"/>
		<stop  offset="1" style="stop-color:#A0A59B"/>
	</linearGradient>
	<path fill="url(#SVGID_15_)" d="M142.977,358.511h282.75v6h-282.75V358.511z"/>
	
		<linearGradient id="SVGID_16_" gradientUnits="userSpaceOnUse" x1="577.2241" y1="195.8052" x2="202.2241" y2="195.8051" gradientTransform="matrix(0.75 0 0 -0.75 -8.0753 242.9191)">
		<stop  offset="0" style="stop-color:#545750"/>
		<stop  offset="0.15" style="stop-color:#82867E"/>
		<stop  offset="0.25" style="stop-color:#C3C4C2"/>
		<stop  offset="0.52" style="stop-color:#656860"/>
		<stop  offset="0.69" style="stop-color:#595C55"/>
		<stop  offset="0.8" style="stop-color:#535650"/>
		<stop  offset="0.92" style="stop-color:#4E514B"/>
		<stop  offset="1" style="stop-color:#5B5E57"/>
	</linearGradient>
	<path fill="url(#SVGID_16_)" d="M143.594,91.941h281.25v8.25h-281.25V91.941z"/>
	
		<linearGradient id="SVGID_17_" gradientUnits="userSpaceOnUse" x1="579.2222" y1="197.3052" x2="202.2231" y2="197.3051" gradientTransform="matrix(0.75 0 0 -0.75 -8.0817 242.92)">
		<stop  offset="0" style="stop-color:#949990"/>
		<stop  offset="0.15" style="stop-color:#CDD2C7"/>
		<stop  offset="0.25" style="stop-color:#E3E6E1"/>
		<stop  offset="0.52" style="stop-color:#B0B5AA"/>
		<stop  offset="0.69" style="stop-color:#9CA197"/>
		<stop  offset="0.8" style="stop-color:#93988F"/>
		<stop  offset="0.92" style="stop-color:#8B8F86"/>
		<stop  offset="1" style="stop-color:#A0A59B"/>
	</linearGradient>
	<path fill="url(#SVGID_17_)" d="M143.586,91.941h282.75v6h-282.75V91.941z"/>
	
		<linearGradient id="SVGID_18_" gradientUnits="userSpaceOnUse" x1="84.7183" y1="151.3032" x2="67.7148" y2="151.3032" gradientTransform="matrix(0.5303 -0.5303 -0.5303 -0.5303 419.0567 566.778)">
		<stop  offset="0" style="stop-color:#949990"/>
		<stop  offset="0.15" style="stop-color:#CDD2C7"/>
		<stop  offset="0.25" style="stop-color:#E3E6E1"/>
		<stop  offset="0.52" style="stop-color:#B0B5AA"/>
		<stop  offset="0.69" style="stop-color:#9CA197"/>
		<stop  offset="0.8" style="stop-color:#93988F"/>
		<stop  offset="0.92" style="stop-color:#8B8F86"/>
		<stop  offset="1" style="stop-color:#A0A59B"/>
	</linearGradient>
	<path fill="url(#SVGID_18_)" d="M330.929,398.339l0.531-0.531c2.121-2.121,4.879-3.262,5.883-2.258l92.758,92.414
		c1.059,1.063-0.313,3.688-2.566,5.941l-0.617,0.426c-2.652,2.648-4.965,3.516-5.969,2.512l-92.672-92.668
		c-0.531-0.531,0.238-3.422,2.492-5.676L330.929,398.339z"/>
	
		<linearGradient id="SVGID_19_" gradientUnits="userSpaceOnUse" x1="58.8916" y1="177.125" x2="41.8916" y2="177.125" gradientTransform="matrix(-0.5303 -0.5303 0.5303 -0.5303 118.1283 566.7722)">
		<stop  offset="0" style="stop-color:#949990"/>
		<stop  offset="0.15" style="stop-color:#CDD2C7"/>
		<stop  offset="0.25" style="stop-color:#E3E6E1"/>
		<stop  offset="0.52" style="stop-color:#B0B5AA"/>
		<stop  offset="0.69" style="stop-color:#9CA197"/>
		<stop  offset="0.8" style="stop-color:#93988F"/>
		<stop  offset="0.92" style="stop-color:#8B8F86"/>
		<stop  offset="1" style="stop-color:#A0A59B"/>
	</linearGradient>
	<path fill="url(#SVGID_19_)" d="M233.648,398.335l-0.531-0.531c-2.121-2.121-4.879-3.266-5.887-2.262l-92.754,92.418
		c-1.063,1.063,0.309,3.684,2.563,5.941l0.617,0.422c2.652,2.652,4.969,3.52,5.973,2.516l92.672-92.672
		c0.527-0.531-0.238-3.418-2.492-5.672L233.648,398.335z"/>
	
		<linearGradient id="SVGID_20_" gradientUnits="userSpaceOnUse" x1="18.3066" y1="301.7056" x2="1.3066" y2="301.7056" gradientTransform="matrix(0 -0.75 -0.75 0 509.798 409.4005)">
		<stop  offset="0" style="stop-color:#949990"/>
		<stop  offset="0.15" style="stop-color:#CDD2C7"/>
		<stop  offset="0.25" style="stop-color:#E3E6E1"/>
		<stop  offset="0.52" style="stop-color:#B0B5AA"/>
		<stop  offset="0.69" style="stop-color:#9CA197"/>
		<stop  offset="0.8" style="stop-color:#93988F"/>
		<stop  offset="0.92" style="stop-color:#8B8F86"/>
		<stop  offset="1" style="stop-color:#A0A59B"/>
	</linearGradient>
	<path fill="url(#SVGID_20_)" d="M235.52,402.421v-0.75c0-3,0.809-5.785,1.809-5.785l91.941-0.215c1.5,0,2.141,2.805,2.141,6
		l0.109,0.75c0,3.75-0.93,6-1.934,6H237.02c-0.75,0-1.5-2.59-1.5-5.785V402.421z"/>
	
		<linearGradient id="SVGID_21_" gradientUnits="userSpaceOnUse" x1="18.3027" y1="301.7036" x2="1.3027" y2="301.7036" gradientTransform="matrix(0 -0.75 -0.75 0 510.5392 480.7413)">
		<stop  offset="0" style="stop-color:#949990"/>
		<stop  offset="0.15" style="stop-color:#CDD2C7"/>
		<stop  offset="0.25" style="stop-color:#E3E6E1"/>
		<stop  offset="0.52" style="stop-color:#B0B5AA"/>
		<stop  offset="0.69" style="stop-color:#9CA197"/>
		<stop  offset="0.8" style="stop-color:#93988F"/>
		<stop  offset="0.92" style="stop-color:#8B8F86"/>
		<stop  offset="1" style="stop-color:#A0A59B"/>
	</linearGradient>
	<path fill="url(#SVGID_21_)" d="M236.262,473.765v-0.75c0-3,0.805-5.789,1.809-5.789l91.941-0.211c1.5,0,2.137,2.805,2.137,6
		l0.113,0.75c0,3.75-0.93,6-1.934,6h-92.566c-0.75,0-1.5-2.594-1.5-5.789V473.765z"/>
	
		<linearGradient id="SVGID_22_" gradientUnits="userSpaceOnUse" x1="18.3027" y1="301.7026" x2="1.3027" y2="301.7026" gradientTransform="matrix(0 -0.75 -0.75 0 511.1398 550.3663)">
		<stop  offset="0" style="stop-color:#949990"/>
		<stop  offset="0.15" style="stop-color:#CDD2C7"/>
		<stop  offset="0.25" style="stop-color:#E3E6E1"/>
		<stop  offset="0.52" style="stop-color:#B0B5AA"/>
		<stop  offset="0.69" style="stop-color:#9CA197"/>
		<stop  offset="0.8" style="stop-color:#93988F"/>
		<stop  offset="0.92" style="stop-color:#8B8F86"/>
		<stop  offset="1" style="stop-color:#A0A59B"/>
	</linearGradient>
	<path fill="url(#SVGID_22_)" d="M236.863,543.39v-0.75c0-3,0.805-5.789,1.809-5.789l91.941-0.211c1.5,0,2.137,2.805,2.137,6
		l0.113,0.75c0,3.75-0.934,6-1.934,6h-92.566c-0.75,0-1.5-2.594-1.5-5.789V543.39z"/>
	
		<linearGradient id="SVGID_23_" gradientUnits="userSpaceOnUse" x1="18.3027" y1="301.7026" x2="1.3027" y2="301.7026" gradientTransform="matrix(0 -0.75 -0.75 0 411.7804 550.3556)">
		<stop  offset="0" style="stop-color:#949990"/>
		<stop  offset="0.15" style="stop-color:#CDD2C7"/>
		<stop  offset="0.25" style="stop-color:#E3E6E1"/>
		<stop  offset="0.52" style="stop-color:#B0B5AA"/>
		<stop  offset="0.69" style="stop-color:#9CA197"/>
		<stop  offset="0.8" style="stop-color:#93988F"/>
		<stop  offset="0.92" style="stop-color:#8B8F86"/>
		<stop  offset="1" style="stop-color:#A0A59B"/>
	</linearGradient>
	<path fill="url(#SVGID_23_)" d="M137.504,543.378v-0.75c0-3,0.805-5.785,1.809-5.785l91.941-0.215c1.5,0,2.137,2.805,2.137,6
		l0.113,0.75c0,3.75-0.934,6-1.934,6h-92.566c-0.75,0-1.5-2.59-1.5-5.785V543.378z"/>
	
		<linearGradient id="SVGID_24_" gradientUnits="userSpaceOnUse" x1="18.3027" y1="301.7046" x2="1.3027" y2="301.7046" gradientTransform="matrix(0 -0.75 -0.75 0 609.9376 550.3556)">
		<stop  offset="0" style="stop-color:#949990"/>
		<stop  offset="0.15" style="stop-color:#CDD2C7"/>
		<stop  offset="0.25" style="stop-color:#E3E6E1"/>
		<stop  offset="0.52" style="stop-color:#B0B5AA"/>
		<stop  offset="0.69" style="stop-color:#9CA197"/>
		<stop  offset="0.8" style="stop-color:#93988F"/>
		<stop  offset="0.92" style="stop-color:#8B8F86"/>
		<stop  offset="1" style="stop-color:#A0A59B"/>
	</linearGradient>
	<path fill="url(#SVGID_24_)" d="M335.66,543.378v-0.75c0-3,0.805-5.785,1.809-5.785l91.941-0.215c1.5,0,2.137,2.805,2.137,6
		l0.113,0.75c0,3.75-0.93,6-1.934,6H337.16c-0.75,0-1.5-2.59-1.5-5.785V543.378z"/>
	
		<linearGradient id="SVGID_25_" gradientUnits="userSpaceOnUse" x1="219.2271" y1="69.3066" x2="202.2271" y2="69.3066" gradientTransform="matrix(0.75 0 0 -0.75 268.2665 511.7872)">
		<stop  offset="0" style="stop-color:#949990"/>
		<stop  offset="0.15" style="stop-color:#CDD2C7"/>
		<stop  offset="0.25" style="stop-color:#E3E6E1"/>
		<stop  offset="0.52" style="stop-color:#B0B5AA"/>
		<stop  offset="0.69" style="stop-color:#9CA197"/>
		<stop  offset="0.8" style="stop-color:#93988F"/>
		<stop  offset="0.92" style="stop-color:#8B8F86"/>
		<stop  offset="1" style="stop-color:#A0A59B"/>
	</linearGradient>
	<path fill="url(#SVGID_25_)" d="M425.937,360.808h0.75c3,0,5.73,1.664,5.73,3.734l0.27,190.516c0,2.25-2.848,3.645-6.031,3.645
		l-0.719,0.105c-3.75,0-6-1.797-6-3.863V364.558c0-2.25,2.578-3.75,5.762-3.75H425.937z"/>
	
		<linearGradient id="SVGID_26_" gradientUnits="userSpaceOnUse" x1="219.2275" y1="68.3066" x2="202.2275" y2="68.3066" gradientTransform="matrix(0.75 0 0 -0.75 -17.1632 510.5099)">
		<stop  offset="0" style="stop-color:#949990"/>
		<stop  offset="0.15" style="stop-color:#CDD2C7"/>
		<stop  offset="0.25" style="stop-color:#E3E6E1"/>
		<stop  offset="0.52" style="stop-color:#B0B5AA"/>
		<stop  offset="0.69" style="stop-color:#9CA197"/>
		<stop  offset="0.8" style="stop-color:#93988F"/>
		<stop  offset="0.92" style="stop-color:#8B8F86"/>
		<stop  offset="1" style="stop-color:#A0A59B"/>
	</linearGradient>
	<path fill="url(#SVGID_26_)" d="M140.508,359.531h0.75c3,0,5.73,1.676,5.73,3.758l0.27,191.992c0,1.5-2.848,3.422-6.031,3.422
		l-0.719,0.328c-3.75,0-6-2.027-6-4.109V363.281c0-2.25,2.578-3.75,5.762-3.75H140.508z"/>
	
		<linearGradient id="SVGID_27_" gradientUnits="userSpaceOnUse" x1="219.2236" y1="-157.8936" x2="202.2236" y2="-157.8936" gradientTransform="matrix(0.75 0 0 -0.75 77.8475 170.881)">
		<stop  offset="0" style="stop-color:#949990"/>
		<stop  offset="0.15" style="stop-color:#CDD2C7"/>
		<stop  offset="0.25" style="stop-color:#E3E6E1"/>
		<stop  offset="0.52" style="stop-color:#B0B5AA"/>
		<stop  offset="0.69" style="stop-color:#9CA197"/>
		<stop  offset="0.8" style="stop-color:#93988F"/>
		<stop  offset="0.92" style="stop-color:#8B8F86"/>
		<stop  offset="1" style="stop-color:#A0A59B"/>
	</linearGradient>
	<path fill="url(#SVGID_27_)" d="M235.516,19.902c3.75,0,6.512,2.789,6.512,6.258l0.238,526.242c0,3.75-2.953,6.301-6.406,6.301
		c-3.344-0.301-6.254-2.813-6.254-6.277l-0.09-526.523c0-3,2.797-6,6.25-6H235.516z"/>
	
		<linearGradient id="SVGID_28_" gradientUnits="userSpaceOnUse" x1="219.2256" y1="-157.8936" x2="202.2256" y2="-157.8936" gradientTransform="matrix(0.75 0 0 -0.75 173.0409 170.881)">
		<stop  offset="0" style="stop-color:#949990"/>
		<stop  offset="0.15" style="stop-color:#CDD2C7"/>
		<stop  offset="0.25" style="stop-color:#E3E6E1"/>
		<stop  offset="0.52" style="stop-color:#B0B5AA"/>
		<stop  offset="0.69" style="stop-color:#9CA197"/>
		<stop  offset="0.8" style="stop-color:#93988F"/>
		<stop  offset="0.92" style="stop-color:#8B8F86"/>
		<stop  offset="1" style="stop-color:#A0A59B"/>
	</linearGradient>
	<path fill="url(#SVGID_28_)" d="M330.71,19.902c3.75,0,6.512,2.793,6.512,6.258l0.238,526.242c0,3.75-2.957,6.301-6.41,6.301
		c-3.34-0.301-6.25-2.809-6.25-6.277l-0.09-526.523c0-3,2.797-6,6.25-6H330.71z"/>
	
		<linearGradient id="SVGID_29_" gradientUnits="userSpaceOnUse" x1="18.3037" y1="301.7036" x2="1.3037" y2="301.7036" gradientTransform="matrix(0 -0.75 -0.75 0 510.5392 338.0392)">
		<stop  offset="0" style="stop-color:#949990"/>
		<stop  offset="0.15" style="stop-color:#CDD2C7"/>
		<stop  offset="0.25" style="stop-color:#E3E6E1"/>
		<stop  offset="0.52" style="stop-color:#B0B5AA"/>
		<stop  offset="0.69" style="stop-color:#9CA197"/>
		<stop  offset="0.8" style="stop-color:#93988F"/>
		<stop  offset="0.92" style="stop-color:#8B8F86"/>
		<stop  offset="1" style="stop-color:#A0A59B"/>
	</linearGradient>
	<path fill="url(#SVGID_29_)" d="M236.262,331.062v-0.75c0-3,0.805-5.785,1.809-5.785l91.941-0.215c1.5,0,2.137,2.805,2.137,6
		l0.113,0.75c0,3.75-0.93,6-1.934,6h-92.566c-0.75,0-1.5-2.59-1.5-5.785V331.062z"/>
	
		<linearGradient id="SVGID_30_" gradientUnits="userSpaceOnUse" x1="18.3027" y1="301.7036" x2="1.3027" y2="301.7036" gradientTransform="matrix(0 -0.75 -0.75 0 508.5353 266.6798)">
		<stop  offset="0" style="stop-color:#949990"/>
		<stop  offset="0.15" style="stop-color:#CDD2C7"/>
		<stop  offset="0.25" style="stop-color:#E3E6E1"/>
		<stop  offset="0.52" style="stop-color:#B0B5AA"/>
		<stop  offset="0.69" style="stop-color:#9CA197"/>
		<stop  offset="0.8" style="stop-color:#93988F"/>
		<stop  offset="0.92" style="stop-color:#8B8F86"/>
		<stop  offset="1" style="stop-color:#A0A59B"/>
	</linearGradient>
	<path fill="url(#SVGID_30_)" d="M234.258,259.703v-0.75c0-3,0.805-5.785,1.809-5.785l91.941-0.215c1.5,0,2.137,2.805,2.137,6
		l0.113,0.75c0,3.75-0.93,6-1.934,6h-92.566c-0.75,0-1.5-2.59-1.5-5.785V259.703z"/>
	
		<linearGradient id="SVGID_31_" gradientUnits="userSpaceOnUse" x1="18.3047" y1="301.7056" x2="1.3047" y2="301.7056" gradientTransform="matrix(0 -0.75 -0.75 0 508.5206 194.838)">
		<stop  offset="0" style="stop-color:#949990"/>
		<stop  offset="0.15" style="stop-color:#CDD2C7"/>
		<stop  offset="0.25" style="stop-color:#E3E6E1"/>
		<stop  offset="0.52" style="stop-color:#B0B5AA"/>
		<stop  offset="0.69" style="stop-color:#9CA197"/>
		<stop  offset="0.8" style="stop-color:#93988F"/>
		<stop  offset="0.92" style="stop-color:#8B8F86"/>
		<stop  offset="1" style="stop-color:#A0A59B"/>
	</linearGradient>
	<path fill="url(#SVGID_31_)" d="M234.242,187.859v-0.75c0-3,0.809-5.785,1.809-5.785l91.941-0.215c1.5,0,2.137,2.805,2.137,6
		l0.113,0.75c0,3.75-0.93,6-1.934,6h-92.566c-0.75,0-1.5-2.59-1.5-5.785V187.859z"/>
	
		<linearGradient id="SVGID_32_" gradientUnits="userSpaceOnUse" x1="18.3037" y1="301.7017" x2="1.3037" y2="301.7017" gradientTransform="matrix(0 -0.75 -0.75 0 508.545 123.7072)">
		<stop  offset="0" style="stop-color:#949990"/>
		<stop  offset="0.15" style="stop-color:#CDD2C7"/>
		<stop  offset="0.25" style="stop-color:#E3E6E1"/>
		<stop  offset="0.52" style="stop-color:#B0B5AA"/>
		<stop  offset="0.69" style="stop-color:#9CA197"/>
		<stop  offset="0.8" style="stop-color:#93988F"/>
		<stop  offset="0.92" style="stop-color:#8B8F86"/>
		<stop  offset="1" style="stop-color:#A0A59B"/>
	</linearGradient>
	<path fill="url(#SVGID_32_)" d="M234.27,116.73v-0.75c0-3,0.805-5.785,1.809-5.785l91.941-0.215c1.5,0,2.137,2.805,2.137,6
		l0.113,0.75c0,3.75-0.934,6-1.934,6H235.77c-0.75,0-1.5-2.59-1.5-5.785V116.73z"/>
	
		<linearGradient id="SVGID_33_" gradientUnits="userSpaceOnUse" x1="18.3027" y1="301.7017" x2="1.3027" y2="301.7017" gradientTransform="matrix(0 -0.75 -0.75 0 510.5333 52.5704)">
		<stop  offset="0" style="stop-color:#949990"/>
		<stop  offset="0.15" style="stop-color:#CDD2C7"/>
		<stop  offset="0.25" style="stop-color:#E3E6E1"/>
		<stop  offset="0.52" style="stop-color:#B0B5AA"/>
		<stop  offset="0.69" style="stop-color:#9CA197"/>
		<stop  offset="0.8" style="stop-color:#93988F"/>
		<stop  offset="0.92" style="stop-color:#8B8F86"/>
		<stop  offset="1" style="stop-color:#A0A59B"/>
	</linearGradient>
	<path fill="url(#SVGID_33_)" d="M236.258,45.594v-0.75c0-3,0.805-5.785,1.809-5.785l91.941-0.215c1.5,0,2.137,2.805,2.137,6
		l0.113,0.75c0,3.75-0.934,6-1.934,6h-92.566c-0.75,0-1.5-2.59-1.5-5.785V45.594z"/>
</g>
</svg>
