<?xml version="1.0" encoding="utf-8"?>
<!-- Generator: Adobe Illustrator 16.0.0, SVG Export Plug-In . SVG Version: 6.00 Build 0)  -->
<!DOCTYPE svg PUBLIC "-//W3C//DTD SVG 1.1//EN" "http://www.w3.org/Graphics/SVG/1.1/DTD/svg11.dtd">
<svg preserveAspectRatio="none"   version="1.1" id="图层_1" xmlns="http://www.w3.org/2000/svg" xmlns:xlink="http://www.w3.org/1999/xlink" x="0px" y="0px"
	 width="250.085px" height="559.697px" viewBox="158.383 3.619 250.085 559.697"
	 enable-background="new 158.383 3.619 250.085 559.697" xml:space="preserve">
<g id="surface361">
	
		<linearGradient id="SVGID_1_" gradientUnits="userSpaceOnUse" x1="214.2227" y1="176.8027" x2="202.2236" y2="176.8027" gradientTransform="matrix(0.75 0 0 -0.75 125.3011 621.1085)">
		<stop  offset="0" style="stop-color:#A1A9B3"/>
		<stop  offset="0.09" style="stop-color:#A3ACB6"/>
		<stop  offset="0.36" style="stop-color:#C9D4E0"/>
		<stop  offset="0.56" style="stop-color:#B5BFC9"/>
		<stop  offset="0.83" style="stop-color:#9199A2"/>
		<stop  offset="1" style="stop-color:#676D74"/>
	</linearGradient>
	<path fill="url(#SVGID_1_)" d="M285.968,470.132h-9v36.75h9V470.132z"/>
	
		<linearGradient id="SVGID_2_" gradientUnits="userSpaceOnUse" x1="211.2256" y1="190.3066" x2="202.2256" y2="190.3066" gradientTransform="matrix(0.75 0 0 -0.75 236.8885 692.1154)">
		<stop  offset="0" style="stop-color:#A1A9B3"/>
		<stop  offset="0.09" style="stop-color:#A3ACB6"/>
		<stop  offset="0.36" style="stop-color:#C9D4E0"/>
		<stop  offset="0.56" style="stop-color:#B5BFC9"/>
		<stop  offset="0.83" style="stop-color:#9199A2"/>
		<stop  offset="1" style="stop-color:#676D74"/>
	</linearGradient>
	<path fill="url(#SVGID_2_)" d="M395.308,541.136h-6.75v16.5h6.75V541.136z"/>
	
		<linearGradient id="SVGID_3_" gradientUnits="userSpaceOnUse" x1="211.2261" y1="190.3066" x2="202.2261" y2="190.3066" gradientTransform="matrix(0.75 0 0 -0.75 20.0297 692.1154)">
		<stop  offset="0" style="stop-color:#A1A9B3"/>
		<stop  offset="0.09" style="stop-color:#A3ACB6"/>
		<stop  offset="0.36" style="stop-color:#C9D4E0"/>
		<stop  offset="0.56" style="stop-color:#B5BFC9"/>
		<stop  offset="0.83" style="stop-color:#9199A2"/>
		<stop  offset="1" style="stop-color:#676D74"/>
	</linearGradient>
	<path fill="url(#SVGID_3_)" d="M178.449,541.136h-6.75v16.5h6.75V541.136z"/>
	
		<linearGradient id="SVGID_4_" gradientUnits="userSpaceOnUse" x1="468.3364" y1="8.3696" x2="202.2266" y2="8.3696" gradientTransform="matrix(0.75 0 0 -0.75 32.724 154.6954)">
		<stop  offset="0" style="stop-color:#A1A9B3"/>
		<stop  offset="0.09" style="stop-color:#A3ACB6"/>
		<stop  offset="0.36" style="stop-color:#C9D4E0"/>
		<stop  offset="0.56" style="stop-color:#B5BFC9"/>
		<stop  offset="0.83" style="stop-color:#9199A2"/>
		<stop  offset="1" style="stop-color:#676D74"/>
	</linearGradient>
	<path fill="url(#SVGID_4_)" d="M184.395,293.218c0,0,17.836-11.156,99.168-10.628c81.582,0.879,100.41,10.578,100.41,10.578
		l-0.078-237.699c0,0,2.758-20.691-23.461-37.195c-26.039-16.805-76.25-14.555-76.25-14.555c-0.039,0-53.773-0.883-76.781,14.555
		c-23.008,15.445-23.008,37.266-23.008,37.266V293.218z"/>
	
		<linearGradient id="SVGID_5_" gradientUnits="userSpaceOnUse" x1="467.5278" y1="72.3848" x2="202.2256" y2="72.3847" gradientTransform="matrix(0.75 0 0 -0.75 32.9745 441.6622)">
		<stop  offset="0" style="stop-color:#A1A9B3"/>
		<stop  offset="0.09" style="stop-color:#A3ACB6"/>
		<stop  offset="0.36" style="stop-color:#C9D4E0"/>
		<stop  offset="0.56" style="stop-color:#B5BFC9"/>
		<stop  offset="0.83" style="stop-color:#9199A2"/>
		<stop  offset="1" style="stop-color:#676D74"/>
	</linearGradient>
	<path fill="url(#SVGID_5_)" d="M184.645,301.183c0,0,16.121-10.5,99.238-10.5c83.011,0,99.738,10.285,99.738,10.285
		l-77.477,174.965c0,0-7.676,8.543-23.539,8.117c-16.211-0.617-20.211-8.301-20.211-8.301L184.645,301.183z"/>
	
		<linearGradient id="SVGID_6_" gradientUnits="userSpaceOnUse" x1="226.2241" y1="151.3027" x2="202.2241" y2="151.3027" gradientTransform="matrix(0.75 0 0 -0.75 14.371 276.5353)">
		<stop  offset="0" style="stop-color:#A1A9B3"/>
		<stop  offset="0.09" style="stop-color:#A3ACB6"/>
		<stop  offset="0.36" style="stop-color:#C9D4E0"/>
		<stop  offset="0.56" style="stop-color:#B5BFC9"/>
		<stop  offset="0.83" style="stop-color:#9199A2"/>
		<stop  offset="1" style="stop-color:#676D74"/>
	</linearGradient>
	<path fill="url(#SVGID_6_)" d="M166.039,125.559h18v75h-18V125.559z"/>
	
		<linearGradient id="SVGID_7_" gradientUnits="userSpaceOnUse" x1="214.2261" y1="147.8018" x2="202.2261" y2="147.8018" gradientTransform="matrix(0.75 0 0 -0.75 18.7948 351.1671)">
		<stop  offset="0" style="stop-color:#A1A9B3"/>
		<stop  offset="0.09" style="stop-color:#A3ACB6"/>
		<stop  offset="0.36" style="stop-color:#C9D4E0"/>
		<stop  offset="0.56" style="stop-color:#B5BFC9"/>
		<stop  offset="0.83" style="stop-color:#9199A2"/>
		<stop  offset="1" style="stop-color:#676D74"/>
	</linearGradient>
	<path fill="url(#SVGID_7_)" d="M179.465,200.191h-9v80.25h9V200.191z"/>
	
		<linearGradient id="SVGID_8_" gradientUnits="userSpaceOnUse" x1="221.2246" y1="11.8066" x2="202.2246" y2="11.8066" gradientTransform="matrix(0.75 0 0 -0.75 16.226 415.7911)">
		<stop  offset="0" style="stop-color:#A1A9B3"/>
		<stop  offset="0.09" style="stop-color:#A3ACB6"/>
		<stop  offset="0.36" style="stop-color:#C9D4E0"/>
		<stop  offset="0.56" style="stop-color:#B5BFC9"/>
		<stop  offset="0.83" style="stop-color:#9199A2"/>
		<stop  offset="1" style="stop-color:#676D74"/>
	</linearGradient>
	<path fill="url(#SVGID_8_)" d="M167.895,264.813h14.25v284.25h-14.25V264.813z"/>
	
		<linearGradient id="SVGID_9_" gradientUnits="userSpaceOnUse" x1="226.2261" y1="186.3057" x2="202.2261" y2="186.3057" gradientTransform="matrix(0.75 0 0 -0.75 14.264 351.2052)">
		<stop  offset="0" style="stop-color:#A1A9B3"/>
		<stop  offset="0.09" style="stop-color:#A3ACB6"/>
		<stop  offset="0.36" style="stop-color:#C9D4E0"/>
		<stop  offset="0.56" style="stop-color:#B5BFC9"/>
		<stop  offset="0.83" style="stop-color:#9199A2"/>
		<stop  offset="1" style="stop-color:#676D74"/>
	</linearGradient>
	<path fill="url(#SVGID_9_)" d="M165.934,200.227h18v22.5h-18V200.227z"/>
	
		<linearGradient id="SVGID_10_" gradientUnits="userSpaceOnUse" x1="189.7061" y1="151.3027" x2="165.7061" y2="151.3027" gradientTransform="matrix(-0.75 0 0 -0.75 525.1769 276.5353)">
		<stop  offset="0" style="stop-color:#A1A9B3"/>
		<stop  offset="0.09" style="stop-color:#A3ACB6"/>
		<stop  offset="0.36" style="stop-color:#C9D4E0"/>
		<stop  offset="0.56" style="stop-color:#B5BFC9"/>
		<stop  offset="0.83" style="stop-color:#9199A2"/>
		<stop  offset="1" style="stop-color:#676D74"/>
	</linearGradient>
	<path fill="url(#SVGID_10_)" d="M400.898,125.559h-18v75h18V125.559z"/>
	
		<linearGradient id="SVGID_11_" gradientUnits="userSpaceOnUse" x1="177.7031" y1="147.8018" x2="165.7031" y2="147.8018" gradientTransform="matrix(-0.75 0 0 -0.75 520.754 351.1671)">
		<stop  offset="0" style="stop-color:#A1A9B3"/>
		<stop  offset="0.09" style="stop-color:#A3ACB6"/>
		<stop  offset="0.36" style="stop-color:#C9D4E0"/>
		<stop  offset="0.56" style="stop-color:#B5BFC9"/>
		<stop  offset="0.83" style="stop-color:#9199A2"/>
		<stop  offset="1" style="stop-color:#676D74"/>
	</linearGradient>
	<path fill="url(#SVGID_11_)" d="M387.476,200.191h9v80.25h-9V200.191z"/>
	
		<linearGradient id="SVGID_12_" gradientUnits="userSpaceOnUse" x1="184.7041" y1="11.8066" x2="165.7041" y2="11.8066" gradientTransform="matrix(-0.75 0 0 -0.75 523.3009 415.7911)">
		<stop  offset="0" style="stop-color:#A1A9B3"/>
		<stop  offset="0.09" style="stop-color:#A3ACB6"/>
		<stop  offset="0.36" style="stop-color:#C9D4E0"/>
		<stop  offset="0.56" style="stop-color:#B5BFC9"/>
		<stop  offset="0.83" style="stop-color:#9199A2"/>
		<stop  offset="1" style="stop-color:#676D74"/>
	</linearGradient>
	<path fill="url(#SVGID_12_)" d="M399.023,264.813h-14.25v284.25h14.25V264.813z"/>
	
		<linearGradient id="SVGID_13_" gradientUnits="userSpaceOnUse" x1="189.7021" y1="186.3057" x2="165.7021" y2="186.3057" gradientTransform="matrix(-0.75 0 0 -0.75 525.2843 351.2052)">
		<stop  offset="0" style="stop-color:#A1A9B3"/>
		<stop  offset="0.09" style="stop-color:#A3ACB6"/>
		<stop  offset="0.36" style="stop-color:#C9D4E0"/>
		<stop  offset="0.56" style="stop-color:#B5BFC9"/>
		<stop  offset="0.83" style="stop-color:#9199A2"/>
		<stop  offset="1" style="stop-color:#676D74"/>
	</linearGradient>
	<path fill="url(#SVGID_13_)" d="M401.007,200.227h-18v22.5h18V200.227z"/>
	<path fill="#4D5D6C" stroke="#4D5D6C" stroke-linejoin="bevel" stroke-miterlimit="10" d="M184.207,293.773
		c0,0,25.051-12.527,99.566-11.183c74.433,1.433,100.218,11.281,100.218,11.281l-0.285,3.652c0,0-28.93-10.742-99.605-10.742
		c-70.644,0.242-99.894,10.648-99.894,10.648V293.773z"/>
	
		<linearGradient id="SVGID_14_" gradientUnits="userSpaceOnUse" x1="478.5044" y1="191.479" x2="202.2236" y2="191.479" gradientTransform="matrix(0.75 0 0 -0.75 28.8275 437.8165)">
		<stop  offset="0" style="stop-color:#5A6269"/>
		<stop  offset="0.09" style="stop-color:#768089"/>
		<stop  offset="0.43" style="stop-color:#B0BECB"/>
		<stop  offset="0.56" style="stop-color:#9EABB7"/>
		<stop  offset="0.83" style="stop-color:#50575D"/>
		<stop  offset="1" style="stop-color:#4B5258"/>
	</linearGradient>
	<path fill="url(#SVGID_14_)" d="M182.746,297.339c0,0,18.598-10.836,101-10.559c82.75,0.059,101.996,10.926,101.996,10.926
		c1.004-0.367,1.965,0.875,1.965,1.953c-0.211,1.43-0.879,1.953-1.965,1.953c0.254,0.227-26.016-10.852-101.996-10.926
		c-76.25-0.098-101.332,10.926-101.332,10.926c-1.168,0.227-1.918-0.875-1.918-1.953c0-0.82,0.836-1.953,1.918-1.953
		L182.746,297.339z"/>
	
		<linearGradient id="SVGID_15_" gradientUnits="userSpaceOnUse" x1="478.5044" y1="191.479" x2="202.2236" y2="191.479" gradientTransform="matrix(0.75 0 0 -0.75 28.8275 432.5597)">
		<stop  offset="0" style="stop-color:#5A6269"/>
		<stop  offset="0.09" style="stop-color:#768089"/>
		<stop  offset="0.43" style="stop-color:#B0BECB"/>
		<stop  offset="0.56" style="stop-color:#9EABB7"/>
		<stop  offset="0.83" style="stop-color:#50575D"/>
		<stop  offset="1" style="stop-color:#4B5258"/>
	</linearGradient>
	<path fill="url(#SVGID_15_)" d="M182.746,292.082c0,0,18.598-10.835,101-10.558c82.75,0.059,101.996,10.925,101.996,10.925
		c1.004-0.367,1.965,0.875,1.965,1.953c-0.211,1.43-0.879,1.953-1.965,1.953c0.254,0.227-26.016-10.852-101.996-10.926
		c-76.25-0.098-101.332,10.926-101.332,10.926c-1.168,0.227-1.918-0.875-1.918-1.953c0-0.82,0.836-1.953,1.918-1.953
		L182.746,292.082z"/>
	
		<linearGradient id="SVGID_16_" gradientUnits="userSpaceOnUse" x1="246.4404" y1="197.3037" x2="202.1377" y2="197.3037" gradientTransform="matrix(0.75 0 0 -0.75 6.7792 708.2931)">
		<stop  offset="0" style="stop-color:#A1A9B3"/>
		<stop  offset="0.09" style="stop-color:#A3ACB6"/>
		<stop  offset="0.36" style="stop-color:#C9D4E0"/>
		<stop  offset="0.56" style="stop-color:#B5BFC9"/>
		<stop  offset="0.83" style="stop-color:#9199A2"/>
		<stop  offset="1" style="stop-color:#676D74"/>
	</linearGradient>
	<path fill="url(#SVGID_16_)" d="M161.449,557.316h27c1.5,0,3.16,1.313,3.16,2.934c-0.16,1.566-1.316,2.93-2.945,2.93l-27.215,0.137
		c-1.5,0-3.066-1.449-3.066-3.066c0.066-1.434,1.316-2.934,2.945-2.934H161.449z"/>
	
		<linearGradient id="SVGID_17_" gradientUnits="userSpaceOnUse" x1="246.439" y1="197.3037" x2="202.1372" y2="197.3037" gradientTransform="matrix(0.75 0 0 -0.75 223.6385 708.2931)">
		<stop  offset="0" style="stop-color:#A1A9B3"/>
		<stop  offset="0.09" style="stop-color:#A3ACB6"/>
		<stop  offset="0.36" style="stop-color:#C9D4E0"/>
		<stop  offset="0.56" style="stop-color:#B5BFC9"/>
		<stop  offset="0.83" style="stop-color:#9199A2"/>
		<stop  offset="1" style="stop-color:#676D74"/>
	</linearGradient>
	<path fill="url(#SVGID_17_)" d="M378.308,557.316h27c1.5,0,3.16,1.313,3.16,2.934c-0.16,1.566-1.316,2.93-2.945,2.93l-27.215,0.137
		c-1.5,0-3.066-1.449-3.066-3.066c0.066-1.434,1.316-2.934,2.945-2.934H378.308z"/>
	
		<linearGradient id="SVGID_18_" gradientUnits="userSpaceOnUse" x1="10.8057" y1="365.7065" x2="10.8057" y2="317.7075" gradientTransform="matrix(0 -0.75 -0.75 0 537.8419 514.8292)">
		<stop  offset="0" style="stop-color:#A1A9B3"/>
		<stop  offset="0.09" style="stop-color:#A3ACB6"/>
		<stop  offset="0.36" style="stop-color:#C9D4E0"/>
		<stop  offset="0.56" style="stop-color:#B5BFC9"/>
		<stop  offset="0.83" style="stop-color:#9199A2"/>
		<stop  offset="1" style="stop-color:#676D74"/>
	</linearGradient>
	<path fill="url(#SVGID_18_)" d="M263.563,510.101v-6.75c0-1.5,0.238-3.461,0.531-3.461l34.718-0.289c0,0,0.527,1.953,0.527,4.012
		l0.223,6.488c0,2.25-0.457,3.75-0.75,3.75h-34.5c-0.75,0-0.75-1.668-0.75-3.723V510.101z"/>
	
		<linearGradient id="SVGID_19_" gradientUnits="userSpaceOnUse" x1="11.2891" y1="365.7036" x2="11.2891" y2="363.605" gradientTransform="matrix(0 -0.75 -0.75 0 543.8439 515.3556)">
		<stop  offset="0" style="stop-color:#A1A9B3"/>
		<stop  offset="0.09" style="stop-color:#A3ACB6"/>
		<stop  offset="0.36" style="stop-color:#C9D4E0"/>
		<stop  offset="0.56" style="stop-color:#B5BFC9"/>
		<stop  offset="0.83" style="stop-color:#9199A2"/>
		<stop  offset="1" style="stop-color:#676D74"/>
	</linearGradient>
	<path fill="url(#SVGID_19_)" d="M269.566,514.378v-14.25c0-0.75,0.227-0.727,0.508-0.727c0.992-0.023,1.066,0.164,1.066,0.367
		l-0.074,14.609c0,0-0.156,0-0.438,0c-1.063,0-1.063-0.164-1.063-0.367V514.378z"/>
	
		<linearGradient id="SVGID_20_" gradientUnits="userSpaceOnUse" x1="11.2891" y1="365.7046" x2="11.2891" y2="363.605" gradientTransform="matrix(0 -0.75 -0.75 0 555.0275 515.3556)">
		<stop  offset="0" style="stop-color:#A1A9B3"/>
		<stop  offset="0.09" style="stop-color:#A3ACB6"/>
		<stop  offset="0.36" style="stop-color:#C9D4E0"/>
		<stop  offset="0.56" style="stop-color:#B5BFC9"/>
		<stop  offset="0.83" style="stop-color:#9199A2"/>
		<stop  offset="1" style="stop-color:#676D74"/>
	</linearGradient>
	<path fill="url(#SVGID_20_)" d="M280.75,514.378v-14.25c0-0.75,0.227-0.727,0.508-0.727c0.992-0.023,1.066,0.164,1.066,0.367
		l-0.074,14.609c0,0-0.156,0-0.438,0c-1.063,0-1.063-0.164-1.063-0.367V514.378z"/>
	
		<linearGradient id="SVGID_21_" gradientUnits="userSpaceOnUse" x1="11.2891" y1="365.7046" x2="11.2891" y2="363.606" gradientTransform="matrix(0 -0.75 -0.75 0 560.5948 515.3556)">
		<stop  offset="0" style="stop-color:#A1A9B3"/>
		<stop  offset="0.09" style="stop-color:#A3ACB6"/>
		<stop  offset="0.36" style="stop-color:#C9D4E0"/>
		<stop  offset="0.56" style="stop-color:#B5BFC9"/>
		<stop  offset="0.83" style="stop-color:#9199A2"/>
		<stop  offset="1" style="stop-color:#676D74"/>
	</linearGradient>
	<path fill="url(#SVGID_21_)" d="M286.316,514.378v-14.25c0-0.75,0.227-0.727,0.508-0.727c0.992-0.023,1.066,0.164,1.066,0.367
		l-0.074,14.609c0,0-0.156,0-0.438,0c-1.063,0-1.063-0.164-1.063-0.367V514.378z"/>
	
		<linearGradient id="SVGID_22_" gradientUnits="userSpaceOnUse" x1="11.2891" y1="365.7046" x2="11.2891" y2="363.605" gradientTransform="matrix(0 -0.75 -0.75 0 566.1798 515.3556)">
		<stop  offset="0" style="stop-color:#A1A9B3"/>
		<stop  offset="0.09" style="stop-color:#A3ACB6"/>
		<stop  offset="0.36" style="stop-color:#C9D4E0"/>
		<stop  offset="0.56" style="stop-color:#B5BFC9"/>
		<stop  offset="0.83" style="stop-color:#9199A2"/>
		<stop  offset="1" style="stop-color:#676D74"/>
	</linearGradient>
	<path fill="url(#SVGID_22_)" d="M291.902,514.378v-14.25c0-0.75,0.227-0.727,0.508-0.727c0.992-0.023,1.066,0.164,1.066,0.367
		l-0.074,14.609c0,0-0.156,0-0.438,0c-1.063,0-1.063-0.164-1.063-0.367V514.378z"/>
	
		<linearGradient id="SVGID_23_" gradientUnits="userSpaceOnUse" x1="11.2891" y1="365.7046" x2="11.2891" y2="363.605" gradientTransform="matrix(0 -0.75 -0.75 0 549.4269 515.3556)">
		<stop  offset="0" style="stop-color:#A1A9B3"/>
		<stop  offset="0.09" style="stop-color:#A3ACB6"/>
		<stop  offset="0.36" style="stop-color:#C9D4E0"/>
		<stop  offset="0.56" style="stop-color:#B5BFC9"/>
		<stop  offset="0.83" style="stop-color:#9199A2"/>
		<stop  offset="1" style="stop-color:#676D74"/>
	</linearGradient>
	<path fill="url(#SVGID_23_)" d="M275.148,514.378v-14.25c0-0.75,0.227-0.727,0.508-0.727c0.992-0.023,1.066,0.164,1.066,0.367
		l-0.074,14.609c0,0-0.156,0-0.438,0c-1.063,0-1.063-0.164-1.063-0.367V514.378z"/>
	
		<linearGradient id="SVGID_24_" gradientUnits="userSpaceOnUse" x1="288.2261" y1="174.6416" x2="202.2271" y2="174.6416" gradientTransform="matrix(0.75 0 0 -0.75 100.3407 214.7931)">
		<stop  offset="0" style="stop-color:#6D737A"/>
		<stop  offset="0.09" style="stop-color:#6F747C"/>
		<stop  offset="0.36" style="stop-color:#899099"/>
		<stop  offset="0.56" style="stop-color:#7B8189"/>
		<stop  offset="0.83" style="stop-color:#62676E"/>
		<stop  offset="1" style="stop-color:#44484D"/>
	</linearGradient>
	<path fill="url(#SVGID_24_)" d="M255.012,63.816h58.5c1.5,0,2.813,1.313,2.813,2.93l0.188,33.82c0,2.25-1.504,3.242-3.133,3.242
		l-58.367-0.242c-1.5,0-3-1.07-3-2.691V66.816c0-1.5,1.316-3,2.945-3H255.012z"/>
	
		<linearGradient id="SVGID_25_" gradientUnits="userSpaceOnUse" x1="280.6401" y1="176.8027" x2="202.2241" y2="176.8027" gradientTransform="matrix(0.75 0 0 -0.75 103.0936 216.504)">
		<stop  offset="0" style="stop-color:#A1A9B3"/>
		<stop  offset="0.09" style="stop-color:#A3ACB6"/>
		<stop  offset="0.36" style="stop-color:#C9D4E0"/>
		<stop  offset="0.56" style="stop-color:#B5BFC9"/>
		<stop  offset="0.83" style="stop-color:#9199A2"/>
		<stop  offset="1" style="stop-color:#676D74"/>
	</linearGradient>
	<path fill="url(#SVGID_25_)" d="M257.762,65.527h53.25c1.5,0,2.563,1.199,2.563,2.68l-0.313,31.07c0,1.5-0.895,2.82-2.383,2.82
		l-53.117,0.18c-1.5,0-3-1.383-3-2.863V68.527c0-1.5,1.207-3,2.695-3H257.762z"/>
	<path fill="#36414B" stroke="#38434D" stroke-linejoin="bevel" stroke-miterlimit="10" d="M241.805,226.281
		c0-23.25,18.895-42,42.269-42c23.73,0,42.324,18.852,42.324,42.145c0.156,23.105-18.949,42.141-42.324,42.141
		c-23.519-0.285-42.269-18.926-42.269-42.141V226.281z"/>
	<path fill="#4D5D6C" stroke="#4D5D6C" stroke-linejoin="bevel" stroke-miterlimit="10" d="M248.676,226.363
		c0-19.5,15.832-35.25,35.414-35.25c19.336,0,35.461,15.797,35.461,35.313c-0.375,19.438-15.875,35.309-35.461,35.309
		c-19.664-0.121-35.414-15.859-35.414-35.309V226.363z"/>
	
		<linearGradient id="SVGID_26_" gradientUnits="userSpaceOnUse" x1="165.7144" y1="238.3896" x2="67.7178" y2="238.3896" gradientTransform="matrix(0.5303 -0.5303 -0.5303 -0.5303 348.7061 414.7272)">
		<stop  offset="0" style="stop-color:#A1A9B3"/>
		<stop  offset="0.09" style="stop-color:#A3ACB6"/>
		<stop  offset="0.36" style="stop-color:#C9D4E0"/>
		<stop  offset="0.56" style="stop-color:#B5BFC9"/>
		<stop  offset="0.83" style="stop-color:#9199A2"/>
		<stop  offset="1" style="stop-color:#676D74"/>
	</linearGradient>
	<path fill="url(#SVGID_26_)" d="M256.336,250.531l3.715,3.715l51.968-51.973l-3.711-3.711L256.336,250.531z"/>
	
		<linearGradient id="SVGID_27_" gradientUnits="userSpaceOnUse" x1="139.8877" y1="264.2158" x2="41.8916" y2="264.2158" gradientTransform="matrix(-0.5303 -0.5303 0.5303 -0.5303 192.2372 414.7272)">
		<stop  offset="0" style="stop-color:#A1A9B3"/>
		<stop  offset="0.09" style="stop-color:#A3ACB6"/>
		<stop  offset="0.36" style="stop-color:#C9D4E0"/>
		<stop  offset="0.56" style="stop-color:#B5BFC9"/>
		<stop  offset="0.83" style="stop-color:#9199A2"/>
		<stop  offset="1" style="stop-color:#676D74"/>
	</linearGradient>
	<path fill="url(#SVGID_27_)" d="M312,250.531l-3.715,3.715l-51.968-51.973l3.711-3.711L312,250.531z"/>
	
		<linearGradient id="SVGID_28_" gradientUnits="userSpaceOnUse" x1="205.7231" y1="201.3018" x2="205.7231" y2="103.3018" gradientTransform="matrix(0.75 0 0 -0.75 129.8597 340.7697)">
		<stop  offset="0" style="stop-color:#A1A9B3"/>
		<stop  offset="0.09" style="stop-color:#A3ACB6"/>
		<stop  offset="0.36" style="stop-color:#C9D4E0"/>
		<stop  offset="0.56" style="stop-color:#B5BFC9"/>
		<stop  offset="0.83" style="stop-color:#9199A2"/>
		<stop  offset="1" style="stop-color:#676D74"/>
	</linearGradient>
	<path fill="url(#SVGID_28_)" d="M286.777,189.793h-5.25v73.5h5.25V189.793z"/>
	
		<linearGradient id="SVGID_29_" gradientUnits="userSpaceOnUse" x1="300.2241" y1="197.8008" x2="202.2251" y2="197.8008" gradientTransform="matrix(0.75 0 0 -0.75 95.6781 374.7765)">
		<stop  offset="0" style="stop-color:#A1A9B3"/>
		<stop  offset="0.09" style="stop-color:#A3ACB6"/>
		<stop  offset="0.36" style="stop-color:#C9D4E0"/>
		<stop  offset="0.56" style="stop-color:#B5BFC9"/>
		<stop  offset="0.83" style="stop-color:#9199A2"/>
		<stop  offset="1" style="stop-color:#676D74"/>
	</linearGradient>
	<path fill="url(#SVGID_29_)" d="M247.348,223.801v5.25h73.5v-5.25H247.348z"/>
	<path fill="#FFFFFF" fill-opacity="0.1725" d="M248.691,226.332c0-19.5,15.832-35.25,35.414-35.25
		c15.586,0,16.934,3.313,25.988,9.711c1.598,3.789-18.492-8.395-31.132,21.648c-15.27,36.891,24.73,39.328,5.144,39.328
		c-19.664-0.188-35.414-15.926-35.414-35.344V226.332z"/>
</g>
</svg>
