<?xml version="1.0" encoding="utf-8"?>
<!-- Generator: Adobe Illustrator 16.0.0, SVG Export Plug-In . SVG Version: 6.00 Build 0)  -->
<!DOCTYPE svg PUBLIC "-//W3C//DTD SVG 1.1//EN" "http://www.w3.org/Graphics/SVG/1.1/DTD/svg11.dtd">
<svg preserveAspectRatio="none"   version="1.1" id="图层_1" xmlns="http://www.w3.org/2000/svg" xmlns:xlink="http://www.w3.org/1999/xlink" x="0px" y="0px"
	 width="480.75px" height="580.113px" viewBox="43.023 -6.645 480.75 580.113"
	 enable-background="new 43.023 -6.645 480.75 580.113" xml:space="preserve">
<g id="surface371">
	
		<linearGradient id="SVGID_1_" gradientUnits="userSpaceOnUse" x1="224.2261" y1="191.8057" x2="202.2261" y2="191.8057" gradientTransform="matrix(0.75 0 0 -0.75 48.2909 165.7677)">
		<stop  offset="0" style="stop-color:#366388"/>
		<stop  offset="0.15" style="stop-color:#6492BE"/>
		<stop  offset="0.25" style="stop-color:#BAC9DC"/>
		<stop  offset="0.52" style="stop-color:#4175A2"/>
		<stop  offset="0.69" style="stop-color:#39688F"/>
		<stop  offset="0.8" style="stop-color:#356287"/>
		<stop  offset="0.92" style="stop-color:#325C7F"/>
		<stop  offset="1" style="stop-color:#3B6A93"/>
	</linearGradient>
	<path fill="url(#SVGID_1_)" d="M199.961,29.039h16.5v-14.25h-16.5V29.039z"/>
	
		<linearGradient id="SVGID_2_" gradientUnits="userSpaceOnUse" x1="230.4336" y1="167.8037" x2="202.2256" y2="167.8037" gradientTransform="matrix(0.75 0 0 -0.75 45.7997 177.5665)">
		<stop  offset="0" style="stop-color:#457DAC"/>
		<stop  offset="0.15" style="stop-color:#73B1E9"/>
		<stop  offset="0.25" style="stop-color:#BED6F3"/>
		<stop  offset="0.52" style="stop-color:#5394CB"/>
		<stop  offset="0.69" style="stop-color:#4984B5"/>
		<stop  offset="0.8" style="stop-color:#447CAA"/>
		<stop  offset="0.92" style="stop-color:#4075A1"/>
		<stop  offset="1" style="stop-color:#4B87B9"/>
	</linearGradient>
	<path fill="url(#SVGID_2_)" d="M199.719,26.59h16.5c1.5,0,2.406,1.121,2.406,2.508l-0.156,45.492c0,0.75-0.957,2.203-2.332,2.203
		l-16.418,0.047c-1.5,0-2.25-1.172-2.25-2.559V28.84c0-1.5,1.113-2.25,2.488-2.25H199.719z"/>
	
		<linearGradient id="SVGID_3_" gradientUnits="userSpaceOnUse" x1="372.311" y1="201.3027" x2="372.311" y2="-31.6973" gradientTransform="matrix(0.75 0 0 -0.75 -3.421 216.4728)">
		<stop  offset="0" style="stop-color:#2F597B"/>
		<stop  offset="0.09" style="stop-color:#89A4C3"/>
		<stop  offset="0.16" style="stop-color:#4075A1"/>
		<stop  offset="0.64" style="stop-color:#3F739E"/>
		<stop  offset="0.92" style="stop-color:#3D719B"/>
		<stop  offset="1" style="stop-color:#2B5272"/>
	</linearGradient>
	<path fill="url(#SVGID_3_)" d="M173,65.496h205.5c13.5,0,24.875,11.238,24.875,25.102l-0.125,124.148
		c0,14.25-11.02,25.207-24.766,25.207L173,240.246c-13.5,0-24.75-11.531-24.75-25.395V90.246c0-13.5,11.141-24.75,24.887-24.75H173z
		"/>
	
		<linearGradient id="SVGID_4_" gradientUnits="userSpaceOnUse" x1="522.7271" y1="201.3066" x2="522.7271" y2="168.3057" gradientTransform="matrix(0.75 0 0 -0.75 -108.6476 443.3185)">
		<stop  offset="0" style="stop-color:#2C5274"/>
		<stop  offset="0.09" style="stop-color:#879FBC"/>
		<stop  offset="0.16" style="stop-color:#3C6D98"/>
		<stop  offset="0.64" style="stop-color:#3B6B95"/>
		<stop  offset="0.92" style="stop-color:#396992"/>
		<stop  offset="1" style="stop-color:#284C6B"/>
	</linearGradient>
	<path fill="url(#SVGID_4_)" d="M43.023,292.339h480.75v24.75H43.023V292.339z"/>
	
		<linearGradient id="SVGID_5_" gradientUnits="userSpaceOnUse" x1="483.2261" y1="201.3066" x2="483.2261" y2="-104.6943" gradientTransform="matrix(0.75 0 0 -0.75 -78.8693 468.42)">
		<stop  offset="0" style="stop-color:#3A6890"/>
		<stop  offset="0.09" style="stop-color:#8FB1D7"/>
		<stop  offset="0.16" style="stop-color:#4E89BC"/>
		<stop  offset="0.64" style="stop-color:#4C87B9"/>
		<stop  offset="0.92" style="stop-color:#4A83B4"/>
		<stop  offset="1" style="stop-color:#356085"/>
	</linearGradient>
	<path fill="url(#SVGID_5_)" d="M72.801,317.441h421.5v229.5h-421.5V317.441z"/>
	
		<linearGradient id="SVGID_6_" gradientUnits="userSpaceOnUse" x1="364.8423" y1="201.3047" x2="364.8423" y2="-86.6943" gradientTransform="matrix(0.75 0 0 -0.75 -82.7594 227.4552)">
		<stop  offset="0" style="stop-color:#3A6890"/>
		<stop  offset="0.09" style="stop-color:#8FB1D7"/>
		<stop  offset="0.16" style="stop-color:#4E89BC"/>
		<stop  offset="0.64" style="stop-color:#4C87B9"/>
		<stop  offset="0.92" style="stop-color:#4A83B4"/>
		<stop  offset="1" style="stop-color:#356085"/>
	</linearGradient>
	<path fill="url(#SVGID_6_)" d="M287.91,76.477c13.5,0,24.926,11.238,24.926,25.102l-0.176,124.148h-139.5l-30.75,31.5v35.25h-73.5
		v-151.5l67.5-64.5H287.91z"/>
	
		<linearGradient id="SVGID_7_" gradientUnits="userSpaceOnUse" x1="231.2236" y1="201.3037" x2="231.2236" y2="38.3037" gradientTransform="matrix(0.75 0 0 -0.75 185.2421 243.2482)">
		<stop  offset="0" style="stop-color:#4A769D"/>
		<stop  offset="0.09" style="stop-color:#99BEE5"/>
		<stop  offset="0.16" style="stop-color:#629ACC"/>
		<stop  offset="0.64" style="stop-color:#6098C9"/>
		<stop  offset="0.92" style="stop-color:#5E94C4"/>
		<stop  offset="1" style="stop-color:#446D91"/>
	</linearGradient>
	<path fill="url(#SVGID_7_)" d="M341.41,92.27h34.5c2.25,0,4.453,1.91,4.453,4.293l0.047,113.457c0,2.25-1.961,4.414-4.324,4.414
		l-34.676,0.086c-2.25,0-4.5-2.016-4.5-4.398V96.77c0-2.25,1.895-4.5,4.254-4.5H341.41z"/>
	
		<linearGradient id="SVGID_8_" gradientUnits="userSpaceOnUse" x1="224.2266" y1="561.6255" x2="202.2266" y2="561.6255" gradientTransform="matrix(0.75 0 0 0.75 -15.651 129.6718)">
		<stop  offset="0" style="stop-color:#232323"/>
		<stop  offset="0.15" style="stop-color:#838383"/>
		<stop  offset="0.25" style="stop-color:#9D9D9D"/>
		<stop  offset="0.63" style="stop-color:#484848"/>
		<stop  offset="0.84" style="stop-color:#252525"/>
		<stop  offset="1" style="stop-color:#232323"/>
	</linearGradient>
	<path fill="url(#SVGID_8_)" d="M136.02,547.14h16.5v7.5h-16.5V547.14z"/>
	
		<linearGradient id="SVGID_9_" gradientUnits="userSpaceOnUse" x1="270.2573" y1="554.0747" x2="202.2261" y2="554.0747" gradientTransform="matrix(0.75 0 0 0.75 -33.0529 148.4989)">
		<stop  offset="0" style="stop-color:#232323"/>
		<stop  offset="0.15" style="stop-color:#838383"/>
		<stop  offset="0.25" style="stop-color:#9D9D9D"/>
		<stop  offset="0.63" style="stop-color:#484848"/>
		<stop  offset="0.84" style="stop-color:#252525"/>
		<stop  offset="1" style="stop-color:#232323"/>
	</linearGradient>
	<path fill="url(#SVGID_9_)" d="M120.867,573.468h46.5c1.5,0,2.273-1.125,2.273-2.512l-0.023-13.988c0-1.5-1.09-2.328-2.465-2.328
		l-46.285,0.078c-1.5,0-2.25,1.047-2.25,2.434v14.066c0,1.5,1.113,2.25,2.488,2.25H120.867z"/>
	
		<linearGradient id="SVGID_10_" gradientUnits="userSpaceOnUse" x1="224.2212" y1="561.6255" x2="202.2212" y2="561.6255" gradientTransform="matrix(0.75 0 0 0.75 267.8641 129.6718)">
		<stop  offset="0" style="stop-color:#232323"/>
		<stop  offset="0.15" style="stop-color:#838383"/>
		<stop  offset="0.25" style="stop-color:#9D9D9D"/>
		<stop  offset="0.63" style="stop-color:#484848"/>
		<stop  offset="0.84" style="stop-color:#252525"/>
		<stop  offset="1" style="stop-color:#232323"/>
	</linearGradient>
	<path fill="url(#SVGID_10_)" d="M419.531,547.14h16.5v7.5h-16.5V547.14z"/>
	
		<linearGradient id="SVGID_11_" gradientUnits="userSpaceOnUse" x1="270.2583" y1="554.0747" x2="202.2212" y2="554.0747" gradientTransform="matrix(0.75 0 0 0.75 250.4618 148.4989)">
		<stop  offset="0" style="stop-color:#232323"/>
		<stop  offset="0.15" style="stop-color:#838383"/>
		<stop  offset="0.25" style="stop-color:#9D9D9D"/>
		<stop  offset="0.63" style="stop-color:#484848"/>
		<stop  offset="0.84" style="stop-color:#252525"/>
		<stop  offset="1" style="stop-color:#232323"/>
	</linearGradient>
	<path fill="url(#SVGID_11_)" d="M404.378,573.468h46.5c1.5,0,2.277-1.125,2.277-2.512l-0.027-13.988c0-1.5-1.086-2.328-2.461-2.328
		l-46.289,0.078c-1.5,0-2.25,1.047-2.25,2.434v14.066c0,1.5,1.117,2.25,2.492,2.25H404.378z"/>
	<path fill="#2B5171" d="M345.398,176.715c0-7.5,6.012-13.5,13.438-13.5c7.563,0,13.441,6.055,13.441,13.555
		c0.121,7.445-6.027,13.555-13.441,13.555c-7.438-0.109-13.438-6.09-13.438-13.555V176.715z"/>
	
		<linearGradient id="SVGID_12_" gradientUnits="userSpaceOnUse" x1="235.3857" y1="170.8379" x2="200.9248" y2="199.7541" gradientTransform="matrix(0.75 0 0 -0.75 195.2391 315.7189)">
		<stop  offset="0" style="stop-color:#457DAC"/>
		<stop  offset="0.15" style="stop-color:#73B1E9"/>
		<stop  offset="0.25" style="stop-color:#6DADE8"/>
		<stop  offset="0.52" style="stop-color:#5394CB"/>
		<stop  offset="0.69" style="stop-color:#4984B5"/>
		<stop  offset="0.8" style="stop-color:#447CAA"/>
		<stop  offset="0.92" style="stop-color:#4075A1"/>
		<stop  offset="1" style="stop-color:#4B87B9"/>
	</linearGradient>
	<path fill="url(#SVGID_12_)" d="M346.906,176.742c0-6.75,5.34-12,11.93-12c6.82,0,11.926,5.371,11.926,12.027
		c0.145,6.723-5.348,12.027-11.926,12.027c-6.68-0.055-11.93-5.402-11.93-12.027V176.742z"/>
	<path fill="#004A47" d="M347.335,131.23c0-6,5.055-11.25,11.297-11.25c5.953,0,11.301,5.09,11.301,11.395
		c-0.098,6.605-5.066,11.395-11.301,11.395c-6.047-0.289-11.297-5.117-11.297-11.395V131.23z"/>
	
		<linearGradient id="SVGID_13_" gradientUnits="userSpaceOnUse" x1="230.1035" y1="175.6851" x2="201.1294" y2="199.9972" gradientTransform="matrix(0.75 0 0 -0.75 196.9384 272.2384)">
		<stop  offset="0" style="stop-color:#008073"/>
		<stop  offset="0.15" style="stop-color:#45B4A5"/>
		<stop  offset="0.25" style="stop-color:#19AF9E"/>
		<stop  offset="0.52" style="stop-color:#009889"/>
		<stop  offset="0.69" style="stop-color:#008779"/>
		<stop  offset="0.8" style="stop-color:#007F72"/>
		<stop  offset="0.92" style="stop-color:#00786B"/>
		<stop  offset="1" style="stop-color:#008A7C"/>
	</linearGradient>
	<path fill="url(#SVGID_13_)" d="M348.605,131.012c0-5.25,4.488-9.75,10.027-9.75c5.723,0,10.027,4.516,10.027,10.113
		c0.195,5.637-4.496,10.109-10.027,10.109c-5.527,0.027-10.027-4.543-10.027-10.109V131.012z"/>
	
		<linearGradient id="SVGID_14_" gradientUnits="userSpaceOnUse" x1="16.8018" y1="287.2983" x2="16.8018" y2="365.7046" gradientTransform="matrix(0 -0.75 -0.75 0 452.923 18.4103)">
		<stop  offset="0" style="stop-color:#457DAC"/>
		<stop  offset="0.15" style="stop-color:#73B1E9"/>
		<stop  offset="0.25" style="stop-color:#BED6F3"/>
		<stop  offset="0.52" style="stop-color:#5394CB"/>
		<stop  offset="0.69" style="stop-color:#4984B5"/>
		<stop  offset="0.8" style="stop-color:#447CAA"/>
		<stop  offset="0.92" style="stop-color:#4075A1"/>
		<stop  offset="1" style="stop-color:#4B87B9"/>
	</linearGradient>
	<path fill="url(#SVGID_14_)" d="M178.645,11.434V0.184c0-3,0.391-5.992,0.867-5.992l56.883-0.008c0.75,0,1.055,2.781,1.055,6.203
		l-0.305,11.047c0,3-0.086,6-0.563,6h-57.188c0,0-0.75-2.777-0.75-6.199V11.434z"/>
	
		<linearGradient id="SVGID_15_" gradientUnits="userSpaceOnUse" x1="17.9243" y1="362.2583" x2="17.9243" y2="365.7007" gradientTransform="matrix(0 -0.75 -0.75 0 462.7677 19.2657)">
		<stop  offset="0" style="stop-color:#457DAC"/>
		<stop  offset="0.15" style="stop-color:#73B1E9"/>
		<stop  offset="0.25" style="stop-color:#BED6F3"/>
		<stop  offset="0.52" style="stop-color:#5394CB"/>
		<stop  offset="0.69" style="stop-color:#4984B5"/>
		<stop  offset="0.8" style="stop-color:#447CAA"/>
		<stop  offset="0.92" style="stop-color:#4075A1"/>
		<stop  offset="1" style="stop-color:#4B87B9"/>
	</linearGradient>
	<path fill="url(#SVGID_15_)" d="M188.492,17.539v-23.25c0-0.75,0.367-0.934,0.832-0.934l0.668,0.184c0.75,0,1.082,0.094,1.082,0.43
		l-0.332,23.57c0,0.75-0.047,0.75-0.508,0.75h-0.992c-0.75,0-0.75-0.273-0.75-0.613V17.539z"/>
	
		<linearGradient id="SVGID_16_" gradientUnits="userSpaceOnUse" x1="17.9243" y1="362.2593" x2="17.9243" y2="365.7031" gradientTransform="matrix(0 -0.75 -0.75 0 481.1349 19.2657)">
		<stop  offset="0" style="stop-color:#457DAC"/>
		<stop  offset="0.15" style="stop-color:#73B1E9"/>
		<stop  offset="0.25" style="stop-color:#BED6F3"/>
		<stop  offset="0.52" style="stop-color:#5394CB"/>
		<stop  offset="0.69" style="stop-color:#4984B5"/>
		<stop  offset="0.8" style="stop-color:#447CAA"/>
		<stop  offset="0.92" style="stop-color:#4075A1"/>
		<stop  offset="1" style="stop-color:#4B87B9"/>
	</linearGradient>
	<path fill="url(#SVGID_16_)" d="M206.855,17.539v-23.25c0-0.75,0.371-0.934,0.836-0.934l0.664,0.184c0.75,0,1.086,0.094,1.086,0.43
		l-0.336,23.57c0,0.75-0.043,0.75-0.504,0.75h-0.996c-0.75,0-0.75-0.273-0.75-0.613V17.539z"/>
	
		<linearGradient id="SVGID_17_" gradientUnits="userSpaceOnUse" x1="17.9243" y1="362.2573" x2="17.9243" y2="365.7056" gradientTransform="matrix(0 -0.75 -0.75 0 490.2794 19.2657)">
		<stop  offset="0" style="stop-color:#457DAC"/>
		<stop  offset="0.15" style="stop-color:#73B1E9"/>
		<stop  offset="0.25" style="stop-color:#BED6F3"/>
		<stop  offset="0.52" style="stop-color:#5394CB"/>
		<stop  offset="0.69" style="stop-color:#4984B5"/>
		<stop  offset="0.8" style="stop-color:#447CAA"/>
		<stop  offset="0.92" style="stop-color:#4075A1"/>
		<stop  offset="1" style="stop-color:#4B87B9"/>
	</linearGradient>
	<path fill="url(#SVGID_17_)" d="M216,17.539v-23.25c0-0.75,0.371-0.934,0.836-0.934l0.664,0.184c0.75,0,1.086,0.094,1.086,0.43
		l-0.336,23.57c0,0.75-0.043,0.75-0.504,0.75h-0.996c-0.75,0-0.75-0.273-0.75-0.613V17.539z"/>
	
		<linearGradient id="SVGID_18_" gradientUnits="userSpaceOnUse" x1="17.9243" y1="362.2593" x2="17.9243" y2="365.7031" gradientTransform="matrix(0 -0.75 -0.75 0 499.4493 19.2657)">
		<stop  offset="0" style="stop-color:#457DAC"/>
		<stop  offset="0.15" style="stop-color:#73B1E9"/>
		<stop  offset="0.25" style="stop-color:#BED6F3"/>
		<stop  offset="0.52" style="stop-color:#5394CB"/>
		<stop  offset="0.69" style="stop-color:#4984B5"/>
		<stop  offset="0.8" style="stop-color:#447CAA"/>
		<stop  offset="0.92" style="stop-color:#4075A1"/>
		<stop  offset="1" style="stop-color:#4B87B9"/>
	</linearGradient>
	<path fill="url(#SVGID_18_)" d="M225.172,17.539v-23.25c0-0.75,0.371-0.934,0.832-0.934l0.668,0.184c0.75,0,1.086,0.094,1.086,0.43
		l-0.336,23.57c0,0.75-0.043,0.75-0.504,0.75h-0.996c-0.75,0-0.75-0.273-0.75-0.613V17.539z"/>
	
		<linearGradient id="SVGID_19_" gradientUnits="userSpaceOnUse" x1="17.9243" y1="362.2612" x2="17.9243" y2="365.7036" gradientTransform="matrix(0 -0.75 -0.75 0 471.9376 19.2657)">
		<stop  offset="0" style="stop-color:#457DAC"/>
		<stop  offset="0.15" style="stop-color:#73B1E9"/>
		<stop  offset="0.25" style="stop-color:#BED6F3"/>
		<stop  offset="0.52" style="stop-color:#5394CB"/>
		<stop  offset="0.69" style="stop-color:#4984B5"/>
		<stop  offset="0.8" style="stop-color:#447CAA"/>
		<stop  offset="0.92" style="stop-color:#4075A1"/>
		<stop  offset="1" style="stop-color:#4B87B9"/>
	</linearGradient>
	<path fill="url(#SVGID_19_)" d="M197.66,17.539v-23.25c0-0.75,0.371-0.934,0.832-0.934l0.668,0.184c0.75,0,1.082,0.094,1.082,0.43
		l-0.332,23.57c0,0.75-0.043,0.75-0.508,0.75h-0.992c-0.75,0-0.75-0.273-0.75-0.613V17.539z"/>
	
		<linearGradient id="SVGID_20_" gradientUnits="userSpaceOnUse" x1="249.4141" y1="180.4326" x2="202.2275" y2="180.4326" gradientTransform="matrix(0.75 0 0 -0.75 106.4462 327.8048)">
		<stop  offset="0" style="stop-color:#161616"/>
		<stop  offset="0.15" style="stop-color:#464646"/>
		<stop  offset="0.25" style="stop-color:#474747"/>
		<stop  offset="0.63" style="stop-color:#000000"/>
	</linearGradient>
	<path fill="url(#SVGID_20_)" d="M284.367,176.828c1.5,0.75,1.176,4.73,3.32,8.512c1.93,3.488,5.82,5.07,5.82,7.09
		c-0.141,1.648-3.645,3.402-5.672,6.828c-1.969,3.07-1.188,7.43-3.18,8.598c-1.789,1.223-4.324-1.453-8.89-1.426
		c-4.898,0.398-7.074,2.348-8.805,1.426c-2.094-1.027-0.922-4.367-3.336-8.48c-1.758-3.797-5.508-4.648-5.508-6.945
		c0-2.102,3.23-3.246,5.641-7.293c2.609-3.809,1.918-7.496,3.203-8.137c1.656-0.922,3.969,1.426,8.93,1.426
		c4.727-0.098,7.406-2.27,8.765-1.426L284.367,176.828z"/>
	<path fill="#FFFFFF" fill-opacity="0.2" d="M283.832,177.652c1.5,0.75,1.179,4.484,3.207,8.063
		c2.043,3.938,5.504,4.801,5.504,6.719c0.289,1.719-3.445,3.223-5.359,6.465c-1.852,3.504-1.125,7.039-3.012,8.148
		c-1.839,1.355-4.085-1.375-8.406-1.352c-4.684-0.293-6.688,2.223-8.32,1.352c-1.613-0.895-0.875-4.137-3.156-8.035
		c-2.207-3.359-5.207-4.402-5.207-6.578c0-2.031,3.055-3.074,5.336-6.91c2.164-4.121,1.809-7.102,3.027-7.707
		c1.387-0.914,3.75,1.348,8.441,1.348c4.945-0.012,7.004-2.148,8.285-1.348L283.832,177.652z"/>
	<path fill="#242020" stroke="#3E3938" stroke-linejoin="bevel" stroke-miterlimit="10" d="M264.945,192.766
		c0-6,4.863-11.25,10.867-11.25c5.633,0,10.867,4.91,10.867,10.961c0.016,6.289-4.867,10.961-10.867,10.961
		c-6.367-0.172-10.867-4.906-10.867-10.961V192.766z"/>
	<path fill="#FFFFFF" fill-opacity="0.1725" d="M275.973,193.496c0-5.25-5.352-10.5-0.16-10.5c5.41,0,9.398,4.246,9.398,9.492
		c-0.238,5.508-4.207,9.469-9.398,9.469c-5.09-0.211,0.516-3.543,0.516-8.777L275.973,193.496z"/>
	
		<linearGradient id="SVGID_21_" gradientUnits="userSpaceOnUse" x1="231.2236" y1="201.3057" x2="231.2236" y2="38.3057" gradientTransform="matrix(0.75 0 0 -0.75 262.3358 497.7052)">
		<stop  offset="0" style="stop-color:#4A769D"/>
		<stop  offset="0.09" style="stop-color:#99BEE5"/>
		<stop  offset="0.16" style="stop-color:#629ACC"/>
		<stop  offset="0.64" style="stop-color:#6098C9"/>
		<stop  offset="0.92" style="stop-color:#5E94C4"/>
		<stop  offset="1" style="stop-color:#446D91"/>
	</linearGradient>
	<path fill="url(#SVGID_21_)" d="M418.503,346.726h34.5c2.25,0,4.453,1.91,4.453,4.289l0.047,113.461
		c0,2.25-1.961,4.414-4.324,4.414l-34.676,0.086c-2.25,0-4.5-2.02-4.5-4.398V351.226c0-2.25,1.895-4.5,4.254-4.5H418.503z"/>
	
		<linearGradient id="SVGID_22_" gradientUnits="userSpaceOnUse" x1="249.4131" y1="180.4321" x2="202.2256" y2="180.4321" gradientTransform="matrix(0.75 0 0 -0.75 266.3495 511.8986)">
		<stop  offset="0" style="stop-color:#161616"/>
		<stop  offset="0.15" style="stop-color:#464646"/>
		<stop  offset="0.25" style="stop-color:#474747"/>
		<stop  offset="0.63" style="stop-color:#000000"/>
	</linearGradient>
	<path fill="url(#SVGID_22_)" d="M444.269,360.921c1.5,0.75,1.176,4.73,3.32,8.512c1.93,3.488,5.82,5.07,5.82,7.09
		c-0.141,1.648-3.645,3.402-5.672,6.828c-1.969,3.07-1.184,7.43-3.18,8.602c-1.789,1.219-4.324-1.453-8.891-1.426
		c-4.898,0.395-7.074,2.344-8.805,1.426c-2.094-1.031-0.922-4.367-3.336-8.484c-1.758-3.797-5.508-4.648-5.508-6.945
		c0-2.102,3.23-3.246,5.645-7.293c2.605-3.809,1.914-7.496,3.199-8.137c1.656-0.922,3.969,1.426,8.93,1.426
		c4.727-0.098,7.41-2.27,8.766-1.426L444.269,360.921z"/>
	<path fill="#FFFFFF" fill-opacity="0.2" d="M443.734,361.746c1.5,0.75,1.18,4.484,3.207,8.063c2.043,3.938,5.504,4.805,5.504,6.719
		c0.289,1.719-3.445,3.223-5.359,6.465c-1.852,3.504-1.125,7.039-3.012,8.148c-1.84,1.355-4.086-1.375-8.402-1.352
		c-4.688-0.293-6.691,2.223-8.324,1.352c-1.613-0.895-0.875-4.137-3.156-8.035c-2.207-3.359-5.207-4.402-5.207-6.578
		c0-2.031,3.055-3.074,5.336-6.91c2.164-4.121,1.809-7.102,3.027-7.707c1.387-0.914,3.754,1.348,8.441,1.348
		c4.945-0.012,7.004-2.148,8.285-1.348L443.734,361.746z"/>
	<path fill="#242020" stroke="#3E3938" stroke-linejoin="bevel" stroke-miterlimit="10" d="M424.847,376.859
		c0-6,4.863-11.25,10.867-11.25c5.633,0,10.867,4.91,10.867,10.961c0.016,6.289-4.867,10.961-10.867,10.961
		c-6.367-0.172-10.867-4.906-10.867-10.961V376.859z"/>
	<path fill="#FFFFFF" fill-opacity="0.1725" d="M435.875,377.593c0-5.25-5.352-10.5-0.16-10.5c5.41,0,9.398,4.242,9.398,9.488
		c-0.238,5.512-4.207,9.469-9.398,9.469c-5.09-0.207,0.52-3.543,0.52-8.777L435.875,377.593z"/>
	
		<linearGradient id="SVGID_23_" gradientUnits="userSpaceOnUse" x1="249.4131" y1="180.4316" x2="202.2256" y2="180.4316" gradientTransform="matrix(0.75 0 0 -0.75 266.3495 573.0909)">
		<stop  offset="0" style="stop-color:#161616"/>
		<stop  offset="0.15" style="stop-color:#464646"/>
		<stop  offset="0.25" style="stop-color:#474747"/>
		<stop  offset="0.63" style="stop-color:#000000"/>
	</linearGradient>
	<path fill="url(#SVGID_23_)" d="M444.269,422.113c1.5,0.75,1.176,4.73,3.32,8.512c1.93,3.488,5.82,5.07,5.82,7.09
		c-0.141,1.648-3.645,3.402-5.672,6.828c-1.969,3.07-1.184,7.43-3.18,8.602c-1.789,1.219-4.324-1.453-8.891-1.426
		c-4.898,0.395-7.074,2.344-8.805,1.426c-2.094-1.031-0.922-4.367-3.336-8.484c-1.758-3.797-5.508-4.648-5.508-6.945
		c0-2.102,3.23-3.246,5.645-7.293c2.605-3.809,1.914-7.496,3.199-8.133c1.656-0.926,3.969,1.422,8.93,1.422
		c4.727-0.098,7.41-2.27,8.766-1.422L444.269,422.113z"/>
	<path fill="#FFFFFF" fill-opacity="0.2" d="M443.734,422.937c1.5,0.75,1.18,4.484,3.207,8.063c2.043,3.938,5.504,4.805,5.504,6.719
		c0.289,1.719-3.445,3.223-5.359,6.465c-1.852,3.504-1.125,7.039-3.012,8.148c-1.84,1.355-4.086-1.375-8.402-1.352
		c-4.688-0.293-6.691,2.223-8.324,1.352c-1.613-0.895-0.875-4.137-3.156-8.035c-2.207-3.359-5.207-4.402-5.207-6.578
		c0-2.031,3.055-3.074,5.336-6.91c2.164-4.121,1.809-7.102,3.027-7.707c1.387-0.914,3.754,1.352,8.441,1.352
		c4.945-0.016,7.004-2.152,8.285-1.352L443.734,422.937z"/>
	<path fill="#242020" stroke="#3E3938" stroke-linejoin="bevel" stroke-miterlimit="10" d="M424.847,438.054
		c0-6,4.863-11.25,10.867-11.25c5.633,0,10.867,4.906,10.867,10.957c0.016,6.293-4.867,10.961-10.867,10.961
		c-6.367-0.168-10.867-4.906-10.867-10.961V438.054z"/>
	<path fill="#FFFFFF" fill-opacity="0.1725" d="M435.875,438.785c0-5.25-5.352-10.5-0.16-10.5c5.41,0,9.398,4.242,9.398,9.492
		c-0.238,5.508-4.207,9.465-9.398,9.465c-5.09-0.207,0.52-3.543,0.52-8.777L435.875,438.785z"/>
</g>
</svg>
