<?xml version="1.0" encoding="utf-8"?>
<!-- Generator: Adobe Illustrator 16.0.0, SVG Export Plug-In . SVG Version: 6.00 Build 0)  -->
<!DOCTYPE svg PUBLIC "-//W3C//DTD SVG 1.1//EN" "http://www.w3.org/Graphics/SVG/1.1/DTD/svg11.dtd">
<svg preserveAspectRatio="none"   version="1.1" id="图层_1" xmlns="http://www.w3.org/2000/svg" xmlns:xlink="http://www.w3.org/1999/xlink" x="0px" y="0px"
	 width="533.136px" height="561.552px" viewBox="16.836 2.803 533.136 561.552"
	 enable-background="new 16.836 2.803 533.136 561.552" xml:space="preserve">
<g id="surface11">
	
		<linearGradient id="SVGID_1_" gradientUnits="userSpaceOnUse" x1="272.2256" y1="173.8047" x2="202.2256" y2="173.8047" gradientTransform="matrix(0.75 0 0 -0.75 37.0765 469.7198)">
		<stop  offset="0" style="stop-color:#A1A9B3"/>
		<stop  offset="0.09" style="stop-color:#A3ACB6"/>
		<stop  offset="0.36" style="stop-color:#C9D4E0"/>
		<stop  offset="0.56" style="stop-color:#B5BFC9"/>
		<stop  offset="0.83" style="stop-color:#9199A2"/>
		<stop  offset="1" style="stop-color:#676D74"/>
	</linearGradient>
	<path fill="url(#SVGID_1_)" d="M188.746,318.742h52.5v41.25h-52.5V318.742z"/>
	
		<linearGradient id="SVGID_2_" gradientUnits="userSpaceOnUse" x1="260.2021" y1="201.3057" x2="260.2021" y2="170.3057" gradientTransform="matrix(-0.75 0 0 -0.75 291.7365 538.6583)">
		<stop  offset="0" style="stop-color:#9DA6B2"/>
		<stop  offset="0.09" style="stop-color:#A0A9B4"/>
		<stop  offset="0.36" style="stop-color:#C5D0DE"/>
		<stop  offset="0.56" style="stop-color:#B1BBC8"/>
		<stop  offset="0.83" style="stop-color:#8E96A1"/>
		<stop  offset="1" style="stop-color:#656B72"/>
	</linearGradient>
	<path fill="url(#SVGID_2_)" d="M167.461,387.679H25.711v23.25h141.75V387.679z"/>
	
		<linearGradient id="SVGID_3_" gradientUnits="userSpaceOnUse" x1="299.2251" y1="132.8076" x2="202.2256" y2="132.8076" gradientTransform="matrix(0.75 0 0 -0.75 26.9789 555.132)">
		<stop  offset="0" style="stop-color:#9DA6B2"/>
		<stop  offset="0.09" style="stop-color:#A0A9B4"/>
		<stop  offset="0.36" style="stop-color:#C5D0DE"/>
		<stop  offset="0.56" style="stop-color:#B1BBC8"/>
		<stop  offset="0.83" style="stop-color:#8E96A1"/>
		<stop  offset="1" style="stop-color:#656B72"/>
	</linearGradient>
	<path fill="url(#SVGID_3_)" d="M178.648,404.152h72.75v102.75h-72.75V404.152z"/>
	
		<linearGradient id="SVGID_4_" gradientUnits="userSpaceOnUse" x1="564.2241" y1="73.3071" x2="202.2251" y2="73.3071" gradientTransform="matrix(0.75 0 0 -0.75 -72.7003 249.1036)">
		<stop  offset="0" style="stop-color:#A1A9B3"/>
		<stop  offset="0.09" style="stop-color:#A3ACB6"/>
		<stop  offset="0.36" style="stop-color:#C9D4E0"/>
		<stop  offset="0.56" style="stop-color:#B5BFC9"/>
		<stop  offset="0.83" style="stop-color:#9199A2"/>
		<stop  offset="1" style="stop-color:#676D74"/>
	</linearGradient>
	<path fill="url(#SVGID_4_)" d="M350.468,98.125h-271.5l108.75,192h54.75L350.468,98.125z"/>
	
		<linearGradient id="SVGID_5_" gradientUnits="userSpaceOnUse" x1="304.2271" y1="191.8262" x2="202.2271" y2="191.8262" gradientTransform="matrix(0.75 0 0 -0.75 24.9774 439.5665)">
		<stop  offset="0" style="stop-color:#A1A9B3"/>
		<stop  offset="0.09" style="stop-color:#A3ACB6"/>
		<stop  offset="0.36" style="stop-color:#C9D4E0"/>
		<stop  offset="0.56" style="stop-color:#B5BFC9"/>
		<stop  offset="0.83" style="stop-color:#9199A2"/>
		<stop  offset="1" style="stop-color:#676D74"/>
	</linearGradient>
	<path fill="url(#SVGID_5_)" d="M180.398,288.589h69c2.25,0,3.656,1.668,3.656,3.773l0.094,6.727c0,2.25-1.801,3.742-3.914,3.742
		l-68.836,0.008c-2.25,0-3.75-1.711-3.75-3.813v-6.688c0-2.25,1.707-3.785,3.82-3.785L180.398,288.589z"/>
	
		<linearGradient id="SVGID_6_" gradientUnits="userSpaceOnUse" x1="272.2266" y1="194.8066" x2="202.2266" y2="194.8066" gradientTransform="matrix(0.75 0 0 -0.75 37.0756 453.2335)">
		<stop  offset="0" style="stop-color:#8D99A8"/>
		<stop  offset="0.09" style="stop-color:#8F9CAA"/>
		<stop  offset="0.36" style="stop-color:#B1C0D2"/>
		<stop  offset="0.56" style="stop-color:#9FADBD"/>
		<stop  offset="0.83" style="stop-color:#7F8A98"/>
		<stop  offset="1" style="stop-color:#5A626C"/>
	</linearGradient>
	<path fill="url(#SVGID_6_)" d="M188.746,302.253h52.5v9.75h-52.5V302.253z"/>
	
		<linearGradient id="SVGID_7_" gradientUnits="userSpaceOnUse" x1="304.2271" y1="191.8301" x2="202.2271" y2="191.8301" gradientTransform="matrix(0.75 0 0 -0.75 24.9774 459.1984)">
		<stop  offset="0" style="stop-color:#A1A9B3"/>
		<stop  offset="0.09" style="stop-color:#A3ACB6"/>
		<stop  offset="0.36" style="stop-color:#C9D4E0"/>
		<stop  offset="0.56" style="stop-color:#B5BFC9"/>
		<stop  offset="0.83" style="stop-color:#9199A2"/>
		<stop  offset="1" style="stop-color:#676D74"/>
	</linearGradient>
	<path fill="url(#SVGID_7_)" d="M180.398,308.218h69c2.25,0,3.656,1.672,3.656,3.773l0.094,6.727c0,2.25-1.801,3.746-3.914,3.746
		l-68.836,0.004c-2.25,0-3.75-1.707-3.75-3.813v-6.688c0-2.25,1.707-3.785,3.82-3.785L180.398,308.218z"/>
	<path fill="#A2AFBD" d="M73.391,83.18h282.75c0,0,0.766,0.684,0.766,1.523L356.89,98.93c0,0.75-0.375,1.387-0.859,1.387
		l-282.64,0.113c0,0-0.75-0.793-0.75-1.637V84.68c0-0.75,0.391-1.5,0.879-1.5H73.391z"/>
	
		<linearGradient id="SVGID_8_" gradientUnits="userSpaceOnUse" x1="319.2231" y1="134.8066" x2="202.2231" y2="134.8066" gradientTransform="matrix(0.75 0 0 -0.75 19.2186 508.3693)">
		<stop  offset="0" style="stop-color:#A1A9B3"/>
		<stop  offset="0.09" style="stop-color:#A3ACB6"/>
		<stop  offset="0.36" style="stop-color:#C9D4E0"/>
		<stop  offset="0.56" style="stop-color:#B5BFC9"/>
		<stop  offset="0.83" style="stop-color:#9199A2"/>
		<stop  offset="1" style="stop-color:#676D74"/>
	</linearGradient>
	<path fill="url(#SVGID_8_)" d="M170.887,357.39h87.75v99.75h-87.75V357.39z"/>
	
		<linearGradient id="SVGID_9_" gradientUnits="userSpaceOnUse" x1="336.2271" y1="190.1797" x2="202.2266" y2="190.1797" gradientTransform="matrix(0.75 0 0 -0.75 12.9427 657.4034)">
		<stop  offset="0" style="stop-color:#A1A9B3"/>
		<stop  offset="0.09" style="stop-color:#A3ACB6"/>
		<stop  offset="0.36" style="stop-color:#C9D4E0"/>
		<stop  offset="0.56" style="stop-color:#B5BFC9"/>
		<stop  offset="0.83" style="stop-color:#9199A2"/>
		<stop  offset="1" style="stop-color:#676D74"/>
	</linearGradient>
	<path fill="url(#SVGID_9_)" d="M169.863,506.425h90c3,0,5.227,2.191,5.227,4.902l0.023,7.098c0,2.25-2.25,4.688-4.973,4.688
		l-90.277-0.188c-3,0-5.25-2.012-5.25-4.723v-6.527c0-3,2.172-5.25,4.895-5.25H169.863z"/>
	<path fill="#A1A9B3" d="M24.223,522.496h525.75v36H24.223V522.496z"/>
	
		<linearGradient id="SVGID_10_" gradientUnits="userSpaceOnUse" x1="11.8047" y1="402.2241" x2="11.8047" y2="244.2246" gradientTransform="matrix(0 -0.75 0.75 0 191.3036 514.9503)">
		<stop  offset="0" style="stop-color:#9DA6B2"/>
		<stop  offset="0.09" style="stop-color:#A0A9B4"/>
		<stop  offset="0.36" style="stop-color:#C5D0DE"/>
		<stop  offset="0.56" style="stop-color:#B1BBC8"/>
		<stop  offset="0.83" style="stop-color:#8E96A1"/>
		<stop  offset="1" style="stop-color:#656B72"/>
	</linearGradient>
	<path fill="url(#SVGID_10_)" d="M492.972,510.972v-12.75h-118.5v12.75c0,1.5,1.277,3,2.836,3h112.664c1.5,0,3-1.262,3-2.82V510.972
		z"/>
	
		<linearGradient id="SVGID_11_" gradientUnits="userSpaceOnUse" x1="87.8047" y1="402.228" x2="87.8047" y2="238.228" gradientTransform="matrix(0 -0.75 0.75 0 193.5673 492.4073)">
		<stop  offset="0" style="stop-color:#9DA6B2"/>
		<stop  offset="0.09" style="stop-color:#A0A9B4"/>
		<stop  offset="0.36" style="stop-color:#C5D0DE"/>
		<stop  offset="0.56" style="stop-color:#B1BBC8"/>
		<stop  offset="0.83" style="stop-color:#8E96A1"/>
		<stop  offset="1" style="stop-color:#656B72"/>
	</linearGradient>
	<path fill="url(#SVGID_11_)" d="M495.238,491.429v-129.75h-123v129.75H495.238z"/>
	
		<linearGradient id="SVGID_12_" gradientUnits="userSpaceOnUse" x1="43.8506" y1="402.2251" x2="43.8506" y2="237.9536" gradientTransform="matrix(0 -0.75 0.75 0 193.5692 367.1075)">
		<stop  offset="0" style="stop-color:#9DA6B2"/>
		<stop  offset="0.09" style="stop-color:#A0A9B4"/>
		<stop  offset="0.36" style="stop-color:#C5D0DE"/>
		<stop  offset="0.56" style="stop-color:#B1BBC8"/>
		<stop  offset="0.83" style="stop-color:#8E96A1"/>
		<stop  offset="1" style="stop-color:#656B72"/>
	</linearGradient>
	<path fill="url(#SVGID_12_)" d="M495.238,366.128v-45c0,0,0-18.531-61.602-18.816c-61.398,0.066-61.602,18.938-61.602,18.938
		l0.203,44.879H495.238z"/>
	
		<linearGradient id="SVGID_13_" gradientUnits="userSpaceOnUse" x1="371.5933" y1="402.2251" x2="371.5933" y2="229.1362" gradientTransform="matrix(0 0.75 0.75 0 196.9598 216.1796)">
		<stop  offset="0" style="stop-color:#717781"/>
		<stop  offset="0.09" style="stop-color:#737983"/>
		<stop  offset="0.36" style="stop-color:#8E96A2"/>
		<stop  offset="0.56" style="stop-color:#808792"/>
		<stop  offset="0.83" style="stop-color:#666C74"/>
		<stop  offset="1" style="stop-color:#474B52"/>
	</linearGradient>
	<path fill="url(#SVGID_13_)" d="M498.628,492.648v4.5c0,0.75-0.57,1.492-1.281,1.492l-126.969,0.008
		c-0.75,0-1.566-0.586-1.566-1.297l0.066-4.703c0-0.75,0.555-1.547,1.27-1.547l126.98,0.047c0.75,0,1.5,0.531,1.5,1.242V492.648z"/>
	
		<linearGradient id="SVGID_14_" gradientUnits="userSpaceOnUse" x1="369.603" y1="402.2251" x2="369.603" y2="229.2251" gradientTransform="matrix(0 0.75 0.75 0 196.8075 219.12)">
		<stop  offset="0" style="stop-color:#9DA6B2"/>
		<stop  offset="0.09" style="stop-color:#A0A9B4"/>
		<stop  offset="0.36" style="stop-color:#C5D0DE"/>
		<stop  offset="0.56" style="stop-color:#B1BBC8"/>
		<stop  offset="0.83" style="stop-color:#8E96A1"/>
		<stop  offset="1" style="stop-color:#656B72"/>
	</linearGradient>
	<path fill="url(#SVGID_14_)" d="M498.476,495.589v1.5c0,0.75-0.574,1.527-1.289,1.527l-126.961-0.027
		c-0.75,0-1.266-0.719-1.266-1.637l-0.234-1.363c0-0.75,0.848-1.563,1.563-1.563l126.688,0.063c0.75,0,1.5,0.68,1.5,1.602V495.589z"
		/>
	
		<linearGradient id="SVGID_15_" gradientUnits="userSpaceOnUse" x1="74.3037" y1="402.2788" x2="74.3037" y2="396.7378" gradientTransform="matrix(0 -0.75 0.75 0 165.9618 478.6173)">
		<stop  offset="0" style="stop-color:#9DA6B2"/>
		<stop  offset="0.09" style="stop-color:#A0A9B4"/>
		<stop  offset="0.36" style="stop-color:#C5D0DE"/>
		<stop  offset="0.56" style="stop-color:#B1BBC8"/>
		<stop  offset="0.83" style="stop-color:#8E96A1"/>
		<stop  offset="1" style="stop-color:#656B72"/>
	</linearGradient>
	<path fill="url(#SVGID_15_)" d="M467.628,476.89V369.64c0-0.75-0.535-1.254-1.25-1.254l-1.75-0.246
		c-0.75,0-1.113,0.715-1.113,1.293l0.363,107.457c0,0,0.215,0.75,0.93,0.75h1.32c0.75,0,1.543-0.434,1.543-1.012L467.628,476.89z"/>
	
		<linearGradient id="SVGID_16_" gradientUnits="userSpaceOnUse" x1="74.3037" y1="402.2808" x2="74.3037" y2="396.7397" gradientTransform="matrix(0 -0.75 0.75 0 153.8593 478.6173)">
		<stop  offset="0" style="stop-color:#9DA6B2"/>
		<stop  offset="0.09" style="stop-color:#A0A9B4"/>
		<stop  offset="0.36" style="stop-color:#C5D0DE"/>
		<stop  offset="0.56" style="stop-color:#B1BBC8"/>
		<stop  offset="0.83" style="stop-color:#8E96A1"/>
		<stop  offset="1" style="stop-color:#656B72"/>
	</linearGradient>
	<path fill="url(#SVGID_16_)" d="M455.527,476.89V369.64c0-0.75-0.535-1.254-1.25-1.254l-1.75-0.246
		c-0.75,0-1.113,0.715-1.113,1.293l0.363,107.457c0,0,0.215,0.75,0.93,0.75h1.32c0.75,0,1.543-0.434,1.543-1.012L455.527,476.89z"/>
	
		<linearGradient id="SVGID_17_" gradientUnits="userSpaceOnUse" x1="74.3037" y1="402.2808" x2="74.3037" y2="396.7388" gradientTransform="matrix(0 -0.75 0.75 0 141.7577 478.6173)">
		<stop  offset="0" style="stop-color:#9DA6B2"/>
		<stop  offset="0.09" style="stop-color:#A0A9B4"/>
		<stop  offset="0.36" style="stop-color:#C5D0DE"/>
		<stop  offset="0.56" style="stop-color:#B1BBC8"/>
		<stop  offset="0.83" style="stop-color:#8E96A1"/>
		<stop  offset="1" style="stop-color:#656B72"/>
	</linearGradient>
	<path fill="url(#SVGID_17_)" d="M443.425,476.89V369.64c0-0.75-0.539-1.254-1.25-1.254l-1.75-0.246
		c-0.75,0-1.113,0.715-1.113,1.293l0.363,107.457c0,0,0.215,0.75,0.93,0.75h1.32c0.75,0,1.543-0.434,1.543-1.012L443.425,476.89z"/>
	
		<linearGradient id="SVGID_18_" gradientUnits="userSpaceOnUse" x1="74.3037" y1="402.2759" x2="74.3037" y2="396.7397" gradientTransform="matrix(0 -0.75 0.75 0 129.6561 478.6173)">
		<stop  offset="0" style="stop-color:#9DA6B2"/>
		<stop  offset="0.09" style="stop-color:#A0A9B4"/>
		<stop  offset="0.36" style="stop-color:#C5D0DE"/>
		<stop  offset="0.56" style="stop-color:#B1BBC8"/>
		<stop  offset="0.83" style="stop-color:#8E96A1"/>
		<stop  offset="1" style="stop-color:#656B72"/>
	</linearGradient>
	<path fill="url(#SVGID_18_)" d="M431.324,476.89V369.64c0-0.75-0.539-1.254-1.25-1.254l-1.75-0.246
		c-0.75,0-1.113,0.715-1.113,1.293l0.363,107.457c0,0,0.215,0.75,0.93,0.75h1.32c0.75,0,1.539-0.434,1.539-1.012L431.324,476.89z"/>
	
		<linearGradient id="SVGID_19_" gradientUnits="userSpaceOnUse" x1="74.3037" y1="402.2769" x2="74.3037" y2="396.7407" gradientTransform="matrix(0 -0.75 0.75 0 117.5536 478.6173)">
		<stop  offset="0" style="stop-color:#9DA6B2"/>
		<stop  offset="0.09" style="stop-color:#A0A9B4"/>
		<stop  offset="0.36" style="stop-color:#C5D0DE"/>
		<stop  offset="0.56" style="stop-color:#B1BBC8"/>
		<stop  offset="0.83" style="stop-color:#8E96A1"/>
		<stop  offset="1" style="stop-color:#656B72"/>
	</linearGradient>
	<path fill="url(#SVGID_19_)" d="M419.222,476.89V369.64c0-0.75-0.539-1.254-1.254-1.254l-1.746-0.246
		c-0.75,0-1.113,0.715-1.113,1.293l0.363,107.457c0,0,0.215,0.75,0.93,0.75h1.32c0.75,0,1.539-0.434,1.539-1.012L419.222,476.89z"/>
	
		<linearGradient id="SVGID_20_" gradientUnits="userSpaceOnUse" x1="74.3037" y1="402.2769" x2="74.3037" y2="396.7397" gradientTransform="matrix(0 -0.75 0.75 0 105.452 478.6173)">
		<stop  offset="0" style="stop-color:#9DA6B2"/>
		<stop  offset="0.09" style="stop-color:#A0A9B4"/>
		<stop  offset="0.36" style="stop-color:#C5D0DE"/>
		<stop  offset="0.56" style="stop-color:#B1BBC8"/>
		<stop  offset="0.83" style="stop-color:#8E96A1"/>
		<stop  offset="1" style="stop-color:#656B72"/>
	</linearGradient>
	<path fill="url(#SVGID_20_)" d="M407.121,476.89V369.64c0-0.75-0.539-1.254-1.254-1.254l-1.746-0.246
		c-0.75,0-1.113,0.715-1.113,1.293l0.363,107.457c0,0,0.215,0.75,0.93,0.75h1.32c0.75,0,1.539-0.434,1.539-1.012L407.121,476.89z"/>
	<path fill="#919BA9" d="M516.675,490.031v-63l-21.75,6.75v49.5L516.675,490.031z"/>
	
		<linearGradient id="SVGID_21_" gradientUnits="userSpaceOnUse" x1="45.3066" y1="402.2261" x2="45.3066" y2="396.2261" gradientTransform="matrix(0 -0.75 0.75 0 217.9667 492.4083)">
		<stop  offset="0" style="stop-color:#9DA6B2"/>
		<stop  offset="0.09" style="stop-color:#A0A9B4"/>
		<stop  offset="0.36" style="stop-color:#C5D0DE"/>
		<stop  offset="0.56" style="stop-color:#B1BBC8"/>
		<stop  offset="0.83" style="stop-color:#8E96A1"/>
		<stop  offset="1" style="stop-color:#656B72"/>
	</linearGradient>
	<path fill="url(#SVGID_21_)" d="M519.636,490.679v-64.5c0,0-0.289-0.629-0.648-0.629l-3.102-0.121c-0.75,0-0.668,0.41-0.668,0.766
		l-0.082,64.484c0,0.75,0.371,0.75,0.73,0.75h3.02c0.75,0,0.75-0.258,0.75-0.613V490.679z"/>
	<path fill="#9DA6B2" d="M395.597,472.507v-98.25h-21v98.25H395.597z"/>
	
		<linearGradient id="SVGID_22_" gradientUnits="userSpaceOnUse" x1="66.8037" y1="402.2241" x2="66.8037" y2="393.2241" gradientTransform="matrix(0 -0.75 0.75 0 73.1669 473.4845)">
		<stop  offset="0" style="stop-color:#9DA6B2"/>
		<stop  offset="0.09" style="stop-color:#A0A9B4"/>
		<stop  offset="0.36" style="stop-color:#C5D0DE"/>
		<stop  offset="0.56" style="stop-color:#B1BBC8"/>
		<stop  offset="0.83" style="stop-color:#8E96A1"/>
		<stop  offset="1" style="stop-color:#656B72"/>
	</linearGradient>
	<path fill="url(#SVGID_22_)" d="M374.835,472.507v-98.25h-6.75v98.25H374.835z"/>
	
		<linearGradient id="SVGID_23_" gradientUnits="userSpaceOnUse" x1="360.2212" y1="199.3027" x2="202.2212" y2="199.3027" gradientTransform="matrix(0.75 0 0 -0.75 222.8173 662.0343)">
		<stop  offset="0" style="stop-color:#717781"/>
		<stop  offset="0.09" style="stop-color:#737983"/>
		<stop  offset="0.36" style="stop-color:#8E96A2"/>
		<stop  offset="0.56" style="stop-color:#808792"/>
		<stop  offset="0.83" style="stop-color:#666C74"/>
		<stop  offset="1" style="stop-color:#474B52"/>
	</linearGradient>
	<path fill="url(#SVGID_23_)" d="M374.484,511.058h118.5v3h-118.5V511.058z"/>
	
		<linearGradient id="SVGID_24_" gradientUnits="userSpaceOnUse" x1="391.2017" y1="195.3379" x2="202.2231" y2="195.3379" gradientTransform="matrix(0.75 0 0 -0.75 211.1835 664.6583)">
		<stop  offset="0" style="stop-color:#9DA6B2"/>
		<stop  offset="0.09" style="stop-color:#A0A9B4"/>
		<stop  offset="0.36" style="stop-color:#C5D0DE"/>
		<stop  offset="0.56" style="stop-color:#B1BBC8"/>
		<stop  offset="0.83" style="stop-color:#8E96A1"/>
		<stop  offset="1" style="stop-color:#656B72"/>
	</linearGradient>
	<path fill="url(#SVGID_24_)" d="M367.351,513.679h132.75c2.25,0,4.484,1.973,4.484,4.465c0.016,2.285-2.023,4.508-4.523,4.508
		l-132.711,0.027c-2.25,0-4.5-2.047-4.5-4.535c0-2.215,2.004-4.512,4.5-4.512V513.679z"/>
	
		<linearGradient id="SVGID_25_" gradientUnits="userSpaceOnUse" x1="2.8066" y1="402.2251" x2="2.8066" y2="238.2251" gradientTransform="matrix(0 -0.75 0.75 0 193.5692 363.5372)">
		<stop  offset="0" style="stop-color:#717781"/>
		<stop  offset="0.09" style="stop-color:#737983"/>
		<stop  offset="0.36" style="stop-color:#8E96A2"/>
		<stop  offset="0.56" style="stop-color:#808792"/>
		<stop  offset="0.83" style="stop-color:#666C74"/>
		<stop  offset="1" style="stop-color:#474B52"/>
	</linearGradient>
	<path fill="url(#SVGID_25_)" d="M495.238,362.558v-2.25h-123v2.25H495.238z"/>
	<path fill="#9DA6B2" d="M255.492,357.347h-81v6.75h81V357.347z"/>
	<path fill="#9DA6B2" d="M255.352,450.144h-81v6.75h81V450.144z"/>
	
		<linearGradient id="SVGID_26_" gradientUnits="userSpaceOnUse" x1="73.3057" y1="402.2231" x2="73.3057" y2="393.2231" gradientTransform="matrix(0 -0.75 0.75 0 -39.4215 462.2355)">
		<stop  offset="0" style="stop-color:#9DA6B2"/>
		<stop  offset="0.09" style="stop-color:#A0A9B4"/>
		<stop  offset="0.36" style="stop-color:#C5D0DE"/>
		<stop  offset="0.56" style="stop-color:#B1BBC8"/>
		<stop  offset="0.83" style="stop-color:#8E96A1"/>
		<stop  offset="1" style="stop-color:#656B72"/>
	</linearGradient>
	<path fill="url(#SVGID_26_)" d="M262.246,461.257v-108h-6.75v108H262.246z"/>
	
		<linearGradient id="SVGID_27_" gradientUnits="userSpaceOnUse" x1="6.8066" y1="402.2241" x2="6.8066" y2="388.2241" gradientTransform="matrix(0 -0.75 0.75 0 -37.7535 358.1583)">
		<stop  offset="0" style="stop-color:#9DA6B2"/>
		<stop  offset="0.09" style="stop-color:#A0A9B4"/>
		<stop  offset="0.36" style="stop-color:#C5D0DE"/>
		<stop  offset="0.56" style="stop-color:#B1BBC8"/>
		<stop  offset="0.83" style="stop-color:#8E96A1"/>
		<stop  offset="1" style="stop-color:#656B72"/>
	</linearGradient>
	<path fill="url(#SVGID_27_)" d="M263.914,357.179v-8.25h-10.5v8.25H263.914z"/>
	
		<linearGradient id="SVGID_28_" gradientUnits="userSpaceOnUse" x1="6.8037" y1="402.2241" x2="6.8037" y2="388.2241" gradientTransform="matrix(0 -0.75 0.75 0 -37.7535 466.4532)">
		<stop  offset="0" style="stop-color:#9DA6B2"/>
		<stop  offset="0.09" style="stop-color:#A0A9B4"/>
		<stop  offset="0.36" style="stop-color:#C5D0DE"/>
		<stop  offset="0.56" style="stop-color:#B1BBC8"/>
		<stop  offset="0.83" style="stop-color:#8E96A1"/>
		<stop  offset="1" style="stop-color:#656B72"/>
	</linearGradient>
	<path fill="url(#SVGID_28_)" d="M263.914,465.476v-8.25h-10.5v8.25H263.914z"/>
	
		<linearGradient id="SVGID_29_" gradientUnits="userSpaceOnUse" x1="73.3057" y1="402.2241" x2="73.3057" y2="393.2241" gradientTransform="matrix(0 -0.75 0.75 0 -127.3322 462.2365)">
		<stop  offset="0" style="stop-color:#9DA6B2"/>
		<stop  offset="0.09" style="stop-color:#A0A9B4"/>
		<stop  offset="0.36" style="stop-color:#C5D0DE"/>
		<stop  offset="0.56" style="stop-color:#B1BBC8"/>
		<stop  offset="0.83" style="stop-color:#8E96A1"/>
		<stop  offset="1" style="stop-color:#656B72"/>
	</linearGradient>
	<path fill="url(#SVGID_29_)" d="M174.336,461.257v-108h-6.75v108H174.336z"/>
	
		<linearGradient id="SVGID_30_" gradientUnits="userSpaceOnUse" x1="6.8027" y1="402.2241" x2="6.8027" y2="388.2241" gradientTransform="matrix(0 -0.75 0.75 0 -125.6642 357.2882)">
		<stop  offset="0" style="stop-color:#9DA6B2"/>
		<stop  offset="0.09" style="stop-color:#A0A9B4"/>
		<stop  offset="0.36" style="stop-color:#C5D0DE"/>
		<stop  offset="0.56" style="stop-color:#B1BBC8"/>
		<stop  offset="0.83" style="stop-color:#8E96A1"/>
		<stop  offset="1" style="stop-color:#656B72"/>
	</linearGradient>
	<path fill="url(#SVGID_30_)" d="M176.004,356.312v-8.25h-10.5v8.25H176.004z"/>
	
		<linearGradient id="SVGID_31_" gradientUnits="userSpaceOnUse" x1="6.8037" y1="402.2241" x2="6.8037" y2="388.2241" gradientTransform="matrix(0 -0.75 0.75 0 -125.6759 466.4532)">
		<stop  offset="0" style="stop-color:#9DA6B2"/>
		<stop  offset="0.09" style="stop-color:#A0A9B4"/>
		<stop  offset="0.36" style="stop-color:#C5D0DE"/>
		<stop  offset="0.56" style="stop-color:#B1BBC8"/>
		<stop  offset="0.83" style="stop-color:#8E96A1"/>
		<stop  offset="1" style="stop-color:#656B72"/>
	</linearGradient>
	<path fill="url(#SVGID_31_)" d="M175.992,465.476v-8.25h-10.5v8.25H175.992z"/>
	
		<linearGradient id="SVGID_32_" gradientUnits="userSpaceOnUse" x1="207.9736" y1="201.3057" x2="207.9736" y2="152.207" gradientTransform="matrix(0.75 0 0 -0.75 -134.8336 531.8068)">
		<stop  offset="0" style="stop-color:#9DA6B2"/>
		<stop  offset="0.09" style="stop-color:#A0A9B4"/>
		<stop  offset="0.36" style="stop-color:#C5D0DE"/>
		<stop  offset="0.56" style="stop-color:#B1BBC8"/>
		<stop  offset="0.83" style="stop-color:#8E96A1"/>
		<stop  offset="1" style="stop-color:#656B72"/>
	</linearGradient>
	<path fill="url(#SVGID_32_)" d="M20.586,380.828h1.5c1.5,0,3.371,1.539,3.371,3.438l-0.371,30.313c0,1.5-1.176,3.074-3.078,3.074
		l-1.422-0.074c-2.25,0-3.75-1.465-3.75-3.363v-29.637c0-2.25,1.543-3.75,3.449-3.75H20.586z"/>
	
		<linearGradient id="SVGID_33_" gradientUnits="userSpaceOnUse" x1="608.6255" y1="402.2241" x2="608.6255" y2="371.2241" gradientTransform="matrix(0 0.75 0.75 0 -236.7223 -247.6178)">
		<stop  offset="0" style="stop-color:#9DA6B2"/>
		<stop  offset="0.09" style="stop-color:#A0A9B4"/>
		<stop  offset="0.36" style="stop-color:#C5D0DE"/>
		<stop  offset="0.56" style="stop-color:#B1BBC8"/>
		<stop  offset="0.83" style="stop-color:#8E96A1"/>
		<stop  offset="1" style="stop-color:#656B72"/>
	</linearGradient>
	<path fill="url(#SVGID_33_)" d="M64.945,27.352v363h-23.25v-363H64.945z"/>
	
		<linearGradient id="SVGID_34_" gradientUnits="userSpaceOnUse" x1="286.2222" y1="201.3076" x2="286.2222" y2="119.9326" gradientTransform="matrix(0.75 0 0 -0.75 -90.2701 154.3829)">
		<stop  offset="0" style="stop-color:#A0A9B4"/>
		<stop  offset="0.16" style="stop-color:#C5D0DE"/>
		<stop  offset="0.33" style="stop-color:#B1BBC8"/>
		<stop  offset="1" style="stop-color:#8E96A1"/>
	</linearGradient>
	<path fill="url(#SVGID_34_)" d="M61.398,26.656V3.406h102.75c0,0,23.246-0.895,23.246,23.102c0.004,24.148,0,37.926,0,37.926
		l-23.246-0.277v-30.75c0,0,0.051-6.898-7.664-6.898c-8.086,0.148-95.086,0-95.086,0V26.656z"/>
	
		<linearGradient id="SVGID_35_" gradientUnits="userSpaceOnUse" x1="241.1943" y1="164.165" x2="165.585" y2="164.165" gradientTransform="matrix(-0.75 0 0 -0.75 221.8029 153.8575)">
		<stop  offset="0" style="stop-color:#8491A1"/>
		<stop  offset="0.02" style="stop-color:#8693A4"/>
		<stop  offset="0.22" style="stop-color:#B7C3D3"/>
		<stop  offset="0.4" style="stop-color:#95A4B6"/>
		<stop  offset="1" style="stop-color:#95A4B6"/>
	</linearGradient>
	<path fill="url(#SVGID_35_)" d="M97.523,2.879h-35.25c0,0-21.234-2.707-21.234,24.27c0.234,26.73-0.133,31.516-0.133,31.516
		l24.367-0.285v-6.75c0,0-2.129-23.063,15.25-24.48c9.5-0.27,17.063,0,17.09,0L97.523,2.879z"/>
	
		<linearGradient id="SVGID_36_" gradientUnits="userSpaceOnUse" x1="208.2036" y1="201.3057" x2="208.2036" y2="189.3057" gradientTransform="matrix(-0.75 0 0 -0.75 431.7374 483.3615)">
		<stop  offset="0" style="stop-color:#9DA6B2"/>
		<stop  offset="0.09" style="stop-color:#A0A9B4"/>
		<stop  offset="0.36" style="stop-color:#C5D0DE"/>
		<stop  offset="0.56" style="stop-color:#B1BBC8"/>
		<stop  offset="0.83" style="stop-color:#8E96A1"/>
		<stop  offset="1" style="stop-color:#656B72"/>
	</linearGradient>
	<path fill="url(#SVGID_36_)" d="M307.46,332.382h-63.75v9h63.75V332.382z"/>
	
		<linearGradient id="SVGID_37_" gradientUnits="userSpaceOnUse" x1="221.1104" y1="201.3027" x2="221.1104" y2="163.6514" gradientTransform="matrix(0.75 0 0 -0.75 146.1454 473.754)">
		<stop  offset="0" style="stop-color:#8894A5"/>
		<stop  offset="0.09" style="stop-color:#8A97A8"/>
		<stop  offset="0.36" style="stop-color:#AABACF"/>
		<stop  offset="0.56" style="stop-color:#99A7BA"/>
		<stop  offset="0.83" style="stop-color:#7A8696"/>
		<stop  offset="1" style="stop-color:#565F6A"/>
	</linearGradient>
	<path fill="url(#SVGID_37_)" d="M297.816,337.027c0-8.25,6.34-14.25,14.16-14.25c7.59,0,14.16,6.32,14.16,14.113
		c0.18,7.637-6.34,14.117-14.16,14.117c-8.16,0.27-14.16-6.32-14.16-14.117V337.027z"/>
	
		<linearGradient id="SVGID_38_" gradientUnits="userSpaceOnUse" x1="205.2983" y1="201.3477" x2="205.2983" y2="172.5562" gradientTransform="matrix(0.75 0 0 -0.75 88.9071 477.3146)">
		<stop  offset="0" style="stop-color:#8D99A8"/>
		<stop  offset="0.09" style="stop-color:#8F9CAA"/>
		<stop  offset="0.36" style="stop-color:#B1C0D2"/>
		<stop  offset="0.56" style="stop-color:#9FADBD"/>
		<stop  offset="0.83" style="stop-color:#7F8A98"/>
		<stop  offset="1" style="stop-color:#5A626C"/>
	</linearGradient>
	<path fill="url(#SVGID_38_)" d="M242.824,326.335c1.5,0,2.391,1.012,2.391,2.297l-0.141,17.203c0,0.75-0.906,2.039-2.195,2.039
		c-1.555,0.211-2.332-1.059-2.332-2.344l0.027-16.945c0-1.5,1.016-2.281,2.305-2.281L242.824,326.335z"/>
	<path fill="#717781" d="M24.223,557.605h525.75v6.75H24.223V557.605z"/>
</g>
</svg>
