<?xml version="1.0" encoding="utf-8"?>
<!-- Generator: Adobe Illustrator 16.0.0, SVG Export Plug-In . SVG Version: 6.00 Build 0)  -->
<!DOCTYPE svg PUBLIC "-//W3C//DTD SVG 1.1//EN" "http://www.w3.org/Graphics/SVG/1.1/DTD/svg11.dtd">
<svg preserveAspectRatio="none"   version="1.1" id="图层_1" xmlns="http://www.w3.org/2000/svg" xmlns:xlink="http://www.w3.org/1999/xlink" x="0px" y="0px"
	 width="566.699px" height="333.207px" viewBox="0.098 116.715 566.699 333.207"
	 enable-background="new 0.098 116.715 566.699 333.207" xml:space="preserve">
<g id="surface341">
	<path fill="#8591A2" d="M84.18,325.878h74.25v56.25H84.18V325.878z"/>
	
		<linearGradient id="SVGID_1_" gradientUnits="userSpaceOnUse" x1="238.2275" y1="201.3037" x2="238.2275" y2="175.3037" gradientTransform="matrix(0.75 0 0 -0.75 -33.5573 402.4708)">
		<stop  offset="0" style="stop-color:#989A9E"/>
		<stop  offset="0.15" style="stop-color:#D1D4D9"/>
		<stop  offset="0.25" style="stop-color:#E6E7EA"/>
		<stop  offset="0.52" style="stop-color:#B4B7BB"/>
		<stop  offset="0.69" style="stop-color:#A0A2A6"/>
		<stop  offset="0.8" style="stop-color:#97999D"/>
		<stop  offset="0.92" style="stop-color:#8E9094"/>
		<stop  offset="1" style="stop-color:#A4A6AA"/>
	</linearGradient>
	<path fill="url(#SVGID_1_)" d="M118.113,251.492h54v19.5h-54V251.492z"/>
	
		<linearGradient id="SVGID_2_" gradientUnits="userSpaceOnUse" x1="248.7246" y1="201.3037" x2="248.7246" y2="68.3047" gradientTransform="matrix(0.75 0 0 -0.75 -140.9381 362.3341)">
		<stop  offset="0" style="stop-color:#989A9E"/>
		<stop  offset="0.15" style="stop-color:#D1D4D9"/>
		<stop  offset="0.25" style="stop-color:#E6E7EA"/>
		<stop  offset="0.52" style="stop-color:#B4B7BB"/>
		<stop  offset="0.69" style="stop-color:#A0A2A6"/>
		<stop  offset="0.8" style="stop-color:#97999D"/>
		<stop  offset="0.92" style="stop-color:#8E9094"/>
		<stop  offset="1" style="stop-color:#A4A6AA"/>
	</linearGradient>
	<path fill="url(#SVGID_2_)" d="M10.73,211.355h69.75v99.75H10.73V211.355z"/>
	
		<linearGradient id="SVGID_3_" gradientUnits="userSpaceOnUse" x1="209.7251" y1="201.3027" x2="209.7251" y2="92.3037" gradientTransform="matrix(0.75 0 0 -0.75 -151.5714 371.1837)">
		<stop  offset="0" style="stop-color:#A7A8AB"/>
		<stop  offset="0.15" style="stop-color:#E3E5E9"/>
		<stop  offset="0.25" style="stop-color:#EFF0F2"/>
		<stop  offset="0.52" style="stop-color:#C5C7CA"/>
		<stop  offset="0.69" style="stop-color:#AFB1B4"/>
		<stop  offset="0.8" style="stop-color:#A5A7AA"/>
		<stop  offset="0.92" style="stop-color:#9C9DA0"/>
		<stop  offset="1" style="stop-color:#B3B5B8"/>
	</linearGradient>
	<path fill="url(#SVGID_3_)" d="M2.348,220.207h9v81.75h-9c-1.5,0-2.25-0.785-2.25-1.863v-77.636c0-1.5,0.875-2.25,1.953-2.25H2.348
		z"/>
	<path fill="#85878A" d="M86.668,298.55v-75l32.25,8.25v58.5L86.668,298.55z"/>
	
		<linearGradient id="SVGID_4_" gradientUnits="userSpaceOnUse" x1="227.7261" y1="201.3018" x2="227.7261" y2="145.3018" gradientTransform="matrix(0.75 0 0 -0.75 -71.361 391.1837)">
		<stop  offset="0" style="stop-color:#989A9E"/>
		<stop  offset="0.15" style="stop-color:#D1D4D9"/>
		<stop  offset="0.25" style="stop-color:#E6E7EA"/>
		<stop  offset="0.52" style="stop-color:#B4B7BB"/>
		<stop  offset="0.69" style="stop-color:#A0A2A6"/>
		<stop  offset="0.8" style="stop-color:#97999D"/>
		<stop  offset="0.92" style="stop-color:#8E9094"/>
		<stop  offset="1" style="stop-color:#A4A6AA"/>
	</linearGradient>
	<path fill="url(#SVGID_4_)" d="M80.309,240.207h38.25v42h-38.25V240.207z"/>
	
		<linearGradient id="SVGID_5_" gradientUnits="userSpaceOnUse" x1="214.2275" y1="201.3057" x2="214.2275" y2="170.3057" gradientTransform="matrix(0.75 0 0 -0.75 -33.3429 400.3107)">
		<stop  offset="0" style="stop-color:#8B8E91"/>
		<stop  offset="0.15" style="stop-color:#C2C5C8"/>
		<stop  offset="0.25" style="stop-color:#DEDFE1"/>
		<stop  offset="0.52" style="stop-color:#A5A8AB"/>
		<stop  offset="0.69" style="stop-color:#939598"/>
		<stop  offset="0.8" style="stop-color:#8A8C8F"/>
		<stop  offset="0.92" style="stop-color:#828487"/>
		<stop  offset="1" style="stop-color:#96999C"/>
	</linearGradient>
	<path fill="url(#SVGID_5_)" d="M118.328,249.332h18v23.25h-18V249.332z"/>
	
		<linearGradient id="SVGID_6_" gradientUnits="userSpaceOnUse" x1="214.2266" y1="201.3057" x2="214.2266" y2="170.3057" gradientTransform="matrix(0.75 0 0 -0.75 1.1659 400.3107)">
		<stop  offset="0" style="stop-color:#8B8E91"/>
		<stop  offset="0.15" style="stop-color:#C2C5C8"/>
		<stop  offset="0.25" style="stop-color:#DEDFE1"/>
		<stop  offset="0.52" style="stop-color:#A5A8AB"/>
		<stop  offset="0.69" style="stop-color:#939598"/>
		<stop  offset="0.8" style="stop-color:#8A8C8F"/>
		<stop  offset="0.92" style="stop-color:#828487"/>
		<stop  offset="1" style="stop-color:#96999C"/>
	</linearGradient>
	<path fill="url(#SVGID_6_)" d="M152.836,249.332h18v23.25h-18V249.332z"/>
	
		<linearGradient id="SVGID_7_" gradientUnits="userSpaceOnUse" x1="212.7256" y1="201.3018" x2="212.7256" y2="132.3018" gradientTransform="matrix(0.75 0 0 -0.75 74.2528 373.4493)">
		<stop  offset="0" style="stop-color:#8B8E91"/>
		<stop  offset="0.15" style="stop-color:#C2C5C8"/>
		<stop  offset="0.25" style="stop-color:#DEDFE1"/>
		<stop  offset="0.52" style="stop-color:#A5A8AB"/>
		<stop  offset="0.69" style="stop-color:#939598"/>
		<stop  offset="0.8" style="stop-color:#8A8C8F"/>
		<stop  offset="0.92" style="stop-color:#828487"/>
		<stop  offset="1" style="stop-color:#96999C"/>
	</linearGradient>
	<path fill="url(#SVGID_7_)" d="M225.922,222.473h15.75v51.75h-15.75V222.473z"/>
	
		<linearGradient id="SVGID_8_" gradientUnits="userSpaceOnUse" x1="219.2271" y1="201.3018" x2="219.227" y2="-50.6982" gradientTransform="matrix(0.75 0 0 -0.75 88.4271 310.1915)">
		<stop  offset="0" style="stop-color:#9E9797"/>
		<stop  offset="0.15" style="stop-color:#D9D0D0"/>
		<stop  offset="0.25" style="stop-color:#EAE5E5"/>
		<stop  offset="0.52" style="stop-color:#BBB3B3"/>
		<stop  offset="0.69" style="stop-color:#A69F9F"/>
		<stop  offset="0.8" style="stop-color:#9D9696"/>
		<stop  offset="0.92" style="stop-color:#948E8E"/>
		<stop  offset="1" style="stop-color:#AAA3A3"/>
	</linearGradient>
	<path fill="url(#SVGID_8_)" d="M244.598,159.215h21v189h-21c-2.25,0-4.5-2.148-4.5-4.637V163.715c0-2.25,2.02-4.5,4.508-4.5
		H244.598z"/>
	
		<linearGradient id="SVGID_9_" gradientUnits="userSpaceOnUse" x1="336.7241" y1="201.3057" x2="336.7241" y2="-60.6943" gradientTransform="matrix(0.75 0 0 -0.75 124.4989 306.5802)">
		<stop  offset="0" style="stop-color:#968E8E"/>
		<stop  offset="0.15" style="stop-color:#CFC5C5"/>
		<stop  offset="0.25" style="stop-color:#E4DFE0"/>
		<stop  offset="0.52" style="stop-color:#B1A8A9"/>
		<stop  offset="0.69" style="stop-color:#9E9596"/>
		<stop  offset="0.8" style="stop-color:#958C8D"/>
		<stop  offset="0.92" style="stop-color:#8C8485"/>
		<stop  offset="1" style="stop-color:#A19999"/>
	</linearGradient>
	<path fill="url(#SVGID_9_)" d="M276.168,155.602h201.75v196.5h-201.75V155.602z"/>
	
		<linearGradient id="SVGID_10_" gradientUnits="userSpaceOnUse" x1="262.3042" y1="201.3057" x2="262.3042" y2="-60.6934" gradientTransform="matrix(0.75 0 0 -0.75 325.0077 306.5802)">
		<stop  offset="0" style="stop-color:#968E8E"/>
		<stop  offset="0.15" style="stop-color:#CFC5C5"/>
		<stop  offset="0.25" style="stop-color:#E4DFE0"/>
		<stop  offset="0.52" style="stop-color:#B1A8A9"/>
		<stop  offset="0.69" style="stop-color:#9E9596"/>
		<stop  offset="0.8" style="stop-color:#958C8D"/>
		<stop  offset="0.92" style="stop-color:#8C8485"/>
		<stop  offset="1" style="stop-color:#A19999"/>
	</linearGradient>
	<path fill="url(#SVGID_10_)" d="M476.675,155.602h72c0,0,17.703,0,18.121,98.191c-0.121,97.558-18.305,98.195-18.305,98.195
		l-71.816,0.113V155.602z"/>
	
		<linearGradient id="SVGID_11_" gradientUnits="userSpaceOnUse" x1="204.7217" y1="201.3057" x2="204.7217" y2="-60.6934" gradientTransform="matrix(0.75 0 0 -0.75 324.2782 306.5802)">
		<stop  offset="0" style="stop-color:#817A7A"/>
		<stop  offset="0.15" style="stop-color:#B5ADAD"/>
		<stop  offset="0.25" style="stop-color:#D8D4D4"/>
		<stop  offset="0.52" style="stop-color:#999191"/>
		<stop  offset="0.69" style="stop-color:#888080"/>
		<stop  offset="0.8" style="stop-color:#807979"/>
		<stop  offset="0.92" style="stop-color:#787272"/>
		<stop  offset="1" style="stop-color:#8B8383"/>
	</linearGradient>
	<path fill="url(#SVGID_11_)" d="M475.945,155.602h3.75v196.5h-3.75V155.602z"/>
	
		<linearGradient id="SVGID_12_" gradientUnits="userSpaceOnUse" x1="173.6538" y1="201.3027" x2="173.6538" y2="-74.6963" gradientTransform="matrix(-0.75 0 0 -0.75 400.9288 301.1759)">
		<stop  offset="0" style="stop-color:#696363"/>
		<stop  offset="0.15" style="stop-color:#999292"/>
		<stop  offset="0.25" style="stop-color:#CCC9C9"/>
		<stop  offset="0.52" style="stop-color:#7C7575"/>
		<stop  offset="0.69" style="stop-color:#6E6868"/>
		<stop  offset="0.8" style="stop-color:#686262"/>
		<stop  offset="0.92" style="stop-color:#625C5C"/>
		<stop  offset="1" style="stop-color:#716A6A"/>
	</linearGradient>
	<path fill="url(#SVGID_12_)" d="M274.402,150.199h-7.5c-1.5,0-2.238,0.906-2.238,2.043l-0.012,202.707c0,1.5,0.934,2.18,2.074,2.18
		l7.676,0.07c1.5,0,2.324-1.066,2.324-2.203l-0.074-202.546c0-1.5-0.848-2.25-1.988-2.25H274.402z"/>
	
		<linearGradient id="SVGID_13_" gradientUnits="userSpaceOnUse" x1="170.6372" y1="201.3018" x2="170.6372" y2="-73.958" gradientTransform="matrix(-0.75 0 0 -0.75 396.1925 301.4181)">
		<stop  offset="0" style="stop-color:#968E8E"/>
		<stop  offset="0.15" style="stop-color:#CFC5C5"/>
		<stop  offset="0.25" style="stop-color:#E4DFE0"/>
		<stop  offset="0.52" style="stop-color:#B1A8A9"/>
		<stop  offset="0.69" style="stop-color:#9E9596"/>
		<stop  offset="0.8" style="stop-color:#958C8D"/>
		<stop  offset="0.92" style="stop-color:#8C8485"/>
		<stop  offset="1" style="stop-color:#A19999"/>
	</linearGradient>
	<path fill="url(#SVGID_13_)" d="M269.664,150.441h-2.25c-1.5,0-2.742,0.914-2.742,2.051l-0.258,201.949
		c0,1.5,1.449,2.445,2.918,2.445l2.332-0.195c1.5,0,2.352-0.781,2.352-1.918l-0.102-202.082c0-1.5-1.09-2.25-2.563-2.25H269.664z"/>
	<path fill="#A59C9D" d="M284.964,322.23h183.75v42.75h-183.75V322.23z"/>
	<path fill="#C7C0C1" d="M284.964,363.781h183.75v13.5h-183.75V363.781z"/>
	
		<linearGradient id="SVGID_14_" gradientUnits="userSpaceOnUse" x1="240.7241" y1="201.3018" x2="240.7241" y2="-35.6982" gradientTransform="matrix(0.75 0 0 -0.75 19.2499 350.5392)">
		<stop  offset="0" style="stop-color:#79797A"/>
		<stop  offset="0.09" style="stop-color:#D9DCE1"/>
		<stop  offset="0.16" style="stop-color:#F6F7F8"/>
		<stop  offset="0.25" style="stop-color:#CED1D6"/>
		<stop  offset="0.92" style="stop-color:#C9CDD1"/>
	</linearGradient>
	<path fill="url(#SVGID_14_)" d="M228.668,199.563h-57.75v177.75h57.75V199.563z"/>
	
		<linearGradient id="SVGID_15_" gradientUnits="userSpaceOnUse" x1="318.7769" y1="201.3867" x2="318.7769" y2="192.3037" gradientTransform="matrix(0.75 0 0 -0.75 146.5731 350.587)">
		<stop  offset="0" style="stop-color:#968E8E"/>
		<stop  offset="0.15" style="stop-color:#CFC5C5"/>
		<stop  offset="0.25" style="stop-color:#E4DFE0"/>
		<stop  offset="0.52" style="stop-color:#B1A8A9"/>
		<stop  offset="0.69" style="stop-color:#9E9596"/>
		<stop  offset="0.8" style="stop-color:#958C8D"/>
		<stop  offset="0.92" style="stop-color:#8C8485"/>
		<stop  offset="1" style="stop-color:#A19999"/>
	</linearGradient>
	<path fill="url(#SVGID_15_)" d="M299.742,199.609h171.75c0.75,0,1.578,0.859,1.578,1.996l-0.078,2.504
		c0,1.5-0.676,2.059-1.594,2.059l-171.656,0.191c-0.75,0-1.5-1.113-1.5-2.25v-2.25c0-1.5,0.695-2.313,1.617-2.313L299.742,199.609z"
		/>
	
		<linearGradient id="SVGID_16_" gradientUnits="userSpaceOnUse" x1="318.7769" y1="201.3887" x2="318.7769" y2="192.3057" gradientTransform="matrix(0.75 0 0 -0.75 146.5731 369.8771)">
		<stop  offset="0" style="stop-color:#968E8E"/>
		<stop  offset="0.15" style="stop-color:#CFC5C5"/>
		<stop  offset="0.25" style="stop-color:#E4DFE0"/>
		<stop  offset="0.52" style="stop-color:#B1A8A9"/>
		<stop  offset="0.69" style="stop-color:#9E9596"/>
		<stop  offset="0.8" style="stop-color:#958C8D"/>
		<stop  offset="0.92" style="stop-color:#8C8485"/>
		<stop  offset="1" style="stop-color:#A19999"/>
	</linearGradient>
	<path fill="url(#SVGID_16_)" d="M299.742,218.898h171.75c0.75,0,1.578,0.859,1.578,1.996l-0.078,2.504
		c0,1.5-0.676,2.059-1.594,2.059l-171.656,0.191c-0.75,0-1.5-1.113-1.5-2.25v-2.25c0-1.5,0.695-2.313,1.617-2.313L299.742,218.898z"
		/>
	
		<linearGradient id="SVGID_17_" gradientUnits="userSpaceOnUse" x1="318.7769" y1="201.3906" x2="318.7769" y2="192.3018" gradientTransform="matrix(0.75 0 0 -0.75 146.5731 389.1681)">
		<stop  offset="0" style="stop-color:#968E8E"/>
		<stop  offset="0.15" style="stop-color:#CFC5C5"/>
		<stop  offset="0.25" style="stop-color:#E4DFE0"/>
		<stop  offset="0.52" style="stop-color:#B1A8A9"/>
		<stop  offset="0.69" style="stop-color:#9E9596"/>
		<stop  offset="0.8" style="stop-color:#958C8D"/>
		<stop  offset="0.92" style="stop-color:#8C8485"/>
		<stop  offset="1" style="stop-color:#A19999"/>
	</linearGradient>
	<path fill="url(#SVGID_17_)" d="M299.742,238.191h171.75c0.75,0,1.578,0.855,1.578,1.996l-0.078,2.504
		c0,1.5-0.676,2.059-1.594,2.059l-171.656,0.191c-0.75,0-1.5-1.113-1.5-2.254v-2.246c0-1.5,0.695-2.316,1.617-2.316L299.742,238.191
		z"/>
	
		<linearGradient id="SVGID_18_" gradientUnits="userSpaceOnUse" x1="318.7769" y1="201.3877" x2="318.7769" y2="192.3037" gradientTransform="matrix(0.75 0 0 -0.75 146.5731 408.4581)">
		<stop  offset="0" style="stop-color:#968E8E"/>
		<stop  offset="0.15" style="stop-color:#CFC5C5"/>
		<stop  offset="0.25" style="stop-color:#E4DFE0"/>
		<stop  offset="0.52" style="stop-color:#B1A8A9"/>
		<stop  offset="0.69" style="stop-color:#9E9596"/>
		<stop  offset="0.8" style="stop-color:#958C8D"/>
		<stop  offset="0.92" style="stop-color:#8C8485"/>
		<stop  offset="1" style="stop-color:#A19999"/>
	</linearGradient>
	<path fill="url(#SVGID_18_)" d="M299.742,257.48h171.75c0.75,0,1.578,0.859,1.578,1.996l-0.078,2.504
		c0,1.5-0.676,2.059-1.594,2.059l-171.656,0.191c-0.75,0-1.5-1.113-1.5-2.25v-2.25c0-1.5,0.695-2.313,1.617-2.313L299.742,257.48z"
		/>
	
		<linearGradient id="SVGID_19_" gradientUnits="userSpaceOnUse" x1="318.7769" y1="201.3877" x2="318.7769" y2="192.3037" gradientTransform="matrix(0.75 0 0 -0.75 146.5731 427.7482)">
		<stop  offset="0" style="stop-color:#968E8E"/>
		<stop  offset="0.15" style="stop-color:#CFC5C5"/>
		<stop  offset="0.25" style="stop-color:#E4DFE0"/>
		<stop  offset="0.52" style="stop-color:#B1A8A9"/>
		<stop  offset="0.69" style="stop-color:#9E9596"/>
		<stop  offset="0.8" style="stop-color:#958C8D"/>
		<stop  offset="0.92" style="stop-color:#8C8485"/>
		<stop  offset="1" style="stop-color:#A19999"/>
	</linearGradient>
	<path fill="url(#SVGID_19_)" d="M299.742,276.77h171.75c0.75,0,1.578,0.859,1.578,1.996l-0.078,2.504
		c0,1.5-0.676,2.059-1.594,2.059l-171.656,0.191c-0.75,0-1.5-1.113-1.5-2.25v-2.25c0-1.5,0.695-2.313,1.617-2.313L299.742,276.77z"
		/>
	
		<linearGradient id="SVGID_20_" gradientUnits="userSpaceOnUse" x1="318.7769" y1="201.3916" x2="318.7769" y2="192.3037" gradientTransform="matrix(0.75 0 0 -0.75 146.5731 447.0392)">
		<stop  offset="0" style="stop-color:#968E8E"/>
		<stop  offset="0.15" style="stop-color:#CFC5C5"/>
		<stop  offset="0.25" style="stop-color:#E4DFE0"/>
		<stop  offset="0.52" style="stop-color:#B1A8A9"/>
		<stop  offset="0.69" style="stop-color:#9E9596"/>
		<stop  offset="0.8" style="stop-color:#958C8D"/>
		<stop  offset="0.92" style="stop-color:#8C8485"/>
		<stop  offset="1" style="stop-color:#A19999"/>
	</linearGradient>
	<path fill="url(#SVGID_20_)" d="M299.742,296.062h171.75c0.75,0,1.578,0.855,1.578,1.996l-0.078,2.504
		c0,1.5-0.676,2.059-1.594,2.059l-171.656,0.191c-0.75,0-1.5-1.113-1.5-2.254v-2.246c0-1.5,0.695-2.316,1.617-2.316L299.742,296.062
		z"/>
	<path fill="#C7C0C1" d="M278.41,121.434h101.25l-11.25,34.5h-78.75L278.41,121.434z"/>
	<path fill="#A59C9D" d="M276.918,116.715h103.5c0.75,0,1.172,0.461,1.172,1.027l0.328,4.973c0,0.75-0.789,1.039-1.359,1.039
		l-103.64-0.289c0,0-0.75-0.172-0.75-0.742v-5.258c0,0,0.414-0.75,0.984-0.75H276.918z"/>
	<path fill="#8692A3" d="M70.109,377.39h480c0,0,0.855,0.461,0.855,1.031l-0.105,62.719c0,0.75-0.422,1.281-0.992,1.281
		L70.109,442.64c-0.75,0-0.75-0.68-0.75-1.246V378.14c0,0,0-0.75,1.031-0.75H70.109z"/>
	
		<linearGradient id="SVGID_21_" gradientUnits="userSpaceOnUse" x1="256.7256" y1="201.3037" x2="256.7256" y2="53.3047" gradientTransform="matrix(0.75 0 0 -0.75 -71.3605 362.3341)">
		<stop  offset="0" style="stop-color:#A7A8AB"/>
		<stop  offset="0.15" style="stop-color:#E3E5E9"/>
		<stop  offset="0.22" style="stop-color:#EFF0F2"/>
		<stop  offset="0.41" style="stop-color:#C5C7CA"/>
		<stop  offset="1" style="stop-color:#AFB1B4"/>
	</linearGradient>
	<path fill="url(#SVGID_21_)" d="M90.059,211.355h-9.75v99.75c0,0,0.344,11.738,10.871,11l70.879,0.25v-10.5h-66
		c0,0-6.191,1.934-6.191-5.773L90.059,211.355z"/>
	<path fill="#B5BAC1" d="M169.105,364.64h61.5v13.5h-61.5V364.64z"/>
	
		<linearGradient id="SVGID_22_" gradientUnits="userSpaceOnUse" x1="210.2275" y1="201.3037" x2="210.2275" y2="94.3047" gradientTransform="matrix(0.75 0 0 -0.75 -4.944 382.9357)">
		<stop  offset="0" style="stop-color:#59595A"/>
		<stop  offset="0.09" style="stop-color:#D9DCE1"/>
		<stop  offset="0.16" style="stop-color:#F6F7F8"/>
		<stop  offset="0.25" style="stop-color:#CED1D6"/>
		<stop  offset="0.92" style="stop-color:#C9CDD1"/>
	</linearGradient>
	<path fill="url(#SVGID_22_)" d="M158.727,231.957h-12v80.25h12V231.957z"/>
	<path fill="#677484" d="M79.02,377.523v-51h7.5v51H79.02z"/>
	<path fill="#677484" d="M155.078,377.417v-50.25h7.5v50.25H155.078z"/>
	<path fill="#677484" d="M68.285,321.585h94.5v7.5h-94.5V321.585z"/>
	<path fill="#677484" d="M68.285,377.304h484.5v7.5h-484.5V377.304z"/>
	<path fill="#677484" d="M68.02,442.421h484.5v7.5H68.02V442.421z"/>
</g>
</svg>
