<?xml version="1.0" encoding="utf-8"?>
<!-- Generator: Adobe Illustrator 16.0.0, SVG Export Plug-In . SVG Version: 6.00 Build 0)  -->
<!DOCTYPE svg PUBLIC "-//W3C//DTD SVG 1.1//EN" "http://www.w3.org/Graphics/SVG/1.1/DTD/svg11.dtd">
<svg preserveAspectRatio="none"   version="1.1" id="图层_1" xmlns="http://www.w3.org/2000/svg" xmlns:xlink="http://www.w3.org/1999/xlink" x="0px" y="0px"
	 width="565.593px" height="399.269px" viewBox="0.711 167.863 565.593 399.269"
	 enable-background="new 0.711 167.863 565.593 399.269" xml:space="preserve">
<g id="surface79">
	
		<linearGradient id="SVGID_1_" gradientUnits="userSpaceOnUse" x1="240.2256" y1="48.8027" x2="202.2256" y2="48.8027" gradientTransform="matrix(0.75 0 0 -0.75 340.037 479.797)">
		<stop  offset="0" style="stop-color:#C7AD87"/>
		<stop  offset="0.15" style="stop-color:#FFE6C6"/>
		<stop  offset="0.25" style="stop-color:#FFE8CA"/>
		<stop  offset="0.52" style="stop-color:#DFC297"/>
		<stop  offset="0.69" style="stop-color:#C7AD86"/>
		<stop  offset="0.8" style="stop-color:#BCA37E"/>
		<stop  offset="0.92" style="stop-color:#B19A77"/>
	</linearGradient>
	<path fill="url(#SVGID_1_)" d="M491.707,328.82h28.5v228.75h-28.5V328.82z"/>
	
		<linearGradient id="SVGID_2_" gradientUnits="userSpaceOnUse" x1="263.2246" y1="194.3252" x2="202.2246" y2="194.3252" gradientTransform="matrix(0.75 0 0 -0.75 331.6434 707.6115)">
		<stop  offset="0" style="stop-color:#C7AD87"/>
		<stop  offset="0.15" style="stop-color:#FFE6C6"/>
		<stop  offset="0.25" style="stop-color:#FFE8CA"/>
		<stop  offset="0.52" style="stop-color:#DFC297"/>
		<stop  offset="0.69" style="stop-color:#C7AD86"/>
		<stop  offset="0.8" style="stop-color:#BCA37E"/>
		<stop  offset="0.92" style="stop-color:#B19A77"/>
	</linearGradient>
	<path fill="url(#SVGID_2_)" d="M487.062,556.632h38.25c1.5,0,3.449,1.605,3.449,3.625l0.301,3.125c0,2.25-1.93,3.566-3.934,3.566
		l-38.066,0.184c-2.25,0-3.75-1.82-3.75-3.836v-2.914c0-2.25,1.582-3.777,3.59-3.777L487.062,556.632z"/>
	
		<linearGradient id="SVGID_3_" gradientUnits="userSpaceOnUse" x1="240.2231" y1="48.8027" x2="202.2241" y2="48.8027" gradientTransform="matrix(0.75 0 0 -0.75 113.6522 479.797)">
		<stop  offset="0" style="stop-color:#C7AD87"/>
		<stop  offset="0.15" style="stop-color:#FFE6C6"/>
		<stop  offset="0.25" style="stop-color:#FFE8CA"/>
		<stop  offset="0.52" style="stop-color:#DFC297"/>
		<stop  offset="0.69" style="stop-color:#C7AD86"/>
		<stop  offset="0.8" style="stop-color:#BCA37E"/>
		<stop  offset="0.92" style="stop-color:#B19A77"/>
	</linearGradient>
	<path fill="url(#SVGID_3_)" d="M265.32,328.82h28.5v228.75h-28.5V328.82z"/>
	
		<linearGradient id="SVGID_4_" gradientUnits="userSpaceOnUse" x1="263.2227" y1="194.3252" x2="202.2227" y2="194.3252" gradientTransform="matrix(0.75 0 0 -0.75 105.2582 707.6115)">
		<stop  offset="0" style="stop-color:#C7AD87"/>
		<stop  offset="0.15" style="stop-color:#FFE6C6"/>
		<stop  offset="0.25" style="stop-color:#FFE8CA"/>
		<stop  offset="0.52" style="stop-color:#DFC297"/>
		<stop  offset="0.69" style="stop-color:#C7AD86"/>
		<stop  offset="0.8" style="stop-color:#BCA37E"/>
		<stop  offset="0.92" style="stop-color:#B19A77"/>
	</linearGradient>
	<path fill="url(#SVGID_4_)" d="M260.676,556.632h38.25c1.5,0,3.449,1.605,3.449,3.625l0.301,3.125c0,2.25-1.926,3.566-3.934,3.566
		l-38.066,0.184c-2.25,0-3.75-1.82-3.75-3.836v-2.914c0-2.25,1.586-3.777,3.59-3.777L260.676,556.632z"/>
	<path fill="#D6BA91" d="M213.805,328.894h352.5v29.25h-352.5V328.894z"/>
	<path fill="#876A3F" d="M213.805,328.894h352.5v4.5h-352.5V328.894z"/>
	
		<linearGradient id="SVGID_5_" gradientUnits="userSpaceOnUse" x1="223.2231" y1="201.3027" x2="223.2231" y2="106.3037" gradientTransform="matrix(0.75 0 0 -0.75 38.6649 366.8488)">
		<stop  offset="0" style="stop-color:#C7AD87"/>
		<stop  offset="0.15" style="stop-color:#FFE6C6"/>
		<stop  offset="0.25" style="stop-color:#FFE8CA"/>
		<stop  offset="0.52" style="stop-color:#DFC297"/>
		<stop  offset="0.69" style="stop-color:#C7AD86"/>
		<stop  offset="0.8" style="stop-color:#BCA37E"/>
		<stop  offset="0.92" style="stop-color:#B19A77"/>
	</linearGradient>
	<path fill="url(#SVGID_5_)" d="M221.832,215.871h-31.5v71.25h31.5V215.871z"/>
	
		<linearGradient id="SVGID_6_" gradientUnits="userSpaceOnUse" x1="228.2256" y1="201.3008" x2="228.2256" y2="15.3018" gradientTransform="matrix(0.75 0 0 -0.75 -0.673 332.7452)">
		<stop  offset="0" style="stop-color:#C7AD87"/>
		<stop  offset="0.15" style="stop-color:#FFE6C6"/>
		<stop  offset="0.25" style="stop-color:#FFE8CA"/>
		<stop  offset="0.52" style="stop-color:#DFC297"/>
		<stop  offset="0.69" style="stop-color:#C7AD86"/>
		<stop  offset="0.8" style="stop-color:#BCA37E"/>
		<stop  offset="0.92" style="stop-color:#B19A77"/>
	</linearGradient>
	<path fill="url(#SVGID_6_)" d="M189.996,181.77h-39v139.5h39V181.77z"/>
	
		<linearGradient id="SVGID_7_" gradientUnits="userSpaceOnUse" x1="207.2256" y1="201.3057" x2="207.2256" y2="84.3057" gradientTransform="matrix(0.75 0 0 -0.75 67.1161 358.382)">
		<stop  offset="0" style="stop-color:#C7AD87"/>
		<stop  offset="0.15" style="stop-color:#FFE6C6"/>
		<stop  offset="0.25" style="stop-color:#FFE8CA"/>
		<stop  offset="0.52" style="stop-color:#DFC297"/>
		<stop  offset="0.69" style="stop-color:#C7AD86"/>
		<stop  offset="0.8" style="stop-color:#BCA37E"/>
		<stop  offset="0.92" style="stop-color:#B19A77"/>
	</linearGradient>
	<path fill="url(#SVGID_7_)" d="M226.285,207.402h-7.5v87.75h7.5V207.402z"/>
	
		<linearGradient id="SVGID_8_" gradientUnits="userSpaceOnUse" x1="394.7222" y1="201.3066" x2="394.7222" y2="-6.6934" gradientTransform="matrix(0.75 0 0 -0.75 95.7269 324.2491)">
		<stop  offset="0" style="stop-color:#C7AD87"/>
		<stop  offset="0.15" style="stop-color:#FFE6C6"/>
		<stop  offset="0.25" style="stop-color:#FFE8CA"/>
		<stop  offset="0.52" style="stop-color:#DFC297"/>
		<stop  offset="0.69" style="stop-color:#C7AD86"/>
		<stop  offset="0.8" style="stop-color:#BCA37E"/>
		<stop  offset="0.92" style="stop-color:#B19A77"/>
	</linearGradient>
	<path fill="url(#SVGID_8_)" d="M247.395,173.27h288.75v156h-288.75V173.27z"/>
	
		<linearGradient id="SVGID_9_" gradientUnits="userSpaceOnUse" x1="172.1963" y1="201.3027" x2="172.1963" y2="-7.6963" gradientTransform="matrix(-0.75 0 0 -0.75 679.2374 323.92)">
		<stop  offset="0" style="stop-color:#C7AD87"/>
		<stop  offset="0.15" style="stop-color:#FFE6C6"/>
		<stop  offset="0.25" style="stop-color:#FFE8CA"/>
		<stop  offset="0.52" style="stop-color:#DFC297"/>
		<stop  offset="0.69" style="stop-color:#C7AD86"/>
		<stop  offset="0.8" style="stop-color:#BCA37E"/>
		<stop  offset="0.92" style="stop-color:#B19A77"/>
	</linearGradient>
	<path fill="url(#SVGID_9_)" d="M549.71,172.941h-4.5v156.75h4.5c3,0,5.262-2.313,5.262-5.09l-0.012-146.41
		c0-3-2.227-5.25-4.988-5.25H549.71z"/>
	
		<linearGradient id="SVGID_10_" gradientUnits="userSpaceOnUse" x1="208.7153" y1="201.3037" x2="208.7153" y2="-7.6953" gradientTransform="matrix(0.75 0 0 -0.75 74.7992 323.92)">
		<stop  offset="0" style="stop-color:#C7AD87"/>
		<stop  offset="0.15" style="stop-color:#FFE6C6"/>
		<stop  offset="0.25" style="stop-color:#FFE8CA"/>
		<stop  offset="0.52" style="stop-color:#DFC297"/>
		<stop  offset="0.69" style="stop-color:#C7AD86"/>
		<stop  offset="0.8" style="stop-color:#BCA37E"/>
		<stop  offset="0.92" style="stop-color:#B19A77"/>
	</linearGradient>
	<path fill="url(#SVGID_10_)" d="M231.719,172.941h4.5v156.75h-4.5c-3,0-5.266-2.313-5.266-5.09l0.016-146.41
		c0-3,2.227-5.25,4.988-5.25H231.719z"/>
	
		<linearGradient id="SVGID_11_" gradientUnits="userSpaceOnUse" x1="212.1729" y1="201.3057" x2="212.1728" y2="-7.6943" gradientTransform="matrix(0.75 0 0 -0.75 82.5717 323.9044)">
		<stop  offset="0" style="stop-color:#9F8867"/>
		<stop  offset="0.15" style="stop-color:#DABE97"/>
		<stop  offset="0.25" style="stop-color:#EADCCB"/>
		<stop  offset="0.52" style="stop-color:#BCA27B"/>
		<stop  offset="0.69" style="stop-color:#A78F6D"/>
		<stop  offset="0.8" style="stop-color:#9E8766"/>
		<stop  offset="0.92" style="stop-color:#957F60"/>
		<stop  offset="1" style="stop-color:#AB936F"/>
	</linearGradient>
	<path fill="url(#SVGID_11_)" d="M234.242,172.926h15v156.75h-15l-0.082-156.75H234.242z"/>
	
		<linearGradient id="SVGID_12_" gradientUnits="userSpaceOnUse" x1="209.3193" y1="201.3057" x2="209.3193" y2="-21.5435" gradientTransform="matrix(0.75 0 0 -0.75 84.7899 318.8419)">
		<stop  offset="0" style="stop-color:#C7AD87"/>
		<stop  offset="0.15" style="stop-color:#FFE6C6"/>
		<stop  offset="0.25" style="stop-color:#FFE8CA"/>
		<stop  offset="0.52" style="stop-color:#DFC297"/>
		<stop  offset="0.69" style="stop-color:#C7AD86"/>
		<stop  offset="0.8" style="stop-color:#BCA37E"/>
		<stop  offset="0.92" style="stop-color:#B19A77"/>
	</linearGradient>
	<path fill="url(#SVGID_12_)" d="M241.711,167.863c3,0,5.402,2.387,5.402,5.348l-0.152,156.652c0,3-2.234,5.133-5.18,5.133
		c-3.07,0.117-5.336-2.441-5.336-5.402l0.016-156.48c0-3,2.371-5.25,5.32-5.25H241.711z"/>
	
		<linearGradient id="SVGID_13_" gradientUnits="userSpaceOnUse" x1="212.1709" y1="201.3066" x2="212.1709" y2="-7.6934" gradientTransform="matrix(0.75 0 0 -0.75 380.3846 323.9044)">
		<stop  offset="0" style="stop-color:#9F8867"/>
		<stop  offset="0.15" style="stop-color:#DABE97"/>
		<stop  offset="0.25" style="stop-color:#EADCCB"/>
		<stop  offset="0.52" style="stop-color:#BCA27B"/>
		<stop  offset="0.69" style="stop-color:#A78F6D"/>
		<stop  offset="0.8" style="stop-color:#9E8766"/>
		<stop  offset="0.92" style="stop-color:#957F60"/>
		<stop  offset="1" style="stop-color:#AB936F"/>
	</linearGradient>
	<path fill="url(#SVGID_13_)" d="M532.054,172.926h15v156.75h-15l-0.082-156.75H532.054z"/>
	
		<linearGradient id="SVGID_14_" gradientUnits="userSpaceOnUse" x1="172.7993" y1="201.3047" x2="172.7993" y2="-21.5444" gradientTransform="matrix(-0.75 0 0 -0.75 669.2452 318.8419)">
		<stop  offset="0" style="stop-color:#C7AD87"/>
		<stop  offset="0.15" style="stop-color:#FFE6C6"/>
		<stop  offset="0.25" style="stop-color:#FFE8CA"/>
		<stop  offset="0.52" style="stop-color:#DFC297"/>
		<stop  offset="0.69" style="stop-color:#C7AD86"/>
		<stop  offset="0.8" style="stop-color:#BCA37E"/>
		<stop  offset="0.92" style="stop-color:#B19A77"/>
	</linearGradient>
	<path fill="url(#SVGID_14_)" d="M539.718,167.863c-3,0-5.406,2.387-5.406,5.348l0.156,156.652c0,3,2.234,5.133,5.18,5.133
		c3.07,0.117,5.332-2.441,5.332-5.402l-0.012-156.48c0-3-2.375-5.25-5.32-5.25H539.718z"/>
	
		<linearGradient id="SVGID_15_" gradientUnits="userSpaceOnUse" x1="366.6265" y1="308.7046" x2="481.6255" y2="308.7046" gradientTransform="matrix(0 0.75 -0.75 0 320.7277 -44.4972)">
		<stop  offset="0" style="stop-color:#C7AD87"/>
		<stop  offset="0.15" style="stop-color:#FFE6C6"/>
		<stop  offset="0.25" style="stop-color:#FFE8CA"/>
		<stop  offset="0.52" style="stop-color:#DFC297"/>
		<stop  offset="0.69" style="stop-color:#C7AD86"/>
		<stop  offset="0.8" style="stop-color:#BCA37E"/>
		<stop  offset="0.92" style="stop-color:#B19A77"/>
	</linearGradient>
	<path fill="url(#SVGID_15_)" d="M131.949,230.473h-85.5v86.25h85.5V230.473z"/>
	
		<linearGradient id="SVGID_16_" gradientUnits="userSpaceOnUse" x1="366.6255" y1="335.2065" x2="482.6255" y2="335.2065" gradientTransform="matrix(0 0.75 -0.75 0 274.9904 -44.528)">
		<stop  offset="0" style="stop-color:#C7AD87"/>
		<stop  offset="0.15" style="stop-color:#FFE6C6"/>
		<stop  offset="0.25" style="stop-color:#FFE8CA"/>
		<stop  offset="0.52" style="stop-color:#DFC297"/>
		<stop  offset="0.69" style="stop-color:#C7AD86"/>
		<stop  offset="0.8" style="stop-color:#BCA37E"/>
		<stop  offset="0.92" style="stop-color:#B19A77"/>
	</linearGradient>
	<path fill="url(#SVGID_16_)" d="M46.461,230.441h-36c0,0-4.172,0.648-5.434,5.504c0.184-0.254-4.316,17.016-4.316,37.82
		c0,20.425,4.316,37.843,4.316,37.843c1.684,5.832,5.445,5.48,5.445,5.48l35.988,0.352V230.441z"/>
	
		<linearGradient id="SVGID_17_" gradientUnits="userSpaceOnUse" x1="366.6265" y1="364.7036" x2="481.6255" y2="364.7036" gradientTransform="matrix(0 0.75 -0.75 0 319.9454 -44.4972)">
		<stop  offset="0" style="stop-color:#9F8867"/>
		<stop  offset="0.15" style="stop-color:#DABE97"/>
		<stop  offset="0.25" style="stop-color:#EADCCB"/>
		<stop  offset="0.52" style="stop-color:#BCA27B"/>
		<stop  offset="0.69" style="stop-color:#A78F6D"/>
		<stop  offset="0.8" style="stop-color:#9E8766"/>
		<stop  offset="0.92" style="stop-color:#957F60"/>
		<stop  offset="1" style="stop-color:#AB936F"/>
	</linearGradient>
	<path fill="url(#SVGID_17_)" d="M47.168,230.473h-1.5v86.25h1.5V230.473z"/>
	
		<linearGradient id="SVGID_18_" gradientUnits="userSpaceOnUse" x1="218.311" y1="201.3262" x2="218.311" y2="198.8887" gradientTransform="matrix(-0.75 0 0 -0.75 250.0724 423.8312)">
		<stop  offset="0" style="stop-color:#C7AD87"/>
		<stop  offset="0.15" style="stop-color:#FFE6C6"/>
		<stop  offset="0.25" style="stop-color:#FFE8CA"/>
		<stop  offset="0.52" style="stop-color:#DFC297"/>
		<stop  offset="0.69" style="stop-color:#C7AD86"/>
		<stop  offset="0.8" style="stop-color:#BCA37E"/>
		<stop  offset="0.92" style="stop-color:#B19A77"/>
	</linearGradient>
	<path fill="url(#SVGID_18_)" d="M125.043,272.855h-77.25c-0.75,0-0.906,0.234-0.906,0.551c0.156,0.949,0.34,1.258,0.758,1.258
		l77.398-0.309c0.75,0,0.75,0.055,0.75-0.262c0-1.238-0.313-1.258-0.727-1.258L125.043,272.855z"/>
	
		<linearGradient id="SVGID_19_" gradientUnits="userSpaceOnUse" x1="218.311" y1="201.3252" x2="218.311" y2="198.8877" gradientTransform="matrix(-0.75 0 0 -0.75 250.0724 429.9083)">
		<stop  offset="0" style="stop-color:#C7AD87"/>
		<stop  offset="0.15" style="stop-color:#FFE6C6"/>
		<stop  offset="0.25" style="stop-color:#FFE8CA"/>
		<stop  offset="0.52" style="stop-color:#DFC297"/>
		<stop  offset="0.69" style="stop-color:#C7AD86"/>
		<stop  offset="0.8" style="stop-color:#BCA37E"/>
		<stop  offset="0.92" style="stop-color:#B19A77"/>
	</linearGradient>
	<path fill="url(#SVGID_19_)" d="M125.043,278.93h-77.25c-0.75,0-0.906,0.238-0.906,0.551c0.156,0.949,0.34,1.262,0.758,1.262
		l77.398-0.313c0.75,0,0.75,0.059,0.75-0.258c0-1.242-0.313-1.258-0.727-1.258L125.043,278.93z"/>
	
		<linearGradient id="SVGID_20_" gradientUnits="userSpaceOnUse" x1="218.311" y1="201.3281" x2="218.311" y2="198.8906" gradientTransform="matrix(-0.75 0 0 -0.75 250.0724 435.9923)">
		<stop  offset="0" style="stop-color:#C7AD87"/>
		<stop  offset="0.15" style="stop-color:#FFE6C6"/>
		<stop  offset="0.25" style="stop-color:#FFE8CA"/>
		<stop  offset="0.52" style="stop-color:#DFC297"/>
		<stop  offset="0.69" style="stop-color:#C7AD86"/>
		<stop  offset="0.8" style="stop-color:#BCA37E"/>
		<stop  offset="0.92" style="stop-color:#B19A77"/>
	</linearGradient>
	<path fill="url(#SVGID_20_)" d="M125.043,285.015h-77.25c-0.75,0-0.906,0.234-0.906,0.551c0.156,0.949,0.34,1.258,0.758,1.258
		l77.398-0.309c0.75,0,0.75,0.055,0.75-0.262c0-1.238-0.313-1.258-0.727-1.258L125.043,285.015z"/>
	
		<linearGradient id="SVGID_21_" gradientUnits="userSpaceOnUse" x1="218.311" y1="201.3281" x2="218.311" y2="198.8906" gradientTransform="matrix(-0.75 0 0 -0.75 250.0724 442.0743)">
		<stop  offset="0" style="stop-color:#C7AD87"/>
		<stop  offset="0.15" style="stop-color:#FFE6C6"/>
		<stop  offset="0.25" style="stop-color:#FFE8CA"/>
		<stop  offset="0.52" style="stop-color:#DFC297"/>
		<stop  offset="0.69" style="stop-color:#C7AD86"/>
		<stop  offset="0.8" style="stop-color:#BCA37E"/>
		<stop  offset="0.92" style="stop-color:#B19A77"/>
	</linearGradient>
	<path fill="url(#SVGID_21_)" d="M125.043,291.097h-77.25c-0.75,0-0.906,0.234-0.906,0.551c0.156,0.949,0.34,1.258,0.758,1.258
		l77.398-0.309c0.75,0,0.75,0.055,0.75-0.258c0-1.242-0.313-1.262-0.727-1.262L125.043,291.097z"/>
	
		<linearGradient id="SVGID_22_" gradientUnits="userSpaceOnUse" x1="218.311" y1="201.3281" x2="218.311" y2="198.8906" gradientTransform="matrix(-0.75 0 0 -0.75 250.0724 448.5431)">
		<stop  offset="0" style="stop-color:#C7AD87"/>
		<stop  offset="0.15" style="stop-color:#FFE6C6"/>
		<stop  offset="0.25" style="stop-color:#FFE8CA"/>
		<stop  offset="0.52" style="stop-color:#DFC297"/>
		<stop  offset="0.69" style="stop-color:#C7AD86"/>
		<stop  offset="0.8" style="stop-color:#BCA37E"/>
		<stop  offset="0.92" style="stop-color:#B19A77"/>
	</linearGradient>
	<path fill="url(#SVGID_22_)" d="M125.043,297.566h-77.25c-0.75,0-0.906,0.234-0.906,0.551c0.156,0.949,0.34,1.258,0.758,1.258
		l77.398-0.309c0.75,0,0.75,0.055,0.75-0.262c0-1.238-0.313-1.258-0.727-1.258L125.043,297.566z"/>
	
		<linearGradient id="SVGID_23_" gradientUnits="userSpaceOnUse" x1="218.311" y1="201.3291" x2="218.311" y2="198.8916" gradientTransform="matrix(-0.75 0 0 -0.75 250.0724 454.4337)">
		<stop  offset="0" style="stop-color:#C7AD87"/>
		<stop  offset="0.15" style="stop-color:#FFE6C6"/>
		<stop  offset="0.25" style="stop-color:#FFE8CA"/>
		<stop  offset="0.52" style="stop-color:#DFC297"/>
		<stop  offset="0.69" style="stop-color:#C7AD86"/>
		<stop  offset="0.8" style="stop-color:#BCA37E"/>
		<stop  offset="0.92" style="stop-color:#B19A77"/>
	</linearGradient>
	<path fill="url(#SVGID_23_)" d="M125.043,303.457h-77.25c-0.75,0-0.906,0.234-0.906,0.551c0.156,0.949,0.34,1.258,0.758,1.258
		l77.398-0.309c0.75,0,0.75,0.055,0.75-0.258c0-1.242-0.313-1.262-0.727-1.262L125.043,303.457z"/>
	
		<linearGradient id="SVGID_24_" gradientUnits="userSpaceOnUse" x1="218.311" y1="201.3291" x2="218.311" y2="198.8916" gradientTransform="matrix(-0.75 0 0 -0.75 250.0724 417.7423)">
		<stop  offset="0" style="stop-color:#C7AD87"/>
		<stop  offset="0.15" style="stop-color:#FFE6C6"/>
		<stop  offset="0.25" style="stop-color:#FFE8CA"/>
		<stop  offset="0.52" style="stop-color:#DFC297"/>
		<stop  offset="0.69" style="stop-color:#C7AD86"/>
		<stop  offset="0.8" style="stop-color:#BCA37E"/>
		<stop  offset="0.92" style="stop-color:#B19A77"/>
	</linearGradient>
	<path fill="url(#SVGID_24_)" d="M125.043,266.766h-77.25c-0.75,0-0.906,0.234-0.906,0.551c0.156,0.949,0.34,1.258,0.758,1.258
		l77.398-0.309c0.75,0,0.75,0.055,0.75-0.258c0-1.242-0.313-1.262-0.727-1.262L125.043,266.766z"/>
	
		<linearGradient id="SVGID_25_" gradientUnits="userSpaceOnUse" x1="218.311" y1="201.3291" x2="218.311" y2="198.8916" gradientTransform="matrix(-0.75 0 0 -0.75 250.0724 460.3243)">
		<stop  offset="0" style="stop-color:#C7AD87"/>
		<stop  offset="0.15" style="stop-color:#FFE6C6"/>
		<stop  offset="0.25" style="stop-color:#FFE8CA"/>
		<stop  offset="0.52" style="stop-color:#DFC297"/>
		<stop  offset="0.69" style="stop-color:#C7AD86"/>
		<stop  offset="0.8" style="stop-color:#BCA37E"/>
		<stop  offset="0.92" style="stop-color:#B19A77"/>
	</linearGradient>
	<path fill="url(#SVGID_25_)" d="M125.043,309.347h-77.25c-0.75,0-0.906,0.234-0.906,0.551c0.156,0.949,0.34,1.258,0.758,1.258
		l77.398-0.309c0.75,0,0.75,0.055,0.75-0.258c0-1.242-0.313-1.262-0.727-1.262L125.043,309.347z"/>
	
		<linearGradient id="SVGID_26_" gradientUnits="userSpaceOnUse" x1="218.311" y1="201.3281" x2="218.311" y2="198.8906" gradientTransform="matrix(-0.75 0 0 -0.75 250.0724 393.4103)">
		<stop  offset="0" style="stop-color:#C7AD87"/>
		<stop  offset="0.15" style="stop-color:#FFE6C6"/>
		<stop  offset="0.25" style="stop-color:#FFE8CA"/>
		<stop  offset="0.52" style="stop-color:#DFC297"/>
		<stop  offset="0.69" style="stop-color:#C7AD86"/>
		<stop  offset="0.8" style="stop-color:#BCA37E"/>
		<stop  offset="0.92" style="stop-color:#B19A77"/>
	</linearGradient>
	<path fill="url(#SVGID_26_)" d="M125.043,242.434h-77.25c-0.75,0-0.906,0.234-0.906,0.551c0.156,0.949,0.34,1.258,0.758,1.258
		l77.398-0.309c0.75,0,0.75,0.055,0.75-0.258c0-1.242-0.313-1.262-0.727-1.262L125.043,242.434z"/>
	
		<linearGradient id="SVGID_27_" gradientUnits="userSpaceOnUse" x1="218.311" y1="201.3252" x2="218.311" y2="198.8877" gradientTransform="matrix(-0.75 0 0 -0.75 250.0724 399.4943)">
		<stop  offset="0" style="stop-color:#C7AD87"/>
		<stop  offset="0.15" style="stop-color:#FFE6C6"/>
		<stop  offset="0.25" style="stop-color:#FFE8CA"/>
		<stop  offset="0.52" style="stop-color:#DFC297"/>
		<stop  offset="0.69" style="stop-color:#C7AD86"/>
		<stop  offset="0.8" style="stop-color:#BCA37E"/>
		<stop  offset="0.92" style="stop-color:#B19A77"/>
	</linearGradient>
	<path fill="url(#SVGID_27_)" d="M125.043,248.516h-77.25c-0.75,0-0.906,0.238-0.906,0.551c0.156,0.949,0.34,1.262,0.758,1.262
		l77.398-0.313c0.75,0,0.75,0.055,0.75-0.258c0-1.242-0.313-1.258-0.727-1.258L125.043,248.516z"/>
	
		<linearGradient id="SVGID_28_" gradientUnits="userSpaceOnUse" x1="218.311" y1="201.3252" x2="218.311" y2="198.8877" gradientTransform="matrix(-0.75 0 0 -0.75 250.0724 405.5763)">
		<stop  offset="0" style="stop-color:#C7AD87"/>
		<stop  offset="0.15" style="stop-color:#FFE6C6"/>
		<stop  offset="0.25" style="stop-color:#FFE8CA"/>
		<stop  offset="0.52" style="stop-color:#DFC297"/>
		<stop  offset="0.69" style="stop-color:#C7AD86"/>
		<stop  offset="0.8" style="stop-color:#BCA37E"/>
		<stop  offset="0.92" style="stop-color:#B19A77"/>
	</linearGradient>
	<path fill="url(#SVGID_28_)" d="M125.043,254.598h-77.25c-0.75,0-0.906,0.238-0.906,0.551c0.156,0.949,0.34,1.262,0.758,1.262
		l77.398-0.313c0.75,0,0.75,0.059,0.75-0.258c0-1.242-0.313-1.258-0.727-1.258L125.043,254.598z"/>
	
		<linearGradient id="SVGID_29_" gradientUnits="userSpaceOnUse" x1="218.311" y1="201.3291" x2="218.311" y2="198.8916" gradientTransform="matrix(-0.75 0 0 -0.75 250.0724 411.6603)">
		<stop  offset="0" style="stop-color:#C7AD87"/>
		<stop  offset="0.15" style="stop-color:#FFE6C6"/>
		<stop  offset="0.25" style="stop-color:#FFE8CA"/>
		<stop  offset="0.52" style="stop-color:#DFC297"/>
		<stop  offset="0.69" style="stop-color:#C7AD86"/>
		<stop  offset="0.8" style="stop-color:#BCA37E"/>
		<stop  offset="0.92" style="stop-color:#B19A77"/>
	</linearGradient>
	<path fill="url(#SVGID_29_)" d="M125.043,260.684h-77.25c-0.75,0-0.906,0.234-0.906,0.551c0.156,0.949,0.34,1.258,0.758,1.258
		l77.398-0.309c0.75,0,0.75,0.055,0.75-0.262c0-1.238-0.313-1.258-0.727-1.258L125.043,260.684z"/>
	
		<linearGradient id="SVGID_30_" gradientUnits="userSpaceOnUse" x1="218.311" y1="201.3281" x2="218.311" y2="198.8906" gradientTransform="matrix(-0.75 0 0 -0.75 250.0724 387.3282)">
		<stop  offset="0" style="stop-color:#C7AD87"/>
		<stop  offset="0.15" style="stop-color:#FFE6C6"/>
		<stop  offset="0.25" style="stop-color:#FFE8CA"/>
		<stop  offset="0.52" style="stop-color:#DFC297"/>
		<stop  offset="0.69" style="stop-color:#C7AD86"/>
		<stop  offset="0.8" style="stop-color:#BCA37E"/>
		<stop  offset="0.92" style="stop-color:#B19A77"/>
	</linearGradient>
	<path fill="url(#SVGID_30_)" d="M125.043,236.352h-77.25c-0.75,0-0.906,0.234-0.906,0.551c0.156,0.949,0.34,1.258,0.758,1.258
		l77.398-0.309c0.75,0,0.75,0.055,0.75-0.262c0-1.238-0.313-1.258-0.727-1.258L125.043,236.352z"/>
	
		<linearGradient id="SVGID_31_" gradientUnits="userSpaceOnUse" x1="110.3008" y1="358.6157" x2="1.3018" y2="358.6157" gradientTransform="matrix(0 -0.75 -0.75 0 410.1144 315.6788)">
		<stop  offset="0" style="stop-color:#C7AD87"/>
		<stop  offset="0.15" style="stop-color:#FFE6C6"/>
		<stop  offset="0.25" style="stop-color:#FFE8CA"/>
		<stop  offset="0.52" style="stop-color:#DFC297"/>
		<stop  offset="0.69" style="stop-color:#C7AD86"/>
		<stop  offset="0.8" style="stop-color:#BCA37E"/>
		<stop  offset="0.92" style="stop-color:#B19A77"/>
	</linearGradient>
	<path fill="url(#SVGID_31_)" d="M135.836,232.953c0,0,5.922,2.402,10.633,11.367c-0.133-0.117,0,58.871,0,58.871
		c-5.383,9.262-10.633,11.512-10.633,11.512V232.953z"/>
	
		<linearGradient id="SVGID_32_" gradientUnits="userSpaceOnUse" x1="123.3047" y1="363.7095" x2="1.3047" y2="363.7095" gradientTransform="matrix(0 -0.75 -0.75 0 405.8302 320.3058)">
		<stop  offset="0" style="stop-color:#9F8867"/>
		<stop  offset="0.15" style="stop-color:#DABE97"/>
		<stop  offset="0.25" style="stop-color:#EADCCB"/>
		<stop  offset="0.52" style="stop-color:#BCA27B"/>
		<stop  offset="0.69" style="stop-color:#A78F6D"/>
		<stop  offset="0.8" style="stop-color:#9E8766"/>
		<stop  offset="0.92" style="stop-color:#957F60"/>
		<stop  offset="1" style="stop-color:#AB936F"/>
	</linearGradient>
	<path fill="url(#SVGID_32_)" d="M133.805,227.828h0.75v91.5h-0.75c-1.5,0-2.262-0.441-2.262-0.945l0.012-89.054
		c0-0.75,0.836-1.129,1.883-1.129L133.805,227.828z"/>
	
		<linearGradient id="SVGID_33_" gradientUnits="userSpaceOnUse" x1="123.3047" y1="363.6138" x2="1.3047" y2="363.6138" gradientTransform="matrix(0 -0.75 -0.75 0 407.4708 320.3058)">
		<stop  offset="0" style="stop-color:#C7AD87"/>
		<stop  offset="0.15" style="stop-color:#FFE6C6"/>
		<stop  offset="0.25" style="stop-color:#FFE8CA"/>
		<stop  offset="0.52" style="stop-color:#DFC297"/>
		<stop  offset="0.69" style="stop-color:#C7AD86"/>
		<stop  offset="0.8" style="stop-color:#BCA37E"/>
		<stop  offset="0.92" style="stop-color:#B19A77"/>
	</linearGradient>
	<path fill="url(#SVGID_33_)" d="M134.691,227.828h0.75c0.75,0,0.93,0.789,0.93,1.289l-0.18,89.46c0,0-0.34,0.75-0.984,0.75h-0.516
		c-0.75,0-1.539-0.441-1.539-0.945l0.039-89.054c0-0.75,0.484-1.129,1.129-1.129L134.691,227.828z"/>
	
		<linearGradient id="SVGID_34_" gradientUnits="userSpaceOnUse" x1="203.2275" y1="201.3047" x2="203.2275" y2="124.3057" gradientTransform="matrix(0.75 0 0 -0.75 -6.2448 396.1232)">
		<stop  offset="0" style="stop-color:#9F8867"/>
		<stop  offset="0.15" style="stop-color:#DABE97"/>
		<stop  offset="0.25" style="stop-color:#EADCCB"/>
		<stop  offset="0.52" style="stop-color:#BCA27B"/>
		<stop  offset="0.69" style="stop-color:#A78F6D"/>
		<stop  offset="0.8" style="stop-color:#9E8766"/>
		<stop  offset="0.92" style="stop-color:#957F60"/>
		<stop  offset="1" style="stop-color:#AB936F"/>
	</linearGradient>
	<path fill="url(#SVGID_34_)" d="M146.926,245.145v57.75h-1.5v-57.75H146.926z"/>
	
		<linearGradient id="SVGID_35_" gradientUnits="userSpaceOnUse" x1="205.2183" y1="201.3018" x2="205.2183" y2="120.5977" gradientTransform="matrix(0.75 0 0 -0.75 -5.1617 394.4962)">
		<stop  offset="0" style="stop-color:#C7AD87"/>
		<stop  offset="0.15" style="stop-color:#FFE6C6"/>
		<stop  offset="0.25" style="stop-color:#FFE8CA"/>
		<stop  offset="0.52" style="stop-color:#DFC297"/>
		<stop  offset="0.69" style="stop-color:#C7AD86"/>
		<stop  offset="0.8" style="stop-color:#BCA37E"/>
		<stop  offset="0.92" style="stop-color:#B19A77"/>
	</linearGradient>
	<path fill="url(#SVGID_35_)" d="M148.758,243.52c1.5,0,2.047,0.891,2.047,1.992l0.203,56.507c0,0.75-1.09,1.992-2.184,1.992
		c-1.566,0.258-2.328-0.914-2.328-2.016l0.012-56.226c0-1.5,0.875-2.25,1.973-2.25H148.758z"/>
</g>
</svg>
