<?xml version="1.0" encoding="utf-8"?>
<!-- Generator: Adobe Illustrator 16.0.0, SVG Export Plug-In . SVG Version: 6.00 Build 0)  -->
<!DOCTYPE svg PUBLIC "-//W3C//DTD SVG 1.1//EN" "http://www.w3.org/Graphics/SVG/1.1/DTD/svg11.dtd">
<svg preserveAspectRatio="none"   version="1.1" id="图层_1" xmlns="http://www.w3.org/2000/svg" xmlns:xlink="http://www.w3.org/1999/xlink" x="0px" y="0px"
	 width="563.007px" height="481.621px" viewBox="1.883 42.625 563.007 481.621"
	 enable-background="new 1.883 42.625 563.007 481.621" xml:space="preserve">
<g id="surface411">
	<path fill="#A1A9B3" d="M47.953,60.684h159l102.75,179.25L47.953,60.684z"/>
	
		<linearGradient id="SVGID_1_" gradientUnits="userSpaceOnUse" x1="238.2256" y1="171.8027" x2="202.2256" y2="171.8027" gradientTransform="matrix(0.75 0 0 -0.75 248.619 612.2491)">
		<stop  offset="0" style="stop-color:#A1A9B3"/>
		<stop  offset="0.09" style="stop-color:#A3ACB6"/>
		<stop  offset="0.36" style="stop-color:#C9D4E0"/>
		<stop  offset="0.56" style="stop-color:#B5BFC9"/>
		<stop  offset="0.83" style="stop-color:#9199A2"/>
		<stop  offset="1" style="stop-color:#676D74"/>
	</linearGradient>
	<path fill="url(#SVGID_1_)" d="M400.289,461.273h27v44.25h-27V461.273z"/>
	
		<linearGradient id="SVGID_2_" gradientUnits="userSpaceOnUse" x1="238.2236" y1="171.8027" x2="202.2236" y2="171.8027" gradientTransform="matrix(0.75 0 0 -0.75 173.2382 612.2491)">
		<stop  offset="0" style="stop-color:#A1A9B3"/>
		<stop  offset="0.09" style="stop-color:#A3ACB6"/>
		<stop  offset="0.36" style="stop-color:#C9D4E0"/>
		<stop  offset="0.56" style="stop-color:#B5BFC9"/>
		<stop  offset="0.83" style="stop-color:#9199A2"/>
		<stop  offset="1" style="stop-color:#676D74"/>
	</linearGradient>
	<path fill="url(#SVGID_2_)" d="M324.906,461.273h27v44.25h-27V461.273z"/>
	
		<linearGradient id="SVGID_3_" gradientUnits="userSpaceOnUse" x1="645.2241" y1="44.3047" x2="202.2251" y2="44.3046" gradientTransform="matrix(0.75 0 0 -0.75 53.6664 211.8917)">
		<stop  offset="0" style="stop-color:#A1A9B3"/>
		<stop  offset="0.09" style="stop-color:#A3ACB6"/>
		<stop  offset="0.36" style="stop-color:#C9D4E0"/>
		<stop  offset="0.56" style="stop-color:#B5BFC9"/>
		<stop  offset="0.83" style="stop-color:#9199A2"/>
		<stop  offset="1" style="stop-color:#676D74"/>
	</linearGradient>
	<path fill="url(#SVGID_3_)" d="M537.585,60.914h-332.25l133.5,235.5h66L537.585,60.914z"/>
	
		<linearGradient id="SVGID_4_" gradientUnits="userSpaceOnUse" x1="327.2231" y1="189.7119" x2="202.2227" y2="189.7119" gradientTransform="matrix(0.75 0 0 -0.75 173.2421 447.213)">
		<stop  offset="0" style="stop-color:#A1A9B3"/>
		<stop  offset="0.09" style="stop-color:#A3ACB6"/>
		<stop  offset="0.36" style="stop-color:#C9D4E0"/>
		<stop  offset="0.56" style="stop-color:#B5BFC9"/>
		<stop  offset="0.83" style="stop-color:#9199A2"/>
		<stop  offset="1" style="stop-color:#676D74"/>
	</linearGradient>
	<path fill="url(#SVGID_4_)" d="M329.41,296.234h84c3,0,5.043,2.043,5.043,4.617l0.207,8.133c0,2.25-2.301,4.684-4.883,4.684
		l-84.367-0.184c-2.25,0-4.5-1.902-4.5-4.477v-8.273c0-2.25,2.094-4.543,4.68-4.543L329.41,296.234z"/>
	
		<linearGradient id="SVGID_5_" gradientUnits="userSpaceOnUse" x1="287.2241" y1="193.3047" x2="202.2241" y2="193.3047" gradientTransform="matrix(0.75 0 0 -0.75 188.0536 464.6876)">
		<stop  offset="0" style="stop-color:#A1A9B3"/>
		<stop  offset="0.09" style="stop-color:#A3ACB6"/>
		<stop  offset="0.36" style="stop-color:#C9D4E0"/>
		<stop  offset="0.56" style="stop-color:#B5BFC9"/>
		<stop  offset="0.83" style="stop-color:#9199A2"/>
		<stop  offset="1" style="stop-color:#676D74"/>
	</linearGradient>
	<path fill="url(#SVGID_5_)" d="M339.722,313.71h63.75v12h-63.75V313.71z"/>
	
		<linearGradient id="SVGID_6_" gradientUnits="userSpaceOnUse" x1="327.2231" y1="189.7119" x2="202.2227" y2="189.7119" gradientTransform="matrix(0.75 0 0 -0.75 173.2421 476.4923)">
		<stop  offset="0" style="stop-color:#A1A9B3"/>
		<stop  offset="0.09" style="stop-color:#A3ACB6"/>
		<stop  offset="0.36" style="stop-color:#C9D4E0"/>
		<stop  offset="0.56" style="stop-color:#B5BFC9"/>
		<stop  offset="0.83" style="stop-color:#9199A2"/>
		<stop  offset="1" style="stop-color:#676D74"/>
	</linearGradient>
	<path fill="url(#SVGID_6_)" d="M329.41,325.515h84c3,0,5.043,2.043,5.043,4.617l0.207,8.133c0,2.25-2.301,4.68-4.883,4.68
		l-84.367-0.18c-2.25,0-4.5-1.906-4.5-4.48v-8.27c0-2.25,2.094-4.543,4.68-4.543L329.41,325.515z"/>
	
		<linearGradient id="SVGID_7_" gradientUnits="userSpaceOnUse" x1="287.2251" y1="182.8066" x2="202.2251" y2="182.8066" gradientTransform="matrix(0.75 0 0 -0.75 188.0526 493.9669)">
		<stop  offset="0" style="stop-color:#A1A9B3"/>
		<stop  offset="0.09" style="stop-color:#A3ACB6"/>
		<stop  offset="0.36" style="stop-color:#C9D4E0"/>
		<stop  offset="0.56" style="stop-color:#B5BFC9"/>
		<stop  offset="0.83" style="stop-color:#9199A2"/>
		<stop  offset="1" style="stop-color:#676D74"/>
	</linearGradient>
	<path fill="url(#SVGID_7_)" d="M339.722,342.988h63.75v27.75h-63.75V342.988z"/>
	
		<linearGradient id="SVGID_8_" gradientUnits="userSpaceOnUse" x1="298.2983" y1="201.3037" x2="298.2983" y2="63.3555" gradientTransform="matrix(0.75 0 0 -0.75 147.9569 516.1798)">
		<stop  offset="0" style="stop-color:#A1A9B3"/>
		<stop  offset="0.09" style="stop-color:#A3ACB6"/>
		<stop  offset="0.36" style="stop-color:#C9D4E0"/>
		<stop  offset="0.56" style="stop-color:#B5BFC9"/>
		<stop  offset="0.83" style="stop-color:#9199A2"/>
		<stop  offset="1" style="stop-color:#676D74"/>
	</linearGradient>
	<path fill="url(#SVGID_8_)" d="M299.625,377.203c0,0,20.582-11.691,72.059-12c51.691,0,72.055,12.113,72.055,12.113l-0.113,79.387
		c0,0-17.406,11.961-71.66,11.961c-54.34,0.039-72.34-12.129-72.34-12.129V377.203z"/>
	
		<linearGradient id="SVGID_9_" gradientUnits="userSpaceOnUse" x1="89.3047" y1="378.2251" x2="1.3047" y2="378.2251" gradientTransform="matrix(0 -0.75 0.75 0 255.4755 450.8947)">
		<stop  offset="0" style="stop-color:#A1A9B3"/>
		<stop  offset="0.09" style="stop-color:#A3ACB6"/>
		<stop  offset="0.36" style="stop-color:#C9D4E0"/>
		<stop  offset="0.56" style="stop-color:#B5BFC9"/>
		<stop  offset="0.83" style="stop-color:#9199A2"/>
		<stop  offset="1" style="stop-color:#676D74"/>
	</linearGradient>
	<path fill="url(#SVGID_9_)" d="M557.144,383.917v66l-36-17.25v-31.5L557.144,383.917z"/>
	
		<linearGradient id="SVGID_10_" gradientUnits="userSpaceOnUse" x1="208.3809" y1="201.3027" x2="208.3809" y2="83.3027" gradientTransform="matrix(0.75 0 0 -0.75 403.9462 523.6593)">
		<stop  offset="0" style="stop-color:#9C9EA0"/>
		<stop  offset="0.09" style="stop-color:#A3ACB6"/>
		<stop  offset="0.3" style="stop-color:#DAE1E9"/>
		<stop  offset="0.41" style="stop-color:#BEC6D1"/>
		<stop  offset="0.72" style="stop-color:#878D95"/>
		<stop  offset="1" style="stop-color:#595D62"/>
	</linearGradient>
	<path fill="url(#SVGID_10_)" d="M559.363,372.683h1.5c2.25,0,4.027,1.738,4.027,3.934l-0.277,80.816c0,2.25-1.512,3.75-3.719,3.75
		h-1.531c-2.25,0-3.789-1.82-3.789-4.016l0.039-80.734c0-2.25,1.746-3.75,3.953-3.75H559.363z"/>
	
		<linearGradient id="SVGID_11_" gradientUnits="userSpaceOnUse" x1="44.3027" y1="379.2251" x2="1.3027" y2="379.2251" gradientTransform="matrix(0 -0.75 0.75 0 193.2528 433.8712)">
		<stop  offset="0" style="stop-color:#A1A9B3"/>
		<stop  offset="0.09" style="stop-color:#A3ACB6"/>
		<stop  offset="0.36" style="stop-color:#C9D4E0"/>
		<stop  offset="0.56" style="stop-color:#B5BFC9"/>
		<stop  offset="0.83" style="stop-color:#9199A2"/>
		<stop  offset="1" style="stop-color:#676D74"/>
	</linearGradient>
	<path fill="url(#SVGID_11_)" d="M494.921,432.894h-34.5v-32.25h34.5V432.894z"/>
	
		<linearGradient id="SVGID_12_" gradientUnits="userSpaceOnUse" x1="48.3027" y1="382.7241" x2="1.3027" y2="382.7241" gradientTransform="matrix(0 -0.75 0.75 0 220.9257 435.3351)">
		<stop  offset="0" style="stop-color:#909BA9"/>
		<stop  offset="0.09" style="stop-color:#929DAB"/>
		<stop  offset="0.36" style="stop-color:#B4C2D3"/>
		<stop  offset="0.56" style="stop-color:#A2AEBE"/>
		<stop  offset="0.83" style="stop-color:#828C98"/>
		<stop  offset="1" style="stop-color:#5C636C"/>
	</linearGradient>
	<path fill="url(#SVGID_12_)" d="M522.593,434.359h-29.25v-35.25h29.25V434.359z"/>
	
		<linearGradient id="SVGID_13_" gradientUnits="userSpaceOnUse" x1="84.3047" y1="268.2002" x2="1.3047" y2="268.2002" gradientTransform="matrix(0 -0.75 -0.75 0 349.8224 449.0597)">
		<stop  offset="0" style="stop-color:#A1A9B3"/>
		<stop  offset="0.09" style="stop-color:#A3ACB6"/>
		<stop  offset="0.36" style="stop-color:#C9D4E0"/>
		<stop  offset="0.56" style="stop-color:#B5BFC9"/>
		<stop  offset="0.83" style="stop-color:#9199A2"/>
		<stop  offset="1" style="stop-color:#676D74"/>
	</linearGradient>
	<path fill="url(#SVGID_13_)" d="M75.547,385.832v62.25l146.25-15v-32.25L75.547,385.832z"/>
	
		<linearGradient id="SVGID_14_" gradientUnits="userSpaceOnUse" x1="44.3047" y1="359.7271" x2="1.3047" y2="359.7271" gradientTransform="matrix(0 -0.75 0.75 0 -17.0846 433.8605)">
		<stop  offset="0" style="stop-color:#A1A9B3"/>
		<stop  offset="0.09" style="stop-color:#A3ACB6"/>
		<stop  offset="0.36" style="stop-color:#C9D4E0"/>
		<stop  offset="0.56" style="stop-color:#B5BFC9"/>
		<stop  offset="0.83" style="stop-color:#9199A2"/>
		<stop  offset="1" style="stop-color:#676D74"/>
	</linearGradient>
	<path fill="url(#SVGID_14_)" d="M284.585,432.882h-63.75v-32.25h63.75V432.882z"/>
	
		<linearGradient id="SVGID_15_" gradientUnits="userSpaceOnUse" x1="208.3799" y1="201.3018" x2="208.3799" y2="83.3018" gradientTransform="matrix(0.75 0 0 -0.75 -83.4435 523.6593)">
		<stop  offset="0" style="stop-color:#9C9EA0"/>
		<stop  offset="0.09" style="stop-color:#A3ACB6"/>
		<stop  offset="0.3" style="stop-color:#DAE1E9"/>
		<stop  offset="0.41" style="stop-color:#BEC6D1"/>
		<stop  offset="0.72" style="stop-color:#878D95"/>
		<stop  offset="1" style="stop-color:#595D62"/>
	</linearGradient>
	<path fill="url(#SVGID_15_)" d="M71.977,372.683h1.5c2.25,0,4.023,1.738,4.023,3.934l-0.273,80.816c0,2.25-1.516,3.75-3.719,3.75
		h-1.531c-2.25,0-3.793-1.82-3.793-4.016l0.043-80.734c0-2.25,1.746-3.75,3.949-3.75H71.977z"/>
	
		<linearGradient id="SVGID_16_" gradientUnits="userSpaceOnUse" x1="209.4355" y1="201.3027" x2="209.4355" y2="63.0635" gradientTransform="matrix(0.75 0 0 -0.75 140.1747 516.0704)">
		<stop  offset="0" style="stop-color:#6A7077"/>
		<stop  offset="0.15" style="stop-color:#B0B4B9"/>
		<stop  offset="0.25" style="stop-color:#B6BABF"/>
		<stop  offset="0.52" style="stop-color:#787E86"/>
		<stop  offset="0.69" style="stop-color:#6A7077"/>
		<stop  offset="0.8" style="stop-color:#646970"/>
		<stop  offset="0.92" style="stop-color:#5E6369"/>
	</linearGradient>
	<path fill="url(#SVGID_16_)" d="M296.343,365.093h1.5c3,0,4.863,2.035,4.863,4.609l-0.363,94.391c0,2.25-1.73,4.68-4.313,4.68
		l-1.688-0.18c-2.25,0-4.547-1.953-4.547-4.527l0.047-94.473c0-2.25,2.047-4.5,4.629-4.5H296.343z"/>
	
		<linearGradient id="SVGID_17_" gradientUnits="userSpaceOnUse" x1="209.4336" y1="201.3027" x2="209.4336" y2="63.0635" gradientTransform="matrix(0.75 0 0 -0.75 138.2914 516.0704)">
		<stop  offset="0" style="stop-color:#98A1AA"/>
		<stop  offset="0.15" style="stop-color:#D4DCE4"/>
		<stop  offset="0.25" style="stop-color:#D7DEE6"/>
		<stop  offset="0.52" style="stop-color:#ABB5C0"/>
		<stop  offset="0.69" style="stop-color:#98A1AA"/>
		<stop  offset="0.8" style="stop-color:#8F98A1"/>
		<stop  offset="0.92" style="stop-color:#878F97"/>
	</linearGradient>
	<path fill="url(#SVGID_17_)" d="M294.46,365.093h1.5c3,0,4.863,2.035,4.863,4.609l-0.363,94.391c0,2.25-1.73,4.68-4.313,4.68
		l-1.688-0.18c-2.25,0-4.551-1.953-4.551-4.527l0.051-94.473c0-2.25,2.047-4.5,4.629-4.5H294.46z"/>
	
		<linearGradient id="SVGID_18_" gradientUnits="userSpaceOnUse" x1="208.3823" y1="201.3018" x2="208.3823" y2="83.3018" gradientTransform="matrix(0.75 0 0 -0.75 131.7504 523.6593)">
		<stop  offset="0" style="stop-color:#6A7077"/>
		<stop  offset="0.15" style="stop-color:#B0B4B9"/>
		<stop  offset="0.25" style="stop-color:#B6BABF"/>
		<stop  offset="0.52" style="stop-color:#787E86"/>
		<stop  offset="0.69" style="stop-color:#6A7077"/>
		<stop  offset="0.8" style="stop-color:#646970"/>
		<stop  offset="0.92" style="stop-color:#5E6369"/>
	</linearGradient>
	<path fill="url(#SVGID_18_)" d="M287.167,372.683h1.5c2.25,0,4.027,1.738,4.027,3.934l-0.277,80.816c0,2.25-1.512,3.75-3.719,3.75
		h-1.531c-2.25,0-3.789-1.82-3.789-4.016l0.039-80.734c0-2.25,1.746-3.75,3.953-3.75H287.167z"/>
	
		<linearGradient id="SVGID_19_" gradientUnits="userSpaceOnUse" x1="208.3799" y1="201.3047" x2="208.3799" y2="83.2998" gradientTransform="matrix(0.75 0 0 -0.75 129.4374 523.631)">
		<stop  offset="0" style="stop-color:#98A1AA"/>
		<stop  offset="0.15" style="stop-color:#D4DCE4"/>
		<stop  offset="0.25" style="stop-color:#D7DEE6"/>
		<stop  offset="0.52" style="stop-color:#ABB5C0"/>
		<stop  offset="0.69" style="stop-color:#98A1AA"/>
		<stop  offset="0.8" style="stop-color:#8F98A1"/>
		<stop  offset="0.92" style="stop-color:#878F97"/>
	</linearGradient>
	<path fill="url(#SVGID_19_)" d="M284.855,372.652h1.5c2.25,0,4.023,1.738,4.023,3.938l-0.273,80.813
		c0,2.25-1.512,3.754-3.719,3.754l-1.531-0.004c-2.25,0-3.789-1.816-3.789-4.016l0.039-80.734c0-2.25,1.746-3.75,3.953-3.75H284.855
		z"/>
	
		<linearGradient id="SVGID_20_" gradientUnits="userSpaceOnUse" x1="209.4346" y1="201.3027" x2="209.4346" y2="63.0635" gradientTransform="matrix(0.75 0 0 -0.75 288.9628 516.0704)">
		<stop  offset="0" style="stop-color:#6A7077"/>
		<stop  offset="0.15" style="stop-color:#B0B4B9"/>
		<stop  offset="0.25" style="stop-color:#B6BABF"/>
		<stop  offset="0.52" style="stop-color:#787E86"/>
		<stop  offset="0.69" style="stop-color:#6A7077"/>
		<stop  offset="0.8" style="stop-color:#646970"/>
		<stop  offset="0.92" style="stop-color:#5E6369"/>
	</linearGradient>
	<path fill="url(#SVGID_20_)" d="M445.132,365.093h1.5c3,0,4.863,2.035,4.863,4.609l-0.363,94.391c0,2.25-1.73,4.68-4.313,4.68
		l-1.688-0.18c-2.25,0-4.551-1.953-4.551-4.527l0.051-94.473c0-2.25,2.043-4.5,4.629-4.5H445.132z"/>
	
		<linearGradient id="SVGID_21_" gradientUnits="userSpaceOnUse" x1="209.4355" y1="201.3027" x2="209.4355" y2="63.0635" gradientTransform="matrix(0.75 0 0 -0.75 290.8993 516.0704)">
		<stop  offset="0" style="stop-color:#98A1AA"/>
		<stop  offset="0.15" style="stop-color:#D4DCE4"/>
		<stop  offset="0.25" style="stop-color:#D7DEE6"/>
		<stop  offset="0.52" style="stop-color:#ABB5C0"/>
		<stop  offset="0.69" style="stop-color:#98A1AA"/>
		<stop  offset="0.8" style="stop-color:#8F98A1"/>
		<stop  offset="0.92" style="stop-color:#878F97"/>
	</linearGradient>
	<path fill="url(#SVGID_21_)" d="M447.07,365.093h1.5c3,0,4.863,2.035,4.863,4.609l-0.363,94.391c0,2.25-1.73,4.68-4.313,4.68
		l-1.688-0.18c-2.25,0-4.551-1.953-4.551-4.527l0.051-94.473c0-2.25,2.043-4.5,4.625-4.5H447.07z"/>
	
		<linearGradient id="SVGID_22_" gradientUnits="userSpaceOnUse" x1="208.3799" y1="201.3047" x2="208.3799" y2="83.2998" gradientTransform="matrix(0.75 0 0 -0.75 298.3104 523.631)">
		<stop  offset="0" style="stop-color:#6A7077"/>
		<stop  offset="0.15" style="stop-color:#B0B4B9"/>
		<stop  offset="0.25" style="stop-color:#B6BABF"/>
		<stop  offset="0.52" style="stop-color:#787E86"/>
		<stop  offset="0.69" style="stop-color:#6A7077"/>
		<stop  offset="0.8" style="stop-color:#646970"/>
		<stop  offset="0.92" style="stop-color:#5E6369"/>
	</linearGradient>
	<path fill="url(#SVGID_22_)" d="M453.73,372.652h1.5c2.25,0,4.023,1.738,4.023,3.938l-0.273,80.813c0,2.25-1.516,3.754-3.719,3.754
		l-1.531-0.004c-2.25,0-3.793-1.816-3.793-4.016l0.043-80.734c0-2.25,1.746-3.75,3.949-3.75H453.73z"/>
	
		<linearGradient id="SVGID_23_" gradientUnits="userSpaceOnUse" x1="208.3799" y1="201.3018" x2="208.3799" y2="83.3018" gradientTransform="matrix(0.75 0 0 -0.75 300.619 523.6593)">
		<stop  offset="0" style="stop-color:#98A1AA"/>
		<stop  offset="0.15" style="stop-color:#D4DCE4"/>
		<stop  offset="0.25" style="stop-color:#D7DEE6"/>
		<stop  offset="0.52" style="stop-color:#ABB5C0"/>
		<stop  offset="0.69" style="stop-color:#98A1AA"/>
		<stop  offset="0.8" style="stop-color:#8F98A1"/>
		<stop  offset="0.92" style="stop-color:#878F97"/>
	</linearGradient>
	<path fill="url(#SVGID_23_)" d="M456.039,372.683h1.5c2.25,0,4.023,1.738,4.023,3.934l-0.273,80.816c0,2.25-1.516,3.75-3.719,3.75
		h-1.531c-2.25,0-3.793-1.82-3.793-4.016l0.043-80.734c0-2.25,1.746-3.75,3.949-3.75H456.039z"/>
	<path fill="#A2AFBD" d="M262.16,503.246h219c2.25,0,4.652,2.086,4.652,4.66l-0.152,11.84c0,2.25-2.004,4.469-4.586,4.469
		l-218.914,0.031c-2.25,0-4.5-2.117-4.5-4.691v-11.809c0-2.25,2.047-4.5,4.629-4.5H262.16z"/>
	<path fill="#A2AFBD" d="M3.383,42.625h540.75c0.75,0,1.457,0.836,1.457,1.863l0.043,16.887c0,1.5-0.793,2.219-1.723,2.219
		L3.383,63.625c-0.75,0-1.5-0.863-1.5-1.895V44.125c0-0.75,0.754-1.5,1.68-1.5H3.383z"/>
</g>
</svg>
