<?xml version="1.0" encoding="utf-8"?>
<!-- Generator: Adobe Illustrator 16.0.0, SVG Export Plug-In . SVG Version: 6.00 Build 0)  -->
<!DOCTYPE svg PUBLIC "-//W3C//DTD SVG 1.1//EN" "http://www.w3.org/Graphics/SVG/1.1/DTD/svg11.dtd">
<svg preserveAspectRatio="none"   version="1.1" id="图层_1" xmlns="http://www.w3.org/2000/svg" xmlns:xlink="http://www.w3.org/1999/xlink" x="0px" y="0px"
	 width="266.996px" height="563.339px" viewBox="149.921 1.67 266.996 563.339"
	 enable-background="new 149.921 1.67 266.996 563.339" xml:space="preserve">
<g id="surface346">
	
		<linearGradient id="SVGID_1_" gradientUnits="userSpaceOnUse" x1="202.2251" y1="170.4204" x2="364.6099" y2="170.4204" gradientTransform="matrix(0.75 0 0 -0.75 71.2723 669.6603)">
		<stop  offset="0" style="stop-color:#9E9799"/>
		<stop  offset="0.17" style="stop-color:#C7BEC0"/>
		<stop  offset="0.68" style="stop-color:#E4DCDD"/>
		<stop  offset="0.83" style="stop-color:#DFD6D8"/>
		<stop  offset="1" style="stop-color:#9E9798"/>
	</linearGradient>
	<path fill="url(#SVGID_1_)" d="M222.941,518.683c0,0,6.703,13.012,61.316,12.586c54.934-0.586,60.473-12.586,60.473-12.586
		l-1.039,33.75c0,0-3,12.203-59.855,12.574c-56.395,0.176-59.527-12.617-59.527-12.617L222.941,518.683z"/>
	
		<linearGradient id="SVGID_2_" gradientUnits="userSpaceOnUse" x1="202.2246" y1="178.2021" x2="363.9634" y2="178.2021" gradientTransform="matrix(0.75 0 0 -0.75 71.4999 651.5255)">
		<stop  offset="0" style="stop-color:#948A8D"/>
		<stop  offset="0.17" style="stop-color:#BAAEB1"/>
		<stop  offset="0.68" style="stop-color:#D9CFD2"/>
		<stop  offset="0.83" style="stop-color:#D2C6CA"/>
		<stop  offset="1" style="stop-color:#948A8D"/>
	</linearGradient>
	<path fill="url(#SVGID_2_)" d="M223.168,517.796c0-9.75,27.137-17.285,60.652-17.285c33.847,0.035,60.652,7.773,60.652,17.383
		c0.195,9.652-27.16,17.344-60.652,17.344c-33.652-0.191-60.652-7.773-60.652-17.344V517.796z"/>
	
		<linearGradient id="SVGID_3_" gradientUnits="userSpaceOnUse" x1="202.1128" y1="120.9233" x2="318.0952" y2="120.9233" gradientTransform="matrix(0.75 0 0 -0.75 88.3461 560.6388)">
		<stop  offset="0" style="stop-color:#827377"/>
		<stop  offset="0.17" style="stop-color:#A49197"/>
		<stop  offset="0.68" style="stop-color:#C7B9BD"/>
		<stop  offset="0.83" style="stop-color:#BCABB0"/>
		<stop  offset="1" style="stop-color:#827377"/>
	</linearGradient>
	<path fill="url(#SVGID_3_)" d="M255.766,507.16c0,0,7.145-5.629,6.457-22.016l0.293-75.484h43.5l-0.75,75.75
		c-0.75,21,5.32,21.496,5.32,21.496c19.43,7.004,16.117,11.582,16.117,11.582c0.313-0.078,4.117,11.742-43.238,11.742
		c-46.449,0.18-43.289-11.742-43.289-11.742c-0.16-0.078-2.988-3.988,15.531-11.582L255.766,507.16z"/>
	<path fill="#F2F7FB" d="M173.371,139.434h219l-18,227.25c0,0-5.672,9.727-90.734,9.727c-84.766,0.023-92.422-9.633-92.422-9.633
		L173.371,139.434z"/>
	
		<linearGradient id="SVGID_4_" gradientUnits="userSpaceOnUse" x1="202.2271" y1="125.4478" x2="490.3354" y2="125.4478" gradientTransform="matrix(0.75 0 0 -0.75 23.2675 179.4122)">
		<stop  offset="0" style="stop-color:#9E9799"/>
		<stop  offset="0.17" style="stop-color:#C7BEC0"/>
		<stop  offset="0.68" style="stop-color:#E4DCDD"/>
		<stop  offset="0.83" style="stop-color:#DFD6D8"/>
		<stop  offset="1" style="stop-color:#9E9798"/>
	</linearGradient>
	<path fill="url(#SVGID_4_)" d="M174.938,135.684c0-59.25,48.316-107.25,108.039-107.25c59.96,0,108.042,48.117,108.042,107.527
		c-27.832,9.473-168.289,7.141-216.082,0V135.684z"/>
	
		<linearGradient id="SVGID_5_" gradientUnits="userSpaceOnUse" x1="202.2251" y1="172.4473" x2="446.9224" y2="172.4473" gradientTransform="matrix(0.75 0 0 -0.75 40.39 517.756)">
		<stop  offset="0" style="stop-color:#242830"/>
		<stop  offset="0.83" style="stop-color:#5D5F64"/>
		<stop  offset="1" style="stop-color:#20242C"/>
	</linearGradient>
	<path fill="url(#SVGID_5_)" d="M192.059,366.777c0,0,10.105,9.984,92.421,9.559c82.328-0.559,91.102-9.559,91.102-9.559
		l-2.023,33.75c0,0-4.016,9.176-89.738,9.535c-85.012,0.215-89.703-9.574-89.703-9.574L192.059,366.777z"/>
	
		<linearGradient id="SVGID_6_" gradientUnits="userSpaceOnUse" x1="165.8115" y1="547.1958" x2="205.0249" y2="547.1958" gradientTransform="matrix(-0.75 0 0 0.75 421.9122 -394.0944)">
		<stop  offset="0" style="stop-color:#9E9799"/>
		<stop  offset="0.17" style="stop-color:#C7BEC0"/>
		<stop  offset="0.68" style="stop-color:#E4DCDD"/>
		<stop  offset="0.83" style="stop-color:#DFD6D8"/>
		<stop  offset="1" style="stop-color:#9E9798"/>
	</linearGradient>
	<path fill="url(#SVGID_6_)" d="M275.883,26.375c0,0,7.211-2.605,1.035-7.391c-0.285-0.109-16.805-6.484-3.773-15.02
		c-0.262-0.09,8.918-5.117,20.238,0c-0.25-0.09,10.977,6.145-2.402,15.02c-0.098-0.109-6.859,4.438,0,7.172
		c-0.098,0.219,3.086,4.777-7.886,4.777c-10.961-0.059-7.203-4.777-7.203-4.777L275.883,26.375z"/>
	<path fill="#FFFFFF" fill-opacity="0.251" d="M177.508,133.445c0-57,46.543-103.5,104.074-103.5
		c57.175,0-96.324,46.648-96.324,103.926c-0.25,0.324-7.75-0.348-7.75-0.348V133.445z"/>
	
		<linearGradient id="SVGID_7_" gradientUnits="userSpaceOnUse" x1="202.2251" y1="182.8696" x2="446.9282" y2="182.8696" gradientTransform="matrix(0.75 0 0 -0.75 39.5463 501.9689)">
		<stop  offset="0" style="stop-color:#242830;stop-opacity:0.6314"/>
		<stop  offset="0.83" style="stop-color:#5D5F64;stop-opacity:0.6549"/>
		<stop  offset="1" style="stop-color:#20242C;stop-opacity:0.6196"/>
	</linearGradient>
	<path fill="url(#SVGID_7_)" d="M191.215,364.492c0-7.5,41.078-13.5,91.762-13.5c50.738,0,91.765,6.188,91.765,13.824
		c0.223,7.926-41.105,13.824-91.765,13.824c-50.512,0.102-91.762-6.188-91.762-13.824V364.492z"/>
	<path fill="#E4EAEF" fill-opacity="0.8627" d="M173.371,139.434l33,3.75l5.102,228.988c-12.602-0.238-20.27-4.805-20.27-4.805
		L173.371,139.434z"/>
	<path fill="#E4EAEF" d="M387.601,140.273l-33,3.75L349.5,373.011c12.602-0.238,20.27-4.805,20.27-4.805L387.601,140.273z"/>
	<path fill="#E4EAEF" d="M294.109,144.469h15.75v204h-15.75V144.469z"/>
	<path fill="#E4EAEF" d="M273.102,145.137h6v204h-6V145.137z"/>
	
		<linearGradient id="SVGID_8_" gradientUnits="userSpaceOnUse" x1="202.2236" y1="176.8032" x2="240.2227" y2="176.8032" gradientTransform="matrix(0.75 0 0 -0.75 118.0043 517.7111)">
		<stop  offset="0" style="stop-color:#9E9799"/>
		<stop  offset="0.17" style="stop-color:#C7BEC0"/>
		<stop  offset="0.68" style="stop-color:#E4DCDD"/>
		<stop  offset="0.83" style="stop-color:#DFD6D8"/>
		<stop  offset="1" style="stop-color:#9E9798"/>
	</linearGradient>
	<path fill="url(#SVGID_8_)" d="M269.672,366.734h28.5v36.75h-28.5V366.734z"/>
	
		<linearGradient id="SVGID_9_" gradientUnits="userSpaceOnUse" x1="202.228" y1="180.6099" x2="240.3467" y2="180.6099" gradientTransform="matrix(0.75 0 0 -0.75 117.8837 553.5548)">
		<stop  offset="0" style="stop-color:#948D8F"/>
		<stop  offset="0.17" style="stop-color:#BAB2B4"/>
		<stop  offset="0.68" style="stop-color:#D9D2D4"/>
		<stop  offset="0.83" style="stop-color:#D2CACC"/>
		<stop  offset="1" style="stop-color:#948D8F"/>
	</linearGradient>
	<path fill="url(#SVGID_9_)" d="M269.555,402.578h28.5c0,0,0.754,7.156-2.109,15.332c-3.141,7.918-2.117,15.707-2.117,15.707
		l-19.773-0.289c0,0,0.773-6.547-2.277-15.43c-2.973-8.57-2.063-15.32-2.063-15.32H269.555z"/>
	
		<linearGradient id="SVGID_10_" gradientUnits="userSpaceOnUse" x1="202.2241" y1="197.2153" x2="242.5249" y2="197.2153" gradientTransform="matrix(0.75 0 0 -0.75 117.0394 511.5509)">
		<stop  offset="0" style="stop-color:#242830"/>
		<stop  offset="0.83" style="stop-color:#5D5F64"/>
		<stop  offset="1" style="stop-color:#20242C"/>
	</linearGradient>
	<path fill="url(#SVGID_10_)" d="M269.457,360.574h28.5c0.75,0,0.977,0.43,0.977,0.996l-0.227,4.254c0,0.75-0.234,0.91-0.801,0.91
		l-28.449-0.16c0,0-0.75-0.297-0.75-0.863v-4.387c0,0,0.461-0.777,1.031-0.777L269.457,360.574z"/>
	
		<linearGradient id="SVGID_11_" gradientUnits="userSpaceOnUse" x1="202.2275" y1="188.8062" x2="223.2266" y2="188.8062" gradientTransform="matrix(0.75 0 0 -0.75 124.4349 492.4083)">
		<stop  offset="0" style="stop-color:#242830"/>
		<stop  offset="0.83" style="stop-color:#5D5F64"/>
		<stop  offset="1" style="stop-color:#20242C"/>
	</linearGradient>
	<path fill="url(#SVGID_11_)" d="M276.105,360.179h15.75v-18.75h-15.75V360.179z"/>
	
		<linearGradient id="SVGID_12_" gradientUnits="userSpaceOnUse" x1="202.2251" y1="193.3062" x2="239.2241" y2="193.3062" gradientTransform="matrix(0.75 0 0 -0.75 118.2611 491.7247)">
		<stop  offset="0" style="stop-color:#242830"/>
		<stop  offset="0.83" style="stop-color:#5D5F64"/>
		<stop  offset="1" style="stop-color:#20242C"/>
	</linearGradient>
	<path fill="url(#SVGID_12_)" d="M269.93,340.746h27.75v12h-27.75V340.746z"/>
	<path fill="#AFB5BB" fill-opacity="0.0824" d="M173.367,139.434h219l-18,227.25c0,0-5.672,9.727-90.73,9.727
		c-84.77,0.023-92.422-9.633-92.422-9.633L173.367,139.434z"/>
	
		<linearGradient id="SVGID_13_" gradientUnits="userSpaceOnUse" x1="202.2246" y1="193.8833" x2="495.3687" y2="193.8833" gradientTransform="matrix(0.75 0 0 -0.75 21.3788 286.172)">
		<stop  offset="0" style="stop-color:#242830"/>
		<stop  offset="0.83" style="stop-color:#5D5F64"/>
		<stop  offset="1" style="stop-color:#20242C"/>
	</linearGradient>
	<path fill="url(#SVGID_13_)" d="M173.797,135.195c0,0,33.586,6.883,109.691,6.883c76.308-0.133,108.406-6.883,108.406-6.883
		c0.902,0,1.012,0.457,1.012,1.023l-0.109,1.977c0,0.75-0.344,1.238-0.902,1.238c0.152,0.262-36.559,7.082-108.625,6.887
		c-71.973,0.125-109.215-6.887-109.215-6.887c-0.258,0.262-1.008-0.457-1.008-1.023v-2.465c0,0,0.453-0.75,1.008-0.75H173.797z"/>
	
		<linearGradient id="SVGID_14_" gradientUnits="userSpaceOnUse" x1="202.146" y1="181.9478" x2="241.313" y2="181.9478" gradientTransform="matrix(0.75 0 0 -0.75 235.9335 302.4738)">
		<stop  offset="0" style="stop-color:#A1A6A9"/>
		<stop  offset="0.17" style="stop-color:#CAD0D4"/>
		<stop  offset="0.68" style="stop-color:#E6EBEE"/>
		<stop  offset="0.83" style="stop-color:#E2E8EC"/>
		<stop  offset="1" style="stop-color:#A1A6A9"/>
	</linearGradient>
	<path fill="url(#SVGID_14_)" d="M392.101,158.996c0,0,2.641,7.27,7.445,1.125c0.055-0.375,6.516-16.727,15.094-3.754
		c-0.039-0.371,5.145,8.875,0,20.141c-0.039-0.262-6.176,10.922-15.094-2.391c0.055-0.121-4.457-6.828-7.203,0
		c-0.242-0.121-4.801,3.07-4.801-7.852c0.059-11.02,4.801-7.168,4.801-7.168L392.101,158.996z"/>
	
		<linearGradient id="SVGID_15_" gradientUnits="userSpaceOnUse" x1="165.6235" y1="181.9478" x2="204.7905" y2="181.9478" gradientTransform="matrix(-0.75 0 0 -0.75 303.5148 303.5529)">
		<stop  offset="0" style="stop-color:#A1A6A9"/>
		<stop  offset="0.17" style="stop-color:#CAD0D4"/>
		<stop  offset="0.68" style="stop-color:#E6EBEE"/>
		<stop  offset="0.83" style="stop-color:#E2E8EC"/>
		<stop  offset="1" style="stop-color:#A1A6A9"/>
	</linearGradient>
	<path fill="url(#SVGID_15_)" d="M174.738,160.074c0,0-2.641,7.27-7.445,1.125c-0.055-0.375-6.52-16.727-15.094-3.754
		c0.039-0.371-5.145,8.875,0,20.141c0.039-0.262,6.176,10.922,15.094-2.391c-0.055-0.121,4.457-6.828,7.203,0
		c0.242-0.121,4.801,3.074,4.801-7.852c-0.059-11.02-4.801-7.168-4.801-7.168L174.738,160.074z"/>
</g>
</svg>
