<?xml version="1.0" encoding="utf-8"?>
<!-- Generator: Adobe Illustrator 16.0.0, SVG Export Plug-In . SVG Version: 6.00 Build 0)  -->
<!DOCTYPE svg PUBLIC "-//W3C//DTD SVG 1.1//EN" "http://www.w3.org/Graphics/SVG/1.1/DTD/svg11.dtd">
<svg preserveAspectRatio="none"   version="1.1" id="图层_1" xmlns="http://www.w3.org/2000/svg" xmlns:xlink="http://www.w3.org/1999/xlink" x="0px" y="0px"
	 width="556.476px" height="439.471px" viewBox="5.172 63.611 556.476 439.471"
	 enable-background="new 5.172 63.611 556.476 439.471" xml:space="preserve">
<g id="surface391">
	
		<linearGradient id="SVGID_1_" gradientUnits="userSpaceOnUse" x1="229.2261" y1="137.3047" x2="202.2261" y2="137.3047" gradientTransform="matrix(0.75 0 0 -0.75 46.9242 232.8761)">
		<stop  offset="0" style="stop-color:#A1A9B3"/>
		<stop  offset="0.09" style="stop-color:#A3ACB6"/>
		<stop  offset="0.36" style="stop-color:#C9D4E0"/>
		<stop  offset="0.56" style="stop-color:#B5BFC9"/>
		<stop  offset="0.83" style="stop-color:#9199A2"/>
		<stop  offset="1" style="stop-color:#676D74"/>
	</linearGradient>
	<path fill="url(#SVGID_1_)" d="M198.594,81.898h20.25v96h-20.25V81.898z"/>
	
		<linearGradient id="SVGID_2_" gradientUnits="userSpaceOnUse" x1="28.3027" y1="280.2026" x2="1.3027" y2="280.2026" gradientTransform="matrix(0 -0.75 -0.75 0 488.879 84.922)">
		<stop  offset="0" style="stop-color:#A1A9B3"/>
		<stop  offset="0.09" style="stop-color:#A3ACB6"/>
		<stop  offset="0.36" style="stop-color:#C9D4E0"/>
		<stop  offset="0.56" style="stop-color:#B5BFC9"/>
		<stop  offset="0.83" style="stop-color:#9199A2"/>
		<stop  offset="1" style="stop-color:#676D74"/>
	</linearGradient>
	<path fill="url(#SVGID_2_)" d="M214.602,83.945v-20.25h128.25v20.25H214.602z"/>
	
		<linearGradient id="SVGID_3_" gradientUnits="userSpaceOnUse" x1="234.6558" y1="167.3516" x2="165.5928" y2="167.3516" gradientTransform="matrix(-0.75 0 0 -0.75 373.7657 214.6583)">
		<stop  offset="0" style="stop-color:#8491A1"/>
		<stop  offset="0.02" style="stop-color:#8693A4"/>
		<stop  offset="0.22" style="stop-color:#B7C3D3"/>
		<stop  offset="0.4" style="stop-color:#95A4B6"/>
		<stop  offset="1" style="stop-color:#95A4B6"/>
	</linearGradient>
	<path fill="url(#SVGID_3_)" d="M249.488,63.68h-32.25c0,0-19.34-2.461-19.34,22.082c-0.16,24.418-0.121,28.676-0.121,28.676
		l22.461,0.242v-6.75c0,0-2.152-20.875,13.719-22.168c8.781-0.332,15.59,0,15.613,0L249.488,63.68z"/>
	
		<linearGradient id="SVGID_4_" gradientUnits="userSpaceOnUse" x1="229.2246" y1="136.3008" x2="202.2246" y2="136.3008" gradientTransform="matrix(0.75 0 0 -0.75 195.1981 230.964)">
		<stop  offset="0" style="stop-color:#A1A9B3"/>
		<stop  offset="0.09" style="stop-color:#A3ACB6"/>
		<stop  offset="0.36" style="stop-color:#C9D4E0"/>
		<stop  offset="0.56" style="stop-color:#B5BFC9"/>
		<stop  offset="0.83" style="stop-color:#9199A2"/>
		<stop  offset="1" style="stop-color:#676D74"/>
	</linearGradient>
	<path fill="url(#SVGID_4_)" d="M346.867,79.988h20.25v97.5h-20.25V79.988z"/>
	
		<linearGradient id="SVGID_5_" gradientUnits="userSpaceOnUse" x1="271.1792" y1="167.3516" x2="202.1167" y2="167.3516" gradientTransform="matrix(0.75 0 0 -0.75 164.3182 214.6583)">
		<stop  offset="0" style="stop-color:#8491A1"/>
		<stop  offset="0.02" style="stop-color:#8693A4"/>
		<stop  offset="0.22" style="stop-color:#B7C3D3"/>
		<stop  offset="0.4" style="stop-color:#95A4B6"/>
		<stop  offset="1" style="stop-color:#95A4B6"/>
	</linearGradient>
	<path fill="url(#SVGID_5_)" d="M315.988,63.68h32.25c0,0,19.34-2.461,19.34,22.082c0.16,24.418,0.121,28.676,0.121,28.676
		l-22.461,0.242v-6.75c0,0,2.148-20.875-13.723-22.168c-8.777-0.332-15.586,0-15.609,0L315.988,63.68z"/>
	
		<linearGradient id="SVGID_6_" gradientUnits="userSpaceOnUse" x1="229.5381" y1="201.3818" x2="229.5381" y2="187.3037" gradientTransform="matrix(0.75 0 0 -0.75 12.1239 267.131)">
		<stop  offset="0" style="stop-color:#A1A9B3"/>
		<stop  offset="0.09" style="stop-color:#A3ACB6"/>
		<stop  offset="0.36" style="stop-color:#C9D4E0"/>
		<stop  offset="0.56" style="stop-color:#B5BFC9"/>
		<stop  offset="0.83" style="stop-color:#9199A2"/>
		<stop  offset="1" style="stop-color:#676D74"/>
	</linearGradient>
	<path fill="url(#SVGID_6_)" d="M169.043,116.152h30.75c3,0,5.047,2.281,5.047,5.164c0.203,3.086-2.355,5.227-5.262,5.227
		l-30.535,0.109c-3,0-5.34-2.449-5.34-5.336c0.09-2.914,2.355-5.223,5.262-5.223L169.043,116.152z"/>
	
		<linearGradient id="SVGID_7_" gradientUnits="userSpaceOnUse" x1="258.5283" y1="151.9121" x2="202.2266" y2="151.9121" gradientTransform="matrix(0.75 0 0 -0.75 -9.6388 255.8282)">
		<stop  offset="0" style="stop-color:#A1A9B3"/>
		<stop  offset="0.09" style="stop-color:#A3ACB6"/>
		<stop  offset="0.36" style="stop-color:#C9D4E0"/>
		<stop  offset="0.56" style="stop-color:#B5BFC9"/>
		<stop  offset="0.83" style="stop-color:#9199A2"/>
		<stop  offset="1" style="stop-color:#676D74"/>
	</linearGradient>
	<path fill="url(#SVGID_7_)" d="M149.531,104.852h27.75c3.75,0,6.977,3.023,6.977,6.961l-0.227,67.289h-42v-67.5
		c0-3.75,3.344-6.914,7.309-6.914L149.531,104.852z"/>
	
		<linearGradient id="SVGID_8_" gradientUnits="userSpaceOnUse" x1="229.5371" y1="201.3818" x2="229.5371" y2="187.3037" gradientTransform="matrix(0.75 0 0 -0.75 -33.2584 267.131)">
		<stop  offset="0" style="stop-color:#A1A9B3"/>
		<stop  offset="0.09" style="stop-color:#A3ACB6"/>
		<stop  offset="0.36" style="stop-color:#C9D4E0"/>
		<stop  offset="0.56" style="stop-color:#B5BFC9"/>
		<stop  offset="0.83" style="stop-color:#9199A2"/>
		<stop  offset="1" style="stop-color:#676D74"/>
	</linearGradient>
	<path fill="url(#SVGID_8_)" d="M123.66,116.152h30.75c3,0,5.047,2.281,5.047,5.164c0.203,3.086-2.355,5.227-5.262,5.227
		l-30.535,0.109c-3,0-5.34-2.449-5.34-5.336c0.09-2.914,2.355-5.223,5.262-5.223L123.66,116.152z"/>
	
		<linearGradient id="SVGID_9_" gradientUnits="userSpaceOnUse" x1="224.6387" y1="188.7891" x2="200.6512" y2="193.0187" gradientTransform="matrix(0.75 0 0 -0.75 -36.6261 264.4591)">
		<stop  offset="0" style="stop-color:#757E88"/>
		<stop  offset="0.09" style="stop-color:#77808A"/>
		<stop  offset="0.36" style="stop-color:#939EAA"/>
		<stop  offset="0.56" style="stop-color:#848E99"/>
		<stop  offset="0.83" style="stop-color:#69717A"/>
		<stop  offset="1" style="stop-color:#4A5056"/>
	</linearGradient>
	<path fill="url(#SVGID_9_)" d="M115.043,120.98c0-3.75,3.457-7.559,7.816-7.559c4.184,0.059,7.895,3.508,7.895,7.836
		c0.039,4.223-3.535,7.836-7.895,7.836c-4.066,0.137-7.891-3.508-7.891-7.836L115.043,120.98z"/>
	
		<linearGradient id="SVGID_10_" gradientUnits="userSpaceOnUse" x1="229.5381" y1="201.3818" x2="229.5381" y2="187.3037" gradientTransform="matrix(0.75 0 0 -0.75 250.3104 267.131)">
		<stop  offset="0" style="stop-color:#A1A9B3"/>
		<stop  offset="0.09" style="stop-color:#A3ACB6"/>
		<stop  offset="0.36" style="stop-color:#C9D4E0"/>
		<stop  offset="0.56" style="stop-color:#B5BFC9"/>
		<stop  offset="0.83" style="stop-color:#9199A2"/>
		<stop  offset="1" style="stop-color:#676D74"/>
	</linearGradient>
	<path fill="url(#SVGID_10_)" d="M407.23,116.152h30.75c3,0,5.047,2.281,5.047,5.164c0.203,3.086-2.355,5.227-5.262,5.227
		l-30.535,0.109c-3,0-5.34-2.449-5.34-5.336c0.09-2.914,2.355-5.223,5.262-5.223L407.23,116.152z"/>
	
		<linearGradient id="SVGID_11_" gradientUnits="userSpaceOnUse" x1="258.5293" y1="151.9121" x2="202.2217" y2="151.9121" gradientTransform="matrix(0.75 0 0 -0.75 228.5477 255.8282)">
		<stop  offset="0" style="stop-color:#A1A9B3"/>
		<stop  offset="0.09" style="stop-color:#A3ACB6"/>
		<stop  offset="0.36" style="stop-color:#C9D4E0"/>
		<stop  offset="0.56" style="stop-color:#B5BFC9"/>
		<stop  offset="0.83" style="stop-color:#9199A2"/>
		<stop  offset="1" style="stop-color:#676D74"/>
	</linearGradient>
	<path fill="url(#SVGID_11_)" d="M387.714,104.852h27.75c3.75,0,6.98,3.023,6.98,6.961l-0.23,67.289h-42v-67.5
		c0-3.75,3.348-6.914,7.313-6.914L387.714,104.852z"/>
	
		<linearGradient id="SVGID_12_" gradientUnits="userSpaceOnUse" x1="229.5381" y1="201.3818" x2="229.5381" y2="187.3037" gradientTransform="matrix(0.75 0 0 -0.75 204.9276 267.131)">
		<stop  offset="0" style="stop-color:#A1A9B3"/>
		<stop  offset="0.09" style="stop-color:#A3ACB6"/>
		<stop  offset="0.36" style="stop-color:#C9D4E0"/>
		<stop  offset="0.56" style="stop-color:#B5BFC9"/>
		<stop  offset="0.83" style="stop-color:#9199A2"/>
		<stop  offset="1" style="stop-color:#676D74"/>
	</linearGradient>
	<path fill="url(#SVGID_12_)" d="M361.847,116.152h30.75c3,0,5.047,2.281,5.047,5.164c0.203,3.086-2.355,5.227-5.262,5.227
		l-30.535,0.109c-3,0-5.34-2.449-5.34-5.336c0.09-2.914,2.355-5.223,5.262-5.223L361.847,116.152z"/>
	
		<linearGradient id="SVGID_13_" gradientUnits="userSpaceOnUse" x1="224.6382" y1="188.791" x2="200.6524" y2="193.0204" gradientTransform="matrix(0.75 0 0 -0.75 201.5604 264.4591)">
		<stop  offset="0" style="stop-color:#757E88"/>
		<stop  offset="0.09" style="stop-color:#77808A"/>
		<stop  offset="0.36" style="stop-color:#939EAA"/>
		<stop  offset="0.56" style="stop-color:#848E99"/>
		<stop  offset="0.83" style="stop-color:#69717A"/>
		<stop  offset="1" style="stop-color:#4A5056"/>
	</linearGradient>
	<path fill="url(#SVGID_13_)" d="M353.23,120.98c0-3.75,3.457-7.559,7.816-7.559c4.184,0.059,7.895,3.508,7.895,7.836
		c0.039,4.223-3.535,7.836-7.895,7.836c-4.066,0.137-7.891-3.508-7.891-7.836L353.23,120.98z"/>
	
		<linearGradient id="SVGID_14_" gradientUnits="userSpaceOnUse" x1="617.2231" y1="7.6523" x2="202.2236" y2="7.6523" gradientTransform="matrix(0.75 0 0 -0.75 -24.985 363.5822)">
		<stop  offset="0" style="stop-color:#A1A9B3"/>
		<stop  offset="0.09" style="stop-color:#A3ACB6"/>
		<stop  offset="0.36" style="stop-color:#C9D4E0"/>
		<stop  offset="0.56" style="stop-color:#B5BFC9"/>
		<stop  offset="0.83" style="stop-color:#9199A2"/>
		<stop  offset="1" style="stop-color:#676D74"/>
	</linearGradient>
	<path fill="url(#SVGID_14_)" d="M437.933,212.605v273.75c0,9-7.84,16.727-17.086,16.727l-277.664-0.227
		c-9,0-16.5-7.398-16.5-16.617V212.605H437.933z"/>
	
		<linearGradient id="SVGID_15_" gradientUnits="userSpaceOnUse" x1="273.6797" y1="201.3037" x2="273.6797" y2="13.8936" gradientTransform="matrix(0.75 0 0 -0.75 -113.0016 399.3888)">
		<stop  offset="0" style="stop-color:#A1A9B3"/>
		<stop  offset="0.09" style="stop-color:#A3ACB6"/>
		<stop  offset="0.36" style="stop-color:#C9D4E0"/>
		<stop  offset="0.56" style="stop-color:#B5BFC9"/>
		<stop  offset="0.83" style="stop-color:#9199A2"/>
		<stop  offset="1" style="stop-color:#676D74"/>
	</linearGradient>
	<path fill="url(#SVGID_15_)" d="M38.668,248.41h90c0,0,17.18,2.82,17.18,70.355c0.07,67.645-17.25,70.203-17.25,70.203
		l-89.93-0.309V248.41z"/>
	
		<linearGradient id="SVGID_16_" gradientUnits="userSpaceOnUse" x1="237.1553" y1="201.3037" x2="237.1553" y2="13.8984" gradientTransform="matrix(-0.75 0 0 -0.75 654.7091 399.2823)">
		<stop  offset="0" style="stop-color:#A1A9B3"/>
		<stop  offset="0.09" style="stop-color:#A3ACB6"/>
		<stop  offset="0.36" style="stop-color:#C9D4E0"/>
		<stop  offset="0.56" style="stop-color:#B5BFC9"/>
		<stop  offset="0.83" style="stop-color:#9199A2"/>
		<stop  offset="1" style="stop-color:#676D74"/>
	</linearGradient>
	<path fill="url(#SVGID_16_)" d="M530.433,248.305h-90c0,0-17.18,2.82-17.18,70.351c-0.07,67.648,17.25,70.203,17.25,70.203
		l89.93-0.305V248.305z"/>
	
		<linearGradient id="SVGID_17_" gradientUnits="userSpaceOnUse" x1="777.2212" y1="188.8062" x2="202.2222" y2="188.8061" gradientTransform="matrix(0.75 0 0 -0.75 -83.9366 328.799)">
		<stop  offset="0" style="stop-color:#A1A9B3"/>
		<stop  offset="0.09" style="stop-color:#A3ACB6"/>
		<stop  offset="0.36" style="stop-color:#C9D4E0"/>
		<stop  offset="0.56" style="stop-color:#B5BFC9"/>
		<stop  offset="0.83" style="stop-color:#9199A2"/>
		<stop  offset="1" style="stop-color:#676D74"/>
	</linearGradient>
	<path fill="url(#SVGID_17_)" d="M67.73,177.82h431.25v18.75H67.73V177.82z"/>
	<path fill="#A9B3C0" d="M150.578,228.414h41.25v89.25h-41.25V228.414z"/>
	<path fill="#7E858D" d="M107.047,228.414h9v89.25h-9V228.414z"/>
	<path fill="#A9B3C0" d="M116.609,228.414h24.75v89.25h-24.75V228.414z"/>
	<path fill="#7E858D" d="M141.012,228.414h9v89.25h-9V228.414z"/>
	
		<linearGradient id="SVGID_18_" gradientUnits="userSpaceOnUse" x1="230.7744" y1="190.8794" x2="200.2328" y2="185.4941" gradientTransform="matrix(0.75 0 0 -0.75 13.35 415.6232)">
		<stop  offset="0" style="stop-color:#8190A1"/>
		<stop  offset="0.09" style="stop-color:#8392A3"/>
		<stop  offset="0.36" style="stop-color:#A2B4C9"/>
		<stop  offset="0.56" style="stop-color:#92A2B5"/>
		<stop  offset="0.83" style="stop-color:#748291"/>
		<stop  offset="1" style="stop-color:#525C67"/>
	</linearGradient>
	<path fill="url(#SVGID_18_)" d="M165.02,274.395c0-5.25,4.406-9.883,9.953-9.883c5.797,0.133,10.047,4.465,10.047,9.973
		c0.25,5.16-4.496,9.976-10.047,9.976c-5.453-0.316-10.043-4.464-10.043-9.976L165.02,274.395z"/>
	
		<linearGradient id="SVGID_19_" gradientUnits="userSpaceOnUse" x1="209.6768" y1="201.4629" x2="209.6768" y2="145.3018" gradientTransform="matrix(0.75 0 0 -0.75 -23.1989 405.1603)">
		<stop  offset="0" style="stop-color:#828991"/>
		<stop  offset="0.09" style="stop-color:#848B93"/>
		<stop  offset="0.36" style="stop-color:#A3ACB6"/>
		<stop  offset="0.56" style="stop-color:#929BA4"/>
		<stop  offset="0.83" style="stop-color:#757C83"/>
		<stop  offset="1" style="stop-color:#52575D"/>
	</linearGradient>
	<path fill="url(#SVGID_19_)" d="M139.719,254.184v42c0,0-26.449-19.324,0.336-42.121L139.719,254.184z"/>
	<path fill="#A1ABB7" d="M413.496,228.414h-41.25v89.25h41.25V228.414z"/>
	<path fill="#A1ABB7" d="M447.464,228.414h-24.75v89.25h24.75V228.414z"/>
	<path fill="#7E858D" d="M423.062,228.414h-9v89.25h9V228.414z"/>
	
		<linearGradient id="SVGID_20_" gradientUnits="userSpaceOnUse" x1="194.2534" y1="190.8789" x2="163.7118" y2="185.4936" gradientTransform="matrix(-0.75 0 0 -0.75 523.3351 415.6232)">
		<stop  offset="0" style="stop-color:#8190A1"/>
		<stop  offset="0.09" style="stop-color:#8392A3"/>
		<stop  offset="0.36" style="stop-color:#A2B4C9"/>
		<stop  offset="0.56" style="stop-color:#92A2B5"/>
		<stop  offset="0.83" style="stop-color:#748291"/>
		<stop  offset="1" style="stop-color:#525C67"/>
	</linearGradient>
	<path fill="url(#SVGID_20_)" d="M399.058,274.395c0-5.25-4.406-9.883-9.957-9.883c-5.793,0.133-10.043,4.465-10.043,9.973
		c-0.25,5.16,4.496,9.976,10.043,9.976c5.457-0.316,10.047-4.464,10.047-9.976L399.058,274.395z"/>
	
		<linearGradient id="SVGID_21_" gradientUnits="userSpaceOnUse" x1="224.2681" y1="201.3037" x2="224.2681" y2="-251.9766" gradientTransform="matrix(0.75 0 0 -0.75 376.705 298.6915)">
		<stop  offset="0" style="stop-color:#828991"/>
		<stop  offset="0.08" style="stop-color:#A3ACB6"/>
		<stop  offset="0.3" style="stop-color:#C9D4E0"/>
		<stop  offset="0.45" style="stop-color:#B5BFC9"/>
		<stop  offset="0.7" style="stop-color:#9199A2"/>
		<stop  offset="1" style="stop-color:#676D74"/>
	</linearGradient>
	<path fill="url(#SVGID_21_)" d="M544.875,147.715c9,0,16.773,7.246,16.773,16.43l-0.273,306.82c0,9-7.223,16.711-16.469,16.711
		c-9.031-0.211-16.742-7.531-16.742-16.711l0.211-306.75c0-9,7.285-16.5,16.531-16.5H544.875z"/>
	
		<linearGradient id="SVGID_22_" gradientUnits="userSpaceOnUse" x1="224.2715" y1="201.3018" x2="224.2715" y2="-251.9795" gradientTransform="matrix(0.75 0 0 -0.75 -146.2892 300.757)">
		<stop  offset="0" style="stop-color:#828991"/>
		<stop  offset="0.08" style="stop-color:#A3ACB6"/>
		<stop  offset="0.3" style="stop-color:#C9D4E0"/>
		<stop  offset="0.45" style="stop-color:#B5BFC9"/>
		<stop  offset="0.7" style="stop-color:#9199A2"/>
		<stop  offset="1" style="stop-color:#676D74"/>
	</linearGradient>
	<path fill="url(#SVGID_22_)" d="M21.879,149.781c9,0,16.777,7.246,16.777,16.43l-0.277,306.82c0,9-7.219,16.711-16.465,16.711
		c-9.035-0.211-16.742-7.531-16.742-16.711l0.207-306.75c0-9,7.289-16.5,16.535-16.5H21.879z"/>
	<path fill="#7E858D" d="M67.73,201.684h431.25v18.75H67.73V201.684z"/>
	
		<linearGradient id="SVGID_23_" gradientUnits="userSpaceOnUse" x1="777.2212" y1="188.8052" x2="202.2222" y2="188.8051" gradientTransform="matrix(0.75 0 0 -0.75 -83.9366 347.3224)">
		<stop  offset="0" style="stop-color:#A1A9B3"/>
		<stop  offset="0.09" style="stop-color:#A3ACB6"/>
		<stop  offset="0.36" style="stop-color:#C9D4E0"/>
		<stop  offset="0.56" style="stop-color:#B5BFC9"/>
		<stop  offset="0.83" style="stop-color:#9199A2"/>
		<stop  offset="1" style="stop-color:#676D74"/>
	</linearGradient>
	<path fill="url(#SVGID_23_)" d="M67.73,196.344h431.25v18.75H67.73V196.344z"/>
	
		<linearGradient id="SVGID_24_" gradientUnits="userSpaceOnUse" x1="173.1582" y1="201.4629" x2="173.1582" y2="145.3018" gradientTransform="matrix(-0.75 0 0 -0.75 559.8839 405.1603)">
		<stop  offset="0" style="stop-color:#828991"/>
		<stop  offset="0.09" style="stop-color:#848B93"/>
		<stop  offset="0.36" style="stop-color:#A3ACB6"/>
		<stop  offset="0.56" style="stop-color:#929BA4"/>
		<stop  offset="0.83" style="stop-color:#757C83"/>
		<stop  offset="1" style="stop-color:#52575D"/>
	</linearGradient>
	<path fill="url(#SVGID_24_)" d="M424.355,254.184v42c0,0,26.453-19.324-0.336-42.121L424.355,254.184z"/>
	<path fill="#7E858D" d="M457.027,228.414h-10.5v89.25h10.5V228.414z"/>
</g>
</svg>
