<?xml version="1.0" encoding="utf-8"?>
<!-- Generator: Adobe Illustrator 16.0.0, SVG Export Plug-In . SVG Version: 6.00 Build 0)  -->
<!DOCTYPE svg PUBLIC "-//W3C//DTD SVG 1.1//EN" "http://www.w3.org/Graphics/SVG/1.1/DTD/svg11.dtd">
<svg preserveAspectRatio="none"   version="1.1" id="图层_1" xmlns="http://www.w3.org/2000/svg" xmlns:xlink="http://www.w3.org/1999/xlink" x="0px" y="0px"
	 width="293.25px" height="566.945px" viewBox="136.73 -0.035 293.25 566.945"
	 enable-background="new 136.73 -0.035 293.25 566.945" xml:space="preserve">
<g id="surface114">
	
		<linearGradient id="SVGID_1_" gradientUnits="userSpaceOnUse" x1="540.2241" y1="192.3022" x2="202.2251" y2="192.3022" gradientTransform="matrix(0.75 0 0 -0.75 5.0453 347.9327)">
		<stop  offset="0" style="stop-color:#9DA6B2"/>
		<stop  offset="0.09" style="stop-color:#A0A9B4"/>
		<stop  offset="0.36" style="stop-color:#C5D0DE"/>
		<stop  offset="0.56" style="stop-color:#B1BBC8"/>
		<stop  offset="0.83" style="stop-color:#8E96A1"/>
		<stop  offset="1" style="stop-color:#656B72"/>
	</linearGradient>
	<path fill="url(#SVGID_1_)" d="M156.715,210.457h253.5v-13.5h-253.5V210.457z"/>
	
		<linearGradient id="SVGID_2_" gradientUnits="userSpaceOnUse" x1="333.2261" y1="179.8066" x2="202.2261" y2="179.8066" gradientTransform="matrix(0.75 0 0 -0.75 82.7552 315.8302)">
		<stop  offset="0" style="stop-color:#9DA6B2"/>
		<stop  offset="0.09" style="stop-color:#A0A9B4"/>
		<stop  offset="0.36" style="stop-color:#C5D0DE"/>
		<stop  offset="0.56" style="stop-color:#B1BBC8"/>
		<stop  offset="0.83" style="stop-color:#8E96A1"/>
		<stop  offset="1" style="stop-color:#656B72"/>
	</linearGradient>
	<path fill="url(#SVGID_2_)" d="M234.426,197.102h98.25v-32.25h-98.25V197.102z"/>
	
		<linearGradient id="SVGID_3_" gradientUnits="userSpaceOnUse" x1="540.2261" y1="197.3071" x2="202.2271" y2="197.3071" gradientTransform="matrix(0.75 0 0 -0.75 4.9266 357.8468)">
		<stop  offset="0" style="stop-color:#636E7D"/>
		<stop  offset="0.15" style="stop-color:#929FB1"/>
		<stop  offset="0.25" style="stop-color:#A4AEBC"/>
		<stop  offset="0.52" style="stop-color:#758394"/>
		<stop  offset="0.69" style="stop-color:#687484"/>
		<stop  offset="0.8" style="stop-color:#626D7C"/>
		<stop  offset="0.92" style="stop-color:#5C6675"/>
		<stop  offset="1" style="stop-color:#6A7787"/>
	</linearGradient>
	<path fill="url(#SVGID_3_)" d="M156.598,206.867h253.5v6h-253.5V206.867z"/>
	
		<linearGradient id="SVGID_4_" gradientUnits="userSpaceOnUse" x1="593.2251" y1="190.8042" x2="202.2256" y2="190.8042" gradientTransform="matrix(0.75 0 0 -0.75 -14.9391 360.7189)">
		<stop  offset="0" style="stop-color:#9DA6B2"/>
		<stop  offset="0.09" style="stop-color:#A0A9B4"/>
		<stop  offset="0.36" style="stop-color:#C5D0DE"/>
		<stop  offset="0.56" style="stop-color:#B1BBC8"/>
		<stop  offset="0.83" style="stop-color:#8E96A1"/>
		<stop  offset="1" style="stop-color:#656B72"/>
	</linearGradient>
	<path fill="url(#SVGID_4_)" d="M136.73,209.742h293.25v15.75H136.73V209.742z"/>
	
		<linearGradient id="SVGID_5_" gradientUnits="userSpaceOnUse" x1="625.895" y1="-39.4063" x2="173.8371" y2="40.3038" gradientTransform="matrix(0.75 0 0 -0.75 -14.9391 376.4904)">
		<stop  offset="0" style="stop-color:#9DA6B2"/>
		<stop  offset="0.09" style="stop-color:#A0A9B4"/>
		<stop  offset="0.36" style="stop-color:#C5D0DE"/>
		<stop  offset="0.56" style="stop-color:#B1BBC8"/>
		<stop  offset="0.83" style="stop-color:#8E96A1"/>
		<stop  offset="1" style="stop-color:#656B72"/>
	</linearGradient>
	<path fill="url(#SVGID_5_)" d="M429.98,225.512l-106.5,319.5h-80.25l-106.5-319.5H429.98z"/>
	
		<linearGradient id="SVGID_6_" gradientUnits="userSpaceOnUse" x1="308.2222" y1="192.8066" x2="202.2231" y2="192.8066" gradientTransform="matrix(0.75 0 0 -0.75 92.0233 693.5968)">
		<stop  offset="0" style="stop-color:#9DA6B2"/>
		<stop  offset="0.09" style="stop-color:#A0A9B4"/>
		<stop  offset="0.36" style="stop-color:#C5D0DE"/>
		<stop  offset="0.56" style="stop-color:#B1BBC8"/>
		<stop  offset="0.83" style="stop-color:#8E96A1"/>
		<stop  offset="1" style="stop-color:#656B72"/>
	</linearGradient>
	<path fill="url(#SVGID_6_)" d="M243.691,542.617h79.5v12.75h-79.5V542.617z"/>
	
		<linearGradient id="SVGID_7_" gradientUnits="userSpaceOnUse" x1="356.0103" y1="191.7515" x2="202.2231" y2="191.7514" gradientTransform="matrix(0.75 0 0 -0.75 74.1327 703.5587)">
		<stop  offset="0" style="stop-color:#9DA6B2"/>
		<stop  offset="0.09" style="stop-color:#A0A9B4"/>
		<stop  offset="0.36" style="stop-color:#C5D0DE"/>
		<stop  offset="0.56" style="stop-color:#B1BBC8"/>
		<stop  offset="0.83" style="stop-color:#8E96A1"/>
		<stop  offset="1" style="stop-color:#656B72"/>
	</linearGradient>
	<path fill="url(#SVGID_7_)" d="M228.801,552.582h108.75c2.25,0,3.578,3.199,3.578,7.16c0.172,4.09-1.512,7.168-3.348,7.168
		l-108.98-0.078c-1.5,0-3-3.133-3-7.09c0-4.16,1.426-7.16,3.262-7.16H228.801z"/>
	
		<linearGradient id="SVGID_8_" gradientUnits="userSpaceOnUse" x1="593.2251" y1="197.3071" x2="202.2256" y2="197.3071" gradientTransform="matrix(0.75 0 0 -0.75 -14.9391 373.4044)">
		<stop  offset="0" style="stop-color:#636E7D"/>
		<stop  offset="0.15" style="stop-color:#929FB1"/>
		<stop  offset="0.25" style="stop-color:#A4AEBC"/>
		<stop  offset="0.52" style="stop-color:#758394"/>
		<stop  offset="0.69" style="stop-color:#687484"/>
		<stop  offset="0.8" style="stop-color:#626D7C"/>
		<stop  offset="0.92" style="stop-color:#5C6675"/>
		<stop  offset="1" style="stop-color:#6A7787"/>
	</linearGradient>
	<path fill="url(#SVGID_8_)" d="M136.73,222.426h293.25v6H136.73V222.426z"/>
	
		<linearGradient id="SVGID_9_" gradientUnits="userSpaceOnUse" x1="7.3057" y1="402.2222" x2="7.3057" y2="308.2231" gradientTransform="matrix(0 -0.75 0.75 0 16.9657 125.6075)">
		<stop  offset="0" style="stop-color:#9DA6B2"/>
		<stop  offset="0.09" style="stop-color:#A0A9B4"/>
		<stop  offset="0.36" style="stop-color:#C5D0DE"/>
		<stop  offset="0.56" style="stop-color:#B1BBC8"/>
		<stop  offset="0.83" style="stop-color:#8E96A1"/>
		<stop  offset="1" style="stop-color:#656B72"/>
	</linearGradient>
	<path fill="url(#SVGID_9_)" d="M318.632,123.129v-7.5h-70.5v7.5c0,0.75,0.957,1.5,1.883,1.5h67.117c0.75,0,1.5-0.742,1.5-1.66
		V123.129z"/>
	
		<linearGradient id="SVGID_10_" gradientUnits="userSpaceOnUse" x1="52.3057" y1="402.2241" x2="52.3057" y2="305.2241" gradientTransform="matrix(0 -0.75 0.75 0 18.3085 112.3302)">
		<stop  offset="0" style="stop-color:#9DA6B2"/>
		<stop  offset="0.09" style="stop-color:#A0A9B4"/>
		<stop  offset="0.36" style="stop-color:#C5D0DE"/>
		<stop  offset="0.56" style="stop-color:#B1BBC8"/>
		<stop  offset="0.83" style="stop-color:#8E96A1"/>
		<stop  offset="1" style="stop-color:#656B72"/>
	</linearGradient>
	<path fill="url(#SVGID_10_)" d="M319.976,111.352v-76.5h-72.75v76.5H319.976z"/>
	
		<linearGradient id="SVGID_11_" gradientUnits="userSpaceOnUse" x1="26.3638" y1="402.2222" x2="26.3638" y2="304.77" gradientTransform="matrix(0 -0.75 0.75 0 18.3094 38.5294)">
		<stop  offset="0" style="stop-color:#9DA6B2"/>
		<stop  offset="0.09" style="stop-color:#A0A9B4"/>
		<stop  offset="0.36" style="stop-color:#C5D0DE"/>
		<stop  offset="0.56" style="stop-color:#B1BBC8"/>
		<stop  offset="0.83" style="stop-color:#8E96A1"/>
		<stop  offset="1" style="stop-color:#656B72"/>
	</linearGradient>
	<path fill="url(#SVGID_11_)" d="M319.976,37.551v-26.25c0,0,0-11.168-36.542-11.336c-36.207,0.086-36.547,11.152-36.547,11.152
		l0.34,26.434H319.976z"/>
	
		<linearGradient id="SVGID_12_" gradientUnits="userSpaceOnUse" x1="369.6089" y1="402.228" x2="369.6089" y2="299.228" gradientTransform="matrix(0 0.75 0.75 0 20.3212 -163.7823)">
		<stop  offset="0" style="stop-color:#717781"/>
		<stop  offset="0.09" style="stop-color:#737983"/>
		<stop  offset="0.36" style="stop-color:#8E96A2"/>
		<stop  offset="0.56" style="stop-color:#808792"/>
		<stop  offset="0.83" style="stop-color:#666C74"/>
		<stop  offset="1" style="stop-color:#474B52"/>
	</linearGradient>
	<path fill="url(#SVGID_12_)" d="M321.992,111.938v3c0,0-0.34,0.66-0.762,0.66l-75.738,0.09c0,0-0.52-0.43-0.52-0.848l-0.23-2.902
		c0-0.75,0.602-0.777,1.023-0.777l75.476,0.027c0.75,0,0.75,0.313,0.75,0.73V111.938z"/>
	
		<linearGradient id="SVGID_13_" gradientUnits="userSpaceOnUse" x1="368.6011" y1="402.2222" x2="368.6011" y2="299.7749" gradientTransform="matrix(0 0.75 0.75 0 20.2313 -162.0504)">
		<stop  offset="0" style="stop-color:#9DA6B2"/>
		<stop  offset="0.09" style="stop-color:#A0A9B4"/>
		<stop  offset="0.36" style="stop-color:#C5D0DE"/>
		<stop  offset="0.56" style="stop-color:#B1BBC8"/>
		<stop  offset="0.83" style="stop-color:#8E96A1"/>
		<stop  offset="1" style="stop-color:#656B72"/>
	</linearGradient>
	<path fill="url(#SVGID_13_)" d="M321.898,113.668c0,1.5-0.34,1.918-0.762,1.918l-74.988,0.332c-0.75,0-1.086-0.773-1.086-1.313
		c0.336-0.938,0.363-1.723,0.785-1.723l75.3,0.035c0.75,0,0.75,0.402,0.75,0.941V113.668z"/>
	
		<linearGradient id="SVGID_14_" gradientUnits="userSpaceOnUse" x1="44.3037" y1="402.2593" x2="44.3037" y2="398.9722" gradientTransform="matrix(0 -0.75 0.75 0 1.9305 104.2072)">
		<stop  offset="0" style="stop-color:#9DA6B2"/>
		<stop  offset="0.09" style="stop-color:#A0A9B4"/>
		<stop  offset="0.36" style="stop-color:#C5D0DE"/>
		<stop  offset="0.56" style="stop-color:#B1BBC8"/>
		<stop  offset="0.83" style="stop-color:#8E96A1"/>
		<stop  offset="1" style="stop-color:#656B72"/>
	</linearGradient>
	<path fill="url(#SVGID_14_)" d="M303.601,102.48v-63c0,0-0.32-0.598-0.746-0.598l-0.754-0.152c-0.75,0-0.941,0.426-0.941,0.766
		l0.191,62.984c0,0.75,0.152,0.75,0.574,0.75h0.926c0.75,0,0.773-0.258,0.773-0.594L303.601,102.48z"/>
	
		<linearGradient id="SVGID_15_" gradientUnits="userSpaceOnUse" x1="44.3037" y1="402.2583" x2="44.3037" y2="398.9722" gradientTransform="matrix(0 -0.75 0.75 0 -5.2487 104.2072)">
		<stop  offset="0" style="stop-color:#9DA6B2"/>
		<stop  offset="0.09" style="stop-color:#A0A9B4"/>
		<stop  offset="0.36" style="stop-color:#C5D0DE"/>
		<stop  offset="0.56" style="stop-color:#B1BBC8"/>
		<stop  offset="0.83" style="stop-color:#8E96A1"/>
		<stop  offset="1" style="stop-color:#656B72"/>
	</linearGradient>
	<path fill="url(#SVGID_15_)" d="M296.421,102.48v-63c0,0-0.32-0.598-0.746-0.598l-0.754-0.152c-0.75,0-0.941,0.426-0.941,0.766
		l0.191,62.984c0,0.75,0.152,0.75,0.574,0.75h0.926c0.75,0,0.773-0.258,0.773-0.594L296.421,102.48z"/>
	
		<linearGradient id="SVGID_16_" gradientUnits="userSpaceOnUse" x1="44.3037" y1="402.2583" x2="44.3037" y2="398.9722" gradientTransform="matrix(0 -0.75 0.75 0 -12.4288 104.2072)">
		<stop  offset="0" style="stop-color:#9DA6B2"/>
		<stop  offset="0.09" style="stop-color:#A0A9B4"/>
		<stop  offset="0.36" style="stop-color:#C5D0DE"/>
		<stop  offset="0.56" style="stop-color:#B1BBC8"/>
		<stop  offset="0.83" style="stop-color:#8E96A1"/>
		<stop  offset="1" style="stop-color:#656B72"/>
	</linearGradient>
	<path fill="url(#SVGID_16_)" d="M289.242,102.48v-63c0,0-0.32-0.598-0.746-0.598l-0.754-0.152c-0.75,0-0.941,0.426-0.941,0.766
		l0.191,62.984c0,0.75,0.152,0.75,0.574,0.75h0.926c0.75,0,0.773-0.258,0.773-0.594L289.242,102.48z"/>
	
		<linearGradient id="SVGID_17_" gradientUnits="userSpaceOnUse" x1="44.3037" y1="402.2593" x2="44.3037" y2="398.9731" gradientTransform="matrix(0 -0.75 0.75 0 -19.6085 104.2072)">
		<stop  offset="0" style="stop-color:#9DA6B2"/>
		<stop  offset="0.09" style="stop-color:#A0A9B4"/>
		<stop  offset="0.36" style="stop-color:#C5D0DE"/>
		<stop  offset="0.56" style="stop-color:#B1BBC8"/>
		<stop  offset="0.83" style="stop-color:#8E96A1"/>
		<stop  offset="1" style="stop-color:#656B72"/>
	</linearGradient>
	<path fill="url(#SVGID_17_)" d="M282.063,102.48v-63c0,0-0.32-0.598-0.746-0.598l-0.754-0.152c-0.75,0-0.941,0.426-0.941,0.766
		l0.191,62.984c0,0.75,0.152,0.75,0.574,0.75h0.926c0.75,0,0.773-0.258,0.773-0.594L282.063,102.48z"/>
	
		<linearGradient id="SVGID_18_" gradientUnits="userSpaceOnUse" x1="44.3037" y1="402.2593" x2="44.3037" y2="398.9722" gradientTransform="matrix(0 -0.75 0.75 0 -26.7882 104.2072)">
		<stop  offset="0" style="stop-color:#9DA6B2"/>
		<stop  offset="0.09" style="stop-color:#A0A9B4"/>
		<stop  offset="0.36" style="stop-color:#C5D0DE"/>
		<stop  offset="0.56" style="stop-color:#B1BBC8"/>
		<stop  offset="0.83" style="stop-color:#8E96A1"/>
		<stop  offset="1" style="stop-color:#656B72"/>
	</linearGradient>
	<path fill="url(#SVGID_18_)" d="M274.883,102.48v-63c0,0-0.32-0.598-0.746-0.598l-0.754-0.152c-0.75,0-0.941,0.426-0.941,0.766
		l0.191,62.984c0,0.75,0.152,0.75,0.574,0.75h0.926c0.75,0,0.773-0.258,0.773-0.594L274.883,102.48z"/>
	
		<linearGradient id="SVGID_19_" gradientUnits="userSpaceOnUse" x1="44.3037" y1="402.2593" x2="44.3037" y2="398.9731" gradientTransform="matrix(0 -0.75 0.75 0 -33.9679 104.2072)">
		<stop  offset="0" style="stop-color:#9DA6B2"/>
		<stop  offset="0.09" style="stop-color:#A0A9B4"/>
		<stop  offset="0.36" style="stop-color:#C5D0DE"/>
		<stop  offset="0.56" style="stop-color:#B1BBC8"/>
		<stop  offset="0.83" style="stop-color:#8E96A1"/>
		<stop  offset="1" style="stop-color:#656B72"/>
	</linearGradient>
	<path fill="url(#SVGID_19_)" d="M267.703,102.48v-63c0,0-0.32-0.598-0.746-0.598l-0.754-0.152c-0.75,0-0.941,0.426-0.941,0.766
		l0.191,62.984c0,0.75,0.152,0.75,0.574,0.75h0.926c0.75,0,0.773-0.258,0.773-0.594L267.703,102.48z"/>
	<path fill="#919BA9" d="M332.695,110.527v-37.5l-12.75,4.5v29.25L332.695,110.527z"/>
	
		<linearGradient id="SVGID_20_" gradientUnits="userSpaceOnUse" x1="27.3057" y1="402.2241" x2="27.3057" y2="398.73" gradientTransform="matrix(0 -0.75 0.75 0 32.7841 112.3302)">
		<stop  offset="0" style="stop-color:#9DA6B2"/>
		<stop  offset="0.09" style="stop-color:#A0A9B4"/>
		<stop  offset="0.36" style="stop-color:#C5D0DE"/>
		<stop  offset="0.56" style="stop-color:#B1BBC8"/>
		<stop  offset="0.83" style="stop-color:#8E96A1"/>
		<stop  offset="1" style="stop-color:#656B72"/>
	</linearGradient>
	<path fill="url(#SVGID_20_)" d="M334.453,111.352v-38.25c0-0.75-0.172-0.551-0.383-0.551l-1.867-0.199c0,0-0.371,0.367-0.371,0.578
		l0.371,38.422c0,0-0.199,0,0.012,0h1.488c0.75,0,0.75-0.152,0.75-0.359V111.352z"/>
	<path fill="#9DA6B2" d="M260.867,100.207v-57.75h-12.75v57.75H260.867z"/>
	
		<linearGradient id="SVGID_21_" gradientUnits="userSpaceOnUse" x1="39.8037" y1="402.2241" x2="39.8037" y2="397.2241" gradientTransform="matrix(0 -0.75 0.75 0 -53.1217 101.1837)">
		<stop  offset="0" style="stop-color:#9DA6B2"/>
		<stop  offset="0.09" style="stop-color:#A0A9B4"/>
		<stop  offset="0.36" style="stop-color:#C5D0DE"/>
		<stop  offset="0.56" style="stop-color:#B1BBC8"/>
		<stop  offset="0.83" style="stop-color:#8E96A1"/>
		<stop  offset="1" style="stop-color:#656B72"/>
	</linearGradient>
	<path fill="url(#SVGID_21_)" d="M248.547,100.207v-57.75h-3.75v57.75H248.547z"/>
	
		<linearGradient id="SVGID_22_" gradientUnits="userSpaceOnUse" x1="296.2241" y1="200.3008" x2="202.2251" y2="200.3008" gradientTransform="matrix(0.75 0 0 -0.75 96.6708 273.8898)">
		<stop  offset="0" style="stop-color:#717781"/>
		<stop  offset="0.09" style="stop-color:#737983"/>
		<stop  offset="0.36" style="stop-color:#8E96A2"/>
		<stop  offset="0.56" style="stop-color:#808792"/>
		<stop  offset="0.83" style="stop-color:#666C74"/>
		<stop  offset="1" style="stop-color:#474B52"/>
	</linearGradient>
	<path fill="url(#SVGID_22_)" d="M248.34,122.914h70.5v1.5h-70.5V122.914z"/>
	
		<linearGradient id="SVGID_23_" gradientUnits="userSpaceOnUse" x1="314.3364" y1="197.8013" x2="202.2236" y2="197.8013" gradientTransform="matrix(0.75 0 0 -0.75 89.7694 275.4357)">
		<stop  offset="0" style="stop-color:#9DA6B2"/>
		<stop  offset="0.09" style="stop-color:#A0A9B4"/>
		<stop  offset="0.36" style="stop-color:#C5D0DE"/>
		<stop  offset="0.56" style="stop-color:#B1BBC8"/>
		<stop  offset="0.83" style="stop-color:#8E96A1"/>
		<stop  offset="1" style="stop-color:#656B72"/>
	</linearGradient>
	<path fill="url(#SVGID_23_)" d="M244.438,124.457h78.75c1.5,0,2.336,1.16,2.336,2.629c-0.086,1.121-1.199,2.656-2.684,2.656
		l-78.402-0.035c-1.5,0-3-1.152-3-2.621c0-1.129,1.188-2.656,2.672-2.656L244.438,124.457z"/>
	
		<linearGradient id="SVGID_24_" gradientUnits="userSpaceOnUse" x1="2.3037" y1="402.2271" x2="2.3037" y2="305.228" gradientTransform="matrix(0 -0.75 0.75 0 18.3094 36.4269)">
		<stop  offset="0" style="stop-color:#717781"/>
		<stop  offset="0.09" style="stop-color:#737983"/>
		<stop  offset="0.36" style="stop-color:#8E96A2"/>
		<stop  offset="0.56" style="stop-color:#808792"/>
		<stop  offset="0.83" style="stop-color:#666C74"/>
		<stop  offset="1" style="stop-color:#474B52"/>
	</linearGradient>
	<path fill="url(#SVGID_24_)" d="M319.98,35.449v-1.5h-72.75v1.5H319.98z"/>
	
		<linearGradient id="SVGID_25_" gradientUnits="userSpaceOnUse" x1="286.2251" y1="193.3066" x2="202.2261" y2="193.3066" gradientTransform="matrix(0.75 0 0 -0.75 100.244 279.9943)">
		<stop  offset="0" style="stop-color:#9DA6B2"/>
		<stop  offset="0.09" style="stop-color:#A0A9B4"/>
		<stop  offset="0.36" style="stop-color:#C5D0DE"/>
		<stop  offset="0.56" style="stop-color:#B1BBC8"/>
		<stop  offset="0.83" style="stop-color:#8E96A1"/>
		<stop  offset="1" style="stop-color:#656B72"/>
	</linearGradient>
	<path fill="url(#SVGID_25_)" d="M251.914,141.016h63v-12h-63V141.016z"/>
	
		<linearGradient id="SVGID_26_" gradientUnits="userSpaceOnUse" x1="350.2261" y1="184.8047" x2="202.2271" y2="184.8047" gradientTransform="matrix(0.75 0 0 -0.75 76.2084 291.9396)">
		<stop  offset="0" style="stop-color:#9DA6B2"/>
		<stop  offset="0.09" style="stop-color:#A0A9B4"/>
		<stop  offset="0.36" style="stop-color:#C5D0DE"/>
		<stop  offset="0.56" style="stop-color:#B1BBC8"/>
		<stop  offset="0.83" style="stop-color:#8E96A1"/>
		<stop  offset="1" style="stop-color:#656B72"/>
	</linearGradient>
	<path fill="url(#SVGID_26_)" d="M227.879,165.711h111v-24.75h-111V165.711z"/>
	
		<linearGradient id="SVGID_27_" gradientUnits="userSpaceOnUse" x1="333.2261" y1="199.8066" x2="202.2261" y2="199.8066" gradientTransform="matrix(0.75 0 0 -0.75 82.7552 315.8302)">
		<stop  offset="0" style="stop-color:#636E7D"/>
		<stop  offset="0.15" style="stop-color:#929FB1"/>
		<stop  offset="0.25" style="stop-color:#A4AEBC"/>
		<stop  offset="0.52" style="stop-color:#758394"/>
		<stop  offset="0.69" style="stop-color:#687484"/>
		<stop  offset="0.8" style="stop-color:#626D7C"/>
		<stop  offset="0.92" style="stop-color:#5C6675"/>
		<stop  offset="1" style="stop-color:#6A7787"/>
	</linearGradient>
	<path fill="url(#SVGID_27_)" d="M234.426,167.102h98.25v-2.25h-98.25V167.102z"/>
	
		<linearGradient id="SVGID_28_" gradientUnits="userSpaceOnUse" x1="19.3188" y1="402.2544" x2="19.3188" y2="398.9683" gradientTransform="matrix(0 -0.75 0.75 0 -21.4918 167.631)">
		<stop  offset="0" style="stop-color:#9DA6B2"/>
		<stop  offset="0.09" style="stop-color:#A0A9B4"/>
		<stop  offset="0.36" style="stop-color:#C5D0DE"/>
		<stop  offset="0.56" style="stop-color:#B1BBC8"/>
		<stop  offset="0.83" style="stop-color:#8E96A1"/>
		<stop  offset="1" style="stop-color:#656B72"/>
	</linearGradient>
	<path fill="url(#SVGID_28_)" d="M280.176,166.652v-27c0,0-0.316-0.02-0.742-0.02l-0.758,0.02c-0.75,0-0.941,0.098-0.941,0.238
		l0.191,26.762c0,0,0.152,0,0.578,0h0.922c0.75,0,0.773-0.105,0.773-0.25L280.176,166.652z"/>
	
		<linearGradient id="SVGID_29_" gradientUnits="userSpaceOnUse" x1="19.3188" y1="402.2593" x2="19.3188" y2="398.9722" gradientTransform="matrix(0 -0.75 0.75 0 -30.7721 167.631)">
		<stop  offset="0" style="stop-color:#9DA6B2"/>
		<stop  offset="0.09" style="stop-color:#A0A9B4"/>
		<stop  offset="0.36" style="stop-color:#C5D0DE"/>
		<stop  offset="0.56" style="stop-color:#B1BBC8"/>
		<stop  offset="0.83" style="stop-color:#8E96A1"/>
		<stop  offset="1" style="stop-color:#656B72"/>
	</linearGradient>
	<path fill="url(#SVGID_29_)" d="M270.898,166.652v-27c0,0-0.32-0.02-0.746-0.02l-0.754,0.02c-0.75,0-0.941,0.098-0.941,0.238
		l0.191,26.762c0,0,0.152,0,0.574,0h0.926c0.75,0,0.773-0.105,0.773-0.25L270.898,166.652z"/>
	
		<linearGradient id="SVGID_30_" gradientUnits="userSpaceOnUse" x1="19.3188" y1="402.2583" x2="19.3188" y2="398.9712" gradientTransform="matrix(0 -0.75 0.75 0 -40.0529 167.631)">
		<stop  offset="0" style="stop-color:#9DA6B2"/>
		<stop  offset="0.09" style="stop-color:#A0A9B4"/>
		<stop  offset="0.36" style="stop-color:#C5D0DE"/>
		<stop  offset="0.56" style="stop-color:#B1BBC8"/>
		<stop  offset="0.83" style="stop-color:#8E96A1"/>
		<stop  offset="1" style="stop-color:#656B72"/>
	</linearGradient>
	<path fill="url(#SVGID_30_)" d="M261.617,166.652v-27c0,0-0.32-0.02-0.742-0.02l-0.758,0.02c-0.75,0-0.941,0.098-0.941,0.238
		l0.191,26.762c0,0,0.152,0,0.574,0h0.926c0.75,0,0.773-0.105,0.773-0.25L261.617,166.652z"/>
	
		<linearGradient id="SVGID_31_" gradientUnits="userSpaceOnUse" x1="19.3188" y1="402.2573" x2="19.3188" y2="398.9702" gradientTransform="matrix(0 -0.75 0.75 0 -49.3331 167.631)">
		<stop  offset="0" style="stop-color:#9DA6B2"/>
		<stop  offset="0.09" style="stop-color:#A0A9B4"/>
		<stop  offset="0.36" style="stop-color:#C5D0DE"/>
		<stop  offset="0.56" style="stop-color:#B1BBC8"/>
		<stop  offset="0.83" style="stop-color:#8E96A1"/>
		<stop  offset="1" style="stop-color:#656B72"/>
	</linearGradient>
	<path fill="url(#SVGID_31_)" d="M252.336,166.652v-27c0,0-0.32-0.02-0.742-0.02l-0.758,0.02c-0.75,0-0.941,0.098-0.941,0.238
		l0.191,26.762c0,0,0.152,0,0.574,0h0.926c0.75,0,0.773-0.105,0.773-0.25L252.336,166.652z"/>
	
		<linearGradient id="SVGID_32_" gradientUnits="userSpaceOnUse" x1="19.3188" y1="402.2554" x2="19.3188" y2="398.9683" gradientTransform="matrix(0 -0.75 0.75 0 -58.6129 167.631)">
		<stop  offset="0" style="stop-color:#9DA6B2"/>
		<stop  offset="0.09" style="stop-color:#A0A9B4"/>
		<stop  offset="0.36" style="stop-color:#C5D0DE"/>
		<stop  offset="0.56" style="stop-color:#B1BBC8"/>
		<stop  offset="0.83" style="stop-color:#8E96A1"/>
		<stop  offset="1" style="stop-color:#656B72"/>
	</linearGradient>
	<path fill="url(#SVGID_32_)" d="M243.055,166.652v-27c0,0-0.316-0.02-0.742-0.02l-0.758,0.02c-0.75,0-0.941,0.098-0.941,0.238
		l0.191,26.762c0,0,0.152,0,0.578,0h0.922c0.75,0,0.773-0.105,0.773-0.25L243.055,166.652z"/>
	
		<linearGradient id="SVGID_33_" gradientUnits="userSpaceOnUse" x1="19.3179" y1="402.2593" x2="19.3179" y2="398.9731" gradientTransform="matrix(0 -0.75 0.75 0 -67.8937 167.6271)">
		<stop  offset="0" style="stop-color:#9DA6B2"/>
		<stop  offset="0.09" style="stop-color:#A0A9B4"/>
		<stop  offset="0.36" style="stop-color:#C5D0DE"/>
		<stop  offset="0.56" style="stop-color:#B1BBC8"/>
		<stop  offset="0.83" style="stop-color:#8E96A1"/>
		<stop  offset="1" style="stop-color:#656B72"/>
	</linearGradient>
	<path fill="url(#SVGID_33_)" d="M233.777,166.648v-27c0,0-0.32-0.02-0.746-0.02l-0.754,0.02c-0.75,0-0.941,0.094-0.941,0.238
		l0.191,26.762c0,0,0.152,0,0.574,0h0.926c0.75,0,0.773-0.105,0.773-0.25L233.777,166.648z"/>
	
		<linearGradient id="SVGID_34_" gradientUnits="userSpaceOnUse" x1="19.3179" y1="402.2593" x2="19.3179" y2="398.9722" gradientTransform="matrix(0 -0.75 0.75 0 -12.2101 167.6271)">
		<stop  offset="0" style="stop-color:#9DA6B2"/>
		<stop  offset="0.09" style="stop-color:#A0A9B4"/>
		<stop  offset="0.36" style="stop-color:#C5D0DE"/>
		<stop  offset="0.56" style="stop-color:#B1BBC8"/>
		<stop  offset="0.83" style="stop-color:#8E96A1"/>
		<stop  offset="1" style="stop-color:#656B72"/>
	</linearGradient>
	<path fill="url(#SVGID_34_)" d="M289.46,166.648v-27c0,0-0.32-0.02-0.746-0.02l-0.754,0.02c-0.75,0-0.941,0.094-0.941,0.238
		l0.191,26.762c0,0,0.148,0,0.574,0h0.926c0.75,0,0.773-0.105,0.773-0.25L289.46,166.648z"/>
	
		<linearGradient id="SVGID_35_" gradientUnits="userSpaceOnUse" x1="19.3193" y1="402.2544" x2="19.3193" y2="398.9683" gradientTransform="matrix(0 -0.75 0.75 0 -2.922 167.6232)">
		<stop  offset="0" style="stop-color:#9DA6B2"/>
		<stop  offset="0.09" style="stop-color:#A0A9B4"/>
		<stop  offset="0.36" style="stop-color:#C5D0DE"/>
		<stop  offset="0.56" style="stop-color:#B1BBC8"/>
		<stop  offset="0.83" style="stop-color:#8E96A1"/>
		<stop  offset="1" style="stop-color:#656B72"/>
	</linearGradient>
	<path fill="url(#SVGID_35_)" d="M298.746,166.645v-27c0,0-0.316-0.02-0.742-0.02l-0.758,0.02c-0.75,0-0.941,0.094-0.941,0.238
		l0.191,26.762c0,0,0.152,0,0.578,0h0.922c0.75,0,0.773-0.105,0.773-0.25L298.746,166.645z"/>
	
		<linearGradient id="SVGID_36_" gradientUnits="userSpaceOnUse" x1="19.3193" y1="402.2554" x2="19.3193" y2="398.9702" gradientTransform="matrix(0 -0.75 0.75 0 6.3934 167.6466)">
		<stop  offset="0" style="stop-color:#9DA6B2"/>
		<stop  offset="0.09" style="stop-color:#A0A9B4"/>
		<stop  offset="0.36" style="stop-color:#C5D0DE"/>
		<stop  offset="0.56" style="stop-color:#B1BBC8"/>
		<stop  offset="0.83" style="stop-color:#8E96A1"/>
		<stop  offset="1" style="stop-color:#656B72"/>
	</linearGradient>
	<path fill="url(#SVGID_36_)" d="M308.062,166.668v-27c0,0-0.32-0.02-0.742-0.02l-0.758,0.02c-0.75,0-0.941,0.094-0.941,0.238
		l0.191,26.762c0,0,0.152,0,0.574,0h0.926c0.75,0,0.773-0.105,0.773-0.25L308.062,166.668z"/>
	
		<linearGradient id="SVGID_37_" gradientUnits="userSpaceOnUse" x1="19.3193" y1="402.2573" x2="19.3193" y2="398.9712" gradientTransform="matrix(0 -0.75 0.75 0 15.7089 167.6241)">
		<stop  offset="0" style="stop-color:#9DA6B2"/>
		<stop  offset="0.09" style="stop-color:#A0A9B4"/>
		<stop  offset="0.36" style="stop-color:#C5D0DE"/>
		<stop  offset="0.56" style="stop-color:#B1BBC8"/>
		<stop  offset="0.83" style="stop-color:#8E96A1"/>
		<stop  offset="1" style="stop-color:#656B72"/>
	</linearGradient>
	<path fill="url(#SVGID_37_)" d="M317.378,166.645v-27c0,0-0.32-0.02-0.746-0.02l-0.754,0.02c-0.75,0-0.941,0.098-0.941,0.238
		l0.191,26.762c0,0,0.152,0,0.574,0h0.926c0.75,0,0.773-0.105,0.773-0.246L317.378,166.645z"/>
	
		<linearGradient id="SVGID_38_" gradientUnits="userSpaceOnUse" x1="19.3184" y1="402.2563" x2="19.3184" y2="398.9702" gradientTransform="matrix(0 -0.75 0.75 0 24.9989 167.6486)">
		<stop  offset="0" style="stop-color:#9DA6B2"/>
		<stop  offset="0.09" style="stop-color:#A0A9B4"/>
		<stop  offset="0.36" style="stop-color:#C5D0DE"/>
		<stop  offset="0.56" style="stop-color:#B1BBC8"/>
		<stop  offset="0.83" style="stop-color:#8E96A1"/>
		<stop  offset="1" style="stop-color:#656B72"/>
	</linearGradient>
	<path fill="url(#SVGID_38_)" d="M326.667,166.672v-27c0,0-0.32-0.023-0.742-0.023l-0.758,0.023c-0.75,0-0.941,0.094-0.941,0.234
		l0.191,26.766c0,0,0.152,0,0.574,0h0.926c0.75,0,0.773-0.109,0.773-0.25L326.667,166.672z"/>
	
		<linearGradient id="SVGID_39_" gradientUnits="userSpaceOnUse" x1="19.3184" y1="402.2573" x2="19.3184" y2="398.9702" gradientTransform="matrix(0 -0.75 0.75 0 34.2518 167.6486)">
		<stop  offset="0" style="stop-color:#9DA6B2"/>
		<stop  offset="0.09" style="stop-color:#A0A9B4"/>
		<stop  offset="0.36" style="stop-color:#C5D0DE"/>
		<stop  offset="0.56" style="stop-color:#B1BBC8"/>
		<stop  offset="0.83" style="stop-color:#8E96A1"/>
		<stop  offset="1" style="stop-color:#656B72"/>
	</linearGradient>
	<path fill="url(#SVGID_39_)" d="M335.921,166.672v-27c0,0-0.32-0.023-0.746-0.023l-0.754,0.023c-0.75,0-0.941,0.094-0.941,0.234
		l0.191,26.766c0,0,0.152,0,0.574,0h0.926c0.75,0,0.773-0.109,0.773-0.25L335.921,166.672z"/>
</g>
</svg>
