<?xml version="1.0" encoding="utf-8"?>
<!-- Generator: Adobe Illustrator 16.0.0, SVG Export Plug-In . SVG Version: 6.00 Build 0)  -->
<!DOCTYPE svg PUBLIC "-//W3C//DTD SVG 1.1//EN" "http://www.w3.org/Graphics/SVG/1.1/DTD/svg11.dtd">
<svg preserveAspectRatio="none"   version="1.1" id="图层_1" xmlns="http://www.w3.org/2000/svg" xmlns:xlink="http://www.w3.org/1999/xlink" x="0px" y="0px"
	 width="566.042px" height="144.359px" viewBox="0.414 211.285 566.042 144.359"
	 enable-background="new 0.414 211.285 566.042 144.359" xml:space="preserve">
<g id="surface89">
	
		<linearGradient id="SVGID_1_" gradientUnits="userSpaceOnUse" x1="188.2051" y1="201.3057" x2="188.2051" y2="158.3057" gradientTransform="matrix(-0.75 0 0 -0.75 228.9415 383.3185)">
		<stop  offset="0" style="stop-color:#9C8561"/>
		<stop  offset="0.15" style="stop-color:#D6BA90"/>
		<stop  offset="0.25" style="stop-color:#E8DAC8"/>
		<stop  offset="0.52" style="stop-color:#B89D74"/>
		<stop  offset="0.69" style="stop-color:#A48B66"/>
		<stop  offset="0.8" style="stop-color:#9B8360"/>
		<stop  offset="0.92" style="stop-color:#927C5A"/>
		<stop  offset="1" style="stop-color:#A88F69"/>
	</linearGradient>
	<path fill="url(#SVGID_1_)" d="M104.664,232.34h-33.75v32.25h33.75V232.34z"/>
	
		<linearGradient id="SVGID_2_" gradientUnits="userSpaceOnUse" x1="175.7021" y1="201.3027" x2="175.7021" y2="121.1104" gradientTransform="matrix(-0.75 0 0 -0.75 195.631 369.2853)">
		<stop  offset="0" style="stop-color:#9C8561"/>
		<stop  offset="0.15" style="stop-color:#D6BA90"/>
		<stop  offset="0.25" style="stop-color:#E8DAC8"/>
		<stop  offset="0.52" style="stop-color:#B89D74"/>
		<stop  offset="0.69" style="stop-color:#A48B66"/>
		<stop  offset="0.8" style="stop-color:#9B8360"/>
		<stop  offset="0.92" style="stop-color:#927C5A"/>
		<stop  offset="1" style="stop-color:#A88F69"/>
	</linearGradient>
	<path fill="url(#SVGID_2_)" d="M64.605,218.309h-1.5c-3.75,0-6.438,2.949-6.438,6.641l-0.313,46.609
		c0,3.75,3.301,6.895,6.988,6.895l1.262-0.145c3.75,0,6.75-2.891,6.75-6.582v-46.668c0-3.75-2.992-6.75-6.676-6.75H64.605z"/>
	
		<linearGradient id="SVGID_3_" gradientUnits="userSpaceOnUse" x1="226.2051" y1="201.3066" x2="226.2051" y2="180.3066" gradientTransform="matrix(-0.75 0 0 -0.75 228.9415 465.5538)">
		<stop  offset="0" style="stop-color:#9C8561"/>
		<stop  offset="0.15" style="stop-color:#D6BA90"/>
		<stop  offset="0.25" style="stop-color:#E8DAC8"/>
		<stop  offset="0.52" style="stop-color:#B89D74"/>
		<stop  offset="0.69" style="stop-color:#A48B66"/>
		<stop  offset="0.8" style="stop-color:#9B8360"/>
		<stop  offset="0.92" style="stop-color:#927C5A"/>
		<stop  offset="1" style="stop-color:#A88F69"/>
	</linearGradient>
	<path fill="url(#SVGID_3_)" d="M104.664,314.574h-90.75v15.75h90.75V314.574z"/>
	
		<linearGradient id="SVGID_4_" gradientUnits="userSpaceOnUse" x1="175.6699" y1="201.3047" x2="175.6699" y2="132.0391" gradientTransform="matrix(-0.75 0 0 -0.75 139.6896 447.5988)">
		<stop  offset="0" style="stop-color:#9C8561"/>
		<stop  offset="0.15" style="stop-color:#D6BA90"/>
		<stop  offset="0.25" style="stop-color:#E8DAC8"/>
		<stop  offset="0.52" style="stop-color:#B89D74"/>
		<stop  offset="0.69" style="stop-color:#A48B66"/>
		<stop  offset="0.8" style="stop-color:#9B8360"/>
		<stop  offset="0.92" style="stop-color:#927C5A"/>
		<stop  offset="1" style="stop-color:#A88F69"/>
	</linearGradient>
	<path fill="url(#SVGID_4_)" d="M8.664,296.621h-1.5c-3.75,0-6.418,2.973-6.418,6.664l-0.332,38.336c0,3.75,3.32,6.949,7.008,6.949
		l1.242-0.199c3.75,0,6.797-2.816,6.797-6.508l-0.047-38.492c0-3.75-2.941-6.75-6.629-6.75H8.664z"/>
	
		<linearGradient id="SVGID_5_" gradientUnits="userSpaceOnUse" x1="222.2275" y1="201.3047" x2="222.2275" y2="158.3037" gradientTransform="matrix(0.75 0 0 -0.75 313.4852 453.4611)">
		<stop  offset="0" style="stop-color:#9C8561"/>
		<stop  offset="0.15" style="stop-color:#D6BA90"/>
		<stop  offset="0.25" style="stop-color:#E8DAC8"/>
		<stop  offset="0.52" style="stop-color:#B89D74"/>
		<stop  offset="0.69" style="stop-color:#A48B66"/>
		<stop  offset="0.8" style="stop-color:#9B8360"/>
		<stop  offset="0.92" style="stop-color:#927C5A"/>
		<stop  offset="1" style="stop-color:#A88F69"/>
	</linearGradient>
	<path fill="url(#SVGID_5_)" d="M465.156,302.484h30v32.25h-30V302.484z"/>
	
		<linearGradient id="SVGID_6_" gradientUnits="userSpaceOnUse" x1="212.2236" y1="201.3066" x2="212.2236" y2="121.1143" gradientTransform="matrix(0.75 0 0 -0.75 343.3593 439.4279)">
		<stop  offset="0" style="stop-color:#9C8561"/>
		<stop  offset="0.15" style="stop-color:#D6BA90"/>
		<stop  offset="0.25" style="stop-color:#E8DAC8"/>
		<stop  offset="0.52" style="stop-color:#B89D74"/>
		<stop  offset="0.69" style="stop-color:#A48B66"/>
		<stop  offset="0.8" style="stop-color:#9B8360"/>
		<stop  offset="0.92" style="stop-color:#927C5A"/>
		<stop  offset="1" style="stop-color:#A88F69"/>
	</linearGradient>
	<path fill="url(#SVGID_6_)" d="M501.777,288.449h1.5c3.75,0,6.438,2.953,6.438,6.641l0.313,46.609c0,3.75-3.301,6.895-6.988,6.895
		l-1.262-0.145c-3.75,0-6.75-2.887-6.75-6.578v-46.672c0-3.75,2.988-6.75,6.676-6.75H501.777z"/>
	
		<linearGradient id="SVGID_7_" gradientUnits="userSpaceOnUse" x1="260.2227" y1="201.3027" x2="260.2227" y2="180.3018" gradientTransform="matrix(0.75 0 0 -0.75 314.1522 387.2657)">
		<stop  offset="0" style="stop-color:#9C8561"/>
		<stop  offset="0.15" style="stop-color:#D6BA90"/>
		<stop  offset="0.25" style="stop-color:#E8DAC8"/>
		<stop  offset="0.52" style="stop-color:#B89D74"/>
		<stop  offset="0.69" style="stop-color:#A48B66"/>
		<stop  offset="0.8" style="stop-color:#9B8360"/>
		<stop  offset="0.92" style="stop-color:#927C5A"/>
		<stop  offset="1" style="stop-color:#A88F69"/>
	</linearGradient>
	<path fill="url(#SVGID_7_)" d="M465.82,236.289h87v15.75h-87V236.289z"/>
	
		<linearGradient id="SVGID_8_" gradientUnits="userSpaceOnUse" x1="212.1909" y1="201.3057" x2="212.1909" y2="132.04" gradientTransform="matrix(0.75 0 0 -0.75 399.7899 369.3107)">
		<stop  offset="0" style="stop-color:#9C8561"/>
		<stop  offset="0.15" style="stop-color:#D6BA90"/>
		<stop  offset="0.25" style="stop-color:#E8DAC8"/>
		<stop  offset="0.52" style="stop-color:#B89D74"/>
		<stop  offset="0.69" style="stop-color:#A48B66"/>
		<stop  offset="0.8" style="stop-color:#9B8360"/>
		<stop  offset="0.92" style="stop-color:#927C5A"/>
		<stop  offset="1" style="stop-color:#A88F69"/>
	</linearGradient>
	<path fill="url(#SVGID_8_)" d="M558.207,218.332h1.5c3.75,0,6.418,2.973,6.418,6.664l0.332,38.336c0,3.75-3.32,6.949-7.008,6.949
		l-1.242-0.199c-3.75,0-6.797-2.816-6.797-6.508l0.047-38.492c0-3.75,2.941-6.75,6.629-6.75H558.207z"/>
	
		<linearGradient id="SVGID_9_" gradientUnits="userSpaceOnUse" x1="445.7261" y1="201.3037" x2="445.7261" y2="8.8252" gradientTransform="matrix(0.75 0 0 -0.75 -49.1276 362.2628)">
		<stop  offset="0" style="stop-color:#9C8561"/>
		<stop  offset="0.15" style="stop-color:#D6BA90"/>
		<stop  offset="0.25" style="stop-color:#E8DAC8"/>
		<stop  offset="0.52" style="stop-color:#B89D74"/>
		<stop  offset="0.69" style="stop-color:#A48B66"/>
		<stop  offset="0.8" style="stop-color:#9B8360"/>
		<stop  offset="0.92" style="stop-color:#927C5A"/>
		<stop  offset="1" style="stop-color:#A88F69"/>
	</linearGradient>
	<path fill="url(#SVGID_9_)" d="M109.293,211.285h351.75c3.75,0,6.684,2.961,6.684,6.652l0.066,131.347c0,3-3.078,6.359-6.766,6.359
		l-351.734-0.359c-3.75,0-6.75-2.676-6.75-6.367V218.035c0-3.75,2.988-6.75,6.676-6.75H109.293z"/>
</g>
</svg>
