<?xml version="1.0" encoding="utf-8"?>
<!-- Generator: Adobe Illustrator 16.0.0, SVG Export Plug-In . SVG Version: 6.00 Build 0)  -->
<!DOCTYPE svg PUBLIC "-//W3C//DTD SVG 1.1//EN" "http://www.w3.org/Graphics/SVG/1.1/DTD/svg11.dtd">
<svg preserveAspectRatio="none"   version="1.1" id="图层_1" xmlns="http://www.w3.org/2000/svg" xmlns:xlink="http://www.w3.org/1999/xlink" x="0px" y="0px"
	 width="565.406px" height="204.738px" viewBox="0.762 265.191 565.406 204.738"
	 enable-background="new 0.762 265.191 565.406 204.738" xml:space="preserve">
<g id="surface84">
	
		<linearGradient id="SVGID_1_" gradientUnits="userSpaceOnUse" x1="208.2266" y1="184.3052" x2="202.2266" y2="184.3052" gradientTransform="matrix(0.75 0 0 -0.75 23.2592 428.0294)">
		<stop  offset="0" style="stop-color:#929597"/>
		<stop  offset="0.15" style="stop-color:#DFE1E4"/>
		<stop  offset="0.18" style="stop-color:#F0F1F2"/>
		<stop  offset="0.52" style="stop-color:#ADB0B3"/>
		<stop  offset="0.69" style="stop-color:#989B9D"/>
		<stop  offset="0.8" style="stop-color:#87898B"/>
		<stop  offset="0.95" style="stop-color:#7E8082"/>
		<stop  offset="1" style="stop-color:#999B9E"/>
	</linearGradient>
	<path fill="url(#SVGID_1_)" d="M174.93,302.55h4.5v-25.5h-4.5V302.55z"/>
	
		<linearGradient id="SVGID_2_" gradientUnits="userSpaceOnUse" x1="219.2261" y1="195.3057" x2="202.2261" y2="195.3057" gradientTransform="matrix(0.75 0 0 -0.75 19.0995 421.8224)">
		<stop  offset="0" style="stop-color:#202020"/>
		<stop  offset="0.15" style="stop-color:#8D8D8D"/>
		<stop  offset="0.52" style="stop-color:#282828"/>
		<stop  offset="0.69" style="stop-color:#222222"/>
		<stop  offset="0.8" style="stop-color:#1D1D1D"/>
		<stop  offset="0.95" style="stop-color:#1A1A1A"/>
		<stop  offset="1" style="stop-color:#222222"/>
	</linearGradient>
	<path fill="url(#SVGID_2_)" d="M170.77,279.844h12.75v-9h-12.75V279.844z"/>
	
		<linearGradient id="SVGID_3_" gradientUnits="userSpaceOnUse" x1="231.2266" y1="196.8047" x2="202.2266" y2="196.8047" gradientTransform="matrix(0.75 0 0 -0.75 14.5956 416.1691)">
		<stop  offset="0" style="stop-color:#202020"/>
		<stop  offset="0.15" style="stop-color:#8D8D8D"/>
		<stop  offset="0.52" style="stop-color:#282828"/>
		<stop  offset="0.69" style="stop-color:#222222"/>
		<stop  offset="0.8" style="stop-color:#1D1D1D"/>
		<stop  offset="0.95" style="stop-color:#1A1A1A"/>
		<stop  offset="1" style="stop-color:#222222"/>
	</linearGradient>
	<path fill="url(#SVGID_3_)" d="M166.266,271.941h21.75v-6.75h-21.75V271.941z"/>
	
		<linearGradient id="SVGID_4_" gradientUnits="userSpaceOnUse" x1="208.2275" y1="193.8018" x2="202.2275" y2="193.8018" gradientTransform="matrix(0.75 0 0 -0.75 70.6185 442.6046)">
		<stop  offset="0" style="stop-color:#929597"/>
		<stop  offset="0.15" style="stop-color:#DFE1E4"/>
		<stop  offset="0.18" style="stop-color:#F0F1F2"/>
		<stop  offset="0.52" style="stop-color:#ADB0B3"/>
		<stop  offset="0.69" style="stop-color:#989B9D"/>
		<stop  offset="0.8" style="stop-color:#87898B"/>
		<stop  offset="0.95" style="stop-color:#7E8082"/>
		<stop  offset="1" style="stop-color:#999B9E"/>
	</linearGradient>
	<path fill="url(#SVGID_4_)" d="M222.289,302.878h4.5v-11.25h-4.5V302.878z"/>
	
		<linearGradient id="SVGID_5_" gradientUnits="userSpaceOnUse" x1="219.2275" y1="195.3037" x2="202.2275" y2="195.3037" gradientTransform="matrix(0.75 0 0 -0.75 66.4584 436.3947)">
		<stop  offset="0" style="stop-color:#202020"/>
		<stop  offset="0.15" style="stop-color:#8D8D8D"/>
		<stop  offset="0.52" style="stop-color:#282828"/>
		<stop  offset="0.69" style="stop-color:#222222"/>
		<stop  offset="0.8" style="stop-color:#1D1D1D"/>
		<stop  offset="0.95" style="stop-color:#1A1A1A"/>
		<stop  offset="1" style="stop-color:#222222"/>
	</linearGradient>
	<path fill="url(#SVGID_5_)" d="M218.129,294.417h12.75v-9h-12.75V294.417z"/>
	
		<linearGradient id="SVGID_6_" gradientUnits="userSpaceOnUse" x1="231.2266" y1="196.8066" x2="202.2266" y2="196.8066" gradientTransform="matrix(0.75 0 0 -0.75 61.9545 430.7443)">
		<stop  offset="0" style="stop-color:#202020"/>
		<stop  offset="0.15" style="stop-color:#8D8D8D"/>
		<stop  offset="0.52" style="stop-color:#282828"/>
		<stop  offset="0.69" style="stop-color:#222222"/>
		<stop  offset="0.8" style="stop-color:#1D1D1D"/>
		<stop  offset="0.95" style="stop-color:#1A1A1A"/>
		<stop  offset="1" style="stop-color:#222222"/>
	</linearGradient>
	<path fill="url(#SVGID_6_)" d="M213.625,286.515h21.75v-6.75h-21.75V286.515z"/>
	
		<linearGradient id="SVGID_7_" gradientUnits="userSpaceOnUse" x1="470.7231" y1="201.3027" x2="470.7231" y2="96.3018" gradientTransform="matrix(0.75 0 0 -0.75 -48.3986 453.7452)">
		<stop  offset="0" style="stop-color:#3A6890"/>
		<stop  offset="0.09" style="stop-color:#8FB1D7"/>
		<stop  offset="0.16" style="stop-color:#4E89BC"/>
		<stop  offset="0.64" style="stop-color:#4C87B9"/>
		<stop  offset="0.92" style="stop-color:#4A83B4"/>
		<stop  offset="1" style="stop-color:#356085"/>
	</linearGradient>
	<path fill="url(#SVGID_7_)" d="M103.27,302.769h402.75v78.75H103.27V302.769z"/>
	
		<linearGradient id="SVGID_8_" gradientUnits="userSpaceOnUse" x1="470.7231" y1="201.3066" x2="470.7231" y2="160.3057" gradientTransform="matrix(0.75 0 0 -0.75 -48.3986 453.7443)">
		<stop  offset="0" style="stop-color:#3A6890"/>
		<stop  offset="0.09" style="stop-color:#8FB1D7"/>
		<stop  offset="0.16" style="stop-color:#4E89BC"/>
		<stop  offset="0.64" style="stop-color:#4C87B9"/>
		<stop  offset="0.92" style="stop-color:#4A83B4"/>
		<stop  offset="1" style="stop-color:#356085"/>
	</linearGradient>
	<path fill="url(#SVGID_8_)" d="M103.27,302.765h402.75v30.75H103.27V302.765z"/>
	
		<linearGradient id="SVGID_9_" gradientUnits="userSpaceOnUse" x1="461.7261" y1="201.3057" x2="461.7261" y2="185.3057" gradientTransform="matrix(0.75 0 0 -0.75 -74.3341 586.4865)">
		<stop  offset="0" style="stop-color:#3A6890"/>
		<stop  offset="0.09" style="stop-color:#8FB1D7"/>
		<stop  offset="0.16" style="stop-color:#4E89BC"/>
		<stop  offset="0.64" style="stop-color:#4C87B9"/>
		<stop  offset="0.92" style="stop-color:#4A83B4"/>
		<stop  offset="1" style="stop-color:#356085"/>
	</linearGradient>
	<path fill="url(#SVGID_9_)" d="M466.585,435.507l-18,12H95.336l-18-12H466.585z"/>
	
		<linearGradient id="SVGID_10_" gradientUnits="userSpaceOnUse" x1="222.2231" y1="178.8057" x2="202.2231" y2="178.8057" gradientTransform="matrix(0.75 0 0 -0.75 -89.5817 587.1573)">
		<stop  offset="0" style="stop-color:#3A6890"/>
		<stop  offset="0.09" style="stop-color:#8FB1D7"/>
		<stop  offset="0.16" style="stop-color:#4E89BC"/>
		<stop  offset="0.64" style="stop-color:#4C87B9"/>
		<stop  offset="0.92" style="stop-color:#4A83B4"/>
		<stop  offset="1" style="stop-color:#356085"/>
	</linearGradient>
	<path fill="url(#SVGID_10_)" d="M62.086,436.179h15v33.75h-15V436.179z"/>
	
		<linearGradient id="SVGID_11_" gradientUnits="userSpaceOnUse" x1="222.2256" y1="178.8057" x2="202.2256" y2="178.8057" gradientTransform="matrix(0.75 0 0 -0.75 315.3651 587.1573)">
		<stop  offset="0" style="stop-color:#3A6890"/>
		<stop  offset="0.09" style="stop-color:#8FB1D7"/>
		<stop  offset="0.16" style="stop-color:#4E89BC"/>
		<stop  offset="0.64" style="stop-color:#4C87B9"/>
		<stop  offset="0.92" style="stop-color:#4A83B4"/>
		<stop  offset="1" style="stop-color:#356085"/>
	</linearGradient>
	<path fill="url(#SVGID_11_)" d="M467.035,436.179h15v33.75h-15V436.179z"/>
	
		<linearGradient id="SVGID_12_" gradientUnits="userSpaceOnUse" x1="248.7217" y1="201.3057" x2="248.7217" y2="190.3047" gradientTransform="matrix(0.75 0 0 -0.75 272.6688 437.6505)">
		<stop  offset="0" style="stop-color:#96989A"/>
		<stop  offset="0.09" style="stop-color:#DDE0E2"/>
		<stop  offset="0.16" style="stop-color:#C3C6C9"/>
		<stop  offset="0.64" style="stop-color:#C0C3C5"/>
		<stop  offset="0.92" style="stop-color:#BCBEC1"/>
		<stop  offset="1" style="stop-color:#8B8D8F"/>
	</linearGradient>
	<path fill="url(#SVGID_12_)" d="M424.335,286.671h69.75v8.25h-69.75V286.671z"/>
	
		<linearGradient id="SVGID_13_" gradientUnits="userSpaceOnUse" x1="219.2515" y1="194.8159" x2="202.2261" y2="194.8159" gradientTransform="matrix(0.75 0 0 -0.75 200.1776 436.0099)">
		<stop  offset="0" style="stop-color:#202020"/>
		<stop  offset="0.15" style="stop-color:#8D8D8D"/>
		<stop  offset="0.52" style="stop-color:#282828"/>
		<stop  offset="0.69" style="stop-color:#222222"/>
		<stop  offset="0.8" style="stop-color:#1D1D1D"/>
		<stop  offset="0.95" style="stop-color:#1A1A1A"/>
		<stop  offset="1" style="stop-color:#222222"/>
	</linearGradient>
	<path fill="url(#SVGID_13_)" d="M354.097,285.031h8.25c1.5,0,2.27,0.844,2.27,1.906l-0.02,7.844h-12.75v-7.5
		c0-1.5,0.852-2.266,1.91-2.266L354.097,285.031z"/>
	
		<linearGradient id="SVGID_14_" gradientUnits="userSpaceOnUse" x1="219.2529" y1="194.8159" x2="202.2217" y2="194.8159" gradientTransform="matrix(0.75 0 0 -0.75 221.7157 436.0099)">
		<stop  offset="0" style="stop-color:#202020"/>
		<stop  offset="0.15" style="stop-color:#8D8D8D"/>
		<stop  offset="0.52" style="stop-color:#282828"/>
		<stop  offset="0.69" style="stop-color:#222222"/>
		<stop  offset="0.8" style="stop-color:#1D1D1D"/>
		<stop  offset="0.95" style="stop-color:#1A1A1A"/>
		<stop  offset="1" style="stop-color:#222222"/>
	</linearGradient>
	<path fill="url(#SVGID_14_)" d="M375.632,285.031h8.25c1.5,0,2.273,0.844,2.273,1.906l-0.023,7.844h-12.75v-7.5
		c0-1.5,0.855-2.266,1.914-2.266L375.632,285.031z"/>
	
		<linearGradient id="SVGID_15_" gradientUnits="userSpaceOnUse" x1="219.252" y1="194.8159" x2="202.2256" y2="194.8159" gradientTransform="matrix(0.75 0 0 -0.75 243.2518 436.0099)">
		<stop  offset="0" style="stop-color:#202020"/>
		<stop  offset="0.15" style="stop-color:#8D8D8D"/>
		<stop  offset="0.52" style="stop-color:#282828"/>
		<stop  offset="0.69" style="stop-color:#222222"/>
		<stop  offset="0.8" style="stop-color:#1D1D1D"/>
		<stop  offset="0.95" style="stop-color:#1A1A1A"/>
		<stop  offset="1" style="stop-color:#222222"/>
	</linearGradient>
	<path fill="url(#SVGID_15_)" d="M397.171,285.031h8.25c1.5,0,2.27,0.844,2.27,1.906l-0.02,7.844h-12.75v-7.5
		c0-1.5,0.852-2.266,1.91-2.266L397.171,285.031z"/>
	
		<linearGradient id="SVGID_16_" gradientUnits="userSpaceOnUse" x1="219.2529" y1="194.8169" x2="202.2217" y2="194.8169" gradientTransform="matrix(0.75 0 0 -0.75 318.2743 425.1193)">
		<stop  offset="0" style="stop-color:#202020"/>
		<stop  offset="0.15" style="stop-color:#8D8D8D"/>
		<stop  offset="0.52" style="stop-color:#282828"/>
		<stop  offset="0.69" style="stop-color:#222222"/>
		<stop  offset="0.8" style="stop-color:#1D1D1D"/>
		<stop  offset="0.95" style="stop-color:#1A1A1A"/>
		<stop  offset="1" style="stop-color:#222222"/>
	</linearGradient>
	<path fill="url(#SVGID_16_)" d="M472.191,274.141h8.25c1.5,0,2.273,0.844,2.273,1.906l-0.023,7.844h-12.75v-7.5
		c0-1.5,0.855-2.266,1.914-2.266L472.191,274.141z"/>
	
		<linearGradient id="SVGID_17_" gradientUnits="userSpaceOnUse" x1="229.0767" y1="199.6787" x2="202.2227" y2="199.6787" gradientTransform="matrix(0.75 0 0 -0.75 314.5975 435.1232)">
		<stop  offset="0" style="stop-color:#202020"/>
		<stop  offset="0.15" style="stop-color:#8D8D8D"/>
		<stop  offset="0.52" style="stop-color:#282828"/>
		<stop  offset="0.69" style="stop-color:#222222"/>
		<stop  offset="0.8" style="stop-color:#1D1D1D"/>
		<stop  offset="0.95" style="stop-color:#1A1A1A"/>
		<stop  offset="1" style="stop-color:#222222"/>
	</linearGradient>
	<path fill="url(#SVGID_17_)" d="M467.765,284.144h17.25c0.75,0,1.375,0.547,1.375,1.223c0.125,1.027-0.543,1.219-1.215,1.219
		l-17.41-0.191c-0.75,0-1.5-0.355-1.5-1.027c0-0.473,0.531-1.223,1.203-1.223H467.765z"/>
	
		<linearGradient id="SVGID_18_" gradientUnits="userSpaceOnUse" x1="564.2241" y1="201.3037" x2="564.2241" y2="128.3027" gradientTransform="matrix(0.75 0 0 -0.75 -150.9069 532.1837)">
		<stop  offset="0" style="stop-color:#3A6890"/>
		<stop  offset="0.09" style="stop-color:#8FB1D7"/>
		<stop  offset="0.16" style="stop-color:#4E89BC"/>
		<stop  offset="0.64" style="stop-color:#4C87B9"/>
		<stop  offset="0.92" style="stop-color:#4A83B4"/>
		<stop  offset="1" style="stop-color:#356085"/>
	</linearGradient>
	<path fill="url(#SVGID_18_)" d="M0.762,381.207h543v33.75l-57.75,21H57.762l-57-21V381.207z"/>
	
		<linearGradient id="SVGID_19_" gradientUnits="userSpaceOnUse" x1="564.2231" y1="201.3037" x2="564.2231" y2="191.3027" gradientTransform="matrix(0.75 0 0 -0.75 -150.9064 532.1837)">
		<stop  offset="0.16" style="stop-color:#4E89BC"/>
		<stop  offset="0.64" style="stop-color:#4C87B9"/>
		<stop  offset="0.92" style="stop-color:#4A83B4"/>
		<stop  offset="1" style="stop-color:#356085"/>
	</linearGradient>
	<path fill="url(#SVGID_19_)" d="M0.762,381.207h543v7.5h-543V381.207z"/>
	
		<linearGradient id="SVGID_20_" gradientUnits="userSpaceOnUse" x1="268.2227" y1="201.3066" x2="268.2227" y2="183.3057" gradientTransform="matrix(0.75 0 0 -0.75 286.8329 532.1779)">
		<stop  offset="0" style="stop-color:#96989A"/>
		<stop  offset="0.09" style="stop-color:#DDE0E2"/>
		<stop  offset="0.16" style="stop-color:#C3C6C9"/>
		<stop  offset="0.64" style="stop-color:#C0C3C5"/>
		<stop  offset="0.92" style="stop-color:#BCBEC1"/>
		<stop  offset="1" style="stop-color:#8B8D8F"/>
	</linearGradient>
	<path fill="url(#SVGID_20_)" d="M438.5,381.199h99v13.5h-99V381.199z"/>
	<path fill="#3E3938" d="M488.82,400.695h43.5c1.5,0,2.477,1.184,2.477,2.641l-0.227,6.359c0,1.5-0.953,2.613-2.41,2.613
		l-43.34-0.363c-0.75,0-2.25-0.816-2.25-2.273v-5.977c0-1.5,1.137-3,2.59-3H488.82z"/>
	
		<linearGradient id="SVGID_21_" gradientUnits="userSpaceOnUse" x1="366.6245" y1="364.2231" x2="372.6245" y2="364.2231" gradientTransform="matrix(0 0.75 0.75 0 252.6522 129.3275)">
		<stop  offset="0" style="stop-color:#929597"/>
		<stop  offset="0.15" style="stop-color:#DFE1E4"/>
		<stop  offset="0.18" style="stop-color:#F0F1F2"/>
		<stop  offset="0.52" style="stop-color:#ADB0B3"/>
		<stop  offset="0.69" style="stop-color:#989B9D"/>
		<stop  offset="0.8" style="stop-color:#87898B"/>
		<stop  offset="0.95" style="stop-color:#7E8082"/>
		<stop  offset="1" style="stop-color:#999B9E"/>
	</linearGradient>
	<path fill="url(#SVGID_21_)" d="M497.32,404.296v4.5h57v-4.5H497.32z"/>
	
		<linearGradient id="SVGID_22_" gradientUnits="userSpaceOnUse" x1="366.6245" y1="396.228" x2="383.6245" y2="396.228" gradientTransform="matrix(0 0.75 0.75 0 258.8563 125.1644)">
		<stop  offset="0" style="stop-color:#202020"/>
		<stop  offset="0.15" style="stop-color:#8D8D8D"/>
		<stop  offset="0.52" style="stop-color:#282828"/>
		<stop  offset="0.69" style="stop-color:#222222"/>
		<stop  offset="0.8" style="stop-color:#1D1D1D"/>
		<stop  offset="0.95" style="stop-color:#1A1A1A"/>
		<stop  offset="1" style="stop-color:#222222"/>
	</linearGradient>
	<path fill="url(#SVGID_22_)" d="M551.527,400.132v12.75h9v-12.75H551.527z"/>
	
		<linearGradient id="SVGID_23_" gradientUnits="userSpaceOnUse" x1="366.6245" y1="398.2261" x2="395.6245" y2="398.2261" gradientTransform="matrix(0 0.75 0.75 0 264.4979 120.6527)">
		<stop  offset="0" style="stop-color:#202020"/>
		<stop  offset="0.15" style="stop-color:#8D8D8D"/>
		<stop  offset="0.52" style="stop-color:#282828"/>
		<stop  offset="0.69" style="stop-color:#222222"/>
		<stop  offset="0.8" style="stop-color:#1D1D1D"/>
		<stop  offset="0.95" style="stop-color:#1A1A1A"/>
		<stop  offset="1" style="stop-color:#222222"/>
	</linearGradient>
	<path fill="url(#SVGID_23_)" d="M560.167,395.621v21.75h6v-21.75H560.167z"/>
	
		<linearGradient id="SVGID_24_" gradientUnits="userSpaceOnUse" x1="215.9917" y1="190.9106" x2="201.1458" y2="199.4819" gradientTransform="matrix(0.75 0 0 -0.75 361.6337 552.965)">
		<stop  offset="0" style="stop-color:#AAACAD"/>
		<stop  offset="0.15" style="stop-color:#E8E9EB"/>
		<stop  offset="0.25" style="stop-color:#F2F3F4"/>
		<stop  offset="0.52" style="stop-color:#C9CBCD"/>
		<stop  offset="0.69" style="stop-color:#B3B5B6"/>
		<stop  offset="0.8" style="stop-color:#A9AAAC"/>
		<stop  offset="0.92" style="stop-color:#9FA1A2"/>
		<stop  offset="1" style="stop-color:#B7B9BA"/>
	</linearGradient>
	<path fill="url(#SVGID_24_)" stroke="#5C5E61" stroke-linejoin="bevel" stroke-miterlimit="10" d="M513.304,406.488
		c0-2.25,2.098-4.539,4.691-4.539c2.809,0.039,4.691,2.105,4.691,4.703c0.367,2.836-2.102,4.699-4.691,4.699
		c-2.441-0.363-4.691-2.105-4.691-4.699V406.488z"/>
	
		<linearGradient id="SVGID_25_" gradientUnits="userSpaceOnUse" x1="236.0239" y1="186.3604" x2="202.2236" y2="186.3604" gradientTransform="matrix(0.75 0 0 -0.75 -61.1837 570.8644)">
		<stop  offset="0" style="stop-color:#161616"/>
		<stop  offset="0.15" style="stop-color:#464646"/>
		<stop  offset="0.25" style="stop-color:#474747"/>
		<stop  offset="0.63" style="stop-color:#000000"/>
	</linearGradient>
	<path fill="url(#SVGID_25_)" d="M109.234,419.886c1.5,0.75,0.891,3.367,2.426,6.055c1.324,2.945,4.168,3.605,4.168,5.043
		c0.156,1.652-2.609,2.422-4.063,4.855c-1.781,2.797-0.848,5.285-2.277,6.117c-1.754,1.18-3.098-1.035-6.367-1.016
		c-3.637-0.055-5.063,1.672-6.301,1.016c-1.086-0.32-0.66-3.105-2.391-6.035c-1.695-2.535-3.945-3.305-3.945-4.938
		c0-1.348,2.313-2.309,4.043-5.188c1.957-2.91,1.371-5.332,2.293-5.785c1.164-0.125,2.84,1.012,6.395,1.012
		c3.77,0.363,5.305-1.613,6.273-1.012L109.234,419.886z"/>
	<path fill="#FFFFFF" fill-opacity="0.2" d="M109.176,420.472c0.75,0.75,0.566,3.188,2.02,5.734c1.73,2.516,3.941,3.418,3.941,4.777
		c0.039,1.488-2.465,2.293-3.84,4.602c-1.371,2.137-0.801,5.004-2.152,5.793c-1.469,0.844-2.93-0.977-6.02-0.961
		c-2.949,0.305-4.789,1.582-5.961,0.961c-1.488-0.656-0.625-2.941-2.258-5.715c-1.48-2.441-3.73-3.129-3.73-4.68
		c0-1.512,2.188-2.184,3.82-4.914c1.43-2.598,1.297-5.051,2.168-5.48c0.762-0.117,2.688,0.961,6.047,0.961
		c3.715-0.328,5.016-1.531,5.934-0.961L109.176,420.472z"/>
	<path fill="#242020" stroke="#3E3938" stroke-linejoin="bevel" stroke-miterlimit="10" d="M95.375,430.722
		c0-3.75,3.484-7.5,7.781-7.5c4.219,0,7.781,3.488,7.781,7.797c0.188,4.203-3.484,7.793-7.781,7.793
		c-4.031,0.16-7.781-3.488-7.781-7.793V430.722z"/>
	<path fill="#FFFFFF" fill-opacity="0.1725" d="M103.16,431.777c0-3.75-3.723-7.5-0.004-7.5c3.754,0,6.73,3.016,6.73,6.75
		c0.023,3.75-3.012,6.73-6.73,6.73c-3.746,0.02,0.371-2.516,0.371-6.238L103.16,431.777z"/>
	
		<linearGradient id="SVGID_26_" gradientUnits="userSpaceOnUse" x1="236.0225" y1="186.3604" x2="202.2275" y2="186.3604" gradientTransform="matrix(0.75 0 0 -0.75 271.9774 570.8644)">
		<stop  offset="0" style="stop-color:#161616"/>
		<stop  offset="0.15" style="stop-color:#464646"/>
		<stop  offset="0.25" style="stop-color:#474747"/>
		<stop  offset="0.63" style="stop-color:#000000"/>
	</linearGradient>
	<path fill="url(#SVGID_26_)" d="M442.398,419.886c1.5,0.75,0.887,3.367,2.422,6.055c1.328,2.945,4.168,3.605,4.168,5.043
		c0.16,1.652-2.609,2.422-4.059,4.855c-1.781,2.797-0.852,5.285-2.281,6.117c-1.75,1.18-3.094-1.035-6.363-1.016
		c-3.637-0.055-5.066,1.672-6.305,1.016c-1.082-0.32-0.66-3.105-2.391-6.035c-1.691-2.535-3.941-3.305-3.941-4.938
		c0-1.348,2.313-2.309,4.039-5.188c1.961-2.91,1.371-5.332,2.293-5.785c1.168-0.125,2.844,1.012,6.395,1.012
		c3.773,0.363,5.305-1.613,6.273-1.012L442.398,419.886z"/>
	<path fill="#FFFFFF" fill-opacity="0.2" d="M442.335,420.472c0.75,0.75,0.57,3.188,2.02,5.734c1.73,2.516,3.941,3.418,3.941,4.777
		c0.039,1.488-2.465,2.293-3.836,4.602c-1.375,2.137-0.805,5.004-2.156,5.793c-1.469,0.844-2.926-0.977-6.02-0.961
		c-2.949,0.305-4.789,1.582-5.957,0.961c-1.492-0.656-0.629-2.941-2.262-5.715c-1.48-2.441-3.73-3.129-3.73-4.68
		c0-1.512,2.188-2.184,3.824-4.914c1.426-2.598,1.293-5.051,2.168-5.48c0.758-0.117,2.684,0.961,6.043,0.961
		c3.715-0.328,5.016-1.531,5.934-0.961L442.335,420.472z"/>
	<path fill="#242020" stroke="#3E3938" stroke-linejoin="bevel" stroke-miterlimit="10" d="M428.535,430.722
		c0-3.75,3.484-7.5,7.781-7.5c4.219,0,7.781,3.488,7.781,7.797c0.188,4.203-3.484,7.793-7.781,7.793
		c-4.031,0.16-7.781-3.488-7.781-7.793V430.722z"/>
	<path fill="#FFFFFF" fill-opacity="0.1725" d="M436.324,431.777c0-3.75-3.723-7.5-0.008-7.5c3.758,0,6.73,3.016,6.73,6.75
		c0.027,3.75-3.012,6.73-6.73,6.73c-3.742,0.02,0.371-2.516,0.371-6.238L436.324,431.777z"/>
	
		<linearGradient id="SVGID_27_" gradientUnits="userSpaceOnUse" x1="208.2256" y1="201.3027" x2="208.2256" y2="182.3027" gradientTransform="matrix(0.75 0 0 -0.75 382.951 550.2853)">
		<stop  offset="0" style="stop-color:#335D81"/>
		<stop  offset="0.09" style="stop-color:#8BA8C9"/>
		<stop  offset="0.16" style="stop-color:#457BA9"/>
		<stop  offset="0.64" style="stop-color:#4479A6"/>
		<stop  offset="0.92" style="stop-color:#4276A3"/>
		<stop  offset="1" style="stop-color:#2F5678"/>
	</linearGradient>
	<path fill="url(#SVGID_27_)" d="M534.621,399.308h9v14.25h-9V399.308z"/>
	
		<linearGradient id="SVGID_28_" gradientUnits="userSpaceOnUse" x1="306.2241" y1="201.3057" x2="306.2241" y2="190.3047" gradientTransform="matrix(0.75 0 0 -0.75 189.9012 445.7589)">
		<stop  offset="0" style="stop-color:#96989A"/>
		<stop  offset="0.09" style="stop-color:#DDE0E2"/>
		<stop  offset="0.16" style="stop-color:#C3C6C9"/>
		<stop  offset="0.64" style="stop-color:#C0C3C5"/>
		<stop  offset="0.92" style="stop-color:#BCBEC1"/>
		<stop  offset="1" style="stop-color:#8B8D8F"/>
	</linearGradient>
	<path fill="url(#SVGID_28_)" d="M341.57,294.781h156v8.25h-156V294.781z"/>
</g>
</svg>
