<?xml version="1.0" encoding="utf-8"?>
<!-- Generator: Adobe Illustrator 16.0.0, SVG Export Plug-In . SVG Version: 6.00 Build 0)  -->
<!DOCTYPE svg PUBLIC "-//W3C//DTD SVG 1.1//EN" "http://www.w3.org/Graphics/SVG/1.1/DTD/svg11.dtd">
<svg preserveAspectRatio="none"   version="1.1" id="图层_1" xmlns="http://www.w3.org/2000/svg" xmlns:xlink="http://www.w3.org/1999/xlink" x="0px" y="0px"
	 width="566.515px" height="499.468px" viewBox="0.371 33.715 566.515 499.468"
	 enable-background="new 0.371 33.715 566.515 499.468" xml:space="preserve">
<g id="surface99">
	
		<linearGradient id="SVGID_1_" gradientUnits="userSpaceOnUse" x1="405.2241" y1="201.3037" x2="405.2241" y2="165.3027" gradientTransform="matrix(0.75 0 0 -0.75 37.7372 184.6915)">
		<stop  offset="0" style="stop-color:#9D815E"/>
		<stop  offset="0.09" style="stop-color:#E5C9A8"/>
		<stop  offset="0.16" style="stop-color:#CCA97C"/>
		<stop  offset="0.64" style="stop-color:#C9A67A"/>
		<stop  offset="0.92" style="stop-color:#C4A377"/>
		<stop  offset="1" style="stop-color:#917857"/>
	</linearGradient>
	<path fill="url(#SVGID_1_)" d="M189.406,33.715h304.5v27h-304.5V33.715z"/>
	
		<linearGradient id="SVGID_2_" gradientUnits="userSpaceOnUse" x1="229.2236" y1="167.1831" x2="202.2236" y2="167.1831" gradientTransform="matrix(0.75 0 0 -0.75 300.6561 190.5646)">
		<stop  offset="0" style="stop-color:#9D815E"/>
		<stop  offset="0.09" style="stop-color:#E5C9A8"/>
		<stop  offset="0.16" style="stop-color:#CCA97C"/>
		<stop  offset="0.64" style="stop-color:#C9A67A"/>
		<stop  offset="0.92" style="stop-color:#C4A377"/>
		<stop  offset="1" style="stop-color:#917857"/>
	</linearGradient>
	<path fill="url(#SVGID_2_)" d="M456.074,39.586h13.5c1.5,0,3,1.504,3,3.355v44.645c0,1.5-1.512,3.184-3.375,3.184l-13.125-0.184
		c-2.25,0-3.75-1.32-3.75-3.176V42.586c0-1.5,1.512-3,3.375-3H456.074z"/>
	
		<linearGradient id="SVGID_3_" gradientUnits="userSpaceOnUse" x1="214.2227" y1="193.3047" x2="202.2227" y2="193.3047" gradientTransform="matrix(0.75 0 0 -0.75 250.1796 664.0519)">
		<stop  offset="0" style="stop-color:#A48863"/>
		<stop  offset="0.15" style="stop-color:#E0BD92"/>
		<stop  offset="0.25" style="stop-color:#EEDCC9"/>
		<stop  offset="0.52" style="stop-color:#C2A175"/>
		<stop  offset="0.69" style="stop-color:#AD8F68"/>
		<stop  offset="0.8" style="stop-color:#A38662"/>
		<stop  offset="0.92" style="stop-color:#9A7F5C"/>
		<stop  offset="1" style="stop-color:#B1926A"/>
	</linearGradient>
	<path fill="url(#SVGID_3_)" d="M401.847,513.074h9v12h-9V513.074z"/>
	
		<linearGradient id="SVGID_4_" gradientUnits="userSpaceOnUse" x1="237.2227" y1="195.7559" x2="202.1758" y2="195.7559" gradientTransform="matrix(0.75 0 0 -0.75 241.5311 675.8048)">
		<stop  offset="0" style="stop-color:#A48863"/>
		<stop  offset="0.15" style="stop-color:#E0BD92"/>
		<stop  offset="0.25" style="stop-color:#EEDCC9"/>
		<stop  offset="0.52" style="stop-color:#C2A175"/>
		<stop  offset="0.69" style="stop-color:#AD8F68"/>
		<stop  offset="0.8" style="stop-color:#A38662"/>
		<stop  offset="0.92" style="stop-color:#9A7F5C"/>
		<stop  offset="1" style="stop-color:#B1926A"/>
	</linearGradient>
	<path fill="url(#SVGID_4_)" d="M396.199,524.828h19.5c2.25,0,3.621,1.465,3.621,3.32l0.129,1.93c0,1.5-1.641,3.105-3.504,3.105
		l-19.746-0.105c-1.5,0-3.035-1.398-3.035-3.25l0.035-2c0-1.5,1.477-3.035,3.34-3.035L396.199,524.828z"/>
	
		<linearGradient id="SVGID_5_" gradientUnits="userSpaceOnUse" x1="214.2266" y1="193.3047" x2="202.2266" y2="193.3047" gradientTransform="matrix(0.75 0 0 -0.75 -107.3068 664.0519)">
		<stop  offset="0" style="stop-color:#A48863"/>
		<stop  offset="0.15" style="stop-color:#E0BD92"/>
		<stop  offset="0.25" style="stop-color:#EEDCC9"/>
		<stop  offset="0.52" style="stop-color:#C2A175"/>
		<stop  offset="0.69" style="stop-color:#AD8F68"/>
		<stop  offset="0.8" style="stop-color:#A38662"/>
		<stop  offset="0.92" style="stop-color:#9A7F5C"/>
		<stop  offset="1" style="stop-color:#B1926A"/>
	</linearGradient>
	<path fill="url(#SVGID_5_)" d="M44.363,513.074h9v12h-9V513.074z"/>
	
		<linearGradient id="SVGID_6_" gradientUnits="userSpaceOnUse" x1="237.2266" y1="195.7559" x2="202.1797" y2="195.7559" gradientTransform="matrix(0.75 0 0 -0.75 -115.9552 675.8048)">
		<stop  offset="0" style="stop-color:#A48863"/>
		<stop  offset="0.15" style="stop-color:#E0BD92"/>
		<stop  offset="0.25" style="stop-color:#EEDCC9"/>
		<stop  offset="0.52" style="stop-color:#C2A175"/>
		<stop  offset="0.69" style="stop-color:#AD8F68"/>
		<stop  offset="0.8" style="stop-color:#A38662"/>
		<stop  offset="0.92" style="stop-color:#9A7F5C"/>
		<stop  offset="1" style="stop-color:#B1926A"/>
	</linearGradient>
	<path fill="url(#SVGID_6_)" d="M38.715,524.828h19.5c2.25,0,3.621,1.465,3.621,3.32l0.129,1.93c0,1.5-1.641,3.105-3.504,3.105
		l-19.746-0.105c-1.5,0-3.035-1.398-3.035-3.25l0.035-2c0-1.5,1.477-3.035,3.34-3.035L38.715,524.828z"/>
	
		<linearGradient id="SVGID_7_" gradientUnits="userSpaceOnUse" x1="210.7236" y1="201.3037" x2="210.7236" y2="195.3037" gradientTransform="matrix(0.75 0 0 -0.75 -141.6481 457.587)">
		<stop  offset="0" style="stop-color:#A48863"/>
		<stop  offset="0.15" style="stop-color:#E0BD92"/>
		<stop  offset="0.25" style="stop-color:#EEDCC9"/>
		<stop  offset="0.52" style="stop-color:#C2A175"/>
		<stop  offset="0.69" style="stop-color:#AD8F68"/>
		<stop  offset="0.8" style="stop-color:#A38662"/>
		<stop  offset="0.92" style="stop-color:#9A7F5C"/>
		<stop  offset="1" style="stop-color:#B1926A"/>
	</linearGradient>
	<path fill="url(#SVGID_7_)" d="M22.77,306.609H10.02v4.5h12.75V306.609z"/>
	
		<linearGradient id="SVGID_8_" gradientUnits="userSpaceOnUse" x1="230.2266" y1="201.3037" x2="230.2266" y2="185.3037" gradientTransform="matrix(0.75 0 0 -0.75 -128.0919 453.8243)">
		<stop  offset="0" style="stop-color:#A48863"/>
		<stop  offset="0.15" style="stop-color:#E0BD92"/>
		<stop  offset="0.25" style="stop-color:#EEDCC9"/>
		<stop  offset="0.52" style="stop-color:#C2A175"/>
		<stop  offset="0.69" style="stop-color:#AD8F68"/>
		<stop  offset="0.8" style="stop-color:#A38662"/>
		<stop  offset="0.92" style="stop-color:#9A7F5C"/>
		<stop  offset="1" style="stop-color:#B1926A"/>
	</linearGradient>
	<path fill="url(#SVGID_8_)" d="M65.578,302.847h-42v12h42V302.847z"/>
	
		<linearGradient id="SVGID_9_" gradientUnits="userSpaceOnUse" x1="206.2251" y1="201.3057" x2="206.2251" y2="171.3057" gradientTransform="matrix(0.75 0 0 -0.75 -87.817 448.6232)">
		<stop  offset="0" style="stop-color:#A48863"/>
		<stop  offset="0.15" style="stop-color:#E0BD92"/>
		<stop  offset="0.25" style="stop-color:#EEDCC9"/>
		<stop  offset="0.52" style="stop-color:#C2A175"/>
		<stop  offset="0.69" style="stop-color:#AD8F68"/>
		<stop  offset="0.8" style="stop-color:#A38662"/>
		<stop  offset="0.92" style="stop-color:#9A7F5C"/>
		<stop  offset="1" style="stop-color:#B1926A"/>
	</linearGradient>
	<path fill="url(#SVGID_9_)" d="M69.852,297.644h-6v22.5h6V297.644z"/>
	
		<linearGradient id="SVGID_10_" gradientUnits="userSpaceOnUse" x1="463.7261" y1="201.3037" x2="463.7261" y2="149.3037" gradientTransform="matrix(0.75 0 0 -0.75 -127.1354 356.1232)">
		<stop  offset="0" style="stop-color:#A48863"/>
		<stop  offset="0.15" style="stop-color:#E0BD92"/>
		<stop  offset="0.25" style="stop-color:#EEDCC9"/>
		<stop  offset="0.52" style="stop-color:#C2A175"/>
		<stop  offset="0.69" style="stop-color:#AD8F68"/>
		<stop  offset="0.8" style="stop-color:#A38662"/>
		<stop  offset="0.92" style="stop-color:#9A7F5C"/>
		<stop  offset="1" style="stop-color:#B1926A"/>
	</linearGradient>
	<path fill="url(#SVGID_10_)" d="M24.535,205.145h392.25v39H24.535V205.145z"/>
	
		<linearGradient id="SVGID_11_" gradientUnits="userSpaceOnUse" x1="302.2251" y1="201.3027" x2="302.2251" y2="-348.6973" gradientTransform="matrix(0.75 0 0 -0.75 265.2177 237.5509)">
		<stop  offset="0.16" style="stop-color:#CCA97C"/>
		<stop  offset="0.64" style="stop-color:#C9A67A"/>
		<stop  offset="0.97" style="stop-color:#C4A377"/>
		<stop  offset="1" style="stop-color:#917857"/>
	</linearGradient>
	<path fill="url(#SVGID_11_)" d="M416.886,86.574h150v412.5h-150V86.574z"/>
	
		<linearGradient id="SVGID_12_" gradientUnits="userSpaceOnUse" x1="413.7241" y1="201.3037" x2="413.7241" y2="-106.6953" gradientTransform="matrix(0.75 0 0 -0.75 -73.1378 262.1622)">
		<stop  offset="0" style="stop-color:#CCA97C"/>
		<stop  offset="0.64" style="stop-color:#C9A67A"/>
		<stop  offset="0.86" style="stop-color:#C4A377"/>
		<stop  offset="1" style="stop-color:#917857"/>
	</linearGradient>
	<path fill="url(#SVGID_12_)" d="M78.531,111.184h317.25v231H78.531V111.184z"/>
	
		<linearGradient id="SVGID_13_" gradientUnits="userSpaceOnUse" x1="426.7231" y1="201.3047" x2="426.7231" y2="3.3047" gradientTransform="matrix(0.75 0 0 -0.75 -92.5348 501.8458)">
		<stop  offset="0" style="stop-color:#9D815E"/>
		<stop  offset="0.09" style="stop-color:#E5C9A8"/>
		<stop  offset="0.16" style="stop-color:#CCA97C"/>
		<stop  offset="0.64" style="stop-color:#C9A67A"/>
		<stop  offset="0.92" style="stop-color:#C4A377"/>
		<stop  offset="1" style="stop-color:#917857"/>
	</linearGradient>
	<path fill="url(#SVGID_13_)" d="M59.133,350.867h336.75v148.5H59.133V350.867z"/>
	
		<linearGradient id="SVGID_14_" gradientUnits="userSpaceOnUse" x1="430.728" y1="201.3018" x2="430.728" y2="178.3018" gradientTransform="matrix(0.75 0 0 -0.75 -92.5343 649.5148)">
		<stop  offset="0" style="stop-color:#9D815E"/>
		<stop  offset="0.09" style="stop-color:#E5C9A8"/>
		<stop  offset="0.16" style="stop-color:#CCA97C"/>
		<stop  offset="0.64" style="stop-color:#C9A67A"/>
		<stop  offset="0.92" style="stop-color:#C4A377"/>
		<stop  offset="1" style="stop-color:#917857"/>
	</linearGradient>
	<path fill="url(#SVGID_14_)" d="M59.137,498.539h342.75v17.25H59.137V498.539z"/>
	
		<linearGradient id="SVGID_15_" gradientUnits="userSpaceOnUse" x1="216.7271" y1="201.3047" x2="216.7271" y2="135.3047" gradientTransform="matrix(0.75 0 0 -0.75 -113.6349 350.9591)">
		<stop  offset="0" style="stop-color:#A48863"/>
		<stop  offset="0.15" style="stop-color:#E0BD92"/>
		<stop  offset="0.25" style="stop-color:#EEDCC9"/>
		<stop  offset="0.52" style="stop-color:#C2A175"/>
		<stop  offset="0.69" style="stop-color:#AD8F68"/>
		<stop  offset="0.8" style="stop-color:#A38662"/>
		<stop  offset="0.92" style="stop-color:#9A7F5C"/>
		<stop  offset="1" style="stop-color:#B1926A"/>
	</linearGradient>
	<path fill="url(#SVGID_15_)" d="M38.035,199.98h21.75v49.5h-21.75V199.98z"/>
	
		<linearGradient id="SVGID_16_" gradientUnits="userSpaceOnUse" x1="208.415" y1="201.3027" x2="208.415" y2="114.042" gradientTransform="matrix(0.75 0 0 -0.75 -133.8854 342.9884)">
		<stop  offset="0" style="stop-color:#A48863"/>
		<stop  offset="0.15" style="stop-color:#E0BD92"/>
		<stop  offset="0.25" style="stop-color:#EEDCC9"/>
		<stop  offset="0.52" style="stop-color:#C2A175"/>
		<stop  offset="0.69" style="stop-color:#AD8F68"/>
		<stop  offset="0.8" style="stop-color:#A38662"/>
		<stop  offset="0.92" style="stop-color:#9A7F5C"/>
		<stop  offset="1" style="stop-color:#B1926A"/>
	</linearGradient>
	<path fill="url(#SVGID_16_)" d="M21.535,192.012h2.25c1.5,0,3.281,1.5,3.281,3.355l-0.281,58.895c0,1.5-1.23,3.195-3.094,3.195
		l-2.156-0.195c-2.25,0-3.75-1.309-3.75-3.164v-59.086c0-1.5,1.508-3,3.375-3H21.535z"/>
	
		<linearGradient id="SVGID_17_" gradientUnits="userSpaceOnUse" x1="231.2266" y1="8.8013" x2="202.2266" y2="8.8013" gradientTransform="matrix(0.75 0 0 -0.75 -113.6349 375.1515)">
		<stop  offset="0" style="stop-color:#9D815E"/>
		<stop  offset="0.09" style="stop-color:#E5C9A8"/>
		<stop  offset="0.16" style="stop-color:#CCA97C"/>
		<stop  offset="0.64" style="stop-color:#C9A67A"/>
		<stop  offset="0.92" style="stop-color:#C4A377"/>
		<stop  offset="1" style="stop-color:#917857"/>
	</linearGradient>
	<path fill="url(#SVGID_17_)" d="M38.035,224.176h21.75v288.75h-21.75V224.176z"/>
	
		<linearGradient id="SVGID_18_" gradientUnits="userSpaceOnUse" x1="434.7231" y1="201.3047" x2="434.7231" y2="167.3047" gradientTransform="matrix(0.75 0 0 -0.75 -89.0978 236.4318)">
		<stop  offset="0" style="stop-color:#9D815E"/>
		<stop  offset="0.09" style="stop-color:#E5C9A8"/>
		<stop  offset="0.16" style="stop-color:#CCA97C"/>
		<stop  offset="0.64" style="stop-color:#C9A67A"/>
		<stop  offset="0.92" style="stop-color:#C4A377"/>
		<stop  offset="1" style="stop-color:#917857"/>
	</linearGradient>
	<path fill="url(#SVGID_18_)" d="M62.57,85.453h348.75l-15.75,25.5H78.32L62.57,85.453z"/>
	
		<linearGradient id="SVGID_19_" gradientUnits="userSpaceOnUse" x1="225.2285" y1="201.3037" x2="225.2285" y2="178.3037" gradientTransform="matrix(0.75 0 0 -0.75 -113.6354 649.504)">
		<stop  offset="0" style="stop-color:#81684A"/>
		<stop  offset="0.09" style="stop-color:#C8B199"/>
		<stop  offset="0.16" style="stop-color:#A88963"/>
		<stop  offset="0.64" style="stop-color:#A68761"/>
		<stop  offset="0.92" style="stop-color:#A2835F"/>
		<stop  offset="1" style="stop-color:#776044"/>
	</linearGradient>
	<path fill="url(#SVGID_19_)" d="M38.035,498.527h34.5v17.25h-34.5V498.527z"/>
	
		<linearGradient id="SVGID_20_" gradientUnits="userSpaceOnUse" x1="216.7251" y1="201.3047" x2="216.7251" y2="135.3047" gradientTransform="matrix(0.75 0 0 -0.75 243.8661 350.9591)">
		<stop  offset="0" style="stop-color:#A48863"/>
		<stop  offset="0.15" style="stop-color:#E0BD92"/>
		<stop  offset="0.25" style="stop-color:#EEDCC9"/>
		<stop  offset="0.52" style="stop-color:#C2A175"/>
		<stop  offset="0.69" style="stop-color:#AD8F68"/>
		<stop  offset="0.8" style="stop-color:#A38662"/>
		<stop  offset="0.92" style="stop-color:#9A7F5C"/>
		<stop  offset="1" style="stop-color:#B1926A"/>
	</linearGradient>
	<path fill="url(#SVGID_20_)" d="M395.535,199.98h21.75v49.5h-21.75V199.98z"/>
	
		<linearGradient id="SVGID_21_" gradientUnits="userSpaceOnUse" x1="231.2246" y1="8.8052" x2="202.2246" y2="8.8052" gradientTransform="matrix(0.75 0 0 -0.75 243.8661 378.7872)">
		<stop  offset="0" style="stop-color:#9D815E"/>
		<stop  offset="0.09" style="stop-color:#E5C9A8"/>
		<stop  offset="0.16" style="stop-color:#CCA97C"/>
		<stop  offset="0.64" style="stop-color:#C9A67A"/>
		<stop  offset="0.92" style="stop-color:#C4A377"/>
		<stop  offset="1" style="stop-color:#917857"/>
	</linearGradient>
	<path fill="url(#SVGID_21_)" d="M395.535,227.809h21.75v288.75h-21.75V227.809z"/>
	
		<linearGradient id="SVGID_22_" gradientUnits="userSpaceOnUse" x1="225.2256" y1="201.3066" x2="225.2256" y2="178.3066" gradientTransform="matrix(0.75 0 0 -0.75 230.7567 649.5148)">
		<stop  offset="0" style="stop-color:#81684A"/>
		<stop  offset="0.09" style="stop-color:#C8B199"/>
		<stop  offset="0.16" style="stop-color:#A88963"/>
		<stop  offset="0.64" style="stop-color:#A68761"/>
		<stop  offset="0.92" style="stop-color:#A2835F"/>
		<stop  offset="1" style="stop-color:#776044"/>
	</linearGradient>
	<path fill="url(#SVGID_22_)" d="M382.425,498.535h34.5v17.25h-34.5V498.535z"/>
	
		<linearGradient id="SVGID_23_" gradientUnits="userSpaceOnUse" x1="434.7231" y1="201.3018" x2="434.7231" y2="165.3018" gradientTransform="matrix(0.75 0 0 -0.75 -89.0978 210.422)">
		<stop  offset="0" style="stop-color:#9D815E"/>
		<stop  offset="0.09" style="stop-color:#E5C9A8"/>
		<stop  offset="0.16" style="stop-color:#CCA97C"/>
		<stop  offset="0.64" style="stop-color:#C9A67A"/>
		<stop  offset="0.92" style="stop-color:#C4A377"/>
		<stop  offset="1" style="stop-color:#917857"/>
	</linearGradient>
	<path fill="url(#SVGID_23_)" d="M62.57,59.445h348.75v27H62.57V59.445z"/>
	
		<linearGradient id="SVGID_24_" gradientUnits="userSpaceOnUse" x1="231.2266" y1="160.8027" x2="202.2266" y2="160.8027" gradientTransform="matrix(0.75 0 0 -0.75 -113.6349 375.1476)">
		<stop  offset="0" style="stop-color:#81684A"/>
		<stop  offset="0.09" style="stop-color:#C8B199"/>
		<stop  offset="0.16" style="stop-color:#A88963"/>
		<stop  offset="0.64" style="stop-color:#A68761"/>
		<stop  offset="0.92" style="stop-color:#A2835F"/>
		<stop  offset="1" style="stop-color:#776044"/>
	</linearGradient>
	<path fill="url(#SVGID_24_)" d="M38.035,224.172h21.75v60.75h-21.75V224.172z"/>
	
		<linearGradient id="SVGID_25_" gradientUnits="userSpaceOnUse" x1="231.2246" y1="160.8052" x2="202.2246" y2="160.8052" gradientTransform="matrix(0.75 0 0 -0.75 243.8661 378.7863)">
		<stop  offset="0" style="stop-color:#81684A"/>
		<stop  offset="0.09" style="stop-color:#C8B199"/>
		<stop  offset="0.16" style="stop-color:#A88963"/>
		<stop  offset="0.64" style="stop-color:#A68761"/>
		<stop  offset="0.92" style="stop-color:#A2835F"/>
		<stop  offset="1" style="stop-color:#776044"/>
	</linearGradient>
	<path fill="url(#SVGID_25_)" d="M395.535,227.809h21.75v60.75h-21.75V227.809z"/>
	
		<linearGradient id="SVGID_26_" gradientUnits="userSpaceOnUse" x1="208.2231" y1="201.3037" x2="208.2231" y2="162.3037" gradientTransform="matrix(0.75 0 0 -0.75 -82.1906 445.2394)">
		<stop  offset="0" style="stop-color:#A48863"/>
		<stop  offset="0.15" style="stop-color:#E0BD92"/>
		<stop  offset="0.25" style="stop-color:#EEDCC9"/>
		<stop  offset="0.52" style="stop-color:#C2A175"/>
		<stop  offset="0.69" style="stop-color:#AD8F68"/>
		<stop  offset="0.8" style="stop-color:#A38662"/>
		<stop  offset="0.92" style="stop-color:#9A7F5C"/>
		<stop  offset="1" style="stop-color:#B1926A"/>
	</linearGradient>
	<path fill="url(#SVGID_26_)" d="M78.477,294.261h-9v29.25h9V294.261z"/>
	
		<linearGradient id="SVGID_27_" gradientUnits="userSpaceOnUse" x1="209.2266" y1="201.3047" x2="209.2266" y2="179.3047" gradientTransform="matrix(0.75 0 0 -0.75 -131.4669 451.631)">
		<stop  offset="0" style="stop-color:#A48863"/>
		<stop  offset="0.15" style="stop-color:#E0BD92"/>
		<stop  offset="0.25" style="stop-color:#EEDCC9"/>
		<stop  offset="0.52" style="stop-color:#C2A175"/>
		<stop  offset="0.69" style="stop-color:#AD8F68"/>
		<stop  offset="0.8" style="stop-color:#A38662"/>
		<stop  offset="0.92" style="stop-color:#9A7F5C"/>
		<stop  offset="1" style="stop-color:#B1926A"/>
	</linearGradient>
	<path fill="url(#SVGID_27_)" d="M30.703,300.652h-10.5v16.5h10.5V300.652z"/>
	
		<linearGradient id="SVGID_28_" gradientUnits="userSpaceOnUse" x1="210.3203" y1="201.3584" x2="210.3203" y2="185.249" gradientTransform="matrix(0.75 0 0 -0.75 -151.2985 453.8077)">
		<stop  offset="0" style="stop-color:#A48863"/>
		<stop  offset="0.15" style="stop-color:#E0BD92"/>
		<stop  offset="0.25" style="stop-color:#EEDCC9"/>
		<stop  offset="0.52" style="stop-color:#C2A175"/>
		<stop  offset="0.69" style="stop-color:#AD8F68"/>
		<stop  offset="0.8" style="stop-color:#A38662"/>
		<stop  offset="0.92" style="stop-color:#9A7F5C"/>
		<stop  offset="1" style="stop-color:#B1926A"/>
	</linearGradient>
	<path fill="url(#SVGID_28_)" d="M0.371,308.832c0-3,2.707-6.043,6.063-6.043c3.688,0.043,6.078,2.703,6.078,6.039
		c-0.141,3.004-2.723,6.043-6.078,6.043c-3.063-0.039-6.063-2.707-6.063-6.043V308.832z"/>
	<path fill="#866C4E" d="M449.66,220.867c0-6,5.156-11.25,11.523-11.25c6.477,0,11.523,5.129,11.523,11.457
		c0.203,6.543-5.164,11.461-11.523,11.461c-6.273,0.332-11.523-5.137-11.523-11.461V220.867z"/>
	
		<linearGradient id="SVGID_29_" gradientUnits="userSpaceOnUse" x1="225.4136" y1="180.0977" x2="201.3639" y2="200.2777" gradientTransform="matrix(0.75 0 0 -0.75 301.1366 363.7218)">
		<stop  offset="0" style="stop-color:#008073"/>
		<stop  offset="0.15" style="stop-color:#45B4A5"/>
		<stop  offset="0.25" style="stop-color:#19AF9E"/>
		<stop  offset="0.52" style="stop-color:#009889"/>
		<stop  offset="0.69" style="stop-color:#008779"/>
		<stop  offset="0.8" style="stop-color:#007F72"/>
		<stop  offset="0.92" style="stop-color:#00786B"/>
		<stop  offset="1" style="stop-color:#008A7C"/>
	</linearGradient>
	<path fill="url(#SVGID_29_)" d="M452.804,220.992c0-4.5,3.75-8.25,8.379-8.25c4.371,0,8.379,3.73,8.379,8.332
		c-0.258,4.418-3.758,8.332-8.379,8.332c-4.629-0.164-8.379-3.734-8.379-8.332V220.992z"/>
	<path fill="#866C4E" d="M509.57,220.867c0-6,5.156-11.25,11.52-11.25c6.48,0,11.523,5.129,11.523,11.457
		c0.207,6.543-5.164,11.457-11.523,11.457c-6.27,0.336-11.52-5.133-11.52-11.457V220.867z"/>
	
		<linearGradient id="SVGID_30_" gradientUnits="userSpaceOnUse" x1="225.4146" y1="180.0986" x2="201.3649" y2="200.2787" gradientTransform="matrix(0.75 0 0 -0.75 361.0438 363.7218)">
		<stop  offset="0" style="stop-color:#B37678"/>
		<stop  offset="0.15" style="stop-color:#F2A9AA"/>
		<stop  offset="0.25" style="stop-color:#F1A2A4"/>
		<stop  offset="0.52" style="stop-color:#D38C8E"/>
		<stop  offset="0.69" style="stop-color:#BC7C7E"/>
		<stop  offset="0.8" style="stop-color:#B17577"/>
		<stop  offset="0.92" style="stop-color:#A76E70"/>
		<stop  offset="1" style="stop-color:#C07F81"/>
	</linearGradient>
	<path fill="url(#SVGID_30_)" d="M512.714,220.992c0-4.5,3.75-8.25,8.375-8.25c4.375,0,8.379,3.73,8.379,8.332
		c-0.254,4.418-3.754,8.332-8.379,8.332c-4.625-0.164-8.375-3.734-8.375-8.332V220.992z"/>
	<path fill="#866C4E" d="M449.66,278.891c0-6,5.156-11.25,11.523-11.25c6.477,0,11.523,5.129,11.523,11.457
		c0.203,6.542-5.164,11.46-11.523,11.46c-6.273,0.332-11.523-5.137-11.523-11.46V278.891z"/>
	
		<linearGradient id="SVGID_31_" gradientUnits="userSpaceOnUse" x1="225.4136" y1="180.0977" x2="201.3641" y2="200.2776" gradientTransform="matrix(0.75 0 0 -0.75 301.1366 421.7462)">
		<stop  offset="0" style="stop-color:#008073"/>
		<stop  offset="0.15" style="stop-color:#45B4A5"/>
		<stop  offset="0.25" style="stop-color:#19AF9E"/>
		<stop  offset="0.52" style="stop-color:#009889"/>
		<stop  offset="0.69" style="stop-color:#008779"/>
		<stop  offset="0.8" style="stop-color:#007F72"/>
		<stop  offset="0.92" style="stop-color:#00786B"/>
		<stop  offset="1" style="stop-color:#008A7C"/>
	</linearGradient>
	<path fill="url(#SVGID_31_)" d="M452.804,279.02c0-4.5,3.75-8.25,8.379-8.25c4.371,0,8.379,3.727,8.379,8.328
		c-0.258,4.422-3.758,8.332-8.379,8.332c-4.629-0.16-8.379-3.734-8.379-8.332V279.02z"/>
	<path fill="#866C4E" d="M509.57,278.891c0-6,5.156-11.25,11.52-11.25c6.48,0,11.523,5.129,11.523,11.457
		c0.207,6.542-5.164,11.46-11.523,11.46c-6.27,0.332-11.52-5.137-11.52-11.46V278.891z"/>
	
		<linearGradient id="SVGID_32_" gradientUnits="userSpaceOnUse" x1="225.4141" y1="180.0991" x2="201.365" y2="200.2787" gradientTransform="matrix(0.75 0 0 -0.75 361.0438 421.7462)">
		<stop  offset="0" style="stop-color:#B37678"/>
		<stop  offset="0.15" style="stop-color:#F2A9AA"/>
		<stop  offset="0.25" style="stop-color:#F1A2A4"/>
		<stop  offset="0.52" style="stop-color:#D38C8E"/>
		<stop  offset="0.69" style="stop-color:#BC7C7E"/>
		<stop  offset="0.8" style="stop-color:#B17577"/>
		<stop  offset="0.92" style="stop-color:#A76E70"/>
		<stop  offset="1" style="stop-color:#C07F81"/>
	</linearGradient>
	<path fill="url(#SVGID_32_)" d="M512.714,279.02c0-4.5,3.75-8.25,8.375-8.25c4.375,0,8.379,3.727,8.379,8.328
		c-0.254,4.422-3.754,8.332-8.379,8.332c-4.625-0.16-8.375-3.734-8.375-8.332V279.02z"/>
	<path fill="#CACDD0" d="M513.449,105.871h39c2.25,0,3.66,1.504,3.66,3.355l0.09,46.145c0,1.5-1.602,3.359-3.465,3.359
		l-39.285-0.359c-2.25,0-3.75-1.145-3.75-2.996v-46.504c0-1.5,1.512-3,3.375-3H513.449z"/>
	<path fill="#EEEEEE" d="M516.609,110.504h32.25c2.25,0,3.34,1.387,3.34,3.094l-0.34,37.406c0,1.5-1.055,3.09-2.773,3.09
		l-32.477-0.09c-1.5,0-3-1.324-3-3.035v-37.465c0-1.5,1.359-3,3.078-3H516.609z"/>
	<path d="M517.675,114.934h30.75v15.75h-30.75V114.934z"/>
	<path fill="#FFFFFF" fill-opacity="0.2314" d="M541.675,114.82h6.75v15.75h-30.75L541.675,114.82z"/>
	
		<linearGradient id="SVGID_33_" gradientUnits="userSpaceOnUse" x1="244.9131" y1="201.3057" x2="244.9131" y2="116.4048" gradientTransform="matrix(0.75 0 0 -0.75 275.8651 251.5577)">
		<stop  offset="0" style="stop-color:#CA9258"/>
		<stop  offset="0.82" style="stop-color:#AD7530"/>
		<stop  offset="1" style="stop-color:#9A6829"/>
	</linearGradient>
	<path fill="url(#SVGID_33_)" d="M427.535,132.078c0-17.25,14.328-31.5,32.016-31.5c17.484,0,32.016,14.25,32.016,31.84
		c-0.281,17.66-14.352,31.836-32.016,31.836c-17.766,0.074-32.016-14.27-32.016-31.836V132.078z"/>
	<path fill="#E0BD92" d="M429.664,132.695c0-16.5,13.375-30,29.887-30c16.613,0,29.891,13.301,29.891,29.723
		c0.223,16.027-13.398,29.719-29.891,29.719c-16.387-0.191-29.887-13.32-29.887-29.719V132.695z"/>
	<path fill="#595757" d="M437.796,132.535c0-12,9.738-21.75,21.754-21.75c11.996,0,21.754,9.684,21.754,21.633
		c-0.008,12.117-9.75,21.629-21.754,21.629c-12.004,0.238-21.754-9.695-21.754-21.629V132.535z"/>
	<path fill="#FFFFFF" d="M439.281,132.512c0-11.25,9.07-20.25,20.27-20.25c11.23,0,20.27,9.02,20.27,20.156
		c-0.039,11.344-9.086,20.156-20.27,20.156c-11.27,0.188-20.27-9.035-20.27-20.156V132.512z"/>
	<path fill="#B4B5B5" d="M451.222,125.52l1.594-1.59l21.211,21.215l-1.059,1.059L451.222,125.52z"/>
	<path fill="#595757" d="M457.187,132.316c0-1.5,1.059-2.25,2.363-2.25c1.387,0,2.363,1.051,2.363,2.352
		c-0.227,1.398-1.059,2.348-2.363,2.348c-1.613-0.199-2.363-1.051-2.363-2.348V132.316z"/>
</g>
</svg>
