<?xml version="1.0" encoding="utf-8"?>
<!-- Generator: Adobe Illustrator 16.0.0, SVG Export Plug-In . SVG Version: 6.00 Build 0)  -->
<!DOCTYPE svg PUBLIC "-//W3C//DTD SVG 1.1//EN" "http://www.w3.org/Graphics/SVG/1.1/DTD/svg11.dtd">
<svg preserveAspectRatio="none"   version="1.1" id="图层_1" xmlns="http://www.w3.org/2000/svg" xmlns:xlink="http://www.w3.org/1999/xlink" x="0px" y="0px"
	 width="226.808px" height="560.441px" viewBox="170.215 3.32 226.808 560.441"
	 enable-background="new 170.215 3.32 226.808 560.441" xml:space="preserve">
<g id="surface326">
	
		<linearGradient id="SVGID_1_" gradientUnits="userSpaceOnUse" x1="215.2256" y1="191.8027" x2="202.2256" y2="191.8027" gradientTransform="matrix(0.75 0 0 -0.75 156.369 154.297)">
		<stop  offset="0" style="stop-color:#8C98A2"/>
		<stop  offset="0.09" style="stop-color:#8F9AA5"/>
		<stop  offset="0.36" style="stop-color:#B0BECB"/>
		<stop  offset="0.56" style="stop-color:#9EABB7"/>
		<stop  offset="0.83" style="stop-color:#7F8993"/>
		<stop  offset="1" style="stop-color:#5A6168"/>
	</linearGradient>
	<path fill="url(#SVGID_1_)" d="M308.039,3.32h9.75v14.25h-9.75V3.32z"/>
	
		<linearGradient id="SVGID_2_" gradientUnits="userSpaceOnUse" x1="17.3027" y1="227.7017" x2="1.3027" y2="227.7017" gradientTransform="matrix(0 -0.75 -0.75 0 454.1232 553.4962)">
		<stop  offset="0" style="stop-color:#A1A9B3"/>
		<stop  offset="0.09" style="stop-color:#A3ACB6"/>
		<stop  offset="0.36" style="stop-color:#C9D4E0"/>
		<stop  offset="0.56" style="stop-color:#B5BFC9"/>
		<stop  offset="0.83" style="stop-color:#9199A2"/>
		<stop  offset="1" style="stop-color:#676D74"/>
	</linearGradient>
	<path fill="url(#SVGID_2_)" d="M179.848,552.519v-12h207v12H179.848z"/>
	
		<linearGradient id="SVGID_3_" gradientUnits="userSpaceOnUse" x1="423.3608" y1="77.6045" x2="202.2261" y2="77.6045" gradientTransform="matrix(0.75 0 0 -0.75 49.3964 166.0255)">
		<stop  offset="0" style="stop-color:#A1A9B3"/>
		<stop  offset="0.09" style="stop-color:#A3ACB6"/>
		<stop  offset="0.36" style="stop-color:#C9D4E0"/>
		<stop  offset="0.56" style="stop-color:#B5BFC9"/>
		<stop  offset="0.83" style="stop-color:#9199A2"/>
		<stop  offset="1" style="stop-color:#676D74"/>
	</linearGradient>
	<path fill="url(#SVGID_3_)" d="M201.066,200.297c0,0,14.836-8.836,82.488-8.398c67.511,0.148,83.363,8.75,83.363,8.75
		l-0.102-142.852c0,0,2.496-17.086-19.316-30.742c-21.934-13.508-63.508-12.008-63.508-12.008c0.324,0-44.648-0.77-63.789,12.008
		c-19.137,12.742-19.137,30.84-19.137,30.84V200.297z"/>
	
		<linearGradient id="SVGID_4_" gradientUnits="userSpaceOnUse" x1="223.7397" y1="201.3018" x2="223.7397" y2="151.1514" gradientTransform="matrix(0.75 0 0 -0.75 55.8221 268.0782)">
		<stop  offset="0" style="stop-color:#8C98A2"/>
		<stop  offset="0.09" style="stop-color:#8F9AA5"/>
		<stop  offset="0.36" style="stop-color:#B0BECB"/>
		<stop  offset="0.56" style="stop-color:#9EABB7"/>
		<stop  offset="0.83" style="stop-color:#7F8993"/>
		<stop  offset="1" style="stop-color:#5A6168"/>
	</linearGradient>
	<path fill="url(#SVGID_4_)" d="M207.492,135.852c0-10.5,7.223-18.75,16.133-18.75c8.617,0,16.137,8.418,16.137,18.805
		c-0.02,10.445-7.227,18.809-16.137,18.809c-8.633-0.113-16.133-8.418-16.133-18.809V135.852z"/>
	<path fill="#36414B" stroke="#38434D" stroke-linejoin="bevel" stroke-miterlimit="10" d="M207.27,135.664
		c0-9,5.68-16.5,12.684-16.5c6.816,0,12.688,7.496,12.688,16.742c0.129,9.508-5.68,16.746-12.688,16.746
		c-6.684,0.262-12.684-7.496-12.684-16.746V135.664z"/>
	
		<linearGradient id="SVGID_5_" gradientUnits="userSpaceOnUse" x1="187.2173" y1="201.3018" x2="187.2173" y2="151.1514" gradientTransform="matrix(-0.75 0 0 -0.75 484.6593 268.0782)">
		<stop  offset="0" style="stop-color:#8C98A2"/>
		<stop  offset="0.09" style="stop-color:#8F9AA5"/>
		<stop  offset="0.36" style="stop-color:#B0BECB"/>
		<stop  offset="0.56" style="stop-color:#9EABB7"/>
		<stop  offset="0.83" style="stop-color:#7F8993"/>
		<stop  offset="1" style="stop-color:#5A6168"/>
	</linearGradient>
	<path fill="url(#SVGID_5_)" d="M360.382,135.852c0-10.5-7.227-18.75-16.137-18.75c-8.613,0-16.133,8.418-16.133,18.805
		c0.02,10.445,7.223,18.809,16.133,18.809c8.637-0.113,16.137-8.418,16.137-18.809V135.852z"/>
	<path fill="#36414B" stroke="#36414B" stroke-linejoin="bevel" stroke-miterlimit="10" d="M360.605,135.664
		c0-9-5.68-16.5-12.688-16.5c-6.813,0-12.684,7.496-12.684,16.742c-0.129,9.508,5.68,16.746,12.684,16.746
		c6.688,0.262,12.688-7.496,12.688-16.746V135.664z"/>
	
		<linearGradient id="SVGID_6_" gradientUnits="userSpaceOnUse" x1="422.8413" y1="107.3062" x2="202.2271" y2="107.3061" gradientTransform="matrix(0.75 0 0 -0.75 49.5907 349.5763)">
		<stop  offset="0" style="stop-color:#A1A9B3"/>
		<stop  offset="0.09" style="stop-color:#A3ACB6"/>
		<stop  offset="0.36" style="stop-color:#C9D4E0"/>
		<stop  offset="0.56" style="stop-color:#B5BFC9"/>
		<stop  offset="0.83" style="stop-color:#9199A2"/>
		<stop  offset="1" style="stop-color:#676D74"/>
	</linearGradient>
	<path fill="url(#SVGID_6_)" d="M201.262,206.848c0,0,13.41-8.25,82.551-8.25c68.949,0,82.91,8.512,82.91,8.512l-7.211,132.488
		c0,0-7.629-2.543-75.52-2.543c-67.73,0.293-75.898,1.879-75.898,1.879L201.262,206.848z"/>
	
		<linearGradient id="SVGID_7_" gradientUnits="userSpaceOnUse" x1="404.2231" y1="133.8027" x2="202.2241" y2="133.8027" gradientTransform="matrix(0.75 0 0 -0.75 56.5736 493.2032)">
		<stop  offset="0" style="stop-color:#8C98A2"/>
		<stop  offset="0.09" style="stop-color:#8F9AA5"/>
		<stop  offset="0.36" style="stop-color:#B0BECB"/>
		<stop  offset="0.56" style="stop-color:#9EABB7"/>
		<stop  offset="0.83" style="stop-color:#7F8993"/>
		<stop  offset="1" style="stop-color:#5A6168"/>
	</linearGradient>
	<path fill="url(#SVGID_7_)" d="M208.242,344.476c0,0,22.668-2.25,75.75-2.25c52.5,0,75.75,2.113,75.75,2.113l-26.25,99.137h-102
		L208.242,344.476z"/>
	
		<linearGradient id="SVGID_8_" gradientUnits="userSpaceOnUse" x1="337.6821" y1="190.3066" x2="202.2236" y2="190.3066" gradientTransform="matrix(0.75 0 0 -0.75 81.5267 607.17)">
		<stop  offset="0" style="stop-color:#A1A9B3"/>
		<stop  offset="0.09" style="stop-color:#A3ACB6"/>
		<stop  offset="0.36" style="stop-color:#C9D4E0"/>
		<stop  offset="0.56" style="stop-color:#B5BFC9"/>
		<stop  offset="0.83" style="stop-color:#9199A2"/>
		<stop  offset="1" style="stop-color:#676D74"/>
	</linearGradient>
	<path fill="url(#SVGID_8_)" d="M234.695,456.191h99c0.75,0,1.094,0.578,1.094,1.293l-0.344,13.707c0,0.75-0.27,1.215-0.992,1.215
		l-98.757,0.285c-0.75,0-1.5-0.863-1.5-1.578v-13.422c0-0.75,0.547-1.5,1.27-1.5H234.695z"/>
	
		<linearGradient id="SVGID_9_" gradientUnits="userSpaceOnUse" x1="328.2261" y1="160.8438" x2="202.2261" y2="160.8437" gradientTransform="matrix(0.75 0 0 -0.75 85.0873 622.921)">
		<stop  offset="0" style="stop-color:#8C98A2"/>
		<stop  offset="0.09" style="stop-color:#8F9AA5"/>
		<stop  offset="0.36" style="stop-color:#B0BECB"/>
		<stop  offset="0.56" style="stop-color:#9EABB7"/>
		<stop  offset="0.83" style="stop-color:#7F8993"/>
		<stop  offset="1" style="stop-color:#5A6168"/>
	</linearGradient>
	<path fill="url(#SVGID_9_)" d="M331.257,471.945v47.25c0,0.75-2.398,13.133-18.781,13.133c-16.469,0.367-28.246,0.254-28.246,0.254
		c-0.223,0.113-17.566,0-32.285,0c-14.438,0.113-15.188-12.699-15.188-13.414v-47.223H331.257z"/>
	
		<linearGradient id="SVGID_10_" gradientUnits="userSpaceOnUse" x1="331.2222" y1="192.8037" x2="202.2231" y2="192.8037" gradientTransform="matrix(0.75 0 0 -0.75 82.3051 594.4806)">
		<stop  offset="0" style="stop-color:#8C98A2"/>
		<stop  offset="0.09" style="stop-color:#8F9AA5"/>
		<stop  offset="0.36" style="stop-color:#B0BECB"/>
		<stop  offset="0.56" style="stop-color:#9EABB7"/>
		<stop  offset="0.83" style="stop-color:#7F8993"/>
		<stop  offset="1" style="stop-color:#5A6168"/>
	</linearGradient>
	<path fill="url(#SVGID_10_)" d="M233.973,443.503h96.75v12.75h-96.75V443.503z"/>
	<path fill="#36414B" stroke="#38434D" stroke-linejoin="bevel" stroke-miterlimit="10" d="M268.973,405.097
		c0-7.5,6.465-14.25,14.461-14.25c8.039,0,14.48,6.418,14.48,14.348c0.309,8.152-6.484,14.344-14.48,14.344
		c-7.711-0.191-14.461-6.441-14.461-14.344V405.097z"/>
	
		<linearGradient id="SVGID_11_" gradientUnits="userSpaceOnUse" x1="215.2271" y1="191.8027" x2="202.2271" y2="191.8027" gradientTransform="matrix(0.75 0 0 -0.75 102.7201 154.297)">
		<stop  offset="0" style="stop-color:#8C98A2"/>
		<stop  offset="0.09" style="stop-color:#8F9AA5"/>
		<stop  offset="0.36" style="stop-color:#B0BECB"/>
		<stop  offset="0.56" style="stop-color:#9EABB7"/>
		<stop  offset="0.83" style="stop-color:#7F8993"/>
		<stop  offset="1" style="stop-color:#5A6168"/>
	</linearGradient>
	<path fill="url(#SVGID_11_)" d="M254.391,3.32h9.75v14.25h-9.75V3.32z"/>
	
		<linearGradient id="SVGID_12_" gradientUnits="userSpaceOnUse" x1="222.2256" y1="159.8037" x2="202.2256" y2="159.8037" gradientTransform="matrix(0.75 0 0 -0.75 34.1161 275.1378)">
		<stop  offset="0" style="stop-color:#A1A9B3"/>
		<stop  offset="0.09" style="stop-color:#A3ACB6"/>
		<stop  offset="0.36" style="stop-color:#C9D4E0"/>
		<stop  offset="0.56" style="stop-color:#B5BFC9"/>
		<stop  offset="0.83" style="stop-color:#9199A2"/>
		<stop  offset="1" style="stop-color:#676D74"/>
	</linearGradient>
	<path fill="url(#SVGID_12_)" d="M185.785,124.16h15v62.25h-15V124.16z"/>
	
		<linearGradient id="SVGID_13_" gradientUnits="userSpaceOnUse" x1="217.2261" y1="132.3057" x2="202.2261" y2="132.3057" gradientTransform="matrix(0.75 0 0 -0.75 22.9594 284.5372)">
		<stop  offset="0" style="stop-color:#A1A9B3"/>
		<stop  offset="0.09" style="stop-color:#A3ACB6"/>
		<stop  offset="0.36" style="stop-color:#C9D4E0"/>
		<stop  offset="0.56" style="stop-color:#B5BFC9"/>
		<stop  offset="0.83" style="stop-color:#9199A2"/>
		<stop  offset="1" style="stop-color:#676D74"/>
	</linearGradient>
	<path fill="url(#SVGID_13_)" d="M185.879,133.559h-11.25v103.5h11.25V133.559z"/>
	
		<linearGradient id="SVGID_14_" gradientUnits="userSpaceOnUse" x1="212.2236" y1="147.3042" x2="202.2236" y2="147.3042" gradientTransform="matrix(0.75 0 0 -0.75 24.621 388.1652)">
		<stop  offset="0" style="stop-color:#A1A9B3"/>
		<stop  offset="0.09" style="stop-color:#A3ACB6"/>
		<stop  offset="0.36" style="stop-color:#C9D4E0"/>
		<stop  offset="0.56" style="stop-color:#B5BFC9"/>
		<stop  offset="0.83" style="stop-color:#9199A2"/>
		<stop  offset="1" style="stop-color:#676D74"/>
	</linearGradient>
	<path fill="url(#SVGID_14_)" d="M183.789,237.188h-7.5v81h7.5V237.188z"/>
	
		<linearGradient id="SVGID_15_" gradientUnits="userSpaceOnUse" x1="218.2261" y1="44.8047" x2="202.2261" y2="44.8047" gradientTransform="matrix(0.75 0 0 -0.75 22.9594 469.4698)">
		<stop  offset="0" style="stop-color:#A1A9B3"/>
		<stop  offset="0.09" style="stop-color:#A3ACB6"/>
		<stop  offset="0.36" style="stop-color:#C9D4E0"/>
		<stop  offset="0.56" style="stop-color:#B5BFC9"/>
		<stop  offset="0.83" style="stop-color:#9199A2"/>
		<stop  offset="1" style="stop-color:#676D74"/>
	</linearGradient>
	<path fill="url(#SVGID_15_)" d="M174.629,318.492h12v234.75h-12V318.492z"/>
	
		<linearGradient id="SVGID_16_" gradientUnits="userSpaceOnUse" x1="298.2261" y1="121.3066" x2="202.2261" y2="121.3066" gradientTransform="matrix(0.75 0 0 -0.75 30.8412 164.4825)">
		<stop  offset="0" style="stop-color:#A1A9B3"/>
		<stop  offset="0.09" style="stop-color:#A3ACB6"/>
		<stop  offset="0.36" style="stop-color:#C9D4E0"/>
		<stop  offset="0.56" style="stop-color:#B5BFC9"/>
		<stop  offset="0.83" style="stop-color:#9199A2"/>
		<stop  offset="1" style="stop-color:#676D74"/>
	</linearGradient>
	<path fill="url(#SVGID_16_)" d="M182.512,133.504v-75.75c0,0,0.426-44.25,43.172-44.25h28.828v1.5h-28.5
		c0,0-37.852-2.461-41.652,42.891l-0.348,75.609H182.512z"/>
	
		<linearGradient id="SVGID_17_" gradientUnits="userSpaceOnUse" x1="222.2222" y1="188.8047" x2="202.2222" y2="188.8047" gradientTransform="matrix(0.75 0 0 -0.75 33.9384 336.9386)">
		<stop  offset="0" style="stop-color:#A1A9B3"/>
		<stop  offset="0.09" style="stop-color:#A3ACB6"/>
		<stop  offset="0.36" style="stop-color:#C9D4E0"/>
		<stop  offset="0.56" style="stop-color:#B5BFC9"/>
		<stop  offset="0.83" style="stop-color:#9199A2"/>
		<stop  offset="1" style="stop-color:#676D74"/>
	</linearGradient>
	<path fill="url(#SVGID_17_)" d="M185.605,185.961h15v18.75h-15V185.961z"/>
	
		<linearGradient id="SVGID_18_" gradientUnits="userSpaceOnUse" x1="185.7051" y1="159.8037" x2="165.7051" y2="159.8037" gradientTransform="matrix(-0.75 0 0 -0.75 505.4269 275.1378)">
		<stop  offset="0" style="stop-color:#A1A9B3"/>
		<stop  offset="0.09" style="stop-color:#A3ACB6"/>
		<stop  offset="0.36" style="stop-color:#C9D4E0"/>
		<stop  offset="0.56" style="stop-color:#B5BFC9"/>
		<stop  offset="0.83" style="stop-color:#9199A2"/>
		<stop  offset="1" style="stop-color:#676D74"/>
	</linearGradient>
	<path fill="url(#SVGID_18_)" d="M381.148,124.16h-15v62.25h15V124.16z"/>
	
		<linearGradient id="SVGID_19_" gradientUnits="userSpaceOnUse" x1="180.707" y1="132.3057" x2="165.707" y2="132.3057" gradientTransform="matrix(-0.75 0 0 -0.75 516.5841 284.5372)">
		<stop  offset="0" style="stop-color:#A1A9B3"/>
		<stop  offset="0.09" style="stop-color:#A3ACB6"/>
		<stop  offset="0.36" style="stop-color:#C9D4E0"/>
		<stop  offset="0.56" style="stop-color:#B5BFC9"/>
		<stop  offset="0.83" style="stop-color:#9199A2"/>
		<stop  offset="1" style="stop-color:#676D74"/>
	</linearGradient>
	<path fill="url(#SVGID_19_)" d="M381.054,133.559h11.25v103.5h-11.25V133.559z"/>
	
		<linearGradient id="SVGID_20_" gradientUnits="userSpaceOnUse" x1="175.7041" y1="147.3042" x2="165.7041" y2="147.3042" gradientTransform="matrix(-0.75 0 0 -0.75 514.922 388.1652)">
		<stop  offset="0" style="stop-color:#A1A9B3"/>
		<stop  offset="0.09" style="stop-color:#A3ACB6"/>
		<stop  offset="0.36" style="stop-color:#C9D4E0"/>
		<stop  offset="0.56" style="stop-color:#B5BFC9"/>
		<stop  offset="0.83" style="stop-color:#9199A2"/>
		<stop  offset="1" style="stop-color:#676D74"/>
	</linearGradient>
	<path fill="url(#SVGID_20_)" d="M383.144,237.188h7.5v81h-7.5V237.188z"/>
	
		<linearGradient id="SVGID_21_" gradientUnits="userSpaceOnUse" x1="181.707" y1="44.8047" x2="165.707" y2="44.8047" gradientTransform="matrix(-0.75 0 0 -0.75 516.5841 469.4698)">
		<stop  offset="0" style="stop-color:#A1A9B3"/>
		<stop  offset="0.09" style="stop-color:#A3ACB6"/>
		<stop  offset="0.36" style="stop-color:#C9D4E0"/>
		<stop  offset="0.56" style="stop-color:#B5BFC9"/>
		<stop  offset="0.83" style="stop-color:#9199A2"/>
		<stop  offset="1" style="stop-color:#676D74"/>
	</linearGradient>
	<path fill="url(#SVGID_21_)" d="M392.304,318.492h-12v234.75h12V318.492z"/>
	
		<linearGradient id="SVGID_22_" gradientUnits="userSpaceOnUse" x1="261.7021" y1="121.3066" x2="165.7021" y2="121.3066" gradientTransform="matrix(-0.75 0 0 -0.75 508.7023 164.4825)">
		<stop  offset="0" style="stop-color:#A1A9B3"/>
		<stop  offset="0.09" style="stop-color:#A3ACB6"/>
		<stop  offset="0.36" style="stop-color:#C9D4E0"/>
		<stop  offset="0.56" style="stop-color:#B5BFC9"/>
		<stop  offset="0.83" style="stop-color:#9199A2"/>
		<stop  offset="1" style="stop-color:#676D74"/>
	</linearGradient>
	<path fill="url(#SVGID_22_)" d="M384.425,133.504v-75.75c0,0-0.43-44.25-43.176-44.25h-28.824v1.5h28.5
		c0,0,37.852-2.461,41.648,42.891l0.352,75.609H384.425z"/>
	
		<linearGradient id="SVGID_23_" gradientUnits="userSpaceOnUse" x1="185.7021" y1="188.8047" x2="165.7021" y2="188.8047" gradientTransform="matrix(-0.75 0 0 -0.75 505.6046 336.9386)">
		<stop  offset="0" style="stop-color:#A1A9B3"/>
		<stop  offset="0.09" style="stop-color:#A3ACB6"/>
		<stop  offset="0.36" style="stop-color:#C9D4E0"/>
		<stop  offset="0.56" style="stop-color:#B5BFC9"/>
		<stop  offset="0.83" style="stop-color:#9199A2"/>
		<stop  offset="1" style="stop-color:#676D74"/>
	</linearGradient>
	<path fill="url(#SVGID_23_)" d="M381.328,185.961h-15v18.75h15V185.961z"/>
	<path fill="#4D5D6C" stroke="#4D5D6C" stroke-linejoin="bevel" stroke-miterlimit="10" d="M200.898,201.594
		c0,0,20.836-10.809,82.82-9.695c61.929,1.445,83.367,9.336,83.367,9.336l0.313,2.609c0,0-24.617-8.477-83.406-8.477
		c-59.093,0.227-83.093,8.813-83.093,8.813V201.594z"/>
	
		<linearGradient id="SVGID_24_" gradientUnits="userSpaceOnUse" x1="432.062" y1="193.1895" x2="202.2222" y2="193.1894" gradientTransform="matrix(0.75 0 0 -0.75 46.1415 346.3927)">
		<stop  offset="0" style="stop-color:#5A6269"/>
		<stop  offset="0.09" style="stop-color:#768089"/>
		<stop  offset="0.43" style="stop-color:#B0BECB"/>
		<stop  offset="0.56" style="stop-color:#9EABB7"/>
		<stop  offset="0.83" style="stop-color:#50575D"/>
		<stop  offset="1" style="stop-color:#4B5258"/>
	</linearGradient>
	<path fill="url(#SVGID_24_)" d="M199.309,204.414c0,0,15.844-9.277,84.387-9.047c68.613,0.047,84.847,9.043,84.847,9.043
		c1.016,0.004,1.633,0.723,1.633,1.617c0.133,0.637-0.73,1.613-1.633,1.613c0.266-0.227-21.645-8.98-84.847-9.043
		c-63.387-0.184-84.289,9.043-84.289,9.043c-0.848-0.227-1.598-0.723-1.598-1.613c0-0.863,0.695-1.617,1.598-1.617L199.309,204.414z
		"/>
	
		<linearGradient id="SVGID_25_" gradientUnits="userSpaceOnUse" x1="432.062" y1="193.1909" x2="202.2222" y2="193.1909" gradientTransform="matrix(0.75 0 0 -0.75 46.1415 342.0421)">
		<stop  offset="0" style="stop-color:#5A6269"/>
		<stop  offset="0.09" style="stop-color:#768089"/>
		<stop  offset="0.43" style="stop-color:#B0BECB"/>
		<stop  offset="0.56" style="stop-color:#9EABB7"/>
		<stop  offset="0.83" style="stop-color:#50575D"/>
		<stop  offset="1" style="stop-color:#4B5258"/>
	</linearGradient>
	<path fill="url(#SVGID_25_)" d="M199.309,200.066c0,0,15.844-9.281,84.387-9.051c68.613,0.051,84.847,9.043,84.847,9.043
		c1.016,0.008,1.633,0.727,1.633,1.617c0.133,0.641-0.73,1.613-1.633,1.613c0.266-0.223-21.645-8.977-84.847-9.039
		c-63.387-0.184-84.289,9.039-84.289,9.039c-0.848-0.223-1.598-0.723-1.598-1.613c0-0.859,0.695-1.617,1.598-1.617L199.309,200.066z
		"/>
	<path fill="#323C46" stroke="#323C46" stroke-linejoin="bevel" stroke-miterlimit="10" d="M208.547,339.468l74.25-0.75l75,0.75
		c0.75,0,1.336,0.598,1.336,1.195c0.164,0.305-0.527,1.086-1.133,1.086l-149.453-0.031c0,0-0.75-0.457-0.75-1.055
		c0-0.445,0.473-1.082,1.078-1.082L208.547,339.468z"/>
	
		<linearGradient id="SVGID_26_" gradientUnits="userSpaceOnUse" x1="408.8599" y1="198.1875" x2="202.2251" y2="198.1875" gradientTransform="matrix(0.75 0 0 -0.75 54.87 490.6222)">
		<stop  offset="0" style="stop-color:#5A6269"/>
		<stop  offset="0.09" style="stop-color:#768089"/>
		<stop  offset="0.43" style="stop-color:#B0BECB"/>
		<stop  offset="0.56" style="stop-color:#9EABB7"/>
		<stop  offset="0.83" style="stop-color:#50575D"/>
		<stop  offset="1" style="stop-color:#4B5258"/>
	</linearGradient>
	<path fill="url(#SVGID_26_)" d="M208.039,341.894c0,0,29.477-2.262,76.179-2.262c46.82,0.012,75.844,2.117,75.844,2.117
		c0.977,0.145,1.383,0.578,1.383,1.289c0.344,0.355-0.641,1.293-1.383,1.293c0.227-0.188-30.355-2.113-75.844-2.113
		c-45.429-0.324-76.343,2.113-76.343,2.113c-0.586-0.188-1.336-0.578-1.336-1.293c0-0.395,0.598-1.289,1.336-1.289L208.039,341.894z
		"/>
	
		<linearGradient id="SVGID_27_" gradientUnits="userSpaceOnUse" x1="408.8608" y1="198.1836" x2="202.2256" y2="198.1836" gradientTransform="matrix(0.75 0 0 -0.75 54.3422 487.1622)">
		<stop  offset="0" style="stop-color:#5A6269"/>
		<stop  offset="0.09" style="stop-color:#768089"/>
		<stop  offset="0.43" style="stop-color:#B0BECB"/>
		<stop  offset="0.56" style="stop-color:#9EABB7"/>
		<stop  offset="0.83" style="stop-color:#50575D"/>
		<stop  offset="1" style="stop-color:#4B5258"/>
	</linearGradient>
	<path fill="url(#SVGID_27_)" d="M207.512,338.433c0,0,29.477-2.258,76.176-2.258c46.824,0.008,75.847,2.113,75.847,2.113
		c0.977,0.145,1.383,0.578,1.383,1.293c0.344,0.352-0.641,1.293-1.383,1.293c0.227-0.191-30.355-2.117-75.847-2.117
		c-45.426-0.324-76.34,2.117-76.34,2.117c-0.586-0.191-1.336-0.578-1.336-1.293c0-0.398,0.598-1.293,1.336-1.293L207.512,338.433z"
		/>
	<path fill="#4D5D6C" stroke="#4D5D6C" stroke-linejoin="bevel" stroke-miterlimit="10" d="M209.934,135.648
		c0-7.5,4.941-14.25,11.039-14.25c6.211,0,11.043,6.523,11.043,14.574c-0.332,7.926-4.945,14.574-11.043,14.574
		c-5.789,0.102-11.039-6.527-11.039-14.574V135.648z"/>
	<path fill="#4D5D6C" stroke="#4D5D6C" stroke-linejoin="bevel" stroke-miterlimit="10" d="M335.925,135.117
		c0-7.5,4.941-14.25,11.039-14.25c6.211,0,11.043,6.523,11.043,14.57c-0.332,7.93-4.945,14.574-11.043,14.574
		c-5.789,0.105-11.039-6.523-11.039-14.574V135.117z"/>
	<path fill="#4D5D6C" stroke="#4D5D6C" stroke-linejoin="bevel" stroke-miterlimit="10" d="M271.32,405.171
		c0-6.75,5.418-12,12.117-12c6.632,0,12.132,5.379,12.132,12.023c-0.25,6.727-5.434,12.02-12.132,12.02
		c-6.867-0.043-12.117-5.398-12.117-12.02V405.171z"/>
	<path fill="#36414B" stroke="#38434D" stroke-linejoin="bevel" stroke-miterlimit="10" d="M268.973,277.352
		c0-7.5,6.465-14.25,14.461-14.25c8.039,0,14.48,6.418,14.48,14.348c0.309,8.152-6.484,14.347-14.48,14.347
		c-7.711-0.195-14.461-6.445-14.461-14.347V277.352z"/>
	<path fill="#4D5D6C" stroke="#4D5D6C" stroke-linejoin="bevel" stroke-miterlimit="10" d="M271.32,277.43
		c0-6.75,5.418-12,12.117-12c6.632,0,12.132,5.375,12.132,12.02c-0.25,6.73-5.434,12.019-12.132,12.019
		c-6.867-0.039-12.117-5.398-12.117-12.019V277.43z"/>
	
		<linearGradient id="SVGID_28_" gradientUnits="userSpaceOnUse" x1="230.2256" y1="159.8057" x2="202.2256" y2="159.8057" gradientTransform="matrix(0.75 0 0 -0.75 18.5453 652.4894)">
		<stop  offset="0" style="stop-color:#A1A9B3"/>
		<stop  offset="0.09" style="stop-color:#A3ACB6"/>
		<stop  offset="0.36" style="stop-color:#C9D4E0"/>
		<stop  offset="0.56" style="stop-color:#B5BFC9"/>
		<stop  offset="0.83" style="stop-color:#9199A2"/>
		<stop  offset="1" style="stop-color:#676D74"/>
	</linearGradient>
	<path fill="url(#SVGID_28_)" d="M176.965,501.511h6.75c3.75,0,7.148,3.145,7.148,7.039l0.352,47.711c0,3.75-3.539,7.32-7.473,7.32
		l-6.777,0.18c-3.75,0-6.75-3.383-6.75-7.273v-48.227c0-3.75,3.184-6.75,7.117-6.75H176.965z"/>
	
		<linearGradient id="SVGID_29_" gradientUnits="userSpaceOnUse" x1="230.2246" y1="159.8057" x2="202.2246" y2="159.8057" gradientTransform="matrix(0.75 0 0 -0.75 224.3544 652.4894)">
		<stop  offset="0" style="stop-color:#A1A9B3"/>
		<stop  offset="0.09" style="stop-color:#A3ACB6"/>
		<stop  offset="0.36" style="stop-color:#C9D4E0"/>
		<stop  offset="0.56" style="stop-color:#B5BFC9"/>
		<stop  offset="0.83" style="stop-color:#9199A2"/>
		<stop  offset="1" style="stop-color:#676D74"/>
	</linearGradient>
	<path fill="url(#SVGID_29_)" d="M382.773,501.511h6.75c3.75,0,7.148,3.145,7.148,7.039l0.352,47.711c0,3.75-3.539,7.32-7.473,7.32
		l-6.777,0.18c-3.75,0-6.75-3.383-6.75-7.273v-48.227c0-3.75,3.184-6.75,7.117-6.75H382.773z"/>
</g>
</svg>
