<?xml version="1.0" encoding="utf-8"?>
<!-- Generator: Adobe Illustrator 16.0.0, SVG Export Plug-In . SVG Version: 6.00 Build 0)  -->
<!DOCTYPE svg PUBLIC "-//W3C//DTD SVG 1.1//EN" "http://www.w3.org/Graphics/SVG/1.1/DTD/svg11.dtd">
<svg preserveAspectRatio="none"   version="1.1" id="图层_1" xmlns="http://www.w3.org/2000/svg" xmlns:xlink="http://www.w3.org/1999/xlink" x="0px" y="0px"
	 width="362.23px" height="558.07px" viewBox="102.469 4.539 362.23 558.07" enable-background="new 102.469 4.539 362.23 558.07"
	 xml:space="preserve">
<g id="surface59">
	
		<linearGradient id="SVGID_1_" gradientUnits="userSpaceOnUse" x1="240.2251" y1="201.3008" x2="240.2251" y2="86.3018" gradientTransform="matrix(0.75 0 0 -0.75 256.0302 358.4327)">
		<stop  offset="0" style="stop-color:#A1A9B3"/>
		<stop  offset="0.09" style="stop-color:#A3ACB6"/>
		<stop  offset="0.36" style="stop-color:#C9D4E0"/>
		<stop  offset="0.56" style="stop-color:#B5BFC9"/>
		<stop  offset="0.83" style="stop-color:#9199A2"/>
		<stop  offset="1" style="stop-color:#676D74"/>
	</linearGradient>
	<path fill="url(#SVGID_1_)" d="M409.199,207.457h54c0.75,0,1.188,0.59,1.188,1.336l0.313,83.414c0,0.75-0.934,1.367-1.688,1.367
		l-53.813,0.133c-0.75,0-1.5-0.754-1.5-1.504v-83.246c0-0.75,0.594-1.5,1.344-1.5H409.199z"/>
	
		<linearGradient id="SVGID_2_" gradientUnits="userSpaceOnUse" x1="210.7222" y1="201.3018" x2="210.7222" y2="188.3018" gradientTransform="matrix(0.75 0 0 -0.75 243.2626 365.215)">
		<stop  offset="0" style="stop-color:#A1A9B3"/>
		<stop  offset="0.09" style="stop-color:#A3ACB6"/>
		<stop  offset="0.36" style="stop-color:#C9D4E0"/>
		<stop  offset="0.56" style="stop-color:#B5BFC9"/>
		<stop  offset="0.83" style="stop-color:#9199A2"/>
		<stop  offset="1" style="stop-color:#676D74"/>
	</linearGradient>
	<path fill="url(#SVGID_2_)" d="M394.929,214.238h12.75v9.75h-12.75V214.238z"/>
	
		<linearGradient id="SVGID_3_" gradientUnits="userSpaceOnUse" x1="210.7222" y1="201.3037" x2="210.7222" y2="188.3037" gradientTransform="matrix(0.75 0 0 -0.75 243.2626 424.1271)">
		<stop  offset="0" style="stop-color:#A1A9B3"/>
		<stop  offset="0.09" style="stop-color:#A3ACB6"/>
		<stop  offset="0.36" style="stop-color:#C9D4E0"/>
		<stop  offset="0.56" style="stop-color:#B5BFC9"/>
		<stop  offset="0.83" style="stop-color:#9199A2"/>
		<stop  offset="1" style="stop-color:#676D74"/>
	</linearGradient>
	<path fill="url(#SVGID_3_)" d="M394.929,273.148h12.75v9.75h-12.75V273.148z"/>
	<path fill="#A1A9B3" d="M414.71,212.922h43.5c0.75,0,1.059,0.598,1.059,1.348l-0.309,72.152c0,0.75-0.301,1.313-1.051,1.313
		l-43.199,0.188c-0.75,0-1.5-0.797-1.5-1.547v-71.953c0-0.75,0.609-1.5,1.359-1.5H414.71z"/>
	<path fill="#BFC9D5" d="M437.875,242.66h16.5c0.75,0,1.594,0.602,1.594,1.352l-0.094,29.398c0,0.75-0.52,1.578-1.27,1.578
		l-16.73-0.078c-0.75,0-1.5-0.527-1.5-1.277V244.16c0-0.75,0.59-1.5,1.34-1.5H437.875z"/>
	<path fill="#697482" d="M414.71,212.922h43.5c0.75,0,1.059,0.602,1.059,1.352l-0.309,8.398h-45.75v-8.25
		c0-0.75,0.609-1.5,1.359-1.5H414.71z"/>
	<path fill="#697482" d="M414.71,287.734h43.5c0.75,0,1.059-0.598,1.059-1.348l-0.309-4.652h-45.75v4.5c0,0.75,0.609,1.5,1.359,1.5
		H414.71z"/>
	<path fill="#7D040F" d="M419.367,252.09c0-3,2.629-6.012,5.902-6.012c3.098,0.012,5.898,2.641,5.898,5.91
		c0.199,3.102-2.648,5.898-5.898,5.898c-2.902,0.203-5.918-2.652-5.918-5.898L419.367,252.09z"/>
	<path fill="#930512" stroke="#FFFFFF" stroke-linejoin="bevel" stroke-miterlimit="10" d="M420.449,251.672
		c0-2.25,2.148-4.512,4.82-4.512c2.68,0.012,4.82,2.156,4.82,4.828c0.109,2.684-2.168,4.816-4.82,4.816
		c-2.57,0.117-4.832-2.164-4.832-4.816L420.449,251.672z"/>
	<path fill="#276F71" d="M419.367,267.777c0-3,2.629-6.012,5.902-6.012c3.098,0.012,5.898,2.641,5.898,5.91
		c0.199,3.102-2.648,5.898-5.898,5.898c-2.902,0.203-5.918-2.652-5.918-5.898L419.367,267.777z"/>
	<path fill="#50BEC1" stroke="#FFFFFF" stroke-linejoin="bevel" stroke-miterlimit="10" d="M420.449,267.359
		c0-2.25,2.148-4.512,4.82-4.512c2.68,0.012,4.82,2.156,4.82,4.828c0.109,2.684-2.168,4.816-4.82,4.816
		c-2.57,0.117-4.832-2.164-4.832-4.816L420.449,267.359z"/>
	
		<linearGradient id="SVGID_4_" gradientUnits="userSpaceOnUse" x1="244.6094" y1="203.7026" x2="649.6118" y2="203.7026" gradientTransform="matrix(-0.6797 0.317 -0.317 -0.6797 610.8151 70.2261)">
		<stop  offset="0" style="stop-color:#949990"/>
		<stop  offset="0.15" style="stop-color:#CDD2C7"/>
		<stop  offset="0.25" style="stop-color:#E3E6E1"/>
		<stop  offset="0.52" style="stop-color:#B0B5AA"/>
		<stop  offset="0.69" style="stop-color:#9CA197"/>
		<stop  offset="0.8" style="stop-color:#93988F"/>
		<stop  offset="0.92" style="stop-color:#8B8F86"/>
		<stop  offset="1" style="stop-color:#A0A59B"/>
	</linearGradient>
	<path fill="url(#SVGID_4_)" d="M377.761,4.539L102.469,132.91l4.438,9.516L382.199,14.055L377.761,4.539z"/>
	
		<linearGradient id="SVGID_5_" gradientUnits="userSpaceOnUse" x1="244.6089" y1="198.7002" x2="252.6099" y2="198.7002" gradientTransform="matrix(-0.6797 0.317 -0.317 -0.6797 481.2819 110.3599)">
		<stop  offset="0" style="stop-color:#949990"/>
		<stop  offset="0.15" style="stop-color:#CDD2C7"/>
		<stop  offset="0.25" style="stop-color:#E3E6E1"/>
		<stop  offset="0.52" style="stop-color:#B0B5AA"/>
		<stop  offset="0.69" style="stop-color:#9CA197"/>
		<stop  offset="0.8" style="stop-color:#93988F"/>
		<stop  offset="0.92" style="stop-color:#8B8F86"/>
		<stop  offset="1" style="stop-color:#A0A59B"/>
	</linearGradient>
	<path fill="url(#SVGID_5_)" d="M248.227,44.672l-5.438,2.535l7.609,16.316l5.438-2.535L248.227,44.672z"/>
	
		<linearGradient id="SVGID_6_" gradientUnits="userSpaceOnUse" x1="244.6094" y1="198.7012" x2="252.6099" y2="198.7012" gradientTransform="matrix(-0.6797 0.317 -0.317 -0.6797 440.2994 129.5767)">
		<stop  offset="0" style="stop-color:#949990"/>
		<stop  offset="0.15" style="stop-color:#CDD2C7"/>
		<stop  offset="0.25" style="stop-color:#E3E6E1"/>
		<stop  offset="0.52" style="stop-color:#B0B5AA"/>
		<stop  offset="0.69" style="stop-color:#9CA197"/>
		<stop  offset="0.8" style="stop-color:#93988F"/>
		<stop  offset="0.92" style="stop-color:#8B8F86"/>
		<stop  offset="1" style="stop-color:#A0A59B"/>
	</linearGradient>
	<path fill="url(#SVGID_6_)" d="M207.246,63.891l-5.438,2.535l7.605,16.313l5.438-2.535L207.246,63.891z"/>
	
		<linearGradient id="SVGID_7_" gradientUnits="userSpaceOnUse" x1="18.7021" y1="289.3208" x2="10.6963" y2="289.3208" gradientTransform="matrix(-0.317 -0.6797 0.6797 -0.317 34.2329 159.5377)">
		<stop  offset="0" style="stop-color:#949990"/>
		<stop  offset="0.15" style="stop-color:#CDD2C7"/>
		<stop  offset="0.25" style="stop-color:#E3E6E1"/>
		<stop  offset="0.52" style="stop-color:#B0B5AA"/>
		<stop  offset="0.69" style="stop-color:#9CA197"/>
		<stop  offset="0.8" style="stop-color:#93988F"/>
		<stop  offset="0.92" style="stop-color:#8B8F86"/>
		<stop  offset="1" style="stop-color:#A0A59B"/>
	</linearGradient>
	<path fill="url(#SVGID_7_)" d="M250.613,49.785l-2.539-5.441l-46.219,21.555l2.535,5.438L250.613,49.785z"/>
	
		<linearGradient id="SVGID_8_" gradientUnits="userSpaceOnUse" x1="165.7046" y1="192.8042" x2="390.7046" y2="192.8042" gradientTransform="matrix(-0.75 0 0 -0.75 460.0001 511.5978)">
		<stop  offset="0" style="stop-color:#949990"/>
		<stop  offset="0.15" style="stop-color:#CDD2C7"/>
		<stop  offset="0.25" style="stop-color:#E3E6E1"/>
		<stop  offset="0.52" style="stop-color:#B0B5AA"/>
		<stop  offset="0.69" style="stop-color:#9CA197"/>
		<stop  offset="0.8" style="stop-color:#93988F"/>
		<stop  offset="0.92" style="stop-color:#8B8F86"/>
		<stop  offset="1" style="stop-color:#A0A59B"/>
	</linearGradient>
	<path fill="url(#SVGID_8_)" d="M335.722,360.621h-168.75v12.75h168.75V360.621z"/>
	
		<linearGradient id="SVGID_9_" gradientUnits="userSpaceOnUse" x1="165.7056" y1="58.3022" x2="225.7056" y2="58.3022" gradientTransform="matrix(-0.75 0 0 -0.75 500.798 499.0861)">
		<stop  offset="0" style="stop-color:#949990"/>
		<stop  offset="0.15" style="stop-color:#CDD2C7"/>
		<stop  offset="0.25" style="stop-color:#E3E6E1"/>
		<stop  offset="0.52" style="stop-color:#B0B5AA"/>
		<stop  offset="0.69" style="stop-color:#9CA197"/>
		<stop  offset="0.8" style="stop-color:#93988F"/>
		<stop  offset="0.92" style="stop-color:#8B8F86"/>
		<stop  offset="1" style="stop-color:#A0A59B"/>
	</linearGradient>
	<path fill="url(#SVGID_9_)" d="M351.769,348.109h-20.25l24.75,214.5h20.25L351.769,348.109z"/>
	
		<linearGradient id="SVGID_10_" gradientUnits="userSpaceOnUse" x1="202.2261" y1="58.3022" x2="262.2261" y2="58.3022" gradientTransform="matrix(0.75 0 0 -0.75 -25.8571 499.0861)">
		<stop  offset="0" style="stop-color:#949990"/>
		<stop  offset="0.15" style="stop-color:#CDD2C7"/>
		<stop  offset="0.25" style="stop-color:#E3E6E1"/>
		<stop  offset="0.52" style="stop-color:#B0B5AA"/>
		<stop  offset="0.69" style="stop-color:#9CA197"/>
		<stop  offset="0.8" style="stop-color:#93988F"/>
		<stop  offset="0.92" style="stop-color:#8B8F86"/>
		<stop  offset="1" style="stop-color:#A0A59B"/>
	</linearGradient>
	<path fill="url(#SVGID_10_)" d="M150.563,348.109h20.25l-24.75,214.5h-20.25L150.563,348.109z"/>
	
		<linearGradient id="SVGID_11_" gradientUnits="userSpaceOnUse" x1="202.2266" y1="162.8042" x2="249.2266" y2="162.8042" gradientTransform="matrix(0.75 0 0 -0.75 9.764 523.8722)">
		<stop  offset="0" style="stop-color:#949990"/>
		<stop  offset="0.15" style="stop-color:#CDD2C7"/>
		<stop  offset="0.25" style="stop-color:#E3E6E1"/>
		<stop  offset="0.52" style="stop-color:#B0B5AA"/>
		<stop  offset="0.69" style="stop-color:#9CA197"/>
		<stop  offset="0.8" style="stop-color:#93988F"/>
		<stop  offset="0.92" style="stop-color:#8B8F86"/>
		<stop  offset="1" style="stop-color:#A0A59B"/>
	</linearGradient>
	<path fill="url(#SVGID_11_)" d="M168.184,372.894l-6.75,57.75l27-42h8.25v-15.75H168.184z"/>
	
		<linearGradient id="SVGID_12_" gradientUnits="userSpaceOnUse" x1="165.7046" y1="162.8042" x2="212.7046" y2="162.8042" gradientTransform="matrix(-0.75 0 0 -0.75 465.6095 523.8722)">
		<stop  offset="0" style="stop-color:#949990"/>
		<stop  offset="0.15" style="stop-color:#CDD2C7"/>
		<stop  offset="0.25" style="stop-color:#E3E6E1"/>
		<stop  offset="0.52" style="stop-color:#B0B5AA"/>
		<stop  offset="0.69" style="stop-color:#9CA197"/>
		<stop  offset="0.8" style="stop-color:#93988F"/>
		<stop  offset="0.92" style="stop-color:#8B8F86"/>
		<stop  offset="1" style="stop-color:#A0A59B"/>
	</linearGradient>
	<path fill="url(#SVGID_12_)" d="M334.582,372.894l6.75,57.75l-27-42h-8.25v-15.75H334.582z"/>
	
		<linearGradient id="SVGID_13_" gradientUnits="userSpaceOnUse" x1="5.8047" y1="402.2261" x2="5.8047" y2="346.2261" gradientTransform="matrix(0 -0.75 0.75 0 -30.9347 402.3214)">
		<stop  offset="0" style="stop-color:#757871"/>
		<stop  offset="0.15" style="stop-color:#A7ABA2"/>
		<stop  offset="0.25" style="stop-color:#D1D3D0"/>
		<stop  offset="0.52" style="stop-color:#8B8F86"/>
		<stop  offset="0.69" style="stop-color:#7B7F77"/>
		<stop  offset="0.8" style="stop-color:#747770"/>
		<stop  offset="0.92" style="stop-color:#6D7069"/>
		<stop  offset="1" style="stop-color:#7E827A"/>
	</linearGradient>
	<path fill="url(#SVGID_13_)" d="M270.734,401.343v-6.75h-42v6.75H270.734z"/>
	
		<linearGradient id="SVGID_14_" gradientUnits="userSpaceOnUse" x1="3.9385" y1="402.2251" x2="3.9385" y2="328.2808" gradientTransform="matrix(0 -0.75 0.75 0 -22.774 396.8517)">
		<stop  offset="0" style="stop-color:#949990"/>
		<stop  offset="0.15" style="stop-color:#CDD2C7"/>
		<stop  offset="0.25" style="stop-color:#E3E6E1"/>
		<stop  offset="0.52" style="stop-color:#B0B5AA"/>
		<stop  offset="0.69" style="stop-color:#9CA197"/>
		<stop  offset="0.8" style="stop-color:#93988F"/>
		<stop  offset="0.92" style="stop-color:#8B8F86"/>
		<stop  offset="1" style="stop-color:#A0A59B"/>
	</linearGradient>
	<path fill="url(#SVGID_14_)" d="M278.895,394.375c0-1.5-0.816-2.461-1.828-2.461l-51.422,0.211c-1.5,0-2.207,0.609-2.207,1.617
		c-0.043,1.383,0.84,2.141,1.848,2.141l52.109-0.008c0.75,0,1.5-0.809,1.5-1.816V394.375z"/>
	
		<linearGradient id="SVGID_15_" gradientUnits="userSpaceOnUse" x1="165.7065" y1="516.1226" x2="267.7065" y2="516.1226" gradientTransform="matrix(-0.75 0 0 0.75 413.5255 76.0643)">
		<stop  offset="0" style="stop-color:#949990"/>
		<stop  offset="0.15" style="stop-color:#CDD2C7"/>
		<stop  offset="0.25" style="stop-color:#E3E6E1"/>
		<stop  offset="0.52" style="stop-color:#B0B5AA"/>
		<stop  offset="0.69" style="stop-color:#9CA197"/>
		<stop  offset="0.8" style="stop-color:#93988F"/>
		<stop  offset="0.92" style="stop-color:#8B8F86"/>
		<stop  offset="1" style="stop-color:#A0A59B"/>
	</linearGradient>
	<path fill="url(#SVGID_15_)" d="M289.246,425.281v75.75h-76.5v-75.75H289.246z"/>
	
		<linearGradient id="SVGID_16_" gradientUnits="userSpaceOnUse" x1="165.7056" y1="539.6265" x2="267.7046" y2="539.6265" gradientTransform="matrix(-0.75 0 0 0.75 413.5519 116.4559)">
		<stop  offset="0" style="stop-color:#949990"/>
		<stop  offset="0.15" style="stop-color:#CDD2C7"/>
		<stop  offset="0.25" style="stop-color:#E3E6E1"/>
		<stop  offset="0.52" style="stop-color:#B0B5AA"/>
		<stop  offset="0.69" style="stop-color:#9CA197"/>
		<stop  offset="0.8" style="stop-color:#93988F"/>
		<stop  offset="0.92" style="stop-color:#8B8F86"/>
		<stop  offset="1" style="stop-color:#A0A59B"/>
	</linearGradient>
	<path fill="url(#SVGID_16_)" d="M289.273,500.925v32.25c0,0-0.566,3.32-4.84,4.438c0.34,0.063-14.968,3.813-33.265,3.813
		c-18.145,0-33.289-3.813-33.289-3.813c-5.105-1.438-4.82-4.813-4.82-4.813l-0.285-31.875H289.273z"/>
	
		<linearGradient id="SVGID_17_" gradientUnits="userSpaceOnUse" x1="165.7065" y1="566.1226" x2="267.7065" y2="566.1226" gradientTransform="matrix(-0.75 0 0 0.75 413.5255 76.7557)">
		<stop  offset="0" style="stop-color:#7B7E77"/>
		<stop  offset="0.15" style="stop-color:#AEB2AA"/>
		<stop  offset="0.25" style="stop-color:#D5D7D3"/>
		<stop  offset="0.52" style="stop-color:#92968D"/>
		<stop  offset="0.69" style="stop-color:#81857D"/>
		<stop  offset="0.8" style="stop-color:#7A7D76"/>
		<stop  offset="0.92" style="stop-color:#73766F"/>
		<stop  offset="1" style="stop-color:#848880"/>
	</linearGradient>
	<path fill="url(#SVGID_17_)" d="M289.246,500.972v0.75h-76.5v-0.75H289.246z"/>
	
		<linearGradient id="SVGID_18_" gradientUnits="userSpaceOnUse" x1="413.104" y1="402.2476" x2="413.104" y2="400.1011" gradientTransform="matrix(0 0.75 0.75 0 -49.9938 155.9637)">
		<stop  offset="0" style="stop-color:#949990"/>
		<stop  offset="0.15" style="stop-color:#CDD2C7"/>
		<stop  offset="0.25" style="stop-color:#E3E6E1"/>
		<stop  offset="0.52" style="stop-color:#B0B5AA"/>
		<stop  offset="0.69" style="stop-color:#9CA197"/>
		<stop  offset="0.8" style="stop-color:#93988F"/>
		<stop  offset="0.92" style="stop-color:#8B8F86"/>
		<stop  offset="1" style="stop-color:#A0A59B"/>
	</linearGradient>
	<path fill="url(#SVGID_18_)" d="M251.676,431.683v68.25c0,0.75-0.207,0.715-0.484,0.715c-1.016,0.035-1.109-0.301-1.109-0.668
		l0.094-68.297c0-0.75,0.133-0.75,0.406-0.75c1.094,0,1.109,0.277,1.109,0.645L251.676,431.683z"/>
	
		<linearGradient id="SVGID_19_" gradientUnits="userSpaceOnUse" x1="413.104" y1="402.2437" x2="413.104" y2="400.0993" gradientTransform="matrix(0 0.75 0.75 0 -55.3395 155.9637)">
		<stop  offset="0" style="stop-color:#949990"/>
		<stop  offset="0.15" style="stop-color:#CDD2C7"/>
		<stop  offset="0.25" style="stop-color:#E3E6E1"/>
		<stop  offset="0.52" style="stop-color:#B0B5AA"/>
		<stop  offset="0.69" style="stop-color:#9CA197"/>
		<stop  offset="0.8" style="stop-color:#93988F"/>
		<stop  offset="0.92" style="stop-color:#8B8F86"/>
		<stop  offset="1" style="stop-color:#A0A59B"/>
	</linearGradient>
	<path fill="url(#SVGID_19_)" d="M246.328,431.683v68.25c0,0.75-0.207,0.715-0.484,0.715c-1.016,0.035-1.105-0.301-1.105-0.668
		l0.09-68.297c0-0.75,0.133-0.75,0.41-0.75c1.09,0,1.105,0.277,1.105,0.645L246.328,431.683z"/>
	
		<linearGradient id="SVGID_20_" gradientUnits="userSpaceOnUse" x1="413.104" y1="402.2456" x2="413.104" y2="400.1023" gradientTransform="matrix(0 0.75 0.75 0 -60.6901 155.9637)">
		<stop  offset="0" style="stop-color:#949990"/>
		<stop  offset="0.15" style="stop-color:#CDD2C7"/>
		<stop  offset="0.25" style="stop-color:#E3E6E1"/>
		<stop  offset="0.52" style="stop-color:#B0B5AA"/>
		<stop  offset="0.69" style="stop-color:#9CA197"/>
		<stop  offset="0.8" style="stop-color:#93988F"/>
		<stop  offset="0.92" style="stop-color:#8B8F86"/>
		<stop  offset="1" style="stop-color:#A0A59B"/>
	</linearGradient>
	<path fill="url(#SVGID_20_)" d="M240.98,431.683v68.25c0,0.75-0.211,0.715-0.484,0.715c-1.016,0.035-1.109-0.301-1.109-0.668
		l0.094-68.297c0-0.75,0.129-0.75,0.406-0.75c1.094,0,1.109,0.277,1.109,0.645L240.98,431.683z"/>
	
		<linearGradient id="SVGID_21_" gradientUnits="userSpaceOnUse" x1="413.104" y1="402.2466" x2="413.104" y2="400.1011" gradientTransform="matrix(0 0.75 0.75 0 -66.0406 155.9637)">
		<stop  offset="0" style="stop-color:#949990"/>
		<stop  offset="0.15" style="stop-color:#CDD2C7"/>
		<stop  offset="0.25" style="stop-color:#E3E6E1"/>
		<stop  offset="0.52" style="stop-color:#B0B5AA"/>
		<stop  offset="0.69" style="stop-color:#9CA197"/>
		<stop  offset="0.8" style="stop-color:#93988F"/>
		<stop  offset="0.92" style="stop-color:#8B8F86"/>
		<stop  offset="1" style="stop-color:#A0A59B"/>
	</linearGradient>
	<path fill="url(#SVGID_21_)" d="M235.629,431.683v68.25c0,0.75-0.207,0.715-0.484,0.715c-1.016,0.035-1.109-0.301-1.109-0.668
		l0.094-68.297c0-0.75,0.129-0.75,0.406-0.75c1.094,0,1.109,0.277,1.109,0.645L235.629,431.683z"/>
	
		<linearGradient id="SVGID_22_" gradientUnits="userSpaceOnUse" x1="413.104" y1="402.2466" x2="413.104" y2="400.1023" gradientTransform="matrix(0 0.75 0.75 0 -71.7296 155.9637)">
		<stop  offset="0" style="stop-color:#949990"/>
		<stop  offset="0.15" style="stop-color:#CDD2C7"/>
		<stop  offset="0.25" style="stop-color:#E3E6E1"/>
		<stop  offset="0.52" style="stop-color:#B0B5AA"/>
		<stop  offset="0.69" style="stop-color:#9CA197"/>
		<stop  offset="0.8" style="stop-color:#93988F"/>
		<stop  offset="0.92" style="stop-color:#8B8F86"/>
		<stop  offset="1" style="stop-color:#A0A59B"/>
	</linearGradient>
	<path fill="url(#SVGID_22_)" d="M229.938,431.683v68.25c0,0.75-0.207,0.715-0.484,0.715c-1.016,0.035-1.105-0.301-1.105-0.668
		l0.09-68.297c0-0.75,0.133-0.75,0.41-0.75c1.09,0,1.105,0.277,1.105,0.645L229.938,431.683z"/>
	
		<linearGradient id="SVGID_23_" gradientUnits="userSpaceOnUse" x1="413.104" y1="402.2476" x2="413.104" y2="400.1011" gradientTransform="matrix(0 0.75 0.75 0 -76.9117 155.9637)">
		<stop  offset="0" style="stop-color:#949990"/>
		<stop  offset="0.15" style="stop-color:#CDD2C7"/>
		<stop  offset="0.25" style="stop-color:#E3E6E1"/>
		<stop  offset="0.52" style="stop-color:#B0B5AA"/>
		<stop  offset="0.69" style="stop-color:#9CA197"/>
		<stop  offset="0.8" style="stop-color:#93988F"/>
		<stop  offset="0.92" style="stop-color:#8B8F86"/>
		<stop  offset="1" style="stop-color:#A0A59B"/>
	</linearGradient>
	<path fill="url(#SVGID_23_)" d="M224.758,431.683v68.25c0,0.75-0.207,0.715-0.484,0.715c-1.016,0.035-1.109-0.301-1.109-0.668
		l0.094-68.297c0-0.75,0.133-0.75,0.406-0.75c1.094,0,1.109,0.277,1.109,0.645L224.758,431.683z"/>
	
		<linearGradient id="SVGID_24_" gradientUnits="userSpaceOnUse" x1="413.104" y1="402.2466" x2="413.104" y2="400.1001" gradientTransform="matrix(0 0.75 0.75 0 -44.6378 155.9637)">
		<stop  offset="0" style="stop-color:#949990"/>
		<stop  offset="0.15" style="stop-color:#CDD2C7"/>
		<stop  offset="0.25" style="stop-color:#E3E6E1"/>
		<stop  offset="0.52" style="stop-color:#B0B5AA"/>
		<stop  offset="0.69" style="stop-color:#9CA197"/>
		<stop  offset="0.8" style="stop-color:#93988F"/>
		<stop  offset="0.92" style="stop-color:#8B8F86"/>
		<stop  offset="1" style="stop-color:#A0A59B"/>
	</linearGradient>
	<path fill="url(#SVGID_24_)" d="M257.031,431.683v68.25c0,0.75-0.207,0.715-0.484,0.715c-1.016,0.035-1.109-0.301-1.109-0.668
		l0.094-68.297c0-0.75,0.133-0.75,0.406-0.75c1.094,0,1.109,0.277,1.109,0.645L257.031,431.683z"/>
	
		<linearGradient id="SVGID_25_" gradientUnits="userSpaceOnUse" x1="413.104" y1="402.2437" x2="413.104" y2="400.0993" gradientTransform="matrix(0 0.75 0.75 0 -82.0934 155.9637)">
		<stop  offset="0" style="stop-color:#949990"/>
		<stop  offset="0.15" style="stop-color:#CDD2C7"/>
		<stop  offset="0.25" style="stop-color:#E3E6E1"/>
		<stop  offset="0.52" style="stop-color:#B0B5AA"/>
		<stop  offset="0.69" style="stop-color:#9CA197"/>
		<stop  offset="0.8" style="stop-color:#93988F"/>
		<stop  offset="0.92" style="stop-color:#8B8F86"/>
		<stop  offset="1" style="stop-color:#A0A59B"/>
	</linearGradient>
	<path fill="url(#SVGID_25_)" d="M219.574,431.683v68.25c0,0.75-0.207,0.715-0.484,0.715c-1.016,0.035-1.105-0.301-1.105-0.668
		l0.09-68.297c0-0.75,0.133-0.75,0.41-0.75c1.09,0,1.105,0.277,1.105,0.645L219.574,431.683z"/>
	
		<linearGradient id="SVGID_26_" gradientUnits="userSpaceOnUse" x1="413.104" y1="402.2456" x2="413.104" y2="400.1023" gradientTransform="matrix(0 0.75 0.75 0 -23.235 155.9637)">
		<stop  offset="0" style="stop-color:#949990"/>
		<stop  offset="0.15" style="stop-color:#CDD2C7"/>
		<stop  offset="0.25" style="stop-color:#E3E6E1"/>
		<stop  offset="0.52" style="stop-color:#B0B5AA"/>
		<stop  offset="0.69" style="stop-color:#9CA197"/>
		<stop  offset="0.8" style="stop-color:#93988F"/>
		<stop  offset="0.92" style="stop-color:#8B8F86"/>
		<stop  offset="1" style="stop-color:#A0A59B"/>
	</linearGradient>
	<path fill="url(#SVGID_26_)" d="M278.434,431.683v68.25c0,0.75-0.207,0.715-0.484,0.715c-1.016,0.035-1.109-0.301-1.109-0.668
		l0.094-68.297c0-0.75,0.133-0.75,0.406-0.75c1.094,0,1.109,0.277,1.109,0.645L278.434,431.683z"/>
	
		<linearGradient id="SVGID_27_" gradientUnits="userSpaceOnUse" x1="413.104" y1="402.2446" x2="413.104" y2="400.1003" gradientTransform="matrix(0 0.75 0.75 0 -28.5861 155.9637)">
		<stop  offset="0" style="stop-color:#949990"/>
		<stop  offset="0.15" style="stop-color:#CDD2C7"/>
		<stop  offset="0.25" style="stop-color:#E3E6E1"/>
		<stop  offset="0.52" style="stop-color:#B0B5AA"/>
		<stop  offset="0.69" style="stop-color:#9CA197"/>
		<stop  offset="0.8" style="stop-color:#93988F"/>
		<stop  offset="0.92" style="stop-color:#8B8F86"/>
		<stop  offset="1" style="stop-color:#A0A59B"/>
	</linearGradient>
	<path fill="url(#SVGID_27_)" d="M273.082,431.683v68.25c0,0.75-0.207,0.715-0.484,0.715c-1.016,0.035-1.105-0.301-1.105-0.668
		l0.09-68.297c0-0.75,0.133-0.75,0.41-0.75c1.09,0,1.105,0.277,1.105,0.645L273.082,431.683z"/>
	
		<linearGradient id="SVGID_28_" gradientUnits="userSpaceOnUse" x1="413.104" y1="402.2466" x2="413.104" y2="400.1023" gradientTransform="matrix(0 0.75 0.75 0 -33.9366 155.9637)">
		<stop  offset="0" style="stop-color:#949990"/>
		<stop  offset="0.15" style="stop-color:#CDD2C7"/>
		<stop  offset="0.25" style="stop-color:#E3E6E1"/>
		<stop  offset="0.52" style="stop-color:#B0B5AA"/>
		<stop  offset="0.69" style="stop-color:#9CA197"/>
		<stop  offset="0.8" style="stop-color:#93988F"/>
		<stop  offset="0.92" style="stop-color:#8B8F86"/>
		<stop  offset="1" style="stop-color:#A0A59B"/>
	</linearGradient>
	<path fill="url(#SVGID_28_)" d="M267.734,431.683v68.25c0,0.75-0.211,0.715-0.488,0.715c-1.012,0.035-1.105-0.301-1.105-0.668
		l0.094-68.297c0-0.75,0.129-0.75,0.406-0.75c1.094,0,1.109,0.277,1.109,0.645L267.734,431.683z"/>
	
		<linearGradient id="SVGID_29_" gradientUnits="userSpaceOnUse" x1="413.104" y1="402.2476" x2="413.104" y2="400.1021" gradientTransform="matrix(0 0.75 0.75 0 -39.2872 155.9637)">
		<stop  offset="0" style="stop-color:#949990"/>
		<stop  offset="0.15" style="stop-color:#CDD2C7"/>
		<stop  offset="0.25" style="stop-color:#E3E6E1"/>
		<stop  offset="0.52" style="stop-color:#B0B5AA"/>
		<stop  offset="0.69" style="stop-color:#9CA197"/>
		<stop  offset="0.8" style="stop-color:#93988F"/>
		<stop  offset="0.92" style="stop-color:#8B8F86"/>
		<stop  offset="1" style="stop-color:#A0A59B"/>
	</linearGradient>
	<path fill="url(#SVGID_29_)" d="M262.383,431.683v68.25c0,0.75-0.211,0.715-0.484,0.715c-1.016,0.035-1.109-0.301-1.109-0.668
		l0.094-68.297c0-0.75,0.129-0.75,0.406-0.75c1.094,0,1.109,0.277,1.109,0.645L262.383,431.683z"/>
	
		<linearGradient id="SVGID_30_" gradientUnits="userSpaceOnUse" x1="413.104" y1="402.2476" x2="413.104" y2="400.1011" gradientTransform="matrix(0 0.75 0.75 0 -17.8844 155.9637)">
		<stop  offset="0" style="stop-color:#949990"/>
		<stop  offset="0.15" style="stop-color:#CDD2C7"/>
		<stop  offset="0.25" style="stop-color:#E3E6E1"/>
		<stop  offset="0.52" style="stop-color:#B0B5AA"/>
		<stop  offset="0.69" style="stop-color:#9CA197"/>
		<stop  offset="0.8" style="stop-color:#93988F"/>
		<stop  offset="0.92" style="stop-color:#8B8F86"/>
		<stop  offset="1" style="stop-color:#A0A59B"/>
	</linearGradient>
	<path fill="url(#SVGID_30_)" d="M283.785,431.683v68.25c0,0.75-0.207,0.715-0.484,0.715c-1.016,0.035-1.109-0.301-1.109-0.668
		l0.094-68.297c0-0.75,0.129-0.75,0.406-0.75c1.094,0,1.109,0.277,1.109,0.645L283.785,431.683z"/>
	
		<linearGradient id="SVGID_31_" gradientUnits="userSpaceOnUse" x1="298.2212" y1="554.5815" x2="202.2227" y2="554.5815" gradientTransform="matrix(0.75 0 0 0.75 63.4886 -2.9318)">
		<stop  offset="0" style="stop-color:#949990"/>
		<stop  offset="0.15" style="stop-color:#CDD2C7"/>
		<stop  offset="0.25" style="stop-color:#E3E6E1"/>
		<stop  offset="0.52" style="stop-color:#B0B5AA"/>
		<stop  offset="0.69" style="stop-color:#9CA197"/>
		<stop  offset="0.8" style="stop-color:#93988F"/>
		<stop  offset="0.92" style="stop-color:#8B8F86"/>
		<stop  offset="1" style="stop-color:#A0A59B"/>
	</linearGradient>
	<path fill="url(#SVGID_31_)" d="M287.156,422.035c0,0-2.203-10.063-10.089-18.063c0.34,0.063-51.785,0-51.785,0
		c-8.625,9.063-10.125,18.063-10.125,18.063H287.156z"/>
	
		<linearGradient id="SVGID_32_" gradientUnits="userSpaceOnUse" x1="309.2222" y1="564.6313" x2="202.2231" y2="564.6313" gradientTransform="matrix(0.75 0 0 0.75 59.4418 0.8778)">
		<stop  offset="0" style="stop-color:#7B7E77"/>
		<stop  offset="0.15" style="stop-color:#AEB2AA"/>
		<stop  offset="0.25" style="stop-color:#D5D7D3"/>
		<stop  offset="0.52" style="stop-color:#92968D"/>
		<stop  offset="0.69" style="stop-color:#81857D"/>
		<stop  offset="0.8" style="stop-color:#7A7D76"/>
		<stop  offset="0.92" style="stop-color:#73766F"/>
		<stop  offset="1" style="stop-color:#848880"/>
	</linearGradient>
	<path fill="url(#SVGID_32_)" d="M291.359,424.347v-1.5h-80.25v1.5c0,0.75,0.391,1.508,0.832,1.508l78.667-0.008
		c0,0,0.613-0.742,0.613-1.668L291.359,424.347z"/>
	
		<linearGradient id="SVGID_33_" gradientUnits="userSpaceOnUse" x1="309.2222" y1="564.6509" x2="202.2231" y2="564.6509" gradientTransform="matrix(0.75 0 0 0.75 59.4418 -0.5714)">
		<stop  offset="0" style="stop-color:#949990"/>
		<stop  offset="0.15" style="stop-color:#CDD2C7"/>
		<stop  offset="0.25" style="stop-color:#E3E6E1"/>
		<stop  offset="0.52" style="stop-color:#B0B5AA"/>
		<stop  offset="0.69" style="stop-color:#9CA197"/>
		<stop  offset="0.8" style="stop-color:#93988F"/>
		<stop  offset="0.92" style="stop-color:#8B8F86"/>
		<stop  offset="1" style="stop-color:#A0A59B"/>
	</linearGradient>
	<path fill="url(#SVGID_33_)" d="M291.359,423.648v-0.75c0-0.75-0.504-1.313-0.945-1.313l-78.554-0.188c0,0-0.75,0.652-0.75,1.219
		v1.031c0,0,0.391,0.785,0.832,0.785l78.667-0.035c0,0,0.613-0.426,0.613-0.996L291.359,423.648z"/>
	
		<linearGradient id="SVGID_34_" gradientUnits="userSpaceOnUse" x1="3.9399" y1="402.2261" x2="3.9399" y2="328.2808" gradientTransform="matrix(0 -0.75 0.75 0 -22.6495 405.0157)">
		<stop  offset="0" style="stop-color:#949990"/>
		<stop  offset="0.15" style="stop-color:#CDD2C7"/>
		<stop  offset="0.25" style="stop-color:#E3E6E1"/>
		<stop  offset="0.52" style="stop-color:#B0B5AA"/>
		<stop  offset="0.69" style="stop-color:#9CA197"/>
		<stop  offset="0.8" style="stop-color:#93988F"/>
		<stop  offset="0.92" style="stop-color:#8B8F86"/>
		<stop  offset="1" style="stop-color:#A0A59B"/>
	</linearGradient>
	<path fill="url(#SVGID_34_)" d="M279.02,402.539c0-1.5-0.816-2.461-1.828-2.461l-51.422,0.211c-1.5,0-2.207,0.609-2.207,1.617
		c-0.043,1.383,0.836,2.141,1.848,2.141l52.109-0.008c0.75,0,1.5-0.809,1.5-1.816V402.539z"/>
	
		<linearGradient id="SVGID_35_" gradientUnits="userSpaceOnUse" x1="165.7056" y1="193.8042" x2="549.7046" y2="193.8042" gradientTransform="matrix(-0.75 0 0 -0.75 519.3722 293.4396)">
		<stop  offset="0" style="stop-color:#898D85"/>
		<stop  offset="0.15" style="stop-color:#BFC4BB"/>
		<stop  offset="0.25" style="stop-color:#DDDFDA"/>
		<stop  offset="0.52" style="stop-color:#A2A79E"/>
		<stop  offset="0.69" style="stop-color:#90948C"/>
		<stop  offset="0.8" style="stop-color:#888C84"/>
		<stop  offset="0.92" style="stop-color:#80847D"/>
		<stop  offset="1" style="stop-color:#949890"/>
	</linearGradient>
	<path fill="url(#SVGID_35_)" d="M395.093,142.461h-288v11.25h288V142.461z"/>
	
		<linearGradient id="SVGID_36_" gradientUnits="userSpaceOnUse" x1="165.7056" y1="62.4263" x2="549.7046" y2="62.4263" gradientTransform="matrix(-0.75 0 0 -0.75 519.3722 304.0177)">
		<stop  offset="0" style="stop-color:#949990"/>
		<stop  offset="0.15" style="stop-color:#CDD2C7"/>
		<stop  offset="0.25" style="stop-color:#E3E6E1"/>
		<stop  offset="0.52" style="stop-color:#B0B5AA"/>
		<stop  offset="0.69" style="stop-color:#9CA197"/>
		<stop  offset="0.8" style="stop-color:#93988F"/>
		<stop  offset="0.92" style="stop-color:#8B8F86"/>
		<stop  offset="1" style="stop-color:#A0A59B"/>
	</linearGradient>
	<path fill="url(#SVGID_36_)" d="M395.093,153.039h-288v154.5c0,0,3.563,39.285,65.676,53.676c0.324,0.324,156.8,0,156.8,0
		c62.523-13.926,65.523-53.754,65.523-53.754V153.039z"/>
	
		<linearGradient id="SVGID_37_" gradientUnits="userSpaceOnUse" x1="165.7036" y1="152.5962" x2="286.7026" y2="152.5962" gradientTransform="matrix(-0.75 0 0 -0.75 420.7931 462.1671)">
		<stop  offset="0" style="stop-color:#949990"/>
		<stop  offset="0.15" style="stop-color:#CDD2C7"/>
		<stop  offset="0.25" style="stop-color:#E3E6E1"/>
		<stop  offset="0.52" style="stop-color:#B0B5AA"/>
		<stop  offset="0.75" style="stop-color:#9CA197"/>
		<stop  offset="0.92" style="stop-color:#93988F"/>
		<stop  offset="1" style="stop-color:#8B8F86"/>
	</linearGradient>
	<path fill="url(#SVGID_37_)" d="M295.015,311.187h-87.75c-0.75,0-1.449,0.598-1.449,1.348l-0.051,70.652
		c0,0.75,0.66,1.066,1.41,1.066l87.839-0.316c0.75,0,1.5-0.297,1.5-1.043v-70.207c0-0.75-0.609-1.5-1.359-1.5H295.015z"/>
	<path fill="#9DA397" d="M282.691,304.683h-63c-0.75,0-1.551,0.602-1.551,1.352l0.051,84.148c0,0.75,0.574,1.746,1.324,1.746
		l63.176-0.246c0.75,0,1.5-0.379,1.5-1.129v-84.371c0-0.75-0.601-1.5-1.351-1.5H282.691z"/>
	
		<linearGradient id="SVGID_38_" gradientUnits="userSpaceOnUse" x1="165.7036" y1="190.7539" x2="286.7026" y2="190.7539" gradientTransform="matrix(-0.75 0 0 -0.75 420.7931 462.17)">
		<stop  offset="0" style="stop-color:#949990"/>
		<stop  offset="0.15" style="stop-color:#CDD2C7"/>
		<stop  offset="0.25" style="stop-color:#E3E6E1"/>
		<stop  offset="0.52" style="stop-color:#B0B5AA"/>
		<stop  offset="0.75" style="stop-color:#9CA197"/>
		<stop  offset="0.92" style="stop-color:#93988F"/>
		<stop  offset="1" style="stop-color:#8B8F86"/>
	</linearGradient>
	<path fill="url(#SVGID_38_)" d="M295.015,311.191h-87.75c-0.75,0-1.449,0.59-1.449,1.34l-0.051,12.91c0,0.75,0.66,1.594,1.41,1.594
		l87.839-0.094c0.75,0,1.5-0.516,1.5-1.262v-12.988c0-0.75-0.609-1.516-1.359-1.516L295.015,311.191z"/>
</g>
</svg>
