<?xml version="1.0" encoding="utf-8"?>
<!-- Generator: Adobe Illustrator 16.0.0, SVG Export Plug-In . SVG Version: 6.00 Build 0)  -->
<!DOCTYPE svg PUBLIC "-//W3C//DTD SVG 1.1//EN" "http://www.w3.org/Graphics/SVG/1.1/DTD/svg11.dtd">
<svg preserveAspectRatio="none"   version="1.1" id="图层_1" xmlns="http://www.w3.org/2000/svg" xmlns:xlink="http://www.w3.org/1999/xlink" x="0px" y="0px"
	 width="565.853px" height="292.804px" viewBox="-0.068 272.051 565.853 292.804"
	 enable-background="new -0.068 272.051 565.853 292.804" xml:space="preserve">
<g id="surface401">
	
		<linearGradient id="SVGID_1_" gradientUnits="userSpaceOnUse" x1="321.2427" y1="256.9663" x2="495.0547" y2="-115.7749" gradientTransform="matrix(0.75 0 0 -0.75 -150.507 512.8976)">
		<stop  offset="0.31" style="stop-color:#BFD4E4"/>
		<stop  offset="0.37" style="stop-color:#9EBED6"/>
		<stop  offset="0.48" style="stop-color:#FCFDFE"/>
		<stop  offset="0.54" style="stop-color:#EEF3F8"/>
		<stop  offset="0.79" style="stop-color:#81AACA"/>
	</linearGradient>
	<path fill="url(#SVGID_1_)" d="M64.91,470.671c0,0-14.082,4.551-21.488,15.754L29.66,501.421c0,0-13.25,15.59-28.5,54.363
		c0-0.363-2.289,3.191,16.035,1.41c18.465-1.773,52.742-11.949,81.09-27.805c28.125-15.969,78.016-47.559,78.016-47.559
		c0.359,0.09,84.809-52.273,93.523-58.879c8.836-6.281,13.941-11.203,13.941-11.203c0.145-0.328,24.539-19.242,27.156-45.09
		c-0.012-0.238,0.434-9.48-16.559-1.723c0.047-0.016-26.136,3.445-56.199,19.387c-0.004,0.098-84.082,42.648-113.707,56.434
		C94.91,454.921,64.77,470.484,64.77,470.484L64.91,470.671z"/>
	
		<linearGradient id="SVGID_2_" gradientUnits="userSpaceOnUse" x1="202.2266" y1="147.9204" x2="721.5386" y2="147.9204" gradientTransform="matrix(0.75 0 0 -0.75 24.6307 576.7657)">
		<stop  offset="0" style="stop-color:#FFFFFF"/>
		<stop  offset="0.13" style="stop-color:#FFFFFF"/>
		<stop  offset="0.43" style="stop-color:#E0EAF2"/>
		<stop  offset="0.9" style="stop-color:#BFD4E4"/>
		<stop  offset="1" style="stop-color:#FFFFFF"/>
	</linearGradient>
	<path fill="url(#SVGID_2_)" d="M176.301,482.039c0,0,24.395,0.078,52.715,3.957c28.285,3.543,131.57,12.492,182.109,14.645
		c50.176,2.398,118.5,5.172,118.5,5.172c-0.074,0.227,10.02,0,14.813-6.895c4.613-7.129,21.348-42.219,21.348-42.219
		c-0.234-0.16,0-5.602-5.664,4.309c-5.82,9.781-15.684,27.57-15.684,27.57c0.113,0.211,0,3.879-11.328,3.016L324.05,459.539
		c0,0-60.617-8.871-66.718-14.902c-0.031-0.098,5.676-16.121,8.582-18.848L176.301,482.039z"/>
	
		<linearGradient id="SVGID_3_" gradientUnits="userSpaceOnUse" x1="307.1226" y1="201.1919" x2="307.1226" y2="14.7617" gradientTransform="matrix(0.75 0 0 -0.75 -130.7389 453.1222)">
		<stop  offset="0" style="stop-color:#B2CBDF"/>
		<stop  offset="0.26" style="stop-color:#FDFEFE"/>
		<stop  offset="0.39" style="stop-color:#EFF4F8"/>
		<stop  offset="0.66" style="stop-color:#E0EAF2"/>
		<stop  offset="1" style="stop-color:#CCDDEA"/>
	</linearGradient>
	<path fill="url(#SVGID_3_)" d="M178.43,415.394l-135-75.75c0,0-6.98-3.141-5.238-9.605l5.238-26.395c0,0-1.75-3.762-5.238,0.977
		c-3.762,5.023-16.988,37.051-16.988,37.051c-0.273,0.223-1.742,3.445,3.051,6.895c4.926,3.078,84.734,83.793,97.586,93.484
		L178.43,415.394z"/>
	
		<linearGradient id="SVGID_4_" gradientUnits="userSpaceOnUse" x1="234.8159" y1="213.2393" x2="260.6717" y2="142.2012" gradientTransform="matrix(0.75 0 0 -0.75 46.5775 503.2579)">
		<stop  offset="0" style="stop-color:#81AACA"/>
		<stop  offset="0.33" style="stop-color:#F1F6F9"/>
		<stop  offset="0.56" style="stop-color:#C6D8E7"/>
		<stop  offset="0.76" style="stop-color:#91B5D1"/>
		<stop  offset="1" style="stop-color:#20384C"/>
	</linearGradient>
	<path fill="url(#SVGID_4_)" d="M198.246,368.781c0,0,5.066-7.809,15.055-11.254c9.695-3.746,24.633-6.434,41.637-4.828
		c0.309,0.332,8.555,1.609,6.926,8.961c0.133,0.371-1.16,7.813-14.52,14.363c-13.098,6.258-27.363,13.309-27.363,13.309
		c0.016-0.301,7.727-10.207,0.059-18.902c-0.043-0.148-8.27-10.578-21.793-1.402V368.781z"/>
	<path fill="#BACFE1" d="M261.988,361.703l5.25,1.5l6,4.5l-7.5,4.5c0,0-13.766,4.645-37.934,17.738l-7.066-1.238
		c0,0,30.902-14.176,32.992-16.242c0.008-0.258,6.508-5.055,8.133-10.801L261.988,361.703z"/>
	<path fill="#A3BFD7" d="M1.465,556.097c0,0,2.582,2.953,16.293,1.098c17.457-2.598,54.602-13.078,80.559-27.797l77.898-47.551
		c0,0-73.668,50.207-96.75,61.559c-18.75,8.941-40.098,18.402-66.684,21.156c-0.066-0.215-17.66,3.199-11.566-8.777L1.465,556.097z"
		/>
	<path fill="#121F2A" d="M43.918,488.957l-12.75,14.25c0,0,3.918,11.02,19.719,12.191c-0.219-0.191,24.629,3.195,41.164-6.227
		l-3.133-12.715c0,0-24.789,8.586-45.234-7.5H43.918z"/>
	<path fill="#FFFFFF" d="M31.293,503.011l-2.25,3c0,0,1.164,12.813,29.516,13.965c-0.266,0.285,24.238-0.695,33.492-7.586
		l-0.008-3.379c0,0-16.992,8.891-44.41,5.906c0.16,0.094-11.617-2.301-16.465-11.949L31.293,503.011z"/>
	<path fill="#DFE7EF" d="M53.695,494.925l-13.5,17.25l4.5,1.5l12.75-17.25L53.695,494.925z"/>
	<path fill="#DFE7EF" d="M78.422,498.953l-8.25,16.5l5.25-1.5l9-16.5L78.422,498.953z"/>
	<path fill="#CBDAE8" d="M127.43,438.972l-96-90.75c0,0-5.539-4.234-6.004-7.219l12.754-32.531c0,0,3.5-8.59,0.016-3.852
		c-3.766,4.602-16.992,37.051-16.992,37.051c-0.273-0.199-1.742,3.445,3.051,6.895c4.926,3.406,84.734,83.793,97.586,93.484
		L127.43,438.972z"/>
	<path fill="#CBDAE8" d="M176.301,482.199c0,0,24.395-0.082,52.715,3.797c28.285,3.703,131.57,12.492,182.109,14.645
		c50.176,1.809,118.5,5.172,118.5,5.172c-0.074-0.363,10.02,0,14.813-6.895c4.613-6.969,21.348-42.219,21.348-42.219
		c-0.234,0-4.52,7.371-10.184,17.281c-5.801,9.719-13.07,22.402-13.07,22.402c-0.23,0.066-3.922,4.738-15.246,3.879
		c0.016-0.063-169.477-5.602-298.433-19.008c-11.301-1.305-31.805-3.395-45.309-3.828L176.301,482.199z"/>
	<path fill="#D7E1EE" d="M266.301,425.835l-9,18.75c0,0-55.75,25.66-66.789,33.703l-2.211,3.797h-12L266.301,425.835z"/>
	<path fill="#CBDAE8" d="M194.594,378.16c0-7.5,6.586-14.305,14.738-14.305c7.762,0.055,14.703,6.516,14.703,14.555
		c-0.191,8-6.594,14.586-14.703,14.586c-7.988,0.164-14.738-6.543-14.738-14.586V378.16z"/>
	<path fill="#F2F5FA" d="M197.547,378.078c0-6,5.27-11.297,11.785-11.297c6.215,0.047,11.754,5.211,11.754,11.641
		c-0.289,6.406-5.27,11.66-11.754,11.66c-6.535-0.004-11.785-5.234-11.785-11.66V378.078z"/>
	<path fill="#BACFE1" d="M282.223,403.531c-0.75,0-6.77-0.863-6.77-0.863l12.019-8.887c0,0-5.062,7.648-5.062,9.949L282.223,403.531
		z"/>
	<path fill="#F6F9FB" d="M275.461,402.667v3l6.75,1.5l0.75-3.75L275.461,402.667z"/>
	
		<linearGradient id="SVGID_5_" gradientUnits="userSpaceOnUse" x1="227.9731" y1="210.5938" x2="256.3047" y2="132.7536" gradientTransform="matrix(0.75 0 0 -0.75 132.2948 525.3907)">
		<stop  offset="0" style="stop-color:#81AACA"/>
		<stop  offset="0.33" style="stop-color:#F1F6F9"/>
		<stop  offset="0.56" style="stop-color:#C6D8E7"/>
		<stop  offset="0.76" style="stop-color:#91B5D1"/>
		<stop  offset="1" style="stop-color:#20384C"/>
	</linearGradient>
	<path fill="url(#SVGID_5_)" d="M332.714,375.164c0,0-15.781-4.082-34.809,7.637c0.309-0.137-9.785,7.121-13.941,15.852l13.5,21.512
		c0,0,4.348,1.141,11.551-0.465c-0.301-0.285,20.621-8.617,28.152-28.629c0.047-0.156,6.332-13.324-4.629-16.082L332.714,375.164z"
		/>
	<path fill="#CBDAE8" d="M282.156,406.429c0-8.25,6.699-15.059,14.988-15.059c8.262,0.059,14.941,6.625,14.941,14.801
		c0.07,8.508-6.699,14.824-14.941,14.824c-8.238-0.316-14.988-6.652-14.988-14.824V406.429z"/>
	<path fill="#F2F5FA" d="M285.164,406.39c0-6.75,5.352-12.047,11.98-12.047c6.77,0.047,11.945,5.301,11.945,11.836
		c0.074,6.211-5.355,11.852-11.945,11.852c-6.73,0.359-11.98-5.316-11.98-11.852V406.39z"/>
	<path fill="#759FC3" d="M201.84,379.152c0-6,4.258-10.539,9.527-10.539c5.473,0.039,9.5,4.559,9.5,10.18
		c-0.277,5.609-4.262,10.203-9.5,10.203c-5.027-0.094-9.527-4.578-9.527-10.203V379.152z"/>
	<path fill="#759FC3" d="M289.554,406.71c0-6,4.195-10.539,9.387-10.539c4.863,0.039,9.363,4.633,9.363,10.352
		c0,5.438-4.195,10.367-9.363,10.367c-4.887,0.32-9.387-4.652-9.387-10.367V406.71z"/>
	
		<linearGradient id="SVGID_6_" gradientUnits="userSpaceOnUse" x1="251.7261" y1="201.3047" x2="251.7261" y2="156.3057" gradientTransform="matrix(0.75 0 0 -0.75 97.8807 423.0294)">
		<stop  offset="0" style="stop-color:#EEF3F8"/>
		<stop  offset="1" style="stop-color:#E2EBF3"/>
	</linearGradient>
	<path fill="url(#SVGID_6_)" d="M257.801,272.051l-8.25,3v3l61.5,27.75l2.25-6.75l10.5-5.25L257.801,272.051z"/>
	
		<linearGradient id="SVGID_7_" gradientUnits="userSpaceOnUse" x1="260.3496" y1="201.3057" x2="260.3496" y2="82.2588" gradientTransform="matrix(0.75 0 0 -0.75 101.5253 443.2677)">
		<stop  offset="0" style="stop-color:#9BB7D2"/>
		<stop  offset="0.57" style="stop-color:#CBDAE8"/>
		<stop  offset="1" style="stop-color:#EAEFF5"/>
	</linearGradient>
	<path fill="url(#SVGID_7_)" d="M338.695,292.289l-15,1.5l-10.5,5.25l-25.5,58.5l-34.5,19.5c0,0,3.094,1.164,4.836,4.535
		l36.414-16.535c0,0,12.496-6.363,15.285-0.852l19.215-55.398c0,0,16.133-16.5,10.074-16.5H338.695z"/>
	
		<linearGradient id="SVGID_8_" gradientUnits="userSpaceOnUse" x1="279.7256" y1="201.3057" x2="279.7256" y2="169.3057" gradientTransform="matrix(0.75 0 0 -0.75 165.2635 448.5333)">
		<stop  offset="0" style="stop-color:#EEF3F8"/>
		<stop  offset="1" style="stop-color:#E2EBF3"/>
	</linearGradient>
	<path fill="url(#SVGID_8_)" d="M316.933,307.304l1.5-4.5l18-5.25l96.75,18.75v2.25l-6,3L316.933,307.304z"/>
	<path fill="#CADAE8" d="M318.433,303.07l-1.5,4.5l110.25,14.25l6.75-3l-0.75-3l-6.75,3L318.433,303.07z"/>
	<path fill="#CADAE8" d="M312.55,300.769l-1.5,5.25l-61.5-28.5v-2.25L312.55,300.769z"/>
	<path fill="#F4F7FA" d="M313.195,299.164l3.75,0.75l-26.25,59.25l-34.5,19.5l-3-1.5l34.5-19.5L313.195,299.164z"/>
	<path fill="#F4F7FA" d="M313.48,299.406l3.75,0.75l7.5-4.5l15-3c0,0,2.141-2.414-15.594,0.992L313.48,299.406z"/>
	<path fill="#1B2D3E" d="M298.828,396.21c5.25,0,9.477,4.594,9.477,10.313c0.273,5.438-1.266,7.488-5.449,9.559
		c-5.527-0.371-9.105-19.91-3.914-19.91L298.828,396.21z"/>
	<path fill="#1B2D3E" d="M211.172,368.652c5.25,0,9.691,4.52,9.691,10.141c0.059,5.609-2.816,8.105-5.605,8.797
		c-5.586-0.188-9.16-18.977-3.891-18.977L211.172,368.652z"/>
	<path fill="#A8C3D8" d="M140.465,488.601c0.777-2.898,3.461-5.324,5.852-4.684c2.223,0.633,3.594,3.902,2.688,7.281
		c-0.816,3.352-3.578,5.605-5.969,4.965c-2.145-0.461-3.594-3.902-2.688-7.281L140.465,488.601z"/>
	<path fill="#A8C3D8" d="M156.699,478.097c0.773-2.895,3.461-5.32,5.852-4.68c2.219,0.633,3.59,3.902,2.684,7.281
		c-0.813,3.352-3.578,5.605-5.965,4.965c-2.145-0.461-3.594-3.902-2.688-7.281L156.699,478.097z"/>
	<path fill="#A8C3D8" d="M172.086,467.246c0.777-2.895,3.461-5.32,5.852-4.68c2.219,0.633,3.594,3.902,2.688,7.281
		c-0.816,3.352-3.578,5.605-5.969,4.965c-2.145-0.461-3.594-3.902-2.688-7.281L172.086,467.246z"/>
	<path fill="#A8C3D8" d="M187.48,458.343c0.777-2.898,3.461-5.32,5.852-4.68c2.223,0.633,3.594,3.898,2.688,7.281
		c-0.816,3.352-3.578,5.605-5.969,4.965c-2.145-0.465-3.594-3.902-2.688-7.285L187.48,458.343z"/>
	<path fill="#A8C3D8" d="M201.98,449.675c0.777-2.898,3.461-5.324,5.852-4.684c2.223,0.633,3.594,3.902,2.688,7.281
		c-0.816,3.352-3.578,5.605-5.969,4.965c-2.145-0.461-3.594-3.902-2.688-7.281L201.98,449.675z"/>
	<path fill="#A8C3D8" d="M215.633,441.164c0.777-2.898,3.461-5.32,5.852-4.68c2.223,0.633,3.594,3.902,2.688,7.281
		c-0.816,3.352-3.578,5.605-5.969,4.965c-2.145-0.465-3.594-3.902-2.688-7.285L215.633,441.164z"/>
	<path fill="#A8C3D8" d="M230.148,433.304c0.777-2.898,3.465-5.324,5.852-4.684c2.223,0.633,3.594,3.902,2.688,7.285
		c-0.816,3.348-3.578,5.602-5.969,4.961c-2.141-0.461-3.59-3.902-2.684-7.281L230.148,433.304z"/>
	<path fill="#638FB7" d="M142.063,488.472c0.777-2.898,2.883-4.691,4.789-4.184c1.641,0.473,2.863,3.113,2.141,5.809
		c-0.992,2.297-2.852,4.469-4.758,3.957c-1.887-0.848-2.867-3.109-2.145-5.805L142.063,488.472z"/>
	<path fill="#638FB7" d="M158.313,477.98c0.777-2.898,2.883-4.695,4.789-4.184c1.641,0.469,2.863,3.109,2.141,5.809
		c-0.992,2.293-2.852,4.469-4.758,3.957c-1.887-0.848-2.867-3.109-2.145-5.809L158.313,477.98z"/>
	<path fill="#638FB7" d="M173.68,467.125c0.777-2.898,2.883-4.695,4.789-4.184c1.641,0.469,2.863,3.109,2.141,5.809
		c-0.992,2.293-2.852,4.469-4.758,3.957c-1.887-0.848-2.867-3.109-2.145-5.809L173.68,467.125z"/>
	<path fill="#638FB7" d="M189.078,458.199c0.777-2.898,2.883-4.695,4.789-4.184c1.641,0.469,2.863,3.113,2.141,5.809
		c-0.992,2.293-2.852,4.469-4.758,3.957c-1.887-0.848-2.867-3.109-2.145-5.809L189.078,458.199z"/>
	<path fill="#638FB7" d="M203.578,449.539c0.773-2.898,2.879-4.691,4.785-4.184c1.645,0.473,2.867,3.113,2.145,5.809
		c-0.992,2.297-2.855,4.469-4.762,3.961c-1.887-0.852-2.867-3.113-2.145-5.809L203.578,449.539z"/>
	<path fill="#638FB7" d="M217.23,441.031c0.777-2.898,2.879-4.695,4.785-4.184c1.645,0.469,2.867,3.113,2.145,5.809
		c-0.992,2.293-2.855,4.469-4.762,3.957c-1.883-0.848-2.863-3.109-2.141-5.809L217.23,441.031z"/>
	<path fill="#638FB7" d="M231.758,433.179c0.777-2.898,2.883-4.695,4.789-4.184c1.641,0.469,2.863,3.109,2.141,5.809
		c-0.992,2.293-2.852,4.469-4.758,3.957c-1.887-0.848-2.867-3.109-2.145-5.809L231.758,433.179z"/>
	<path fill="#FFFFFF" fill-opacity="0.2196" d="M31.168,502.839c0,0,3.918,11.387,19.719,12.559
		c-0.219,0.191,24.629,3.195,41.164-6.227l-1.633-8.582c0,0-15.602,5.121-28.715,5.121c-13.285,0.129-30.535-2.742-30.535-2.742
		V502.839z"/>
	
		<linearGradient id="SVGID_9_" gradientUnits="userSpaceOnUse" x1="192.5454" y1="174.709" x2="262.6471" y2="149.1941" gradientTransform="matrix(0.75 0 0 -0.75 -150.4708 651.5187)">
		<stop  offset="0" style="stop-color:#8FB2D1"/>
		<stop  offset="0.48" style="stop-color:#8FB2D1;stop-opacity:0.2627"/>
		<stop  offset="1" style="stop-color:#B9CEE0;stop-opacity:0"/>
	</linearGradient>
	<path fill="url(#SVGID_9_)" d="M29.699,500.542c0,0-25.469,43.711-28.5,55.25c0,0.25,1.25,1.184,3.43,1.184l35.57-39.934
		c0,0-15.094-7.023-10.285-16.5H29.699z"/>
</g>
</svg>
