<?xml version="1.0" encoding="utf-8"?>
<!-- Generator: Adobe Illustrator 16.0.0, SVG Export Plug-In . SVG Version: 6.00 Build 0)  -->
<!DOCTYPE svg PUBLIC "-//W3C//DTD SVG 1.1//EN" "http://www.w3.org/Graphics/SVG/1.1/DTD/svg11.dtd">
<svg preserveAspectRatio="none"   version="1.1" id="图层_1" xmlns="http://www.w3.org/2000/svg" xmlns:xlink="http://www.w3.org/1999/xlink" x="0px" y="0px"
	 width="561.363px" height="263.127px" viewBox="-0.109 303.898 561.363 263.127"
	 enable-background="new -0.109 303.898 561.363 263.127" xml:space="preserve">
<g id="surface636">
	<path fill="#A5A293" d="M391.468,303.898c0,0,10.164,0.961,17.797,7.719c3.953,3.531,129.957,3.488,133.445,0
		c7.008-6.219,17.598-7.719,17.598-7.719c0.66,0,0.945,0.375,0.945,0.84c-0.285-0.09-1.945,7.66-8.148,16.086
		c-1.887,4.824-2.359,226.957,0.469,229.25c5.895,5.074,7.68,16.086,7.68,16.086c-0.285,0.238-0.422,0.84-0.945,0.84
		c-0.09,0.148-9.059-1.59-17.598-7.719c-2.742-1.133-130.82-1.297-133.445,0c-8.797,5.617-17.598,7.719-17.598,7.719
		c-0.199,0.148-0.949-0.375-0.949-0.84c0,0.238,0.785-8.066,8.148-16.086c2.352-2.426,3.121-225.48,0-229.25
		c-8.898-7.926-8.148-16.086-8.148-16.086c0-0.09,0.426-0.84,0.949-0.84H391.468z"/>
	<path fill="#D0C5AC" d="M406.589,318.285c0,0,14.844-3.293,30.184-0.066c15.566,3.066,31.117-2.207,42.406,0
		c11.41,2.316,21.648-2.547,37.758,0c16.402,2.316,29.078,0,29.078,0c0.074,0.066,3.605,7.637,0,21.215
		c-3.676,13.352,3.605,29.531,0,45.488c-3.676,15.863,3.988,26.816,0,42.77c-4.426,15.844,4.375,25.121,0,36.66
		c-4.426,11.434,4.375,28.855,0,44.129c-4.426,15.305,0,43.879,0,43.879c0.074-0.074-20.637,3.824-36.363,0
		c-16.063-3.824-35.637,0-35.637,0c0.074-0.074-20.75,3.824-38.391,0c-17.785-3.824-28.77,0-28.77,0
		c-0.266-0.074-5.754-19.777,0-33.355c5.734-13.219-3.836-34.625,0-49.898c3.484-15.07-2.684-21.504,0-33.656
		c2.734-12.164-4.602-34.234,0-42.723c4.234-8.441-3.066-33.945,0-44.465c2.734-10.477,0-30.043,0-30.043L406.589,318.285z"/>
	<path fill="#FFFFFF" fill-opacity="0.1373" d="M486.218,318.007c0,0,24.672-1.883,30.484,0.059
		c4.016,1.441,14.625,1.035,18.531,1.523c2.734,0.668,4.949-2.332,6.805,0c1.93,2.168,3.355,0,3.355,0
		c0.074-0.082,2.922,7.551,0,21.125c-2.926,13.293,0.414,29.41,0,45.297c-0.676,15.996,0.457,26.707,0,42.594
		c-0.676,16.152,0.504,25.016,0,36.508c-0.676,11.145,2.223,28.855,0,43.945c-2.176,17.449,0,43.695,0,43.695
		c0.074,0.004-2.383,3.809-4.195,0c-1.73-3.746-4.109,0-4.109,0c0.129,0.004-4.375,1.098-9.121,1.422
		c-5,0.082-5.391-13.168-4.727-26.691c0.477-13.727-1.531-23.699-1.09-38.91c0.816-15.316-4.305-28.883-3.996-41.16
		c0.313-12.406-3.801-38.18-3.27-46.633c0.582-4.773,0.699-29.008-10.539-44.375c-7.629-10.648-0.637-25.633-7.266-27.336
		c-11.613-2.813-10.863-10.934-10.863-10.934V318.007z"/>
	<path fill="#B5A169" fill-opacity="0.5294" d="M406.339,318.277c0,0-7.184-3.305,8.258-0.082
		c5.992,0.832,41.488,41.18,47.238,84.414c3.754,27.418,24.75,78.754,26.797,95.672c3.957,33.746,29.289,55.836,21.453,54.148
		c-15.996-3.902-35.867,0-35.867,0c0.371-0.152-20.883,3.824-38.645,0c-17.984-3.902-28.953,0-28.953,0
		c-0.281-0.152-5.789-19.777,0-33.355c5.719-13.297-3.859-34.625,0-49.902c4.219-15.145-2.703-21.504,0-33.723
		c2.719-12.172-4.633-34.168,0-42.652c4.969-8.52-3.086-33.945,0-44.469c2.719-10.551,0-30.043,0-30.043L406.339,318.277z"/>
	<path fill="#A4997B" fill-opacity="0.8275" d="M418.339,406.917c8.25,9.75,13.797,17.516,19.512,60.754
		c3.738,26.996,10.672,30.035,12.719,46.949c3.77,34.047,23.691,37.586,23.691,37.586c0.328,0.211-20.93,3.824-38.688,0
		c-17.984-3.539-28.953,0-28.953,0c-0.281,0.211-5.789-19.777,0-33.355c5.719-13.684-3.859-34.625,0-49.898
		c4.219-15.535-2.703-21.504,0-33.723c2.719-12.563-4.633-34.168,0-42.656c4.969-8.156,2.871,3.133,11.973,14.641L418.339,406.917z"
		/>
	<path fill="#D1CDBD" d="M543.281,315.621c0,0,8.297-7.133,13.027-9.063c-0.277,0.063-2.543,8.684-5.813,13.188
		c0.285-0.375,0.727-3.215,0.727-6.109c0.309-3.266-9.086,2.25-7.992,2.254L543.281,315.621z"/>
	<path fill="#D1CDBD" d="M407.878,315.621c0,0-8.301-7.133-13.031-9.063c0.281,0.063,2.543,8.684,5.813,13.188
		c-0.281-0.375-0.727-3.219-0.727-6.109c-0.305-3.266,9.086,2.25,7.996,2.254L407.878,315.621z"/>
	<path fill="#D1CDBD" d="M409.242,554.863c0,0-8.301,7.133-13.031,9.063c0.281-0.063,2.543-8.684,5.813-13.188
		c-0.281,0.375-0.727,3.219-0.727,6.109c-0.305,3.266,9.086-2.25,7.996-2.254L409.242,554.863z"/>
	<path fill="#D1CDBD" d="M541.917,553.656c0,0,8.297,7.133,13.027,9.063c-0.277-0.063-2.543-8.684-5.813-13.184
		c0.285,0.371,0.727,3.215,0.727,6.109c0.309,3.262-9.082-2.254-7.992-2.258L541.917,553.656z"/>
	<path fill="#DAA84E" fill-opacity="0.6078" d="M391.468,303.898c0,0,10.164,0.961,17.797,7.719
		c3.953,3.531,129.957,3.488,133.445,0c7.008-6.219,17.598-7.719,17.598-7.719c0.66,0,0.945,0.375,0.945,0.84
		c-0.285-0.09-1.945,7.66-8.148,16.086c-1.887,4.824-2.359,226.957,0.469,229.25c5.895,5.074,7.68,16.086,7.68,16.086
		c-0.285,0.238-0.422,0.84-0.945,0.84c-0.09,0.148-9.059-1.59-17.598-7.719c-2.742-1.133-130.82-1.297-133.445,0
		c-8.797,5.617-17.598,7.719-17.598,7.719c-0.199,0.148-0.949-0.375-0.949-0.84c0,0.238,0.785-8.066,8.148-16.086
		c2.352-2.426,3.121-225.48,0-229.25c-8.898-7.926-8.148-16.086-8.148-16.086c0-0.09,0.426-0.84,0.949-0.84H391.468z"/>
	<path fill="#FFFFFF" fill-opacity="0.1255" d="M494.765,314.812h51l3.75,9v222.75c0,0-0.762,15.254-4.02,9.289
		c-1.23-1.789-21.422,0.078-22.426,1.344c-3.555,5.117-3.926-8.965-3.926-8.965l-45.379-232.668L494.765,314.812z"/>
	<path fill="#A5A293" d="M293.761,303.898c0,0,10.164,0.961,17.793,7.719c3.957,3.531,129.961,3.488,133.445,0
		c7.012-6.219,17.598-7.719,17.598-7.719c0.664,0,0.949,0.375,0.949,0.84c-0.285-0.09-1.945,7.66-8.148,16.086
		c-1.887,4.824-2.363,226.957,0.465,229.25c5.898,5.074,7.684,16.086,7.684,16.086c-0.285,0.238-0.426,0.84-0.949,0.84
		c-0.086,0.148-9.055-1.59-17.598-7.719c-2.738-1.133-130.816-1.297-133.445,0c-8.793,5.617-17.598,7.719-17.598,7.719
		c-0.195,0.148-0.945-0.375-0.945-0.84c0,0.238,0.781-8.066,8.148-16.086c2.352-2.426,3.117-225.48,0-229.25
		c-8.898-7.926-8.148-16.086-8.148-16.086c0-0.09,0.422-0.84,0.945-0.84H293.761z"/>
	<path fill="#D0C5AC" d="M308.878,318.285c0,0,14.844-3.293,30.188-0.066c15.563,3.066,31.113-2.207,42.406,0
		c11.406,2.316,21.648-2.547,37.758,0c16.398,2.316,29.078,0,29.078,0c0.07,0.066,3.605,7.637,0,21.215
		c-3.68,13.352,3.605,29.531,0,45.488c-3.68,15.863,3.988,26.816,0,42.77c-4.43,15.844,4.371,25.121,0,36.66
		c-4.43,11.434,4.371,28.855,0,44.129c-4.43,15.305,0,43.879,0,43.879c0.07-0.074-20.641,3.824-36.367,0
		c-16.063-3.824-35.637,0-35.637,0c0.074-0.074-20.746,3.824-38.391,0c-17.785-3.824-28.766,0-28.766,0
		c-0.27-0.074-5.754-19.777,0-33.355c5.73-13.219-3.836-34.625,0-49.898c3.48-15.07-2.688-21.504,0-33.656
		c2.73-12.164-4.605-34.234,0-42.723c4.23-8.441-3.07-33.945,0-44.465c2.73-10.477,0-30.043,0-30.043L308.878,318.285z"/>
	<path fill="#FFFFFF" fill-opacity="0.1373" d="M388.511,318.007c0,0,24.668-1.883,30.48,0.059
		c4.02,1.441,14.629,1.035,18.531,1.523c2.738,0.668,4.949-2.332,6.809,0c1.93,2.168,3.352,0,3.352,0
		c0.078-0.082,2.922,7.551,0,21.125c-2.922,13.293,0.414,29.41,0,45.297c-0.672,15.996,0.461,26.707,0,42.594
		c-0.672,16.152,0.504,25.016,0,36.508c-0.672,11.145,2.227,28.855,0,43.945c-2.172,17.449,0,43.695,0,43.695
		c0.078,0.004-2.379,3.809-4.191,0c-1.73-3.746-4.109,0-4.109,0c0.129,0.004-4.379,1.098-9.125,1.422
		c-4.996,0.082-5.387-13.168-4.723-26.691c0.477-13.727-1.535-23.699-1.09-38.91c0.816-15.316-4.309-28.883-4-41.16
		c0.316-12.406-3.801-38.18-3.27-46.633c0.586-4.773,0.699-29.008-10.535-44.375c-7.629-10.648-0.641-25.633-7.27-27.336
		c-11.609-2.813-10.859-10.934-10.859-10.934V318.007z"/>
	<path fill="#B5A169" fill-opacity="0.5294" d="M308.628,318.277c0,0-7.184-3.305,8.258-0.082
		c5.992,0.832,41.492,41.18,47.238,84.414c3.754,27.418,24.75,78.754,26.801,95.672c3.953,33.746,29.285,55.836,21.449,54.148
		c-15.996-3.902-35.867,0-35.867,0c0.371-0.152-20.883,3.824-38.641,0c-17.988-3.902-28.953,0-28.953,0
		c-0.285-0.152-5.793-19.777,0-33.355c5.715-13.297-3.863-34.625,0-49.902c4.215-15.145-2.703-21.504,0-33.723
		c2.715-12.172-4.633-34.168,0-42.652c4.965-8.52-3.09-33.945,0-44.469c2.715-10.551,0-30.043,0-30.043L308.628,318.277z"/>
	<path fill="#A4997B" fill-opacity="0.8275" d="M320.628,406.917c8.25,9.75,13.797,17.516,19.516,60.754
		c3.734,26.996,10.668,30.035,12.715,46.949c3.77,34.047,23.695,37.586,23.695,37.586c0.324,0.211-20.93,3.824-38.688,0
		c-17.988-3.539-28.957,0-28.957,0c-0.281,0.211-5.789-19.777,0-33.355c5.719-13.684-3.859-34.625,0-49.898
		c4.219-15.535-2.699-21.504,0-33.723c2.719-12.563-4.633-34.168,0-42.656c4.969-8.156,2.875,3.133,11.977,14.641L320.628,406.917z"
		/>
	<path fill="#D1CDBD" d="M445.57,315.621c0,0,8.297-7.133,13.031-9.063c-0.281,0.063-2.547,8.684-5.816,13.188
		c0.285-0.375,0.727-3.215,0.727-6.109c0.309-3.266-9.082,2.25-7.992,2.254L445.57,315.621z"/>
	<path fill="#D1CDBD" d="M310.167,315.621c0,0-8.297-7.133-13.031-9.063c0.281,0.063,2.547,8.684,5.816,13.188
		c-0.285-0.375-0.727-3.219-0.727-6.109c-0.309-3.266,9.082,2.25,7.992,2.254L310.167,315.621z"/>
	<path fill="#D1CDBD" d="M311.531,554.863c0,0-8.297,7.133-13.031,9.063c0.281-0.063,2.543-8.684,5.816-13.188
		c-0.285,0.375-0.727,3.219-0.727,6.109c-0.309,3.266,9.082-2.25,7.992-2.254L311.531,554.863z"/>
	<path fill="#D1CDBD" d="M444.207,553.656c0,0,8.297,7.133,13.031,9.063c-0.281-0.063-2.543-8.684-5.816-13.184
		c0.285,0.371,0.73,3.215,0.73,6.109c0.305,3.262-9.086-2.254-7.996-2.258L444.207,553.656z"/>
	<path fill="#DAA84E" fill-opacity="0.6078" d="M293.761,303.898c0,0,10.164,0.961,17.793,7.719
		c3.957,3.531,129.961,3.488,133.445,0c7.012-6.219,17.598-7.719,17.598-7.719c0.664,0,0.949,0.375,0.949,0.84
		c-0.285-0.09-1.945,7.66-8.148,16.086c-1.887,4.824-2.363,226.957,0.465,229.25c5.898,5.074,7.684,16.086,7.684,16.086
		c-0.285,0.238-0.426,0.84-0.949,0.84c-0.086,0.148-9.055-1.59-17.598-7.719c-2.738-1.133-130.816-1.297-133.445,0
		c-8.793,5.617-17.598,7.719-17.598,7.719c-0.195,0.148-0.945-0.375-0.945-0.84c0,0.238,0.781-8.066,8.148-16.086
		c2.352-2.426,3.117-225.48,0-229.25c-8.898-7.926-8.148-16.086-8.148-16.086c0-0.09,0.422-0.84,0.945-0.84H293.761z"/>
	<path fill="#FFFFFF" fill-opacity="0.1255" d="M397.058,314.812h51l3.75,9v222.75c0,0-0.762,15.254-4.02,9.289
		c-1.23-1.789-21.426,0.078-22.426,1.344c-3.555,5.117-3.93-8.965-3.93-8.965l-45.375-232.668L397.058,314.812z"/>
	<path fill="#A5A293" d="M196.125,303.898c0,0,10.164,0.961,17.793,7.719c3.957,3.531,129.96,3.488,133.449,0
		c7.008-6.219,17.594-7.719,17.594-7.719c0.664,0,0.949,0.375,0.949,0.84c-0.285-0.09-1.945,7.66-8.148,16.086
		c-1.887,4.824-2.363,226.957,0.469,229.25c5.895,5.074,7.68,16.086,7.68,16.086c-0.285,0.238-0.426,0.84-0.949,0.84
		c-0.086,0.148-9.055-1.59-17.594-7.719c-2.742-1.133-130.82-1.297-133.449,0c-8.793,5.617-17.594,7.719-17.594,7.719
		c-0.199,0.148-0.949-0.375-0.949-0.84c0,0.238,0.781-8.066,8.148-16.086c2.352-2.426,3.121-225.48,0-229.25
		c-8.898-7.926-8.148-16.086-8.148-16.086c0-0.09,0.426-0.84,0.949-0.84H196.125z"/>
	<path fill="#D0C5AC" d="M211.246,318.285c0,0,14.84-3.293,30.184-0.066c15.566,3.066,31.113-2.207,42.406,0
		c11.41,2.316,21.648-2.547,37.757,0c16.402,2.316,29.078,0,29.078,0c0.074,0.066,3.605,7.637,0,21.215
		c-3.676,13.352,3.605,29.531,0,45.488c-3.676,15.863,3.988,26.816,0,42.77c-4.426,15.844,4.371,25.121,0,36.66
		c-4.426,11.434,4.371,28.855,0,44.129c-4.426,15.305,0,43.879,0,43.879c0.074-0.074-20.641,3.824-36.367,0
		c-16.059-3.824-35.636,0-35.636,0c0.078-0.074-20.746,3.824-38.391,0c-17.781-3.824-28.766,0-28.766,0
		c-0.266-0.074-5.754-19.777,0-33.355c5.734-13.219-3.836-34.625,0-49.898c3.484-15.07-2.684-21.504,0-33.656
		c2.734-12.164-4.602-34.234,0-42.723c4.234-8.441-3.07-33.945,0-44.465c2.734-10.477,0-30.043,0-30.043L211.246,318.285z"/>
	<path fill="#FFFFFF" fill-opacity="0.1373" d="M290.875,318.007c0,0,24.672-1.883,30.484,0.059
		c4.016,1.441,14.625,1.035,18.531,1.523c2.734,0.668,4.945-2.332,6.805,0c1.93,2.168,3.352,0,3.352,0
		c0.078-0.082,2.922,7.551,0,21.125c-2.922,13.293,0.418,29.41,0,45.297c-0.672,15.996,0.461,26.707,0,42.594
		c-0.672,16.152,0.504,25.016,0,36.508c-0.672,11.145,2.227,28.855,0,43.945c-2.172,17.449,0,43.695,0,43.695
		c0.078,0.004-2.379,3.809-4.191,0c-1.73-3.746-4.109,0-4.109,0c0.129,0.004-4.379,1.098-9.125,1.422
		c-4.996,0.082-5.387-13.168-4.723-26.691c0.477-13.727-1.531-23.699-1.09-38.91c0.816-15.316-4.309-28.883-3.996-41.16
		c0.313-12.406-3.801-38.18-3.27-46.633c0.582-4.773,0.699-29.008-10.539-44.375c-7.629-10.648-0.641-25.633-7.27-27.336
		c-11.609-2.813-10.859-10.934-10.859-10.934V318.007z"/>
	<path fill="#B5A169" fill-opacity="0.5294" d="M210.992,318.277c0,0-7.18-3.305,8.262-0.082
		c5.988,0.832,41.488,41.18,47.238,84.414c3.75,27.418,24.75,78.754,26.796,95.672c3.953,33.746,29.285,55.836,21.449,54.148
		c-15.996-3.902-35.867,0-35.867,0c0.371-0.152-20.883,3.824-38.641,0c-17.988-3.902-28.953,0-28.953,0
		c-0.285-0.152-5.789-19.777,0-33.355c5.715-13.297-3.859-34.625,0-49.902c4.215-15.145-2.703-21.504,0-33.723
		c2.715-12.172-4.633-34.168,0-42.652c4.965-8.52-3.09-33.945,0-44.469c2.715-10.551,0-30.043,0-30.043L210.992,318.277z"/>
	<path fill="#A4997B" fill-opacity="0.8275" d="M222.992,406.917c8.25,9.75,13.801,17.516,19.516,60.754
		c3.734,26.996,10.668,30.035,12.719,46.949c3.766,34.047,23.691,37.586,23.691,37.586c0.324,0.211-20.93,3.824-38.688,0
		c-17.988-3.539-28.953,0-28.953,0c-0.285,0.211-5.793-19.777,0-33.355c5.715-13.684-3.863-34.625,0-49.898
		c4.215-15.535-2.703-21.504,0-33.723c2.715-12.563-4.633-34.168,0-42.656c4.965-8.156,2.871,3.133,11.973,14.641L222.992,406.917z"
		/>
	<path fill="#D1CDBD" d="M347.933,315.621c0,0,8.301-7.133,13.031-9.063c-0.281,0.063-2.543,8.684-5.813,13.188
		c0.281-0.375,0.727-3.215,0.727-6.109c0.305-3.266-9.086,2.25-7.996,2.254L347.933,315.621z"/>
	<path fill="#D1CDBD" d="M212.531,315.621c0,0-8.297-7.133-13.027-9.063c0.277,0.063,2.543,8.684,5.813,13.188
		c-0.285-0.375-0.727-3.219-0.727-6.109c-0.309-3.266,9.086,2.25,7.996,2.254L212.531,315.621z"/>
	<path fill="#D1CDBD" d="M213.895,554.863c0,0-8.297,7.133-13.027,9.063c0.277-0.063,2.543-8.684,5.813-13.188
		c-0.285,0.375-0.727,3.219-0.727,6.109c-0.309,3.266,9.082-2.25,7.992-2.254L213.895,554.863z"/>
	<path fill="#D1CDBD" d="M346.57,553.656c0,0,8.301,7.133,13.031,9.063c-0.281-0.063-2.543-8.684-5.813-13.184
		c0.281,0.371,0.727,3.215,0.727,6.109c0.305,3.262-9.086-2.254-7.996-2.258L346.57,553.656z"/>
	<path fill="#DAA84E" fill-opacity="0.6078" d="M196.125,303.898c0,0,10.164,0.961,17.793,7.719c3.957,3.531,129.96,3.488,133.449,0
		c7.008-6.219,17.594-7.719,17.594-7.719c0.664,0,0.949,0.375,0.949,0.84c-0.285-0.09-1.945,7.66-8.148,16.086
		c-1.887,4.824-2.363,226.957,0.469,229.25c5.895,5.074,7.68,16.086,7.68,16.086c-0.285,0.238-0.426,0.84-0.949,0.84
		c-0.086,0.148-9.055-1.59-17.594-7.719c-2.742-1.133-130.82-1.297-133.449,0c-8.793,5.617-17.594,7.719-17.594,7.719
		c-0.199,0.148-0.949-0.375-0.949-0.84c0,0.238,0.781-8.066,8.148-16.086c2.352-2.426,3.121-225.48,0-229.25
		c-8.898-7.926-8.148-16.086-8.148-16.086c0-0.09,0.426-0.84,0.949-0.84H196.125z"/>
	<path fill="#FFFFFF" fill-opacity="0.1255" d="M299.421,314.812h51l3.75,9v222.75c0,0-0.762,15.254-4.02,9.289
		c-1.23-1.789-21.426,0.078-22.426,1.344c-3.555,5.117-3.926-8.965-3.926-8.965l-45.378-232.668L299.421,314.812z"/>
	<path fill="#A5A293" d="M98.363,303.898c0,0,10.164,0.961,17.793,7.719c3.957,3.531,129.961,3.488,133.449,0
		c7.008-6.219,17.594-7.719,17.594-7.719c0.664,0,0.949,0.375,0.949,0.84c-0.285-0.09-1.945,7.66-8.148,16.086
		c-1.887,4.824-2.363,226.957,0.469,229.25c5.895,5.074,7.68,16.086,7.68,16.086c-0.285,0.238-0.426,0.84-0.949,0.84
		c-0.086,0.148-9.055-1.59-17.594-7.719c-2.742-1.133-130.82-1.297-133.449,0C107.363,564.898,98.563,567,98.563,567
		c-0.199,0.148-0.949-0.375-0.949-0.84c0,0.238,0.781-8.066,8.148-16.086c2.352-2.426,3.121-225.48,0-229.25
		c-8.898-7.926-8.148-16.086-8.148-16.086c0-0.09,0.426-0.84,0.949-0.84H98.363z"/>
	<path fill="#D0C5AC" d="M113.484,318.285c0,0,14.84-3.293,30.184-0.066c15.566,3.066,31.113-2.207,42.406,0
		c11.41,2.316,21.648-2.547,37.758,0c16.402,2.316,29.078,0,29.078,0c0.074,0.066,3.605,7.637,0,21.215
		c-3.676,13.352,3.605,29.531,0,45.488c-3.676,15.863,3.988,26.816,0,42.77c-4.426,15.844,4.371,25.121,0,36.66
		c-4.426,11.434,4.371,28.855,0,44.129c-4.426,15.305,0,43.879,0,43.879c0.074-0.074-20.641,3.824-36.367,0
		c-16.059-3.824-35.637,0-35.637,0c0.078-0.074-20.746,3.824-38.391,0c-17.781-3.824-28.766,0-28.766,0
		c-0.266-0.074-5.754-19.777,0-33.355c5.734-13.219-3.836-34.625,0-49.898c3.484-15.07-2.684-21.504,0-33.656
		c2.734-12.164-4.602-34.234,0-42.723c4.234-8.441-3.07-33.945,0-44.465c2.734-10.477,0-30.043,0-30.043L113.484,318.285z"/>
	<path fill="#FFFFFF" fill-opacity="0.1373" d="M193.113,318.007c0,0,24.668-1.883,30.484,0.059
		c4.016,1.441,14.625,1.035,18.531,1.523c2.734,0.668,4.945-2.332,6.805,0c1.93,2.168,3.352,0,3.352,0
		c0.078-0.082,2.922,7.551,0,21.125c-2.922,13.293,0.418,29.41,0,45.297c-0.672,15.996,0.461,26.707,0,42.594
		c-0.672,16.152,0.504,25.016,0,36.508c-0.672,11.145,2.227,28.855,0,43.945c-2.172,17.449,0,43.695,0,43.695
		c0.078,0.004-2.379,3.809-4.191,0c-1.73-3.746-4.109,0-4.109,0c0.129,0.004-4.379,1.098-9.125,1.422
		c-4.996,0.082-5.387-13.168-4.723-26.691c0.477-13.727-1.531-23.699-1.09-38.91c0.816-15.316-4.309-28.883-3.996-41.16
		c0.313-12.406-3.801-38.18-3.273-46.633c0.586-4.773,0.703-29.008-10.535-44.375c-7.629-10.648-0.641-25.633-7.27-27.336
		c-11.609-2.813-10.859-10.934-10.859-10.934V318.007z"/>
	<path fill="#B5A169" fill-opacity="0.5294" d="M113.23,318.277c0,0-7.18-3.305,8.262-0.082c5.988,0.832,41.488,41.18,47.234,84.414
		c3.754,27.418,24.754,78.754,26.801,95.672c3.953,33.746,29.285,55.836,21.449,54.148c-15.996-3.902-35.867,0-35.867,0
		c0.371-0.152-20.883,3.824-38.641,0c-17.988-3.902-28.953,0-28.953,0c-0.285-0.152-5.789-19.777,0-33.355
		c5.715-13.297-3.863-34.625,0-49.902c4.215-15.145-2.703-21.504,0-33.723c2.715-12.172-4.633-34.168,0-42.652
		c4.965-8.52-3.09-33.945,0-44.469c2.715-10.551,0-30.043,0-30.043L113.23,318.277z"/>
	<path fill="#A4997B" fill-opacity="0.8275" d="M125.23,406.917c8.25,9.75,13.797,17.516,19.516,60.754
		c3.734,26.996,10.668,30.035,12.719,46.949c3.766,34.047,23.691,37.586,23.691,37.586c0.324,0.211-20.93,3.824-38.688,0
		c-17.988-3.539-28.953,0-28.953,0c-0.285,0.211-5.793-19.777,0-33.355c5.715-13.684-3.863-34.625,0-49.898
		c4.215-15.535-2.703-21.504,0-33.723c2.715-12.563-4.633-34.168,0-42.656c4.965-8.156,2.871,3.133,11.973,14.641L125.23,406.917z"
		/>
	<path fill="#D1CDBD" d="M250.172,315.621c0,0,8.301-7.133,13.031-9.063c-0.281,0.063-2.543,8.684-5.813,13.188
		c0.281-0.375,0.727-3.215,0.727-6.109c0.305-3.266-9.086,2.25-7.996,2.254L250.172,315.621z"/>
	<path fill="#D1CDBD" d="M114.77,315.621c0,0-8.297-7.133-13.027-9.063c0.277,0.063,2.543,8.684,5.813,13.188
		c-0.285-0.375-0.727-3.219-0.727-6.109c-0.309-3.266,9.086,2.25,7.996,2.254L114.77,315.621z"/>
	<path fill="#D1CDBD" d="M116.133,554.863c0,0-8.297,7.133-13.027,9.063c0.277-0.063,2.543-8.684,5.813-13.188
		c-0.285,0.375-0.727,3.219-0.727,6.109c-0.309,3.266,9.082-2.25,7.992-2.254L116.133,554.863z"/>
	<path fill="#D1CDBD" d="M248.809,553.656c0,0,8.301,7.133,13.031,9.063c-0.281-0.063-2.543-8.684-5.813-13.184
		c0.281,0.371,0.727,3.215,0.727,6.109c0.305,3.262-9.086-2.254-7.996-2.258L248.809,553.656z"/>
	<path fill="#DAA84E" fill-opacity="0.6078" d="M98.363,303.898c0,0,10.164,0.961,17.793,7.719c3.957,3.531,129.961,3.488,133.449,0
		c7.008-6.219,17.594-7.719,17.594-7.719c0.664,0,0.949,0.375,0.949,0.84c-0.285-0.09-1.945,7.66-8.148,16.086
		c-1.887,4.824-2.363,226.957,0.469,229.25c5.895,5.074,7.68,16.086,7.68,16.086c-0.285,0.238-0.426,0.84-0.949,0.84
		c-0.086,0.148-9.055-1.59-17.594-7.719c-2.742-1.133-130.82-1.297-133.449,0C107.363,564.898,98.563,567,98.563,567
		c-0.199,0.148-0.949-0.375-0.949-0.84c0,0.238,0.781-8.066,8.148-16.086c2.352-2.426,3.121-225.48,0-229.25
		c-8.898-7.926-8.148-16.086-8.148-16.086c0-0.09,0.426-0.84,0.949-0.84H98.363z"/>
	<path fill="#FFFFFF" fill-opacity="0.1255" d="M201.66,314.812h51l3.75,9v222.75c0,0-0.762,15.254-4.02,9.289
		c-1.23-1.789-21.426,0.078-22.426,1.344c-3.555,5.117-3.926-8.965-3.926-8.965L180.66,315.562L201.66,314.812z"/>
	<path fill="#A5A293" d="M0.656,303.898c0,0,10.164,0.961,17.793,7.719c3.957,3.531,129.961,3.488,133.445,0
		c7.012-6.219,17.598-7.719,17.598-7.719c0.664,0,0.945,0.375,0.945,0.84c-0.281-0.09-1.945,7.66-8.145,16.086
		c-1.887,4.824-2.363,226.957,0.465,229.25c5.898,5.074,7.68,16.086,7.68,16.086c-0.281,0.238-0.422,0.84-0.945,0.84
		c-0.086,0.148-9.059-1.59-17.598-7.719c-2.738-1.133-130.82-1.297-133.445,0C9.656,564.898,0.852,567,0.852,567
		c-0.195,0.148-0.945-0.375-0.945-0.84c0,0.238,0.781-8.066,8.145-16.086c2.355-2.426,3.121-225.48,0-229.25
		c-8.895-7.926-8.145-16.086-8.145-16.086c0-0.09,0.422-0.84,0.945-0.84H0.656z"/>
	<path fill="#D0C5AC" d="M15.773,318.285c0,0,14.844-3.293,30.184-0.066c15.566,3.066,31.117-2.207,42.406,0
		c11.41,2.316,21.648-2.547,37.758,0c16.402,2.316,29.082,0,29.082,0c0.07,0.066,3.605,7.637,0,21.215
		c-3.68,13.352,3.605,29.531,0,45.488c-3.68,15.863,3.988,26.816,0,42.77c-4.43,15.844,4.371,25.121,0,36.66
		c-4.43,11.434,4.371,28.855,0,44.129c-4.43,15.305,0,43.879,0,43.879c0.07-0.074-20.641,3.824-36.367,0
		c-16.063-3.824-35.637,0-35.637,0c0.074-0.074-20.746,3.824-38.391,0c-17.785-3.824-28.77,0-28.77,0
		c-0.266-0.074-5.75-19.777,0-33.355c5.734-13.219-3.832-34.625,0-49.898c3.484-15.07-2.684-21.504,0-33.656
		c2.734-12.164-4.602-34.234,0-42.723c4.234-8.441-3.066-33.945,0-44.465c2.734-10.477,0-30.043,0-30.043L15.773,318.285z"/>
	<path fill="#FFFFFF" fill-opacity="0.1373" d="M95.402,318.007c0,0,24.672-1.883,30.484,0.059
		c4.016,1.441,14.625,1.035,18.531,1.523c2.734,0.668,4.949-2.332,6.805,0c1.93,2.168,3.355,0,3.355,0
		c0.074-0.082,2.922,7.551,0,21.125c-2.926,13.293,0.414,29.41,0,45.297c-0.676,15.996,0.457,26.707,0,42.594
		c-0.676,16.152,0.504,25.016,0,36.508c-0.676,11.145,2.227,28.855,0,43.945c-2.176,17.449,0,43.695,0,43.695
		c0.074,0.004-2.379,3.809-4.195,0c-1.73-3.746-4.109,0-4.109,0c0.129,0.004-4.375,1.098-9.121,1.422
		c-5,0.082-5.387-13.168-4.727-26.691c0.477-13.727-1.531-23.699-1.09-38.91c0.816-15.316-4.305-28.883-3.996-41.16
		c0.313-12.406-3.801-38.18-3.27-46.633c0.582-4.773,0.699-29.008-10.539-44.375c-7.629-10.648-0.637-25.633-7.266-27.336
		c-11.613-2.813-10.863-10.934-10.863-10.934V318.007z"/>
	<path fill="#B5A169" fill-opacity="0.5294" d="M15.523,318.277c0,0-7.184-3.305,8.258-0.082
		c5.992,0.832,41.492,41.18,47.238,84.414c3.754,27.418,24.75,78.754,26.797,95.672c3.957,33.746,29.289,55.836,21.453,54.148
		c-15.996-3.902-35.867,0-35.867,0c0.371-0.152-20.883,3.824-38.641,0c-17.988-3.902-28.957,0-28.957,0
		c-0.281-0.152-5.789-19.777,0-33.355c5.719-13.297-3.859-34.625,0-49.902c4.219-15.145-2.699-21.504,0-33.723
		c2.719-12.172-4.633-34.168,0-42.652c4.969-8.52-3.086-33.945,0-44.469c2.719-10.551,0-30.043,0-30.043L15.523,318.277z"/>
	<path fill="#A4997B" fill-opacity="0.8275" d="M27.523,406.917c8.25,9.75,13.797,17.516,19.512,60.754
		c3.738,26.996,10.672,30.035,12.719,46.949c3.77,34.047,23.691,37.586,23.691,37.586c0.328,0.211-20.926,3.824-38.688,0
		c-17.984-3.539-28.953,0-28.953,0c-0.281,0.211-5.789-19.777,0-33.355c5.719-13.684-3.859-34.625,0-49.898
		c4.219-15.535-2.703-21.504,0-33.723c2.719-12.563-4.633-34.168,0-42.656c4.969-8.156,2.871,3.133,11.973,14.641L27.523,406.917z"
		/>
	<path fill="#D1CDBD" d="M152.465,315.621c0,0,8.297-7.133,13.027-9.063c-0.277,0.063-2.543,8.684-5.813,13.188
		c0.285-0.375,0.727-3.215,0.727-6.109c0.309-3.266-9.082,2.25-7.992,2.254L152.465,315.621z"/>
	<path fill="#D1CDBD" d="M17.063,315.621c0,0-8.297-7.133-13.031-9.063c0.281,0.063,2.543,8.684,5.816,13.188
		c-0.285-0.375-0.727-3.219-0.727-6.109c-0.309-3.266,9.082,2.25,7.992,2.254L17.063,315.621z"/>
	<path fill="#D1CDBD" d="M18.426,554.863c0,0-8.301,7.133-13.031,9.063c0.281-0.063,2.543-8.684,5.813-13.188
		c-0.281,0.375-0.727,3.219-0.727,6.109c-0.305,3.266,9.086-2.25,7.996-2.254L18.426,554.863z"/>
	<path fill="#D1CDBD" d="M151.102,553.656c0,0,8.297,7.133,13.031,9.063c-0.281-0.063-2.547-8.684-5.816-13.184
		c0.285,0.371,0.727,3.215,0.727,6.109c0.309,3.262-9.082-2.254-7.992-2.258L151.102,553.656z"/>
	<path fill="#DAA84E" fill-opacity="0.6078" d="M0.656,303.898c0,0,10.164,0.961,17.793,7.719c3.957,3.531,129.961,3.488,133.445,0
		c7.012-6.219,17.598-7.719,17.598-7.719c0.664,0,0.945,0.375,0.945,0.84c-0.281-0.09-1.945,7.66-8.145,16.086
		c-1.887,4.824-2.363,226.957,0.465,229.25c5.898,5.074,7.68,16.086,7.68,16.086c-0.281,0.238-0.422,0.84-0.945,0.84
		c-0.086,0.148-9.059-1.59-17.598-7.719c-2.738-1.133-130.82-1.297-133.445,0C9.656,564.898,0.852,567,0.852,567
		c-0.195,0.148-0.945-0.375-0.945-0.84c0,0.238,0.781-8.066,8.145-16.086c2.355-2.426,3.121-225.48,0-229.25
		c-8.895-7.926-8.145-16.086-8.145-16.086c0-0.09,0.422-0.84,0.945-0.84H0.656z"/>
	<path fill="#FFFFFF" fill-opacity="0.1255" d="M103.953,314.812h51l3.75,9v222.75c0,0-0.766,15.254-4.02,9.289
		c-1.23-1.789-21.426,0.078-22.43,1.344c-3.551,5.117-3.926-8.965-3.926-8.965L82.953,315.562L103.953,314.812z"/>
</g>
</svg>
