<?xml version="1.0" encoding="utf-8"?>
<!-- Generator: Adobe Illustrator 16.0.0, SVG Export Plug-In . SVG Version: 6.00 Build 0)  -->
<!DOCTYPE svg PUBLIC "-//W3C//DTD SVG 1.1//EN" "http://www.w3.org/Graphics/SVG/1.1/DTD/svg11.dtd">
<svg preserveAspectRatio="none"   version="1.1" id="图层_1" xmlns="http://www.w3.org/2000/svg" xmlns:xlink="http://www.w3.org/1999/xlink" x="0px" y="0px"
	 width="566.821px" height="154.007px" viewBox="-0.52 412.002 566.821 154.007"
	 enable-background="new -0.52 412.002 566.821 154.007" xml:space="preserve">
<g id="surface406">
	
		<linearGradient id="SVGID_1_" gradientUnits="userSpaceOnUse" x1="564.0884" y1="232.9634" x2="583.6856" y2="8.9663" gradientTransform="matrix(0.75 0 0 -0.75 -139.0924 563.4777)">
		<stop  offset="0.42" style="stop-color:#FFFFFF"/>
		<stop  offset="0.54" style="stop-color:#F5F5F5"/>
		<stop  offset="0.7" style="stop-color:#D3D3D3"/>
	</linearGradient>
	<path fill="url(#SVGID_1_)" stroke="#606060" stroke-linejoin="bevel" stroke-miterlimit="10" d="M140.828,481.5
		c6.75,0,176.257-9.973,181.007-11.551c4.992-1.949,65.801-14.305,73.012-15.398c6.23-0.801,102.414-7.305,116.344-4.738
		c11.387,2.438,14.246,4.738,14.246,4.738l2.391,4.449c0,0,24.52,9.172,28.477,10.949c3.773,1.801,9.496,4.738,9.496,11.844
		c0.277,7.207-55.797,37.902-141.273,36.125c-21.949,9.332-141.472,13.625-156.113,15.438
		C254.078,534,128.922,523.05,121.203,521.472c-7.375-1.723-70.836-14.41-78.945-16.582c-7.93-2.391-5.344-17.371,2.965-17.77
		c4.105-0.371,6.531,0,6.531,0L12.578,415.5l28.5-3c0,0,92.789,69.293,99.715,69.293L140.828,481.5z"/>
	
		<linearGradient id="SVGID_2_" gradientUnits="userSpaceOnUse" x1="217.2236" y1="89.3057" x2="344.7236" y2="216.8057" gradientTransform="matrix(0.75 0 0 -0.75 -136.7179 565.3732)">
		<stop  offset="0.39" style="stop-color:#E1E1E1"/>
		<stop  offset="0.72" style="stop-color:#D3D3D3"/>
	</linearGradient>
	<path fill="url(#SVGID_2_)" d="M133.449,483.394l-93-69l-25.5,3l39.75,69.75L133.449,483.394z"/>
	
		<linearGradient id="SVGID_3_" gradientUnits="userSpaceOnUse" x1="240.1929" y1="207.9985" x2="249.4253" y2="155.6387" gradientTransform="matrix(0.75 0 0 -0.75 102.6957 595.4591)">
		<stop  offset="0.28" style="stop-color:#E1E1E1"/>
		<stop  offset="0.38" style="stop-color:#787878"/>
		<stop  offset="1" style="stop-color:#C0C0C0"/>
	</linearGradient>
	<path fill="url(#SVGID_3_)" stroke="#606060" stroke-linejoin="bevel" stroke-miterlimit="10" d="M260.363,458.73l-6-12.75l9-1.5
		l15,10.5l39.75,16.5l-44.25,2.25L260.363,458.73z"/>
	
		<linearGradient id="SVGID_4_" gradientUnits="userSpaceOnUse" x1="552.6499" y1="231.9614" x2="567.3704" y2="63.706" gradientTransform="matrix(0.75 0 0 -0.75 -118.6886 603.1954)">
		<stop  offset="0.37" style="stop-color:#0080FF"/>
		<stop  offset="0.6" style="stop-color:#005080"/>
		<stop  offset="0.75" style="stop-color:#006780"/>
	</linearGradient>
	<path fill="url(#SVGID_4_)" d="M130.48,514.468c22.5,1.5,433.769-21.961,434.726-32.93c0.273,7.43-55.203,37.566-140.68,35.789
		c-21.797,9.141-141.472,13.621-156.113,15.473C253.48,533.218,128.922,522.578,121.203,521
		c-7.973-1.281-70.328-13.938-78.438-16.109c-8.285-2.422-5.852-16.977,2.457-17.371c3.508-0.051,7.242,0,7.242,0L32.98,452.218
		l48.75,33.75c0,0-1.246,1.48,1.758,4.93c2.742,3.32,24.063,22.559,46.855,23.664L130.48,514.468z"/>
	
		<linearGradient id="SVGID_5_" gradientUnits="userSpaceOnUse" x1="422.0474" y1="228.2959" x2="436.8964" y2="107.3603" gradientTransform="matrix(0.75 0 0 -0.75 -96.9479 657.9406)">
		<stop  offset="0.43" style="stop-color:#B4B4B4"/>
		<stop  offset="0.51" style="stop-color:#F5F5F5"/>
		<stop  offset="0.59" style="stop-color:#878787"/>
	</linearGradient>
	<path fill="url(#SVGID_5_)" stroke="#606060" stroke-linejoin="bevel" stroke-miterlimit="10" d="M66.723,542.214l22.5,9
		c0,0,198.183-33.59,210.355-36.551c12.395-3.199,70.34-7.699,75.086-7.699c4.809,0,18.996,2.664,19.887,6.512
		c0.672,3.988-16.324,8.293-21.074,8.887c-4.504,0.352-302.726,34.941-302.726,34.941l-16.027-15.09H66.723z"/>
	
		<linearGradient id="SVGID_6_" gradientUnits="userSpaceOnUse" x1="240.7632" y1="206.0376" x2="244.4186" y2="176.2666" gradientTransform="matrix(0.75 0 0 -0.75 25.5326 688.6456)">
		<stop  offset="0.2" style="stop-color:#787878"/>
		<stop  offset="1" style="stop-color:#F5F5F5"/>
	</linearGradient>
	<path fill="url(#SVGID_6_)" stroke="#606060" stroke-linejoin="bevel" stroke-miterlimit="10" d="M177.203,545.167
		c0,0,30.465-2.77,28.684-7.5c9.566,0,31.082,1.391,31.082,1.391c0.234,0.109-32.5,7.355-34.805,10.516
		c-2.461,3.094-16.902,3.418-16.902,3.418L177.203,545.167z"/>
	
		<linearGradient id="SVGID_7_" gradientUnits="userSpaceOnUse" x1="209.7949" y1="186.7773" x2="209.7949" y2="201.3027" gradientTransform="matrix(0.75 0 0 -0.75 38.8778 698.9835)">
		<stop  offset="0.34" style="stop-color:#1E1E1E"/>
		<stop  offset="0.89" style="stop-color:#000000"/>
	</linearGradient>
	<path fill="url(#SVGID_7_)" stroke="#000000" stroke-linejoin="bevel" stroke-miterlimit="10" d="M192.047,551.007
		c-2.25,0.75-1.867,6.633,0.504,7.105c2.496,0.395,6.648,0.789,9.348,0.789c-1.602-1.895-3.332-6.473-0.797-10.895
		c-1.555,0.75-6.965,2.367-9.184,3.156L192.047,551.007z"/>
	<path fill="#006FBD" stroke="#C0C0C0" stroke-linejoin="bevel" stroke-miterlimit="10" d="M506.75,457.019
		c7.5-0.75,14.617-4.539,14.617-4.539l4.883,2.289l1.5,3.75c0,0-5.688,3.773-10.605,5.492c-5.145,2.008-10.078,2.949-10.078,2.949
		c-0.316-0.191-0.781-6.293,0.008-10.082L506.75,457.019z"/>
	
		<linearGradient id="SVGID_8_" gradientUnits="userSpaceOnUse" x1="274.02" y1="207.4775" x2="276.5553" y2="178.4987" gradientTransform="matrix(0.75 0 0 -0.75 -151.6881 651.1671)">
		<stop  offset="0.39" style="stop-color:#B4B4B4"/>
		<stop  offset="0.57" style="stop-color:#F0F0F0"/>
		<stop  offset="0.71" style="stop-color:#5A5A5A"/>
	</linearGradient>
	<path fill="url(#SVGID_8_)" stroke="#606060" stroke-linejoin="bevel" stroke-miterlimit="10" d="M-0.02,509.191
		c0,0,63.277-8.211,74.316-8.707c11.184-0.293,35.164-0.688,35.164,1.895c0.02,2.313-15.336,5.473-26.613,6.637
		c-11.617,0.926-68.738,3.551-72.184,3.551c-3.184,0.375-10.684-3.551-10.684-3.551V509.191z"/>
	
		<linearGradient id="SVGID_9_" gradientUnits="userSpaceOnUse" x1="235.3799" y1="163.6646" x2="235.3799" y2="201.3525" gradientTransform="matrix(0.75 0 0 -0.75 48.0731 688.257)">
		<stop  offset="0.34" style="stop-color:#3C3C3C"/>
		<stop  offset="0.89" style="stop-color:#F5F5F5"/>
	</linearGradient>
	<path fill="url(#SVGID_9_)" stroke="#606060" stroke-linejoin="bevel" stroke-miterlimit="10" d="M248.492,538.777
		c0,0-4.715,4.906-4.418,12.902c0.668,8.098,5.344,12.73,5.344,12.73c-0.176-0.133-29.086,4.441-46.598-4.145
		c-2.328-2.738-4.449-8.586-1.781-12.734c28.703-15.504,47.191-8.883,47.191-8.883L248.492,538.777z"/>
	
		<radialGradient id="SVGID_10_" cx="216.0093" cy="166.9541" r="37.0122" gradientTransform="matrix(0.75 0 0 -0.75 92.1693 689.6261)" gradientUnits="userSpaceOnUse">
		<stop  offset="0" style="stop-color:#F5F5F5"/>
		<stop  offset="0.59" style="stop-color:#2D2D2D"/>
		<stop  offset="0.9" style="stop-color:#2D2D2D"/>
		<stop  offset="1" style="stop-color:#2D2D2D"/>
	</radialGradient>
	<path fill="url(#SVGID_10_)" stroke="#606060" stroke-linejoin="bevel" stroke-miterlimit="10" d="M243.84,551.398
		c0-3.75,1.539-12.75,4.391-12.75c3.109,0,5.938,5.699,5.938,12.734c0.172,6.766-1.898,13.027-4.75,13.027
		c-2.578-0.262-5.422-8.664-5.578-13.027V551.398z"/>
	
		<linearGradient id="SVGID_11_" gradientUnits="userSpaceOnUse" x1="236.0322" y1="205.4556" x2="239.1089" y2="180.3976" gradientTransform="matrix(0.75 0 0 -0.75 126.8324 678.006)">
		<stop  offset="0.2" style="stop-color:#787878"/>
		<stop  offset="1" style="stop-color:#F5F5F5"/>
	</linearGradient>
	<path fill="url(#SVGID_11_)" stroke="#606060" stroke-linejoin="bevel" stroke-miterlimit="10" d="M278.5,533.027
		c0,0,25.871-1.738,22.355-6c8.395,0,29.918,0.5,29.918,0.5c0.227,0.25-28.363,6.418-30.371,9.172
		c-1.652,3.078-14.742,2.988-14.742,2.988L278.5,533.027z"/>
	
		<linearGradient id="SVGID_12_" gradientUnits="userSpaceOnUse" x1="209.4521" y1="187.4307" x2="209.4521" y2="201.3057" gradientTransform="matrix(0.75 0 0 -0.75 136.6761 686.2863)">
		<stop  offset="0.34" style="stop-color:#1E1E1E"/>
		<stop  offset="0.89" style="stop-color:#000000"/>
	</linearGradient>
	<path fill="url(#SVGID_12_)" stroke="#000000" stroke-linejoin="bevel" stroke-miterlimit="10" d="M289.843,538.308
		c-2.25,0.75-1.852,6.199,0.418,6.652c2.582,0.098,6.348,0.754,8.926,0.754c-1.844-1.406-3.18-6.184-0.762-10.406
		c-1.832,0.75-6.652,2.262-8.77,3.016L289.843,538.308z"/>
	
		<linearGradient id="SVGID_13_" gradientUnits="userSpaceOnUse" x1="234.0439" y1="165.1543" x2="234.0439" y2="201.4902" gradientTransform="matrix(0.75 0 0 -0.75 145.163 676.0782)">
		<stop  offset="0.34" style="stop-color:#4B4B4B"/>
		<stop  offset="0.89" style="stop-color:#F5F5F5"/>
	</linearGradient>
	<path fill="url(#SVGID_13_)" stroke="#606060" stroke-linejoin="bevel" stroke-miterlimit="10" d="M343.332,526.601
		c0,0-4.145,4.578-3.859,12.215c0.109,7.285,5.105,12.16,5.105,12.16c0.254,0.375-27.785,4.242-44.508-3.957
		c-2.488-2.418-4.945-8.57-1.703-12.164c27.715-15.004,45.074-8.484,45.074-8.484L343.332,526.601z"/>
	
		<radialGradient id="SVGID_14_" cx="215.3784" cy="168.4927" r="35.3502" gradientTransform="matrix(0.75 0 0 -0.75 187.577 677.3488)" gradientUnits="userSpaceOnUse">
		<stop  offset="0" style="stop-color:#F5F5F5"/>
		<stop  offset="0.59" style="stop-color:#2D2D2D"/>
		<stop  offset="0.9" style="stop-color:#2D2D2D"/>
		<stop  offset="1" style="stop-color:#2D2D2D"/>
	</radialGradient>
	<path fill="url(#SVGID_14_)" stroke="#606060" stroke-linejoin="bevel" stroke-miterlimit="10" d="M339.246,538.371
		c0-3,1.473-12,4.195-12c2.555,0,5.668,5.445,5.668,12.16c-0.113,6.59-1.809,12.445-4.535,12.445
		c-3.078,0.145-5.176-8.277-5.328-12.445V538.371z"/>
</g>
</svg>
