<?xml version="1.0" encoding="utf-8"?>
<!-- Generator: Adobe Illustrator 16.0.0, SVG Export Plug-In . SVG Version: 6.00 Build 0)  -->
<!DOCTYPE svg PUBLIC "-//W3C//DTD SVG 1.1//EN" "http://www.w3.org/Graphics/SVG/1.1/DTD/svg11.dtd">
<svg preserveAspectRatio="none"   version="1.1" id="图层_1" xmlns="http://www.w3.org/2000/svg" xmlns:xlink="http://www.w3.org/1999/xlink" x="0px" y="0px"
	 width="567px" height="340.293px" viewBox="-0.035 223.078 567 340.293" enable-background="new -0.035 223.078 567 340.293"
	 xml:space="preserve">
<g id="surface351">
	<path fill="#B4866C" d="M29.797,267.805l65.25,6c0,0,25.141-7.469,28.5-10.645c3-2.855,2.008-11.113,2.008-11.113l-2.008-11.992
		l-15.75-4.5l-27,1.5l-26.25,5.25l-7.5,2.25l-3.75,7.5l-4.5,4.5l-6.75,4.5L29.797,267.805z"/>
	<path fill="#B4866C" d="M123.113,266.477l18,12l10.5-5.25l4.5-14.25l-4.5-14.25l-19.5-3l-15,3L123.113,266.477z"/>
	<path fill="#B4866C" d="M171.984,266.012l9.75,6.75l29.25-3v-11.25l-29.25-15h-15l-13.5,4.5l3,21.75L171.984,266.012z"/>
	<path fill="#B4866C" d="M184.313,250.676l5.25,11.25c0,0,31.684,2.25,39.063,2.922c5.938,0.828,36.965,7.047,36.965,7.047
		l-6.277-39.219l-30.75,6.75l-25.5-2.25l-4.5,6L184.313,250.676z"/>
	<path fill="#B4866C" d="M249.414,232.867c-3.75,9,11.762,30.691,11.762,30.691l39.988,0.059l21.75-13.5l-6-21l-15.75-5.25
		l-20.25,6.75c0,0-28.188-6.469-31.758,2.465L249.414,232.867z"/>
	<path fill="#B4866C" d="M301.597,263.578l52.5,7.5c0,0,13.68-8.18,13.68-9.949c-0.18-2.051,1.719-26.813,1.719-26.813
		l-37.148-8.988l-36.75-2.25c0,0-20.644,2.242-17.707,7.113c2.707,4.887,9.23,22.074,9.23,22.074L301.597,263.578z"/>
	<path fill="#B4866C" d="M343.339,267.66h45.75c0,0,24.727-6.613,25.797-8.57c1.203-1.93-6.871-28.898-6.871-28.898
		c-0.176-0.031-32.102-2.754-45.477,1.512c-13.199,4.457-4.273,14.672-4.273,14.672L343.339,267.66z"/>
	<path fill="#B4866C" d="M422.632,263.195l9.75,9l29.25-4.5l11.25-22.5l-40.5-10.5h-15l-13.5,6l3,27L422.632,263.195z"/>
	<path fill="#B4866C" d="M432.785,270.797l65.25,6c0,0,48.09-8.941,51.203-12.363c4.297-4.887,0-16.09,0-16.09l-20.453-3.047
		l-22.5-11.25h-27l-26.25,6.75v16.5l-6.75-2.25l-4.5,4.5l-6.75,4.5L432.785,270.797z"/>
	
		<linearGradient id="SVGID_1_" gradientUnits="userSpaceOnUse" x1="924.2261" y1="110.3057" x2="202.2271" y2="110.3056" gradientTransform="matrix(0.75 0 0 -0.75 -138.983 423.9865)">
		<stop  offset="0" style="stop-color:#368688"/>
		<stop  offset="0.01" style="stop-color:#8CCDCF"/>
		<stop  offset="0.02" style="stop-color:#49AFB2"/>
		<stop  offset="0.64" style="stop-color:#48ACAF"/>
		<stop  offset="0.99" style="stop-color:#46A8AB"/>
		<stop  offset="1" style="stop-color:#317C7E"/>
	</linearGradient>
	<path fill="url(#SVGID_1_)" d="M12.688,273.008h541.5v136.5h-541.5V273.008z"/>
	
		<linearGradient id="SVGID_2_" gradientUnits="userSpaceOnUse" x1="219.2236" y1="111.3052" x2="202.2236" y2="111.3052" gradientTransform="matrix(0.75 0 0 -0.75 -39.422 423.9865)">
		<stop  offset="0" style="stop-color:#4C9396"/>
		<stop  offset="0.01" style="stop-color:#9ADBDE"/>
		<stop  offset="0.02" style="stop-color:#65C0C4"/>
		<stop  offset="0.64" style="stop-color:#63BDC1"/>
		<stop  offset="0.99" style="stop-color:#61B9BC"/>
		<stop  offset="1" style="stop-color:#46898B"/>
	</linearGradient>
	<path fill="url(#SVGID_2_)" d="M112.246,273.008h12.75v135h-12.75V273.008z"/>
	
		<linearGradient id="SVGID_3_" gradientUnits="userSpaceOnUse" x1="219.2271" y1="111.3052" x2="202.2271" y2="111.3052" gradientTransform="matrix(0.75 0 0 -0.75 -94.3893 423.9865)">
		<stop  offset="0" style="stop-color:#4C9396"/>
		<stop  offset="0.01" style="stop-color:#9ADBDE"/>
		<stop  offset="0.02" style="stop-color:#65C0C4"/>
		<stop  offset="0.64" style="stop-color:#63BDC1"/>
		<stop  offset="0.99" style="stop-color:#61B9BC"/>
		<stop  offset="1" style="stop-color:#46898B"/>
	</linearGradient>
	<path fill="url(#SVGID_3_)" d="M57.281,273.008h12.75v135h-12.75V273.008z"/>
	
		<linearGradient id="SVGID_4_" gradientUnits="userSpaceOnUse" x1="219.2266" y1="111.3052" x2="202.2266" y2="111.3052" gradientTransform="matrix(0.75 0 0 -0.75 15.5448 423.9865)">
		<stop  offset="0" style="stop-color:#4C9396"/>
		<stop  offset="0.01" style="stop-color:#9ADBDE"/>
		<stop  offset="0.02" style="stop-color:#65C0C4"/>
		<stop  offset="0.64" style="stop-color:#63BDC1"/>
		<stop  offset="0.99" style="stop-color:#61B9BC"/>
		<stop  offset="1" style="stop-color:#46898B"/>
	</linearGradient>
	<path fill="url(#SVGID_4_)" d="M167.215,273.008h12.75v135h-12.75V273.008z"/>
	
		<linearGradient id="SVGID_5_" gradientUnits="userSpaceOnUse" x1="219.2236" y1="111.3052" x2="202.2236" y2="111.3052" gradientTransform="matrix(0.75 0 0 -0.75 70.5116 423.9865)">
		<stop  offset="0" style="stop-color:#4C9396"/>
		<stop  offset="0.01" style="stop-color:#9ADBDE"/>
		<stop  offset="0.02" style="stop-color:#65C0C4"/>
		<stop  offset="0.64" style="stop-color:#63BDC1"/>
		<stop  offset="0.99" style="stop-color:#61B9BC"/>
		<stop  offset="1" style="stop-color:#46898B"/>
	</linearGradient>
	<path fill="url(#SVGID_5_)" d="M222.18,273.008h12.75v135h-12.75V273.008z"/>
	
		<linearGradient id="SVGID_6_" gradientUnits="userSpaceOnUse" x1="219.2246" y1="111.3052" x2="202.2256" y2="111.3052" gradientTransform="matrix(0.75 0 0 -0.75 125.4789 423.9865)">
		<stop  offset="0" style="stop-color:#4C9396"/>
		<stop  offset="0.01" style="stop-color:#9ADBDE"/>
		<stop  offset="0.02" style="stop-color:#65C0C4"/>
		<stop  offset="0.64" style="stop-color:#63BDC1"/>
		<stop  offset="0.99" style="stop-color:#61B9BC"/>
		<stop  offset="1" style="stop-color:#46898B"/>
	</linearGradient>
	<path fill="url(#SVGID_6_)" d="M277.148,273.008h12.75v135h-12.75V273.008z"/>
	
		<linearGradient id="SVGID_7_" gradientUnits="userSpaceOnUse" x1="219.2256" y1="111.3052" x2="202.2256" y2="111.3052" gradientTransform="matrix(0.75 0 0 -0.75 180.4471 423.9865)">
		<stop  offset="0" style="stop-color:#4C9396"/>
		<stop  offset="0.01" style="stop-color:#9ADBDE"/>
		<stop  offset="0.02" style="stop-color:#65C0C4"/>
		<stop  offset="0.64" style="stop-color:#63BDC1"/>
		<stop  offset="0.99" style="stop-color:#61B9BC"/>
		<stop  offset="1" style="stop-color:#46898B"/>
	</linearGradient>
	<path fill="url(#SVGID_7_)" d="M332.117,273.008h12.75v135h-12.75V273.008z"/>
	
		<linearGradient id="SVGID_8_" gradientUnits="userSpaceOnUse" x1="219.2256" y1="111.3052" x2="202.2256" y2="111.3052" gradientTransform="matrix(0.75 0 0 -0.75 235.412 423.9865)">
		<stop  offset="0" style="stop-color:#4C9396"/>
		<stop  offset="0.01" style="stop-color:#9ADBDE"/>
		<stop  offset="0.02" style="stop-color:#65C0C4"/>
		<stop  offset="0.64" style="stop-color:#63BDC1"/>
		<stop  offset="0.99" style="stop-color:#61B9BC"/>
		<stop  offset="1" style="stop-color:#46898B"/>
	</linearGradient>
	<path fill="url(#SVGID_8_)" d="M387.082,273.008h12.75v135h-12.75V273.008z"/>
	
		<linearGradient id="SVGID_9_" gradientUnits="userSpaceOnUse" x1="219.2222" y1="111.3052" x2="202.2222" y2="111.3052" gradientTransform="matrix(0.75 0 0 -0.75 290.3798 423.9865)">
		<stop  offset="0" style="stop-color:#4C9396"/>
		<stop  offset="0.01" style="stop-color:#9ADBDE"/>
		<stop  offset="0.02" style="stop-color:#65C0C4"/>
		<stop  offset="0.64" style="stop-color:#63BDC1"/>
		<stop  offset="0.99" style="stop-color:#61B9BC"/>
		<stop  offset="1" style="stop-color:#46898B"/>
	</linearGradient>
	<path fill="url(#SVGID_9_)" d="M442.046,273.008h12.75v135h-12.75V273.008z"/>
	
		<linearGradient id="SVGID_10_" gradientUnits="userSpaceOnUse" x1="219.2241" y1="111.3052" x2="202.2241" y2="111.3052" gradientTransform="matrix(0.75 0 0 -0.75 345.3466 423.9865)">
		<stop  offset="0" style="stop-color:#4C9396"/>
		<stop  offset="0.01" style="stop-color:#9ADBDE"/>
		<stop  offset="0.02" style="stop-color:#65C0C4"/>
		<stop  offset="0.64" style="stop-color:#63BDC1"/>
		<stop  offset="0.99" style="stop-color:#61B9BC"/>
		<stop  offset="1" style="stop-color:#46898B"/>
	</linearGradient>
	<path fill="url(#SVGID_10_)" d="M497.015,273.008h12.75v135h-12.75V273.008z"/>
	
		<linearGradient id="SVGID_11_" gradientUnits="userSpaceOnUse" x1="428.2261" y1="161.3066" x2="202.2261" y2="161.3066" gradientTransform="matrix(0.75 0 0 -0.75 -43.2096 569.4669)">
		<stop  offset="0" style="stop-color:#368688"/>
		<stop  offset="0.01" style="stop-color:#8CCDCF"/>
		<stop  offset="0.02" style="stop-color:#49AFB2"/>
		<stop  offset="0.64" style="stop-color:#48ACAF"/>
		<stop  offset="0.99" style="stop-color:#46A8AB"/>
		<stop  offset="1" style="stop-color:#317C7E"/>
	</linearGradient>
	<path fill="url(#SVGID_11_)" d="M108.461,418.488h169.5l-57,60h-54.75L108.461,418.488z"/>
	
		<linearGradient id="SVGID_12_" gradientUnits="userSpaceOnUse" x1="279.7227" y1="201.3037" x2="279.7227" y2="195.3037" gradientTransform="matrix(0.75 0 0 -0.75 -16.7101 597.2784)">
		<stop  offset="0" style="stop-color:#368688"/>
		<stop  offset="0.01" style="stop-color:#8CCDCF"/>
		<stop  offset="0.02" style="stop-color:#49AFB2"/>
		<stop  offset="0.64" style="stop-color:#48ACAF"/>
		<stop  offset="0.99" style="stop-color:#46A8AB"/>
		<stop  offset="1" style="stop-color:#317C7E"/>
	</linearGradient>
	<path fill="url(#SVGID_12_)" d="M134.957,446.3h116.25v4.5h-116.25V446.3z"/>
	
		<linearGradient id="SVGID_13_" gradientUnits="userSpaceOnUse" x1="207.2241" y1="162.3047" x2="202.2241" y2="162.3047" gradientTransform="matrix(0.75 0 0 -0.75 19.1639 570.0441)">
		<stop  offset="0" style="stop-color:#368688"/>
		<stop  offset="0.01" style="stop-color:#8CCDCF"/>
		<stop  offset="0.02" style="stop-color:#49AFB2"/>
		<stop  offset="0.64" style="stop-color:#48ACAF"/>
		<stop  offset="0.99" style="stop-color:#46A8AB"/>
		<stop  offset="1" style="stop-color:#317C7E"/>
	</linearGradient>
	<path fill="url(#SVGID_13_)" d="M170.832,419.066h3.75v58.5h-3.75V419.066z"/>
	
		<linearGradient id="SVGID_14_" gradientUnits="userSpaceOnUse" x1="207.2241" y1="162.3047" x2="202.2241" y2="162.3047" gradientTransform="matrix(0.75 0 0 -0.75 59.9174 570.0441)">
		<stop  offset="0" style="stop-color:#368688"/>
		<stop  offset="0.01" style="stop-color:#8CCDCF"/>
		<stop  offset="0.02" style="stop-color:#49AFB2"/>
		<stop  offset="0.64" style="stop-color:#48ACAF"/>
		<stop  offset="0.99" style="stop-color:#46A8AB"/>
		<stop  offset="1" style="stop-color:#317C7E"/>
	</linearGradient>
	<path fill="url(#SVGID_14_)" d="M211.586,419.066h3.75v58.5h-3.75V419.066z"/>
	
		<linearGradient id="SVGID_15_" gradientUnits="userSpaceOnUse" x1="428.2261" y1="161.3047" x2="202.2261" y2="161.3047" gradientTransform="matrix(0.75 0 0 -0.75 137.9813 569.0558)">
		<stop  offset="0" style="stop-color:#368688"/>
		<stop  offset="0.01" style="stop-color:#8CCDCF"/>
		<stop  offset="0.02" style="stop-color:#49AFB2"/>
		<stop  offset="0.64" style="stop-color:#48ACAF"/>
		<stop  offset="0.99" style="stop-color:#46A8AB"/>
		<stop  offset="1" style="stop-color:#317C7E"/>
	</linearGradient>
	<path fill="url(#SVGID_15_)" d="M289.652,418.078h169.5l-57,60h-54.75L289.652,418.078z"/>
	
		<linearGradient id="SVGID_16_" gradientUnits="userSpaceOnUse" x1="279.7217" y1="201.3018" x2="279.7217" y2="195.3018" gradientTransform="matrix(0.75 0 0 -0.75 164.4813 596.8663)">
		<stop  offset="0" style="stop-color:#368688"/>
		<stop  offset="0.01" style="stop-color:#8CCDCF"/>
		<stop  offset="0.02" style="stop-color:#49AFB2"/>
		<stop  offset="0.64" style="stop-color:#48ACAF"/>
		<stop  offset="0.99" style="stop-color:#46A8AB"/>
		<stop  offset="1" style="stop-color:#317C7E"/>
	</linearGradient>
	<path fill="url(#SVGID_16_)" d="M316.148,445.89h116.25v4.5h-116.25V445.89z"/>
	
		<linearGradient id="SVGID_17_" gradientUnits="userSpaceOnUse" x1="207.2236" y1="162.3027" x2="202.2236" y2="162.3027" gradientTransform="matrix(0.75 0 0 -0.75 200.3553 569.6329)">
		<stop  offset="0" style="stop-color:#368688"/>
		<stop  offset="0.01" style="stop-color:#8CCDCF"/>
		<stop  offset="0.02" style="stop-color:#49AFB2"/>
		<stop  offset="0.64" style="stop-color:#48ACAF"/>
		<stop  offset="0.99" style="stop-color:#46A8AB"/>
		<stop  offset="1" style="stop-color:#317C7E"/>
	</linearGradient>
	<path fill="url(#SVGID_17_)" d="M352.023,418.656h3.75v58.5h-3.75V418.656z"/>
	
		<linearGradient id="SVGID_18_" gradientUnits="userSpaceOnUse" x1="207.2241" y1="162.3027" x2="202.2241" y2="162.3027" gradientTransform="matrix(0.75 0 0 -0.75 241.1083 569.6329)">
		<stop  offset="0" style="stop-color:#368688"/>
		<stop  offset="0.01" style="stop-color:#8CCDCF"/>
		<stop  offset="0.02" style="stop-color:#49AFB2"/>
		<stop  offset="0.64" style="stop-color:#48ACAF"/>
		<stop  offset="0.99" style="stop-color:#46A8AB"/>
		<stop  offset="1" style="stop-color:#317C7E"/>
	</linearGradient>
	<path fill="url(#SVGID_18_)" d="M392.777,418.656h3.75v58.5h-3.75V418.656z"/>
	
		<linearGradient id="SVGID_19_" gradientUnits="userSpaceOnUse" x1="236.2236" y1="187.6284" x2="202.2236" y2="187.6284" gradientTransform="matrix(0.75 0 0 -0.75 20.2382 650.2521)">
		<stop  offset="0" style="stop-color:#4C9396"/>
		<stop  offset="0.01" style="stop-color:#9ADBDE"/>
		<stop  offset="0.02" style="stop-color:#65C0C4"/>
		<stop  offset="0.64" style="stop-color:#63BDC1"/>
		<stop  offset="0.99" style="stop-color:#61B9BC"/>
		<stop  offset="1" style="stop-color:#46898B"/>
	</linearGradient>
	<path fill="url(#SVGID_19_)" d="M197.406,499.273v20.25c0,0-0.242,0.266-0.313,0.266l-25.188-0.266c0,0,0,0.031,0-0.258v-19.992
		H197.406z"/>
	
		<linearGradient id="SVGID_20_" gradientUnits="userSpaceOnUse" x1="236.2236" y1="200.1875" x2="202.2236" y2="200.1875" gradientTransform="matrix(0.75 0 0 -0.75 20.2382 654.8409)">
		<stop  offset="0" style="stop-color:#368688"/>
		<stop  offset="0.01" style="stop-color:#8CCDCF"/>
		<stop  offset="0.02" style="stop-color:#49AFB2"/>
		<stop  offset="0.64" style="stop-color:#48ACAF"/>
		<stop  offset="0.99" style="stop-color:#46A8AB"/>
		<stop  offset="1" style="stop-color:#317C7E"/>
	</linearGradient>
	<path fill="url(#SVGID_20_)" d="M197.406,503.863v1.5c0,0-0.242,0.176-0.313,0.176l-25.188-0.176c0,0,0,0.16,0,0.137v-1.637
		H197.406z"/>
	
		<linearGradient id="SVGID_21_" gradientUnits="userSpaceOnUse" x1="236.2236" y1="200.1846" x2="202.2236" y2="200.1846" gradientTransform="matrix(0.75 0 0 -0.75 20.2382 660.2511)">
		<stop  offset="0" style="stop-color:#368688"/>
		<stop  offset="0.01" style="stop-color:#8CCDCF"/>
		<stop  offset="0.02" style="stop-color:#49AFB2"/>
		<stop  offset="0.64" style="stop-color:#48ACAF"/>
		<stop  offset="0.99" style="stop-color:#46A8AB"/>
		<stop  offset="1" style="stop-color:#317C7E"/>
	</linearGradient>
	<path fill="url(#SVGID_21_)" d="M197.406,509.273v1.5c0,0-0.242,0.18-0.313,0.18l-25.188-0.18c0,0,0,0.16,0,0.137v-1.637H197.406z"
		/>
	
		<linearGradient id="SVGID_22_" gradientUnits="userSpaceOnUse" x1="236.2236" y1="200.186" x2="202.2236" y2="200.186" gradientTransform="matrix(0.75 0 0 -0.75 20.2382 665.6613)">
		<stop  offset="0" style="stop-color:#368688"/>
		<stop  offset="0.01" style="stop-color:#8CCDCF"/>
		<stop  offset="0.02" style="stop-color:#49AFB2"/>
		<stop  offset="0.64" style="stop-color:#48ACAF"/>
		<stop  offset="0.99" style="stop-color:#46A8AB"/>
		<stop  offset="1" style="stop-color:#317C7E"/>
	</linearGradient>
	<path fill="url(#SVGID_22_)" d="M197.406,514.683v1.5c0,0-0.242,0.18-0.313,0.18l-25.188-0.18c0,0,0,0.16,0,0.137v-1.637H197.406z"
		/>
	
		<linearGradient id="SVGID_23_" gradientUnits="userSpaceOnUse" x1="236.2227" y1="187.6284" x2="202.2227" y2="187.6284" gradientTransform="matrix(0.75 0 0 -0.75 86.161 650.2521)">
		<stop  offset="0" style="stop-color:#4C9396"/>
		<stop  offset="0.01" style="stop-color:#9ADBDE"/>
		<stop  offset="0.02" style="stop-color:#65C0C4"/>
		<stop  offset="0.64" style="stop-color:#63BDC1"/>
		<stop  offset="0.99" style="stop-color:#61B9BC"/>
		<stop  offset="1" style="stop-color:#46898B"/>
	</linearGradient>
	<path fill="url(#SVGID_23_)" d="M263.328,499.273v20.25c0,0-0.242,0.266-0.313,0.266l-25.188-0.266c0,0,0,0.031,0-0.258v-19.992
		H263.328z"/>
	
		<linearGradient id="SVGID_24_" gradientUnits="userSpaceOnUse" x1="236.2227" y1="200.1875" x2="202.2227" y2="200.1875" gradientTransform="matrix(0.75 0 0 -0.75 86.161 654.8409)">
		<stop  offset="0" style="stop-color:#368688"/>
		<stop  offset="0.01" style="stop-color:#8CCDCF"/>
		<stop  offset="0.02" style="stop-color:#49AFB2"/>
		<stop  offset="0.64" style="stop-color:#48ACAF"/>
		<stop  offset="0.99" style="stop-color:#46A8AB"/>
		<stop  offset="1" style="stop-color:#317C7E"/>
	</linearGradient>
	<path fill="url(#SVGID_24_)" d="M263.328,503.863v1.5c0,0-0.242,0.176-0.313,0.176l-25.188-0.176c0,0,0,0.16,0,0.137v-1.637
		H263.328z"/>
	
		<linearGradient id="SVGID_25_" gradientUnits="userSpaceOnUse" x1="236.2227" y1="200.1846" x2="202.2227" y2="200.1846" gradientTransform="matrix(0.75 0 0 -0.75 86.161 660.2511)">
		<stop  offset="0" style="stop-color:#368688"/>
		<stop  offset="0.01" style="stop-color:#8CCDCF"/>
		<stop  offset="0.02" style="stop-color:#49AFB2"/>
		<stop  offset="0.64" style="stop-color:#48ACAF"/>
		<stop  offset="0.99" style="stop-color:#46A8AB"/>
		<stop  offset="1" style="stop-color:#317C7E"/>
	</linearGradient>
	<path fill="url(#SVGID_25_)" d="M263.328,509.273v1.5c0,0-0.242,0.18-0.313,0.18l-25.188-0.18c0,0,0,0.16,0,0.137v-1.637H263.328z"
		/>
	
		<linearGradient id="SVGID_26_" gradientUnits="userSpaceOnUse" x1="236.2227" y1="200.186" x2="202.2227" y2="200.186" gradientTransform="matrix(0.75 0 0 -0.75 86.161 665.6613)">
		<stop  offset="0" style="stop-color:#368688"/>
		<stop  offset="0.01" style="stop-color:#8CCDCF"/>
		<stop  offset="0.02" style="stop-color:#49AFB2"/>
		<stop  offset="0.64" style="stop-color:#48ACAF"/>
		<stop  offset="0.99" style="stop-color:#46A8AB"/>
		<stop  offset="1" style="stop-color:#317C7E"/>
	</linearGradient>
	<path fill="url(#SVGID_26_)" d="M263.328,514.683v1.5c0,0-0.242,0.18-0.313,0.18l-25.188-0.18c0,0,0,0.16,0,0.137v-1.637H263.328z"
		/>
	
		<linearGradient id="SVGID_27_" gradientUnits="userSpaceOnUse" x1="236.2275" y1="187.6284" x2="202.2275" y2="187.6284" gradientTransform="matrix(0.75 0 0 -0.75 152.0829 650.2521)">
		<stop  offset="0" style="stop-color:#4C9396"/>
		<stop  offset="0.01" style="stop-color:#9ADBDE"/>
		<stop  offset="0.02" style="stop-color:#65C0C4"/>
		<stop  offset="0.64" style="stop-color:#63BDC1"/>
		<stop  offset="0.99" style="stop-color:#61B9BC"/>
		<stop  offset="1" style="stop-color:#46898B"/>
	</linearGradient>
	<path fill="url(#SVGID_27_)" d="M329.253,499.273v20.25c0,0-0.246,0.266-0.313,0.266l-25.188-0.266c0,0,0,0.031,0-0.258v-19.992
		H329.253z"/>
	
		<linearGradient id="SVGID_28_" gradientUnits="userSpaceOnUse" x1="236.2275" y1="200.1875" x2="202.2275" y2="200.1875" gradientTransform="matrix(0.75 0 0 -0.75 152.0829 654.8409)">
		<stop  offset="0" style="stop-color:#368688"/>
		<stop  offset="0.01" style="stop-color:#8CCDCF"/>
		<stop  offset="0.02" style="stop-color:#49AFB2"/>
		<stop  offset="0.64" style="stop-color:#48ACAF"/>
		<stop  offset="0.99" style="stop-color:#46A8AB"/>
		<stop  offset="1" style="stop-color:#317C7E"/>
	</linearGradient>
	<path fill="url(#SVGID_28_)" d="M329.253,503.863v1.5c0,0-0.246,0.176-0.313,0.176l-25.188-0.176c0,0,0,0.16,0,0.137v-1.637
		H329.253z"/>
	
		<linearGradient id="SVGID_29_" gradientUnits="userSpaceOnUse" x1="236.2275" y1="200.1846" x2="202.2275" y2="200.1846" gradientTransform="matrix(0.75 0 0 -0.75 152.0829 660.2511)">
		<stop  offset="0" style="stop-color:#368688"/>
		<stop  offset="0.01" style="stop-color:#8CCDCF"/>
		<stop  offset="0.02" style="stop-color:#49AFB2"/>
		<stop  offset="0.64" style="stop-color:#48ACAF"/>
		<stop  offset="0.99" style="stop-color:#46A8AB"/>
		<stop  offset="1" style="stop-color:#317C7E"/>
	</linearGradient>
	<path fill="url(#SVGID_29_)" d="M329.253,509.273v1.5c0,0-0.246,0.18-0.313,0.18l-25.188-0.18c0,0,0,0.16,0,0.137v-1.637H329.253z"
		/>
	
		<linearGradient id="SVGID_30_" gradientUnits="userSpaceOnUse" x1="236.2275" y1="200.186" x2="202.2275" y2="200.186" gradientTransform="matrix(0.75 0 0 -0.75 152.0829 665.6613)">
		<stop  offset="0" style="stop-color:#368688"/>
		<stop  offset="0.01" style="stop-color:#8CCDCF"/>
		<stop  offset="0.02" style="stop-color:#49AFB2"/>
		<stop  offset="0.64" style="stop-color:#48ACAF"/>
		<stop  offset="0.99" style="stop-color:#46A8AB"/>
		<stop  offset="1" style="stop-color:#317C7E"/>
	</linearGradient>
	<path fill="url(#SVGID_30_)" d="M329.253,514.683v1.5c0,0-0.246,0.18-0.313,0.18l-25.188-0.18c0,0,0,0.16,0,0.137v-1.637H329.253z"
		/>
	
		<linearGradient id="SVGID_31_" gradientUnits="userSpaceOnUse" x1="236.2256" y1="187.6284" x2="202.2256" y2="187.6284" gradientTransform="matrix(0.75 0 0 -0.75 218.0057 650.2521)">
		<stop  offset="0" style="stop-color:#4C9396"/>
		<stop  offset="0.01" style="stop-color:#9ADBDE"/>
		<stop  offset="0.02" style="stop-color:#65C0C4"/>
		<stop  offset="0.64" style="stop-color:#63BDC1"/>
		<stop  offset="0.99" style="stop-color:#61B9BC"/>
		<stop  offset="1" style="stop-color:#46898B"/>
	</linearGradient>
	<path fill="url(#SVGID_31_)" d="M395.175,499.273v20.25c0,0-0.246,0.266-0.313,0.266l-25.188-0.266c0,0,0,0.031,0-0.258v-19.992
		H395.175z"/>
	
		<linearGradient id="SVGID_32_" gradientUnits="userSpaceOnUse" x1="236.2256" y1="200.1875" x2="202.2256" y2="200.1875" gradientTransform="matrix(0.75 0 0 -0.75 218.0057 654.8409)">
		<stop  offset="0" style="stop-color:#368688"/>
		<stop  offset="0.01" style="stop-color:#8CCDCF"/>
		<stop  offset="0.02" style="stop-color:#49AFB2"/>
		<stop  offset="0.64" style="stop-color:#48ACAF"/>
		<stop  offset="0.99" style="stop-color:#46A8AB"/>
		<stop  offset="1" style="stop-color:#317C7E"/>
	</linearGradient>
	<path fill="url(#SVGID_32_)" d="M395.175,503.863v1.5c0,0-0.246,0.176-0.313,0.176l-25.188-0.176c0,0,0,0.16,0,0.137v-1.637
		H395.175z"/>
	
		<linearGradient id="SVGID_33_" gradientUnits="userSpaceOnUse" x1="236.2256" y1="200.1846" x2="202.2256" y2="200.1846" gradientTransform="matrix(0.75 0 0 -0.75 218.0057 660.2511)">
		<stop  offset="0" style="stop-color:#368688"/>
		<stop  offset="0.01" style="stop-color:#8CCDCF"/>
		<stop  offset="0.02" style="stop-color:#49AFB2"/>
		<stop  offset="0.64" style="stop-color:#48ACAF"/>
		<stop  offset="0.99" style="stop-color:#46A8AB"/>
		<stop  offset="1" style="stop-color:#317C7E"/>
	</linearGradient>
	<path fill="url(#SVGID_33_)" d="M395.175,509.273v1.5c0,0-0.246,0.18-0.313,0.18l-25.188-0.18c0,0,0,0.16,0,0.137v-1.637H395.175z"
		/>
	
		<linearGradient id="SVGID_34_" gradientUnits="userSpaceOnUse" x1="236.2256" y1="200.186" x2="202.2256" y2="200.186" gradientTransform="matrix(0.75 0 0 -0.75 218.0057 665.6613)">
		<stop  offset="0" style="stop-color:#368688"/>
		<stop  offset="0.01" style="stop-color:#8CCDCF"/>
		<stop  offset="0.02" style="stop-color:#49AFB2"/>
		<stop  offset="0.64" style="stop-color:#48ACAF"/>
		<stop  offset="0.99" style="stop-color:#46A8AB"/>
		<stop  offset="1" style="stop-color:#317C7E"/>
	</linearGradient>
	<path fill="url(#SVGID_34_)" d="M395.175,514.683v1.5c0,0-0.246,0.18-0.313,0.18l-25.188-0.18c0,0,0,0.16,0,0.137v-1.637H395.175z"
		/>
	
		<linearGradient id="SVGID_35_" gradientUnits="userSpaceOnUse" x1="220.2246" y1="162.3057" x2="202.2256" y2="162.3057" gradientTransform="matrix(0.75 0 0 -0.75 124.9164 569.756)">
		<stop  offset="0" style="stop-color:#4C9396"/>
		<stop  offset="0.01" style="stop-color:#9ADBDE"/>
		<stop  offset="0.02" style="stop-color:#65C0C4"/>
		<stop  offset="0.64" style="stop-color:#63BDC1"/>
		<stop  offset="0.99" style="stop-color:#61B9BC"/>
		<stop  offset="1" style="stop-color:#46898B"/>
	</linearGradient>
	<path fill="url(#SVGID_35_)" d="M276.586,418.777h13.5v58.5h-13.5V418.777z"/>
	<path fill="#3E3938" stroke="#3E3938" stroke-width="0.25" stroke-linejoin="bevel" stroke-miterlimit="10" d="M473.125,528.136
		c0-19.5,15.691-35.25,35.047-35.25c19.703,0,35.047,15.75,35.047,35.18c-0.344,19.57-15.691,35.18-35.047,35.18
		c-19.297,0.141-35.047-15.75-35.047-35.18V528.136z"/>
	
		<radialGradient id="SVGID_36_" cx="243.1685" cy="160.2427" r="57.9852" gradientTransform="matrix(0.75 0 0 -0.75 325.7958 648.2472)" gradientUnits="userSpaceOnUse">
		<stop  offset="0" style="stop-color:#3C3736"/>
		<stop  offset="0.54" style="stop-color:#3B3635"/>
		<stop  offset="0.74" style="stop-color:#5B5858"/>
		<stop  offset="0.91" style="stop-color:#3B3635"/>
		<stop  offset="1" style="stop-color:#3B3635"/>
	</radialGradient>
	<path fill="url(#SVGID_36_)" stroke="#3E3938" stroke-width="0.25" stroke-linejoin="bevel" stroke-miterlimit="10" d="
		M477.464,528.019c0-17.25,13.746-30.75,30.707-30.75c17.293,0,30.707,13.789,30.707,30.797
		c0.086,17.203-13.75,30.797-30.707,30.797c-17.207-0.094-30.707-13.789-30.707-30.797V528.019z"/>
	
		<linearGradient id="SVGID_37_" gradientUnits="userSpaceOnUse" x1="289.2231" y1="170.4326" x2="202.2236" y2="170.4326" gradientTransform="matrix(0.75 0 0 -0.75 323.9598 654.338)">
		<stop  offset="0" style="stop-color:#3D3B3B"/>
		<stop  offset="0.01" style="stop-color:#908F8F"/>
		<stop  offset="0.02" style="stop-color:#514F4F"/>
		<stop  offset="0.64" style="stop-color:#504E4E"/>
		<stop  offset="0.99" style="stop-color:#4E4C4C"/>
		<stop  offset="1" style="stop-color:#383636"/>
	</linearGradient>
	<path fill="url(#SVGID_37_)" d="M475.628,503.359h65.25l-12,38.25c0,0-5.539,8.059-20.336,8.059
		c-17.914,0.191-21.164-8.035-21.164-8.035L475.628,503.359z"/>
	
		<radialGradient id="SVGID_38_" cx="245.7261" cy="189.0786" r="45.1843" gradientTransform="matrix(0.75 0 0 -0.75 323.9432 653.9249)" gradientUnits="userSpaceOnUse">
		<stop  offset="0" style="stop-color:#3C3736"/>
		<stop  offset="0.54" style="stop-color:#3B3635"/>
		<stop  offset="0.74" style="stop-color:#5B5858"/>
		<stop  offset="0.91" style="stop-color:#3B3635"/>
		<stop  offset="1" style="stop-color:#3B3635"/>
	</radialGradient>
	<path fill="url(#SVGID_38_)" stroke="#3E3938" stroke-width="0.25" stroke-linejoin="bevel" stroke-miterlimit="10" d="
		M540.863,502.945c-6.75,11.25-18.926,18.344-32.691,18.344c-13.809-0.344-25.891-7.359-32.559-18.344c0,0.75,65.117,0,65.117,0
		H540.863z"/>
	
		<linearGradient id="SVGID_39_" gradientUnits="userSpaceOnUse" x1="229.2271" y1="185.8027" x2="202.2271" y2="185.8027" gradientTransform="matrix(0.75 0 0 -0.75 346.4891 666.0538)">
		<stop  offset="0" style="stop-color:#4E4D4D"/>
		<stop  offset="0.01" style="stop-color:#9C9B9B"/>
		<stop  offset="0.02" style="stop-color:#686767"/>
		<stop  offset="0.64" style="stop-color:#666565"/>
		<stop  offset="0.99" style="stop-color:#636262"/>
		<stop  offset="1" style="stop-color:#484747"/>
	</linearGradient>
	<path fill="url(#SVGID_39_)" d="M498.91,515.078h18.75c0,0,0.523,0.23,0.523,0.52l0.227,21.98c0,0-0.457,0.559-0.746,0.559
		l-18.754,0.191c-0.75,0-0.75-0.426-0.75-0.711v-21.789c0-0.75,0.23-0.75,0.52-0.75H498.91z"/>
	
		<radialGradient id="SVGID_40_" cx="211.6289" cy="191.8726" r="13.3222" gradientTransform="matrix(0.75 0 0 -0.75 349.4501 670.5226)" gradientUnits="userSpaceOnUse">
		<stop  offset="0" style="stop-color:#565454"/>
		<stop  offset="0.54" style="stop-color:#555353"/>
		<stop  offset="0.74" style="stop-color:#6D6C6C"/>
		<stop  offset="0.91" style="stop-color:#555353"/>
		<stop  offset="1" style="stop-color:#555353"/>
	</radialGradient>
	<path fill="url(#SVGID_40_)" stroke="#595757" stroke-width="0.25" stroke-linejoin="bevel" stroke-miterlimit="10" d="
		M501.117,526.292c0-3.75,3.16-6.75,7.055-6.75c4.195,0,7.051,3.168,7.051,7.074c0.145,4.176-3.156,7.074-7.051,7.074
		c-4.055,0.102-7.055-3.168-7.055-7.074V526.292z"/>
	<path fill="#3E3938" stroke="#3E3938" stroke-width="0.25" stroke-linejoin="bevel" stroke-miterlimit="10" d="M403.82,528.136
		c0-19.5,15.691-35.25,35.047-35.25c19.703,0,35.051,15.75,35.051,35.18c-0.348,19.57-15.691,35.18-35.051,35.18
		c-19.297,0.141-35.047-15.75-35.047-35.18V528.136z"/>
	
		<radialGradient id="SVGID_41_" cx="243.1655" cy="160.2427" r="57.9873" gradientTransform="matrix(0.75 0 0 -0.75 256.493 648.2472)" gradientUnits="userSpaceOnUse">
		<stop  offset="0" style="stop-color:#3C3736"/>
		<stop  offset="0.54" style="stop-color:#3B3635"/>
		<stop  offset="0.74" style="stop-color:#5B5858"/>
		<stop  offset="0.91" style="stop-color:#3B3635"/>
		<stop  offset="1" style="stop-color:#3B3635"/>
	</radialGradient>
	<path fill="url(#SVGID_41_)" stroke="#3E3938" stroke-width="0.25" stroke-linejoin="bevel" stroke-miterlimit="10" d="
		M408.16,528.019c0-17.25,13.75-30.75,30.707-30.75c17.293,0,30.707,13.789,30.707,30.797c0.086,17.203-13.746,30.797-30.707,30.797
		c-17.207-0.094-30.707-13.789-30.707-30.797V528.019z"/>
	
		<linearGradient id="SVGID_42_" gradientUnits="userSpaceOnUse" x1="289.2212" y1="170.4326" x2="202.2212" y2="170.4326" gradientTransform="matrix(0.75 0 0 -0.75 254.6571 654.338)">
		<stop  offset="0" style="stop-color:#3D3B3B"/>
		<stop  offset="0.01" style="stop-color:#908F8F"/>
		<stop  offset="0.02" style="stop-color:#514F4F"/>
		<stop  offset="0.64" style="stop-color:#504E4E"/>
		<stop  offset="0.99" style="stop-color:#4E4C4C"/>
		<stop  offset="1" style="stop-color:#383636"/>
	</linearGradient>
	<path fill="url(#SVGID_42_)" d="M406.324,503.359h65.25l-12,38.25c0,0-5.539,8.059-20.336,8.059
		c-17.914,0.191-21.16-8.035-21.16-8.035L406.324,503.359z"/>
	
		<radialGradient id="SVGID_43_" cx="245.7251" cy="189.0786" r="45.1853" gradientTransform="matrix(0.75 0 0 -0.75 254.6395 653.9249)" gradientUnits="userSpaceOnUse">
		<stop  offset="0" style="stop-color:#3C3736"/>
		<stop  offset="0.54" style="stop-color:#3B3635"/>
		<stop  offset="0.74" style="stop-color:#5B5858"/>
		<stop  offset="0.91" style="stop-color:#3B3635"/>
		<stop  offset="1" style="stop-color:#3B3635"/>
	</radialGradient>
	<path fill="url(#SVGID_43_)" stroke="#3E3938" stroke-width="0.25" stroke-linejoin="bevel" stroke-miterlimit="10" d="
		M471.558,502.945c-6.75,11.25-18.926,18.344-32.691,18.344c-13.809-0.344-25.887-7.359-32.559-18.344c0,0.75,65.121,0,65.121,0
		H471.558z"/>
	
		<linearGradient id="SVGID_44_" gradientUnits="userSpaceOnUse" x1="229.2246" y1="185.8027" x2="202.2246" y2="185.8027" gradientTransform="matrix(0.75 0 0 -0.75 277.1864 666.0538)">
		<stop  offset="0" style="stop-color:#4E4D4D"/>
		<stop  offset="0.01" style="stop-color:#9C9B9B"/>
		<stop  offset="0.02" style="stop-color:#686767"/>
		<stop  offset="0.64" style="stop-color:#666565"/>
		<stop  offset="0.99" style="stop-color:#636262"/>
		<stop  offset="1" style="stop-color:#484747"/>
	</linearGradient>
	<path fill="url(#SVGID_44_)" d="M429.605,515.078h18.75c0,0,0.527,0.23,0.527,0.52l0.223,21.98c0,0-0.457,0.559-0.742,0.559
		l-18.758,0.191c-0.75,0-0.75-0.426-0.75-0.711v-21.789c0-0.75,0.23-0.75,0.52-0.75H429.605z"/>
	
		<radialGradient id="SVGID_45_" cx="211.6333" cy="191.8726" r="13.3191" gradientTransform="matrix(0.75 0 0 -0.75 280.1464 670.5226)" gradientUnits="userSpaceOnUse">
		<stop  offset="0" style="stop-color:#565454"/>
		<stop  offset="0.54" style="stop-color:#555353"/>
		<stop  offset="0.74" style="stop-color:#6D6C6C"/>
		<stop  offset="0.91" style="stop-color:#555353"/>
		<stop  offset="1" style="stop-color:#555353"/>
	</radialGradient>
	<path fill="url(#SVGID_45_)" stroke="#595757" stroke-width="0.25" stroke-linejoin="bevel" stroke-miterlimit="10" d="
		M431.816,526.292c0-3.75,3.156-6.75,7.051-6.75c4.199,0,7.055,3.168,7.055,7.074c0.145,4.176-3.16,7.074-7.055,7.074
		c-4.051,0.102-7.051-3.168-7.051-7.074V526.292z"/>
	<path fill="#3E3938" stroke="#3E3938" stroke-width="0.25" stroke-linejoin="bevel" stroke-miterlimit="10" d="M92.875,528.136
		c0-19.5,15.691-35.25,35.047-35.25c19.703,0,35.051,15.75,35.051,35.18c-0.348,19.57-15.691,35.18-35.051,35.18
		c-19.297,0.141-35.047-15.75-35.047-35.18V528.136z"/>
	
		<radialGradient id="SVGID_46_" cx="243.166" cy="160.2427" r="57.9874" gradientTransform="matrix(0.75 0 0 -0.75 -54.4523 648.2472)" gradientUnits="userSpaceOnUse">
		<stop  offset="0" style="stop-color:#3C3736"/>
		<stop  offset="0.54" style="stop-color:#3B3635"/>
		<stop  offset="0.74" style="stop-color:#5B5858"/>
		<stop  offset="0.91" style="stop-color:#3B3635"/>
		<stop  offset="1" style="stop-color:#3B3635"/>
	</radialGradient>
	<path fill="url(#SVGID_46_)" stroke="#3E3938" stroke-width="0.25" stroke-linejoin="bevel" stroke-miterlimit="10" d="
		M97.215,528.019c0-17.25,13.75-30.75,30.707-30.75c17.293,0,30.707,13.789,30.707,30.797c0.086,17.203-13.746,30.797-30.707,30.797
		c-17.207-0.094-30.707-13.789-30.707-30.797V528.019z"/>
	
		<linearGradient id="SVGID_47_" gradientUnits="userSpaceOnUse" x1="289.2271" y1="170.4326" x2="202.2271" y2="170.4326" gradientTransform="matrix(0.75 0 0 -0.75 -56.2882 654.338)">
		<stop  offset="0" style="stop-color:#3D3B3B"/>
		<stop  offset="0.01" style="stop-color:#908F8F"/>
		<stop  offset="0.02" style="stop-color:#514F4F"/>
		<stop  offset="0.64" style="stop-color:#504E4E"/>
		<stop  offset="0.99" style="stop-color:#4E4C4C"/>
		<stop  offset="1" style="stop-color:#383636"/>
	</linearGradient>
	<path fill="url(#SVGID_47_)" d="M95.383,503.359h65.25l-12,38.25c0,0-5.543,8.059-20.34,8.059
		c-17.91,0.191-21.16-8.035-21.16-8.035L95.383,503.359z"/>
	
		<radialGradient id="SVGID_48_" cx="245.7251" cy="189.0786" r="45.1862" gradientTransform="matrix(0.75 0 0 -0.75 -56.3053 653.9249)" gradientUnits="userSpaceOnUse">
		<stop  offset="0" style="stop-color:#3C3736"/>
		<stop  offset="0.54" style="stop-color:#3B3635"/>
		<stop  offset="0.74" style="stop-color:#5B5858"/>
		<stop  offset="0.91" style="stop-color:#3B3635"/>
		<stop  offset="1" style="stop-color:#3B3635"/>
	</radialGradient>
	<path fill="url(#SVGID_48_)" stroke="#3E3938" stroke-width="0.25" stroke-linejoin="bevel" stroke-miterlimit="10" d="
		M160.613,502.945c-6.75,11.25-18.926,18.344-32.691,18.344c-13.809-0.344-25.887-7.359-32.559-18.344c0,0.75,65.121,0,65.121,0
		H160.613z"/>
	
		<linearGradient id="SVGID_49_" gradientUnits="userSpaceOnUse" x1="229.2256" y1="185.8027" x2="202.2256" y2="185.8027" gradientTransform="matrix(0.75 0 0 -0.75 -33.7589 666.0538)">
		<stop  offset="0" style="stop-color:#4E4D4D"/>
		<stop  offset="0.01" style="stop-color:#9C9B9B"/>
		<stop  offset="0.02" style="stop-color:#686767"/>
		<stop  offset="0.64" style="stop-color:#666565"/>
		<stop  offset="0.99" style="stop-color:#636262"/>
		<stop  offset="1" style="stop-color:#484747"/>
	</linearGradient>
	<path fill="url(#SVGID_49_)" d="M118.66,515.078h18.75c0,0,0.527,0.23,0.527,0.52l0.223,21.98c0,0-0.457,0.559-0.742,0.559
		l-18.758,0.191c-0.75,0-0.75-0.426-0.75-0.711v-21.789c0-0.75,0.234-0.75,0.52-0.75H118.66z"/>
	
		<radialGradient id="SVGID_50_" cx="211.6328" cy="191.8726" r="13.3198" gradientTransform="matrix(0.75 0 0 -0.75 -30.7985 670.5226)" gradientUnits="userSpaceOnUse">
		<stop  offset="0" style="stop-color:#565454"/>
		<stop  offset="0.54" style="stop-color:#555353"/>
		<stop  offset="0.74" style="stop-color:#6D6C6C"/>
		<stop  offset="0.91" style="stop-color:#555353"/>
		<stop  offset="1" style="stop-color:#555353"/>
	</radialGradient>
	<path fill="url(#SVGID_50_)" stroke="#595757" stroke-width="0.25" stroke-linejoin="bevel" stroke-miterlimit="10" d="
		M120.871,526.292c0-3.75,3.156-6.75,7.051-6.75c4.199,0,7.055,3.168,7.055,7.074c0.145,4.176-3.156,7.074-7.055,7.074
		c-4.051,0.102-7.051-3.168-7.051-7.074V526.292z"/>
	<path fill="#3E3938" stroke="#3E3938" stroke-width="0.25" stroke-linejoin="bevel" stroke-miterlimit="10" d="M23.57,528.136
		c0-19.5,15.691-35.25,35.051-35.25c19.699,0,35.047,15.75,35.047,35.18c-0.348,19.57-15.691,35.18-35.047,35.18
		c-19.301,0.141-35.051-15.75-35.051-35.18V528.136z"/>
	
		<radialGradient id="SVGID_51_" cx="243.1704" cy="160.2427" r="57.985" gradientTransform="matrix(0.75 0 0 -0.75 -123.756 648.2472)" gradientUnits="userSpaceOnUse">
		<stop  offset="0" style="stop-color:#3C3736"/>
		<stop  offset="0.54" style="stop-color:#3B3635"/>
		<stop  offset="0.74" style="stop-color:#5B5858"/>
		<stop  offset="0.91" style="stop-color:#3B3635"/>
		<stop  offset="1" style="stop-color:#3B3635"/>
	</radialGradient>
	<path fill="url(#SVGID_51_)" stroke="#3E3938" stroke-width="0.25" stroke-linejoin="bevel" stroke-miterlimit="10" d="
		M27.914,528.019c0-17.25,13.746-30.75,30.707-30.75c17.293,0,30.707,13.789,30.707,30.797c0.086,17.203-13.75,30.797-30.707,30.797
		c-17.207-0.094-30.707-13.789-30.707-30.797V528.019z"/>
	
		<linearGradient id="SVGID_52_" gradientUnits="userSpaceOnUse" x1="289.2251" y1="170.4326" x2="202.2256" y2="170.4326" gradientTransform="matrix(0.75 0 0 -0.75 -125.5919 654.338)">
		<stop  offset="0" style="stop-color:#3D3B3B"/>
		<stop  offset="0.01" style="stop-color:#908F8F"/>
		<stop  offset="0.02" style="stop-color:#514F4F"/>
		<stop  offset="0.64" style="stop-color:#504E4E"/>
		<stop  offset="0.99" style="stop-color:#4E4C4C"/>
		<stop  offset="1" style="stop-color:#383636"/>
	</linearGradient>
	<path fill="url(#SVGID_52_)" d="M26.078,503.359h65.25l-12,38.25c0,0-5.539,8.059-20.336,8.059
		c-17.914,0.191-21.164-8.035-21.164-8.035L26.078,503.359z"/>
	
		<radialGradient id="SVGID_53_" cx="245.7241" cy="189.0786" r="45.1871" gradientTransform="matrix(0.75 0 0 -0.75 -125.609 653.9249)" gradientUnits="userSpaceOnUse">
		<stop  offset="0" style="stop-color:#3C3736"/>
		<stop  offset="0.54" style="stop-color:#3B3635"/>
		<stop  offset="0.74" style="stop-color:#5B5858"/>
		<stop  offset="0.91" style="stop-color:#3B3635"/>
		<stop  offset="1" style="stop-color:#3B3635"/>
	</radialGradient>
	<path fill="url(#SVGID_53_)" stroke="#3E3938" stroke-width="0.25" stroke-linejoin="bevel" stroke-miterlimit="10" d="
		M91.309,502.945c-6.75,11.25-18.926,18.344-32.688,18.344c-13.813-0.344-25.891-7.359-32.563-18.344c0,0.75,65.121,0,65.121,0
		H91.309z"/>
	
		<linearGradient id="SVGID_54_" gradientUnits="userSpaceOnUse" x1="229.2241" y1="185.8027" x2="202.2241" y2="185.8027" gradientTransform="matrix(0.75 0 0 -0.75 -103.0626 666.0538)">
		<stop  offset="0" style="stop-color:#4E4D4D"/>
		<stop  offset="0.01" style="stop-color:#9C9B9B"/>
		<stop  offset="0.02" style="stop-color:#686767"/>
		<stop  offset="0.64" style="stop-color:#666565"/>
		<stop  offset="0.99" style="stop-color:#636262"/>
		<stop  offset="1" style="stop-color:#484747"/>
	</linearGradient>
	<path fill="url(#SVGID_54_)" d="M49.355,515.078h18.75c0,0,0.527,0.23,0.527,0.52l0.223,21.98c0,0-0.453,0.559-0.742,0.559
		l-18.758,0.191c-0.75,0-0.75-0.426-0.75-0.711v-21.789c0-0.75,0.234-0.75,0.52-0.75H49.355z"/>
	
		<radialGradient id="SVGID_55_" cx="211.6309" cy="191.8726" r="13.3212" gradientTransform="matrix(0.75 0 0 -0.75 -100.1017 670.5226)" gradientUnits="userSpaceOnUse">
		<stop  offset="0" style="stop-color:#565454"/>
		<stop  offset="0.54" style="stop-color:#555353"/>
		<stop  offset="0.74" style="stop-color:#6D6C6C"/>
		<stop  offset="0.91" style="stop-color:#555353"/>
		<stop  offset="1" style="stop-color:#555353"/>
	</radialGradient>
	<path fill="url(#SVGID_55_)" stroke="#595757" stroke-width="0.25" stroke-linejoin="bevel" stroke-miterlimit="10" d="
		M51.566,526.292c0-3.75,3.16-6.75,7.055-6.75c4.195,0,7.051,3.168,7.051,7.074c0.145,4.176-3.156,7.074-7.051,7.074
		c-4.055,0.102-7.055-3.168-7.055-7.074V526.292z"/>
	
		<linearGradient id="SVGID_56_" gradientUnits="userSpaceOnUse" x1="220.2256" y1="64.8066" x2="202.2256" y2="64.8066" gradientTransform="matrix(0.75 0 0 -0.75 -151.7047 423.5148)">
		<stop  offset="0" style="stop-color:#4C9396"/>
		<stop  offset="0.01" style="stop-color:#9ADBDE"/>
		<stop  offset="0.02" style="stop-color:#65C0C4"/>
		<stop  offset="0.64" style="stop-color:#63BDC1"/>
		<stop  offset="0.99" style="stop-color:#61B9BC"/>
		<stop  offset="1" style="stop-color:#46898B"/>
	</linearGradient>
	<path fill="url(#SVGID_56_)" d="M-0.035,272.535h13.5v204.75h-13.5V272.535z"/>
	
		<linearGradient id="SVGID_57_" gradientUnits="userSpaceOnUse" x1="958.2241" y1="183.3052" x2="202.2251" y2="183.3051" gradientTransform="matrix(0.75 0 0 -0.75 -151.7047 628.212)">
		<stop  offset="0" style="stop-color:#4C9396"/>
		<stop  offset="0.01" style="stop-color:#9ADBDE"/>
		<stop  offset="0.02" style="stop-color:#65C0C4"/>
		<stop  offset="0.64" style="stop-color:#63BDC1"/>
		<stop  offset="0.99" style="stop-color:#61B9BC"/>
		<stop  offset="1" style="stop-color:#46898B"/>
	</linearGradient>
	<path fill="url(#SVGID_57_)" d="M-0.035,477.234h567v27h-567V477.234z"/>
	<path fill="#3DA1A4" d="M-0.035,483.769h567v13.5h-567V483.769z"/>
	
		<linearGradient id="SVGID_58_" gradientUnits="userSpaceOnUse" x1="958.2241" y1="194.8022" x2="202.2251" y2="194.8022" gradientTransform="matrix(0.75 0 0 -0.75 -151.7047 560.2374)">
		<stop  offset="0" style="stop-color:#4C9396"/>
		<stop  offset="0.01" style="stop-color:#9ADBDE"/>
		<stop  offset="0.02" style="stop-color:#65C0C4"/>
		<stop  offset="0.64" style="stop-color:#63BDC1"/>
		<stop  offset="0.99" style="stop-color:#61B9BC"/>
		<stop  offset="1" style="stop-color:#46898B"/>
	</linearGradient>
	<path fill="url(#SVGID_58_)" d="M-0.035,409.261h567v9.75h-567V409.261z"/>
	
		<linearGradient id="SVGID_59_" gradientUnits="userSpaceOnUse" x1="220.2266" y1="64.8032" x2="202.2266" y2="64.8032" gradientTransform="matrix(0.75 0 0 -0.75 401.536 423.5157)">
		<stop  offset="0" style="stop-color:#4C9396"/>
		<stop  offset="0.01" style="stop-color:#9ADBDE"/>
		<stop  offset="0.02" style="stop-color:#65C0C4"/>
		<stop  offset="0.64" style="stop-color:#63BDC1"/>
		<stop  offset="0.99" style="stop-color:#61B9BC"/>
		<stop  offset="1" style="stop-color:#46898B"/>
	</linearGradient>
	<path fill="url(#SVGID_59_)" d="M553.207,272.539h13.5v204.75h-13.5V272.539z"/>
	
		<linearGradient id="SVGID_60_" gradientUnits="userSpaceOnUse" x1="220.2261" y1="162.3057" x2="202.2261" y2="162.3057" gradientTransform="matrix(0.75 0 0 -0.75 -56.0997 569.756)">
		<stop  offset="0" style="stop-color:#4C9396"/>
		<stop  offset="0.01" style="stop-color:#9ADBDE"/>
		<stop  offset="0.02" style="stop-color:#65C0C4"/>
		<stop  offset="0.64" style="stop-color:#63BDC1"/>
		<stop  offset="0.99" style="stop-color:#61B9BC"/>
		<stop  offset="1" style="stop-color:#46898B"/>
	</linearGradient>
	<path fill="url(#SVGID_60_)" d="M95.57,418.777h13.5v58.5h-13.5V418.777z"/>
	
		<linearGradient id="SVGID_61_" gradientUnits="userSpaceOnUse" x1="220.2256" y1="162.3057" x2="202.2256" y2="162.3057" gradientTransform="matrix(0.75 0 0 -0.75 305.9315 569.756)">
		<stop  offset="0" style="stop-color:#4C9396"/>
		<stop  offset="0.01" style="stop-color:#9ADBDE"/>
		<stop  offset="0.02" style="stop-color:#65C0C4"/>
		<stop  offset="0.64" style="stop-color:#63BDC1"/>
		<stop  offset="0.99" style="stop-color:#61B9BC"/>
		<stop  offset="1" style="stop-color:#46898B"/>
	</linearGradient>
	<path fill="url(#SVGID_61_)" d="M457.601,418.777h13.5v58.5h-13.5V418.777z"/>
	
		<linearGradient id="SVGID_62_" gradientUnits="userSpaceOnUse" x1="958.2241" y1="194.8081" x2="202.2251" y2="194.808" gradientTransform="matrix(0.75 0 0 -0.75 -151.7047 414.1359)">
		<stop  offset="0" style="stop-color:#4C9396"/>
		<stop  offset="0.01" style="stop-color:#9ADBDE"/>
		<stop  offset="0.02" style="stop-color:#65C0C4"/>
		<stop  offset="0.64" style="stop-color:#63BDC1"/>
		<stop  offset="0.99" style="stop-color:#61B9BC"/>
		<stop  offset="1" style="stop-color:#46898B"/>
	</linearGradient>
	<path fill="url(#SVGID_62_)" d="M-0.035,263.156h567v9.75h-567V263.156z"/>
	
		<linearGradient id="SVGID_63_" gradientUnits="userSpaceOnUse" x1="209.2256" y1="111.3052" x2="202.2256" y2="111.3052" gradientTransform="matrix(0.75 0 0 -0.75 349.1854 423.9865)">
		<stop  offset="0" style="stop-color:#368688"/>
		<stop  offset="0.01" style="stop-color:#8CCDCF"/>
		<stop  offset="0.02" style="stop-color:#49AFB2"/>
		<stop  offset="0.64" style="stop-color:#48ACAF"/>
		<stop  offset="0.99" style="stop-color:#46A8AB"/>
		<stop  offset="1" style="stop-color:#317C7E"/>
	</linearGradient>
	<path fill="url(#SVGID_63_)" d="M500.855,273.008h5.25v135h-5.25V273.008z"/>
	
		<linearGradient id="SVGID_64_" gradientUnits="userSpaceOnUse" x1="209.2251" y1="111.3052" x2="202.2251" y2="111.3052" gradientTransform="matrix(0.75 0 0 -0.75 -35.5831 423.9865)">
		<stop  offset="0" style="stop-color:#368688"/>
		<stop  offset="0.01" style="stop-color:#8CCDCF"/>
		<stop  offset="0.02" style="stop-color:#49AFB2"/>
		<stop  offset="0.64" style="stop-color:#48ACAF"/>
		<stop  offset="0.99" style="stop-color:#46A8AB"/>
		<stop  offset="1" style="stop-color:#317C7E"/>
	</linearGradient>
	<path fill="url(#SVGID_64_)" d="M116.086,273.008h5.25v135h-5.25V273.008z"/>
	
		<linearGradient id="SVGID_65_" gradientUnits="userSpaceOnUse" x1="209.2222" y1="111.3052" x2="202.2222" y2="111.3052" gradientTransform="matrix(0.75 0 0 -0.75 -90.5499 423.9865)">
		<stop  offset="0" style="stop-color:#368688"/>
		<stop  offset="0.01" style="stop-color:#8CCDCF"/>
		<stop  offset="0.02" style="stop-color:#49AFB2"/>
		<stop  offset="0.64" style="stop-color:#48ACAF"/>
		<stop  offset="0.99" style="stop-color:#46A8AB"/>
		<stop  offset="1" style="stop-color:#317C7E"/>
	</linearGradient>
	<path fill="url(#SVGID_65_)" d="M61.117,273.008h5.25v135h-5.25V273.008z"/>
	
		<linearGradient id="SVGID_66_" gradientUnits="userSpaceOnUse" x1="209.2251" y1="111.3052" x2="202.2251" y2="111.3052" gradientTransform="matrix(0.75 0 0 -0.75 74.3505 423.9865)">
		<stop  offset="0" style="stop-color:#368688"/>
		<stop  offset="0.01" style="stop-color:#8CCDCF"/>
		<stop  offset="0.02" style="stop-color:#49AFB2"/>
		<stop  offset="0.64" style="stop-color:#48ACAF"/>
		<stop  offset="0.99" style="stop-color:#46A8AB"/>
		<stop  offset="1" style="stop-color:#317C7E"/>
	</linearGradient>
	<path fill="url(#SVGID_66_)" d="M226.02,273.008h5.25v135h-5.25V273.008z"/>
	
		<linearGradient id="SVGID_67_" gradientUnits="userSpaceOnUse" x1="209.2266" y1="111.3052" x2="202.2275" y2="111.3052" gradientTransform="matrix(0.75 0 0 -0.75 129.3177 423.9865)">
		<stop  offset="0" style="stop-color:#368688"/>
		<stop  offset="0.01" style="stop-color:#8CCDCF"/>
		<stop  offset="0.02" style="stop-color:#49AFB2"/>
		<stop  offset="0.64" style="stop-color:#48ACAF"/>
		<stop  offset="0.99" style="stop-color:#46A8AB"/>
		<stop  offset="1" style="stop-color:#317C7E"/>
	</linearGradient>
	<path fill="url(#SVGID_67_)" d="M280.988,273.008h5.25v135h-5.25V273.008z"/>
	
		<linearGradient id="SVGID_68_" gradientUnits="userSpaceOnUse" x1="209.2275" y1="111.3052" x2="202.2275" y2="111.3052" gradientTransform="matrix(0.75 0 0 -0.75 184.286 423.9865)">
		<stop  offset="0" style="stop-color:#368688"/>
		<stop  offset="0.01" style="stop-color:#8CCDCF"/>
		<stop  offset="0.02" style="stop-color:#49AFB2"/>
		<stop  offset="0.64" style="stop-color:#48ACAF"/>
		<stop  offset="0.99" style="stop-color:#46A8AB"/>
		<stop  offset="1" style="stop-color:#317C7E"/>
	</linearGradient>
	<path fill="url(#SVGID_68_)" d="M335.957,273.008h5.25v135h-5.25V273.008z"/>
	
		<linearGradient id="SVGID_69_" gradientUnits="userSpaceOnUse" x1="209.2271" y1="111.3052" x2="202.2271" y2="111.3052" gradientTransform="matrix(0.75 0 0 -0.75 239.2509 423.9865)">
		<stop  offset="0" style="stop-color:#368688"/>
		<stop  offset="0.01" style="stop-color:#8CCDCF"/>
		<stop  offset="0.02" style="stop-color:#49AFB2"/>
		<stop  offset="0.64" style="stop-color:#48ACAF"/>
		<stop  offset="0.99" style="stop-color:#46A8AB"/>
		<stop  offset="1" style="stop-color:#317C7E"/>
	</linearGradient>
	<path fill="url(#SVGID_69_)" d="M390.921,273.008h5.25v135h-5.25V273.008z"/>
	
		<linearGradient id="SVGID_70_" gradientUnits="userSpaceOnUse" x1="209.2227" y1="111.3052" x2="202.2227" y2="111.3052" gradientTransform="matrix(0.75 0 0 -0.75 294.2186 423.9865)">
		<stop  offset="0" style="stop-color:#368688"/>
		<stop  offset="0.01" style="stop-color:#8CCDCF"/>
		<stop  offset="0.02" style="stop-color:#49AFB2"/>
		<stop  offset="0.64" style="stop-color:#48ACAF"/>
		<stop  offset="0.99" style="stop-color:#46A8AB"/>
		<stop  offset="1" style="stop-color:#317C7E"/>
	</linearGradient>
	<path fill="url(#SVGID_70_)" d="M445.886,273.008h5.25v135h-5.25V273.008z"/>
	
		<linearGradient id="SVGID_71_" gradientUnits="userSpaceOnUse" x1="209.228" y1="111.3052" x2="202.228" y2="111.3052" gradientTransform="matrix(0.75 0 0 -0.75 19.3837 423.9865)">
		<stop  offset="0" style="stop-color:#368688"/>
		<stop  offset="0.01" style="stop-color:#8CCDCF"/>
		<stop  offset="0.02" style="stop-color:#49AFB2"/>
		<stop  offset="0.64" style="stop-color:#48ACAF"/>
		<stop  offset="0.99" style="stop-color:#46A8AB"/>
		<stop  offset="1" style="stop-color:#317C7E"/>
	</linearGradient>
	<path fill="url(#SVGID_71_)" d="M171.055,273.008h5.25v135h-5.25V273.008z"/>
</g>
</svg>
