<?xml version="1.0" encoding="utf-8"?>
<!-- Generator: Adobe Illustrator 16.0.0, SVG Export Plug-In . SVG Version: 6.00 Build 0)  -->
<!DOCTYPE svg PUBLIC "-//W3C//DTD SVG 1.1//EN" "http://www.w3.org/Graphics/SVG/1.1/DTD/svg11.dtd">
<svg preserveAspectRatio="none"   version="1.1" id="图层_1" xmlns="http://www.w3.org/2000/svg" xmlns:xlink="http://www.w3.org/1999/xlink" x="0px" y="0px"
	 width="348.75px" height="568.148px" viewBox="109.277 -0.695 348.75 568.148"
	 enable-background="new 109.277 -0.695 348.75 568.148" xml:space="preserve">
<g id="surface511">
	
		<linearGradient id="SVGID_1_" gradientUnits="userSpaceOnUse" x1="237.2295" y1="201.6953" x2="237.2295" y2="60.3047" gradientTransform="matrix(0.75 0 0 -0.75 -33.1984 612.6818)">
		<stop  offset="0" style="stop-color:#2B2827"/>
		<stop  offset="0.15" style="stop-color:#4F4B4B"/>
		<stop  offset="0.25" style="stop-color:#686565"/>
		<stop  offset="0.52" style="stop-color:#423F3F"/>
		<stop  offset="0.69" style="stop-color:#2E2A29"/>
		<stop  offset="0.8" style="stop-color:#2B2726"/>
		<stop  offset="0.92" style="stop-color:#282424"/>
		<stop  offset="1" style="stop-color:#2F2B2B"/>
	</linearGradient>
	<path fill="url(#SVGID_1_)" d="M132.723,461.703h24c7.5,0,14.188,6.012,14.188,13.789l0.063,77.711c0,7.5-6.387,14.16-14.184,14.16
		l-24.066,0.09c-8.25,0-14.25-6.395-14.25-14.172v-78.078c0-7.5,6.301-13.793,14.102-13.793L132.723,461.703z"/>
	
		<linearGradient id="SVGID_2_" gradientUnits="userSpaceOnUse" x1="237.2266" y1="201.6973" x2="237.2266" y2="60.3066" gradientTransform="matrix(0.75 0 0 -0.75 20.6083 612.6827)">
		<stop  offset="0" style="stop-color:#2B2827"/>
		<stop  offset="0.15" style="stop-color:#4F4B4B"/>
		<stop  offset="0.25" style="stop-color:#686565"/>
		<stop  offset="0.52" style="stop-color:#423F3F"/>
		<stop  offset="0.69" style="stop-color:#2E2A29"/>
		<stop  offset="0.8" style="stop-color:#2B2726"/>
		<stop  offset="0.92" style="stop-color:#282424"/>
		<stop  offset="1" style="stop-color:#2F2B2B"/>
	</linearGradient>
	<path fill="url(#SVGID_2_)" d="M186.527,461.703h24c7.5,0,14.191,6.012,14.191,13.789l0.059,77.711c0,7.5-6.383,14.16-14.184,14.16
		l-24.066,0.09c-8.25,0-14.25-6.395-14.25-14.172v-78.078c0-7.5,6.305-13.793,14.105-13.793L186.527,461.703z"/>
	
		<linearGradient id="SVGID_3_" gradientUnits="userSpaceOnUse" x1="237.2285" y1="201.6953" x2="237.2285" y2="60.3047" gradientTransform="matrix(0.75 0 0 -0.75 190.1688 612.6818)">
		<stop  offset="0" style="stop-color:#2B2827"/>
		<stop  offset="0.15" style="stop-color:#4F4B4B"/>
		<stop  offset="0.25" style="stop-color:#686565"/>
		<stop  offset="0.52" style="stop-color:#423F3F"/>
		<stop  offset="0.69" style="stop-color:#2E2A29"/>
		<stop  offset="0.8" style="stop-color:#2B2726"/>
		<stop  offset="0.92" style="stop-color:#282424"/>
		<stop  offset="1" style="stop-color:#2F2B2B"/>
	</linearGradient>
	<path fill="url(#SVGID_3_)" d="M356.089,461.703h24c7.5,0,14.188,6.012,14.188,13.789l0.063,77.711c0,7.5-6.383,14.16-14.184,14.16
		l-24.066,0.09c-8.25,0-14.25-6.395-14.25-14.172v-78.078c0-7.5,6.301-13.793,14.102-13.793L356.089,461.703z"/>
	
		<linearGradient id="SVGID_4_" gradientUnits="userSpaceOnUse" x1="237.2256" y1="201.6973" x2="237.2256" y2="60.3066" gradientTransform="matrix(0.75 0 0 -0.75 243.9755 612.6827)">
		<stop  offset="0" style="stop-color:#2B2827"/>
		<stop  offset="0.15" style="stop-color:#4F4B4B"/>
		<stop  offset="0.25" style="stop-color:#686565"/>
		<stop  offset="0.52" style="stop-color:#423F3F"/>
		<stop  offset="0.69" style="stop-color:#2E2A29"/>
		<stop  offset="0.8" style="stop-color:#2B2726"/>
		<stop  offset="0.92" style="stop-color:#282424"/>
		<stop  offset="1" style="stop-color:#2F2B2B"/>
	</linearGradient>
	<path fill="url(#SVGID_4_)" d="M409.894,461.703h24c7.5,0,14.191,6.012,14.191,13.789l0.059,77.711c0,7.5-6.383,14.16-14.184,14.16
		l-24.066,0.09c-8.25,0-14.25-6.395-14.25-14.172v-78.078c0-7.5,6.305-13.793,14.105-13.793L409.894,461.703z"/>
	
		<linearGradient id="SVGID_5_" gradientUnits="userSpaceOnUse" x1="657.4771" y1="-76.6963" x2="202.2231" y2="-76.6963" gradientTransform="matrix(0.75 0 0 -0.75 -38.9254 150.2814)">
		<stop  offset="0" style="stop-color:#A64B4E"/>
		<stop  offset="0.02" style="stop-color:#EF9A9C"/>
		<stop  offset="0.07" style="stop-color:#D86468"/>
		<stop  offset="0.64" style="stop-color:#D56266"/>
		<stop  offset="0.98" style="stop-color:#D06063"/>
		<stop  offset="1" style="stop-color:#9A4548"/>
	</linearGradient>
	<path fill="url(#SVGID_5_)" d="M122.492-0.695h321.75c5.25,0,9.941,4.238,9.941,9.797l-0.191,407.203h-341.25V9.055
		c0-5.25,4.52-9.75,10.09-9.75H122.492z"/>
	
		<linearGradient id="SVGID_6_" gradientUnits="userSpaceOnUse" x1="434.7271" y1="201.6123" x2="434.7271" y2="121.1436" gradientTransform="matrix(0.75 0 0 -0.75 -42.3937 562.2208)">
		<stop  offset="0" style="stop-color:#292525"/>
		<stop  offset="0.09" style="stop-color:#868584"/>
		<stop  offset="0.16" style="stop-color:#383433"/>
		<stop  offset="0.64" style="stop-color:#373332"/>
		<stop  offset="0.92" style="stop-color:#363130"/>
		<stop  offset="1" style="stop-color:#252221"/>
	</linearGradient>
	<path fill="url(#SVGID_6_)" d="M110.777,411.242h345c0.75,0,1.875,0.672,1.875,1.781l0.375,55.969c0,1.5-1.465,2.371-2.582,2.371
		l-344.667-0.121c-0.75,0-1.5-0.777-1.5-1.891v-56.609c0-0.75,0.691-1.73,1.805-1.73L110.777,411.242z"/>
	<path fill="#9E9F9F" d="M110.777,424.203h345c0.75,0,1.875,0.383,1.875,1.016l0.375,31.984c0,0.75-1.465,1.301-2.582,1.301
		l-344.667,0.199c-0.75,0-1.5-0.715-1.5-1.348v-32.402c0,0,0.691-0.883,1.805-0.883L110.777,424.203z"/>
	<path fill="#F09D9F" d="M128.098,14.738h310.5v354.75h-310.5V14.738z"/>
	
		<linearGradient id="SVGID_7_" gradientUnits="userSpaceOnUse" x1="409.2251" y1="201.3027" x2="409.2251" y2="95.3037" gradientTransform="matrix(0.75 0 0 -0.75 -23.5719 423.2501)">
		<stop  offset="0" style="stop-color:#A64B4E"/>
		<stop  offset="0.02" style="stop-color:#EF9A9C"/>
		<stop  offset="0.07" style="stop-color:#D86468"/>
		<stop  offset="0.64" style="stop-color:#D56266"/>
		<stop  offset="0.98" style="stop-color:#D06063"/>
		<stop  offset="1" style="stop-color:#9A4548"/>
	</linearGradient>
	<path fill="url(#SVGID_7_)" d="M128.098,272.273h310.5v79.5h-310.5V272.273z"/>
	
		<linearGradient id="SVGID_8_" gradientUnits="userSpaceOnUse" x1="409.2251" y1="201.3027" x2="409.2251" y2="178.3027" gradientTransform="matrix(0.75 0 0 -0.75 -23.5719 175.7736)">
		<stop  offset="0" style="stop-color:#A64B4E"/>
		<stop  offset="0.02" style="stop-color:#EF9A9C"/>
		<stop  offset="0.07" style="stop-color:#D86468"/>
		<stop  offset="0.64" style="stop-color:#D56266"/>
		<stop  offset="0.98" style="stop-color:#D06063"/>
		<stop  offset="1" style="stop-color:#9A4548"/>
	</linearGradient>
	<path fill="url(#SVGID_8_)" d="M128.098,24.797h310.5v17.25h-310.5V24.797z"/>
</g>
</svg>
