<?xml version="1.0" encoding="utf-8"?>
<!-- Generator: Adobe Illustrator 16.0.0, SVG Export Plug-In . SVG Version: 6.00 Build 0)  -->
<!DOCTYPE svg PUBLIC "-//W3C//DTD SVG 1.1//EN" "http://www.w3.org/Graphics/SVG/1.1/DTD/svg11.dtd">
<svg preserveAspectRatio="none"   version="1.1" id="图层_1" xmlns="http://www.w3.org/2000/svg" xmlns:xlink="http://www.w3.org/1999/xlink" x="0px" y="0px"
	 width="562.682px" height="495.239px" viewBox="1.113 71.053 562.682 495.239"
	 enable-background="new 1.113 71.053 562.682 495.239" xml:space="preserve">
<g id="surface581">
	
		<linearGradient id="SVGID_1_" gradientUnits="userSpaceOnUse" x1="733.6509" y1="252.5615" x2="733.6509" y2="206.2793" gradientTransform="matrix(-0.4821 0.5745 -0.5745 -0.4821 838.5861 7.7945)">
		<stop  offset="0" style="stop-color:#3D3B3B"/>
		<stop  offset="0.01" style="stop-color:#908F8F"/>
		<stop  offset="0.03" style="stop-color:#514F4F"/>
		<stop  offset="0.64" style="stop-color:#504E4E"/>
		<stop  offset="0.99" style="stop-color:#4E4C4C"/>
		<stop  offset="1" style="stop-color:#383636"/>
	</linearGradient>
	<path fill="url(#SVGID_1_)" d="M533.835,76.293l-388.082,462.5c-4.82,5.746-4.348,14.945,1.609,19.945l5.316,4.469
		c5.746,4.82,14.641,3.887,19.637-2.07L560.265,98.469c5.301-6.316,4.488-14.832-1.469-19.832l-4.887-4.098
		c-6.32-5.305-14.926-4.379-19.922,1.574L533.835,76.293z"/>
	<path fill="#9E9F9F" d="M534.5,81.66L151.234,538.414c-4.82,5.742-4.273,14.199,1.355,18.922c5.48,4.434,14.098,3.891,18.816-1.734
		L555.179,99.012c4.824-5.742,4.004-14.262-1.625-18.984c-5.781-4.855-13.98-3.996-18.699,1.629L534.5,81.66z"/>
	<path fill="#595757" d="M549.421,84.184c-4.598-3.855-11.988-3.266-16.113,1.652c-4.074,4.906-3.48,12.246,1.438,16.375
		c4.902,4.121,12.254,3.488,16.379-1.426c4.113-4.867,3.48-12.25-1.438-16.379L549.421,84.184z"/>
	<path fill="#CDCECE" d="M548.992,85.34c-4.598-3.855-11.078-3.18-14.789,1.242c-3.863,4.648-3.133,11.023,1.293,14.742
		c4.594,3.961,11.027,3.141,14.742-1.285c3.902-4.504,3.133-11.023-1.297-14.738L548.992,85.34z"/>
	<path fill="#595757" d="M169.914,536.464c-4.598-3.855-11.988-3.266-16.113,1.648c-4.074,4.91-3.48,12.25,1.438,16.379
		c4.902,4.121,12.254,3.488,16.379-1.43c4.113-4.863,3.48-12.246-1.438-16.375L169.914,536.464z"/>
	<path fill="#CDCECE" d="M169.48,537.621c-4.594-3.859-11.074-3.184-14.785,1.242c-3.863,4.648-3.133,11.023,1.293,14.738
		c4.59,3.961,11.027,3.141,14.742-1.281c3.902-4.504,3.133-11.023-1.297-14.742L169.48,537.621z"/>
	
		<linearGradient id="SVGID_2_" gradientUnits="userSpaceOnUse" x1="330.8511" y1="201.3018" x2="330.8511" y2="154.9829" gradientTransform="matrix(0.75 0 0 -0.75 -150.5558 680.4562)">
		<stop  offset="0" style="stop-color:#3D3B3B"/>
		<stop  offset="0.01" style="stop-color:#908F8F"/>
		<stop  offset="0.03" style="stop-color:#514F4F"/>
		<stop  offset="0.64" style="stop-color:#504E4E"/>
		<stop  offset="0.99" style="stop-color:#4E4C4C"/>
		<stop  offset="1" style="stop-color:#383636"/>
	</linearGradient>
	<path fill="url(#SVGID_2_)" d="M15.363,529.48h164.25c8.25,0.75,14.438,6.664,14.438,14.449l-0.188,6.551
		c0,7.5-6.305,14.113-14.074,13.723L15.363,563.98c-8.25,0-14.25-6.086-14.25-13.867v-6.383c0-8.25,6.238-14.25,14.008-14.25H15.363
		z"/>
	<path fill="#9E9F9F" d="M19.156,533.57h157.5c7.5,0.75,13.484,6.746,13.484,14.098c0.016,7.652-5.977,13.328-13.316,12.492
		l-157.668-0.34c-7.5,0-13.5-5.617-13.5-12.965c0-7.285,5.926-13.285,13.262-13.285H19.156z"/>
	<path fill="#595757" d="M11.418,546.507c0-6,5.199-11.281,11.617-11.281c6.383,0.031,11.613,5.207,11.613,11.633
		c0.02,6.398-5.199,11.633-11.613,11.633c-6.367,0.016-11.617-5.207-11.617-11.633V546.507z"/>
	<path fill="#CDCECE" d="M12.578,546.921c0-6,4.68-10.531,10.457-10.531c6.043,0.031,10.453,4.688,10.453,10.473
		c0.09,6.059-4.68,10.469-10.453,10.469c-5.957,0.09-10.457-4.688-10.457-10.469V546.921z"/>
	<path fill="#595757" d="M162.465,546.847c0-6,5.199-11.281,11.617-11.281c6.383,0.031,11.613,5.207,11.613,11.633
		c0.02,6.398-5.199,11.633-11.613,11.633c-6.367,0.016-11.617-5.207-11.617-11.633V546.847z"/>
	<path fill="#CDCECE" d="M163.625,547.261c0-6,4.684-10.531,10.457-10.531c6.043,0.031,10.453,4.688,10.453,10.473
		c0.09,6.059-4.68,10.469-10.453,10.469c-5.957,0.09-10.457-4.688-10.457-10.469V547.261z"/>
</g>
</svg>
