<?xml version="1.0" encoding="utf-8"?>
<!-- Generator: Adobe Illustrator 16.0.0, SVG Export Plug-In . SVG Version: 6.00 Build 0)  -->
<!DOCTYPE svg PUBLIC "-//W3C//DTD SVG 1.1//EN" "http://www.w3.org/Graphics/SVG/1.1/DTD/svg11.dtd">
<svg preserveAspectRatio="none"   version="1.1" id="图层_1" xmlns="http://www.w3.org/2000/svg" xmlns:xlink="http://www.w3.org/1999/xlink" x="0px" y="0px"
	 width="565.531px" height="247.992px" viewBox="0 317.582 565.531 247.992" enable-background="new 0 317.582 565.531 247.992"
	 xml:space="preserve">
<g id="surface486">
	<path fill="#3E3938" stroke="#3E3938" stroke-width="0.25" stroke-linejoin="bevel" stroke-miterlimit="10" d="M461.027,532.101
		c0-18,14.898-33,33.277-33c18.473,0,33.281,14.852,33.281,33.172c0.191,18.578-14.902,33.176-33.281,33.176
		c-18.277-0.348-33.277-14.855-33.277-33.176V532.101z"/>
	
		<radialGradient id="SVGID_1_" cx="241.1001" cy="162.582" r="54.8715" gradientTransform="matrix(0.75 0 0 -0.75 313.4803 654.2111)" gradientUnits="userSpaceOnUse">
		<stop  offset="0" style="stop-color:#3C3736"/>
		<stop  offset="0.54" style="stop-color:#3B3635"/>
		<stop  offset="0.74" style="stop-color:#5B5858"/>
		<stop  offset="0.91" style="stop-color:#3B3635"/>
		<stop  offset="1" style="stop-color:#3B3635"/>
	</radialGradient>
	<path fill="url(#SVGID_1_)" stroke="#3E3938" stroke-width="0.25" stroke-linejoin="bevel" stroke-miterlimit="10" d="
		M465.148,532.484c0-16.5,13.055-29.25,29.156-29.25c15.844,0,29.156,13,29.156,29.039c0.188,15.961-13.051,29.043-29.156,29.043
		c-16.406-0.332-29.156-13.004-29.156-29.043V532.484z"/>
	
		<linearGradient id="SVGID_2_" gradientUnits="userSpaceOnUse" x1="284.2231" y1="172.1938" x2="202.2236" y2="172.1938" gradientTransform="matrix(0.75 0 0 -0.75 311.7372 659.9542)">
		<stop  offset="0" style="stop-color:#3D3B3B"/>
		<stop  offset="0.01" style="stop-color:#908F8F"/>
		<stop  offset="0.02" style="stop-color:#514F4F"/>
		<stop  offset="0.64" style="stop-color:#504E4E"/>
		<stop  offset="0.99" style="stop-color:#4E4C4C"/>
		<stop  offset="1" style="stop-color:#383636"/>
	</linearGradient>
	<path fill="url(#SVGID_2_)" d="M463.406,508.976h61.5l-10.5,36c0,0-5.699,7.668-19.75,7.668c-17-0.168-20.09-7.574-20.09-7.574
		L463.406,508.976z"/>
	
		<radialGradient id="SVGID_3_" cx="243.4473" cy="189.7749" r="42.8015" gradientTransform="matrix(0.75 0 0 -0.75 311.7206 659.5646)" gradientUnits="userSpaceOnUse">
		<stop  offset="0" style="stop-color:#3C3736"/>
		<stop  offset="0.54" style="stop-color:#3B3635"/>
		<stop  offset="0.74" style="stop-color:#5B5858"/>
		<stop  offset="0.91" style="stop-color:#3B3635"/>
		<stop  offset="1" style="stop-color:#3B3635"/>
	</radialGradient>
	<path fill="url(#SVGID_3_)" stroke="#3E3938" stroke-width="0.25" stroke-linejoin="bevel" stroke-miterlimit="10" d="
		M524.89,508.585c-6,10.5-17.516,17.297-30.586,17.297c-12.914-0.047-24.582-6.938-30.914-17.297c0,0.75,61.832,0,61.832,0H524.89z"
		/>
	
		<linearGradient id="SVGID_4_" gradientUnits="userSpaceOnUse" x1="227.5757" y1="186.8066" x2="202.2222" y2="186.8066" gradientTransform="matrix(0.75 0 0 -0.75 333.1298 671.0031)">
		<stop  offset="0" style="stop-color:#4E4D4D"/>
		<stop  offset="0.01" style="stop-color:#9C9B9B"/>
		<stop  offset="0.02" style="stop-color:#686767"/>
		<stop  offset="0.64" style="stop-color:#666565"/>
		<stop  offset="0.99" style="stop-color:#636262"/>
		<stop  offset="1" style="stop-color:#484747"/>
	</linearGradient>
	<path fill="url(#SVGID_4_)" d="M485.546,520.023h18c0,0,0.266,0.223,0.266,0.492l-0.266,20.508c0,0.75,0.047,0.746-0.227,0.746
		l-17.773,0.004c-0.75,0-0.75-0.223-0.75-0.492v-20.508c0-0.75,0.223-0.75,0.496-0.75H485.546z"/>
	
		<radialGradient id="SVGID_5_" cx="211.1567" cy="192.4087" r="12.6042" gradientTransform="matrix(0.75 0 0 -0.75 335.9403 675.2169)" gradientUnits="userSpaceOnUse">
		<stop  offset="0" style="stop-color:#565454"/>
		<stop  offset="0.54" style="stop-color:#555353"/>
		<stop  offset="0.74" style="stop-color:#6D6C6C"/>
		<stop  offset="0.91" style="stop-color:#555353"/>
		<stop  offset="1" style="stop-color:#555353"/>
	</radialGradient>
	<path fill="url(#SVGID_5_)" stroke="#595757" stroke-width="0.25" stroke-linejoin="bevel" stroke-miterlimit="10" d="
		M487.609,530.988c0-3.75,3-6.75,6.695-6.75c3.805,0,6.699,2.988,6.699,6.672c0.105,3.828-3,6.668-6.699,6.668
		c-3.695,0.16-6.695-2.984-6.695-6.668V530.988z"/>
	<path fill="#3E3938" stroke="#3E3938" stroke-width="0.25" stroke-linejoin="bevel" stroke-miterlimit="10" d="M395.222,532.101
		c0-18,14.898-33,33.277-33c18.473,0,33.281,14.852,33.281,33.172c0.191,18.578-14.902,33.176-33.281,33.176
		c-18.277-0.348-33.277-14.855-33.277-33.176V532.101z"/>
	
		<radialGradient id="SVGID_6_" cx="241.1001" cy="162.582" r="54.8715" gradientTransform="matrix(0.75 0 0 -0.75 247.6757 654.2111)" gradientUnits="userSpaceOnUse">
		<stop  offset="0" style="stop-color:#3C3736"/>
		<stop  offset="0.54" style="stop-color:#3B3635"/>
		<stop  offset="0.74" style="stop-color:#5B5858"/>
		<stop  offset="0.91" style="stop-color:#3B3635"/>
		<stop  offset="1" style="stop-color:#3B3635"/>
	</radialGradient>
	<path fill="url(#SVGID_6_)" stroke="#3E3938" stroke-width="0.25" stroke-linejoin="bevel" stroke-miterlimit="10" d="
		M399.343,532.484c0-16.5,13.055-29.25,29.156-29.25c15.844,0,29.156,13,29.156,29.039c0.188,15.961-13.051,29.043-29.156,29.043
		c-16.406-0.332-29.156-13.004-29.156-29.043V532.484z"/>
	
		<linearGradient id="SVGID_7_" gradientUnits="userSpaceOnUse" x1="284.2241" y1="172.1938" x2="202.2241" y2="172.1938" gradientTransform="matrix(0.75 0 0 -0.75 245.9325 659.9542)">
		<stop  offset="0" style="stop-color:#3D3B3B"/>
		<stop  offset="0.01" style="stop-color:#908F8F"/>
		<stop  offset="0.02" style="stop-color:#514F4F"/>
		<stop  offset="0.64" style="stop-color:#504E4E"/>
		<stop  offset="0.99" style="stop-color:#4E4C4C"/>
		<stop  offset="1" style="stop-color:#383636"/>
	</linearGradient>
	<path fill="url(#SVGID_7_)" d="M397.601,508.976h61.5l-10.5,36c0,0-5.699,7.668-19.75,7.668c-17-0.168-20.09-7.574-20.09-7.574
		L397.601,508.976z"/>
	
		<radialGradient id="SVGID_8_" cx="243.4478" cy="189.7749" r="42.8025" gradientTransform="matrix(0.75 0 0 -0.75 245.9159 659.5646)" gradientUnits="userSpaceOnUse">
		<stop  offset="0" style="stop-color:#3C3736"/>
		<stop  offset="0.54" style="stop-color:#3B3635"/>
		<stop  offset="0.74" style="stop-color:#5B5858"/>
		<stop  offset="0.91" style="stop-color:#3B3635"/>
		<stop  offset="1" style="stop-color:#3B3635"/>
	</radialGradient>
	<path fill="url(#SVGID_8_)" stroke="#3E3938" stroke-width="0.25" stroke-linejoin="bevel" stroke-miterlimit="10" d="
		M459.085,508.585c-6,10.5-17.516,17.297-30.586,17.297c-12.914-0.047-24.582-6.938-30.914-17.297c0,0.75,61.832,0,61.832,0H459.085
		z"/>
	
		<linearGradient id="SVGID_9_" gradientUnits="userSpaceOnUse" x1="227.5762" y1="186.8066" x2="202.2217" y2="186.8066" gradientTransform="matrix(0.75 0 0 -0.75 267.3251 671.0031)">
		<stop  offset="0" style="stop-color:#4E4D4D"/>
		<stop  offset="0.01" style="stop-color:#9C9B9B"/>
		<stop  offset="0.02" style="stop-color:#686767"/>
		<stop  offset="0.64" style="stop-color:#666565"/>
		<stop  offset="0.99" style="stop-color:#636262"/>
		<stop  offset="1" style="stop-color:#484747"/>
	</linearGradient>
	<path fill="url(#SVGID_9_)" d="M419.742,520.023h18c0,0,0.266,0.223,0.266,0.492l-0.266,20.508c0,0.75,0.047,0.746-0.227,0.746
		l-17.773,0.004c-0.75,0-0.75-0.223-0.75-0.492v-20.508c0-0.75,0.223-0.75,0.496-0.75H419.742z"/>
	
		<radialGradient id="SVGID_10_" cx="211.1558" cy="192.4087" r="12.6042" gradientTransform="matrix(0.75 0 0 -0.75 270.1356 675.2169)" gradientUnits="userSpaceOnUse">
		<stop  offset="0" style="stop-color:#565454"/>
		<stop  offset="0.54" style="stop-color:#555353"/>
		<stop  offset="0.74" style="stop-color:#6D6C6C"/>
		<stop  offset="0.91" style="stop-color:#555353"/>
		<stop  offset="1" style="stop-color:#555353"/>
	</radialGradient>
	<path fill="url(#SVGID_10_)" stroke="#595757" stroke-width="0.25" stroke-linejoin="bevel" stroke-miterlimit="10" d="
		M421.804,530.988c0-3.75,3-6.75,6.695-6.75c3.805,0,6.699,2.988,6.699,6.672c0.105,3.828-3,6.668-6.699,6.668
		c-3.695,0.16-6.695-2.984-6.695-6.668V530.988z"/>
	<path fill="#3E3938" stroke="#3E3938" stroke-width="0.25" stroke-linejoin="bevel" stroke-miterlimit="10" d="M101.551,532.101
		c0-18,14.898-33,33.277-33c18.473,0,33.277,14.852,33.277,33.172c0.195,18.578-14.898,33.176-33.277,33.176
		c-18.277-0.348-33.277-14.855-33.277-33.176V532.101z"/>
	
		<radialGradient id="SVGID_11_" cx="241.1021" cy="162.582" r="54.8701" gradientTransform="matrix(0.75 0 0 -0.75 -45.9977 654.2111)" gradientUnits="userSpaceOnUse">
		<stop  offset="0" style="stop-color:#3C3736"/>
		<stop  offset="0.54" style="stop-color:#3B3635"/>
		<stop  offset="0.74" style="stop-color:#5B5858"/>
		<stop  offset="0.91" style="stop-color:#3B3635"/>
		<stop  offset="1" style="stop-color:#3B3635"/>
	</radialGradient>
	<path fill="url(#SVGID_11_)" stroke="#3E3938" stroke-width="0.25" stroke-linejoin="bevel" stroke-miterlimit="10" d="
		M105.672,532.484c0-16.5,13.055-29.25,29.156-29.25c15.844,0,29.156,13,29.156,29.039c0.188,15.961-13.055,29.043-29.156,29.043
		c-16.406-0.332-29.156-13.004-29.156-29.043V532.484z"/>
	
		<linearGradient id="SVGID_12_" gradientUnits="userSpaceOnUse" x1="284.2261" y1="172.1938" x2="202.2261" y2="172.1938" gradientTransform="matrix(0.75 0 0 -0.75 -47.7404 659.9542)">
		<stop  offset="0" style="stop-color:#3D3B3B"/>
		<stop  offset="0.01" style="stop-color:#908F8F"/>
		<stop  offset="0.02" style="stop-color:#514F4F"/>
		<stop  offset="0.64" style="stop-color:#504E4E"/>
		<stop  offset="0.99" style="stop-color:#4E4C4C"/>
		<stop  offset="1" style="stop-color:#383636"/>
	</linearGradient>
	<path fill="url(#SVGID_12_)" d="M103.93,508.976h61.5l-10.5,36c0,0-5.699,7.668-19.75,7.668c-17-0.168-20.094-7.574-20.094-7.574
		L103.93,508.976z"/>
	
		<radialGradient id="SVGID_13_" cx="243.4443" cy="189.7749" r="42.8053" gradientTransform="matrix(0.75 0 0 -0.75 -47.757 659.5646)" gradientUnits="userSpaceOnUse">
		<stop  offset="0" style="stop-color:#3C3736"/>
		<stop  offset="0.54" style="stop-color:#3B3635"/>
		<stop  offset="0.74" style="stop-color:#5B5858"/>
		<stop  offset="0.91" style="stop-color:#3B3635"/>
		<stop  offset="1" style="stop-color:#3B3635"/>
	</radialGradient>
	<path fill="url(#SVGID_13_)" stroke="#3E3938" stroke-width="0.25" stroke-linejoin="bevel" stroke-miterlimit="10" d="
		M165.41,508.585c-6,10.5-17.512,17.297-30.582,17.297c-12.918-0.047-24.582-6.938-30.918-17.297c0,0.75,61.832,0,61.832,0H165.41z"
		/>
	
		<linearGradient id="SVGID_14_" gradientUnits="userSpaceOnUse" x1="227.5796" y1="186.8066" x2="202.2251" y2="186.8066" gradientTransform="matrix(0.75 0 0 -0.75 -26.3488 671.0031)">
		<stop  offset="0" style="stop-color:#4E4D4D"/>
		<stop  offset="0.01" style="stop-color:#9C9B9B"/>
		<stop  offset="0.02" style="stop-color:#686767"/>
		<stop  offset="0.64" style="stop-color:#666565"/>
		<stop  offset="0.99" style="stop-color:#636262"/>
		<stop  offset="1" style="stop-color:#484747"/>
	</linearGradient>
	<path fill="url(#SVGID_14_)" d="M126.07,520.023h18c0,0,0.266,0.223,0.266,0.492l-0.266,20.508c0,0.75,0.043,0.746-0.227,0.746
		l-17.773,0.004c-0.75,0-0.75-0.223-0.75-0.492v-20.508c0-0.75,0.223-0.75,0.492-0.75H126.07z"/>
	
		<radialGradient id="SVGID_15_" cx="211.1567" cy="192.4087" r="12.6048" gradientTransform="matrix(0.75 0 0 -0.75 -23.5377 675.2169)" gradientUnits="userSpaceOnUse">
		<stop  offset="0" style="stop-color:#565454"/>
		<stop  offset="0.54" style="stop-color:#555353"/>
		<stop  offset="0.74" style="stop-color:#6D6C6C"/>
		<stop  offset="0.91" style="stop-color:#555353"/>
		<stop  offset="1" style="stop-color:#555353"/>
	</radialGradient>
	<path fill="url(#SVGID_15_)" stroke="#595757" stroke-width="0.25" stroke-linejoin="bevel" stroke-miterlimit="10" d="
		M128.133,530.988c0-3.75,2.996-6.75,6.695-6.75c3.805,0,6.695,2.988,6.695,6.672c0.109,3.828-2.996,6.668-6.695,6.668
		c-3.695,0.16-6.695-2.984-6.695-6.668V530.988z"/>
	<path fill="#3E3938" stroke="#3E3938" stroke-width="0.25" stroke-linejoin="bevel" stroke-miterlimit="10" d="M35.746,532.101
		c0-18,14.898-33,33.277-33c18.473,0,33.277,14.852,33.277,33.172c0.195,18.578-14.898,33.176-33.277,33.176
		c-18.277-0.348-33.277-14.855-33.277-33.176V532.101z"/>
	
		<radialGradient id="SVGID_16_" cx="241.1021" cy="162.582" r="54.8701" gradientTransform="matrix(0.75 0 0 -0.75 -111.8024 654.2111)" gradientUnits="userSpaceOnUse">
		<stop  offset="0" style="stop-color:#3C3736"/>
		<stop  offset="0.54" style="stop-color:#3B3635"/>
		<stop  offset="0.74" style="stop-color:#5B5858"/>
		<stop  offset="0.91" style="stop-color:#3B3635"/>
		<stop  offset="1" style="stop-color:#3B3635"/>
	</radialGradient>
	<path fill="url(#SVGID_16_)" stroke="#3E3938" stroke-width="0.25" stroke-linejoin="bevel" stroke-miterlimit="10" d="
		M39.867,532.484c0-16.5,13.055-29.25,29.156-29.25c15.844,0,29.156,13,29.156,29.039c0.188,15.961-13.055,29.043-29.156,29.043
		c-16.406-0.332-29.156-13.004-29.156-29.043V532.484z"/>
	
		<linearGradient id="SVGID_17_" gradientUnits="userSpaceOnUse" x1="284.2251" y1="172.1938" x2="202.2256" y2="172.1938" gradientTransform="matrix(0.75 0 0 -0.75 -113.545 659.9542)">
		<stop  offset="0" style="stop-color:#3D3B3B"/>
		<stop  offset="0.01" style="stop-color:#908F8F"/>
		<stop  offset="0.02" style="stop-color:#514F4F"/>
		<stop  offset="0.64" style="stop-color:#504E4E"/>
		<stop  offset="0.99" style="stop-color:#4E4C4C"/>
		<stop  offset="1" style="stop-color:#383636"/>
	</linearGradient>
	<path fill="url(#SVGID_17_)" d="M38.125,508.976h61.5l-10.5,36c0,0-5.699,7.668-19.75,7.668c-17-0.168-20.094-7.574-20.094-7.574
		L38.125,508.976z"/>
	
		<radialGradient id="SVGID_18_" cx="243.4443" cy="189.7749" r="42.8053" gradientTransform="matrix(0.75 0 0 -0.75 -113.5616 659.5646)" gradientUnits="userSpaceOnUse">
		<stop  offset="0" style="stop-color:#3C3736"/>
		<stop  offset="0.54" style="stop-color:#3B3635"/>
		<stop  offset="0.74" style="stop-color:#5B5858"/>
		<stop  offset="0.91" style="stop-color:#3B3635"/>
		<stop  offset="1" style="stop-color:#3B3635"/>
	</radialGradient>
	<path fill="url(#SVGID_18_)" stroke="#3E3938" stroke-width="0.25" stroke-linejoin="bevel" stroke-miterlimit="10" d="
		M99.605,508.585c-6,10.5-17.512,17.297-30.582,17.297c-12.918-0.047-24.582-6.938-30.918-17.297c0,0.75,61.832,0,61.832,0H99.605z"
		/>
	
		<linearGradient id="SVGID_19_" gradientUnits="userSpaceOnUse" x1="227.5791" y1="186.8066" x2="202.2256" y2="186.8066" gradientTransform="matrix(0.75 0 0 -0.75 -92.1534 671.0031)">
		<stop  offset="0" style="stop-color:#4E4D4D"/>
		<stop  offset="0.01" style="stop-color:#9C9B9B"/>
		<stop  offset="0.02" style="stop-color:#686767"/>
		<stop  offset="0.64" style="stop-color:#666565"/>
		<stop  offset="0.99" style="stop-color:#636262"/>
		<stop  offset="1" style="stop-color:#484747"/>
	</linearGradient>
	<path fill="url(#SVGID_19_)" d="M60.266,520.023h18c0,0,0.266,0.223,0.266,0.492l-0.266,20.508c0,0.75,0.043,0.746-0.227,0.746
		l-17.773,0.004c-0.75,0-0.75-0.223-0.75-0.492v-20.508c0-0.75,0.223-0.75,0.492-0.75H60.266z"/>
	
		<radialGradient id="SVGID_20_" cx="211.1567" cy="192.4087" r="12.6042" gradientTransform="matrix(0.75 0 0 -0.75 -89.3424 675.2169)" gradientUnits="userSpaceOnUse">
		<stop  offset="0" style="stop-color:#565454"/>
		<stop  offset="0.54" style="stop-color:#555353"/>
		<stop  offset="0.74" style="stop-color:#6D6C6C"/>
		<stop  offset="0.91" style="stop-color:#555353"/>
		<stop  offset="1" style="stop-color:#555353"/>
	</radialGradient>
	<path fill="url(#SVGID_20_)" stroke="#595757" stroke-width="0.25" stroke-linejoin="bevel" stroke-miterlimit="10" d="
		M62.328,530.988c0-3.75,2.996-6.75,6.695-6.75c3.805,0,6.695,2.988,6.695,6.672c0.109,3.828-2.996,6.668-6.695,6.668
		c-3.695,0.16-6.695-2.984-6.695-6.668V530.988z"/>
	
		<linearGradient id="SVGID_21_" gradientUnits="userSpaceOnUse" x1="956.2231" y1="74.3071" x2="202.2246" y2="74.3071" gradientTransform="matrix(0.75 0 0 -0.75 -151.6691 468.5607)">
		<stop  offset="0" style="stop-color:#B4954F"/>
		<stop  offset="0.01" style="stop-color:#FEDD9C"/>
		<stop  offset="0.02" style="stop-color:#EAC268"/>
		<stop  offset="0.64" style="stop-color:#E6BF67"/>
		<stop  offset="0.99" style="stop-color:#E1BB64"/>
		<stop  offset="1" style="stop-color:#A78A48"/>
	</linearGradient>
	<path fill="url(#SVGID_21_)" d="M0,317.582h565.5v190.5H0V317.582z"/>
	
		<linearGradient id="SVGID_22_" gradientUnits="userSpaceOnUse" x1="956.2231" y1="192.8071" x2="202.2246" y2="192.8071" gradientTransform="matrix(0.75 0 0 -0.75 -151.6691 468.5607)">
		<stop  offset="0" style="stop-color:#B59D79"/>
		<stop  offset="0.01" style="stop-color:#FFE5C1"/>
		<stop  offset="0.02" style="stop-color:#EBCC9F"/>
		<stop  offset="0.64" style="stop-color:#E7C99C"/>
		<stop  offset="0.99" style="stop-color:#E2C499"/>
		<stop  offset="1" style="stop-color:#A89170"/>
	</linearGradient>
	<path fill="url(#SVGID_22_)" d="M0,317.582h565.5v12.75H0V317.582z"/>
	
		<linearGradient id="SVGID_23_" gradientUnits="userSpaceOnUse" x1="956.2231" y1="192.8042" x2="202.2246" y2="192.8041" gradientTransform="matrix(0.75 0 0 -0.75 -151.6691 646.7697)">
		<stop  offset="0" style="stop-color:#B59D79"/>
		<stop  offset="0.01" style="stop-color:#FFE5C1"/>
		<stop  offset="0.02" style="stop-color:#EBCC9F"/>
		<stop  offset="0.64" style="stop-color:#E7C99C"/>
		<stop  offset="0.99" style="stop-color:#E2C499"/>
		<stop  offset="1" style="stop-color:#A89170"/>
	</linearGradient>
	<path fill="url(#SVGID_23_)" d="M0,495.792h565.5v12.75H0V495.792z"/>
	
		<linearGradient id="SVGID_24_" gradientUnits="userSpaceOnUse" x1="222.2271" y1="74.3066" x2="202.2271" y2="74.3066" gradientTransform="matrix(0.75 0 0 -0.75 398.8602 468.5607)">
		<stop  offset="0" style="stop-color:#B59D79"/>
		<stop  offset="0.01" style="stop-color:#FFE5C1"/>
		<stop  offset="0.02" style="stop-color:#EBCC9F"/>
		<stop  offset="0.64" style="stop-color:#E7C99C"/>
		<stop  offset="0.99" style="stop-color:#E2C499"/>
		<stop  offset="1" style="stop-color:#A89170"/>
	</linearGradient>
	<path fill="url(#SVGID_24_)" d="M550.531,317.582h15v190.5h-15V317.582z"/>
	
		<linearGradient id="SVGID_25_" gradientUnits="userSpaceOnUse" x1="222.2251" y1="74.3066" x2="202.2251" y2="74.3066" gradientTransform="matrix(0.75 0 0 -0.75 -151.6691 468.5607)">
		<stop  offset="0" style="stop-color:#B59D79"/>
		<stop  offset="0.01" style="stop-color:#FFE5C1"/>
		<stop  offset="0.02" style="stop-color:#EBCC9F"/>
		<stop  offset="0.64" style="stop-color:#E7C99C"/>
		<stop  offset="0.99" style="stop-color:#E2C499"/>
		<stop  offset="1" style="stop-color:#A89170"/>
	</linearGradient>
	<path fill="url(#SVGID_25_)" d="M0,317.582h15v190.5H0V317.582z"/>
	
		<linearGradient id="SVGID_26_" gradientUnits="userSpaceOnUse" x1="210.2266" y1="90.8047" x2="202.2266" y2="90.8047" gradientTransform="matrix(0.75 0 0 -0.75 -117.9825 481.2589)">
		<stop  offset="0" style="stop-color:#B59D79"/>
		<stop  offset="0.01" style="stop-color:#FFE5C1"/>
		<stop  offset="0.02" style="stop-color:#EBCC9F"/>
		<stop  offset="0.64" style="stop-color:#E7C99C"/>
		<stop  offset="0.99" style="stop-color:#E2C499"/>
		<stop  offset="1" style="stop-color:#A89170"/>
	</linearGradient>
	<path fill="url(#SVGID_26_)" d="M33.688,330.281h6v165.75h-6V330.281z"/>
	
		<linearGradient id="SVGID_27_" gradientUnits="userSpaceOnUse" x1="210.2261" y1="90.8047" x2="202.2261" y2="90.8047" gradientTransform="matrix(0.75 0 0 -0.75 -83.9391 481.2589)">
		<stop  offset="0" style="stop-color:#B59D79"/>
		<stop  offset="0.01" style="stop-color:#FFE5C1"/>
		<stop  offset="0.02" style="stop-color:#EBCC9F"/>
		<stop  offset="0.64" style="stop-color:#E7C99C"/>
		<stop  offset="0.99" style="stop-color:#E2C499"/>
		<stop  offset="1" style="stop-color:#A89170"/>
	</linearGradient>
	<path fill="url(#SVGID_27_)" d="M67.73,330.281h6v165.75h-6V330.281z"/>
	
		<linearGradient id="SVGID_28_" gradientUnits="userSpaceOnUse" x1="210.2246" y1="90.8047" x2="202.2246" y2="90.8047" gradientTransform="matrix(0.75 0 0 -0.75 -49.8951 481.2589)">
		<stop  offset="0" style="stop-color:#B59D79"/>
		<stop  offset="0.01" style="stop-color:#FFE5C1"/>
		<stop  offset="0.02" style="stop-color:#EBCC9F"/>
		<stop  offset="0.64" style="stop-color:#E7C99C"/>
		<stop  offset="0.99" style="stop-color:#E2C499"/>
		<stop  offset="1" style="stop-color:#A89170"/>
	</linearGradient>
	<path fill="url(#SVGID_28_)" d="M101.773,330.281h6v165.75h-6V330.281z"/>
	
		<linearGradient id="SVGID_29_" gradientUnits="userSpaceOnUse" x1="210.2236" y1="90.8047" x2="202.2236" y2="90.8047" gradientTransform="matrix(0.75 0 0 -0.75 -15.2462 481.2589)">
		<stop  offset="0" style="stop-color:#B59D79"/>
		<stop  offset="0.01" style="stop-color:#FFE5C1"/>
		<stop  offset="0.02" style="stop-color:#EBCC9F"/>
		<stop  offset="0.64" style="stop-color:#E7C99C"/>
		<stop  offset="0.99" style="stop-color:#E2C499"/>
		<stop  offset="1" style="stop-color:#A89170"/>
	</linearGradient>
	<path fill="url(#SVGID_29_)" d="M136.422,330.281h6v165.75h-6V330.281z"/>
	
		<linearGradient id="SVGID_30_" gradientUnits="userSpaceOnUse" x1="210.2236" y1="90.8047" x2="202.2236" y2="90.8047" gradientTransform="matrix(0.75 0 0 -0.75 22.2889 481.2589)">
		<stop  offset="0" style="stop-color:#B59D79"/>
		<stop  offset="0.01" style="stop-color:#FFE5C1"/>
		<stop  offset="0.02" style="stop-color:#EBCC9F"/>
		<stop  offset="0.64" style="stop-color:#E7C99C"/>
		<stop  offset="0.99" style="stop-color:#E2C499"/>
		<stop  offset="1" style="stop-color:#A89170"/>
	</linearGradient>
	<path fill="url(#SVGID_30_)" d="M173.957,330.281h6v165.75h-6V330.281z"/>
	
		<linearGradient id="SVGID_31_" gradientUnits="userSpaceOnUse" x1="210.2217" y1="90.8047" x2="202.2217" y2="90.8047" gradientTransform="matrix(0.75 0 0 -0.75 232.6962 481.2589)">
		<stop  offset="0" style="stop-color:#B59D79"/>
		<stop  offset="0.01" style="stop-color:#FFE5C1"/>
		<stop  offset="0.02" style="stop-color:#EBCC9F"/>
		<stop  offset="0.64" style="stop-color:#E7C99C"/>
		<stop  offset="0.99" style="stop-color:#E2C499"/>
		<stop  offset="1" style="stop-color:#A89170"/>
	</linearGradient>
	<path fill="url(#SVGID_31_)" d="M384.363,330.281h6v165.75h-6V330.281z"/>
	
		<linearGradient id="SVGID_32_" gradientUnits="userSpaceOnUse" x1="210.2256" y1="90.8047" x2="202.2256" y2="90.8047" gradientTransform="matrix(0.75 0 0 -0.75 267.7635 481.2589)">
		<stop  offset="0" style="stop-color:#B59D79"/>
		<stop  offset="0.01" style="stop-color:#FFE5C1"/>
		<stop  offset="0.02" style="stop-color:#EBCC9F"/>
		<stop  offset="0.64" style="stop-color:#E7C99C"/>
		<stop  offset="0.99" style="stop-color:#E2C499"/>
		<stop  offset="1" style="stop-color:#A89170"/>
	</linearGradient>
	<path fill="url(#SVGID_32_)" d="M419.433,330.281h6v165.75h-6V330.281z"/>
	
		<linearGradient id="SVGID_33_" gradientUnits="userSpaceOnUse" x1="210.2231" y1="90.8047" x2="202.2231" y2="90.8047" gradientTransform="matrix(0.75 0 0 -0.75 304.8788 481.2589)">
		<stop  offset="0" style="stop-color:#B59D79"/>
		<stop  offset="0.01" style="stop-color:#FFE5C1"/>
		<stop  offset="0.02" style="stop-color:#EBCC9F"/>
		<stop  offset="0.64" style="stop-color:#E7C99C"/>
		<stop  offset="0.99" style="stop-color:#E2C499"/>
		<stop  offset="1" style="stop-color:#A89170"/>
	</linearGradient>
	<path fill="url(#SVGID_33_)" d="M456.546,330.281h6v165.75h-6V330.281z"/>
	
		<linearGradient id="SVGID_34_" gradientUnits="userSpaceOnUse" x1="210.2222" y1="90.8047" x2="202.2222" y2="90.8047" gradientTransform="matrix(0.75 0 0 -0.75 339.5282 481.2589)">
		<stop  offset="0" style="stop-color:#B59D79"/>
		<stop  offset="0.01" style="stop-color:#FFE5C1"/>
		<stop  offset="0.02" style="stop-color:#EBCC9F"/>
		<stop  offset="0.64" style="stop-color:#E7C99C"/>
		<stop  offset="0.99" style="stop-color:#E2C499"/>
		<stop  offset="1" style="stop-color:#A89170"/>
	</linearGradient>
	<path fill="url(#SVGID_34_)" d="M491.195,330.281h6v165.75h-6V330.281z"/>
	
		<linearGradient id="SVGID_35_" gradientUnits="userSpaceOnUse" x1="210.2266" y1="90.8047" x2="202.2266" y2="90.8047" gradientTransform="matrix(0.75 0 0 -0.75 372.9657 481.2589)">
		<stop  offset="0" style="stop-color:#B59D79"/>
		<stop  offset="0.01" style="stop-color:#FFE5C1"/>
		<stop  offset="0.02" style="stop-color:#EBCC9F"/>
		<stop  offset="0.64" style="stop-color:#E7C99C"/>
		<stop  offset="0.99" style="stop-color:#E2C499"/>
		<stop  offset="1" style="stop-color:#A89170"/>
	</linearGradient>
	<path fill="url(#SVGID_35_)" d="M524.636,330.281h6v165.75h-6V330.281z"/>
	
		<linearGradient id="SVGID_36_" gradientUnits="userSpaceOnUse" x1="210.2266" y1="90.8047" x2="202.2266" y2="90.8047" gradientTransform="matrix(0.75 0 0 -0.75 59.4042 481.2589)">
		<stop  offset="0" style="stop-color:#B59D79"/>
		<stop  offset="0.01" style="stop-color:#FFE5C1"/>
		<stop  offset="0.02" style="stop-color:#EBCC9F"/>
		<stop  offset="0.64" style="stop-color:#E7C99C"/>
		<stop  offset="0.99" style="stop-color:#E2C499"/>
		<stop  offset="1" style="stop-color:#A89170"/>
	</linearGradient>
	<path fill="url(#SVGID_36_)" d="M211.074,330.281h6v165.75h-6V330.281z"/>
	
		<linearGradient id="SVGID_37_" gradientUnits="userSpaceOnUse" x1="210.2256" y1="90.8047" x2="202.2256" y2="90.8047" gradientTransform="matrix(0.75 0 0 -0.75 93.4481 481.2589)">
		<stop  offset="0" style="stop-color:#B59D79"/>
		<stop  offset="0.01" style="stop-color:#FFE5C1"/>
		<stop  offset="0.02" style="stop-color:#EBCC9F"/>
		<stop  offset="0.64" style="stop-color:#E7C99C"/>
		<stop  offset="0.99" style="stop-color:#E2C499"/>
		<stop  offset="1" style="stop-color:#A89170"/>
	</linearGradient>
	<path fill="url(#SVGID_37_)" d="M245.117,330.281h6v165.75h-6V330.281z"/>
	
		<linearGradient id="SVGID_38_" gradientUnits="userSpaceOnUse" x1="210.2231" y1="90.8047" x2="202.2241" y2="90.8047" gradientTransform="matrix(0.75 0 0 -0.75 127.4921 481.2589)">
		<stop  offset="0" style="stop-color:#B59D79"/>
		<stop  offset="0.01" style="stop-color:#FFE5C1"/>
		<stop  offset="0.02" style="stop-color:#EBCC9F"/>
		<stop  offset="0.64" style="stop-color:#E7C99C"/>
		<stop  offset="0.99" style="stop-color:#E2C499"/>
		<stop  offset="1" style="stop-color:#A89170"/>
	</linearGradient>
	<path fill="url(#SVGID_38_)" d="M279.16,330.281h6v165.75h-6V330.281z"/>
	
		<linearGradient id="SVGID_39_" gradientUnits="userSpaceOnUse" x1="210.2236" y1="90.8047" x2="202.2236" y2="90.8047" gradientTransform="matrix(0.75 0 0 -0.75 162.1405 481.2589)">
		<stop  offset="0" style="stop-color:#B59D79"/>
		<stop  offset="0.01" style="stop-color:#FFE5C1"/>
		<stop  offset="0.02" style="stop-color:#EBCC9F"/>
		<stop  offset="0.64" style="stop-color:#E7C99C"/>
		<stop  offset="0.99" style="stop-color:#E2C499"/>
		<stop  offset="1" style="stop-color:#A89170"/>
	</linearGradient>
	<path fill="url(#SVGID_39_)" d="M313.808,330.281h6v165.75h-6V330.281z"/>
	
		<linearGradient id="SVGID_40_" gradientUnits="userSpaceOnUse" x1="210.2266" y1="90.8047" x2="202.2266" y2="90.8047" gradientTransform="matrix(0.75 0 0 -0.75 195.579 481.2589)">
		<stop  offset="0" style="stop-color:#B59D79"/>
		<stop  offset="0.01" style="stop-color:#FFE5C1"/>
		<stop  offset="0.02" style="stop-color:#EBCC9F"/>
		<stop  offset="0.64" style="stop-color:#E7C99C"/>
		<stop  offset="0.99" style="stop-color:#E2C499"/>
		<stop  offset="1" style="stop-color:#A89170"/>
	</linearGradient>
	<path fill="url(#SVGID_40_)" d="M347.25,330.281h6v165.75h-6V330.281z"/>
</g>
</svg>
