<?xml version="1.0" encoding="utf-8"?>
<!-- Generator: Adobe Illustrator 16.0.0, SVG Export Plug-In . SVG Version: 6.00 Build 0)  -->
<!DOCTYPE svg PUBLIC "-//W3C//DTD SVG 1.1//EN" "http://www.w3.org/Graphics/SVG/1.1/DTD/svg11.dtd">
<svg preserveAspectRatio="none"   version="1.1" id="图层_1" xmlns="http://www.w3.org/2000/svg" xmlns:xlink="http://www.w3.org/1999/xlink" x="0px" y="0px"
	 width="567.335px" height="233.579px" viewBox="-0.035 329.664 567.335 233.579"
	 enable-background="new -0.035 329.664 567.335 233.579" xml:space="preserve">
<g id="surface361">
	<path fill="#3E3938" stroke="#3E3938" stroke-width="0.25" stroke-linejoin="bevel" stroke-miterlimit="10" d="M399.324,536.402
		c0-14.25,11.875-26.25,26.523-26.25c14.727,0,26.523,11.855,26.523,26.48c0.203,14.77-11.875,26.48-26.523,26.48
		c-14.523,0.289-26.523-11.855-26.523-26.48V536.402z"/>
	
		<radialGradient id="SVGID_1_" cx="233.209" cy="170.394" r="43.7652" gradientTransform="matrix(0.75 0 0 -0.75 250.9403 664.4279)" gradientUnits="userSpaceOnUse">
		<stop  offset="0" style="stop-color:#3C3736"/>
		<stop  offset="0.54" style="stop-color:#3B3635"/>
		<stop  offset="0.74" style="stop-color:#5B5858"/>
		<stop  offset="0.91" style="stop-color:#3B3635"/>
		<stop  offset="1" style="stop-color:#3B3635"/>
	</radialGradient>
	<path fill="url(#SVGID_1_)" stroke="#3E3938" stroke-width="0.25" stroke-linejoin="bevel" stroke-miterlimit="10" d="
		M402.609,536.699c0-12.75,10.402-23.25,23.238-23.25c12.762,0,23.238,10.379,23.238,23.184
		c0.023,12.816-10.406,23.184-23.238,23.184c-12.738,0.133-23.238-10.379-23.238-23.184V536.699z"/>
	
		<linearGradient id="SVGID_2_" gradientUnits="userSpaceOnUse" x1="268.2236" y1="178.0659" x2="202.2236" y2="178.0659" gradientTransform="matrix(0.75 0 0 -0.75 249.5507 669.0128)">
		<stop  offset="0" style="stop-color:#3D3B3B"/>
		<stop  offset="0.01" style="stop-color:#908F8F"/>
		<stop  offset="0.02" style="stop-color:#514F4F"/>
		<stop  offset="0.64" style="stop-color:#504E4E"/>
		<stop  offset="0.99" style="stop-color:#4E4C4C"/>
		<stop  offset="1" style="stop-color:#383636"/>
	</linearGradient>
	<path fill="url(#SVGID_2_)" d="M401.218,518.035h49.5l-9,28.5c0,0-4.395,6.359-15.59,6.359c-13.66-0.359-16.016-6.047-16.016-6.047
		L401.218,518.035z"/>
	
		<radialGradient id="SVGID_3_" cx="235.2251" cy="192.1001" r="34.2596" gradientTransform="matrix(0.75 0 0 -0.75 249.538 668.7013)" gradientUnits="userSpaceOnUse">
		<stop  offset="0" style="stop-color:#3C3736"/>
		<stop  offset="0.54" style="stop-color:#3B3635"/>
		<stop  offset="0.74" style="stop-color:#5B5858"/>
		<stop  offset="0.91" style="stop-color:#3B3635"/>
		<stop  offset="1" style="stop-color:#3B3635"/>
	</radialGradient>
	<path fill="url(#SVGID_3_)" stroke="#3E3938" stroke-width="0.25" stroke-linejoin="bevel" stroke-miterlimit="10" d="
		M450.707,517.722c-5.25,8.25-14.445,13.809-24.859,13.809c-10.391-0.309-19.594-5.539-24.641-13.809h49.281H450.707z"/>
	
		<linearGradient id="SVGID_4_" gradientUnits="userSpaceOnUse" x1="222.4326" y1="189.73" x2="202.2246" y2="189.73" gradientTransform="matrix(0.75 0 0 -0.75 266.6005 677.8322)">
		<stop  offset="0" style="stop-color:#4E4D4D"/>
		<stop  offset="0.01" style="stop-color:#9C9B9B"/>
		<stop  offset="0.02" style="stop-color:#686767"/>
		<stop  offset="0.64" style="stop-color:#666565"/>
		<stop  offset="0.99" style="stop-color:#636262"/>
		<stop  offset="1" style="stop-color:#484747"/>
	</linearGradient>
	<path fill="url(#SVGID_4_)" d="M419.019,526.855h14.25c0,0,0.156,0.176,0.156,0.391l-0.156,16.859c0,0-0.02,0.109-0.238,0.109
		l-14.012-0.109c-0.75,0-0.75-0.066-0.75-0.285v-16.215c0-0.75,0.176-0.75,0.395-0.75H419.019z"/>
	
		<radialGradient id="SVGID_5_" cx="209.3423" cy="194.2056" r="10.0507" gradientTransform="matrix(0.75 0 0 -0.75 268.8407 681.1964)" gradientUnits="userSpaceOnUse">
		<stop  offset="0" style="stop-color:#565454"/>
		<stop  offset="0.54" style="stop-color:#555353"/>
		<stop  offset="0.74" style="stop-color:#6D6C6C"/>
		<stop  offset="0.91" style="stop-color:#555353"/>
		<stop  offset="1" style="stop-color:#555353"/>
	</radialGradient>
	<path fill="url(#SVGID_5_)" stroke="#595757" stroke-width="0.25" stroke-linejoin="bevel" stroke-miterlimit="10" d="
		M420.511,535.468c0-3,2.387-5.25,5.336-5.25c2.914,0,5.336,2.383,5.336,5.324c-0.172,2.926-2.391,5.324-5.336,5.324
		c-3.086-0.148-5.336-2.383-5.336-5.324V535.468z"/>
	<path fill="#3E3938" stroke="#3E3938" stroke-width="0.25" stroke-linejoin="bevel" stroke-miterlimit="10" d="M346.875,536.402
		c0-14.25,11.875-26.25,26.523-26.25c14.727,0,26.523,11.855,26.523,26.48c0.203,14.77-11.875,26.48-26.523,26.48
		c-14.523,0.289-26.523-11.855-26.523-26.48V536.402z"/>
	
		<radialGradient id="SVGID_6_" cx="233.2095" cy="170.394" r="43.7656" gradientTransform="matrix(0.75 0 0 -0.75 198.493 664.4279)" gradientUnits="userSpaceOnUse">
		<stop  offset="0" style="stop-color:#3C3736"/>
		<stop  offset="0.54" style="stop-color:#3B3635"/>
		<stop  offset="0.74" style="stop-color:#5B5858"/>
		<stop  offset="0.91" style="stop-color:#3B3635"/>
		<stop  offset="1" style="stop-color:#3B3635"/>
	</radialGradient>
	<path fill="url(#SVGID_6_)" stroke="#3E3938" stroke-width="0.25" stroke-linejoin="bevel" stroke-miterlimit="10" d="
		M350.164,536.699c0-12.75,10.402-23.25,23.234-23.25c12.766,0,23.238,10.379,23.238,23.184
		c0.027,12.816-10.402,23.184-23.238,23.184c-12.734,0.133-23.234-10.379-23.234-23.184V536.699z"/>
	
		<linearGradient id="SVGID_7_" gradientUnits="userSpaceOnUse" x1="268.2241" y1="178.0659" x2="202.2241" y2="178.0659" gradientTransform="matrix(0.75 0 0 -0.75 197.1044 669.0128)">
		<stop  offset="0" style="stop-color:#3D3B3B"/>
		<stop  offset="0.01" style="stop-color:#908F8F"/>
		<stop  offset="0.02" style="stop-color:#514F4F"/>
		<stop  offset="0.64" style="stop-color:#504E4E"/>
		<stop  offset="0.99" style="stop-color:#4E4C4C"/>
		<stop  offset="1" style="stop-color:#383636"/>
	</linearGradient>
	<path fill="url(#SVGID_7_)" d="M348.773,518.035h49.5l-9,28.5c0,0-4.395,6.359-15.594,6.359
		c-13.656-0.359-16.012-6.047-16.012-6.047L348.773,518.035z"/>
	
		<radialGradient id="SVGID_8_" cx="235.2271" cy="192.1001" r="34.2568" gradientTransform="matrix(0.75 0 0 -0.75 197.0907 668.7013)" gradientUnits="userSpaceOnUse">
		<stop  offset="0" style="stop-color:#3C3736"/>
		<stop  offset="0.54" style="stop-color:#3B3635"/>
		<stop  offset="0.74" style="stop-color:#5B5858"/>
		<stop  offset="0.91" style="stop-color:#3B3635"/>
		<stop  offset="1" style="stop-color:#3B3635"/>
	</radialGradient>
	<path fill="url(#SVGID_8_)" stroke="#3E3938" stroke-width="0.25" stroke-linejoin="bevel" stroke-miterlimit="10" d="
		M398.261,517.722c-5.25,8.25-14.445,13.809-24.863,13.809c-10.387-0.309-19.59-5.539-24.637-13.809h49.277H398.261z"/>
	
		<linearGradient id="SVGID_9_" gradientUnits="userSpaceOnUse" x1="222.4297" y1="189.73" x2="202.2266" y2="189.73" gradientTransform="matrix(0.75 0 0 -0.75 214.1532 677.8322)">
		<stop  offset="0" style="stop-color:#4E4D4D"/>
		<stop  offset="0.01" style="stop-color:#9C9B9B"/>
		<stop  offset="0.02" style="stop-color:#686767"/>
		<stop  offset="0.64" style="stop-color:#666565"/>
		<stop  offset="0.99" style="stop-color:#636262"/>
		<stop  offset="1" style="stop-color:#484747"/>
	</linearGradient>
	<path fill="url(#SVGID_9_)" d="M366.574,526.855h14.25c0,0,0.152,0.176,0.152,0.391l-0.152,16.859c0,0-0.023,0.109-0.238,0.109
		l-14.012-0.109c-0.75,0-0.75-0.066-0.75-0.285v-16.215c0-0.75,0.176-0.75,0.391-0.75H366.574z"/>
	
		<radialGradient id="SVGID_10_" cx="209.3403" cy="194.2056" r="10.0514" gradientTransform="matrix(0.75 0 0 -0.75 216.3944 681.1964)" gradientUnits="userSpaceOnUse">
		<stop  offset="0" style="stop-color:#565454"/>
		<stop  offset="0.54" style="stop-color:#555353"/>
		<stop  offset="0.74" style="stop-color:#6D6C6C"/>
		<stop  offset="0.91" style="stop-color:#555353"/>
		<stop  offset="1" style="stop-color:#555353"/>
	</radialGradient>
	<path fill="url(#SVGID_10_)" stroke="#595757" stroke-width="0.25" stroke-linejoin="bevel" stroke-miterlimit="10" d="
		M368.062,535.468c0-3,2.391-5.25,5.336-5.25c2.914,0,5.34,2.383,5.34,5.324c-0.176,2.926-2.391,5.324-5.34,5.324
		c-3.086-0.148-5.336-2.383-5.336-5.324V535.468z"/>
	<path fill="#3E3938" stroke="#3E3938" stroke-width="0.25" stroke-linejoin="bevel" stroke-miterlimit="10" d="M176.031,536.402
		c0-14.25,11.875-26.25,26.523-26.25c14.727,0,26.523,11.855,26.523,26.48c0.203,14.77-11.875,26.48-26.523,26.48
		c-14.523,0.289-26.523-11.855-26.523-26.48V536.402z"/>
	
		<radialGradient id="SVGID_11_" cx="233.2114" cy="170.394" r="43.7649" gradientTransform="matrix(0.75 0 0 -0.75 27.6464 664.4279)" gradientUnits="userSpaceOnUse">
		<stop  offset="0" style="stop-color:#3C3736"/>
		<stop  offset="0.54" style="stop-color:#3B3635"/>
		<stop  offset="0.74" style="stop-color:#5B5858"/>
		<stop  offset="0.91" style="stop-color:#3B3635"/>
		<stop  offset="1" style="stop-color:#3B3635"/>
	</radialGradient>
	<path fill="url(#SVGID_11_)" stroke="#3E3938" stroke-width="0.25" stroke-linejoin="bevel" stroke-miterlimit="10" d="
		M179.316,536.699c0-12.75,10.402-23.25,23.238-23.25c12.762,0,23.238,10.379,23.238,23.184
		c0.023,12.816-10.406,23.184-23.238,23.184c-12.738,0.133-23.238-10.379-23.238-23.184V536.699z"/>
	
		<linearGradient id="SVGID_12_" gradientUnits="userSpaceOnUse" x1="268.2246" y1="178.0659" x2="202.2246" y2="178.0659" gradientTransform="matrix(0.75 0 0 -0.75 26.2572 669.0128)">
		<stop  offset="0" style="stop-color:#3D3B3B"/>
		<stop  offset="0.01" style="stop-color:#908F8F"/>
		<stop  offset="0.02" style="stop-color:#514F4F"/>
		<stop  offset="0.64" style="stop-color:#504E4E"/>
		<stop  offset="0.99" style="stop-color:#4E4C4C"/>
		<stop  offset="1" style="stop-color:#383636"/>
	</linearGradient>
	<path fill="url(#SVGID_12_)" d="M177.926,518.035h49.5l-9,28.5c0,0-4.395,6.359-15.59,6.359
		c-13.66-0.359-16.016-6.047-16.016-6.047L177.926,518.035z"/>
	
		<radialGradient id="SVGID_13_" cx="235.2271" cy="192.1001" r="34.2578" gradientTransform="matrix(0.75 0 0 -0.75 26.244 668.7013)" gradientUnits="userSpaceOnUse">
		<stop  offset="0" style="stop-color:#3C3736"/>
		<stop  offset="0.54" style="stop-color:#3B3635"/>
		<stop  offset="0.74" style="stop-color:#5B5858"/>
		<stop  offset="0.91" style="stop-color:#3B3635"/>
		<stop  offset="1" style="stop-color:#3B3635"/>
	</radialGradient>
	<path fill="url(#SVGID_13_)" stroke="#3E3938" stroke-width="0.25" stroke-linejoin="bevel" stroke-miterlimit="10" d="
		M227.414,517.722c-5.25,8.25-14.445,13.809-24.859,13.809c-10.391-0.309-19.594-5.539-24.641-13.809h49.281H227.414z"/>
	
		<linearGradient id="SVGID_14_" gradientUnits="userSpaceOnUse" x1="222.4346" y1="189.73" x2="202.2266" y2="189.73" gradientTransform="matrix(0.75 0 0 -0.75 43.3065 677.8322)">
		<stop  offset="0" style="stop-color:#4E4D4D"/>
		<stop  offset="0.01" style="stop-color:#9C9B9B"/>
		<stop  offset="0.02" style="stop-color:#686767"/>
		<stop  offset="0.64" style="stop-color:#666565"/>
		<stop  offset="0.99" style="stop-color:#636262"/>
		<stop  offset="1" style="stop-color:#484747"/>
	</linearGradient>
	<path fill="url(#SVGID_14_)" d="M195.727,526.855h14.25c0,0,0.156,0.176,0.156,0.391l-0.156,16.859c0,0-0.02,0.109-0.238,0.109
		l-14.012-0.109c-0.75,0-0.75-0.066-0.75-0.285v-16.215c0-0.75,0.176-0.75,0.391-0.75H195.727z"/>
	
		<radialGradient id="SVGID_15_" cx="209.3408" cy="194.2056" r="10.0517" gradientTransform="matrix(0.75 0 0 -0.75 45.5472 681.1964)" gradientUnits="userSpaceOnUse">
		<stop  offset="0" style="stop-color:#565454"/>
		<stop  offset="0.54" style="stop-color:#555353"/>
		<stop  offset="0.74" style="stop-color:#6D6C6C"/>
		<stop  offset="0.91" style="stop-color:#555353"/>
		<stop  offset="1" style="stop-color:#555353"/>
	</radialGradient>
	<path fill="url(#SVGID_15_)" stroke="#595757" stroke-width="0.25" stroke-linejoin="bevel" stroke-miterlimit="10" d="
		M197.215,535.468c0-3,2.391-5.25,5.34-5.25c2.91,0,5.336,2.383,5.336,5.324c-0.176,2.926-2.391,5.324-5.336,5.324
		c-3.09-0.148-5.34-2.383-5.34-5.324V535.468z"/>
	<path fill="#3E3938" stroke="#3E3938" stroke-width="0.25" stroke-linejoin="bevel" stroke-miterlimit="10" d="M123.582,536.402
		c0-14.25,11.875-26.25,26.523-26.25c14.727,0,26.523,11.855,26.523,26.48c0.203,14.77-11.875,26.48-26.523,26.48
		c-14.523,0.289-26.523-11.855-26.523-26.48V536.402z"/>
	
		<radialGradient id="SVGID_16_" cx="233.208" cy="170.394" r="43.7666" gradientTransform="matrix(0.75 0 0 -0.75 -24.8004 664.4279)" gradientUnits="userSpaceOnUse">
		<stop  offset="0" style="stop-color:#3C3736"/>
		<stop  offset="0.54" style="stop-color:#3B3635"/>
		<stop  offset="0.74" style="stop-color:#5B5858"/>
		<stop  offset="0.91" style="stop-color:#3B3635"/>
		<stop  offset="1" style="stop-color:#3B3635"/>
	</radialGradient>
	<path fill="url(#SVGID_16_)" stroke="#3E3938" stroke-width="0.25" stroke-linejoin="bevel" stroke-miterlimit="10" d="
		M126.867,536.699c0-12.75,10.406-23.25,23.238-23.25c12.762,0,23.238,10.379,23.238,23.184
		c0.023,12.816-10.402,23.184-23.238,23.184c-12.738,0.133-23.238-10.379-23.238-23.184V536.699z"/>
	
		<linearGradient id="SVGID_17_" gradientUnits="userSpaceOnUse" x1="268.2266" y1="178.0659" x2="202.2266" y2="178.0659" gradientTransform="matrix(0.75 0 0 -0.75 -26.1896 669.0128)">
		<stop  offset="0" style="stop-color:#3D3B3B"/>
		<stop  offset="0.01" style="stop-color:#908F8F"/>
		<stop  offset="0.02" style="stop-color:#514F4F"/>
		<stop  offset="0.64" style="stop-color:#504E4E"/>
		<stop  offset="0.99" style="stop-color:#4E4C4C"/>
		<stop  offset="1" style="stop-color:#383636"/>
	</linearGradient>
	<path fill="url(#SVGID_17_)" d="M125.48,518.035h49.5l-9,28.5c0,0-4.395,6.359-15.594,6.359
		c-13.656-0.359-16.016-6.047-16.016-6.047L125.48,518.035z"/>
	
		<radialGradient id="SVGID_18_" cx="235.2231" cy="192.1001" r="34.2615" gradientTransform="matrix(0.75 0 0 -0.75 -26.2028 668.7013)" gradientUnits="userSpaceOnUse">
		<stop  offset="0" style="stop-color:#3C3736"/>
		<stop  offset="0.54" style="stop-color:#3B3635"/>
		<stop  offset="0.74" style="stop-color:#5B5858"/>
		<stop  offset="0.91" style="stop-color:#3B3635"/>
		<stop  offset="1" style="stop-color:#3B3635"/>
	</radialGradient>
	<path fill="url(#SVGID_18_)" stroke="#3E3938" stroke-width="0.25" stroke-linejoin="bevel" stroke-miterlimit="10" d="
		M174.965,517.722c-5.25,8.25-14.441,13.809-24.859,13.809c-10.391-0.309-19.59-5.539-24.641-13.809h49.281H174.965z"/>
	
		<linearGradient id="SVGID_19_" gradientUnits="userSpaceOnUse" x1="222.4316" y1="189.73" x2="202.2227" y2="189.73" gradientTransform="matrix(0.75 0 0 -0.75 -9.1403 677.8322)">
		<stop  offset="0" style="stop-color:#4E4D4D"/>
		<stop  offset="0.01" style="stop-color:#9C9B9B"/>
		<stop  offset="0.02" style="stop-color:#686767"/>
		<stop  offset="0.64" style="stop-color:#666565"/>
		<stop  offset="0.99" style="stop-color:#636262"/>
		<stop  offset="1" style="stop-color:#484747"/>
	</linearGradient>
	<path fill="url(#SVGID_19_)" d="M143.277,526.855h14.25c0,0,0.156,0.176,0.156,0.391l-0.156,16.859c0,0-0.02,0.109-0.234,0.109
		l-14.016-0.109c-0.75,0-0.75-0.066-0.75-0.285v-16.215c0-0.75,0.176-0.75,0.395-0.75H143.277z"/>
	
		<radialGradient id="SVGID_20_" cx="209.3433" cy="194.2056" r="10.0507" gradientTransform="matrix(0.75 0 0 -0.75 -6.8995 681.1964)" gradientUnits="userSpaceOnUse">
		<stop  offset="0" style="stop-color:#565454"/>
		<stop  offset="0.54" style="stop-color:#555353"/>
		<stop  offset="0.74" style="stop-color:#6D6C6C"/>
		<stop  offset="0.91" style="stop-color:#555353"/>
		<stop  offset="1" style="stop-color:#555353"/>
	</radialGradient>
	<path fill="url(#SVGID_20_)" stroke="#595757" stroke-width="0.25" stroke-linejoin="bevel" stroke-miterlimit="10" d="
		M144.77,535.468c0-3,2.391-5.25,5.336-5.25c2.914,0,5.34,2.383,5.34,5.324c-0.176,2.926-2.391,5.324-5.34,5.324
		c-3.086-0.148-5.336-2.383-5.336-5.324V535.468z"/>
	<path fill="#3E3938" stroke="#3E3938" stroke-width="0.25" stroke-linejoin="bevel" stroke-miterlimit="10" d="M513.914,536.402
		c0-14.25,11.875-26.25,26.523-26.25c14.727,0,26.523,11.855,26.523,26.48c0.203,14.77-11.875,26.48-26.523,26.48
		c-14.523,0.289-26.523-11.855-26.523-26.48V536.402z"/>
	
		<radialGradient id="SVGID_21_" cx="233.2085" cy="170.394" r="43.7663" gradientTransform="matrix(0.75 0 0 -0.75 365.5311 664.4279)" gradientUnits="userSpaceOnUse">
		<stop  offset="0" style="stop-color:#3C3736"/>
		<stop  offset="0.54" style="stop-color:#3B3635"/>
		<stop  offset="0.74" style="stop-color:#5B5858"/>
		<stop  offset="0.91" style="stop-color:#3B3635"/>
		<stop  offset="1" style="stop-color:#3B3635"/>
	</radialGradient>
	<path fill="url(#SVGID_21_)" stroke="#3E3938" stroke-width="0.25" stroke-linejoin="bevel" stroke-miterlimit="10" d="
		M517.199,536.699c0-12.75,10.406-23.25,23.238-23.25c12.762,0,23.238,10.379,23.238,23.184
		c0.023,12.816-10.402,23.184-23.238,23.184c-12.738,0.133-23.238-10.379-23.238-23.184V536.699z"/>
	
		<linearGradient id="SVGID_22_" gradientUnits="userSpaceOnUse" x1="268.2256" y1="178.0659" x2="202.2256" y2="178.0659" gradientTransform="matrix(0.75 0 0 -0.75 364.1425 669.0128)">
		<stop  offset="0" style="stop-color:#3D3B3B"/>
		<stop  offset="0.01" style="stop-color:#908F8F"/>
		<stop  offset="0.02" style="stop-color:#514F4F"/>
		<stop  offset="0.64" style="stop-color:#504E4E"/>
		<stop  offset="0.99" style="stop-color:#4E4C4C"/>
		<stop  offset="1" style="stop-color:#383636"/>
	</linearGradient>
	<path fill="url(#SVGID_22_)" d="M515.812,518.035h49.5l-9,28.5c0,0-4.395,6.359-15.594,6.359
		c-13.656-0.359-16.016-6.047-16.016-6.047L515.812,518.035z"/>
	
		<radialGradient id="SVGID_23_" cx="235.2236" cy="192.1001" r="34.2611" gradientTransform="matrix(0.75 0 0 -0.75 364.1288 668.7013)" gradientUnits="userSpaceOnUse">
		<stop  offset="0" style="stop-color:#3C3736"/>
		<stop  offset="0.54" style="stop-color:#3B3635"/>
		<stop  offset="0.74" style="stop-color:#5B5858"/>
		<stop  offset="0.91" style="stop-color:#3B3635"/>
		<stop  offset="1" style="stop-color:#3B3635"/>
	</radialGradient>
	<path fill="url(#SVGID_23_)" stroke="#3E3938" stroke-width="0.25" stroke-linejoin="bevel" stroke-miterlimit="10" d="
		M565.296,517.722c-5.25,8.25-14.441,13.809-24.859,13.809c-10.391-0.309-19.59-5.539-24.641-13.809h49.281H565.296z"/>
	
		<linearGradient id="SVGID_24_" gradientUnits="userSpaceOnUse" x1="222.4312" y1="189.73" x2="202.2231" y2="189.73" gradientTransform="matrix(0.75 0 0 -0.75 381.1913 677.8322)">
		<stop  offset="0" style="stop-color:#4E4D4D"/>
		<stop  offset="0.01" style="stop-color:#9C9B9B"/>
		<stop  offset="0.02" style="stop-color:#686767"/>
		<stop  offset="0.64" style="stop-color:#666565"/>
		<stop  offset="0.99" style="stop-color:#636262"/>
		<stop  offset="1" style="stop-color:#484747"/>
	</linearGradient>
	<path fill="url(#SVGID_24_)" d="M533.609,526.855h14.25c0,0,0.156,0.176,0.156,0.391l-0.156,16.859c0,0-0.02,0.109-0.238,0.109
		l-14.012-0.109c-0.75,0-0.75-0.066-0.75-0.285v-16.215c0-0.75,0.176-0.75,0.395-0.75H533.609z"/>
	
		<radialGradient id="SVGID_25_" cx="209.3418" cy="194.2056" r="10.0503" gradientTransform="matrix(0.75 0 0 -0.75 383.4325 681.1964)" gradientUnits="userSpaceOnUse">
		<stop  offset="0" style="stop-color:#565454"/>
		<stop  offset="0.54" style="stop-color:#555353"/>
		<stop  offset="0.74" style="stop-color:#6D6C6C"/>
		<stop  offset="0.91" style="stop-color:#555353"/>
		<stop  offset="1" style="stop-color:#555353"/>
	</radialGradient>
	<path fill="url(#SVGID_25_)" stroke="#595757" stroke-width="0.25" stroke-linejoin="bevel" stroke-miterlimit="10" d="
		M535.101,535.468c0-3,2.391-5.25,5.336-5.25c2.914,0,5.34,2.383,5.34,5.324c-0.176,2.926-2.391,5.324-5.34,5.324
		c-3.086-0.148-5.336-2.383-5.336-5.324V535.468z"/>
	<path fill="#3E3938" stroke="#3E3938" stroke-width="0.25" stroke-linejoin="bevel" stroke-miterlimit="10" d="M461.468,536.402
		c0-14.25,11.875-26.25,26.523-26.25c14.727,0,26.523,11.855,26.523,26.48c0.203,14.77-11.875,26.48-26.523,26.48
		c-14.523,0.289-26.523-11.855-26.523-26.48V536.402z"/>
	
		<radialGradient id="SVGID_26_" cx="233.209" cy="170.394" r="43.7652" gradientTransform="matrix(0.75 0 0 -0.75 313.0848 664.4279)" gradientUnits="userSpaceOnUse">
		<stop  offset="0" style="stop-color:#3C3736"/>
		<stop  offset="0.54" style="stop-color:#3B3635"/>
		<stop  offset="0.74" style="stop-color:#5B5858"/>
		<stop  offset="0.91" style="stop-color:#3B3635"/>
		<stop  offset="1" style="stop-color:#3B3635"/>
	</radialGradient>
	<path fill="url(#SVGID_26_)" stroke="#3E3938" stroke-width="0.25" stroke-linejoin="bevel" stroke-miterlimit="10" d="
		M464.753,536.699c0-12.75,10.402-23.25,23.238-23.25c12.762,0,23.238,10.379,23.238,23.184
		c0.023,12.816-10.406,23.184-23.238,23.184c-12.738,0.133-23.238-10.379-23.238-23.184V536.699z"/>
	
		<linearGradient id="SVGID_27_" gradientUnits="userSpaceOnUse" x1="268.2236" y1="178.0659" x2="202.2236" y2="178.0659" gradientTransform="matrix(0.75 0 0 -0.75 311.6952 669.0128)">
		<stop  offset="0" style="stop-color:#3D3B3B"/>
		<stop  offset="0.01" style="stop-color:#908F8F"/>
		<stop  offset="0.02" style="stop-color:#514F4F"/>
		<stop  offset="0.64" style="stop-color:#504E4E"/>
		<stop  offset="0.99" style="stop-color:#4E4C4C"/>
		<stop  offset="1" style="stop-color:#383636"/>
	</linearGradient>
	<path fill="url(#SVGID_27_)" d="M463.363,518.035h49.5l-9,28.5c0,0-4.395,6.359-15.59,6.359
		c-13.66-0.359-16.016-6.047-16.016-6.047L463.363,518.035z"/>
	
		<radialGradient id="SVGID_28_" cx="235.2251" cy="192.1001" r="34.2596" gradientTransform="matrix(0.75 0 0 -0.75 311.6825 668.7013)" gradientUnits="userSpaceOnUse">
		<stop  offset="0" style="stop-color:#3C3736"/>
		<stop  offset="0.54" style="stop-color:#3B3635"/>
		<stop  offset="0.74" style="stop-color:#5B5858"/>
		<stop  offset="0.91" style="stop-color:#3B3635"/>
		<stop  offset="1" style="stop-color:#3B3635"/>
	</radialGradient>
	<path fill="url(#SVGID_28_)" stroke="#3E3938" stroke-width="0.25" stroke-linejoin="bevel" stroke-miterlimit="10" d="
		M512.851,517.722c-5.25,8.25-14.445,13.809-24.859,13.809c-10.391-0.309-19.594-5.539-24.641-13.809h49.281H512.851z"/>
	
		<linearGradient id="SVGID_29_" gradientUnits="userSpaceOnUse" x1="222.4326" y1="189.73" x2="202.2246" y2="189.73" gradientTransform="matrix(0.75 0 0 -0.75 328.745 677.8322)">
		<stop  offset="0" style="stop-color:#4E4D4D"/>
		<stop  offset="0.01" style="stop-color:#9C9B9B"/>
		<stop  offset="0.02" style="stop-color:#686767"/>
		<stop  offset="0.64" style="stop-color:#666565"/>
		<stop  offset="0.99" style="stop-color:#636262"/>
		<stop  offset="1" style="stop-color:#484747"/>
	</linearGradient>
	<path fill="url(#SVGID_29_)" d="M481.164,526.855h14.25c0,0,0.156,0.176,0.156,0.391l-0.156,16.859c0,0-0.02,0.109-0.238,0.109
		l-14.012-0.109c-0.75,0-0.75-0.066-0.75-0.285v-16.215c0-0.75,0.176-0.75,0.395-0.75H481.164z"/>
	
		<radialGradient id="SVGID_30_" cx="209.3423" cy="194.2056" r="10.0507" gradientTransform="matrix(0.75 0 0 -0.75 330.9852 681.1964)" gradientUnits="userSpaceOnUse">
		<stop  offset="0" style="stop-color:#565454"/>
		<stop  offset="0.54" style="stop-color:#555353"/>
		<stop  offset="0.74" style="stop-color:#6D6C6C"/>
		<stop  offset="0.91" style="stop-color:#555353"/>
		<stop  offset="1" style="stop-color:#555353"/>
	</radialGradient>
	<path fill="url(#SVGID_30_)" stroke="#595757" stroke-width="0.25" stroke-linejoin="bevel" stroke-miterlimit="10" d="
		M482.656,535.468c0-3,2.387-5.25,5.336-5.25c2.914,0,5.336,2.383,5.336,5.324c-0.172,2.926-2.391,5.324-5.336,5.324
		c-3.086-0.148-5.336-2.383-5.336-5.324V535.468z"/>
	<path fill="#3E3938" stroke="#3E3938" stroke-width="0.25" stroke-linejoin="bevel" stroke-miterlimit="10" d="M61,536.402
		c0-14.25,11.875-26.25,26.523-26.25c14.727,0,26.523,11.855,26.523,26.48c0.203,14.77-11.875,26.48-26.523,26.48
		C73,563.402,61,551.257,61,536.632V536.402z"/>
	
		<radialGradient id="SVGID_31_" cx="233.2075" cy="170.394" r="43.7676" gradientTransform="matrix(0.75 0 0 -0.75 -87.382 664.4279)" gradientUnits="userSpaceOnUse">
		<stop  offset="0" style="stop-color:#3C3736"/>
		<stop  offset="0.54" style="stop-color:#3B3635"/>
		<stop  offset="0.74" style="stop-color:#5B5858"/>
		<stop  offset="0.91" style="stop-color:#3B3635"/>
		<stop  offset="1" style="stop-color:#3B3635"/>
	</radialGradient>
	<path fill="url(#SVGID_31_)" stroke="#3E3938" stroke-width="0.25" stroke-linejoin="bevel" stroke-miterlimit="10" d="
		M64.285,536.699c0-12.75,10.406-23.25,23.238-23.25c12.762,0,23.238,10.379,23.238,23.184
		c0.023,12.816-10.402,23.184-23.238,23.184c-12.738,0.133-23.238-10.379-23.238-23.184V536.699z"/>
	
		<linearGradient id="SVGID_32_" gradientUnits="userSpaceOnUse" x1="268.2256" y1="178.0659" x2="202.2256" y2="178.0659" gradientTransform="matrix(0.75 0 0 -0.75 -88.7711 669.0128)">
		<stop  offset="0" style="stop-color:#3D3B3B"/>
		<stop  offset="0.01" style="stop-color:#908F8F"/>
		<stop  offset="0.02" style="stop-color:#514F4F"/>
		<stop  offset="0.64" style="stop-color:#504E4E"/>
		<stop  offset="0.99" style="stop-color:#4E4C4C"/>
		<stop  offset="1" style="stop-color:#383636"/>
	</linearGradient>
	<path fill="url(#SVGID_32_)" d="M62.898,518.035h49.5l-9,28.5c0,0-4.395,6.359-15.594,6.359
		c-13.656-0.359-16.016-6.047-16.016-6.047L62.898,518.035z"/>
	
		<radialGradient id="SVGID_33_" cx="235.2231" cy="192.1001" r="34.2615" gradientTransform="matrix(0.75 0 0 -0.75 -88.7843 668.7013)" gradientUnits="userSpaceOnUse">
		<stop  offset="0" style="stop-color:#3C3736"/>
		<stop  offset="0.54" style="stop-color:#3B3635"/>
		<stop  offset="0.74" style="stop-color:#5B5858"/>
		<stop  offset="0.91" style="stop-color:#3B3635"/>
		<stop  offset="1" style="stop-color:#3B3635"/>
	</radialGradient>
	<path fill="url(#SVGID_33_)" stroke="#3E3938" stroke-width="0.25" stroke-linejoin="bevel" stroke-miterlimit="10" d="
		M112.383,517.722c-5.25,8.25-14.441,13.809-24.859,13.809c-10.391-0.309-19.59-5.539-24.641-13.809h49.281H112.383z"/>
	
		<linearGradient id="SVGID_34_" gradientUnits="userSpaceOnUse" x1="222.4307" y1="189.73" x2="202.2275" y2="189.73" gradientTransform="matrix(0.75 0 0 -0.75 -71.7218 677.8322)">
		<stop  offset="0" style="stop-color:#4E4D4D"/>
		<stop  offset="0.01" style="stop-color:#9C9B9B"/>
		<stop  offset="0.02" style="stop-color:#686767"/>
		<stop  offset="0.64" style="stop-color:#666565"/>
		<stop  offset="0.99" style="stop-color:#636262"/>
		<stop  offset="1" style="stop-color:#484747"/>
	</linearGradient>
	<path fill="url(#SVGID_34_)" d="M80.699,526.855h14.25c0,0,0.152,0.176,0.152,0.391l-0.152,16.859c0,0-0.023,0.109-0.238,0.109
		l-14.012-0.109c-0.75,0-0.75-0.066-0.75-0.285v-16.215c0-0.75,0.176-0.75,0.391-0.75H80.699z"/>
	
		<radialGradient id="SVGID_35_" cx="209.3418" cy="194.2056" r="10.051" gradientTransform="matrix(0.75 0 0 -0.75 -69.4811 681.1964)" gradientUnits="userSpaceOnUse">
		<stop  offset="0" style="stop-color:#565454"/>
		<stop  offset="0.54" style="stop-color:#555353"/>
		<stop  offset="0.74" style="stop-color:#6D6C6C"/>
		<stop  offset="0.91" style="stop-color:#555353"/>
		<stop  offset="1" style="stop-color:#555353"/>
	</radialGradient>
	<path fill="url(#SVGID_35_)" stroke="#595757" stroke-width="0.25" stroke-linejoin="bevel" stroke-miterlimit="10" d="
		M82.188,535.468c0-3,2.391-5.25,5.336-5.25c2.914,0,5.34,2.383,5.34,5.324c-0.176,2.926-2.391,5.324-5.34,5.324
		c-3.086-0.148-5.336-2.383-5.336-5.324V535.468z"/>
	<path fill="#3E3938" stroke="#3E3938" stroke-width="0.25" stroke-linejoin="bevel" stroke-miterlimit="10" d="M8.555,536.402
		c0-14.25,11.875-26.25,26.523-26.25c14.727,0,26.523,11.855,26.523,26.48c0.203,14.77-11.875,26.48-26.523,26.48
		c-14.523,0.289-26.523-11.855-26.523-26.48V536.402z"/>
	
		<radialGradient id="SVGID_36_" cx="233.209" cy="170.394" r="43.7659" gradientTransform="matrix(0.75 0 0 -0.75 -139.8287 664.4279)" gradientUnits="userSpaceOnUse">
		<stop  offset="0" style="stop-color:#3C3736"/>
		<stop  offset="0.54" style="stop-color:#3B3635"/>
		<stop  offset="0.74" style="stop-color:#5B5858"/>
		<stop  offset="0.91" style="stop-color:#3B3635"/>
		<stop  offset="1" style="stop-color:#3B3635"/>
	</radialGradient>
	<path fill="url(#SVGID_36_)" stroke="#3E3938" stroke-width="0.25" stroke-linejoin="bevel" stroke-miterlimit="10" d="
		M11.84,536.699c0-12.75,10.406-23.25,23.238-23.25c12.762,0,23.238,10.379,23.238,23.184c0.023,12.816-10.402,23.184-23.238,23.184
		c-12.738,0.133-23.238-10.379-23.238-23.184V536.699z"/>
	
		<linearGradient id="SVGID_37_" gradientUnits="userSpaceOnUse" x1="268.2227" y1="178.0659" x2="202.2227" y2="178.0659" gradientTransform="matrix(0.75 0 0 -0.75 -141.2179 669.0128)">
		<stop  offset="0" style="stop-color:#3D3B3B"/>
		<stop  offset="0.01" style="stop-color:#908F8F"/>
		<stop  offset="0.02" style="stop-color:#514F4F"/>
		<stop  offset="0.64" style="stop-color:#504E4E"/>
		<stop  offset="0.99" style="stop-color:#4E4C4C"/>
		<stop  offset="1" style="stop-color:#383636"/>
	</linearGradient>
	<path fill="url(#SVGID_37_)" d="M10.449,518.035h49.5l-9,28.5c0,0-4.391,6.359-15.59,6.359c-13.66-0.359-16.016-6.047-16.016-6.047
		L10.449,518.035z"/>
	
		<radialGradient id="SVGID_38_" cx="235.2251" cy="192.1001" r="34.2606" gradientTransform="matrix(0.75 0 0 -0.75 -141.2311 668.7013)" gradientUnits="userSpaceOnUse">
		<stop  offset="0" style="stop-color:#3C3736"/>
		<stop  offset="0.54" style="stop-color:#3B3635"/>
		<stop  offset="0.74" style="stop-color:#5B5858"/>
		<stop  offset="0.91" style="stop-color:#3B3635"/>
		<stop  offset="1" style="stop-color:#3B3635"/>
	</radialGradient>
	<path fill="url(#SVGID_38_)" stroke="#3E3938" stroke-width="0.25" stroke-linejoin="bevel" stroke-miterlimit="10" d="
		M59.938,517.722c-5.25,8.25-14.441,13.809-24.859,13.809c-10.391-0.309-19.59-5.539-24.641-13.809h49.281H59.938z"/>
	
		<linearGradient id="SVGID_39_" gradientUnits="userSpaceOnUse" x1="222.4326" y1="189.73" x2="202.2246" y2="189.73" gradientTransform="matrix(0.75 0 0 -0.75 -124.1686 677.8322)">
		<stop  offset="0" style="stop-color:#4E4D4D"/>
		<stop  offset="0.01" style="stop-color:#9C9B9B"/>
		<stop  offset="0.02" style="stop-color:#686767"/>
		<stop  offset="0.64" style="stop-color:#666565"/>
		<stop  offset="0.99" style="stop-color:#636262"/>
		<stop  offset="1" style="stop-color:#484747"/>
	</linearGradient>
	<path fill="url(#SVGID_39_)" d="M28.25,526.855H42.5c0,0,0.156,0.176,0.156,0.391L42.5,544.105c0,0-0.02,0.109-0.238,0.109
		l-14.012-0.109c-0.75,0-0.75-0.066-0.75-0.285v-16.215c0-0.75,0.176-0.75,0.395-0.75H28.25z"/>
	
		<radialGradient id="SVGID_40_" cx="209.3418" cy="194.2056" r="10.0517" gradientTransform="matrix(0.75 0 0 -0.75 -121.9279 681.1964)" gradientUnits="userSpaceOnUse">
		<stop  offset="0" style="stop-color:#565454"/>
		<stop  offset="0.54" style="stop-color:#555353"/>
		<stop  offset="0.74" style="stop-color:#6D6C6C"/>
		<stop  offset="0.91" style="stop-color:#555353"/>
		<stop  offset="1" style="stop-color:#555353"/>
	</radialGradient>
	<path fill="url(#SVGID_40_)" stroke="#595757" stroke-width="0.25" stroke-linejoin="bevel" stroke-miterlimit="10" d="
		M29.742,535.468c0-3,2.387-5.25,5.336-5.25c2.914,0,5.336,2.383,5.336,5.324c-0.172,2.926-2.387,5.324-5.336,5.324
		c-3.086-0.148-5.336-2.383-5.336-5.324V535.468z"/>
	
		<linearGradient id="SVGID_41_" gradientUnits="userSpaceOnUse" x1="747.2222" y1="82.8032" x2="202.2231" y2="82.8032" gradientTransform="matrix(0.75 0 0 -0.75 6.3944 489.8751)">
		<stop  offset="0" style="stop-color:#666971"/>
		<stop  offset="0.02" style="stop-color:#B0B2BA"/>
		<stop  offset="0.05" style="stop-color:#878A95"/>
		<stop  offset="0.64" style="stop-color:#858792"/>
		<stop  offset="0.95" style="stop-color:#82848F"/>
		<stop  offset="1" style="stop-color:#5F6169"/>
	</linearGradient>
	<path fill="url(#SVGID_41_)" d="M158.063,338.898h408.75v177.75h-408.75V338.898z"/>
	
		<linearGradient id="SVGID_42_" gradientUnits="userSpaceOnUse" x1="468.2241" y1="115.3057" x2="202.2241" y2="115.3056" gradientTransform="matrix(0.75 0 0 -0.75 -151.7037 538.5724)">
		<stop  offset="0" style="stop-color:#B38221"/>
		<stop  offset="0.03" style="stop-color:#FDCA83"/>
		<stop  offset="0.05" style="stop-color:#E9AA2E"/>
		<stop  offset="0.64" style="stop-color:#E5A72D"/>
		<stop  offset="0.95" style="stop-color:#E0A32C"/>
		<stop  offset="1" style="stop-color:#A6781E"/>
	</linearGradient>
	<path fill="url(#SVGID_42_)" d="M-0.035,387.593h199.5v129h-199.5V387.593z"/>
	
		<linearGradient id="SVGID_43_" gradientUnits="userSpaceOnUse" x1="307.2261" y1="201.3047" x2="307.2261" y2="160.3047" gradientTransform="matrix(0.75 0 0 -0.75 -151.7047 538.5714)">
		<stop  offset="0" style="stop-color:#555454"/>
		<stop  offset="0.01" style="stop-color:#737272"/>
		<stop  offset="0.15" style="stop-color:#979696"/>
		<stop  offset="0.61" style="stop-color:#626161"/>
		<stop  offset="1" style="stop-color:#565656"/>
	</linearGradient>
	<path fill="url(#SVGID_43_)" d="M-0.035,387.593h157.5v30.75h-157.5V387.593z"/>
	
		<linearGradient id="SVGID_44_" gradientUnits="userSpaceOnUse" x1="275.2236" y1="82.8027" x2="202.2236" y2="82.8027" gradientTransform="matrix(0.75 0 0 -0.75 6.3944 489.8751)">
		<stop  offset="0" style="stop-color:#B38221"/>
		<stop  offset="0.03" style="stop-color:#FDCA83"/>
		<stop  offset="0.05" style="stop-color:#E9AA2E"/>
		<stop  offset="0.64" style="stop-color:#E5A72D"/>
		<stop  offset="0.95" style="stop-color:#E0A32C"/>
		<stop  offset="1" style="stop-color:#A6781E"/>
	</linearGradient>
	<path fill="url(#SVGID_44_)" d="M158.063,338.898h54.75v177.75h-54.75V338.898z"/>
	
		<linearGradient id="SVGID_45_" gradientUnits="userSpaceOnUse" x1="225.2251" y1="115.3057" x2="202.2251" y2="115.3057" gradientTransform="matrix(0.75 0 0 -0.75 -151.7042 538.5724)">
		<stop  offset="0" style="stop-color:#B38221"/>
		<stop  offset="0.03" style="stop-color:#FDCA83"/>
		<stop  offset="0.05" style="stop-color:#E9AA2E"/>
		<stop  offset="0.64" style="stop-color:#E5A72D"/>
		<stop  offset="0.95" style="stop-color:#E0A32C"/>
		<stop  offset="1" style="stop-color:#A6781E"/>
	</linearGradient>
	<path fill="url(#SVGID_45_)" d="M-0.035,387.593h17.25v129h-17.25V387.593z"/>
	
		<linearGradient id="SVGID_46_" gradientUnits="userSpaceOnUse" x1="275.2236" y1="159.8047" x2="202.2236" y2="159.8047" gradientTransform="matrix(0.75 0 0 -0.75 -121.5353 579.5597)">
		<stop  offset="0" style="stop-color:#B57B00"/>
		<stop  offset="0.03" style="stop-color:#FFC37C"/>
		<stop  offset="0.05" style="stop-color:#EBA100"/>
		<stop  offset="0.64" style="stop-color:#E79E00"/>
		<stop  offset="0.95" style="stop-color:#E29B00"/>
		<stop  offset="1" style="stop-color:#A87200"/>
	</linearGradient>
	<path fill="url(#SVGID_46_)" d="M30.133,428.582h54.75v62.25h-54.75V428.582z"/>
	
		<linearGradient id="SVGID_47_" gradientUnits="userSpaceOnUse" x1="275.2266" y1="159.8047" x2="202.2266" y2="159.8047" gradientTransform="matrix(0.75 0 0 -0.75 -60.483 579.5597)">
		<stop  offset="0" style="stop-color:#B57B00"/>
		<stop  offset="0.03" style="stop-color:#FFC37C"/>
		<stop  offset="0.05" style="stop-color:#EBA100"/>
		<stop  offset="0.64" style="stop-color:#E79E00"/>
		<stop  offset="0.95" style="stop-color:#E29B00"/>
		<stop  offset="1" style="stop-color:#A87200"/>
	</linearGradient>
	<path fill="url(#SVGID_47_)" d="M91.188,428.582h54.75v62.25h-54.75V428.582z"/>
	<path fill="#595757" d="M162.738,374.812h45.75v43.5h-45.75V374.812z"/>
	
		<linearGradient id="SVGID_48_" gradientUnits="userSpaceOnUse" x1="469.2222" y1="201.3027" x2="469.2222" y2="158.3018" gradientTransform="matrix(0.75 0 0 -0.75 15.1337 489.8751)">
		<stop  offset="0" style="stop-color:#777A85"/>
		<stop  offset="0.01" style="stop-color:#979BA9"/>
		<stop  offset="0.15" style="stop-color:#B0B3BE"/>
		<stop  offset="0.61" style="stop-color:#898C99"/>
		<stop  offset="1" style="stop-color:#797C88"/>
	</linearGradient>
	<path fill="url(#SVGID_48_)" d="M166.801,338.898h400.5v32.25h-400.5V338.898z"/>
	<path fill="#CDE6C7" fill-opacity="0.5647" d="M166.617,378.511h38.25v36h-38.25V378.511z"/>
	
		<linearGradient id="SVGID_49_" gradientUnits="userSpaceOnUse" x1="337.2231" y1="178.8057" x2="202.2236" y2="178.8056" gradientTransform="matrix(0.75 0 0 -0.75 85.246 667.6193)">
		<stop  offset="0" style="stop-color:#3D3B3B"/>
		<stop  offset="0.03" style="stop-color:#908F8F"/>
		<stop  offset="0.05" style="stop-color:#514F4F"/>
		<stop  offset="0.64" style="stop-color:#504E4E"/>
		<stop  offset="0.95" style="stop-color:#4E4C4C"/>
		<stop  offset="1" style="stop-color:#383636"/>
	</linearGradient>
	<path fill="url(#SVGID_49_)" d="M236.914,516.64h101.25v33.75h-101.25V516.64z"/>
	
		<linearGradient id="SVGID_50_" gradientUnits="userSpaceOnUse" x1="337.2231" y1="190.3066" x2="202.2236" y2="190.3066" gradientTransform="matrix(0.75 0 0 -0.75 85.246 676.295)">
		<stop  offset="0" style="stop-color:#292525"/>
		<stop  offset="0.03" style="stop-color:#868584"/>
		<stop  offset="0.05" style="stop-color:#383433"/>
		<stop  offset="0.64" style="stop-color:#373332"/>
		<stop  offset="0.95" style="stop-color:#363130"/>
		<stop  offset="1" style="stop-color:#252221"/>
	</linearGradient>
	<path fill="url(#SVGID_50_)" d="M236.914,525.316h101.25v16.5h-101.25V525.316z"/>
	
		<linearGradient id="SVGID_51_" gradientUnits="userSpaceOnUse" x1="219.2241" y1="82.8066" x2="202.2241" y2="82.8066" gradientTransform="matrix(0.75 0 0 -0.75 402.2762 489.8732)">
		<stop  offset="0" style="stop-color:#B38221"/>
		<stop  offset="0.03" style="stop-color:#FDCA83"/>
		<stop  offset="0.05" style="stop-color:#E9AA2E"/>
		<stop  offset="0.64" style="stop-color:#E5A72D"/>
		<stop  offset="0.95" style="stop-color:#E0A32C"/>
		<stop  offset="1" style="stop-color:#A6781E"/>
	</linearGradient>
	<path fill="url(#SVGID_51_)" d="M553.945,338.894h12.75v177.75h-12.75V338.894z"/>
	
		<linearGradient id="SVGID_52_" gradientUnits="userSpaceOnUse" x1="958.2241" y1="189.3052" x2="202.2251" y2="189.3051" gradientTransform="matrix(0.75 0 0 -0.75 -151.7047 649.5626)">
		<stop  offset="0" style="stop-color:#A64B4E"/>
		<stop  offset="0.03" style="stop-color:#EF9A9C"/>
		<stop  offset="0.05" style="stop-color:#D86468"/>
		<stop  offset="0.64" style="stop-color:#D56266"/>
		<stop  offset="0.95" style="stop-color:#D06063"/>
		<stop  offset="1" style="stop-color:#9A4548"/>
	</linearGradient>
	<path fill="url(#SVGID_52_)" d="M-0.035,498.585h567v18h-567V498.585z"/>
	
		<linearGradient id="SVGID_53_" gradientUnits="userSpaceOnUse" x1="208.2275" y1="116.3047" x2="202.2275" y2="116.3047" gradientTransform="matrix(0.75 0 0 -0.75 104.2469 521.5284)">
		<stop  offset="0" style="stop-color:#7B7E89"/>
		<stop  offset="0.03" style="stop-color:#C3C5D1"/>
		<stop  offset="0.05" style="stop-color:#A1A5B3"/>
		<stop  offset="0.64" style="stop-color:#9EA2B0"/>
		<stop  offset="0.95" style="stop-color:#9B9EAC"/>
		<stop  offset="1" style="stop-color:#72747F"/>
	</linearGradient>
	<path fill="url(#SVGID_53_)" d="M255.918,370.55h4.5v127.5h-4.5V370.55z"/>
	
		<linearGradient id="SVGID_54_" gradientUnits="userSpaceOnUse" x1="208.2241" y1="116.3047" x2="202.2241" y2="116.3047" gradientTransform="matrix(0.75 0 0 -0.75 146.9364 521.5284)">
		<stop  offset="0" style="stop-color:#7B7E89"/>
		<stop  offset="0.03" style="stop-color:#C3C5D1"/>
		<stop  offset="0.05" style="stop-color:#A1A5B3"/>
		<stop  offset="0.64" style="stop-color:#9EA2B0"/>
		<stop  offset="0.95" style="stop-color:#9B9EAC"/>
		<stop  offset="1" style="stop-color:#72747F"/>
	</linearGradient>
	<path fill="url(#SVGID_54_)" d="M298.605,370.55h4.5v127.5h-4.5V370.55z"/>
	
		<linearGradient id="SVGID_55_" gradientUnits="userSpaceOnUse" x1="208.2256" y1="116.3047" x2="202.2256" y2="116.3047" gradientTransform="matrix(0.75 0 0 -0.75 189.6268 521.5284)">
		<stop  offset="0" style="stop-color:#7B7E89"/>
		<stop  offset="0.03" style="stop-color:#C3C5D1"/>
		<stop  offset="0.05" style="stop-color:#A1A5B3"/>
		<stop  offset="0.64" style="stop-color:#9EA2B0"/>
		<stop  offset="0.95" style="stop-color:#9B9EAC"/>
		<stop  offset="1" style="stop-color:#72747F"/>
	</linearGradient>
	<path fill="url(#SVGID_55_)" d="M341.296,370.55h4.5v127.5h-4.5V370.55z"/>
	
		<linearGradient id="SVGID_56_" gradientUnits="userSpaceOnUse" x1="208.2231" y1="116.3047" x2="202.2231" y2="116.3047" gradientTransform="matrix(0.75 0 0 -0.75 232.3163 521.5284)">
		<stop  offset="0" style="stop-color:#7B7E89"/>
		<stop  offset="0.03" style="stop-color:#C3C5D1"/>
		<stop  offset="0.05" style="stop-color:#A1A5B3"/>
		<stop  offset="0.64" style="stop-color:#9EA2B0"/>
		<stop  offset="0.95" style="stop-color:#9B9EAC"/>
		<stop  offset="1" style="stop-color:#72747F"/>
	</linearGradient>
	<path fill="url(#SVGID_56_)" d="M383.984,370.55h4.5v127.5h-4.5V370.55z"/>
	
		<linearGradient id="SVGID_57_" gradientUnits="userSpaceOnUse" x1="208.2256" y1="116.3047" x2="202.2256" y2="116.3047" gradientTransform="matrix(0.75 0 0 -0.75 275.0057 521.5284)">
		<stop  offset="0" style="stop-color:#7B7E89"/>
		<stop  offset="0.03" style="stop-color:#C3C5D1"/>
		<stop  offset="0.05" style="stop-color:#A1A5B3"/>
		<stop  offset="0.64" style="stop-color:#9EA2B0"/>
		<stop  offset="0.95" style="stop-color:#9B9EAC"/>
		<stop  offset="1" style="stop-color:#72747F"/>
	</linearGradient>
	<path fill="url(#SVGID_57_)" d="M426.675,370.55h4.5v127.5h-4.5V370.55z"/>
	
		<linearGradient id="SVGID_58_" gradientUnits="userSpaceOnUse" x1="208.2236" y1="116.3047" x2="202.2236" y2="116.3047" gradientTransform="matrix(0.75 0 0 -0.75 317.6952 521.5284)">
		<stop  offset="0" style="stop-color:#7B7E89"/>
		<stop  offset="0.03" style="stop-color:#C3C5D1"/>
		<stop  offset="0.05" style="stop-color:#A1A5B3"/>
		<stop  offset="0.64" style="stop-color:#9EA2B0"/>
		<stop  offset="0.95" style="stop-color:#9B9EAC"/>
		<stop  offset="1" style="stop-color:#72747F"/>
	</linearGradient>
	<path fill="url(#SVGID_58_)" d="M469.363,370.55h4.5v127.5h-4.5V370.55z"/>
	
		<linearGradient id="SVGID_59_" gradientUnits="userSpaceOnUse" x1="208.2261" y1="116.3047" x2="202.2261" y2="116.3047" gradientTransform="matrix(0.75 0 0 -0.75 360.3846 521.5284)">
		<stop  offset="0" style="stop-color:#7B7E89"/>
		<stop  offset="0.03" style="stop-color:#C3C5D1"/>
		<stop  offset="0.05" style="stop-color:#A1A5B3"/>
		<stop  offset="0.64" style="stop-color:#9EA2B0"/>
		<stop  offset="0.95" style="stop-color:#9B9EAC"/>
		<stop  offset="1" style="stop-color:#72747F"/>
	</linearGradient>
	<path fill="url(#SVGID_59_)" d="M512.054,370.55h4.5v127.5h-4.5V370.55z"/>
	
		<linearGradient id="SVGID_60_" gradientUnits="userSpaceOnUse" x1="234.2261" y1="195.3066" x2="202.2261" y2="195.3066" gradientTransform="matrix(0.75 0 0 -0.75 38.5878 480.6427)">
		<stop  offset="0" style="stop-color:#666971"/>
		<stop  offset="0.02" style="stop-color:#B0B2BA"/>
		<stop  offset="0.05" style="stop-color:#878A95"/>
		<stop  offset="0.64" style="stop-color:#858792"/>
		<stop  offset="0.95" style="stop-color:#82848F"/>
		<stop  offset="1" style="stop-color:#5F6169"/>
	</linearGradient>
	<path fill="url(#SVGID_60_)" d="M190.258,329.664h24v9h-24V329.664z"/>
	
		<linearGradient id="SVGID_61_" gradientUnits="userSpaceOnUse" x1="234.2275" y1="195.3066" x2="202.2275" y2="195.3066" gradientTransform="matrix(0.75 0 0 -0.75 84.7469 480.6427)">
		<stop  offset="0" style="stop-color:#666971"/>
		<stop  offset="0.02" style="stop-color:#B0B2BA"/>
		<stop  offset="0.05" style="stop-color:#878A95"/>
		<stop  offset="0.64" style="stop-color:#858792"/>
		<stop  offset="0.95" style="stop-color:#82848F"/>
		<stop  offset="1" style="stop-color:#5F6169"/>
	</linearGradient>
	<path fill="url(#SVGID_61_)" d="M236.418,329.664h24v9h-24V329.664z"/>
	
		<linearGradient id="SVGID_62_" gradientUnits="userSpaceOnUse" x1="234.2275" y1="195.3066" x2="202.2275" y2="195.3066" gradientTransform="matrix(0.75 0 0 -0.75 130.9071 480.6427)">
		<stop  offset="0" style="stop-color:#666971"/>
		<stop  offset="0.02" style="stop-color:#B0B2BA"/>
		<stop  offset="0.05" style="stop-color:#878A95"/>
		<stop  offset="0.64" style="stop-color:#858792"/>
		<stop  offset="0.95" style="stop-color:#82848F"/>
		<stop  offset="1" style="stop-color:#5F6169"/>
	</linearGradient>
	<path fill="url(#SVGID_62_)" d="M282.578,329.664h24v9h-24V329.664z"/>
	
		<linearGradient id="SVGID_63_" gradientUnits="userSpaceOnUse" x1="234.2227" y1="195.3066" x2="202.2227" y2="195.3066" gradientTransform="matrix(0.75 0 0 -0.75 177.0663 480.6427)">
		<stop  offset="0" style="stop-color:#666971"/>
		<stop  offset="0.02" style="stop-color:#B0B2BA"/>
		<stop  offset="0.05" style="stop-color:#878A95"/>
		<stop  offset="0.64" style="stop-color:#858792"/>
		<stop  offset="0.95" style="stop-color:#82848F"/>
		<stop  offset="1" style="stop-color:#5F6169"/>
	</linearGradient>
	<path fill="url(#SVGID_63_)" d="M328.734,329.664h24v9h-24V329.664z"/>
	
		<linearGradient id="SVGID_64_" gradientUnits="userSpaceOnUse" x1="234.2227" y1="195.3066" x2="202.2227" y2="195.3066" gradientTransform="matrix(0.75 0 0 -0.75 223.2264 480.6427)">
		<stop  offset="0" style="stop-color:#666971"/>
		<stop  offset="0.02" style="stop-color:#B0B2BA"/>
		<stop  offset="0.05" style="stop-color:#878A95"/>
		<stop  offset="0.64" style="stop-color:#858792"/>
		<stop  offset="0.95" style="stop-color:#82848F"/>
		<stop  offset="1" style="stop-color:#5F6169"/>
	</linearGradient>
	<path fill="url(#SVGID_64_)" d="M374.894,329.664h24v9h-24V329.664z"/>
	
		<linearGradient id="SVGID_65_" gradientUnits="userSpaceOnUse" x1="234.2227" y1="195.3066" x2="202.2227" y2="195.3066" gradientTransform="matrix(0.75 0 0 -0.75 269.3866 480.6427)">
		<stop  offset="0" style="stop-color:#666971"/>
		<stop  offset="0.02" style="stop-color:#B0B2BA"/>
		<stop  offset="0.05" style="stop-color:#878A95"/>
		<stop  offset="0.64" style="stop-color:#858792"/>
		<stop  offset="0.95" style="stop-color:#82848F"/>
		<stop  offset="1" style="stop-color:#5F6169"/>
	</linearGradient>
	<path fill="url(#SVGID_65_)" d="M421.054,329.664h24v9h-24V329.664z"/>
	
		<linearGradient id="SVGID_66_" gradientUnits="userSpaceOnUse" x1="234.2241" y1="195.3066" x2="202.2241" y2="195.3066" gradientTransform="matrix(0.75 0 0 -0.75 315.5458 480.6427)">
		<stop  offset="0" style="stop-color:#666971"/>
		<stop  offset="0.02" style="stop-color:#B0B2BA"/>
		<stop  offset="0.05" style="stop-color:#878A95"/>
		<stop  offset="0.64" style="stop-color:#858792"/>
		<stop  offset="0.95" style="stop-color:#82848F"/>
		<stop  offset="1" style="stop-color:#5F6169"/>
	</linearGradient>
	<path fill="url(#SVGID_66_)" d="M467.214,329.664h24v9h-24V329.664z"/>
	
		<linearGradient id="SVGID_67_" gradientUnits="userSpaceOnUse" x1="234.2241" y1="195.3066" x2="202.2241" y2="195.3066" gradientTransform="matrix(0.75 0 0 -0.75 361.7059 480.6427)">
		<stop  offset="0" style="stop-color:#666971"/>
		<stop  offset="0.02" style="stop-color:#B0B2BA"/>
		<stop  offset="0.05" style="stop-color:#878A95"/>
		<stop  offset="0.64" style="stop-color:#858792"/>
		<stop  offset="0.95" style="stop-color:#82848F"/>
		<stop  offset="1" style="stop-color:#5F6169"/>
	</linearGradient>
	<path fill="url(#SVGID_67_)" d="M513.375,329.664h24v9h-24V329.664z"/>
</g>
</svg>
