<?xml version="1.0" encoding="utf-8"?>
<!-- Generator: Adobe Illustrator 16.0.0, SVG Export Plug-In . SVG Version: 6.00 Build 0)  -->
<!DOCTYPE svg PUBLIC "-//W3C//DTD SVG 1.1//EN" "http://www.w3.org/Graphics/SVG/1.1/DTD/svg11.dtd">
<svg preserveAspectRatio="none"   version="1.1" id="图层_1" xmlns="http://www.w3.org/2000/svg" xmlns:xlink="http://www.w3.org/1999/xlink" x="0px" y="0px"
	 width="565.909px" height="266.276px" viewBox="-0.124 300.684 565.909 266.276"
	 enable-background="new -0.124 300.684 565.909 266.276" xml:space="preserve">
<g id="surface431">
	<path fill="#EACD98" d="M324.972,511.312h-132c0,0-0.75,0.113-0.75-0.379v-25.871h132.75V511.312z"/>
	
		<linearGradient id="SVGID_1_" gradientUnits="userSpaceOnUse" x1="227.2261" y1="201.3018" x2="227.2261" y2="156.3018" gradientTransform="matrix(0.75 0 0 -0.75 246.4706 572.839)">
		<stop  offset="0" style="stop-color:#A3A3A4"/>
		<stop  offset="0.15" style="stop-color:#DEDEDF"/>
		<stop  offset="0.25" style="stop-color:#EDEDED"/>
		<stop  offset="0.52" style="stop-color:#C0C0C1"/>
		<stop  offset="0.69" style="stop-color:#ABABAC"/>
		<stop  offset="0.8" style="stop-color:#A1A1A2"/>
		<stop  offset="0.92" style="stop-color:#989899"/>
		<stop  offset="1" style="stop-color:#AFAFB0"/>
	</linearGradient>
	<path fill="url(#SVGID_1_)" d="M398.14,421.863h37.5v33.75h-37.5V421.863z"/>
	
		<linearGradient id="SVGID_2_" gradientUnits="userSpaceOnUse" x1="227.2246" y1="201.3047" x2="227.2246" y2="144.3047" gradientTransform="matrix(0.75 0 0 -0.75 230.0184 567.8693)">
		<stop  offset="0" style="stop-color:#747575"/>
		<stop  offset="0.15" style="stop-color:#A6A7A7"/>
		<stop  offset="0.25" style="stop-color:#D1D1D1"/>
		<stop  offset="0.52" style="stop-color:#8A8B8B"/>
		<stop  offset="0.69" style="stop-color:#7A7B7B"/>
		<stop  offset="0.8" style="stop-color:#737474"/>
		<stop  offset="0.92" style="stop-color:#6C6D6D"/>
		<stop  offset="1" style="stop-color:#7D7E7E"/>
	</linearGradient>
	<path fill="url(#SVGID_2_)" d="M381.687,416.89h37.5v42.75h-37.5V416.89z"/>
	
		<linearGradient id="SVGID_3_" gradientUnits="userSpaceOnUse" x1="252.3638" y1="208.0967" x2="217.5563" y2="78.1935" gradientTransform="matrix(0.75 0 0 -0.75 -151.7858 451.5587)">
		<stop  offset="0" style="stop-color:#BDA47F"/>
		<stop  offset="0.21" style="stop-color:#FFE0B3"/>
		<stop  offset="0.41" style="stop-color:#FFE7C7"/>
		<stop  offset="0.6" style="stop-color:#DFC297"/>
		<stop  offset="0.76" style="stop-color:#C7AD86"/>
		<stop  offset="1" style="stop-color:#BCA37E"/>
	</linearGradient>
	<path fill="url(#SVGID_3_)" d="M56.883,310.332l-15.75-7.5c0,0-13.168-5.758-21.004,1.582
		c-7.496,7.418-24.676,32.055-19.191,73.828c-0.305,0.34,1.172,8.043,5.484,10.047l21.961,1.543L56.883,310.332z"/>
	<path fill="#EACD98" d="M440.207,523.527h-70.5c0,0-0.75,0.016-0.75-0.742v-39.758h71.25V523.527z"/>
	
		<linearGradient id="SVGID_4_" gradientUnits="userSpaceOnUse" x1="247.7256" y1="201.3057" x2="247.7256" y2="155.3047" gradientTransform="matrix(0.75 0 0 -0.75 304.7606 642.9386)">
		<stop  offset="0" style="stop-color:#292525"/>
		<stop  offset="0.01" style="stop-color:#868584"/>
		<stop  offset="0.02" style="stop-color:#383433"/>
		<stop  offset="0.64" style="stop-color:#373332"/>
		<stop  offset="0.99" style="stop-color:#363130"/>
		<stop  offset="1" style="stop-color:#252221"/>
	</linearGradient>
	<path fill="url(#SVGID_4_)" d="M456.429,491.96h68.25v34.5h-68.25V491.96z"/>
	
		<linearGradient id="SVGID_5_" gradientUnits="userSpaceOnUse" x1="290.7241" y1="201.3037" x2="290.7241" y2="132.3037" gradientTransform="matrix(0.75 0 0 -0.75 -79.4015 634.1993)">
		<stop  offset="0" style="stop-color:#292525"/>
		<stop  offset="0.01" style="stop-color:#868584"/>
		<stop  offset="0.02" style="stop-color:#383433"/>
		<stop  offset="0.64" style="stop-color:#373332"/>
		<stop  offset="0.99" style="stop-color:#363130"/>
		<stop  offset="1" style="stop-color:#252221"/>
	</linearGradient>
	<path fill="url(#SVGID_5_)" d="M72.266,483.222h132.75v51.75H72.266V483.222z"/>
	
		<linearGradient id="SVGID_6_" gradientUnits="userSpaceOnUse" x1="288.7241" y1="201.4106" x2="288.7241" y2="-26.6963" gradientTransform="matrix(0.75 0 0 -0.75 284.3671 503.9923)">
		<stop  offset="0" style="stop-color:#A5906A"/>
		<stop  offset="0.01" style="stop-color:#EED8B3"/>
		<stop  offset="0.02" style="stop-color:#D7BD8C"/>
		<stop  offset="0.64" style="stop-color:#D4BA89"/>
		<stop  offset="0.99" style="stop-color:#CFB586"/>
		<stop  offset="1" style="stop-color:#9A8662"/>
	</linearGradient>
	<path fill="url(#SVGID_6_)" d="M436.035,358.265c0,0,43.914-11.789,86.469-0.301c-0.219,0.301,34.441,30.242,43.223,70.625
		l0.059,90.926c0,0-1.066,4.289-6.785,4.289l-33.715,0.211c0,0-5.637-27.613-35.48-28.094c0.23,0.344-28.18-0.117-33.695,28.027
		l-20.074,0.066V358.265z"/>
	<path fill="#EACD98" d="M438.234,361.214c0,0,39.711-12.363,83.016,0.293c0.234-0.293,33.035,29.008,41.406,67.742l0.078,15.215
		h-124.5V361.214z"/>
	<path d="M456.343,366.82h59.25l30,48.75v15.75h-90L456.343,366.82z"/>
	<path fill="#E8F4ED" d="M459.097,369.386h54.75l27,45v14.25h-82.5L459.097,369.386z"/>
	
		<linearGradient id="SVGID_7_" gradientUnits="userSpaceOnUse" x1="255.2256" y1="201.3018" x2="255.2256" y2="156.8477" gradientTransform="matrix(0.75 0 0 -0.75 301.4794 638.8116)">
		<stop  offset="0" style="stop-color:#A5906A"/>
		<stop  offset="0.01" style="stop-color:#EED8B3"/>
		<stop  offset="0.02" style="stop-color:#D7BD8C"/>
		<stop  offset="0.64" style="stop-color:#D4BA89"/>
		<stop  offset="0.99" style="stop-color:#CFB586"/>
		<stop  offset="1" style="stop-color:#9A8662"/>
	</linearGradient>
	<path fill="url(#SVGID_7_)" d="M532.648,487.835v33h-7.5c0,0-5.5-27.328-35.348-27.809c0.098,0.059-28.18-0.117-33.695,28.148
		l-2.957-0.34v-33H532.648z"/>
	<path fill="#EACD98" d="M562.863,444.75V516c0,0-0.945,4.004-6.43,4.004l-28.82-0.254c0,0-4.809-26.719-37.762-27.82
		c0.262,0.07-31.422,0.758-36.711,27.875l-14.777-0.055v-75H562.863z"/>
	
		<linearGradient id="SVGID_8_" gradientUnits="userSpaceOnUse" x1="216.2256" y1="201.3057" x2="216.2256" y2="195.3057" gradientTransform="matrix(0.75 0 0 -0.75 284.3466 670.7755)">
		<stop  offset="0" style="stop-color:#A5906A"/>
		<stop  offset="0.01" style="stop-color:#EED8B3"/>
		<stop  offset="0.02" style="stop-color:#D7BD8C"/>
		<stop  offset="0.64" style="stop-color:#D4BA89"/>
		<stop  offset="0.99" style="stop-color:#CFB586"/>
		<stop  offset="1" style="stop-color:#9A8662"/>
	</linearGradient>
	<path fill="url(#SVGID_8_)" d="M436.015,519.796h21v4.5h-21V519.796z"/>
	
		<linearGradient id="SVGID_9_" gradientUnits="userSpaceOnUse" x1="230.0903" y1="201.3057" x2="230.0903" y2="195.9824" gradientTransform="matrix(0.75 0 0 -0.75 372.1903 670.795)">
		<stop  offset="0" style="stop-color:#A5906A"/>
		<stop  offset="0.01" style="stop-color:#EED8B3"/>
		<stop  offset="0.02" style="stop-color:#D7BD8C"/>
		<stop  offset="0.64" style="stop-color:#D4BA89"/>
		<stop  offset="0.99" style="stop-color:#CFB586"/>
		<stop  offset="1" style="stop-color:#9A8662"/>
	</linearGradient>
	<path fill="url(#SVGID_9_)" d="M523.859,519.816c0,0,1.145,3.559,1.145,3.992l35.605-0.242c0,0,4.012-0.563,5.047-3.688
		L523.859,519.816z"/>
	
		<linearGradient id="SVGID_10_" gradientUnits="userSpaceOnUse" x1="285.2261" y1="201.3057" x2="285.2261" y2="-9.9561" gradientTransform="matrix(0.75 0 0 -0.75 286.9911 512.4972)">
		<stop  offset="0" style="stop-color:#FFFFFF;stop-opacity:0.149"/>
		<stop  offset="1" style="stop-color:#FFFFFF;stop-opacity:0.0235"/>
	</linearGradient>
	<path fill="url(#SVGID_10_)" d="M520.41,361.519c0,0,32.723,26.23,42.238,67.73l0.512,86.77c0,0-0.527,2.555-4.172,3.477
		l-30.328,0.273c0,0-8.059-27.359-37.902-27.84c-0.348,0.09-32.113-0.391-37.629,28.035l-14.469-0.195v-8.25L520.41,361.519z"/>
	<path fill="#FFFFFF" fill-opacity="0.8039" d="M514.738,371.917l26.25,42v15l-57-0.75L514.738,371.917z"/>
	<path stroke="#000000" stroke-linejoin="bevel" stroke-miterlimit="10" d="M544.976,437.14c0-2.25,1.566-3.75,3.496-3.75
		c1.754,0,3.5,1.559,3.5,3.48c-0.246,1.77-1.566,3.48-3.5,3.48c-1.996-0.211-3.496-1.559-3.496-3.48V437.14z"/>
	
		<linearGradient id="SVGID_11_" gradientUnits="userSpaceOnUse" x1="202.2227" y1="197.5757" x2="209.7119" y2="197.5757" gradientTransform="matrix(0.75 0 0 -0.75 393.9969 585.0548)">
		<stop  offset="0" style="stop-color:#AEAEAE"/>
		<stop  offset="0.41" style="stop-color:#C9C9C9"/>
		<stop  offset="1" style="stop-color:#565656"/>
	</linearGradient>
	<path fill="url(#SVGID_11_)" d="M545.664,437.078c0-1.5,1.258-3,2.809-3c1.691,0,2.809,1.25,2.809,2.793
		c-0.367,1.707-1.258,2.797-2.809,2.797c-1.309-0.34-2.809-1.254-2.809-2.797V437.078z"/>
	
		<linearGradient id="SVGID_12_" gradientUnits="userSpaceOnUse" x1="202.2241" y1="190.77" x2="205.2241" y2="190.77" gradientTransform="matrix(0.75 0 0 -0.75 395.6132 573.6486)">
		<stop  offset="0" style="stop-color:#767676"/>
		<stop  offset="0.36" style="stop-color:#EFEFEF"/>
		<stop  offset="0.7" style="stop-color:#C0C0C0"/>
		<stop  offset="0.91" style="stop-color:#727272"/>
	</linearGradient>
	<path fill="url(#SVGID_12_)" d="M547.281,422.671h2.25v15c0,0-0.371,0.801-1.18,0.801c-1.07-0.051-1.07-0.594-1.07-0.594V422.671z"
		/>
	<path d="M544.16,410.761h5.25c0.75,0,0.816,0.492,0.816,1.098l-0.066,15.402c0,0.75-0.234,0.914-0.605,0.914l-5.395-0.164
		c-0.75,0-0.758-0.336-0.758-0.941l0.008-15.559c0,0,0.289-0.75,0.66-0.75H544.16z"/>
	<path fill="#606060" d="M544.167,410.75h1.5V428h-1.5c-0.75,0-0.762-0.324-0.762-0.93l0.012-15.57c0,0,0.289-0.75,0.656-0.75
		H544.167z"/>
	
		<linearGradient id="SVGID_13_" gradientUnits="userSpaceOnUse" x1="286.2612" y1="204.5288" x2="205.7845" y2="108.6204" gradientTransform="matrix(0.75 0 0 -0.75 -13.1866 650.254)">
		<stop  offset="0" style="stop-color:#000000"/>
		<stop  offset="0.53" style="stop-color:#4F4F4F"/>
		<stop  offset="1" style="stop-color:#000000"/>
	</linearGradient>
	<path fill="url(#SVGID_13_)" d="M138.48,533.027c0-18.75,14.523-33.75,32.805-33.75c18.195,0,33.105,15.004,33.105,33.512
		c0.09,18.238-14.824,33.508-33.105,33.508c-18.555-0.27-33.105-15.004-33.105-33.508L138.48,533.027z"/>
	<path fill="#888889" d="M149.77,532.429c0-12,9.57-21.75,21.617-21.75c12.133,0,21.816,9.898,21.816,22.109
		c0.066,12.391-9.766,22.105-21.816,22.105c-11.867,0.035-21.813-9.898-21.813-22.105L149.77,532.429z"/>
	
		<linearGradient id="SVGID_14_" gradientUnits="userSpaceOnUse" x1="258.5801" y1="198.5171" x2="199.6622" y2="149.0792" gradientTransform="matrix(0.75 0 0 -0.75 -0.4313 663.1447)">
		<stop  offset="0" style="stop-color:#C8C8C8"/>
		<stop  offset="0.28" style="stop-color:#A9A9A9"/>
		<stop  offset="0.56" style="stop-color:#E2E2E2"/>
		<stop  offset="0.78" style="stop-color:#C9C9C9"/>
		<stop  offset="1" style="stop-color:#373737"/>
	</linearGradient>
	<path fill="url(#SVGID_14_)" d="M151.238,532.417c0-11.25,8.926-20.25,20.164-20.25c11.336,0,20.348,9.23,20.348,20.621
		c-0.012,11.629-9.109,20.617-20.348,20.617c-11.164,0.012-20.348-9.23-20.348-20.617L151.238,532.417z"/>
	<path fill="#404040" d="M161.727,532.546c0-5.25,4.324-9.75,9.77-9.75c5.23,0,9.859,4.473,9.859,9.992
		c-0.129,5.758-4.414,9.988-9.859,9.988c-5.27,0.27-9.859-4.473-9.859-9.988L161.727,532.546z"/>
	
		<linearGradient id="SVGID_15_" gradientUnits="userSpaceOnUse" x1="221.3794" y1="200.3613" x2="201.3451" y2="183.5505" gradientTransform="matrix(0.75 0 0 -0.75 13.0004 676.756)">
		<stop  offset="0" style="stop-color:#282828"/>
		<stop  offset="0.36" style="stop-color:#B7B7B7"/>
		<stop  offset="0.57" style="stop-color:#C7C7C7"/>
		<stop  offset="0.83" style="stop-color:#B4B4B4"/>
		<stop  offset="0.9" style="stop-color:#3A3A3A"/>
	</linearGradient>
	<path fill="url(#SVGID_15_)" d="M164.668,532.527c0-3.75,3.035-6.75,6.855-6.75c3.645,0,6.918,3.141,6.918,7.012
		c-0.273,4.238-3.098,7.008-6.918,7.008c-3.855,0.23-6.918-3.137-6.918-7.008L164.668,532.527z"/>
	
		<linearGradient id="SVGID_16_" gradientUnits="userSpaceOnUse" x1="211.8291" y1="201.7476" x2="202.695" y2="190.8619" gradientTransform="matrix(0.75 0 0 -0.75 8.7699 667.0323)">
		<stop  offset="0" style="stop-color:#000000"/>
		<stop  offset="0.53" style="stop-color:#4F4F4F"/>
		<stop  offset="1" style="stop-color:#000000"/>
	</linearGradient>
	<path fill="url(#SVGID_16_)" d="M160.438,519.804c0-2.25,1.684-3.75,3.789-3.75c2.211,0,3.813,1.684,3.813,3.758
		c-0.102,2.242-1.707,3.758-3.813,3.758c-2.289-0.016-3.813-1.684-3.813-3.758L160.438,519.804z"/>
	
		<linearGradient id="SVGID_17_" gradientUnits="userSpaceOnUse" x1="211.8301" y1="201.7461" x2="202.6968" y2="190.8615" gradientTransform="matrix(0.75 0 0 -0.75 15.0677 696.09)">
		<stop  offset="0" style="stop-color:#000000"/>
		<stop  offset="0.53" style="stop-color:#4F4F4F"/>
		<stop  offset="1" style="stop-color:#000000"/>
	</linearGradient>
	<path fill="url(#SVGID_17_)" d="M166.738,548.863c0-2.25,1.68-3.75,3.785-3.75c2.215,0,3.813,1.68,3.813,3.758
		c-0.098,2.242-1.707,3.758-3.813,3.758c-2.285-0.016-3.813-1.684-3.813-3.758L166.738,548.863z"/>
	
		<linearGradient id="SVGID_18_" gradientUnits="userSpaceOnUse" x1="211.8281" y1="201.748" x2="202.694" y2="190.8624" gradientTransform="matrix(0.75 0 0 -0.75 1.0736 683.963)">
		<stop  offset="0" style="stop-color:#000000"/>
		<stop  offset="0.53" style="stop-color:#4F4F4F"/>
		<stop  offset="1" style="stop-color:#000000"/>
	</linearGradient>
	<path fill="url(#SVGID_18_)" d="M152.742,536.734c0-2.25,1.684-3.75,3.785-3.75c2.215,0,3.813,1.684,3.813,3.758
		c-0.098,2.242-1.707,3.758-3.813,3.758c-2.285-0.016-3.809-1.684-3.809-3.758L152.742,536.734z"/>
	
		<linearGradient id="SVGID_19_" gradientUnits="userSpaceOnUse" x1="211.8286" y1="201.7466" x2="202.6954" y2="190.862" gradientTransform="matrix(0.75 0 0 -0.75 27.4735 669.9435)">
		<stop  offset="0" style="stop-color:#000000"/>
		<stop  offset="0.53" style="stop-color:#4F4F4F"/>
		<stop  offset="1" style="stop-color:#000000"/>
	</linearGradient>
	<path fill="url(#SVGID_19_)" d="M179.145,522.714c0-2.25,1.68-3.75,3.785-3.75c2.215,0,3.813,1.684,3.813,3.758
		c-0.098,2.242-1.707,3.758-3.813,3.758c-2.285-0.016-3.813-1.68-3.813-3.758L179.145,522.714z"/>
	
		<linearGradient id="SVGID_20_" gradientUnits="userSpaceOnUse" x1="211.8301" y1="201.7466" x2="202.696" y2="190.861" gradientTransform="matrix(0.75 0 0 -0.75 29.7777 686.9445)">
		<stop  offset="0" style="stop-color:#000000"/>
		<stop  offset="0.53" style="stop-color:#4F4F4F"/>
		<stop  offset="1" style="stop-color:#000000"/>
	</linearGradient>
	<path fill="url(#SVGID_20_)" d="M181.445,539.718c0-2.25,1.684-3.75,3.789-3.75c2.211,0,3.813,1.68,3.813,3.758
		c-0.102,2.242-1.707,3.754-3.813,3.754c-2.289-0.012-3.813-1.68-3.813-3.754L181.445,539.718z"/>
	
		<linearGradient id="SVGID_21_" gradientUnits="userSpaceOnUse" x1="286.2622" y1="204.5278" x2="205.7855" y2="108.6195" gradientTransform="matrix(0.75 0 0 -0.75 -79.1549 650.9181)">
		<stop  offset="0" style="stop-color:#000000"/>
		<stop  offset="0.53" style="stop-color:#4F4F4F"/>
		<stop  offset="1" style="stop-color:#000000"/>
	</linearGradient>
	<path fill="url(#SVGID_21_)" d="M72.516,533.691c0-18.75,14.52-33.75,32.801-33.75c18.199,0,33.105,15.004,33.105,33.512
		c0.094,18.238-14.82,33.508-33.105,33.508c-18.551-0.27-33.102-15-33.102-33.508L72.516,533.691z"/>
	<path fill="#888889" d="M83.805,533.093c0-12,9.566-21.75,21.617-21.75c12.133,0,21.813,9.898,21.813,22.109
		c0.07,12.391-9.766,22.105-21.813,22.105c-11.867,0.035-21.816-9.898-21.816-22.105L83.805,533.093z"/>
	
		<linearGradient id="SVGID_22_" gradientUnits="userSpaceOnUse" x1="258.5796" y1="198.5181" x2="199.6607" y2="149.0793" gradientTransform="matrix(0.75 0 0 -0.75 -66.399 663.8087)">
		<stop  offset="0" style="stop-color:#C8C8C8"/>
		<stop  offset="0.28" style="stop-color:#A9A9A9"/>
		<stop  offset="0.56" style="stop-color:#E2E2E2"/>
		<stop  offset="0.78" style="stop-color:#C9C9C9"/>
		<stop  offset="1" style="stop-color:#373737"/>
	</linearGradient>
	<path fill="url(#SVGID_22_)" d="M85.27,533.082c0-11.25,8.926-20.25,20.164-20.25c11.336,0,20.348,9.23,20.348,20.621
		c-0.012,11.629-9.109,20.617-20.348,20.617c-11.164,0.012-20.348-9.23-20.348-20.617L85.27,533.082z"/>
	<path fill="#404040" d="M95.758,533.21c0-5.25,4.324-9.75,9.77-9.75c5.23,0,9.863,4.473,9.863,9.992
		c-0.133,5.758-4.418,9.988-9.863,9.988c-5.27,0.27-9.859-4.473-9.859-9.988L95.758,533.21z"/>
	
		<linearGradient id="SVGID_23_" gradientUnits="userSpaceOnUse" x1="221.3784" y1="200.3623" x2="201.343" y2="183.5506" gradientTransform="matrix(0.75 0 0 -0.75 -52.9674 677.42)">
		<stop  offset="0" style="stop-color:#282828"/>
		<stop  offset="0.36" style="stop-color:#B7B7B7"/>
		<stop  offset="0.57" style="stop-color:#C7C7C7"/>
		<stop  offset="0.83" style="stop-color:#B4B4B4"/>
		<stop  offset="0.9" style="stop-color:#3A3A3A"/>
	</linearGradient>
	<path fill="url(#SVGID_23_)" d="M98.703,533.191c0-3.75,3.031-6.75,6.852-6.75c3.648,0,6.918,3.141,6.918,7.012
		c-0.27,4.238-3.098,7.008-6.918,7.008c-3.852,0.23-6.918-3.137-6.918-7.008L98.703,533.191z"/>
	
		<linearGradient id="SVGID_24_" gradientUnits="userSpaceOnUse" x1="211.8291" y1="201.7476" x2="202.695" y2="190.8619" gradientTransform="matrix(0.75 0 0 -0.75 -57.1979 667.6974)">
		<stop  offset="0" style="stop-color:#000000"/>
		<stop  offset="0.53" style="stop-color:#4F4F4F"/>
		<stop  offset="1" style="stop-color:#000000"/>
	</linearGradient>
	<path fill="url(#SVGID_24_)" d="M94.473,520.468c0-2.25,1.68-3.75,3.785-3.75c2.215,0,3.813,1.684,3.813,3.758
		c-0.098,2.242-1.707,3.758-3.813,3.758c-2.285-0.016-3.813-1.684-3.813-3.758L94.473,520.468z"/>
	
		<linearGradient id="SVGID_25_" gradientUnits="userSpaceOnUse" x1="211.8281" y1="201.7476" x2="202.694" y2="190.8619" gradientTransform="matrix(0.75 0 0 -0.75 -50.9 696.755)">
		<stop  offset="0" style="stop-color:#000000"/>
		<stop  offset="0.53" style="stop-color:#4F4F4F"/>
		<stop  offset="1" style="stop-color:#000000"/>
	</linearGradient>
	<path fill="url(#SVGID_25_)" d="M100.77,549.527c0-2.25,1.68-3.75,3.785-3.75c2.215,0,3.813,1.684,3.813,3.758
		c-0.098,2.242-1.707,3.758-3.813,3.758c-2.285-0.016-3.813-1.684-3.813-3.758L100.77,549.527z"/>
	
		<linearGradient id="SVGID_26_" gradientUnits="userSpaceOnUse" x1="211.8276" y1="201.7476" x2="202.6944" y2="190.863" gradientTransform="matrix(0.75 0 0 -0.75 -64.8947 684.6271)">
		<stop  offset="0" style="stop-color:#000000"/>
		<stop  offset="0.53" style="stop-color:#4F4F4F"/>
		<stop  offset="1" style="stop-color:#000000"/>
	</linearGradient>
	<path fill="url(#SVGID_26_)" d="M86.773,537.398c0-2.25,1.684-3.75,3.789-3.75c2.211,0,3.813,1.684,3.813,3.758
		c-0.102,2.242-1.707,3.758-3.813,3.758c-2.289-0.016-3.813-1.684-3.813-3.758L86.773,537.398z"/>
	
		<linearGradient id="SVGID_27_" gradientUnits="userSpaceOnUse" x1="211.8286" y1="201.748" x2="202.6945" y2="190.8624" gradientTransform="matrix(0.75 0 0 -0.75 -38.4943 670.6085)">
		<stop  offset="0" style="stop-color:#000000"/>
		<stop  offset="0.53" style="stop-color:#4F4F4F"/>
		<stop  offset="1" style="stop-color:#000000"/>
	</linearGradient>
	<path fill="url(#SVGID_27_)" d="M113.176,523.378c0-2.25,1.68-3.75,3.785-3.75c2.215,0,3.813,1.684,3.813,3.758
		c-0.098,2.242-1.707,3.758-3.813,3.758c-2.285-0.016-3.813-1.68-3.813-3.758L113.176,523.378z"/>
	
		<linearGradient id="SVGID_28_" gradientUnits="userSpaceOnUse" x1="211.8296" y1="201.7466" x2="202.6964" y2="190.862" gradientTransform="matrix(0.75 0 0 -0.75 -36.1901 687.6095)">
		<stop  offset="0" style="stop-color:#000000"/>
		<stop  offset="0.53" style="stop-color:#4F4F4F"/>
		<stop  offset="1" style="stop-color:#000000"/>
	</linearGradient>
	<path fill="url(#SVGID_28_)" d="M115.48,540.382c0-2.25,1.68-3.75,3.785-3.75c2.215,0,3.813,1.68,3.813,3.758
		c-0.098,2.242-1.707,3.758-3.813,3.758c-2.285-0.016-3.813-1.684-3.813-3.758L115.48,540.382z"/>
	
		<linearGradient id="SVGID_29_" gradientUnits="userSpaceOnUse" x1="286.2593" y1="204.5278" x2="205.7824" y2="108.6193" gradientTransform="matrix(0.75 0 0 -0.75 306.2186 650.2521)">
		<stop  offset="0" style="stop-color:#000000"/>
		<stop  offset="0.53" style="stop-color:#4F4F4F"/>
		<stop  offset="1" style="stop-color:#000000"/>
	</linearGradient>
	<path fill="url(#SVGID_29_)" d="M457.886,533.023c0-18.75,14.52-33.75,32.805-33.75c18.195,0,33.102,15.004,33.102,33.512
		c0.094,18.238-14.82,33.512-33.102,33.512c-18.555-0.273-33.105-15.004-33.105-33.512L457.886,533.023z"/>
	<path fill="#888889" d="M469.175,532.429c0-12,9.57-21.75,21.617-21.75c12.133,0,21.816,9.898,21.816,22.105
		c0.066,12.395-9.766,22.105-21.816,22.105c-11.867,0.039-21.816-9.895-21.816-22.105L469.175,532.429z"/>
	
		<linearGradient id="SVGID_30_" gradientUnits="userSpaceOnUse" x1="258.5796" y1="198.5176" x2="199.6606" y2="149.0787" gradientTransform="matrix(0.75 0 0 -0.75 318.9745 663.1427)">
		<stop  offset="0" style="stop-color:#C8C8C8"/>
		<stop  offset="0.28" style="stop-color:#A9A9A9"/>
		<stop  offset="0.56" style="stop-color:#E2E2E2"/>
		<stop  offset="0.78" style="stop-color:#C9C9C9"/>
		<stop  offset="1" style="stop-color:#373737"/>
	</linearGradient>
	<path fill="url(#SVGID_30_)" d="M470.644,532.414c0-11.25,8.926-20.25,20.164-20.25c11.336,0,20.348,9.234,20.348,20.621
		c-0.012,11.629-9.109,20.621-20.348,20.621c-11.164,0.008-20.352-9.23-20.352-20.621L470.644,532.414z"/>
	<path fill="#404040" d="M481.132,532.542c0-5.25,4.324-9.75,9.77-9.75c5.23,0,9.859,4.473,9.859,9.992
		c-0.129,5.758-4.414,9.992-9.859,9.992c-5.27,0.266-9.859-4.473-9.859-9.992L481.132,532.542z"/>
	
		<linearGradient id="SVGID_31_" gradientUnits="userSpaceOnUse" x1="221.3799" y1="200.3608" x2="201.3445" y2="183.5491" gradientTransform="matrix(0.75 0 0 -0.75 332.4061 676.754)">
		<stop  offset="0" style="stop-color:#282828"/>
		<stop  offset="0.36" style="stop-color:#B7B7B7"/>
		<stop  offset="0.57" style="stop-color:#C7C7C7"/>
		<stop  offset="0.83" style="stop-color:#B4B4B4"/>
		<stop  offset="0.9" style="stop-color:#3A3A3A"/>
	</linearGradient>
	<path fill="url(#SVGID_31_)" d="M484.074,532.527c0-3.75,3.035-6.75,6.855-6.75c3.645,0,6.918,3.137,6.918,7.008
		c-0.273,4.242-3.098,7.012-6.918,7.012c-3.855,0.23-6.918-3.141-6.918-7.012L484.074,532.527z"/>
	
		<linearGradient id="SVGID_32_" gradientUnits="userSpaceOnUse" x1="211.8281" y1="201.7476" x2="202.694" y2="190.8619" gradientTransform="matrix(0.75 0 0 -0.75 328.1757 667.0314)">
		<stop  offset="0" style="stop-color:#000000"/>
		<stop  offset="0.53" style="stop-color:#4F4F4F"/>
		<stop  offset="1" style="stop-color:#000000"/>
	</linearGradient>
	<path fill="url(#SVGID_32_)" d="M479.843,519.804c0-2.25,1.684-3.75,3.789-3.75c2.211,0,3.813,1.68,3.813,3.758
		c-0.102,2.242-1.707,3.758-3.813,3.758c-2.289-0.016-3.813-1.684-3.813-3.758L479.843,519.804z"/>
	
		<linearGradient id="SVGID_33_" gradientUnits="userSpaceOnUse" x1="211.8262" y1="201.749" x2="202.692" y2="190.8634" gradientTransform="matrix(0.75 0 0 -0.75 334.4735 696.089)">
		<stop  offset="0" style="stop-color:#000000"/>
		<stop  offset="0.53" style="stop-color:#4F4F4F"/>
		<stop  offset="1" style="stop-color:#000000"/>
	</linearGradient>
	<path fill="url(#SVGID_33_)" d="M486.14,548.859c0-2.25,1.684-3.75,3.789-3.75c2.211,0,3.813,1.684,3.813,3.758
		c-0.102,2.242-1.707,3.758-3.813,3.758c-2.289-0.016-3.813-1.68-3.813-3.758L486.14,548.859z"/>
	
		<linearGradient id="SVGID_34_" gradientUnits="userSpaceOnUse" x1="211.8286" y1="201.7471" x2="202.6945" y2="190.8614" gradientTransform="matrix(0.75 0 0 -0.75 320.4784 683.9611)">
		<stop  offset="0" style="stop-color:#000000"/>
		<stop  offset="0.53" style="stop-color:#4F4F4F"/>
		<stop  offset="1" style="stop-color:#000000"/>
	</linearGradient>
	<path fill="url(#SVGID_34_)" d="M472.148,536.734c0-2.25,1.68-3.75,3.785-3.75c2.215,0,3.813,1.68,3.813,3.758
		c-0.098,2.242-1.707,3.758-3.813,3.758c-2.285-0.016-3.813-1.684-3.813-3.758L472.148,536.734z"/>
	
		<linearGradient id="SVGID_35_" gradientUnits="userSpaceOnUse" x1="211.8281" y1="201.7476" x2="202.6949" y2="190.863" gradientTransform="matrix(0.75 0 0 -0.75 346.8788 669.9425)">
		<stop  offset="0" style="stop-color:#000000"/>
		<stop  offset="0.53" style="stop-color:#4F4F4F"/>
		<stop  offset="1" style="stop-color:#000000"/>
	</linearGradient>
	<path fill="url(#SVGID_35_)" d="M498.546,522.714c0-2.25,1.684-3.75,3.789-3.75c2.211,0,3.813,1.684,3.813,3.758
		c-0.102,2.242-1.707,3.758-3.813,3.758c-2.289-0.016-3.813-1.684-3.813-3.758L498.546,522.714z"/>
	
		<linearGradient id="SVGID_36_" gradientUnits="userSpaceOnUse" x1="211.8286" y1="201.7476" x2="202.6936" y2="190.8609" gradientTransform="matrix(0.75 0 0 -0.75 349.1835 686.9435)">
		<stop  offset="0" style="stop-color:#000000"/>
		<stop  offset="0.53" style="stop-color:#4F4F4F"/>
		<stop  offset="1" style="stop-color:#000000"/>
	</linearGradient>
	<path fill="url(#SVGID_36_)" d="M500.851,539.714c0-2.25,1.684-3.75,3.789-3.75c2.211,0,3.809,1.684,3.809,3.758
		c-0.098,2.242-1.703,3.758-3.809,3.758c-2.289-0.016-3.813-1.684-3.813-3.758L500.851,539.714z"/>
	
		<linearGradient id="SVGID_37_" gradientUnits="userSpaceOnUse" x1="461.7271" y1="201.3057" x2="461.7271" y2="192.3057" gradientTransform="matrix(0.75 0 0 -0.75 -104.463 628.7091)">
		<stop  offset="0" style="stop-color:#B5B5B5"/>
		<stop  offset="0.01" style="stop-color:#FFFFFF"/>
		<stop  offset="0.02" style="stop-color:#EBEBEB"/>
		<stop  offset="0.64" style="stop-color:#E7E7E7"/>
		<stop  offset="0.99" style="stop-color:#E2E2E2"/>
		<stop  offset="1" style="stop-color:#A8A8A8"/>
	</linearGradient>
	<path fill="url(#SVGID_37_)" d="M436.457,484.48H50.207c0,0-3-1.473-3-4.523v-2.227h389.25V484.48z"/>
	
		<linearGradient id="SVGID_38_" gradientUnits="userSpaceOnUse" x1="285.2241" y1="201.3037" x2="285.2241" y2="197.3027" gradientTransform="matrix(0.75 0 0 -0.75 286.6591 592.4298)">
		<stop  offset="0" style="stop-color:#A5906A"/>
		<stop  offset="0.01" style="stop-color:#EED8B3"/>
		<stop  offset="0.02" style="stop-color:#D7BD8C"/>
		<stop  offset="0.64" style="stop-color:#D4BA89"/>
		<stop  offset="0.99" style="stop-color:#CFB586"/>
		<stop  offset="1" style="stop-color:#9A8662"/>
	</linearGradient>
	<path fill="url(#SVGID_38_)" d="M438.328,444.453h124.5v-3h-124.5V444.453z"/>
	
		<linearGradient id="SVGID_39_" gradientUnits="userSpaceOnUse" x1="231.9697" y1="205.625" x2="231.9697" y2="123.6211" gradientTransform="matrix(0.7427 0.1044 0.1044 -0.7427 -120.5368 611.8123)">
		<stop  offset="0" style="stop-color:#B5B5B5"/>
		<stop  offset="0.01" style="stop-color:#FFFFFF"/>
		<stop  offset="0.02" style="stop-color:#EBEBEB"/>
		<stop  offset="0.64" style="stop-color:#E7E7E7"/>
		<stop  offset="0.99" style="stop-color:#E2E2E2"/>
		<stop  offset="1" style="stop-color:#A8A8A8"/>
	</linearGradient>
	<path fill="url(#SVGID_39_)" d="M69.867,482.839l6.684,0.938l-8.559,60.902l-6.684-0.938L69.867,482.839z"/>
	
		<linearGradient id="SVGID_40_" gradientUnits="userSpaceOnUse" x1="181.126" y1="200.5449" x2="181.126" y2="118.541" gradientTransform="matrix(0.7427 -0.1044 -0.1044 -0.7427 90.8115 651.1239)">
		<stop  offset="0" style="stop-color:#B5B5B5"/>
		<stop  offset="0.01" style="stop-color:#FFFFFF"/>
		<stop  offset="0.02" style="stop-color:#EBEBEB"/>
		<stop  offset="0.64" style="stop-color:#E7E7E7"/>
		<stop  offset="0.99" style="stop-color:#E2E2E2"/>
		<stop  offset="1" style="stop-color:#A8A8A8"/>
	</linearGradient>
	<path fill="url(#SVGID_40_)" d="M201.059,483.746l6.684-0.941l8.563,60.902l-6.688,0.941L201.059,483.746z"/>
	
		<linearGradient id="SVGID_41_" gradientUnits="userSpaceOnUse" x1="206.7236" y1="201.3057" x2="206.7236" y2="138.3057" gradientTransform="matrix(0.75 0 0 -0.75 79.6962 634.9865)">
		<stop  offset="0" style="stop-color:#B5B5B5"/>
		<stop  offset="0.01" style="stop-color:#FFFFFF"/>
		<stop  offset="0.02" style="stop-color:#EBEBEB"/>
		<stop  offset="0.64" style="stop-color:#E7E7E7"/>
		<stop  offset="0.99" style="stop-color:#E2E2E2"/>
		<stop  offset="1" style="stop-color:#A8A8A8"/>
	</linearGradient>
	<path fill="url(#SVGID_41_)" d="M231.363,484.007h6.75v47.25h-6.75V484.007z"/>
	
		<linearGradient id="SVGID_42_" gradientUnits="userSpaceOnUse" x1="206.728" y1="201.3057" x2="206.728" y2="138.3057" gradientTransform="matrix(0.75 0 0 -0.75 225.1219 634.9865)">
		<stop  offset="0" style="stop-color:#B5B5B5"/>
		<stop  offset="0.01" style="stop-color:#FFFFFF"/>
		<stop  offset="0.02" style="stop-color:#EBEBEB"/>
		<stop  offset="0.64" style="stop-color:#E7E7E7"/>
		<stop  offset="0.99" style="stop-color:#E2E2E2"/>
		<stop  offset="1" style="stop-color:#A8A8A8"/>
	</linearGradient>
	<path fill="url(#SVGID_42_)" d="M376.792,484.007h6.75v47.25h-6.75V484.007z"/>
	
		<linearGradient id="SVGID_43_" gradientUnits="userSpaceOnUse" x1="282.2256" y1="169.8066" x2="202.2256" y2="169.8066" gradientTransform="matrix(0.75 0 0 -0.75 157.0604 634.9865)">
		<stop  offset="0" style="stop-color:#A8A8A8"/>
		<stop  offset="0.01" style="stop-color:#F2F2F2"/>
		<stop  offset="0.02" style="stop-color:#DBDBDB"/>
		<stop  offset="0.64" style="stop-color:#D8D8D8"/>
		<stop  offset="0.99" style="stop-color:#D3D3D3"/>
		<stop  offset="1" style="stop-color:#9C9C9C"/>
	</linearGradient>
	<path fill="url(#SVGID_43_)" d="M308.73,484.007h60v47.25h-60V484.007z"/>
	
		<linearGradient id="SVGID_44_" gradientUnits="userSpaceOnUse" x1="205.2256" y1="201.3057" x2="205.2256" y2="138.3057" gradientTransform="matrix(0.75 0 0 -0.75 204.5575 634.9865)">
		<stop  offset="0" style="stop-color:#B5B5B5"/>
		<stop  offset="0.01" style="stop-color:#FFFFFF"/>
		<stop  offset="0.02" style="stop-color:#EBEBEB"/>
		<stop  offset="0.64" style="stop-color:#E7E7E7"/>
		<stop  offset="0.99" style="stop-color:#E2E2E2"/>
		<stop  offset="1" style="stop-color:#A8A8A8"/>
	</linearGradient>
	<path fill="url(#SVGID_44_)" d="M356.226,484.007h4.5v47.25h-4.5V484.007z"/>
	
		<linearGradient id="SVGID_45_" gradientUnits="userSpaceOnUse" x1="205.2261" y1="201.3057" x2="205.2261" y2="138.3057" gradientTransform="matrix(0.75 0 0 -0.75 165.3856 634.9865)">
		<stop  offset="0" style="stop-color:#B5B5B5"/>
		<stop  offset="0.01" style="stop-color:#FFFFFF"/>
		<stop  offset="0.02" style="stop-color:#EBEBEB"/>
		<stop  offset="0.64" style="stop-color:#E7E7E7"/>
		<stop  offset="0.99" style="stop-color:#E2E2E2"/>
		<stop  offset="1" style="stop-color:#A8A8A8"/>
	</linearGradient>
	<path fill="url(#SVGID_45_)" d="M317.054,484.007h4.5v47.25h-4.5V484.007z"/>
	
		<linearGradient id="SVGID_46_" gradientUnits="userSpaceOnUse" x1="485.2251" y1="194.3052" x2="202.2261" y2="194.3051" gradientTransform="matrix(0.75 0 0 -0.75 57.9081 648.3566)">
		<stop  offset="0" style="stop-color:#B5B5B5"/>
		<stop  offset="0.01" style="stop-color:#FFFFFF"/>
		<stop  offset="0.02" style="stop-color:#EBEBEB"/>
		<stop  offset="0.64" style="stop-color:#E7E7E7"/>
		<stop  offset="0.99" style="stop-color:#E2E2E2"/>
		<stop  offset="1" style="stop-color:#A8A8A8"/>
	</linearGradient>
	<path fill="url(#SVGID_46_)" d="M209.578,497.378h212.25v10.5h-212.25V497.378z"/>
	
		<linearGradient id="SVGID_47_" gradientUnits="userSpaceOnUse" x1="485.2251" y1="194.3062" x2="202.2261" y2="194.3061" gradientTransform="matrix(0.75 0 0 -0.75 56.8768 677.8029)">
		<stop  offset="0" style="stop-color:#B5B5B5"/>
		<stop  offset="0.01" style="stop-color:#FFFFFF"/>
		<stop  offset="0.02" style="stop-color:#EBEBEB"/>
		<stop  offset="0.64" style="stop-color:#E7E7E7"/>
		<stop  offset="0.99" style="stop-color:#E2E2E2"/>
		<stop  offset="1" style="stop-color:#A8A8A8"/>
	</linearGradient>
	<path fill="url(#SVGID_47_)" d="M208.547,526.824h212.25v10.5h-212.25V526.824z"/>
	
		<linearGradient id="SVGID_48_" gradientUnits="userSpaceOnUse" x1="452.0269" y1="245.6997" x2="367.9289" y2="-68.1579" gradientTransform="matrix(0.75 0 0 -0.75 -75.3668 459.0529)">
		<stop  offset="0" style="stop-color:#BDA47F"/>
		<stop  offset="0.21" style="stop-color:#FFE0B3"/>
		<stop  offset="0.41" style="stop-color:#FFE7C7"/>
		<stop  offset="0.6" style="stop-color:#DFC297"/>
		<stop  offset="0.76" style="stop-color:#C7AD86"/>
		<stop  offset="1" style="stop-color:#BCA37E"/>
	</linearGradient>
	<path fill="url(#SVGID_48_)" d="M384.55,372.574c0,0,7.418,13.906,0.23,56.867c-7.73,42.883-22.613,47.352-22.613,47.352
		l-114.117,0.031c0,0-9.738-1.105-29.156-6.281c-19.594-4.969-103.387-36.219-133.305-52.777
		c-0.289-0.191-18.891-35.699-3.148-72.953c15.609-37.488,36.012-33.836,36.012-33.836l63.598-2.902c0,0,16.375,0,31.598,3.105
		l62.152,13.395c0,0,14.992,3.68,22.867,7.82c7.883,4.18,86.113,40.359,86.113,40.359L384.55,372.574z"/>
	
		<linearGradient id="SVGID_49_" gradientUnits="userSpaceOnUse" x1="265.5107" y1="205.5171" x2="209.7078" y2="-2.7421" gradientTransform="matrix(0.75 0 0 -0.75 87.5624 476.1271)">
		<stop  offset="0" style="stop-color:#BD9762"/>
		<stop  offset="0.21" style="stop-color:#FFD091"/>
		<stop  offset="0.41" style="stop-color:#FFDBB0"/>
		<stop  offset="0.6" style="stop-color:#DFB375"/>
		<stop  offset="0.76" style="stop-color:#C79F67"/>
		<stop  offset="1" style="stop-color:#BC9661"/>
	</linearGradient>
	<path fill="url(#SVGID_49_)" d="M298.48,332.648c0,0-13.91,8.984-25.492,64.387c-11.258,55.613-8.434,78.684-8.434,78.684
		l-17.074,0.93l-6.75-0.75c0,0-7.141-28.121,8.605-85.555c15.395-57.695,28.34-65.195,28.34-65.195L298.48,332.648z"/>
	
		<linearGradient id="SVGID_50_" gradientUnits="userSpaceOnUse" x1="260.394" y1="207.6899" x2="207.4728" y2="10.1853" gradientTransform="matrix(0.75 0 0 -0.75 -13.9894 459.0529)">
		<stop  offset="0" style="stop-color:#BD9762"/>
		<stop  offset="0.21" style="stop-color:#FFD091"/>
		<stop  offset="0.41" style="stop-color:#FFDBB0"/>
		<stop  offset="0.6" style="stop-color:#DFB375"/>
		<stop  offset="0.76" style="stop-color:#C79F67"/>
		<stop  offset="1" style="stop-color:#BC9661"/>
	</linearGradient>
	<path fill="url(#SVGID_50_)" d="M199.18,308.824c0,0-23.32,12.703-36.441,62.895c-13.059,50.355,0.527,78.645,0.527,78.645
		l-18.836-6.539c0,0-14.754-30.715-0.582-80.387c11.082-44.863,36.734-55.363,36.734-55.363L199.18,308.824z"/>
	
		<linearGradient id="SVGID_51_" gradientUnits="userSpaceOnUse" x1="269.7715" y1="214.0171" x2="226.4719" y2="52.4211" gradientTransform="matrix(0.75 0 0 -0.75 -122.4161 462.0157)">
		<stop  offset="0" style="stop-color:#BDA47F"/>
		<stop  offset="0.21" style="stop-color:#FFE0B3"/>
		<stop  offset="0.41" style="stop-color:#FFE7C7"/>
		<stop  offset="0.6" style="stop-color:#DFC297"/>
		<stop  offset="0.76" style="stop-color:#C7AD86"/>
		<stop  offset="1" style="stop-color:#BCA37E"/>
	</linearGradient>
	<path fill="url(#SVGID_51_)" d="M85.504,417.539l-49.5-23.25c0,0-24.977-65.719,21.73-83.25h57.77c0,0-19.383-0.895-32.504,36.879
		c-13.246,38.121,2.59,69.926,2.59,69.926L85.504,417.539z"/>
	
		<linearGradient id="SVGID_52_" gradientUnits="userSpaceOnUse" x1="236.7456" y1="205.4526" x2="205.3805" y2="88.3966" gradientTransform="matrix(0.75 0 0 -0.75 -126.3395 461.0333)">
		<stop  offset="0" style="stop-color:#BD9762"/>
		<stop  offset="0.21" style="stop-color:#FFD091"/>
		<stop  offset="0.41" style="stop-color:#FFDBB0"/>
		<stop  offset="0.6" style="stop-color:#DFB375"/>
		<stop  offset="0.76" style="stop-color:#C79F67"/>
		<stop  offset="1" style="stop-color:#BC9661"/>
	</linearGradient>
	<path fill="url(#SVGID_52_)" d="M35.828,394.054l-8.25-4.5c0,0-6.539-22.496,1.859-48.883
		c8.641-26.117,27.289-30.617,27.289-30.617l6.102,1.5c0,0-18.438,4.984-26.832,32.926c-0.168,0.074-6.559,25.168-0.262,49.484
		L35.828,394.054z"/>
	
		<linearGradient id="SVGID_53_" gradientUnits="userSpaceOnUse" x1="288.728" y1="201.3057" x2="288.728" y2="82.3057" gradientTransform="matrix(0.75 0 0 -0.75 -145.2491 539.2677)">
		<stop  offset="0" style="stop-color:#B59D79"/>
		<stop  offset="0.01" style="stop-color:#FFE5C1"/>
		<stop  offset="0.02" style="stop-color:#EBCC9F"/>
		<stop  offset="0.64" style="stop-color:#E7C99C"/>
		<stop  offset="0.99" style="stop-color:#E2C499"/>
		<stop  offset="1" style="stop-color:#A89170"/>
	</linearGradient>
	<path fill="url(#SVGID_53_)" d="M49.172,438.539l8.25,39h78.75l-49.5-52.5l-23.25,1.5l-35.25-36.75l-21.75-1.5L49.172,438.539z"/>
	
		<linearGradient id="SVGID_54_" gradientUnits="userSpaceOnUse" x1="317.2271" y1="187.8066" x2="202.2271" y2="187.8066" gradientTransform="matrix(0.75 0 0 -0.75 -66.0773 608.0685)">
		<stop  offset="0" style="stop-color:#B59D79"/>
		<stop  offset="0.01" style="stop-color:#FFE5C1"/>
		<stop  offset="0.02" style="stop-color:#EBCC9F"/>
		<stop  offset="0.64" style="stop-color:#E7C99C"/>
		<stop  offset="0.99" style="stop-color:#E2C499"/>
		<stop  offset="1" style="stop-color:#A89170"/>
	</linearGradient>
	<path fill="url(#SVGID_54_)" d="M85.594,457.089v20.25h86.25c0,0-2.805-15.254-28.523-20.25H85.594z"/>
	
		<linearGradient id="SVGID_55_" gradientUnits="userSpaceOnUse" x1="278.2241" y1="181.3027" x2="202.2241" y2="181.3027" gradientTransform="matrix(0.75 0 0 -0.75 -65.028 578.0587)">
		<stop  offset="0" style="stop-color:#B3A593"/>
		<stop  offset="0.01" style="stop-color:#FDEEDA"/>
		<stop  offset="0.02" style="stop-color:#E9D7BF"/>
		<stop  offset="0.64" style="stop-color:#E5D3BC"/>
		<stop  offset="0.99" style="stop-color:#E0CEB8"/>
		<stop  offset="1" style="stop-color:#A69988"/>
	</linearGradient>
	<path fill="url(#SVGID_55_)" d="M143.641,457.082l-24.75-24l-12-6h-20.25l25.5,30H143.641z"/>
	
		<linearGradient id="SVGID_56_" gradientUnits="userSpaceOnUse" x1="308.2261" y1="176.3027" x2="202.2261" y2="176.3027" gradientTransform="matrix(0.75 0 0 -0.75 -123.8068 540.8038)">
		<stop  offset="0" style="stop-color:#A5906A"/>
		<stop  offset="0.01" style="stop-color:#EED8B3"/>
		<stop  offset="0.02" style="stop-color:#D7BD8C"/>
		<stop  offset="0.64" style="stop-color:#D4BA89"/>
		<stop  offset="0.99" style="stop-color:#CFB586"/>
		<stop  offset="1" style="stop-color:#9A8662"/>
	</linearGradient>
	<path fill="url(#SVGID_56_)" d="M107.363,427.328l-44.25-0.75l-35.25-36.75L107.363,427.328z"/>
	
		<linearGradient id="SVGID_57_" gradientUnits="userSpaceOnUse" x1="260.2236" y1="196.3066" x2="202.2236" y2="196.3066" gradientTransform="matrix(0.75 0 0 -0.75 220.3241 621.0685)">
		<stop  offset="0" style="stop-color:#909191"/>
		<stop  offset="0.01" style="stop-color:#D8D9D9"/>
		<stop  offset="0.02" style="stop-color:#BDBEBE"/>
		<stop  offset="0.64" style="stop-color:#BABABA"/>
		<stop  offset="0.99" style="stop-color:#B5B6B6"/>
		<stop  offset="1" style="stop-color:#868787"/>
	</linearGradient>
	<path fill="url(#SVGID_57_)" d="M371.992,477.589h43.5v-7.5h-43.5V477.589z"/>
	
		<linearGradient id="SVGID_58_" gradientUnits="userSpaceOnUse" x1="260.2236" y1="178.8047" x2="202.2236" y2="178.8047" gradientTransform="matrix(0.75 0 0 -0.75 220.3241 588.5675)">
		<stop  offset="0" style="stop-color:#9B9B9C"/>
		<stop  offset="0.01" style="stop-color:#E4E4E4"/>
		<stop  offset="0.02" style="stop-color:#CBCBCB"/>
		<stop  offset="0.64" style="stop-color:#C7C7C8"/>
		<stop  offset="0.99" style="stop-color:#C3C3C4"/>
		<stop  offset="1" style="stop-color:#909091"/>
	</linearGradient>
	<path fill="url(#SVGID_58_)" d="M371.992,471.339h43.5l-11.25-33.75h-21L371.992,471.339z"/>
	
		<linearGradient id="SVGID_59_" gradientUnits="userSpaceOnUse" x1="473.2251" y1="198.8032" x2="202.2261" y2="198.8032" gradientTransform="matrix(0.75 0 0 -0.75 55.9706 633.8048)">
		<stop  offset="0" style="stop-color:#B59D79"/>
		<stop  offset="0.01" style="stop-color:#FFE5C1"/>
		<stop  offset="0.02" style="stop-color:#EBCC9F"/>
		<stop  offset="0.64" style="stop-color:#E7C99C"/>
		<stop  offset="0.99" style="stop-color:#E2C499"/>
		<stop  offset="1" style="stop-color:#A89170"/>
	</linearGradient>
	<path fill="url(#SVGID_59_)" d="M207.641,482.828h203.25v3.75h-203.25V482.828z"/>
	
		<linearGradient id="SVGID_60_" gradientUnits="userSpaceOnUse" x1="242.4526" y1="199.729" x2="205.4823" y2="61.7539" gradientTransform="matrix(0.75 0 0 -0.75 210.5272 523.7706)">
		<stop  offset="0" style="stop-color:#BDA47F"/>
		<stop  offset="0.21" style="stop-color:#FFE0B3"/>
		<stop  offset="0.41" style="stop-color:#FFE7C7"/>
		<stop  offset="0.6" style="stop-color:#DFC297"/>
		<stop  offset="0.76" style="stop-color:#C7AD86"/>
		<stop  offset="1" style="stop-color:#BCA37E"/>
	</linearGradient>
	<path fill="url(#SVGID_60_)" d="M384.695,372.792c0,0,7.273,13.688,0.086,56.648c-7.586,43.102-22.613,47.352-22.613,47.352
		L384.695,372.792z"/>
	
		<linearGradient id="SVGID_61_" gradientUnits="userSpaceOnUse" x1="227.2241" y1="197.3057" x2="202.2241" y2="197.3057" gradientTransform="matrix(0.75 0 0 -0.75 68.2963 650.462)">
		<stop  offset="0" style="stop-color:#A64B4E"/>
		<stop  offset="0.01" style="stop-color:#EF9A9C"/>
		<stop  offset="0.02" style="stop-color:#D86468"/>
		<stop  offset="0.64" style="stop-color:#D56266"/>
		<stop  offset="0.99" style="stop-color:#D06063"/>
		<stop  offset="1" style="stop-color:#9A4548"/>
	</linearGradient>
	<path fill="url(#SVGID_61_)" d="M219.965,499.484h18.75v6h-18.75V499.484z"/>
	
		<linearGradient id="SVGID_62_" gradientUnits="userSpaceOnUse" x1="227.2261" y1="197.3057" x2="202.2261" y2="197.3057" gradientTransform="matrix(0.75 0 0 -0.75 102.8885 650.462)">
		<stop  offset="0" style="stop-color:#A64B4E"/>
		<stop  offset="0.01" style="stop-color:#EF9A9C"/>
		<stop  offset="0.02" style="stop-color:#D86468"/>
		<stop  offset="0.64" style="stop-color:#D56266"/>
		<stop  offset="0.99" style="stop-color:#D06063"/>
		<stop  offset="1" style="stop-color:#9A4548"/>
	</linearGradient>
	<path fill="url(#SVGID_62_)" d="M254.559,499.484h18.75v6h-18.75V499.484z"/>
	
		<linearGradient id="SVGID_63_" gradientUnits="userSpaceOnUse" x1="227.2275" y1="197.3057" x2="202.2275" y2="197.3057" gradientTransform="matrix(0.75 0 0 -0.75 137.4813 650.462)">
		<stop  offset="0" style="stop-color:#A64B4E"/>
		<stop  offset="0.01" style="stop-color:#EF9A9C"/>
		<stop  offset="0.02" style="stop-color:#D86468"/>
		<stop  offset="0.64" style="stop-color:#D56266"/>
		<stop  offset="0.99" style="stop-color:#D06063"/>
		<stop  offset="1" style="stop-color:#9A4548"/>
	</linearGradient>
	<path fill="url(#SVGID_63_)" d="M289.152,499.484h18.75v6h-18.75V499.484z"/>
	
		<linearGradient id="SVGID_64_" gradientUnits="userSpaceOnUse" x1="227.2227" y1="197.3057" x2="202.2227" y2="197.3057" gradientTransform="matrix(0.75 0 0 -0.75 172.0741 650.462)">
		<stop  offset="0" style="stop-color:#A64B4E"/>
		<stop  offset="0.01" style="stop-color:#EF9A9C"/>
		<stop  offset="0.02" style="stop-color:#D86468"/>
		<stop  offset="0.64" style="stop-color:#D56266"/>
		<stop  offset="0.99" style="stop-color:#D06063"/>
		<stop  offset="1" style="stop-color:#9A4548"/>
	</linearGradient>
	<path fill="url(#SVGID_64_)" d="M323.742,499.484h18.75v6h-18.75V499.484z"/>
	
		<linearGradient id="SVGID_65_" gradientUnits="userSpaceOnUse" x1="227.2241" y1="197.3057" x2="202.2241" y2="197.3057" gradientTransform="matrix(0.75 0 0 -0.75 206.6669 650.462)">
		<stop  offset="0" style="stop-color:#A64B4E"/>
		<stop  offset="0.01" style="stop-color:#EF9A9C"/>
		<stop  offset="0.02" style="stop-color:#D86468"/>
		<stop  offset="0.64" style="stop-color:#D56266"/>
		<stop  offset="0.99" style="stop-color:#D06063"/>
		<stop  offset="1" style="stop-color:#9A4548"/>
	</linearGradient>
	<path fill="url(#SVGID_65_)" d="M358.335,499.484h18.75v6h-18.75V499.484z"/>
	
		<linearGradient id="SVGID_66_" gradientUnits="userSpaceOnUse" x1="227.2256" y1="197.3057" x2="202.2256" y2="197.3057" gradientTransform="matrix(0.75 0 0 -0.75 241.2596 650.462)">
		<stop  offset="0" style="stop-color:#A64B4E"/>
		<stop  offset="0.01" style="stop-color:#EF9A9C"/>
		<stop  offset="0.02" style="stop-color:#D86468"/>
		<stop  offset="0.64" style="stop-color:#D56266"/>
		<stop  offset="0.99" style="stop-color:#D06063"/>
		<stop  offset="1" style="stop-color:#9A4548"/>
	</linearGradient>
	<path fill="url(#SVGID_66_)" d="M392.929,499.484h18.75v6h-18.75V499.484z"/>
	
		<linearGradient id="SVGID_67_" gradientUnits="userSpaceOnUse" x1="227.2246" y1="197.3047" x2="202.2246" y2="197.3047" gradientTransform="matrix(0.75 0 0 -0.75 67.2645 679.9073)">
		<stop  offset="0" style="stop-color:#A64B4E"/>
		<stop  offset="0.01" style="stop-color:#EF9A9C"/>
		<stop  offset="0.02" style="stop-color:#D86468"/>
		<stop  offset="0.64" style="stop-color:#D56266"/>
		<stop  offset="0.99" style="stop-color:#D06063"/>
		<stop  offset="1" style="stop-color:#9A4548"/>
	</linearGradient>
	<path fill="url(#SVGID_67_)" d="M218.934,528.929h18.75v6h-18.75V528.929z"/>
	
		<linearGradient id="SVGID_68_" gradientUnits="userSpaceOnUse" x1="227.2261" y1="197.3047" x2="202.2261" y2="197.3047" gradientTransform="matrix(0.75 0 0 -0.75 101.8573 679.9073)">
		<stop  offset="0" style="stop-color:#A64B4E"/>
		<stop  offset="0.01" style="stop-color:#EF9A9C"/>
		<stop  offset="0.02" style="stop-color:#D86468"/>
		<stop  offset="0.64" style="stop-color:#D56266"/>
		<stop  offset="0.99" style="stop-color:#D06063"/>
		<stop  offset="1" style="stop-color:#9A4548"/>
	</linearGradient>
	<path fill="url(#SVGID_68_)" d="M253.527,528.929h18.75v6h-18.75V528.929z"/>
	
		<linearGradient id="SVGID_69_" gradientUnits="userSpaceOnUse" x1="227.2275" y1="197.3047" x2="202.2275" y2="197.3047" gradientTransform="matrix(0.75 0 0 -0.75 136.4501 679.9073)">
		<stop  offset="0" style="stop-color:#A64B4E"/>
		<stop  offset="0.01" style="stop-color:#EF9A9C"/>
		<stop  offset="0.02" style="stop-color:#D86468"/>
		<stop  offset="0.64" style="stop-color:#D56266"/>
		<stop  offset="0.99" style="stop-color:#D06063"/>
		<stop  offset="1" style="stop-color:#9A4548"/>
	</linearGradient>
	<path fill="url(#SVGID_69_)" d="M288.121,528.929h18.75v6h-18.75V528.929z"/>
	
		<linearGradient id="SVGID_70_" gradientUnits="userSpaceOnUse" x1="227.2227" y1="197.3047" x2="202.2227" y2="197.3047" gradientTransform="matrix(0.75 0 0 -0.75 171.0428 679.9073)">
		<stop  offset="0" style="stop-color:#A64B4E"/>
		<stop  offset="0.01" style="stop-color:#EF9A9C"/>
		<stop  offset="0.02" style="stop-color:#D86468"/>
		<stop  offset="0.64" style="stop-color:#D56266"/>
		<stop  offset="0.99" style="stop-color:#D06063"/>
		<stop  offset="1" style="stop-color:#9A4548"/>
	</linearGradient>
	<path fill="url(#SVGID_70_)" d="M322.71,528.929h18.75v6h-18.75V528.929z"/>
	
		<linearGradient id="SVGID_71_" gradientUnits="userSpaceOnUse" x1="227.2241" y1="197.3047" x2="202.2241" y2="197.3047" gradientTransform="matrix(0.75 0 0 -0.75 205.6356 679.9073)">
		<stop  offset="0" style="stop-color:#A64B4E"/>
		<stop  offset="0.01" style="stop-color:#EF9A9C"/>
		<stop  offset="0.02" style="stop-color:#D86468"/>
		<stop  offset="0.64" style="stop-color:#D56266"/>
		<stop  offset="0.99" style="stop-color:#D06063"/>
		<stop  offset="1" style="stop-color:#9A4548"/>
	</linearGradient>
	<path fill="url(#SVGID_71_)" d="M357.304,528.929h18.75v6h-18.75V528.929z"/>
	
		<linearGradient id="SVGID_72_" gradientUnits="userSpaceOnUse" x1="227.2256" y1="197.3047" x2="202.2256" y2="197.3047" gradientTransform="matrix(0.75 0 0 -0.75 240.2284 679.9073)">
		<stop  offset="0" style="stop-color:#A64B4E"/>
		<stop  offset="0.01" style="stop-color:#EF9A9C"/>
		<stop  offset="0.02" style="stop-color:#D86468"/>
		<stop  offset="0.64" style="stop-color:#D56266"/>
		<stop  offset="0.99" style="stop-color:#D06063"/>
		<stop  offset="1" style="stop-color:#9A4548"/>
	</linearGradient>
	<path fill="url(#SVGID_72_)" d="M391.898,528.929h18.75v6h-18.75V528.929z"/>
</g>
</svg>
