<?xml version="1.0" encoding="utf-8"?>
<!-- Generator: Adobe Illustrator 16.0.0, SVG Export Plug-In . SVG Version: 6.00 Build 0)  -->
<!DOCTYPE svg PUBLIC "-//W3C//DTD SVG 1.1//EN" "http://www.w3.org/Graphics/SVG/1.1/DTD/svg11.dtd">
<svg preserveAspectRatio="none"   version="1.1" id="图层_1" xmlns="http://www.w3.org/2000/svg" xmlns:xlink="http://www.w3.org/1999/xlink" x="0px" y="0px"
	 width="562.424px" height="562.515px" viewBox="-0.5 5.215 562.424 562.515" enable-background="new -0.5 5.215 562.424 562.515"
	 xml:space="preserve">
<g id="surface631">
	<path fill="#BC873D" stroke="#683D14" stroke-linejoin="bevel" stroke-miterlimit="10" d="M0,71.133h495v495.75H0V71.133z"/>
	<path fill="none" stroke="#683D14" stroke-linejoin="bevel" stroke-miterlimit="10" d="M182.203,123.707l-0.008,392.25"/>
	<path fill="none" stroke="#683D14" stroke-linejoin="bevel" stroke-miterlimit="10" d="M247.516,123.707l-0.008,392.25"/>
	<path fill="none" stroke="#683D14" stroke-linejoin="bevel" stroke-miterlimit="10" d="M314.324,123.707l-0.008,392.25"/>
	<path fill="none" stroke="#683D14" stroke-linejoin="bevel" stroke-miterlimit="10" d="M378.144,123.707l-0.008,392.25"/>
	<path fill="none" stroke="#683D14" stroke-linejoin="bevel" stroke-miterlimit="10" d="M116.891,123.707l-0.008,392.25"/>
	<path fill="#A46C1C" stroke="#683D14" stroke-linejoin="bevel" stroke-miterlimit="10" d="M0,125.133v-54h495v54H0z"/>
	<path fill="#A46C1C" stroke="#683D14" stroke-linejoin="bevel" stroke-miterlimit="10" d="M0,567.23v-54h495v54H0z"/>
	<path fill="#A46C1C" stroke="#683D14" stroke-linejoin="bevel" stroke-miterlimit="10" d="M0,71.133h54v495.75H0V71.133z"/>
	<path fill="#A46C1C" stroke="#683D14" stroke-linejoin="bevel" stroke-miterlimit="10" d="M441.394,71.133h54v495.75h-54V71.133z"
		/>
	<path fill="#8A5B17" stroke="#683D14" stroke-linejoin="bevel" stroke-miterlimit="10" d="M495.074,70.965l66-65.25v495.75
		l-66,65.25V70.965z"/>
	<path fill="#BC873D" stroke="#683D14" stroke-linejoin="bevel" stroke-miterlimit="10" d="M66,5.715h495l-66,66H0L66,5.715z"/>
	<path fill="#AE721D" stroke="#683D14" stroke-linejoin="bevel" stroke-miterlimit="10" d="M71.836,5.715h489.75l-18.75,17.25
		H53.086L71.836,5.715z"/>
	<path fill="#AE721D" stroke="#683D14" stroke-linejoin="bevel" stroke-miterlimit="10" d="M18.75,53.809h495L495,71.059H0
		L18.75,53.809z"/>
	<path fill="#AE721D" stroke="#683D14" stroke-linejoin="bevel" stroke-miterlimit="10" d="M66,5.715h53.25l-66,66H0L66,5.715z"/>
	<path fill="#AE721D" stroke="#683D14" stroke-linejoin="bevel" stroke-miterlimit="10" d="M507.988,5.715h53.25l-66,66h-53.25
		L507.988,5.715z"/>
	<path fill="#865816" stroke="#683D14" stroke-linejoin="bevel" stroke-miterlimit="10" d="M495.074,70.965l66-65.25v54l-66,65.25
		V70.965z"/>
	<path fill="#865816" stroke="#683D14" stroke-linejoin="bevel" stroke-miterlimit="10" d="M495.074,513.062l66-65.25v54l-66,65.25
		V513.062z"/>
	<path fill="#865816" stroke="#683D14" stroke-linejoin="bevel" stroke-miterlimit="10" d="M495.078,70.93l22.5-22.5v495.75
		l-22.5,22.5V70.93z"/>
	<path fill="#865816" stroke="#683D14" stroke-linejoin="bevel" stroke-miterlimit="10" d="M543.093,22.965l18-17.25v495.75
		l-18,17.25V22.965z"/>
</g>
</svg>
