<?xml version="1.0" encoding="utf-8"?>
<!-- Generator: Adobe Illustrator 16.0.0, SVG Export Plug-In . SVG Version: 6.00 Build 0)  -->
<!DOCTYPE svg PUBLIC "-//W3C//DTD SVG 1.1//EN" "http://www.w3.org/Graphics/SVG/1.1/DTD/svg11.dtd">
<svg preserveAspectRatio="none"   version="1.1" id="图层_1" xmlns="http://www.w3.org/2000/svg" xmlns:xlink="http://www.w3.org/1999/xlink" x="0px" y="0px"
	 width="567.25px" height="380.738px" viewBox="-0.16 184.375 567.25 380.738"
	 enable-background="new -0.16 184.375 567.25 380.738" xml:space="preserve">
<g id="surface321">
	<path fill="#5B9899" stroke="#D8D8D8" stroke-width="0.25" stroke-linejoin="bevel" stroke-miterlimit="10" d="M3.715,184.5h559.5
		c2.25,0,3.75,1.551,3.75,3.461V561.75c0,1.5-1.574,3.238-3.496,3.238L3.715,564.75c-2.25,0-3.75-1.313-3.75-3.223V188.25
		c0-2.25,1.574-3.75,3.496-3.75H3.715z"/>
	<path fill="#48787A" d="M24.715,212.969h517.5v323.25h-517.5V212.969z"/>
	<path fill="#6AA5A6" d="M30.445,219.09h506.25v311.25H30.445V219.09z"/>
	
		<linearGradient id="SVGID_1_" gradientUnits="userSpaceOnUse" x1="202.228" y1="-6.6958" x2="232.228" y2="-6.6958" gradientTransform="matrix(0.75 0 0 -0.75 -83.0377 369.63)">
		<stop  offset="0" style="stop-color:#3F6C6E"/>
		<stop  offset="0.21" style="stop-color:#589395"/>
		<stop  offset="0.22" style="stop-color:#6BA2A4"/>
		<stop  offset="0.72" style="stop-color:#589395"/>
		<stop  offset="0.76" style="stop-color:#6BA2A4"/>
		<stop  offset="1" style="stop-color:#4B7F81"/>
	</linearGradient>
	<path fill="url(#SVGID_1_)" stroke="#548C8E" stroke-width="0.25" stroke-linejoin="bevel" stroke-miterlimit="10" d="
		M68.633,218.652h22.5v312h-22.5V218.652z"/>
	
		<linearGradient id="SVGID_2_" gradientUnits="userSpaceOnUse" x1="202.2271" y1="-6.6958" x2="232.2271" y2="-6.6958" gradientTransform="matrix(0.75 0 0 -0.75 -3.0333 369.63)">
		<stop  offset="0" style="stop-color:#3F6C6E"/>
		<stop  offset="0.21" style="stop-color:#589395"/>
		<stop  offset="0.22" style="stop-color:#6BA2A4"/>
		<stop  offset="0.72" style="stop-color:#589395"/>
		<stop  offset="0.76" style="stop-color:#6BA2A4"/>
		<stop  offset="1" style="stop-color:#4B7F81"/>
	</linearGradient>
	<path fill="url(#SVGID_2_)" stroke="#548C8E" stroke-width="0.25" stroke-linejoin="bevel" stroke-miterlimit="10" d="
		M148.637,218.652h22.5v312h-22.5V218.652z"/>
	
		<linearGradient id="SVGID_3_" gradientUnits="userSpaceOnUse" x1="202.2246" y1="-6.6958" x2="232.2246" y2="-6.6958" gradientTransform="matrix(0.75 0 0 -0.75 79.7924 369.63)">
		<stop  offset="0" style="stop-color:#3F6C6E"/>
		<stop  offset="0.21" style="stop-color:#589395"/>
		<stop  offset="0.22" style="stop-color:#6BA2A4"/>
		<stop  offset="0.72" style="stop-color:#589395"/>
		<stop  offset="0.76" style="stop-color:#6BA2A4"/>
		<stop  offset="1" style="stop-color:#4B7F81"/>
	</linearGradient>
	<path fill="url(#SVGID_3_)" stroke="#548C8E" stroke-width="0.25" stroke-linejoin="bevel" stroke-miterlimit="10" d="
		M231.461,218.652h22.5v312h-22.5V218.652z"/>
	
		<linearGradient id="SVGID_4_" gradientUnits="userSpaceOnUse" x1="202.2271" y1="-6.6958" x2="232.2271" y2="-6.6958" gradientTransform="matrix(0.75 0 0 -0.75 161.2079 369.63)">
		<stop  offset="0" style="stop-color:#3F6C6E"/>
		<stop  offset="0.21" style="stop-color:#589395"/>
		<stop  offset="0.22" style="stop-color:#6BA2A4"/>
		<stop  offset="0.72" style="stop-color:#589395"/>
		<stop  offset="0.76" style="stop-color:#6BA2A4"/>
		<stop  offset="1" style="stop-color:#4B7F81"/>
	</linearGradient>
	<path fill="url(#SVGID_4_)" stroke="#548C8E" stroke-width="0.25" stroke-linejoin="bevel" stroke-miterlimit="10" d="
		M312.878,218.652h22.5v312h-22.5V218.652z"/>
	
		<linearGradient id="SVGID_5_" gradientUnits="userSpaceOnUse" x1="202.2266" y1="-6.6958" x2="232.2266" y2="-6.6958" gradientTransform="matrix(0.75 0 0 -0.75 242.6229 369.63)">
		<stop  offset="0" style="stop-color:#3F6C6E"/>
		<stop  offset="0.21" style="stop-color:#589395"/>
		<stop  offset="0.22" style="stop-color:#6BA2A4"/>
		<stop  offset="0.72" style="stop-color:#589395"/>
		<stop  offset="0.76" style="stop-color:#6BA2A4"/>
		<stop  offset="1" style="stop-color:#4B7F81"/>
	</linearGradient>
	<path fill="url(#SVGID_5_)" stroke="#548C8E" stroke-width="0.25" stroke-linejoin="bevel" stroke-miterlimit="10" d="
		M394.292,218.652h22.5v312h-22.5V218.652z"/>
	
		<linearGradient id="SVGID_6_" gradientUnits="userSpaceOnUse" x1="202.2251" y1="-6.6958" x2="232.2251" y2="-6.6958" gradientTransform="matrix(0.75 0 0 -0.75 324.038 369.63)">
		<stop  offset="0" style="stop-color:#3F6C6E"/>
		<stop  offset="0.21" style="stop-color:#589395"/>
		<stop  offset="0.22" style="stop-color:#6BA2A4"/>
		<stop  offset="0.72" style="stop-color:#589395"/>
		<stop  offset="0.76" style="stop-color:#6BA2A4"/>
		<stop  offset="1" style="stop-color:#4B7F81"/>
	</linearGradient>
	<path fill="url(#SVGID_6_)" stroke="#548C8E" stroke-width="0.25" stroke-linejoin="bevel" stroke-miterlimit="10" d="
		M475.707,218.652h22.5v312h-22.5V218.652z"/>
	<path fill="#FFFFFF" fill-opacity="0.1137" d="M459.425,213.719l82.5-0.75v323.25l-428.25-0.75L459.425,213.719z"/>
	<path fill="none" stroke="#48787A" stroke-linejoin="bevel" stroke-miterlimit="10" d="M0.941,185.723l24,27"/>
	<path fill="none" stroke="#48787A" stroke-linejoin="bevel" stroke-miterlimit="10" d="M542.187,536.613l24,27"/>
	<path fill="none" stroke="#48787A" stroke-linejoin="bevel" stroke-miterlimit="10" d="M0.895,563.781l24-27"/>
	<path fill="none" stroke="#48787A" stroke-linejoin="bevel" stroke-miterlimit="10" d="M542.187,212.871l24-27"/>
	<path fill="#48787A" stroke="#48787A" stroke-width="0.25" stroke-linejoin="bevel" stroke-miterlimit="10" d="M83.23,564.761
		l12-18h56.25l12,18H83.23z"/>
	<path fill="#5B9899" stroke="#5B9899" stroke-width="0.25" stroke-linejoin="bevel" stroke-miterlimit="10" d="M88.535,564.902
		l10.5-15.75h48.75l10.5,15.75H88.535z"/>
	<path fill="#48787A" stroke="#48787A" stroke-width="0.25" stroke-linejoin="bevel" stroke-miterlimit="10" d="M418.925,564.761
		l12-18h56.25l12,18H418.925z"/>
	<path fill="#5B9899" stroke="#5B9899" stroke-width="0.25" stroke-linejoin="bevel" stroke-miterlimit="10" d="M424.234,564.902
		l10.5-15.75h48.75l10.5,15.75H424.234z"/>
</g>
</svg>
