<?xml version="1.0" encoding="utf-8"?>
<!-- Generator: Adobe Illustrator 16.0.0, SVG Export Plug-In . SVG Version: 6.00 Build 0)  -->
<!DOCTYPE svg PUBLIC "-//W3C//DTD SVG 1.1//EN" "http://www.w3.org/Graphics/SVG/1.1/DTD/svg11.dtd">
<svg preserveAspectRatio="none"   version="1.1" id="图层_1" xmlns="http://www.w3.org/2000/svg" xmlns:xlink="http://www.w3.org/1999/xlink" x="0px" y="0px"
	 width="566.992px" height="340.175px" viewBox="-0.035 223.746 566.992 340.175"
	 enable-background="new -0.035 223.746 566.992 340.175" xml:space="preserve">
<g id="surface331">
	
		<linearGradient id="SVGID_1_" gradientUnits="userSpaceOnUse" x1="142.9482" y1="216.6455" x2="142.9482" y2="211.6475" gradientTransform="matrix(0.6495 -0.375 -0.375 -0.6495 35.7795 444.5511)">
		<stop  offset="0" style="stop-color:#AE4F52"/>
		<stop  offset="0.15" style="stop-color:#EC7D80"/>
		<stop  offset="0.25" style="stop-color:#F1ADAE"/>
		<stop  offset="0.52" style="stop-color:#CE5E62"/>
		<stop  offset="0.69" style="stop-color:#B75356"/>
		<stop  offset="0.8" style="stop-color:#AD4E51"/>
		<stop  offset="0.92" style="stop-color:#A3494C"/>
		<stop  offset="1" style="stop-color:#BB5559"/>
	</linearGradient>
	<path fill="url(#SVGID_1_)" d="M69.793,237.293l1.875,3.246l-44.816,25.875l-1.875-3.246L69.793,237.293z"/>
	
		<linearGradient id="SVGID_2_" gradientUnits="userSpaceOnUse" x1="209.2266" y1="195.8047" x2="202.2266" y2="195.8047" gradientTransform="matrix(0.75 0 0 -0.75 10.7552 601.7902)">
		<stop  offset="0" style="stop-color:#B3A593"/>
		<stop  offset="0.01" style="stop-color:#FDEEDA"/>
		<stop  offset="0.02" style="stop-color:#E9D7BF"/>
		<stop  offset="0.64" style="stop-color:#E5D3BC"/>
		<stop  offset="0.99" style="stop-color:#E0CEB8"/>
		<stop  offset="1" style="stop-color:#A69988"/>
	</linearGradient>
	<path fill="url(#SVGID_2_)" d="M162.426,450.812h5.25v8.25h-5.25V450.812z"/>
	<path fill="none" stroke="#000000" stroke-width="0.25" stroke-linejoin="bevel" stroke-miterlimit="10" d="M160.469,289.019h2.25
		v204.75h-2.25V289.019z"/>
	<path fill="none" stroke="#000000" stroke-width="0.25" stroke-linejoin="bevel" stroke-miterlimit="10" d="M167.277,289.019h2.25
		v204.75h-2.25V289.019z"/>
	
		<linearGradient id="SVGID_3_" gradientUnits="userSpaceOnUse" x1="249.2256" y1="201.3037" x2="249.2256" y2="192.3037" gradientTransform="matrix(0.75 0 0 -0.75 -151.7042 411.2716)">
		<stop  offset="0" style="stop-color:#A64B4E"/>
		<stop  offset="0.01" style="stop-color:#EF9A9C"/>
		<stop  offset="0.02" style="stop-color:#D86468"/>
		<stop  offset="0.64" style="stop-color:#D56266"/>
		<stop  offset="0.99" style="stop-color:#D06063"/>
		<stop  offset="1" style="stop-color:#9A4548"/>
	</linearGradient>
	<path fill="url(#SVGID_3_)" d="M70.465,260.293v6.75h-70.5v-6.75H70.465z"/>
	
		<linearGradient id="SVGID_4_" gradientUnits="userSpaceOnUse" x1="214.2256" y1="201.3066" x2="214.2256" y2="183.3076" gradientTransform="matrix(0.75 0 0 -0.75 -23.4191 430.7999)">
		<stop  offset="0" style="stop-color:#403E3E"/>
		<stop  offset="0.15" style="stop-color:#6D6C6C"/>
		<stop  offset="0.25" style="stop-color:#A6A5A5"/>
		<stop  offset="0.52" style="stop-color:#4D4B4B"/>
		<stop  offset="0.69" style="stop-color:#434242"/>
		<stop  offset="0.8" style="stop-color:#3F3E3E"/>
		<stop  offset="0.92" style="stop-color:#3B3A3A"/>
		<stop  offset="1" style="stop-color:#454444"/>
	</linearGradient>
	<path fill="url(#SVGID_4_)" d="M129.75,279.82h15c0.75,0,1.324,0.535,1.324,1.195l0.176,10.804c0,0.75-0.707,1.445-1.363,1.445
		l-15.137,0.055c-0.75,0-1.5-0.59-1.5-1.246V281.32c0-0.75,0.531-1.5,1.188-1.5H129.75z"/>
	
		<linearGradient id="SVGID_5_" gradientUnits="userSpaceOnUse" x1="533.2222" y1="201.3057" x2="533.2222" y2="167.3047" gradientTransform="matrix(0.75 0 0 -0.75 -81.2106 381.2872)">
		<stop  offset="0" style="stop-color:#A64B4E"/>
		<stop  offset="0.01" style="stop-color:#EF9A9C"/>
		<stop  offset="0.02" style="stop-color:#D86468"/>
		<stop  offset="0.64" style="stop-color:#D56266"/>
		<stop  offset="0.99" style="stop-color:#D06063"/>
		<stop  offset="1" style="stop-color:#9A4548"/>
	</linearGradient>
	<path fill="url(#SVGID_5_)" d="M70.457,230.309h462.75l33.75,17.25v8.25h-496.5V230.309z"/>
	
		<linearGradient id="SVGID_6_" gradientUnits="userSpaceOnUse" x1="533.2222" y1="201.3066" x2="533.2222" y2="186.3057" gradientTransform="matrix(0.75 0 0 -0.75 -81.2106 406.8966)">
		<stop  offset="0" style="stop-color:#A64B4E"/>
		<stop  offset="0.01" style="stop-color:#EF9A9C"/>
		<stop  offset="0.02" style="stop-color:#D86468"/>
		<stop  offset="0.64" style="stop-color:#D56266"/>
		<stop  offset="0.99" style="stop-color:#D06063"/>
		<stop  offset="1" style="stop-color:#9A4548"/>
	</linearGradient>
	<path fill="url(#SVGID_6_)" d="M70.457,255.918h496.5v11.25h-496.5V255.918z"/>
	
		<linearGradient id="SVGID_7_" gradientUnits="userSpaceOnUse" x1="257.6035" y1="172.3394" x2="202.2236" y2="172.3394" gradientTransform="matrix(0.75 0 0 -0.75 -82.1407 374.7775)">
		<stop  offset="0" style="stop-color:#A64B4E"/>
		<stop  offset="0.01" style="stop-color:#EF9A9C"/>
		<stop  offset="0.02" style="stop-color:#D86468"/>
		<stop  offset="0.64" style="stop-color:#D56266"/>
		<stop  offset="0.99" style="stop-color:#D06063"/>
		<stop  offset="1" style="stop-color:#9A4548"/>
	</linearGradient>
	<path fill="url(#SVGID_7_)" d="M71.027,223.801h39c0.75,0,1.035,0.48,1.035,1.141l-0.285,42.359h-41.25v-42
		c0-0.75,0.48-1.555,1.137-1.555L71.027,223.801z"/>
	
		<linearGradient id="SVGID_8_" gradientUnits="userSpaceOnUse" x1="257.2227" y1="5.3066" x2="202.2227" y2="5.3066" gradientTransform="matrix(0.75 0 0 -0.75 -82.1671 417.9943)">
		<stop  offset="0" style="stop-color:#A64B4E"/>
		<stop  offset="0.01" style="stop-color:#EF9A9C"/>
		<stop  offset="0.02" style="stop-color:#D86468"/>
		<stop  offset="0.64" style="stop-color:#D56266"/>
		<stop  offset="0.99" style="stop-color:#D06063"/>
		<stop  offset="1" style="stop-color:#9A4548"/>
	</linearGradient>
	<path fill="url(#SVGID_8_)" d="M110.75,267.016l-10.5,294H80l-10.5-294H110.75z"/>
	
		<linearGradient id="SVGID_9_" gradientUnits="userSpaceOnUse" x1="218.2261" y1="201.3047" x2="218.2261" y2="158.3047" gradientTransform="matrix(0.75 0 0 -0.75 -73.3097 599.8263)">
		<stop  offset="0" style="stop-color:#A64B4E"/>
		<stop  offset="0.01" style="stop-color:#EF9A9C"/>
		<stop  offset="0.02" style="stop-color:#D86468"/>
		<stop  offset="0.64" style="stop-color:#D56266"/>
		<stop  offset="0.99" style="stop-color:#D06063"/>
		<stop  offset="1" style="stop-color:#9A4548"/>
	</linearGradient>
	<path fill="url(#SVGID_9_)" d="M102.359,448.847v32.25h-24v-32.25H102.359z"/>
	
		<linearGradient id="SVGID_10_" gradientUnits="userSpaceOnUse" x1="253.2266" y1="182.8027" x2="202.2266" y2="182.8027" gradientTransform="matrix(0.75 0 0 -0.75 -86.3815 666.0431)">
		<stop  offset="0" style="stop-color:#A64B4E"/>
		<stop  offset="0.01" style="stop-color:#EF9A9C"/>
		<stop  offset="0.02" style="stop-color:#D86468"/>
		<stop  offset="0.64" style="stop-color:#D56266"/>
		<stop  offset="0.99" style="stop-color:#D06063"/>
		<stop  offset="1" style="stop-color:#9A4548"/>
	</linearGradient>
	<path fill="url(#SVGID_10_)" d="M65.289,515.066h38.25v27.75h-38.25V515.066z"/>
	
		<linearGradient id="SVGID_11_" gradientUnits="userSpaceOnUse" x1="253.2266" y1="197.8027" x2="202.2266" y2="197.8027" gradientTransform="matrix(0.75 0 0 -0.75 -86.3815 666.0431)">
		<stop  offset="0" style="stop-color:#983D47"/>
		<stop  offset="0.01" style="stop-color:#E09197"/>
		<stop  offset="0.02" style="stop-color:#C6525E"/>
		<stop  offset="0.64" style="stop-color:#C3515D"/>
		<stop  offset="0.99" style="stop-color:#BE4F5A"/>
		<stop  offset="1" style="stop-color:#8D3841"/>
	</linearGradient>
	<path fill="url(#SVGID_11_)" d="M65.289,515.066h38.25v5.25h-38.25V515.066z"/>
	
		<linearGradient id="SVGID_12_" gradientUnits="userSpaceOnUse" x1="241.2266" y1="187.3066" x2="202.2266" y2="187.3066" gradientTransform="matrix(0.75 0 0 -0.75 -77.2716 693.9015)">
		<stop  offset="0" style="stop-color:#A64B4E"/>
		<stop  offset="0.01" style="stop-color:#EF9A9C"/>
		<stop  offset="0.02" style="stop-color:#D86468"/>
		<stop  offset="0.64" style="stop-color:#D56266"/>
		<stop  offset="0.99" style="stop-color:#D06063"/>
		<stop  offset="1" style="stop-color:#9A4548"/>
	</linearGradient>
	<path fill="url(#SVGID_12_)" d="M74.398,542.921h29.25v21h-29.25V542.921z"/>
	
		<linearGradient id="SVGID_13_" gradientUnits="userSpaceOnUse" x1="217.5332" y1="203.4546" x2="208.1925" y2="177.7911" gradientTransform="matrix(0.75 0 0 -0.75 -70.524 686.2609)">
		<stop  offset="0" style="stop-color:#AE4F52"/>
		<stop  offset="0.15" style="stop-color:#EC7D80"/>
		<stop  offset="0.25" style="stop-color:#F1ADAE"/>
		<stop  offset="0.52" style="stop-color:#CE5E62"/>
		<stop  offset="0.69" style="stop-color:#B75356"/>
		<stop  offset="0.8" style="stop-color:#AD4E51"/>
		<stop  offset="0.92" style="stop-color:#A3494C"/>
		<stop  offset="1" style="stop-color:#BB5559"/>
	</linearGradient>
	<path fill="url(#SVGID_13_)" d="M81.145,543.535c0-4.5,3.563-8.25,7.957-8.25c4.043,0,7.957,3.582,7.957,8
		c-0.164,4.75-3.563,8.004-7.957,8.004c-4.207-0.254-7.957-3.582-7.957-8.004V543.535z"/>
	
		<linearGradient id="SVGID_14_" gradientUnits="userSpaceOnUse" x1="221.1885" y1="172.3394" x2="165.7041" y2="172.3394" gradientTransform="matrix(-0.75 0 0 -0.75 595.2706 374.7775)">
		<stop  offset="0" style="stop-color:#A64B4E"/>
		<stop  offset="0.01" style="stop-color:#EF9A9C"/>
		<stop  offset="0.02" style="stop-color:#D86468"/>
		<stop  offset="0.64" style="stop-color:#D56266"/>
		<stop  offset="0.99" style="stop-color:#D06063"/>
		<stop  offset="1" style="stop-color:#9A4548"/>
	</linearGradient>
	<path fill="url(#SVGID_14_)" d="M469.492,223.801h-39c-0.75,0-1.113,0.48-1.113,1.141l0.363,42.359h41.25v-42
		c0-0.75-0.52-1.555-1.176-1.555L469.492,223.801z"/>
	
		<linearGradient id="SVGID_15_" gradientUnits="userSpaceOnUse" x1="220.7021" y1="5.3066" x2="165.7021" y2="5.3066" gradientTransform="matrix(-0.75 0 0 -0.75 595.257 417.9943)">
		<stop  offset="0" style="stop-color:#A64B4E"/>
		<stop  offset="0.01" style="stop-color:#EF9A9C"/>
		<stop  offset="0.02" style="stop-color:#D86468"/>
		<stop  offset="0.64" style="stop-color:#D56266"/>
		<stop  offset="0.99" style="stop-color:#D06063"/>
		<stop  offset="1" style="stop-color:#9A4548"/>
	</linearGradient>
	<path fill="url(#SVGID_15_)" d="M429.73,267.016l10.5,294h20.25l10.5-294H429.73z"/>
	
		<linearGradient id="SVGID_16_" gradientUnits="userSpaceOnUse" x1="216.7021" y1="182.8027" x2="165.7021" y2="182.8027" gradientTransform="matrix(-0.75 0 0 -0.75 599.4708 666.0431)">
		<stop  offset="0" style="stop-color:#A64B4E"/>
		<stop  offset="0.01" style="stop-color:#EF9A9C"/>
		<stop  offset="0.02" style="stop-color:#D86468"/>
		<stop  offset="0.64" style="stop-color:#D56266"/>
		<stop  offset="0.99" style="stop-color:#D06063"/>
		<stop  offset="1" style="stop-color:#9A4548"/>
	</linearGradient>
	<path fill="url(#SVGID_16_)" d="M475.195,515.066h-38.25v27.75h38.25V515.066z"/>
	
		<linearGradient id="SVGID_17_" gradientUnits="userSpaceOnUse" x1="216.7021" y1="197.8027" x2="165.7021" y2="197.8027" gradientTransform="matrix(-0.75 0 0 -0.75 599.4708 666.0431)">
		<stop  offset="0" style="stop-color:#983D47"/>
		<stop  offset="0.01" style="stop-color:#E09197"/>
		<stop  offset="0.02" style="stop-color:#C6525E"/>
		<stop  offset="0.64" style="stop-color:#C3515D"/>
		<stop  offset="0.99" style="stop-color:#BE4F5A"/>
		<stop  offset="1" style="stop-color:#8D3841"/>
	</linearGradient>
	<path fill="url(#SVGID_17_)" d="M475.195,515.066h-38.25v5.25h38.25V515.066z"/>
	
		<linearGradient id="SVGID_18_" gradientUnits="userSpaceOnUse" x1="204.7061" y1="187.3066" x2="165.7061" y2="187.3066" gradientTransform="matrix(-0.75 0 0 -0.75 590.3615 693.9005)">
		<stop  offset="0" style="stop-color:#A64B4E"/>
		<stop  offset="0.01" style="stop-color:#EF9A9C"/>
		<stop  offset="0.02" style="stop-color:#D86468"/>
		<stop  offset="0.64" style="stop-color:#D56266"/>
		<stop  offset="0.99" style="stop-color:#D06063"/>
		<stop  offset="1" style="stop-color:#9A4548"/>
	</linearGradient>
	<path fill="url(#SVGID_18_)" d="M466.082,542.921h-29.25v21h29.25V542.921z"/>
	
		<linearGradient id="SVGID_19_" gradientUnits="userSpaceOnUse" x1="217.5322" y1="203.4551" x2="208.1915" y2="177.7916" gradientTransform="matrix(0.75 0 0 -0.75 291.7538 686.2609)">
		<stop  offset="0" style="stop-color:#AE4F52"/>
		<stop  offset="0.15" style="stop-color:#EC7D80"/>
		<stop  offset="0.25" style="stop-color:#F1ADAE"/>
		<stop  offset="0.52" style="stop-color:#CE5E62"/>
		<stop  offset="0.69" style="stop-color:#B75356"/>
		<stop  offset="0.8" style="stop-color:#AD4E51"/>
		<stop  offset="0.92" style="stop-color:#A3494C"/>
		<stop  offset="1" style="stop-color:#BB5559"/>
	</linearGradient>
	<path fill="url(#SVGID_19_)" d="M443.421,543.535c0-4.5,3.563-8.25,7.957-8.25c4.043,0,7.957,3.582,7.957,8
		c-0.164,4.75-3.563,8.004-7.957,8.004c-4.207-0.254-7.957-3.582-7.957-8.004V543.535z"/>
	
		<linearGradient id="SVGID_20_" gradientUnits="userSpaceOnUse" x1="227.2275" y1="191.3057" x2="202.2275" y2="191.3057" gradientTransform="matrix(0.75 0 0 -0.75 -4.3229 411.5919)">
		<stop  offset="0" style="stop-color:#1C769E"/>
		<stop  offset="0.01" style="stop-color:#81BEE7"/>
		<stop  offset="0.02" style="stop-color:#289BCE"/>
		<stop  offset="0.64" style="stop-color:#2799CB"/>
		<stop  offset="0.99" style="stop-color:#2695C6"/>
		<stop  offset="1" style="stop-color:#196E93"/>
	</linearGradient>
	<path fill="url(#SVGID_20_)" d="M147.348,260.613h18.75v15h-18.75V260.613z"/>
	
		<linearGradient id="SVGID_21_" gradientUnits="userSpaceOnUse" x1="235.751" y1="201.3047" x2="235.751" y2="176.3057" gradientTransform="matrix(0.75 0 0 -0.75 -10.6881 425.6779)">
		<stop  offset="0" style="stop-color:#006697"/>
		<stop  offset="0.15" style="stop-color:#4596D0"/>
		<stop  offset="0.25" style="stop-color:#97BADD"/>
		<stop  offset="0.52" style="stop-color:#007AB2"/>
		<stop  offset="0.69" style="stop-color:#006C9E"/>
		<stop  offset="0.8" style="stop-color:#006595"/>
		<stop  offset="0.92" style="stop-color:#005F8D"/>
		<stop  offset="1" style="stop-color:#006EA2"/>
	</linearGradient>
	<path fill="url(#SVGID_21_)" d="M142.48,274.699h47.25c0.75,0,1.539,0.535,1.539,1.195l-0.039,16.054
		c0,0.75-0.496,1.316-1.152,1.316l-47.598,0.184c-0.75,0-1.5-0.719-1.5-1.375v-15.875c0-0.75,0.531-1.5,1.188-1.5H142.48z"/>
	
		<linearGradient id="SVGID_22_" gradientUnits="userSpaceOnUse" x1="257.2227" y1="196.8047" x2="202.2227" y2="196.8047" gradientTransform="matrix(0.75 0 0 -0.75 -82.1671 411.2716)">
		<stop  offset="0" style="stop-color:#983D47"/>
		<stop  offset="0.01" style="stop-color:#E09197"/>
		<stop  offset="0.02" style="stop-color:#C6525E"/>
		<stop  offset="0.64" style="stop-color:#C3515D"/>
		<stop  offset="0.99" style="stop-color:#BE4F5A"/>
		<stop  offset="1" style="stop-color:#8D3841"/>
	</linearGradient>
	<path fill="url(#SVGID_22_)" d="M110.75,260.293v6.75H69.5v-6.75H110.75z"/>
	
		<linearGradient id="SVGID_23_" gradientUnits="userSpaceOnUse" x1="257.2236" y1="196.8047" x2="202.2236" y2="196.8047" gradientTransform="matrix(0.75 0 0 -0.75 277.7225 411.2716)">
		<stop  offset="0" style="stop-color:#983D47"/>
		<stop  offset="0.01" style="stop-color:#E09197"/>
		<stop  offset="0.02" style="stop-color:#C6525E"/>
		<stop  offset="0.64" style="stop-color:#C3515D"/>
		<stop  offset="0.99" style="stop-color:#BE4F5A"/>
		<stop  offset="1" style="stop-color:#8D3841"/>
	</linearGradient>
	<path fill="url(#SVGID_23_)" d="M470.64,260.293v6.75h-41.25v-6.75H470.64z"/>
	
		<linearGradient id="SVGID_24_" gradientUnits="userSpaceOnUse" x1="223.2246" y1="191.3037" x2="202.2246" y2="191.3037" gradientTransform="matrix(0.75 0 0 -0.75 17.9564 415.4337)">
		<stop  offset="0" style="stop-color:#B3A593"/>
		<stop  offset="0.01" style="stop-color:#FDEEDA"/>
		<stop  offset="0.02" style="stop-color:#E9D7BF"/>
		<stop  offset="0.64" style="stop-color:#E5D3BC"/>
		<stop  offset="0.99" style="stop-color:#E0CEB8"/>
		<stop  offset="1" style="stop-color:#A69988"/>
	</linearGradient>
	<path fill="url(#SVGID_24_)" d="M169.625,279.457h15.75v-15h-15.75V279.457z"/>
	
		<linearGradient id="SVGID_25_" gradientUnits="userSpaceOnUse" x1="220.3301" y1="196.8223" x2="202.2256" y2="196.8223" gradientTransform="matrix(0.75 0 0 -0.75 6.4984 596.8654)">
		<stop  offset="0" style="stop-color:#B4954F"/>
		<stop  offset="0.01" style="stop-color:#FEDD9C"/>
		<stop  offset="0.02" style="stop-color:#EAC268"/>
		<stop  offset="0.64" style="stop-color:#E6BF67"/>
		<stop  offset="0.99" style="stop-color:#E1BB64"/>
		<stop  offset="1" style="stop-color:#A78A48"/>
	</linearGradient>
	<path fill="url(#SVGID_25_)" d="M159.668,445.886h11.25c0,0,0.828,0.508,0.828,1.168l-0.078,4.082c0,0.75-0.453,1.129-1.109,1.129
		l-10.891,0.371c-0.75,0-1.5-0.906-1.5-1.566v-3.684c0-0.75,0.531-1.523,1.188-1.523L159.668,445.886z"/>
</g>
</svg>
