<?xml version="1.0" encoding="utf-8"?>
<!-- Generator: Adobe Illustrator 16.0.0, SVG Export Plug-In . SVG Version: 6.00 Build 0)  -->
<!DOCTYPE svg PUBLIC "-//W3C//DTD SVG 1.1//EN" "http://www.w3.org/Graphics/SVG/1.1/DTD/svg11.dtd">
<svg preserveAspectRatio="none"   version="1.1" id="图层_1" xmlns="http://www.w3.org/2000/svg" xmlns:xlink="http://www.w3.org/1999/xlink" x="0px" y="0px"
	 width="567px" height="300.293px" viewBox="-0.035 263.313 567 300.293" enable-background="new -0.035 263.313 567 300.293"
	 xml:space="preserve">
<g id="surface336">
	
		<linearGradient id="SVGID_1_" gradientUnits="userSpaceOnUse" x1="491.2241" y1="173.3091" x2="202.2251" y2="173.3091" gradientTransform="matrix(0.75 0 0 -0.75 18.5922 646.214)">
		<stop  offset="0" style="stop-color:#4A7653"/>
		<stop  offset="0.01" style="stop-color:#99BEA0"/>
		<stop  offset="0.02" style="stop-color:#639B6E"/>
		<stop  offset="0.64" style="stop-color:#61996C"/>
		<stop  offset="0.99" style="stop-color:#5F956A"/>
		<stop  offset="1" style="stop-color:#446E4D"/>
	</linearGradient>
	<path fill="url(#SVGID_1_)" d="M387.011,495.234v40.5c0,0.75-0.59,1.215-1.172,1.215l-214.828,0.285c0,0-0.75-0.762-0.75-1.348
		v-40.652H387.011z"/>
	<path fill="#3E3938" stroke="#3E3938" stroke-width="0.25" stroke-linejoin="bevel" stroke-miterlimit="10" d="M473.121,528.355
		c0-19.5,15.691-35.25,35.051-35.25c19.699,0,35.047,15.754,35.047,35.188c-0.348,19.563-15.691,35.188-35.047,35.188
		c-19.301,0.125-35.051-15.754-35.051-35.188V528.355z"/>
	
		<radialGradient id="SVGID_2_" cx="243.1675" cy="160.2295" r="57.9944" gradientTransform="matrix(0.75 0 0 -0.75 325.7938 648.465)" gradientUnits="userSpaceOnUse">
		<stop  offset="0" style="stop-color:#3C3736"/>
		<stop  offset="0.54" style="stop-color:#3B3635"/>
		<stop  offset="0.74" style="stop-color:#5B5858"/>
		<stop  offset="0.91" style="stop-color:#3B3635"/>
		<stop  offset="1" style="stop-color:#3B3635"/>
	</radialGradient>
	<path fill="url(#SVGID_2_)" stroke="#3E3938" stroke-width="0.25" stroke-linejoin="bevel" stroke-miterlimit="10" d="
		M477.464,528.238c0-17.25,13.746-30.75,30.707-30.75c17.293,0,30.703,13.789,30.703,30.805
		c0.09,17.195-13.746,30.805-30.703,30.805c-17.207-0.109-30.707-13.793-30.707-30.805V528.238z"/>
	
		<linearGradient id="SVGID_3_" gradientUnits="userSpaceOnUse" x1="289.2251" y1="170.4243" x2="202.2251" y2="170.4243" gradientTransform="matrix(0.75 0 0 -0.75 323.9589 654.5568)">
		<stop  offset="0" style="stop-color:#3D3B3B"/>
		<stop  offset="0.01" style="stop-color:#908F8F"/>
		<stop  offset="0.02" style="stop-color:#514F4F"/>
		<stop  offset="0.64" style="stop-color:#504E4E"/>
		<stop  offset="0.99" style="stop-color:#4E4C4C"/>
		<stop  offset="1" style="stop-color:#383636"/>
	</linearGradient>
	<path fill="url(#SVGID_3_)" d="M475.628,503.578h65.25l-12,38.25c0,0-5.543,8.07-20.34,8.07c-17.91,0.18-21.16-8.035-21.16-8.035
		L475.628,503.578z"/>
	
		<radialGradient id="SVGID_4_" cx="245.7241" cy="189.0752" r="45.1872" gradientTransform="matrix(0.75 0 0 -0.75 323.9413 654.1437)" gradientUnits="userSpaceOnUse">
		<stop  offset="0" style="stop-color:#3C3736"/>
		<stop  offset="0.54" style="stop-color:#3B3635"/>
		<stop  offset="0.74" style="stop-color:#5B5858"/>
		<stop  offset="0.91" style="stop-color:#3B3635"/>
		<stop  offset="1" style="stop-color:#3B3635"/>
	</radialGradient>
	<path fill="url(#SVGID_4_)" stroke="#3E3938" stroke-width="0.25" stroke-linejoin="bevel" stroke-miterlimit="10" d="
		M540.859,503.164c-6.75,11.25-18.926,18.348-32.688,18.348c-13.813-0.348-25.891-7.359-32.563-18.348c0,0.75,65.121,0,65.121,0
		H540.859z"/>
	
		<linearGradient id="SVGID_5_" gradientUnits="userSpaceOnUse" x1="229.2236" y1="185.8086" x2="202.2236" y2="185.8086" gradientTransform="matrix(0.75 0 0 -0.75 346.4882 666.2765)">
		<stop  offset="0" style="stop-color:#4E4D4D"/>
		<stop  offset="0.01" style="stop-color:#9C9B9B"/>
		<stop  offset="0.02" style="stop-color:#686767"/>
		<stop  offset="0.64" style="stop-color:#666565"/>
		<stop  offset="0.99" style="stop-color:#636262"/>
		<stop  offset="1" style="stop-color:#484747"/>
	</linearGradient>
	<path fill="url(#SVGID_5_)" d="M498.906,515.296h18.75c0,0,0.527,0.234,0.527,0.523l0.223,21.977c0,0-0.457,0.566-0.742,0.566
		l-18.758,0.184c-0.75,0-0.75-0.414-0.75-0.703v-21.797c0-0.75,0.234-0.75,0.52-0.75H498.906z"/>
	
		<radialGradient id="SVGID_6_" cx="211.6313" cy="191.8696" r="13.3229" gradientTransform="matrix(0.75 0 0 -0.75 349.4481 670.7462)" gradientUnits="userSpaceOnUse">
		<stop  offset="0" style="stop-color:#565454"/>
		<stop  offset="0.54" style="stop-color:#555353"/>
		<stop  offset="0.74" style="stop-color:#6D6C6C"/>
		<stop  offset="0.91" style="stop-color:#555353"/>
		<stop  offset="1" style="stop-color:#555353"/>
	</radialGradient>
	<path fill="url(#SVGID_6_)" stroke="#595757" stroke-width="0.25" stroke-linejoin="bevel" stroke-miterlimit="10" d="
		M501.117,526.519c0-3.75,3.156-6.75,7.055-6.75c4.195,0,7.051,3.168,7.051,7.074c0.145,4.176-3.156,7.074-7.051,7.074
		c-4.055,0.102-7.055-3.168-7.055-7.074V526.519z"/>
	<path fill="#3E3938" stroke="#3E3938" stroke-width="0.25" stroke-linejoin="bevel" stroke-miterlimit="10" d="M403.82,528.355
		c0-19.5,15.691-35.25,35.047-35.25c19.703,0,35.047,15.754,35.047,35.188c-0.344,19.563-15.691,35.188-35.047,35.188
		c-19.297,0.125-35.047-15.754-35.047-35.188V528.355z"/>
	
		<radialGradient id="SVGID_7_" cx="243.1685" cy="160.2295" r="57.9948" gradientTransform="matrix(0.75 0 0 -0.75 256.4911 648.465)" gradientUnits="userSpaceOnUse">
		<stop  offset="0" style="stop-color:#3C3736"/>
		<stop  offset="0.54" style="stop-color:#3B3635"/>
		<stop  offset="0.74" style="stop-color:#5B5858"/>
		<stop  offset="0.91" style="stop-color:#3B3635"/>
		<stop  offset="1" style="stop-color:#3B3635"/>
	</radialGradient>
	<path fill="url(#SVGID_7_)" stroke="#3E3938" stroke-width="0.25" stroke-linejoin="bevel" stroke-miterlimit="10" d="
		M408.16,528.238c0-17.25,13.746-30.75,30.707-30.75c17.293,0,30.707,13.789,30.707,30.805c0.086,17.195-13.75,30.805-30.707,30.805
		c-17.207-0.109-30.707-13.793-30.707-30.805V528.238z"/>
	
		<linearGradient id="SVGID_8_" gradientUnits="userSpaceOnUse" x1="289.2231" y1="170.4243" x2="202.2236" y2="170.4243" gradientTransform="matrix(0.75 0 0 -0.75 254.6552 654.5568)">
		<stop  offset="0" style="stop-color:#3D3B3B"/>
		<stop  offset="0.01" style="stop-color:#908F8F"/>
		<stop  offset="0.02" style="stop-color:#514F4F"/>
		<stop  offset="0.64" style="stop-color:#504E4E"/>
		<stop  offset="0.99" style="stop-color:#4E4C4C"/>
		<stop  offset="1" style="stop-color:#383636"/>
	</linearGradient>
	<path fill="url(#SVGID_8_)" d="M406.324,503.578h65.25l-12,38.25c0,0-5.539,8.07-20.336,8.07
		c-17.914,0.18-21.164-8.035-21.164-8.035L406.324,503.578z"/>
	
		<radialGradient id="SVGID_9_" cx="245.728" cy="189.0752" r="45.1839" gradientTransform="matrix(0.75 0 0 -0.75 254.6376 654.1437)" gradientUnits="userSpaceOnUse">
		<stop  offset="0" style="stop-color:#3C3736"/>
		<stop  offset="0.54" style="stop-color:#3B3635"/>
		<stop  offset="0.74" style="stop-color:#5B5858"/>
		<stop  offset="0.91" style="stop-color:#3B3635"/>
		<stop  offset="1" style="stop-color:#3B3635"/>
	</radialGradient>
	<path fill="url(#SVGID_9_)" stroke="#3E3938" stroke-width="0.25" stroke-linejoin="bevel" stroke-miterlimit="10" d="
		M471.558,503.164c-6.75,11.25-18.93,18.348-32.691,18.348c-13.809-0.348-25.891-7.359-32.559-18.348c0,0.75,65.117,0,65.117,0
		H471.558z"/>
	
		<linearGradient id="SVGID_10_" gradientUnits="userSpaceOnUse" x1="229.2271" y1="185.8086" x2="202.2271" y2="185.8086" gradientTransform="matrix(0.75 0 0 -0.75 277.1844 666.2765)">
		<stop  offset="0" style="stop-color:#4E4D4D"/>
		<stop  offset="0.01" style="stop-color:#9C9B9B"/>
		<stop  offset="0.02" style="stop-color:#686767"/>
		<stop  offset="0.64" style="stop-color:#666565"/>
		<stop  offset="0.99" style="stop-color:#636262"/>
		<stop  offset="1" style="stop-color:#484747"/>
	</linearGradient>
	<path fill="url(#SVGID_10_)" d="M429.605,515.296h18.75c0,0,0.523,0.234,0.523,0.523l0.227,21.977c0,0-0.457,0.566-0.746,0.566
		l-18.754,0.184c-0.75,0-0.75-0.414-0.75-0.703v-21.797c0-0.75,0.23-0.75,0.516-0.75H429.605z"/>
	
		<radialGradient id="SVGID_11_" cx="211.6289" cy="191.8696" r="13.3247" gradientTransform="matrix(0.75 0 0 -0.75 280.1454 670.7462)" gradientUnits="userSpaceOnUse">
		<stop  offset="0" style="stop-color:#565454"/>
		<stop  offset="0.54" style="stop-color:#555353"/>
		<stop  offset="0.74" style="stop-color:#6D6C6C"/>
		<stop  offset="0.91" style="stop-color:#555353"/>
		<stop  offset="1" style="stop-color:#555353"/>
	</radialGradient>
	<path fill="url(#SVGID_11_)" stroke="#595757" stroke-width="0.25" stroke-linejoin="bevel" stroke-miterlimit="10" d="
		M431.812,526.519c0-3.75,3.16-6.75,7.055-6.75c4.195,0,7.051,3.168,7.051,7.074c0.145,4.176-3.156,7.074-7.051,7.074
		c-4.055,0.102-7.055-3.168-7.055-7.074V526.519z"/>
	<path fill="#3E3938" stroke="#3E3938" stroke-width="0.25" stroke-linejoin="bevel" stroke-miterlimit="10" d="M92.875,528.355
		c0-19.5,15.691-35.25,35.047-35.25c19.703,0,35.051,15.754,35.051,35.188c-0.348,19.563-15.691,35.188-35.051,35.188
		c-19.297,0.125-35.047-15.754-35.047-35.188V528.355z"/>
	
		<radialGradient id="SVGID_12_" cx="243.167" cy="160.2295" r="57.9963" gradientTransform="matrix(0.75 0 0 -0.75 -54.4528 648.465)" gradientUnits="userSpaceOnUse">
		<stop  offset="0" style="stop-color:#3C3736"/>
		<stop  offset="0.54" style="stop-color:#3B3635"/>
		<stop  offset="0.74" style="stop-color:#5B5858"/>
		<stop  offset="0.91" style="stop-color:#3B3635"/>
		<stop  offset="1" style="stop-color:#3B3635"/>
	</radialGradient>
	<path fill="url(#SVGID_12_)" stroke="#3E3938" stroke-width="0.25" stroke-linejoin="bevel" stroke-miterlimit="10" d="
		M97.215,528.238c0-17.25,13.75-30.75,30.707-30.75c17.293,0,30.707,13.789,30.707,30.805c0.086,17.195-13.746,30.805-30.707,30.805
		c-17.207-0.109-30.707-13.793-30.707-30.805V528.238z"/>
	
		<linearGradient id="SVGID_13_" gradientUnits="userSpaceOnUse" x1="289.2231" y1="170.4263" x2="202.2227" y2="170.4263" gradientTransform="matrix(0.75 0 0 -0.75 -56.2887 654.5577)">
		<stop  offset="0" style="stop-color:#3D3B3B"/>
		<stop  offset="0.01" style="stop-color:#908F8F"/>
		<stop  offset="0.02" style="stop-color:#514F4F"/>
		<stop  offset="0.64" style="stop-color:#504E4E"/>
		<stop  offset="0.99" style="stop-color:#4E4C4C"/>
		<stop  offset="1" style="stop-color:#383636"/>
	</linearGradient>
	<path fill="url(#SVGID_13_)" d="M95.379,503.578h65.25l-12,38.25c0,0-5.539,8.07-20.336,8.07c-17.914,0.18-21.16-8.035-21.16-8.035
		L95.379,503.578z"/>
	
		<radialGradient id="SVGID_14_" cx="245.7261" cy="189.0728" r="45.1865" gradientTransform="matrix(0.75 0 0 -0.75 -56.3063 654.1437)" gradientUnits="userSpaceOnUse">
		<stop  offset="0" style="stop-color:#3C3736"/>
		<stop  offset="0.54" style="stop-color:#3B3635"/>
		<stop  offset="0.74" style="stop-color:#5B5858"/>
		<stop  offset="0.91" style="stop-color:#3B3635"/>
		<stop  offset="1" style="stop-color:#3B3635"/>
	</radialGradient>
	<path fill="url(#SVGID_14_)" stroke="#3E3938" stroke-width="0.25" stroke-linejoin="bevel" stroke-miterlimit="10" d="
		M160.613,503.167c-6.75,11.25-18.926,18.344-32.691,18.344c-13.809-0.344-25.887-7.359-32.559-18.344c0,0.75,65.121,0,65.121,0
		H160.613z"/>
	
		<linearGradient id="SVGID_15_" gradientUnits="userSpaceOnUse" x1="229.2261" y1="185.8027" x2="202.2261" y2="185.8027" gradientTransform="matrix(0.75 0 0 -0.75 -33.7594 666.2765)">
		<stop  offset="0" style="stop-color:#4E4D4D"/>
		<stop  offset="0.01" style="stop-color:#9C9B9B"/>
		<stop  offset="0.02" style="stop-color:#686767"/>
		<stop  offset="0.64" style="stop-color:#666565"/>
		<stop  offset="0.99" style="stop-color:#636262"/>
		<stop  offset="1" style="stop-color:#484747"/>
	</linearGradient>
	<path fill="url(#SVGID_15_)" d="M118.66,515.3h18.75c0,0,0.527,0.23,0.527,0.52l0.223,21.98c0,0-0.457,0.563-0.742,0.563
		l-18.758,0.188c-0.75,0-0.75-0.418-0.75-0.707V516.05c0-0.75,0.23-0.75,0.52-0.75H118.66z"/>
	
		<radialGradient id="SVGID_16_" cx="211.6333" cy="191.8696" r="13.3219" gradientTransform="matrix(0.75 0 0 -0.75 -30.799 670.7462)" gradientUnits="userSpaceOnUse">
		<stop  offset="0" style="stop-color:#565454"/>
		<stop  offset="0.54" style="stop-color:#555353"/>
		<stop  offset="0.74" style="stop-color:#6D6C6C"/>
		<stop  offset="0.91" style="stop-color:#555353"/>
		<stop  offset="1" style="stop-color:#555353"/>
	</radialGradient>
	<path fill="url(#SVGID_16_)" stroke="#595757" stroke-width="0.25" stroke-linejoin="bevel" stroke-miterlimit="10" d="
		M120.871,526.519c0-3.75,3.156-6.75,7.051-6.75c4.199,0,7.055,3.168,7.055,7.074c0.145,4.176-3.16,7.074-7.055,7.074
		c-4.051,0.102-7.051-3.168-7.051-7.074V526.519z"/>
	<path fill="#3E3938" stroke="#3E3938" stroke-width="0.25" stroke-linejoin="bevel" stroke-miterlimit="10" d="M23.57,528.355
		c0-19.5,15.691-35.25,35.051-35.25c19.699,0,35.047,15.754,35.047,35.188c-0.348,19.563-15.691,35.188-35.047,35.188
		c-19.301,0.125-35.051-15.754-35.051-35.188V528.355z"/>
	
		<radialGradient id="SVGID_17_" cx="243.1675" cy="160.2295" r="57.9956" gradientTransform="matrix(0.75 0 0 -0.75 -123.7565 648.465)" gradientUnits="userSpaceOnUse">
		<stop  offset="0" style="stop-color:#3C3736"/>
		<stop  offset="0.54" style="stop-color:#3B3635"/>
		<stop  offset="0.74" style="stop-color:#5B5858"/>
		<stop  offset="0.91" style="stop-color:#3B3635"/>
		<stop  offset="1" style="stop-color:#3B3635"/>
	</radialGradient>
	<path fill="url(#SVGID_17_)" stroke="#3E3938" stroke-width="0.25" stroke-linejoin="bevel" stroke-miterlimit="10" d="
		M27.914,528.238c0-17.25,13.746-30.75,30.707-30.75c17.293,0,30.703,13.789,30.703,30.805c0.09,17.195-13.746,30.805-30.703,30.805
		c-17.207-0.109-30.707-13.793-30.707-30.805V528.238z"/>
	
		<linearGradient id="SVGID_18_" gradientUnits="userSpaceOnUse" x1="289.2261" y1="170.4263" x2="202.2261" y2="170.4263" gradientTransform="matrix(0.75 0 0 -0.75 -125.5924 654.5577)">
		<stop  offset="0" style="stop-color:#3D3B3B"/>
		<stop  offset="0.01" style="stop-color:#908F8F"/>
		<stop  offset="0.02" style="stop-color:#514F4F"/>
		<stop  offset="0.64" style="stop-color:#504E4E"/>
		<stop  offset="0.99" style="stop-color:#4E4C4C"/>
		<stop  offset="1" style="stop-color:#383636"/>
	</linearGradient>
	<path fill="url(#SVGID_18_)" d="M26.078,503.578h65.25l-12,38.25c0,0-5.539,8.07-20.34,8.07c-17.91,0.18-21.16-8.035-21.16-8.035
		L26.078,503.578z"/>
	
		<radialGradient id="SVGID_19_" cx="245.7241" cy="189.0728" r="45.1884" gradientTransform="matrix(0.75 0 0 -0.75 -125.6095 654.1437)" gradientUnits="userSpaceOnUse">
		<stop  offset="0" style="stop-color:#3C3736"/>
		<stop  offset="0.54" style="stop-color:#3B3635"/>
		<stop  offset="0.74" style="stop-color:#5B5858"/>
		<stop  offset="0.91" style="stop-color:#3B3635"/>
		<stop  offset="1" style="stop-color:#3B3635"/>
	</radialGradient>
	<path fill="url(#SVGID_19_)" stroke="#3E3938" stroke-width="0.25" stroke-linejoin="bevel" stroke-miterlimit="10" d="
		M91.309,503.167c-6.75,11.25-18.926,18.344-32.688,18.344c-13.813-0.344-25.891-7.359-32.563-18.344c0,0.75,65.121,0,65.121,0
		H91.309z"/>
	
		<linearGradient id="SVGID_20_" gradientUnits="userSpaceOnUse" x1="229.2246" y1="185.8027" x2="202.2246" y2="185.8027" gradientTransform="matrix(0.75 0 0 -0.75 -103.0631 666.2765)">
		<stop  offset="0" style="stop-color:#4E4D4D"/>
		<stop  offset="0.01" style="stop-color:#9C9B9B"/>
		<stop  offset="0.02" style="stop-color:#686767"/>
		<stop  offset="0.64" style="stop-color:#666565"/>
		<stop  offset="0.99" style="stop-color:#636262"/>
		<stop  offset="1" style="stop-color:#484747"/>
	</linearGradient>
	<path fill="url(#SVGID_20_)" d="M49.355,515.3h18.75c0,0,0.527,0.23,0.527,0.52l0.223,21.98c0,0-0.457,0.563-0.742,0.563
		l-18.758,0.188c-0.75,0-0.75-0.418-0.75-0.707V516.05c0-0.75,0.234-0.75,0.52-0.75H49.355z"/>
	
		<radialGradient id="SVGID_21_" cx="211.6318" cy="191.8696" r="13.323" gradientTransform="matrix(0.75 0 0 -0.75 -100.1027 670.7462)" gradientUnits="userSpaceOnUse">
		<stop  offset="0" style="stop-color:#565454"/>
		<stop  offset="0.54" style="stop-color:#555353"/>
		<stop  offset="0.74" style="stop-color:#6D6C6C"/>
		<stop  offset="0.91" style="stop-color:#555353"/>
		<stop  offset="1" style="stop-color:#555353"/>
	</radialGradient>
	<path fill="url(#SVGID_21_)" stroke="#595757" stroke-width="0.25" stroke-linejoin="bevel" stroke-miterlimit="10" d="
		M51.566,526.519c0-3.75,3.156-6.75,7.055-6.75c4.195,0,7.051,3.168,7.051,7.074c0.145,4.176-3.156,7.074-7.051,7.074
		c-4.055,0.102-7.055-3.168-7.055-7.074V526.519z"/>
	
		<linearGradient id="SVGID_22_" gradientUnits="userSpaceOnUse" x1="209.2227" y1="64.8052" x2="202.2227" y2="64.8052" gradientTransform="matrix(0.75 0 0 -0.75 399.0311 423.7638)">
		<stop  offset="0" style="stop-color:#5C8364"/>
		<stop  offset="0.15" style="stop-color:#8BB894"/>
		<stop  offset="0.25" style="stop-color:#B4CEB9"/>
		<stop  offset="0.52" style="stop-color:#6E9B77"/>
		<stop  offset="0.69" style="stop-color:#628A69"/>
		<stop  offset="0.8" style="stop-color:#5C8263"/>
		<stop  offset="0.92" style="stop-color:#567A5D"/>
		<stop  offset="1" style="stop-color:#648D6C"/>
	</linearGradient>
	<path fill="url(#SVGID_22_)" d="M550.699,272.785h5.25v204.75h-5.25V272.785z"/>
	
		<linearGradient id="SVGID_23_" gradientUnits="userSpaceOnUse" x1="209.2236" y1="64.8081" x2="202.2236" y2="64.8081" gradientTransform="matrix(0.75 0 0 -0.75 -139.1603 424.1437)">
		<stop  offset="0" style="stop-color:#5C8364"/>
		<stop  offset="0.15" style="stop-color:#8BB894"/>
		<stop  offset="0.25" style="stop-color:#B4CEB9"/>
		<stop  offset="0.52" style="stop-color:#6E9B77"/>
		<stop  offset="0.69" style="stop-color:#628A69"/>
		<stop  offset="0.8" style="stop-color:#5C8263"/>
		<stop  offset="0.92" style="stop-color:#567A5D"/>
		<stop  offset="1" style="stop-color:#648D6C"/>
	</linearGradient>
	<path fill="url(#SVGID_23_)" d="M12.508,273.164h5.25v204.75h-5.25V273.164z"/>
	<path fill="#52825C" d="M479.675,271.375h73.5l-73.5,84V271.375z"/>
	
		<linearGradient id="SVGID_24_" gradientUnits="userSpaceOnUse" x1="252.7061" y1="152.3047" x2="165.7061" y2="152.3047" gradientTransform="matrix(-0.75 0 0 -0.75 668.6964 422.3527)">
		<stop  offset="0" style="stop-color:#4A7653"/>
		<stop  offset="0.01" style="stop-color:#99BEA0"/>
		<stop  offset="0.02" style="stop-color:#639B6E"/>
		<stop  offset="0.64" style="stop-color:#61996C"/>
		<stop  offset="0.99" style="stop-color:#5F956A"/>
		<stop  offset="1" style="stop-color:#446E4D"/>
	</linearGradient>
	<path fill="url(#SVGID_24_)" d="M479.167,271.375h65.25l-65.25,73.5V271.375z"/>
	<path fill="#52825C" d="M87.355,271.375h-73.5l73.5,84V271.375z"/>
	
		<linearGradient id="SVGID_25_" gradientUnits="userSpaceOnUse" x1="289.2251" y1="152.3047" x2="202.2251" y2="152.3047" gradientTransform="matrix(0.75 0 0 -0.75 -129.0558 422.3527)">
		<stop  offset="0" style="stop-color:#4A7653"/>
		<stop  offset="0.01" style="stop-color:#99BEA0"/>
		<stop  offset="0.02" style="stop-color:#639B6E"/>
		<stop  offset="0.64" style="stop-color:#61996C"/>
		<stop  offset="0.99" style="stop-color:#5F956A"/>
		<stop  offset="1" style="stop-color:#446E4D"/>
	</linearGradient>
	<path fill="url(#SVGID_25_)" d="M87.863,271.375h-65.25l65.25,73.5V271.375z"/>
	
		<linearGradient id="SVGID_26_" gradientUnits="userSpaceOnUse" x1="958.2241" y1="194.8032" x2="202.2251" y2="194.8032" gradientTransform="matrix(0.75 0 0 -0.75 -151.7047 414.2892)">
		<stop  offset="0" style="stop-color:#638C6B"/>
		<stop  offset="0.01" style="stop-color:#ADD4B4"/>
		<stop  offset="0.02" style="stop-color:#82B78D"/>
		<stop  offset="0.64" style="stop-color:#80B48A"/>
		<stop  offset="0.99" style="stop-color:#7DB087"/>
		<stop  offset="1" style="stop-color:#5B8263"/>
	</linearGradient>
	<path fill="url(#SVGID_26_)" d="M-0.035,263.313h567v9.75h-567V263.313z"/>
	
		<linearGradient id="SVGID_27_" gradientUnits="userSpaceOnUse" x1="724.2231" y1="63.8086" x2="202.2231" y2="63.8085" gradientTransform="matrix(0.75 0 0 -0.75 -64.1251 424.1437)">
		<stop  offset="0" style="stop-color:#4A7653"/>
		<stop  offset="0.01" style="stop-color:#99BEA0"/>
		<stop  offset="0.02" style="stop-color:#639B6E"/>
		<stop  offset="0.64" style="stop-color:#61996C"/>
		<stop  offset="0.99" style="stop-color:#5F956A"/>
		<stop  offset="1" style="stop-color:#446E4D"/>
	</linearGradient>
	<path fill="url(#SVGID_27_)" d="M87.543,273.164h391.5v206.25h-391.5V273.164z"/>
	
		<linearGradient id="SVGID_28_" gradientUnits="userSpaceOnUse" x1="958.2241" y1="183.3071" x2="202.2251" y2="183.3071" gradientTransform="matrix(0.75 0 0 -0.75 -151.7047 628.424)">
		<stop  offset="0" style="stop-color:#638C6B"/>
		<stop  offset="0.01" style="stop-color:#ADD4B4"/>
		<stop  offset="0.02" style="stop-color:#82B78D"/>
		<stop  offset="0.64" style="stop-color:#80B48A"/>
		<stop  offset="0.99" style="stop-color:#7DB087"/>
		<stop  offset="1" style="stop-color:#5B8263"/>
	</linearGradient>
	<path fill="url(#SVGID_28_)" d="M-0.035,477.445h567v27h-567V477.445z"/>
	<path fill="#638C6B" d="M-0.035,483.984h567v13.5h-567V483.984z"/>
	
		<linearGradient id="SVGID_29_" gradientUnits="userSpaceOnUse" x1="219.2261" y1="64.8081" x2="202.2261" y2="64.8081" gradientTransform="matrix(0.75 0 0 -0.75 -64.1271 424.1437)">
		<stop  offset="0" style="stop-color:#638C6B"/>
		<stop  offset="0.01" style="stop-color:#ADD4B4"/>
		<stop  offset="0.02" style="stop-color:#82B78D"/>
		<stop  offset="0.64" style="stop-color:#80B48A"/>
		<stop  offset="0.99" style="stop-color:#7DB087"/>
		<stop  offset="1" style="stop-color:#5B8263"/>
	</linearGradient>
	<path fill="url(#SVGID_29_)" d="M87.543,273.164h12.75v204.75h-12.75V273.164z"/>
	
		<linearGradient id="SVGID_30_" gradientUnits="userSpaceOnUse" x1="209.2275" y1="64.8081" x2="202.2275" y2="64.8081" gradientTransform="matrix(0.75 0 0 -0.75 -60.2882 424.1437)">
		<stop  offset="0" style="stop-color:#4A7653"/>
		<stop  offset="0.01" style="stop-color:#99BEA0"/>
		<stop  offset="0.02" style="stop-color:#639B6E"/>
		<stop  offset="0.64" style="stop-color:#61996C"/>
		<stop  offset="0.99" style="stop-color:#5F956A"/>
		<stop  offset="1" style="stop-color:#446E4D"/>
	</linearGradient>
	<path fill="url(#SVGID_30_)" d="M91.383,273.164h5.25v204.75h-5.25V273.164z"/>
	
		<linearGradient id="SVGID_31_" gradientUnits="userSpaceOnUse" x1="219.2266" y1="64.8081" x2="202.2266" y2="64.8081" gradientTransform="matrix(0.75 0 0 -0.75 -9.9552 424.1437)">
		<stop  offset="0" style="stop-color:#638C6B"/>
		<stop  offset="0.01" style="stop-color:#ADD4B4"/>
		<stop  offset="0.02" style="stop-color:#82B78D"/>
		<stop  offset="0.64" style="stop-color:#80B48A"/>
		<stop  offset="0.99" style="stop-color:#7DB087"/>
		<stop  offset="1" style="stop-color:#5B8263"/>
	</linearGradient>
	<path fill="url(#SVGID_31_)" d="M141.715,273.164h12.75v204.75h-12.75V273.164z"/>
	
		<linearGradient id="SVGID_32_" gradientUnits="userSpaceOnUse" x1="209.2275" y1="64.8081" x2="202.2275" y2="64.8081" gradientTransform="matrix(0.75 0 0 -0.75 -6.1158 424.1437)">
		<stop  offset="0" style="stop-color:#4A7653"/>
		<stop  offset="0.01" style="stop-color:#99BEA0"/>
		<stop  offset="0.02" style="stop-color:#639B6E"/>
		<stop  offset="0.64" style="stop-color:#61996C"/>
		<stop  offset="0.99" style="stop-color:#5F956A"/>
		<stop  offset="1" style="stop-color:#446E4D"/>
	</linearGradient>
	<path fill="url(#SVGID_32_)" d="M145.555,273.164h5.25v204.75h-5.25V273.164z"/>
	
		<linearGradient id="SVGID_33_" gradientUnits="userSpaceOnUse" x1="219.2266" y1="64.8081" x2="202.2266" y2="64.8081" gradientTransform="matrix(0.75 0 0 -0.75 44.2167 424.1437)">
		<stop  offset="0" style="stop-color:#638C6B"/>
		<stop  offset="0.01" style="stop-color:#ADD4B4"/>
		<stop  offset="0.02" style="stop-color:#82B78D"/>
		<stop  offset="0.64" style="stop-color:#80B48A"/>
		<stop  offset="0.99" style="stop-color:#7DB087"/>
		<stop  offset="1" style="stop-color:#5B8263"/>
	</linearGradient>
	<path fill="url(#SVGID_33_)" d="M195.887,273.164h12.75v204.75h-12.75V273.164z"/>
	
		<linearGradient id="SVGID_34_" gradientUnits="userSpaceOnUse" x1="209.2256" y1="64.8081" x2="202.2256" y2="64.8081" gradientTransform="matrix(0.75 0 0 -0.75 48.057 424.1437)">
		<stop  offset="0" style="stop-color:#4A7653"/>
		<stop  offset="0.01" style="stop-color:#99BEA0"/>
		<stop  offset="0.02" style="stop-color:#639B6E"/>
		<stop  offset="0.64" style="stop-color:#61996C"/>
		<stop  offset="0.99" style="stop-color:#5F956A"/>
		<stop  offset="1" style="stop-color:#446E4D"/>
	</linearGradient>
	<path fill="url(#SVGID_34_)" d="M199.727,273.164h5.25v204.75h-5.25V273.164z"/>
	
		<linearGradient id="SVGID_35_" gradientUnits="userSpaceOnUse" x1="219.2246" y1="64.8081" x2="202.2246" y2="64.8081" gradientTransform="matrix(0.75 0 0 -0.75 98.3895 424.1437)">
		<stop  offset="0" style="stop-color:#638C6B"/>
		<stop  offset="0.01" style="stop-color:#ADD4B4"/>
		<stop  offset="0.02" style="stop-color:#82B78D"/>
		<stop  offset="0.64" style="stop-color:#80B48A"/>
		<stop  offset="0.99" style="stop-color:#7DB087"/>
		<stop  offset="1" style="stop-color:#5B8263"/>
	</linearGradient>
	<path fill="url(#SVGID_35_)" d="M250.059,273.164h12.75v204.75h-12.75V273.164z"/>
	
		<linearGradient id="SVGID_36_" gradientUnits="userSpaceOnUse" x1="209.2256" y1="64.8081" x2="202.2256" y2="64.8081" gradientTransform="matrix(0.75 0 0 -0.75 102.2289 424.1437)">
		<stop  offset="0" style="stop-color:#4A7653"/>
		<stop  offset="0.01" style="stop-color:#99BEA0"/>
		<stop  offset="0.02" style="stop-color:#639B6E"/>
		<stop  offset="0.64" style="stop-color:#61996C"/>
		<stop  offset="0.99" style="stop-color:#5F956A"/>
		<stop  offset="1" style="stop-color:#446E4D"/>
	</linearGradient>
	<path fill="url(#SVGID_36_)" d="M253.898,273.164h5.25v204.75h-5.25V273.164z"/>
	
		<linearGradient id="SVGID_37_" gradientUnits="userSpaceOnUse" x1="219.2227" y1="64.8081" x2="202.2227" y2="64.8081" gradientTransform="matrix(0.75 0 0 -0.75 152.5624 424.1437)">
		<stop  offset="0" style="stop-color:#638C6B"/>
		<stop  offset="0.01" style="stop-color:#ADD4B4"/>
		<stop  offset="0.02" style="stop-color:#82B78D"/>
		<stop  offset="0.64" style="stop-color:#80B48A"/>
		<stop  offset="0.99" style="stop-color:#7DB087"/>
		<stop  offset="1" style="stop-color:#5B8263"/>
	</linearGradient>
	<path fill="url(#SVGID_37_)" d="M304.23,273.164h12.75v204.75h-12.75V273.164z"/>
	
		<linearGradient id="SVGID_38_" gradientUnits="userSpaceOnUse" x1="209.2246" y1="64.8081" x2="202.2246" y2="64.8081" gradientTransform="matrix(0.75 0 0 -0.75 156.4012 424.1437)">
		<stop  offset="0" style="stop-color:#4A7653"/>
		<stop  offset="0.01" style="stop-color:#99BEA0"/>
		<stop  offset="0.02" style="stop-color:#639B6E"/>
		<stop  offset="0.64" style="stop-color:#61996C"/>
		<stop  offset="0.99" style="stop-color:#5F956A"/>
		<stop  offset="1" style="stop-color:#446E4D"/>
	</linearGradient>
	<path fill="url(#SVGID_38_)" d="M308.07,273.164h5.25v204.75h-5.25V273.164z"/>
	
		<linearGradient id="SVGID_39_" gradientUnits="userSpaceOnUse" x1="219.2231" y1="64.8081" x2="202.2231" y2="64.8081" gradientTransform="matrix(0.75 0 0 -0.75 206.7343 424.1437)">
		<stop  offset="0" style="stop-color:#638C6B"/>
		<stop  offset="0.01" style="stop-color:#ADD4B4"/>
		<stop  offset="0.02" style="stop-color:#82B78D"/>
		<stop  offset="0.64" style="stop-color:#80B48A"/>
		<stop  offset="0.99" style="stop-color:#7DB087"/>
		<stop  offset="1" style="stop-color:#5B8263"/>
	</linearGradient>
	<path fill="url(#SVGID_39_)" d="M358.402,273.164h12.75v204.75h-12.75V273.164z"/>
	
		<linearGradient id="SVGID_40_" gradientUnits="userSpaceOnUse" x1="209.2246" y1="64.8081" x2="202.2246" y2="64.8081" gradientTransform="matrix(0.75 0 0 -0.75 210.5731 424.1437)">
		<stop  offset="0" style="stop-color:#4A7653"/>
		<stop  offset="0.01" style="stop-color:#99BEA0"/>
		<stop  offset="0.02" style="stop-color:#639B6E"/>
		<stop  offset="0.64" style="stop-color:#61996C"/>
		<stop  offset="0.99" style="stop-color:#5F956A"/>
		<stop  offset="1" style="stop-color:#446E4D"/>
	</linearGradient>
	<path fill="url(#SVGID_40_)" d="M362.242,273.164h5.25v204.75h-5.25V273.164z"/>
	
		<linearGradient id="SVGID_41_" gradientUnits="userSpaceOnUse" x1="219.2271" y1="64.8081" x2="202.2271" y2="64.8081" gradientTransform="matrix(0.75 0 0 -0.75 260.9071 424.1437)">
		<stop  offset="0" style="stop-color:#638C6B"/>
		<stop  offset="0.01" style="stop-color:#ADD4B4"/>
		<stop  offset="0.02" style="stop-color:#82B78D"/>
		<stop  offset="0.64" style="stop-color:#80B48A"/>
		<stop  offset="0.99" style="stop-color:#7DB087"/>
		<stop  offset="1" style="stop-color:#5B8263"/>
	</linearGradient>
	<path fill="url(#SVGID_41_)" d="M412.578,273.164h12.75v204.75h-12.75V273.164z"/>
	
		<linearGradient id="SVGID_42_" gradientUnits="userSpaceOnUse" x1="209.2217" y1="64.8081" x2="202.2217" y2="64.8081" gradientTransform="matrix(0.75 0 0 -0.75 264.7469 424.1437)">
		<stop  offset="0" style="stop-color:#4A7653"/>
		<stop  offset="0.01" style="stop-color:#99BEA0"/>
		<stop  offset="0.02" style="stop-color:#639B6E"/>
		<stop  offset="0.64" style="stop-color:#61996C"/>
		<stop  offset="0.99" style="stop-color:#5F956A"/>
		<stop  offset="1" style="stop-color:#446E4D"/>
	</linearGradient>
	<path fill="url(#SVGID_42_)" d="M416.414,273.164h5.25v204.75h-5.25V273.164z"/>
	
		<linearGradient id="SVGID_43_" gradientUnits="userSpaceOnUse" x1="219.2261" y1="64.8081" x2="202.2261" y2="64.8081" gradientTransform="matrix(0.75 0 0 -0.75 315.08 424.1437)">
		<stop  offset="0" style="stop-color:#638C6B"/>
		<stop  offset="0.01" style="stop-color:#ADD4B4"/>
		<stop  offset="0.02" style="stop-color:#82B78D"/>
		<stop  offset="0.64" style="stop-color:#80B48A"/>
		<stop  offset="0.99" style="stop-color:#7DB087"/>
		<stop  offset="1" style="stop-color:#5B8263"/>
	</linearGradient>
	<path fill="url(#SVGID_43_)" d="M466.75,273.164h12.75v204.75h-12.75V273.164z"/>
	
		<linearGradient id="SVGID_44_" gradientUnits="userSpaceOnUse" x1="209.2256" y1="64.8081" x2="202.2256" y2="64.8081" gradientTransform="matrix(0.75 0 0 -0.75 318.9198 424.1437)">
		<stop  offset="0" style="stop-color:#4A7653"/>
		<stop  offset="0.01" style="stop-color:#99BEA0"/>
		<stop  offset="0.02" style="stop-color:#639B6E"/>
		<stop  offset="0.64" style="stop-color:#61996C"/>
		<stop  offset="0.99" style="stop-color:#5F956A"/>
		<stop  offset="1" style="stop-color:#446E4D"/>
	</linearGradient>
	<path fill="url(#SVGID_44_)" d="M470.589,273.164h5.25v204.75h-5.25V273.164z"/>
	
		<linearGradient id="SVGID_45_" gradientUnits="userSpaceOnUse" x1="491.2231" y1="198.8062" x2="202.2246" y2="198.8061" gradientTransform="matrix(0.75 0 0 -0.75 18.5927 655.5607)">
		<stop  offset="0" style="stop-color:#3A6943"/>
		<stop  offset="0.01" style="stop-color:#8FB294"/>
		<stop  offset="0.02" style="stop-color:#4E8A5A"/>
		<stop  offset="0.64" style="stop-color:#4C8758"/>
		<stop  offset="0.99" style="stop-color:#4A8456"/>
		<stop  offset="1" style="stop-color:#35613E"/>
	</linearGradient>
	<path fill="url(#SVGID_45_)" d="M387.011,504.582v3c0,0-0.586,0.41-1.172,0.41l-214.828,0.34c0,0-0.75-0.375-0.75-0.426v-3.324
		H387.011z"/>
	
		<linearGradient id="SVGID_46_" gradientUnits="userSpaceOnUse" x1="491.2231" y1="198.8042" x2="202.2246" y2="198.8042" gradientTransform="matrix(0.75 0 0 -0.75 18.5927 666.5626)">
		<stop  offset="0" style="stop-color:#3A6943"/>
		<stop  offset="0.01" style="stop-color:#8FB294"/>
		<stop  offset="0.02" style="stop-color:#4E8A5A"/>
		<stop  offset="0.64" style="stop-color:#4C8758"/>
		<stop  offset="0.99" style="stop-color:#4A8456"/>
		<stop  offset="1" style="stop-color:#35613E"/>
	</linearGradient>
	<path fill="url(#SVGID_46_)" d="M387.011,515.585v3c0,0-0.586,0.41-1.172,0.41l-214.828,0.34c0,0-0.75-0.379-0.75-0.426v-3.324
		H387.011z"/>
	
		<linearGradient id="SVGID_47_" gradientUnits="userSpaceOnUse" x1="491.2231" y1="198.8052" x2="202.2246" y2="198.8051" gradientTransform="matrix(0.75 0 0 -0.75 18.5927 677.5636)">
		<stop  offset="0" style="stop-color:#3A6943"/>
		<stop  offset="0.01" style="stop-color:#8FB294"/>
		<stop  offset="0.02" style="stop-color:#4E8A5A"/>
		<stop  offset="0.64" style="stop-color:#4C8758"/>
		<stop  offset="0.99" style="stop-color:#4A8456"/>
		<stop  offset="1" style="stop-color:#35613E"/>
	</linearGradient>
	<path fill="url(#SVGID_47_)" d="M387.011,526.585v3c0,0-0.586,0.41-1.172,0.41l-214.828,0.34c0,0-0.75-0.379-0.75-0.426v-3.324
		H387.011z"/>
</g>
</svg>
