<?xml version="1.0" encoding="utf-8"?>
<!-- Generator: Adobe Illustrator 16.0.0, SVG Export Plug-In . SVG Version: 6.00 Build 0)  -->
<!DOCTYPE svg PUBLIC "-//W3C//DTD SVG 1.1//EN" "http://www.w3.org/Graphics/SVG/1.1/DTD/svg11.dtd">
<svg preserveAspectRatio="none"   version="1.1" id="图层_1" xmlns="http://www.w3.org/2000/svg" xmlns:xlink="http://www.w3.org/1999/xlink" x="0px" y="0px"
	 width="561.277px" height="524.873px" viewBox="2.773 41.978 561.277 524.873"
	 enable-background="new 2.773 41.978 561.277 524.873" xml:space="preserve">
<g id="surface646">
	
		<linearGradient id="SVGID_1_" gradientUnits="userSpaceOnUse" x1="464.2241" y1="566.6245" x2="464.2241" y2="534.6226" gradientTransform="matrix(0.75 0 0 0.75 -72.11 140.2743)">
		<stop  offset="0" style="stop-color:#D7D8D9"/>
		<stop  offset="0.2" style="stop-color:#E4E5E6"/>
		<stop  offset="0.4" style="stop-color:#FCFDFE"/>
		<stop  offset="0.6" style="stop-color:#FCFDFE"/>
		<stop  offset="0.8" style="stop-color:#E4E5E6"/>
		<stop  offset="1" style="stop-color:#D7D8D9"/>
	</linearGradient>
	<path fill="url(#SVGID_1_)" d="M79.559,565.242h393v-24h-393V565.242z"/>
	
		<linearGradient id="SVGID_2_" gradientUnits="userSpaceOnUse" x1="51.3047" y1="402.2241" x2="51.3047" y2="370.2241" gradientTransform="matrix(0 -0.75 0.75 0 -228.0778 536.3361)">
		<stop  offset="0" style="stop-color:#D7D8D9"/>
		<stop  offset="0.2" style="stop-color:#E4E5E6"/>
		<stop  offset="0.4" style="stop-color:#FCFDFE"/>
		<stop  offset="0.6" style="stop-color:#FCFDFE"/>
		<stop  offset="0.8" style="stop-color:#E4E5E6"/>
		<stop  offset="1" style="stop-color:#D7D8D9"/>
	</linearGradient>
	<path fill="url(#SVGID_2_)" d="M73.59,535.359v-75h-24v75H73.59z"/>
	<path fill="#ECEDEE" d="M87.922,540.585v26.25c0,0-15.098,0.93-28.262-11.691c-11.488-11.559-11.488-28.152-11.488-28.152
		l26.25,0.094c0,0,0.484,6.414,4.184,9.504c4.066,3.246,9.277,3.828,9.277,3.828L87.922,540.585z"/>
	<path fill="#DEDFE0" d="M87.676,540.101v3.75c0,0-6.789-0.426-11.461-4.887c-5.039-4.863-5.039-11.945-5.039-11.945l3.75,0.332
		c0,0,0.121,6.145,3.473,9.156c4.027,3.594,9.453,3.93,9.453,3.93L87.676,540.101z"/>
	<path fill="#E3E4E5" d="M87.492,559.601v3.75c0,0-15.258,0.125-25.656-10.398c-11.844-12.102-10.27-25.93-10.27-25.93l3.676,0.328
		c0,0-0.652,14.145,9.16,23.129c11.09,9.871,23.453,9.391,23.453,9.391L87.492,559.601z"/>
	<path fill="#DEDFE0" d="M87.895,563.035v3.75c0,0-14.469,1.148-28.227-11.605c-11.523-10.895-11.523-28.137-11.523-28.137
		l3.75-0.008c0,0-0.594,15.832,10.039,25.883c11.711,10.867,25.977,10.434,25.977,10.434L87.895,563.035z"/>
	<path fill="#FCFDFE" d="M87.723,550.496v6c0,0-11.344,0.953-20.809-8.516c-8.441-8.734-8.441-20.965-8.441-20.965l6,0.23
		c0,0-0.262,10.074,6.344,16.813c7.156,7.188,17.039,6.668,17.039,6.668L87.723,550.496z"/>
	<path fill="#F1F2F2" d="M88.016,556.128v3.75c0,0-12.879,0.699-23.672-9.43c-10.078-9.32-9.328-23.426-9.328-23.426l3.75-0.145
		c0,0-0.453,12.816,8.148,21.102c9.852,9.648,20.941,8.492,20.941,8.492L88.016,556.128z"/>
	<path fill="#F1F2F2" d="M87.504,546.98v3.75c0,0-10.012,0.496-16.688-6.672c-6.563-6.828-6.563-17.035-6.563-17.035l3.75-0.293
		c0,0,0.07,9.094,5.59,14.57c5.66,5.68,14.262,5.992,14.262,5.992L87.504,546.98z"/>
	<path fill="#E3E4E5" d="M87.973,543.546v3.75c0,0-8.832-0.422-14.379-5.996c-5.871-5.254-5.871-14.281-5.871-14.281l3.75,0.027
		c0,0-0.555,6.652,4.637,11.73c5.113,4.77,11.727,5.078,11.727,5.078L87.973,543.546z"/>
	
		<linearGradient id="SVGID_3_" gradientUnits="userSpaceOnUse" x1="180.2061" y1="566.6235" x2="180.2061" y2="534.6226" gradientTransform="matrix(-0.75 0 0 0.75 615.4816 140.2743)">
		<stop  offset="0" style="stop-color:#D7D8D9"/>
		<stop  offset="0.2" style="stop-color:#E4E5E6"/>
		<stop  offset="0.4" style="stop-color:#FCFDFE"/>
		<stop  offset="0.6" style="stop-color:#FCFDFE"/>
		<stop  offset="0.8" style="stop-color:#E4E5E6"/>
		<stop  offset="1" style="stop-color:#D7D8D9"/>
	</linearGradient>
	<path fill="url(#SVGID_3_)" d="M491.203,565.242h-21.75v-24h21.75V565.242z"/>
	
		<linearGradient id="SVGID_4_" gradientUnits="userSpaceOnUse" x1="418.6265" y1="402.2261" x2="418.6265" y2="370.2261" gradientTransform="matrix(0 0.75 0.75 0 219.3573 182.3856)">
		<stop  offset="0" style="stop-color:#D7D8D9"/>
		<stop  offset="0.2" style="stop-color:#E4E5E6"/>
		<stop  offset="0.4" style="stop-color:#FCFDFE"/>
		<stop  offset="0.6" style="stop-color:#FCFDFE"/>
		<stop  offset="0.8" style="stop-color:#E4E5E6"/>
		<stop  offset="1" style="stop-color:#D7D8D9"/>
	</linearGradient>
	<path fill="url(#SVGID_4_)" d="M521.027,457.355v78h-24v-78H521.027z"/>
	<path fill="#ECEDEE" d="M482.843,540.585v26.25c0,0,15.094,0.93,28.258-11.691c11.492-11.559,11.492-28.152,11.492-28.152
		l-26.25,0.094c0,0-0.488,6.414-4.188,9.504c-4.063,3.246-9.277,3.828-9.277,3.828L482.843,540.585z"/>
	<path fill="#DEDFE0" d="M483.085,540.101v3.75c0,0,6.789-0.426,11.465-4.887c5.035-4.863,5.035-11.945,5.035-11.945l-3.75,0.332
		c0,0-0.121,6.145-3.473,9.156c-4.027,3.594-9.453,3.93-9.453,3.93L483.085,540.101z"/>
	<path fill="#E3E4E5" d="M483.269,559.601v3.75c0,0,15.258,0.125,25.656-10.398c11.844-12.102,10.27-25.93,10.27-25.93l-3.676,0.328
		c0,0,0.652,14.145-9.16,23.129c-11.09,9.871-23.453,9.391-23.453,9.391L483.269,559.601z"/>
	<path fill="#DEDFE0" d="M482.867,563.035v3.75c0,0,14.469,1.148,28.227-11.605c11.523-10.895,11.523-28.137,11.523-28.137
		l-3.75-0.008c0,0,0.594,15.832-10.039,25.883c-11.711,10.867-25.977,10.434-25.977,10.434L482.867,563.035z"/>
	<path fill="#FCFDFE" d="M483.039,550.496v6c0,0,11.344,0.953,20.809-8.516c8.441-8.734,8.441-20.965,8.441-20.965l-6,0.23
		c0,0,0.262,10.074-6.344,16.813c-7.156,7.188-17.039,6.668-17.039,6.668L483.039,550.496z"/>
	<path fill="#F1F2F2" d="M482.746,556.128v3.75c0,0,12.879,0.699,23.672-9.43c10.078-9.32,9.328-23.426,9.328-23.426l-3.75-0.145
		c0,0,0.457,12.816-8.148,21.102c-9.852,9.648-20.941,8.492-20.941,8.492L482.746,556.128z"/>
	<path fill="#F1F2F2" d="M483.257,546.98v3.75c0,0,10.012,0.496,16.688-6.672c6.563-6.828,6.563-17.035,6.563-17.035l-3.75-0.293
		c0,0-0.07,9.094-5.59,14.57c-5.66,5.68-14.262,5.992-14.262,5.992L483.257,546.98z"/>
	<path fill="#E3E4E5" d="M482.789,543.546v3.75c0,0,8.832-0.422,14.379-5.996c5.871-5.254,5.871-14.281,5.871-14.281l-3.75,0.027
		c0,0,0.555,6.652-4.637,11.73c-5.113,4.77-11.727,5.078-11.727,5.078L482.789,543.546z"/>
	
		<linearGradient id="SVGID_5_" gradientUnits="userSpaceOnUse" x1="190.2012" y1="201.3037" x2="190.2012" y2="169.3037" gradientTransform="matrix(-0.75 0 0 -0.75 279.1896 240.8644)">
		<stop  offset="0" style="stop-color:#D7D8D9"/>
		<stop  offset="0.2" style="stop-color:#E4E5E6"/>
		<stop  offset="0.4" style="stop-color:#FCFDFE"/>
		<stop  offset="0.6" style="stop-color:#FCFDFE"/>
		<stop  offset="0.8" style="stop-color:#E4E5E6"/>
		<stop  offset="1" style="stop-color:#D7D8D9"/>
	</linearGradient>
	<path fill="url(#SVGID_5_)" d="M154.914,89.887h-36.75v24h36.75V89.887z"/>
	
		<linearGradient id="SVGID_6_" gradientUnits="userSpaceOnUse" x1="546.1245" y1="365.7046" x2="546.1245" y2="333.7046" gradientTransform="matrix(0 0.75 -0.75 0 435.1564 -155.1989)">
		<stop  offset="0" style="stop-color:#D7D8D9"/>
		<stop  offset="0.2" style="stop-color:#E4E5E6"/>
		<stop  offset="0.4" style="stop-color:#FCFDFE"/>
		<stop  offset="0.6" style="stop-color:#FCFDFE"/>
		<stop  offset="0.8" style="stop-color:#E4E5E6"/>
		<stop  offset="1" style="stop-color:#D7D8D9"/>
	</linearGradient>
	<path fill="url(#SVGID_6_)" d="M160.879,119.77v269.25h24V119.77H160.879z"/>
	<path fill="#ECEDEE" d="M146.555,114.543v-26.25c0,0,15.094-0.93,28.258,11.691c11.492,11.559,11.492,28.152,11.492,28.152
		l-26.25-0.094c0,0-0.488-6.414-4.188-9.504c-4.063-3.246-9.277-3.828-9.277-3.828L146.555,114.543z"/>
	<path fill="#DEDFE0" d="M146.797,115.027v-3.75c0,0,6.789,0.426,11.465,4.891c5.035,4.859,5.035,11.941,5.035,11.941l-3.75-0.332
		c0,0-0.121-6.145-3.473-9.156c-4.027-3.594-9.453-3.93-9.453-3.93L146.797,115.027z"/>
	<path fill="#E3E4E5" d="M146.98,95.527v-3.75c0,0,15.258-0.125,25.656,10.398c11.844,12.102,10.27,25.93,10.27,25.93l-3.676-0.328
		c0,0,0.652-14.145-9.16-23.129c-11.09-9.871-23.453-9.391-23.453-9.391L146.98,95.527z"/>
	<path fill="#DEDFE0" d="M146.578,92.094v-3.75c0,0,14.469-1.148,28.227,11.605c11.523,10.895,11.523,28.137,11.523,28.137
		l-3.75,0.008c0,0,0.594-15.832-10.039-25.883c-11.711-10.867-25.973-10.434-25.973-10.434L146.578,92.094z"/>
	<path fill="#FCFDFE" d="M146.75,104.633v-6c0,0,11.344-0.953,20.809,8.516C176,115.883,176,128.113,176,128.113l-6-0.23
		c0,0,0.262-10.074-6.344-16.813c-7.156-7.188-17.039-6.668-17.039-6.668L146.75,104.633z"/>
	<path fill="#F1F2F2" d="M146.457,99v-3.75c0,0,12.879-0.699,23.672,9.43c10.078,9.32,9.328,23.426,9.328,23.426l-3.75,0.145
		c0,0,0.457-12.816-8.148-21.102c-9.852-9.648-20.941-8.492-20.941-8.492L146.457,99z"/>
	<path fill="#F1F2F2" d="M146.969,108.148v-3.75c0,0,10.016-0.496,16.688,6.672c6.563,6.828,6.563,17.035,6.563,17.035l-3.75,0.293
		c0,0-0.066-9.094-5.59-14.57c-5.66-5.68-14.262-5.992-14.262-5.992L146.969,108.148z"/>
	<path fill="#E3E4E5" d="M146.5,111.582v-3.75c0,0,8.832,0.422,14.379,5.996c5.871,5.254,5.871,14.281,5.871,14.281l-3.75-0.027
		c0,0,0.559-6.652-4.637-11.73c-5.113-4.77-11.727-5.078-11.727-5.078L146.5,111.582z"/>
	
		<linearGradient id="SVGID_7_" gradientUnits="userSpaceOnUse" x1="225.2246" y1="566.6265" x2="225.2246" y2="534.6265" gradientTransform="matrix(0.75 0 0 0.75 39.0311 -0.6378)">
		<stop  offset="0" style="stop-color:#D7D8D9"/>
		<stop  offset="0.2" style="stop-color:#E4E5E6"/>
		<stop  offset="0.4" style="stop-color:#FCFDFE"/>
		<stop  offset="0.6" style="stop-color:#FCFDFE"/>
		<stop  offset="0.8" style="stop-color:#E4E5E6"/>
		<stop  offset="1" style="stop-color:#D7D8D9"/>
	</linearGradient>
	<path fill="url(#SVGID_7_)" d="M190.699,424.332h34.5v-24h-34.5V424.332z"/>
	
		<linearGradient id="SVGID_8_" gradientUnits="userSpaceOnUse" x1="15.8066" y1="402.2241" x2="15.8066" y2="370.2241" gradientTransform="matrix(0 -0.75 0.75 0 -116.9332 395.424)">
		<stop  offset="0" style="stop-color:#D7D8D9"/>
		<stop  offset="0.2" style="stop-color:#E4E5E6"/>
		<stop  offset="0.4" style="stop-color:#FCFDFE"/>
		<stop  offset="0.6" style="stop-color:#FCFDFE"/>
		<stop  offset="0.8" style="stop-color:#E4E5E6"/>
		<stop  offset="1" style="stop-color:#D7D8D9"/>
	</linearGradient>
	<path fill="url(#SVGID_8_)" d="M184.734,394.445v-21.75h-24v21.75H184.734z"/>
	<path fill="#ECEDEE" d="M199.063,399.675v26.25c0,0-15.094,0.93-28.262-11.695c-11.488-11.555-11.488-28.152-11.488-28.152
		l26.25,0.098c0,0,0.488,6.414,4.188,9.504c4.063,3.246,9.277,3.828,9.277,3.828L199.063,399.675z"/>
	<path fill="#DEDFE0" d="M198.82,399.191v3.75c0,0-6.789-0.43-11.465-4.891c-5.035-4.859-5.035-11.945-5.035-11.945l3.75,0.336
		c0,0,0.121,6.141,3.469,9.156c4.031,3.594,9.457,3.93,9.457,3.93L198.82,399.191z"/>
	<path fill="#E3E4E5" d="M198.637,418.687v3.75c0,0-15.262,0.129-25.66-10.398c-11.84-12.102-10.27-25.926-10.27-25.926l3.68,0.324
		c0,0-0.652,14.145,9.16,23.133c11.09,9.867,23.449,9.391,23.449,9.391L198.637,418.687z"/>
	<path fill="#DEDFE0" d="M199.039,422.121v3.75c0,0-14.473,1.152-28.227-11.605c-11.523-10.895-11.523-28.133-11.523-28.133
		l3.75-0.012c0,0-0.594,15.836,10.039,25.883c11.711,10.867,25.973,10.438,25.973,10.438L199.039,422.121z"/>
	<path fill="#FCFDFE" d="M198.867,409.585v6c0,0-11.344,0.949-20.813-8.52c-8.438-8.73-8.438-20.961-8.438-20.961l6,0.23
		c0,0-0.262,10.07,6.344,16.809c7.156,7.191,17.039,6.668,17.039,6.668L198.867,409.585z"/>
	<path fill="#F1F2F2" d="M199.156,415.218v3.75c0,0-12.879,0.699-23.668-9.43c-10.082-9.32-9.332-23.43-9.332-23.43l3.75-0.141
		c0,0-0.453,12.816,8.148,21.098c9.852,9.652,20.945,8.496,20.945,8.496L199.156,415.218z"/>
	<path fill="#F1F2F2" d="M198.645,406.07v3.75c0,0-10.012,0.496-16.684-6.676c-6.566-6.824-6.566-17.035-6.566-17.035l3.75-0.289
		c0,0,0.07,9.09,5.59,14.57c5.66,5.68,14.266,5.992,14.266,5.992L198.645,406.07z"/>
	<path fill="#E3E4E5" d="M199.117,402.636v3.75c0,0-8.832-0.422-14.383-5.996c-5.867-5.254-5.867-14.281-5.867-14.281l3.75,0.027
		c0,0-0.559,6.652,4.637,11.73c5.113,4.77,11.723,5.074,11.723,5.074L199.117,402.636z"/>
	
		<linearGradient id="SVGID_9_" gradientUnits="userSpaceOnUse" x1="190.2061" y1="201.3037" x2="190.2061" y2="169.3037" gradientTransform="matrix(-0.75 0 0 -0.75 503.13 240.8644)">
		<stop  offset="0" style="stop-color:#D7D8D9"/>
		<stop  offset="0.2" style="stop-color:#E4E5E6"/>
		<stop  offset="0.4" style="stop-color:#FCFDFE"/>
		<stop  offset="0.6" style="stop-color:#FCFDFE"/>
		<stop  offset="0.8" style="stop-color:#E4E5E6"/>
		<stop  offset="1" style="stop-color:#D7D8D9"/>
	</linearGradient>
	<path fill="url(#SVGID_9_)" d="M378.851,89.887h-36.75v24h36.75V89.887z"/>
	
		<linearGradient id="SVGID_10_" gradientUnits="userSpaceOnUse" x1="546.1245" y1="365.7026" x2="546.1245" y2="333.7026" gradientTransform="matrix(0 0.75 -0.75 0 659.0958 -155.1989)">
		<stop  offset="0" style="stop-color:#D7D8D9"/>
		<stop  offset="0.2" style="stop-color:#E4E5E6"/>
		<stop  offset="0.4" style="stop-color:#FCFDFE"/>
		<stop  offset="0.6" style="stop-color:#FCFDFE"/>
		<stop  offset="0.8" style="stop-color:#E4E5E6"/>
		<stop  offset="1" style="stop-color:#D7D8D9"/>
	</linearGradient>
	<path fill="url(#SVGID_10_)" d="M384.82,119.77v269.25h24V119.77H384.82z"/>
	<path fill="#ECEDEE" d="M370.492,114.543v-26.25c0,0,15.094-0.93,28.262,11.691c11.488,11.559,11.488,28.152,11.488,28.152
		l-26.25-0.094c0,0-0.488-6.414-4.188-9.504c-4.063-3.246-9.277-3.828-9.277-3.828L370.492,114.543z"/>
	<path fill="#DEDFE0" d="M370.738,115.027v-3.75c0,0,6.785,0.426,11.461,4.891c5.039,4.859,5.039,11.941,5.039,11.941l-3.75-0.332
		c0,0-0.125-6.145-3.473-9.156c-4.027-3.594-9.457-3.93-9.457-3.93L370.738,115.027z"/>
	<path fill="#E3E4E5" d="M370.917,95.527v-3.75c0,0,15.262-0.125,25.66,10.398c11.84,12.102,10.27,25.93,10.27,25.93l-3.68-0.328
		c0,0,0.652-14.145-9.16-23.129c-11.09-9.871-23.449-9.391-23.449-9.391L370.917,95.527z"/>
	<path fill="#DEDFE0" d="M370.519,92.094v-3.75c0,0,14.469-1.148,28.223,11.605c11.527,10.895,11.527,28.137,11.527,28.137
		l-3.75,0.008c0,0,0.59-15.832-10.043-25.883c-11.707-10.867-25.973-10.434-25.973-10.434L370.519,92.094z"/>
	<path fill="#FCFDFE" d="M370.691,104.633v-6c0,0,11.344-0.953,20.809,8.516c8.441,8.734,8.441,20.965,8.441,20.965l-6-0.23
		c0,0,0.262-10.074-6.344-16.813c-7.156-7.188-17.043-6.668-17.043-6.668L370.691,104.633z"/>
	<path fill="#F1F2F2" d="M370.398,99v-3.75c0,0,12.879-0.699,23.672,9.43c10.078,9.32,9.328,23.426,9.328,23.426l-3.75,0.145
		c0,0,0.453-12.816-8.148-21.102c-9.852-9.648-20.945-8.492-20.945-8.492L370.398,99z"/>
	<path fill="#F1F2F2" d="M370.91,108.148v-3.75c0,0,10.012-0.496,16.688,6.672c6.563,6.828,6.563,17.035,6.563,17.035l-3.75,0.293
		c0,0-0.07-9.094-5.59-14.57c-5.66-5.68-14.266-5.992-14.266-5.992L370.91,108.148z"/>
	<path fill="#E3E4E5" d="M370.437,111.582v-3.75c0,0,8.836,0.422,14.383,5.996c5.867,5.254,5.867,14.281,5.867,14.281l-3.75-0.027
		c0,0,0.559-6.652-4.633-11.73c-5.117-4.77-11.727-5.078-11.727-5.078L370.437,111.582z"/>
	
		<linearGradient id="SVGID_11_" gradientUnits="userSpaceOnUse" x1="225.2256" y1="566.6255" x2="225.2256" y2="534.6255" gradientTransform="matrix(0.75 0 0 0.75 262.9716 -0.6378)">
		<stop  offset="0" style="stop-color:#D7D8D9"/>
		<stop  offset="0.2" style="stop-color:#E4E5E6"/>
		<stop  offset="0.4" style="stop-color:#FCFDFE"/>
		<stop  offset="0.6" style="stop-color:#FCFDFE"/>
		<stop  offset="0.8" style="stop-color:#E4E5E6"/>
		<stop  offset="1" style="stop-color:#D7D8D9"/>
	</linearGradient>
	<path fill="url(#SVGID_11_)" d="M414.64,424.332h34.5v-24h-34.5V424.332z"/>
	
		<linearGradient id="SVGID_12_" gradientUnits="userSpaceOnUse" x1="15.8066" y1="402.2251" x2="15.8066" y2="370.2251" gradientTransform="matrix(0 -0.75 0.75 0 107.0067 395.424)">
		<stop  offset="0" style="stop-color:#D7D8D9"/>
		<stop  offset="0.2" style="stop-color:#E4E5E6"/>
		<stop  offset="0.4" style="stop-color:#FCFDFE"/>
		<stop  offset="0.6" style="stop-color:#FCFDFE"/>
		<stop  offset="0.8" style="stop-color:#E4E5E6"/>
		<stop  offset="1" style="stop-color:#D7D8D9"/>
	</linearGradient>
	<path fill="url(#SVGID_12_)" d="M408.675,394.445v-21.75h-24v21.75H408.675z"/>
	<path fill="#ECEDEE" d="M423.003,399.675v26.25c0,0-15.098,0.93-28.262-11.695c-11.488-11.555-11.488-28.152-11.488-28.152
		l26.25,0.098c0,0,0.484,6.414,4.188,9.504c4.063,3.246,9.273,3.828,9.273,3.828L423.003,399.675z"/>
	<path fill="#DEDFE0" d="M422.757,399.191v3.75c0,0-6.789-0.43-11.461-4.891c-5.039-4.859-5.039-11.945-5.039-11.945l3.75,0.336
		c0,0,0.125,6.141,3.473,9.156c4.027,3.594,9.457,3.93,9.457,3.93L422.757,399.191z"/>
	<path fill="#E3E4E5" d="M422.574,418.687v3.75c0,0-15.258,0.129-25.656-10.398c-11.844-12.102-10.27-25.926-10.27-25.926
		l3.676,0.324c0,0-0.652,14.145,9.164,23.133c11.086,9.867,23.449,9.391,23.449,9.391L422.574,418.687z"/>
	<path fill="#DEDFE0" d="M422.976,422.121v3.75c0,0-14.469,1.152-28.227-11.605c-11.523-10.895-11.523-28.133-11.523-28.133
		l3.75-0.012c0,0-0.594,15.836,10.039,25.883c11.711,10.867,25.977,10.438,25.977,10.438L422.976,422.121z"/>
	<path fill="#FCFDFE" d="M422.804,409.585v6c0,0-11.344,0.949-20.809-8.52c-8.441-8.73-8.441-20.961-8.441-20.961l6,0.23
		c0,0-0.262,10.07,6.344,16.809c7.156,7.191,17.043,6.668,17.043,6.668L422.804,409.585z"/>
	<path fill="#F1F2F2" d="M423.097,415.218v3.75c0,0-12.879,0.699-23.672-9.43c-10.078-9.32-9.328-23.43-9.328-23.43l3.75-0.141
		c0,0-0.453,12.816,8.148,21.098c9.852,9.652,20.945,8.496,20.945,8.496L423.097,415.218z"/>
	<path fill="#F1F2F2" d="M422.585,406.07v3.75c0,0-10.012,0.496-16.688-6.676c-6.563-6.824-6.563-17.035-6.563-17.035l3.75-0.289
		c0,0,0.07,9.09,5.59,14.57c5.66,5.68,14.266,5.992,14.266,5.992L422.585,406.07z"/>
	<path fill="#E3E4E5" d="M423.054,402.636v3.75c0,0-8.832-0.422-14.379-5.996c-5.871-5.254-5.871-14.281-5.871-14.281l3.75,0.027
		c0,0-0.555,6.652,4.637,11.73c5.113,4.77,11.727,5.074,11.727,5.074L423.054,402.636z"/>
	
		<linearGradient id="SVGID_13_" gradientUnits="userSpaceOnUse" x1="202.2251" y1="150.8032" x2="234.2241" y2="150.8032" gradientTransform="matrix(0.75 0 0 -0.75 119.8666 616.6993)">
		<stop  offset="0" style="stop-color:#D7D8D9"/>
		<stop  offset="0.2" style="stop-color:#E4E5E6"/>
		<stop  offset="0.4" style="stop-color:#FCFDFE"/>
		<stop  offset="0.6" style="stop-color:#FCFDFE"/>
		<stop  offset="0.8" style="stop-color:#E4E5E6"/>
		<stop  offset="1" style="stop-color:#D7D8D9"/>
	</linearGradient>
	<path fill="url(#SVGID_13_)" d="M271.535,465.722h24v75.75h-24V465.722z"/>
	
		<linearGradient id="SVGID_14_" gradientUnits="userSpaceOnUse" x1="359.2222" y1="-41.1968" x2="202.2231" y2="-41.1968" gradientTransform="matrix(0.75 0 0 -0.75 72.9769 227.4611)">
		<stop  offset="0" style="stop-color:#BCA7AB"/>
		<stop  offset="0.15" style="stop-color:#FDE3E9"/>
		<stop  offset="0.25" style="stop-color:#FEEFF2"/>
		<stop  offset="0.52" style="stop-color:#DEC5CA"/>
		<stop  offset="0.69" style="stop-color:#C5AFB4"/>
		<stop  offset="0.8" style="stop-color:#BAA5AA"/>
		<stop  offset="0.92" style="stop-color:#B09CA0"/>
		<stop  offset="1" style="stop-color:#CAB3B8"/>
	</linearGradient>
	<path fill="url(#SVGID_14_)" d="M224.645,76.484h117.75v363.75h-117.75V76.484z"/>
	
		<linearGradient id="SVGID_15_" gradientUnits="userSpaceOnUse" x1="359.2651" y1="178.3091" x2="202.2241" y2="178.3091" gradientTransform="matrix(0.75 0 0 -0.75 72.9056 192.962)">
		<stop  offset="0" style="stop-color:#BCA7AB"/>
		<stop  offset="0.15" style="stop-color:#FDE3E9"/>
		<stop  offset="0.25" style="stop-color:#FEEFF2"/>
		<stop  offset="0.52" style="stop-color:#DEC5CA"/>
		<stop  offset="0.69" style="stop-color:#C5AFB4"/>
		<stop  offset="0.8" style="stop-color:#BAA5AA"/>
		<stop  offset="0.92" style="stop-color:#B09CA0"/>
		<stop  offset="1" style="stop-color:#CAB3B8"/>
	</linearGradient>
	<path fill="url(#SVGID_15_)" d="M302.574,41.984c35.25,0,39.781,34.383,39.781,34.383l-117.781,0.117c0,0,6.191-35.051,40.105-34.5
		c-0.355,0,37.55,0,37.55,0H302.574z"/>
	
		<linearGradient id="SVGID_16_" gradientUnits="userSpaceOnUse" x1="359.2651" y1="543.6313" x2="202.2241" y2="543.6313" gradientTransform="matrix(0.75 0 0 0.75 72.9056 49.3114)">
		<stop  offset="0" style="stop-color:#BCA7AB"/>
		<stop  offset="0.15" style="stop-color:#FDE3E9"/>
		<stop  offset="0.25" style="stop-color:#FEEFF2"/>
		<stop  offset="0.52" style="stop-color:#DEC5CA"/>
		<stop  offset="0.69" style="stop-color:#C5AFB4"/>
		<stop  offset="0.8" style="stop-color:#BAA5AA"/>
		<stop  offset="0.92" style="stop-color:#B09CA0"/>
		<stop  offset="1" style="stop-color:#CAB3B8"/>
	</linearGradient>
	<path fill="url(#SVGID_16_)" d="M302.574,474.281c35.25,0,39.781-34.383,39.781-34.383l-117.781-0.117
		c0,0,6.191,35.047,40.105,34.5c-0.355,0,37.55,0,37.55,0H302.574z"/>
	
		<linearGradient id="SVGID_17_" gradientUnits="userSpaceOnUse" x1="359.2222" y1="197.3076" x2="202.2231" y2="197.3076" gradientTransform="matrix(0.75 0 0 -0.75 72.9769 227.4796)">
		<stop  offset="0" style="stop-color:#B68D8B"/>
		<stop  offset="0.15" style="stop-color:#F7C4C1"/>
		<stop  offset="0.25" style="stop-color:#FADFDD"/>
		<stop  offset="0.52" style="stop-color:#D7A7A4"/>
		<stop  offset="0.69" style="stop-color:#C09492"/>
		<stop  offset="0.8" style="stop-color:#B58C89"/>
		<stop  offset="0.92" style="stop-color:#AB8481"/>
		<stop  offset="1" style="stop-color:#C49895"/>
	</linearGradient>
	<path fill="url(#SVGID_17_)" d="M224.645,76.5h117.75v6h-117.75V76.5z"/>
	
		<linearGradient id="SVGID_18_" gradientUnits="userSpaceOnUse" x1="359.2222" y1="197.3018" x2="202.2231" y2="197.3017" gradientTransform="matrix(0.75 0 0 -0.75 72.9769 584.9288)">
		<stop  offset="0" style="stop-color:#B68D8B"/>
		<stop  offset="0.15" style="stop-color:#F7C4C1"/>
		<stop  offset="0.25" style="stop-color:#FADFDD"/>
		<stop  offset="0.52" style="stop-color:#D7A7A4"/>
		<stop  offset="0.69" style="stop-color:#C09492"/>
		<stop  offset="0.8" style="stop-color:#B58C89"/>
		<stop  offset="0.92" style="stop-color:#AB8481"/>
		<stop  offset="1" style="stop-color:#C49895"/>
	</linearGradient>
	<path fill="url(#SVGID_18_)" d="M224.645,433.953h117.75v6h-117.75V433.953z"/>
	
		<linearGradient id="SVGID_19_" gradientUnits="userSpaceOnUse" x1="359.2251" y1="-41.1968" x2="202.2256" y2="-41.1968" gradientTransform="matrix(0.75 0 0 -0.75 294.6307 227.4611)">
		<stop  offset="0" style="stop-color:#BCA7AB"/>
		<stop  offset="0.15" style="stop-color:#FDE3E9"/>
		<stop  offset="0.25" style="stop-color:#FEEFF2"/>
		<stop  offset="0.52" style="stop-color:#DEC5CA"/>
		<stop  offset="0.69" style="stop-color:#C5AFB4"/>
		<stop  offset="0.8" style="stop-color:#BAA5AA"/>
		<stop  offset="0.92" style="stop-color:#B09CA0"/>
		<stop  offset="1" style="stop-color:#CAB3B8"/>
	</linearGradient>
	<path fill="url(#SVGID_19_)" d="M446.3,76.484h117.75v363.75H446.3V76.484z"/>
	
		<linearGradient id="SVGID_20_" gradientUnits="userSpaceOnUse" x1="359.2632" y1="178.3091" x2="202.2212" y2="178.3091" gradientTransform="matrix(0.75 0 0 -0.75 294.5594 192.962)">
		<stop  offset="0" style="stop-color:#BCA7AB"/>
		<stop  offset="0.15" style="stop-color:#FDE3E9"/>
		<stop  offset="0.25" style="stop-color:#FEEFF2"/>
		<stop  offset="0.52" style="stop-color:#DEC5CA"/>
		<stop  offset="0.69" style="stop-color:#C5AFB4"/>
		<stop  offset="0.8" style="stop-color:#BAA5AA"/>
		<stop  offset="0.92" style="stop-color:#B09CA0"/>
		<stop  offset="1" style="stop-color:#CAB3B8"/>
	</linearGradient>
	<path fill="url(#SVGID_20_)" d="M524.226,41.984c35.25,0,39.781,34.383,39.781,34.383l-117.781,0.117c0,0,6.195-35.051,40.105-34.5
		c-0.355,0,37.555,0,37.555,0H524.226z"/>
	
		<linearGradient id="SVGID_21_" gradientUnits="userSpaceOnUse" x1="359.2632" y1="543.6313" x2="202.2212" y2="543.6313" gradientTransform="matrix(0.75 0 0 0.75 294.5594 49.3114)">
		<stop  offset="0" style="stop-color:#BCA7AB"/>
		<stop  offset="0.15" style="stop-color:#FDE3E9"/>
		<stop  offset="0.25" style="stop-color:#FEEFF2"/>
		<stop  offset="0.52" style="stop-color:#DEC5CA"/>
		<stop  offset="0.69" style="stop-color:#C5AFB4"/>
		<stop  offset="0.8" style="stop-color:#BAA5AA"/>
		<stop  offset="0.92" style="stop-color:#B09CA0"/>
		<stop  offset="1" style="stop-color:#CAB3B8"/>
	</linearGradient>
	<path fill="url(#SVGID_21_)" d="M524.226,474.281c35.25,0,39.781-34.383,39.781-34.383l-117.781-0.117
		c0,0,6.195,35.047,40.105,34.5c-0.355,0,37.555,0,37.555,0H524.226z"/>
	
		<linearGradient id="SVGID_22_" gradientUnits="userSpaceOnUse" x1="359.2251" y1="197.3076" x2="202.2256" y2="197.3076" gradientTransform="matrix(0.75 0 0 -0.75 294.6307 227.4796)">
		<stop  offset="0" style="stop-color:#B68D8B"/>
		<stop  offset="0.15" style="stop-color:#F7C4C1"/>
		<stop  offset="0.25" style="stop-color:#FADFDD"/>
		<stop  offset="0.52" style="stop-color:#D7A7A4"/>
		<stop  offset="0.69" style="stop-color:#C09492"/>
		<stop  offset="0.8" style="stop-color:#B58C89"/>
		<stop  offset="0.92" style="stop-color:#AB8481"/>
		<stop  offset="1" style="stop-color:#C49895"/>
	</linearGradient>
	<path fill="url(#SVGID_22_)" d="M446.3,76.5h117.75v6H446.3V76.5z"/>
	
		<linearGradient id="SVGID_23_" gradientUnits="userSpaceOnUse" x1="359.2251" y1="197.3018" x2="202.2256" y2="197.3017" gradientTransform="matrix(0.75 0 0 -0.75 294.6307 584.9288)">
		<stop  offset="0" style="stop-color:#B68D8B"/>
		<stop  offset="0.15" style="stop-color:#F7C4C1"/>
		<stop  offset="0.25" style="stop-color:#FADFDD"/>
		<stop  offset="0.52" style="stop-color:#D7A7A4"/>
		<stop  offset="0.69" style="stop-color:#C09492"/>
		<stop  offset="0.8" style="stop-color:#B58C89"/>
		<stop  offset="0.92" style="stop-color:#AB8481"/>
		<stop  offset="1" style="stop-color:#C49895"/>
	</linearGradient>
	<path fill="url(#SVGID_23_)" d="M446.3,433.953h117.75v6H446.3V433.953z"/>
	
		<linearGradient id="SVGID_24_" gradientUnits="userSpaceOnUse" x1="359.2251" y1="-41.1968" x2="202.2251" y2="-41.1968" gradientTransform="matrix(0.75 0 0 -0.75 -148.8253 227.4611)">
		<stop  offset="0" style="stop-color:#BCA7AB"/>
		<stop  offset="0.15" style="stop-color:#FDE3E9"/>
		<stop  offset="0.25" style="stop-color:#FEEFF2"/>
		<stop  offset="0.52" style="stop-color:#DEC5CA"/>
		<stop  offset="0.69" style="stop-color:#C5AFB4"/>
		<stop  offset="0.8" style="stop-color:#BAA5AA"/>
		<stop  offset="0.92" style="stop-color:#B09CA0"/>
		<stop  offset="1" style="stop-color:#CAB3B8"/>
	</linearGradient>
	<path fill="url(#SVGID_24_)" d="M2.844,76.484h117.75v363.75H2.844V76.484z"/>
	
		<linearGradient id="SVGID_25_" gradientUnits="userSpaceOnUse" x1="359.2622" y1="178.3091" x2="202.2261" y2="178.3091" gradientTransform="matrix(0.75 0 0 -0.75 -148.8966 192.962)">
		<stop  offset="0" style="stop-color:#BCA7AB"/>
		<stop  offset="0.15" style="stop-color:#FDE3E9"/>
		<stop  offset="0.25" style="stop-color:#FEEFF2"/>
		<stop  offset="0.52" style="stop-color:#DEC5CA"/>
		<stop  offset="0.69" style="stop-color:#C5AFB4"/>
		<stop  offset="0.8" style="stop-color:#BAA5AA"/>
		<stop  offset="0.92" style="stop-color:#B09CA0"/>
		<stop  offset="1" style="stop-color:#CAB3B8"/>
	</linearGradient>
	<path fill="url(#SVGID_25_)" d="M80.773,41.984c35.25,0,39.777,34.383,39.777,34.383L2.773,76.484c0,0,6.191-35.051,40.102-34.5
		c-0.352,0,37.555,0,37.555,0H80.773z"/>
	
		<linearGradient id="SVGID_26_" gradientUnits="userSpaceOnUse" x1="359.2622" y1="543.6313" x2="202.2261" y2="543.6313" gradientTransform="matrix(0.75 0 0 0.75 -148.8966 49.3114)">
		<stop  offset="0" style="stop-color:#BCA7AB"/>
		<stop  offset="0.15" style="stop-color:#FDE3E9"/>
		<stop  offset="0.25" style="stop-color:#FEEFF2"/>
		<stop  offset="0.52" style="stop-color:#DEC5CA"/>
		<stop  offset="0.69" style="stop-color:#C5AFB4"/>
		<stop  offset="0.8" style="stop-color:#BAA5AA"/>
		<stop  offset="0.92" style="stop-color:#B09CA0"/>
		<stop  offset="1" style="stop-color:#CAB3B8"/>
	</linearGradient>
	<path fill="url(#SVGID_26_)" d="M80.773,474.281c35.25,0,39.777-34.383,39.777-34.383L2.773,439.781c0,0,6.191,35.047,40.102,34.5
		c-0.352,0,37.555,0,37.555,0H80.773z"/>
	
		<linearGradient id="SVGID_27_" gradientUnits="userSpaceOnUse" x1="359.2251" y1="197.3076" x2="202.2251" y2="197.3076" gradientTransform="matrix(0.75 0 0 -0.75 -148.8253 227.4796)">
		<stop  offset="0" style="stop-color:#B68D8B"/>
		<stop  offset="0.15" style="stop-color:#F7C4C1"/>
		<stop  offset="0.25" style="stop-color:#FADFDD"/>
		<stop  offset="0.52" style="stop-color:#D7A7A4"/>
		<stop  offset="0.69" style="stop-color:#C09492"/>
		<stop  offset="0.8" style="stop-color:#B58C89"/>
		<stop  offset="0.92" style="stop-color:#AB8481"/>
		<stop  offset="1" style="stop-color:#C49895"/>
	</linearGradient>
	<path fill="url(#SVGID_27_)" d="M2.844,76.5h117.75v6H2.844V76.5z"/>
	
		<linearGradient id="SVGID_28_" gradientUnits="userSpaceOnUse" x1="359.2251" y1="197.3018" x2="202.2251" y2="197.3017" gradientTransform="matrix(0.75 0 0 -0.75 -148.8253 584.9288)">
		<stop  offset="0" style="stop-color:#B68D8B"/>
		<stop  offset="0.15" style="stop-color:#F7C4C1"/>
		<stop  offset="0.25" style="stop-color:#FADFDD"/>
		<stop  offset="0.52" style="stop-color:#D7A7A4"/>
		<stop  offset="0.69" style="stop-color:#C09492"/>
		<stop  offset="0.8" style="stop-color:#B58C89"/>
		<stop  offset="0.92" style="stop-color:#AB8481"/>
		<stop  offset="1" style="stop-color:#C49895"/>
	</linearGradient>
	<path fill="url(#SVGID_28_)" d="M2.844,433.953h117.75v6H2.844V433.953z"/>
	
		<linearGradient id="SVGID_29_" gradientUnits="userSpaceOnUse" x1="244.7275" y1="566.6265" x2="244.7275" y2="555.6265" gradientTransform="matrix(0.75 0 0 0.75 99.7704 132.5721)">
		<stop  offset="0" style="stop-color:#CBCBCB"/>
		<stop  offset="0.2" style="stop-color:#D8D8D8"/>
		<stop  offset="0.4" style="stop-color:#EFEFEF"/>
		<stop  offset="0.6" style="stop-color:#EFEFEF"/>
		<stop  offset="0.8" style="stop-color:#D8D8D8"/>
		<stop  offset="1" style="stop-color:#CBCBCB"/>
	</linearGradient>
	<path fill="url(#SVGID_29_)" d="M251.441,557.542h63.75v-8.25h-63.75V557.542z"/>
	
		<linearGradient id="SVGID_30_" gradientUnits="userSpaceOnUse" x1="202.2236" y1="558.1245" x2="213.5615" y2="558.1245" gradientTransform="matrix(0.75 0 0 0.75 127.5433 128.3202)">
		<stop  offset="0" style="stop-color:#CBCBCB"/>
		<stop  offset="0.2" style="stop-color:#D8D8D8"/>
		<stop  offset="0.4" style="stop-color:#EFEFEF"/>
		<stop  offset="0.6" style="stop-color:#EFEFEF"/>
		<stop  offset="0.8" style="stop-color:#D8D8D8"/>
		<stop  offset="1" style="stop-color:#CBCBCB"/>
	</linearGradient>
	<path fill="url(#SVGID_30_)" d="M279.211,540.539v8.25c0,3,0.371,4.48,4.23,4.5c4.019,0,4.273-1.438,4.273-4.25l-0.254-8.5H279.211
		z"/>
</g>
</svg>
