<?xml version="1.0" encoding="utf-8"?>
<!-- Generator: Adobe Illustrator 16.0.0, SVG Export Plug-In . SVG Version: 6.00 Build 0)  -->
<!DOCTYPE svg PUBLIC "-//W3C//DTD SVG 1.1//EN" "http://www.w3.org/Graphics/SVG/1.1/DTD/svg11.dtd">
<svg preserveAspectRatio="none"   version="1.1" id="图层_1" xmlns="http://www.w3.org/2000/svg" xmlns:xlink="http://www.w3.org/1999/xlink" x="0px" y="0px"
	 width="560.102px" height="566.851px" viewBox="3.246 0.027 560.102 566.851" enable-background="new 3.246 0.027 560.102 566.851"
	 xml:space="preserve">
<g id="surface366">
	
		<linearGradient id="SVGID_1_" gradientUnits="userSpaceOnUse" x1="351.8579" y1="201.3047" x2="351.8579" y2="116.9658" gradientTransform="matrix(0.75 0 0 -0.75 186.4169 654.6027)">
		<stop  offset="0" style="stop-color:#4E4D4D"/>
		<stop  offset="0.01" style="stop-color:#9C9B9B"/>
		<stop  offset="0.02" style="stop-color:#686767"/>
		<stop  offset="0.64" style="stop-color:#666565"/>
		<stop  offset="0.99" style="stop-color:#636262"/>
		<stop  offset="1" style="stop-color:#484747"/>
	</linearGradient>
	<path fill="url(#SVGID_1_)" d="M359.085,503.625h183c11.25,0,20.449,9.285,20.449,20.738l-0.199,22.012
		c0,11.25-9.086,20.504-20.535,20.504l-182.715-0.254c-12,0-21-9.031-21-20.484v-21.516c0-12,9.281-21,20.734-21H359.085z"/>
	
		<linearGradient id="SVGID_2_" gradientUnits="userSpaceOnUse" x1="345.9604" y1="201.3086" x2="345.9604" y2="128.2871" gradientTransform="matrix(0.75 0 0 -0.75 190.8397 658.8468)">
		<stop  offset="0" style="stop-color:#000000"/>
		<stop  offset="0.01" style="stop-color:#7C7C7C"/>
		<stop  offset="0.02" style="stop-color:#000000"/>
		<stop  offset="0.64" style="stop-color:#000000"/>
		<stop  offset="0.99" style="stop-color:#000000"/>
		<stop  offset="1" style="stop-color:#000000"/>
	</linearGradient>
	<path fill="url(#SVGID_2_)" d="M362.757,507.867h174.75c11.25,0,20.605,9.262,20.605,20.715l-0.355,13.035
		c0,12-8.852,21.016-20.203,21.016l-174.797-0.016c-11.25,0-20.25-9.309-20.25-20.762v-12.988c0-12,9.141-21,20.492-21H362.757z"/>
	<path fill="#3E3938" stroke="#3E3938" stroke-width="0.25" stroke-linejoin="bevel" stroke-miterlimit="10" d="M341.886,534.925
		c0-14.25,11.863-26.25,26.504-26.25c14.746,0,26.5,11.898,26.5,26.574c0.246,14.676-11.863,26.574-26.5,26.574
		c-14.504,0.102-26.504-11.898-26.504-26.574V534.925z"/>
	
		<radialGradient id="SVGID_3_" cx="233.1841" cy="170.2817" r="43.8283" gradientTransform="matrix(0.75 0 0 -0.75 193.5009 662.9611)" gradientUnits="userSpaceOnUse">
		<stop  offset="0" style="stop-color:#3C3736"/>
		<stop  offset="0.54" style="stop-color:#3B3635"/>
		<stop  offset="0.74" style="stop-color:#5B5858"/>
		<stop  offset="0.91" style="stop-color:#3B3635"/>
		<stop  offset="1" style="stop-color:#3B3635"/>
	</radialGradient>
	<path fill="url(#SVGID_3_)" stroke="#3E3938" stroke-width="0.25" stroke-linejoin="bevel" stroke-miterlimit="10" d="
		M345.167,535.234c0-12.75,10.398-23.25,23.223-23.25c12.777,0,23.219,10.418,23.219,23.266
		c0.059,12.734-10.398,23.266-23.219,23.266c-12.723-0.031-23.223-10.414-23.223-23.266V535.234z"/>
	
		<linearGradient id="SVGID_4_" gradientUnits="userSpaceOnUse" x1="222.4155" y1="189.6885" x2="202.2231" y2="189.6885" gradientTransform="matrix(0.75 0 0 -0.75 209.1483 676.4142)">
		<stop  offset="0" style="stop-color:#4E4D4D"/>
		<stop  offset="0.01" style="stop-color:#9C9B9B"/>
		<stop  offset="0.02" style="stop-color:#686767"/>
		<stop  offset="0.64" style="stop-color:#666565"/>
		<stop  offset="0.99" style="stop-color:#636262"/>
		<stop  offset="1" style="stop-color:#484747"/>
	</linearGradient>
	<path fill="url(#SVGID_4_)" d="M361.566,525.437h14.25c0,0,0.145,0.176,0.145,0.395l-0.145,16.855c0,0-0.031,0.172-0.25,0.172
		l-14-0.172c-0.75,0-0.75-0.004-0.75-0.223v-16.277c0-0.75,0.176-0.75,0.395-0.75H361.566z"/>
	
		<radialGradient id="SVGID_5_" cx="209.3354" cy="194.1792" r="10.0659" gradientTransform="matrix(0.75 0 0 -0.75 211.3866 679.7902)" gradientUnits="userSpaceOnUse">
		<stop  offset="0" style="stop-color:#565454"/>
		<stop  offset="0.54" style="stop-color:#555353"/>
		<stop  offset="0.74" style="stop-color:#6D6C6C"/>
		<stop  offset="0.91" style="stop-color:#555353"/>
		<stop  offset="1" style="stop-color:#555353"/>
	</radialGradient>
	<path fill="url(#SVGID_5_)" stroke="#595757" stroke-width="0.25" stroke-linejoin="bevel" stroke-miterlimit="10" d="
		M363.054,534.062c0-3,2.391-5.25,5.336-5.25c2.914,0,5.332,2.395,5.332,5.344c-0.168,2.906-2.387,5.344-5.332,5.344
		c-3.086-0.188-5.336-2.391-5.336-5.344V534.062z"/>
	<path fill="#3E3938" stroke="#3E3938" stroke-width="0.25" stroke-linejoin="bevel" stroke-miterlimit="10" d="M396.07,534.925
		c0-14.25,11.863-26.25,26.5-26.25c14.75,0,26.504,11.898,26.504,26.574c0.246,14.676-11.867,26.574-26.504,26.574
		c-14.5,0.102-26.5-11.898-26.5-26.574V534.925z"/>
	
		<radialGradient id="SVGID_6_" cx="233.1841" cy="170.2817" r="43.8276" gradientTransform="matrix(0.75 0 0 -0.75 247.6835 662.9611)" gradientUnits="userSpaceOnUse">
		<stop  offset="0" style="stop-color:#3C3736"/>
		<stop  offset="0.54" style="stop-color:#3B3635"/>
		<stop  offset="0.74" style="stop-color:#5B5858"/>
		<stop  offset="0.91" style="stop-color:#3B3635"/>
		<stop  offset="1" style="stop-color:#3B3635"/>
	</radialGradient>
	<path fill="url(#SVGID_6_)" stroke="#3E3938" stroke-width="0.25" stroke-linejoin="bevel" stroke-miterlimit="10" d="
		M399.351,535.234c0-12.75,10.398-23.25,23.219-23.25c12.781,0,23.223,10.418,23.223,23.266
		c0.059,12.734-10.398,23.266-23.223,23.266c-12.719-0.031-23.219-10.414-23.219-23.266V535.234z"/>
	
		<linearGradient id="SVGID_7_" gradientUnits="userSpaceOnUse" x1="222.417" y1="189.6885" x2="202.2246" y2="189.6885" gradientTransform="matrix(0.75 0 0 -0.75 263.3309 676.4142)">
		<stop  offset="0" style="stop-color:#4E4D4D"/>
		<stop  offset="0.01" style="stop-color:#9C9B9B"/>
		<stop  offset="0.02" style="stop-color:#686767"/>
		<stop  offset="0.64" style="stop-color:#666565"/>
		<stop  offset="0.99" style="stop-color:#636262"/>
		<stop  offset="1" style="stop-color:#484747"/>
	</linearGradient>
	<path fill="url(#SVGID_7_)" d="M415.75,525.437H430c0,0,0.145,0.176,0.145,0.395L430,542.687c0,0-0.031,0.172-0.25,0.172l-14-0.172
		c-0.75,0-0.75-0.004-0.75-0.223v-16.277c0-0.75,0.176-0.75,0.395-0.75H415.75z"/>
	
		<radialGradient id="SVGID_8_" cx="209.3359" cy="194.1792" r="10.0663" gradientTransform="matrix(0.75 0 0 -0.75 265.5702 679.7902)" gradientUnits="userSpaceOnUse">
		<stop  offset="0" style="stop-color:#565454"/>
		<stop  offset="0.54" style="stop-color:#555353"/>
		<stop  offset="0.74" style="stop-color:#6D6C6C"/>
		<stop  offset="0.91" style="stop-color:#555353"/>
		<stop  offset="1" style="stop-color:#555353"/>
	</radialGradient>
	<path fill="url(#SVGID_8_)" stroke="#595757" stroke-width="0.25" stroke-linejoin="bevel" stroke-miterlimit="10" d="
		M417.238,534.062c0-3,2.387-5.25,5.332-5.25c2.918,0,5.336,2.395,5.336,5.344c-0.168,2.906-2.391,5.344-5.336,5.344
		c-3.082-0.188-5.332-2.391-5.332-5.344V534.062z"/>
	<path fill="#3E3938" stroke="#3E3938" stroke-width="0.25" stroke-linejoin="bevel" stroke-miterlimit="10" d="M448.945,534.925
		c0-14.25,11.867-26.25,26.504-26.25c14.746,0,26.504,11.898,26.504,26.574c0.242,14.676-11.867,26.574-26.504,26.574
		c-14.504,0.102-26.504-11.898-26.504-26.574V534.925z"/>
	
		<radialGradient id="SVGID_9_" cx="233.1831" cy="170.2817" r="43.8283" gradientTransform="matrix(0.75 0 0 -0.75 300.5614 662.9611)" gradientUnits="userSpaceOnUse">
		<stop  offset="0" style="stop-color:#3C3736"/>
		<stop  offset="0.54" style="stop-color:#3B3635"/>
		<stop  offset="0.74" style="stop-color:#5B5858"/>
		<stop  offset="0.91" style="stop-color:#3B3635"/>
		<stop  offset="1" style="stop-color:#3B3635"/>
	</radialGradient>
	<path fill="url(#SVGID_9_)" stroke="#3E3938" stroke-width="0.25" stroke-linejoin="bevel" stroke-miterlimit="10" d="
		M452.23,535.234c0-12.75,10.395-23.25,23.219-23.25c12.781,0,23.219,10.418,23.219,23.266
		c0.063,12.734-10.395,23.266-23.219,23.266c-12.719-0.031-23.219-10.414-23.219-23.266V535.234z"/>
	
		<linearGradient id="SVGID_10_" gradientUnits="userSpaceOnUse" x1="222.4131" y1="189.6885" x2="202.2256" y2="189.6885" gradientTransform="matrix(0.75 0 0 -0.75 316.2089 676.4142)">
		<stop  offset="0" style="stop-color:#4E4D4D"/>
		<stop  offset="0.01" style="stop-color:#9C9B9B"/>
		<stop  offset="0.02" style="stop-color:#686767"/>
		<stop  offset="0.64" style="stop-color:#666565"/>
		<stop  offset="0.99" style="stop-color:#636262"/>
		<stop  offset="1" style="stop-color:#484747"/>
	</linearGradient>
	<path fill="url(#SVGID_10_)" d="M468.628,525.437h14.25c0,0,0.141,0.176,0.141,0.395l-0.141,16.855c0,0-0.035,0.172-0.25,0.172
		l-14-0.172c-0.75,0-0.75-0.004-0.75-0.223v-16.277c0-0.75,0.176-0.75,0.391-0.75H468.628z"/>
	
		<radialGradient id="SVGID_11_" cx="209.3345" cy="194.1792" r="10.0673" gradientTransform="matrix(0.75 0 0 -0.75 318.4481 679.7902)" gradientUnits="userSpaceOnUse">
		<stop  offset="0" style="stop-color:#565454"/>
		<stop  offset="0.54" style="stop-color:#555353"/>
		<stop  offset="0.74" style="stop-color:#6D6C6C"/>
		<stop  offset="0.91" style="stop-color:#555353"/>
		<stop  offset="1" style="stop-color:#555353"/>
	</radialGradient>
	<path fill="url(#SVGID_11_)" stroke="#595757" stroke-width="0.25" stroke-linejoin="bevel" stroke-miterlimit="10" d="
		M470.117,534.062c0-3,2.387-5.25,5.332-5.25c2.918,0,5.332,2.395,5.332,5.344c-0.164,2.906-2.387,5.344-5.332,5.344
		c-3.082-0.188-5.332-2.391-5.332-5.344V534.062z"/>
	<path fill="#3E3938" stroke="#3E3938" stroke-width="0.25" stroke-linejoin="bevel" stroke-miterlimit="10" d="M503.292,534.925
		c0-14.25,11.867-26.25,26.504-26.25c14.746,0,26.504,11.898,26.504,26.574c0.242,14.676-11.867,26.574-26.504,26.574
		c-14.504,0.102-26.504-11.898-26.504-26.574V534.925z"/>
	
		<radialGradient id="SVGID_12_" cx="233.1851" cy="170.2817" r="43.8276" gradientTransform="matrix(0.75 0 0 -0.75 354.9081 662.9611)" gradientUnits="userSpaceOnUse">
		<stop  offset="0" style="stop-color:#3C3736"/>
		<stop  offset="0.54" style="stop-color:#3B3635"/>
		<stop  offset="0.74" style="stop-color:#5B5858"/>
		<stop  offset="0.91" style="stop-color:#3B3635"/>
		<stop  offset="1" style="stop-color:#3B3635"/>
	</radialGradient>
	<path fill="url(#SVGID_12_)" stroke="#3E3938" stroke-width="0.25" stroke-linejoin="bevel" stroke-miterlimit="10" d="
		M506.578,535.234c0-12.75,10.395-23.25,23.219-23.25c12.781,0,23.219,10.418,23.219,23.266
		c0.063,12.734-10.395,23.266-23.219,23.266c-12.719-0.031-23.219-10.414-23.219-23.266V535.234z"/>
	
		<linearGradient id="SVGID_13_" gradientUnits="userSpaceOnUse" x1="222.4136" y1="189.6885" x2="202.2261" y2="189.6885" gradientTransform="matrix(0.75 0 0 -0.75 370.5565 676.4142)">
		<stop  offset="0" style="stop-color:#4E4D4D"/>
		<stop  offset="0.01" style="stop-color:#9C9B9B"/>
		<stop  offset="0.02" style="stop-color:#686767"/>
		<stop  offset="0.64" style="stop-color:#666565"/>
		<stop  offset="0.99" style="stop-color:#636262"/>
		<stop  offset="1" style="stop-color:#484747"/>
	</linearGradient>
	<path fill="url(#SVGID_13_)" d="M522.976,525.437h14.25c0,0,0.141,0.176,0.141,0.395l-0.141,16.855c0,0-0.035,0.172-0.25,0.172
		l-14-0.172c-0.75,0-0.75-0.004-0.75-0.223v-16.277c0-0.75,0.176-0.75,0.391-0.75H522.976z"/>
	
		<radialGradient id="SVGID_14_" cx="209.3359" cy="194.1792" r="10.0663" gradientTransform="matrix(0.75 0 0 -0.75 372.7948 679.7902)" gradientUnits="userSpaceOnUse">
		<stop  offset="0" style="stop-color:#565454"/>
		<stop  offset="0.54" style="stop-color:#555353"/>
		<stop  offset="0.74" style="stop-color:#6D6C6C"/>
		<stop  offset="0.91" style="stop-color:#555353"/>
		<stop  offset="1" style="stop-color:#555353"/>
	</radialGradient>
	<path fill="url(#SVGID_14_)" stroke="#595757" stroke-width="0.25" stroke-linejoin="bevel" stroke-miterlimit="10" d="
		M524.464,534.062c0-3,2.387-5.25,5.332-5.25c2.918,0,5.332,2.395,5.332,5.344c-0.164,2.906-2.387,5.344-5.332,5.344
		c-3.082-0.188-5.332-2.391-5.332-5.344V534.062z"/>
	
		<linearGradient id="SVGID_15_" gradientUnits="userSpaceOnUse" x1="637.0347" y1="267.7148" x2="637.0347" y2="224.7139" gradientTransform="matrix(0.5303 0.5303 0.5303 -0.5303 -159.5974 85.9591)">
		<stop  offset="0" style="stop-color:#5F89A6"/>
		<stop  offset="0.01" style="stop-color:#AAD1EF"/>
		<stop  offset="0.02" style="stop-color:#7EB3D8"/>
		<stop  offset="0.64" style="stop-color:#7CB0D5"/>
		<stop  offset="0.99" style="stop-color:#79ACD0"/>
		<stop  offset="1" style="stop-color:#587F9A"/>
	</linearGradient>
	<path fill="url(#SVGID_15_)" d="M155.289,116.891l329.863,329.863l-22.805,22.805L132.484,139.691L155.289,116.891z"/>
	
		<linearGradient id="SVGID_16_" gradientUnits="userSpaceOnUse" x1="427.0366" y1="267.7173" x2="427.0366" y2="231.7134" gradientTransform="matrix(0.5303 0.5303 0.5303 -0.5303 -268.2849 -19.9174)">
		<stop  offset="0" style="stop-color:#292525"/>
		<stop  offset="0.01" style="stop-color:#868584"/>
		<stop  offset="0.02" style="stop-color:#383433"/>
		<stop  offset="0.64" style="stop-color:#373332"/>
		<stop  offset="0.99" style="stop-color:#363130"/>
		<stop  offset="1" style="stop-color:#252221"/>
	</linearGradient>
	<path fill="url(#SVGID_16_)" d="M46.602,11.012l107.125,107.129l-19.09,19.09L27.508,30.105L46.602,11.012z"/>
	
		<linearGradient id="SVGID_17_" gradientUnits="userSpaceOnUse" x1="329.0386" y1="267.7163" x2="329.0386" y2="220.7153" gradientTransform="matrix(0.5303 0.5303 0.5303 -0.5303 -185.6091 57.5626)">
		<stop  offset="0" style="stop-color:#5F89A6"/>
		<stop  offset="0.01" style="stop-color:#AAD1EF"/>
		<stop  offset="0.02" style="stop-color:#7EB3D8"/>
		<stop  offset="0.64" style="stop-color:#7CB0D5"/>
		<stop  offset="0.99" style="stop-color:#79ACD0"/>
		<stop  offset="1" style="stop-color:#587F9A"/>
	</linearGradient>
	<path fill="url(#SVGID_17_)" d="M129.277,88.492l3.18,3.184l-24.922,24.926l-3.184-3.184L129.277,88.492z"/>
	
		<linearGradient id="SVGID_18_" gradientUnits="userSpaceOnUse" x1="329.0366" y1="267.7163" x2="329.0366" y2="220.7158" gradientTransform="matrix(0.5303 0.5303 0.5303 -0.5303 -213.4509 28.9703)">
		<stop  offset="0" style="stop-color:#5F89A6"/>
		<stop  offset="0.01" style="stop-color:#AAD1EF"/>
		<stop  offset="0.02" style="stop-color:#7EB3D8"/>
		<stop  offset="0.64" style="stop-color:#7CB0D5"/>
		<stop  offset="0.99" style="stop-color:#79ACD0"/>
		<stop  offset="1" style="stop-color:#587F9A"/>
	</linearGradient>
	<path fill="url(#SVGID_18_)" d="M101.434,59.898l3.184,3.184L79.691,88.008l-3.184-3.184L101.434,59.898z"/>
	
		<linearGradient id="SVGID_19_" gradientUnits="userSpaceOnUse" x1="329.0366" y1="267.7178" x2="329.0366" y2="220.7173" gradientTransform="matrix(0.5303 0.5303 0.5303 -0.5303 -242.0622 0.5919)">
		<stop  offset="0" style="stop-color:#5F89A6"/>
		<stop  offset="0.01" style="stop-color:#AAD1EF"/>
		<stop  offset="0.02" style="stop-color:#7EB3D8"/>
		<stop  offset="0.64" style="stop-color:#7CB0D5"/>
		<stop  offset="0.99" style="stop-color:#79ACD0"/>
		<stop  offset="1" style="stop-color:#587F9A"/>
	</linearGradient>
	<path fill="url(#SVGID_19_)" d="M72.824,31.52l3.184,3.184L51.082,59.629l-3.184-3.184L72.824,31.52z"/>
	
		<linearGradient id="SVGID_20_" gradientUnits="userSpaceOnUse" x1="206.2241" y1="186.8037" x2="202.2241" y2="186.8037" gradientTransform="matrix(0.75 0 0 -0.75 -142.4142 181.5861)">
		<stop  offset="0" style="stop-color:#6490AE"/>
		<stop  offset="0.15" style="stop-color:#94C7EC"/>
		<stop  offset="0.25" style="stop-color:#CAE1F4"/>
		<stop  offset="0.52" style="stop-color:#77AACE"/>
		<stop  offset="0.69" style="stop-color:#6997B7"/>
		<stop  offset="0.8" style="stop-color:#638FAD"/>
		<stop  offset="0.92" style="stop-color:#5D86A3"/>
		<stop  offset="1" style="stop-color:#6C9BBB"/>
	</linearGradient>
	<path fill="url(#SVGID_20_)" d="M9.254,52.359h3v-21.75h-3V52.359z"/>
	
		<linearGradient id="SVGID_21_" gradientUnits="userSpaceOnUse" x1="206.2236" y1="186.8037" x2="202.2236" y2="186.8037" gradientTransform="matrix(0.75 0 0 -0.75 -128.0197 181.5861)">
		<stop  offset="0" style="stop-color:#6490AE"/>
		<stop  offset="0.15" style="stop-color:#94C7EC"/>
		<stop  offset="0.25" style="stop-color:#CAE1F4"/>
		<stop  offset="0.52" style="stop-color:#77AACE"/>
		<stop  offset="0.69" style="stop-color:#6997B7"/>
		<stop  offset="0.8" style="stop-color:#638FAD"/>
		<stop  offset="0.92" style="stop-color:#5D86A3"/>
		<stop  offset="1" style="stop-color:#6C9BBB"/>
	</linearGradient>
	<path fill="url(#SVGID_21_)" d="M23.648,52.359h3v-21.75h-3V52.359z"/>
	
		<linearGradient id="SVGID_22_" gradientUnits="userSpaceOnUse" x1="336.5366" y1="267.7183" x2="336.5366" y2="212.7183" gradientTransform="matrix(0.5303 0.5303 0.5303 -0.5303 -277.82 -30.9008)">
		<stop  offset="0" style="stop-color:#5F89A6"/>
		<stop  offset="0.01" style="stop-color:#AAD1EF"/>
		<stop  offset="0.02" style="stop-color:#7EB3D8"/>
		<stop  offset="0.64" style="stop-color:#7CB0D5"/>
		<stop  offset="0.99" style="stop-color:#79ACD0"/>
		<stop  offset="1" style="stop-color:#587F9A"/>
	</linearGradient>
	<path fill="url(#SVGID_22_)" d="M37.066,0.027l11.137,11.137L19.035,40.332L7.898,29.195L37.066,0.027z"/>
	
		<linearGradient id="SVGID_23_" gradientUnits="userSpaceOnUse" x1="269.4814" y1="52.1465" x2="259.4795" y2="52.1465" gradientTransform="matrix(-0.6495 0.375 -0.375 -0.6495 490.0292 289.8376)">
		<stop  offset="0" style="stop-color:#BDBDBD"/>
		<stop  offset="0.15" style="stop-color:#FFFFFF"/>
		<stop  offset="0.25" style="stop-color:#FFFFFF"/>
		<stop  offset="0.52" style="stop-color:#DFDFDF"/>
		<stop  offset="0.69" style="stop-color:#C7C7C7"/>
		<stop  offset="0.8" style="stop-color:#BCBCBC"/>
		<stop  offset="0.92" style="stop-color:#B1B1B1"/>
		<stop  offset="1" style="stop-color:#CBCBCB"/>
	</linearGradient>
	<path fill="url(#SVGID_23_)" d="M240.25,246.426l-6.496,3.75l123.375,213.691l6.496-3.75L240.25,246.426z"/>
	
		<linearGradient id="SVGID_24_" gradientUnits="userSpaceOnUse" x1="273.48" y1="112.6431" x2="259.4824" y2="112.6431" gradientTransform="matrix(-0.6495 0.375 -0.375 -0.6495 537.9374 370.3396)">
		<stop  offset="0" style="stop-color:#6490AE"/>
		<stop  offset="0.15" style="stop-color:#94C7EC"/>
		<stop  offset="0.25" style="stop-color:#CAE1F4"/>
		<stop  offset="0.52" style="stop-color:#77AACE"/>
		<stop  offset="0.69" style="stop-color:#6997B7"/>
		<stop  offset="0.8" style="stop-color:#638FAD"/>
		<stop  offset="0.92" style="stop-color:#5D86A3"/>
		<stop  offset="1" style="stop-color:#6C9BBB"/>
	</linearGradient>
	<path fill="url(#SVGID_24_)" d="M288.156,326.929l-9.089,5.25l78,135.102l9.09-5.25L288.156,326.929z"/>
	
		<linearGradient id="SVGID_25_" gradientUnits="userSpaceOnUse" x1="213.7236" y1="201.3047" x2="213.7236" y2="186.3047" gradientTransform="matrix(0.75 0 0 -0.75 -142.5192 201.7911)">
		<stop  offset="0" style="stop-color:#5F89A6"/>
		<stop  offset="0.01" style="stop-color:#AAD1EF"/>
		<stop  offset="0.02" style="stop-color:#7EB3D8"/>
		<stop  offset="0.64" style="stop-color:#7CB0D5"/>
		<stop  offset="0.99" style="stop-color:#79ACD0"/>
		<stop  offset="1" style="stop-color:#587F9A"/>
	</linearGradient>
	<path fill="url(#SVGID_25_)" d="M9.148,50.813h17.25v11.25H9.148V50.813z"/>
	
		<linearGradient id="SVGID_26_" gradientUnits="userSpaceOnUse" x1="216.7051" y1="201.3018" x2="216.7051" y2="150.1504" gradientTransform="matrix(0.75 0 0 -0.75 -144.423 212.6788)">
		<stop  offset="0" style="stop-color:#5F89A6"/>
		<stop  offset="0.01" style="stop-color:#AAD1EF"/>
		<stop  offset="0.02" style="stop-color:#7EB3D8"/>
		<stop  offset="0.64" style="stop-color:#7CB0D5"/>
		<stop  offset="0.99" style="stop-color:#79ACD0"/>
		<stop  offset="1" style="stop-color:#587F9A"/>
	</linearGradient>
	<path fill="url(#SVGID_26_)" d="M9.496,61.703h17.25c0,0,1.996,1,2.219,19.25c0.031,18.25-2.203,19.113-2.203,19.113L9.496,99.953
		c0,0-2.25-1.301-2.25-18.723c0-18.777,1.906-19.527,1.906-19.527H9.496z"/>
	
		<linearGradient id="SVGID_27_" gradientUnits="userSpaceOnUse" x1="214.2236" y1="201.3047" x2="214.2236" y2="190.3047" gradientTransform="matrix(0.75 0 0 -0.75 -142.5192 251.045)">
		<stop  offset="0" style="stop-color:#5F89A6"/>
		<stop  offset="0.01" style="stop-color:#AAD1EF"/>
		<stop  offset="0.02" style="stop-color:#7EB3D8"/>
		<stop  offset="0.64" style="stop-color:#7CB0D5"/>
		<stop  offset="0.99" style="stop-color:#79ACD0"/>
		<stop  offset="1" style="stop-color:#587F9A"/>
	</linearGradient>
	<path fill="url(#SVGID_27_)" d="M9.148,100.066h18l-6,8.25h-6L9.148,100.066z"/>
	
		<linearGradient id="SVGID_28_" gradientUnits="userSpaceOnUse" x1="206.2266" y1="201.3047" x2="206.2266" y2="196.3047" gradientTransform="matrix(0.75 0 0 -0.75 -136.6427 259.3068)">
		<stop  offset="0" style="stop-color:#5F89A6"/>
		<stop  offset="0.01" style="stop-color:#AAD1EF"/>
		<stop  offset="0.02" style="stop-color:#7EB3D8"/>
		<stop  offset="0.64" style="stop-color:#7CB0D5"/>
		<stop  offset="0.99" style="stop-color:#79ACD0"/>
		<stop  offset="1" style="stop-color:#587F9A"/>
	</linearGradient>
	<path fill="url(#SVGID_28_)" d="M15.027,108.328h6v3.75h-6V108.328z"/>
	
		<linearGradient id="SVGID_29_" gradientUnits="userSpaceOnUse" x1="214.52" y1="201.3457" x2="214.52" y2="182.4033" gradientTransform="matrix(0.75 0 0 -0.75 -148.3893 263.2286)">
		<stop  offset="0" style="stop-color:#5F89A6"/>
		<stop  offset="0.01" style="stop-color:#AAD1EF"/>
		<stop  offset="0.02" style="stop-color:#7EB3D8"/>
		<stop  offset="0.64" style="stop-color:#7CB0D5"/>
		<stop  offset="0.99" style="stop-color:#79ACD0"/>
		<stop  offset="1" style="stop-color:#587F9A"/>
	</linearGradient>
	<path fill="url(#SVGID_29_)" d="M15.281,112.25c0,0,3.441,9.102-3.234,10.176c0.234,0.324-7.516,0.895-6.055-8.238
		c0.289,0.313-3.129-2.145-2.711,3.762c0,0.301-0.211,9.309,11.688,8.414c0.313,0.137,8.973-1.074,6.262-10.563
		c0.051,0.199-0.242-2-0.242-3.582L15.281,112.25z"/>
	
		<linearGradient id="SVGID_30_" gradientUnits="userSpaceOnUse" x1="343.5376" y1="267.7183" x2="343.5376" y2="249.7163" gradientTransform="matrix(0.5303 0.5303 0.5303 -0.5303 -86.5388 198.7711)">
		<stop  offset="0" style="stop-color:#5F89A6"/>
		<stop  offset="0.01" style="stop-color:#AAD1EF"/>
		<stop  offset="0.02" style="stop-color:#7EB3D8"/>
		<stop  offset="0.64" style="stop-color:#7CB0D5"/>
		<stop  offset="0.99" style="stop-color:#79ACD0"/>
		<stop  offset="1" style="stop-color:#587F9A"/>
	</linearGradient>
	<path fill="url(#SVGID_30_)" d="M228.348,229.699l18.559,18.563l-9.543,9.547l-18.563-18.563L228.348,229.699z"/>
	
		<linearGradient id="SVGID_31_" gradientUnits="userSpaceOnUse" x1="527.5356" y1="267.7158" x2="527.5356" y2="260.7183" gradientTransform="matrix(0.5303 0.5303 0.5303 -0.5303 -44.737 227.8165)">
		<stop  offset="0" style="stop-color:#6490AE"/>
		<stop  offset="0.15" style="stop-color:#94C7EC"/>
		<stop  offset="0.25" style="stop-color:#CAE1F4"/>
		<stop  offset="0.52" style="stop-color:#77AACE"/>
		<stop  offset="0.69" style="stop-color:#6997B7"/>
		<stop  offset="0.8" style="stop-color:#638FAD"/>
		<stop  offset="0.92" style="stop-color:#5D86A3"/>
		<stop  offset="1" style="stop-color:#6C9BBB"/>
	</linearGradient>
	<path fill="url(#SVGID_31_)" d="M270.148,258.746l213.722,213.722l-3.711,3.711L266.438,262.457L270.148,258.746z"/>
	
		<linearGradient id="SVGID_32_" gradientUnits="userSpaceOnUse" x1="287.2241" y1="201.3057" x2="287.2241" y2="137.3047" gradientTransform="matrix(0.75 0 0 -0.75 284.1796 594.5636)">
		<stop  offset="0" style="stop-color:#5F89A6"/>
		<stop  offset="0.01" style="stop-color:#AAD1EF"/>
		<stop  offset="0.02" style="stop-color:#7EB3D8"/>
		<stop  offset="0.64" style="stop-color:#7CB0D5"/>
		<stop  offset="0.99" style="stop-color:#79ACD0"/>
		<stop  offset="1" style="stop-color:#587F9A"/>
	</linearGradient>
	<path fill="url(#SVGID_32_)" d="M435.847,443.585h127.5v48h-127.5V443.585z"/>
	
		<linearGradient id="SVGID_33_" gradientUnits="userSpaceOnUse" x1="308.4585" y1="134.8037" x2="202.2642" y2="134.8037" gradientTransform="matrix(0.75 0 0 -0.75 204.537 543.129)">
		<stop  offset="0" style="stop-color:#5F89A6"/>
		<stop  offset="0.01" style="stop-color:#AAD1EF"/>
		<stop  offset="0.02" style="stop-color:#7EB3D8"/>
		<stop  offset="0.64" style="stop-color:#7CB0D5"/>
		<stop  offset="0.99" style="stop-color:#79ACD0"/>
		<stop  offset="1" style="stop-color:#587F9A"/>
	</linearGradient>
	<path fill="url(#SVGID_33_)" d="M365.957,392.152c7.5,0,64.316,0,64.316,0c6.184,0,5.594,5.184,5.594,5.184l-0.16,94.566
		l-75.848-0.203c-8.152-40.297,0-93.672,0-93.672c0.098,0.125-0.793-5.875,6.367-5.875H365.957z"/>
	<path fill="#717070" fill-opacity="0.3922" d="M413.996,402.523h14.25c0.75,0,1.219,0.496,1.219,1.105l0.281,42.395
		c0,0.75-0.773,1.086-1.387,1.086l-14.363-0.336c0,0-0.77-0.156-0.77-0.77l0.02-42.73c0,0,0.473-0.75,1.086-0.75H413.996z"/>
	<path fill="#717070" fill-opacity="0.3922" d="M364.234,401.875h42c0.75,0,1.117,0.453,1.117,1.063l-0.367,43.188
		c0,0.75-0.129,0.984-0.738,0.984l-42.012-0.234c0,0-0.75-0.258-0.75-0.871v-43.379c0,0,0.473-0.75,1.086-0.75H364.234z"/>
	<path fill="#717070" fill-opacity="0.3922" d="M364.234,455.406h34.5c0.75,0,1.035,0.496,1.035,1.105l-0.285,12.395
		c0,0.75-0.25,1.434-0.863,1.434l-34.387,11.316c0,0-0.75-0.477-0.75-1.086v-24.414c0,0,0.477-0.75,1.086-0.75H364.234z"/>
	
		<linearGradient id="SVGID_34_" gradientUnits="userSpaceOnUse" x1="274.2256" y1="193.3066" x2="202.2256" y2="193.3066" gradientTransform="matrix(0.75 0 0 -0.75 218.8768 642.6779)">
		<stop  offset="0" style="stop-color:#5F89A6"/>
		<stop  offset="0.01" style="stop-color:#AAD1EF"/>
		<stop  offset="0.02" style="stop-color:#7EB3D8"/>
		<stop  offset="0.64" style="stop-color:#7CB0D5"/>
		<stop  offset="0.99" style="stop-color:#79ACD0"/>
		<stop  offset="1" style="stop-color:#587F9A"/>
	</linearGradient>
	<path fill="url(#SVGID_34_)" d="M370.546,491.699h54v12h-54V491.699z"/>
	
		<linearGradient id="SVGID_35_" gradientUnits="userSpaceOnUse" x1="223.3623" y1="190.7036" x2="202.1699" y2="190.7036" gradientTransform="matrix(0.75 0 0 -0.75 107.8217 401.0704)">
		<stop  offset="0" style="stop-color:#BDBDBD"/>
		<stop  offset="0.15" style="stop-color:#FFFFFF"/>
		<stop  offset="0.25" style="stop-color:#FFFFFF"/>
		<stop  offset="0.52" style="stop-color:#DFDFDF"/>
		<stop  offset="0.69" style="stop-color:#C7C7C7"/>
		<stop  offset="0.8" style="stop-color:#BCBCBC"/>
		<stop  offset="0.92" style="stop-color:#B1B1B1"/>
		<stop  offset="1" style="stop-color:#CBCBCB"/>
	</linearGradient>
	<path fill="url(#SVGID_35_)" d="M259.492,258.344c0-4.5,3.516-8.25,7.902-8.25c4.098,0,7.949,3.559,7.949,7.949
		c-0.102,4.051-3.559,7.949-7.949,7.949c-4.152-0.148-7.945-3.559-7.945-7.949L259.492,258.344z"/>
	
		<linearGradient id="SVGID_36_" gradientUnits="userSpaceOnUse" x1="213.96" y1="195.4775" x2="202.1963" y2="195.4775" gradientTransform="matrix(0.75 0 0 -0.75 111.3529 404.6349)">
		<stop  offset="0" style="stop-color:#6490AE"/>
		<stop  offset="0.15" style="stop-color:#94C7EC"/>
		<stop  offset="0.25" style="stop-color:#CAE1F4"/>
		<stop  offset="0.52" style="stop-color:#77AACE"/>
		<stop  offset="0.69" style="stop-color:#6997B7"/>
		<stop  offset="0.8" style="stop-color:#638FAD"/>
		<stop  offset="0.92" style="stop-color:#5D86A3"/>
		<stop  offset="1" style="stop-color:#6C9BBB"/>
	</linearGradient>
	<path fill="url(#SVGID_36_)" d="M263.023,258.156c0-2.25,1.949-4.543,4.383-4.543c2.367,0.043,4.402,1.973,4.402,4.406
		c0.215,2.387-1.969,4.406-4.402,4.406c-2.133,0.23-4.406-1.973-4.406-4.406L263.023,258.156z"/>
	<path fill="#AFCFE5" d="M365.984,405.175h39v39h-39V405.175z"/>
	<path fill="#AFCFE5" d="M415.898,404.765h11.25v39.75h-11.25V404.765z"/>
	<path fill="#AFCFE5" d="M365.679,457.601v21.75l31.5-10.5l0.75-11.25H365.679z"/>
	
		<linearGradient id="SVGID_37_" gradientUnits="userSpaceOnUse" x1="345.7241" y1="201.3037" x2="345.7241" y2="192.3027" gradientTransform="matrix(0.75 0 0 -0.75 190.8397 682.9572)">
		<stop  offset="0" style="stop-color:#292525"/>
		<stop  offset="0.01" style="stop-color:#868584"/>
		<stop  offset="0.02" style="stop-color:#383433"/>
		<stop  offset="0.64" style="stop-color:#373332"/>
		<stop  offset="0.99" style="stop-color:#363130"/>
		<stop  offset="1" style="stop-color:#252221"/>
	</linearGradient>
	<path fill="url(#SVGID_37_)" d="M342.507,531.98h215.25v6.75h-215.25V531.98z"/>
</g>
</svg>
