<?xml version="1.0" encoding="utf-8"?>
<!-- Generator: Adobe Illustrator 16.0.0, SVG Export Plug-In . SVG Version: 6.00 Build 0)  -->
<!DOCTYPE svg PUBLIC "-//W3C//DTD SVG 1.1//EN" "http://www.w3.org/Graphics/SVG/1.1/DTD/svg11.dtd">
<svg preserveAspectRatio="none"   version="1.1" id="图层_1" xmlns="http://www.w3.org/2000/svg" xmlns:xlink="http://www.w3.org/1999/xlink" x="0px" y="0px"
	 width="559.164px" height="419.154px" viewBox="3.448 145.5 559.164 419.154" enable-background="new 3.448 145.5 559.164 419.154"
	 xml:space="preserve">
<g id="surface526">
	<path fill="#AC6C37" d="M561.011,519.75C537.761,582,20.344,577.21,4.238,519.703C-11.238,462,205,145.5,271.762,145.5
		c66.5,0,312.71,311.57,289.285,374.203L561.011,519.75z"/>
	<path fill="#FFFFFF" fill-opacity="0.102" d="M544,509.574c-21.75,58.5-507.667,53.785-522.792-0.137
		C7,455.574,209.75,158.574,272.445,158.574c63.054,0,293.675,292.14,271.679,350.863L544,509.574z"/>
	<path fill="#FFFFFF" fill-opacity="0.102" d="M544.226,509c-34.5,60-398.019,52.488-449.058,29.402
		C44.727,515.75,220.246,169.25,282.941,169.25c65.535,9,277.57,282.851,261.55,340.042L544.226,509z"/>
	<path fill="#FFFFFF" fill-opacity="0.1255" d="M543.738,509.027c-23.25,53.25-298.316,45.379-366.023,41.441
		c-55.477-3.191,66.219-351.605,128.902-352.691c66.121,5.25,252.594,254.32,237.473,311.515L543.738,509.027z"/>
	<path fill="#FFFFFF" fill-opacity="0.102" d="M544.246,509.593c-30,27.75-79.301,36.156-152.996,43.051
		c-50.254-152.551-95.047-332.171-56.508-328.8c70.754,13.5,219.781,232.714,209.504,285.449V509.593z"/>
	<path fill="#944E2A" d="M236.09,222.266l9,2.25l2.25-9h-4.5l-1.5,3L236.09,222.266z"/>
	<path fill="#944E2A" d="M240.473,256.035l12.75,6.75h-10.5L240.473,256.035z"/>
	<path fill="#944E2A" d="M292.886,258.309v9h6.75v-2.25L292.886,258.309z"/>
	<path fill="#944E2A" d="M270.477,236.16v5.25h6.75v-5.25l-2.25-2.25L270.477,236.16z"/>
	<path fill="#944E2A" d="M334.613,285.546l-4.5,7.5h6l3-1.5v-4.5L334.613,285.546z"/>
	<path fill="#944E2A" d="M204.281,263.621v12l-8.25-3.75L204.281,263.621z"/>
	<path fill="#944E2A" d="M229,292.664l-6,3.75l2.25,3.75l3.75-0.75l3.75-6L229,292.664z"/>
	<path fill="#944E2A" d="M279.59,219.293v9h6.75v-2.25L279.59,219.293z"/>
	<path fill="#944E2A" d="M309.039,251.484l12.75,6.75h-10.5L309.039,251.484z"/>
	<path fill="#944E2A" d="M176.645,301.347l11.594,3.105l-5.371,5.551L176.645,301.347z"/>
	<path fill="#944E2A" d="M268.027,290.05l7.793,4.5l3.375-5.844l-1.949-1.125L268.027,290.05z"/>
	<path fill="#944E2A" d="M372.109,267.367l-7.5-4.5v6l1.5,3h4.5L372.109,267.367z"/>
	<path fill="#944E2A" d="M333.683,243.727l6,2.25l0.75-9h-2.25l-1.5,3L333.683,243.727z"/>
	<path fill="#944E2A" d="M322.792,217.84l-14.418,0.531l9.094-5.25L322.792,217.84z"/>
	<path fill="#944E2A" d="M273.875,196.75l7.797,4.5l3.375-5.848l-1.949-1.125L273.875,196.75z"/>
	<path fill="#944E2A" d="M233.871,233.563l11.59,3.105l-5.367,5.551L233.871,233.563z"/>
	<path fill="#944E2A" d="M172.227,259.793l-4.5,7.5h6l3-1.5v-4.5L172.227,259.793z"/>
	<path fill="#944E2A" d="M369.363,287.398l-6,3.75l2.25,3.75l3.75-0.75l3.75-6L369.363,287.398z"/>
	<path fill="#944E2A" d="M340.289,263.207l11.59,3.105l-5.367,5.551L340.289,263.207z"/>
	<path fill="#944E2A" d="M219.84,212.043l-6,3.75l2.25,3.75l3.75-0.75l3.75-6L219.84,212.043z"/>
	<path fill="#944E2A" d="M194.367,248.926l7.793,4.5l3.375-5.844l-1.949-1.125L194.367,248.926z"/>
	<path fill="#944E2A" d="M219.84,242.59l-6,3.75l2.25,3.75l3.75-0.75l3.75-6L219.84,242.59z"/>
	<path fill="#944E2A" d="M261.184,174.406v9h6.75v-2.25L261.184,174.406z"/>
	<path fill="#944E2A" d="M309.039,230.5l6.75,6.75h-5.25L309.039,230.5z"/>
	<path fill="#944E2A" d="M274.309,267.367l-7.5-4.5v6l1.5,3h4.5L274.309,267.367z"/>
	<path fill="#944E2A" d="M265.688,212.043l-6,3.75l2.25,3.75l3.75-0.75l3.75-6L265.688,212.043z"/>
	<path fill="#944E2A" d="M300.808,175.277l-6,3.75l2.25,3.75l3.75-0.75l3.75-6L300.808,175.277z"/>
	<path fill="#944E2A" d="M240.473,175.543l12.75,6.75h-10.5L240.473,175.543z"/>
	<path fill="#944E2A" d="M277.961,165.57l-6,3.75l2.25,3.75l3.75-0.75l3.75-6L277.961,165.57z"/>
	<path fill="#944E2A" d="M249.285,197.73l-7.5-4.5v6l1.5,3h4.5L249.285,197.73z"/>
	<path fill="#944E2A" d="M357.308,233.563l11.594,3.105l-5.371,5.551L357.308,233.563z"/>
	<path fill="#944E2A" d="M329.007,211.016l7.797,4.5l3.375-5.844l-1.949-1.125L329.007,211.016z"/>
	<path fill="#944E2A" d="M299.671,204.691l-4.5,7.5h6l3-1.5v-4.5L299.671,204.691z"/>
	<path fill="#944E2A" d="M220.938,274.434l13.789-4.242l-7.426,7.426L220.938,274.434z"/>
	<path fill="#944E2A" d="M313.523,268.605l-6,3.75l2.25,3.75l3.75-0.75l3.75-6L313.523,268.605z"/>
	<path fill="#944E2A" d="M317.144,193.223l7.793,4.5l3.375-5.844l-1.949-1.125L317.144,193.223z"/>
</g>
</svg>
