<?xml version="1.0" encoding="utf-8"?>
<!-- Generator: Adobe Illustrator 16.0.0, SVG Export Plug-In . SVG Version: 6.00 Build 0)  -->
<!DOCTYPE svg PUBLIC "-//W3C//DTD SVG 1.1//EN" "http://www.w3.org/Graphics/SVG/1.1/DTD/svg11.dtd">
<svg preserveAspectRatio="none"   version="1.1" id="图层_1" xmlns="http://www.w3.org/2000/svg" xmlns:xlink="http://www.w3.org/1999/xlink" x="0px" y="0px"
	 width="247.152px" height="567px" viewBox="160.074 0 247.152 567" enable-background="new 160.074 0 247.152 567"
	 xml:space="preserve">
<g id="surface566">
	
		<linearGradient id="SVGID_1_" gradientUnits="userSpaceOnUse" x1="229.2271" y1="192.8037" x2="202.2271" y2="192.8037" gradientTransform="matrix(0.75 0 0 -0.75 160.8759 157.8087)">
		<stop  offset="0" style="stop-color:#B59D79"/>
		<stop  offset="0.01" style="stop-color:#FFE5C1"/>
		<stop  offset="0.02" style="stop-color:#EBCC9F"/>
		<stop  offset="0.64" style="stop-color:#E7C99C"/>
		<stop  offset="0.99" style="stop-color:#E2C499"/>
		<stop  offset="1" style="stop-color:#A89170"/>
	</linearGradient>
	<path fill="url(#SVGID_1_)" d="M312.546,6.832h20.25l-10.5,12.75L312.546,6.832z"/>
	
		<linearGradient id="SVGID_2_" gradientUnits="userSpaceOnUse" x1="421.2231" y1="112.3037" x2="202.2241" y2="112.3037" gradientTransform="matrix(0.75 0 0 -0.75 91.308 247.504)">
		<stop  offset="0" style="stop-color:#B3A593"/>
		<stop  offset="0.01" style="stop-color:#FDEEDA"/>
		<stop  offset="0.02" style="stop-color:#E9D7BF"/>
		<stop  offset="0.64" style="stop-color:#E5D3BC"/>
		<stop  offset="0.99" style="stop-color:#E0CEB8"/>
		<stop  offset="1" style="stop-color:#A69988"/>
	</linearGradient>
	<path fill="url(#SVGID_2_)" d="M242.977,168.527v-72h164.25v72l-62.25,61.5l-6-6l14.25-12.75l-20.25-42.75h-20.25l-18,42.75l12,12
		l-4.5,6.75L242.977,168.527z"/>
	
		<linearGradient id="SVGID_3_" gradientUnits="userSpaceOnUse" x1="228.2256" y1="154.3047" x2="202.2256" y2="154.3047" gradientTransform="matrix(0.75 0 0 -0.75 161.3573 248.7911)">
		<stop  offset="0" style="stop-color:#B59D79"/>
		<stop  offset="0.01" style="stop-color:#FFE5C1"/>
		<stop  offset="0.02" style="stop-color:#EBCC9F"/>
		<stop  offset="0.64" style="stop-color:#E7C99C"/>
		<stop  offset="0.99" style="stop-color:#E2C499"/>
		<stop  offset="1" style="stop-color:#A89170"/>
	</linearGradient>
	<path fill="url(#SVGID_3_)" d="M313.027,168.313h19.5v-70.5h-19.5V168.313z"/>
	
		<linearGradient id="SVGID_4_" gradientUnits="userSpaceOnUse" x1="243.2256" y1="187.3047" x2="202.2256" y2="187.3047" gradientTransform="matrix(0.75 0 0 -0.75 157.5018 226.2677)">
		<stop  offset="0" style="stop-color:#B3A593"/>
		<stop  offset="0.01" style="stop-color:#FDEEDA"/>
		<stop  offset="0.02" style="stop-color:#E9D7BF"/>
		<stop  offset="0.64" style="stop-color:#E5D3BC"/>
		<stop  offset="0.99" style="stop-color:#E0CEB8"/>
		<stop  offset="1" style="stop-color:#A69988"/>
	</linearGradient>
	<path fill="url(#SVGID_4_)" d="M309.171,96.289h30.75v-21h-30.75V96.289z"/>
	
		<linearGradient id="SVGID_5_" gradientUnits="userSpaceOnUse" x1="433.2251" y1="-176.6958" x2="202.2256" y2="-176.6958" gradientTransform="matrix(0.75 0 0 -0.75 8.4047 150.9777)">
		<stop  offset="0" style="stop-color:#9D815E"/>
		<stop  offset="0.01" style="stop-color:#E5C9A8"/>
		<stop  offset="0.02" style="stop-color:#CCA97C"/>
		<stop  offset="0.64" style="stop-color:#C9A67A"/>
		<stop  offset="0.99" style="stop-color:#C4A377"/>
		<stop  offset="1" style="stop-color:#917857"/>
	</linearGradient>
	<path fill="url(#SVGID_5_)" d="M333.324,8.25V0h-121.5v544.5l-9.75,10.5h-42v12h64.5V30.75l23.25-22.5H333.324z"/>
	<path fill="none" stroke="#B4B5B5" stroke-linejoin="bevel" stroke-miterlimit="10" d="M274.469,95.938v-15.75l39.75-34.5h7.5
		v29.25"/>
	<path fill="none" stroke="#B4B5B5" stroke-linejoin="bevel" stroke-miterlimit="10" d="M322.183,19.305l-0.008,57"/>
	
		<linearGradient id="SVGID_6_" gradientUnits="userSpaceOnUse" x1="216.8164" y1="194.1729" x2="202.2275" y2="194.1729" gradientTransform="matrix(0.75 0 0 -0.75 99.6727 255.3458)">
		<stop  offset="0" style="stop-color:#BCAD9A"/>
		<stop  offset="0.15" style="stop-color:#FDEAD3"/>
		<stop  offset="0.25" style="stop-color:#FEF3E7"/>
		<stop  offset="0.52" style="stop-color:#DECCB6"/>
		<stop  offset="0.69" style="stop-color:#C5B5A2"/>
		<stop  offset="0.8" style="stop-color:#BAAB98"/>
		<stop  offset="0.92" style="stop-color:#B0A190"/>
		<stop  offset="1" style="stop-color:#CABAA5"/>
	</linearGradient>
	<path fill="url(#SVGID_6_)" d="M251.344,109.617c0-3,2.434-5.371,5.449-5.371c2.801,0.121,5.465,2.449,5.465,5.473
		c0.336,2.898-2.445,5.469-5.465,5.469c-3.199-0.32-5.449-2.449-5.449-5.469V109.617z"/>
	
		<linearGradient id="SVGID_7_" gradientUnits="userSpaceOnUse" x1="216.8159" y1="194.1729" x2="202.2266" y2="194.1729" gradientTransform="matrix(0.75 0 0 -0.75 236.4657 255.3458)">
		<stop  offset="0" style="stop-color:#BCAD9A"/>
		<stop  offset="0.15" style="stop-color:#FDEAD3"/>
		<stop  offset="0.25" style="stop-color:#FEF3E7"/>
		<stop  offset="0.52" style="stop-color:#DECCB6"/>
		<stop  offset="0.69" style="stop-color:#C5B5A2"/>
		<stop  offset="0.8" style="stop-color:#BAAB98"/>
		<stop  offset="0.92" style="stop-color:#B0A190"/>
		<stop  offset="1" style="stop-color:#CABAA5"/>
	</linearGradient>
	<path fill="url(#SVGID_7_)" d="M388.136,109.617c0-3,2.434-5.371,5.449-5.371c2.801,0.121,5.465,2.449,5.465,5.473
		c0.336,2.898-2.445,5.469-5.465,5.469c-3.199-0.32-5.449-2.449-5.449-5.469V109.617z"/>
	
		<linearGradient id="SVGID_8_" gradientUnits="userSpaceOnUse" x1="274.2236" y1="166.8057" x2="202.2236" y2="166.8057" gradientTransform="matrix(0.75 0 0 -0.75 170.3553 194.7365)">
		<stop  offset="0" style="stop-color:#B59D79"/>
		<stop  offset="0.01" style="stop-color:#FFE5C1"/>
		<stop  offset="0.02" style="stop-color:#EBCC9F"/>
		<stop  offset="0.64" style="stop-color:#E7C99C"/>
		<stop  offset="0.99" style="stop-color:#E2C499"/>
		<stop  offset="1" style="stop-color:#A89170"/>
	</linearGradient>
	<path fill="url(#SVGID_8_)" d="M322.023,46.008l6.75-2.25l47.25,36.75v15h-6l-1.5-12l-46.5-29.25V46.008z"/>
</g>
</svg>
