<?xml version="1.0" encoding="utf-8"?>
<!-- Generator: Adobe Illustrator 16.0.0, SVG Export Plug-In . SVG Version: 6.00 Build 0)  -->
<!DOCTYPE svg PUBLIC "-//W3C//DTD SVG 1.1//EN" "http://www.w3.org/Graphics/SVG/1.1/DTD/svg11.dtd">
<svg preserveAspectRatio="none"   version="1.1" id="图层_1" xmlns="http://www.w3.org/2000/svg" xmlns:xlink="http://www.w3.org/1999/xlink" x="0px" y="0px"
	 width="137.949px" height="562.546px" viewBox="214.602 2.266 137.949 562.546"
	 enable-background="new 214.602 2.266 137.949 562.546" xml:space="preserve">
<g id="surface571">
	
		<linearGradient id="SVGID_1_" gradientUnits="userSpaceOnUse" x1="241.7271" y1="201.3037" x2="241.7271" y2="59.3037" gradientTransform="matrix(0.75 0 0 -0.75 103.2401 609.2902)">
		<stop  offset="0" style="stop-color:#90A38C"/>
		<stop  offset="0.01" style="stop-color:#D8EBD4"/>
		<stop  offset="0.03" style="stop-color:#BDD4B7"/>
		<stop  offset="0.64" style="stop-color:#BAD0B4"/>
		<stop  offset="0.99" style="stop-color:#B5CCB0"/>
		<stop  offset="1" style="stop-color:#869782"/>
	</linearGradient>
	<path fill="url(#SVGID_1_)" d="M254.91,564.812h59.25v-106.5h-59.25V564.812z"/>
	
		<linearGradient id="SVGID_2_" gradientUnits="userSpaceOnUse" x1="202.2271" y1="-126.1938" x2="231.2271" y2="-126.1938" gradientTransform="matrix(0.75 0 0 -0.75 103.2396 223.9093)">
		<stop  offset="0" style="stop-color:#90A38C"/>
		<stop  offset="0.01" style="stop-color:#D8EBD4"/>
		<stop  offset="0.03" style="stop-color:#BDD4B7"/>
		<stop  offset="0.64" style="stop-color:#BAD0B4"/>
		<stop  offset="0.99" style="stop-color:#B5CCB0"/>
		<stop  offset="1" style="stop-color:#869782"/>
	</linearGradient>
	<path fill="url(#SVGID_2_)" d="M254.91,72.93h21.75v491.25h-21.75V72.93z"/>
	
		<linearGradient id="SVGID_3_" gradientUnits="userSpaceOnUse" x1="202.2271" y1="-126.1938" x2="231.2271" y2="-126.1938" gradientTransform="matrix(0.75 0 0 -0.75 141.0795 223.9093)">
		<stop  offset="0" style="stop-color:#90A38C"/>
		<stop  offset="0.01" style="stop-color:#D8EBD4"/>
		<stop  offset="0.03" style="stop-color:#BDD4B7"/>
		<stop  offset="0.64" style="stop-color:#BAD0B4"/>
		<stop  offset="0.99" style="stop-color:#B5CCB0"/>
		<stop  offset="1" style="stop-color:#869782"/>
	</linearGradient>
	<path fill="url(#SVGID_3_)" d="M292.75,72.93h21.75v491.25h-21.75V72.93z"/>
	
		<linearGradient id="SVGID_4_" gradientUnits="userSpaceOnUse" x1="202.2266" y1="185.8052" x2="332.2261" y2="185.8052" gradientTransform="matrix(0.75 0 0 -0.75 103.2401 201.381)">
		<stop  offset="0" style="stop-color:#90A38C"/>
		<stop  offset="0.01" style="stop-color:#D8EBD4"/>
		<stop  offset="0.03" style="stop-color:#BDD4B7"/>
		<stop  offset="0.64" style="stop-color:#BAD0B4"/>
		<stop  offset="0.99" style="stop-color:#B5CCB0"/>
		<stop  offset="1" style="stop-color:#869782"/>
	</linearGradient>
	<path fill="url(#SVGID_4_)" d="M254.91,73.652h97.5v-23.25h-97.5V73.652z"/>
	
		<linearGradient id="SVGID_5_" gradientUnits="userSpaceOnUse" x1="202.2266" y1="168.8022" x2="332.1108" y2="168.8022" gradientTransform="matrix(0.75 0 0 -0.75 103.2401 153.2423)">
		<stop  offset="0" style="stop-color:#90A38C"/>
		<stop  offset="0.01" style="stop-color:#D8EBD4"/>
		<stop  offset="0.03" style="stop-color:#BDD4B7"/>
		<stop  offset="0.64" style="stop-color:#BAD0B4"/>
		<stop  offset="0.99" style="stop-color:#B5CCB0"/>
		<stop  offset="1" style="stop-color:#869782"/>
	</linearGradient>
	<path fill="url(#SVGID_5_)" d="M254.91,51.016c0-27,21.805-48.75,48.707-48.75c27.043,0,48.707,21.793,48.707,48.676
		c0.086,0.074-97.414,0-97.414,0V51.016z"/>
	
		<linearGradient id="SVGID_6_" gradientUnits="userSpaceOnUse" x1="202.2231" y1="176.3052" x2="256.2231" y2="176.3052" gradientTransform="matrix(0.75 0 0 -0.75 62.9344 622.7003)">
		<stop  offset="0" style="stop-color:#90A38C"/>
		<stop  offset="0.01" style="stop-color:#D8EBD4"/>
		<stop  offset="0.03" style="stop-color:#BDD4B7"/>
		<stop  offset="0.64" style="stop-color:#BAD0B4"/>
		<stop  offset="0.99" style="stop-color:#B5CCB0"/>
		<stop  offset="1" style="stop-color:#869782"/>
	</linearGradient>
	<path fill="url(#SVGID_6_)" d="M255.102,471.722h-40.5l40.5,37.5V471.722z"/>
	
		<linearGradient id="SVGID_7_" gradientUnits="userSpaceOnUse" x1="241.7275" y1="201.3057" x2="241.7275" y2="168.3057" gradientTransform="matrix(0.75 0 0 -0.75 103.2401 690.8185)">
		<stop  offset="0" style="stop-color:#90A38C"/>
		<stop  offset="0.01" style="stop-color:#D8EBD4"/>
		<stop  offset="0.03" style="stop-color:#BDD4B7"/>
		<stop  offset="0.64" style="stop-color:#BAD0B4"/>
		<stop  offset="0.99" style="stop-color:#B5CCB0"/>
		<stop  offset="1" style="stop-color:#869782"/>
	</linearGradient>
	<path fill="url(#SVGID_7_)" d="M254.91,564.589h59.25v-24.75h-59.25V564.589z"/>
	
		<linearGradient id="SVGID_8_" gradientUnits="userSpaceOnUse" x1="292.7241" y1="201.3047" x2="292.7241" y2="192.3047" gradientTransform="matrix(0.75 0 0 -0.75 65.1317 201.381)">
		<stop  offset="0" style="stop-color:#90A38C"/>
		<stop  offset="0.01" style="stop-color:#D8EBD4"/>
		<stop  offset="0.03" style="stop-color:#BDD4B7"/>
		<stop  offset="0.64" style="stop-color:#BAD0B4"/>
		<stop  offset="0.99" style="stop-color:#B5CCB0"/>
		<stop  offset="1" style="stop-color:#869782"/>
	</linearGradient>
	<path fill="url(#SVGID_8_)" d="M216.801,57.152h135.75v-6.75h-135.75V57.152z"/>
	
		<linearGradient id="SVGID_9_" gradientUnits="userSpaceOnUse" x1="296.7241" y1="207.249" x2="296.7241" y2="178.251" gradientTransform="matrix(0.7386 0.1302 0.1302 -0.7386 25.3288 142.4174)">
		<stop  offset="0" style="stop-color:#B3A593"/>
		<stop  offset="0.01" style="stop-color:#FDEEDA"/>
		<stop  offset="0.03" style="stop-color:#E9D7BF"/>
		<stop  offset="0.64" style="stop-color:#E5D3BC"/>
		<stop  offset="0.99" style="stop-color:#E0CEB8"/>
		<stop  offset="1" style="stop-color:#A69988"/>
	</linearGradient>
	<path fill="url(#SVGID_9_)" d="M236.727,21.859l69.429,12.242c6.645,1.172,11.102,6.645,10.109,12.258l-0.246,0.902
		c-1.043,5.91-7.105,9.324-13.742,8.156l-69.328-12.141c-6.648-1.172-11-6.715-10.012-12.328l0.148-0.836
		c1.039-5.906,7.203-9.391,13.84-8.219L236.727,21.859z"/>
	
		<linearGradient id="SVGID_10_" gradientUnits="userSpaceOnUse" x1="220.8188" y1="201.3486" x2="220.8188" y2="196.3018" gradientTransform="matrix(0.75 0 0 -0.75 100.1454 600.7413)">
		<stop  offset="0" style="stop-color:#90A38C"/>
		<stop  offset="0.01" style="stop-color:#D8EBD4"/>
		<stop  offset="0.03" style="stop-color:#BDD4B7"/>
		<stop  offset="0.64" style="stop-color:#BAD0B4"/>
		<stop  offset="0.99" style="stop-color:#B5CCB0"/>
		<stop  offset="1" style="stop-color:#869782"/>
	</linearGradient>
	<path fill="url(#SVGID_10_)" d="M252.563,449.765h26.25c0.75,0,0.895,0.398,0.895,0.93l-0.145,2.07c0,0-0.289,0.719-0.82,0.719
		l-26.18,0.031c0,0-0.75-0.461-0.75-0.996v-2.004c0,0,0.418-0.785,0.949-0.785L252.563,449.765z"/>
	
		<linearGradient id="SVGID_11_" gradientUnits="userSpaceOnUse" x1="220.8188" y1="201.3506" x2="220.8188" y2="196.3037" gradientTransform="matrix(0.75 0 0 -0.75 100.1454 569.4532)">
		<stop  offset="0" style="stop-color:#90A38C"/>
		<stop  offset="0.01" style="stop-color:#D8EBD4"/>
		<stop  offset="0.03" style="stop-color:#BDD4B7"/>
		<stop  offset="0.64" style="stop-color:#BAD0B4"/>
		<stop  offset="0.99" style="stop-color:#B5CCB0"/>
		<stop  offset="1" style="stop-color:#869782"/>
	</linearGradient>
	<path fill="url(#SVGID_11_)" d="M252.563,418.476h26.25c0.75,0,0.895,0.398,0.895,0.93l-0.145,2.07c0,0-0.289,0.719-0.82,0.719
		l-26.18,0.031c0,0-0.75-0.461-0.75-0.996v-2.004c0,0,0.418-0.785,0.949-0.785L252.563,418.476z"/>
	
		<linearGradient id="SVGID_12_" gradientUnits="userSpaceOnUse" x1="220.8188" y1="201.3506" x2="220.8188" y2="196.3037" gradientTransform="matrix(0.75 0 0 -0.75 100.1454 538.1642)">
		<stop  offset="0" style="stop-color:#90A38C"/>
		<stop  offset="0.01" style="stop-color:#D8EBD4"/>
		<stop  offset="0.03" style="stop-color:#BDD4B7"/>
		<stop  offset="0.64" style="stop-color:#BAD0B4"/>
		<stop  offset="0.99" style="stop-color:#B5CCB0"/>
		<stop  offset="1" style="stop-color:#869782"/>
	</linearGradient>
	<path fill="url(#SVGID_12_)" d="M252.563,387.187h26.25c0.75,0,0.895,0.398,0.895,0.93l-0.145,2.07c0,0-0.289,0.719-0.82,0.719
		l-26.18,0.031c0,0-0.75-0.461-0.75-0.996v-2.004c0,0,0.418-0.785,0.949-0.785L252.563,387.187z"/>
	
		<linearGradient id="SVGID_13_" gradientUnits="userSpaceOnUse" x1="220.8188" y1="201.3467" x2="220.8188" y2="196.3057" gradientTransform="matrix(0.75 0 0 -0.75 100.1454 507.0646)">
		<stop  offset="0" style="stop-color:#90A38C"/>
		<stop  offset="0.01" style="stop-color:#D8EBD4"/>
		<stop  offset="0.03" style="stop-color:#BDD4B7"/>
		<stop  offset="0.64" style="stop-color:#BAD0B4"/>
		<stop  offset="0.99" style="stop-color:#B5CCB0"/>
		<stop  offset="1" style="stop-color:#869782"/>
	</linearGradient>
	<path fill="url(#SVGID_13_)" d="M252.563,356.085h26.25c0.75,0,0.895,0.398,0.895,0.934l-0.145,2.066c0,0-0.289,0.723-0.82,0.723
		l-26.18,0.027c0,0-0.75-0.461-0.75-0.992v-2.008c0,0,0.418-0.781,0.949-0.781L252.563,356.085z"/>
	
		<linearGradient id="SVGID_14_" gradientUnits="userSpaceOnUse" x1="220.8188" y1="201.3506" x2="220.8188" y2="196.3037" gradientTransform="matrix(0.75 0 0 -0.75 100.1454 476.4308)">
		<stop  offset="0" style="stop-color:#90A38C"/>
		<stop  offset="0.01" style="stop-color:#D8EBD4"/>
		<stop  offset="0.03" style="stop-color:#BDD4B7"/>
		<stop  offset="0.64" style="stop-color:#BAD0B4"/>
		<stop  offset="0.99" style="stop-color:#B5CCB0"/>
		<stop  offset="1" style="stop-color:#869782"/>
	</linearGradient>
	<path fill="url(#SVGID_14_)" d="M252.563,325.453h26.25c0.75,0,0.895,0.398,0.895,0.934l-0.145,2.066c0,0-0.289,0.723-0.82,0.723
		l-26.18,0.027c0,0-0.75-0.461-0.75-0.996v-2.004c0,0,0.418-0.785,0.949-0.785L252.563,325.453z"/>
	
		<linearGradient id="SVGID_15_" gradientUnits="userSpaceOnUse" x1="220.8188" y1="201.3467" x2="220.8188" y2="196.3057" gradientTransform="matrix(0.75 0 0 -0.75 100.1454 445.3536)">
		<stop  offset="0" style="stop-color:#90A38C"/>
		<stop  offset="0.01" style="stop-color:#D8EBD4"/>
		<stop  offset="0.03" style="stop-color:#BDD4B7"/>
		<stop  offset="0.64" style="stop-color:#BAD0B4"/>
		<stop  offset="0.99" style="stop-color:#B5CCB0"/>
		<stop  offset="1" style="stop-color:#869782"/>
	</linearGradient>
	<path fill="url(#SVGID_15_)" d="M252.563,294.375h26.25c0.75,0,0.895,0.398,0.895,0.934l-0.145,2.066c0,0-0.289,0.723-0.82,0.723
		l-26.18,0.027c0,0-0.75-0.461-0.75-0.992v-2.008c0,0,0.418-0.781,0.949-0.781L252.563,294.375z"/>
	
		<linearGradient id="SVGID_16_" gradientUnits="userSpaceOnUse" x1="220.8188" y1="201.3477" x2="220.8188" y2="196.3008" gradientTransform="matrix(0.75 0 0 -0.75 100.1454 414.2609)">
		<stop  offset="0" style="stop-color:#90A38C"/>
		<stop  offset="0.01" style="stop-color:#D8EBD4"/>
		<stop  offset="0.03" style="stop-color:#BDD4B7"/>
		<stop  offset="0.64" style="stop-color:#BAD0B4"/>
		<stop  offset="0.99" style="stop-color:#B5CCB0"/>
		<stop  offset="1" style="stop-color:#869782"/>
	</linearGradient>
	<path fill="url(#SVGID_16_)" d="M252.563,263.285h26.25c0.75,0,0.895,0.398,0.895,0.93l-0.145,2.07c0,0-0.289,0.719-0.82,0.719
		l-26.18,0.031c0,0-0.75-0.465-0.75-0.996v-2.004c0,0,0.418-0.785,0.949-0.785L252.563,263.285z"/>
	
		<linearGradient id="SVGID_17_" gradientUnits="userSpaceOnUse" x1="220.8188" y1="201.3467" x2="220.8188" y2="196.3047" gradientTransform="matrix(0.75 0 0 -0.75 100.1454 383.1974)">
		<stop  offset="0" style="stop-color:#90A38C"/>
		<stop  offset="0.01" style="stop-color:#D8EBD4"/>
		<stop  offset="0.03" style="stop-color:#BDD4B7"/>
		<stop  offset="0.64" style="stop-color:#BAD0B4"/>
		<stop  offset="0.99" style="stop-color:#B5CCB0"/>
		<stop  offset="1" style="stop-color:#869782"/>
	</linearGradient>
	<path fill="url(#SVGID_17_)" d="M252.563,232.219h26.25c0.75,0,0.895,0.398,0.895,0.934l-0.145,2.066c0,0-0.289,0.723-0.82,0.723
		l-26.18,0.027c0,0-0.75-0.461-0.75-0.992v-2.008c0,0,0.418-0.781,0.949-0.781L252.563,232.219z"/>
	
		<linearGradient id="SVGID_18_" gradientUnits="userSpaceOnUse" x1="220.8188" y1="201.3486" x2="220.8188" y2="196.3066" gradientTransform="matrix(0.75 0 0 -0.75 100.1454 352.1202)">
		<stop  offset="0" style="stop-color:#90A38C"/>
		<stop  offset="0.01" style="stop-color:#D8EBD4"/>
		<stop  offset="0.03" style="stop-color:#BDD4B7"/>
		<stop  offset="0.64" style="stop-color:#BAD0B4"/>
		<stop  offset="0.99" style="stop-color:#B5CCB0"/>
		<stop  offset="1" style="stop-color:#869782"/>
	</linearGradient>
	<path fill="url(#SVGID_18_)" d="M252.563,201.141h26.25c0.75,0,0.895,0.402,0.895,0.934l-0.145,2.066c0,0-0.289,0.723-0.82,0.723
		l-26.18,0.027c0,0-0.75-0.461-0.75-0.992v-2.008c0,0,0.418-0.781,0.949-0.781L252.563,201.141z"/>
	
		<linearGradient id="SVGID_19_" gradientUnits="userSpaceOnUse" x1="220.8188" y1="201.3486" x2="220.8188" y2="196.3018" gradientTransform="matrix(0.75 0 0 -0.75 100.1454 321.0431)">
		<stop  offset="0" style="stop-color:#90A38C"/>
		<stop  offset="0.01" style="stop-color:#D8EBD4"/>
		<stop  offset="0.03" style="stop-color:#BDD4B7"/>
		<stop  offset="0.64" style="stop-color:#BAD0B4"/>
		<stop  offset="0.99" style="stop-color:#B5CCB0"/>
		<stop  offset="1" style="stop-color:#869782"/>
	</linearGradient>
	<path fill="url(#SVGID_19_)" d="M252.563,170.066h26.25c0.75,0,0.895,0.398,0.895,0.93l-0.145,2.07c0,0-0.289,0.719-0.82,0.719
		l-26.18,0.031c0,0-0.75-0.461-0.75-0.996v-2.004c0,0,0.418-0.785,0.949-0.785L252.563,170.066z"/>
	
		<linearGradient id="SVGID_20_" gradientUnits="userSpaceOnUse" x1="220.8188" y1="201.3486" x2="220.8188" y2="196.3018" gradientTransform="matrix(0.75 0 0 -0.75 100.1454 289.965)">
		<stop  offset="0" style="stop-color:#90A38C"/>
		<stop  offset="0.01" style="stop-color:#D8EBD4"/>
		<stop  offset="0.03" style="stop-color:#BDD4B7"/>
		<stop  offset="0.64" style="stop-color:#BAD0B4"/>
		<stop  offset="0.99" style="stop-color:#B5CCB0"/>
		<stop  offset="1" style="stop-color:#869782"/>
	</linearGradient>
	<path fill="url(#SVGID_20_)" d="M252.563,138.988h26.25c0.75,0,0.895,0.398,0.895,0.93l-0.145,2.07c0,0-0.289,0.719-0.82,0.719
		l-26.18,0.031c0,0-0.75-0.461-0.75-0.996v-2.004c0,0,0.418-0.785,0.949-0.785L252.563,138.988z"/>
	
		<linearGradient id="SVGID_21_" gradientUnits="userSpaceOnUse" x1="220.8188" y1="201.3486" x2="220.8188" y2="196.3018" gradientTransform="matrix(0.75 0 0 -0.75 100.1454 258.8868)">
		<stop  offset="0" style="stop-color:#90A38C"/>
		<stop  offset="0.01" style="stop-color:#D8EBD4"/>
		<stop  offset="0.03" style="stop-color:#BDD4B7"/>
		<stop  offset="0.64" style="stop-color:#BAD0B4"/>
		<stop  offset="0.99" style="stop-color:#B5CCB0"/>
		<stop  offset="1" style="stop-color:#869782"/>
	</linearGradient>
	<path fill="url(#SVGID_21_)" d="M252.563,107.91h26.25c0.75,0,0.895,0.398,0.895,0.93l-0.145,2.07c0,0-0.289,0.719-0.82,0.719
		l-26.18,0.031c0,0-0.75-0.461-0.75-0.996v-2.004c0,0,0.418-0.785,0.949-0.785L252.563,107.91z"/>
	
		<linearGradient id="SVGID_22_" gradientUnits="userSpaceOnUse" x1="220.8188" y1="201.3506" x2="220.8188" y2="196.3037" gradientTransform="matrix(0.75 0 0 -0.75 100.1454 227.8097)">
		<stop  offset="0" style="stop-color:#90A38C"/>
		<stop  offset="0.01" style="stop-color:#D8EBD4"/>
		<stop  offset="0.03" style="stop-color:#BDD4B7"/>
		<stop  offset="0.64" style="stop-color:#BAD0B4"/>
		<stop  offset="0.99" style="stop-color:#B5CCB0"/>
		<stop  offset="1" style="stop-color:#869782"/>
	</linearGradient>
	<path fill="url(#SVGID_22_)" d="M252.563,76.832h26.25c0.75,0,0.895,0.398,0.895,0.934l-0.145,2.066c0,0-0.289,0.723-0.82,0.723
		l-26.18,0.027c0,0-0.75-0.461-0.75-0.996v-2.004c0,0,0.418-0.785,0.949-0.785L252.563,76.832z"/>
	
		<linearGradient id="SVGID_23_" gradientUnits="userSpaceOnUse" x1="220.8193" y1="201.3486" x2="220.8193" y2="196.3018" gradientTransform="matrix(0.75 0 0 -0.75 137.9847 600.7413)">
		<stop  offset="0" style="stop-color:#90A38C"/>
		<stop  offset="0.01" style="stop-color:#D8EBD4"/>
		<stop  offset="0.03" style="stop-color:#BDD4B7"/>
		<stop  offset="0.64" style="stop-color:#BAD0B4"/>
		<stop  offset="0.99" style="stop-color:#B5CCB0"/>
		<stop  offset="1" style="stop-color:#869782"/>
	</linearGradient>
	<path fill="url(#SVGID_23_)" d="M290.402,449.765h26.25c0.75,0,0.895,0.398,0.895,0.93l-0.145,2.07c0,0-0.289,0.719-0.82,0.719
		l-26.18,0.031c0,0-0.75-0.461-0.75-0.996v-2.004c0,0,0.418-0.785,0.949-0.785L290.402,449.765z"/>
	
		<linearGradient id="SVGID_24_" gradientUnits="userSpaceOnUse" x1="220.8193" y1="201.3506" x2="220.8193" y2="196.3037" gradientTransform="matrix(0.75 0 0 -0.75 137.9847 569.4532)">
		<stop  offset="0" style="stop-color:#90A38C"/>
		<stop  offset="0.01" style="stop-color:#D8EBD4"/>
		<stop  offset="0.03" style="stop-color:#BDD4B7"/>
		<stop  offset="0.64" style="stop-color:#BAD0B4"/>
		<stop  offset="0.99" style="stop-color:#B5CCB0"/>
		<stop  offset="1" style="stop-color:#869782"/>
	</linearGradient>
	<path fill="url(#SVGID_24_)" d="M290.402,418.476h26.25c0.75,0,0.895,0.398,0.895,0.93l-0.145,2.07c0,0-0.289,0.719-0.82,0.719
		l-26.18,0.031c0,0-0.75-0.461-0.75-0.996v-2.004c0,0,0.418-0.785,0.949-0.785L290.402,418.476z"/>
	
		<linearGradient id="SVGID_25_" gradientUnits="userSpaceOnUse" x1="220.8193" y1="201.3506" x2="220.8193" y2="196.3037" gradientTransform="matrix(0.75 0 0 -0.75 137.9847 538.1642)">
		<stop  offset="0" style="stop-color:#90A38C"/>
		<stop  offset="0.01" style="stop-color:#D8EBD4"/>
		<stop  offset="0.03" style="stop-color:#BDD4B7"/>
		<stop  offset="0.64" style="stop-color:#BAD0B4"/>
		<stop  offset="0.99" style="stop-color:#B5CCB0"/>
		<stop  offset="1" style="stop-color:#869782"/>
	</linearGradient>
	<path fill="url(#SVGID_25_)" d="M290.402,387.187h26.25c0.75,0,0.895,0.398,0.895,0.93l-0.145,2.07c0,0-0.289,0.719-0.82,0.719
		l-26.18,0.031c0,0-0.75-0.461-0.75-0.996v-2.004c0,0,0.418-0.785,0.949-0.785L290.402,387.187z"/>
	
		<linearGradient id="SVGID_26_" gradientUnits="userSpaceOnUse" x1="220.8193" y1="201.3467" x2="220.8193" y2="196.3057" gradientTransform="matrix(0.75 0 0 -0.75 137.9847 507.0646)">
		<stop  offset="0" style="stop-color:#90A38C"/>
		<stop  offset="0.01" style="stop-color:#D8EBD4"/>
		<stop  offset="0.03" style="stop-color:#BDD4B7"/>
		<stop  offset="0.64" style="stop-color:#BAD0B4"/>
		<stop  offset="0.99" style="stop-color:#B5CCB0"/>
		<stop  offset="1" style="stop-color:#869782"/>
	</linearGradient>
	<path fill="url(#SVGID_26_)" d="M290.402,356.085h26.25c0.75,0,0.895,0.398,0.895,0.934l-0.145,2.066c0,0-0.289,0.723-0.82,0.723
		l-26.18,0.027c0,0-0.75-0.461-0.75-0.992v-2.008c0,0,0.418-0.781,0.949-0.781L290.402,356.085z"/>
	
		<linearGradient id="SVGID_27_" gradientUnits="userSpaceOnUse" x1="220.8193" y1="201.3506" x2="220.8193" y2="196.3037" gradientTransform="matrix(0.75 0 0 -0.75 137.9847 476.4308)">
		<stop  offset="0" style="stop-color:#90A38C"/>
		<stop  offset="0.01" style="stop-color:#D8EBD4"/>
		<stop  offset="0.03" style="stop-color:#BDD4B7"/>
		<stop  offset="0.64" style="stop-color:#BAD0B4"/>
		<stop  offset="0.99" style="stop-color:#B5CCB0"/>
		<stop  offset="1" style="stop-color:#869782"/>
	</linearGradient>
	<path fill="url(#SVGID_27_)" d="M290.402,325.453h26.25c0.75,0,0.895,0.398,0.895,0.934l-0.145,2.066c0,0-0.289,0.723-0.82,0.723
		l-26.18,0.027c0,0-0.75-0.461-0.75-0.996v-2.004c0,0,0.418-0.785,0.949-0.785L290.402,325.453z"/>
	
		<linearGradient id="SVGID_28_" gradientUnits="userSpaceOnUse" x1="220.8193" y1="201.3467" x2="220.8193" y2="196.3057" gradientTransform="matrix(0.75 0 0 -0.75 137.9847 445.3536)">
		<stop  offset="0" style="stop-color:#90A38C"/>
		<stop  offset="0.01" style="stop-color:#D8EBD4"/>
		<stop  offset="0.03" style="stop-color:#BDD4B7"/>
		<stop  offset="0.64" style="stop-color:#BAD0B4"/>
		<stop  offset="0.99" style="stop-color:#B5CCB0"/>
		<stop  offset="1" style="stop-color:#869782"/>
	</linearGradient>
	<path fill="url(#SVGID_28_)" d="M290.402,294.375h26.25c0.75,0,0.895,0.398,0.895,0.934l-0.145,2.066c0,0-0.289,0.723-0.82,0.723
		l-26.18,0.027c0,0-0.75-0.461-0.75-0.992v-2.008c0,0,0.418-0.781,0.949-0.781L290.402,294.375z"/>
	
		<linearGradient id="SVGID_29_" gradientUnits="userSpaceOnUse" x1="220.8193" y1="201.3477" x2="220.8193" y2="196.3008" gradientTransform="matrix(0.75 0 0 -0.75 137.9847 414.2609)">
		<stop  offset="0" style="stop-color:#90A38C"/>
		<stop  offset="0.01" style="stop-color:#D8EBD4"/>
		<stop  offset="0.03" style="stop-color:#BDD4B7"/>
		<stop  offset="0.64" style="stop-color:#BAD0B4"/>
		<stop  offset="0.99" style="stop-color:#B5CCB0"/>
		<stop  offset="1" style="stop-color:#869782"/>
	</linearGradient>
	<path fill="url(#SVGID_29_)" d="M290.402,263.285h26.25c0.75,0,0.895,0.398,0.895,0.93l-0.145,2.07c0,0-0.289,0.719-0.82,0.719
		l-26.18,0.031c0,0-0.75-0.465-0.75-0.996v-2.004c0,0,0.418-0.785,0.949-0.785L290.402,263.285z"/>
	
		<linearGradient id="SVGID_30_" gradientUnits="userSpaceOnUse" x1="220.8193" y1="201.3467" x2="220.8193" y2="196.3047" gradientTransform="matrix(0.75 0 0 -0.75 137.9847 383.1974)">
		<stop  offset="0" style="stop-color:#90A38C"/>
		<stop  offset="0.01" style="stop-color:#D8EBD4"/>
		<stop  offset="0.03" style="stop-color:#BDD4B7"/>
		<stop  offset="0.64" style="stop-color:#BAD0B4"/>
		<stop  offset="0.99" style="stop-color:#B5CCB0"/>
		<stop  offset="1" style="stop-color:#869782"/>
	</linearGradient>
	<path fill="url(#SVGID_30_)" d="M290.402,232.219h26.25c0.75,0,0.895,0.398,0.895,0.934l-0.145,2.066c0,0-0.289,0.723-0.82,0.723
		l-26.18,0.027c0,0-0.75-0.461-0.75-0.992v-2.008c0,0,0.418-0.781,0.949-0.781L290.402,232.219z"/>
	
		<linearGradient id="SVGID_31_" gradientUnits="userSpaceOnUse" x1="220.8193" y1="201.3486" x2="220.8193" y2="196.3066" gradientTransform="matrix(0.75 0 0 -0.75 137.9847 352.1202)">
		<stop  offset="0" style="stop-color:#90A38C"/>
		<stop  offset="0.01" style="stop-color:#D8EBD4"/>
		<stop  offset="0.03" style="stop-color:#BDD4B7"/>
		<stop  offset="0.64" style="stop-color:#BAD0B4"/>
		<stop  offset="0.99" style="stop-color:#B5CCB0"/>
		<stop  offset="1" style="stop-color:#869782"/>
	</linearGradient>
	<path fill="url(#SVGID_31_)" d="M290.402,201.141h26.25c0.75,0,0.895,0.402,0.895,0.934l-0.145,2.066c0,0-0.289,0.723-0.82,0.723
		l-26.18,0.027c0,0-0.75-0.461-0.75-0.992v-2.008c0,0,0.418-0.781,0.949-0.781L290.402,201.141z"/>
	
		<linearGradient id="SVGID_32_" gradientUnits="userSpaceOnUse" x1="220.8193" y1="201.3486" x2="220.8193" y2="196.3018" gradientTransform="matrix(0.75 0 0 -0.75 137.9847 321.0431)">
		<stop  offset="0" style="stop-color:#90A38C"/>
		<stop  offset="0.01" style="stop-color:#D8EBD4"/>
		<stop  offset="0.03" style="stop-color:#BDD4B7"/>
		<stop  offset="0.64" style="stop-color:#BAD0B4"/>
		<stop  offset="0.99" style="stop-color:#B5CCB0"/>
		<stop  offset="1" style="stop-color:#869782"/>
	</linearGradient>
	<path fill="url(#SVGID_32_)" d="M290.402,170.066h26.25c0.75,0,0.895,0.398,0.895,0.93l-0.145,2.07c0,0-0.289,0.719-0.82,0.719
		l-26.18,0.031c0,0-0.75-0.461-0.75-0.996v-2.004c0,0,0.418-0.785,0.949-0.785L290.402,170.066z"/>
	
		<linearGradient id="SVGID_33_" gradientUnits="userSpaceOnUse" x1="220.8193" y1="201.3486" x2="220.8193" y2="196.3018" gradientTransform="matrix(0.75 0 0 -0.75 137.9847 289.965)">
		<stop  offset="0" style="stop-color:#90A38C"/>
		<stop  offset="0.01" style="stop-color:#D8EBD4"/>
		<stop  offset="0.03" style="stop-color:#BDD4B7"/>
		<stop  offset="0.64" style="stop-color:#BAD0B4"/>
		<stop  offset="0.99" style="stop-color:#B5CCB0"/>
		<stop  offset="1" style="stop-color:#869782"/>
	</linearGradient>
	<path fill="url(#SVGID_33_)" d="M290.402,138.988h26.25c0.75,0,0.895,0.398,0.895,0.93l-0.145,2.07c0,0-0.289,0.719-0.82,0.719
		l-26.18,0.031c0,0-0.75-0.461-0.75-0.996v-2.004c0,0,0.418-0.785,0.949-0.785L290.402,138.988z"/>
	
		<linearGradient id="SVGID_34_" gradientUnits="userSpaceOnUse" x1="220.8193" y1="201.3486" x2="220.8193" y2="196.3018" gradientTransform="matrix(0.75 0 0 -0.75 137.9847 258.8868)">
		<stop  offset="0" style="stop-color:#90A38C"/>
		<stop  offset="0.01" style="stop-color:#D8EBD4"/>
		<stop  offset="0.03" style="stop-color:#BDD4B7"/>
		<stop  offset="0.64" style="stop-color:#BAD0B4"/>
		<stop  offset="0.99" style="stop-color:#B5CCB0"/>
		<stop  offset="1" style="stop-color:#869782"/>
	</linearGradient>
	<path fill="url(#SVGID_34_)" d="M290.402,107.91h26.25c0.75,0,0.895,0.398,0.895,0.93l-0.145,2.07c0,0-0.289,0.719-0.82,0.719
		l-26.18,0.031c0,0-0.75-0.461-0.75-0.996v-2.004c0,0,0.418-0.785,0.949-0.785L290.402,107.91z"/>
	
		<linearGradient id="SVGID_35_" gradientUnits="userSpaceOnUse" x1="220.8193" y1="201.3506" x2="220.8193" y2="196.3037" gradientTransform="matrix(0.75 0 0 -0.75 137.9847 227.8097)">
		<stop  offset="0" style="stop-color:#90A38C"/>
		<stop  offset="0.01" style="stop-color:#D8EBD4"/>
		<stop  offset="0.03" style="stop-color:#BDD4B7"/>
		<stop  offset="0.64" style="stop-color:#BAD0B4"/>
		<stop  offset="0.99" style="stop-color:#B5CCB0"/>
		<stop  offset="1" style="stop-color:#869782"/>
	</linearGradient>
	<path fill="url(#SVGID_35_)" d="M290.402,76.832h26.25c0.75,0,0.895,0.398,0.895,0.934l-0.145,2.066c0,0-0.289,0.723-0.82,0.723
		l-26.18,0.027c0,0-0.75-0.461-0.75-0.996v-2.004c0,0,0.418-0.785,0.949-0.785L290.402,76.832z"/>
</g>
</svg>
