<?xml version="1.0" encoding="utf-8"?>
<!-- Generator: Adobe Illustrator 16.0.0, SVG Export Plug-In . SVG Version: 6.00 Build 0)  -->
<!DOCTYPE svg PUBLIC "-//W3C//DTD SVG 1.1//EN" "http://www.w3.org/Graphics/SVG/1.1/DTD/svg11.dtd">
<svg preserveAspectRatio="none"   version="1.1" id="图层_1" xmlns="http://www.w3.org/2000/svg" xmlns:xlink="http://www.w3.org/1999/xlink" x="0px" y="0px"
	 width="566.097px" height="271.367px" viewBox="0 295.867 566.097 271.367" enable-background="new 0 295.867 566.097 271.367"
	 xml:space="preserve">
<g id="surface481">
	<path fill="#DCDCDD" d="M96.191,360.609l24.75,2.25c0,0,9.07-2.668,10.324-3.863c0.926-1.387,0.75-4.184,0.75-4.184l-0.574-4.703
		l-6-1.5l-10.5,0.75l-9.75,1.5l-2.25,1.5l-1.5,2.25l-2.25,1.5l-2.25,2.25L96.191,360.609z"/>
	<path fill="#DCDCDD" d="M44.129,388.382l15,9.75l8.25-4.5l3.75-11.25l-3.75-11.25l-15.75-3l-12,3L44.129,388.382z"/>
	<path fill="#DCDCDD" d="M215.523,396.14l11.25,8.25l33.75-3.75v-12.75l-33.75-17.25h-17.25l-15,5.25l3.75,24.75L215.523,396.14z"/>
	<path fill="#DCDCDD" d="M67.008,372.867l6,13.5c0,0,36.055,2.152,44.457,2.922c7.293,0.828,77.156,3.438,77.117,3.438
		l-42.074-49.109l-35.25,16.5l-28.5-2.25l-6,6L67.008,372.867z"/>
	<path fill="#DCDCDD" d="M144.141,362.632c-4.5,10.5,13.492,34.961,13.492,34.961l45.758,0.289l24-15.75l-6.75-24l-17.25-6
		l-23.25,7.5c0,0-32.125-7.176-36.188,3.055L144.141,362.632z"/>
	<path fill="#DCDCDD" d="M19.59,422.824l51,6.75c0,0,12.879-7.691,12.879-9.418c-0.129-1.832,1.668-26.129,1.668-26.129
		l-35.547-8.703l-17.25-2.25c0,0-17.555,11.668-14.707,16.418c2.707,4.582-8.543,15.449-8.543,15.449L19.59,422.824z"/>
	<path fill="#DCDCDD" d="M55.352,426.402h52.5c0,0,27.75-8.016,28.965-10.258c1.035-2.492-7.82-33.098-7.82-33.098
		c-0.145-0.145-36.555-3.152-51.785,1.734c-15.109,4.871-4.863,16.801-4.863,16.801L55.352,426.402z"/>
	<path fill="#DCDCDD" d="M145.289,420.453l11.25,10.5l33.75-4.5l12.75-26.25l-46.5-12h-17.25l-15,6.75l3.75,31.5L145.289,420.453z"
		/>
	<path fill="#DCDCDD" d="M157.203,429.46l74.25,6.75c0,0,54.804-10.031,58.347-13.945c5.402-5.555,0-18.43,0-18.43l-23.097-3.625
		l-25.5-12.75h-31.5l-29.25,7.5v19.5l-8.25-3l-5.25,5.25l-6.75,4.5L157.203,429.46z"/>
	<path fill="#DCDCDD" d="M163.477,368.304l15,9.75l8.25-4.5l3.75-11.25l-3.75-11.25l-15.75-3l-12,3L163.477,368.304z"/>
	
		<linearGradient id="SVGID_1_" gradientUnits="userSpaceOnUse" x1="343.5405" y1="232.2979" x2="343.5405" y2="203.2959" gradientTransform="matrix(0.5745 -0.4821 -0.4821 -0.5745 315.6295 721.7384)">
		<stop  offset="0" style="stop-color:#5F89A6"/>
		<stop  offset="0.03" style="stop-color:#AAD1EF"/>
		<stop  offset="0.08" style="stop-color:#7EB3D8"/>
		<stop  offset="0.64" style="stop-color:#7CB0D5"/>
		<stop  offset="0.95" style="stop-color:#79ACD0"/>
		<stop  offset="1" style="stop-color:#587F9A"/>
	</linearGradient>
	<path fill="url(#SVGID_1_)" d="M249.914,549.445l302.203-253.578l13.98,16.66L263.895,566.109L249.914,549.445z"/>
	
		<linearGradient id="SVGID_2_" gradientUnits="userSpaceOnUse" x1="529.7261" y1="201.3066" x2="529.7261" y2="176.3057" gradientTransform="matrix(0.75 0 0 -0.75 -151.6691 699.463)">
		<stop  offset="0" style="stop-color:#5F89A6"/>
		<stop  offset="0.03" style="stop-color:#AAD1EF"/>
		<stop  offset="0.08" style="stop-color:#7EB3D8"/>
		<stop  offset="0.64" style="stop-color:#7CB0D5"/>
		<stop  offset="0.95" style="stop-color:#79ACD0"/>
		<stop  offset="1" style="stop-color:#587F9A"/>
	</linearGradient>
	<path fill="url(#SVGID_2_)" d="M0,548.484h491.25v18.75H0V548.484z"/>
	
		<linearGradient id="SVGID_3_" gradientUnits="userSpaceOnUse" x1="202.228" y1="70.3062" x2="219.228" y2="70.3062" gradientTransform="matrix(0.75 0 0 -0.75 328.5087 521.1427)">
		<stop  offset="0" style="stop-color:#5F89A6"/>
		<stop  offset="0.03" style="stop-color:#AAD1EF"/>
		<stop  offset="0.08" style="stop-color:#7EB3D8"/>
		<stop  offset="0.64" style="stop-color:#7CB0D5"/>
		<stop  offset="0.95" style="stop-color:#79ACD0"/>
		<stop  offset="1" style="stop-color:#587F9A"/>
	</linearGradient>
	<path fill="url(#SVGID_3_)" d="M492.929,566.664h-12.75v-196.5h12.75V566.664z"/>
	
		<linearGradient id="SVGID_4_" gradientUnits="userSpaceOnUse" x1="202.2251" y1="114.8042" x2="588.2241" y2="114.8042" gradientTransform="matrix(0.75 0 0 -0.75 -151.6686 569.8634)">
		<stop  offset="0" style="stop-color:#88A0B0"/>
		<stop  offset="0.03" style="stop-color:#D0E9FA"/>
		<stop  offset="0.08" style="stop-color:#B2D1E5"/>
		<stop  offset="0.64" style="stop-color:#B0CEE2"/>
		<stop  offset="0.95" style="stop-color:#ACC9DD"/>
		<stop  offset="1" style="stop-color:#7E95A4"/>
	</linearGradient>
	<path fill="url(#SVGID_4_)" d="M0,548.636h289.5v-129.75H0V548.636z"/>
	
		<linearGradient id="SVGID_5_" gradientUnits="userSpaceOnUse" x1="435.2241" y1="201.3066" x2="435.2241" y2="183.3057" gradientTransform="matrix(0.75 0 0 -0.75 -12.5436 599.0968)">
		<stop  offset="0" style="stop-color:#5F89A6"/>
		<stop  offset="0.03" style="stop-color:#AAD1EF"/>
		<stop  offset="0.08" style="stop-color:#7EB3D8"/>
		<stop  offset="0.64" style="stop-color:#7CB0D5"/>
		<stop  offset="0.95" style="stop-color:#79ACD0"/>
		<stop  offset="1" style="stop-color:#587F9A"/>
	</linearGradient>
	<path fill="url(#SVGID_5_)" d="M488.625,461.617h-349.5v-13.5h349.5V461.617z"/>
	
		<linearGradient id="SVGID_6_" gradientUnits="userSpaceOnUse" x1="202.2241" y1="134.3042" x2="219.2241" y2="134.3042" gradientTransform="matrix(0.75 0 0 -0.75 -12.5431 599.0948)">
		<stop  offset="0" style="stop-color:#5F89A6"/>
		<stop  offset="0.03" style="stop-color:#AAD1EF"/>
		<stop  offset="0.08" style="stop-color:#7EB3D8"/>
		<stop  offset="0.64" style="stop-color:#7CB0D5"/>
		<stop  offset="0.95" style="stop-color:#79ACD0"/>
		<stop  offset="1" style="stop-color:#587F9A"/>
	</linearGradient>
	<path fill="url(#SVGID_6_)" d="M151.875,548.617h-12.75v-100.5h12.75V548.617z"/>
	
		<linearGradient id="SVGID_7_" gradientUnits="userSpaceOnUse" x1="202.2251" y1="134.3062" x2="219.2251" y2="134.3062" gradientTransform="matrix(0.75 0 0 -0.75 224.6473 599.0968)">
		<stop  offset="0" style="stop-color:#5F89A6"/>
		<stop  offset="0.03" style="stop-color:#AAD1EF"/>
		<stop  offset="0.08" style="stop-color:#7EB3D8"/>
		<stop  offset="0.64" style="stop-color:#7CB0D5"/>
		<stop  offset="0.95" style="stop-color:#79ACD0"/>
		<stop  offset="1" style="stop-color:#587F9A"/>
	</linearGradient>
	<path fill="url(#SVGID_7_)" d="M389.066,548.617h-12.75v-100.5h12.75V548.617z"/>
</g>
</svg>
