<?xml version="1.0" encoding="utf-8"?>
<!-- Generator: Adobe Illustrator 16.0.0, SVG Export Plug-In . SVG Version: 6.00 Build 0)  -->
<!DOCTYPE svg PUBLIC "-//W3C//DTD SVG 1.1//EN" "http://www.w3.org/Graphics/SVG/1.1/DTD/svg11.dtd">
<svg preserveAspectRatio="none"   version="1.1" id="图层_1" xmlns="http://www.w3.org/2000/svg" xmlns:xlink="http://www.w3.org/1999/xlink" x="0px" y="0px"
	 width="565.775px" height="333.066px" viewBox="-0.065 233.25 565.775 333.066"
	 enable-background="new -0.065 233.25 565.775 333.066" xml:space="preserve">
<g id="surface436">
	
		<linearGradient id="SVGID_1_" gradientUnits="userSpaceOnUse" x1="258.2266" y1="83.3027" x2="202.2266" y2="83.3027" gradientTransform="matrix(0.75 0 0 -0.75 -137.5573 435.6173)">
		<stop  offset="0" style="stop-color:#B57B00"/>
		<stop  offset="0.03" style="stop-color:#FFC37C"/>
		<stop  offset="0.08" style="stop-color:#EBA100"/>
		<stop  offset="0.64" style="stop-color:#E79E00"/>
		<stop  offset="0.95" style="stop-color:#E29B00"/>
		<stop  offset="1" style="stop-color:#A87200"/>
	</linearGradient>
	<path fill="url(#SVGID_1_)" d="M14.113,284.64v39.75l35.25,135.75l6.75,1.5l-34.5-137.25L14.113,284.64z"/>
	
		<linearGradient id="SVGID_2_" gradientUnits="userSpaceOnUse" x1="316.3784" y1="212.2549" x2="316.3784" y2="207.252" gradientTransform="matrix(0.7244 0.1941 0.1941 -0.7244 -196.2344 344.1909)">
		<stop  offset="0" style="stop-color:#B0B0B0"/>
		<stop  offset="0.15" style="stop-color:#EFEFEF"/>
		<stop  offset="0.25" style="stop-color:#F6F6F6"/>
		<stop  offset="0.52" style="stop-color:#D0D0D0"/>
		<stop  offset="0.69" style="stop-color:#B9B9B9"/>
		<stop  offset="0.8" style="stop-color:#AFAFAF"/>
		<stop  offset="0.92" style="stop-color:#A5A5A5"/>
		<stop  offset="1" style="stop-color:#BEBEBE"/>
	</linearGradient>
	<path fill="url(#SVGID_2_)" d="M25.266,238.734l97.801,26.207l-0.973,3.621l-97.797-26.203L25.266,238.734z"/>
	
		<linearGradient id="SVGID_3_" gradientUnits="userSpaceOnUse" x1="389.8784" y1="212.2554" x2="389.8784" y2="200.2529" gradientTransform="matrix(0.7244 0.1941 0.1941 -0.7244 -126.2188 360.6069)">
		<stop  offset="0" style="stop-color:#B0B0B0"/>
		<stop  offset="0.15" style="stop-color:#EFEFEF"/>
		<stop  offset="0.25" style="stop-color:#F6F6F6"/>
		<stop  offset="0.52" style="stop-color:#D0D0D0"/>
		<stop  offset="0.69" style="stop-color:#B9B9B9"/>
		<stop  offset="0.8" style="stop-color:#AFAFAF"/>
		<stop  offset="0.92" style="stop-color:#A5A5A5"/>
		<stop  offset="1" style="stop-color:#BEBEBE"/>
	</linearGradient>
	<path fill="url(#SVGID_3_)" d="M95.281,255.152l204.292,54.738l-2.328,8.695L92.953,263.844L95.281,255.152z"/>
	
		<linearGradient id="SVGID_4_" gradientUnits="userSpaceOnUse" x1="600.2231" y1="126.3657" x2="202.2236" y2="126.3657" gradientTransform="matrix(0.75 0 0 -0.75 -96.5631 432.2306)">
		<stop  offset="0" style="stop-color:#B57B00"/>
		<stop  offset="0.03" style="stop-color:#FFC37C"/>
		<stop  offset="0.08" style="stop-color:#EBA100"/>
		<stop  offset="0.64" style="stop-color:#E79E00"/>
		<stop  offset="1" style="stop-color:#E29B00"/>
	</linearGradient>
	<path fill="url(#SVGID_4_)" d="M353.605,375.003l-31.5-51c0,0-12.516-16.953-46.21-16.953L82.855,282.754
		c0,0-16.75-3.449-27.75-0.199l5.25,21.949l18,6l180.75,32.25c0,0,31.824,7.551,48.929,29.441l13.32,21.559
		c0,0,3.965-17.18,9.059-18.328L353.605,375.003z"/>
	
		<linearGradient id="SVGID_5_" gradientUnits="userSpaceOnUse" x1="291.2222" y1="42.4717" x2="202.2871" y2="42.4717" gradientTransform="matrix(0.75 0 0 -0.75 -140.1793 384.2267)">
		<stop  offset="0" style="stop-color:#B57B00"/>
		<stop  offset="0.03" style="stop-color:#FFC37C"/>
		<stop  offset="0.08" style="stop-color:#EBA100"/>
		<stop  offset="0.64" style="stop-color:#E79E00"/>
		<stop  offset="0.95" style="stop-color:#E29B00"/>
		<stop  offset="1" style="stop-color:#A87200"/>
	</linearGradient>
	<path fill="url(#SVGID_5_)" d="M35.488,249l19.5,33.75l5.25,23.25l18,161.25c0,0-10.73,9.695-12.805-0.207L12.238,277.5
		c0,0-2.27-7.453,1.355-13.707l6.145-20.043c0,0,3.707-10.5,9.926-10.5c-0.176,0,7.41,0,7.492,7.898
		c-0.168,0.352-0.258,6.563-1.789,8.102L35.488,249z"/>
	
		<linearGradient id="SVGID_6_" gradientUnits="userSpaceOnUse" x1="304.2817" y1="122.9956" x2="202.21" y2="122.9956" gradientTransform="matrix(0.75 0 0 -0.75 -151.7233 599.6915)">
		<stop  offset="0" style="stop-color:#FFC37C"/>
		<stop  offset="0.08" style="stop-color:#EBA100"/>
		<stop  offset="0.64" style="stop-color:#E79E00"/>
		<stop  offset="0.95" style="stop-color:#E29B00"/>
		<stop  offset="1" style="stop-color:#A87200"/>
	</linearGradient>
	<path fill="url(#SVGID_6_)" d="M73.445,463.714l-11.25-15c0,0-12.551,12.926-21.852,14.023c0.102,0.227-30.637-8.25-39.879,18.152
		c0.23,0.074-3.34,23.652,5.41,34.117c0.07-0.293,17.836,33.176,22.594,51.086c-0.023,0.371,5.258-0.551,4.762-2.148
		c-0.285-1.23-1.477-5.078-1.477-5.078l41.691-80.902c0,0,3.043-5.297,3.043-10.523c-0.043,0.023-3.316-0.301-3.316-3.602
		L73.445,463.714z"/>
	
		<linearGradient id="SVGID_7_" gradientUnits="userSpaceOnUse" x1="232.2256" y1="175.3066" x2="202.2256" y2="175.3066" gradientTransform="matrix(0.75 0 0 -0.75 -115.0519 557.1193)">
		<stop  offset="0" style="stop-color:#B57B00"/>
		<stop  offset="0.03" style="stop-color:#FFC37C"/>
		<stop  offset="0.08" style="stop-color:#EBA100"/>
		<stop  offset="0.64" style="stop-color:#E79E00"/>
		<stop  offset="0.95" style="stop-color:#E29B00"/>
		<stop  offset="1" style="stop-color:#A87200"/>
	</linearGradient>
	<path fill="url(#SVGID_7_)" d="M40.367,418.89l18.75,26.25l-4.5-16.5l-18-22.5L40.367,418.89z"/>
	
		<linearGradient id="SVGID_8_" gradientUnits="userSpaceOnUse" x1="146.1274" y1="134.6348" x2="138.5195" y2="134.6348" gradientTransform="matrix(0.7048 -0.2565 -0.2565 -0.7048 237.5775 501.8119)">
		<stop  offset="0" style="stop-color:#B0B0B0"/>
		<stop  offset="0.15" style="stop-color:#EFEFEF"/>
		<stop  offset="0.25" style="stop-color:#F6F6F6"/>
		<stop  offset="0.52" style="stop-color:#D0D0D0"/>
		<stop  offset="0.69" style="stop-color:#B9B9B9"/>
		<stop  offset="0.8" style="stop-color:#AFAFAF"/>
		<stop  offset="0.92" style="stop-color:#A5A5A5"/>
		<stop  offset="1" style="stop-color:#BEBEBE"/>
	</linearGradient>
	<path fill="url(#SVGID_8_)" d="M285.253,319.984c1.406-0.512,2.836,0.176,3.363,1.621l34.406,95.574
		c0.512,1.41,0.168,3.152-1.313,3.691c-1.188,0.41-3.121-0.238-3.648-1.684l-34.605-95.355c-0.512-1.41,0.047-3.328,1.527-3.867
		L285.253,319.984z"/>
	
		<linearGradient id="SVGID_9_" gradientUnits="userSpaceOnUse" x1="151.0767" y1="181.376" x2="138.4355" y2="181.376" gradientTransform="matrix(0.7048 -0.2565 -0.2565 -0.7048 260.704 569.8236)">
		<stop  offset="0" style="stop-color:#A3A3A4"/>
		<stop  offset="0.15" style="stop-color:#DEDEDF"/>
		<stop  offset="0.25" style="stop-color:#EDEDED"/>
		<stop  offset="0.52" style="stop-color:#C0C0C1"/>
		<stop  offset="0.69" style="stop-color:#ABABAC"/>
		<stop  offset="0.8" style="stop-color:#A1A1A2"/>
		<stop  offset="0.92" style="stop-color:#989899"/>
		<stop  offset="1" style="stop-color:#AFAFB0"/>
	</linearGradient>
	<path fill="url(#SVGID_9_)" d="M309.789,387.484c2.82-1.027,4.664-1.281,4.844-0.781l11.695,33.07
		c0.258,0.707-1.32,1.637-3.781,2.531c-2.305,0.484-4.609,1.203-4.789,0.703l-11.941-33.281c0,0,1.574-1.41,4.035-2.305
		L309.789,387.484z"/>
	
		<linearGradient id="SVGID_10_" gradientUnits="userSpaceOnUse" x1="363.1587" y1="128.3047" x2="202.2236" y2="128.3047" gradientTransform="matrix(0.75 0 0 -0.75 157.4833 526.4034)">
		<stop  offset="0" style="stop-color:#B38221"/>
		<stop  offset="0.03" style="stop-color:#FDCA83"/>
		<stop  offset="0.08" style="stop-color:#E9AA2E"/>
		<stop  offset="0.64" style="stop-color:#E5A72D"/>
		<stop  offset="0.95" style="stop-color:#E0A32C"/>
		<stop  offset="1" style="stop-color:#A6781E"/>
	</linearGradient>
	<path fill="url(#SVGID_10_)" d="M330.152,375.425h87c0,0,8.035,0.938,8.035,10.316c0.215,0.184,7.258,39.086,3.629,99.125
		l-117.414,0.059c0,0-2.25-3.813-2.25-7.98c0-0.27,7.184-60.461,12.359-82.863c-0.359,0.094,3.809-18.656,8.902-18.656H330.152z"/>
	<path d="M321.542,440.855h59.25v-57h-34.5c0,0-12.34-3.324-14.934,8.664L321.542,440.855z"/>
	<path d="M321.89,446.269c-1.5,0,59.234-0.07,59.234-0.07l0.016,13.57l-26.25,14.25h-30c0,0-6.75-3.328-6.75-9.32L321.89,446.269z"
		/>
	<path d="M387.394,385.894v60.75c0,0-0.566,4.766,7.727,3.199l20.023-15.949v-9.75l-10.5-36.75c0,0,0.844-4.762-4.34-4.762
		l-7.66-0.488c0,0-3.484-0.309-5.301,3.598L387.394,385.894z"/>
	
		<linearGradient id="SVGID_11_" gradientUnits="userSpaceOnUse" x1="379.2222" y1="168.3066" x2="202.2222" y2="168.3066" gradientTransform="matrix(0.75 0 0 -0.75 281.2928 585.7091)">
		<stop  offset="0" style="stop-color:#B57B00"/>
		<stop  offset="0.03" style="stop-color:#FFC37C"/>
		<stop  offset="0.08" style="stop-color:#EBA100"/>
		<stop  offset="0.64" style="stop-color:#E79E00"/>
		<stop  offset="0.95" style="stop-color:#E29B00"/>
		<stop  offset="1" style="stop-color:#A87200"/>
	</linearGradient>
	<path fill="url(#SVGID_11_)" d="M432.96,434.73h121.5l11.25,9.75v39.75H432.96V434.73z"/>
	
		<linearGradient id="SVGID_12_" gradientUnits="userSpaceOnUse" x1="285.2222" y1="195.3394" x2="202.2222" y2="195.3394" gradientTransform="matrix(0.75 0 0 -0.75 312.5116 576.1183)">
		<stop  offset="0" style="stop-color:#B57B00"/>
		<stop  offset="0.03" style="stop-color:#FFC37C"/>
		<stop  offset="0.08" style="stop-color:#EBA100"/>
		<stop  offset="0.64" style="stop-color:#E79E00"/>
		<stop  offset="0.95" style="stop-color:#E29B00"/>
		<stop  offset="1" style="stop-color:#A87200"/>
	</linearGradient>
	<path fill="url(#SVGID_12_)" d="M470.929,425.14h48c4.5,0,7.344,3.102,7.344,6.988l0.156,2.012h-62.25v-2.25
		c0-3.75,3.02-6.801,6.887-6.801L470.929,425.14z"/>
	
		<linearGradient id="SVGID_13_" gradientUnits="userSpaceOnUse" x1="365.228" y1="201.3047" x2="365.228" y2="166.3037" gradientTransform="matrix(0.75 0 0 -0.75 117.4857 671.7003)">
		<stop  offset="0" style="stop-color:#B57B00"/>
		<stop  offset="0.03" style="stop-color:#FFC37C"/>
		<stop  offset="0.08" style="stop-color:#EBA100"/>
		<stop  offset="0.64" style="stop-color:#E79E00"/>
		<stop  offset="0.95" style="stop-color:#E29B00"/>
		<stop  offset="1" style="stop-color:#A87200"/>
	</linearGradient>
	<path fill="url(#SVGID_13_)" d="M269.156,520.722h244.5v26.25h-244.5V520.722z"/>
	<path d="M299.003,546.046l25.637-0.066c-0.137,6.816-5.766,12.895-12.816,12.895c-6.82-0.078-12.863-5.773-12.863-12.895
		L299.003,546.046z"/>
	<path d="M331.492,546.046l25.633-0.066c-0.133,6.816-5.766,12.895-12.816,12.895c-6.816-0.078-12.863-5.773-12.863-12.895
		L331.492,546.046z"/>
	<path d="M363.976,546.046l25.633-0.066c-0.133,6.816-5.766,12.895-12.816,12.895c-6.816-0.078-12.863-5.773-12.863-12.895
		L363.976,546.046z"/>
	<path d="M396.46,546.046l25.633-0.066c-0.133,6.816-5.766,12.895-12.816,12.895c-6.816-0.078-12.863-5.773-12.863-12.895
		L396.46,546.046z"/>
	<path d="M428.945,546.046l25.633-0.066c-0.133,6.816-5.766,12.895-12.816,12.895c-6.816-0.078-12.863-5.773-12.863-12.895
		L428.945,546.046z"/>
	<path d="M461.429,546.046l25.637-0.066c-0.137,6.816-5.77,12.895-12.82,12.895c-6.816-0.078-12.863-5.773-12.863-12.895
		L461.429,546.046z"/>
	
		<linearGradient id="SVGID_14_" gradientUnits="userSpaceOnUse" x1="539.7319" y1="195.3281" x2="202.2236" y2="195.3281" gradientTransform="matrix(0.75 0 0 -0.75 160.5184 634.9913)">
		<stop  offset="0" style="stop-color:#B57B00"/>
		<stop  offset="0.03" style="stop-color:#FFC37C"/>
		<stop  offset="0.08" style="stop-color:#EBA100"/>
		<stop  offset="0.64" style="stop-color:#E79E00"/>
		<stop  offset="0.95" style="stop-color:#E29B00"/>
		<stop  offset="1" style="stop-color:#A87200"/>
	</linearGradient>
	<path fill="url(#SVGID_14_)" d="M312.187,484.011h252.75c0,0,3.32,5.18-9.637,8.828l-229.613,0.172c0,0-13.5-1.215-13.5-9.031
		V484.011z"/>
	
		<linearGradient id="SVGID_15_" gradientUnits="userSpaceOnUse" x1="519.2241" y1="181.8071" x2="202.2251" y2="181.8071" gradientTransform="matrix(0.75 0 0 -0.75 118.0575 642.5148)">
		<stop  offset="0" style="stop-color:#B57B00"/>
		<stop  offset="0.03" style="stop-color:#FFC37C"/>
		<stop  offset="0.08" style="stop-color:#EBA100"/>
		<stop  offset="0.64" style="stop-color:#E79E00"/>
		<stop  offset="0.95" style="stop-color:#E29B00"/>
		<stop  offset="1" style="stop-color:#A87200"/>
	</linearGradient>
	<path fill="url(#SVGID_15_)" d="M330.476,505.035l9.75-13.5h84.75l14.25,11.25l68.25,6l-13.5,12h-201.75l-22.5-11.25
		L330.476,505.035z"/>
	<path d="M242.813,536.296c0-15,11.973-27,26.914-27c15.085,0,26.91,12.094,26.91,27.059c0.176,14.941-12.078,27.102-26.91,27.102
		c-14.914-0.16-27.008-12.133-27.008-27.102L242.813,536.296z"/>
	<path d="M489.464,533.636c0-15,11.969-27,26.91-27c15.09,0,26.91,12.09,26.91,27.059c0.18,14.941-12.074,27.098-26.91,27.098
		c-14.91-0.156-27.008-12.133-27.008-27.098L489.464,533.636z"/>
	<path fill="#FFFFFF" fill-opacity="0.2078" d="M323.089,447.851c-0.75,0,56.09-0.063,56.09-0.063l0.16,12.063l-24.75,12.75h-27.75
		c0,0-6.75-3.125-6.75-8.434L323.089,447.851z"/>
	<path fill="#FFFFFF" fill-opacity="0.2078" d="M388.941,388.984v54c0,0-0.504,4.457,6.855,3.07l17.145-13.57v-9.75l-8.25-32.25
		c0,0,0.305-4.066-4.293-4.066l-6.957-0.434c0,0-2.934-0.273-4.543,3.195L388.941,388.984z"/>
	<path fill="#FFFFFF" fill-opacity="0.2078" d="M323.183,438.578h56.25l-23.25-52.5h-9.75c0,0-11.523-3.063-13.973,7.992
		L323.183,438.578z"/>
	<path fill="#B47A00" d="M278.535,328.777c0-6.75,4.801-11.293,10.804-11.293c5.695,0.043,10.875,4.895,10.875,10.93
		c0.07,6.363-4.871,10.934-10.875,10.934c-6.304-0.07-10.875-4.895-10.875-10.934L278.535,328.777z"/>
	
		<linearGradient id="SVGID_16_" gradientUnits="userSpaceOnUse" x1="229.5776" y1="197.2505" x2="199.8727" y2="180.1004" gradientTransform="matrix(0.75 0 0 -0.75 128.3412 469.9904)">
		<stop  offset="0" style="stop-color:#C48500"/>
		<stop  offset="0.15" style="stop-color:#FFB545"/>
		<stop  offset="0.25" style="stop-color:#FFC686"/>
		<stop  offset="0.44" style="stop-color:#DF9900"/>
		<stop  offset="0.6" style="stop-color:#C78800"/>
		<stop  offset="0.8" style="stop-color:#A87200"/>
		<stop  offset="0.97" style="stop-color:#996800"/>
		<stop  offset="1" style="stop-color:#CB8B00"/>
	</linearGradient>
	<path fill="url(#SVGID_16_)" d="M280.012,328.761c0-5.25,4.148-9.789,9.335-9.789c4.914,0.039,9.398,4.23,9.398,9.449
		c0.016,5.59-4.207,9.449-9.398,9.449c-4.836-0.109-9.394-4.23-9.394-9.449L280.012,328.761z"/>
	<path fill="#DF8907" d="M73.703,477.816l-42,81l-3,7.5l-3-9l51-99.75l1.5,9.75c0,0-1.73,5.336-4.484,10.273L73.703,477.816z"/>
	
		<linearGradient id="SVGID_17_" gradientUnits="userSpaceOnUse" x1="242.4639" y1="191.0054" x2="198.3795" y2="174.96" gradientTransform="matrix(0.75 0 0 -0.75 104.3729 673.6027)">
		<stop  offset="0" style="stop-color:#403E3E"/>
		<stop  offset="0.15" style="stop-color:#6D6C6C"/>
		<stop  offset="0.25" style="stop-color:#BCBCBC"/>
		<stop  offset="0.52" style="stop-color:#4D4B4B"/>
		<stop  offset="0.69" style="stop-color:#434242"/>
		<stop  offset="0.8" style="stop-color:#3F3E3E"/>
		<stop  offset="0.92" style="stop-color:#3B3A3A"/>
		<stop  offset="1" style="stop-color:#454444"/>
	</linearGradient>
	<path fill="url(#SVGID_17_)" d="M256.043,536.125c0-7.5,6.086-13.5,13.684-13.5c7.316,0,13.684,6.148,13.684,13.758
		c-0.367,7.242-6.141,13.781-13.684,13.781c-7.684,0.211-13.734-6.168-13.734-13.781L256.043,536.125z"/>
	<path d="M263.578,536.218c0-3,2.734-6,6.148-6c3.602,0,6.145,2.762,6.145,6.18c-0.293,3.57-2.758,6.191-6.145,6.191
		c-3.148-0.371-6.172-2.77-6.172-6.191L263.578,536.218z"/>
	
		<linearGradient id="SVGID_18_" gradientUnits="userSpaceOnUse" x1="242.4644" y1="191.0005" x2="198.3811" y2="174.9555" gradientTransform="matrix(0.75 0 0 -0.75 351.0204 670.9406)">
		<stop  offset="0" style="stop-color:#403E3E"/>
		<stop  offset="0.15" style="stop-color:#6D6C6C"/>
		<stop  offset="0.25" style="stop-color:#BCBCBC"/>
		<stop  offset="0.52" style="stop-color:#4D4B4B"/>
		<stop  offset="0.69" style="stop-color:#434242"/>
		<stop  offset="0.8" style="stop-color:#3F3E3E"/>
		<stop  offset="0.92" style="stop-color:#3B3A3A"/>
		<stop  offset="1" style="stop-color:#454444"/>
	</linearGradient>
	<path fill="url(#SVGID_18_)" d="M502.691,533.464c0-7.5,6.086-13.5,13.684-13.5c7.316,0,13.684,6.148,13.684,13.758
		c-0.367,7.242-6.141,13.781-13.684,13.781c-7.684,0.211-13.734-6.172-13.734-13.781L502.691,533.464z"/>
	<path d="M510.226,533.558c0-3,2.734-6,6.148-6c3.602,0,6.145,2.762,6.145,6.18c-0.293,3.57-2.758,6.191-6.145,6.191
		c-3.148-0.371-6.172-2.773-6.172-6.191L510.226,533.558z"/>
	
		<linearGradient id="SVGID_19_" gradientUnits="userSpaceOnUse" x1="233.2222" y1="192.877" x2="202.1738" y2="192.877" gradientTransform="matrix(0.75 0 0 -0.75 -105.4327 437.295)">
		<stop  offset="0" style="stop-color:#A36F00"/>
		<stop  offset="0.03" style="stop-color:#ECB87C"/>
		<stop  offset="0.08" style="stop-color:#D59200"/>
		<stop  offset="0.64" style="stop-color:#D19000"/>
		<stop  offset="0.95" style="stop-color:#CD8C00"/>
		<stop  offset="1" style="stop-color:#976700"/>
	</linearGradient>
	<path fill="url(#SVGID_19_)" d="M49.984,296.066c0,0-9.281-6.336,1.219-9.855l18.281,0.855v12L49.984,296.066z"/>
	<path fill="#B47A00" d="M49.852,291.214c0-2.25,1.922-4.516,4.324-4.516c2.426,0.016,4.348,1.957,4.348,4.371
		c0.328,2.395-1.945,4.375-4.348,4.375c-2.074,0.27-4.352-1.961-4.352-4.375L49.852,291.214z"/>
	
		<linearGradient id="SVGID_20_" gradientUnits="userSpaceOnUse" x1="213.145" y1="199.7188" x2="201.263" y2="192.8587" gradientTransform="matrix(0.75 0 0 -0.75 -101.2257 438.2872)">
		<stop  offset="0" style="stop-color:#C48500"/>
		<stop  offset="0.15" style="stop-color:#FFB545"/>
		<stop  offset="0.25" style="stop-color:#FFC686"/>
		<stop  offset="0.44" style="stop-color:#DF9900"/>
		<stop  offset="0.6" style="stop-color:#C78800"/>
		<stop  offset="0.8" style="stop-color:#A87200"/>
		<stop  offset="0.97" style="stop-color:#996800"/>
		<stop  offset="1" style="stop-color:#CB8B00"/>
	</linearGradient>
	<path fill="url(#SVGID_20_)" d="M50.441,291.058c0-2.25,1.66-3.766,3.738-3.766c2.262,0.016,3.758,1.691,3.758,3.781
		c0.004,2.234-1.684,3.777-3.758,3.777c-2.238-0.043-3.762-1.691-3.762-3.777L50.441,291.058z"/>
	<path fill="#B47A00" d="M25.336,241.727c0-2.25,1.922-4.516,4.324-4.516c2.426,0.016,4.348,1.957,4.348,4.371
		c0.328,2.395-1.949,4.375-4.348,4.375c-2.074,0.27-4.352-1.961-4.352-4.375L25.336,241.727z"/>
	
		<linearGradient id="SVGID_21_" gradientUnits="userSpaceOnUse" x1="213.145" y1="199.7188" x2="201.263" y2="192.8587" gradientTransform="matrix(0.75 0 0 -0.75 -125.7428 388.799)">
		<stop  offset="0" style="stop-color:#C48500"/>
		<stop  offset="0.15" style="stop-color:#FFB545"/>
		<stop  offset="0.25" style="stop-color:#FFC686"/>
		<stop  offset="0.44" style="stop-color:#DF9900"/>
		<stop  offset="0.6" style="stop-color:#C78800"/>
		<stop  offset="0.8" style="stop-color:#A87200"/>
		<stop  offset="0.97" style="stop-color:#996800"/>
		<stop  offset="1" style="stop-color:#CB8B00"/>
	</linearGradient>
	<path fill="url(#SVGID_21_)" d="M25.926,241.57c0-2.25,1.66-3.766,3.734-3.766c2.266,0.016,3.762,1.691,3.762,3.781
		c0.004,2.234-1.684,3.777-3.762,3.777c-2.234-0.043-3.758-1.691-3.758-3.777L25.926,241.57z"/>
	
		<linearGradient id="SVGID_22_" gradientUnits="userSpaceOnUse" x1="225.2227" y1="192.3066" x2="202.2227" y2="192.3066" gradientTransform="matrix(0.75 0 0 -0.75 -92.4562 592.4122)">
		<stop  offset="0" style="stop-color:#A36F00"/>
		<stop  offset="0.03" style="stop-color:#ECB87C"/>
		<stop  offset="0.08" style="stop-color:#D59200"/>
		<stop  offset="0.64" style="stop-color:#D19000"/>
		<stop  offset="0.95" style="stop-color:#CD8C00"/>
		<stop  offset="1" style="stop-color:#976700"/>
	</linearGradient>
	<path fill="url(#SVGID_22_)" d="M61.461,450.433l15,4.5l-1.5-9.75l-15.75-3.75L61.461,450.433z"/>
	
		<linearGradient id="SVGID_23_" gradientUnits="userSpaceOnUse" x1="215.853" y1="199.3076" x2="201.0188" y2="190.7431" gradientTransform="matrix(0.75 0 0 -0.75 -87.7233 595.1837)">
		<stop  offset="0" style="stop-color:#C48500"/>
		<stop  offset="0.15" style="stop-color:#FFB545"/>
		<stop  offset="0.25" style="stop-color:#FFC686"/>
		<stop  offset="0.44" style="stop-color:#DF9900"/>
		<stop  offset="0.6" style="stop-color:#C78800"/>
		<stop  offset="0.8" style="stop-color:#A87200"/>
		<stop  offset="0.97" style="stop-color:#996800"/>
		<stop  offset="1" style="stop-color:#CB8B00"/>
	</linearGradient>
	<path fill="url(#SVGID_23_)" d="M63.945,448.707c0-2.25,2.07-4.52,4.66-4.52c2.84,0.02,4.684,2.109,4.684,4.711
		c-0.344,2.809-2.098,4.711-4.684,4.711c-2.41,0.348-4.688-2.109-4.688-4.711L63.945,448.707z"/>
</g>
</svg>
