<?xml version="1.0" encoding="utf-8"?>
<!-- Generator: Adobe Illustrator 16.0.0, SVG Export Plug-In . SVG Version: 6.00 Build 0)  -->
<!DOCTYPE svg PUBLIC "-//W3C//DTD SVG 1.1//EN" "http://www.w3.org/Graphics/SVG/1.1/DTD/svg11.dtd">
<svg preserveAspectRatio="none"   version="1.1" id="图层_1" xmlns="http://www.w3.org/2000/svg" xmlns:xlink="http://www.w3.org/1999/xlink" x="0px" y="0px"
	 width="559.148px" height="462.593px" viewBox="3.504 104.313 559.148 462.593"
	 enable-background="new 3.504 104.313 559.148 462.593" xml:space="preserve">
<g id="surface536">
	
		<linearGradient id="SVGID_1_" gradientUnits="userSpaceOnUse" x1="518.728" y1="201.3076" x2="518.728" y2="-64.6924" gradientTransform="matrix(0.75 0 0 -0.75 -106.0421 327.8859)">
		<stop  offset="0" style="stop-color:#5F89A6"/>
		<stop  offset="0.01" style="stop-color:#AAD1EF"/>
		<stop  offset="0.03" style="stop-color:#7EB3D8"/>
		<stop  offset="0.64" style="stop-color:#7CB0D5"/>
		<stop  offset="0.99" style="stop-color:#79ACD0"/>
		<stop  offset="1" style="stop-color:#587F9A"/>
	</linearGradient>
	<path fill="url(#SVGID_1_)" d="M520.378,176.906v199.5H45.629v-199.5H520.378z"/>
	
		<linearGradient id="SVGID_2_" gradientUnits="userSpaceOnUse" x1="518.728" y1="201.3047" x2="518.728" y2="34.3037" gradientTransform="matrix(0.75 0 0 -0.75 -106.0421 527.5011)">
		<stop  offset="0" style="stop-color:#5F89A6"/>
		<stop  offset="0.01" style="stop-color:#AAD1EF"/>
		<stop  offset="0.03" style="stop-color:#7EB3D8"/>
		<stop  offset="0.64" style="stop-color:#7CB0D5"/>
		<stop  offset="0.99" style="stop-color:#79ACD0"/>
		<stop  offset="1" style="stop-color:#587F9A"/>
	</linearGradient>
	<path fill="url(#SVGID_2_)" d="M520.378,376.523l-174,125.25h-126.75l-174-125.25H520.378z"/>
	
		<linearGradient id="SVGID_3_" gradientUnits="userSpaceOnUse" x1="518.728" y1="201.3066" x2="518.728" y2="142.3057" gradientTransform="matrix(0.75 0 0 -0.75 -106.0421 483.2169)">
		<stop  offset="0" style="stop-color:#5F89A6"/>
		<stop  offset="0.01" style="stop-color:#AAD1EF"/>
		<stop  offset="0.03" style="stop-color:#7EB3D8"/>
		<stop  offset="0.64" style="stop-color:#7CB0D5"/>
		<stop  offset="0.99" style="stop-color:#79ACD0"/>
		<stop  offset="1" style="stop-color:#587F9A"/>
	</linearGradient>
	<path fill="url(#SVGID_3_)" d="M520.378,332.238v44.25H45.629v-44.25H520.378z"/>
	
		<linearGradient id="SVGID_4_" gradientUnits="userSpaceOnUse" x1="380.4907" y1="194.3027" x2="202.2256" y2="194.3027" gradientTransform="matrix(0.75 0 0 -0.75 64.4906 652.3741)">
		<stop  offset="0" style="stop-color:#6490AE"/>
		<stop  offset="0.15" style="stop-color:#94C7EC"/>
		<stop  offset="0.25" style="stop-color:#CAE1F4"/>
		<stop  offset="0.52" style="stop-color:#77AACE"/>
		<stop  offset="0.69" style="stop-color:#6997B7"/>
		<stop  offset="0.8" style="stop-color:#638FAD"/>
		<stop  offset="0.92" style="stop-color:#5D86A3"/>
		<stop  offset="1" style="stop-color:#6C9BBB"/>
	</linearGradient>
	<path fill="url(#SVGID_4_)" d="M218.41,501.398h129c1.5,0,2.449,1.051,2.449,2.352l-0.199,5.898c0,0.75-0.867,2.047-2.18,2.047
		l-129.07,0.203c-1.5,0-2.25-1.258-2.25-2.559v-5.691c0-1.5,1.063-2.25,2.375-2.25H218.41z"/>
	
		<linearGradient id="SVGID_5_" gradientUnits="userSpaceOnUse" x1="317.2251" y1="152.3066" x2="202.2251" y2="152.3066" gradientTransform="matrix(0.75 0 0 -0.75 258.6815 255.2921)">
		<stop  offset="0" style="stop-color:#6490AE"/>
		<stop  offset="0.15" style="stop-color:#94C7EC"/>
		<stop  offset="0.25" style="stop-color:#CAE1F4"/>
		<stop  offset="0.52" style="stop-color:#77AACE"/>
		<stop  offset="0.69" style="stop-color:#6997B7"/>
		<stop  offset="0.8" style="stop-color:#638FAD"/>
		<stop  offset="0.92" style="stop-color:#5D86A3"/>
		<stop  offset="1" style="stop-color:#6C9BBB"/>
	</linearGradient>
	<path fill="url(#SVGID_5_)" d="M496.601,104.313v73.5h-86.25v-73.5H496.601z"/>
	
		<linearGradient id="SVGID_6_" gradientUnits="userSpaceOnUse" x1="324.2231" y1="197.624" x2="202.2231" y2="197.624" gradientTransform="matrix(0.75 0 0 -0.75 256.078 255.2921)">
		<stop  offset="0" style="stop-color:#6490AE"/>
		<stop  offset="0.15" style="stop-color:#94C7EC"/>
		<stop  offset="0.25" style="stop-color:#CAE1F4"/>
		<stop  offset="0.52" style="stop-color:#77AACE"/>
		<stop  offset="0.69" style="stop-color:#6997B7"/>
		<stop  offset="0.8" style="stop-color:#638FAD"/>
		<stop  offset="0.92" style="stop-color:#5D86A3"/>
		<stop  offset="1" style="stop-color:#6C9BBB"/>
	</linearGradient>
	<path fill="url(#SVGID_6_)" d="M409.246,104.313h88.5c0.75,0,1.363,0.668,1.363,1.5l0.137,2.25c0,0.75-0.883,1.773-1.723,1.773
		l-88.277-0.273c-0.75,0-1.5-0.402-1.5-1.234v-2.516c0-0.75,0.621-1.5,1.461-1.5H409.246z"/>
	
		<linearGradient id="SVGID_7_" gradientUnits="userSpaceOnUse" x1="317.2251" y1="198.8037" x2="202.2251" y2="198.8037" gradientTransform="matrix(0.75 0 0 -0.75 258.6815 260.9454)">
		<stop  offset="0" style="stop-color:#447DA7"/>
		<stop  offset="0.15" style="stop-color:#71B1E3"/>
		<stop  offset="0.25" style="stop-color:#BDD6EF"/>
		<stop  offset="0.52" style="stop-color:#5194C5"/>
		<stop  offset="0.69" style="stop-color:#4784AF"/>
		<stop  offset="0.8" style="stop-color:#437CA5"/>
		<stop  offset="0.92" style="stop-color:#3F759C"/>
		<stop  offset="1" style="stop-color:#4987B3"/>
	</linearGradient>
	<path fill="url(#SVGID_7_)" d="M496.601,109.969v3.75h-86.25v-3.75H496.601z"/>
	
		<linearGradient id="SVGID_8_" gradientUnits="userSpaceOnUse" x1="259.2246" y1="201.3018" x2="259.2246" y2="125.3018" gradientTransform="matrix(0.75 0 0 -0.75 153.9247 270.6173)">
		<stop  offset="0" style="stop-color:#5F89A6"/>
		<stop  offset="0.01" style="stop-color:#AAD1EF"/>
		<stop  offset="0.03" style="stop-color:#7EB3D8"/>
		<stop  offset="0.64" style="stop-color:#7CB0D5"/>
		<stop  offset="0.99" style="stop-color:#79ACD0"/>
		<stop  offset="1" style="stop-color:#587F9A"/>
	</linearGradient>
	<path fill="url(#SVGID_8_)" d="M305.593,176.641h85.5l-7.5-56.25l-70.5-0.75L305.593,176.641z"/>
	
		<linearGradient id="SVGID_9_" gradientUnits="userSpaceOnUse" x1="264.626" y1="201.3047" x2="264.626" y2="187.3047" gradientTransform="matrix(0.75 0 0 -0.75 150.0067 265.7521)">
		<stop  offset="0" style="stop-color:#5F89A6"/>
		<stop  offset="0.01" style="stop-color:#AAD1EF"/>
		<stop  offset="0.03" style="stop-color:#7EB3D8"/>
		<stop  offset="0.64" style="stop-color:#7CB0D5"/>
		<stop  offset="0.99" style="stop-color:#79ACD0"/>
		<stop  offset="1" style="stop-color:#587F9A"/>
	</linearGradient>
	<path fill="url(#SVGID_9_)" d="M302.425,114.773h91.5c0.75,0,1.152,0.527,1.152,1.176l0.348,7.824c0,0.75-0.941,1.199-1.598,1.199
		l-91.402,0.301c0,0-0.898-0.828-0.898-1.477l0.148-7.523c0-0.75,0.383-1.5,1.039-1.5H302.425z"/>
	
		<linearGradient id="SVGID_10_" gradientUnits="userSpaceOnUse" x1="202.2251" y1="-58.6924" x2="259.2251" y2="-58.6924" gradientTransform="matrix(0.75 0 0 -0.75 -148.1647 327.8859)">
		<stop  offset="0" style="stop-color:#5F89A6"/>
		<stop  offset="0.01" style="stop-color:#AAD1EF"/>
		<stop  offset="0.03" style="stop-color:#7EB3D8"/>
		<stop  offset="0.64" style="stop-color:#7CB0D5"/>
		<stop  offset="0.99" style="stop-color:#79ACD0"/>
		<stop  offset="1" style="stop-color:#587F9A"/>
	</linearGradient>
	<path fill="url(#SVGID_10_)" d="M3.504,176.906h42.75v390H3.504V176.906z"/>
	
		<linearGradient id="SVGID_11_" gradientUnits="userSpaceOnUse" x1="202.2222" y1="-58.6924" x2="259.2222" y2="-58.6924" gradientTransform="matrix(0.75 0 0 -0.75 368.2352 327.8859)">
		<stop  offset="0" style="stop-color:#5F89A6"/>
		<stop  offset="0.01" style="stop-color:#AAD1EF"/>
		<stop  offset="0.03" style="stop-color:#7EB3D8"/>
		<stop  offset="0.64" style="stop-color:#7CB0D5"/>
		<stop  offset="0.99" style="stop-color:#79ACD0"/>
		<stop  offset="1" style="stop-color:#587F9A"/>
	</linearGradient>
	<path fill="url(#SVGID_11_)" d="M519.902,176.906h42.75v390h-42.75V176.906z"/>
</g>
</svg>
