<?xml version="1.0" encoding="utf-8"?>
<!-- Generator: Adobe Illustrator 16.0.0, SVG Export Plug-In . SVG Version: 6.00 Build 0)  -->
<!DOCTYPE svg PUBLIC "-//W3C//DTD SVG 1.1//EN" "http://www.w3.org/Graphics/SVG/1.1/DTD/svg11.dtd">
<svg preserveAspectRatio="none"   version="1.1" id="图层_1" xmlns="http://www.w3.org/2000/svg" xmlns:xlink="http://www.w3.org/1999/xlink" x="0px" y="0px"
	 width="565.858px" height="299.549px" viewBox="0 265.471 565.858 299.549" enable-background="new 0 265.471 565.858 299.549"
	 xml:space="preserve">
<g id="surface421">
	<path fill="#0C0C0C" d="M206.441,559.988c6,2.25,13.578,5.883,18.266,4.852c4.984-1.102,32.789-1.602,37.082-5.039
		c17.402-4.313,13.453-39.762,13.453-51.09c0.199-10.973-46.324-62.488-47.887-64.035c-1.414-1.688-34.414-3.938-34.414-3.938
		L206.441,559.988z"/>
	<path fill="#0C0C0C" d="M26.848,465.941c3,1.5,7.848,3.527,10.633,2.941c2.867-0.691,18.582-1.051,21.137-3.09
		c4.23-3.602,7.73-5.238,8.934-30.305c1.297-24.297-16.758-43.469-17.684-44.453c-1.27-0.844-31.27,4.047-31.27,4.047
		L26.848,465.941z"/>
	<path fill="#D9D9D9" d="M318,290.242c-18-11.25-50.929-20.707-72.523-21.5c-10.727-0.25-78.984-6.004-120.574-1.645
		c-14.652,2.145-48.566,6.605-57.484,12.484c-5.918,3.91-9.043,5.144-22.977,23.531C39,310.492,33.949,322.031,26.285,328.57
		c-5.285,4.422-11.617,2.438-18.828,8.82C0,344.242,0,348.007,0,355.097c0.75,7.895,2.309,60.598,4.109,60.797
		c1.891,0.348,54.418,29.16,54.418,29.16c-0.027-0.313,129.086,63.211,131.703,62.461c2.52-0.523,77.039,37.949,87.438,37.949
		c10.332-0.223,15.992,2.371,27.992,4.742c12.34,2.535,38.266,6.875,47.988,6.875c19.852-1.34,76.379-7.27,79.176-10.035
		c-0.074-0.305-1.27-3.02,6-5.93c81.676-18.375,96.57-39.73,96.273-36.668c-0.348,3.293-1.699,3.066,0,4.645
		c4.902-2.852,20.891-27.672,20.891-32.414c-0.238-4.938,10.59-45.27,9.832-47.637c-4.07-2.301-17.965-0.59-17.578-4.742
		c0.758-4.309-8.223-37.379-8.223-37.379c-0.02,0.07-155.18-43.859-156.781-43.07c-1.488,1.141-49.707-43.879-65.18-53.563
		L318,290.242z"/>
	<path fill="#E5F3EA" d="M151.105,278.793c25.5-6,117.234-1.547,144.949,3.324c19.301,10.175,82.625,60.945,82.625,60.945
		c-0.324,0.23-59.992-1.879-83.223-0.238c-23.601,1.969-97.652,9.137-102.074,9.133c-4.777,0.336-11.168,2.344-15.594-4.148
		c-2.684-3.766-26.684-70.136-26.684-68.972V278.793z"/>
	<path fill="#575757" d="M29.07,422.25l1.5-1.5l141,65.25l-2.25,1.5L29.07,422.25z"/>
	<path fill="#D7D7D7" d="M186.457,354.738c-4.5,0.75-8.617-0.289-5.918,2.379c2.918,2.871,59.039,25.07,78.23,30.406
		c19.188,5.465,74.773,27.504,75.968,26.91c0.969-0.445,95.012,9.004,99.211,7.227c4.508-1.672,39.426-11.09,56.215-13.461
		c16.543-2.461,36.926-3.293,40.293-4.469c1-0.242,3.543-0.762,6.539-3.727c3.461-3.266,1.82-6.551,1.82-6.551
		c0.141,0.285,3-3.559,0-6.523c-2.859-2.941-149.918-42.691-149.918-42.691c0.059,0-64.766,0-92.348,1.777
		c-27.593,1.973-109.742,10.082-109.742,8.895L186.457,354.738z"/>
	<path fill="#F5F5F5" d="M240.746,438.636c13.5,3,75.57,22.555,80.964,22.555c5.285-0.055,117.535-4.871,120.535-3.684
		c3.25,1.379,35.379,9.488,40.18,9.488c5.07,0.141,46.148-7.684,49.77-11.266c4.051-4.344,4.754-21.453,6.84-23.512
		c1.711-1.832,6.578-9.324,6.578-9.324c-0.367-0.008-0.66-6.609,2.051-3.93c2.832,2.422,16.789,5.457,15.695,10.082
		c-2.363,4.34-17.469,24.164-25.766,28.461c-12.598,6.629-47.375,14.23-58.168,16.012c-10.68,1.867-135.848,4.469-142.184,3.027
		c-6.496-1.16-87.785-27.566-90.781-28.75c-2.715-0.91-4.293-8.004-5.715-9.488V438.636z"/>
	<path fill="#868686" d="M106.621,278.414c5.25-2.25,19.727-2.184,22.949,1.004c3.301,3.496,35.465,75.894,32.887,75.894
		c-2.586,0.352-76.086-5.473-76.086-8.023c0-2.875,8.383-40.453,11.605-50.016c3.395-9.859,8.383-19.128,8.383-19.128
		L106.621,278.414z"/>
	<path fill="#868686" d="M102.859,278.797c-2.25,6.75-5.797,12.445-8.469,19.945c-2.781,7.805-11.797,47.98-11.797,47.98
		c0.016,0.324-11.609-1.949-25.363-4.926c-5.371-1.5-15.871-3.434-15.871-5.984c0-2.266,1.602-14.426,4.512-18.488
		c3.738-5.527,18.703-22.957,29.664-29.332c4.824-2.445,27.691-10.292,27.691-9.097L102.859,278.797z"/>
	<path fill="#E5F3EA" d="M107.785,281.125c5.25-2.25,18.43-2.094,21.43,0.871c3.32,2.878,32.98,70.562,30.582,70.562
		c-2.512-0.184-70.762-5.93-70.762-8.301c0-2.383,7.797-36.766,10.797-45.66c2.703-9.223,7.793-17.789,7.793-17.789L107.785,281.125
		z"/>
	<path fill="#E5F3EA" d="M99.707,281.746c-2.25,6-5.273,11.66-7.926,19.222c-2.574,7.027-11.195,41.266-11.195,41.266
		c0.371,0.262-9.594-0.352-22.387-3.117c-4.992-1.121-13.992-2.57-13.992-4.941c0-2.18,1.488-13.418,4.195-17.195
		c3.305-4.484,17.391-21.348,27.586-27.277c4.219-2.707,24-8.972,24-7.859L99.707,281.746z"/>
	<path fill="#EDEDED" d="M342.601,501.16c2.25,0,97.043-0.25,153.918-19.102c56.832-19.148,63.344-27.398,63.344-27.398
		c0.238,0,0.27,2.121-1.516,3.883c-1.996,2.117-24.574,18.027-83.23,33.902c0.234-0.285-57.023,13.227-135.055,16.41
		c0.289-0.195-5.582-0.441-3.961-5.145c-0.25-0.301,2.672-2.172,6.438-2.801L342.601,501.16z"/>
	<path fill="#EDEDED" d="M344.07,521.125c2.25,0,93.281-3.254,150.152-22.105c56.848-19.145,63.344-27.395,63.344-27.395
		c0.254,0,0.27,2.117-1.512,3.879c-1.984,2.121-24.574,18.031-83.234,33.902c0.25-0.281-53.238,16.844-131.27,20.039
		c0.27-0.07-5.582-0.453-3.965-5.156c-0.266-0.164,2.676-2.172,6.441-2.801L344.07,521.125z"/>
	<path fill="#E1E1E1" d="M43.051,337.132c0,0,11.004,9.18,117.652,18.387c0.098,0.363-8.652,41.398-3.203,89.176
		c0.301-0.313-101.242-38.25-108.199-41.949c-0.25-0.363-4.559-0.391-9.234-14.191c-0.016,0.328-4.953-29.148,2.691-51.422H43.051z"
		/>
	
		<linearGradient id="SVGID_1_" gradientUnits="userSpaceOnUse" x1="209.5693" y1="201.5942" x2="209.5693" y2="191.4165" gradientTransform="matrix(0.75 0 0 -0.75 -106.2081 510.7423)">
		<stop  offset="0" style="stop-color:#C9C9C9"/>
		<stop  offset="1" style="stop-color:#6D6D6D"/>
	</linearGradient>
	<path fill="url(#SVGID_1_)" d="M46.211,359.765c2.25-0.75,6.98,0.625,7.992,1.281c1.008,0.969,2.863,5.344,2.02,5.891
		c-1.012,0.328-6.57,0.547-8.762-0.871c-2-1.051-2.695-5.457-1.012-6.109L46.211,359.765z"/>
	<path fill="#7F7F7F" d="M82.926,345.769c0,0-4.297,32.703-1.078,69.488l3.328,1.012c0,0-4.965-30.496,0.797-69.754L82.926,345.769z
		"/>
	
		<linearGradient id="SVGID_2_" gradientUnits="userSpaceOnUse" x1="211.5977" y1="201.5767" x2="211.5977" y2="189.4292" gradientTransform="matrix(0.75 0 0 -0.75 -60.0636 519.0255)">
		<stop  offset="0" style="stop-color:#C9C9C9"/>
		<stop  offset="1" style="stop-color:#6D6D6D"/>
	</linearGradient>
	<path fill="url(#SVGID_2_)" d="M93.105,368.046c2.25-0.75,8.344,0.754,9.633,1.543c1.617,0.707,3.648,6.422,2.574,7.078
		c-0.957,0.379-8.367,0.656-11.16-1.051c-2.547-1.57-3.434-6.555-1.285-7.34L93.105,368.046z"/>
	<path fill="#7F7F7F" d="M41.102,337.121c-3,1.5-5.25,18.973-5.25,34.66c0,14.09,9.484,30.773,9.484,30.773
		c0.266-0.184,113.574,47.672,114.172,46.582c0.844-1.016-1.809-44.426-1.809-55.398c-0.348-7.117,2.676-35.066,2.676-35.066
		l-3.023-1.301c0,0-3.023,22.453-3.219,36.563c-0.531,14.438,1.387,49.281,1.387,49.281L47.102,400.121
		c0,0-6.719-6.992-8.305-27.555c-1.445-19.695,3.965-35.445,3.965-35.445H41.102z"/>
	<path fill="#E1E1E1" d="M180.348,357.289l-4.5-2.25l0.75,2.25c0,0,80.742,39.531,138.355,59.797
		c-0.355,0.203,9.875-3.641,19.785-2.66c0.109-0.137-137.601-50.828-154.199-57.32L180.348,357.289z"/>
	<path fill="#E5E5E5" d="M388.75,344.253c0,0,134.449,36.066,150.07,42.711c-0.07,0.039-2.617,3.59-3.41,5.789l-151.16-47
		c0,0,5.703-0.227,4.691-1.5H388.75z"/>
	<path fill="#CBCBCB" d="M433.613,421.664c0,0,35.086-10.176,56.551-13.469c21.449-3.031,40.293-4.473,40.293-4.473
		c-0.094-0.059,3.27-0.391,4.324-1.559c0.082,0,6.18,1.137,3.602,30.082c0.23-0.082-2.379,21.641-7.133,23.836
		c-0.137,0.082-12.285,6.035-45.977,10.934c0.09-0.352-7.578,1.168-43.027-9.508l-2.633,0.156c0,0,3.254-5.93-4.277-19.648
		c-0.223,0.148-6.34-12.344-14.066-14.305l-11.656-2.797c0,0,23.641,1.426,24.336,0.738L433.613,421.664z"/>
	<path fill="#0C0C0C" d="M451.246,423.734c36.75-13.5,73.16-14.25,76.758-14.25c3.492,0,4.797,8.301,3.598,14.23
		c-0.855,6.02-4.5,24.609-7.195,27.277c-2.66,2.742-37.781,13.641-41.379,10.082c-3.281-3.59-31.781-34.984-31.781-37.359V423.734z"
		/>
	<path fill="#FFFFFF" d="M520.949,410.441c0,0,5.453,7.734,5.852,8.523c0.148,0.477-6.293,33.18-6.293,33.18
		c-0.309,0.297-0.902,0.816-0.902,0c-0.156-0.453,5.898-30.609,5.098-32.586c-0.754-1.617-6.754-9.867-6.754-9.867L520.949,410.441z
		"/>
	<path fill="#FFFFFF" d="M515.199,410.136c0,0,5.203,8.105,5.605,8.895c0.395,0.855-3.59,34.328-3.59,34.328
		c0.234,0.277-1.199,1.086-1.199,0.297c-0.066-0.77,2.789-30.539,2.789-33.438c0.145-1.832-7.348-9.793-7.348-9.793L515.199,410.136
		z"/>
	<path fill="#FFFFFF" d="M481.226,415.078c0,0,6.191,9.621,6.59,10.41c0.16,0.84,1.805,35.84,1.805,35.84
		c-0.145,0.25-1.805-0.656-1.805-1.445c0.16-0.555-2.098-30.309-2.098-33.207c0.008-1.848-10.492-9.367-10.492-9.367
		L481.226,415.078z"/>
	<path fill="#FFFFFF" d="M489.683,413.628c0,0,8.203,10.711,8.605,11.5c0.395,0.5-1.473,34.457-1.473,34.457
		c0.367-0.207-1.5,1.09-1.5,0.309c0.367-0.516,0.973-30.68,0.973-33.578c0.145-2.188-10.27-11.141-10.27-11.141L489.683,413.628z"/>
	<path fill="#FFFFFF" d="M498.886,412.375c0,0,6.195,9.586,6.594,10.379c0.156,0.871-2.371,34.457-2.371,34.457
		c0.277,0.164-1.5,2.273-1.5,1.473c0.277-0.559,1.871-31.844,1.871-34.746c-0.094-1.813-9.066-10.668-9.066-10.668L498.886,412.375z
		"/>
	<path fill="#FFFFFF" d="M507.281,410.726c0,0,6.195,8.281,6.598,9.074c0.152,0.676-3.57,34.754-3.57,34.754
		c-0.027-0.328-1.801,1.977-1.801,1.176c0.273-0.754,3.371-31.844,3.371-34.746c-0.098-2.008-7.629-9.363-7.629-9.363
		L507.281,410.726z"/>
	<path fill="#FFFFFF" d="M470.664,418.609c0,0,7.93,8.91,8.332,9.703c0.668,0.797,4.32,31.566,4.32,31.566
		c0.098-0.02-2.699-3.055-2.699-3.844c-0.203-0.676-3.723-23.637-3.723-26.539c-0.23-1.887-10.789-9.813-10.789-9.813
		L470.664,418.609z"/>
	<path fill="#FFFFFF" d="M460.085,421.3c0,0,6.523,6.836,6.922,7.625c0.578,0.625,6.719,21.766,6.719,21.766
		c-0.141-0.141-3.297-3.656-3.297-4.445c0.156-0.945-5.52-13.234-5.52-16.133c-0.324-2.063-8.695-7.59-8.695-7.59L460.085,421.3z"/>
	<path fill="#D0D0D0" d="M244.824,448.601c0,0,26.227,50.945,11.984,89.648l20.266,7.102c0,0,11.07-0.242,18.003,2.727
		c-0.004,0.273,17.82,4.102,25.035,4.867c-0.289-0.094,2.957-76.668-1.996-80.098C318.324,472.601,254.426,448.707,244.824,448.601z
		"/>
	<path fill="#DDDDDD" d="M186.457,354.722c-4.5,0.75-8.613-0.273-5.918,2.395c2.918,2.855,59.043,25.07,78.23,30.41
		c19.188,5.445,74.773,27.5,75.972,26.906c0.965-0.461,95.008,9.004,99.488,7.227c4.227-1.688-103.328-76.422-103.328-76.422
		c0.305-0.266-6.77-1-34.352,0.781c-27.593,1.953-109.742,10.078-109.742,8.895L186.457,354.722z"/>
	<path fill="#A2A2A2" d="M132.746,268.715c2.25,0,10.09,2.738,16.859,8.535c3.391,2.715,25.184,69.378,30.582,70.562
		c5.059,1.152,97.148-3.559,104.941-4.742c8.117-0.855,93.852,0.891,91.75-1.188c-1.883-1.918-65.965-51.797-69.563-53.574
		c-11.82-7.593-30.539-13.914-28.14-13.914c2.07,0.32,24.976,8.523,32.5,12.738c16.82,9.332,66.402,51.191,70.602,53.566
		c3.969,2.266,12.594,4.742,7.797,4.742c-4.578-0.227-77.359,2.371-88.754,2.371c-11.074-0.348-110.937,8.301-113.335,8.301
		c-2.738,0.352-13.195,2.375-15.594-4.742c-2.145-6.906-19.188-61.078-23.984-71.156
		C146.246,276.215,132.746,268.715,132.746,268.715z"/>
	<path fill="#EDEDED" d="M409.003,420.82l25.5,1.5c0,0,39.273-11.543,56.316-14.09c17.184-2.41,39.633-4.508,39.633-4.508
		c0.051-0.152,3.895-0.375,4.371-1.559c0.18-0.844-2.457-0.598,0-6.844c0.18,0-34.492,2.719-47.77,5.266
		c-13.551,2.234-67.32,13.914-78.051,20.379V420.82z"/>
	<path fill="#262626" d="M11.234,430.589c0.75-10.5,1.707-33,16.156-33c14.594,0,21.98,22.652,22,38.266
		c0.094,20.234-2.188,33.977-14.879,32.984c-14.277,0-22.273-23.801-23.219-38.191L11.234,430.589z"/>
	<path fill="#171716" d="M12.129,430.824c0-2.25-3.75-4.223-3.75-21.418c0-16.832,8.637-19.273,13.871-20.43
		c10.129-2.402,20.672,14.34,23.07,23.828c2.059,9.77-2.059,25.898-2.059,25.898L12.129,430.824z"/>
	
		<linearGradient id="SVGID_3_" gradientUnits="userSpaceOnUse" x1="206.7251" y1="202.9419" x2="231.5406" y2="134.7619" gradientTransform="matrix(0.75 0 0 -0.75 -133.8766 559.837)">
		<stop  offset="0" style="stop-color:#454545"/>
		<stop  offset="0" style="stop-color:#DADADA"/>
		<stop  offset="0.22" style="stop-color:#767676"/>
		<stop  offset="0.55" style="stop-color:#E7E7E7"/>
		<stop  offset="0.71" style="stop-color:#E3E3E3"/>
		<stop  offset="1" style="stop-color:#404040"/>
		<stop  offset="1" style="stop-color:#D8D8D8"/>
	</linearGradient>
	<path fill="url(#SVGID_3_)" d="M17.793,432.109c0-6.75,0.109-23.25,10.004-23.25c10.246,0,15.051,15.512,15.066,26.203
		c-0.32,13.547-3.578,21.457-10.191,22.582c-9.629-0.035-14.203-15.453-14.852-25.305L17.793,432.109z"/>
	<path fill="#7F7F7F" d="M23.613,432.988c0-3.75,0.059-12.75,5.34-12.75c5.16,0,8.031,8.277,8.035,13.98
		c0.125,7.02-1.906,11.449-5.434,12.047c-4.941,0.223-7.582-8.242-7.926-13.5L23.613,432.988z"/>
	<path fill="#AAAAAA" d="M8.535,417.425c0,0-4.016-28.789,16.691-28.578c-0.191,0.078,22.098,4.492,24.199,51.211l4.109,2.117
		c0,0,0.527-51.383-28.555-57c0.055,0-17.34-0.508-18.797,17.129c0.102,0.121-0.648,10.336-0.648,13.766L8.535,417.425z"/>
	<path fill="#171716" d="M177.813,504.265c-2.25-3-3.918-5.18-5.211-12.84c-1.539-7.41-2.902-19.867,0.148-32.363
		c2.063-10.297,8.453-18.969,19.859-22.73c9.203-3.316,21.23-2.551,30.551,3.828c10.902,7.855,16.898,16.879,22.977,33.609
		c6.676,17.746,7.746,30.633,7.434,38.617c-0.008,3.879-2.082,16.18-2.082,16.18c-0.176-0.301,7.191,13.586,6.707,12.641
		c-0.883-0.941-82.469-37.316-80.387-37.316L177.813,504.265z"/>
	<path fill="#262626" d="M179,500.425c0.75-17.25,2.875-55.5,27.176-55.5c24.574,0,36.977,38.105,37.008,64.367
		c0.316,33.883-3.676,57.164-25.027,55.488c-24.156,0.145-37.465-40.039-39.059-64.242L179,500.425z"/>
	
		<linearGradient id="SVGID_4_" gradientUnits="userSpaceOnUse" x1="209.6528" y1="204.0083" x2="251.3976" y2="89.3154" gradientTransform="matrix(0.75 0 0 -0.75 38.3632 614.8624)">
		<stop  offset="0" style="stop-color:#454545"/>
		<stop  offset="0" style="stop-color:#DADADA"/>
		<stop  offset="0.22" style="stop-color:#767676"/>
		<stop  offset="0.55" style="stop-color:#E7E7E7"/>
		<stop  offset="0.71" style="stop-color:#E3E3E3"/>
		<stop  offset="1" style="stop-color:#404040"/>
		<stop  offset="1" style="stop-color:#D8D8D8"/>
	</linearGradient>
	<path fill="url(#SVGID_4_)" d="M190.031,503.636c0.75-12,0.188-39.75,16.828-39.75c16.922,0,25.32,26.094,25.344,44.078
		c-0.172,23.422-6.016,36.094-17.141,37.984c-16.781-0.313-23.895-25.992-24.984-42.566L190.031,503.636z"/>
	<path fill="#656565" d="M199.824,504.023c0-6,0.098-21,8.98-21c9.02,0,13.508,13.926,13.523,23.52
		c-0.004,12.48-3.211,19.258-9.148,20.266c-8.855-0.285-12.75-13.867-13.332-22.711L199.824,504.023z"/>
	<path fill="#AAAAAA" d="M179.555,505.46c0,0-9.965-3.953-6.801-46.387c0.051-0.113,4.762-28.109,37.883-23.699
		c-0.332,0.336,23.035,4.043,33.625,33.25c-0.207,0.086,11.652,28.109,7.219,60.809l5.324,9.027c0,0,10.258-32.176-5.324-72.59
		c0.074-0.16-11.891-32.676-39.93-39.453c0.254,0.293-28.41-5.004-40.672,17.773c-0.324-0.23-11,17.539-2.23,54.012
		c-0.344-0.242,5.945,5.145,11.145,6.98L179.555,505.46z"/>
	<path fill="#FFFFFF" fill-opacity="0.4235" d="M151.234,278.629c-5.25-6.75-28.418-13.637-15.934-12.656
		c14.434-0.844,71.938,0.781,90.566,1.762c13.867,0.395,22.59,6.27,36.039,10.754c19.828,10.64,67.269,63.562,67.269,63.562
		c-0.191,0.328-10.441,0.234-33.723,0.777c-23.468,0.301-98.257,5.352-102.679,5.352c-4.789,0.199-11.695,0.289-13.77-1.57
		c-3.77-3.48-27.902-68.933-27.902-67.769L151.234,278.629z"/>
	<path fill="#FFFFFF" fill-opacity="0.3098" d="M107.785,281.125c5.25-2.25,18.43-2.094,21.43,0.871
		c3.32,2.878,32.98,70.562,30.582,70.562c-2.512-0.184-70.762-5.93-70.762-8.301c0-2.383,7.797-36.766,10.797-45.66
		c2.703-9.223,7.793-17.789,7.793-17.789L107.785,281.125z"/>
	<path fill="#FFFFFF" fill-opacity="0.3098" d="M99.707,281.746c-2.25,6-5.273,11.66-7.926,19.222
		c-2.574,7.027-11.195,41.266-11.195,41.266c0.371,0.262-9.594-0.352-22.387-3.117c-4.992-1.121-13.992-2.57-13.992-4.941
		c0-2.18,1.488-13.418,4.195-17.195c3.305-4.484,17.391-21.348,27.586-27.277c4.219-2.707,24-8.972,24-7.859L99.707,281.746z"/>
	<path fill="#A8A8A8" d="M320.019,552.718c0,0,29.215,5.371,34.664,4.863c5.086-1.113,72.332-7.82,78.059-10.027
		c-0.223-0.086-1.27-4.164,8.41-7.102c0.367,0.266,65.613-13.473,93.773-36.469c0.344-0.016-2.848,7.895,1.16,3.949
		c-0.066-0.215,10.078-11.816,12.82-16.715c-0.137,0-39.898,29.883-114.953,46.051c0.066-0.301-51.246,12.734-113.934,15.184
		V552.718z"/>
	<path fill="#B7B7B7" d="M136.605,323.703c8.25,2.25,7.93,11.406,9.129,11.406c1.371-0.156,2.98,0.219,2.98,0.219
		c-0.109-0.375-1.199-9.496,0-10.68c1.391-0.945,1.777-2.48,1.777-2.48l11.613,27.785c0,0-7.387,2.582-7.387,1.098
		c-0.113-1.848-5.703-10.68-7.203-9.195c-1.16,1.348-0.902,5.637-2.25,5.781c-1.16,0.066-38.926,1.41-40.352,0
		c-1.309-1.434-2.938-18.754,2.402-20.617c10.539-3.316,31.797-3.559,29.398-3.559L136.605,323.703z"/>
	<path fill="#AAAAAA" d="M148.527,334.992c0,0-1.445-9.125-0.25-10.309c1-0.941,2.215-2.48,2.215-2.48l10.785,27.789
		c0,0-7.02,2.109-7.02,0.625c0.27-1.375-4.906-6.543-5.352-9.406c-0.379-1.719-0.629-5.855-0.629-5.855L148.527,334.992z"/>
	<path fill="#D7D7D7" d="M107.008,326.535c0,0,15.938-3.352,29.715-3.039l4.785,3.039c0,0-21.266-0.219-36.793,3.605
		c0.043,0.145,1.738-3.379,2.18-3.234L107.008,326.535z"/>
	<path fill="#8D8D8D" d="M145.734,335.136l1.5,7.5l1.5-0.75v-6.75H145.734z"/>
	<path fill="#E0E0E0" d="M150.527,322.203l11.25,27.75l-2.25,0.75l-11.25-26.25L150.527,322.203z"/>
	<path fill="#545454" d="M315.093,417.375c12-5.25,47.313-2.199,57.387-1.25c10.113,1.25,46.055,4.27,53.25,9.961
		c7.863,6.289,17.75,23.719,13.914,31.785c-1.551,3.754-64.285,4.27-72.441,4.27c-7.859,0.234-48.453,4.742-50.371-0.949
		c-1.738-5.566-5.996-19.688-5.996-27.75c-0.242-7.816,5.035-17.316,4.074-16.367L315.093,417.375z"/>
	<path fill="#F9FDF9" d="M317.949,418.437c12-4.5,45.184-1.496,54.699-0.598c9.801,0.598,43.5,4.031,50.297,9.406
		c7.504,5.441,16.762,22.402,13.137,30.02c-1.883,3.172-60.715,4.031-68.418,4.031c-7.715-0.109-45.762,4.48-47.574-0.895
		c-2.141-5.215-5.664-18.594-5.664-26.211c-0.227-7.504,4.758-16.352,3.852-15.457L317.949,418.437z"/>
	<path fill="#FFFFFF" fill-opacity="0.7804" d="M319.496,418.375c11.25-2.25,43.641-1.453,53.152-0.539
		c9.848,0.539,43.5,4.035,50.293,9.41c7.555,5.379,16.766,22.402,13.141,30.02c-1.836,3.109-27.145,2.648-34.832,3.102
		c-68.254,3.758-83.035-42.043-81.754-42.266V418.375z"/>
</g>
</svg>
