<?xml version="1.0" encoding="utf-8"?>
<!-- Generator: Adobe Illustrator 16.0.0, SVG Export Plug-In . SVG Version: 6.00 Build 0)  -->
<!DOCTYPE svg PUBLIC "-//W3C//DTD SVG 1.1//EN" "http://www.w3.org/Graphics/SVG/1.1/DTD/svg11.dtd">
<svg preserveAspectRatio="none"   version="1.1" id="图层_1" xmlns="http://www.w3.org/2000/svg" xmlns:xlink="http://www.w3.org/1999/xlink" x="0px" y="0px"
	 width="565.945px" height="207.736px" viewBox="-0.137 358.398 565.945 207.736"
	 enable-background="new -0.137 358.398 565.945 207.736" xml:space="preserve">
<g id="surface491">
	
		<linearGradient id="SVGID_1_" gradientUnits="userSpaceOnUse" x1="244.2227" y1="201.3047" x2="244.2227" y2="157.3037" gradientTransform="matrix(0.75 0 0 -0.75 312.368 648.7316)">
		<stop  offset="0" style="stop-color:#292525"/>
		<stop  offset="0.01" style="stop-color:#868584"/>
		<stop  offset="0.02" style="stop-color:#383433"/>
		<stop  offset="0.64" style="stop-color:#373332"/>
		<stop  offset="0.99" style="stop-color:#363130"/>
		<stop  offset="1" style="stop-color:#252221"/>
	</linearGradient>
	<path fill="url(#SVGID_1_)" d="M464.035,497.753h63v33h-63V497.753z"/>
	
		<linearGradient id="SVGID_2_" gradientUnits="userSpaceOnUse" x1="767.2231" y1="192.8052" x2="202.2241" y2="192.8051" gradientTransform="matrix(0.75 0 0 -0.75 -130.2975 652.2579)">
		<stop  offset="0" style="stop-color:#3D3B3B"/>
		<stop  offset="0.01" style="stop-color:#908F8F"/>
		<stop  offset="0.02" style="stop-color:#514F4F"/>
		<stop  offset="0.64" style="stop-color:#504E4E"/>
		<stop  offset="0.99" style="stop-color:#4E4C4C"/>
		<stop  offset="1" style="stop-color:#383636"/>
	</linearGradient>
	<path fill="url(#SVGID_2_)" d="M21.371,501.281h423.75v12.75H21.371V501.281z"/>
	
		<linearGradient id="SVGID_3_" gradientUnits="userSpaceOnUse" x1="284.2271" y1="201.3037" x2="284.2271" y2="157.3037" gradientTransform="matrix(0.75 0 0 -0.75 -111.5485 653.6642)">
		<stop  offset="0" style="stop-color:#292525"/>
		<stop  offset="0.01" style="stop-color:#868584"/>
		<stop  offset="0.02" style="stop-color:#383433"/>
		<stop  offset="0.64" style="stop-color:#373332"/>
		<stop  offset="0.99" style="stop-color:#363130"/>
		<stop  offset="1" style="stop-color:#252221"/>
	</linearGradient>
	<path fill="url(#SVGID_3_)" d="M40.121,502.687h123v33h-123V502.687z"/>
	<path fill="#FFAF00" d="M445.058,367.742c0,0,40.863-10.699,80.461,0.195c-0.211-0.195,32.051,28.68,40.223,66.977l0.066,86.578
		c0,0-1.004,3.715-6.324,3.715l-31.926,0.035c0,0-4.691-26.023-32.465-26.48c0.215,0.23-26.227-0.109-31.355,26.578l-18.68-0.098
		V367.742z"/>
	<path fill="#FED372" d="M447.101,371.289c0,0,36.957-11.996,77.254,0.008c-0.004-0.008,30.738,27.508,38.531,64.242l-0.285,14.5
		h-115.5V371.289z"/>
	<path d="M464.007,376.335h55.5l27,46.5v14.25h-83.25L464.007,376.335z"/>
	<path fill="#E8F4ED" d="M466.57,378.769h50.25l25.5,42.75l0.75,13.5h-77.25L466.57,378.769z"/>
	<path fill="#FFAF00" d="M447.191,450.109h115.5v-3h-115.5V450.109z"/>
	<path fill="#FFAF00" d="M534.484,493.839v30.75l-6.75,0.75c0,0-4.871-26.121-32.641-26.574
		c-0.359,0.324-26.223-0.113-31.355,26.691l-2.754-0.117v-31.5H534.484z"/>
	<path fill="#FED372" d="M562.722,450.238v67.5c0,0-0.527,3.863-5.629,3.863l-26.621-0.113c0,0-4.672-25.469-35.336-26.508
		c0.086,0.258-29.242,0.715-34.164,26.434l-13.75,0.074v-71.25H562.722z"/>
	<path fill="#FFAF00" d="M445.042,521.406h19.5v3.75h-19.5V521.406z"/>
	<path fill="#FFAF00" d="M526.785,521.421c0,0,1.063,3.375,1.063,3.785l33.438-0.035c0,0,3.43-0.727,4.395-3.691L526.785,521.421z"
		/>
	
		<linearGradient id="SVGID_4_" gradientUnits="userSpaceOnUse" x1="279.2266" y1="201.3047" x2="279.2266" y2="0.96" gradientTransform="matrix(0.75 0 0 -0.75 295.8339 522.2853)">
		<stop  offset="0" style="stop-color:#FFFFFF;stop-opacity:0.149"/>
		<stop  offset="1" style="stop-color:#FFFFFF;stop-opacity:0.0235"/>
	</linearGradient>
	<path fill="url(#SVGID_4_)" d="M523.253,371.308c0,0,30.77,24.871,39.625,64.23l0.125,82.77c0,0-0.141,1.934-3.527,2.813
		l-28.723,0.188c0,0-7-25.875-34.77-26.328c0.27,0.078-29.887-0.371-35.02,26.586l-13.461-0.258v-7.5L523.253,371.308z"/>
	<path fill="#FFFFFF" fill-opacity="0.8039" d="M518.183,381.167l24.75,39.75v14.25l-53.25-0.75L518.183,381.167z"/>
	<path stroke="#000000" stroke-linejoin="bevel" stroke-miterlimit="10" d="M546.437,442.464c0-1.5,1.457-3,3.254-3
		c1.996,0,3.254,1.477,3.254,3.301c0.242,1.949-1.457,3.301-3.254,3.301c-1.754,0.148-3.254-1.477-3.254-3.301V442.464z"/>
	
		<linearGradient id="SVGID_5_" gradientUnits="userSpaceOnUse" x1="202.2261" y1="197.7725" x2="209.1953" y2="197.7725" gradientTransform="matrix(0.75 0 0 -0.75 395.4081 591.0919)">
		<stop  offset="0" style="stop-color:#AEAEAE"/>
		<stop  offset="0.41" style="stop-color:#C9C9C9"/>
		<stop  offset="1" style="stop-color:#565656"/>
	</linearGradient>
	<path fill="url(#SVGID_5_)" d="M547.078,443.113c0-1.5,1.168-3,2.613-3c1.137,0,2.613,1.188,2.613,2.652
		c0.023,1.098-1.172,2.648-2.613,2.648c-1.113-0.051-2.613-1.184-2.613-2.648V443.113z"/>
	
		<linearGradient id="SVGID_6_" gradientUnits="userSpaceOnUse" x1="202.2251" y1="191.314" x2="204.2764" y2="191.314" gradientTransform="matrix(0.75 0 0 -0.75 396.911 580.2765)">
		<stop  offset="0" style="stop-color:#767676"/>
		<stop  offset="0.36" style="stop-color:#EFEFEF"/>
		<stop  offset="0.7" style="stop-color:#C0C0C0"/>
		<stop  offset="0.91" style="stop-color:#727272"/>
	</linearGradient>
	<path fill="url(#SVGID_6_)" d="M548.582,429.296h1.5v14.25c0,0,0.246,0.738-0.508,0.738c-0.992,0.012-0.992-0.566-0.992-0.566
		V429.296z"/>
	<path d="M545.73,418.003h5.25c0,0,0.344,0.469,0.344,1.043l-0.344,14.707c0,0,0.063,0.762-0.281,0.762l-4.969-0.012
		c-0.75,0-0.758-0.461-0.758-1.035l0.008-14.715c0,0,0.27-0.75,0.613-0.75H545.73z"/>
	<path fill="#606060" d="M545.734,417.996h1.5v16.5h-1.5c-0.75,0-0.758-0.449-0.758-1.027l0.008-14.723c0,0,0.27-0.75,0.613-0.75
		H545.734z"/>
	
		<linearGradient id="SVGID_7_" gradientUnits="userSpaceOnUse" x1="280.8633" y1="203.938" x2="205.1919" y2="113.7563" gradientTransform="matrix(0.75 0 0 -0.75 -49.9323 652.922)">
		<stop  offset="0" style="stop-color:#000000"/>
		<stop  offset="0.53" style="stop-color:#4F4F4F"/>
		<stop  offset="1" style="stop-color:#000000"/>
	</linearGradient>
	<path fill="url(#SVGID_7_)" d="M101.738,533.445c0-17.25,13.512-31.5,30.523-31.5c16.727,0,30.805,14.227,30.805,31.777
		c0.172,17.723-13.789,31.777-30.805,31.777c-17.023,0.195-30.805-14.227-30.805-31.777L101.738,533.445z"/>
	<path fill="#888889" d="M112.242,533.757c0-11.25,8.902-21,20.117-21c11.383,0,20.301,9.387,20.301,20.965
		c0.082,11.285-9.09,20.965-20.301,20.965c-11.117,0.07-20.301-9.387-20.301-20.965L112.242,533.757z"/>
	
		<linearGradient id="SVGID_8_" gradientUnits="userSpaceOnUse" x1="254.8862" y1="198.4487" x2="199.578" y2="152.0396" gradientTransform="matrix(0.75 0 0 -0.75 -38.0621 665.1456)">
		<stop  offset="0" style="stop-color:#C8C8C8"/>
		<stop  offset="0.28" style="stop-color:#A9A9A9"/>
		<stop  offset="0.56" style="stop-color:#E2E2E2"/>
		<stop  offset="0.78" style="stop-color:#C9C9C9"/>
		<stop  offset="1" style="stop-color:#373737"/>
	</linearGradient>
	<path fill="url(#SVGID_8_)" d="M113.605,533.667c0-10.5,8.309-19.5,18.766-19.5c10.484,0,18.934,8.754,18.934,19.555
		c-0.199,10.445-8.477,19.555-18.934,19.555c-10.516-0.109-18.938-8.754-18.938-19.555L113.605,533.667z"/>
	<path fill="#404040" d="M123.367,533.996c0-5.25,4.023-9.75,9.094-9.75c5.156,0,9.172,4.242,9.172,9.477
		c-0.266,5.523-4.105,9.477-9.172,9.477c-5.344-0.203-9.176-4.242-9.176-9.477L123.367,533.996z"/>
	
		<linearGradient id="SVGID_9_" gradientUnits="userSpaceOnUse" x1="220.1558" y1="200.3008" x2="201.3489" y2="184.52" gradientTransform="matrix(0.75 0 0 -0.75 -25.5636 678.0529)">
		<stop  offset="0" style="stop-color:#282828"/>
		<stop  offset="0.36" style="stop-color:#B7B7B7"/>
		<stop  offset="0.57" style="stop-color:#C7C7C7"/>
		<stop  offset="0.83" style="stop-color:#B4B4B4"/>
		<stop  offset="0.9" style="stop-color:#3A3A3A"/>
	</linearGradient>
	<path fill="url(#SVGID_9_)" d="M126.105,533.824c0-3.75,2.824-6.75,6.379-6.75c3.371,0,6.438,2.977,6.438,6.648
		c-0.066,3.852-2.883,6.648-6.438,6.648c-3.379,0.203-6.438-2.977-6.438-6.648L126.105,533.824z"/>
	
		<linearGradient id="SVGID_10_" gradientUnits="userSpaceOnUse" x1="211.1333" y1="201.7422" x2="202.5148" y2="191.4711" gradientTransform="matrix(0.75 0 0 -0.75 -29.5001 668.8331)">
		<stop  offset="0" style="stop-color:#000000"/>
		<stop  offset="0.53" style="stop-color:#4F4F4F"/>
		<stop  offset="1" style="stop-color:#000000"/>
	</linearGradient>
	<path fill="url(#SVGID_10_)" d="M122.168,521.605c0-2.25,1.566-3.75,3.523-3.75c1.727,0,3.551,1.594,3.551,3.563
		c-0.324,1.688-1.59,3.563-3.551,3.563c-2.023,0.375-3.547-1.594-3.547-3.563L122.168,521.605z"/>
	
		<linearGradient id="SVGID_11_" gradientUnits="userSpaceOnUse" x1="211.1338" y1="201.7417" x2="202.5162" y2="191.4717" gradientTransform="matrix(0.75 0 0 -0.75 -23.6393 696.3888)">
		<stop  offset="0" style="stop-color:#000000"/>
		<stop  offset="0.53" style="stop-color:#4F4F4F"/>
		<stop  offset="1" style="stop-color:#000000"/>
	</linearGradient>
	<path fill="url(#SVGID_11_)" d="M128.031,549.16c0-2.25,1.563-3.75,3.523-3.75c1.727,0,3.547,1.598,3.547,3.563
		c-0.32,1.688-1.59,3.566-3.547,3.566c-2.023,0.371-3.547-1.598-3.547-3.566L128.031,549.16z"/>
	
		<linearGradient id="SVGID_12_" gradientUnits="userSpaceOnUse" x1="211.1338" y1="201.7417" x2="202.5153" y2="191.4706" gradientTransform="matrix(0.75 0 0 -0.75 -36.6622 684.8878)">
		<stop  offset="0" style="stop-color:#000000"/>
		<stop  offset="0.53" style="stop-color:#4F4F4F"/>
		<stop  offset="1" style="stop-color:#000000"/>
	</linearGradient>
	<path fill="url(#SVGID_12_)" d="M115.008,537.66c0-2.25,1.563-3.75,3.523-3.75c1.727,0,3.547,1.594,3.547,3.563
		c-0.32,1.688-1.59,3.563-3.547,3.563c-2.023,0.375-3.547-1.594-3.547-3.563L115.008,537.66z"/>
	
		<linearGradient id="SVGID_13_" gradientUnits="userSpaceOnUse" x1="211.1343" y1="201.7417" x2="202.5158" y2="191.4706" gradientTransform="matrix(0.75 0 0 -0.75 -12.0948 671.5939)">
		<stop  offset="0" style="stop-color:#000000"/>
		<stop  offset="0.53" style="stop-color:#4F4F4F"/>
		<stop  offset="1" style="stop-color:#000000"/>
	</linearGradient>
	<path fill="url(#SVGID_13_)" d="M139.574,524.367c0-2.25,1.563-3.75,3.523-3.75c1.727,0,3.547,1.594,3.547,3.563
		c-0.32,1.688-1.586,3.563-3.547,3.563c-2.023,0.375-3.547-1.594-3.547-3.563L139.574,524.367z"/>
	
		<linearGradient id="SVGID_14_" gradientUnits="userSpaceOnUse" x1="211.1333" y1="201.7422" x2="202.5148" y2="191.4711" gradientTransform="matrix(0.75 0 0 -0.75 -9.9508 687.7159)">
		<stop  offset="0" style="stop-color:#000000"/>
		<stop  offset="0.53" style="stop-color:#4F4F4F"/>
		<stop  offset="1" style="stop-color:#000000"/>
	</linearGradient>
	<path fill="url(#SVGID_14_)" d="M141.719,540.488c0-2.25,1.563-3.75,3.523-3.75c1.727,0,3.547,1.594,3.547,3.563
		c-0.32,1.688-1.59,3.563-3.547,3.563c-2.023,0.375-3.547-1.594-3.547-3.563L141.719,540.488z"/>
	
		<linearGradient id="SVGID_15_" gradientUnits="userSpaceOnUse" x1="280.8628" y1="203.938" x2="205.1923" y2="113.7574" gradientTransform="matrix(0.75 0 0 -0.75 -111.319 653.5519)">
		<stop  offset="0" style="stop-color:#000000"/>
		<stop  offset="0.53" style="stop-color:#4F4F4F"/>
		<stop  offset="1" style="stop-color:#000000"/>
	</linearGradient>
	<path fill="url(#SVGID_15_)" d="M40.352,534.074c0-17.25,13.512-31.5,30.523-31.5c16.727,0,30.805,14.227,30.805,31.777
		c0.172,17.723-13.789,31.781-30.805,31.781c-17.023,0.191-30.805-14.23-30.805-31.781L40.352,534.074z"/>
	<path fill="#888889" d="M50.855,534.39c0-11.25,8.902-21,20.117-21c11.383,0,20.301,9.383,20.301,20.961
		c0.082,11.289-9.09,20.965-20.301,20.965c-11.117,0.074-20.301-9.387-20.301-20.965L50.855,534.39z"/>
	
		<linearGradient id="SVGID_16_" gradientUnits="userSpaceOnUse" x1="254.8862" y1="198.4512" x2="199.578" y2="152.0421" gradientTransform="matrix(0.75 0 0 -0.75 -99.4489 665.7765)">
		<stop  offset="0" style="stop-color:#C8C8C8"/>
		<stop  offset="0.28" style="stop-color:#A9A9A9"/>
		<stop  offset="0.56" style="stop-color:#E2E2E2"/>
		<stop  offset="0.78" style="stop-color:#C9C9C9"/>
		<stop  offset="1" style="stop-color:#373737"/>
	</linearGradient>
	<path fill="url(#SVGID_16_)" d="M52.219,534.296c0-10.5,8.309-19.5,18.766-19.5c10.484,0,18.934,8.758,18.934,19.555
		c-0.199,10.445-8.477,19.555-18.934,19.555c-10.516-0.109-18.938-8.754-18.938-19.555L52.219,534.296z"/>
	<path fill="#404040" d="M61.98,534.628c0-5.25,4.023-9.75,9.094-9.75c5.156,0,9.172,4.242,9.172,9.473
		c-0.266,5.527-4.105,9.477-9.172,9.477c-5.344-0.199-9.176-4.242-9.176-9.477L61.98,534.628z"/>
	
		<linearGradient id="SVGID_17_" gradientUnits="userSpaceOnUse" x1="220.1563" y1="200.3003" x2="201.3494" y2="184.5195" gradientTransform="matrix(0.75 0 0 -0.75 -86.9498 678.6837)">
		<stop  offset="0" style="stop-color:#282828"/>
		<stop  offset="0.36" style="stop-color:#B7B7B7"/>
		<stop  offset="0.57" style="stop-color:#C7C7C7"/>
		<stop  offset="0.83" style="stop-color:#B4B4B4"/>
		<stop  offset="0.9" style="stop-color:#3A3A3A"/>
	</linearGradient>
	<path fill="url(#SVGID_17_)" d="M64.719,534.457c0-3.75,2.824-6.75,6.379-6.75c3.371,0,6.438,2.977,6.438,6.645
		c-0.066,3.855-2.883,6.648-6.438,6.648c-3.379,0.207-6.438-2.977-6.438-6.648L64.719,534.457z"/>
	
		<linearGradient id="SVGID_18_" gradientUnits="userSpaceOnUse" x1="211.1318" y1="201.7427" x2="202.5143" y2="191.4726" gradientTransform="matrix(0.75 0 0 -0.75 -90.8864 669.463)">
		<stop  offset="0" style="stop-color:#000000"/>
		<stop  offset="0.53" style="stop-color:#4F4F4F"/>
		<stop  offset="1" style="stop-color:#000000"/>
	</linearGradient>
	<path fill="url(#SVGID_18_)" d="M60.781,522.234c0-2.25,1.566-3.75,3.523-3.75c1.727,0,3.551,1.598,3.551,3.563
		c-0.324,1.688-1.59,3.566-3.551,3.566c-2.023,0.371-3.547-1.598-3.547-3.566L60.781,522.234z"/>
	
		<linearGradient id="SVGID_19_" gradientUnits="userSpaceOnUse" x1="211.1353" y1="201.7407" x2="202.5177" y2="191.4707" gradientTransform="matrix(0.75 0 0 -0.75 -85.026 697.0187)">
		<stop  offset="0" style="stop-color:#000000"/>
		<stop  offset="0.53" style="stop-color:#4F4F4F"/>
		<stop  offset="1" style="stop-color:#000000"/>
	</linearGradient>
	<path fill="url(#SVGID_19_)" d="M66.645,549.792c0-2.25,1.563-3.75,3.523-3.75c1.727,0,3.547,1.594,3.547,3.563
		c-0.32,1.688-1.59,3.563-3.547,3.563c-2.023,0.375-3.547-1.594-3.547-3.563L66.645,549.792z"/>
	
		<linearGradient id="SVGID_20_" gradientUnits="userSpaceOnUse" x1="211.1343" y1="201.7417" x2="202.5167" y2="191.4717" gradientTransform="matrix(0.75 0 0 -0.75 -98.049 685.5177)">
		<stop  offset="0" style="stop-color:#000000"/>
		<stop  offset="0.53" style="stop-color:#4F4F4F"/>
		<stop  offset="1" style="stop-color:#000000"/>
	</linearGradient>
	<path fill="url(#SVGID_20_)" d="M53.621,538.289c0-2.25,1.563-3.75,3.523-3.75c1.727,0,3.547,1.598,3.547,3.566
		c-0.32,1.684-1.59,3.563-3.547,3.563c-2.023,0.371-3.547-1.598-3.547-3.563L53.621,538.289z"/>
	
		<linearGradient id="SVGID_21_" gradientUnits="userSpaceOnUse" x1="211.1333" y1="201.7422" x2="202.5148" y2="191.4711" gradientTransform="matrix(0.75 0 0 -0.75 -73.4816 672.2238)">
		<stop  offset="0" style="stop-color:#000000"/>
		<stop  offset="0.53" style="stop-color:#4F4F4F"/>
		<stop  offset="1" style="stop-color:#000000"/>
	</linearGradient>
	<path fill="url(#SVGID_21_)" d="M78.188,524.996c0-2.25,1.566-3.75,3.523-3.75c1.727,0,3.547,1.594,3.547,3.563
		c-0.32,1.688-1.586,3.563-3.547,3.563c-2.023,0.375-3.547-1.594-3.547-3.563L78.188,524.996z"/>
	
		<linearGradient id="SVGID_22_" gradientUnits="userSpaceOnUse" x1="211.1328" y1="201.7417" x2="202.5161" y2="191.4727" gradientTransform="matrix(0.75 0 0 -0.75 -71.3375 688.3458)">
		<stop  offset="0" style="stop-color:#000000"/>
		<stop  offset="0.53" style="stop-color:#4F4F4F"/>
		<stop  offset="1" style="stop-color:#000000"/>
	</linearGradient>
	<path fill="url(#SVGID_22_)" d="M80.332,541.117c0-2.25,1.563-3.75,3.523-3.75c1.727,0,3.547,1.598,3.547,3.563
		c-0.32,1.688-1.586,3.566-3.547,3.566c-2.023,0.371-3.547-1.598-3.547-3.566L80.332,541.117z"/>
	
		<linearGradient id="SVGID_23_" gradientUnits="userSpaceOnUse" x1="284.2241" y1="201.3037" x2="284.2241" y2="157.3037" gradientTransform="matrix(0.75 0 0 -0.75 153.6757 653.6642)">
		<stop  offset="0" style="stop-color:#292525"/>
		<stop  offset="0.01" style="stop-color:#868584"/>
		<stop  offset="0.02" style="stop-color:#383433"/>
		<stop  offset="0.64" style="stop-color:#373332"/>
		<stop  offset="0.99" style="stop-color:#363130"/>
		<stop  offset="1" style="stop-color:#252221"/>
	</linearGradient>
	<path fill="url(#SVGID_23_)" d="M305.343,502.687h123v33h-123V502.687z"/>
	
		<linearGradient id="SVGID_24_" gradientUnits="userSpaceOnUse" x1="280.8608" y1="203.9395" x2="205.1894" y2="113.7578" gradientTransform="matrix(0.75 0 0 -0.75 214.6981 652.922)">
		<stop  offset="0" style="stop-color:#000000"/>
		<stop  offset="0.53" style="stop-color:#4F4F4F"/>
		<stop  offset="1" style="stop-color:#000000"/>
	</linearGradient>
	<path fill="url(#SVGID_24_)" d="M366.367,533.445c0-17.25,13.512-31.5,30.523-31.5c16.727,0,30.809,14.227,30.809,31.777
		c0.168,17.723-13.793,31.777-30.809,31.777c-17.023,0.195-30.805-14.227-30.805-31.777L366.367,533.445z"/>
	<path fill="#888889" d="M376.871,533.757c0-11.25,8.906-21,20.117-21c11.383,0,20.301,9.387,20.301,20.965
		c0.082,11.285-9.09,20.965-20.301,20.965c-11.117,0.07-20.301-9.387-20.301-20.965L376.871,533.757z"/>
	
		<linearGradient id="SVGID_25_" gradientUnits="userSpaceOnUse" x1="254.8857" y1="198.4497" x2="199.5764" y2="152.0397" gradientTransform="matrix(0.75 0 0 -0.75 226.5682 665.1456)">
		<stop  offset="0" style="stop-color:#C8C8C8"/>
		<stop  offset="0.28" style="stop-color:#A9A9A9"/>
		<stop  offset="0.56" style="stop-color:#E2E2E2"/>
		<stop  offset="0.78" style="stop-color:#C9C9C9"/>
		<stop  offset="1" style="stop-color:#373737"/>
	</linearGradient>
	<path fill="url(#SVGID_25_)" d="M378.238,533.667c0-10.5,8.305-19.5,18.762-19.5c10.488,0,18.938,8.754,18.938,19.555
		c-0.199,10.445-8.48,19.555-18.938,19.555c-10.512-0.109-18.934-8.754-18.934-19.555L378.238,533.667z"/>
	<path fill="#404040" d="M387.996,533.996c0-5.25,4.027-9.75,9.094-9.75c5.156,0,9.176,4.242,9.176,9.477
		c-0.27,5.523-4.109,9.477-9.176,9.477c-5.344-0.203-9.176-4.242-9.176-9.477L387.996,533.996z"/>
	
		<linearGradient id="SVGID_26_" gradientUnits="userSpaceOnUse" x1="220.1543" y1="200.3008" x2="201.3485" y2="184.5208" gradientTransform="matrix(0.75 0 0 -0.75 239.0673 678.0529)">
		<stop  offset="0" style="stop-color:#282828"/>
		<stop  offset="0.36" style="stop-color:#B7B7B7"/>
		<stop  offset="0.57" style="stop-color:#C7C7C7"/>
		<stop  offset="0.83" style="stop-color:#B4B4B4"/>
		<stop  offset="0.9" style="stop-color:#3A3A3A"/>
	</linearGradient>
	<path fill="url(#SVGID_26_)" d="M390.734,533.824c0-3.75,2.824-6.75,6.379-6.75c3.371,0,6.438,2.977,6.438,6.648
		c-0.066,3.852-2.883,6.648-6.438,6.648c-3.379,0.203-6.438-2.977-6.438-6.648L390.734,533.824z"/>
	
		<linearGradient id="SVGID_27_" gradientUnits="userSpaceOnUse" x1="211.1328" y1="201.7417" x2="202.5152" y2="191.4717" gradientTransform="matrix(0.75 0 0 -0.75 235.1307 668.8331)">
		<stop  offset="0" style="stop-color:#000000"/>
		<stop  offset="0.53" style="stop-color:#4F4F4F"/>
		<stop  offset="1" style="stop-color:#000000"/>
	</linearGradient>
	<path fill="url(#SVGID_27_)" d="M386.8,521.605c0-2.25,1.563-3.75,3.523-3.75c1.727,0,3.547,1.594,3.547,3.563
		c-0.32,1.688-1.59,3.563-3.547,3.563c-2.023,0.375-3.547-1.594-3.547-3.563L386.8,521.605z"/>
	
		<linearGradient id="SVGID_28_" gradientUnits="userSpaceOnUse" x1="211.1318" y1="201.7427" x2="202.5143" y2="191.4726" gradientTransform="matrix(0.75 0 0 -0.75 240.9911 696.3888)">
		<stop  offset="0" style="stop-color:#000000"/>
		<stop  offset="0.53" style="stop-color:#4F4F4F"/>
		<stop  offset="1" style="stop-color:#000000"/>
	</linearGradient>
	<path fill="url(#SVGID_28_)" d="M392.66,549.16c0-2.25,1.566-3.75,3.523-3.75c1.727,0,3.547,1.598,3.547,3.563
		c-0.32,1.688-1.586,3.566-3.547,3.566c-2.023,0.371-3.547-1.598-3.547-3.566L392.66,549.16z"/>
	
		<linearGradient id="SVGID_29_" gradientUnits="userSpaceOnUse" x1="211.1328" y1="201.7417" x2="202.5152" y2="191.4717" gradientTransform="matrix(0.75 0 0 -0.75 227.9677 684.8878)">
		<stop  offset="0" style="stop-color:#000000"/>
		<stop  offset="0.53" style="stop-color:#4F4F4F"/>
		<stop  offset="1" style="stop-color:#000000"/>
	</linearGradient>
	<path fill="url(#SVGID_29_)" d="M379.636,537.66c0-2.25,1.566-3.75,3.523-3.75c1.727,0,3.547,1.594,3.547,3.563
		c-0.32,1.688-1.586,3.563-3.547,3.563c-2.023,0.375-3.547-1.594-3.547-3.563L379.636,537.66z"/>
	
		<linearGradient id="SVGID_30_" gradientUnits="userSpaceOnUse" x1="211.1328" y1="201.7417" x2="202.5161" y2="191.4727" gradientTransform="matrix(0.75 0 0 -0.75 252.535 671.5939)">
		<stop  offset="0" style="stop-color:#000000"/>
		<stop  offset="0.53" style="stop-color:#4F4F4F"/>
		<stop  offset="1" style="stop-color:#000000"/>
	</linearGradient>
	<path fill="url(#SVGID_30_)" d="M404.203,524.367c0-2.25,1.566-3.75,3.523-3.75c1.727,0,3.551,1.594,3.551,3.563
		c-0.324,1.688-1.59,3.563-3.551,3.563c-2.023,0.375-3.547-1.594-3.547-3.563L404.203,524.367z"/>
	
		<linearGradient id="SVGID_31_" gradientUnits="userSpaceOnUse" x1="211.1323" y1="201.7422" x2="202.5147" y2="191.4722" gradientTransform="matrix(0.75 0 0 -0.75 254.6796 687.7159)">
		<stop  offset="0" style="stop-color:#000000"/>
		<stop  offset="0.53" style="stop-color:#4F4F4F"/>
		<stop  offset="1" style="stop-color:#000000"/>
	</linearGradient>
	<path fill="url(#SVGID_31_)" d="M406.347,540.488c0-2.25,1.566-3.75,3.523-3.75c1.727,0,3.547,1.594,3.547,3.563
		c-0.32,1.688-1.586,3.563-3.547,3.563c-2.023,0.375-3.547-1.594-3.547-3.563L406.347,540.488z"/>
	
		<linearGradient id="SVGID_32_" gradientUnits="userSpaceOnUse" x1="280.8613" y1="203.939" x2="205.1899" y2="113.7573" gradientTransform="matrix(0.75 0 0 -0.75 153.3114 652.922)">
		<stop  offset="0" style="stop-color:#000000"/>
		<stop  offset="0.53" style="stop-color:#4F4F4F"/>
		<stop  offset="1" style="stop-color:#000000"/>
	</linearGradient>
	<path fill="url(#SVGID_32_)" d="M304.98,533.445c0-17.25,13.512-31.5,30.527-31.5c16.723,0,30.805,14.227,30.805,31.777
		c0.168,17.723-13.793,31.777-30.805,31.777c-17.027,0.195-30.809-14.227-30.809-31.777L304.98,533.445z"/>
	<path fill="#888889" d="M315.484,533.757c0-11.25,8.906-21,20.117-21c11.383,0,20.301,9.387,20.301,20.965
		c0.082,11.285-9.09,20.965-20.301,20.965c-11.117,0.07-20.301-9.387-20.301-20.965L315.484,533.757z"/>
	
		<linearGradient id="SVGID_33_" gradientUnits="userSpaceOnUse" x1="254.8853" y1="198.4502" x2="199.577" y2="152.0411" gradientTransform="matrix(0.75 0 0 -0.75 165.1815 665.1456)">
		<stop  offset="0" style="stop-color:#C8C8C8"/>
		<stop  offset="0.28" style="stop-color:#A9A9A9"/>
		<stop  offset="0.56" style="stop-color:#E2E2E2"/>
		<stop  offset="0.78" style="stop-color:#C9C9C9"/>
		<stop  offset="1" style="stop-color:#373737"/>
	</linearGradient>
	<path fill="url(#SVGID_33_)" d="M316.851,533.667c0-10.5,8.305-19.5,18.762-19.5c10.488,0,18.938,8.754,18.938,19.555
		c-0.199,10.445-8.48,19.555-18.938,19.555c-10.512-0.109-18.934-8.754-18.934-19.555L316.851,533.667z"/>
	<path fill="#404040" d="M326.609,533.996c0-5.25,4.027-9.75,9.094-9.75c5.156,0,9.176,4.242,9.176,9.477
		c-0.27,5.523-4.109,9.477-9.176,9.477c-5.344-0.203-9.176-4.242-9.176-9.477L326.609,533.996z"/>
	
		<linearGradient id="SVGID_34_" gradientUnits="userSpaceOnUse" x1="220.1553" y1="200.3013" x2="201.3484" y2="184.5204" gradientTransform="matrix(0.75 0 0 -0.75 177.6805 678.0529)">
		<stop  offset="0" style="stop-color:#282828"/>
		<stop  offset="0.36" style="stop-color:#B7B7B7"/>
		<stop  offset="0.57" style="stop-color:#C7C7C7"/>
		<stop  offset="0.83" style="stop-color:#B4B4B4"/>
		<stop  offset="0.9" style="stop-color:#3A3A3A"/>
	</linearGradient>
	<path fill="url(#SVGID_34_)" d="M329.347,533.824c0-3.75,2.824-6.75,6.379-6.75c3.371,0,6.438,2.977,6.438,6.648
		c-0.066,3.852-2.883,6.648-6.438,6.648c-3.379,0.203-6.438-2.977-6.438-6.648L329.347,533.824z"/>
	
		<linearGradient id="SVGID_35_" gradientUnits="userSpaceOnUse" x1="211.1318" y1="201.7427" x2="202.5143" y2="191.4726" gradientTransform="matrix(0.75 0 0 -0.75 173.744 668.8331)">
		<stop  offset="0" style="stop-color:#000000"/>
		<stop  offset="0.53" style="stop-color:#4F4F4F"/>
		<stop  offset="1" style="stop-color:#000000"/>
	</linearGradient>
	<path fill="url(#SVGID_35_)" d="M325.414,521.605c0-2.25,1.563-3.75,3.523-3.75c1.727,0,3.547,1.594,3.547,3.563
		c-0.32,1.688-1.59,3.563-3.547,3.563c-2.023,0.375-3.547-1.594-3.547-3.563L325.414,521.605z"/>
	
		<linearGradient id="SVGID_36_" gradientUnits="userSpaceOnUse" x1="211.1318" y1="201.7427" x2="202.5143" y2="191.4726" gradientTransform="matrix(0.75 0 0 -0.75 179.6044 696.3888)">
		<stop  offset="0" style="stop-color:#000000"/>
		<stop  offset="0.53" style="stop-color:#4F4F4F"/>
		<stop  offset="1" style="stop-color:#000000"/>
	</linearGradient>
	<path fill="url(#SVGID_36_)" d="M331.273,549.16c0-2.25,1.566-3.75,3.523-3.75c1.727,0,3.547,1.598,3.547,3.563
		c-0.32,1.688-1.586,3.566-3.547,3.566c-2.023,0.371-3.547-1.598-3.547-3.566L331.273,549.16z"/>
	
		<linearGradient id="SVGID_37_" gradientUnits="userSpaceOnUse" x1="211.1333" y1="201.7422" x2="202.5148" y2="191.4711" gradientTransform="matrix(0.75 0 0 -0.75 166.5819 684.8878)">
		<stop  offset="0" style="stop-color:#000000"/>
		<stop  offset="0.53" style="stop-color:#4F4F4F"/>
		<stop  offset="1" style="stop-color:#000000"/>
	</linearGradient>
	<path fill="url(#SVGID_37_)" d="M318.25,537.66c0-2.25,1.566-3.75,3.523-3.75c1.727,0,3.547,1.594,3.547,3.563
		c-0.32,1.688-1.586,3.563-3.547,3.563c-2.023,0.375-3.547-1.594-3.547-3.563L318.25,537.66z"/>
	
		<linearGradient id="SVGID_38_" gradientUnits="userSpaceOnUse" x1="211.1318" y1="201.7427" x2="202.5151" y2="191.4737" gradientTransform="matrix(0.75 0 0 -0.75 191.1483 671.5939)">
		<stop  offset="0" style="stop-color:#000000"/>
		<stop  offset="0.53" style="stop-color:#4F4F4F"/>
		<stop  offset="1" style="stop-color:#000000"/>
	</linearGradient>
	<path fill="url(#SVGID_38_)" d="M342.816,524.367c0-2.25,1.566-3.75,3.523-3.75c1.727,0,3.551,1.594,3.551,3.563
		c-0.324,1.688-1.59,3.563-3.551,3.563c-2.023,0.375-3.547-1.594-3.547-3.563L342.816,524.367z"/>
	
		<linearGradient id="SVGID_39_" gradientUnits="userSpaceOnUse" x1="211.1323" y1="201.7432" x2="202.5139" y2="191.4721" gradientTransform="matrix(0.75 0 0 -0.75 193.2928 687.7159)">
		<stop  offset="0" style="stop-color:#000000"/>
		<stop  offset="0.53" style="stop-color:#4F4F4F"/>
		<stop  offset="1" style="stop-color:#000000"/>
	</linearGradient>
	<path fill="url(#SVGID_39_)" d="M344.96,540.488c0-2.25,1.566-3.75,3.523-3.75c1.727,0,3.547,1.594,3.547,3.563
		c-0.32,1.688-1.586,3.563-3.547,3.563c-2.023,0.375-3.547-1.594-3.547-3.563L344.96,540.488z"/>
	
		<linearGradient id="SVGID_40_" gradientUnits="userSpaceOnUse" x1="487.2231" y1="201.3037" x2="487.2231" y2="193.3037" gradientTransform="matrix(0.75 0 0 -0.75 -133.589 647.5988)">
		<stop  offset="0" style="stop-color:#B5B5B5"/>
		<stop  offset="0.01" style="stop-color:#FFFFFF"/>
		<stop  offset="0.02" style="stop-color:#EBEBEB"/>
		<stop  offset="0.64" style="stop-color:#E7E7E7"/>
		<stop  offset="0.99" style="stop-color:#E2E2E2"/>
		<stop  offset="1" style="stop-color:#A8A8A8"/>
	</linearGradient>
	<path fill="url(#SVGID_40_)" d="M445.578,502.621h-424.5c0,0-3-0.996-3-3.891v-2.109h427.5V502.621z"/>
	
		<linearGradient id="SVGID_41_" gradientUnits="userSpaceOnUse" x1="280.8613" y1="203.9399" x2="205.1879" y2="113.7558" gradientTransform="matrix(0.75 0 0 -0.75 313.7245 652.92)">
		<stop  offset="0" style="stop-color:#000000"/>
		<stop  offset="0.53" style="stop-color:#4F4F4F"/>
		<stop  offset="1" style="stop-color:#000000"/>
	</linearGradient>
	<path fill="url(#SVGID_41_)" d="M465.394,533.441c0-17.25,13.512-31.5,30.523-31.5c16.727,0,30.805,14.23,30.805,31.781
		c0.172,17.719-13.789,31.777-30.805,31.777c-17.023,0.191-30.805-14.227-30.805-31.777L465.394,533.441z"/>
	<path fill="#888889" d="M475.898,533.757c0-11.25,8.902-21,20.117-21c11.383,0,20.301,9.387,20.301,20.965
		c0.082,11.285-9.09,20.961-20.301,20.961c-11.117,0.074-20.301-9.383-20.301-20.961L475.898,533.757z"/>
	
		<linearGradient id="SVGID_42_" gradientUnits="userSpaceOnUse" x1="254.8872" y1="198.4502" x2="199.5767" y2="152.0392" gradientTransform="matrix(0.75 0 0 -0.75 325.5946 665.1447)">
		<stop  offset="0" style="stop-color:#C8C8C8"/>
		<stop  offset="0.28" style="stop-color:#A9A9A9"/>
		<stop  offset="0.56" style="stop-color:#E2E2E2"/>
		<stop  offset="0.78" style="stop-color:#C9C9C9"/>
		<stop  offset="1" style="stop-color:#373737"/>
	</linearGradient>
	<path fill="url(#SVGID_42_)" d="M477.261,533.667c0-10.5,8.309-19.5,18.766-19.5c10.484,0,18.934,8.754,18.934,19.555
		c-0.199,10.445-8.477,19.555-18.934,19.555c-10.516-0.109-18.938-8.758-18.938-19.555L477.261,533.667z"/>
	<path fill="#404040" d="M487.023,533.996c0-5.25,4.023-9.75,9.094-9.75c5.156,0,9.172,4.242,9.172,9.477
		c-0.266,5.523-4.105,9.473-9.172,9.473c-5.344-0.199-9.176-4.242-9.176-9.473L487.023,533.996z"/>
	
		<linearGradient id="SVGID_43_" gradientUnits="userSpaceOnUse" x1="220.1558" y1="200.3008" x2="201.3478" y2="184.519" gradientTransform="matrix(0.75 0 0 -0.75 338.0927 678.0519)">
		<stop  offset="0" style="stop-color:#282828"/>
		<stop  offset="0.36" style="stop-color:#B7B7B7"/>
		<stop  offset="0.57" style="stop-color:#C7C7C7"/>
		<stop  offset="0.83" style="stop-color:#B4B4B4"/>
		<stop  offset="0.9" style="stop-color:#3A3A3A"/>
	</linearGradient>
	<path fill="url(#SVGID_43_)" d="M489.761,533.824c0-3.75,2.824-6.75,6.379-6.75c3.371,0,6.438,2.977,6.438,6.648
		c-0.066,3.852-2.883,6.645-6.438,6.645c-3.379,0.207-6.438-2.977-6.438-6.645L489.761,533.824z"/>
	
		<linearGradient id="SVGID_44_" gradientUnits="userSpaceOnUse" x1="211.1333" y1="201.7417" x2="202.5157" y2="191.4716" gradientTransform="matrix(0.75 0 0 -0.75 334.1561 668.8312)">
		<stop  offset="0" style="stop-color:#000000"/>
		<stop  offset="0.53" style="stop-color:#4F4F4F"/>
		<stop  offset="1" style="stop-color:#000000"/>
	</linearGradient>
	<path fill="url(#SVGID_44_)" d="M485.824,521.605c0-2.25,1.566-3.75,3.523-3.75c1.727,0,3.551,1.594,3.551,3.563
		c-0.324,1.688-1.59,3.563-3.551,3.563c-2.023,0.375-3.547-1.594-3.547-3.563L485.824,521.605z"/>
	
		<linearGradient id="SVGID_45_" gradientUnits="userSpaceOnUse" x1="211.1323" y1="201.7422" x2="202.5147" y2="191.4721" gradientTransform="matrix(0.75 0 0 -0.75 340.0175 696.3868)">
		<stop  offset="0" style="stop-color:#000000"/>
		<stop  offset="0.53" style="stop-color:#4F4F4F"/>
		<stop  offset="1" style="stop-color:#000000"/>
	</linearGradient>
	<path fill="url(#SVGID_45_)" d="M491.687,549.16c0-2.25,1.563-3.75,3.523-3.75c1.727,0,3.547,1.594,3.547,3.563
		c-0.32,1.688-1.59,3.563-3.547,3.563c-2.023,0.375-3.547-1.594-3.547-3.563L491.687,549.16z"/>
	
		<linearGradient id="SVGID_46_" gradientUnits="userSpaceOnUse" x1="211.1338" y1="201.7417" x2="202.5153" y2="191.4706" gradientTransform="matrix(0.75 0 0 -0.75 326.994 684.8859)">
		<stop  offset="0" style="stop-color:#000000"/>
		<stop  offset="0.53" style="stop-color:#4F4F4F"/>
		<stop  offset="1" style="stop-color:#000000"/>
	</linearGradient>
	<path fill="url(#SVGID_46_)" d="M478.664,537.66c0-2.25,1.563-3.75,3.523-3.75c1.727,0,3.547,1.594,3.547,3.563
		c-0.32,1.688-1.59,3.563-3.547,3.563c-2.023,0.375-3.547-1.594-3.547-3.563L478.664,537.66z"/>
	
		<linearGradient id="SVGID_47_" gradientUnits="userSpaceOnUse" x1="211.1333" y1="201.7422" x2="202.5148" y2="191.4711" gradientTransform="matrix(0.75 0 0 -0.75 351.5614 671.5919)">
		<stop  offset="0" style="stop-color:#000000"/>
		<stop  offset="0.53" style="stop-color:#4F4F4F"/>
		<stop  offset="1" style="stop-color:#000000"/>
	</linearGradient>
	<path fill="url(#SVGID_47_)" d="M503.23,524.363c0-2.25,1.566-3.75,3.523-3.75c1.727,0,3.547,1.598,3.547,3.563
		c-0.32,1.688-1.586,3.566-3.547,3.566c-2.023,0.371-3.547-1.598-3.547-3.566L503.23,524.363z"/>
	
		<linearGradient id="SVGID_48_" gradientUnits="userSpaceOnUse" x1="211.1323" y1="201.7422" x2="202.5147" y2="191.4721" gradientTransform="matrix(0.75 0 0 -0.75 353.7059 687.714)">
		<stop  offset="0" style="stop-color:#000000"/>
		<stop  offset="0.53" style="stop-color:#4F4F4F"/>
		<stop  offset="1" style="stop-color:#000000"/>
	</linearGradient>
	<path fill="url(#SVGID_48_)" d="M505.375,540.488c0-2.25,1.563-3.75,3.523-3.75c1.727,0,3.547,1.594,3.547,3.563
		c-0.32,1.688-1.586,3.563-3.547,3.563c-2.023,0.375-3.547-1.594-3.547-3.563L505.375,540.488z"/>
	
		<linearGradient id="SVGID_49_" gradientUnits="userSpaceOnUse" x1="484.7241" y1="201.3018" x2="484.7241" y2="29.3018" gradientTransform="matrix(0.75 0 0 -0.75 -140.3092 517.7062)">
		<stop  offset="0" style="stop-color:#C4C4C4"/>
		<stop  offset="0.15" style="stop-color:#FFFFFF"/>
		<stop  offset="0.25" style="stop-color:#FFFFFF"/>
		<stop  offset="0.44" style="stop-color:#DFDFDF"/>
		<stop  offset="0.6" style="stop-color:#C7C7C7"/>
		<stop  offset="0.8" style="stop-color:#A8A8A8"/>
		<stop  offset="1" style="stop-color:#999999"/>
	</linearGradient>
	<path fill="url(#SVGID_49_)" d="M11.359,366.73h423.75v129H11.359V366.73z"/>
	
		<linearGradient id="SVGID_50_" gradientUnits="userSpaceOnUse" x1="210.2261" y1="201.3037" x2="210.2261" y2="29.3037" gradientTransform="matrix(0.75 0 0 -0.75 -151.8063 517.6798)">
		<stop  offset="0" style="stop-color:#C4C4C4"/>
		<stop  offset="0.15" style="stop-color:#FFFFFF"/>
		<stop  offset="0.25" style="stop-color:#FFFFFF"/>
		<stop  offset="0.44" style="stop-color:#DFDFDF"/>
		<stop  offset="0.6" style="stop-color:#C7C7C7"/>
		<stop  offset="0.8" style="stop-color:#A8A8A8"/>
		<stop  offset="1" style="stop-color:#999999"/>
	</linearGradient>
	<path fill="url(#SVGID_50_)" d="M11.863,366.703v129c0,0-12.023-0.281-12-64.406c0-63.844,11.625-64.594,11.625-64.594H11.863z"/>
	
		<linearGradient id="SVGID_51_" gradientUnits="userSpaceOnUse" x1="173.7056" y1="201.3037" x2="173.7056" y2="29.3037" gradientTransform="matrix(-0.75 0 0 -0.75 570.5323 517.6798)">
		<stop  offset="0" style="stop-color:#C4C4C4"/>
		<stop  offset="0.15" style="stop-color:#FFFFFF"/>
		<stop  offset="0.25" style="stop-color:#FFFFFF"/>
		<stop  offset="0.44" style="stop-color:#DFDFDF"/>
		<stop  offset="0.6" style="stop-color:#C7C7C7"/>
		<stop  offset="0.8" style="stop-color:#A8A8A8"/>
		<stop  offset="1" style="stop-color:#999999"/>
	</linearGradient>
	<path fill="url(#SVGID_51_)" d="M434.253,366.703v129c0,0,12.023-0.281,12-64.406c0-63.844-11.625-64.594-11.625-64.594H434.253z"
		/>
	<path fill="#B4B5B5" d="M11.359,358.398h423.75v9.75H11.359V358.398z"/>
	
		<linearGradient id="SVGID_52_" gradientUnits="userSpaceOnUse" x1="213.2231" y1="118.8018" x2="202.2231" y2="118.8018" gradientTransform="matrix(0.75 0 0 -0.75 285.7069 524.1085)">
		<stop  offset="0" style="stop-color:#B5B5B5"/>
		<stop  offset="0.01" style="stop-color:#FFFFFF"/>
		<stop  offset="0.02" style="stop-color:#EBEBEB"/>
		<stop  offset="0.64" style="stop-color:#E7E7E7"/>
		<stop  offset="0.99" style="stop-color:#E2E2E2"/>
		<stop  offset="1" style="stop-color:#A8A8A8"/>
	</linearGradient>
	<path fill="url(#SVGID_52_)" d="M437.375,373.132h8.25v123.75h-8.25V373.132z"/>
	<path fill="#FED372" d="M11.359,416.093h423.75v9H11.359V416.093z"/>
	<path fill="#FED372" d="M11.359,435.488h423.75v9H11.359V435.488z"/>
</g>
</svg>
