<?xml version="1.0" encoding="utf-8"?>
<!-- Generator: Adobe Illustrator 16.0.0, SVG Export Plug-In . SVG Version: 6.00 Build 0)  -->
<!DOCTYPE svg PUBLIC "-//W3C//DTD SVG 1.1//EN" "http://www.w3.org/Graphics/SVG/1.1/DTD/svg11.dtd">
<svg preserveAspectRatio="none"   version="1.1" id="图层_1" xmlns="http://www.w3.org/2000/svg" xmlns:xlink="http://www.w3.org/1999/xlink" x="0px" y="0px"
	 width="565.858px" height="305.618px" viewBox="0 262.409 565.858 305.618" enable-background="new 0 262.409 565.858 305.618"
	 xml:space="preserve">
<g id="surface426">
	<path fill="#0C0C0C" d="M206.375,562.734c6,2.25,13.574,6.168,18.258,5.117c4.992-1.367,32.781-1.637,37.074-5.145
		c17.418-4.473,13.453-40.566,13.453-52.125c0.215-11.598-46.316-63.754-47.879-65.328c-1.406-1.77-34.406-4.02-34.406-4.02
		L206.375,562.734z"/>
	<path fill="#0C0C0C" d="M26.813,466.921c3,1.5,7.844,3.617,10.633,3.02c2.867-0.77,18.574-1.07,21.129-3.148
		c4.238-3.621,7.727-5.348,8.934-30.922c1.305-24.449-16.754-44.348-17.684-45.355c-1.262-0.844-31.262,4.133-31.262,4.133
		L26.813,466.921z"/>
	<path d="M318,287.937c-18-12-50.929-21.375-72.523-22.179c-10.727-0.32-78.984-6.125-120.574-1.68
		c-14.652,2.109-48.566,6.738-57.484,12.738c-5.918,4.371-9.043,5.246-22.977,24.003c-5.441,7.367-10.492,19.301-18.156,25.977
		c-5.285,4.641-11.617,2.484-18.828,8.996C0,342.687,0,346.625,0,353.863c0.75,7.574,2.309,61.824,4.109,62.023
		C6,416.187,58.527,445.64,58.527,445.64c-0.027-0.203,129.086,64.492,131.703,63.723c2.52-0.926,77.039,38.719,87.438,38.719
		c10.332,0.105,15.992,2.422,27.992,4.84c12.34,2.766,38.266,7.016,47.988,7.016c19.852-1.25,76.379-7.418,79.176-10.242
		c-0.074-0.008-1.27-3.082,6-6.051c81.676-18.707,96.57-40.531,96.273-37.406c-0.348,2.949-1.699,3.125,0,4.738
		c4.902-3.289,20.891-28.23,20.891-33.07c-0.238-4.719,10.59-46.188,9.832-48.602c-4.07-2.617-17.965-0.605-17.578-4.84
		c0.758-4.527-8.223-38.137-8.223-38.137c-0.02-0.141-155.18-44.746-156.781-43.941c-1.488,1.051-49.707-44.77-65.18-54.648
		L318,287.937z"/>
	<path fill="#E5F3EA" d="M151.047,275.949c25.5-6,117.211-1.523,144.917,3.449c19.332,10.8,82.609,62.183,82.609,62.183
		c-0.277,0.367-59.98-1.922-83.207-0.246c-23.57,1.363-97.628,9.32-102.054,9.32c-4.766,0.293-11.164,2.391-15.586-4.234
		c-2.68-3.723-26.68-71.558-26.68-70.371V275.949z"/>
	<path fill="#575757" d="M29.039,422.335l1.5-1.5l141,66.75l-2.25,1.5L29.039,422.335z"/>
	<path d="M186.391,354.019c-4.5,0.75-8.613-0.832-5.918,1.891c2.918,2.609,59.031,25.578,78.215,31.023
		c19.203,5.336,74.757,28.059,75.957,27.457c0.996-0.371,94.988,9.184,99.188,7.371c4.559-1.742,39.418-11.313,56.207-13.73
		c16.602-2.262,36.914-3.363,40.281-4.563c1.07-0.699,3.539-0.773,6.539-3.801c3.531-2.898,1.82-6.684,1.82-6.684
		c0.211,0.035,3-3.629,0-6.656c-2.789-3.059-149.887-43.559-149.887-43.559c0.098,0-64.754,0-92.332,1.816
		c-27.57,1.934-109.718,10.285-109.718,9.074L186.391,354.019z"/>
	<path fill="#3E3938" d="M240.668,438.679c13.5,3,75.554,23.422,80.953,23.422c5.297-0.172,117.508-4.969,120.508-3.758
		c3.289,1.336,35.371,9.68,40.168,9.68c5.121-0.094,46.141-7.84,49.762-11.496c4.109-4.348,4.754-21.883,6.836-23.984
		c1.773-2.113,6.578-9.516,6.578-9.516c-0.305-0.098-0.66-6.742,2.055-4.008c2.891,2.41,16.781,5.566,15.688,10.285
		c-2.297,4.875-17.465,24.652-25.758,29.039c-12.539,6.586-47.367,14.52-58.156,16.332c-10.633,1.504-135.82,4.563-142.156,3.09
		c-6.477-1.586-87.765-28.121-90.761-29.332c-2.715-1.504-4.293-8.168-5.715-9.68V438.679z"/>
	<path fill="#868686" d="M106.574,275.59c5.25-2.25,19.719-2.199,22.941,1.055c3.309,3.445,35.457,77.429,32.879,77.429
		c-2.57,0.266-76.07-5.582-76.07-8.184c0-2.801,8.379-41.273,11.602-51.031c3.398-9.52,8.383-19.515,8.383-19.515L106.574,275.59z"
		/>
	<path fill="#868686" d="M102.82,276.016c-2.25,6.75-5.809,12.695-8.48,20.347c-2.77,7.402-11.793,48.953-11.793,48.953
		c0.023-0.301-11.609-1.988-25.359-5.023c-5.367-1.277-15.867-3.504-15.867-6.109c0-2.668,1.602-14.719,4.512-18.863
		c3.738-5.555,18.695-23.418,29.656-29.926c4.832-2.628,27.684-10.5,27.684-9.281L102.82,276.016z"/>
	<path fill="#E5F3EA" d="M107.738,278.352c5.25-2.25,18.426-2.105,21.422,0.918c3.328,2.832,32.977,71.996,30.578,71.996
		c-2.5-0.164-70.75-6.051-70.75-8.473c0-2.191,7.797-37.508,10.793-46.582c2.707-8.859,7.797-18.148,7.797-18.148L107.738,278.352z"
		/>
	<path fill="#E5F3EA" d="M99.672,279.016c-2.25,6-5.285,11.894-7.938,19.609c-2.563,7.391-11.191,42.102-11.191,42.102
		c-0.371-0.211-9.594-0.355-22.383-3.18c-4.988-0.781-13.988-2.621-13.988-5.043c0-2.488,1.488-13.688,4.195-17.543
		c3.305-5.195,17.387-21.781,27.578-27.828c4.227-2.867,23.996-9.152,23.996-8.019L99.672,279.016z"/>
	<path fill="#3E3938" d="M342.503,502.687c2.25,0,97.023-0.066,153.883-19.301c56.867-18.949,63.332-27.949,63.332-27.949
		c0.285,0,0.27,2.16-1.516,3.961c-1.949,2.039-24.566,18.391-83.211,34.586c0.262-0.297-57.012,13.496-135.027,16.742
		c0.289,0.211-5.582-0.449-3.961-5.246c-0.25,0.207,2.672-2.219,6.438-2.859L342.503,502.687z"/>
	<path fill="#3E3938" d="M343.972,523.738c2.25,0,93.258-3.816,150.121-23.047c56.879-18.953,63.332-27.953,63.332-27.953
		c0.297,0,0.266,2.16-1.516,3.961c-1.938,2.039-24.566,18.395-83.215,34.586c0.277-0.297-53.23,17.188-131.242,20.445
		c0.27,0.258-5.582-0.461-3.965-5.258c-0.266,0.266,2.676-2.219,6.441-2.859L343.972,523.738z"/>
	<path fill="#2A2A2A" d="M43.016,335.527c0,0,11.004,9.363,117.629,18.758c0.121-0.008-8.652,42.234-3.203,90.984
		c0.324-0.242-101.219-39.027-108.18-42.801c-0.246-0.191-4.555-0.402-9.23-14.48c-0.016,0.039-4.949-29.738,2.691-52.461H43.016z"
		/>
	
		<linearGradient id="SVGID_1_" gradientUnits="userSpaceOnUse" x1="209.5684" y1="201.5923" x2="209.5684" y2="190.8672" gradientTransform="matrix(0.75 0 0 -0.75 -106.2448 509.5939)">
		<stop  offset="0" style="stop-color:#C9C9C9"/>
		<stop  offset="1" style="stop-color:#6D6D6D"/>
	</linearGradient>
	<path fill="url(#SVGID_1_)" d="M46.176,358.617c2.25-0.75,6.977,0.637,7.988,1.305c1.012,0.945,2.863,5.457,2.02,6.012
		c-1.008,0.934-6.57,0.559-8.758-0.891c-2-1.176-2.695-5.566-1.012-6.234L46.176,358.617z"/>
	<path fill="#7F7F7F" d="M82.883,344.335c0,0-4.297,33.367-1.078,70.898l3.328,1.102c0,0-4.965-31.188,0.793-71.238L82.883,344.335z
		"/>
	
		<linearGradient id="SVGID_2_" gradientUnits="userSpaceOnUse" x1="211.5957" y1="201.5732" x2="211.5957" y2="188.8589" gradientTransform="matrix(0.75 0 0 -0.75 -60.111 518.0431)">
		<stop  offset="0" style="stop-color:#C9C9C9"/>
		<stop  offset="1" style="stop-color:#6D6D6D"/>
	</linearGradient>
	<path fill="url(#SVGID_2_)" d="M93.059,367.066c2.25-0.75,8.344,0.77,9.629,1.57c1.621,0.68,3.648,6.555,2.574,7.223
		c-0.953,0.957-8.367,0.668-11.156-1.07c-2.547-1.723-3.434-6.688-1.285-7.488L93.059,367.066z"/>
	<path fill="#7F7F7F" d="M41.066,336.261c-3,0.75-5.25,18.605-5.25,34.613c0,14.137,9.484,31.395,9.484,31.395
		c0.266-0.008,113.547,48.637,114.148,47.527c0.867-1.035-1.813-45.328-1.813-56.523c-0.32-7.512,2.676-35.777,2.676-35.777
		l-2.996-0.984c0,0-3.051,22.566-3.246,36.961c-0.504,14.789,1.391,50.281,1.391,50.281L47.066,399.261c0,0-6.719-6.609-8.305-27.59
		c-1.445-20.41,3.961-36.16,3.961-36.16L41.066,336.261z"/>
	<path fill="#434343" d="M388.644,342.789c0,0,134.418,36.797,150.039,43.578c-0.039-0.078-2.621,3.66-3.41,5.906l-151.129-47.984
		c0,0,5.699-0.199,4.688-1.5H388.644z"/>
	<path d="M433.496,422.128c0,0,35.078-10.738,56.539-14.098c21.461-3.152,40.281-4.563,40.281-4.563
		c-0.07-0.09,3.27-0.402,4.324-1.59c0.105,0,6.18,1.156,3.602,30.691c0.254,0.059-2.375,22.078-7.133,24.32
		c-0.113-0.262-12.281,6.156-45.965,11.152c0.102-0.164-7.578,1.191-43.02-9.699l-2.629-0.215c0,0,3.25-5.68-4.281-19.676
		c-0.219,0.176-6.34-12.594-14.063-14.594l-11.656-2.48c0,0,23.641,1.082,24.332,0.383L433.496,422.128z"/>
	<path fill="#0C0C0C" d="M451.117,423.589c36.75-13.5,73.145-14.25,76.742-14.25c3.508,0,4.797,8.469,3.598,14.52
		c-0.84,5.73-4.496,25.105-7.195,27.828c-2.645,2.652-37.77,13.918-41.367,10.285c-3.277-3.883-31.777-35.691-31.777-38.113V423.589
		z"/>
	<path d="M244.832,449.25c0,0,26.223,51.98,11.98,91.465l20.27,7.535c0,0,11.062-0.535,17.996,2.496
		c0.004-0.246,17.816,4.184,25.027,4.965c-0.273,0.039,2.957-78.223-1.996-81.719C318.332,474,254.43,449.359,244.832,449.25z"/>
	<path fill="#FEFEFE" fill-opacity="0.1373" d="M186.391,354.019c-4.5,0.75-8.617-0.832-5.918,1.891
		c2.918,2.609,59.027,25.578,78.215,31.023c19.203,5.336,74.753,28.059,75.953,27.457c1-0.371,94.992,9.184,99.473,7.371
		c4.277-1.742-103.309-77.973-103.309-77.973c0.336-0.27-6.766-1.02-34.348,0.797c-27.566,1.934-109.714,10.285-109.714,9.074
		L186.391,354.019z"/>
	<path fill="#434343" d="M408.894,421.144l25.5,0.75c0,0,39.258-11.23,56.297-13.828c17.203-2.672,39.629-4.598,39.629-4.598
		c0.074-0.324,3.891-0.383,4.371-1.59c0.203-0.984-2.461-0.609,0-6.984c0.203,0-34.488,2.777-47.762,5.375
		c-13.535,2.875-67.309,14.195-78.035,20.793V421.144z"/>
	<path fill="#464444" d="M539.382,385.625c-5.25,3.75-7.762,13.086-4.754,15.895c7.004,6.605,2.824,31.754,4.262,30.215
		c1.242-1.109,9.594-4.754,10.766-10.801c0.977-4.559,0.375-13.793-1.109-18.016c-2.414-6.793-5.664-18.008-9.313-17.293H539.382z"
		/>
	<path fill="#F9FDF9" d="M539.742,388.695c-4.5,3.75-6.777,11.34-4.168,13.777c5.668,5.723,2.445,27.52,3.695,26.188
		c1.223-0.965,8.313-4.121,9.328-9.363c0.895-3.602,0.324-11.953-0.961-15.613c-1.895-5.988-4.91-15.609-8.07-14.988H539.742z"/>
	<path fill="#262626" d="M11.203,430.957c0.75-10.5,1.707-33.75,16.152-33.75c14.598,0,21.977,23.113,21.996,39.043
		c0.102,20.957-2.188,34.668-14.875,33.652c-14.273,0.055-22.266-24.285-23.215-38.965L11.203,430.957z"/>
	<path fill="#171716" d="M12.102,431.019c0-2.25-3.75-4.207-3.75-21.754c0-17.246,8.633-19.664,13.867-20.84
		c10.133-2.406,20.668,14.625,23.066,24.305c2.066,10.039-2.063,26.426-2.063,26.426L12.102,431.019z"/>
	
		<linearGradient id="SVGID_3_" gradientUnits="userSpaceOnUse" x1="206.5269" y1="202.8706" x2="231.7648" y2="133.5298" gradientTransform="matrix(0.75 0 0 -0.75 -133.9083 559.6857)">
		<stop  offset="0" style="stop-color:#454545"/>
		<stop  offset="0" style="stop-color:#DADADA"/>
		<stop  offset="0.22" style="stop-color:#767676"/>
		<stop  offset="0.55" style="stop-color:#E7E7E7"/>
		<stop  offset="0.71" style="stop-color:#E3E3E3"/>
		<stop  offset="1" style="stop-color:#404040"/>
		<stop  offset="1" style="stop-color:#D8D8D8"/>
	</linearGradient>
	<path fill="url(#SVGID_3_)" d="M17.762,432.707c0-7.5,0.109-24,10-24c10.25,0,15.051,15.828,15.063,26.734
		c-0.313,13.766-3.574,21.895-10.188,23.039c-9.625-0.273-14.199-15.766-14.852-25.816L17.762,432.707z"/>
	<path fill="#7F7F7F" d="M23.582,433.066c0-3.75,0.059-12.75,5.336-12.75c5.164,0,8.027,8.445,8.035,14.266
		c0.129,7.484-1.906,11.68-5.434,12.289c-4.938-0.305-7.578-8.41-7.926-13.773L23.582,433.066z"/>
	<path fill="#363130" d="M8.5,417.539c0,0-4.016-29.465,16.688-29.25c-0.188,0,22.094,4.582,24.195,52.246l4.117,2.504
		c0,0,0.516-52.766-28.559-58.5c0.059,0-17.336-0.516-18.793,17.48c0.102-0.23-0.648,10.547-0.648,14.043L8.5,417.539z"/>
	<path fill="#171716" d="M177.75,505.386c-2.25-2.25-3.922-4.625-5.211-12.438c-1.539-7.063-2.902-20.273,0.148-33.016
		c2.063-10.047,8.449-19.359,19.855-23.195c9.207-3.352,21.223-2.602,30.543,3.91c10.914,7.738,16.895,17.219,22.973,34.289
		c6.691,17.699,7.746,31.25,7.43,39.395c0.012,4.555-2.082,16.512-2.082,16.512c-0.156,0.043,7.191,13.863,6.707,12.895
		c-0.863-0.852-82.453-38.07-80.371-38.07L177.75,505.386z"/>
	<path fill="#262626" d="M178.934,502.507c0.75-18,2.875-57,27.172-57c24.578,0,36.969,38.879,37,65.672
		c0.328,34.828-3.676,58.32-25.023,56.609c-24.148-0.031-37.457-40.848-39.051-65.539L178.934,502.507z"/>
	
		<linearGradient id="SVGID_4_" gradientUnits="userSpaceOnUse" x1="209.2549" y1="203.8618" x2="251.711" y2="87.2147" gradientTransform="matrix(0.75 0 0 -0.75 38.2958 615.8282)">
		<stop  offset="0" style="stop-color:#454545"/>
		<stop  offset="0" style="stop-color:#DADADA"/>
		<stop  offset="0.22" style="stop-color:#767676"/>
		<stop  offset="0.55" style="stop-color:#E7E7E7"/>
		<stop  offset="0.71" style="stop-color:#E3E3E3"/>
		<stop  offset="1" style="stop-color:#404040"/>
		<stop  offset="1" style="stop-color:#D8D8D8"/>
	</linearGradient>
	<path fill="url(#SVGID_4_)" d="M189.965,505.351c0.75-12.75,0.184-40.5,16.824-40.5c16.926,0,25.316,26.625,25.34,44.973
		c-0.164,24.027-6.016,36.824-17.137,38.754c-16.777,0.273-23.891-26.52-24.984-43.43L189.965,505.351z"/>
	<path fill="#656565" d="M199.754,506.128c0-6.75,0.102-21.75,8.98-21.75c9.02,0,13.504,14.203,13.52,23.996
		c0,12.754-3.211,19.648-9.145,20.676c-8.855,0.328-12.746-14.148-13.328-23.172L199.754,506.128z"/>
	<path fill="#363130" d="M179.492,507.148c0,0-9.965-3.918-6.801-47.215c0.051-0.035,4.762-28.676,37.875-24.18
		c-0.324,0.145,23.031,4.125,33.617,33.926c-0.191-0.031,11.652,28.68,7.219,62.039l5.34,9.18c0,0,10.238-32.793-5.34-74.027
		c0.09-0.223-11.887-33.34-39.922-40.254c0.262,0.281-28.406-5.105-40.664,18.137c-0.324,0.145-10.996,17.891-2.23,55.102
		c-0.344-0.207,5.945,5.25,11.145,7.125L179.492,507.148z"/>
	<path fill="#FFFFFF" fill-opacity="0.3098" d="M107.738,278.352c5.25-2.25,18.426-2.105,21.422,0.918
		c3.328,2.832,32.977,71.996,30.578,71.996c-2.5-0.164-70.75-6.051-70.75-8.473c0-2.191,7.797-37.508,10.793-46.582
		c2.707-8.859,7.797-18.148,7.797-18.148L107.738,278.352z"/>
	<path fill="#FFFFFF" fill-opacity="0.3098" d="M99.672,279.016c-2.25,6-5.285,11.894-7.938,19.609
		c-2.563,7.391-11.191,42.102-11.191,42.102c-0.371-0.211-9.594-0.355-22.383-3.18c-4.988-0.781-13.988-2.621-13.988-5.043
		c0-2.488,1.488-13.688,4.195-17.543c3.305-5.195,17.387-21.781,27.578-27.828c4.227-2.867,23.996-9.152,23.996-8.019
		L99.672,279.016z"/>
	<path fill="#4D4C4C" d="M319.921,554.984c0,0,29.211,5.977,34.656,5.461c5.094-0.961,72.32-7.98,78.047-10.23
		c-0.203,0.27-1.27-4.25,8.402-7.25c-0.355,0.02,65.602-13.742,93.758-37.203c-0.363-0.277-2.848,8.051,1.16,4.027
		c-0.023,0.195,10.074-12.055,12.816-17.055c-0.09,0-39.891,30.488-114.93,46.984c0.09,0.266-51.234,12.992-113.91,15.492V554.984z"
		/>
	<path d="M136.559,321.8c8.25,2.25,7.922,11.664,9.121,11.664c1.379,0.336,2.98,0.223,2.98,0.223c-0.102,0.113-1.199-9.688,0-10.898
		c1.398-0.988,1.777-2.527,1.777-2.527l11.621,28.539c0,0-7.398,2.441-7.398,0.93c-0.102-1.68-5.699-10.898-7.199-9.383
		c-1.152,1.703-0.902,5.75-2.25,5.902c-1.152,0.301-38.918,1.438-40.344,0c-1.309-1.199-2.934-19.137,2.402-21.039
		c10.539-3.41,31.793-3.633,29.391-3.633L136.559,321.8z"/>
	<path d="M148.469,333.835c0,0-1.445-9.801-0.25-11.008c1-0.992,2.215-2.531,2.215-2.531l10.785,27.789c0,0-7.02,2.715-7.02,1.203
		c0.27-1.203-4.906-6.68-5.348-9.598c-0.383-2.105-0.633-5.977-0.633-5.977L148.469,333.835z"/>
	<path fill="#FFFFFF" fill-opacity="0.2745" d="M106.957,325.406c0,0,15.938-4.109,29.711-3.789l4.789,3.039
		c0,0-21.266-0.164-36.789,3.738c0.039,0.012,1.738-3.445,2.18-3.297L106.957,325.406z"/>
	<path fill="#8D8D8D" d="M145.68,333.492l1.5,7.5l1.5-0.75v-6.75H145.68z"/>
	<path fill="#FFFFFF" fill-opacity="0.2745" d="M150.469,320.3l11.25,27.75l-2.25,1.5l-11.25-27L150.469,320.3z"/>
	<path fill="#545454" d="M315.003,417.339c12-5.25,47.301-2.184,57.371-1.215c10.129,1.215,46.047,4.355,53.242,10.164
		c7.887,6.051,17.746,24.199,13.906,32.426c-1.52,3.625-64.27,4.355-72.422,4.355c-7.848,0.02-48.445,4.84-50.363-0.969
		c-1.734-5.762-5.996-20.086-5.996-28.313c-0.238-8.199,5.035-17.664,4.078-16.699L315.003,417.339z"/>
	<path fill="#434343" d="M180.281,356.05l-4.5-2.25l0.75,2.25c0,0,80.723,40.379,138.328,61.055
		c-0.328-0.305,9.871-3.715,19.781-2.715c0.141,0.16-137.574-51.855-154.167-58.48L180.281,356.05z"/>
	<path fill="#3E3938" d="M526.339,409.339c0,0,3.523,6.453,3.922,7.262c0.578,0.988-5.992,35.086-5.992,35.086
		c-0.18-0.348-1.801,1.414-1.801,0.605c0.121-0.953,6.594-32.465,5.797-34.48c-0.426-1.723-4.719-8.473-4.719-8.473H526.339z"/>
	<path fill="#3E3938" d="M520.812,410.308c0,0,5.449,7.906,5.852,8.711c0.148,1.039-6.297,33.852-6.297,33.852
		c-0.305,0.188-0.898,0.836-0.898,0c-0.156-0.563,5.895-31.23,5.098-33.246c-0.754-1.816-6.754-10.066-6.754-10.066L520.812,410.308
		z"/>
	<path fill="#3E3938" d="M515.058,410.015c0,0,5.203,8.266,5.605,9.074c0.395,0.676-3.59,35.02-3.59,35.02
		c0.234,0.156-1.199,1.109-1.199,0.305c-0.066-0.898,2.789-31.156,2.789-34.117c0.145-2.031-7.344-9.988-7.344-9.988
		L515.058,410.015z"/>
	<path fill="#3E3938" d="M481.105,415.05c0,0,6.188,9.816,6.586,10.625c0.164,0.625,1.801,36.563,1.801,36.563
		c-0.137,0.063-1.801-0.668-1.801-1.477c0.164-0.711-2.098-30.918-2.098-33.879c0.012-2.082-10.488-9.559-10.488-9.559
		L481.105,415.05z"/>
	<path fill="#3E3938" d="M489.558,413.57c0,0,8.203,10.926,8.602,11.734c0.398,1.016-1.473,35.156-1.473,35.156
		c0.371,0.359-1.5,1.109-1.5,0.309c0.371-0.699,0.973-31.297,0.973-34.254c0.148-2.445-10.266-11.367-10.266-11.367L489.558,413.57z
		"/>
	<path fill="#3E3938" d="M498.757,412.3c0,0,6.191,9.777,6.594,10.586c0.156,0.664-2.371,35.156-2.371,35.156
		c0.277,0.008-1.5,2.316-1.5,1.5c0.277-0.742,1.871-32.488,1.871-35.449c-0.094-2.043-9.066-10.883-9.066-10.883L498.757,412.3z"/>
	<path fill="#3E3938" d="M507.144,410.605c0,0,6.195,8.449,6.594,9.258c0.156,0.492-3.57,35.457-3.57,35.457
		c-0.023,0.285-1.797,2.016-1.797,1.203c0.273-0.918,3.371-32.492,3.371-35.449c-0.098-2.219-7.625-9.555-7.625-9.555
		L507.144,410.605z"/>
	<path fill="#3E3938" d="M470.542,418.648c0,0,7.93,9.094,8.328,9.898c0.672,0.602,4.32,32.211,4.32,32.211
		c0.102-0.109-2.699-3.121-2.699-3.926c-0.199-0.684-3.719-24.113-3.719-27.074c-0.23-2.109-10.789-10.012-10.789-10.012
		L470.542,418.648z"/>
	<path fill="#3E3938" d="M459.964,421.402c0,0,6.52,6.973,6.918,7.777c0.582,0.473,6.719,22.207,6.719,22.207
		c-0.137,0.016-3.297-3.73-3.297-4.539c0.16-0.695-5.52-13.496-5.52-16.457c-0.32-2.238-8.695-7.742-8.695-7.742L459.964,421.402z"
		/>
	<path fill="#FFFFFF" fill-opacity="0.298" d="M135.313,262.984c0,0,79.289,0,90.508,1.734c0.242-0.234,19.621,0.691,36.066,10.973
		l72.925,65.292c0,0-128.187,2.445-153.945,6.227c0.195-0.227-1.656-0.117-3.98-5.137l-25.824-66.339
		C151.063,275.734,142.102,264.969,135.313,262.984z"/>
	<path fill="#3E3938" d="M172.336,349.984c0,0,0.406,6.063,15.582,4.91c15.168-1.16,93.863-8.469,113.316-8.469
		c19.602-0.191,88.793-2.422,88.793-2.422c-0.191-0.02-4.438-2.805-7.855-4.84c-3.586-1.93-57.859-48.172-69.836-55.188
		c-11.75-6.742-33.242-12.41-33.242-12.41c-0.258-0.332,25.199,12.188,28.132,14.144c3.109,2.023,69.547,54.664,69.547,54.664
		c0.313-0.141-74.379,0.406-91.73,1.211c-17.457,0.898-95.015,4.84-96.105,4.84c-0.102-0.191-9.27,1.207-10.66-2.422l-26.191-66.769
		c0,0-11.781-11.988-15.75-14.25c0,0,9.051,7.707,13.043,17.301c-0.293-0.051,20.859,62.382,22.953,69.769L172.336,349.984z"/>
	<path fill="#FEFBDC" fill-opacity="0.6667" d="M318.242,418.46c0,0,21.168-4.824,54.305-0.594
		c33.445,4.344,43.328,4.93,50.281,9.598c-0.336-0.004,16.418,13.766,13.141,30.629c0.023,0.117-0.668,2.133-7.637,2.133
		c0.16,0.234-90.879,3.805-97.559,3.805c0.219,0.18-11.031,0.883-11.031-4.434c0,0.113-11.035-27.461-1.508-40.816L318.242,418.46z"
		/>
	<path fill="#FFFFFF" fill-opacity="0.4471" d="M319.46,418c0,0,36.887-1.902,53.352,0.137c16.398,2.113,41.566,3.461,49.133,9.793
		c7.766,6.57,15.734,19.355,14.902,30.164c0.363-0.344-32.324,4.164-47.93,3.055c0.293,0.352-62.086-5.559-69.457-43.012V418z"/>
</g>
</svg>
