<?xml version="1.0" encoding="utf-8"?>
<!-- Generator: Adobe Illustrator 16.0.0, SVG Export Plug-In . SVG Version: 6.00 Build 0)  -->
<!DOCTYPE svg PUBLIC "-//W3C//DTD SVG 1.1//EN" "http://www.w3.org/Graphics/SVG/1.1/DTD/svg11.dtd">
<svg preserveAspectRatio="none"   version="1.1" id="图层_1" xmlns="http://www.w3.org/2000/svg" xmlns:xlink="http://www.w3.org/1999/xlink" x="0px" y="0px"
	 width="565.968px" height="207.736px" viewBox="-0.086 358.398 565.968 207.736"
	 enable-background="new -0.086 358.398 565.968 207.736" xml:space="preserve">
<g id="surface496">
	
		<linearGradient id="SVGID_1_" gradientUnits="userSpaceOnUse" x1="244.2227" y1="201.3066" x2="244.2227" y2="157.3057" gradientTransform="matrix(0.75 0 0 -0.75 312.4266 648.7325)">
		<stop  offset="0" style="stop-color:#292525"/>
		<stop  offset="0.01" style="stop-color:#868584"/>
		<stop  offset="0.02" style="stop-color:#383433"/>
		<stop  offset="0.64" style="stop-color:#373332"/>
		<stop  offset="0.99" style="stop-color:#363130"/>
		<stop  offset="1" style="stop-color:#252221"/>
	</linearGradient>
	<path fill="url(#SVGID_1_)" d="M464.093,497.753h63v33h-63V497.753z"/>
	
		<linearGradient id="SVGID_2_" gradientUnits="userSpaceOnUse" x1="767.2271" y1="192.8052" x2="202.2275" y2="192.8051" gradientTransform="matrix(0.75 0 0 -0.75 -130.2296 652.2589)">
		<stop  offset="0" style="stop-color:#3D3B3B"/>
		<stop  offset="0.01" style="stop-color:#908F8F"/>
		<stop  offset="0.02" style="stop-color:#514F4F"/>
		<stop  offset="0.64" style="stop-color:#504E4E"/>
		<stop  offset="0.99" style="stop-color:#4E4C4C"/>
		<stop  offset="1" style="stop-color:#383636"/>
	</linearGradient>
	<path fill="url(#SVGID_2_)" d="M21.441,501.281h423.75v12.75H21.441V501.281z"/>
	
		<linearGradient id="SVGID_3_" gradientUnits="userSpaceOnUse" x1="284.2241" y1="201.3037" x2="284.2241" y2="157.3037" gradientTransform="matrix(0.75 0 0 -0.75 -111.4723 653.6652)">
		<stop  offset="0" style="stop-color:#292525"/>
		<stop  offset="0.01" style="stop-color:#868584"/>
		<stop  offset="0.02" style="stop-color:#383433"/>
		<stop  offset="0.64" style="stop-color:#373332"/>
		<stop  offset="0.99" style="stop-color:#363130"/>
		<stop  offset="1" style="stop-color:#252221"/>
	</linearGradient>
	<path fill="url(#SVGID_3_)" d="M40.195,502.687h123v33h-123V502.687z"/>
	<path fill="#E43A4D" d="M445.132,367.742c0,0,40.863-10.703,80.465,0.195c-0.215-0.195,32.051,28.676,40.219,66.973l0.066,86.582
		c0,0-1.004,3.711-6.324,3.711l-31.926,0.039c0,0-4.691-26.027-32.465-26.48c0.215,0.23-26.223-0.109-31.355,26.578l-18.68-0.098
		V367.742z"/>
	<path fill="#E85464" d="M447.171,371.289c0,0,36.957-11.996,77.254,0.008c-0.004-0.008,30.738,27.508,38.531,64.242l-0.285,14.5
		h-115.5V371.289z"/>
	<path d="M464.078,376.335h55.5l27,46.5v14.25h-83.25L464.078,376.335z"/>
	<path fill="#E8F4ED" d="M466.644,378.765h50.25l25.5,42.75l0.75,13.5h-77.25L466.644,378.765z"/>
	<path fill="#E43A4D" d="M447.25,450.105h115.5v-3h-115.5V450.105z"/>
	<path fill="#E43A4D" d="M534.535,493.839v30.75l-6.75,0.75c0,0-4.871-26.121-32.641-26.574
		c-0.359,0.324-26.223-0.113-31.355,26.691l-2.754-0.117v-31.5H534.535z"/>
	<path fill="#E85464" d="M562.777,450.238v67.5c0,0-0.527,3.863-5.629,3.863l-26.621-0.113c0,0-4.672-25.465-35.34-26.508
		c0.09,0.258-29.238,0.715-34.16,26.434l-13.75,0.074v-71.25H562.777z"/>
	<path fill="#E43A4D" d="M445.109,521.406h19.5v3.75h-19.5V521.406z"/>
	
		<linearGradient id="SVGID_4_" gradientUnits="userSpaceOnUse" x1="279.2246" y1="201.3047" x2="279.2246" y2="0.96" gradientTransform="matrix(0.75 0 0 -0.75 295.91 522.2853)">
		<stop  offset="0" style="stop-color:#FFFFFF;stop-opacity:0.149"/>
		<stop  offset="1" style="stop-color:#FFFFFF;stop-opacity:0.0235"/>
	</linearGradient>
	<path fill="url(#SVGID_4_)" d="M523.328,371.308c0,0,30.773,24.871,39.629,64.23l0.121,82.77c0,0-0.137,1.938-3.527,2.813
		l-28.723,0.188c0,0-6.996-25.875-34.77-26.328c0.27,0.078-29.887-0.371-35.016,26.586l-13.465-0.258v-7.5L523.328,371.308z"/>
	<path fill="#FFFFFF" fill-opacity="0.8039" d="M518.234,381.167l24.75,39.75v14.25l-53.25-0.75L518.234,381.167z"/>
	<path stroke="#000000" stroke-linejoin="bevel" stroke-miterlimit="10" d="M546.5,442.464c0-1.5,1.457-3,3.254-3
		c1.996,0,3.258,1.477,3.258,3.301c0.238,1.949-1.457,3.301-3.258,3.301c-1.754,0.148-3.254-1.477-3.254-3.301V442.464z"/>
	
		<linearGradient id="SVGID_5_" gradientUnits="userSpaceOnUse" x1="202.2241" y1="197.7725" x2="209.1934" y2="197.7725" gradientTransform="matrix(0.75 0 0 -0.75 395.4725 591.0919)">
		<stop  offset="0" style="stop-color:#AEAEAE"/>
		<stop  offset="0.41" style="stop-color:#C9C9C9"/>
		<stop  offset="1" style="stop-color:#565656"/>
	</linearGradient>
	<path fill="url(#SVGID_5_)" d="M547.14,443.113c0-1.5,1.172-3,2.613-3c1.137,0,2.613,1.188,2.613,2.652
		c0.023,1.098-1.168,2.648-2.613,2.648c-1.113-0.051-2.613-1.184-2.613-2.648V443.113z"/>
	
		<linearGradient id="SVGID_6_" gradientUnits="userSpaceOnUse" x1="202.2246" y1="191.314" x2="204.2759" y2="191.314" gradientTransform="matrix(0.75 0 0 -0.75 396.9677 580.2755)">
		<stop  offset="0" style="stop-color:#767676"/>
		<stop  offset="0.36" style="stop-color:#EFEFEF"/>
		<stop  offset="0.7" style="stop-color:#C0C0C0"/>
		<stop  offset="0.91" style="stop-color:#727272"/>
	</linearGradient>
	<path fill="url(#SVGID_6_)" d="M548.636,429.296h1.5v14.25c0,0,0.246,0.738-0.508,0.738c-0.992,0.012-0.992-0.566-0.992-0.566
		V429.296z"/>
	<path d="M545.8,418.003h5.25c0,0,0.344,0.465,0.344,1.039l-0.344,14.711c0,0,0.063,0.762-0.281,0.762l-4.969-0.012
		c-0.75,0-0.758-0.461-0.758-1.035l0.008-14.715c0,0,0.27-0.75,0.613-0.75H545.8z"/>
	<path fill="#606060" d="M545.785,417.992h1.5v16.5h-1.5c-0.75,0-0.758-0.449-0.758-1.023l0.008-14.727c0,0,0.27-0.75,0.613-0.75
		H545.785z"/>
	
		<linearGradient id="SVGID_7_" gradientUnits="userSpaceOnUse" x1="280.8628" y1="203.938" x2="205.1912" y2="113.7561" gradientTransform="matrix(0.75 0 0 -0.75 -49.8575 652.922)">
		<stop  offset="0" style="stop-color:#000000"/>
		<stop  offset="0.53" style="stop-color:#4F4F4F"/>
		<stop  offset="1" style="stop-color:#000000"/>
	</linearGradient>
	<path fill="url(#SVGID_7_)" d="M101.813,533.445c0-17.25,13.512-31.5,30.523-31.5c16.727,0,30.805,14.227,30.805,31.777
		c0.172,17.723-13.789,31.781-30.805,31.781c-17.023,0.191-30.805-14.23-30.805-31.781L101.813,533.445z"/>
	<path fill="#888889" d="M112.316,533.757c0-11.25,8.906-21,20.117-21c11.383,0,20.301,9.387,20.301,20.965
		c0.082,11.285-9.09,20.965-20.301,20.965c-11.117,0.07-20.301-9.387-20.301-20.965L112.316,533.757z"/>
	
		<linearGradient id="SVGID_8_" gradientUnits="userSpaceOnUse" x1="254.8872" y1="198.4497" x2="199.5789" y2="152.0405" gradientTransform="matrix(0.75 0 0 -0.75 -37.9879 665.1466)">
		<stop  offset="0" style="stop-color:#C8C8C8"/>
		<stop  offset="0.28" style="stop-color:#A9A9A9"/>
		<stop  offset="0.56" style="stop-color:#E2E2E2"/>
		<stop  offset="0.78" style="stop-color:#C9C9C9"/>
		<stop  offset="1" style="stop-color:#373737"/>
	</linearGradient>
	<path fill="url(#SVGID_8_)" d="M113.68,533.667c0-10.5,8.309-19.5,18.766-19.5c10.484,0,18.934,8.754,18.934,19.555
		c-0.199,10.445-8.477,19.555-18.934,19.555c-10.516-0.109-18.938-8.754-18.938-19.555L113.68,533.667z"/>
	<path fill="#404040" d="M123.441,534c0-5.25,4.023-9.75,9.094-9.75c5.156,0,9.176,4.242,9.176,9.473
		c-0.27,5.527-4.109,9.477-9.176,9.477c-5.344-0.199-9.176-4.242-9.176-9.477L123.441,534z"/>
	
		<linearGradient id="SVGID_9_" gradientUnits="userSpaceOnUse" x1="220.1572" y1="200.2998" x2="201.3493" y2="184.5181" gradientTransform="matrix(0.75 0 0 -0.75 -25.4889 678.0538)">
		<stop  offset="0" style="stop-color:#282828"/>
		<stop  offset="0.36" style="stop-color:#B7B7B7"/>
		<stop  offset="0.57" style="stop-color:#C7C7C7"/>
		<stop  offset="0.83" style="stop-color:#B4B4B4"/>
		<stop  offset="0.9" style="stop-color:#3A3A3A"/>
	</linearGradient>
	<path fill="url(#SVGID_9_)" d="M126.18,533.828c0-3.75,2.824-6.75,6.379-6.75c3.371,0,6.438,2.973,6.438,6.645
		c-0.066,3.855-2.883,6.648-6.438,6.648c-3.379,0.207-6.438-2.977-6.438-6.648L126.18,533.828z"/>
	
		<linearGradient id="SVGID_10_" gradientUnits="userSpaceOnUse" x1="211.1328" y1="201.7402" x2="202.517" y2="191.4723" gradientTransform="matrix(0.75 0 0 -0.75 -29.4254 668.8331)">
		<stop  offset="0" style="stop-color:#000000"/>
		<stop  offset="0.53" style="stop-color:#4F4F4F"/>
		<stop  offset="1" style="stop-color:#000000"/>
	</linearGradient>
	<path fill="url(#SVGID_10_)" d="M122.242,521.605c0-2.25,1.566-3.75,3.527-3.75c1.723,0,3.547,1.598,3.547,3.563
		c-0.324,1.688-1.59,3.566-3.547,3.566c-2.027,0.371-3.551-1.598-3.551-3.566L122.242,521.605z"/>
	
		<linearGradient id="SVGID_11_" gradientUnits="userSpaceOnUse" x1="211.1333" y1="201.7422" x2="202.5157" y2="191.4721" gradientTransform="matrix(0.75 0 0 -0.75 -23.5646 696.3888)">
		<stop  offset="0" style="stop-color:#000000"/>
		<stop  offset="0.53" style="stop-color:#4F4F4F"/>
		<stop  offset="1" style="stop-color:#000000"/>
	</linearGradient>
	<path fill="url(#SVGID_11_)" d="M128.105,549.16c0-2.25,1.563-3.75,3.523-3.75c1.727,0,3.547,1.598,3.547,3.566
		c-0.32,1.684-1.59,3.563-3.547,3.563c-2.023,0.371-3.547-1.598-3.547-3.563L128.105,549.16z"/>
	
		<linearGradient id="SVGID_12_" gradientUnits="userSpaceOnUse" x1="211.1343" y1="201.7417" x2="202.5158" y2="191.4706" gradientTransform="matrix(0.75 0 0 -0.75 -36.5875 684.8888)">
		<stop  offset="0" style="stop-color:#000000"/>
		<stop  offset="0.53" style="stop-color:#4F4F4F"/>
		<stop  offset="1" style="stop-color:#000000"/>
	</linearGradient>
	<path fill="url(#SVGID_12_)" d="M115.082,537.66c0-2.25,1.563-3.75,3.523-3.75c1.727,0,3.547,1.598,3.547,3.563
		c-0.32,1.688-1.586,3.566-3.547,3.566c-2.023,0.371-3.547-1.598-3.547-3.566L115.082,537.66z"/>
	
		<linearGradient id="SVGID_13_" gradientUnits="userSpaceOnUse" x1="211.1343" y1="201.7412" x2="202.5158" y2="191.4701" gradientTransform="matrix(0.75 0 0 -0.75 -12.0206 671.5939)">
		<stop  offset="0" style="stop-color:#000000"/>
		<stop  offset="0.53" style="stop-color:#4F4F4F"/>
		<stop  offset="1" style="stop-color:#000000"/>
	</linearGradient>
	<path fill="url(#SVGID_13_)" d="M139.648,524.367c0-2.25,1.566-3.75,3.523-3.75c1.727,0,3.547,1.594,3.547,3.563
		c-0.32,1.688-1.586,3.563-3.547,3.563c-2.023,0.375-3.547-1.594-3.547-3.563L139.648,524.367z"/>
	
		<linearGradient id="SVGID_14_" gradientUnits="userSpaceOnUse" x1="211.1338" y1="201.7417" x2="202.5162" y2="191.4716" gradientTransform="matrix(0.75 0 0 -0.75 -9.8761 687.7169)">
		<stop  offset="0" style="stop-color:#000000"/>
		<stop  offset="0.53" style="stop-color:#4F4F4F"/>
		<stop  offset="1" style="stop-color:#000000"/>
	</linearGradient>
	<path fill="url(#SVGID_14_)" d="M141.793,540.488c0-2.25,1.566-3.75,3.523-3.75c1.727,0,3.547,1.598,3.547,3.563
		c-0.32,1.688-1.586,3.566-3.547,3.566c-2.023,0.371-3.547-1.598-3.547-3.566L141.793,540.488z"/>
	
		<linearGradient id="SVGID_15_" gradientUnits="userSpaceOnUse" x1="280.8628" y1="203.9375" x2="205.1921" y2="113.7567" gradientTransform="matrix(0.75 0 0 -0.75 -111.2521 653.5509)">
		<stop  offset="0" style="stop-color:#000000"/>
		<stop  offset="0.53" style="stop-color:#4F4F4F"/>
		<stop  offset="1" style="stop-color:#000000"/>
	</linearGradient>
	<path fill="url(#SVGID_15_)" d="M40.418,534.074c0-17.25,13.512-31.5,30.523-31.5c16.727,0,30.805,14.227,30.805,31.777
		c0.172,17.723-13.789,31.781-30.805,31.781c-17.023,0.191-30.805-14.23-30.805-31.781L40.418,534.074z"/>
	<path fill="#888889" d="M50.922,534.386c0-11.25,8.906-21,20.117-21c11.383,0,20.301,9.387,20.301,20.965
		c0.082,11.285-9.09,20.965-20.301,20.965c-11.117,0.07-20.301-9.387-20.301-20.965L50.922,534.386z"/>
	
		<linearGradient id="SVGID_16_" gradientUnits="userSpaceOnUse" x1="254.8862" y1="198.4507" x2="199.5768" y2="152.0406" gradientTransform="matrix(0.75 0 0 -0.75 -99.382 665.7755)">
		<stop  offset="0" style="stop-color:#C8C8C8"/>
		<stop  offset="0.28" style="stop-color:#A9A9A9"/>
		<stop  offset="0.56" style="stop-color:#E2E2E2"/>
		<stop  offset="0.78" style="stop-color:#C9C9C9"/>
		<stop  offset="1" style="stop-color:#373737"/>
	</linearGradient>
	<path fill="url(#SVGID_16_)" d="M52.285,534.296c0-10.5,8.309-19.5,18.766-19.5c10.484,0,18.934,8.754,18.934,19.555
		c-0.199,10.445-8.477,19.555-18.934,19.555c-10.516-0.109-18.938-8.754-18.938-19.555L52.285,534.296z"/>
	<path fill="#404040" d="M62.047,534.628c0-5.25,4.023-9.75,9.094-9.75c5.156,0,9.176,4.242,9.176,9.473
		c-0.27,5.527-4.109,9.477-9.176,9.477c-5.344-0.199-9.176-4.242-9.176-9.477L62.047,534.628z"/>
	
		<linearGradient id="SVGID_17_" gradientUnits="userSpaceOnUse" x1="220.1563" y1="200.3003" x2="201.3493" y2="184.5194" gradientTransform="matrix(0.75 0 0 -0.75 -86.8834 678.6827)">
		<stop  offset="0" style="stop-color:#282828"/>
		<stop  offset="0.36" style="stop-color:#B7B7B7"/>
		<stop  offset="0.57" style="stop-color:#C7C7C7"/>
		<stop  offset="0.83" style="stop-color:#B4B4B4"/>
		<stop  offset="0.9" style="stop-color:#3A3A3A"/>
	</linearGradient>
	<path fill="url(#SVGID_17_)" d="M64.785,534.457c0-3.75,2.824-6.75,6.379-6.75c3.371,0,6.438,2.973,6.438,6.645
		c-0.066,3.855-2.883,6.648-6.438,6.648c-3.379,0.207-6.438-2.977-6.438-6.648L64.785,534.457z"/>
	
		<linearGradient id="SVGID_18_" gradientUnits="userSpaceOnUse" x1="211.1328" y1="201.7422" x2="202.5161" y2="191.4732" gradientTransform="matrix(0.75 0 0 -0.75 -90.8199 669.463)">
		<stop  offset="0" style="stop-color:#000000"/>
		<stop  offset="0.53" style="stop-color:#4F4F4F"/>
		<stop  offset="1" style="stop-color:#000000"/>
	</linearGradient>
	<path fill="url(#SVGID_18_)" d="M60.848,522.234c0-2.25,1.566-3.75,3.527-3.75c1.723,0,3.547,1.598,3.547,3.563
		c-0.324,1.688-1.59,3.566-3.547,3.566c-2.027,0.371-3.551-1.598-3.551-3.566L60.848,522.234z"/>
	
		<linearGradient id="SVGID_19_" gradientUnits="userSpaceOnUse" x1="211.1338" y1="201.7417" x2="202.5162" y2="191.4716" gradientTransform="matrix(0.75 0 0 -0.75 -84.9591 697.0177)">
		<stop  offset="0" style="stop-color:#000000"/>
		<stop  offset="0.53" style="stop-color:#4F4F4F"/>
		<stop  offset="1" style="stop-color:#000000"/>
	</linearGradient>
	<path fill="url(#SVGID_19_)" d="M66.711,549.789c0-2.25,1.563-3.75,3.523-3.75c1.727,0,3.547,1.598,3.547,3.566
		c-0.32,1.684-1.59,3.563-3.547,3.563c-2.023,0.371-3.547-1.598-3.547-3.563L66.711,549.789z"/>
	
		<linearGradient id="SVGID_20_" gradientUnits="userSpaceOnUse" x1="211.1343" y1="201.7417" x2="202.5167" y2="191.4716" gradientTransform="matrix(0.75 0 0 -0.75 -97.9821 685.5177)">
		<stop  offset="0" style="stop-color:#000000"/>
		<stop  offset="0.53" style="stop-color:#4F4F4F"/>
		<stop  offset="1" style="stop-color:#000000"/>
	</linearGradient>
	<path fill="url(#SVGID_20_)" d="M53.688,538.289c0-2.25,1.563-3.75,3.523-3.75c1.727,0,3.547,1.598,3.547,3.563
		c-0.32,1.688-1.586,3.566-3.547,3.566c-2.023,0.371-3.547-1.598-3.547-3.566L53.688,538.289z"/>
	
		<linearGradient id="SVGID_21_" gradientUnits="userSpaceOnUse" x1="211.1328" y1="201.7417" x2="202.5161" y2="191.4727" gradientTransform="matrix(0.75 0 0 -0.75 -73.4147 672.2228)">
		<stop  offset="0" style="stop-color:#000000"/>
		<stop  offset="0.53" style="stop-color:#4F4F4F"/>
		<stop  offset="1" style="stop-color:#000000"/>
	</linearGradient>
	<path fill="url(#SVGID_21_)" d="M78.254,524.996c0-2.25,1.566-3.75,3.523-3.75c1.727,0,3.547,1.594,3.547,3.563
		c-0.32,1.688-1.586,3.563-3.547,3.563c-2.023,0.375-3.547-1.594-3.547-3.563L78.254,524.996z"/>
	
		<linearGradient id="SVGID_22_" gradientUnits="userSpaceOnUse" x1="211.1338" y1="201.7417" x2="202.5162" y2="191.4716" gradientTransform="matrix(0.75 0 0 -0.75 -71.2706 688.3458)">
		<stop  offset="0" style="stop-color:#000000"/>
		<stop  offset="0.53" style="stop-color:#4F4F4F"/>
		<stop  offset="1" style="stop-color:#000000"/>
	</linearGradient>
	<path fill="url(#SVGID_22_)" d="M80.398,541.117c0-2.25,1.566-3.75,3.523-3.75c1.727,0,3.547,1.598,3.547,3.563
		c-0.32,1.688-1.586,3.566-3.547,3.566c-2.023,0.371-3.547-1.598-3.547-3.566L80.398,541.117z"/>
	
		<linearGradient id="SVGID_23_" gradientUnits="userSpaceOnUse" x1="284.2271" y1="201.3037" x2="284.2271" y2="157.3037" gradientTransform="matrix(0.75 0 0 -0.75 153.7362 653.6652)">
		<stop  offset="0" style="stop-color:#292525"/>
		<stop  offset="0.01" style="stop-color:#868584"/>
		<stop  offset="0.02" style="stop-color:#383433"/>
		<stop  offset="0.64" style="stop-color:#373332"/>
		<stop  offset="0.99" style="stop-color:#363130"/>
		<stop  offset="1" style="stop-color:#252221"/>
	</linearGradient>
	<path fill="url(#SVGID_23_)" d="M305.406,502.687h123v33h-123V502.687z"/>
	
		<linearGradient id="SVGID_24_" gradientUnits="userSpaceOnUse" x1="280.8613" y1="203.9395" x2="205.1898" y2="113.7576" gradientTransform="matrix(0.75 0 0 -0.75 214.7538 652.922)">
		<stop  offset="0" style="stop-color:#000000"/>
		<stop  offset="0.53" style="stop-color:#4F4F4F"/>
		<stop  offset="1" style="stop-color:#000000"/>
	</linearGradient>
	<path fill="url(#SVGID_24_)" d="M366.421,533.445c0-17.25,13.512-31.5,30.527-31.5c16.723,0,30.805,14.227,30.805,31.777
		c0.168,17.723-13.793,31.781-30.805,31.781c-17.027,0.191-30.805-14.23-30.805-31.781L366.421,533.445z"/>
	<path fill="#888889" d="M376.929,533.757c0-11.25,8.902-21,20.113-21c11.387,0,20.301,9.387,20.301,20.965
		c0.086,11.285-9.086,20.965-20.301,20.965c-11.113,0.07-20.301-9.387-20.301-20.965L376.929,533.757z"/>
	
		<linearGradient id="SVGID_25_" gradientUnits="userSpaceOnUse" x1="254.8848" y1="198.4512" x2="199.5764" y2="152.042" gradientTransform="matrix(0.75 0 0 -0.75 226.6239 665.1466)">
		<stop  offset="0" style="stop-color:#C8C8C8"/>
		<stop  offset="0.28" style="stop-color:#A9A9A9"/>
		<stop  offset="0.56" style="stop-color:#E2E2E2"/>
		<stop  offset="0.78" style="stop-color:#C9C9C9"/>
		<stop  offset="1" style="stop-color:#373737"/>
	</linearGradient>
	<path fill="url(#SVGID_25_)" d="M378.292,533.667c0-10.5,8.305-19.5,18.762-19.5c10.488,0,18.938,8.754,18.938,19.555
		c-0.199,10.445-8.477,19.555-18.938,19.555c-10.512-0.109-18.934-8.754-18.934-19.555L378.292,533.667z"/>
	<path fill="#404040" d="M388.054,534c0-5.25,4.023-9.75,9.09-9.75c5.16,0,9.176,4.242,9.176,9.473
		c-0.266,5.527-4.109,9.477-9.176,9.477c-5.34-0.199-9.176-4.242-9.176-9.477L388.054,534z"/>
	
		<linearGradient id="SVGID_26_" gradientUnits="userSpaceOnUse" x1="220.1577" y1="200.2983" x2="201.3498" y2="184.5166" gradientTransform="matrix(0.75 0 0 -0.75 239.1229 678.0538)">
		<stop  offset="0" style="stop-color:#282828"/>
		<stop  offset="0.36" style="stop-color:#B7B7B7"/>
		<stop  offset="0.57" style="stop-color:#C7C7C7"/>
		<stop  offset="0.83" style="stop-color:#B4B4B4"/>
		<stop  offset="0.9" style="stop-color:#3A3A3A"/>
	</linearGradient>
	<path fill="url(#SVGID_26_)" d="M390.792,533.828c0-3.75,2.824-6.75,6.379-6.75c3.371,0,6.434,2.973,6.434,6.645
		c-0.063,3.855-2.879,6.648-6.434,6.648c-3.379,0.207-6.438-2.977-6.438-6.648L390.792,533.828z"/>
	
		<linearGradient id="SVGID_27_" gradientUnits="userSpaceOnUse" x1="211.1338" y1="201.7412" x2="202.5162" y2="191.4712" gradientTransform="matrix(0.75 0 0 -0.75 235.1864 668.8331)">
		<stop  offset="0" style="stop-color:#000000"/>
		<stop  offset="0.53" style="stop-color:#4F4F4F"/>
		<stop  offset="1" style="stop-color:#000000"/>
	</linearGradient>
	<path fill="url(#SVGID_27_)" d="M386.855,521.605c0-2.25,1.566-3.75,3.523-3.75c1.727,0,3.547,1.598,3.547,3.563
		c-0.32,1.688-1.586,3.566-3.547,3.566c-2.023,0.371-3.547-1.598-3.547-3.566L386.855,521.605z"/>
	
		<linearGradient id="SVGID_28_" gradientUnits="userSpaceOnUse" x1="211.1309" y1="201.7422" x2="202.5141" y2="191.4732" gradientTransform="matrix(0.75 0 0 -0.75 241.0468 696.3888)">
		<stop  offset="0" style="stop-color:#000000"/>
		<stop  offset="0.53" style="stop-color:#4F4F4F"/>
		<stop  offset="1" style="stop-color:#000000"/>
	</linearGradient>
	<path fill="url(#SVGID_28_)" d="M392.714,549.16c0-2.25,1.566-3.75,3.523-3.75c1.727,0,3.551,1.598,3.551,3.566
		c-0.324,1.684-1.59,3.563-3.551,3.563c-2.023,0.371-3.547-1.598-3.547-3.563L392.714,549.16z"/>
	
		<linearGradient id="SVGID_29_" gradientUnits="userSpaceOnUse" x1="211.1328" y1="201.7427" x2="202.5152" y2="191.4726" gradientTransform="matrix(0.75 0 0 -0.75 228.0243 684.8888)">
		<stop  offset="0" style="stop-color:#000000"/>
		<stop  offset="0.53" style="stop-color:#4F4F4F"/>
		<stop  offset="1" style="stop-color:#000000"/>
	</linearGradient>
	<path fill="url(#SVGID_29_)" d="M379.691,537.66c0-2.25,1.566-3.75,3.527-3.75c1.723,0,3.547,1.598,3.547,3.563
		c-0.324,1.688-1.59,3.566-3.547,3.566c-2.027,0.371-3.551-1.598-3.551-3.566L379.691,537.66z"/>
	
		<linearGradient id="SVGID_30_" gradientUnits="userSpaceOnUse" x1="211.1323" y1="201.7422" x2="202.5156" y2="191.4732" gradientTransform="matrix(0.75 0 0 -0.75 252.5917 671.5939)">
		<stop  offset="0" style="stop-color:#000000"/>
		<stop  offset="0.53" style="stop-color:#4F4F4F"/>
		<stop  offset="1" style="stop-color:#000000"/>
	</linearGradient>
	<path fill="url(#SVGID_30_)" d="M404.261,524.367c0-2.25,1.563-3.75,3.523-3.75c1.727,0,3.547,1.594,3.547,3.563
		c-0.32,1.688-1.59,3.563-3.547,3.563c-2.023,0.375-3.547-1.594-3.547-3.563L404.261,524.367z"/>
	
		<linearGradient id="SVGID_31_" gradientUnits="userSpaceOnUse" x1="211.1323" y1="201.7422" x2="202.5156" y2="191.4732" gradientTransform="matrix(0.75 0 0 -0.75 254.7352 687.7169)">
		<stop  offset="0" style="stop-color:#000000"/>
		<stop  offset="0.53" style="stop-color:#4F4F4F"/>
		<stop  offset="1" style="stop-color:#000000"/>
	</linearGradient>
	<path fill="url(#SVGID_31_)" d="M406.406,540.488c0-2.25,1.563-3.75,3.523-3.75c1.727,0,3.547,1.598,3.547,3.563
		c-0.32,1.688-1.59,3.566-3.547,3.566c-2.023,0.371-3.547-1.598-3.547-3.566L406.406,540.488z"/>
	
		<linearGradient id="SVGID_32_" gradientUnits="userSpaceOnUse" x1="280.8608" y1="203.9395" x2="205.1893" y2="113.7576" gradientTransform="matrix(0.75 0 0 -0.75 153.3866 652.922)">
		<stop  offset="0" style="stop-color:#000000"/>
		<stop  offset="0.53" style="stop-color:#4F4F4F"/>
		<stop  offset="1" style="stop-color:#000000"/>
	</linearGradient>
	<path fill="url(#SVGID_32_)" d="M305.054,533.445c0-17.25,13.512-31.5,30.527-31.5c16.723,0,30.805,14.227,30.805,31.777
		c0.168,17.723-13.793,31.781-30.805,31.781c-17.027,0.191-30.805-14.23-30.805-31.781L305.054,533.445z"/>
	<path fill="#888889" d="M315.562,533.757c0-11.25,8.902-21,20.113-21c11.387,0,20.301,9.387,20.301,20.965
		c0.086,11.285-9.09,20.965-20.301,20.965c-11.113,0.07-20.301-9.387-20.301-20.965L315.562,533.757z"/>
	
		<linearGradient id="SVGID_33_" gradientUnits="userSpaceOnUse" x1="254.8853" y1="198.4502" x2="199.5759" y2="152.0401" gradientTransform="matrix(0.75 0 0 -0.75 165.2567 665.1466)">
		<stop  offset="0" style="stop-color:#C8C8C8"/>
		<stop  offset="0.28" style="stop-color:#A9A9A9"/>
		<stop  offset="0.56" style="stop-color:#E2E2E2"/>
		<stop  offset="0.78" style="stop-color:#C9C9C9"/>
		<stop  offset="1" style="stop-color:#373737"/>
	</linearGradient>
	<path fill="url(#SVGID_33_)" d="M316.925,533.667c0-10.5,8.305-19.5,18.762-19.5c10.488,0,18.938,8.754,18.938,19.555
		c-0.199,10.445-8.477,19.555-18.938,19.555c-10.512-0.109-18.934-8.754-18.934-19.555L316.925,533.667z"/>
	<path fill="#404040" d="M326.687,534c0-5.25,4.023-9.75,9.09-9.75c5.16,0,9.176,4.242,9.176,9.473
		c-0.266,5.527-4.109,9.477-9.176,9.477c-5.34-0.199-9.176-4.242-9.176-9.477L326.687,534z"/>
	
		<linearGradient id="SVGID_34_" gradientUnits="userSpaceOnUse" x1="220.1558" y1="200.2993" x2="201.3489" y2="184.5185" gradientTransform="matrix(0.75 0 0 -0.75 177.7557 678.0538)">
		<stop  offset="0" style="stop-color:#282828"/>
		<stop  offset="0.36" style="stop-color:#B7B7B7"/>
		<stop  offset="0.57" style="stop-color:#C7C7C7"/>
		<stop  offset="0.83" style="stop-color:#B4B4B4"/>
		<stop  offset="0.9" style="stop-color:#3A3A3A"/>
	</linearGradient>
	<path fill="url(#SVGID_34_)" d="M329.425,533.828c0-3.75,2.82-6.75,6.379-6.75c3.371,0,6.434,2.973,6.434,6.645
		c-0.063,3.855-2.879,6.648-6.434,6.648c-3.379,0.207-6.438-2.977-6.438-6.648L329.425,533.828z"/>
	
		<linearGradient id="SVGID_35_" gradientUnits="userSpaceOnUse" x1="211.1348" y1="201.7412" x2="202.5163" y2="191.4701" gradientTransform="matrix(0.75 0 0 -0.75 173.8192 668.8331)">
		<stop  offset="0" style="stop-color:#000000"/>
		<stop  offset="0.53" style="stop-color:#4F4F4F"/>
		<stop  offset="1" style="stop-color:#000000"/>
	</linearGradient>
	<path fill="url(#SVGID_35_)" d="M325.488,521.605c0-2.25,1.566-3.75,3.523-3.75c1.727,0,3.547,1.598,3.547,3.563
		c-0.32,1.688-1.586,3.566-3.547,3.566c-2.023,0.371-3.547-1.598-3.547-3.566L325.488,521.605z"/>
	
		<linearGradient id="SVGID_36_" gradientUnits="userSpaceOnUse" x1="211.1309" y1="201.7422" x2="202.515" y2="191.4742" gradientTransform="matrix(0.75 0 0 -0.75 179.6796 696.3888)">
		<stop  offset="0" style="stop-color:#000000"/>
		<stop  offset="0.53" style="stop-color:#4F4F4F"/>
		<stop  offset="1" style="stop-color:#000000"/>
	</linearGradient>
	<path fill="url(#SVGID_36_)" d="M331.347,549.16c0-2.25,1.566-3.75,3.523-3.75c1.727,0,3.551,1.598,3.551,3.566
		c-0.324,1.684-1.59,3.563-3.551,3.563c-2.023,0.371-3.547-1.598-3.547-3.563L331.347,549.16z"/>
	
		<linearGradient id="SVGID_37_" gradientUnits="userSpaceOnUse" x1="211.1328" y1="201.7427" x2="202.5152" y2="191.4726" gradientTransform="matrix(0.75 0 0 -0.75 166.6571 684.8888)">
		<stop  offset="0" style="stop-color:#000000"/>
		<stop  offset="0.53" style="stop-color:#4F4F4F"/>
		<stop  offset="1" style="stop-color:#000000"/>
	</linearGradient>
	<path fill="url(#SVGID_37_)" d="M318.324,537.66c0-2.25,1.566-3.75,3.527-3.75c1.723,0,3.547,1.598,3.547,3.563
		c-0.324,1.688-1.59,3.566-3.547,3.566c-2.027,0.371-3.551-1.598-3.551-3.566L318.324,537.66z"/>
	
		<linearGradient id="SVGID_38_" gradientUnits="userSpaceOnUse" x1="211.1348" y1="201.7407" x2="202.5163" y2="191.4696" gradientTransform="matrix(0.75 0 0 -0.75 191.2235 671.5939)">
		<stop  offset="0" style="stop-color:#000000"/>
		<stop  offset="0.53" style="stop-color:#4F4F4F"/>
		<stop  offset="1" style="stop-color:#000000"/>
	</linearGradient>
	<path fill="url(#SVGID_38_)" d="M342.894,524.367c0-2.25,1.563-3.75,3.523-3.75c1.727,0,3.547,1.594,3.547,3.563
		c-0.32,1.688-1.59,3.563-3.547,3.563c-2.023,0.375-3.547-1.594-3.547-3.563L342.894,524.367z"/>
	
		<linearGradient id="SVGID_39_" gradientUnits="userSpaceOnUse" x1="211.1333" y1="201.7417" x2="202.5166" y2="191.4727" gradientTransform="matrix(0.75 0 0 -0.75 193.368 687.7169)">
		<stop  offset="0" style="stop-color:#000000"/>
		<stop  offset="0.53" style="stop-color:#4F4F4F"/>
		<stop  offset="1" style="stop-color:#000000"/>
	</linearGradient>
	<path fill="url(#SVGID_39_)" d="M345.039,540.488c0-2.25,1.563-3.75,3.523-3.75c1.727,0,3.547,1.598,3.547,3.563
		c-0.32,1.688-1.59,3.566-3.547,3.566c-2.023,0.371-3.551-1.598-3.551-3.566L345.039,540.488z"/>
	
		<linearGradient id="SVGID_40_" gradientUnits="userSpaceOnUse" x1="491.7271" y1="201.3057" x2="491.7271" y2="193.3057" gradientTransform="matrix(0.75 0 0 -0.75 -140.1115 647.5958)">
		<stop  offset="0" style="stop-color:#B5B5B5"/>
		<stop  offset="0.01" style="stop-color:#FFFFFF"/>
		<stop  offset="0.02" style="stop-color:#EBEBEB"/>
		<stop  offset="0.64" style="stop-color:#E7E7E7"/>
		<stop  offset="0.99" style="stop-color:#E2E2E2"/>
		<stop  offset="1" style="stop-color:#A8A8A8"/>
	</linearGradient>
	<path fill="url(#SVGID_40_)" d="M445.808,502.617H14.559c0,0-3-0.996-3-3.887v-2.113h434.25V502.617z"/>
	
		<linearGradient id="SVGID_41_" gradientUnits="userSpaceOnUse" x1="280.8618" y1="203.939" x2="205.1901" y2="113.757" gradientTransform="matrix(0.75 0 0 -0.75 313.7743 652.9191)">
		<stop  offset="0" style="stop-color:#000000"/>
		<stop  offset="0.53" style="stop-color:#4F4F4F"/>
		<stop  offset="1" style="stop-color:#000000"/>
	</linearGradient>
	<path fill="url(#SVGID_41_)" d="M465.445,533.441c0-17.25,13.512-31.5,30.523-31.5c16.727,0,30.805,14.227,30.805,31.777
		c0.172,17.723-13.793,31.781-30.805,31.781c-17.023,0.191-30.805-14.227-30.805-31.781L465.445,533.441z"/>
	<path fill="#888889" d="M475.949,533.757c0-11.25,8.902-21,20.117-21c11.383,0,20.301,9.383,20.301,20.961
		c0.082,11.289-9.09,20.965-20.301,20.965c-11.117,0.074-20.301-9.387-20.301-20.965L475.949,533.757z"/>
	
		<linearGradient id="SVGID_42_" gradientUnits="userSpaceOnUse" x1="254.8877" y1="198.4487" x2="199.5782" y2="152.0386" gradientTransform="matrix(0.75 0 0 -0.75 325.6444 665.1437)">
		<stop  offset="0" style="stop-color:#C8C8C8"/>
		<stop  offset="0.28" style="stop-color:#A9A9A9"/>
		<stop  offset="0.56" style="stop-color:#E2E2E2"/>
		<stop  offset="0.78" style="stop-color:#C9C9C9"/>
		<stop  offset="1" style="stop-color:#373737"/>
	</linearGradient>
	<path fill="url(#SVGID_42_)" d="M477.312,533.667c0-10.5,8.309-19.5,18.766-19.5c10.484,0,18.934,8.754,18.934,19.551
		c-0.199,10.449-8.477,19.555-18.934,19.555c-10.516-0.105-18.938-8.754-18.938-19.555L477.312,533.667z"/>
	<path fill="#404040" d="M487.074,533.996c0-5.25,4.023-9.75,9.09-9.75c5.16,0,9.176,4.242,9.176,9.473
		c-0.266,5.527-4.105,9.477-9.176,9.477c-5.34-0.199-9.172-4.242-9.172-9.477L487.074,533.996z"/>
	
		<linearGradient id="SVGID_43_" gradientUnits="userSpaceOnUse" x1="220.1553" y1="200.2998" x2="201.3484" y2="184.5189" gradientTransform="matrix(0.75 0 0 -0.75 338.1434 678.0509)">
		<stop  offset="0" style="stop-color:#282828"/>
		<stop  offset="0.36" style="stop-color:#B7B7B7"/>
		<stop  offset="0.57" style="stop-color:#C7C7C7"/>
		<stop  offset="0.83" style="stop-color:#B4B4B4"/>
		<stop  offset="0.9" style="stop-color:#3A3A3A"/>
	</linearGradient>
	<path fill="url(#SVGID_43_)" d="M489.812,533.824c0-3.75,2.824-6.75,6.379-6.75c3.371,0,6.438,2.977,6.438,6.645
		c-0.066,3.855-2.883,6.648-6.438,6.648c-3.379,0.207-6.438-2.977-6.438-6.648L489.812,533.824z"/>
	
		<linearGradient id="SVGID_44_" gradientUnits="userSpaceOnUse" x1="211.1304" y1="201.7437" x2="202.5136" y2="191.4746" gradientTransform="matrix(0.75 0 0 -0.75 334.2069 668.8312)">
		<stop  offset="0" style="stop-color:#000000"/>
		<stop  offset="0.53" style="stop-color:#4F4F4F"/>
		<stop  offset="1" style="stop-color:#000000"/>
	</linearGradient>
	<path fill="url(#SVGID_44_)" d="M485.875,521.601c0-2.25,1.566-3.75,3.523-3.75c1.727,0,3.551,1.598,3.551,3.566
		c-0.324,1.684-1.59,3.563-3.551,3.563c-2.023,0.371-3.547-1.598-3.547-3.563L485.875,521.601z"/>
	
		<linearGradient id="SVGID_45_" gradientUnits="userSpaceOnUse" x1="211.1343" y1="201.7412" x2="202.5158" y2="191.4701" gradientTransform="matrix(0.75 0 0 -0.75 340.0673 696.3868)">
		<stop  offset="0" style="stop-color:#000000"/>
		<stop  offset="0.53" style="stop-color:#4F4F4F"/>
		<stop  offset="1" style="stop-color:#000000"/>
	</linearGradient>
	<path fill="url(#SVGID_45_)" d="M491.738,549.16c0-2.25,1.563-3.75,3.523-3.75c1.727,0,3.547,1.594,3.547,3.563
		c-0.32,1.688-1.59,3.563-3.547,3.563c-2.023,0.375-3.547-1.594-3.547-3.563L491.738,549.16z"/>
	
		<linearGradient id="SVGID_46_" gradientUnits="userSpaceOnUse" x1="211.1323" y1="201.7427" x2="202.5138" y2="191.4716" gradientTransform="matrix(0.75 0 0 -0.75 327.0448 684.8859)">
		<stop  offset="0" style="stop-color:#000000"/>
		<stop  offset="0.53" style="stop-color:#4F4F4F"/>
		<stop  offset="1" style="stop-color:#000000"/>
	</linearGradient>
	<path fill="url(#SVGID_46_)" d="M478.714,537.656c0-2.25,1.563-3.75,3.523-3.75c1.727,0,3.547,1.598,3.547,3.566
		c-0.32,1.684-1.59,3.563-3.547,3.563c-2.023,0.371-3.547-1.598-3.547-3.563L478.714,537.656z"/>
	
		<linearGradient id="SVGID_47_" gradientUnits="userSpaceOnUse" x1="211.1328" y1="201.7427" x2="202.5152" y2="191.4726" gradientTransform="matrix(0.75 0 0 -0.75 351.6122 671.5919)">
		<stop  offset="0" style="stop-color:#000000"/>
		<stop  offset="0.53" style="stop-color:#4F4F4F"/>
		<stop  offset="1" style="stop-color:#000000"/>
	</linearGradient>
	<path fill="url(#SVGID_47_)" d="M503.281,524.363c0-2.25,1.563-3.75,3.523-3.75c1.727,0,3.547,1.598,3.547,3.563
		c-0.32,1.688-1.586,3.566-3.547,3.566c-2.023,0.371-3.547-1.598-3.547-3.566L503.281,524.363z"/>
	
		<linearGradient id="SVGID_48_" gradientUnits="userSpaceOnUse" x1="211.1323" y1="201.7432" x2="202.5138" y2="191.472" gradientTransform="matrix(0.75 0 0 -0.75 353.7557 687.714)">
		<stop  offset="0" style="stop-color:#000000"/>
		<stop  offset="0.53" style="stop-color:#4F4F4F"/>
		<stop  offset="1" style="stop-color:#000000"/>
	</linearGradient>
	<path fill="url(#SVGID_48_)" d="M505.425,540.484c0-2.25,1.563-3.75,3.523-3.75c1.727,0,3.547,1.598,3.547,3.566
		c-0.32,1.684-1.59,3.563-3.547,3.563c-2.023,0.371-3.547-1.598-3.547-3.563L505.425,540.484z"/>
	
		<linearGradient id="SVGID_49_" gradientUnits="userSpaceOnUse" x1="484.7241" y1="201.3076" x2="484.7241" y2="29.3076" gradientTransform="matrix(0.75 0 0 -0.75 -140.2579 517.7062)">
		<stop  offset="0" style="stop-color:#C4C4C4"/>
		<stop  offset="0.15" style="stop-color:#FFFFFF"/>
		<stop  offset="0.25" style="stop-color:#FFFFFF"/>
		<stop  offset="0.44" style="stop-color:#DFDFDF"/>
		<stop  offset="0.6" style="stop-color:#C7C7C7"/>
		<stop  offset="0.8" style="stop-color:#A8A8A8"/>
		<stop  offset="1" style="stop-color:#999999"/>
	</linearGradient>
	<path fill="url(#SVGID_49_)" d="M11.41,366.726h423.75v129H11.41V366.726z"/>
	
		<linearGradient id="SVGID_50_" gradientUnits="userSpaceOnUse" x1="210.2261" y1="201.3037" x2="210.2261" y2="29.3037" gradientTransform="matrix(0.75 0 0 -0.75 -151.755 517.6798)">
		<stop  offset="0" style="stop-color:#C4C4C4"/>
		<stop  offset="0.15" style="stop-color:#FFFFFF"/>
		<stop  offset="0.25" style="stop-color:#FFFFFF"/>
		<stop  offset="0.44" style="stop-color:#DFDFDF"/>
		<stop  offset="0.6" style="stop-color:#C7C7C7"/>
		<stop  offset="0.8" style="stop-color:#A8A8A8"/>
		<stop  offset="1" style="stop-color:#999999"/>
	</linearGradient>
	<path fill="url(#SVGID_50_)" d="M11.914,366.703v129c0,0-12.023-0.281-12-64.406c0-63.844,11.625-64.594,11.625-64.594H11.914z"/>
	
		<linearGradient id="SVGID_51_" gradientUnits="userSpaceOnUse" x1="173.7065" y1="201.3037" x2="173.7065" y2="29.3037" gradientTransform="matrix(-0.75 0 0 -0.75 570.5831 517.6798)">
		<stop  offset="0" style="stop-color:#C4C4C4"/>
		<stop  offset="0.15" style="stop-color:#FFFFFF"/>
		<stop  offset="0.25" style="stop-color:#FFFFFF"/>
		<stop  offset="0.44" style="stop-color:#DFDFDF"/>
		<stop  offset="0.6" style="stop-color:#C7C7C7"/>
		<stop  offset="0.8" style="stop-color:#A8A8A8"/>
		<stop  offset="1" style="stop-color:#999999"/>
	</linearGradient>
	<path fill="url(#SVGID_51_)" d="M434.304,366.703v129c0,0,12.023-0.281,12-64.406c0-63.844-11.625-64.594-11.625-64.594H434.304z"
		/>
	<path fill="#B4B5B5" d="M11.41,358.398h423.75v9.75H11.41V358.398z"/>
	
		<linearGradient id="SVGID_52_" gradientUnits="userSpaceOnUse" x1="213.2246" y1="118.8066" x2="202.2246" y2="118.8066" gradientTransform="matrix(0.75 0 0 -0.75 285.7762 524.1075)">
		<stop  offset="0" style="stop-color:#B5B5B5"/>
		<stop  offset="0.01" style="stop-color:#FFFFFF"/>
		<stop  offset="0.02" style="stop-color:#EBEBEB"/>
		<stop  offset="0.64" style="stop-color:#E7E7E7"/>
		<stop  offset="0.99" style="stop-color:#E2E2E2"/>
		<stop  offset="1" style="stop-color:#A8A8A8"/>
	</linearGradient>
	<path fill="url(#SVGID_52_)" d="M437.445,373.128h8.25v123.75h-8.25V373.128z"/>
	<path fill="#E85464" d="M11.41,416.089h423.75v9H11.41V416.089z"/>
	<path fill="#E85464" d="M11.41,435.488h423.75v9H11.41V435.488z"/>
	<path fill="#E43A4D" d="M526.855,521.421c0,0,1.066,3.371,1.066,3.785l33.434-0.035c0,0,3.434-0.727,4.395-3.691L526.855,521.421z"
		/>
</g>
</svg>
