<?xml version="1.0" encoding="utf-8"?>
<!-- Generator: Adobe Illustrator 16.0.0, SVG Export Plug-In . SVG Version: 6.00 Build 0)  -->
<!DOCTYPE svg PUBLIC "-//W3C//DTD SVG 1.1//EN" "http://www.w3.org/Graphics/SVG/1.1/DTD/svg11.dtd">
<svg preserveAspectRatio="none"   version="1.1" id="图层_1" xmlns="http://www.w3.org/2000/svg" xmlns:xlink="http://www.w3.org/1999/xlink" x="0px" y="0px"
	 width="561.011px" height="496.64px" viewBox="3.141 69.68 561.011 496.64" enable-background="new 3.141 69.68 561.011 496.64"
	 xml:space="preserve">
<g id="surface606">
	
		<linearGradient id="SVGID_1_" gradientUnits="userSpaceOnUse" x1="221.2227" y1="188.3057" x2="202.2227" y2="188.3057" gradientTransform="matrix(0.75 0 0 -0.75 -63.1906 689.4396)">
		<stop  offset="0" style="stop-color:#92A6AE"/>
		<stop  offset="0.01" style="stop-color:#DAEFF8"/>
		<stop  offset="0.03" style="stop-color:#BED8E3"/>
		<stop  offset="0.64" style="stop-color:#BBD5DF"/>
		<stop  offset="0.98" style="stop-color:#B7D0DA"/>
		<stop  offset="1" style="stop-color:#879AA2"/>
	</linearGradient>
	<path fill="url(#SVGID_1_)" d="M102.727,538.46h-14.25v19.5h14.25V538.46z"/>
	
		<linearGradient id="SVGID_2_" gradientUnits="userSpaceOnUse" x1="221.2236" y1="188.3047" x2="202.2236" y2="188.3047" gradientTransform="matrix(0.75 0 0 -0.75 189.4803 688.3165)">
		<stop  offset="0" style="stop-color:#92A6AE"/>
		<stop  offset="0.01" style="stop-color:#DAEFF8"/>
		<stop  offset="0.03" style="stop-color:#BED8E3"/>
		<stop  offset="0.64" style="stop-color:#BBD5DF"/>
		<stop  offset="0.98" style="stop-color:#B7D0DA"/>
		<stop  offset="1" style="stop-color:#879AA2"/>
	</linearGradient>
	<path fill="url(#SVGID_2_)" d="M355.398,537.339h-14.25v19.5h14.25V537.339z"/>
	
		<linearGradient id="SVGID_3_" gradientUnits="userSpaceOnUse" x1="494.2251" y1="168.8052" x2="202.2261" y2="168.8051" gradientTransform="matrix(0.75 0 0 -0.75 98.6307 485.6525)">
		<stop  offset="0" style="stop-color:#92A6AE"/>
		<stop  offset="0.01" style="stop-color:#DAEFF8"/>
		<stop  offset="0.03" style="stop-color:#BED8E3"/>
		<stop  offset="0.64" style="stop-color:#BBD5DF"/>
		<stop  offset="0.98" style="stop-color:#B7D0DA"/>
		<stop  offset="1" style="stop-color:#879AA2"/>
	</linearGradient>
	<path fill="url(#SVGID_3_)" d="M250.301,334.675h219l-78,48.75h-63L250.301,334.675z"/>
	
		<linearGradient id="SVGID_4_" gradientUnits="userSpaceOnUse" x1="285.2261" y1="180.3037" x2="202.2261" y2="180.3037" gradientTransform="matrix(0.75 0 0 -0.75 176.161 533.4845)">
		<stop  offset="0" style="stop-color:#92A6AE"/>
		<stop  offset="0.01" style="stop-color:#DAEFF8"/>
		<stop  offset="0.03" style="stop-color:#BED8E3"/>
		<stop  offset="0.64" style="stop-color:#BBD5DF"/>
		<stop  offset="0.98" style="stop-color:#B7D0DA"/>
		<stop  offset="1" style="stop-color:#879AA2"/>
	</linearGradient>
	<path fill="url(#SVGID_4_)" d="M327.832,382.507h62.25v31.5h-62.25V382.507z"/>
	
		<linearGradient id="SVGID_5_" gradientUnits="userSpaceOnUse" x1="292.2251" y1="198.3486" x2="202.2251" y2="198.3486" gradientTransform="matrix(0.75 0 0 -0.75 174.3885 564.2267)">
		<stop  offset="0" style="stop-color:#7098A9"/>
		<stop  offset="0.01" style="stop-color:#B8E1F2"/>
		<stop  offset="0.03" style="stop-color:#93C7DC"/>
		<stop  offset="0.64" style="stop-color:#91C4D9"/>
		<stop  offset="0.98" style="stop-color:#8DBFD4"/>
		<stop  offset="1" style="stop-color:#688D9D"/>
	</linearGradient>
	<path fill="url(#SVGID_5_)" d="M326.808,413.25h66c0.75,0,0.738,0.188,0.738,0.504l0.012,3.246c0,0.75-0.297,0.734-0.613,0.734
		l-66.137,0.016c-0.75,0-0.75-0.27-0.75-0.582V414c0-0.75,0.207-0.816,0.523-0.816L326.808,413.25z"/>
	
		<linearGradient id="SVGID_6_" gradientUnits="userSpaceOnUse" x1="517.8257" y1="201.3818" x2="517.8257" y2="184.3037" gradientTransform="matrix(0.75 0 0 -0.75 -148.527 672.4894)">
		<stop  offset="0" style="stop-color:#4E4D4D"/>
		<stop  offset="0.01" style="stop-color:#9C9B9B"/>
		<stop  offset="0.03" style="stop-color:#686767"/>
		<stop  offset="0.64" style="stop-color:#666565"/>
		<stop  offset="0.98" style="stop-color:#636262"/>
		<stop  offset="1" style="stop-color:#484747"/>
	</linearGradient>
	<path fill="url(#SVGID_6_)" d="M4.641,521.511h470.25c0.75,0,1.652,0.703,1.652,1.648l-0.152,9.602c0,0.75-0.617,1.488-1.563,1.488
		L4.641,534.261c-0.75,0-1.5-0.773-1.5-1.715v-9.535c0-0.75,0.77-1.559,1.719-1.559L4.641,521.511z"/>
	
		<linearGradient id="SVGID_7_" gradientUnits="userSpaceOnUse" x1="552.2231" y1="196.3062" x2="202.2231" y2="196.3061" gradientTransform="matrix(0.75 0 0 -0.75 76.91 220.6583)">
		<stop  offset="0" style="stop-color:#92A6AE"/>
		<stop  offset="0.01" style="stop-color:#DAEFF8"/>
		<stop  offset="0.03" style="stop-color:#BED8E3"/>
		<stop  offset="0.64" style="stop-color:#BBD5DF"/>
		<stop  offset="0.98" style="stop-color:#B7D0DA"/>
		<stop  offset="1" style="stop-color:#879AA2"/>
	</linearGradient>
	<path fill="url(#SVGID_7_)" d="M228.578,69.68h262.5v7.5h-262.5V69.68z"/>
	
		<linearGradient id="SVGID_8_" gradientUnits="userSpaceOnUse" x1="534.2212" y1="175.8071" x2="202.2227" y2="175.8071" gradientTransform="matrix(0.75 0 0 -0.75 83.7035 227.8575)">
		<stop  offset="0" style="stop-color:#92A6AE"/>
		<stop  offset="0.01" style="stop-color:#DAEFF8"/>
		<stop  offset="0.03" style="stop-color:#BED8E3"/>
		<stop  offset="0.64" style="stop-color:#BBD5DF"/>
		<stop  offset="0.98" style="stop-color:#B7D0DA"/>
		<stop  offset="1" style="stop-color:#879AA2"/>
	</linearGradient>
	<path fill="url(#SVGID_8_)" d="M235.371,76.879h249v38.25h-249V76.879z"/>
	
		<linearGradient id="SVGID_9_" gradientUnits="userSpaceOnUse" x1="534.2212" y1="149.3042" x2="202.2227" y2="149.3042" gradientTransform="matrix(0.75 0 0 -0.75 83.7035 266.0665)">
		<stop  offset="0" style="stop-color:#92A6AE"/>
		<stop  offset="0.01" style="stop-color:#DAEFF8"/>
		<stop  offset="0.03" style="stop-color:#BED8E3"/>
		<stop  offset="0.64" style="stop-color:#BBD5DF"/>
		<stop  offset="0.98" style="stop-color:#B7D0DA"/>
		<stop  offset="1" style="stop-color:#879AA2"/>
	</linearGradient>
	<path fill="url(#SVGID_9_)" d="M235.371,115.09h249l-53.25,78h-143.25L235.371,115.09z"/>
	
		<linearGradient id="SVGID_10_" gradientUnits="userSpaceOnUse" x1="549.2231" y1="110.3047" x2="202.2246" y2="110.3047" gradientTransform="matrix(0.75 0 0 -0.75 77.9833 344.1486)">
		<stop  offset="0" style="stop-color:#92A6AE"/>
		<stop  offset="0.01" style="stop-color:#DAEFF8"/>
		<stop  offset="0.03" style="stop-color:#BED8E3"/>
		<stop  offset="0.64" style="stop-color:#BBD5DF"/>
		<stop  offset="0.98" style="stop-color:#B7D0DA"/>
		<stop  offset="1" style="stop-color:#879AA2"/>
	</linearGradient>
	<path fill="url(#SVGID_10_)" d="M229.652,193.172h260.25v136.5h-260.25V193.172z"/>
	
		<linearGradient id="SVGID_11_" gradientUnits="userSpaceOnUse" x1="291.2212" y1="133.8066" x2="202.2212" y2="133.8066" gradientTransform="matrix(0.75 0 0 -0.75 338.2821 486.838)">
		<stop  offset="0" style="stop-color:#92A6AE"/>
		<stop  offset="0.01" style="stop-color:#DAEFF8"/>
		<stop  offset="0.03" style="stop-color:#BED8E3"/>
		<stop  offset="0.64" style="stop-color:#BBD5DF"/>
		<stop  offset="0.98" style="stop-color:#B7D0DA"/>
		<stop  offset="1" style="stop-color:#879AA2"/>
	</linearGradient>
	<path fill="url(#SVGID_11_)" d="M489.949,335.859h66.75v101.25h-66.75V335.859z"/>
	<path fill="#3E3938" d="M500.886,352.453h45v23.25h-45V352.453z"/>
	
		<linearGradient id="SVGID_12_" gradientUnits="userSpaceOnUse" x1="503.2241" y1="201.3057" x2="503.2241" y2="170.3057" gradientTransform="matrix(0.75 0 0 -0.75 -137.6095 667.3224)">
		<stop  offset="0" style="stop-color:#92A6AE"/>
		<stop  offset="0.01" style="stop-color:#DAEFF8"/>
		<stop  offset="0.03" style="stop-color:#BED8E3"/>
		<stop  offset="0.64" style="stop-color:#BBD5DF"/>
		<stop  offset="0.98" style="stop-color:#B7D0DA"/>
		<stop  offset="1" style="stop-color:#879AA2"/>
	</linearGradient>
	<path fill="url(#SVGID_12_)" d="M14.059,516.343h451.5v23.25h-451.5V516.343z"/>
	
		<linearGradient id="SVGID_13_" gradientUnits="userSpaceOnUse" x1="267.2246" y1="201.3066" x2="267.2246" y2="191.3057" gradientTransform="matrix(0.75 0 0 -0.75 269.953 649.2482)">
		<stop  offset="0" style="stop-color:#92A6AE"/>
		<stop  offset="0.01" style="stop-color:#DAEFF8"/>
		<stop  offset="0.03" style="stop-color:#BED8E3"/>
		<stop  offset="0.64" style="stop-color:#BBD5DF"/>
		<stop  offset="0.98" style="stop-color:#B7D0DA"/>
		<stop  offset="1" style="stop-color:#879AA2"/>
	</linearGradient>
	<path fill="url(#SVGID_13_)" d="M421.621,498.269h97.5v7.5h-97.5V498.269z"/>
	
		<linearGradient id="SVGID_14_" gradientUnits="userSpaceOnUse" x1="221.2256" y1="167.3066" x2="202.2256" y2="167.3066" gradientTransform="matrix(0.75 0 0 -0.75 289.5956 655.838)">
		<stop  offset="0" style="stop-color:#92A6AE"/>
		<stop  offset="0.01" style="stop-color:#DAEFF8"/>
		<stop  offset="0.03" style="stop-color:#BED8E3"/>
		<stop  offset="0.64" style="stop-color:#BBD5DF"/>
		<stop  offset="0.98" style="stop-color:#B7D0DA"/>
		<stop  offset="1" style="stop-color:#879AA2"/>
	</linearGradient>
	<path fill="url(#SVGID_14_)" d="M455.515,504.859h-14.25v51h14.25V504.859z"/>
	
		<linearGradient id="SVGID_15_" gradientUnits="userSpaceOnUse" x1="226.2227" y1="96.3066" x2="202.2227" y2="96.3066" gradientTransform="matrix(0.75 0 0 -0.75 -20.7609 509.8302)">
		<stop  offset="0" style="stop-color:#92A6AE"/>
		<stop  offset="0.01" style="stop-color:#DAEFF8"/>
		<stop  offset="0.03" style="stop-color:#BED8E3"/>
		<stop  offset="0.64" style="stop-color:#BBD5DF"/>
		<stop  offset="0.98" style="stop-color:#B7D0DA"/>
		<stop  offset="1" style="stop-color:#879AA2"/>
	</linearGradient>
	<path fill="url(#SVGID_15_)" d="M130.906,358.851h18v157.5h-18V358.851z"/>
	
		<linearGradient id="SVGID_16_" gradientUnits="userSpaceOnUse" x1="413.7241" y1="201.3018" x2="413.7241" y2="173.3018" gradientTransform="matrix(0.75 0 0 -0.75 -120.6373 623.839)">
		<stop  offset="0" style="stop-color:#92A6AE"/>
		<stop  offset="0.01" style="stop-color:#DAEFF8"/>
		<stop  offset="0.03" style="stop-color:#BED8E3"/>
		<stop  offset="0.64" style="stop-color:#BBD5DF"/>
		<stop  offset="0.98" style="stop-color:#B7D0DA"/>
		<stop  offset="1" style="stop-color:#879AA2"/>
	</linearGradient>
	<path fill="url(#SVGID_16_)" d="M348.281,472.863H31.031v21h317.25V472.863z"/>
	
		<linearGradient id="SVGID_17_" gradientUnits="userSpaceOnUse" x1="215.2256" y1="54.8027" x2="202.2256" y2="54.8027" gradientTransform="matrix(0.75 0 0 -0.75 328.326 487.0743)">
		<stop  offset="0" style="stop-color:#92A6AE"/>
		<stop  offset="0.01" style="stop-color:#DAEFF8"/>
		<stop  offset="0.03" style="stop-color:#BED8E3"/>
		<stop  offset="0.64" style="stop-color:#BBD5DF"/>
		<stop  offset="0.98" style="stop-color:#B7D0DA"/>
		<stop  offset="1" style="stop-color:#879AA2"/>
	</linearGradient>
	<path fill="url(#SVGID_17_)" d="M479.996,336.097h9.75v219.75h-9.75V336.097z"/>
	
		<linearGradient id="SVGID_18_" gradientUnits="userSpaceOnUse" x1="215.2256" y1="53.8047" x2="202.2256" y2="53.8047" gradientTransform="matrix(0.75 0 0 -0.75 77.9828 487.0753)">
		<stop  offset="0" style="stop-color:#92A6AE"/>
		<stop  offset="0.01" style="stop-color:#DAEFF8"/>
		<stop  offset="0.03" style="stop-color:#BED8E3"/>
		<stop  offset="0.64" style="stop-color:#BBD5DF"/>
		<stop  offset="0.98" style="stop-color:#B7D0DA"/>
		<stop  offset="1" style="stop-color:#879AA2"/>
	</linearGradient>
	<path fill="url(#SVGID_18_)" d="M229.652,336.097h9.75v221.25h-9.75V336.097z"/>
	
		<linearGradient id="SVGID_19_" gradientUnits="userSpaceOnUse" x1="512.7271" y1="201.3066" x2="512.7271" y2="187.3057" gradientTransform="matrix(0.75 0 0 -0.75 -123.2599 706.799)">
		<stop  offset="0" style="stop-color:#92A6AE"/>
		<stop  offset="0.01" style="stop-color:#DAEFF8"/>
		<stop  offset="0.03" style="stop-color:#BED8E3"/>
		<stop  offset="0.64" style="stop-color:#BBD5DF"/>
		<stop  offset="0.98" style="stop-color:#B7D0DA"/>
		<stop  offset="1" style="stop-color:#879AA2"/>
	</linearGradient>
	<path fill="url(#SVGID_19_)" d="M494.16,566.32H28.41v-10.5h465.75V566.32z"/>
	
		<linearGradient id="SVGID_20_" gradientUnits="userSpaceOnUse" x1="648.2241" y1="196.8062" x2="202.2251" y2="196.8061" gradientTransform="matrix(0.75 0 0 -0.75 77.9828 480.2013)">
		<stop  offset="0" style="stop-color:#7098A9"/>
		<stop  offset="0.01" style="stop-color:#B8E1F2"/>
		<stop  offset="0.03" style="stop-color:#93C7DC"/>
		<stop  offset="0.64" style="stop-color:#91C4D9"/>
		<stop  offset="0.98" style="stop-color:#8DBFD4"/>
		<stop  offset="1" style="stop-color:#688D9D"/>
	</linearGradient>
	<path fill="url(#SVGID_20_)" d="M229.652,329.222h334.5v6.75h-334.5V329.222z"/>
	
		<linearGradient id="SVGID_21_" gradientUnits="userSpaceOnUse" x1="549.2231" y1="193.3042" x2="202.2246" y2="193.3042" gradientTransform="matrix(0.75 0 0 -0.75 77.9833 344.1486)">
		<stop  offset="0" style="stop-color:#92A6AE"/>
		<stop  offset="0.01" style="stop-color:#DAEFF8"/>
		<stop  offset="0.03" style="stop-color:#BED8E3"/>
		<stop  offset="0.64" style="stop-color:#BBD5DF"/>
		<stop  offset="0.98" style="stop-color:#B7D0DA"/>
		<stop  offset="1" style="stop-color:#879AA2"/>
	</linearGradient>
	<path fill="url(#SVGID_21_)" d="M229.652,193.172h260.25v12h-260.25V193.172z"/>
	
		<linearGradient id="SVGID_22_" gradientUnits="userSpaceOnUse" x1="549.2231" y1="193.3052" x2="202.2246" y2="193.3051" gradientTransform="matrix(0.75 0 0 -0.75 77.9833 468.2277)">
		<stop  offset="0" style="stop-color:#92A6AE"/>
		<stop  offset="0.01" style="stop-color:#DAEFF8"/>
		<stop  offset="0.03" style="stop-color:#BED8E3"/>
		<stop  offset="0.64" style="stop-color:#BBD5DF"/>
		<stop  offset="0.98" style="stop-color:#B7D0DA"/>
		<stop  offset="1" style="stop-color:#879AA2"/>
	</linearGradient>
	<path fill="url(#SVGID_22_)" d="M229.652,317.25h260.25v12h-260.25V317.25z"/>
	
		<linearGradient id="SVGID_23_" gradientUnits="userSpaceOnUse" x1="460.2271" y1="193.3076" x2="202.2275" y2="193.3076" gradientTransform="matrix(0.75 0 0 -0.75 111.5634 332.1749)">
		<stop  offset="0" style="stop-color:#7098A9"/>
		<stop  offset="0.01" style="stop-color:#B8E1F2"/>
		<stop  offset="0.03" style="stop-color:#93C7DC"/>
		<stop  offset="0.64" style="stop-color:#91C4D9"/>
		<stop  offset="0.98" style="stop-color:#8DBFD4"/>
		<stop  offset="1" style="stop-color:#688D9D"/>
	</linearGradient>
	<path fill="url(#SVGID_23_)" d="M263.234,181.195h193.5v12h-193.5V181.195z"/>
	
		<linearGradient id="SVGID_24_" gradientUnits="userSpaceOnUse" x1="226.2266" y1="174.3047" x2="202.2266" y2="174.3047" gradientTransform="matrix(0.75 0 0 -0.75 13.0873 583.0714)">
		<stop  offset="0" style="stop-color:#9EB4BD"/>
		<stop  offset="0.15" style="stop-color:#D2ECF7"/>
		<stop  offset="0.25" style="stop-color:#E6F4FA"/>
		<stop  offset="0.52" style="stop-color:#B5CED7"/>
		<stop  offset="0.69" style="stop-color:#A1B7C0"/>
		<stop  offset="0.8" style="stop-color:#98ADB5"/>
		<stop  offset="0.97" style="stop-color:#8FA3AB"/>
		<stop  offset="1" style="stop-color:#A5BBC4"/>
	</linearGradient>
	<path fill="url(#SVGID_24_)" d="M164.758,472.593h18v-40.5h-18V472.593z"/>
	
		<linearGradient id="SVGID_25_" gradientUnits="userSpaceOnUse" x1="255.2246" y1="174.3047" x2="202.2246" y2="174.3047" gradientTransform="matrix(0.75 0 0 -0.75 2.0028 545.3829)">
		<stop  offset="0" style="stop-color:#92A6AE"/>
		<stop  offset="0.01" style="stop-color:#DAEFF8"/>
		<stop  offset="0.03" style="stop-color:#BED8E3"/>
		<stop  offset="0.64" style="stop-color:#BBD5DF"/>
		<stop  offset="0.98" style="stop-color:#B7D0DA"/>
		<stop  offset="1" style="stop-color:#879AA2"/>
	</linearGradient>
	<path fill="url(#SVGID_25_)" d="M153.672,434.906h39.75v-40.5h-39.75V434.906z"/>
	
		<linearGradient id="SVGID_26_" gradientUnits="userSpaceOnUse" x1="226.2236" y1="196.3066" x2="202.2236" y2="196.3066" gradientTransform="matrix(0.75 0 0 -0.75 -20.7614 509.8302)">
		<stop  offset="0" style="stop-color:#7098A9"/>
		<stop  offset="0.01" style="stop-color:#B8E1F2"/>
		<stop  offset="0.03" style="stop-color:#93C7DC"/>
		<stop  offset="0.64" style="stop-color:#91C4D9"/>
		<stop  offset="0.98" style="stop-color:#8DBFD4"/>
		<stop  offset="1" style="stop-color:#688D9D"/>
	</linearGradient>
	<path fill="url(#SVGID_26_)" d="M130.906,358.851h18v7.5h-18V358.851z"/>
	<path fill="#7D040F" stroke="#000000" stroke-width="0.25" stroke-linejoin="bevel" stroke-miterlimit="10" d="M164.426,416.562
		c2.25,0,3.762,1.789,3.762,4.016c-0.012,1.984-1.816,4.016-4.059,4.016c-1.953,0.219-4.051-1.805-4.051-4.016
		c-0.152-2.516,1.82-4.027,4.051-4.027L164.426,416.562z"/>
	
		<linearGradient id="SVGID_27_" gradientUnits="userSpaceOnUse" x1="368.0005" y1="403.0366" x2="374.0234" y2="392.6046" gradientTransform="matrix(0 0.75 0.75 0 -134.234 142.329)">
		<stop  offset="0" style="stop-color:#9F5153"/>
		<stop  offset="1" style="stop-color:#7B030D"/>
	</linearGradient>
	<path fill="url(#SVGID_27_)" stroke="#FFFFFF" stroke-width="0.25" stroke-linejoin="bevel" stroke-miterlimit="10" d="
		M164.434,417.296c1.5,0,3.008,1.461,3.008,3.281c-0.008,1.969-1.48,3.281-3.313,3.281c-1.945,0.188-3.309-1.473-3.309-3.281
		c-0.137-1.781,1.484-3.289,3.309-3.289L164.434,417.296z"/>
	<path fill="#276F71" stroke="#000000" stroke-width="0.25" stroke-linejoin="bevel" stroke-miterlimit="10" d="M164.43,402.96
		c2.25,0,3.762,1.793,3.762,4.02c-0.012,1.98-1.816,4.016-4.059,4.016c-1.953,0.215-4.051-1.805-4.051-4.016
		c-0.152-2.52,1.82-4.027,4.051-4.027L164.43,402.96z"/>
	
		<linearGradient id="SVGID_28_" gradientUnits="userSpaceOnUse" x1="368.0015" y1="403.0376" x2="374.0244" y2="392.6056" gradientTransform="matrix(0 0.75 0.75 0 -134.2306 128.7299)">
		<stop  offset="0" style="stop-color:#91CFD1"/>
		<stop  offset="1" style="stop-color:#49AEB1"/>
	</linearGradient>
	<path fill="url(#SVGID_28_)" stroke="#FFFFFF" stroke-width="0.25" stroke-linejoin="bevel" stroke-miterlimit="10" d="
		M164.438,403.699c1.5,0,3.008,1.461,3.008,3.281c-0.008,1.969-1.48,3.281-3.313,3.281c-1.945,0.188-3.309-1.477-3.309-3.281
		c-0.137-1.781,1.484-3.289,3.309-3.289L164.438,403.699z"/>
	
		<linearGradient id="SVGID_29_" gradientUnits="userSpaceOnUse" x1="213.2266" y1="196.8047" x2="202.2266" y2="196.8047" gradientTransform="matrix(0.75 0 0 -0.75 26.9589 568.3751)">
		<stop  offset="0" style="stop-color:#7098A9"/>
		<stop  offset="0.01" style="stop-color:#B8E1F2"/>
		<stop  offset="0.03" style="stop-color:#93C7DC"/>
		<stop  offset="0.64" style="stop-color:#91C4D9"/>
		<stop  offset="0.98" style="stop-color:#8DBFD4"/>
		<stop  offset="1" style="stop-color:#688D9D"/>
	</linearGradient>
	<path fill="url(#SVGID_29_)" d="M178.629,417.398h8.25v6.75h-8.25V417.398z"/>
	
		<linearGradient id="SVGID_30_" gradientUnits="userSpaceOnUse" x1="213.2266" y1="196.8066" x2="202.2266" y2="196.8066" gradientTransform="matrix(0.75 0 0 -0.75 26.9589 554.7765)">
		<stop  offset="0" style="stop-color:#7098A9"/>
		<stop  offset="0.01" style="stop-color:#B8E1F2"/>
		<stop  offset="0.03" style="stop-color:#93C7DC"/>
		<stop  offset="0.64" style="stop-color:#91C4D9"/>
		<stop  offset="0.98" style="stop-color:#8DBFD4"/>
		<stop  offset="1" style="stop-color:#688D9D"/>
	</linearGradient>
	<path fill="url(#SVGID_30_)" d="M178.629,403.796h8.25v6.75h-8.25V403.796z"/>
	<path fill="#7D040F" stroke="#000000" stroke-width="0.25" stroke-linejoin="bevel" stroke-miterlimit="10" d="M532.148,395.359
		c1.5,0,3.008,1.469,3.008,3.301c-0.008,1.949-1.488,3.301-3.336,3.301c-1.922,0.148-3.328-1.484-3.328-3.301
		c-0.094-1.801,1.496-3.313,3.328-3.313L532.148,395.359z"/>
	
		<linearGradient id="SVGID_31_" gradientUnits="userSpaceOnUse" x1="367.8218" y1="402.9312" x2="372.7651" y2="394.369" gradientTransform="matrix(0 0.75 0.75 0 232.87 120.9935)">
		<stop  offset="0" style="stop-color:#9F5153"/>
		<stop  offset="1" style="stop-color:#7B030D"/>
	</linearGradient>
	<path fill="url(#SVGID_31_)" stroke="#FFFFFF" stroke-width="0.25" stroke-linejoin="bevel" stroke-miterlimit="10" d="
		M531.539,395.96c1.5,0,3.008,1.203,3.008,2.699c-0.008,1.801-1.219,2.695-2.727,2.695c-1.781-0.145-2.719-1.211-2.719-2.695
		c0.188-1.199,1.223-2.703,2.719-2.703L531.539,395.96z"/>
	<path fill="#276F71" stroke="#000000" stroke-width="0.25" stroke-linejoin="bevel" stroke-miterlimit="10" d="M523.554,395.359
		c1.5,0,3.008,1.469,3.008,3.301c-0.008,1.949-1.492,3.301-3.336,3.301c-1.922,0.148-3.328-1.484-3.328-3.301
		c-0.094-1.801,1.496-3.313,3.328-3.313L523.554,395.359z"/>
	
		<linearGradient id="SVGID_32_" gradientUnits="userSpaceOnUse" x1="367.8228" y1="402.9292" x2="372.7654" y2="394.3682" gradientTransform="matrix(0 0.75 0.75 0 224.2762 120.9935)">
		<stop  offset="0" style="stop-color:#91CFD1"/>
		<stop  offset="1" style="stop-color:#49AEB1"/>
	</linearGradient>
	<path fill="url(#SVGID_32_)" stroke="#FFFFFF" stroke-width="0.25" stroke-linejoin="bevel" stroke-miterlimit="10" d="
		M522.945,395.96c1.5,0,3.008,1.203,3.008,2.699c-0.008,1.801-1.219,2.695-2.727,2.695c-1.781-0.145-2.719-1.211-2.719-2.695
		c0.188-1.199,1.223-2.703,2.719-2.703L522.945,395.96z"/>
	<path fill="#7D040F" stroke="#000000" stroke-width="0.25" stroke-linejoin="bevel" stroke-miterlimit="10" d="M540.859,395.359
		c1.5,0,3.008,1.469,3.008,3.301c-0.008,1.949-1.488,3.301-3.336,3.301c-1.922,0.148-3.328-1.484-3.328-3.301
		c-0.094-1.801,1.496-3.313,3.328-3.313L540.859,395.359z"/>
	
		<linearGradient id="SVGID_33_" gradientUnits="userSpaceOnUse" x1="367.8208" y1="402.9292" x2="372.7636" y2="394.368" gradientTransform="matrix(0 0.75 0.75 0 241.5809 120.9935)">
		<stop  offset="0" style="stop-color:#9F5153"/>
		<stop  offset="1" style="stop-color:#7B030D"/>
	</linearGradient>
	<path fill="url(#SVGID_33_)" stroke="#FFFFFF" stroke-width="0.25" stroke-linejoin="bevel" stroke-miterlimit="10" d="
		M540.25,395.96c1.5,0,3.008,1.203,3.008,2.699c-0.008,1.801-1.219,2.695-2.727,2.695c-1.781-0.145-2.719-1.211-2.719-2.695
		c0.188-1.199,1.223-2.703,2.719-2.703L540.25,395.96z"/>
	<path fill="#276F71" stroke="#000000" stroke-width="0.25" stroke-linejoin="bevel" stroke-miterlimit="10" d="M514.941,395.359
		c1.5,0,3.008,1.469,3.008,3.301c-0.008,1.949-1.492,3.301-3.336,3.301c-1.922,0.148-3.332-1.484-3.332-3.301
		c-0.09-1.801,1.496-3.313,3.332-3.313L514.941,395.359z"/>
	
		<linearGradient id="SVGID_34_" gradientUnits="userSpaceOnUse" x1="367.8228" y1="402.9302" x2="372.7657" y2="394.3686" gradientTransform="matrix(0 0.75 0.75 0 215.661 120.9935)">
		<stop  offset="0" style="stop-color:#91CFD1"/>
		<stop  offset="1" style="stop-color:#49AEB1"/>
	</linearGradient>
	<path fill="url(#SVGID_34_)" stroke="#FFFFFF" stroke-width="0.25" stroke-linejoin="bevel" stroke-miterlimit="10" d="
		M514.332,395.96c1.5,0,3.004,1.203,3.004,2.699c-0.004,1.801-1.219,2.695-2.723,2.695c-1.781-0.145-2.719-1.211-2.719-2.695
		c0.188-1.199,1.219-2.703,2.719-2.703L514.332,395.96z"/>
	<path fill="#7D040F" stroke="#000000" stroke-width="0.25" stroke-linejoin="bevel" stroke-miterlimit="10" d="M506.335,395.359
		c1.5,0,3.008,1.469,3.008,3.301c-0.008,1.949-1.492,3.301-3.34,3.301c-1.918,0.148-3.328-1.484-3.328-3.301
		c-0.09-1.801,1.496-3.313,3.328-3.313L506.335,395.359z"/>
	
		<linearGradient id="SVGID_35_" gradientUnits="userSpaceOnUse" x1="367.8198" y1="402.9292" x2="372.7633" y2="394.3668" gradientTransform="matrix(0 0.75 0.75 0 207.0555 120.9935)">
		<stop  offset="0" style="stop-color:#9F5153"/>
		<stop  offset="1" style="stop-color:#7B030D"/>
	</linearGradient>
	<path fill="url(#SVGID_35_)" stroke="#FFFFFF" stroke-width="0.25" stroke-linejoin="bevel" stroke-miterlimit="10" d="
		M505.722,395.96c1.5,0,3.008,1.203,3.008,2.699c-0.008,1.801-1.219,2.695-2.727,2.695c-1.781-0.145-2.719-1.211-2.719-2.695
		c0.188-1.199,1.223-2.703,2.719-2.703L505.722,395.96z"/>
</g>
</svg>
