<?xml version="1.0" encoding="utf-8"?>
<!-- Generator: Adobe Illustrator 16.0.0, SVG Export Plug-In . SVG Version: 6.00 Build 0)  -->
<!DOCTYPE svg PUBLIC "-//W3C//DTD SVG 1.1//EN" "http://www.w3.org/Graphics/SVG/1.1/DTD/svg11.dtd">
<svg preserveAspectRatio="none"   version="1.1" id="图层_1" xmlns="http://www.w3.org/2000/svg" xmlns:xlink="http://www.w3.org/1999/xlink" x="0px" y="0px"
	 width="566.035px" height="252.949px" viewBox="-0.055 314.5 566.035 252.949"
	 enable-background="new -0.055 314.5 566.035 252.949" xml:space="preserve">
<g id="surface461">
	<path fill="#EACD98" d="M429.277,519.796h-195c0,0-1.5,0.238-1.5-0.035v-14.215h196.5V519.796z"/>
	
		<linearGradient id="SVGID_1_" gradientUnits="userSpaceOnUse" x1="251.7266" y1="201.3047" x2="251.7266" y2="150.3037" gradientTransform="matrix(0.75 0 0 -0.75 294.8143 639.337)">
		<stop  offset="0" style="stop-color:#292525"/>
		<stop  offset="0.01" style="stop-color:#868584"/>
		<stop  offset="0.02" style="stop-color:#383433"/>
		<stop  offset="0.64" style="stop-color:#373332"/>
		<stop  offset="0.99" style="stop-color:#363130"/>
		<stop  offset="1" style="stop-color:#252221"/>
	</linearGradient>
	<path fill="url(#SVGID_1_)" d="M446.484,488.359h74.25v38.25h-74.25V488.359z"/>
	
		<linearGradient id="SVGID_2_" gradientUnits="userSpaceOnUse" x1="739.2231" y1="191.3052" x2="202.2231" y2="191.3051" gradientTransform="matrix(0.75 0 0 -0.75 -145.6642 643.4113)">
		<stop  offset="0" style="stop-color:#3D3B3B"/>
		<stop  offset="0.01" style="stop-color:#908F8F"/>
		<stop  offset="0.02" style="stop-color:#514F4F"/>
		<stop  offset="0.64" style="stop-color:#504E4E"/>
		<stop  offset="0.99" style="stop-color:#4E4C4C"/>
		<stop  offset="1" style="stop-color:#383636"/>
	</linearGradient>
	<path fill="url(#SVGID_2_)" d="M6.004,492.433h402.75v15H6.004V492.433z"/>
	
		<linearGradient id="SVGID_3_" gradientUnits="userSpaceOnUse" x1="298.7261" y1="201.3018" x2="298.7261" y2="150.3018" gradientTransform="matrix(0.75 0 0 -0.75 -124.3766 645.0421)">
		<stop  offset="0" style="stop-color:#292525"/>
		<stop  offset="0.01" style="stop-color:#868584"/>
		<stop  offset="0.02" style="stop-color:#383433"/>
		<stop  offset="0.64" style="stop-color:#373332"/>
		<stop  offset="0.99" style="stop-color:#363130"/>
		<stop  offset="1" style="stop-color:#252221"/>
	</linearGradient>
	<path fill="url(#SVGID_3_)" d="M27.293,494.066h144.75v38.25H27.293V494.066z"/>
	
		<linearGradient id="SVGID_4_" gradientUnits="userSpaceOnUse" x1="296.7261" y1="201.5928" x2="296.7261" y2="-48.6943" gradientTransform="matrix(0.75 0 0 -0.75 272.5604 483.756)">
		<stop  offset="0" style="stop-color:#A5906A"/>
		<stop  offset="0.01" style="stop-color:#EED8B3"/>
		<stop  offset="0.02" style="stop-color:#D7BD8C"/>
		<stop  offset="0.64" style="stop-color:#D4BA89"/>
		<stop  offset="0.99" style="stop-color:#CFB586"/>
		<stop  offset="1" style="stop-color:#9A8662"/>
	</linearGradient>
	<path fill="url(#SVGID_4_)" d="M424.23,338.027c0,0,47.914-12.418,94.352,0.184c0.148-0.184,37.582,33.168,47.16,77.465
		l0.238,100.102c0,0-1.336,4.332-7.574,4.332l-37.426,0.168c0,0-5.516-30.227-38.082-30.75c-0.168,0-30.75-0.129-36.766,30.742
		l-21.902,0.008V338.027z"/>
	<path fill="#EACD98" d="M409.3,493.75H3.551c0,0-3-0.918-3-4.266V315.25l408.75-0.75V493.75z"/>
	<path fill="#EACD98" d="M426.625,342.011c0,0,43.336-13.801,90.586,0.082c0.164-0.082,36.047,31.816,45.184,74.305l-0.02,17.113
		h-135.75V342.011z"/>
	<path d="M446.32,347.921h65.25l32.25,53.25v17.25h-98.25L446.32,347.921z"/>
	<path fill="#E8F4ED" d="M449.328,350.738h59.25l30,48.75v16.5h-90L449.328,350.738z"/>
	
		<linearGradient id="SVGID_5_" gradientUnits="userSpaceOnUse" x1="259.7266" y1="201.3047" x2="259.7266" y2="152.543" gradientTransform="matrix(0.75 0 0 -0.75 291.2333 634.8097)">
		<stop  offset="0" style="stop-color:#A5906A"/>
		<stop  offset="0.01" style="stop-color:#EED8B3"/>
		<stop  offset="0.02" style="stop-color:#D7BD8C"/>
		<stop  offset="0.64" style="stop-color:#D4BA89"/>
		<stop  offset="0.99" style="stop-color:#CFB586"/>
		<stop  offset="1" style="stop-color:#9A8662"/>
	</linearGradient>
	<path fill="url(#SVGID_5_)" d="M529.152,483.832v36h-7.5c0,0-6.188-29.777-38.754-30.305c-0.246,0.305-30.75-0.129-36.766,30.875
		l-3.23-0.57v-36H529.152z"/>
	<path fill="#EACD98" d="M562.519,433.398v78.75c0,0-0.934,3.793-6.914,3.793l-31.336-0.043c0,0-5.359-29.543-41.32-30.75
		c0.07,0-34.285,0.832-40.055,30.574l-16.125,0.176v-82.5H562.519z"/>
	
		<linearGradient id="SVGID_6_" gradientUnits="userSpaceOnUse" x1="217.7266" y1="201.3047" x2="217.7266" y2="195.3047" gradientTransform="matrix(0.75 0 0 -0.75 272.537 666.6935)">
		<stop  offset="0" style="stop-color:#A5906A"/>
		<stop  offset="0.01" style="stop-color:#EED8B3"/>
		<stop  offset="0.02" style="stop-color:#D7BD8C"/>
		<stop  offset="0.64" style="stop-color:#D4BA89"/>
		<stop  offset="0.99" style="stop-color:#CFB586"/>
		<stop  offset="1" style="stop-color:#9A8662"/>
	</linearGradient>
	<path fill="url(#SVGID_6_)" d="M424.207,515.714h23.25v4.5h-23.25V515.714z"/>
	
		<linearGradient id="SVGID_7_" gradientUnits="userSpaceOnUse" x1="232.6323" y1="201.3018" x2="232.6323" y2="195.3018" gradientTransform="matrix(0.75 0 0 -0.75 368.3915 666.714)">
		<stop  offset="0" style="stop-color:#A5906A"/>
		<stop  offset="0.01" style="stop-color:#EED8B3"/>
		<stop  offset="0.02" style="stop-color:#D7BD8C"/>
		<stop  offset="0.64" style="stop-color:#D4BA89"/>
		<stop  offset="0.99" style="stop-color:#CFB586"/>
		<stop  offset="1" style="stop-color:#9A8662"/>
	</linearGradient>
	<path fill="url(#SVGID_7_)" d="M520.062,515.738c0,0,1.246,3.898,1.246,4.375l38.504,0.125c0,0,4.727-1.008,5.855-4.438
		L520.062,515.738z"/>
	
		<linearGradient id="SVGID_8_" gradientUnits="userSpaceOnUse" x1="292.7271" y1="201.3027" x2="292.7271" y2="-30.6982" gradientTransform="matrix(0.75 0 0 -0.75 275.4237 493.0861)">
		<stop  offset="0" style="stop-color:#FFFFFF;stop-opacity:0.149"/>
		<stop  offset="1" style="stop-color:#FFFFFF;stop-opacity:0.0235"/>
	</linearGradient>
	<path fill="url(#SVGID_8_)" d="M516.343,342.109c0,0,35.66,28.766,46.043,74.289l0.457,95.211c0,0-0.477,2.762-4.449,3.777
		l-33.801,0.723c0,0-8.086-30.434-40.652-30.961c0.152,0.211-35.043-0.426-41.063,30.75l-15.785,0.211v-9L516.343,342.109z"/>
	<path fill="#FFFFFF" fill-opacity="0.8039" d="M510.304,353.511l28.5,46.5v15.75l-62.25-0.75L510.304,353.511z"/>
	<path stroke="#000000" stroke-linejoin="bevel" stroke-miterlimit="10" d="M543.105,424.687c0-2.25,1.707-3.75,3.816-3.75
		c2.184,0,3.816,1.711,3.816,3.82c-0.133,2.18-1.711,3.816-3.816,3.816c-2.316-0.137-3.816-1.707-3.816-3.816V424.687z"/>
	
		<linearGradient id="SVGID_9_" gradientUnits="userSpaceOnUse" x1="202.2246" y1="197.2178" x2="210.3965" y2="197.2178" gradientTransform="matrix(0.75 0 0 -0.75 392.1864 572.67)">
		<stop  offset="0" style="stop-color:#AEAEAE"/>
		<stop  offset="0.41" style="stop-color:#C9C9C9"/>
		<stop  offset="1" style="stop-color:#565656"/>
	</linearGradient>
	<path fill="url(#SVGID_9_)" d="M543.855,424.691c0-1.5,1.371-3,3.066-3c1.434,0,3.063,1.375,3.063,3.066
		c-0.129,1.434-1.371,3.066-3.063,3.066c-1.566-0.133-3.066-1.375-3.066-3.066V424.691z"/>
	
		<linearGradient id="SVGID_10_" gradientUnits="userSpaceOnUse" x1="202.2261" y1="189.75" x2="205.2261" y2="189.75" gradientTransform="matrix(0.75 0 0 -0.75 393.951 560.1593)">
		<stop  offset="0" style="stop-color:#767676"/>
		<stop  offset="0.36" style="stop-color:#EFEFEF"/>
		<stop  offset="0.7" style="stop-color:#C0C0C0"/>
		<stop  offset="0.91" style="stop-color:#727272"/>
	</linearGradient>
	<path fill="url(#SVGID_10_)" d="M545.621,409.179h2.25v16.5c0,0-0.203,0.836-1.086,0.836c-1.164-0.086-1.164-0.652-1.164-0.652
		V409.179z"/>
	<path d="M542.144,396.121h6c0,0,0.691,0.535,0.691,1.199l0.059,16.801c0,0.75-0.391,1.098-0.793,1.098l-5.957-0.348
		c-0.75,0-0.758-0.199-0.758-0.863l0.008-16.387c0-0.75,0.316-1.5,0.719-1.5H542.144z"/>
	<path fill="#606060" d="M542.152,396.109h1.5v18.75h-1.5c-0.75,0-0.762-0.188-0.762-0.852l0.012-16.398c0-0.75,0.316-1.5,0.719-1.5
		H542.152z"/>
	
		<linearGradient id="SVGID_11_" gradientUnits="userSpaceOnUse" x1="294.0679" y1="204.7002" x2="206.0046" y2="99.7505" gradientTransform="matrix(0.75 0 0 -0.75 -52.1251 644.1837)">
		<stop  offset="0" style="stop-color:#000000"/>
		<stop  offset="0.53" style="stop-color:#4F4F4F"/>
		<stop  offset="1" style="stop-color:#000000"/>
	</linearGradient>
	<path fill="url(#SVGID_11_)" d="M99.543,529.957c0-20.25,15.844-36.75,35.797-36.75c19.703,0,36.121,16.457,36.121,36.754
		c0.082,20.246-16.172,36.758-36.121,36.758c-20.047-0.012-36.125-16.457-36.125-36.758L99.543,529.957z"/>
	<path fill="#888889" d="M111.863,529.714c0-13.5,10.441-24,23.586-24c13.164,0,23.805,10.855,23.805,24.246
		c-0.141,13.254-10.656,24.25-23.805,24.25c-13.086,0.254-23.805-10.855-23.805-24.25L111.863,529.714z"/>
	
		<linearGradient id="SVGID_12_" gradientUnits="userSpaceOnUse" x1="263.8599" y1="198.0957" x2="199.416" y2="144.0209" gradientTransform="matrix(0.75 0 0 -0.75 -38.2067 658.3234)">
		<stop  offset="0" style="stop-color:#C8C8C8"/>
		<stop  offset="0.28" style="stop-color:#A9A9A9"/>
		<stop  offset="0.56" style="stop-color:#E2E2E2"/>
		<stop  offset="0.78" style="stop-color:#C9C9C9"/>
		<stop  offset="1" style="stop-color:#373737"/>
	</linearGradient>
	<path fill="url(#SVGID_12_)" d="M113.461,529.843c0-12,9.742-22.5,22.004-22.5c12.496,0,22.203,10.129,22.203,22.617
		c0.043,12.633-9.941,22.617-22.203,22.617c-12.254-0.234-22.203-10.125-22.203-22.617L113.461,529.843z"/>
	<path fill="#404040" d="M124.906,530.253c0-6,4.719-11.25,10.664-11.25c5.836,0,10.758,4.906,10.758,10.957
		c0.328,6.293-4.816,10.961-10.758,10.961c-6.164-0.168-10.762-4.906-10.762-10.961L124.906,530.253z"/>
	
		<linearGradient id="SVGID_13_" gradientUnits="userSpaceOnUse" x1="223.1885" y1="200.1992" x2="201.2644" y2="181.8028" gradientTransform="matrix(0.75 0 0 -0.75 -23.5504 673.2521)">
		<stop  offset="0" style="stop-color:#282828"/>
		<stop  offset="0.36" style="stop-color:#B7B7B7"/>
		<stop  offset="0.57" style="stop-color:#C7C7C7"/>
		<stop  offset="0.83" style="stop-color:#B4B4B4"/>
		<stop  offset="0.9" style="stop-color:#3A3A3A"/>
	</linearGradient>
	<path fill="url(#SVGID_13_)" d="M128.117,529.773c0-3.75,3.313-7.5,7.48-7.5c4.52,0,7.547,3.441,7.547,7.688
		c-0.027,4.313-3.379,7.691-7.547,7.691c-4.48,0.371-7.547-3.445-7.547-7.691L128.117,529.773z"/>
	
		<linearGradient id="SVGID_14_" gradientUnits="userSpaceOnUse" x1="212.7095" y1="201.7837" x2="202.7145" y2="189.8721" gradientTransform="matrix(0.75 0 0 -0.75 -28.1661 662.588)">
		<stop  offset="0" style="stop-color:#000000"/>
		<stop  offset="0.53" style="stop-color:#4F4F4F"/>
		<stop  offset="1" style="stop-color:#000000"/>
	</linearGradient>
	<path fill="url(#SVGID_14_)" d="M123.504,515.359c0-2.25,1.832-3.75,4.133-3.75c2.617,0,4.156,1.848,4.156,4.121
		c-0.039,2.629-1.859,4.121-4.156,4.121c-2.633,0.008-4.16-1.844-4.16-4.121L123.504,515.359z"/>
	
		<linearGradient id="SVGID_15_" gradientUnits="userSpaceOnUse" x1="212.7095" y1="201.7856" x2="202.7136" y2="189.8731" gradientTransform="matrix(0.75 0 0 -0.75 -21.2941 694.4591)">
		<stop  offset="0" style="stop-color:#000000"/>
		<stop  offset="0.53" style="stop-color:#4F4F4F"/>
		<stop  offset="1" style="stop-color:#000000"/>
	</linearGradient>
	<path fill="url(#SVGID_15_)" d="M130.375,547.23c0-2.25,1.836-3.75,4.133-3.75c2.617,0,4.16,1.848,4.16,4.121
		c-0.043,2.629-1.863,4.121-4.16,4.121c-2.633,0.008-4.16-1.844-4.16-4.121L130.375,547.23z"/>
	
		<linearGradient id="SVGID_16_" gradientUnits="userSpaceOnUse" x1="212.7104" y1="201.7847" x2="202.7155" y2="189.8731" gradientTransform="matrix(0.75 0 0 -0.75 -36.5646 681.1573)">
		<stop  offset="0" style="stop-color:#000000"/>
		<stop  offset="0.53" style="stop-color:#4F4F4F"/>
		<stop  offset="1" style="stop-color:#000000"/>
	</linearGradient>
	<path fill="url(#SVGID_16_)" d="M115.105,533.929c0-2.25,1.832-3.75,4.133-3.75c2.617,0,4.156,1.844,4.156,4.121
		c-0.039,2.629-1.859,4.121-4.156,4.121c-2.633,0.008-4.16-1.844-4.16-4.121L115.105,533.929z"/>
	
		<linearGradient id="SVGID_17_" gradientUnits="userSpaceOnUse" x1="212.709" y1="201.7856" x2="202.7132" y2="189.8731" gradientTransform="matrix(0.75 0 0 -0.75 -7.757 665.7804)">
		<stop  offset="0" style="stop-color:#000000"/>
		<stop  offset="0.53" style="stop-color:#4F4F4F"/>
		<stop  offset="1" style="stop-color:#000000"/>
	</linearGradient>
	<path fill="url(#SVGID_17_)" d="M143.91,518.554c0-2.25,1.836-3.75,4.133-3.75c2.617,0,4.16,1.844,4.16,4.121
		c-0.043,2.629-1.863,4.121-4.16,4.121c-2.633,0.008-4.16-1.848-4.16-4.121L143.91,518.554z"/>
	
		<linearGradient id="SVGID_18_" gradientUnits="userSpaceOnUse" x1="212.7085" y1="201.7861" x2="202.7127" y2="189.8736" gradientTransform="matrix(0.75 0 0 -0.75 -5.2428 684.4279)">
		<stop  offset="0" style="stop-color:#000000"/>
		<stop  offset="0.53" style="stop-color:#4F4F4F"/>
		<stop  offset="1" style="stop-color:#000000"/>
	</linearGradient>
	<path fill="url(#SVGID_18_)" d="M146.426,537.199c0-2.25,1.836-3.75,4.133-3.75c2.617,0,4.16,1.848,4.16,4.121
		c-0.043,2.629-1.863,4.121-4.16,4.121c-2.633,0.008-4.16-1.844-4.16-4.121L146.426,537.199z"/>
	
		<linearGradient id="SVGID_19_" gradientUnits="userSpaceOnUse" x1="294.0669" y1="204.7021" x2="206.0028" y2="99.7514" gradientTransform="matrix(0.75 0 0 -0.75 -124.1085 644.9132)">
		<stop  offset="0" style="stop-color:#000000"/>
		<stop  offset="0.53" style="stop-color:#4F4F4F"/>
		<stop  offset="1" style="stop-color:#000000"/>
	</linearGradient>
	<path fill="url(#SVGID_19_)" d="M27.559,530.683c0-20.25,15.848-36.75,35.797-36.75c19.703,0,36.121,16.457,36.121,36.758
		c0.082,20.242-16.172,36.758-36.121,36.758c-20.047-0.016-36.125-16.457-36.125-36.758L27.559,530.683z"/>
	<path fill="#888889" d="M39.879,530.445c0-13.5,10.441-24,23.59-24c13.16,0,23.805,10.855,23.805,24.246
		c-0.145,13.254-10.66,24.246-23.805,24.246c-13.09,0.258-23.805-10.855-23.805-24.246L39.879,530.445z"/>
	
		<linearGradient id="SVGID_20_" gradientUnits="userSpaceOnUse" x1="263.8638" y1="198.0942" x2="199.4167" y2="144.0168" gradientTransform="matrix(0.75 0 0 -0.75 -110.1901 659.0519)">
		<stop  offset="0" style="stop-color:#C8C8C8"/>
		<stop  offset="0.28" style="stop-color:#A9A9A9"/>
		<stop  offset="0.56" style="stop-color:#E2E2E2"/>
		<stop  offset="0.78" style="stop-color:#C9C9C9"/>
		<stop  offset="1" style="stop-color:#373737"/>
	</linearGradient>
	<path fill="url(#SVGID_20_)" d="M41.48,530.574c0-12,9.738-22.5,22-22.5c12.5,0,22.207,10.125,22.207,22.617
		c0.043,12.633-9.941,22.617-22.207,22.617c-12.25-0.234-22.203-10.125-22.203-22.617L41.48,530.574z"/>
	<path fill="#404040" d="M52.926,530.98c0-6,4.719-11.25,10.66-11.25c5.84,0,10.758,4.91,10.758,10.961
		c0.332,6.289-4.816,10.961-10.758,10.961c-6.16-0.172-10.758-4.91-10.758-10.961L52.926,530.98z"/>
	
		<linearGradient id="SVGID_21_" gradientUnits="userSpaceOnUse" x1="223.1909" y1="200.1987" x2="201.2669" y2="181.8023" gradientTransform="matrix(0.75 0 0 -0.75 -95.5333 673.9806)">
		<stop  offset="0" style="stop-color:#282828"/>
		<stop  offset="0.36" style="stop-color:#B7B7B7"/>
		<stop  offset="0.57" style="stop-color:#C7C7C7"/>
		<stop  offset="0.83" style="stop-color:#B4B4B4"/>
		<stop  offset="0.9" style="stop-color:#3A3A3A"/>
	</linearGradient>
	<path fill="url(#SVGID_21_)" d="M56.137,530.503c0-3.75,3.309-7.5,7.477-7.5c4.523,0,7.551,3.441,7.551,7.688
		c-0.027,4.313-3.379,7.688-7.551,7.688c-4.477,0.375-7.547-3.441-7.547-7.688L56.137,530.503z"/>
	
		<linearGradient id="SVGID_22_" gradientUnits="userSpaceOnUse" x1="212.7104" y1="201.7847" x2="202.7155" y2="189.8731" gradientTransform="matrix(0.75 0 0 -0.75 -100.1495 663.3165)">
		<stop  offset="0" style="stop-color:#000000"/>
		<stop  offset="0.53" style="stop-color:#4F4F4F"/>
		<stop  offset="1" style="stop-color:#000000"/>
	</linearGradient>
	<path fill="url(#SVGID_22_)" d="M51.52,516.089c0-2.25,1.836-3.75,4.133-3.75c2.617,0,4.16,1.844,4.16,4.121
		c-0.043,2.629-1.863,4.121-4.16,4.121c-2.633,0.008-4.16-1.844-4.16-4.121L51.52,516.089z"/>
	
		<linearGradient id="SVGID_23_" gradientUnits="userSpaceOnUse" x1="212.7085" y1="201.7847" x2="202.7135" y2="189.8731" gradientTransform="matrix(0.75 0 0 -0.75 -93.2775 695.1876)">
		<stop  offset="0" style="stop-color:#000000"/>
		<stop  offset="0.53" style="stop-color:#4F4F4F"/>
		<stop  offset="1" style="stop-color:#000000"/>
	</linearGradient>
	<path fill="url(#SVGID_23_)" d="M58.391,547.96c0-2.25,1.836-3.75,4.133-3.75c2.617,0,4.16,1.844,4.16,4.121
		c-0.043,2.629-1.863,4.121-4.16,4.121c-2.633,0.008-4.16-1.844-4.16-4.121L58.391,547.96z"/>
	
		<linearGradient id="SVGID_24_" gradientUnits="userSpaceOnUse" x1="212.7109" y1="201.7827" x2="202.7168" y2="189.8722" gradientTransform="matrix(0.75 0 0 -0.75 -108.548 681.8859)">
		<stop  offset="0" style="stop-color:#000000"/>
		<stop  offset="0.53" style="stop-color:#4F4F4F"/>
		<stop  offset="1" style="stop-color:#000000"/>
	</linearGradient>
	<path fill="url(#SVGID_24_)" d="M43.121,534.66c0-2.25,1.836-3.75,4.133-3.75c2.617,0,4.16,1.844,4.16,4.121
		c-0.043,2.629-1.863,4.121-4.16,4.121c-2.633,0.008-4.16-1.848-4.16-4.121L43.121,534.66z"/>
	
		<linearGradient id="SVGID_25_" gradientUnits="userSpaceOnUse" x1="212.7095" y1="201.7856" x2="202.7145" y2="189.8741" gradientTransform="matrix(0.75 0 0 -0.75 -79.7404 666.5099)">
		<stop  offset="0" style="stop-color:#000000"/>
		<stop  offset="0.53" style="stop-color:#4F4F4F"/>
		<stop  offset="1" style="stop-color:#000000"/>
	</linearGradient>
	<path fill="url(#SVGID_25_)" d="M71.93,519.281c0-2.25,1.832-3.75,4.133-3.75c2.617,0,4.156,1.848,4.156,4.121
		c-0.039,2.629-1.859,4.121-4.156,4.121c-2.633,0.008-4.16-1.844-4.16-4.121L71.93,519.281z"/>
	
		<linearGradient id="SVGID_26_" gradientUnits="userSpaceOnUse" x1="212.708" y1="201.7852" x2="202.713" y2="189.8736" gradientTransform="matrix(0.75 0 0 -0.75 -77.2262 685.1573)">
		<stop  offset="0" style="stop-color:#000000"/>
		<stop  offset="0.53" style="stop-color:#4F4F4F"/>
		<stop  offset="1" style="stop-color:#000000"/>
	</linearGradient>
	<path fill="url(#SVGID_26_)" d="M74.441,537.929c0-2.25,1.836-3.75,4.133-3.75c2.617,0,4.16,1.844,4.16,4.121
		c-0.043,2.629-1.863,4.121-4.16,4.121c-2.633,0.008-4.16-1.844-4.16-4.121L74.441,537.929z"/>
	
		<linearGradient id="SVGID_27_" gradientUnits="userSpaceOnUse" x1="214.2227" y1="92.8047" x2="202.2227" y2="92.8047" gradientTransform="matrix(0.75 0 0 -0.75 -151.5148 475.048)">
		<stop  offset="0" style="stop-color:#B5B5B5"/>
		<stop  offset="0.01" style="stop-color:#FFFFFF"/>
		<stop  offset="0.02" style="stop-color:#EBEBEB"/>
		<stop  offset="0.64" style="stop-color:#E7E7E7"/>
		<stop  offset="0.99" style="stop-color:#E2E2E2"/>
		<stop  offset="1" style="stop-color:#A8A8A8"/>
	</linearGradient>
	<path fill="url(#SVGID_27_)" d="M0.152,324.07h9v162.75h-9V324.07z"/>
	
		<linearGradient id="SVGID_28_" gradientUnits="userSpaceOnUse" x1="214.2256" y1="92.8057" x2="202.2256" y2="92.8057" gradientTransform="matrix(0.75 0 0 -0.75 247.9706 475.1857)">
		<stop  offset="0" style="stop-color:#B5B5B5"/>
		<stop  offset="0.01" style="stop-color:#FFFFFF"/>
		<stop  offset="0.02" style="stop-color:#EBEBEB"/>
		<stop  offset="0.64" style="stop-color:#E7E7E7"/>
		<stop  offset="0.99" style="stop-color:#E2E2E2"/>
		<stop  offset="1" style="stop-color:#A8A8A8"/>
	</linearGradient>
	<path fill="url(#SVGID_28_)" d="M399.64,324.207h9v162.75h-9V324.207z"/>
	
		<linearGradient id="SVGID_29_" gradientUnits="userSpaceOnUse" x1="294.0679" y1="204.6987" x2="206.0045" y2="99.7489" gradientTransform="matrix(0.75 0 0 -0.75 296.4042 644.1818)">
		<stop  offset="0" style="stop-color:#000000"/>
		<stop  offset="0.53" style="stop-color:#4F4F4F"/>
		<stop  offset="1" style="stop-color:#000000"/>
	</linearGradient>
	<path fill="url(#SVGID_29_)" d="M448.074,529.953c0-20.25,15.844-36.75,35.793-36.75c19.707,0,36.125,16.457,36.125,36.758
		c0.082,20.242-16.176,36.758-36.125,36.758c-20.043-0.016-36.121-16.457-36.121-36.758L448.074,529.953z"/>
	<path fill="#888889" d="M460.39,529.71c0-13.5,10.441-24,23.59-24c13.16,0,23.805,10.859,23.805,24.25
		c-0.145,13.25-10.656,24.246-23.805,24.246c-13.09,0.254-23.805-10.855-23.805-24.246L460.39,529.71z"/>
	
		<linearGradient id="SVGID_30_" gradientUnits="userSpaceOnUse" x1="263.8613" y1="198.0942" x2="199.4163" y2="144.0185" gradientTransform="matrix(0.75 0 0 -0.75 310.3231 658.3204)">
		<stop  offset="0" style="stop-color:#C8C8C8"/>
		<stop  offset="0.28" style="stop-color:#A9A9A9"/>
		<stop  offset="0.56" style="stop-color:#E2E2E2"/>
		<stop  offset="0.78" style="stop-color:#C9C9C9"/>
		<stop  offset="1" style="stop-color:#373737"/>
	</linearGradient>
	<path fill="url(#SVGID_30_)" d="M461.992,529.843c0-12,9.738-22.5,22.004-22.5c12.496,0,22.203,10.125,22.203,22.617
		c0.043,12.633-9.941,22.617-22.203,22.617c-12.254-0.234-22.207-10.125-22.207-22.617L461.992,529.843z"/>
	<path fill="#404040" d="M473.437,530.25c0-6,4.719-11.25,10.66-11.25c5.84,0,10.762,4.906,10.762,10.961
		c0.328,6.289-4.82,10.957-10.762,10.957c-6.16-0.168-10.758-4.906-10.758-10.957L473.437,530.25z"/>
	
		<linearGradient id="SVGID_31_" gradientUnits="userSpaceOnUse" x1="223.1899" y1="200.1978" x2="201.2669" y2="181.8021" gradientTransform="matrix(0.75 0 0 -0.75 324.9794 673.2501)">
		<stop  offset="0" style="stop-color:#282828"/>
		<stop  offset="0.36" style="stop-color:#B7B7B7"/>
		<stop  offset="0.57" style="stop-color:#C7C7C7"/>
		<stop  offset="0.83" style="stop-color:#B4B4B4"/>
		<stop  offset="0.9" style="stop-color:#3A3A3A"/>
	</linearGradient>
	<path fill="url(#SVGID_31_)" d="M476.648,529.773c0-3.75,3.313-7.5,7.48-7.5c4.52,0,7.547,3.441,7.547,7.688
		c-0.027,4.313-3.379,7.688-7.547,7.688c-4.48,0.375-7.547-3.441-7.547-7.688L476.648,529.773z"/>
	
		<linearGradient id="SVGID_32_" gradientUnits="userSpaceOnUse" x1="212.7104" y1="201.7847" x2="202.7146" y2="189.8721" gradientTransform="matrix(0.75 0 0 -0.75 320.3632 662.5851)">
		<stop  offset="0" style="stop-color:#000000"/>
		<stop  offset="0.53" style="stop-color:#4F4F4F"/>
		<stop  offset="1" style="stop-color:#000000"/>
	</linearGradient>
	<path fill="url(#SVGID_32_)" d="M472.031,515.359c0-2.25,1.836-3.75,4.133-3.75c2.617,0,4.16,1.844,4.16,4.121
		c-0.043,2.629-1.863,4.121-4.16,4.121c-2.633,0.008-4.16-1.848-4.16-4.121L472.031,515.359z"/>
	
		<linearGradient id="SVGID_33_" gradientUnits="userSpaceOnUse" x1="212.7095" y1="201.7837" x2="202.7145" y2="189.8721" gradientTransform="matrix(0.75 0 0 -0.75 327.2362 694.4572)">
		<stop  offset="0" style="stop-color:#000000"/>
		<stop  offset="0.53" style="stop-color:#4F4F4F"/>
		<stop  offset="1" style="stop-color:#000000"/>
	</linearGradient>
	<path fill="url(#SVGID_33_)" d="M478.906,547.23c0-2.25,1.832-3.75,4.129-3.75c2.621,0,4.16,1.844,4.16,4.121
		c-0.039,2.629-1.859,4.121-4.16,4.121c-2.629,0.008-4.156-1.844-4.156-4.121L478.906,547.23z"/>
	
		<linearGradient id="SVGID_34_" gradientUnits="userSpaceOnUse" x1="212.7085" y1="201.7856" x2="202.7126" y2="189.873" gradientTransform="matrix(0.75 0 0 -0.75 311.9647 681.1544)">
		<stop  offset="0" style="stop-color:#000000"/>
		<stop  offset="0.53" style="stop-color:#4F4F4F"/>
		<stop  offset="1" style="stop-color:#000000"/>
	</linearGradient>
	<path fill="url(#SVGID_34_)" d="M463.632,533.925c0-2.25,1.836-3.75,4.133-3.75c2.617,0,4.16,1.848,4.16,4.121
		c-0.043,2.629-1.863,4.125-4.16,4.125c-2.633,0.004-4.16-1.848-4.16-4.125L463.632,533.925z"/>
	
		<linearGradient id="SVGID_35_" gradientUnits="userSpaceOnUse" x1="212.71" y1="201.7837" x2="202.715" y2="189.8721" gradientTransform="matrix(0.75 0 0 -0.75 340.7723 665.7784)">
		<stop  offset="0" style="stop-color:#000000"/>
		<stop  offset="0.53" style="stop-color:#4F4F4F"/>
		<stop  offset="1" style="stop-color:#000000"/>
	</linearGradient>
	<path fill="url(#SVGID_35_)" d="M492.441,518.55c0-2.25,1.836-3.75,4.133-3.75c2.617,0,4.16,1.844,4.16,4.121
		c-0.043,2.629-1.863,4.121-4.16,4.121c-2.633,0.008-4.16-1.844-4.16-4.121L492.441,518.55z"/>
	
		<linearGradient id="SVGID_36_" gradientUnits="userSpaceOnUse" x1="212.7104" y1="201.7842" x2="202.7146" y2="189.8716" gradientTransform="matrix(0.75 0 0 -0.75 343.287 684.4259)">
		<stop  offset="0" style="stop-color:#000000"/>
		<stop  offset="0.53" style="stop-color:#4F4F4F"/>
		<stop  offset="1" style="stop-color:#000000"/>
	</linearGradient>
	<path fill="url(#SVGID_36_)" d="M494.957,537.199c0-2.25,1.832-3.75,4.133-3.75c2.617,0,4.156,1.844,4.156,4.121
		c-0.039,2.629-1.859,4.121-4.156,4.121c-2.633,0.008-4.16-1.844-4.16-4.121L494.957,537.199z"/>
	
		<linearGradient id="SVGID_37_" gradientUnits="userSpaceOnUse" x1="475.2251" y1="201.3008" x2="475.2251" y2="192.3008" gradientTransform="matrix(0.75 0 0 -0.75 -151.7233 638.0265)">
		<stop  offset="0" style="stop-color:#B5B5B5"/>
		<stop  offset="0.01" style="stop-color:#FFFFFF"/>
		<stop  offset="0.02" style="stop-color:#EBEBEB"/>
		<stop  offset="0.64" style="stop-color:#E7E7E7"/>
		<stop  offset="0.99" style="stop-color:#E2E2E2"/>
		<stop  offset="1" style="stop-color:#A8A8A8"/>
	</linearGradient>
	<path fill="url(#SVGID_37_)" d="M409.445,493.8H2.945c0,0-3-0.965-3-4.313v-2.438h409.5V493.8z"/>
	
		<linearGradient id="SVGID_38_" gradientUnits="userSpaceOnUse" x1="475.2241" y1="201.3027" x2="475.2241" y2="188.3027" gradientTransform="matrix(0.75 0 0 -0.75 -151.7233 465.4806)">
		<stop  offset="0" style="stop-color:#B5B5B5"/>
		<stop  offset="0.01" style="stop-color:#FFFFFF"/>
		<stop  offset="0.02" style="stop-color:#EBEBEB"/>
		<stop  offset="0.64" style="stop-color:#E7E7E7"/>
		<stop  offset="0.99" style="stop-color:#E2E2E2"/>
		<stop  offset="1" style="stop-color:#A8A8A8"/>
	</linearGradient>
	<path fill="url(#SVGID_38_)" d="M409.445,324.253H2.945c0,0-3,0-3-0.184v-9.566h409.5V324.253z"/>
	
		<linearGradient id="SVGID_39_" gradientUnits="userSpaceOnUse" x1="292.7231" y1="201.3057" x2="292.7231" y2="196.3047" gradientTransform="matrix(0.75 0 0 -0.75 275.0624 580.7589)">
		<stop  offset="0" style="stop-color:#A5906A"/>
		<stop  offset="0.01" style="stop-color:#EED8B3"/>
		<stop  offset="0.02" style="stop-color:#D7BD8C"/>
		<stop  offset="0.64" style="stop-color:#D4BA89"/>
		<stop  offset="0.99" style="stop-color:#CFB586"/>
		<stop  offset="1" style="stop-color:#9A8662"/>
	</linearGradient>
	<path fill="url(#SVGID_39_)" d="M426.73,433.531h135.75v-3.75H426.73V433.531z"/>
	
		<linearGradient id="SVGID_40_" gradientUnits="userSpaceOnUse" x1="109.8086" y1="365.7056" x2="109.8086" y2="357.2476" gradientTransform="matrix(0 -0.75 -0.75 0 606.3605 487.7765)">
		<stop  offset="0" style="stop-color:#A5906A"/>
		<stop  offset="0.01" style="stop-color:#EED8B3"/>
		<stop  offset="0.02" style="stop-color:#D7BD8C"/>
		<stop  offset="0.64" style="stop-color:#D4BA89"/>
		<stop  offset="0.99" style="stop-color:#CFB586"/>
		<stop  offset="1" style="stop-color:#9A8662"/>
	</linearGradient>
	<path fill="url(#SVGID_40_)" d="M332.082,486.046v-161.25c0,0,0.418-0.402,0.938-0.402l4.313-0.348c0.75,0,1.094,0.656,1.094,1.039
		l-0.344,160.961c0,0.75-0.078,0.75-0.594,0.75h-4.656c0,0-0.75-0.305-0.75-0.688V486.046z"/>
	
		<linearGradient id="SVGID_41_" gradientUnits="userSpaceOnUse" x1="109.8086" y1="365.7026" x2="109.8086" y2="357.2495" gradientTransform="matrix(0 -0.75 -0.75 0 621.9874 487.7765)">
		<stop  offset="0" style="stop-color:#A5906A"/>
		<stop  offset="0.01" style="stop-color:#EED8B3"/>
		<stop  offset="0.02" style="stop-color:#D7BD8C"/>
		<stop  offset="0.64" style="stop-color:#D4BA89"/>
		<stop  offset="0.99" style="stop-color:#CFB586"/>
		<stop  offset="1" style="stop-color:#9A8662"/>
	</linearGradient>
	<path fill="url(#SVGID_41_)" d="M347.71,486.046v-161.25c0,0,0.418-0.402,0.934-0.402l4.316-0.348c0.75,0,1.09,0.656,1.09,1.039
		l-0.34,160.961c0,0.75-0.082,0.75-0.598,0.75h-4.652c0,0-0.75-0.305-0.75-0.688V486.046z"/>
	
		<linearGradient id="SVGID_42_" gradientUnits="userSpaceOnUse" x1="109.8086" y1="365.7046" x2="109.8086" y2="357.2515" gradientTransform="matrix(0 -0.75 -0.75 0 637.5587 487.7765)">
		<stop  offset="0" style="stop-color:#A5906A"/>
		<stop  offset="0.01" style="stop-color:#EED8B3"/>
		<stop  offset="0.02" style="stop-color:#D7BD8C"/>
		<stop  offset="0.64" style="stop-color:#D4BA89"/>
		<stop  offset="0.99" style="stop-color:#CFB586"/>
		<stop  offset="1" style="stop-color:#9A8662"/>
	</linearGradient>
	<path fill="url(#SVGID_42_)" d="M363.281,486.046v-161.25c0,0,0.418-0.402,0.934-0.402l4.316-0.348c0.75,0,1.09,0.656,1.09,1.039
		l-0.34,160.961c0,0.75-0.082,0.75-0.598,0.75h-4.652c0,0-0.75-0.305-0.75-0.688V486.046z"/>
	
		<linearGradient id="SVGID_43_" gradientUnits="userSpaceOnUse" x1="109.8086" y1="365.7017" x2="109.8086" y2="357.2485" gradientTransform="matrix(0 -0.75 -0.75 0 533.2247 487.7765)">
		<stop  offset="0" style="stop-color:#A5906A"/>
		<stop  offset="0.01" style="stop-color:#EED8B3"/>
		<stop  offset="0.02" style="stop-color:#D7BD8C"/>
		<stop  offset="0.64" style="stop-color:#D4BA89"/>
		<stop  offset="0.99" style="stop-color:#CFB586"/>
		<stop  offset="1" style="stop-color:#9A8662"/>
	</linearGradient>
	<path fill="url(#SVGID_43_)" d="M258.949,486.046v-161.25c0,0,0.418-0.402,0.934-0.402l4.316-0.348c0.75,0,1.09,0.656,1.09,1.039
		l-0.34,160.961c0,0.75-0.082,0.75-0.598,0.75h-4.652c0,0-0.75-0.305-0.75-0.688V486.046z"/>
	
		<linearGradient id="SVGID_44_" gradientUnits="userSpaceOnUse" x1="109.8086" y1="365.7046" x2="109.8086" y2="357.2515" gradientTransform="matrix(0 -0.75 -0.75 0 548.8517 487.7765)">
		<stop  offset="0" style="stop-color:#A5906A"/>
		<stop  offset="0.01" style="stop-color:#EED8B3"/>
		<stop  offset="0.02" style="stop-color:#D7BD8C"/>
		<stop  offset="0.64" style="stop-color:#D4BA89"/>
		<stop  offset="0.99" style="stop-color:#CFB586"/>
		<stop  offset="1" style="stop-color:#9A8662"/>
	</linearGradient>
	<path fill="url(#SVGID_44_)" d="M274.574,486.046v-161.25c0,0,0.418-0.402,0.934-0.402l4.316-0.348c0.75,0,1.09,0.656,1.09,1.039
		l-0.34,160.961c0,0.75-0.082,0.75-0.598,0.75h-4.652c0,0-0.75-0.305-0.75-0.688V486.046z"/>
	
		<linearGradient id="SVGID_45_" gradientUnits="userSpaceOnUse" x1="109.8086" y1="365.7046" x2="109.8086" y2="357.2456" gradientTransform="matrix(0 -0.75 -0.75 0 564.422 487.7765)">
		<stop  offset="0" style="stop-color:#A5906A"/>
		<stop  offset="0.01" style="stop-color:#EED8B3"/>
		<stop  offset="0.02" style="stop-color:#D7BD8C"/>
		<stop  offset="0.64" style="stop-color:#D4BA89"/>
		<stop  offset="0.99" style="stop-color:#CFB586"/>
		<stop  offset="1" style="stop-color:#9A8662"/>
	</linearGradient>
	<path fill="url(#SVGID_45_)" d="M290.144,486.046v-161.25c0,0,0.418-0.402,0.934-0.402l4.316-0.348c0.75,0,1.094,0.656,1.094,1.039
		l-0.344,160.961c0,0.75-0.078,0.75-0.598,0.75h-4.652c0,0-0.75-0.305-0.75-0.688V486.046z"/>
	
		<linearGradient id="SVGID_46_" gradientUnits="userSpaceOnUse" x1="109.8086" y1="365.7026" x2="109.8086" y2="357.2446" gradientTransform="matrix(0 -0.75 -0.75 0 460.0978 487.7765)">
		<stop  offset="0" style="stop-color:#A5906A"/>
		<stop  offset="0.01" style="stop-color:#EED8B3"/>
		<stop  offset="0.02" style="stop-color:#D7BD8C"/>
		<stop  offset="0.64" style="stop-color:#D4BA89"/>
		<stop  offset="0.99" style="stop-color:#CFB586"/>
		<stop  offset="1" style="stop-color:#9A8662"/>
	</linearGradient>
	<path fill="url(#SVGID_46_)" d="M185.82,486.046v-161.25c0,0,0.418-0.402,0.934-0.402l4.316-0.348c0.75,0,1.094,0.656,1.094,1.039
		l-0.344,160.961c0,0.75-0.082,0.75-0.598,0.75h-4.652c0,0-0.75-0.305-0.75-0.688V486.046z"/>
	
		<linearGradient id="SVGID_47_" gradientUnits="userSpaceOnUse" x1="109.8086" y1="365.7056" x2="109.8086" y2="357.2476" gradientTransform="matrix(0 -0.75 -0.75 0 475.7247 487.7765)">
		<stop  offset="0" style="stop-color:#A5906A"/>
		<stop  offset="0.01" style="stop-color:#EED8B3"/>
		<stop  offset="0.02" style="stop-color:#D7BD8C"/>
		<stop  offset="0.64" style="stop-color:#D4BA89"/>
		<stop  offset="0.99" style="stop-color:#CFB586"/>
		<stop  offset="1" style="stop-color:#9A8662"/>
	</linearGradient>
	<path fill="url(#SVGID_47_)" d="M201.445,486.046v-161.25c0,0,0.418-0.402,0.938-0.402l4.313-0.348c0.75,0,1.094,0.656,1.094,1.039
		l-0.344,160.961c0,0.75-0.078,0.75-0.594,0.75h-4.656c0,0-0.75-0.305-0.75-0.688V486.046z"/>
	
		<linearGradient id="SVGID_48_" gradientUnits="userSpaceOnUse" x1="109.8086" y1="365.7017" x2="109.8086" y2="357.2485" gradientTransform="matrix(0 -0.75 -0.75 0 491.295 487.7765)">
		<stop  offset="0" style="stop-color:#A5906A"/>
		<stop  offset="0.01" style="stop-color:#EED8B3"/>
		<stop  offset="0.02" style="stop-color:#D7BD8C"/>
		<stop  offset="0.64" style="stop-color:#D4BA89"/>
		<stop  offset="0.99" style="stop-color:#CFB586"/>
		<stop  offset="1" style="stop-color:#9A8662"/>
	</linearGradient>
	<path fill="url(#SVGID_48_)" d="M217.02,486.046v-161.25c0,0,0.418-0.402,0.934-0.402l4.316-0.348c0.75,0,1.09,0.656,1.09,1.039
		l-0.34,160.961c0,0.75-0.082,0.75-0.598,0.75h-4.652c0,0-0.75-0.305-0.75-0.688V486.046z"/>
	
		<linearGradient id="SVGID_49_" gradientUnits="userSpaceOnUse" x1="109.8086" y1="365.7036" x2="109.8086" y2="357.2456" gradientTransform="matrix(0 -0.75 -0.75 0 386.9532 487.7765)">
		<stop  offset="0" style="stop-color:#A5906A"/>
		<stop  offset="0.01" style="stop-color:#EED8B3"/>
		<stop  offset="0.02" style="stop-color:#D7BD8C"/>
		<stop  offset="0.64" style="stop-color:#D4BA89"/>
		<stop  offset="0.99" style="stop-color:#CFB586"/>
		<stop  offset="1" style="stop-color:#9A8662"/>
	</linearGradient>
	<path fill="url(#SVGID_49_)" d="M112.676,486.046v-161.25c0,0,0.418-0.402,0.934-0.402l4.316-0.348c0.75,0,1.094,0.656,1.094,1.039
		l-0.344,160.961c0,0.75-0.078,0.75-0.598,0.75h-4.652c0,0-0.75-0.305-0.75-0.688V486.046z"/>
	
		<linearGradient id="SVGID_50_" gradientUnits="userSpaceOnUse" x1="109.8086" y1="365.7065" x2="109.8086" y2="357.2476" gradientTransform="matrix(0 -0.75 -0.75 0 402.5802 487.7765)">
		<stop  offset="0" style="stop-color:#A5906A"/>
		<stop  offset="0.01" style="stop-color:#EED8B3"/>
		<stop  offset="0.02" style="stop-color:#D7BD8C"/>
		<stop  offset="0.64" style="stop-color:#D4BA89"/>
		<stop  offset="0.99" style="stop-color:#CFB586"/>
		<stop  offset="1" style="stop-color:#9A8662"/>
	</linearGradient>
	<path fill="url(#SVGID_50_)" d="M128.301,486.046v-161.25c0,0,0.422-0.402,0.938-0.402l4.313-0.348c0.75,0,1.094,0.656,1.094,1.039
		l-0.344,160.961c0,0.75-0.078,0.75-0.594,0.75h-4.656c0,0-0.75-0.305-0.75-0.688V486.046z"/>
	
		<linearGradient id="SVGID_51_" gradientUnits="userSpaceOnUse" x1="109.8086" y1="365.7007" x2="109.8086" y2="357.2476" gradientTransform="matrix(0 -0.75 -0.75 0 418.1505 487.7765)">
		<stop  offset="0" style="stop-color:#A5906A"/>
		<stop  offset="0.01" style="stop-color:#EED8B3"/>
		<stop  offset="0.02" style="stop-color:#D7BD8C"/>
		<stop  offset="0.64" style="stop-color:#D4BA89"/>
		<stop  offset="0.99" style="stop-color:#CFB586"/>
		<stop  offset="1" style="stop-color:#9A8662"/>
	</linearGradient>
	<path fill="url(#SVGID_51_)" d="M143.875,486.046v-161.25c0,0,0.418-0.402,0.934-0.402l4.316-0.348c0.75,0,1.09,0.656,1.09,1.039
		l-0.34,160.961c0,0.75-0.082,0.75-0.598,0.75h-4.652c0,0-0.75-0.305-0.75-0.688V486.046z"/>
	
		<linearGradient id="SVGID_52_" gradientUnits="userSpaceOnUse" x1="109.8086" y1="365.7007" x2="109.8086" y2="357.2476" gradientTransform="matrix(0 -0.75 -0.75 0 313.8185 487.7765)">
		<stop  offset="0" style="stop-color:#A5906A"/>
		<stop  offset="0.01" style="stop-color:#EED8B3"/>
		<stop  offset="0.02" style="stop-color:#D7BD8C"/>
		<stop  offset="0.64" style="stop-color:#D4BA89"/>
		<stop  offset="0.99" style="stop-color:#CFB586"/>
		<stop  offset="1" style="stop-color:#9A8662"/>
	</linearGradient>
	<path fill="url(#SVGID_52_)" d="M39.543,486.046v-161.25c0,0,0.418-0.402,0.934-0.402l4.316-0.348c0.75,0,1.09,0.656,1.09,1.039
		l-0.34,160.961c0,0.75-0.082,0.75-0.598,0.75h-4.652c0,0-0.75-0.305-0.75-0.688V486.046z"/>
	
		<linearGradient id="SVGID_53_" gradientUnits="userSpaceOnUse" x1="109.8086" y1="365.7026" x2="109.8086" y2="357.2495" gradientTransform="matrix(0 -0.75 -0.75 0 329.4454 487.7765)">
		<stop  offset="0" style="stop-color:#A5906A"/>
		<stop  offset="0.01" style="stop-color:#EED8B3"/>
		<stop  offset="0.02" style="stop-color:#D7BD8C"/>
		<stop  offset="0.64" style="stop-color:#D4BA89"/>
		<stop  offset="0.99" style="stop-color:#CFB586"/>
		<stop  offset="1" style="stop-color:#9A8662"/>
	</linearGradient>
	<path fill="url(#SVGID_53_)" d="M55.168,486.046v-161.25c0,0,0.418-0.402,0.934-0.402l4.316-0.348c0.75,0,1.09,0.656,1.09,1.039
		l-0.34,160.961c0,0.75-0.082,0.75-0.598,0.75h-4.652c0,0-0.75-0.305-0.75-0.688V486.046z"/>
	
		<linearGradient id="SVGID_54_" gradientUnits="userSpaceOnUse" x1="109.8086" y1="365.7046" x2="109.8086" y2="357.2456" gradientTransform="matrix(0 -0.75 -0.75 0 345.0157 487.7765)">
		<stop  offset="0" style="stop-color:#A5906A"/>
		<stop  offset="0.01" style="stop-color:#EED8B3"/>
		<stop  offset="0.02" style="stop-color:#D7BD8C"/>
		<stop  offset="0.64" style="stop-color:#D4BA89"/>
		<stop  offset="0.99" style="stop-color:#CFB586"/>
		<stop  offset="1" style="stop-color:#9A8662"/>
	</linearGradient>
	<path fill="url(#SVGID_54_)" d="M70.738,486.046v-161.25c0,0,0.418-0.402,0.934-0.402l4.316-0.348c0.75,0,1.094,0.656,1.094,1.039
		l-0.344,160.961c0,0.75-0.078,0.75-0.598,0.75h-4.652c0,0-0.75-0.305-0.75-0.688V486.046z"/>
</g>
</svg>
