<?xml version="1.0" encoding="utf-8"?>
<!-- Generator: Adobe Illustrator 16.0.0, SVG Export Plug-In . SVG Version: 6.00 Build 0)  -->
<!DOCTYPE svg PUBLIC "-//W3C//DTD SVG 1.1//EN" "http://www.w3.org/Graphics/SVG/1.1/DTD/svg11.dtd">
<svg preserveAspectRatio="none" version="1.1" id="图层_1" xmlns="http://www.w3.org/2000/svg" xmlns:xlink="http://www.w3.org/1999/xlink" x="0px" y="0px"
	 width="560.335px" height="559.39px" viewBox="-0.902 4.375 560.335 559.39" enable-background="new -0.902 4.375 560.335 559.39"
	 xml:space="preserve">
<pattern  x="183.964" y="383.964" width="503" height="507" patternUnits="userSpaceOnUse" id="pattern0" viewBox="0 -507 503 507" overflow="visible">
	<g>
		<polygon fill="none" points="0,0 503,0 503,-507 0,-507 		"/>
		<g>
			
				<image overflow="visible" enable-background="new    " width="503" height="507" id="image325_1_" xlink:href="EA73E214.jpg"  transform="matrix(1 0 0 -1 0 0)">
			</image>
		</g>
	</g>
</pattern>
<g id="surface321">
	
		<linearGradient id="SVGID_1_" gradientUnits="userSpaceOnUse" x1="709.2251" y1="159.8052" x2="202.2256" y2="159.8051" gradientTransform="matrix(0.75 0 0 -0.75 -90.9982 652.3683)">
		<stop  offset="0" style="stop-color:#AFAFAF"/>
		<stop  offset="0.59" style="stop-color:#E5E5E5"/>
		<stop  offset="1" style="stop-color:#AFAFAF"/>
	</linearGradient>
	<path fill="url(#SVGID_1_)" stroke="#9B9B9B" stroke-width="0.25" stroke-linejoin="bevel" stroke-miterlimit="10" d="
		M60.672,501.39h380.25v62.25H60.672V501.39z"/>
	
		<linearGradient id="SVGID_2_" gradientUnits="userSpaceOnUse" x1="873.2231" y1="-133.1929" x2="202.2241" y2="-133.1929" gradientTransform="matrix(0.75 0 0 -0.75 -152.4459 157.3927)">
		<stop  offset="0" style="stop-color:#AFAFAF"/>
		<stop  offset="0.59" style="stop-color:#E5E5E5"/>
		<stop  offset="1" style="stop-color:#AFAFAF"/>
	</linearGradient>
	<path fill="url(#SVGID_2_)" stroke="#9B9B9B" stroke-width="0.25" stroke-linejoin="bevel" stroke-miterlimit="10" d="
		M-0.777,6.414h503.25v501.75H-0.777V6.414z"/>
	
		<linearGradient id="SVGID_3_" gradientUnits="userSpaceOnUse" x1="870.4868" y1="-135.6592" x2="202.2275" y2="-135.6592" gradientTransform="matrix(0.75 0 0 -0.75 -151.5226 155.4777)">
		<stop  offset="0" style="stop-color:#9B9B9B"/>
		<stop  offset="0.59" style="stop-color:#E5E5E5"/>
		<stop  offset="1" style="stop-color:#9B9B9B"/>
	</linearGradient>
	<path fill="url(#SVGID_3_)" stroke="#9B9B9B" stroke-width="0.25" stroke-linejoin="bevel" stroke-miterlimit="10" d="
		M0.148,257.25C0.148,117,112.266,4.5,250.746,4.5c137.902,0,250.597,112.832,250.597,252.723
		c-0.195,139.527-112.469,252.722-250.597,252.722C111.898,510,0.148,396.582,0.148,257.223V257.25z"/>
	<pattern  id="SVGID_4_" xlink:href="#pattern0" patternTransform="matrix(0.75 0 0 -0.75 -2191.2363 -14492.4648)">
	</pattern>
	<path fill="url(#SVGID_4_)" stroke="#9B9B9B" stroke-width="0.25" stroke-linejoin="bevel" stroke-miterlimit="10" d="
		M61.945,257.324c0-105.75,84.469-190.5,188.801-190.5c103.699,0,188.8,85.004,188.8,190.398
		c-0.352,105.101-84.734,190.402-188.8,190.402c-104.051,0.199-188.801-85.41-188.801-190.402V257.324z"/>
	
		<linearGradient id="SVGID_5_" gradientUnits="userSpaceOnUse" x1="279.2271" y1="141.8047" x2="202.2271" y2="141.8047" gradientTransform="matrix(0.75 0 0 -0.75 349.8876 217.7599)">
		<stop  offset="0" style="stop-color:#AFAFAF"/>
		<stop  offset="0.59" style="stop-color:#E5E5E5"/>
		<stop  offset="1" style="stop-color:#AFAFAF"/>
	</linearGradient>
	<path fill="url(#SVGID_5_)" stroke="#9B9B9B" stroke-width="0.25" stroke-linejoin="bevel" stroke-miterlimit="10" d="
		M501.558,66.781h57.75v89.25h-57.75V66.781z"/>
</g>
</svg>
