<?xml version="1.0" encoding="utf-8"?>
<!-- Generator: Adobe Illustrator 16.0.0, SVG Export Plug-In . SVG Version: 6.00 Build 0)  -->
<!DOCTYPE svg PUBLIC "-//W3C//DTD SVG 1.1//EN" "http://www.w3.org/Graphics/SVG/1.1/DTD/svg11.dtd">
<svg preserveAspectRatio="none" version="1.1" id="图层_1" xmlns="http://www.w3.org/2000/svg" xmlns:xlink="http://www.w3.org/1999/xlink" x="0px" y="0px"
	 width="356.882px" height="565.75px" viewBox="104.84 0.715 356.882 565.75" enable-background="new 104.84 0.715 356.882 565.75"
	 xml:space="preserve">
<g id="surface76">
	
		<linearGradient id="SVGID_1_" gradientUnits="userSpaceOnUse" x1="357.2231" y1="120.5615" x2="202.2236" y2="120.5615" gradientTransform="matrix(0.75 0 0 -0.75 -14.5319 560.2032)">
		<stop  offset="0" style="stop-color:#AFAFAF"/>
		<stop  offset="0.59" style="stop-color:#E5E5E5"/>
		<stop  offset="1" style="stop-color:#AFAFAF"/>
	</linearGradient>
	<path fill="url(#SVGID_1_)" stroke="#9B9B9B" stroke-width="0.25" stroke-linejoin="bevel" stroke-miterlimit="10" d="
		M137.137,409.226c29.25,48.75,19,79.688,19,79.688c-0.25-0.188,40.48,13.039,53.465,41.426l43.785-121.113h-17.25l-29.25,91.5
		c0,0-20.961-22.555-36.238-22.555c0.238,0.055,9.93-22.246-14.512-68.945H137.137z"/>
	
		<linearGradient id="SVGID_2_" gradientUnits="userSpaceOnUse" x1="268.2227" y1="58.8027" x2="202.2227" y2="58.8027" gradientTransform="matrix(0.75 0 0 -0.75 172.5897 151.8165)">
		<stop  offset="0" style="stop-color:#AFAFAF"/>
		<stop  offset="0.59" style="stop-color:#E5E5E5"/>
		<stop  offset="1" style="stop-color:#AFAFAF"/>
	</linearGradient>
	<path fill="url(#SVGID_2_)" stroke="#9B9B9B" stroke-width="0.25" stroke-linejoin="bevel" stroke-miterlimit="10" d="
		M346.007,205.59V63.09l-21.75-62.25h15.75l10.5,30.75l8.25-30.75h15l-18.75,62.25v151.5L346.007,205.59z"/>
	
		<linearGradient id="SVGID_3_" gradientUnits="userSpaceOnUse" x1="271.2275" y1="188.8047" x2="202.2275" y2="188.8047" gradientTransform="matrix(0.75 0 0 -0.75 16.0795 278.2589)">
		<stop  offset="0" style="stop-color:#AFAFAF"/>
		<stop  offset="0.78" style="stop-color:#E5E5E5"/>
		<stop  offset="1" style="stop-color:#AFAFAF"/>
	</linearGradient>
	<path fill="url(#SVGID_3_)" stroke="#9B9B9B" stroke-width="0.25" stroke-linejoin="bevel" stroke-miterlimit="10" d="
		M167.75,127.281h51.75v18.75h-51.75V127.281z"/>
	
		<linearGradient id="SVGID_4_" gradientUnits="userSpaceOnUse" x1="313.2261" y1="171.8066" x2="202.2271" y2="171.8066" gradientTransform="matrix(0.75 0 0 -0.75 75.6576 395.4591)">
		<stop  offset="0" style="stop-color:#AFAFAF"/>
		<stop  offset="0.59" style="stop-color:#E5E5E5"/>
		<stop  offset="1" style="stop-color:#AFAFAF"/>
	</linearGradient>
	<path fill="url(#SVGID_4_)" stroke="#9B9B9B" stroke-width="0.25" stroke-linejoin="bevel" stroke-miterlimit="10" d="
		M227.328,244.48h83.25v44.25h-83.25V244.48z"/>
	
		<linearGradient id="SVGID_5_" gradientUnits="userSpaceOnUse" x1="380.2212" y1="95.8066" x2="202.2217" y2="95.8066" gradientTransform="matrix(0.75 0 0 -0.75 133.0863 395.4708)">
		<stop  offset="0" style="stop-color:#AFAFAF"/>
		<stop  offset="0.59" style="stop-color:#E5E5E5"/>
		<stop  offset="1" style="stop-color:#AFAFAF"/>
	</linearGradient>
	<path fill="url(#SVGID_5_)" stroke="#9B9B9B" stroke-width="0.25" stroke-linejoin="bevel" stroke-miterlimit="10" d="
		M306.503,244.492h84.75l27,158.25h-133.5L306.503,244.492z"/>
	
		<linearGradient id="SVGID_6_" gradientUnits="userSpaceOnUse" x1="314.5386" y1="176.8906" x2="202.2192" y2="176.8906" gradientTransform="matrix(0.75 0 0 -0.75 155.161 349.4425)">
		<stop  offset="0" style="stop-color:#AFAFAF"/>
		<stop  offset="0.59" style="stop-color:#E5E5E5"/>
		<stop  offset="1" style="stop-color:#AFAFAF"/>
	</linearGradient>
	<path fill="url(#SVGID_6_)" stroke="#9B9B9B" stroke-width="0.25" stroke-linejoin="bevel" stroke-miterlimit="10" d="
		M306.832,235.215c-0.75-46.5,81.18-51.992,84.234,0.074L306.832,235.215z"/>
	
		<linearGradient id="SVGID_7_" gradientUnits="userSpaceOnUse" x1="494.2241" y1="92.3062" x2="202.2251" y2="92.3061" gradientTransform="matrix(0.75 0 0 -0.75 90.932 553.8185)">
		<stop  offset="0" style="stop-color:#AFAFAF"/>
		<stop  offset="0.59" style="stop-color:#E5E5E5"/>
		<stop  offset="1" style="stop-color:#AFAFAF"/>
	</linearGradient>
	<path fill="url(#SVGID_7_)" stroke="#9B9B9B" stroke-width="0.25" stroke-linejoin="bevel" stroke-miterlimit="10" d="
		M284.601,402.839l-42,163.5h219l-42.75-163.5h-9.75l39,153h-191.25l38.25-153H284.601z"/>
	
		<linearGradient id="SVGID_8_" gradientUnits="userSpaceOnUse" x1="221.1353" y1="201.3018" x2="221.1353" y2="60.7021" gradientTransform="matrix(0.75 0 0 -0.75 86.141 223.7462)">
		<stop  offset="0" style="stop-color:#FF1418"/>
		<stop  offset="1" style="stop-color:#C20032"/>
	</linearGradient>
	<path fill="url(#SVGID_8_)" stroke="#9B9B9B" stroke-width="0.25" stroke-linejoin="bevel" stroke-miterlimit="10" d="
		M266.309,72.77c0,0-28.633,17.059-28.633,53.27c0.133,35.98,28.59,52.777,28.59,52.164L266.309,72.77z"/>
	
		<linearGradient id="SVGID_9_" gradientUnits="userSpaceOnUse" x1="247.2241" y1="114.3037" x2="202.2241" y2="114.3037" gradientTransform="matrix(0.75 0 0 -0.75 75.6556 264.754)">
		<stop  offset="0" style="stop-color:#AFAFAF"/>
		<stop  offset="0.59" style="stop-color:#E5E5E5"/>
		<stop  offset="1" style="stop-color:#AFAFAF"/>
	</linearGradient>
	<path fill="url(#SVGID_9_)" stroke="#9B9B9B" stroke-width="0.25" stroke-linejoin="bevel" stroke-miterlimit="10" d="
		M237.824,113.777v48.75l15.75,31.5v29.25h-21v15h28.5v6h-33.75v-27.75h21.75v-19.5l-16.5-34.5v-48.75H237.824z"/>
	
		<linearGradient id="SVGID_10_" gradientUnits="userSpaceOnUse" x1="211.2231" y1="201.3047" x2="211.2231" y2="140.3047" gradientTransform="matrix(0.75 0 0 -0.75 67.0829 264.756)">
		<stop  offset="0" style="stop-color:#FF1418"/>
		<stop  offset="1" style="stop-color:#C20032"/>
	</linearGradient>
	<path fill="url(#SVGID_10_)" stroke="#9B9B9B" stroke-width="0.25" stroke-linejoin="bevel" stroke-miterlimit="10" d="
		M232.25,113.777h-13.5v45.75h13.5V113.777z"/>
	
		<linearGradient id="SVGID_11_" gradientUnits="userSpaceOnUse" x1="442.2241" y1="193.8057" x2="202.2251" y2="193.8056" gradientTransform="matrix(0.75 0 0 -0.75 -46.7047 549.3536)">
		<stop  offset="0" style="stop-color:#AFAFAF"/>
		<stop  offset="0.59" style="stop-color:#E5E5E5"/>
		<stop  offset="1" style="stop-color:#AFAFAF"/>
	</linearGradient>
	<path fill="url(#SVGID_11_)" stroke="#9B9B9B" stroke-width="0.25" stroke-linejoin="bevel" stroke-miterlimit="10" d="
		M284.964,409.625h-180v-11.25h180V409.625z"/>
	<path fill="#7E7E7E" stroke="#9B9B9B" stroke-width="0.25" stroke-linejoin="bevel" stroke-miterlimit="10" d="M344.421,225.152
		c0-2.25,1.957-4.59,4.488-4.59c2.262,0.09,4.582,2.063,4.582,4.605c-0.07,2.234-2.051,4.602-4.582,4.602
		c-2.238-0.117-4.582-2.059-4.582-4.602L344.421,225.152z"/>
	
		<linearGradient id="SVGID_12_" gradientUnits="userSpaceOnUse" x1="314.2231" y1="195.3037" x2="202.2231" y2="195.3037" gradientTransform="matrix(0.75 0 0 -0.75 155.1678 386.2657)">
		<stop  offset="0" style="stop-color:#AFAFAF"/>
		<stop  offset="0.59" style="stop-color:#E5E5E5"/>
		<stop  offset="1" style="stop-color:#AFAFAF"/>
	</linearGradient>
	<path fill="url(#SVGID_12_)" stroke="#9B9B9B" stroke-width="0.25" stroke-linejoin="bevel" stroke-miterlimit="10" d="
		M306.835,235.289h84v9h-84V235.289z"/>
	
		<linearGradient id="SVGID_13_" gradientUnits="userSpaceOnUse" x1="263.2256" y1="66.3057" x2="202.2266" y2="66.3057" gradientTransform="matrix(0.75 0 0 -0.75 109.2557 192.9435)">
		<stop  offset="0" style="stop-color:#AFAFAF"/>
		<stop  offset="0.78" style="stop-color:#E5E5E5"/>
		<stop  offset="1" style="stop-color:#AFAFAF"/>
	</linearGradient>
	<path fill="url(#SVGID_13_)" stroke="#9B9B9B" stroke-width="0.25" stroke-linejoin="bevel" stroke-miterlimit="10" d="
		M260.926,41.965h45.75v202.5h-45.75V41.965z"/>
</g>
</svg>
