<?xml version="1.0" encoding="utf-8"?>
<!-- Generator: Adobe Illustrator 16.0.0, SVG Export Plug-In . SVG Version: 6.00 Build 0)  -->
<!DOCTYPE svg PUBLIC "-//W3C//DTD SVG 1.1//EN" "http://www.w3.org/Graphics/SVG/1.1/DTD/svg11.dtd">
<svg preserveAspectRatio="none" version="1.1" id="图层_1" xmlns="http://www.w3.org/2000/svg" xmlns:xlink="http://www.w3.org/1999/xlink" x="0px" y="0px"
	 width="566.32px" height="357.87px" viewBox="0.305 208.375 566.32 357.87" enable-background="new 0.305 208.375 566.32 357.87"
	 xml:space="preserve">
<g id="surface384">
	
		<linearGradient id="SVGID_1_" gradientUnits="userSpaceOnUse" x1="879.2251" y1="159.3042" x2="202.2251" y2="159.3041" gradientTransform="matrix(0.75 0 0 -0.75 -136.0797 506.6017)">
		<stop  offset="0" style="stop-color:#AFAFAF"/>
		<stop  offset="0.83" style="stop-color:#C2C2C2"/>
		<stop  offset="1" style="stop-color:#AFAFAF"/>
	</linearGradient>
	<path fill="url(#SVGID_1_)" stroke="#AFAFAF" stroke-width="0.25" stroke-linejoin="bevel" stroke-miterlimit="10" d="
		M15.59,355.625h507.75v63H15.59V355.625z"/>
	
		<linearGradient id="SVGID_2_" gradientUnits="userSpaceOnUse" x1="793.6616" y1="-37.1084" x2="202.2197" y2="-37.1085" gradientTransform="matrix(0.75 0 0 -0.75 -28.7472 359.4777)">
		<stop  offset="0" style="stop-color:#AFAFAF"/>
		<stop  offset="0.59" style="stop-color:#E5E5E5"/>
		<stop  offset="1" style="stop-color:#AFAFAF"/>
	</linearGradient>
	<path fill="url(#SVGID_2_)" stroke="#AFAFAF" stroke-width="0.25" stroke-linejoin="bevel" stroke-miterlimit="10" d="
		M163.422,208.5c0,0-40.5,3.012-40.5,40.172c0,37.078,0,277.175,0,277.175c0-0.098-1.18,40.168,40.695,40.168
		c36.555,0.234,362.187,0,362.187,0c-0.133,0.234,40.695-2.008,40.695-40.168c-0.328-38.348,0-277.175,0-277.175
		c-0.328,0.328,1.016-40.172-40.695-40.172c-41.383,0-362.187,0-362.187,0H163.422z M198.672,255c0,0-23.051,3.043-23.051,24.469
		c-0.199,21.281,0,212.902,0,212.902c-0.199-0.371-2.047,18.613,19.793,22.363c0.258-0.234,288.933,0,288.933,0
		c0.074-0.234,25.91,0.938,25.91-21.023c-0.336-0.211,0-216.921,0-216.921c-0.336-0.039-0.121-20.352-23.453-21.426
		c-0.133-0.363-287.851,0-287.851,0L198.672,255z"/>
	
		<radialGradient id="SVGID_3_" cx="202.2246" cy="201.3042" r="341.1854" gradientTransform="matrix(0.75 0 0 -0.75 101.9862 448.3546)" gradientUnits="userSpaceOnUse">
		<stop  offset="0" style="stop-color:#DCDCDC"/>
		<stop  offset="1" style="stop-color:#AFAFAF"/>
	</radialGradient>
	<path fill="url(#SVGID_3_)" stroke="#AFAFAF" stroke-width="0.25" stroke-linejoin="bevel" stroke-miterlimit="10" d="
		M253.656,387.378c0-49.5,40.765-90,91.054-90c49.945,0,91.055,40.238,91.055,89.879c0.141,49.621-40.766,89.883-91.055,89.883
		c-50.555,0.238-91.054-40.242-91.054-89.883V387.378z"/>
	
		<linearGradient id="SVGID_4_" gradientUnits="userSpaceOnUse" x1="230.2246" y1="123.3066" x2="202.2246" y2="123.3066" gradientTransform="matrix(0.75 0 0 -0.75 -151.2389 479.588)">
		<stop  offset="0" style="stop-color:#AFAFAF"/>
		<stop  offset="0.59" style="stop-color:#E5E5E5"/>
		<stop  offset="1" style="stop-color:#AFAFAF"/>
	</linearGradient>
	<path fill="url(#SVGID_4_)" stroke="#AFAFAF" stroke-width="0.25" stroke-linejoin="bevel" stroke-miterlimit="10" d="
		M0.43,328.609h21v117h-21V328.609z"/>
</g>
</svg>
