<?xml version="1.0" encoding="utf-8"?>
<!-- Generator: Adobe Illustrator 16.0.0, SVG Export Plug-In . SVG Version: 6.00 Build 0)  -->
<!DOCTYPE svg PUBLIC "-//W3C//DTD SVG 1.1//EN" "http://www.w3.org/Graphics/SVG/1.1/DTD/svg11.dtd">
<svg preserveAspectRatio="none" version="1.1" id="图层_1" xmlns="http://www.w3.org/2000/svg" xmlns:xlink="http://www.w3.org/1999/xlink" x="0px" y="0px"
	 width="291.25px" height="567.23px" viewBox="137.879 -0.125 291.25 567.23" enable-background="new 137.879 -0.125 291.25 567.23"
	 xml:space="preserve">
<g id="surface251">
	
		<linearGradient id="SVGID_1_" gradientUnits="userSpaceOnUse" x1="294.1108" y1="128.4028" x2="157.2944" y2="178.1999" gradientTransform="matrix(-0.75 0 0 -0.75 498.4083 213.3986)">
		<stop  offset="0" style="stop-color:#236EA1"/>
		<stop  offset="0.59" style="stop-color:#83B3E3"/>
		<stop  offset="1" style="stop-color:#236EA1"/>
	</linearGradient>
	<path fill="url(#SVGID_1_)" stroke="#236EA1" stroke-width="0.25" stroke-linejoin="bevel" stroke-miterlimit="10" d="
		M374.132,134.422l-34.5-72h-55.5l33,72H374.132z"/>
	
		<linearGradient id="SVGID_2_" gradientUnits="userSpaceOnUse" x1="328.6245" y1="141.5962" x2="195.826" y2="165.0122" gradientTransform="matrix(0.75 0 0 -0.75 42.9115 213.3986)">
		<stop  offset="0" style="stop-color:#236EA1"/>
		<stop  offset="0.59" style="stop-color:#83B3E3"/>
		<stop  offset="1" style="stop-color:#236EA1"/>
	</linearGradient>
	<path fill="url(#SVGID_2_)" stroke="#236EA1" stroke-width="0.25" stroke-linejoin="bevel" stroke-miterlimit="10" d="
		M194.582,134.422l34.5-72h55.5l-33,72H194.582z"/>
	
		<linearGradient id="SVGID_3_" gradientUnits="userSpaceOnUse" x1="227.2241" y1="180.3047" x2="202.2241" y2="180.3047" gradientTransform="matrix(0.75 0 0 -0.75 -1.8873 526.2111)">
		<stop  offset="0" style="stop-color:#236EA1"/>
		<stop  offset="0.59" style="stop-color:#83B3E3"/>
		<stop  offset="1" style="stop-color:#236EA1"/>
	</linearGradient>
	<path fill="url(#SVGID_3_)" stroke="#236EA1" stroke-width="0.25" stroke-linejoin="bevel" stroke-miterlimit="10" d="
		M149.781,375.234h18.75v31.5h-18.75V375.234z"/>
	
		<linearGradient id="SVGID_4_" gradientUnits="userSpaceOnUse" x1="227.2227" y1="180.3027" x2="202.2227" y2="180.3027" gradientTransform="matrix(0.75 0 0 -0.75 -2.9562 613.8126)">
		<stop  offset="0" style="stop-color:#236EA1"/>
		<stop  offset="0.59" style="stop-color:#83B3E3"/>
		<stop  offset="1" style="stop-color:#236EA1"/>
	</linearGradient>
	<path fill="url(#SVGID_4_)" stroke="#236EA1" stroke-width="0.25" stroke-linejoin="bevel" stroke-miterlimit="10" d="
		M148.711,462.835h18.75v31.5h-18.75V462.835z"/>
	
		<linearGradient id="SVGID_5_" gradientUnits="userSpaceOnUse" x1="590.2261" y1="172.3032" x2="202.2261" y2="172.3032" gradientTransform="matrix(0.75 0 0 -0.75 -13.6666 283.9767)">
		<stop  offset="0" style="stop-color:#236EA1"/>
		<stop  offset="0.59" style="stop-color:#83B3E3"/>
		<stop  offset="1" style="stop-color:#236EA1"/>
	</linearGradient>
	<path fill="url(#SVGID_5_)" stroke="#236EA1" stroke-width="0.25" stroke-linejoin="bevel" stroke-miterlimit="10" d="M138.004,133
		h291v43.5h-291V133z"/>
	
		<linearGradient id="SVGID_6_" gradientUnits="userSpaceOnUse" x1="590.2261" y1="114.3057" x2="202.2261" y2="114.3056" gradientTransform="matrix(0.75 0 0 -0.75 -13.6666 327.423)">
		<stop  offset="0" style="stop-color:#236EA1"/>
		<stop  offset="0.59" style="stop-color:#83B3E3"/>
		<stop  offset="1" style="stop-color:#236EA1"/>
	</linearGradient>
	<path fill="url(#SVGID_6_)" stroke="#236EA1" stroke-width="0.25" stroke-linejoin="bevel" stroke-miterlimit="10" d="
		M138.004,176.445v67.5l34.5,63h224.25l32.25-63v-67.5H138.004z"/>
	
		<linearGradient id="SVGID_7_" gradientUnits="userSpaceOnUse" x1="590.2261" y1="172.3052" x2="202.2261" y2="172.3051" gradientTransform="matrix(0.75 0 0 -0.75 -13.6666 457.7618)">
		<stop  offset="0" style="stop-color:#236EA1"/>
		<stop  offset="0.59" style="stop-color:#83B3E3"/>
		<stop  offset="1" style="stop-color:#236EA1"/>
	</linearGradient>
	<path fill="url(#SVGID_7_)" stroke="#236EA1" stroke-width="0.25" stroke-linejoin="bevel" stroke-miterlimit="10" d="
		M138.004,306.785h291v43.5h-291V306.785z"/>
	
		<linearGradient id="SVGID_8_" gradientUnits="userSpaceOnUse" x1="537.2261" y1="84.8071" x2="202.2261" y2="84.8071" gradientTransform="matrix(0.75 0 0 -0.75 6.3256 499.4279)">
		<stop  offset="0" style="stop-color:#236EA1"/>
		<stop  offset="0.59" style="stop-color:#83B3E3"/>
		<stop  offset="1" style="stop-color:#236EA1"/>
	</linearGradient>
	<path fill="url(#SVGID_8_)" stroke="#236EA1" stroke-width="0.25" stroke-linejoin="bevel" stroke-miterlimit="10" d="
		M157.996,348.449h251.25v174.75h-251.25V348.449z"/>
	
		<linearGradient id="SVGID_9_" gradientUnits="userSpaceOnUse" x1="590.2261" y1="172.3071" x2="202.2261" y2="172.3071" gradientTransform="matrix(0.75 0 0 -0.75 -13.6666 674.4601)">
		<stop  offset="0" style="stop-color:#236EA1"/>
		<stop  offset="0.59" style="stop-color:#83B3E3"/>
		<stop  offset="1" style="stop-color:#236EA1"/>
	</linearGradient>
	<path fill="url(#SVGID_9_)" stroke="#236EA1" stroke-width="0.25" stroke-linejoin="bevel" stroke-miterlimit="10" d="
		M138.004,523.48h291v43.5h-291V523.48z"/>
	
		<linearGradient id="SVGID_10_" gradientUnits="userSpaceOnUse" x1="350.2241" y1="159.8037" x2="202.2241" y2="159.8037" gradientTransform="matrix(0.75 0 0 -0.75 77.1786 150.9777)">
		<stop  offset="0" style="stop-color:#236EA1"/>
		<stop  offset="0.59" style="stop-color:#83B3E3"/>
		<stop  offset="1" style="stop-color:#236EA1"/>
	</linearGradient>
	<path fill="url(#SVGID_10_)" stroke="#236EA1" stroke-width="0.25" stroke-linejoin="bevel" stroke-miterlimit="10" d="
		M339.847,62.25V0h-111v62.25H339.847z"/>
	<path fill="none" stroke="#191919" stroke-width="0.25" stroke-linejoin="bevel" stroke-miterlimit="10" d="M166.391,310.16
		l-18.75,4.5l21,6.75l-21,4.5l18.75,5.25l-18.75,5.25l18.75,5.25l-18.75,5.25"/>
	<path fill="none" stroke="#191919" stroke-width="0.25" stroke-linejoin="bevel" stroke-miterlimit="10" d="M216.008,310.16
		l-18.75,4.5l21,6.75l-21,4.5l18.75,5.25l-18.75,5.25l18.75,5.25l-18.75,5.25"/>
	<path fill="none" stroke="#191919" stroke-width="0.25" stroke-linejoin="bevel" stroke-miterlimit="10" d="M325.71,310.16
		l-18.75,4.5l21,6.75l-21,4.5l18.75,5.25l-18.75,5.25l18.75,5.25l-18.75,5.25"/>
	<path fill="none" stroke="#191919" stroke-width="0.25" stroke-linejoin="bevel" stroke-miterlimit="10" d="M419.75,310.16
		l-18.75,4.5l21,6.75l-21,4.5l18.75,5.25L401,336.41l18.75,5.25L401,346.91"/>
</g>
</svg>
