<?xml version="1.0" encoding="utf-8"?>
<!-- Generator: Adobe Illustrator 16.0.0, SVG Export Plug-In . SVG Version: 6.00 Build 0)  -->
<!DOCTYPE svg PUBLIC "-//W3C//DTD SVG 1.1//EN" "http://www.w3.org/Graphics/SVG/1.1/DTD/svg11.dtd">
<svg preserveAspectRatio="none" version="1.1" id="图层_1" xmlns="http://www.w3.org/2000/svg" xmlns:xlink="http://www.w3.org/1999/xlink" x="0px" y="0px"
	 width="567.25px" height="559.683px" viewBox="-0.125 6.273 567.25 559.683" enable-background="new -0.125 6.273 567.25 559.683"
	 xml:space="preserve">
<g id="surface106">
	
		<linearGradient id="SVGID_1_" gradientUnits="userSpaceOnUse" x1="312.2271" y1="62.3037" x2="202.2266" y2="62.3037" gradientTransform="matrix(0.75 0 0 -0.75 290.5907 209.5704)">
		<stop  offset="0" style="stop-color:#AFAFAF"/>
		<stop  offset="0.59" style="stop-color:#E5E5E5"/>
		<stop  offset="1" style="stop-color:#AFAFAF"/>
	</linearGradient>
	<path fill="url(#SVGID_1_)" stroke="#9B9B9B" stroke-width="0.25" stroke-linejoin="bevel" stroke-miterlimit="10" d="
		M442.261,58.594h82.5v208.5h-82.5V58.594z"/>
	
		<linearGradient id="SVGID_2_" gradientUnits="userSpaceOnUse" x1="357.2056" y1="124.3135" x2="202.2217" y2="124.3135" gradientTransform="matrix(0.75 0 0 -0.75 256.5712 347.59)">
		<stop  offset="0" style="stop-color:#AFAFAF"/>
		<stop  offset="0.59" style="stop-color:#E5E5E5"/>
		<stop  offset="1" style="stop-color:#AFAFAF"/>
	</linearGradient>
	<path fill="url(#SVGID_2_)" stroke="#9B9B9B" stroke-width="0.25" stroke-linejoin="bevel" stroke-miterlimit="10" d="
		M408.238,254.363c0-32.25,26.023-57.75,58.121-57.75c31.879,0,58.117,25.852,58.117,57.742
		c0.012,32.257-26.023,57.742-58.117,57.742c-31.871,0.016-58.121-25.852-58.121-57.742V254.363z"/>
	
		<linearGradient id="SVGID_3_" gradientUnits="userSpaceOnUse" x1="728.2261" y1="186.3042" x2="202.2261" y2="186.3042" gradientTransform="matrix(0.75 0 0 -0.75 -133.3619 157.3761)">
		<stop  offset="0" style="stop-color:#AFAFAF"/>
		<stop  offset="0.59" style="stop-color:#E5E5E5"/>
		<stop  offset="1" style="stop-color:#AFAFAF"/>
	</linearGradient>
	<path fill="url(#SVGID_3_)" stroke="#9B9B9B" stroke-width="0.25" stroke-linejoin="bevel" stroke-miterlimit="10" d="
		M18.309,6.398h394.5v22.5h-394.5V6.398z"/>
	
		<linearGradient id="SVGID_4_" gradientUnits="userSpaceOnUse" x1="958.2231" y1="151.8032" x2="202.2246" y2="151.8032" gradientTransform="matrix(0.75 0 0 -0.75 -151.6691 642.5587)">
		<stop  offset="0" style="stop-color:#AFAFAF"/>
		<stop  offset="0.59" style="stop-color:#E5E5E5"/>
		<stop  offset="1" style="stop-color:#AFAFAF"/>
	</linearGradient>
	<path fill="url(#SVGID_4_)" stroke="#9B9B9B" stroke-width="0.25" stroke-linejoin="bevel" stroke-miterlimit="10" d="M0,491.582
		h567v74.25H0V491.582z"/>
	
		<linearGradient id="SVGID_5_" gradientUnits="userSpaceOnUse" x1="595.2241" y1="87.3052" x2="202.2251" y2="87.3051" gradientTransform="matrix(0.75 0 0 -0.75 -29.1969 545.3243)">
		<stop  offset="0" style="stop-color:#AFAFAF"/>
		<stop  offset="0.59" style="stop-color:#E5E5E5"/>
		<stop  offset="1" style="stop-color:#AFAFAF"/>
	</linearGradient>
	<path fill="url(#SVGID_5_)" stroke="#9B9B9B" stroke-width="0.25" stroke-linejoin="bevel" stroke-miterlimit="10" d="
		M122.473,394.347l115.5,171h179.25l-113.25-171H122.473z"/>
	
		<linearGradient id="SVGID_6_" gradientUnits="userSpaceOnUse" x1="716.3013" y1="-54.0776" x2="202.2236" y2="-54.0777" gradientTransform="matrix(0.75 0 0 -0.75 -128.9889 184.2198)">
		<stop  offset="0" style="stop-color:#AFAFAF"/>
		<stop  offset="0.59" style="stop-color:#E5E5E5"/>
		<stop  offset="1" style="stop-color:#AFAFAF"/>
	</linearGradient>
	<path fill="url(#SVGID_6_)" stroke="#9B9B9B" stroke-width="0.25" stroke-linejoin="bevel" stroke-miterlimit="10" d="
		M22.68,224.492c0-105.75,86.313-191.25,192.781-191.25c106.468,0,192.777,85.754,192.777,191.539
		c-0.059,105.46-86.309,191.535-192.777,191.535C108.93,416.492,22.68,330.562,22.68,224.781V224.492z"/>
	
		<linearGradient id="SVGID_7_" gradientUnits="userSpaceOnUse" x1="728.2251" y1="186.3062" x2="202.2256" y2="186.3061" gradientTransform="matrix(0.75 0 0 -0.75 -133.3615 567.295)">
		<stop  offset="0" style="stop-color:#AFAFAF"/>
		<stop  offset="0.59" style="stop-color:#E5E5E5"/>
		<stop  offset="1" style="stop-color:#AFAFAF"/>
	</linearGradient>
	<path fill="url(#SVGID_7_)" stroke="#9B9B9B" stroke-width="0.25" stroke-linejoin="bevel" stroke-miterlimit="10" d="
		M18.309,416.316h394.5v22.5h-394.5V416.316z"/>
	
		<radialGradient id="SVGID_8_" cx="202.2241" cy="201.3037" r="671.9061" gradientTransform="matrix(0.75 0 0 -0.75 -114.9493 198.1691)" gradientUnits="userSpaceOnUse">
		<stop  offset="0" style="stop-color:#E5E5E5"/>
		<stop  offset="0.59" style="stop-color:#AFAFAF"/>
		<stop  offset="1" style="stop-color:#AFAFAF"/>
	</radialGradient>
	<path fill="url(#SVGID_8_)" stroke="#9B9B9B" stroke-width="0.25" stroke-linejoin="bevel" stroke-miterlimit="10" d="
		M36.719,224.941c0-98.25,80.027-177.75,178.742-177.75c98.757,0,178.738,79.508,178.738,177.59
		c0.27,98.41-80.023,177.585-178.738,177.585c-98.492,0.324-178.742-79.508-178.742-177.585V224.941z"/>
</g>
</svg>
