<?xml version="1.0" encoding="utf-8"?>
<!-- Generator: Adobe Illustrator 16.0.0, SVG Export Plug-In . SVG Version: 6.00 Build 0)  -->
<!DOCTYPE svg PUBLIC "-//W3C//DTD SVG 1.1//EN" "http://www.w3.org/Graphics/SVG/1.1/DTD/svg11.dtd">
<svg preserveAspectRatio="none" version="1.1" id="图层_1" xmlns="http://www.w3.org/2000/svg" xmlns:xlink="http://www.w3.org/1999/xlink" x="0px" y="0px"
	 width="441.205px" height="558.223px" viewBox="62.485 4.972 441.205 558.223"
	 enable-background="new 62.485 4.972 441.205 558.223" xml:space="preserve">
<g id="surface404">
	
		<linearGradient id="SVGID_1_" gradientUnits="userSpaceOnUse" x1="790.2251" y1="-170.6963" x2="202.2251" y2="-170.6963" gradientTransform="matrix(0.75 0 0 -0.75 -89.0875 156.047)">
		<stop  offset="0" style="stop-color:#FFC000"/>
		<stop  offset="0.59" style="stop-color:#FFE599"/>
		<stop  offset="1" style="stop-color:#FCC416"/>
	</linearGradient>
	<path fill="url(#SVGID_1_)" stroke="#CC9900" stroke-width="0.25" stroke-linejoin="bevel" stroke-miterlimit="10" d="
		M62.582,172.32l136.5-167.25c0,0,188.343,146.566,268.113,269.84c79.887,123.16,0,224.218,0,224.218l36.387,63.941h-119.25
		l28.5-63.75h-114l-28.5,63.75h-126.75l-35.25-62.25v-87l72-135L62.582,172.32z"/>
	
		<radialGradient id="SVGID_2_" cx="202.2246" cy="201.3042" r="301.3577" gradientTransform="matrix(0.75 0 0 -0.75 122.3881 490.4025)" gradientUnits="userSpaceOnUse">
		<stop  offset="0" style="stop-color:#7E7E7E"/>
		<stop  offset="0.59" style="stop-color:#000000"/>
		<stop  offset="1" style="stop-color:#000000"/>
	</radialGradient>
	<path fill="url(#SVGID_2_)" stroke="#ECB200" stroke-width="0.25" stroke-linejoin="bevel" stroke-miterlimit="10" d="
		M274.059,418.925c0-43.5,35.718-79.5,79.996-79.5c43.754,0,79.996,35.695,79.996,79.82c-0.242,43.93-35.883,79.82-79.996,79.82
		c-43.996,0.109-79.996-35.75-79.996-79.82V418.925z"/>
	
		<radialGradient id="SVGID_3_" cx="202.2251" cy="201.3037" r="260.5944" gradientTransform="matrix(0.75 0 0 -0.75 133.2084 501.1984)" gradientUnits="userSpaceOnUse">
		<stop  offset="0" style="stop-color:#FF7377"/>
		<stop  offset="0.59" style="stop-color:#FF1418"/>
		<stop  offset="1" style="stop-color:#FF1418"/>
	</radialGradient>
	<path fill="url(#SVGID_3_)" stroke="#FF1418" stroke-width="0.25" stroke-linejoin="bevel" stroke-miterlimit="10" d="
		M284.878,419.218c0-38.25,30.887-69,69.176-69c38.074,0,69.176,30.867,69.176,69.027c-0.352,38.223-31.027,69.023-69.176,69.023
		c-38.426-0.051-69.176-30.914-69.176-69.023V419.218z"/>
	
		<radialGradient id="SVGID_4_" cx="202.0874" cy="201.4414" r="107.1587" gradientTransform="matrix(0.75 0 0 -0.75 173.9384 541.84)" gradientUnits="userSpaceOnUse">
		<stop  offset="0" style="stop-color:#FFE599"/>
		<stop  offset="0.59" style="stop-color:#FFC000"/>
		<stop  offset="1" style="stop-color:#FFC000"/>
	</radialGradient>
	<path fill="url(#SVGID_4_)" stroke="#FFC617" stroke-width="0.25" stroke-linejoin="bevel" stroke-miterlimit="10" d="
		M325.609,419.363c0-15.75,12.629-28.605,28.34-28.605c15.91,0.105,28.441,12.707,28.441,28.383
		c0.219,15.973-12.734,28.383-28.441,28.383c-15.59,0.34-28.445-12.707-28.445-28.383L325.609,419.363z"/>
	
		<radialGradient id="SVGID_5_" cx="202.1382" cy="201.3896" r="66.9686" gradientTransform="matrix(0.75 0 0 -0.75 196.8632 502.7618)" gradientUnits="userSpaceOnUse">
		<stop  offset="0" style="stop-color:#FFE599"/>
		<stop  offset="0.59" style="stop-color:#FFC000"/>
		<stop  offset="1" style="stop-color:#FFC000"/>
	</radialGradient>
	<path fill="url(#SVGID_5_)" stroke="#FFC617" stroke-width="0.25" stroke-linejoin="bevel" stroke-miterlimit="10" d="
		M348.531,369.785c0-9.75,7.895-18.066,17.715-18.066c10.035,0.066,17.777,7.941,17.777,17.738
		c-0.242,10.078-7.961,17.738-17.777,17.738c-9.465-0.16-17.777-7.941-17.777-17.738L348.531,369.785z"/>
	
		<radialGradient id="SVGID_6_" cx="202.1382" cy="201.3896" r="66.9686" gradientTransform="matrix(0.75 0 0 -0.75 233.9755 537.67)" gradientUnits="userSpaceOnUse">
		<stop  offset="0" style="stop-color:#FFE599"/>
		<stop  offset="0.59" style="stop-color:#FFC000"/>
		<stop  offset="1" style="stop-color:#FFC000"/>
	</radialGradient>
	<path fill="url(#SVGID_6_)" stroke="#FFC617" stroke-width="0.25" stroke-linejoin="bevel" stroke-miterlimit="10" d="
		M385.644,404.691c0-9.75,7.895-18.063,17.715-18.063c10.035,0.063,17.777,7.941,17.777,17.738
		c-0.242,10.074-7.961,17.738-17.777,17.738c-9.465-0.164-17.777-7.941-17.777-17.738L385.644,404.691z"/>
	
		<radialGradient id="SVGID_7_" cx="202.1382" cy="201.3901" r="66.9686" gradientTransform="matrix(0.75 0 0 -0.75 166.7118 600.5382)" gradientUnits="userSpaceOnUse">
		<stop  offset="0" style="stop-color:#FFE599"/>
		<stop  offset="0.59" style="stop-color:#FFC000"/>
		<stop  offset="1" style="stop-color:#FFC000"/>
	</radialGradient>
	<path fill="url(#SVGID_7_)" stroke="#FFC617" stroke-width="0.25" stroke-linejoin="bevel" stroke-miterlimit="10" d="
		M318.382,467.562c0-9.75,7.895-18.066,17.711-18.066c10.039,0.066,17.777,7.941,17.777,17.738
		c-0.238,10.078-7.961,17.738-17.777,17.738c-9.461-0.16-17.777-7.941-17.777-17.738L318.382,467.562z"/>
	
		<radialGradient id="SVGID_8_" cx="202.1392" cy="201.3901" r="66.9686" gradientTransform="matrix(0.75 0 0 -0.75 135.0072 565.2863)" gradientUnits="userSpaceOnUse">
		<stop  offset="0" style="stop-color:#FFE599"/>
		<stop  offset="0.59" style="stop-color:#FFC000"/>
		<stop  offset="1" style="stop-color:#FFC000"/>
	</radialGradient>
	<path fill="url(#SVGID_8_)" stroke="#FFC617" stroke-width="0.25" stroke-linejoin="bevel" stroke-miterlimit="10" d="
		M286.675,432.308c0-9.75,7.895-18.063,17.715-18.063c10.035,0.063,17.777,7.941,17.777,17.738
		c-0.242,10.074-7.961,17.738-17.777,17.738c-9.465-0.164-17.777-7.941-17.777-17.738L286.675,432.308z"/>
	
		<radialGradient id="SVGID_9_" cx="202.1392" cy="201.3896" r="66.9686" gradientTransform="matrix(0.75 0 0 -0.75 221.6053 587.7345)" gradientUnits="userSpaceOnUse">
		<stop  offset="0" style="stop-color:#FFE599"/>
		<stop  offset="0.59" style="stop-color:#FFC000"/>
		<stop  offset="1" style="stop-color:#FFC000"/>
	</radialGradient>
	<path fill="url(#SVGID_9_)" stroke="#FFC617" stroke-width="0.25" stroke-linejoin="bevel" stroke-miterlimit="10" d="
		M373.273,454.757c0-9.75,7.895-18.066,17.715-18.066c10.035,0.066,17.777,7.941,17.777,17.738
		c-0.242,10.078-7.961,17.738-17.777,17.738c-9.465-0.16-17.777-7.941-17.777-17.738L373.273,454.757z"/>
	
		<radialGradient id="SVGID_10_" cx="202.1392" cy="201.3906" r="66.9686" gradientTransform="matrix(0.75 0 0 -0.75 146.4569 518.0353)" gradientUnits="userSpaceOnUse">
		<stop  offset="0" style="stop-color:#FFE599"/>
		<stop  offset="0.59" style="stop-color:#FFC000"/>
		<stop  offset="1" style="stop-color:#FFC000"/>
	</radialGradient>
	<path fill="url(#SVGID_10_)" stroke="#FFC617" stroke-width="0.25" stroke-linejoin="bevel" stroke-miterlimit="10" d="
		M298.125,385.058c0-9.75,7.895-18.066,17.715-18.066c10.035,0.066,17.777,7.941,17.777,17.738
		c-0.242,10.078-7.961,17.738-17.777,17.738c-9.465-0.16-17.777-7.941-17.777-17.738L298.125,385.058z"/>
</g>
</svg>
