<?xml version="1.0" encoding="utf-8"?>
<!-- Generator: Adobe Illustrator 16.0.0, SVG Export Plug-In . SVG Version: 6.00 Build 0)  -->
<!DOCTYPE svg PUBLIC "-//W3C//DTD SVG 1.1//EN" "http://www.w3.org/Graphics/SVG/1.1/DTD/svg11.dtd">
<svg preserveAspectRatio="none" version="1.1" id="图层_1" xmlns="http://www.w3.org/2000/svg" xmlns:xlink="http://www.w3.org/1999/xlink" x="0px" y="0px"
	 width="562.75px" height="414.496px" viewBox="2.137 148.375 562.75 414.496"
	 enable-background="new 2.137 148.375 562.75 414.496" xml:space="preserve">
<g id="surface41">
	
		<linearGradient id="SVGID_1_" gradientUnits="userSpaceOnUse" x1="244.228" y1="155.8047" x2="202.228" y2="155.8047" gradientTransform="matrix(0.75 0 0 -0.75 -117.6788 645.4738)">
		<stop  offset="0" style="stop-color:#E7E7E7"/>
		<stop  offset="0.69" style="stop-color:#F8F8F8"/>
		<stop  offset="1" style="stop-color:#E0E0E0"/>
	</linearGradient>
	<path fill="url(#SVGID_1_)" stroke="#CCCCCC" stroke-width="0.25" stroke-linejoin="bevel" stroke-miterlimit="10" d="
		M33.992,494.496h31.5v68.25h-31.5V494.496z"/>
	
		<linearGradient id="SVGID_2_" gradientUnits="userSpaceOnUse" x1="244.2266" y1="155.8047" x2="202.2266" y2="155.8047" gradientTransform="matrix(0.75 0 0 -0.75 -58.4982 645.4738)">
		<stop  offset="0" style="stop-color:#E7E7E7"/>
		<stop  offset="0.69" style="stop-color:#F8F8F8"/>
		<stop  offset="1" style="stop-color:#E0E0E0"/>
	</linearGradient>
	<path fill="url(#SVGID_2_)" stroke="#CCCCCC" stroke-width="0.25" stroke-linejoin="bevel" stroke-miterlimit="10" d="
		M93.172,494.496h31.5v68.25h-31.5V494.496z"/>
	
		<linearGradient id="SVGID_3_" gradientUnits="userSpaceOnUse" x1="244.2261" y1="155.8047" x2="202.2261" y2="155.8047" gradientTransform="matrix(0.75 0 0 -0.75 0.682 645.4738)">
		<stop  offset="0" style="stop-color:#E7E7E7"/>
		<stop  offset="0.69" style="stop-color:#F8F8F8"/>
		<stop  offset="1" style="stop-color:#E0E0E0"/>
	</linearGradient>
	<path fill="url(#SVGID_3_)" stroke="#CCCCCC" stroke-width="0.25" stroke-linejoin="bevel" stroke-miterlimit="10" d="
		M152.352,494.496h31.5v68.25h-31.5V494.496z"/>
	
		<linearGradient id="SVGID_4_" gradientUnits="userSpaceOnUse" x1="244.2261" y1="155.8047" x2="202.2261" y2="155.8047" gradientTransform="matrix(0.75 0 0 -0.75 59.8617 645.4738)">
		<stop  offset="0" style="stop-color:#E7E7E7"/>
		<stop  offset="0.69" style="stop-color:#F8F8F8"/>
		<stop  offset="1" style="stop-color:#E0E0E0"/>
	</linearGradient>
	<path fill="url(#SVGID_4_)" stroke="#CCCCCC" stroke-width="0.25" stroke-linejoin="bevel" stroke-miterlimit="10" d="
		M211.531,494.496h31.5v68.25h-31.5V494.496z"/>
	
		<linearGradient id="SVGID_5_" gradientUnits="userSpaceOnUse" x1="244.2246" y1="155.8047" x2="202.2256" y2="155.8047" gradientTransform="matrix(0.75 0 0 -0.75 119.0419 645.4738)">
		<stop  offset="0" style="stop-color:#E7E7E7"/>
		<stop  offset="0.69" style="stop-color:#F8F8F8"/>
		<stop  offset="1" style="stop-color:#E0E0E0"/>
	</linearGradient>
	<path fill="url(#SVGID_5_)" stroke="#CCCCCC" stroke-width="0.25" stroke-linejoin="bevel" stroke-miterlimit="10" d="
		M270.711,494.496h31.5v68.25h-31.5V494.496z"/>
	
		<linearGradient id="SVGID_6_" gradientUnits="userSpaceOnUse" x1="244.2231" y1="155.8047" x2="202.2231" y2="155.8047" gradientTransform="matrix(0.75 0 0 -0.75 178.2225 645.4738)">
		<stop  offset="0" style="stop-color:#E7E7E7"/>
		<stop  offset="0.69" style="stop-color:#F8F8F8"/>
		<stop  offset="1" style="stop-color:#E0E0E0"/>
	</linearGradient>
	<path fill="url(#SVGID_6_)" stroke="#CCCCCC" stroke-width="0.25" stroke-linejoin="bevel" stroke-miterlimit="10" d="
		M329.89,494.496h31.5v68.25h-31.5V494.496z"/>
	
		<linearGradient id="SVGID_7_" gradientUnits="userSpaceOnUse" x1="244.2231" y1="155.8047" x2="202.2231" y2="155.8047" gradientTransform="matrix(0.75 0 0 -0.75 237.4022 645.4738)">
		<stop  offset="0" style="stop-color:#E7E7E7"/>
		<stop  offset="0.69" style="stop-color:#F8F8F8"/>
		<stop  offset="1" style="stop-color:#E0E0E0"/>
	</linearGradient>
	<path fill="url(#SVGID_7_)" stroke="#CCCCCC" stroke-width="0.25" stroke-linejoin="bevel" stroke-miterlimit="10" d="
		M389.07,494.496h31.5v68.25h-31.5V494.496z"/>
	
		<linearGradient id="SVGID_8_" gradientUnits="userSpaceOnUse" x1="244.2231" y1="155.8047" x2="202.2231" y2="155.8047" gradientTransform="matrix(0.75 0 0 -0.75 296.5819 645.4738)">
		<stop  offset="0" style="stop-color:#E7E7E7"/>
		<stop  offset="0.69" style="stop-color:#F8F8F8"/>
		<stop  offset="1" style="stop-color:#E0E0E0"/>
	</linearGradient>
	<path fill="url(#SVGID_8_)" stroke="#CCCCCC" stroke-width="0.25" stroke-linejoin="bevel" stroke-miterlimit="10" d="
		M448.25,494.496h31.5v68.25h-31.5V494.496z"/>
	
		<linearGradient id="SVGID_9_" gradientUnits="userSpaceOnUse" x1="244.2217" y1="155.8047" x2="202.2217" y2="155.8047" gradientTransform="matrix(0.75 0 0 -0.75 355.7626 645.4738)">
		<stop  offset="0" style="stop-color:#E7E7E7"/>
		<stop  offset="0.69" style="stop-color:#F8F8F8"/>
		<stop  offset="1" style="stop-color:#E0E0E0"/>
	</linearGradient>
	<path fill="url(#SVGID_9_)" stroke="#CCCCCC" stroke-width="0.25" stroke-linejoin="bevel" stroke-miterlimit="10" d="
		M507.429,494.496h31.5v68.25h-31.5V494.496z"/>
	
		<linearGradient id="SVGID_10_" gradientUnits="userSpaceOnUse" x1="244.228" y1="182.8037" x2="202.228" y2="182.8037" gradientTransform="matrix(0.75 0 0 -0.75 -117.6788 299.4777)">
		<stop  offset="0" style="stop-color:#E7E7E7"/>
		<stop  offset="0.69" style="stop-color:#F8F8F8"/>
		<stop  offset="1" style="stop-color:#E0E0E0"/>
	</linearGradient>
	<path fill="url(#SVGID_10_)" stroke="#CCCCCC" stroke-width="0.25" stroke-linejoin="bevel" stroke-miterlimit="10" d="
		M33.992,148.5h31.5v27.75h-31.5V148.5z"/>
	
		<linearGradient id="SVGID_11_" gradientUnits="userSpaceOnUse" x1="244.2266" y1="182.8037" x2="202.2266" y2="182.8037" gradientTransform="matrix(0.75 0 0 -0.75 -58.4982 299.4777)">
		<stop  offset="0" style="stop-color:#E7E7E7"/>
		<stop  offset="0.69" style="stop-color:#F8F8F8"/>
		<stop  offset="1" style="stop-color:#E0E0E0"/>
	</linearGradient>
	<path fill="url(#SVGID_11_)" stroke="#CCCCCC" stroke-width="0.25" stroke-linejoin="bevel" stroke-miterlimit="10" d="
		M93.172,148.5h31.5v27.75h-31.5V148.5z"/>
	
		<linearGradient id="SVGID_12_" gradientUnits="userSpaceOnUse" x1="244.2261" y1="182.8037" x2="202.2261" y2="182.8037" gradientTransform="matrix(0.75 0 0 -0.75 0.682 299.4777)">
		<stop  offset="0" style="stop-color:#E7E7E7"/>
		<stop  offset="0.69" style="stop-color:#F8F8F8"/>
		<stop  offset="1" style="stop-color:#E0E0E0"/>
	</linearGradient>
	<path fill="url(#SVGID_12_)" stroke="#CCCCCC" stroke-width="0.25" stroke-linejoin="bevel" stroke-miterlimit="10" d="
		M152.352,148.5h31.5v27.75h-31.5V148.5z"/>
	
		<linearGradient id="SVGID_13_" gradientUnits="userSpaceOnUse" x1="244.2261" y1="182.8037" x2="202.2261" y2="182.8037" gradientTransform="matrix(0.75 0 0 -0.75 59.8617 299.4777)">
		<stop  offset="0" style="stop-color:#E7E7E7"/>
		<stop  offset="0.69" style="stop-color:#F8F8F8"/>
		<stop  offset="1" style="stop-color:#E0E0E0"/>
	</linearGradient>
	<path fill="url(#SVGID_13_)" stroke="#CCCCCC" stroke-width="0.25" stroke-linejoin="bevel" stroke-miterlimit="10" d="
		M211.531,148.5h31.5v27.75h-31.5V148.5z"/>
	
		<linearGradient id="SVGID_14_" gradientUnits="userSpaceOnUse" x1="244.2246" y1="182.8037" x2="202.2256" y2="182.8037" gradientTransform="matrix(0.75 0 0 -0.75 119.0419 299.4777)">
		<stop  offset="0" style="stop-color:#E7E7E7"/>
		<stop  offset="0.69" style="stop-color:#F8F8F8"/>
		<stop  offset="1" style="stop-color:#E0E0E0"/>
	</linearGradient>
	<path fill="url(#SVGID_14_)" stroke="#CCCCCC" stroke-width="0.25" stroke-linejoin="bevel" stroke-miterlimit="10" d="
		M270.711,148.5h31.5v27.75h-31.5V148.5z"/>
	
		<linearGradient id="SVGID_15_" gradientUnits="userSpaceOnUse" x1="244.2231" y1="182.8037" x2="202.2231" y2="182.8037" gradientTransform="matrix(0.75 0 0 -0.75 178.2225 299.4777)">
		<stop  offset="0" style="stop-color:#E7E7E7"/>
		<stop  offset="0.69" style="stop-color:#F8F8F8"/>
		<stop  offset="1" style="stop-color:#E0E0E0"/>
	</linearGradient>
	<path fill="url(#SVGID_15_)" stroke="#CCCCCC" stroke-width="0.25" stroke-linejoin="bevel" stroke-miterlimit="10" d="
		M329.89,148.5h31.5v27.75h-31.5V148.5z"/>
	
		<linearGradient id="SVGID_16_" gradientUnits="userSpaceOnUse" x1="244.2231" y1="182.8037" x2="202.2231" y2="182.8037" gradientTransform="matrix(0.75 0 0 -0.75 237.4022 299.4777)">
		<stop  offset="0" style="stop-color:#E7E7E7"/>
		<stop  offset="0.69" style="stop-color:#F8F8F8"/>
		<stop  offset="1" style="stop-color:#E0E0E0"/>
	</linearGradient>
	<path fill="url(#SVGID_16_)" stroke="#CCCCCC" stroke-width="0.25" stroke-linejoin="bevel" stroke-miterlimit="10" d="
		M389.07,148.5h31.5v27.75h-31.5V148.5z"/>
	
		<linearGradient id="SVGID_17_" gradientUnits="userSpaceOnUse" x1="244.2231" y1="182.8037" x2="202.2231" y2="182.8037" gradientTransform="matrix(0.75 0 0 -0.75 296.5819 299.4777)">
		<stop  offset="0" style="stop-color:#E7E7E7"/>
		<stop  offset="0.69" style="stop-color:#F8F8F8"/>
		<stop  offset="1" style="stop-color:#E0E0E0"/>
	</linearGradient>
	<path fill="url(#SVGID_17_)" stroke="#CCCCCC" stroke-width="0.25" stroke-linejoin="bevel" stroke-miterlimit="10" d="
		M448.25,148.5h31.5v27.75h-31.5V148.5z"/>
	
		<linearGradient id="SVGID_18_" gradientUnits="userSpaceOnUse" x1="244.2217" y1="182.8037" x2="202.2217" y2="182.8037" gradientTransform="matrix(0.75 0 0 -0.75 355.7626 299.4777)">
		<stop  offset="0" style="stop-color:#E7E7E7"/>
		<stop  offset="0.69" style="stop-color:#F8F8F8"/>
		<stop  offset="1" style="stop-color:#E0E0E0"/>
	</linearGradient>
	<path fill="url(#SVGID_18_)" stroke="#CCCCCC" stroke-width="0.25" stroke-linejoin="bevel" stroke-miterlimit="10" d="
		M507.429,148.5h31.5v27.75h-31.5V148.5z"/>
	
		<linearGradient id="SVGID_19_" gradientUnits="userSpaceOnUse" x1="952.2231" y1="-16.1934" x2="202.2246" y2="-16.1934" gradientTransform="matrix(0.75 0 0 -0.75 -149.4073 324.4044)">
		<stop  offset="0" style="stop-color:#E7E7E7"/>
		<stop  offset="0.69" style="stop-color:#F8F8F8"/>
		<stop  offset="1" style="stop-color:#E0E0E0"/>
	</linearGradient>
	<path fill="url(#SVGID_19_)" stroke="#CCCCCC" stroke-width="0.25" stroke-linejoin="bevel" stroke-miterlimit="10" d="
		M2.262,173.426h562.5v326.25H2.262V173.426z"/>
	<path fill="#CCCCCC" stroke="#CCCCCC" stroke-width="0.25" stroke-linejoin="bevel" stroke-miterlimit="10" d="M33.988,313.015
		h31.5v27.75h-31.5V313.015z"/>
	<path fill="#CCCCCC" stroke="#CCCCCC" stroke-width="0.25" stroke-linejoin="bevel" stroke-miterlimit="10" d="M93.172,313.015
		h31.5v27.75h-31.5V313.015z"/>
	<path fill="#CCCCCC" stroke="#CCCCCC" stroke-width="0.25" stroke-linejoin="bevel" stroke-miterlimit="10" d="M152.352,313.015
		h31.5v27.75h-31.5V313.015z"/>
	<path fill="#CCCCCC" stroke="#CCCCCC" stroke-width="0.25" stroke-linejoin="bevel" stroke-miterlimit="10" d="M211.531,313.015
		h31.5v27.75h-31.5V313.015z"/>
	<path fill="#CCCCCC" stroke="#CCCCCC" stroke-width="0.25" stroke-linejoin="bevel" stroke-miterlimit="10" d="M270.711,313.015
		h31.5v27.75h-31.5V313.015z"/>
	<path fill="#CCCCCC" stroke="#CCCCCC" stroke-width="0.25" stroke-linejoin="bevel" stroke-miterlimit="10" d="M329.89,313.015
		h31.5v27.75h-31.5V313.015z"/>
	<path fill="#CCCCCC" stroke="#CCCCCC" stroke-width="0.25" stroke-linejoin="bevel" stroke-miterlimit="10" d="M389.07,313.015
		h31.5v27.75h-31.5V313.015z"/>
	<path fill="#CCCCCC" stroke="#CCCCCC" stroke-width="0.25" stroke-linejoin="bevel" stroke-miterlimit="10" d="M448.253,313.015
		h31.5v27.75h-31.5V313.015z"/>
	<path fill="#CCCCCC" stroke="#CCCCCC" stroke-width="0.25" stroke-linejoin="bevel" stroke-miterlimit="10" d="M507.433,313.015
		h31.5v27.75h-31.5V313.015z"/>
	
		<linearGradient id="SVGID_20_" gradientUnits="userSpaceOnUse" x1="234.2261" y1="184.8057" x2="202.2261" y2="184.8057" gradientTransform="matrix(0.75 0 0 -0.75 -113.6974 467.3575)">
		<stop  offset="0" style="stop-color:#E7E7E7"/>
		<stop  offset="0.69" style="stop-color:#F8F8F8"/>
		<stop  offset="1" style="stop-color:#E0E0E0"/>
	</linearGradient>
	<path fill="url(#SVGID_20_)" d="M37.973,316.378h24v24.75h-24V316.378z"/>
	
		<linearGradient id="SVGID_21_" gradientUnits="userSpaceOnUse" x1="234.2256" y1="184.8057" x2="202.2256" y2="184.8057" gradientTransform="matrix(0.75 0 0 -0.75 -54.5172 467.3575)">
		<stop  offset="0" style="stop-color:#E7E7E7"/>
		<stop  offset="0.69" style="stop-color:#F8F8F8"/>
		<stop  offset="1" style="stop-color:#E0E0E0"/>
	</linearGradient>
	<path fill="url(#SVGID_21_)" d="M97.152,316.378h24v24.75h-24V316.378z"/>
	
		<linearGradient id="SVGID_22_" gradientUnits="userSpaceOnUse" x1="234.2256" y1="184.8057" x2="202.2256" y2="184.8057" gradientTransform="matrix(0.75 0 0 -0.75 4.6625 467.3575)">
		<stop  offset="0" style="stop-color:#E7E7E7"/>
		<stop  offset="0.69" style="stop-color:#F8F8F8"/>
		<stop  offset="1" style="stop-color:#E0E0E0"/>
	</linearGradient>
	<path fill="url(#SVGID_22_)" d="M156.332,316.378h24v24.75h-24V316.378z"/>
	
		<linearGradient id="SVGID_23_" gradientUnits="userSpaceOnUse" x1="234.2246" y1="184.8057" x2="202.2246" y2="184.8057" gradientTransform="matrix(0.75 0 0 -0.75 63.8427 467.3575)">
		<stop  offset="0" style="stop-color:#E7E7E7"/>
		<stop  offset="0.69" style="stop-color:#F8F8F8"/>
		<stop  offset="1" style="stop-color:#E0E0E0"/>
	</linearGradient>
	<path fill="url(#SVGID_23_)" d="M215.512,316.378h24v24.75h-24V316.378z"/>
	
		<linearGradient id="SVGID_24_" gradientUnits="userSpaceOnUse" x1="234.2236" y1="184.8057" x2="202.2236" y2="184.8057" gradientTransform="matrix(0.75 0 0 -0.75 123.0233 467.3575)">
		<stop  offset="0" style="stop-color:#E7E7E7"/>
		<stop  offset="0.69" style="stop-color:#F8F8F8"/>
		<stop  offset="1" style="stop-color:#E0E0E0"/>
	</linearGradient>
	<path fill="url(#SVGID_24_)" d="M274.691,316.378h24v24.75h-24V316.378z"/>
	
		<linearGradient id="SVGID_25_" gradientUnits="userSpaceOnUse" x1="234.2236" y1="184.8057" x2="202.2236" y2="184.8057" gradientTransform="matrix(0.75 0 0 -0.75 182.203 467.3575)">
		<stop  offset="0" style="stop-color:#E7E7E7"/>
		<stop  offset="0.69" style="stop-color:#F8F8F8"/>
		<stop  offset="1" style="stop-color:#E0E0E0"/>
	</linearGradient>
	<path fill="url(#SVGID_25_)" d="M333.871,316.378h24v24.75h-24V316.378z"/>
	
		<linearGradient id="SVGID_26_" gradientUnits="userSpaceOnUse" x1="234.2236" y1="184.8057" x2="202.2236" y2="184.8057" gradientTransform="matrix(0.75 0 0 -0.75 241.3827 467.3575)">
		<stop  offset="0" style="stop-color:#E7E7E7"/>
		<stop  offset="0.69" style="stop-color:#F8F8F8"/>
		<stop  offset="1" style="stop-color:#E0E0E0"/>
	</linearGradient>
	<path fill="url(#SVGID_26_)" d="M393.05,316.378h24v24.75h-24V316.378z"/>
	
		<linearGradient id="SVGID_27_" gradientUnits="userSpaceOnUse" x1="234.2222" y1="184.8057" x2="202.2222" y2="184.8057" gradientTransform="matrix(0.75 0 0 -0.75 300.5634 467.3575)">
		<stop  offset="0" style="stop-color:#E7E7E7"/>
		<stop  offset="0.69" style="stop-color:#F8F8F8"/>
		<stop  offset="1" style="stop-color:#E0E0E0"/>
	</linearGradient>
	<path fill="url(#SVGID_27_)" d="M452.23,316.378h24v24.75h-24V316.378z"/>
	
		<linearGradient id="SVGID_28_" gradientUnits="userSpaceOnUse" x1="234.2271" y1="184.8057" x2="202.2271" y2="184.8057" gradientTransform="matrix(0.75 0 0 -0.75 359.743 467.3575)">
		<stop  offset="0" style="stop-color:#E7E7E7"/>
		<stop  offset="0.69" style="stop-color:#F8F8F8"/>
		<stop  offset="1" style="stop-color:#E0E0E0"/>
	</linearGradient>
	<path fill="url(#SVGID_28_)" d="M511.414,316.378h24v24.75h-24V316.378z"/>
	<path fill="#CCCCCC" stroke="#CCCCCC" stroke-width="0.25" stroke-linejoin="bevel" stroke-miterlimit="10" d="M377.433,215.027
		c0-2.25,1.672-3.828,3.73-3.828c2.27,0.078,3.734,1.676,3.734,3.738c0.035,2.34-1.672,3.742-3.734,3.742
		c-2.23,0.098-3.73-1.676-3.73-3.742V215.027z"/>
	<path fill="#CCCCCC" stroke="#CCCCCC" stroke-width="0.25" stroke-linejoin="bevel" stroke-miterlimit="10" d="M377.433,234.883
		c0-2.25,1.672-3.828,3.73-3.828c2.27,0.078,3.734,1.672,3.734,3.738c0.035,2.34-1.672,3.738-3.734,3.738
		c-2.23,0.102-3.73-1.672-3.73-3.738V234.883z"/>
	<path fill="#CCCCCC" stroke="#CCCCCC" stroke-width="0.25" stroke-linejoin="bevel" stroke-miterlimit="10" d="M377.433,253.578
		c0-2.25,1.672-3.828,3.73-3.828c2.27,0.078,3.734,1.672,3.734,3.738c0.035,2.34-1.672,3.738-3.734,3.738
		c-2.23,0.102-3.73-1.672-3.73-3.738V253.578z"/>
	<path fill="#CCCCCC" stroke="#CCCCCC" stroke-width="0.25" stroke-linejoin="bevel" stroke-miterlimit="10" d="M407.667,215.027
		c0-2.25,1.672-3.828,3.734-3.828c2.266,0.078,3.73,1.676,3.73,3.738c0.035,2.34-1.672,3.742-3.73,3.742
		c-2.234,0.098-3.734-1.676-3.734-3.742V215.027z"/>
	<path fill="#CCCCCC" stroke="#CCCCCC" stroke-width="0.25" stroke-linejoin="bevel" stroke-miterlimit="10" d="M430.066,215.027
		c0-2.25,1.668-3.828,3.73-3.828c2.27,0.078,3.734,1.676,3.734,3.738c0.035,2.34-1.672,3.742-3.734,3.742
		c-2.23,0.098-3.73-1.676-3.73-3.742V215.027z"/>
	<path fill="#CCCCCC" stroke="#CCCCCC" stroke-width="0.25" stroke-linejoin="bevel" stroke-miterlimit="10" d="M449.476,215.027
		c0-2.25,1.672-3.828,3.73-3.828c2.27,0.078,3.734,1.676,3.734,3.738c0.035,2.34-1.672,3.742-3.734,3.742
		c-2.23,0.098-3.73-1.676-3.73-3.742V215.027z"/>
	<path fill="#CCCCCC" stroke="#CCCCCC" stroke-width="0.25" stroke-linejoin="bevel" stroke-miterlimit="10" d="M394.851,230.039
		c0-2.25,1.672-3.828,3.734-3.828c2.266,0.078,3.73,1.676,3.73,3.738c0.035,2.34-1.668,3.742-3.73,3.742
		c-2.234,0.098-3.734-1.676-3.734-3.742V230.039z"/>
	<path fill="#CCCCCC" stroke="#CCCCCC" stroke-width="0.25" stroke-linejoin="bevel" stroke-miterlimit="10" d="M394.851,249.895
		c0-2.25,1.672-3.828,3.734-3.828c2.266,0.078,3.73,1.672,3.73,3.738c0.035,2.34-1.668,3.738-3.73,3.738
		c-2.234,0.102-3.734-1.672-3.734-3.738V249.895z"/>
	<path fill="#CCCCCC" stroke="#CCCCCC" stroke-width="0.25" stroke-linejoin="bevel" stroke-miterlimit="10" d="M394.851,268.59
		c0-2.25,1.672-3.828,3.734-3.828c2.266,0.078,3.73,1.672,3.73,3.738c0.035,2.34-1.668,3.738-3.73,3.738
		c-2.234,0.102-3.734-1.672-3.734-3.738V268.59z"/>
	<path fill="#CCCCCC" stroke="#CCCCCC" stroke-width="0.25" stroke-linejoin="bevel" stroke-miterlimit="10" d="M418.71,230.676
		c0-2.25,1.672-3.828,3.73-3.828c2.27,0.078,3.734,1.672,3.734,3.738c0.035,2.34-1.672,3.738-3.734,3.738
		c-2.23,0.102-3.73-1.672-3.73-3.738V230.676z"/>
	<path fill="#CCCCCC" stroke="#CCCCCC" stroke-width="0.25" stroke-linejoin="bevel" stroke-miterlimit="10" d="M418.71,250.531
		c0-2.25,1.672-3.828,3.73-3.828c2.27,0.078,3.734,1.672,3.734,3.738c0.035,2.34-1.672,3.738-3.734,3.738
		c-2.23,0.102-3.73-1.676-3.73-3.738V250.531z"/>
	<path fill="#CCCCCC" stroke="#CCCCCC" stroke-width="0.25" stroke-linejoin="bevel" stroke-miterlimit="10" d="M418.71,269.223
		c0-2.25,1.672-3.824,3.73-3.824c2.27,0.074,3.734,1.672,3.734,3.738c0.035,2.336-1.672,3.738-3.734,3.738
		c-2.23,0.098-3.73-1.676-3.73-3.738V269.223z"/>
	<path fill="#CCCCCC" stroke="#CCCCCC" stroke-width="0.25" stroke-linejoin="bevel" stroke-miterlimit="10" d="M441.308,230.543
		c0-2.25,1.672-3.828,3.734-3.828c2.266,0.078,3.73,1.676,3.73,3.742c0.035,2.336-1.672,3.738-3.73,3.738
		c-2.234,0.098-3.734-1.676-3.734-3.738V230.543z"/>
	<path fill="#CCCCCC" stroke="#CCCCCC" stroke-width="0.25" stroke-linejoin="bevel" stroke-miterlimit="10" d="M441.308,250.398
		c0-2.25,1.672-3.828,3.734-3.828c2.266,0.078,3.73,1.676,3.73,3.738c0.035,2.34-1.672,3.738-3.73,3.738
		c-2.234,0.102-3.734-1.672-3.734-3.738V250.398z"/>
	<path fill="#CCCCCC" stroke="#CCCCCC" stroke-width="0.25" stroke-linejoin="bevel" stroke-miterlimit="10" d="M441.308,269.094
		c0-2.25,1.672-3.828,3.734-3.828c2.266,0.078,3.73,1.676,3.73,3.738c0.035,2.34-1.672,3.738-3.73,3.738
		c-2.234,0.102-3.734-1.672-3.734-3.738V269.094z"/>
	<path fill="#CCCCCC" stroke="#CCCCCC" stroke-width="0.25" stroke-linejoin="bevel" stroke-miterlimit="10" d="M463.535,230.527
		c0-2.25,1.668-3.828,3.73-3.828c2.27,0.078,3.734,1.672,3.734,3.738c0.035,2.34-1.672,3.738-3.734,3.738
		c-2.23,0.102-3.73-1.676-3.73-3.738V230.527z"/>
	<path fill="#CCCCCC" stroke="#CCCCCC" stroke-width="0.25" stroke-linejoin="bevel" stroke-miterlimit="10" d="M463.535,250.379
		c0-2.25,1.668-3.828,3.73-3.828c2.27,0.078,3.734,1.676,3.734,3.738c0.035,2.34-1.672,3.742-3.734,3.742
		c-2.23,0.098-3.73-1.676-3.73-3.742V250.379z"/>
	<path fill="#CCCCCC" stroke="#CCCCCC" stroke-width="0.25" stroke-linejoin="bevel" stroke-miterlimit="10" d="M463.535,269.074
		c0-2.25,1.668-3.828,3.73-3.828c2.27,0.078,3.734,1.676,3.734,3.738c0.035,2.34-1.672,3.738-3.734,3.738
		c-2.23,0.102-3.73-1.672-3.73-3.738V269.074z"/>
	<path fill="#CCCCCC" stroke="#CCCCCC" stroke-width="0.25" stroke-linejoin="bevel" stroke-miterlimit="10" d="M259.379,215.051
		c0-2.25,1.672-3.828,3.73-3.828c2.27,0.078,3.734,1.676,3.734,3.738c0.035,2.34-1.672,3.742-3.734,3.742
		c-2.23,0.098-3.73-1.676-3.73-3.742V215.051z"/>
	<path fill="#CCCCCC" stroke="#CCCCCC" stroke-width="0.25" stroke-linejoin="bevel" stroke-miterlimit="10" d="M259.379,234.906
		c0-2.25,1.672-3.828,3.73-3.828c2.27,0.078,3.734,1.672,3.734,3.738c0.035,2.34-1.672,3.738-3.734,3.738
		c-2.23,0.102-3.73-1.672-3.73-3.738V234.906z"/>
	<path fill="#CCCCCC" stroke="#CCCCCC" stroke-width="0.25" stroke-linejoin="bevel" stroke-miterlimit="10" d="M259.379,253.602
		c0-2.25,1.672-3.828,3.73-3.828c2.27,0.078,3.734,1.672,3.734,3.738c0.035,2.34-1.672,3.738-3.734,3.738
		c-2.23,0.102-3.73-1.676-3.73-3.738V253.602z"/>
	<path fill="#CCCCCC" stroke="#CCCCCC" stroke-width="0.25" stroke-linejoin="bevel" stroke-miterlimit="10" d="M289.613,215.051
		c0-2.25,1.672-3.828,3.734-3.828c2.266,0.078,3.73,1.676,3.73,3.738c0.035,2.34-1.672,3.742-3.73,3.742
		c-2.234,0.098-3.734-1.676-3.734-3.742V215.051z"/>
	<path fill="#CCCCCC" stroke="#CCCCCC" stroke-width="0.25" stroke-linejoin="bevel" stroke-miterlimit="10" d="M312.011,215.051
		c0-2.25,1.672-3.828,3.73-3.828c2.27,0.078,3.734,1.676,3.734,3.738c0.035,2.34-1.672,3.742-3.734,3.742
		c-2.23,0.098-3.73-1.676-3.73-3.742V215.051z"/>
	<path fill="#CCCCCC" stroke="#CCCCCC" stroke-width="0.25" stroke-linejoin="bevel" stroke-miterlimit="10" d="M331.421,215.051
		c0-2.25,1.672-3.828,3.73-3.828c2.27,0.078,3.734,1.676,3.734,3.738c0.035,2.34-1.672,3.742-3.734,3.742
		c-2.23,0.098-3.73-1.676-3.73-3.742V215.051z"/>
	<path fill="#CCCCCC" stroke="#CCCCCC" stroke-width="0.25" stroke-linejoin="bevel" stroke-miterlimit="10" d="M276.797,230.063
		c0-2.25,1.672-3.828,3.734-3.828c2.266,0.078,3.73,1.676,3.73,3.738c0.035,2.34-1.671,3.742-3.73,3.742
		c-2.234,0.098-3.734-1.676-3.734-3.742V230.063z"/>
	<path fill="#CCCCCC" stroke="#CCCCCC" stroke-width="0.25" stroke-linejoin="bevel" stroke-miterlimit="10" d="M276.797,249.918
		c0-2.25,1.672-3.828,3.734-3.828c2.266,0.078,3.73,1.672,3.73,3.738c0.035,2.34-1.671,3.738-3.73,3.738
		c-2.234,0.102-3.734-1.672-3.734-3.738V249.918z"/>
	<path fill="#CCCCCC" stroke="#CCCCCC" stroke-width="0.25" stroke-linejoin="bevel" stroke-miterlimit="10" d="M276.797,268.613
		c0-2.25,1.672-3.828,3.734-3.828c2.266,0.078,3.73,1.672,3.73,3.738c0.035,2.34-1.671,3.738-3.73,3.738
		c-2.234,0.102-3.734-1.672-3.734-3.738V268.613z"/>
	<path fill="#CCCCCC" stroke="#CCCCCC" stroke-width="0.25" stroke-linejoin="bevel" stroke-miterlimit="10" d="M300.656,230.699
		c0-2.25,1.672-3.828,3.73-3.828c2.27,0.078,3.734,1.672,3.734,3.738c0.035,2.34-1.672,3.738-3.734,3.738
		c-2.23,0.102-3.73-1.672-3.73-3.738V230.699z"/>
	<path fill="#CCCCCC" stroke="#CCCCCC" stroke-width="0.25" stroke-linejoin="bevel" stroke-miterlimit="10" d="M300.656,250.551
		c0-2.25,1.672-3.824,3.73-3.824c2.27,0.074,3.734,1.672,3.734,3.738c0.035,2.336-1.672,3.738-3.734,3.738
		c-2.23,0.098-3.73-1.676-3.73-3.738V250.551z"/>
	<path fill="#CCCCCC" stroke="#CCCCCC" stroke-width="0.25" stroke-linejoin="bevel" stroke-miterlimit="10" d="M300.656,269.246
		c0-2.25,1.672-3.828,3.73-3.828c2.27,0.078,3.734,1.676,3.734,3.742c0.035,2.336-1.672,3.738-3.734,3.738
		c-2.23,0.098-3.73-1.676-3.73-3.738V269.246z"/>
	<path fill="#CCCCCC" stroke="#CCCCCC" stroke-width="0.25" stroke-linejoin="bevel" stroke-miterlimit="10" d="M323.253,230.566
		c0-2.25,1.672-3.828,3.73-3.828c2.27,0.078,3.734,1.676,3.734,3.742c0.035,2.336-1.672,3.738-3.734,3.738
		c-2.23,0.098-3.73-1.676-3.73-3.738V230.566z"/>
	<path fill="#CCCCCC" stroke="#CCCCCC" stroke-width="0.25" stroke-linejoin="bevel" stroke-miterlimit="10" d="M323.253,250.422
		c0-2.25,1.672-3.828,3.73-3.828c2.27,0.078,3.734,1.676,3.734,3.738c0.035,2.34-1.672,3.738-3.734,3.738
		c-2.23,0.102-3.73-1.672-3.73-3.738V250.422z"/>
	<path fill="#CCCCCC" stroke="#CCCCCC" stroke-width="0.25" stroke-linejoin="bevel" stroke-miterlimit="10" d="M323.253,269.117
		c0-2.25,1.672-3.828,3.73-3.828c2.27,0.078,3.734,1.672,3.734,3.738c0.035,2.34-1.672,3.738-3.734,3.738
		c-2.23,0.102-3.73-1.672-3.73-3.738V269.117z"/>
	<path fill="#CCCCCC" stroke="#CCCCCC" stroke-width="0.25" stroke-linejoin="bevel" stroke-miterlimit="10" d="M345.48,230.551
		c0-2.25,1.668-3.828,3.73-3.828c2.27,0.078,3.734,1.672,3.734,3.738c0.035,2.34-1.672,3.738-3.734,3.738
		c-2.23,0.102-3.73-1.672-3.73-3.738V230.551z"/>
	<path fill="#CCCCCC" stroke="#CCCCCC" stroke-width="0.25" stroke-linejoin="bevel" stroke-miterlimit="10" d="M345.48,250.402
		c0-2.25,1.668-3.828,3.73-3.828c2.27,0.078,3.734,1.676,3.734,3.738c0.035,2.34-1.672,3.742-3.734,3.742
		c-2.23,0.098-3.73-1.676-3.73-3.742V250.402z"/>
	<path fill="#CCCCCC" stroke="#CCCCCC" stroke-width="0.25" stroke-linejoin="bevel" stroke-miterlimit="10" d="M345.48,269.098
		c0-2.25,1.668-3.828,3.73-3.828c2.27,0.078,3.734,1.676,3.734,3.738c0.035,2.34-1.672,3.742-3.734,3.742
		c-2.23,0.098-3.73-1.676-3.73-3.742V269.098z"/>
	<path fill="#CCCCCC" stroke="#CCCCCC" stroke-width="0.25" stroke-linejoin="bevel" stroke-miterlimit="10" d="M136.098,215.004
		c0-2.25,1.672-3.828,3.734-3.828c2.266,0.078,3.73,1.676,3.73,3.738c0.035,2.34-1.668,3.742-3.73,3.742
		c-2.234,0.098-3.734-1.676-3.734-3.742V215.004z"/>
	<path fill="#CCCCCC" stroke="#CCCCCC" stroke-width="0.25" stroke-linejoin="bevel" stroke-miterlimit="10" d="M136.098,234.859
		c0-2.25,1.672-3.828,3.734-3.828c2.266,0.078,3.73,1.672,3.73,3.738c0.035,2.34-1.668,3.738-3.73,3.738
		c-2.234,0.102-3.734-1.672-3.734-3.738V234.859z"/>
	<path fill="#CCCCCC" stroke="#CCCCCC" stroke-width="0.25" stroke-linejoin="bevel" stroke-miterlimit="10" d="M136.098,253.555
		c0-2.25,1.672-3.828,3.734-3.828c2.266,0.078,3.73,1.672,3.73,3.738c0.035,2.34-1.668,3.738-3.73,3.738
		c-2.234,0.102-3.734-1.676-3.734-3.738V253.555z"/>
	<path fill="#CCCCCC" stroke="#CCCCCC" stroke-width="0.25" stroke-linejoin="bevel" stroke-miterlimit="10" d="M166.332,215.004
		c0-2.25,1.672-3.828,3.734-3.828c2.266,0.078,3.734,1.676,3.734,3.738c0.031,2.34-1.672,3.742-3.734,3.742
		c-2.234,0.098-3.734-1.676-3.734-3.742V215.004z"/>
	<path fill="#CCCCCC" stroke="#CCCCCC" stroke-width="0.25" stroke-linejoin="bevel" stroke-miterlimit="10" d="M188.73,215.004
		c0-2.25,1.672-3.828,3.734-3.828c2.266,0.078,3.73,1.676,3.73,3.738c0.035,2.34-1.672,3.742-3.73,3.742
		c-2.234,0.098-3.734-1.676-3.734-3.742V215.004z"/>
	<path fill="#CCCCCC" stroke="#CCCCCC" stroke-width="0.25" stroke-linejoin="bevel" stroke-miterlimit="10" d="M208.141,215.004
		c0-2.25,1.672-3.828,3.734-3.828c2.266,0.078,3.73,1.676,3.73,3.738c0.035,2.34-1.672,3.742-3.73,3.742
		c-2.234,0.098-3.734-1.676-3.734-3.742V215.004z"/>
	<path fill="#CCCCCC" stroke="#CCCCCC" stroke-width="0.25" stroke-linejoin="bevel" stroke-miterlimit="10" d="M153.516,230.016
		c0-2.25,1.672-3.828,3.734-3.828c2.266,0.078,3.734,1.676,3.734,3.738c0.031,2.34-1.672,3.742-3.734,3.742
		c-2.234,0.098-3.734-1.676-3.734-3.742V230.016z"/>
	<path fill="#CCCCCC" stroke="#CCCCCC" stroke-width="0.25" stroke-linejoin="bevel" stroke-miterlimit="10" d="M153.516,249.871
		c0-2.25,1.672-3.828,3.734-3.828c2.266,0.078,3.734,1.672,3.734,3.738c0.031,2.34-1.672,3.738-3.734,3.738
		c-2.234,0.102-3.734-1.672-3.734-3.738V249.871z"/>
	<path fill="#CCCCCC" stroke="#CCCCCC" stroke-width="0.25" stroke-linejoin="bevel" stroke-miterlimit="10" d="M153.516,268.566
		c0-2.25,1.672-3.828,3.734-3.828c2.266,0.078,3.734,1.672,3.734,3.738c0.031,2.34-1.672,3.738-3.734,3.738
		c-2.234,0.102-3.734-1.672-3.734-3.738V268.566z"/>
	<path fill="#CCCCCC" stroke="#CCCCCC" stroke-width="0.25" stroke-linejoin="bevel" stroke-miterlimit="10" d="M177.375,230.652
		c0-2.25,1.672-3.828,3.734-3.828c2.266,0.078,3.73,1.672,3.73,3.738c0.035,2.34-1.668,3.738-3.73,3.738
		c-2.234,0.102-3.734-1.672-3.734-3.738V230.652z"/>
	<path fill="#CCCCCC" stroke="#CCCCCC" stroke-width="0.25" stroke-linejoin="bevel" stroke-miterlimit="10" d="M177.375,250.504
		c0-2.25,1.672-3.824,3.734-3.824c2.266,0.074,3.73,1.672,3.73,3.738c0.035,2.336-1.668,3.738-3.73,3.738
		c-2.234,0.098-3.734-1.676-3.734-3.738V250.504z"/>
	<path fill="#CCCCCC" stroke="#CCCCCC" stroke-width="0.25" stroke-linejoin="bevel" stroke-miterlimit="10" d="M177.375,269.199
		c0-2.25,1.672-3.828,3.734-3.828c2.266,0.078,3.73,1.676,3.73,3.742c0.035,2.336-1.668,3.738-3.73,3.738
		c-2.234,0.098-3.734-1.676-3.734-3.738V269.199z"/>
	<path fill="#CCCCCC" stroke="#CCCCCC" stroke-width="0.25" stroke-linejoin="bevel" stroke-miterlimit="10" d="M199.973,230.52
		c0-2.25,1.672-3.828,3.734-3.828c2.266,0.078,3.73,1.676,3.73,3.742c0.035,2.336-1.668,3.738-3.73,3.738
		c-2.234,0.098-3.734-1.676-3.734-3.738V230.52z"/>
	<path fill="#CCCCCC" stroke="#CCCCCC" stroke-width="0.25" stroke-linejoin="bevel" stroke-miterlimit="10" d="M199.973,250.375
		c0-2.25,1.672-3.828,3.734-3.828c2.266,0.078,3.73,1.676,3.73,3.738c0.035,2.34-1.668,3.742-3.73,3.742
		c-2.234,0.098-3.734-1.676-3.734-3.742V250.375z"/>
	<path fill="#CCCCCC" stroke="#CCCCCC" stroke-width="0.25" stroke-linejoin="bevel" stroke-miterlimit="10" d="M199.973,269.07
		c0-2.25,1.672-3.828,3.734-3.828c2.266,0.078,3.73,1.672,3.73,3.738c0.035,2.34-1.668,3.738-3.73,3.738
		c-2.234,0.102-3.734-1.672-3.734-3.738V269.07z"/>
	<path fill="#CCCCCC" stroke="#CCCCCC" stroke-width="0.25" stroke-linejoin="bevel" stroke-miterlimit="10" d="M222.199,230.504
		c0-2.25,1.672-3.828,3.73-3.828c2.27,0.078,3.734,1.672,3.734,3.738c0.035,2.34-1.672,3.738-3.734,3.738
		c-2.23,0.102-3.73-1.672-3.73-3.738V230.504z"/>
	<path fill="#CCCCCC" stroke="#CCCCCC" stroke-width="0.25" stroke-linejoin="bevel" stroke-miterlimit="10" d="M222.199,250.355
		c0-2.25,1.672-3.828,3.73-3.828c2.27,0.078,3.734,1.676,3.734,3.738c0.035,2.34-1.672,3.742-3.734,3.742
		c-2.23,0.098-3.73-1.676-3.73-3.742V250.355z"/>
	<path fill="#CCCCCC" stroke="#CCCCCC" stroke-width="0.25" stroke-linejoin="bevel" stroke-miterlimit="10" d="M222.199,269.051
		c0-2.25,1.672-3.828,3.73-3.828c2.27,0.078,3.734,1.676,3.734,3.738c0.035,2.34-1.672,3.742-3.734,3.742
		c-2.23,0.098-3.73-1.676-3.73-3.742V269.051z"/>
	<path fill="#CCCCCC" stroke="#CCCCCC" stroke-width="0.25" stroke-linejoin="bevel" stroke-miterlimit="10" d="M14.703,214.996
		c0-2.25,1.672-3.828,3.734-3.828c2.266,0.078,3.73,1.672,3.73,3.738c0.035,2.34-1.668,3.738-3.73,3.738
		c-2.234,0.102-3.734-1.672-3.734-3.738V214.996z"/>
	<path fill="#CCCCCC" stroke="#CCCCCC" stroke-width="0.25" stroke-linejoin="bevel" stroke-miterlimit="10" d="M14.703,234.859
		c0-2.25,1.672-3.828,3.734-3.828c2.266,0.078,3.73,1.672,3.73,3.738c0.035,2.34-1.668,3.738-3.73,3.738
		c-2.234,0.102-3.734-1.672-3.734-3.738V234.859z"/>
	<path fill="#CCCCCC" stroke="#CCCCCC" stroke-width="0.25" stroke-linejoin="bevel" stroke-miterlimit="10" d="M14.703,253.555
		c0-2.25,1.672-3.828,3.734-3.828c2.266,0.078,3.73,1.672,3.73,3.738c0.035,2.34-1.668,3.738-3.73,3.738
		c-2.234,0.102-3.734-1.676-3.734-3.738V253.555z"/>
	<path fill="#CCCCCC" stroke="#CCCCCC" stroke-width="0.25" stroke-linejoin="bevel" stroke-miterlimit="10" d="M44.941,214.996
		c0-2.25,1.668-3.828,3.73-3.828c2.27,0.078,3.734,1.672,3.734,3.738c0.035,2.34-1.672,3.738-3.734,3.738
		c-2.23,0.102-3.73-1.672-3.73-3.738V214.996z"/>
	<path fill="#CCCCCC" stroke="#CCCCCC" stroke-width="0.25" stroke-linejoin="bevel" stroke-miterlimit="10" d="M67.336,214.996
		c0-2.25,1.672-3.828,3.734-3.828c2.266,0.078,3.73,1.672,3.73,3.738c0.035,2.34-1.668,3.738-3.73,3.738
		c-2.234,0.102-3.734-1.672-3.734-3.738V214.996z"/>
	<path fill="#CCCCCC" stroke="#CCCCCC" stroke-width="0.25" stroke-linejoin="bevel" stroke-miterlimit="10" d="M86.746,214.996
		c0-2.25,1.672-3.828,3.734-3.828c2.266,0.078,3.73,1.672,3.73,3.738c0.035,2.34-1.668,3.738-3.73,3.738
		c-2.234,0.102-3.734-1.672-3.734-3.738V214.996z"/>
	<path fill="#CCCCCC" stroke="#CCCCCC" stroke-width="0.25" stroke-linejoin="bevel" stroke-miterlimit="10" d="M32.125,230.008
		c0-2.25,1.672-3.828,3.73-3.828c2.27,0.078,3.734,1.672,3.734,3.738c0.035,2.34-1.672,3.738-3.734,3.738
		c-2.23,0.102-3.73-1.672-3.73-3.738V230.008z"/>
	<path fill="#CCCCCC" stroke="#CCCCCC" stroke-width="0.25" stroke-linejoin="bevel" stroke-miterlimit="10" d="M32.125,249.859
		c0-2.25,1.672-3.828,3.73-3.828c2.27,0.078,3.734,1.676,3.734,3.742c0.035,2.336-1.672,3.738-3.734,3.738
		c-2.23,0.098-3.73-1.676-3.73-3.738V249.859z"/>
	<path fill="#CCCCCC" stroke="#CCCCCC" stroke-width="0.25" stroke-linejoin="bevel" stroke-miterlimit="10" d="M32.125,268.555
		c0-2.25,1.672-3.828,3.73-3.828c2.27,0.078,3.734,1.676,3.734,3.742c0.035,2.336-1.672,3.738-3.734,3.738
		c-2.23,0.098-3.73-1.676-3.73-3.738V268.555z"/>
	<path fill="#CCCCCC" stroke="#CCCCCC" stroke-width="0.25" stroke-linejoin="bevel" stroke-miterlimit="10" d="M55.98,230.648
		c0-2.25,1.672-3.828,3.734-3.828c2.266,0.078,3.734,1.672,3.734,3.738c0.031,2.34-1.672,3.738-3.734,3.738
		c-2.234,0.102-3.734-1.672-3.734-3.738V230.648z"/>
	<path fill="#CCCCCC" stroke="#CCCCCC" stroke-width="0.25" stroke-linejoin="bevel" stroke-miterlimit="10" d="M55.98,250.5
		c0-2.25,1.672-3.828,3.734-3.828c2.266,0.078,3.734,1.676,3.734,3.742c0.031,2.336-1.672,3.738-3.734,3.738
		c-2.234,0.098-3.734-1.676-3.734-3.738V250.5z"/>
	<path fill="#CCCCCC" stroke="#CCCCCC" stroke-width="0.25" stroke-linejoin="bevel" stroke-miterlimit="10" d="M55.98,269.195
		c0-2.25,1.672-3.828,3.734-3.828c2.266,0.078,3.734,1.676,3.734,3.742c0.031,2.336-1.672,3.738-3.734,3.738
		c-2.234,0.098-3.734-1.676-3.734-3.738V269.195z"/>
	<path fill="#CCCCCC" stroke="#CCCCCC" stroke-width="0.25" stroke-linejoin="bevel" stroke-miterlimit="10" d="M78.582,230.512
		c0-2.25,1.668-3.828,3.73-3.828c2.27,0.078,3.734,1.676,3.734,3.738c0.035,2.34-1.672,3.738-3.734,3.738
		c-2.23,0.102-3.73-1.672-3.73-3.738V230.512z"/>
	<path fill="#CCCCCC" stroke="#CCCCCC" stroke-width="0.25" stroke-linejoin="bevel" stroke-miterlimit="10" d="M78.582,250.367
		c0-2.25,1.668-3.828,3.73-3.828c2.27,0.078,3.734,1.672,3.734,3.738c0.035,2.34-1.672,3.738-3.734,3.738
		c-2.23,0.102-3.73-1.672-3.73-3.738V250.367z"/>
	<path fill="#CCCCCC" stroke="#CCCCCC" stroke-width="0.25" stroke-linejoin="bevel" stroke-miterlimit="10" d="M78.582,269.063
		c0-2.25,1.668-3.828,3.73-3.828c2.27,0.078,3.734,1.672,3.734,3.738c0.035,2.34-1.672,3.738-3.734,3.738
		c-2.23,0.102-3.73-1.676-3.73-3.738V269.063z"/>
	<path fill="#CCCCCC" stroke="#CCCCCC" stroke-width="0.25" stroke-linejoin="bevel" stroke-miterlimit="10" d="M100.805,230.496
		c0-2.25,1.672-3.824,3.734-3.824c2.266,0.074,3.73,1.672,3.73,3.738c0.035,2.336-1.672,3.738-3.73,3.738
		c-2.234,0.098-3.734-1.676-3.734-3.738V230.496z"/>
	<path fill="#CCCCCC" stroke="#CCCCCC" stroke-width="0.25" stroke-linejoin="bevel" stroke-miterlimit="10" d="M100.805,250.352
		c0-2.25,1.672-3.828,3.734-3.828c2.266,0.078,3.73,1.676,3.73,3.738c0.035,2.34-1.672,3.738-3.73,3.738
		c-2.234,0.102-3.734-1.672-3.734-3.738V250.352z"/>
	<path fill="#CCCCCC" stroke="#CCCCCC" stroke-width="0.25" stroke-linejoin="bevel" stroke-miterlimit="10" d="M100.805,269.047
		c0-2.25,1.672-3.828,3.734-3.828c2.266,0.078,3.73,1.676,3.73,3.738c0.035,2.34-1.672,3.738-3.73,3.738
		c-2.234,0.102-3.734-1.672-3.734-3.738V269.047z"/>
	<path fill="#CCCCCC" stroke="#CCCCCC" stroke-width="0.25" stroke-linejoin="bevel" stroke-miterlimit="10" d="M494.703,213.746
		c0-2.25,1.672-3.828,3.734-3.828c2.266,0.078,3.73,1.676,3.73,3.738c0.035,2.34-1.672,3.742-3.73,3.742
		c-2.234,0.098-3.734-1.676-3.734-3.742V213.746z"/>
	<path fill="#CCCCCC" stroke="#CCCCCC" stroke-width="0.25" stroke-linejoin="bevel" stroke-miterlimit="10" d="M494.703,233.602
		c0-2.25,1.672-3.828,3.734-3.828c2.266,0.078,3.73,1.672,3.73,3.738c0.035,2.34-1.672,3.738-3.73,3.738
		c-2.234,0.102-3.734-1.672-3.734-3.738V233.602z"/>
	<path fill="#CCCCCC" stroke="#CCCCCC" stroke-width="0.25" stroke-linejoin="bevel" stroke-miterlimit="10" d="M494.703,252.297
		c0-2.25,1.672-3.828,3.734-3.828c2.266,0.078,3.73,1.672,3.73,3.738c0.035,2.34-1.672,3.738-3.73,3.738
		c-2.234,0.102-3.734-1.672-3.734-3.738V252.297z"/>
	<path fill="#CCCCCC" stroke="#CCCCCC" stroke-width="0.25" stroke-linejoin="bevel" stroke-miterlimit="10" d="M515.156,225.758
		c0-2.25,1.668-3.828,3.73-3.828c2.27,0.078,3.734,1.676,3.734,3.738c0.035,2.34-1.672,3.742-3.734,3.742
		c-2.23,0.098-3.73-1.676-3.73-3.742V225.758z"/>
	<path fill="#CCCCCC" stroke="#CCCCCC" stroke-width="0.25" stroke-linejoin="bevel" stroke-miterlimit="10" d="M515.156,245.613
		c0-2.25,1.668-3.828,3.73-3.828c2.27,0.078,3.734,1.672,3.734,3.738c0.035,2.34-1.672,3.738-3.734,3.738
		c-2.23,0.102-3.73-1.672-3.73-3.738V245.613z"/>
	<path fill="#CCCCCC" stroke="#CCCCCC" stroke-width="0.25" stroke-linejoin="bevel" stroke-miterlimit="10" d="M515.156,264.309
		c0-2.25,1.668-3.828,3.73-3.828c2.27,0.078,3.734,1.672,3.734,3.738c0.035,2.34-1.672,3.738-3.734,3.738
		c-2.23,0.102-3.73-1.672-3.73-3.738V264.309z"/>
	<path fill="#CCCCCC" stroke="#CCCCCC" stroke-width="0.25" stroke-linejoin="bevel" stroke-miterlimit="10" d="M379.437,391.929
		c0-2.25,1.668-3.828,3.73-3.828c2.27,0.078,3.734,1.672,3.734,3.738c0.035,2.34-1.672,3.738-3.734,3.738
		c-2.23,0.102-3.73-1.672-3.73-3.738V391.929z"/>
	<path fill="#CCCCCC" stroke="#CCCCCC" stroke-width="0.25" stroke-linejoin="bevel" stroke-miterlimit="10" d="M379.437,411.781
		c0-2.25,1.668-3.828,3.73-3.828c2.27,0.078,3.734,1.676,3.734,3.742c0.035,2.336-1.672,3.738-3.734,3.738
		c-2.23,0.098-3.73-1.676-3.73-3.738V411.781z"/>
	<path fill="#CCCCCC" stroke="#CCCCCC" stroke-width="0.25" stroke-linejoin="bevel" stroke-miterlimit="10" d="M379.437,430.476
		c0-2.25,1.668-3.828,3.73-3.828c2.27,0.078,3.734,1.676,3.734,3.738c0.035,2.34-1.672,3.742-3.734,3.742
		c-2.23,0.098-3.73-1.676-3.73-3.742V430.476z"/>
	<path fill="#CCCCCC" stroke="#CCCCCC" stroke-width="0.25" stroke-linejoin="bevel" stroke-miterlimit="10" d="M409.671,391.929
		c0-2.25,1.672-3.828,3.734-3.828c2.266,0.078,3.73,1.672,3.73,3.738c0.035,2.34-1.672,3.738-3.73,3.738
		c-2.234,0.102-3.734-1.672-3.734-3.738V391.929z"/>
	<path fill="#CCCCCC" stroke="#CCCCCC" stroke-width="0.25" stroke-linejoin="bevel" stroke-miterlimit="10" d="M432.066,391.929
		c0-2.25,1.672-3.828,3.734-3.828c2.266,0.078,3.734,1.672,3.734,3.738c0.031,2.34-1.672,3.738-3.734,3.738
		c-2.234,0.102-3.734-1.672-3.734-3.738V391.929z"/>
	<path fill="#CCCCCC" stroke="#CCCCCC" stroke-width="0.25" stroke-linejoin="bevel" stroke-miterlimit="10" d="M451.48,391.929
		c0-2.25,1.668-3.828,3.73-3.828c2.27,0.078,3.734,1.672,3.734,3.738c0.035,2.34-1.672,3.738-3.734,3.738
		c-2.23,0.102-3.73-1.672-3.73-3.738V391.929z"/>
	<path fill="#CCCCCC" stroke="#CCCCCC" stroke-width="0.25" stroke-linejoin="bevel" stroke-miterlimit="10" d="M396.855,406.941
		c0-2.25,1.672-3.828,3.73-3.828c2.27,0.078,3.734,1.672,3.734,3.738c0.035,2.34-1.672,3.738-3.734,3.738
		c-2.23,0.102-3.73-1.672-3.73-3.738V406.941z"/>
	<path fill="#CCCCCC" stroke="#CCCCCC" stroke-width="0.25" stroke-linejoin="bevel" stroke-miterlimit="10" d="M396.855,426.792
		c0-2.25,1.672-3.828,3.73-3.828c2.27,0.078,3.734,1.676,3.734,3.742c0.035,2.336-1.672,3.738-3.734,3.738
		c-2.23,0.098-3.73-1.676-3.73-3.738V426.792z"/>
	<path fill="#CCCCCC" stroke="#CCCCCC" stroke-width="0.25" stroke-linejoin="bevel" stroke-miterlimit="10" d="M396.855,445.488
		c0-2.25,1.672-3.828,3.73-3.828c2.27,0.078,3.734,1.676,3.734,3.738c0.035,2.34-1.672,3.742-3.734,3.742
		c-2.23,0.098-3.73-1.676-3.73-3.742V445.488z"/>
	<path fill="#CCCCCC" stroke="#CCCCCC" stroke-width="0.25" stroke-linejoin="bevel" stroke-miterlimit="10" d="M420.714,407.574
		c0-2.25,1.668-3.828,3.73-3.828c2.27,0.078,3.734,1.676,3.734,3.742c0.035,2.336-1.672,3.738-3.734,3.738
		c-2.23,0.098-3.73-1.676-3.73-3.738V407.574z"/>
	<path fill="#CCCCCC" stroke="#CCCCCC" stroke-width="0.25" stroke-linejoin="bevel" stroke-miterlimit="10" d="M420.714,427.429
		c0-2.25,1.668-3.828,3.73-3.828c2.27,0.078,3.734,1.676,3.734,3.738c0.035,2.34-1.672,3.738-3.734,3.738
		c-2.23,0.102-3.73-1.672-3.73-3.738V427.429z"/>
	<path fill="#CCCCCC" stroke="#CCCCCC" stroke-width="0.25" stroke-linejoin="bevel" stroke-miterlimit="10" d="M420.714,446.125
		c0-2.25,1.668-3.828,3.73-3.828c2.27,0.078,3.734,1.676,3.734,3.738c0.035,2.34-1.672,3.738-3.734,3.738
		c-2.23,0.102-3.73-1.672-3.73-3.738V446.125z"/>
	<path fill="#CCCCCC" stroke="#CCCCCC" stroke-width="0.25" stroke-linejoin="bevel" stroke-miterlimit="10" d="M443.312,407.445
		c0-2.25,1.672-3.828,3.73-3.828c2.27,0.078,3.734,1.676,3.734,3.738c0.035,2.34-1.672,3.738-3.734,3.738
		c-2.23,0.102-3.73-1.672-3.73-3.738V407.445z"/>
	<path fill="#CCCCCC" stroke="#CCCCCC" stroke-width="0.25" stroke-linejoin="bevel" stroke-miterlimit="10" d="M443.312,427.3
		c0-2.25,1.672-3.828,3.73-3.828c2.27,0.078,3.734,1.672,3.734,3.738c0.035,2.34-1.672,3.738-3.734,3.738
		c-2.23,0.102-3.73-1.672-3.73-3.738V427.3z"/>
	<path fill="#CCCCCC" stroke="#CCCCCC" stroke-width="0.25" stroke-linejoin="bevel" stroke-miterlimit="10" d="M443.312,445.992
		c0-2.25,1.672-3.824,3.73-3.824c2.27,0.074,3.734,1.672,3.734,3.738c0.035,2.336-1.672,3.738-3.734,3.738
		c-2.23,0.098-3.73-1.676-3.73-3.738V445.992z"/>
	<path fill="#CCCCCC" stroke="#CCCCCC" stroke-width="0.25" stroke-linejoin="bevel" stroke-miterlimit="10" d="M465.535,407.425
		c0-2.25,1.672-3.828,3.734-3.828c2.266,0.078,3.734,1.676,3.734,3.738c0.031,2.34-1.672,3.742-3.734,3.742
		c-2.234,0.098-3.734-1.676-3.734-3.742V407.425z"/>
	<path fill="#CCCCCC" stroke="#CCCCCC" stroke-width="0.25" stroke-linejoin="bevel" stroke-miterlimit="10" d="M465.535,427.281
		c0-2.25,1.672-3.828,3.734-3.828c2.266,0.078,3.734,1.672,3.734,3.738c0.031,2.34-1.672,3.738-3.734,3.738
		c-2.234,0.102-3.734-1.672-3.734-3.738V427.281z"/>
	<path fill="#CCCCCC" stroke="#CCCCCC" stroke-width="0.25" stroke-linejoin="bevel" stroke-miterlimit="10" d="M465.535,445.976
		c0-2.25,1.672-3.828,3.734-3.828c2.266,0.078,3.734,1.672,3.734,3.738c0.031,2.34-1.672,3.738-3.734,3.738
		c-2.234,0.102-3.734-1.672-3.734-3.738V445.976z"/>
	<path fill="#CCCCCC" stroke="#CCCCCC" stroke-width="0.25" stroke-linejoin="bevel" stroke-miterlimit="10" d="M261.383,391.945
		c0-2.25,1.668-3.828,3.73-3.828c2.27,0.078,3.734,1.676,3.734,3.742c0.035,2.336-1.672,3.738-3.734,3.738
		c-2.23,0.098-3.73-1.676-3.73-3.738V391.945z"/>
	<path fill="#CCCCCC" stroke="#CCCCCC" stroke-width="0.25" stroke-linejoin="bevel" stroke-miterlimit="10" d="M261.383,411.8
		c0-2.25,1.668-3.828,3.73-3.828c2.27,0.078,3.734,1.676,3.734,3.738c0.035,2.34-1.672,3.738-3.734,3.738
		c-2.23,0.102-3.73-1.672-3.73-3.738V411.8z"/>
	<path fill="#CCCCCC" stroke="#CCCCCC" stroke-width="0.25" stroke-linejoin="bevel" stroke-miterlimit="10" d="M261.383,430.496
		c0-2.25,1.668-3.828,3.73-3.828c2.27,0.078,3.734,1.676,3.734,3.738c0.035,2.34-1.672,3.738-3.734,3.738
		c-2.23,0.102-3.73-1.672-3.73-3.738V430.496z"/>
	<path fill="#CCCCCC" stroke="#CCCCCC" stroke-width="0.25" stroke-linejoin="bevel" stroke-miterlimit="10" d="M291.617,391.945
		c0-2.25,1.672-3.828,3.73-3.828c2.27,0.078,3.734,1.676,3.734,3.742c0.035,2.336-1.672,3.738-3.734,3.738
		c-2.23,0.098-3.73-1.676-3.73-3.738V391.945z"/>
	<path fill="#CCCCCC" stroke="#CCCCCC" stroke-width="0.25" stroke-linejoin="bevel" stroke-miterlimit="10" d="M314.011,391.945
		c0-2.25,1.672-3.828,3.734-3.828c2.266,0.078,3.734,1.676,3.734,3.742c0.031,2.336-1.672,3.738-3.734,3.738
		c-2.234,0.098-3.734-1.676-3.734-3.738V391.945z"/>
	<path fill="#CCCCCC" stroke="#CCCCCC" stroke-width="0.25" stroke-linejoin="bevel" stroke-miterlimit="10" d="M333.425,391.945
		c0-2.25,1.668-3.828,3.73-3.828c2.27,0.078,3.734,1.676,3.734,3.742c0.035,2.336-1.672,3.738-3.734,3.738
		c-2.23,0.098-3.73-1.676-3.73-3.738V391.945z"/>
	<path fill="#CCCCCC" stroke="#CCCCCC" stroke-width="0.25" stroke-linejoin="bevel" stroke-miterlimit="10" d="M278.801,406.96
		c0-2.25,1.672-3.828,3.734-3.828c2.265,0.078,3.73,1.672,3.73,3.738c0.035,2.34-1.672,3.738-3.73,3.738
		c-2.234,0.102-3.734-1.676-3.734-3.738V406.96z"/>
	<path fill="#CCCCCC" stroke="#CCCCCC" stroke-width="0.25" stroke-linejoin="bevel" stroke-miterlimit="10" d="M278.801,426.812
		c0-2.25,1.672-3.828,3.734-3.828c2.265,0.078,3.73,1.676,3.73,3.738c0.035,2.34-1.672,3.742-3.73,3.742
		c-2.234,0.098-3.734-1.676-3.734-3.742V426.812z"/>
	<path fill="#CCCCCC" stroke="#CCCCCC" stroke-width="0.25" stroke-linejoin="bevel" stroke-miterlimit="10" d="M278.801,445.507
		c0-2.25,1.672-3.828,3.734-3.828c2.265,0.078,3.73,1.676,3.73,3.738c0.035,2.34-1.672,3.738-3.73,3.738
		c-2.234,0.102-3.734-1.672-3.734-3.738V445.507z"/>
	<path fill="#CCCCCC" stroke="#CCCCCC" stroke-width="0.25" stroke-linejoin="bevel" stroke-miterlimit="10" d="M302.66,407.593
		c0-2.25,1.668-3.828,3.73-3.828c2.27,0.078,3.734,1.676,3.734,3.738c0.035,2.34-1.672,3.742-3.734,3.742
		c-2.23,0.098-3.73-1.676-3.73-3.742V407.593z"/>
	<path fill="#CCCCCC" stroke="#CCCCCC" stroke-width="0.25" stroke-linejoin="bevel" stroke-miterlimit="10" d="M302.66,427.449
		c0-2.25,1.668-3.828,3.73-3.828c2.27,0.078,3.734,1.672,3.734,3.738c0.035,2.34-1.672,3.738-3.734,3.738
		c-2.23,0.102-3.73-1.672-3.73-3.738V427.449z"/>
	<path fill="#CCCCCC" stroke="#CCCCCC" stroke-width="0.25" stroke-linejoin="bevel" stroke-miterlimit="10" d="M302.66,446.144
		c0-2.25,1.668-3.828,3.73-3.828c2.27,0.078,3.734,1.672,3.734,3.738c0.035,2.34-1.672,3.738-3.734,3.738
		c-2.23,0.102-3.73-1.672-3.73-3.738V446.144z"/>
	<path fill="#CCCCCC" stroke="#CCCCCC" stroke-width="0.25" stroke-linejoin="bevel" stroke-miterlimit="10" d="M325.257,407.464
		c0-2.25,1.672-3.828,3.73-3.828c2.27,0.078,3.734,1.672,3.734,3.738c0.035,2.34-1.672,3.738-3.734,3.738
		c-2.23,0.102-3.73-1.672-3.73-3.738V407.464z"/>
	<path fill="#CCCCCC" stroke="#CCCCCC" stroke-width="0.25" stroke-linejoin="bevel" stroke-miterlimit="10" d="M325.257,427.316
		c0-2.25,1.672-3.828,3.73-3.828c2.27,0.078,3.734,1.676,3.734,3.742c0.035,2.336-1.672,3.738-3.734,3.738
		c-2.23,0.098-3.73-1.676-3.73-3.738V427.316z"/>
	<path fill="#CCCCCC" stroke="#CCCCCC" stroke-width="0.25" stroke-linejoin="bevel" stroke-miterlimit="10" d="M325.257,446.011
		c0-2.25,1.672-3.828,3.73-3.828c2.27,0.078,3.734,1.676,3.734,3.738c0.035,2.34-1.672,3.742-3.734,3.742
		c-2.23,0.098-3.73-1.676-3.73-3.742V446.011z"/>
	<path fill="#CCCCCC" stroke="#CCCCCC" stroke-width="0.25" stroke-linejoin="bevel" stroke-miterlimit="10" d="M347.48,407.445
		c0-2.25,1.672-3.828,3.734-3.828c2.266,0.078,3.73,1.676,3.73,3.738c0.035,2.34-1.668,3.738-3.73,3.738
		c-2.234,0.102-3.734-1.672-3.734-3.738V407.445z"/>
	<path fill="#CCCCCC" stroke="#CCCCCC" stroke-width="0.25" stroke-linejoin="bevel" stroke-miterlimit="10" d="M347.48,427.3
		c0-2.25,1.672-3.828,3.734-3.828c2.266,0.078,3.73,1.672,3.73,3.738c0.035,2.34-1.668,3.738-3.73,3.738
		c-2.234,0.102-3.734-1.672-3.734-3.738V427.3z"/>
	<path fill="#CCCCCC" stroke="#CCCCCC" stroke-width="0.25" stroke-linejoin="bevel" stroke-miterlimit="10" d="M347.48,445.992
		c0-2.25,1.672-3.824,3.734-3.824c2.266,0.074,3.73,1.672,3.73,3.738c0.035,2.336-1.668,3.738-3.73,3.738
		c-2.234,0.098-3.734-1.676-3.734-3.738V445.992z"/>
	<path fill="#CCCCCC" stroke="#CCCCCC" stroke-width="0.25" stroke-linejoin="bevel" stroke-miterlimit="10" d="M138.102,391.91
		c0-2.25,1.672-3.828,3.73-3.828c2.27,0.078,3.734,1.672,3.734,3.738c0.035,2.34-1.672,3.738-3.734,3.738
		c-2.23,0.102-3.73-1.672-3.73-3.738V391.91z"/>
	<path fill="#CCCCCC" stroke="#CCCCCC" stroke-width="0.25" stroke-linejoin="bevel" stroke-miterlimit="10" d="M138.102,411.765
		c0-2.25,1.672-3.828,3.73-3.828c2.27,0.078,3.734,1.672,3.734,3.738c0.035,2.34-1.672,3.738-3.734,3.738
		c-2.23,0.102-3.73-1.676-3.73-3.738V411.765z"/>
	<path fill="#CCCCCC" stroke="#CCCCCC" stroke-width="0.25" stroke-linejoin="bevel" stroke-miterlimit="10" d="M138.102,430.457
		c0-2.25,1.672-3.828,3.73-3.828c2.27,0.078,3.734,1.676,3.734,3.742c0.035,2.336-1.672,3.738-3.734,3.738
		c-2.23,0.098-3.73-1.676-3.73-3.738V430.457z"/>
	<path fill="#CCCCCC" stroke="#CCCCCC" stroke-width="0.25" stroke-linejoin="bevel" stroke-miterlimit="10" d="M168.336,391.91
		c0-2.25,1.672-3.828,3.734-3.828c2.266,0.078,3.73,1.672,3.73,3.738c0.035,2.34-1.672,3.738-3.73,3.738
		c-2.234,0.102-3.734-1.672-3.734-3.738V391.91z"/>
	<path fill="#CCCCCC" stroke="#CCCCCC" stroke-width="0.25" stroke-linejoin="bevel" stroke-miterlimit="10" d="M190.734,391.91
		c0-2.25,1.668-3.828,3.73-3.828c2.27,0.078,3.734,1.672,3.734,3.738c0.035,2.34-1.672,3.738-3.734,3.738
		c-2.23,0.102-3.73-1.672-3.73-3.738V391.91z"/>
	<path fill="#CCCCCC" stroke="#CCCCCC" stroke-width="0.25" stroke-linejoin="bevel" stroke-miterlimit="10" d="M210.145,391.91
		c0-2.25,1.668-3.828,3.73-3.828c2.27,0.078,3.734,1.672,3.734,3.738c0.035,2.34-1.672,3.738-3.734,3.738
		c-2.23,0.102-3.73-1.672-3.73-3.738V391.91z"/>
	<path fill="#CCCCCC" stroke="#CCCCCC" stroke-width="0.25" stroke-linejoin="bevel" stroke-miterlimit="10" d="M155.52,406.921
		c0-2.25,1.672-3.828,3.734-3.828c2.266,0.078,3.73,1.672,3.73,3.738c0.035,2.34-1.672,3.738-3.73,3.738
		c-2.234,0.102-3.734-1.672-3.734-3.738V406.921z"/>
	<path fill="#CCCCCC" stroke="#CCCCCC" stroke-width="0.25" stroke-linejoin="bevel" stroke-miterlimit="10" d="M155.52,426.777
		c0-2.25,1.672-3.828,3.734-3.828c2.266,0.078,3.73,1.672,3.73,3.738c0.035,2.34-1.672,3.738-3.73,3.738
		c-2.234,0.102-3.734-1.676-3.734-3.738V426.777z"/>
	<path fill="#CCCCCC" stroke="#CCCCCC" stroke-width="0.25" stroke-linejoin="bevel" stroke-miterlimit="10" d="M155.52,445.468
		c0-2.25,1.672-3.824,3.734-3.824c2.266,0.074,3.73,1.672,3.73,3.738c0.035,2.336-1.672,3.738-3.73,3.738
		c-2.234,0.098-3.734-1.676-3.734-3.738V445.468z"/>
	<path fill="#CCCCCC" stroke="#CCCCCC" stroke-width="0.25" stroke-linejoin="bevel" stroke-miterlimit="10" d="M179.379,407.558
		c0-2.25,1.672-3.828,3.73-3.828c2.27,0.078,3.734,1.672,3.734,3.738c0.035,2.34-1.672,3.738-3.734,3.738
		c-2.23,0.102-3.73-1.672-3.73-3.738V407.558z"/>
	<path fill="#CCCCCC" stroke="#CCCCCC" stroke-width="0.25" stroke-linejoin="bevel" stroke-miterlimit="10" d="M179.379,427.41
		c0-2.25,1.672-3.828,3.73-3.828c2.27,0.078,3.734,1.676,3.734,3.742c0.035,2.336-1.672,3.738-3.734,3.738
		c-2.23,0.098-3.73-1.676-3.73-3.738V427.41z"/>
	<path fill="#CCCCCC" stroke="#CCCCCC" stroke-width="0.25" stroke-linejoin="bevel" stroke-miterlimit="10" d="M179.379,446.105
		c0-2.25,1.672-3.828,3.73-3.828c2.27,0.078,3.734,1.676,3.734,3.738c0.035,2.34-1.672,3.742-3.734,3.742
		c-2.23,0.098-3.73-1.676-3.73-3.742V446.105z"/>
	<path fill="#CCCCCC" stroke="#CCCCCC" stroke-width="0.25" stroke-linejoin="bevel" stroke-miterlimit="10" d="M201.977,407.425
		c0-2.25,1.672-3.828,3.73-3.828c2.27,0.078,3.734,1.676,3.734,3.738c0.035,2.34-1.672,3.742-3.734,3.742
		c-2.23,0.098-3.73-1.676-3.73-3.742V407.425z"/>
	<path fill="#CCCCCC" stroke="#CCCCCC" stroke-width="0.25" stroke-linejoin="bevel" stroke-miterlimit="10" d="M201.977,427.281
		c0-2.25,1.672-3.828,3.73-3.828c2.27,0.078,3.734,1.672,3.734,3.738c0.035,2.34-1.672,3.738-3.734,3.738
		c-2.23,0.102-3.73-1.672-3.73-3.738V427.281z"/>
	<path fill="#CCCCCC" stroke="#CCCCCC" stroke-width="0.25" stroke-linejoin="bevel" stroke-miterlimit="10" d="M201.977,445.976
		c0-2.25,1.672-3.828,3.73-3.828c2.27,0.078,3.734,1.672,3.734,3.738c0.035,2.34-1.672,3.738-3.734,3.738
		c-2.23,0.102-3.73-1.672-3.73-3.738V445.976z"/>
	<path fill="#CCCCCC" stroke="#CCCCCC" stroke-width="0.25" stroke-linejoin="bevel" stroke-miterlimit="10" d="M224.199,407.406
		c0-2.25,1.672-3.828,3.734-3.828c2.266,0.078,3.734,1.676,3.734,3.742c0.031,2.336-1.672,3.738-3.734,3.738
		c-2.234,0.098-3.734-1.676-3.734-3.738V407.406z"/>
	<path fill="#CCCCCC" stroke="#CCCCCC" stroke-width="0.25" stroke-linejoin="bevel" stroke-miterlimit="10" d="M224.199,427.261
		c0-2.25,1.672-3.828,3.734-3.828c2.266,0.078,3.734,1.676,3.734,3.738c0.031,2.34-1.672,3.738-3.734,3.738
		c-2.234,0.102-3.734-1.672-3.734-3.738V427.261z"/>
	<path fill="#CCCCCC" stroke="#CCCCCC" stroke-width="0.25" stroke-linejoin="bevel" stroke-miterlimit="10" d="M224.199,445.957
		c0-2.25,1.672-3.828,3.734-3.828c2.266,0.078,3.734,1.672,3.734,3.738c0.031,2.34-1.672,3.738-3.734,3.738
		c-2.234,0.102-3.734-1.672-3.734-3.738V445.957z"/>
	<path fill="#CCCCCC" stroke="#CCCCCC" stroke-width="0.25" stroke-linejoin="bevel" stroke-miterlimit="10" d="M16.707,391.89
		c0-2.25,1.672-3.828,3.734-3.828c2.266,0.078,3.73,1.676,3.73,3.738c0.035,2.34-1.672,3.742-3.73,3.742
		c-2.234,0.098-3.734-1.676-3.734-3.742V391.89z"/>
	<path fill="#CCCCCC" stroke="#CCCCCC" stroke-width="0.25" stroke-linejoin="bevel" stroke-miterlimit="10" d="M16.707,411.765
		c0-2.25,1.672-3.828,3.734-3.828c2.266,0.078,3.73,1.672,3.73,3.738c0.035,2.34-1.672,3.738-3.73,3.738
		c-2.234,0.102-3.734-1.676-3.734-3.738V411.765z"/>
	<path fill="#CCCCCC" stroke="#CCCCCC" stroke-width="0.25" stroke-linejoin="bevel" stroke-miterlimit="10" d="M16.707,430.457
		c0-2.25,1.672-3.828,3.734-3.828c2.266,0.078,3.73,1.676,3.73,3.742c0.035,2.336-1.672,3.738-3.73,3.738
		c-2.234,0.098-3.734-1.676-3.734-3.738V430.457z"/>
	<path fill="#CCCCCC" stroke="#CCCCCC" stroke-width="0.25" stroke-linejoin="bevel" stroke-miterlimit="10" d="M46.941,391.89
		c0-2.25,1.672-3.828,3.734-3.828c2.266,0.078,3.73,1.676,3.73,3.738c0.035,2.34-1.668,3.742-3.73,3.742
		c-2.234,0.098-3.734-1.676-3.734-3.742V391.89z"/>
	<path fill="#CCCCCC" stroke="#CCCCCC" stroke-width="0.25" stroke-linejoin="bevel" stroke-miterlimit="10" d="M69.34,391.89
		c0-2.25,1.672-3.828,3.73-3.828c2.27,0.078,3.734,1.676,3.734,3.738c0.035,2.34-1.672,3.742-3.734,3.742
		c-2.23,0.098-3.73-1.676-3.73-3.742V391.89z"/>
	<path fill="#CCCCCC" stroke="#CCCCCC" stroke-width="0.25" stroke-linejoin="bevel" stroke-miterlimit="10" d="M88.75,391.89
		c0-2.25,1.672-3.828,3.73-3.828c2.27,0.078,3.734,1.676,3.734,3.738c0.035,2.34-1.672,3.742-3.734,3.742
		c-2.23,0.098-3.73-1.676-3.73-3.742V391.89z"/>
	<path fill="#CCCCCC" stroke="#CCCCCC" stroke-width="0.25" stroke-linejoin="bevel" stroke-miterlimit="10" d="M34.125,406.902
		c0-2.25,1.672-3.828,3.734-3.828c2.266,0.078,3.73,1.676,3.73,3.738c0.035,2.34-1.668,3.742-3.73,3.742
		c-2.234,0.098-3.734-1.676-3.734-3.742V406.902z"/>
	<path fill="#CCCCCC" stroke="#CCCCCC" stroke-width="0.25" stroke-linejoin="bevel" stroke-miterlimit="10" d="M34.125,426.757
		c0-2.25,1.672-3.828,3.734-3.828c2.266,0.078,3.73,1.672,3.73,3.738c0.035,2.34-1.668,3.738-3.73,3.738
		c-2.234,0.102-3.734-1.672-3.734-3.738V426.757z"/>
	<path fill="#CCCCCC" stroke="#CCCCCC" stroke-width="0.25" stroke-linejoin="bevel" stroke-miterlimit="10" d="M34.125,445.453
		c0-2.25,1.672-3.828,3.734-3.828c2.266,0.078,3.73,1.672,3.73,3.738c0.035,2.34-1.668,3.738-3.73,3.738
		c-2.234,0.102-3.734-1.672-3.734-3.738V445.453z"/>
	<path fill="#CCCCCC" stroke="#CCCCCC" stroke-width="0.25" stroke-linejoin="bevel" stroke-miterlimit="10" d="M57.984,407.558
		c0-2.25,1.672-3.828,3.73-3.828c2.27,0.078,3.734,1.672,3.734,3.738c0.035,2.34-1.672,3.738-3.734,3.738
		c-2.23,0.102-3.73-1.672-3.73-3.738V407.558z"/>
	<path fill="#CCCCCC" stroke="#CCCCCC" stroke-width="0.25" stroke-linejoin="bevel" stroke-miterlimit="10" d="M57.984,427.41
		c0-2.25,1.672-3.828,3.73-3.828c2.27,0.078,3.734,1.676,3.734,3.742c0.035,2.336-1.672,3.738-3.734,3.738
		c-2.23,0.098-3.73-1.676-3.73-3.738V427.41z"/>
	<path fill="#CCCCCC" stroke="#CCCCCC" stroke-width="0.25" stroke-linejoin="bevel" stroke-miterlimit="10" d="M57.984,446.105
		c0-2.25,1.672-3.828,3.73-3.828c2.27,0.078,3.734,1.676,3.734,3.738c0.035,2.34-1.672,3.742-3.734,3.742
		c-2.23,0.098-3.73-1.676-3.73-3.742V446.105z"/>
	<path fill="#CCCCCC" stroke="#CCCCCC" stroke-width="0.25" stroke-linejoin="bevel" stroke-miterlimit="10" d="M80.582,407.406
		c0-2.25,1.672-3.828,3.734-3.828c2.266,0.078,3.73,1.676,3.73,3.742c0.035,2.336-1.672,3.738-3.73,3.738
		c-2.234,0.098-3.734-1.676-3.734-3.738V407.406z"/>
	<path fill="#CCCCCC" stroke="#CCCCCC" stroke-width="0.25" stroke-linejoin="bevel" stroke-miterlimit="10" d="M80.582,427.261
		c0-2.25,1.672-3.828,3.734-3.828c2.266,0.078,3.73,1.676,3.73,3.738c0.035,2.34-1.672,3.738-3.73,3.738
		c-2.234,0.102-3.734-1.672-3.734-3.738V427.261z"/>
	<path fill="#CCCCCC" stroke="#CCCCCC" stroke-width="0.25" stroke-linejoin="bevel" stroke-miterlimit="10" d="M80.582,445.957
		c0-2.25,1.672-3.828,3.734-3.828c2.266,0.078,3.73,1.672,3.73,3.738c0.035,2.34-1.672,3.738-3.73,3.738
		c-2.234,0.102-3.734-1.672-3.734-3.738V445.957z"/>
	<path fill="#CCCCCC" stroke="#CCCCCC" stroke-width="0.25" stroke-linejoin="bevel" stroke-miterlimit="10" d="M102.809,407.406
		c0-2.25,1.672-3.828,3.73-3.828c2.27,0.078,3.734,1.676,3.734,3.742c0.035,2.336-1.672,3.738-3.734,3.738
		c-2.23,0.098-3.73-1.676-3.73-3.738V407.406z"/>
	<path fill="#CCCCCC" stroke="#CCCCCC" stroke-width="0.25" stroke-linejoin="bevel" stroke-miterlimit="10" d="M102.809,427.261
		c0-2.25,1.672-3.828,3.73-3.828c2.27,0.078,3.734,1.676,3.734,3.738c0.035,2.34-1.672,3.738-3.734,3.738
		c-2.23,0.102-3.73-1.672-3.73-3.738V427.261z"/>
	<path fill="#CCCCCC" stroke="#CCCCCC" stroke-width="0.25" stroke-linejoin="bevel" stroke-miterlimit="10" d="M102.809,445.957
		c0-2.25,1.672-3.828,3.73-3.828c2.27,0.078,3.734,1.672,3.734,3.738c0.035,2.34-1.672,3.738-3.734,3.738
		c-2.23,0.102-3.73-1.672-3.73-3.738V445.957z"/>
	<path fill="#CCCCCC" d="M496.703,390.656c0-2.25,1.672-3.828,3.734-3.828c2.266,0.078,3.734,1.676,3.734,3.742
		c0.031,2.336-1.672,3.738-3.734,3.738c-2.234,0.098-3.734-1.676-3.734-3.738V390.656z"/>
	<path fill="#CCCCCC" stroke="#CCCCCC" stroke-width="0.25" stroke-linejoin="bevel" stroke-miterlimit="10" d="M496.703,410.511
		c0-2.25,1.672-3.828,3.734-3.828c2.266,0.078,3.734,1.672,3.734,3.738c0.031,2.34-1.672,3.738-3.734,3.738
		c-2.234,0.102-3.734-1.672-3.734-3.738V410.511z"/>
	<path fill="#CCCCCC" stroke="#CCCCCC" stroke-width="0.25" stroke-linejoin="bevel" stroke-miterlimit="10" d="M496.703,429.207
		c0-2.25,1.672-3.828,3.734-3.828c2.266,0.078,3.734,1.672,3.734,3.738c0.031,2.34-1.672,3.738-3.734,3.738
		c-2.234,0.102-3.734-1.672-3.734-3.738V429.207z"/>
	<path fill="#CCCCCC" stroke="#CCCCCC" stroke-width="0.25" stroke-linejoin="bevel" stroke-miterlimit="10" d="M517.156,402.66
		c0-2.25,1.672-3.828,3.734-3.828c2.266,0.078,3.73,1.672,3.73,3.738c0.035,2.34-1.668,3.738-3.73,3.738
		c-2.234,0.102-3.734-1.672-3.734-3.738V402.66z"/>
	<path fill="#CCCCCC" stroke="#CCCCCC" stroke-width="0.25" stroke-linejoin="bevel" stroke-miterlimit="10" d="M517.156,422.511
		c0-2.25,1.672-3.828,3.734-3.828c2.266,0.078,3.73,1.676,3.73,3.742c0.035,2.336-1.668,3.738-3.73,3.738
		c-2.234,0.098-3.734-1.676-3.734-3.738V422.511z"/>
	<path fill="#CCCCCC" stroke="#CCCCCC" stroke-width="0.25" stroke-linejoin="bevel" stroke-miterlimit="10" d="M517.156,441.207
		c0-2.25,1.672-3.828,3.734-3.828c2.266,0.078,3.73,1.676,3.73,3.738c0.035,2.34-1.668,3.742-3.73,3.742
		c-2.234,0.098-3.734-1.676-3.734-3.742V441.207z"/>
</g>
</svg>
