<?xml version="1.0" encoding="utf-8"?>
<!-- Generator: Adobe Illustrator 16.0.0, SVG Export Plug-In . SVG Version: 6.00 Build 0)  -->
<!DOCTYPE svg PUBLIC "-//W3C//DTD SVG 1.1//EN" "http://www.w3.org/Graphics/SVG/1.1/DTD/svg11.dtd">
<svg preserveAspectRatio="none" version="1.1" id="图层_1" xmlns="http://www.w3.org/2000/svg" xmlns:xlink="http://www.w3.org/1999/xlink" x="0px" y="0px"
	 width="565.375px" height="253.066px" viewBox="-0.993 311.875 565.375 253.066"
	 enable-background="new -0.993 311.875 565.375 253.066" xml:space="preserve">
<g id="surface474">
	
		<linearGradient id="SVGID_1_" gradientUnits="userSpaceOnUse" x1="295.7212" y1="201.3047" x2="295.7212" y2="152.3037" gradientTransform="matrix(0.75 0 0 -0.75 217.7899 570.215)">
		<stop  offset="0" style="stop-color:#303030"/>
		<stop  offset="0.59" style="stop-color:#696969"/>
		<stop  offset="1" style="stop-color:#303030"/>
	</linearGradient>
	<path fill="url(#SVGID_1_)" stroke="#000000" stroke-width="0.25" stroke-linejoin="bevel" stroke-miterlimit="10" d="
		M369.457,419.238h140.25v36.75h-140.25V419.238z"/>
	
		<radialGradient id="SVGID_2_" cx="202.2251" cy="201.3037" r="136.3264" gradientTransform="matrix(0.75 0 0 -0.75 339.6932 552.6476)" gradientUnits="userSpaceOnUse">
		<stop  offset="0" style="stop-color:#7E7E7E"/>
		<stop  offset="0.41" style="stop-color:#7E7E7E"/>
		<stop  offset="1" style="stop-color:#303030"/>
	</radialGradient>
	<path fill="url(#SVGID_2_)" stroke="#000000" stroke-width="0.25" stroke-linejoin="bevel" stroke-miterlimit="10" d="
		M491.363,437.671c0-20.25,16.277-36,36.445-36c19.805,0,36.449,16.047,36.449,35.898c-0.145,19.602-16.332,35.793-36.449,35.793
		c-19.945,0.309-36.445-16.047-36.445-35.793V437.671z"/>
	
		<linearGradient id="SVGID_3_" gradientUnits="userSpaceOnUse" x1="457.3247" y1="201.3057" x2="457.3247" y2="16.3369" gradientTransform="matrix(0.75 0 0 -0.75 -152.3785 519.1935)">
		<stop  offset="0" style="stop-color:#AFAFAF"/>
		<stop  offset="0.59" style="stop-color:#E5E5E5"/>
		<stop  offset="1" style="stop-color:#AFAFAF"/>
	</linearGradient>
	<path fill="url(#SVGID_3_)" stroke="#9B9B9B" stroke-width="0.25" stroke-linejoin="bevel" stroke-miterlimit="10" d="
		M13.539,368.214c0,0-14.25,0-14.25,14.156c0,14.344,0,112.84,0,112.84c0-0.246-2.434,11.711,11.867,11.711
		c14.383,0.043,359.128,0,359.128,0c0.254,0.043,11.813-1.121,11.813-11.711c-0.309-10.746,0-112.84,0-112.84
		c-0.309,0.094,1.453-14.156-11.813-14.156c-13.246,0-353.949,0-356.437,0H13.539z"/>
	
		<radialGradient id="SVGID_4_" cx="202.2251" cy="201.4399" r="92.982" gradientTransform="matrix(0.75 0 0 -0.75 -119.5841 504.5284)" gradientUnits="userSpaceOnUse">
		<stop  offset="0" style="stop-color:#7E7E7E"/>
		<stop  offset="0.41" style="stop-color:#7E7E7E"/>
		<stop  offset="1" style="stop-color:#303030"/>
	</radialGradient>
	<path fill="url(#SVGID_4_)" stroke="#000000" stroke-width="0.25" stroke-linejoin="bevel" stroke-miterlimit="10" d="
		M32.086,377.55c0-13.5,11.133-24.102,24.867-24.102C70.336,353.55,81.82,364.39,81.82,377.89
		c-0.234,13.16-11.133,24.441-24.867,24.441C43.336,402.3,32.086,391.39,32.086,377.89V377.55z"/>
	
		<radialGradient id="SVGID_5_" cx="202.2246" cy="201.3594" r="37.2125" gradientTransform="matrix(0.75 0 0 -0.75 -104.6632 519.1935)" gradientUnits="userSpaceOnUse">
		<stop  offset="0" style="stop-color:#AFAFAF"/>
		<stop  offset="0.41" style="stop-color:#AFAFAF"/>
		<stop  offset="1" style="stop-color:#868686"/>
	</radialGradient>
	<path fill="url(#SVGID_5_)" stroke="#7E7E7E" stroke-width="0.25" stroke-linejoin="bevel" stroke-miterlimit="10" d="
		M47.004,377.964c0-5.25,4.457-9.789,9.949-9.789c5.801,0.039,9.945,4.375,9.945,9.777c0.355,5.262-4.453,9.773-9.945,9.773
		c-5.449-0.012-9.949-4.375-9.949-9.773V377.964z"/>
	
		<radialGradient id="SVGID_6_" cx="202.2261" cy="201.4399" r="92.982" gradientTransform="matrix(0.75 0 0 -0.75 -10.7096 504.5402)" gradientUnits="userSpaceOnUse">
		<stop  offset="0" style="stop-color:#7E7E7E"/>
		<stop  offset="0.41" style="stop-color:#7E7E7E"/>
		<stop  offset="1" style="stop-color:#303030"/>
	</radialGradient>
	<path fill="url(#SVGID_6_)" stroke="#000000" stroke-width="0.25" stroke-linejoin="bevel" stroke-miterlimit="10" d="
		M140.961,377.562c0-13.5,11.133-24.102,24.867-24.102c13.383,0.102,24.867,10.941,24.867,24.441
		c-0.234,13.16-11.133,24.441-24.867,24.441c-13.617-0.031-24.867-10.941-24.867-24.441V377.562z"/>
	
		<radialGradient id="SVGID_7_" cx="202.2266" cy="201.3594" r="37.2084" gradientTransform="matrix(0.75 0 0 -0.75 4.2113 519.2052)" gradientUnits="userSpaceOnUse">
		<stop  offset="0" style="stop-color:#AFAFAF"/>
		<stop  offset="0.41" style="stop-color:#AFAFAF"/>
		<stop  offset="1" style="stop-color:#868686"/>
	</radialGradient>
	<path fill="url(#SVGID_7_)" stroke="#7E7E7E" stroke-width="0.25" stroke-linejoin="bevel" stroke-miterlimit="10" d="
		M155.879,377.976c0-5.25,4.453-9.789,9.949-9.789c5.801,0.039,9.945,4.375,9.945,9.777c0.355,5.262-4.453,9.773-9.945,9.773
		c-5.449-0.012-9.949-4.375-9.949-9.773V377.976z"/>
	
		<linearGradient id="SVGID_8_" gradientUnits="userSpaceOnUse" x1="303.6216" y1="201.3057" x2="303.6216" y2="16.3369" gradientTransform="matrix(0.75 0 0 -0.75 78.3641 519.1935)">
		<stop  offset="0" style="stop-color:#303030"/>
		<stop  offset="0.59" style="stop-color:#696969"/>
		<stop  offset="1" style="stop-color:#303030"/>
	</linearGradient>
	<path fill="url(#SVGID_8_)" stroke="#454545" stroke-width="0.25" stroke-linejoin="bevel" stroke-miterlimit="10" d="
		M236.035,368.214c0,0-6,0-6,14.156c0,14.344,0,112.84,0,112.84c0-0.246-0.969,11.711,4.711,11.711c5.789,0.043,142.66,0,142.66,0
		c-0.371,0.043,4.691-1.121,4.691-11.711c0.188-10.746,0-112.84,0-112.84c0.188,0.094,0.578-14.156-4.691-14.156
		c-5.621,0-140.601,0-141.589,0H236.035z"/>
	
		<linearGradient id="SVGID_9_" gradientUnits="userSpaceOnUse" x1="219.1113" y1="201.3037" x2="219.1113" y2="-135.7852" gradientTransform="matrix(0.75 0 0 -0.75 59.1537 462.9777)">
		<stop  offset="0" style="stop-color:#868686"/>
		<stop  offset="0.59" style="stop-color:#C2C2C2"/>
		<stop  offset="1" style="stop-color:#868686"/>
	</linearGradient>
	<path fill="url(#SVGID_9_)" stroke="#9B9B9B" stroke-width="0.25" stroke-linejoin="bevel" stroke-miterlimit="10" d="M210.824,312
		h19.5c0,0,5.676,0,5.676,9.023c0.324,8.977,0,230.727,0,230.727c0.324,0.25,0.664,13.066-5.305,13.066
		c-5.621-0.066-19.871,0-19.871,0V552h12c0,0,4.555-0.25,4.555-13.938c-0.055-13.813,0-206.609,0-206.609
		c-0.055,0.047,0.664-8.477-1.988-8.477c-2.566,0.273-14.566,0-14.566,0V312z"/>
</g>
</svg>
