<?xml version="1.0" encoding="utf-8"?>
<!-- Generator: Adobe Illustrator 16.0.0, SVG Export Plug-In . SVG Version: 6.00 Build 0)  -->
<!DOCTYPE svg PUBLIC "-//W3C//DTD SVG 1.1//EN" "http://www.w3.org/Graphics/SVG/1.1/DTD/svg11.dtd">
<svg preserveAspectRatio="none" version="1.1" id="图层_1" xmlns="http://www.w3.org/2000/svg" xmlns:xlink="http://www.w3.org/1999/xlink" x="0px" y="0px"
	 width="448px" height="566.695px" viewBox="59.648 0 448 566.695" enable-background="new 59.648 0 448 566.695"
	 xml:space="preserve">
<g id="surface141">
	
		<linearGradient id="SVGID_1_" gradientUnits="userSpaceOnUse" x1="580.2251" y1="172.8032" x2="202.2256" y2="172.8032" gradientTransform="matrix(0.75 0 0 -0.75 -10.045 253.8868)">
		<stop  offset="0" style="stop-color:#FFC000"/>
		<stop  offset="0.59" style="stop-color:#FFE599"/>
		<stop  offset="1" style="stop-color:#FCC416"/>
	</linearGradient>
	<path fill="url(#SVGID_1_)" stroke="#ECB200" stroke-width="0.25" stroke-linejoin="bevel" stroke-miterlimit="10" d="
		M141.625,102.91h283.5v42.75h-283.5V102.91z"/>
	
		<linearGradient id="SVGID_2_" gradientUnits="userSpaceOnUse" x1="523.2251" y1="185.3032" x2="202.2256" y2="185.3032" gradientTransform="matrix(0.75 0 0 -0.75 12.6659 151.1017)">
		<stop  offset="0" style="stop-color:#FFC000"/>
		<stop  offset="0.59" style="stop-color:#FFE599"/>
		<stop  offset="1" style="stop-color:#FCC416"/>
	</linearGradient>
	<path fill="url(#SVGID_2_)" stroke="#ECB200" stroke-width="0.25" stroke-linejoin="bevel" stroke-miterlimit="10" d="
		M164.336,0.125h240.75v24h-240.75V0.125z"/>
	
		<linearGradient id="SVGID_3_" gradientUnits="userSpaceOnUse" x1="493.2212" y1="180.3062" x2="202.2227" y2="180.3061" gradientTransform="matrix(0.75 0 0 -0.75 27.6644 174.9552)">
		<stop  offset="0" style="stop-color:#FFC000"/>
		<stop  offset="0.59" style="stop-color:#FFE599"/>
		<stop  offset="1" style="stop-color:#FCC416"/>
	</linearGradient>
	<path fill="url(#SVGID_3_)" stroke="#ECB200" stroke-width="0.25" stroke-linejoin="bevel" stroke-miterlimit="10" d="
		M179.332,23.977h218.25v31.5h-218.25V23.977z"/>
	
		<linearGradient id="SVGID_4_" gradientUnits="userSpaceOnUse" x1="609.2231" y1="163.8062" x2="202.2246" y2="163.8061" gradientTransform="matrix(0.75 0 0 -0.75 -20.7589 206.3966)">
		<stop  offset="0" style="stop-color:#FFC000"/>
		<stop  offset="0.59" style="stop-color:#FFE599"/>
		<stop  offset="1" style="stop-color:#FCC416"/>
	</linearGradient>
	<path fill="url(#SVGID_4_)" stroke="#ECB200" stroke-width="0.25" stroke-linejoin="bevel" stroke-miterlimit="10" d="
		M130.91,55.418h305.25v56.25H130.91V55.418z"/>
	
		<linearGradient id="SVGID_5_" gradientUnits="userSpaceOnUse" x1="209.2251" y1="163.8066" x2="202.2251" y2="163.8066" gradientTransform="matrix(0.75 0 0 -0.75 26.8075 206.3888)">
		<stop  offset="0" style="stop-color:#FFC000"/>
		<stop  offset="0.59" style="stop-color:#FFE599"/>
		<stop  offset="1" style="stop-color:#FCC416"/>
	</linearGradient>
	<path fill="url(#SVGID_5_)" stroke="#ECB200" stroke-width="0.25" stroke-linejoin="bevel" stroke-miterlimit="10" d="
		M178.477,55.41h5.25v56.25h-5.25V55.41z"/>
	
		<linearGradient id="SVGID_6_" gradientUnits="userSpaceOnUse" x1="209.2266" y1="163.8057" x2="202.2266" y2="163.8057" gradientTransform="matrix(0.75 0 0 -0.75 80.8026 206.3966)">
		<stop  offset="0" style="stop-color:#FFC000"/>
		<stop  offset="0.59" style="stop-color:#FFE599"/>
		<stop  offset="1" style="stop-color:#FCC416"/>
	</linearGradient>
	<path fill="url(#SVGID_6_)" stroke="#ECB200" stroke-width="0.25" stroke-linejoin="bevel" stroke-miterlimit="10" d="
		M232.473,55.418h5.25v56.25h-5.25V55.418z"/>
	
		<linearGradient id="SVGID_7_" gradientUnits="userSpaceOnUse" x1="209.2251" y1="163.8057" x2="202.2261" y2="163.8057" gradientTransform="matrix(0.75 0 0 -0.75 132.225 206.3966)">
		<stop  offset="0" style="stop-color:#FFC000"/>
		<stop  offset="0.59" style="stop-color:#FFE599"/>
		<stop  offset="1" style="stop-color:#FCC416"/>
	</linearGradient>
	<path fill="url(#SVGID_7_)" stroke="#ECB200" stroke-width="0.25" stroke-linejoin="bevel" stroke-miterlimit="10" d="
		M283.895,55.418h5.25v56.25h-5.25V55.418z"/>
	
		<linearGradient id="SVGID_8_" gradientUnits="userSpaceOnUse" x1="209.2256" y1="163.8057" x2="202.2256" y2="163.8057" gradientTransform="matrix(0.75 0 0 -0.75 184.5057 206.3966)">
		<stop  offset="0" style="stop-color:#FFC000"/>
		<stop  offset="0.59" style="stop-color:#FFE599"/>
		<stop  offset="1" style="stop-color:#FCC416"/>
	</linearGradient>
	<path fill="url(#SVGID_8_)" stroke="#ECB200" stroke-width="0.25" stroke-linejoin="bevel" stroke-miterlimit="10" d="
		M336.175,55.418h5.25v56.25h-5.25V55.418z"/>
	
		<linearGradient id="SVGID_9_" gradientUnits="userSpaceOnUse" x1="209.2217" y1="163.8057" x2="202.2217" y2="163.8057" gradientTransform="matrix(0.75 0 0 -0.75 235.0712 206.3966)">
		<stop  offset="0" style="stop-color:#FFC000"/>
		<stop  offset="0.59" style="stop-color:#FFE599"/>
		<stop  offset="1" style="stop-color:#FCC416"/>
	</linearGradient>
	<path fill="url(#SVGID_9_)" stroke="#ECB200" stroke-width="0.25" stroke-linejoin="bevel" stroke-miterlimit="10" d="
		M386.738,55.418h5.25v56.25h-5.25V55.418z"/>
	
		<linearGradient id="SVGID_10_" gradientUnits="userSpaceOnUse" x1="717.2222" y1="99.8037" x2="202.2231" y2="99.8037" gradientTransform="matrix(0.75 0 0 -0.75 -61.4689 287.0626)">
		<stop  offset="0" style="stop-color:#FFC000"/>
		<stop  offset="0.59" style="stop-color:#FFE599"/>
		<stop  offset="1" style="stop-color:#FCC416"/>
	</linearGradient>
	<path fill="url(#SVGID_10_)" stroke="#ECB200" stroke-width="0.25" stroke-linejoin="bevel" stroke-miterlimit="10" d="
		M90.199,136.086h386.25v152.25H90.199V136.086z"/>
	
		<linearGradient id="SVGID_11_" gradientUnits="userSpaceOnUse" x1="649.2222" y1="135.3071" x2="202.2231" y2="135.3071" gradientTransform="matrix(0.75 0 0 -0.75 -35.7579 439.9083)">
		<stop  offset="0" style="stop-color:#FFC000"/>
		<stop  offset="0.59" style="stop-color:#FFE599"/>
		<stop  offset="1" style="stop-color:#FCC416"/>
	</linearGradient>
	<path fill="url(#SVGID_11_)" stroke="#ECB200" stroke-width="0.25" stroke-linejoin="bevel" stroke-miterlimit="10" d="
		M115.91,288.929h335.25v99H115.91V288.929z"/>
	
		<linearGradient id="SVGID_12_" gradientUnits="userSpaceOnUse" x1="799.2222" y1="195.3022" x2="202.2231" y2="195.3022" gradientTransform="matrix(0.75 0 0 -0.75 -91.8942 539.2491)">
		<stop  offset="0" style="stop-color:#FFC000"/>
		<stop  offset="0.59" style="stop-color:#FFE599"/>
		<stop  offset="1" style="stop-color:#FCC416"/>
	</linearGradient>
	<path fill="url(#SVGID_12_)" stroke="#ECB200" stroke-width="0.25" stroke-linejoin="bevel" stroke-miterlimit="10" d="
		M59.773,388.273h447.75v9H59.773V388.273z"/>
	
		<linearGradient id="SVGID_13_" gradientUnits="userSpaceOnUse" x1="237.2275" y1="88.3037" x2="202.2275" y2="88.3037" gradientTransform="matrix(0.75 0 0 -0.75 -91.8937 547.922)">
		<stop  offset="0" style="stop-color:#454545"/>
		<stop  offset="0.59" style="stop-color:#7E7E7E"/>
		<stop  offset="1" style="stop-color:#454545"/>
	</linearGradient>
	<path fill="url(#SVGID_13_)" stroke="#454545" stroke-width="0.25" stroke-linejoin="bevel" stroke-miterlimit="10" d="
		M59.777,396.945h26.25v169.5h-26.25V396.945z"/>
	
		<linearGradient id="SVGID_14_" gradientUnits="userSpaceOnUse" x1="237.2231" y1="88.3037" x2="202.2231" y2="88.3037" gradientTransform="matrix(0.75 0 0 -0.75 329.4882 547.922)">
		<stop  offset="0" style="stop-color:#696969"/>
		<stop  offset="0.59" style="stop-color:#7E7E7E"/>
		<stop  offset="1" style="stop-color:#454545"/>
	</linearGradient>
	<path fill="url(#SVGID_14_)" stroke="#454545" stroke-width="0.25" stroke-linejoin="bevel" stroke-miterlimit="10" d="
		M481.156,396.945h26.25v169.5h-26.25V396.945z"/>
	
		<linearGradient id="SVGID_15_" gradientUnits="userSpaceOnUse" x1="799.2222" y1="192.3071" x2="202.2231" y2="192.3071" gradientTransform="matrix(0.75 0 0 -0.75 -91.8942 704.049)">
		<stop  offset="0" style="stop-color:#454545"/>
		<stop  offset="0.59" style="stop-color:#7E7E7E"/>
		<stop  offset="1" style="stop-color:#454545"/>
	</linearGradient>
	<path fill="url(#SVGID_15_)" stroke="#303030" stroke-width="0.25" stroke-linejoin="bevel" stroke-miterlimit="10" d="
		M59.773,553.07h447.75v13.5H59.773V553.07z"/>
	
		<linearGradient id="SVGID_16_" gradientUnits="userSpaceOnUse" x1="362.2231" y1="152.8037" x2="202.2236" y2="152.8037" gradientTransform="matrix(0.75 0 0 -0.75 76.9447 548.7892)">
		<stop  offset="0" style="stop-color:#FFC000"/>
		<stop  offset="0.59" style="stop-color:#FFE599"/>
		<stop  offset="1" style="stop-color:#FCC416"/>
	</linearGradient>
	<path fill="url(#SVGID_16_)" stroke="#ECB200" stroke-width="0.25" stroke-linejoin="bevel" stroke-miterlimit="10" d="
		M348.613,397.812h-120v72.75h120V397.812z"/>
	
		<radialGradient id="SVGID_17_" cx="202.2246" cy="201.3047" r="262.9262" gradientTransform="matrix(0.75 0 0 -0.75 11.9965 448.1759)" gradientUnits="userSpaceOnUse">
		<stop  offset="0" style="stop-color:#7E7E7E"/>
		<stop  offset="0.59" style="stop-color:#000000"/>
		<stop  offset="1" style="stop-color:#000000"/>
	</radialGradient>
	<path fill="url(#SVGID_17_)" stroke="#ECB200" stroke-width="0.25" stroke-linejoin="bevel" stroke-miterlimit="10" d="
		M163.664,367.699c0-39,30.945-70.5,69.301-70.5c37.949,0,69.3,31.363,69.3,70.133c0.148,38.617-31.082,70.137-69.3,70.137
		c-38.551-0.02-69.301-31.414-69.301-70.137V367.699z"/>
	
		<radialGradient id="SVGID_18_" cx="202.2251" cy="201.3042" r="227.3623" gradientTransform="matrix(0.75 0 0 -0.75 21.3705 457.6622)" gradientUnits="userSpaceOnUse">
		<stop  offset="0" style="stop-color:#FF7377"/>
		<stop  offset="0.59" style="stop-color:#FF1418"/>
		<stop  offset="1" style="stop-color:#FF1418"/>
	</radialGradient>
	<path fill="url(#SVGID_18_)" stroke="#FF1418" stroke-width="0.25" stroke-linejoin="bevel" stroke-miterlimit="10" d="
		M173.039,367.433c0-33.75,26.758-60.75,59.926-60.75c33.074,0,59.925,27.121,59.925,60.648
		c0.148,33.852-26.878,60.648-59.925,60.648c-32.926,0.203-59.926-27.164-59.926-60.648V367.433z"/>
	
		<radialGradient id="SVGID_19_" cx="202.1069" cy="201.4243" r="93.4905" gradientTransform="matrix(0.75 0 0 -0.75 56.6566 493.3732)" gradientUnits="userSpaceOnUse">
		<stop  offset="0" style="stop-color:#FFE599"/>
		<stop  offset="0.59" style="stop-color:#FFC000"/>
		<stop  offset="1" style="stop-color:#FFC000"/>
	</radialGradient>
	<path fill="url(#SVGID_19_)" stroke="#FFC617" stroke-width="0.25" stroke-linejoin="bevel" stroke-miterlimit="10" d="
		M208.324,367.144c0-13.5,10.945-24.84,24.551-24.84c13.699,0.09,24.641,11.164,24.641,24.938
		c0.309,13.402-11.031,24.938-24.641,24.938c-13.301-0.285-24.637-11.164-24.637-24.938L208.324,367.144z"/>
	
		<radialGradient id="SVGID_20_" cx="202.1509" cy="201.3794" r="58.4294" gradientTransform="matrix(0.75 0 0 -0.75 76.5428 459.0177)" gradientUnits="userSpaceOnUse">
		<stop  offset="0" style="stop-color:#FFE599"/>
		<stop  offset="0.59" style="stop-color:#FFC000"/>
		<stop  offset="1" style="stop-color:#FFC000"/>
	</radialGradient>
	<path fill="url(#SVGID_20_)" stroke="#FFC617" stroke-width="0.25" stroke-linejoin="bevel" stroke-miterlimit="10" d="
		M228.211,323.789c0-9,6.84-15.805,15.344-15.805c8.656,0.055,15.402,6.977,15.402,15.586c0.004,8.469-6.895,15.582-15.402,15.582
		c-8.594-0.363-15.398-6.977-15.398-15.582L228.211,323.789z"/>
	
		<radialGradient id="SVGID_21_" cx="202.1509" cy="201.3794" r="58.4266" gradientTransform="matrix(0.75 0 0 -0.75 108.682 489.714)" gradientUnits="userSpaceOnUse">
		<stop  offset="0" style="stop-color:#FFE599"/>
		<stop  offset="0.59" style="stop-color:#FFC000"/>
		<stop  offset="1" style="stop-color:#FFC000"/>
	</radialGradient>
	<path fill="url(#SVGID_21_)" stroke="#FFC617" stroke-width="0.25" stroke-linejoin="bevel" stroke-miterlimit="10" d="
		M260.352,354.484c0-9,6.84-15.805,15.344-15.805c8.656,0.055,15.398,6.977,15.398,15.586c0.008,8.469-6.895,15.586-15.398,15.586
		c-8.594-0.367-15.398-6.98-15.398-15.586L260.352,354.484z"/>
	
		<radialGradient id="SVGID_22_" cx="202.1519" cy="201.3794" r="58.4266" gradientTransform="matrix(0.75 0 0 -0.75 50.4037 544.9415)" gradientUnits="userSpaceOnUse">
		<stop  offset="0" style="stop-color:#FFE599"/>
		<stop  offset="0.59" style="stop-color:#FFC000"/>
		<stop  offset="1" style="stop-color:#FFC000"/>
	</radialGradient>
	<path fill="url(#SVGID_22_)" stroke="#FFC617" stroke-width="0.25" stroke-linejoin="bevel" stroke-miterlimit="10" d="
		M202.074,409.714c0-9,6.836-15.809,15.344-15.809c8.656,0.059,15.398,6.977,15.398,15.586c0.008,8.473-6.895,15.586-15.398,15.586
		c-8.594-0.363-15.402-6.977-15.402-15.586L202.074,409.714z"/>
	
		<radialGradient id="SVGID_23_" cx="202.1509" cy="201.3794" r="58.4294" gradientTransform="matrix(0.75 0 0 -0.75 22.9755 513.9728)" gradientUnits="userSpaceOnUse">
		<stop  offset="0" style="stop-color:#FFE599"/>
		<stop  offset="0.59" style="stop-color:#FFC000"/>
		<stop  offset="1" style="stop-color:#FFC000"/>
	</radialGradient>
	<path fill="url(#SVGID_23_)" stroke="#FFC617" stroke-width="0.25" stroke-linejoin="bevel" stroke-miterlimit="10" d="
		M174.645,378.746c0-9,6.84-15.809,15.344-15.809c8.656,0.059,15.402,6.98,15.402,15.586c0.004,8.473-6.898,15.586-15.402,15.586
		c-8.594-0.363-15.398-6.977-15.398-15.586L174.645,378.746z"/>
	
		<radialGradient id="SVGID_24_" cx="202.1519" cy="201.3794" r="58.4266" gradientTransform="matrix(0.75 0 0 -0.75 97.9691 533.6915)" gradientUnits="userSpaceOnUse">
		<stop  offset="0" style="stop-color:#FFE599"/>
		<stop  offset="0.59" style="stop-color:#FFC000"/>
		<stop  offset="1" style="stop-color:#FFC000"/>
	</radialGradient>
	<path fill="url(#SVGID_24_)" stroke="#FFC617" stroke-width="0.25" stroke-linejoin="bevel" stroke-miterlimit="10" d="
		M249.637,398.464c0-9,6.84-15.809,15.348-15.809c8.652,0.059,15.398,6.98,15.398,15.586c0.004,8.473-6.895,15.586-15.398,15.586
		c-8.598-0.363-15.402-6.977-15.402-15.586L249.637,398.464z"/>
	
		<radialGradient id="SVGID_25_" cx="202.1519" cy="201.3794" r="58.4266" gradientTransform="matrix(0.75 0 0 -0.75 32.8612 472.4347)" gradientUnits="userSpaceOnUse">
		<stop  offset="0" style="stop-color:#FFE599"/>
		<stop  offset="0.59" style="stop-color:#FFC000"/>
		<stop  offset="1" style="stop-color:#FFC000"/>
	</radialGradient>
	<path fill="url(#SVGID_25_)" stroke="#FFC617" stroke-width="0.25" stroke-linejoin="bevel" stroke-miterlimit="10" d="
		M184.531,337.207c0-9,6.84-15.805,15.344-15.805c8.656,0.055,15.398,6.977,15.398,15.582c0.008,8.473-6.895,15.586-15.398,15.586
		c-8.594-0.363-15.402-6.977-15.402-15.586L184.531,337.207z"/>
</g>
</svg>
