<?xml version="1.0" encoding="utf-8"?>
<!-- Generator: Adobe Illustrator 16.0.0, SVG Export Plug-In . SVG Version: 6.00 Build 0)  -->
<!DOCTYPE svg PUBLIC "-//W3C//DTD SVG 1.1//EN" "http://www.w3.org/Graphics/SVG/1.1/DTD/svg11.dtd">
<svg preserveAspectRatio="none" version="1.1" id="图层_1" xmlns="http://www.w3.org/2000/svg" xmlns:xlink="http://www.w3.org/1999/xlink" x="0px" y="0px"
	 width="354.402px" height="560.57px" viewBox="106.188 3.09 354.402 560.57" enable-background="new 106.188 3.09 354.402 560.57"
	 xml:space="preserve">
<g id="surface281">
	
		<linearGradient id="SVGID_1_" gradientUnits="userSpaceOnUse" x1="674.2241" y1="6.8071" x2="202.2251" y2="6.8071" gradientTransform="matrix(0.75 0 0 -0.75 -45.2047 380.9982)">
		<stop  offset="0" style="stop-color:#303030"/>
		<stop  offset="0.59" style="stop-color:#7E7E7E"/>
		<stop  offset="1" style="stop-color:#303030"/>
	</linearGradient>
	<path fill="url(#SVGID_1_)" stroke="#000000" stroke-width="0.25" stroke-linejoin="bevel" stroke-miterlimit="10" d="
		M106.465,230.02h354v291.75h-354V230.02z"/>
	
		<linearGradient id="SVGID_2_" gradientUnits="userSpaceOnUse" x1="674.2241" y1="-5.1353" x2="202.022" y2="-5.1353" gradientTransform="matrix(0.75 0 0 -0.75 -45.2047 154.1925)">
		<stop  offset="0" style="stop-color:#303030"/>
		<stop  offset="0.59" style="stop-color:#7E7E7E"/>
		<stop  offset="1" style="stop-color:#303030"/>
	</linearGradient>
	<path fill="url(#SVGID_2_)" stroke="#000000" stroke-width="0.25" stroke-linejoin="bevel" stroke-miterlimit="10" d="
		M106.465,3.215v226.5c0,0-6.148,84.042,59.656,82.968c0.344,0.281,230.933,0,229.07,0c0.023,0.281,65.273,6.543,65.273-82.664
		c0-91.805,0-226.805,0-226.805h-108v96.75h-134.25V3.215H106.465z"/>
	
		<linearGradient id="SVGID_3_" gradientUnits="userSpaceOnUse" x1="674.2241" y1="173.3032" x2="202.2251" y2="173.3032" gradientTransform="matrix(0.75 0 0 -0.75 -45.2047 672.5118)">
		<stop  offset="0" style="stop-color:#303030"/>
		<stop  offset="0.59" style="stop-color:#7E7E7E"/>
		<stop  offset="1" style="stop-color:#303030"/>
	</linearGradient>
	<path fill="url(#SVGID_3_)" stroke="#000000" stroke-width="0.25" stroke-linejoin="bevel" stroke-miterlimit="10" d="
		M106.465,521.535h354v42h-354V521.535z"/>
</g>
</svg>
