<?xml version="1.0" encoding="utf-8"?>
<!-- Generator: Adobe Illustrator 16.0.0, SVG Export Plug-In . SVG Version: 6.00 Build 0)  -->
<!DOCTYPE svg PUBLIC "-//W3C//DTD SVG 1.1//EN" "http://www.w3.org/Graphics/SVG/1.1/DTD/svg11.dtd">
<svg preserveAspectRatio="none" version="1.1" id="图层_1" xmlns="http://www.w3.org/2000/svg" xmlns:xlink="http://www.w3.org/1999/xlink" x="0px" y="0px"
	 width="560.25px" height="262.89px" viewBox="3.336 151.84 560.25 262.89" enable-background="new 3.336 151.84 560.25 262.89"
	 xml:space="preserve">
<g id="surface351">
	<path fill="#3CAE9F" stroke="#28756B" stroke-linejoin="bevel" stroke-miterlimit="10" d="M342.761,179.332
		c0-10.5,8.645-19.5,19.32-19.5c10.68,0,19.32,8.707,19.32,19.504c0.359,10.496-8.664,19.508-19.32,19.508
		c-10.32-0.012-19.32-8.75-19.32-19.508V179.332z"/>
	<path fill="#308D82" d="M348.695,179.324c0-7.5,5.988-13.5,13.387-13.5c7.613,0,13.387,6.031,13.387,13.512
		c0.227,7.488-6.004,13.512-13.387,13.512c-7.387-0.023-13.387-6.059-13.387-13.512V179.324z"/>
	<path fill="#3CAE9F" d="M351.117,179.52c0-6,4.906-11.25,10.965-11.25c6.285,0,10.961,4.941,10.961,11.066
		c-0.176,6.184-4.914,11.066-10.961,11.066c-5.715,0.367-10.965-4.965-10.965-11.066V179.52z"/>
	
		<linearGradient id="SVGID_1_" gradientUnits="userSpaceOnUse" x1="200.9087" y1="197.6855" x2="216.1569" y2="192.1357" gradientTransform="matrix(0.75 0 0 -0.75 205.6893 325.5411)">
		<stop  offset="0" style="stop-color:#858D89"/>
		<stop  offset="0.11" style="stop-color:#B4BEBA"/>
		<stop  offset="0.39" style="stop-color:#DBDFDD"/>
		<stop  offset="0.55" style="stop-color:#B5BEBB"/>
		<stop  offset="0.77" style="stop-color:#8A928F"/>
	</linearGradient>
	<path fill="url(#SVGID_1_)" stroke="#2B7F74" stroke-linejoin="bevel" stroke-miterlimit="10" d="M357.359,179.063
		c0-2.25,2.113-4.5,4.723-4.5c2.777,0,4.723,2.137,4.723,4.773c0.305,2.727-2.113,4.773-4.723,4.773
		c-2.473,0.203-4.723-2.137-4.723-4.773V179.063z"/>
	<path fill="#3CAE9F" stroke="#28756B" stroke-linejoin="bevel" stroke-miterlimit="10" d="M188.207,179.332
		c0-10.5,8.641-19.5,19.309-19.5c10.691,0,19.309,8.707,19.309,19.504c-0.367,10.496-8.66,19.508-19.309,19.508
		c-10.309-0.012-19.309-8.75-19.309-19.508V179.332z"/>
	<path fill="#308D82" d="M194.129,179.324c0-7.5,5.992-13.5,13.387-13.5c7.613,0,13.387,6.031,13.387,13.512
		c0.227,7.488-6.004,13.512-13.387,13.512c-7.387-0.023-13.387-6.059-13.387-13.512V179.324z"/>
	<path fill="#3CAE9F" d="M196.555,179.52c0-6,4.902-11.25,10.961-11.25c6.289,0,10.965,4.941,10.965,11.066
		c-0.176,6.184-4.918,11.066-10.965,11.066c-5.711,0.367-10.961-4.965-10.961-11.066V179.52z"/>
	
		<linearGradient id="SVGID_2_" gradientUnits="userSpaceOnUse" x1="200.9087" y1="197.6855" x2="216.158" y2="192.1352" gradientTransform="matrix(0.75 0 0 -0.75 51.1229 325.5411)">
		<stop  offset="0" style="stop-color:#858D89"/>
		<stop  offset="0.11" style="stop-color:#B4BEBA"/>
		<stop  offset="0.39" style="stop-color:#DBDFDD"/>
		<stop  offset="0.55" style="stop-color:#B5BEBB"/>
		<stop  offset="0.77" style="stop-color:#8A928F"/>
	</linearGradient>
	<path fill="url(#SVGID_2_)" stroke="#2B7F74" stroke-linejoin="bevel" stroke-miterlimit="10" d="M202.793,179.063
		c0-2.25,2.113-4.5,4.723-4.5c2.777,0,4.723,2.137,4.723,4.773c0.305,2.727-2.113,4.773-4.723,4.773
		c-2.473,0.203-4.723-2.137-4.723-4.773V179.063z"/>
	<path fill="#34978A" d="M237.539,197.723h94.5v-12.75h-94.5V197.723z"/>
	<path fill="#717070" stroke="#717070" stroke-linejoin="bevel" stroke-miterlimit="10" d="M40.539,220.59l-1.5-6.75l158.25-60
		c0,0,12.648-1.5,19.695-1.5h134.804c0,0,7.32,0.395,21.414,3.559l145.086,57.191l-1.5,6.75l-148.5-57.75
		c0,0-10.941-2.688-18.578-2.688l-130.671-0.313c0,0-12.625-0.816-19.672,2.148L40.539,220.59z"/>
	
		<linearGradient id="SVGID_3_" gradientUnits="userSpaceOnUse" x1="222.6294" y1="193.0273" x2="222.6294" y2="201.4023" gradientTransform="matrix(0.75 0 0 -0.75 245.7352 332.3907)">
		<stop  offset="0" style="stop-color:#8B8C8C"/>
		<stop  offset="0.17" style="stop-color:#A3A4A4"/>
		<stop  offset="0.68" style="stop-color:#C6C7C7"/>
		<stop  offset="0.83" style="stop-color:#BBBCBC"/>
		<stop  offset="1" style="stop-color:#818282"/>
	</linearGradient>
	<path fill="url(#SVGID_3_)" d="M398.906,181.414h27.75c0.75,0,1.395,1.332,1.395,3.066c0.105,1.434-0.77,3.141-1.723,3.141
		l-27.422-0.207c-0.75,0-1.551-1.199-1.551-2.934c0.051-1.566,0.77-3.141,1.723-3.141L398.906,181.414z"/>
	
		<linearGradient id="SVGID_4_" gradientUnits="userSpaceOnUse" x1="215.6953" y1="183.0068" x2="215.6953" y2="201.3662" gradientTransform="matrix(0.75 0 0 -0.75 251.0331 328.6564)">
		<stop  offset="0" style="stop-color:#9DA59E"/>
		<stop  offset="0.17" style="stop-color:#B7C0B9"/>
		<stop  offset="0.68" style="stop-color:#D6DDD7"/>
		<stop  offset="0.83" style="stop-color:#CFD8D1"/>
		<stop  offset="1" style="stop-color:#919893"/>
	</linearGradient>
	<path fill="url(#SVGID_4_)" d="M405.703,177.68h14.25c1.5,0,2.789,1.172,2.789,2.672l0.211,8.578c0,1.5-1.414,2.473-2.902,2.473
		l-14.348-0.223c-1.5,0-3.047-0.996-3.047-2.496l0.047-8.004c0-1.5,1.16-3.047,2.645-3.047L405.703,177.68z"/>
	
		<linearGradient id="SVGID_5_" gradientUnits="userSpaceOnUse" x1="209.1938" y1="161.3076" x2="209.1938" y2="201.3076" gradientTransform="matrix(0.75 0 0 -0.75 256.0126 320.7023)">
		<stop  offset="0" style="stop-color:#2D877B"/>
		<stop  offset="0.17" style="stop-color:#359D90"/>
		<stop  offset="0.68" style="stop-color:#85C2B8"/>
		<stop  offset="0.83" style="stop-color:#62B6A9"/>
		<stop  offset="1" style="stop-color:#287C71"/>
	</linearGradient>
	<path fill="url(#SVGID_5_)" d="M409.933,169.723h5.25c1.5,0,2.629,1.039,2.629,2.352l0.371,24.648c0,1.5-1.422,2.668-2.719,2.668
		l-5.531,0.332c-1.5,0-2.301-1.418-2.301-2.73l0.051-25.02c0-1.5,1-2.25,2.297-2.25H409.933z"/>
	
		<linearGradient id="SVGID_6_" gradientUnits="userSpaceOnUse" x1="212.6196" y1="198.3047" x2="212.6196" y2="201.3047" gradientTransform="matrix(0.75 0 0 -0.75 253.2675 326.1534)">
		<stop  offset="0" style="stop-color:#2D877B"/>
		<stop  offset="0.17" style="stop-color:#359D90"/>
		<stop  offset="0.68" style="stop-color:#85C2B8"/>
		<stop  offset="0.83" style="stop-color:#62B6A9"/>
		<stop  offset="1" style="stop-color:#287C71"/>
	</linearGradient>
	<path fill="url(#SVGID_6_)" d="M405.687,175.176h14.25c0,0,0.598,0.426,0.598,0.949c0.152,0.551-0.367,0.949-0.82,0.949
		l-14.027,0.352c-0.75,0-0.785-0.777-0.785-1.301c0.035-0.199,0.367-0.949,0.824-0.949H405.687z"/>
	
		<linearGradient id="SVGID_7_" gradientUnits="userSpaceOnUse" x1="212.6196" y1="198.3027" x2="212.6196" y2="201.3027" gradientTransform="matrix(0.75 0 0 -0.75 253.2675 331.7657)">
		<stop  offset="0" style="stop-color:#2D877B"/>
		<stop  offset="0.17" style="stop-color:#359D90"/>
		<stop  offset="0.68" style="stop-color:#85C2B8"/>
		<stop  offset="0.83" style="stop-color:#62B6A9"/>
		<stop  offset="1" style="stop-color:#287C71"/>
	</linearGradient>
	<path fill="url(#SVGID_7_)" d="M405.687,180.789h14.25c0,0,0.598,0.422,0.598,0.949c0.152,0.551-0.367,0.949-0.82,0.949
		l-14.027,0.352c-0.75,0-0.785-0.777-0.785-1.301c0.035-0.199,0.367-0.949,0.824-0.949H405.687z"/>
	
		<linearGradient id="SVGID_8_" gradientUnits="userSpaceOnUse" x1="212.6196" y1="198.3057" x2="212.6196" y2="201.3057" gradientTransform="matrix(0.75 0 0 -0.75 253.2675 337.3771)">
		<stop  offset="0" style="stop-color:#2D877B"/>
		<stop  offset="0.17" style="stop-color:#359D90"/>
		<stop  offset="0.68" style="stop-color:#85C2B8"/>
		<stop  offset="0.83" style="stop-color:#62B6A9"/>
		<stop  offset="1" style="stop-color:#287C71"/>
	</linearGradient>
	<path fill="url(#SVGID_8_)" d="M405.687,186.398h14.25c0,0,0.598,0.426,0.598,0.949c0.152,0.551-0.367,0.949-0.82,0.949
		l-14.027,0.352c-0.75,0-0.785-0.777-0.785-1.301c0.035-0.199,0.367-0.949,0.824-0.949H405.687z"/>
	
		<linearGradient id="SVGID_9_" gradientUnits="userSpaceOnUse" x1="212.6196" y1="198.3037" x2="212.6196" y2="201.3037" gradientTransform="matrix(0.75 0 0 -0.75 253.2675 342.9884)">
		<stop  offset="0" style="stop-color:#2D877B"/>
		<stop  offset="0.17" style="stop-color:#359D90"/>
		<stop  offset="0.68" style="stop-color:#85C2B8"/>
		<stop  offset="0.83" style="stop-color:#62B6A9"/>
		<stop  offset="1" style="stop-color:#287C71"/>
	</linearGradient>
	<path fill="url(#SVGID_9_)" d="M405.687,192.012h14.25c0,0,0.598,0.426,0.598,0.949c0.152,0.551-0.367,0.949-0.82,0.949
		l-14.027,0.352c-0.75,0-0.785-0.777-0.785-1.301c0.035-0.199,0.367-0.949,0.824-0.949H405.687z"/>
	
		<linearGradient id="SVGID_10_" gradientUnits="userSpaceOnUse" x1="222.6294" y1="193.0273" x2="222.6294" y2="201.4023" gradientTransform="matrix(0.75 0 0 -0.75 -15.2877 332.3907)">
		<stop  offset="0" style="stop-color:#8B8C8C"/>
		<stop  offset="0.17" style="stop-color:#A3A4A4"/>
		<stop  offset="0.68" style="stop-color:#C6C7C7"/>
		<stop  offset="0.83" style="stop-color:#BBBCBC"/>
		<stop  offset="1" style="stop-color:#818282"/>
	</linearGradient>
	<path fill="url(#SVGID_10_)" d="M137.883,181.414h27.75c0.75,0,1.395,1.332,1.395,3.066c0.105,1.434-0.77,3.141-1.723,3.141
		l-27.422-0.207c-0.75,0-1.551-1.199-1.551-2.934c0.051-1.566,0.773-3.141,1.723-3.141L137.883,181.414z"/>
	
		<linearGradient id="SVGID_11_" gradientUnits="userSpaceOnUse" x1="215.6943" y1="183.0068" x2="215.6943" y2="201.3662" gradientTransform="matrix(0.75 0 0 -0.75 -9.9894 328.6564)">
		<stop  offset="0" style="stop-color:#9DA59E"/>
		<stop  offset="0.17" style="stop-color:#B7C0B9"/>
		<stop  offset="0.68" style="stop-color:#D6DDD7"/>
		<stop  offset="0.83" style="stop-color:#CFD8D1"/>
		<stop  offset="1" style="stop-color:#919893"/>
	</linearGradient>
	<path fill="url(#SVGID_11_)" d="M144.68,177.68h14.25c1.5,0,2.789,1.172,2.789,2.672l0.211,8.578c0,1.5-1.414,2.473-2.902,2.473
		l-14.348-0.223c-1.5,0-3.047-0.996-3.047-2.496l0.047-8.004c0-1.5,1.16-3.047,2.645-3.047L144.68,177.68z"/>
	
		<linearGradient id="SVGID_12_" gradientUnits="userSpaceOnUse" x1="209.1938" y1="161.3076" x2="209.1938" y2="201.3076" gradientTransform="matrix(0.75 0 0 -0.75 -5.0104 320.7023)">
		<stop  offset="0" style="stop-color:#2D877B"/>
		<stop  offset="0.17" style="stop-color:#359D90"/>
		<stop  offset="0.68" style="stop-color:#85C2B8"/>
		<stop  offset="0.83" style="stop-color:#62B6A9"/>
		<stop  offset="1" style="stop-color:#287C71"/>
	</linearGradient>
	<path fill="url(#SVGID_12_)" d="M148.91,169.723h5.25c1.5,0,2.629,1.039,2.629,2.352l0.371,24.648c0,1.5-1.422,2.668-2.719,2.668
		l-5.531,0.332c-1.5,0-2.301-1.418-2.301-2.73l0.051-25.02c0-1.5,1-2.25,2.297-2.25H148.91z"/>
	
		<linearGradient id="SVGID_13_" gradientUnits="userSpaceOnUse" x1="212.6206" y1="198.3047" x2="212.6206" y2="201.3047" gradientTransform="matrix(0.75 0 0 -0.75 -7.756 326.1534)">
		<stop  offset="0" style="stop-color:#2D877B"/>
		<stop  offset="0.17" style="stop-color:#359D90"/>
		<stop  offset="0.68" style="stop-color:#85C2B8"/>
		<stop  offset="0.83" style="stop-color:#62B6A9"/>
		<stop  offset="1" style="stop-color:#287C71"/>
	</linearGradient>
	<path fill="url(#SVGID_13_)" d="M144.664,175.176h14.25c0,0,0.598,0.426,0.598,0.949c0.152,0.551-0.367,0.949-0.82,0.949
		l-14.027,0.352c-0.75,0-0.785-0.777-0.785-1.301c0.035-0.199,0.367-0.949,0.824-0.949H144.664z"/>
	
		<linearGradient id="SVGID_14_" gradientUnits="userSpaceOnUse" x1="212.6206" y1="198.3027" x2="212.6206" y2="201.3027" gradientTransform="matrix(0.75 0 0 -0.75 -7.756 331.7657)">
		<stop  offset="0" style="stop-color:#2D877B"/>
		<stop  offset="0.17" style="stop-color:#359D90"/>
		<stop  offset="0.68" style="stop-color:#85C2B8"/>
		<stop  offset="0.83" style="stop-color:#62B6A9"/>
		<stop  offset="1" style="stop-color:#287C71"/>
	</linearGradient>
	<path fill="url(#SVGID_14_)" d="M144.664,180.789h14.25c0,0,0.598,0.422,0.598,0.949c0.152,0.551-0.367,0.949-0.82,0.949
		l-14.027,0.352c-0.75,0-0.785-0.777-0.785-1.301c0.035-0.199,0.367-0.949,0.824-0.949H144.664z"/>
	
		<linearGradient id="SVGID_15_" gradientUnits="userSpaceOnUse" x1="212.6206" y1="198.3057" x2="212.6206" y2="201.3057" gradientTransform="matrix(0.75 0 0 -0.75 -7.756 337.3771)">
		<stop  offset="0" style="stop-color:#2D877B"/>
		<stop  offset="0.17" style="stop-color:#359D90"/>
		<stop  offset="0.68" style="stop-color:#85C2B8"/>
		<stop  offset="0.83" style="stop-color:#62B6A9"/>
		<stop  offset="1" style="stop-color:#287C71"/>
	</linearGradient>
	<path fill="url(#SVGID_15_)" d="M144.664,186.398h14.25c0,0,0.598,0.426,0.598,0.949c0.152,0.551-0.367,0.949-0.82,0.949
		l-14.027,0.352c-0.75,0-0.785-0.777-0.785-1.301c0.035-0.199,0.367-0.949,0.824-0.949H144.664z"/>
	
		<linearGradient id="SVGID_16_" gradientUnits="userSpaceOnUse" x1="212.6206" y1="198.3037" x2="212.6206" y2="201.3037" gradientTransform="matrix(0.75 0 0 -0.75 -7.756 342.9884)">
		<stop  offset="0" style="stop-color:#2D877B"/>
		<stop  offset="0.17" style="stop-color:#359D90"/>
		<stop  offset="0.68" style="stop-color:#85C2B8"/>
		<stop  offset="0.83" style="stop-color:#62B6A9"/>
		<stop  offset="1" style="stop-color:#287C71"/>
	</linearGradient>
	<path fill="url(#SVGID_16_)" d="M144.664,192.012h14.25c0,0,0.598,0.426,0.598,0.949c0.152,0.551-0.367,0.949-0.82,0.949
		l-14.027,0.352c-0.75,0-0.785-0.777-0.785-1.301c0.035-0.199,0.367-0.949,0.824-0.949H144.664z"/>
	<path fill="#3CAE9F" stroke="#28756B" stroke-linejoin="bevel" stroke-miterlimit="10" d="M428.101,339.378
		c0-30,23.801-54,53.188-54c29.313,0,53.184,23.957,53.184,53.66c0.129,29.59-23.855,53.66-53.184,53.66
		c-29.188-0.07-53.188-24.07-53.188-53.66V339.378z"/>
	<path fill="#308D82" d="M439.472,338.832c0-23.25,18.711-42,41.816-42c22.684,0,41.813,18.844,41.813,42.207
		c0.371,23.043-18.754,42.207-41.813,42.207c-23.066,0.336-41.816-18.934-41.816-42.207V338.832z"/>
	<path fill="#3CAE9F" d="M451.125,339.343c0-17.25,13.496-30.75,30.164-30.75c16.336,0,30.16,13.59,30.16,30.445
		c-0.324,16.805-13.527,30.445-30.16,30.445c-16.664-0.141-30.164-13.656-30.164-30.445V339.343z"/>
	<path fill="#48BFB0" stroke="#34978A" stroke-linejoin="bevel" stroke-miterlimit="10" d="M456.71,338.98
		c0-13.5,10.996-24.75,24.578-24.75c13.672,0,24.578,11.074,24.578,24.809c0.344,13.441-11.023,24.809-24.578,24.809
		c-13.328-0.117-24.578-11.129-24.578-24.809V338.98z"/>
	<path fill="#3CAE9F" stroke="#28756B" stroke-linejoin="bevel" stroke-miterlimit="10" d="M35.223,339.378
		c0-30,23.797-54,53.184-54c29.316,0,53.188,23.957,53.188,53.66c0.129,29.59-23.855,53.66-53.188,53.66
		c-29.184-0.07-53.184-24.07-53.184-53.66V339.378z"/>
	<path fill="#308D82" d="M46.594,338.832c0-23.25,18.711-42,41.813-42c22.688,0,41.816,18.844,41.816,42.207
		c0.371,23.043-18.758,42.207-41.816,42.207c-23.063,0.336-41.813-18.934-41.813-42.207V338.832z"/>
	<path fill="#3CAE9F" d="M58.242,339.343c0-17.25,13.5-30.75,30.164-30.75c16.336,0,30.164,13.59,30.164,30.445
		c-0.328,16.805-13.531,30.445-30.164,30.445c-16.664-0.141-30.164-13.656-30.164-30.445V339.343z"/>
	<path fill="#48BFB0" stroke="#34978A" stroke-linejoin="bevel" stroke-miterlimit="10" d="M63.828,338.98
		c0-13.5,11-24.75,24.578-24.75c13.672,0,24.578,11.074,24.578,24.809c0.344,13.441-11.023,24.809-24.578,24.809
		c-13.328-0.117-24.578-11.129-24.578-24.809V338.98z"/>
	<path fill="#34978A" d="M8.223,202.18h550.5v83.25H8.223V202.18z"/>
	<path fill="#63C9BC" d="M3.336,203.434h560.25v-6H3.336V203.434z"/>
	<path fill="#63C9BC" d="M3.336,289.464h560.25v-6H3.336V289.464z"/>
	<path fill="#34978A" d="M157.867,288.804h257.25v105h-257.25V288.804z"/>
	<path fill="#63C9BC" d="M149.254,288.804h9.75v119.25h-9.75V288.804z"/>
	<path fill="#63C9BC" d="M411.574,288.804h9.75v119.25h-9.75V288.804z"/>
	<path fill="#63C9BC" d="M168.828,202.832h9v80.25h-9V202.832z"/>
	<path fill="#63C9BC" d="M392.261,203.574h9v80.25h-9V203.574z"/>
	<path fill="#3CAE9F" d="M178.34,203.762h210v76.5h-210V203.762z"/>
	<path fill="#3CAE9F" d="M401.394,203.762h152.25v76.5h-152.25V203.762z"/>
	<path fill="#3CAE9F" d="M12.219,203.762h152.25v76.5H12.219V203.762z"/>
	<path fill="#3CAE9F" d="M158.844,289.398h248.25v93.75h-248.25V289.398z"/>
	<path fill="#2B7F74" d="M158.57,391.894h33l-33-33V391.894z"/>
	<path fill="#2B7F74" d="M377.902,393.003h33v-33L377.902,393.003z"/>
	<path fill="#63C9BC" d="M158.406,393.968h255v-6h-255V393.968z"/>
	<path fill="#3E3938" stroke="#3E3938" stroke-linejoin="bevel" stroke-miterlimit="10" d="M136.723,393.23h55.5v21h-55.5V393.23z"
		/>
	<path fill="#3E3938" stroke="#3E3938" stroke-linejoin="bevel" stroke-miterlimit="10" d="M377.902,393.23h55.5v21h-55.5V393.23z"
		/>
	<path fill="#34978A" stroke="#28756B" stroke-linejoin="bevel" stroke-miterlimit="10" d="M303.617,336.496
		c0-15,11.824-27,26.504-27c14.746,0,26.5,11.965,26.5,26.773c0.246,14.477-11.906,26.773-26.5,26.773
		c-14.504-0.297-26.504-12.008-26.504-26.773V336.496z"/>
	<path fill="#3CAE9F" d="M306.445,336.351c0-13.5,10.563-24,23.676-24c13.074,0,23.672,10.691,23.672,23.918
		c-0.098,12.832-10.637,23.918-23.672,23.918c-13.176,0.164-23.676-10.727-23.676-23.918V336.351z"/>
	
		<linearGradient id="SVGID_17_" gradientUnits="userSpaceOnUse" x1="201.1743" y1="198.416" x2="217.3934" y2="192.5128" gradientTransform="matrix(0.75 0 0 -0.75 173.1796 467.3732)">
		<stop  offset="0" style="stop-color:#49978D"/>
		<stop  offset="0.11" style="stop-color:#6CCBBE"/>
		<stop  offset="0.39" style="stop-color:#C1E4DF"/>
		<stop  offset="0.55" style="stop-color:#6CCBBE"/>
		<stop  offset="0.77" style="stop-color:#4B9C92"/>
	</linearGradient>
	<path fill="url(#SVGID_17_)" stroke="#2B7F74" stroke-linejoin="bevel" stroke-miterlimit="10" d="M333.097,316.394l2.25,4.5
		l-2.25,4.5h-5.25l-3-4.5l3-4.5H333.097z"/>
	
		<linearGradient id="SVGID_18_" gradientUnits="userSpaceOnUse" x1="201.1729" y1="198.4146" x2="217.3931" y2="192.5109" gradientTransform="matrix(0.75 0 0 -0.75 158.6981 482.6368)">
		<stop  offset="0" style="stop-color:#49978D"/>
		<stop  offset="0.11" style="stop-color:#6CCBBE"/>
		<stop  offset="0.39" style="stop-color:#C1E4DF"/>
		<stop  offset="0.55" style="stop-color:#6CCBBE"/>
		<stop  offset="0.77" style="stop-color:#4B9C92"/>
	</linearGradient>
	<path fill="url(#SVGID_18_)" stroke="#2B7F74" stroke-linejoin="bevel" stroke-miterlimit="10" d="M318.617,331.66l2.25,4.5
		l-2.25,4.5h-5.25l-3-4.5l3-4.5H318.617z"/>
	
		<linearGradient id="SVGID_19_" gradientUnits="userSpaceOnUse" x1="201.1733" y1="198.4131" x2="217.3924" y2="192.5098" gradientTransform="matrix(0.75 0 0 -0.75 173.1796 497.6837)">
		<stop  offset="0" style="stop-color:#49978D"/>
		<stop  offset="0.11" style="stop-color:#6CCBBE"/>
		<stop  offset="0.39" style="stop-color:#C1E4DF"/>
		<stop  offset="0.55" style="stop-color:#6CCBBE"/>
		<stop  offset="0.77" style="stop-color:#4B9C92"/>
	</linearGradient>
	<path fill="url(#SVGID_19_)" stroke="#2B7F74" stroke-linejoin="bevel" stroke-miterlimit="10" d="M333.097,346.707l2.25,4.5
		l-2.25,4.5h-5.25l-3-4.5l3-4.5H333.097z"/>
	
		<linearGradient id="SVGID_20_" gradientUnits="userSpaceOnUse" x1="201.1738" y1="198.4141" x2="217.3917" y2="192.5113" gradientTransform="matrix(0.75 0 0 -0.75 188.0077 482.6368)">
		<stop  offset="0" style="stop-color:#49978D"/>
		<stop  offset="0.11" style="stop-color:#6CCBBE"/>
		<stop  offset="0.39" style="stop-color:#C1E4DF"/>
		<stop  offset="0.55" style="stop-color:#6CCBBE"/>
		<stop  offset="0.77" style="stop-color:#4B9C92"/>
	</linearGradient>
	<path fill="url(#SVGID_20_)" stroke="#2B7F74" stroke-linejoin="bevel" stroke-miterlimit="10" d="M347.925,331.66l2.25,4.5
		l-2.25,4.5h-5.25l-3-4.5l3-4.5H347.925z"/>
	<path fill="#34978A" stroke="#28756B" stroke-linejoin="bevel" stroke-miterlimit="10" d="M209.008,336.496c0-15,11.824-27,26.5-27
		c14.75,0,26.5,11.965,26.5,26.773c0.25,14.477-11.906,26.773-26.5,26.773c-14.5-0.297-26.5-12.008-26.5-26.773V336.496z"/>
	<path fill="#3CAE9F" d="M211.832,336.351c0-13.5,10.563-24,23.676-24c13.074,0,23.676,10.691,23.676,23.918
		c-0.102,12.832-10.637,23.918-23.676,23.918c-13.176,0.164-23.676-10.727-23.676-23.918V336.351z"/>
	
		<linearGradient id="SVGID_21_" gradientUnits="userSpaceOnUse" x1="201.1753" y1="198.4155" x2="217.3931" y2="192.5127" gradientTransform="matrix(0.75 0 0 -0.75 78.5682 467.3732)">
		<stop  offset="0" style="stop-color:#49978D"/>
		<stop  offset="0.11" style="stop-color:#6CCBBE"/>
		<stop  offset="0.39" style="stop-color:#C1E4DF"/>
		<stop  offset="0.55" style="stop-color:#6CCBBE"/>
		<stop  offset="0.77" style="stop-color:#4B9C92"/>
	</linearGradient>
	<path fill="url(#SVGID_21_)" stroke="#2B7F74" stroke-linejoin="bevel" stroke-miterlimit="10" d="M238.488,316.394l2.25,4.5
		l-2.25,4.5h-5.25l-3-4.5l3-4.5H238.488z"/>
	
		<linearGradient id="SVGID_22_" gradientUnits="userSpaceOnUse" x1="201.1724" y1="198.4126" x2="217.3926" y2="192.5089" gradientTransform="matrix(0.75 0 0 -0.75 64.0863 482.6368)">
		<stop  offset="0" style="stop-color:#49978D"/>
		<stop  offset="0.11" style="stop-color:#6CCBBE"/>
		<stop  offset="0.39" style="stop-color:#C1E4DF"/>
		<stop  offset="0.55" style="stop-color:#6CCBBE"/>
		<stop  offset="0.77" style="stop-color:#4B9C92"/>
	</linearGradient>
	<path fill="url(#SVGID_22_)" stroke="#2B7F74" stroke-linejoin="bevel" stroke-miterlimit="10" d="M224.004,331.66l2.25,4.5
		l-2.25,4.5h-5.25l-3-4.5l3-4.5H224.004z"/>
	
		<linearGradient id="SVGID_23_" gradientUnits="userSpaceOnUse" x1="201.1748" y1="198.4136" x2="217.3926" y2="192.5108" gradientTransform="matrix(0.75 0 0 -0.75 78.5682 497.6837)">
		<stop  offset="0" style="stop-color:#49978D"/>
		<stop  offset="0.11" style="stop-color:#6CCBBE"/>
		<stop  offset="0.39" style="stop-color:#C1E4DF"/>
		<stop  offset="0.55" style="stop-color:#6CCBBE"/>
		<stop  offset="0.77" style="stop-color:#4B9C92"/>
	</linearGradient>
	<path fill="url(#SVGID_23_)" stroke="#2B7F74" stroke-linejoin="bevel" stroke-miterlimit="10" d="M238.488,346.707l2.25,4.5
		l-2.25,4.5h-5.25l-3-4.5l3-4.5H238.488z"/>
	
		<linearGradient id="SVGID_24_" gradientUnits="userSpaceOnUse" x1="201.1733" y1="198.4155" x2="217.3936" y2="192.5118" gradientTransform="matrix(0.75 0 0 -0.75 93.3964 482.6368)">
		<stop  offset="0" style="stop-color:#49978D"/>
		<stop  offset="0.11" style="stop-color:#6CCBBE"/>
		<stop  offset="0.39" style="stop-color:#C1E4DF"/>
		<stop  offset="0.55" style="stop-color:#6CCBBE"/>
		<stop  offset="0.77" style="stop-color:#4B9C92"/>
	</linearGradient>
	<path fill="url(#SVGID_24_)" stroke="#2B7F74" stroke-linejoin="bevel" stroke-miterlimit="10" d="M253.316,331.66l2.25,4.5
		l-2.25,4.5h-5.25l-3-4.5l3-4.5H253.316z"/>
</g>
</svg>
