<?xml version="1.0" encoding="utf-8"?>
<!-- Generator: Adobe Illustrator 16.0.0, SVG Export Plug-In . SVG Version: 6.00 Build 0)  -->
<!DOCTYPE svg PUBLIC "-//W3C//DTD SVG 1.1//EN" "http://www.w3.org/Graphics/SVG/1.1/DTD/svg11.dtd">
<svg preserveAspectRatio="none" version="1.1" id="图层_1" xmlns="http://www.w3.org/2000/svg" xmlns:xlink="http://www.w3.org/1999/xlink" x="0px" y="0px"
	 width="478.019px" height="567.246px" viewBox="44.602 -0.164 478.019 567.246"
	 enable-background="new 44.602 -0.164 478.019 567.246" xml:space="preserve">
<g id="surface419">
	
		<linearGradient id="SVGID_1_" gradientUnits="userSpaceOnUse" x1="23.8018" y1="250.7051" x2="23.8018" y2="365.7051" gradientTransform="matrix(0 -0.75 -0.75 0 319.005 567.9337)">
		<stop  offset="0" style="stop-color:#79C1C1"/>
		<stop  offset="0.69" style="stop-color:#B0D9D9"/>
		<stop  offset="1" style="stop-color:#6EBEBE"/>
	</linearGradient>
	<path fill="url(#SVGID_1_)" stroke="#3B7E7E" stroke-width="0.25" stroke-linejoin="bevel" stroke-miterlimit="10" d="
		M44.727,566.957v-33.75h86.25v33.75H44.727z"/>
	
		<linearGradient id="SVGID_2_" gradientUnits="userSpaceOnUse" x1="23.8018" y1="250.7051" x2="23.8018" y2="365.7051" gradientTransform="matrix(0 -0.75 -0.75 0 710.5236 567.9337)">
		<stop  offset="0" style="stop-color:#79C1C1"/>
		<stop  offset="0.69" style="stop-color:#B0D9D9"/>
		<stop  offset="1" style="stop-color:#6EBEBE"/>
	</linearGradient>
	<path fill="url(#SVGID_2_)" stroke="#3B7E7E" stroke-width="0.25" stroke-linejoin="bevel" stroke-miterlimit="10" d="
		M436.246,566.957v-33.75h86.25v33.75H436.246z"/>
	
		<linearGradient id="SVGID_3_" gradientUnits="userSpaceOnUse" x1="222.2275" y1="86.8027" x2="202.2275" y2="86.8027" gradientTransform="matrix(0.75 0 0 -0.75 -36.0851 546.0665)">
		<stop  offset="0" style="stop-color:#79C1C1"/>
		<stop  offset="0.69" style="stop-color:#B0D9D9"/>
		<stop  offset="1" style="stop-color:#6EBEBE"/>
	</linearGradient>
	<path fill="url(#SVGID_3_)" stroke="#3B7E7E" stroke-width="0.25" stroke-linejoin="bevel" stroke-miterlimit="10" d="
		M115.586,395.089h15v171.75h-15V395.089z"/>
	
		<linearGradient id="SVGID_4_" gradientUnits="userSpaceOnUse" x1="222.2236" y1="86.8027" x2="202.2236" y2="86.8027" gradientTransform="matrix(0.75 0 0 -0.75 284.578 546.0665)">
		<stop  offset="0" style="stop-color:#79C1C1"/>
		<stop  offset="0.69" style="stop-color:#B0D9D9"/>
		<stop  offset="1" style="stop-color:#6EBEBE"/>
	</linearGradient>
	<path fill="url(#SVGID_4_)" stroke="#3B7E7E" stroke-width="0.25" stroke-linejoin="bevel" stroke-miterlimit="10" d="
		M436.246,395.089h15v171.75h-15V395.089z"/>
	
		<linearGradient id="SVGID_5_" gradientUnits="userSpaceOnUse" x1="835.2212" y1="-156.186" x2="202.2222" y2="-156.1861" gradientTransform="matrix(0.75 0 0 -0.75 -105.4523 151.0431)">
		<stop  offset="0" style="stop-color:#79C1C1"/>
		<stop  offset="0.69" style="stop-color:#B0D9D9"/>
		<stop  offset="1" style="stop-color:#6EBEBE"/>
	</linearGradient>
	<path fill="url(#SVGID_5_)" stroke="#3B7E7E" stroke-width="0.25" stroke-linejoin="bevel" stroke-miterlimit="10" d="
		M46.215,0.066v24h69l27,111.75c0,0-62.543,46.324-62.543,152.882c0.293,106.617,86.645,172.73,129.645,186.535
		c-0.352,0.332,11.215,61.066,75.554,61.066c64.344,0.016,73.602-61.066,73.602-61.066c-0.258,0.332,132.109-50.734,132.109-186.535
		c-0.367-104.132-61.766-151.246-61.766-151.246l23.898-113.387h68.25v-24H46.215z"/>
	
		<linearGradient id="SVGID_6_" gradientUnits="userSpaceOnUse" x1="629.2241" y1="104.3013" x2="202.2251" y2="104.3012" gradientTransform="matrix(0.75 0 0 -0.75 -28.1925 150.9366)">
		<stop  offset="0" style="stop-color:#AFAFAF"/>
		<stop  offset="0.59" style="stop-color:#E5E5E5"/>
		<stop  offset="1" style="stop-color:#AFAFAF"/>
	</linearGradient>
	<path fill="url(#SVGID_6_)" stroke="#9B9B9B" stroke-width="0.25" stroke-linejoin="bevel" stroke-miterlimit="10" d="
		M123.477-0.039l33.75,145.5h252l34.5-145.5H123.477z"/>
	<path fill="#AFAFAF" stroke="#9B9B9B" stroke-width="0.25" stroke-linejoin="bevel" stroke-miterlimit="10" d="M93.426,283.344
		c0-105,85.016-190.5,190.039-190.5c104.71,0,190.039,85.168,190.039,190.375c0.172,81.875-52.184,152.535-124.93,179.25
		c-0.898,6.875-17.844,61.184-65.109,60.59c-52.789-0.465-61.164-50.277-61.852-58.527c-3.688-1.188-8.898-4.535-12.148-5.914
		c-68.039-29.023-116.039-96.613-116.039-175.398V283.344z"/>
	
		<radialGradient id="SVGID_7_" cx="202.2241" cy="201.3037" r="314.7943" gradientTransform="matrix(0.75 0 0 -0.75 48.3969 350.8966)" gradientUnits="userSpaceOnUse">
		<stop  offset="0" style="stop-color:#D7D7D7"/>
		<stop  offset="1" style="stop-color:#AFAFAF"/>
	</radialGradient>
	<path fill="url(#SVGID_7_)" stroke="#9B9B9B" stroke-width="0.25" stroke-linejoin="bevel" stroke-miterlimit="10" d="
		M200.066,283.168c0-45.75,37.277-83.25,83.398-83.25c46.351,0,83.398,37.379,83.398,83.547
		c-0.297,46.203-37.418,83.542-83.398,83.542c-45.898,0.16-83.398-37.449-83.398-83.542V283.168z"/>
	
		<radialGradient id="SVGID_8_" cx="202.2251" cy="201.3022" r="122.4485" gradientTransform="matrix(0.75 0 0 -0.75 99.3568 401.9464)" gradientUnits="userSpaceOnUse">
		<stop  offset="0" style="stop-color:#C9C9C9"/>
		<stop  offset="1" style="stop-color:#AFAFAF"/>
	</radialGradient>
	<path fill="url(#SVGID_8_)" stroke="#9B9B9B" stroke-width="0.25" stroke-linejoin="bevel" stroke-miterlimit="10" d="
		M251.027,283.219c0-18,14.5-32.25,32.438-32.25c17.812,0,32.437,14.539,32.437,32.496c0.375,17.753-14.555,32.496-32.437,32.496
		c-18.188,0.258-32.438-14.566-32.438-32.496V283.219z"/>
	
		<linearGradient id="SVGID_9_" gradientUnits="userSpaceOnUse" x1="193.2842" y1="111.9829" x2="352.0701" y2="139.9812" gradientTransform="matrix(0.75 0 0 -0.75 22.9774 243.8556)">
		<stop  offset="0" style="stop-color:#AFAFAF"/>
		<stop  offset="0.59" style="stop-color:#E5E5E5"/>
		<stop  offset="1" style="stop-color:#AFAFAF"/>
	</linearGradient>
	<path fill="url(#SVGID_9_)" stroke="#9B9B9B" stroke-width="0.25" stroke-linejoin="bevel" stroke-miterlimit="10" d="
		M174.645,126.629l48,65.25c0,0,4.801,8.652,17.156,5.219c12.094-3.719,28.137-8.25,28.137-8.25
		c-0.293,0.031,10.98-2.063,10.98-14.438c-0.023-12.531,0-81.531,0-81.531c-0.023,0-57.648-1.656-104.273,33.406V126.629z"/>
	
		<linearGradient id="SVGID_10_" gradientUnits="userSpaceOnUse" x1="153.3452" y1="111.9741" x2="312.0444" y2="139.9571" gradientTransform="matrix(-0.7499 -0.0144 0.0144 -0.7499 513.1359 247.2853)">
		<stop  offset="0" style="stop-color:#AFAFAF"/>
		<stop  offset="0.59" style="stop-color:#E5E5E5"/>
		<stop  offset="1" style="stop-color:#AFAFAF"/>
	</linearGradient>
	<path fill="url(#SVGID_10_)" stroke="#9B9B9B" stroke-width="0.25" stroke-linejoin="bevel" stroke-miterlimit="10" d="
		M393.765,127.457l-49.246,64.316c0,0-4.926,8.48-17.199,4.813c-12.074-3.875-27.953-8.785-27.953-8.785
		c0.219,0.109-10.934-2.27-10.695-14.633c0.184-12.469,1.566-81.457,1.566-81.457c-0.059,0,57.988,1.613,103.531,35.379
		L393.765,127.457z"/>
	
		<linearGradient id="SVGID_11_" gradientUnits="userSpaceOnUse" x1="174.9097" y1="65.9233" x2="337.6758" y2="202.5003" gradientTransform="matrix(-0.75 0 0 -0.75 591.379 297.9025)">
		<stop  offset="0" style="stop-color:#AFAFAF"/>
		<stop  offset="0.59" style="stop-color:#E5E5E5"/>
		<stop  offset="1" style="stop-color:#AFAFAF"/>
	</linearGradient>
	<path fill="url(#SVGID_11_)" stroke="#9B9B9B" stroke-width="0.25" stroke-linejoin="bevel" stroke-miterlimit="10" d="
		M461.851,219.676l-72.75,25.5c0,0-8.914,4.52-17.082-5.383c-8.418-9.617-18.367-22.891-18.367-22.891
		c0.199-0.227-7.828-7.984-0.758-18.137c6.957-9.84,46.563-66.867,46.563-66.867c0.145,0.027,44.484,32.41,62.633,87.84
		L461.851,219.676z"/>
	
		<linearGradient id="SVGID_12_" gradientUnits="userSpaceOnUse" x1="226.8999" y1="53.7422" x2="363.7187" y2="216.7965" gradientTransform="matrix(0.75 0 0 -0.75 -52.3971 298.0001)">
		<stop  offset="0" style="stop-color:#AFAFAF"/>
		<stop  offset="0.59" style="stop-color:#E5E5E5"/>
		<stop  offset="1" style="stop-color:#AFAFAF"/>
	</linearGradient>
	<path fill="url(#SVGID_12_)" stroke="#9B9B9B" stroke-width="0.25" stroke-linejoin="bevel" stroke-miterlimit="10" d="
		M104.523,219.773l72.75,25.5c0,0,8.832,4.52,17-5.383c8.5-9.617,18.367-22.891,18.367-22.891
		c-0.117-0.227,7.828-7.984,0.758-18.137c-6.875-9.84-46.563-66.867-46.563-66.867c-0.063,0.027-44.484,32.41-62.633,87.84
		L104.523,219.773z"/>
	
		<linearGradient id="SVGID_13_" gradientUnits="userSpaceOnUse" x1="229.1694" y1="42.7813" x2="257.6596" y2="204.357" gradientTransform="matrix(-0.75 0 0 -0.75 609.8771 378.7814)">
		<stop  offset="0" style="stop-color:#AFAFAF"/>
		<stop  offset="0.59" style="stop-color:#E5E5E5"/>
		<stop  offset="1" style="stop-color:#AFAFAF"/>
	</linearGradient>
	<path fill="url(#SVGID_13_)" stroke="#9B9B9B" stroke-width="0.25" stroke-linejoin="bevel" stroke-miterlimit="10" d="
		M465.351,340.304l-75-24.75c0,0-9.684-1.449-10.324-14.277c-0.926-12.723-1.07-29.351-1.07-29.351
		c0.145,0.129-1.512-11.086,10.211-14.992c11.684-3.629,77.102-24.773,77.102-24.773c-0.168,0.145,18.531,45.371-0.727,107.898
		L465.351,340.304z"/>
	
		<linearGradient id="SVGID_14_" gradientUnits="userSpaceOnUse" x1="280.8892" y1="51.3027" x2="280.8892" y2="195.4951" gradientTransform="matrix(0.75 0 0 -0.75 -69.025 378.7814)">
		<stop  offset="0" style="stop-color:#AFAFAF"/>
		<stop  offset="0.59" style="stop-color:#E5E5E5"/>
		<stop  offset="1" style="stop-color:#AFAFAF"/>
	</linearGradient>
	<path fill="url(#SVGID_14_)" stroke="#9B9B9B" stroke-width="0.25" stroke-linejoin="bevel" stroke-miterlimit="10" d="
		M102.895,340.304l75-24.75c0,0,9.68-1.449,10.324-14.277c0.926-12.723,1.066-29.351,1.066-29.351
		c-0.141,0.129,1.512-11.086-10.211-14.992c-11.68-3.629-77.102-24.773-77.102-24.773c0.172,0.145-18.531,45.371,0.727,107.898
		L102.895,340.304z"/>
	
		<linearGradient id="SVGID_15_" gradientUnits="userSpaceOnUse" x1="332.5669" y1="30.4707" x2="229.3125" y2="209.3126" gradientTransform="matrix(0.75 0 0 -0.75 -37.0446 464.422)">
		<stop  offset="0" style="stop-color:#AFAFAF"/>
		<stop  offset="0.59" style="stop-color:#E5E5E5"/>
		<stop  offset="1" style="stop-color:#AFAFAF"/>
	</linearGradient>
	<path fill="url(#SVGID_15_)" stroke="#9B9B9B" stroke-width="0.25" stroke-linejoin="bevel" stroke-miterlimit="10" d="
		M172.375,436.445l45.75-64.5c0,0,7.129-7.43-0.117-18.027c-7.383-10.473-16.906-23.992-16.906-23.992
		c-0.227,0.02-5.504-9.738-17.191-5.73c-11.535,4.25-76.324,27.094-76.324,27.094c0.289-0.344,14.176,51.367,64.992,85.102
		L172.375,436.445z"/>
	
		<linearGradient id="SVGID_16_" gradientUnits="userSpaceOnUse" x1="211.5181" y1="27.1006" x2="241.9004" y2="199.4075" gradientTransform="matrix(-0.75 0 0 -0.75 578.5187 463.9884)">
		<stop  offset="0" style="stop-color:#AFAFAF"/>
		<stop  offset="0.59" style="stop-color:#E5E5E5"/>
		<stop  offset="1" style="stop-color:#AFAFAF"/>
	</linearGradient>
	<path fill="url(#SVGID_16_)" stroke="#9B9B9B" stroke-width="0.25" stroke-linejoin="bevel" stroke-miterlimit="10" d="
		M396.492,436.011l-45.75-64.5c0,0-6.762-7.09,0.484-17.684c7.016-10.816,16.902-23.996,16.902-23.996
		c-0.137-0.32,5.508-9.734,17.195-5.727c11.918,3.906,76.32,27.09,76.32,27.09c0.098,0.066-18.707,52.836-64.992,85.105
		L396.492,436.011z"/>
	
		<linearGradient id="SVGID_17_" gradientUnits="userSpaceOnUse" x1="493.6274" y1="131.2246" x2="188.0953" y2="77.351" gradientTransform="matrix(0.75 0 0 -0.75 27.8041 521.0001)">
		<stop  offset="0" style="stop-color:#AFAFAF"/>
		<stop  offset="0.59" style="stop-color:#E5E5E5"/>
		<stop  offset="1" style="stop-color:#AFAFAF"/>
	</linearGradient>
	<path fill="url(#SVGID_17_)" stroke="#9B9B9B" stroke-width="0.25" stroke-linejoin="bevel" stroke-miterlimit="10" d="
		M179.473,441.273l47.25-66c0,0,6.215-8.367,13.766-4.242c7.234,4.242,28.137,8.938,28.137,8.938
		c0.098-0.195,7.547,0.688,7.547,17.875c0.051,17.18,0,77.688,0,76.313c-0.699,7.617,13.042,7.563,13.042,0
		c-0.242-7.383,0-76.313,0-76.313c-0.242-0.07-1.375-13.75,9.605-17.188c16.402-5.383,27.453-9.625,27.453-9.625
		c0.199-0.258,8.922-3.438,17.156,8.938c8.543,12.555,45.305,62.563,45.305,62.563c-0.012,0.242-27.461,16.5-39.816,19.938
		c0.055-0.195-12.867,60.625-65.109,60.625c-57.086-0.07-61.852-58.563-61.852-58.563c0.266-0.008-41.047-18.609-42.484-23.375
		V441.273z"/>
</g>
</svg>
