<?xml version="1.0" encoding="utf-8"?>
<!-- Generator: Adobe Illustrator 16.0.0, SVG Export Plug-In . SVG Version: 6.00 Build 0)  -->
<!DOCTYPE svg PUBLIC "-//W3C//DTD SVG 1.1//EN" "http://www.w3.org/Graphics/SVG/1.1/DTD/svg11.dtd">
<svg preserveAspectRatio="none" version="1.1" id="图层_1" xmlns="http://www.w3.org/2000/svg" xmlns:xlink="http://www.w3.org/1999/xlink" x="0px" y="0px"
	 width="565.906px" height="461.706px" viewBox="-1.363 104.238 565.906 461.706"
	 enable-background="new -1.363 104.238 565.906 461.706" xml:space="preserve">
<g id="surface489">
	
		<linearGradient id="SVGID_1_" gradientUnits="userSpaceOnUse" x1="837.2231" y1="-20.6934" x2="202.2241" y2="-20.6934" gradientTransform="matrix(0.75 0 0 -0.75 -122.735 376.049)">
		<stop  offset="0" style="stop-color:#AFAFAF"/>
		<stop  offset="0.59" style="stop-color:#E5E5E5"/>
		<stop  offset="1" style="stop-color:#AFAFAF"/>
	</linearGradient>
	<path fill="url(#SVGID_1_)" stroke="#9B9B9B" stroke-linejoin="bevel" stroke-miterlimit="10" d="M28.934,408.07v61.5l85.5,40.5v48
		h390.75v-309l-205.5-24l-222.75,72l-34.5,45.75L28.934,408.07z"/>
	
		<linearGradient id="SVGID_2_" gradientUnits="userSpaceOnUse" x1="297.2212" y1="-66.1948" x2="202.2212" y2="-66.1948" gradientTransform="matrix(0.75 0 0 -0.75 341.1259 283.795)">
		<stop  offset="0" style="stop-color:#AFAFAF"/>
		<stop  offset="0.59" style="stop-color:#E5E5E5"/>
		<stop  offset="1" style="stop-color:#AFAFAF"/>
	</linearGradient>
	<path fill="url(#SVGID_2_)" stroke="#9B9B9B" stroke-linejoin="bevel" stroke-miterlimit="10" d="M492.792,132.816h71.25v401.25
		h-71.25V132.816z"/>
	
		<linearGradient id="SVGID_3_" gradientUnits="userSpaceOnUse" x1="507.2251" y1="167.8022" x2="202.2251" y2="167.8022" gradientTransform="matrix(0.75 0 0 -0.75 -6.7867 577.9562)">
		<stop  offset="0" style="stop-color:#AFAFAF"/>
		<stop  offset="0.59" style="stop-color:#E5E5E5"/>
		<stop  offset="1" style="stop-color:#AFAFAF"/>
	</linearGradient>
	<path fill="url(#SVGID_3_)" stroke="#9B9B9B" stroke-linejoin="bevel" stroke-miterlimit="10" d="M219.133,426.98h154.5v50.25
		h-228.75L219.133,426.98z"/>
	
		<linearGradient id="SVGID_4_" gradientUnits="userSpaceOnUse" x1="415.4595" y1="25.2251" x2="201.7305" y2="25.2251" gradientTransform="matrix(0.75 0 0 -0.75 232.9725 452.0177)">
		<stop  offset="0" style="stop-color:#AFAFAF"/>
		<stop  offset="0.59" style="stop-color:#E5E5E5"/>
		<stop  offset="1" style="stop-color:#AFAFAF"/>
	</linearGradient>
	<path fill="url(#SVGID_4_)" stroke="#9B9B9B" stroke-linejoin="bevel" stroke-miterlimit="10" d="M508.39,313.039
		c-12-15.75-66.227-17.094-87.691,0.285c-64.559,91.965-29.516,228.629,0,243.336c29.191,14.379,87.246,8.207,95.254,1.863
		c17.938-14.484,57.965-159.371-7.512-245.199L508.39,313.039z"/>
	
		<radialGradient id="SVGID_5_" cx="202.2241" cy="201.3042" r="169.0541" gradientTransform="matrix(0.75 0 0 -0.75 270.451 547.2716)" gradientUnits="userSpaceOnUse">
		<stop  offset="0" style="stop-color:#7E7E7E"/>
		<stop  offset="1" style="stop-color:#696969"/>
	</radialGradient>
	<path fill="url(#SVGID_5_)" stroke="#696969" stroke-linejoin="bevel" stroke-miterlimit="10" d="M422.121,441.292
		c0-24.75,20.039-45,44.902-45c24.848,0,44.906,19.969,44.906,44.75c0.191,25-20.125,44.746-44.906,44.746
		c-24.652-0.246-44.902-20.051-44.902-44.746V441.292z"/>
	
		<radialGradient id="SVGID_6_" cx="202.2246" cy="201.3037" r="43.1079" gradientTransform="matrix(0.75 0 0 -0.75 260.8915 505.7579)" gradientUnits="userSpaceOnUse">
		<stop  offset="0" style="stop-color:#7E7E7E"/>
		<stop  offset="1" style="stop-color:#696969"/>
	</radialGradient>
	<path fill="url(#SVGID_6_)" stroke="#696969" stroke-linejoin="bevel" stroke-miterlimit="10" d="M412.558,366.031
		c0-6,5.109-11.25,11.449-11.25c6.551,0,11.445,5.09,11.445,11.406c0.355,6.594-5.129,11.406-11.445,11.406
		c-6.199-0.313-11.449-5.113-11.449-11.406V366.031z"/>
	
		<radialGradient id="SVGID_7_" cx="202.2241" cy="201.3042" r="43.1086" gradientTransform="matrix(0.75 0 0 -0.75 338.0927 506.047)" gradientUnits="userSpaceOnUse">
		<stop  offset="0" style="stop-color:#7E7E7E"/>
		<stop  offset="1" style="stop-color:#696969"/>
	</radialGradient>
	<path fill="url(#SVGID_7_)" stroke="#696969" stroke-linejoin="bevel" stroke-miterlimit="10" d="M489.761,366.32
		c0-6,5.109-11.25,11.445-11.25c6.555,0,11.445,5.09,11.445,11.406c0.359,6.594-5.129,11.406-11.445,11.406
		c-6.195-0.313-11.445-5.113-11.445-11.406V366.32z"/>
	
		<radialGradient id="SVGID_8_" cx="202.2256" cy="201.3047" r="43.1051" gradientTransform="matrix(0.75 0 0 -0.75 265.1844 666.3331)" gradientUnits="userSpaceOnUse">
		<stop  offset="0" style="stop-color:#7E7E7E"/>
		<stop  offset="1" style="stop-color:#696969"/>
	</radialGradient>
	<path fill="url(#SVGID_8_)" stroke="#696969" stroke-linejoin="bevel" stroke-miterlimit="10" d="M416.851,526.605
		c0-6,5.109-11.25,11.449-11.25c6.551,0,11.445,5.09,11.445,11.406c0.355,6.594-5.129,11.406-11.445,11.406
		c-6.199-0.313-11.449-5.109-11.449-11.406V526.605z"/>
	
		<radialGradient id="SVGID_9_" cx="202.2246" cy="201.3047" r="43.1079" gradientTransform="matrix(0.75 0 0 -0.75 342.3837 666.6144)" gradientUnits="userSpaceOnUse">
		<stop  offset="0" style="stop-color:#7E7E7E"/>
		<stop  offset="1" style="stop-color:#696969"/>
	</radialGradient>
	<path fill="url(#SVGID_9_)" stroke="#696969" stroke-linejoin="bevel" stroke-miterlimit="10" d="M494.05,526.886
		c0-6,5.109-11.25,11.449-11.25c6.551,0,11.445,5.09,11.445,11.406c0.355,6.594-5.129,11.406-11.445,11.406
		c-6.199-0.313-11.449-5.109-11.449-11.406V526.886z"/>
	
		<linearGradient id="SVGID_10_" gradientUnits="userSpaceOnUse" x1="266.2275" y1="166.3066" x2="202.2275" y2="166.3066" gradientTransform="matrix(0.75 0 0 -0.75 -152.5343 457.0724)">
		<stop  offset="0" style="stop-color:#AFAFAF"/>
		<stop  offset="0.59" style="stop-color:#E5E5E5"/>
		<stop  offset="1" style="stop-color:#AFAFAF"/>
	</linearGradient>
	<path fill="url(#SVGID_10_)" stroke="#9B9B9B" stroke-linejoin="bevel" stroke-miterlimit="10" d="M-0.863,306.093h48v52.5h-48
		V306.093z"/>
	
		<linearGradient id="SVGID_11_" gradientUnits="userSpaceOnUse" x1="837.2231" y1="0.8066" x2="202.2241" y2="0.8066" gradientTransform="matrix(0.75 0 0 -0.75 -122.735 258.4044)">
		<stop  offset="0" style="stop-color:#AFAFAF"/>
		<stop  offset="0.59" style="stop-color:#E5E5E5"/>
		<stop  offset="1" style="stop-color:#AFAFAF"/>
	</linearGradient>
	<path fill="url(#SVGID_11_)" stroke="#9B9B9B" stroke-linejoin="bevel" stroke-miterlimit="10" d="M28.934,107.426v300.75h24v-61.5
		h288.75v-94.5h163.5v-144.75H28.934z"/>
	
		<linearGradient id="SVGID_12_" gradientUnits="userSpaceOnUse" x1="623.2271" y1="154.8071" x2="202.2271" y2="154.8071" gradientTransform="matrix(0.75 0 0 -0.75 36.911 255.7179)">
		<stop  offset="0" style="stop-color:#AFAFAF"/>
		<stop  offset="0.59" style="stop-color:#E5E5E5"/>
		<stop  offset="1" style="stop-color:#AFAFAF"/>
	</linearGradient>
	<path fill="url(#SVGID_12_)" stroke="#9B9B9B" stroke-linejoin="bevel" stroke-miterlimit="10" d="M251.582,104.738l-22.5,17.25
		h-40.5v29.25h40.5l22.5,23.25h252.75v-69.75H251.582z"/>
	
		<radialGradient id="SVGID_13_" cx="202.2256" cy="201.3042" r="302.589" gradientTransform="matrix(0.75 0 0 -0.75 -87.1613 468.3087)" gradientUnits="userSpaceOnUse">
		<stop  offset="0" style="stop-color:#AFAFAF"/>
		<stop  offset="1" style="stop-color:#7E7E7E"/>
	</radialGradient>
	<path fill="url(#SVGID_13_)" stroke="#9B9B9B" stroke-linejoin="bevel" stroke-miterlimit="10" d="M64.508,397.582
		c0-44.25,35.902-80.25,80.375-80.25c44.125,0,80.375,35.773,80.375,80.094c-0.25,44.406-36.105,80.098-80.375,80.098
		c-44.375,0.309-80.375-35.984-80.375-80.098V397.582z"/>
</g>
</svg>
