<?xml version="1.0" encoding="utf-8"?>
<!-- Generator: Adobe Illustrator 16.0.0, SVG Export Plug-In . SVG Version: 6.00 Build 0)  -->
<!DOCTYPE svg PUBLIC "-//W3C//DTD SVG 1.1//EN" "http://www.w3.org/Graphics/SVG/1.1/DTD/svg11.dtd">
<svg preserveAspectRatio="none" version="1.1" id="图层_1" xmlns="http://www.w3.org/2000/svg" xmlns:xlink="http://www.w3.org/1999/xlink" x="0px" y="0px"
	 width="283.871px" height="566.949px" viewBox="141.598 -0.145 283.871 566.949"
	 enable-background="new 141.598 -0.145 283.871 566.949" xml:space="preserve">
<g id="surface276">
	
		<linearGradient id="SVGID_1_" gradientUnits="userSpaceOnUse" x1="280.2246" y1="135.3037" x2="202.2246" y2="135.3037" gradientTransform="matrix(0.75 0 0 -0.75 -9.9459 618.6564)">
		<stop  offset="0" style="stop-color:#AFAFAF"/>
		<stop  offset="0.59" style="stop-color:#E5E5E5"/>
		<stop  offset="1" style="stop-color:#AFAFAF"/>
	</linearGradient>
	<path fill="url(#SVGID_1_)" stroke="#AFAFAF" stroke-width="0.25" stroke-linejoin="bevel" stroke-miterlimit="10" d="
		M141.723,467.679h58.5v99h-58.5V467.679z"/>
	
		<linearGradient id="SVGID_2_" gradientUnits="userSpaceOnUse" x1="280.2266" y1="135.3037" x2="202.2266" y2="135.3037" gradientTransform="matrix(0.75 0 0 -0.75 215.1727 618.6564)">
		<stop  offset="0" style="stop-color:#AFAFAF"/>
		<stop  offset="0.59" style="stop-color:#E5E5E5"/>
		<stop  offset="1" style="stop-color:#AFAFAF"/>
	</linearGradient>
	<path fill="url(#SVGID_2_)" stroke="#AFAFAF" stroke-width="0.25" stroke-linejoin="bevel" stroke-miterlimit="10" d="
		M366.843,467.679h58.5v99h-58.5V467.679z"/>
	
		<linearGradient id="SVGID_3_" gradientUnits="userSpaceOnUse" x1="250.2227" y1="168.8027" x2="202.2227" y2="168.8027" gradientTransform="matrix(0.75 0 0 -0.75 113.6488 342.5822)">
		<stop  offset="0" style="stop-color:#AFAFAF"/>
		<stop  offset="0.59" style="stop-color:#E5E5E5"/>
		<stop  offset="1" style="stop-color:#AFAFAF"/>
	</linearGradient>
	<path fill="url(#SVGID_3_)" stroke="#AFAFAF" stroke-width="0.25" stroke-linejoin="bevel" stroke-miterlimit="10" d="
		M265.316,191.605h36v48.75h-36V191.605z"/>
	
		<linearGradient id="SVGID_4_" gradientUnits="userSpaceOnUse" x1="239.2266" y1="196.8027" x2="202.2275" y2="196.8027" gradientTransform="matrix(0.75 0 0 -0.75 119.0438 390.9806)">
		<stop  offset="0" style="stop-color:#AFAFAF"/>
		<stop  offset="0.59" style="stop-color:#E5E5E5"/>
		<stop  offset="1" style="stop-color:#AFAFAF"/>
	</linearGradient>
	<path fill="url(#SVGID_4_)" stroke="#AFAFAF" stroke-width="0.25" stroke-linejoin="bevel" stroke-miterlimit="10" d="
		M270.715,240.004h27.75v6.75h-27.75V240.004z"/>
	
		<linearGradient id="SVGID_5_" gradientUnits="userSpaceOnUse" x1="550.228" y1="70.1211" x2="202.2246" y2="70.1211" gradientTransform="matrix(0.75 0 0 -0.75 1.35 476.3224)">
		<stop  offset="0" style="stop-color:#AFAFAF"/>
		<stop  offset="0.59" style="stop-color:#E5E5E5"/>
		<stop  offset="1" style="stop-color:#AFAFAF"/>
	</linearGradient>
	<path fill="url(#SVGID_5_)" stroke="#AFAFAF" stroke-width="0.25" stroke-linejoin="bevel" stroke-miterlimit="10" d="
		M153.02,325.343h261v150.75c0,0,1.07,46.027-47.191,46.027c-48.059-0.277-127.91,0-171.07,0
		c-43.488-0.277-42.738-43.48-42.738-43.48V325.343z"/>
	
		<linearGradient id="SVGID_6_" gradientUnits="userSpaceOnUse" x1="252.2236" y1="196.8008" x2="202.2236" y2="196.8008" gradientTransform="matrix(0.75 0 0 -0.75 113.9413 396.8077)">
		<stop  offset="0" style="stop-color:#AFAFAF"/>
		<stop  offset="0.59" style="stop-color:#E5E5E5"/>
		<stop  offset="1" style="stop-color:#AFAFAF"/>
	</linearGradient>
	<path fill="url(#SVGID_6_)" stroke="#AFAFAF" stroke-width="0.25" stroke-linejoin="bevel" stroke-miterlimit="10" d="
		M265.609,245.832h37.5v6.75h-37.5V245.832z"/>
	
		<linearGradient id="SVGID_7_" gradientUnits="userSpaceOnUse" x1="353.2222" y1="159.3032" x2="202.2222" y2="159.3032" gradientTransform="matrix(0.75 0 0 -0.75 8.7894 403.7228)">
		<stop  offset="0" style="stop-color:#AFAFAF"/>
		<stop  offset="0.59" style="stop-color:#E5E5E5"/>
		<stop  offset="1" style="stop-color:#AFAFAF"/>
	</linearGradient>
	<path fill="url(#SVGID_7_)" stroke="#AFAFAF" stroke-width="0.25" stroke-linejoin="bevel" stroke-miterlimit="10" d="
		M265.457,252.746l-105,63h10.5l102.75-63H265.457z"/>
	
		<linearGradient id="SVGID_8_" gradientUnits="userSpaceOnUse" x1="298.2271" y1="158.8032" x2="202.2271" y2="158.8032" gradientTransform="matrix(0.75 0 0 -0.75 58.2274 403.7228)">
		<stop  offset="0" style="stop-color:#AFAFAF"/>
		<stop  offset="0.59" style="stop-color:#E5E5E5"/>
		<stop  offset="1" style="stop-color:#AFAFAF"/>
	</linearGradient>
	<path fill="url(#SVGID_8_)" stroke="#AFAFAF" stroke-width="0.25" stroke-linejoin="bevel" stroke-miterlimit="10" d="
		M275.898,252.746l-66,63.75h8.25l63.75-63.75H275.898z"/>
	
		<linearGradient id="SVGID_9_" gradientUnits="userSpaceOnUse" x1="222.2275" y1="158.8032" x2="202.2275" y2="158.8032" gradientTransform="matrix(0.75 0 0 -0.75 121.7899 403.7228)">
		<stop  offset="0" style="stop-color:#AFAFAF"/>
		<stop  offset="0.59" style="stop-color:#E5E5E5"/>
		<stop  offset="1" style="stop-color:#AFAFAF"/>
	</linearGradient>
	<path fill="url(#SVGID_9_)" stroke="#AFAFAF" stroke-width="0.25" stroke-linejoin="bevel" stroke-miterlimit="10" d="
		M283.961,252.746l-10.5,63.75h7.5l7.5-63.75H283.961z"/>
	
		<linearGradient id="SVGID_10_" gradientUnits="userSpaceOnUse" x1="316.7046" y1="159.3032" x2="165.7046" y2="159.3032" gradientTransform="matrix(-0.75 0 0 -0.75 533.4816 403.7228)">
		<stop  offset="0" style="stop-color:#AFAFAF"/>
		<stop  offset="0.59" style="stop-color:#E5E5E5"/>
		<stop  offset="1" style="stop-color:#AFAFAF"/>
	</linearGradient>
	<path fill="url(#SVGID_10_)" stroke="#AFAFAF" stroke-width="0.25" stroke-linejoin="bevel" stroke-miterlimit="10" d="
		M304.203,252.746l105,63h-10.5l-102.75-63H304.203z"/>
	
		<linearGradient id="SVGID_11_" gradientUnits="userSpaceOnUse" x1="242.7021" y1="158.8032" x2="165.7021" y2="158.8032" gradientTransform="matrix(-0.75 0 0 -0.75 469.9318 403.7228)">
		<stop  offset="0" style="stop-color:#AFAFAF"/>
		<stop  offset="0.59" style="stop-color:#E5E5E5"/>
		<stop  offset="1" style="stop-color:#AFAFAF"/>
	</linearGradient>
	<path fill="url(#SVGID_11_)" stroke="#AFAFAF" stroke-width="0.25" stroke-linejoin="bevel" stroke-miterlimit="10" d="
		M293.156,252.746l52.5,63.75h-8.25l-49.5-63.75H293.156z"/>
	
		<linearGradient id="SVGID_12_" gradientUnits="userSpaceOnUse" x1="550.2271" y1="195.3071" x2="202.2275" y2="195.3071" gradientTransform="matrix(0.75 0 0 -0.75 1.3485 467.0372)">
		<stop  offset="0" style="stop-color:#AFAFAF"/>
		<stop  offset="0.59" style="stop-color:#E5E5E5"/>
		<stop  offset="1" style="stop-color:#AFAFAF"/>
	</linearGradient>
	<path fill="url(#SVGID_12_)" stroke="#AFAFAF" stroke-width="0.25" stroke-linejoin="bevel" stroke-miterlimit="10" d="
		M153.02,316.058h261v9h-261V316.058z"/>
	
		<linearGradient id="SVGID_13_" gradientUnits="userSpaceOnUse" x1="424.5249" y1="70.2441" x2="202.2231" y2="70.2441" gradientTransform="matrix(0.75 0 0 -0.75 48.4335 150.9601)">
		<stop  offset="0" style="stop-color:#AFAFAF"/>
		<stop  offset="0.59" style="stop-color:#E5E5E5"/>
		<stop  offset="1" style="stop-color:#AFAFAF"/>
	</linearGradient>
	<path fill="url(#SVGID_13_)" stroke="#AFAFAF" stroke-width="0.25" stroke-linejoin="bevel" stroke-miterlimit="10" d="
		M200.102,32.23c0,0,0-32.25,32.34-32.25c32.16,0,107.902,0,107.902,0c0.008,0,26.484,4.941,26.484,32.598
		c-0.227,27.402,0,133.344,0,133.344c-0.227-0.191-4.906,30.652-34.332,30.652c-23.645-0.094-100.054,0-100.054,0
		c-0.09-0.094-32.34-2.996-32.34-32.625c0-29.719,0-128.41,0-131.371V32.23z"/>
</g>
</svg>
