<?xml version="1.0" encoding="utf-8"?>
<!-- Generator: Adobe Illustrator 16.0.0, SVG Export Plug-In . SVG Version: 6.00 Build 0)  -->
<!DOCTYPE svg PUBLIC "-//W3C//DTD SVG 1.1//EN" "http://www.w3.org/Graphics/SVG/1.1/DTD/svg11.dtd">
<svg preserveAspectRatio="none" version="1.1" id="图层_1" xmlns="http://www.w3.org/2000/svg" xmlns:xlink="http://www.w3.org/1999/xlink" x="0px" y="0px"
	 width="451.321px" height="279.063px" viewBox="57.803 287.921 451.321 279.063"
	 enable-background="new 57.803 287.921 451.321 279.063" xml:space="preserve">
<g id="surface349">
	
		<linearGradient id="SVGID_1_" gradientUnits="userSpaceOnUse" x1="502.9399" y1="-151.6953" x2="502.9399" y2="201.3047" gradientTransform="matrix(0.75 0 0 -0.75 -93.7418 439.0236)">
		<stop  offset="0" style="stop-color:#236EA1"/>
		<stop  offset="0.72" style="stop-color:#83B3E3"/>
		<stop  offset="1" style="stop-color:#236EA1"/>
	</linearGradient>
	<path fill="url(#SVGID_1_)" stroke="#236EA1" stroke-width="0.25" stroke-linejoin="bevel" stroke-miterlimit="10" d="
		M204.176,552.796c90.75-6,99.382-94.652,111.91-123.301c20.84-47.699,129.887-110.32,153.285-111.922
		c0.305-0.277,39.629,0,39.629,0l-0.324-29.527H57.926l55.5,264.75H204.176z"/>
	
		<linearGradient id="SVGID_2_" gradientUnits="userSpaceOnUse" x1="803.2212" y1="189.8052" x2="202.2227" y2="189.8051" gradientTransform="matrix(0.75 0 0 -0.75 -93.7418 439.0236)">
		<stop  offset="0" style="stop-color:#236EA1"/>
		<stop  offset="0.59" style="stop-color:#83B3E3"/>
		<stop  offset="1" style="stop-color:#236EA1"/>
	</linearGradient>
	<path fill="url(#SVGID_2_)" stroke="#236EA1" stroke-width="0.25" stroke-linejoin="bevel" stroke-miterlimit="10" d="
		M57.926,288.046h450.75v17.25h-447L57.926,288.046z"/>
	
		<linearGradient id="SVGID_3_" gradientUnits="userSpaceOnUse" x1="506.2251" y1="190.6812" x2="202.2261" y2="190.6811" gradientTransform="matrix(0.75 0 0 -0.75 -63.7911 580.5245)">
		<stop  offset="0" style="stop-color:#236EA1"/>
		<stop  offset="0.59" style="stop-color:#83B3E3"/>
		<stop  offset="1" style="stop-color:#236EA1"/>
	</linearGradient>
	<path fill="url(#SVGID_3_)" stroke="#236EA1" stroke-width="0.25" stroke-linejoin="bevel" stroke-miterlimit="10" d="
		M87.879,429.546h228c0,0-2.211,7.145-4.633,15.938l-219.617-0.188L87.879,429.546z"/>
	
		<linearGradient id="SVGID_4_" gradientUnits="userSpaceOnUse" x1="762.2271" y1="191.8071" x2="202.2271" y2="191.8071" gradientTransform="matrix(0.75 0 0 -0.75 -63.0851 703.588)">
		<stop  offset="0" style="stop-color:#236EA1"/>
		<stop  offset="0.59" style="stop-color:#83B3E3"/>
		<stop  offset="1" style="stop-color:#236EA1"/>
	</linearGradient>
	<path fill="url(#SVGID_4_)" stroke="#236EA1" stroke-width="0.25" stroke-linejoin="bevel" stroke-miterlimit="10" d="
		M88.586,552.609h420v14.25h-420V552.609z"/>
</g>
</svg>
