<?xml version="1.0" encoding="utf-8"?>
<!-- Generator: Adobe Illustrator 16.0.0, SVG Export Plug-In . SVG Version: 6.00 Build 0)  -->
<!DOCTYPE svg PUBLIC "-//W3C//DTD SVG 1.1//EN" "http://www.w3.org/Graphics/SVG/1.1/DTD/svg11.dtd">
<svg preserveAspectRatio="none" version="1.1" id="图层_1" xmlns="http://www.w3.org/2000/svg" xmlns:xlink="http://www.w3.org/1999/xlink" x="0px" y="0px"
	 width="202.75px" height="567.691px" viewBox="182.262 -0.5 202.75 567.691" enable-background="new 182.262 -0.5 202.75 567.691"
	 xml:space="preserve">
<g id="surface26">
	
		<linearGradient id="SVGID_1_" gradientUnits="userSpaceOnUse" x1="437.3188" y1="172.8633" x2="202.2261" y2="172.8633" gradientTransform="matrix(0.75 0 0 -0.75 43.6346 304.4279)">
		<stop  offset="0" style="stop-color:#286C9A"/>
		<stop  offset="0.7" style="stop-color:#418CD4"/>
		<stop  offset="1" style="stop-color:#21638E"/>
	</linearGradient>
	<path fill="url(#SVGID_1_)" stroke="#246693" stroke-linejoin="bevel" stroke-miterlimit="10" d="M212.555,153.449
		c0,0-17.25,0.215-17.25,8.137c0,7.613,0,27.734,0,27.734c0,0.129,25.512,6.793,89.011,6.793
		c63.238,0.086,87.309-6.793,87.309-6.793l-0.07-27.621c0,0-1.934-7.699-13.82-8.035c-16.93-0.215-143.152,0-145.421,0
		L212.555,153.449z"/>
	
		<linearGradient id="SVGID_2_" gradientUnits="userSpaceOnUse" x1="215.2231" y1="127.1064" x2="202.2231" y2="127.1064" gradientTransform="matrix(0.75 0 0 -0.75 104.2933 539.2736)">
		<stop  offset="0" style="stop-color:#868686"/>
		<stop  offset="0.69" style="stop-color:#D7D7D7"/>
		<stop  offset="1" style="stop-color:#868686"/>
	</linearGradient>
	<path fill="url(#SVGID_2_)" stroke="#868686" stroke-linejoin="bevel" stroke-miterlimit="10" d="M255.961,388.296h9.75v107.25
		c0,0-0.109,4.566-4.645,3.996c-4.355-0.246-5.105-4.016-5.105-4.016V388.296z"/>
	
		<linearGradient id="SVGID_3_" gradientUnits="userSpaceOnUse" x1="215.2241" y1="127.1094" x2="202.2241" y2="127.1094" gradientTransform="matrix(0.75 0 0 -0.75 159.288 540.9943)">
		<stop  offset="0" style="stop-color:#868686"/>
		<stop  offset="0.69" style="stop-color:#D7D7D7"/>
		<stop  offset="1" style="stop-color:#868686"/>
	</linearGradient>
	<path fill="url(#SVGID_3_)" stroke="#868686" stroke-linejoin="bevel" stroke-miterlimit="10" d="M310.957,390.015h9.75v107.25
		c0,0-0.113,4.57-4.648,3.996c-4.352-0.246-5.102-4.016-5.102-4.016V390.015z"/>
	
		<linearGradient id="SVGID_4_" gradientUnits="userSpaceOnUse" x1="250.2261" y1="163.0396" x2="202.2271" y2="163.0396" gradientTransform="matrix(0.75 0 0 -0.75 118.7748 533.0148)">
		<stop  offset="0" style="stop-color:#AFAFAF"/>
		<stop  offset="0.67" style="stop-color:#E5E5E5"/>
		<stop  offset="1" style="stop-color:#AFAFAF"/>
	</linearGradient>
	<path fill="url(#SVGID_4_)" stroke="#868686" stroke-linejoin="bevel" stroke-miterlimit="10" d="M270.445,391.035v33
		c0,0,1.133,16.492,18.14,15.344c17.109-1.094,17.574-15.48,17.574-15.48l0.285-41.863L270.445,391.035z"/>
	
		<linearGradient id="SVGID_5_" gradientUnits="userSpaceOnUse" x1="266.2246" y1="201.3027" x2="266.2246" y2="177.3027" gradientTransform="matrix(0.75 0 0 -0.75 83.038 150.9777)">
		<stop  offset="0" style="stop-color:#7EB1E2"/>
		<stop  offset="1" style="stop-color:#2E88C4"/>
	</linearGradient>
	<path fill="url(#SVGID_5_)" stroke="#246693" stroke-linejoin="bevel" stroke-miterlimit="10" d="M248.207,0l-13.5,17.25l96,0.75
		l-12-18H248.207z"/>
	
		<linearGradient id="SVGID_6_" gradientUnits="userSpaceOnUse" x1="342.2261" y1="185.2476" x2="202.2271" y2="185.2475" gradientTransform="matrix(0.75 0 0 -0.75 79.3524 222.0831)">
		<stop  offset="0" style="stop-color:#286C9A"/>
		<stop  offset="0.7" style="stop-color:#418CD4"/>
		<stop  offset="1" style="stop-color:#21638E"/>
	</linearGradient>
	<path fill="url(#SVGID_6_)" stroke="#246693" stroke-linejoin="bevel" stroke-miterlimit="10" d="M231.023,71.105v18
		c0,0,9.07,6.086,51.023,6.086c41.976-0.086,53.859-5.734,53.859-5.734l0.117-16.852L231.023,71.105z"/>
	
		<linearGradient id="SVGID_7_" gradientUnits="userSpaceOnUse" x1="355.2231" y1="163.7446" x2="202.2231" y2="163.7446" gradientTransform="matrix(0.75 0 0 -0.75 74.2499 167.464)">
		<stop  offset="0" style="stop-color:#2F7EB3"/>
		<stop  offset="0.7" style="stop-color:#63A1DC"/>
		<stop  offset="1" style="stop-color:#2C82BB"/>
	</linearGradient>
	<path fill="url(#SVGID_7_)" stroke="#246693" stroke-linejoin="bevel" stroke-miterlimit="10" d="M237.168,16.488
		c-7.5,0-11.25,5.875-11.25,17.918c0,12.082,0,38.418,0,38.418l114.75-0.086v-43.5c0,0-0.074-12.75-10.148-12.75
		c-0.352,0-93.64,0-93.64,0H237.168z"/>
	
		<linearGradient id="SVGID_8_" gradientUnits="userSpaceOnUse" x1="444.1675" y1="78.2104" x2="202.2231" y2="78.2104" gradientTransform="matrix(0.75 0 0 -0.75 41.934 351.6779)">
		<stop  offset="0" style="stop-color:#AFAFAF"/>
		<stop  offset="0.59" style="stop-color:#E5E5E5"/>
		<stop  offset="1" style="stop-color:#AFAFAF"/>
	</linearGradient>
	<path fill="url(#SVGID_8_)" stroke="#868686" stroke-linejoin="bevel" stroke-miterlimit="10" d="M193.602,208.949
		c0,0,0,65.965,0,72.496c0,6.253,62.367,96.773,62.367,96.773c-0.117,0.23,7.371,7.125,30.046,7.125
		c22.336-0.145,35.152-7.125,35.152-7.125c-0.066,0.23,52.16-92.023,53.859-96.773c0.074,1.004,0-80.746,0-80.746L193.602,208.949z"
		/>
	
		<linearGradient id="SVGID_9_" gradientUnits="userSpaceOnUse" x1="400.2261" y1="158.8008" x2="202.2261" y2="158.8008" gradientTransform="matrix(0.75 0 0 -0.75 57.5248 240.4327)">
		<stop  offset="0" style="stop-color:#2F7EB3"/>
		<stop  offset="0.7" style="stop-color:#63A1DC"/>
		<stop  offset="1" style="stop-color:#2C82BB"/>
	</linearGradient>
	<path fill="url(#SVGID_9_)" stroke="#246693" stroke-linejoin="bevel" stroke-miterlimit="10" d="M230.945,89.457
		c-21.75,2.25-21.75,9.746-21.75,14.332c0,4.418,0,49.316,0,49.316l148.5,0.102v-49.5c0,0-0.527-11.383-20.371-14.25H230.945z"/>
	
		<linearGradient id="SVGID_10_" gradientUnits="userSpaceOnUse" x1="471.2261" y1="184.3042" x2="202.2271" y2="184.3042" gradientTransform="matrix(0.75 0 0 -0.75 31.0912 338.4894)">
		<stop  offset="0" style="stop-color:#2F7EB3"/>
		<stop  offset="0.7" style="stop-color:#63A1DC"/>
		<stop  offset="1" style="stop-color:#2C82BB"/>
	</linearGradient>
	<path fill="url(#SVGID_10_)" stroke="#246693" stroke-linejoin="bevel" stroke-miterlimit="10" d="M192.512,187.512
		c0,0-9.75,1.148-9.75,9.75c0,8.25,0,15.48,0,15.48l201.75,0.27v-15.75c0,0-1.281-9.559-13.074-9.75c0.324,0-179.039,0-179.039,0
		H192.512z"/>
	
		<linearGradient id="SVGID_11_" gradientUnits="userSpaceOnUse" x1="323.2212" y1="191.8018" x2="202.2222" y2="191.8017" gradientTransform="matrix(0.75 0 0 -0.75 91.2587 529.0773)">
		<stop  offset="0" style="stop-color:#AFAFAF"/>
		<stop  offset="0.56" style="stop-color:#E5E5E5"/>
		<stop  offset="1" style="stop-color:#AFAFAF"/>
	</linearGradient>
	<path fill="url(#SVGID_11_)" stroke="#868686" stroke-linejoin="bevel" stroke-miterlimit="10" d="M242.926,378.101h90.75v14.25
		h-90.75V378.101z"/>
	
		<linearGradient id="SVGID_12_" gradientUnits="userSpaceOnUse" x1="283.2236" y1="163.6035" x2="202.2236" y2="163.6035" gradientTransform="matrix(0.75 0 0 -0.75 106.1952 653.2374)">
		<stop  offset="0" style="stop-color:#868686"/>
		<stop  offset="0.69" style="stop-color:#D7D7D7"/>
		<stop  offset="1" style="stop-color:#868686"/>
	</linearGradient>
	<path fill="url(#SVGID_12_)" stroke="#868686" stroke-linejoin="bevel" stroke-miterlimit="10" d="M257.863,504.507l4.5,48
		c0,0,3.035,6.305,23.824,6.305c20.426-0.305,28.348-6.496,28.348-6.496l4.078-50.059L257.863,504.507z"/>
	
		<linearGradient id="SVGID_13_" gradientUnits="userSpaceOnUse" x1="323.2212" y1="191.8027" x2="202.2222" y2="191.8027" gradientTransform="matrix(0.75 0 0 -0.75 91.2587 645.0782)">
		<stop  offset="0" style="stop-color:#AFAFAF"/>
		<stop  offset="0.56" style="stop-color:#E5E5E5"/>
		<stop  offset="1" style="stop-color:#AFAFAF"/>
	</linearGradient>
	<path fill="url(#SVGID_13_)" stroke="#868686" stroke-linejoin="bevel" stroke-miterlimit="10" d="M242.926,494.101h90.75v14.25
		h-90.75V494.101z"/>
	
		<linearGradient id="SVGID_14_" gradientUnits="userSpaceOnUse" x1="323.2212" y1="191.8037" x2="202.2222" y2="191.8037" gradientTransform="matrix(0.75 0 0 -0.75 91.2587 703.4181)">
		<stop  offset="0" style="stop-color:#AFAFAF"/>
		<stop  offset="0.56" style="stop-color:#E5E5E5"/>
		<stop  offset="1" style="stop-color:#AFAFAF"/>
	</linearGradient>
	<path fill="url(#SVGID_14_)" stroke="#868686" stroke-linejoin="bevel" stroke-miterlimit="10" d="M242.926,552.441h90.75v14.25
		h-90.75V552.441z"/>
</g>
</svg>
