<?xml version="1.0" encoding="utf-8"?>
<!-- Generator: Adobe Illustrator 25.0.0, SVG Export Plug-In . SVG Version: 6.00 Build 0)  -->
<svg version="1.1" id="图层_1" xmlns="http://www.w3.org/2000/svg" xmlns:xlink="http://www.w3.org/1999/xlink" x="0px" y="0px"
	 viewBox="0 0 162 95" style="enable-background:new 0 0 162 95;" xml:space="preserve">
<style type="text/css">
	.st0{fill:url(#SVGID_1_);stroke:#000000;stroke-miterlimit:10;}
	.st1{fill:url(#SVGID_2_);stroke:#000000;stroke-miterlimit:10;}
	.st2{fill:url(#SVGID_3_);stroke:#000000;stroke-miterlimit:10;}
	.st3{fill:url(#SVGID_4_);stroke:#000000;stroke-miterlimit:10;}
	.st4{fill:url(#SVGID_5_);stroke:#000000;stroke-miterlimit:10;}
	.st5{fill:url(#SVGID_6_);stroke:#000000;stroke-miterlimit:10;}
	.st6{fill:url(#SVGID_7_);stroke:#000000;stroke-miterlimit:10;}
	.st7{fill:url(#SVGID_8_);stroke:#000000;stroke-miterlimit:10;}
	.st8{fill:url(#SVGID_9_);stroke:#000000;stroke-miterlimit:10;}
	.st9{fill:url(#SVGID_10_);stroke:#000000;stroke-miterlimit:10;}
	.st10{fill:url(#SVGID_11_);stroke:#000000;stroke-miterlimit:10;}
</style>
<linearGradient id="SVGID_1_" gradientUnits="userSpaceOnUse" x1="126.3813" y1="457.862" x2="190.8004" y2="457.862" gradientTransform="matrix(0 1 1 0 -300.6643 -119.3866)">
	<stop  offset="0" style="stop-color:#4C4C4C"/>
	<stop  offset="0.4949" style="stop-color:#B3B3B3"/>
	<stop  offset="1" style="stop-color:#444444"/>
</linearGradient>
<path class="st0" d="M152.7,66.9V11.5c0-2.4,1.9-4.5,4.5-4.5l0,0c2.4,0,4.5,1.9,4.5,4.5v55.5c0,2.4-1.9,4.5-4.5,4.5l0,0
	C154.8,71.4,152.7,69.4,152.7,66.9z"/>
<linearGradient id="SVGID_2_" gradientUnits="userSpaceOnUse" x1="136.8963" y1="319.9593" x2="180.2854" y2="319.9593" gradientTransform="matrix(0 1 1 0 -300.6643 -119.3866)">
	<stop  offset="0" style="stop-color:#4C4C4C"/>
	<stop  offset="0.4949" style="stop-color:#B3B3B3"/>
	<stop  offset="1" style="stop-color:#444444"/>
</linearGradient>
<path class="st1" d="M8.4,53.9V24.5c0-3.9,3.1-7,7-7h7.7c3.9,0,7,3.1,7,7v29.4c0,3.9-3.1,7-7,7h-7.7C11.6,60.9,8.4,57.8,8.4,53.9z"
	/>
<linearGradient id="SVGID_3_" gradientUnits="userSpaceOnUse" x1="125.4534" y1="320.0198" x2="144.1395" y2="320.0198" gradientTransform="matrix(0 1 1 0 -300.6643 -119.3866)">
	<stop  offset="0" style="stop-color:#4C4C4C"/>
	<stop  offset="0.4949" style="stop-color:#B3B3B3"/>
	<stop  offset="1" style="stop-color:#444444"/>
</linearGradient>
<polygon class="st2" points="12.2,24.8 12.2,6 26.5,6 26.5,24.8 "/>
<linearGradient id="SVGID_4_" gradientUnits="userSpaceOnUse" x1="190.7184" y1="362.7442" x2="205.7787" y2="362.7442" gradientTransform="matrix(0 1 1 0 -300.6643 -119.3866)">
	<stop  offset="0" style="stop-color:#4C4C4C"/>
	<stop  offset="0.4949" style="stop-color:#B3B3B3"/>
	<stop  offset="1" style="stop-color:#444444"/>
</linearGradient>
<polygon class="st3" points="55.7,86.4 55.7,71.3 68.5,71.3 68.5,86.4 "/>
<linearGradient id="SVGID_5_" gradientUnits="userSpaceOnUse" x1="205.2218" y1="362.6838" x2="213.8849" y2="362.6838" gradientTransform="matrix(0 1 1 0 -300.6643 -119.3866)">
	<stop  offset="0" style="stop-color:#4C4C4C"/>
	<stop  offset="0.4949" style="stop-color:#B3B3B3"/>
	<stop  offset="1" style="stop-color:#444444"/>
</linearGradient>
<path class="st4" d="M46,92v-3.5c0-1.5,1.2-2.5,2.5-2.5h27c1.5,0,2.5,1.2,2.5,2.5V92c0,1.5-1.2,2.5-2.5,2.5h-27
	C47.2,94.5,46,93.3,46,92z"/>
<linearGradient id="SVGID_6_" gradientUnits="userSpaceOnUse" x1="190.7184" y1="426.8007" x2="205.7787" y2="426.8007" gradientTransform="matrix(0 1 1 0 -300.6643 -119.3866)">
	<stop  offset="0" style="stop-color:#4C4C4C"/>
	<stop  offset="0.4949" style="stop-color:#B3B3B3"/>
	<stop  offset="1" style="stop-color:#444444"/>
</linearGradient>
<polygon class="st5" points="119.7,86.4 119.7,71.3 132.5,71.3 132.5,86.4 "/>
<linearGradient id="SVGID_7_" gradientUnits="userSpaceOnUse" x1="205.2218" y1="426.7402" x2="213.8849" y2="426.7402" gradientTransform="matrix(0 1 1 0 -300.6643 -119.3866)">
	<stop  offset="0" style="stop-color:#4C4C4C"/>
	<stop  offset="0.4949" style="stop-color:#B3B3B3"/>
	<stop  offset="1" style="stop-color:#444444"/>
</linearGradient>
<path class="st6" d="M110.1,92v-3.5c0-1.5,1.2-2.5,2.5-2.5h27c1.5,0,2.5,1.2,2.5,2.5V92c0,1.5-1.2,2.5-2.5,2.5h-27
	C111.3,94.5,110.1,93.3,110.1,92z"/>
<linearGradient id="SVGID_8_" gradientUnits="userSpaceOnUse" x1="136.8962" y1="303.7639" x2="182.2271" y2="303.7639" gradientTransform="matrix(0 1 1 0 -300.6643 -119.3866)">
	<stop  offset="0" style="stop-color:#4C4C4C"/>
	<stop  offset="0.4949" style="stop-color:#B3B3B3"/>
	<stop  offset="1" style="stop-color:#444444"/>
</linearGradient>
<path class="st7" d="M0.8,61.6v-43c0-0.6,0.5-1.1,1.1-1.1h2.4c0.6,0,1.1,0.5,1.1,1.1v43c0,0.6-0.5,1.1-1.1,1.1H1.9
	C1.3,62.8,0.8,62.3,0.8,61.6z"/>
<linearGradient id="SVGID_9_" gradientUnits="userSpaceOnUse" x1="174.0007" y1="320.0198" x2="192.6869" y2="320.0198" gradientTransform="matrix(0 1 1 0 -300.6643 -119.3866)">
	<stop  offset="0" style="stop-color:#4C4C4C"/>
	<stop  offset="0.4949" style="stop-color:#B3B3B3"/>
	<stop  offset="1" style="stop-color:#444444"/>
</linearGradient>
<polygon class="st8" points="12.2,73.2 12.2,54.6 26.5,54.6 26.5,73.2 "/>
<linearGradient id="SVGID_10_" gradientUnits="userSpaceOnUse" x1="120.2174" y1="393.2013" x2="196.36" y2="393.2013" gradientTransform="matrix(0 1 1 0 -300.6643 -119.3866)">
	<stop  offset="0" style="stop-color:#4C4C4C"/>
	<stop  offset="0.4949" style="stop-color:#F9974E"/>
	<stop  offset="1" style="stop-color:#444444"/>
</linearGradient>
<path class="st9" d="M35.6,66.8V11c0-5.6,4.6-10.2,10.2-10.2h93.5c5.6,0,10.2,4.6,10.2,10.2v55.8c0,5.6-4.6,10.2-10.2,10.2H45.8
	C40.2,77,35.6,72.4,35.6,66.8z"/>
<path d="M35.2,13.2V9.3c0-1.2,1-2.2,2.2-2.2h109.3c1.2,0,2.2,1,2.2,2.2v3.9c0,1.2-1,2.2-2.2,2.2H37.4C36.2,15.3,35.2,14.4,35.2,13.2
	z"/>
<rect x="35.2" y="20.9" width="113.6" height="5.6"/>
<rect x="35.3" y="37.5" width="113.6" height="5.6"/>
<rect x="35.3" y="48.5" width="113.6" height="2.8"/>
<rect x="35.3" y="54" width="113.6" height="2.8"/>
<rect x="35.3" y="63.8" width="113.6" height="1.8"/>
<rect x="36.5" y="67.9" width="112.4" height="1.5"/>
<rect x="37.7" y="72.1" width="110" height="1.1"/>
<linearGradient id="SVGID_11_" gradientUnits="userSpaceOnUse" x1="48.5434" y1="64.7552" x2="100.7554" y2="64.7552" gradientTransform="matrix(1 0 0 -1 0 90)">
	<stop  offset="0" style="stop-color:#4C4C4C"/>
	<stop  offset="0.4949" style="stop-color:#F9974E"/>
	<stop  offset="1" style="stop-color:#444444"/>
</linearGradient>
<ellipse class="st10" cx="74.6" cy="25.2" rx="26.1" ry="14.4"/>
</svg>
