<?xml version="1.0" encoding="utf-8"?>
<!-- Generator: Adobe Illustrator 25.0.0, SVG Export Plug-In . SVG Version: 6.00 Build 0)  -->
<svg version="1.1" id="图层_1" xmlns="http://www.w3.org/2000/svg" xmlns:xlink="http://www.w3.org/1999/xlink" x="0px" y="0px"
	 viewBox="0 0 162 95" style="enable-background:new 0 0 162 95;" xml:space="preserve">
<style type="text/css">
	.st0{fill:url(#SVGID_1_);stroke:#000000;stroke-miterlimit:10;}
	.st1{fill:url(#SVGID_2_);stroke:#000000;stroke-miterlimit:10;}
	.st2{fill:url(#SVGID_3_);stroke:#000000;stroke-miterlimit:10;}
	.st3{fill:url(#SVGID_4_);stroke:#000000;stroke-miterlimit:10;}
	.st4{fill:url(#SVGID_5_);stroke:#000000;stroke-miterlimit:10;}
	.st5{fill:url(#SVGID_6_);stroke:#000000;stroke-miterlimit:10;}
	.st6{fill:url(#SVGID_7_);stroke:#000000;stroke-miterlimit:10;}
	.st7{fill:url(#SVGID_8_);stroke:#000000;stroke-miterlimit:10;}
	.st8{fill:url(#SVGID_9_);stroke:#000000;stroke-miterlimit:10;}
	.st9{fill:url(#SVGID_10_);stroke:#000000;stroke-miterlimit:10;}
	.st10{fill:url(#SVGID_11_);stroke:#000000;stroke-miterlimit:10;}
</style>
<linearGradient id="SVGID_1_" gradientUnits="userSpaceOnUse" x1="127.0746" y1="457.9131" x2="191.4937" y2="457.9131" gradientTransform="matrix(0 1 1 0 -300.6643 -119.3866)">
	<stop  offset="0" style="stop-color:#4C4C4C"/>
	<stop  offset="0.4949" style="stop-color:#B3B3B3"/>
	<stop  offset="1" style="stop-color:#444444"/>
</linearGradient>
<path class="st0" d="M152.8,67.6V12.2c0-2.4,1.9-4.5,4.5-4.5l0,0c2.4,0,4.5,1.9,4.5,4.5v55.5c0,2.4-1.9,4.5-4.5,4.5l0,0
	C154.8,72.1,152.8,70.1,152.8,67.6z"/>
<linearGradient id="SVGID_2_" gradientUnits="userSpaceOnUse" x1="137.5896" y1="320.0104" x2="180.9787" y2="320.0104" gradientTransform="matrix(0 1 1 0 -300.6643 -119.3866)">
	<stop  offset="0" style="stop-color:#4C4C4C"/>
	<stop  offset="0.4949" style="stop-color:#B3B3B3"/>
	<stop  offset="1" style="stop-color:#444444"/>
</linearGradient>
<path class="st1" d="M8.5,54.6V25.2c0-3.9,3.1-7,7-7h7.7c3.9,0,7,3.1,7,7v29.4c0,3.9-3.1,7-7,7h-7.7C11.6,61.6,8.5,58.4,8.5,54.6z"
	/>
<linearGradient id="SVGID_3_" gradientUnits="userSpaceOnUse" x1="126.1467" y1="320.0709" x2="144.8328" y2="320.0709" gradientTransform="matrix(0 1 1 0 -300.6643 -119.3866)">
	<stop  offset="0" style="stop-color:#4C4C4C"/>
	<stop  offset="0.4949" style="stop-color:#B3B3B3"/>
	<stop  offset="1" style="stop-color:#444444"/>
</linearGradient>
<polygon class="st2" points="12.2,25.5 12.2,6.7 26.6,6.7 26.6,25.5 "/>
<linearGradient id="SVGID_4_" gradientUnits="userSpaceOnUse" x1="191.4117" y1="362.7953" x2="206.472" y2="362.7953" gradientTransform="matrix(0 1 1 0 -300.6643 -119.3866)">
	<stop  offset="0" style="stop-color:#4C4C4C"/>
	<stop  offset="0.4949" style="stop-color:#B3B3B3"/>
	<stop  offset="1" style="stop-color:#444444"/>
</linearGradient>
<polygon class="st3" points="55.7,87.1 55.7,72 68.5,72 68.5,87.1 "/>
<linearGradient id="SVGID_5_" gradientUnits="userSpaceOnUse" x1="205.9151" y1="362.7349" x2="214.5782" y2="362.7349" gradientTransform="matrix(0 1 1 0 -300.6643 -119.3866)">
	<stop  offset="0" style="stop-color:#4C4C4C"/>
	<stop  offset="0.4949" style="stop-color:#B3B3B3"/>
	<stop  offset="1" style="stop-color:#444444"/>
</linearGradient>
<path class="st4" d="M46.1,92.7v-3.5c0-1.5,1.2-2.5,2.5-2.5h27c1.5,0,2.5,1.2,2.5,2.5v3.5c0,1.5-1.2,2.5-2.5,2.5h-27
	C47.3,95.2,46.1,94,46.1,92.7z"/>
<linearGradient id="SVGID_6_" gradientUnits="userSpaceOnUse" x1="191.4117" y1="426.8518" x2="206.472" y2="426.8518" gradientTransform="matrix(0 1 1 0 -300.6643 -119.3866)">
	<stop  offset="0" style="stop-color:#4C4C4C"/>
	<stop  offset="0.4949" style="stop-color:#B3B3B3"/>
	<stop  offset="1" style="stop-color:#444444"/>
</linearGradient>
<polygon class="st5" points="119.8,87.1 119.8,72 132.6,72 132.6,87.1 "/>
<linearGradient id="SVGID_7_" gradientUnits="userSpaceOnUse" x1="205.9151" y1="426.7913" x2="214.5782" y2="426.7913" gradientTransform="matrix(0 1 1 0 -300.6643 -119.3866)">
	<stop  offset="0" style="stop-color:#4C4C4C"/>
	<stop  offset="0.4949" style="stop-color:#B3B3B3"/>
	<stop  offset="1" style="stop-color:#444444"/>
</linearGradient>
<path class="st6" d="M110.1,92.7v-3.5c0-1.5,1.2-2.5,2.5-2.5h27c1.5,0,2.5,1.2,2.5,2.5v3.5c0,1.5-1.2,2.5-2.5,2.5h-27
	C111.3,95.2,110.1,94,110.1,92.7z"/>
<linearGradient id="SVGID_8_" gradientUnits="userSpaceOnUse" x1="137.5895" y1="303.8151" x2="182.9204" y2="303.8151" gradientTransform="matrix(0 1 1 0 -300.6643 -119.3866)">
	<stop  offset="0" style="stop-color:#4C4C4C"/>
	<stop  offset="0.4949" style="stop-color:#B3B3B3"/>
	<stop  offset="1" style="stop-color:#444444"/>
</linearGradient>
<path class="st7" d="M0.9,62.3v-43c0-0.6,0.5-1.1,1.1-1.1h2.4c0.6,0,1.1,0.5,1.1,1.1v43c0,0.6-0.5,1.1-1.1,1.1H1.9
	C1.3,63.5,0.9,63,0.9,62.3z"/>
<linearGradient id="SVGID_9_" gradientUnits="userSpaceOnUse" x1="174.6939" y1="320.0709" x2="193.3802" y2="320.0709" gradientTransform="matrix(0 1 1 0 -300.6643 -119.3866)">
	<stop  offset="0" style="stop-color:#4C4C4C"/>
	<stop  offset="0.4949" style="stop-color:#B3B3B3"/>
	<stop  offset="1" style="stop-color:#444444"/>
</linearGradient>
<polygon class="st8" points="12.2,73.9 12.2,55.3 26.6,55.3 26.6,73.9 "/>
<linearGradient id="SVGID_10_" gradientUnits="userSpaceOnUse" x1="120.9107" y1="393.2524" x2="197.0533" y2="393.2524" gradientTransform="matrix(0 1 1 0 -300.6643 -119.3866)">
	<stop  offset="0" style="stop-color:#4C4C4C"/>
	<stop  offset="0.4949" style="stop-color:#F7194E"/>
	<stop  offset="1" style="stop-color:#444444"/>
</linearGradient>
<path class="st9" d="M35.7,67.5V11.7c0-5.6,4.6-10.2,10.2-10.2h93.5c5.6,0,10.2,4.6,10.2,10.2v55.8c0,5.6-4.6,10.2-10.2,10.2H45.8
	C40.3,77.7,35.7,73.1,35.7,67.5z"/>
<path d="M35.3,13.9V10c0-1.2,1-2.2,2.2-2.2h109.3c1.2,0,2.2,1,2.2,2.2v3.9c0,1.2-1,2.2-2.2,2.2H37.5C36.3,16,35.3,15.1,35.3,13.9z"
	/>
<rect x="35.3" y="21.6" width="113.6" height="5.6"/>
<rect x="35.3" y="38.2" width="113.6" height="5.6"/>
<rect x="35.3" y="49.2" width="113.6" height="2.8"/>
<rect x="35.3" y="54.7" width="113.6" height="2.8"/>
<rect x="35.3" y="64.5" width="113.6" height="1.8"/>
<rect x="36.5" y="68.6" width="112.4" height="1.5"/>
<rect x="37.7" y="72.8" width="110" height="1.1"/>
<linearGradient id="SVGID_11_" gradientUnits="userSpaceOnUse" x1="48.5946" y1="64.0619" x2="100.8065" y2="64.0619" gradientTransform="matrix(1 0 0 -1 0 90)">
	<stop  offset="0" style="stop-color:#4C4C4C"/>
	<stop  offset="0.4949" style="stop-color:#F7194E"/>
	<stop  offset="1" style="stop-color:#444444"/>
</linearGradient>
<ellipse class="st10" cx="74.7" cy="25.9" rx="26.1" ry="14.4"/>
</svg>
