<?xml version="1.0" encoding="utf-8"?>
<!-- Generator: Adobe Illustrator 25.0.0, SVG Export Plug-In . SVG Version: 6.00 Build 0)  -->
<svg version="1.1" id="图层_1" xmlns="http://www.w3.org/2000/svg" xmlns:xlink="http://www.w3.org/1999/xlink" x="0px" y="0px"
	 viewBox="0 0 139 106" style="enable-background:new 0 0 139 106;" xml:space="preserve">
<style type="text/css">
	.st0{fill:url(#SVGID_1_);stroke:#000000;stroke-miterlimit:10;}
	.st1{fill:url(#SVGID_2_);stroke:#000000;stroke-miterlimit:10;}
	.st2{fill:url(#SVGID_3_);stroke:#000000;stroke-miterlimit:10;}
	.st3{fill:url(#SVGID_4_);stroke:#000000;stroke-miterlimit:10;}
	.st4{fill:url(#SVGID_5_);stroke:#000000;stroke-miterlimit:10;}
	.st5{fill:url(#SVGID_6_);stroke:#000000;stroke-miterlimit:10;}
	.st6{fill:url(#SVGID_7_);stroke:#000000;stroke-miterlimit:10;}
	.st7{fill:url(#SVGID_8_);stroke:#000000;stroke-miterlimit:10;}
	.st8{fill:url(#SVGID_9_);stroke:#000000;stroke-miterlimit:10;}
	.st9{fill:#F9974E;stroke:#000000;stroke-miterlimit:10;}
	.st10{opacity:0.6;fill:#F9974E;stroke:#000000;stroke-miterlimit:10;}
</style>
<linearGradient id="SVGID_1_" gradientUnits="userSpaceOnUse" x1="14.9121" y1="77.9257" x2="124.9121" y2="77.9257">
	<stop  offset="0" style="stop-color:#4C4C4C"/>
	<stop  offset="0.4949" style="stop-color:#F9974E"/>
	<stop  offset="1" style="stop-color:#444444"/>
</linearGradient>
<rect x="14.9" y="71.7" class="st0" width="110" height="12.5"/>
<linearGradient id="SVGID_2_" gradientUnits="userSpaceOnUse" x1="0.4121" y1="12.1757" x2="138.4121" y2="12.1757">
	<stop  offset="0" style="stop-color:#5D6568"/>
	<stop  offset="0.4949" style="stop-color:#B3B3B3"/>
	<stop  offset="1" style="stop-color:#5D6568"/>
</linearGradient>
<path class="st1" d="M134.7,15.9H4.1c-2.1,0-3.7-1.7-3.7-3.7v0c0-2.1,1.7-3.7,3.7-3.7h130.5c2.1,0,3.7,1.7,3.7,3.7v0
	C138.4,14.2,136.7,15.9,134.7,15.9z"/>
<linearGradient id="SVGID_3_" gradientUnits="userSpaceOnUse" x1="6.4121" y1="74.6757" x2="18.4121" y2="74.6757">
	<stop  offset="0" style="stop-color:#4C4C4C"/>
	<stop  offset="0.4949" style="stop-color:#F9974E"/>
	<stop  offset="1" style="stop-color:#444444"/>
</linearGradient>
<rect x="6.4" y="49.7" class="st2" width="12" height="50"/>
<linearGradient id="SVGID_4_" gradientUnits="userSpaceOnUse" x1="122.4121" y1="74.6757" x2="134.4121" y2="74.6757">
	<stop  offset="0" style="stop-color:#4C4C4C"/>
	<stop  offset="0.4949" style="stop-color:#F9974E"/>
	<stop  offset="1" style="stop-color:#444444"/>
</linearGradient>
<rect x="122.4" y="49.7" class="st3" width="12" height="50"/>
<linearGradient id="SVGID_5_" gradientUnits="userSpaceOnUse" x1="65.4121" y1="35.0091" x2="73.4121" y2="35.0091">
	<stop  offset="0" style="stop-color:#5D6568"/>
	<stop  offset="0.4949" style="stop-color:#B3B3B3"/>
	<stop  offset="1" style="stop-color:#5D6568"/>
</linearGradient>
<rect x="65.4" y="18.3" class="st4" width="8" height="33.3"/>
<linearGradient id="SVGID_6_" gradientUnits="userSpaceOnUse" x1="28.4121" y1="78.6757" x2="112.4121" y2="78.6757">
	<stop  offset="0" style="stop-color:#4C4C4C"/>
	<stop  offset="0.4949" style="stop-color:#F9974E"/>
	<stop  offset="1" style="stop-color:#444444"/>
</linearGradient>
<path class="st5" d="M104.4,105.7h-68v-9.8c0,0-8,0.8-8-21.2s8-23,8-23h68c0,0,8,4,8,23.5s-8,20.9-8,20.9V105.7z"/>
<linearGradient id="SVGID_7_" gradientUnits="userSpaceOnUse" x1="49.4121" y1="32.6757" x2="89.4121" y2="32.6757">
	<stop  offset="0" style="stop-color:#5D6568"/>
	<stop  offset="0.4949" style="stop-color:#B3B3B3"/>
	<stop  offset="1" style="stop-color:#5D6568"/>
</linearGradient>
<ellipse class="st6" cx="69.4" cy="32.7" rx="20" ry="4"/>
<linearGradient id="SVGID_8_" gradientUnits="userSpaceOnUse" x1="32.4502" y1="35.5703" x2="65.4121" y2="35.5703">
	<stop  offset="0" style="stop-color:#5D6568"/>
	<stop  offset="0.4949" style="stop-color:#B3B3B3"/>
	<stop  offset="1" style="stop-color:#5D6568"/>
</linearGradient>
<path class="st7" d="M56,51.7c0,0-22.4-8.3-23.3-11.7c-0.9-3.4,0.3-14.9,11.6-20.4c-0.1-0.3,5.6,0,5.6,0S36.2,32.9,39.8,37.4
	s25.7,10.5,25.7,10.5v3.8H56z"/>
<linearGradient id="SVGID_9_" gradientUnits="userSpaceOnUse" x1="1073.3606" y1="35.5703" x2="1106.3225" y2="35.5703" gradientTransform="matrix(-1 0 0 1 1179.7346 0)">
	<stop  offset="0" style="stop-color:#5D6568"/>
	<stop  offset="0.4949" style="stop-color:#B3B3B3"/>
	<stop  offset="1" style="stop-color:#5D6568"/>
</linearGradient>
<path class="st8" d="M82.9,51.7c0,0,22.4-8.3,23.3-11.7c0.9-3.4-0.3-14.9-11.6-20.4c0.1-0.3-5.6,0-5.6,0s13.6,13.3,10.1,17.8
	S73.4,47.9,73.4,47.9v3.8H82.9z"/>
<ellipse class="st9" cx="69.4" cy="11.7" rx="37" ry="11"/>
<path class="st10" d="M32.4,11.7c0,1.5,1,2.9,2.8,4.2h68.3c1.8-1.3,2.8-2.7,2.8-4.2c0-1.1-0.6-2.2-1.6-3.2H34
	C33,9.5,32.4,10.6,32.4,11.7z"/>
</svg>
