<?xml version="1.0" encoding="utf-8"?>
<!-- Generator: Adobe Illustrator 25.0.0, SVG Export Plug-In . SVG Version: 6.00 Build 0)  -->
<svg version="1.1" id="图层_1" xmlns="http://www.w3.org/2000/svg" xmlns:xlink="http://www.w3.org/1999/xlink" x="0px" y="0px"
	 viewBox="0 0 139 106" style="enable-background:new 0 0 139 106;" xml:space="preserve">
<style type="text/css">
	.st0{fill:url(#SVGID_1_);stroke:#000000;stroke-miterlimit:10;}
	.st1{fill:url(#SVGID_2_);stroke:#000000;stroke-miterlimit:10;}
	.st2{fill:url(#SVGID_3_);stroke:#000000;stroke-miterlimit:10;}
	.st3{fill:url(#SVGID_4_);stroke:#000000;stroke-miterlimit:10;}
	.st4{fill:url(#SVGID_5_);stroke:#000000;stroke-miterlimit:10;}
	.st5{fill:url(#SVGID_6_);stroke:#000000;stroke-miterlimit:10;}
	.st6{fill:url(#SVGID_7_);stroke:#000000;stroke-miterlimit:10;}
	.st7{fill:url(#SVGID_8_);stroke:#000000;stroke-miterlimit:10;}
	.st8{fill:url(#SVGID_9_);stroke:#000000;stroke-miterlimit:10;}
	.st9{fill:#F7194E;stroke:#000000;stroke-miterlimit:10;}
	.st10{opacity:0.6;fill:#F7194E;stroke:#000000;stroke-miterlimit:10;}
</style>
<linearGradient id="SVGID_1_" gradientUnits="userSpaceOnUse" x1="15.4904" y1="77.4784" x2="125.4904" y2="77.4784">
	<stop  offset="0" style="stop-color:#4C4C4C"/>
	<stop  offset="0.4949" style="stop-color:#F7194E"/>
	<stop  offset="1" style="stop-color:#444444"/>
</linearGradient>
<rect x="15.5" y="71.2" class="st0" width="110" height="12.5"/>
<linearGradient id="SVGID_2_" gradientUnits="userSpaceOnUse" x1="0.9904" y1="11.7284" x2="138.9904" y2="11.7284">
	<stop  offset="0" style="stop-color:#5D6568"/>
	<stop  offset="0.4949" style="stop-color:#B3B3B3"/>
	<stop  offset="1" style="stop-color:#5D6568"/>
</linearGradient>
<path class="st1" d="M135.3,15.5H4.7c-2.1,0-3.7-1.7-3.7-3.7v0C1,9.7,2.7,8,4.7,8h130.5c2.1,0,3.7,1.7,3.7,3.7v0
	C139,13.8,137.3,15.5,135.3,15.5z"/>
<linearGradient id="SVGID_3_" gradientUnits="userSpaceOnUse" x1="6.9904" y1="74.2284" x2="18.9904" y2="74.2284">
	<stop  offset="0" style="stop-color:#4C4C4C"/>
	<stop  offset="0.4949" style="stop-color:#F7194E"/>
	<stop  offset="1" style="stop-color:#444444"/>
</linearGradient>
<rect x="7" y="49.2" class="st2" width="12" height="50"/>
<linearGradient id="SVGID_4_" gradientUnits="userSpaceOnUse" x1="122.9904" y1="74.2284" x2="134.9904" y2="74.2284">
	<stop  offset="0" style="stop-color:#4C4C4C"/>
	<stop  offset="0.4949" style="stop-color:#F7194E"/>
	<stop  offset="1" style="stop-color:#444444"/>
</linearGradient>
<rect x="123" y="49.2" class="st3" width="12" height="50"/>
<linearGradient id="SVGID_5_" gradientUnits="userSpaceOnUse" x1="65.9904" y1="34.5618" x2="73.9904" y2="34.5618">
	<stop  offset="0" style="stop-color:#5D6568"/>
	<stop  offset="0.4949" style="stop-color:#B3B3B3"/>
	<stop  offset="1" style="stop-color:#5D6568"/>
</linearGradient>
<rect x="66" y="17.9" class="st4" width="8" height="33.3"/>
<linearGradient id="SVGID_6_" gradientUnits="userSpaceOnUse" x1="28.9904" y1="78.2284" x2="112.9904" y2="78.2284">
	<stop  offset="0" style="stop-color:#4C4C4C"/>
	<stop  offset="0.4949" style="stop-color:#F7194E"/>
	<stop  offset="1" style="stop-color:#444444"/>
</linearGradient>
<path class="st5" d="M105,105.2H37v-9.8c0,0-8,0.8-8-21.2s8-23,8-23h68c0,0,8,4,8,23.5s-8,20.9-8,20.9V105.2z"/>
<linearGradient id="SVGID_7_" gradientUnits="userSpaceOnUse" x1="49.9904" y1="32.2284" x2="89.9904" y2="32.2284">
	<stop  offset="0" style="stop-color:#5D6568"/>
	<stop  offset="0.4949" style="stop-color:#B3B3B3"/>
	<stop  offset="1" style="stop-color:#5D6568"/>
</linearGradient>
<ellipse class="st6" cx="70" cy="32.2" rx="20" ry="4"/>
<linearGradient id="SVGID_8_" gradientUnits="userSpaceOnUse" x1="33.0285" y1="35.123" x2="65.9904" y2="35.123">
	<stop  offset="0" style="stop-color:#5D6568"/>
	<stop  offset="0.4949" style="stop-color:#B3B3B3"/>
	<stop  offset="1" style="stop-color:#5D6568"/>
</linearGradient>
<path class="st7" d="M56.5,51.2c0,0-22.4-8.3-23.3-11.7c-0.9-3.4,0.3-14.9,11.6-20.4c-0.1-0.3,5.6,0,5.6,0S36.8,32.4,40.3,36.9
	S66,47.5,66,47.5v3.8H56.5z"/>
<linearGradient id="SVGID_9_" gradientUnits="userSpaceOnUse" x1="1072.7823" y1="35.123" x2="1105.7443" y2="35.123" gradientTransform="matrix(-1 0 0 1 1179.7346 0)">
	<stop  offset="0" style="stop-color:#5D6568"/>
	<stop  offset="0.4949" style="stop-color:#B3B3B3"/>
	<stop  offset="1" style="stop-color:#5D6568"/>
</linearGradient>
<path class="st8" d="M83.5,51.2c0,0,22.4-8.3,23.3-11.7c0.9-3.4-0.3-14.9-11.6-20.4c0.1-0.3-5.6,0-5.6,0s13.6,13.3,10.1,17.8
	S74,47.5,74,47.5v3.8H83.5z"/>
<ellipse class="st9" cx="70" cy="11.2" rx="37" ry="11"/>
<path class="st10" d="M33,11.2c0,1.5,1,2.9,2.8,4.2h68.3c1.8-1.3,2.8-2.7,2.8-4.2c0-1.1-0.6-2.2-1.6-3.2H34.6
	C33.6,9,33,10.1,33,11.2z"/>
</svg>
