<?xml version="1.0" encoding="utf-8"?>
<!-- Generator: Adobe Illustrator 16.0.0, SVG Export Plug-In . SVG Version: 6.00 Build 0)  -->
<!DOCTYPE svg PUBLIC "-//W3C//DTD SVG 1.1//EN" "http://www.w3.org/Graphics/SVG/1.1/DTD/svg11.dtd">
<svg preserveAspectRatio="none"   version="1.1" id="图层_1" xmlns="http://www.w3.org/2000/svg" xmlns:xlink="http://www.w3.org/1999/xlink" x="0px" y="0px"
	 width="552.203px" height="435px" viewBox="7.316 132 552.203 435" enable-background="new 7.316 132 552.203 435"
	 xml:space="preserve">
<g id="surface116">
	<path fill="none" stroke="#CDCECE" stroke-linejoin="bevel" stroke-miterlimit="10" d="M18.637,161.805l529.5,0.008"/>
	<path fill="none" stroke="#CDCECE" stroke-linejoin="bevel" stroke-miterlimit="10" d="M43.574,133.703l-0.008,419.25"/>
	<path fill="none" stroke="#CDCECE" stroke-linejoin="bevel" stroke-miterlimit="10" d="M67.449,133.703l-0.008,419.25"/>
	<path fill="none" stroke="#CDCECE" stroke-linejoin="bevel" stroke-miterlimit="10" d="M91.324,133.703l-0.008,419.25"/>
	<path fill="none" stroke="#CDCECE" stroke-linejoin="bevel" stroke-miterlimit="10" d="M115.199,133.703l-0.004,419.25"/>
	<path fill="none" stroke="#CDCECE" stroke-linejoin="bevel" stroke-miterlimit="10" d="M139.078,133.703l-0.008,419.25"/>
	<path fill="none" stroke="#CDCECE" stroke-linejoin="bevel" stroke-miterlimit="10" d="M162.953,133.703l-0.008,419.25"/>
	<path fill="none" stroke="#CDCECE" stroke-linejoin="bevel" stroke-miterlimit="10" d="M186.828,133.703l-0.008,419.25"/>
	<path fill="none" stroke="#CDCECE" stroke-linejoin="bevel" stroke-miterlimit="10" d="M210.707,133.703l-0.008,419.25"/>
	<path fill="none" stroke="#CDCECE" stroke-linejoin="bevel" stroke-miterlimit="10" d="M234.582,133.703l-0.008,419.25"/>
	<path fill="none" stroke="#CDCECE" stroke-linejoin="bevel" stroke-miterlimit="10" d="M258.457,133.703l-0.008,419.25"/>
	<path fill="none" stroke="#CDCECE" stroke-linejoin="bevel" stroke-miterlimit="10" d="M282.332,133.703l-0.008,419.25"/>
	<path fill="none" stroke="#CDCECE" stroke-linejoin="bevel" stroke-miterlimit="10" d="M306.21,133.703l-0.008,419.25"/>
	<path fill="none" stroke="#CDCECE" stroke-linejoin="bevel" stroke-miterlimit="10" d="M330.085,133.703l-0.008,419.25"/>
	<path fill="none" stroke="#CDCECE" stroke-linejoin="bevel" stroke-miterlimit="10" d="M353.96,133.703l-0.008,419.25"/>
	<path fill="none" stroke="#CDCECE" stroke-linejoin="bevel" stroke-miterlimit="10" d="M377.835,133.703l-0.008,419.25"/>
	<path fill="none" stroke="#CDCECE" stroke-linejoin="bevel" stroke-miterlimit="10" d="M401.714,133.703l-0.008,419.25"/>
	<path fill="none" stroke="#CDCECE" stroke-linejoin="bevel" stroke-miterlimit="10" d="M425.589,133.703l-0.008,419.25"/>
	<path fill="none" stroke="#CDCECE" stroke-linejoin="bevel" stroke-miterlimit="10" d="M449.464,133.703l-0.008,419.25"/>
	<path fill="none" stroke="#CDCECE" stroke-linejoin="bevel" stroke-miterlimit="10" d="M473.339,133.703l-0.008,419.25"/>
	<path fill="none" stroke="#CDCECE" stroke-linejoin="bevel" stroke-miterlimit="10" d="M497.218,133.703l-0.008,419.25"/>
	<path fill="none" stroke="#CDCECE" stroke-linejoin="bevel" stroke-miterlimit="10" d="M521.093,133.703l-0.008,419.25"/>
	<path fill="none" stroke="#CDCECE" stroke-linejoin="bevel" stroke-miterlimit="10" d="M18.637,528.246l529.5,0.008"/>
	<path fill="none" stroke="#CDCECE" stroke-linejoin="bevel" stroke-miterlimit="10" d="M18.637,504.46l529.5,0.008"/>
	<path fill="none" stroke="#CDCECE" stroke-linejoin="bevel" stroke-miterlimit="10" d="M18.637,480.671l529.5,0.008"/>
	<path fill="none" stroke="#CDCECE" stroke-linejoin="bevel" stroke-miterlimit="10" d="M18.637,456.886l529.5,0.008"/>
	<path fill="none" stroke="#CDCECE" stroke-linejoin="bevel" stroke-miterlimit="10" d="M18.637,433.101l529.5,0.01"/>
	<path fill="none" stroke="#CDCECE" stroke-linejoin="bevel" stroke-miterlimit="10" d="M18.637,409.313l529.5,0.008"/>
	<path fill="none" stroke="#CDCECE" stroke-linejoin="bevel" stroke-miterlimit="10" d="M18.637,385.527l529.5,0.008"/>
	<path fill="none" stroke="#CDCECE" stroke-linejoin="bevel" stroke-miterlimit="10" d="M18.637,361.738l529.5,0.008"/>
	<path fill="none" stroke="#CDCECE" stroke-linejoin="bevel" stroke-miterlimit="10" d="M18.637,337.953l529.5,0.008"/>
	<path fill="none" stroke="#CDCECE" stroke-linejoin="bevel" stroke-miterlimit="10" d="M18.637,314.167l529.5,0.008"/>
	<path fill="none" stroke="#CDCECE" stroke-linejoin="bevel" stroke-miterlimit="10" d="M18.637,290.378l529.5,0.008"/>
	<path fill="none" stroke="#CDCECE" stroke-linejoin="bevel" stroke-miterlimit="10" d="M18.637,266.594l529.5,0.008"/>
	<path fill="none" stroke="#CDCECE" stroke-linejoin="bevel" stroke-miterlimit="10" d="M18.637,242.809l529.5,0.004"/>
	<path fill="none" stroke="#CDCECE" stroke-linejoin="bevel" stroke-miterlimit="10" d="M18.637,219.02l529.5,0.008"/>
	
		<linearGradient id="SVGID_1_" gradientUnits="userSpaceOnUse" x1="979.582" y1="-339.9224" x2="979.582" y2="-360.9233" gradientTransform="matrix(0.75 0 0 -0.75 -451.3716 -72.4199)">
		<stop  offset="0" style="stop-color:#979898"/>
		<stop  offset="0.15" style="stop-color:#D0D1D1"/>
		<stop  offset="0.25" style="stop-color:#E5E6E6"/>
		<stop  offset="0.52" style="stop-color:#B3B4B4"/>
		<stop  offset="0.69" style="stop-color:#9FA0A0"/>
		<stop  offset="0.8" style="stop-color:#969797"/>
		<stop  offset="0.92" style="stop-color:#8E8E8E"/>
		<stop  offset="1" style="stop-color:#A3A4A4"/>
	</linearGradient>
	<path fill="url(#SVGID_1_)" d="M7.316,182.523h552v15.75h-552V182.523L7.316,182.523z"/>
	
		<linearGradient id="SVGID_2_" gradientUnits="userSpaceOnUse" x1="979.584" y1="-339.9224" x2="979.584" y2="-360.9233" gradientTransform="matrix(0.75 0 0 -0.75 -451.3716 296.2715)">
		<stop  offset="0" style="stop-color:#979898"/>
		<stop  offset="0.15" style="stop-color:#D0D1D1"/>
		<stop  offset="0.25" style="stop-color:#E5E6E6"/>
		<stop  offset="0.52" style="stop-color:#B3B4B4"/>
		<stop  offset="0.69" style="stop-color:#9FA0A0"/>
		<stop  offset="0.8" style="stop-color:#969797"/>
		<stop  offset="0.92" style="stop-color:#8E8E8E"/>
		<stop  offset="1" style="stop-color:#A3A4A4"/>
	</linearGradient>
	<path fill="url(#SVGID_2_)" d="M7.316,551.214h552v15.75h-552V551.214L7.316,551.214z"/>
	
		<linearGradient id="SVGID_3_" gradientUnits="userSpaceOnUse" x1="103.2817" y1="309.5488" x2="103.2817" y2="288.5488" gradientTransform="matrix(0 -0.75 -0.75 0 239.4766 426.96)">
		<stop  offset="0" style="stop-color:#979898"/>
		<stop  offset="0.15" style="stop-color:#D0D1D1"/>
		<stop  offset="0.25" style="stop-color:#E5E6E6"/>
		<stop  offset="0.52" style="stop-color:#B3B4B4"/>
		<stop  offset="0.69" style="stop-color:#9FA0A0"/>
		<stop  offset="0.8" style="stop-color:#969797"/>
		<stop  offset="0.92" style="stop-color:#8E8E8E"/>
		<stop  offset="1" style="stop-color:#A3A4A4"/>
	</linearGradient>
	<path fill="url(#SVGID_3_)" d="M7.316,567V132h15.75v435H7.316z"/>
	
		<linearGradient id="SVGID_4_" gradientUnits="userSpaceOnUse" x1="103.2817" y1="309.5459" x2="103.2817" y2="288.5459" gradientTransform="matrix(0 -0.75 -0.75 0 775.9277 426.96)">
		<stop  offset="0" style="stop-color:#979898"/>
		<stop  offset="0.15" style="stop-color:#D0D1D1"/>
		<stop  offset="0.25" style="stop-color:#E5E6E6"/>
		<stop  offset="0.52" style="stop-color:#B3B4B4"/>
		<stop  offset="0.69" style="stop-color:#9FA0A0"/>
		<stop  offset="0.8" style="stop-color:#969797"/>
		<stop  offset="0.92" style="stop-color:#8E8E8E"/>
		<stop  offset="1" style="stop-color:#A3A4A4"/>
	</linearGradient>
	<path fill="url(#SVGID_4_)" d="M543.769,567V132h15.75v435H543.769z"/>
</g>
</svg>
