<?xml version="1.0" encoding="utf-8"?>
<!-- Generator: Adobe Illustrator 16.0.0, SVG Export Plug-In . SVG Version: 6.00 Build 0)  -->
<!DOCTYPE svg PUBLIC "-//W3C//DTD SVG 1.1//EN" "http://www.w3.org/Graphics/SVG/1.1/DTD/svg11.dtd">
<svg preserveAspectRatio="none"   version="1.1" id="图层_1" xmlns="http://www.w3.org/2000/svg" xmlns:xlink="http://www.w3.org/1999/xlink" x="0px" y="0px"
	 width="414.09px" height="212.761px" viewBox="0 0.891 414.09 212.761" enable-background="new 0 0.891 414.09 212.761"
	 xml:space="preserve">
<g id="surface1">
	
		<linearGradient id="SVGID_1_" gradientUnits="userSpaceOnUse" x1="494.0869" y1="-34.5728" x2="487.5732" y2="-34.5728" gradientTransform="matrix(0.5303 0.5303 0.5303 -0.5303 154.1896 -85.7292)">
		<stop  offset="0" style="stop-color:#A8A8AD"/>
		<stop  offset="0.03" style="stop-color:#F1F2F6"/>
		<stop  offset="0.08" style="stop-color:#DADBE1"/>
		<stop  offset="0.64" style="stop-color:#D7D8DD"/>
		<stop  offset="0.95" style="stop-color:#D2D3D8"/>
		<stop  offset="1" style="stop-color:#9C9CA0"/>
	</linearGradient>
	<path fill="url(#SVGID_1_)" d="M408.766,179l1.594,1.594c0.531,0.527,0.313,1.254-0.301,1.867l-24.625,24.117
		c-0.531,0.531-1.211,0.871-1.734,0.348l-1.449-1.406c-0.527-0.531-0.543-1.617,0.07-2.23L406.645,179
		c0.531-0.527,1.469-0.652,1.992-0.129L408.766,179z"/>
	
		<linearGradient id="SVGID_2_" gradientUnits="userSpaceOnUse" x1="494.0869" y1="-34.5703" x2="487.5752" y2="-34.5703" gradientTransform="matrix(0.5303 0.5303 0.5303 -0.5303 125.9113 -87.0363)">
		<stop  offset="0" style="stop-color:#A8A8AD"/>
		<stop  offset="0.03" style="stop-color:#F1F2F6"/>
		<stop  offset="0.08" style="stop-color:#DADBE1"/>
		<stop  offset="0.64" style="stop-color:#D7D8DD"/>
		<stop  offset="0.95" style="stop-color:#D2D3D8"/>
		<stop  offset="1" style="stop-color:#9C9CA0"/>
	</linearGradient>
	<path fill="url(#SVGID_2_)" d="M380.488,177.695l1.594,1.59c0.527,0.531,0.313,1.254-0.301,1.867l-24.625,24.117
		c-0.531,0.531-1.211,0.871-1.734,0.352l-1.449-1.41c-0.531-0.531-0.543-1.613,0.07-2.227l24.324-24.289
		c0.531-0.531,1.469-0.656,1.992-0.133L380.488,177.695z"/>
	
		<linearGradient id="SVGID_3_" gradientUnits="userSpaceOnUse" x1="231.1943" y1="-229.6147" x2="224.6787" y2="-229.6147" gradientTransform="matrix(0.75 0 0 -0.75 210.877 18.3281)">
		<stop  offset="0" style="stop-color:#C7C7C7"/>
		<stop  offset="0.15" style="stop-color:#FFFFFF"/>
		<stop  offset="0.25" style="stop-color:#FFFFFF"/>
		<stop  offset="0.52" style="stop-color:#DFDFDF"/>
		<stop  offset="0.69" style="stop-color:#C7C7C7"/>
		<stop  offset="0.8" style="stop-color:#BCBCBC"/>
		<stop  offset="0.92" style="stop-color:#B1B1B1"/>
	</linearGradient>
	<path fill="url(#SVGID_3_)" d="M380.914,174.414h2.25c0.75,0,1.109,0.566,1.109,1.305l-0.359,29.445c0,0.75-0.242,1.176-0.98,1.176
		l-2.02,0.324c-0.75,0-1.527-0.945-1.527-1.684l0.027-29.066c0-0.75,0.574-1.5,1.313-1.5H380.914z"/>
	
		<linearGradient id="SVGID_4_" gradientUnits="userSpaceOnUse" x1="231.1934" y1="-229.6147" x2="224.6777" y2="-229.6147" gradientTransform="matrix(0.75 0 0 -0.75 240.3311 18.3281)">
		<stop  offset="0" style="stop-color:#A8A8AD"/>
		<stop  offset="0.03" style="stop-color:#F1F2F6"/>
		<stop  offset="0.08" style="stop-color:#DADBE1"/>
		<stop  offset="0.64" style="stop-color:#D7D8DD"/>
		<stop  offset="0.95" style="stop-color:#D2D3D8"/>
		<stop  offset="1" style="stop-color:#9C9CA0"/>
	</linearGradient>
	<path fill="url(#SVGID_4_)" d="M410.367,174.414h2.25c0.75,0,1.109,0.566,1.109,1.305l-0.359,29.445c0,0.75-0.242,1.176-0.98,1.176
		l-2.02,0.324c-0.75,0-1.527-0.945-1.527-1.684l0.027-29.066c0-0.75,0.574-1.5,1.313-1.5H410.367z"/>
	
		<linearGradient id="SVGID_5_" gradientUnits="userSpaceOnUse" x1="494.0869" y1="-31.0693" x2="487.5752" y2="-31.0693" gradientTransform="matrix(0.5303 0.5303 0.5303 -0.5303 52.4679 -119.9054)">
		<stop  offset="0" style="stop-color:#A8A8AD"/>
		<stop  offset="0.03" style="stop-color:#F1F2F6"/>
		<stop  offset="0.08" style="stop-color:#DADBE1"/>
		<stop  offset="0.64" style="stop-color:#D7D8DD"/>
		<stop  offset="0.95" style="stop-color:#D2D3D8"/>
		<stop  offset="1" style="stop-color:#9C9CA0"/>
	</linearGradient>
	<path fill="url(#SVGID_5_)" d="M307.047,144.824l1.59,1.59c0.531,0.531,0.383,1.188-0.141,1.711l-21.074,20.566
		c-0.527,0.527-1.004,0.664-1.527,0.141l-1.652-1.203c-0.531-0.531-0.414-1.742,0.109-2.266l20.574-20.539
		c0.527-0.531,1.465-0.652,1.988-0.129L307.047,144.824z"/>
	
		<linearGradient id="SVGID_6_" gradientUnits="userSpaceOnUse" x1="494.0879" y1="-31.0708" x2="487.5771" y2="-31.0708" gradientTransform="matrix(0.5303 0.5303 0.5303 -0.5303 25.6828 -134.4416)">
		<stop  offset="0" style="stop-color:#A8A8AD"/>
		<stop  offset="0.03" style="stop-color:#F1F2F6"/>
		<stop  offset="0.08" style="stop-color:#DADBE1"/>
		<stop  offset="0.64" style="stop-color:#D7D8DD"/>
		<stop  offset="0.95" style="stop-color:#D2D3D8"/>
		<stop  offset="1" style="stop-color:#9C9CA0"/>
	</linearGradient>
	<path fill="url(#SVGID_6_)" d="M280.262,130.289l1.59,1.59c0.531,0.531,0.383,1.188-0.141,1.711l-21.074,20.563
		c-0.527,0.531-1.004,0.668-1.527,0.145l-1.652-1.203c-0.531-0.531-0.414-1.746,0.109-2.266l20.574-20.539
		c0.527-0.531,1.465-0.656,1.988-0.133L280.262,130.289z"/>
	
		<linearGradient id="SVGID_7_" gradientUnits="userSpaceOnUse" x1="494.0859" y1="-31.0708" x2="487.5742" y2="-31.0708" gradientTransform="matrix(0.5303 0.5303 0.5303 -0.5303 3.3302 -148.9777)">
		<stop  offset="0" style="stop-color:#A8A8AD"/>
		<stop  offset="0.03" style="stop-color:#F1F2F6"/>
		<stop  offset="0.08" style="stop-color:#DADBE1"/>
		<stop  offset="0.64" style="stop-color:#D7D8DD"/>
		<stop  offset="0.95" style="stop-color:#D2D3D8"/>
		<stop  offset="1" style="stop-color:#9C9CA0"/>
	</linearGradient>
	<path fill="url(#SVGID_7_)" d="M257.91,115.754l1.59,1.59c0.531,0.531,0.383,1.188-0.141,1.707l-21.074,20.566
		c-0.527,0.531-1.004,0.664-1.527,0.141l-1.652-1.199c-0.531-0.531-0.414-1.746,0.109-2.27l20.574-20.535
		c0.527-0.531,1.465-0.656,1.988-0.133L257.91,115.754z"/>
	
		<linearGradient id="SVGID_8_" gradientUnits="userSpaceOnUse" x1="494.0869" y1="-31.0718" x2="487.5752" y2="-31.0718" gradientTransform="matrix(0.5303 0.5303 0.5303 -0.5303 -23.1756 -163.1603)">
		<stop  offset="0" style="stop-color:#A8A8AD"/>
		<stop  offset="0.03" style="stop-color:#F1F2F6"/>
		<stop  offset="0.08" style="stop-color:#DADBE1"/>
		<stop  offset="0.64" style="stop-color:#D7D8DD"/>
		<stop  offset="0.95" style="stop-color:#D2D3D8"/>
		<stop  offset="1" style="stop-color:#9C9CA0"/>
	</linearGradient>
	<path fill="url(#SVGID_8_)" d="M231.402,101.57l1.59,1.59c0.531,0.531,0.383,1.188-0.141,1.711l-21.07,20.563
		c-0.531,0.531-1.008,0.668-1.527,0.145l-1.656-1.203c-0.531-0.531-0.414-1.746,0.109-2.266l20.574-20.539
		c0.531-0.531,1.465-0.656,1.988-0.133L231.402,101.57z"/>
	
		<linearGradient id="SVGID_9_" gradientUnits="userSpaceOnUse" x1="494.0869" y1="-31.0718" x2="487.5732" y2="-31.0718" gradientTransform="matrix(0.5303 0.5303 0.5303 -0.5303 -49.9256 -175.9655)">
		<stop  offset="0" style="stop-color:#A8A8AD"/>
		<stop  offset="0.03" style="stop-color:#F1F2F6"/>
		<stop  offset="0.08" style="stop-color:#DADBE1"/>
		<stop  offset="0.64" style="stop-color:#D7D8DD"/>
		<stop  offset="0.95" style="stop-color:#D2D3D8"/>
		<stop  offset="1" style="stop-color:#9C9CA0"/>
	</linearGradient>
	<path fill="url(#SVGID_9_)" d="M204.652,88.766l1.59,1.59c0.531,0.531,0.383,1.188-0.141,1.711l-21.07,20.563
		c-0.531,0.531-1.008,0.664-1.527,0.145l-1.656-1.203c-0.531-0.531-0.41-1.746,0.109-2.27l20.574-20.535
		c0.531-0.531,1.469-0.656,1.988-0.133L204.652,88.766z"/>
	
		<linearGradient id="SVGID_10_" gradientUnits="userSpaceOnUse" x1="494.0879" y1="-31.0698" x2="487.5732" y2="-31.0698" gradientTransform="matrix(0.5303 0.5303 0.5303 -0.5303 -72.241 -191.7326)">
		<stop  offset="0" style="stop-color:#A8A8AD"/>
		<stop  offset="0.03" style="stop-color:#F1F2F6"/>
		<stop  offset="0.08" style="stop-color:#DADBE1"/>
		<stop  offset="0.64" style="stop-color:#D7D8DD"/>
		<stop  offset="0.95" style="stop-color:#D2D3D8"/>
		<stop  offset="1" style="stop-color:#9C9CA0"/>
	</linearGradient>
	<path fill="url(#SVGID_10_)" d="M182.336,72.996l1.59,1.594c0.531,0.531,0.383,1.184-0.137,1.707l-21.074,20.566
		c-0.531,0.531-1.004,0.664-1.527,0.141l-1.656-1.203c-0.527-0.527-0.41-1.742,0.109-2.266l20.574-20.539
		c0.531-0.527,1.469-0.652,1.992-0.129L182.336,72.996z"/>
	
		<linearGradient id="SVGID_11_" gradientUnits="userSpaceOnUse" x1="494.0869" y1="-31.0693" x2="487.5752" y2="-31.0693" gradientTransform="matrix(0.5303 0.5303 0.5303 -0.5303 -98.2547 -205.4792)">
		<stop  offset="0" style="stop-color:#A8A8AD"/>
		<stop  offset="0.03" style="stop-color:#F1F2F6"/>
		<stop  offset="0.08" style="stop-color:#DADBE1"/>
		<stop  offset="0.64" style="stop-color:#D7D8DD"/>
		<stop  offset="0.95" style="stop-color:#D2D3D8"/>
		<stop  offset="1" style="stop-color:#9C9CA0"/>
	</linearGradient>
	<path fill="url(#SVGID_11_)" d="M156.324,59.25l1.59,1.594c0.531,0.527,0.383,1.184-0.141,1.707l-21.074,20.566
		c-0.527,0.527-1.004,0.664-1.527,0.141l-1.652-1.203c-0.531-0.531-0.414-1.742,0.109-2.266l20.574-20.539
		c0.527-0.527,1.465-0.652,1.988-0.129L156.324,59.25z"/>
	
		<linearGradient id="SVGID_12_" gradientUnits="userSpaceOnUse" x1="494.0869" y1="-31.0679" x2="487.5752" y2="-31.0679" gradientTransform="matrix(0.5303 0.5303 0.5303 -0.5303 -123.0838 -220.0836)">
		<stop  offset="0" style="stop-color:#A8A8AD"/>
		<stop  offset="0.03" style="stop-color:#F1F2F6"/>
		<stop  offset="0.08" style="stop-color:#DADBE1"/>
		<stop  offset="0.64" style="stop-color:#D7D8DD"/>
		<stop  offset="0.95" style="stop-color:#D2D3D8"/>
		<stop  offset="1" style="stop-color:#9C9CA0"/>
	</linearGradient>
	<path fill="url(#SVGID_12_)" d="M131.496,44.645l1.59,1.594c0.531,0.531,0.383,1.184-0.141,1.707l-21.074,20.566
		c-0.527,0.531-1.004,0.664-1.527,0.141l-1.652-1.203c-0.531-0.527-0.414-1.742,0.109-2.266l20.574-20.539
		c0.527-0.527,1.465-0.652,1.988-0.129L131.496,44.645z"/>
	
		<linearGradient id="SVGID_13_" gradientUnits="userSpaceOnUse" x1="494.084" y1="-31.0708" x2="487.5732" y2="-31.0708" gradientTransform="matrix(0.5303 0.5303 0.5303 -0.5303 -147.8992 -233.817)">
		<stop  offset="0" style="stop-color:#A8A8AD"/>
		<stop  offset="0.03" style="stop-color:#F1F2F6"/>
		<stop  offset="0.08" style="stop-color:#DADBE1"/>
		<stop  offset="0.64" style="stop-color:#D7D8DD"/>
		<stop  offset="0.95" style="stop-color:#D2D3D8"/>
		<stop  offset="1" style="stop-color:#9C9CA0"/>
	</linearGradient>
	<path fill="url(#SVGID_13_)" d="M106.68,30.914l1.59,1.59c0.531,0.531,0.383,1.188-0.141,1.707L87.055,54.777
		c-0.527,0.531-1.004,0.664-1.527,0.145l-1.652-1.203c-0.531-0.531-0.414-1.746,0.109-2.27l20.574-20.535
		c0.527-0.531,1.465-0.656,1.988-0.133L106.68,30.914z"/>
	
		<linearGradient id="SVGID_14_" gradientUnits="userSpaceOnUse" x1="494.0859" y1="-31.0703" x2="487.5752" y2="-31.0703" gradientTransform="matrix(0.5303 0.5303 0.5303 -0.5303 -169.9139 -248.382)">
		<stop  offset="0" style="stop-color:#A8A8AD"/>
		<stop  offset="0.03" style="stop-color:#F1F2F6"/>
		<stop  offset="0.08" style="stop-color:#DADBE1"/>
		<stop  offset="0.64" style="stop-color:#D7D8DD"/>
		<stop  offset="0.95" style="stop-color:#D2D3D8"/>
		<stop  offset="1" style="stop-color:#9C9CA0"/>
	</linearGradient>
	<path fill="url(#SVGID_14_)" d="M84.664,16.348l1.59,1.59c0.531,0.531,0.383,1.188-0.141,1.711l-21.07,20.566
		c-0.531,0.527-1.008,0.664-1.527,0.141l-1.656-1.203c-0.531-0.531-0.41-1.742,0.109-2.266l20.574-20.539
		c0.531-0.531,1.469-0.652,1.988-0.129L84.664,16.348z"/>
	
		<linearGradient id="SVGID_15_" gradientUnits="userSpaceOnUse" x1="494.0869" y1="-34.5703" x2="487.5752" y2="-34.5703" gradientTransform="matrix(0.5303 0.5303 0.5303 -0.5303 -194.4432 -257.2013)">
		<stop  offset="0" style="stop-color:#A8A8AD"/>
		<stop  offset="0.03" style="stop-color:#F1F2F6"/>
		<stop  offset="0.08" style="stop-color:#DADBE1"/>
		<stop  offset="0.64" style="stop-color:#D7D8DD"/>
		<stop  offset="0.95" style="stop-color:#D2D3D8"/>
		<stop  offset="1" style="stop-color:#9C9CA0"/>
	</linearGradient>
	<path fill="url(#SVGID_15_)" d="M60.137,7.527l1.59,1.594c0.531,0.527,0.313,1.254-0.301,1.867L36.801,35.105
		c-0.531,0.531-1.211,0.871-1.734,0.348l-1.449-1.406c-0.527-0.531-0.543-1.613,0.07-2.227L58.012,7.527
		C58.543,7,59.48,6.875,60.004,7.398L60.137,7.527z"/>
	
		<linearGradient id="SVGID_16_" gradientUnits="userSpaceOnUse" x1="494.0898" y1="-34.5703" x2="487.5752" y2="-34.5703" gradientTransform="matrix(0.5303 0.5303 0.5303 -0.5303 -223.9363 -258.2936)">
		<stop  offset="0" style="stop-color:#A8A8AD"/>
		<stop  offset="0.03" style="stop-color:#F1F2F6"/>
		<stop  offset="0.08" style="stop-color:#DADBE1"/>
		<stop  offset="0.64" style="stop-color:#D7D8DD"/>
		<stop  offset="0.95" style="stop-color:#D2D3D8"/>
		<stop  offset="1" style="stop-color:#9C9CA0"/>
	</linearGradient>
	<path fill="url(#SVGID_16_)" d="M30.641,6.438l1.594,1.59c0.527,0.531,0.313,1.258-0.301,1.871L7.309,34.016
		c-0.531,0.527-1.211,0.871-1.734,0.348l-1.449-1.41c-0.531-0.531-0.543-1.613,0.07-2.227L28.52,6.438
		c0.531-0.531,1.469-0.656,1.992-0.133L30.641,6.438z"/>
	
		<linearGradient id="SVGID_17_" gradientUnits="userSpaceOnUse" x1="494.0889" y1="-31.0703" x2="487.5742" y2="-31.0703" gradientTransform="matrix(0.5303 0.5303 0.5303 -0.5303 75.2892 -106.0456)">
		<stop  offset="0" style="stop-color:#A8A8AD"/>
		<stop  offset="0.03" style="stop-color:#F1F2F6"/>
		<stop  offset="0.08" style="stop-color:#DADBE1"/>
		<stop  offset="0.64" style="stop-color:#D7D8DD"/>
		<stop  offset="0.95" style="stop-color:#D2D3D8"/>
		<stop  offset="1" style="stop-color:#9C9CA0"/>
	</linearGradient>
	<path fill="url(#SVGID_17_)" d="M329.867,158.684l1.59,1.594c0.531,0.527,0.383,1.184-0.137,1.707l-21.074,20.566
		c-0.531,0.531-1.004,0.664-1.527,0.141l-1.656-1.203c-0.531-0.531-0.41-1.742,0.109-2.266l20.574-20.539
		c0.531-0.527,1.469-0.652,1.988-0.129L329.867,158.684z"/>
	
		<linearGradient id="SVGID_18_" gradientUnits="userSpaceOnUse" x1="494.0859" y1="-31.0718" x2="487.5752" y2="-31.0718" gradientTransform="matrix(0.5303 0.5303 0.5303 -0.5303 100.0392 -91.7184)">
		<stop  offset="0" style="stop-color:#A8A8AD"/>
		<stop  offset="0.03" style="stop-color:#F1F2F6"/>
		<stop  offset="0.08" style="stop-color:#DADBE1"/>
		<stop  offset="0.64" style="stop-color:#D7D8DD"/>
		<stop  offset="0.95" style="stop-color:#D2D3D8"/>
		<stop  offset="1" style="stop-color:#9C9CA0"/>
	</linearGradient>
	<path fill="url(#SVGID_18_)" d="M354.617,173.012l1.59,1.59c0.531,0.531,0.383,1.188-0.141,1.711l-21.07,20.563
		c-0.531,0.531-1.008,0.668-1.531,0.145l-1.652-1.203c-0.531-0.531-0.414-1.746,0.109-2.266l20.574-20.539
		c0.531-0.531,1.465-0.652,1.988-0.133L354.617,173.012z"/>
	
		<linearGradient id="SVGID_19_" gradientUnits="userSpaceOnUse" x1="231.1934" y1="-229.6128" x2="224.6777" y2="-229.6128" gradientTransform="matrix(0.75 0 0 -0.75 -138.1064 -150.9883)">
		<stop  offset="0" style="stop-color:#C7C7C7"/>
		<stop  offset="0.15" style="stop-color:#FFFFFF"/>
		<stop  offset="0.25" style="stop-color:#FFFFFF"/>
		<stop  offset="0.52" style="stop-color:#DFDFDF"/>
		<stop  offset="0.69" style="stop-color:#C7C7C7"/>
		<stop  offset="0.8" style="stop-color:#BCBCBC"/>
		<stop  offset="0.92" style="stop-color:#B1B1B1"/>
	</linearGradient>
	<path fill="url(#SVGID_19_)" d="M31.93,5.098h2.25c0.75,0,1.109,0.566,1.109,1.305L34.93,35.848c0,0.75-0.242,1.176-0.98,1.176
		l-2.02,0.324c-0.75,0-1.527-0.945-1.527-1.684L30.43,6.598c0-0.75,0.574-1.5,1.313-1.5H31.93z"/>
	
		<linearGradient id="SVGID_20_" gradientUnits="userSpaceOnUse" x1="231.1934" y1="-229.6128" x2="224.6777" y2="-229.6128" gradientTransform="matrix(0.75 0 0 -0.75 -167.2671 -150.9883)">
		<stop  offset="0" style="stop-color:#A8A8AD"/>
		<stop  offset="0.03" style="stop-color:#F1F2F6"/>
		<stop  offset="0.08" style="stop-color:#DADBE1"/>
		<stop  offset="0.64" style="stop-color:#D7D8DD"/>
		<stop  offset="0.95" style="stop-color:#D2D3D8"/>
		<stop  offset="1" style="stop-color:#9C9CA0"/>
	</linearGradient>
	<path fill="url(#SVGID_20_)" d="M2.77,5.098h2.25c0.75,0,1.109,0.566,1.109,1.305L5.77,35.848c0,0.75-0.242,1.176-0.98,1.176
		l-2.02,0.324c-0.75,0-1.527-0.945-1.527-1.684L1.27,6.598c0-0.75,0.574-1.5,1.313-1.5H2.77z"/>
	
		<linearGradient id="SVGID_21_" gradientUnits="userSpaceOnUse" x1="231.1914" y1="-229.6147" x2="224.6807" y2="-229.6147" gradientTransform="matrix(0.75 0 0 -0.75 -109.2964 -149.9072)">
		<stop  offset="0" style="stop-color:#C7C7C7"/>
		<stop  offset="0.15" style="stop-color:#FFFFFF"/>
		<stop  offset="0.25" style="stop-color:#FFFFFF"/>
		<stop  offset="0.52" style="stop-color:#DFDFDF"/>
		<stop  offset="0.69" style="stop-color:#C7C7C7"/>
		<stop  offset="0.8" style="stop-color:#BCBCBC"/>
		<stop  offset="0.92" style="stop-color:#B1B1B1"/>
	</linearGradient>
	<path fill="url(#SVGID_21_)" d="M60.738,6.18h2.25c0.75,0,1.109,0.566,1.109,1.305L63.738,36.93c0,0.75-0.238,1.176-0.98,1.176
		l-2.02,0.324c-0.75,0-1.523-0.945-1.523-1.684L59.238,7.68c0-0.75,0.574-1.5,1.316-1.5H60.738z"/>
	
		<linearGradient id="SVGID_22_" gradientUnits="userSpaceOnUse" x1="231.1895" y1="-229.6118" x2="224.6797" y2="-229.6118" gradientTransform="matrix(0.75 0 0 -0.75 -87.2954 -135.7207)">
		<stop  offset="0" style="stop-color:#C7C7C7"/>
		<stop  offset="0.15" style="stop-color:#FFFFFF"/>
		<stop  offset="0.25" style="stop-color:#FFFFFF"/>
		<stop  offset="0.52" style="stop-color:#DFDFDF"/>
		<stop  offset="0.69" style="stop-color:#C7C7C7"/>
		<stop  offset="0.8" style="stop-color:#BCBCBC"/>
		<stop  offset="0.92" style="stop-color:#B1B1B1"/>
	</linearGradient>
	<path fill="url(#SVGID_22_)" d="M82.738,20.363h2.25c0.75,0,1.109,0.57,1.109,1.309l-0.359,29.441c0,0.75-0.238,1.18-0.977,1.18
		l-2.023,0.32c-0.75,0-1.523-0.941-1.523-1.68l0.023-29.07c0-0.75,0.578-1.5,1.316-1.5H82.738z"/>
	
		<linearGradient id="SVGID_23_" gradientUnits="userSpaceOnUse" x1="231.1934" y1="-229.6118" x2="224.6777" y2="-229.6118" gradientTransform="matrix(0.75 0 0 -0.75 -62.5049 -120.5576)">
		<stop  offset="0" style="stop-color:#C7C7C7"/>
		<stop  offset="0.15" style="stop-color:#FFFFFF"/>
		<stop  offset="0.25" style="stop-color:#FFFFFF"/>
		<stop  offset="0.52" style="stop-color:#DFDFDF"/>
		<stop  offset="0.69" style="stop-color:#C7C7C7"/>
		<stop  offset="0.8" style="stop-color:#BCBCBC"/>
		<stop  offset="0.92" style="stop-color:#B1B1B1"/>
	</linearGradient>
	<path fill="url(#SVGID_23_)" d="M107.531,35.527h2.25c0.75,0,1.109,0.566,1.109,1.309l-0.359,29.441c0,0.75-0.242,1.18-0.98,1.18
		l-2.02,0.32c-0.75,0-1.527-0.945-1.527-1.684l0.027-29.066c0-0.75,0.574-1.5,1.313-1.5H107.531z"/>
	
		<linearGradient id="SVGID_24_" gradientUnits="userSpaceOnUse" x1="231.1904" y1="-229.6108" x2="224.6807" y2="-229.6108" gradientTransform="matrix(0.75 0 0 -0.75 -37.7139 -107.9395)">
		<stop  offset="0" style="stop-color:#C7C7C7"/>
		<stop  offset="0.15" style="stop-color:#FFFFFF"/>
		<stop  offset="0.25" style="stop-color:#FFFFFF"/>
		<stop  offset="0.52" style="stop-color:#DFDFDF"/>
		<stop  offset="0.69" style="stop-color:#C7C7C7"/>
		<stop  offset="0.8" style="stop-color:#BCBCBC"/>
		<stop  offset="0.92" style="stop-color:#B1B1B1"/>
	</linearGradient>
	<path fill="url(#SVGID_24_)" d="M132.32,48.145h2.25c0.75,0,1.109,0.57,1.109,1.309l-0.359,29.441c0,0.75-0.238,1.18-0.98,1.18
		l-2.02,0.32c-0.75,0-1.523-0.941-1.523-1.684l0.023-29.066c0-0.75,0.574-1.5,1.316-1.5H132.32z"/>
	
		<linearGradient id="SVGID_25_" gradientUnits="userSpaceOnUse" x1="231.1943" y1="-229.6128" x2="224.6787" y2="-229.6128" gradientTransform="matrix(0.75 0 0 -0.75 -12.9233 -94.2061)">
		<stop  offset="0" style="stop-color:#C7C7C7"/>
		<stop  offset="0.15" style="stop-color:#FFFFFF"/>
		<stop  offset="0.25" style="stop-color:#FFFFFF"/>
		<stop  offset="0.52" style="stop-color:#DFDFDF"/>
		<stop  offset="0.69" style="stop-color:#C7C7C7"/>
		<stop  offset="0.8" style="stop-color:#BCBCBC"/>
		<stop  offset="0.92" style="stop-color:#B1B1B1"/>
	</linearGradient>
	<path fill="url(#SVGID_25_)" d="M157.113,61.879h2.25c0.75,0,1.109,0.566,1.109,1.309l-0.359,29.441c0,0.75-0.242,1.18-0.98,1.18
		l-2.02,0.32c-0.75,0-1.527-0.945-1.527-1.684l0.027-29.066c0-0.75,0.574-1.5,1.313-1.5H157.113z"/>
	
		<linearGradient id="SVGID_26_" gradientUnits="userSpaceOnUse" x1="231.1904" y1="-229.6147" x2="224.6807" y2="-229.6147" gradientTransform="matrix(0.75 0 0 -0.75 11.8677 -80.4727)">
		<stop  offset="0" style="stop-color:#C7C7C7"/>
		<stop  offset="0.15" style="stop-color:#FFFFFF"/>
		<stop  offset="0.25" style="stop-color:#FFFFFF"/>
		<stop  offset="0.52" style="stop-color:#DFDFDF"/>
		<stop  offset="0.69" style="stop-color:#C7C7C7"/>
		<stop  offset="0.8" style="stop-color:#BCBCBC"/>
		<stop  offset="0.92" style="stop-color:#B1B1B1"/>
	</linearGradient>
	<path fill="url(#SVGID_26_)" d="M181.902,75.613h2.25c0.75,0,1.109,0.566,1.109,1.305l-0.359,29.445c0,0.75-0.238,1.176-0.98,1.176
		l-2.02,0.324c-0.75,0-1.523-0.945-1.523-1.684l0.023-29.066c0-0.75,0.574-1.5,1.316-1.5H181.902z"/>
	
		<linearGradient id="SVGID_27_" gradientUnits="userSpaceOnUse" x1="231.1904" y1="-229.6147" x2="224.6797" y2="-229.6147" gradientTransform="matrix(0.75 0 0 -0.75 36.6577 -66.5391)">
		<stop  offset="0" style="stop-color:#C7C7C7"/>
		<stop  offset="0.15" style="stop-color:#FFFFFF"/>
		<stop  offset="0.25" style="stop-color:#FFFFFF"/>
		<stop  offset="0.52" style="stop-color:#DFDFDF"/>
		<stop  offset="0.69" style="stop-color:#C7C7C7"/>
		<stop  offset="0.8" style="stop-color:#BCBCBC"/>
		<stop  offset="0.92" style="stop-color:#B1B1B1"/>
	</linearGradient>
	<path fill="url(#SVGID_27_)" d="M206.691,89.547h2.25c0.75,0,1.109,0.566,1.109,1.309l-0.359,29.441c0,0.75-0.238,1.18-0.977,1.18
		l-2.023,0.32c-0.75,0-1.523-0.945-1.523-1.684l0.023-29.066c0-0.75,0.578-1.5,1.316-1.5H206.691z"/>
	
		<linearGradient id="SVGID_28_" gradientUnits="userSpaceOnUse" x1="231.1914" y1="-229.6118" x2="224.6816" y2="-229.6118" gradientTransform="matrix(0.75 0 0 -0.75 61.4492 -51.6982)">
		<stop  offset="0" style="stop-color:#C7C7C7"/>
		<stop  offset="0.15" style="stop-color:#FFFFFF"/>
		<stop  offset="0.25" style="stop-color:#FFFFFF"/>
		<stop  offset="0.52" style="stop-color:#DFDFDF"/>
		<stop  offset="0.69" style="stop-color:#C7C7C7"/>
		<stop  offset="0.8" style="stop-color:#BCBCBC"/>
		<stop  offset="0.92" style="stop-color:#B1B1B1"/>
	</linearGradient>
	<path fill="url(#SVGID_28_)" d="M231.484,104.387h2.25c0.75,0,1.109,0.566,1.109,1.309l-0.359,29.441c0,0.75-0.242,1.18-0.98,1.18
		l-2.02,0.32c-0.75,0-1.523-0.945-1.523-1.684l0.023-29.066c0-0.75,0.574-1.5,1.313-1.5H231.484z"/>
	
		<linearGradient id="SVGID_29_" gradientUnits="userSpaceOnUse" x1="231.1904" y1="-229.6108" x2="224.6807" y2="-229.6108" gradientTransform="matrix(0.75 0 0 -0.75 86.2393 -36.8408)">
		<stop  offset="0" style="stop-color:#C7C7C7"/>
		<stop  offset="0.15" style="stop-color:#FFFFFF"/>
		<stop  offset="0.25" style="stop-color:#FFFFFF"/>
		<stop  offset="0.52" style="stop-color:#DFDFDF"/>
		<stop  offset="0.69" style="stop-color:#C7C7C7"/>
		<stop  offset="0.8" style="stop-color:#BCBCBC"/>
		<stop  offset="0.92" style="stop-color:#B1B1B1"/>
	</linearGradient>
	<path fill="url(#SVGID_29_)" d="M256.273,119.242h2.25c0.75,0,1.109,0.57,1.109,1.309l-0.359,29.441c0,0.75-0.238,1.18-0.98,1.18
		l-2.02,0.32c-0.75,0-1.523-0.941-1.523-1.68l0.023-29.07c0-0.75,0.574-1.5,1.316-1.5H256.273z"/>
	
		<linearGradient id="SVGID_30_" gradientUnits="userSpaceOnUse" x1="231.1924" y1="-229.6128" x2="224.6768" y2="-229.6128" gradientTransform="matrix(0.75 0 0 -0.75 111.0303 -22)">
		<stop  offset="0" style="stop-color:#C7C7C7"/>
		<stop  offset="0.15" style="stop-color:#FFFFFF"/>
		<stop  offset="0.25" style="stop-color:#FFFFFF"/>
		<stop  offset="0.52" style="stop-color:#DFDFDF"/>
		<stop  offset="0.69" style="stop-color:#C7C7C7"/>
		<stop  offset="0.8" style="stop-color:#BCBCBC"/>
		<stop  offset="0.92" style="stop-color:#B1B1B1"/>
	</linearGradient>
	<path fill="url(#SVGID_30_)" d="M281.066,134.086h2.25c0.75,0,1.109,0.566,1.109,1.305l-0.359,29.445
		c0,0.75-0.242,1.176-0.98,1.176l-2.02,0.324c-0.75,0-1.527-0.945-1.527-1.684l0.027-29.066c0-0.75,0.574-1.5,1.313-1.5H281.066z"/>
	
		<linearGradient id="SVGID_31_" gradientUnits="userSpaceOnUse" x1="231.1904" y1="-229.6128" x2="224.6807" y2="-229.6128" gradientTransform="matrix(0.75 0 0 -0.75 135.8213 -6.1797)">
		<stop  offset="0" style="stop-color:#C7C7C7"/>
		<stop  offset="0.15" style="stop-color:#FFFFFF"/>
		<stop  offset="0.25" style="stop-color:#FFFFFF"/>
		<stop  offset="0.52" style="stop-color:#DFDFDF"/>
		<stop  offset="0.69" style="stop-color:#C7C7C7"/>
		<stop  offset="0.8" style="stop-color:#BCBCBC"/>
		<stop  offset="0.92" style="stop-color:#B1B1B1"/>
	</linearGradient>
	<path fill="url(#SVGID_31_)" d="M305.855,149.906h2.25c0.75,0,1.109,0.566,1.109,1.305l-0.359,29.445
		c0,0.75-0.238,1.176-0.98,1.176l-2.02,0.324c-0.75,0-1.523-0.945-1.523-1.684l0.023-29.066c0-0.75,0.574-1.5,1.316-1.5H305.855z"/>
	
		<linearGradient id="SVGID_32_" gradientUnits="userSpaceOnUse" x1="231.1943" y1="-229.6108" x2="224.6787" y2="-229.6108" gradientTransform="matrix(0.75 0 0 -0.75 160.6113 6.9473)">
		<stop  offset="0" style="stop-color:#C7C7C7"/>
		<stop  offset="0.15" style="stop-color:#FFFFFF"/>
		<stop  offset="0.25" style="stop-color:#FFFFFF"/>
		<stop  offset="0.52" style="stop-color:#DFDFDF"/>
		<stop  offset="0.69" style="stop-color:#C7C7C7"/>
		<stop  offset="0.8" style="stop-color:#BCBCBC"/>
		<stop  offset="0.92" style="stop-color:#B1B1B1"/>
	</linearGradient>
	<path fill="url(#SVGID_32_)" d="M330.648,163.031h2.25c0.75,0,1.109,0.57,1.109,1.309l-0.359,29.441c0,0.75-0.242,1.18-0.98,1.18
		l-2.02,0.32c-0.75,0-1.527-0.941-1.527-1.68l0.027-29.07c0-0.75,0.574-1.5,1.313-1.5H330.648z"/>
	
		<linearGradient id="SVGID_33_" gradientUnits="userSpaceOnUse" x1="231.1934" y1="-229.6147" x2="224.6777" y2="-229.6147" gradientTransform="matrix(0.75 0 0 -0.75 182.6123 16.4297)">
		<stop  offset="0" style="stop-color:#C7C7C7"/>
		<stop  offset="0.15" style="stop-color:#FFFFFF"/>
		<stop  offset="0.25" style="stop-color:#FFFFFF"/>
		<stop  offset="0.52" style="stop-color:#DFDFDF"/>
		<stop  offset="0.69" style="stop-color:#C7C7C7"/>
		<stop  offset="0.8" style="stop-color:#BCBCBC"/>
		<stop  offset="0.92" style="stop-color:#B1B1B1"/>
	</linearGradient>
	<path fill="url(#SVGID_33_)" d="M352.648,172.516h2.25c0.75,0,1.109,0.566,1.109,1.305l-0.359,29.445
		c0,0.75-0.242,1.176-0.98,1.176l-2.02,0.324c-0.75,0-1.527-0.945-1.527-1.684l0.027-29.066c0-0.75,0.574-1.5,1.313-1.5H352.648z"/>
	
		<linearGradient id="SVGID_34_" gradientUnits="userSpaceOnUse" x1="649.1484" y1="-98.1709" x2="649.1484" y2="-108.561" gradientTransform="matrix(0.6495 0.375 0.375 -0.6495 -174.542 -220.339)">
		<stop  offset="0" style="stop-color:#A8A8AD"/>
		<stop  offset="0.03" style="stop-color:#F1F2F6"/>
		<stop  offset="0.08" style="stop-color:#DADBE1"/>
		<stop  offset="0.64" style="stop-color:#D7D8DD"/>
		<stop  offset="0.95" style="stop-color:#D2D3D8"/>
		<stop  offset="1" style="stop-color:#9C9CA0"/>
	</linearGradient>
	<path fill="url(#SVGID_34_)" d="M61.773,1.133l296.832,171.375c0.648,0.375,1.172,1.352,0.801,1.992l-2.879,4.605
		c-0.375,0.648-0.871,0.684-1.512,0.313L58.023,7.629c-0.648-0.375-1.137-1.027-0.77-1.668l2.473-4.277
		C60.102,1.035,61,0.668,61.641,1.039L61.773,1.133z"/>
	
		<linearGradient id="SVGID_35_" gradientUnits="userSpaceOnUse" x1="650.5918" y1="-98.1699" x2="650.5918" y2="-108.562" gradientTransform="matrix(0.6495 0.375 0.375 -0.6495 -177.2774 -187.7384)">
		<stop  offset="0" style="stop-color:#A8A8AD"/>
		<stop  offset="0.03" style="stop-color:#F1F2F6"/>
		<stop  offset="0.08" style="stop-color:#DADBE1"/>
		<stop  offset="0.64" style="stop-color:#D7D8DD"/>
		<stop  offset="0.95" style="stop-color:#D2D3D8"/>
		<stop  offset="1" style="stop-color:#9C9CA0"/>
	</linearGradient>
	<path fill="url(#SVGID_35_)" d="M59.039,33.734l298.777,172.5c0.648,0.375,1.098,1.309,0.73,1.945l-2.805,4.652
		c-0.375,0.648-0.949,0.637-1.594,0.266L55.289,40.23c-0.648-0.375-1.141-1.027-0.77-1.668l2.469-4.277
		c0.375-0.652,1.281-1.016,1.926-0.641L59.039,33.734z"/>
	
		<linearGradient id="SVGID_36_" gradientUnits="userSpaceOnUse" x1="264.2129" y1="-208.1147" x2="264.2129" y2="-219.1147" gradientTransform="matrix(0.75 0 0 -0.75 -168.5352 -122.4336)">
		<stop  offset="0" style="stop-color:#A8A8AD"/>
		<stop  offset="0.03" style="stop-color:#F1F2F6"/>
		<stop  offset="0.08" style="stop-color:#DADBE1"/>
		<stop  offset="0.64" style="stop-color:#D7D8DD"/>
		<stop  offset="0.95" style="stop-color:#D2D3D8"/>
		<stop  offset="1" style="stop-color:#9C9CA0"/>
	</linearGradient>
	<path fill="url(#SVGID_36_)" d="M59.25,33.652H0v8.25h59.25V33.652z"/>
	
		<linearGradient id="SVGID_37_" gradientUnits="userSpaceOnUse" x1="265.2129" y1="-208.1157" x2="265.2129" y2="-219.1157" gradientTransform="matrix(0.75 0 0 -0.75 -168.5352 -154.9805)">
		<stop  offset="0" style="stop-color:#A8A8AD"/>
		<stop  offset="0.03" style="stop-color:#F1F2F6"/>
		<stop  offset="0.08" style="stop-color:#DADBE1"/>
		<stop  offset="0.64" style="stop-color:#D7D8DD"/>
		<stop  offset="0.95" style="stop-color:#D2D3D8"/>
		<stop  offset="1" style="stop-color:#9C9CA0"/>
	</linearGradient>
	<path fill="url(#SVGID_37_)" d="M60.75,1.105H0v8.25h60.75V1.105z"/>
	
		<linearGradient id="SVGID_38_" gradientUnits="userSpaceOnUse" x1="264.2119" y1="-208.1138" x2="264.2119" y2="-219.1147" gradientTransform="matrix(0.75 0 0 -0.75 186.3057 49.3164)">
		<stop  offset="0" style="stop-color:#A8A8AD"/>
		<stop  offset="0.03" style="stop-color:#F1F2F6"/>
		<stop  offset="0.08" style="stop-color:#DADBE1"/>
		<stop  offset="0.64" style="stop-color:#D7D8DD"/>
		<stop  offset="0.95" style="stop-color:#D2D3D8"/>
		<stop  offset="1" style="stop-color:#9C9CA0"/>
	</linearGradient>
	<path fill="url(#SVGID_38_)" d="M414.09,205.402h-59.25v8.25h59.25V205.402z"/>
	
		<linearGradient id="SVGID_39_" gradientUnits="userSpaceOnUse" x1="263.7119" y1="-208.1128" x2="263.7119" y2="-219.1138" gradientTransform="matrix(0.75 0 0 -0.75 186.5986 15.1611)">
		<stop  offset="0" style="stop-color:#A8A8AD"/>
		<stop  offset="0.03" style="stop-color:#F1F2F6"/>
		<stop  offset="0.08" style="stop-color:#DADBE1"/>
		<stop  offset="0.64" style="stop-color:#D7D8DD"/>
		<stop  offset="0.95" style="stop-color:#D2D3D8"/>
		<stop  offset="1" style="stop-color:#9C9CA0"/>
	</linearGradient>
	<path fill="url(#SVGID_39_)" d="M413.633,171.246h-58.5v8.25h58.5V171.246z"/>
</g>
</svg>
