<?xml version="1.0" encoding="utf-8"?>
<!-- Generator: Adobe Illustrator 16.0.0, SVG Export Plug-In . SVG Version: 6.00 Build 0)  -->
<!DOCTYPE svg PUBLIC "-//W3C//DTD SVG 1.1//EN" "http://www.w3.org/Graphics/SVG/1.1/DTD/svg11.dtd">
<svg preserveAspectRatio="none"   version="1.1" id="图层_1" xmlns="http://www.w3.org/2000/svg" xmlns:xlink="http://www.w3.org/1999/xlink" x="0px" y="0px"
	 width="552.199px" height="383.37px" viewBox="7.316 183.641 552.199 383.37"
	 enable-background="new 7.316 183.641 552.199 383.37" xml:space="preserve">
<g id="surface121">
	<path fill="none" stroke="#CDCECE" stroke-linejoin="bevel" stroke-miterlimit="10" d="M43.57,197.32l-0.008,356.25"/>
	<path fill="none" stroke="#CDCECE" stroke-linejoin="bevel" stroke-miterlimit="10" d="M67.445,197.32l-0.008,356.25"/>
	<path fill="none" stroke="#CDCECE" stroke-linejoin="bevel" stroke-miterlimit="10" d="M91.324,197.32l-0.008,356.25"/>
	<path fill="none" stroke="#CDCECE" stroke-linejoin="bevel" stroke-miterlimit="10" d="M115.199,197.32l-0.008,356.25"/>
	<path fill="none" stroke="#CDCECE" stroke-linejoin="bevel" stroke-miterlimit="10" d="M139.074,197.32l-0.008,356.25"/>
	<path fill="none" stroke="#CDCECE" stroke-linejoin="bevel" stroke-miterlimit="10" d="M162.953,197.32l-0.008,356.25"/>
	<path fill="none" stroke="#CDCECE" stroke-linejoin="bevel" stroke-miterlimit="10" d="M186.828,197.32l-0.008,356.25"/>
	<path fill="none" stroke="#CDCECE" stroke-linejoin="bevel" stroke-miterlimit="10" d="M210.703,197.32l-0.008,356.25"/>
	<path fill="none" stroke="#CDCECE" stroke-linejoin="bevel" stroke-miterlimit="10" d="M234.582,197.32l-0.008,356.25"/>
	<path fill="none" stroke="#CDCECE" stroke-linejoin="bevel" stroke-miterlimit="10" d="M258.457,197.32l-0.008,356.25"/>
	<path fill="none" stroke="#CDCECE" stroke-linejoin="bevel" stroke-miterlimit="10" d="M282.332,197.32l-0.008,356.25"/>
	<path fill="none" stroke="#CDCECE" stroke-linejoin="bevel" stroke-miterlimit="10" d="M306.21,197.32l-0.008,356.25"/>
	<path fill="none" stroke="#CDCECE" stroke-linejoin="bevel" stroke-miterlimit="10" d="M330.085,197.32l-0.008,356.25"/>
	<path fill="none" stroke="#CDCECE" stroke-linejoin="bevel" stroke-miterlimit="10" d="M353.96,197.32l-0.008,356.25"/>
	<path fill="none" stroke="#CDCECE" stroke-linejoin="bevel" stroke-miterlimit="10" d="M377.839,197.32l-0.008,356.25"/>
	<path fill="none" stroke="#CDCECE" stroke-linejoin="bevel" stroke-miterlimit="10" d="M401.714,197.32l-0.008,356.25"/>
	<path fill="none" stroke="#CDCECE" stroke-linejoin="bevel" stroke-miterlimit="10" d="M425.589,197.32l-0.008,356.25"/>
	<path fill="none" stroke="#CDCECE" stroke-linejoin="bevel" stroke-miterlimit="10" d="M449.468,197.32l-0.008,356.25"/>
	<path fill="none" stroke="#CDCECE" stroke-linejoin="bevel" stroke-miterlimit="10" d="M473.343,197.32l-0.008,356.25"/>
	<path fill="none" stroke="#CDCECE" stroke-linejoin="bevel" stroke-miterlimit="10" d="M497.218,197.32l-0.008,356.25"/>
	<path fill="none" stroke="#CDCECE" stroke-linejoin="bevel" stroke-miterlimit="10" d="M521.093,197.32l-0.008,356.25"/>
	<path fill="none" stroke="#CDCECE" stroke-linejoin="bevel" stroke-miterlimit="10" d="M18.633,528.359l529.5,0.008"/>
	<path fill="none" stroke="#CDCECE" stroke-linejoin="bevel" stroke-miterlimit="10" d="M18.633,504.64l529.5,0.01"/>
	<path fill="none" stroke="#CDCECE" stroke-linejoin="bevel" stroke-miterlimit="10" d="M18.633,480.925l529.5,0.008"/>
	<path fill="none" stroke="#CDCECE" stroke-linejoin="bevel" stroke-miterlimit="10" d="M18.633,457.207l529.5,0.008"/>
	<path fill="none" stroke="#CDCECE" stroke-linejoin="bevel" stroke-miterlimit="10" d="M18.633,433.492l529.5,0.008"/>
	<path fill="none" stroke="#CDCECE" stroke-linejoin="bevel" stroke-miterlimit="10" d="M18.633,409.773l529.5,0.008"/>
	<path fill="none" stroke="#CDCECE" stroke-linejoin="bevel" stroke-miterlimit="10" d="M18.633,386.055l529.5,0.008"/>
	<path fill="none" stroke="#CDCECE" stroke-linejoin="bevel" stroke-miterlimit="10" d="M18.633,362.335l529.5,0.008"/>
	<path fill="none" stroke="#CDCECE" stroke-linejoin="bevel" stroke-miterlimit="10" d="M18.633,338.621l529.5,0.008"/>
	<path fill="none" stroke="#CDCECE" stroke-linejoin="bevel" stroke-miterlimit="10" d="M18.633,314.902l529.5,0.008"/>
	<path fill="none" stroke="#CDCECE" stroke-linejoin="bevel" stroke-miterlimit="10" d="M18.633,291.188l529.5,0.004"/>
	<path fill="none" stroke="#CDCECE" stroke-linejoin="bevel" stroke-miterlimit="10" d="M18.633,267.468l529.5,0.009"/>
	<path fill="none" stroke="#CDCECE" stroke-linejoin="bevel" stroke-miterlimit="10" d="M18.633,243.75l529.5,0.008"/>
	<path fill="none" stroke="#CDCECE" stroke-linejoin="bevel" stroke-miterlimit="10" d="M18.633,220.035l529.5,0.008"/>
	
		<linearGradient id="SVGID_1_" gradientUnits="userSpaceOnUse" x1="979.584" y1="-408.7617" x2="979.584" y2="-429.7627" gradientTransform="matrix(0.75 0 0 -0.75 -451.3726 -122.9301)">
		<stop  offset="0" style="stop-color:#909191"/>
		<stop  offset="0.03" style="stop-color:#D8D9D9"/>
		<stop  offset="0.08" style="stop-color:#BDBEBE"/>
		<stop  offset="0.64" style="stop-color:#BABABA"/>
		<stop  offset="0.95" style="stop-color:#B5B6B6"/>
		<stop  offset="1" style="stop-color:#868787"/>
	</linearGradient>
	<path fill="url(#SVGID_1_)" d="M7.316,183.641h552v15.75h-552V183.641L7.316,183.641z"/>
	
		<linearGradient id="SVGID_2_" gradientUnits="userSpaceOnUse" x1="979.5859" y1="-408.7617" x2="979.5859" y2="-429.7627" gradientTransform="matrix(0.75 0 0 -0.75 -451.3726 244.6891)">
		<stop  offset="0" style="stop-color:#909191"/>
		<stop  offset="0.03" style="stop-color:#D8D9D9"/>
		<stop  offset="0.08" style="stop-color:#BDBEBE"/>
		<stop  offset="0.64" style="stop-color:#BABABA"/>
		<stop  offset="0.95" style="stop-color:#B5B6B6"/>
		<stop  offset="1" style="stop-color:#868787"/>
	</linearGradient>
	<path fill="url(#SVGID_2_)" d="M7.316,551.261h552v15.75h-552V551.261L7.316,551.261z"/>
	
		<linearGradient id="SVGID_3_" gradientUnits="userSpaceOnUse" x1="-0.062" y1="309.5435" x2="-0.062" y2="288.5435" gradientTransform="matrix(0 -0.75 -0.75 0 239.4728 375.3271)">
		<stop  offset="0" style="stop-color:#909191"/>
		<stop  offset="0.03" style="stop-color:#D8D9D9"/>
		<stop  offset="0.08" style="stop-color:#BDBEBE"/>
		<stop  offset="0.64" style="stop-color:#BABABA"/>
		<stop  offset="0.95" style="stop-color:#B5B6B6"/>
		<stop  offset="1" style="stop-color:#868787"/>
	</linearGradient>
	<path fill="url(#SVGID_3_)" d="M7.316,567V183.75h15.75V567H7.316z"/>
	
		<linearGradient id="SVGID_4_" gradientUnits="userSpaceOnUse" x1="-0.062" y1="309.5464" x2="-0.062" y2="288.5464" gradientTransform="matrix(0 -0.75 -0.75 0 775.924 375.3271)">
		<stop  offset="0" style="stop-color:#909191"/>
		<stop  offset="0.03" style="stop-color:#D8D9D9"/>
		<stop  offset="0.08" style="stop-color:#BDBEBE"/>
		<stop  offset="0.64" style="stop-color:#BABABA"/>
		<stop  offset="0.95" style="stop-color:#B5B6B6"/>
		<stop  offset="1" style="stop-color:#868787"/>
	</linearGradient>
	<path fill="url(#SVGID_4_)" d="M543.765,567V183.75h15.75V567H543.765z"/>
</g>
</svg>
