<?xml version="1.0" encoding="utf-8"?>
<!-- Generator: Adobe Illustrator 16.0.0, SVG Export Plug-In . SVG Version: 6.00 Build 0)  -->
<!DOCTYPE svg PUBLIC "-//W3C//DTD SVG 1.1//EN" "http://www.w3.org/Graphics/SVG/1.1/DTD/svg11.dtd">
<svg preserveAspectRatio="none"   version="1.1" id="图层_1" xmlns="http://www.w3.org/2000/svg" xmlns:xlink="http://www.w3.org/1999/xlink" x="0px" y="0px"
	 width="96.001px" height="280.833px" viewBox="19.499 0.675 96.001 280.833" enable-background="new 19.499 0.675 96.001 280.833"
	 xml:space="preserve">
<g id="surface6">
	
		<linearGradient id="SVGID_1_" gradientUnits="userSpaceOnUse" x1="671.0732" y1="750.1162" x2="554.9268" y2="750.1162" gradientTransform="matrix(0.75 0 0 0.75 -392.2505 -489.2817)">
		<stop  offset="0" style="stop-color:#6F462D"/>
		<stop  offset="0.01" style="stop-color:#B89688"/>
		<stop  offset="0.02" style="stop-color:#925D3E"/>
		<stop  offset="0.64" style="stop-color:#905C3D"/>
		<stop  offset="0.99" style="stop-color:#8C593B"/>
		<stop  offset="1" style="stop-color:#674029"/>
	</linearGradient>
	<path fill="url(#SVGID_1_)" d="M24.695,69.785h85.5c0.75,0,0.859,0.375,0.859,0.832l-0.109,5.168c0,0.75-0.219,1.039-0.629,1.039
		l-85.622-0.289c-0.75,0-0.75-0.086-0.75-0.547v-5.453c0-0.75,0.328-0.75,0.738-0.75H24.695z"/>
	
		<linearGradient id="SVGID_2_" gradientUnits="userSpaceOnUse" x1="682.9258" y1="750.1152" x2="554.9248" y2="750.1152" gradientTransform="matrix(0.75 0 0 0.75 -396.6953 -408.7026)">
		<stop  offset="0" style="stop-color:#6F462D"/>
		<stop  offset="0.01" style="stop-color:#B89688"/>
		<stop  offset="0.02" style="stop-color:#925D3E"/>
		<stop  offset="0.64" style="stop-color:#905C3D"/>
		<stop  offset="0.99" style="stop-color:#8C593B"/>
		<stop  offset="1" style="stop-color:#674029"/>
	</linearGradient>
	<path fill="url(#SVGID_2_)" d="M20.25,150.363h94.5c0.75,0,0.75,0.375,0.75,0.836v5.164c0,0.75-0.363,1.039-0.813,1.039
		l-94.438-0.289c-0.75,0-0.75-0.086-0.75-0.547v-5.453c0-0.75,0.363-0.75,0.813-0.75H20.25z"/>
	
		<linearGradient id="SVGID_3_" gradientUnits="userSpaceOnUse" x1="611.9287" y1="794.4209" x2="554.9277" y2="794.4209" gradientTransform="matrix(0.75 0 0 0.75 -370.0879 -555.522)">
		<stop  offset="0" style="stop-color:#976041"/>
		<stop  offset="0.15" style="stop-color:#D0906E"/>
		<stop  offset="0.25" style="stop-color:#D7A590"/>
		<stop  offset="0.52" style="stop-color:#B3734E"/>
		<stop  offset="0.69" style="stop-color:#9F6644"/>
		<stop  offset="0.8" style="stop-color:#965F40"/>
		<stop  offset="1" style="stop-color:#8E5A3C"/>
	</linearGradient>
	<path fill="url(#SVGID_3_)" d="M46.109,3.543h42.75v73.5h-42.75V3.543z"/>
	
		<linearGradient id="SVGID_4_" gradientUnits="userSpaceOnUse" x1="617.9268" y1="799.4229" x2="554.9268" y2="799.4229" gradientTransform="matrix(0.75 0 0 0.75 -372.2896 -482.4253)">
		<stop  offset="0" style="stop-color:#976041"/>
		<stop  offset="0.15" style="stop-color:#D0906E"/>
		<stop  offset="0.25" style="stop-color:#D7A590"/>
		<stop  offset="0.52" style="stop-color:#B3734E"/>
		<stop  offset="0.69" style="stop-color:#9F6644"/>
		<stop  offset="0.8" style="stop-color:#965F40"/>
		<stop  offset="1" style="stop-color:#8E5A3C"/>
	</linearGradient>
	<path fill="url(#SVGID_4_)" d="M43.906,76.641h47.25v81h-47.25V76.641z"/>
	<path fill="none" stroke="#944E2A" stroke-linejoin="bevel" stroke-miterlimit="10" d="M44.137,149.957h46.5"/>
	<path fill="none" stroke="#944E2A" stroke-linejoin="bevel" stroke-miterlimit="10" d="M44.137,141.77h46.5"/>
	<path fill="none" stroke="#944E2A" stroke-linejoin="bevel" stroke-miterlimit="10" d="M44.137,133.586h46.5"/>
	<path fill="none" stroke="#944E2A" stroke-linejoin="bevel" stroke-miterlimit="10" d="M44.137,125.398h46.5"/>
	<path fill="none" stroke="#944E2A" stroke-linejoin="bevel" stroke-miterlimit="10" d="M44.137,117.215h46.5"/>
	<path fill="none" stroke="#944E2A" stroke-linejoin="bevel" stroke-miterlimit="10" d="M44.137,109.027h46.5"/>
	<path fill="none" stroke="#944E2A" stroke-linejoin="bevel" stroke-miterlimit="10" d="M44.137,100.844h46.5"/>
	<path fill="none" stroke="#944E2A" stroke-linejoin="bevel" stroke-miterlimit="10" d="M44.137,92.656h46.5"/>
	<path fill="none" stroke="#944E2A" stroke-linejoin="bevel" stroke-miterlimit="10" d="M44.137,84.473h46.5"/>
	
		<linearGradient id="SVGID_5_" gradientUnits="userSpaceOnUse" x1="624.9248" y1="825.9248" x2="554.9248" y2="825.9248" gradientTransform="matrix(0.75 0 0 0.75 -374.854 -402.0718)">
		<stop  offset="0" style="stop-color:#976041"/>
		<stop  offset="0.15" style="stop-color:#D0906E"/>
		<stop  offset="0.25" style="stop-color:#D7A590"/>
		<stop  offset="0.52" style="stop-color:#B3734E"/>
		<stop  offset="0.69" style="stop-color:#9F6644"/>
		<stop  offset="0.8" style="stop-color:#965F40"/>
		<stop  offset="1" style="stop-color:#8E5A3C"/>
	</linearGradient>
	<path fill="url(#SVGID_5_)" d="M41.34,156.996h52.5v120.75h-52.5V156.996z"/>
	<path fill="none" stroke="#944E2A" stroke-linejoin="bevel" stroke-miterlimit="10" d="M41.34,270.488h52.5"/>
	<path fill="none" stroke="#944E2A" stroke-linejoin="bevel" stroke-miterlimit="10" d="M41.34,262.305h52.5"/>
	<path fill="none" stroke="#944E2A" stroke-linejoin="bevel" stroke-miterlimit="10" d="M41.34,254.117h52.5"/>
	<path fill="none" stroke="#944E2A" stroke-linejoin="bevel" stroke-miterlimit="10" d="M41.34,245.934h52.5"/>
	<path fill="none" stroke="#944E2A" stroke-linejoin="bevel" stroke-miterlimit="10" d="M41.34,237.746h52.5"/>
	<path fill="none" stroke="#944E2A" stroke-linejoin="bevel" stroke-miterlimit="10" d="M41.34,229.559h52.5"/>
	<path fill="none" stroke="#944E2A" stroke-linejoin="bevel" stroke-miterlimit="10" d="M41.34,221.375h52.5"/>
	<path fill="none" stroke="#944E2A" stroke-linejoin="bevel" stroke-miterlimit="10" d="M41.34,213.188h52.5"/>
	<path fill="none" stroke="#944E2A" stroke-linejoin="bevel" stroke-miterlimit="10" d="M41.34,205.004h52.5"/>
	<path fill="none" stroke="#944E2A" stroke-linejoin="bevel" stroke-miterlimit="10" d="M41.34,196.973h52.5"/>
	<path fill="none" stroke="#944E2A" stroke-linejoin="bevel" stroke-miterlimit="10" d="M41.34,188.633h52.5"/>
	<path fill="none" stroke="#944E2A" stroke-linejoin="bevel" stroke-miterlimit="10" d="M41.34,180.445h52.5"/>
	<path fill="none" stroke="#944E2A" stroke-linejoin="bevel" stroke-miterlimit="10" d="M41.34,172.262h52.5"/>
	<path fill="none" stroke="#944E2A" stroke-linejoin="bevel" stroke-miterlimit="10" d="M41.34,164.074h52.5"/>
	<path fill="none" stroke="#944E2A" stroke-linejoin="bevel" stroke-miterlimit="10" d="M46.391,68.246h42"/>
	<path fill="none" stroke="#944E2A" stroke-linejoin="bevel" stroke-miterlimit="10" d="M46.391,60.063h42"/>
	<path fill="none" stroke="#944E2A" stroke-linejoin="bevel" stroke-miterlimit="10" d="M46.391,51.875h42"/>
	<path fill="none" stroke="#944E2A" stroke-linejoin="bevel" stroke-miterlimit="10" d="M46.391,43.688h42"/>
	<path fill="none" stroke="#944E2A" stroke-linejoin="bevel" stroke-miterlimit="10" d="M46.391,35.504h42"/>
	<path fill="none" stroke="#944E2A" stroke-linejoin="bevel" stroke-miterlimit="10" d="M46.391,27.316h42"/>
	<path fill="none" stroke="#944E2A" stroke-linejoin="bevel" stroke-miterlimit="10" d="M46.391,19.133h42"/>
	<path fill="none" stroke="#944E2A" stroke-linejoin="bevel" stroke-miterlimit="10" d="M46.391,10.945h42"/>
	
		<linearGradient id="SVGID_6_" gradientUnits="userSpaceOnUse" x1="617.9268" y1="746.9209" x2="554.9268" y2="746.9209" gradientTransform="matrix(0.75 0 0 0.75 -372.2896 -403.6196)">
		<stop  offset="0" style="stop-color:#784125"/>
		<stop  offset="0.15" style="stop-color:#AB6F56"/>
		<stop  offset="0.25" style="stop-color:#B88B7B"/>
		<stop  offset="0.52" style="stop-color:#8F4F2D"/>
		<stop  offset="0.69" style="stop-color:#7F4527"/>
		<stop  offset="0.8" style="stop-color:#774124"/>
		<stop  offset="1" style="stop-color:#703D22"/>
	</linearGradient>
	<path fill="url(#SVGID_6_)" d="M43.906,155.445h47.25v2.25h-47.25V155.445z"/>
	
		<linearGradient id="SVGID_7_" gradientUnits="userSpaceOnUse" x1="611.9287" y1="746.4209" x2="554.9277" y2="746.4209" gradientTransform="matrix(0.75 0 0 0.75 -370.0879 -484.1548)">
		<stop  offset="0" style="stop-color:#784125"/>
		<stop  offset="0.15" style="stop-color:#AB6F56"/>
		<stop  offset="0.25" style="stop-color:#B88B7B"/>
		<stop  offset="0.52" style="stop-color:#8F4F2D"/>
		<stop  offset="0.69" style="stop-color:#7F4527"/>
		<stop  offset="0.8" style="stop-color:#774124"/>
		<stop  offset="1" style="stop-color:#703D22"/>
	</linearGradient>
	<path fill="url(#SVGID_7_)" d="M46.109,74.91h42.75v1.5h-42.75V74.91z"/>
	
		<linearGradient id="SVGID_8_" gradientUnits="userSpaceOnUse" x1="633.9268" y1="748.4238" x2="554.9277" y2="748.4238" gradientTransform="matrix(0.75 0 0 0.75 -378.2192 -282.0591)">
		<stop  offset="0" style="stop-color:#784125"/>
		<stop  offset="0.15" style="stop-color:#AB6F56"/>
		<stop  offset="0.25" style="stop-color:#B88B7B"/>
		<stop  offset="0.52" style="stop-color:#8F4F2D"/>
		<stop  offset="0.69" style="stop-color:#7F4527"/>
		<stop  offset="0.8" style="stop-color:#774124"/>
		<stop  offset="1" style="stop-color:#703D22"/>
	</linearGradient>
	<path fill="url(#SVGID_8_)" d="M38.727,277.008h57.75c0,0,0.547,0.371,0.547,0.832l0.203,2.918c0,0-0.565,0.551-1.016,0.551
		l-57.484,0.199c-0.75,0-0.75-0.574-0.75-1.035v-2.715c0-0.75,0.363-0.75,0.813-0.75H38.727z"/>
	
		<linearGradient id="SVGID_9_" gradientUnits="userSpaceOnUse" x1="613.4014" y1="747.4854" x2="554.9287" y2="747.4854" gradientTransform="matrix(0.75 0 0 0.75 -370.7905 -558.3735)">
		<stop  offset="0" style="stop-color:#784125"/>
		<stop  offset="0.15" style="stop-color:#AB6F56"/>
		<stop  offset="0.25" style="stop-color:#B88B7B"/>
		<stop  offset="0.52" style="stop-color:#8F4F2D"/>
		<stop  offset="0.69" style="stop-color:#7F4527"/>
		<stop  offset="0.8" style="stop-color:#774124"/>
		<stop  offset="1" style="stop-color:#703D22"/>
	</linearGradient>
	<path fill="url(#SVGID_9_)" d="M46.156,0.691h42c0.75,0,1.105,0.359,1.105,0.82l-0.355,1.43c0,0.75-0.012,0.863-0.461,0.863
		L46.156,3.691c-0.75,0-0.75-0.262-0.75-0.723V1.441c0-0.75,0.332-0.766,0.781-0.766L46.156,0.691z"/>
</g>
</svg>
