<?xml version="1.0" encoding="utf-8"?>
<!-- Generator: Adobe Illustrator 16.0.0, SVG Export Plug-In . SVG Version: 6.00 Build 0)  -->
<!DOCTYPE svg PUBLIC "-//W3C//DTD SVG 1.1//EN" "http://www.w3.org/Graphics/SVG/1.1/DTD/svg11.dtd">
<svg preserveAspectRatio="none"   version="1.1" id="图层_1" xmlns="http://www.w3.org/2000/svg" xmlns:xlink="http://www.w3.org/1999/xlink" x="0px" y="0px"
	 width="30.148px" height="30.157px" viewBox="59.25 55.343 30.148 30.157" enable-background="new 59.25 55.343 30.148 30.157"
	 xml:space="preserve">
<g id="surface16">
	
		<linearGradient id="SVGID_1_" gradientUnits="userSpaceOnUse" x1="452.1326" y1="274.4011" x2="452.1326" y2="256.4011" gradientTransform="matrix(-0.75 0 0 -0.75 404.3492 262.0519)">
		<stop  offset="0" style="stop-color:#D7D8D9"/>
		<stop  offset="0.2" style="stop-color:#E4E5E6"/>
		<stop  offset="0.4" style="stop-color:#FCFDFE"/>
		<stop  offset="0.6" style="stop-color:#FCFDFE"/>
		<stop  offset="0.8" style="stop-color:#E4E5E6"/>
		<stop  offset="1" style="stop-color:#D7D8D9"/>
	</linearGradient>
	<path fill="url(#SVGID_1_)" d="M71.25,56.25h-12v13.5h12V56.25z"/>
	
		<linearGradient id="SVGID_2_" gradientUnits="userSpaceOnUse" x1="122.7092" y1="274.4509" x2="122.7092" y2="256.4509" gradientTransform="matrix(0 -0.75 0.75 0 -117.3386 171.5323)">
		<stop  offset="0" style="stop-color:#D7D8D9"/>
		<stop  offset="0.2" style="stop-color:#E4E5E6"/>
		<stop  offset="0.4" style="stop-color:#FCFDFE"/>
		<stop  offset="0.6" style="stop-color:#FCFDFE"/>
		<stop  offset="0.8" style="stop-color:#E4E5E6"/>
		<stop  offset="1" style="stop-color:#D7D8D9"/>
	</linearGradient>
	<path fill="url(#SVGID_2_)" d="M88.5,85.5v-12H75v12H88.5z"/>
	<path fill="#ECEDEE" d="M66.886,70.352v-15c0,0,8.547-0.527,16,6.602c6.5,6.148,6.5,15.898,6.5,15.898h-15
		c0,0-0.129-3.68-2.223-5.422c-2.277-2.078-5.25-2.164-5.25-2.164L66.886,70.352z"/>
	<path fill="#DEDFE0" d="M66.617,70.578v-2.25c0,0,4.254,0.242,6.902,2.762c2.848,3.238,2.848,6.746,2.848,6.746l-2.25,0.242
		c0-0.75,0.059-3.902-1.836-5.602c-1.914-1.898-5.352-2.219-5.352-2.219L66.617,70.578z"/>
	<path fill="#E3E4E5" d="M67.254,59.571v-2.25c0,0,8.516-0.074,14.398,5.871c6.602,6.879,5.813,14.641,5.813,14.641l-2.211-0.262
		c0,0,0.5-7.91-5.055-12.984c-6.195-5.766-13.27-5.305-13.27-5.305L67.254,59.571z"/>
	<path fill="#DEDFE0" d="M66.898,57.629v-2.25c0,0,8.199-0.648,15.98,6.555c6.52,6.195,6.52,15.887,6.52,15.887l-2.25,0.059
		c0,0,0.465-8.992-5.551-14.668c-6.449-6.332-14.699-5.895-14.699-5.895V57.629z"/>
	<path fill="#FCFDFE" d="M67.054,64.188v-3c0,0,6.371-0.535,11.727,4.813c4.773,4.938,4.773,11.836,4.773,11.836l-3-0.148
		c0,0-0.246-5.668-3.984-9.477c-4.266-4.023-9.641-3.762-9.641-3.762L67.054,64.188z"/>
	<path fill="#F1F2F2" d="M66.761,61.528v-2.25c0,0,7.367-0.395,13.473,5.324c5.277,5.176,5.277,13.23,5.277,13.23l-2.25,0.195
		c0,0,0.387-7.352-4.48-12.027c-5.27-5.223-11.852-4.797-11.852-4.797L66.761,61.528z"/>
	<path fill="#F1F2F2" d="M66.785,66.696v-2.25c0,0,6.012-0.281,9.785,3.766c3.715,3.734,3.715,9.621,3.715,9.621l-2.25,0.113
		c0,0,0.09-5.082-3.035-8.176c-2.965-3.074-8.07-3.383-8.07-3.383L66.785,66.696z"/>
	<path fill="#E3E4E5" d="M67.07,68.633v-2.25c0,0,4.789,0.238,7.93,3.387c3.32,3.363,3.32,8.066,3.32,8.066l-2.25-0.203
		c0,0,0.445-3.57-2.492-6.438c-2.758-2.563-6.637-2.867-6.637-2.867L67.07,68.633z"/>
</g>
</svg>
