<?xml version="1.0" encoding="utf-8"?>
<!-- Generator: Adobe Illustrator 16.0.0, SVG Export Plug-In . SVG Version: 6.00 Build 0)  -->
<!DOCTYPE svg PUBLIC "-//W3C//DTD SVG 1.1//EN" "http://www.w3.org/Graphics/SVG/1.1/DTD/svg11.dtd">
<svg preserveAspectRatio="none"   version="1.1" id="图层_1" xmlns="http://www.w3.org/2000/svg" xmlns:xlink="http://www.w3.org/1999/xlink" x="0px" y="0px"
	 width="166.5px" height="260.5px" viewBox="0 0 166.5 260.5" enable-background="new 0 0 166.5 260.5" xml:space="preserve">
<g>
	<ellipse fill="#1E1E1E" cx="83.25" cy="228.5" rx="83.25" ry="32"/>
	
		<polygon fill="none" stroke="#939598" stroke-width="5" stroke-linecap="round" stroke-linejoin="round" stroke-miterlimit="10" points="
		160.75,176.5 81.75,207.75 10.5,172.75 89.25,142.5 	"/>
	<path fill="#7D7D7D" d="M103.5,182.834c0,0-6.5,3-20.25,3c-15.25,0-23.75-3-23.75-3s-33.292-22.75-54.792-48.25
		c-3.433-4.072-4.458-9.75-4.458-9.75h166c0,0-2.613,7.066-7.957,12.5C143.293,152.584,103.5,182.834,103.5,182.834z"/>
	<path fill="#939598" d="M83.25,0C37.272,0,0,14.326,0,32v89.5c0,17.674,37.272,32,83.25,32s83.25-14.326,83.25-32V32
		C166.5,14.326,129.228,0,83.25,0z"/>
	<g>
		<g>
			<ellipse fill="#BA6000" cx="9.063" cy="224.094" rx="5.813" ry="3.156"/>
			<ellipse fill="#BA6000" cx="9.063" cy="223.952" rx="5.813" ry="3.156"/>
			<ellipse fill="#BA6000" cx="9.063" cy="223.811" rx="5.813" ry="3.156"/>
			<ellipse fill="#BA6000" cx="9.063" cy="223.669" rx="5.813" ry="3.156"/>
			<ellipse fill="#BA6000" cx="9.063" cy="223.527" rx="5.813" ry="3.156"/>
			<ellipse fill="#BA6000" cx="9.063" cy="223.386" rx="5.813" ry="3.156"/>
			<ellipse fill="#BA6000" cx="9.063" cy="223.244" rx="5.813" ry="3.156"/>
			<ellipse fill="#BA6000" cx="9.063" cy="223.103" rx="5.813" ry="3.156"/>
			<ellipse fill="#BA6000" cx="9.063" cy="222.961" rx="5.813" ry="3.156"/>
			<ellipse fill="#BA6000" cx="9.063" cy="222.819" rx="5.813" ry="3.156"/>
			<ellipse fill="#BA6000" cx="9.063" cy="222.678" rx="5.813" ry="3.156"/>
			<ellipse fill="#BA6000" cx="9.063" cy="222.536" rx="5.813" ry="3.156"/>
			<ellipse fill="#BA6000" cx="9.063" cy="222.395" rx="5.813" ry="3.156"/>
			<ellipse fill="#BA6000" cx="9.063" cy="222.253" rx="5.813" ry="3.156"/>
			<ellipse fill="#BA6000" cx="9.063" cy="222.111" rx="5.813" ry="3.156"/>
			<ellipse fill="#BA6000" cx="9.063" cy="221.97" rx="5.813" ry="3.156"/>
			<ellipse fill="#BA6000" cx="9.063" cy="221.828" rx="5.813" ry="3.156"/>
			<ellipse fill="#BA6000" cx="9.063" cy="221.687" rx="5.813" ry="3.156"/>
			<ellipse fill="#BA6000" cx="9.063" cy="221.545" rx="5.813" ry="3.156"/>
			<ellipse fill="#BA6000" cx="9.063" cy="221.403" rx="5.813" ry="3.156"/>
			<ellipse fill="#BA6000" cx="9.063" cy="221.262" rx="5.813" ry="3.156"/>
			<ellipse fill="#BA6000" cx="9.063" cy="221.12" rx="5.813" ry="3.156"/>
			<ellipse fill="#BA6000" cx="9.063" cy="220.979" rx="5.813" ry="3.156"/>
			<ellipse fill="#BA6000" cx="9.063" cy="220.837" rx="5.813" ry="3.156"/>
			<ellipse fill="#BA6000" cx="9.063" cy="220.695" rx="5.813" ry="3.156"/>
			<ellipse fill="#BA6000" cx="9.063" cy="220.554" rx="5.813" ry="3.156"/>
			<ellipse fill="#BA6000" cx="9.063" cy="220.412" rx="5.813" ry="3.156"/>
			<ellipse fill="#BA6000" cx="9.063" cy="220.271" rx="5.813" ry="3.156"/>
			<ellipse fill="#BA6000" cx="9.063" cy="220.129" rx="5.813" ry="3.156"/>
			<ellipse fill="#BA6000" cx="9.063" cy="219.987" rx="5.813" ry="3.156"/>
			<ellipse fill="#BA6000" cx="9.063" cy="219.846" rx="5.813" ry="3.156"/>
			<ellipse fill="#BA6000" cx="9.063" cy="219.704" rx="5.813" ry="3.156"/>
			<ellipse fill="#BA6000" cx="9.063" cy="219.563" rx="5.813" ry="3.156"/>
			<ellipse fill="#BA6000" cx="9.063" cy="219.421" rx="5.813" ry="3.156"/>
			<ellipse fill="#FF8400" cx="9.063" cy="219.469" rx="5.813" ry="3.156"/>
		</g>
		<path fill="#939598" d="M12.25,220c0,0-0.5,0.654-3,0.654c-2.122,0-3-0.654-3-0.654v-87.75h6V220z"/>
	</g>
	<g>
		<g>
			<ellipse fill="#BA6000" cx="81.563" cy="249.094" rx="5.813" ry="3.156"/>
			<ellipse fill="#BA6000" cx="81.563" cy="248.952" rx="5.813" ry="3.156"/>
			<ellipse fill="#BA6000" cx="81.563" cy="248.811" rx="5.813" ry="3.156"/>
			<ellipse fill="#BA6000" cx="81.563" cy="248.669" rx="5.813" ry="3.156"/>
			<ellipse fill="#BA6000" cx="81.563" cy="248.527" rx="5.813" ry="3.156"/>
			<ellipse fill="#BA6000" cx="81.563" cy="248.386" rx="5.813" ry="3.156"/>
			<ellipse fill="#BA6000" cx="81.563" cy="248.244" rx="5.813" ry="3.156"/>
			<ellipse fill="#BA6000" cx="81.563" cy="248.103" rx="5.813" ry="3.156"/>
			<ellipse fill="#BA6000" cx="81.563" cy="247.961" rx="5.813" ry="3.156"/>
			<ellipse fill="#BA6000" cx="81.563" cy="247.819" rx="5.813" ry="3.156"/>
			<ellipse fill="#BA6000" cx="81.563" cy="247.678" rx="5.813" ry="3.156"/>
			<ellipse fill="#BA6000" cx="81.563" cy="247.536" rx="5.813" ry="3.156"/>
			<ellipse fill="#BA6000" cx="81.563" cy="247.395" rx="5.813" ry="3.156"/>
			<ellipse fill="#BA6000" cx="81.563" cy="247.253" rx="5.813" ry="3.156"/>
			<ellipse fill="#BA6000" cx="81.563" cy="247.111" rx="5.813" ry="3.156"/>
			<ellipse fill="#BA6000" cx="81.563" cy="246.97" rx="5.813" ry="3.156"/>
			<ellipse fill="#BA6000" cx="81.563" cy="246.828" rx="5.813" ry="3.156"/>
			<ellipse fill="#BA6000" cx="81.563" cy="246.687" rx="5.813" ry="3.156"/>
			<ellipse fill="#BA6000" cx="81.563" cy="246.545" rx="5.813" ry="3.156"/>
			<ellipse fill="#BA6000" cx="81.563" cy="246.403" rx="5.813" ry="3.156"/>
			<ellipse fill="#BA6000" cx="81.563" cy="246.262" rx="5.813" ry="3.156"/>
			<ellipse fill="#BA6000" cx="81.563" cy="246.12" rx="5.813" ry="3.156"/>
			<ellipse fill="#BA6000" cx="81.563" cy="245.979" rx="5.813" ry="3.156"/>
			<ellipse fill="#BA6000" cx="81.563" cy="245.837" rx="5.813" ry="3.156"/>
			<ellipse fill="#BA6000" cx="81.563" cy="245.695" rx="5.813" ry="3.156"/>
			<ellipse fill="#BA6000" cx="81.563" cy="245.554" rx="5.813" ry="3.156"/>
			<ellipse fill="#BA6000" cx="81.563" cy="245.412" rx="5.813" ry="3.156"/>
			<ellipse fill="#BA6000" cx="81.563" cy="245.271" rx="5.813" ry="3.156"/>
			<ellipse fill="#BA6000" cx="81.563" cy="245.129" rx="5.813" ry="3.156"/>
			<ellipse fill="#BA6000" cx="81.563" cy="244.987" rx="5.813" ry="3.156"/>
			<ellipse fill="#BA6000" cx="81.563" cy="244.846" rx="5.813" ry="3.156"/>
			<ellipse fill="#BA6000" cx="81.563" cy="244.704" rx="5.813" ry="3.156"/>
			<ellipse fill="#BA6000" cx="81.563" cy="244.563" rx="5.813" ry="3.156"/>
			<ellipse fill="#BA6000" cx="81.563" cy="244.421" rx="5.813" ry="3.156"/>
			<ellipse fill="#FF8400" cx="81.563" cy="244.469" rx="5.813" ry="3.156"/>
		</g>
		<path fill="#939598" d="M84.75,245c0,0-0.5,0.654-3,0.654c-2.122,0-3-0.654-3-0.654v-93.583h6V245z"/>
	</g>
	<g>
		<g>
			<ellipse fill="#BA6000" cx="158.813" cy="225.344" rx="5.813" ry="3.156"/>
			<ellipse fill="#BA6000" cx="158.813" cy="225.202" rx="5.813" ry="3.156"/>
			<ellipse fill="#BA6000" cx="158.813" cy="225.061" rx="5.813" ry="3.156"/>
			<ellipse fill="#BA6000" cx="158.813" cy="224.919" rx="5.813" ry="3.156"/>
			<ellipse fill="#BA6000" cx="158.813" cy="224.777" rx="5.813" ry="3.156"/>
			<ellipse fill="#BA6000" cx="158.813" cy="224.636" rx="5.813" ry="3.156"/>
			<ellipse fill="#BA6000" cx="158.813" cy="224.494" rx="5.813" ry="3.156"/>
			<ellipse fill="#BA6000" cx="158.813" cy="224.353" rx="5.813" ry="3.156"/>
			<ellipse fill="#BA6000" cx="158.813" cy="224.211" rx="5.813" ry="3.156"/>
			<ellipse fill="#BA6000" cx="158.813" cy="224.069" rx="5.813" ry="3.156"/>
			<ellipse fill="#BA6000" cx="158.813" cy="223.928" rx="5.813" ry="3.156"/>
			<ellipse fill="#BA6000" cx="158.813" cy="223.786" rx="5.813" ry="3.156"/>
			<ellipse fill="#BA6000" cx="158.813" cy="223.645" rx="5.813" ry="3.156"/>
			<ellipse fill="#BA6000" cx="158.813" cy="223.503" rx="5.813" ry="3.156"/>
			<ellipse fill="#BA6000" cx="158.813" cy="223.361" rx="5.813" ry="3.156"/>
			<ellipse fill="#BA6000" cx="158.813" cy="223.22" rx="5.813" ry="3.156"/>
			<ellipse fill="#BA6000" cx="158.813" cy="223.078" rx="5.813" ry="3.156"/>
			<ellipse fill="#BA6000" cx="158.813" cy="222.937" rx="5.813" ry="3.156"/>
			<ellipse fill="#BA6000" cx="158.813" cy="222.795" rx="5.813" ry="3.156"/>
			<ellipse fill="#BA6000" cx="158.813" cy="222.653" rx="5.813" ry="3.156"/>
			<ellipse fill="#BA6000" cx="158.813" cy="222.512" rx="5.813" ry="3.156"/>
			<ellipse fill="#BA6000" cx="158.813" cy="222.37" rx="5.813" ry="3.156"/>
			<ellipse fill="#BA6000" cx="158.813" cy="222.229" rx="5.813" ry="3.156"/>
			<ellipse fill="#BA6000" cx="158.813" cy="222.087" rx="5.813" ry="3.156"/>
			<ellipse fill="#BA6000" cx="158.813" cy="221.945" rx="5.813" ry="3.156"/>
			<ellipse fill="#BA6000" cx="158.813" cy="221.804" rx="5.813" ry="3.156"/>
			<ellipse fill="#BA6000" cx="158.813" cy="221.662" rx="5.813" ry="3.156"/>
			<ellipse fill="#BA6000" cx="158.813" cy="221.521" rx="5.813" ry="3.156"/>
			<ellipse fill="#BA6000" cx="158.813" cy="221.379" rx="5.813" ry="3.156"/>
			<ellipse fill="#BA6000" cx="158.813" cy="221.237" rx="5.813" ry="3.156"/>
			<ellipse fill="#BA6000" cx="158.813" cy="221.096" rx="5.813" ry="3.156"/>
			<ellipse fill="#BA6000" cx="158.813" cy="220.954" rx="5.813" ry="3.156"/>
			<ellipse fill="#BA6000" cx="158.813" cy="220.813" rx="5.813" ry="3.156"/>
			<ellipse fill="#BA6000" cx="158.813" cy="220.671" rx="5.813" ry="3.156"/>
			<ellipse fill="#FF8400" cx="158.813" cy="220.719" rx="5.813" ry="3.156"/>
		</g>
		<path fill="#939598" d="M162,221.25c0,0-0.5,0.654-3,0.654c-2.122,0-3-0.654-3-0.654v-91.5h6V221.25z"/>
	</g>
	<ellipse fill="#FF0000" cx="83.25" cy="32" rx="83.25" ry="32"/>
	<ellipse fill="#BCBEC2" cx="83.25" cy="32" rx="83.25" ry="32"/>
	<ellipse fill="#95979B" cx="83.25" cy="19.833" rx="13.689" ry="5.263"/>
	<ellipse fill="#95979B" cx="83.25" cy="19.691" rx="13.689" ry="5.262"/>
	<ellipse fill="#95979B" cx="83.25" cy="19.55" rx="13.689" ry="5.263"/>
	<ellipse fill="#95979B" cx="83.25" cy="19.408" rx="13.689" ry="5.262"/>
	<ellipse fill="#95979B" cx="83.25" cy="19.267" rx="13.689" ry="5.263"/>
	<ellipse fill="#95979B" cx="83.25" cy="19.125" rx="13.689" ry="5.262"/>
	<ellipse fill="#95979B" cx="83.25" cy="18.983" rx="13.689" ry="5.263"/>
	<ellipse fill="#95979B" cx="83.25" cy="18.842" rx="13.689" ry="5.262"/>
	<ellipse fill="#95979B" cx="83.25" cy="18.7" rx="13.689" ry="5.263"/>
	<ellipse fill="#95979B" cx="83.25" cy="18.559" rx="13.689" ry="5.262"/>
	<ellipse fill="#95979B" cx="83.25" cy="18.417" rx="13.689" ry="5.263"/>
	<ellipse fill="#95979B" cx="83.25" cy="18.275" rx="13.689" ry="5.262"/>
	<ellipse fill="#95979B" cx="83.25" cy="18.134" rx="13.689" ry="5.263"/>
	<ellipse fill="#95979B" cx="83.25" cy="17.992" rx="13.689" ry="5.262"/>
	<ellipse fill="#95979B" cx="83.25" cy="17.851" rx="13.689" ry="5.263"/>
	<ellipse fill="#95979B" cx="83.25" cy="17.709" rx="13.689" ry="5.262"/>
	<ellipse fill="#95979B" cx="83.25" cy="17.567" rx="13.689" ry="5.263"/>
	<ellipse fill="#95979B" cx="83.25" cy="17.426" rx="13.689" ry="5.262"/>
	<ellipse fill="#95979B" cx="83.25" cy="17.284" rx="13.689" ry="5.263"/>
	<ellipse fill="#95979B" cx="83.25" cy="17.143" rx="13.689" ry="5.262"/>
	<ellipse fill="#95979B" cx="83.25" cy="17.001" rx="13.689" ry="5.263"/>
	<ellipse fill="#95979B" cx="83.25" cy="16.859" rx="13.689" ry="5.262"/>
	<ellipse fill="#95979B" cx="83.25" cy="16.718" rx="13.689" ry="5.263"/>
	<ellipse fill="#95979B" cx="83.25" cy="16.576" rx="13.689" ry="5.262"/>
	<ellipse fill="#95979B" cx="83.25" cy="16.435" rx="13.689" ry="5.263"/>
	<ellipse fill="#95979B" cx="83.25" cy="16.293" rx="13.689" ry="5.262"/>
	<ellipse fill="#95979B" cx="83.25" cy="16.151" rx="13.689" ry="5.263"/>
	<ellipse fill="#95979B" cx="83.25" cy="16.01" rx="13.689" ry="5.262"/>
	<ellipse fill="#95979B" cx="83.25" cy="15.868" rx="13.689" ry="5.263"/>
	<ellipse fill="#95979B" cx="83.25" cy="15.727" rx="13.689" ry="5.262"/>
	<ellipse fill="#95979B" cx="83.25" cy="15.585" rx="13.689" ry="5.263"/>
	<ellipse fill="#95979B" cx="83.25" cy="15.443" rx="13.689" ry="5.262"/>
	<ellipse fill="#95979B" cx="83.25" cy="15.302" rx="13.689" ry="5.263"/>
	<ellipse fill="#95979B" cx="83.25" cy="15.16" rx="13.689" ry="5.262"/>
	<ellipse fill="#95979B" cx="83.25" cy="15.019" rx="13.689" ry="5.263"/>
	<ellipse fill="#95979B" cx="83.25" cy="14.877" rx="13.689" ry="5.262"/>
	<ellipse fill="#95979B" cx="83.25" cy="14.735" rx="13.689" ry="5.263"/>
	<ellipse fill="#95979B" cx="83.25" cy="14.594" rx="13.689" ry="5.262"/>
	<ellipse fill="#95979B" cx="83.25" cy="14.452" rx="13.689" ry="5.263"/>
	<ellipse fill="#95979B" cx="83.25" cy="14.311" rx="13.689" ry="5.262"/>
	<ellipse fill="#95979B" cx="83.25" cy="14.169" rx="13.689" ry="5.263"/>
	<ellipse fill="#95979B" cx="83.25" cy="14.027" rx="13.689" ry="5.262"/>
	<ellipse fill="#95979B" cx="83.25" cy="13.886" rx="13.689" ry="5.263"/>
	<ellipse fill="#95979B" cx="83.25" cy="13.744" rx="13.689" ry="5.262"/>
	<ellipse fill="#95979B" cx="83.25" cy="13.603" rx="13.689" ry="5.263"/>
	<ellipse fill="#95979B" cx="83.25" cy="13.461" rx="13.689" ry="5.262"/>
	<ellipse fill="#95979B" cx="83.25" cy="13.319" rx="13.689" ry="5.263"/>
	<ellipse fill="#95979B" cx="83.25" cy="13.178" rx="13.689" ry="5.262"/>
	<ellipse fill="#DEDEDE" cx="83.25" cy="13" rx="13.689" ry="5.262"/>
	<path fill="#DDDEE0" d="M5.587,39l63.974-19.167v-1.841L5.587,27.167C5.587,27.167,2.254,32.667,5.587,39z"/>
	<polygon fill="#BA6000" points="26.999,93.75 16.999,88.125 16.999,76.75 26.999,82.375 	"/>
	<polygon fill="#BA6000" points="26.857,93.75 16.857,88.125 16.857,76.75 26.857,82.375 	"/>
	<polygon fill="#BA6000" points="26.716,93.75 16.716,88.125 16.716,76.75 26.716,82.375 	"/>
	<polygon fill="#BA6000" points="26.574,93.75 16.574,88.125 16.574,76.75 26.574,82.375 	"/>
	<polygon fill="#BA6000" points="26.433,93.75 16.433,88.125 16.433,76.75 26.433,82.375 	"/>
	<polygon fill="#BA6000" points="26.291,93.75 16.291,88.125 16.291,76.75 26.291,82.375 	"/>
	<polygon fill="#BA6000" points="26.149,93.75 16.149,88.125 16.149,76.75 26.149,82.375 	"/>
	<polygon fill="#BA6000" points="26.008,93.75 16.008,88.125 16.008,76.75 26.008,82.375 	"/>
	<polygon fill="#BA6000" points="25.866,93.75 15.866,88.125 15.866,76.75 25.866,82.375 	"/>
	<polygon fill="#BA6000" points="25.725,93.75 15.725,88.125 15.725,76.75 25.725,82.375 	"/>
	<polygon fill="#BA6000" points="25.583,93.75 15.583,88.125 15.583,76.75 25.583,82.375 	"/>
	<polygon fill="#BA6000" points="25.441,93.75 15.441,88.125 15.441,76.75 25.441,82.375 	"/>
	<polygon fill="#BA6000" points="25.3,93.75 15.3,88.125 15.3,76.75 25.3,82.375 	"/>
	<polygon fill="#BA6000" points="25.158,93.75 15.158,88.125 15.158,76.75 25.158,82.375 	"/>
	<polygon fill="#BA6000" points="25.017,93.75 15.017,88.125 15.017,76.75 25.017,82.375 	"/>
	<polygon fill="#FF8400" points="24.875,93.75 14.875,88.125 14.875,76.75 24.875,82.375 	"/>
	<polygon fill="#FFFFFF" points="23.583,88 15.724,83.578 15.724,79 23.583,83.422 	"/>
	<polygon fill="#BA6000" points="23.583,88 15.724,83.578 15.724,82.786 23.583,87.209 	"/>
	<polygon fill="#BA6000" points="26.999,117.75 16.999,112.125 16.999,100.75 26.999,106.375 	"/>
	<polygon fill="#BA6000" points="26.857,117.75 16.857,112.125 16.857,100.75 26.857,106.375 	"/>
	<polygon fill="#BA6000" points="26.716,117.75 16.716,112.125 16.716,100.75 26.716,106.375 	"/>
	<polygon fill="#BA6000" points="26.574,117.75 16.574,112.125 16.574,100.75 26.574,106.375 	"/>
	<polygon fill="#BA6000" points="26.433,117.75 16.433,112.125 16.433,100.75 26.433,106.375 	"/>
	<polygon fill="#BA6000" points="26.291,117.75 16.291,112.125 16.291,100.75 26.291,106.375 	"/>
	<polygon fill="#BA6000" points="26.149,117.75 16.149,112.125 16.149,100.75 26.149,106.375 	"/>
	<polygon fill="#BA6000" points="26.008,117.75 16.008,112.125 16.008,100.75 26.008,106.375 	"/>
	<polygon fill="#BA6000" points="25.866,117.75 15.866,112.125 15.866,100.75 25.866,106.375 	"/>
	<polygon fill="#BA6000" points="25.725,117.75 15.725,112.125 15.725,100.75 25.725,106.375 	"/>
	<polygon fill="#BA6000" points="25.583,117.75 15.583,112.125 15.583,100.75 25.583,106.375 	"/>
	<polygon fill="#BA6000" points="25.441,117.75 15.441,112.125 15.441,100.75 25.441,106.375 	"/>
	<polygon fill="#BA6000" points="25.3,117.75 15.3,112.125 15.3,100.75 25.3,106.375 	"/>
	<polygon fill="#BA6000" points="25.158,117.75 15.158,112.125 15.158,100.75 25.158,106.375 	"/>
	<polygon fill="#BA6000" points="25.017,117.75 15.017,112.125 15.017,100.75 25.017,106.375 	"/>
	<polygon fill="#FF8400" points="24.875,117.75 14.875,112.125 14.875,100.75 24.875,106.375 	"/>
	<polygon fill="#FFFFFF" points="23.583,112 15.724,107.578 15.724,103 23.583,107.422 	"/>
	<polygon fill="#BA6000" points="23.583,112 15.724,107.578 15.724,106.786 23.583,111.209 	"/>
</g>
</svg>
