<?xml version="1.0" encoding="utf-8"?>
<!-- Generator: Adobe Illustrator 16.0.0, SVG Export Plug-In . SVG Version: 6.00 Build 0)  -->
<!DOCTYPE svg PUBLIC "-//W3C//DTD SVG 1.1//EN" "http://www.w3.org/Graphics/SVG/1.1/DTD/svg11.dtd">
<svg preserveAspectRatio="none"   version="1.1" id="图层_1" xmlns="http://www.w3.org/2000/svg" xmlns:xlink="http://www.w3.org/1999/xlink" x="0px" y="0px"
	 width="55px" height="116px" viewBox="0 0 55 116" enable-background="new 0 0 55 116" xml:space="preserve">
<g>
	<g>
		<path fill="#D8D8D8" d="M27,114.5c-14.061,0-25.5-11.439-25.5-25.5V27C1.5,12.939,12.939,1.5,27,1.5h1
			c14.061,0,25.5,11.439,25.5,25.5v62c0,14.061-11.439,25.5-25.5,25.5H27z"/>
		<path fill="#595959" d="M28,3c13.233,0,24,10.767,24,24v62c0,13.233-10.767,24-24,24h-1c-13.233,0-24-10.767-24-24V27
			C3,13.767,13.767,3,27,3H28 M28,0h-1C12.15,0,0,12.15,0,27v62c0,14.85,12.15,27,27,27h1c14.85,0,27-12.15,27-27V27
			C55,12.15,42.85,0,28,0L28,0z"/>
	</g>
	<rect x="4" y="34.5" fill="#333333" width="47" height="50"/>
	<rect x="10.417" y="36.667" fill="#4D6A2D" width="34.166" height="45.667"/>
	<rect x="6.249" y="55.501" fill="#7ED321" width="42.501" height="7.999"/>
</g>
</svg>
