<?xml version="1.0" encoding="utf-8"?>
<!-- Generator: Adobe Illustrator 16.0.0, SVG Export Plug-In . SVG Version: 6.00 Build 0)  -->
<!DOCTYPE svg PUBLIC "-//W3C//DTD SVG 1.1//EN" "http://www.w3.org/Graphics/SVG/1.1/DTD/svg11.dtd">
<svg preserveAspectRatio="none" version="1.1" id="图层_1" xmlns="http://www.w3.org/2000/svg" xmlns:xlink="http://www.w3.org/1999/xlink" x="0px" y="0px"
	 width="184.844px" height="115.426px" viewBox="0.418 5.285 184.844 115.426" enable-background="new 0.418 5.285 184.844 115.426"
	 xml:space="preserve">
<g id="surface186">
	
		<linearGradient id="SVGID_1_" gradientUnits="userSpaceOnUse" x1="307.7139" y1="-313.1128" x2="307.7139" y2="-416.1128" gradientTransform="matrix(0.75 0 0 -0.75 -162.106 -200.5254)">
		<stop  offset="0" style="stop-color:#70737A"/>
		<stop  offset="0.15" style="stop-color:#9DA0A8"/>
		<stop  offset="0.25" style="stop-color:#CDCED2"/>
		<stop  offset="0.44" style="stop-color:#81848B"/>
		<stop  offset="0.6" style="stop-color:#72757C"/>
		<stop  offset="0.8" style="stop-color:#5F6168"/>
		<stop  offset="0.97" style="stop-color:#57595E"/>
		<stop  offset="1" style="stop-color:#75777F"/>
	</linearGradient>
	<path fill="url(#SVGID_1_)" d="M37.18,34.309h63v77.25h-63V34.309z"/>
	
		<linearGradient id="SVGID_2_" gradientUnits="userSpaceOnUse" x1="279.7109" y1="-313.1118" x2="279.7109" y2="-423.1118" gradientTransform="matrix(0.75 0 0 -0.75 -182.7837 -204.1777)">
		<stop  offset="0" style="stop-color:#70737A"/>
		<stop  offset="0.15" style="stop-color:#9DA0A8"/>
		<stop  offset="0.25" style="stop-color:#CDCED2"/>
		<stop  offset="0.44" style="stop-color:#81848B"/>
		<stop  offset="0.6" style="stop-color:#72757C"/>
		<stop  offset="0.8" style="stop-color:#5F6168"/>
		<stop  offset="0.97" style="stop-color:#57595E"/>
		<stop  offset="1" style="stop-color:#75777F"/>
	</linearGradient>
	<path fill="url(#SVGID_2_)" d="M16.5,30.656h21v82.5h-21V30.656z"/>
	
		<linearGradient id="SVGID_3_" gradientUnits="userSpaceOnUse" x1="276.7129" y1="-313.1118" x2="276.7129" y2="-423.1118" gradientTransform="matrix(0.75 0 0 -0.75 -198.8667 -204.1777)">
		<stop  offset="0" style="stop-color:#70737A"/>
		<stop  offset="0.15" style="stop-color:#9DA0A8"/>
		<stop  offset="0.25" style="stop-color:#CDCED2"/>
		<stop  offset="0.44" style="stop-color:#81848B"/>
		<stop  offset="0.6" style="stop-color:#72757C"/>
		<stop  offset="0.8" style="stop-color:#5F6168"/>
		<stop  offset="0.97" style="stop-color:#57595E"/>
		<stop  offset="1" style="stop-color:#75777F"/>
	</linearGradient>
	<path fill="url(#SVGID_3_)" d="M16.918,30.656v82.5c0,0-16.5-0.23-16.5-41.109c0-40.641,16.273-41.391,16.273-41.391H16.918z"/>
	
		<linearGradient id="SVGID_4_" gradientUnits="userSpaceOnUse" x1="477.1113" y1="-134.2148" x2="470.1113" y2="-134.2148" gradientTransform="matrix(0 0.75 -0.75 0 -45.8887 -323.6577)">
		<stop  offset="0" style="stop-color:#4B4D52"/>
		<stop  offset="0.03" style="stop-color:#9A9B9F"/>
		<stop  offset="0.08" style="stop-color:#64676C"/>
		<stop  offset="0.64" style="stop-color:#62656A"/>
		<stop  offset="0.95" style="stop-color:#606268"/>
		<stop  offset="1" style="stop-color:#45474B"/>
	</linearGradient>
	<path fill="url(#SVGID_4_)" d="M35.648,28.926l3.75,5.25h30.75l3.75-5.25H35.648z"/>
	
		<linearGradient id="SVGID_5_" gradientUnits="userSpaceOnUse" x1="316.7139" y1="-329.1123" x2="265.7139" y2="-329.1123" gradientTransform="matrix(0.75 0 0 -0.75 -163.6382 -229.5508)">
		<stop  offset="0" style="stop-color:#54575C"/>
		<stop  offset="0.03" style="stop-color:#A1A3A7"/>
		<stop  offset="0.08" style="stop-color:#707379"/>
		<stop  offset="0.64" style="stop-color:#6E7177"/>
		<stop  offset="0.95" style="stop-color:#6B6E74"/>
		<stop  offset="1" style="stop-color:#4E5055"/>
	</linearGradient>
	<path fill="url(#SVGID_5_)" d="M35.648,29.285h38.25v-24h-38.25V29.285z"/>
	
		<linearGradient id="SVGID_6_" gradientUnits="userSpaceOnUse" x1="316.7119" y1="-314.1104" x2="265.7119" y2="-314.1104" gradientTransform="matrix(0.75 0 0 -0.75 -163.543 -220.9004)">
		<stop  offset="0" style="stop-color:#4B4D52"/>
		<stop  offset="0.03" style="stop-color:#9A9B9F"/>
		<stop  offset="0.08" style="stop-color:#64676C"/>
		<stop  offset="0.64" style="stop-color:#62656A"/>
		<stop  offset="0.95" style="stop-color:#606268"/>
		<stop  offset="1" style="stop-color:#45474B"/>
	</linearGradient>
	<path fill="url(#SVGID_6_)" d="M35.742,15.434h38.25v-1.5h-38.25V15.434z"/>
	
		<linearGradient id="SVGID_7_" gradientUnits="userSpaceOnUse" x1="272.7119" y1="-319.1128" x2="265.7119" y2="-319.1128" gradientTransform="matrix(0.75 0 0 -0.75 -163.543 -229.5508)">
		<stop  offset="0" style="stop-color:#4B4D52"/>
		<stop  offset="0.03" style="stop-color:#9A9B9F"/>
		<stop  offset="0.08" style="stop-color:#64676C"/>
		<stop  offset="0.64" style="stop-color:#62656A"/>
		<stop  offset="0.95" style="stop-color:#606268"/>
		<stop  offset="1" style="stop-color:#45474B"/>
	</linearGradient>
	<path fill="url(#SVGID_7_)" d="M35.742,14.285h5.25v-9h-5.25V14.285z"/>
	
		<linearGradient id="SVGID_8_" gradientUnits="userSpaceOnUse" x1="272.71" y1="-319.1128" x2="265.71" y2="-319.1128" gradientTransform="matrix(0.75 0 0 -0.75 -130.9941 -229.5508)">
		<stop  offset="0" style="stop-color:#4B4D52"/>
		<stop  offset="0.03" style="stop-color:#9A9B9F"/>
		<stop  offset="0.08" style="stop-color:#64676C"/>
		<stop  offset="0.64" style="stop-color:#62656A"/>
		<stop  offset="0.95" style="stop-color:#606268"/>
		<stop  offset="1" style="stop-color:#45474B"/>
	</linearGradient>
	<path fill="url(#SVGID_8_)" d="M68.289,14.285h5.25v-9h-5.25V14.285z"/>
	
		<linearGradient id="SVGID_9_" gradientUnits="userSpaceOnUse" x1="307.7139" y1="-313.1157" x2="307.7139" y2="-316.1157" gradientTransform="matrix(0.75 0 0 -0.75 -162.106 -192.2578)">
		<stop  offset="0" style="stop-color:#70737A"/>
		<stop  offset="0.15" style="stop-color:#9DA0A8"/>
		<stop  offset="0.25" style="stop-color:#CDCED2"/>
		<stop  offset="0.44" style="stop-color:#81848B"/>
		<stop  offset="0.6" style="stop-color:#72757C"/>
		<stop  offset="0.8" style="stop-color:#5F6168"/>
		<stop  offset="0.97" style="stop-color:#57595E"/>
		<stop  offset="1" style="stop-color:#75777F"/>
	</linearGradient>
	<path fill="url(#SVGID_9_)" d="M37.18,42.578h63v2.25h-63V42.578z"/>
	
		<linearGradient id="SVGID_10_" gradientUnits="userSpaceOnUse" x1="307.7139" y1="-313.1157" x2="307.7139" y2="-316.1157" gradientTransform="matrix(0.75 0 0 -0.75 -162.106 -181.6172)">
		<stop  offset="0" style="stop-color:#70737A"/>
		<stop  offset="0.15" style="stop-color:#9DA0A8"/>
		<stop  offset="0.25" style="stop-color:#CDCED2"/>
		<stop  offset="0.44" style="stop-color:#81848B"/>
		<stop  offset="0.6" style="stop-color:#72757C"/>
		<stop  offset="0.8" style="stop-color:#5F6168"/>
		<stop  offset="0.97" style="stop-color:#57595E"/>
		<stop  offset="1" style="stop-color:#75777F"/>
	</linearGradient>
	<path fill="url(#SVGID_10_)" d="M37.18,53.219h63v2.25h-63V53.219z"/>
	
		<linearGradient id="SVGID_11_" gradientUnits="userSpaceOnUse" x1="307.7139" y1="-313.1157" x2="307.7139" y2="-316.1157" gradientTransform="matrix(0.75 0 0 -0.75 -162.106 -176.2969)">
		<stop  offset="0" style="stop-color:#70737A"/>
		<stop  offset="0.15" style="stop-color:#9DA0A8"/>
		<stop  offset="0.25" style="stop-color:#CDCED2"/>
		<stop  offset="0.44" style="stop-color:#81848B"/>
		<stop  offset="0.6" style="stop-color:#72757C"/>
		<stop  offset="0.8" style="stop-color:#5F6168"/>
		<stop  offset="0.97" style="stop-color:#57595E"/>
		<stop  offset="1" style="stop-color:#75777F"/>
	</linearGradient>
	<path fill="url(#SVGID_11_)" d="M37.18,58.539h63v2.25h-63V58.539z"/>
	
		<linearGradient id="SVGID_12_" gradientUnits="userSpaceOnUse" x1="307.7139" y1="-313.1157" x2="307.7139" y2="-316.1157" gradientTransform="matrix(0.75 0 0 -0.75 -162.106 -170.9766)">
		<stop  offset="0" style="stop-color:#70737A"/>
		<stop  offset="0.15" style="stop-color:#9DA0A8"/>
		<stop  offset="0.25" style="stop-color:#CDCED2"/>
		<stop  offset="0.44" style="stop-color:#81848B"/>
		<stop  offset="0.6" style="stop-color:#72757C"/>
		<stop  offset="0.8" style="stop-color:#5F6168"/>
		<stop  offset="0.97" style="stop-color:#57595E"/>
		<stop  offset="1" style="stop-color:#75777F"/>
	</linearGradient>
	<path fill="url(#SVGID_12_)" d="M37.18,63.859h63v2.25h-63V63.859z"/>
	
		<linearGradient id="SVGID_13_" gradientUnits="userSpaceOnUse" x1="307.7139" y1="-313.1157" x2="307.7139" y2="-316.1157" gradientTransform="matrix(0.75 0 0 -0.75 -162.106 -165.6563)">
		<stop  offset="0" style="stop-color:#70737A"/>
		<stop  offset="0.15" style="stop-color:#9DA0A8"/>
		<stop  offset="0.25" style="stop-color:#CDCED2"/>
		<stop  offset="0.44" style="stop-color:#81848B"/>
		<stop  offset="0.6" style="stop-color:#72757C"/>
		<stop  offset="0.8" style="stop-color:#5F6168"/>
		<stop  offset="0.97" style="stop-color:#57595E"/>
		<stop  offset="1" style="stop-color:#75777F"/>
	</linearGradient>
	<path fill="url(#SVGID_13_)" d="M37.18,69.18h63v2.25h-63V69.18z"/>
	
		<linearGradient id="SVGID_14_" gradientUnits="userSpaceOnUse" x1="307.7139" y1="-313.1138" x2="307.7139" y2="-316.1138" gradientTransform="matrix(0.75 0 0 -0.75 -162.106 -160.335)">
		<stop  offset="0" style="stop-color:#70737A"/>
		<stop  offset="0.15" style="stop-color:#9DA0A8"/>
		<stop  offset="0.25" style="stop-color:#CDCED2"/>
		<stop  offset="0.44" style="stop-color:#81848B"/>
		<stop  offset="0.6" style="stop-color:#72757C"/>
		<stop  offset="0.8" style="stop-color:#5F6168"/>
		<stop  offset="0.97" style="stop-color:#57595E"/>
		<stop  offset="1" style="stop-color:#75777F"/>
	</linearGradient>
	<path fill="url(#SVGID_14_)" d="M37.18,74.5h63v2.25h-63V74.5z"/>
	
		<linearGradient id="SVGID_15_" gradientUnits="userSpaceOnUse" x1="307.7139" y1="-313.1138" x2="307.7139" y2="-316.1138" gradientTransform="matrix(0.75 0 0 -0.75 -162.106 -155.0146)">
		<stop  offset="0" style="stop-color:#70737A"/>
		<stop  offset="0.15" style="stop-color:#9DA0A8"/>
		<stop  offset="0.25" style="stop-color:#CDCED2"/>
		<stop  offset="0.44" style="stop-color:#81848B"/>
		<stop  offset="0.6" style="stop-color:#72757C"/>
		<stop  offset="0.8" style="stop-color:#5F6168"/>
		<stop  offset="0.97" style="stop-color:#57595E"/>
		<stop  offset="1" style="stop-color:#75777F"/>
	</linearGradient>
	<path fill="url(#SVGID_15_)" d="M37.18,79.82h63v2.25h-63V79.82z"/>
	
		<linearGradient id="SVGID_16_" gradientUnits="userSpaceOnUse" x1="307.7139" y1="-313.1138" x2="307.7139" y2="-316.1138" gradientTransform="matrix(0.75 0 0 -0.75 -162.106 -149.6943)">
		<stop  offset="0" style="stop-color:#70737A"/>
		<stop  offset="0.15" style="stop-color:#9DA0A8"/>
		<stop  offset="0.25" style="stop-color:#CDCED2"/>
		<stop  offset="0.44" style="stop-color:#81848B"/>
		<stop  offset="0.6" style="stop-color:#72757C"/>
		<stop  offset="0.8" style="stop-color:#5F6168"/>
		<stop  offset="0.97" style="stop-color:#57595E"/>
		<stop  offset="1" style="stop-color:#75777F"/>
	</linearGradient>
	<path fill="url(#SVGID_16_)" d="M37.18,85.141h63v2.25h-63V85.141z"/>
	
		<linearGradient id="SVGID_17_" gradientUnits="userSpaceOnUse" x1="307.7139" y1="-313.1138" x2="307.7139" y2="-316.1138" gradientTransform="matrix(0.75 0 0 -0.75 -162.106 -144.374)">
		<stop  offset="0" style="stop-color:#70737A"/>
		<stop  offset="0.15" style="stop-color:#9DA0A8"/>
		<stop  offset="0.25" style="stop-color:#CDCED2"/>
		<stop  offset="0.44" style="stop-color:#81848B"/>
		<stop  offset="0.6" style="stop-color:#72757C"/>
		<stop  offset="0.8" style="stop-color:#5F6168"/>
		<stop  offset="0.97" style="stop-color:#57595E"/>
		<stop  offset="1" style="stop-color:#75777F"/>
	</linearGradient>
	<path fill="url(#SVGID_17_)" d="M37.18,90.461h63v2.25h-63V90.461z"/>
	
		<linearGradient id="SVGID_18_" gradientUnits="userSpaceOnUse" x1="307.7139" y1="-313.1118" x2="307.7139" y2="-316.1118" gradientTransform="matrix(0.75 0 0 -0.75 -162.106 -139.0527)">
		<stop  offset="0" style="stop-color:#70737A"/>
		<stop  offset="0.15" style="stop-color:#9DA0A8"/>
		<stop  offset="0.25" style="stop-color:#CDCED2"/>
		<stop  offset="0.44" style="stop-color:#81848B"/>
		<stop  offset="0.6" style="stop-color:#72757C"/>
		<stop  offset="0.8" style="stop-color:#5F6168"/>
		<stop  offset="0.97" style="stop-color:#57595E"/>
		<stop  offset="1" style="stop-color:#75777F"/>
	</linearGradient>
	<path fill="url(#SVGID_18_)" d="M37.18,95.781h63v2.25h-63V95.781z"/>
	
		<linearGradient id="SVGID_19_" gradientUnits="userSpaceOnUse" x1="307.7139" y1="-313.1118" x2="307.7139" y2="-316.1118" gradientTransform="matrix(0.75 0 0 -0.75 -162.106 -133.7324)">
		<stop  offset="0" style="stop-color:#70737A"/>
		<stop  offset="0.15" style="stop-color:#9DA0A8"/>
		<stop  offset="0.25" style="stop-color:#CDCED2"/>
		<stop  offset="0.44" style="stop-color:#81848B"/>
		<stop  offset="0.6" style="stop-color:#72757C"/>
		<stop  offset="0.8" style="stop-color:#5F6168"/>
		<stop  offset="0.97" style="stop-color:#57595E"/>
		<stop  offset="1" style="stop-color:#75777F"/>
	</linearGradient>
	<path fill="url(#SVGID_19_)" d="M37.18,101.102h63v2.25h-63V101.102z"/>
	
		<linearGradient id="SVGID_20_" gradientUnits="userSpaceOnUse" x1="307.7139" y1="-313.1118" x2="307.7139" y2="-316.1118" gradientTransform="matrix(0.75 0 0 -0.75 -162.106 -128.4121)">
		<stop  offset="0" style="stop-color:#70737A"/>
		<stop  offset="0.15" style="stop-color:#9DA0A8"/>
		<stop  offset="0.25" style="stop-color:#CDCED2"/>
		<stop  offset="0.44" style="stop-color:#81848B"/>
		<stop  offset="0.6" style="stop-color:#72757C"/>
		<stop  offset="0.8" style="stop-color:#5F6168"/>
		<stop  offset="0.97" style="stop-color:#57595E"/>
		<stop  offset="1" style="stop-color:#75777F"/>
	</linearGradient>
	<path fill="url(#SVGID_20_)" d="M37.18,106.422h63v2.25h-63V106.422z"/>
	
		<linearGradient id="SVGID_21_" gradientUnits="userSpaceOnUse" x1="307.7139" y1="-313.1157" x2="307.7139" y2="-316.1157" gradientTransform="matrix(0.75 0 0 -0.75 -162.106 -197.5781)">
		<stop  offset="0" style="stop-color:#70737A"/>
		<stop  offset="0.15" style="stop-color:#9DA0A8"/>
		<stop  offset="0.25" style="stop-color:#CDCED2"/>
		<stop  offset="0.44" style="stop-color:#81848B"/>
		<stop  offset="0.6" style="stop-color:#72757C"/>
		<stop  offset="0.8" style="stop-color:#5F6168"/>
		<stop  offset="0.97" style="stop-color:#57595E"/>
		<stop  offset="1" style="stop-color:#75777F"/>
	</linearGradient>
	<path fill="url(#SVGID_21_)" d="M37.18,37.258h63v2.25h-63V37.258z"/>
	
		<linearGradient id="SVGID_22_" gradientUnits="userSpaceOnUse" x1="307.7139" y1="-313.1138" x2="307.7139" y2="-316.1138" gradientTransform="matrix(0.75 0 0 -0.75 -162.106 -187.2334)">
		<stop  offset="0" style="stop-color:#70737A"/>
		<stop  offset="0.15" style="stop-color:#9DA0A8"/>
		<stop  offset="0.25" style="stop-color:#CDCED2"/>
		<stop  offset="0.44" style="stop-color:#81848B"/>
		<stop  offset="0.6" style="stop-color:#72757C"/>
		<stop  offset="0.8" style="stop-color:#5F6168"/>
		<stop  offset="0.97" style="stop-color:#57595E"/>
		<stop  offset="1" style="stop-color:#75777F"/>
	</linearGradient>
	<path fill="url(#SVGID_22_)" d="M37.18,47.602h63v2.25h-63V47.602z"/>
	
		<linearGradient id="SVGID_23_" gradientUnits="userSpaceOnUse" x1="266.7119" y1="-313.1118" x2="266.7119" y2="-423.1118" gradientTransform="matrix(0.75 0 0 -0.75 -182.2222 -204.1777)">
		<stop  offset="0" style="stop-color:#5C5F67"/>
		<stop  offset="0.15" style="stop-color:#878A93"/>
		<stop  offset="0.25" style="stop-color:#C5C6C9"/>
		<stop  offset="0.44" style="stop-color:#6A6D76"/>
		<stop  offset="0.6" style="stop-color:#5E6169"/>
		<stop  offset="0.8" style="stop-color:#4E5157"/>
		<stop  offset="0.97" style="stop-color:#47494F"/>
		<stop  offset="1" style="stop-color:#60636B"/>
	</linearGradient>
	<path fill="url(#SVGID_23_)" d="M17.063,30.656h1.5v82.5h-1.5V30.656z"/>
	
		<linearGradient id="SVGID_24_" gradientUnits="userSpaceOnUse" x1="273.9932" y1="-317.2676" x2="265.7119" y2="-317.2676" gradientTransform="matrix(0.75 0 0 -0.75 -175.5576 -166.168)">
		<stop  offset="0" style="stop-color:#C4AA84"/>
		<stop  offset="0.15" style="stop-color:#FFE0B3"/>
		<stop  offset="0.25" style="stop-color:#FFEED7"/>
		<stop  offset="0.44" style="stop-color:#DFC297"/>
		<stop  offset="0.6" style="stop-color:#C7AD86"/>
		<stop  offset="0.8" style="stop-color:#A89170"/>
		<stop  offset="0.97" style="stop-color:#998566"/>
		<stop  offset="1" style="stop-color:#CBB189"/>
	</linearGradient>
	<path fill="url(#SVGID_24_)" d="M23.727,71.668c0-1.5,1.391-3,3.105-3c1.395,0,3.105,1.395,3.105,3.113
		c-0.211,1.387-1.391,3.117-3.105,3.117c-1.605-0.23-3.105-1.395-3.105-3.117V71.668z"/>
	<path fill="#9C8059" d="M25.508,69.98c0,0,0.164,0.082,0.324,0.238l2.328,2.414c0.531,0.527,0.395,0.566,0.238,0.727
		c-0.238,0.332-0.414,0.156-0.57,0l-2.32-2.32c-0.527-0.527-0.406-0.66-0.246-0.82L25.508,69.98z"/>
	<path fill="#9C8059" d="M28.637,70.469c0,0-0.086,0.164-0.242,0.32l-2.41,2.332c-0.531,0.531-0.57,0.395-0.727,0.238
		c-0.336-0.238-0.16-0.414,0-0.57l2.316-2.32c0.531-0.527,0.664-0.406,0.82-0.25L28.637,70.469z"/>
	
		<linearGradient id="SVGID_25_" gradientUnits="userSpaceOnUse" x1="266.7109" y1="-313.1128" x2="266.7109" y2="-416.1128" gradientTransform="matrix(0.75 0 0 -0.75 -100.0532 -200.5254)">
		<stop  offset="0" style="stop-color:#5C5F67"/>
		<stop  offset="0.15" style="stop-color:#878A93"/>
		<stop  offset="0.25" style="stop-color:#C5C6C9"/>
		<stop  offset="0.44" style="stop-color:#6A6D76"/>
		<stop  offset="0.6" style="stop-color:#5E6169"/>
		<stop  offset="0.8" style="stop-color:#4E5157"/>
		<stop  offset="0.97" style="stop-color:#47494F"/>
		<stop  offset="1" style="stop-color:#60636B"/>
	</linearGradient>
	<path fill="url(#SVGID_25_)" d="M99.23,34.309h1.5v77.25h-1.5V34.309z"/>
	
		<linearGradient id="SVGID_26_" gradientUnits="userSpaceOnUse" x1="297.2148" y1="-313.1118" x2="297.2148" y2="-423.1118" gradientTransform="matrix(0.75 0 0 -0.75 -98.7319 -204.1777)">
		<stop  offset="0" style="stop-color:#70737A"/>
		<stop  offset="0.15" style="stop-color:#9DA0A8"/>
		<stop  offset="0.25" style="stop-color:#CDCED2"/>
		<stop  offset="0.44" style="stop-color:#81848B"/>
		<stop  offset="0.6" style="stop-color:#72757C"/>
		<stop  offset="0.8" style="stop-color:#5F6168"/>
		<stop  offset="0.97" style="stop-color:#57595E"/>
		<stop  offset="1" style="stop-color:#75777F"/>
	</linearGradient>
	<path fill="url(#SVGID_26_)" d="M100.555,30.656h47.25v82.5h-47.25V30.656z"/>
	
		<linearGradient id="SVGID_27_" gradientUnits="userSpaceOnUse" x1="270.4365" y1="-313.1128" x2="270.4365" y2="-443.5659" gradientTransform="matrix(0.75 0 0 -0.75 -51.8237 -211.9629)">
		<stop  offset="0" style="stop-color:#70737A"/>
		<stop  offset="0.15" style="stop-color:#9DA0A8"/>
		<stop  offset="0.25" style="stop-color:#CDCED2"/>
		<stop  offset="0.44" style="stop-color:#81848B"/>
		<stop  offset="0.6" style="stop-color:#72757C"/>
		<stop  offset="0.8" style="stop-color:#5F6168"/>
		<stop  offset="0.97" style="stop-color:#57595E"/>
		<stop  offset="1" style="stop-color:#75777F"/>
	</linearGradient>
	<path fill="url(#SVGID_27_)" d="M148.961,22.871h3.75c1.5,0,1.836,0.691,1.836,1.539l-0.336,94.461c0,1.5-0.352,1.84-1.195,1.84
		l-4.055-0.34c-0.75,0-1.5-0.348-1.5-1.199V24.371c0-0.75,0.688-1.5,1.531-1.5H148.961z"/>
	
		<linearGradient id="SVGID_28_" gradientUnits="userSpaceOnUse" x1="270.7148" y1="-313.1147" x2="270.7148" y2="-353.1147" gradientTransform="matrix(0.75 0 0 -0.75 -44.7397 -178.1328)">
		<stop  offset="0" style="stop-color:#B39D73"/>
		<stop  offset="0.15" style="stop-color:#EBD0A1"/>
		<stop  offset="0.25" style="stop-color:#F4E5CF"/>
		<stop  offset="0.44" style="stop-color:#CDB384"/>
		<stop  offset="0.6" style="stop-color:#B69F75"/>
		<stop  offset="0.8" style="stop-color:#9A8662"/>
		<stop  offset="0.97" style="stop-color:#8C7A59"/>
		<stop  offset="1" style="stop-color:#BAA378"/>
	</linearGradient>
	<path fill="url(#SVGID_28_)" d="M154.547,56.703l7.5,6v18l-7.5,6V56.703z"/>
	
		<linearGradient id="SVGID_29_" gradientUnits="userSpaceOnUse" x1="281.2109" y1="-313.1147" x2="281.2109" y2="-337.1147" gradientTransform="matrix(0.75 0 0 -0.75 -37.2725 -171.9336)">
		<stop  offset="0" style="stop-color:#C4AA84"/>
		<stop  offset="0.15" style="stop-color:#FFE0B3"/>
		<stop  offset="0.25" style="stop-color:#FFEED7"/>
		<stop  offset="0.44" style="stop-color:#DFC297"/>
		<stop  offset="0.6" style="stop-color:#C7AD86"/>
		<stop  offset="0.8" style="stop-color:#A89170"/>
		<stop  offset="0.97" style="stop-color:#998566"/>
		<stop  offset="1" style="stop-color:#CBB189"/>
	</linearGradient>
	<path fill="url(#SVGID_29_)" d="M162.012,62.902h23.25v18h-23.25V62.902z"/>
	
		<linearGradient id="SVGID_30_" gradientUnits="userSpaceOnUse" x1="277.2129" y1="-313.1138" x2="277.2129" y2="-321.1138" gradientTransform="matrix(0.75 0 0 -0.75 -68.8003 -210.4248)">
		<stop  offset="0" style="stop-color:#70737A"/>
		<stop  offset="0.15" style="stop-color:#9DA0A8"/>
		<stop  offset="0.25" style="stop-color:#CDCED2"/>
		<stop  offset="0.44" style="stop-color:#81848B"/>
		<stop  offset="0.6" style="stop-color:#72757C"/>
		<stop  offset="0.8" style="stop-color:#5F6168"/>
		<stop  offset="0.97" style="stop-color:#57595E"/>
		<stop  offset="1" style="stop-color:#75777F"/>
	</linearGradient>
	<path fill="url(#SVGID_30_)" d="M130.484,30.41h17.25v-6L130.484,30.41z"/>
	
		<linearGradient id="SVGID_31_" gradientUnits="userSpaceOnUse" x1="277.2129" y1="640.1123" x2="277.2129" y2="632.1123" gradientTransform="matrix(0.75 0 0 0.75 -68.8003 -360.9121)">
		<stop  offset="0" style="stop-color:#70737A"/>
		<stop  offset="0.15" style="stop-color:#9DA0A8"/>
		<stop  offset="0.25" style="stop-color:#CDCED2"/>
		<stop  offset="0.44" style="stop-color:#81848B"/>
		<stop  offset="0.6" style="stop-color:#72757C"/>
		<stop  offset="0.8" style="stop-color:#5F6168"/>
		<stop  offset="0.97" style="stop-color:#57595E"/>
		<stop  offset="1" style="stop-color:#75777F"/>
	</linearGradient>
	<path fill="url(#SVGID_31_)" d="M130.484,113.172h17.25v6L130.484,113.172z"/>
	
		<linearGradient id="SVGID_32_" gradientUnits="userSpaceOnUse" x1="277.2119" y1="-313.1118" x2="277.2119" y2="-333.1118" gradientTransform="matrix(0.75 0 0 -0.75 -69.1748 -200.2051)">
		<stop  offset="0" style="stop-color:#70737A"/>
		<stop  offset="0.15" style="stop-color:#9DA0A8"/>
		<stop  offset="0.25" style="stop-color:#CDCED2"/>
		<stop  offset="0.44" style="stop-color:#81848B"/>
		<stop  offset="0.6" style="stop-color:#72757C"/>
		<stop  offset="0.8" style="stop-color:#5F6168"/>
		<stop  offset="0.97" style="stop-color:#57595E"/>
		<stop  offset="1" style="stop-color:#75777F"/>
	</linearGradient>
	<path fill="url(#SVGID_32_)" d="M130.109,49.629h17.25v-15c0,0-2.586,9.348-17.25,14.992V49.629z"/>
	
		<linearGradient id="SVGID_33_" gradientUnits="userSpaceOnUse" x1="277.2148" y1="-313.1157" x2="277.2148" y2="-318.1157" gradientTransform="matrix(0.75 0 0 -0.75 -68.9277 -165.0938)">
		<stop  offset="0" style="stop-color:#54575C"/>
		<stop  offset="0.03" style="stop-color:#A1A3A7"/>
		<stop  offset="0.08" style="stop-color:#707379"/>
		<stop  offset="0.64" style="stop-color:#6E7177"/>
		<stop  offset="0.95" style="stop-color:#6B6E74"/>
		<stop  offset="1" style="stop-color:#4E5055"/>
	</linearGradient>
	<path fill="url(#SVGID_33_)" d="M130.359,69.742h17.25v3.75h-17.25V69.742z"/>
	
		<linearGradient id="SVGID_34_" gradientUnits="userSpaceOnUse" x1="277.2129" y1="640.1133" x2="277.2129" y2="620.1133" gradientTransform="matrix(0.75 0 0 0.75 -69.1748 -371.1318)">
		<stop  offset="0" style="stop-color:#70737A"/>
		<stop  offset="0.15" style="stop-color:#9DA0A8"/>
		<stop  offset="0.25" style="stop-color:#CDCED2"/>
		<stop  offset="0.44" style="stop-color:#81848B"/>
		<stop  offset="0.6" style="stop-color:#72757C"/>
		<stop  offset="0.8" style="stop-color:#5F6168"/>
		<stop  offset="0.97" style="stop-color:#57595E"/>
		<stop  offset="1" style="stop-color:#75777F"/>
	</linearGradient>
	<path fill="url(#SVGID_34_)" d="M130.109,93.953h17.25v15c0,0-2.586-9.348-17.25-14.992V93.953z"/>
	
		<linearGradient id="SVGID_35_" gradientUnits="userSpaceOnUse" x1="266.7119" y1="-313.1118" x2="266.7119" y2="-423.1118" gradientTransform="matrix(0.75 0 0 -0.75 -94.2646 -204.1777)">
		<stop  offset="0" style="stop-color:#5C5F67"/>
		<stop  offset="0.15" style="stop-color:#878A93"/>
		<stop  offset="0.25" style="stop-color:#C5C6C9"/>
		<stop  offset="0.44" style="stop-color:#6A6D76"/>
		<stop  offset="0.6" style="stop-color:#5E6169"/>
		<stop  offset="0.8" style="stop-color:#4E5157"/>
		<stop  offset="0.97" style="stop-color:#47494F"/>
		<stop  offset="1" style="stop-color:#60636B"/>
	</linearGradient>
	<path fill="url(#SVGID_35_)" d="M105.02,30.656h1.5v82.5h-1.5V30.656z"/>
	<path fill="#FFFFFF" fill-opacity="0.251" d="M109.398,40.652h18.75c0.75,0,1.238,0.656,1.238,1.461l0.262,20.289
		c0,0.75-0.922,1.648-1.727,1.648l-18.523-0.148c-0.75,0-1.5-0.504-1.5-1.313V42.152c0-0.75,0.645-1.5,1.449-1.5H109.398z"/>
	
		<linearGradient id="SVGID_36_" gradientUnits="userSpaceOnUse" x1="283.7129" y1="-321.6133" x2="265.7129" y2="-321.6133" gradientTransform="matrix(0.75 0 0 -0.75 -88.6641 -167.4102)">
		<stop  offset="0" style="stop-color:#9EB4BD"/>
		<stop  offset="0.15" style="stop-color:#D2ECF7"/>
		<stop  offset="0.25" style="stop-color:#E6F4FA"/>
		<stop  offset="0.44" style="stop-color:#B5CED7"/>
		<stop  offset="0.6" style="stop-color:#A1B7C0"/>
		<stop  offset="0.8" style="stop-color:#879AA2"/>
		<stop  offset="0.97" style="stop-color:#7B8D94"/>
		<stop  offset="1" style="stop-color:#A5BBC4"/>
	</linearGradient>
	<path fill="url(#SVGID_36_)" d="M119.621,67.426l3,2.25l1.5,4.5l-1.5,3.75l-3,2.25h-4.5l-3-2.25l-1.5-3.75l1.5-4.5l3-2.25H119.621z
		"/>
	
		<linearGradient id="SVGID_37_" gradientUnits="userSpaceOnUse" x1="274.7314" y1="-313.0923" x2="274.7314" y2="-329.3472" gradientTransform="matrix(0.75 0 0 -0.75 -88.6543 -148.3066)">
		<stop  offset="0" style="stop-color:#9DB098;stop-opacity:0.502"/>
		<stop  offset="0.15" style="stop-color:#D0E8CB;stop-opacity:0.502"/>
		<stop  offset="0.25" style="stop-color:#E5F2E2;stop-opacity:0.502"/>
		<stop  offset="0.44" style="stop-color:#B3C9AE;stop-opacity:0.502"/>
		<stop  offset="0.6" style="stop-color:#9FB39B;stop-opacity:0.502"/>
		<stop  offset="0.8" style="stop-color:#869782;stop-opacity:0.502"/>
		<stop  offset="0.97" style="stop-color:#7A8A76;stop-opacity:0.502"/>
		<stop  offset="1" style="stop-color:#A3B79E;stop-opacity:0.502"/>
	</linearGradient>
	<path fill="url(#SVGID_37_)" d="M110.629,92.527c0-3,3.023-6.016,6.773-6.016c3.727,0.016,6.758,2.73,6.758,6.102
		c-0.031,3.664-3.027,6.09-6.758,6.09c-3.773-0.176-6.773-2.73-6.773-6.09V92.527z"/>
	
		<linearGradient id="SVGID_38_" gradientUnits="userSpaceOnUse" x1="269.8506" y1="-315.1899" x2="265.7093" y2="-315.1899" gradientTransform="matrix(0.75 0 0 -0.75 -162.4663 -226.7881)">
		<stop  offset="0" style="stop-color:#C4AA84"/>
		<stop  offset="0.15" style="stop-color:#FFE0B3"/>
		<stop  offset="0.25" style="stop-color:#FFEED7"/>
		<stop  offset="0.44" style="stop-color:#DFC297"/>
		<stop  offset="0.6" style="stop-color:#C7AD86"/>
		<stop  offset="0.8" style="stop-color:#A89170"/>
		<stop  offset="0.97" style="stop-color:#998566"/>
		<stop  offset="1" style="stop-color:#CBB189"/>
	</linearGradient>
	<path fill="url(#SVGID_38_)" d="M36.82,9.547c0-0.75,0.691-1.5,1.551-1.5c0.699,0,1.551,0.699,1.551,1.559
		c-0.102,0.691-0.695,1.559-1.551,1.559c-0.801-0.117-1.551-0.699-1.551-1.559V9.547z"/>
	<path fill="#9C8059" d="M37.445,8.969c0,0,0.348-0.223,0.426-0.145l1.695,1.207c0,0-0.332,0.281-0.414,0.363
		c-0.117,0.164-0.203,0.078-0.285,0L37.445,8.969c0,0,0.063-0.066,0.141-0.145L37.445,8.969z"/>
	<path fill="#9C8059" d="M39.008,8.684c0,0,0.223,0.348,0.145,0.426l-1.207,1.695c0,0-0.281-0.332-0.363-0.41
		c-0.164-0.121-0.078-0.207,0-0.285L39.008,8.684c0,0,0.066,0.063,0.145,0.141L39.008,8.684z"/>
	
		<linearGradient id="SVGID_39_" gradientUnits="userSpaceOnUse" x1="269.8525" y1="-315.1899" x2="265.7119" y2="-315.1899" gradientTransform="matrix(0.75 0 0 -0.75 -129.9175 -226.7881)">
		<stop  offset="0" style="stop-color:#C4AA84"/>
		<stop  offset="0.15" style="stop-color:#FFE0B3"/>
		<stop  offset="0.25" style="stop-color:#FFEED7"/>
		<stop  offset="0.44" style="stop-color:#DFC297"/>
		<stop  offset="0.6" style="stop-color:#C7AD86"/>
		<stop  offset="0.8" style="stop-color:#A89170"/>
		<stop  offset="0.97" style="stop-color:#998566"/>
		<stop  offset="1" style="stop-color:#CBB189"/>
	</linearGradient>
	<path fill="url(#SVGID_39_)" d="M69.367,9.547c0-0.75,0.695-1.5,1.551-1.5c0.699,0,1.555,0.699,1.555,1.559
		c-0.105,0.691-0.695,1.559-1.555,1.559c-0.801-0.117-1.551-0.699-1.551-1.559V9.547z"/>
	<path fill="#9C8059" d="M69.992,8.969c0,0,0.348-0.223,0.426-0.145l1.695,1.207c0,0-0.332,0.281-0.41,0.363
		c-0.117,0.164-0.207,0.078-0.285,0L69.992,8.969c0,0,0.063-0.066,0.141-0.145L69.992,8.969z"/>
	<path fill="#9C8059" d="M71.555,8.684c0,0,0.227,0.348,0.145,0.426l-1.203,1.695c0,0-0.285-0.332-0.363-0.41
		c-0.168-0.121-0.078-0.207,0-0.285L71.555,8.684c0,0,0.066,0.063,0.145,0.141L71.555,8.684z"/>
</g>
</svg>
