<?xml version="1.0" encoding="utf-8"?>
<!-- Generator: Adobe Illustrator 16.0.0, SVG Export Plug-In . SVG Version: 6.00 Build 0)  -->
<!DOCTYPE svg PUBLIC "-//W3C//DTD SVG 1.1//EN" "http://www.w3.org/Graphics/SVG/1.1/DTD/svg11.dtd">
<svg preserveAspectRatio="none" version="1.1" id="图层_1" xmlns="http://www.w3.org/2000/svg" xmlns:xlink="http://www.w3.org/1999/xlink" x="0px" y="0px"
	 width="155.406px" height="78.75px" viewBox="1.223 23.5 155.406 78.75" enable-background="new 1.223 23.5 155.406 78.75"
	 xml:space="preserve">
<g id="surface226">
	
		<linearGradient id="SVGID_1_" gradientUnits="userSpaceOnUse" x1="292.4648" y1="-316.6118" x2="292.4648" y2="-331.6118" gradientTransform="matrix(0.75 0 0 -0.75 -201.6265 -180.1074)">
		<stop  offset="0" style="stop-color:#B0B0B0"/>
		<stop  offset="0.15" style="stop-color:#EFEFEF"/>
		<stop  offset="0.25" style="stop-color:#F6F6F6"/>
		<stop  offset="0.52" style="stop-color:#D0D0D0"/>
		<stop  offset="0.69" style="stop-color:#B9B9B9"/>
		<stop  offset="0.8" style="stop-color:#AFAFAF"/>
		<stop  offset="0.92" style="stop-color:#A5A5A5"/>
		<stop  offset="1" style="stop-color:#BEBEBE"/>
	</linearGradient>
	<path fill="url(#SVGID_1_)" d="M1.223,57.352h33v11.25h-33V57.352z"/>
	
		<linearGradient id="SVGID_2_" gradientUnits="userSpaceOnUse" x1="274.4609" y1="-316.6128" x2="274.4609" y2="-340.6128" gradientTransform="matrix(0.75 0 0 -0.75 -174.9438 -183.5801)">
		<stop  offset="0" style="stop-color:#8B8E91"/>
		<stop  offset="0.15" style="stop-color:#C2C5C8"/>
		<stop  offset="0.25" style="stop-color:#DEDFE1"/>
		<stop  offset="0.52" style="stop-color:#A5A8AB"/>
		<stop  offset="0.69" style="stop-color:#939598"/>
		<stop  offset="0.8" style="stop-color:#8A8C8F"/>
		<stop  offset="0.92" style="stop-color:#828487"/>
		<stop  offset="1" style="stop-color:#96999C"/>
	</linearGradient>
	<path fill="url(#SVGID_2_)" d="M27.902,53.879h6v18h-6V53.879z"/>
	
		<linearGradient id="SVGID_3_" gradientUnits="userSpaceOnUse" x1="288.5205" y1="-316.6118" x2="288.5205" y2="-398.6216" gradientTransform="matrix(0.75 0 0 -0.75 -73.3047 -205.4043)">
		<stop  offset="0" style="stop-color:#383A42"/>
		<stop  offset="0.03" style="stop-color:#8E8F94"/>
		<stop  offset="0.08" style="stop-color:#4C4F59"/>
		<stop  offset="0.64" style="stop-color:#4A4D57"/>
		<stop  offset="0.95" style="stop-color:#494B55"/>
		<stop  offset="1" style="stop-color:#34363D"/>
	</linearGradient>
	<path fill="url(#SVGID_3_)" d="M129.543,32.055h26.25c0.75,0,0.836,0.371,0.836,0.828l-0.086,59.922
		c0,0.75-0.285,0.758-0.738,0.758l-26.262-0.008V32.055z"/>
	
		<linearGradient id="SVGID_4_" gradientUnits="userSpaceOnUse" x1="273.9609" y1="-316.6138" x2="273.9609" y2="-421.6138" gradientTransform="matrix(0.75 0 0 -0.75 -171.2681 -213.96)">
		<stop  offset="0" style="stop-color:#383A42"/>
		<stop  offset="0.03" style="stop-color:#8E8F94"/>
		<stop  offset="0.08" style="stop-color:#4C4F59"/>
		<stop  offset="0.64" style="stop-color:#4A4D57"/>
		<stop  offset="0.95" style="stop-color:#494B55"/>
		<stop  offset="1" style="stop-color:#34363D"/>
	</linearGradient>
	<path fill="url(#SVGID_4_)" d="M32.328,23.5h3c0.75,0,1.191,0.371,1.191,0.828l0.309,77.172c0,0-0.676,0.617-1.129,0.617
		l-3.371,0.133c-0.75,0-0.75-0.504-0.75-0.961V24.25c0-0.75,0.371-0.75,0.824-0.75H32.328z"/>
	<path fill="#282D33" d="M36.059,27.84h93.75v69.75h-93.75V27.84z"/>
	
		<linearGradient id="SVGID_5_" gradientUnits="userSpaceOnUse" x1="304.9639" y1="-316.6128" x2="304.9639" y2="-326.6128" gradientTransform="matrix(0.75 0 0 -0.75 -166.79 -209.6201)">
		<stop  offset="0" style="stop-color:#4B4D58"/>
		<stop  offset="0.03" style="stop-color:#9A9BA4"/>
		<stop  offset="0.08" style="stop-color:#646774"/>
		<stop  offset="0.64" style="stop-color:#626572"/>
		<stop  offset="0.95" style="stop-color:#606270"/>
		<stop  offset="1" style="stop-color:#454751"/>
	</linearGradient>
	<path fill="url(#SVGID_5_)" d="M36.059,27.84h51.75v7.5h-51.75V27.84z"/>
	
		<linearGradient id="SVGID_6_" gradientUnits="userSpaceOnUse" x1="304.9639" y1="-316.6138" x2="304.9639" y2="-321.6138" gradientTransform="matrix(0.75 0 0 -0.75 -166.79 -198.46)">
		<stop  offset="0" style="stop-color:#4B4D58"/>
		<stop  offset="0.03" style="stop-color:#9A9BA4"/>
		<stop  offset="0.08" style="stop-color:#646774"/>
		<stop  offset="0.64" style="stop-color:#626572"/>
		<stop  offset="0.95" style="stop-color:#606270"/>
		<stop  offset="1" style="stop-color:#454751"/>
	</linearGradient>
	<path fill="url(#SVGID_6_)" d="M36.059,39h51.75v3.75h-51.75V39z"/>
	
		<linearGradient id="SVGID_7_" gradientUnits="userSpaceOnUse" x1="304.9639" y1="-316.6138" x2="304.9639" y2="-319.6138" gradientTransform="matrix(0.75 0 0 -0.75 -166.79 -191.4648)">
		<stop  offset="0" style="stop-color:#4B4D58"/>
		<stop  offset="0.03" style="stop-color:#9A9BA4"/>
		<stop  offset="0.08" style="stop-color:#646774"/>
		<stop  offset="0.64" style="stop-color:#626572"/>
		<stop  offset="0.95" style="stop-color:#606270"/>
		<stop  offset="1" style="stop-color:#454751"/>
	</linearGradient>
	<path fill="url(#SVGID_7_)" d="M36.059,45.996h51.75v2.25h-51.75V45.996z"/>
	
		<linearGradient id="SVGID_8_" gradientUnits="userSpaceOnUse" x1="304.9639" y1="-316.6138" x2="304.9639" y2="-319.6138" gradientTransform="matrix(0.75 0 0 -0.75 -166.79 -186.9404)">
		<stop  offset="0" style="stop-color:#4B4D58"/>
		<stop  offset="0.03" style="stop-color:#9A9BA4"/>
		<stop  offset="0.08" style="stop-color:#646774"/>
		<stop  offset="0.64" style="stop-color:#626572"/>
		<stop  offset="0.95" style="stop-color:#606270"/>
		<stop  offset="1" style="stop-color:#454751"/>
	</linearGradient>
	<path fill="url(#SVGID_8_)" d="M36.059,50.52h51.75v2.25h-51.75V50.52z"/>
	
		<linearGradient id="SVGID_9_" gradientUnits="userSpaceOnUse" x1="304.9639" y1="-316.6118" x2="304.9639" y2="-319.6118" gradientTransform="matrix(0.75 0 0 -0.75 -166.79 -182.416)">
		<stop  offset="0" style="stop-color:#4B4D58"/>
		<stop  offset="0.03" style="stop-color:#9A9BA4"/>
		<stop  offset="0.08" style="stop-color:#646774"/>
		<stop  offset="0.64" style="stop-color:#626572"/>
		<stop  offset="0.95" style="stop-color:#606270"/>
		<stop  offset="1" style="stop-color:#454751"/>
	</linearGradient>
	<path fill="url(#SVGID_9_)" d="M36.059,55.043h51.75v2.25h-51.75V55.043z"/>
	
		<linearGradient id="SVGID_10_" gradientUnits="userSpaceOnUse" x1="304.9639" y1="-316.6157" x2="304.9639" y2="-319.6157" gradientTransform="matrix(0.75 0 0 -0.75 -166.79 -177.8906)">
		<stop  offset="0" style="stop-color:#4B4D58"/>
		<stop  offset="0.03" style="stop-color:#9A9BA4"/>
		<stop  offset="0.08" style="stop-color:#646774"/>
		<stop  offset="0.64" style="stop-color:#626572"/>
		<stop  offset="0.95" style="stop-color:#606270"/>
		<stop  offset="1" style="stop-color:#454751"/>
	</linearGradient>
	<path fill="url(#SVGID_10_)" d="M36.059,59.57h51.75v2.25h-51.75V59.57z"/>
	
		<linearGradient id="SVGID_11_" gradientUnits="userSpaceOnUse" x1="304.9639" y1="-316.6157" x2="304.9639" y2="-319.6157" gradientTransform="matrix(0.75 0 0 -0.75 -166.79 -173.3672)">
		<stop  offset="0" style="stop-color:#4B4D58"/>
		<stop  offset="0.03" style="stop-color:#9A9BA4"/>
		<stop  offset="0.08" style="stop-color:#646774"/>
		<stop  offset="0.64" style="stop-color:#626572"/>
		<stop  offset="0.95" style="stop-color:#606270"/>
		<stop  offset="1" style="stop-color:#454751"/>
	</linearGradient>
	<path fill="url(#SVGID_11_)" d="M36.059,64.094h51.75v2.25h-51.75V64.094z"/>
	
		<linearGradient id="SVGID_12_" gradientUnits="userSpaceOnUse" x1="304.9639" y1="-316.6118" x2="304.9639" y2="-319.6118" gradientTransform="matrix(0.75 0 0 -0.75 -166.79 -168.8418)">
		<stop  offset="0" style="stop-color:#4B4D58"/>
		<stop  offset="0.03" style="stop-color:#9A9BA4"/>
		<stop  offset="0.08" style="stop-color:#646774"/>
		<stop  offset="0.64" style="stop-color:#626572"/>
		<stop  offset="0.95" style="stop-color:#606270"/>
		<stop  offset="1" style="stop-color:#454751"/>
	</linearGradient>
	<path fill="url(#SVGID_12_)" d="M36.059,68.617h51.75v2.25h-51.75V68.617z"/>
	
		<linearGradient id="SVGID_13_" gradientUnits="userSpaceOnUse" x1="304.9639" y1="-316.6167" x2="304.9639" y2="-319.6167" gradientTransform="matrix(0.75 0 0 -0.75 -166.79 -164.3174)">
		<stop  offset="0" style="stop-color:#4B4D58"/>
		<stop  offset="0.03" style="stop-color:#9A9BA4"/>
		<stop  offset="0.08" style="stop-color:#646774"/>
		<stop  offset="0.64" style="stop-color:#626572"/>
		<stop  offset="0.95" style="stop-color:#606270"/>
		<stop  offset="1" style="stop-color:#454751"/>
	</linearGradient>
	<path fill="url(#SVGID_13_)" d="M36.059,73.145h51.75v2.25h-51.75V73.145z"/>
	
		<linearGradient id="SVGID_14_" gradientUnits="userSpaceOnUse" x1="304.9639" y1="-316.6147" x2="304.9639" y2="-319.6147" gradientTransform="matrix(0.75 0 0 -0.75 -166.79 -159.793)">
		<stop  offset="0" style="stop-color:#4B4D58"/>
		<stop  offset="0.03" style="stop-color:#9A9BA4"/>
		<stop  offset="0.08" style="stop-color:#646774"/>
		<stop  offset="0.64" style="stop-color:#626572"/>
		<stop  offset="0.95" style="stop-color:#606270"/>
		<stop  offset="1" style="stop-color:#454751"/>
	</linearGradient>
	<path fill="url(#SVGID_14_)" d="M36.059,77.668h51.75v2.25h-51.75V77.668z"/>
	
		<linearGradient id="SVGID_15_" gradientUnits="userSpaceOnUse" x1="304.9639" y1="-316.6138" x2="304.9639" y2="-326.6138" gradientTransform="matrix(0.75 0 0 -0.75 -166.79 -146.875)">
		<stop  offset="0" style="stop-color:#4B4D58"/>
		<stop  offset="0.03" style="stop-color:#9A9BA4"/>
		<stop  offset="0.08" style="stop-color:#646774"/>
		<stop  offset="0.64" style="stop-color:#626572"/>
		<stop  offset="0.95" style="stop-color:#606270"/>
		<stop  offset="1" style="stop-color:#454751"/>
	</linearGradient>
	<path fill="url(#SVGID_15_)" d="M36.059,90.586h51.75v7.5h-51.75V90.586z"/>
	
		<linearGradient id="SVGID_16_" gradientUnits="userSpaceOnUse" x1="304.9609" y1="-316.6138" x2="304.9609" y2="-321.6138" gradientTransform="matrix(0.75 0 0 -0.75 -166.7134 -154.3047)">
		<stop  offset="0" style="stop-color:#4B4D58"/>
		<stop  offset="0.03" style="stop-color:#9A9BA4"/>
		<stop  offset="0.08" style="stop-color:#646774"/>
		<stop  offset="0.64" style="stop-color:#626572"/>
		<stop  offset="0.95" style="stop-color:#606270"/>
		<stop  offset="1" style="stop-color:#454751"/>
	</linearGradient>
	<path fill="url(#SVGID_16_)" d="M36.133,83.156h51.75v3.75h-51.75V83.156z"/>
	
		<linearGradient id="SVGID_17_" gradientUnits="userSpaceOnUse" x1="298.4619" y1="-316.6138" x2="298.4619" y2="-378.6138" gradientTransform="matrix(0.75 0 0 -0.75 -114.9053 -197.9639)">
		<stop  offset="0" style="stop-color:#383A42"/>
		<stop  offset="0.03" style="stop-color:#8E8F94"/>
		<stop  offset="0.08" style="stop-color:#4C4F59"/>
		<stop  offset="0.64" style="stop-color:#4A4D57"/>
		<stop  offset="0.95" style="stop-color:#494B55"/>
		<stop  offset="1" style="stop-color:#34363D"/>
	</linearGradient>
	<path fill="url(#SVGID_17_)" d="M87.941,39.496h42v46.5h-42V39.496z"/>
	
		<linearGradient id="SVGID_18_" gradientUnits="userSpaceOnUse" x1="298.4619" y1="-316.6128" x2="298.4619" y2="-334.6128" gradientTransform="matrix(0.75 0 0 -0.75 -114.9053 -151.3418)">
		<stop  offset="0" style="stop-color:#383A42"/>
		<stop  offset="0.03" style="stop-color:#8E8F94"/>
		<stop  offset="0.08" style="stop-color:#4C4F59"/>
		<stop  offset="0.64" style="stop-color:#4A4D57"/>
		<stop  offset="0.95" style="stop-color:#494B55"/>
		<stop  offset="1" style="stop-color:#34363D"/>
	</linearGradient>
	<path fill="url(#SVGID_18_)" d="M87.941,86.117h42v13.5h-42V86.117z"/>
	
		<linearGradient id="SVGID_19_" gradientUnits="userSpaceOnUse" x1="298.4619" y1="-316.6118" x2="298.4619" y2="-334.6118" gradientTransform="matrix(0.75 0 0 -0.75 -114.9053 -211.6738)">
		<stop  offset="0" style="stop-color:#4B4D58"/>
		<stop  offset="0.03" style="stop-color:#9A9BA4"/>
		<stop  offset="0.08" style="stop-color:#646774"/>
		<stop  offset="0.64" style="stop-color:#626572"/>
		<stop  offset="0.95" style="stop-color:#606270"/>
		<stop  offset="1" style="stop-color:#454751"/>
	</linearGradient>
	<path fill="url(#SVGID_19_)" d="M87.941,25.785h42v13.5h-42V25.785z"/>
	
		<linearGradient id="SVGID_20_" gradientUnits="userSpaceOnUse" x1="272.9619" y1="-316.6138" x2="272.9619" y2="-378.6138" gradientTransform="matrix(0.75 0 0 -0.75 -76.9717 -197.9639)">
		<stop  offset="0" style="stop-color:#4B4D58"/>
		<stop  offset="0.03" style="stop-color:#9A9BA4"/>
		<stop  offset="0.08" style="stop-color:#646774"/>
		<stop  offset="0.64" style="stop-color:#626572"/>
		<stop  offset="0.95" style="stop-color:#606270"/>
		<stop  offset="1" style="stop-color:#454751"/>
	</linearGradient>
	<path fill="url(#SVGID_20_)" d="M125.875,39.496h3.75v46.5h-3.75V39.496z"/>
	
		<linearGradient id="SVGID_21_" gradientUnits="userSpaceOnUse" x1="272.9619" y1="-316.6118" x2="272.9619" y2="-334.6118" gradientTransform="matrix(0.75 0 0 -0.75 -76.9717 -211.6738)">
		<stop  offset="0" style="stop-color:#60616B"/>
		<stop  offset="0.03" style="stop-color:#AAABB4"/>
		<stop  offset="0.08" style="stop-color:#7F808D"/>
		<stop  offset="0.64" style="stop-color:#7D7E8A"/>
		<stop  offset="0.95" style="stop-color:#7A7B87"/>
		<stop  offset="1" style="stop-color:#595A63"/>
	</linearGradient>
	<path fill="url(#SVGID_21_)" d="M125.875,25.785h3.75v13.5h-3.75V25.785z"/>
	
		<linearGradient id="SVGID_22_" gradientUnits="userSpaceOnUse" x1="272.9619" y1="-316.6128" x2="272.9619" y2="-334.6128" gradientTransform="matrix(0.75 0 0 -0.75 -76.9717 -151.3418)">
		<stop  offset="0" style="stop-color:#4B4D58"/>
		<stop  offset="0.03" style="stop-color:#9A9BA4"/>
		<stop  offset="0.08" style="stop-color:#646774"/>
		<stop  offset="0.64" style="stop-color:#626572"/>
		<stop  offset="0.95" style="stop-color:#606270"/>
		<stop  offset="1" style="stop-color:#454751"/>
	</linearGradient>
	<path fill="url(#SVGID_22_)" d="M125.875,86.117h3.75v13.5h-3.75V86.117z"/>
	
		<linearGradient id="SVGID_23_" gradientUnits="userSpaceOnUse" x1="274.4395" y1="-318.6045" x2="270.46" y2="-318.6045" gradientTransform="matrix(0.75 0 0 -0.75 -113.5293 -192.9639)">
		<stop  offset="0" style="stop-color:#898A8A"/>
		<stop  offset="0.15" style="stop-color:#BABBBB"/>
		<stop  offset="0.25" style="stop-color:#DADADA"/>
		<stop  offset="0.44" style="stop-color:#9D9E9E"/>
		<stop  offset="0.6" style="stop-color:#8B8C8C"/>
		<stop  offset="0.8" style="stop-color:#757676"/>
		<stop  offset="0.97" style="stop-color:#6B6B6B"/>
		<stop  offset="1" style="stop-color:#8F9090"/>
	</linearGradient>
	<path fill="url(#SVGID_23_)" d="M89.316,45.996c0-0.75,0.668-1.5,1.492-1.5c0.758,0,1.492,0.668,1.492,1.496
		c0.016,0.754-0.668,1.492-1.492,1.492c-0.742,0.012-1.492-0.668-1.492-1.492V45.996z"/>
	<path fill="#3E3938" d="M89.922,45.379c0,0,0.332-0.215,0.406-0.137l1.715,1.199c0,0-0.406,0.23-0.48,0.305
		c-0.051,0.227-0.199,0.078-0.273,0L89.922,45.379c0,0,0.059-0.063,0.133-0.137L89.922,45.379z"/>
	<path fill="#3E3938" d="M91.422,45.105c0,0,0.215,0.332,0.137,0.41l-1.199,1.711c0,0-0.23-0.402-0.305-0.48
		c-0.227-0.051-0.078-0.199,0-0.273L91.422,45.105c0,0,0.063,0.059,0.137,0.137L91.422,45.105z"/>
	
		<linearGradient id="SVGID_24_" gradientUnits="userSpaceOnUse" x1="274.4414" y1="-318.6045" x2="270.4619" y2="-318.6045" gradientTransform="matrix(0.75 0 0 -0.75 -81.2456 -192.9639)">
		<stop  offset="0" style="stop-color:#898A8A"/>
		<stop  offset="0.15" style="stop-color:#BABBBB"/>
		<stop  offset="0.25" style="stop-color:#DADADA"/>
		<stop  offset="0.44" style="stop-color:#9D9E9E"/>
		<stop  offset="0.6" style="stop-color:#8B8C8C"/>
		<stop  offset="0.8" style="stop-color:#757676"/>
		<stop  offset="0.97" style="stop-color:#6B6B6B"/>
		<stop  offset="1" style="stop-color:#8F9090"/>
	</linearGradient>
	<path fill="url(#SVGID_24_)" d="M121.602,45.996c0-0.75,0.668-1.5,1.492-1.5c0.758,0,1.492,0.668,1.492,1.496
		c0.016,0.754-0.668,1.492-1.492,1.492c-0.742,0.012-1.492-0.668-1.492-1.492V45.996z"/>
	<path fill="#3E3938" d="M122.203,45.379c0,0,0.336-0.215,0.41-0.137l1.711,1.199c0,0-0.402,0.23-0.48,0.305
		c-0.047,0.227-0.195,0.078-0.273,0L122.203,45.379c0,0,0.063-0.063,0.137-0.137L122.203,45.379z"/>
	<path fill="#3E3938" d="M123.703,45.105c0,0,0.215,0.332,0.141,0.41l-1.199,1.711c0,0-0.23-0.402-0.309-0.48
		c-0.223-0.051-0.074-0.199,0-0.273L123.703,45.105c0,0,0.066,0.059,0.141,0.137L123.703,45.105z"/>
	
		<linearGradient id="SVGID_25_" gradientUnits="userSpaceOnUse" x1="274.4395" y1="-318.606" x2="270.46" y2="-318.606" gradientTransform="matrix(0.75 0 0 -0.75 -113.5293 -157.7988)">
		<stop  offset="0" style="stop-color:#898A8A"/>
		<stop  offset="0.15" style="stop-color:#BABBBB"/>
		<stop  offset="0.25" style="stop-color:#DADADA"/>
		<stop  offset="0.44" style="stop-color:#9D9E9E"/>
		<stop  offset="0.6" style="stop-color:#8B8C8C"/>
		<stop  offset="0.8" style="stop-color:#757676"/>
		<stop  offset="0.97" style="stop-color:#6B6B6B"/>
		<stop  offset="1" style="stop-color:#8F9090"/>
	</linearGradient>
	<path fill="url(#SVGID_25_)" d="M89.316,81.16c0-0.75,0.668-1.5,1.492-1.5c0.758,0,1.492,0.668,1.492,1.496
		c0.016,0.754-0.668,1.496-1.492,1.496c-0.742,0.008-1.492-0.672-1.492-1.496V81.16z"/>
	<path fill="#3E3938" d="M89.922,80.543c0,0,0.332-0.215,0.406-0.137l1.715,1.199c0,0-0.406,0.23-0.48,0.305
		c-0.051,0.227-0.199,0.078-0.273,0L89.922,80.543c0,0,0.059-0.063,0.133-0.137L89.922,80.543z"/>
	<path fill="#3E3938" d="M91.422,80.27c0,0,0.215,0.336,0.137,0.41l-1.199,1.711c0,0-0.23-0.402-0.305-0.48
		c-0.227-0.047-0.078-0.195,0-0.273L91.422,80.27c0,0,0.063,0.059,0.137,0.137L91.422,80.27z"/>
	
		<linearGradient id="SVGID_26_" gradientUnits="userSpaceOnUse" x1="274.4414" y1="-318.606" x2="270.4619" y2="-318.606" gradientTransform="matrix(0.75 0 0 -0.75 -81.2456 -157.7988)">
		<stop  offset="0" style="stop-color:#898A8A"/>
		<stop  offset="0.15" style="stop-color:#BABBBB"/>
		<stop  offset="0.25" style="stop-color:#DADADA"/>
		<stop  offset="0.44" style="stop-color:#9D9E9E"/>
		<stop  offset="0.6" style="stop-color:#8B8C8C"/>
		<stop  offset="0.8" style="stop-color:#757676"/>
		<stop  offset="0.97" style="stop-color:#6B6B6B"/>
		<stop  offset="1" style="stop-color:#8F9090"/>
	</linearGradient>
	<path fill="url(#SVGID_26_)" d="M121.602,81.16c0-0.75,0.668-1.5,1.492-1.5c0.758,0,1.492,0.668,1.492,1.496
		c0.016,0.754-0.668,1.496-1.492,1.496c-0.742,0.008-1.492-0.672-1.492-1.496V81.16z"/>
	<path fill="#3E3938" d="M122.203,80.543c0,0,0.336-0.215,0.41-0.137l1.711,1.199c0,0-0.402,0.23-0.48,0.305
		c-0.047,0.227-0.195,0.078-0.273,0L122.203,80.543c0,0,0.063-0.063,0.137-0.137L122.203,80.543z"/>
	<path fill="#3E3938" d="M123.703,80.27c0,0,0.215,0.336,0.141,0.41l-1.199,1.711c0,0-0.23-0.402-0.309-0.48
		c-0.223-0.047-0.074-0.195,0-0.273L123.703,80.27c0,0,0.066,0.059,0.141,0.137L123.703,80.27z"/>
</g>
</svg>
