<?xml version="1.0" encoding="utf-8"?>
<!-- Generator: Adobe Illustrator 16.0.0, SVG Export Plug-In . SVG Version: 6.00 Build 0)  -->
<!DOCTYPE svg PUBLIC "-//W3C//DTD SVG 1.1//EN" "http://www.w3.org/Graphics/SVG/1.1/DTD/svg11.dtd">
<svg preserveAspectRatio="none" version="1.1" id="图层_1" xmlns="http://www.w3.org/2000/svg" xmlns:xlink="http://www.w3.org/1999/xlink" x="0px" y="0px"
	 width="155.379px" height="100.188px" viewBox="1.223 21.875 155.379 100.188"
	 enable-background="new 1.223 21.875 155.379 100.188" xml:space="preserve">
<g id="surface211">
	
		<linearGradient id="SVGID_1_" gradientUnits="userSpaceOnUse" x1="290.4658" y1="-316.6157" x2="290.4658" y2="-336.6157" gradientTransform="matrix(0.75 0 0 -0.75 -201.627 -170.4844)">
		<stop  offset="0" style="stop-color:#B0B0B0"/>
		<stop  offset="0.15" style="stop-color:#EFEFEF"/>
		<stop  offset="0.25" style="stop-color:#F6F6F6"/>
		<stop  offset="0.52" style="stop-color:#D0D0D0"/>
		<stop  offset="0.69" style="stop-color:#B9B9B9"/>
		<stop  offset="0.8" style="stop-color:#AFAFAF"/>
		<stop  offset="0.92" style="stop-color:#A5A5A5"/>
		<stop  offset="1" style="stop-color:#BEBEBE"/>
	</linearGradient>
	<path fill="url(#SVGID_1_)" d="M1.223,66.977h30v15h-30V66.977z"/>
	
		<linearGradient id="SVGID_2_" gradientUnits="userSpaceOnUse" x1="273.9648" y1="-316.6118" x2="273.9648" y2="-342.6118" gradientTransform="matrix(0.75 0 0 -0.75 -176.7822 -172.5488)">
		<stop  offset="0" style="stop-color:#8B8E91"/>
		<stop  offset="0.15" style="stop-color:#C2C5C8"/>
		<stop  offset="0.25" style="stop-color:#DEDFE1"/>
		<stop  offset="0.52" style="stop-color:#A5A8AB"/>
		<stop  offset="0.69" style="stop-color:#939598"/>
		<stop  offset="0.8" style="stop-color:#8A8C8F"/>
		<stop  offset="0.92" style="stop-color:#828487"/>
		<stop  offset="1" style="stop-color:#96999C"/>
	</linearGradient>
	<path fill="url(#SVGID_2_)" d="M26.066,64.91h5.25v19.5h-5.25V64.91z"/>
	
		<linearGradient id="SVGID_3_" gradientUnits="userSpaceOnUse" x1="276.9629" y1="-316.6138" x2="276.9629" y2="-413.6138" gradientTransform="matrix(0.75 0 0 -0.75 -172.0859 -199.2529)">
		<stop  offset="0" style="stop-color:#9E9797"/>
		<stop  offset="0.15" style="stop-color:#D9D0D0"/>
		<stop  offset="0.25" style="stop-color:#EAE5E5"/>
		<stop  offset="0.52" style="stop-color:#BBB3B3"/>
		<stop  offset="0.69" style="stop-color:#A69F9F"/>
		<stop  offset="0.8" style="stop-color:#9D9696"/>
		<stop  offset="0.92" style="stop-color:#948E8E"/>
		<stop  offset="1" style="stop-color:#AAA3A3"/>
	</linearGradient>
	<path fill="url(#SVGID_3_)" d="M32.262,38.207h8.25v72.75h-8.25c-0.75,0-1.5-0.949-1.5-1.906V39.707c0-0.75,0.777-1.5,1.738-1.5
		H32.262z"/>
	
		<linearGradient id="SVGID_4_" gradientUnits="userSpaceOnUse" x1="322.4639" y1="-316.6138" x2="322.4639" y2="-417.6138" gradientTransform="matrix(0.75 0 0 -0.75 -158.1299 -200.6406)">
		<stop  offset="0" style="stop-color:#968E8E"/>
		<stop  offset="0.15" style="stop-color:#CFC5C5"/>
		<stop  offset="0.25" style="stop-color:#E4DFE0"/>
		<stop  offset="0.52" style="stop-color:#B1A8A9"/>
		<stop  offset="0.69" style="stop-color:#9E9596"/>
		<stop  offset="0.8" style="stop-color:#958C8D"/>
		<stop  offset="0.92" style="stop-color:#8C8485"/>
		<stop  offset="1" style="stop-color:#A19999"/>
	</linearGradient>
	<path fill="url(#SVGID_4_)" d="M44.719,36.82h78v75.75h-78V36.82z"/>
	
		<linearGradient id="SVGID_5_" gradientUnits="userSpaceOnUse" x1="293.6045" y1="-316.6138" x2="293.6045" y2="-417.6138" gradientTransform="matrix(0.75 0 0 -0.75 -80.96 -200.6406)">
		<stop  offset="0" style="stop-color:#968E8E"/>
		<stop  offset="0.15" style="stop-color:#CFC5C5"/>
		<stop  offset="0.25" style="stop-color:#E4DFE0"/>
		<stop  offset="0.52" style="stop-color:#B1A8A9"/>
		<stop  offset="0.69" style="stop-color:#9E9596"/>
		<stop  offset="0.8" style="stop-color:#958C8D"/>
		<stop  offset="0.92" style="stop-color:#8C8485"/>
		<stop  offset="1" style="stop-color:#A19999"/>
	</linearGradient>
	<path fill="url(#SVGID_5_)" d="M121.887,36.82h27.75c0,0,6.805,0,6.965,37.73c-0.215,37.27-7.051,37.73-7.051,37.73l-27.664,0.289
		V36.82z"/>
	
		<linearGradient id="SVGID_6_" gradientUnits="userSpaceOnUse" x1="271.4619" y1="-316.6138" x2="271.4619" y2="-417.6138" gradientTransform="matrix(0.75 0 0 -0.75 -81.2417 -200.6406)">
		<stop  offset="0" style="stop-color:#817A7A"/>
		<stop  offset="0.15" style="stop-color:#B5ADAD"/>
		<stop  offset="0.25" style="stop-color:#D8D4D4"/>
		<stop  offset="0.52" style="stop-color:#999191"/>
		<stop  offset="0.69" style="stop-color:#888080"/>
		<stop  offset="0.8" style="stop-color:#807979"/>
		<stop  offset="0.92" style="stop-color:#787272"/>
		<stop  offset="1" style="stop-color:#8B8383"/>
	</linearGradient>
	<path fill="url(#SVGID_6_)" d="M121.605,36.82h1.5v75.75h-1.5V36.82z"/>
	
		<linearGradient id="SVGID_7_" gradientUnits="userSpaceOnUse" x1="-308.9053" y1="-316.6128" x2="-308.9053" y2="-422.6284" gradientTransform="matrix(-0.75 0 0 -0.75 -189.1309 -202.7168)">
		<stop  offset="0" style="stop-color:#696363"/>
		<stop  offset="0.15" style="stop-color:#999292"/>
		<stop  offset="0.25" style="stop-color:#CCC9C9"/>
		<stop  offset="0.52" style="stop-color:#7C7575"/>
		<stop  offset="0.69" style="stop-color:#6E6868"/>
		<stop  offset="0.8" style="stop-color:#686262"/>
		<stop  offset="0.92" style="stop-color:#625C5C"/>
		<stop  offset="1" style="stop-color:#716A6A"/>
	</linearGradient>
	<path fill="url(#SVGID_7_)" d="M44.094,34.742h-3c-0.75,0-0.867,0.348-0.867,0.785l0.117,77.965c0,0.75,0.238,0.762,0.676,0.762
		l3.074-0.012c0.75,0,0.777-0.367,0.777-0.805l-0.027-77.945c0-0.75-0.328-0.75-0.766-0.75H44.094z"/>
	
		<linearGradient id="SVGID_8_" gradientUnits="userSpaceOnUse" x1="-309.9878" y1="-316.6128" x2="-309.9878" y2="-422.6128" gradientTransform="matrix(-0.75 0 0 -0.75 -190.9551 -202.624)">
		<stop  offset="0" style="stop-color:#968E8E"/>
		<stop  offset="0.15" style="stop-color:#CFC5C5"/>
		<stop  offset="0.25" style="stop-color:#E4DFE0"/>
		<stop  offset="0.52" style="stop-color:#B1A8A9"/>
		<stop  offset="0.69" style="stop-color:#9E9596"/>
		<stop  offset="0.8" style="stop-color:#958C8D"/>
		<stop  offset="0.92" style="stop-color:#8C8485"/>
		<stop  offset="1" style="stop-color:#A19999"/>
	</linearGradient>
	<path fill="url(#SVGID_8_)" d="M42.27,34.836h-0.75c-0.75,0-1.293,0.352-1.293,0.789l-0.207,77.961c0,0,0.668,0.578,1.234,0.578
		l1.016,0.172c0,0,0.785-0.547,0.785-0.984L43.02,35.586c0-0.75-0.422-0.75-0.988-0.75H42.27z"/>
	<path fill="#A59C9D" d="M48.043,100.848h70.5v16.5h-70.5V100.848z"/>
	<path fill="#C7C0C1" d="M48.043,116.813h70.5v5.25h-70.5V116.813z"/>
	
		<linearGradient id="SVGID_9_" gradientUnits="userSpaceOnUse" x1="315.4658" y1="-316.5776" x2="315.4658" y2="-319.9731" gradientTransform="matrix(0.75 0 0 -0.75 -149.6895 -183.7305)">
		<stop  offset="0" style="stop-color:#968E8E"/>
		<stop  offset="0.15" style="stop-color:#CFC5C5"/>
		<stop  offset="0.25" style="stop-color:#E4DFE0"/>
		<stop  offset="0.52" style="stop-color:#B1A8A9"/>
		<stop  offset="0.69" style="stop-color:#9E9596"/>
		<stop  offset="0.8" style="stop-color:#958C8D"/>
		<stop  offset="0.92" style="stop-color:#8C8485"/>
		<stop  offset="1" style="stop-color:#A19999"/>
	</linearGradient>
	<path fill="url(#SVGID_9_)" d="M53.91,53.73h66c0,0,0.586,0.328,0.586,0.766l0.164,0.734c0,0.75-0.453,1.02-0.805,1.02L53.91,55.98
		c-0.75,0-0.75-0.086-0.75-0.523V54.48c0-0.75,0.266-0.777,0.621-0.777L53.91,53.73z"/>
	
		<linearGradient id="SVGID_10_" gradientUnits="userSpaceOnUse" x1="315.4658" y1="-316.5806" x2="315.4658" y2="-319.9712" gradientTransform="matrix(0.75 0 0 -0.75 -149.6895 -176.3184)">
		<stop  offset="0" style="stop-color:#968E8E"/>
		<stop  offset="0.15" style="stop-color:#CFC5C5"/>
		<stop  offset="0.25" style="stop-color:#E4DFE0"/>
		<stop  offset="0.52" style="stop-color:#B1A8A9"/>
		<stop  offset="0.69" style="stop-color:#9E9596"/>
		<stop  offset="0.8" style="stop-color:#958C8D"/>
		<stop  offset="0.92" style="stop-color:#8C8485"/>
		<stop  offset="1" style="stop-color:#A19999"/>
	</linearGradient>
	<path fill="url(#SVGID_10_)" d="M53.91,61.141h66c0,0,0.586,0.332,0.586,0.77l0.164,0.73c0,0.75-0.453,1.02-0.805,1.02
		l-65.945-0.27c-0.75,0-0.75-0.082-0.75-0.52v-0.98c0-0.75,0.266-0.773,0.621-0.773L53.91,61.141z"/>
	
		<linearGradient id="SVGID_11_" gradientUnits="userSpaceOnUse" x1="315.4658" y1="-316.5776" x2="315.4658" y2="-319.9731" gradientTransform="matrix(0.75 0 0 -0.75 -149.6895 -168.9063)">
		<stop  offset="0" style="stop-color:#968E8E"/>
		<stop  offset="0.15" style="stop-color:#CFC5C5"/>
		<stop  offset="0.25" style="stop-color:#E4DFE0"/>
		<stop  offset="0.52" style="stop-color:#B1A8A9"/>
		<stop  offset="0.69" style="stop-color:#9E9596"/>
		<stop  offset="0.8" style="stop-color:#958C8D"/>
		<stop  offset="0.92" style="stop-color:#8C8485"/>
		<stop  offset="1" style="stop-color:#A19999"/>
	</linearGradient>
	<path fill="url(#SVGID_11_)" d="M53.91,68.555h66c0,0,0.586,0.328,0.586,0.766l0.164,0.734c0,0.75-0.453,1.02-0.805,1.02
		l-65.945-0.27c-0.75,0-0.75-0.086-0.75-0.523v-0.977c0-0.75,0.266-0.777,0.621-0.777L53.91,68.555z"/>
	
		<linearGradient id="SVGID_12_" gradientUnits="userSpaceOnUse" x1="315.4658" y1="-316.5806" x2="315.4658" y2="-319.9761" gradientTransform="matrix(0.75 0 0 -0.75 -149.6895 -161.4941)">
		<stop  offset="0" style="stop-color:#968E8E"/>
		<stop  offset="0.15" style="stop-color:#CFC5C5"/>
		<stop  offset="0.25" style="stop-color:#E4DFE0"/>
		<stop  offset="0.52" style="stop-color:#B1A8A9"/>
		<stop  offset="0.69" style="stop-color:#9E9596"/>
		<stop  offset="0.8" style="stop-color:#958C8D"/>
		<stop  offset="0.92" style="stop-color:#8C8485"/>
		<stop  offset="1" style="stop-color:#A19999"/>
	</linearGradient>
	<path fill="url(#SVGID_12_)" d="M53.91,75.965h66c0,0,0.586,0.332,0.586,0.77l0.164,0.73c0,0.75-0.453,1.023-0.805,1.023
		L53.91,78.215c-0.75,0-0.75-0.082-0.75-0.52v-0.98c0-0.75,0.266-0.773,0.621-0.773L53.91,75.965z"/>
	
		<linearGradient id="SVGID_13_" gradientUnits="userSpaceOnUse" x1="315.4658" y1="-316.5825" x2="315.4658" y2="-319.9731" gradientTransform="matrix(0.75 0 0 -0.75 -149.6895 -154.082)">
		<stop  offset="0" style="stop-color:#968E8E"/>
		<stop  offset="0.15" style="stop-color:#CFC5C5"/>
		<stop  offset="0.25" style="stop-color:#E4DFE0"/>
		<stop  offset="0.52" style="stop-color:#B1A8A9"/>
		<stop  offset="0.69" style="stop-color:#9E9596"/>
		<stop  offset="0.8" style="stop-color:#958C8D"/>
		<stop  offset="0.92" style="stop-color:#8C8485"/>
		<stop  offset="1" style="stop-color:#A19999"/>
	</linearGradient>
	<path fill="url(#SVGID_13_)" d="M53.91,83.379h66c0,0,0.586,0.328,0.586,0.766l0.164,0.734c0,0.75-0.453,1.02-0.805,1.02
		l-65.945-0.27c-0.75,0-0.75-0.086-0.75-0.523v-0.977c0-0.75,0.266-0.773,0.621-0.773L53.91,83.379z"/>
	
		<linearGradient id="SVGID_14_" gradientUnits="userSpaceOnUse" x1="315.4658" y1="-316.5806" x2="315.4658" y2="-319.9761" gradientTransform="matrix(0.75 0 0 -0.75 -149.6895 -146.6689)">
		<stop  offset="0" style="stop-color:#968E8E"/>
		<stop  offset="0.15" style="stop-color:#CFC5C5"/>
		<stop  offset="0.25" style="stop-color:#E4DFE0"/>
		<stop  offset="0.52" style="stop-color:#B1A8A9"/>
		<stop  offset="0.69" style="stop-color:#9E9596"/>
		<stop  offset="0.8" style="stop-color:#958C8D"/>
		<stop  offset="0.92" style="stop-color:#8C8485"/>
		<stop  offset="1" style="stop-color:#A19999"/>
	</linearGradient>
	<path fill="url(#SVGID_14_)" d="M53.91,90.789h66c0,0,0.586,0.332,0.586,0.77l0.164,0.73c0,0.75-0.453,1.023-0.805,1.023
		L53.91,93.039c-0.75,0-0.75-0.082-0.75-0.52v-0.98c0-0.75,0.266-0.773,0.621-0.773L53.91,90.789z"/>
	<path fill="#C7C0C1" d="M45.52,23.691h39l-4.5,13.5h-30L45.52,23.691z"/>
	<path fill="#A59C9D" d="M45.406,21.875h39.75c0,0,0.105,0.18,0.105,0.398l-0.105,1.852c0,0-0.07,0.457-0.293,0.457l-39.457,0.293
		c-0.75,0-0.75-0.473-0.75-0.691v-1.559c0-0.75,0.16-0.75,0.379-0.75H45.406z"/>
</g>
</svg>
