<?xml version="1.0" encoding="utf-8"?>
<!-- Generator: Adobe Illustrator 16.0.0, SVG Export Plug-In . SVG Version: 6.00 Build 0)  -->
<!DOCTYPE svg PUBLIC "-//W3C//DTD SVG 1.1//EN" "http://www.w3.org/Graphics/SVG/1.1/DTD/svg11.dtd">
<svg preserveAspectRatio="none" version="1.1" id="图层_1" xmlns="http://www.w3.org/2000/svg" xmlns:xlink="http://www.w3.org/1999/xlink" x="0px" y="0px"
	 width="155.599px" height="114.156px" viewBox="1.179 5.555 155.599 114.156" enable-background="new 1.179 5.555 155.599 114.156"
	 xml:space="preserve">
<g id="surface221">
	
		<linearGradient id="SVGID_1_" gradientUnits="userSpaceOnUse" x1="305.4639" y1="-316.6138" x2="305.4639" y2="-468.6138" gradientTransform="matrix(0.75 0 0 -0.75 -179.6221 -231.9063)">
		<stop  offset="0" style="stop-color:#B1AD94"/>
		<stop  offset="0.15" style="stop-color:#E9E4C6"/>
		<stop  offset="0.25" style="stop-color:#F2F0E0"/>
		<stop  offset="0.52" style="stop-color:#CAC6A9"/>
		<stop  offset="0.69" style="stop-color:#B4B097"/>
		<stop  offset="0.8" style="stop-color:#AAA68E"/>
		<stop  offset="0.97" style="stop-color:#A09C86"/>
		<stop  offset="1" style="stop-color:#B8B49A"/>
	</linearGradient>
	<path fill="url(#SVGID_1_)" d="M23.227,5.555h52.5v114h-52.5V5.555z"/>
	
		<linearGradient id="SVGID_2_" gradientUnits="userSpaceOnUse" x1="285.4648" y1="-316.6138" x2="285.4648" y2="-468.6138" gradientTransform="matrix(0.75 0 0 -0.75 -201.6689 -231.9063)">
		<stop  offset="0" style="stop-color:#AFB8BA"/>
		<stop  offset="0.15" style="stop-color:#E7F1F3"/>
		<stop  offset="0.25" style="stop-color:#F1F7F8"/>
		<stop  offset="0.52" style="stop-color:#C8D2D4"/>
		<stop  offset="0.69" style="stop-color:#B2BBBD"/>
		<stop  offset="0.8" style="stop-color:#A8B0B2"/>
		<stop  offset="0.97" style="stop-color:#9FA6A8"/>
		<stop  offset="1" style="stop-color:#B6BFC1"/>
	</linearGradient>
	<path fill="url(#SVGID_2_)" d="M23.68,5.555v114c0,0-22.664,0.395-22.5-56.66c0-57.34,22.402-57.34,22.402-57.34H23.68z"/>
	
		<linearGradient id="SVGID_3_" gradientUnits="userSpaceOnUse" x1="274.9629" y1="-316.5923" x2="274.9629" y2="-334.8892" gradientTransform="matrix(0.75 0 0 -0.75 -174.9805 -226.7881)">
		<stop  offset="0" style="stop-color:#8E9393"/>
		<stop  offset="0.15" style="stop-color:#BFC5C5"/>
		<stop  offset="0.25" style="stop-color:#DDDFE0"/>
		<stop  offset="0.52" style="stop-color:#A2A8A9"/>
		<stop  offset="0.69" style="stop-color:#909596"/>
		<stop  offset="0.8" style="stop-color:#888C8D"/>
		<stop  offset="0.97" style="stop-color:#808485"/>
		<stop  offset="1" style="stop-color:#949999"/>
	</linearGradient>
	<path fill="url(#SVGID_3_)" d="M29.367,10.672h3.75c0.75,0,1.32,0.523,1.32,1.188l0.18,11.563c0,0.75-0.723,0.957-1.395,0.957
		l-3.855-0.207c-0.75,0-1.5-0.332-1.5-0.996V12.172c0-0.75,0.547-1.516,1.219-1.516L29.367,10.672z"/>
	
		<linearGradient id="SVGID_4_" gradientUnits="userSpaceOnUse" x1="274.9619" y1="-316.5923" x2="274.9619" y2="-334.8892" gradientTransform="matrix(0.75 0 0 -0.75 -157.5732 -226.7881)">
		<stop  offset="0" style="stop-color:#8E9393"/>
		<stop  offset="0.15" style="stop-color:#BFC5C5"/>
		<stop  offset="0.25" style="stop-color:#DDDFE0"/>
		<stop  offset="0.52" style="stop-color:#A2A8A9"/>
		<stop  offset="0.69" style="stop-color:#909596"/>
		<stop  offset="0.8" style="stop-color:#888C8D"/>
		<stop  offset="0.97" style="stop-color:#808485"/>
		<stop  offset="1" style="stop-color:#949999"/>
	</linearGradient>
	<path fill="url(#SVGID_4_)" d="M46.773,10.672h3.75c0.75,0,1.32,0.523,1.32,1.188l0.18,11.563c0,0.75-0.723,0.957-1.395,0.957
		l-3.855-0.207c-0.75,0-1.5-0.332-1.5-0.996V12.172c0-0.75,0.547-1.516,1.219-1.516L46.773,10.672z"/>
	
		<linearGradient id="SVGID_5_" gradientUnits="userSpaceOnUse" x1="274.9619" y1="-316.5923" x2="274.9619" y2="-334.8892" gradientTransform="matrix(0.75 0 0 -0.75 -140.1753 -226.7881)">
		<stop  offset="0" style="stop-color:#8E9393"/>
		<stop  offset="0.15" style="stop-color:#BFC5C5"/>
		<stop  offset="0.25" style="stop-color:#DDDFE0"/>
		<stop  offset="0.52" style="stop-color:#A2A8A9"/>
		<stop  offset="0.69" style="stop-color:#909596"/>
		<stop  offset="0.8" style="stop-color:#888C8D"/>
		<stop  offset="0.97" style="stop-color:#808485"/>
		<stop  offset="1" style="stop-color:#949999"/>
	</linearGradient>
	<path fill="url(#SVGID_5_)" d="M64.172,10.672h3.75c0.75,0,1.32,0.523,1.32,1.188l0.18,11.563c0,0.75-0.723,0.957-1.395,0.957
		l-3.855-0.207c-0.75,0-1.5-0.332-1.5-0.996V12.172c0-0.75,0.547-1.516,1.219-1.516L64.172,10.672z"/>
	
		<linearGradient id="SVGID_6_" gradientUnits="userSpaceOnUse" x1="274.9629" y1="-316.5913" x2="274.9629" y2="-334.8882" gradientTransform="matrix(0.75 0 0 -0.75 -174.9805 -195.9746)">
		<stop  offset="0" style="stop-color:#8E9393"/>
		<stop  offset="0.15" style="stop-color:#BFC5C5"/>
		<stop  offset="0.25" style="stop-color:#DDDFE0"/>
		<stop  offset="0.52" style="stop-color:#A2A8A9"/>
		<stop  offset="0.69" style="stop-color:#909596"/>
		<stop  offset="0.8" style="stop-color:#888C8D"/>
		<stop  offset="0.97" style="stop-color:#808485"/>
		<stop  offset="1" style="stop-color:#949999"/>
	</linearGradient>
	<path fill="url(#SVGID_6_)" d="M29.367,41.484h3.75c0.75,0,1.32,0.523,1.32,1.191l0.18,11.559c0,0.75-0.723,0.957-1.395,0.957
		l-3.855-0.207c-0.75,0-1.5-0.332-1.5-0.996V42.984c0-0.75,0.547-1.516,1.219-1.516L29.367,41.484z"/>
	
		<linearGradient id="SVGID_7_" gradientUnits="userSpaceOnUse" x1="274.9619" y1="-316.5913" x2="274.9619" y2="-334.8882" gradientTransform="matrix(0.75 0 0 -0.75 -157.5732 -195.9746)">
		<stop  offset="0" style="stop-color:#8E9393"/>
		<stop  offset="0.15" style="stop-color:#BFC5C5"/>
		<stop  offset="0.25" style="stop-color:#DDDFE0"/>
		<stop  offset="0.52" style="stop-color:#A2A8A9"/>
		<stop  offset="0.69" style="stop-color:#909596"/>
		<stop  offset="0.8" style="stop-color:#888C8D"/>
		<stop  offset="0.97" style="stop-color:#808485"/>
		<stop  offset="1" style="stop-color:#949999"/>
	</linearGradient>
	<path fill="url(#SVGID_7_)" d="M46.773,41.484h3.75c0.75,0,1.32,0.523,1.32,1.191l0.18,11.559c0,0.75-0.723,0.957-1.395,0.957
		l-3.855-0.207c-0.75,0-1.5-0.332-1.5-0.996V42.984c0-0.75,0.547-1.516,1.219-1.516L46.773,41.484z"/>
	
		<linearGradient id="SVGID_8_" gradientUnits="userSpaceOnUse" x1="274.9619" y1="-316.5913" x2="274.9619" y2="-334.8882" gradientTransform="matrix(0.75 0 0 -0.75 -140.1753 -195.9746)">
		<stop  offset="0" style="stop-color:#8E9393"/>
		<stop  offset="0.15" style="stop-color:#BFC5C5"/>
		<stop  offset="0.25" style="stop-color:#DDDFE0"/>
		<stop  offset="0.52" style="stop-color:#A2A8A9"/>
		<stop  offset="0.69" style="stop-color:#909596"/>
		<stop  offset="0.8" style="stop-color:#888C8D"/>
		<stop  offset="0.97" style="stop-color:#808485"/>
		<stop  offset="1" style="stop-color:#949999"/>
	</linearGradient>
	<path fill="url(#SVGID_8_)" d="M64.172,41.484h3.75c0.75,0,1.32,0.523,1.32,1.191l0.18,11.559c0,0.75-0.723,0.957-1.395,0.957
		l-3.855-0.207c-0.75,0-1.5-0.332-1.5-0.996V42.984c0-0.75,0.547-1.516,1.219-1.516L64.172,41.484z"/>
	
		<linearGradient id="SVGID_9_" gradientUnits="userSpaceOnUse" x1="274.9629" y1="-316.5942" x2="274.9629" y2="-334.8911" gradientTransform="matrix(0.75 0 0 -0.75 -174.9805 -166.6055)">
		<stop  offset="0" style="stop-color:#8E9393"/>
		<stop  offset="0.15" style="stop-color:#BFC5C5"/>
		<stop  offset="0.25" style="stop-color:#DDDFE0"/>
		<stop  offset="0.52" style="stop-color:#A2A8A9"/>
		<stop  offset="0.69" style="stop-color:#909596"/>
		<stop  offset="0.8" style="stop-color:#888C8D"/>
		<stop  offset="0.97" style="stop-color:#808485"/>
		<stop  offset="1" style="stop-color:#949999"/>
	</linearGradient>
	<path fill="url(#SVGID_9_)" d="M29.367,70.855h3.75c0.75,0,1.32,0.523,1.32,1.188l0.18,11.563c0,0.75-0.723,0.957-1.395,0.957
		l-3.855-0.207c-0.75,0-1.5-0.332-1.5-1v-11c0-0.75,0.547-1.516,1.219-1.516L29.367,70.855z"/>
	
		<linearGradient id="SVGID_10_" gradientUnits="userSpaceOnUse" x1="274.9619" y1="-316.5942" x2="274.9619" y2="-334.8911" gradientTransform="matrix(0.75 0 0 -0.75 -157.5732 -166.6055)">
		<stop  offset="0" style="stop-color:#8E9393"/>
		<stop  offset="0.15" style="stop-color:#BFC5C5"/>
		<stop  offset="0.25" style="stop-color:#DDDFE0"/>
		<stop  offset="0.52" style="stop-color:#A2A8A9"/>
		<stop  offset="0.69" style="stop-color:#909596"/>
		<stop  offset="0.8" style="stop-color:#888C8D"/>
		<stop  offset="0.97" style="stop-color:#808485"/>
		<stop  offset="1" style="stop-color:#949999"/>
	</linearGradient>
	<path fill="url(#SVGID_10_)" d="M46.773,70.855h3.75c0.75,0,1.32,0.523,1.32,1.188l0.18,11.563c0,0.75-0.723,0.957-1.395,0.957
		l-3.855-0.207c-0.75,0-1.5-0.332-1.5-1v-11c0-0.75,0.547-1.516,1.219-1.516L46.773,70.855z"/>
	
		<linearGradient id="SVGID_11_" gradientUnits="userSpaceOnUse" x1="274.9619" y1="-316.5942" x2="274.9619" y2="-334.8911" gradientTransform="matrix(0.75 0 0 -0.75 -140.1753 -166.6055)">
		<stop  offset="0" style="stop-color:#8E9393"/>
		<stop  offset="0.15" style="stop-color:#BFC5C5"/>
		<stop  offset="0.25" style="stop-color:#DDDFE0"/>
		<stop  offset="0.52" style="stop-color:#A2A8A9"/>
		<stop  offset="0.69" style="stop-color:#909596"/>
		<stop  offset="0.8" style="stop-color:#888C8D"/>
		<stop  offset="0.97" style="stop-color:#808485"/>
		<stop  offset="1" style="stop-color:#949999"/>
	</linearGradient>
	<path fill="url(#SVGID_11_)" d="M64.172,70.855h3.75c0.75,0,1.32,0.523,1.32,1.188l0.18,11.563c0,0.75-0.723,0.957-1.395,0.957
		l-3.855-0.207c-0.75,0-1.5-0.332-1.5-1v-11c0-0.75,0.547-1.516,1.219-1.516L64.172,70.855z"/>
	
		<linearGradient id="SVGID_12_" gradientUnits="userSpaceOnUse" x1="274.9629" y1="-316.5942" x2="274.9629" y2="-334.8911" gradientTransform="matrix(0.75 0 0 -0.75 -174.9805 -135.793)">
		<stop  offset="0" style="stop-color:#8E9393"/>
		<stop  offset="0.15" style="stop-color:#BFC5C5"/>
		<stop  offset="0.25" style="stop-color:#DDDFE0"/>
		<stop  offset="0.52" style="stop-color:#A2A8A9"/>
		<stop  offset="0.69" style="stop-color:#909596"/>
		<stop  offset="0.8" style="stop-color:#888C8D"/>
		<stop  offset="0.97" style="stop-color:#808485"/>
		<stop  offset="1" style="stop-color:#949999"/>
	</linearGradient>
	<path fill="url(#SVGID_12_)" d="M29.367,101.668h3.75c0.75,0,1.32,0.523,1.32,1.188l0.18,11.563c0,0.75-0.723,0.957-1.395,0.957
		l-3.855-0.207c-0.75,0-1.5-0.332-1.5-0.996v-11.004c0-0.75,0.547-1.516,1.219-1.516L29.367,101.668z"/>
	
		<linearGradient id="SVGID_13_" gradientUnits="userSpaceOnUse" x1="274.9619" y1="-316.5942" x2="274.9619" y2="-334.8911" gradientTransform="matrix(0.75 0 0 -0.75 -157.5732 -135.793)">
		<stop  offset="0" style="stop-color:#8E9393"/>
		<stop  offset="0.15" style="stop-color:#BFC5C5"/>
		<stop  offset="0.25" style="stop-color:#DDDFE0"/>
		<stop  offset="0.52" style="stop-color:#A2A8A9"/>
		<stop  offset="0.69" style="stop-color:#909596"/>
		<stop  offset="0.8" style="stop-color:#888C8D"/>
		<stop  offset="0.97" style="stop-color:#808485"/>
		<stop  offset="1" style="stop-color:#949999"/>
	</linearGradient>
	<path fill="url(#SVGID_13_)" d="M46.773,101.668h3.75c0.75,0,1.32,0.523,1.32,1.188l0.18,11.563c0,0.75-0.723,0.957-1.395,0.957
		l-3.855-0.207c-0.75,0-1.5-0.332-1.5-0.996v-11.004c0-0.75,0.547-1.516,1.219-1.516L46.773,101.668z"/>
	
		<linearGradient id="SVGID_14_" gradientUnits="userSpaceOnUse" x1="274.9619" y1="-316.5942" x2="274.9619" y2="-334.8911" gradientTransform="matrix(0.75 0 0 -0.75 -140.1753 -135.793)">
		<stop  offset="0" style="stop-color:#8E9393"/>
		<stop  offset="0.15" style="stop-color:#BFC5C5"/>
		<stop  offset="0.25" style="stop-color:#DDDFE0"/>
		<stop  offset="0.52" style="stop-color:#A2A8A9"/>
		<stop  offset="0.69" style="stop-color:#909596"/>
		<stop  offset="0.8" style="stop-color:#888C8D"/>
		<stop  offset="0.97" style="stop-color:#808485"/>
		<stop  offset="1" style="stop-color:#949999"/>
	</linearGradient>
	<path fill="url(#SVGID_14_)" d="M64.172,101.668h3.75c0.75,0,1.32,0.523,1.32,1.188l0.18,11.563c0,0.75-0.723,0.957-1.395,0.957
		l-3.855-0.207c-0.75,0-1.5-0.332-1.5-0.996v-11.004c0-0.75,0.547-1.516,1.219-1.516L64.172,101.668z"/>
	
		<linearGradient id="SVGID_15_" gradientUnits="userSpaceOnUse" x1="284.4639" y1="-316.6138" x2="284.4639" y2="-468.6138" gradientTransform="matrix(0.75 0 0 -0.75 -127.0591 -231.8584)">
		<stop  offset="0" style="stop-color:#AFB8BA"/>
		<stop  offset="0.15" style="stop-color:#E7F1F3"/>
		<stop  offset="0.25" style="stop-color:#F1F7F8"/>
		<stop  offset="0.52" style="stop-color:#C8D2D4"/>
		<stop  offset="0.69" style="stop-color:#B2BBBD"/>
		<stop  offset="0.8" style="stop-color:#A8B0B2"/>
		<stop  offset="0.97" style="stop-color:#9FA6A8"/>
		<stop  offset="1" style="stop-color:#B6BFC1"/>
	</linearGradient>
	<path fill="url(#SVGID_15_)" d="M75.789,5.602h21v114h-21V5.602z"/>
	
		<linearGradient id="SVGID_16_" gradientUnits="userSpaceOnUse" x1="273.4639" y1="-316.6118" x2="273.4639" y2="-451.6118" gradientTransform="matrix(0.75 0 0 -0.75 -105.7778 -225.4551)">
		<stop  offset="0" style="stop-color:#BAC0C1"/>
		<stop  offset="0.15" style="stop-color:#F4FAFC"/>
		<stop  offset="0.25" style="stop-color:#F8FCFD"/>
		<stop  offset="0.52" style="stop-color:#D5DBDD"/>
		<stop  offset="0.69" style="stop-color:#BDC3C4"/>
		<stop  offset="0.8" style="stop-color:#B3B8B9"/>
		<stop  offset="0.97" style="stop-color:#A9AEAF"/>
		<stop  offset="1" style="stop-color:#C2C7C9"/>
	</linearGradient>
	<path fill="url(#SVGID_16_)" d="M97.07,12.004h4.5v101.25h-4.5V12.004z"/>
	
		<linearGradient id="SVGID_17_" gradientUnits="userSpaceOnUse" x1="285.4639" y1="-322.6143" x2="270.4639" y2="-322.6143" gradientTransform="matrix(0.75 0 0 -0.75 -60.3643 -167.2861)">
		<stop  offset="0" style="stop-color:#B1AD94"/>
		<stop  offset="0.15" style="stop-color:#E9E4C6"/>
		<stop  offset="0.25" style="stop-color:#F2F0E0"/>
		<stop  offset="0.52" style="stop-color:#CAC6A9"/>
		<stop  offset="0.69" style="stop-color:#B4B097"/>
		<stop  offset="0.8" style="stop-color:#AAA68E"/>
		<stop  offset="0.97" style="stop-color:#A09C86"/>
		<stop  offset="1" style="stop-color:#B8B49A"/>
	</linearGradient>
	<path fill="url(#SVGID_17_)" d="M142.484,70.176h11.25v9h-11.25V70.176z"/>
	
		<linearGradient id="SVGID_18_" gradientUnits="userSpaceOnUse" x1="271.4639" y1="-316.6138" x2="271.4639" y2="-468.6138" gradientTransform="matrix(0.75 0 0 -0.75 -128.063 -231.8584)">
		<stop  offset="0" style="stop-color:#928E7A"/>
		<stop  offset="0.15" style="stop-color:#C4BFA8"/>
		<stop  offset="0.25" style="stop-color:#DFDDD2"/>
		<stop  offset="0.52" style="stop-color:#A7A28B"/>
		<stop  offset="0.69" style="stop-color:#94907C"/>
		<stop  offset="0.8" style="stop-color:#8C8874"/>
		<stop  offset="0.97" style="stop-color:#84806E"/>
		<stop  offset="1" style="stop-color:#98947F"/>
	</linearGradient>
	<path fill="url(#SVGID_18_)" d="M74.785,5.602h1.5v114h-1.5V5.602z"/>
	
		<linearGradient id="SVGID_19_" gradientUnits="userSpaceOnUse" x1="271.4609" y1="-316.6138" x2="271.4609" y2="-468.6138" gradientTransform="matrix(0.75 0 0 -0.75 -180.3032 -231.8584)">
		<stop  offset="0" style="stop-color:#928E7A"/>
		<stop  offset="0.15" style="stop-color:#C4BFA8"/>
		<stop  offset="0.25" style="stop-color:#DFDDD2"/>
		<stop  offset="0.52" style="stop-color:#A7A28B"/>
		<stop  offset="0.69" style="stop-color:#94907C"/>
		<stop  offset="0.8" style="stop-color:#8C8874"/>
		<stop  offset="0.97" style="stop-color:#84806E"/>
		<stop  offset="1" style="stop-color:#98947F"/>
	</linearGradient>
	<path fill="url(#SVGID_19_)" d="M22.543,5.602h1.5v114h-1.5V5.602z"/>
	
		<linearGradient id="SVGID_20_" gradientUnits="userSpaceOnUse" x1="303.9609" y1="-316.5767" x2="303.9609" y2="-337.6128" gradientTransform="matrix(0.75 0 0 -0.75 -96.3184 -182.502)">
		<stop  offset="0" style="stop-color:#B1AD94"/>
		<stop  offset="0.15" style="stop-color:#E9E4C6"/>
		<stop  offset="0.25" style="stop-color:#F2F0E0"/>
		<stop  offset="0.52" style="stop-color:#CAC6A9"/>
		<stop  offset="0.69" style="stop-color:#B4B097"/>
		<stop  offset="0.8" style="stop-color:#AAA68E"/>
		<stop  offset="0.97" style="stop-color:#A09C86"/>
		<stop  offset="1" style="stop-color:#B8B49A"/>
	</linearGradient>
	<path fill="url(#SVGID_20_)" d="M108.027,54.957h47.25c0.75,0,1.352,0.512,1.352,1.176l0.148,13.074
		c0,0.75-0.727,1.145-1.398,1.145l-47.352,0.355c-0.75,0-1.5-0.91-1.5-1.574V56.457c0-0.75,0.535-1.527,1.207-1.527L108.027,54.957z
		"/>
	
		<linearGradient id="SVGID_21_" gradientUnits="userSpaceOnUse" x1="284.4609" y1="-316.6118" x2="284.4609" y2="-343.6118" gradientTransform="matrix(0.75 0 0 -0.75 -89.3228 -184.9551)">
		<stop  offset="0" style="stop-color:#A49C73"/>
		<stop  offset="0.15" style="stop-color:#D9D0A0"/>
		<stop  offset="0.25" style="stop-color:#EAE5CE"/>
		<stop  offset="0.52" style="stop-color:#BBB284"/>
		<stop  offset="0.69" style="stop-color:#A69E75"/>
		<stop  offset="0.8" style="stop-color:#9D956E"/>
		<stop  offset="0.97" style="stop-color:#948D67"/>
		<stop  offset="1" style="stop-color:#AAA277"/>
	</linearGradient>
	<path fill="url(#SVGID_21_)" d="M113.523,52.504h21v20.25h-21V52.504z"/>
	
		<linearGradient id="SVGID_22_" gradientUnits="userSpaceOnUse" x1="274.4619" y1="-316.6157" x2="274.4619" y2="-357.6157" gradientTransform="matrix(0.75 0 0 -0.75 -101.0029 -190.3135)">
		<stop  offset="0" style="stop-color:#AFBBBE"/>
		<stop  offset="0.15" style="stop-color:#E7F5F8"/>
		<stop  offset="0.25" style="stop-color:#F1F9FB"/>
		<stop  offset="0.52" style="stop-color:#C8D6D9"/>
		<stop  offset="0.69" style="stop-color:#B2BEC1"/>
		<stop  offset="0.8" style="stop-color:#A8B3B6"/>
		<stop  offset="0.97" style="stop-color:#9FA9AC"/>
		<stop  offset="1" style="stop-color:#B6C3C6"/>
	</linearGradient>
	<path fill="url(#SVGID_22_)" d="M101.844,47.148h6v30.75h-6V47.148z"/>
	
		<linearGradient id="SVGID_23_" gradientUnits="userSpaceOnUse" x1="284.4639" y1="-316.6147" x2="284.4639" y2="-328.6147" gradientTransform="matrix(0.75 0 0 -0.75 -127.0591 -210.875)">
		<stop  offset="0" style="stop-color:#ABADAF"/>
		<stop  offset="0.03" style="stop-color:#F4F7F9"/>
		<stop  offset="0.08" style="stop-color:#DEE2E4"/>
		<stop  offset="0.64" style="stop-color:#DADEE0"/>
		<stop  offset="0.95" style="stop-color:#D5D9DB"/>
		<stop  offset="1" style="stop-color:#9EA1A2"/>
	</linearGradient>
	<path fill="url(#SVGID_23_)" d="M75.789,26.586h21v9h-21V26.586z"/>
	
		<linearGradient id="SVGID_24_" gradientUnits="userSpaceOnUse" x1="284.4639" y1="-316.6157" x2="284.4639" y2="-328.6157" gradientTransform="matrix(0.75 0 0 -0.75 -127.0591 -189.8438)">
		<stop  offset="0" style="stop-color:#ABADAF"/>
		<stop  offset="0.03" style="stop-color:#F4F7F9"/>
		<stop  offset="0.08" style="stop-color:#DEE2E4"/>
		<stop  offset="0.64" style="stop-color:#DADEE0"/>
		<stop  offset="0.95" style="stop-color:#D5D9DB"/>
		<stop  offset="1" style="stop-color:#9EA1A2"/>
	</linearGradient>
	<path fill="url(#SVGID_24_)" d="M75.789,47.617h21v9h-21V47.617z"/>
	
		<linearGradient id="SVGID_25_" gradientUnits="userSpaceOnUse" x1="284.4639" y1="-316.6138" x2="284.4639" y2="-328.6138" gradientTransform="matrix(0.75 0 0 -0.75 -127.0591 -169.1162)">
		<stop  offset="0" style="stop-color:#ABADAF"/>
		<stop  offset="0.03" style="stop-color:#F4F7F9"/>
		<stop  offset="0.08" style="stop-color:#DEE2E4"/>
		<stop  offset="0.64" style="stop-color:#DADEE0"/>
		<stop  offset="0.95" style="stop-color:#D5D9DB"/>
		<stop  offset="1" style="stop-color:#9EA1A2"/>
	</linearGradient>
	<path fill="url(#SVGID_25_)" d="M75.789,68.344h21v9h-21V68.344z"/>
	
		<linearGradient id="SVGID_26_" gradientUnits="userSpaceOnUse" x1="284.4639" y1="-316.6118" x2="284.4639" y2="-328.6118" gradientTransform="matrix(0.75 0 0 -0.75 -127.0591 -147.2012)">
		<stop  offset="0" style="stop-color:#ABADAF"/>
		<stop  offset="0.03" style="stop-color:#F4F7F9"/>
		<stop  offset="0.08" style="stop-color:#DEE2E4"/>
		<stop  offset="0.64" style="stop-color:#DADEE0"/>
		<stop  offset="0.95" style="stop-color:#D5D9DB"/>
		<stop  offset="1" style="stop-color:#9EA1A2"/>
	</linearGradient>
	<path fill="url(#SVGID_26_)" d="M75.789,90.258h21v9h-21V90.258z"/>
	
		<linearGradient id="SVGID_27_" gradientUnits="userSpaceOnUse" x1="284.4639" y1="-316.6157" x2="284.4639" y2="-328.6157" gradientTransform="matrix(0.75 0 0 -0.75 -127.0591 -126.75)">
		<stop  offset="0" style="stop-color:#ABADAF"/>
		<stop  offset="0.03" style="stop-color:#F4F7F9"/>
		<stop  offset="0.08" style="stop-color:#DEE2E4"/>
		<stop  offset="0.64" style="stop-color:#DADEE0"/>
		<stop  offset="0.95" style="stop-color:#D5D9DB"/>
		<stop  offset="1" style="stop-color:#9EA1A2"/>
	</linearGradient>
	<path fill="url(#SVGID_27_)" d="M75.789,110.711h21v9h-21V110.711z"/>
	
		<linearGradient id="SVGID_28_" gradientUnits="userSpaceOnUse" x1="284.4639" y1="-316.6138" x2="284.4639" y2="-328.6138" gradientTransform="matrix(0.75 0 0 -0.75 -127.0591 -231.9063)">
		<stop  offset="0" style="stop-color:#ABADAF"/>
		<stop  offset="0.03" style="stop-color:#F4F7F9"/>
		<stop  offset="0.08" style="stop-color:#DEE2E4"/>
		<stop  offset="0.64" style="stop-color:#DADEE0"/>
		<stop  offset="0.95" style="stop-color:#D5D9DB"/>
		<stop  offset="1" style="stop-color:#9EA1A2"/>
	</linearGradient>
	<path fill="url(#SVGID_28_)" d="M75.789,5.555h21v9h-21V5.555z"/>
</g>
</svg>
