<?xml version="1.0" encoding="utf-8"?>
<!-- Generator: Adobe Illustrator 16.0.0, SVG Export Plug-In . SVG Version: 6.00 Build 0)  -->
<!DOCTYPE svg PUBLIC "-//W3C//DTD SVG 1.1//EN" "http://www.w3.org/Graphics/SVG/1.1/DTD/svg11.dtd">
<svg preserveAspectRatio="none" version="1.1" id="图层_1" xmlns="http://www.w3.org/2000/svg" xmlns:xlink="http://www.w3.org/1999/xlink" x="0px" y="0px"
	 width="511.593px" height="567.566px" viewBox="27.715 -0.242 511.593 567.566"
	 enable-background="new 27.715 -0.242 511.593 567.566" xml:space="preserve">
<g id="surface1101">
	
		<linearGradient id="SVGID_1_" gradientUnits="userSpaceOnUse" x1="273.207" y1="201.3047" x2="273.207" y2="174.3047" gradientTransform="matrix(-0.75 0 0 -0.75 531.1349 213.6154)">
		<stop  offset="0" style="stop-color:#AFC4AA"/>
		<stop  offset="0.2" style="stop-color:#BAD0B4"/>
		<stop  offset="0.4" style="stop-color:#CFE7CA"/>
		<stop  offset="0.6" style="stop-color:#CFE7CA"/>
		<stop  offset="0.8" style="stop-color:#BAD0B4"/>
		<stop  offset="1" style="stop-color:#AFC4AA"/>
	</linearGradient>
	<path fill="url(#SVGID_1_)" d="M406.855,62.637h-161.25v20.25h161.25V62.637z"/>
	
		<linearGradient id="SVGID_2_" gradientUnits="userSpaceOnUse" x1="406.6226" y1="365.7046" x2="406.6226" y2="338.7046" gradientTransform="matrix(0 0.75 -0.75 0 686.1447 -187.4552)">
		<stop  offset="0" style="stop-color:#AFC4AA"/>
		<stop  offset="0.2" style="stop-color:#BAD0B4"/>
		<stop  offset="0.4" style="stop-color:#CFE7CA"/>
		<stop  offset="0.6" style="stop-color:#CFE7CA"/>
		<stop  offset="0.8" style="stop-color:#BAD0B4"/>
		<stop  offset="1" style="stop-color:#AFC4AA"/>
	</linearGradient>
	<path fill="url(#SVGID_2_)" d="M411.867,87.512v60h20.25v-60H411.867z"/>
	<path fill="#CDE6C7" d="M400.222,83.063v-21.75c0,0,12.289-0.773,23.348,9.73c9.652,9.02,9.652,23.438,9.652,23.438l-22.5-0.168
		c0,0,0.043-5.254-3.066-7.824c-3.684-2.676-7.793-3.188-7.793-3.188L400.222,83.063z"/>
	<path fill="#B4CAAF" d="M399.648,83.445v-3c0,0,6.094,0.355,10.02,4.066c4.23,4.184,4.23,9.945,4.23,9.945l-3,0.238
		c0-0.75-0.254-5.629-3.066-8.137c-2.934-3.113-7.941-3.273-7.941-3.273L399.648,83.445z"/>
	<path fill="#B9CFB3" d="M399.679,67.215v-3c0,0,13.332-0.109,22.063,8.652c10.188,10.098,8.625,21.586,8.625,21.586l-2.938-0.238
		c0,0,0.398-11.809-7.844-19.289c-9.406-8.461-19.695-7.816-19.695-7.816L399.679,67.215z"/>
	<path fill="#B4CAAF" d="M399.492,64.355v-3c0,0,12.516-0.957,24.07,9.66c9.68,9.09,9.68,23.422,9.68,23.422l-3-0.082
		c0,0,0.348-13.094-8.582-21.457c-9.418-9.293-21.816-8.688-21.816-8.688L399.492,64.355z"/>
	<path fill="#CDE6C7" d="M399.816,74.418v-4.5c0,0,9.711-0.793,17.66,7.09c7.09,7.16,7.09,17.449,7.09,17.449l-4.5,0.211
		c0,0-0.316-8.785-5.867-14.395c-6.133-5.855-14.313-5.551-14.313-5.551L399.816,74.418z"/>
	<path fill="#C4DCBE" d="M399.722,70.102v-3c0,0,10.852-0.582,19.914,7.852c8.586,7.898,7.836,19.5,7.836,19.5l-3-0.352
		c0,0,0.23-10.199-6.992-17.094c-8.008-7.656-17.594-7.07-17.594-7.07L399.722,70.102z"/>
	<path fill="#C4DCBE" d="M400.214,77.719v-3c0,0,8.379-0.414,13.984,5.555c5.516,5.695,5.516,14.18,5.516,14.18l-3-0.234
		c0,0-0.211-7.094-4.848-11.652c-4.902-4.848-11.98-4.988-11.98-4.988L400.214,77.719z"/>
	<path fill="#B9CFB3" d="M399.546,80.574v-3c0,0,7.66,0.352,12.32,4.992c4.93,4.758,4.93,11.891,4.93,11.891l-3,0.367
		c0,0,0.32-5.93-4.043-10.156c-4.207-4.094-9.848-4.227-9.848-4.227L399.546,80.574z"/>
	
		<linearGradient id="SVGID_3_" gradientUnits="userSpaceOnUse" x1="213.7075" y1="201.3037" x2="213.7075" y2="146.3037" gradientTransform="matrix(-0.75 0 0 -0.75 442.8849 526.5626)">
		<stop  offset="0" style="stop-color:#97AA93"/>
		<stop  offset="0.15" style="stop-color:#D0E8CB"/>
		<stop  offset="0.25" style="stop-color:#E5F2E2"/>
		<stop  offset="0.52" style="stop-color:#B3C9AE"/>
		<stop  offset="0.69" style="stop-color:#9FB39B"/>
		<stop  offset="0.8" style="stop-color:#96A992"/>
		<stop  offset="0.92" style="stop-color:#8E9F89"/>
		<stop  offset="1" style="stop-color:#A3B79E"/>
	</linearGradient>
	<path fill="url(#SVGID_3_)" d="M318.605,375.585h-72v41.25h72V375.585z"/>
	
		<linearGradient id="SVGID_4_" gradientUnits="userSpaceOnUse" x1="515.2251" y1="-16.6929" x2="202.2251" y2="-16.6929" gradientTransform="matrix(0.75 0 0 -0.75 152.8885 273.5372)">
		<stop  offset="0" style="stop-color:#90A38C"/>
		<stop  offset="0.01" style="stop-color:#D8EBD4"/>
		<stop  offset="0.03" style="stop-color:#BDD4B7"/>
		<stop  offset="0.64" style="stop-color:#BAD0B4"/>
		<stop  offset="0.99" style="stop-color:#B5CCB0"/>
		<stop  offset="1" style="stop-color:#869782"/>
	</linearGradient>
	<path fill="url(#SVGID_4_)" d="M304.558,122.559h234.75v327h-234.75V122.559z"/>
	
		<linearGradient id="SVGID_5_" gradientUnits="userSpaceOnUse" x1="515.2251" y1="195.8071" x2="202.2251" y2="195.8071" gradientTransform="matrix(0.75 0 0 -0.75 152.8885 592.4288)">
		<stop  offset="0" style="stop-color:#669561"/>
		<stop  offset="0.01" style="stop-color:#B0DDAB"/>
		<stop  offset="0.03" style="stop-color:#87C280"/>
		<stop  offset="0.64" style="stop-color:#85BF7E"/>
		<stop  offset="0.99" style="stop-color:#82BB7B"/>
		<stop  offset="1" style="stop-color:#5F8A5A"/>
	</linearGradient>
	<path fill="url(#SVGID_5_)" d="M304.558,441.449h234.75v8.25h-234.75V441.449z"/>
	<path stroke="#000000" stroke-linejoin="bevel" stroke-miterlimit="10" d="M345.753,144.863h44.25v49.5h-44.25V144.863z"/>
	<path fill="#EEEEEE" stroke="#000000" stroke-linejoin="bevel" stroke-miterlimit="10" d="M350.578,149.66h34.5v40.5h-34.5V149.66z
		"/>
	<path fill="#717070" stroke="#000000" stroke-linejoin="bevel" stroke-miterlimit="10" d="M350.578,176.945h34.5v12.75h-34.5
		V176.945z"/>
	
		<radialGradient id="SVGID_6_" cx="213.4941" cy="190.1724" r="15.8604" gradientTransform="matrix(0.75 0 0 -0.75 261.7655 351.0353)" gradientUnits="userSpaceOnUse">
		<stop  offset="0" style="stop-color:#C7E0C2"/>
		<stop  offset="0.54" style="stop-color:#C4DCBE"/>
		<stop  offset="0.74" style="stop-color:#DDEED9"/>
		<stop  offset="0.91" style="stop-color:#C4DCBE"/>
		<stop  offset="1" style="stop-color:#C4DCBE"/>
	</radialGradient>
	<path fill="url(#SVGID_6_)" stroke="#CDE6C7" stroke-width="0.25" stroke-linejoin="bevel" stroke-miterlimit="10" d="
		M413.433,208.309c0-4.5,3.781-8.27,8.453-8.27c4.297,0.02,8.43,3.742,8.43,8.379c0.367,4.391-3.777,8.355-8.43,8.355
		c-4.703-0.215-8.453-3.754-8.453-8.355V208.309z"/>
	<path fill="#BF9A23" d="M356,245.473c0-3,2.727-6.016,6.102-6.016c3.648,0.016,6.09,2.707,6.09,6.051
		c-0.191,2.965-2.73,6.035-6.09,6.035c-3.102-0.07-6.102-2.711-6.102-6.035V245.473z"/>
	
		<linearGradient id="SVGID_7_" gradientUnits="userSpaceOnUse" x1="215.8081" y1="199.3501" x2="201.1302" y2="190.8758" gradientTransform="matrix(0.75 0 0 -0.75 205.7596 391.8634)">
		<stop  offset="0" style="stop-color:#BF9A23"/>
		<stop  offset="0.15" style="stop-color:#F9CE54"/>
		<stop  offset="0.25" style="stop-color:#FCE4B6"/>
		<stop  offset="0.44" style="stop-color:#DAB12A"/>
		<stop  offset="0.6" style="stop-color:#C29D24"/>
		<stop  offset="0.8" style="stop-color:#A4841D"/>
		<stop  offset="0.97" style="stop-color:#967819"/>
	</linearGradient>
	<path fill="url(#SVGID_7_)" d="M357.429,245.387c0-2.25,2.09-4.512,4.672-4.512c2.828,0.012,4.664,2.07,4.664,4.633
		c-0.336,2.879-2.09,4.621-4.664,4.621c-2.422-0.242-4.672-2.074-4.672-4.621V245.387z"/>
	<path fill="#358284" d="M445.648,274.836c0-3,2.73-6.016,6.105-6.016c3.645,0.016,6.086,2.703,6.086,6.051
		c-0.191,2.965-2.73,6.035-6.086,6.035c-3.105-0.07-6.105-2.711-6.105-6.035V274.836z"/>
	
		<linearGradient id="SVGID_8_" gradientUnits="userSpaceOnUse" x1="215.8066" y1="199.3506" x2="201.1274" y2="190.8755" gradientTransform="matrix(0.75 0 0 -0.75 295.41 421.2257)">
		<stop  offset="0" style="stop-color:#3B9193"/>
		<stop  offset="0.15" style="stop-color:#67C3C5"/>
		<stop  offset="0.25" style="stop-color:#BBDEE0"/>
		<stop  offset="0.44" style="stop-color:#45A6A9"/>
		<stop  offset="0.6" style="stop-color:#3C9396"/>
		<stop  offset="0.8" style="stop-color:#317C7E"/>
		<stop  offset="0.97" style="stop-color:#2C7173"/>
	</linearGradient>
	<path fill="url(#SVGID_8_)" d="M447.078,274.746c0-2.25,2.09-4.508,4.676-4.508c2.824,0.008,4.66,2.07,4.66,4.633
		c-0.336,2.875-2.09,4.621-4.66,4.621c-2.426-0.246-4.676-2.074-4.676-4.621V274.746z"/>
	<path fill="#358284" d="M415.734,274.836c0-3,2.727-6.016,6.102-6.016c3.648,0.016,6.09,2.703,6.09,6.051
		c-0.191,2.965-2.73,6.035-6.09,6.035c-3.102-0.07-6.102-2.711-6.102-6.035V274.836z"/>
	
		<linearGradient id="SVGID_9_" gradientUnits="userSpaceOnUse" x1="215.8086" y1="199.3516" x2="201.1271" y2="190.8752" gradientTransform="matrix(0.75 0 0 -0.75 265.494 421.2257)">
		<stop  offset="0" style="stop-color:#3B9193"/>
		<stop  offset="0.15" style="stop-color:#67C3C5"/>
		<stop  offset="0.25" style="stop-color:#BBDEE0"/>
		<stop  offset="0.44" style="stop-color:#45A6A9"/>
		<stop  offset="0.6" style="stop-color:#3C9396"/>
		<stop  offset="0.8" style="stop-color:#317C7E"/>
		<stop  offset="0.97" style="stop-color:#2C7173"/>
	</linearGradient>
	<path fill="url(#SVGID_9_)" d="M417.164,274.746c0-2.25,2.09-4.508,4.672-4.508c2.828,0.008,4.664,2.07,4.664,4.633
		c-0.336,2.875-2.09,4.621-4.664,4.621c-2.422-0.246-4.672-2.074-4.672-4.621V274.746z"/>
	<path fill="#358284" d="M385.89,274.836c0-3,2.727-6.016,6.102-6.016c3.648,0.016,6.09,2.703,6.09,6.051
		c-0.191,2.965-2.73,6.035-6.09,6.035c-3.102-0.07-6.102-2.711-6.102-6.035V274.836z"/>
	
		<linearGradient id="SVGID_10_" gradientUnits="userSpaceOnUse" x1="215.8081" y1="199.3501" x2="201.1289" y2="190.875" gradientTransform="matrix(0.75 0 0 -0.75 235.6493 421.2257)">
		<stop  offset="0" style="stop-color:#3B9193"/>
		<stop  offset="0.15" style="stop-color:#67C3C5"/>
		<stop  offset="0.25" style="stop-color:#BBDEE0"/>
		<stop  offset="0.44" style="stop-color:#45A6A9"/>
		<stop  offset="0.6" style="stop-color:#3C9396"/>
		<stop  offset="0.8" style="stop-color:#317C7E"/>
		<stop  offset="0.97" style="stop-color:#2C7173"/>
	</linearGradient>
	<path fill="url(#SVGID_10_)" d="M387.32,274.746c0-2.25,2.09-4.508,4.672-4.508c2.828,0.008,4.664,2.07,4.664,4.633
		c-0.336,2.875-2.09,4.621-4.664,4.621c-2.422-0.246-4.672-2.074-4.672-4.621V274.746z"/>
	<path fill="#358284" d="M356.011,274.836c0-3,2.727-6.016,6.102-6.016c3.648,0.016,6.086,2.703,6.086,6.051
		c-0.188,2.965-2.727,6.035-6.086,6.035c-3.102-0.07-6.102-2.711-6.102-6.035V274.836z"/>
	
		<linearGradient id="SVGID_11_" gradientUnits="userSpaceOnUse" x1="215.8071" y1="199.3516" x2="201.1267" y2="190.8758" gradientTransform="matrix(0.75 0 0 -0.75 205.7694 421.2257)">
		<stop  offset="0" style="stop-color:#3B9193"/>
		<stop  offset="0.15" style="stop-color:#67C3C5"/>
		<stop  offset="0.25" style="stop-color:#BBDEE0"/>
		<stop  offset="0.44" style="stop-color:#45A6A9"/>
		<stop  offset="0.6" style="stop-color:#3C9396"/>
		<stop  offset="0.8" style="stop-color:#317C7E"/>
		<stop  offset="0.97" style="stop-color:#2C7173"/>
	</linearGradient>
	<path fill="url(#SVGID_11_)" d="M357.437,274.746c0-2.25,2.09-4.508,4.676-4.508c2.824,0.008,4.66,2.07,4.66,4.633
		c-0.336,2.875-2.09,4.621-4.66,4.621c-2.426-0.246-4.676-2.074-4.676-4.621V274.746z"/>
	<path fill="#358284" d="M475.531,274.836c0-3,2.727-6.016,6.102-6.016c3.648,0.016,6.09,2.703,6.09,6.051
		c-0.191,2.965-2.73,6.035-6.09,6.035c-3.102-0.07-6.102-2.711-6.102-6.035V274.836z"/>
	
		<linearGradient id="SVGID_12_" gradientUnits="userSpaceOnUse" x1="215.8071" y1="199.3496" x2="201.1291" y2="190.8752" gradientTransform="matrix(0.75 0 0 -0.75 325.2899 421.2257)">
		<stop  offset="0" style="stop-color:#3B9193"/>
		<stop  offset="0.15" style="stop-color:#67C3C5"/>
		<stop  offset="0.25" style="stop-color:#BBDEE0"/>
		<stop  offset="0.44" style="stop-color:#45A6A9"/>
		<stop  offset="0.6" style="stop-color:#3C9396"/>
		<stop  offset="0.8" style="stop-color:#317C7E"/>
		<stop  offset="0.97" style="stop-color:#2C7173"/>
	</linearGradient>
	<path fill="url(#SVGID_12_)" d="M476.96,274.746c0-2.25,2.09-4.508,4.672-4.508c2.828,0.008,4.664,2.07,4.664,4.633
		c-0.336,2.875-2.09,4.621-4.664,4.621c-2.422-0.246-4.672-2.074-4.672-4.621V274.746z"/>
	<path fill="#358284" d="M445.632,245.488c0-3,2.73-6.012,6.102-6.012c3.648,0.012,6.09,2.703,6.09,6.051
		c-0.191,2.961-2.73,6.035-6.09,6.035c-3.102-0.074-6.102-2.711-6.102-6.035V245.488z"/>
	
		<linearGradient id="SVGID_13_" gradientUnits="userSpaceOnUse" x1="215.8086" y1="199.3511" x2="201.1271" y2="190.8747" gradientTransform="matrix(0.75 0 0 -0.75 295.3934 391.881)">
		<stop  offset="0" style="stop-color:#3B9193"/>
		<stop  offset="0.15" style="stop-color:#67C3C5"/>
		<stop  offset="0.25" style="stop-color:#BBDEE0"/>
		<stop  offset="0.44" style="stop-color:#45A6A9"/>
		<stop  offset="0.6" style="stop-color:#3C9396"/>
		<stop  offset="0.8" style="stop-color:#317C7E"/>
		<stop  offset="0.97" style="stop-color:#2C7173"/>
	</linearGradient>
	<path fill="url(#SVGID_13_)" d="M447.062,245.402c0-2.25,2.09-4.512,4.672-4.512c2.828,0.012,4.664,2.074,4.664,4.637
		c-0.336,2.875-2.09,4.621-4.664,4.621c-2.422-0.246-4.672-2.074-4.672-4.621V245.402z"/>
	<path fill="#358284" d="M415.734,245.488c0-3,2.727-6.012,6.102-6.012c3.648,0.012,6.09,2.703,6.09,6.051
		c-0.191,2.961-2.73,6.035-6.09,6.035c-3.102-0.074-6.102-2.711-6.102-6.035V245.488z"/>
	
		<linearGradient id="SVGID_14_" gradientUnits="userSpaceOnUse" x1="215.8071" y1="199.3511" x2="201.1279" y2="190.876" gradientTransform="matrix(0.75 0 0 -0.75 265.494 391.881)">
		<stop  offset="0" style="stop-color:#3B9193"/>
		<stop  offset="0.15" style="stop-color:#67C3C5"/>
		<stop  offset="0.25" style="stop-color:#BBDEE0"/>
		<stop  offset="0.44" style="stop-color:#45A6A9"/>
		<stop  offset="0.6" style="stop-color:#3C9396"/>
		<stop  offset="0.8" style="stop-color:#317C7E"/>
		<stop  offset="0.97" style="stop-color:#2C7173"/>
	</linearGradient>
	<path fill="url(#SVGID_14_)" d="M417.164,245.402c0-2.25,2.09-4.512,4.672-4.512c2.828,0.012,4.664,2.074,4.664,4.637
		c-0.336,2.875-2.09,4.621-4.664,4.621c-2.422-0.246-4.672-2.074-4.672-4.621V245.402z"/>
	<path fill="#358284" d="M385.875,245.488c0-3,2.727-6.012,6.102-6.012c3.648,0.012,6.086,2.703,6.086,6.051
		c-0.188,2.961-2.727,6.035-6.086,6.035c-3.102-0.074-6.102-2.711-6.102-6.035V245.488z"/>
	
		<linearGradient id="SVGID_15_" gradientUnits="userSpaceOnUse" x1="215.8081" y1="199.3521" x2="201.1266" y2="190.8757" gradientTransform="matrix(0.75 0 0 -0.75 235.6337 391.881)">
		<stop  offset="0" style="stop-color:#3B9193"/>
		<stop  offset="0.15" style="stop-color:#67C3C5"/>
		<stop  offset="0.25" style="stop-color:#BBDEE0"/>
		<stop  offset="0.44" style="stop-color:#45A6A9"/>
		<stop  offset="0.6" style="stop-color:#3C9396"/>
		<stop  offset="0.8" style="stop-color:#317C7E"/>
		<stop  offset="0.97" style="stop-color:#2C7173"/>
	</linearGradient>
	<path fill="url(#SVGID_15_)" d="M387.3,245.402c0-2.25,2.09-4.512,4.676-4.512c2.824,0.012,4.66,2.074,4.66,4.637
		c-0.336,2.875-2.09,4.621-4.66,4.621c-2.426-0.246-4.676-2.074-4.676-4.621V245.402z"/>
	<path fill="#358284" d="M475.515,245.488c0-3,2.727-6.012,6.102-6.012c3.648,0.012,6.086,2.703,6.086,6.051
		c-0.188,2.961-2.727,6.035-6.086,6.035c-3.102-0.074-6.102-2.711-6.102-6.035V245.488z"/>
	
		<linearGradient id="SVGID_16_" gradientUnits="userSpaceOnUse" x1="215.8062" y1="199.3511" x2="201.1258" y2="190.8754" gradientTransform="matrix(0.75 0 0 -0.75 325.2743 391.881)">
		<stop  offset="0" style="stop-color:#3B9193"/>
		<stop  offset="0.15" style="stop-color:#67C3C5"/>
		<stop  offset="0.25" style="stop-color:#BBDEE0"/>
		<stop  offset="0.44" style="stop-color:#45A6A9"/>
		<stop  offset="0.6" style="stop-color:#3C9396"/>
		<stop  offset="0.8" style="stop-color:#317C7E"/>
		<stop  offset="0.97" style="stop-color:#2C7173"/>
	</linearGradient>
	<path fill="url(#SVGID_16_)" d="M476.945,245.402c0-2.25,2.09-4.512,4.672-4.512c2.828,0.012,4.66,2.074,4.66,4.637
		c-0.332,2.875-2.09,4.621-4.66,4.621c-2.422-0.246-4.672-2.074-4.672-4.621V245.402z"/>
	<path fill="#FFFFFF" fill-opacity="0.5176" d="M354.109,313.699h15.75v6h-15.75V313.699z"/>
	<path fill="#FFFFFF" fill-opacity="0.5176" d="M382.824,313.699h15.75v6h-15.75V313.699z"/>
	<path fill="#FFFFFF" fill-opacity="0.5176" d="M413.871,313.699h15.75v6h-15.75V313.699z"/>
	<path fill="#FFFFFF" fill-opacity="0.5176" d="M444.847,313.699h15.75v6h-15.75V313.699z"/>
	<path fill="#FFFFFF" fill-opacity="0.5176" d="M473.628,313.699h15.75v6h-15.75V313.699z"/>
	<path fill="#FFFFFF" fill-opacity="0.5176" d="M354.109,284.839h15.75v6h-15.75V284.839z"/>
	<path fill="#FFFFFF" fill-opacity="0.5176" d="M382.824,284.839h15.75v6h-15.75V284.839z"/>
	<path fill="#FFFFFF" fill-opacity="0.5176" d="M413.871,284.839h15.75v6h-15.75V284.839z"/>
	<path fill="#FFFFFF" fill-opacity="0.5176" d="M444.847,284.839h15.75v6h-15.75V284.839z"/>
	<path fill="#FFFFFF" fill-opacity="0.5176" d="M473.628,284.839h15.75v6h-15.75V284.839z"/>
	<path fill="#FFFFFF" fill-opacity="0.5176" d="M354.109,254.688h15.75v6h-15.75V254.688z"/>
	<path fill="#FFFFFF" fill-opacity="0.5176" d="M382.824,254.688h15.75v6h-15.75V254.688z"/>
	<path fill="#FFFFFF" fill-opacity="0.5176" d="M413.871,254.688h15.75v6h-15.75V254.688z"/>
	<path fill="#FFFFFF" fill-opacity="0.5176" d="M444.847,254.688h15.75v6h-15.75V254.688z"/>
	<path fill="#FFFFFF" fill-opacity="0.5176" d="M473.628,254.688h15.75v6h-15.75V254.688z"/>
	<path fill="#B86D76" d="M475.546,304.195c0-3,2.73-6.016,6.102-6.016c3.648,0.016,6.09,2.703,6.09,6.051
		c-0.191,2.965-2.73,6.035-6.09,6.035c-3.102-0.07-6.102-2.711-6.102-6.035V304.195z"/>
	
		<linearGradient id="SVGID_17_" gradientUnits="userSpaceOnUse" x1="215.8086" y1="199.3511" x2="201.1282" y2="190.8754" gradientTransform="matrix(0.75 0 0 -0.75 325.3065 450.5841)">
		<stop  offset="0" style="stop-color:#B86D76"/>
		<stop  offset="0.15" style="stop-color:#F19AA3"/>
		<stop  offset="0.25" style="stop-color:#F7CCD0"/>
		<stop  offset="0.44" style="stop-color:#D27D87"/>
		<stop  offset="0.6" style="stop-color:#BB6F78"/>
		<stop  offset="0.8" style="stop-color:#9E5D64"/>
		<stop  offset="0.97" style="stop-color:#90545B"/>
	</linearGradient>
	<path fill="url(#SVGID_17_)" d="M476.976,304.105c0-2.25,2.09-4.508,4.672-4.508c2.828,0.008,4.664,2.07,4.664,4.633
		c-0.336,2.875-2.09,4.621-4.664,4.621c-2.422-0.246-4.672-2.074-4.672-4.621V304.105z"/>
	<path fill="#B86D76" d="M445.667,304.195c0-3,2.727-6.016,6.102-6.016c3.648,0.016,6.086,2.703,6.086,6.051
		c-0.188,2.965-2.727,6.035-6.086,6.035c-3.102-0.07-6.102-2.711-6.102-6.035V304.195z"/>
	
		<linearGradient id="SVGID_18_" gradientUnits="userSpaceOnUse" x1="215.8081" y1="199.3525" x2="201.1266" y2="190.8762" gradientTransform="matrix(0.75 0 0 -0.75 295.4266 450.5841)">
		<stop  offset="0" style="stop-color:#B86D76"/>
		<stop  offset="0.15" style="stop-color:#F19AA3"/>
		<stop  offset="0.25" style="stop-color:#F7CCD0"/>
		<stop  offset="0.44" style="stop-color:#D27D87"/>
		<stop  offset="0.6" style="stop-color:#BB6F78"/>
		<stop  offset="0.8" style="stop-color:#9E5D64"/>
		<stop  offset="0.97" style="stop-color:#90545B"/>
	</linearGradient>
	<path fill="url(#SVGID_18_)" d="M447.093,304.105c0-2.25,2.09-4.508,4.676-4.508c2.824,0.008,4.66,2.07,4.66,4.633
		c-0.336,2.875-2.09,4.621-4.66,4.621c-2.426-0.246-4.676-2.074-4.676-4.621V304.105z"/>
	<path fill="#B86D76" d="M415.75,304.195c0-3,2.73-6.016,6.102-6.016c3.648,0.016,6.09,2.703,6.09,6.051
		c-0.191,2.965-2.73,6.035-6.09,6.035c-3.102-0.07-6.102-2.711-6.102-6.035V304.195z"/>
	
		<linearGradient id="SVGID_19_" gradientUnits="userSpaceOnUse" x1="215.8081" y1="199.3501" x2="201.1277" y2="190.8744" gradientTransform="matrix(0.75 0 0 -0.75 265.5106 450.5841)">
		<stop  offset="0" style="stop-color:#B86D76"/>
		<stop  offset="0.15" style="stop-color:#F19AA3"/>
		<stop  offset="0.25" style="stop-color:#F7CCD0"/>
		<stop  offset="0.44" style="stop-color:#D27D87"/>
		<stop  offset="0.6" style="stop-color:#BB6F78"/>
		<stop  offset="0.8" style="stop-color:#9E5D64"/>
		<stop  offset="0.97" style="stop-color:#90545B"/>
	</linearGradient>
	<path fill="url(#SVGID_19_)" d="M417.179,304.105c0-2.25,2.09-4.508,4.672-4.508c2.828,0.008,4.664,2.07,4.664,4.633
		c-0.336,2.875-2.09,4.621-4.664,4.621c-2.422-0.246-4.672-2.074-4.672-4.621V304.105z"/>
	<path fill="#B86D76" d="M385.906,304.195c0-3,2.73-6.016,6.102-6.016c3.648,0.016,6.09,2.703,6.09,6.051
		c-0.191,2.965-2.73,6.035-6.09,6.035c-3.102-0.07-6.102-2.711-6.102-6.035V304.195z"/>
	
		<linearGradient id="SVGID_20_" gradientUnits="userSpaceOnUse" x1="215.8081" y1="199.3501" x2="201.1277" y2="190.8744" gradientTransform="matrix(0.75 0 0 -0.75 235.6659 450.5841)">
		<stop  offset="0" style="stop-color:#B86D76"/>
		<stop  offset="0.15" style="stop-color:#F19AA3"/>
		<stop  offset="0.25" style="stop-color:#F7CCD0"/>
		<stop  offset="0.44" style="stop-color:#D27D87"/>
		<stop  offset="0.6" style="stop-color:#BB6F78"/>
		<stop  offset="0.8" style="stop-color:#9E5D64"/>
		<stop  offset="0.97" style="stop-color:#90545B"/>
	</linearGradient>
	<path fill="url(#SVGID_20_)" d="M387.335,304.105c0-2.25,2.09-4.508,4.672-4.508c2.828,0.008,4.664,2.07,4.664,4.633
		c-0.336,2.875-2.09,4.621-4.664,4.621c-2.422-0.246-4.672-2.074-4.672-4.621V304.105z"/>
	<path fill="#B86D76" d="M356.027,304.195c0-3,2.727-6.016,6.102-6.016c3.648,0.016,6.09,2.703,6.09,6.051
		c-0.191,2.965-2.73,6.035-6.09,6.035c-3.102-0.07-6.102-2.711-6.102-6.035V304.195z"/>
	
		<linearGradient id="SVGID_21_" gradientUnits="userSpaceOnUse" x1="215.8086" y1="199.3491" x2="201.1294" y2="190.8741" gradientTransform="matrix(0.75 0 0 -0.75 205.786 450.5841)">
		<stop  offset="0" style="stop-color:#B86D76"/>
		<stop  offset="0.15" style="stop-color:#F19AA3"/>
		<stop  offset="0.25" style="stop-color:#F7CCD0"/>
		<stop  offset="0.44" style="stop-color:#D27D87"/>
		<stop  offset="0.6" style="stop-color:#BB6F78"/>
		<stop  offset="0.8" style="stop-color:#9E5D64"/>
		<stop  offset="0.97" style="stop-color:#90545B"/>
	</linearGradient>
	<path fill="url(#SVGID_21_)" d="M357.457,304.105c0-2.25,2.09-4.508,4.672-4.508c2.828,0.008,4.664,2.07,4.664,4.633
		c-0.336,2.875-2.09,4.621-4.664,4.621c-2.422-0.246-4.672-2.074-4.672-4.621V304.105z"/>
	<path fill="#FFFFFF" fill-opacity="0.2314" d="M431.125,148.926h78c0.75,0,1.352,0.676,1.352,1.621l0.148,33.629
		c0,0.75-0.836,1.676-1.688,1.676l-77.813-0.176c-0.75,0-1.5-0.59-1.5-1.535v-33.715c0-0.75,0.688-1.59,1.539-1.59L431.125,148.926z
		"/>
	
		<linearGradient id="SVGID_22_" gradientUnits="userSpaceOnUse" x1="202.7031" y1="123.3047" x2="165.7031" y2="123.3047" gradientTransform="matrix(-0.75 0 0 -0.75 646.3429 600.8644)">
		<stop  offset="0" style="stop-color:#90A38C"/>
		<stop  offset="0.01" style="stop-color:#D8EBD4"/>
		<stop  offset="0.02" style="stop-color:#BDD4B7"/>
		<stop  offset="0.64" style="stop-color:#BAD0B4"/>
		<stop  offset="0.99" style="stop-color:#B5CCB0"/>
		<stop  offset="1" style="stop-color:#869782"/>
	</linearGradient>
	<path fill="url(#SVGID_22_)" d="M522.066,449.886h-27.75l16.5,117h11.25V449.886z"/>
	
		<linearGradient id="SVGID_23_" gradientUnits="userSpaceOnUse" x1="239.2236" y1="123.3027" x2="202.2236" y2="123.3027" gradientTransform="matrix(0.75 0 0 -0.75 170.4725 600.8634)">
		<stop  offset="0" style="stop-color:#90A38C"/>
		<stop  offset="0.01" style="stop-color:#D8EBD4"/>
		<stop  offset="0.02" style="stop-color:#BDD4B7"/>
		<stop  offset="0.64" style="stop-color:#BAD0B4"/>
		<stop  offset="0.99" style="stop-color:#B5CCB0"/>
		<stop  offset="1" style="stop-color:#869782"/>
	</linearGradient>
	<path fill="url(#SVGID_23_)" d="M322.14,449.886h27.75l-16.5,117h-11.25V449.886z"/>
	
		<linearGradient id="SVGID_24_" gradientUnits="userSpaceOnUse" x1="221.2256" y1="169.3057" x2="202.2256" y2="169.3057" gradientTransform="matrix(0.75 0 0 -0.75 -101.6617 670.3029)">
		<stop  offset="0" style="stop-color:#97AA93"/>
		<stop  offset="0.15" style="stop-color:#D0E8CB"/>
		<stop  offset="0.25" style="stop-color:#E5F2E2"/>
		<stop  offset="0.52" style="stop-color:#B3C9AE"/>
		<stop  offset="0.69" style="stop-color:#9FB39B"/>
		<stop  offset="0.8" style="stop-color:#96A992"/>
		<stop  offset="0.92" style="stop-color:#8E9F89"/>
		<stop  offset="1" style="stop-color:#A3B79E"/>
	</linearGradient>
	<path fill="url(#SVGID_24_)" d="M50.008,519.324h14.25v48h-14.25V519.324z"/>
	
		<linearGradient id="SVGID_25_" gradientUnits="userSpaceOnUse" x1="231.2256" y1="140.8047" x2="202.2256" y2="140.8047" gradientTransform="matrix(0.75 0 0 -0.75 -105.4191 601.8448)">
		<stop  offset="0" style="stop-color:#97AA93"/>
		<stop  offset="0.15" style="stop-color:#D0E8CB"/>
		<stop  offset="0.25" style="stop-color:#E5F2E2"/>
		<stop  offset="0.52" style="stop-color:#B3C9AE"/>
		<stop  offset="0.69" style="stop-color:#9FB39B"/>
		<stop  offset="0.8" style="stop-color:#96A992"/>
		<stop  offset="0.92" style="stop-color:#8E9F89"/>
		<stop  offset="1" style="stop-color:#A3B79E"/>
	</linearGradient>
	<path fill="url(#SVGID_25_)" d="M46.25,450.867H68v90.75H46.25V450.867z"/>
	
		<linearGradient id="SVGID_26_" gradientUnits="userSpaceOnUse" x1="221.2251" y1="169.3057" x2="202.2251" y2="169.3057" gradientTransform="matrix(0.75 0 0 -0.75 75.3466 670.3029)">
		<stop  offset="0" style="stop-color:#97AA93"/>
		<stop  offset="0.15" style="stop-color:#D0E8CB"/>
		<stop  offset="0.25" style="stop-color:#E5F2E2"/>
		<stop  offset="0.52" style="stop-color:#B3C9AE"/>
		<stop  offset="0.69" style="stop-color:#9FB39B"/>
		<stop  offset="0.8" style="stop-color:#96A992"/>
		<stop  offset="0.92" style="stop-color:#8E9F89"/>
		<stop  offset="1" style="stop-color:#A3B79E"/>
	</linearGradient>
	<path fill="url(#SVGID_26_)" d="M227.016,519.324h14.25v48h-14.25V519.324z"/>
	
		<linearGradient id="SVGID_27_" gradientUnits="userSpaceOnUse" x1="231.2241" y1="140.8047" x2="202.2241" y2="140.8047" gradientTransform="matrix(0.75 0 0 -0.75 71.5892 601.8448)">
		<stop  offset="0" style="stop-color:#97AA93"/>
		<stop  offset="0.15" style="stop-color:#D0E8CB"/>
		<stop  offset="0.25" style="stop-color:#E5F2E2"/>
		<stop  offset="0.52" style="stop-color:#B3C9AE"/>
		<stop  offset="0.69" style="stop-color:#9FB39B"/>
		<stop  offset="0.8" style="stop-color:#96A992"/>
		<stop  offset="0.92" style="stop-color:#8E9F89"/>
		<stop  offset="1" style="stop-color:#A3B79E"/>
	</linearGradient>
	<path fill="url(#SVGID_27_)" d="M223.258,450.867h21.75v90.75h-21.75V450.867z"/>
	
		<linearGradient id="SVGID_28_" gradientUnits="userSpaceOnUse" x1="512.3501" y1="-99.6929" x2="202.2251" y2="-99.6929" gradientTransform="matrix(0.75 0 0 -0.75 -123.9547 150.7374)">
		<stop  offset="0" style="stop-color:#97AA93"/>
		<stop  offset="0.15" style="stop-color:#D0E8CB"/>
		<stop  offset="0.25" style="stop-color:#E5F2E2"/>
		<stop  offset="0.52" style="stop-color:#B3C9AE"/>
		<stop  offset="0.69" style="stop-color:#9FB39B"/>
		<stop  offset="0.8" style="stop-color:#96A992"/>
		<stop  offset="0.92" style="stop-color:#8E9F89"/>
		<stop  offset="1" style="stop-color:#A3B79E"/>
	</linearGradient>
	<path fill="url(#SVGID_28_)" d="M27.715,23.758c0,0-0.445-24,115.477-24c115.523,0,117.117,24.375,117.117,24.375l-0.094,427.125
		h-232.5V23.758z"/>
	
		<linearGradient id="SVGID_29_" gradientUnits="userSpaceOnUse" x1="357.2261" y1="201.3057" x2="357.2261" y2="190.3057" gradientTransform="matrix(0.75 0 0 -0.75 -123.9547 206.3536)">
		<stop  offset="0" style="stop-color:#97AA93"/>
		<stop  offset="0.15" style="stop-color:#D0E8CB"/>
		<stop  offset="0.25" style="stop-color:#E5F2E2"/>
		<stop  offset="0.52" style="stop-color:#B3C9AE"/>
		<stop  offset="0.69" style="stop-color:#9FB39B"/>
		<stop  offset="0.8" style="stop-color:#96A992"/>
		<stop  offset="0.92" style="stop-color:#8E9F89"/>
		<stop  offset="1" style="stop-color:#A3B79E"/>
	</linearGradient>
	<path fill="url(#SVGID_29_)" d="M27.715,55.375h232.5v8.25h-232.5V55.375z"/>
	
		<linearGradient id="SVGID_30_" gradientUnits="userSpaceOnUse" x1="357.2261" y1="201.3057" x2="357.2261" y2="190.3057" gradientTransform="matrix(0.75 0 0 -0.75 -123.9547 237.9825)">
		<stop  offset="0" style="stop-color:#97AA93"/>
		<stop  offset="0.15" style="stop-color:#D0E8CB"/>
		<stop  offset="0.25" style="stop-color:#E5F2E2"/>
		<stop  offset="0.52" style="stop-color:#B3C9AE"/>
		<stop  offset="0.69" style="stop-color:#9FB39B"/>
		<stop  offset="0.8" style="stop-color:#96A992"/>
		<stop  offset="0.92" style="stop-color:#8E9F89"/>
		<stop  offset="1" style="stop-color:#A3B79E"/>
	</linearGradient>
	<path fill="url(#SVGID_30_)" d="M27.715,87.004h232.5v8.25h-232.5V87.004z"/>
	
		<linearGradient id="SVGID_31_" gradientUnits="userSpaceOnUse" x1="357.2261" y1="201.3047" x2="357.2261" y2="190.3047" gradientTransform="matrix(0.75 0 0 -0.75 -123.9547 575.9659)">
		<stop  offset="0" style="stop-color:#97AA93"/>
		<stop  offset="0.15" style="stop-color:#D0E8CB"/>
		<stop  offset="0.25" style="stop-color:#E5F2E2"/>
		<stop  offset="0.52" style="stop-color:#B3C9AE"/>
		<stop  offset="0.69" style="stop-color:#9FB39B"/>
		<stop  offset="0.8" style="stop-color:#96A992"/>
		<stop  offset="0.92" style="stop-color:#8E9F89"/>
		<stop  offset="1" style="stop-color:#A3B79E"/>
	</linearGradient>
	<path fill="url(#SVGID_31_)" d="M27.715,424.988h232.5v8.25h-232.5V424.988z"/>
	
		<linearGradient id="SVGID_32_" gradientUnits="userSpaceOnUse" x1="512.3501" y1="185.0571" x2="202.2251" y2="185.0571" gradientTransform="matrix(0.75 0 0 -0.75 -123.9547 150.7365)">
		<stop  offset="0" style="stop-color:#8AA485"/>
		<stop  offset="0.15" style="stop-color:#C0E0BA"/>
		<stop  offset="0.25" style="stop-color:#DDEEDA"/>
		<stop  offset="0.52" style="stop-color:#A3C29D"/>
		<stop  offset="0.69" style="stop-color:#91AD8B"/>
		<stop  offset="0.8" style="stop-color:#89A383"/>
		<stop  offset="0.92" style="stop-color:#819A7C"/>
		<stop  offset="1" style="stop-color:#94B18F"/>
	</linearGradient>
	<path fill="url(#SVGID_32_)" d="M27.715,23.758c0,0-0.445-24,115.477-24c115.523,0,117.117,24.375,117.117,24.375L27.715,23.758z"
		/>
	
		<linearGradient id="SVGID_33_" gradientUnits="userSpaceOnUse" x1="384.2271" y1="166.8594" x2="202.2271" y2="166.8594" gradientTransform="matrix(0.75 0 0 -0.75 -74.839 282.5294)">
		<stop  offset="0" style="stop-color:#90A38C"/>
		<stop  offset="0.01" style="stop-color:#D8EBD4"/>
		<stop  offset="0.03" style="stop-color:#BDD4B7"/>
		<stop  offset="0.64" style="stop-color:#BAD0B4"/>
		<stop  offset="0.99" style="stop-color:#B5CCB0"/>
		<stop  offset="1" style="stop-color:#869782"/>
	</linearGradient>
	<path fill="url(#SVGID_33_)" d="M78.332,131.551h133.5c0.75,0,1.301,0.512,1.301,1.246l0.199,49.004c0,0.75-0.859,1.41-1.598,1.41
		l-133.402,0.09c-0.75,0-1.5-0.684-1.5-1.418v-48.832c0-0.75,0.574-1.582,1.313-1.582L78.332,131.551z"/>
	<path d="M94.504,157.781c0-11.25,8.949-20.25,20-20.25c10.75,0,19.996,8.898,19.996,19.883
		c-0.246,10.867-8.953,19.879-19.996,19.879c-11-0.012-20-8.906-20-19.879V157.781z"/>
	<path fill="#9E9F9F" d="M96.203,157.215c0-9.75,8.188-18,18.301-18c10.199,0,18.297,8.145,18.297,18.199
		c0.152,10.301-8.191,18.195-18.297,18.195c-10.051,0.355-18.301-8.152-18.301-18.195V157.215z"/>
	<path fill="#EBEAE9" d="M96.789,157.047c0-9,7.926-17.25,17.715-17.25c10.035,0,17.715,7.883,17.715,17.617
		c-0.18,9.383-7.934,17.613-17.715,17.613c-9.465,0.02-17.715-7.891-17.715-17.613V157.047z"/>
	<path d="M102.852,167.777l10.5-9.75c0,0,3.742-2.895,4.539-5.625c-0.039,0.375,0.477-0.867,1.359,0l1.602,1.875
		c0,0,0.66,1.25-0.652,1.25c-0.098,0.25-2.984,0.754-6.09,3.445L102.852,167.777z"/>
	<path stroke="#000000" stroke-linejoin="bevel" stroke-miterlimit="10" d="M113.555,157.703c0-0.75,0.648-1.5,1.453-1.5
		c0.797,0,1.449,0.645,1.449,1.445c0.098,0.805-0.648,1.441-1.449,1.441c-0.703,0.113-1.453-0.648-1.453-1.441V157.703z"/>
	
		<linearGradient id="SVGID_34_" gradientUnits="userSpaceOnUse" x1="204.5557" y1="200.1519" x2="202.2227" y2="200.1519" gradientTransform="matrix(0.75 0 0 -0.75 -37.5382 307.7579)">
		<stop  offset="0" style="stop-color:#C4AA84"/>
		<stop  offset="0.15" style="stop-color:#FFE0B3"/>
		<stop  offset="0.25" style="stop-color:#FFEED7"/>
		<stop  offset="0.44" style="stop-color:#DFC297"/>
		<stop  offset="0.6" style="stop-color:#C7AD86"/>
		<stop  offset="0.8" style="stop-color:#A89170"/>
		<stop  offset="0.97" style="stop-color:#998566"/>
		<stop  offset="1" style="stop-color:#CBB189"/>
	</linearGradient>
	<path fill="url(#SVGID_34_)" d="M114.129,157.531c0,0,0.391-0.758,0.875-0.758c0.625,0.008,0.875,0.391,0.875,0.871
		c-0.25,0.637-0.391,0.871-0.875,0.871c-0.125-0.234-0.875-0.391-0.875-0.871V157.531z"/>
	<path fill="none" stroke="#000000" stroke-linejoin="bevel" stroke-miterlimit="10" d="M122.574,143.066l-1.5,2.25"/>
	<path fill="none" stroke="#000000" stroke-linejoin="bevel" stroke-miterlimit="10" d="M107.148,143.066l1.5,2.25"/>
	<path fill="none" stroke="#000000" stroke-linejoin="bevel" stroke-miterlimit="10" d="M128.516,155.844l2.25-0.75"/>
	<path fill="none" stroke="#000000" stroke-linejoin="bevel" stroke-miterlimit="10" d="M124.457,167.594l1.5,1.5"/>
	<path fill="none" stroke="#000000" stroke-linejoin="bevel" stroke-miterlimit="10" d="M104.543,166.527l-2.25,1.5"/>
	<path fill="none" stroke="#000000" stroke-linejoin="bevel" stroke-miterlimit="10" d="M101.195,155.961l-3-0.75"/>
	<path d="M110.777,169.297h7.5v3.75h-7.5V169.297z"/>
	<path fill="none" stroke="#FFFFFF" stroke-width="0.75" stroke-linejoin="bevel" stroke-miterlimit="10" d="M111.398,169.82h6v2.25
		h-6V169.82z"/>
	<path d="M156.848,157.781c0-11.25,8.949-20.25,20-20.25c10.75,0,19.996,8.898,19.996,19.883
		c-0.246,10.867-8.953,19.879-19.996,19.879c-11-0.012-20-8.906-20-19.879V157.781z"/>
	<path fill="#9E9F9F" d="M158.547,157.215c0-9.75,8.191-18,18.301-18c10.199,0,18.297,8.145,18.297,18.199
		c0.152,10.301-8.191,18.195-18.297,18.195c-10.051,0.355-18.301-8.152-18.301-18.195V157.215z"/>
	<path fill="#EBEAE9" d="M159.133,157.047c0-9,7.926-17.25,17.715-17.25c10.035,0,17.715,7.883,17.715,17.617
		c-0.18,9.383-7.934,17.613-17.715,17.613c-9.465,0.02-17.715-7.891-17.715-17.613V157.047z"/>
	<path d="M165.195,167.777l10.5-9.75c0,0,3.742-2.895,4.539-5.625c-0.039,0.375,0.477-0.867,1.359,0l1.602,1.875
		c0,0,0.66,1.25-0.652,1.25c-0.098,0.25-2.984,0.754-6.09,3.445L165.195,167.777z"/>
	<path stroke="#000000" stroke-linejoin="bevel" stroke-miterlimit="10" d="M175.898,157.703c0-0.75,0.648-1.5,1.453-1.5
		c0.797,0,1.449,0.645,1.449,1.445c0.098,0.805-0.648,1.441-1.449,1.441c-0.703,0.113-1.453-0.648-1.453-1.441V157.703z"/>
	
		<linearGradient id="SVGID_35_" gradientUnits="userSpaceOnUse" x1="204.5557" y1="200.1519" x2="202.2227" y2="200.1519" gradientTransform="matrix(0.75 0 0 -0.75 24.8055 307.7579)">
		<stop  offset="0" style="stop-color:#C4AA84"/>
		<stop  offset="0.15" style="stop-color:#FFE0B3"/>
		<stop  offset="0.25" style="stop-color:#FFEED7"/>
		<stop  offset="0.44" style="stop-color:#DFC297"/>
		<stop  offset="0.6" style="stop-color:#C7AD86"/>
		<stop  offset="0.8" style="stop-color:#A89170"/>
		<stop  offset="0.97" style="stop-color:#998566"/>
		<stop  offset="1" style="stop-color:#CBB189"/>
	</linearGradient>
	<path fill="url(#SVGID_35_)" d="M176.473,157.531c0,0,0.391-0.758,0.875-0.758c0.625,0.008,0.875,0.391,0.875,0.871
		c-0.25,0.637-0.391,0.871-0.875,0.871c-0.125-0.234-0.875-0.391-0.875-0.871V157.531z"/>
	<path fill="none" stroke="#000000" stroke-linejoin="bevel" stroke-miterlimit="10" d="M184.918,143.066l-1.5,2.25"/>
	<path fill="none" stroke="#000000" stroke-linejoin="bevel" stroke-miterlimit="10" d="M169.492,143.066l1.5,2.25"/>
	<path fill="none" stroke="#000000" stroke-linejoin="bevel" stroke-miterlimit="10" d="M190.859,155.844l2.25-0.75"/>
	<path fill="none" stroke="#000000" stroke-linejoin="bevel" stroke-miterlimit="10" d="M186.801,167.594l1.5,1.5"/>
	<path fill="none" stroke="#000000" stroke-linejoin="bevel" stroke-miterlimit="10" d="M166.887,166.527l-2.25,1.5"/>
	<path fill="none" stroke="#000000" stroke-linejoin="bevel" stroke-miterlimit="10" d="M163.539,155.961l-3-0.75"/>
	<path d="M173.121,169.297h7.5v3.75h-7.5V169.297z"/>
	<path fill="none" stroke="#FFFFFF" stroke-width="0.75" stroke-linejoin="bevel" stroke-miterlimit="10" d="M173.742,169.82h6v2.25
		h-6V169.82z"/>
</g>
</svg>
