<?xml version="1.0" encoding="utf-8"?>
<!-- Generator: Adobe Illustrator 16.0.0, SVG Export Plug-In . SVG Version: 6.00 Build 0)  -->
<!DOCTYPE svg PUBLIC "-//W3C//DTD SVG 1.1//EN" "http://www.w3.org/Graphics/SVG/1.1/DTD/svg11.dtd">
<svg preserveAspectRatio="none" version="1.1" id="图层_1" xmlns="http://www.w3.org/2000/svg" xmlns:xlink="http://www.w3.org/1999/xlink" x="0px" y="0px"
	 width="564.035px" height="298.718px" viewBox="1.441 268.395 564.035 298.718"
	 enable-background="new 1.441 268.395 564.035 298.718" xml:space="preserve">
<g id="surface701">
	
		<linearGradient id="SVGID_1_" gradientUnits="userSpaceOnUse" x1="921.2212" y1="105.2539" x2="202.2222" y2="105.2538" gradientTransform="matrix(0.75 0 0 -0.75 -149.9562 491.4103)">
		<stop  offset="0" style="stop-color:#7E8C9B"/>
		<stop  offset="0.01" style="stop-color:#C5D4E3"/>
		<stop  offset="0.02" style="stop-color:#A5B7CA"/>
		<stop  offset="0.64" style="stop-color:#A2B4C6"/>
		<stop  offset="0.99" style="stop-color:#9EB0C2"/>
		<stop  offset="1" style="stop-color:#74828F"/>
	</linearGradient>
	<path fill="url(#SVGID_1_)" d="M1.711,340.433l202.5,1.5l-0.75,82.5h336c0.75,0,1.23,0.137,1.23,0.758l0.27,58.492
		c0,0-0.938,0.824-1.723,0.824L3.211,484.433c-0.75,0-1.5-0.43-1.5-1.051V340.433z"/>
	
		<linearGradient id="SVGID_2_" gradientUnits="userSpaceOnUse" x1="274.2261" y1="171.3066" x2="202.2261" y2="171.3066" gradientTransform="matrix(0.75 0 0 -0.75 280.5917 598.9396)">
		<stop  offset="0" style="stop-color:#607286"/>
		<stop  offset="0.01" style="stop-color:#AABACE"/>
		<stop  offset="0.02" style="stop-color:#7F96B0"/>
		<stop  offset="0.64" style="stop-color:#7D93AD"/>
		<stop  offset="0.99" style="stop-color:#7A90A9"/>
		<stop  offset="1" style="stop-color:#596A7C"/>
	</linearGradient>
	<path fill="url(#SVGID_2_)" d="M432.261,447.96h53.25c0,0,0.48,0.16,0.48,0.352l0.27,44.648c0,0-0.43-0.02-0.625-0.02l-53.375,0.02
		c0,0,0-0.176,0-0.371V447.96c0,0,0.156,0,0.352,0H432.261z"/>
	<path fill="#E4E4E4" d="M438.8,447.96h40.5v30.75h-40.5V447.96z"/>
	
		<linearGradient id="SVGID_3_" gradientUnits="userSpaceOnUse" x1="243.2231" y1="194.2769" x2="202.2231" y2="194.2769" gradientTransform="matrix(0.75 0 0 -0.75 292.6093 503.3575)">
		<stop  offset="0" style="stop-color:#7E8C9B"/>
		<stop  offset="0.01" style="stop-color:#C5D4E3"/>
		<stop  offset="0.02" style="stop-color:#A5B7CA"/>
		<stop  offset="0.64" style="stop-color:#A2B4C6"/>
		<stop  offset="0.99" style="stop-color:#9EB0C2"/>
		<stop  offset="1" style="stop-color:#74828F"/>
	</linearGradient>
	<path fill="url(#SVGID_3_)" d="M445.777,352.378h27.75c0.75,0,1.152,0.629,1.152,1.406l0.348,7.594c0,0.75-0.855,1.543-1.48,1.543
		l-27.77-0.043c-0.75,0-1.5-0.586-1.5-1.363v-7.637c0-0.75,0.508-1.5,1.133-1.5H445.777z"/>
	
		<linearGradient id="SVGID_4_" gradientUnits="userSpaceOnUse" x1="923.2251" y1="115.8066" x2="202.2266" y2="115.8066" gradientTransform="matrix(0.75 0 0 -0.75 -150.2291 419.3732)">
		<stop  offset="0" style="stop-color:#7E8C9B"/>
		<stop  offset="0.01" style="stop-color:#C5D4E3"/>
		<stop  offset="0.02" style="stop-color:#A5B7CA"/>
		<stop  offset="0.64" style="stop-color:#A2B4C6"/>
		<stop  offset="0.99" style="stop-color:#9EB0C2"/>
		<stop  offset="1" style="stop-color:#74828F"/>
	</linearGradient>
	<path fill="url(#SVGID_4_)" d="M41.941,268.395h458.25c22.5,0,41.684,15.387,41.684,34.015l0.316,94.234h-55.5v-54H1.441v-40.5
		c0-18.75,18.195-33.75,40.645-33.75H41.941z"/>
	
		<linearGradient id="SVGID_5_" gradientUnits="userSpaceOnUse" x1="351.4468" y1="201.3037" x2="351.4468" y2="16.3037" gradientTransform="matrix(0.75 0 0 -0.75 -135.1085 474.1915)">
		<stop  offset="0" style="stop-color:#697D93"/>
		<stop  offset="0.01" style="stop-color:#B2C5DB"/>
		<stop  offset="0.02" style="stop-color:#8BA4C0"/>
		<stop  offset="0.64" style="stop-color:#88A1BD"/>
		<stop  offset="0.99" style="stop-color:#859DB9"/>
		<stop  offset="1" style="stop-color:#617489"/>
	</linearGradient>
	<path fill="url(#SVGID_5_)" d="M16.559,323.214h218.25c3,0,5.586,2.516,5.586,5.621l-37.086,60.379H63.059
		c140.25,0,0.191,0.145,0.191-0.215c-6.191,2.465-6.699,7.305-6.699,8.008l183.508-0.293v59.25c0,3-2.035,5.703-4.961,5.703
		l-218.539,0.297V323.214z"/>
	
		<linearGradient id="SVGID_6_" gradientUnits="userSpaceOnUse" x1="208.2261" y1="196.8047" x2="202.2261" y2="196.8047" gradientTransform="matrix(0.75 0 0 -0.75 -55.2208 706.4689)">
		<stop  offset="0" style="stop-color:#607286"/>
		<stop  offset="0.01" style="stop-color:#AABACE"/>
		<stop  offset="0.02" style="stop-color:#7F96B0"/>
		<stop  offset="0.64" style="stop-color:#7D93AD"/>
		<stop  offset="0.99" style="stop-color:#7A90A9"/>
		<stop  offset="1" style="stop-color:#596A7C"/>
	</linearGradient>
	<path fill="url(#SVGID_6_)" d="M96.449,555.492h4.5v6.75h-4.5V555.492z"/>
	
		<linearGradient id="SVGID_7_" gradientUnits="userSpaceOnUse" x1="216.3643" y1="197.3057" x2="202.2236" y2="197.3057" gradientTransform="matrix(0.75 0 0 -0.75 -58.402 712.0919)">
		<stop  offset="0" style="stop-color:#607286"/>
		<stop  offset="0.01" style="stop-color:#AABACE"/>
		<stop  offset="0.02" style="stop-color:#7F96B0"/>
		<stop  offset="0.64" style="stop-color:#7D93AD"/>
		<stop  offset="0.99" style="stop-color:#7A90A9"/>
		<stop  offset="1" style="stop-color:#596A7C"/>
	</linearGradient>
	<path fill="url(#SVGID_7_)" d="M94.766,561.113h8.25c0,0,0.855,0.281,0.855,0.625l-0.105,4.625c0,0-0.398,0.605-1.023,0.605
		l-7.977,0.145c-0.75,0-1.5-0.422-1.5-0.766v-4.484c0-0.75,0.508-0.75,1.133-0.75H94.766z"/>
	
		<linearGradient id="SVGID_8_" gradientUnits="userSpaceOnUse" x1="219.2256" y1="126.8027" x2="202.2256" y2="126.8027" gradientTransform="matrix(0.75 0 0 -0.75 -59.4625 594.7228)">
		<stop  offset="0" style="stop-color:#607286"/>
		<stop  offset="0.01" style="stop-color:#AABACE"/>
		<stop  offset="0.02" style="stop-color:#7F96B0"/>
		<stop  offset="0.64" style="stop-color:#7D93AD"/>
		<stop  offset="0.99" style="stop-color:#7A90A9"/>
		<stop  offset="1" style="stop-color:#596A7C"/>
	</linearGradient>
	<path fill="url(#SVGID_8_)" d="M92.207,443.746h12.75v111.75h-12.75V443.746z"/>
	
		<linearGradient id="SVGID_9_" gradientUnits="userSpaceOnUse" x1="208.2227" y1="196.8047" x2="202.2227" y2="196.8047" gradientTransform="matrix(0.75 0 0 -0.75 372.9218 706.4689)">
		<stop  offset="0" style="stop-color:#607286"/>
		<stop  offset="0.01" style="stop-color:#AABACE"/>
		<stop  offset="0.02" style="stop-color:#7F96B0"/>
		<stop  offset="0.64" style="stop-color:#7D93AD"/>
		<stop  offset="0.99" style="stop-color:#7A90A9"/>
		<stop  offset="1" style="stop-color:#596A7C"/>
	</linearGradient>
	<path fill="url(#SVGID_9_)" d="M524.589,555.492h4.5v6.75h-4.5V555.492z"/>
	
		<linearGradient id="SVGID_10_" gradientUnits="userSpaceOnUse" x1="216.3662" y1="197.3057" x2="202.2256" y2="197.3057" gradientTransform="matrix(0.75 0 0 -0.75 369.7401 712.0919)">
		<stop  offset="0" style="stop-color:#607286"/>
		<stop  offset="0.01" style="stop-color:#AABACE"/>
		<stop  offset="0.02" style="stop-color:#7F96B0"/>
		<stop  offset="0.64" style="stop-color:#7D93AD"/>
		<stop  offset="0.99" style="stop-color:#7A90A9"/>
		<stop  offset="1" style="stop-color:#596A7C"/>
	</linearGradient>
	<path fill="url(#SVGID_10_)" d="M522.91,561.113h8.25c0,0,0.855,0.281,0.855,0.625l-0.105,4.625c0,0-0.402,0.605-1.027,0.605
		l-7.973,0.145c-0.75,0-1.5-0.422-1.5-0.766v-4.484c0-0.75,0.504-0.75,1.129-0.75H522.91z"/>
	
		<linearGradient id="SVGID_11_" gradientUnits="userSpaceOnUse" x1="219.2227" y1="126.8027" x2="202.2227" y2="126.8027" gradientTransform="matrix(0.75 0 0 -0.75 368.6796 594.7228)">
		<stop  offset="0" style="stop-color:#607286"/>
		<stop  offset="0.01" style="stop-color:#AABACE"/>
		<stop  offset="0.02" style="stop-color:#7F96B0"/>
		<stop  offset="0.64" style="stop-color:#7D93AD"/>
		<stop  offset="0.99" style="stop-color:#7A90A9"/>
		<stop  offset="1" style="stop-color:#596A7C"/>
	</linearGradient>
	<path fill="url(#SVGID_11_)" d="M520.347,443.746h12.75v111.75h-12.75V443.746z"/>
	
		<linearGradient id="SVGID_12_" gradientUnits="userSpaceOnUse" x1="809.2251" y1="185.3032" x2="202.2256" y2="185.3032" gradientTransform="matrix(0.75 0 0 -0.75 -65.8263 579.2609)">
		<stop  offset="0" style="stop-color:#607286"/>
		<stop  offset="0.01" style="stop-color:#AABACE"/>
		<stop  offset="0.02" style="stop-color:#7F96B0"/>
		<stop  offset="0.64" style="stop-color:#7D93AD"/>
		<stop  offset="0.99" style="stop-color:#7A90A9"/>
		<stop  offset="1" style="stop-color:#596A7C"/>
	</linearGradient>
	<path fill="url(#SVGID_12_)" d="M85.844,428.285h455.25v24H85.844V428.285z"/>
	
		<linearGradient id="SVGID_13_" gradientUnits="userSpaceOnUse" x1="235.2227" y1="174.3047" x2="202.2227" y2="174.3047" gradientTransform="matrix(0.75 0 0 -0.75 389.0585 547.5909)">
		<stop  offset="0" style="stop-color:#B5B5B5"/>
		<stop  offset="0.01" style="stop-color:#FFFFFF"/>
		<stop  offset="0.02" style="stop-color:#EBEBEB"/>
		<stop  offset="0.64" style="stop-color:#E7E7E7"/>
		<stop  offset="0.99" style="stop-color:#E2E2E2"/>
		<stop  offset="1" style="stop-color:#A8A8A8"/>
	</linearGradient>
	<path fill="url(#SVGID_13_)" d="M540.726,396.613h23.25c0.75,0,1.496,0.613,1.496,1.398l0.004,9.852l-24.75,29.25V396.613z"/>
	
		<linearGradient id="SVGID_14_" gradientUnits="userSpaceOnUse" x1="208.2246" y1="196.8047" x2="202.2246" y2="196.8047" gradientTransform="matrix(0.75 0 0 -0.75 158.8505 706.4689)">
		<stop  offset="0" style="stop-color:#607286"/>
		<stop  offset="0.01" style="stop-color:#AABACE"/>
		<stop  offset="0.02" style="stop-color:#7F96B0"/>
		<stop  offset="0.64" style="stop-color:#7D93AD"/>
		<stop  offset="0.99" style="stop-color:#7A90A9"/>
		<stop  offset="1" style="stop-color:#596A7C"/>
	</linearGradient>
	<path fill="url(#SVGID_14_)" d="M310.519,555.492h4.5v6.75h-4.5V555.492z"/>
	
		<linearGradient id="SVGID_15_" gradientUnits="userSpaceOnUse" x1="216.3623" y1="197.3057" x2="202.2275" y2="197.3057" gradientTransform="matrix(0.75 0 0 -0.75 155.6688 712.0919)">
		<stop  offset="0" style="stop-color:#607286"/>
		<stop  offset="0.01" style="stop-color:#AABACE"/>
		<stop  offset="0.02" style="stop-color:#7F96B0"/>
		<stop  offset="0.64" style="stop-color:#7D93AD"/>
		<stop  offset="0.99" style="stop-color:#7A90A9"/>
		<stop  offset="1" style="stop-color:#596A7C"/>
	</linearGradient>
	<path fill="url(#SVGID_15_)" d="M308.839,561.113h8.25c0,0,0.852,0.281,0.852,0.625l-0.102,4.625c0,0-0.402,0.605-1.027,0.605
		l-7.973,0.145c-0.75,0-1.5-0.422-1.5-0.766v-4.484c0-0.75,0.504-0.75,1.129-0.75H308.839z"/>
	
		<linearGradient id="SVGID_16_" gradientUnits="userSpaceOnUse" x1="219.2246" y1="126.8027" x2="202.2246" y2="126.8027" gradientTransform="matrix(0.75 0 0 -0.75 154.6083 594.7228)">
		<stop  offset="0" style="stop-color:#607286"/>
		<stop  offset="0.01" style="stop-color:#AABACE"/>
		<stop  offset="0.02" style="stop-color:#7F96B0"/>
		<stop  offset="0.64" style="stop-color:#7D93AD"/>
		<stop  offset="0.99" style="stop-color:#7A90A9"/>
		<stop  offset="1" style="stop-color:#596A7C"/>
	</linearGradient>
	<path fill="url(#SVGID_16_)" d="M306.277,443.746h12.75v111.75h-12.75V443.746z"/>
	
		<linearGradient id="SVGID_17_" gradientUnits="userSpaceOnUse" x1="264.439" y1="177.3066" x2="202.2261" y2="177.3066" gradientTransform="matrix(0.75 0 0 -0.75 276.3495 511.7911)">
		<stop  offset="0" style="stop-color:#B5B5B5"/>
		<stop  offset="0.01" style="stop-color:#FFFFFF"/>
		<stop  offset="0.02" style="stop-color:#EBEBEB"/>
		<stop  offset="0.64" style="stop-color:#E7E7E7"/>
		<stop  offset="0.99" style="stop-color:#E2E2E2"/>
		<stop  offset="1" style="stop-color:#A8A8A8"/>
	</linearGradient>
	<path fill="url(#SVGID_17_)" d="M429.519,360.812h44.25c0.75,0,0.91,0.504,0.91,1.125l-0.16,33.375c0,0.75-0.348,1.344-0.973,1.344
		l-44.027,0.156c-0.75,0-1.5-0.66-1.5-1.281v-33.969c0,0,0.504-0.75,1.129-0.75H429.519z"/>
	
		<linearGradient id="SVGID_18_" gradientUnits="userSpaceOnUse" x1="249.6841" y1="180.7686" x2="202.2261" y2="180.7686" gradientTransform="matrix(0.75 0 0 -0.75 281.8807 515.0714)">
		<stop  offset="0" style="stop-color:#7E8C9B"/>
		<stop  offset="0.01" style="stop-color:#C5D4E3"/>
		<stop  offset="0.02" style="stop-color:#A5B7CA"/>
		<stop  offset="0.64" style="stop-color:#A2B4C6"/>
		<stop  offset="0.99" style="stop-color:#9EB0C2"/>
		<stop  offset="1" style="stop-color:#74828F"/>
	</linearGradient>
	<path fill="url(#SVGID_18_)" d="M434.3,364.093h33.75c0.75,0,1.094,0.551,1.094,1.23l-0.344,28.02c0,0.75-0.137,1.555-0.73,1.555
		l-33.77-0.055c0,0-0.75-0.496-0.75-1.176v-28.074c0-0.75,0.48-1.5,1.074-1.5H434.3z"/>
	<path fill="#FFFFFF" fill-opacity="0.4157" d="M39.164,295.453h462.75l-12,13.5H27.164L39.164,295.453z"/>
	
		<linearGradient id="SVGID_19_" gradientUnits="userSpaceOnUse" x1="820.5874" y1="174.2568" x2="202.2241" y2="174.2568" gradientTransform="matrix(0.75 0 0 -0.75 -74.7155 547.5724)">
		<stop  offset="0" style="stop-color:#B5B5B5"/>
		<stop  offset="0.01" style="stop-color:#FFFFFF"/>
		<stop  offset="0.02" style="stop-color:#EBEBEB"/>
		<stop  offset="0.64" style="stop-color:#E7E7E7"/>
		<stop  offset="0.99" style="stop-color:#E2E2E2"/>
		<stop  offset="1" style="stop-color:#A8A8A8"/>
	</linearGradient>
	<path fill="url(#SVGID_19_)" d="M77.703,396.593h462c0.75,0,1.023,0.648,1.023,1.445l-0.273,37.555c0,0.75-0.23,1.574-0.855,1.574
		l-461.894-0.074c0,0-0.75-0.492-0.75-1.289v-37.711c0-0.75,0.488-1.418,1.113-1.418L77.703,396.593z"/>
	<path fill="#3E3938" stroke="#3E3938" stroke-linejoin="bevel" stroke-miterlimit="10" d="M203.199,389.628h225.75
		c0.75,0,0.484,0.156,0.484,0.352l0.266,6.398c0,0-0.266,0.277-0.621,0.277l-225.878-0.277c0,0,0,0.121,0-0.074V389.628
		c0,0,0,0,0.355,0H203.199z"/>
	
		<linearGradient id="SVGID_20_" gradientUnits="userSpaceOnUse" x1="820.5874" y1="197.3062" x2="202.2241" y2="197.3061" gradientTransform="matrix(0.75 0 0 -0.75 -74.7155 547.5724)">
		<stop  offset="0" style="stop-color:#607286"/>
		<stop  offset="0.01" style="stop-color:#AABACE"/>
		<stop  offset="0.02" style="stop-color:#7F96B0"/>
		<stop  offset="0.64" style="stop-color:#7D93AD"/>
		<stop  offset="0.99" style="stop-color:#7A90A9"/>
		<stop  offset="1" style="stop-color:#596A7C"/>
	</linearGradient>
	<path fill="url(#SVGID_20_)" d="M77.703,396.593h462c0.75,0,1.023,0.09,1.023,0.199l-0.273,5.051c0,0-0.23,0.375-0.855,0.375
		l-461.894,0.375c0,0-0.75-0.453-0.75-0.566v-5.434c0,0,0.488,0.012,1.113,0.012L77.703,396.593z"/>
	
		<linearGradient id="SVGID_21_" gradientUnits="userSpaceOnUse" x1="235.3003" y1="197.3047" x2="202.2271" y2="197.3047" gradientTransform="matrix(0.75 0 0 -0.75 388.993 547.5909)">
		<stop  offset="0" style="stop-color:#607286"/>
		<stop  offset="0.01" style="stop-color:#AABACE"/>
		<stop  offset="0.02" style="stop-color:#7F96B0"/>
		<stop  offset="0.64" style="stop-color:#7D93AD"/>
		<stop  offset="0.99" style="stop-color:#7A90A9"/>
		<stop  offset="1" style="stop-color:#596A7C"/>
	</linearGradient>
	<path fill="url(#SVGID_21_)" d="M540.664,396.613h24.75c0,0,0.055,0.09,0.055,0.199l-0.055,5.051c0,0,0.031,0.371-0.004,0.371
		l-24.746,0.379c0,0,0-0.457,0-0.566V396.613c0,0,0.023,0.012,0.059,0.012L540.664,396.613z"/>
	
		<linearGradient id="SVGID_22_" gradientUnits="userSpaceOnUse" x1="296.2261" y1="147.3057" x2="202.2261" y2="147.3056" gradientTransform="matrix(0.75 0 0 -0.75 -143.5924 635.4855)">
		<stop  offset="0" style="stop-color:#697D93"/>
		<stop  offset="0.01" style="stop-color:#B2C5DB"/>
		<stop  offset="0.02" style="stop-color:#8BA4C0"/>
		<stop  offset="0.64" style="stop-color:#88A1BD"/>
		<stop  offset="0.99" style="stop-color:#859DB9"/>
		<stop  offset="1" style="stop-color:#617489"/>
	</linearGradient>
	<path fill="url(#SVGID_22_)" d="M8.078,484.507h70.5v81h-70.5V484.507z"/>
</g>
</svg>
