<?xml version="1.0" encoding="utf-8"?>
<!-- Generator: Adobe Illustrator 16.0.0, SVG Export Plug-In . SVG Version: 6.00 Build 0)  -->
<!DOCTYPE svg PUBLIC "-//W3C//DTD SVG 1.1//EN" "http://www.w3.org/Graphics/SVG/1.1/DTD/svg11.dtd">
<svg preserveAspectRatio="none" version="1.1" id="图层_1" xmlns="http://www.w3.org/2000/svg" xmlns:xlink="http://www.w3.org/1999/xlink" x="0px" y="0px"
	 width="325.023px" height="565.664px" viewBox="131.691 1.156 325.023 565.664"
	 enable-background="new 131.691 1.156 325.023 565.664" xml:space="preserve">
<g id="surface961">
	
		<linearGradient id="SVGID_1_" gradientUnits="userSpaceOnUse" x1="215.2246" y1="187.3066" x2="202.2246" y2="187.3066" gradientTransform="matrix(0.75 0 0 -0.75 135.5497 328.2286)">
		<stop  offset="0" style="stop-color:#BDBDBD"/>
		<stop  offset="0.15" style="stop-color:#FFFFFF"/>
		<stop  offset="0.25" style="stop-color:#FFFFFF"/>
		<stop  offset="0.52" style="stop-color:#DFDFDF"/>
		<stop  offset="0.69" style="stop-color:#C7C7C7"/>
		<stop  offset="0.8" style="stop-color:#BCBCBC"/>
		<stop  offset="0.92" style="stop-color:#B1B1B1"/>
		<stop  offset="1" style="stop-color:#CBCBCB"/>
	</linearGradient>
	<path fill="url(#SVGID_1_)" d="M287.218,177.25h9.75v21h-9.75V177.25z"/>
	
		<linearGradient id="SVGID_2_" gradientUnits="userSpaceOnUse" x1="343.356" y1="216.9082" x2="291.106" y2="216.9082" gradientTransform="matrix(0.6495 0.375 0.375 -0.6495 131.3615 416.2947)">
		<stop  offset="0" style="stop-color:#7E8C9B"/>
		<stop  offset="0.01" style="stop-color:#C5D4E3"/>
		<stop  offset="0.02" style="stop-color:#A5B7CA"/>
		<stop  offset="0.64" style="stop-color:#A2B4C6"/>
		<stop  offset="0.99" style="stop-color:#9EB0C2"/>
		<stop  offset="1" style="stop-color:#74828F"/>
	</linearGradient>
	<path fill="url(#SVGID_2_)" d="M408.531,372.882l33.777,19.5c0,0,0.086,0.227-0.008,0.383l-13.117,22.352
		c0,0-0.191,0.406-0.352,0.316l-33.801-19.168c0,0,0.227-0.391,0.32-0.551L408.531,372.882c0,0,0.129,0.078,0.289,0.168
		L408.531,372.882z"/>
	
		<linearGradient id="SVGID_3_" gradientUnits="userSpaceOnUse" x1="243.2256" y1="160.8047" x2="202.2256" y2="160.8047" gradientTransform="matrix(0.75 0 0 -0.75 221.7323 321.5529)">
		<stop  offset="0" style="stop-color:#A64B4E"/>
		<stop  offset="0.01" style="stop-color:#EF9A9C"/>
		<stop  offset="0.02" style="stop-color:#D86468"/>
		<stop  offset="0.64" style="stop-color:#D56266"/>
		<stop  offset="0.99" style="stop-color:#D06063"/>
		<stop  offset="1" style="stop-color:#9A4548"/>
	</linearGradient>
	<path fill="url(#SVGID_3_)" d="M373.402,170.574h30.75v60.75h-30.75V170.574z"/>
	
		<linearGradient id="SVGID_4_" gradientUnits="userSpaceOnUse" x1="208.2256" y1="142.3071" x2="202.2256" y2="142.3071" gradientTransform="matrix(0.75 0 0 -0.75 235.0682 383.3116)">
		<stop  offset="0" style="stop-color:#7E8C9B"/>
		<stop  offset="0.01" style="stop-color:#C5D4E3"/>
		<stop  offset="0.02" style="stop-color:#A5B7CA"/>
		<stop  offset="0.64" style="stop-color:#A2B4C6"/>
		<stop  offset="0.99" style="stop-color:#9EB0C2"/>
		<stop  offset="1" style="stop-color:#74828F"/>
	</linearGradient>
	<path fill="url(#SVGID_4_)" d="M386.738,232.332h4.5v88.5h-4.5V232.332z"/>
	
		<linearGradient id="SVGID_5_" gradientUnits="userSpaceOnUse" x1="243.2256" y1="196.8027" x2="202.2256" y2="196.8027" gradientTransform="matrix(0.75 0 0 -0.75 221.7323 394.1603)">
		<stop  offset="0" style="stop-color:#A64B4E"/>
		<stop  offset="0.01" style="stop-color:#EF9A9C"/>
		<stop  offset="0.02" style="stop-color:#D86468"/>
		<stop  offset="0.64" style="stop-color:#D56266"/>
		<stop  offset="0.99" style="stop-color:#D06063"/>
		<stop  offset="1" style="stop-color:#9A4548"/>
	</linearGradient>
	<path fill="url(#SVGID_5_)" d="M373.402,243.184h30.75v6.75h-30.75V243.184z"/>
	
		<linearGradient id="SVGID_6_" gradientUnits="userSpaceOnUse" x1="243.2256" y1="193.8027" x2="202.2256" y2="193.8027" gradientTransform="matrix(0.75 0 0 -0.75 221.7323 382.8947)">
		<stop  offset="0" style="stop-color:#B5B5B5"/>
		<stop  offset="0.01" style="stop-color:#FFFFFF"/>
		<stop  offset="0.02" style="stop-color:#EBEBEB"/>
		<stop  offset="0.64" style="stop-color:#E7E7E7"/>
		<stop  offset="0.99" style="stop-color:#E2E2E2"/>
		<stop  offset="1" style="stop-color:#A8A8A8"/>
	</linearGradient>
	<path fill="url(#SVGID_6_)" d="M373.402,231.918h30.75v11.25h-30.75V231.918z"/>
	
		<linearGradient id="SVGID_7_" gradientUnits="userSpaceOnUse" x1="459.2231" y1="76.3027" x2="202.2241" y2="76.3027" gradientTransform="matrix(0.75 0 0 -0.75 62.0463 152.1329)">
		<stop  offset="0" style="stop-color:#394756"/>
		<stop  offset="0.01" style="stop-color:#8E97A2"/>
		<stop  offset="0.02" style="stop-color:#4D5E72"/>
		<stop  offset="0.64" style="stop-color:#4B5D70"/>
		<stop  offset="0.99" style="stop-color:#495A6D"/>
		<stop  offset="1" style="stop-color:#34414F"/>
	</linearGradient>
	<path fill="url(#SVGID_7_)" d="M213.715,1.156h192.75v170.25l-192.75,17.25V1.156z"/>
	
		<linearGradient id="SVGID_8_" gradientUnits="userSpaceOnUse" x1="220.2256" y1="87.8027" x2="202.2256" y2="87.8027" gradientTransform="matrix(0.75 0 0 -0.75 252.9042 152.1329)">
		<stop  offset="0" style="stop-color:#7E8C9B"/>
		<stop  offset="0.01" style="stop-color:#C5D4E3"/>
		<stop  offset="0.02" style="stop-color:#A5B7CA"/>
		<stop  offset="0.64" style="stop-color:#A2B4C6"/>
		<stop  offset="0.99" style="stop-color:#9EB0C2"/>
		<stop  offset="1" style="stop-color:#74828F"/>
	</linearGradient>
	<path fill="url(#SVGID_8_)" d="M404.574,1.156h13.5v170.25h-13.5V1.156z"/>
	
		<linearGradient id="SVGID_9_" gradientUnits="userSpaceOnUse" x1="294.2271" y1="-159.6968" x2="202.2271" y2="-159.6968" gradientTransform="matrix(0.75 0 0 -0.75 -6.6432 152.1329)">
		<stop  offset="0" style="stop-color:#7E8C9B"/>
		<stop  offset="0.01" style="stop-color:#C5D4E3"/>
		<stop  offset="0.02" style="stop-color:#A5B7CA"/>
		<stop  offset="0.64" style="stop-color:#A2B4C6"/>
		<stop  offset="0.99" style="stop-color:#9EB0C2"/>
		<stop  offset="1" style="stop-color:#74828F"/>
	</linearGradient>
	<path fill="url(#SVGID_9_)" d="M214.027,1.156h-22.5l-46.5,146.25v395.25h69V1.156z"/>
	
		<linearGradient id="SVGID_10_" gradientUnits="userSpaceOnUse" x1="465.2231" y1="64.3027" x2="202.2246" y2="64.3027" gradientTransform="matrix(0.75 0 0 -0.75 62.0458 488.4679)">
		<stop  offset="0" style="stop-color:#394756"/>
		<stop  offset="0.01" style="stop-color:#8E97A2"/>
		<stop  offset="0.02" style="stop-color:#4D5E72"/>
		<stop  offset="0.64" style="stop-color:#4B5D70"/>
		<stop  offset="0.99" style="stop-color:#495A6D"/>
		<stop  offset="1" style="stop-color:#34414F"/>
	</linearGradient>
	<path fill="url(#SVGID_10_)" d="M213.715,542.992h197.25v-205.5h-197.25V542.992z"/>
	
		<linearGradient id="SVGID_11_" gradientUnits="userSpaceOnUse" x1="608.2251" y1="185.3062" x2="202.2261" y2="185.3061" gradientTransform="matrix(0.75 0 0 -0.75 -19.9786 693.7755)">
		<stop  offset="0" style="stop-color:#7E8C9B"/>
		<stop  offset="0.01" style="stop-color:#C5D4E3"/>
		<stop  offset="0.02" style="stop-color:#A5B7CA"/>
		<stop  offset="0.64" style="stop-color:#A2B4C6"/>
		<stop  offset="0.99" style="stop-color:#9EB0C2"/>
		<stop  offset="1" style="stop-color:#74828F"/>
	</linearGradient>
	<path fill="url(#SVGID_11_)" d="M131.691,542.796h304.5v24h-304.5V542.796z"/>
	
		<linearGradient id="SVGID_12_" gradientUnits="userSpaceOnUse" x1="526.2231" y1="184.8042" x2="202.2246" y2="184.8042" gradientTransform="matrix(0.75 0 0 -0.75 62.0458 470.9415)">
		<stop  offset="0" style="stop-color:#7E8C9B"/>
		<stop  offset="0.01" style="stop-color:#C5D4E3"/>
		<stop  offset="0.02" style="stop-color:#A5B7CA"/>
		<stop  offset="0.64" style="stop-color:#A2B4C6"/>
		<stop  offset="0.99" style="stop-color:#9EB0C2"/>
		<stop  offset="1" style="stop-color:#74828F"/>
	</linearGradient>
	<path fill="url(#SVGID_12_)" d="M213.715,319.964h243v24.75h-243V319.964z"/>
	
		<linearGradient id="SVGID_13_" gradientUnits="userSpaceOnUse" x1="418.2231" y1="197.3047" x2="202.2241" y2="197.3047" gradientTransform="matrix(0.75 0 0 -0.75 61.7025 480.1222)">
		<stop  offset="0" style="stop-color:#B5B5B5"/>
		<stop  offset="0.01" style="stop-color:#FFFFFF"/>
		<stop  offset="0.02" style="stop-color:#EBEBEB"/>
		<stop  offset="0.64" style="stop-color:#E7E7E7"/>
		<stop  offset="0.99" style="stop-color:#E2E2E2"/>
		<stop  offset="1" style="stop-color:#A8A8A8"/>
	</linearGradient>
	<path fill="url(#SVGID_13_)" d="M213.371,329.144h162v6h-162V329.144z"/>
	
		<linearGradient id="SVGID_14_" gradientUnits="userSpaceOnUse" x1="260.2275" y1="190.8086" x2="202.2275" y2="190.8086" gradientTransform="matrix(0.75 0 0 -0.75 111.7118 476.7843)">
		<stop  offset="0" style="stop-color:#A64B4E"/>
		<stop  offset="0.01" style="stop-color:#EF9A9C"/>
		<stop  offset="0.02" style="stop-color:#D86468"/>
		<stop  offset="0.64" style="stop-color:#D56266"/>
		<stop  offset="0.99" style="stop-color:#D06063"/>
		<stop  offset="1" style="stop-color:#9A4548"/>
	</linearGradient>
	<path fill="url(#SVGID_14_)" d="M263.383,325.804h43.5v15.75h-43.5V325.804z"/>
	
		<linearGradient id="SVGID_15_" gradientUnits="userSpaceOnUse" x1="216.2236" y1="184.3066" x2="202.2236" y2="184.3066" gradientTransform="matrix(0.75 0 0 -0.75 144.2181 450.9122)">
		<stop  offset="0" style="stop-color:#A64B4E"/>
		<stop  offset="0.01" style="stop-color:#EF9A9C"/>
		<stop  offset="0.02" style="stop-color:#D86468"/>
		<stop  offset="0.64" style="stop-color:#D56266"/>
		<stop  offset="0.99" style="stop-color:#D06063"/>
		<stop  offset="1" style="stop-color:#9A4548"/>
	</linearGradient>
	<path fill="url(#SVGID_15_)" d="M306.386,325.433h-10.5v-25.5h10.5V325.433z"/>
	
		<linearGradient id="SVGID_16_" gradientUnits="userSpaceOnUse" x1="262.2354" y1="162.8047" x2="202.2246" y2="162.8047" gradientTransform="matrix(0.75 0 0 -0.75 3.3588 340.7472)">
		<stop  offset="0" style="stop-color:#394756"/>
		<stop  offset="0.01" style="stop-color:#8E97A2"/>
		<stop  offset="0.02" style="stop-color:#4D5E72"/>
		<stop  offset="0.64" style="stop-color:#4B5D70"/>
		<stop  offset="0.99" style="stop-color:#495A6D"/>
		<stop  offset="1" style="stop-color:#34414F"/>
	</linearGradient>
	<path fill="url(#SVGID_16_)" d="M155.027,189.77h45c0,0,0.008,0.148,0.008,0.332l-0.008,56.668c0,0.75-0.141,0.586-0.324,0.586
		l-44.676,0.164c0,0,0-0.313,0-0.496V189.77c0,0,0.148,0,0.332,0H155.027z"/>
	
		<linearGradient id="SVGID_17_" gradientUnits="userSpaceOnUse" x1="242.2334" y1="185.1685" x2="202.2227" y2="185.1685" gradientTransform="matrix(0.75 0 0 -0.75 10.8602 349.0939)">
		<stop  offset="0" style="stop-color:#7E8C9B"/>
		<stop  offset="0.01" style="stop-color:#C5D4E3"/>
		<stop  offset="0.02" style="stop-color:#A5B7CA"/>
		<stop  offset="0.64" style="stop-color:#A2B4C6"/>
		<stop  offset="0.99" style="stop-color:#9EB0C2"/>
		<stop  offset="1" style="stop-color:#74828F"/>
	</linearGradient>
	<path fill="url(#SVGID_17_)" d="M162.527,198.117h30c0,0,0.008,0.148,0.008,0.332l-0.008,23.668c0,0-0.141,0.203-0.324,0.203
		l-29.676-0.203c0,0,0,0.051,0-0.133V198.117c0,0,0.152,0,0.336,0H162.527z"/>
	
		<linearGradient id="SVGID_18_" gradientUnits="userSpaceOnUse" x1="265.5703" y1="181.8047" x2="202.2266" y2="181.8047" gradientTransform="matrix(0.75 0 0 -0.75 2.5253 656.2189)">
		<stop  offset="0" style="stop-color:#394756"/>
		<stop  offset="0.01" style="stop-color:#8E97A2"/>
		<stop  offset="0.02" style="stop-color:#4D5E72"/>
		<stop  offset="0.64" style="stop-color:#4B5D70"/>
		<stop  offset="0.99" style="stop-color:#495A6D"/>
		<stop  offset="1" style="stop-color:#34414F"/>
	</linearGradient>
	<path fill="url(#SVGID_18_)" d="M154.195,505.242h47.25c0,0,0.258,0.148,0.258,0.332l-0.258,28.918c0,0,0.109-0.039-0.074-0.039
		l-47.176,0.039c0,0,0-0.191,0-0.375V505.242c0,0,0.148,0,0.332,0H154.195z"/>
	
		<linearGradient id="SVGID_19_" gradientUnits="userSpaceOnUse" x1="221.2251" y1="195.3027" x2="202.2251" y2="195.3027" gradientTransform="matrix(0.75 0 0 -0.75 133.5492 343.9181)">
		<stop  offset="0" style="stop-color:#A3A3A4"/>
		<stop  offset="0.15" style="stop-color:#DEDEDF"/>
		<stop  offset="0.25" style="stop-color:#EDEDED"/>
		<stop  offset="0.52" style="stop-color:#C0C0C1"/>
		<stop  offset="0.69" style="stop-color:#ABABAC"/>
		<stop  offset="0.8" style="stop-color:#A1A1A2"/>
		<stop  offset="0.92" style="stop-color:#989899"/>
		<stop  offset="1" style="stop-color:#AFAFB0"/>
	</linearGradient>
	<path fill="url(#SVGID_19_)" d="M285.218,192.941h14.25v9h-14.25V192.941z"/>
	
		<linearGradient id="SVGID_20_" gradientUnits="userSpaceOnUse" x1="218.2271" y1="196.3037" x2="202.228" y2="196.3037" gradientTransform="matrix(0.75 0 0 -0.75 127.5477 353.2657)">
		<stop  offset="0" style="stop-color:#BDBDBD"/>
		<stop  offset="0.15" style="stop-color:#FFFFFF"/>
		<stop  offset="0.25" style="stop-color:#FFFFFF"/>
		<stop  offset="0.52" style="stop-color:#DFDFDF"/>
		<stop  offset="0.69" style="stop-color:#C7C7C7"/>
		<stop  offset="0.8" style="stop-color:#BCBCBC"/>
		<stop  offset="0.92" style="stop-color:#B1B1B1"/>
		<stop  offset="1" style="stop-color:#CBCBCB"/>
	</linearGradient>
	<path fill="url(#SVGID_20_)" d="M285.218,202.289h6l-6,7.5h-6L285.218,202.289z"/>
	
		<linearGradient id="SVGID_21_" gradientUnits="userSpaceOnUse" x1="181.7041" y1="196.3037" x2="165.7041" y2="196.3037" gradientTransform="matrix(-0.75 0 0 -0.75 429.3322 353.2657)">
		<stop  offset="0" style="stop-color:#BDBDBD"/>
		<stop  offset="0.15" style="stop-color:#FFFFFF"/>
		<stop  offset="0.25" style="stop-color:#FFFFFF"/>
		<stop  offset="0.52" style="stop-color:#DFDFDF"/>
		<stop  offset="0.69" style="stop-color:#C7C7C7"/>
		<stop  offset="0.8" style="stop-color:#BCBCBC"/>
		<stop  offset="0.92" style="stop-color:#B1B1B1"/>
		<stop  offset="1" style="stop-color:#CBCBCB"/>
	</linearGradient>
	<path fill="url(#SVGID_21_)" d="M299.054,202.289h-6l6,7.5h6L299.054,202.289z"/>
	
		<linearGradient id="SVGID_22_" gradientUnits="userSpaceOnUse" x1="280.2231" y1="197.2256" x2="202.2241" y2="197.2256" gradientTransform="matrix(0.75 0 0 -0.75 111.3788 359.1075)">
		<stop  offset="0" style="stop-color:#A3A3A4"/>
		<stop  offset="0.15" style="stop-color:#DEDEDF"/>
		<stop  offset="0.25" style="stop-color:#EDEDED"/>
		<stop  offset="0.52" style="stop-color:#C0C0C1"/>
		<stop  offset="0.69" style="stop-color:#ABABAC"/>
		<stop  offset="0.8" style="stop-color:#A1A1A2"/>
		<stop  offset="0.92" style="stop-color:#989899"/>
		<stop  offset="1" style="stop-color:#AFAFB0"/>
	</linearGradient>
	<path fill="url(#SVGID_22_)" d="M263.797,208.129h56.25c0.75,0,1.344,0.449,1.344,1.004l0.156,4.246
		c0,0.75-0.637,0.871-1.191,0.871l-56.558-0.121c0,0-0.75-0.328-0.75-0.879v-4.371c0,0,0.414-0.75,0.965-0.75H263.797z"/>
	
		<linearGradient id="SVGID_23_" gradientUnits="userSpaceOnUse" x1="608.2251" y1="195.3042" x2="202.2261" y2="195.3042" gradientTransform="matrix(0.75 0 0 -0.75 -19.9786 708.797)">
		<stop  offset="0" style="stop-color:#394756"/>
		<stop  offset="0.01" style="stop-color:#8E97A2"/>
		<stop  offset="0.02" style="stop-color:#4D5E72"/>
		<stop  offset="0.64" style="stop-color:#4B5D70"/>
		<stop  offset="0.99" style="stop-color:#495A6D"/>
		<stop  offset="1" style="stop-color:#34414F"/>
	</linearGradient>
	<path fill="url(#SVGID_23_)" d="M131.691,557.82h304.5v9h-304.5V557.82z"/>
	
		<linearGradient id="SVGID_24_" gradientUnits="userSpaceOnUse" x1="227.3833" y1="191.3745" x2="202.2271" y2="191.3745" gradientTransform="matrix(0.75 0 0 -0.75 222.4462 235.9718)">
		<stop  offset="0" style="stop-color:#000000"/>
		<stop  offset="0.15" style="stop-color:#454545"/>
		<stop  offset="0.25" style="stop-color:#B3B3B3"/>
		<stop  offset="0.52" style="stop-color:#000000"/>
		<stop  offset="0.69" style="stop-color:#000000"/>
		<stop  offset="0.8" style="stop-color:#000000"/>
		<stop  offset="0.92" style="stop-color:#000000"/>
		<stop  offset="1" style="stop-color:#000000"/>
	</linearGradient>
	<path fill="url(#SVGID_24_)" d="M388.367,84.996c0.75,0.75,0.371,2.254,1.512,4.055c1.488,1.945,3.105,2.418,3.105,3.379
		c-0.117,0.816-1.941,1.621-3.023,3.254c-0.844,1.313-0.633,3.543-1.695,4.102c-1.398,0.211-2.309-0.695-4.742-0.68
		c-2.656,0.141-3.77,1.117-4.691,0.68c-0.965-0.539-0.492-2.082-1.781-4.047c-1.434-1.742-2.934-2.215-2.934-3.309
		c0-1.434,1.719-1.547,3.008-3.477c1.492-1.707,1.02-3.57,1.707-3.875c0.535-0.082,2.117,0.676,4.758,0.676
		c2.527-0.008,3.953-1.082,4.676-0.676L388.367,84.996z"/>
	<path fill="#FFFFFF" fill-opacity="0.2" d="M388.117,85.387c0.75,0.75,0.344,2.137,1.426,3.844
		c0.824,1.406,2.938,2.289,2.938,3.199c0.137,1.207-1.84,1.539-2.863,3.086c-0.75,1.871-0.598,3.352-1.605,3.883
		c-0.645,0.238-2.184-0.656-4.484-0.645c-2.16,0.133-3.57,1.059-4.445,0.645c-0.715-0.512-0.465-1.973-1.684-3.832
		c-1.281-1.93-2.781-2.098-2.781-3.137c0-1.043,1.633-1.465,2.852-3.293c0.898-1.5,0.965-3.383,1.613-3.672
		c0.785-0.078,2.004,0.645,4.508,0.645c2.277,0.027,3.738-1.027,4.422-0.645L388.117,85.387z"/>
	<path fill="#3E3938" stroke="#9E9F9F" stroke-linejoin="bevel" stroke-miterlimit="10" d="M377.75,92.48c0-3,2.598-5.25,5.801-5.25
		c3.199,0,5.801,2.336,5.801,5.223c-0.352,3.027-2.598,5.223-5.801,5.223c-3.551,0.055-5.801-2.34-5.801-5.223V92.48z"/>
	<path fill="#FFFFFF" fill-opacity="0.1725" d="M383.933,92.43c0-2.25-3.156-4.5-0.383-4.5c2.633,0,5.016,2.023,5.016,4.523
		c-0.133,2.227-2.246,4.512-5.016,4.512c-2.617-0.035,0.277-1.688,0.277-4.184L383.933,92.43z"/>
	
		<linearGradient id="SVGID_25_" gradientUnits="userSpaceOnUse" x1="227.3833" y1="191.376" x2="202.2271" y2="191.376" gradientTransform="matrix(0.75 0 0 -0.75 222.4462 583.6271)">
		<stop  offset="0" style="stop-color:#000000"/>
		<stop  offset="0.15" style="stop-color:#454545"/>
		<stop  offset="0.25" style="stop-color:#B3B3B3"/>
		<stop  offset="0.52" style="stop-color:#000000"/>
		<stop  offset="0.69" style="stop-color:#000000"/>
		<stop  offset="0.8" style="stop-color:#000000"/>
		<stop  offset="0.92" style="stop-color:#000000"/>
		<stop  offset="1" style="stop-color:#000000"/>
	</linearGradient>
	<path fill="url(#SVGID_25_)" d="M388.367,432.648c0.75,0.75,0.371,2.258,1.512,4.059c1.488,1.941,3.105,2.414,3.105,3.379
		c-0.117,0.813-1.941,1.621-3.023,3.254c-0.844,1.309-0.633,3.539-1.695,4.098c-1.398,0.211-2.309-0.691-4.742-0.68
		c-2.656,0.141-3.77,1.121-4.691,0.68c-0.965-0.539-0.492-2.082-1.781-4.043c-1.434-1.746-2.934-2.215-2.934-3.309
		c0-1.438,1.719-1.547,3.008-3.477c1.492-1.711,1.02-3.574,1.707-3.875c0.535-0.086,2.117,0.676,4.758,0.676
		c2.527-0.012,3.953-1.082,4.676-0.676L388.367,432.648z"/>
	<path fill="#FFFFFF" fill-opacity="0.2" d="M388.121,433.042c0.75,0.75,0.34,2.137,1.422,3.844
		c0.828,1.406,2.938,2.289,2.938,3.199c0.141,1.207-1.84,1.539-2.863,3.082c-0.746,1.875-0.598,3.355-1.605,3.883
		c-0.641,0.242-2.184-0.656-4.484-0.641c-2.156,0.133-3.57,1.059-4.445,0.641c-0.711-0.508-0.465-1.969-1.684-3.828
		c-1.277-1.93-2.777-2.098-2.777-3.137c0-1.043,1.629-1.465,2.848-3.293c0.902-1.5,0.965-3.383,1.613-3.672
		c0.789-0.078,2.004,0.641,4.508,0.641c2.281,0.031,3.738-1.023,4.422-0.641L388.121,433.042z"/>
	<path fill="#3E3938" stroke="#9E9F9F" stroke-linejoin="bevel" stroke-miterlimit="10" d="M377.75,440.132
		c0-3,2.598-5.25,5.801-5.25c3.199,0,5.801,2.34,5.801,5.227c-0.352,3.023-2.598,5.223-5.801,5.223
		c-3.551,0.051-5.801-2.34-5.801-5.223V440.132z"/>
	<path fill="#FFFFFF" fill-opacity="0.1725" d="M383.933,440.085c0-2.25-3.156-4.5-0.383-4.5c2.633,0,5.016,2.02,5.016,4.523
		c-0.133,2.227-2.246,4.512-5.016,4.512c-2.617-0.035,0.277-1.688,0.277-4.184L383.933,440.085z"/>
</g>
</svg>
