<?xml version="1.0" encoding="utf-8"?>
<!-- Generator: Adobe Illustrator 16.0.0, SVG Export Plug-In . SVG Version: 6.00 Build 0)  -->
<!DOCTYPE svg PUBLIC "-//W3C//DTD SVG 1.1//EN" "http://www.w3.org/Graphics/SVG/1.1/DTD/svg11.dtd">
<svg preserveAspectRatio="none" version="1.1" id="图层_1" xmlns="http://www.w3.org/2000/svg" xmlns:xlink="http://www.w3.org/1999/xlink" x="0px" y="0px"
	 width="397.878px" height="566.339px" viewBox="84.481 0.188 397.878 566.339"
	 enable-background="new 84.481 0.188 397.878 566.339" xml:space="preserve">
<g id="surface851">
	
		<linearGradient id="SVGID_1_" gradientUnits="userSpaceOnUse" x1="255.228" y1="169.3057" x2="202.228" y2="169.3057" gradientTransform="matrix(0.75 0 0 -0.75 36.5282 151.1661)">
		<stop  offset="0" style="stop-color:#8D9299"/>
		<stop  offset="0.15" style="stop-color:#C4CAD2"/>
		<stop  offset="0.25" style="stop-color:#DFE2E6"/>
		<stop  offset="0.52" style="stop-color:#A7ADB5"/>
		<stop  offset="0.69" style="stop-color:#949AA1"/>
		<stop  offset="0.8" style="stop-color:#8C9198"/>
		<stop  offset="0.92" style="stop-color:#84898F"/>
		<stop  offset="1" style="stop-color:#989DA5"/>
	</linearGradient>
	<path fill="url(#SVGID_1_)" d="M189.699,0.188h36.75c0.75,0,1.305,0.547,1.305,1.223l0.195,45.277c0,0.75-0.75,1.211-1.434,1.211
		l-36.816,0.289c-0.75,0-1.5-0.836-1.5-1.512V1.688c0-0.75,0.512-1.5,1.195-1.5H189.699z"/>
	
		<linearGradient id="SVGID_2_" gradientUnits="userSpaceOnUse" x1="237.2832" y1="195.188" x2="202.2256" y2="195.188" gradientTransform="matrix(0.75 0 0 -0.75 294.6346 529.632)">
		<stop  offset="0" style="stop-color:#2B2827"/>
		<stop  offset="0.15" style="stop-color:#5B5858"/>
		<stop  offset="0.25" style="stop-color:#B8B7B7"/>
		<stop  offset="0.52" style="stop-color:#353130"/>
		<stop  offset="0.69" style="stop-color:#2E2A29"/>
		<stop  offset="0.8" style="stop-color:#2B2726"/>
		<stop  offset="0.92" style="stop-color:#282424"/>
		<stop  offset="1" style="stop-color:#2F2B2B"/>
	</linearGradient>
	<path fill="url(#SVGID_2_)" d="M447.804,378.656h23.25c0.75,0,1.543,0.547,1.543,1.223l-0.043,7.027
		c0,0.75-0.512,0.922-1.195,0.922l-23.555-0.172c-0.75,0-1.5-0.375-1.5-1.051v-6.449c0-0.75,0.551-1.5,1.234-1.5H447.804z"/>
	
		<linearGradient id="SVGID_3_" gradientUnits="userSpaceOnUse" x1="272.3418" y1="177.0615" x2="202.2266" y2="177.0615" gradientTransform="matrix(0.75 0 0 -0.75 278.1024 538.3771)">
		<stop  offset="0" style="stop-color:#9399A0"/>
		<stop  offset="0.01" style="stop-color:#DBE1E8"/>
		<stop  offset="0.02" style="stop-color:#C0C8D0"/>
		<stop  offset="0.64" style="stop-color:#BDC4CD"/>
		<stop  offset="0.99" style="stop-color:#B9C0C8"/>
		<stop  offset="1" style="stop-color:#898E94"/>
	</linearGradient>
	<path fill="url(#SVGID_3_)" d="M431.273,387.398h49.5c0.75,0,1.586,0.395,1.586,0.906l-0.086,34.344c0,0.75-0.5,1.117-1.184,1.117
		l-49.816-0.367c-0.75,0-1.5-0.051-1.5-0.563v-34.688c0,0,0.52-0.75,1.203-0.75H431.273z"/>
	
		<linearGradient id="SVGID_4_" gradientUnits="userSpaceOnUse" x1="605.2261" y1="-89.7568" x2="202.2271" y2="-89.7569" gradientTransform="matrix(0.75 0 0 -0.75 -13.7413 190.923)">
		<stop  offset="0" style="stop-color:#9399A0"/>
		<stop  offset="0.01" style="stop-color:#DBE1E8"/>
		<stop  offset="0.02" style="stop-color:#C0C8D0"/>
		<stop  offset="0.64" style="stop-color:#BDC4CD"/>
		<stop  offset="0.99" style="stop-color:#B9C0C8"/>
		<stop  offset="1" style="stop-color:#898E94"/>
	</linearGradient>
	<path fill="url(#SVGID_4_)" d="M174.68,39.945h265.5v129h-93v108h-52.5v78h144.75l0.75,74.25c0,26.25-17.047,47.344-37.547,47.344
		l-227.953-0.094c-20.25,0-36.75-21.047-36.75-46.996V87.195c0-26.25,16.527-47.25,37.027-47.25H174.68z"/>
	
		<linearGradient id="SVGID_5_" gradientUnits="userSpaceOnUse" x1="593.2231" y1="167.8081" x2="202.2236" y2="167.8081" gradientTransform="matrix(0.75 0 0 -0.75 -14.7545 667.257)">
		<stop  offset="0" style="stop-color:#9399A0"/>
		<stop  offset="0.01" style="stop-color:#DBE1E8"/>
		<stop  offset="0.02" style="stop-color:#C0C8D0"/>
		<stop  offset="0.64" style="stop-color:#BDC4CD"/>
		<stop  offset="0.99" style="stop-color:#B9C0C8"/>
		<stop  offset="1" style="stop-color:#898E94"/>
	</linearGradient>
	<path fill="url(#SVGID_5_)" d="M136.914,516.277h293.25v50.25h-293.25V516.277z"/>
	
		<linearGradient id="SVGID_6_" gradientUnits="userSpaceOnUse" x1="593.2231" y1="121.3071" x2="202.2236" y2="121.3071" gradientTransform="matrix(0.75 0 0 -0.75 -14.7545 547.2169)">
		<stop  offset="0" style="stop-color:#79848E"/>
		<stop  offset="0.01" style="stop-color:#C0CCD6"/>
		<stop  offset="0.02" style="stop-color:#9EADBA"/>
		<stop  offset="0.64" style="stop-color:#9BAAB7"/>
		<stop  offset="0.99" style="stop-color:#98A6B3"/>
		<stop  offset="1" style="stop-color:#707A84"/>
	</linearGradient>
	<path fill="url(#SVGID_6_)" d="M136.914,516.238h293.25l-27.75-61.5l-171.75-17.25l-12-41.25h-40.5L136.914,516.238z"/>
	
		<linearGradient id="SVGID_7_" gradientUnits="userSpaceOnUse" x1="395.2231" y1="190.8086" x2="202.2227" y2="190.8086" gradientTransform="matrix(0.75 0 0 -0.75 142.9022 521.2218)">
		<stop  offset="0" style="stop-color:#79848E"/>
		<stop  offset="0.01" style="stop-color:#C0CCD6"/>
		<stop  offset="0.02" style="stop-color:#9EADBA"/>
		<stop  offset="0.64" style="stop-color:#9BAAB7"/>
		<stop  offset="0.99" style="stop-color:#98A6B3"/>
		<stop  offset="1" style="stop-color:#707A84"/>
	</linearGradient>
	<path fill="url(#SVGID_7_)" d="M439.32,385.992H294.57v-15.75h144.75V385.992z"/>
	
		<linearGradient id="SVGID_8_" gradientUnits="userSpaceOnUse" x1="395.2231" y1="190.8057" x2="202.2227" y2="190.8056" gradientTransform="matrix(0.75 0 0 -0.75 142.9022 505.9943)">
		<stop  offset="0" style="stop-color:#AB6B37"/>
		<stop  offset="0.01" style="stop-color:#F5B48D"/>
		<stop  offset="0.02" style="stop-color:#DF8D4B"/>
		<stop  offset="0.64" style="stop-color:#DB8A49"/>
		<stop  offset="0.99" style="stop-color:#D68748"/>
		<stop  offset="1" style="stop-color:#9F6333"/>
	</linearGradient>
	<path fill="url(#SVGID_8_)" d="M439.32,370.765H294.57v-15.75h144.75V370.765z"/>
	
		<linearGradient id="SVGID_9_" gradientUnits="userSpaceOnUse" x1="293.2271" y1="128.8066" x2="202.2266" y2="128.8066" gradientTransform="matrix(0.75 0 0 -0.75 194.0985 319.9835)">
		<stop  offset="0" style="stop-color:#9399A0"/>
		<stop  offset="0.01" style="stop-color:#DBE1E8"/>
		<stop  offset="0.02" style="stop-color:#C0C8D0"/>
		<stop  offset="0.64" style="stop-color:#BDC4CD"/>
		<stop  offset="0.99" style="stop-color:#B9C0C8"/>
		<stop  offset="1" style="stop-color:#898E94"/>
	</linearGradient>
	<path fill="url(#SVGID_9_)" d="M345.769,277.754h68.25v-51.75l-48.75-57h-19.5V277.754z"/>
	
		<linearGradient id="SVGID_10_" gradientUnits="userSpaceOnUse" x1="340.2271" y1="122.8062" x2="202.2271" y2="122.8061" gradientTransform="matrix(0.75 0 0 -0.75 18.5477 408.0646)">
		<stop  offset="0" style="stop-color:#79848E"/>
		<stop  offset="0.01" style="stop-color:#C0CCD6"/>
		<stop  offset="0.02" style="stop-color:#9EADBA"/>
		<stop  offset="0.64" style="stop-color:#9BAAB7"/>
		<stop  offset="0.99" style="stop-color:#98A6B3"/>
		<stop  offset="1" style="stop-color:#707A84"/>
	</linearGradient>
	<path fill="url(#SVGID_10_)" d="M170.219,257.086h103.5v117.75h-103.5V257.086z"/>
	<path fill="#9DA7B4" d="M221.52,37.191c0,0-30.984-2.023-57.184,14.168c0.184,0.082-18.34,10.359-33.406,16.836
		c-15.16,6.496-41.129,14.129-45.375,30.727c-5.035,20.02,8.695,37.266,19.176,51.512c10.289,14.258,21.613,35.617,21.613,35.617
		c16.426,31.141,38.645,40.797,38.645,40.797c0.281,0.094,22.926,15.543,56.262,14.324c0.27,0.02,39.289,1.582,71.871-29.273
		c32.648-30.707,31.148-72.715,31.148-72.715c0,0.008,1.438-40.234-30.188-72.414C262.77,34.941,221.25,37.191,221.25,37.191H221.52
		z"/>
	
		<radialGradient id="SVGID_11_" cx="250.5693" cy="117.4839" r="119.2789" gradientTransform="matrix(-0.75 0 0 -0.75 409.3409 227.297)" gradientUnits="userSpaceOnUse">
		<stop  offset="0" style="stop-color:#EB9550"/>
		<stop  offset="0.54" style="stop-color:#E7924E"/>
		<stop  offset="0.74" style="stop-color:#F6BEA0"/>
		<stop  offset="0.91" style="stop-color:#E7924E"/>
		<stop  offset="1" style="stop-color:#E7924E"/>
	</radialGradient>
	<path fill="url(#SVGID_11_)" stroke="#F29952" stroke-width="0.25" stroke-linejoin="bevel" stroke-miterlimit="10" d="
		M285.062,139.32c0-34.5-28.496-63-63.648-63c-35.352,0-63.648,28.145-63.648,62.863c-0.203,34.637,28.496,62.863,63.648,62.863
		c35.148,0.273,63.648-28.145,63.648-62.863V139.32z"/>
	
		<linearGradient id="SVGID_12_" gradientUnits="userSpaceOnUse" x1="189.0762" y1="189.7612" x2="165.6494" y2="189.7612" gradientTransform="matrix(-0.75 0 0 -0.75 370.17 242.9415)">
		<stop  offset="0" style="stop-color:#2B2827"/>
		<stop  offset="0.15" style="stop-color:#5B5858"/>
		<stop  offset="0.25" style="stop-color:#B8B7B7"/>
		<stop  offset="0.52" style="stop-color:#353130"/>
		<stop  offset="0.69" style="stop-color:#2E2A29"/>
		<stop  offset="0.8" style="stop-color:#2B2726"/>
		<stop  offset="0.92" style="stop-color:#282424"/>
		<stop  offset="1" style="stop-color:#2F2B2B"/>
	</linearGradient>
	<path fill="url(#SVGID_12_)" d="M245.891,100.965c0-5.25-3.891-9.02-8.742-9.02c-4.758,0.02-8.785,3.883-8.785,8.684
		c0.277,4.836,3.934,8.668,8.785,8.668c4.992-0.082,8.785-3.883,8.785-8.668L245.891,100.965z"/>
	
		<linearGradient id="SVGID_13_" gradientUnits="userSpaceOnUse" x1="189.0742" y1="189.7607" x2="165.6523" y2="189.7607" gradientTransform="matrix(-0.75 0 0 -0.75 328.8019 250.2032)">
		<stop  offset="0" style="stop-color:#2B2827"/>
		<stop  offset="0.15" style="stop-color:#5B5858"/>
		<stop  offset="0.25" style="stop-color:#B8B7B7"/>
		<stop  offset="0.52" style="stop-color:#353130"/>
		<stop  offset="0.69" style="stop-color:#2E2A29"/>
		<stop  offset="0.8" style="stop-color:#2B2726"/>
		<stop  offset="0.92" style="stop-color:#282424"/>
		<stop  offset="1" style="stop-color:#2F2B2B"/>
	</linearGradient>
	<path fill="url(#SVGID_13_)" d="M204.523,108.227c0-5.25-3.891-9.02-8.742-9.02c-4.758,0.02-8.785,3.883-8.785,8.684
		c0.277,4.836,3.934,8.668,8.785,8.668c4.992-0.082,8.781-3.887,8.781-8.668L204.523,108.227z"/>
	
		<linearGradient id="SVGID_14_" gradientUnits="userSpaceOnUse" x1="189.0762" y1="189.7617" x2="165.6494" y2="189.7617" gradientTransform="matrix(-0.75 0 0 -0.75 314.9513 288.9835)">
		<stop  offset="0" style="stop-color:#2B2827"/>
		<stop  offset="0.15" style="stop-color:#5B5858"/>
		<stop  offset="0.25" style="stop-color:#B8B7B7"/>
		<stop  offset="0.52" style="stop-color:#353130"/>
		<stop  offset="0.69" style="stop-color:#2E2A29"/>
		<stop  offset="0.8" style="stop-color:#2B2726"/>
		<stop  offset="0.92" style="stop-color:#282424"/>
		<stop  offset="1" style="stop-color:#2F2B2B"/>
	</linearGradient>
	<path fill="url(#SVGID_14_)" d="M190.672,147.008c0-5.25-3.891-9.023-8.742-9.023c-4.758,0.023-8.785,3.887-8.785,8.688
		c0.277,4.836,3.934,8.668,8.785,8.668c4.992-0.082,8.785-3.887,8.785-8.668L190.672,147.008z"/>
	
		<linearGradient id="SVGID_15_" gradientUnits="userSpaceOnUse" x1="189.0781" y1="189.7637" x2="165.6514" y2="189.7637" gradientTransform="matrix(-0.75 0 0 -0.75 341.754 321.1593)">
		<stop  offset="0" style="stop-color:#2B2827"/>
		<stop  offset="0.15" style="stop-color:#5B5858"/>
		<stop  offset="0.25" style="stop-color:#B8B7B7"/>
		<stop  offset="0.52" style="stop-color:#353130"/>
		<stop  offset="0.69" style="stop-color:#2E2A29"/>
		<stop  offset="0.8" style="stop-color:#2B2726"/>
		<stop  offset="0.92" style="stop-color:#282424"/>
		<stop  offset="1" style="stop-color:#2F2B2B"/>
	</linearGradient>
	<path fill="url(#SVGID_15_)" d="M217.477,179.184c0-5.25-3.895-9.023-8.746-9.023c-4.754,0.023-8.785,3.887-8.785,8.688
		c0.281,4.836,3.934,8.668,8.785,8.668c4.996-0.082,8.785-3.887,8.785-8.668L217.477,179.184z"/>
	
		<linearGradient id="SVGID_16_" gradientUnits="userSpaceOnUse" x1="189.0762" y1="189.7646" x2="165.6494" y2="189.7646" gradientTransform="matrix(-0.75 0 0 -0.75 382.3224 312.9767)">
		<stop  offset="0" style="stop-color:#2B2827"/>
		<stop  offset="0.15" style="stop-color:#5B5858"/>
		<stop  offset="0.25" style="stop-color:#B8B7B7"/>
		<stop  offset="0.52" style="stop-color:#353130"/>
		<stop  offset="0.69" style="stop-color:#2E2A29"/>
		<stop  offset="0.8" style="stop-color:#2B2726"/>
		<stop  offset="0.92" style="stop-color:#282424"/>
		<stop  offset="1" style="stop-color:#2F2B2B"/>
	</linearGradient>
	<path fill="url(#SVGID_16_)" d="M258.047,171c0-5.25-3.895-9.023-8.746-9.023c-4.754,0.023-8.785,3.887-8.785,8.688
		c0.281,4.836,3.934,8.668,8.785,8.668c4.996-0.082,8.785-3.887,8.785-8.668L258.047,171z"/>
	
		<linearGradient id="SVGID_17_" gradientUnits="userSpaceOnUse" x1="189.0791" y1="189.7637" x2="165.6514" y2="189.7637" gradientTransform="matrix(-0.75 0 0 -0.75 397.4806 273.3937)">
		<stop  offset="0" style="stop-color:#2B2827"/>
		<stop  offset="0.15" style="stop-color:#5B5858"/>
		<stop  offset="0.25" style="stop-color:#B8B7B7"/>
		<stop  offset="0.52" style="stop-color:#353130"/>
		<stop  offset="0.69" style="stop-color:#2E2A29"/>
		<stop  offset="0.8" style="stop-color:#2B2726"/>
		<stop  offset="0.92" style="stop-color:#282424"/>
		<stop  offset="1" style="stop-color:#2F2B2B"/>
	</linearGradient>
	<path fill="url(#SVGID_17_)" d="M273.203,131.418c0-5.25-3.895-9.023-8.746-9.023c-4.754,0.023-8.785,3.887-8.785,8.688
		c0.281,4.836,3.934,8.668,8.785,8.668c4.996-0.082,8.785-3.887,8.785-8.668L273.203,131.418z"/>
	<path fill="#CDCECE" d="M241.328,138.984c0-10.5-8.883-19.5-19.914-19.5c-10.836,0-19.914,8.805-19.914,19.699
		c0.078,11.051,8.93,19.699,19.914,19.699c10.914,0.352,19.957-8.848,19.957-19.699L241.328,138.984z"/>
	
		<linearGradient id="SVGID_18_" gradientUnits="userSpaceOnUse" x1="200.7588" y1="183.9736" x2="165.6436" y2="183.9736" gradientTransform="matrix(-0.75 0 0 -0.75 358.839 277.1456)">
		<stop  offset="0" style="stop-color:#2B2827"/>
		<stop  offset="0.15" style="stop-color:#5B5858"/>
		<stop  offset="0.25" style="stop-color:#B8B7B7"/>
		<stop  offset="0.52" style="stop-color:#353130"/>
		<stop  offset="0.69" style="stop-color:#2E2A29"/>
		<stop  offset="0.8" style="stop-color:#2B2726"/>
		<stop  offset="0.92" style="stop-color:#282424"/>
		<stop  offset="1" style="stop-color:#2F2B2B"/>
	</linearGradient>
	<path fill="url(#SVGID_18_)" d="M234.563,138.918c0-6.75-5.848-12.75-13.117-12.75c-7.133,0-13.176,5.813-13.176,13.016
		c0.043,7.234,5.906,12.973,13.176,12.973c7.117,0.262,13.16-5.82,13.16-12.973L234.563,138.918z"/>
	
		<linearGradient id="SVGID_19_" gradientUnits="userSpaceOnUse" x1="185.7705" y1="191.4268" x2="165.667" y2="191.4268" gradientTransform="matrix(-0.75 0 0 -0.75 353.2384 282.7062)">
		<stop  offset="0" style="stop-color:#BCAD9A"/>
		<stop  offset="0.15" style="stop-color:#FDEAD3"/>
		<stop  offset="0.25" style="stop-color:#FEF3E7"/>
		<stop  offset="0.52" style="stop-color:#DECCB6"/>
		<stop  offset="0.69" style="stop-color:#C5B5A2"/>
		<stop  offset="0.8" style="stop-color:#BAAB98"/>
		<stop  offset="0.92" style="stop-color:#B0A190"/>
		<stop  offset="1" style="stop-color:#CABAA5"/>
	</linearGradient>
	<path fill="url(#SVGID_19_)" d="M228.961,139.23c0-4.5-3.348-7.543-7.512-7.543c-4.488,0.043-7.539,3.336-7.539,7.449
		c0.051,3.844,3.375,7.445,7.539,7.445c4.512,0.148,7.539-3.336,7.539-7.445L228.961,139.23z"/>
	<path fill="#EEEEEE" d="M183.074,419.003c0-8.25,6.734-15.031,15.125-15.031c8.125,0.031,15.195,6.715,15.195,15.016
		c-0.32,8.266-6.805,14.98-15.195,14.98c-8.375,0.035-15.195-6.715-15.195-14.98L183.074,419.003z"/>
	
		<linearGradient id="SVGID_20_" gradientUnits="userSpaceOnUse" x1="235.8184" y1="184.7231" x2="202.1509" y2="184.7231" gradientTransform="matrix(0.75 0 0 -0.75 33.9764 557.5138)">
		<stop  offset="0" style="stop-color:#2B2827"/>
		<stop  offset="0.15" style="stop-color:#5B5858"/>
		<stop  offset="0.25" style="stop-color:#B8B7B7"/>
		<stop  offset="0.52" style="stop-color:#353130"/>
		<stop  offset="0.69" style="stop-color:#2E2A29"/>
		<stop  offset="0.8" style="stop-color:#2B2726"/>
		<stop  offset="0.92" style="stop-color:#282424"/>
		<stop  offset="1" style="stop-color:#2F2B2B"/>
	</linearGradient>
	<path fill="url(#SVGID_20_)" d="M185.645,419.285c0-7.5,5.594-12.777,12.563-12.777c6.938,0.027,12.621,5.582,12.621,12.48
		c0.316,7.047-5.648,12.449-12.621,12.449c-7.313-0.152-12.617-5.582-12.617-12.449L185.645,419.285z"/>
	<path fill="#EEEEEE" d="M373.898,483.898c0-6.75,5.461-12.027,12.262-12.027c6.488,0.027,12.32,5.445,12.32,12.176
		c0.168,6.602-5.516,12.145-12.32,12.145c-7.012-0.293-12.316-5.445-12.316-12.145L373.898,483.898z"/>
	
		<linearGradient id="SVGID_21_" gradientUnits="userSpaceOnUse" x1="229.4502" y1="187.8599" x2="202.1631" y2="187.8599" gradientTransform="matrix(0.75 0 0 -0.75 224.3143 624.9279)">
		<stop  offset="0" style="stop-color:#2B2827"/>
		<stop  offset="0.15" style="stop-color:#5B5858"/>
		<stop  offset="0.25" style="stop-color:#B8B7B7"/>
		<stop  offset="0.52" style="stop-color:#353130"/>
		<stop  offset="0.69" style="stop-color:#2E2A29"/>
		<stop  offset="0.8" style="stop-color:#2B2726"/>
		<stop  offset="0.92" style="stop-color:#282424"/>
		<stop  offset="1" style="stop-color:#2F2B2B"/>
	</linearGradient>
	<path fill="url(#SVGID_21_)" d="M375.984,483.699c0-5.25,4.535-9.773,10.184-9.773c5.566,0.023,10.234,4.527,10.234,10.121
		c-0.168,5.652-4.582,10.094-10.234,10.094c-5.684,0.059-10.23-4.523-10.23-10.094L375.984,483.699z"/>
	<path fill="#9E9F9F" stroke="#9E9F9F" stroke-linejoin="bevel" stroke-miterlimit="10" d="M330.496,110.598
		c0-27,21.566-48,48.234-48c26.766,0,48.238,21.34,48.238,47.738c0.277,26.512-21.605,47.738-48.238,47.738
		c-26.484-0.227-48.234-21.438-48.234-47.738V110.598z"/>
	<path fill="#EEEEEE" stroke="#EEEEEE" stroke-linejoin="bevel" stroke-miterlimit="10" d="M333.351,110.469
		c0-24.75,20.316-45,45.379-45c25.121,0,45.383,20.086,45.383,44.867c-0.012,24.883-20.316,44.863-45.383,44.863
		c-25.129,0.27-45.379-20.086-45.379-44.863V110.469z"/>
	<path fill="#F29952" stroke="#F29952" stroke-linejoin="bevel" stroke-miterlimit="10" d="M340.695,110.23
		c0-21,17.031-37.5,38.035-37.5c21.215,0,38.035,16.836,38.035,37.605c-0.32,20.895-17.027,37.602-38.035,37.602
		c-20.785-0.207-38.035-16.836-38.035-37.602V110.23z"/>
	<path fill="#EEEEEE" stroke="#EEEEEE" stroke-linejoin="bevel" stroke-miterlimit="10" d="M353.105,110.5
		c0-14.25,11.473-25.5,25.625-25.5c14.125,0,25.629,11.344,25.629,25.336c-0.254,13.664-11.477,25.332-25.629,25.332
		c-14.375,0.332-25.625-11.34-25.625-25.332V110.5z"/>
	
		<radialGradient id="SVGID_22_" cx="227.6313" cy="176.187" r="35.725" gradientTransform="matrix(0.75 0 0 -0.75 208.0096 242.4747)" gradientUnits="userSpaceOnUse">
		<stop  offset="0" style="stop-color:#3C3736"/>
		<stop  offset="0.54" style="stop-color:#7A7877"/>
		<stop  offset="0.54" style="stop-color:#3B3635"/>
		<stop  offset="0.84" style="stop-color:#3B3635"/>
		<stop  offset="1" style="stop-color:#3B3635"/>
	</radialGradient>
	<path fill="url(#SVGID_22_)" stroke="#3E3938" stroke-width="0.25" stroke-linejoin="bevel" stroke-miterlimit="10" d="
		M359.679,110.246c0-10.5,8.527-18.75,19.051-18.75c10.199,0,19.055,8.434,19.055,18.84c0.145,10.41-8.531,18.836-19.055,18.836
		c-10.801-0.176-19.051-8.434-19.051-18.836V110.246z"/>
	
		<linearGradient id="SVGID_23_" gradientUnits="userSpaceOnUse" x1="228.2222" y1="129.3066" x2="202.2222" y2="129.3066" gradientTransform="matrix(0.75 0 0 -0.75 194.0985 320.2599)">
		<stop  offset="0" style="stop-color:#79848E"/>
		<stop  offset="0.01" style="stop-color:#C0CCD6"/>
		<stop  offset="0.02" style="stop-color:#9EADBA"/>
		<stop  offset="0.64" style="stop-color:#9BAAB7"/>
		<stop  offset="0.99" style="stop-color:#98A6B3"/>
		<stop  offset="1" style="stop-color:#707A84"/>
	</linearGradient>
	<path fill="url(#SVGID_23_)" d="M345.765,169.281h19.5v108h-19.5V169.281z"/>
	
		<linearGradient id="SVGID_24_" gradientUnits="userSpaceOnUse" x1="225.8149" y1="192.0918" x2="202.2241" y2="192.0918" gradientTransform="matrix(0.75 0 0 -0.75 172.8348 323.2853)">
		<stop  offset="0" style="stop-color:#000000"/>
		<stop  offset="0.15" style="stop-color:#454545"/>
		<stop  offset="0.25" style="stop-color:#B3B3B3"/>
		<stop  offset="0.52" style="stop-color:#000000"/>
		<stop  offset="0.69" style="stop-color:#000000"/>
		<stop  offset="0.8" style="stop-color:#000000"/>
		<stop  offset="0.92" style="stop-color:#000000"/>
		<stop  offset="1" style="stop-color:#000000"/>
	</linearGradient>
	<path fill="url(#SVGID_24_)" d="M338.003,172.309c0.75,0.75,0.18,2.082,1.25,3.746c1,1.504,2.906,2.234,2.906,3.125
		c0.344,0.629-1.816,1.496-2.828,3.004c-1.328,1.375-0.594,3.273-1.59,3.789c-1.238,0.586-2.156-0.641-4.434-0.629
		c-2.055-0.285-3.531,1.035-4.391,0.629c-0.664-0.164-0.461-1.926-1.664-3.738c-1.25-1.676-2.75-2.043-2.75-3.055
		c0-0.871,1.613-1.43,2.816-3.215c0.934-1.406,0.953-3.301,1.598-3.582c0.836-0.074,1.98,0.629,4.453,0.629
		c2.383,0.047,3.695-1,4.371-0.629L338.003,172.309z"/>
	<path fill="#FFFFFF" fill-opacity="0.2" d="M337.726,172.672c0.75,0.75,0.199,1.973,1.211,3.551c1.039,1.699,2.75,2.113,2.75,2.957
		c-0.211,0.992-1.719,1.418-2.676,2.848c-1.285,1.145-0.563,3.098-1.504,3.586c-1.281,0.559-2.043-0.605-4.199-0.594
		c-2.332-0.348-3.34,0.98-4.156,0.594c-1.176-0.191-0.438-1.82-1.574-3.539c-1.102-1.152-2.602-1.938-2.602-2.895
		c0-1.258,1.523-1.355,2.664-3.043c1.086-1.965,0.902-3.129,1.512-3.395c0.324-0.07,1.875,0.594,4.215,0.594
		c2.109,0.086,3.5-0.945,4.141-0.594L337.726,172.672z"/>
	<path fill="#3E3938" stroke="#9E9F9F" stroke-linejoin="bevel" stroke-miterlimit="10" d="M327.902,178.871
		c0-2.25,2.43-4.5,5.43-4.5c2.82,0,5.426,2.164,5.426,4.828c-0.355,2.672-2.43,4.824-5.426,4.824c-3.18,0.098-5.43-2.16-5.43-4.824
		V178.871z"/>
	<path fill="#FFFFFF" fill-opacity="0.1725" d="M333.789,179.52c0-2.25-3.051-4.5-0.457-4.5c2.707,0,4.695,1.867,4.695,4.18
		c0.262,2.57-2.102,4.168-4.695,4.168c-2.543-0.098,0.258-1.559,0.258-3.863L333.789,179.52z"/>
	
		<linearGradient id="SVGID_25_" gradientUnits="userSpaceOnUse" x1="225.8149" y1="192.0918" x2="202.2241" y2="192.0918" gradientTransform="matrix(0.75 0 0 -0.75 172.8348 352.5529)">
		<stop  offset="0" style="stop-color:#000000"/>
		<stop  offset="0.15" style="stop-color:#454545"/>
		<stop  offset="0.25" style="stop-color:#B3B3B3"/>
		<stop  offset="0.52" style="stop-color:#000000"/>
		<stop  offset="0.69" style="stop-color:#000000"/>
		<stop  offset="0.8" style="stop-color:#000000"/>
		<stop  offset="0.92" style="stop-color:#000000"/>
		<stop  offset="1" style="stop-color:#000000"/>
	</linearGradient>
	<path fill="url(#SVGID_25_)" d="M338.003,201.574c0.75,0.75,0.18,2.086,1.25,3.75c1,1.5,2.906,2.23,2.906,3.121
		c0.344,0.629-1.816,1.5-2.828,3.008c-1.328,1.371-0.594,3.27-1.59,3.785c-1.238,0.586-2.156-0.641-4.434-0.629
		c-2.055-0.285-3.531,1.035-4.391,0.629c-0.664-0.164-0.461-1.922-1.664-3.734c-1.25-1.68-2.75-2.047-2.75-3.059
		c0-0.871,1.613-1.43,2.816-3.211c0.934-1.41,0.953-3.301,1.598-3.582c0.836-0.078,1.98,0.625,4.453,0.625
		c2.383,0.047,3.695-0.996,4.371-0.625L338.003,201.574z"/>
	<path fill="#FFFFFF" fill-opacity="0.2" d="M337.726,201.938c0.75,0.75,0.199,1.977,1.211,3.551c1.039,1.699,2.75,2.117,2.75,2.957
		c-0.211,0.992-1.719,1.422-2.676,2.848c-1.285,1.145-0.563,3.102-1.504,3.59c-1.281,0.555-2.043-0.605-4.199-0.594
		c-2.332-0.352-3.34,0.977-4.156,0.594c-1.176-0.195-0.438-1.824-1.574-3.539c-1.102-1.156-2.602-1.938-2.602-2.898
		c0-1.258,1.523-1.352,2.664-3.043c1.086-1.965,0.902-3.125,1.512-3.391c0.324-0.074,1.875,0.594,4.215,0.594
		c2.109,0.082,3.5-0.949,4.141-0.594L337.726,201.938z"/>
	<path fill="#3E3938" stroke="#9E9F9F" stroke-linejoin="bevel" stroke-miterlimit="10" d="M327.902,208.141
		c0-2.25,2.43-4.5,5.43-4.5c2.82,0,5.426,2.16,5.426,4.824c-0.355,2.676-2.43,4.828-5.426,4.828c-3.18,0.098-5.43-2.16-5.43-4.828
		V208.141z"/>
	<path fill="#FFFFFF" fill-opacity="0.1725" d="M333.789,208.785c0-2.25-3.051-4.5-0.457-4.5c2.707,0,4.695,1.871,4.695,4.18
		c0.262,2.57-2.102,4.172-4.695,4.172c-2.543-0.102,0.258-1.563,0.258-3.867L333.789,208.785z"/>
	
		<linearGradient id="SVGID_26_" gradientUnits="userSpaceOnUse" x1="225.8149" y1="192.0918" x2="202.2241" y2="192.0918" gradientTransform="matrix(0.75 0 0 -0.75 172.8348 381.8214)">
		<stop  offset="0" style="stop-color:#000000"/>
		<stop  offset="0.15" style="stop-color:#454545"/>
		<stop  offset="0.25" style="stop-color:#B3B3B3"/>
		<stop  offset="0.52" style="stop-color:#000000"/>
		<stop  offset="0.69" style="stop-color:#000000"/>
		<stop  offset="0.8" style="stop-color:#000000"/>
		<stop  offset="0.92" style="stop-color:#000000"/>
		<stop  offset="1" style="stop-color:#000000"/>
	</linearGradient>
	<path fill="url(#SVGID_26_)" d="M338.003,230.844c0.75,0.75,0.18,2.082,1.25,3.746c1,1.504,2.906,2.234,2.906,3.125
		c0.344,0.629-1.816,1.496-2.828,3.004c-1.328,1.375-0.594,3.273-1.59,3.789c-1.238,0.586-2.156-0.641-4.434-0.629
		c-2.055-0.285-3.531,1.035-4.391,0.629c-0.664-0.164-0.461-1.922-1.664-3.734c-1.25-1.68-2.75-2.047-2.75-3.059
		c0-0.871,1.613-1.43,2.816-3.211c0.934-1.41,0.953-3.301,1.598-3.582c0.836-0.078,1.98,0.625,4.453,0.625
		c2.383,0.047,3.695-1,4.371-0.625L338.003,230.844z"/>
	<path fill="#FFFFFF" fill-opacity="0.2" d="M337.726,231.207c0.75,0.75,0.199,1.973,1.211,3.551c1.039,1.699,2.75,2.113,2.75,2.957
		c-0.211,0.992-1.719,1.418-2.676,2.848c-1.285,1.145-0.563,3.098-1.504,3.59c-1.281,0.555-2.043-0.609-4.199-0.598
		c-2.332-0.348-3.34,0.98-4.156,0.598c-1.176-0.195-0.438-1.824-1.574-3.539c-1.102-1.156-2.602-1.941-2.602-2.898
		c0-1.258,1.523-1.355,2.664-3.043c1.086-1.965,0.902-3.125,1.512-3.395c0.324-0.07,1.875,0.594,4.215,0.594
		c2.109,0.086,3.5-0.945,4.141-0.594L337.726,231.207z"/>
	<path fill="#3E3938" stroke="#9E9F9F" stroke-linejoin="bevel" stroke-miterlimit="10" d="M327.902,237.41
		c0-2.25,2.43-4.5,5.43-4.5c2.82,0,5.426,2.16,5.426,4.824c-0.355,2.676-2.43,4.828-5.426,4.828c-3.18,0.098-5.43-2.164-5.43-4.828
		V237.41z"/>
	<path fill="#FFFFFF" fill-opacity="0.1725" d="M333.789,238.055c0-2.25-3.051-4.5-0.457-4.5c2.707,0,4.695,1.867,4.695,4.18
		c0.262,2.57-2.102,4.168-4.695,4.168c-2.543-0.098,0.258-1.559,0.258-3.863L333.789,238.055z"/>
	
		<linearGradient id="SVGID_27_" gradientUnits="userSpaceOnUse" x1="225.8149" y1="192.0923" x2="202.2241" y2="192.0923" gradientTransform="matrix(0.75 0 0 -0.75 172.8348 411.09)">
		<stop  offset="0" style="stop-color:#000000"/>
		<stop  offset="0.15" style="stop-color:#454545"/>
		<stop  offset="0.25" style="stop-color:#B3B3B3"/>
		<stop  offset="0.52" style="stop-color:#000000"/>
		<stop  offset="0.69" style="stop-color:#000000"/>
		<stop  offset="0.8" style="stop-color:#000000"/>
		<stop  offset="0.92" style="stop-color:#000000"/>
		<stop  offset="1" style="stop-color:#000000"/>
	</linearGradient>
	<path fill="url(#SVGID_27_)" d="M338.003,260.113c0.75,0.75,0.18,2.082,1.25,3.746c1,1.504,2.906,2.234,2.906,3.121
		c0.344,0.633-1.816,1.5-2.828,3.008c-1.328,1.375-0.594,3.27-1.59,3.785c-1.238,0.59-2.156-0.637-4.434-0.625
		c-2.055-0.285-3.531,1.031-4.391,0.625c-0.664-0.16-0.461-1.922-1.664-3.734c-1.25-1.676-2.75-2.047-2.75-3.059
		c0-0.867,1.613-1.426,2.816-3.211c0.934-1.406,0.953-3.301,1.598-3.582c0.836-0.074,1.98,0.629,4.453,0.629
		c2.383,0.047,3.695-1,4.371-0.629L338.003,260.113z"/>
	<path fill="#FFFFFF" fill-opacity="0.2" d="M337.726,260.477c0.75,0.75,0.199,1.973,1.211,3.547c1.039,1.703,2.75,2.117,2.75,2.961
		c-0.211,0.992-1.719,1.418-2.676,2.848c-1.285,1.145-0.563,3.098-1.504,3.586c-1.281,0.559-2.043-0.605-4.199-0.594
		c-2.332-0.348-3.34,0.98-4.156,0.594c-1.176-0.191-0.438-1.82-1.574-3.539c-1.102-1.152-2.602-1.938-2.602-2.895
		c0-1.258,1.523-1.355,2.664-3.043c1.086-1.965,0.902-3.129,1.512-3.395c0.324-0.07,1.875,0.594,4.215,0.594
		c2.109,0.086,3.5-0.945,4.141-0.594L337.726,260.477z"/>
	<path fill="#3E3938" stroke="#9E9F9F" stroke-linejoin="bevel" stroke-miterlimit="10" d="M327.902,266.676
		c0-2.25,2.43-4.5,5.43-4.5c2.82,0,5.426,2.16,5.426,4.828c-0.355,2.672-2.43,4.824-5.426,4.824c-3.18,0.098-5.43-2.16-5.43-4.824
		V266.676z"/>
	<path fill="#FFFFFF" fill-opacity="0.1725" d="M333.789,267.324c0-2.25-3.051-4.5-0.457-4.5c2.707,0,4.695,1.867,4.695,4.18
		c0.262,2.57-2.102,4.168-4.695,4.168c-2.543-0.098,0.258-1.559,0.258-3.863L333.789,267.324z"/>
</g>
</svg>
