<?xml version="1.0" encoding="utf-8"?>
<!-- Generator: Adobe Illustrator 16.0.0, SVG Export Plug-In . SVG Version: 6.00 Build 0)  -->
<!DOCTYPE svg PUBLIC "-//W3C//DTD SVG 1.1//EN" "http://www.w3.org/Graphics/SVG/1.1/DTD/svg11.dtd">
<svg preserveAspectRatio="none" version="1.1" id="图层_1" xmlns="http://www.w3.org/2000/svg" xmlns:xlink="http://www.w3.org/1999/xlink" x="0px" y="0px"
	 width="561.246px" height="290.558px" viewBox="2.82 276.922 561.246 290.558"
	 enable-background="new 2.82 276.922 561.246 290.558" xml:space="preserve">
<g id="surface671">
	
		<linearGradient id="SVGID_1_" gradientUnits="userSpaceOnUse" x1="208.2222" y1="201.3066" x2="208.2222" y2="123.249" gradientTransform="matrix(0.75 0 0 -0.75 399.7782 493.1075)">
		<stop  offset="0" style="stop-color:#BC8823"/>
		<stop  offset="0.15" style="stop-color:#FDBE55"/>
		<stop  offset="0.25" style="stop-color:#FEDCB6"/>
		<stop  offset="0.52" style="stop-color:#DEA22B"/>
		<stop  offset="0.69" style="stop-color:#C58F25"/>
		<stop  offset="0.8" style="stop-color:#BA8723"/>
		<stop  offset="0.92" style="stop-color:#B07F20"/>
		<stop  offset="1" style="stop-color:#CA9327"/>
	</linearGradient>
	<path fill="url(#SVGID_1_)" d="M552.195,342.128h7.5c0,0,0.543,0.367,0.543,0.82l0.207,56.93c0,0.75-0.406,0.793-0.656,0.793
		l-7.594-0.043c-0.75,0-0.75-0.332-0.75-0.785v-56.965c0-0.75,0.203-0.75,0.449-0.75H552.195z"/>
	
		<linearGradient id="SVGID_2_" gradientUnits="userSpaceOnUse" x1="212.7222" y1="201.3027" x2="212.7222" y2="105.3027" gradientTransform="matrix(0.75 0 0 -0.75 351.5555 486.3009)">
		<stop  offset="0" style="stop-color:#BC8823"/>
		<stop  offset="0.15" style="stop-color:#FDBE55"/>
		<stop  offset="0.25" style="stop-color:#FEDCB6"/>
		<stop  offset="0.52" style="stop-color:#DEA22B"/>
		<stop  offset="0.69" style="stop-color:#C58F25"/>
		<stop  offset="0.8" style="stop-color:#BA8723"/>
		<stop  offset="0.92" style="stop-color:#B07F20"/>
		<stop  offset="1" style="stop-color:#CA9327"/>
	</linearGradient>
	<path fill="url(#SVGID_2_)" d="M518.972,335.324h-15.75v72h15.75V335.324z"/>
	
		<linearGradient id="SVGID_3_" gradientUnits="userSpaceOnUse" x1="415.2241" y1="201.3066" x2="415.2241" y2="-43.6943" gradientTransform="matrix(0.75 0 0 -0.75 21.0858 437.9513)">
		<stop  offset="0" style="stop-color:#BC8823"/>
		<stop  offset="0.15" style="stop-color:#FDBE55"/>
		<stop  offset="0.25" style="stop-color:#FEDCB6"/>
		<stop  offset="0.52" style="stop-color:#DEA22B"/>
		<stop  offset="0.69" style="stop-color:#C58F25"/>
		<stop  offset="0.8" style="stop-color:#BA8723"/>
		<stop  offset="0.92" style="stop-color:#B07F20"/>
		<stop  offset="1" style="stop-color:#CA9327"/>
	</linearGradient>
	<path fill="url(#SVGID_3_)" d="M172.754,286.972h319.5v183.75h-319.5V286.972z"/>
	
		<linearGradient id="SVGID_4_" gradientUnits="userSpaceOnUse" x1="209.2236" y1="201.3057" x2="209.2236" y2="-13.6943" gradientTransform="matrix(0.75 0 0 -0.75 -2.1168 449.295)">
		<stop  offset="0" style="stop-color:#BC8823"/>
		<stop  offset="0.15" style="stop-color:#FDBE55"/>
		<stop  offset="0.25" style="stop-color:#FEDCB6"/>
		<stop  offset="0.52" style="stop-color:#DEA22B"/>
		<stop  offset="0.69" style="stop-color:#C58F25"/>
		<stop  offset="0.8" style="stop-color:#BA8723"/>
		<stop  offset="0.92" style="stop-color:#B07F20"/>
		<stop  offset="1" style="stop-color:#CA9327"/>
	</linearGradient>
	<path fill="url(#SVGID_4_)" d="M160.051,298.316h-10.5v161.25h10.5V298.316z"/>
	
		<linearGradient id="SVGID_5_" gradientUnits="userSpaceOnUse" x1="253.2285" y1="201.3018" x2="253.2285" y2="105.3018" gradientTransform="matrix(0.75 0 0 -0.75 -78.6163 493.9181)">
		<stop  offset="0" style="stop-color:#BC8823"/>
		<stop  offset="0.15" style="stop-color:#FDBE55"/>
		<stop  offset="0.25" style="stop-color:#FEDCB6"/>
		<stop  offset="0.52" style="stop-color:#DEA22B"/>
		<stop  offset="0.69" style="stop-color:#C58F25"/>
		<stop  offset="0.8" style="stop-color:#BA8723"/>
		<stop  offset="0.92" style="stop-color:#B07F20"/>
		<stop  offset="1" style="stop-color:#CA9327"/>
	</linearGradient>
	<path fill="url(#SVGID_5_)" d="M149.555,342.941h-76.5v72h76.5V342.941z"/>
	
		<linearGradient id="SVGID_6_" gradientUnits="userSpaceOnUse" x1="226.8877" y1="201.3066" x2="226.8877" y2="20.3066" gradientTransform="matrix(0.75 0 0 -0.75 -54.7887 462.2609)">
		<stop  offset="0" style="stop-color:#BC8823"/>
		<stop  offset="0.15" style="stop-color:#FDBE55"/>
		<stop  offset="0.25" style="stop-color:#FEDCB6"/>
		<stop  offset="0.52" style="stop-color:#DEA22B"/>
		<stop  offset="0.69" style="stop-color:#C58F25"/>
		<stop  offset="0.8" style="stop-color:#BA8723"/>
		<stop  offset="0.92" style="stop-color:#B07F20"/>
		<stop  offset="1" style="stop-color:#CA9327"/>
	</linearGradient>
	<path fill="url(#SVGID_6_)" d="M99.129,311.281h33c0.75,0,1.746,0.852,1.746,1.902l-0.246,131.598c0,0.75-0.594,1.973-1.633,1.973
		l-32.867,0.277c-1.5,0-2.25-1.148-2.25-2.195V313.531c0-1.5,0.844-2.25,1.883-2.25H99.129z"/>
	
		<linearGradient id="SVGID_7_" gradientUnits="userSpaceOnUse" x1="221.2236" y1="201.3047" x2="221.2236" y2="5.3047" gradientTransform="matrix(0.75 0 0 -0.75 -95.527 456.5646)">
		<stop  offset="0" style="stop-color:#BC8823"/>
		<stop  offset="0.15" style="stop-color:#FDBE55"/>
		<stop  offset="0.25" style="stop-color:#FEDCB6"/>
		<stop  offset="0.52" style="stop-color:#DEA22B"/>
		<stop  offset="0.69" style="stop-color:#C58F25"/>
		<stop  offset="0.8" style="stop-color:#BA8723"/>
		<stop  offset="0.92" style="stop-color:#B07F20"/>
		<stop  offset="1" style="stop-color:#CA9327"/>
	</linearGradient>
	<path fill="url(#SVGID_7_)" d="M56.141,305.585h26.25c0.75,0,1.969,0.832,1.969,1.879l0.281,142.871c0,1.5-1.145,2.113-2.184,2.113
		l-26.316,0.137V305.585z"/>
	
		<linearGradient id="SVGID_8_" gradientUnits="userSpaceOnUse" x1="237.7231" y1="201.3047" x2="237.7231" y2="5.3047" gradientTransform="matrix(0.75 0 0 -0.75 -148.8468 456.5646)">
		<stop  offset="0" style="stop-color:#BC8823"/>
		<stop  offset="0.15" style="stop-color:#FDBE55"/>
		<stop  offset="0.25" style="stop-color:#FEDCB6"/>
		<stop  offset="0.52" style="stop-color:#DEA22B"/>
		<stop  offset="0.69" style="stop-color:#C58F25"/>
		<stop  offset="0.8" style="stop-color:#BA8723"/>
		<stop  offset="0.92" style="stop-color:#B07F20"/>
		<stop  offset="1" style="stop-color:#CA9327"/>
	</linearGradient>
	<path fill="url(#SVGID_8_)" d="M2.82,329.585l53.25-24v147l-53.25-24V329.585z"/>
	
		<linearGradient id="SVGID_9_" gradientUnits="userSpaceOnUse" x1="226.8906" y1="201.3047" x2="226.8906" y2="20.3047" gradientTransform="matrix(0.75 0 0 -0.75 364.8612 462.2618)">
		<stop  offset="0" style="stop-color:#BC8823"/>
		<stop  offset="0.15" style="stop-color:#FDBE55"/>
		<stop  offset="0.25" style="stop-color:#FEDCB6"/>
		<stop  offset="0.52" style="stop-color:#DEA22B"/>
		<stop  offset="0.69" style="stop-color:#C58F25"/>
		<stop  offset="0.8" style="stop-color:#BA8723"/>
		<stop  offset="0.92" style="stop-color:#B07F20"/>
		<stop  offset="1" style="stop-color:#CA9327"/>
	</linearGradient>
	<path fill="url(#SVGID_9_)" d="M518.781,311.285h33c0.75,0,1.746,0.848,1.746,1.898l-0.246,131.602c0,0.75-0.598,1.969-1.637,1.969
		l-32.863,0.281c-1.5,0-2.25-1.148-2.25-2.199V313.535c0-1.5,0.84-2.25,1.879-2.25H518.781z"/>
	
		<linearGradient id="SVGID_10_" gradientUnits="userSpaceOnUse" x1="251.2256" y1="156.8027" x2="202.2256" y2="156.8027" gradientTransform="matrix(0.75 0 0 -0.75 364.8807 564.5704)">
		<stop  offset="0" style="stop-color:#B38221"/>
		<stop  offset="0.01" style="stop-color:#FDCA83"/>
		<stop  offset="0.05" style="stop-color:#E9AA2E"/>
		<stop  offset="0.9" style="stop-color:#E5A72D"/>
		<stop  offset="0.95" style="stop-color:#E0A32C"/>
		<stop  offset="1" style="stop-color:#A6781E"/>
	</linearGradient>
	<path fill="url(#SVGID_10_)" d="M553.3,413.593v66.75h-36.75v-66.75H553.3z"/>
	
		<linearGradient id="SVGID_11_" gradientUnits="userSpaceOnUse" x1="233.2256" y1="201.3057" x2="233.2256" y2="181.3057" gradientTransform="matrix(0.75 0 0 -0.75 360.2567 606.9503)">
		<stop  offset="0" style="stop-color:#B38221"/>
		<stop  offset="0.01" style="stop-color:#FDCA83"/>
		<stop  offset="0.05" style="stop-color:#E9AA2E"/>
		<stop  offset="0.9" style="stop-color:#E5A72D"/>
		<stop  offset="0.95" style="stop-color:#E0A32C"/>
		<stop  offset="1" style="stop-color:#A6781E"/>
	</linearGradient>
	<path fill="url(#SVGID_11_)" d="M511.925,455.972h46.5v15h-46.5V455.972z"/>
	
		<linearGradient id="SVGID_12_" gradientUnits="userSpaceOnUse" x1="268.2246" y1="142.3047" x2="202.2246" y2="142.3047" gradientTransform="matrix(0.75 0 0 -0.75 358.7372 622.1407)">
		<stop  offset="0" style="stop-color:#B38221"/>
		<stop  offset="0.01" style="stop-color:#FDCA83"/>
		<stop  offset="0.05" style="stop-color:#E9AA2E"/>
		<stop  offset="0.9" style="stop-color:#E5A72D"/>
		<stop  offset="0.95" style="stop-color:#E0A32C"/>
		<stop  offset="1" style="stop-color:#A6781E"/>
	</linearGradient>
	<path fill="url(#SVGID_12_)" d="M510.406,471.164h49.5v88.5h-49.5V471.164z"/>
	
		<linearGradient id="SVGID_13_" gradientUnits="userSpaceOnUse" x1="279.6084" y1="196.1348" x2="202.2227" y2="196.1348" gradientTransform="matrix(0.75 0 0 -0.75 354.3593 710.7013)">
		<stop  offset="0" style="stop-color:#B38221"/>
		<stop  offset="0.01" style="stop-color:#FDCA83"/>
		<stop  offset="0.05" style="stop-color:#E9AA2E"/>
		<stop  offset="0.9" style="stop-color:#E5A72D"/>
		<stop  offset="0.95" style="stop-color:#E0A32C"/>
		<stop  offset="1" style="stop-color:#A6781E"/>
	</linearGradient>
	<path fill="url(#SVGID_13_)" d="M508.277,559.722h54c0.75,0,1.789,0.949,1.789,2.117l-0.289,3.883c0,0.75-0.691,1.758-1.848,1.758
		l-53.652-0.258c-1.5,0-2.25-0.688-2.25-1.855v-3.395c0-1.5,0.941-2.25,2.098-2.25H508.277z"/>
	
		<linearGradient id="SVGID_14_" gradientUnits="userSpaceOnUse" x1="251.2266" y1="156.8066" x2="202.2266" y2="156.8066" gradientTransform="matrix(0.75 0 0 -0.75 -54.7174 564.5685)">
		<stop  offset="0" style="stop-color:#B38221"/>
		<stop  offset="0.01" style="stop-color:#FDCA83"/>
		<stop  offset="0.05" style="stop-color:#E9AA2E"/>
		<stop  offset="0.9" style="stop-color:#E5A72D"/>
		<stop  offset="0.95" style="stop-color:#E0A32C"/>
		<stop  offset="1" style="stop-color:#A6781E"/>
	</linearGradient>
	<path fill="url(#SVGID_14_)" d="M133.703,413.589v66.75h-36.75v-66.75H133.703z"/>
	
		<linearGradient id="SVGID_15_" gradientUnits="userSpaceOnUse" x1="233.2275" y1="201.3008" x2="233.2275" y2="181.3008" gradientTransform="matrix(0.75 0 0 -0.75 -59.3419 606.9484)">
		<stop  offset="0" style="stop-color:#B38221"/>
		<stop  offset="0.01" style="stop-color:#FDCA83"/>
		<stop  offset="0.05" style="stop-color:#E9AA2E"/>
		<stop  offset="0.9" style="stop-color:#E5A72D"/>
		<stop  offset="0.95" style="stop-color:#E0A32C"/>
		<stop  offset="1" style="stop-color:#A6781E"/>
	</linearGradient>
	<path fill="url(#SVGID_15_)" d="M92.328,455.972h46.5v15h-46.5V455.972z"/>
	
		<linearGradient id="SVGID_16_" gradientUnits="userSpaceOnUse" x1="268.2251" y1="142.3057" x2="202.2251" y2="142.3057" gradientTransform="matrix(0.75 0 0 -0.75 -60.8605 622.1388)">
		<stop  offset="0" style="stop-color:#B38221"/>
		<stop  offset="0.01" style="stop-color:#FDCA83"/>
		<stop  offset="0.05" style="stop-color:#E9AA2E"/>
		<stop  offset="0.9" style="stop-color:#E5A72D"/>
		<stop  offset="0.95" style="stop-color:#E0A32C"/>
		<stop  offset="1" style="stop-color:#A6781E"/>
	</linearGradient>
	<path fill="url(#SVGID_16_)" d="M90.809,471.16h49.5v88.5h-49.5V471.16z"/>
	
		<linearGradient id="SVGID_17_" gradientUnits="userSpaceOnUse" x1="279.6099" y1="196.1328" x2="202.2241" y2="196.1328" gradientTransform="matrix(0.75 0 0 -0.75 -65.2389 710.6993)">
		<stop  offset="0" style="stop-color:#B38221"/>
		<stop  offset="0.01" style="stop-color:#FDCA83"/>
		<stop  offset="0.05" style="stop-color:#E9AA2E"/>
		<stop  offset="0.9" style="stop-color:#E5A72D"/>
		<stop  offset="0.95" style="stop-color:#E0A32C"/>
		<stop  offset="1" style="stop-color:#A6781E"/>
	</linearGradient>
	<path fill="url(#SVGID_17_)" d="M88.68,559.722h54c0.75,0,1.789,0.945,1.789,2.113l-0.289,3.887c0,0.75-0.691,1.758-1.852,1.758
		l-53.648-0.258c-1.5,0-2.25-0.691-2.25-1.859v-3.391c0-1.5,0.938-2.25,2.098-2.25H88.68z"/>
	
		<linearGradient id="SVGID_18_" gradientUnits="userSpaceOnUse" x1="204.2285" y1="201.3057" x2="204.2285" y2="-13.6943" gradientTransform="matrix(0.75 0 0 -0.75 6.5868 449.295)">
		<stop  offset="0" style="stop-color:#AA6901"/>
		<stop  offset="0.15" style="stop-color:#E79A46"/>
		<stop  offset="0.25" style="stop-color:#F1CCB3"/>
		<stop  offset="0.52" style="stop-color:#C87D01"/>
		<stop  offset="0.69" style="stop-color:#B26F01"/>
		<stop  offset="0.8" style="stop-color:#A86801"/>
		<stop  offset="0.92" style="stop-color:#9F6201"/>
		<stop  offset="1" style="stop-color:#B67201"/>
	</linearGradient>
	<path fill="url(#SVGID_18_)" d="M161.258,298.316h-3v161.25h3V298.316z"/>
	
		<linearGradient id="SVGID_19_" gradientUnits="userSpaceOnUse" x1="205.7271" y1="201.3057" x2="205.727" y2="-43.6943" gradientTransform="matrix(0.75 0 0 -0.75 21.6234 437.9513)">
		<stop  offset="0" style="stop-color:#AA6901"/>
		<stop  offset="0.15" style="stop-color:#E79A46"/>
		<stop  offset="0.25" style="stop-color:#F1CCB3"/>
		<stop  offset="0.52" style="stop-color:#C87D01"/>
		<stop  offset="0.69" style="stop-color:#B26F01"/>
		<stop  offset="0.8" style="stop-color:#A86801"/>
		<stop  offset="0.92" style="stop-color:#9F6201"/>
		<stop  offset="1" style="stop-color:#B67201"/>
	</linearGradient>
	<path fill="url(#SVGID_19_)" d="M173.293,286.972h5.25v183.75h-5.25V286.972z"/>
	
		<linearGradient id="SVGID_20_" gradientUnits="userSpaceOnUse" x1="205.7256" y1="201.3066" x2="205.7256" y2="-43.6934" gradientTransform="matrix(0.75 0 0 -0.75 334.7333 437.9513)">
		<stop  offset="0" style="stop-color:#AA6901"/>
		<stop  offset="0.15" style="stop-color:#E79A46"/>
		<stop  offset="0.25" style="stop-color:#F1CCB3"/>
		<stop  offset="0.52" style="stop-color:#C87D01"/>
		<stop  offset="0.69" style="stop-color:#B26F01"/>
		<stop  offset="0.8" style="stop-color:#A86801"/>
		<stop  offset="0.92" style="stop-color:#9F6201"/>
		<stop  offset="1" style="stop-color:#B67201"/>
	</linearGradient>
	<path fill="url(#SVGID_20_)" d="M486.402,286.972h5.25v183.75h-5.25V286.972z"/>
	
		<linearGradient id="SVGID_21_" gradientUnits="userSpaceOnUse" x1="206.7231" y1="201.3037" x2="206.7231" y2="193.3047" gradientTransform="matrix(0.75 0 0 -0.75 2.9535 431.3927)">
		<stop  offset="0" style="stop-color:#BC8823"/>
		<stop  offset="0.15" style="stop-color:#FDBE55"/>
		<stop  offset="0.25" style="stop-color:#FEDCB6"/>
		<stop  offset="0.52" style="stop-color:#DEA22B"/>
		<stop  offset="0.69" style="stop-color:#C58F25"/>
		<stop  offset="0.8" style="stop-color:#BA8723"/>
		<stop  offset="0.92" style="stop-color:#B07F20"/>
		<stop  offset="1" style="stop-color:#CA9327"/>
	</linearGradient>
	<path fill="url(#SVGID_21_)" d="M156.871,280.414h4.5v6h-4.5c-1.5,0-2.25-1.305-2.25-2.472v-1.277c0-1.5,0.941-2.25,2.098-2.25
		H156.871z"/>
	
		<linearGradient id="SVGID_22_" gradientUnits="userSpaceOnUse" x1="206.7231" y1="201.3037" x2="206.7231" y2="193.3037" gradientTransform="matrix(0.75 0 0 -0.75 2.9535 463.3986)">
		<stop  offset="0" style="stop-color:#BC8823"/>
		<stop  offset="0.15" style="stop-color:#FDBE55"/>
		<stop  offset="0.25" style="stop-color:#FEDCB6"/>
		<stop  offset="0.52" style="stop-color:#DEA22B"/>
		<stop  offset="0.69" style="stop-color:#C58F25"/>
		<stop  offset="0.8" style="stop-color:#BA8723"/>
		<stop  offset="0.92" style="stop-color:#B07F20"/>
		<stop  offset="1" style="stop-color:#CA9327"/>
	</linearGradient>
	<path fill="url(#SVGID_22_)" d="M156.871,312.421h4.5v6h-4.5c-1.5,0-2.25-1.305-2.25-2.473v-1.277c0-1.5,0.941-2.25,2.098-2.25
		H156.871z"/>
	
		<linearGradient id="SVGID_23_" gradientUnits="userSpaceOnUse" x1="206.7231" y1="201.3057" x2="206.7231" y2="193.3057" gradientTransform="matrix(0.75 0 0 -0.75 2.9535 495.4044)">
		<stop  offset="0" style="stop-color:#BC8823"/>
		<stop  offset="0.15" style="stop-color:#FDBE55"/>
		<stop  offset="0.25" style="stop-color:#FEDCB6"/>
		<stop  offset="0.52" style="stop-color:#DEA22B"/>
		<stop  offset="0.69" style="stop-color:#C58F25"/>
		<stop  offset="0.8" style="stop-color:#BA8723"/>
		<stop  offset="0.92" style="stop-color:#B07F20"/>
		<stop  offset="1" style="stop-color:#CA9327"/>
	</linearGradient>
	<path fill="url(#SVGID_23_)" d="M156.871,344.425h4.5v6h-4.5c-1.5,0-2.25-1.305-2.25-2.473v-1.277c0-1.5,0.941-2.25,2.098-2.25
		H156.871z"/>
	
		<linearGradient id="SVGID_24_" gradientUnits="userSpaceOnUse" x1="206.7231" y1="201.3047" x2="206.7231" y2="193.3047" gradientTransform="matrix(0.75 0 0 -0.75 2.9535 527.4044)">
		<stop  offset="0" style="stop-color:#BC8823"/>
		<stop  offset="0.15" style="stop-color:#FDBE55"/>
		<stop  offset="0.25" style="stop-color:#FEDCB6"/>
		<stop  offset="0.52" style="stop-color:#DEA22B"/>
		<stop  offset="0.69" style="stop-color:#C58F25"/>
		<stop  offset="0.8" style="stop-color:#BA8723"/>
		<stop  offset="0.92" style="stop-color:#B07F20"/>
		<stop  offset="1" style="stop-color:#CA9327"/>
	</linearGradient>
	<path fill="url(#SVGID_24_)" d="M156.871,376.425h4.5v6h-4.5c-1.5,0-2.25-1.305-2.25-2.473v-1.277c0-1.5,0.941-2.25,2.098-2.25
		H156.871z"/>
	
		<linearGradient id="SVGID_25_" gradientUnits="userSpaceOnUse" x1="206.7231" y1="201.3057" x2="206.7231" y2="193.3057" gradientTransform="matrix(0.75 0 0 -0.75 2.9535 559.4161)">
		<stop  offset="0" style="stop-color:#BC8823"/>
		<stop  offset="0.15" style="stop-color:#FDBE55"/>
		<stop  offset="0.25" style="stop-color:#FEDCB6"/>
		<stop  offset="0.52" style="stop-color:#DEA22B"/>
		<stop  offset="0.69" style="stop-color:#C58F25"/>
		<stop  offset="0.8" style="stop-color:#BA8723"/>
		<stop  offset="0.92" style="stop-color:#B07F20"/>
		<stop  offset="1" style="stop-color:#CA9327"/>
	</linearGradient>
	<path fill="url(#SVGID_25_)" d="M156.871,408.437h4.5v6h-4.5c-1.5,0-2.25-1.305-2.25-2.473v-1.277c0-1.5,0.941-2.25,2.098-2.25
		H156.871z"/>
	
		<linearGradient id="SVGID_26_" gradientUnits="userSpaceOnUse" x1="206.7231" y1="201.3047" x2="206.7231" y2="193.3047" gradientTransform="matrix(0.75 0 0 -0.75 2.9535 591.423)">
		<stop  offset="0" style="stop-color:#BC8823"/>
		<stop  offset="0.15" style="stop-color:#FDBE55"/>
		<stop  offset="0.25" style="stop-color:#FEDCB6"/>
		<stop  offset="0.52" style="stop-color:#DEA22B"/>
		<stop  offset="0.69" style="stop-color:#C58F25"/>
		<stop  offset="0.8" style="stop-color:#BA8723"/>
		<stop  offset="0.92" style="stop-color:#B07F20"/>
		<stop  offset="1" style="stop-color:#CA9327"/>
	</linearGradient>
	<path fill="url(#SVGID_26_)" d="M156.871,440.445h4.5v6h-4.5c-1.5,0-2.25-1.305-2.25-2.473v-1.277c0-1.5,0.941-2.25,2.098-2.25
		H156.871z"/>
	
		<linearGradient id="SVGID_27_" gradientUnits="userSpaceOnUse" x1="206.7241" y1="201.3066" x2="206.7241" y2="193.3066" gradientTransform="matrix(0.75 0 0 -0.75 2.9535 623.4288)">
		<stop  offset="0" style="stop-color:#BC8823"/>
		<stop  offset="0.15" style="stop-color:#FDBE55"/>
		<stop  offset="0.25" style="stop-color:#FEDCB6"/>
		<stop  offset="0.52" style="stop-color:#DEA22B"/>
		<stop  offset="0.69" style="stop-color:#C58F25"/>
		<stop  offset="0.8" style="stop-color:#BA8723"/>
		<stop  offset="0.92" style="stop-color:#B07F20"/>
		<stop  offset="1" style="stop-color:#CA9327"/>
	</linearGradient>
	<path fill="url(#SVGID_27_)" d="M156.871,472.449h4.5v6h-4.5c-1.5,0-2.25-1.305-2.25-2.473v-1.277c0-1.5,0.941-2.25,2.098-2.25
		H156.871z"/>
	
		<linearGradient id="SVGID_28_" gradientUnits="userSpaceOnUse" x1="206.418" y1="201.3018" x2="206.418" y2="-70.9531" gradientTransform="matrix(0.75 0 0 -0.75 15.3212 427.9532)">
		<stop  offset="0" style="stop-color:#BC8823"/>
		<stop  offset="0.15" style="stop-color:#FDBE55"/>
		<stop  offset="0.25" style="stop-color:#FEDCB6"/>
		<stop  offset="0.52" style="stop-color:#DEA22B"/>
		<stop  offset="0.69" style="stop-color:#C58F25"/>
		<stop  offset="0.8" style="stop-color:#BA8723"/>
		<stop  offset="0.92" style="stop-color:#B07F20"/>
		<stop  offset="1" style="stop-color:#CA9327"/>
	</linearGradient>
	<path fill="url(#SVGID_28_)" d="M169.242,276.977h2.25c0.75,0,1.785,0.945,1.785,2.117l-0.285,199.632
		c0,1.5-0.652,2.441-1.809,2.441l-1.941-0.191c-1.5,0-2.25-0.758-2.25-1.926V279.227c0-1.5,0.938-2.25,2.094-2.25H169.242z"/>
	
		<linearGradient id="SVGID_29_" gradientUnits="userSpaceOnUse" x1="206.418" y1="201.3018" x2="206.418" y2="-70.9531" gradientTransform="matrix(0.75 0 0 -0.75 8.8231 427.9532)">
		<stop  offset="0" style="stop-color:#BC8823"/>
		<stop  offset="0.15" style="stop-color:#FDBE55"/>
		<stop  offset="0.25" style="stop-color:#FEDCB6"/>
		<stop  offset="0.52" style="stop-color:#DEA22B"/>
		<stop  offset="0.69" style="stop-color:#C58F25"/>
		<stop  offset="0.8" style="stop-color:#BA8723"/>
		<stop  offset="0.92" style="stop-color:#B07F20"/>
		<stop  offset="1" style="stop-color:#CA9327"/>
	</linearGradient>
	<path fill="url(#SVGID_29_)" d="M162.742,276.977h2.25c0.75,0,1.789,0.945,1.789,2.117l-0.289,199.632
		c0,1.5-0.648,2.441-1.809,2.441l-1.941-0.191c-1.5,0-2.25-0.758-2.25-1.926V279.227c0-1.5,0.938-2.25,2.098-2.25H162.742z"/>
	
		<linearGradient id="SVGID_30_" gradientUnits="userSpaceOnUse" x1="203.2251" y1="201.3037" x2="203.2251" y2="-65.6963" gradientTransform="matrix(0.75 0 0 -0.75 14.3978 429.8409)">
		<stop  offset="0" style="stop-color:#AA6901"/>
		<stop  offset="0.15" style="stop-color:#E79A46"/>
		<stop  offset="0.25" style="stop-color:#F1CCB3"/>
		<stop  offset="0.52" style="stop-color:#C87D01"/>
		<stop  offset="0.69" style="stop-color:#B26F01"/>
		<stop  offset="0.8" style="stop-color:#A86801"/>
		<stop  offset="0.92" style="stop-color:#9F6201"/>
		<stop  offset="1" style="stop-color:#B67201"/>
	</linearGradient>
	<path fill="url(#SVGID_30_)" d="M166.066,278.863h1.5v200.25h-1.5V278.863z"/>
	
		<linearGradient id="SVGID_31_" gradientUnits="userSpaceOnUse" x1="170.207" y1="201.3008" x2="170.207" y2="193.3008" gradientTransform="matrix(-0.75 0 0 -0.75 633.6466 431.1407)">
		<stop  offset="0" style="stop-color:#BC8823"/>
		<stop  offset="0.15" style="stop-color:#FDBE55"/>
		<stop  offset="0.25" style="stop-color:#FEDCB6"/>
		<stop  offset="0.52" style="stop-color:#DEA22B"/>
		<stop  offset="0.69" style="stop-color:#C58F25"/>
		<stop  offset="0.8" style="stop-color:#BA8723"/>
		<stop  offset="0.92" style="stop-color:#B07F20"/>
		<stop  offset="1" style="stop-color:#CA9327"/>
	</linearGradient>
	<path fill="url(#SVGID_31_)" d="M507.117,280.164h-4.5v6h4.5c1.5,0,2.25-1.305,2.25-2.472v-1.277c0-1.5-0.938-2.25-2.094-2.25
		H507.117z"/>
	
		<linearGradient id="SVGID_32_" gradientUnits="userSpaceOnUse" x1="170.207" y1="201.3047" x2="170.207" y2="193.3047" gradientTransform="matrix(-0.75 0 0 -0.75 633.6466 463.1466)">
		<stop  offset="0" style="stop-color:#BC8823"/>
		<stop  offset="0.15" style="stop-color:#FDBE55"/>
		<stop  offset="0.25" style="stop-color:#FEDCB6"/>
		<stop  offset="0.52" style="stop-color:#DEA22B"/>
		<stop  offset="0.69" style="stop-color:#C58F25"/>
		<stop  offset="0.8" style="stop-color:#BA8723"/>
		<stop  offset="0.92" style="stop-color:#B07F20"/>
		<stop  offset="1" style="stop-color:#CA9327"/>
	</linearGradient>
	<path fill="url(#SVGID_32_)" d="M507.117,312.167h-4.5v6h4.5c1.5,0,2.25-1.305,2.25-2.473v-1.277c0-1.5-0.938-2.25-2.094-2.25
		H507.117z"/>
	
		<linearGradient id="SVGID_33_" gradientUnits="userSpaceOnUse" x1="170.207" y1="201.3018" x2="170.207" y2="193.3018" gradientTransform="matrix(-0.75 0 0 -0.75 633.6466 495.1525)">
		<stop  offset="0" style="stop-color:#BC8823"/>
		<stop  offset="0.15" style="stop-color:#FDBE55"/>
		<stop  offset="0.25" style="stop-color:#FEDCB6"/>
		<stop  offset="0.52" style="stop-color:#DEA22B"/>
		<stop  offset="0.69" style="stop-color:#C58F25"/>
		<stop  offset="0.8" style="stop-color:#BA8723"/>
		<stop  offset="0.92" style="stop-color:#B07F20"/>
		<stop  offset="1" style="stop-color:#CA9327"/>
	</linearGradient>
	<path fill="url(#SVGID_33_)" d="M507.117,344.175h-4.5v6h4.5c1.5,0,2.25-1.305,2.25-2.473v-1.277c0-1.5-0.938-2.25-2.094-2.25
		H507.117z"/>
	
		<linearGradient id="SVGID_34_" gradientUnits="userSpaceOnUse" x1="170.207" y1="201.3008" x2="170.207" y2="193.3008" gradientTransform="matrix(-0.75 0 0 -0.75 633.6466 527.1525)">
		<stop  offset="0" style="stop-color:#BC8823"/>
		<stop  offset="0.15" style="stop-color:#FDBE55"/>
		<stop  offset="0.25" style="stop-color:#FEDCB6"/>
		<stop  offset="0.52" style="stop-color:#DEA22B"/>
		<stop  offset="0.69" style="stop-color:#C58F25"/>
		<stop  offset="0.8" style="stop-color:#BA8723"/>
		<stop  offset="0.92" style="stop-color:#B07F20"/>
		<stop  offset="1" style="stop-color:#CA9327"/>
	</linearGradient>
	<path fill="url(#SVGID_34_)" d="M507.117,376.175h-4.5v6h4.5c1.5,0,2.25-1.305,2.25-2.473v-1.277c0-1.5-0.938-2.25-2.094-2.25
		H507.117z"/>
	
		<linearGradient id="SVGID_35_" gradientUnits="userSpaceOnUse" x1="170.207" y1="201.3027" x2="170.207" y2="193.3027" gradientTransform="matrix(-0.75 0 0 -0.75 633.6466 559.1652)">
		<stop  offset="0" style="stop-color:#BC8823"/>
		<stop  offset="0.15" style="stop-color:#FDBE55"/>
		<stop  offset="0.25" style="stop-color:#FEDCB6"/>
		<stop  offset="0.52" style="stop-color:#DEA22B"/>
		<stop  offset="0.69" style="stop-color:#C58F25"/>
		<stop  offset="0.8" style="stop-color:#BA8723"/>
		<stop  offset="0.92" style="stop-color:#B07F20"/>
		<stop  offset="1" style="stop-color:#CA9327"/>
	</linearGradient>
	<path fill="url(#SVGID_35_)" d="M507.117,408.187h-4.5v6h4.5c1.5,0,2.25-1.305,2.25-2.473v-1.277c0-1.5-0.938-2.25-2.094-2.25
		H507.117z"/>
	
		<linearGradient id="SVGID_36_" gradientUnits="userSpaceOnUse" x1="170.207" y1="201.3008" x2="170.207" y2="193.3008" gradientTransform="matrix(-0.75 0 0 -0.75 633.6466 591.171)">
		<stop  offset="0" style="stop-color:#BC8823"/>
		<stop  offset="0.15" style="stop-color:#FDBE55"/>
		<stop  offset="0.25" style="stop-color:#FEDCB6"/>
		<stop  offset="0.52" style="stop-color:#DEA22B"/>
		<stop  offset="0.69" style="stop-color:#C58F25"/>
		<stop  offset="0.8" style="stop-color:#BA8723"/>
		<stop  offset="0.92" style="stop-color:#B07F20"/>
		<stop  offset="1" style="stop-color:#CA9327"/>
	</linearGradient>
	<path fill="url(#SVGID_36_)" d="M507.117,440.195h-4.5v6h4.5c1.5,0,2.25-1.305,2.25-2.477v-1.273c0-1.5-0.938-2.25-2.094-2.25
		H507.117z"/>
	
		<linearGradient id="SVGID_37_" gradientUnits="userSpaceOnUse" x1="170.208" y1="201.3047" x2="170.208" y2="193.3047" gradientTransform="matrix(-0.75 0 0 -0.75 633.6466 623.1779)">
		<stop  offset="0" style="stop-color:#BC8823"/>
		<stop  offset="0.15" style="stop-color:#FDBE55"/>
		<stop  offset="0.25" style="stop-color:#FEDCB6"/>
		<stop  offset="0.52" style="stop-color:#DEA22B"/>
		<stop  offset="0.69" style="stop-color:#C58F25"/>
		<stop  offset="0.8" style="stop-color:#BA8723"/>
		<stop  offset="0.92" style="stop-color:#B07F20"/>
		<stop  offset="1" style="stop-color:#CA9327"/>
	</linearGradient>
	<path fill="url(#SVGID_37_)" d="M507.117,472.199h-4.5v6h4.5c1.5,0,2.25-1.305,2.25-2.473v-1.277c0-1.5-0.938-2.25-2.094-2.25
		H507.117z"/>
	
		<linearGradient id="SVGID_38_" gradientUnits="userSpaceOnUse" x1="206.416" y1="201.3047" x2="206.416" y2="-70.9492" gradientTransform="matrix(0.75 0 0 -0.75 346.1835 427.9005)">
		<stop  offset="0" style="stop-color:#BC8823"/>
		<stop  offset="0.15" style="stop-color:#FDBE55"/>
		<stop  offset="0.25" style="stop-color:#FEDCB6"/>
		<stop  offset="0.52" style="stop-color:#DEA22B"/>
		<stop  offset="0.69" style="stop-color:#C58F25"/>
		<stop  offset="0.8" style="stop-color:#BA8723"/>
		<stop  offset="0.92" style="stop-color:#B07F20"/>
		<stop  offset="1" style="stop-color:#CA9327"/>
	</linearGradient>
	<path fill="url(#SVGID_38_)" d="M500.101,276.922h2.25c0.75,0,1.789,0.949,1.789,2.117l-0.289,199.632
		c0,1.5-0.648,2.441-1.805,2.441l-1.945-0.191c-1.5,0-2.25-0.758-2.25-1.926V279.172c0-1.5,0.941-2.25,2.098-2.25H500.101z"/>
	
		<linearGradient id="SVGID_39_" gradientUnits="userSpaceOnUse" x1="206.4185" y1="201.3047" x2="206.4184" y2="-70.9492" gradientTransform="matrix(0.75 0 0 -0.75 339.6854 427.9005)">
		<stop  offset="0" style="stop-color:#BC8823"/>
		<stop  offset="0.15" style="stop-color:#FDBE55"/>
		<stop  offset="0.25" style="stop-color:#FEDCB6"/>
		<stop  offset="0.52" style="stop-color:#DEA22B"/>
		<stop  offset="0.69" style="stop-color:#C58F25"/>
		<stop  offset="0.8" style="stop-color:#BA8723"/>
		<stop  offset="0.92" style="stop-color:#B07F20"/>
		<stop  offset="1" style="stop-color:#CA9327"/>
	</linearGradient>
	<path fill="url(#SVGID_39_)" d="M493.605,276.922h2.25c0.75,0,1.789,0.949,1.789,2.117l-0.289,199.632
		c0,1.5-0.648,2.441-1.809,2.441l-1.941-0.191c-1.5,0-2.25-0.758-2.25-1.926V279.172c0-1.5,0.938-2.25,2.094-2.25H493.605z"/>
	
		<linearGradient id="SVGID_40_" gradientUnits="userSpaceOnUse" x1="203.2251" y1="201.3027" x2="203.2251" y2="-65.6973" gradientTransform="matrix(0.75 0 0 -0.75 345.1356 429.9806)">
		<stop  offset="0" style="stop-color:#AA6901"/>
		<stop  offset="0.15" style="stop-color:#E79A46"/>
		<stop  offset="0.25" style="stop-color:#F1CCB3"/>
		<stop  offset="0.52" style="stop-color:#C87D01"/>
		<stop  offset="0.69" style="stop-color:#B26F01"/>
		<stop  offset="0.8" style="stop-color:#A86801"/>
		<stop  offset="0.92" style="stop-color:#9F6201"/>
		<stop  offset="1" style="stop-color:#B67201"/>
	</linearGradient>
	<path fill="url(#SVGID_40_)" d="M496.804,279.004h1.5v200.25h-1.5V279.004z"/>
</g>
</svg>
