<?xml version="1.0" encoding="utf-8"?>
<!-- Generator: Adobe Illustrator 16.0.0, SVG Export Plug-In . SVG Version: 6.00 Build 0)  -->
<!DOCTYPE svg PUBLIC "-//W3C//DTD SVG 1.1//EN" "http://www.w3.org/Graphics/SVG/1.1/DTD/svg11.dtd">
<svg preserveAspectRatio="none" version="1.1" id="图层_1" xmlns="http://www.w3.org/2000/svg" xmlns:xlink="http://www.w3.org/1999/xlink" x="0px" y="0px"
	 width="560.375px" height="474.882px" viewBox="3.277 90.508 560.375 474.882"
	 enable-background="new 3.277 90.508 560.375 474.882" xml:space="preserve">
<g id="surface826">
	
		<linearGradient id="SVGID_1_" gradientUnits="userSpaceOnUse" x1="938.2231" y1="125.7271" x2="202.2231" y2="125.727" gradientTransform="matrix(0.75 0 0 -0.75 -144.047 531.7072)">
		<stop  offset="0" style="stop-color:#B5B5B5"/>
		<stop  offset="0.01" style="stop-color:#FFFFFF"/>
		<stop  offset="0.02" style="stop-color:#EBEBEB"/>
		<stop  offset="0.64" style="stop-color:#E7E7E7"/>
		<stop  offset="0.99" style="stop-color:#E2E2E2"/>
		<stop  offset="1" style="stop-color:#A8A8A8"/>
	</linearGradient>
	<path fill="url(#SVGID_1_)" d="M559.621,380.73v111.75c0,0.75-0.922,1.617-1.629,1.617L9.121,493.98c-1.5,0-1.5-0.488-1.5-1.191
		V380.73H559.621z"/>
	
		<linearGradient id="SVGID_2_" gradientUnits="userSpaceOnUse" x1="949.3911" y1="177.2979" x2="202.2251" y2="177.2978" gradientTransform="matrix(0.75 0 0 -0.75 -148.3917 241.5372)">
		<stop  offset="0" style="stop-color:#B3A593"/>
		<stop  offset="0.01" style="stop-color:#FDEEDA"/>
		<stop  offset="0.02" style="stop-color:#E9D7BF"/>
		<stop  offset="0.64" style="stop-color:#E5D3BC"/>
		<stop  offset="0.99" style="stop-color:#E0CEB8"/>
		<stop  offset="1" style="stop-color:#A69988"/>
	</linearGradient>
	<path fill="url(#SVGID_2_)" d="M4.777,90.559h557.25c0.75,0,1.625,0.832,1.625,1.918l-0.125,31.832c0,1.5-0.449,2.313-1.152,2.313
		L4.777,126.559c-1.5,0-1.5-0.82-1.5-1.91v-31.84c0-1.5,0-2.301,1.211-2.301L4.777,90.559z"/>
	
		<linearGradient id="SVGID_3_" gradientUnits="userSpaceOnUse" x1="385.2241" y1="32.3062" x2="202.2241" y2="32.3061" gradientTransform="matrix(0.75 0 0 -0.75 270.9403 277.6349)">
		<stop  offset="0" style="stop-color:#9B9B9C"/>
		<stop  offset="0.01" style="stop-color:#E4E4E4"/>
		<stop  offset="0.02" style="stop-color:#CBCBCB"/>
		<stop  offset="0.64" style="stop-color:#C7C7C8"/>
		<stop  offset="0.99" style="stop-color:#C3C3C4"/>
		<stop  offset="1" style="stop-color:#909091"/>
	</linearGradient>
	<path fill="url(#SVGID_3_)" d="M559.859,126.656h-137.25v253.5h137.25V126.656z"/>
	
		<linearGradient id="SVGID_4_" gradientUnits="userSpaceOnUse" x1="743.2222" y1="32.3057" x2="202.2222" y2="32.3056" gradientTransform="matrix(0.75 0 0 -0.75 -134.8473 277.6779)">
		<stop  offset="0" style="stop-color:#B5B5B5"/>
		<stop  offset="0.01" style="stop-color:#FFFFFF"/>
		<stop  offset="0.02" style="stop-color:#EBEBEB"/>
		<stop  offset="0.64" style="stop-color:#E7E7E7"/>
		<stop  offset="0.99" style="stop-color:#E2E2E2"/>
		<stop  offset="1" style="stop-color:#A8A8A8"/>
	</linearGradient>
	<path fill="url(#SVGID_4_)" d="M422.57,126.699H16.82v253.5h405.75V126.699z"/>
	
		<linearGradient id="SVGID_5_" gradientUnits="userSpaceOnUse" x1="353.2241" y1="46.8032" x2="202.2241" y2="46.8032" gradientTransform="matrix(0.75 0 0 -0.75 283.0653 288.4923)">
		<stop  offset="0" style="stop-color:#B5B5B5"/>
		<stop  offset="0.01" style="stop-color:#FFFFFF"/>
		<stop  offset="0.02" style="stop-color:#EBEBEB"/>
		<stop  offset="0.64" style="stop-color:#E7E7E7"/>
		<stop  offset="0.99" style="stop-color:#E2E2E2"/>
		<stop  offset="1" style="stop-color:#A8A8A8"/>
	</linearGradient>
	<path fill="url(#SVGID_5_)" d="M547.984,137.516h-113.25v231.75h113.25V137.516z"/>
	
		<linearGradient id="SVGID_6_" gradientUnits="userSpaceOnUse" x1="231.3486" y1="165.8066" x2="202.2236" y2="165.8066" gradientTransform="matrix(0.75 0 0 -0.75 -121.422 644.9757)">
		<stop  offset="0" style="stop-color:#BDBDBD"/>
		<stop  offset="0.15" style="stop-color:#FFFFFF"/>
		<stop  offset="0.25" style="stop-color:#FFFFFF"/>
		<stop  offset="0.52" style="stop-color:#DFDFDF"/>
		<stop  offset="0.69" style="stop-color:#C7C7C7"/>
		<stop  offset="0.8" style="stop-color:#BCBCBC"/>
		<stop  offset="0.92" style="stop-color:#B1B1B1"/>
		<stop  offset="1" style="stop-color:#CBCBCB"/>
	</linearGradient>
	<path fill="url(#SVGID_6_)" d="M31.746,493.996h18.75c0.75,0,1.594,0.57,1.594,1.277l-0.094,50.473c0,0.75-0.48,1.336-1.184,1.336
		l-19.066,0.164c-0.75,0-1.5-0.734-1.5-1.438v-50.313c0-0.75,0.574-1.5,1.281-1.5H31.746z"/>
	
		<linearGradient id="SVGID_7_" gradientUnits="userSpaceOnUse" x1="221.2241" y1="192.3047" x2="202.2241" y2="192.3047" gradientTransform="matrix(0.75 0 0 -0.75 -117.6759 698.0597)">
		<stop  offset="0" style="stop-color:#BDBDBD"/>
		<stop  offset="0.15" style="stop-color:#FFFFFF"/>
		<stop  offset="0.25" style="stop-color:#FFFFFF"/>
		<stop  offset="0.52" style="stop-color:#DFDFDF"/>
		<stop  offset="0.69" style="stop-color:#C7C7C7"/>
		<stop  offset="0.8" style="stop-color:#BCBCBC"/>
		<stop  offset="0.92" style="stop-color:#B1B1B1"/>
		<stop  offset="1" style="stop-color:#CBCBCB"/>
	</linearGradient>
	<path fill="url(#SVGID_7_)" d="M33.992,547.082h14.25v13.5h-14.25V547.082z"/>
	
		<linearGradient id="SVGID_8_" gradientUnits="userSpaceOnUse" x1="232.2236" y1="197.3027" x2="202.1348" y2="197.3027" gradientTransform="matrix(0.75 0 0 -0.75 -121.6715 710.2687)">
		<stop  offset="0" style="stop-color:#BDBDBD"/>
		<stop  offset="0.15" style="stop-color:#FFFFFF"/>
		<stop  offset="0.25" style="stop-color:#FFFFFF"/>
		<stop  offset="0.52" style="stop-color:#DFDFDF"/>
		<stop  offset="0.69" style="stop-color:#C7C7C7"/>
		<stop  offset="0.8" style="stop-color:#BCBCBC"/>
		<stop  offset="0.92" style="stop-color:#B1B1B1"/>
		<stop  offset="1" style="stop-color:#CBCBCB"/>
	</linearGradient>
	<path fill="url(#SVGID_8_)" d="M31.496,559.292h19.5c0.75,0,1.309,0.57,1.309,1.273l0.191,3.227c0,0.75-0.762,1.336-1.469,1.336
		l-19.531,0.164c-0.75,0-1.566-0.734-1.566-1.438l0.066-3.063c0-0.75,0.508-1.5,1.215-1.5H31.496z"/>
	
		<linearGradient id="SVGID_9_" gradientUnits="userSpaceOnUse" x1="231.3486" y1="165.8047" x2="202.2236" y2="165.8047" gradientTransform="matrix(0.75 0 0 -0.75 362.578 645.0753)">
		<stop  offset="0" style="stop-color:#BDBDBD"/>
		<stop  offset="0.15" style="stop-color:#FFFFFF"/>
		<stop  offset="0.25" style="stop-color:#FFFFFF"/>
		<stop  offset="0.52" style="stop-color:#DFDFDF"/>
		<stop  offset="0.69" style="stop-color:#C7C7C7"/>
		<stop  offset="0.8" style="stop-color:#BCBCBC"/>
		<stop  offset="0.92" style="stop-color:#B1B1B1"/>
		<stop  offset="1" style="stop-color:#CBCBCB"/>
	</linearGradient>
	<path fill="url(#SVGID_9_)" d="M515.746,494.097h18.75c0.75,0,1.594,0.57,1.594,1.273l-0.094,50.477c0,0.75-0.48,1.332-1.188,1.332
		l-19.063,0.168c-0.75,0-1.5-0.738-1.5-1.441v-50.309c0-0.75,0.574-1.5,1.281-1.5H515.746z"/>
	
		<linearGradient id="SVGID_10_" gradientUnits="userSpaceOnUse" x1="221.2241" y1="192.3076" x2="202.2241" y2="192.3076" gradientTransform="matrix(0.75 0 0 -0.75 366.3231 698.1593)">
		<stop  offset="0" style="stop-color:#BDBDBD"/>
		<stop  offset="0.15" style="stop-color:#FFFFFF"/>
		<stop  offset="0.25" style="stop-color:#FFFFFF"/>
		<stop  offset="0.52" style="stop-color:#DFDFDF"/>
		<stop  offset="0.69" style="stop-color:#C7C7C7"/>
		<stop  offset="0.8" style="stop-color:#BCBCBC"/>
		<stop  offset="0.92" style="stop-color:#B1B1B1"/>
		<stop  offset="1" style="stop-color:#CBCBCB"/>
	</linearGradient>
	<path fill="url(#SVGID_10_)" d="M517.992,547.179h14.25v13.5h-14.25V547.179z"/>
	
		<linearGradient id="SVGID_11_" gradientUnits="userSpaceOnUse" x1="232.2227" y1="197.3057" x2="202.1348" y2="197.3057" gradientTransform="matrix(0.75 0 0 -0.75 362.328 710.3683)">
		<stop  offset="0" style="stop-color:#BDBDBD"/>
		<stop  offset="0.15" style="stop-color:#FFFFFF"/>
		<stop  offset="0.25" style="stop-color:#FFFFFF"/>
		<stop  offset="0.52" style="stop-color:#DFDFDF"/>
		<stop  offset="0.69" style="stop-color:#C7C7C7"/>
		<stop  offset="0.8" style="stop-color:#BCBCBC"/>
		<stop  offset="0.92" style="stop-color:#B1B1B1"/>
		<stop  offset="1" style="stop-color:#CBCBCB"/>
	</linearGradient>
	<path fill="url(#SVGID_11_)" d="M515.496,559.39h19.5c0.75,0,1.309,0.57,1.309,1.273l0.191,3.227c0,0.75-0.762,1.34-1.469,1.34
		l-19.531,0.16c-0.75,0-1.566-0.73-1.566-1.434l0.066-3.066c0-0.75,0.508-1.5,1.215-1.5H515.496z"/>
	
		<linearGradient id="SVGID_12_" gradientUnits="userSpaceOnUse" x1="252.2217" y1="139.7285" x2="202.1328" y2="139.7285" gradientTransform="matrix(0.75 0 0 -0.75 321.8837 350.3595)">
		<stop  offset="0" style="stop-color:#292525"/>
		<stop  offset="0.01" style="stop-color:#868584"/>
		<stop  offset="0.02" style="stop-color:#383433"/>
		<stop  offset="0.64" style="stop-color:#373332"/>
		<stop  offset="0.99" style="stop-color:#363130"/>
		<stop  offset="1" style="stop-color:#252221"/>
	</linearGradient>
	<path fill="url(#SVGID_12_)" d="M475.05,199.383h34.5c0.75,0,1.262,0.57,1.262,1.273l0.238,89.476c0,0.75-0.844,1.613-1.551,1.613
		l-34.449-0.113c-0.75,0-1.566-0.457-1.566-1.16l0.066-89.589c0-0.75,0.508-1.5,1.215-1.5H475.05z"/>
	
		<linearGradient id="SVGID_13_" gradientUnits="userSpaceOnUse" x1="230.5918" y1="192.1021" x2="202.1807" y2="192.1021" gradientTransform="matrix(0.75 0 0 -0.75 292.0165 354.0421)">
		<stop  offset="0" style="stop-color:#3D3B3B"/>
		<stop  offset="0.01" style="stop-color:#908F8F"/>
		<stop  offset="0.02" style="stop-color:#514F4F"/>
		<stop  offset="0.64" style="stop-color:#504E4E"/>
		<stop  offset="0.99" style="stop-color:#4E4C4C"/>
		<stop  offset="1" style="stop-color:#383636"/>
	</linearGradient>
	<path fill="url(#SVGID_13_)" d="M445.187,203.066h18.75c0.75,0,1.023,0.57,1.023,1.273l-0.273,11.477
		c0,0.75-0.297,1.051-1.004,1.051l-18.496-0.301c-0.75,0-1.535-0.27-1.535-0.973l0.035-11.027c0-0.75,0.539-1.5,1.242-1.5H445.187z"
		/>
	
		<linearGradient id="SVGID_14_" gradientUnits="userSpaceOnUse" x1="230.5918" y1="192.105" x2="202.1807" y2="192.105" gradientTransform="matrix(0.75 0 0 -0.75 292.0165 377.7482)">
		<stop  offset="0" style="stop-color:#3D3B3B"/>
		<stop  offset="0.01" style="stop-color:#908F8F"/>
		<stop  offset="0.02" style="stop-color:#514F4F"/>
		<stop  offset="0.64" style="stop-color:#504E4E"/>
		<stop  offset="0.99" style="stop-color:#4E4C4C"/>
		<stop  offset="1" style="stop-color:#383636"/>
	</linearGradient>
	<path fill="url(#SVGID_14_)" d="M445.187,226.77h18.75c0.75,0,1.023,0.57,1.023,1.273l-0.273,11.477
		c0,0.75-0.297,1.051-1.004,1.051l-18.496-0.301c-0.75,0-1.535-0.27-1.535-0.973l0.035-11.027c0-0.75,0.539-1.5,1.242-1.5H445.187z"
		/>
	
		<linearGradient id="SVGID_15_" gradientUnits="userSpaceOnUse" x1="230.5918" y1="192.103" x2="202.1807" y2="192.103" gradientTransform="matrix(0.75 0 0 -0.75 292.0165 401.4532)">
		<stop  offset="0" style="stop-color:#3D3B3B"/>
		<stop  offset="0.01" style="stop-color:#908F8F"/>
		<stop  offset="0.02" style="stop-color:#514F4F"/>
		<stop  offset="0.64" style="stop-color:#504E4E"/>
		<stop  offset="0.99" style="stop-color:#4E4C4C"/>
		<stop  offset="1" style="stop-color:#383636"/>
	</linearGradient>
	<path fill="url(#SVGID_15_)" d="M445.187,250.477h18.75c0.75,0,1.023,0.57,1.023,1.273l-0.273,11.477
		c0,0.75-0.297,1.051-1.004,1.051l-18.496-0.301c-0.75,0-1.535-0.27-1.535-0.973l0.035-11.027c0-0.75,0.539-1.5,1.242-1.5H445.187z"
		/>
	
		<linearGradient id="SVGID_16_" gradientUnits="userSpaceOnUse" x1="230.5918" y1="192.1021" x2="202.1807" y2="192.1021" gradientTransform="matrix(0.75 0 0 -0.75 292.0165 425.1583)">
		<stop  offset="0" style="stop-color:#3D3B3B"/>
		<stop  offset="0.01" style="stop-color:#908F8F"/>
		<stop  offset="0.02" style="stop-color:#514F4F"/>
		<stop  offset="0.64" style="stop-color:#504E4E"/>
		<stop  offset="0.99" style="stop-color:#4E4C4C"/>
		<stop  offset="1" style="stop-color:#383636"/>
	</linearGradient>
	<path fill="url(#SVGID_16_)" d="M445.187,274.18h18.75c0.75,0,1.023,0.57,1.023,1.273l-0.273,11.476
		c0,0.75-0.297,1.055-1.004,1.055l-18.496-0.305c-0.75,0-1.535-0.27-1.535-0.973l0.035-11.027c0-0.75,0.539-1.5,1.242-1.5H445.187z"
		/>
	
		<linearGradient id="SVGID_17_" gradientUnits="userSpaceOnUse" x1="230.5918" y1="192.1021" x2="202.1797" y2="192.1021" gradientTransform="matrix(0.75 0 0 -0.75 367.6219 354.0421)">
		<stop  offset="0" style="stop-color:#3D3B3B"/>
		<stop  offset="0.01" style="stop-color:#908F8F"/>
		<stop  offset="0.02" style="stop-color:#514F4F"/>
		<stop  offset="0.64" style="stop-color:#504E4E"/>
		<stop  offset="0.99" style="stop-color:#4E4C4C"/>
		<stop  offset="1" style="stop-color:#383636"/>
	</linearGradient>
	<path fill="url(#SVGID_17_)" d="M520.792,203.066h18.75c0.75,0,1.023,0.57,1.023,1.273l-0.273,11.477
		c0,0.75-0.297,1.051-1.004,1.051l-18.496-0.301c-0.75,0-1.535-0.27-1.535-0.973l0.035-11.027c0-0.75,0.539-1.5,1.242-1.5H520.792z"
		/>
	
		<linearGradient id="SVGID_18_" gradientUnits="userSpaceOnUse" x1="230.5918" y1="192.105" x2="202.1797" y2="192.105" gradientTransform="matrix(0.75 0 0 -0.75 367.6219 377.7482)">
		<stop  offset="0" style="stop-color:#3D3B3B"/>
		<stop  offset="0.01" style="stop-color:#908F8F"/>
		<stop  offset="0.02" style="stop-color:#514F4F"/>
		<stop  offset="0.64" style="stop-color:#504E4E"/>
		<stop  offset="0.99" style="stop-color:#4E4C4C"/>
		<stop  offset="1" style="stop-color:#383636"/>
	</linearGradient>
	<path fill="url(#SVGID_18_)" d="M520.792,226.77h18.75c0.75,0,1.023,0.57,1.023,1.273l-0.273,11.477
		c0,0.75-0.297,1.051-1.004,1.051l-18.496-0.301c-0.75,0-1.535-0.27-1.535-0.973l0.035-11.027c0-0.75,0.539-1.5,1.242-1.5H520.792z"
		/>
	
		<linearGradient id="SVGID_19_" gradientUnits="userSpaceOnUse" x1="230.5918" y1="192.103" x2="202.1797" y2="192.103" gradientTransform="matrix(0.75 0 0 -0.75 367.6219 401.4532)">
		<stop  offset="0" style="stop-color:#3D3B3B"/>
		<stop  offset="0.01" style="stop-color:#908F8F"/>
		<stop  offset="0.02" style="stop-color:#514F4F"/>
		<stop  offset="0.64" style="stop-color:#504E4E"/>
		<stop  offset="0.99" style="stop-color:#4E4C4C"/>
		<stop  offset="1" style="stop-color:#383636"/>
	</linearGradient>
	<path fill="url(#SVGID_19_)" d="M520.792,250.477h18.75c0.75,0,1.023,0.57,1.023,1.273l-0.273,11.477
		c0,0.75-0.297,1.051-1.004,1.051l-18.496-0.301c-0.75,0-1.535-0.27-1.535-0.973l0.035-11.027c0-0.75,0.539-1.5,1.242-1.5H520.792z"
		/>
	
		<linearGradient id="SVGID_20_" gradientUnits="userSpaceOnUse" x1="230.5918" y1="192.1021" x2="202.1797" y2="192.1021" gradientTransform="matrix(0.75 0 0 -0.75 367.6219 425.1583)">
		<stop  offset="0" style="stop-color:#3D3B3B"/>
		<stop  offset="0.01" style="stop-color:#908F8F"/>
		<stop  offset="0.02" style="stop-color:#514F4F"/>
		<stop  offset="0.64" style="stop-color:#504E4E"/>
		<stop  offset="0.99" style="stop-color:#4E4C4C"/>
		<stop  offset="1" style="stop-color:#383636"/>
	</linearGradient>
	<path fill="url(#SVGID_20_)" d="M520.792,274.18h18.75c0.75,0,1.023,0.57,1.023,1.273l-0.273,11.476
		c0,0.75-0.297,1.055-1.004,1.055l-18.496-0.305c-0.75,0-1.535-0.27-1.535-0.973l0.035-11.027c0-0.75,0.539-1.5,1.242-1.5H520.792z"
		/>
	<path fill="#A0D8EF" fill-opacity="0.702" d="M453.339,166.039c0-6,16.938-11.25,37.859-11.25c20.641,0,37.859,4.992,37.859,11.148
		c0.031,6.102-17.004,11.148-37.859,11.148c-20.609,0.203-37.859-4.992-37.859-11.148V166.039z"/>
	
		<linearGradient id="SVGID_21_" gradientUnits="userSpaceOnUse" x1="296.2241" y1="170.2305" x2="202.2241" y2="170.2305" gradientTransform="matrix(0.75 0 0 -0.75 304.37 459.2482)">
		<stop  offset="0" style="stop-color:#B5B5B5"/>
		<stop  offset="0.01" style="stop-color:#FFFFFF"/>
		<stop  offset="0.02" style="stop-color:#EBEBEB"/>
		<stop  offset="0.64" style="stop-color:#E7E7E7"/>
		<stop  offset="0.99" style="stop-color:#E2E2E2"/>
		<stop  offset="1" style="stop-color:#A8A8A8"/>
	</linearGradient>
	<path fill="url(#SVGID_21_)" d="M457.539,308.269h67.5c0.75,0,1.32,0.504,1.32,1.207l0.18,43.793c0,0.75-0.75,1.68-1.457,1.68
		l-67.543-0.18c-0.75,0-1.5-0.422-1.5-1.125v-43.875c0-0.75,0.57-1.566,1.277-1.566L457.539,308.269z"/>
	
		<linearGradient id="SVGID_22_" gradientUnits="userSpaceOnUse" x1="938.2231" y1="194.3052" x2="202.2231" y2="194.3051" gradientTransform="matrix(0.75 0 0 -0.75 -144.047 531.7072)">
		<stop  offset="0" style="stop-color:#B3A593"/>
		<stop  offset="0.01" style="stop-color:#FDEEDA"/>
		<stop  offset="0.02" style="stop-color:#E9D7BF"/>
		<stop  offset="0.64" style="stop-color:#E5D3BC"/>
		<stop  offset="0.99" style="stop-color:#E0CEB8"/>
		<stop  offset="1" style="stop-color:#A69988"/>
	</linearGradient>
	<path fill="url(#SVGID_22_)" d="M559.621,380.73v10.5c0,0-0.922-0.215-1.629-0.215L9.121,391.23c-1.5,0-1.5-0.27-1.5-0.336V380.73
		H559.621z"/>
	
		<linearGradient id="SVGID_23_" gradientUnits="userSpaceOnUse" x1="938.2231" y1="194.3052" x2="202.2231" y2="194.3051" gradientTransform="matrix(0.75 0 0 -0.75 -144.047 634.7902)">
		<stop  offset="0" style="stop-color:#B3A593"/>
		<stop  offset="0.01" style="stop-color:#FDEEDA"/>
		<stop  offset="0.02" style="stop-color:#E9D7BF"/>
		<stop  offset="0.64" style="stop-color:#E5D3BC"/>
		<stop  offset="0.99" style="stop-color:#E0CEB8"/>
		<stop  offset="1" style="stop-color:#A69988"/>
	</linearGradient>
	<path fill="url(#SVGID_23_)" d="M559.621,483.812v10.5c0,0-0.922-0.215-1.629-0.215L9.121,494.312c-1.5,0-1.5-0.27-1.5-0.332
		v-10.168H559.621z"/>
	<path fill="#3E3938" d="M30.449,400.636h60.75c0.75,0,1.68,0.504,1.68,1.207l-0.18,12.293c0,0.75-0.426,1.297-1.133,1.297
		l-61.117,0.203c-0.75,0-1.5-0.773-1.5-1.477v-12.023c0-0.75,0.539-1.566,1.246-1.566L30.449,400.636z"/>
	
		<linearGradient id="SVGID_24_" gradientUnits="userSpaceOnUse" x1="268.2251" y1="191.3066" x2="202.2251" y2="191.3066" gradientTransform="matrix(0.75 0 0 -0.75 -115.5988 551.3849)">
		<stop  offset="0" style="stop-color:#9B9B9C"/>
		<stop  offset="0.01" style="stop-color:#E4E4E4"/>
		<stop  offset="0.02" style="stop-color:#CBCBCB"/>
		<stop  offset="0.64" style="stop-color:#C7C7C8"/>
		<stop  offset="0.99" style="stop-color:#C3C3C4"/>
		<stop  offset="1" style="stop-color:#909091"/>
	</linearGradient>
	<path fill="url(#SVGID_24_)" d="M36.07,400.406h49.5v15h-49.5V400.406z"/>
	<path fill="#3E3938" d="M119.457,400.636h60.75c0.75,0,1.68,0.504,1.68,1.207l-0.18,12.293c0,0.75-0.426,1.297-1.133,1.297
		l-61.117,0.203c-0.75,0-1.5-0.773-1.5-1.477v-12.023c0-0.75,0.539-1.566,1.246-1.566L119.457,400.636z"/>
	
		<linearGradient id="SVGID_25_" gradientUnits="userSpaceOnUse" x1="268.2236" y1="191.3066" x2="202.2236" y2="191.3066" gradientTransform="matrix(0.75 0 0 -0.75 -26.59 551.3849)">
		<stop  offset="0" style="stop-color:#9B9B9C"/>
		<stop  offset="0.01" style="stop-color:#E4E4E4"/>
		<stop  offset="0.02" style="stop-color:#CBCBCB"/>
		<stop  offset="0.64" style="stop-color:#C7C7C8"/>
		<stop  offset="0.99" style="stop-color:#C3C3C4"/>
		<stop  offset="1" style="stop-color:#909091"/>
	</linearGradient>
	<path fill="url(#SVGID_25_)" d="M125.078,400.406h49.5v15h-49.5V400.406z"/>
	<path fill="#3E3938" d="M208.465,400.636h60.75c0.75,0,1.68,0.504,1.68,1.207l-0.18,12.293c0,0.75-0.426,1.297-1.133,1.297
		l-61.117,0.203c-0.75,0-1.5-0.773-1.5-1.477v-12.023c0-0.75,0.539-1.566,1.246-1.566L208.465,400.636z"/>
	
		<linearGradient id="SVGID_26_" gradientUnits="userSpaceOnUse" x1="268.2275" y1="191.3066" x2="202.2275" y2="191.3066" gradientTransform="matrix(0.75 0 0 -0.75 62.4188 551.3849)">
		<stop  offset="0" style="stop-color:#9B9B9C"/>
		<stop  offset="0.01" style="stop-color:#E4E4E4"/>
		<stop  offset="0.02" style="stop-color:#CBCBCB"/>
		<stop  offset="0.64" style="stop-color:#C7C7C8"/>
		<stop  offset="0.99" style="stop-color:#C3C3C4"/>
		<stop  offset="1" style="stop-color:#909091"/>
	</linearGradient>
	<path fill="url(#SVGID_26_)" d="M214.09,400.406h49.5v15h-49.5V400.406z"/>
	<path fill="#3E3938" d="M297.476,400.636h60.75c0.75,0,1.676,0.504,1.676,1.207l-0.176,12.293c0,0.75-0.43,1.297-1.137,1.297
		l-61.113,0.203c-0.75,0-1.5-0.773-1.5-1.477v-12.023c0-0.75,0.539-1.566,1.242-1.566L297.476,400.636z"/>
	
		<linearGradient id="SVGID_27_" gradientUnits="userSpaceOnUse" x1="268.2261" y1="191.3066" x2="202.2261" y2="191.3066" gradientTransform="matrix(0.75 0 0 -0.75 151.4276 551.3849)">
		<stop  offset="0" style="stop-color:#9B9B9C"/>
		<stop  offset="0.01" style="stop-color:#E4E4E4"/>
		<stop  offset="0.02" style="stop-color:#CBCBCB"/>
		<stop  offset="0.64" style="stop-color:#C7C7C8"/>
		<stop  offset="0.99" style="stop-color:#C3C3C4"/>
		<stop  offset="1" style="stop-color:#909091"/>
	</linearGradient>
	<path fill="url(#SVGID_27_)" d="M303.097,400.406h49.5v15h-49.5V400.406z"/>
	<path fill="#3E3938" d="M386.484,400.636h60.75c0.75,0,1.676,0.504,1.676,1.207l-0.176,12.293c0,0.75-0.43,1.297-1.133,1.297
		l-61.117,0.203c-0.75,0-1.5-0.773-1.5-1.477v-12.023c0-0.75,0.539-1.566,1.242-1.566L386.484,400.636z"/>
	
		<linearGradient id="SVGID_28_" gradientUnits="userSpaceOnUse" x1="268.2246" y1="191.3066" x2="202.2246" y2="191.3066" gradientTransform="matrix(0.75 0 0 -0.75 240.4364 551.3849)">
		<stop  offset="0" style="stop-color:#9B9B9C"/>
		<stop  offset="0.01" style="stop-color:#E4E4E4"/>
		<stop  offset="0.02" style="stop-color:#CBCBCB"/>
		<stop  offset="0.64" style="stop-color:#C7C7C8"/>
		<stop  offset="0.99" style="stop-color:#C3C3C4"/>
		<stop  offset="1" style="stop-color:#909091"/>
	</linearGradient>
	<path fill="url(#SVGID_28_)" d="M392.105,400.406h49.5v15h-49.5V400.406z"/>
	<path fill="#3E3938" d="M475.492,400.636h60.75c0.75,0,1.68,0.504,1.68,1.207l-0.18,12.293c0,0.75-0.426,1.297-1.133,1.297
		l-61.117,0.203c-0.75,0-1.5-0.773-1.5-1.477v-12.023c0-0.75,0.539-1.566,1.246-1.566L475.492,400.636z"/>
	
		<linearGradient id="SVGID_29_" gradientUnits="userSpaceOnUse" x1="268.2227" y1="191.3066" x2="202.2227" y2="191.3066" gradientTransform="matrix(0.75 0 0 -0.75 329.4452 551.3849)">
		<stop  offset="0" style="stop-color:#9B9B9C"/>
		<stop  offset="0.01" style="stop-color:#E4E4E4"/>
		<stop  offset="0.02" style="stop-color:#CBCBCB"/>
		<stop  offset="0.64" style="stop-color:#C7C7C8"/>
		<stop  offset="0.99" style="stop-color:#C3C3C4"/>
		<stop  offset="1" style="stop-color:#909091"/>
	</linearGradient>
	<path fill="url(#SVGID_29_)" d="M481.113,400.406h49.5v15h-49.5V400.406z"/>
	<path fill="#3E3938" d="M30.449,429.757h60.75c0.75,0,1.68,0.504,1.68,1.207l-0.18,12.293c0,0.75-0.426,1.297-1.133,1.297
		l-61.117,0.203c-0.75,0-1.5-0.773-1.5-1.477v-12.023c0-0.75,0.539-1.566,1.246-1.566L30.449,429.757z"/>
	
		<linearGradient id="SVGID_30_" gradientUnits="userSpaceOnUse" x1="268.2251" y1="191.3047" x2="202.2251" y2="191.3047" gradientTransform="matrix(0.75 0 0 -0.75 -115.5988 580.505)">
		<stop  offset="0" style="stop-color:#9B9B9C"/>
		<stop  offset="0.01" style="stop-color:#E4E4E4"/>
		<stop  offset="0.02" style="stop-color:#CBCBCB"/>
		<stop  offset="0.64" style="stop-color:#C7C7C8"/>
		<stop  offset="0.99" style="stop-color:#C3C3C4"/>
		<stop  offset="1" style="stop-color:#909091"/>
	</linearGradient>
	<path fill="url(#SVGID_30_)" d="M36.07,429.527h49.5v15h-49.5V429.527z"/>
	<path fill="#3E3938" d="M119.457,429.757h60.75c0.75,0,1.68,0.504,1.68,1.207l-0.18,12.293c0,0.75-0.426,1.297-1.133,1.297
		l-61.117,0.203c-0.75,0-1.5-0.773-1.5-1.477v-12.023c0-0.75,0.539-1.566,1.246-1.566L119.457,429.757z"/>
	
		<linearGradient id="SVGID_31_" gradientUnits="userSpaceOnUse" x1="268.2236" y1="191.3047" x2="202.2236" y2="191.3047" gradientTransform="matrix(0.75 0 0 -0.75 -26.59 580.505)">
		<stop  offset="0" style="stop-color:#9B9B9C"/>
		<stop  offset="0.01" style="stop-color:#E4E4E4"/>
		<stop  offset="0.02" style="stop-color:#CBCBCB"/>
		<stop  offset="0.64" style="stop-color:#C7C7C8"/>
		<stop  offset="0.99" style="stop-color:#C3C3C4"/>
		<stop  offset="1" style="stop-color:#909091"/>
	</linearGradient>
	<path fill="url(#SVGID_31_)" d="M125.078,429.527h49.5v15h-49.5V429.527z"/>
	<path fill="#3E3938" d="M208.465,429.757h60.75c0.75,0,1.68,0.504,1.68,1.207l-0.18,12.293c0,0.75-0.426,1.297-1.133,1.297
		l-61.117,0.203c-0.75,0-1.5-0.773-1.5-1.477v-12.023c0-0.75,0.539-1.566,1.246-1.566L208.465,429.757z"/>
	
		<linearGradient id="SVGID_32_" gradientUnits="userSpaceOnUse" x1="268.2275" y1="191.3047" x2="202.2275" y2="191.3047" gradientTransform="matrix(0.75 0 0 -0.75 62.4188 580.505)">
		<stop  offset="0" style="stop-color:#9B9B9C"/>
		<stop  offset="0.01" style="stop-color:#E4E4E4"/>
		<stop  offset="0.02" style="stop-color:#CBCBCB"/>
		<stop  offset="0.64" style="stop-color:#C7C7C8"/>
		<stop  offset="0.99" style="stop-color:#C3C3C4"/>
		<stop  offset="1" style="stop-color:#909091"/>
	</linearGradient>
	<path fill="url(#SVGID_32_)" d="M214.09,429.527h49.5v15h-49.5V429.527z"/>
	<path fill="#3E3938" d="M297.476,429.757h60.75c0.75,0,1.676,0.504,1.676,1.207l-0.176,12.293c0,0.75-0.43,1.297-1.137,1.297
		l-61.113,0.203c-0.75,0-1.5-0.773-1.5-1.477v-12.023c0-0.75,0.539-1.566,1.242-1.566L297.476,429.757z"/>
	
		<linearGradient id="SVGID_33_" gradientUnits="userSpaceOnUse" x1="268.2261" y1="191.3047" x2="202.2261" y2="191.3047" gradientTransform="matrix(0.75 0 0 -0.75 151.4276 580.505)">
		<stop  offset="0" style="stop-color:#9B9B9C"/>
		<stop  offset="0.01" style="stop-color:#E4E4E4"/>
		<stop  offset="0.02" style="stop-color:#CBCBCB"/>
		<stop  offset="0.64" style="stop-color:#C7C7C8"/>
		<stop  offset="0.99" style="stop-color:#C3C3C4"/>
		<stop  offset="1" style="stop-color:#909091"/>
	</linearGradient>
	<path fill="url(#SVGID_33_)" d="M303.097,429.527h49.5v15h-49.5V429.527z"/>
	<path fill="#3E3938" d="M386.484,429.757h60.75c0.75,0,1.676,0.504,1.676,1.207l-0.176,12.293c0,0.75-0.43,1.297-1.133,1.297
		l-61.117,0.203c-0.75,0-1.5-0.773-1.5-1.477v-12.023c0-0.75,0.539-1.566,1.242-1.566L386.484,429.757z"/>
	
		<linearGradient id="SVGID_34_" gradientUnits="userSpaceOnUse" x1="268.2246" y1="191.3047" x2="202.2246" y2="191.3047" gradientTransform="matrix(0.75 0 0 -0.75 240.4364 580.505)">
		<stop  offset="0" style="stop-color:#9B9B9C"/>
		<stop  offset="0.01" style="stop-color:#E4E4E4"/>
		<stop  offset="0.02" style="stop-color:#CBCBCB"/>
		<stop  offset="0.64" style="stop-color:#C7C7C8"/>
		<stop  offset="0.99" style="stop-color:#C3C3C4"/>
		<stop  offset="1" style="stop-color:#909091"/>
	</linearGradient>
	<path fill="url(#SVGID_34_)" d="M392.105,429.527h49.5v15h-49.5V429.527z"/>
	<path fill="#3E3938" d="M475.492,429.757h60.75c0.75,0,1.68,0.504,1.68,1.207l-0.18,12.293c0,0.75-0.426,1.297-1.133,1.297
		l-61.117,0.203c-0.75,0-1.5-0.773-1.5-1.477v-12.023c0-0.75,0.539-1.566,1.246-1.566L475.492,429.757z"/>
	
		<linearGradient id="SVGID_35_" gradientUnits="userSpaceOnUse" x1="268.2227" y1="191.3047" x2="202.2227" y2="191.3047" gradientTransform="matrix(0.75 0 0 -0.75 329.4452 580.505)">
		<stop  offset="0" style="stop-color:#9B9B9C"/>
		<stop  offset="0.01" style="stop-color:#E4E4E4"/>
		<stop  offset="0.02" style="stop-color:#CBCBCB"/>
		<stop  offset="0.64" style="stop-color:#C7C7C8"/>
		<stop  offset="0.99" style="stop-color:#C3C3C4"/>
		<stop  offset="1" style="stop-color:#909091"/>
	</linearGradient>
	<path fill="url(#SVGID_35_)" d="M481.113,429.527h49.5v15h-49.5V429.527z"/>
	<path fill="#3E3938" d="M30.449,458.875h60.75c0.75,0,1.68,0.504,1.68,1.207l-0.18,12.293c0,0.75-0.426,1.297-1.133,1.297
		l-61.117,0.203c-0.75,0-1.5-0.773-1.5-1.477v-12.023c0-0.75,0.539-1.566,1.246-1.566L30.449,458.875z"/>
	
		<linearGradient id="SVGID_36_" gradientUnits="userSpaceOnUse" x1="268.2251" y1="191.3047" x2="202.2251" y2="191.3047" gradientTransform="matrix(0.75 0 0 -0.75 -115.5988 609.6251)">
		<stop  offset="0" style="stop-color:#9B9B9C"/>
		<stop  offset="0.01" style="stop-color:#E4E4E4"/>
		<stop  offset="0.02" style="stop-color:#CBCBCB"/>
		<stop  offset="0.64" style="stop-color:#C7C7C8"/>
		<stop  offset="0.99" style="stop-color:#C3C3C4"/>
		<stop  offset="1" style="stop-color:#909091"/>
	</linearGradient>
	<path fill="url(#SVGID_36_)" d="M36.07,458.648h49.5v15h-49.5V458.648z"/>
	<path fill="#3E3938" d="M119.457,458.875h60.75c0.75,0,1.68,0.504,1.68,1.207l-0.18,12.293c0,0.75-0.426,1.297-1.133,1.297
		l-61.117,0.203c-0.75,0-1.5-0.773-1.5-1.477v-12.023c0-0.75,0.539-1.566,1.246-1.566L119.457,458.875z"/>
	
		<linearGradient id="SVGID_37_" gradientUnits="userSpaceOnUse" x1="268.2236" y1="191.3047" x2="202.2236" y2="191.3047" gradientTransform="matrix(0.75 0 0 -0.75 -26.59 609.6251)">
		<stop  offset="0" style="stop-color:#9B9B9C"/>
		<stop  offset="0.01" style="stop-color:#E4E4E4"/>
		<stop  offset="0.02" style="stop-color:#CBCBCB"/>
		<stop  offset="0.64" style="stop-color:#C7C7C8"/>
		<stop  offset="0.99" style="stop-color:#C3C3C4"/>
		<stop  offset="1" style="stop-color:#909091"/>
	</linearGradient>
	<path fill="url(#SVGID_37_)" d="M125.078,458.648h49.5v15h-49.5V458.648z"/>
	<path fill="#3E3938" d="M208.465,458.875h60.75c0.75,0,1.68,0.504,1.68,1.207l-0.18,12.293c0,0.75-0.426,1.297-1.133,1.297
		l-61.117,0.203c-0.75,0-1.5-0.773-1.5-1.477v-12.023c0-0.75,0.539-1.566,1.246-1.566L208.465,458.875z"/>
	
		<linearGradient id="SVGID_38_" gradientUnits="userSpaceOnUse" x1="268.2275" y1="191.3047" x2="202.2275" y2="191.3047" gradientTransform="matrix(0.75 0 0 -0.75 62.4188 609.6251)">
		<stop  offset="0" style="stop-color:#9B9B9C"/>
		<stop  offset="0.01" style="stop-color:#E4E4E4"/>
		<stop  offset="0.02" style="stop-color:#CBCBCB"/>
		<stop  offset="0.64" style="stop-color:#C7C7C8"/>
		<stop  offset="0.99" style="stop-color:#C3C3C4"/>
		<stop  offset="1" style="stop-color:#909091"/>
	</linearGradient>
	<path fill="url(#SVGID_38_)" d="M214.09,458.648h49.5v15h-49.5V458.648z"/>
	<path fill="#3E3938" d="M297.476,458.875h60.75c0.75,0,1.676,0.504,1.676,1.207l-0.176,12.293c0,0.75-0.43,1.297-1.137,1.297
		l-61.113,0.203c-0.75,0-1.5-0.773-1.5-1.477v-12.023c0-0.75,0.539-1.566,1.242-1.566L297.476,458.875z"/>
	
		<linearGradient id="SVGID_39_" gradientUnits="userSpaceOnUse" x1="268.2261" y1="191.3047" x2="202.2261" y2="191.3047" gradientTransform="matrix(0.75 0 0 -0.75 151.4276 609.6251)">
		<stop  offset="0" style="stop-color:#9B9B9C"/>
		<stop  offset="0.01" style="stop-color:#E4E4E4"/>
		<stop  offset="0.02" style="stop-color:#CBCBCB"/>
		<stop  offset="0.64" style="stop-color:#C7C7C8"/>
		<stop  offset="0.99" style="stop-color:#C3C3C4"/>
		<stop  offset="1" style="stop-color:#909091"/>
	</linearGradient>
	<path fill="url(#SVGID_39_)" d="M303.097,458.648h49.5v15h-49.5V458.648z"/>
	<path fill="#3E3938" d="M386.484,458.875h60.75c0.75,0,1.676,0.504,1.676,1.207l-0.176,12.293c0,0.75-0.43,1.297-1.133,1.297
		l-61.117,0.203c-0.75,0-1.5-0.773-1.5-1.477v-12.023c0-0.75,0.539-1.566,1.242-1.566L386.484,458.875z"/>
	
		<linearGradient id="SVGID_40_" gradientUnits="userSpaceOnUse" x1="268.2246" y1="191.3047" x2="202.2246" y2="191.3047" gradientTransform="matrix(0.75 0 0 -0.75 240.4364 609.6251)">
		<stop  offset="0" style="stop-color:#9B9B9C"/>
		<stop  offset="0.01" style="stop-color:#E4E4E4"/>
		<stop  offset="0.02" style="stop-color:#CBCBCB"/>
		<stop  offset="0.64" style="stop-color:#C7C7C8"/>
		<stop  offset="0.99" style="stop-color:#C3C3C4"/>
		<stop  offset="1" style="stop-color:#909091"/>
	</linearGradient>
	<path fill="url(#SVGID_40_)" d="M392.105,458.648h49.5v15h-49.5V458.648z"/>
	<path fill="#3E3938" d="M475.492,458.875h60.75c0.75,0,1.68,0.504,1.68,1.207l-0.18,12.293c0,0.75-0.426,1.297-1.133,1.297
		l-61.117,0.203c-0.75,0-1.5-0.773-1.5-1.477v-12.023c0-0.75,0.539-1.566,1.246-1.566L475.492,458.875z"/>
	
		<linearGradient id="SVGID_41_" gradientUnits="userSpaceOnUse" x1="268.2227" y1="191.3047" x2="202.2227" y2="191.3047" gradientTransform="matrix(0.75 0 0 -0.75 329.4452 609.6251)">
		<stop  offset="0" style="stop-color:#9B9B9C"/>
		<stop  offset="0.01" style="stop-color:#E4E4E4"/>
		<stop  offset="0.02" style="stop-color:#CBCBCB"/>
		<stop  offset="0.64" style="stop-color:#C7C7C8"/>
		<stop  offset="0.99" style="stop-color:#C3C3C4"/>
		<stop  offset="1" style="stop-color:#909091"/>
	</linearGradient>
	<path fill="url(#SVGID_41_)" d="M481.113,458.648h49.5v15h-49.5V458.648z"/>
	
		<linearGradient id="SVGID_42_" gradientUnits="userSpaceOnUse" x1="224.1548" y1="201.3027" x2="224.1548" y2="157.4219" gradientTransform="matrix(0.75 0 0 -0.75 -88.2921 334.4337)">
		<stop  offset="0" style="stop-color:#A3A3A4"/>
		<stop  offset="0.15" style="stop-color:#DEDEDF"/>
		<stop  offset="0.25" style="stop-color:#EDEDED"/>
		<stop  offset="0.52" style="stop-color:#C0C0C1"/>
		<stop  offset="0.69" style="stop-color:#ABABAC"/>
		<stop  offset="0.8" style="stop-color:#A1A1A2"/>
		<stop  offset="0.92" style="stop-color:#989899"/>
		<stop  offset="1" style="stop-color:#AFAFB0"/>
	</linearGradient>
	<path fill="url(#SVGID_42_)" d="M63.375,199.957c0-9,7.328-16.5,16.449-16.5c9.051,0,16.516,7.367,16.516,16.473
		c0.035,9.027-7.395,16.438-16.516,16.438c-8.949,0.09-16.516-7.367-16.516-16.438L63.375,199.957z"/>
	<path fill="#2B2827" d="M67.133,200.047c0-7.5,5.684-12.813,12.695-12.813c6.805,0.063,12.695,5.664,12.695,12.648
		c0.109,6.914-5.684,12.648-12.695,12.648c-6.695,0.266-12.695-5.66-12.695-12.648V200.047z"/>
	
		<linearGradient id="SVGID_43_" gradientUnits="userSpaceOnUse" x1="224.1558" y1="201.3027" x2="224.1558" y2="157.4219" gradientTransform="matrix(0.75 0 0 -0.75 185.0624 334.4337)">
		<stop  offset="0" style="stop-color:#A3A3A4"/>
		<stop  offset="0.15" style="stop-color:#DEDEDF"/>
		<stop  offset="0.25" style="stop-color:#EDEDED"/>
		<stop  offset="0.52" style="stop-color:#C0C0C1"/>
		<stop  offset="0.69" style="stop-color:#ABABAC"/>
		<stop  offset="0.8" style="stop-color:#A1A1A2"/>
		<stop  offset="0.92" style="stop-color:#989899"/>
		<stop  offset="1" style="stop-color:#AFAFB0"/>
	</linearGradient>
	<path fill="url(#SVGID_43_)" d="M336.73,199.957c0-9,7.328-16.5,16.449-16.5c9.051,0,16.516,7.367,16.516,16.473
		c0.035,9.027-7.395,16.438-16.516,16.438c-8.949,0.09-16.516-7.367-16.516-16.438L336.73,199.957z"/>
	<path fill="#2B2827" d="M340.488,200.047c0-7.5,5.684-12.813,12.695-12.813c6.805,0.063,12.695,5.664,12.695,12.648
		c0.109,6.914-5.684,12.648-12.695,12.648c-6.695,0.266-12.695-5.66-12.695-12.648V200.047z"/>
	
		<linearGradient id="SVGID_44_" gradientUnits="userSpaceOnUse" x1="396.6099" y1="201.3164" x2="396.6099" y2="174.2808" gradientTransform="matrix(0.75 0 0 -0.75 -80.9005 340.8048)">
		<stop  offset="0" style="stop-color:#BDBDBD"/>
		<stop  offset="0.15" style="stop-color:#FFFFFF"/>
		<stop  offset="0.25" style="stop-color:#FFFFFF"/>
		<stop  offset="0.52" style="stop-color:#DFDFDF"/>
		<stop  offset="0.69" style="stop-color:#C7C7C7"/>
		<stop  offset="0.8" style="stop-color:#BCBCBC"/>
		<stop  offset="0.92" style="stop-color:#B1B1B1"/>
		<stop  offset="1" style="stop-color:#CBCBCB"/>
	</linearGradient>
	<path fill="url(#SVGID_44_)" d="M81.27,189.828h270c0,0,11.074-0.484,11.074,10.102c0.176,10.898-11.188,10.07-11.188,10.07
		L81.27,210.078c0,0-10.5,0.859-10.5-10.148c0-10.852,10.762-10.102,10.762-10.102H81.27z"/>
	
		<linearGradient id="SVGID_45_" gradientUnits="userSpaceOnUse" x1="215.2275" y1="32.3062" x2="202.2275" y2="32.3062" gradientTransform="matrix(0.75 0 0 -0.75 -144.0968 277.6349)">
		<stop  offset="0" style="stop-color:#9B9B9C"/>
		<stop  offset="0.01" style="stop-color:#E4E4E4"/>
		<stop  offset="0.02" style="stop-color:#CBCBCB"/>
		<stop  offset="0.64" style="stop-color:#C7C7C8"/>
		<stop  offset="0.99" style="stop-color:#C3C3C4"/>
		<stop  offset="1" style="stop-color:#909091"/>
	</linearGradient>
	<path fill="url(#SVGID_45_)" d="M17.324,126.656h-9.75v253.5h9.75V126.656z"/>
	<path fill="#FFFFFF" fill-opacity="0.702" d="M114.988,259.816c0-7.5,45.434-14.25,101.566-14.25
		c55.934,0,101.566,6.543,101.566,14.613c0.117,7.887-45.609,14.613-101.566,14.613c-55.816,0.023-101.566-6.543-101.566-14.613
		V259.816z"/>
</g>
</svg>
