<?xml version="1.0" encoding="utf-8"?>
<!-- Generator: Adobe Illustrator 16.0.0, SVG Export Plug-In . SVG Version: 6.00 Build 0)  -->
<!DOCTYPE svg PUBLIC "-//W3C//DTD SVG 1.1//EN" "http://www.w3.org/Graphics/SVG/1.1/DTD/svg11.dtd">
<svg preserveAspectRatio="none" version="1.1" id="图层_1" xmlns="http://www.w3.org/2000/svg" xmlns:xlink="http://www.w3.org/1999/xlink" x="0px" y="0px"
	 width="566.25px" height="166.762px" viewBox="0.293 398.25 566.25 166.762" enable-background="new 0.293 398.25 566.25 166.762"
	 xml:space="preserve">
<g id="surface781">
	
		<linearGradient id="SVGID_1_" gradientUnits="userSpaceOnUse" x1="844.2271" y1="160.3091" x2="202.2275" y2="160.309" gradientTransform="matrix(0.75 0 0 -0.75 -147.2921 644.2101)">
		<stop  offset="0" style="stop-color:#638C6B"/>
		<stop  offset="0.01" style="stop-color:#ADD4B4"/>
		<stop  offset="0.02" style="stop-color:#82B78D"/>
		<stop  offset="0.64" style="stop-color:#80B48A"/>
		<stop  offset="0.99" style="stop-color:#7DB087"/>
		<stop  offset="1" style="stop-color:#5B8263"/>
	</linearGradient>
	<path fill="url(#SVGID_1_)" d="M4.379,493.23h481.5v61.5H4.379V493.23z"/>
	
		<linearGradient id="SVGID_2_" gradientUnits="userSpaceOnUse" x1="304.2222" y1="107.8066" x2="202.2222" y2="107.8066" gradientTransform="matrix(0.75 0 0 -0.75 334.5077 565.5685)">
		<stop  offset="0" style="stop-color:#638C6B"/>
		<stop  offset="0.01" style="stop-color:#ADD4B4"/>
		<stop  offset="0.02" style="stop-color:#82B78D"/>
		<stop  offset="0.64" style="stop-color:#80B48A"/>
		<stop  offset="0.99" style="stop-color:#7DB087"/>
		<stop  offset="1" style="stop-color:#5B8263"/>
	</linearGradient>
	<path fill="url(#SVGID_2_)" d="M486.175,554.839h76.5v-140.25h-76.5V554.839z"/>
	
		<linearGradient id="SVGID_3_" gradientUnits="userSpaceOnUse" x1="638.2271" y1="192.3071" x2="202.2275" y2="192.3071" gradientTransform="matrix(0.75 0 0 -0.75 7.8641 576.8029)">
		<stop  offset="0" style="stop-color:#638C6B"/>
		<stop  offset="0.01" style="stop-color:#ADD4B4"/>
		<stop  offset="0.02" style="stop-color:#82B78D"/>
		<stop  offset="0.64" style="stop-color:#80B48A"/>
		<stop  offset="0.99" style="stop-color:#7DB087"/>
		<stop  offset="1" style="stop-color:#5B8263"/>
	</linearGradient>
	<path fill="url(#SVGID_3_)" d="M486.535,425.824h-327v13.5h327V425.824z"/>
	
		<linearGradient id="SVGID_4_" gradientUnits="userSpaceOnUse" x1="254.228" y1="160.3086" x2="202.228" y2="160.3086" gradientTransform="matrix(0.75 0 0 -0.75 -147.2921 644.2101)">
		<stop  offset="0" style="stop-color:#4A7653"/>
		<stop  offset="0.01" style="stop-color:#99BEA0"/>
		<stop  offset="0.02" style="stop-color:#639B6E"/>
		<stop  offset="0.64" style="stop-color:#61996C"/>
		<stop  offset="0.99" style="stop-color:#5F956A"/>
		<stop  offset="1" style="stop-color:#446E4D"/>
	</linearGradient>
	<path fill="url(#SVGID_4_)" d="M4.379,493.23h39v61.5h-39V493.23z"/>
	
		<linearGradient id="SVGID_5_" gradientUnits="userSpaceOnUse" x1="252.2261" y1="165.3066" x2="202.2261" y2="165.3066" gradientTransform="matrix(0.75 0 0 -0.75 67.0687 590.0802)">
		<stop  offset="0" style="stop-color:#638C6B"/>
		<stop  offset="0.01" style="stop-color:#ADD4B4"/>
		<stop  offset="0.02" style="stop-color:#82B78D"/>
		<stop  offset="0.64" style="stop-color:#80B48A"/>
		<stop  offset="0.99" style="stop-color:#7DB087"/>
		<stop  offset="1" style="stop-color:#5B8263"/>
	</linearGradient>
	<path fill="url(#SVGID_5_)" d="M218.738,439.101h37.5v54h-37.5V439.101z"/>
	
		<linearGradient id="SVGID_6_" gradientUnits="userSpaceOnUse" x1="227.2256" y1="165.3066" x2="202.2256" y2="165.3066" gradientTransform="matrix(0.75 0 0 -0.75 11.2328 590.0802)">
		<stop  offset="0" style="stop-color:#638C6B"/>
		<stop  offset="0.01" style="stop-color:#ADD4B4"/>
		<stop  offset="0.02" style="stop-color:#82B78D"/>
		<stop  offset="0.64" style="stop-color:#80B48A"/>
		<stop  offset="0.99" style="stop-color:#7DB087"/>
		<stop  offset="1" style="stop-color:#5B8263"/>
	</linearGradient>
	<path fill="url(#SVGID_6_)" d="M162.902,439.101h18.75v54h-18.75V439.101z"/>
	
		<linearGradient id="SVGID_7_" gradientUnits="userSpaceOnUse" x1="259.2227" y1="165.3066" x2="202.2227" y2="165.3066" gradientTransform="matrix(0.75 0 0 -0.75 285.5116 590.0802)">
		<stop  offset="0" style="stop-color:#638C6B"/>
		<stop  offset="0.01" style="stop-color:#ADD4B4"/>
		<stop  offset="0.02" style="stop-color:#82B78D"/>
		<stop  offset="0.64" style="stop-color:#80B48A"/>
		<stop  offset="0.99" style="stop-color:#7DB087"/>
		<stop  offset="1" style="stop-color:#5B8263"/>
	</linearGradient>
	<path fill="url(#SVGID_7_)" d="M437.179,439.101h42.75v54h-42.75V439.101z"/>
	
		<linearGradient id="SVGID_8_" gradientUnits="userSpaceOnUse" x1="304.2222" y1="181.3066" x2="202.2222" y2="181.3066" gradientTransform="matrix(0.75 0 0 -0.75 334.5077 565.5685)">
		<stop  offset="0" style="stop-color:#4A7653"/>
		<stop  offset="0.01" style="stop-color:#99BEA0"/>
		<stop  offset="0.02" style="stop-color:#639B6E"/>
		<stop  offset="0.64" style="stop-color:#61996C"/>
		<stop  offset="0.99" style="stop-color:#5F956A"/>
		<stop  offset="1" style="stop-color:#446E4D"/>
	</linearGradient>
	<path fill="url(#SVGID_8_)" d="M486.175,444.589h76.5v-30h-76.5V444.589z"/>
	
		<linearGradient id="SVGID_9_" gradientUnits="userSpaceOnUse" x1="254.228" y1="160.3086" x2="202.228" y2="160.3086" gradientTransform="matrix(0.75 0 0 -0.75 -27.7609 644.2101)">
		<stop  offset="0" style="stop-color:#4A7653"/>
		<stop  offset="0.01" style="stop-color:#99BEA0"/>
		<stop  offset="0.02" style="stop-color:#639B6E"/>
		<stop  offset="0.64" style="stop-color:#61996C"/>
		<stop  offset="0.99" style="stop-color:#5F956A"/>
		<stop  offset="1" style="stop-color:#446E4D"/>
	</linearGradient>
	<path fill="url(#SVGID_9_)" d="M123.91,493.23h39v61.5h-39V493.23z"/>
	
		<linearGradient id="SVGID_10_" gradientUnits="userSpaceOnUse" x1="493.2271" y1="183.8062" x2="202.2275" y2="183.8061" gradientTransform="matrix(0.75 0 0 -0.75 74.1102 679.548)">
		<stop  offset="0" style="stop-color:#4A7653"/>
		<stop  offset="0.01" style="stop-color:#99BEA0"/>
		<stop  offset="0.02" style="stop-color:#639B6E"/>
		<stop  offset="0.64" style="stop-color:#61996C"/>
		<stop  offset="0.99" style="stop-color:#5F956A"/>
		<stop  offset="1" style="stop-color:#446E4D"/>
	</linearGradient>
	<path fill="url(#SVGID_10_)" d="M225.781,528.57h218.25v26.25h-218.25V528.57z"/>
	
		<linearGradient id="SVGID_11_" gradientUnits="userSpaceOnUse" x1="216.2227" y1="183.8037" x2="202.2227" y2="183.8037" gradientTransform="matrix(0.75 0 0 -0.75 275.3046 600.2931)">
		<stop  offset="0" style="stop-color:#638C6B"/>
		<stop  offset="0.01" style="stop-color:#ADD4B4"/>
		<stop  offset="0.02" style="stop-color:#82B78D"/>
		<stop  offset="0.64" style="stop-color:#80B48A"/>
		<stop  offset="0.99" style="stop-color:#7DB087"/>
		<stop  offset="1" style="stop-color:#5B8263"/>
	</linearGradient>
	<path fill="url(#SVGID_11_)" d="M426.972,449.316h10.5v26.25h-10.5V449.316z"/>
	
		<linearGradient id="SVGID_12_" gradientUnits="userSpaceOnUse" x1="271.2246" y1="190.3047" x2="202.2246" y2="190.3047" gradientTransform="matrix(0.75 0 0 -0.75 359.0067 549.2277)">
		<stop  offset="0" style="stop-color:#638C6B"/>
		<stop  offset="0.01" style="stop-color:#ADD4B4"/>
		<stop  offset="0.02" style="stop-color:#82B78D"/>
		<stop  offset="0.64" style="stop-color:#80B48A"/>
		<stop  offset="0.99" style="stop-color:#7DB087"/>
		<stop  offset="1" style="stop-color:#5B8263"/>
	</linearGradient>
	<path fill="url(#SVGID_12_)" d="M510.675,414.75h51.75v-16.5h-51.75V414.75z"/>
	
		<linearGradient id="SVGID_13_" gradientUnits="userSpaceOnUse" x1="236.252" y1="201.3086" x2="236.252" y2="196.3086" gradientTransform="matrix(0.75 0 0 -0.75 347.2675 610.507)">
		<stop  offset="0" style="stop-color:#5D8565"/>
		<stop  offset="0.15" style="stop-color:#8CBA95"/>
		<stop  offset="0.25" style="stop-color:#C7DACA"/>
		<stop  offset="0.52" style="stop-color:#6F9D78"/>
		<stop  offset="0.69" style="stop-color:#628B6A"/>
		<stop  offset="0.8" style="stop-color:#5C8364"/>
		<stop  offset="0.92" style="stop-color:#577C5E"/>
		<stop  offset="1" style="stop-color:#658F6D"/>
	</linearGradient>
	<path fill="url(#SVGID_13_)" d="M499.687,459.527h49.5c0.75,0,0.789,0.289,0.789,0.641l-0.039,2.359c0,0.75-0.371,0.73-0.82,0.73
		l-49.43,0.02c-0.75,0-0.75-0.305-0.75-0.66v-2.34c0-0.75,0.32-0.75,0.773-0.75H499.687z"/>
	
		<linearGradient id="SVGID_14_" gradientUnits="userSpaceOnUse" x1="236.2529" y1="201.3066" x2="236.2529" y2="196.3066" gradientTransform="matrix(0.75 0 0 -0.75 347.2675 621.9552)">
		<stop  offset="0" style="stop-color:#5D8565"/>
		<stop  offset="0.15" style="stop-color:#8CBA95"/>
		<stop  offset="0.25" style="stop-color:#C7DACA"/>
		<stop  offset="0.52" style="stop-color:#6F9D78"/>
		<stop  offset="0.69" style="stop-color:#628B6A"/>
		<stop  offset="0.8" style="stop-color:#5C8364"/>
		<stop  offset="0.92" style="stop-color:#577C5E"/>
		<stop  offset="1" style="stop-color:#658F6D"/>
	</linearGradient>
	<path fill="url(#SVGID_14_)" d="M499.687,470.976h49.5c0.75,0,0.789,0.285,0.789,0.641l-0.039,2.359c0,0.75-0.371,0.73-0.82,0.73
		l-49.43,0.02c-0.75,0-0.75-0.309-0.75-0.66v-2.34c0-0.75,0.32-0.75,0.773-0.75H499.687z"/>
	
		<linearGradient id="SVGID_15_" gradientUnits="userSpaceOnUse" x1="236.2529" y1="201.3037" x2="236.2529" y2="196.3037" gradientTransform="matrix(0.75 0 0 -0.75 347.2675 633.6564)">
		<stop  offset="0" style="stop-color:#5D8565"/>
		<stop  offset="0.15" style="stop-color:#8CBA95"/>
		<stop  offset="0.25" style="stop-color:#C7DACA"/>
		<stop  offset="0.52" style="stop-color:#6F9D78"/>
		<stop  offset="0.69" style="stop-color:#628B6A"/>
		<stop  offset="0.8" style="stop-color:#5C8364"/>
		<stop  offset="0.92" style="stop-color:#577C5E"/>
		<stop  offset="1" style="stop-color:#658F6D"/>
	</linearGradient>
	<path fill="url(#SVGID_15_)" d="M499.687,482.679h49.5c0.75,0,0.789,0.285,0.789,0.637l-0.039,2.363c0,0.75-0.371,0.727-0.82,0.727
		l-49.43,0.023c-0.75,0-0.75-0.309-0.75-0.66v-2.34c0-0.75,0.32-0.75,0.773-0.75H499.687z"/>
	
		<linearGradient id="SVGID_16_" gradientUnits="userSpaceOnUse" x1="236.2529" y1="201.3086" x2="236.2529" y2="196.3086" gradientTransform="matrix(0.75 0 0 -0.75 347.2675 644.2101)">
		<stop  offset="0" style="stop-color:#5D8565"/>
		<stop  offset="0.15" style="stop-color:#8CBA95"/>
		<stop  offset="0.25" style="stop-color:#C7DACA"/>
		<stop  offset="0.52" style="stop-color:#6F9D78"/>
		<stop  offset="0.69" style="stop-color:#628B6A"/>
		<stop  offset="0.8" style="stop-color:#5C8364"/>
		<stop  offset="0.92" style="stop-color:#577C5E"/>
		<stop  offset="1" style="stop-color:#658F6D"/>
	</linearGradient>
	<path fill="url(#SVGID_16_)" d="M499.687,493.23h49.5c0.75,0,0.789,0.289,0.789,0.641l-0.039,2.359c0,0.75-0.371,0.73-0.82,0.73
		l-49.43,0.02c-0.75,0-0.75-0.305-0.75-0.66v-2.34c0-0.75,0.32-0.75,0.773-0.75H499.687z"/>
	
		<linearGradient id="SVGID_17_" gradientUnits="userSpaceOnUse" x1="236.2529" y1="201.3076" x2="236.2529" y2="196.3076" gradientTransform="matrix(0.75 0 0 -0.75 347.2675 655.4445)">
		<stop  offset="0" style="stop-color:#5D8565"/>
		<stop  offset="0.15" style="stop-color:#8CBA95"/>
		<stop  offset="0.25" style="stop-color:#C7DACA"/>
		<stop  offset="0.52" style="stop-color:#6F9D78"/>
		<stop  offset="0.69" style="stop-color:#628B6A"/>
		<stop  offset="0.8" style="stop-color:#5C8364"/>
		<stop  offset="0.92" style="stop-color:#577C5E"/>
		<stop  offset="1" style="stop-color:#658F6D"/>
	</linearGradient>
	<path fill="url(#SVGID_17_)" d="M499.687,504.464h49.5c0.75,0,0.789,0.289,0.789,0.641l-0.039,2.359c0,0.75-0.371,0.73-0.82,0.73
		l-49.43,0.02c-0.75,0-0.75-0.305-0.75-0.66v-2.34c0-0.75,0.32-0.75,0.773-0.75H499.687z"/>
	
		<linearGradient id="SVGID_18_" gradientUnits="userSpaceOnUse" x1="236.2529" y1="201.3057" x2="236.2529" y2="196.3057" gradientTransform="matrix(0.75 0 0 -0.75 347.2675 668.381)">
		<stop  offset="0" style="stop-color:#5D8565"/>
		<stop  offset="0.15" style="stop-color:#8CBA95"/>
		<stop  offset="0.25" style="stop-color:#C7DACA"/>
		<stop  offset="0.52" style="stop-color:#6F9D78"/>
		<stop  offset="0.69" style="stop-color:#628B6A"/>
		<stop  offset="0.8" style="stop-color:#5C8364"/>
		<stop  offset="0.92" style="stop-color:#577C5E"/>
		<stop  offset="1" style="stop-color:#658F6D"/>
	</linearGradient>
	<path fill="url(#SVGID_18_)" d="M499.687,517.402h49.5c0.75,0,0.789,0.285,0.789,0.641l-0.039,2.359c0,0.75-0.371,0.73-0.82,0.73
		l-49.43,0.02c-0.75,0-0.75-0.309-0.75-0.66v-2.34c0-0.75,0.32-0.75,0.773-0.75H499.687z"/>
	
		<linearGradient id="SVGID_19_" gradientUnits="userSpaceOnUse" x1="236.2529" y1="201.3057" x2="236.2529" y2="196.3057" gradientTransform="matrix(0.75 0 0 -0.75 347.2675 679.1974)">
		<stop  offset="0" style="stop-color:#5D8565"/>
		<stop  offset="0.15" style="stop-color:#8CBA95"/>
		<stop  offset="0.25" style="stop-color:#C7DACA"/>
		<stop  offset="0.52" style="stop-color:#6F9D78"/>
		<stop  offset="0.69" style="stop-color:#628B6A"/>
		<stop  offset="0.8" style="stop-color:#5C8364"/>
		<stop  offset="0.92" style="stop-color:#577C5E"/>
		<stop  offset="1" style="stop-color:#658F6D"/>
	</linearGradient>
	<path fill="url(#SVGID_19_)" d="M499.687,528.218h49.5c0.75,0,0.789,0.285,0.789,0.641l-0.039,2.359c0,0.75-0.371,0.73-0.82,0.73
		l-49.43,0.02c-0.75,0-0.75-0.309-0.75-0.66v-2.34c0-0.75,0.32-0.75,0.773-0.75H499.687z"/>
	
		<linearGradient id="SVGID_20_" gradientUnits="userSpaceOnUse" x1="236.2529" y1="201.3057" x2="236.2529" y2="196.3057" gradientTransform="matrix(0.75 0 0 -0.75 347.2675 690.6456)">
		<stop  offset="0" style="stop-color:#5D8565"/>
		<stop  offset="0.15" style="stop-color:#8CBA95"/>
		<stop  offset="0.25" style="stop-color:#C7DACA"/>
		<stop  offset="0.52" style="stop-color:#6F9D78"/>
		<stop  offset="0.69" style="stop-color:#628B6A"/>
		<stop  offset="0.8" style="stop-color:#5C8364"/>
		<stop  offset="0.92" style="stop-color:#577C5E"/>
		<stop  offset="1" style="stop-color:#658F6D"/>
	</linearGradient>
	<path fill="url(#SVGID_20_)" d="M499.687,539.667h49.5c0.75,0,0.789,0.285,0.789,0.641l-0.039,2.359c0,0.75-0.371,0.727-0.82,0.727
		l-49.43,0.023c-0.75,0-0.75-0.309-0.75-0.66v-2.34c0-0.75,0.32-0.75,0.773-0.75H499.687z"/>
	
		<linearGradient id="SVGID_21_" gradientUnits="userSpaceOnUse" x1="229.0322" y1="190.5894" x2="202.2256" y2="190.5894" gradientTransform="matrix(0.75 0 0 -0.75 296.8964 609.0626)">
		<stop  offset="0" style="stop-color:#000000"/>
		<stop  offset="0.15" style="stop-color:#454545"/>
		<stop  offset="0.25" style="stop-color:#B3B3B3"/>
		<stop  offset="0.52" style="stop-color:#000000"/>
		<stop  offset="0.69" style="stop-color:#000000"/>
		<stop  offset="0.8" style="stop-color:#000000"/>
		<stop  offset="0.92" style="stop-color:#000000"/>
		<stop  offset="1" style="stop-color:#000000"/>
	</linearGradient>
	<path fill="url(#SVGID_21_)" d="M463.566,458.085c0.75,0.75,0.574,2.43,1.793,4.375c1.207,1.625,3.305,2.605,3.305,3.645
		c0.152,0.98-2.07,1.75-3.219,3.508c-1.129,1.973-0.676,3.82-1.809,4.422c-0.82,0.551-2.457-0.746-5.051-0.734
		c-2.52-0.215-4.016,1.207-4.996,0.734c-1.273-0.199-0.527-2.246-1.895-4.359c-0.879-1.84-3.129-2.391-3.129-3.57
		c0-1.27,1.832-1.668,3.203-3.75c1.297-2.02,1.09-3.852,1.82-4.18c0.977-0.09,2.254,0.73,5.07,0.73
		c2.656-0.07,4.207-1.168,4.977-0.73L463.566,458.085z"/>
	<path fill="#FFFFFF" fill-opacity="0.2" d="M463.351,458.507c0.75,0.75,0.492,2.305,1.645,4.145
		c1.355,1.855,3.129,2.469,3.129,3.453c-0.273,0.652-1.957,1.656-3.047,3.324c-0.977,1.828-0.637,3.617-1.711,4.188
		c-0.766,0.641-2.324-0.707-4.777-0.691c-2.738-0.168-3.805,1.141-4.734,0.691c-1.004-0.109-0.496-2.125-1.793-4.129
		c-1.461-1.98-2.961-2.262-2.961-3.383c0-0.848,1.738-1.578,3.035-3.551c1.465-1.797,1.027-3.648,1.719-3.961
		c0.496-0.086,2.137,0.691,4.801,0.691c2.445-0.027,3.984-1.105,4.711-0.691L463.351,458.507z"/>
	<path fill="#3E3938" stroke="#9E9F9F" stroke-linejoin="bevel" stroke-miterlimit="10" d="M452.437,466.496c0-3.75,2.766-6,6.176-6
		c3.574,0,6.18,2.523,6.18,5.633c-0.355,3.367-2.766,5.633-6.18,5.633c-3.176-0.016-6.176-2.523-6.176-5.633V466.496z"/>
	<path fill="#FFFFFF" fill-opacity="0.1725" d="M458.925,466.5c0-3-3.262-5.25-0.313-5.25c3.313,0,5.344,2.18,5.344,4.879
		c0.219,2.621-2.391,4.867-5.344,4.867c-2.688,0.004,0.297-1.82,0.297-4.512L458.925,466.5z"/>
	
		<linearGradient id="SVGID_22_" gradientUnits="userSpaceOnUse" x1="220.2222" y1="165.3066" x2="202.2222" y2="165.3066" gradientTransform="matrix(0.75 0 0 -0.75 38.8954 590.0802)">
		<stop  offset="0" style="stop-color:#638C6B"/>
		<stop  offset="0.01" style="stop-color:#ADD4B4"/>
		<stop  offset="0.02" style="stop-color:#82B78D"/>
		<stop  offset="0.64" style="stop-color:#80B48A"/>
		<stop  offset="0.99" style="stop-color:#7DB087"/>
		<stop  offset="1" style="stop-color:#5B8263"/>
	</linearGradient>
	<path fill="url(#SVGID_22_)" d="M190.563,439.101h13.5v54h-13.5V439.101z"/>
	<path fill="#4A7653" d="M244.555,538.171h69v16.5h-69V538.171z"/>
	<path fill="#4A7653" d="M355.007,538.171h69v16.5h-69V538.171z"/>
	
		<linearGradient id="SVGID_23_" gradientUnits="userSpaceOnUse" x1="957.2222" y1="194.3052" x2="202.2231" y2="194.3051" gradientTransform="matrix(0.75 0 0 -0.75 -151.3751 705.4894)">
		<stop  offset="0" style="stop-color:#3D3B3B"/>
		<stop  offset="0.01" style="stop-color:#908F8F"/>
		<stop  offset="0.02" style="stop-color:#514F4F"/>
		<stop  offset="0.64" style="stop-color:#504E4E"/>
		<stop  offset="0.99" style="stop-color:#4E4C4C"/>
		<stop  offset="1" style="stop-color:#383636"/>
	</linearGradient>
	<path fill="url(#SVGID_23_)" d="M1.043,554.511h564.75c0.75,0,0.516,0.367,0.516,0.816l0.234,8.934c0,0-0.234,0.461-1.051,0.461
		L1.043,565.011c-0.75,0-0.75-0.652-0.75-1.105v-8.645c0-0.75,0-0.75,0.816-0.75H1.043z"/>
</g>
</svg>
