<?xml version="1.0" encoding="utf-8"?>
<!-- Generator: Adobe Illustrator 16.0.0, SVG Export Plug-In . SVG Version: 6.00 Build 0)  -->
<!DOCTYPE svg PUBLIC "-//W3C//DTD SVG 1.1//EN" "http://www.w3.org/Graphics/SVG/1.1/DTD/svg11.dtd">
<svg preserveAspectRatio="none" version="1.1" id="图层_1" xmlns="http://www.w3.org/2000/svg" xmlns:xlink="http://www.w3.org/1999/xlink" x="0px" y="0px"
	 width="307.589px" height="567.082px" viewBox="129.633 0.059 307.589 567.082"
	 enable-background="new 129.633 0.059 307.589 567.082" xml:space="preserve">
<g id="surface856">
	
		<linearGradient id="SVGID_1_" gradientUnits="userSpaceOnUse" x1="348.2524" y1="184.8521" x2="202.2266" y2="184.852" gradientTransform="matrix(0.75 0 0 -0.75 76.9974 693.3663)">
		<stop  offset="0" style="stop-color:#BDBDBD"/>
		<stop  offset="0.15" style="stop-color:#FFFFFF"/>
		<stop  offset="0.25" style="stop-color:#FFFFFF"/>
		<stop  offset="0.52" style="stop-color:#DFDFDF"/>
		<stop  offset="0.69" style="stop-color:#C7C7C7"/>
		<stop  offset="0.8" style="stop-color:#BCBCBC"/>
		<stop  offset="0.92" style="stop-color:#B1B1B1"/>
		<stop  offset="1" style="stop-color:#CBCBCB"/>
	</linearGradient>
	<path fill="url(#SVGID_1_)" d="M230.918,542.39h105c1.5,0,2.27,0.871,2.27,2.035l-0.02,20.465c0,0.75-0.992,2.031-2.152,2.031
		l-105.097,0.219c-1.5,0-2.25-1.164-2.25-2.328V544.64c0-1.5,0.902-2.324,2.059-2.324L230.918,542.39z"/>
	
		<linearGradient id="SVGID_2_" gradientUnits="userSpaceOnUse" x1="555.2241" y1="173.3091" x2="202.2251" y2="173.3091" gradientTransform="matrix(0.75 0 0 -0.75 -0.5831 652.7882)">
		<stop  offset="0" style="stop-color:#637281"/>
		<stop  offset="0.15" style="stop-color:#93A4B5"/>
		<stop  offset="0.25" style="stop-color:#C9D0D8"/>
		<stop  offset="0.52" style="stop-color:#768899"/>
		<stop  offset="0.69" style="stop-color:#697888"/>
		<stop  offset="0.8" style="stop-color:#627180"/>
		<stop  offset="0.92" style="stop-color:#5D6B78"/>
		<stop  offset="1" style="stop-color:#6B7B8B"/>
	</linearGradient>
	<path fill="url(#SVGID_2_)" d="M415.835,501.808v27.75c0,7.5-6.328,14.109-14.047,14.109l-236.453,0.141
		c-8.25,0-14.25-6.387-14.25-14.094v-27.906H415.835z"/>
	
		<linearGradient id="SVGID_3_" gradientUnits="userSpaceOnUse" x1="329.2231" y1="163.8057" x2="202.2236" y2="163.8056" gradientTransform="matrix(0.75 0 0 -0.75 84.0038 163.8693)">
		<stop  offset="0" style="stop-color:#BDBDBD"/>
		<stop  offset="0.15" style="stop-color:#FFFFFF"/>
		<stop  offset="0.25" style="stop-color:#FFFFFF"/>
		<stop  offset="0.52" style="stop-color:#DFDFDF"/>
		<stop  offset="0.69" style="stop-color:#C7C7C7"/>
		<stop  offset="0.8" style="stop-color:#BCBCBC"/>
		<stop  offset="0.92" style="stop-color:#B1B1B1"/>
		<stop  offset="1" style="stop-color:#CBCBCB"/>
	</linearGradient>
	<path fill="url(#SVGID_3_)" d="M235.672,69.141h95.25v-56.25h-95.25V69.141z"/>
	
		<linearGradient id="SVGID_4_" gradientUnits="userSpaceOnUse" x1="357.4204" y1="194.3301" x2="202.2236" y2="194.3301" gradientTransform="matrix(0.75 0 0 -0.75 73.558 212.7404)">
		<stop  offset="0" style="stop-color:#BDBDBD"/>
		<stop  offset="0.15" style="stop-color:#FFFFFF"/>
		<stop  offset="0.25" style="stop-color:#FFFFFF"/>
		<stop  offset="0.52" style="stop-color:#DFDFDF"/>
		<stop  offset="0.69" style="stop-color:#C7C7C7"/>
		<stop  offset="0.8" style="stop-color:#BCBCBC"/>
		<stop  offset="0.92" style="stop-color:#B1B1B1"/>
		<stop  offset="1" style="stop-color:#CBCBCB"/>
	</linearGradient>
	<path fill="url(#SVGID_4_)" d="M226.727,61.762h113.25c0.75,0,1.648,0.59,1.648,1.359l-0.148,7.641c0,0.75-0.477,1.43-1.25,1.43
		l-113.5,0.07c-0.75,0-1.5-0.695-1.5-1.465v-7.535c0-0.75,0.555-1.535,1.324-1.535L226.727,61.762z"/>
	
		<linearGradient id="SVGID_5_" gradientUnits="userSpaceOnUse" x1="392.2251" y1="192.8335" x2="202.2266" y2="192.8335" gradientTransform="matrix(0.75 0 0 -0.75 60.6263 151.0802)">
		<stop  offset="0" style="stop-color:#BDBDBD"/>
		<stop  offset="0.15" style="stop-color:#FFFFFF"/>
		<stop  offset="0.25" style="stop-color:#FFFFFF"/>
		<stop  offset="0.52" style="stop-color:#DFDFDF"/>
		<stop  offset="0.69" style="stop-color:#C7C7C7"/>
		<stop  offset="0.8" style="stop-color:#BCBCBC"/>
		<stop  offset="0.92" style="stop-color:#B1B1B1"/>
		<stop  offset="1" style="stop-color:#CBCBCB"/>
	</linearGradient>
	<path fill="url(#SVGID_5_)" d="M213.797,0.102h138.75c1.5,0,2.012,0.719,2.012,1.66l0.238,9.59c0,0.75-1.004,1.496-1.949,1.496
		l-139.05,0.004c-0.75,0-1.5-0.766-1.5-1.711V1.602c0-0.75,0.676-1.543,1.617-1.543L213.797,0.102z"/>
	
		<linearGradient id="SVGID_6_" gradientUnits="userSpaceOnUse" x1="593.5669" y1="-60.1948" x2="202.2236" y2="-60.1949" gradientTransform="matrix(0.75 0 0 -0.75 -14.9962 223.2042)">
		<stop  offset="0" style="stop-color:#9FA7AE"/>
		<stop  offset="0.01" style="stop-color:#E7F0F8"/>
		<stop  offset="0.02" style="stop-color:#CFD9E3"/>
		<stop  offset="0.64" style="stop-color:#CCD6DF"/>
		<stop  offset="0.99" style="stop-color:#C7D1DA"/>
		<stop  offset="1" style="stop-color:#939BA2"/>
	</linearGradient>
	<path fill="url(#SVGID_6_)" d="M138.172,72.227h290.25c1.5,0,1.758,0.516,1.758,1.191l-0.258,389.558
		c0,0.75-0.367,1.336-1.141,1.336l-290.609,0.164c-0.75,0-1.5-0.773-1.5-1.449v-389.3c0-0.75,0.625-1.5,1.398-1.5H138.172z"/>
	
		<linearGradient id="SVGID_7_" gradientUnits="userSpaceOnUse" x1="225.5186" y1="-60.1953" x2="202.2266" y2="-60.1953" gradientTransform="matrix(0.75 0 0 -0.75 -15.0846 223.2042)">
		<stop  offset="0" style="stop-color:#9FA7AE"/>
		<stop  offset="0.01" style="stop-color:#E7F0F8"/>
		<stop  offset="0.02" style="stop-color:#CFD9E3"/>
		<stop  offset="0.64" style="stop-color:#CCD6DF"/>
		<stop  offset="0.99" style="stop-color:#C7D1DA"/>
		<stop  offset="1" style="stop-color:#939BA2"/>
	</linearGradient>
	<path fill="url(#SVGID_7_)" d="M136.586,72.227h17.25c0,0,0.219,0.516,0.219,1.191l-0.219,389.558c0,0.75,0.184,1.336,0.137,1.336
		l-17.387,0.164c0,0,0-0.773,0-1.449v-389.3c0-0.75,0.035-1.5,0.082-1.5H136.586z"/>
	
		<linearGradient id="SVGID_8_" gradientUnits="userSpaceOnUse" x1="225.5171" y1="-60.1953" x2="202.2261" y2="-60.1953" gradientTransform="matrix(0.75 0 0 -0.75 260.951 223.2042)">
		<stop  offset="0" style="stop-color:#9FA7AE"/>
		<stop  offset="0.01" style="stop-color:#E7F0F8"/>
		<stop  offset="0.02" style="stop-color:#CFD9E3"/>
		<stop  offset="0.64" style="stop-color:#CCD6DF"/>
		<stop  offset="0.99" style="stop-color:#C7D1DA"/>
		<stop  offset="1" style="stop-color:#939BA2"/>
	</linearGradient>
	<path fill="url(#SVGID_8_)" d="M412.621,72.227h17.25c0,0,0.219,0.516,0.219,1.191l-0.219,389.558c0,0.75,0.184,1.336,0.137,1.336
		l-17.387,0.164c0,0,0-0.773,0-1.449v-389.3c0-0.75,0.035-1.5,0.082-1.5H412.621z"/>
	
		<linearGradient id="SVGID_9_" gradientUnits="userSpaceOnUse" x1="612.3462" y1="188.0786" x2="202.2266" y2="188.0786" gradientTransform="matrix(0.75 0 0 -0.75 -22.0377 615.2902)">
		<stop  offset="0" style="stop-color:#9FA7AE"/>
		<stop  offset="0.01" style="stop-color:#E7F0F8"/>
		<stop  offset="0.02" style="stop-color:#CFD9E3"/>
		<stop  offset="0.64" style="stop-color:#CCD6DF"/>
		<stop  offset="0.99" style="stop-color:#C7D1DA"/>
		<stop  offset="1" style="stop-color:#939BA2"/>
	</linearGradient>
	<path fill="url(#SVGID_9_)" d="M131.133,464.312h304.5c0.75,0,1.59,0.027,1.59,0.059l-0.09,19.441c0,0-0.566,0.34-1.375,0.34
		l-304.625-0.34c-0.75,0-1.5,0.309-1.5,0.273v-19.773c0,0,0.656,0,1.465,0H131.133z"/>
	
		<linearGradient id="SVGID_10_" gradientUnits="userSpaceOnUse" x1="612.3462" y1="188.0781" x2="202.2266" y2="188.0781" gradientTransform="matrix(0.75 0 0 -0.75 -22.0377 634.4757)">
		<stop  offset="0" style="stop-color:#677786"/>
		<stop  offset="0.01" style="stop-color:#B1BFCD"/>
		<stop  offset="0.02" style="stop-color:#889CAF"/>
		<stop  offset="0.64" style="stop-color:#869AAC"/>
		<stop  offset="0.99" style="stop-color:#8296A8"/>
		<stop  offset="1" style="stop-color:#5F6E7C"/>
	</linearGradient>
	<path fill="url(#SVGID_10_)" d="M131.133,483.5h304.5c0.75,0,1.59,0.023,1.59,0.059L437.132,503c0,0-0.566,0.336-1.375,0.336
		L131.133,503c-0.75,0-1.5,0.305-1.5,0.273V483.5c0,0,0.656,0,1.465,0H131.133z"/>
	<path fill="#FFFFFF" fill-opacity="0.298" d="M224.527,235.621h117.75c1.5,0,2.297,0.867,2.297,2.023l-0.047,41.477
		c0,0.75-0.93,1.773-2.086,1.773l-117.914-0.273c-1.5,0-2.25-0.664-2.25-1.816v-40.934c0-1.5,0.902-2.32,2.063-2.32L224.527,235.621
		z"/>
	
		<radialGradient id="SVGID_11_" cx="276.5015" cy="127.1567" r="104.9516" gradientTransform="matrix(0.75 0 0 -0.75 76.0511 491.8556)" gradientUnits="userSpaceOnUse">
		<stop  offset="0" style="stop-color:#AAB4BE"/>
		<stop  offset="0.54" style="stop-color:#A7B0BA"/>
		<stop  offset="0.74" style="stop-color:#CBD1D7"/>
		<stop  offset="0.91" style="stop-color:#A7B0BA"/>
		<stop  offset="1" style="stop-color:#A7B0BA"/>
	</radialGradient>
	<path fill="url(#SVGID_11_)" stroke="#9CA9B5" stroke-width="0.25" stroke-linejoin="bevel" stroke-miterlimit="10" d="
		M227.719,396.378c0-30.75,24.941-55.5,55.707-55.5c30.542,0,55.707,24.898,55.707,55.609c0.336,30.641-24.941,55.609-55.707,55.609
		c-30.957-0.219-55.707-24.895-55.707-55.609V396.378z"/>
	<path fill="#7D8D9D" d="M239.434,396.82c0-24.75,19.695-44.25,43.992-44.25c24.257,0,43.992,19.664,43.992,43.918
		c-0.234,24.332-19.695,43.918-43.992,43.918c-24.492-0.086-43.992-19.664-43.992-43.918V396.82z"/>
	
		<linearGradient id="SVGID_12_" gradientUnits="userSpaceOnUse" x1="313.7046" y1="172.9746" x2="191.9109" y2="128.6454" gradientTransform="matrix(0.75 0 0 -0.75 93.8187 509.5939)">
		<stop  offset="0" style="stop-color:#979FA7"/>
		<stop  offset="0.15" style="stop-color:#D0DAE3"/>
		<stop  offset="0.25" style="stop-color:#E5EAEF"/>
		<stop  offset="0.52" style="stop-color:#B3BCC5"/>
		<stop  offset="0.69" style="stop-color:#9FA7AF"/>
		<stop  offset="0.8" style="stop-color:#969EA5"/>
		<stop  offset="0.92" style="stop-color:#8E959C"/>
		<stop  offset="1" style="stop-color:#A3ABB3"/>
	</linearGradient>
	<path fill="url(#SVGID_12_)" d="M245.488,396.117c0-20.25,16.984-37.5,37.938-37.5c21.312,0,37.937,16.953,37.937,37.871
		c-0.125,20.629-16.984,37.875-37.937,37.875c-20.688,0.004-37.938-16.957-37.938-37.875V396.117z"/>
	
		<linearGradient id="SVGID_13_" gradientUnits="userSpaceOnUse" x1="245.4824" y1="179.8394" x2="202.0977" y2="179.8394" gradientTransform="matrix(0.75 0 0 -0.75 115.5355 657.506)">
		<stop  offset="0" style="stop-color:#BDBDBD"/>
		<stop  offset="0.15" style="stop-color:#FFFFFF"/>
		<stop  offset="0.25" style="stop-color:#FFFFFF"/>
		<stop  offset="0.52" style="stop-color:#DFDFDF"/>
		<stop  offset="0.69" style="stop-color:#C7C7C7"/>
		<stop  offset="0.8" style="stop-color:#BCBCBC"/>
		<stop  offset="0.92" style="stop-color:#B1B1B1"/>
		<stop  offset="1" style="stop-color:#CBCBCB"/>
	</linearGradient>
	<path fill="url(#SVGID_13_)" d="M267.203,522.277c0-9,7.188-15.902,16.168-15.902c9.332,0.152,16.277,7.277,16.277,16.254
		c-0.195,8.648-7.293,16.25-16.277,16.25c-8.668-0.102-16.262-7.277-16.262-16.25L267.203,522.277z"/>
	<path fill="#595757" d="M271.242,522.562c0-6.75,5.348-12.043,12.047-12.043c6.703,0.043,12.132,5.43,12.132,12.125
		c-0.18,6.668-5.43,12.121-12.132,12.121c-6.797-0.203-12.129-5.426-12.129-12.121L271.242,522.562z"/>
</g>
</svg>
