<?xml version="1.0" encoding="utf-8"?>
<!-- Generator: Adobe Illustrator 16.0.0, SVG Export Plug-In . SVG Version: 6.00 Build 0)  -->
<!DOCTYPE svg PUBLIC "-//W3C//DTD SVG 1.1//EN" "http://www.w3.org/Graphics/SVG/1.1/DTD/svg11.dtd">
<svg preserveAspectRatio="none" version="1.1" id="图层_1" xmlns="http://www.w3.org/2000/svg" xmlns:xlink="http://www.w3.org/1999/xlink" x="0px" y="0px"
	 width="561.309px" height="449.116px" viewBox="2.675 117.829 561.309 449.116"
	 enable-background="new 2.675 117.829 561.309 449.116" xml:space="preserve">
<g id="surface681">
	
		<linearGradient id="SVGID_1_" gradientUnits="userSpaceOnUse" x1="307.2222" y1="193.2847" x2="202.2222" y2="193.2847" gradientTransform="matrix(0.75 0 0 -0.75 31.9735 344.1622)">
		<stop  offset="0" style="stop-color:#638C6B"/>
		<stop  offset="0.01" style="stop-color:#ADD4B4"/>
		<stop  offset="0.02" style="stop-color:#82B78D"/>
		<stop  offset="0.64" style="stop-color:#80B48A"/>
		<stop  offset="0.99" style="stop-color:#7DB087"/>
		<stop  offset="1" style="stop-color:#5B8263"/>
	</linearGradient>
	<path fill="url(#SVGID_1_)" d="M185.891,193.184h74.25c0.75,0,2.004,1.098,2.004,2.453l0.246,7.297c0,1.5-1.215,2.281-2.406,2.281
		l-74.094-0.031c-1.5,0-2.25-1.066-2.25-2.422v-7.328c0-1.5,0.969-2.25,2.16-2.25H185.891z"/>
	<path fill="#9E9F9F" stroke="#9E9F9F" stroke-linejoin="bevel" stroke-miterlimit="10" d="M208.426,249.746h133.5v88.5h-133.5
		V249.746z"/>
	
		<linearGradient id="SVGID_2_" gradientUnits="userSpaceOnUse" x1="825.2212" y1="86.3032" x2="202.2222" y2="86.3032" gradientTransform="matrix(0.75 0 0 -0.75 -99.2531 545.3165)">
		<stop  offset="0" style="stop-color:#638C6B"/>
		<stop  offset="0.01" style="stop-color:#ADD4B4"/>
		<stop  offset="0.02" style="stop-color:#82B78D"/>
		<stop  offset="0.64" style="stop-color:#80B48A"/>
		<stop  offset="0.99" style="stop-color:#7DB087"/>
		<stop  offset="1" style="stop-color:#5B8263"/>
	</linearGradient>
	<path fill="url(#SVGID_2_)" d="M52.414,394.339h467.25v172.5H52.414V394.339z"/>
	
		<linearGradient id="SVGID_3_" gradientUnits="userSpaceOnUse" x1="276.5142" y1="152.7671" x2="202.1499" y2="152.7671" gradientTransform="matrix(0.75 0 0 -0.75 -101.1554 420.8029)">
		<stop  offset="0" style="stop-color:#74947B"/>
		<stop  offset="0.01" style="stop-color:#BCDCC3"/>
		<stop  offset="0.02" style="stop-color:#99C1A1"/>
		<stop  offset="0.64" style="stop-color:#96BE9E"/>
		<stop  offset="0.99" style="stop-color:#93BA9B"/>
		<stop  offset="1" style="stop-color:#6C8972"/>
	</linearGradient>
	<path fill="url(#SVGID_3_)" d="M52.766,269.824h51c1.5,0,2.465,1.055,2.465,2.387l-0.215,68.113c0,1.5-0.867,2.309-2.203,2.309
		l-51.047-0.059c-1.5,0-2.309-1.027-2.309-2.359l0.059-68.14c0-1.5,1.023-2.25,2.355-2.25H52.766z"/>
	
		<linearGradient id="SVGID_4_" gradientUnits="userSpaceOnUse" x1="271.2261" y1="196.3315" x2="202.2261" y2="196.3315" gradientTransform="matrix(0.75 0 0 -0.75 -98.7516 413.2853)">
		<stop  offset="0" style="stop-color:#74947B"/>
		<stop  offset="0.01" style="stop-color:#BCDCC3"/>
		<stop  offset="0.02" style="stop-color:#99C1A1"/>
		<stop  offset="0.64" style="stop-color:#96BE9E"/>
		<stop  offset="0.99" style="stop-color:#93BA9B"/>
		<stop  offset="1" style="stop-color:#6C8972"/>
	</linearGradient>
	<path fill="url(#SVGID_4_)" d="M55.168,262.309h46.5c1.5,0,2.672,1.039,2.672,2.395l0.328,2.855c0,1.5-1.426,2.266-2.781,2.266
		l-46.719-0.016c-1.5,0-2.25-1.082-2.25-2.438v-2.813c0-1.5,1.055-2.309,2.41-2.309L55.168,262.309z"/>
	
		<linearGradient id="SVGID_5_" gradientUnits="userSpaceOnUse" x1="232.7256" y1="201.3037" x2="232.7256" y2="123.3037" gradientTransform="matrix(0.75 0 0 -0.75 -96.3414 354.7286)">
		<stop  offset="0" style="stop-color:#74947B"/>
		<stop  offset="0.01" style="stop-color:#BCDCC3"/>
		<stop  offset="0.02" style="stop-color:#99C1A1"/>
		<stop  offset="0.64" style="stop-color:#96BE9E"/>
		<stop  offset="0.99" style="stop-color:#93BA9B"/>
		<stop  offset="1" style="stop-color:#6C8972"/>
	</linearGradient>
	<path fill="url(#SVGID_5_)" d="M55.328,262.25h45.75v-58.5h-45.75V262.25z"/>
	
		<linearGradient id="SVGID_6_" gradientUnits="userSpaceOnUse" x1="406.0356" y1="267.7954" x2="406.0356" y2="215.5728" gradientTransform="matrix(0.5303 0.5303 0.5303 -0.5303 -277.8493 93.6646)">
		<stop  offset="0" style="stop-color:#74947B"/>
		<stop  offset="0.01" style="stop-color:#BCDCC3"/>
		<stop  offset="0.02" style="stop-color:#99C1A1"/>
		<stop  offset="0.64" style="stop-color:#96BE9E"/>
		<stop  offset="0.99" style="stop-color:#93BA9B"/>
		<stop  offset="1" style="stop-color:#6C8972"/>
	</linearGradient>
	<path fill="url(#SVGID_6_)" d="M38.629,126.184l81.668,81.672c0.531,0.531,0.781,2.25-0.18,3.207l-24.215,24.371
		c-1.059,1.059-2.563,0.773-3.52-0.188l-81.332-81.484c-1.063-1.059-0.891-2.289,0.066-3.25l24.328-24.328
		c1.063-1.059,2.391-0.875,3.348,0.082L38.629,126.184z"/>
	
		<linearGradient id="SVGID_7_" gradientUnits="userSpaceOnUse" x1="381.1304" y1="267.7168" x2="381.1304" y2="237.7168" gradientTransform="matrix(0.5303 0.5303 0.5303 -0.5303 -274.1579 132.6432)">
		<stop  offset="0" style="stop-color:#74947B"/>
		<stop  offset="0.01" style="stop-color:#BCDCC3"/>
		<stop  offset="0.02" style="stop-color:#99C1A1"/>
		<stop  offset="0.64" style="stop-color:#96BE9E"/>
		<stop  offset="0.99" style="stop-color:#93BA9B"/>
		<stop  offset="1" style="stop-color:#6C8972"/>
	</linearGradient>
	<path fill="url(#SVGID_7_)" d="M42.32,165.164l55.152,55.152c1.063,1.063,0.914,2.469-0.043,3.426l-12.152,11.957
		c-1.063,1.059-2.613,1.172-3.574,0.215l-55.293-54.84c-1.063-1.063-0.59-2.594,0.371-3.555l12.355-12.355
		c1.063-1.063,2.367-0.816,3.328,0.145L42.32,165.164z"/>
	
		<linearGradient id="SVGID_8_" gradientUnits="userSpaceOnUse" x1="337.0366" y1="267.7197" x2="337.0366" y2="230.7144" gradientTransform="matrix(0.5303 0.5303 0.5303 -0.5303 -293.4587 86.0006)">
		<stop  offset="0" style="stop-color:#74947B"/>
		<stop  offset="0.01" style="stop-color:#BCDCC3"/>
		<stop  offset="0.02" style="stop-color:#99C1A1"/>
		<stop  offset="0.64" style="stop-color:#96BE9E"/>
		<stop  offset="0.99" style="stop-color:#93BA9B"/>
		<stop  offset="1" style="stop-color:#6C8972"/>
	</linearGradient>
	<path fill="url(#SVGID_8_)" d="M23.02,118.52l10.074,10.078l-19.621,19.621L3.395,138.145c-1.059-1.063-0.879-2.305,0.082-3.262
		l16.359-16.363c1.059-1.059,2.367-0.813,3.324,0.145L23.02,118.52z"/>
	
		<linearGradient id="SVGID_9_" gradientUnits="userSpaceOnUse" x1="364.2241" y1="114.7988" x2="202.2241" y2="114.7988" gradientTransform="matrix(0.75 0 0 -0.75 245.3661 364.1935)">
		<stop  offset="0" style="stop-color:#74947B"/>
		<stop  offset="0.01" style="stop-color:#BCDCC3"/>
		<stop  offset="0.02" style="stop-color:#99C1A1"/>
		<stop  offset="0.64" style="stop-color:#96BE9E"/>
		<stop  offset="0.99" style="stop-color:#93BA9B"/>
		<stop  offset="1" style="stop-color:#6C8972"/>
	</linearGradient>
	<path fill="url(#SVGID_9_)" d="M399.285,213.215h116.25c1.5,0,2.844,1.07,2.844,2.426l0.156,125.074
		c0,0.75-1.316,2.262-2.672,2.262l-116.578-0.012c-1.5,0-2.25-1.145-2.25-2.5v-125c0-1.5,1.07-2.25,2.426-2.25H399.285z"/>
	
		<linearGradient id="SVGID_10_" gradientUnits="userSpaceOnUse" x1="244.2217" y1="116.3062" x2="202.1387" y2="116.3062" gradientTransform="matrix(0.75 0 0 -0.75 215.1844 359.9474)">
		<stop  offset="0" style="stop-color:#74947B"/>
		<stop  offset="0.01" style="stop-color:#BCDCC3"/>
		<stop  offset="0.02" style="stop-color:#99C1A1"/>
		<stop  offset="0.64" style="stop-color:#96BE9E"/>
		<stop  offset="0.99" style="stop-color:#93BA9B"/>
		<stop  offset="1" style="stop-color:#6C8972"/>
	</linearGradient>
	<path fill="url(#SVGID_10_)" d="M369.101,208.969h26.25c1.5,0,2.77,1.07,2.77,2.426l0.23,122.824c0,0.75-1.387,2.125-2.816,2.125
		l-26.434,0.125c-1.5,0-2.313-1.254-2.313-2.609l0.063-122.64c0-1.5,1.098-2.25,2.527-2.25H369.101z"/>
	
		<linearGradient id="SVGID_11_" gradientUnits="userSpaceOnUse" x1="293.2222" y1="188.8066" x2="202.2222" y2="188.8066" gradientTransform="matrix(0.75 0 0 -0.75 146.6796 466.5333)">
		<stop  offset="0" style="stop-color:#90A38C"/>
		<stop  offset="0.01" style="stop-color:#D8EBD4"/>
		<stop  offset="0.02" style="stop-color:#BDD4B7"/>
		<stop  offset="0.64" style="stop-color:#BAD0B4"/>
		<stop  offset="0.99" style="stop-color:#B5CCB0"/>
		<stop  offset="1" style="stop-color:#869782"/>
	</linearGradient>
	<path fill="url(#SVGID_11_)" d="M300.597,315.554h63c1.5,0,2.727,0.59,2.727,1.313l0.273,17.438h-68.25v-17.25
		c0-0.75,1.102-1.5,2.457-1.5H300.597z"/>
	
		<linearGradient id="SVGID_12_" gradientUnits="userSpaceOnUse" x1="271.6177" y1="117.5815" x2="201.9761" y2="117.5815" gradientTransform="matrix(0.75 0 0 -0.75 53.8295 363.1622)">
		<stop  offset="0" style="stop-color:#343232"/>
		<stop  offset="0.15" style="stop-color:#555454"/>
		<stop  offset="0.26" style="stop-color:#797777"/>
		<stop  offset="0.41" style="stop-color:#5D5B5B"/>
		<stop  offset="0.6" style="stop-color:#484646"/>
		<stop  offset="0.8" style="stop-color:#383636"/>
		<stop  offset="0.93" style="stop-color:#2C2B2B"/>
		<stop  offset="1" style="stop-color:#535151"/>
	</linearGradient>
	<path fill="url(#SVGID_12_)" d="M213,212.184c25.5,9,44.543,33.195,44.543,62.078c-0.293,30.921-21.207,56.41-49.695,63.527
		c-5.348,1.145-1.539-127.707,4.949-125.605H213z"/>
	
		<linearGradient id="SVGID_13_" gradientUnits="userSpaceOnUse" x1="238.9004" y1="152.8994" x2="202.2251" y2="152.8994" gradientTransform="matrix(0.75 0 0 -0.75 117.9442 388.9611)">
		<stop  offset="0" style="stop-color:#343232"/>
		<stop  offset="0.15" style="stop-color:#555454"/>
		<stop  offset="0.26" style="stop-color:#797777"/>
		<stop  offset="0.41" style="stop-color:#5D5B5B"/>
		<stop  offset="0.6" style="stop-color:#484646"/>
		<stop  offset="0.8" style="stop-color:#383636"/>
		<stop  offset="0.93" style="stop-color:#2C2B2B"/>
		<stop  offset="1" style="stop-color:#535151"/>
	</linearGradient>
	<path fill="url(#SVGID_13_)" d="M269.613,273.984c0-15.75,9.926-30.02,24.078-36c4.422-2.25,4.719,74.609,0,72.617
		c-14.328-5.867-24.078-20.004-24.078-36.308V273.984z"/>
	
		<linearGradient id="SVGID_14_" gradientUnits="userSpaceOnUse" x1="225.2363" y1="174.3027" x2="202.2266" y2="174.3027" gradientTransform="matrix(0.75 0 0 -0.75 93.7518 443.8907)">
		<stop  offset="0" style="stop-color:#62906A"/>
		<stop  offset="0.01" style="stop-color:#ACD7B3"/>
		<stop  offset="0.02" style="stop-color:#81BC8C"/>
		<stop  offset="0.64" style="stop-color:#7FB989"/>
		<stop  offset="0.99" style="stop-color:#7CB486"/>
		<stop  offset="1" style="stop-color:#5B8562"/>
	</linearGradient>
	<path fill="url(#SVGID_14_)" d="M247.672,292.914h12.75c0.75,0,2.258,1.168,2.258,2.609l-0.008,37.891h-17.25v-38.25
		c0-0.75,1.133-2.25,2.574-2.25H247.672z"/>
	
		<linearGradient id="SVGID_15_" gradientUnits="userSpaceOnUse" x1="225.2344" y1="174.3027" x2="202.2246" y2="174.3027" gradientTransform="matrix(0.75 0 0 -0.75 111.1439 443.8907)">
		<stop  offset="0" style="stop-color:#62906A"/>
		<stop  offset="0.01" style="stop-color:#ACD7B3"/>
		<stop  offset="0.02" style="stop-color:#81BC8C"/>
		<stop  offset="0.64" style="stop-color:#7FB989"/>
		<stop  offset="0.99" style="stop-color:#7CB486"/>
		<stop  offset="1" style="stop-color:#5B8562"/>
	</linearGradient>
	<path fill="url(#SVGID_15_)" d="M265.063,292.914h12.75c0.75,0,2.258,1.168,2.258,2.609l-0.008,37.891h-17.25v-38.25
		c0-0.75,1.133-2.25,2.574-2.25H265.063z"/>
	
		<linearGradient id="SVGID_16_" gradientUnits="userSpaceOnUse" x1="210.2275" y1="188.3037" x2="202.2275" y2="188.3037" gradientTransform="matrix(0.75 0 0 -0.75 102.6024 408.5079)">
		<stop  offset="0" style="stop-color:#62906A"/>
		<stop  offset="0.01" style="stop-color:#ACD7B3"/>
		<stop  offset="0.02" style="stop-color:#81BC8C"/>
		<stop  offset="0.64" style="stop-color:#7FB989"/>
		<stop  offset="0.99" style="stop-color:#7CB486"/>
		<stop  offset="1" style="stop-color:#5B8562"/>
	</linearGradient>
	<path fill="url(#SVGID_16_)" d="M256.523,257.531h0.75c1.5,0,2.652,1.098,2.652,2.453l0.348,17.047h-6v-17.25
		c0-1.5,1.086-2.25,2.441-2.25H256.523z"/>
	
		<linearGradient id="SVGID_17_" gradientUnits="userSpaceOnUse" x1="217.2266" y1="184.8032" x2="202.2266" y2="184.8032" gradientTransform="matrix(0.75 0 0 -0.75 98.8143 427.9454)">
		<stop  offset="0" style="stop-color:#62906A"/>
		<stop  offset="0.01" style="stop-color:#ACD7B3"/>
		<stop  offset="0.02" style="stop-color:#81BC8C"/>
		<stop  offset="0.64" style="stop-color:#7FB989"/>
		<stop  offset="0.99" style="stop-color:#7CB486"/>
		<stop  offset="1" style="stop-color:#5B8562"/>
	</linearGradient>
	<path fill="url(#SVGID_17_)" d="M250.484,301.718h11.25v-24.75h-11.25V301.718z"/>
	
		<linearGradient id="SVGID_18_" gradientUnits="userSpaceOnUse" x1="210.2266" y1="188.3047" x2="202.2266" y2="188.3047" gradientTransform="matrix(0.75 0 0 -0.75 111.0995 408.506)">
		<stop  offset="0" style="stop-color:#62906A"/>
		<stop  offset="0.01" style="stop-color:#ACD7B3"/>
		<stop  offset="0.02" style="stop-color:#81BC8C"/>
		<stop  offset="0.64" style="stop-color:#7FB989"/>
		<stop  offset="0.99" style="stop-color:#7CB486"/>
		<stop  offset="1" style="stop-color:#5B8562"/>
	</linearGradient>
	<path fill="url(#SVGID_18_)" d="M265.02,257.527h0.75c1.5,0,2.652,1.098,2.652,2.453l0.348,17.047h-6v-17.25
		c0-1.5,1.086-2.25,2.441-2.25H265.02z"/>
	
		<linearGradient id="SVGID_19_" gradientUnits="userSpaceOnUse" x1="217.2246" y1="184.8032" x2="202.2246" y2="184.8032" gradientTransform="matrix(0.75 0 0 -0.75 110.1434 427.9454)">
		<stop  offset="0" style="stop-color:#62906A"/>
		<stop  offset="0.01" style="stop-color:#ACD7B3"/>
		<stop  offset="0.02" style="stop-color:#81BC8C"/>
		<stop  offset="0.64" style="stop-color:#7FB989"/>
		<stop  offset="0.99" style="stop-color:#7CB486"/>
		<stop  offset="1" style="stop-color:#5B8562"/>
	</linearGradient>
	<path fill="url(#SVGID_19_)" d="M261.813,301.718h11.25v-24.75h-11.25V301.718z"/>
	
		<linearGradient id="SVGID_20_" gradientUnits="userSpaceOnUse" x1="261.2231" y1="177.8027" x2="202.2231" y2="177.8027" gradientTransform="matrix(0.75 0 0 -0.75 368.0663 545.3165)">
		<stop  offset="0" style="stop-color:#638C6B"/>
		<stop  offset="0.01" style="stop-color:#ADD4B4"/>
		<stop  offset="0.02" style="stop-color:#82B78D"/>
		<stop  offset="0.64" style="stop-color:#80B48A"/>
		<stop  offset="0.99" style="stop-color:#7DB087"/>
		<stop  offset="1" style="stop-color:#5B8263"/>
	</linearGradient>
	<path fill="url(#SVGID_20_)" d="M519.734,394.339h44.25l-44.25,35.25V394.339z"/>
	
		<linearGradient id="SVGID_21_" gradientUnits="userSpaceOnUse" x1="825.2212" y1="195.8032" x2="202.2222" y2="195.8032" gradientTransform="matrix(0.75 0 0 -0.75 -99.2531 545.3165)">
		<stop  offset="0" style="stop-color:#4A7653"/>
		<stop  offset="0.01" style="stop-color:#99BEA0"/>
		<stop  offset="0.02" style="stop-color:#639B6E"/>
		<stop  offset="0.64" style="stop-color:#61996C"/>
		<stop  offset="0.99" style="stop-color:#5F956A"/>
		<stop  offset="1" style="stop-color:#446E4D"/>
	</linearGradient>
	<path fill="url(#SVGID_21_)" d="M52.414,394.339h467.25v8.25H52.414V394.339z"/>
	
		<linearGradient id="SVGID_22_" gradientUnits="userSpaceOnUse" x1="884.2222" y1="166.8071" x2="202.2231" y2="166.8071" gradientTransform="matrix(0.75 0 0 -0.75 -99.2535 493.424)">
		<stop  offset="0" style="stop-color:#638C6B"/>
		<stop  offset="0.01" style="stop-color:#ADD4B4"/>
		<stop  offset="0.02" style="stop-color:#82B78D"/>
		<stop  offset="0.64" style="stop-color:#80B48A"/>
		<stop  offset="0.99" style="stop-color:#7DB087"/>
		<stop  offset="1" style="stop-color:#5B8263"/>
	</linearGradient>
	<path fill="url(#SVGID_22_)" d="M52.414,342.445h511.5v51.75h-511.5V342.445z"/>
	
		<linearGradient id="SVGID_23_" gradientUnits="userSpaceOnUse" x1="825.2212" y1="190.8071" x2="202.2222" y2="190.8071" gradientTransform="matrix(0.75 0 0 -0.75 -99.2531 702.174)">
		<stop  offset="0" style="stop-color:#4A7653"/>
		<stop  offset="0.01" style="stop-color:#99BEA0"/>
		<stop  offset="0.02" style="stop-color:#639B6E"/>
		<stop  offset="0.64" style="stop-color:#61996C"/>
		<stop  offset="0.99" style="stop-color:#5F956A"/>
		<stop  offset="1" style="stop-color:#446E4D"/>
	</linearGradient>
	<path fill="url(#SVGID_23_)" d="M52.414,551.195h467.25v15.75H52.414V551.195z"/>
	<path fill="#EEEEEE" d="M208.34,219.156c22.5,7.5,39.555,29.531,39.555,55.23c0.195,27.269-18.867,50.187-44.211,56.519
		c-4.344,0.75-1.371-113.621,4.402-111.75H208.34z"/>
	
		<linearGradient id="SVGID_24_" gradientUnits="userSpaceOnUse" x1="257.584" y1="134.5063" x2="202.1104" y2="134.5063" gradientTransform="matrix(0.75 0 0 -0.75 43.4755 375.9044)">
		<stop  offset="0" style="stop-color:#343232"/>
		<stop  offset="0.15" style="stop-color:#555454"/>
		<stop  offset="0.26" style="stop-color:#797777"/>
		<stop  offset="0.41" style="stop-color:#5D5B5B"/>
		<stop  offset="0.6" style="stop-color:#484646"/>
		<stop  offset="0.8" style="stop-color:#383636"/>
		<stop  offset="0.93" style="stop-color:#2C2B2B"/>
		<stop  offset="1" style="stop-color:#535151"/>
	</linearGradient>
	<path fill="url(#SVGID_24_)" d="M201.145,224.926c20.25,6.75,35.52,26.484,35.52,49.527c-0.27,24.722-16.918,45.003-39.645,50.683
		c-4.125,1.039-1.23-101.886,3.949-100.21H201.145z"/>
	
		<linearGradient id="SVGID_25_" gradientUnits="userSpaceOnUse" x1="292.2251" y1="101.8062" x2="202.2256" y2="101.8061" gradientTransform="matrix(0.75 0 0 -0.75 -2.0133 344.1622)">
		<stop  offset="0" style="stop-color:#74947B"/>
		<stop  offset="0.01" style="stop-color:#BCDCC3"/>
		<stop  offset="0.02" style="stop-color:#99C1A1"/>
		<stop  offset="0.64" style="stop-color:#96BE9E"/>
		<stop  offset="0.99" style="stop-color:#93BA9B"/>
		<stop  offset="1" style="stop-color:#6C8972"/>
	</linearGradient>
	<path fill="url(#SVGID_25_)" d="M149.656,193.184h67.5v149.25h-67.5V193.184z"/>
	
		<linearGradient id="SVGID_26_" gradientUnits="userSpaceOnUse" x1="260.2227" y1="101.8042" x2="202.2227" y2="101.8042" gradientTransform="matrix(0.75 0 0 -0.75 -45.4406 344.1613)">
		<stop  offset="0" style="stop-color:#74947B"/>
		<stop  offset="0.01" style="stop-color:#BCDCC3"/>
		<stop  offset="0.02" style="stop-color:#99C1A1"/>
		<stop  offset="0.64" style="stop-color:#96BE9E"/>
		<stop  offset="0.99" style="stop-color:#93BA9B"/>
		<stop  offset="1" style="stop-color:#6C8972"/>
	</linearGradient>
	<path fill="url(#SVGID_26_)" d="M149.727,193.184v149.25h-43.5v-103.5L149.727,193.184z"/>
	<path fill="#EEEEEE" d="M276.973,274.336c0-14.25,8.601-26.32,20.863-31.5c3.887-1.5,4.086,64.64,0,62.914
		c-12.613-5.164-20.863-17.332-20.863-31.457V274.336z"/>
	
		<linearGradient id="SVGID_27_" gradientUnits="userSpaceOnUse" x1="231.7939" y1="162.5659" x2="202.2266" y2="162.5659" gradientTransform="matrix(0.75 0 0 -0.75 132.2084 396.2189)">
		<stop  offset="0" style="stop-color:#343232"/>
		<stop  offset="0.15" style="stop-color:#555454"/>
		<stop  offset="0.26" style="stop-color:#797777"/>
		<stop  offset="0.41" style="stop-color:#5D5B5B"/>
		<stop  offset="0.6" style="stop-color:#484646"/>
		<stop  offset="0.8" style="stop-color:#383636"/>
		<stop  offset="0.93" style="stop-color:#2C2B2B"/>
		<stop  offset="1" style="stop-color:#535151"/>
	</linearGradient>
	<path fill="url(#SVGID_27_)" d="M283.879,274.492c0-13.5,7.941-24.465,19.265-29.25c3.984-1.5,3.773,59.695,0,58.101
		c-11.016-4.852-19.265-16.004-19.265-29.05V274.492z"/>
	
		<linearGradient id="SVGID_28_" gradientUnits="userSpaceOnUse" x1="387.2632" y1="174.8066" x2="202.2212" y2="174.8066" gradientTransform="matrix(0.75 0 0 -0.75 211.8212 545.0802)">
		<stop  offset="0" style="stop-color:#426B4A"/>
		<stop  offset="0.01" style="stop-color:#94B499"/>
		<stop  offset="0.02" style="stop-color:#598D63"/>
		<stop  offset="0.64" style="stop-color:#578A61"/>
		<stop  offset="0.99" style="stop-color:#55875F"/>
		<stop  offset="1" style="stop-color:#3D6344"/>
	</linearGradient>
	<path fill="url(#SVGID_28_)" d="M365.738,394.101h134.25c1.5,0,2.281,1.102,2.281,2.453l-0.031,35.047
		c0,0.75-1.066,2.129-2.422,2.129l-134.078,0.121c-1.5,0-2.25-1.219-2.25-2.574v-34.926c0-1.5,1.102-2.25,2.457-2.25H365.738z"/>
	<path fill="#EEEEEE" d="M366.32,396.699h132.75v34.5H366.32V396.699z"/>
	
		<linearGradient id="SVGID_29_" gradientUnits="userSpaceOnUse" x1="210.4995" y1="201.3047" x2="210.4995" y2="184.6694" gradientTransform="matrix(0.75 0 0 -0.75 221.203 558.6583)">
		<stop  offset="0" style="stop-color:#BC8823"/>
		<stop  offset="0.15" style="stop-color:#FDBE55"/>
		<stop  offset="0.25" style="stop-color:#FEDCB6"/>
		<stop  offset="0.52" style="stop-color:#DEA22B"/>
		<stop  offset="0.69" style="stop-color:#C58F25"/>
		<stop  offset="0.8" style="stop-color:#BA8723"/>
		<stop  offset="0.92" style="stop-color:#B07F20"/>
		<stop  offset="1" style="stop-color:#CA9327"/>
	</linearGradient>
	<path fill="url(#SVGID_29_)" d="M372.871,413.679c0-3,2.754-6,6.195-6c3.555,0,6.23,2.789,6.23,6.238
		c0.324,3.512-2.789,6.219-6.23,6.219c-3.195,0.293-6.23-2.789-6.23-6.219L372.871,413.679z"/>
	
		<linearGradient id="SVGID_30_" gradientUnits="userSpaceOnUse" x1="210.5005" y1="201.3047" x2="210.5005" y2="184.6694" gradientTransform="matrix(0.75 0 0 -0.75 246.7274 558.6583)">
		<stop  offset="0" style="stop-color:#AE4F52"/>
		<stop  offset="0.15" style="stop-color:#EC7D80"/>
		<stop  offset="0.25" style="stop-color:#F4C1C2"/>
		<stop  offset="0.52" style="stop-color:#CE5E62"/>
		<stop  offset="0.69" style="stop-color:#B75356"/>
		<stop  offset="0.8" style="stop-color:#AD4E51"/>
		<stop  offset="0.92" style="stop-color:#A3494C"/>
		<stop  offset="1" style="stop-color:#BB5559"/>
	</linearGradient>
	<path fill="url(#SVGID_30_)" d="M398.394,413.679c0-3,2.754-6,6.195-6c3.555,0,6.234,2.789,6.234,6.238
		c0.32,3.512-2.793,6.219-6.234,6.219c-3.195,0.293-6.23-2.789-6.23-6.219L398.394,413.679z"/>
	
		<linearGradient id="SVGID_31_" gradientUnits="userSpaceOnUse" x1="210.501" y1="201.3047" x2="210.501" y2="184.6694" gradientTransform="matrix(0.75 0 0 -0.75 272.2509 558.6583)">
		<stop  offset="0" style="stop-color:#AE4F52"/>
		<stop  offset="0.15" style="stop-color:#EC7D80"/>
		<stop  offset="0.25" style="stop-color:#F4C1C2"/>
		<stop  offset="0.52" style="stop-color:#CE5E62"/>
		<stop  offset="0.69" style="stop-color:#B75356"/>
		<stop  offset="0.8" style="stop-color:#AD4E51"/>
		<stop  offset="0.92" style="stop-color:#A3494C"/>
		<stop  offset="1" style="stop-color:#BB5559"/>
	</linearGradient>
	<path fill="url(#SVGID_31_)" d="M423.921,413.679c0-3,2.754-6,6.195-6c3.555,0,6.23,2.789,6.23,6.238
		c0.324,3.512-2.789,6.219-6.23,6.219c-3.195,0.293-6.234-2.789-6.234-6.219L423.921,413.679z"/>
	
		<linearGradient id="SVGID_32_" gradientUnits="userSpaceOnUse" x1="210.5034" y1="201.3047" x2="210.5034" y2="184.6694" gradientTransform="matrix(0.75 0 0 -0.75 297.7743 558.6583)">
		<stop  offset="0" style="stop-color:#398C8E"/>
		<stop  offset="0.15" style="stop-color:#67C3C5"/>
		<stop  offset="0.25" style="stop-color:#BBDEE0"/>
		<stop  offset="0.52" style="stop-color:#45A6A9"/>
		<stop  offset="0.69" style="stop-color:#3C9396"/>
		<stop  offset="0.8" style="stop-color:#388B8D"/>
		<stop  offset="0.92" style="stop-color:#358385"/>
		<stop  offset="1" style="stop-color:#3E9799"/>
	</linearGradient>
	<path fill="url(#SVGID_32_)" d="M449.445,413.679c0-3,2.754-6,6.195-6c3.555,0,6.23,2.789,6.23,6.238
		c0.324,3.512-2.789,6.219-6.23,6.219c-3.195,0.293-6.23-2.789-6.23-6.219L449.445,413.679z"/>
	
		<linearGradient id="SVGID_33_" gradientUnits="userSpaceOnUse" x1="213.1133" y1="201.3057" x2="213.1133" y2="179.4238" gradientTransform="matrix(0.75 0 0 -0.75 323.2987 556.6769)">
		<stop  offset="0" style="stop-color:#000000"/>
		<stop  offset="0.15" style="stop-color:#454545"/>
		<stop  offset="0.25" style="stop-color:#B3B3B3"/>
		<stop  offset="0.52" style="stop-color:#000000"/>
		<stop  offset="0.69" style="stop-color:#000000"/>
		<stop  offset="0.8" style="stop-color:#000000"/>
		<stop  offset="0.92" style="stop-color:#000000"/>
		<stop  offset="1" style="stop-color:#000000"/>
	</linearGradient>
	<path fill="url(#SVGID_33_)" d="M474.968,413.949c0-4.5,3.629-8.25,8.164-8.25c4.586,0,8.211,3.672,8.211,8.219
		c0.125,4.531-3.676,8.191-8.211,8.191c-4.414,0.09-8.211-3.672-8.211-8.191L474.968,413.949z"/>
	<path fill="#617482" d="M110.977,255.414c0-9,6.945-15.809,15.578-15.809c8.422,0.059,15.578,6.969,15.578,15.566
		c0.344,8.492-7.004,15.57-15.578,15.57c-8.828-0.328-15.578-6.973-15.578-15.57V255.414z"/>
	<path fill="#3E3938" stroke="#3E3938" stroke-linejoin="bevel" stroke-miterlimit="10" d="M62.25,294.328h28.5
		c1.5,0,2.262,1.098,2.262,2.453L93,324.328c0,0.75-1.086,2.109-2.441,2.109l-28.309,0.141c-1.5,0-2.25-1.27-2.25-2.625v-27.375
		c0-1.5,1.066-2.25,2.422-2.25H62.25z"/>
	
		<linearGradient id="SVGID_34_" gradientUnits="userSpaceOnUse" x1="227.4028" y1="191.3838" x2="202.2261" y2="191.3838" gradientTransform="matrix(0.75 0 0 -0.75 -81.5719 387.3146)">
		<stop  offset="0" style="stop-color:#000000"/>
		<stop  offset="0.15" style="stop-color:#454545"/>
		<stop  offset="0.25" style="stop-color:#B3B3B3"/>
		<stop  offset="0.52" style="stop-color:#000000"/>
		<stop  offset="0.69" style="stop-color:#000000"/>
		<stop  offset="0.8" style="stop-color:#000000"/>
		<stop  offset="0.92" style="stop-color:#000000"/>
		<stop  offset="1" style="stop-color:#000000"/>
	</linearGradient>
	<path fill="url(#SVGID_34_)" d="M84.348,236.336c0.75,0.75,0.383,2.254,1.527,4.055c1.473,1.945,3.105,2.414,3.105,3.375
		c-0.133,0.82-1.945,1.621-3.027,3.254c-0.855,1.316-0.633,3.539-1.695,4.094c-1.41,0.223-2.309-0.691-4.746-0.68
		c-2.664,0.152-3.773,1.121-4.695,0.68c-0.969-0.527-0.492-2.078-1.781-4.039c-1.438-1.738-2.938-2.215-2.938-3.309
		c0-1.43,1.723-1.543,3.012-3.473c1.488-1.707,1.02-3.57,1.707-3.875c0.531-0.082,2.117,0.68,4.766,0.68
		c2.516-0.012,3.949-1.082,4.676-0.68L84.348,236.336z"/>
	<path fill="#FFFFFF" fill-opacity="0.2" d="M84.102,236.73c0.75,0.75,0.352,2.133,1.434,3.84c0.816,1.41,2.938,2.285,2.938,3.199
		c0.129,1.211-1.836,1.535-2.863,3.078c-0.758,1.883-0.598,3.352-1.605,3.883c-0.652,0.25-2.184-0.656-4.488-0.645
		c-2.164,0.145-3.574,1.059-4.445,0.645c-0.719-0.5-0.469-1.973-1.688-3.828c-1.281-1.922-2.781-2.098-2.781-3.133
		c0-1.039,1.633-1.465,2.852-3.293c0.898-1.496,0.965-3.383,1.617-3.668c0.781-0.078,2.004,0.641,4.508,0.641
		c2.273,0.031,3.742-1.023,4.426-0.641L84.102,236.73z"/>
	<path fill="#3E3938" stroke="#9E9F9F" stroke-linejoin="bevel" stroke-miterlimit="10" d="M73.734,243.82
		c0-3,2.598-5.25,5.805-5.25c3.195,0,5.805,2.336,5.805,5.219c-0.359,3.031-2.602,5.219-5.805,5.219
		c-3.555,0.063-5.805-2.336-5.805-5.219V243.82z"/>
	<path fill="#FFFFFF" fill-opacity="0.1725" d="M79.922,243.77c0-2.25-3.156-4.5-0.383-4.5c2.633,0,5.02,2.02,5.02,4.52
		c-0.137,2.23-2.246,4.508-5.02,4.508c-2.617-0.027,0.277-1.684,0.277-4.18L79.922,243.77z"/>
	
		<linearGradient id="SVGID_35_" gradientUnits="userSpaceOnUse" x1="227.4023" y1="191.3838" x2="202.2246" y2="191.3838" gradientTransform="matrix(0.75 0 0 -0.75 -125.755 295.2286)">
		<stop  offset="0" style="stop-color:#000000"/>
		<stop  offset="0.15" style="stop-color:#454545"/>
		<stop  offset="0.25" style="stop-color:#B3B3B3"/>
		<stop  offset="0.52" style="stop-color:#000000"/>
		<stop  offset="0.69" style="stop-color:#000000"/>
		<stop  offset="0.8" style="stop-color:#000000"/>
		<stop  offset="0.92" style="stop-color:#000000"/>
		<stop  offset="1" style="stop-color:#000000"/>
	</linearGradient>
	<path fill="url(#SVGID_35_)" d="M40.164,144.25c0.75,0.75,0.383,2.254,1.527,4.055c1.473,1.945,3.105,2.414,3.105,3.375
		c-0.133,0.82-1.945,1.621-3.027,3.254c-0.855,1.316-0.633,3.539-1.695,4.094c-1.41,0.223-2.309-0.691-4.742-0.676
		c-2.668,0.148-3.777,1.117-4.699,0.676c-0.969-0.527-0.492-2.078-1.781-4.039c-1.438-1.738-2.938-2.211-2.938-3.309
		c0-1.43,1.723-1.543,3.012-3.473c1.488-1.707,1.02-3.57,1.707-3.875c0.531-0.082,2.117,0.68,4.766,0.68
		c2.516-0.012,3.953-1.082,4.676-0.68L40.164,144.25z"/>
	<path fill="#FFFFFF" fill-opacity="0.2" d="M39.918,144.645c0.75,0.75,0.352,2.133,1.434,3.84c0.816,1.41,2.941,2.285,2.941,3.199
		c0.125,1.211-1.84,1.535-2.863,3.078c-0.762,1.883-0.602,3.352-1.609,3.883c-0.652,0.25-2.184-0.656-4.488-0.645
		c-2.164,0.145-3.574,1.059-4.445,0.645c-0.719-0.5-0.469-1.973-1.688-3.828c-1.281-1.922-2.781-2.098-2.781-3.133
		c0-1.039,1.633-1.465,2.852-3.293c0.898-1.496,0.965-3.383,1.617-3.668c0.781-0.078,2.004,0.641,4.508,0.641
		c2.273,0.031,3.742-1.023,4.426-0.641L39.918,144.645z"/>
	<path fill="#3E3938" stroke="#9E9F9F" stroke-linejoin="bevel" stroke-miterlimit="10" d="M29.551,151.734
		c0-3,2.598-5.25,5.805-5.25c3.195,0,5.805,2.336,5.805,5.219c-0.359,3.031-2.598,5.219-5.805,5.219
		c-3.555,0.063-5.805-2.336-5.805-5.219V151.734z"/>
	<path fill="#FFFFFF" fill-opacity="0.1725" d="M35.738,151.684c0-2.25-3.156-4.5-0.383-4.5c2.633,0,5.02,2.02,5.02,4.52
		c-0.137,2.23-2.246,4.508-5.02,4.508c-2.617-0.027,0.277-1.684,0.277-4.18L35.738,151.684z"/>
	
		<linearGradient id="SVGID_36_" gradientUnits="userSpaceOnUse" x1="223.2217" y1="192.3027" x2="202.2217" y2="192.3027" gradientTransform="matrix(0.75 0 0 -0.75 271.2157 460.8077)">
		<stop  offset="0" style="stop-color:#2B2827"/>
		<stop  offset="0.15" style="stop-color:#5B5858"/>
		<stop  offset="0.25" style="stop-color:#B8B7B7"/>
		<stop  offset="0.52" style="stop-color:#353130"/>
		<stop  offset="0.69" style="stop-color:#2E2A29"/>
		<stop  offset="0.8" style="stop-color:#2B2726"/>
		<stop  offset="0.92" style="stop-color:#282424"/>
		<stop  offset="1" style="stop-color:#2F2B2B"/>
	</linearGradient>
	<path fill="url(#SVGID_36_)" d="M434.132,309.832l4.5,6.75l-4.5,6.75h-7.5l-3.75-6.75l3.75-6.75H434.132z"/>
	<path fill="#3E3938" d="M426.359,316.941c0-2.25,1.977-4.523,4.465-4.523c2.285,0.023,4.508,2.016,4.508,4.504
		c0.027,2.27-2.02,4.5-4.508,4.5c-2.215,0.02-4.508-2.016-4.508-4.5L426.359,316.941z"/>
	
		<linearGradient id="SVGID_37_" gradientUnits="userSpaceOnUse" x1="223.2246" y1="192.3027" x2="202.2246" y2="192.3027" gradientTransform="matrix(0.75 0 0 -0.75 325.37 460.8077)">
		<stop  offset="0" style="stop-color:#2B2827"/>
		<stop  offset="0.15" style="stop-color:#5B5858"/>
		<stop  offset="0.25" style="stop-color:#B8B7B7"/>
		<stop  offset="0.52" style="stop-color:#353130"/>
		<stop  offset="0.69" style="stop-color:#2E2A29"/>
		<stop  offset="0.8" style="stop-color:#2B2726"/>
		<stop  offset="0.92" style="stop-color:#282424"/>
		<stop  offset="1" style="stop-color:#2F2B2B"/>
	</linearGradient>
	<path fill="url(#SVGID_37_)" d="M488.289,309.832l4.5,6.75l-4.5,6.75h-7.5l-3.75-6.75l3.75-6.75H488.289z"/>
	<path fill="#3E3938" d="M480.511,316.941c0-2.25,1.98-4.523,4.469-4.523c2.281,0.023,4.504,2.016,4.504,4.504
		c0.027,2.27-2.016,4.5-4.504,4.5c-2.219,0.02-4.508-2.016-4.508-4.5L480.511,316.941z"/>
	<path fill="#FFFFFF" fill-opacity="0.3686" d="M409.14,225.656h42c2.25,0,3.789,1.648,3.789,3.68l-0.039,40.57
		c0,2.25-1.609,3.934-3.645,3.934l-42.105-0.184c-2.25,0-3.75-1.508-3.75-3.543v-40.707c0-2.25,1.605-3.75,3.637-3.75H409.14z"/>
	<path fill="#FFFFFF" fill-opacity="0.2353" d="M464.027,228.285h22.5c0.75,0,1.633,0.441,1.633,0.992l-0.133,11.008
		c0,0.75-0.746,1.004-1.828,1.004l-22.172-0.254c-1.5,0-2.25-0.203-2.25-0.75v-11.25c0,0,0.852-0.75,1.938-0.75H464.027z"/>
	<path fill="#FFFFFF" fill-opacity="0.2353" d="M464.027,244.777h22.5c0.75,0,1.633,0.441,1.633,0.992l-0.133,11.008
		c0,0.75-0.746,1.004-1.828,1.004l-22.172-0.254c-1.5,0-2.25-0.203-2.25-0.754v-11.246c0,0,0.852-0.75,1.938-0.75H464.027z"/>
	
		<linearGradient id="SVGID_38_" gradientUnits="userSpaceOnUse" x1="605.2251" y1="195.3032" x2="202.2256" y2="195.3032" gradientTransform="matrix(0.75 0 0 -0.75 65.2054 484.4611)">
		<stop  offset="0" style="stop-color:#292525"/>
		<stop  offset="0.01" style="stop-color:#868584"/>
		<stop  offset="0.02" style="stop-color:#383433"/>
		<stop  offset="0.64" style="stop-color:#373332"/>
		<stop  offset="0.99" style="stop-color:#363130"/>
		<stop  offset="1" style="stop-color:#252221"/>
	</linearGradient>
	<path fill="url(#SVGID_38_)" d="M216.875,342.484h302.25v-9h-302.25V342.484z"/>
	
		<linearGradient id="SVGID_39_" gradientUnits="userSpaceOnUse" x1="285.2241" y1="156.8066" x2="202.2241" y2="156.8066" gradientTransform="matrix(0.75 0 0 -0.75 147.6239 291.5148)">
		<stop  offset="0" style="stop-color:#74947B"/>
		<stop  offset="0.01" style="stop-color:#BCDCC3"/>
		<stop  offset="0.02" style="stop-color:#99C1A1"/>
		<stop  offset="0.64" style="stop-color:#96BE9E"/>
		<stop  offset="0.99" style="stop-color:#93BA9B"/>
		<stop  offset="1" style="stop-color:#6C8972"/>
	</linearGradient>
	<path fill="url(#SVGID_39_)" d="M299.292,140.535h17.25l45,40.5v26.25h-62.25V140.535z"/>
	
		<linearGradient id="SVGID_40_" gradientUnits="userSpaceOnUse" x1="306.6626" y1="128.3032" x2="202.2256" y2="128.3032" gradientTransform="matrix(0.75 0 0 -0.75 137.7401 358.09)">
		<stop  offset="0" style="stop-color:#74947B"/>
		<stop  offset="0.01" style="stop-color:#BCDCC3"/>
		<stop  offset="0.02" style="stop-color:#99C1A1"/>
		<stop  offset="0.64" style="stop-color:#96BE9E"/>
		<stop  offset="0.99" style="stop-color:#93BA9B"/>
		<stop  offset="1" style="stop-color:#6C8972"/>
	</linearGradient>
	<path fill="url(#SVGID_40_)" d="M291.66,207.113h73.5c1.5,0,2.578,1.039,2.578,2.395l-0.328,104.855
		c0,0.75-0.789,2.168-2.172,2.168l-73.578,0.082c-1.5,0-2.25-1.211-2.25-2.566V209.363c0-1.5,1.09-2.25,2.469-2.25H291.66z"/>
	
		<linearGradient id="SVGID_41_" gradientUnits="userSpaceOnUse" x1="227.3989" y1="191.3838" x2="202.2271" y2="191.3838" gradientTransform="matrix(0.75 0 0 -0.75 180.6454 378.2755)">
		<stop  offset="0" style="stop-color:#000000"/>
		<stop  offset="0.15" style="stop-color:#454545"/>
		<stop  offset="0.25" style="stop-color:#B3B3B3"/>
		<stop  offset="0.52" style="stop-color:#000000"/>
		<stop  offset="0.69" style="stop-color:#000000"/>
		<stop  offset="0.8" style="stop-color:#000000"/>
		<stop  offset="0.92" style="stop-color:#000000"/>
		<stop  offset="1" style="stop-color:#000000"/>
	</linearGradient>
	<path fill="url(#SVGID_41_)" d="M346.566,227.297c0.75,0.75,0.379,2.254,1.523,4.055c1.477,1.945,3.105,2.414,3.105,3.375
		c-0.129,0.82-1.941,1.621-3.023,3.254c-0.855,1.316-0.633,3.539-1.699,4.094c-1.406,0.223-2.305-0.691-4.742-0.676
		c-2.664,0.148-3.773,1.117-4.695,0.676c-0.969-0.527-0.492-2.078-1.781-4.039c-1.438-1.738-2.938-2.211-2.938-3.309
		c0-1.43,1.723-1.543,3.008-3.473c1.492-1.707,1.023-3.57,1.711-3.875c0.531-0.082,2.117,0.68,4.762,0.68
		c2.52-0.012,3.953-1.082,4.676-0.68L346.566,227.297z"/>
	<path fill="#FFFFFF" fill-opacity="0.2" d="M346.32,227.691c0.75,0.75,0.348,2.133,1.434,3.84c0.816,1.41,2.938,2.285,2.938,3.199
		c0.129,1.211-1.84,1.535-2.863,3.078c-0.758,1.883-0.598,3.352-1.605,3.883c-0.652,0.25-2.184-0.656-4.492-0.645
		c-2.16,0.145-3.57,1.059-4.445,0.645c-0.715-0.5-0.465-1.973-1.684-3.828c-1.281-1.922-2.781-2.098-2.781-3.133
		c0-1.039,1.629-1.465,2.848-3.293c0.902-1.496,0.969-3.383,1.617-3.668c0.785-0.078,2.004,0.641,4.512,0.641
		c2.273,0.031,3.738-1.023,4.426-0.641L346.32,227.691z"/>
	<path fill="#3E3938" stroke="#9E9F9F" stroke-linejoin="bevel" stroke-miterlimit="10" d="M335.949,234.781
		c0-3,2.602-5.25,5.805-5.25c3.195,0,5.805,2.336,5.805,5.219c-0.359,3.031-2.598,5.219-5.805,5.219
		c-3.555,0.063-5.805-2.336-5.805-5.219V234.781z"/>
	<path fill="#FFFFFF" fill-opacity="0.1725" d="M342.14,234.73c0-2.25-3.156-4.5-0.387-4.5c2.637,0,5.023,2.02,5.023,4.52
		c-0.137,2.23-2.25,4.508-5.023,4.508c-2.613-0.027,0.277-1.684,0.277-4.18L342.14,234.73z"/>
</g>
</svg>
