<?xml version="1.0" encoding="utf-8"?>
<!-- Generator: Adobe Illustrator 16.0.0, SVG Export Plug-In . SVG Version: 6.00 Build 0)  -->
<!DOCTYPE svg PUBLIC "-//W3C//DTD SVG 1.1//EN" "http://www.w3.org/Graphics/SVG/1.1/DTD/svg11.dtd">
<svg preserveAspectRatio="none" version="1.1" id="图层_1" xmlns="http://www.w3.org/2000/svg" xmlns:xlink="http://www.w3.org/1999/xlink" x="0px" y="0px"
	 width="561.285px" height="561.3px" viewBox="2.82 6.75 561.285 561.3" enable-background="new 2.82 6.75 561.285 561.3"
	 xml:space="preserve">
<g id="surface676">
	
		<linearGradient id="SVGID_1_" gradientUnits="userSpaceOnUse" x1="345.2251" y1="128.8057" x2="202.2266" y2="128.8056" gradientTransform="matrix(0.75 0 0 -0.75 78.0287 216.756)">
		<stop  offset="0" style="stop-color:#B5B5B5"/>
		<stop  offset="0.01" style="stop-color:#FFFFFF"/>
		<stop  offset="0.02" style="stop-color:#EBEBEB"/>
		<stop  offset="0.64" style="stop-color:#E7E7E7"/>
		<stop  offset="0.99" style="stop-color:#E2E2E2"/>
		<stop  offset="1" style="stop-color:#A8A8A8"/>
	</linearGradient>
	<path fill="url(#SVGID_1_)" d="M229.699,174.527h107.25V65.777h-107.25V174.527z"/>
	
		<linearGradient id="SVGID_2_" gradientUnits="userSpaceOnUse" x1="609.2251" y1="-3.2896" x2="202.2256" y2="-3.2896" gradientTransform="matrix(0.75 0 0 -0.75 -20.8029 325.5577)">
		<stop  offset="0" style="stop-color:#B3A593"/>
		<stop  offset="0.01" style="stop-color:#FDEEDA"/>
		<stop  offset="0.02" style="stop-color:#E9D7BF"/>
		<stop  offset="0.64" style="stop-color:#E5D3BC"/>
		<stop  offset="0.99" style="stop-color:#E0CEB8"/>
		<stop  offset="1" style="stop-color:#A69988"/>
	</linearGradient>
	<path fill="url(#SVGID_2_)" d="M133.867,174.582h299.25c1.5,0,2.945,1.203,2.945,2.691l0.055,301.808c0,1.5-1.254,2.387-2.73,2.387
		l-299.519-0.137c-1.5,0-3-1.066-3-2.555V177.582c0-1.5,1.199-3,2.676-3H133.867z"/>
	<path fill="#EEEEEE" d="M141.398,182.91h283.5c1.5,0,2.883,1.148,2.883,2.633l0.117,284.617c0,1.5-1.316,2.98-2.793,2.98
		l-283.707,0.02c-0.75,0-2.25-1.223-2.25-2.711V185.91c0-1.5,1.145-3,2.621-3H141.398z"/>
	
		<linearGradient id="SVGID_3_" gradientUnits="userSpaceOnUse" x1="950.6011" y1="190.5781" x2="202.2222" y2="190.5781" gradientTransform="matrix(0.75 0 0 -0.75 -148.8468 471.1798)">
		<stop  offset="0" style="stop-color:#7098A9"/>
		<stop  offset="0.01" style="stop-color:#B8E1F2"/>
		<stop  offset="0.02" style="stop-color:#93C7DC"/>
		<stop  offset="0.64" style="stop-color:#91C4D9"/>
		<stop  offset="0.99" style="stop-color:#8DBFD4"/>
		<stop  offset="1" style="stop-color:#688D9D"/>
	</linearGradient>
	<path fill="url(#SVGID_3_)" d="M5.82,320.203h555.75c1.5,0,2.535,1.176,2.535,2.664l-0.285,10.836c0,1.5-0.914,2.621-2.391,2.621
		L5.82,335.953c-1.5,0-3-0.832-3-2.32v-10.43c0-1.5,1.172-3.031,2.652-3.031L5.82,320.203z"/>
	
		<linearGradient id="SVGID_4_" gradientUnits="userSpaceOnUse" x1="643.2231" y1="182.3062" x2="202.2241" y2="182.3061" gradientTransform="matrix(0.75 0 0 -0.75 -33.7428 487.3029)">
		<stop  offset="0" style="stop-color:#5F89A6"/>
		<stop  offset="0.01" style="stop-color:#AAD1EF"/>
		<stop  offset="0.02" style="stop-color:#7EB3D8"/>
		<stop  offset="0.64" style="stop-color:#7CB0D5"/>
		<stop  offset="0.99" style="stop-color:#79ACD0"/>
		<stop  offset="1" style="stop-color:#587F9A"/>
	</linearGradient>
	<path fill="url(#SVGID_4_)" d="M117.926,336.324h330.75v28.5h-330.75V336.324z"/>
	
		<linearGradient id="SVGID_5_" gradientUnits="userSpaceOnUse" x1="292.7241" y1="201.3057" x2="292.7241" y2="57.3057" gradientTransform="matrix(0.75 0 0 -0.75 63.8285 516.0177)">
		<stop  offset="0" style="stop-color:#92A6AE"/>
		<stop  offset="0.04" style="stop-color:#DAEFF8"/>
		<stop  offset="0.06" style="stop-color:#BED8E3"/>
		<stop  offset="0.64" style="stop-color:#BBD5DF"/>
		<stop  offset="0.96" style="stop-color:#B7D0DA"/>
		<stop  offset="1" style="stop-color:#879AA2"/>
	</linearGradient>
	<path fill="url(#SVGID_5_)" d="M249.246,365.039h68.25l33.75,108h-135.75L249.246,365.039z"/>
	
		<linearGradient id="SVGID_6_" gradientUnits="userSpaceOnUse" x1="642.2222" y1="194.8052" x2="202.2231" y2="194.8051" gradientTransform="matrix(0.75 0 0 -0.75 -33.1012 631.7745)">
		<stop  offset="0" style="stop-color:#4A5964"/>
		<stop  offset="0.01" style="stop-color:#99A4AD"/>
		<stop  offset="0.02" style="stop-color:#627583"/>
		<stop  offset="0.64" style="stop-color:#607381"/>
		<stop  offset="0.99" style="stop-color:#5E717E"/>
		<stop  offset="1" style="stop-color:#44525C"/>
	</linearGradient>
	<path fill="url(#SVGID_6_)" d="M121.566,480.796h324c1.5,0,2.797,1.203,2.797,2.691l0.203,4.059c0,1.5-1.402,2.941-2.883,2.941
		l-324.117,0.059c-1.5,0-3-1.266-3-2.75v-4c0-1.5,1.168-3,2.645-3H121.566z"/>
	
		<linearGradient id="SVGID_7_" gradientUnits="userSpaceOnUse" x1="339.2251" y1="195.8037" x2="202.2251" y2="195.8037" gradientTransform="matrix(0.75 0 0 -0.75 80.2601 507.4923)">
		<stop  offset="0" style="stop-color:#B5B5B5"/>
		<stop  offset="0.01" style="stop-color:#FFFFFF"/>
		<stop  offset="0.02" style="stop-color:#EBEBEB"/>
		<stop  offset="0.64" style="stop-color:#E7E7E7"/>
		<stop  offset="0.99" style="stop-color:#E2E2E2"/>
		<stop  offset="1" style="stop-color:#A8A8A8"/>
	</linearGradient>
	<path fill="url(#SVGID_7_)" d="M231.93,356.515h102.75v8.25H231.93V356.515z"/>
	
		<linearGradient id="SVGID_8_" gradientUnits="userSpaceOnUse" x1="316.2231" y1="4.3042" x2="202.2236" y2="4.3042" gradientTransform="matrix(0.75 0 0 -0.75 88.9608 175.9259)">
		<stop  offset="0" style="stop-color:#B5B5B5"/>
		<stop  offset="0.01" style="stop-color:#FFFFFF"/>
		<stop  offset="0.02" style="stop-color:#EBEBEB"/>
		<stop  offset="0.64" style="stop-color:#E7E7E7"/>
		<stop  offset="0.99" style="stop-color:#E2E2E2"/>
		<stop  offset="1" style="stop-color:#A8A8A8"/>
	</linearGradient>
	<path fill="url(#SVGID_8_)" d="M240.629,320.449h85.5v-295.5h-85.5V320.449z"/>
	
		<linearGradient id="SVGID_9_" gradientUnits="userSpaceOnUse" x1="269.3789" y1="140.8037" x2="202.2236" y2="140.8037" gradientTransform="matrix(0.75 0 0 -0.75 106.6132 157.7277)">
		<stop  offset="0" style="stop-color:#343232"/>
		<stop  offset="0.15" style="stop-color:#555454"/>
		<stop  offset="0.26" style="stop-color:#797777"/>
		<stop  offset="0.41" style="stop-color:#5D5B5B"/>
		<stop  offset="0.6" style="stop-color:#484646"/>
		<stop  offset="0.8" style="stop-color:#383636"/>
		<stop  offset="0.93" style="stop-color:#2C2B2B"/>
		<stop  offset="1" style="stop-color:#535151"/>
	</linearGradient>
	<path fill="url(#SVGID_9_)" d="M261.281,6.75h45c0.75,0,2.367,1.188,2.367,2.676L308.531,94.5c0,1.5-1.133,2.684-2.613,2.684
		L261.281,97.5c-1.5,0-3-1.52-3-3.008V9.75c0-1.5,1.184-3,2.66-3H261.281z"/>
	
		<linearGradient id="SVGID_10_" gradientUnits="userSpaceOnUse" x1="331.2261" y1="178.5908" x2="202.2271" y2="178.5908" gradientTransform="matrix(0.75 0 0 -0.75 83.6063 246.3956)">
		<stop  offset="0" style="stop-color:#7098A9"/>
		<stop  offset="0.01" style="stop-color:#B8E1F2"/>
		<stop  offset="0.02" style="stop-color:#93C7DC"/>
		<stop  offset="0.64" style="stop-color:#91C4D9"/>
		<stop  offset="0.99" style="stop-color:#8DBFD4"/>
		<stop  offset="1" style="stop-color:#688D9D"/>
	</linearGradient>
	<path fill="url(#SVGID_10_)" d="M238.277,95.418h90.75c1.5,0,2.625,1.176,2.625,2.664l0.375,28.836c0,1.5-1.574,2.57-3.051,2.57
		l-90.699-0.32c-1.5,0-3-0.883-3-2.371V98.418c0-1.5,1.195-3,2.676-3H238.277z"/>
	
		<linearGradient id="SVGID_11_" gradientUnits="userSpaceOnUse" x1="259.2241" y1="201.3018" x2="259.2241" y2="194.3018" gradientTransform="matrix(0.75 0 0 -0.75 88.9608 460.4728)">
		<stop  offset="0" style="stop-color:#BDBDBD"/>
		<stop  offset="0.15" style="stop-color:#FFFFFF"/>
		<stop  offset="0.25" style="stop-color:#FFFFFF"/>
		<stop  offset="0.52" style="stop-color:#DFDFDF"/>
		<stop  offset="0.69" style="stop-color:#C7C7C7"/>
		<stop  offset="0.8" style="stop-color:#BCBCBC"/>
		<stop  offset="0.92" style="stop-color:#B1B1B1"/>
		<stop  offset="1" style="stop-color:#CBCBCB"/>
	</linearGradient>
	<path fill="url(#SVGID_11_)" d="M240.629,314.746h85.5v-5.25h-85.5V314.746z"/>
	
		<linearGradient id="SVGID_12_" gradientUnits="userSpaceOnUse" x1="259.2241" y1="201.3027" x2="259.2241" y2="194.3027" gradientTransform="matrix(0.75 0 0 -0.75 88.9608 448.8048)">
		<stop  offset="0" style="stop-color:#BDBDBD"/>
		<stop  offset="0.15" style="stop-color:#FFFFFF"/>
		<stop  offset="0.25" style="stop-color:#FFFFFF"/>
		<stop  offset="0.52" style="stop-color:#DFDFDF"/>
		<stop  offset="0.69" style="stop-color:#C7C7C7"/>
		<stop  offset="0.8" style="stop-color:#BCBCBC"/>
		<stop  offset="0.92" style="stop-color:#B1B1B1"/>
		<stop  offset="1" style="stop-color:#CBCBCB"/>
	</linearGradient>
	<path fill="url(#SVGID_12_)" d="M240.629,303.078h85.5v-5.25h-85.5V303.078z"/>
	
		<linearGradient id="SVGID_13_" gradientUnits="userSpaceOnUse" x1="259.2241" y1="201.3037" x2="259.2241" y2="194.3037" gradientTransform="matrix(0.75 0 0 -0.75 88.9608 438.3204)">
		<stop  offset="0" style="stop-color:#BDBDBD"/>
		<stop  offset="0.15" style="stop-color:#FFFFFF"/>
		<stop  offset="0.25" style="stop-color:#FFFFFF"/>
		<stop  offset="0.52" style="stop-color:#DFDFDF"/>
		<stop  offset="0.69" style="stop-color:#C7C7C7"/>
		<stop  offset="0.8" style="stop-color:#BCBCBC"/>
		<stop  offset="0.92" style="stop-color:#B1B1B1"/>
		<stop  offset="1" style="stop-color:#CBCBCB"/>
	</linearGradient>
	<path fill="url(#SVGID_13_)" d="M240.629,292.593h85.5v-5.25h-85.5V292.593z"/>
	
		<linearGradient id="SVGID_14_" gradientUnits="userSpaceOnUse" x1="259.2241" y1="201.3037" x2="259.2241" y2="194.3037" gradientTransform="matrix(0.75 0 0 -0.75 88.9608 426.2198)">
		<stop  offset="0" style="stop-color:#BDBDBD"/>
		<stop  offset="0.15" style="stop-color:#FFFFFF"/>
		<stop  offset="0.25" style="stop-color:#FFFFFF"/>
		<stop  offset="0.52" style="stop-color:#DFDFDF"/>
		<stop  offset="0.69" style="stop-color:#C7C7C7"/>
		<stop  offset="0.8" style="stop-color:#BCBCBC"/>
		<stop  offset="0.92" style="stop-color:#B1B1B1"/>
		<stop  offset="1" style="stop-color:#CBCBCB"/>
	</linearGradient>
	<path fill="url(#SVGID_14_)" d="M240.629,280.492h85.5v-5.25h-85.5V280.492z"/>
	
		<linearGradient id="SVGID_15_" gradientUnits="userSpaceOnUse" x1="259.2241" y1="201.3037" x2="259.2241" y2="194.3037" gradientTransform="matrix(0.75 0 0 -0.75 88.9608 413.8029)">
		<stop  offset="0" style="stop-color:#BDBDBD"/>
		<stop  offset="0.15" style="stop-color:#FFFFFF"/>
		<stop  offset="0.25" style="stop-color:#FFFFFF"/>
		<stop  offset="0.52" style="stop-color:#DFDFDF"/>
		<stop  offset="0.69" style="stop-color:#C7C7C7"/>
		<stop  offset="0.8" style="stop-color:#BCBCBC"/>
		<stop  offset="0.92" style="stop-color:#B1B1B1"/>
		<stop  offset="1" style="stop-color:#CBCBCB"/>
	</linearGradient>
	<path fill="url(#SVGID_15_)" d="M240.629,268.074h85.5v-5.25h-85.5V268.074z"/>
	
		<linearGradient id="SVGID_16_" gradientUnits="userSpaceOnUse" x1="259.2241" y1="201.3047" x2="259.2241" y2="194.3047" gradientTransform="matrix(0.75 0 0 -0.75 88.9608 402.1349)">
		<stop  offset="0" style="stop-color:#BDBDBD"/>
		<stop  offset="0.15" style="stop-color:#FFFFFF"/>
		<stop  offset="0.25" style="stop-color:#FFFFFF"/>
		<stop  offset="0.52" style="stop-color:#DFDFDF"/>
		<stop  offset="0.69" style="stop-color:#C7C7C7"/>
		<stop  offset="0.8" style="stop-color:#BCBCBC"/>
		<stop  offset="0.92" style="stop-color:#B1B1B1"/>
		<stop  offset="1" style="stop-color:#CBCBCB"/>
	</linearGradient>
	<path fill="url(#SVGID_16_)" d="M240.629,256.406h85.5v-5.25h-85.5V256.406z"/>
	
		<linearGradient id="SVGID_17_" gradientUnits="userSpaceOnUse" x1="216.2251" y1="201.3018" x2="216.2251" y2="171.3018" gradientTransform="matrix(0.75 0 0 -0.75 85.4095 186.2462)">
		<stop  offset="0" style="stop-color:#4E4D4D"/>
		<stop  offset="0.04" style="stop-color:#9C9B9B"/>
		<stop  offset="0.06" style="stop-color:#686767"/>
		<stop  offset="0.64" style="stop-color:#666565"/>
		<stop  offset="0.96" style="stop-color:#636262"/>
		<stop  offset="1" style="stop-color:#484747"/>
	</linearGradient>
	<path fill="url(#SVGID_17_)" d="M258.078,35.27h-21v22.5h21V35.27z"/>
	
		<linearGradient id="SVGID_18_" gradientUnits="userSpaceOnUse" x1="322.2222" y1="201.3066" x2="322.2222" y2="185.3057" gradientTransform="matrix(0.75 0 0 -0.75 175.0741 188.131)">
		<stop  offset="0" style="stop-color:#BDBDBD"/>
		<stop  offset="0.15" style="stop-color:#FFFFFF"/>
		<stop  offset="0.25" style="stop-color:#FFFFFF"/>
		<stop  offset="0.52" style="stop-color:#DFDFDF"/>
		<stop  offset="0.69" style="stop-color:#C7C7C7"/>
		<stop  offset="0.8" style="stop-color:#BCBCBC"/>
		<stop  offset="0.92" style="stop-color:#B1B1B1"/>
		<stop  offset="1" style="stop-color:#CBCBCB"/>
	</linearGradient>
	<path fill="url(#SVGID_18_)" d="M326.742,37.152h180v12h-180V37.152z"/>
	
		<linearGradient id="SVGID_19_" gradientUnits="userSpaceOnUse" x1="88.3057" y1="402.2261" x2="88.3057" y2="386.2261" gradientTransform="matrix(0 -0.75 0.75 0 204.9784 168.6036)">
		<stop  offset="0" style="stop-color:#BDBDBD"/>
		<stop  offset="0.15" style="stop-color:#FFFFFF"/>
		<stop  offset="0.25" style="stop-color:#FFFFFF"/>
		<stop  offset="0.52" style="stop-color:#DFDFDF"/>
		<stop  offset="0.69" style="stop-color:#C7C7C7"/>
		<stop  offset="0.8" style="stop-color:#BCBCBC"/>
		<stop  offset="0.92" style="stop-color:#B1B1B1"/>
		<stop  offset="1" style="stop-color:#CBCBCB"/>
	</linearGradient>
	<path fill="url(#SVGID_19_)" d="M506.648,167.625v-130.5h-12v130.5H506.648z"/>
	
		<linearGradient id="SVGID_20_" gradientUnits="userSpaceOnUse" x1="326.4868" y1="160.3027" x2="202.2212" y2="160.3027" gradientTransform="matrix(0.75 0 0 -0.75 302.4891 299.0587)">
		<stop  offset="0" style="stop-color:#4A5964"/>
		<stop  offset="0.01" style="stop-color:#99A4AD"/>
		<stop  offset="0.02" style="stop-color:#627583"/>
		<stop  offset="0.64" style="stop-color:#607381"/>
		<stop  offset="0.99" style="stop-color:#5E717E"/>
		<stop  offset="1" style="stop-color:#44525C"/>
	</linearGradient>
	<path fill="url(#SVGID_20_)" d="M457.156,148.082h87.75c1.5,0,2.449,1.188,2.449,2.676l-0.199,55.824c0,1.5-1.066,2.91-2.543,2.91
		l-87.457,0.09c-1.5,0-3-1.344-3-2.832v-55.668c0-1.5,1.168-3,2.645-3H457.156z"/>
	<path fill="#617482" stroke="#8A9BA7" stroke-linejoin="bevel" stroke-miterlimit="10" d="M462.488,153.301h76.5
		c1.5,0,3.039,1.461,3.039,3.262l-0.039,44.738c0,1.5-1.281,2.891-2.887,2.891l-76.613,0.109c-1.5,0-3-1.57-3-3.375v-44.625
		c0-1.5,1.301-3,2.906-3H462.488z"/>
	
		<linearGradient id="SVGID_21_" gradientUnits="userSpaceOnUse" x1="305.2231" y1="162.3066" x2="202.2227" y2="162.3066" gradientTransform="matrix(0.75 0 0 -0.75 297.3085 516.0177)">
		<stop  offset="0" style="stop-color:#7098A9"/>
		<stop  offset="0.01" style="stop-color:#B8E1F2"/>
		<stop  offset="0.02" style="stop-color:#93C7DC"/>
		<stop  offset="0.64" style="stop-color:#91C4D9"/>
		<stop  offset="0.99" style="stop-color:#8DBFD4"/>
		<stop  offset="1" style="stop-color:#688D9D"/>
	</linearGradient>
	<path fill="url(#SVGID_21_)" d="M448.976,365.039h77.25v58.5h-77.25V365.039z"/>
	
		<linearGradient id="SVGID_22_" gradientUnits="userSpaceOnUse" x1="209.2256" y1="142.8057" x2="202.2256" y2="142.8057" gradientTransform="matrix(0.75 0 0 -0.75 291.7987 487.3029)">
		<stop  offset="0" style="stop-color:#7098A9"/>
		<stop  offset="0.01" style="stop-color:#B8E1F2"/>
		<stop  offset="0.02" style="stop-color:#93C7DC"/>
		<stop  offset="0.64" style="stop-color:#91C4D9"/>
		<stop  offset="0.99" style="stop-color:#8DBFD4"/>
		<stop  offset="1" style="stop-color:#688D9D"/>
	</linearGradient>
	<path fill="url(#SVGID_22_)" d="M448.718,336.324h-5.25v87.75h5.25V336.324z"/>
	
		<linearGradient id="SVGID_23_" gradientUnits="userSpaceOnUse" x1="635.2222" y1="175.8052" x2="202.2231" y2="175.8051" gradientTransform="matrix(0.75 0 0 -0.75 -30.441 641.4659)">
		<stop  offset="0" style="stop-color:#4A5964"/>
		<stop  offset="0.01" style="stop-color:#99A4AD"/>
		<stop  offset="0.02" style="stop-color:#627583"/>
		<stop  offset="0.64" style="stop-color:#607381"/>
		<stop  offset="0.99" style="stop-color:#5E717E"/>
		<stop  offset="1" style="stop-color:#44525C"/>
	</linearGradient>
	<path fill="url(#SVGID_23_)" d="M121.227,490.488h324.75l-60.75,38.25h-203.25L121.227,490.488z"/>
	
		<linearGradient id="SVGID_24_" gradientUnits="userSpaceOnUse" x1="473.2212" y1="175.3062" x2="202.2222" y2="175.3061" gradientTransform="matrix(0.75 0 0 -0.75 30.0634 680.0284)">
		<stop  offset="0" style="stop-color:#4A5964"/>
		<stop  offset="0.01" style="stop-color:#99A4AD"/>
		<stop  offset="0.02" style="stop-color:#627583"/>
		<stop  offset="0.64" style="stop-color:#607381"/>
		<stop  offset="0.99" style="stop-color:#5E717E"/>
		<stop  offset="1" style="stop-color:#44525C"/>
	</linearGradient>
	<path fill="url(#SVGID_24_)" d="M384.98,529.05v37.5c0,0.75-0.98,1.469-2.461,1.469L184.73,568.05c-1.5,0-3-0.633-3-1.375V529.05
		H384.98z"/>
	
		<linearGradient id="SVGID_25_" gradientUnits="userSpaceOnUse" x1="544.2876" y1="190.5718" x2="202.2261" y2="190.5717" gradientTransform="matrix(0.75 0 0 -0.75 3.5214 470.9259)">
		<stop  offset="0" style="stop-color:#4A5964"/>
		<stop  offset="0.01" style="stop-color:#99A4AD"/>
		<stop  offset="0.02" style="stop-color:#627583"/>
		<stop  offset="0.64" style="stop-color:#607381"/>
		<stop  offset="0.99" style="stop-color:#5E717E"/>
		<stop  offset="1" style="stop-color:#44525C"/>
	</linearGradient>
	<path fill="url(#SVGID_25_)" d="M156.691,319.949h253.5c0.75,0,1.547,1.176,1.547,2.664l-0.047,10.836c0,1.5-0.5,2.625-1.176,2.625
		l-253.824-0.375c-0.75,0-1.5-0.832-1.5-2.316v-10.434c0-1.5,0.535-3.027,1.211-3.027L156.691,319.949z"/>
	
		<linearGradient id="SVGID_26_" gradientUnits="userSpaceOnUse" x1="211.2588" y1="201.4033" x2="211.2588" y2="182.3037" gradientTransform="matrix(0.75 0 0 -0.75 177.868 304.9474)">
		<stop  offset="0" style="stop-color:#2B2827"/>
		<stop  offset="0.15" style="stop-color:#5B5858"/>
		<stop  offset="0.25" style="stop-color:#B8B7B7"/>
		<stop  offset="0.52" style="stop-color:#353130"/>
		<stop  offset="0.69" style="stop-color:#2E2A29"/>
		<stop  offset="0.8" style="stop-color:#2B2726"/>
		<stop  offset="0.92" style="stop-color:#282424"/>
		<stop  offset="1" style="stop-color:#2F2B2B"/>
	</linearGradient>
	<path fill="url(#SVGID_26_)" d="M332.535,153.969h8.25c0.75,0,2.305,1.133,2.305,2.621l-0.055,8.629c0,1.5-1.145,2.676-2.621,2.676
		l-7.879,0.324c-1.5,0-3-1.527-3-3.016v-8.984c0-0.75,1.188-2.324,2.668-2.324L332.535,153.969z"/>
	
		<linearGradient id="SVGID_27_" gradientUnits="userSpaceOnUse" x1="211.2588" y1="201.4004" x2="211.2588" y2="182.3018" gradientTransform="matrix(0.75 0 0 -0.75 177.868 339.8868)">
		<stop  offset="0" style="stop-color:#2B2827"/>
		<stop  offset="0.15" style="stop-color:#5B5858"/>
		<stop  offset="0.25" style="stop-color:#B8B7B7"/>
		<stop  offset="0.52" style="stop-color:#353130"/>
		<stop  offset="0.69" style="stop-color:#2E2A29"/>
		<stop  offset="0.8" style="stop-color:#2B2726"/>
		<stop  offset="0.92" style="stop-color:#282424"/>
		<stop  offset="1" style="stop-color:#2F2B2B"/>
	</linearGradient>
	<path fill="url(#SVGID_27_)" d="M332.535,188.91h8.25c0.75,0,2.305,1.133,2.305,2.617l-0.055,8.633c0,1.5-1.145,2.676-2.621,2.676
		l-7.879,0.324c-1.5,0-3-1.531-3-3.016v-8.984c0-0.75,1.188-2.324,2.668-2.324L332.535,188.91z"/>
	<path fill="#FFFFFF" fill-opacity="0.3922" d="M256.691,119.215h53.25v-15.75h-53.25V119.215z"/>
	
		<linearGradient id="SVGID_28_" gradientUnits="userSpaceOnUse" x1="267.2266" y1="201.3027" x2="267.2266" y2="43.3027" gradientTransform="matrix(0.75 0 0 -0.75 83.1464 279.1212)">
		<stop  offset="0" style="stop-color:#5F89A6"/>
		<stop  offset="0.01" style="stop-color:#AAD1EF"/>
		<stop  offset="0.02" style="stop-color:#7EB3D8"/>
		<stop  offset="0.64" style="stop-color:#7CB0D5"/>
		<stop  offset="0.99" style="stop-color:#79ACD0"/>
		<stop  offset="1" style="stop-color:#587F9A"/>
	</linearGradient>
	<path fill="url(#SVGID_28_)" d="M237.816,128.145h91.5c1.5,0,2.797,1.203,2.797,2.691l0.203,112.809c0,1.5-1.43,2.949-2.906,2.949
		l-91.593,0.051c-1.5,0-3-1.258-3-2.746V131.145c0-1.5,1.199-3,2.676-3H237.816z"/>
	
		<linearGradient id="SVGID_29_" gradientUnits="userSpaceOnUse" x1="332.2251" y1="135.3047" x2="202.2261" y2="135.3047" gradientTransform="matrix(0.75 0 0 -0.75 83.1464 290.8146)">
		<stop  offset="0" style="stop-color:#7098A9"/>
		<stop  offset="0.01" style="stop-color:#B8E1F2"/>
		<stop  offset="0.02" style="stop-color:#93C7DC"/>
		<stop  offset="0.64" style="stop-color:#91C4D9"/>
		<stop  offset="0.99" style="stop-color:#8DBFD4"/>
		<stop  offset="1" style="stop-color:#688D9D"/>
	</linearGradient>
	<path fill="url(#SVGID_29_)" d="M237.816,139.836h91.5c1.5,0,2.797,1.18,2.797,2.664l0.203,93.336c0,1.5-1.402,2.68-2.879,2.68
		l-91.621,0.32c-1.5,0-3-1.527-3-3.012v-92.988c0-1.5,1.199-3,2.676-3H237.816z"/>
	
		<linearGradient id="SVGID_30_" gradientUnits="userSpaceOnUse" x1="254.2261" y1="194.8076" x2="202.2261" y2="194.8076" gradientTransform="matrix(0.75 0 0 -0.75 90.4667 375.1359)">
		<stop  offset="0" style="stop-color:#5F89A6"/>
		<stop  offset="0.01" style="stop-color:#AAD1EF"/>
		<stop  offset="0.02" style="stop-color:#7EB3D8"/>
		<stop  offset="0.64" style="stop-color:#7CB0D5"/>
		<stop  offset="0.99" style="stop-color:#79ACD0"/>
		<stop  offset="1" style="stop-color:#587F9A"/>
	</linearGradient>
	<path fill="url(#SVGID_30_)" d="M242.137,224.156h39v9.75h-39V224.156z"/>
	
		<linearGradient id="SVGID_31_" gradientUnits="userSpaceOnUse" x1="254.2236" y1="194.8076" x2="202.2236" y2="194.8076" gradientTransform="matrix(0.75 0 0 -0.75 134.0228 375.1359)">
		<stop  offset="0" style="stop-color:#5F89A6"/>
		<stop  offset="0.01" style="stop-color:#AAD1EF"/>
		<stop  offset="0.02" style="stop-color:#7EB3D8"/>
		<stop  offset="0.64" style="stop-color:#7CB0D5"/>
		<stop  offset="0.99" style="stop-color:#79ACD0"/>
		<stop  offset="1" style="stop-color:#587F9A"/>
	</linearGradient>
	<path fill="url(#SVGID_31_)" d="M285.691,224.156h39v9.75h-39V224.156z"/>
	
		<linearGradient id="SVGID_32_" gradientUnits="userSpaceOnUse" x1="332.2271" y1="200.3037" x2="202.2271" y2="200.3037" gradientTransform="matrix(0.75 0 0 -0.75 83.0712 300.8361)">
		<stop  offset="0" style="stop-color:#5F89A6"/>
		<stop  offset="0.01" style="stop-color:#AAD1EF"/>
		<stop  offset="0.02" style="stop-color:#7EB3D8"/>
		<stop  offset="0.64" style="stop-color:#7CB0D5"/>
		<stop  offset="0.99" style="stop-color:#79ACD0"/>
		<stop  offset="1" style="stop-color:#587F9A"/>
	</linearGradient>
	<path fill="url(#SVGID_32_)" d="M234.742,149.859h97.5v1.5h-97.5V149.859z"/>
	
		<linearGradient id="SVGID_33_" gradientUnits="userSpaceOnUse" x1="227.2241" y1="177.8037" x2="202.2241" y2="177.8037" gradientTransform="matrix(0.75 0 0 -0.75 64.4174 339.8126)">
		<stop  offset="0" style="stop-color:#5F89A6"/>
		<stop  offset="0.01" style="stop-color:#AAD1EF"/>
		<stop  offset="0.02" style="stop-color:#7EB3D8"/>
		<stop  offset="0.64" style="stop-color:#7CB0D5"/>
		<stop  offset="0.99" style="stop-color:#79ACD0"/>
		<stop  offset="1" style="stop-color:#587F9A"/>
	</linearGradient>
	<path fill="url(#SVGID_33_)" d="M216.086,188.836h18.75v35.25h-18.75V188.836z"/>
	<path fill="#FFFFFF" fill-opacity="0.3922" d="M458.265,369.917h58.5c1.5,0,2.414,1.012,2.414,2.301l-0.164,45.699
		c0,1.5-0.914,2.578-2.195,2.578l-58.555-0.328c-1.5,0-2.25-0.719-2.25-2.004v-45.996c0-1.5,0.984-2.25,2.266-2.25H458.265z"/>
	
		<linearGradient id="SVGID_34_" gradientUnits="userSpaceOnUse" x1="213.4023" y1="201.3271" x2="213.4023" y2="195.1035" gradientTransform="matrix(0.75 0 0 -0.75 353.1805 539.5724)">
		<stop  offset="0" style="stop-color:#2B2827"/>
		<stop  offset="0.15" style="stop-color:#5B5858"/>
		<stop  offset="0.25" style="stop-color:#B8B7B7"/>
		<stop  offset="0.52" style="stop-color:#353130"/>
		<stop  offset="0.69" style="stop-color:#2E2A29"/>
		<stop  offset="0.8" style="stop-color:#2B2726"/>
		<stop  offset="0.92" style="stop-color:#282424"/>
		<stop  offset="1" style="stop-color:#2F2B2B"/>
	</linearGradient>
	<path fill="url(#SVGID_34_)" d="M507.097,388.593h12c1.5,0,2.52,1.027,2.52,2.316c-0.27,1.434-1.039,2.336-2.32,2.336
		l-12.199-0.152c-1.5,0-2.25-0.895-2.25-2.184c0-1.566,1.031-2.332,2.313-2.332L507.097,388.593z"/>
	
		<linearGradient id="SVGID_35_" gradientUnits="userSpaceOnUse" x1="213.3813" y1="201.3027" x2="213.3813" y2="178.8711" gradientTransform="matrix(0.75 0 0 -0.75 339.9618 533.5157)">
		<stop  offset="0" style="stop-color:#2B2827"/>
		<stop  offset="0.15" style="stop-color:#5B5858"/>
		<stop  offset="0.25" style="stop-color:#B8B7B7"/>
		<stop  offset="0.52" style="stop-color:#353130"/>
		<stop  offset="0.69" style="stop-color:#2E2A29"/>
		<stop  offset="0.8" style="stop-color:#2B2726"/>
		<stop  offset="0.92" style="stop-color:#282424"/>
		<stop  offset="1" style="stop-color:#2F2B2B"/>
	</linearGradient>
	<path fill="url(#SVGID_35_)" d="M491.632,390.789c0-4.5,3.742-8.25,8.363-8.25c4.387,0,8.367,3.766,8.367,8.41
		c-0.23,4.34-3.746,8.414-8.367,8.414c-4.613-0.324-8.363-3.766-8.363-8.414V390.789z"/>
	<path fill="#CDCECE" d="M494.191,391.109c0-3.75,2.598-6,5.805-6c3.195,0,5.809,2.613,5.809,5.84
		c-0.363,3.16-2.602,5.844-5.809,5.844c-3.555,0.316-5.805-2.621-5.805-5.844V391.109z"/>
	
		<linearGradient id="SVGID_36_" gradientUnits="userSpaceOnUse" x1="12.5454" y1="402.2495" x2="12.5454" y2="396.062" gradientTransform="matrix(0 -0.75 0.75 0 181.3202 374.2872)">
		<stop  offset="0" style="stop-color:#2B2827"/>
		<stop  offset="0.15" style="stop-color:#5B5858"/>
		<stop  offset="0.25" style="stop-color:#B8B7B7"/>
		<stop  offset="0.52" style="stop-color:#353130"/>
		<stop  offset="0.69" style="stop-color:#2E2A29"/>
		<stop  offset="0.8" style="stop-color:#2B2726"/>
		<stop  offset="0.92" style="stop-color:#282424"/>
		<stop  offset="1" style="stop-color:#2F2B2B"/>
	</linearGradient>
	<path fill="url(#SVGID_36_)" d="M482.988,371.058v-12c0-1.5-1.02-2.609-2.301-2.609c-1.449,0.359-2.32,1.047-2.32,2.336
		l0.121,12.273c0,1.5,0.918,2.25,2.199,2.25c1.551,0,2.32-1.031,2.32-2.32L482.988,371.058z"/>
	
		<linearGradient id="SVGID_37_" gradientUnits="userSpaceOnUse" x1="12.5205" y1="402.2231" x2="12.5205" y2="379.9165" gradientTransform="matrix(0 -0.75 0.75 0 187.3436 387.5792)">
		<stop  offset="0" style="stop-color:#2B2827"/>
		<stop  offset="0.15" style="stop-color:#5B5858"/>
		<stop  offset="0.25" style="stop-color:#B8B7B7"/>
		<stop  offset="0.52" style="stop-color:#353130"/>
		<stop  offset="0.69" style="stop-color:#2E2A29"/>
		<stop  offset="0.8" style="stop-color:#2B2726"/>
		<stop  offset="0.92" style="stop-color:#282424"/>
		<stop  offset="1" style="stop-color:#2F2B2B"/>
	</linearGradient>
	<path fill="url(#SVGID_37_)" d="M480.761,386.601c4.5,0,8.25-3.766,8.25-8.414c0-4.336-3.746-8.41-8.363-8.41
		c-4.387,0.324-8.367,3.766-8.367,8.41c0.23,4.664,3.746,8.414,8.367,8.414H480.761z"/>
	<path fill="#CDCECE" d="M480.457,384.027c3.75,0,6-2.609,6-5.84c0-3.16-2.602-5.84-5.809-5.84c-3.191-0.32-5.809,2.617-5.809,5.84
		c0.367,3.59,2.602,5.84,5.809,5.84H480.457z"/>
	
		<linearGradient id="SVGID_38_" gradientUnits="userSpaceOnUse" x1="311.4194" y1="526.0601" x2="311.4194" y2="519.853" gradientTransform="matrix(-0.5303 0.5303 0.5303 0.5303 359.119 -30.0466)">
		<stop  offset="0" style="stop-color:#2B2827"/>
		<stop  offset="0.15" style="stop-color:#5B5858"/>
		<stop  offset="0.25" style="stop-color:#B8B7B7"/>
		<stop  offset="0.52" style="stop-color:#353130"/>
		<stop  offset="0.69" style="stop-color:#2E2A29"/>
		<stop  offset="0.8" style="stop-color:#2B2726"/>
		<stop  offset="0.92" style="stop-color:#282424"/>
		<stop  offset="1" style="stop-color:#2F2B2B"/>
	</linearGradient>
	<path fill="url(#SVGID_38_)" d="M477.289,409.73l-8.484,8.484c-1.063,1.063-2.535,1.086-3.445,0.18
		c-0.797-1.238-0.91-2.383,0-3.293l8.75-8.555c1.059-1.059,2.23-0.949,3.137-0.043c1.105,1.105,0.918,2.375,0.008,3.285
		L477.289,409.73z"/>
	
		<linearGradient id="SVGID_39_" gradientUnits="userSpaceOnUse" x1="311.3979" y1="526.0386" x2="311.3979" y2="503.6655" gradientTransform="matrix(-0.5303 0.5303 0.5303 0.5303 372.7626 -35.1481)">
		<stop  offset="0" style="stop-color:#2B2827"/>
		<stop  offset="0.15" style="stop-color:#5B5858"/>
		<stop  offset="0.25" style="stop-color:#B8B7B7"/>
		<stop  offset="0.52" style="stop-color:#353130"/>
		<stop  offset="0.69" style="stop-color:#2E2A29"/>
		<stop  offset="0.8" style="stop-color:#2B2726"/>
		<stop  offset="0.92" style="stop-color:#282424"/>
		<stop  offset="1" style="stop-color:#2F2B2B"/>
	</linearGradient>
	<path fill="url(#SVGID_39_)" d="M486.691,397.203c3.184,3.184,3.176,8.488-0.098,11.766c-3.086,3.086-8.59,3.277-11.867,0
		c-2.883-3.281-3.273-8.586,0-11.863c3.48-3.082,8.59-3.277,11.867,0L486.691,397.203z"/>
	<path fill="#CDCECE" d="M484.652,398.796c2.652,2.648,2.402,6.082,0.125,8.359c-2.246,2.246-5.961,2.273-8.234,0
		c-2.496-1.996-2.273-5.965,0-8.238c2.277-2.773,5.965-2.27,8.234,0L484.652,398.796z"/>
	
		<linearGradient id="SVGID_40_" gradientUnits="userSpaceOnUse" x1="213.3296" y1="195.7505" x2="202.2261" y2="195.7505" gradientTransform="matrix(0.75 0 0 -0.75 335.9276 314.4327)">
		<stop  offset="0" style="stop-color:#3B9193"/>
		<stop  offset="0.15" style="stop-color:#67C3C5"/>
		<stop  offset="0.25" style="stop-color:#BBDEE0"/>
		<stop  offset="0.44" style="stop-color:#45A6A9"/>
		<stop  offset="0.6" style="stop-color:#3C9396"/>
		<stop  offset="0.8" style="stop-color:#317C7E"/>
		<stop  offset="0.97" style="stop-color:#2C7173"/>
		<stop  offset="1" style="stop-color:#3E9799"/>
	</linearGradient>
	<path fill="url(#SVGID_40_)" d="M487.597,167.957c0-3,1.863-4.512,4.168-4.512c2.582,0.012,4.16,1.867,4.16,4.18
		c-0.078,2.582-1.863,4.172-4.16,4.172c-2.668-0.09-4.168-1.871-4.168-4.172V167.957z"/>
	<path fill="#2D2929" d="M489.878,167.988c0-1.5,0.84-2.262,1.883-2.262c1.117,0.012,1.887,0.848,1.887,1.891
		c-0.02,1.121-0.844,1.891-1.887,1.891c-1.133-0.02-1.887-0.848-1.887-1.891L489.878,167.988z"/>
	
		<linearGradient id="SVGID_41_" gradientUnits="userSpaceOnUse" x1="213.3311" y1="195.7505" x2="202.2266" y2="195.7505" gradientTransform="matrix(0.75 0 0 -0.75 318.0634 314.4327)">
		<stop  offset="0" style="stop-color:#C4C4C4"/>
		<stop  offset="0.15" style="stop-color:#FFFFFF"/>
		<stop  offset="0.25" style="stop-color:#FFFFFF"/>
		<stop  offset="0.44" style="stop-color:#DFDFDF"/>
		<stop  offset="0.6" style="stop-color:#C7C7C7"/>
		<stop  offset="0.8" style="stop-color:#A8A8A8"/>
		<stop  offset="0.97" style="stop-color:#999999"/>
		<stop  offset="1" style="stop-color:#CBCBCB"/>
	</linearGradient>
	<path fill="url(#SVGID_41_)" d="M469.734,167.957c0-3,1.863-4.512,4.168-4.512c2.582,0.012,4.16,1.867,4.16,4.18
		c-0.078,2.582-1.867,4.172-4.16,4.172c-2.668-0.09-4.168-1.871-4.168-4.172V167.957z"/>
	<path fill="#2D2929" d="M472.015,167.988c0-1.5,0.84-2.262,1.883-2.262c1.117,0.012,1.883,0.848,1.883,1.891
		c-0.016,1.121-0.844,1.891-1.883,1.891c-1.133-0.02-1.887-0.848-1.887-1.891L472.015,167.988z"/>
	
		<linearGradient id="SVGID_42_" gradientUnits="userSpaceOnUse" x1="213.3311" y1="195.7505" x2="202.2275" y2="195.7505" gradientTransform="matrix(0.75 0 0 -0.75 371.6571 314.4327)">
		<stop  offset="0" style="stop-color:#3B9193"/>
		<stop  offset="0.15" style="stop-color:#67C3C5"/>
		<stop  offset="0.25" style="stop-color:#BBDEE0"/>
		<stop  offset="0.44" style="stop-color:#45A6A9"/>
		<stop  offset="0.6" style="stop-color:#3C9396"/>
		<stop  offset="0.8" style="stop-color:#317C7E"/>
		<stop  offset="0.97" style="stop-color:#2C7173"/>
		<stop  offset="1" style="stop-color:#3E9799"/>
	</linearGradient>
	<path fill="url(#SVGID_42_)" d="M523.328,167.957c0-3,1.863-4.512,4.168-4.512c2.582,0.012,4.16,1.867,4.16,4.18
		c-0.078,2.582-1.867,4.172-4.16,4.172c-2.668-0.09-4.168-1.871-4.168-4.172V167.957z"/>
	<path fill="#2D2929" d="M525.609,167.988c0-1.5,0.84-2.262,1.883-2.262c1.117,0.012,1.883,0.848,1.883,1.891
		c-0.016,1.121-0.844,1.891-1.883,1.891c-1.133-0.02-1.887-0.848-1.887-1.891L525.609,167.988z"/>
	
		<linearGradient id="SVGID_43_" gradientUnits="userSpaceOnUse" x1="213.3276" y1="195.7505" x2="202.2231" y2="195.7505" gradientTransform="matrix(0.75 0 0 -0.75 353.7928 314.4327)">
		<stop  offset="0" style="stop-color:#B86D76"/>
		<stop  offset="0.15" style="stop-color:#F19AA3"/>
		<stop  offset="0.25" style="stop-color:#F7CCD0"/>
		<stop  offset="0.44" style="stop-color:#D27D87"/>
		<stop  offset="0.6" style="stop-color:#BB6F78"/>
		<stop  offset="0.8" style="stop-color:#9E5D64"/>
		<stop  offset="0.97" style="stop-color:#90545B"/>
		<stop  offset="1" style="stop-color:#BF727B"/>
	</linearGradient>
	<path fill="url(#SVGID_43_)" d="M505.46,167.957c0-3,1.867-4.512,4.172-4.512c2.578,0.012,4.156,1.867,4.156,4.18
		c-0.078,2.582-1.863,4.172-4.156,4.172c-2.672-0.09-4.172-1.871-4.172-4.172V167.957z"/>
	<path fill="#2D2929" d="M507.746,167.988c0-1.5,0.84-2.262,1.879-2.262c1.121,0.012,1.887,0.848,1.887,1.891
		c-0.016,1.121-0.844,1.891-1.887,1.891c-1.129-0.02-1.883-0.848-1.883-1.891L507.746,167.988z"/>
	
		<linearGradient id="SVGID_44_" gradientUnits="userSpaceOnUse" x1="213.3296" y1="195.748" x2="202.2261" y2="195.748" gradientTransform="matrix(0.75 0 0 -0.75 335.9276 334.1603)">
		<stop  offset="0" style="stop-color:#3B9193"/>
		<stop  offset="0.15" style="stop-color:#67C3C5"/>
		<stop  offset="0.25" style="stop-color:#BBDEE0"/>
		<stop  offset="0.44" style="stop-color:#45A6A9"/>
		<stop  offset="0.6" style="stop-color:#3C9396"/>
		<stop  offset="0.8" style="stop-color:#317C7E"/>
		<stop  offset="0.97" style="stop-color:#2C7173"/>
		<stop  offset="1" style="stop-color:#3E9799"/>
	</linearGradient>
	<path fill="url(#SVGID_44_)" d="M487.597,187.684c0-3,1.863-4.512,4.168-4.512c2.582,0.012,4.16,1.871,4.16,4.184
		c-0.078,2.578-1.863,4.172-4.16,4.172c-2.668-0.094-4.168-1.875-4.168-4.172V187.684z"/>
	<path fill="#2D2929" d="M489.878,187.715c0-1.5,0.84-2.262,1.883-2.262c1.117,0.012,1.887,0.848,1.887,1.891
		c-0.02,1.121-0.844,1.891-1.887,1.891c-1.133-0.02-1.887-0.848-1.887-1.891L489.878,187.715z"/>
	
		<linearGradient id="SVGID_45_" gradientUnits="userSpaceOnUse" x1="213.3311" y1="195.748" x2="202.2266" y2="195.748" gradientTransform="matrix(0.75 0 0 -0.75 318.0634 334.1603)">
		<stop  offset="0" style="stop-color:#C4C4C4"/>
		<stop  offset="0.15" style="stop-color:#FFFFFF"/>
		<stop  offset="0.25" style="stop-color:#FFFFFF"/>
		<stop  offset="0.44" style="stop-color:#DFDFDF"/>
		<stop  offset="0.6" style="stop-color:#C7C7C7"/>
		<stop  offset="0.8" style="stop-color:#A8A8A8"/>
		<stop  offset="0.97" style="stop-color:#999999"/>
		<stop  offset="1" style="stop-color:#CBCBCB"/>
	</linearGradient>
	<path fill="url(#SVGID_45_)" d="M469.734,187.684c0-3,1.863-4.512,4.168-4.512c2.582,0.012,4.16,1.871,4.16,4.184
		c-0.078,2.578-1.867,4.172-4.16,4.172c-2.668-0.094-4.168-1.875-4.168-4.172V187.684z"/>
	<path fill="#2D2929" d="M472.015,187.715c0-1.5,0.84-2.262,1.883-2.262c1.117,0.012,1.883,0.848,1.883,1.891
		c-0.016,1.121-0.844,1.891-1.883,1.891c-1.133-0.02-1.887-0.848-1.887-1.891L472.015,187.715z"/>
	
		<linearGradient id="SVGID_46_" gradientUnits="userSpaceOnUse" x1="213.3311" y1="195.748" x2="202.2275" y2="195.748" gradientTransform="matrix(0.75 0 0 -0.75 371.6571 334.1603)">
		<stop  offset="0" style="stop-color:#3B9193"/>
		<stop  offset="0.15" style="stop-color:#67C3C5"/>
		<stop  offset="0.25" style="stop-color:#BBDEE0"/>
		<stop  offset="0.44" style="stop-color:#45A6A9"/>
		<stop  offset="0.6" style="stop-color:#3C9396"/>
		<stop  offset="0.8" style="stop-color:#317C7E"/>
		<stop  offset="0.97" style="stop-color:#2C7173"/>
		<stop  offset="1" style="stop-color:#3E9799"/>
	</linearGradient>
	<path fill="url(#SVGID_46_)" d="M523.328,187.684c0-3,1.863-4.512,4.168-4.512c2.582,0.012,4.16,1.871,4.16,4.184
		c-0.078,2.578-1.867,4.172-4.16,4.172c-2.668-0.094-4.168-1.875-4.168-4.172V187.684z"/>
	<path fill="#2D2929" d="M525.609,187.715c0-1.5,0.84-2.262,1.883-2.262c1.117,0.012,1.883,0.848,1.883,1.891
		c-0.016,1.121-0.844,1.891-1.883,1.891c-1.133-0.02-1.887-0.848-1.887-1.891L525.609,187.715z"/>
	
		<linearGradient id="SVGID_47_" gradientUnits="userSpaceOnUse" x1="213.3276" y1="195.748" x2="202.2231" y2="195.748" gradientTransform="matrix(0.75 0 0 -0.75 353.7928 334.1603)">
		<stop  offset="0" style="stop-color:#B86D76"/>
		<stop  offset="0.15" style="stop-color:#F19AA3"/>
		<stop  offset="0.25" style="stop-color:#F7CCD0"/>
		<stop  offset="0.44" style="stop-color:#D27D87"/>
		<stop  offset="0.6" style="stop-color:#BB6F78"/>
		<stop  offset="0.8" style="stop-color:#9E5D64"/>
		<stop  offset="0.97" style="stop-color:#90545B"/>
		<stop  offset="1" style="stop-color:#BF727B"/>
	</linearGradient>
	<path fill="url(#SVGID_47_)" d="M505.46,187.684c0-3,1.867-4.512,4.172-4.512c2.578,0.012,4.156,1.871,4.156,4.184
		c-0.078,2.578-1.863,4.172-4.156,4.172c-2.672-0.094-4.172-1.875-4.172-4.172V187.684z"/>
	<path fill="#2D2929" d="M507.746,187.715c0-1.5,0.84-2.262,1.879-2.262c1.121,0.012,1.887,0.848,1.887,1.891
		c-0.016,1.121-0.844,1.891-1.887,1.891c-1.129-0.02-1.883-0.848-1.883-1.891L507.746,187.715z"/>
	<path fill="#8A9BA7" d="M459.531,178.07h82.5v1.5h-82.5V178.07z"/>
</g>
</svg>
