<?xml version="1.0" encoding="utf-8"?>
<!-- Generator: Adobe Illustrator 16.0.0, SVG Export Plug-In . SVG Version: 6.00 Build 0)  -->
<!DOCTYPE svg PUBLIC "-//W3C//DTD SVG 1.1//EN" "http://www.w3.org/Graphics/SVG/1.1/DTD/svg11.dtd">
<svg preserveAspectRatio="none" version="1.1" id="图层_1" xmlns="http://www.w3.org/2000/svg" xmlns:xlink="http://www.w3.org/1999/xlink" x="0px" y="0px"
	 width="564px" height="270.039px" viewBox="1.594 297.039 564 270.039" enable-background="new 1.594 297.039 564 270.039"
	 xml:space="preserve">
<g id="surface896">
	
		<linearGradient id="SVGID_1_" gradientUnits="userSpaceOnUse" x1="954.2251" y1="100.374" x2="202.2261" y2="100.374" gradientTransform="matrix(0.75 0 0 -0.75 -150.0763 523.4669)">
		<stop  offset="0" style="stop-color:#007A6E"/>
		<stop  offset="0.01" style="stop-color:#7CC2B6"/>
		<stop  offset="0.02" style="stop-color:#00A090"/>
		<stop  offset="0.64" style="stop-color:#009D8E"/>
		<stop  offset="0.99" style="stop-color:#009A8B"/>
		<stop  offset="1" style="stop-color:#007165"/>
	</linearGradient>
	<path fill="url(#SVGID_1_)" d="M1.594,372.488l210.75,1.5l0.75,56.25h350.25c0.75,0,1.992,0.488,1.992,1.137l0.258,91.113
		c0,0.75-1.035,1.398-1.855,1.398L3.094,523.238c-0.75,0-1.5-0.379-1.5-1.027V372.488z"/>
	
		<linearGradient id="SVGID_2_" gradientUnits="userSpaceOnUse" x1="277.2256" y1="177.7876" x2="202.2256" y2="177.7876" gradientTransform="matrix(0.75 0 0 -0.75 257.9471 631.4073)">
		<stop  offset="0" style="stop-color:#00675C"/>
		<stop  offset="0.01" style="stop-color:#7CB1A7"/>
		<stop  offset="0.02" style="stop-color:#008879"/>
		<stop  offset="0.64" style="stop-color:#008677"/>
		<stop  offset="0.99" style="stop-color:#008274"/>
		<stop  offset="1" style="stop-color:#005F55"/>
	</linearGradient>
	<path fill="url(#SVGID_2_)" d="M409.617,480.429h55.5c0,0,0.516,0.125,0.516,0.277l0.234,34.973c0,0-0.402,0.027-0.605,0.027
		l-55.645-0.027c0,0,0-0.098,0-0.25V480.429c0,0,0.164,0,0.367,0H409.617z"/>
	
		<linearGradient id="SVGID_3_" gradientUnits="userSpaceOnUse" x1="259.2256" y1="182.3037" x2="202.2256" y2="182.3037" gradientTransform="matrix(0.75 0 0 -0.75 264.7635 631.4064)">
		<stop  offset="0" style="stop-color:#A8A8A8"/>
		<stop  offset="0.01" style="stop-color:#F2F2F2"/>
		<stop  offset="0.02" style="stop-color:#DBDBDB"/>
		<stop  offset="0.64" style="stop-color:#D8D8D8"/>
		<stop  offset="0.99" style="stop-color:#D3D3D3"/>
		<stop  offset="1" style="stop-color:#9C9C9C"/>
	</linearGradient>
	<path fill="url(#SVGID_3_)" d="M416.433,480.429h42.75v28.5h-42.75V480.429z"/>
	
		<linearGradient id="SVGID_4_" gradientUnits="userSpaceOnUse" x1="954.2251" y1="111.8071" x2="202.2261" y2="111.8071" gradientTransform="matrix(0.75 0 0 -0.75 -150.0763 448.0177)">
		<stop  offset="0" style="stop-color:#007A6E"/>
		<stop  offset="0.01" style="stop-color:#7CC2B6"/>
		<stop  offset="0.02" style="stop-color:#00A090"/>
		<stop  offset="0.64" style="stop-color:#009D8E"/>
		<stop  offset="0.99" style="stop-color:#009A8B"/>
		<stop  offset="1" style="stop-color:#007165"/>
	</linearGradient>
	<path fill="url(#SVGID_4_)" d="M44.344,297.039h477.75c23.25,0,43.242,16.113,43.242,35.629l0.258,98.621h-57.75v-56.25H1.594
		v-42.75c0-19.5,18.98-35.25,42.398-35.25H44.344z"/>
	
		<linearGradient id="SVGID_5_" gradientUnits="userSpaceOnUse" x1="208.2236" y1="197.8047" x2="202.2236" y2="197.8047" gradientTransform="matrix(0.75 0 0 -0.75 -92.1447 709.3761)">
		<stop  offset="0" style="stop-color:#00675C"/>
		<stop  offset="0.01" style="stop-color:#7CB1A7"/>
		<stop  offset="0.02" style="stop-color:#008879"/>
		<stop  offset="0.64" style="stop-color:#008677"/>
		<stop  offset="0.99" style="stop-color:#008274"/>
		<stop  offset="1" style="stop-color:#005F55"/>
	</linearGradient>
	<path fill="url(#SVGID_5_)" d="M59.523,558.398h4.5v5.25h-4.5V558.398z"/>
	
		<linearGradient id="SVGID_6_" gradientUnits="userSpaceOnUse" x1="217.2236" y1="198.3057" x2="202.2236" y2="198.3057" gradientTransform="matrix(0.75 0 0 -0.75 -95.4611 713.5568)">
		<stop  offset="0" style="stop-color:#00675C"/>
		<stop  offset="0.01" style="stop-color:#7CB1A7"/>
		<stop  offset="0.02" style="stop-color:#008879"/>
		<stop  offset="0.64" style="stop-color:#008677"/>
		<stop  offset="0.99" style="stop-color:#008274"/>
		<stop  offset="1" style="stop-color:#005F55"/>
	</linearGradient>
	<path fill="url(#SVGID_6_)" d="M57.707,562.578h8.25c0.75,0,1.305,0.211,1.305,0.465l0.195,3.285c0,0.75-0.723,0.605-1.371,0.605
		l-8.379,0.145c-0.75,0-1.5-0.352-1.5-0.605v-3.145c0-0.75,0.527-0.75,1.18-0.75H57.707z"/>
	
		<linearGradient id="SVGID_7_" gradientUnits="userSpaceOnUse" x1="220.2236" y1="145.8027" x2="202.2236" y2="145.8027" gradientTransform="matrix(0.75 0 0 -0.75 -96.5665 626.2697)">
		<stop  offset="0" style="stop-color:#00675C"/>
		<stop  offset="0.01" style="stop-color:#7CB1A7"/>
		<stop  offset="0.02" style="stop-color:#008879"/>
		<stop  offset="0.64" style="stop-color:#008677"/>
		<stop  offset="0.99" style="stop-color:#008274"/>
		<stop  offset="1" style="stop-color:#005F55"/>
	</linearGradient>
	<path fill="url(#SVGID_7_)" d="M55.102,475.292h13.5v83.25h-13.5V475.292z"/>
	
		<linearGradient id="SVGID_8_" gradientUnits="userSpaceOnUse" x1="208.2241" y1="197.8047" x2="202.2241" y2="197.8047" gradientTransform="matrix(0.75 0 0 -0.75 354.2059 709.3761)">
		<stop  offset="0" style="stop-color:#00675C"/>
		<stop  offset="0.01" style="stop-color:#7CB1A7"/>
		<stop  offset="0.02" style="stop-color:#008879"/>
		<stop  offset="0.64" style="stop-color:#008677"/>
		<stop  offset="0.99" style="stop-color:#008274"/>
		<stop  offset="1" style="stop-color:#005F55"/>
	</linearGradient>
	<path fill="url(#SVGID_8_)" d="M505.875,558.398h4.5v5.25h-4.5V558.398z"/>
	
		<linearGradient id="SVGID_9_" gradientUnits="userSpaceOnUse" x1="217.2241" y1="198.3057" x2="202.2241" y2="198.3057" gradientTransform="matrix(0.75 0 0 -0.75 350.8895 713.5568)">
		<stop  offset="0" style="stop-color:#00675C"/>
		<stop  offset="0.01" style="stop-color:#7CB1A7"/>
		<stop  offset="0.02" style="stop-color:#008879"/>
		<stop  offset="0.64" style="stop-color:#008677"/>
		<stop  offset="0.99" style="stop-color:#008274"/>
		<stop  offset="1" style="stop-color:#005F55"/>
	</linearGradient>
	<path fill="url(#SVGID_9_)" d="M504.058,562.578h8.25c0.75,0,1.305,0.211,1.305,0.465l0.195,3.285c0,0.75-0.723,0.605-1.375,0.605
		l-8.375,0.145c-0.75,0-1.5-0.352-1.5-0.605v-3.145c0-0.75,0.527-0.75,1.18-0.75H504.058z"/>
	
		<linearGradient id="SVGID_10_" gradientUnits="userSpaceOnUse" x1="220.2246" y1="145.8027" x2="202.2246" y2="145.8027" gradientTransform="matrix(0.75 0 0 -0.75 349.7841 626.2697)">
		<stop  offset="0" style="stop-color:#00675C"/>
		<stop  offset="0.01" style="stop-color:#7CB1A7"/>
		<stop  offset="0.02" style="stop-color:#008879"/>
		<stop  offset="0.64" style="stop-color:#008677"/>
		<stop  offset="0.99" style="stop-color:#008274"/>
		<stop  offset="1" style="stop-color:#005F55"/>
	</linearGradient>
	<path fill="url(#SVGID_10_)" d="M501.453,475.292h13.5v83.25h-13.5V475.292z"/>
	
		<linearGradient id="SVGID_11_" gradientUnits="userSpaceOnUse" x1="834.2251" y1="184.3052" x2="202.2261" y2="184.3051" gradientTransform="matrix(0.75 0 0 -0.75 -103.2013 615.4777)">
		<stop  offset="0" style="stop-color:#00675C"/>
		<stop  offset="0.01" style="stop-color:#7CB1A7"/>
		<stop  offset="0.02" style="stop-color:#008879"/>
		<stop  offset="0.64" style="stop-color:#008677"/>
		<stop  offset="0.99" style="stop-color:#008274"/>
		<stop  offset="1" style="stop-color:#005F55"/>
	</linearGradient>
	<path fill="url(#SVGID_11_)" d="M48.469,464.5h474V490h-474V464.5z"/>
	
		<linearGradient id="SVGID_12_" gradientUnits="userSpaceOnUse" x1="208.2246" y1="197.8047" x2="202.2256" y2="197.8047" gradientTransform="matrix(0.75 0 0 -0.75 131.0302 709.3761)">
		<stop  offset="0" style="stop-color:#00675C"/>
		<stop  offset="0.01" style="stop-color:#7CB1A7"/>
		<stop  offset="0.02" style="stop-color:#008879"/>
		<stop  offset="0.64" style="stop-color:#008677"/>
		<stop  offset="0.99" style="stop-color:#008274"/>
		<stop  offset="1" style="stop-color:#005F55"/>
	</linearGradient>
	<path fill="url(#SVGID_12_)" d="M282.699,558.398h4.5v5.25h-4.5V558.398z"/>
	
		<linearGradient id="SVGID_13_" gradientUnits="userSpaceOnUse" x1="217.2246" y1="198.3057" x2="202.2256" y2="198.3057" gradientTransform="matrix(0.75 0 0 -0.75 127.7137 713.5568)">
		<stop  offset="0" style="stop-color:#00675C"/>
		<stop  offset="0.01" style="stop-color:#7CB1A7"/>
		<stop  offset="0.02" style="stop-color:#008879"/>
		<stop  offset="0.64" style="stop-color:#008677"/>
		<stop  offset="0.99" style="stop-color:#008274"/>
		<stop  offset="1" style="stop-color:#005F55"/>
	</linearGradient>
	<path fill="url(#SVGID_13_)" d="M280.883,562.578h8.25c0.75,0,1.305,0.211,1.305,0.465l0.195,3.285c0,0.75-0.723,0.605-1.375,0.605
		l-8.375,0.145c-0.75,0-1.5-0.352-1.5-0.605v-3.145c0-0.75,0.527-0.75,1.18-0.75H280.883z"/>
	
		<linearGradient id="SVGID_14_" gradientUnits="userSpaceOnUse" x1="220.2246" y1="145.8027" x2="202.2246" y2="145.8027" gradientTransform="matrix(0.75 0 0 -0.75 126.6083 626.2697)">
		<stop  offset="0" style="stop-color:#00675C"/>
		<stop  offset="0.01" style="stop-color:#7CB1A7"/>
		<stop  offset="0.02" style="stop-color:#008879"/>
		<stop  offset="0.64" style="stop-color:#008677"/>
		<stop  offset="0.99" style="stop-color:#008274"/>
		<stop  offset="1" style="stop-color:#005F55"/>
	</linearGradient>
	<path fill="url(#SVGID_14_)" d="M278.277,475.292h13.5v83.25h-13.5V475.292z"/>
	<path fill="#FFFFFF" fill-opacity="0.4157" d="M41.152,325.378h482.25l-12,14.25h-483L41.152,325.378z"/>
	
		<linearGradient id="SVGID_15_" gradientUnits="userSpaceOnUse" x1="267.2271" y1="176.2769" x2="202.2271" y2="176.2769" gradientTransform="matrix(0.75 0 0 -0.75 294.6337 543.5704)">
		<stop  offset="0" style="stop-color:#B5B5B5"/>
		<stop  offset="0.01" style="stop-color:#FFFFFF"/>
		<stop  offset="0.02" style="stop-color:#EBEBEB"/>
		<stop  offset="0.64" style="stop-color:#E7E7E7"/>
		<stop  offset="0.99" style="stop-color:#E2E2E2"/>
		<stop  offset="1" style="stop-color:#A8A8A8"/>
	</linearGradient>
	<path fill="url(#SVGID_15_)" d="M447.804,392.593h45.75c0.75,0,1.395,0.527,1.395,1.176l0.105,34.824
		c0,0.75-0.637,1.539-1.285,1.539l-45.965-0.039c-0.75,0-1.5-0.488-1.5-1.137v-34.863c0-0.75,0.527-1.5,1.176-1.5H447.804z"/>
	
		<linearGradient id="SVGID_16_" gradientUnits="userSpaceOnUse" x1="267.2271" y1="198.0571" x2="202.2271" y2="198.0571" gradientTransform="matrix(0.75 0 0 -0.75 294.6337 576.2394)">
		<stop  offset="0" style="stop-color:#007A6E"/>
		<stop  offset="0.01" style="stop-color:#7CC2B6"/>
		<stop  offset="0.02" style="stop-color:#00A090"/>
		<stop  offset="0.64" style="stop-color:#009D8E"/>
		<stop  offset="0.99" style="stop-color:#009A8B"/>
		<stop  offset="1" style="stop-color:#007165"/>
	</linearGradient>
	<path fill="url(#SVGID_16_)" d="M447.804,425.261h45.75c0.75,0,1.395,0.066,1.395,0.152l0.105,4.348c0,0-0.637,0.371-1.285,0.371
		l-45.965-0.371c-0.75,0-1.5,0.305-1.5,0.219v-4.719c0,0,0.527,0,1.176,0H447.804z"/>
	
		<linearGradient id="SVGID_17_" gradientUnits="userSpaceOnUse" x1="848.2212" y1="180.8042" x2="202.2227" y2="180.8041" gradientTransform="matrix(0.75 0 0 -0.75 -112.4684 593.1798)">
		<stop  offset="0" style="stop-color:#B5B5B5"/>
		<stop  offset="0.01" style="stop-color:#FFFFFF"/>
		<stop  offset="0.02" style="stop-color:#EBEBEB"/>
		<stop  offset="0.64" style="stop-color:#E7E7E7"/>
		<stop  offset="0.99" style="stop-color:#E2E2E2"/>
		<stop  offset="1" style="stop-color:#A8A8A8"/>
	</linearGradient>
	<path fill="url(#SVGID_17_)" d="M39.199,472.953h484.5v-30.75h-484.5V472.953z"/>
	
		<linearGradient id="SVGID_18_" gradientUnits="userSpaceOnUse" x1="848.2222" y1="193.3042" x2="202.2231" y2="193.3041" gradientTransform="matrix(0.75 0 0 -0.75 -112.4689 581.4728)">
		<stop  offset="0" style="stop-color:#7E7F7F"/>
		<stop  offset="0.01" style="stop-color:#C6C7C7"/>
		<stop  offset="0.02" style="stop-color:#A6A6A6"/>
		<stop  offset="0.64" style="stop-color:#A3A4A4"/>
		<stop  offset="0.99" style="stop-color:#9FA0A0"/>
		<stop  offset="1" style="stop-color:#757676"/>
	</linearGradient>
	<path fill="url(#SVGID_18_)" d="M39.199,442.496h484.5v-12h-484.5V442.496z"/>
	
		<linearGradient id="SVGID_19_" gradientUnits="userSpaceOnUse" x1="366.7241" y1="201.3047" x2="366.7241" y2="109.3047" gradientTransform="matrix(0.75 0 0 -0.75 -112.5631 505.4318)">
		<stop  offset="0" style="stop-color:#00675C"/>
		<stop  offset="0.01" style="stop-color:#7CB1A7"/>
		<stop  offset="0.02" style="stop-color:#008879"/>
		<stop  offset="0.64" style="stop-color:#008677"/>
		<stop  offset="0.99" style="stop-color:#008274"/>
		<stop  offset="1" style="stop-color:#005F55"/>
	</linearGradient>
	<path fill="url(#SVGID_19_)" d="M39.105,354.453h239.25c3.75,0,6.113,2.637,6.113,5.891l1.387,63.109l-246-0.75L39.105,354.453z"/>
	
		<linearGradient id="SVGID_20_" gradientUnits="userSpaceOnUse" x1="473.7222" y1="201.3018" x2="473.7222" y2="186.3018" gradientTransform="matrix(0.75 0 0 -0.75 -112.4684 570.254)">
		<stop  offset="0" style="stop-color:#292525"/>
		<stop  offset="0.01" style="stop-color:#868584"/>
		<stop  offset="0.02" style="stop-color:#383433"/>
		<stop  offset="0.64" style="stop-color:#373332"/>
		<stop  offset="0.99" style="stop-color:#363130"/>
		<stop  offset="1" style="stop-color:#252221"/>
	</linearGradient>
	<path fill="url(#SVGID_20_)" d="M39.199,430.527h407.25v-11.25H39.199V430.527z"/>
	<path fill="#3E3938" stroke="#3E3938" stroke-linejoin="bevel" stroke-miterlimit="10" d="M159.551,384.097h75
		c0.75,0,1.695,0.91,1.695,2.07l-0.195,22.68c0,1.5-0.75,2.324-1.852,2.324l-74.648-0.074c-1.5,0-2.25-0.863-2.25-2.023v-22.727
		c0-1.5,0.891-2.277,1.992-2.277L159.551,384.097z"/>
	
		<linearGradient id="SVGID_21_" gradientUnits="userSpaceOnUse" x1="206.2275" y1="183.3057" x2="202.2275" y2="183.3057" gradientTransform="matrix(0.75 0 0 -0.75 9.0248 535.0568)">
		<stop  offset="0" style="stop-color:#BDBDBD"/>
		<stop  offset="0.15" style="stop-color:#FFFFFF"/>
		<stop  offset="0.25" style="stop-color:#FFFFFF"/>
		<stop  offset="0.52" style="stop-color:#DFDFDF"/>
		<stop  offset="0.69" style="stop-color:#C7C7C7"/>
		<stop  offset="0.8" style="stop-color:#BCBCBC"/>
		<stop  offset="0.92" style="stop-color:#B1B1B1"/>
		<stop  offset="1" style="stop-color:#CBCBCB"/>
	</linearGradient>
	<path fill="url(#SVGID_21_)" d="M160.695,384.078h3v27h-3V384.078z"/>
	
		<linearGradient id="SVGID_22_" gradientUnits="userSpaceOnUse" x1="206.2275" y1="183.3057" x2="202.2275" y2="183.3057" gradientTransform="matrix(0.75 0 0 -0.75 15.5756 535.0568)">
		<stop  offset="0" style="stop-color:#BDBDBD"/>
		<stop  offset="0.15" style="stop-color:#FFFFFF"/>
		<stop  offset="0.25" style="stop-color:#FFFFFF"/>
		<stop  offset="0.52" style="stop-color:#DFDFDF"/>
		<stop  offset="0.69" style="stop-color:#C7C7C7"/>
		<stop  offset="0.8" style="stop-color:#BCBCBC"/>
		<stop  offset="0.92" style="stop-color:#B1B1B1"/>
		<stop  offset="1" style="stop-color:#CBCBCB"/>
	</linearGradient>
	<path fill="url(#SVGID_22_)" d="M167.246,384.078h3v27h-3V384.078z"/>
	
		<linearGradient id="SVGID_23_" gradientUnits="userSpaceOnUse" x1="206.2256" y1="183.3057" x2="202.2256" y2="183.3057" gradientTransform="matrix(0.75 0 0 -0.75 21.2211 535.0568)">
		<stop  offset="0" style="stop-color:#BDBDBD"/>
		<stop  offset="0.15" style="stop-color:#FFFFFF"/>
		<stop  offset="0.25" style="stop-color:#FFFFFF"/>
		<stop  offset="0.52" style="stop-color:#DFDFDF"/>
		<stop  offset="0.69" style="stop-color:#C7C7C7"/>
		<stop  offset="0.8" style="stop-color:#BCBCBC"/>
		<stop  offset="0.92" style="stop-color:#B1B1B1"/>
		<stop  offset="1" style="stop-color:#CBCBCB"/>
	</linearGradient>
	<path fill="url(#SVGID_23_)" d="M172.891,384.078h3v27h-3V384.078z"/>
	
		<linearGradient id="SVGID_24_" gradientUnits="userSpaceOnUse" x1="206.2236" y1="183.3057" x2="202.2236" y2="183.3057" gradientTransform="matrix(0.75 0 0 -0.75 27.8246 535.0568)">
		<stop  offset="0" style="stop-color:#BDBDBD"/>
		<stop  offset="0.15" style="stop-color:#FFFFFF"/>
		<stop  offset="0.25" style="stop-color:#FFFFFF"/>
		<stop  offset="0.52" style="stop-color:#DFDFDF"/>
		<stop  offset="0.69" style="stop-color:#C7C7C7"/>
		<stop  offset="0.8" style="stop-color:#BCBCBC"/>
		<stop  offset="0.92" style="stop-color:#B1B1B1"/>
		<stop  offset="1" style="stop-color:#CBCBCB"/>
	</linearGradient>
	<path fill="url(#SVGID_24_)" d="M179.492,384.078h3v27h-3V384.078z"/>
	
		<linearGradient id="SVGID_25_" gradientUnits="userSpaceOnUse" x1="206.228" y1="183.3057" x2="202.228" y2="183.3057" gradientTransform="matrix(0.75 0 0 -0.75 34.0907 535.0568)">
		<stop  offset="0" style="stop-color:#BDBDBD"/>
		<stop  offset="0.15" style="stop-color:#FFFFFF"/>
		<stop  offset="0.25" style="stop-color:#FFFFFF"/>
		<stop  offset="0.52" style="stop-color:#DFDFDF"/>
		<stop  offset="0.69" style="stop-color:#C7C7C7"/>
		<stop  offset="0.8" style="stop-color:#BCBCBC"/>
		<stop  offset="0.92" style="stop-color:#B1B1B1"/>
		<stop  offset="1" style="stop-color:#CBCBCB"/>
	</linearGradient>
	<path fill="url(#SVGID_25_)" d="M185.762,384.078h3v27h-3V384.078z"/>
	
		<linearGradient id="SVGID_26_" gradientUnits="userSpaceOnUse" x1="206.2261" y1="183.3057" x2="202.2261" y2="183.3057" gradientTransform="matrix(0.75 0 0 -0.75 40.3573 535.0568)">
		<stop  offset="0" style="stop-color:#BDBDBD"/>
		<stop  offset="0.15" style="stop-color:#FFFFFF"/>
		<stop  offset="0.25" style="stop-color:#FFFFFF"/>
		<stop  offset="0.52" style="stop-color:#DFDFDF"/>
		<stop  offset="0.69" style="stop-color:#C7C7C7"/>
		<stop  offset="0.8" style="stop-color:#BCBCBC"/>
		<stop  offset="0.92" style="stop-color:#B1B1B1"/>
		<stop  offset="1" style="stop-color:#CBCBCB"/>
	</linearGradient>
	<path fill="url(#SVGID_26_)" d="M192.027,384.078h3v27h-3V384.078z"/>
	
		<linearGradient id="SVGID_27_" gradientUnits="userSpaceOnUse" x1="206.2251" y1="183.3057" x2="202.2251" y2="183.3057" gradientTransform="matrix(0.75 0 0 -0.75 46.6239 535.0568)">
		<stop  offset="0" style="stop-color:#BDBDBD"/>
		<stop  offset="0.15" style="stop-color:#FFFFFF"/>
		<stop  offset="0.25" style="stop-color:#FFFFFF"/>
		<stop  offset="0.52" style="stop-color:#DFDFDF"/>
		<stop  offset="0.69" style="stop-color:#C7C7C7"/>
		<stop  offset="0.8" style="stop-color:#BCBCBC"/>
		<stop  offset="0.92" style="stop-color:#B1B1B1"/>
		<stop  offset="1" style="stop-color:#CBCBCB"/>
	</linearGradient>
	<path fill="url(#SVGID_27_)" d="M198.293,384.078h3v27h-3V384.078z"/>
	
		<linearGradient id="SVGID_28_" gradientUnits="userSpaceOnUse" x1="206.2241" y1="183.3057" x2="202.2241" y2="183.3057" gradientTransform="matrix(0.75 0 0 -0.75 52.8905 535.0568)">
		<stop  offset="0" style="stop-color:#BDBDBD"/>
		<stop  offset="0.15" style="stop-color:#FFFFFF"/>
		<stop  offset="0.25" style="stop-color:#FFFFFF"/>
		<stop  offset="0.52" style="stop-color:#DFDFDF"/>
		<stop  offset="0.69" style="stop-color:#C7C7C7"/>
		<stop  offset="0.8" style="stop-color:#BCBCBC"/>
		<stop  offset="0.92" style="stop-color:#B1B1B1"/>
		<stop  offset="1" style="stop-color:#CBCBCB"/>
	</linearGradient>
	<path fill="url(#SVGID_28_)" d="M204.559,384.078h3v27h-3V384.078z"/>
	
		<linearGradient id="SVGID_29_" gradientUnits="userSpaceOnUse" x1="206.2222" y1="183.3057" x2="202.2222" y2="183.3057" gradientTransform="matrix(0.75 0 0 -0.75 59.1571 535.0568)">
		<stop  offset="0" style="stop-color:#BDBDBD"/>
		<stop  offset="0.15" style="stop-color:#FFFFFF"/>
		<stop  offset="0.25" style="stop-color:#FFFFFF"/>
		<stop  offset="0.52" style="stop-color:#DFDFDF"/>
		<stop  offset="0.69" style="stop-color:#C7C7C7"/>
		<stop  offset="0.8" style="stop-color:#BCBCBC"/>
		<stop  offset="0.92" style="stop-color:#B1B1B1"/>
		<stop  offset="1" style="stop-color:#CBCBCB"/>
	</linearGradient>
	<path fill="url(#SVGID_29_)" d="M210.824,384.078h3v27h-3V384.078z"/>
	
		<linearGradient id="SVGID_30_" gradientUnits="userSpaceOnUse" x1="206.2266" y1="183.3057" x2="202.2266" y2="183.3057" gradientTransform="matrix(0.75 0 0 -0.75 65.4232 535.0568)">
		<stop  offset="0" style="stop-color:#BDBDBD"/>
		<stop  offset="0.15" style="stop-color:#FFFFFF"/>
		<stop  offset="0.25" style="stop-color:#FFFFFF"/>
		<stop  offset="0.52" style="stop-color:#DFDFDF"/>
		<stop  offset="0.69" style="stop-color:#C7C7C7"/>
		<stop  offset="0.8" style="stop-color:#BCBCBC"/>
		<stop  offset="0.92" style="stop-color:#B1B1B1"/>
		<stop  offset="1" style="stop-color:#CBCBCB"/>
	</linearGradient>
	<path fill="url(#SVGID_30_)" d="M217.094,384.078h3v27h-3V384.078z"/>
	
		<linearGradient id="SVGID_31_" gradientUnits="userSpaceOnUse" x1="206.2256" y1="183.3057" x2="202.2256" y2="183.3057" gradientTransform="matrix(0.75 0 0 -0.75 71.6898 535.0568)">
		<stop  offset="0" style="stop-color:#BDBDBD"/>
		<stop  offset="0.15" style="stop-color:#FFFFFF"/>
		<stop  offset="0.25" style="stop-color:#FFFFFF"/>
		<stop  offset="0.52" style="stop-color:#DFDFDF"/>
		<stop  offset="0.69" style="stop-color:#C7C7C7"/>
		<stop  offset="0.8" style="stop-color:#BCBCBC"/>
		<stop  offset="0.92" style="stop-color:#B1B1B1"/>
		<stop  offset="1" style="stop-color:#CBCBCB"/>
	</linearGradient>
	<path fill="url(#SVGID_31_)" d="M223.359,384.078h3v27h-3V384.078z"/>
	
		<linearGradient id="SVGID_32_" gradientUnits="userSpaceOnUse" x1="206.2256" y1="183.3057" x2="202.2256" y2="183.3057" gradientTransform="matrix(0.75 0 0 -0.75 77.9559 535.0568)">
		<stop  offset="0" style="stop-color:#BDBDBD"/>
		<stop  offset="0.15" style="stop-color:#FFFFFF"/>
		<stop  offset="0.25" style="stop-color:#FFFFFF"/>
		<stop  offset="0.52" style="stop-color:#DFDFDF"/>
		<stop  offset="0.69" style="stop-color:#C7C7C7"/>
		<stop  offset="0.8" style="stop-color:#BCBCBC"/>
		<stop  offset="0.92" style="stop-color:#B1B1B1"/>
		<stop  offset="1" style="stop-color:#CBCBCB"/>
	</linearGradient>
	<path fill="url(#SVGID_32_)" d="M229.625,384.078h3v27h-3V384.078z"/>
	
		<linearGradient id="SVGID_33_" gradientUnits="userSpaceOnUse" x1="247.2256" y1="201.3018" x2="247.2256" y2="182.3018" gradientTransform="matrix(0.75 0 0 -0.75 -109.9034 556.59)">
		<stop  offset="0" style="stop-color:#007A6E"/>
		<stop  offset="0.01" style="stop-color:#7CC2B6"/>
		<stop  offset="0.02" style="stop-color:#00A090"/>
		<stop  offset="0.64" style="stop-color:#009D8E"/>
		<stop  offset="0.99" style="stop-color:#009A8B"/>
		<stop  offset="1" style="stop-color:#007165"/>
	</linearGradient>
	<path fill="url(#SVGID_33_)" d="M41.766,419.863h67.5v-14.25h-67.5V419.863z"/>
</g>
</svg>
