<?xml version="1.0" encoding="utf-8"?>
<!-- Generator: Adobe Illustrator 16.0.0, SVG Export Plug-In . SVG Version: 6.00 Build 0)  -->
<!DOCTYPE svg PUBLIC "-//W3C//DTD SVG 1.1//EN" "http://www.w3.org/Graphics/SVG/1.1/DTD/svg11.dtd">
<svg preserveAspectRatio="none" version="1.1" id="图层_1" xmlns="http://www.w3.org/2000/svg" xmlns:xlink="http://www.w3.org/1999/xlink" x="0px" y="0px"
	 width="487.55px" height="560.371px" viewBox="39.688 3.453 487.55 560.371" enable-background="new 39.688 3.453 487.55 560.371"
	 xml:space="preserve">
<g id="surface706">
	
		<linearGradient id="SVGID_1_" gradientUnits="userSpaceOnUse" x1="246.2227" y1="177.8027" x2="202.1758" y2="177.8027" gradientTransform="matrix(0.75 0 0 -0.75 147.4296 154.4298)">
		<stop  offset="0" style="stop-color:#667179"/>
		<stop  offset="0.01" style="stop-color:#AFBAC1"/>
		<stop  offset="0.02" style="stop-color:#86959F"/>
		<stop  offset="0.64" style="stop-color:#84929C"/>
		<stop  offset="0.99" style="stop-color:#818F99"/>
		<stop  offset="1" style="stop-color:#5E6970"/>
	</linearGradient>
	<path fill="url(#SVGID_1_)" d="M299.847,3.453h31.5c0.75,0,0.621,0.238,0.621,0.531l0.129,33.969c0,0-0.344,0.391-0.582,0.391
		l-31.668,0.359c-0.75,0-0.785-0.613-0.785-0.906l0.035-33.594c0-0.75,0.156-0.75,0.398-0.75H299.847z"/>
	
		<linearGradient id="SVGID_2_" gradientUnits="userSpaceOnUse" x1="246.2261" y1="177.8027" x2="202.1743" y2="177.8027" gradientTransform="matrix(0.75 0 0 -0.75 82.3573 154.4298)">
		<stop  offset="0" style="stop-color:#667179"/>
		<stop  offset="0.01" style="stop-color:#AFBAC1"/>
		<stop  offset="0.02" style="stop-color:#86959F"/>
		<stop  offset="0.64" style="stop-color:#84929C"/>
		<stop  offset="0.99" style="stop-color:#818F99"/>
		<stop  offset="1" style="stop-color:#5E6970"/>
	</linearGradient>
	<path fill="url(#SVGID_2_)" d="M234.777,3.453h31.5c0.75,0,0.617,0.238,0.617,0.531l0.133,33.969c0,0-0.344,0.391-0.586,0.391
		l-31.664,0.359c-0.75,0-0.789-0.613-0.789-0.906l0.039-33.594c0-0.75,0.156-0.75,0.398-0.75H234.777z"/>
	
		<linearGradient id="SVGID_3_" gradientUnits="userSpaceOnUse" x1="526.2212" y1="98.8052" x2="202.2222" y2="98.8051" gradientTransform="matrix(0.75 0 0 -0.75 10.1649 561.0509)">
		<stop  offset="0" style="stop-color:#667179"/>
		<stop  offset="0.01" style="stop-color:#AFBAC1"/>
		<stop  offset="0.02" style="stop-color:#86959F"/>
		<stop  offset="0.64" style="stop-color:#84929C"/>
		<stop  offset="0.99" style="stop-color:#818F99"/>
		<stop  offset="1" style="stop-color:#5E6970"/>
	</linearGradient>
	<path fill="url(#SVGID_3_)" d="M161.832,563.824h243v-153.75h-243V563.824z"/>
	
		<linearGradient id="SVGID_4_" gradientUnits="userSpaceOnUse" x1="355.4341" y1="-77.6948" x2="202.2261" y2="-77.6948" gradientTransform="matrix(0.75 0 0 -0.75 74.3412 189.3068)">
		<stop  offset="0" style="stop-color:#667179"/>
		<stop  offset="0.01" style="stop-color:#AFBAC1"/>
		<stop  offset="0.02" style="stop-color:#86959F"/>
		<stop  offset="0.64" style="stop-color:#84929C"/>
		<stop  offset="0.99" style="stop-color:#818F99"/>
		<stop  offset="1" style="stop-color:#5E6970"/>
	</linearGradient>
	<path fill="url(#SVGID_4_)" d="M226.762,38.328h114c0,0,0.156,0,0.156,0.637l-0.156,417.113c0,0.75-0.09,0.621-0.348,0.621
		l-113.652,0.129c-0.75,0-0.75-0.129-0.75-0.863V39.078c0-0.75,0.207-0.75,0.469-0.75H226.762z"/>
	
		<linearGradient id="SVGID_5_" gradientUnits="userSpaceOnUse" x1="526.2222" y1="142.3062" x2="202.2231" y2="142.3061" gradientTransform="matrix(0.75 0 0 -0.75 10.1644 473.006)">
		<stop  offset="0" style="stop-color:#667179"/>
		<stop  offset="0.01" style="stop-color:#AFBAC1"/>
		<stop  offset="0.02" style="stop-color:#86959F"/>
		<stop  offset="0.64" style="stop-color:#84929C"/>
		<stop  offset="0.99" style="stop-color:#818F99"/>
		<stop  offset="1" style="stop-color:#5E6970"/>
	</linearGradient>
	<path fill="url(#SVGID_5_)" d="M161.832,410.527h243l-63.75-88.5h-114.75L161.832,410.527z"/>
	
		<linearGradient id="SVGID_6_" gradientUnits="userSpaceOnUse" x1="355.2222" y1="142.3066" x2="202.2222" y2="142.3066" gradientTransform="matrix(0.75 0 0 -0.75 74.3793 487.8927)">
		<stop  offset="0" style="stop-color:#667179"/>
		<stop  offset="0.01" style="stop-color:#AFBAC1"/>
		<stop  offset="0.02" style="stop-color:#86959F"/>
		<stop  offset="0.64" style="stop-color:#84929C"/>
		<stop  offset="0.99" style="stop-color:#818F99"/>
		<stop  offset="1" style="stop-color:#5E6970"/>
	</linearGradient>
	<path fill="url(#SVGID_6_)" d="M226.047,425.414h114.75v-88.5h-114.75V425.414z"/>
	
		<linearGradient id="SVGID_7_" gradientUnits="userSpaceOnUse" x1="447.2261" y1="149.3027" x2="202.2271" y2="149.3027" gradientTransform="matrix(0.75 0 0 -0.75 39.8217 636.4064)">
		<stop  offset="0" style="stop-color:#667179"/>
		<stop  offset="0.01" style="stop-color:#AFBAC1"/>
		<stop  offset="0.02" style="stop-color:#86959F"/>
		<stop  offset="0.64" style="stop-color:#84929C"/>
		<stop  offset="0.99" style="stop-color:#818F99"/>
		<stop  offset="1" style="stop-color:#5E6970"/>
	</linearGradient>
	<path fill="url(#SVGID_7_)" d="M191.492,485.429h183.75v78h-183.75V485.429z"/>
	
		<linearGradient id="SVGID_8_" gradientUnits="userSpaceOnUse" x1="475.5347" y1="192.8296" x2="202.2231" y2="192.8296" gradientTransform="matrix(0.75 0 0 -0.75 29.3046 645.8693)">
		<stop  offset="0" style="stop-color:#B5B5B5"/>
		<stop  offset="0.01" style="stop-color:#FFFFFF"/>
		<stop  offset="0.02" style="stop-color:#EBEBEB"/>
		<stop  offset="0.64" style="stop-color:#E7E7E7"/>
		<stop  offset="0.99" style="stop-color:#E2E2E2"/>
		<stop  offset="1" style="stop-color:#A8A8A8"/>
	</linearGradient>
	<path fill="url(#SVGID_8_)" d="M181.723,494.89h204c0,0,0.234,0.121,0.234,0.309l-0.234,11.691c0,0.75,0.012,0.559-0.25,0.559
		l-203.75,0.191c-0.75,0-0.75-0.344-0.75-0.531V494.89c0,0,0-0.035,0.434-0.035L181.723,494.89z"/>
	
		<linearGradient id="SVGID_9_" gradientUnits="userSpaceOnUse" x1="334.228" y1="201.3037" x2="334.228" y2="161.3037" gradientTransform="matrix(0.75 0 0 -0.75 32.8256 616.4503)">
		<stop  offset="0" style="stop-color:#B5B5B5"/>
		<stop  offset="0.01" style="stop-color:#FFFFFF"/>
		<stop  offset="0.02" style="stop-color:#EBEBEB"/>
		<stop  offset="0.64" style="stop-color:#E7E7E7"/>
		<stop  offset="0.99" style="stop-color:#E2E2E2"/>
		<stop  offset="1" style="stop-color:#A8A8A8"/>
	</linearGradient>
	<path fill="url(#SVGID_9_)" d="M184.496,476.722l98.25-11.25l99.75,11.25v18.75h-198V476.722z"/>
	
		<linearGradient id="SVGID_10_" gradientUnits="userSpaceOnUse" x1="852.2896" y1="178.6191" x2="202.2231" y2="178.6191" gradientTransform="matrix(0.75 0 0 -0.75 -111.9801 576.1759)">
		<stop  offset="0" style="stop-color:#B5B5B5"/>
		<stop  offset="0.01" style="stop-color:#FFFFFF"/>
		<stop  offset="0.02" style="stop-color:#EBEBEB"/>
		<stop  offset="0.64" style="stop-color:#E7E7E7"/>
		<stop  offset="0.99" style="stop-color:#E2E2E2"/>
		<stop  offset="1" style="stop-color:#A8A8A8"/>
	</linearGradient>
	<path fill="url(#SVGID_10_)" d="M40.438,425.199h486c0.75,0,0.801,0.211,0.801,0.504l-0.051,33.246c0,0,0.051,0.277-0.484,0.277
		l-486.265-0.277c-0.75,0-0.75,0.012-0.75-0.281v-32.719c0-0.75,0-0.75,0.523-0.75H40.438z"/>
	
		<linearGradient id="SVGID_11_" gradientUnits="userSpaceOnUse" x1="353.7241" y1="201.3037" x2="353.7241" y2="192.3037" gradientTransform="matrix(0.75 0 0 -0.75 17.9911 610.0704)">
		<stop  offset="0" style="stop-color:#A8A8A8"/>
		<stop  offset="0.01" style="stop-color:#F2F2F2"/>
		<stop  offset="0.02" style="stop-color:#DBDBDB"/>
		<stop  offset="0.64" style="stop-color:#D8D8D8"/>
		<stop  offset="0.99" style="stop-color:#D3D3D3"/>
		<stop  offset="1" style="stop-color:#9C9C9C"/>
	</linearGradient>
	<path fill="url(#SVGID_11_)" d="M169.66,459.093h227.25v6.75H169.66V459.093z"/>
	
		<linearGradient id="SVGID_12_" gradientUnits="userSpaceOnUse" x1="697.2573" y1="178.6191" x2="202.2222" y2="178.6191" gradientTransform="matrix(0.75 0 0 -0.75 -53.8429 576.1759)">
		<stop  offset="0" style="stop-color:#B5B5B5"/>
		<stop  offset="0.01" style="stop-color:#FFFFFF"/>
		<stop  offset="0.02" style="stop-color:#EBEBEB"/>
		<stop  offset="0.64" style="stop-color:#E7E7E7"/>
		<stop  offset="0.99" style="stop-color:#E2E2E2"/>
		<stop  offset="1" style="stop-color:#A8A8A8"/>
	</linearGradient>
	<path fill="url(#SVGID_12_)" d="M98.574,425.199h369.75c0.75,0,0.777,0.211,0.777,0.504l-0.027,33.246c0,0,0.027,0.277-0.379,0.277
		l-370.121-0.277c-0.75,0-0.75,0.012-0.75-0.281v-32.719c0-0.75,0-0.75,0.398-0.75H98.574z"/>
	
		<linearGradient id="SVGID_13_" gradientUnits="userSpaceOnUse" x1="617.2231" y1="178.6191" x2="202.2236" y2="178.6191" gradientTransform="matrix(0.75 0 0 -0.75 -23.8087 576.1759)">
		<stop  offset="0" style="stop-color:#B5B5B5"/>
		<stop  offset="0.01" style="stop-color:#FFFFFF"/>
		<stop  offset="0.02" style="stop-color:#EBEBEB"/>
		<stop  offset="0.64" style="stop-color:#E7E7E7"/>
		<stop  offset="0.99" style="stop-color:#E2E2E2"/>
		<stop  offset="1" style="stop-color:#A8A8A8"/>
	</linearGradient>
	<path fill="url(#SVGID_13_)" d="M127.859,425.199h310.5c0.75,0,0.711,0.211,0.711,0.504l0.039,33.246c0,0-0.039,0.277-0.383,0.277
		l-310.867-0.277c0,0,0,0.012,0-0.281v-32.719c0-0.75,0-0.75,0.336-0.75H127.859z"/>
	
		<linearGradient id="SVGID_14_" gradientUnits="userSpaceOnUse" x1="505.6821" y1="178.6191" x2="202.2241" y2="178.6191" gradientTransform="matrix(0.75 0 0 -0.75 17.9989 576.1759)">
		<stop  offset="0" style="stop-color:#B5B5B5"/>
		<stop  offset="0.01" style="stop-color:#FFFFFF"/>
		<stop  offset="0.02" style="stop-color:#EBEBEB"/>
		<stop  offset="0.64" style="stop-color:#E7E7E7"/>
		<stop  offset="0.99" style="stop-color:#E2E2E2"/>
		<stop  offset="1" style="stop-color:#A8A8A8"/>
	</linearGradient>
	<path fill="url(#SVGID_14_)" d="M169.668,425.199h227.25c0,0,0.344,0.211,0.344,0.504l-0.344,33.246c0,0,0.344,0.277,0.094,0.277
		l-227.343-0.277c0,0,0,0.012,0-0.281v-32.719c0-0.75,0-0.75,0.242-0.75H169.668z"/>
	
		<linearGradient id="SVGID_15_" gradientUnits="userSpaceOnUse" x1="336.2241" y1="201.3018" x2="336.2241" y2="192.3018" gradientTransform="matrix(0.75 0 0 -0.75 31.3353 569.796)">
		<stop  offset="0" style="stop-color:#A8A8A8"/>
		<stop  offset="0.01" style="stop-color:#F2F2F2"/>
		<stop  offset="0.02" style="stop-color:#DBDBDB"/>
		<stop  offset="0.64" style="stop-color:#D8D8D8"/>
		<stop  offset="0.99" style="stop-color:#D3D3D3"/>
		<stop  offset="1" style="stop-color:#9C9C9C"/>
	</linearGradient>
	<path fill="url(#SVGID_15_)" d="M183.004,418.82h201v6.75h-201V418.82z"/>
	
		<linearGradient id="SVGID_16_" gradientUnits="userSpaceOnUse" x1="275.7251" y1="201.3037" x2="275.7251" y2="129.3037" gradientTransform="matrix(0.75 0 0 -0.75 76.6669 484.7736)">
		<stop  offset="0" style="stop-color:#B5B5B5"/>
		<stop  offset="0.01" style="stop-color:#FFFFFF"/>
		<stop  offset="0.02" style="stop-color:#EBEBEB"/>
		<stop  offset="0.64" style="stop-color:#E7E7E7"/>
		<stop  offset="0.99" style="stop-color:#E2E2E2"/>
		<stop  offset="1" style="stop-color:#A8A8A8"/>
	</linearGradient>
	<path fill="url(#SVGID_16_)" d="M228.336,387.796h110.25v-54h-110.25V387.796z"/>
	
		<linearGradient id="SVGID_17_" gradientUnits="userSpaceOnUse" x1="272.728" y1="201.3057" x2="272.728" y2="163.3057" gradientTransform="matrix(0.75 0 0 -0.75 78.8094 538.6036)">
		<stop  offset="0" style="stop-color:#B5B5B5"/>
		<stop  offset="0.01" style="stop-color:#FFFFFF"/>
		<stop  offset="0.02" style="stop-color:#EBEBEB"/>
		<stop  offset="0.64" style="stop-color:#E7E7E7"/>
		<stop  offset="0.99" style="stop-color:#E2E2E2"/>
		<stop  offset="1" style="stop-color:#A8A8A8"/>
	</linearGradient>
	<path fill="url(#SVGID_17_)" d="M230.48,416.125h105.75v-28.5H230.48V416.125z"/>
	
		<linearGradient id="SVGID_18_" gradientUnits="userSpaceOnUse" x1="211.6279" y1="49.7241" x2="202.2266" y2="49.7241" gradientTransform="matrix(0.75 0 0 -0.75 81.9432 189.3068)">
		<stop  offset="0" style="stop-color:#B5B5B5"/>
		<stop  offset="0.01" style="stop-color:#FFFFFF"/>
		<stop  offset="0.02" style="stop-color:#EBEBEB"/>
		<stop  offset="0.64" style="stop-color:#E7E7E7"/>
		<stop  offset="0.99" style="stop-color:#E2E2E2"/>
		<stop  offset="1" style="stop-color:#A8A8A8"/>
	</linearGradient>
	<path fill="url(#SVGID_18_)" d="M233.613,38.328h6.75c0,0,0.301,0,0.301,0.348l-0.301,226.902c0,0,0.285,0.121,0.27,0.121
		l-7.02-0.121c0,0,0,0.121,0-0.277V38.328c0,0,0.012,0,0.027,0H233.613z"/>
	
		<linearGradient id="SVGID_19_" gradientUnits="userSpaceOnUse" x1="211.625" y1="49.7266" x2="202.2246" y2="49.7266" gradientTransform="matrix(0.75 0 0 -0.75 173.2489 189.3068)">
		<stop  offset="0" style="stop-color:#B5B5B5"/>
		<stop  offset="0.01" style="stop-color:#FFFFFF"/>
		<stop  offset="0.02" style="stop-color:#EBEBEB"/>
		<stop  offset="0.64" style="stop-color:#E7E7E7"/>
		<stop  offset="0.99" style="stop-color:#E2E2E2"/>
		<stop  offset="1" style="stop-color:#A8A8A8"/>
	</linearGradient>
	<path fill="url(#SVGID_19_)" d="M324.917,38.328h6.75c0,0,0.301,0,0.301,0.344l-0.301,226.906c0,0,0.285,0.117,0.27,0.117
		l-7.02-0.117c0,0,0,0.117,0-0.281V38.328c0,0,0.012,0,0.027,0H324.917z"/>
	
		<linearGradient id="SVGID_20_" gradientUnits="userSpaceOnUse" x1="278.7227" y1="201.3037" x2="278.7227" y2="97.3037" gradientTransform="matrix(0.75 0 0 -0.75 74.3793 414.7355)">
		<stop  offset="0" style="stop-color:#B5B5B5"/>
		<stop  offset="0.01" style="stop-color:#FFFFFF"/>
		<stop  offset="0.02" style="stop-color:#EBEBEB"/>
		<stop  offset="0.64" style="stop-color:#E7E7E7"/>
		<stop  offset="0.99" style="stop-color:#E2E2E2"/>
		<stop  offset="1" style="stop-color:#A8A8A8"/>
	</linearGradient>
	<path fill="url(#SVGID_20_)" d="M226.047,341.757h114.75v-78h-114.75V341.757z"/>
	
		<linearGradient id="SVGID_21_" gradientUnits="userSpaceOnUse" x1="355.2222" y1="149.3057" x2="202.2222" y2="149.3056" gradientTransform="matrix(0.75 0 0 -0.75 74.3793 336.2872)">
		<stop  offset="0" style="stop-color:#6C7E8B"/>
		<stop  offset="0.01" style="stop-color:#B4C6D3"/>
		<stop  offset="0.02" style="stop-color:#8DA6B6"/>
		<stop  offset="0.64" style="stop-color:#8BA3B3"/>
		<stop  offset="0.99" style="stop-color:#889FAF"/>
		<stop  offset="1" style="stop-color:#637581"/>
	</linearGradient>
	<path fill="url(#SVGID_21_)" d="M226.047,263.309h114.75v-78h-114.75V263.309z"/>
	
		<linearGradient id="SVGID_22_" gradientUnits="userSpaceOnUse" x1="341.2876" y1="156.1572" x2="202.2261" y2="156.1572" gradientTransform="matrix(0.75 0 0 -0.75 79.6464 341.4904)">
		<stop  offset="0" style="stop-color:#667179"/>
		<stop  offset="0.01" style="stop-color:#AFBAC1"/>
		<stop  offset="0.02" style="stop-color:#86959F"/>
		<stop  offset="0.64" style="stop-color:#84929C"/>
		<stop  offset="0.99" style="stop-color:#818F99"/>
		<stop  offset="1" style="stop-color:#5E6970"/>
	</linearGradient>
	<path fill="url(#SVGID_22_)" d="M232.066,190.512h102.75c0.75,0,0.797,0.219,0.797,0.512l-0.047,66.988
		c0,0-0.238,0.223-0.531,0.223l-102.968-0.223c-0.75,0-0.75-0.059-0.75-0.352v-66.398c0-0.75,0.238-0.75,0.535-0.75H232.066z"/>
	
		<linearGradient id="SVGID_23_" gradientUnits="userSpaceOnUse" x1="212.6367" y1="189.3335" x2="202.1631" y2="189.3335" gradientTransform="matrix(0.75 0 0 -0.75 94.5414 318.6232)">
		<stop  offset="0" style="stop-color:#2B2827"/>
		<stop  offset="0.15" style="stop-color:#5B5858"/>
		<stop  offset="0.25" style="stop-color:#B8B7B7"/>
		<stop  offset="0.52" style="stop-color:#353130"/>
		<stop  offset="0.69" style="stop-color:#2E2A29"/>
		<stop  offset="0.8" style="stop-color:#2B2726"/>
		<stop  offset="0.92" style="stop-color:#282424"/>
		<stop  offset="1" style="stop-color:#2F2B2B"/>
	</linearGradient>
	<path fill="url(#SVGID_23_)" d="M246.961,167.645h6.75c0,0,0.309,0.195,0.309,0.488l-0.309,16.762c0,0,0.07,0.43-0.227,0.43
		l-6.523,0.32c-0.75,0-0.797-0.559-0.797-0.852l0.047-16.398c0-0.75,0.195-0.793,0.492-0.793L246.961,167.645z"/>
	
		<linearGradient id="SVGID_24_" gradientUnits="userSpaceOnUse" x1="212.6357" y1="189.3335" x2="202.167" y2="189.3335" gradientTransform="matrix(0.75 0 0 -0.75 160.0223 318.6232)">
		<stop  offset="0" style="stop-color:#2B2827"/>
		<stop  offset="0.15" style="stop-color:#5B5858"/>
		<stop  offset="0.25" style="stop-color:#B8B7B7"/>
		<stop  offset="0.52" style="stop-color:#353130"/>
		<stop  offset="0.69" style="stop-color:#2E2A29"/>
		<stop  offset="0.8" style="stop-color:#2B2726"/>
		<stop  offset="0.92" style="stop-color:#282424"/>
		<stop  offset="1" style="stop-color:#2F2B2B"/>
	</linearGradient>
	<path fill="url(#SVGID_24_)" d="M312.441,167.645h6.75c0,0,0.309,0.195,0.309,0.488l-0.309,16.762c0,0,0.07,0.43-0.227,0.43
		l-6.523,0.32c-0.75,0-0.793-0.559-0.793-0.852l0.043-16.398c0-0.75,0.195-0.793,0.492-0.793L312.441,167.645z"/>
	
		<linearGradient id="SVGID_25_" gradientUnits="userSpaceOnUse" x1="321.2241" y1="196.3047" x2="202.2251" y2="196.3047" gradientTransform="matrix(0.75 0 0 -0.75 85.9281 311.8029)">
		<stop  offset="0" style="stop-color:#2B2827"/>
		<stop  offset="0.15" style="stop-color:#5B5858"/>
		<stop  offset="0.25" style="stop-color:#B8B7B7"/>
		<stop  offset="0.52" style="stop-color:#353130"/>
		<stop  offset="0.69" style="stop-color:#2E2A29"/>
		<stop  offset="0.8" style="stop-color:#2B2726"/>
		<stop  offset="0.92" style="stop-color:#282424"/>
		<stop  offset="1" style="stop-color:#2F2B2B"/>
	</linearGradient>
	<path fill="url(#SVGID_25_)" d="M326.847,168.324h-89.25v-7.5h89.25V168.324z"/>
	
		<linearGradient id="SVGID_26_" gradientUnits="userSpaceOnUse" x1="283.2251" y1="186.3057" x2="202.2261" y2="186.3057" gradientTransform="matrix(0.75 0 0 -0.75 100.2094 289.1193)">
		<stop  offset="0" style="stop-color:#BDBDBD"/>
		<stop  offset="0.15" style="stop-color:#FFFFFF"/>
		<stop  offset="0.25" style="stop-color:#FFFFFF"/>
		<stop  offset="0.52" style="stop-color:#DFDFDF"/>
		<stop  offset="0.69" style="stop-color:#C7C7C7"/>
		<stop  offset="0.8" style="stop-color:#BCBCBC"/>
		<stop  offset="0.92" style="stop-color:#B1B1B1"/>
		<stop  offset="1" style="stop-color:#CBCBCB"/>
	</linearGradient>
	<path fill="url(#SVGID_26_)" d="M251.879,160.641h60.75v-22.5h-60.75V160.641z"/>
	
		<linearGradient id="SVGID_27_" gradientUnits="userSpaceOnUse" x1="253.2227" y1="175.3037" x2="202.2236" y2="175.3037" gradientTransform="matrix(0.75 0 0 -0.75 111.2772 250.13)">
		<stop  offset="0" style="stop-color:#2B2827"/>
		<stop  offset="0.15" style="stop-color:#5B5858"/>
		<stop  offset="0.25" style="stop-color:#B8B7B7"/>
		<stop  offset="0.52" style="stop-color:#353130"/>
		<stop  offset="0.69" style="stop-color:#2E2A29"/>
		<stop  offset="0.8" style="stop-color:#2B2726"/>
		<stop  offset="0.92" style="stop-color:#282424"/>
		<stop  offset="1" style="stop-color:#2F2B2B"/>
	</linearGradient>
	<path fill="url(#SVGID_27_)" d="M262.945,138.152h38.25v-39h-38.25V138.152z"/>
	
		<linearGradient id="SVGID_28_" gradientUnits="userSpaceOnUse" x1="281.3076" y1="195.2202" x2="202.2256" y2="195.2202" gradientTransform="matrix(0.75 0 0 -0.75 100.9012 240.9591)">
		<stop  offset="0" style="stop-color:#979898"/>
		<stop  offset="0.15" style="stop-color:#D0D1D1"/>
		<stop  offset="0.25" style="stop-color:#E5E6E6"/>
		<stop  offset="0.52" style="stop-color:#B3B4B4"/>
		<stop  offset="0.69" style="stop-color:#9FA0A0"/>
		<stop  offset="0.8" style="stop-color:#969797"/>
		<stop  offset="0.92" style="stop-color:#8E8E8E"/>
		<stop  offset="1" style="stop-color:#A3A4A4"/>
	</linearGradient>
	<path fill="url(#SVGID_28_)" d="M253.32,89.98h57.75c0.75,0,0.813,0.195,0.813,0.488l-0.063,8.512c0,0-0.223,0.172-0.52,0.172
		l-57.98-0.172c-0.75,0-0.75-0.066-0.75-0.359V90.73c0-0.75,0.238-0.793,0.535-0.793L253.32,89.98z"/>
	
		<linearGradient id="SVGID_29_" gradientUnits="userSpaceOnUse" x1="276.2261" y1="156.3018" x2="202.2271" y2="156.3018" gradientTransform="matrix(0.75 0 0 -0.75 102.7084 173.5695)">
		<stop  offset="0" style="stop-color:#BDBDBD"/>
		<stop  offset="0.15" style="stop-color:#FFFFFF"/>
		<stop  offset="0.25" style="stop-color:#FFFFFF"/>
		<stop  offset="0.52" style="stop-color:#DFDFDF"/>
		<stop  offset="0.69" style="stop-color:#C7C7C7"/>
		<stop  offset="0.8" style="stop-color:#BCBCBC"/>
		<stop  offset="0.92" style="stop-color:#B1B1B1"/>
		<stop  offset="1" style="stop-color:#CBCBCB"/>
	</linearGradient>
	<path fill="url(#SVGID_29_)" d="M254.379,90.094h55.5v-67.5h-55.5V90.094z"/>
	
		<linearGradient id="SVGID_30_" gradientUnits="userSpaceOnUse" x1="288.2251" y1="194.2466" x2="202.2251" y2="194.2466" gradientTransform="matrix(0.75 0 0 -0.75 98.4242 163.6681)">
		<stop  offset="0" style="stop-color:#979898"/>
		<stop  offset="0.15" style="stop-color:#D0D1D1"/>
		<stop  offset="0.25" style="stop-color:#E5E6E6"/>
		<stop  offset="0.52" style="stop-color:#B3B4B4"/>
		<stop  offset="0.69" style="stop-color:#9FA0A0"/>
		<stop  offset="0.8" style="stop-color:#969797"/>
		<stop  offset="0.92" style="stop-color:#8E8E8E"/>
		<stop  offset="1" style="stop-color:#A3A4A4"/>
	</linearGradient>
	<path fill="url(#SVGID_30_)" d="M250.844,12.691h63c0,0,0.516,0.215,0.516,0.508l0.234,9.242c0,0.75-0.52,0.859-0.816,0.859
		l-62.933-0.109c-0.75,0-0.75-0.129-0.75-0.422v-9.328c0-0.75,0.195-0.773,0.492-0.773L250.844,12.691z"/>
	
		<linearGradient id="SVGID_31_" gradientUnits="userSpaceOnUse" x1="244.2266" y1="196.2075" x2="202.2266" y2="196.2075" gradientTransform="matrix(0.75 0 0 -0.75 115.9662 465.8556)">
		<stop  offset="0" style="stop-color:#979898"/>
		<stop  offset="0.15" style="stop-color:#D0D1D1"/>
		<stop  offset="0.25" style="stop-color:#E5E6E6"/>
		<stop  offset="0.52" style="stop-color:#B3B4B4"/>
		<stop  offset="0.69" style="stop-color:#9FA0A0"/>
		<stop  offset="0.8" style="stop-color:#969797"/>
		<stop  offset="0.92" style="stop-color:#8E8E8E"/>
		<stop  offset="1" style="stop-color:#A3A4A4"/>
	</linearGradient>
	<path fill="url(#SVGID_31_)" d="M299.136,314.878v6.75c0,0.75-0.02,0.895-0.234,0.895l-31.265-0.145c0,0,0-0.094,0-0.387v-7.113
		H299.136z"/>
	
		<linearGradient id="SVGID_32_" gradientUnits="userSpaceOnUse" x1="252.2241" y1="170.3042" x2="202.2251" y2="170.3042" gradientTransform="matrix(0.75 0 0 -0.75 112.9052 419.8868)">
		<stop  offset="0" style="stop-color:#BDBDBD"/>
		<stop  offset="0.15" style="stop-color:#FFFFFF"/>
		<stop  offset="0.25" style="stop-color:#FFFFFF"/>
		<stop  offset="0.52" style="stop-color:#DFDFDF"/>
		<stop  offset="0.69" style="stop-color:#C7C7C7"/>
		<stop  offset="0.8" style="stop-color:#BCBCBC"/>
		<stop  offset="0.92" style="stop-color:#B1B1B1"/>
		<stop  offset="1" style="stop-color:#CBCBCB"/>
	</linearGradient>
	<path fill="url(#SVGID_32_)" d="M264.574,268.91h37.5v46.5h-37.5V268.91z"/>
	
		<linearGradient id="SVGID_33_" gradientUnits="userSpaceOnUse" x1="275.2217" y1="195.1514" x2="202.2227" y2="195.1514" gradientTransform="matrix(0.75 0 0 -0.75 104.5829 414.7345)">
		<stop  offset="0" style="stop-color:#979898"/>
		<stop  offset="0.15" style="stop-color:#D0D1D1"/>
		<stop  offset="0.25" style="stop-color:#E5E6E6"/>
		<stop  offset="0.52" style="stop-color:#B3B4B4"/>
		<stop  offset="0.69" style="stop-color:#9FA0A0"/>
		<stop  offset="0.8" style="stop-color:#969797"/>
		<stop  offset="0.92" style="stop-color:#8E8E8E"/>
		<stop  offset="1" style="stop-color:#A3A4A4"/>
	</linearGradient>
	<path fill="url(#SVGID_33_)" d="M257,263.758h53.25c0,0,0.426,0.156,0.426,0.379l0.324,8.621c0,0-0.531,0.25-0.746,0.25
		L257,272.758c-0.75,0-0.75,0.07-0.75-0.152v-8.098c0-0.75,0.164-0.773,0.379-0.773L257,263.758z"/>
	
		<linearGradient id="SVGID_34_" gradientUnits="userSpaceOnUse" x1="229.228" y1="179.8047" x2="202.228" y2="179.8047" gradientTransform="matrix(0.75 0 0 -0.75 20.5907 682.2003)">
		<stop  offset="0" style="stop-color:#6C7E8B"/>
		<stop  offset="0.01" style="stop-color:#B4C6D3"/>
		<stop  offset="0.02" style="stop-color:#8DA6B6"/>
		<stop  offset="0.64" style="stop-color:#8BA3B3"/>
		<stop  offset="0.99" style="stop-color:#889FAF"/>
		<stop  offset="1" style="stop-color:#637581"/>
	</linearGradient>
	<path fill="url(#SVGID_34_)" d="M192.512,563.472h-20.25v-15l20.25-17.25V563.472z"/>
	
		<linearGradient id="SVGID_35_" gradientUnits="userSpaceOnUse" x1="192.7041" y1="179.8047" x2="165.7041" y2="179.8047" gradientTransform="matrix(-0.75 0 0 -0.75 519.2628 682.2003)">
		<stop  offset="0" style="stop-color:#6C7E8B"/>
		<stop  offset="0.01" style="stop-color:#B4C6D3"/>
		<stop  offset="0.02" style="stop-color:#8DA6B6"/>
		<stop  offset="0.64" style="stop-color:#8BA3B3"/>
		<stop  offset="0.99" style="stop-color:#889FAF"/>
		<stop  offset="1" style="stop-color:#637581"/>
	</linearGradient>
	<path fill="url(#SVGID_35_)" d="M374.734,563.472h20.25v-15l-20.25-17.25V563.472z"/>
	<path fill="#717070" stroke="#717070" stroke-linejoin="bevel" stroke-miterlimit="10" d="M220.438,537.589
		c0-10.5,8.371-18.75,18.742-18.75c10.508,0,18.746,8.309,18.746,18.609c0.012,9.891-8.414,18.605-18.746,18.605
		c-10.492,0.285-18.742-8.352-18.742-18.605V537.589z"/>
	<path fill="#3E3938" stroke="#3E3938" stroke-linejoin="bevel" stroke-miterlimit="10" d="M223.23,537.363
		c0-9,7.121-15.75,15.949-15.75c8.801,0,15.953,7.07,15.953,15.836c0.348,8.914-7.16,15.832-15.953,15.832
		c-9.199-0.168-15.949-7.105-15.949-15.832V537.363z"/>
	<path fill="#717070" stroke="#717070" stroke-linejoin="bevel" stroke-miterlimit="10" d="M308.984,537.589
		c0-10.5,8.371-18.75,18.746-18.75c10.504,0,18.742,8.309,18.742,18.609c0.012,9.891-8.414,18.605-18.742,18.605
		c-10.496,0.285-18.746-8.352-18.746-18.605V537.589z"/>
	<path fill="#3E3938" stroke="#3E3938" stroke-linejoin="bevel" stroke-miterlimit="10" d="M311.777,537.363
		c0-9,7.125-15.75,15.953-15.75c8.797,0,15.949,7.07,15.949,15.836c0.348,8.914-7.16,15.832-15.949,15.832
		c-9.203-0.168-15.953-7.105-15.953-15.832V537.363z"/>
	<path fill="#3E3938" fill-opacity="0.5412" d="M266.543,197.512h33.75c0.75,0,0.844,0.238,0.844,0.531l-0.094,15.219
		c0,0-0.145,0.199-0.441,0.199l-34.058-0.199c-0.75,0-0.75-0.039-0.75-0.332v-14.668c0-0.75,0.238-0.75,0.535-0.75H266.543z"/>
	<path fill="#3E3938" fill-opacity="0.5412" d="M254.973,228.879h11.25c0.75,0,0.648,0.18,0.648,0.406l0.102,21.344
		c0,0-0.285,0.531-0.508,0.531l-11.492,0.219c-0.75,0-0.75-0.398-0.75-0.621v-21.129c0-0.75,0.18-0.75,0.406-0.75H254.973z"/>
	<path fill="#3E3938" fill-opacity="0.5412" d="M300.472,228.879h11.25c0.75,0,0.652,0.18,0.652,0.406l0.098,21.344
		c0,0-0.281,0.531-0.508,0.531l-11.492,0.219c-0.75,0-0.75-0.398-0.75-0.621v-21.129c0-0.75,0.184-0.75,0.406-0.75H300.472z"/>
</g>
</svg>
