<?xml version="1.0" encoding="utf-8"?>
<!-- Generator: Adobe Illustrator 16.0.0, SVG Export Plug-In . SVG Version: 6.00 Build 0)  -->
<!DOCTYPE svg PUBLIC "-//W3C//DTD SVG 1.1//EN" "http://www.w3.org/Graphics/SVG/1.1/DTD/svg11.dtd">
<svg preserveAspectRatio="none" version="1.1" id="图层_1" xmlns="http://www.w3.org/2000/svg" xmlns:xlink="http://www.w3.org/1999/xlink" x="0px" y="0px"
	 width="561.875px" height="383.792px" viewBox="1.84 180.41 561.875 383.792" enable-background="new 1.84 180.41 561.875 383.792"
	 xml:space="preserve">
<g id="surface871">
	
		<linearGradient id="SVGID_1_" gradientUnits="userSpaceOnUse" x1="208.2246" y1="190.8037" x2="202.2246" y2="190.8037" gradientTransform="matrix(0.75 0 0 -0.75 -143.2819 693.3517)">
		<stop  offset="0" style="stop-color:#2B2827"/>
		<stop  offset="0.15" style="stop-color:#5B5858"/>
		<stop  offset="0.25" style="stop-color:#B8B7B7"/>
		<stop  offset="0.52" style="stop-color:#353130"/>
		<stop  offset="0.69" style="stop-color:#2E2A29"/>
		<stop  offset="0.8" style="stop-color:#2B2726"/>
		<stop  offset="0.92" style="stop-color:#282424"/>
		<stop  offset="1" style="stop-color:#2F2B2B"/>
	</linearGradient>
	<path fill="url(#SVGID_1_)" d="M8.387,542.375h4.5v15.75h-4.5V542.375z"/>
	
		<linearGradient id="SVGID_2_" gradientUnits="userSpaceOnUse" x1="223.6963" y1="195.8047" x2="202.2275" y2="195.8047" gradientTransform="matrix(0.75 0 0 -0.75 -149.0695 706.9308)">
		<stop  offset="0" style="stop-color:#2B2827"/>
		<stop  offset="0.15" style="stop-color:#5B5858"/>
		<stop  offset="0.25" style="stop-color:#B8B7B7"/>
		<stop  offset="0.52" style="stop-color:#353130"/>
		<stop  offset="0.69" style="stop-color:#2E2A29"/>
		<stop  offset="0.8" style="stop-color:#2B2726"/>
		<stop  offset="0.92" style="stop-color:#282424"/>
		<stop  offset="1" style="stop-color:#2F2B2B"/>
	</linearGradient>
	<path fill="url(#SVGID_2_)" d="M4.102,555.953h12.75c1.5,0,1.852,0.719,1.852,1.609l-0.352,5.141c0,0.75-0.367,1.297-1.258,1.297
		l-12.992,0.203c-0.75,0-1.5-0.922-1.5-1.813v-4.938c0-0.75,0.719-1.5,1.609-1.5H4.102z"/>
	
		<linearGradient id="SVGID_3_" gradientUnits="userSpaceOnUse" x1="208.2246" y1="190.8037" x2="202.2246" y2="190.8037" gradientTransform="matrix(0.75 0 0 -0.75 -32.6686 693.3517)">
		<stop  offset="0" style="stop-color:#2B2827"/>
		<stop  offset="0.15" style="stop-color:#5B5858"/>
		<stop  offset="0.25" style="stop-color:#B8B7B7"/>
		<stop  offset="0.52" style="stop-color:#353130"/>
		<stop  offset="0.69" style="stop-color:#2E2A29"/>
		<stop  offset="0.8" style="stop-color:#2B2726"/>
		<stop  offset="0.92" style="stop-color:#282424"/>
		<stop  offset="1" style="stop-color:#2F2B2B"/>
	</linearGradient>
	<path fill="url(#SVGID_3_)" d="M119,542.375h4.5v15.75H119V542.375z"/>
	
		<linearGradient id="SVGID_4_" gradientUnits="userSpaceOnUse" x1="223.6963" y1="195.8047" x2="202.2275" y2="195.8047" gradientTransform="matrix(0.75 0 0 -0.75 -38.4562 706.9308)">
		<stop  offset="0" style="stop-color:#2B2827"/>
		<stop  offset="0.15" style="stop-color:#5B5858"/>
		<stop  offset="0.25" style="stop-color:#B8B7B7"/>
		<stop  offset="0.52" style="stop-color:#353130"/>
		<stop  offset="0.69" style="stop-color:#2E2A29"/>
		<stop  offset="0.8" style="stop-color:#2B2726"/>
		<stop  offset="0.92" style="stop-color:#282424"/>
		<stop  offset="1" style="stop-color:#2F2B2B"/>
	</linearGradient>
	<path fill="url(#SVGID_4_)" d="M114.715,555.953h12.75c1.5,0,1.852,0.719,1.852,1.609l-0.352,5.141c0,0.75-0.367,1.297-1.258,1.297
		l-12.992,0.203c-0.75,0-1.5-0.922-1.5-1.813v-4.938c0-0.75,0.719-1.5,1.609-1.5H114.715z"/>
	
		<linearGradient id="SVGID_5_" gradientUnits="userSpaceOnUse" x1="208.2236" y1="190.8037" x2="202.2236" y2="190.8037" gradientTransform="matrix(0.75 0 0 -0.75 170.5428 693.3517)">
		<stop  offset="0" style="stop-color:#2B2827"/>
		<stop  offset="0.15" style="stop-color:#5B5858"/>
		<stop  offset="0.25" style="stop-color:#B8B7B7"/>
		<stop  offset="0.52" style="stop-color:#353130"/>
		<stop  offset="0.69" style="stop-color:#2E2A29"/>
		<stop  offset="0.8" style="stop-color:#2B2726"/>
		<stop  offset="0.92" style="stop-color:#282424"/>
		<stop  offset="1" style="stop-color:#2F2B2B"/>
	</linearGradient>
	<path fill="url(#SVGID_5_)" d="M322.21,542.375h4.5v15.75h-4.5V542.375z"/>
	
		<linearGradient id="SVGID_6_" gradientUnits="userSpaceOnUse" x1="223.6943" y1="195.8047" x2="202.2256" y2="195.8047" gradientTransform="matrix(0.75 0 0 -0.75 164.7557 706.9308)">
		<stop  offset="0" style="stop-color:#2B2827"/>
		<stop  offset="0.15" style="stop-color:#5B5858"/>
		<stop  offset="0.25" style="stop-color:#B8B7B7"/>
		<stop  offset="0.52" style="stop-color:#353130"/>
		<stop  offset="0.69" style="stop-color:#2E2A29"/>
		<stop  offset="0.8" style="stop-color:#2B2726"/>
		<stop  offset="0.92" style="stop-color:#282424"/>
		<stop  offset="1" style="stop-color:#2F2B2B"/>
	</linearGradient>
	<path fill="url(#SVGID_6_)" d="M317.925,555.953h12.75c1.5,0,1.852,0.719,1.852,1.609l-0.352,5.141c0,0.75-0.367,1.297-1.258,1.297
		l-12.992,0.203c-0.75,0-1.5-0.922-1.5-1.813v-4.938c0-0.75,0.719-1.5,1.609-1.5H317.925z"/>
	
		<linearGradient id="SVGID_7_" gradientUnits="userSpaceOnUse" x1="208.2246" y1="190.8037" x2="202.2246" y2="190.8037" gradientTransform="matrix(0.75 0 0 -0.75 282.163 693.3517)">
		<stop  offset="0" style="stop-color:#2B2827"/>
		<stop  offset="0.15" style="stop-color:#5B5858"/>
		<stop  offset="0.25" style="stop-color:#B8B7B7"/>
		<stop  offset="0.52" style="stop-color:#353130"/>
		<stop  offset="0.69" style="stop-color:#2E2A29"/>
		<stop  offset="0.8" style="stop-color:#2B2726"/>
		<stop  offset="0.92" style="stop-color:#282424"/>
		<stop  offset="1" style="stop-color:#2F2B2B"/>
	</linearGradient>
	<path fill="url(#SVGID_7_)" d="M433.832,542.375h4.5v15.75h-4.5V542.375z"/>
	
		<linearGradient id="SVGID_8_" gradientUnits="userSpaceOnUse" x1="223.6958" y1="195.8047" x2="202.2222" y2="195.8047" gradientTransform="matrix(0.75 0 0 -0.75 276.3759 706.9308)">
		<stop  offset="0" style="stop-color:#2B2827"/>
		<stop  offset="0.15" style="stop-color:#5B5858"/>
		<stop  offset="0.25" style="stop-color:#B8B7B7"/>
		<stop  offset="0.52" style="stop-color:#353130"/>
		<stop  offset="0.69" style="stop-color:#2E2A29"/>
		<stop  offset="0.8" style="stop-color:#2B2726"/>
		<stop  offset="0.92" style="stop-color:#282424"/>
		<stop  offset="1" style="stop-color:#2F2B2B"/>
	</linearGradient>
	<path fill="url(#SVGID_8_)" d="M429.542,555.953h12.75c1.5,0,1.855,0.719,1.855,1.609l-0.355,5.141c0,0.75-0.367,1.297-1.254,1.297
		l-12.996,0.203c-0.75,0-1.5-0.922-1.5-1.813v-4.938c0-0.75,0.723-1.5,1.613-1.5H429.542z"/>
	
		<linearGradient id="SVGID_9_" gradientUnits="userSpaceOnUse" x1="359.2251" y1="136.8086" x2="202.2256" y2="136.8086" gradientTransform="matrix(0.75 0 0 -0.75 291.7245 573.9562)">
		<stop  offset="0" style="stop-color:#92A6AE"/>
		<stop  offset="0.01" style="stop-color:#DAEFF8"/>
		<stop  offset="0.02" style="stop-color:#BED8E3"/>
		<stop  offset="0.64" style="stop-color:#BBD5DF"/>
		<stop  offset="0.99" style="stop-color:#B7D0DA"/>
		<stop  offset="1" style="stop-color:#879AA2"/>
	</linearGradient>
	<path fill="url(#SVGID_9_)" d="M443.394,422.976h117.75v34.5l-90,62.25h-27.75V422.976z"/>
	
		<linearGradient id="SVGID_10_" gradientUnits="userSpaceOnUse" x1="366.2251" y1="194.3198" x2="202.2251" y2="194.3198" gradientTransform="matrix(0.75 0 0 -0.75 289.0448 568.6749)">
		<stop  offset="0" style="stop-color:#6C838C"/>
		<stop  offset="0.01" style="stop-color:#B4CBD4"/>
		<stop  offset="0.02" style="stop-color:#8DACB7"/>
		<stop  offset="0.64" style="stop-color:#8BA9B4"/>
		<stop  offset="0.99" style="stop-color:#88A5B0"/>
		<stop  offset="1" style="stop-color:#637A82"/>
	</linearGradient>
	<path fill="url(#SVGID_10_)" d="M442.214,417.699h120c0.75,0,1.418,0.66,1.418,1.551l0.082,7.449c0,0.75-0.84,1.535-1.73,1.535
		l-119.77-0.035c-0.75,0-1.5-0.688-1.5-1.574v-7.426c0-0.75,0.676-1.563,1.563-1.563L442.214,417.699z"/>
	
		<linearGradient id="SVGID_11_" gradientUnits="userSpaceOnUse" x1="695.2231" y1="168.7832" x2="202.2241" y2="168.7832" gradientTransform="matrix(0.75 0 0 -0.75 -113.8326 331.3868)">
		<stop  offset="0" style="stop-color:#92A6AE"/>
		<stop  offset="0.01" style="stop-color:#DAEFF8"/>
		<stop  offset="0.02" style="stop-color:#BED8E3"/>
		<stop  offset="0.64" style="stop-color:#BBD5DF"/>
		<stop  offset="0.99" style="stop-color:#B7D0DA"/>
		<stop  offset="1" style="stop-color:#879AA2"/>
	</linearGradient>
	<path fill="url(#SVGID_11_)" d="M368.585,229.16h39l-0.051-32.055c0.051-16.695-16.449-16.695-16.449-16.695H54.336
		c0,0-16.5,0.602-16.5,16.43c0,0.07,0,32.352,0,32.352l39-0.031l-0.355-10.059c0.355-7.941,8.094-9.391,8.094-9.391l275.011-0.051
		c0,0.75,9.258-0.102,9.258,9.711c-0.258,0.039,0,9.82,0,9.82L368.585,229.16z"/>
	
		<linearGradient id="SVGID_12_" gradientUnits="userSpaceOnUse" x1="791.2241" y1="187.7417" x2="202.2241" y2="187.7417" gradientTransform="matrix(0.75 0 0 -0.75 -149.7198 414.8947)">
		<stop  offset="0" style="stop-color:#768F98"/>
		<stop  offset="0.01" style="stop-color:#BED7E1"/>
		<stop  offset="0.02" style="stop-color:#9ABBC7"/>
		<stop  offset="0.64" style="stop-color:#98B8C4"/>
		<stop  offset="0.99" style="stop-color:#94B4BF"/>
		<stop  offset="1" style="stop-color:#6D858D"/>
	</linearGradient>
	<path fill="url(#SVGID_12_)" d="M2.699,263.918h440.25c0.75,0,0.473,0.305,0.473,0.711l0.277,18.789
		c0,0.75-0.277,0.871-0.813,0.871L2.699,284.167c-0.75,0-0.75-0.21-0.75-0.621v-18.879c0-0.75,0-0.777,0.496-0.777L2.699,263.918z"
		/>
	
		<linearGradient id="SVGID_13_" gradientUnits="userSpaceOnUse" x1="349.2241" y1="106.8037" x2="202.2241" y2="106.8037" gradientTransform="matrix(0.75 0 0 -0.75 -39.3834 556.2306)">
		<stop  offset="0" style="stop-color:#92A6AE"/>
		<stop  offset="0.01" style="stop-color:#DAEFF8"/>
		<stop  offset="0.02" style="stop-color:#BED8E3"/>
		<stop  offset="0.64" style="stop-color:#BBD5DF"/>
		<stop  offset="0.99" style="stop-color:#B7D0DA"/>
		<stop  offset="1" style="stop-color:#879AA2"/>
	</linearGradient>
	<path fill="url(#SVGID_13_)" d="M112.285,405.253h110.25v141.75h-110.25V405.253z"/>
	
		<linearGradient id="SVGID_14_" gradientUnits="userSpaceOnUse" x1="349.2251" y1="106.8037" x2="202.2246" y2="106.8037" gradientTransform="matrix(0.75 0 0 -0.75 -149.8292 556.2306)">
		<stop  offset="0" style="stop-color:#92A6AE"/>
		<stop  offset="0.01" style="stop-color:#DAEFF8"/>
		<stop  offset="0.02" style="stop-color:#BED8E3"/>
		<stop  offset="0.64" style="stop-color:#BBD5DF"/>
		<stop  offset="0.99" style="stop-color:#B7D0DA"/>
		<stop  offset="1" style="stop-color:#879AA2"/>
	</linearGradient>
	<path fill="url(#SVGID_14_)" d="M1.84,405.253h110.25v141.75H1.84V405.253z"/>
	
		<linearGradient id="SVGID_15_" gradientUnits="userSpaceOnUse" x1="349.2241" y1="106.8037" x2="202.2241" y2="106.8037" gradientTransform="matrix(0.75 0 0 -0.75 181.2411 556.2306)">
		<stop  offset="0" style="stop-color:#92A6AE"/>
		<stop  offset="0.01" style="stop-color:#DAEFF8"/>
		<stop  offset="0.02" style="stop-color:#BED8E3"/>
		<stop  offset="0.64" style="stop-color:#BBD5DF"/>
		<stop  offset="0.99" style="stop-color:#B7D0DA"/>
		<stop  offset="1" style="stop-color:#879AA2"/>
	</linearGradient>
	<path fill="url(#SVGID_15_)" d="M332.91,405.253h110.25v141.75H332.91V405.253z"/>
	
		<linearGradient id="SVGID_16_" gradientUnits="userSpaceOnUse" x1="349.2251" y1="106.8037" x2="202.2261" y2="106.8037" gradientTransform="matrix(0.75 0 0 -0.75 70.7948 556.2306)">
		<stop  offset="0" style="stop-color:#92A6AE"/>
		<stop  offset="0.01" style="stop-color:#DAEFF8"/>
		<stop  offset="0.02" style="stop-color:#BED8E3"/>
		<stop  offset="0.64" style="stop-color:#BBD5DF"/>
		<stop  offset="0.99" style="stop-color:#B7D0DA"/>
		<stop  offset="1" style="stop-color:#879AA2"/>
	</linearGradient>
	<path fill="url(#SVGID_16_)" d="M222.465,405.253h110.25v141.75h-110.25V405.253z"/>
	
		<linearGradient id="SVGID_17_" gradientUnits="userSpaceOnUse" x1="349.2222" y1="120.3066" x2="202.2222" y2="120.3066" gradientTransform="matrix(0.75 0 0 -0.75 -39.316 435.3263)">
		<stop  offset="0" style="stop-color:#92A6AE"/>
		<stop  offset="0.01" style="stop-color:#DAEFF8"/>
		<stop  offset="0.02" style="stop-color:#BED8E3"/>
		<stop  offset="0.64" style="stop-color:#BBD5DF"/>
		<stop  offset="0.99" style="stop-color:#B7D0DA"/>
		<stop  offset="1" style="stop-color:#879AA2"/>
	</linearGradient>
	<path fill="url(#SVGID_17_)" d="M112.352,284.347h110.25v121.5h-110.25V284.347z"/>
	
		<linearGradient id="SVGID_18_" gradientUnits="userSpaceOnUse" x1="349.2271" y1="120.3066" x2="202.2275" y2="120.3066" gradientTransform="matrix(0.75 0 0 -0.75 -149.6945 435.3263)">
		<stop  offset="0" style="stop-color:#92A6AE"/>
		<stop  offset="0.01" style="stop-color:#DAEFF8"/>
		<stop  offset="0.02" style="stop-color:#BED8E3"/>
		<stop  offset="0.64" style="stop-color:#BBD5DF"/>
		<stop  offset="0.99" style="stop-color:#B7D0DA"/>
		<stop  offset="1" style="stop-color:#879AA2"/>
	</linearGradient>
	<path fill="url(#SVGID_18_)" d="M1.977,284.347h110.25v121.5H1.977V284.347z"/>
	
		<linearGradient id="SVGID_19_" gradientUnits="userSpaceOnUse" x1="349.2222" y1="120.3066" x2="202.2222" y2="120.3066" gradientTransform="matrix(0.75 0 0 -0.75 181.3085 435.3263)">
		<stop  offset="0" style="stop-color:#92A6AE"/>
		<stop  offset="0.01" style="stop-color:#DAEFF8"/>
		<stop  offset="0.02" style="stop-color:#BED8E3"/>
		<stop  offset="0.64" style="stop-color:#BBD5DF"/>
		<stop  offset="0.99" style="stop-color:#B7D0DA"/>
		<stop  offset="1" style="stop-color:#879AA2"/>
	</linearGradient>
	<path fill="url(#SVGID_19_)" d="M332.976,284.347h110.25v121.5h-110.25V284.347z"/>
	
		<linearGradient id="SVGID_20_" gradientUnits="userSpaceOnUse" x1="349.2231" y1="120.3066" x2="202.2241" y2="120.3066" gradientTransform="matrix(0.75 0 0 -0.75 70.9291 435.3263)">
		<stop  offset="0" style="stop-color:#92A6AE"/>
		<stop  offset="0.01" style="stop-color:#DAEFF8"/>
		<stop  offset="0.02" style="stop-color:#BED8E3"/>
		<stop  offset="0.64" style="stop-color:#BBD5DF"/>
		<stop  offset="0.99" style="stop-color:#B7D0DA"/>
		<stop  offset="1" style="stop-color:#879AA2"/>
	</linearGradient>
	<path fill="url(#SVGID_20_)" d="M222.598,284.347h110.25v121.5h-110.25V284.347z"/>
	
		<linearGradient id="SVGID_21_" gradientUnits="userSpaceOnUse" x1="242.2261" y1="201.3057" x2="242.2261" y2="182.3057" gradientTransform="matrix(0.75 0 0 -0.75 -124.3649 400.7911)">
		<stop  offset="0" style="stop-color:#92A6AE"/>
		<stop  offset="0.01" style="stop-color:#DAEFF8"/>
		<stop  offset="0.02" style="stop-color:#BED8E3"/>
		<stop  offset="0.64" style="stop-color:#BBD5DF"/>
		<stop  offset="0.99" style="stop-color:#B7D0DA"/>
		<stop  offset="1" style="stop-color:#879AA2"/>
	</linearGradient>
	<path fill="url(#SVGID_21_)" d="M27.305,264.063h60l-10.5-14.25h-39L27.305,264.063z"/>
	
		<linearGradient id="SVGID_22_" gradientUnits="userSpaceOnUse" x1="254.2256" y1="188.8027" x2="202.2256" y2="188.8027" gradientTransform="matrix(0.75 0 0 -0.75 -113.8297 382.0079)">
		<stop  offset="0" style="stop-color:#92A6AE"/>
		<stop  offset="0.01" style="stop-color:#DAEFF8"/>
		<stop  offset="0.02" style="stop-color:#BED8E3"/>
		<stop  offset="0.64" style="stop-color:#BBD5DF"/>
		<stop  offset="0.99" style="stop-color:#B7D0DA"/>
		<stop  offset="1" style="stop-color:#879AA2"/>
	</linearGradient>
	<path fill="url(#SVGID_22_)" d="M37.84,249.781h39v-18.75h-39V249.781z"/>
	
		<linearGradient id="SVGID_23_" gradientUnits="userSpaceOnUse" x1="257.2227" y1="199.3047" x2="202.2227" y2="199.3047" gradientTransform="matrix(0.75 0 0 -0.75 -115.1866 379.4669)">
		<stop  offset="0" style="stop-color:#7893A0"/>
		<stop  offset="0.01" style="stop-color:#C0DBE9"/>
		<stop  offset="0.02" style="stop-color:#9DC0D1"/>
		<stop  offset="0.64" style="stop-color:#9BBDCE"/>
		<stop  offset="0.99" style="stop-color:#97B9C9"/>
		<stop  offset="1" style="stop-color:#6F8995"/>
	</linearGradient>
	<path fill="url(#SVGID_23_)" d="M36.48,231.488h41.25v-3H36.48V231.488z"/>
	
		<linearGradient id="SVGID_24_" gradientUnits="userSpaceOnUse" x1="242.2227" y1="201.3057" x2="242.2227" y2="182.3057" gradientTransform="matrix(0.75 0 0 -0.75 206.6376 400.7921)">
		<stop  offset="0" style="stop-color:#92A6AE"/>
		<stop  offset="0.01" style="stop-color:#DAEFF8"/>
		<stop  offset="0.02" style="stop-color:#BED8E3"/>
		<stop  offset="0.64" style="stop-color:#BBD5DF"/>
		<stop  offset="0.99" style="stop-color:#B7D0DA"/>
		<stop  offset="1" style="stop-color:#879AA2"/>
	</linearGradient>
	<path fill="url(#SVGID_24_)" d="M358.304,264.063h60l-10.5-14.25h-39L358.304,264.063z"/>
	
		<linearGradient id="SVGID_25_" gradientUnits="userSpaceOnUse" x1="254.2246" y1="188.8027" x2="202.2246" y2="188.8027" gradientTransform="matrix(0.75 0 0 -0.75 217.1747 382.0157)">
		<stop  offset="0" style="stop-color:#92A6AE"/>
		<stop  offset="0.01" style="stop-color:#DAEFF8"/>
		<stop  offset="0.02" style="stop-color:#BED8E3"/>
		<stop  offset="0.64" style="stop-color:#BBD5DF"/>
		<stop  offset="0.99" style="stop-color:#B7D0DA"/>
		<stop  offset="1" style="stop-color:#879AA2"/>
	</linearGradient>
	<path fill="url(#SVGID_25_)" d="M368.843,249.789h39v-18.75h-39V249.789z"/>
	
		<linearGradient id="SVGID_26_" gradientUnits="userSpaceOnUse" x1="257.2231" y1="199.3047" x2="202.2231" y2="199.3047" gradientTransform="matrix(0.75 0 0 -0.75 215.8163 379.4669)">
		<stop  offset="0" style="stop-color:#7893A0"/>
		<stop  offset="0.01" style="stop-color:#C0DBE9"/>
		<stop  offset="0.02" style="stop-color:#9DC0D1"/>
		<stop  offset="0.64" style="stop-color:#9BBDCE"/>
		<stop  offset="0.99" style="stop-color:#97B9C9"/>
		<stop  offset="1" style="stop-color:#6F8995"/>
	</linearGradient>
	<path fill="url(#SVGID_26_)" d="M367.484,231.488h41.25v-3h-41.25V231.488z"/>
	
		<linearGradient id="SVGID_27_" gradientUnits="userSpaceOnUse" x1="290.2915" y1="137.3027" x2="202.2241" y2="137.3027" gradientTransform="matrix(0.75 0 0 -0.75 -127.4928 448.1095)">
		<stop  offset="0" style="stop-color:#292525"/>
		<stop  offset="0.01" style="stop-color:#868584"/>
		<stop  offset="0.02" style="stop-color:#383433"/>
		<stop  offset="0.64" style="stop-color:#373332"/>
		<stop  offset="0.99" style="stop-color:#363130"/>
		<stop  offset="1" style="stop-color:#252221"/>
	</linearGradient>
	<path fill="url(#SVGID_27_)" d="M32.426,297.132h49.5c4.5,0,8.301,3.551,8.301,7.996l-0.051,79.754c0,4.5-3.59,7.996-8.039,7.996
		l-49.711,0.254c-4.5,0-8.25-3.895-8.25-8.34v-79.41c0-4.5,3.594-8.25,8.039-8.25H32.426z"/>
	
		<linearGradient id="SVGID_28_" gradientUnits="userSpaceOnUse" x1="290.2905" y1="137.3027" x2="202.2231" y2="137.3027" gradientTransform="matrix(0.75 0 0 -0.75 -17.152 448.0499)">
		<stop  offset="0" style="stop-color:#292525"/>
		<stop  offset="0.01" style="stop-color:#868584"/>
		<stop  offset="0.02" style="stop-color:#383433"/>
		<stop  offset="0.64" style="stop-color:#373332"/>
		<stop  offset="0.99" style="stop-color:#363130"/>
		<stop  offset="1" style="stop-color:#252221"/>
	</linearGradient>
	<path fill="url(#SVGID_28_)" d="M142.766,297.074h49.5c4.5,0,8.301,3.551,8.301,7.996l-0.051,79.754c0,4.5-3.59,7.992-8.039,7.992
		l-49.711,0.258c-4.5,0-8.25-3.898-8.25-8.34v-79.41c0-4.5,3.594-8.25,8.039-8.25H142.766z"/>
	
		<linearGradient id="SVGID_29_" gradientUnits="userSpaceOnUse" x1="279.2222" y1="143.1743" x2="202.2222" y2="143.1743" gradientTransform="matrix(0.75 0 0 -0.75 -12.8429 452.3243)">
		<stop  offset="0" style="stop-color:#92A6AE"/>
		<stop  offset="0.01" style="stop-color:#DAEFF8"/>
		<stop  offset="0.02" style="stop-color:#BED8E3"/>
		<stop  offset="0.64" style="stop-color:#BBD5DF"/>
		<stop  offset="0.99" style="stop-color:#B7D0DA"/>
		<stop  offset="1" style="stop-color:#879AA2"/>
	</linearGradient>
	<path fill="url(#SVGID_29_)" d="M144.824,301.347h45c3.75,0,6.434,2.68,6.434,6.016l0.316,74.984c0,3.75-3.047,6.195-6.383,6.195
		l-45.367-0.195c-3,0-6-2.547-6-5.883v-75.117c0-3,2.672-6,6.008-6H144.824z"/>
	
		<linearGradient id="SVGID_30_" gradientUnits="userSpaceOnUse" x1="290.2915" y1="137.3027" x2="202.2241" y2="137.3027" gradientTransform="matrix(0.75 0 0 -0.75 93.0927 448.0499)">
		<stop  offset="0" style="stop-color:#292525"/>
		<stop  offset="0.01" style="stop-color:#868584"/>
		<stop  offset="0.02" style="stop-color:#383433"/>
		<stop  offset="0.64" style="stop-color:#373332"/>
		<stop  offset="0.99" style="stop-color:#363130"/>
		<stop  offset="1" style="stop-color:#252221"/>
	</linearGradient>
	<path fill="url(#SVGID_30_)" d="M253.012,297.074h49.5c4.5,0,8.301,3.551,8.301,7.996l-0.051,79.754c0,4.5-3.59,7.992-8.039,7.992
		l-49.71,0.258c-4.5,0-8.25-3.898-8.25-8.34v-79.41c0-4.5,3.594-8.25,8.039-8.25H253.012z"/>
	
		<linearGradient id="SVGID_31_" gradientUnits="userSpaceOnUse" x1="279.2236" y1="143.1743" x2="202.2246" y2="143.1743" gradientTransform="matrix(0.75 0 0 -0.75 97.4017 452.3243)">
		<stop  offset="0" style="stop-color:#92A6AE"/>
		<stop  offset="0.01" style="stop-color:#DAEFF8"/>
		<stop  offset="0.02" style="stop-color:#BED8E3"/>
		<stop  offset="0.64" style="stop-color:#BBD5DF"/>
		<stop  offset="0.99" style="stop-color:#B7D0DA"/>
		<stop  offset="1" style="stop-color:#879AA2"/>
	</linearGradient>
	<path fill="url(#SVGID_31_)" d="M255.07,301.347h45c3.75,0,6.434,2.68,6.434,6.016l0.316,74.984c0,3.75-3.051,6.195-6.383,6.195
		l-45.367-0.195c-3,0-6-2.547-6-5.883v-75.117c0-3,2.672-6,6.004-6H255.07z"/>
	
		<linearGradient id="SVGID_32_" gradientUnits="userSpaceOnUse" x1="290.2915" y1="137.3027" x2="202.2241" y2="137.3027" gradientTransform="matrix(0.75 0 0 -0.75 203.4716 448.0499)">
		<stop  offset="0" style="stop-color:#292525"/>
		<stop  offset="0.01" style="stop-color:#868584"/>
		<stop  offset="0.02" style="stop-color:#383433"/>
		<stop  offset="0.64" style="stop-color:#373332"/>
		<stop  offset="0.99" style="stop-color:#363130"/>
		<stop  offset="1" style="stop-color:#252221"/>
	</linearGradient>
	<path fill="url(#SVGID_32_)" d="M363.39,297.074h49.5c4.5,0,8.301,3.551,8.301,7.996l-0.051,79.754c0,4.5-3.59,7.992-8.039,7.992
		l-49.711,0.258c-4.5,0-8.25-3.898-8.25-8.34v-79.41c0-4.5,3.594-8.25,8.039-8.25H363.39z"/>
	
		<linearGradient id="SVGID_33_" gradientUnits="userSpaceOnUse" x1="279.2227" y1="143.1743" x2="202.2227" y2="143.1743" gradientTransform="matrix(0.75 0 0 -0.75 207.7811 452.3243)">
		<stop  offset="0" style="stop-color:#92A6AE"/>
		<stop  offset="0.01" style="stop-color:#DAEFF8"/>
		<stop  offset="0.02" style="stop-color:#BED8E3"/>
		<stop  offset="0.64" style="stop-color:#BBD5DF"/>
		<stop  offset="0.99" style="stop-color:#B7D0DA"/>
		<stop  offset="1" style="stop-color:#879AA2"/>
	</linearGradient>
	<path fill="url(#SVGID_33_)" d="M365.449,301.347h45c3.75,0,6.434,2.68,6.434,6.016l0.316,74.984c0,3.75-3.051,6.195-6.383,6.195
		l-45.367-0.195c-3,0-6-2.547-6-5.883v-75.117c0-3,2.672-6,6.008-6H365.449z"/>
	<path fill="#CFEBF6" d="M34.484,301.406h45c3.75,0,6.434,2.684,6.434,6.016l0.316,74.984c0,3.75-3.051,6.195-6.383,6.195
		l-45.367-0.195c-3,0-6-2.547-6-5.879v-75.121c0-3,2.672-6,6.008-6H34.484z"/>
	<path fill="#FFFFFF" fill-opacity="0.2863" d="M34.484,301.406h11.25l40.5,81c0,3.75-3.051,6.195-6.383,6.195l-45.367-0.195
		c-3,0-6-2.547-6-5.879v-75.121c0-3,2.672-6,6.008-6H34.484z"/>
	<path fill="#CFEBF6" d="M144.824,301.347h45c3.75,0,6.434,2.68,6.434,6.016l0.316,74.984c0,3.75-3.047,6.195-6.383,6.195
		l-45.367-0.195c-3,0-6-2.547-6-5.883v-75.117c0-3,2.672-6,6.008-6H144.824z"/>
	<path fill="#FFFFFF" fill-opacity="0.2863" d="M144.824,301.347h11.25l40.5,81c0,3.75-3.047,6.195-6.383,6.195l-45.367-0.195
		c-3,0-6-2.547-6-5.883v-75.117c0-3,2.672-6,6.008-6H144.824z"/>
	<path fill="#CFEBF6" d="M255.07,301.347h45c3.75,0,6.434,2.68,6.434,6.016l0.316,74.984c0,3.75-3.051,6.195-6.387,6.195
		l-45.363-0.195c-3,0-6-2.547-6-5.883v-75.117c0-3,2.672-6,6.008-6H255.07z"/>
	<path fill="#FFFFFF" fill-opacity="0.2863" d="M255.07,301.347h11.25l40.5,81c0,3.75-3.051,6.195-6.383,6.195l-45.367-0.195
		c-3,0-6-2.547-6-5.883v-75.117c0-3,2.672-6,6.008-6H255.07z"/>
	<path fill="#CFEBF6" d="M365.449,301.347h45c3.75,0,6.434,2.68,6.434,6.016l0.316,74.984c0,3.75-3.051,6.195-6.383,6.195
		l-45.367-0.195c-3,0-6-2.547-6-5.883v-75.117c0-3,2.672-6,6.008-6H365.449z"/>
	<path fill="#FFFFFF" fill-opacity="0.2863" d="M365.449,301.347h11.25l40.5,81c0,3.75-3.051,6.195-6.383,6.195l-45.367-0.195
		c-3,0-6-2.547-6-5.883v-75.117c0-3,2.672-6,6.008-6H365.449z"/>
	<path fill="#92BDCD" d="M1.938,404.246h440.25v2.25H1.938V404.246z"/>
	
		<linearGradient id="SVGID_34_" gradientUnits="userSpaceOnUse" x1="791.2251" y1="195.7637" x2="202.2256" y2="195.7636" gradientTransform="matrix(0.75 0 0 -0.75 -149.674 690.0323)">
		<stop  offset="0" style="stop-color:#768F98"/>
		<stop  offset="0.01" style="stop-color:#BED7E1"/>
		<stop  offset="0.02" style="stop-color:#9ABBC7"/>
		<stop  offset="0.64" style="stop-color:#98B8C4"/>
		<stop  offset="0.99" style="stop-color:#94B4BF"/>
		<stop  offset="1" style="stop-color:#6D858D"/>
	</linearGradient>
	<path fill="url(#SVGID_34_)" d="M2.746,539.054h440.25c0.75,0,0.473,0.125,0.473,0.293l0.277,7.957c0,0-0.277,0.074-0.813,0.074
		L2.746,547.304c-0.75,0-0.75-0.063-0.75-0.227v-8.023c0,0,0-0.012,0.492-0.012L2.746,539.054z"/>
	<path fill="#6E9BAC" d="M103.68,461.507h-16.5c-0.75,0-1.23,0.43-1.23,0.984l-0.27,5.016c0,0.75,0.719,0.98,1.27,0.98l16.73-0.23
		c0,0,0.773-0.219,0.773-0.77l-0.023-5.23c0,0-0.422-0.766-0.977-0.766L103.68,461.507z"/>
	
		<linearGradient id="SVGID_35_" gradientUnits="userSpaceOnUse" x1="177.7061" y1="196.6748" x2="165.6904" y2="196.6748" gradientTransform="matrix(-0.75 0 0 -0.75 228.7091 612.4835)">
		<stop  offset="0" style="stop-color:#B5B5B5"/>
		<stop  offset="0.01" style="stop-color:#FFFFFF"/>
		<stop  offset="0.02" style="stop-color:#EBEBEB"/>
		<stop  offset="0.64" style="stop-color:#E7E7E7"/>
		<stop  offset="0.99" style="stop-color:#E2E2E2"/>
		<stop  offset="1" style="stop-color:#A8A8A8"/>
	</linearGradient>
	<path fill="url(#SVGID_35_)" d="M103.68,461.507h-6.75c-0.75,0-1.242,0.422-1.242,0.973l-0.258,5.027
		c0,0.75,0.707,0.969,1.262,0.969l6.988-0.219c0,0,0.762-0.227,0.762-0.781l-0.012-5.219c0,0-0.438-0.777-0.988-0.777
		L103.68,461.507z"/>
	<path fill="#6E9BAC" d="M119.598,461.507h16.5c0.75,0,1.234,0.43,1.234,0.984l0.266,5.016c0,0.75-0.715,0.98-1.266,0.98
		l-16.734-0.23c0,0-0.773-0.219-0.773-0.77l0.023-5.23c0,0,0.426-0.766,0.977-0.766L119.598,461.507z"/>
	
		<linearGradient id="SVGID_36_" gradientUnits="userSpaceOnUse" x1="214.2236" y1="196.6748" x2="202.2129" y2="196.6748" gradientTransform="matrix(0.75 0 0 -0.75 -32.8199 612.4835)">
		<stop  offset="0" style="stop-color:#B5B5B5"/>
		<stop  offset="0.01" style="stop-color:#FFFFFF"/>
		<stop  offset="0.02" style="stop-color:#EBEBEB"/>
		<stop  offset="0.64" style="stop-color:#E7E7E7"/>
		<stop  offset="0.99" style="stop-color:#E2E2E2"/>
		<stop  offset="1" style="stop-color:#A8A8A8"/>
	</linearGradient>
	<path fill="url(#SVGID_36_)" d="M119.598,461.507h6.75c0.75,0,1.242,0.422,1.242,0.973l0.258,5.027c0,0.75-0.703,0.969-1.258,0.969
		l-6.992-0.219c0,0-0.758-0.227-0.758-0.781l0.008-5.219c0,0,0.438-0.777,0.992-0.777L119.598,461.507z"/>
	<path fill="#6E9BAC" d="M325.011,461.507h-16.5c-0.75,0-1.23,0.43-1.23,0.984l-0.27,5.016c0,0.75,0.715,0.98,1.27,0.98l16.73-0.23
		c0,0,0.773-0.219,0.773-0.77l-0.023-5.23c0,0-0.426-0.766-0.977-0.766L325.011,461.507z"/>
	
		<linearGradient id="SVGID_37_" gradientUnits="userSpaceOnUse" x1="177.7041" y1="196.6748" x2="165.6885" y2="196.6748" gradientTransform="matrix(-0.75 0 0 -0.75 450.0392 612.4835)">
		<stop  offset="0" style="stop-color:#B5B5B5"/>
		<stop  offset="0.01" style="stop-color:#FFFFFF"/>
		<stop  offset="0.02" style="stop-color:#EBEBEB"/>
		<stop  offset="0.64" style="stop-color:#E7E7E7"/>
		<stop  offset="0.99" style="stop-color:#E2E2E2"/>
		<stop  offset="1" style="stop-color:#A8A8A8"/>
	</linearGradient>
	<path fill="url(#SVGID_37_)" d="M325.011,461.507h-6.75c-0.75,0-1.242,0.422-1.242,0.973l-0.258,5.027
		c0,0.75,0.707,0.969,1.258,0.969l6.992-0.219c0,0,0.762-0.227,0.762-0.781l-0.012-5.219c0,0-0.438-0.777-0.988-0.777
		L325.011,461.507z"/>
	<path fill="#6E9BAC" d="M340.929,461.507h16.5c0.75,0,1.23,0.43,1.23,0.984l0.27,5.016c0,0.75-0.715,0.98-1.27,0.98l-16.73-0.23
		c0,0-0.773-0.219-0.773-0.77l0.023-5.23c0,0,0.426-0.766,0.977-0.766L340.929,461.507z"/>
	
		<linearGradient id="SVGID_38_" gradientUnits="userSpaceOnUse" x1="214.2246" y1="196.6748" x2="202.209" y2="196.6748" gradientTransform="matrix(0.75 0 0 -0.75 188.5106 612.4835)">
		<stop  offset="0" style="stop-color:#B5B5B5"/>
		<stop  offset="0.01" style="stop-color:#FFFFFF"/>
		<stop  offset="0.02" style="stop-color:#EBEBEB"/>
		<stop  offset="0.64" style="stop-color:#E7E7E7"/>
		<stop  offset="0.99" style="stop-color:#E2E2E2"/>
		<stop  offset="1" style="stop-color:#A8A8A8"/>
	</linearGradient>
	<path fill="url(#SVGID_38_)" d="M340.929,461.507h6.75c0.75,0,1.242,0.422,1.242,0.973l0.258,5.027c0,0.75-0.707,0.969-1.258,0.969
		l-6.992-0.219c0,0-0.762-0.227-0.762-0.781l0.012-5.219c0,0,0.438-0.777,0.988-0.777L340.929,461.507z"/>
</g>
</svg>
