<?xml version="1.0" encoding="utf-8"?>
<!-- Generator: Adobe Illustrator 16.0.0, SVG Export Plug-In . SVG Version: 6.00 Build 0)  -->
<!DOCTYPE svg PUBLIC "-//W3C//DTD SVG 1.1//EN" "http://www.w3.org/Graphics/SVG/1.1/DTD/svg11.dtd">
<svg preserveAspectRatio="none" version="1.1" id="图层_1" xmlns="http://www.w3.org/2000/svg" xmlns:xlink="http://www.w3.org/1999/xlink" x="0px" y="0px"
	 width="39.83px" height="563.468px" viewBox="2.957 -0.035 39.83 563.468" enable-background="new 2.957 -0.035 39.83 563.468"
	 xml:space="preserve">
<g id="surface731">
	
		<linearGradient id="SVGID_1_" gradientUnits="userSpaceOnUse" x1="254.2227" y1="155.3057" x2="202.2227" y2="155.3057" gradientTransform="matrix(0.75 0 0 -0.75 -148.257 645.4122)">
		<stop  offset="0" style="stop-color:#979898"/>
		<stop  offset="0.15" style="stop-color:#D0D1D1"/>
		<stop  offset="0.25" style="stop-color:#E5E6E6"/>
		<stop  offset="0.52" style="stop-color:#B3B4B4"/>
		<stop  offset="0.69" style="stop-color:#9FA0A0"/>
		<stop  offset="0.8" style="stop-color:#969797"/>
		<stop  offset="0.92" style="stop-color:#8E8E8E"/>
		<stop  offset="1" style="stop-color:#A3A4A4"/>
	</linearGradient>
	<path fill="url(#SVGID_1_)" d="M42.41,528.933v24.75l-19.5,9.75l-19.5-9.75v-9.75c0,0,16.605-17.047,32.164-49.5
		c0.086,0.75,6.754,34.305,6.754,34.305L42.41,528.933z"/>
	
		<linearGradient id="SVGID_2_" gradientUnits="userSpaceOnUse" x1="255.2729" y1="130.8052" x2="202.2261" y2="130.8052" gradientTransform="matrix(0.75 0 0 -0.75 -148.713 431.6154)">
		<stop  offset="0" style="stop-color:#BDBDBD"/>
		<stop  offset="0.15" style="stop-color:#FFFFFF"/>
		<stop  offset="0.25" style="stop-color:#FFFFFF"/>
		<stop  offset="0.52" style="stop-color:#DFDFDF"/>
		<stop  offset="0.69" style="stop-color:#C7C7C7"/>
		<stop  offset="0.8" style="stop-color:#BCBCBC"/>
		<stop  offset="0.92" style="stop-color:#B1B1B1"/>
		<stop  offset="1" style="stop-color:#CBCBCB"/>
	</linearGradient>
	<path fill="url(#SVGID_2_)" d="M42.707,280.637c0,0-5.797,27.597-39.75,62.726v43.023c0,0,24.527-27.621,39.785-66.871
		L42.707,280.637z"/>
	
		<linearGradient id="SVGID_3_" gradientUnits="userSpaceOnUse" x1="255.2393" y1="148.7676" x2="202.2261" y2="148.7676" gradientTransform="matrix(0.75 0 0 -0.75 -148.6427 484.0958)">
		<stop  offset="0" style="stop-color:#979898"/>
		<stop  offset="0.15" style="stop-color:#D0D1D1"/>
		<stop  offset="0.25" style="stop-color:#E5E6E6"/>
		<stop  offset="0.52" style="stop-color:#B3B4B4"/>
		<stop  offset="0.69" style="stop-color:#9FA0A0"/>
		<stop  offset="0.8" style="stop-color:#969797"/>
		<stop  offset="0.92" style="stop-color:#8E8E8E"/>
		<stop  offset="1" style="stop-color:#A3A4A4"/>
	</linearGradient>
	<path fill="url(#SVGID_3_)" d="M36.777,333.117c0,0-4.137,14.832-33.75,53.461c0-0.211,1.789,17.926,10.168,25.348
		c0.332-0.059,22.738-24.109,29.32-51.926c0.262,0.117,1.695-18.172-6.102-26.883H36.777z"/>
	
		<linearGradient id="SVGID_4_" gradientUnits="userSpaceOnUse" x1="255.2729" y1="130.8066" x2="202.2261" y2="130.8066" gradientTransform="matrix(0.75 0 0 -0.75 -148.713 510.0646)">
		<stop  offset="0" style="stop-color:#BDBDBD"/>
		<stop  offset="0.15" style="stop-color:#FFFFFF"/>
		<stop  offset="0.25" style="stop-color:#FFFFFF"/>
		<stop  offset="0.52" style="stop-color:#DFDFDF"/>
		<stop  offset="0.69" style="stop-color:#C7C7C7"/>
		<stop  offset="0.8" style="stop-color:#BCBCBC"/>
		<stop  offset="0.92" style="stop-color:#B1B1B1"/>
		<stop  offset="1" style="stop-color:#CBCBCB"/>
	</linearGradient>
	<path fill="url(#SVGID_4_)" d="M42.707,359.085c0,0-5.797,27.598-39.75,62.727v43.023c0,0,24.527-27.621,39.785-66.871
		L42.707,359.085z"/>
	
		<linearGradient id="SVGID_5_" gradientUnits="userSpaceOnUse" x1="255.2393" y1="148.7676" x2="202.2261" y2="148.7676" gradientTransform="matrix(0.75 0 0 -0.75 -148.6427 562.9044)">
		<stop  offset="0" style="stop-color:#979898"/>
		<stop  offset="0.15" style="stop-color:#D0D1D1"/>
		<stop  offset="0.25" style="stop-color:#E5E6E6"/>
		<stop  offset="0.52" style="stop-color:#B3B4B4"/>
		<stop  offset="0.69" style="stop-color:#9FA0A0"/>
		<stop  offset="0.8" style="stop-color:#969797"/>
		<stop  offset="0.92" style="stop-color:#8E8E8E"/>
		<stop  offset="1" style="stop-color:#A3A4A4"/>
	</linearGradient>
	<path fill="url(#SVGID_5_)" d="M36.777,411.925c0,0-4.137,14.832-33.75,53.461c0-0.211,1.789,17.926,10.168,25.348
		c0.332-0.059,22.738-24.109,29.32-51.926c0.262,0.117,1.695-18.172-6.102-26.883H36.777z"/>
	
		<linearGradient id="SVGID_6_" gradientUnits="userSpaceOnUse" x1="255.2729" y1="130.8027" x2="202.2261" y2="130.8027" gradientTransform="matrix(0.75 0 0 -0.75 -148.713 590.715)">
		<stop  offset="0" style="stop-color:#BDBDBD"/>
		<stop  offset="0.15" style="stop-color:#FFFFFF"/>
		<stop  offset="0.25" style="stop-color:#FFFFFF"/>
		<stop  offset="0.52" style="stop-color:#DFDFDF"/>
		<stop  offset="0.69" style="stop-color:#C7C7C7"/>
		<stop  offset="0.8" style="stop-color:#BCBCBC"/>
		<stop  offset="0.92" style="stop-color:#B1B1B1"/>
		<stop  offset="1" style="stop-color:#CBCBCB"/>
	</linearGradient>
	<path fill="url(#SVGID_6_)" d="M42.707,439.738c0,0-5.797,27.598-39.75,62.727v43.023c0,0,24.527-27.625,39.785-66.875
		L42.707,439.738z"/>
	
		<linearGradient id="SVGID_7_" gradientUnits="userSpaceOnUse" x1="255.2393" y1="148.7661" x2="202.2261" y2="148.7661" gradientTransform="matrix(0.75 0 0 -0.75 -148.6427 403.6886)">
		<stop  offset="0" style="stop-color:#979898"/>
		<stop  offset="0.15" style="stop-color:#D0D1D1"/>
		<stop  offset="0.25" style="stop-color:#E5E6E6"/>
		<stop  offset="0.52" style="stop-color:#B3B4B4"/>
		<stop  offset="0.69" style="stop-color:#9FA0A0"/>
		<stop  offset="0.8" style="stop-color:#969797"/>
		<stop  offset="0.92" style="stop-color:#8E8E8E"/>
		<stop  offset="1" style="stop-color:#A3A4A4"/>
	</linearGradient>
	<path fill="url(#SVGID_7_)" d="M36.777,252.711c0,0-4.137,14.828-33.75,53.46c0-0.211,1.789,17.926,10.168,25.348
		c0.332-0.059,22.738-24.113,29.32-51.925c0.262,0.117,1.695-18.172-6.102-26.883H36.777z"/>
	
		<linearGradient id="SVGID_8_" gradientUnits="userSpaceOnUse" x1="254.5186" y1="-2.8628" x2="202.2266" y2="-2.8628" gradientTransform="matrix(0.75 0 0 -0.75 -148.4323 150.9415)">
		<stop  offset="0" style="stop-color:#BDBDBD"/>
		<stop  offset="0.15" style="stop-color:#FFFFFF"/>
		<stop  offset="0.25" style="stop-color:#FFFFFF"/>
		<stop  offset="0.52" style="stop-color:#DFDFDF"/>
		<stop  offset="0.69" style="stop-color:#C7C7C7"/>
		<stop  offset="0.8" style="stop-color:#BCBCBC"/>
		<stop  offset="0.92" style="stop-color:#B1B1B1"/>
		<stop  offset="1" style="stop-color:#CBCBCB"/>
	</linearGradient>
	<path fill="url(#SVGID_8_)" d="M3.238,305.964V6.715c0,0,3.668-6.75,19.563-6.75c15.688,0,19.656,6.953,19.656,6.953
		l-0.219,233.047c0,0-8.387,29.699-39,66.25V305.964z"/>
	
		<linearGradient id="SVGID_9_" gradientUnits="userSpaceOnUse" x1="254.2275" y1="193.3047" x2="202.2275" y2="193.3047" gradientTransform="matrix(0.75 0 0 -0.75 -148.276 702.0636)">
		<stop  offset="0" style="stop-color:#BDBDBD"/>
		<stop  offset="0.15" style="stop-color:#FFFFFF"/>
		<stop  offset="0.25" style="stop-color:#FFFFFF"/>
		<stop  offset="0.52" style="stop-color:#DFDFDF"/>
		<stop  offset="0.69" style="stop-color:#C7C7C7"/>
		<stop  offset="0.8" style="stop-color:#BCBCBC"/>
		<stop  offset="0.92" style="stop-color:#B1B1B1"/>
		<stop  offset="1" style="stop-color:#CBCBCB"/>
	</linearGradient>
	<path fill="url(#SVGID_9_)" d="M42.395,554.085l-19.5,9l-19.5-9v-3h39V554.085z"/>
</g>
</svg>
