<?xml version="1.0" encoding="utf-8"?>
<!-- Generator: Adobe Illustrator 16.0.0, SVG Export Plug-In . SVG Version: 6.00 Build 0)  -->
<!DOCTYPE svg PUBLIC "-//W3C//DTD SVG 1.1//EN" "http://www.w3.org/Graphics/SVG/1.1/DTD/svg11.dtd">
<svg preserveAspectRatio="none" version="1.1" id="图层_1" xmlns="http://www.w3.org/2000/svg" xmlns:xlink="http://www.w3.org/1999/xlink" x="0px" y="0px"
	 width="490.261px" height="562.996px" viewBox="38.48 2.789 490.261 562.996" enable-background="new 38.48 2.789 490.261 562.996"
	 xml:space="preserve">
<g id="surface801">
	
		<linearGradient id="SVGID_1_" gradientUnits="userSpaceOnUse" x1="236.2256" y1="188.3228" x2="202.1318" y2="188.3228" gradientTransform="matrix(0.75 0 0 -0.75 299.244 153.8175)">
		<stop  offset="0" style="stop-color:#8F313B"/>
		<stop  offset="0.15" style="stop-color:#E05160"/>
		<stop  offset="0.26" style="stop-color:#EA7680"/>
		<stop  offset="0.41" style="stop-color:#E85867"/>
		<stop  offset="0.6" style="stop-color:#BE4351"/>
		<stop  offset="0.8" style="stop-color:#98343F"/>
		<stop  offset="0.93" style="stop-color:#7C2932"/>
		<stop  offset="1" style="stop-color:#DA4E5E"/>
	</linearGradient>
	<path fill="url(#SVGID_1_)" d="M456.164,2.84h15c3,0,5.105,2.383,5.105,5.383l0.145,8.867c0,3-2.594,5.273-5.602,5.273
		l-14.648-0.023c-3,0-5.32-2.426-5.32-5.426l0.07-8.824c0-3,2.367-5.301,5.375-5.301L456.164,2.84z"/>
	
		<linearGradient id="SVGID_2_" gradientUnits="userSpaceOnUse" x1="267.5684" y1="165.8057" x2="202.2246" y2="165.8057" gradientTransform="matrix(0.75 0 0 -0.75 287.4169 165.1935)">
		<stop  offset="0" style="stop-color:#343232"/>
		<stop  offset="0.15" style="stop-color:#555454"/>
		<stop  offset="0.26" style="stop-color:#797777"/>
		<stop  offset="0.41" style="stop-color:#5D5B5B"/>
		<stop  offset="0.6" style="stop-color:#484646"/>
		<stop  offset="0.8" style="stop-color:#383636"/>
		<stop  offset="0.93" style="stop-color:#2C2B2B"/>
		<stop  offset="1" style="stop-color:#535151"/>
	</linearGradient>
	<path fill="url(#SVGID_2_)" d="M439.835,14.215h47.25c0.75,0,1.008,0.469,1.008,1.07l-0.258,51.43c0,0-0.246,0.727-0.848,0.727
		l-47.152,0.023c0,0-0.75-0.508-0.75-1.109V14.965c0,0,0.469-0.75,1.07-0.75H439.835z"/>
	
		<linearGradient id="SVGID_3_" gradientUnits="userSpaceOnUse" x1="833.2222" y1="193.3052" x2="202.2231" y2="193.3051" gradientTransform="matrix(0.75 0 0 -0.75 -104.7579 625.4454)">
		<stop  offset="0" style="stop-color:#757D85"/>
		<stop  offset="0.01" style="stop-color:#BDC5CC"/>
		<stop  offset="0.02" style="stop-color:#99A4AE"/>
		<stop  offset="0.64" style="stop-color:#97A1AB"/>
		<stop  offset="0.99" style="stop-color:#939DA7"/>
		<stop  offset="1" style="stop-color:#6C747B"/>
	</linearGradient>
	<path fill="url(#SVGID_3_)" d="M46.91,474.468h473.25v12H46.91V474.468z"/>
	
		<linearGradient id="SVGID_4_" gradientUnits="userSpaceOnUse" x1="855.4546" y1="-36.2397" x2="202.2261" y2="-36.2398" gradientTransform="matrix(0.75 0 0 -0.75 -113.1661 271.3927)">
		<stop  offset="0" style="stop-color:#A0A28F"/>
		<stop  offset="0.01" style="stop-color:#E9EBD7"/>
		<stop  offset="0.02" style="stop-color:#D1D3BB"/>
		<stop  offset="0.64" style="stop-color:#CECFB8"/>
		<stop  offset="0.99" style="stop-color:#C9CBB4"/>
		<stop  offset="1" style="stop-color:#959685"/>
	</linearGradient>
	<path fill="url(#SVGID_4_)" d="M40.004,120.414h486.75c0.75,0,1.672,0.465,1.672,1.117l-0.172,354.382c0,0-0.488,0.82-1.258,0.82
		l-486.992-0.07c-0.75,0-1.5-0.453-1.5-1.105V121.164c0,0,0.551-0.75,1.32-0.75H40.004z"/>
	
		<linearGradient id="SVGID_5_" gradientUnits="userSpaceOnUse" x1="855.4546" y1="146.8071" x2="202.2261" y2="146.8071" gradientTransform="matrix(0.75 0 0 -0.75 -113.1661 635.0148)">
		<stop  offset="0" style="stop-color:#9399A0"/>
		<stop  offset="0.01" style="stop-color:#DBE1E8"/>
		<stop  offset="0.02" style="stop-color:#C0C8D0"/>
		<stop  offset="0.64" style="stop-color:#BDC4CD"/>
		<stop  offset="0.99" style="stop-color:#B9C0C8"/>
		<stop  offset="1" style="stop-color:#898E94"/>
	</linearGradient>
	<path fill="url(#SVGID_5_)" d="M40.004,484.035h486.75c0.75,0,1.672,0.43,1.672,1.031l-0.172,79.219
		c0,0.75-0.523,1.246-1.293,1.246l-486.957,0.254c-0.75,0-1.5-0.797-1.5-1.395v-79.605c0,0,0.621-0.75,1.391-0.75H40.004z"/>
	
		<linearGradient id="SVGID_6_" gradientUnits="userSpaceOnUse" x1="855.4546" y1="163.8042" x2="202.2261" y2="163.8041" gradientTransform="matrix(0.75 0 0 -0.75 -113.1661 571.5704)">
		<stop  offset="0" style="stop-color:#9399A0"/>
		<stop  offset="0.01" style="stop-color:#DBE1E8"/>
		<stop  offset="0.02" style="stop-color:#C0C8D0"/>
		<stop  offset="0.64" style="stop-color:#BDC4CD"/>
		<stop  offset="0.99" style="stop-color:#B9C0C8"/>
		<stop  offset="1" style="stop-color:#898E94"/>
	</linearGradient>
	<path fill="url(#SVGID_6_)" d="M40.004,420.593h486.75c0.75,0,1.672,0.074,1.672,0.176l-0.172,56.074c0,0-0.488-0.109-1.258-0.109
		l-486.992,0.109c-0.75,0-1.5-0.191-1.5-0.293v-55.957c0,0,0.551,0,1.32,0H40.004z"/>
	
		<linearGradient id="SVGID_7_" gradientUnits="userSpaceOnUse" x1="391.2251" y1="14.7676" x2="202.2251" y2="14.7676" gradientTransform="matrix(0.75 0 0 -0.75 -113.1886 291.7667)">
		<stop  offset="0" style="stop-color:#ADADA3"/>
		<stop  offset="0.01" style="stop-color:#F6F7EC"/>
		<stop  offset="0.02" style="stop-color:#E1E2D5"/>
		<stop  offset="0.64" style="stop-color:#DDDED1"/>
		<stop  offset="0.99" style="stop-color:#D8D9CD"/>
		<stop  offset="1" style="stop-color:#A0A197"/>
	</linearGradient>
	<path fill="url(#SVGID_7_)" d="M39.23,140.789h140.25c0,0,0.383,0.367,0.383,0.875l0.367,278.125c0,0.75-0.555,0.805-0.777,0.805
		L39.23,420.539c-0.75,0-0.75-0.359-0.75-0.867V141.539c0-0.75,0.16-0.75,0.383-0.75H39.23z"/>
	
		<linearGradient id="SVGID_8_" gradientUnits="userSpaceOnUse" x1="391.2251" y1="14.7676" x2="202.2256" y2="14.7676" gradientTransform="matrix(0.75 0 0 -0.75 235.3221 291.7667)">
		<stop  offset="0" style="stop-color:#ADADA3"/>
		<stop  offset="0.01" style="stop-color:#F6F7EC"/>
		<stop  offset="0.02" style="stop-color:#E1E2D5"/>
		<stop  offset="0.64" style="stop-color:#DDDED1"/>
		<stop  offset="0.99" style="stop-color:#D8D9CD"/>
		<stop  offset="1" style="stop-color:#A0A197"/>
	</linearGradient>
	<path fill="url(#SVGID_8_)" d="M387.742,140.789h140.25c0,0,0.383,0.367,0.383,0.875l0.367,278.125c0,0.75-0.559,0.805-0.781,0.805
		l-140.219-0.055c-0.75,0-0.75-0.359-0.75-0.867V141.539c0-0.75,0.156-0.75,0.379-0.75H387.742z"/>
	
		<linearGradient id="SVGID_9_" gradientUnits="userSpaceOnUse" x1="814.2212" y1="177.8042" x2="202.2227" y2="177.8041" gradientTransform="matrix(0.75 0 0 -0.75 -97.691 236.0782)">
		<stop  offset="0" style="stop-color:#9399A0"/>
		<stop  offset="0.01" style="stop-color:#DBE1E8"/>
		<stop  offset="0.02" style="stop-color:#C0C8D0"/>
		<stop  offset="0.64" style="stop-color:#BDC4CD"/>
		<stop  offset="0.99" style="stop-color:#B9C0C8"/>
		<stop  offset="1" style="stop-color:#898E94"/>
	</linearGradient>
	<path fill="url(#SVGID_9_)" d="M53.977,85.102h459v35.25h-459V85.102z"/>
	
		<linearGradient id="SVGID_10_" gradientUnits="userSpaceOnUse" x1="814.2212" y1="187.8032" x2="202.2227" y2="187.8032" gradientTransform="matrix(0.75 0 0 -0.75 -97.691 217.0626)">
		<stop  offset="0" style="stop-color:#A7ABAD"/>
		<stop  offset="0.01" style="stop-color:#F0F4F7"/>
		<stop  offset="0.02" style="stop-color:#D9DEE2"/>
		<stop  offset="0.64" style="stop-color:#D6DADE"/>
		<stop  offset="0.99" style="stop-color:#D1D5D9"/>
		<stop  offset="1" style="stop-color:#9B9EA1"/>
	</linearGradient>
	<path fill="url(#SVGID_10_)" d="M53.977,66.086h459v20.25h-459V66.086z"/>
	
		<linearGradient id="SVGID_11_" gradientUnits="userSpaceOnUse" x1="340.6138" y1="19.1831" x2="202.2231" y2="19.1831" gradientTransform="matrix(0.75 0 0 -0.75 28.121 298.6007)">
		<stop  offset="0" style="stop-color:#9399A0"/>
		<stop  offset="0.01" style="stop-color:#DBE1E8"/>
		<stop  offset="0.02" style="stop-color:#C0C8D0"/>
		<stop  offset="0.64" style="stop-color:#BDC4CD"/>
		<stop  offset="0.99" style="stop-color:#B9C0C8"/>
		<stop  offset="1" style="stop-color:#898E94"/>
	</linearGradient>
	<path fill="url(#SVGID_11_)" d="M179.789,147.625h103.5c0,0,0.293,0.355,0.293,0.852l-0.293,271.398c0,0.75,0.152,0.93-0.012,0.93
		l-103.488-0.18c0,0,0-0.223,0-0.719V148.375c0-0.75,0.117-0.75,0.281-0.75H179.789z"/>
	
		<linearGradient id="SVGID_12_" gradientUnits="userSpaceOnUse" x1="340.6138" y1="19.1831" x2="202.2236" y2="19.1831" gradientTransform="matrix(0.75 0 0 -0.75 131.7928 298.6007)">
		<stop  offset="0" style="stop-color:#9399A0"/>
		<stop  offset="0.01" style="stop-color:#DBE1E8"/>
		<stop  offset="0.02" style="stop-color:#C0C8D0"/>
		<stop  offset="0.64" style="stop-color:#BDC4CD"/>
		<stop  offset="0.99" style="stop-color:#B9C0C8"/>
		<stop  offset="1" style="stop-color:#898E94"/>
	</linearGradient>
	<path fill="url(#SVGID_12_)" d="M283.461,147.625h103.5c0,0,0.293,0.355,0.293,0.852l-0.293,271.398c0,0.75,0.152,0.93-0.012,0.93
		l-103.488-0.18c0,0,0-0.223,0-0.719V148.375c0-0.75,0.117-0.75,0.281-0.75H283.461z"/>
	<path fill="#A1A18B" d="M196.359,177.313h70.5c0.75,0,0.902,0.438,0.902,0.977l-0.152,212.023c0,0-0.363,0.805-0.965,0.805
		l-70.285-0.055c0,0-0.75-0.434-0.75-0.973V178.063c0,0,0.457-0.75,1.059-0.75H196.359z"/>
	<path fill="#A1A18B" d="M300.031,177.313h70.5c0.75,0,0.902,0.438,0.902,0.977l-0.152,212.023c0,0-0.363,0.805-0.965,0.805
		l-70.285-0.055c0,0-0.75-0.434-0.75-0.973V178.063c0,0,0.461-0.75,1.059-0.75H300.031z"/>
	
		<linearGradient id="SVGID_13_" gradientUnits="userSpaceOnUse" x1="558.2271" y1="146.8071" x2="202.2271" y2="146.8071" gradientTransform="matrix(0.75 0 0 -0.75 -1.5968 635.0148)">
		<stop  offset="0" style="stop-color:#9399A0"/>
		<stop  offset="0.01" style="stop-color:#DBE1E8"/>
		<stop  offset="0.02" style="stop-color:#C0C8D0"/>
		<stop  offset="0.64" style="stop-color:#BDC4CD"/>
		<stop  offset="0.99" style="stop-color:#B9C0C8"/>
		<stop  offset="1" style="stop-color:#898E94"/>
	</linearGradient>
	<path fill="url(#SVGID_13_)" d="M150.824,484.035h265.5c0,0,0.531,0.43,0.531,1.031l0.219,79.219c0,0.75-0.598,1.246-1.016,1.246
		l-265.234,0.254c-0.75,0-0.75-0.797-0.75-1.395v-79.605c0,0,0.336-0.75,0.758-0.75H150.824z"/>
	
		<linearGradient id="SVGID_14_" gradientUnits="userSpaceOnUse" x1="263.2256" y1="191.644" x2="202.2256" y2="191.644" gradientTransform="matrix(0.75 0 0 -0.75 30.3734 668.504)">
		<stop  offset="0" style="stop-color:#A0A28F"/>
		<stop  offset="0.01" style="stop-color:#E9EBD7"/>
		<stop  offset="0.02" style="stop-color:#D1D3BB"/>
		<stop  offset="0.64" style="stop-color:#CECFB8"/>
		<stop  offset="0.99" style="stop-color:#C9CBB4"/>
		<stop  offset="1" style="stop-color:#959685"/>
	</linearGradient>
	<path fill="url(#SVGID_14_)" d="M182.793,517.527h43.5c0.75,0,1.129,0.484,1.129,1.086l0.371,12.414
		c0,0.75-0.859,0.988-1.461,0.988l-43.539-0.238c0,0-0.75-0.25-0.75-0.848v-12.652c0,0,0.488-0.75,1.09-0.75H182.793z"/>
	
		<linearGradient id="SVGID_15_" gradientUnits="userSpaceOnUse" x1="254.2275" y1="196.8066" x2="202.2275" y2="196.8066" gradientTransform="matrix(0.75 0 0 -0.75 33.6693 672.5021)">
		<stop  offset="0" style="stop-color:#000000"/>
		<stop  offset="0.01" style="stop-color:#7C7C7C"/>
		<stop  offset="0.02" style="stop-color:#000000"/>
		<stop  offset="0.64" style="stop-color:#000000"/>
		<stop  offset="0.99" style="stop-color:#000000"/>
		<stop  offset="1" style="stop-color:#000000"/>
	</linearGradient>
	<path fill="url(#SVGID_15_)" d="M185.34,521.523h39v6.75h-39V521.523z"/>
	
		<linearGradient id="SVGID_16_" gradientUnits="userSpaceOnUse" x1="263.2217" y1="191.644" x2="202.2217" y2="191.644" gradientTransform="matrix(0.75 0 0 -0.75 183.6884 668.504)">
		<stop  offset="0" style="stop-color:#A0A28F"/>
		<stop  offset="0.01" style="stop-color:#E9EBD7"/>
		<stop  offset="0.02" style="stop-color:#D1D3BB"/>
		<stop  offset="0.64" style="stop-color:#CECFB8"/>
		<stop  offset="0.99" style="stop-color:#C9CBB4"/>
		<stop  offset="1" style="stop-color:#959685"/>
	</linearGradient>
	<path fill="url(#SVGID_16_)" d="M336.105,517.527h43.5c0.75,0,1.129,0.484,1.129,1.086l0.371,12.414
		c0,0.75-0.855,0.988-1.457,0.988l-43.543-0.238c0,0-0.75-0.25-0.75-0.848v-12.652c0,0,0.488-0.75,1.09-0.75H336.105z"/>
	
		<linearGradient id="SVGID_17_" gradientUnits="userSpaceOnUse" x1="254.2246" y1="196.8066" x2="202.2246" y2="196.8066" gradientTransform="matrix(0.75 0 0 -0.75 186.9833 672.5021)">
		<stop  offset="0" style="stop-color:#000000"/>
		<stop  offset="0.01" style="stop-color:#7C7C7C"/>
		<stop  offset="0.02" style="stop-color:#000000"/>
		<stop  offset="0.64" style="stop-color:#000000"/>
		<stop  offset="0.99" style="stop-color:#000000"/>
		<stop  offset="1" style="stop-color:#000000"/>
	</linearGradient>
	<path fill="url(#SVGID_17_)" d="M338.652,521.523h39v6.75h-39V521.523z"/>
	
		<linearGradient id="SVGID_18_" gradientUnits="userSpaceOnUse" x1="211.8706" y1="196.5283" x2="202.1479" y2="196.5283" gradientTransform="matrix(0.75 0 0 -0.75 5.0179 642.6974)">
		<stop  offset="0" style="stop-color:#BDBDBD"/>
		<stop  offset="0.15" style="stop-color:#FFFFFF"/>
		<stop  offset="0.25" style="stop-color:#FFFFFF"/>
		<stop  offset="0.52" style="stop-color:#DFDFDF"/>
		<stop  offset="0.69" style="stop-color:#C7C7C7"/>
		<stop  offset="0.8" style="stop-color:#BCBCBC"/>
		<stop  offset="0.92" style="stop-color:#B1B1B1"/>
		<stop  offset="1" style="stop-color:#CBCBCB"/>
	</linearGradient>
	<path fill="url(#SVGID_18_)" d="M156.688,495.468c0-2.25,1.57-3.805,3.574-3.805c1.676,0.055,3.629,1.621,3.629,3.621
		c0.297,1.684-1.625,3.621-3.629,3.621c-2.074,0.313-3.633-1.621-3.633-3.621L156.688,495.468z"/>
	
		<linearGradient id="SVGID_19_" gradientUnits="userSpaceOnUse" x1="211.8706" y1="196.5283" x2="202.1479" y2="196.5283" gradientTransform="matrix(0.75 0 0 -0.75 5.0179 672.1544)">
		<stop  offset="0" style="stop-color:#BDBDBD"/>
		<stop  offset="0.15" style="stop-color:#FFFFFF"/>
		<stop  offset="0.25" style="stop-color:#FFFFFF"/>
		<stop  offset="0.52" style="stop-color:#DFDFDF"/>
		<stop  offset="0.69" style="stop-color:#C7C7C7"/>
		<stop  offset="0.8" style="stop-color:#BCBCBC"/>
		<stop  offset="0.92" style="stop-color:#B1B1B1"/>
		<stop  offset="1" style="stop-color:#CBCBCB"/>
	</linearGradient>
	<path fill="url(#SVGID_19_)" d="M156.688,524.925c0-2.25,1.57-3.805,3.574-3.805c1.676,0.055,3.629,1.621,3.629,3.621
		c0.297,1.684-1.625,3.621-3.629,3.621c-2.074,0.313-3.633-1.621-3.633-3.621L156.688,524.925z"/>
	
		<linearGradient id="SVGID_20_" gradientUnits="userSpaceOnUse" x1="211.8706" y1="196.5283" x2="202.1479" y2="196.5283" gradientTransform="matrix(0.75 0 0 -0.75 5.0179 701.5841)">
		<stop  offset="0" style="stop-color:#BDBDBD"/>
		<stop  offset="0.15" style="stop-color:#FFFFFF"/>
		<stop  offset="0.25" style="stop-color:#FFFFFF"/>
		<stop  offset="0.52" style="stop-color:#DFDFDF"/>
		<stop  offset="0.69" style="stop-color:#C7C7C7"/>
		<stop  offset="0.8" style="stop-color:#BCBCBC"/>
		<stop  offset="0.92" style="stop-color:#B1B1B1"/>
		<stop  offset="1" style="stop-color:#CBCBCB"/>
	</linearGradient>
	<path fill="url(#SVGID_20_)" d="M156.688,554.355c0-2.25,1.57-3.805,3.574-3.805c1.676,0.055,3.629,1.621,3.629,3.621
		c0.297,1.684-1.625,3.621-3.629,3.621c-2.074,0.313-3.633-1.621-3.633-3.621L156.688,554.355z"/>
	
		<linearGradient id="SVGID_21_" gradientUnits="userSpaceOnUse" x1="211.8716" y1="196.5283" x2="202.1504" y2="196.5283" gradientTransform="matrix(0.75 0 0 -0.75 250.9061 642.6974)">
		<stop  offset="0" style="stop-color:#BDBDBD"/>
		<stop  offset="0.15" style="stop-color:#FFFFFF"/>
		<stop  offset="0.25" style="stop-color:#FFFFFF"/>
		<stop  offset="0.52" style="stop-color:#DFDFDF"/>
		<stop  offset="0.69" style="stop-color:#C7C7C7"/>
		<stop  offset="0.8" style="stop-color:#BCBCBC"/>
		<stop  offset="0.92" style="stop-color:#B1B1B1"/>
		<stop  offset="1" style="stop-color:#CBCBCB"/>
	</linearGradient>
	<path fill="url(#SVGID_21_)" d="M402.574,495.468c0-2.25,1.57-3.805,3.574-3.805c1.676,0.055,3.633,1.621,3.633,3.621
		c0.293,1.684-1.629,3.621-3.633,3.621c-2.074,0.313-3.629-1.621-3.629-3.621L402.574,495.468z"/>
	
		<linearGradient id="SVGID_22_" gradientUnits="userSpaceOnUse" x1="211.8716" y1="196.5283" x2="202.1504" y2="196.5283" gradientTransform="matrix(0.75 0 0 -0.75 250.9061 672.1544)">
		<stop  offset="0" style="stop-color:#BDBDBD"/>
		<stop  offset="0.15" style="stop-color:#FFFFFF"/>
		<stop  offset="0.25" style="stop-color:#FFFFFF"/>
		<stop  offset="0.52" style="stop-color:#DFDFDF"/>
		<stop  offset="0.69" style="stop-color:#C7C7C7"/>
		<stop  offset="0.8" style="stop-color:#BCBCBC"/>
		<stop  offset="0.92" style="stop-color:#B1B1B1"/>
		<stop  offset="1" style="stop-color:#CBCBCB"/>
	</linearGradient>
	<path fill="url(#SVGID_22_)" d="M402.574,524.925c0-2.25,1.57-3.805,3.574-3.805c1.676,0.055,3.633,1.621,3.633,3.621
		c0.293,1.684-1.629,3.621-3.633,3.621c-2.074,0.313-3.629-1.621-3.629-3.621L402.574,524.925z"/>
	
		<linearGradient id="SVGID_23_" gradientUnits="userSpaceOnUse" x1="211.8716" y1="196.5283" x2="202.1504" y2="196.5283" gradientTransform="matrix(0.75 0 0 -0.75 250.9061 701.5841)">
		<stop  offset="0" style="stop-color:#BDBDBD"/>
		<stop  offset="0.15" style="stop-color:#FFFFFF"/>
		<stop  offset="0.25" style="stop-color:#FFFFFF"/>
		<stop  offset="0.52" style="stop-color:#DFDFDF"/>
		<stop  offset="0.69" style="stop-color:#C7C7C7"/>
		<stop  offset="0.8" style="stop-color:#BCBCBC"/>
		<stop  offset="0.92" style="stop-color:#B1B1B1"/>
		<stop  offset="1" style="stop-color:#CBCBCB"/>
	</linearGradient>
	<path fill="url(#SVGID_23_)" d="M402.574,554.355c0-2.25,1.57-3.805,3.574-3.805c1.676,0.055,3.633,1.621,3.633,3.621
		c0.293,1.684-1.629,3.621-3.633,3.621c-2.074,0.313-3.629-1.621-3.629-3.621L402.574,554.355z"/>
	
		<linearGradient id="SVGID_24_" gradientUnits="userSpaceOnUse" x1="478.2251" y1="195.8042" x2="202.2251" y2="195.8042" gradientTransform="matrix(0.75 0 0 -0.75 28.1703 562.9689)">
		<stop  offset="0" style="stop-color:#A0A28F"/>
		<stop  offset="0.01" style="stop-color:#E9EBD7"/>
		<stop  offset="0.02" style="stop-color:#D1D3BB"/>
		<stop  offset="0.64" style="stop-color:#CECFB8"/>
		<stop  offset="0.99" style="stop-color:#C9CBB4"/>
		<stop  offset="1" style="stop-color:#959685"/>
	</linearGradient>
	<path fill="url(#SVGID_24_)" d="M179.84,420.242h207v-8.25h-207V420.242z"/>
	
		<linearGradient id="SVGID_25_" gradientUnits="userSpaceOnUse" x1="267.5684" y1="194.1079" x2="202.2246" y2="194.1079" gradientTransform="matrix(0.75 0 0 -0.75 287.4169 165.1935)">
		<stop  offset="0" style="stop-color:#000000"/>
		<stop  offset="0.15" style="stop-color:#000000"/>
		<stop  offset="0.26" style="stop-color:#595959"/>
		<stop  offset="0.41" style="stop-color:#191919"/>
		<stop  offset="0.6" style="stop-color:#000000"/>
		<stop  offset="0.8" style="stop-color:#000000"/>
		<stop  offset="0.93" style="stop-color:#000000"/>
		<stop  offset="1" style="stop-color:#000000"/>
	</linearGradient>
	<path fill="url(#SVGID_25_)" d="M439.835,14.215h47.25c0.75,0,1.008,0.453,1.008,1.055l-0.258,8.695c0,0.75-0.25,1.082-0.852,1.082
		l-47.148-0.332c0,0-0.75-0.152-0.75-0.754v-8.996c0,0,0.465-0.785,1.066-0.785L439.835,14.215z"/>
	<path fill="#FFFFFF" fill-opacity="0.2078" d="M196.359,177.293l19.5,0.75l51.75,212.25c0,0-0.363,0.844-0.965,0.844l-70.285-0.094
		c0,0-0.75-0.438-0.75-0.973V178.043c0,0,0.457-0.75,1.059-0.75H196.359z"/>
	<path fill="#FFFFFF" fill-opacity="0.2078" d="M300.031,177.293l19.5,0.75l51.75,212.25c0,0-0.363,0.844-0.965,0.844l-70.285-0.094
		c0,0-0.75-0.438-0.75-0.973V178.043c0,0,0.457-0.75,1.059-0.75H300.031z"/>
</g>
</svg>
