<?xml version="1.0" encoding="utf-8"?>
<!-- Generator: Adobe Illustrator 16.0.0, SVG Export Plug-In . SVG Version: 6.00 Build 0)  -->
<!DOCTYPE svg PUBLIC "-//W3C//DTD SVG 1.1//EN" "http://www.w3.org/Graphics/SVG/1.1/DTD/svg11.dtd">
<svg preserveAspectRatio="none" version="1.1" id="图层_1" xmlns="http://www.w3.org/2000/svg" xmlns:xlink="http://www.w3.org/1999/xlink" x="0px" y="0px"
	 width="316.722px" height="561.566px" viewBox="125.129 2.758 316.722 561.566"
	 enable-background="new 125.129 2.758 316.722 561.566" xml:space="preserve">
<g id="surface861">
	
		<linearGradient id="SVGID_1_" gradientUnits="userSpaceOnUse" x1="215.3213" y1="177.6509" x2="202.1865" y2="177.6509" gradientTransform="matrix(0.75 0 0 -0.75 6.9813 391.8781)">
		<stop  offset="0" style="stop-color:#BDBDBD"/>
		<stop  offset="0.15" style="stop-color:#FFFFFF"/>
		<stop  offset="0.25" style="stop-color:#FFFFFF"/>
		<stop  offset="0.52" style="stop-color:#DFDFDF"/>
		<stop  offset="0.69" style="stop-color:#C7C7C7"/>
		<stop  offset="0.8" style="stop-color:#BCBCBC"/>
		<stop  offset="0.92" style="stop-color:#B1B1B1"/>
		<stop  offset="1" style="stop-color:#CBCBCB"/>
	</linearGradient>
	<path fill="url(#SVGID_1_)" d="M160.152,240.902h6.75c0.75,0,1.57,0.688,1.57,1.566l-0.07,32.184c0,0.75-0.648,1.727-1.539,1.727
		l-6.711-0.227c-0.75,0-1.531-0.492-1.531-1.371l0.031-32.379c0-0.75,0.691-1.5,1.582-1.5H160.152z"/>
	
		<linearGradient id="SVGID_2_" gradientUnits="userSpaceOnUse" x1="215.3242" y1="177.6509" x2="202.1885" y2="177.6509" gradientTransform="matrix(0.75 0 0 -0.75 33.1747 391.8781)">
		<stop  offset="0" style="stop-color:#BDBDBD"/>
		<stop  offset="0.15" style="stop-color:#FFFFFF"/>
		<stop  offset="0.25" style="stop-color:#FFFFFF"/>
		<stop  offset="0.52" style="stop-color:#DFDFDF"/>
		<stop  offset="0.69" style="stop-color:#C7C7C7"/>
		<stop  offset="0.8" style="stop-color:#BCBCBC"/>
		<stop  offset="0.92" style="stop-color:#B1B1B1"/>
		<stop  offset="1" style="stop-color:#CBCBCB"/>
	</linearGradient>
	<path fill="url(#SVGID_2_)" d="M186.344,240.902h6.75c0.75,0,1.574,0.688,1.574,1.566l-0.074,32.184
		c0,0.75-0.648,1.727-1.539,1.727l-6.711-0.227c-0.75,0-1.527-0.492-1.527-1.371l0.027-32.379c0-0.75,0.695-1.5,1.586-1.5H186.344z"
		/>
	
		<linearGradient id="SVGID_3_" gradientUnits="userSpaceOnUse" x1="215.3223" y1="177.6509" x2="202.1875" y2="177.6509" gradientTransform="matrix(0.75 0 0 -0.75 58.9061 391.8781)">
		<stop  offset="0" style="stop-color:#BDBDBD"/>
		<stop  offset="0.15" style="stop-color:#FFFFFF"/>
		<stop  offset="0.25" style="stop-color:#FFFFFF"/>
		<stop  offset="0.52" style="stop-color:#DFDFDF"/>
		<stop  offset="0.69" style="stop-color:#C7C7C7"/>
		<stop  offset="0.8" style="stop-color:#BCBCBC"/>
		<stop  offset="0.92" style="stop-color:#B1B1B1"/>
		<stop  offset="1" style="stop-color:#CBCBCB"/>
	</linearGradient>
	<path fill="url(#SVGID_3_)" d="M212.074,240.902h6.75c0.75,0,1.574,0.688,1.574,1.566l-0.074,32.184
		c0,0.75-0.648,1.727-1.535,1.727l-6.715-0.227c-0.75,0-1.527-0.492-1.527-1.371l0.027-32.379c0-0.75,0.695-1.5,1.586-1.5H212.074z"
		/>
	
		<linearGradient id="SVGID_4_" gradientUnits="userSpaceOnUse" x1="215.3228" y1="177.6509" x2="202.187" y2="177.6509" gradientTransform="matrix(0.75 0 0 -0.75 85.5624 391.8781)">
		<stop  offset="0" style="stop-color:#BDBDBD"/>
		<stop  offset="0.15" style="stop-color:#FFFFFF"/>
		<stop  offset="0.25" style="stop-color:#FFFFFF"/>
		<stop  offset="0.52" style="stop-color:#DFDFDF"/>
		<stop  offset="0.69" style="stop-color:#C7C7C7"/>
		<stop  offset="0.8" style="stop-color:#BCBCBC"/>
		<stop  offset="0.92" style="stop-color:#B1B1B1"/>
		<stop  offset="1" style="stop-color:#CBCBCB"/>
	</linearGradient>
	<path fill="url(#SVGID_4_)" d="M238.73,240.902h6.75c0.75,0,1.574,0.688,1.574,1.566l-0.074,32.184c0,0.75-0.648,1.727-1.535,1.727
		l-6.715-0.227c-0.75,0-1.527-0.492-1.527-1.371l0.027-32.379c0-0.75,0.695-1.5,1.586-1.5H238.73z"/>
	
		<linearGradient id="SVGID_5_" gradientUnits="userSpaceOnUse" x1="215.3252" y1="177.6509" x2="202.1904" y2="177.6509" gradientTransform="matrix(0.75 0 0 -0.75 111.7557 391.8781)">
		<stop  offset="0" style="stop-color:#BDBDBD"/>
		<stop  offset="0.15" style="stop-color:#FFFFFF"/>
		<stop  offset="0.25" style="stop-color:#FFFFFF"/>
		<stop  offset="0.52" style="stop-color:#DFDFDF"/>
		<stop  offset="0.69" style="stop-color:#C7C7C7"/>
		<stop  offset="0.8" style="stop-color:#BCBCBC"/>
		<stop  offset="0.92" style="stop-color:#B1B1B1"/>
		<stop  offset="1" style="stop-color:#CBCBCB"/>
	</linearGradient>
	<path fill="url(#SVGID_5_)" d="M264.926,240.902h6.75c0.75,0,1.574,0.688,1.574,1.566l-0.074,32.184
		c0,0.75-0.648,1.727-1.539,1.727l-6.711-0.227c-0.75,0-1.527-0.492-1.527-1.371l0.027-32.379c0-0.75,0.691-1.5,1.582-1.5H264.926z"
		/>
	
		<linearGradient id="SVGID_6_" gradientUnits="userSpaceOnUse" x1="402.2251" y1="131.8027" x2="202.2251" y2="131.8027" gradientTransform="matrix(0.75 0 0 -0.75 -19.9156 563.5148)">
		<stop  offset="0" style="stop-color:#287851"/>
		<stop  offset="0.01" style="stop-color:#85C09E"/>
		<stop  offset="0.02" style="stop-color:#369D6B"/>
		<stop  offset="0.64" style="stop-color:#359B69"/>
		<stop  offset="0.99" style="stop-color:#349767"/>
		<stop  offset="1" style="stop-color:#246F4A"/>
	</linearGradient>
	<path fill="url(#SVGID_6_)" d="M281.754,412.539h-150l150,104.25V412.539z"/>
	
		<linearGradient id="SVGID_7_" gradientUnits="userSpaceOnUse" x1="413.2271" y1="182.8057" x2="202.2271" y2="182.8056" gradientTransform="matrix(0.75 0 0 -0.75 -26.5416 536.088)">
		<stop  offset="0" style="stop-color:#287851"/>
		<stop  offset="0.01" style="stop-color:#85C09E"/>
		<stop  offset="0.02" style="stop-color:#369D6B"/>
		<stop  offset="0.64" style="stop-color:#359B69"/>
		<stop  offset="0.99" style="stop-color:#349767"/>
		<stop  offset="1" style="stop-color:#246F4A"/>
	</linearGradient>
	<path fill="url(#SVGID_7_)" d="M126.629,385.109h155.25c0.75,0,1.48,0.715,1.48,1.598l0.02,24.652c0,0.75-0.793,1.461-1.684,1.461
		l-155.066,0.039c-0.75,0-1.5-0.77-1.5-1.652v-24.598c0-0.75,0.703-1.5,1.598-1.5H126.629z"/>
	
		<linearGradient id="SVGID_8_" gradientUnits="userSpaceOnUse" x1="209.2266" y1="140.3086" x2="202.2266" y2="140.3086" gradientTransform="matrix(0.75 0 0 -0.75 124.7284 444.6632)">
		<stop  offset="0" style="stop-color:#287851"/>
		<stop  offset="0.01" style="stop-color:#85C09E"/>
		<stop  offset="0.02" style="stop-color:#369D6B"/>
		<stop  offset="0.64" style="stop-color:#359B69"/>
		<stop  offset="0.99" style="stop-color:#349767"/>
		<stop  offset="1" style="stop-color:#246F4A"/>
	</linearGradient>
	<path fill="url(#SVGID_8_)" d="M281.648,385.183h-5.25v-91.5h5.25V385.183z"/>
	
		<linearGradient id="SVGID_9_" gradientUnits="userSpaceOnUse" x1="225.2251" y1="123.3057" x2="202.2251" y2="123.3057" gradientTransform="matrix(0.75 0 0 -0.75 114.4286 563.6036)">
		<stop  offset="0" style="stop-color:#25744E"/>
		<stop  offset="0.01" style="stop-color:#84BC9C"/>
		<stop  offset="0.02" style="stop-color:#339868"/>
		<stop  offset="0.64" style="stop-color:#329566"/>
		<stop  offset="0.99" style="stop-color:#309263"/>
		<stop  offset="1" style="stop-color:#216B48"/>
	</linearGradient>
	<path fill="url(#SVGID_9_)" d="M283.348,529.625h-17.25v-117h17.25V529.625z"/>
	
		<linearGradient id="SVGID_10_" gradientUnits="userSpaceOnUse" x1="329.2251" y1="175.3027" x2="202.2251" y2="175.3027" gradientTransform="matrix(0.75 0 0 -0.75 16.3578 189.0314)">
		<stop  offset="0" style="stop-color:#287851"/>
		<stop  offset="0.01" style="stop-color:#85C09E"/>
		<stop  offset="0.02" style="stop-color:#369D6B"/>
		<stop  offset="0.64" style="stop-color:#359B69"/>
		<stop  offset="0.99" style="stop-color:#349767"/>
		<stop  offset="1" style="stop-color:#246F4A"/>
	</linearGradient>
	<path fill="url(#SVGID_10_)" d="M168.027,38.055h95.25v39h-95.25V38.055z"/>
	
		<linearGradient id="SVGID_11_" gradientUnits="userSpaceOnUse" x1="366.2231" y1="99.8047" x2="202.2236" y2="99.8047" gradientTransform="matrix(0.75 0 0 -0.75 2.3783 228.0021)">
		<stop  offset="0" style="stop-color:#287851"/>
		<stop  offset="0.01" style="stop-color:#85C09E"/>
		<stop  offset="0.02" style="stop-color:#369D6B"/>
		<stop  offset="0.64" style="stop-color:#359B69"/>
		<stop  offset="0.99" style="stop-color:#349767"/>
		<stop  offset="1" style="stop-color:#246F4A"/>
	</linearGradient>
	<path fill="url(#SVGID_11_)" d="M168.297,77.023h94.5l14.25,152.25h-123L168.297,77.023z"/>
	
		<linearGradient id="SVGID_12_" gradientUnits="userSpaceOnUse" x1="366.2251" y1="192.3027" x2="202.2251" y2="192.3027" gradientTransform="matrix(0.75 0 0 -0.75 2.3773 380.2218)">
		<stop  offset="0" style="stop-color:#2B8157"/>
		<stop  offset="0.01" style="stop-color:#87C9A3"/>
		<stop  offset="0.02" style="stop-color:#3BA974"/>
		<stop  offset="0.64" style="stop-color:#3AA672"/>
		<stop  offset="0.99" style="stop-color:#38A36F"/>
		<stop  offset="1" style="stop-color:#277851"/>
	</linearGradient>
	<path fill="url(#SVGID_12_)" d="M154.047,229.246h123v13.5h-123V229.246z"/>
	
		<linearGradient id="SVGID_13_" gradientUnits="userSpaceOnUse" x1="383.2212" y1="-151.1958" x2="202.2227" y2="-151.1958" gradientTransform="matrix(0.75 0 0 -0.75 130.1918 186.3673)">
		<stop  offset="0" style="stop-color:#2B8157"/>
		<stop  offset="0.01" style="stop-color:#87C9A3"/>
		<stop  offset="0.02" style="stop-color:#3BA974"/>
		<stop  offset="0.64" style="stop-color:#3AA672"/>
		<stop  offset="0.99" style="stop-color:#38A36F"/>
		<stop  offset="1" style="stop-color:#277851"/>
	</linearGradient>
	<path fill="url(#SVGID_13_)" d="M281.859,35.391h135.75v528.75h-135.75V35.391z"/>
	
		<linearGradient id="SVGID_14_" gradientUnits="userSpaceOnUse" x1="266.2236" y1="201.3057" x2="266.2236" y2="123.3057" gradientTransform="matrix(0.75 0 0 -0.75 16.4296 313.4747)">
		<stop  offset="0" style="stop-color:#2B8157"/>
		<stop  offset="0.01" style="stop-color:#87C9A3"/>
		<stop  offset="0.02" style="stop-color:#3BA974"/>
		<stop  offset="0.64" style="stop-color:#3AA672"/>
		<stop  offset="0.99" style="stop-color:#38A36F"/>
		<stop  offset="1" style="stop-color:#277851"/>
	</linearGradient>
	<path fill="url(#SVGID_14_)" d="M172.598,162.496h86.25l5.25,58.5h-96L172.598,162.496z"/>
	
		<linearGradient id="SVGID_15_" gradientUnits="userSpaceOnUse" x1="258.2275" y1="201.3037" x2="258.2275" y2="133.3037" gradientTransform="matrix(0.75 0 0 -0.75 21.911 248.9425)">
		<stop  offset="0" style="stop-color:#2B8157"/>
		<stop  offset="0.01" style="stop-color:#87C9A3"/>
		<stop  offset="0.02" style="stop-color:#3BA974"/>
		<stop  offset="0.64" style="stop-color:#3AA672"/>
		<stop  offset="0.99" style="stop-color:#38A36F"/>
		<stop  offset="1" style="stop-color:#277851"/>
	</linearGradient>
	<path fill="url(#SVGID_15_)" d="M177.332,97.965h75.75l4.5,51h-84L177.332,97.965z"/>
	
		<linearGradient id="SVGID_16_" gradientUnits="userSpaceOnUse" x1="354.2261" y1="91.8032" x2="202.2261" y2="91.8032" gradientTransform="matrix(0.75 0 0 -0.75 140.931 370.9923)">
		<stop  offset="0" style="stop-color:#287851"/>
		<stop  offset="0.01" style="stop-color:#85C09E"/>
		<stop  offset="0.02" style="stop-color:#369D6B"/>
		<stop  offset="0.64" style="stop-color:#359B69"/>
		<stop  offset="0.99" style="stop-color:#349767"/>
		<stop  offset="1" style="stop-color:#246F4A"/>
	</linearGradient>
	<path fill="url(#SVGID_16_)" d="M294.101,220.016h111c0.75,0,1.438,0.715,1.438,1.598l0.063,161.152
		c0,0.75-0.852,1.348-1.738,1.348l-110.762,0.152c-0.75,0-1.5-0.938-1.5-1.816V221.516c0-0.75,0.672-1.5,1.559-1.5H294.101z"/>
	<path fill="none" stroke="#CDE6C7" stroke-linejoin="bevel" stroke-miterlimit="10" stroke-opacity="0.5176" d="M301.496,228.73h96
		v147h-96V228.73z"/>
	
		<linearGradient id="SVGID_17_" gradientUnits="userSpaceOnUse" x1="293.2241" y1="165.2271" x2="202.2241" y2="165.227" gradientTransform="matrix(0.75 0 0 -0.75 221.9325 204.1486)">
		<stop  offset="0" style="stop-color:#287851"/>
		<stop  offset="0.01" style="stop-color:#85C09E"/>
		<stop  offset="0.02" style="stop-color:#369D6B"/>
		<stop  offset="0.64" style="stop-color:#359B69"/>
		<stop  offset="0.99" style="stop-color:#349767"/>
		<stop  offset="1" style="stop-color:#246F4A"/>
	</linearGradient>
	<path fill="url(#SVGID_17_)" d="M375.101,53.172h65.25c0.75,0,1.344,0.688,1.344,1.57l0.156,50.93c0,0.75-0.934,1.613-1.824,1.613
		l-64.926-0.113c-0.75,0-1.5-0.602-1.5-1.484V54.672c0-0.75,0.695-1.5,1.582-1.5H375.101z"/>
	
		<linearGradient id="SVGID_18_" gradientUnits="userSpaceOnUse" x1="214.2236" y1="79.8027" x2="202.2236" y2="79.8027" gradientTransform="matrix(0.75 0 0 -0.75 213.8436 189.0314)">
		<stop  offset="0" style="stop-color:#287851"/>
		<stop  offset="0.01" style="stop-color:#85C09E"/>
		<stop  offset="0.02" style="stop-color:#369D6B"/>
		<stop  offset="0.64" style="stop-color:#359B69"/>
		<stop  offset="0.99" style="stop-color:#349767"/>
		<stop  offset="1" style="stop-color:#246F4A"/>
	</linearGradient>
	<path fill="url(#SVGID_18_)" d="M374.511,38.055h-9v182.25h9V38.055z"/>
	<path fill="#3E3938" d="M379.976,59.121h23.25c0.75,0,0.707,0.273,0.707,0.664l0.043,0.836c0,0.75-0.363,0.941-0.758,0.941
		l-23.242-0.191c-0.75,0-0.75-0.129-0.75-0.52v-0.98c0-0.75,0.309-0.797,0.707-0.797L379.976,59.121z"/>
	<path fill="#3E3938" d="M379.976,66.93h23.25c0.75,0,0.707,0.273,0.707,0.668l0.043,0.832c0,0.75-0.363,0.941-0.758,0.941
		l-23.242-0.191c-0.75,0-0.75-0.125-0.75-0.52v-0.98c0-0.75,0.309-0.793,0.707-0.793L379.976,66.93z"/>
	<path fill="#3E3938" d="M379.976,75.039h23.25c0.75,0,0.707,0.273,0.707,0.668l0.043,0.832c0,0.75-0.363,0.941-0.758,0.941
		l-23.242-0.191c-0.75,0-0.75-0.125-0.75-0.52v-0.98c0-0.75,0.309-0.793,0.707-0.793L379.976,75.039z"/>
	<path fill="#3E3938" d="M379.976,83h23.25c0.75,0,0.707,0.273,0.707,0.668l0.043,0.832c0,0.75-0.363,0.941-0.758,0.941
		l-23.242-0.191c-0.75,0-0.75-0.125-0.75-0.52v-0.98c0-0.75,0.309-0.793,0.707-0.793L379.976,83z"/>
	<path fill="#3E3938" d="M379.976,98.922h23.25c0.75,0,0.707,0.273,0.707,0.664l0.043,0.836c0,0.75-0.363,0.941-0.758,0.941
		l-23.242-0.191c-0.75,0-0.75-0.129-0.75-0.52v-0.98c0-0.75,0.309-0.793,0.707-0.793L379.976,98.922z"/>
	<path fill="#3E3938" d="M379.976,91.16h23.25c0.75,0,0.707,0.273,0.707,0.664l0.043,0.836c0,0.75-0.363,0.941-0.758,0.941
		l-23.242-0.191c-0.75,0-0.75-0.129-0.75-0.52v-0.98c0-0.75,0.309-0.793,0.707-0.793L379.976,91.16z"/>
	<path fill="#3E3938" d="M411.085,59.121h23.25c0.75,0,0.707,0.273,0.707,0.664l0.043,0.836c0,0.75-0.363,0.941-0.758,0.941
		l-23.242-0.191c-0.75,0-0.75-0.129-0.75-0.52v-0.98c0-0.75,0.309-0.797,0.707-0.797L411.085,59.121z"/>
	<path fill="#3E3938" d="M411.085,66.93h23.25c0.75,0,0.707,0.273,0.707,0.668l0.043,0.832c0,0.75-0.363,0.941-0.758,0.941
		l-23.242-0.191c-0.75,0-0.75-0.125-0.75-0.52v-0.98c0-0.75,0.309-0.793,0.707-0.793L411.085,66.93z"/>
	<path fill="#3E3938" d="M411.085,75.039h23.25c0.75,0,0.707,0.273,0.707,0.668l0.043,0.832c0,0.75-0.363,0.941-0.758,0.941
		l-23.242-0.191c-0.75,0-0.75-0.125-0.75-0.52v-0.98c0-0.75,0.309-0.793,0.707-0.793L411.085,75.039z"/>
	<path fill="#3E3938" d="M411.085,83h23.25c0.75,0,0.707,0.273,0.707,0.668l0.043,0.832c0,0.75-0.363,0.941-0.758,0.941
		l-23.242-0.191c-0.75,0-0.75-0.125-0.75-0.52v-0.98c0-0.75,0.309-0.793,0.707-0.793L411.085,83z"/>
	<path fill="#3E3938" d="M411.085,98.922h23.25c0.75,0,0.707,0.273,0.707,0.664l0.043,0.836c0,0.75-0.363,0.941-0.758,0.941
		l-23.242-0.191c-0.75,0-0.75-0.129-0.75-0.52v-0.98c0-0.75,0.309-0.793,0.707-0.793L411.085,98.922z"/>
	<path fill="#3E3938" d="M411.085,91.16h23.25c0.75,0,0.707,0.273,0.707,0.664l0.043,0.836c0,0.75-0.363,0.941-0.758,0.941
		l-23.242-0.191c-0.75,0-0.75-0.129-0.75-0.52v-0.98c0-0.75,0.309-0.793,0.707-0.793L411.085,91.16z"/>
	
		<linearGradient id="SVGID_19_" gradientUnits="userSpaceOnUse" x1="216.2266" y1="192.3027" x2="202.2266" y2="192.3027" gradientTransform="matrix(0.75 0 0 -0.75 6.4706 380.2218)">
		<stop  offset="0" style="stop-color:#287952"/>
		<stop  offset="0.15" style="stop-color:#58AC80"/>
		<stop  offset="0.25" style="stop-color:#B7D4C2"/>
		<stop  offset="0.52" style="stop-color:#319062"/>
		<stop  offset="0.69" style="stop-color:#2A8056"/>
		<stop  offset="0.8" style="stop-color:#277851"/>
		<stop  offset="0.92" style="stop-color:#24714C"/>
		<stop  offset="1" style="stop-color:#2B8359"/>
	</linearGradient>
	<path fill="url(#SVGID_19_)" d="M158.141,229.246h10.5v13.5h-10.5V229.246z"/>
	
		<linearGradient id="SVGID_20_" gradientUnits="userSpaceOnUse" x1="216.2241" y1="192.3027" x2="202.2241" y2="192.3027" gradientTransform="matrix(0.75 0 0 -0.75 32.6639 380.2218)">
		<stop  offset="0" style="stop-color:#287952"/>
		<stop  offset="0.15" style="stop-color:#58AC80"/>
		<stop  offset="0.25" style="stop-color:#B7D4C2"/>
		<stop  offset="0.52" style="stop-color:#319062"/>
		<stop  offset="0.69" style="stop-color:#2A8056"/>
		<stop  offset="0.8" style="stop-color:#277851"/>
		<stop  offset="0.92" style="stop-color:#24714C"/>
		<stop  offset="1" style="stop-color:#2B8359"/>
	</linearGradient>
	<path fill="url(#SVGID_20_)" d="M184.332,229.246h10.5v13.5h-10.5V229.246z"/>
	
		<linearGradient id="SVGID_21_" gradientUnits="userSpaceOnUse" x1="216.2222" y1="192.3027" x2="202.2222" y2="192.3027" gradientTransform="matrix(0.75 0 0 -0.75 58.3954 380.2218)">
		<stop  offset="0" style="stop-color:#287952"/>
		<stop  offset="0.15" style="stop-color:#58AC80"/>
		<stop  offset="0.25" style="stop-color:#B7D4C2"/>
		<stop  offset="0.52" style="stop-color:#319062"/>
		<stop  offset="0.69" style="stop-color:#2A8056"/>
		<stop  offset="0.8" style="stop-color:#277851"/>
		<stop  offset="0.92" style="stop-color:#24714C"/>
		<stop  offset="1" style="stop-color:#2B8359"/>
	</linearGradient>
	<path fill="url(#SVGID_21_)" d="M210.063,229.246h10.5v13.5h-10.5V229.246z"/>
	
		<linearGradient id="SVGID_22_" gradientUnits="userSpaceOnUse" x1="216.2231" y1="192.3027" x2="202.2231" y2="192.3027" gradientTransform="matrix(0.75 0 0 -0.75 85.0511 380.2218)">
		<stop  offset="0" style="stop-color:#287952"/>
		<stop  offset="0.15" style="stop-color:#58AC80"/>
		<stop  offset="0.25" style="stop-color:#B7D4C2"/>
		<stop  offset="0.52" style="stop-color:#319062"/>
		<stop  offset="0.69" style="stop-color:#2A8056"/>
		<stop  offset="0.8" style="stop-color:#277851"/>
		<stop  offset="0.92" style="stop-color:#24714C"/>
		<stop  offset="1" style="stop-color:#2B8359"/>
	</linearGradient>
	<path fill="url(#SVGID_22_)" d="M236.719,229.246h10.5v13.5h-10.5V229.246z"/>
	
		<linearGradient id="SVGID_23_" gradientUnits="userSpaceOnUse" x1="216.2246" y1="192.3027" x2="202.2246" y2="192.3027" gradientTransform="matrix(0.75 0 0 -0.75 111.245 380.2218)">
		<stop  offset="0" style="stop-color:#287952"/>
		<stop  offset="0.15" style="stop-color:#58AC80"/>
		<stop  offset="0.25" style="stop-color:#B7D4C2"/>
		<stop  offset="0.52" style="stop-color:#319062"/>
		<stop  offset="0.69" style="stop-color:#2A8056"/>
		<stop  offset="0.8" style="stop-color:#277851"/>
		<stop  offset="0.92" style="stop-color:#24714C"/>
		<stop  offset="1" style="stop-color:#2B8359"/>
	</linearGradient>
	<path fill="url(#SVGID_23_)" d="M262.914,229.246h10.5v13.5h-10.5V229.246z"/>
	<path fill="#FFFFFF" fill-opacity="0.2078" d="M335.792,280.762h27.75c0,0,0.484,0.316,0.484,0.707l0.266,41.292
		c0,0-0.586,0.605-0.98,0.605l-27.52,0.145c-0.75,0-0.781-0.465-0.781-0.855l0.031-41.144c0-0.75,0.289-0.75,0.684-0.75H335.792z"/>
	
		<linearGradient id="SVGID_24_" gradientUnits="userSpaceOnUse" x1="292.7241" y1="201.3047" x2="292.7241" y2="196.3047" gradientTransform="matrix(0.75 0 0 -0.75 130.1908 674.1115)">
		<stop  offset="0" style="stop-color:#216644"/>
		<stop  offset="0.01" style="stop-color:#83B095"/>
		<stop  offset="0.02" style="stop-color:#2E875B"/>
		<stop  offset="0.64" style="stop-color:#2D855A"/>
		<stop  offset="0.99" style="stop-color:#2C8258"/>
		<stop  offset="1" style="stop-color:#1E5F3F"/>
	</linearGradient>
	<path fill="url(#SVGID_24_)" d="M281.859,523.132h135.75v3.75h-135.75V523.132z"/>
	
		<linearGradient id="SVGID_25_" gradientUnits="userSpaceOnUse" x1="606.3774" y1="176.3379" x2="202.2227" y2="176.3379" gradientTransform="matrix(0.75 0 0 -0.75 -15.941 677.8009)">
		<stop  offset="0" style="stop-color:#287851"/>
		<stop  offset="0.01" style="stop-color:#85C09E"/>
		<stop  offset="0.02" style="stop-color:#369D6B"/>
		<stop  offset="0.64" style="stop-color:#359B69"/>
		<stop  offset="0.99" style="stop-color:#349767"/>
		<stop  offset="1" style="stop-color:#246F4A"/>
	</linearGradient>
	<path fill="url(#SVGID_25_)" d="M137.227,526.824h300c0.75,0,1.617,0.664,1.617,1.547l-0.117,34.453c0,0.75-0.672,1.23-1.563,1.23
		l-299.937,0.27c-0.75,0-1.5-0.988-1.5-1.867v-34.133c0-0.75,0.688-1.551,1.578-1.551L137.227,526.824z"/>
	
		<linearGradient id="SVGID_26_" gradientUnits="userSpaceOnUse" x1="292.7222" y1="201.3047" x2="292.7222" y2="196.3047" gradientTransform="matrix(0.75 0 0 -0.75 130.1918 188.8536)">
		<stop  offset="0" style="stop-color:#216644"/>
		<stop  offset="0.01" style="stop-color:#83B095"/>
		<stop  offset="0.02" style="stop-color:#2E875B"/>
		<stop  offset="0.64" style="stop-color:#2D855A"/>
		<stop  offset="0.99" style="stop-color:#2C8258"/>
		<stop  offset="1" style="stop-color:#1E5F3F"/>
	</linearGradient>
	<path fill="url(#SVGID_26_)" d="M281.859,37.875h135.75v3.75h-135.75V37.875z"/>
	
		<linearGradient id="SVGID_27_" gradientUnits="userSpaceOnUse" x1="542.2222" y1="177.8071" x2="202.2222" y2="177.8071" gradientTransform="matrix(0.75 0 0 -0.75 13.0433 153.7374)">
		<stop  offset="0" style="stop-color:#287851"/>
		<stop  offset="0.01" style="stop-color:#85C09E"/>
		<stop  offset="0.02" style="stop-color:#369D6B"/>
		<stop  offset="0.64" style="stop-color:#359B69"/>
		<stop  offset="0.99" style="stop-color:#349767"/>
		<stop  offset="1" style="stop-color:#246F4A"/>
	</linearGradient>
	<path fill="url(#SVGID_27_)" d="M166.211,2.758h251.25c1.5,0,1.969,0.684,1.969,1.566l0.281,32.184c0,0.75-1.023,1.367-1.938,1.367
		l-251.562,0.133c-0.75,0-1.5-0.848-1.5-1.73V4.258c0-0.75,0.672-1.5,1.586-1.5H166.211z"/>
</g>
</svg>
