<?xml version="1.0" encoding="utf-8"?>
<!-- Generator: Adobe Illustrator 16.0.0, SVG Export Plug-In . SVG Version: 6.00 Build 0)  -->
<!DOCTYPE svg PUBLIC "-//W3C//DTD SVG 1.1//EN" "http://www.w3.org/Graphics/SVG/1.1/DTD/svg11.dtd">
<svg preserveAspectRatio="none" version="1.1" id="图层_1" xmlns="http://www.w3.org/2000/svg" xmlns:xlink="http://www.w3.org/1999/xlink" x="0px" y="0px"
	 width="524.773px" height="567.015px" viewBox="21.078 -0.035 524.773 567.015"
	 enable-background="new 21.078 -0.035 524.773 567.015" xml:space="preserve">
<g id="surface751">
	
		<linearGradient id="SVGID_1_" gradientUnits="userSpaceOnUse" x1="248.2241" y1="-138.1958" x2="202.2241" y2="-138.1958" gradientTransform="matrix(0.75 0 0 -0.75 325.5419 150.9425)">
		<stop  offset="0" style="stop-color:#BDA47F"/>
		<stop  offset="0.15" style="stop-color:#FFE0B3"/>
		<stop  offset="0.25" style="stop-color:#FFEED7"/>
		<stop  offset="0.52" style="stop-color:#DFC297"/>
		<stop  offset="0.69" style="stop-color:#C7AD86"/>
		<stop  offset="0.8" style="stop-color:#BCA37E"/>
		<stop  offset="0.92" style="stop-color:#B19A77"/>
		<stop  offset="1" style="stop-color:#CBB189"/>
	</linearGradient>
	<path fill="url(#SVGID_1_)" d="M477.96-0.035h33c0.75,0,0.711,0.965,0.711,2.391l0.039,503.859c0,0.75-0.32,2.629-0.664,2.629
		l-33.086,0.371c-0.75,0-0.75-1.914-0.75-3.344V2.215c0-1.5,0.258-2.25,0.602-2.25H477.96z"/>
	
		<linearGradient id="SVGID_2_" gradientUnits="userSpaceOnUse" x1="754.2231" y1="-106.6929" x2="202.2246" y2="-106.6929" gradientTransform="matrix(0.75 0 0 -0.75 -88.6573 255.9591)">
		<stop  offset="0" style="stop-color:#B3A593"/>
		<stop  offset="0.01" style="stop-color:#FDEEDA"/>
		<stop  offset="0.02" style="stop-color:#E9D7BF"/>
		<stop  offset="0.64" style="stop-color:#E5D3BC"/>
		<stop  offset="0.99" style="stop-color:#E0CEB8"/>
		<stop  offset="1" style="stop-color:#A69988"/>
	</linearGradient>
	<path fill="url(#SVGID_2_)" d="M63.762,104.98h412.5c0.75,0,0.598,0,0.598,0.621l0.152,460.628c0,0.75-0.152,0.734-0.824,0.734
		L63.762,566.98c-0.75,0-0.75-0.016-0.75-0.637V105.73c0-0.75,0-0.75,0.602-0.75H63.762z"/>
	
		<linearGradient id="SVGID_3_" gradientUnits="userSpaceOnUse" x1="754.2231" y1="115.3032" x2="202.2246" y2="115.3032" gradientTransform="matrix(0.75 0 0 -0.75 -88.6573 588.3595)">
		<stop  offset="0" style="stop-color:#B59D79"/>
		<stop  offset="0.01" style="stop-color:#FFE5C1"/>
		<stop  offset="0.02" style="stop-color:#EBCC9F"/>
		<stop  offset="0.64" style="stop-color:#E7C99C"/>
		<stop  offset="0.99" style="stop-color:#E2C499"/>
		<stop  offset="1" style="stop-color:#A89170"/>
	</linearGradient>
	<path fill="url(#SVGID_3_)" d="M63.762,437.382h412.5c0.75,0,0.598,0.207,0.598,0.551l0.152,127.699c0,0.75-0.152,0.75-0.777,0.75
		H63.762c-0.75,0-0.75-0.316-0.75-0.66v-127.59c0-0.75,0-0.75,0.602-0.75H63.762z"/>
	
		<linearGradient id="SVGID_4_" gradientUnits="userSpaceOnUse" x1="226.2261" y1="-71.9102" x2="202.1011" y2="-71.9102" gradientTransform="matrix(0.75 0 0 -0.75 -106.5797 279.8263)">
		<stop  offset="0" style="stop-color:#B3A593"/>
		<stop  offset="0.01" style="stop-color:#FDEEDA"/>
		<stop  offset="0.02" style="stop-color:#E9D7BF"/>
		<stop  offset="0.64" style="stop-color:#E5D3BC"/>
		<stop  offset="0.99" style="stop-color:#E0CEB8"/>
		<stop  offset="1" style="stop-color:#A69988"/>
	</linearGradient>
	<path fill="url(#SVGID_4_)" d="M45.84,128.848h16.5c0,0,0.648,0,0.648,0.598l0.102,408.902c0,0-0.383,0.324-0.727,0.324
		l-16.523-0.324c-0.75,0-0.844,0.324-0.844-0.32l0.094-408.429c0-0.75,0.188-0.75,0.531-0.75H45.84z"/>
	
		<linearGradient id="SVGID_5_" gradientUnits="userSpaceOnUse" x1="308.2739" y1="-9.3535" x2="202.2271" y2="-9.3535" gradientTransform="matrix(0.75 0 0 -0.75 292.1571 272.3751)">
		<stop  offset="0" style="stop-color:#B3A593"/>
		<stop  offset="0.01" style="stop-color:#FDEEDA"/>
		<stop  offset="0.02" style="stop-color:#E9D7BF"/>
		<stop  offset="0.64" style="stop-color:#E5D3BC"/>
		<stop  offset="0.99" style="stop-color:#E0CEB8"/>
		<stop  offset="1" style="stop-color:#A69988"/>
	</linearGradient>
	<path fill="url(#SVGID_5_)" d="M444.578,121.398h78c0.75,0,0.785,0,0.785,0.598l-0.035,314.402c0,0.75-0.316,0.984-0.66,0.984
		l-78.09-0.234c-0.75,0-0.75-0.113-0.75-0.457V122.148c0-0.75,0.277-0.75,0.621-0.75H444.578z"/>
	
		<linearGradient id="SVGID_6_" gradientUnits="userSpaceOnUse" x1="338.2583" y1="109.8037" x2="202.2212" y2="109.8037" gradientTransform="matrix(0.75 0 0 -0.75 292.1571 451.2072)">
		<stop  offset="0" style="stop-color:#B3A593"/>
		<stop  offset="0.01" style="stop-color:#FDEEDA"/>
		<stop  offset="0.02" style="stop-color:#E9D7BF"/>
		<stop  offset="0.64" style="stop-color:#E5D3BC"/>
		<stop  offset="0.99" style="stop-color:#E0CEB8"/>
		<stop  offset="1" style="stop-color:#A69988"/>
	</linearGradient>
	<path fill="url(#SVGID_6_)" d="M444.574,300.23h100.5c0.75,0,0.777,0.254,0.777,0.598l-0.027,135.902c0,0-0.32,0.652-0.668,0.652
		l-100.582,0.098c-0.75,0-0.75-0.449-0.75-0.789V300.98c0-0.75,0.281-0.75,0.625-0.75H444.574z"/>
	
		<linearGradient id="SVGID_7_" gradientUnits="userSpaceOnUse" x1="720.2271" y1="185.3677" x2="202.2275" y2="185.3676" gradientTransform="matrix(0.75 0 0 -0.75 -75.1866 604.7745)">
		<stop  offset="0" style="stop-color:#292525"/>
		<stop  offset="0.01" style="stop-color:#868584"/>
		<stop  offset="0.02" style="stop-color:#383433"/>
		<stop  offset="0.64" style="stop-color:#373332"/>
		<stop  offset="0.99" style="stop-color:#363130"/>
		<stop  offset="1" style="stop-color:#252221"/>
	</linearGradient>
	<path fill="url(#SVGID_7_)" d="M77.234,453.796h387c0.75,0,0.676,0.184,0.676,0.527l0.074,22.723c0,0-0.074,0.5-0.793,0.5
		l-386.957,0.25c-0.75,0-0.75-0.527-0.75-0.871v-22.379c0-0.75,0-0.844,0.621-0.844L77.234,453.796z"/>
	
		<linearGradient id="SVGID_8_" gradientUnits="userSpaceOnUse" x1="483.2261" y1="-20.2944" x2="202.2261" y2="-20.2945" gradientTransform="matrix(0.75 0 0 -0.75 -87.9552 255.9591)">
		<stop  offset="0" style="stop-color:#B3A593"/>
		<stop  offset="0.01" style="stop-color:#FDEEDA"/>
		<stop  offset="0.02" style="stop-color:#E9D7BF"/>
		<stop  offset="0.64" style="stop-color:#E5D3BC"/>
		<stop  offset="0.99" style="stop-color:#E0CEB8"/>
		<stop  offset="1" style="stop-color:#A69988"/>
	</linearGradient>
	<path fill="url(#SVGID_8_)" d="M64.465,104.98h209.25c0.75,0,0.73,0,0.73,0.621l0.02,330.878c0,0.75-0.348,0.902-0.691,0.902
		L64.465,437.23c-0.75,0-0.75-0.195-0.75-0.539V105.73c0-0.75,0-0.75,0.523-0.75H64.465z"/>
	
		<linearGradient id="SVGID_9_" gradientUnits="userSpaceOnUse" x1="390.2231" y1="118.8027" x2="202.2227" y2="118.8027" gradientTransform="matrix(0.75 0 0 -0.75 137.7225 298.1837)">
		<stop  offset="0" style="stop-color:#5F5F5F"/>
		<stop  offset="0.01" style="stop-color:#A9A9AA"/>
		<stop  offset="0.02" style="stop-color:#7D7D7E"/>
		<stop  offset="0.64" style="stop-color:#7B7B7C"/>
		<stop  offset="0.99" style="stop-color:#787879"/>
		<stop  offset="1" style="stop-color:#575758"/>
	</linearGradient>
	<path fill="url(#SVGID_9_)" d="M289.39,147.207h141v123.75h-141V147.207z"/>
	
		<linearGradient id="SVGID_10_" gradientUnits="userSpaceOnUse" x1="390.2231" y1="100.8047" x2="202.2227" y2="100.8047" gradientTransform="matrix(0.75 0 0 -0.75 137.7225 422.1183)">
		<stop  offset="0" style="stop-color:#B59D79"/>
		<stop  offset="0.01" style="stop-color:#FFE5C1"/>
		<stop  offset="0.02" style="stop-color:#EBCC9F"/>
		<stop  offset="0.64" style="stop-color:#E7C99C"/>
		<stop  offset="0.99" style="stop-color:#E2C499"/>
		<stop  offset="1" style="stop-color:#A89170"/>
	</linearGradient>
	<path fill="url(#SVGID_10_)" d="M289.39,271.141h141v150.75h-141V271.141z"/>
	
		<linearGradient id="SVGID_11_" gradientUnits="userSpaceOnUse" x1="308.2739" y1="170.0586" x2="202.2271" y2="170.0586" gradientTransform="matrix(0.75 0 0 -0.75 292.1571 314.5304)">
		<stop  offset="0" style="stop-color:#B59D79"/>
		<stop  offset="0.01" style="stop-color:#FFE5C1"/>
		<stop  offset="0.02" style="stop-color:#EBCC9F"/>
		<stop  offset="0.64" style="stop-color:#E7C99C"/>
		<stop  offset="0.99" style="stop-color:#E2C499"/>
		<stop  offset="1" style="stop-color:#A89170"/>
	</linearGradient>
	<path fill="url(#SVGID_11_)" d="M444.578,163.555h78c0.75,0,0.785,0,0.785,0.086l-0.035,46.414c0,0-0.316,0.363-0.66,0.363
		l-78.09-0.363c-0.75,0-0.75,0.313-0.75,0.262v-46.762c0,0,0.277,0,0.621,0H444.578z"/>
	
		<linearGradient id="SVGID_12_" gradientUnits="userSpaceOnUse" x1="338.2583" y1="186.7041" x2="202.2212" y2="186.7041" gradientTransform="matrix(0.75 0 0 -0.75 292.1571 469.5187)">
		<stop  offset="0" style="stop-color:#B59D79"/>
		<stop  offset="0.01" style="stop-color:#FFE5C1"/>
		<stop  offset="0.02" style="stop-color:#EBCC9F"/>
		<stop  offset="0.64" style="stop-color:#E7C99C"/>
		<stop  offset="0.99" style="stop-color:#E2C499"/>
		<stop  offset="1" style="stop-color:#A89170"/>
	</linearGradient>
	<path fill="url(#SVGID_12_)" d="M444.574,318.539h100.5c0.75,0,0.777,0.043,0.777,0.098l-0.027,21.652c0,0-0.32,0.156-0.668,0.156
		l-100.582-0.156c-0.75,0-0.75,0.098-0.75,0.043v-21.793c0,0,0.281,0,0.625,0H444.574z"/>
	
		<linearGradient id="SVGID_13_" gradientUnits="userSpaceOnUse" x1="308.2739" y1="197.3047" x2="202.2271" y2="197.3047" gradientTransform="matrix(0.75 0 0 -0.75 292.1571 445.7198)">
		<stop  offset="0" style="stop-color:#B59D79"/>
		<stop  offset="0.01" style="stop-color:#FFE5C1"/>
		<stop  offset="0.02" style="stop-color:#EBCC9F"/>
		<stop  offset="0.64" style="stop-color:#E7C99C"/>
		<stop  offset="0.99" style="stop-color:#E2C499"/>
		<stop  offset="1" style="stop-color:#A89170"/>
	</linearGradient>
	<path fill="url(#SVGID_13_)" d="M444.578,294.742h78c0.75,0,0.785,0,0.785,0.012l-0.035,5.988c0,0-0.316-0.164-0.66-0.164
		l-78.09,0.164c-0.75,0-0.75-0.172-0.75-0.176v-5.824c0,0,0.277,0,0.621,0H444.578z"/>
	
		<linearGradient id="SVGID_14_" gradientUnits="userSpaceOnUse" x1="248.2241" y1="169.5942" x2="202.2241" y2="169.5942" gradientTransform="matrix(0.75 0 0 -0.75 325.5419 178.59)">
		<stop  offset="0" style="stop-color:#B99522"/>
		<stop  offset="0.15" style="stop-color:#F9CE54"/>
		<stop  offset="0.25" style="stop-color:#FCE4B6"/>
		<stop  offset="0.52" style="stop-color:#DAB12A"/>
		<stop  offset="0.69" style="stop-color:#C29D24"/>
		<stop  offset="0.8" style="stop-color:#B79421"/>
		<stop  offset="0.92" style="stop-color:#AD8B1F"/>
		<stop  offset="1" style="stop-color:#C7A125"/>
	</linearGradient>
	<path fill="url(#SVGID_14_)" d="M477.96,27.613h33c0.75,0,0.711,0.09,0.711,0.223l0.039,47.027c0,0-0.32,0.313-0.664,0.313
		l-33.086-0.313c-0.75,0-0.75,0.168-0.75,0.035V27.613c0,0,0.258,0,0.602,0H477.96z"/>
	
		<linearGradient id="SVGID_15_" gradientUnits="userSpaceOnUse" x1="483.2261" y1="115.6763" x2="202.2261" y2="115.6762" gradientTransform="matrix(0.75 0 0 -0.75 -87.9552 357.9376)">
		<stop  offset="0" style="stop-color:#B59D79"/>
		<stop  offset="0.01" style="stop-color:#FFE5C1"/>
		<stop  offset="0.02" style="stop-color:#EBCC9F"/>
		<stop  offset="0.64" style="stop-color:#E7C99C"/>
		<stop  offset="0.99" style="stop-color:#E2C499"/>
		<stop  offset="1" style="stop-color:#A89170"/>
	</linearGradient>
	<path fill="url(#SVGID_15_)" d="M64.465,206.961h209.25c0.75,0,0.73,0,0.73,0.238l0.02,128.011c0,0-0.348,0.191-0.691,0.191
		L64.465,335.21c-0.75,0-0.75,0.059-0.75-0.074V206.961c0,0,0,0,0.523,0H64.465z"/>
	
		<linearGradient id="SVGID_16_" gradientUnits="userSpaceOnUse" x1="370.2271" y1="125.8047" x2="202.2271" y2="125.8047" gradientTransform="matrix(0.75 0 0 -0.75 -130.5924 276.9161)">
		<stop  offset="0" style="stop-color:#3D3B3B"/>
		<stop  offset="0.01" style="stop-color:#908F8F"/>
		<stop  offset="0.02" style="stop-color:#514F4F"/>
		<stop  offset="0.64" style="stop-color:#504E4E"/>
		<stop  offset="0.99" style="stop-color:#4E4C4C"/>
		<stop  offset="1" style="stop-color:#383636"/>
	</linearGradient>
	<path fill="url(#SVGID_16_)" d="M21.828,125.938h124.5c0,0,0.672,0.188,0.672,0.527l0.078,111.973c0,0.75-0.406,0.668-0.75,0.668
		l-124.5,0.082c-0.75,0-0.75-0.359-0.75-0.703V126.688c0-0.75,0.207-0.75,0.555-0.75H21.828z"/>
	
		<linearGradient id="SVGID_17_" gradientUnits="userSpaceOnUse" x1="342.7261" y1="201.3057" x2="342.7261" y2="181.3057" gradientTransform="matrix(0.75 0 0 -0.75 -87.9552 255.9591)">
		<stop  offset="0" style="stop-color:#B59D79"/>
		<stop  offset="0.01" style="stop-color:#FFE5C1"/>
		<stop  offset="0.02" style="stop-color:#EBCC9F"/>
		<stop  offset="0.64" style="stop-color:#E7C99C"/>
		<stop  offset="0.99" style="stop-color:#E2C499"/>
		<stop  offset="1" style="stop-color:#A89170"/>
	</linearGradient>
	<path fill="url(#SVGID_17_)" d="M64.465,104.98h209.25c0.75,0,0.73,0,0.73,0.027l0.02,14.973c0,0-0.348-0.094-0.691-0.094
		L64.465,119.98c-0.75,0-0.75-0.109-0.75-0.125V104.98c0,0,0,0,0.523,0H64.465z"/>
	
		<linearGradient id="SVGID_18_" gradientUnits="userSpaceOnUse" x1="337.2231" y1="201.3066" x2="337.2231" y2="181.3057" gradientTransform="matrix(0.75 0 0 -0.75 122.8202 255.9591)">
		<stop  offset="0" style="stop-color:#B59D79"/>
		<stop  offset="0.01" style="stop-color:#FFE5C1"/>
		<stop  offset="0.02" style="stop-color:#EBCC9F"/>
		<stop  offset="0.64" style="stop-color:#E7C99C"/>
		<stop  offset="0.99" style="stop-color:#E2C499"/>
		<stop  offset="1" style="stop-color:#A89170"/>
	</linearGradient>
	<path fill="url(#SVGID_18_)" d="M275.238,104.98h201c0,0,0.621,0,0.621,0.027l0.129,14.973c0,0-0.441-0.094-0.773-0.094
		l-200.976,0.094c-0.75,0-0.75-0.109-0.75-0.125V104.98c0,0,0,0,0.504,0H275.238z"/>
</g>
</svg>
