<?xml version="1.0" encoding="utf-8"?>
<!-- Generator: Adobe Illustrator 16.0.0, SVG Export Plug-In . SVG Version: 6.00 Build 0)  -->
<!DOCTYPE svg PUBLIC "-//W3C//DTD SVG 1.1//EN" "http://www.w3.org/Graphics/SVG/1.1/DTD/svg11.dtd">
<svg preserveAspectRatio="none" version="1.1" id="图层_1" xmlns="http://www.w3.org/2000/svg" xmlns:xlink="http://www.w3.org/1999/xlink" x="0px" y="0px"
	 width="525.027px" height="567.088px" viewBox="21.023 -0.081 525.027 567.088"
	 enable-background="new 21.023 -0.081 525.027 567.088" xml:space="preserve">
<g id="surface846">
	
		<linearGradient id="SVGID_1_" gradientUnits="userSpaceOnUse" x1="234.2227" y1="152.3066" x2="202.2227" y2="152.3066" gradientTransform="matrix(0.75 0 0 -0.75 -21.4406 416.4825)">
		<stop  offset="0" style="stop-color:#2B2827"/>
		<stop  offset="0.15" style="stop-color:#5B5858"/>
		<stop  offset="0.25" style="stop-color:#B8B7B7"/>
		<stop  offset="0.52" style="stop-color:#353130"/>
		<stop  offset="0.69" style="stop-color:#2E2A29"/>
		<stop  offset="0.8" style="stop-color:#2B2726"/>
		<stop  offset="0.92" style="stop-color:#282424"/>
		<stop  offset="1" style="stop-color:#2F2B2B"/>
	</linearGradient>
	<path fill="url(#SVGID_1_)" d="M130.227,265.504h24v73.5h-24V265.504z"/>
	
		<linearGradient id="SVGID_2_" gradientUnits="userSpaceOnUse" x1="257.2256" y1="191.3047" x2="202.2256" y2="191.3047" gradientTransform="matrix(0.75 0 0 -0.75 -30.3253 417.0724)">
		<stop  offset="0" style="stop-color:#467650"/>
		<stop  offset="0.15" style="stop-color:#73A97D"/>
		<stop  offset="0.25" style="stop-color:#BED2C1"/>
		<stop  offset="0.52" style="stop-color:#548C5F"/>
		<stop  offset="0.69" style="stop-color:#4A7C54"/>
		<stop  offset="0.8" style="stop-color:#45754F"/>
		<stop  offset="0.92" style="stop-color:#416E4A"/>
		<stop  offset="1" style="stop-color:#4C7F56"/>
	</linearGradient>
	<path fill="url(#SVGID_2_)" d="M121.344,281.094h41.25v-15h-41.25V281.094z"/>
	
		<linearGradient id="SVGID_3_" gradientUnits="userSpaceOnUse" x1="241.2231" y1="193.8086" x2="202.2231" y2="193.8086" gradientTransform="matrix(0.75 0 0 -0.75 -24.402 465.1124)">
		<stop  offset="0" style="stop-color:#AE4F52"/>
		<stop  offset="0.15" style="stop-color:#EC7D80"/>
		<stop  offset="0.25" style="stop-color:#F4C1C2"/>
		<stop  offset="0.52" style="stop-color:#CE5E62"/>
		<stop  offset="0.69" style="stop-color:#B75356"/>
		<stop  offset="0.8" style="stop-color:#AD4E51"/>
		<stop  offset="0.92" style="stop-color:#A3494C"/>
		<stop  offset="1" style="stop-color:#BB5559"/>
	</linearGradient>
	<path fill="url(#SVGID_3_)" d="M127.266,314.132h29.25v11.25h-29.25V314.132z"/>
	
		<linearGradient id="SVGID_4_" gradientUnits="userSpaceOnUse" x1="241.2251" y1="185.8032" x2="202.2251" y2="185.8032" gradientTransform="matrix(0.75 0 0 -0.75 -24.4034 431.4025)">
		<stop  offset="0" style="stop-color:#5D8565"/>
		<stop  offset="0.15" style="stop-color:#8CBA95"/>
		<stop  offset="0.25" style="stop-color:#C7DACA"/>
		<stop  offset="0.52" style="stop-color:#6F9D78"/>
		<stop  offset="0.69" style="stop-color:#628B6A"/>
		<stop  offset="0.8" style="stop-color:#5C8364"/>
		<stop  offset="0.92" style="stop-color:#577C5E"/>
		<stop  offset="1" style="stop-color:#658F6D"/>
	</linearGradient>
	<path fill="url(#SVGID_4_)" d="M127.266,280.426h29.25v23.25h-29.25V280.426z"/>
	
		<linearGradient id="SVGID_5_" gradientUnits="userSpaceOnUse" x1="257.2256" y1="192.8066" x2="202.2256" y2="192.8066" gradientTransform="matrix(0.75 0 0 -0.75 -30.3253 475.4279)">
		<stop  offset="0" style="stop-color:#BDBDBD"/>
		<stop  offset="0.15" style="stop-color:#FFFFFF"/>
		<stop  offset="0.25" style="stop-color:#FFFFFF"/>
		<stop  offset="0.52" style="stop-color:#DFDFDF"/>
		<stop  offset="0.69" style="stop-color:#C7C7C7"/>
		<stop  offset="0.8" style="stop-color:#BCBCBC"/>
		<stop  offset="0.92" style="stop-color:#B1B1B1"/>
		<stop  offset="1" style="stop-color:#CBCBCB"/>
	</linearGradient>
	<path fill="url(#SVGID_5_)" d="M121.344,324.449h41.25v12.75h-41.25V324.449z"/>
	
		<linearGradient id="SVGID_6_" gradientUnits="userSpaceOnUse" x1="586.2222" y1="196.3052" x2="202.2231" y2="196.3051" gradientTransform="matrix(0.75 0 0 -0.75 -41.2457 549.4777)">
		<stop  offset="0" style="stop-color:#4A7D54"/>
		<stop  offset="0.01" style="stop-color:#99C5A1"/>
		<stop  offset="0.02" style="stop-color:#63A470"/>
		<stop  offset="0.64" style="stop-color:#61A16E"/>
		<stop  offset="0.99" style="stop-color:#5F9D6B"/>
		<stop  offset="1" style="stop-color:#44744E"/>
	</linearGradient>
	<path fill="url(#SVGID_6_)" d="M110.422,398.5h288v7.5h-288V398.5z"/>
	
		<linearGradient id="SVGID_7_" gradientUnits="userSpaceOnUse" x1="859.2212" y1="2.8066" x2="202.2227" y2="2.8066" gradientTransform="matrix(0.75 0 0 -0.75 -98.441 253.6466)">
		<stop  offset="0" style="stop-color:#638C6B"/>
		<stop  offset="0.01" style="stop-color:#ADD4B4"/>
		<stop  offset="0.02" style="stop-color:#82B78D"/>
		<stop  offset="0.64" style="stop-color:#80B48A"/>
		<stop  offset="0.99" style="stop-color:#7DB087"/>
		<stop  offset="1" style="stop-color:#5B8263"/>
	</linearGradient>
	<path fill="url(#SVGID_7_)" d="M53.227,102.668h396v19.5l31.5,77.25l22.5,8.25l27.75,46.5l0.75,16.5l14.25,15l-0.75,29.25
		l-51.75,32.25l-12,27l-83.25,26.25h-294l0.75-63.75h89.25v15.75l8.25,3.75l36-24v-44.25l-48-21.75H53.227V102.668z"/>
	
		<linearGradient id="SVGID_8_" gradientUnits="userSpaceOnUse" x1="747.2222" y1="186.8032" x2="202.2231" y2="186.8032" gradientTransform="matrix(0.75 0 0 -0.75 -102.8829 252.9093)">
		<stop  offset="0" style="stop-color:#4A7D54"/>
		<stop  offset="0.01" style="stop-color:#99C5A1"/>
		<stop  offset="0.02" style="stop-color:#63A470"/>
		<stop  offset="0.64" style="stop-color:#61A16E"/>
		<stop  offset="0.99" style="stop-color:#5F9D6B"/>
		<stop  offset="1" style="stop-color:#44744E"/>
	</linearGradient>
	<path fill="url(#SVGID_8_)" d="M49.535,101.934h407.25c0.75,0,0.691,0.395,0.691,0.883l0.059,20.117c0,0-0.059,0.551-0.945,0.551
		l-407.054,0.199c-0.75,0-0.75-0.598-0.75-1.086v-19.914c0,0,0-0.75,0.891-0.75H49.535z"/>
	
		<linearGradient id="SVGID_9_" gradientUnits="userSpaceOnUse" x1="714.2261" y1="98.3052" x2="202.2271" y2="98.3051" gradientTransform="matrix(0.75 0 0 -0.75 -47.3541 556.2931)">
		<stop  offset="0" style="stop-color:#638C6B"/>
		<stop  offset="0.01" style="stop-color:#ADD4B4"/>
		<stop  offset="0.02" style="stop-color:#82B78D"/>
		<stop  offset="0.64" style="stop-color:#80B48A"/>
		<stop  offset="0.99" style="stop-color:#7DB087"/>
		<stop  offset="1" style="stop-color:#5B8263"/>
	</linearGradient>
	<path fill="url(#SVGID_9_)" d="M104.316,405.316h384v154.5h-81.75l-15.75-26.25h-189l-16.5,26.25h-81V405.316z"/>
	
		<linearGradient id="SVGID_10_" gradientUnits="userSpaceOnUse" x1="319.2271" y1="196.644" x2="202.2271" y2="196.644" gradientTransform="matrix(0.75 0 0 -0.75 -50.9635 710.9552)">
		<stop  offset="0" style="stop-color:#4A7D54"/>
		<stop  offset="0.01" style="stop-color:#99C5A1"/>
		<stop  offset="0.02" style="stop-color:#63A470"/>
		<stop  offset="0.64" style="stop-color:#61A16E"/>
		<stop  offset="0.99" style="stop-color:#5F9D6B"/>
		<stop  offset="1" style="stop-color:#44744E"/>
	</linearGradient>
	<path fill="url(#SVGID_10_)" d="M101.457,559.976h85.5c0.75,0,1.137,0.355,1.137,0.844l0.363,5.156c0,0.75-0.801,1.031-1.293,1.031
		l-85.707-0.281c0,0-0.75-0.113-0.75-0.602v-5.398c0-0.75,0.379-0.789,0.867-0.789L101.457,559.976z"/>
	
		<linearGradient id="SVGID_11_" gradientUnits="userSpaceOnUse" x1="319.2251" y1="196.644" x2="202.2251" y2="196.644" gradientTransform="matrix(0.75 0 0 -0.75 252.0018 710.9552)">
		<stop  offset="0" style="stop-color:#4A7D54"/>
		<stop  offset="0.01" style="stop-color:#99C5A1"/>
		<stop  offset="0.02" style="stop-color:#63A470"/>
		<stop  offset="0.64" style="stop-color:#61A16E"/>
		<stop  offset="0.99" style="stop-color:#5F9D6B"/>
		<stop  offset="1" style="stop-color:#44744E"/>
	</linearGradient>
	<path fill="url(#SVGID_11_)" d="M404.421,559.976h85.5c0.75,0,1.137,0.355,1.137,0.844l0.363,5.156c0,0.75-0.801,1.031-1.293,1.031
		l-85.707-0.281c0,0-0.75-0.113-0.75-0.602v-5.398c0-0.75,0.379-0.789,0.867-0.789L404.421,559.976z"/>
	
		<linearGradient id="SVGID_12_" gradientUnits="userSpaceOnUse" x1="213.2227" y1="113.1152" x2="202.165" y2="113.1152" gradientTransform="matrix(0.75 0 0 -0.75 -13.6202 578.6046)">
		<stop  offset="0" style="stop-color:#4A7D54"/>
		<stop  offset="0.01" style="stop-color:#99C5A1"/>
		<stop  offset="0.02" style="stop-color:#63A470"/>
		<stop  offset="0.64" style="stop-color:#61A16E"/>
		<stop  offset="0.99" style="stop-color:#5F9D6B"/>
		<stop  offset="1" style="stop-color:#44744E"/>
	</linearGradient>
	<path fill="url(#SVGID_12_)" d="M138.797,427.628h6.75c0,0,0.602,0.371,0.602,0.859l0.148,130.391c0,0.75-0.547,1.031-1.039,1.031
		l-6.461-0.281c-0.75,0-0.793-0.164-0.793-0.652l0.043-130.598c0-0.75,0.352-0.75,0.844-0.75H138.797z"/>
	
		<linearGradient id="SVGID_13_" gradientUnits="userSpaceOnUse" x1="531.2261" y1="195.3071" x2="202.2261" y2="195.3071" gradientTransform="matrix(0.75 0 0 -0.75 -13.6666 578.213)">
		<stop  offset="0" style="stop-color:#4A7D54"/>
		<stop  offset="0.01" style="stop-color:#99C5A1"/>
		<stop  offset="0.02" style="stop-color:#63A470"/>
		<stop  offset="0.64" style="stop-color:#61A16E"/>
		<stop  offset="0.99" style="stop-color:#5F9D6B"/>
		<stop  offset="1" style="stop-color:#44744E"/>
	</linearGradient>
	<path fill="url(#SVGID_13_)" d="M138.004,427.234h246.75v9h-246.75V427.234z"/>
	
		<linearGradient id="SVGID_14_" gradientUnits="userSpaceOnUse" x1="341.2251" y1="191.3047" x2="202.2251" y2="191.3047" gradientTransform="matrix(0.75 0 0 -0.75 232.8807 587.0548)">
		<stop  offset="0" style="stop-color:#4A7D54"/>
		<stop  offset="0.01" style="stop-color:#99C5A1"/>
		<stop  offset="0.02" style="stop-color:#63A470"/>
		<stop  offset="0.64" style="stop-color:#61A16E"/>
		<stop  offset="0.99" style="stop-color:#5F9D6B"/>
		<stop  offset="1" style="stop-color:#44744E"/>
	</linearGradient>
	<path fill="url(#SVGID_14_)" d="M384.55,436.078H488.8v15H384.55V436.078z"/>
	
		<linearGradient id="SVGID_15_" gradientUnits="userSpaceOnUse" x1="341.2251" y1="180.8047" x2="202.2251" y2="180.8047" gradientTransform="matrix(0.75 0 0 -0.75 232.8807 556.2931)">
		<stop  offset="0" style="stop-color:#638C6B"/>
		<stop  offset="0.01" style="stop-color:#ADD4B4"/>
		<stop  offset="0.02" style="stop-color:#82B78D"/>
		<stop  offset="0.64" style="stop-color:#80B48A"/>
		<stop  offset="0.99" style="stop-color:#7DB087"/>
		<stop  offset="1" style="stop-color:#5B8263"/>
	</linearGradient>
	<path fill="url(#SVGID_15_)" d="M384.55,436.066H488.8v-30.75H384.55V436.066z"/>
	
		<linearGradient id="SVGID_16_" gradientUnits="userSpaceOnUse" x1="383.5259" y1="160.8486" x2="202.2241" y2="160.8486" gradientTransform="matrix(0.75 0 0 -0.75 46.6981 603.4034)">
		<stop  offset="0" style="stop-color:#4A7D54"/>
		<stop  offset="0.01" style="stop-color:#99C5A1"/>
		<stop  offset="0.02" style="stop-color:#63A470"/>
		<stop  offset="0.64" style="stop-color:#61A16E"/>
		<stop  offset="0.99" style="stop-color:#5F9D6B"/>
		<stop  offset="1" style="stop-color:#44744E"/>
	</linearGradient>
	<path fill="url(#SVGID_16_)" d="M199.117,452.425h134.25c0.75,0,0.977,0.332,0.977,0.82l-0.227,59.18c0,0-0.238,0.648-0.727,0.648
		l-134.273,0.102c-0.75,0-0.75-0.496-0.75-0.984v-59.016c0-0.75,0.375-0.816,0.863-0.816L199.117,452.425z"/>
	
		<linearGradient id="SVGID_17_" gradientUnits="userSpaceOnUse" x1="300.2104" y1="159.3911" x2="312.2104" y2="159.3911" gradientTransform="matrix(-0.5303 0.5303 -0.5303 -0.5303 546.0944 181.5904)">
		<stop  offset="0" style="stop-color:#2B2827"/>
		<stop  offset="0.15" style="stop-color:#5B5858"/>
		<stop  offset="0.25" style="stop-color:#B8B7B7"/>
		<stop  offset="0.52" style="stop-color:#353130"/>
		<stop  offset="0.69" style="stop-color:#2E2A29"/>
		<stop  offset="0.8" style="stop-color:#2B2726"/>
		<stop  offset="0.92" style="stop-color:#282424"/>
		<stop  offset="1" style="stop-color:#2F2B2B"/>
	</linearGradient>
	<path fill="url(#SVGID_17_)" d="M258.602,212.52l-6.363,6.363l87.503,87.503l6.363-6.363L258.602,212.52z"/>
	
		<linearGradient id="SVGID_18_" gradientUnits="userSpaceOnUse" x1="300.2124" y1="159.3926" x2="312.2153" y2="159.3926" gradientTransform="matrix(-0.5303 0.5303 -0.5303 -0.5303 581.321 149.796)">
		<stop  offset="0" style="stop-color:#2B2827"/>
		<stop  offset="0.15" style="stop-color:#5B5858"/>
		<stop  offset="0.25" style="stop-color:#B8B7B7"/>
		<stop  offset="0.52" style="stop-color:#353130"/>
		<stop  offset="0.69" style="stop-color:#2E2A29"/>
		<stop  offset="0.8" style="stop-color:#2B2726"/>
		<stop  offset="0.92" style="stop-color:#282424"/>
		<stop  offset="1" style="stop-color:#2F2B2B"/>
	</linearGradient>
	<path fill="url(#SVGID_18_)" d="M293.828,180.727l-6.367,6.363l87.504,87.504l6.367-6.363L293.828,180.727z"/>
	
		<linearGradient id="SVGID_19_" gradientUnits="userSpaceOnUse" x1="426.2231" y1="187.8027" x2="202.2241" y2="187.8027" gradientTransform="matrix(0.75 0 0 -0.75 107.3861 514.8478)">
		<stop  offset="0" style="stop-color:#A8A8A8"/>
		<stop  offset="0.01" style="stop-color:#F2F2F2"/>
		<stop  offset="0.02" style="stop-color:#DBDBDB"/>
		<stop  offset="0.64" style="stop-color:#D8D8D8"/>
		<stop  offset="0.99" style="stop-color:#D3D3D3"/>
		<stop  offset="1" style="stop-color:#9C9C9C"/>
	</linearGradient>
	<path fill="url(#SVGID_19_)" d="M259.055,363.871h168v20.25h-168V363.871z"/>
	
		<linearGradient id="SVGID_20_" gradientUnits="userSpaceOnUse" x1="228.3262" y1="162.8027" x2="202.1641" y2="162.8027" gradientTransform="matrix(0.75 0 0 -0.75 106.3217 493.8478)">
		<stop  offset="0" style="stop-color:#4A7D54"/>
		<stop  offset="0.01" style="stop-color:#99C5A1"/>
		<stop  offset="0.02" style="stop-color:#63A470"/>
		<stop  offset="0.64" style="stop-color:#61A16E"/>
		<stop  offset="0.99" style="stop-color:#5F9D6B"/>
		<stop  offset="1" style="stop-color:#44744E"/>
	</linearGradient>
	<path fill="url(#SVGID_20_)" d="M258.742,342.871h18c0.75,0,0.824,0.395,0.824,0.883l-0.074,55.367c0,0.75-0.324,1.223-0.816,1.223
		l-17.934,0.277c-0.75,0-0.797-0.676-0.797-1.164l0.047-55.836c0,0,0.352-0.75,0.84-0.75H258.742z"/>
	
		<linearGradient id="SVGID_21_" gradientUnits="userSpaceOnUse" x1="225.2256" y1="190.3359" x2="202.1953" y2="190.3359" gradientTransform="matrix(0.75 0 0 -0.75 125.5487 498.6837)">
		<stop  offset="0" style="stop-color:#4A7D54"/>
		<stop  offset="0.01" style="stop-color:#99C5A1"/>
		<stop  offset="0.02" style="stop-color:#63A470"/>
		<stop  offset="0.64" style="stop-color:#61A16E"/>
		<stop  offset="0.99" style="stop-color:#5F9D6B"/>
		<stop  offset="1" style="stop-color:#44744E"/>
	</linearGradient>
	<path fill="url(#SVGID_21_)" d="M277.969,347.707h15c0.75,0,1.254,0.348,1.254,0.836l0.246,14.164c0,0.75-0.645,1.164-1.133,1.164
		l-15.367,0.336c-0.75,0-0.773-0.734-0.773-1.223l0.023-14.527c0-0.75,0.375-0.797,0.863-0.797L277.969,347.707z"/>
	
		<linearGradient id="SVGID_22_" gradientUnits="userSpaceOnUse" x1="225.2256" y1="190.3345" x2="202.1953" y2="190.3345" gradientTransform="matrix(0.75 0 0 -0.75 125.5487 534.7404)">
		<stop  offset="0" style="stop-color:#4A7D54"/>
		<stop  offset="0.01" style="stop-color:#99C5A1"/>
		<stop  offset="0.02" style="stop-color:#63A470"/>
		<stop  offset="0.64" style="stop-color:#61A16E"/>
		<stop  offset="0.99" style="stop-color:#5F9D6B"/>
		<stop  offset="1" style="stop-color:#44744E"/>
	</linearGradient>
	<path fill="url(#SVGID_22_)" d="M277.969,383.761h15c0.75,0,1.254,0.352,1.254,0.84l0.246,14.16c0,0.75-0.645,1.164-1.133,1.164
		l-15.367,0.336c-0.75,0-0.773-0.73-0.773-1.219l0.023-14.531c0-0.75,0.375-0.793,0.863-0.793L277.969,383.761z"/>
	
		<linearGradient id="SVGID_23_" gradientUnits="userSpaceOnUse" x1="217.0117" y1="193.9307" x2="202.1948" y2="193.9307" gradientTransform="matrix(0.75 0 0 -0.75 128.4984 501.2384)">
		<stop  offset="0" style="stop-color:#2B2827"/>
		<stop  offset="0.15" style="stop-color:#5B5858"/>
		<stop  offset="0.25" style="stop-color:#B8B7B7"/>
		<stop  offset="0.52" style="stop-color:#353130"/>
		<stop  offset="0.69" style="stop-color:#2E2A29"/>
		<stop  offset="0.8" style="stop-color:#2B2726"/>
		<stop  offset="0.92" style="stop-color:#282424"/>
		<stop  offset="1" style="stop-color:#2F2B2B"/>
	</linearGradient>
	<path fill="url(#SVGID_23_)" d="M280.168,355.511c0-3,2.461-5.25,5.531-5.25c2.719,0,5.551,2.473,5.551,5.527
		c0.168,2.723-2.484,5.523-5.551,5.523c-3.281,0.199-5.554-2.473-5.554-5.523L280.168,355.511z"/>
	
		<linearGradient id="SVGID_24_" gradientUnits="userSpaceOnUse" x1="217.0117" y1="193.9307" x2="202.1948" y2="193.9307" gradientTransform="matrix(0.75 0 0 -0.75 128.4984 537.297)">
		<stop  offset="0" style="stop-color:#2B2827"/>
		<stop  offset="0.15" style="stop-color:#5B5858"/>
		<stop  offset="0.25" style="stop-color:#B8B7B7"/>
		<stop  offset="0.52" style="stop-color:#353130"/>
		<stop  offset="0.69" style="stop-color:#2E2A29"/>
		<stop  offset="0.8" style="stop-color:#2B2726"/>
		<stop  offset="0.92" style="stop-color:#282424"/>
		<stop  offset="1" style="stop-color:#2F2B2B"/>
	</linearGradient>
	<path fill="url(#SVGID_24_)" d="M280.168,391.57c0-3,2.461-5.25,5.531-5.25c2.719,0,5.551,2.473,5.551,5.523
		c0.168,2.727-2.484,5.527-5.551,5.527c-3.281,0.199-5.554-2.473-5.554-5.527L280.168,391.57z"/>
	
		<linearGradient id="SVGID_25_" gradientUnits="userSpaceOnUse" x1="321.2251" y1="190.8037" x2="202.2251" y2="190.8037" gradientTransform="matrix(0.75 0 0 -0.75 -46.7985 487.7697)">
		<stop  offset="0" style="stop-color:#4A7D54"/>
		<stop  offset="0.01" style="stop-color:#99C5A1"/>
		<stop  offset="0.02" style="stop-color:#63A470"/>
		<stop  offset="0.64" style="stop-color:#61A16E"/>
		<stop  offset="0.99" style="stop-color:#5F9D6B"/>
		<stop  offset="1" style="stop-color:#44744E"/>
	</linearGradient>
	<path fill="url(#SVGID_25_)" d="M104.871,336.792h89.25v15.75h-89.25V336.792z"/>
	
		<linearGradient id="SVGID_26_" gradientUnits="userSpaceOnUse" x1="215.0366" y1="194.9434" x2="202.1943" y2="194.9434" gradientTransform="matrix(0.75 0 0 -0.75 -92.8531 284.6154)">
		<stop  offset="0" style="stop-color:#2B2827"/>
		<stop  offset="0.15" style="stop-color:#5B5858"/>
		<stop  offset="0.25" style="stop-color:#B8B7B7"/>
		<stop  offset="0.52" style="stop-color:#353130"/>
		<stop  offset="0.69" style="stop-color:#2E2A29"/>
		<stop  offset="0.8" style="stop-color:#2B2726"/>
		<stop  offset="0.92" style="stop-color:#282424"/>
		<stop  offset="1" style="stop-color:#2F2B2B"/>
	</linearGradient>
	<path fill="url(#SVGID_26_)" d="M58.816,138.137c0-2.25,2.133-4.523,4.789-4.523c2.711,0.023,4.813,2.145,4.813,4.789
		c0.148,2.734-2.156,4.789-4.813,4.789c-2.539,0.195-4.813-2.141-4.813-4.789L58.816,138.137z"/>
	
		<linearGradient id="SVGID_27_" gradientUnits="userSpaceOnUse" x1="215.0366" y1="194.9395" x2="202.1943" y2="194.9395" gradientTransform="matrix(0.75 0 0 -0.75 -92.8531 339.4913)">
		<stop  offset="0" style="stop-color:#2B2827"/>
		<stop  offset="0.15" style="stop-color:#5B5858"/>
		<stop  offset="0.25" style="stop-color:#B8B7B7"/>
		<stop  offset="0.52" style="stop-color:#353130"/>
		<stop  offset="0.69" style="stop-color:#2E2A29"/>
		<stop  offset="0.8" style="stop-color:#2B2726"/>
		<stop  offset="0.92" style="stop-color:#282424"/>
		<stop  offset="1" style="stop-color:#2F2B2B"/>
	</linearGradient>
	<path fill="url(#SVGID_27_)" d="M58.816,193.012c0-2.25,2.133-4.52,4.789-4.52c2.711,0.02,4.813,2.141,4.813,4.789
		c0.148,2.73-2.156,4.789-4.813,4.789c-2.539,0.191-4.813-2.145-4.813-4.789L58.816,193.012z"/>
	
		<linearGradient id="SVGID_28_" gradientUnits="userSpaceOnUse" x1="215.0366" y1="194.9404" x2="202.1943" y2="194.9404" gradientTransform="matrix(0.75 0 0 -0.75 -92.8531 394.3673)">
		<stop  offset="0" style="stop-color:#2B2827"/>
		<stop  offset="0.15" style="stop-color:#5B5858"/>
		<stop  offset="0.25" style="stop-color:#B8B7B7"/>
		<stop  offset="0.52" style="stop-color:#353130"/>
		<stop  offset="0.69" style="stop-color:#2E2A29"/>
		<stop  offset="0.8" style="stop-color:#2B2726"/>
		<stop  offset="0.92" style="stop-color:#282424"/>
		<stop  offset="1" style="stop-color:#2F2B2B"/>
	</linearGradient>
	<path fill="url(#SVGID_28_)" d="M58.816,247.891c0-2.25,2.133-4.523,4.789-4.523c2.711,0.023,4.813,2.145,4.813,4.789
		c0.148,2.734-2.156,4.789-4.813,4.789c-2.539,0.195-4.813-2.145-4.813-4.789L58.816,247.891z"/>
	
		<linearGradient id="SVGID_29_" gradientUnits="userSpaceOnUse" x1="230.7246" y1="201.3008" x2="230.7246" y2="194.3008" gradientTransform="matrix(0.75 0 0 -0.75 -120.6525 257.7101)">
		<stop  offset="0" style="stop-color:#2B2827"/>
		<stop  offset="0.15" style="stop-color:#5B5858"/>
		<stop  offset="0.25" style="stop-color:#B8B7B7"/>
		<stop  offset="0.52" style="stop-color:#353130"/>
		<stop  offset="0.69" style="stop-color:#2E2A29"/>
		<stop  offset="0.8" style="stop-color:#2B2726"/>
		<stop  offset="0.92" style="stop-color:#282424"/>
		<stop  offset="1" style="stop-color:#2F2B2B"/>
	</linearGradient>
	<path fill="url(#SVGID_29_)" d="M73.766,111.984h-42.75v-5.25h42.75V111.984z"/>
	
		<linearGradient id="SVGID_30_" gradientUnits="userSpaceOnUse" x1="210.623" y1="201.3018" x2="210.623" y2="184.5874" gradientTransform="matrix(0.75 0 0 -0.75 -130.6476 254.1876)">
		<stop  offset="0" style="stop-color:#2B2827"/>
		<stop  offset="0.15" style="stop-color:#5B5858"/>
		<stop  offset="0.25" style="stop-color:#B8B7B7"/>
		<stop  offset="0.52" style="stop-color:#353130"/>
		<stop  offset="0.69" style="stop-color:#2E2A29"/>
		<stop  offset="0.8" style="stop-color:#2B2726"/>
		<stop  offset="0.92" style="stop-color:#282424"/>
		<stop  offset="1" style="stop-color:#2F2B2B"/>
	</linearGradient>
	<path fill="url(#SVGID_30_)" d="M21.023,109.211c0-3,2.816-6,6.293-6c3.457,0,6.293,2.801,6.293,6.262
		c0.164,3.488-2.82,6.262-6.293,6.262c-3.293,0.227-6.293-2.805-6.293-6.262V109.211z"/>
	
		<linearGradient id="SVGID_31_" gradientUnits="userSpaceOnUse" x1="289.2251" y1="139.3052" x2="202.2256" y2="139.3052" gradientTransform="matrix(0.75 0 0 -0.75 329.1307 350.7208)">
		<stop  offset="0" style="stop-color:#4A7D54"/>
		<stop  offset="0.01" style="stop-color:#99C5A1"/>
		<stop  offset="0.02" style="stop-color:#63A470"/>
		<stop  offset="0.64" style="stop-color:#61A16E"/>
		<stop  offset="0.99" style="stop-color:#5F9D6B"/>
		<stop  offset="1" style="stop-color:#44744E"/>
	</linearGradient>
	<path fill="url(#SVGID_31_)" d="M481.55,199.742l21.75,7.5l27.75,46.5l0.75,17.25l14.25,15c0,0.75,0.023,6.406-0.469,6.406
		l-64.031,0.344c0,0-0.75-0.371-0.75-0.859v-91.39c0,0,0.398-0.75,0.887-0.75H481.55z"/>
	<path fill="#609E6C" d="M191.914-0.023l239.25,34.5c0,0,22.465,2.32,29.297,22.363c6.703,25.637-11.57,35.957-11.57,35.957
		l-191.726,126.18c0,0-26.242,19.105-65.113,19.105c-0.137-0.355-45.535,1.93-83.293-34.102
		c-37.594-36.004-36.094-84.953-36.094-84.953c0,0.199-1.668-46.938,34.984-84.516c37.016-37.535,84.402-34.535,84.402-34.535
		H191.914z"/>
	
		<radialGradient id="SVGID_32_" cx="300.5737" cy="103.4292" r="138.7516" gradientTransform="matrix(0.75 0 0 -0.75 -33.4723 196.5421)" gradientUnits="userSpaceOnUse">
		<stop  offset="0" style="stop-color:#F8D300"/>
		<stop  offset="0.54" style="stop-color:#F3CF00"/>
		<stop  offset="0.74" style="stop-color:#FFE593"/>
		<stop  offset="0.91" style="stop-color:#F3CF00"/>
		<stop  offset="1" style="stop-color:#F3CF00"/>
	</radialGradient>
	<path fill="url(#SVGID_32_)" stroke="#FFDEAD" stroke-width="0.25" stroke-linejoin="bevel" stroke-miterlimit="10" d="
		M118.195,119.066c0-40.5,33.027-73.5,73.762-73.5c40.988,0,73.762,32.863,73.762,73.402c0.227,40.598-33.023,73.406-73.762,73.406
		c-40.762,0.191-73.762-32.863-73.762-73.406V119.066z"/>
	
		<linearGradient id="SVGID_33_" gradientUnits="userSpaceOnUse" x1="229.3105" y1="187.8291" x2="202.165" y2="187.8291" gradientTransform="matrix(0.75 0 0 -0.75 11.9227 214.9865)">
		<stop  offset="0" style="stop-color:#2B2827"/>
		<stop  offset="0.15" style="stop-color:#5B5858"/>
		<stop  offset="0.25" style="stop-color:#B8B7B7"/>
		<stop  offset="0.52" style="stop-color:#353130"/>
		<stop  offset="0.69" style="stop-color:#2E2A29"/>
		<stop  offset="0.8" style="stop-color:#2B2726"/>
		<stop  offset="0.92" style="stop-color:#282424"/>
		<stop  offset="1" style="stop-color:#2F2B2B"/>
	</linearGradient>
	<path fill="url(#SVGID_33_)" d="M163.59,73.758c0-5.25,4.512-9.773,10.137-9.773c5.613,0.023,10.18,4.535,10.18,10.145
		c-0.066,5.629-4.559,10.117-10.18,10.117c-5.637,0.012-10.18-4.535-10.18-10.117L163.59,73.758z"/>
	
		<linearGradient id="SVGID_34_" gradientUnits="userSpaceOnUse" x1="229.3125" y1="187.8262" x2="202.1621" y2="187.8262" gradientTransform="matrix(0.75 0 0 -0.75 59.8627 223.4601)">
		<stop  offset="0" style="stop-color:#2B2827"/>
		<stop  offset="0.15" style="stop-color:#5B5858"/>
		<stop  offset="0.25" style="stop-color:#B8B7B7"/>
		<stop  offset="0.52" style="stop-color:#353130"/>
		<stop  offset="0.69" style="stop-color:#2E2A29"/>
		<stop  offset="0.8" style="stop-color:#2B2726"/>
		<stop  offset="0.92" style="stop-color:#282424"/>
		<stop  offset="1" style="stop-color:#2F2B2B"/>
	</linearGradient>
	<path fill="url(#SVGID_34_)" d="M211.531,82.234c0-5.25,4.512-9.773,10.133-9.773c5.617,0.023,10.184,4.535,10.184,10.141
		c-0.066,5.633-4.559,10.121-10.184,10.121c-5.633,0.012-10.18-4.535-10.18-10.121L211.531,82.234z"/>
	
		<linearGradient id="SVGID_35_" gradientUnits="userSpaceOnUse" x1="229.3096" y1="187.8271" x2="202.1631" y2="187.8271" gradientTransform="matrix(0.75 0 0 -0.75 75.9125 268.7618)">
		<stop  offset="0" style="stop-color:#2B2827"/>
		<stop  offset="0.15" style="stop-color:#5B5858"/>
		<stop  offset="0.25" style="stop-color:#B8B7B7"/>
		<stop  offset="0.52" style="stop-color:#353130"/>
		<stop  offset="0.69" style="stop-color:#2E2A29"/>
		<stop  offset="0.8" style="stop-color:#2B2726"/>
		<stop  offset="0.92" style="stop-color:#282424"/>
		<stop  offset="1" style="stop-color:#2F2B2B"/>
	</linearGradient>
	<path fill="url(#SVGID_35_)" d="M227.582,127.535c0-5.25,4.512-9.773,10.133-9.773c5.617,0.023,10.18,4.535,10.18,10.141
		c-0.063,5.633-4.555,10.121-10.18,10.121c-5.633,0.012-10.18-4.535-10.18-10.121L227.582,127.535z"/>
	
		<linearGradient id="SVGID_36_" gradientUnits="userSpaceOnUse" x1="229.312" y1="187.8262" x2="202.1616" y2="187.8262" gradientTransform="matrix(0.75 0 0 -0.75 44.8514 306.34)">
		<stop  offset="0" style="stop-color:#2B2827"/>
		<stop  offset="0.15" style="stop-color:#5B5858"/>
		<stop  offset="0.25" style="stop-color:#B8B7B7"/>
		<stop  offset="0.52" style="stop-color:#353130"/>
		<stop  offset="0.69" style="stop-color:#2E2A29"/>
		<stop  offset="0.8" style="stop-color:#2B2726"/>
		<stop  offset="0.92" style="stop-color:#282424"/>
		<stop  offset="1" style="stop-color:#2F2B2B"/>
	</linearGradient>
	<path fill="url(#SVGID_36_)" d="M196.52,165.113c0-5.25,4.512-9.773,10.137-9.773c5.613,0.023,10.18,4.535,10.18,10.141
		c-0.066,5.633-4.559,10.121-10.18,10.121c-5.637,0.012-10.184-4.535-10.184-10.121L196.52,165.113z"/>
	
		<linearGradient id="SVGID_37_" gradientUnits="userSpaceOnUse" x1="229.3101" y1="187.8262" x2="202.1646" y2="187.8262" gradientTransform="matrix(0.75 0 0 -0.75 -2.1627 296.7618)">
		<stop  offset="0" style="stop-color:#2B2827"/>
		<stop  offset="0.15" style="stop-color:#5B5858"/>
		<stop  offset="0.25" style="stop-color:#B8B7B7"/>
		<stop  offset="0.52" style="stop-color:#353130"/>
		<stop  offset="0.69" style="stop-color:#2E2A29"/>
		<stop  offset="0.8" style="stop-color:#2B2726"/>
		<stop  offset="0.92" style="stop-color:#282424"/>
		<stop  offset="1" style="stop-color:#2F2B2B"/>
	</linearGradient>
	<path fill="url(#SVGID_37_)" d="M149.508,155.535c0-5.25,4.512-9.773,10.133-9.773c5.617,0.023,10.18,4.535,10.18,10.141
		c-0.063,5.633-4.559,10.121-10.18,10.121c-5.633,0.012-10.18-4.535-10.18-10.121L149.508,155.535z"/>
	
		<linearGradient id="SVGID_38_" gradientUnits="userSpaceOnUse" x1="229.3096" y1="187.8281" x2="202.1641" y2="187.8281" gradientTransform="matrix(0.75 0 0 -0.75 -19.7286 250.548)">
		<stop  offset="0" style="stop-color:#2B2827"/>
		<stop  offset="0.15" style="stop-color:#5B5858"/>
		<stop  offset="0.25" style="stop-color:#B8B7B7"/>
		<stop  offset="0.52" style="stop-color:#353130"/>
		<stop  offset="0.69" style="stop-color:#2E2A29"/>
		<stop  offset="0.8" style="stop-color:#2B2726"/>
		<stop  offset="0.92" style="stop-color:#282424"/>
		<stop  offset="1" style="stop-color:#2F2B2B"/>
	</linearGradient>
	<path fill="url(#SVGID_38_)" d="M131.941,109.32c0-5.25,4.512-9.773,10.133-9.773c5.617,0.023,10.18,4.535,10.18,10.145
		c-0.063,5.629-4.559,10.117-10.18,10.117c-5.633,0.012-10.18-4.535-10.18-10.117L131.941,109.32z"/>
	
		<linearGradient id="SVGID_39_" gradientUnits="userSpaceOnUse" x1="263.7783" y1="170.6333" x2="202.1631" y2="170.6333" gradientTransform="matrix(0.75 0 0 -0.75 17.2094 246.9454)">
		<stop  offset="0" style="stop-color:#8D582B"/>
		<stop  offset="0.15" style="stop-color:#C4865B"/>
		<stop  offset="0.25" style="stop-color:#DFC4B8"/>
		<stop  offset="0.52" style="stop-color:#A76935"/>
		<stop  offset="0.69" style="stop-color:#945D2E"/>
		<stop  offset="0.8" style="stop-color:#8C572B"/>
		<stop  offset="0.92" style="stop-color:#845228"/>
		<stop  offset="1" style="stop-color:#985F2F"/>
	</linearGradient>
	<path fill="url(#SVGID_39_)" d="M168.879,119.219c0-12.75,10.297-23.25,23.078-23.25c12.922,0,23.078,10.281,23.078,23
		c0.344,13-10.344,23.004-23.078,23.004c-12.578-0.254-23.125-10.328-23.125-23.004L168.879,119.219z"/>
	
		<linearGradient id="SVGID_40_" gradientUnits="userSpaceOnUse" x1="242.8618" y1="181.0708" x2="202.1587" y2="181.0708" gradientTransform="matrix(0.75 0 0 -0.75 25.0526 254.7501)">
		<stop  offset="0" style="stop-color:#2B2827"/>
		<stop  offset="0.15" style="stop-color:#5B5858"/>
		<stop  offset="0.25" style="stop-color:#B8B7B7"/>
		<stop  offset="0.52" style="stop-color:#353130"/>
		<stop  offset="0.69" style="stop-color:#2E2A29"/>
		<stop  offset="0.8" style="stop-color:#2B2726"/>
		<stop  offset="0.92" style="stop-color:#282424"/>
		<stop  offset="1" style="stop-color:#2F2B2B"/>
	</linearGradient>
	<path fill="url(#SVGID_40_)" d="M176.723,118.773c0-8.25,6.777-15,15.199-15c8.051,0,15.27,6.785,15.27,15.195
		c0.281,8.055-6.844,15.152-15.27,15.152c-8.449-0.348-15.25-6.797-15.25-15.152L176.723,118.773z"/>
	
		<linearGradient id="SVGID_41_" gradientUnits="userSpaceOnUse" x1="225.4785" y1="189.7754" x2="202.1816" y2="189.7754" gradientTransform="matrix(0.75 0 0 -0.75 31.5428 261.2443)">
		<stop  offset="0" style="stop-color:#BCAD9A"/>
		<stop  offset="0.15" style="stop-color:#FDEAD3"/>
		<stop  offset="0.25" style="stop-color:#FEF3E7"/>
		<stop  offset="0.52" style="stop-color:#DECCB6"/>
		<stop  offset="0.69" style="stop-color:#C5B5A2"/>
		<stop  offset="0.8" style="stop-color:#BAAB98"/>
		<stop  offset="0.92" style="stop-color:#B0A190"/>
		<stop  offset="1" style="stop-color:#CABAA5"/>
	</linearGradient>
	<path fill="url(#SVGID_41_)" d="M183.211,119.266c0-5.25,3.879-9.047,8.703-9.047c4.797,0.047,8.738,3.895,8.738,8.695
		c-0.191,4.852-3.91,8.695-8.738,8.695c-4.953-0.094-8.734-3.895-8.734-8.695L183.211,119.266z"/>
	
		<linearGradient id="SVGID_42_" gradientUnits="userSpaceOnUse" x1="432.2114" y1="217.3921" x2="300.2114" y2="217.3921" gradientTransform="matrix(-0.5303 0.5303 -0.5303 -0.5303 629.6413 166.8399)">
		<stop  offset="0" style="stop-color:#4A7D54"/>
		<stop  offset="0.01" style="stop-color:#99C5A1"/>
		<stop  offset="0.02" style="stop-color:#63A470"/>
		<stop  offset="0.64" style="stop-color:#61A16E"/>
		<stop  offset="0.99" style="stop-color:#5F9D6B"/>
		<stop  offset="1" style="stop-color:#44744E"/>
	</linearGradient>
	<path fill="url(#SVGID_42_)" d="M342.148,197.77l-70.003,70.004l25.984,25.984l70.004-70.003L342.148,197.77z"/>
	
		<linearGradient id="SVGID_43_" gradientUnits="userSpaceOnUse" x1="432.2114" y1="214.8911" x2="300.2104" y2="214.8911" gradientTransform="matrix(-0.5303 0.5303 -0.5303 -0.5303 665.1765 203.0089)">
		<stop  offset="0" style="stop-color:#4A7D54"/>
		<stop  offset="0.01" style="stop-color:#99C5A1"/>
		<stop  offset="0.02" style="stop-color:#63A470"/>
		<stop  offset="0.64" style="stop-color:#61A16E"/>
		<stop  offset="0.99" style="stop-color:#5F9D6B"/>
		<stop  offset="1" style="stop-color:#44744E"/>
	</linearGradient>
	<path fill="url(#SVGID_43_)" d="M377.683,233.938l-70.004,70.003l28.637,28.637l70.004-70L377.683,233.938z"/>
	
		<linearGradient id="SVGID_44_" gradientUnits="userSpaceOnUse" x1="337.2222" y1="117.3066" x2="202.2222" y2="117.3066" gradientTransform="matrix(0.75 0 0 -0.75 177.7225 410.588)">
		<stop  offset="0" style="stop-color:#A64B4E"/>
		<stop  offset="0.01" style="stop-color:#EF9A9C"/>
		<stop  offset="0.02" style="stop-color:#D86468"/>
		<stop  offset="0.64" style="stop-color:#D56266"/>
		<stop  offset="0.99" style="stop-color:#D06063"/>
		<stop  offset="1" style="stop-color:#9A4548"/>
	</linearGradient>
	<path fill="url(#SVGID_44_)" d="M329.39,294.109l38.25-34.5h35.25l27.75,34.5v47.25l-18.75,15.75v28.5h-72v-36l-10.5-8.25V294.109z
		"/>
	
		<linearGradient id="SVGID_45_" gradientUnits="userSpaceOnUse" x1="298.2271" y1="180.8047" x2="202.2271" y2="180.8047" gradientTransform="matrix(0.75 0 0 -0.75 188.4579 507.8478)">
		<stop  offset="0" style="stop-color:#A43944"/>
		<stop  offset="0.01" style="stop-color:#ED8E95"/>
		<stop  offset="0.02" style="stop-color:#D64D5B"/>
		<stop  offset="0.64" style="stop-color:#D24B5A"/>
		<stop  offset="0.99" style="stop-color:#CD4958"/>
		<stop  offset="1" style="stop-color:#98343F"/>
	</linearGradient>
	<path fill="url(#SVGID_45_)" d="M340.128,387.621h72v-30.75h-72V387.621z"/>
	
		<radialGradient id="SVGID_46_" cx="217.9502" cy="185.6558" r="22.2389" gradientTransform="matrix(0.75 0 0 -0.75 225.5936 366.921)" gradientUnits="userSpaceOnUse">
		<stop  offset="0" style="stop-color:#3C3736"/>
		<stop  offset="0.54" style="stop-color:#3B3635"/>
		<stop  offset="0.59" style="stop-color:#9A9999"/>
		<stop  offset="0.86" style="stop-color:#3B3635"/>
		<stop  offset="1" style="stop-color:#3B3635"/>
	</radialGradient>
	<path fill="url(#SVGID_46_)" stroke="#3E3938" stroke-width="0.25" stroke-linejoin="bevel" stroke-miterlimit="10" d="
		M377.261,227.945c0-6.75,5.266-12.031,11.793-12.031c6.207,0.031,11.824,5.27,11.824,11.766
		c-0.367,6.266-5.293,11.766-11.824,11.766c-6.543-0.25-11.82-5.266-11.82-11.766L377.261,227.945z"/>
	
		<linearGradient id="SVGID_47_" gradientUnits="userSpaceOnUse" x1="206.3604" y1="199.2456" x2="202.2246" y2="199.2456" gradientTransform="matrix(0.75 0 0 -0.75 235.8661 377.1447)">
		<stop  offset="0" style="stop-color:#BDBDBD"/>
		<stop  offset="0.15" style="stop-color:#FFFFFF"/>
		<stop  offset="0.25" style="stop-color:#FFFFFF"/>
		<stop  offset="0.52" style="stop-color:#DFDFDF"/>
		<stop  offset="0.69" style="stop-color:#C7C7C7"/>
		<stop  offset="0.8" style="stop-color:#BCBCBC"/>
		<stop  offset="0.92" style="stop-color:#B1B1B1"/>
		<stop  offset="1" style="stop-color:#CBCBCB"/>
	</linearGradient>
	<path fill="url(#SVGID_47_)" d="M387.535,227.668c0-0.75,0.695-1.5,1.551-1.5c0.699,0,1.551,0.688,1.551,1.543
		c-0.102,0.707-0.695,1.543-1.551,1.543c-0.801-0.086-1.551-0.691-1.551-1.543V227.668z"/>
	
		<radialGradient id="SVGID_48_" cx="215.3965" cy="188.1987" r="18.6249" gradientTransform="matrix(0.75 0 0 -0.75 227.5126 298.2111)" gradientUnits="userSpaceOnUse">
		<stop  offset="0" style="stop-color:#3C3736"/>
		<stop  offset="0.54" style="stop-color:#3B3635"/>
		<stop  offset="0.59" style="stop-color:#9A9999"/>
		<stop  offset="0.86" style="stop-color:#3B3635"/>
		<stop  offset="1" style="stop-color:#3B3635"/>
	</radialGradient>
	<path fill="url(#SVGID_48_)" stroke="#3E3938" stroke-width="0.25" stroke-linejoin="bevel" stroke-miterlimit="10" d="
		M379.183,156.984c0-5.25,4.406-9.777,9.875-9.777c5.125,0.027,9.906,4.414,9.906,9.855c-0.281,5.172-4.434,9.855-9.906,9.855
		c-5.375-0.184-9.902-4.41-9.902-9.855L379.183,156.984z"/>
	
		<linearGradient id="SVGID_49_" gradientUnits="userSpaceOnUse" x1="205.6865" y1="199.5815" x2="202.2227" y2="199.5815" gradientTransform="matrix(0.75 0 0 -0.75 236.1171 306.7736)">
		<stop  offset="0" style="stop-color:#BDBDBD"/>
		<stop  offset="0.15" style="stop-color:#FFFFFF"/>
		<stop  offset="0.25" style="stop-color:#FFFFFF"/>
		<stop  offset="0.52" style="stop-color:#DFDFDF"/>
		<stop  offset="0.69" style="stop-color:#C7C7C7"/>
		<stop  offset="0.8" style="stop-color:#BCBCBC"/>
		<stop  offset="0.92" style="stop-color:#B1B1B1"/>
		<stop  offset="1" style="stop-color:#CBCBCB"/>
	</linearGradient>
	<path fill="url(#SVGID_49_)" d="M387.785,157.297c0-0.75,0.582-1.5,1.301-1.5c0.949,0,1.297,0.578,1.297,1.293
		c-0.348,0.957-0.582,1.289-1.297,1.289c-0.551-0.332-1.301-0.578-1.301-1.289V157.297z"/>
	
		<radialGradient id="SVGID_50_" cx="212.9448" cy="190.6377" r="15.1583" gradientTransform="matrix(0.75 0 0 -0.75 291.4003 390.7159)" gradientUnits="userSpaceOnUse">
		<stop  offset="0" style="stop-color:#3C3736"/>
		<stop  offset="0.54" style="stop-color:#3B3635"/>
		<stop  offset="0.59" style="stop-color:#9A9999"/>
		<stop  offset="0.86" style="stop-color:#3B3635"/>
		<stop  offset="1" style="stop-color:#3B3635"/>
	</radialGradient>
	<path fill="url(#SVGID_50_)" stroke="#3E3938" stroke-width="0.25" stroke-linejoin="bevel" stroke-miterlimit="10" d="
		M443.07,247.988c0-4.5,3.586-8.27,8.039-8.27c4.711,0.02,8.059,3.59,8.059,8.02c-0.348,4.75-3.609,8.02-8.059,8.02
		c-4.289-0.27-8.059-3.59-8.059-8.02L443.07,247.988z"/>
	
		<linearGradient id="SVGID_51_" gradientUnits="userSpaceOnUse" x1="205.0693" y1="199.8867" x2="202.2248" y2="199.8867" gradientTransform="matrix(0.75 0 0 -0.75 298.4032 397.6837)">
		<stop  offset="0" style="stop-color:#BDBDBD"/>
		<stop  offset="0.15" style="stop-color:#FFFFFF"/>
		<stop  offset="0.25" style="stop-color:#FFFFFF"/>
		<stop  offset="0.52" style="stop-color:#DFDFDF"/>
		<stop  offset="0.69" style="stop-color:#C7C7C7"/>
		<stop  offset="0.8" style="stop-color:#BCBCBC"/>
		<stop  offset="0.92" style="stop-color:#B1B1B1"/>
		<stop  offset="1" style="stop-color:#CBCBCB"/>
	</linearGradient>
	<path fill="url(#SVGID_51_)" d="M450.07,247.457c0,0,0.477-0.75,1.059-0.75c0.441,0,1.059,0.469,1.059,1.051
		c0.133,0.449-0.477,1.051-1.059,1.051c-0.309,0.148-1.059-0.469-1.059-1.051V247.457z"/>
	
		<radialGradient id="SVGID_52_" cx="211.8584" cy="191.7153" r="13.6282" gradientTransform="matrix(0.75 0 0 -0.75 -31.5519 519.9308)" gradientUnits="userSpaceOnUse">
		<stop  offset="0" style="stop-color:#3C3736"/>
		<stop  offset="0.54" style="stop-color:#3B3635"/>
		<stop  offset="0.59" style="stop-color:#9A9999"/>
		<stop  offset="0.86" style="stop-color:#3B3635"/>
		<stop  offset="1" style="stop-color:#3B3635"/>
	</radialGradient>
	<path fill="url(#SVGID_52_)" stroke="#3E3938" stroke-width="0.25" stroke-linejoin="bevel" stroke-miterlimit="10" d="
		M120.117,376.453c0-4.5,3.227-7.52,7.227-7.52c4.023,0.02,7.242,3.23,7.242,7.211c-0.219,4.059-3.242,7.211-7.242,7.211
		c-4.227-0.152-7.246-3.23-7.246-7.211L120.117,376.453z"/>
	
		<linearGradient id="SVGID_53_" gradientUnits="userSpaceOnUse" x1="204.8755" y1="199.9805" x2="202.2236" y2="199.9805" gradientTransform="matrix(0.75 0 0 -0.75 -25.2579 526.1945)">
		<stop  offset="0" style="stop-color:#BDBDBD"/>
		<stop  offset="0.15" style="stop-color:#FFFFFF"/>
		<stop  offset="0.25" style="stop-color:#FFFFFF"/>
		<stop  offset="0.52" style="stop-color:#DFDFDF"/>
		<stop  offset="0.69" style="stop-color:#C7C7C7"/>
		<stop  offset="0.8" style="stop-color:#BCBCBC"/>
		<stop  offset="0.92" style="stop-color:#B1B1B1"/>
		<stop  offset="1" style="stop-color:#CBCBCB"/>
	</linearGradient>
	<path fill="url(#SVGID_53_)" d="M126.41,375.968c0,0,0.426-0.75,0.949-0.75c0.551,0,0.953,0.422,0.953,0.945
		c0.348,0.555-0.426,0.945-0.953,0.945c-0.199,0.359-0.949-0.426-0.949-0.945V375.968z"/>
	
		<radialGradient id="SVGID_54_" cx="211.8618" cy="191.7153" r="13.6257" gradientTransform="matrix(0.75 0 0 -0.75 83.2777 519.9308)" gradientUnits="userSpaceOnUse">
		<stop  offset="0" style="stop-color:#3C3736"/>
		<stop  offset="0.54" style="stop-color:#3B3635"/>
		<stop  offset="0.59" style="stop-color:#9A9999"/>
		<stop  offset="0.86" style="stop-color:#3B3635"/>
		<stop  offset="1" style="stop-color:#3B3635"/>
	</radialGradient>
	<path fill="url(#SVGID_54_)" stroke="#3E3938" stroke-width="0.25" stroke-linejoin="bevel" stroke-miterlimit="10" d="
		M234.945,376.453c0-4.5,3.227-7.52,7.227-7.52c4.023,0.02,7.246,3.23,7.246,7.211c-0.223,4.059-3.246,7.211-7.246,7.211
		c-4.227-0.152-7.242-3.23-7.242-7.211L234.945,376.453z"/>
	
		<linearGradient id="SVGID_55_" gradientUnits="userSpaceOnUse" x1="204.876" y1="199.9805" x2="202.2271" y2="199.9805" gradientTransform="matrix(0.75 0 0 -0.75 89.5717 526.1945)">
		<stop  offset="0" style="stop-color:#BDBDBD"/>
		<stop  offset="0.15" style="stop-color:#FFFFFF"/>
		<stop  offset="0.25" style="stop-color:#FFFFFF"/>
		<stop  offset="0.52" style="stop-color:#DFDFDF"/>
		<stop  offset="0.69" style="stop-color:#C7C7C7"/>
		<stop  offset="0.8" style="stop-color:#BCBCBC"/>
		<stop  offset="0.92" style="stop-color:#B1B1B1"/>
		<stop  offset="1" style="stop-color:#CBCBCB"/>
	</linearGradient>
	<path fill="url(#SVGID_55_)" d="M241.242,375.968c0,0,0.426-0.75,0.949-0.75c0.551,0,0.949,0.422,0.949,0.945
		c0.352,0.555-0.426,0.945-0.949,0.945c-0.199,0.359-0.949-0.426-0.949-0.945V375.968z"/>
	
		<radialGradient id="SVGID_56_" cx="217.9517" cy="185.6533" r="22.2396" gradientTransform="matrix(0.75 0 0 -0.75 78.6986 380.9142)" gradientUnits="userSpaceOnUse">
		<stop  offset="0" style="stop-color:#3C3736"/>
		<stop  offset="0.54" style="stop-color:#3B3635"/>
		<stop  offset="0.59" style="stop-color:#9A9999"/>
		<stop  offset="0.86" style="stop-color:#3B3635"/>
		<stop  offset="1" style="stop-color:#3B3635"/>
	</radialGradient>
	<path fill="url(#SVGID_56_)" stroke="#3E3938" stroke-width="0.25" stroke-linejoin="bevel" stroke-miterlimit="10" d="
		M230.367,241.938c0-6.75,5.266-12.031,11.793-12.031c6.207,0.031,11.824,5.27,11.824,11.766c-0.367,6.266-5.293,11.77-11.824,11.77
		c-6.543-0.254-11.82-5.27-11.82-11.77L230.367,241.938z"/>
	
		<linearGradient id="SVGID_57_" gradientUnits="userSpaceOnUse" x1="206.3608" y1="199.2456" x2="202.2261" y2="199.2456" gradientTransform="matrix(0.75 0 0 -0.75 88.9711 391.1368)">
		<stop  offset="0" style="stop-color:#BDBDBD"/>
		<stop  offset="0.15" style="stop-color:#FFFFFF"/>
		<stop  offset="0.25" style="stop-color:#FFFFFF"/>
		<stop  offset="0.52" style="stop-color:#DFDFDF"/>
		<stop  offset="0.69" style="stop-color:#C7C7C7"/>
		<stop  offset="0.8" style="stop-color:#BCBCBC"/>
		<stop  offset="0.92" style="stop-color:#B1B1B1"/>
		<stop  offset="1" style="stop-color:#CBCBCB"/>
	</linearGradient>
	<path fill="url(#SVGID_57_)" d="M240.641,241.66c0-0.75,0.695-1.5,1.551-1.5c0.699,0,1.551,0.691,1.551,1.543
		c-0.102,0.707-0.695,1.543-1.551,1.543c-0.801-0.086-1.551-0.691-1.551-1.543V241.66z"/>
	
		<radialGradient id="SVGID_58_" cx="212.9453" cy="190.6392" r="15.1577" gradientTransform="matrix(0.75 0 0 -0.75 252.2167 563.6544)" gradientUnits="userSpaceOnUse">
		<stop  offset="0" style="stop-color:#3C3736"/>
		<stop  offset="0.54" style="stop-color:#3B3635"/>
		<stop  offset="0.59" style="stop-color:#9A9999"/>
		<stop  offset="0.86" style="stop-color:#3B3635"/>
		<stop  offset="1" style="stop-color:#3B3635"/>
	</radialGradient>
	<path fill="url(#SVGID_58_)" stroke="#3E3938" stroke-width="0.25" stroke-linejoin="bevel" stroke-miterlimit="10" d="
		M403.886,420.925c0-4.5,3.586-8.27,8.039-8.27c4.711,0.02,8.059,3.59,8.059,8.02c-0.348,4.75-3.609,8.02-8.059,8.02
		c-4.289-0.27-8.059-3.59-8.059-8.02L403.886,420.925z"/>
	
		<linearGradient id="SVGID_59_" gradientUnits="userSpaceOnUse" x1="205.0669" y1="199.8877" x2="202.2236" y2="199.8877" gradientTransform="matrix(0.75 0 0 -0.75 259.2186 570.6222)">
		<stop  offset="0" style="stop-color:#BDBDBD"/>
		<stop  offset="0.15" style="stop-color:#FFFFFF"/>
		<stop  offset="0.25" style="stop-color:#FFFFFF"/>
		<stop  offset="0.52" style="stop-color:#DFDFDF"/>
		<stop  offset="0.69" style="stop-color:#C7C7C7"/>
		<stop  offset="0.8" style="stop-color:#BCBCBC"/>
		<stop  offset="0.92" style="stop-color:#B1B1B1"/>
		<stop  offset="1" style="stop-color:#CBCBCB"/>
	</linearGradient>
	<path fill="url(#SVGID_59_)" d="M410.886,420.394c0,0,0.473-0.75,1.059-0.75c0.441,0,1.055,0.473,1.055,1.051
		c0.137,0.449-0.473,1.055-1.055,1.055c-0.309,0.145-1.059-0.473-1.059-1.055V420.394z"/>
	
		<radialGradient id="SVGID_60_" cx="212.9438" cy="190.6392" r="15.1587" gradientTransform="matrix(0.75 0 0 -0.75 302.1923 563.6544)" gradientUnits="userSpaceOnUse">
		<stop  offset="0" style="stop-color:#3C3736"/>
		<stop  offset="0.54" style="stop-color:#3B3635"/>
		<stop  offset="0.59" style="stop-color:#9A9999"/>
		<stop  offset="0.86" style="stop-color:#3B3635"/>
		<stop  offset="1" style="stop-color:#3B3635"/>
	</radialGradient>
	<path fill="url(#SVGID_60_)" stroke="#3E3938" stroke-width="0.25" stroke-linejoin="bevel" stroke-miterlimit="10" d="
		M453.859,420.925c0-4.5,3.59-8.27,8.039-8.27c4.711,0.02,8.063,3.59,8.063,8.02c-0.352,4.75-3.609,8.02-8.063,8.02
		c-4.289-0.27-8.059-3.59-8.059-8.02L453.859,420.925z"/>
	
		<linearGradient id="SVGID_61_" gradientUnits="userSpaceOnUse" x1="205.0684" y1="199.8877" x2="202.2241" y2="199.8877" gradientTransform="matrix(0.75 0 0 -0.75 309.1942 570.6222)">
		<stop  offset="0" style="stop-color:#BDBDBD"/>
		<stop  offset="0.15" style="stop-color:#FFFFFF"/>
		<stop  offset="0.25" style="stop-color:#FFFFFF"/>
		<stop  offset="0.52" style="stop-color:#DFDFDF"/>
		<stop  offset="0.69" style="stop-color:#C7C7C7"/>
		<stop  offset="0.8" style="stop-color:#BCBCBC"/>
		<stop  offset="0.92" style="stop-color:#B1B1B1"/>
		<stop  offset="1" style="stop-color:#CBCBCB"/>
	</linearGradient>
	<path fill="url(#SVGID_61_)" d="M460.863,420.394c0,0,0.473-0.75,1.055-0.75c0.445,0,1.059,0.473,1.059,1.051
		c0.137,0.449-0.473,1.055-1.059,1.055c-0.305,0.145-1.055-0.473-1.055-1.055V420.394z"/>
	<path fill="#FFFFFF" fill-opacity="0.3647" d="M83.215,245.809c0-6,5.219-11.25,11.66-11.25c6.34,0,11.66,5.195,11.66,11.605
		c-0.07,6.395-5.219,11.605-11.66,11.605c-6.41,0.039-11.66-5.195-11.66-11.605V245.809z"/>
	<path fill="#FFFFFF" fill-opacity="0.3647" d="M114.219,245.809c0-6,5.219-11.25,11.66-11.25c6.34,0,11.66,5.195,11.66,11.605
		c-0.07,6.395-5.219,11.605-11.66,11.605c-6.41,0.039-11.66-5.195-11.66-11.605V245.809z"/>
	<path fill="#FFFFFF" fill-opacity="0.3647" d="M145.219,245.809c0-6,5.223-11.25,11.664-11.25c6.336,0,11.66,5.195,11.66,11.605
		c-0.074,6.395-5.223,11.605-11.66,11.605c-6.414,0.039-11.664-5.195-11.664-11.605V245.809z"/>
</g>
</svg>
