<?xml version="1.0" encoding="utf-8"?>
<!-- Generator: Adobe Illustrator 16.0.0, SVG Export Plug-In . SVG Version: 6.00 Build 0)  -->
<!DOCTYPE svg PUBLIC "-//W3C//DTD SVG 1.1//EN" "http://www.w3.org/Graphics/SVG/1.1/DTD/svg11.dtd">
<svg preserveAspectRatio="none" version="1.1" id="图层_1" xmlns="http://www.w3.org/2000/svg" xmlns:xlink="http://www.w3.org/1999/xlink" x="0px" y="0px"
	 width="564px" height="455.937px" viewBox="1.594 111.102 564 455.937" enable-background="new 1.594 111.102 564 455.937"
	 xml:space="preserve">
<g id="surface891">
	
		<linearGradient id="SVGID_1_" gradientUnits="userSpaceOnUse" x1="332.2231" y1="167.3066" x2="202.2236" y2="167.3066" gradientTransform="matrix(0.75 0 0 -0.75 149.2333 262.0812)">
		<stop  offset="0" style="stop-color:#909899"/>
		<stop  offset="0.01" style="stop-color:#D7E0E1"/>
		<stop  offset="0.02" style="stop-color:#BCC6C8"/>
		<stop  offset="0.64" style="stop-color:#B9C3C4"/>
		<stop  offset="0.99" style="stop-color:#B4BEC0"/>
		<stop  offset="1" style="stop-color:#858D8E"/>
	</linearGradient>
	<path fill="url(#SVGID_1_)" d="M300.902,111.102h97.5v51h-97.5V111.102z"/>
	
		<linearGradient id="SVGID_2_" gradientUnits="userSpaceOnUse" x1="954.2251" y1="167.3071" x2="202.2261" y2="167.3071" gradientTransform="matrix(0.75 0 0 -0.75 -150.0763 667.0187)">
		<stop  offset="0" style="stop-color:#909899"/>
		<stop  offset="0.01" style="stop-color:#D7E0E1"/>
		<stop  offset="0.02" style="stop-color:#BCC6C8"/>
		<stop  offset="0.64" style="stop-color:#B9C3C4"/>
		<stop  offset="0.99" style="stop-color:#B4BEC0"/>
		<stop  offset="1" style="stop-color:#858D8E"/>
	</linearGradient>
	<path fill="url(#SVGID_2_)" d="M1.594,516.039h564v51h-564V516.039z"/>
	
		<linearGradient id="SVGID_3_" gradientUnits="userSpaceOnUse" x1="954.2251" y1="167.3052" x2="202.2261" y2="167.3051" gradientTransform="matrix(0.75 0 0 -0.75 -150.0763 616.4806)">
		<stop  offset="0" style="stop-color:#909899"/>
		<stop  offset="0.01" style="stop-color:#D7E0E1"/>
		<stop  offset="0.02" style="stop-color:#BCC6C8"/>
		<stop  offset="0.64" style="stop-color:#B9C3C4"/>
		<stop  offset="0.99" style="stop-color:#B4BEC0"/>
		<stop  offset="1" style="stop-color:#858D8E"/>
	</linearGradient>
	<path fill="url(#SVGID_3_)" d="M1.594,465.503h564v51h-564V465.503z"/>
	
		<linearGradient id="SVGID_4_" gradientUnits="userSpaceOnUse" x1="954.2251" y1="-11.6924" x2="202.2261" y2="-11.6924" gradientTransform="matrix(0.75 0 0 -0.75 -150.0763 298.3156)">
		<stop  offset="0" style="stop-color:#B5B5B5"/>
		<stop  offset="0.01" style="stop-color:#FFFFFF"/>
		<stop  offset="0.02" style="stop-color:#EBEBEB"/>
		<stop  offset="0.64" style="stop-color:#E7E7E7"/>
		<stop  offset="0.99" style="stop-color:#E2E2E2"/>
		<stop  offset="1" style="stop-color:#A8A8A8"/>
	</linearGradient>
	<path fill="url(#SVGID_4_)" d="M1.594,147.336h140.25v15.75h282.75v-15.75h141v319.5h-564V147.336z"/>
	
		<linearGradient id="SVGID_5_" gradientUnits="userSpaceOnUse" x1="391.2231" y1="28.3062" x2="202.2241" y2="28.3061" gradientTransform="matrix(0.75 0 0 -0.75 131.6674 313.8107)">
		<stop  offset="0" style="stop-color:#909899"/>
		<stop  offset="0.01" style="stop-color:#D7E0E1"/>
		<stop  offset="0.02" style="stop-color:#BCC6C8"/>
		<stop  offset="0.64" style="stop-color:#B9C3C4"/>
		<stop  offset="0.99" style="stop-color:#B4BEC0"/>
		<stop  offset="1" style="stop-color:#858D8E"/>
	</linearGradient>
	<path fill="url(#SVGID_5_)" d="M283.336,162.832h141.75v259.5h-141.75V162.832z"/>
	
		<linearGradient id="SVGID_6_" gradientUnits="userSpaceOnUse" x1="390.2271" y1="28.8062" x2="202.2271" y2="28.8061" gradientTransform="matrix(0.75 0 0 -0.75 -9.507 313.8107)">
		<stop  offset="0" style="stop-color:#909899"/>
		<stop  offset="0.01" style="stop-color:#D7E0E1"/>
		<stop  offset="0.02" style="stop-color:#BCC6C8"/>
		<stop  offset="0.64" style="stop-color:#B9C3C4"/>
		<stop  offset="0.99" style="stop-color:#B4BEC0"/>
		<stop  offset="1" style="stop-color:#858D8E"/>
	</linearGradient>
	<path fill="url(#SVGID_6_)" d="M142.164,162.832h141v258.75h-141V162.832z"/>
	<path fill="#FFFFFF" fill-opacity="0.251" d="M167.746,211.344h83.25c0.75,0,1.883,0.855,1.883,1.906l0.367,158.593
		c0,0.75-1.262,1.602-2.309,1.602l-83.191-0.102c-1.5,0-2.25-0.75-2.25-1.805V213.594c0-1.5,0.836-2.25,1.887-2.25H167.746z"/>
	<path fill="#FFFFFF" fill-opacity="0.251" d="M316.171,211.344h83.25c0.75,0,1.883,0.855,1.883,1.906l0.367,158.593
		c0,0.75-1.262,1.602-2.313,1.602l-83.188-0.102c-1.5,0-2.25-0.75-2.25-1.805V213.594c0-1.5,0.832-2.25,1.883-2.25H316.171z"/>
	
		<linearGradient id="SVGID_7_" gradientUnits="userSpaceOnUse" x1="212.2764" y1="122.3042" x2="202.1465" y2="122.3042" gradientTransform="matrix(0.75 0 0 -0.75 112.7377 384.2618)">
		<stop  offset="0" style="stop-color:#BDBDBD"/>
		<stop  offset="0.15" style="stop-color:#FFFFFF"/>
		<stop  offset="0.25" style="stop-color:#FFFFFF"/>
		<stop  offset="0.52" style="stop-color:#DFDFDF"/>
		<stop  offset="0.69" style="stop-color:#C7C7C7"/>
		<stop  offset="0.8" style="stop-color:#BCBCBC"/>
		<stop  offset="0.92" style="stop-color:#B1B1B1"/>
		<stop  offset="1" style="stop-color:#CBCBCB"/>
	</linearGradient>
	<path fill="url(#SVGID_7_)" d="M265.906,233.285h4.5c0.75,0,1.539,0.836,1.539,1.891l-0.039,114.359
		c0,0.75-0.813,1.973-1.863,1.973l-4.137,0.277c-0.75,0-1.559-1.133-1.559-2.184l0.059-114.066c0-1.5,0.793-2.25,1.84-2.25H265.906z
		"/>
	
		<linearGradient id="SVGID_8_" gradientUnits="userSpaceOnUse" x1="212.2715" y1="122.3042" x2="202.1465" y2="122.3042" gradientTransform="matrix(0.75 0 0 -0.75 142.4091 384.2618)">
		<stop  offset="0" style="stop-color:#BDBDBD"/>
		<stop  offset="0.15" style="stop-color:#FFFFFF"/>
		<stop  offset="0.25" style="stop-color:#FFFFFF"/>
		<stop  offset="0.52" style="stop-color:#DFDFDF"/>
		<stop  offset="0.69" style="stop-color:#C7C7C7"/>
		<stop  offset="0.8" style="stop-color:#BCBCBC"/>
		<stop  offset="0.92" style="stop-color:#B1B1B1"/>
		<stop  offset="1" style="stop-color:#CBCBCB"/>
	</linearGradient>
	<path fill="url(#SVGID_8_)" d="M295.578,233.285h4.5c0.75,0,1.535,0.836,1.535,1.891l-0.035,114.359
		c0,0.75-0.813,1.973-1.863,1.973l-4.137,0.277c-0.75,0-1.559-1.133-1.559-2.184l0.059-114.066c0-1.5,0.789-2.25,1.84-2.25H295.578z
		"/>
	
		<linearGradient id="SVGID_9_" gradientUnits="userSpaceOnUse" x1="579.2251" y1="193.8071" x2="202.2251" y2="193.8071" gradientTransform="matrix(0.75 0 0 -0.75 -9.5289 572.9357)">
		<stop  offset="0" style="stop-color:#A8A8A8"/>
		<stop  offset="0.01" style="stop-color:#F2F2F2"/>
		<stop  offset="0.02" style="stop-color:#DBDBDB"/>
		<stop  offset="0.64" style="stop-color:#D8D8D8"/>
		<stop  offset="0.99" style="stop-color:#D3D3D3"/>
		<stop  offset="1" style="stop-color:#9C9C9C"/>
	</linearGradient>
	<path fill="url(#SVGID_9_)" d="M142.141,421.957h282.75v11.25h-282.75V421.957z"/>
	
		<linearGradient id="SVGID_10_" gradientUnits="userSpaceOnUse" x1="360.2241" y1="175.3057" x2="202.2241" y2="175.3056" gradientTransform="matrix(0.75 0 0 -0.75 285.2489 512.8615)">
		<stop  offset="0" style="stop-color:#A8A8A8"/>
		<stop  offset="0.01" style="stop-color:#F2F2F2"/>
		<stop  offset="0.02" style="stop-color:#DBDBDB"/>
		<stop  offset="0.64" style="stop-color:#D8D8D8"/>
		<stop  offset="0.99" style="stop-color:#D3D3D3"/>
		<stop  offset="1" style="stop-color:#9C9C9C"/>
	</linearGradient>
	<path fill="url(#SVGID_10_)" d="M436.917,361.882h118.5v39h-118.5V361.882z"/>
	
		<linearGradient id="SVGID_11_" gradientUnits="userSpaceOnUse" x1="332.2241" y1="175.8037" x2="202.2241" y2="175.8037" gradientTransform="matrix(0.75 0 0 -0.75 28.351 275.4308)">
		<stop  offset="0" style="stop-color:#B5B5B5"/>
		<stop  offset="0.01" style="stop-color:#FFFFFF"/>
		<stop  offset="0.02" style="stop-color:#EBEBEB"/>
		<stop  offset="0.64" style="stop-color:#E7E7E7"/>
		<stop  offset="0.99" style="stop-color:#E2E2E2"/>
		<stop  offset="1" style="stop-color:#A8A8A8"/>
	</linearGradient>
	<path fill="url(#SVGID_11_)" d="M180.02,124.453h97.5v38.25h-97.5V124.453z"/>
	
		<linearGradient id="SVGID_12_" gradientUnits="userSpaceOnUse" x1="360.2241" y1="90.8052" x2="202.2241" y2="90.8052" gradientTransform="matrix(0.75 0 0 -0.75 285.2489 346.9474)">
		<stop  offset="0" style="stop-color:#909899"/>
		<stop  offset="0.01" style="stop-color:#D7E0E1"/>
		<stop  offset="0.02" style="stop-color:#BCC6C8"/>
		<stop  offset="0.64" style="stop-color:#B9C3C4"/>
		<stop  offset="0.99" style="stop-color:#B4BEC0"/>
		<stop  offset="1" style="stop-color:#858D8E"/>
	</linearGradient>
	<path fill="url(#SVGID_12_)" d="M436.917,195.969h118.5v165.75h-118.5V195.969z"/>
	
		<linearGradient id="SVGID_13_" gradientUnits="userSpaceOnUse" x1="337.2251" y1="129.3042" x2="202.2251" y2="129.3042" gradientTransform="matrix(0.75 0 0 -0.75 293.8534 357.5548)">
		<stop  offset="0" style="stop-color:#B5B5B5"/>
		<stop  offset="0.01" style="stop-color:#FFFFFF"/>
		<stop  offset="0.02" style="stop-color:#EBEBEB"/>
		<stop  offset="0.64" style="stop-color:#E7E7E7"/>
		<stop  offset="0.99" style="stop-color:#E2E2E2"/>
		<stop  offset="1" style="stop-color:#A8A8A8"/>
	</linearGradient>
	<path fill="url(#SVGID_13_)" d="M445.523,206.578h101.25v108h-101.25V206.578z"/>
	<path fill="#3E3938" d="M458.359,215.199h49.5v33h-49.5V215.199z"/>
	
		<linearGradient id="SVGID_14_" gradientUnits="userSpaceOnUse" x1="216.061" y1="199.2935" x2="201.0264" y2="190.6132" gradientTransform="matrix(0.75 0 0 -0.75 302.3466 414.0519)">
		<stop  offset="0" style="stop-color:#BC8823"/>
		<stop  offset="0.15" style="stop-color:#FDBE55"/>
		<stop  offset="0.25" style="stop-color:#FEDCB6"/>
		<stop  offset="0.52" style="stop-color:#DEA22B"/>
		<stop  offset="0.69" style="stop-color:#C58F25"/>
		<stop  offset="0.8" style="stop-color:#BA8723"/>
		<stop  offset="0.92" style="stop-color:#B07F20"/>
		<stop  offset="1" style="stop-color:#CA9327"/>
	</linearGradient>
	<path fill="url(#SVGID_14_)" d="M454.015,267.574c0-2.25,2.09-4.539,4.715-4.539c2.785,0.039,4.746,2.133,4.746,4.766
		c0.289,2.773-2.125,4.77-4.746,4.77c-2.465,0.254-4.75-2.137-4.75-4.77L454.015,267.574z"/>
	
		<linearGradient id="SVGID_15_" gradientUnits="userSpaceOnUse" x1="216.061" y1="199.2935" x2="201.0264" y2="190.6132" gradientTransform="matrix(0.75 0 0 -0.75 321.0907 414.0519)">
		<stop  offset="0" style="stop-color:#BC8823"/>
		<stop  offset="0.15" style="stop-color:#FDBE55"/>
		<stop  offset="0.25" style="stop-color:#FEDCB6"/>
		<stop  offset="0.52" style="stop-color:#DEA22B"/>
		<stop  offset="0.69" style="stop-color:#C58F25"/>
		<stop  offset="0.8" style="stop-color:#BA8723"/>
		<stop  offset="0.92" style="stop-color:#B07F20"/>
		<stop  offset="1" style="stop-color:#CA9327"/>
	</linearGradient>
	<path fill="url(#SVGID_15_)" d="M472.761,267.574c0-2.25,2.09-4.539,4.711-4.539c2.789,0.039,4.746,2.133,4.746,4.766
		c0.293,2.773-2.125,4.77-4.746,4.77c-2.461,0.254-4.746-2.137-4.746-4.77L472.761,267.574z"/>
	
		<linearGradient id="SVGID_16_" gradientUnits="userSpaceOnUse" x1="216.062" y1="199.2939" x2="201.0262" y2="190.6131" gradientTransform="matrix(0.75 0 0 -0.75 339.8446 414.0519)">
		<stop  offset="0" style="stop-color:#BC8823"/>
		<stop  offset="0.15" style="stop-color:#FDBE55"/>
		<stop  offset="0.25" style="stop-color:#FEDCB6"/>
		<stop  offset="0.52" style="stop-color:#DEA22B"/>
		<stop  offset="0.69" style="stop-color:#C58F25"/>
		<stop  offset="0.8" style="stop-color:#BA8723"/>
		<stop  offset="0.92" style="stop-color:#B07F20"/>
		<stop  offset="1" style="stop-color:#CA9327"/>
	</linearGradient>
	<path fill="url(#SVGID_16_)" d="M491.511,267.574c0-2.25,2.094-4.539,4.715-4.539c2.785,0.039,4.746,2.133,4.746,4.766
		c0.289,2.773-2.125,4.77-4.746,4.77c-2.465,0.254-4.746-2.137-4.746-4.77L491.511,267.574z"/>
	
		<linearGradient id="SVGID_17_" gradientUnits="userSpaceOnUse" x1="216.0625" y1="199.293" x2="201.0256" y2="190.6114" gradientTransform="matrix(0.75 0 0 -0.75 358.578 414.0519)">
		<stop  offset="0" style="stop-color:#BC8823"/>
		<stop  offset="0.15" style="stop-color:#FDBE55"/>
		<stop  offset="0.25" style="stop-color:#FEDCB6"/>
		<stop  offset="0.52" style="stop-color:#DEA22B"/>
		<stop  offset="0.69" style="stop-color:#C58F25"/>
		<stop  offset="0.8" style="stop-color:#BA8723"/>
		<stop  offset="0.92" style="stop-color:#B07F20"/>
		<stop  offset="1" style="stop-color:#CA9327"/>
	</linearGradient>
	<path fill="url(#SVGID_17_)" d="M510.246,267.574c0-2.25,2.094-4.539,4.715-4.539c2.785,0.039,4.746,2.133,4.746,4.766
		c0.289,2.773-2.125,4.77-4.746,4.77c-2.465,0.254-4.75-2.137-4.75-4.77L510.246,267.574z"/>
	
		<linearGradient id="SVGID_18_" gradientUnits="userSpaceOnUse" x1="216.061" y1="199.2925" x2="201.0264" y2="190.6122" gradientTransform="matrix(0.75 0 0 -0.75 377.3221 414.0519)">
		<stop  offset="0" style="stop-color:#BC8823"/>
		<stop  offset="0.15" style="stop-color:#FDBE55"/>
		<stop  offset="0.25" style="stop-color:#FEDCB6"/>
		<stop  offset="0.52" style="stop-color:#DEA22B"/>
		<stop  offset="0.69" style="stop-color:#C58F25"/>
		<stop  offset="0.8" style="stop-color:#BA8723"/>
		<stop  offset="0.92" style="stop-color:#B07F20"/>
		<stop  offset="1" style="stop-color:#CA9327"/>
	</linearGradient>
	<path fill="url(#SVGID_18_)" d="M528.992,267.574c0-2.25,2.09-4.539,4.711-4.539c2.789,0.039,4.75,2.133,4.75,4.766
		c0.289,2.773-2.129,4.77-4.75,4.77c-2.461,0.254-4.746-2.137-4.746-4.77L528.992,267.574z"/>
	
		<linearGradient id="SVGID_19_" gradientUnits="userSpaceOnUse" x1="216.0586" y1="199.2954" x2="201.0263" y2="190.6165" gradientTransform="matrix(0.75 0 0 -0.75 302.3466 431.2755)">
		<stop  offset="0" style="stop-color:#398C8E"/>
		<stop  offset="0.15" style="stop-color:#67C3C5"/>
		<stop  offset="0.25" style="stop-color:#BBDEE0"/>
		<stop  offset="0.52" style="stop-color:#45A6A9"/>
		<stop  offset="0.69" style="stop-color:#3C9396"/>
		<stop  offset="0.8" style="stop-color:#388B8D"/>
		<stop  offset="0.92" style="stop-color:#358385"/>
		<stop  offset="1" style="stop-color:#3E9799"/>
	</linearGradient>
	<path fill="url(#SVGID_19_)" d="M454.015,284.796c0-2.25,2.09-4.539,4.715-4.539c2.785,0.039,4.746,2.133,4.746,4.765
		c0.289,2.773-2.125,4.77-4.746,4.77c-2.465,0.254-4.75-2.133-4.75-4.77L454.015,284.796z"/>
	
		<linearGradient id="SVGID_20_" gradientUnits="userSpaceOnUse" x1="216.0596" y1="199.2954" x2="201.025" y2="190.6152" gradientTransform="matrix(0.75 0 0 -0.75 321.0907 431.2755)">
		<stop  offset="0" style="stop-color:#398C8E"/>
		<stop  offset="0.15" style="stop-color:#67C3C5"/>
		<stop  offset="0.25" style="stop-color:#BBDEE0"/>
		<stop  offset="0.52" style="stop-color:#45A6A9"/>
		<stop  offset="0.69" style="stop-color:#3C9396"/>
		<stop  offset="0.8" style="stop-color:#388B8D"/>
		<stop  offset="0.92" style="stop-color:#358385"/>
		<stop  offset="1" style="stop-color:#3E9799"/>
	</linearGradient>
	<path fill="url(#SVGID_20_)" d="M472.761,284.796c0-2.25,2.09-4.539,4.711-4.539c2.789,0.039,4.746,2.133,4.746,4.765
		c0.293,2.773-2.125,4.77-4.746,4.77c-2.461,0.254-4.746-2.133-4.746-4.77L472.761,284.796z"/>
	
		<linearGradient id="SVGID_21_" gradientUnits="userSpaceOnUse" x1="216.0605" y1="199.2964" x2="201.0248" y2="190.6155" gradientTransform="matrix(0.75 0 0 -0.75 339.8446 431.2755)">
		<stop  offset="0" style="stop-color:#398C8E"/>
		<stop  offset="0.15" style="stop-color:#67C3C5"/>
		<stop  offset="0.25" style="stop-color:#BBDEE0"/>
		<stop  offset="0.52" style="stop-color:#45A6A9"/>
		<stop  offset="0.69" style="stop-color:#3C9396"/>
		<stop  offset="0.8" style="stop-color:#388B8D"/>
		<stop  offset="0.92" style="stop-color:#358385"/>
		<stop  offset="1" style="stop-color:#3E9799"/>
	</linearGradient>
	<path fill="url(#SVGID_21_)" d="M491.511,284.796c0-2.25,2.094-4.539,4.715-4.539c2.785,0.039,4.746,2.133,4.746,4.765
		c0.289,2.773-2.125,4.77-4.746,4.77c-2.465,0.254-4.746-2.133-4.746-4.77L491.511,284.796z"/>
	
		<linearGradient id="SVGID_22_" gradientUnits="userSpaceOnUse" x1="216.061" y1="199.2944" x2="201.0264" y2="190.6142" gradientTransform="matrix(0.75 0 0 -0.75 358.578 431.2755)">
		<stop  offset="0" style="stop-color:#398C8E"/>
		<stop  offset="0.15" style="stop-color:#67C3C5"/>
		<stop  offset="0.25" style="stop-color:#BBDEE0"/>
		<stop  offset="0.52" style="stop-color:#45A6A9"/>
		<stop  offset="0.69" style="stop-color:#3C9396"/>
		<stop  offset="0.8" style="stop-color:#388B8D"/>
		<stop  offset="0.92" style="stop-color:#358385"/>
		<stop  offset="1" style="stop-color:#3E9799"/>
	</linearGradient>
	<path fill="url(#SVGID_22_)" d="M510.246,284.796c0-2.25,2.094-4.539,4.715-4.539c2.785,0.039,4.746,2.133,4.746,4.765
		c0.289,2.773-2.125,4.77-4.746,4.77c-2.465,0.254-4.75-2.133-4.75-4.77L510.246,284.796z"/>
	
		<linearGradient id="SVGID_23_" gradientUnits="userSpaceOnUse" x1="216.061" y1="199.2954" x2="201.0241" y2="190.6138" gradientTransform="matrix(0.75 0 0 -0.75 377.3221 431.2755)">
		<stop  offset="0" style="stop-color:#398C8E"/>
		<stop  offset="0.15" style="stop-color:#67C3C5"/>
		<stop  offset="0.25" style="stop-color:#BBDEE0"/>
		<stop  offset="0.52" style="stop-color:#45A6A9"/>
		<stop  offset="0.69" style="stop-color:#3C9396"/>
		<stop  offset="0.8" style="stop-color:#388B8D"/>
		<stop  offset="0.92" style="stop-color:#358385"/>
		<stop  offset="1" style="stop-color:#3E9799"/>
	</linearGradient>
	<path fill="url(#SVGID_23_)" d="M528.992,284.796c0-2.25,2.09-4.539,4.711-4.539c2.789,0.039,4.75,2.133,4.75,4.765
		c0.289,2.773-2.129,4.77-4.75,4.77c-2.461,0.254-4.746-2.133-4.746-4.77L528.992,284.796z"/>
	
		<linearGradient id="SVGID_24_" gradientUnits="userSpaceOnUse" x1="216.0601" y1="199.2944" x2="201.0266" y2="190.6149" gradientTransform="matrix(0.75 0 0 -0.75 302.3466 448.4982)">
		<stop  offset="0" style="stop-color:#403E3E"/>
		<stop  offset="0.15" style="stop-color:#6D6C6C"/>
		<stop  offset="0.25" style="stop-color:#BCBCBC"/>
		<stop  offset="0.52" style="stop-color:#4D4B4B"/>
		<stop  offset="0.69" style="stop-color:#434242"/>
		<stop  offset="0.8" style="stop-color:#3F3E3E"/>
		<stop  offset="0.92" style="stop-color:#3B3A3A"/>
		<stop  offset="1" style="stop-color:#454444"/>
	</linearGradient>
	<path fill="url(#SVGID_24_)" d="M454.015,302.019c0-2.25,2.09-4.539,4.715-4.539c2.785,0.039,4.746,2.137,4.746,4.77
		c0.289,2.77-2.125,4.766-4.746,4.766c-2.465,0.254-4.75-2.133-4.75-4.766L454.015,302.019z"/>
	
		<linearGradient id="SVGID_25_" gradientUnits="userSpaceOnUse" x1="216.0601" y1="199.2954" x2="201.0243" y2="190.6145" gradientTransform="matrix(0.75 0 0 -0.75 321.0907 448.4982)">
		<stop  offset="0" style="stop-color:#403E3E"/>
		<stop  offset="0.15" style="stop-color:#6D6C6C"/>
		<stop  offset="0.25" style="stop-color:#BCBCBC"/>
		<stop  offset="0.52" style="stop-color:#4D4B4B"/>
		<stop  offset="0.69" style="stop-color:#434242"/>
		<stop  offset="0.8" style="stop-color:#3F3E3E"/>
		<stop  offset="0.92" style="stop-color:#3B3A3A"/>
		<stop  offset="1" style="stop-color:#454444"/>
	</linearGradient>
	<path fill="url(#SVGID_25_)" d="M472.761,302.019c0-2.25,2.09-4.539,4.711-4.539c2.789,0.039,4.746,2.137,4.746,4.77
		c0.293,2.77-2.125,4.766-4.746,4.766c-2.461,0.254-4.746-2.133-4.746-4.766L472.761,302.019z"/>
	
		<linearGradient id="SVGID_26_" gradientUnits="userSpaceOnUse" x1="216.061" y1="199.2954" x2="201.0241" y2="190.6138" gradientTransform="matrix(0.75 0 0 -0.75 339.8446 448.4982)">
		<stop  offset="0" style="stop-color:#403E3E"/>
		<stop  offset="0.15" style="stop-color:#6D6C6C"/>
		<stop  offset="0.25" style="stop-color:#BCBCBC"/>
		<stop  offset="0.52" style="stop-color:#4D4B4B"/>
		<stop  offset="0.69" style="stop-color:#434242"/>
		<stop  offset="0.8" style="stop-color:#3F3E3E"/>
		<stop  offset="0.92" style="stop-color:#3B3A3A"/>
		<stop  offset="1" style="stop-color:#454444"/>
	</linearGradient>
	<path fill="url(#SVGID_26_)" d="M491.511,302.019c0-2.25,2.094-4.539,4.715-4.539c2.785,0.039,4.746,2.137,4.746,4.77
		c0.289,2.77-2.125,4.766-4.746,4.766c-2.465,0.254-4.746-2.133-4.746-4.766L491.511,302.019z"/>
	
		<linearGradient id="SVGID_27_" gradientUnits="userSpaceOnUse" x1="216.0615" y1="199.2944" x2="201.0258" y2="190.6135" gradientTransform="matrix(0.75 0 0 -0.75 358.578 448.4982)">
		<stop  offset="0" style="stop-color:#403E3E"/>
		<stop  offset="0.15" style="stop-color:#6D6C6C"/>
		<stop  offset="0.25" style="stop-color:#BCBCBC"/>
		<stop  offset="0.52" style="stop-color:#4D4B4B"/>
		<stop  offset="0.69" style="stop-color:#434242"/>
		<stop  offset="0.8" style="stop-color:#3F3E3E"/>
		<stop  offset="0.92" style="stop-color:#3B3A3A"/>
		<stop  offset="1" style="stop-color:#454444"/>
	</linearGradient>
	<path fill="url(#SVGID_27_)" d="M510.246,302.019c0-2.25,2.094-4.539,4.715-4.539c2.785,0.039,4.746,2.137,4.746,4.77
		c0.289,2.77-2.125,4.766-4.746,4.766c-2.465,0.254-4.75-2.133-4.75-4.766L510.246,302.019z"/>
	
		<linearGradient id="SVGID_28_" gradientUnits="userSpaceOnUse" x1="216.0601" y1="199.2944" x2="201.0255" y2="190.6142" gradientTransform="matrix(0.75 0 0 -0.75 377.3221 448.4982)">
		<stop  offset="0" style="stop-color:#403E3E"/>
		<stop  offset="0.15" style="stop-color:#6D6C6C"/>
		<stop  offset="0.25" style="stop-color:#BCBCBC"/>
		<stop  offset="0.52" style="stop-color:#4D4B4B"/>
		<stop  offset="0.69" style="stop-color:#434242"/>
		<stop  offset="0.8" style="stop-color:#3F3E3E"/>
		<stop  offset="0.92" style="stop-color:#3B3A3A"/>
		<stop  offset="1" style="stop-color:#454444"/>
	</linearGradient>
	<path fill="url(#SVGID_28_)" d="M528.992,302.019c0-2.25,2.09-4.539,4.711-4.539c2.789,0.039,4.75,2.137,4.75,4.77
		c0.289,2.77-2.129,4.766-4.75,4.766c-2.461,0.254-4.746-2.133-4.746-4.766L528.992,302.019z"/>
	
		<linearGradient id="SVGID_29_" gradientUnits="userSpaceOnUse" x1="224.7754" y1="198.0425" x2="200.2524" y2="183.8842" gradientTransform="matrix(0.75 0 0 -0.75 368.7889 376.4767)">
		<stop  offset="0" style="stop-color:#AE4F52"/>
		<stop  offset="0.15" style="stop-color:#EC7D80"/>
		<stop  offset="0.25" style="stop-color:#F4C1C2"/>
		<stop  offset="0.52" style="stop-color:#CE5E62"/>
		<stop  offset="0.69" style="stop-color:#B75356"/>
		<stop  offset="0.8" style="stop-color:#AD4E51"/>
		<stop  offset="0.92" style="stop-color:#A3494C"/>
		<stop  offset="1" style="stop-color:#BB5559"/>
	</linearGradient>
	<path fill="url(#SVGID_29_)" d="M520.457,233c0-3.75,3.41-7.57,7.691-7.57c4.309,0.07,7.754,3.484,7.754,7.785
		c0.305,4.285-3.473,7.789-7.754,7.789c-3.941,0.246-7.754-3.488-7.754-7.789L520.457,233z"/>
	
		<linearGradient id="SVGID_30_" gradientUnits="userSpaceOnUse" x1="226.2256" y1="178.8057" x2="202.2256" y2="178.8057" gradientTransform="matrix(0.75 0 0 -0.75 297.5917 473.1818)">
		<stop  offset="0" style="stop-color:#3D3B3B"/>
		<stop  offset="0.01" style="stop-color:#908F8F"/>
		<stop  offset="0.02" style="stop-color:#514F4F"/>
		<stop  offset="0.64" style="stop-color:#504E4E"/>
		<stop  offset="0.99" style="stop-color:#4E4C4C"/>
		<stop  offset="1" style="stop-color:#383636"/>
	</linearGradient>
	<path fill="url(#SVGID_30_)" d="M450.761,322.203h14.25c1.5,0,2.051,0.777,2.051,1.734l0.199,29.766c0,1.5-0.969,2.094-1.926,2.094
		l-14.574,0.156c-0.75,0-1.5-0.934-1.5-1.891v-30.359c0-0.75,0.773-1.5,1.727-1.5H450.761z"/>
	<path fill="#595757" fill-opacity="0.4039" d="M477.027,322.074h66.75c0.75,0,1.621,0.855,1.621,1.906l-0.121,28.094
		c0,1.5-0.73,2.184-1.777,2.184l-66.473,0.066c-1.5,0-2.25-0.922-2.25-1.977v-28.023c0-1.5,0.852-2.25,1.898-2.25H477.027z"/>
	<path fill="#FFFFFF" fill-opacity="0.2078" d="M317.753,213.469h31.5l51.75,156l-2.25,1.5h-81c-0.75,0-1.5-0.48-1.5-1.504V214.969
		c0-0.75,0.805-1.5,1.82-1.5H317.753z"/>
	<path fill="#FFFFFF" fill-opacity="0.2078" d="M169.656,213.469h31.5l51.75,156l-2.25,1.5h-81c-0.75,0-1.5-0.48-1.5-1.504V214.969
		c0-0.75,0.809-1.5,1.82-1.5H169.656z"/>
</g>
</svg>
