<?xml version="1.0" encoding="utf-8"?>
<!-- Generator: Adobe Illustrator 16.0.0, SVG Export Plug-In . SVG Version: 6.00 Build 0)  -->
<!DOCTYPE svg PUBLIC "-//W3C//DTD SVG 1.1//EN" "http://www.w3.org/Graphics/SVG/1.1/DTD/svg11.dtd">
<svg preserveAspectRatio="none" version="1.1" id="图层_1" xmlns="http://www.w3.org/2000/svg" xmlns:xlink="http://www.w3.org/1999/xlink" x="0px" y="0px"
	 width="565.492px" height="323.23px" viewBox="-0.059 242.605 565.492 323.23"
	 enable-background="new -0.059 242.605 565.492 323.23" xml:space="preserve">
<g id="surface1091">
	
		<linearGradient id="SVGID_1_" gradientUnits="userSpaceOnUse" x1="327.6255" y1="8.7139" x2="1.3032" y2="8.7138" gradientTransform="matrix(0 -0.75 -0.75 0 304.2247 517.3595)">
		<stop  offset="0" style="stop-color:#97AA93"/>
		<stop  offset="0.15" style="stop-color:#D0E8CB"/>
		<stop  offset="0.25" style="stop-color:#E5F2E2"/>
		<stop  offset="0.52" style="stop-color:#B3C9AE"/>
		<stop  offset="0.69" style="stop-color:#9FB39B"/>
		<stop  offset="0.8" style="stop-color:#96A992"/>
		<stop  offset="0.92" style="stop-color:#8E9F89"/>
		<stop  offset="1" style="stop-color:#A3B79E"/>
	</linearGradient>
	<path fill="url(#SVGID_1_)" d="M65.195,516.382c0,0-35.25-2.777-35.25-122.875c0-120.125,34.988-121.867,34.988-121.867
		l472.761,0.242c0,0,27.738-1.5,27.738,120.867c0.012,122.133-27.734,123.633-27.734,123.633H65.195z"/>
	
		<linearGradient id="SVGID_2_" gradientUnits="userSpaceOnUse" x1="106.3066" y1="343.7056" x2="1.3066" y2="343.7056" gradientTransform="matrix(0 -0.75 -0.75 0 274.2208 434.3419)">
		<stop  offset="0" style="stop-color:#90A38C"/>
		<stop  offset="0.01" style="stop-color:#D8EBD4"/>
		<stop  offset="0.02" style="stop-color:#BDD4B7"/>
		<stop  offset="0.64" style="stop-color:#BAD0B4"/>
		<stop  offset="0.99" style="stop-color:#B5CCB0"/>
		<stop  offset="1" style="stop-color:#869782"/>
	</linearGradient>
	<path fill="url(#SVGID_2_)" d="M32.941,433.363v-78.75h-33v78.75H32.941z"/>
	
		<linearGradient id="SVGID_3_" gradientUnits="userSpaceOnUse" x1="327.3022" y1="341.2026" x2="1.3032" y2="341.2026" gradientTransform="matrix(0 -0.75 -0.75 0 351.1827 517.3595)">
		<stop  offset="0" style="stop-color:#7B9C75"/>
		<stop  offset="0.15" style="stop-color:#AFD6A7"/>
		<stop  offset="0.25" style="stop-color:#D5E8D1"/>
		<stop  offset="0.52" style="stop-color:#93B88B"/>
		<stop  offset="0.69" style="stop-color:#82A47B"/>
		<stop  offset="0.8" style="stop-color:#7A9B74"/>
		<stop  offset="0.92" style="stop-color:#73926D"/>
		<stop  offset="1" style="stop-color:#85A87E"/>
	</linearGradient>
	<path fill="url(#SVGID_3_)" d="M76.906,516.382v-244.5h36.75v244.5H76.906z"/>
	
		<linearGradient id="SVGID_4_" gradientUnits="userSpaceOnUse" x1="376.3052" y1="355.6206" x2="1.3062" y2="355.6206" gradientTransform="matrix(0 -0.75 -0.75 0 369.4669 535.5997)">
		<stop  offset="0" style="stop-color:#97AA93"/>
		<stop  offset="0.15" style="stop-color:#D0E8CB"/>
		<stop  offset="0.25" style="stop-color:#E5F2E2"/>
		<stop  offset="0.52" style="stop-color:#B3C9AE"/>
		<stop  offset="0.69" style="stop-color:#9FB39B"/>
		<stop  offset="0.8" style="stop-color:#96A992"/>
		<stop  offset="0.92" style="stop-color:#8E9F89"/>
		<stop  offset="1" style="stop-color:#A3B79E"/>
	</linearGradient>
	<path fill="url(#SVGID_4_)" d="M95.188,533.871v-279.75c0,0,0.453-0.719,1.012-0.719l13.238-0.031c0.75,0,0.879,0.48,0.879,1.039
		l-0.129,279.46c0,0-0.32,0.75-0.879,0.75H95.938c0,0-0.75-0.449-0.75-1.008V533.871z"/>
	
		<linearGradient id="SVGID_5_" gradientUnits="userSpaceOnUse" x1="376.3062" y1="355.6167" x2="1.3071" y2="355.6167" gradientTransform="matrix(0 -0.75 -0.75 0 354.3351 535.5968)">
		<stop  offset="0" style="stop-color:#97AA93"/>
		<stop  offset="0.15" style="stop-color:#D0E8CB"/>
		<stop  offset="0.25" style="stop-color:#E5F2E2"/>
		<stop  offset="0.52" style="stop-color:#B3C9AE"/>
		<stop  offset="0.69" style="stop-color:#9FB39B"/>
		<stop  offset="0.8" style="stop-color:#96A992"/>
		<stop  offset="0.92" style="stop-color:#8E9F89"/>
		<stop  offset="1" style="stop-color:#A3B79E"/>
	</linearGradient>
	<path fill="url(#SVGID_5_)" d="M80.059,533.867v-279.75c0,0,0.449-0.719,1.008-0.719l13.242-0.031c0.75,0,0.879,0.484,0.879,1.039
		l-0.129,279.46c0,0-0.324,0.75-0.883,0.75H80.809c0,0-0.75-0.449-0.75-1.008V533.867z"/>
	
		<linearGradient id="SVGID_6_" gradientUnits="userSpaceOnUse" x1="327.3022" y1="360.7036" x2="1.3032" y2="360.7036" gradientTransform="matrix(0 -0.75 -0.75 0 797.3507 517.3595)">
		<stop  offset="0" style="stop-color:#7B9C75"/>
		<stop  offset="0.15" style="stop-color:#AFD6A7"/>
		<stop  offset="0.25" style="stop-color:#D5E8D1"/>
		<stop  offset="0.52" style="stop-color:#93B88B"/>
		<stop  offset="0.69" style="stop-color:#82A47B"/>
		<stop  offset="0.8" style="stop-color:#7A9B74"/>
		<stop  offset="0.92" style="stop-color:#73926D"/>
		<stop  offset="1" style="stop-color:#85A87E"/>
	</linearGradient>
	<path fill="url(#SVGID_6_)" d="M523.074,516.382v-244.5h7.5v244.5H523.074z"/>
	
		<linearGradient id="SVGID_7_" gradientUnits="userSpaceOnUse" x1="242.3882" y1="160.1274" x2="202.2261" y2="160.1274" gradientTransform="matrix(0.75 0 0 -0.75 -15.0372 655.0128)">
		<stop  offset="0" style="stop-color:#90A38C"/>
		<stop  offset="0.01" style="stop-color:#D8EBD4"/>
		<stop  offset="0.02" style="stop-color:#BDD4B7"/>
		<stop  offset="0.64" style="stop-color:#BAD0B4"/>
		<stop  offset="0.99" style="stop-color:#B5CCB0"/>
		<stop  offset="1" style="stop-color:#869782"/>
	</linearGradient>
	<path fill="url(#SVGID_7_)" d="M136.633,504.035h30c0,0,0.121,1.844,0.121,4.117l-0.121,53.633c0,2.25,0.07,4.016,0.012,4.016
		l-30.012-0.266c0,0,0-1.578,0-3.852v-53.898c0-2.25,0.047-3.75,0.105-3.75H136.633z"/>
	
		<linearGradient id="SVGID_8_" gradientUnits="userSpaceOnUse" x1="242.3838" y1="160.1284" x2="202.2217" y2="160.1284" gradientTransform="matrix(0.75 0 0 -0.75 317.2235 655.0089)">
		<stop  offset="0" style="stop-color:#90A38C"/>
		<stop  offset="0.01" style="stop-color:#D8EBD4"/>
		<stop  offset="0.02" style="stop-color:#BDD4B7"/>
		<stop  offset="0.64" style="stop-color:#BAD0B4"/>
		<stop  offset="0.99" style="stop-color:#B5CCB0"/>
		<stop  offset="1" style="stop-color:#869782"/>
	</linearGradient>
	<path fill="url(#SVGID_8_)" d="M468.89,504.031h30c0,0,0.121,1.844,0.121,4.117l-0.121,53.633c0,2.25,0.074,4.016,0.016,4.016
		l-30.016-0.266c0,0,0-1.578,0-3.852v-53.898c0-2.25,0.051-3.75,0.109-3.75H468.89z"/>
	
		<linearGradient id="SVGID_9_" gradientUnits="userSpaceOnUse" x1="447.2271" y1="9.8052" x2="202.2275" y2="9.8052" gradientTransform="matrix(0.75 0 0 -0.75 72.4462 406.549)">
		<stop  offset="0" style="stop-color:#90A38C"/>
		<stop  offset="0.01" style="stop-color:#D8EBD4"/>
		<stop  offset="0.03" style="stop-color:#BDD4B7"/>
		<stop  offset="0.64" style="stop-color:#BAD0B4"/>
		<stop  offset="0.99" style="stop-color:#B5CCB0"/>
		<stop  offset="1" style="stop-color:#869782"/>
	</linearGradient>
	<path fill="url(#SVGID_9_)" d="M224.117,255.57h183.75v287.25h-183.75V255.57z"/>
	
		<linearGradient id="SVGID_10_" gradientUnits="userSpaceOnUse" x1="447.2231" y1="196.8037" x2="202.2241" y2="196.8037" gradientTransform="matrix(0.75 0 0 -0.75 72.4525 406.5509)">
		<stop  offset="0" style="stop-color:#669561"/>
		<stop  offset="0.01" style="stop-color:#B0DDAB"/>
		<stop  offset="0.03" style="stop-color:#87C280"/>
		<stop  offset="0.64" style="stop-color:#85BF7E"/>
		<stop  offset="0.99" style="stop-color:#82BB7B"/>
		<stop  offset="1" style="stop-color:#5F8A5A"/>
	</linearGradient>
	<path fill="url(#SVGID_10_)" d="M224.121,255.574h183.75v6.75h-183.75V255.574z"/>
	
		<linearGradient id="SVGID_11_" gradientUnits="userSpaceOnUse" x1="447.2231" y1="196.8027" x2="202.2241" y2="196.8027" gradientTransform="matrix(0.75 0 0 -0.75 72.4525 686.9132)">
		<stop  offset="0" style="stop-color:#669561"/>
		<stop  offset="0.01" style="stop-color:#B0DDAB"/>
		<stop  offset="0.03" style="stop-color:#87C280"/>
		<stop  offset="0.64" style="stop-color:#85BF7E"/>
		<stop  offset="0.99" style="stop-color:#82BB7B"/>
		<stop  offset="1" style="stop-color:#5F8A5A"/>
	</linearGradient>
	<path fill="url(#SVGID_11_)" d="M224.121,535.937h183.75v6.75h-183.75V535.937z"/>
	<path stroke="#000000" stroke-linejoin="bevel" stroke-miterlimit="10" d="M256.348,290.207h29.25v32.25h-29.25V290.207z"/>
	<path fill="#EEEEEE" stroke="#000000" stroke-linejoin="bevel" stroke-miterlimit="10" d="M259.504,293.367h22.5v26.25h-22.5
		V293.367z"/>
	<path fill="#717070" stroke="#000000" stroke-linejoin="bevel" stroke-miterlimit="10" d="M259.504,311.343h22.5v8.25h-22.5
		V311.343z"/>
	<path stroke="#000000" stroke-linejoin="bevel" stroke-miterlimit="10" d="M340.109,290.207h29.25v32.25h-29.25V290.207z"/>
	<path fill="#EEEEEE" stroke="#000000" stroke-linejoin="bevel" stroke-miterlimit="10" d="M343.265,293.367h22.5v26.25h-22.5
		V293.367z"/>
	<path fill="#717070" stroke="#000000" stroke-linejoin="bevel" stroke-miterlimit="10" d="M343.265,311.343h22.5v8.25h-22.5
		V311.343z"/>
	
		<linearGradient id="SVGID_12_" gradientUnits="userSpaceOnUse" x1="219.8604" y1="192.5156" x2="202.2266" y2="192.5156" gradientTransform="matrix(0.75 0 0 -0.75 117.0721 530.174)">
		<stop  offset="0" style="stop-color:#B86D76"/>
		<stop  offset="0.15" style="stop-color:#F19AA3"/>
		<stop  offset="0.25" style="stop-color:#F7CCD0"/>
		<stop  offset="0.44" style="stop-color:#D27D87"/>
		<stop  offset="0.6" style="stop-color:#BB6F78"/>
		<stop  offset="0.8" style="stop-color:#9E5D64"/>
		<stop  offset="0.97" style="stop-color:#90545B"/>
		<stop  offset="1" style="stop-color:#BF727B"/>
	</linearGradient>
	<path fill="url(#SVGID_12_)" d="M268.742,385.945c0-3.75,2.957-6.766,6.613-6.766c3.887,0.016,6.594,2.953,6.594,6.605
		c0.293,3.91-2.957,6.59-6.594,6.59c-3.613,0.32-6.613-2.961-6.613-6.59V385.945z"/>
	<path fill="#2D2929" d="M272.363,385.8c0-1.5,1.332-3.016,2.984-3.016c1.516,0.016,2.988,1.336,2.988,2.984
		c0.027,1.531-1.34,2.988-2.988,2.988c-1.484,0.043-2.992-1.34-2.992-2.988L272.363,385.8z"/>
	
		<linearGradient id="SVGID_13_" gradientUnits="userSpaceOnUse" x1="219.8623" y1="192.5156" x2="202.2241" y2="192.5156" gradientTransform="matrix(0.75 0 0 -0.75 89.9803 530.174)">
		<stop  offset="0" style="stop-color:#787979"/>
		<stop  offset="0.15" style="stop-color:#A6A7A7"/>
		<stop  offset="0.25" style="stop-color:#D1D1D1"/>
		<stop  offset="0.44" style="stop-color:#8A8B8B"/>
		<stop  offset="0.6" style="stop-color:#7A7B7B"/>
		<stop  offset="0.8" style="stop-color:#666767"/>
		<stop  offset="0.97" style="stop-color:#5D5E5E"/>
		<stop  offset="1" style="stop-color:#7D7E7E"/>
	</linearGradient>
	<path fill="url(#SVGID_13_)" d="M241.648,385.945c0-3.75,2.957-6.766,6.613-6.766c3.887,0.016,6.598,2.953,6.598,6.605
		c0.289,3.91-2.957,6.59-6.598,6.59c-3.613,0.32-6.613-2.961-6.613-6.59V385.945z"/>
	<path fill="#2D2929" d="M245.27,385.8c0-1.5,1.332-3.016,2.984-3.016c1.516,0.016,2.992,1.336,2.992,2.984
		c0.023,1.531-1.34,2.988-2.992,2.988c-1.484,0.043-2.992-1.34-2.992-2.988L245.27,385.8z"/>
	
		<linearGradient id="SVGID_14_" gradientUnits="userSpaceOnUse" x1="219.8628" y1="192.5137" x2="202.2246" y2="192.5137" gradientTransform="matrix(0.75 0 0 -0.75 144.952 530.0675)">
		<stop  offset="0" style="stop-color:#B86D76"/>
		<stop  offset="0.15" style="stop-color:#F19AA3"/>
		<stop  offset="0.25" style="stop-color:#F7CCD0"/>
		<stop  offset="0.44" style="stop-color:#D27D87"/>
		<stop  offset="0.6" style="stop-color:#BB6F78"/>
		<stop  offset="0.8" style="stop-color:#9E5D64"/>
		<stop  offset="0.97" style="stop-color:#90545B"/>
		<stop  offset="1" style="stop-color:#BF727B"/>
	</linearGradient>
	<path fill="url(#SVGID_14_)" d="M296.621,385.839c0-3.75,2.957-6.766,6.613-6.766c3.887,0.016,6.598,2.953,6.598,6.605
		c0.289,3.91-2.957,6.59-6.598,6.59c-3.613,0.32-6.613-2.961-6.613-6.59V385.839z"/>
	<path fill="#2D2929" d="M300.242,385.695c0-1.5,1.332-3.016,2.984-3.016c1.516,0.016,2.992,1.336,2.992,2.984
		c0.023,1.531-1.34,2.984-2.992,2.984c-1.484,0.047-2.992-1.336-2.992-2.984L300.242,385.695z"/>
	
		<linearGradient id="SVGID_15_" gradientUnits="userSpaceOnUse" x1="219.8643" y1="192.5156" x2="202.2261" y2="192.5156" gradientTransform="matrix(0.75 0 0 -0.75 171.2557 530.174)">
		<stop  offset="0" style="stop-color:#787979"/>
		<stop  offset="0.15" style="stop-color:#A6A7A7"/>
		<stop  offset="0.25" style="stop-color:#D1D1D1"/>
		<stop  offset="0.44" style="stop-color:#8A8B8B"/>
		<stop  offset="0.6" style="stop-color:#7A7B7B"/>
		<stop  offset="0.8" style="stop-color:#666767"/>
		<stop  offset="0.97" style="stop-color:#5D5E5E"/>
		<stop  offset="1" style="stop-color:#7D7E7E"/>
	</linearGradient>
	<path fill="url(#SVGID_15_)" d="M322.925,385.945c0-3.75,2.957-6.766,6.613-6.766c3.887,0.016,6.598,2.953,6.598,6.605
		c0.289,3.91-2.961,6.59-6.598,6.59c-3.613,0.32-6.613-2.961-6.613-6.59V385.945z"/>
	<path fill="#2D2929" d="M326.546,385.8c0-1.5,1.332-3.016,2.984-3.016c1.516,0.016,2.988,1.336,2.988,2.984
		c0.027,1.531-1.336,2.988-2.988,2.988c-1.484,0.043-2.992-1.34-2.992-2.988L326.546,385.8z"/>
	
		<linearGradient id="SVGID_16_" gradientUnits="userSpaceOnUse" x1="219.8618" y1="192.5156" x2="202.2227" y2="192.5156" gradientTransform="matrix(0.75 0 0 -0.75 198.3475 530.174)">
		<stop  offset="0" style="stop-color:#787979"/>
		<stop  offset="0.15" style="stop-color:#A6A7A7"/>
		<stop  offset="0.25" style="stop-color:#D1D1D1"/>
		<stop  offset="0.44" style="stop-color:#8A8B8B"/>
		<stop  offset="0.6" style="stop-color:#7A7B7B"/>
		<stop  offset="0.8" style="stop-color:#666767"/>
		<stop  offset="0.97" style="stop-color:#5D5E5E"/>
		<stop  offset="1" style="stop-color:#7D7E7E"/>
	</linearGradient>
	<path fill="url(#SVGID_16_)" d="M350.015,385.945c0-3.75,2.957-6.766,6.613-6.766c3.887,0.016,6.598,2.953,6.598,6.605
		c0.289,3.91-2.957,6.59-6.598,6.59c-3.613,0.32-6.613-2.961-6.613-6.59V385.945z"/>
	<path fill="#2D2929" d="M353.636,385.8c0-1.5,1.332-3.016,2.984-3.016c1.516,0.016,2.992,1.336,2.992,2.984
		c0.023,1.531-1.34,2.988-2.992,2.988c-1.484,0.043-2.992-1.34-2.992-2.988L353.636,385.8z"/>
	
		<linearGradient id="SVGID_17_" gradientUnits="userSpaceOnUse" x1="219.8618" y1="192.5166" x2="202.2236" y2="192.5166" gradientTransform="matrix(0.75 0 0 -0.75 89.9808 499.7091)">
		<stop  offset="0" style="stop-color:#3B9193"/>
		<stop  offset="0.15" style="stop-color:#67C3C5"/>
		<stop  offset="0.25" style="stop-color:#BBDEE0"/>
		<stop  offset="0.44" style="stop-color:#45A6A9"/>
		<stop  offset="0.6" style="stop-color:#3C9396"/>
		<stop  offset="0.8" style="stop-color:#317C7E"/>
		<stop  offset="0.97" style="stop-color:#2C7173"/>
		<stop  offset="1" style="stop-color:#3E9799"/>
	</linearGradient>
	<path fill="url(#SVGID_17_)" d="M241.648,355.48c0-3.75,2.957-6.766,6.613-6.766c3.887,0.016,6.598,2.953,6.598,6.605
		c0.289,3.91-2.957,6.59-6.598,6.59c-3.613,0.32-6.613-2.961-6.613-6.59V355.48z"/>
	<path fill="#2D2929" d="M245.273,355.335c0-1.5,1.328-3.016,2.98-3.016c1.52,0.016,2.992,1.336,2.992,2.984
		c0.027,1.531-1.34,2.988-2.992,2.988c-1.48,0.043-2.988-1.34-2.988-2.988L245.273,355.335z"/>
	
		<linearGradient id="SVGID_18_" gradientUnits="userSpaceOnUse" x1="219.8643" y1="192.5166" x2="202.2261" y2="192.5166" gradientTransform="matrix(0.75 0 0 -0.75 117.0726 499.7091)">
		<stop  offset="0" style="stop-color:#3B9193"/>
		<stop  offset="0.15" style="stop-color:#67C3C5"/>
		<stop  offset="0.25" style="stop-color:#BBDEE0"/>
		<stop  offset="0.44" style="stop-color:#45A6A9"/>
		<stop  offset="0.6" style="stop-color:#3C9396"/>
		<stop  offset="0.8" style="stop-color:#317C7E"/>
		<stop  offset="0.97" style="stop-color:#2C7173"/>
		<stop  offset="1" style="stop-color:#3E9799"/>
	</linearGradient>
	<path fill="url(#SVGID_18_)" d="M268.742,355.48c0-3.75,2.957-6.766,6.613-6.766c3.887,0.016,6.598,2.953,6.598,6.605
		c0.289,3.91-2.957,6.59-6.598,6.59c-3.613,0.32-6.613-2.961-6.613-6.59V355.48z"/>
	<path fill="#2D2929" d="M272.363,355.335c0-1.5,1.332-3.016,2.984-3.016c1.516,0.016,2.988,1.336,2.988,2.984
		c0.027,1.531-1.336,2.988-2.988,2.988c-1.484,0.043-2.992-1.34-2.992-2.988L272.363,355.335z"/>
	
		<linearGradient id="SVGID_19_" gradientUnits="userSpaceOnUse" x1="219.8608" y1="192.5166" x2="202.2227" y2="192.5166" gradientTransform="matrix(0.75 0 0 -0.75 144.1644 499.7091)">
		<stop  offset="0" style="stop-color:#3B9193"/>
		<stop  offset="0.15" style="stop-color:#67C3C5"/>
		<stop  offset="0.25" style="stop-color:#BBDEE0"/>
		<stop  offset="0.44" style="stop-color:#45A6A9"/>
		<stop  offset="0.6" style="stop-color:#3C9396"/>
		<stop  offset="0.8" style="stop-color:#317C7E"/>
		<stop  offset="0.97" style="stop-color:#2C7173"/>
		<stop  offset="1" style="stop-color:#3E9799"/>
	</linearGradient>
	<path fill="url(#SVGID_19_)" d="M295.832,355.48c0-3.75,2.957-6.766,6.613-6.766c3.887,0.016,6.598,2.953,6.598,6.605
		c0.289,3.91-2.957,6.59-6.598,6.59c-3.613,0.32-6.613-2.961-6.613-6.59V355.48z"/>
	<path fill="#2D2929" d="M299.457,355.335c0-1.5,1.328-3.016,2.98-3.016c1.52,0.016,2.992,1.336,2.992,2.984
		c0.027,1.531-1.34,2.988-2.992,2.988c-1.48,0.043-2.988-1.34-2.988-2.988L299.457,355.335z"/>
	
		<linearGradient id="SVGID_20_" gradientUnits="userSpaceOnUse" x1="219.8643" y1="192.5166" x2="202.2261" y2="192.5166" gradientTransform="matrix(0.75 0 0 -0.75 171.2557 499.7091)">
		<stop  offset="0" style="stop-color:#3B9193"/>
		<stop  offset="0.15" style="stop-color:#67C3C5"/>
		<stop  offset="0.25" style="stop-color:#BBDEE0"/>
		<stop  offset="0.44" style="stop-color:#45A6A9"/>
		<stop  offset="0.6" style="stop-color:#3C9396"/>
		<stop  offset="0.8" style="stop-color:#317C7E"/>
		<stop  offset="0.97" style="stop-color:#2C7173"/>
		<stop  offset="1" style="stop-color:#3E9799"/>
	</linearGradient>
	<path fill="url(#SVGID_20_)" d="M322.925,355.48c0-3.75,2.957-6.766,6.613-6.766c3.887,0.016,6.598,2.953,6.598,6.605
		c0.289,3.91-2.957,6.59-6.598,6.59c-3.613,0.32-6.613-2.961-6.613-6.59V355.48z"/>
	<path fill="#2D2929" d="M326.546,355.335c0-1.5,1.332-3.016,2.984-3.016c1.516,0.016,2.988,1.336,2.988,2.984
		c0.027,1.531-1.336,2.988-2.988,2.988c-1.484,0.043-2.992-1.34-2.992-2.988L326.546,355.335z"/>
	
		<linearGradient id="SVGID_21_" gradientUnits="userSpaceOnUse" x1="219.8618" y1="192.5166" x2="202.2227" y2="192.5166" gradientTransform="matrix(0.75 0 0 -0.75 198.3475 499.7091)">
		<stop  offset="0" style="stop-color:#3B9193"/>
		<stop  offset="0.15" style="stop-color:#67C3C5"/>
		<stop  offset="0.25" style="stop-color:#BBDEE0"/>
		<stop  offset="0.44" style="stop-color:#45A6A9"/>
		<stop  offset="0.6" style="stop-color:#3C9396"/>
		<stop  offset="0.8" style="stop-color:#317C7E"/>
		<stop  offset="0.97" style="stop-color:#2C7173"/>
		<stop  offset="1" style="stop-color:#3E9799"/>
	</linearGradient>
	<path fill="url(#SVGID_21_)" d="M350.015,355.48c0-3.75,2.957-6.766,6.613-6.766c3.887,0.016,6.598,2.953,6.598,6.605
		c0.289,3.91-2.957,6.59-6.598,6.59c-3.613,0.32-6.613-2.961-6.613-6.59V355.48z"/>
	<path fill="#2D2929" d="M353.64,355.335c0-1.5,1.328-3.016,2.98-3.016c1.52,0.016,2.992,1.336,2.992,2.984
		c0.027,1.531-1.34,2.988-2.992,2.988c-1.48,0.043-2.988-1.34-2.988-2.988L353.64,355.335z"/>
	
		<linearGradient id="SVGID_22_" gradientUnits="userSpaceOnUse" x1="219.8647" y1="192.5166" x2="202.2256" y2="192.5166" gradientTransform="matrix(0.75 0 0 -0.75 225.4393 499.7091)">
		<stop  offset="0" style="stop-color:#3B9193"/>
		<stop  offset="0.15" style="stop-color:#67C3C5"/>
		<stop  offset="0.25" style="stop-color:#BBDEE0"/>
		<stop  offset="0.44" style="stop-color:#45A6A9"/>
		<stop  offset="0.6" style="stop-color:#3C9396"/>
		<stop  offset="0.8" style="stop-color:#317C7E"/>
		<stop  offset="0.97" style="stop-color:#2C7173"/>
		<stop  offset="1" style="stop-color:#3E9799"/>
	</linearGradient>
	<path fill="url(#SVGID_22_)" d="M377.109,355.48c0-3.75,2.957-6.766,6.613-6.766c3.887,0.016,6.598,2.953,6.598,6.605
		c0.289,3.91-2.957,6.59-6.598,6.59c-3.613,0.32-6.613-2.961-6.613-6.59V355.48z"/>
	<path fill="#2D2929" d="M380.73,355.335c0-1.5,1.332-3.016,2.984-3.016c1.516,0.016,2.988,1.336,2.988,2.984
		c0.027,1.531-1.336,2.988-2.988,2.988c-1.484,0.043-2.992-1.34-2.992-2.988L380.73,355.335z"/>
	
		<linearGradient id="SVGID_23_" gradientUnits="userSpaceOnUse" x1="219.8643" y1="192.5156" x2="202.2261" y2="192.5156" gradientTransform="matrix(0.75 0 0 -0.75 117.0726 560.5724)">
		<stop  offset="0" style="stop-color:#B86D76"/>
		<stop  offset="0.15" style="stop-color:#F19AA3"/>
		<stop  offset="0.25" style="stop-color:#F7CCD0"/>
		<stop  offset="0.44" style="stop-color:#D27D87"/>
		<stop  offset="0.6" style="stop-color:#BB6F78"/>
		<stop  offset="0.8" style="stop-color:#9E5D64"/>
		<stop  offset="0.97" style="stop-color:#90545B"/>
		<stop  offset="1" style="stop-color:#BF727B"/>
	</linearGradient>
	<path fill="url(#SVGID_23_)" d="M268.742,416.343c0-3.75,2.957-6.766,6.613-6.766c3.887,0.016,6.598,2.953,6.598,6.605
		c0.289,3.91-2.957,6.59-6.598,6.59c-3.613,0.32-6.613-2.961-6.613-6.59V416.343z"/>
	<path fill="#2D2929" d="M272.363,416.199c0-1.5,1.332-3.016,2.984-3.016c1.516,0.016,2.988,1.336,2.988,2.984
		c0.027,1.531-1.336,2.988-2.988,2.988c-1.484,0.043-2.992-1.34-2.992-2.988L272.363,416.199z"/>
	
		<linearGradient id="SVGID_24_" gradientUnits="userSpaceOnUse" x1="219.8618" y1="192.5156" x2="202.2236" y2="192.5156" gradientTransform="matrix(0.75 0 0 -0.75 89.9808 560.5724)">
		<stop  offset="0" style="stop-color:#787979"/>
		<stop  offset="0.15" style="stop-color:#A6A7A7"/>
		<stop  offset="0.25" style="stop-color:#D1D1D1"/>
		<stop  offset="0.44" style="stop-color:#8A8B8B"/>
		<stop  offset="0.6" style="stop-color:#7A7B7B"/>
		<stop  offset="0.8" style="stop-color:#666767"/>
		<stop  offset="0.97" style="stop-color:#5D5E5E"/>
		<stop  offset="1" style="stop-color:#7D7E7E"/>
	</linearGradient>
	<path fill="url(#SVGID_24_)" d="M241.648,416.343c0-3.75,2.957-6.766,6.613-6.766c3.887,0.016,6.598,2.953,6.598,6.605
		c0.289,3.91-2.957,6.59-6.598,6.59c-3.613,0.32-6.613-2.961-6.613-6.59V416.343z"/>
	<path fill="#2D2929" d="M245.273,416.199c0-1.5,1.328-3.016,2.98-3.016c1.52,0.016,2.992,1.336,2.992,2.984
		c0.027,1.531-1.34,2.988-2.992,2.988c-1.48,0.043-2.988-1.34-2.988-2.988L245.273,416.199z"/>
	
		<linearGradient id="SVGID_25_" gradientUnits="userSpaceOnUse" x1="219.8618" y1="192.5137" x2="202.2236" y2="192.5137" gradientTransform="matrix(0.75 0 0 -0.75 144.9525 560.4659)">
		<stop  offset="0" style="stop-color:#B86D76"/>
		<stop  offset="0.15" style="stop-color:#F19AA3"/>
		<stop  offset="0.25" style="stop-color:#F7CCD0"/>
		<stop  offset="0.44" style="stop-color:#D27D87"/>
		<stop  offset="0.6" style="stop-color:#BB6F78"/>
		<stop  offset="0.8" style="stop-color:#9E5D64"/>
		<stop  offset="0.97" style="stop-color:#90545B"/>
		<stop  offset="1" style="stop-color:#BF727B"/>
	</linearGradient>
	<path fill="url(#SVGID_25_)" d="M296.621,416.238c0-3.75,2.957-6.766,6.613-6.766c3.887,0.016,6.598,2.953,6.598,6.605
		c0.289,3.91-2.957,6.59-6.598,6.59c-3.613,0.32-6.613-2.961-6.613-6.59V416.238z"/>
	<path fill="#2D2929" d="M300.242,416.093c0-1.5,1.332-3.016,2.984-3.016c1.516,0.016,2.992,1.336,2.992,2.984
		c0.023,1.531-1.34,2.984-2.992,2.984c-1.484,0.047-2.992-1.336-2.992-2.984L300.242,416.093z"/>
	
		<linearGradient id="SVGID_26_" gradientUnits="userSpaceOnUse" x1="219.8628" y1="192.5156" x2="202.2246" y2="192.5156" gradientTransform="matrix(0.75 0 0 -0.75 171.2567 560.5724)">
		<stop  offset="0" style="stop-color:#787979"/>
		<stop  offset="0.15" style="stop-color:#A6A7A7"/>
		<stop  offset="0.25" style="stop-color:#D1D1D1"/>
		<stop  offset="0.44" style="stop-color:#8A8B8B"/>
		<stop  offset="0.6" style="stop-color:#7A7B7B"/>
		<stop  offset="0.8" style="stop-color:#666767"/>
		<stop  offset="0.97" style="stop-color:#5D5E5E"/>
		<stop  offset="1" style="stop-color:#7D7E7E"/>
	</linearGradient>
	<path fill="url(#SVGID_26_)" d="M322.925,416.343c0-3.75,2.957-6.766,6.613-6.766c3.887,0.016,6.598,2.953,6.598,6.605
		c0.289,3.91-2.957,6.59-6.598,6.59c-3.613,0.32-6.613-2.961-6.613-6.59V416.343z"/>
	<path fill="#2D2929" d="M326.546,416.199c0-1.5,1.332-3.016,2.984-3.016c1.516,0.016,2.988,1.336,2.988,2.984
		c0.027,1.531-1.336,2.988-2.988,2.988c-1.484,0.043-2.992-1.34-2.992-2.988L326.546,416.199z"/>
	
		<linearGradient id="SVGID_27_" gradientUnits="userSpaceOnUse" x1="219.8608" y1="192.5156" x2="202.2217" y2="192.5156" gradientTransform="matrix(0.75 0 0 -0.75 198.3485 560.5724)">
		<stop  offset="0" style="stop-color:#787979"/>
		<stop  offset="0.15" style="stop-color:#A6A7A7"/>
		<stop  offset="0.25" style="stop-color:#D1D1D1"/>
		<stop  offset="0.44" style="stop-color:#8A8B8B"/>
		<stop  offset="0.6" style="stop-color:#7A7B7B"/>
		<stop  offset="0.8" style="stop-color:#666767"/>
		<stop  offset="0.97" style="stop-color:#5D5E5E"/>
		<stop  offset="1" style="stop-color:#7D7E7E"/>
	</linearGradient>
	<path fill="url(#SVGID_27_)" d="M350.015,416.343c0-3.75,2.957-6.766,6.613-6.766c3.887,0.016,6.598,2.953,6.598,6.605
		c0.289,3.91-2.957,6.59-6.598,6.59c-3.613,0.32-6.613-2.961-6.613-6.59V416.343z"/>
	<path fill="#2D2929" d="M353.64,416.199c0-1.5,1.328-3.016,2.98-3.016c1.52,0.016,2.992,1.336,2.992,2.984
		c0.027,1.531-1.34,2.988-2.992,2.988c-1.48,0.043-2.988-1.34-2.988-2.988L353.64,416.199z"/>
	
		<linearGradient id="SVGID_28_" gradientUnits="userSpaceOnUse" x1="242.3848" y1="185.8057" x2="202.2236" y2="185.8057" gradientTransform="matrix(0.75 0 0 -0.75 90.016 693.5636)">
		<stop  offset="0" style="stop-color:#90A38C"/>
		<stop  offset="0.01" style="stop-color:#D8EBD4"/>
		<stop  offset="0.02" style="stop-color:#BDD4B7"/>
		<stop  offset="0.64" style="stop-color:#BAD0B4"/>
		<stop  offset="0.99" style="stop-color:#B5CCB0"/>
		<stop  offset="1" style="stop-color:#869782"/>
	</linearGradient>
	<path fill="url(#SVGID_28_)" d="M241.684,542.585h30c0,0,0.121,0.688,0.121,1.535l-0.121,20.215c0,0.75,0.074,1.289,0.016,1.289
		l-30.016,0.211c0,0,0-0.898,0-1.746v-20.004c0-0.75,0.051-1.5,0.109-1.5H241.684z"/>
	
		<linearGradient id="SVGID_29_" gradientUnits="userSpaceOnUse" x1="242.3848" y1="185.8057" x2="202.2236" y2="185.8057" gradientTransform="matrix(0.75 0 0 -0.75 208.0663 693.5636)">
		<stop  offset="0" style="stop-color:#90A38C"/>
		<stop  offset="0.01" style="stop-color:#D8EBD4"/>
		<stop  offset="0.02" style="stop-color:#BDD4B7"/>
		<stop  offset="0.64" style="stop-color:#BAD0B4"/>
		<stop  offset="0.99" style="stop-color:#B5CCB0"/>
		<stop  offset="1" style="stop-color:#869782"/>
	</linearGradient>
	<path fill="url(#SVGID_29_)" d="M359.734,542.585h30c0,0,0.121,0.688,0.121,1.535l-0.121,20.215c0,0.75,0.074,1.289,0.016,1.289
		l-30.016,0.211c0,0,0-0.898,0-1.746v-20.004c0-0.75,0.051-1.5,0.109-1.5H359.734z"/>
	
		<linearGradient id="SVGID_30_" gradientUnits="userSpaceOnUse" x1="242.3867" y1="192.8076" x2="202.2256" y2="192.8076" gradientTransform="matrix(0.75 0 0 -0.75 28.682 667.4327)">
		<stop  offset="0" style="stop-color:#97AA93"/>
		<stop  offset="0.15" style="stop-color:#D0E8CB"/>
		<stop  offset="0.25" style="stop-color:#E5F2E2"/>
		<stop  offset="0.52" style="stop-color:#B3C9AE"/>
		<stop  offset="0.69" style="stop-color:#9FB39B"/>
		<stop  offset="0.8" style="stop-color:#96A992"/>
		<stop  offset="0.92" style="stop-color:#8E9F89"/>
		<stop  offset="1" style="stop-color:#A3B79E"/>
	</linearGradient>
	<path fill="url(#SVGID_30_)" d="M180.352,516.453h30c0,0,0.121,0.375,0.121,0.832l-0.121,11.168c0,0,0.07,0.48,0.012,0.48
		l-30.012,0.27c0,0,0-0.641,0-1.102v-10.898c0-0.75,0.047-0.75,0.109-0.75H180.352z"/>
	
		<linearGradient id="SVGID_31_" gradientUnits="userSpaceOnUse" x1="242.3828" y1="192.8076" x2="202.2217" y2="192.8076" gradientTransform="matrix(0.75 0 0 -0.75 271.704 667.4327)">
		<stop  offset="0" style="stop-color:#97AA93"/>
		<stop  offset="0.15" style="stop-color:#D0E8CB"/>
		<stop  offset="0.25" style="stop-color:#E5F2E2"/>
		<stop  offset="0.52" style="stop-color:#B3C9AE"/>
		<stop  offset="0.69" style="stop-color:#9FB39B"/>
		<stop  offset="0.8" style="stop-color:#96A992"/>
		<stop  offset="0.92" style="stop-color:#8E9F89"/>
		<stop  offset="1" style="stop-color:#A3B79E"/>
	</linearGradient>
	<path fill="url(#SVGID_31_)" d="M423.371,516.453h30c0,0,0.121,0.375,0.121,0.832l-0.121,11.168c0,0,0.074,0.48,0.016,0.48
		l-30.016,0.27c0,0,0-0.641,0-1.102v-10.898c0-0.75,0.051-0.75,0.109-0.75H423.371z"/>
	
		<linearGradient id="SVGID_32_" gradientUnits="userSpaceOnUse" x1="219.3184" y1="182.6074" x2="202.2246" y2="182.6074" gradientTransform="matrix(0.75 0 0 -0.75 -15.0397 394.0665)">
		<stop  offset="0" style="stop-color:#97AA93"/>
		<stop  offset="0.15" style="stop-color:#D0E8CB"/>
		<stop  offset="0.25" style="stop-color:#E5F2E2"/>
		<stop  offset="0.52" style="stop-color:#B3C9AE"/>
		<stop  offset="0.69" style="stop-color:#9FB39B"/>
		<stop  offset="0.8" style="stop-color:#96A992"/>
		<stop  offset="0.92" style="stop-color:#8E9F89"/>
		<stop  offset="1" style="stop-color:#A3B79E"/>
	</linearGradient>
	<path fill="url(#SVGID_32_)" d="M136.629,243.09h12.75c0,0,0.07,0.836,0.07,1.867l-0.07,24.383c0,0.75,0.051,1.793,0.023,1.793
		l-12.773-0.293c0,0,0-0.543,0-1.578V244.59c0-0.75,0.02-1.5,0.047-1.5H136.629z"/>
	
		<linearGradient id="SVGID_33_" gradientUnits="userSpaceOnUse" x1="243.4019" y1="193.8047" x2="202.2241" y2="193.8047" gradientTransform="matrix(0.75 0 0 -0.75 -24.0709 412.0988)">
		<stop  offset="0" style="stop-color:#97AA93"/>
		<stop  offset="0.15" style="stop-color:#D0E8CB"/>
		<stop  offset="0.25" style="stop-color:#E5F2E2"/>
		<stop  offset="0.52" style="stop-color:#B3C9AE"/>
		<stop  offset="0.69" style="stop-color:#9FB39B"/>
		<stop  offset="0.8" style="stop-color:#96A992"/>
		<stop  offset="0.92" style="stop-color:#8E9F89"/>
		<stop  offset="1" style="stop-color:#A3B79E"/>
	</linearGradient>
	<path fill="url(#SVGID_33_)" d="M127.598,261.121h30.75c0,0,0.133,0.328,0.133,0.73l-0.133,9.77c0,0,0.082,0.48,0.023,0.48
		l-30.773,0.27c0,0,0-0.598,0-1.004v-9.496c0-0.75,0.051-0.75,0.109-0.75H127.598z"/>
	
		<linearGradient id="SVGID_34_" gradientUnits="userSpaceOnUse" x1="219.3198" y1="182.6113" x2="202.2261" y2="182.6113" gradientTransform="matrix(0.75 0 0 -0.75 25.6312 393.5841)">
		<stop  offset="0" style="stop-color:#97AA93"/>
		<stop  offset="0.15" style="stop-color:#D0E8CB"/>
		<stop  offset="0.25" style="stop-color:#E5F2E2"/>
		<stop  offset="0.52" style="stop-color:#B3C9AE"/>
		<stop  offset="0.69" style="stop-color:#9FB39B"/>
		<stop  offset="0.8" style="stop-color:#96A992"/>
		<stop  offset="0.92" style="stop-color:#8E9F89"/>
		<stop  offset="1" style="stop-color:#A3B79E"/>
	</linearGradient>
	<path fill="url(#SVGID_34_)" d="M177.301,242.605h12.75c0,0,0.07,0.836,0.07,1.871l-0.07,24.379c0,0.75,0.047,1.793,0.023,1.793
		l-12.773-0.293c0,0,0-0.543,0-1.574v-24.676c0-0.75,0.02-1.5,0.047-1.5H177.301z"/>
	
		<linearGradient id="SVGID_35_" gradientUnits="userSpaceOnUse" x1="243.4023" y1="193.8057" x2="202.2256" y2="193.8057" gradientTransform="matrix(0.75 0 0 -0.75 16.6 411.6154)">
		<stop  offset="0" style="stop-color:#97AA93"/>
		<stop  offset="0.15" style="stop-color:#D0E8CB"/>
		<stop  offset="0.25" style="stop-color:#E5F2E2"/>
		<stop  offset="0.52" style="stop-color:#B3C9AE"/>
		<stop  offset="0.69" style="stop-color:#9FB39B"/>
		<stop  offset="0.8" style="stop-color:#96A992"/>
		<stop  offset="0.92" style="stop-color:#8E9F89"/>
		<stop  offset="1" style="stop-color:#A3B79E"/>
	</linearGradient>
	<path fill="url(#SVGID_35_)" d="M168.27,260.637h30.75c0,0,0.133,0.328,0.133,0.73l-0.133,9.77c0,0,0.082,0.48,0.02,0.48
		l-30.77,0.27c0,0,0-0.598,0-1.004v-9.496c0-0.75,0.051-0.75,0.109-0.75H168.27z"/>
	
		<linearGradient id="SVGID_36_" gradientUnits="userSpaceOnUse" x1="219.3174" y1="182.6079" x2="202.2236" y2="182.6079" gradientTransform="matrix(0.75 0 0 -0.75 310.4882 393.6388)">
		<stop  offset="0" style="stop-color:#97AA93"/>
		<stop  offset="0.15" style="stop-color:#D0E8CB"/>
		<stop  offset="0.25" style="stop-color:#E5F2E2"/>
		<stop  offset="0.52" style="stop-color:#B3C9AE"/>
		<stop  offset="0.69" style="stop-color:#9FB39B"/>
		<stop  offset="0.8" style="stop-color:#96A992"/>
		<stop  offset="0.92" style="stop-color:#8E9F89"/>
		<stop  offset="1" style="stop-color:#A3B79E"/>
	</linearGradient>
	<path fill="url(#SVGID_36_)" d="M462.156,242.66h12.75c0,0,0.07,0.84,0.07,1.871l-0.07,24.379c0,0.75,0.051,1.797,0.023,1.797
		l-12.773-0.297c0,0,0-0.543,0-1.574V244.16c0-0.75,0.023-1.5,0.047-1.5H462.156z"/>
	
		<linearGradient id="SVGID_37_" gradientUnits="userSpaceOnUse" x1="243.3999" y1="193.8047" x2="202.2231" y2="193.8047" gradientTransform="matrix(0.75 0 0 -0.75 301.4569 411.67)">
		<stop  offset="0" style="stop-color:#97AA93"/>
		<stop  offset="0.15" style="stop-color:#D0E8CB"/>
		<stop  offset="0.25" style="stop-color:#E5F2E2"/>
		<stop  offset="0.52" style="stop-color:#B3C9AE"/>
		<stop  offset="0.69" style="stop-color:#9FB39B"/>
		<stop  offset="0.8" style="stop-color:#96A992"/>
		<stop  offset="0.92" style="stop-color:#8E9F89"/>
		<stop  offset="1" style="stop-color:#A3B79E"/>
	</linearGradient>
	<path fill="url(#SVGID_37_)" d="M453.125,260.691h30.75c0,0,0.133,0.328,0.133,0.734l-0.133,9.766c0,0,0.082,0.48,0.023,0.48
		l-30.773,0.27c0,0,0-0.598,0-1v-9.5c0-0.75,0.051-0.75,0.113-0.75H453.125z"/>
	
		<linearGradient id="SVGID_38_" gradientUnits="userSpaceOnUse" x1="213.2256" y1="182.6074" x2="202.2256" y2="182.6074" gradientTransform="matrix(0.75 0 0 -0.75 -137.0597 477.9454)">
		<stop  offset="0" style="stop-color:#97AA93"/>
		<stop  offset="0.15" style="stop-color:#D0E8CB"/>
		<stop  offset="0.25" style="stop-color:#E5F2E2"/>
		<stop  offset="0.52" style="stop-color:#B3C9AE"/>
		<stop  offset="0.69" style="stop-color:#9FB39B"/>
		<stop  offset="0.8" style="stop-color:#96A992"/>
		<stop  offset="0.92" style="stop-color:#8E9F89"/>
		<stop  offset="1" style="stop-color:#A3B79E"/>
	</linearGradient>
	<path fill="url(#SVGID_38_)" d="M14.609,326.968h8.25c0,0-0.184,0.836-0.184,1.867l0.184,24.383c0,0.75-0.195,1.793-0.211,1.793
		l-8.039-0.293c0,0,0-0.543,0-1.578v-24.672c0-0.75,0.012-1.5,0.027-1.5H14.609z"/>
</g>
</svg>
