<?xml version="1.0" encoding="utf-8"?>
<!-- Generator: Adobe Illustrator 16.0.0, SVG Export Plug-In . SVG Version: 6.00 Build 0)  -->
<!DOCTYPE svg PUBLIC "-//W3C//DTD SVG 1.1//EN" "http://www.w3.org/Graphics/SVG/1.1/DTD/svg11.dtd">
<svg preserveAspectRatio="none" version="1.1" id="图层_1" xmlns="http://www.w3.org/2000/svg" xmlns:xlink="http://www.w3.org/1999/xlink" x="0px" y="0px"
	 width="566.058px" height="283.085px" viewBox="0.242 283.493 566.058 283.085"
	 enable-background="new 0.242 283.493 566.058 283.085" xml:space="preserve">
<g id="surface791">
	
		<linearGradient id="SVGID_1_" gradientUnits="userSpaceOnUse" x1="227.6528" y1="178.3818" x2="202.2261" y2="178.3818" gradientTransform="matrix(0.75 0 0 -0.75 376.5682 493.7462)">
		<stop  offset="0" style="stop-color:#9B9B9C"/>
		<stop  offset="0.01" style="stop-color:#E4E4E4"/>
		<stop  offset="0.02" style="stop-color:#CBCBCB"/>
		<stop  offset="0.64" style="stop-color:#C7C7C8"/>
		<stop  offset="0.99" style="stop-color:#C3C3C4"/>
		<stop  offset="1" style="stop-color:#909091"/>
	</linearGradient>
	<path fill="url(#SVGID_1_)" d="M528.238,342.769h18.75c0,0,0.32,0.887,0.32,2.125l-0.32,30.125c0,1.5,0.27,2.191,0.203,2.191
		l-18.953,0.059c0,0,0-1.063,0-2.301v-29.949c0-1.5,0.047-2.367,0.109-2.367L528.238,342.769z"/>
	
		<linearGradient id="SVGID_2_" gradientUnits="userSpaceOnUse" x1="747.2231" y1="86.8062" x2="202.2231" y2="86.8061" gradientTransform="matrix(0.75 0 0 -0.75 1.1718 528.2833)">
		<stop  offset="0" style="stop-color:#B5B5B5"/>
		<stop  offset="0.01" style="stop-color:#FFFFFF"/>
		<stop  offset="0.02" style="stop-color:#EBEBEB"/>
		<stop  offset="0.64" style="stop-color:#E7E7E7"/>
		<stop  offset="0.99" style="stop-color:#E2E2E2"/>
		<stop  offset="1" style="stop-color:#A8A8A8"/>
	</linearGradient>
	<path fill="url(#SVGID_2_)" d="M154.34,377.304h405.75c0.75,0,1.469,0.574,1.469,1.32l0.031,168.93c0,0.75-0.641,1.313-1.391,1.313
		l-405.859,0.188c-0.75,0-1.5-0.793-1.5-1.543V378.804c0-0.75,0.609-1.5,1.359-1.5H154.34z"/>
	
		<linearGradient id="SVGID_3_" gradientUnits="userSpaceOnUse" x1="227.563" y1="86.8057" x2="202.2241" y2="86.8057" gradientTransform="matrix(0.75 0 0 -0.75 1.1713 528.2833)">
		<stop  offset="0" style="stop-color:#B5B5B5"/>
		<stop  offset="0.01" style="stop-color:#FFFFFF"/>
		<stop  offset="0.02" style="stop-color:#EBEBEB"/>
		<stop  offset="0.64" style="stop-color:#E7E7E7"/>
		<stop  offset="0.99" style="stop-color:#E2E2E2"/>
		<stop  offset="1" style="stop-color:#A8A8A8"/>
	</linearGradient>
	<path fill="url(#SVGID_3_)" d="M152.84,377.304h18.75c0,0,0.254,0.57,0.254,1.32l-0.254,168.93c0,0.75,0.227,1.313,0.191,1.313
		l-18.941,0.188c0,0,0-0.793,0-1.543V378.804c0-0.75,0.027-1.5,0.063-1.5H152.84z"/>
	
		<linearGradient id="SVGID_4_" gradientUnits="userSpaceOnUse" x1="227.5645" y1="86.8057" x2="202.2256" y2="86.8057" gradientTransform="matrix(0.75 0 0 -0.75 390.8846 528.2833)">
		<stop  offset="0" style="stop-color:#B5B5B5"/>
		<stop  offset="0.01" style="stop-color:#FFFFFF"/>
		<stop  offset="0.02" style="stop-color:#EBEBEB"/>
		<stop  offset="0.64" style="stop-color:#E7E7E7"/>
		<stop  offset="0.99" style="stop-color:#E2E2E2"/>
		<stop  offset="1" style="stop-color:#A8A8A8"/>
	</linearGradient>
	<path fill="url(#SVGID_4_)" d="M542.554,377.304h18.75c0,0,0.254,0.57,0.254,1.32l-0.254,168.93c0,0.75,0.223,1.313,0.188,1.313
		l-18.938,0.188c0,0,0-0.793,0-1.543V378.804c0-0.75,0.027-1.5,0.063-1.5H542.554z"/>
	
		<linearGradient id="SVGID_5_" gradientUnits="userSpaceOnUse" x1="534.2241" y1="196.8345" x2="202.2241" y2="196.8344" gradientTransform="matrix(0.75 0 0 -0.75 -151.4264 526.59)">
		<stop  offset="0" style="stop-color:#000000"/>
		<stop  offset="0.01" style="stop-color:#7C7C7C"/>
		<stop  offset="0.02" style="stop-color:#000000"/>
		<stop  offset="0.64" style="stop-color:#000000"/>
		<stop  offset="0.99" style="stop-color:#000000"/>
		<stop  offset="1" style="stop-color:#000000"/>
	</linearGradient>
	<path fill="url(#SVGID_5_)" d="M0.992,375.613h246.75c0.75,0,1.234,0.758,1.234,1.75l0.266,3.5c0,0.75-0.746,1.441-1.344,1.441
		L0.992,382.363c0,0-0.75-0.863-0.75-1.855v-3.395c0-0.75,0.426-1.547,1.023-1.547L0.992,375.613z"/>
	
		<linearGradient id="SVGID_6_" gradientUnits="userSpaceOnUse" x1="241.3042" y1="176.1714" x2="202.2261" y2="176.1714" gradientTransform="matrix(0.75 0 0 -0.75 380.0487 456.4913)">
		<stop  offset="0" style="stop-color:#B5B5B5"/>
		<stop  offset="0.01" style="stop-color:#FFFFFF"/>
		<stop  offset="0.02" style="stop-color:#EBEBEB"/>
		<stop  offset="0.64" style="stop-color:#E7E7E7"/>
		<stop  offset="0.99" style="stop-color:#E2E2E2"/>
		<stop  offset="1" style="stop-color:#A8A8A8"/>
	</linearGradient>
	<path fill="url(#SVGID_6_)" d="M531.718,305.515h29.25c0,0,0.059,0.973,0.059,2.332l-0.059,32.918c0,1.5-0.023,2.574-0.121,2.574
		l-29.129-0.324c0,0,0-0.777,0-2.141v-33.109c0-1.5,0.07-2.379,0.172-2.379L531.718,305.515z"/>
	
		<linearGradient id="SVGID_7_" gradientUnits="userSpaceOnUse" x1="254.7251" y1="201.3867" x2="254.7251" y2="133.3037" gradientTransform="matrix(0.75 0 0 -0.75 95.6044 488.4767)">
		<stop  offset="0" style="stop-color:#B5B5B5"/>
		<stop  offset="0.01" style="stop-color:#FFFFFF"/>
		<stop  offset="0.02" style="stop-color:#EBEBEB"/>
		<stop  offset="0.64" style="stop-color:#E7E7E7"/>
		<stop  offset="0.99" style="stop-color:#E2E2E2"/>
		<stop  offset="1" style="stop-color:#A8A8A8"/>
	</linearGradient>
	<path fill="url(#SVGID_7_)" d="M248.773,337.5h75c1.5,0,2.004,0.457,2.004,1.102L326.023,387c0,0.75-1.102,1.355-2.102,1.355
		l-75.148,0.145c-0.75,0-1.5-0.664-1.5-1.309V338.25c0,0,0.809-0.813,1.809-0.813L248.773,337.5z"/>
	
		<linearGradient id="SVGID_8_" gradientUnits="userSpaceOnUse" x1="467.2231" y1="192.8037" x2="202.2231" y2="192.8037" gradientTransform="matrix(0.75 0 0 -0.75 -103.3751 514.0665)">
		<stop  offset="0" style="stop-color:#292525"/>
		<stop  offset="0.01" style="stop-color:#868584"/>
		<stop  offset="0.02" style="stop-color:#383433"/>
		<stop  offset="0.64" style="stop-color:#373332"/>
		<stop  offset="0.99" style="stop-color:#363130"/>
		<stop  offset="1" style="stop-color:#252221"/>
	</linearGradient>
	<path fill="url(#SVGID_8_)" d="M247.043,375.839H48.293v-12.75h198.75V375.839z"/>
	
		<linearGradient id="SVGID_9_" gradientUnits="userSpaceOnUse" x1="482.6157" y1="196.1289" x2="202.2251" y2="196.1289" gradientTransform="matrix(0.75 0 0 -0.75 -114.6813 506.3048)">
		<stop  offset="0" style="stop-color:#3D3B3B"/>
		<stop  offset="0.01" style="stop-color:#908F8F"/>
		<stop  offset="0.02" style="stop-color:#514F4F"/>
		<stop  offset="0.64" style="stop-color:#504E4E"/>
		<stop  offset="0.99" style="stop-color:#4E4C4C"/>
		<stop  offset="1" style="stop-color:#383636"/>
	</linearGradient>
	<path fill="url(#SVGID_9_)" d="M38.488,355.328h207.75c0.75,0,1.043,0.535,1.043,1.285l-0.293,5.465
		c0,0.75-0.313,1.082-1.063,1.082l-207.438-0.332c-0.75,0-1.5-0.273-1.5-1.023v-4.977c0-0.75,0.605-1.57,1.355-1.57L38.488,355.328z
		"/>
	
		<linearGradient id="SVGID_10_" gradientUnits="userSpaceOnUse" x1="221.2246" y1="199.3057" x2="202.2246" y2="199.3057" gradientTransform="matrix(0.75 0 0 -0.75 101.9447 486.0138)">
		<stop  offset="0" style="stop-color:#2B2827"/>
		<stop  offset="0.15" style="stop-color:#5B5858"/>
		<stop  offset="0.25" style="stop-color:#B8B7B7"/>
		<stop  offset="0.52" style="stop-color:#353130"/>
		<stop  offset="0.69" style="stop-color:#2E2A29"/>
		<stop  offset="0.8" style="stop-color:#2B2726"/>
		<stop  offset="0.92" style="stop-color:#282424"/>
		<stop  offset="1" style="stop-color:#2F2B2B"/>
	</linearGradient>
	<path fill="url(#SVGID_10_)" d="M253.613,338.035h14.25v-3h-14.25V338.035z"/>
	
		<linearGradient id="SVGID_11_" gradientUnits="userSpaceOnUse" x1="221.7256" y1="201.3057" x2="221.7256" y2="197.3057" gradientTransform="matrix(0.75 0 0 -0.75 108.2758 482.7247)">
		<stop  offset="0" style="stop-color:#2B2827"/>
		<stop  offset="0.15" style="stop-color:#5B5858"/>
		<stop  offset="0.25" style="stop-color:#B8B7B7"/>
		<stop  offset="0.52" style="stop-color:#353130"/>
		<stop  offset="0.69" style="stop-color:#2E2A29"/>
		<stop  offset="0.8" style="stop-color:#2B2726"/>
		<stop  offset="0.92" style="stop-color:#282424"/>
		<stop  offset="1" style="stop-color:#2F2B2B"/>
	</linearGradient>
	<path fill="url(#SVGID_11_)" d="M259.945,334.746h29.25v-3h-29.25V334.746z"/>
	
		<linearGradient id="SVGID_12_" gradientUnits="userSpaceOnUse" x1="212.2261" y1="198.6729" x2="202.1323" y2="198.6729" gradientTransform="matrix(0.75 0 0 -0.75 104.7284 482.1407)">
		<stop  offset="0" style="stop-color:#2B2827"/>
		<stop  offset="0.15" style="stop-color:#5B5858"/>
		<stop  offset="0.25" style="stop-color:#B8B7B7"/>
		<stop  offset="0.52" style="stop-color:#353130"/>
		<stop  offset="0.69" style="stop-color:#2E2A29"/>
		<stop  offset="0.8" style="stop-color:#2B2726"/>
		<stop  offset="0.92" style="stop-color:#282424"/>
		<stop  offset="1" style="stop-color:#2F2B2B"/>
	</linearGradient>
	<path fill="url(#SVGID_12_)" d="M257.898,331.164h4.5c0.75,0,1.391,0.313,1.391,0.711l0.109,2.289c0,0.75-0.719,0.945-1.465,0.945
		l-4.535-0.195c-0.75,0-1.57-0.129-1.57-0.523l0.07-2.477c0-0.75,0.535-0.75,1.285-0.75H257.898z"/>
	
		<linearGradient id="SVGID_13_" gradientUnits="userSpaceOnUse" x1="211.228" y1="193.3037" x2="202.228" y2="193.3037" gradientTransform="matrix(0.75 0 0 -0.75 6.6102 699.7736)">
		<stop  offset="0" style="stop-color:#2B2827"/>
		<stop  offset="0.15" style="stop-color:#5B5858"/>
		<stop  offset="0.25" style="stop-color:#B8B7B7"/>
		<stop  offset="0.52" style="stop-color:#353130"/>
		<stop  offset="0.69" style="stop-color:#2E2A29"/>
		<stop  offset="0.8" style="stop-color:#2B2726"/>
		<stop  offset="0.92" style="stop-color:#282424"/>
		<stop  offset="1" style="stop-color:#2F2B2B"/>
	</linearGradient>
	<path fill="url(#SVGID_13_)" d="M158.281,548.796h6.75v12h-6.75V548.796z"/>
	
		<linearGradient id="SVGID_14_" gradientUnits="userSpaceOnUse" x1="240.2236" y1="197.3345" x2="202.167" y2="197.3345" gradientTransform="matrix(0.75 0 0 -0.75 -4.254 711.5577)">
		<stop  offset="0" style="stop-color:#2B2827"/>
		<stop  offset="0.15" style="stop-color:#5B5858"/>
		<stop  offset="0.25" style="stop-color:#B8B7B7"/>
		<stop  offset="0.52" style="stop-color:#353130"/>
		<stop  offset="0.69" style="stop-color:#2E2A29"/>
		<stop  offset="0.8" style="stop-color:#2B2726"/>
		<stop  offset="0.92" style="stop-color:#282424"/>
		<stop  offset="1" style="stop-color:#2F2B2B"/>
	</linearGradient>
	<path fill="url(#SVGID_14_)" d="M148.914,560.578h25.5c0.75,0,1.449,0.566,1.449,1.313l0.051,3.188c0,0.75-0.656,1.328-1.406,1.328
		l-25.594,0.172c-0.75,0-1.543-0.777-1.543-1.523l0.043-2.977c0-0.75,0.566-1.539,1.316-1.539L148.914,560.578z"/>
	
		<linearGradient id="SVGID_15_" gradientUnits="userSpaceOnUse" x1="211.2246" y1="193.3037" x2="202.2246" y2="193.3037" gradientTransform="matrix(0.75 0 0 -0.75 396.995 699.7736)">
		<stop  offset="0" style="stop-color:#2B2827"/>
		<stop  offset="0.15" style="stop-color:#5B5858"/>
		<stop  offset="0.25" style="stop-color:#B8B7B7"/>
		<stop  offset="0.52" style="stop-color:#353130"/>
		<stop  offset="0.69" style="stop-color:#2E2A29"/>
		<stop  offset="0.8" style="stop-color:#2B2726"/>
		<stop  offset="0.92" style="stop-color:#282424"/>
		<stop  offset="1" style="stop-color:#2F2B2B"/>
	</linearGradient>
	<path fill="url(#SVGID_15_)" d="M548.664,548.796h6.75v12h-6.75V548.796z"/>
	
		<linearGradient id="SVGID_16_" gradientUnits="userSpaceOnUse" x1="240.2275" y1="197.3345" x2="202.1699" y2="197.3345" gradientTransform="matrix(0.75 0 0 -0.75 386.1298 711.5577)">
		<stop  offset="0" style="stop-color:#2B2827"/>
		<stop  offset="0.15" style="stop-color:#5B5858"/>
		<stop  offset="0.25" style="stop-color:#B8B7B7"/>
		<stop  offset="0.52" style="stop-color:#353130"/>
		<stop  offset="0.69" style="stop-color:#2E2A29"/>
		<stop  offset="0.8" style="stop-color:#2B2726"/>
		<stop  offset="0.92" style="stop-color:#282424"/>
		<stop  offset="1" style="stop-color:#2F2B2B"/>
	</linearGradient>
	<path fill="url(#SVGID_16_)" d="M539.3,560.578h25.5c0.75,0,1.449,0.566,1.449,1.313l0.051,3.188c0,0.75-0.66,1.328-1.41,1.328
		l-25.59,0.172c-0.75,0-1.543-0.777-1.543-1.523l0.043-2.977c0-0.75,0.563-1.539,1.313-1.539L539.3,560.578z"/>
	
		<linearGradient id="SVGID_17_" gradientUnits="userSpaceOnUse" x1="211.2256" y1="193.3037" x2="202.2256" y2="193.3037" gradientTransform="matrix(0.75 0 0 -0.75 201.8026 699.7736)">
		<stop  offset="0" style="stop-color:#2B2827"/>
		<stop  offset="0.15" style="stop-color:#5B5858"/>
		<stop  offset="0.25" style="stop-color:#B8B7B7"/>
		<stop  offset="0.52" style="stop-color:#353130"/>
		<stop  offset="0.69" style="stop-color:#2E2A29"/>
		<stop  offset="0.8" style="stop-color:#2B2726"/>
		<stop  offset="0.92" style="stop-color:#282424"/>
		<stop  offset="1" style="stop-color:#2F2B2B"/>
	</linearGradient>
	<path fill="url(#SVGID_17_)" d="M353.472,548.796h6.75v12h-6.75V548.796z"/>
	
		<linearGradient id="SVGID_18_" gradientUnits="userSpaceOnUse" x1="240.2217" y1="197.3345" x2="202.1699" y2="197.3345" gradientTransform="matrix(0.75 0 0 -0.75 190.9384 711.5577)">
		<stop  offset="0" style="stop-color:#2B2827"/>
		<stop  offset="0.15" style="stop-color:#5B5858"/>
		<stop  offset="0.25" style="stop-color:#B8B7B7"/>
		<stop  offset="0.52" style="stop-color:#353130"/>
		<stop  offset="0.69" style="stop-color:#2E2A29"/>
		<stop  offset="0.8" style="stop-color:#2B2726"/>
		<stop  offset="0.92" style="stop-color:#282424"/>
		<stop  offset="1" style="stop-color:#2F2B2B"/>
	</linearGradient>
	<path fill="url(#SVGID_18_)" d="M344.105,560.578h25.5c0.75,0,1.449,0.566,1.449,1.313l0.051,3.188c0,0.75-0.656,1.328-1.406,1.328
		l-25.594,0.172c-0.75,0-1.539-0.777-1.539-1.523l0.039-2.977c0-0.75,0.566-1.539,1.316-1.539L344.105,560.578z"/>
	
		<linearGradient id="SVGID_19_" gradientUnits="userSpaceOnUse" x1="347.7241" y1="201.5234" x2="347.7241" y2="131.3047" gradientTransform="matrix(0.75 0 0 -0.75 155.3934 551.8497)">
		<stop  offset="0" style="stop-color:#A8A8A8"/>
		<stop  offset="0.01" style="stop-color:#F2F2F2"/>
		<stop  offset="0.02" style="stop-color:#DBDBDB"/>
		<stop  offset="0.64" style="stop-color:#D8D8D8"/>
		<stop  offset="0.99" style="stop-color:#D3D3D3"/>
		<stop  offset="1" style="stop-color:#9C9C9C"/>
	</linearGradient>
	<path fill="url(#SVGID_19_)" d="M308.562,400.871h215.25c0.75,0,1.176,1.145,1.176,2.758l0.324,46.742c0,1.5-0.93,2.957-1.68,2.957
		l-215.07,0.043c-0.75,0-1.5-1.352-1.5-2.969v-46.531c0-1.5,0.551-3.164,1.301-3.164L308.562,400.871z"/>
	
		<linearGradient id="SVGID_20_" gradientUnits="userSpaceOnUse" x1="512.2241" y1="122.8101" x2="202.2241" y2="122.81" gradientTransform="matrix(0.75 0 0 -0.75 148.1864 434.4767)">
		<stop  offset="0" style="stop-color:#B5B5B5"/>
		<stop  offset="0.01" style="stop-color:#FFFFFF"/>
		<stop  offset="0.02" style="stop-color:#EBEBEB"/>
		<stop  offset="0.64" style="stop-color:#E7E7E7"/>
		<stop  offset="0.99" style="stop-color:#E2E2E2"/>
		<stop  offset="1" style="stop-color:#A8A8A8"/>
	</linearGradient>
	<path fill="url(#SVGID_20_)" d="M404.855,283.5c0.75,0,125.559,0,125.559,0c1.191,0,1.781,0.691,1.781,1.542l0.16,114.707
		c0,0.75-0.957,1.297-1.941,1.297l-229.059,0.203c-0.75,0-1.5-0.891-1.5-1.742V334.5c0,0,0.566-51.722,104.641-51H404.855z"/>
	
		<linearGradient id="SVGID_21_" gradientUnits="userSpaceOnUse" x1="245.8389" y1="201.3018" x2="245.8389" y2="143.3018" gradientTransform="matrix(0.75 0 0 -0.75 26.8612 541.7257)">
		<stop  offset="0" style="stop-color:#A8A8A8"/>
		<stop  offset="0.01" style="stop-color:#F2F2F2"/>
		<stop  offset="0.02" style="stop-color:#DBDBDB"/>
		<stop  offset="0.64" style="stop-color:#D8D8D8"/>
		<stop  offset="0.99" style="stop-color:#D3D3D3"/>
		<stop  offset="1" style="stop-color:#9C9C9C"/>
	</linearGradient>
	<path fill="url(#SVGID_21_)" d="M180.031,390.75h62.25c0.75,0,1.668,1.344,1.668,3.004l-0.168,37.496
		c0,1.5-0.656,2.715-1.668,2.715l-62.082,0.285c-0.75,0-1.5-1.633-1.5-3.293V393.75c0-1.5,0.82-3,1.836-3H180.031z"/>
	<path fill="#EBEEF0" d="M184.141,393.894h54v26.25h-54V393.894z"/>
	<path fill="#595757" d="M188.105,396.832h46.5v20.25h-46.5V396.832z"/>
	
		<linearGradient id="SVGID_22_" gradientUnits="userSpaceOnUse" x1="179.6211" y1="216.7178" x2="179.6211" y2="203.6455" gradientTransform="matrix(0.6495 -0.375 -0.375 -0.6495 234.4397 629.266)">
		<stop  offset="0" style="stop-color:#909191"/>
		<stop  offset="0.01" style="stop-color:#D8D9D9"/>
		<stop  offset="0.02" style="stop-color:#BDBEBE"/>
		<stop  offset="0.64" style="stop-color:#BABABA"/>
		<stop  offset="0.99" style="stop-color:#B5B6B6"/>
		<stop  offset="1" style="stop-color:#868787"/>
	</linearGradient>
	<path fill="url(#SVGID_22_)" d="M224.938,447.132l89.632-51.75c0.648-0.375,2.074,0.078,2.793,1.32l1.879,3.773
		c0.75,1.301,0.844,2.648,0.047,3.109l-89.476,51.988c-0.652,0.375-2.023-0.504-2.742-1.746l-2.309-3.996
		c-0.75-1.301-0.504-2.371,0.293-2.832L224.938,447.132z"/>
</g>
</svg>
