<?xml version="1.0" encoding="utf-8"?>
<!-- Generator: Adobe Illustrator 16.0.0, SVG Export Plug-In . SVG Version: 6.00 Build 0)  -->
<!DOCTYPE svg PUBLIC "-//W3C//DTD SVG 1.1//EN" "http://www.w3.org/Graphics/SVG/1.1/DTD/svg11.dtd">
<svg preserveAspectRatio="none" version="1.1" id="图层_1" xmlns="http://www.w3.org/2000/svg" xmlns:xlink="http://www.w3.org/1999/xlink" x="0px" y="0px"
	 width="464.535px" height="567.105px" viewBox="51.234 -0.078 464.535 567.105"
	 enable-background="new 51.234 -0.078 464.535 567.105" xml:space="preserve">
<g id="surface986">
	
		<linearGradient id="SVGID_1_" gradientUnits="userSpaceOnUse" x1="316.2251" y1="77.8027" x2="202.2251" y2="77.8027" gradientTransform="matrix(0.75 0 0 -0.75 269.7206 203.6954)">
		<stop  offset="0" style="stop-color:#5C647B"/>
		<stop  offset="0.01" style="stop-color:#A7ADC3"/>
		<stop  offset="0.02" style="stop-color:#7A83A2"/>
		<stop  offset="0.64" style="stop-color:#78819F"/>
		<stop  offset="0.99" style="stop-color:#757E9B"/>
		<stop  offset="1" style="stop-color:#555C72"/>
	</linearGradient>
	<path fill="url(#SVGID_1_)" d="M421.39,52.719h85.5v185.25h-85.5V52.719z"/>
	
		<linearGradient id="SVGID_2_" gradientUnits="userSpaceOnUse" x1="257.2266" y1="171.8027" x2="202.2266" y2="171.8027" gradientTransform="matrix(0.75 0 0 -0.75 133.2084 150.8986)">
		<stop  offset="0" style="stop-color:#BDBDBD"/>
		<stop  offset="0.15" style="stop-color:#FFFFFF"/>
		<stop  offset="0.25" style="stop-color:#FFFFFF"/>
		<stop  offset="0.52" style="stop-color:#DFDFDF"/>
		<stop  offset="0.69" style="stop-color:#C7C7C7"/>
		<stop  offset="0.8" style="stop-color:#BCBCBC"/>
		<stop  offset="0.92" style="stop-color:#B1B1B1"/>
		<stop  offset="1" style="stop-color:#CBCBCB"/>
	</linearGradient>
	<path fill="url(#SVGID_2_)" d="M284.878,44.172h41.25v-36c0,0-2.09-8.25-21.266-8.25c-19.234,0-19.984,7.969-19.984,7.969V44.172z"
		/>
	
		<linearGradient id="SVGID_3_" gradientUnits="userSpaceOnUse" x1="257.2222" y1="171.8027" x2="202.2222" y2="171.8027" gradientTransform="matrix(0.75 0 0 -0.75 189.7509 150.8986)">
		<stop  offset="0" style="stop-color:#BDBDBD"/>
		<stop  offset="0.15" style="stop-color:#FFFFFF"/>
		<stop  offset="0.25" style="stop-color:#FFFFFF"/>
		<stop  offset="0.52" style="stop-color:#DFDFDF"/>
		<stop  offset="0.69" style="stop-color:#C7C7C7"/>
		<stop  offset="0.8" style="stop-color:#BCBCBC"/>
		<stop  offset="0.92" style="stop-color:#B1B1B1"/>
		<stop  offset="1" style="stop-color:#CBCBCB"/>
	</linearGradient>
	<path fill="url(#SVGID_3_)" d="M341.417,44.172h41.25v-36c0,0-2.086-8.25-21.262-8.25c-19.238,0-19.988,7.969-19.988,7.969V44.172z
		"/>
	
		<linearGradient id="SVGID_4_" gradientUnits="userSpaceOnUse" x1="821.2251" y1="183.3042" x2="202.2256" y2="183.3041" gradientTransform="matrix(0.75 0 0 -0.75 -100.1505 397.4103)">
		<stop  offset="0" style="stop-color:#B59900"/>
		<stop  offset="0.01" style="stop-color:#FFE17C"/>
		<stop  offset="0.02" style="stop-color:#EBC800"/>
		<stop  offset="0.64" style="stop-color:#E7C400"/>
		<stop  offset="0.99" style="stop-color:#E2C000"/>
		<stop  offset="1" style="stop-color:#A88E00"/>
	</linearGradient>
	<path fill="url(#SVGID_4_)" d="M51.52,246.434h464.25v27H51.52V246.434z"/>
	
		<linearGradient id="SVGID_5_" gradientUnits="userSpaceOnUse" x1="821.2251" y1="171.8047" x2="202.2256" y2="171.8046" gradientTransform="matrix(0.75 0 0 -0.75 -100.1505 423.4142)">
		<stop  offset="0" style="stop-color:#B59900"/>
		<stop  offset="0.01" style="stop-color:#FFE17C"/>
		<stop  offset="0.02" style="stop-color:#EBC800"/>
		<stop  offset="0.64" style="stop-color:#E7C400"/>
		<stop  offset="0.99" style="stop-color:#E2C000"/>
		<stop  offset="1" style="stop-color:#A88E00"/>
	</linearGradient>
	<path fill="url(#SVGID_5_)" d="M51.52,272.438h464.25v44.25H89.02L51.52,272.438z"/>
	
		<linearGradient id="SVGID_6_" gradientUnits="userSpaceOnUse" x1="265.2246" y1="34.3027" x2="202.2246" y2="34.3027" gradientTransform="matrix(0.75 0 0 -0.75 316.4052 467.504)">
		<stop  offset="0" style="stop-color:#5C647B"/>
		<stop  offset="0.01" style="stop-color:#A7ADC3"/>
		<stop  offset="0.02" style="stop-color:#7A83A2"/>
		<stop  offset="0.64" style="stop-color:#78819F"/>
		<stop  offset="0.99" style="stop-color:#757E9B"/>
		<stop  offset="1" style="stop-color:#555C72"/>
	</linearGradient>
	<path fill="url(#SVGID_6_)" d="M515.324,316.527h-47.25v250.5h47.25V316.527z"/>
	
		<linearGradient id="SVGID_7_" gradientUnits="userSpaceOnUse" x1="265.2246" y1="34.3027" x2="202.2246" y2="34.3027" gradientTransform="matrix(0.75 0 0 -0.75 -61.8248 467.504)">
		<stop  offset="0" style="stop-color:#5C647B"/>
		<stop  offset="0.01" style="stop-color:#A7ADC3"/>
		<stop  offset="0.02" style="stop-color:#7A83A2"/>
		<stop  offset="0.64" style="stop-color:#78819F"/>
		<stop  offset="0.99" style="stop-color:#757E9B"/>
		<stop  offset="1" style="stop-color:#555C72"/>
	</linearGradient>
	<path fill="url(#SVGID_7_)" d="M137.094,316.527h-47.25v250.5h47.25V316.527z"/>
	
		<linearGradient id="SVGID_8_" gradientUnits="userSpaceOnUse" x1="645.2261" y1="168.3042" x2="202.2261" y2="168.3042" gradientTransform="matrix(0.75 0 0 -0.75 -15.694 504.0118)">
		<stop  offset="0" style="stop-color:#5C647B"/>
		<stop  offset="0.01" style="stop-color:#A7ADC3"/>
		<stop  offset="0.02" style="stop-color:#7A83A2"/>
		<stop  offset="0.64" style="stop-color:#78819F"/>
		<stop  offset="0.99" style="stop-color:#757E9B"/>
		<stop  offset="1" style="stop-color:#555C72"/>
	</linearGradient>
	<path fill="url(#SVGID_8_)" d="M135.977,353.035h332.25v49.5h-332.25V353.035z"/>
	
		<linearGradient id="SVGID_9_" gradientUnits="userSpaceOnUse" x1="821.2251" y1="195.3042" x2="202.2256" y2="195.3041" gradientTransform="matrix(0.75 0 0 -0.75 -100.1505 389.3947)">
		<stop  offset="0" style="stop-color:#AD6F28"/>
		<stop  offset="0.01" style="stop-color:#F6B886"/>
		<stop  offset="0.02" style="stop-color:#E19237"/>
		<stop  offset="0.64" style="stop-color:#DD9036"/>
		<stop  offset="0.99" style="stop-color:#D88C35"/>
		<stop  offset="1" style="stop-color:#A06725"/>
	</linearGradient>
	<path fill="url(#SVGID_9_)" d="M51.52,238.418h464.25v9H51.52V238.418z"/>
	
		<linearGradient id="SVGID_10_" gradientUnits="userSpaceOnUse" x1="821.2251" y1="195.3071" x2="202.2256" y2="195.3071" gradientTransform="matrix(0.75 0 0 -0.75 -100.1505 195.1622)">
		<stop  offset="0" style="stop-color:#AD6F28"/>
		<stop  offset="0.01" style="stop-color:#F6B886"/>
		<stop  offset="0.02" style="stop-color:#E19237"/>
		<stop  offset="0.64" style="stop-color:#DD9036"/>
		<stop  offset="0.99" style="stop-color:#D88C35"/>
		<stop  offset="1" style="stop-color:#A06725"/>
	</linearGradient>
	<path fill="url(#SVGID_10_)" d="M51.52,44.184h464.25v9H51.52V44.184z"/>
	
		<linearGradient id="SVGID_11_" gradientUnits="userSpaceOnUse" x1="213.2246" y1="65.8066" x2="202.2246" y2="65.8066" gradientTransform="matrix(0.75 0 0 -0.75 -100.2858 195.1622)">
		<stop  offset="0" style="stop-color:#AD6F28"/>
		<stop  offset="0.01" style="stop-color:#F6B886"/>
		<stop  offset="0.02" style="stop-color:#E19237"/>
		<stop  offset="0.64" style="stop-color:#DD9036"/>
		<stop  offset="0.99" style="stop-color:#D88C35"/>
		<stop  offset="1" style="stop-color:#A06725"/>
	</linearGradient>
	<path fill="url(#SVGID_11_)" d="M51.383,44.184h8.25v203.25h-8.25V44.184z"/>
	
		<linearGradient id="SVGID_12_" gradientUnits="userSpaceOnUse" x1="213.2227" y1="65.8066" x2="202.2227" y2="65.8066" gradientTransform="matrix(0.75 0 0 -0.75 355.0507 195.1622)">
		<stop  offset="0" style="stop-color:#AD6F28"/>
		<stop  offset="0.01" style="stop-color:#F6B886"/>
		<stop  offset="0.02" style="stop-color:#E19237"/>
		<stop  offset="0.64" style="stop-color:#DD9036"/>
		<stop  offset="0.99" style="stop-color:#D88C35"/>
		<stop  offset="1" style="stop-color:#A06725"/>
	</linearGradient>
	<path fill="url(#SVGID_12_)" d="M506.718,44.184h8.25v203.25h-8.25V44.184z"/>
	
		<linearGradient id="SVGID_13_" gradientUnits="userSpaceOnUse" x1="437.2241" y1="77.8027" x2="202.2241" y2="77.8027" gradientTransform="matrix(0.75 0 0 -0.75 -91.6569 203.6954)">
		<stop  offset="0" style="stop-color:#AD6F28"/>
		<stop  offset="0.01" style="stop-color:#F6B886"/>
		<stop  offset="0.02" style="stop-color:#E19237"/>
		<stop  offset="0.64" style="stop-color:#DD9036"/>
		<stop  offset="0.99" style="stop-color:#D88C35"/>
		<stop  offset="1" style="stop-color:#A06725"/>
	</linearGradient>
	<path fill="url(#SVGID_13_)" d="M60.012,52.719h176.25v185.25H60.012V52.719z"/>
	
		<linearGradient id="SVGID_14_" gradientUnits="userSpaceOnUse" x1="437.2251" y1="77.8027" x2="202.2256" y2="77.8027" gradientTransform="matrix(0.75 0 0 -0.75 84.6073 203.6954)">
		<stop  offset="0" style="stop-color:#AD6F28"/>
		<stop  offset="0.01" style="stop-color:#F6B886"/>
		<stop  offset="0.02" style="stop-color:#E19237"/>
		<stop  offset="0.64" style="stop-color:#DD9036"/>
		<stop  offset="0.99" style="stop-color:#D88C35"/>
		<stop  offset="1" style="stop-color:#A06725"/>
	</linearGradient>
	<path fill="url(#SVGID_14_)" d="M236.277,52.719h176.25v185.25h-176.25V52.719z"/>
	
		<linearGradient id="SVGID_15_" gradientUnits="userSpaceOnUse" x1="213.2236" y1="65.8066" x2="202.2236" y2="65.8066" gradientTransform="matrix(0.75 0 0 -0.75 260.871 195.1622)">
		<stop  offset="0" style="stop-color:#AD6F28"/>
		<stop  offset="0.01" style="stop-color:#F6B886"/>
		<stop  offset="0.02" style="stop-color:#E19237"/>
		<stop  offset="0.64" style="stop-color:#DD9036"/>
		<stop  offset="0.99" style="stop-color:#D88C35"/>
		<stop  offset="1" style="stop-color:#A06725"/>
	</linearGradient>
	<path fill="url(#SVGID_15_)" d="M412.539,44.184h8.25v203.25h-8.25V44.184z"/>
	<path fill="#FFFFFF" fill-opacity="0.3686" d="M432.207,69.023h27.75v27h-27.75V69.023z"/>
	<path fill="#FFFFFF" fill-opacity="0.3686" d="M470.066,69.023h27.75v27h-27.75V69.023z"/>
	
		<linearGradient id="SVGID_16_" gradientUnits="userSpaceOnUse" x1="216.6465" y1="194.166" x2="202.2246" y2="194.166" gradientTransform="matrix(0.75 0 0 -0.75 288.62 258.4552)">
		<stop  offset="0" style="stop-color:#AE4F52"/>
		<stop  offset="0.15" style="stop-color:#EC7D80"/>
		<stop  offset="0.25" style="stop-color:#F4C1C2"/>
		<stop  offset="0.52" style="stop-color:#CE5E62"/>
		<stop  offset="0.69" style="stop-color:#B75356"/>
		<stop  offset="0.8" style="stop-color:#AD4E51"/>
		<stop  offset="0.92" style="stop-color:#A3494C"/>
		<stop  offset="1" style="stop-color:#BB5559"/>
	</linearGradient>
	<path fill="url(#SVGID_16_)" d="M440.289,112.727c0-3,2.422-5.25,5.406-5.25c2.844,0,5.41,2.398,5.41,5.355
		c-0.316,2.895-2.422,5.355-5.41,5.355c-3.156-0.211-5.406-2.398-5.406-5.355V112.727z"/>
	
		<linearGradient id="SVGID_17_" gradientUnits="userSpaceOnUse" x1="216.646" y1="194.166" x2="202.2241" y2="194.166" gradientTransform="matrix(0.75 0 0 -0.75 325.495 258.4552)">
		<stop  offset="0" style="stop-color:#AE4F52"/>
		<stop  offset="0.15" style="stop-color:#EC7D80"/>
		<stop  offset="0.25" style="stop-color:#F4C1C2"/>
		<stop  offset="0.52" style="stop-color:#CE5E62"/>
		<stop  offset="0.69" style="stop-color:#B75356"/>
		<stop  offset="0.8" style="stop-color:#AD4E51"/>
		<stop  offset="0.92" style="stop-color:#A3494C"/>
		<stop  offset="1" style="stop-color:#BB5559"/>
	</linearGradient>
	<path fill="url(#SVGID_17_)" d="M477.164,112.727c0-3,2.422-5.25,5.41-5.25c2.84,0,5.406,2.398,5.406,5.355
		c-0.316,2.895-2.422,5.355-5.406,5.355c-3.16-0.211-5.41-2.398-5.41-5.355V112.727z"/>
	
		<linearGradient id="SVGID_18_" gradientUnits="userSpaceOnUse" x1="216.6465" y1="194.166" x2="202.2246" y2="194.166" gradientTransform="matrix(0.75 0 0 -0.75 288.62 278.5343)">
		<stop  offset="0" style="stop-color:#2B2827"/>
		<stop  offset="0.15" style="stop-color:#5B5858"/>
		<stop  offset="0.25" style="stop-color:#B8B7B7"/>
		<stop  offset="0.52" style="stop-color:#353130"/>
		<stop  offset="0.69" style="stop-color:#2E2A29"/>
		<stop  offset="0.8" style="stop-color:#2B2726"/>
		<stop  offset="0.92" style="stop-color:#282424"/>
		<stop  offset="1" style="stop-color:#2F2B2B"/>
	</linearGradient>
	<path fill="url(#SVGID_18_)" d="M440.289,132.805c0-3,2.422-5.25,5.406-5.25c2.844,0,5.41,2.398,5.41,5.355
		c-0.316,2.895-2.422,5.355-5.41,5.355c-3.156-0.211-5.406-2.398-5.406-5.355V132.805z"/>
	
		<linearGradient id="SVGID_19_" gradientUnits="userSpaceOnUse" x1="216.646" y1="194.166" x2="202.2241" y2="194.166" gradientTransform="matrix(0.75 0 0 -0.75 325.495 278.5343)">
		<stop  offset="0" style="stop-color:#2B2827"/>
		<stop  offset="0.15" style="stop-color:#5B5858"/>
		<stop  offset="0.25" style="stop-color:#B8B7B7"/>
		<stop  offset="0.52" style="stop-color:#353130"/>
		<stop  offset="0.69" style="stop-color:#2E2A29"/>
		<stop  offset="0.8" style="stop-color:#2B2726"/>
		<stop  offset="0.92" style="stop-color:#282424"/>
		<stop  offset="1" style="stop-color:#2F2B2B"/>
	</linearGradient>
	<path fill="url(#SVGID_19_)" d="M477.164,132.805c0-3,2.422-5.25,5.41-5.25c2.84,0,5.406,2.398,5.406,5.355
		c-0.316,2.895-2.422,5.355-5.406,5.355c-3.16-0.211-5.41-2.398-5.41-5.355V132.805z"/>
	
		<linearGradient id="SVGID_20_" gradientUnits="userSpaceOnUse" x1="216.6465" y1="194.1655" x2="202.2246" y2="194.1655" gradientTransform="matrix(0.75 0 0 -0.75 288.62 295.6925)">
		<stop  offset="0" style="stop-color:#BD8100"/>
		<stop  offset="0.15" style="stop-color:#FFB545"/>
		<stop  offset="0.25" style="stop-color:#FFD8B3"/>
		<stop  offset="0.52" style="stop-color:#DF9900"/>
		<stop  offset="0.69" style="stop-color:#C78800"/>
		<stop  offset="0.8" style="stop-color:#BC8000"/>
		<stop  offset="0.92" style="stop-color:#B17800"/>
		<stop  offset="1" style="stop-color:#CB8B00"/>
	</linearGradient>
	<path fill="url(#SVGID_20_)" d="M440.289,149.965c0-3,2.422-5.25,5.406-5.25c2.844,0,5.41,2.398,5.41,5.355
		c-0.316,2.895-2.422,5.352-5.41,5.352c-3.156-0.207-5.406-2.395-5.406-5.352V149.965z"/>
	
		<linearGradient id="SVGID_21_" gradientUnits="userSpaceOnUse" x1="216.646" y1="194.1655" x2="202.2241" y2="194.1655" gradientTransform="matrix(0.75 0 0 -0.75 325.495 295.6925)">
		<stop  offset="0" style="stop-color:#BD8100"/>
		<stop  offset="0.15" style="stop-color:#FFB545"/>
		<stop  offset="0.25" style="stop-color:#FFD8B3"/>
		<stop  offset="0.52" style="stop-color:#DF9900"/>
		<stop  offset="0.69" style="stop-color:#C78800"/>
		<stop  offset="0.8" style="stop-color:#BC8000"/>
		<stop  offset="0.92" style="stop-color:#B17800"/>
		<stop  offset="1" style="stop-color:#CB8B00"/>
	</linearGradient>
	<path fill="url(#SVGID_21_)" d="M477.164,149.965c0-3,2.422-5.25,5.41-5.25c2.84,0,5.406,2.398,5.406,5.355
		c-0.316,2.895-2.422,5.352-5.406,5.352c-3.16-0.207-5.41-2.395-5.41-5.352V149.965z"/>
	
		<linearGradient id="SVGID_22_" gradientUnits="userSpaceOnUse" x1="220.2246" y1="192.3037" x2="202.2246" y2="192.3037" gradientTransform="matrix(0.75 0 0 -0.75 280.2762 324.1681)">
		<stop  offset="0" style="stop-color:#AE4F52"/>
		<stop  offset="0.15" style="stop-color:#EC7D80"/>
		<stop  offset="0.25" style="stop-color:#F4C1C2"/>
		<stop  offset="0.52" style="stop-color:#CE5E62"/>
		<stop  offset="0.69" style="stop-color:#B75356"/>
		<stop  offset="0.8" style="stop-color:#AD4E51"/>
		<stop  offset="0.92" style="stop-color:#A3494C"/>
		<stop  offset="1" style="stop-color:#BB5559"/>
	</linearGradient>
	<path fill="url(#SVGID_22_)" d="M433.445,173.191h9.75c1.5,0,2.027,0.785,2.027,1.75l0.223,9.5c0,0.75-1.016,1.891-1.996,1.891
		l-10.004,0.359c-0.75,0-1.5-1.145-1.5-2.109v-9.891c0-0.75,0.793-1.5,1.77-1.5H433.445z"/>
	
		<linearGradient id="SVGID_23_" gradientUnits="userSpaceOnUse" x1="220.2236" y1="192.3037" x2="202.2236" y2="192.3037" gradientTransform="matrix(0.75 0 0 -0.75 305.8593 324.1681)">
		<stop  offset="0" style="stop-color:#AE4F52"/>
		<stop  offset="0.15" style="stop-color:#EC7D80"/>
		<stop  offset="0.25" style="stop-color:#F4C1C2"/>
		<stop  offset="0.52" style="stop-color:#CE5E62"/>
		<stop  offset="0.69" style="stop-color:#B75356"/>
		<stop  offset="0.8" style="stop-color:#AD4E51"/>
		<stop  offset="0.92" style="stop-color:#A3494C"/>
		<stop  offset="1" style="stop-color:#BB5559"/>
	</linearGradient>
	<path fill="url(#SVGID_23_)" d="M459.027,173.191h9.75c1.5,0,2.027,0.785,2.027,1.75l0.223,9.5c0,0.75-1.016,1.891-1.996,1.891
		l-10.004,0.359c-0.75,0-1.5-1.145-1.5-2.109v-9.891c0-0.75,0.793-1.5,1.77-1.5H459.027z"/>
	
		<linearGradient id="SVGID_24_" gradientUnits="userSpaceOnUse" x1="220.2236" y1="192.3037" x2="202.2236" y2="192.3037" gradientTransform="matrix(0.75 0 0 -0.75 331.4413 324.1681)">
		<stop  offset="0" style="stop-color:#AE4F52"/>
		<stop  offset="0.15" style="stop-color:#EC7D80"/>
		<stop  offset="0.25" style="stop-color:#F4C1C2"/>
		<stop  offset="0.52" style="stop-color:#CE5E62"/>
		<stop  offset="0.69" style="stop-color:#B75356"/>
		<stop  offset="0.8" style="stop-color:#AD4E51"/>
		<stop  offset="0.92" style="stop-color:#A3494C"/>
		<stop  offset="1" style="stop-color:#BB5559"/>
	</linearGradient>
	<path fill="url(#SVGID_24_)" d="M484.609,173.191h9.75c1.5,0,2.027,0.785,2.027,1.75l0.223,9.5c0,0.75-1.016,1.891-1.996,1.891
		l-10.004,0.359c-0.75,0-1.5-1.145-1.5-2.109v-9.891c0-0.75,0.793-1.5,1.77-1.5H484.609z"/>
	
		<linearGradient id="SVGID_25_" gradientUnits="userSpaceOnUse" x1="220.2246" y1="192.3047" x2="202.2246" y2="192.3047" gradientTransform="matrix(0.75 0 0 -0.75 280.2762 346.2091)">
		<stop  offset="0" style="stop-color:#398C8E"/>
		<stop  offset="0.15" style="stop-color:#67C3C5"/>
		<stop  offset="0.25" style="stop-color:#BBDEE0"/>
		<stop  offset="0.52" style="stop-color:#45A6A9"/>
		<stop  offset="0.69" style="stop-color:#3C9396"/>
		<stop  offset="0.8" style="stop-color:#388B8D"/>
		<stop  offset="0.92" style="stop-color:#358385"/>
		<stop  offset="1" style="stop-color:#3E9799"/>
	</linearGradient>
	<path fill="url(#SVGID_25_)" d="M433.445,195.23h9.75c1.5,0,2.027,0.785,2.027,1.754l0.223,9.496c0,0.75-1.016,1.895-1.996,1.895
		l-10.004,0.355c-0.75,0-1.5-1.141-1.5-2.109v-9.891c0-0.75,0.793-1.5,1.77-1.5H433.445z"/>
	
		<linearGradient id="SVGID_26_" gradientUnits="userSpaceOnUse" x1="220.2236" y1="192.3047" x2="202.2236" y2="192.3047" gradientTransform="matrix(0.75 0 0 -0.75 305.8593 346.2091)">
		<stop  offset="0" style="stop-color:#398C8E"/>
		<stop  offset="0.15" style="stop-color:#67C3C5"/>
		<stop  offset="0.25" style="stop-color:#BBDEE0"/>
		<stop  offset="0.52" style="stop-color:#45A6A9"/>
		<stop  offset="0.69" style="stop-color:#3C9396"/>
		<stop  offset="0.8" style="stop-color:#388B8D"/>
		<stop  offset="0.92" style="stop-color:#358385"/>
		<stop  offset="1" style="stop-color:#3E9799"/>
	</linearGradient>
	<path fill="url(#SVGID_26_)" d="M459.027,195.23h9.75c1.5,0,2.027,0.785,2.027,1.754l0.223,9.496c0,0.75-1.016,1.895-1.996,1.895
		l-10.004,0.355c-0.75,0-1.5-1.141-1.5-2.109v-9.891c0-0.75,0.793-1.5,1.77-1.5H459.027z"/>
	
		<linearGradient id="SVGID_27_" gradientUnits="userSpaceOnUse" x1="220.2236" y1="192.3047" x2="202.2236" y2="192.3047" gradientTransform="matrix(0.75 0 0 -0.75 331.4413 346.2091)">
		<stop  offset="0" style="stop-color:#398C8E"/>
		<stop  offset="0.15" style="stop-color:#67C3C5"/>
		<stop  offset="0.25" style="stop-color:#BBDEE0"/>
		<stop  offset="0.52" style="stop-color:#45A6A9"/>
		<stop  offset="0.69" style="stop-color:#3C9396"/>
		<stop  offset="0.8" style="stop-color:#388B8D"/>
		<stop  offset="0.92" style="stop-color:#358385"/>
		<stop  offset="1" style="stop-color:#3E9799"/>
	</linearGradient>
	<path fill="url(#SVGID_27_)" d="M484.609,195.23h9.75c1.5,0,2.027,0.785,2.027,1.754l0.223,9.496c0,0.75-1.016,1.895-1.996,1.895
		l-10.004,0.355c-0.75,0-1.5-1.141-1.5-2.109v-9.891c0-0.75,0.793-1.5,1.77-1.5H484.609z"/>
	
		<linearGradient id="SVGID_28_" gradientUnits="userSpaceOnUse" x1="220.2246" y1="192.3066" x2="202.2246" y2="192.3066" gradientTransform="matrix(0.75 0 0 -0.75 280.2762 368.1779)">
		<stop  offset="0" style="stop-color:#8C9F2E"/>
		<stop  offset="0.15" style="stop-color:#C3DA5E"/>
		<stop  offset="0.25" style="stop-color:#DEEAB8"/>
		<stop  offset="0.52" style="stop-color:#A6BC39"/>
		<stop  offset="0.69" style="stop-color:#93A731"/>
		<stop  offset="0.8" style="stop-color:#8B9E2E"/>
		<stop  offset="0.92" style="stop-color:#83952B"/>
		<stop  offset="1" style="stop-color:#97AB33"/>
	</linearGradient>
	<path fill="url(#SVGID_28_)" d="M433.445,217.199h9.75c1.5,0,2.027,0.785,2.027,1.754l0.223,9.496c0,0.75-1.016,1.895-1.996,1.895
		l-10.004,0.355c-0.75,0-1.5-1.141-1.5-2.109v-9.891c0-0.75,0.793-1.5,1.77-1.5H433.445z"/>
	
		<linearGradient id="SVGID_29_" gradientUnits="userSpaceOnUse" x1="220.2236" y1="192.3066" x2="202.2236" y2="192.3066" gradientTransform="matrix(0.75 0 0 -0.75 305.8593 368.1779)">
		<stop  offset="0" style="stop-color:#8C9F2E"/>
		<stop  offset="0.15" style="stop-color:#C3DA5E"/>
		<stop  offset="0.25" style="stop-color:#DEEAB8"/>
		<stop  offset="0.52" style="stop-color:#A6BC39"/>
		<stop  offset="0.69" style="stop-color:#93A731"/>
		<stop  offset="0.8" style="stop-color:#8B9E2E"/>
		<stop  offset="0.92" style="stop-color:#83952B"/>
		<stop  offset="1" style="stop-color:#97AB33"/>
	</linearGradient>
	<path fill="url(#SVGID_29_)" d="M459.027,217.199h9.75c1.5,0,2.027,0.785,2.027,1.754l0.223,9.496c0,0.75-1.016,1.895-1.996,1.895
		l-10.004,0.355c-0.75,0-1.5-1.141-1.5-2.109v-9.891c0-0.75,0.793-1.5,1.77-1.5H459.027z"/>
	
		<linearGradient id="SVGID_30_" gradientUnits="userSpaceOnUse" x1="220.2236" y1="192.3066" x2="202.2236" y2="192.3066" gradientTransform="matrix(0.75 0 0 -0.75 331.4413 368.1779)">
		<stop  offset="0" style="stop-color:#8C9F2E"/>
		<stop  offset="0.15" style="stop-color:#C3DA5E"/>
		<stop  offset="0.25" style="stop-color:#DEEAB8"/>
		<stop  offset="0.52" style="stop-color:#A6BC39"/>
		<stop  offset="0.69" style="stop-color:#93A731"/>
		<stop  offset="0.8" style="stop-color:#8B9E2E"/>
		<stop  offset="0.92" style="stop-color:#83952B"/>
		<stop  offset="1" style="stop-color:#97AB33"/>
	</linearGradient>
	<path fill="url(#SVGID_30_)" d="M484.609,217.199h9.75c1.5,0,2.027,0.785,2.027,1.754l0.223,9.496c0,0.75-1.016,1.895-1.996,1.895
		l-10.004,0.355c-0.75,0-1.5-1.141-1.5-2.109v-9.891c0-0.75,0.793-1.5,1.77-1.5H484.609z"/>
	
		<linearGradient id="SVGID_31_" gradientUnits="userSpaceOnUse" x1="645.2261" y1="142.8042" x2="202.2261" y2="142.8042" gradientTransform="matrix(0.75 0 0 -0.75 -15.694 592.7228)">
		<stop  offset="0" style="stop-color:#5C647B"/>
		<stop  offset="0.01" style="stop-color:#A7ADC3"/>
		<stop  offset="0.02" style="stop-color:#7A83A2"/>
		<stop  offset="0.64" style="stop-color:#78819F"/>
		<stop  offset="0.99" style="stop-color:#757E9B"/>
		<stop  offset="1" style="stop-color:#555C72"/>
	</linearGradient>
	<path fill="url(#SVGID_31_)" d="M135.977,441.746h332.25v87.75h-332.25V441.746z"/>
	
		<linearGradient id="SVGID_32_" gradientUnits="userSpaceOnUse" x1="244.2231" y1="183.3027" x2="202.2231" y2="183.3027" gradientTransform="matrix(0.75 0 0 -0.75 -100.4332 397.297)">
		<stop  offset="0" style="stop-color:#000000"/>
		<stop  offset="0.01" style="stop-color:#7C7C7C"/>
		<stop  offset="0.02" style="stop-color:#000000"/>
		<stop  offset="0.64" style="stop-color:#000000"/>
		<stop  offset="0.99" style="stop-color:#000000"/>
		<stop  offset="1" style="stop-color:#000000"/>
	</linearGradient>
	<path fill="url(#SVGID_32_)" d="M64.734,246.32h18l-13.5,27h-18L64.734,246.32z"/>
	
		<linearGradient id="SVGID_33_" gradientUnits="userSpaceOnUse" x1="244.2241" y1="183.3027" x2="202.2241" y2="183.3027" gradientTransform="matrix(0.75 0 0 -0.75 -70.0861 397.297)">
		<stop  offset="0" style="stop-color:#000000"/>
		<stop  offset="0.01" style="stop-color:#7C7C7C"/>
		<stop  offset="0.02" style="stop-color:#000000"/>
		<stop  offset="0.64" style="stop-color:#000000"/>
		<stop  offset="0.99" style="stop-color:#000000"/>
		<stop  offset="1" style="stop-color:#000000"/>
	</linearGradient>
	<path fill="url(#SVGID_33_)" d="M95.082,246.32h18l-13.5,27h-18L95.082,246.32z"/>
	
		<linearGradient id="SVGID_34_" gradientUnits="userSpaceOnUse" x1="244.2266" y1="183.3027" x2="202.2266" y2="183.3027" gradientTransform="matrix(0.75 0 0 -0.75 -38.2247 397.297)">
		<stop  offset="0" style="stop-color:#000000"/>
		<stop  offset="0.01" style="stop-color:#7C7C7C"/>
		<stop  offset="0.02" style="stop-color:#000000"/>
		<stop  offset="0.64" style="stop-color:#000000"/>
		<stop  offset="0.99" style="stop-color:#000000"/>
		<stop  offset="1" style="stop-color:#000000"/>
	</linearGradient>
	<path fill="url(#SVGID_34_)" d="M126.945,246.32h18l-13.5,27h-18L126.945,246.32z"/>
	
		<linearGradient id="SVGID_35_" gradientUnits="userSpaceOnUse" x1="244.2227" y1="183.3027" x2="202.2227" y2="183.3027" gradientTransform="matrix(0.75 0 0 -0.75 -7.734 397.297)">
		<stop  offset="0" style="stop-color:#000000"/>
		<stop  offset="0.01" style="stop-color:#7C7C7C"/>
		<stop  offset="0.02" style="stop-color:#000000"/>
		<stop  offset="0.64" style="stop-color:#000000"/>
		<stop  offset="0.99" style="stop-color:#000000"/>
		<stop  offset="1" style="stop-color:#000000"/>
	</linearGradient>
	<path fill="url(#SVGID_35_)" d="M157.434,246.32h18l-13.5,27h-18L157.434,246.32z"/>
	
		<linearGradient id="SVGID_36_" gradientUnits="userSpaceOnUse" x1="244.2261" y1="183.3027" x2="202.2261" y2="183.3027" gradientTransform="matrix(0.75 0 0 -0.75 23.1659 397.297)">
		<stop  offset="0" style="stop-color:#000000"/>
		<stop  offset="0.01" style="stop-color:#7C7C7C"/>
		<stop  offset="0.02" style="stop-color:#000000"/>
		<stop  offset="0.64" style="stop-color:#000000"/>
		<stop  offset="0.99" style="stop-color:#000000"/>
		<stop  offset="1" style="stop-color:#000000"/>
	</linearGradient>
	<path fill="url(#SVGID_36_)" d="M188.336,246.32h18l-13.5,27h-18L188.336,246.32z"/>
	
		<linearGradient id="SVGID_37_" gradientUnits="userSpaceOnUse" x1="244.2246" y1="183.3027" x2="202.2246" y2="183.3027" gradientTransform="matrix(0.75 0 0 -0.75 54.0658 397.297)">
		<stop  offset="0" style="stop-color:#000000"/>
		<stop  offset="0.01" style="stop-color:#7C7C7C"/>
		<stop  offset="0.02" style="stop-color:#000000"/>
		<stop  offset="0.64" style="stop-color:#000000"/>
		<stop  offset="0.99" style="stop-color:#000000"/>
		<stop  offset="1" style="stop-color:#000000"/>
	</linearGradient>
	<path fill="url(#SVGID_37_)" d="M219.234,246.32h18l-13.5,27h-18L219.234,246.32z"/>
	
		<linearGradient id="SVGID_38_" gradientUnits="userSpaceOnUse" x1="244.2227" y1="183.3027" x2="202.2227" y2="183.3027" gradientTransform="matrix(0.75 0 0 -0.75 84.9657 397.297)">
		<stop  offset="0" style="stop-color:#000000"/>
		<stop  offset="0.01" style="stop-color:#7C7C7C"/>
		<stop  offset="0.02" style="stop-color:#000000"/>
		<stop  offset="0.64" style="stop-color:#000000"/>
		<stop  offset="0.99" style="stop-color:#000000"/>
		<stop  offset="1" style="stop-color:#000000"/>
	</linearGradient>
	<path fill="url(#SVGID_38_)" d="M250.133,246.32h18l-13.5,27h-18L250.133,246.32z"/>
	
		<linearGradient id="SVGID_39_" gradientUnits="userSpaceOnUse" x1="244.2256" y1="183.3027" x2="202.2266" y2="183.3027" gradientTransform="matrix(0.75 0 0 -0.75 115.8651 397.297)">
		<stop  offset="0" style="stop-color:#000000"/>
		<stop  offset="0.01" style="stop-color:#7C7C7C"/>
		<stop  offset="0.02" style="stop-color:#000000"/>
		<stop  offset="0.64" style="stop-color:#000000"/>
		<stop  offset="0.99" style="stop-color:#000000"/>
		<stop  offset="1" style="stop-color:#000000"/>
	</linearGradient>
	<path fill="url(#SVGID_39_)" d="M281.035,246.32h18l-13.5,27h-18L281.035,246.32z"/>
	
		<linearGradient id="SVGID_40_" gradientUnits="userSpaceOnUse" x1="244.2236" y1="183.3027" x2="202.2236" y2="183.3027" gradientTransform="matrix(0.75 0 0 -0.75 146.7655 397.297)">
		<stop  offset="0" style="stop-color:#000000"/>
		<stop  offset="0.01" style="stop-color:#7C7C7C"/>
		<stop  offset="0.02" style="stop-color:#000000"/>
		<stop  offset="0.64" style="stop-color:#000000"/>
		<stop  offset="0.99" style="stop-color:#000000"/>
		<stop  offset="1" style="stop-color:#000000"/>
	</linearGradient>
	<path fill="url(#SVGID_40_)" d="M311.933,246.32h18l-13.5,27h-18L311.933,246.32z"/>
	
		<linearGradient id="SVGID_41_" gradientUnits="userSpaceOnUse" x1="244.2217" y1="183.3027" x2="202.2217" y2="183.3027" gradientTransform="matrix(0.75 0 0 -0.75 177.6649 397.297)">
		<stop  offset="0" style="stop-color:#000000"/>
		<stop  offset="0.01" style="stop-color:#7C7C7C"/>
		<stop  offset="0.02" style="stop-color:#000000"/>
		<stop  offset="0.64" style="stop-color:#000000"/>
		<stop  offset="0.99" style="stop-color:#000000"/>
		<stop  offset="1" style="stop-color:#000000"/>
	</linearGradient>
	<path fill="url(#SVGID_41_)" d="M342.832,246.32h18l-13.5,27h-18L342.832,246.32z"/>
	
		<linearGradient id="SVGID_42_" gradientUnits="userSpaceOnUse" x1="244.2256" y1="183.3027" x2="202.2256" y2="183.3027" gradientTransform="matrix(0.75 0 0 -0.75 208.5643 397.297)">
		<stop  offset="0" style="stop-color:#000000"/>
		<stop  offset="0.01" style="stop-color:#7C7C7C"/>
		<stop  offset="0.02" style="stop-color:#000000"/>
		<stop  offset="0.64" style="stop-color:#000000"/>
		<stop  offset="0.99" style="stop-color:#000000"/>
		<stop  offset="1" style="stop-color:#000000"/>
	</linearGradient>
	<path fill="url(#SVGID_42_)" d="M373.734,246.32h18l-13.5,27h-18L373.734,246.32z"/>
	
		<linearGradient id="SVGID_43_" gradientUnits="userSpaceOnUse" x1="244.2231" y1="183.3027" x2="202.2231" y2="183.3027" gradientTransform="matrix(0.75 0 0 -0.75 239.4647 397.297)">
		<stop  offset="0" style="stop-color:#000000"/>
		<stop  offset="0.01" style="stop-color:#7C7C7C"/>
		<stop  offset="0.02" style="stop-color:#000000"/>
		<stop  offset="0.64" style="stop-color:#000000"/>
		<stop  offset="0.99" style="stop-color:#000000"/>
		<stop  offset="1" style="stop-color:#000000"/>
	</linearGradient>
	<path fill="url(#SVGID_43_)" d="M404.632,246.32h18l-13.5,27h-18L404.632,246.32z"/>
	
		<linearGradient id="SVGID_44_" gradientUnits="userSpaceOnUse" x1="244.2271" y1="183.3027" x2="202.2271" y2="183.3027" gradientTransform="matrix(0.75 0 0 -0.75 270.3641 397.297)">
		<stop  offset="0" style="stop-color:#000000"/>
		<stop  offset="0.01" style="stop-color:#7C7C7C"/>
		<stop  offset="0.02" style="stop-color:#000000"/>
		<stop  offset="0.64" style="stop-color:#000000"/>
		<stop  offset="0.99" style="stop-color:#000000"/>
		<stop  offset="1" style="stop-color:#000000"/>
	</linearGradient>
	<path fill="url(#SVGID_44_)" d="M435.535,246.32h18l-13.5,27h-18L435.535,246.32z"/>
	
		<linearGradient id="SVGID_45_" gradientUnits="userSpaceOnUse" x1="244.2246" y1="183.3027" x2="202.2246" y2="183.3027" gradientTransform="matrix(0.75 0 0 -0.75 301.2645 397.297)">
		<stop  offset="0" style="stop-color:#000000"/>
		<stop  offset="0.01" style="stop-color:#7C7C7C"/>
		<stop  offset="0.02" style="stop-color:#000000"/>
		<stop  offset="0.64" style="stop-color:#000000"/>
		<stop  offset="0.99" style="stop-color:#000000"/>
		<stop  offset="1" style="stop-color:#000000"/>
	</linearGradient>
	<path fill="url(#SVGID_45_)" d="M466.433,246.32h18l-13.5,27h-18L466.433,246.32z"/>
	
		<linearGradient id="SVGID_46_" gradientUnits="userSpaceOnUse" x1="244.2241" y1="183.3027" x2="202.2241" y2="183.3027" gradientTransform="matrix(0.75 0 0 -0.75 332.163 397.297)">
		<stop  offset="0" style="stop-color:#000000"/>
		<stop  offset="0.01" style="stop-color:#7C7C7C"/>
		<stop  offset="0.02" style="stop-color:#000000"/>
		<stop  offset="0.64" style="stop-color:#000000"/>
		<stop  offset="0.99" style="stop-color:#000000"/>
		<stop  offset="1" style="stop-color:#000000"/>
	</linearGradient>
	<path fill="url(#SVGID_46_)" d="M497.332,246.32h18l-13.5,27h-18L497.332,246.32z"/>
	
		<linearGradient id="SVGID_47_" gradientUnits="userSpaceOnUse" x1="213.2246" y1="163.1563" x2="202.1777" y2="163.1563" gradientTransform="matrix(0.75 0 0 -0.75 95.1166 275.1573)">
		<stop  offset="0" style="stop-color:#A8A8A8"/>
		<stop  offset="0.01" style="stop-color:#F2F2F2"/>
		<stop  offset="0.02" style="stop-color:#DBDBDB"/>
		<stop  offset="0.64" style="stop-color:#D8D8D8"/>
		<stop  offset="0.99" style="stop-color:#D3D3D3"/>
		<stop  offset="1" style="stop-color:#9C9C9C"/>
	</linearGradient>
	<path fill="url(#SVGID_47_)" d="M248.285,124.18h5.25c0.75,0,1.473,0.73,1.473,1.699l0.027,53.801c0,0.75-0.82,1.723-1.797,1.723
		l-4.953-0.223c-0.75,0-1.535-0.598-1.535-1.563l0.035-53.938c0-0.75,0.754-1.5,1.734-1.5H248.285z"/>
</g>
</svg>
