<?xml version="1.0" encoding="utf-8"?>
<!-- Generator: Adobe Illustrator 16.0.0, SVG Export Plug-In . SVG Version: 6.00 Build 0)  -->
<!DOCTYPE svg PUBLIC "-//W3C//DTD SVG 1.1//EN" "http://www.w3.org/Graphics/SVG/1.1/DTD/svg11.dtd">
<svg preserveAspectRatio="none" version="1.1" id="图层_1" xmlns="http://www.w3.org/2000/svg" xmlns:xlink="http://www.w3.org/1999/xlink" x="0px" y="0px"
	 width="560.375px" height="481.39px" viewBox="3.277 84.293 560.375 481.39" enable-background="new 3.277 84.293 560.375 481.39"
	 xml:space="preserve">
<g id="surface821">
	
		<linearGradient id="SVGID_1_" gradientUnits="userSpaceOnUse" x1="931.2261" y1="92.8071" x2="202.2271" y2="92.8071" gradientTransform="matrix(0.75 0 0 -0.75 -139.3815 553.7091)">
		<stop  offset="0" style="stop-color:#B5B5B5"/>
		<stop  offset="0.01" style="stop-color:#FFFFFF"/>
		<stop  offset="0.02" style="stop-color:#EBEBEB"/>
		<stop  offset="0.64" style="stop-color:#E7E7E7"/>
		<stop  offset="0.99" style="stop-color:#E2E2E2"/>
		<stop  offset="1" style="stop-color:#A8A8A8"/>
	</linearGradient>
	<path fill="url(#SVGID_1_)" d="M12.289,402.73h546.75v107.25h-20.25v55.5H32.539v-55.5h-20.25V402.73z"/>
	
		<linearGradient id="SVGID_2_" gradientUnits="userSpaceOnUse" x1="930.2251" y1="158.8032" x2="202.2256" y2="158.8032" gradientTransform="matrix(0.75 0 0 -0.75 -141.1075 481.8077)">
		<stop  offset="0" style="stop-color:#9B9B9C"/>
		<stop  offset="0.01" style="stop-color:#E4E4E4"/>
		<stop  offset="0.02" style="stop-color:#CBCBCB"/>
		<stop  offset="0.64" style="stop-color:#C7C7C8"/>
		<stop  offset="0.99" style="stop-color:#C3C3C4"/>
		<stop  offset="1" style="stop-color:#909091"/>
	</linearGradient>
	<path fill="url(#SVGID_2_)" d="M10.563,394.582h546v-63.75h-546V394.582z"/>
	
		<linearGradient id="SVGID_3_" gradientUnits="userSpaceOnUse" x1="930.2231" y1="34.8086" x2="202.2241" y2="34.8085" gradientTransform="matrix(0.75 0 0 -0.75 -141.1217 235.2726)">
		<stop  offset="0" style="stop-color:#B5B5B5"/>
		<stop  offset="0.01" style="stop-color:#FFFFFF"/>
		<stop  offset="0.02" style="stop-color:#EBEBEB"/>
		<stop  offset="0.64" style="stop-color:#E7E7E7"/>
		<stop  offset="0.99" style="stop-color:#E2E2E2"/>
		<stop  offset="1" style="stop-color:#A8A8A8"/>
	</linearGradient>
	<path fill="url(#SVGID_3_)" d="M10.547,334.042h546v-225.75l-20.25-24H31.547l-21,24.75V334.042z"/>
	
		<linearGradient id="SVGID_4_" gradientUnits="userSpaceOnUse" x1="949.3911" y1="194.8052" x2="202.2251" y2="194.8051" gradientTransform="matrix(0.75 0 0 -0.75 -148.3917 545.2072)">
		<stop  offset="0" style="stop-color:#909191"/>
		<stop  offset="0.01" style="stop-color:#D8D9D9"/>
		<stop  offset="0.02" style="stop-color:#BDBEBE"/>
		<stop  offset="0.64" style="stop-color:#BABABA"/>
		<stop  offset="0.99" style="stop-color:#B5B6B6"/>
		<stop  offset="1" style="stop-color:#868787"/>
	</linearGradient>
	<path fill="url(#SVGID_4_)" d="M4.027,394.23h558.75c0.75,0,0.875,0.434,0.875,0.969l-0.125,8.031c0,0,0.125,0.715-0.844,0.715
		L4.027,403.98c-0.75,0-0.75-0.469-0.75-1.008v-7.992c0,0,0-0.75,0.969-0.75H4.027z"/>
	
		<linearGradient id="SVGID_5_" gradientUnits="userSpaceOnUse" x1="930.2251" y1="198.8071" x2="202.2256" y2="198.8071" gradientTransform="matrix(0.75 0 0 -0.75 -141.1075 526.2052)">
		<stop  offset="0" style="stop-color:#6E6F6F"/>
		<stop  offset="0.01" style="stop-color:#B7B8B8"/>
		<stop  offset="0.02" style="stop-color:#919292"/>
		<stop  offset="0.64" style="stop-color:#8F9090"/>
		<stop  offset="0.99" style="stop-color:#8B8C8C"/>
		<stop  offset="1" style="stop-color:#666767"/>
	</linearGradient>
	<path fill="url(#SVGID_5_)" d="M10.563,378.976h546v-3.75h-546V378.976z"/>
	
		<linearGradient id="SVGID_6_" gradientUnits="userSpaceOnUse" x1="930.2251" y1="198.8032" x2="202.2256" y2="198.8032" gradientTransform="matrix(0.75 0 0 -0.75 -141.1075 535.0509)">
		<stop  offset="0" style="stop-color:#6E6F6F"/>
		<stop  offset="0.01" style="stop-color:#B7B8B8"/>
		<stop  offset="0.02" style="stop-color:#919292"/>
		<stop  offset="0.64" style="stop-color:#8F9090"/>
		<stop  offset="0.99" style="stop-color:#8B8C8C"/>
		<stop  offset="1" style="stop-color:#666767"/>
	</linearGradient>
	<path fill="url(#SVGID_6_)" d="M10.563,387.824h546v-3.75h-546V387.824z"/>
	
		<linearGradient id="SVGID_7_" gradientUnits="userSpaceOnUse" x1="930.2251" y1="196.3091" x2="202.2256" y2="196.309" gradientTransform="matrix(0.75 0 0 -0.75 -141.1075 498.8624)">
		<stop  offset="0" style="stop-color:#6E6F6F"/>
		<stop  offset="0.01" style="stop-color:#B7B8B8"/>
		<stop  offset="0.02" style="stop-color:#919292"/>
		<stop  offset="0.64" style="stop-color:#8F9090"/>
		<stop  offset="0.99" style="stop-color:#8B8C8C"/>
		<stop  offset="1" style="stop-color:#666767"/>
	</linearGradient>
	<path fill="url(#SVGID_7_)" d="M10.563,347.882h546v7.5h-546V347.882z"/>
	
		<linearGradient id="SVGID_8_" gradientUnits="userSpaceOnUse" x1="241.2256" y1="196.3037" x2="202.2256" y2="196.3037" gradientTransform="matrix(0.75 0 0 -0.75 -133.0797 491.1095)">
		<stop  offset="0" style="stop-color:#7E7F7F"/>
		<stop  offset="0.01" style="stop-color:#C6C7C7"/>
		<stop  offset="0.02" style="stop-color:#A6A6A6"/>
		<stop  offset="0.64" style="stop-color:#A3A4A4"/>
		<stop  offset="0.99" style="stop-color:#9FA0A0"/>
		<stop  offset="1" style="stop-color:#757676"/>
	</linearGradient>
	<path fill="url(#SVGID_8_)" d="M18.59,340.132h29.25v7.5H18.59V340.132z"/>
	
		<linearGradient id="SVGID_9_" gradientUnits="userSpaceOnUse" x1="241.2256" y1="196.3037" x2="202.2256" y2="196.3037" gradientTransform="matrix(0.75 0 0 -0.75 -133.0797 506.59)">
		<stop  offset="0" style="stop-color:#7E7F7F"/>
		<stop  offset="0.01" style="stop-color:#C6C7C7"/>
		<stop  offset="0.02" style="stop-color:#A6A6A6"/>
		<stop  offset="0.64" style="stop-color:#A3A4A4"/>
		<stop  offset="0.99" style="stop-color:#9FA0A0"/>
		<stop  offset="1" style="stop-color:#757676"/>
	</linearGradient>
	<path fill="url(#SVGID_9_)" d="M18.59,355.613h29.25v7.5H18.59V355.613z"/>
	
		<linearGradient id="SVGID_10_" gradientUnits="userSpaceOnUse" x1="241.2236" y1="196.3037" x2="202.2236" y2="196.3037" gradientTransform="matrix(0.75 0 0 -0.75 -97.9025 491.1095)">
		<stop  offset="0" style="stop-color:#7E7F7F"/>
		<stop  offset="0.01" style="stop-color:#C6C7C7"/>
		<stop  offset="0.02" style="stop-color:#A6A6A6"/>
		<stop  offset="0.64" style="stop-color:#A3A4A4"/>
		<stop  offset="0.99" style="stop-color:#9FA0A0"/>
		<stop  offset="1" style="stop-color:#757676"/>
	</linearGradient>
	<path fill="url(#SVGID_10_)" d="M53.766,340.132h29.25v7.5h-29.25V340.132z"/>
	
		<linearGradient id="SVGID_11_" gradientUnits="userSpaceOnUse" x1="241.2236" y1="196.3037" x2="202.2236" y2="196.3037" gradientTransform="matrix(0.75 0 0 -0.75 -97.9025 506.59)">
		<stop  offset="0" style="stop-color:#7E7F7F"/>
		<stop  offset="0.01" style="stop-color:#C6C7C7"/>
		<stop  offset="0.02" style="stop-color:#A6A6A6"/>
		<stop  offset="0.64" style="stop-color:#A3A4A4"/>
		<stop  offset="0.99" style="stop-color:#9FA0A0"/>
		<stop  offset="1" style="stop-color:#757676"/>
	</linearGradient>
	<path fill="url(#SVGID_11_)" d="M53.766,355.613h29.25v7.5h-29.25V355.613z"/>
	
		<linearGradient id="SVGID_12_" gradientUnits="userSpaceOnUse" x1="241.2227" y1="196.3037" x2="202.2227" y2="196.3037" gradientTransform="matrix(0.75 0 0 -0.75 -61.5499 491.1095)">
		<stop  offset="0" style="stop-color:#7E7F7F"/>
		<stop  offset="0.01" style="stop-color:#C6C7C7"/>
		<stop  offset="0.02" style="stop-color:#A6A6A6"/>
		<stop  offset="0.64" style="stop-color:#A3A4A4"/>
		<stop  offset="0.99" style="stop-color:#9FA0A0"/>
		<stop  offset="1" style="stop-color:#757676"/>
	</linearGradient>
	<path fill="url(#SVGID_12_)" d="M90.117,340.132h29.25v7.5h-29.25V340.132z"/>
	
		<linearGradient id="SVGID_13_" gradientUnits="userSpaceOnUse" x1="241.2227" y1="196.3037" x2="202.2227" y2="196.3037" gradientTransform="matrix(0.75 0 0 -0.75 -61.5499 506.59)">
		<stop  offset="0" style="stop-color:#7E7F7F"/>
		<stop  offset="0.01" style="stop-color:#C6C7C7"/>
		<stop  offset="0.02" style="stop-color:#A6A6A6"/>
		<stop  offset="0.64" style="stop-color:#A3A4A4"/>
		<stop  offset="0.99" style="stop-color:#9FA0A0"/>
		<stop  offset="1" style="stop-color:#757676"/>
	</linearGradient>
	<path fill="url(#SVGID_13_)" d="M90.117,355.613h29.25v7.5h-29.25V355.613z"/>
	
		<linearGradient id="SVGID_14_" gradientUnits="userSpaceOnUse" x1="241.2246" y1="196.3037" x2="202.2246" y2="196.3037" gradientTransform="matrix(0.75 0 0 -0.75 -25.7858 491.1095)">
		<stop  offset="0" style="stop-color:#7E7F7F"/>
		<stop  offset="0.01" style="stop-color:#C6C7C7"/>
		<stop  offset="0.02" style="stop-color:#A6A6A6"/>
		<stop  offset="0.64" style="stop-color:#A3A4A4"/>
		<stop  offset="0.99" style="stop-color:#9FA0A0"/>
		<stop  offset="1" style="stop-color:#757676"/>
	</linearGradient>
	<path fill="url(#SVGID_14_)" d="M125.883,340.132h29.25v7.5h-29.25V340.132z"/>
	
		<linearGradient id="SVGID_15_" gradientUnits="userSpaceOnUse" x1="241.2246" y1="196.3037" x2="202.2246" y2="196.3037" gradientTransform="matrix(0.75 0 0 -0.75 -25.7858 506.59)">
		<stop  offset="0" style="stop-color:#7E7F7F"/>
		<stop  offset="0.01" style="stop-color:#C6C7C7"/>
		<stop  offset="0.02" style="stop-color:#A6A6A6"/>
		<stop  offset="0.64" style="stop-color:#A3A4A4"/>
		<stop  offset="0.99" style="stop-color:#9FA0A0"/>
		<stop  offset="1" style="stop-color:#757676"/>
	</linearGradient>
	<path fill="url(#SVGID_15_)" d="M125.883,355.613h29.25v7.5h-29.25V355.613z"/>
	
		<linearGradient id="SVGID_16_" gradientUnits="userSpaceOnUse" x1="241.2256" y1="196.3037" x2="202.2256" y2="196.3037" gradientTransform="matrix(0.75 0 0 -0.75 9.9789 491.1095)">
		<stop  offset="0" style="stop-color:#7E7F7F"/>
		<stop  offset="0.01" style="stop-color:#C6C7C7"/>
		<stop  offset="0.02" style="stop-color:#A6A6A6"/>
		<stop  offset="0.64" style="stop-color:#A3A4A4"/>
		<stop  offset="0.99" style="stop-color:#9FA0A0"/>
		<stop  offset="1" style="stop-color:#757676"/>
	</linearGradient>
	<path fill="url(#SVGID_16_)" d="M161.648,340.132h29.25v7.5h-29.25V340.132z"/>
	
		<linearGradient id="SVGID_17_" gradientUnits="userSpaceOnUse" x1="241.2256" y1="196.3037" x2="202.2256" y2="196.3037" gradientTransform="matrix(0.75 0 0 -0.75 9.9789 506.59)">
		<stop  offset="0" style="stop-color:#7E7F7F"/>
		<stop  offset="0.01" style="stop-color:#C6C7C7"/>
		<stop  offset="0.02" style="stop-color:#A6A6A6"/>
		<stop  offset="0.64" style="stop-color:#A3A4A4"/>
		<stop  offset="0.99" style="stop-color:#9FA0A0"/>
		<stop  offset="1" style="stop-color:#757676"/>
	</linearGradient>
	<path fill="url(#SVGID_17_)" d="M161.648,355.613h29.25v7.5h-29.25V355.613z"/>
	
		<linearGradient id="SVGID_18_" gradientUnits="userSpaceOnUse" x1="241.2266" y1="196.3037" x2="202.2266" y2="196.3037" gradientTransform="matrix(0.75 0 0 -0.75 45.744 491.1095)">
		<stop  offset="0" style="stop-color:#7E7F7F"/>
		<stop  offset="0.01" style="stop-color:#C6C7C7"/>
		<stop  offset="0.02" style="stop-color:#A6A6A6"/>
		<stop  offset="0.64" style="stop-color:#A3A4A4"/>
		<stop  offset="0.99" style="stop-color:#9FA0A0"/>
		<stop  offset="1" style="stop-color:#757676"/>
	</linearGradient>
	<path fill="url(#SVGID_18_)" d="M197.414,340.132h29.25v7.5h-29.25V340.132z"/>
	
		<linearGradient id="SVGID_19_" gradientUnits="userSpaceOnUse" x1="241.2266" y1="196.3037" x2="202.2266" y2="196.3037" gradientTransform="matrix(0.75 0 0 -0.75 45.744 506.59)">
		<stop  offset="0" style="stop-color:#7E7F7F"/>
		<stop  offset="0.01" style="stop-color:#C6C7C7"/>
		<stop  offset="0.02" style="stop-color:#A6A6A6"/>
		<stop  offset="0.64" style="stop-color:#A3A4A4"/>
		<stop  offset="0.99" style="stop-color:#9FA0A0"/>
		<stop  offset="1" style="stop-color:#757676"/>
	</linearGradient>
	<path fill="url(#SVGID_19_)" d="M197.414,355.613h29.25v7.5h-29.25V355.613z"/>
	
		<linearGradient id="SVGID_20_" gradientUnits="userSpaceOnUse" x1="241.2227" y1="196.3037" x2="202.2227" y2="196.3037" gradientTransform="matrix(0.75 0 0 -0.75 81.5087 491.1095)">
		<stop  offset="0" style="stop-color:#7E7F7F"/>
		<stop  offset="0.01" style="stop-color:#C6C7C7"/>
		<stop  offset="0.02" style="stop-color:#A6A6A6"/>
		<stop  offset="0.64" style="stop-color:#A3A4A4"/>
		<stop  offset="0.99" style="stop-color:#9FA0A0"/>
		<stop  offset="1" style="stop-color:#757676"/>
	</linearGradient>
	<path fill="url(#SVGID_20_)" d="M233.176,340.132h29.25v7.5h-29.25V340.132z"/>
	
		<linearGradient id="SVGID_21_" gradientUnits="userSpaceOnUse" x1="241.2227" y1="196.3037" x2="202.2227" y2="196.3037" gradientTransform="matrix(0.75 0 0 -0.75 81.5087 506.59)">
		<stop  offset="0" style="stop-color:#7E7F7F"/>
		<stop  offset="0.01" style="stop-color:#C6C7C7"/>
		<stop  offset="0.02" style="stop-color:#A6A6A6"/>
		<stop  offset="0.64" style="stop-color:#A3A4A4"/>
		<stop  offset="0.99" style="stop-color:#9FA0A0"/>
		<stop  offset="1" style="stop-color:#757676"/>
	</linearGradient>
	<path fill="url(#SVGID_21_)" d="M233.176,355.613h29.25v7.5h-29.25V355.613z"/>
	
		<linearGradient id="SVGID_22_" gradientUnits="userSpaceOnUse" x1="241.2236" y1="196.3037" x2="202.2246" y2="196.3037" gradientTransform="matrix(0.75 0 0 -0.75 117.2728 491.1095)">
		<stop  offset="0" style="stop-color:#7E7F7F"/>
		<stop  offset="0.01" style="stop-color:#C6C7C7"/>
		<stop  offset="0.02" style="stop-color:#A6A6A6"/>
		<stop  offset="0.64" style="stop-color:#A3A4A4"/>
		<stop  offset="0.99" style="stop-color:#9FA0A0"/>
		<stop  offset="1" style="stop-color:#757676"/>
	</linearGradient>
	<path fill="url(#SVGID_22_)" d="M268.941,340.132h29.25v7.5h-29.25V340.132z"/>
	
		<linearGradient id="SVGID_23_" gradientUnits="userSpaceOnUse" x1="241.2236" y1="196.3037" x2="202.2246" y2="196.3037" gradientTransform="matrix(0.75 0 0 -0.75 117.2728 506.59)">
		<stop  offset="0" style="stop-color:#7E7F7F"/>
		<stop  offset="0.01" style="stop-color:#C6C7C7"/>
		<stop  offset="0.02" style="stop-color:#A6A6A6"/>
		<stop  offset="0.64" style="stop-color:#A3A4A4"/>
		<stop  offset="0.99" style="stop-color:#9FA0A0"/>
		<stop  offset="1" style="stop-color:#757676"/>
	</linearGradient>
	<path fill="url(#SVGID_23_)" d="M268.941,355.613h29.25v7.5h-29.25V355.613z"/>
	
		<linearGradient id="SVGID_24_" gradientUnits="userSpaceOnUse" x1="241.2256" y1="196.3037" x2="202.2256" y2="196.3037" gradientTransform="matrix(0.75 0 0 -0.75 153.037 491.1095)">
		<stop  offset="0" style="stop-color:#7E7F7F"/>
		<stop  offset="0.01" style="stop-color:#C6C7C7"/>
		<stop  offset="0.02" style="stop-color:#A6A6A6"/>
		<stop  offset="0.64" style="stop-color:#A3A4A4"/>
		<stop  offset="0.99" style="stop-color:#9FA0A0"/>
		<stop  offset="1" style="stop-color:#757676"/>
	</linearGradient>
	<path fill="url(#SVGID_24_)" d="M304.707,340.132h29.25v7.5h-29.25V340.132z"/>
	
		<linearGradient id="SVGID_25_" gradientUnits="userSpaceOnUse" x1="241.2256" y1="196.3037" x2="202.2256" y2="196.3037" gradientTransform="matrix(0.75 0 0 -0.75 153.037 506.59)">
		<stop  offset="0" style="stop-color:#7E7F7F"/>
		<stop  offset="0.01" style="stop-color:#C6C7C7"/>
		<stop  offset="0.02" style="stop-color:#A6A6A6"/>
		<stop  offset="0.64" style="stop-color:#A3A4A4"/>
		<stop  offset="0.99" style="stop-color:#9FA0A0"/>
		<stop  offset="1" style="stop-color:#757676"/>
	</linearGradient>
	<path fill="url(#SVGID_25_)" d="M304.707,355.613h29.25v7.5h-29.25V355.613z"/>
	
		<linearGradient id="SVGID_26_" gradientUnits="userSpaceOnUse" x1="241.2256" y1="196.3037" x2="202.2256" y2="196.3037" gradientTransform="matrix(0.75 0 0 -0.75 189.4823 491.1095)">
		<stop  offset="0" style="stop-color:#7E7F7F"/>
		<stop  offset="0.01" style="stop-color:#C6C7C7"/>
		<stop  offset="0.02" style="stop-color:#A6A6A6"/>
		<stop  offset="0.64" style="stop-color:#A3A4A4"/>
		<stop  offset="0.99" style="stop-color:#9FA0A0"/>
		<stop  offset="1" style="stop-color:#757676"/>
	</linearGradient>
	<path fill="url(#SVGID_26_)" d="M341.152,340.132h29.25v7.5h-29.25V340.132z"/>
	
		<linearGradient id="SVGID_27_" gradientUnits="userSpaceOnUse" x1="241.2256" y1="196.3037" x2="202.2256" y2="196.3037" gradientTransform="matrix(0.75 0 0 -0.75 189.4823 506.59)">
		<stop  offset="0" style="stop-color:#7E7F7F"/>
		<stop  offset="0.01" style="stop-color:#C6C7C7"/>
		<stop  offset="0.02" style="stop-color:#A6A6A6"/>
		<stop  offset="0.64" style="stop-color:#A3A4A4"/>
		<stop  offset="0.99" style="stop-color:#9FA0A0"/>
		<stop  offset="1" style="stop-color:#757676"/>
	</linearGradient>
	<path fill="url(#SVGID_27_)" d="M341.152,355.613h29.25v7.5h-29.25V355.613z"/>
	
		<linearGradient id="SVGID_28_" gradientUnits="userSpaceOnUse" x1="241.2227" y1="196.3037" x2="202.2227" y2="196.3037" gradientTransform="matrix(0.75 0 0 -0.75 223.6952 491.1095)">
		<stop  offset="0" style="stop-color:#7E7F7F"/>
		<stop  offset="0.01" style="stop-color:#C6C7C7"/>
		<stop  offset="0.02" style="stop-color:#A6A6A6"/>
		<stop  offset="0.64" style="stop-color:#A3A4A4"/>
		<stop  offset="0.99" style="stop-color:#9FA0A0"/>
		<stop  offset="1" style="stop-color:#757676"/>
	</linearGradient>
	<path fill="url(#SVGID_28_)" d="M375.363,340.132h29.25v7.5h-29.25V340.132z"/>
	
		<linearGradient id="SVGID_29_" gradientUnits="userSpaceOnUse" x1="241.2227" y1="196.3037" x2="202.2227" y2="196.3037" gradientTransform="matrix(0.75 0 0 -0.75 223.6952 506.59)">
		<stop  offset="0" style="stop-color:#7E7F7F"/>
		<stop  offset="0.01" style="stop-color:#C6C7C7"/>
		<stop  offset="0.02" style="stop-color:#A6A6A6"/>
		<stop  offset="0.64" style="stop-color:#A3A4A4"/>
		<stop  offset="0.99" style="stop-color:#9FA0A0"/>
		<stop  offset="1" style="stop-color:#757676"/>
	</linearGradient>
	<path fill="url(#SVGID_29_)" d="M375.363,355.613h29.25v7.5h-29.25V355.613z"/>
	
		<linearGradient id="SVGID_30_" gradientUnits="userSpaceOnUse" x1="241.2236" y1="196.3037" x2="202.2236" y2="196.3037" gradientTransform="matrix(0.75 0 0 -0.75 260.3319 491.1095)">
		<stop  offset="0" style="stop-color:#7E7F7F"/>
		<stop  offset="0.01" style="stop-color:#C6C7C7"/>
		<stop  offset="0.02" style="stop-color:#A6A6A6"/>
		<stop  offset="0.64" style="stop-color:#A3A4A4"/>
		<stop  offset="0.99" style="stop-color:#9FA0A0"/>
		<stop  offset="1" style="stop-color:#757676"/>
	</linearGradient>
	<path fill="url(#SVGID_30_)" d="M412,340.132h29.25v7.5H412V340.132z"/>
	
		<linearGradient id="SVGID_31_" gradientUnits="userSpaceOnUse" x1="241.2236" y1="196.3037" x2="202.2236" y2="196.3037" gradientTransform="matrix(0.75 0 0 -0.75 260.3319 506.59)">
		<stop  offset="0" style="stop-color:#7E7F7F"/>
		<stop  offset="0.01" style="stop-color:#C6C7C7"/>
		<stop  offset="0.02" style="stop-color:#A6A6A6"/>
		<stop  offset="0.64" style="stop-color:#A3A4A4"/>
		<stop  offset="0.99" style="stop-color:#9FA0A0"/>
		<stop  offset="1" style="stop-color:#757676"/>
	</linearGradient>
	<path fill="url(#SVGID_31_)" d="M412,355.613h29.25v7.5H412V355.613z"/>
	
		<linearGradient id="SVGID_32_" gradientUnits="userSpaceOnUse" x1="241.2261" y1="196.3037" x2="202.2261" y2="196.3037" gradientTransform="matrix(0.75 0 0 -0.75 296.0956 491.1095)">
		<stop  offset="0" style="stop-color:#7E7F7F"/>
		<stop  offset="0.01" style="stop-color:#C6C7C7"/>
		<stop  offset="0.02" style="stop-color:#A6A6A6"/>
		<stop  offset="0.64" style="stop-color:#A3A4A4"/>
		<stop  offset="0.99" style="stop-color:#9FA0A0"/>
		<stop  offset="1" style="stop-color:#757676"/>
	</linearGradient>
	<path fill="url(#SVGID_32_)" d="M447.765,340.132h29.25v7.5h-29.25V340.132z"/>
	
		<linearGradient id="SVGID_33_" gradientUnits="userSpaceOnUse" x1="241.2261" y1="196.3037" x2="202.2261" y2="196.3037" gradientTransform="matrix(0.75 0 0 -0.75 296.0956 506.59)">
		<stop  offset="0" style="stop-color:#7E7F7F"/>
		<stop  offset="0.01" style="stop-color:#C6C7C7"/>
		<stop  offset="0.02" style="stop-color:#A6A6A6"/>
		<stop  offset="0.64" style="stop-color:#A3A4A4"/>
		<stop  offset="0.99" style="stop-color:#9FA0A0"/>
		<stop  offset="1" style="stop-color:#757676"/>
	</linearGradient>
	<path fill="url(#SVGID_33_)" d="M447.765,355.613h29.25v7.5h-29.25V355.613z"/>
	
		<linearGradient id="SVGID_34_" gradientUnits="userSpaceOnUse" x1="241.2261" y1="196.3037" x2="202.2261" y2="196.3037" gradientTransform="matrix(0.75 0 0 -0.75 331.8612 491.1095)">
		<stop  offset="0" style="stop-color:#7E7F7F"/>
		<stop  offset="0.01" style="stop-color:#C6C7C7"/>
		<stop  offset="0.02" style="stop-color:#A6A6A6"/>
		<stop  offset="0.64" style="stop-color:#A3A4A4"/>
		<stop  offset="0.99" style="stop-color:#9FA0A0"/>
		<stop  offset="1" style="stop-color:#757676"/>
	</linearGradient>
	<path fill="url(#SVGID_34_)" d="M483.531,340.132h29.25v7.5h-29.25V340.132z"/>
	
		<linearGradient id="SVGID_35_" gradientUnits="userSpaceOnUse" x1="241.2261" y1="196.3037" x2="202.2261" y2="196.3037" gradientTransform="matrix(0.75 0 0 -0.75 331.8612 506.59)">
		<stop  offset="0" style="stop-color:#7E7F7F"/>
		<stop  offset="0.01" style="stop-color:#C6C7C7"/>
		<stop  offset="0.02" style="stop-color:#A6A6A6"/>
		<stop  offset="0.64" style="stop-color:#A3A4A4"/>
		<stop  offset="0.99" style="stop-color:#9FA0A0"/>
		<stop  offset="1" style="stop-color:#757676"/>
	</linearGradient>
	<path fill="url(#SVGID_35_)" d="M483.531,355.613h29.25v7.5h-29.25V355.613z"/>
	
		<linearGradient id="SVGID_36_" gradientUnits="userSpaceOnUse" x1="241.2217" y1="196.3037" x2="202.2217" y2="196.3037" gradientTransform="matrix(0.75 0 0 -0.75 367.6259 491.1095)">
		<stop  offset="0" style="stop-color:#7E7F7F"/>
		<stop  offset="0.01" style="stop-color:#C6C7C7"/>
		<stop  offset="0.02" style="stop-color:#A6A6A6"/>
		<stop  offset="0.64" style="stop-color:#A3A4A4"/>
		<stop  offset="0.99" style="stop-color:#9FA0A0"/>
		<stop  offset="1" style="stop-color:#757676"/>
	</linearGradient>
	<path fill="url(#SVGID_36_)" d="M519.292,340.132h29.25v7.5h-29.25V340.132z"/>
	
		<linearGradient id="SVGID_37_" gradientUnits="userSpaceOnUse" x1="241.2217" y1="196.3037" x2="202.2217" y2="196.3037" gradientTransform="matrix(0.75 0 0 -0.75 367.6259 506.59)">
		<stop  offset="0" style="stop-color:#7E7F7F"/>
		<stop  offset="0.01" style="stop-color:#C6C7C7"/>
		<stop  offset="0.02" style="stop-color:#A6A6A6"/>
		<stop  offset="0.64" style="stop-color:#A3A4A4"/>
		<stop  offset="0.99" style="stop-color:#9FA0A0"/>
		<stop  offset="1" style="stop-color:#757676"/>
	</linearGradient>
	<path fill="url(#SVGID_37_)" d="M519.292,355.613h29.25v7.5h-29.25V355.613z"/>
	
		<linearGradient id="SVGID_38_" gradientUnits="userSpaceOnUse" x1="475.3706" y1="201.3027" x2="475.3706" y2="139.1055" gradientTransform="matrix(0.75 0 0 -0.75 -73.066 270.7501)">
		<stop  offset="0" style="stop-color:#3F4A56"/>
		<stop  offset="0.01" style="stop-color:#9299A2"/>
		<stop  offset="0.02" style="stop-color:#556372"/>
		<stop  offset="0.64" style="stop-color:#536170"/>
		<stop  offset="0.99" style="stop-color:#515F6D"/>
		<stop  offset="1" style="stop-color:#3A444F"/>
	</linearGradient>
	<path fill="url(#SVGID_38_)" d="M79.352,119.773h408c0.75,0,0.973,0.105,0.973,0.254l-0.223,46.246c0,0,0.223,0.148-0.602,0.148
		l-408.148-0.148c-0.75,0-0.75,0.012-0.75-0.137v-46.363c0,0,0,0,0.742,0H79.352z"/>
	
		<linearGradient id="SVGID_39_" gradientUnits="userSpaceOnUse" x1="233.7275" y1="201.3047" x2="233.7275" y2="-67.6943" gradientTransform="matrix(0.75 0 0 -0.75 -120.1202 259.8927)">
		<stop  offset="0" style="stop-color:#3F4A56"/>
		<stop  offset="0.01" style="stop-color:#9299A2"/>
		<stop  offset="0.02" style="stop-color:#556372"/>
		<stop  offset="0.64" style="stop-color:#536170"/>
		<stop  offset="0.99" style="stop-color:#515F6D"/>
		<stop  offset="1" style="stop-color:#3A444F"/>
	</linearGradient>
	<path fill="url(#SVGID_39_)" d="M32.301,108.914h45.75c0,0,0.578,0.453,0.578,1.008l0.172,199.242c0,0.75-0.539,1.262-0.992,1.262
		l-45.508,0.238c-0.75,0-0.75-0.691-0.75-1.246V109.664c0,0,0.363-0.75,0.816-0.75H32.301z"/>
	
		<linearGradient id="SVGID_40_" gradientUnits="userSpaceOnUse" x1="233.7275" y1="201.3057" x2="233.7275" y2="-67.6934" gradientTransform="matrix(0.75 0 0 -0.75 336.5712 259.8927)">
		<stop  offset="0" style="stop-color:#3F4A56"/>
		<stop  offset="0.01" style="stop-color:#9299A2"/>
		<stop  offset="0.02" style="stop-color:#556372"/>
		<stop  offset="0.64" style="stop-color:#536170"/>
		<stop  offset="0.99" style="stop-color:#515F6D"/>
		<stop  offset="1" style="stop-color:#3A444F"/>
	</linearGradient>
	<path fill="url(#SVGID_40_)" d="M488.992,108.914h45.75c0,0,0.578,0.453,0.578,1.008l0.172,199.242c0,0.75-0.539,1.262-0.992,1.262
		l-45.508,0.238c-0.75,0-0.75-0.691-0.75-1.246V109.664c0,0,0.363-0.75,0.816-0.75H488.992z"/>
	<path fill="#FFEC00" d="M10.516,321.824h148.5v12h-148.5V321.824z"/>
	<path d="M10.516,321.691h5.25l7.5,12h-6L10.516,321.691z"/>
	<path d="M22.84,321.691h5.25l7.5,12h-6L22.84,321.691z"/>
	<path d="M35.164,321.691h5.25l7.5,12h-6L35.164,321.691z"/>
	<path d="M47.488,321.691h5.25l7.5,12h-6L47.488,321.691z"/>
	<path d="M59.813,321.691h5.25l7.5,12h-6L59.813,321.691z"/>
	<path d="M72.137,321.691h5.25l7.5,12h-6L72.137,321.691z"/>
	<path d="M84.461,321.691h5.25l7.5,12h-6L84.461,321.691z"/>
	<path d="M96.785,321.691h5.25l7.5,12h-6L96.785,321.691z"/>
	<path d="M109.109,321.691h5.25l7.5,12h-6L109.109,321.691z"/>
	<path d="M121.434,321.691h5.25l7.5,12h-6L121.434,321.691z"/>
	<path d="M133.758,321.691h5.25l7.5,12h-6L133.758,321.691z"/>
	<path d="M146.082,321.691h5.25l7.5,12h-6L146.082,321.691z"/>
	<path fill="#FFEC00" d="M408.019,321.824h148.5v12h-148.5V321.824z"/>
	<path d="M408.019,321.691h5.25l7.5,12h-6L408.019,321.691z"/>
	<path d="M420.343,321.691h5.25l7.5,12h-6L420.343,321.691z"/>
	<path d="M432.667,321.691h5.25l7.5,12h-6L432.667,321.691z"/>
	<path d="M444.992,321.691h5.25l7.5,12h-6L444.992,321.691z"/>
	<path d="M457.316,321.691h5.25l7.5,12h-6L457.316,321.691z"/>
	<path d="M469.64,321.691h5.25l7.5,12h-6L469.64,321.691z"/>
	<path d="M481.964,321.691h5.25l7.5,12h-6L481.964,321.691z"/>
	<path d="M494.289,321.691h5.25l7.5,12h-6L494.289,321.691z"/>
	<path d="M506.613,321.691h5.25l7.5,12h-6L506.613,321.691z"/>
	<path d="M518.937,321.691h5.25l7.5,12h-6L518.937,321.691z"/>
	<path d="M531.261,321.691h5.25l7.5,12h-6L531.261,321.691z"/>
	<path d="M543.585,321.691h5.25l7.5,12h-6L543.585,321.691z"/>
	<path fill="#F9CA31" stroke="#000000" stroke-linejoin="bevel" stroke-miterlimit="10" d="M291.226,331.109l-7.5-13.5l-8.25,13.5
		H291.226z"/>
	
		<linearGradient id="SVGID_41_" gradientUnits="userSpaceOnUse" x1="211.7251" y1="201.3057" x2="211.7251" y2="159.3057" gradientTransform="matrix(0.75 0 0 -0.75 -132.8331 523.8966)">
		<stop  offset="0" style="stop-color:#3F4A56"/>
		<stop  offset="0.01" style="stop-color:#9299A2"/>
		<stop  offset="0.02" style="stop-color:#556372"/>
		<stop  offset="0.64" style="stop-color:#536170"/>
		<stop  offset="0.99" style="stop-color:#515F6D"/>
		<stop  offset="1" style="stop-color:#3A444F"/>
	</linearGradient>
	<path fill="url(#SVGID_41_)" d="M19.586,372.917h12c0.75,0,1.238,0.457,1.238,1.02l0.262,28.98c0,0.75-0.715,1.246-1.277,1.246
		l-12.223,0.254c0,0-0.75-0.711-0.75-1.273v-29.477c0,0,0.457-0.75,1.02-0.75H19.586z"/>
	
		<linearGradient id="SVGID_42_" gradientUnits="userSpaceOnUse" x1="211.7236" y1="201.3057" x2="211.7236" y2="159.3057" gradientTransform="matrix(0.75 0 0 -0.75 124.8007 523.8966)">
		<stop  offset="0" style="stop-color:#3F4A56"/>
		<stop  offset="0.01" style="stop-color:#9299A2"/>
		<stop  offset="0.02" style="stop-color:#556372"/>
		<stop  offset="0.64" style="stop-color:#536170"/>
		<stop  offset="0.99" style="stop-color:#515F6D"/>
		<stop  offset="1" style="stop-color:#3A444F"/>
	</linearGradient>
	<path fill="url(#SVGID_42_)" d="M277.219,372.917h12c0.75,0,1.242,0.457,1.242,1.02l0.258,28.98c0,0.75-0.715,1.246-1.277,1.246
		l-12.222,0.254c0,0-0.75-0.711-0.75-1.273v-29.477c0,0,0.457-0.75,1.02-0.75H277.219z"/>
	
		<linearGradient id="SVGID_43_" gradientUnits="userSpaceOnUse" x1="211.7236" y1="201.3066" x2="211.7236" y2="159.3066" gradientTransform="matrix(0.75 0 0 -0.75 382.9921 523.8966)">
		<stop  offset="0" style="stop-color:#3F4A56"/>
		<stop  offset="0.01" style="stop-color:#9299A2"/>
		<stop  offset="0.02" style="stop-color:#556372"/>
		<stop  offset="0.64" style="stop-color:#536170"/>
		<stop  offset="0.99" style="stop-color:#515F6D"/>
		<stop  offset="1" style="stop-color:#3A444F"/>
	</linearGradient>
	<path fill="url(#SVGID_43_)" d="M535.41,372.917h12c0.75,0,1.242,0.457,1.242,1.02l0.258,28.98c0,0.75-0.715,1.246-1.277,1.246
		l-12.223,0.254c0,0-0.75-0.711-0.75-1.273v-29.477c0,0,0.457-0.75,1.02-0.75H535.41z"/>
	
		<linearGradient id="SVGID_44_" gradientUnits="userSpaceOnUse" x1="72.3989" y1="241.9092" x2="72.3989" y2="232.5264" gradientTransform="matrix(0.5303 -0.5303 -0.5303 -0.5303 113.2354 545.1296)">
		<stop  offset="0" style="stop-color:#BDBDBD"/>
		<stop  offset="0.15" style="stop-color:#FFFFFF"/>
		<stop  offset="0.25" style="stop-color:#FFFFFF"/>
		<stop  offset="0.52" style="stop-color:#DFDFDF"/>
		<stop  offset="0.69" style="stop-color:#C7C7C7"/>
		<stop  offset="0.8" style="stop-color:#BCBCBC"/>
		<stop  offset="0.92" style="stop-color:#B1B1B1"/>
		<stop  offset="1" style="stop-color:#CBCBCB"/>
	</linearGradient>
	<path fill="url(#SVGID_44_)" d="M23.516,383.585c-1.59-1.59-1.551-3.77-0.176-5.145c1.238-1.219,3.594-1.371,4.969,0.004
		c1.043,1.43,1.375,3.602,0.008,4.973c-1.617,1.23-3.602,1.363-4.977-0.008L23.516,383.585z"/>
	<path fill="#595757" d="M23.773,379.574c0.531-0.531,0.789-0.602,0.91-0.477l2.801,3.129c0,0,0.316,0.156,0.215,0.258
		c-0.742,0.273-0.613,0.414-0.734,0.293L23.773,379.574c0,0,0.074-0.082,0.176-0.188L23.773,379.574z"/>
	
		<linearGradient id="SVGID_45_" gradientUnits="userSpaceOnUse" x1="72.3975" y1="241.9053" x2="72.3975" y2="232.5254" gradientTransform="matrix(0.5303 -0.5303 -0.5303 -0.5303 113.2354 560.1491)">
		<stop  offset="0" style="stop-color:#BDBDBD"/>
		<stop  offset="0.15" style="stop-color:#FFFFFF"/>
		<stop  offset="0.25" style="stop-color:#FFFFFF"/>
		<stop  offset="0.52" style="stop-color:#DFDFDF"/>
		<stop  offset="0.69" style="stop-color:#C7C7C7"/>
		<stop  offset="0.8" style="stop-color:#BCBCBC"/>
		<stop  offset="0.92" style="stop-color:#B1B1B1"/>
		<stop  offset="1" style="stop-color:#CBCBCB"/>
	</linearGradient>
	<path fill="url(#SVGID_45_)" d="M23.516,398.609c-1.59-1.594-1.551-3.77-0.176-5.145c1.238-1.223,3.594-1.371,4.969,0
		c1.043,1.43,1.375,3.605,0.008,4.973c-1.617,1.23-3.602,1.367-4.977-0.004L23.516,398.609z"/>
	<path fill="#595757" d="M23.773,394.597c0.531-0.531,0.789-0.602,0.91-0.48l2.801,3.133c0,0,0.316,0.152,0.215,0.258
		c-0.742,0.27-0.613,0.414-0.734,0.289L23.773,394.597c0,0,0.074-0.086,0.176-0.188L23.773,394.597z"/>
	
		<linearGradient id="SVGID_46_" gradientUnits="userSpaceOnUse" x1="72.3989" y1="241.9092" x2="72.3989" y2="232.5293" gradientTransform="matrix(0.5303 -0.5303 -0.5303 -0.5303 370.8292 545.1686)">
		<stop  offset="0" style="stop-color:#BDBDBD"/>
		<stop  offset="0.15" style="stop-color:#FFFFFF"/>
		<stop  offset="0.25" style="stop-color:#FFFFFF"/>
		<stop  offset="0.52" style="stop-color:#DFDFDF"/>
		<stop  offset="0.69" style="stop-color:#C7C7C7"/>
		<stop  offset="0.8" style="stop-color:#BCBCBC"/>
		<stop  offset="0.92" style="stop-color:#B1B1B1"/>
		<stop  offset="1" style="stop-color:#CBCBCB"/>
	</linearGradient>
	<path fill="url(#SVGID_46_)" d="M281.109,383.625c-1.59-1.59-1.551-3.77-0.176-5.145c1.238-1.219,3.593-1.371,4.968,0.004
		c1.043,1.43,1.375,3.602,0.004,4.973c-1.613,1.23-3.597,1.367-4.972-0.008L281.109,383.625z"/>
	<path fill="#595757" d="M281.367,379.613c0.531-0.527,0.789-0.598,0.91-0.477l2.8,3.129c0,0,0.316,0.156,0.215,0.258
		c-0.746,0.273-0.613,0.414-0.734,0.293L281.367,379.613c0,0,0.07-0.082,0.176-0.188L281.367,379.613z"/>
	
		<linearGradient id="SVGID_47_" gradientUnits="userSpaceOnUse" x1="72.3984" y1="241.9072" x2="72.3984" y2="232.5273" gradientTransform="matrix(0.5303 -0.5303 -0.5303 -0.5303 370.8292 560.1901)">
		<stop  offset="0" style="stop-color:#BDBDBD"/>
		<stop  offset="0.15" style="stop-color:#FFFFFF"/>
		<stop  offset="0.25" style="stop-color:#FFFFFF"/>
		<stop  offset="0.52" style="stop-color:#DFDFDF"/>
		<stop  offset="0.69" style="stop-color:#C7C7C7"/>
		<stop  offset="0.8" style="stop-color:#BCBCBC"/>
		<stop  offset="0.92" style="stop-color:#B1B1B1"/>
		<stop  offset="1" style="stop-color:#CBCBCB"/>
	</linearGradient>
	<path fill="url(#SVGID_47_)" d="M281.109,398.648c-1.59-1.59-1.551-3.77-0.176-5.145c1.238-1.219,3.593-1.371,4.968,0
		c1.043,1.43,1.375,3.605,0.004,4.977c-1.613,1.227-3.597,1.363-4.972-0.008L281.109,398.648z"/>
	<path fill="#595757" d="M281.367,394.636c0.531-0.531,0.789-0.602,0.91-0.477l2.8,3.129c0,0,0.316,0.156,0.215,0.258
		c-0.746,0.273-0.613,0.414-0.734,0.289L281.367,394.636c0,0,0.07-0.086,0.176-0.188L281.367,394.636z"/>
	
		<linearGradient id="SVGID_48_" gradientUnits="userSpaceOnUse" x1="72.3984" y1="241.9102" x2="72.3984" y2="232.5264" gradientTransform="matrix(0.5303 -0.5303 -0.5303 -0.5303 629.0206 545.1686)">
		<stop  offset="0" style="stop-color:#BDBDBD"/>
		<stop  offset="0.15" style="stop-color:#FFFFFF"/>
		<stop  offset="0.25" style="stop-color:#FFFFFF"/>
		<stop  offset="0.52" style="stop-color:#DFDFDF"/>
		<stop  offset="0.69" style="stop-color:#C7C7C7"/>
		<stop  offset="0.8" style="stop-color:#BCBCBC"/>
		<stop  offset="0.92" style="stop-color:#B1B1B1"/>
		<stop  offset="1" style="stop-color:#CBCBCB"/>
	</linearGradient>
	<path fill="url(#SVGID_48_)" d="M539.3,383.625c-1.59-1.59-1.551-3.77-0.176-5.145c1.238-1.219,3.594-1.371,4.969,0.004
		c1.043,1.43,1.375,3.602,0.008,4.973c-1.617,1.23-3.602,1.367-4.977-0.008L539.3,383.625z"/>
	<path fill="#595757" d="M539.558,379.613c0.531-0.527,0.789-0.598,0.91-0.477l2.801,3.129c0,0,0.316,0.156,0.215,0.258
		c-0.742,0.273-0.613,0.414-0.734,0.293L539.558,379.613c0,0,0.074-0.082,0.176-0.188L539.558,379.613z"/>
	
		<linearGradient id="SVGID_49_" gradientUnits="userSpaceOnUse" x1="72.3984" y1="241.9082" x2="72.3984" y2="232.5244" gradientTransform="matrix(0.5303 -0.5303 -0.5303 -0.5303 629.0206 560.1901)">
		<stop  offset="0" style="stop-color:#BDBDBD"/>
		<stop  offset="0.15" style="stop-color:#FFFFFF"/>
		<stop  offset="0.25" style="stop-color:#FFFFFF"/>
		<stop  offset="0.52" style="stop-color:#DFDFDF"/>
		<stop  offset="0.69" style="stop-color:#C7C7C7"/>
		<stop  offset="0.8" style="stop-color:#BCBCBC"/>
		<stop  offset="0.92" style="stop-color:#B1B1B1"/>
		<stop  offset="1" style="stop-color:#CBCBCB"/>
	</linearGradient>
	<path fill="url(#SVGID_49_)" d="M539.3,398.648c-1.59-1.59-1.551-3.77-0.176-5.145c1.238-1.219,3.594-1.371,4.969,0
		c1.043,1.43,1.375,3.605,0.008,4.977c-1.617,1.227-3.602,1.363-4.977-0.008L539.3,398.648z"/>
	<path fill="#595757" d="M539.558,394.636c0.531-0.531,0.789-0.602,0.91-0.477l2.801,3.129c0,0,0.316,0.156,0.215,0.258
		c-0.742,0.273-0.613,0.414-0.734,0.289L539.558,394.636c0,0,0.074-0.086,0.176-0.188L539.558,394.636z"/>
	
		<linearGradient id="SVGID_50_" gradientUnits="userSpaceOnUse" x1="877.2251" y1="194.8081" x2="202.2251" y2="194.808" gradientTransform="matrix(0.75 0 0 -0.75 -119.4156 706.9132)">
		<stop  offset="0" style="stop-color:#9B9B9C"/>
		<stop  offset="0.01" style="stop-color:#E4E4E4"/>
		<stop  offset="0.02" style="stop-color:#CBCBCB"/>
		<stop  offset="0.64" style="stop-color:#C7C7C8"/>
		<stop  offset="0.99" style="stop-color:#C3C3C4"/>
		<stop  offset="1" style="stop-color:#909091"/>
	</linearGradient>
	<path fill="url(#SVGID_50_)" d="M32.254,565.683h506.25v-9.75H32.254V565.683z"/>
	<path fill="#FFFFFF" fill-opacity="0.4588" d="M111.961,184.383h156.75c1.5,0,2.703,0.938,2.703,2.32l0.297,20.93
		c0,1.5-1.41,2.402-2.789,2.402l-156.961-0.152c-1.5,0-2.434-0.965-2.434-2.348l0.184-20.902c0-1.5,0.934-2.43,2.309-2.43
		L111.961,184.383z"/>
	<path fill="#FFFFFF" fill-opacity="0.4588" d="M111.961,231.164h156.75c1.5,0,2.703,0.934,2.703,2.316l0.297,20.934
		c0,1.5-1.41,2.398-2.789,2.398l-156.961-0.148c-1.5,0-2.434-0.969-2.434-2.352l0.184-20.898c0-1.5,0.934-2.434,2.309-2.434
		L111.961,231.164z"/>
	<path fill="#FFFFFF" fill-opacity="0.4588" d="M111.961,277.895h156.75c1.5,0,2.703,0.938,2.703,2.32l0.297,20.929
		c0,1.5-1.41,2.402-2.789,2.402l-156.961-0.152c-1.5,0-2.434-0.965-2.434-2.348l0.184-20.902c0-1.5,0.934-2.43,2.309-2.43
		L111.961,277.895z"/>
	<path fill="#FFFFFF" fill-opacity="0.4588" d="M297.503,184.383h156.75c1.5,0,2.707,0.938,2.707,2.32l0.293,20.93
		c0,1.5-1.41,2.402-2.785,2.402l-156.965-0.152c-1.5,0-2.43-0.965-2.43-2.348l0.18-20.902c0-1.5,0.934-2.43,2.313-2.43
		L297.503,184.383z"/>
	<path fill="#FFFFFF" fill-opacity="0.4588" d="M297.503,231.164h156.75c1.5,0,2.707,0.934,2.707,2.316l0.293,20.934
		c0,1.5-1.41,2.398-2.785,2.398l-156.965-0.148c-1.5,0-2.43-0.969-2.43-2.352l0.18-20.898c0-1.5,0.934-2.434,2.313-2.434
		L297.503,231.164z"/>
	<path fill="#FFFFFF" fill-opacity="0.4588" d="M297.503,277.895h156.75c1.5,0,2.707,0.938,2.707,2.32l0.293,20.929
		c0,1.5-1.41,2.402-2.785,2.402l-156.965-0.152c-1.5,0-2.43-0.965-2.43-2.348l0.18-20.902c0-1.5,0.934-2.43,2.313-2.43
		L297.503,277.895z"/>
</g>
</svg>
