<?xml version="1.0" encoding="utf-8"?>
<!-- Generator: Adobe Illustrator 16.0.0, SVG Export Plug-In . SVG Version: 6.00 Build 0)  -->
<!DOCTYPE svg PUBLIC "-//W3C//DTD SVG 1.1//EN" "http://www.w3.org/Graphics/SVG/1.1/DTD/svg11.dtd">
<svg preserveAspectRatio="none" version="1.1" id="图层_1" xmlns="http://www.w3.org/2000/svg" xmlns:xlink="http://www.w3.org/1999/xlink" x="0px" y="0px"
	 width="565.187px" height="523.25px" viewBox="0.07 42.5 565.187 523.25" enable-background="new 0.07 42.5 565.187 523.25"
	 xml:space="preserve">
<g id="surface956">
	
		<linearGradient id="SVGID_1_" gradientUnits="userSpaceOnUse" x1="214.2236" y1="190.8027" x2="202.2236" y2="190.8027" gradientTransform="matrix(0.75 0 0 -0.75 35.2499 378.1525)">
		<stop  offset="0" style="stop-color:#A3A3A4"/>
		<stop  offset="0.15" style="stop-color:#DEDEDF"/>
		<stop  offset="0.25" style="stop-color:#EDEDED"/>
		<stop  offset="0.52" style="stop-color:#C0C0C1"/>
		<stop  offset="0.69" style="stop-color:#ABABAC"/>
		<stop  offset="0.8" style="stop-color:#A1A1A2"/>
		<stop  offset="0.92" style="stop-color:#989899"/>
		<stop  offset="1" style="stop-color:#AFAFB0"/>
	</linearGradient>
	<path fill="url(#SVGID_1_)" d="M186.918,227.176h9v15.75h-9V227.176z"/>
	
		<linearGradient id="SVGID_2_" gradientUnits="userSpaceOnUse" x1="700.2222" y1="135.8052" x2="202.2231" y2="135.8051" gradientTransform="matrix(0.75 0 0 -0.75 39.8246 193.7472)">
		<stop  offset="0" style="stop-color:#A8A8AD"/>
		<stop  offset="0.03" style="stop-color:#F1F2F6"/>
		<stop  offset="0.08" style="stop-color:#DADBE1"/>
		<stop  offset="0.64" style="stop-color:#D7D8DD"/>
		<stop  offset="0.95" style="stop-color:#D2D3D8"/>
		<stop  offset="1" style="stop-color:#9C9CA0"/>
	</linearGradient>
	<path fill="url(#SVGID_2_)" d="M191.492,42.77h373.5v98.25h-373.5V42.77z"/>
	
		<linearGradient id="SVGID_3_" gradientUnits="userSpaceOnUse" x1="751.2222" y1="135.8052" x2="202.2222" y2="135.8051" gradientTransform="matrix(0.75 0 0 -0.75 1.8402 591.5558)">
		<stop  offset="0" style="stop-color:#A8A8AD"/>
		<stop  offset="0.03" style="stop-color:#F1F2F6"/>
		<stop  offset="0.08" style="stop-color:#DADBE1"/>
		<stop  offset="0.64" style="stop-color:#D7D8DD"/>
		<stop  offset="0.95" style="stop-color:#D2D3D8"/>
		<stop  offset="1" style="stop-color:#9C9CA0"/>
	</linearGradient>
	<path fill="url(#SVGID_3_)" d="M153.508,440.578h411.75v98.25h-411.75V440.578z"/>
	
		<linearGradient id="SVGID_4_" gradientUnits="userSpaceOnUse" x1="332.3042" y1="365.7065" x2="332.3042" y2="235.7065" gradientTransform="matrix(0 -0.75 -0.75 0 741.9269 539.9786)">
		<stop  offset="0" style="stop-color:#A8A8AD"/>
		<stop  offset="0.03" style="stop-color:#F1F2F6"/>
		<stop  offset="0.08" style="stop-color:#DADBE1"/>
		<stop  offset="0.64" style="stop-color:#D7D8DD"/>
		<stop  offset="0.95" style="stop-color:#D2D3D8"/>
		<stop  offset="1" style="stop-color:#9C9CA0"/>
	</linearGradient>
	<path fill="url(#SVGID_4_)" d="M467.648,539V42.5h97.5V539H467.648z"/>
	
		<linearGradient id="SVGID_5_" gradientUnits="userSpaceOnUse" x1="825.2231" y1="192.8062" x2="202.2241" y2="192.8061" gradientTransform="matrix(0.75 0 0 -0.75 -151.5983 563.5909)">
		<stop  offset="0" style="stop-color:#A8A8AD"/>
		<stop  offset="0.03" style="stop-color:#F1F2F6"/>
		<stop  offset="0.08" style="stop-color:#DADBE1"/>
		<stop  offset="0.64" style="stop-color:#D7D8DD"/>
		<stop  offset="0.95" style="stop-color:#D2D3D8"/>
		<stop  offset="1" style="stop-color:#9C9CA0"/>
	</linearGradient>
	<path fill="url(#SVGID_5_)" d="M0.07,412.613h467.25v12.75H0.07V412.613z"/>
	
		<linearGradient id="SVGID_6_" gradientUnits="userSpaceOnUse" x1="229.2241" y1="96.8057" x2="202.2241" y2="96.8057" gradientTransform="matrix(0.75 0 0 -0.75 29.5585 222.756)">
		<stop  offset="0" style="stop-color:#A64B4E"/>
		<stop  offset="0.03" style="stop-color:#EF9A9C"/>
		<stop  offset="0.08" style="stop-color:#D86468"/>
		<stop  offset="0.64" style="stop-color:#D56266"/>
		<stop  offset="0.95" style="stop-color:#D06063"/>
		<stop  offset="1" style="stop-color:#9A4548"/>
	</linearGradient>
	<path fill="url(#SVGID_6_)" d="M181.227,71.777h20.25v156.75h-20.25V71.777z"/>
	
		<linearGradient id="SVGID_7_" gradientUnits="userSpaceOnUse" x1="215.2246" y1="114.8062" x2="202.2246" y2="114.8062" gradientTransform="matrix(0.75 0 0 -0.75 185.0887 433.5763)">
		<stop  offset="0" style="stop-color:#5F89A6"/>
		<stop  offset="0.01" style="stop-color:#AAD1EF"/>
		<stop  offset="0.02" style="stop-color:#7EB3D8"/>
		<stop  offset="0.64" style="stop-color:#7CB0D5"/>
		<stop  offset="0.99" style="stop-color:#79ACD0"/>
		<stop  offset="1" style="stop-color:#587F9A"/>
	</linearGradient>
	<path fill="url(#SVGID_7_)" d="M336.757,282.598h9.75v129.75h-9.75V282.598z"/>
	
		<linearGradient id="SVGID_8_" gradientUnits="userSpaceOnUse" x1="229.2256" y1="134.8037" x2="202.2256" y2="134.8037" gradientTransform="matrix(0.75 0 0 -0.75 194.8417 463.1017)">
		<stop  offset="0" style="stop-color:#5F89A6"/>
		<stop  offset="0.01" style="stop-color:#AAD1EF"/>
		<stop  offset="0.02" style="stop-color:#7EB3D8"/>
		<stop  offset="0.64" style="stop-color:#7CB0D5"/>
		<stop  offset="0.99" style="stop-color:#79ACD0"/>
		<stop  offset="1" style="stop-color:#587F9A"/>
	</linearGradient>
	<path fill="url(#SVGID_8_)" d="M346.511,312.125h20.25v99.75h-20.25V312.125z"/>
	
		<linearGradient id="SVGID_9_" gradientUnits="userSpaceOnUse" x1="526.2241" y1="190.8042" x2="202.2251" y2="190.8042" gradientTransform="matrix(0.75 0 0 -0.75 34.1781 576.0236)">
		<stop  offset="0" style="stop-color:#8E8F94"/>
		<stop  offset="0.03" style="stop-color:#D5D7DC"/>
		<stop  offset="0.08" style="stop-color:#B9BBC1"/>
		<stop  offset="0.64" style="stop-color:#B6B8BE"/>
		<stop  offset="0.95" style="stop-color:#B2B4BA"/>
		<stop  offset="1" style="stop-color:#838589"/>
	</linearGradient>
	<path fill="url(#SVGID_9_)" d="M185.848,425.046h243v15.75h-243V425.046z"/>
	
		<linearGradient id="SVGID_10_" gradientUnits="userSpaceOnUse" x1="252.2246" y1="188.3027" x2="202.2246" y2="188.3027" gradientTransform="matrix(0.75 0 0 -0.75 369.8778 689.9796)">
		<stop  offset="0" style="stop-color:#5F89A6"/>
		<stop  offset="0.01" style="stop-color:#AAD1EF"/>
		<stop  offset="0.02" style="stop-color:#7EB3D8"/>
		<stop  offset="0.64" style="stop-color:#7CB0D5"/>
		<stop  offset="0.99" style="stop-color:#79ACD0"/>
		<stop  offset="1" style="stop-color:#587F9A"/>
	</linearGradient>
	<path fill="url(#SVGID_10_)" d="M559.046,539.003h-37.5v19.5h37.5V539.003z"/>
	
		<linearGradient id="SVGID_11_" gradientUnits="userSpaceOnUse" x1="252.2275" y1="188.3047" x2="202.2275" y2="188.3047" gradientTransform="matrix(0.75 0 0 -0.75 8.786 689.9806)">
		<stop  offset="0" style="stop-color:#5F89A6"/>
		<stop  offset="0.01" style="stop-color:#AAD1EF"/>
		<stop  offset="0.02" style="stop-color:#7EB3D8"/>
		<stop  offset="0.64" style="stop-color:#7CB0D5"/>
		<stop  offset="0.99" style="stop-color:#79ACD0"/>
		<stop  offset="1" style="stop-color:#587F9A"/>
	</linearGradient>
	<path fill="url(#SVGID_11_)" d="M197.957,539.003h-37.5v19.5h37.5V539.003z"/>
	
		<linearGradient id="SVGID_12_" gradientUnits="userSpaceOnUse" x1="264.2227" y1="191.3027" x2="202.2227" y2="191.3027" gradientTransform="matrix(0.75 0 0 -0.75 4.4227 701.7267)">
		<stop  offset="0" style="stop-color:#5B839F"/>
		<stop  offset="0.15" style="stop-color:#8AB8DA"/>
		<stop  offset="0.25" style="stop-color:#C6D9EA"/>
		<stop  offset="0.52" style="stop-color:#6D9BBC"/>
		<stop  offset="0.69" style="stop-color:#608AA7"/>
		<stop  offset="0.8" style="stop-color:#5A829E"/>
		<stop  offset="0.92" style="stop-color:#557A95"/>
		<stop  offset="1" style="stop-color:#628DAB"/>
	</linearGradient>
	<path fill="url(#SVGID_12_)" d="M202.59,550.75h-46.5v15h46.5V550.75z"/>
	
		<linearGradient id="SVGID_13_" gradientUnits="userSpaceOnUse" x1="264.2227" y1="191.3066" x2="202.2227" y2="191.3066" gradientTransform="matrix(0.75 0 0 -0.75 365.5155 701.7286)">
		<stop  offset="0" style="stop-color:#5B839F"/>
		<stop  offset="0.15" style="stop-color:#8AB8DA"/>
		<stop  offset="0.25" style="stop-color:#C6D9EA"/>
		<stop  offset="0.52" style="stop-color:#6D9BBC"/>
		<stop  offset="0.69" style="stop-color:#608AA7"/>
		<stop  offset="0.8" style="stop-color:#5A829E"/>
		<stop  offset="0.92" style="stop-color:#557A95"/>
		<stop  offset="1" style="stop-color:#628DAB"/>
	</linearGradient>
	<path fill="url(#SVGID_13_)" d="M563.683,550.75h-46.5v15h46.5V550.75z"/>
	
		<linearGradient id="SVGID_14_" gradientUnits="userSpaceOnUse" x1="7.3047" y1="300.7065" x2="1.3047" y2="300.7065" gradientTransform="matrix(0 -0.75 -0.75 0 741.9269 259.1154)">
		<stop  offset="0" style="stop-color:#8E8F94"/>
		<stop  offset="0.03" style="stop-color:#D5D7DC"/>
		<stop  offset="0.08" style="stop-color:#B9BBC1"/>
		<stop  offset="0.64" style="stop-color:#B6B8BE"/>
		<stop  offset="0.95" style="stop-color:#B2B4BA"/>
		<stop  offset="1" style="stop-color:#838589"/>
	</linearGradient>
	<path fill="url(#SVGID_14_)" d="M467.648,258.137v-4.5h97.5v4.5H467.648z"/>
	
		<linearGradient id="SVGID_15_" gradientUnits="userSpaceOnUse" x1="7.3086" y1="300.7065" x2="1.3086" y2="300.7065" gradientTransform="matrix(0 -0.75 -0.75 0 741.9269 373.964)">
		<stop  offset="0" style="stop-color:#8E8F94"/>
		<stop  offset="0.03" style="stop-color:#D5D7DC"/>
		<stop  offset="0.08" style="stop-color:#B9BBC1"/>
		<stop  offset="0.64" style="stop-color:#B6B8BE"/>
		<stop  offset="0.95" style="stop-color:#B2B4BA"/>
		<stop  offset="1" style="stop-color:#838589"/>
	</linearGradient>
	<path fill="url(#SVGID_15_)" d="M467.648,372.984v-4.5h97.5v4.5H467.648z"/>
	
		<linearGradient id="SVGID_16_" gradientUnits="userSpaceOnUse" x1="7.3066" y1="300.7065" x2="1.3066" y2="300.7065" gradientTransform="matrix(0 -0.75 -0.75 0 741.9269 144.2677)">
		<stop  offset="0" style="stop-color:#8E8F94"/>
		<stop  offset="0.03" style="stop-color:#D5D7DC"/>
		<stop  offset="0.08" style="stop-color:#B9BBC1"/>
		<stop  offset="0.64" style="stop-color:#B6B8BE"/>
		<stop  offset="0.95" style="stop-color:#B2B4BA"/>
		<stop  offset="1" style="stop-color:#838589"/>
	</linearGradient>
	<path fill="url(#SVGID_16_)" d="M467.648,143.289v-4.5h97.5v4.5H467.648z"/>
	
		<linearGradient id="SVGID_17_" gradientUnits="userSpaceOnUse" x1="218.2246" y1="198.3018" x2="202.1719" y2="198.3018" gradientTransform="matrix(0.75 0 0 -0.75 33.601 391.2921)">
		<stop  offset="0" style="stop-color:#979898"/>
		<stop  offset="0.15" style="stop-color:#D0D1D1"/>
		<stop  offset="0.25" style="stop-color:#E5E6E6"/>
		<stop  offset="0.52" style="stop-color:#B3B4B4"/>
		<stop  offset="0.69" style="stop-color:#9FA0A0"/>
		<stop  offset="0.8" style="stop-color:#969797"/>
		<stop  offset="0.92" style="stop-color:#8E8E8E"/>
		<stop  offset="1" style="stop-color:#A3A4A4"/>
	</linearGradient>
	<path fill="url(#SVGID_17_)" d="M186.02,240.316h10.5c0,0,0.621,0.277,0.621,0.621l0.129,3.129c0,0-0.406,0.391-0.746,0.391
		l-10.504,0.359c-0.75,0-0.789-0.637-0.789-0.98l0.039-2.77c0-0.75,0.238-0.75,0.578-0.75H186.02z"/>
	
		<radialGradient id="SVGID_18_" cx="225.4033" cy="177.8765" r="32.9834" gradientTransform="matrix(0.75 0 0 -0.75 183.5487 552.2697)" gradientUnits="userSpaceOnUse">
		<stop  offset="0" style="stop-color:#3C3736"/>
		<stop  offset="0.54" style="stop-color:#3B3635"/>
		<stop  offset="0.74" style="stop-color:#9A9999"/>
		<stop  offset="0.91" style="stop-color:#3B3635"/>
		<stop  offset="1" style="stop-color:#3B3635"/>
	</radialGradient>
	<path fill="url(#SVGID_18_)" stroke="#3E3938" stroke-width="0.25" stroke-linejoin="bevel" stroke-miterlimit="10" d="
		M352.468,401.292c9.75,0,17.547,7.867,17.547,17.535c-0.297,9.465-7.789,17.539-17.398,17.539
		c-0.148,0.176-6.852,0.406-12.336-5.188c-5.813-5.887-5.063-12.352-5.063-12.352c0-0.285-0.215-7.453,5.266-12.637
		c5.234-4.898,12.133-4.898,12.133-4.898H352.468z M352.468,405.042c0,0,5.426-0.52,9.891,3.789
		c4.359,4.461,4.172,9.996,4.172,9.996c0.188-0.285,0.379,5.25-3.871,9.75c-4.191,4.215-10.043,4.273-10.043,4.273
		c-0.148-0.059-5.637,0.309-9.941-4.219c-4.457-4.84-3.973-9.805-3.973-9.805c0.266-0.285-0.277-5.441,4.082-9.914
		c4.434-4.621,9.832-4.086,9.832-4.086L352.468,405.042z"/>
	
		<linearGradient id="SVGID_19_" gradientUnits="userSpaceOnUse" x1="206.3564" y1="193.8691" x2="202.2256" y2="193.8691" gradientTransform="matrix(0.75 0 0 -0.75 199.2362 555.4337)">
		<stop  offset="0" style="stop-color:#343232"/>
		<stop  offset="0.15" style="stop-color:#555454"/>
		<stop  offset="0.26" style="stop-color:#797777"/>
		<stop  offset="0.41" style="stop-color:#5D5B5B"/>
		<stop  offset="0.6" style="stop-color:#484646"/>
		<stop  offset="0.8" style="stop-color:#383636"/>
		<stop  offset="0.93" style="stop-color:#2C2B2B"/>
		<stop  offset="1" style="stop-color:#535151"/>
	</linearGradient>
	<path fill="url(#SVGID_19_)" d="M353.906,404.457v10.5c0,0.75-3,0.855-3,0.371v-10.871c0,0,3.098-0.125,3.098,0.363
		L353.906,404.457z"/>
	
		<linearGradient id="SVGID_20_" gradientUnits="userSpaceOnUse" x1="337.1743" y1="483.6987" x2="333.022" y2="483.6987" gradientTransform="matrix(-0.375 0.6495 0.6495 0.375 171.6399 24.0372)">
		<stop  offset="0" style="stop-color:#343232"/>
		<stop  offset="0.15" style="stop-color:#555454"/>
		<stop  offset="0.26" style="stop-color:#797777"/>
		<stop  offset="0.41" style="stop-color:#5D5B5B"/>
		<stop  offset="0.6" style="stop-color:#484646"/>
		<stop  offset="0.8" style="stop-color:#383636"/>
		<stop  offset="0.93" style="stop-color:#2C2B2B"/>
		<stop  offset="1" style="stop-color:#535151"/>
	</linearGradient>
	<path fill="url(#SVGID_20_)" d="M364.242,427.105l-9.094-5.25c-0.648-0.375,0.809-2.996,1.227-2.754l9.367,5.406
		c0,0-1.453,2.758-1.871,2.516L364.242,427.105z"/>
	
		<linearGradient id="SVGID_21_" gradientUnits="userSpaceOnUse" x1="355.4341" y1="452.0708" x2="351.2817" y2="452.0708" gradientTransform="matrix(0.375 0.6495 -0.6495 0.375 506.2117 24.0372)">
		<stop  offset="0" style="stop-color:#343232"/>
		<stop  offset="0.15" style="stop-color:#555454"/>
		<stop  offset="0.26" style="stop-color:#797777"/>
		<stop  offset="0.41" style="stop-color:#5D5B5B"/>
		<stop  offset="0.6" style="stop-color:#484646"/>
		<stop  offset="0.8" style="stop-color:#383636"/>
		<stop  offset="0.93" style="stop-color:#2C2B2B"/>
		<stop  offset="1" style="stop-color:#535151"/>
	</linearGradient>
	<path fill="url(#SVGID_21_)" d="M341,427.105l9.094-5.25c0.652-0.375-0.809-2.996-1.227-2.754l-9.367,5.406
		c0,0,1.453,2.758,1.871,2.516L341,427.105z"/>
	
		<radialGradient id="SVGID_22_" cx="207.2988" cy="196.1919" r="7.2057" gradientTransform="matrix(0.75 0 0 -0.75 197.1405 565.9728)" gradientUnits="userSpaceOnUse">
		<stop  offset="0" style="stop-color:#3C3736"/>
		<stop  offset="0.54" style="stop-color:#3B3635"/>
		<stop  offset="0.74" style="stop-color:#9A9999"/>
		<stop  offset="0.91" style="stop-color:#3B3635"/>
		<stop  offset="1" style="stop-color:#3B3635"/>
	</radialGradient>
	<path fill="url(#SVGID_22_)" stroke="#3E3938" stroke-width="0.25" stroke-linejoin="bevel" stroke-miterlimit="10" d="
		M348.808,418.746c0-2.25,1.707-3.75,3.809-3.75c2.191,0,3.805,1.715,3.805,3.832c-0.113,2.168-1.703,3.836-3.805,3.836
		c-2.309-0.168-3.809-1.719-3.809-3.836V418.746z"/>
</g>
</svg>
