<?xml version="1.0" encoding="utf-8"?>
<!-- Generator: Adobe Illustrator 16.0.0, SVG Export Plug-In . SVG Version: 6.00 Build 0)  -->
<!DOCTYPE svg PUBLIC "-//W3C//DTD SVG 1.1//EN" "http://www.w3.org/Graphics/SVG/1.1/DTD/svg11.dtd">
<svg preserveAspectRatio="none" version="1.1" id="图层_1" xmlns="http://www.w3.org/2000/svg" xmlns:xlink="http://www.w3.org/1999/xlink" x="0px" y="0px"
	 width="226.628px" height="560.562px" viewBox="170.227 5.602 226.628 560.562"
	 enable-background="new 170.227 5.602 226.628 560.562" xml:space="preserve">
<g id="surface876">
	
		<linearGradient id="SVGID_1_" gradientUnits="userSpaceOnUse" x1="277.2236" y1="94.3032" x2="202.2236" y2="94.3032" gradientTransform="matrix(0.75 0 0 -0.75 18.5585 416.1095)">
		<stop  offset="0" style="stop-color:#A8A8A8"/>
		<stop  offset="0.01" style="stop-color:#F2F2F2"/>
		<stop  offset="0.02" style="stop-color:#DBDBDB"/>
		<stop  offset="0.64" style="stop-color:#D8D8D8"/>
		<stop  offset="0.99" style="stop-color:#D3D3D3"/>
		<stop  offset="1" style="stop-color:#9C9C9C"/>
	</linearGradient>
	<path fill="url(#SVGID_1_)" d="M226.477,425.632h-56.25v-160.5h56.25V425.632z"/>
	
		<linearGradient id="SVGID_2_" gradientUnits="userSpaceOnUse" x1="388.2231" y1="151.73" x2="202.2236" y2="151.73" gradientTransform="matrix(0.75 0 0 -0.75 83.6053 156.5802)">
		<stop  offset="0" style="stop-color:#A8A8A8"/>
		<stop  offset="0.01" style="stop-color:#F2F2F2"/>
		<stop  offset="0.02" style="stop-color:#DBDBDB"/>
		<stop  offset="0.64" style="stop-color:#D8D8D8"/>
		<stop  offset="0.99" style="stop-color:#D3D3D3"/>
		<stop  offset="1" style="stop-color:#9C9C9C"/>
	</linearGradient>
	<path fill="url(#SVGID_2_)" d="M236.773,5.602h136.5c0.75,0,1.469,0.637,1.469,1.469l0.031,71.281c0,0.75-0.727,1.613-1.555,1.613
		l-136.445-0.113c-0.75,0-1.5-0.582-1.5-1.41V7.102c0-0.75,0.66-1.5,1.488-1.5H236.773z"/>
	
		<linearGradient id="SVGID_3_" gradientUnits="userSpaceOnUse" x1="219.2246" y1="157.7139" x2="202.1621" y2="157.7139" gradientTransform="matrix(0.75 0 0 -0.75 92.8314 164.6212)">
		<stop  offset="0" style="stop-color:#BDBDBD"/>
		<stop  offset="0.15" style="stop-color:#FFFFFF"/>
		<stop  offset="0.25" style="stop-color:#FFFFFF"/>
		<stop  offset="0.52" style="stop-color:#DFDFDF"/>
		<stop  offset="0.69" style="stop-color:#C7C7C7"/>
		<stop  offset="0.8" style="stop-color:#BCBCBC"/>
		<stop  offset="0.92" style="stop-color:#B1B1B1"/>
		<stop  offset="1" style="stop-color:#CBCBCB"/>
	</linearGradient>
	<path fill="url(#SVGID_3_)" d="M246,13.645h9.75c0.75,0,1.461,0.672,1.461,1.5l0.039,62.25c0,0.75-0.723,1.633-1.551,1.633
		L246,78.895c-0.75,0-1.547-0.563-1.547-1.395l0.047-62.355c0-0.75,0.625-1.5,1.453-1.5H246z"/>
	
		<linearGradient id="SVGID_4_" gradientUnits="userSpaceOnUse" x1="219.2271" y1="157.7139" x2="202.1646" y2="157.7139" gradientTransform="matrix(0.75 0 0 -0.75 199.3251 164.6212)">
		<stop  offset="0" style="stop-color:#BDBDBD"/>
		<stop  offset="0.15" style="stop-color:#FFFFFF"/>
		<stop  offset="0.25" style="stop-color:#FFFFFF"/>
		<stop  offset="0.52" style="stop-color:#DFDFDF"/>
		<stop  offset="0.69" style="stop-color:#C7C7C7"/>
		<stop  offset="0.8" style="stop-color:#BCBCBC"/>
		<stop  offset="0.92" style="stop-color:#B1B1B1"/>
		<stop  offset="1" style="stop-color:#CBCBCB"/>
	</linearGradient>
	<path fill="url(#SVGID_4_)" d="M352.496,13.645h9.75c0.75,0,1.461,0.672,1.461,1.5l0.039,62.25c0,0.75-0.723,1.633-1.551,1.633
		l-9.699-0.133c-0.75,0-1.547-0.563-1.547-1.395l0.047-62.355c0-0.75,0.621-1.5,1.449-1.5H352.496z"/>
	
		<linearGradient id="SVGID_5_" gradientUnits="userSpaceOnUse" x1="411.2222" y1="55.8042" x2="202.2222" y2="55.8042" gradientTransform="matrix(0.75 0 0 -0.75 74.9886 356.7579)">
		<stop  offset="0" style="stop-color:#B5B5B5"/>
		<stop  offset="0.01" style="stop-color:#FFFFFF"/>
		<stop  offset="0.02" style="stop-color:#EBEBEB"/>
		<stop  offset="0.64" style="stop-color:#E7E7E7"/>
		<stop  offset="0.99" style="stop-color:#E2E2E2"/>
		<stop  offset="1" style="stop-color:#A8A8A8"/>
	</linearGradient>
	<path fill="url(#SVGID_5_)" d="M226.656,205.781h156.75v218.25h-156.75V205.781z"/>
	
		<linearGradient id="SVGID_6_" gradientUnits="userSpaceOnUse" x1="411.2222" y1="113.8057" x2="202.2222" y2="113.8056" gradientTransform="matrix(0.75 0 0 -0.75 74.9886 229.213)">
		<stop  offset="0" style="stop-color:#B5B5B5"/>
		<stop  offset="0.01" style="stop-color:#FFFFFF"/>
		<stop  offset="0.02" style="stop-color:#EBEBEB"/>
		<stop  offset="0.64" style="stop-color:#E7E7E7"/>
		<stop  offset="0.99" style="stop-color:#E2E2E2"/>
		<stop  offset="1" style="stop-color:#A8A8A8"/>
	</linearGradient>
	<path fill="url(#SVGID_6_)" d="M226.656,78.234h156.75v131.25h-156.75V78.234z"/>
	
		<linearGradient id="SVGID_7_" gradientUnits="userSpaceOnUse" x1="411.2222" y1="192.3066" x2="202.2222" y2="192.3066" gradientTransform="matrix(0.75 0 0 -0.75 74.9886 579.6974)">
		<stop  offset="0" style="stop-color:#B59900"/>
		<stop  offset="0.01" style="stop-color:#FFE17C"/>
		<stop  offset="0.02" style="stop-color:#EBC800"/>
		<stop  offset="0.64" style="stop-color:#E7C400"/>
		<stop  offset="0.99" style="stop-color:#E2C000"/>
		<stop  offset="1" style="stop-color:#A88E00"/>
	</linearGradient>
	<path fill="url(#SVGID_7_)" d="M226.656,428.718h156.75v13.5h-156.75V428.718z"/>
	
		<linearGradient id="SVGID_8_" gradientUnits="userSpaceOnUse" x1="411.2222" y1="112.8076" x2="202.2222" y2="112.8076" gradientTransform="matrix(0.75 0 0 -0.75 74.9886 584.3937)">
		<stop  offset="0" style="stop-color:#B5B5B5"/>
		<stop  offset="0.01" style="stop-color:#FFFFFF"/>
		<stop  offset="0.02" style="stop-color:#EBEBEB"/>
		<stop  offset="0.64" style="stop-color:#E7E7E7"/>
		<stop  offset="0.99" style="stop-color:#E2E2E2"/>
		<stop  offset="1" style="stop-color:#A8A8A8"/>
	</linearGradient>
	<path fill="url(#SVGID_8_)" d="M226.656,433.414h156.75v132.75h-30.75l-16.5-78.75l-11.25-10.5h-39.75l-11.25,11.25l-15.75,78
		h-31.5V433.414z"/>
	
		<linearGradient id="SVGID_9_" gradientUnits="userSpaceOnUse" x1="294.2251" y1="181.8027" x2="202.2256" y2="181.8027" gradientTransform="matrix(0.75 0 0 -0.75 118.8495 199.7423)">
		<stop  offset="0" style="stop-color:#B5B5B5"/>
		<stop  offset="0.01" style="stop-color:#FFFFFF"/>
		<stop  offset="0.02" style="stop-color:#EBEBEB"/>
		<stop  offset="0.64" style="stop-color:#E7E7E7"/>
		<stop  offset="0.99" style="stop-color:#E2E2E2"/>
		<stop  offset="1" style="stop-color:#A8A8A8"/>
	</linearGradient>
	<path fill="url(#SVGID_9_)" d="M270.52,78.016h69v-29.25h-69V78.016z"/>
	
		<linearGradient id="SVGID_10_" gradientUnits="userSpaceOnUse" x1="265.2246" y1="189.3047" x2="202.2256" y2="189.3047" gradientTransform="matrix(0.75 0 0 -0.75 129.7211 182.463)">
		<stop  offset="0" style="stop-color:#BDBDBD"/>
		<stop  offset="0.15" style="stop-color:#FFFFFF"/>
		<stop  offset="0.25" style="stop-color:#FFFFFF"/>
		<stop  offset="0.52" style="stop-color:#DFDFDF"/>
		<stop  offset="0.69" style="stop-color:#C7C7C7"/>
		<stop  offset="0.8" style="stop-color:#BCBCBC"/>
		<stop  offset="0.92" style="stop-color:#B1B1B1"/>
		<stop  offset="1" style="stop-color:#CBCBCB"/>
	</linearGradient>
	<path fill="url(#SVGID_10_)" d="M281.391,49.484h47.25v-18h-47.25V49.484z"/>
	
		<linearGradient id="SVGID_11_" gradientUnits="userSpaceOnUse" x1="229.2256" y1="190.7769" x2="202.2256" y2="190.7769" gradientTransform="matrix(0.75 0 0 -0.75 143.205 167.4376)">
		<stop  offset="0" style="stop-color:#BDBDBD"/>
		<stop  offset="0.15" style="stop-color:#FFFFFF"/>
		<stop  offset="0.25" style="stop-color:#FFFFFF"/>
		<stop  offset="0.52" style="stop-color:#DFDFDF"/>
		<stop  offset="0.69" style="stop-color:#C7C7C7"/>
		<stop  offset="0.8" style="stop-color:#BCBCBC"/>
		<stop  offset="0.92" style="stop-color:#B1B1B1"/>
		<stop  offset="1" style="stop-color:#CBCBCB"/>
	</linearGradient>
	<path fill="url(#SVGID_11_)" d="M296.375,16.461h17.25c0.75,0,1.492,0.672,1.492,1.504l0.008,12.746c0,0.75-0.68,1.539-1.508,1.539
		l-17.242-0.039c-0.75,0-1.5-0.645-1.5-1.477V17.961C294.875,17.211,295.546,16.461,296.375,16.461z"/>
	
		<linearGradient id="SVGID_12_" gradientUnits="userSpaceOnUse" x1="258.2256" y1="132.8013" x2="202.2256" y2="132.8013" gradientTransform="matrix(0.75 0 0 -0.75 32.8036 416.1085)">
		<stop  offset="0" style="stop-color:#B5B5B5"/>
		<stop  offset="0.01" style="stop-color:#FFFFFF"/>
		<stop  offset="0.02" style="stop-color:#EBEBEB"/>
		<stop  offset="0.64" style="stop-color:#E7E7E7"/>
		<stop  offset="0.99" style="stop-color:#E2E2E2"/>
		<stop  offset="1" style="stop-color:#A8A8A8"/>
	</linearGradient>
	<path fill="url(#SVGID_12_)" d="M226.473,265.133h-42v102.75h42V265.133z"/>
	
		<linearGradient id="SVGID_13_" gradientUnits="userSpaceOnUse" x1="411.2222" y1="121.3042" x2="202.2222" y2="121.3042" gradientTransform="matrix(0.75 0 0 -0.75 74.9886 349.4337)">
		<stop  offset="0" style="stop-color:#7E7F7F"/>
		<stop  offset="0.01" style="stop-color:#C6C7C7"/>
		<stop  offset="0.02" style="stop-color:#A6A6A6"/>
		<stop  offset="0.64" style="stop-color:#A3A4A4"/>
		<stop  offset="0.99" style="stop-color:#9FA0A0"/>
		<stop  offset="1" style="stop-color:#757676"/>
	</linearGradient>
	<path fill="url(#SVGID_13_)" d="M226.656,198.457h156.75v120h-156.75V198.457z"/>
	
		<linearGradient id="SVGID_14_" gradientUnits="userSpaceOnUse" x1="266.2236" y1="165.8037" x2="202.2246" y2="165.8037" gradientTransform="matrix(0.75 0 0 -0.75 128.7728 349.4337)">
		<stop  offset="0" style="stop-color:#BDBDBD"/>
		<stop  offset="0.15" style="stop-color:#FFFFFF"/>
		<stop  offset="0.25" style="stop-color:#FFFFFF"/>
		<stop  offset="0.52" style="stop-color:#DFDFDF"/>
		<stop  offset="0.69" style="stop-color:#C7C7C7"/>
		<stop  offset="0.8" style="stop-color:#BCBCBC"/>
		<stop  offset="0.92" style="stop-color:#B1B1B1"/>
		<stop  offset="1" style="stop-color:#CBCBCB"/>
	</linearGradient>
	<path fill="url(#SVGID_14_)" d="M280.441,198.457h48v53.25h-48V198.457z"/>
	
		<linearGradient id="SVGID_15_" gradientUnits="userSpaceOnUse" x1="266.2236" y1="193.8037" x2="202.2246" y2="193.8037" gradientTransform="matrix(0.75 0 0 -0.75 128.7728 391.504)">
		<stop  offset="0" style="stop-color:#403E3E"/>
		<stop  offset="0.15" style="stop-color:#6D6C6C"/>
		<stop  offset="0.25" style="stop-color:#BCBCBC"/>
		<stop  offset="0.52" style="stop-color:#4D4B4B"/>
		<stop  offset="0.69" style="stop-color:#434242"/>
		<stop  offset="0.8" style="stop-color:#3F3E3E"/>
		<stop  offset="0.92" style="stop-color:#3B3A3A"/>
		<stop  offset="1" style="stop-color:#454444"/>
	</linearGradient>
	<path fill="url(#SVGID_15_)" d="M280.441,240.527h48v11.25h-48V240.527z"/>
	
		<linearGradient id="SVGID_16_" gradientUnits="userSpaceOnUse" x1="243.2227" y1="165.3062" x2="202.2227" y2="165.3062" gradientTransform="matrix(0.75 0 0 -0.75 137.5199 402.7677)">
		<stop  offset="0" style="stop-color:#BDBDBD"/>
		<stop  offset="0.15" style="stop-color:#FFFFFF"/>
		<stop  offset="0.25" style="stop-color:#FFFFFF"/>
		<stop  offset="0.52" style="stop-color:#DFDFDF"/>
		<stop  offset="0.69" style="stop-color:#C7C7C7"/>
		<stop  offset="0.8" style="stop-color:#BCBCBC"/>
		<stop  offset="0.92" style="stop-color:#B1B1B1"/>
		<stop  offset="1" style="stop-color:#CBCBCB"/>
	</linearGradient>
	<path fill="url(#SVGID_16_)" d="M289.187,251.789h30.75v54h-30.75V251.789z"/>
	
		<linearGradient id="SVGID_17_" gradientUnits="userSpaceOnUse" x1="237.2275" y1="195.8027" x2="202.2275" y2="195.8027" gradientTransform="matrix(0.75 0 0 -0.75 86.9735 349.9337)">
		<stop  offset="0" style="stop-color:#403E3E"/>
		<stop  offset="0.15" style="stop-color:#6D6C6C"/>
		<stop  offset="0.25" style="stop-color:#BCBCBC"/>
		<stop  offset="0.52" style="stop-color:#4D4B4B"/>
		<stop  offset="0.69" style="stop-color:#434242"/>
		<stop  offset="0.8" style="stop-color:#3F3E3E"/>
		<stop  offset="0.92" style="stop-color:#3B3A3A"/>
		<stop  offset="1" style="stop-color:#454444"/>
	</linearGradient>
	<path fill="url(#SVGID_17_)" d="M238.645,198.957h26.25v8.25h-26.25V198.957z"/>
	
		<linearGradient id="SVGID_18_" gradientUnits="userSpaceOnUse" x1="237.2275" y1="195.8047" x2="202.2275" y2="195.8047" gradientTransform="matrix(0.75 0 0 -0.75 86.9735 458.923)">
		<stop  offset="0" style="stop-color:#403E3E"/>
		<stop  offset="0.15" style="stop-color:#6D6C6C"/>
		<stop  offset="0.25" style="stop-color:#BCBCBC"/>
		<stop  offset="0.52" style="stop-color:#4D4B4B"/>
		<stop  offset="0.69" style="stop-color:#434242"/>
		<stop  offset="0.8" style="stop-color:#3F3E3E"/>
		<stop  offset="0.92" style="stop-color:#3B3A3A"/>
		<stop  offset="1" style="stop-color:#454444"/>
	</linearGradient>
	<path fill="url(#SVGID_18_)" d="M238.645,307.945h26.25v8.25h-26.25V307.945z"/>
	
		<linearGradient id="SVGID_19_" gradientUnits="userSpaceOnUse" x1="224.2241" y1="134.3027" x2="202.2241" y2="134.3027" gradientTransform="matrix(0.75 0 0 -0.75 91.8158 358.4132)">
		<stop  offset="0" style="stop-color:#BDBDBD"/>
		<stop  offset="0.15" style="stop-color:#FFFFFF"/>
		<stop  offset="0.25" style="stop-color:#FFFFFF"/>
		<stop  offset="0.52" style="stop-color:#DFDFDF"/>
		<stop  offset="0.69" style="stop-color:#C7C7C7"/>
		<stop  offset="0.8" style="stop-color:#BCBCBC"/>
		<stop  offset="0.92" style="stop-color:#B1B1B1"/>
		<stop  offset="1" style="stop-color:#CBCBCB"/>
	</linearGradient>
	<path fill="url(#SVGID_19_)" d="M243.484,207.438h16.5v100.5h-16.5V207.438z"/>
	
		<linearGradient id="SVGID_20_" gradientUnits="userSpaceOnUse" x1="237.2256" y1="195.8027" x2="202.2256" y2="195.8027" gradientTransform="matrix(0.75 0 0 -0.75 192.4042 349.9337)">
		<stop  offset="0" style="stop-color:#403E3E"/>
		<stop  offset="0.15" style="stop-color:#6D6C6C"/>
		<stop  offset="0.25" style="stop-color:#BCBCBC"/>
		<stop  offset="0.52" style="stop-color:#4D4B4B"/>
		<stop  offset="0.69" style="stop-color:#434242"/>
		<stop  offset="0.8" style="stop-color:#3F3E3E"/>
		<stop  offset="0.92" style="stop-color:#3B3A3A"/>
		<stop  offset="1" style="stop-color:#454444"/>
	</linearGradient>
	<path fill="url(#SVGID_20_)" d="M344.074,198.957h26.25v8.25h-26.25V198.957z"/>
	
		<linearGradient id="SVGID_21_" gradientUnits="userSpaceOnUse" x1="237.2256" y1="195.8047" x2="202.2256" y2="195.8047" gradientTransform="matrix(0.75 0 0 -0.75 192.4042 458.923)">
		<stop  offset="0" style="stop-color:#403E3E"/>
		<stop  offset="0.15" style="stop-color:#6D6C6C"/>
		<stop  offset="0.25" style="stop-color:#BCBCBC"/>
		<stop  offset="0.52" style="stop-color:#4D4B4B"/>
		<stop  offset="0.69" style="stop-color:#434242"/>
		<stop  offset="0.8" style="stop-color:#3F3E3E"/>
		<stop  offset="0.92" style="stop-color:#3B3A3A"/>
		<stop  offset="1" style="stop-color:#454444"/>
	</linearGradient>
	<path fill="url(#SVGID_21_)" d="M344.074,307.945h26.25v8.25h-26.25V307.945z"/>
	
		<linearGradient id="SVGID_22_" gradientUnits="userSpaceOnUse" x1="224.2227" y1="134.3027" x2="202.2227" y2="134.3027" gradientTransform="matrix(0.75 0 0 -0.75 197.246 358.4132)">
		<stop  offset="0" style="stop-color:#BDBDBD"/>
		<stop  offset="0.15" style="stop-color:#FFFFFF"/>
		<stop  offset="0.25" style="stop-color:#FFFFFF"/>
		<stop  offset="0.52" style="stop-color:#DFDFDF"/>
		<stop  offset="0.69" style="stop-color:#C7C7C7"/>
		<stop  offset="0.8" style="stop-color:#BCBCBC"/>
		<stop  offset="0.92" style="stop-color:#B1B1B1"/>
		<stop  offset="1" style="stop-color:#CBCBCB"/>
	</linearGradient>
	<path fill="url(#SVGID_22_)" d="M348.914,207.438h16.5v100.5h-16.5V207.438z"/>
	
		<linearGradient id="SVGID_23_" gradientUnits="userSpaceOnUse" x1="411.2222" y1="189.8047" x2="202.2222" y2="189.8047" gradientTransform="matrix(0.75 0 0 -0.75 74.9886 467.0079)">
		<stop  offset="0" style="stop-color:#B59900"/>
		<stop  offset="0.01" style="stop-color:#FFE17C"/>
		<stop  offset="0.02" style="stop-color:#EBC800"/>
		<stop  offset="0.64" style="stop-color:#E7C400"/>
		<stop  offset="0.99" style="stop-color:#E2C000"/>
		<stop  offset="1" style="stop-color:#A88E00"/>
	</linearGradient>
	<path fill="url(#SVGID_23_)" d="M226.656,316.031h156.75v17.25h-156.75V316.031z"/>
	
		<linearGradient id="SVGID_24_" gradientUnits="userSpaceOnUse" x1="306.7222" y1="201.3047" x2="306.7222" y2="195.3047" gradientTransform="matrix(0.75 0 0 -0.75 74.9886 575.0636)">
		<stop  offset="0" style="stop-color:#9B9B9C"/>
		<stop  offset="0.01" style="stop-color:#E4E4E4"/>
		<stop  offset="0.02" style="stop-color:#CBCBCB"/>
		<stop  offset="0.64" style="stop-color:#C7C7C8"/>
		<stop  offset="0.99" style="stop-color:#C3C3C4"/>
		<stop  offset="1" style="stop-color:#909091"/>
	</linearGradient>
	<path fill="url(#SVGID_24_)" d="M226.656,424.085h156.75v4.5h-156.75V424.085z"/>
	<path stroke="#000000" stroke-linejoin="bevel" stroke-miterlimit="10" d="M190.379,293.734c0-8.25,6.754-15,15.086-15
		c8.164,0,15.086,6.769,15.086,15.128c-0.172,8.121-6.754,15.125-15.086,15.125c-8.336-0.254-15.086-6.777-15.086-15.125V293.734z"
		/>
	<path fill="#9E9F9F" d="M191.66,293.511c0-7.5,6.18-13.5,13.805-13.5c7.945,0,13.809,6.199,13.809,13.851
		c0.137,7.898-6.184,13.848-13.809,13.848c-7.805,0.051-13.805-6.203-13.805-13.848V293.511z"/>
	<path fill="#EBEAE9" d="M192.102,294.128c0-7.5,5.98-13.5,13.363-13.5c7.637,0,13.367,6,13.367,13.406
		c0.27,7.594-5.984,13.406-13.367,13.406c-7.363,0.188-13.363-6.008-13.363-13.406V294.128z"/>
	<path fill="none" stroke="#000000" stroke-linejoin="bevel" stroke-miterlimit="10" d="M214.238,285.425l-1,1.348"/>
	<path fill="none" stroke="#000000" stroke-linejoin="bevel" stroke-miterlimit="10" d="M212.973,301.601l1.5,1.5"/>
	<path fill="none" stroke="#000000" stroke-linejoin="bevel" stroke-miterlimit="10" d="M197.75,300.789l-1.5,1.5"/>
	<path fill="none" stroke="#000000" stroke-linejoin="bevel" stroke-miterlimit="10" d="M205.344,281.695l-0.008,2.25"/>
	<path fill="none" stroke="#000000" stroke-linejoin="bevel" stroke-miterlimit="10" d="M205.344,304.277l-0.008,2.25"/>
	<path fill="none" stroke="#000000" stroke-linejoin="bevel" stroke-miterlimit="10" d="M192.684,293.914l2.25,0.004"/>
	<path fill="none" stroke="#000000" stroke-linejoin="bevel" stroke-miterlimit="10" d="M216.246,293.914l2.25,0.004"/>
	<path fill="none" stroke="#000000" stroke-linejoin="bevel" stroke-miterlimit="10" d="M196.887,284.996l1.5,1.5"/>
	<path fill="#FFFFFF" fill-opacity="0.7255" d="M211.699,298.394c6-9.75-0.719-17.25-0.719-17.25
		c5.219,2.25,8.285,7.027,8.285,12.707c-0.066,7.543-6.184,13.852-13.809,13.852c-2.758-0.309-5.754-0.953-8.008-2.57
		c0,0.012,8.438,2.281,14.473-6.93L211.699,298.394z"/>
	<path stroke="#000000" stroke-linejoin="bevel" stroke-miterlimit="10" d="M195.336,286.382l9.367,6.277
		c0,0,2.734,1.922,4.895,1.961c0.027,0.012,0.73,0.18,0.266,0.992l-0.715,1.344c0,0-1.141,0.926-1.395-0.035
		c-0.281-0.066-1.137-2.027-3.719-3.762L195.336,286.382z"/>
	<path stroke="#000000" stroke-linejoin="bevel" stroke-miterlimit="10" d="M204.781,292.046c0.648,0.375,1.313,0.629,1.469,1.215
		c0.102,0.563-0.191,1.188-0.781,1.344c-0.516,0.141-1.184-0.188-1.34-0.773c-0.098-0.484,0.191-1.184,0.773-1.344L204.781,292.046z
		"/>
	
		<linearGradient id="SVGID_25_" gradientUnits="userSpaceOnUse" x1="292.9341" y1="234.001" x2="291.1098" y2="234.001" gradientTransform="matrix(0.6495 0.375 0.375 -0.6495 -72.2274 336.0505)">
		<stop  offset="0" style="stop-color:#C4AA84"/>
		<stop  offset="0.15" style="stop-color:#FFE0B3"/>
		<stop  offset="0.25" style="stop-color:#FFEED7"/>
		<stop  offset="0.44" style="stop-color:#DFC297"/>
		<stop  offset="0.6" style="stop-color:#C7AD86"/>
		<stop  offset="0.8" style="stop-color:#A89170"/>
		<stop  offset="0.97" style="stop-color:#998566"/>
		<stop  offset="1" style="stop-color:#CBB189"/>
	</linearGradient>
	<path fill="url(#SVGID_25_)" d="M204.945,292.64c0.648,0.375,0.785,0.379,0.883,0.734c0.039,0.664-0.117,0.715-0.469,0.809
		c-0.516,0.129-0.715-0.113-0.813-0.465c0.023-0.43,0.117-0.719,0.469-0.813L204.945,292.64z"/>
	<path stroke="#000000" stroke-linejoin="bevel" stroke-miterlimit="10" d="M190.379,339.378c0-8.25,6.754-15,15.086-15
		c8.164,0,15.086,6.77,15.086,15.129c-0.172,8.121-6.754,15.125-15.086,15.125c-8.336-0.254-15.086-6.773-15.086-15.125V339.378z"/>
	<path fill="#9E9F9F" d="M191.66,339.16c0-7.5,6.18-13.5,13.805-13.5c7.945,0,13.809,6.195,13.809,13.848
		c0.137,7.902-6.184,13.848-13.809,13.848c-7.805,0.055-13.805-6.203-13.805-13.848V339.16z"/>
	<path fill="#EBEAE9" d="M192.102,339.773c0-7.5,5.98-13.5,13.363-13.5c7.637,0,13.367,6,13.367,13.406
		c0.27,7.594-5.984,13.406-13.367,13.406c-7.363,0.188-13.363-6.008-13.363-13.406V339.773z"/>
	<path fill="none" stroke="#000000" stroke-linejoin="bevel" stroke-miterlimit="10" d="M214.238,331.07l-1,1.348"/>
	<path fill="none" stroke="#000000" stroke-linejoin="bevel" stroke-miterlimit="10" d="M212.973,347.25l1.5,1.5"/>
	<path fill="none" stroke="#000000" stroke-linejoin="bevel" stroke-miterlimit="10" d="M197.75,346.437l-1.5,1.5"/>
	<path fill="none" stroke="#000000" stroke-linejoin="bevel" stroke-miterlimit="10" d="M205.344,327.339l-0.004,2.25"/>
	<path fill="none" stroke="#000000" stroke-linejoin="bevel" stroke-miterlimit="10" d="M205.344,349.921l-0.004,2.25"/>
	<path fill="none" stroke="#000000" stroke-linejoin="bevel" stroke-miterlimit="10" d="M192.684,339.558l2.25,0.008"/>
	<path fill="none" stroke="#000000" stroke-linejoin="bevel" stroke-miterlimit="10" d="M216.246,339.558l2.25,0.008"/>
	<path fill="none" stroke="#000000" stroke-linejoin="bevel" stroke-miterlimit="10" d="M196.887,330.644l1.5,1.5"/>
	<path fill="#FFFFFF" fill-opacity="0.7255" d="M211.699,344.039c6-9.75-0.719-17.25-0.719-17.25
		c5.219,2.25,8.285,7.027,8.285,12.707c-0.066,7.543-6.184,13.855-13.809,13.855c-2.758-0.313-5.754-0.953-8.008-2.574
		c0,0.012,8.438,2.281,14.473-6.93L211.699,344.039z"/>
	<path stroke="#000000" stroke-linejoin="bevel" stroke-miterlimit="10" d="M195.336,332.031l9.367,6.273
		c0,0,2.734,1.922,4.895,1.965c0.027,0.012,0.734,0.176,0.266,0.988l-0.715,1.344c0,0-1.141,0.926-1.395-0.031
		c-0.281-0.066-1.137-2.031-3.719-3.766L195.336,332.031z"/>
	<path stroke="#000000" stroke-linejoin="bevel" stroke-miterlimit="10" d="M204.781,337.695c0.648,0.375,1.313,0.629,1.469,1.215
		c0.102,0.559-0.191,1.184-0.781,1.344c-0.516,0.137-1.184-0.191-1.34-0.777c-0.098-0.484,0.191-1.184,0.773-1.34L204.781,337.695z"
		/>
	
		<linearGradient id="SVGID_26_" gradientUnits="userSpaceOnUse" x1="292.9331" y1="233.999" x2="291.1089" y2="233.999" gradientTransform="matrix(0.6495 0.375 0.375 -0.6495 -72.2274 381.6951)">
		<stop  offset="0" style="stop-color:#C4AA84"/>
		<stop  offset="0.15" style="stop-color:#FFE0B3"/>
		<stop  offset="0.25" style="stop-color:#FFEED7"/>
		<stop  offset="0.44" style="stop-color:#DFC297"/>
		<stop  offset="0.6" style="stop-color:#C7AD86"/>
		<stop  offset="0.8" style="stop-color:#A89170"/>
		<stop  offset="0.97" style="stop-color:#998566"/>
		<stop  offset="1" style="stop-color:#CBB189"/>
	</linearGradient>
	<path fill="url(#SVGID_26_)" d="M204.945,338.285c0.648,0.375,0.789,0.383,0.883,0.734c0.039,0.664-0.117,0.715-0.469,0.809
		c-0.516,0.133-0.715-0.113-0.813-0.465c0.023-0.43,0.117-0.715,0.469-0.813L204.945,338.285z"/>
	
		<linearGradient id="SVGID_27_" gradientUnits="userSpaceOnUse" x1="220.2241" y1="147.8057" x2="202.2241" y2="147.8057" gradientTransform="matrix(0.75 0 0 -0.75 231.6864 494.2404)">
		<stop  offset="0" style="stop-color:#A8A8A8"/>
		<stop  offset="0.01" style="stop-color:#F2F2F2"/>
		<stop  offset="0.02" style="stop-color:#DBDBDB"/>
		<stop  offset="0.64" style="stop-color:#D8D8D8"/>
		<stop  offset="0.99" style="stop-color:#D3D3D3"/>
		<stop  offset="1" style="stop-color:#9C9C9C"/>
	</linearGradient>
	<path fill="url(#SVGID_27_)" d="M396.855,423.511h-13.5v-80.25h13.5V423.511z"/>
	
		<linearGradient id="SVGID_28_" gradientUnits="userSpaceOnUse" x1="266.2236" y1="192.8047" x2="202.2246" y2="192.8047" gradientTransform="matrix(0.75 0 0 -0.75 128.7728 454.4855)">
		<stop  offset="0" style="stop-color:#403E3E"/>
		<stop  offset="0.15" style="stop-color:#6D6C6C"/>
		<stop  offset="0.25" style="stop-color:#BCBCBC"/>
		<stop  offset="0.52" style="stop-color:#4D4B4B"/>
		<stop  offset="0.69" style="stop-color:#434242"/>
		<stop  offset="0.8" style="stop-color:#3F3E3E"/>
		<stop  offset="0.92" style="stop-color:#3B3A3A"/>
		<stop  offset="1" style="stop-color:#454444"/>
	</linearGradient>
	<path fill="url(#SVGID_28_)" d="M280.441,303.507h48v12.75h-48V303.507z"/>
	<path fill="#FFFFFF" fill-opacity="0.6157" d="M258.152,114.586h93.75c0.75,0,1.457,0.625,1.457,1.457l0.043,34.543
		c0,0.75-0.738,1.516-1.563,1.516l-93.687-0.016c-0.75,0-1.5-0.656-1.5-1.484v-34.516c0-0.75,0.637-1.547,1.465-1.547
		L258.152,114.586z"/>
</g>
</svg>
