<?xml version="1.0" encoding="utf-8"?>
<!-- Generator: Adobe Illustrator 16.0.0, SVG Export Plug-In . SVG Version: 6.00 Build 0)  -->
<!DOCTYPE svg PUBLIC "-//W3C//DTD SVG 1.1//EN" "http://www.w3.org/Graphics/SVG/1.1/DTD/svg11.dtd">
<svg preserveAspectRatio="none" version="1.1" id="图层_1" xmlns="http://www.w3.org/2000/svg" xmlns:xlink="http://www.w3.org/1999/xlink" x="0px" y="0px"
	 width="566.289px" height="457.746px" viewBox="0.254 109.25 566.289 457.746"
	 enable-background="new 0.254 109.25 566.289 457.746" xml:space="preserve">
<g id="surface786">
	
		<linearGradient id="SVGID_1_" gradientUnits="userSpaceOnUse" x1="277.7236" y1="201.3018" x2="277.7236" y2="58.9219" gradientTransform="matrix(0.75 0 0 -0.75 157.6444 471.1603)">
		<stop  offset="0" style="stop-color:#6490AE"/>
		<stop  offset="0.15" style="stop-color:#94C7EC"/>
		<stop  offset="0.25" style="stop-color:#CAE1F4"/>
		<stop  offset="0.52" style="stop-color:#77AACE"/>
		<stop  offset="0.69" style="stop-color:#6997B7"/>
		<stop  offset="0.8" style="stop-color:#638FAD"/>
		<stop  offset="0.92" style="stop-color:#5D86A3"/>
		<stop  offset="1" style="stop-color:#6C9BBB"/>
	</linearGradient>
	<path fill="url(#SVGID_1_)" d="M310.062,320.183h111.75c0,0,0.566,0.191,0.566,0.426l0.184,106.074c0,0-0.57,0.285-1.047,0.285
		l-111.453-0.285c0,0-0.75,0.094-0.75-0.141V320.933c0-0.75,0.387-0.75,0.863-0.75H310.062z"/>
	
		<linearGradient id="SVGID_2_" gradientUnits="userSpaceOnUse" x1="250.7227" y1="201.3047" x2="250.7226" y2="-17.6943" gradientTransform="matrix(0.75 0 0 -0.75 85.2704 413.7365)">
		<stop  offset="0" style="stop-color:#6490AE"/>
		<stop  offset="0.15" style="stop-color:#94C7EC"/>
		<stop  offset="0.25" style="stop-color:#CAE1F4"/>
		<stop  offset="0.52" style="stop-color:#77AACE"/>
		<stop  offset="0.69" style="stop-color:#6997B7"/>
		<stop  offset="0.8" style="stop-color:#638FAD"/>
		<stop  offset="0.92" style="stop-color:#5D86A3"/>
		<stop  offset="1" style="stop-color:#6C9BBB"/>
	</linearGradient>
	<path fill="url(#SVGID_2_)" d="M237.688,262.758h71.25c0,0,0.563,0.297,0.563,0.66l0.188,162.839c0,0.75-0.434,0.711-0.738,0.711
		l-71.261,0.039c-0.75,0-0.75-0.332-0.75-0.695V263.508c0-0.75,0.25-0.75,0.555-0.75H237.688z"/>
	
		<linearGradient id="SVGID_3_" gradientUnits="userSpaceOnUse" x1="244.5557" y1="135.1528" x2="202.2275" y2="135.1528" gradientTransform="matrix(0.75 0 0 -0.75 84.7665 314.506)">
		<stop  offset="0" style="stop-color:#000000"/>
		<stop  offset="0.01" style="stop-color:#7C7C7C"/>
		<stop  offset="0.02" style="stop-color:#000000"/>
		<stop  offset="0.64" style="stop-color:#000000"/>
		<stop  offset="0.99" style="stop-color:#000000"/>
		<stop  offset="1" style="stop-color:#000000"/>
	</linearGradient>
	<path fill="url(#SVGID_3_)" d="M237.188,163.527h30c0.75,0,0.996,0.285,0.996,0.641l-0.246,97.609c0,0.75-0.117,0.98-0.563,0.98
		l-30.188-0.23c-0.75,0-0.75-0.055-0.75-0.41v-97.84c0-0.75,0.359-0.75,0.805-0.75H237.188z"/>
	
		<linearGradient id="SVGID_4_" gradientUnits="userSpaceOnUse" x1="428.2222" y1="-10.3789" x2="202.2222" y2="-10.3789" gradientTransform="matrix(0.75 0 0 -0.75 -83.7023 260.2267)">
		<stop  offset="0" style="stop-color:#5F89A6"/>
		<stop  offset="0.01" style="stop-color:#AAD1EF"/>
		<stop  offset="0.02" style="stop-color:#7EB3D8"/>
		<stop  offset="0.64" style="stop-color:#7CB0D5"/>
		<stop  offset="0.99" style="stop-color:#79ACD0"/>
		<stop  offset="1" style="stop-color:#587F9A"/>
	</linearGradient>
	<path fill="url(#SVGID_4_)" d="M100.965,109.25h135.75c0,0,0.563,0.336,0.563,0.777l0.188,315.722c0,0.75-0.586,1.023-1.031,1.023
		L68.715,426.5c-0.75,0-0.75-0.098-0.75-0.543V290.75L100.965,109.25z"/>
	
		<linearGradient id="SVGID_5_" gradientUnits="userSpaceOnUse" x1="957.2222" y1="107.2813" x2="202.2231" y2="107.2812" gradientTransform="matrix(0.75 0 0 -0.75 -151.3751 576.9357)">
		<stop  offset="0" style="stop-color:#5F89A6"/>
		<stop  offset="0.01" style="stop-color:#AAD1EF"/>
		<stop  offset="0.02" style="stop-color:#7EB3D8"/>
		<stop  offset="0.64" style="stop-color:#7CB0D5"/>
		<stop  offset="0.99" style="stop-color:#79ACD0"/>
		<stop  offset="1" style="stop-color:#587F9A"/>
	</linearGradient>
	<path fill="url(#SVGID_5_)" d="M1.043,425.957h564.75c0.75,0,0.516,0.359,0.516,0.805l0.234,139.445
		c0,0.75-0.234,0.789-1.066,0.789L1.043,566.957c-0.75,0-0.75-0.32-0.75-0.766V426.707c0-0.75,0-0.75,0.809-0.75H1.043z"/>
	
		<linearGradient id="SVGID_6_" gradientUnits="userSpaceOnUse" x1="428.2251" y1="111.8066" x2="202.2256" y2="111.8066" gradientTransform="matrix(0.75 0 0 -0.75 -83.7399 442.381)">
		<stop  offset="0" style="stop-color:#5F89A6"/>
		<stop  offset="0.01" style="stop-color:#AAD1EF"/>
		<stop  offset="0.02" style="stop-color:#7EB3D8"/>
		<stop  offset="0.64" style="stop-color:#7CB0D5"/>
		<stop  offset="0.99" style="stop-color:#79ACD0"/>
		<stop  offset="1" style="stop-color:#587F9A"/>
	</linearGradient>
	<path fill="url(#SVGID_6_)" d="M67.93,291.402h169.5v134.25H67.93V291.402z"/>
	
		<linearGradient id="SVGID_7_" gradientUnits="userSpaceOnUse" x1="516.6626" y1="166.8071" x2="202.2251" y2="166.8071" gradientTransform="matrix(0.75 0 0 -0.75 140.701 525.5607)">
		<stop  offset="0" style="stop-color:#486E89"/>
		<stop  offset="0.01" style="stop-color:#98B7D1"/>
		<stop  offset="0.02" style="stop-color:#6091B3"/>
		<stop  offset="0.64" style="stop-color:#5E8FB0"/>
		<stop  offset="0.99" style="stop-color:#5C8BAC"/>
		<stop  offset="1" style="stop-color:#42667F"/>
	</linearGradient>
	<path fill="url(#SVGID_7_)" d="M293.121,374.582h234c0.75,0,1.078,0.363,1.078,0.809l-0.328,49.441c0,0.75-0.105,1.129-0.641,1.129
		l-234.109,0.371c0,0-0.75-0.73-0.75-1.176v-49.824c0-0.75,0.434-0.75,0.965-0.75H293.121z"/>
	
		<linearGradient id="SVGID_8_" gradientUnits="userSpaceOnUse" x1="304.3462" y1="58.249" x2="202.2212" y2="58.249" gradientTransform="matrix(0.75 0 0 -0.75 293.8876 310.9796)">
		<stop  offset="0" style="stop-color:#5F89A6"/>
		<stop  offset="0.01" style="stop-color:#AAD1EF"/>
		<stop  offset="0.02" style="stop-color:#7EB3D8"/>
		<stop  offset="0.64" style="stop-color:#7CB0D5"/>
		<stop  offset="0.99" style="stop-color:#79ACD0"/>
		<stop  offset="1" style="stop-color:#587F9A"/>
	</linearGradient>
	<path fill="url(#SVGID_8_)" d="M446.304,160.004h75c0.75,0,0.844,0.359,0.844,0.805l-0.094,212.945c0,0.75-0.266,0.828-0.711,0.828
		l-75.039-0.078c-0.75,0-0.75-0.281-0.75-0.727V160.754c0-0.75,0.363-0.75,0.809-0.75H446.304z"/>
	
		<linearGradient id="SVGID_9_" gradientUnits="userSpaceOnUse" x1="389.2251" y1="188.3066" x2="202.2251" y2="188.3066" gradientTransform="matrix(0.75 0 0 -0.75 153.8026 506.42)">
		<stop  offset="0" style="stop-color:#403E3E"/>
		<stop  offset="0.15" style="stop-color:#6D6C6C"/>
		<stop  offset="0.25" style="stop-color:#BCBCBC"/>
		<stop  offset="0.52" style="stop-color:#4D4B4B"/>
		<stop  offset="0.69" style="stop-color:#434242"/>
		<stop  offset="0.8" style="stop-color:#3F3E3E"/>
		<stop  offset="0.92" style="stop-color:#3B3A3A"/>
		<stop  offset="1" style="stop-color:#454444"/>
	</linearGradient>
	<path fill="url(#SVGID_9_)" d="M306.222,355.441h138.75c0,0,0.586,0.359,0.586,0.805l0.164,17.195c0,0.75-0.527,1.141-0.973,1.141
		l-138.527,0.359c-0.75,0-0.75-0.719-0.75-1.164v-17.586c0-0.75,0.359-0.75,0.805-0.75H306.222z"/>
	
		<linearGradient id="SVGID_10_" gradientUnits="userSpaceOnUse" x1="232.2256" y1="121.3062" x2="202.2256" y2="121.3062" gradientTransform="matrix(0.75 0 0 -0.75 212.7596 386.5372)">
		<stop  offset="0" style="stop-color:#403E3E"/>
		<stop  offset="0.15" style="stop-color:#6D6C6C"/>
		<stop  offset="0.25" style="stop-color:#BCBCBC"/>
		<stop  offset="0.52" style="stop-color:#4D4B4B"/>
		<stop  offset="0.69" style="stop-color:#434242"/>
		<stop  offset="0.8" style="stop-color:#3F3E3E"/>
		<stop  offset="0.92" style="stop-color:#3B3A3A"/>
		<stop  offset="1" style="stop-color:#454444"/>
	</linearGradient>
	<path fill="url(#SVGID_10_)" d="M365.179,235.559h20.25c0.75,0,1.172,0.363,1.172,0.809l0.328,118.441c0,0-0.691,0.633-1.137,0.633
		l-20.613,0.117c-0.75,0-0.75-0.477-0.75-0.922V236.309c0-0.75,0.359-0.75,0.805-0.75H365.179z"/>
	
		<linearGradient id="SVGID_11_" gradientUnits="userSpaceOnUse" x1="328.5376" y1="154.9619" x2="202.2251" y2="154.9619" gradientTransform="matrix(0.75 0 0 -0.75 199.1542 340.1954)">
		<stop  offset="0" style="stop-color:#5F89A6"/>
		<stop  offset="0.01" style="stop-color:#AAD1EF"/>
		<stop  offset="0.02" style="stop-color:#7EB3D8"/>
		<stop  offset="0.64" style="stop-color:#7CB0D5"/>
		<stop  offset="0.99" style="stop-color:#79ACD0"/>
		<stop  offset="1" style="stop-color:#587F9A"/>
	</linearGradient>
	<path fill="url(#SVGID_11_)" d="M351.574,189.219h93c0.75,0,0.984,0.359,0.984,0.805l-0.234,68.195c0,0-0.531,0.512-0.977,0.512
		l-92.773-55.262c-0.75,0-0.75-0.508-0.75-0.953v-12.547c0-0.75,0.359-0.75,0.805-0.75H351.574z"/>
	
		<linearGradient id="SVGID_12_" gradientUnits="userSpaceOnUse" x1="315.2261" y1="111.8066" x2="202.2261" y2="111.8066" gradientTransform="matrix(0.75 0 0 -0.75 -83.7404 442.381)">
		<stop  offset="0" style="stop-color:#5F89A6"/>
		<stop  offset="0.01" style="stop-color:#AAD1EF"/>
		<stop  offset="0.02" style="stop-color:#7EB3D8"/>
		<stop  offset="0.64" style="stop-color:#7CB0D5"/>
		<stop  offset="0.99" style="stop-color:#79ACD0"/>
		<stop  offset="1" style="stop-color:#587F9A"/>
	</linearGradient>
	<path fill="url(#SVGID_12_)" d="M67.93,291.402h84.75v134.25H67.93V291.402z"/>
	
		<linearGradient id="SVGID_13_" gradientUnits="userSpaceOnUse" x1="428.2251" y1="189.8076" x2="202.2256" y2="189.8076" gradientTransform="matrix(0.75 0 0 -0.75 -83.7399 559.4093)">
		<stop  offset="0" style="stop-color:#486E89"/>
		<stop  offset="0.01" style="stop-color:#98B7D1"/>
		<stop  offset="0.02" style="stop-color:#6091B3"/>
		<stop  offset="0.64" style="stop-color:#5E8FB0"/>
		<stop  offset="0.99" style="stop-color:#5C8BAC"/>
		<stop  offset="1" style="stop-color:#42667F"/>
	</linearGradient>
	<path fill="url(#SVGID_13_)" d="M67.93,408.429h169.5v17.25H67.93V408.429z"/>
	
		<linearGradient id="SVGID_14_" gradientUnits="userSpaceOnUse" x1="370.2271" y1="145.3047" x2="202.2271" y2="145.3047" gradientTransform="matrix(0.75 0 0 -0.75 -61.8702 605.5519)">
		<stop  offset="0" style="stop-color:#486E89"/>
		<stop  offset="0.01" style="stop-color:#98B7D1"/>
		<stop  offset="0.02" style="stop-color:#6091B3"/>
		<stop  offset="0.64" style="stop-color:#5E8FB0"/>
		<stop  offset="0.99" style="stop-color:#5C8BAC"/>
		<stop  offset="1" style="stop-color:#42667F"/>
	</linearGradient>
	<path fill="url(#SVGID_14_)" d="M90.551,454.574h124.5c0,0,0.535,0.324,0.535,0.77l0.215,82.48c0,0-0.602,0.555-1.047,0.555
		l-124.203,0.195c-0.75,0-0.75-0.582-0.75-1.027v-82.223c0-0.75,0.348-0.75,0.793-0.75H90.551z"/>
	
		<linearGradient id="SVGID_15_" gradientUnits="userSpaceOnUse" x1="233.8062" y1="201.3027" x2="233.8062" y2="196.3027" gradientTransform="matrix(0.75 0 0 -0.75 -54.3116 615.4689)">
		<stop  offset="0" style="stop-color:#6490AE"/>
		<stop  offset="0.15" style="stop-color:#94C7EC"/>
		<stop  offset="0.25" style="stop-color:#CAE1F4"/>
		<stop  offset="0.52" style="stop-color:#77AACE"/>
		<stop  offset="0.69" style="stop-color:#6997B7"/>
		<stop  offset="0.8" style="stop-color:#638FAD"/>
		<stop  offset="0.92" style="stop-color:#5D86A3"/>
		<stop  offset="1" style="stop-color:#6C9BBB"/>
	</linearGradient>
	<path fill="url(#SVGID_15_)" d="M98.109,464.492h45.75c0.75,0,0.867,0.25,0.867,0.563l-0.117,2.438c0,0-0.246,0.523-0.691,0.523
		l-45.809,0.227c-0.75,0-0.75-0.477-0.75-0.789v-2.211c0-0.75,0.359-0.75,0.805-0.75H98.109z"/>
	
		<linearGradient id="SVGID_16_" gradientUnits="userSpaceOnUse" x1="233.8071" y1="201.3018" x2="233.8071" y2="196.3018" gradientTransform="matrix(0.75 0 0 -0.75 -54.3116 628.0616)">
		<stop  offset="0" style="stop-color:#6490AE"/>
		<stop  offset="0.15" style="stop-color:#94C7EC"/>
		<stop  offset="0.25" style="stop-color:#CAE1F4"/>
		<stop  offset="0.52" style="stop-color:#77AACE"/>
		<stop  offset="0.69" style="stop-color:#6997B7"/>
		<stop  offset="0.8" style="stop-color:#638FAD"/>
		<stop  offset="0.92" style="stop-color:#5D86A3"/>
		<stop  offset="1" style="stop-color:#6C9BBB"/>
	</linearGradient>
	<path fill="url(#SVGID_16_)" d="M98.109,477.085h45.75c0.75,0,0.867,0.25,0.867,0.563l-0.117,2.438c0,0-0.246,0.523-0.691,0.523
		l-45.809,0.227c-0.75,0-0.75-0.477-0.75-0.789v-2.211c0-0.75,0.359-0.75,0.805-0.75H98.109z"/>
	
		<linearGradient id="SVGID_17_" gradientUnits="userSpaceOnUse" x1="233.8071" y1="201.3057" x2="233.8071" y2="196.3057" gradientTransform="matrix(0.75 0 0 -0.75 -54.3116 639.6427)">
		<stop  offset="0" style="stop-color:#6490AE"/>
		<stop  offset="0.15" style="stop-color:#94C7EC"/>
		<stop  offset="0.25" style="stop-color:#CAE1F4"/>
		<stop  offset="0.52" style="stop-color:#77AACE"/>
		<stop  offset="0.69" style="stop-color:#6997B7"/>
		<stop  offset="0.8" style="stop-color:#638FAD"/>
		<stop  offset="0.92" style="stop-color:#5D86A3"/>
		<stop  offset="1" style="stop-color:#6C9BBB"/>
	</linearGradient>
	<path fill="url(#SVGID_17_)" d="M98.109,488.664h45.75c0.75,0,0.867,0.254,0.867,0.566l-0.117,2.434c0,0-0.246,0.527-0.691,0.527
		l-45.809,0.223c-0.75,0-0.75-0.477-0.75-0.789v-2.211c0-0.75,0.359-0.75,0.805-0.75H98.109z"/>
	
		<linearGradient id="SVGID_18_" gradientUnits="userSpaceOnUse" x1="233.8071" y1="201.3018" x2="233.8071" y2="196.3018" gradientTransform="matrix(0.75 0 0 -0.75 -54.3116 651.7296)">
		<stop  offset="0" style="stop-color:#6490AE"/>
		<stop  offset="0.15" style="stop-color:#94C7EC"/>
		<stop  offset="0.25" style="stop-color:#CAE1F4"/>
		<stop  offset="0.52" style="stop-color:#77AACE"/>
		<stop  offset="0.69" style="stop-color:#6997B7"/>
		<stop  offset="0.8" style="stop-color:#638FAD"/>
		<stop  offset="0.92" style="stop-color:#5D86A3"/>
		<stop  offset="1" style="stop-color:#6C9BBB"/>
	</linearGradient>
	<path fill="url(#SVGID_18_)" d="M98.109,500.753h45.75c0.75,0,0.867,0.25,0.867,0.563l-0.117,2.438c0,0-0.246,0.523-0.691,0.523
		l-45.809,0.227c-0.75,0-0.75-0.477-0.75-0.789v-2.211c0-0.75,0.359-0.75,0.805-0.75H98.109z"/>
	
		<linearGradient id="SVGID_19_" gradientUnits="userSpaceOnUse" x1="233.8071" y1="201.3018" x2="233.8071" y2="196.3018" gradientTransform="matrix(0.75 0 0 -0.75 -54.3116 663.8165)">
		<stop  offset="0" style="stop-color:#6490AE"/>
		<stop  offset="0.15" style="stop-color:#94C7EC"/>
		<stop  offset="0.25" style="stop-color:#CAE1F4"/>
		<stop  offset="0.52" style="stop-color:#77AACE"/>
		<stop  offset="0.69" style="stop-color:#6997B7"/>
		<stop  offset="0.8" style="stop-color:#638FAD"/>
		<stop  offset="0.92" style="stop-color:#5D86A3"/>
		<stop  offset="1" style="stop-color:#6C9BBB"/>
	</linearGradient>
	<path fill="url(#SVGID_19_)" d="M98.109,512.839h45.75c0.75,0,0.867,0.25,0.867,0.563l-0.117,2.438c0,0-0.246,0.523-0.691,0.523
		l-45.809,0.227c-0.75,0-0.75-0.477-0.75-0.789v-2.211c0-0.75,0.359-0.75,0.805-0.75H98.109z"/>
	
		<linearGradient id="SVGID_20_" gradientUnits="userSpaceOnUse" x1="233.8071" y1="201.3047" x2="233.8071" y2="196.3047" gradientTransform="matrix(0.75 0 0 -0.75 -54.3116 675.9034)">
		<stop  offset="0" style="stop-color:#6490AE"/>
		<stop  offset="0.15" style="stop-color:#94C7EC"/>
		<stop  offset="0.25" style="stop-color:#CAE1F4"/>
		<stop  offset="0.52" style="stop-color:#77AACE"/>
		<stop  offset="0.69" style="stop-color:#6997B7"/>
		<stop  offset="0.8" style="stop-color:#638FAD"/>
		<stop  offset="0.92" style="stop-color:#5D86A3"/>
		<stop  offset="1" style="stop-color:#6C9BBB"/>
	</linearGradient>
	<path fill="url(#SVGID_20_)" d="M98.109,524.925h45.75c0.75,0,0.867,0.254,0.867,0.563l-0.117,2.438c0,0-0.246,0.527-0.691,0.527
		l-45.809,0.223c-0.75,0-0.75-0.477-0.75-0.789v-2.211c0-0.75,0.359-0.75,0.805-0.75H98.109z"/>
	
		<linearGradient id="SVGID_21_" gradientUnits="userSpaceOnUse" x1="233.8062" y1="201.3027" x2="233.8062" y2="196.3027" gradientTransform="matrix(0.75 0 0 -0.75 10.1884 615.4689)">
		<stop  offset="0" style="stop-color:#6490AE"/>
		<stop  offset="0.15" style="stop-color:#94C7EC"/>
		<stop  offset="0.25" style="stop-color:#CAE1F4"/>
		<stop  offset="0.52" style="stop-color:#77AACE"/>
		<stop  offset="0.69" style="stop-color:#6997B7"/>
		<stop  offset="0.8" style="stop-color:#638FAD"/>
		<stop  offset="0.92" style="stop-color:#5D86A3"/>
		<stop  offset="1" style="stop-color:#6C9BBB"/>
	</linearGradient>
	<path fill="url(#SVGID_21_)" d="M162.609,464.492h45.75c0.75,0,0.867,0.25,0.867,0.563l-0.117,2.438c0,0-0.246,0.523-0.691,0.523
		l-45.809,0.227c-0.75,0-0.75-0.477-0.75-0.789v-2.211c0-0.75,0.359-0.75,0.805-0.75H162.609z"/>
	
		<linearGradient id="SVGID_22_" gradientUnits="userSpaceOnUse" x1="233.8071" y1="201.3018" x2="233.8071" y2="196.3018" gradientTransform="matrix(0.75 0 0 -0.75 10.1884 628.0616)">
		<stop  offset="0" style="stop-color:#6490AE"/>
		<stop  offset="0.15" style="stop-color:#94C7EC"/>
		<stop  offset="0.25" style="stop-color:#CAE1F4"/>
		<stop  offset="0.52" style="stop-color:#77AACE"/>
		<stop  offset="0.69" style="stop-color:#6997B7"/>
		<stop  offset="0.8" style="stop-color:#638FAD"/>
		<stop  offset="0.92" style="stop-color:#5D86A3"/>
		<stop  offset="1" style="stop-color:#6C9BBB"/>
	</linearGradient>
	<path fill="url(#SVGID_22_)" d="M162.609,477.085h45.75c0.75,0,0.867,0.25,0.867,0.563l-0.117,2.438c0,0-0.246,0.523-0.691,0.523
		l-45.809,0.227c-0.75,0-0.75-0.477-0.75-0.789v-2.211c0-0.75,0.359-0.75,0.805-0.75H162.609z"/>
	
		<linearGradient id="SVGID_23_" gradientUnits="userSpaceOnUse" x1="233.8071" y1="201.3057" x2="233.8071" y2="196.3057" gradientTransform="matrix(0.75 0 0 -0.75 10.1884 639.6427)">
		<stop  offset="0" style="stop-color:#6490AE"/>
		<stop  offset="0.15" style="stop-color:#94C7EC"/>
		<stop  offset="0.25" style="stop-color:#CAE1F4"/>
		<stop  offset="0.52" style="stop-color:#77AACE"/>
		<stop  offset="0.69" style="stop-color:#6997B7"/>
		<stop  offset="0.8" style="stop-color:#638FAD"/>
		<stop  offset="0.92" style="stop-color:#5D86A3"/>
		<stop  offset="1" style="stop-color:#6C9BBB"/>
	</linearGradient>
	<path fill="url(#SVGID_23_)" d="M162.609,488.664h45.75c0.75,0,0.867,0.254,0.867,0.566l-0.117,2.434c0,0-0.246,0.527-0.691,0.527
		l-45.809,0.223c-0.75,0-0.75-0.477-0.75-0.789v-2.211c0-0.75,0.359-0.75,0.805-0.75H162.609z"/>
	
		<linearGradient id="SVGID_24_" gradientUnits="userSpaceOnUse" x1="233.8071" y1="201.3018" x2="233.8071" y2="196.3018" gradientTransform="matrix(0.75 0 0 -0.75 10.1884 651.7296)">
		<stop  offset="0" style="stop-color:#6490AE"/>
		<stop  offset="0.15" style="stop-color:#94C7EC"/>
		<stop  offset="0.25" style="stop-color:#CAE1F4"/>
		<stop  offset="0.52" style="stop-color:#77AACE"/>
		<stop  offset="0.69" style="stop-color:#6997B7"/>
		<stop  offset="0.8" style="stop-color:#638FAD"/>
		<stop  offset="0.92" style="stop-color:#5D86A3"/>
		<stop  offset="1" style="stop-color:#6C9BBB"/>
	</linearGradient>
	<path fill="url(#SVGID_24_)" d="M162.609,500.753h45.75c0.75,0,0.867,0.25,0.867,0.563l-0.117,2.438c0,0-0.246,0.523-0.691,0.523
		l-45.809,0.227c-0.75,0-0.75-0.477-0.75-0.789v-2.211c0-0.75,0.359-0.75,0.805-0.75H162.609z"/>
	
		<linearGradient id="SVGID_25_" gradientUnits="userSpaceOnUse" x1="233.8071" y1="201.3018" x2="233.8071" y2="196.3018" gradientTransform="matrix(0.75 0 0 -0.75 10.1884 663.8165)">
		<stop  offset="0" style="stop-color:#6490AE"/>
		<stop  offset="0.15" style="stop-color:#94C7EC"/>
		<stop  offset="0.25" style="stop-color:#CAE1F4"/>
		<stop  offset="0.52" style="stop-color:#77AACE"/>
		<stop  offset="0.69" style="stop-color:#6997B7"/>
		<stop  offset="0.8" style="stop-color:#638FAD"/>
		<stop  offset="0.92" style="stop-color:#5D86A3"/>
		<stop  offset="1" style="stop-color:#6C9BBB"/>
	</linearGradient>
	<path fill="url(#SVGID_25_)" d="M162.609,512.839h45.75c0.75,0,0.867,0.25,0.867,0.563l-0.117,2.438c0,0-0.246,0.523-0.691,0.523
		l-45.809,0.227c-0.75,0-0.75-0.477-0.75-0.789v-2.211c0-0.75,0.359-0.75,0.805-0.75H162.609z"/>
	
		<linearGradient id="SVGID_26_" gradientUnits="userSpaceOnUse" x1="233.8071" y1="201.3047" x2="233.8071" y2="196.3047" gradientTransform="matrix(0.75 0 0 -0.75 10.1884 675.9034)">
		<stop  offset="0" style="stop-color:#6490AE"/>
		<stop  offset="0.15" style="stop-color:#94C7EC"/>
		<stop  offset="0.25" style="stop-color:#CAE1F4"/>
		<stop  offset="0.52" style="stop-color:#77AACE"/>
		<stop  offset="0.69" style="stop-color:#6997B7"/>
		<stop  offset="0.8" style="stop-color:#638FAD"/>
		<stop  offset="0.92" style="stop-color:#5D86A3"/>
		<stop  offset="1" style="stop-color:#6C9BBB"/>
	</linearGradient>
	<path fill="url(#SVGID_26_)" d="M162.609,524.925h45.75c0.75,0,0.867,0.254,0.867,0.563l-0.117,2.438c0,0-0.246,0.527-0.691,0.527
		l-45.809,0.223c-0.75,0-0.75-0.477-0.75-0.789v-2.211c0-0.75,0.359-0.75,0.805-0.75H162.609z"/>
	
		<linearGradient id="SVGID_27_" gradientUnits="userSpaceOnUse" x1="370.2222" y1="145.3047" x2="202.2222" y2="145.3047" gradientTransform="matrix(0.75 0 0 -0.75 199.3436 605.5519)">
		<stop  offset="0" style="stop-color:#486E89"/>
		<stop  offset="0.01" style="stop-color:#98B7D1"/>
		<stop  offset="0.02" style="stop-color:#6091B3"/>
		<stop  offset="0.64" style="stop-color:#5E8FB0"/>
		<stop  offset="0.99" style="stop-color:#5C8BAC"/>
		<stop  offset="1" style="stop-color:#42667F"/>
	</linearGradient>
	<path fill="url(#SVGID_27_)" d="M351.761,454.574h124.5c0,0,0.539,0.324,0.539,0.77l0.211,82.48c0,0-0.598,0.555-1.043,0.555
		l-124.207,0.195c-0.75,0-0.75-0.582-0.75-1.027v-82.223c0-0.75,0.348-0.75,0.793-0.75H351.761z"/>
	
		<linearGradient id="SVGID_28_" gradientUnits="userSpaceOnUse" x1="233.8027" y1="201.3027" x2="233.8027" y2="196.3027" gradientTransform="matrix(0.75 0 0 -0.75 206.9012 615.4689)">
		<stop  offset="0" style="stop-color:#6490AE"/>
		<stop  offset="0.15" style="stop-color:#94C7EC"/>
		<stop  offset="0.25" style="stop-color:#CAE1F4"/>
		<stop  offset="0.52" style="stop-color:#77AACE"/>
		<stop  offset="0.69" style="stop-color:#6997B7"/>
		<stop  offset="0.8" style="stop-color:#638FAD"/>
		<stop  offset="0.92" style="stop-color:#5D86A3"/>
		<stop  offset="1" style="stop-color:#6C9BBB"/>
	</linearGradient>
	<path fill="url(#SVGID_28_)" d="M359.32,464.492h45.75c0.75,0,0.867,0.25,0.867,0.563l-0.117,2.438c0,0-0.242,0.523-0.688,0.523
		l-45.813,0.227c-0.75,0-0.75-0.477-0.75-0.789v-2.211c0-0.75,0.359-0.75,0.805-0.75H359.32z"/>
	
		<linearGradient id="SVGID_29_" gradientUnits="userSpaceOnUse" x1="233.8037" y1="201.3018" x2="233.8037" y2="196.3018" gradientTransform="matrix(0.75 0 0 -0.75 206.9012 628.0616)">
		<stop  offset="0" style="stop-color:#6490AE"/>
		<stop  offset="0.15" style="stop-color:#94C7EC"/>
		<stop  offset="0.25" style="stop-color:#CAE1F4"/>
		<stop  offset="0.52" style="stop-color:#77AACE"/>
		<stop  offset="0.69" style="stop-color:#6997B7"/>
		<stop  offset="0.8" style="stop-color:#638FAD"/>
		<stop  offset="0.92" style="stop-color:#5D86A3"/>
		<stop  offset="1" style="stop-color:#6C9BBB"/>
	</linearGradient>
	<path fill="url(#SVGID_29_)" d="M359.32,477.085h45.75c0.75,0,0.867,0.25,0.867,0.563l-0.117,2.438c0,0-0.242,0.523-0.688,0.523
		l-45.813,0.227c-0.75,0-0.75-0.477-0.75-0.789v-2.211c0-0.75,0.359-0.75,0.805-0.75H359.32z"/>
	
		<linearGradient id="SVGID_30_" gradientUnits="userSpaceOnUse" x1="233.8037" y1="201.3057" x2="233.8037" y2="196.3057" gradientTransform="matrix(0.75 0 0 -0.75 206.9012 639.6427)">
		<stop  offset="0" style="stop-color:#6490AE"/>
		<stop  offset="0.15" style="stop-color:#94C7EC"/>
		<stop  offset="0.25" style="stop-color:#CAE1F4"/>
		<stop  offset="0.52" style="stop-color:#77AACE"/>
		<stop  offset="0.69" style="stop-color:#6997B7"/>
		<stop  offset="0.8" style="stop-color:#638FAD"/>
		<stop  offset="0.92" style="stop-color:#5D86A3"/>
		<stop  offset="1" style="stop-color:#6C9BBB"/>
	</linearGradient>
	<path fill="url(#SVGID_30_)" d="M359.32,488.664h45.75c0.75,0,0.867,0.254,0.867,0.566l-0.117,2.434c0,0-0.242,0.527-0.688,0.527
		l-45.813,0.223c-0.75,0-0.75-0.477-0.75-0.789v-2.211c0-0.75,0.359-0.75,0.805-0.75H359.32z"/>
	
		<linearGradient id="SVGID_31_" gradientUnits="userSpaceOnUse" x1="233.8037" y1="201.3018" x2="233.8037" y2="196.3018" gradientTransform="matrix(0.75 0 0 -0.75 206.9012 651.7296)">
		<stop  offset="0" style="stop-color:#6490AE"/>
		<stop  offset="0.15" style="stop-color:#94C7EC"/>
		<stop  offset="0.25" style="stop-color:#CAE1F4"/>
		<stop  offset="0.52" style="stop-color:#77AACE"/>
		<stop  offset="0.69" style="stop-color:#6997B7"/>
		<stop  offset="0.8" style="stop-color:#638FAD"/>
		<stop  offset="0.92" style="stop-color:#5D86A3"/>
		<stop  offset="1" style="stop-color:#6C9BBB"/>
	</linearGradient>
	<path fill="url(#SVGID_31_)" d="M359.32,500.753h45.75c0.75,0,0.867,0.25,0.867,0.563l-0.117,2.438c0,0-0.242,0.523-0.688,0.523
		l-45.813,0.227c-0.75,0-0.75-0.477-0.75-0.789v-2.211c0-0.75,0.359-0.75,0.805-0.75H359.32z"/>
	
		<linearGradient id="SVGID_32_" gradientUnits="userSpaceOnUse" x1="233.8037" y1="201.3018" x2="233.8037" y2="196.3018" gradientTransform="matrix(0.75 0 0 -0.75 206.9012 663.8165)">
		<stop  offset="0" style="stop-color:#6490AE"/>
		<stop  offset="0.15" style="stop-color:#94C7EC"/>
		<stop  offset="0.25" style="stop-color:#CAE1F4"/>
		<stop  offset="0.52" style="stop-color:#77AACE"/>
		<stop  offset="0.69" style="stop-color:#6997B7"/>
		<stop  offset="0.8" style="stop-color:#638FAD"/>
		<stop  offset="0.92" style="stop-color:#5D86A3"/>
		<stop  offset="1" style="stop-color:#6C9BBB"/>
	</linearGradient>
	<path fill="url(#SVGID_32_)" d="M359.32,512.839h45.75c0.75,0,0.867,0.25,0.867,0.563l-0.117,2.438c0,0-0.242,0.523-0.688,0.523
		l-45.813,0.227c-0.75,0-0.75-0.477-0.75-0.789v-2.211c0-0.75,0.359-0.75,0.805-0.75H359.32z"/>
	
		<linearGradient id="SVGID_33_" gradientUnits="userSpaceOnUse" x1="233.8037" y1="201.3047" x2="233.8037" y2="196.3047" gradientTransform="matrix(0.75 0 0 -0.75 206.9012 675.9034)">
		<stop  offset="0" style="stop-color:#6490AE"/>
		<stop  offset="0.15" style="stop-color:#94C7EC"/>
		<stop  offset="0.25" style="stop-color:#CAE1F4"/>
		<stop  offset="0.52" style="stop-color:#77AACE"/>
		<stop  offset="0.69" style="stop-color:#6997B7"/>
		<stop  offset="0.8" style="stop-color:#638FAD"/>
		<stop  offset="0.92" style="stop-color:#5D86A3"/>
		<stop  offset="1" style="stop-color:#6C9BBB"/>
	</linearGradient>
	<path fill="url(#SVGID_33_)" d="M359.32,524.925h45.75c0.75,0,0.867,0.254,0.867,0.563l-0.117,2.438c0,0-0.242,0.527-0.688,0.527
		l-45.813,0.223c-0.75,0-0.75-0.477-0.75-0.789v-2.211c0-0.75,0.359-0.75,0.805-0.75H359.32z"/>
	
		<linearGradient id="SVGID_34_" gradientUnits="userSpaceOnUse" x1="233.8027" y1="201.3027" x2="233.8027" y2="196.3027" gradientTransform="matrix(0.75 0 0 -0.75 271.4012 615.4689)">
		<stop  offset="0" style="stop-color:#6490AE"/>
		<stop  offset="0.15" style="stop-color:#94C7EC"/>
		<stop  offset="0.25" style="stop-color:#CAE1F4"/>
		<stop  offset="0.52" style="stop-color:#77AACE"/>
		<stop  offset="0.69" style="stop-color:#6997B7"/>
		<stop  offset="0.8" style="stop-color:#638FAD"/>
		<stop  offset="0.92" style="stop-color:#5D86A3"/>
		<stop  offset="1" style="stop-color:#6C9BBB"/>
	</linearGradient>
	<path fill="url(#SVGID_34_)" d="M423.82,464.492h45.75c0.75,0,0.867,0.25,0.867,0.563l-0.117,2.438c0,0-0.242,0.523-0.688,0.523
		l-45.813,0.227c-0.75,0-0.75-0.477-0.75-0.789v-2.211c0-0.75,0.359-0.75,0.805-0.75H423.82z"/>
	
		<linearGradient id="SVGID_35_" gradientUnits="userSpaceOnUse" x1="233.8037" y1="201.3018" x2="233.8037" y2="196.3018" gradientTransform="matrix(0.75 0 0 -0.75 271.4012 628.0616)">
		<stop  offset="0" style="stop-color:#6490AE"/>
		<stop  offset="0.15" style="stop-color:#94C7EC"/>
		<stop  offset="0.25" style="stop-color:#CAE1F4"/>
		<stop  offset="0.52" style="stop-color:#77AACE"/>
		<stop  offset="0.69" style="stop-color:#6997B7"/>
		<stop  offset="0.8" style="stop-color:#638FAD"/>
		<stop  offset="0.92" style="stop-color:#5D86A3"/>
		<stop  offset="1" style="stop-color:#6C9BBB"/>
	</linearGradient>
	<path fill="url(#SVGID_35_)" d="M423.82,477.085h45.75c0.75,0,0.867,0.25,0.867,0.563l-0.117,2.438c0,0-0.242,0.523-0.688,0.523
		l-45.813,0.227c-0.75,0-0.75-0.477-0.75-0.789v-2.211c0-0.75,0.359-0.75,0.805-0.75H423.82z"/>
	
		<linearGradient id="SVGID_36_" gradientUnits="userSpaceOnUse" x1="233.8037" y1="201.3057" x2="233.8037" y2="196.3057" gradientTransform="matrix(0.75 0 0 -0.75 271.4012 639.6427)">
		<stop  offset="0" style="stop-color:#6490AE"/>
		<stop  offset="0.15" style="stop-color:#94C7EC"/>
		<stop  offset="0.25" style="stop-color:#CAE1F4"/>
		<stop  offset="0.52" style="stop-color:#77AACE"/>
		<stop  offset="0.69" style="stop-color:#6997B7"/>
		<stop  offset="0.8" style="stop-color:#638FAD"/>
		<stop  offset="0.92" style="stop-color:#5D86A3"/>
		<stop  offset="1" style="stop-color:#6C9BBB"/>
	</linearGradient>
	<path fill="url(#SVGID_36_)" d="M423.82,488.664h45.75c0.75,0,0.867,0.254,0.867,0.566l-0.117,2.434c0,0-0.242,0.527-0.688,0.527
		l-45.813,0.223c-0.75,0-0.75-0.477-0.75-0.789v-2.211c0-0.75,0.359-0.75,0.805-0.75H423.82z"/>
	
		<linearGradient id="SVGID_37_" gradientUnits="userSpaceOnUse" x1="233.8037" y1="201.3018" x2="233.8037" y2="196.3018" gradientTransform="matrix(0.75 0 0 -0.75 271.4012 651.7296)">
		<stop  offset="0" style="stop-color:#6490AE"/>
		<stop  offset="0.15" style="stop-color:#94C7EC"/>
		<stop  offset="0.25" style="stop-color:#CAE1F4"/>
		<stop  offset="0.52" style="stop-color:#77AACE"/>
		<stop  offset="0.69" style="stop-color:#6997B7"/>
		<stop  offset="0.8" style="stop-color:#638FAD"/>
		<stop  offset="0.92" style="stop-color:#5D86A3"/>
		<stop  offset="1" style="stop-color:#6C9BBB"/>
	</linearGradient>
	<path fill="url(#SVGID_37_)" d="M423.82,500.753h45.75c0.75,0,0.867,0.25,0.867,0.563l-0.117,2.438c0,0-0.242,0.523-0.688,0.523
		l-45.813,0.227c-0.75,0-0.75-0.477-0.75-0.789v-2.211c0-0.75,0.359-0.75,0.805-0.75H423.82z"/>
	
		<linearGradient id="SVGID_38_" gradientUnits="userSpaceOnUse" x1="233.8037" y1="201.3018" x2="233.8037" y2="196.3018" gradientTransform="matrix(0.75 0 0 -0.75 271.4012 663.8165)">
		<stop  offset="0" style="stop-color:#6490AE"/>
		<stop  offset="0.15" style="stop-color:#94C7EC"/>
		<stop  offset="0.25" style="stop-color:#CAE1F4"/>
		<stop  offset="0.52" style="stop-color:#77AACE"/>
		<stop  offset="0.69" style="stop-color:#6997B7"/>
		<stop  offset="0.8" style="stop-color:#638FAD"/>
		<stop  offset="0.92" style="stop-color:#5D86A3"/>
		<stop  offset="1" style="stop-color:#6C9BBB"/>
	</linearGradient>
	<path fill="url(#SVGID_38_)" d="M423.82,512.839h45.75c0.75,0,0.867,0.25,0.867,0.563l-0.117,2.438c0,0-0.242,0.523-0.688,0.523
		l-45.813,0.227c-0.75,0-0.75-0.477-0.75-0.789v-2.211c0-0.75,0.359-0.75,0.805-0.75H423.82z"/>
	
		<linearGradient id="SVGID_39_" gradientUnits="userSpaceOnUse" x1="233.8037" y1="201.3047" x2="233.8037" y2="196.3047" gradientTransform="matrix(0.75 0 0 -0.75 271.4012 675.9034)">
		<stop  offset="0" style="stop-color:#6490AE"/>
		<stop  offset="0.15" style="stop-color:#94C7EC"/>
		<stop  offset="0.25" style="stop-color:#CAE1F4"/>
		<stop  offset="0.52" style="stop-color:#77AACE"/>
		<stop  offset="0.69" style="stop-color:#6997B7"/>
		<stop  offset="0.8" style="stop-color:#638FAD"/>
		<stop  offset="0.92" style="stop-color:#5D86A3"/>
		<stop  offset="1" style="stop-color:#6C9BBB"/>
	</linearGradient>
	<path fill="url(#SVGID_39_)" d="M423.82,524.925h45.75c0.75,0,0.867,0.254,0.867,0.563l-0.117,2.438c0,0-0.242,0.527-0.688,0.527
		l-45.813,0.223c-0.75,0-0.75-0.477-0.75-0.789v-2.211c0-0.75,0.359-0.75,0.805-0.75H423.82z"/>
	
		<linearGradient id="SVGID_40_" gradientUnits="userSpaceOnUse" x1="381.2231" y1="140.1875" x2="202.2231" y2="140.1875" gradientTransform="matrix(0.75 0 0 -0.75 -59.8551 336.1661)">
		<stop  offset="0" style="stop-color:#5F89A6"/>
		<stop  offset="0.01" style="stop-color:#AAD1EF"/>
		<stop  offset="0.02" style="stop-color:#7EB3D8"/>
		<stop  offset="0.64" style="stop-color:#7CB0D5"/>
		<stop  offset="0.99" style="stop-color:#79ACD0"/>
		<stop  offset="1" style="stop-color:#587F9A"/>
	</linearGradient>
	<path fill="url(#SVGID_40_)" d="M92.563,185.188h132.75c0,0,0.539,0.449,0.539,1.004l0.211,89.746c0,0.75-0.57,0.926-1.016,0.926
		l-132.484-0.176c-0.75,0-0.75-0.273-0.75-0.828v-89.922c0,0,0.363-0.75,0.809-0.75H92.563z"/>
	
		<linearGradient id="SVGID_41_" gradientUnits="userSpaceOnUse" x1="293.5991" y1="17.5781" x2="202.2241" y2="17.5781" gradientTransform="matrix(0.75 0 0 -0.75 -151.4147 442.38)">
		<stop  offset="0" style="stop-color:#5F89A6"/>
		<stop  offset="0.01" style="stop-color:#AAD1EF"/>
		<stop  offset="0.02" style="stop-color:#7EB3D8"/>
		<stop  offset="0.64" style="stop-color:#7CB0D5"/>
		<stop  offset="0.99" style="stop-color:#79ACD0"/>
		<stop  offset="1" style="stop-color:#587F9A"/>
	</linearGradient>
	<path fill="url(#SVGID_41_)" d="M1.004,291.402h66.75c0.75,0,1.031,0.324,1.031,0.77l-0.281,273.73c0,0.75-0.129,1.09-0.574,1.09
		l-66.926-0.34c-0.75,0-0.75-0.02-0.75-0.465V292.152c0-0.75,0.313-0.75,0.758-0.75H1.004z"/>
	
		<linearGradient id="SVGID_42_" gradientUnits="userSpaceOnUse" x1="301.6636" y1="187.1987" x2="202.2261" y2="187.1987" gradientTransform="matrix(0.75 0 0 -0.75 186.5555 420.7579)">
		<stop  offset="0" style="stop-color:#000000"/>
		<stop  offset="0.15" style="stop-color:#454545"/>
		<stop  offset="0.25" style="stop-color:#B3B3B3"/>
		<stop  offset="0.52" style="stop-color:#000000"/>
		<stop  offset="0.69" style="stop-color:#000000"/>
		<stop  offset="0.8" style="stop-color:#000000"/>
		<stop  offset="0.92" style="stop-color:#000000"/>
		<stop  offset="1" style="stop-color:#000000"/>
	</linearGradient>
	<path fill="url(#SVGID_42_)" d="M338.976,269.781h72.75c0.75,0,1.078,0.359,1.078,0.805l-0.328,19.445
		c0,0.75-0.035,0.906-0.48,0.906l-73.02-0.156c-0.75,0-0.75-0.207-0.75-0.652v-19.597c0-0.75,0.359-0.75,0.805-0.75H338.976z"/>
	
		<linearGradient id="SVGID_43_" gradientUnits="userSpaceOnUse" x1="212.2256" y1="177.7339" x2="202.1895" y2="177.7339" gradientTransform="matrix(0.75 0 0 -0.75 186.6815 413.6115)">
		<stop  offset="0" style="stop-color:#403E3E"/>
		<stop  offset="0.15" style="stop-color:#6D6C6C"/>
		<stop  offset="0.25" style="stop-color:#BCBCBC"/>
		<stop  offset="0.52" style="stop-color:#4D4B4B"/>
		<stop  offset="0.69" style="stop-color:#434242"/>
		<stop  offset="0.8" style="stop-color:#3F3E3E"/>
		<stop  offset="0.92" style="stop-color:#3B3A3A"/>
		<stop  offset="1" style="stop-color:#454444"/>
	</linearGradient>
	<path fill="url(#SVGID_43_)" d="M339.101,262.633h6c0,0,0.48,0.313,0.48,0.758l0.27,33.742c0,0.75-0.629,0.91-1.074,0.91
		l-5.676-0.16c-0.75,0-0.777-0.199-0.777-0.645l0.027-33.855c0-0.75,0.336-0.801,0.781-0.801L339.101,262.633z"/>
	
		<linearGradient id="SVGID_44_" gradientUnits="userSpaceOnUse" x1="212.2256" y1="177.7339" x2="202.1895" y2="177.7339" gradientTransform="matrix(0.75 0 0 -0.75 203.7596 413.6115)">
		<stop  offset="0" style="stop-color:#403E3E"/>
		<stop  offset="0.15" style="stop-color:#6D6C6C"/>
		<stop  offset="0.25" style="stop-color:#BCBCBC"/>
		<stop  offset="0.52" style="stop-color:#4D4B4B"/>
		<stop  offset="0.69" style="stop-color:#434242"/>
		<stop  offset="0.8" style="stop-color:#3F3E3E"/>
		<stop  offset="0.92" style="stop-color:#3B3A3A"/>
		<stop  offset="1" style="stop-color:#454444"/>
	</linearGradient>
	<path fill="url(#SVGID_44_)" d="M356.179,262.633h6c0,0,0.48,0.313,0.48,0.758l0.27,33.742c0,0.75-0.633,0.91-1.078,0.91
		l-5.672-0.16c-0.75,0-0.777-0.199-0.777-0.645l0.027-33.855c0-0.75,0.336-0.801,0.781-0.801L356.179,262.633z"/>
	
		<linearGradient id="SVGID_45_" gradientUnits="userSpaceOnUse" x1="212.2217" y1="177.7339" x2="202.1904" y2="177.7339" gradientTransform="matrix(0.75 0 0 -0.75 220.2235 413.6115)">
		<stop  offset="0" style="stop-color:#403E3E"/>
		<stop  offset="0.15" style="stop-color:#6D6C6C"/>
		<stop  offset="0.25" style="stop-color:#BCBCBC"/>
		<stop  offset="0.52" style="stop-color:#4D4B4B"/>
		<stop  offset="0.69" style="stop-color:#434242"/>
		<stop  offset="0.8" style="stop-color:#3F3E3E"/>
		<stop  offset="0.92" style="stop-color:#3B3A3A"/>
		<stop  offset="1" style="stop-color:#454444"/>
	</linearGradient>
	<path fill="url(#SVGID_45_)" d="M372.64,262.633h6c0,0,0.484,0.313,0.484,0.758l0.266,33.742c0,0.75-0.629,0.91-1.074,0.91
		l-5.676-0.16c-0.75,0-0.773-0.199-0.773-0.645l0.023-33.855c0-0.75,0.336-0.801,0.781-0.801L372.64,262.633z"/>
	
		<linearGradient id="SVGID_46_" gradientUnits="userSpaceOnUse" x1="212.2271" y1="177.7339" x2="202.1909" y2="177.7339" gradientTransform="matrix(0.75 0 0 -0.75 237.9149 413.6115)">
		<stop  offset="0" style="stop-color:#403E3E"/>
		<stop  offset="0.15" style="stop-color:#6D6C6C"/>
		<stop  offset="0.25" style="stop-color:#BCBCBC"/>
		<stop  offset="0.52" style="stop-color:#4D4B4B"/>
		<stop  offset="0.69" style="stop-color:#434242"/>
		<stop  offset="0.8" style="stop-color:#3F3E3E"/>
		<stop  offset="0.92" style="stop-color:#3B3A3A"/>
		<stop  offset="1" style="stop-color:#454444"/>
	</linearGradient>
	<path fill="url(#SVGID_46_)" d="M390.335,262.633h6c0,0,0.48,0.313,0.48,0.758l0.27,33.742c0,0.75-0.633,0.91-1.078,0.91
		l-5.672-0.16c-0.75,0-0.777-0.199-0.777-0.645l0.027-33.855c0-0.75,0.336-0.801,0.777-0.801L390.335,262.633z"/>
	
		<linearGradient id="SVGID_47_" gradientUnits="userSpaceOnUse" x1="212.2217" y1="177.7339" x2="202.1904" y2="177.7339" gradientTransform="matrix(0.75 0 0 -0.75 254.993 413.6115)">
		<stop  offset="0" style="stop-color:#403E3E"/>
		<stop  offset="0.15" style="stop-color:#6D6C6C"/>
		<stop  offset="0.25" style="stop-color:#BCBCBC"/>
		<stop  offset="0.52" style="stop-color:#4D4B4B"/>
		<stop  offset="0.69" style="stop-color:#434242"/>
		<stop  offset="0.8" style="stop-color:#3F3E3E"/>
		<stop  offset="0.92" style="stop-color:#3B3A3A"/>
		<stop  offset="1" style="stop-color:#454444"/>
	</linearGradient>
	<path fill="url(#SVGID_47_)" d="M407.41,262.633h6c0,0,0.484,0.313,0.484,0.758l0.266,33.742c0,0.75-0.629,0.91-1.074,0.91
		l-5.676-0.16c-0.75,0-0.773-0.199-0.773-0.645l0.023-33.855c0-0.75,0.336-0.801,0.781-0.801L407.41,262.633z"/>
	
		<linearGradient id="SVGID_48_" gradientUnits="userSpaceOnUse" x1="244.5557" y1="164.7202" x2="202.2275" y2="164.7202" gradientTransform="matrix(0.75 0 0 -0.75 84.7665 260.2316)">
		<stop  offset="0" style="stop-color:#5F89A6"/>
		<stop  offset="0.01" style="stop-color:#AAD1EF"/>
		<stop  offset="0.02" style="stop-color:#7EB3D8"/>
		<stop  offset="0.64" style="stop-color:#7CB0D5"/>
		<stop  offset="0.99" style="stop-color:#79ACD0"/>
		<stop  offset="1" style="stop-color:#587F9A"/>
	</linearGradient>
	<path fill="url(#SVGID_48_)" d="M237.188,109.254h30c0.75,0,0.996,0.156,0.996,0.352l-0.246,54.398c0,0-0.117,0.125-0.563,0.125
		l-30.188-0.125c-0.75,0-0.75-0.031-0.75-0.23v-54.52c0,0,0.359,0,0.805,0H237.188z"/>
	
		<linearGradient id="SVGID_49_" gradientUnits="userSpaceOnUse" x1="381.2231" y1="196.6045" x2="202.2231" y2="196.6045" gradientTransform="matrix(0.75 0 0 -0.75 -59.8551 336.1652)">
		<stop  offset="0" style="stop-color:#486E89"/>
		<stop  offset="0.01" style="stop-color:#98B7D1"/>
		<stop  offset="0.02" style="stop-color:#6091B3"/>
		<stop  offset="0.64" style="stop-color:#5E8FB0"/>
		<stop  offset="0.99" style="stop-color:#5C8BAC"/>
		<stop  offset="1" style="stop-color:#42667F"/>
	</linearGradient>
	<path fill="url(#SVGID_49_)" d="M92.563,185.188h132.75c0,0,0.539,0.035,0.539,0.078l0.211,6.672c0,0-0.57,0.301-1.016,0.301
		l-132.484-0.301c-0.75,0-0.75,0.266-0.75,0.227v-6.977c0,0,0.363,0,0.809,0H92.563z"/>
	
		<linearGradient id="SVGID_50_" gradientUnits="userSpaceOnUse" x1="381.2231" y1="196.6011" x2="202.2231" y2="196.6011" gradientTransform="matrix(0.75 0 0 -0.75 -59.8551 420.7882)">
		<stop  offset="0" style="stop-color:#486E89"/>
		<stop  offset="0.01" style="stop-color:#98B7D1"/>
		<stop  offset="0.02" style="stop-color:#6091B3"/>
		<stop  offset="0.64" style="stop-color:#5E8FB0"/>
		<stop  offset="0.99" style="stop-color:#5C8BAC"/>
		<stop  offset="1" style="stop-color:#42667F"/>
	</linearGradient>
	<path fill="url(#SVGID_50_)" d="M92.563,269.813h132.75c0,0,0.539,0.031,0.539,0.074l0.211,6.676c0,0-0.57,0.301-1.016,0.301
		l-132.484-0.301c-0.75,0-0.75,0.266-0.75,0.223v-6.973c0,0,0.363,0,0.809,0H92.563z"/>
	
		<linearGradient id="SVGID_51_" gradientUnits="userSpaceOnUse" x1="428.2231" y1="198.3047" x2="202.2231" y2="198.3047" gradientTransform="matrix(0.75 0 0 -0.75 -83.7423 442.38)">
		<stop  offset="0" style="stop-color:#486E89"/>
		<stop  offset="0.01" style="stop-color:#98B7D1"/>
		<stop  offset="0.02" style="stop-color:#6091B3"/>
		<stop  offset="0.64" style="stop-color:#5E8FB0"/>
		<stop  offset="0.99" style="stop-color:#5C8BAC"/>
		<stop  offset="1" style="stop-color:#42667F"/>
	</linearGradient>
	<path fill="url(#SVGID_51_)" d="M67.926,291.402h169.5v4.5h-169.5V291.402z"/>
	
		<radialGradient id="SVGID_52_" cx="250.1533" cy="153.3945" r="67.7655" gradientTransform="matrix(0.75 0 0 -0.75 85.6273 448.9962)" gradientUnits="userSpaceOnUse">
		<stop  offset="0" style="stop-color:#7AADD1"/>
		<stop  offset="0.54" style="stop-color:#78AACD"/>
		<stop  offset="0.74" style="stop-color:#B1CCE4"/>
		<stop  offset="0.91" style="stop-color:#78AACD"/>
		<stop  offset="1" style="stop-color:#78AACD"/>
	</radialGradient>
	<path fill="url(#SVGID_52_)" stroke="#7DB2D7" stroke-width="0.25" stroke-linejoin="bevel" stroke-miterlimit="10" d="
		M237.297,334.019c0-20.25,16.094-36,35.945-36c19.554,0,35.945,16.086,35.945,35.93c0.109,19.57-16.094,35.934-35.945,35.934
		c-20.195,0.137-35.945-16.09-35.945-35.934V334.019z"/>
	
		<linearGradient id="SVGID_53_" gradientUnits="userSpaceOnUse" x1="289.0161" y1="179.2085" x2="194.1966" y2="144.6971" gradientTransform="matrix(0.75 0 0 -0.75 92.0424 455.4279)">
		<stop  offset="0" style="stop-color:#4980A9"/>
		<stop  offset="0.15" style="stop-color:#76B4E6"/>
		<stop  offset="0.25" style="stop-color:#BFD7F1"/>
		<stop  offset="0.52" style="stop-color:#5798C7"/>
		<stop  offset="0.69" style="stop-color:#4D87B1"/>
		<stop  offset="0.8" style="stop-color:#487FA7"/>
		<stop  offset="0.92" style="stop-color:#44789E"/>
		<stop  offset="1" style="stop-color:#4F8AB6"/>
	</linearGradient>
	<path fill="url(#SVGID_53_)" d="M243.711,333.699c0-15.75,13.223-29.25,29.531-29.25c16.218,0,29.531,13.207,29.531,29.5
		c0.188,16.25-13.223,29.5-29.531,29.5c-16.031,0.25-29.531-13.207-29.531-29.5V333.699z"/>
	<path fill="#5293BF" d="M252.875,333.855c0-11.25,9.117-20.25,20.367-20.25c11.132,0,20.363,9.109,20.363,20.344
		c-0.23,11.156-9.117,20.344-20.363,20.344c-11.367-0.188-20.367-9.105-20.367-20.344V333.855z"/>
	
		<radialGradient id="SVGID_54_" cx="253.0015" cy="150.4326" r="71.8938" gradientTransform="matrix(0.75 0 0 -0.75 93.5468 609.3497)" gradientUnits="userSpaceOnUse">
		<stop  offset="0" style="stop-color:#3C3736"/>
		<stop  offset="0.54" style="stop-color:#3B3635"/>
		<stop  offset="0.74" style="stop-color:#9A9999"/>
		<stop  offset="0.91" style="stop-color:#3B3635"/>
		<stop  offset="1" style="stop-color:#3B3635"/>
	</radialGradient>
	<path fill="url(#SVGID_54_)" stroke="#3E3938" stroke-width="0.25" stroke-linejoin="bevel" stroke-miterlimit="10" d="
		M283.465,458.371c21,0,37.921,17.094,37.921,38.105c0.328,21.145-17.051,38.105-38.085,38.105c0.164,0.289-14.996,0.883-27-11.266
		c-11.836-12.445-11.086-26.84-11.086-26.84c0,0.145-0.469-16.199,11.531-27.457c11.719-11.398,26.555-10.648,26.555-10.648H283.465
		z M283.465,465.871c0,0,11.386-0.48,21.167,8.883c9.582,9.117,9.125,21.723,9.125,21.723c-0.293,0.145,0.832,11.406-8.477,21.184
		c-9.066,9.711-21.98,9.281-21.98,9.281c0.164-0.32-12.336,0.672-21.762-9.164c-9.574-9.906-8.695-21.301-8.695-21.301
		c-0.129,0.145-0.609-11.824,8.934-21.543c9.688-9.813,21.523-8.879,21.523-8.879L283.465,465.871z"/>
	
		<linearGradient id="SVGID_55_" gradientUnits="userSpaceOnUse" x1="211.2637" y1="184.9785" x2="202.2227" y2="184.9785" gradientTransform="matrix(0.75 0 0 -0.75 127.8871 616.2238)">
		<stop  offset="0" style="stop-color:#343232"/>
		<stop  offset="0.15" style="stop-color:#555454"/>
		<stop  offset="0.26" style="stop-color:#797777"/>
		<stop  offset="0.41" style="stop-color:#5D5B5B"/>
		<stop  offset="0.6" style="stop-color:#484646"/>
		<stop  offset="0.8" style="stop-color:#383636"/>
		<stop  offset="0.93" style="stop-color:#2C2B2B"/>
		<stop  offset="1" style="stop-color:#535151"/>
	</linearGradient>
	<path fill="url(#SVGID_55_)" d="M286.304,465.996v22.5c0,1.5-6.75,1.43-6.75,0.371v-22.871c0-0.75,6.781-1.016,6.781,0.039
		L286.304,465.996z"/>
	
		<linearGradient id="SVGID_56_" gradientUnits="userSpaceOnUse" x1="342.0591" y1="474.7144" x2="333.0239" y2="474.7144" gradientTransform="matrix(-0.375 0.6495 0.6495 0.375 117.9006 108.3722)">
		<stop  offset="0" style="stop-color:#343232"/>
		<stop  offset="0.15" style="stop-color:#555454"/>
		<stop  offset="0.26" style="stop-color:#797777"/>
		<stop  offset="0.41" style="stop-color:#5D5B5B"/>
		<stop  offset="0.6" style="stop-color:#484646"/>
		<stop  offset="0.8" style="stop-color:#383636"/>
		<stop  offset="0.93" style="stop-color:#2C2B2B"/>
		<stop  offset="1" style="stop-color:#535151"/>
	</linearGradient>
	<path fill="url(#SVGID_56_)" d="M307.976,514.312l-20.133-11.625c-0.652-0.375,2.781-6.188,3.699-5.656l19.809,11.438
		c0.652,0.375-2.508,6.375-3.422,5.848L307.976,514.312z"/>
	
		<linearGradient id="SVGID_57_" gradientUnits="userSpaceOnUse" x1="360.3198" y1="443.0845" x2="351.2856" y2="443.0845" gradientTransform="matrix(0.375 0.6495 -0.6495 0.375 421.3318 108.3722)">
		<stop  offset="0" style="stop-color:#343232"/>
		<stop  offset="0.15" style="stop-color:#555454"/>
		<stop  offset="0.26" style="stop-color:#797777"/>
		<stop  offset="0.41" style="stop-color:#5D5B5B"/>
		<stop  offset="0.6" style="stop-color:#484646"/>
		<stop  offset="0.8" style="stop-color:#383636"/>
		<stop  offset="0.93" style="stop-color:#2C2B2B"/>
		<stop  offset="1" style="stop-color:#535151"/>
	</linearGradient>
	<path fill="url(#SVGID_57_)" d="M258.648,514.312l20.133-11.625c0.652-0.375-2.781-6.188-3.699-5.656l-19.809,11.438
		c-0.652,0.375,2.508,6.375,3.422,5.848L258.648,514.312z"/>
	
		<radialGradient id="SVGID_58_" cx="213.3364" cy="190.1948" r="15.7117" gradientTransform="matrix(0.75 0 0 -0.75 123.2982 639.1222)" gradientUnits="userSpaceOnUse">
		<stop  offset="0" style="stop-color:#3C3736"/>
		<stop  offset="0.54" style="stop-color:#3B3635"/>
		<stop  offset="0.74" style="stop-color:#9A9999"/>
		<stop  offset="0.91" style="stop-color:#3B3635"/>
		<stop  offset="1" style="stop-color:#3B3635"/>
	</radialGradient>
	<path fill="url(#SVGID_58_)" stroke="#3E3938" stroke-width="0.25" stroke-linejoin="bevel" stroke-miterlimit="10" d="
		M274.969,496.394c0-4.5,3.73-8.25,8.332-8.25c4.417,0,8.332,3.73,8.332,8.332c-0.164,4.418-3.73,8.332-8.332,8.332
		c-4.582-0.164-8.332-3.73-8.332-8.332V496.394z"/>
</g>
</svg>
