<?xml version="1.0" encoding="utf-8"?>
<!-- Generator: Adobe Illustrator 16.0.0, SVG Export Plug-In . SVG Version: 6.00 Build 0)  -->
<!DOCTYPE svg PUBLIC "-//W3C//DTD SVG 1.1//EN" "http://www.w3.org/Graphics/SVG/1.1/DTD/svg11.dtd">
<svg preserveAspectRatio="none" version="1.1" id="图层_1" xmlns="http://www.w3.org/2000/svg" xmlns:xlink="http://www.w3.org/1999/xlink" x="0px" y="0px"
	 width="567.347px" height="567.406px" viewBox="-0.07 -0.07 567.347 567.406" enable-background="new -0.07 -0.07 567.347 567.406"
	 xml:space="preserve">
<g id="surface1046">
	
		<linearGradient id="SVGID_1_" gradientUnits="userSpaceOnUse" x1="580.2251" y1="201.3037" x2="580.2251" y2="158.3027" gradientTransform="matrix(0.75 0 0 -0.75 -151.7399 150.9064)">
		<stop  offset="0" style="stop-color:#B59D79"/>
		<stop  offset="0.01" style="stop-color:#FFE5C1"/>
		<stop  offset="0.02" style="stop-color:#EBCC9F"/>
		<stop  offset="0.64" style="stop-color:#E7C99C"/>
		<stop  offset="0.99" style="stop-color:#E2C499"/>
		<stop  offset="1" style="stop-color:#A89170"/>
	</linearGradient>
	<path fill="url(#SVGID_1_)" d="M-0.07,32.18h567V-0.07h-567V32.18z"/>
	
		<linearGradient id="SVGID_2_" gradientUnits="userSpaceOnUse" x1="958.2241" y1="-155.1929" x2="202.2251" y2="-155.1929" gradientTransform="matrix(0.75 0 0 -0.75 -151.7399 182.963)">
		<stop  offset="0" style="stop-color:#B3A593"/>
		<stop  offset="0.01" style="stop-color:#FDEEDA"/>
		<stop  offset="0.02" style="stop-color:#E9D7BF"/>
		<stop  offset="0.64" style="stop-color:#E5D3BC"/>
		<stop  offset="0.99" style="stop-color:#E0CEB8"/>
		<stop  offset="1" style="stop-color:#A69988"/>
	</linearGradient>
	<path fill="url(#SVGID_2_)" d="M-0.07,566.734h567V31.984h-567V566.734z"/>
	
		<linearGradient id="SVGID_3_" gradientUnits="userSpaceOnUse" x1="353.2261" y1="-155.1934" x2="202.2261" y2="-155.1934" gradientTransform="matrix(0.75 0 0 -0.75 -151.7369 182.963)">
		<stop  offset="0" style="stop-color:#B3A593"/>
		<stop  offset="0.01" style="stop-color:#FDEEDA"/>
		<stop  offset="0.02" style="stop-color:#E9D7BF"/>
		<stop  offset="0.64" style="stop-color:#E5D3BC"/>
		<stop  offset="0.99" style="stop-color:#E0CEB8"/>
		<stop  offset="1" style="stop-color:#A69988"/>
	</linearGradient>
	<path fill="url(#SVGID_3_)" d="M-0.066,566.734h113.25V31.984H-0.066V566.734z"/>
	
		<linearGradient id="SVGID_4_" gradientUnits="userSpaceOnUse" x1="353.2271" y1="-155.1934" x2="202.2266" y2="-155.1934" gradientTransform="matrix(0.75 0 0 -0.75 302.3563 182.963)">
		<stop  offset="0" style="stop-color:#B3A593"/>
		<stop  offset="0.01" style="stop-color:#FDEEDA"/>
		<stop  offset="0.02" style="stop-color:#E9D7BF"/>
		<stop  offset="0.64" style="stop-color:#E5D3BC"/>
		<stop  offset="0.99" style="stop-color:#E0CEB8"/>
		<stop  offset="1" style="stop-color:#A69988"/>
	</linearGradient>
	<path fill="url(#SVGID_4_)" d="M454.027,566.734h113.25V31.984h-113.25V566.734z"/>
	
		<linearGradient id="SVGID_5_" gradientUnits="userSpaceOnUse" x1="429.7261" y1="201.3057" x2="429.7261" y2="80.3057" gradientTransform="matrix(0.75 0 0 -0.75 -38.7633 182.963)">
		<stop  offset="0" style="stop-color:#B3A593"/>
		<stop  offset="0.01" style="stop-color:#FDEEDA"/>
		<stop  offset="0.02" style="stop-color:#E9D7BF"/>
		<stop  offset="0.64" style="stop-color:#E5D3BC"/>
		<stop  offset="0.99" style="stop-color:#E0CEB8"/>
		<stop  offset="1" style="stop-color:#A69988"/>
	</linearGradient>
	<path fill="url(#SVGID_5_)" d="M112.906,122.734h341.25v-90.75h-341.25V122.734z"/>
	
		<linearGradient id="SVGID_6_" gradientUnits="userSpaceOnUse" x1="277.7266" y1="201.3057" x2="277.7266" y2="105.3057" gradientTransform="matrix(0.75 0 0 -0.75 -151.7399 182.963)">
		<stop  offset="0" style="stop-color:#B3A593"/>
		<stop  offset="0.01" style="stop-color:#FDEEDA"/>
		<stop  offset="0.02" style="stop-color:#E9D7BF"/>
		<stop  offset="0.64" style="stop-color:#E5D3BC"/>
		<stop  offset="0.99" style="stop-color:#E0CEB8"/>
		<stop  offset="1" style="stop-color:#A69988"/>
	</linearGradient>
	<path fill="url(#SVGID_6_)" d="M-0.07,103.984h113.25v-72H-0.07V103.984z"/>
	
		<linearGradient id="SVGID_7_" gradientUnits="userSpaceOnUse" x1="429.7261" y1="201.3047" x2="429.7261" y2="164.3047" gradientTransform="matrix(0.75 0 0 -0.75 -38.7628 690.5636)">
		<stop  offset="0" style="stop-color:#B59D79"/>
		<stop  offset="0.01" style="stop-color:#FFE5C1"/>
		<stop  offset="0.02" style="stop-color:#EBCC9F"/>
		<stop  offset="0.64" style="stop-color:#E7C99C"/>
		<stop  offset="0.99" style="stop-color:#E2C499"/>
		<stop  offset="1" style="stop-color:#A89170"/>
	</linearGradient>
	<path fill="url(#SVGID_7_)" d="M112.906,567.335h341.25v-27.75h-341.25V567.335z"/>
	
		<linearGradient id="SVGID_8_" gradientUnits="userSpaceOnUse" x1="218.6152" y1="203.6094" x2="208.5741" y2="176.0214" gradientTransform="matrix(0.75 0 0 -0.75 -135.9542 199.0079)">
		<stop  offset="0" style="stop-color:#BC8823"/>
		<stop  offset="0.15" style="stop-color:#FDBE55"/>
		<stop  offset="0.25" style="stop-color:#FEDCB6"/>
		<stop  offset="0.52" style="stop-color:#DEA22B"/>
		<stop  offset="0.69" style="stop-color:#C58F25"/>
		<stop  offset="0.8" style="stop-color:#BA8723"/>
		<stop  offset="0.92" style="stop-color:#B07F20"/>
		<stop  offset="1" style="stop-color:#CA9327"/>
	</linearGradient>
	<path fill="url(#SVGID_8_)" stroke="#EEEEEE" stroke-linejoin="bevel" stroke-miterlimit="10" d="M15.715,56.281
		c0-4.5,3.777-8.25,8.492-8.25c5.008,0,8.543,3.852,8.543,8.617c0.215,4.883-3.824,8.594-8.543,8.594
		c-4.742,0.039-8.539-3.855-8.539-8.594L15.715,56.281z"/>
	
		<linearGradient id="SVGID_9_" gradientUnits="userSpaceOnUse" x1="218.6177" y1="203.6099" x2="208.5761" y2="176.0208" gradientTransform="matrix(0.75 0 0 -0.75 -103.8073 199.0079)">
		<stop  offset="0" style="stop-color:#AE4F52"/>
		<stop  offset="0.15" style="stop-color:#EC7D80"/>
		<stop  offset="0.25" style="stop-color:#F4C1C2"/>
		<stop  offset="0.52" style="stop-color:#CE5E62"/>
		<stop  offset="0.69" style="stop-color:#B75356"/>
		<stop  offset="0.8" style="stop-color:#AD4E51"/>
		<stop  offset="0.92" style="stop-color:#A3494C"/>
		<stop  offset="1" style="stop-color:#BB5559"/>
	</linearGradient>
	<path fill="url(#SVGID_9_)" stroke="#EEEEEE" stroke-linejoin="bevel" stroke-miterlimit="10" d="M47.863,56.281
		c0-4.5,3.773-8.25,8.492-8.25c5.008,0,8.543,3.852,8.543,8.617c0.215,4.883-3.824,8.594-8.543,8.594
		c-4.742,0.039-8.543-3.855-8.543-8.594L47.863,56.281z"/>
	
		<linearGradient id="SVGID_10_" gradientUnits="userSpaceOnUse" x1="218.6167" y1="203.6089" x2="208.5755" y2="176.0209" gradientTransform="matrix(0.75 0 0 -0.75 -71.65 199.0079)">
		<stop  offset="0" style="stop-color:#398C8E"/>
		<stop  offset="0.15" style="stop-color:#67C3C5"/>
		<stop  offset="0.25" style="stop-color:#BBDEE0"/>
		<stop  offset="0.52" style="stop-color:#45A6A9"/>
		<stop  offset="0.69" style="stop-color:#3C9396"/>
		<stop  offset="0.8" style="stop-color:#388B8D"/>
		<stop  offset="0.92" style="stop-color:#358385"/>
		<stop  offset="1" style="stop-color:#3E9799"/>
	</linearGradient>
	<path fill="url(#SVGID_10_)" stroke="#EEEEEE" stroke-linejoin="bevel" stroke-miterlimit="10" d="M80.02,56.281
		c0-4.5,3.777-8.25,8.492-8.25c5.008,0,8.543,3.852,8.543,8.617c0.215,4.883-3.824,8.594-8.543,8.594
		c-4.742,0.039-8.543-3.855-8.543-8.594L80.02,56.281z"/>
	
		<linearGradient id="SVGID_11_" gradientUnits="userSpaceOnUse" x1="218.6143" y1="203.6099" x2="208.5735" y2="176.0231" gradientTransform="matrix(0.75 0 0 -0.75 -119.8903 224.5363)">
		<stop  offset="0" style="stop-color:#AE4F52"/>
		<stop  offset="0.15" style="stop-color:#EC7D80"/>
		<stop  offset="0.25" style="stop-color:#F4C1C2"/>
		<stop  offset="0.52" style="stop-color:#CE5E62"/>
		<stop  offset="0.69" style="stop-color:#B75356"/>
		<stop  offset="0.8" style="stop-color:#AD4E51"/>
		<stop  offset="0.92" style="stop-color:#A3494C"/>
		<stop  offset="1" style="stop-color:#BB5559"/>
	</linearGradient>
	<path fill="url(#SVGID_11_)" stroke="#EEEEEE" stroke-linejoin="bevel" stroke-miterlimit="10" d="M31.777,81.809
		c0-4.5,3.777-8.25,8.496-8.25c5.004,0,8.543,3.852,8.543,8.617c0.211,4.883-3.824,8.594-8.543,8.594
		c-4.746,0.039-8.543-3.852-8.543-8.594L31.777,81.809z"/>
	
		<linearGradient id="SVGID_12_" gradientUnits="userSpaceOnUse" x1="218.6162" y1="203.6094" x2="208.5754" y2="176.0226" gradientTransform="matrix(0.75 0 0 -0.75 -87.7325 224.5363)">
		<stop  offset="0" style="stop-color:#398C8E"/>
		<stop  offset="0.15" style="stop-color:#67C3C5"/>
		<stop  offset="0.25" style="stop-color:#BBDEE0"/>
		<stop  offset="0.52" style="stop-color:#45A6A9"/>
		<stop  offset="0.69" style="stop-color:#3C9396"/>
		<stop  offset="0.8" style="stop-color:#388B8D"/>
		<stop  offset="0.92" style="stop-color:#358385"/>
		<stop  offset="1" style="stop-color:#3E9799"/>
	</linearGradient>
	<path fill="url(#SVGID_12_)" stroke="#EEEEEE" stroke-linejoin="bevel" stroke-miterlimit="10" d="M63.938,81.809
		c0-4.5,3.773-8.25,8.492-8.25c5.008,0,8.543,3.852,8.543,8.617c0.215,4.883-3.824,8.594-8.543,8.594
		c-4.742,0.039-8.543-3.852-8.543-8.594L63.938,81.809z"/>
	
		<linearGradient id="SVGID_13_" gradientUnits="userSpaceOnUse" x1="212.2246" y1="-155.1934" x2="202.2246" y2="-155.1934" gradientTransform="matrix(0.75 0 0 -0.75 -46.2784 182.963)">
		<stop  offset="0" style="stop-color:#B59D79"/>
		<stop  offset="0.01" style="stop-color:#FFE5C1"/>
		<stop  offset="0.02" style="stop-color:#EBCC9F"/>
		<stop  offset="0.64" style="stop-color:#E7C99C"/>
		<stop  offset="0.99" style="stop-color:#E2C499"/>
		<stop  offset="1" style="stop-color:#A89170"/>
	</linearGradient>
	<path fill="url(#SVGID_13_)" d="M105.391,566.734h7.5V31.984h-7.5V566.734z"/>
	
		<linearGradient id="SVGID_14_" gradientUnits="userSpaceOnUse" x1="212.2271" y1="-155.1973" x2="202.2271" y2="-155.1973" gradientTransform="matrix(0.75 0 0 -0.75 302.3563 182.9611)">
		<stop  offset="0" style="stop-color:#B59D79"/>
		<stop  offset="0.01" style="stop-color:#FFE5C1"/>
		<stop  offset="0.02" style="stop-color:#EBCC9F"/>
		<stop  offset="0.64" style="stop-color:#E7C99C"/>
		<stop  offset="0.99" style="stop-color:#E2C499"/>
		<stop  offset="1" style="stop-color:#A89170"/>
	</linearGradient>
	<path fill="url(#SVGID_14_)" d="M454.027,566.734h7.5V31.984h-7.5V566.734z"/>
	
		<linearGradient id="SVGID_15_" gradientUnits="userSpaceOnUse" x1="429.7241" y1="201.3018" x2="429.7241" y2="5.3018" gradientTransform="matrix(0.75 0 0 -0.75 -38.7628 269.7853)">
		<stop  offset="0" style="stop-color:#B3A593"/>
		<stop  offset="0.01" style="stop-color:#FDEEDA"/>
		<stop  offset="0.02" style="stop-color:#E9D7BF"/>
		<stop  offset="0.64" style="stop-color:#E5D3BC"/>
		<stop  offset="0.99" style="stop-color:#E0CEB8"/>
		<stop  offset="1" style="stop-color:#A69988"/>
	</linearGradient>
	<path fill="url(#SVGID_15_)" d="M112.906,265.809h341.25v-147h-341.25V265.809z"/>
	
		<linearGradient id="SVGID_16_" gradientUnits="userSpaceOnUse" x1="277.7275" y1="201.3066" x2="277.7275" y2="105.3057" gradientTransform="matrix(0.75 0 0 -0.75 302.3563 182.963)">
		<stop  offset="0" style="stop-color:#B3A593"/>
		<stop  offset="0.01" style="stop-color:#FDEEDA"/>
		<stop  offset="0.02" style="stop-color:#E9D7BF"/>
		<stop  offset="0.64" style="stop-color:#E5D3BC"/>
		<stop  offset="0.99" style="stop-color:#E0CEB8"/>
		<stop  offset="1" style="stop-color:#A69988"/>
	</linearGradient>
	<path fill="url(#SVGID_16_)" d="M454.027,103.984h113.25v-72h-113.25V103.984z"/>
	
		<linearGradient id="SVGID_17_" gradientUnits="userSpaceOnUse" x1="379.7251" y1="201.3037" x2="379.7251" y2="63.3037" gradientTransform="matrix(0.75 0 0 -0.75 35.8226 271.3956)">
		<stop  offset="0" style="stop-color:#B59D79"/>
		<stop  offset="0.01" style="stop-color:#FFE5C1"/>
		<stop  offset="0.02" style="stop-color:#EBCC9F"/>
		<stop  offset="0.64" style="stop-color:#E7C99C"/>
		<stop  offset="0.99" style="stop-color:#E2C499"/>
		<stop  offset="1" style="stop-color:#A89170"/>
	</linearGradient>
	<path fill="url(#SVGID_17_)" d="M187.492,223.918h266.25v-103.5h-266.25V223.918z"/>
	
		<linearGradient id="SVGID_18_" gradientUnits="userSpaceOnUse" x1="301.2271" y1="146.3037" x2="202.2266" y2="146.3037" gradientTransform="matrix(0.75 0 0 -0.75 154.5009 212.6642)">
		<stop  offset="0" style="stop-color:#B59D79"/>
		<stop  offset="0.01" style="stop-color:#FFE5C1"/>
		<stop  offset="0.02" style="stop-color:#EBCC9F"/>
		<stop  offset="0.64" style="stop-color:#E7C99C"/>
		<stop  offset="0.99" style="stop-color:#E2C499"/>
		<stop  offset="1" style="stop-color:#A89170"/>
	</linearGradient>
	<path fill="url(#SVGID_18_)" d="M306.171,144.188h74.25v-82.5h-74.25V144.188z"/>
	
		<linearGradient id="SVGID_19_" gradientUnits="userSpaceOnUse" x1="227.2261" y1="183.8057" x2="202.2261" y2="183.8057" gradientTransform="matrix(0.75 0 0 -0.75 182.4706 186.1349)">
		<stop  offset="0" style="stop-color:#C2B39F"/>
		<stop  offset="0.15" style="stop-color:#FDEAD3"/>
		<stop  offset="0.25" style="stop-color:#FEF3E7"/>
		<stop  offset="0.52" style="stop-color:#DECCB6"/>
		<stop  offset="0.69" style="stop-color:#C5B5A2"/>
		<stop  offset="0.8" style="stop-color:#BAAB98"/>
		<stop  offset="0.97" style="stop-color:#B0A190"/>
		<stop  offset="1" style="stop-color:#CABAA5"/>
	</linearGradient>
	<path fill="url(#SVGID_19_)" d="M334.14,61.406h18.75v-26.25h-18.75V61.406z"/>
	
		<linearGradient id="SVGID_20_" gradientUnits="userSpaceOnUse" x1="283.2222" y1="194.3047" x2="202.2231" y2="194.3047" gradientTransform="matrix(0.75 0 0 -0.75 82.1097 262.4073)">
		<stop  offset="0" style="stop-color:#B59D79"/>
		<stop  offset="0.01" style="stop-color:#FFE5C1"/>
		<stop  offset="0.02" style="stop-color:#EBCC9F"/>
		<stop  offset="0.64" style="stop-color:#E7C99C"/>
		<stop  offset="0.99" style="stop-color:#E2C499"/>
		<stop  offset="1" style="stop-color:#A89170"/>
	</linearGradient>
	<path fill="url(#SVGID_20_)" d="M233.777,121.93h60.75v-10.5h-60.75V121.93z"/>
	
		<linearGradient id="SVGID_21_" gradientUnits="userSpaceOnUse" x1="242.7217" y1="201.3018" x2="242.7217" y2="164.3018" gradientTransform="matrix(0.75 0 0 -0.75 229.0868 227.0343)">
		<stop  offset="0" style="stop-color:#C2B39F"/>
		<stop  offset="0.15" style="stop-color:#FDEAD3"/>
		<stop  offset="0.25" style="stop-color:#FEF3E7"/>
		<stop  offset="0.52" style="stop-color:#DECCB6"/>
		<stop  offset="0.69" style="stop-color:#C5B5A2"/>
		<stop  offset="0.8" style="stop-color:#BAAB98"/>
		<stop  offset="0.97" style="stop-color:#B0A190"/>
		<stop  offset="1" style="stop-color:#CABAA5"/>
	</linearGradient>
	<path fill="url(#SVGID_21_)" d="M380.753,103.809h60.75v-27.75h-60.75V103.809z"/>
	
		<linearGradient id="SVGID_22_" gradientUnits="userSpaceOnUse" x1="210.2266" y1="201.3018" x2="210.2266" y2="150.3018" gradientTransform="matrix(0.75 0 0 -0.75 236.2128 221.4454)">
		<stop  offset="0" style="stop-color:#C4AA84"/>
		<stop  offset="0.15" style="stop-color:#FFE0B3"/>
		<stop  offset="0.25" style="stop-color:#FFEED7"/>
		<stop  offset="0.52" style="stop-color:#DFC297"/>
		<stop  offset="0.69" style="stop-color:#C7AD86"/>
		<stop  offset="0.8" style="stop-color:#BCA37E"/>
		<stop  offset="0.97" style="stop-color:#B19A77"/>
		<stop  offset="1" style="stop-color:#CBB189"/>
	</linearGradient>
	<path fill="url(#SVGID_22_)" d="M387.882,108.719h12v-38.25h-12V108.719z"/>
	
		<linearGradient id="SVGID_23_" gradientUnits="userSpaceOnUse" x1="213.7266" y1="201.3018" x2="213.7266" y2="158.3018" gradientTransform="matrix(0.75 0 0 -0.75 261.4432 224.5157)">
		<stop  offset="0" style="stop-color:#C4AA84"/>
		<stop  offset="0.15" style="stop-color:#FFE0B3"/>
		<stop  offset="0.25" style="stop-color:#FFEED7"/>
		<stop  offset="0.52" style="stop-color:#DFC297"/>
		<stop  offset="0.69" style="stop-color:#C7AD86"/>
		<stop  offset="0.8" style="stop-color:#BCA37E"/>
		<stop  offset="0.97" style="stop-color:#B19A77"/>
		<stop  offset="1" style="stop-color:#CBB189"/>
	</linearGradient>
	<path fill="url(#SVGID_23_)" d="M413.113,105.789h17.25v-32.25h-17.25V105.789z"/>
	
		<linearGradient id="SVGID_24_" gradientUnits="userSpaceOnUse" x1="213.7266" y1="201.3018" x2="213.7266" y2="195.3018" gradientTransform="matrix(0.75 0 0 -0.75 261.4432 224.5157)">
		<stop  offset="0" style="stop-color:#C4AA84"/>
		<stop  offset="0.15" style="stop-color:#FFE0B3"/>
		<stop  offset="0.25" style="stop-color:#FFEED7"/>
		<stop  offset="0.52" style="stop-color:#DFC297"/>
		<stop  offset="0.69" style="stop-color:#C7AD86"/>
		<stop  offset="0.8" style="stop-color:#BCA37E"/>
		<stop  offset="0.97" style="stop-color:#B19A77"/>
		<stop  offset="1" style="stop-color:#CBB189"/>
	</linearGradient>
	<path fill="url(#SVGID_24_)" d="M413.113,78.039h17.25v-4.5h-17.25V78.039z"/>
	
		<linearGradient id="SVGID_25_" gradientUnits="userSpaceOnUse" x1="213.7266" y1="201.3057" x2="213.7266" y2="195.3057" gradientTransform="matrix(0.75 0 0 -0.75 261.4432 238.4796)">
		<stop  offset="0" style="stop-color:#C4AA84"/>
		<stop  offset="0.15" style="stop-color:#FFE0B3"/>
		<stop  offset="0.25" style="stop-color:#FFEED7"/>
		<stop  offset="0.52" style="stop-color:#DFC297"/>
		<stop  offset="0.69" style="stop-color:#C7AD86"/>
		<stop  offset="0.8" style="stop-color:#BCA37E"/>
		<stop  offset="0.97" style="stop-color:#B19A77"/>
		<stop  offset="1" style="stop-color:#CBB189"/>
	</linearGradient>
	<path fill="url(#SVGID_25_)" d="M413.113,92h17.25v-4.5h-17.25V92z"/>
	
		<linearGradient id="SVGID_26_" gradientUnits="userSpaceOnUse" x1="213.7266" y1="201.3037" x2="213.7266" y2="195.3037" gradientTransform="matrix(0.75 0 0 -0.75 261.4432 252.4425)">
		<stop  offset="0" style="stop-color:#C4AA84"/>
		<stop  offset="0.15" style="stop-color:#FFE0B3"/>
		<stop  offset="0.25" style="stop-color:#FFEED7"/>
		<stop  offset="0.52" style="stop-color:#DFC297"/>
		<stop  offset="0.69" style="stop-color:#C7AD86"/>
		<stop  offset="0.8" style="stop-color:#BCA37E"/>
		<stop  offset="0.97" style="stop-color:#B19A77"/>
		<stop  offset="1" style="stop-color:#CBB189"/>
	</linearGradient>
	<path fill="url(#SVGID_26_)" d="M413.113,105.965h17.25v-4.5h-17.25V105.965z"/>
	
		<linearGradient id="SVGID_27_" gradientUnits="userSpaceOnUse" x1="301.2271" y1="181.8027" x2="202.2266" y2="181.8027" gradientTransform="matrix(0.75 0 0 -0.75 154.5009 272.3556)">
		<stop  offset="0" style="stop-color:#B3A593"/>
		<stop  offset="0.01" style="stop-color:#FDEEDA"/>
		<stop  offset="0.02" style="stop-color:#E9D7BF"/>
		<stop  offset="0.64" style="stop-color:#E5D3BC"/>
		<stop  offset="0.99" style="stop-color:#E0CEB8"/>
		<stop  offset="1" style="stop-color:#A69988"/>
	</linearGradient>
	<path fill="url(#SVGID_27_)" d="M306.171,150.629h74.25v-29.25h-74.25V150.629z"/>
	
		<linearGradient id="SVGID_28_" gradientUnits="userSpaceOnUse" x1="255.2246" y1="180.3066" x2="202.2246" y2="180.3066" gradientTransform="matrix(0.75 0 0 -0.75 -3.9928 275.8927)">
		<stop  offset="0" style="stop-color:#B59D79"/>
		<stop  offset="0.01" style="stop-color:#FFE5C1"/>
		<stop  offset="0.02" style="stop-color:#EBCC9F"/>
		<stop  offset="0.64" style="stop-color:#E7C99C"/>
		<stop  offset="0.99" style="stop-color:#E2C499"/>
		<stop  offset="1" style="stop-color:#A89170"/>
	</linearGradient>
	<path fill="url(#SVGID_28_)" d="M147.676,156.414h39.75v-31.5h-39.75V156.414z"/>
	
		<linearGradient id="SVGID_29_" gradientUnits="userSpaceOnUse" x1="213.2227" y1="192.8037" x2="202.2227" y2="192.8037" gradientTransform="matrix(0.75 0 0 -0.75 12.0204 227.0314)">
		<stop  offset="0" style="stop-color:#C2B39F"/>
		<stop  offset="0.15" style="stop-color:#FDEAD3"/>
		<stop  offset="0.25" style="stop-color:#FEF3E7"/>
		<stop  offset="0.52" style="stop-color:#DECCB6"/>
		<stop  offset="0.69" style="stop-color:#C5B5A2"/>
		<stop  offset="0.8" style="stop-color:#BAAB98"/>
		<stop  offset="0.97" style="stop-color:#B0A190"/>
		<stop  offset="1" style="stop-color:#CABAA5"/>
	</linearGradient>
	<path fill="url(#SVGID_29_)" d="M163.688,88.805h8.25v-12.75h-8.25V88.805z"/>
	
		<linearGradient id="SVGID_30_" gradientUnits="userSpaceOnUse" x1="221.2275" y1="180.8066" x2="202.2275" y2="180.8066" gradientTransform="matrix(0.75 0 0 -0.75 9.0048 238.7101)">
		<stop  offset="0" style="stop-color:#C2B39F"/>
		<stop  offset="0.15" style="stop-color:#FDEAD3"/>
		<stop  offset="0.25" style="stop-color:#FEF3E7"/>
		<stop  offset="0.52" style="stop-color:#DECCB6"/>
		<stop  offset="0.69" style="stop-color:#C5B5A2"/>
		<stop  offset="0.8" style="stop-color:#BAAB98"/>
		<stop  offset="0.97" style="stop-color:#B0A190"/>
		<stop  offset="1" style="stop-color:#CABAA5"/>
	</linearGradient>
	<path fill="url(#SVGID_30_)" d="M160.676,118.48h14.25V87.73h-14.25V118.48z"/>
	
		<linearGradient id="SVGID_31_" gradientUnits="userSpaceOnUse" x1="228.7251" y1="201.3047" x2="228.7251" y2="189.3047" gradientTransform="matrix(0.75 0 0 -0.75 -3.9928 266.6075)">
		<stop  offset="0" style="stop-color:#B59D79"/>
		<stop  offset="0.01" style="stop-color:#FFE5C1"/>
		<stop  offset="0.02" style="stop-color:#EBCC9F"/>
		<stop  offset="0.64" style="stop-color:#E7C99C"/>
		<stop  offset="0.99" style="stop-color:#E2C499"/>
		<stop  offset="1" style="stop-color:#A89170"/>
	</linearGradient>
	<path fill="url(#SVGID_31_)" d="M147.676,124.629h39.75v-9h-39.75V124.629z"/>
	<path stroke="#000000" stroke-linejoin="bevel" stroke-miterlimit="10" d="M149.555,57.238c0-9.75,8.117-18,18.141-18
		c10.359,0,18.137,8.195,18.137,18.309c-0.277,10.191-8.121,18.309-18.137,18.309c-9.891,0.133-18.141-8.199-18.141-18.309V57.238z"
		/>
	<path fill="#9E9F9F" d="M151.09,57.293c0-9,7.43-16.5,16.605-16.5c8.895,0,16.605,7.496,16.605,16.754
		c-0.211,9.496-7.438,16.758-16.605,16.758c-9.105,0.238-16.605-7.508-16.605-16.758V57.293z"/>
	<path fill="#EBEAE9" d="M151.617,57.824c0-9,7.195-16.5,16.078-16.5c8.672,0,16.074,7.262,16.074,16.223
		c0.098,9.277-7.199,16.223-16.074,16.223c-8.578-0.195-16.078-7.266-16.078-16.223V57.824z"/>
	<path stroke="#000000" stroke-linejoin="bevel" stroke-miterlimit="10" d="M157.121,66.832l9.75-9c0,0,3.18-2.387,3.898-4.902
		c-0.148-0.348,0.434-0.801,1.234,0l1.617,1.902c0,0,0.438,0.977-0.754,0.977c0.004-0.227-2.711,0.691-5.527,3.172L157.121,66.832z"
		/>
	<path stroke="#000000" stroke-linejoin="bevel" stroke-miterlimit="10" d="M166.836,57.93c0-0.75,0.59-1.5,1.32-1.5
		c0.93,0,1.316,0.594,1.316,1.332c0.363,0.918-0.59,1.328-1.316,1.328c-0.57,0.34-1.32-0.598-1.32-1.328V57.93z"/>
	
		<linearGradient id="SVGID_32_" gradientUnits="userSpaceOnUse" x1="204.3408" y1="200.2427" x2="202.2207" y2="200.2427" gradientTransform="matrix(0.75 0 0 -0.75 15.6898 207.9396)">
		<stop  offset="0" style="stop-color:#C4AA84"/>
		<stop  offset="0.15" style="stop-color:#FFE0B3"/>
		<stop  offset="0.25" style="stop-color:#FFEED7"/>
		<stop  offset="0.44" style="stop-color:#DFC297"/>
		<stop  offset="0.6" style="stop-color:#C7AD86"/>
		<stop  offset="0.8" style="stop-color:#A89170"/>
		<stop  offset="0.97" style="stop-color:#998566"/>
		<stop  offset="1" style="stop-color:#CBB189"/>
	</linearGradient>
	<path fill="url(#SVGID_32_)" d="M167.359,57.711c0-0.75,0.352-0.754,0.793-0.754c0.707,0.004,0.793,0.359,0.793,0.801
		c-0.086,0.703-0.355,0.801-0.793,0.801c-0.793-0.098-0.797-0.359-0.797-0.801L167.359,57.711z"/>
	<path fill="none" stroke="#000000" stroke-linejoin="bevel" stroke-miterlimit="10" d="M174.41,44.332l-0.75,2.25"/>
	<path fill="none" stroke="#000000" stroke-linejoin="bevel" stroke-miterlimit="10" d="M161.023,44.332l0.75,2.25"/>
	<path fill="none" stroke="#000000" stroke-linejoin="bevel" stroke-miterlimit="10" d="M180.414,56.16l2.25-0.75"/>
	<path fill="none" stroke="#000000" stroke-linejoin="bevel" stroke-miterlimit="10" d="M176.73,66.922l1.5,1.5"/>
	<path fill="none" stroke="#000000" stroke-linejoin="bevel" stroke-miterlimit="10" d="M158.867,65.938l-2.25,1.5"/>
	<path fill="none" stroke="#000000" stroke-linejoin="bevel" stroke-miterlimit="10" d="M155.148,55.52h-2.25"/>
	<path stroke="#000000" stroke-linejoin="bevel" stroke-miterlimit="10" d="M164.313,68.488h6.75v3h-6.75V68.488z"/>
	<path fill="none" stroke="#FFFFFF" stroke-width="0.75" stroke-linejoin="bevel" stroke-miterlimit="10" d="M164.879,68.969h6v2.25
		h-6V68.969z"/>
	<path fill="#FFFFFF" fill-opacity="0.7255" d="M175.305,63.164c7.5-11.25-0.973-21-0.973-21c6.223,2.25,9.965,8.504,9.965,15.379
		c0.008,9.371-7.438,16.762-16.605,16.762c-3.637,0.109-6.922-1.156-9.637-3.113c0.75,0.223,10.152,2.762,17.41-8.387
		L175.305,63.164z"/>
	
		<linearGradient id="SVGID_33_" gradientUnits="userSpaceOnUse" x1="223.2266" y1="201.3027" x2="223.2266" y2="180.3027" gradientTransform="matrix(0.75 0 0 -0.75 -22.3102 343.2003)">
		<stop  offset="0" style="stop-color:#C2B39F"/>
		<stop  offset="0.15" style="stop-color:#FDEAD3"/>
		<stop  offset="0.25" style="stop-color:#FEF3E7"/>
		<stop  offset="0.52" style="stop-color:#DECCB6"/>
		<stop  offset="0.69" style="stop-color:#C5B5A2"/>
		<stop  offset="0.8" style="stop-color:#BAAB98"/>
		<stop  offset="0.97" style="stop-color:#B0A190"/>
		<stop  offset="1" style="stop-color:#CABAA5"/>
	</linearGradient>
	<path fill="url(#SVGID_33_)" d="M129.359,207.973h31.5v-15.75h-31.5V207.973z"/>
	
		<linearGradient id="SVGID_34_" gradientUnits="userSpaceOnUse" x1="210.7246" y1="201.3047" x2="210.7246" y2="153.3047" gradientTransform="matrix(0.75 0 0 -0.75 22.6595 333.2872)">
		<stop  offset="0" style="stop-color:#C4AA84"/>
		<stop  offset="0.15" style="stop-color:#FFE0B3"/>
		<stop  offset="0.25" style="stop-color:#FFEED7"/>
		<stop  offset="0.52" style="stop-color:#DFC297"/>
		<stop  offset="0.69" style="stop-color:#C7AD86"/>
		<stop  offset="0.8" style="stop-color:#BCA37E"/>
		<stop  offset="0.97" style="stop-color:#B19A77"/>
		<stop  offset="1" style="stop-color:#CBB189"/>
	</linearGradient>
	<path fill="url(#SVGID_34_)" d="M174.328,218.309h12.75v-36h-12.75V218.309z"/>
	
		<linearGradient id="SVGID_35_" gradientUnits="userSpaceOnUse" x1="219.7275" y1="201.3037" x2="219.7275" y2="159.3037" gradientTransform="matrix(0.75 0 0 -0.75 -3.233 335.4044)">
		<stop  offset="0" style="stop-color:#C2B39F"/>
		<stop  offset="0.15" style="stop-color:#FDEAD3"/>
		<stop  offset="0.25" style="stop-color:#FEF3E7"/>
		<stop  offset="0.52" style="stop-color:#DECCB6"/>
		<stop  offset="0.69" style="stop-color:#C5B5A2"/>
		<stop  offset="0.8" style="stop-color:#BAAB98"/>
		<stop  offset="0.97" style="stop-color:#B0A190"/>
		<stop  offset="1" style="stop-color:#CABAA5"/>
	</linearGradient>
	<path fill="url(#SVGID_35_)" d="M148.438,215.926h26.25v-31.5h-26.25V215.926z"/>
	
		<radialGradient id="SVGID_36_" cx="218.8892" cy="184.4116" r="23.7966" gradientTransform="matrix(0.75 0 0 -0.75 196.4911 274.5665)" gradientUnits="userSpaceOnUse">
		<stop  offset="0" style="stop-color:#E5BA7A"/>
		<stop  offset="0.53" style="stop-color:#F1D4B1"/>
		<stop  offset="0.64" style="stop-color:#E0B678"/>
		<stop  offset="0.86" style="stop-color:#E0B678"/>
		<stop  offset="1" style="stop-color:#E0B678"/>
	</radialGradient>
	<path fill="url(#SVGID_36_)" stroke="#EECEA6" stroke-width="0.25" stroke-linejoin="bevel" stroke-miterlimit="10" d="
		M348.16,136.34c0-6.75,5.555-12.75,12.496-12.75c7.004,0,12.574,5.66,12.574,12.664c-0.32,6.836-5.629,12.668-12.574,12.668
		c-7.246,0.168-12.57-5.68-12.57-12.668L348.16,136.34z"/>
	
		<linearGradient id="SVGID_37_" gradientUnits="userSpaceOnUse" x1="211.2231" y1="176.2856" x2="202.0776" y2="176.2856" gradientTransform="matrix(0.75 0 0 -0.75 206.7108 289.34)">
		<stop  offset="0" style="stop-color:#C2B39F"/>
		<stop  offset="0.15" style="stop-color:#FDEAD3"/>
		<stop  offset="0.25" style="stop-color:#FEF3E7"/>
		<stop  offset="0.52" style="stop-color:#DECCB6"/>
		<stop  offset="0.69" style="stop-color:#C5B5A2"/>
		<stop  offset="0.8" style="stop-color:#BAAB98"/>
		<stop  offset="0.97" style="stop-color:#B0A190"/>
		<stop  offset="1" style="stop-color:#CABAA5"/>
	</linearGradient>
	<path fill="url(#SVGID_37_)" d="M365.128,138.363v36c0,0.75-1.039,1.527-2.34,1.527l-2.16-0.027c-1.5,0-2.359-0.566-2.359-1.301
		l0.109-36.199H365.128z"/>
	
		<linearGradient id="SVGID_38_" gradientUnits="userSpaceOnUse" x1="332.8765" y1="466.1079" x2="342.0249" y2="466.1079" gradientTransform="matrix(-0.375 0.6495 0.6495 0.375 166.8225 -267.7313)">
		<stop  offset="0" style="stop-color:#C2B39F"/>
		<stop  offset="0.15" style="stop-color:#FDEAD3"/>
		<stop  offset="0.25" style="stop-color:#FEF3E7"/>
		<stop  offset="0.52" style="stop-color:#DECCB6"/>
		<stop  offset="0.69" style="stop-color:#C5B5A2"/>
		<stop  offset="0.8" style="stop-color:#BAAB98"/>
		<stop  offset="0.97" style="stop-color:#B0A190"/>
		<stop  offset="1" style="stop-color:#CABAA5"/>
	</linearGradient>
	<path fill="url(#SVGID_38_)" d="M357.546,138.586l-31.176-18c-0.648-0.375-0.633-1.527,0.023-2.66l0.93-1.988
		c0.75-1.297,1.855-1.656,2.484-1.289l31.113,18.09L357.546,138.586z"/>
	
		<linearGradient id="SVGID_39_" gradientUnits="userSpaceOnUse" x1="351.1353" y1="434.48" x2="360.2837" y2="434.48" gradientTransform="matrix(0.375 0.6495 -0.6495 0.375 529.905 -267.6796)">
		<stop  offset="0" style="stop-color:#C2B39F"/>
		<stop  offset="0.15" style="stop-color:#FDEAD3"/>
		<stop  offset="0.25" style="stop-color:#FEF3E7"/>
		<stop  offset="0.52" style="stop-color:#DECCB6"/>
		<stop  offset="0.69" style="stop-color:#C5B5A2"/>
		<stop  offset="0.8" style="stop-color:#BAAB98"/>
		<stop  offset="0.97" style="stop-color:#B0A190"/>
		<stop  offset="1" style="stop-color:#CABAA5"/>
	</linearGradient>
	<path fill="url(#SVGID_39_)" d="M366.57,138.637l31.176-18c0.652-0.375,0.633-1.527-0.02-2.66l-0.93-1.988
		c-0.75-1.297-1.855-1.652-2.488-1.289l-31.113,18.09L366.57,138.637z"/>
	
		<linearGradient id="SVGID_40_" gradientUnits="userSpaceOnUse" x1="220.3462" y1="203.833" x2="209.2632" y2="173.3827" gradientTransform="matrix(0.75 0 0 -0.75 199.6337 277.7325)">
		<stop  offset="0" style="stop-color:#C2B39F"/>
		<stop  offset="0.15" style="stop-color:#FDEAD3"/>
		<stop  offset="0.25" style="stop-color:#FEF3E7"/>
		<stop  offset="0.52" style="stop-color:#DECCB6"/>
		<stop  offset="0.69" style="stop-color:#C5B5A2"/>
		<stop  offset="0.8" style="stop-color:#BAAB98"/>
		<stop  offset="0.97" style="stop-color:#B0A190"/>
		<stop  offset="1" style="stop-color:#CABAA5"/>
	</linearGradient>
	<path fill="url(#SVGID_40_)" d="M351.3,136.504c0-5.25,4.168-9.75,9.375-9.75c4.875,0,9.43,4.246,9.43,9.5
		c-0.055,5.5-4.223,9.5-9.43,9.5c-4.875-0.25-9.43-4.258-9.43-9.5L351.3,136.504z"/>
	
		<linearGradient id="SVGID_41_" gradientUnits="userSpaceOnUse" x1="225.9722" y1="204.6411" x2="211.4205" y2="164.6607" gradientTransform="matrix(0.75 0 0 -0.75 52.9413 338.8517)">
		<stop  offset="0" style="stop-color:#C2B39F"/>
		<stop  offset="0.15" style="stop-color:#FDEAD3"/>
		<stop  offset="0.25" style="stop-color:#FEF3E7"/>
		<stop  offset="0.52" style="stop-color:#DECCB6"/>
		<stop  offset="0.69" style="stop-color:#C5B5A2"/>
		<stop  offset="0.8" style="stop-color:#BAAB98"/>
		<stop  offset="0.97" style="stop-color:#B0A190"/>
		<stop  offset="1" style="stop-color:#CABAA5"/>
	</linearGradient>
	<path fill="url(#SVGID_41_)" stroke="#FFDEAD" stroke-linejoin="bevel" stroke-miterlimit="10" d="M204.609,200.625
		c0-7.5,5.473-12.75,12.309-12.75c7.191,0,12.379,5.574,12.379,12.473c0.063,7.027-5.543,12.473-12.379,12.473
		c-7.059-0.195-12.379-5.594-12.379-12.473L204.609,200.625z"/>
	
		<linearGradient id="SVGID_42_" gradientUnits="userSpaceOnUse" x1="332.8745" y1="466.1089" x2="342.0229" y2="466.1089" gradientTransform="matrix(-0.375 0.6495 0.6495 0.375 143.2219 -376.4227)">
		<stop  offset="0" style="stop-color:#C2B39F"/>
		<stop  offset="0.15" style="stop-color:#FDEAD3"/>
		<stop  offset="0.25" style="stop-color:#FEF3E7"/>
		<stop  offset="0.52" style="stop-color:#DECCB6"/>
		<stop  offset="0.69" style="stop-color:#C5B5A2"/>
		<stop  offset="0.8" style="stop-color:#BAAB98"/>
		<stop  offset="0.97" style="stop-color:#B0A190"/>
		<stop  offset="1" style="stop-color:#CABAA5"/>
	</linearGradient>
	<path fill="url(#SVGID_42_)" d="M333.949,29.895l-31.176-18c-0.652-0.375-0.633-1.527,0.02-2.66l0.93-1.988
		c0.75-1.297,1.855-1.656,2.488-1.289l31.113,18.09L333.949,29.895z"/>
	
		<linearGradient id="SVGID_43_" gradientUnits="userSpaceOnUse" x1="351.1323" y1="434.4819" x2="360.2866" y2="434.4819" gradientTransform="matrix(0.375 0.6495 -0.6495 0.375 516.1833 -376.3719)">
		<stop  offset="0" style="stop-color:#C2B39F"/>
		<stop  offset="0.15" style="stop-color:#FDEAD3"/>
		<stop  offset="0.25" style="stop-color:#FEF3E7"/>
		<stop  offset="0.52" style="stop-color:#DECCB6"/>
		<stop  offset="0.69" style="stop-color:#C5B5A2"/>
		<stop  offset="0.8" style="stop-color:#BAAB98"/>
		<stop  offset="0.97" style="stop-color:#B0A190"/>
		<stop  offset="1" style="stop-color:#CABAA5"/>
	</linearGradient>
	<path fill="url(#SVGID_43_)" d="M352.847,29.945l31.18-18c0.648-0.375,0.629-1.527-0.023-2.66l-0.93-1.988
		c-0.75-1.301-1.855-1.656-2.488-1.293l-31.113,18.094L352.847,29.945z"/>
	
		<linearGradient id="SVGID_44_" gradientUnits="userSpaceOnUse" x1="244.2246" y1="184.3037" x2="202.2246" y2="184.3037" gradientTransform="matrix(0.75 0 0 -0.75 175.8895 169.0011)">
		<stop  offset="0" style="stop-color:#C4AA84"/>
		<stop  offset="0.15" style="stop-color:#FFE0B3"/>
		<stop  offset="0.25" style="stop-color:#FFEED7"/>
		<stop  offset="0.52" style="stop-color:#DFC297"/>
		<stop  offset="0.69" style="stop-color:#C7AD86"/>
		<stop  offset="0.8" style="stop-color:#BCA37E"/>
		<stop  offset="0.97" style="stop-color:#B19A77"/>
		<stop  offset="1" style="stop-color:#CBB189"/>
	</linearGradient>
	<path fill="url(#SVGID_44_)" d="M327.558,43.523h31.5v-25.5h-31.5V43.523z"/>
	
		<linearGradient id="SVGID_45_" gradientUnits="userSpaceOnUse" x1="225.9717" y1="204.6421" x2="211.4191" y2="164.6593" gradientTransform="matrix(0.75 0 0 -0.75 99.0126 338.8517)">
		<stop  offset="0" style="stop-color:#C2B39F"/>
		<stop  offset="0.15" style="stop-color:#FDEAD3"/>
		<stop  offset="0.25" style="stop-color:#FEF3E7"/>
		<stop  offset="0.52" style="stop-color:#DECCB6"/>
		<stop  offset="0.69" style="stop-color:#C5B5A2"/>
		<stop  offset="0.8" style="stop-color:#BAAB98"/>
		<stop  offset="0.97" style="stop-color:#B0A190"/>
		<stop  offset="1" style="stop-color:#CABAA5"/>
	</linearGradient>
	<path fill="url(#SVGID_45_)" stroke="#FFDEAD" stroke-linejoin="bevel" stroke-miterlimit="10" d="M250.68,200.625
		c0-7.5,5.473-12.75,12.309-12.75c7.191,0,12.379,5.574,12.379,12.473c0.063,7.027-5.543,12.473-12.379,12.473
		c-7.059-0.195-12.379-5.594-12.379-12.473L250.68,200.625z"/>
	
		<linearGradient id="SVGID_46_" gradientUnits="userSpaceOnUse" x1="225.9741" y1="204.6401" x2="211.4225" y2="164.6598" gradientTransform="matrix(0.75 0 0 -0.75 145.0844 338.8517)">
		<stop  offset="0" style="stop-color:#C2B39F"/>
		<stop  offset="0.15" style="stop-color:#FDEAD3"/>
		<stop  offset="0.25" style="stop-color:#FEF3E7"/>
		<stop  offset="0.52" style="stop-color:#DECCB6"/>
		<stop  offset="0.69" style="stop-color:#C5B5A2"/>
		<stop  offset="0.8" style="stop-color:#BAAB98"/>
		<stop  offset="0.97" style="stop-color:#B0A190"/>
		<stop  offset="1" style="stop-color:#CABAA5"/>
	</linearGradient>
	<path fill="url(#SVGID_46_)" stroke="#FFDEAD" stroke-linejoin="bevel" stroke-miterlimit="10" d="M296.753,200.625
		c0-7.5,5.469-12.75,12.305-12.75c7.195,0,12.383,5.574,12.383,12.473c0.063,7.027-5.543,12.473-12.383,12.473
		c-7.055-0.195-12.379-5.594-12.379-12.473L296.753,200.625z"/>
	
		<linearGradient id="SVGID_47_" gradientUnits="userSpaceOnUse" x1="225.9731" y1="204.6406" x2="211.4211" y2="164.6591" gradientTransform="matrix(0.75 0 0 -0.75 191.1552 338.8517)">
		<stop  offset="0" style="stop-color:#C2B39F"/>
		<stop  offset="0.15" style="stop-color:#FDEAD3"/>
		<stop  offset="0.25" style="stop-color:#FEF3E7"/>
		<stop  offset="0.52" style="stop-color:#DECCB6"/>
		<stop  offset="0.69" style="stop-color:#C5B5A2"/>
		<stop  offset="0.8" style="stop-color:#BAAB98"/>
		<stop  offset="0.97" style="stop-color:#B0A190"/>
		<stop  offset="1" style="stop-color:#CABAA5"/>
	</linearGradient>
	<path fill="url(#SVGID_47_)" stroke="#FFDEAD" stroke-linejoin="bevel" stroke-miterlimit="10" d="M342.824,200.625
		c0-7.5,5.469-12.75,12.309-12.75c7.191,0,12.379,5.574,12.379,12.473c0.063,7.027-5.543,12.473-12.379,12.473
		c-7.059-0.195-12.383-5.594-12.383-12.473L342.824,200.625z"/>
	
		<linearGradient id="SVGID_48_" gradientUnits="userSpaceOnUse" x1="225.9707" y1="204.6426" x2="211.4186" y2="164.6611" gradientTransform="matrix(0.75 0 0 -0.75 237.2274 338.8517)">
		<stop  offset="0" style="stop-color:#C2B39F"/>
		<stop  offset="0.15" style="stop-color:#FDEAD3"/>
		<stop  offset="0.25" style="stop-color:#FEF3E7"/>
		<stop  offset="0.52" style="stop-color:#DECCB6"/>
		<stop  offset="0.69" style="stop-color:#C5B5A2"/>
		<stop  offset="0.8" style="stop-color:#BAAB98"/>
		<stop  offset="0.97" style="stop-color:#B0A190"/>
		<stop  offset="1" style="stop-color:#CABAA5"/>
	</linearGradient>
	<path fill="url(#SVGID_48_)" stroke="#FFDEAD" stroke-linejoin="bevel" stroke-miterlimit="10" d="M388.894,200.625
		c0-7.5,5.473-12.75,12.309-12.75c7.191,0,12.379,5.574,12.379,12.473c0.063,7.027-5.543,12.473-12.379,12.473
		c-7.059-0.195-12.379-5.594-12.379-12.473L388.894,200.625z"/>
</g>
</svg>
