<?xml version="1.0" encoding="utf-8"?>
<!-- Generator: Adobe Illustrator 16.0.0, SVG Export Plug-In . SVG Version: 6.00 Build 0)  -->
<!DOCTYPE svg PUBLIC "-//W3C//DTD SVG 1.1//EN" "http://www.w3.org/Graphics/SVG/1.1/DTD/svg11.dtd">
<svg preserveAspectRatio="none" version="1.1" id="图层_1" xmlns="http://www.w3.org/2000/svg" xmlns:xlink="http://www.w3.org/1999/xlink" x="0px" y="0px"
	 width="560.5px" height="415.14px" viewBox="3.223 148.441 560.5 415.14" enable-background="new 3.223 148.441 560.5 415.14"
	 xml:space="preserve">
<g id="surface716">
	<path fill="#717070" stroke="#9E9F9F" stroke-linejoin="bevel" stroke-miterlimit="10" d="M3.723,422.546h559.5v-225H3.723V422.546
		z"/>
	
		<linearGradient id="SVGID_1_" gradientUnits="userSpaceOnUse" x1="268.4775" y1="180.3027" x2="202.2217" y2="180.3027" gradientTransform="matrix(0.75 0 0 -0.75 181.7899 392.1212)">
		<stop  offset="0" style="stop-color:#B5B5B5"/>
		<stop  offset="0.01" style="stop-color:#FFFFFF"/>
		<stop  offset="0.02" style="stop-color:#EBEBEB"/>
		<stop  offset="0.64" style="stop-color:#E7E7E7"/>
		<stop  offset="0.99" style="stop-color:#E2E2E2"/>
		<stop  offset="1" style="stop-color:#A8A8A8"/>
	</linearGradient>
	<path fill="url(#SVGID_1_)" d="M333.457,241.145h49.5c0,0,0.191,2.34,0.191,5.227l-0.191,21.023c0,3,0.102,5.113-0.008,5.113
		l-49.492,0.137c0,0,0-2.48,0-5.367v-20.883c0-3,0.09-5.25,0.199-5.25H333.457z"/>
	
		<linearGradient id="SVGID_2_" gradientUnits="userSpaceOnUse" x1="491.2241" y1="154.0767" x2="202.2241" y2="154.0766" gradientTransform="matrix(0.75 0 0 -0.75 169.8192 421.1857)">
		<stop  offset="0" style="stop-color:#394756"/>
		<stop  offset="0.01" style="stop-color:#8E97A2"/>
		<stop  offset="0.02" style="stop-color:#4D5E72"/>
		<stop  offset="0.64" style="stop-color:#4B5D70"/>
		<stop  offset="0.99" style="stop-color:#495A6D"/>
		<stop  offset="1" style="stop-color:#34414F"/>
	</linearGradient>
	<path fill="url(#SVGID_2_)" d="M322.238,270.207h215.25c0,0,0.723,0.406,0.723,0.91l0.027,68.839c0,0.75-0.434,1.094-0.934,1.094
		l-215.066-0.344c0,0-0.75-0.063-0.75-0.563v-69.187c0,0,0.406-0.75,0.906-0.75H322.238z"/>
	
		<linearGradient id="SVGID_3_" gradientUnits="userSpaceOnUse" x1="498.5044" y1="197.6729" x2="202.2231" y2="197.6728" gradientTransform="matrix(0.75 0 0 -0.75 161.4491 432.0841)">
		<stop  offset="0" style="stop-color:#B5B5B5"/>
		<stop  offset="0.01" style="stop-color:#FFFFFF"/>
		<stop  offset="0.02" style="stop-color:#EBEBEB"/>
		<stop  offset="0.64" style="stop-color:#E7E7E7"/>
		<stop  offset="0.99" style="stop-color:#E2E2E2"/>
		<stop  offset="1" style="stop-color:#A8A8A8"/>
	</linearGradient>
	<path fill="url(#SVGID_3_)" d="M313.867,281.105h220.5c0.75,0,0.961,0.41,0.961,0.91l-0.211,3.589c0,0.75-0.184,0.949-0.672,0.949
		l-220.578-0.199c0,0-0.75-0.207-0.75-0.707v-3.792c0,0,0.395-0.75,0.883-0.75H313.867z"/>
	
		<linearGradient id="SVGID_4_" gradientUnits="userSpaceOnUse" x1="498.5044" y1="197.6743" x2="202.2231" y2="197.6743" gradientTransform="matrix(0.75 0 0 -0.75 161.4491 443.8927)">
		<stop  offset="0" style="stop-color:#B5B5B5"/>
		<stop  offset="0.01" style="stop-color:#FFFFFF"/>
		<stop  offset="0.02" style="stop-color:#EBEBEB"/>
		<stop  offset="0.64" style="stop-color:#E7E7E7"/>
		<stop  offset="0.99" style="stop-color:#E2E2E2"/>
		<stop  offset="1" style="stop-color:#A8A8A8"/>
	</linearGradient>
	<path fill="url(#SVGID_4_)" d="M313.867,292.914h220.5c0.75,0,0.961,0.406,0.961,0.91l-0.211,3.59c0,0.75-0.184,0.949-0.672,0.949
		l-220.578-0.199c0,0-0.75-0.207-0.75-0.707v-3.793c0,0,0.395-0.75,0.883-0.75H313.867z"/>
	
		<linearGradient id="SVGID_5_" gradientUnits="userSpaceOnUse" x1="498.5044" y1="189.1958" x2="202.2231" y2="189.1958" gradientTransform="matrix(0.75 0 0 -0.75 161.4491 462.965)">
		<stop  offset="0" style="stop-color:#B5B5B5"/>
		<stop  offset="0.01" style="stop-color:#FFFFFF"/>
		<stop  offset="0.02" style="stop-color:#EBEBEB"/>
		<stop  offset="0.64" style="stop-color:#E7E7E7"/>
		<stop  offset="0.99" style="stop-color:#E2E2E2"/>
		<stop  offset="1" style="stop-color:#A8A8A8"/>
	</linearGradient>
	<path fill="url(#SVGID_5_)" d="M313.867,311.988h220.5c0.75,0,0.961,1.355,0.961,3.027l-0.211,11.973
		c0,1.5-0.184,3.164-0.672,3.164l-220.578-0.164c0,0-0.75-1.191-0.75-2.863v-12.137c0-1.5,0.395-3,0.883-3H313.867z"/>
	
		<linearGradient id="SVGID_6_" gradientUnits="userSpaceOnUse" x1="900.2261" y1="124.8071" x2="202.2261" y2="124.8071" gradientTransform="matrix(0.75 0 0 -0.75 -129.8112 599.8107)">
		<stop  offset="0" style="stop-color:#394756"/>
		<stop  offset="0.01" style="stop-color:#8E97A2"/>
		<stop  offset="0.02" style="stop-color:#4D5E72"/>
		<stop  offset="0.64" style="stop-color:#4B5D70"/>
		<stop  offset="0.99" style="stop-color:#495A6D"/>
		<stop  offset="1" style="stop-color:#34414F"/>
	</linearGradient>
	<path fill="url(#SVGID_6_)" d="M21.859,448.832h523.5v114.75h-523.5V448.832z"/>
	
		<linearGradient id="SVGID_7_" gradientUnits="userSpaceOnUse" x1="948.2251" y1="183.3062" x2="202.2256" y2="183.3061" gradientTransform="matrix(0.75 0 0 -0.75 -147.9469 573.7745)">
		<stop  offset="0" style="stop-color:#A8A8A8"/>
		<stop  offset="0.01" style="stop-color:#F2F2F2"/>
		<stop  offset="0.02" style="stop-color:#DBDBDB"/>
		<stop  offset="0.64" style="stop-color:#D8D8D8"/>
		<stop  offset="0.99" style="stop-color:#D3D3D3"/>
		<stop  offset="1" style="stop-color:#9C9C9C"/>
	</linearGradient>
	<path fill="url(#SVGID_7_)" d="M3.723,449.796h559.5v-27H3.723V449.796z"/>
	
		<linearGradient id="SVGID_8_" gradientUnits="userSpaceOnUse" x1="206.2236" y1="201.3037" x2="206.2236" y2="131.3047" gradientTransform="matrix(0.75 0 0 -0.75 39.6058 400.2198)">
		<stop  offset="0" style="stop-color:#2B2827"/>
		<stop  offset="0.15" style="stop-color:#5B5858"/>
		<stop  offset="0.25" style="stop-color:#B8B7B7"/>
		<stop  offset="0.52" style="stop-color:#353130"/>
		<stop  offset="0.69" style="stop-color:#2E2A29"/>
		<stop  offset="0.8" style="stop-color:#2B2726"/>
		<stop  offset="0.92" style="stop-color:#282424"/>
		<stop  offset="1" style="stop-color:#2F2B2B"/>
	</linearGradient>
	<path fill="url(#SVGID_8_)" d="M191.273,249.242h6v52.5h-6V249.242z"/>
	
		<linearGradient id="SVGID_9_" gradientUnits="userSpaceOnUse" x1="224.2266" y1="201.3027" x2="224.2266" y2="117.3037" gradientTransform="matrix(0.75 0 0 -0.75 45.8929 394.9972)">
		<stop  offset="0" style="stop-color:#BDBDBD"/>
		<stop  offset="0.15" style="stop-color:#FFFFFF"/>
		<stop  offset="0.25" style="stop-color:#FFFFFF"/>
		<stop  offset="0.52" style="stop-color:#DFDFDF"/>
		<stop  offset="0.69" style="stop-color:#C7C7C7"/>
		<stop  offset="0.8" style="stop-color:#BCBCBC"/>
		<stop  offset="0.92" style="stop-color:#B1B1B1"/>
		<stop  offset="1" style="stop-color:#CBCBCB"/>
	</linearGradient>
	<path fill="url(#SVGID_9_)" d="M197.563,244.02h33v63h-33V244.02z"/>
	
		<linearGradient id="SVGID_10_" gradientUnits="userSpaceOnUse" x1="206.2241" y1="201.3027" x2="206.2241" y2="172.3037" gradientTransform="matrix(0.75 0 0 -0.75 79.4139 415.34)">
		<stop  offset="0" style="stop-color:#A3A3A4"/>
		<stop  offset="0.15" style="stop-color:#DEDEDF"/>
		<stop  offset="0.25" style="stop-color:#EDEDED"/>
		<stop  offset="0.52" style="stop-color:#C0C0C1"/>
		<stop  offset="0.69" style="stop-color:#ABABAC"/>
		<stop  offset="0.8" style="stop-color:#A1A1A2"/>
		<stop  offset="0.92" style="stop-color:#989899"/>
		<stop  offset="1" style="stop-color:#AFAFB0"/>
	</linearGradient>
	<path fill="url(#SVGID_10_)" d="M231.082,264.363h6v21.75h-6V264.363z"/>
	
		<linearGradient id="SVGID_11_" gradientUnits="userSpaceOnUse" x1="209.4302" y1="201.3057" x2="209.4302" y2="151.9883" gradientTransform="matrix(0.75 0 0 -0.75 85.8295 407.8341)">
		<stop  offset="0" style="stop-color:#BDBDBD"/>
		<stop  offset="0.15" style="stop-color:#FFFFFF"/>
		<stop  offset="0.25" style="stop-color:#FFFFFF"/>
		<stop  offset="0.52" style="stop-color:#DFDFDF"/>
		<stop  offset="0.69" style="stop-color:#C7C7C7"/>
		<stop  offset="0.8" style="stop-color:#BCBCBC"/>
		<stop  offset="0.92" style="stop-color:#B1B1B1"/>
		<stop  offset="1" style="stop-color:#CBCBCB"/>
	</linearGradient>
	<path fill="url(#SVGID_11_)" d="M238.25,256.855h9c0.75,0,1.094,0.488,1.094,1.09L248,292.855c0,0.75-0.063,0.988-0.566,0.988
		l-9.184-0.238c-0.75,0-0.789-0.25-0.789-0.852l0.039-35.148c0,0,0.367-0.75,0.867-0.75H238.25z"/>
	
		<linearGradient id="SVGID_12_" gradientUnits="userSpaceOnUse" x1="453.2241" y1="51.3027" x2="202.2241" y2="51.3027" gradientTransform="matrix(0.75 0 0 -0.75 -148.3405 348.5236)">
		<stop  offset="0" style="stop-color:#B5B5B5"/>
		<stop  offset="0.01" style="stop-color:#FFFFFF"/>
		<stop  offset="0.02" style="stop-color:#EBEBEB"/>
		<stop  offset="0.64" style="stop-color:#E7E7E7"/>
		<stop  offset="0.99" style="stop-color:#E2E2E2"/>
		<stop  offset="1" style="stop-color:#A8A8A8"/>
	</linearGradient>
	<path fill="url(#SVGID_12_)" d="M3.328,422.546h188.25v-225H3.328V422.546z"/>
	
		<linearGradient id="SVGID_13_" gradientUnits="userSpaceOnUse" x1="453.2231" y1="136.3037" x2="202.2227" y2="136.3037" gradientTransform="matrix(0.75 0 0 -0.75 -148.3395 476.59)">
		<stop  offset="0" style="stop-color:#9B9B9C"/>
		<stop  offset="0.01" style="stop-color:#E4E4E4"/>
		<stop  offset="0.02" style="stop-color:#CBCBCB"/>
		<stop  offset="0.64" style="stop-color:#C7C7C8"/>
		<stop  offset="0.99" style="stop-color:#C3C3C4"/>
		<stop  offset="1" style="stop-color:#909091"/>
	</linearGradient>
	<path fill="url(#SVGID_13_)" d="M3.328,423.113h188.25v-97.5H3.328V423.113z"/>
	
		<linearGradient id="SVGID_14_" gradientUnits="userSpaceOnUse" x1="450.7271" y1="201.3057" x2="450.7271" y2="126.3047" gradientTransform="matrix(0.75 0 0 -0.75 39.243 491.1222)">
		<stop  offset="0" style="stop-color:#9B9B9C"/>
		<stop  offset="0.01" style="stop-color:#E4E4E4"/>
		<stop  offset="0.02" style="stop-color:#CBCBCB"/>
		<stop  offset="0.64" style="stop-color:#C7C7C8"/>
		<stop  offset="0.99" style="stop-color:#C3C3C4"/>
		<stop  offset="1" style="stop-color:#909091"/>
	</linearGradient>
	<path fill="url(#SVGID_14_)" d="M190.914,340.144h372.75v56.25h-372.75V340.144z"/>
	
		<linearGradient id="SVGID_15_" gradientUnits="userSpaceOnUse" x1="699.2271" y1="192.8052" x2="202.2271" y2="192.8051" gradientTransform="matrix(0.75 0 0 -0.75 39.243 512.6173)">
		<stop  offset="0" style="stop-color:#B5B5B5"/>
		<stop  offset="0.01" style="stop-color:#FFFFFF"/>
		<stop  offset="0.02" style="stop-color:#EBEBEB"/>
		<stop  offset="0.64" style="stop-color:#E7E7E7"/>
		<stop  offset="0.99" style="stop-color:#E2E2E2"/>
		<stop  offset="1" style="stop-color:#A8A8A8"/>
	</linearGradient>
	<path fill="url(#SVGID_15_)" d="M190.914,361.64h372.75v12.75h-372.75V361.64z"/>
	
		<linearGradient id="SVGID_16_" gradientUnits="userSpaceOnUse" x1="699.2271" y1="195.8062" x2="202.2271" y2="195.8061" gradientTransform="matrix(0.75 0 0 -0.75 39.243 491.1222)">
		<stop  offset="0" style="stop-color:#B5B5B5"/>
		<stop  offset="0.01" style="stop-color:#FFFFFF"/>
		<stop  offset="0.02" style="stop-color:#EBEBEB"/>
		<stop  offset="0.64" style="stop-color:#E7E7E7"/>
		<stop  offset="0.99" style="stop-color:#E2E2E2"/>
		<stop  offset="1" style="stop-color:#A8A8A8"/>
	</linearGradient>
	<path fill="url(#SVGID_16_)" d="M190.914,340.144h372.75v8.25h-372.75V340.144z"/>
	
		<linearGradient id="SVGID_17_" gradientUnits="userSpaceOnUse" x1="699.2271" y1="198.3052" x2="202.2271" y2="198.3051" gradientTransform="matrix(0.75 0 0 -0.75 39.243 499.7198)">
		<stop  offset="0" style="stop-color:#394756"/>
		<stop  offset="0.01" style="stop-color:#8E97A2"/>
		<stop  offset="0.02" style="stop-color:#4D5E72"/>
		<stop  offset="0.64" style="stop-color:#4B5D70"/>
		<stop  offset="0.99" style="stop-color:#495A6D"/>
		<stop  offset="1" style="stop-color:#34414F"/>
	</linearGradient>
	<path fill="url(#SVGID_17_)" d="M190.914,348.742h372.75v4.5h-372.75V348.742z"/>
	
		<linearGradient id="SVGID_18_" gradientUnits="userSpaceOnUse" x1="699.2212" y1="195.3032" x2="202.2227" y2="195.3032" gradientTransform="matrix(0.75 0 0 -0.75 38.4574 348.5236)">
		<stop  offset="0" style="stop-color:#B5B5B5"/>
		<stop  offset="0.01" style="stop-color:#FFFFFF"/>
		<stop  offset="0.02" style="stop-color:#EBEBEB"/>
		<stop  offset="0.64" style="stop-color:#E7E7E7"/>
		<stop  offset="0.99" style="stop-color:#E2E2E2"/>
		<stop  offset="1" style="stop-color:#A8A8A8"/>
	</linearGradient>
	<path fill="url(#SVGID_18_)" d="M190.125,197.547h372.75v9h-372.75V197.547z"/>
	
		<linearGradient id="SVGID_19_" gradientUnits="userSpaceOnUse" x1="699.2212" y1="198.3062" x2="202.2227" y2="198.3061" gradientTransform="matrix(0.75 0 0 -0.75 38.4574 531.2365)">
		<stop  offset="0" style="stop-color:#394756"/>
		<stop  offset="0.01" style="stop-color:#8E97A2"/>
		<stop  offset="0.02" style="stop-color:#4D5E72"/>
		<stop  offset="0.64" style="stop-color:#4B5D70"/>
		<stop  offset="0.99" style="stop-color:#495A6D"/>
		<stop  offset="1" style="stop-color:#34414F"/>
	</linearGradient>
	<path fill="url(#SVGID_19_)" d="M190.125,380.257h372.75v4.5h-372.75V380.257z"/>
	
		<linearGradient id="SVGID_20_" gradientUnits="userSpaceOnUse" x1="360.6089" y1="472.1284" x2="202.2231" y2="472.1284" gradientTransform="matrix(0.75 0 0 0.75 -115.8165 -134.7794)">
		<stop  offset="0" style="stop-color:#667179"/>
		<stop  offset="0.01" style="stop-color:#AFBAC1"/>
		<stop  offset="0.02" style="stop-color:#86959F"/>
		<stop  offset="0.64" style="stop-color:#84929C"/>
		<stop  offset="0.99" style="stop-color:#818F99"/>
		<stop  offset="1" style="stop-color:#5E6970"/>
	</linearGradient>
	<path fill="url(#SVGID_20_)" d="M36.602,290.191h117c0.75,0,1.039-0.41,1.039-0.91l-0.289-140.089c0,0-0.117-0.691-0.617-0.691
		l-117.133-0.059c0,0-0.75,0.465-0.75,0.969v140.031c0,0,0.406,0.75,0.906,0.75H36.602z"/>
	
		<linearGradient id="SVGID_21_" gradientUnits="userSpaceOnUse" x1="360.2231" y1="193.1289" x2="202.2231" y2="193.1289" gradientTransform="matrix(0.75 0 0 -0.75 -114.9098 428.9064)">
		<stop  offset="0" style="stop-color:#A8A8A8"/>
		<stop  offset="0.01" style="stop-color:#F2F2F2"/>
		<stop  offset="0.02" style="stop-color:#DBDBDB"/>
		<stop  offset="0.64" style="stop-color:#D8D8D8"/>
		<stop  offset="0.99" style="stop-color:#D3D3D3"/>
		<stop  offset="1" style="stop-color:#9C9C9C"/>
	</linearGradient>
	<path fill="url(#SVGID_21_)" d="M155.258,277.93v11.25c0,0.75-0.66,1.012-1.16,1.012l-116.59-0.262c0,0-0.75-0.148-0.75-0.648
		V277.93H155.258z"/>
	
		<linearGradient id="SVGID_22_" gradientUnits="userSpaceOnUse" x1="360.2231" y1="558.4517" x2="202.2236" y2="558.4517" gradientTransform="matrix(0.75 0 0 0.75 -115.59 -264.2072)">
		<stop  offset="0" style="stop-color:#A8A8A8"/>
		<stop  offset="0.01" style="stop-color:#F2F2F2"/>
		<stop  offset="0.02" style="stop-color:#DBDBDB"/>
		<stop  offset="0.64" style="stop-color:#D8D8D8"/>
		<stop  offset="0.99" style="stop-color:#D3D3D3"/>
		<stop  offset="1" style="stop-color:#9C9C9C"/>
	</linearGradient>
	<path fill="url(#SVGID_22_)" d="M154.578,160.762v-11.25c0-0.75-0.66-1.012-1.16-1.012l-116.59,0.262c0,0-0.75,0.145-0.75,0.648
		v11.352H154.578z"/>
	<path fill="#595757" stroke="#595757" stroke-width="0.25" stroke-linejoin="bevel" stroke-miterlimit="10" d="M48.207,176.656h48
		c0,0,0.809,0.445,0.809,0.992l-0.059,44.008c0,0-0.383,0.668-0.934,0.668l-47.816,0.082c0,0-0.75-0.527-0.75-1.074v-43.926
		c0,0,0.445-0.75,0.992-0.75H48.207z"/>
	<path fill="#FDE9D0" fill-opacity="0.8627" d="M108.945,183.621h35.25c0,0,0.609,0.398,0.609,0.895l0.141,39.605
		c0,0.75-0.469,0.801-0.875,0.801l-35.125-0.051c-0.75,0-0.75-0.352-0.75-0.848v-39.652c0,0,0.328-0.75,0.734-0.75H108.945z"/>
	
		<linearGradient id="SVGID_23_" gradientUnits="userSpaceOnUse" x1="217.2271" y1="194.8037" x2="202.2271" y2="194.8037" gradientTransform="matrix(0.75 0 0 -0.75 -79.7526 410.4532)">
		<stop  offset="0" style="stop-color:#525151"/>
		<stop  offset="0.15" style="stop-color:#807F7F"/>
		<stop  offset="0.25" style="stop-color:#C2C2C2"/>
		<stop  offset="0.52" style="stop-color:#626161"/>
		<stop  offset="0.69" style="stop-color:#565656"/>
		<stop  offset="0.8" style="stop-color:#515050"/>
		<stop  offset="0.92" style="stop-color:#4C4B4B"/>
		<stop  offset="1" style="stop-color:#595858"/>
	</linearGradient>
	<path fill="url(#SVGID_23_)" d="M80.168,259.477l3,5.25l-3,4.5h-5.25l-3-4.5l3-5.25H80.168z"/>
	<path fill="#717070" d="M74.445,264.379c0-1.5,1.441-3.016,3.254-3.016c1.996,0.016,3.281,1.473,3.281,3.285
		c0.215,1.98-1.469,3.281-3.281,3.281c-1.754,0.199-3.281-1.469-3.281-3.281L74.445,264.379z"/>
	
		<linearGradient id="SVGID_24_" gradientUnits="userSpaceOnUse" x1="217.2275" y1="194.8037" x2="202.2275" y2="194.8037" gradientTransform="matrix(0.75 0 0 -0.75 -40.3195 410.4532)">
		<stop  offset="0" style="stop-color:#525151"/>
		<stop  offset="0.15" style="stop-color:#807F7F"/>
		<stop  offset="0.25" style="stop-color:#C2C2C2"/>
		<stop  offset="0.52" style="stop-color:#626161"/>
		<stop  offset="0.69" style="stop-color:#565656"/>
		<stop  offset="0.8" style="stop-color:#515050"/>
		<stop  offset="0.92" style="stop-color:#4C4B4B"/>
		<stop  offset="1" style="stop-color:#595858"/>
	</linearGradient>
	<path fill="url(#SVGID_24_)" d="M119.602,259.477l3,5.25l-3,4.5h-5.25l-3-4.5l3-5.25H119.602z"/>
	<path fill="#717070" d="M113.879,264.379c0-1.5,1.441-3.016,3.254-3.016c1.996,0.016,3.281,1.473,3.281,3.285
		c0.215,1.98-1.469,3.281-3.281,3.281c-1.754,0.199-3.281-1.469-3.281-3.281L113.879,264.379z"/>
	
		<linearGradient id="SVGID_25_" gradientUnits="userSpaceOnUse" x1="453.2222" y1="51.3027" x2="202.2222" y2="51.3027" gradientTransform="matrix(0.75 0 0 -0.75 198.9569 348.5236)">
		<stop  offset="0" style="stop-color:#B5B5B5"/>
		<stop  offset="0.01" style="stop-color:#FFFFFF"/>
		<stop  offset="0.02" style="stop-color:#EBEBEB"/>
		<stop  offset="0.64" style="stop-color:#E7E7E7"/>
		<stop  offset="0.99" style="stop-color:#E2E2E2"/>
		<stop  offset="1" style="stop-color:#A8A8A8"/>
	</linearGradient>
	<path fill="url(#SVGID_25_)" d="M350.625,422.546h188.25v-225h-188.25V422.546z"/>
	
		<linearGradient id="SVGID_26_" gradientUnits="userSpaceOnUse" x1="453.2222" y1="136.3037" x2="202.2222" y2="136.3037" gradientTransform="matrix(0.75 0 0 -0.75 198.9569 476.59)">
		<stop  offset="0" style="stop-color:#9B9B9C"/>
		<stop  offset="0.01" style="stop-color:#E4E4E4"/>
		<stop  offset="0.02" style="stop-color:#CBCBCB"/>
		<stop  offset="0.64" style="stop-color:#C7C7C8"/>
		<stop  offset="0.99" style="stop-color:#C3C3C4"/>
		<stop  offset="1" style="stop-color:#909091"/>
	</linearGradient>
	<path fill="url(#SVGID_26_)" d="M350.625,423.113h188.25v-97.5h-188.25V423.113z"/>
	<path fill="#595757" stroke="#595757" stroke-width="0.25" stroke-linejoin="bevel" stroke-miterlimit="10" d="M388.839,218.363
		h30.75c0,0,0.543,0.34,0.543,0.762l0.207,17.988c0,0.75-0.563,1.039-1.008,1.039l-30.492-0.289c-0.75,0-0.75-0.051-0.75-0.469
		v-18.281c0-0.75,0.355-0.75,0.801-0.75H388.839z"/>
	<path fill="#595757" stroke="#595757" stroke-width="0.25" stroke-linejoin="bevel" stroke-miterlimit="10" d="M429.484,218.363
		h30.75c0,0,0.543,0.34,0.543,0.762l0.207,17.988c0,0.75-0.563,1.039-1.008,1.039l-30.492-0.289c-0.75,0-0.75-0.051-0.75-0.469
		v-18.281c0-0.75,0.355-0.75,0.801-0.75H429.484z"/>
	<path fill="#595757" stroke="#595757" stroke-width="0.25" stroke-linejoin="bevel" stroke-miterlimit="10" d="M469.753,218.363
		h30.75c0,0,0.547,0.34,0.547,0.762l0.203,17.988c0,0.75-0.563,1.039-1.004,1.039l-30.496-0.289c-0.75,0-0.75-0.051-0.75-0.469
		v-18.281c0-0.75,0.359-0.75,0.801-0.75H469.753z"/>
	<path fill="#595757" stroke="#595757" stroke-width="0.25" stroke-linejoin="bevel" stroke-miterlimit="10" d="M388.839,252.082
		h30.75c0,0,0.543,0.34,0.543,0.762l0.207,17.988c0,0.75-0.563,1.039-1.008,1.039l-30.492-0.289c-0.75,0-0.75-0.051-0.75-0.469
		v-18.281c0-0.75,0.355-0.75,0.801-0.75H388.839z"/>
	<path fill="#595757" stroke="#595757" stroke-width="0.25" stroke-linejoin="bevel" stroke-miterlimit="10" d="M429.484,252.082
		h30.75c0,0,0.543,0.34,0.543,0.762l0.207,17.988c0,0.75-0.563,1.039-1.008,1.039l-30.492-0.289c-0.75,0-0.75-0.051-0.75-0.469
		v-18.281c0-0.75,0.359-0.75,0.801-0.75H429.484z"/>
	<path fill="#595757" stroke="#595757" stroke-width="0.25" stroke-linejoin="bevel" stroke-miterlimit="10" d="M469.753,252.082
		h30.75c0,0,0.547,0.34,0.547,0.762l0.203,17.988c0,0.75-0.563,1.039-1.004,1.039l-30.496-0.289c-0.75,0-0.75-0.051-0.75-0.469
		v-18.281c0-0.75,0.359-0.75,0.801-0.75H469.753z"/>
	<path fill="#595757" stroke="#595757" stroke-width="0.25" stroke-linejoin="bevel" stroke-miterlimit="10" d="M388.839,285.703
		h30.75c0,0,0.543,0.34,0.543,0.762l0.207,17.988c0,0.75-0.563,1.039-1.008,1.039l-30.492-0.289c-0.75,0-0.75-0.051-0.75-0.469
		v-18.281c0-0.75,0.355-0.75,0.801-0.75H388.839z"/>
	<path fill="#595757" stroke="#595757" stroke-width="0.25" stroke-linejoin="bevel" stroke-miterlimit="10" d="M429.484,285.703
		h30.75c0,0,0.543,0.34,0.543,0.762l0.207,17.988c0,0.75-0.563,1.039-1.008,1.039l-30.492-0.289c-0.75,0-0.75-0.051-0.75-0.469
		v-18.281c0-0.75,0.359-0.75,0.801-0.75H429.484z"/>
	<path fill="#595757" stroke="#595757" stroke-width="0.25" stroke-linejoin="bevel" stroke-miterlimit="10" d="M469.753,285.703
		h30.75c0,0,0.547,0.34,0.547,0.762l0.203,17.988c0,0.75-0.563,1.039-1.004,1.039l-30.496-0.289c-0.75,0-0.75-0.051-0.75-0.469
		v-18.281c0-0.75,0.359-0.75,0.801-0.75H469.753z"/>
	<path fill="#CFEBF6" stroke="#CFEBF6" stroke-width="0.25" stroke-linejoin="bevel" stroke-miterlimit="10" d="M390.507,219.395h27
		c0.75,0,0.957,0.305,0.957,0.68l-0.207,16.57c0,0-0.113,0.477-0.512,0.477l-27.238,0.273c-0.75,0-0.75-0.578-0.75-0.953v-16.297
		c0-0.75,0.32-0.75,0.719-0.75H390.507z"/>
	<path fill="#CFEBF6" stroke="#CFEBF6" stroke-width="0.25" stroke-linejoin="bevel" stroke-miterlimit="10" d="M431.152,219.395h27
		c0.75,0,0.957,0.305,0.957,0.68l-0.207,16.57c0,0-0.113,0.477-0.512,0.477l-27.238,0.273c-0.75,0-0.75-0.578-0.75-0.953v-16.297
		c0-0.75,0.32-0.75,0.719-0.75H431.152z"/>
	<path fill="#CFEBF6" stroke="#CFEBF6" stroke-width="0.25" stroke-linejoin="bevel" stroke-miterlimit="10" d="M471.425,219.395h27
		c0.75,0,0.953,0.305,0.953,0.68l-0.203,16.57c0,0-0.117,0.477-0.512,0.477l-27.238,0.273c-0.75,0-0.75-0.578-0.75-0.953v-16.297
		c0-0.75,0.32-0.75,0.715-0.75H471.425z"/>
	<path fill="#CFEBF6" stroke="#CFEBF6" stroke-width="0.25" stroke-linejoin="bevel" stroke-miterlimit="10" d="M471.425,253.113h27
		c0.75,0,0.953,0.305,0.953,0.68l-0.203,16.57c0,0-0.117,0.477-0.512,0.477l-27.238,0.273c-0.75,0-0.75-0.578-0.75-0.953v-16.297
		c0-0.75,0.32-0.75,0.715-0.75H471.425z"/>
	<path fill="#CFEBF6" stroke="#CFEBF6" stroke-width="0.25" stroke-linejoin="bevel" stroke-miterlimit="10" d="M431.152,253.113h27
		c0.75,0,0.957,0.305,0.957,0.68l-0.207,16.57c0,0-0.113,0.477-0.512,0.477l-27.238,0.273c-0.75,0-0.75-0.578-0.75-0.953v-16.297
		c0-0.75,0.32-0.75,0.719-0.75H431.152z"/>
	<path fill="#CFEBF6" stroke="#CFEBF6" stroke-width="0.25" stroke-linejoin="bevel" stroke-miterlimit="10" d="M390.507,253.113h27
		c0.75,0,0.957,0.305,0.957,0.68l-0.207,16.57c0,0-0.113,0.477-0.512,0.477l-27.238,0.273c-0.75,0-0.75-0.578-0.75-0.953v-16.297
		c0-0.75,0.32-0.75,0.719-0.75H390.507z"/>
	<path fill="#CFEBF6" stroke="#CFEBF6" stroke-width="0.25" stroke-linejoin="bevel" stroke-miterlimit="10" d="M390.507,286.734h27
		c0.75,0,0.957,0.305,0.957,0.68l-0.207,16.57c0,0-0.113,0.477-0.512,0.477l-27.238,0.273c-0.75,0-0.75-0.578-0.75-0.953v-16.297
		c0-0.75,0.32-0.75,0.719-0.75H390.507z"/>
	<path fill="#CFEBF6" stroke="#CFEBF6" stroke-width="0.25" stroke-linejoin="bevel" stroke-miterlimit="10" d="M431.152,286.734h27
		c0.75,0,0.957,0.305,0.957,0.68l-0.207,16.57c0,0-0.113,0.477-0.512,0.477l-27.238,0.273c-0.75,0-0.75-0.578-0.75-0.953v-16.297
		c0-0.75,0.32-0.75,0.719-0.75H431.152z"/>
	<path fill="#CFEBF6" stroke="#CFEBF6" stroke-width="0.25" stroke-linejoin="bevel" stroke-miterlimit="10" d="M471.425,286.734h27
		c0.75,0,0.953,0.305,0.953,0.68l-0.203,16.57c0,0-0.117,0.477-0.512,0.477l-27.238,0.273c-0.75,0-0.75-0.578-0.75-0.953v-16.297
		c0-0.75,0.32-0.75,0.715-0.75H471.425z"/>
	
		<linearGradient id="SVGID_27_" gradientUnits="userSpaceOnUse" x1="948.2251" y1="181.3052" x2="202.2256" y2="181.3051" gradientTransform="matrix(0.75 0 0 -0.75 -147.9469 547.4337)">
		<stop  offset="0" style="stop-color:#B5B5B5"/>
		<stop  offset="0.01" style="stop-color:#FFFFFF"/>
		<stop  offset="0.02" style="stop-color:#EBEBEB"/>
		<stop  offset="0.64" style="stop-color:#E7E7E7"/>
		<stop  offset="0.99" style="stop-color:#E2E2E2"/>
		<stop  offset="1" style="stop-color:#A8A8A8"/>
	</linearGradient>
	<path fill="url(#SVGID_27_)" d="M3.723,426.457h559.5v-30H3.723V426.457z"/>
	
		<linearGradient id="SVGID_28_" gradientUnits="userSpaceOnUse" x1="208.3496" y1="201.3066" x2="208.3496" y2="155.3066" gradientTransform="matrix(0.75 0 0 -0.75 386.8427 439.5216)">
		<stop  offset="0" style="stop-color:#BDBDBD"/>
		<stop  offset="0.15" style="stop-color:#FFFFFF"/>
		<stop  offset="0.25" style="stop-color:#FFFFFF"/>
		<stop  offset="0.52" style="stop-color:#DFDFDF"/>
		<stop  offset="0.69" style="stop-color:#C7C7C7"/>
		<stop  offset="0.8" style="stop-color:#BCBCBC"/>
		<stop  offset="0.92" style="stop-color:#B1B1B1"/>
		<stop  offset="1" style="stop-color:#CBCBCB"/>
	</linearGradient>
	<path fill="url(#SVGID_28_)" d="M538.511,288.542h9c0,0,0.188,2.551,0.188,5.695l-0.188,22.805c0,3,0.172,5.672,0.152,5.672
		l-9.152,0.328c0,0,0-2.879,0-6.023v-22.477c0-3.75,0.016-6,0.035-6H538.511z"/>
	
		<linearGradient id="SVGID_29_" gradientUnits="userSpaceOnUse" x1="208.2207" y1="201.4043" x2="208.2207" y2="127.8896" gradientTransform="matrix(0.75 0 0 -0.75 395.9491 429.0763)">
		<stop  offset="0" style="stop-color:#000000"/>
		<stop  offset="0.15" style="stop-color:#454545"/>
		<stop  offset="0.25" style="stop-color:#B3B3B3"/>
		<stop  offset="0.52" style="stop-color:#000000"/>
		<stop  offset="0.69" style="stop-color:#000000"/>
		<stop  offset="0.8" style="stop-color:#000000"/>
		<stop  offset="0.92" style="stop-color:#000000"/>
		<stop  offset="1" style="stop-color:#000000"/>
	</linearGradient>
	<path fill="url(#SVGID_29_)" d="M548.367,278.098h7.5c0,0,0.781,0.332,0.781,0.832l-0.031,53.167c0,0.75-0.375,1.063-0.875,1.063
		l-7.375-0.313c-0.75,0-0.785-0.129-0.785-0.633l0.035-53.367c0-0.75,0.367-0.824,0.871-0.824L548.367,278.098z"/>
	
		<linearGradient id="SVGID_30_" gradientUnits="userSpaceOnUse" x1="211.7764" y1="201.3516" x2="211.7764" y2="181.9766" gradientTransform="matrix(0.75 0 0 -0.75 -96.3209 386.1036)">
		<stop  offset="0" style="stop-color:#AC3C48"/>
		<stop  offset="0.15" style="stop-color:#E96A76"/>
		<stop  offset="0.25" style="stop-color:#F3BBBF"/>
		<stop  offset="0.52" style="stop-color:#CB4857"/>
		<stop  offset="0.69" style="stop-color:#B5404C"/>
		<stop  offset="0.8" style="stop-color:#AA3B47"/>
		<stop  offset="0.92" style="stop-color:#A13843"/>
		<stop  offset="1" style="stop-color:#B9414E"/>
	</linearGradient>
	<path fill="url(#SVGID_30_)" d="M55.348,242.625c0-4.5,3.156-7.535,7.164-7.535c4.086,0.035,7.254,3.25,7.254,7.266
		c-0.168,4.02-3.246,7.266-7.254,7.266c-4.164-0.246-7.254-3.254-7.254-7.266L55.348,242.625z"/>
	
		<linearGradient id="SVGID_31_" gradientUnits="userSpaceOnUse" x1="210.7197" y1="201.3477" x2="210.7197" y2="184.1182" gradientTransform="matrix(0.75 0 0 -0.75 -61.0397 386.9093)">
		<stop  offset="0" style="stop-color:#BC8823"/>
		<stop  offset="0.15" style="stop-color:#FDBE55"/>
		<stop  offset="0.25" style="stop-color:#FEDCB6"/>
		<stop  offset="0.52" style="stop-color:#DEA22B"/>
		<stop  offset="0.69" style="stop-color:#C58F25"/>
		<stop  offset="0.8" style="stop-color:#BA8723"/>
		<stop  offset="0.92" style="stop-color:#B07F20"/>
		<stop  offset="1" style="stop-color:#CA9327"/>
	</linearGradient>
	<path fill="url(#SVGID_31_)" d="M90.629,242.684c0-3.75,2.809-6.785,6.371-6.785c3.379,0.035,6.449,2.891,6.449,6.461
		c-0.07,3.324-2.887,6.461-6.449,6.461c-3.371-0.137-6.449-2.895-6.449-6.461L90.629,242.684z"/>
	
		<linearGradient id="SVGID_32_" gradientUnits="userSpaceOnUse" x1="210.7192" y1="201.3477" x2="210.7192" y2="184.1182" gradientTransform="matrix(0.75 0 0 -0.75 -28.6017 386.9093)">
		<stop  offset="0" style="stop-color:#398C8E"/>
		<stop  offset="0.15" style="stop-color:#67C3C5"/>
		<stop  offset="0.25" style="stop-color:#BBDEE0"/>
		<stop  offset="0.52" style="stop-color:#45A6A9"/>
		<stop  offset="0.69" style="stop-color:#3C9396"/>
		<stop  offset="0.8" style="stop-color:#388B8D"/>
		<stop  offset="0.92" style="stop-color:#358385"/>
		<stop  offset="1" style="stop-color:#3E9799"/>
	</linearGradient>
	<path fill="url(#SVGID_32_)" d="M123.066,242.684c0-3.75,2.809-6.785,6.371-6.785c3.379,0.035,6.449,2.891,6.449,6.461
		c-0.07,3.324-2.887,6.461-6.449,6.461c-3.371-0.137-6.449-2.895-6.449-6.461L123.066,242.684z"/>
	<path fill="#FFFFFF" fill-opacity="0.4157" d="M111.691,187.922h29.25v33h-29.25V187.922z"/>
</g>
</svg>
