<?xml version="1.0" encoding="utf-8"?>
<!-- Generator: Adobe Illustrator 16.0.0, SVG Export Plug-In . SVG Version: 6.00 Build 0)  -->
<!DOCTYPE svg PUBLIC "-//W3C//DTD SVG 1.1//EN" "http://www.w3.org/Graphics/SVG/1.1/DTD/svg11.dtd">
<svg preserveAspectRatio="none" version="1.1" id="图层_1" xmlns="http://www.w3.org/2000/svg" xmlns:xlink="http://www.w3.org/1999/xlink" x="0px" y="0px"
	 width="343.671px" height="561.976px" viewBox="111.629 2.578 343.671 561.976"
	 enable-background="new 111.629 2.578 343.671 561.976" xml:space="preserve">
<g id="surface696">
	
		<linearGradient id="SVGID_1_" gradientUnits="userSpaceOnUse" x1="213.2241" y1="190.3086" x2="202.2241" y2="190.3086" gradientTransform="matrix(0.75 0 0 -0.75 6.8827 689.421)">
		<stop  offset="0" style="stop-color:#403E3E"/>
		<stop  offset="0.15" style="stop-color:#6D6C6C"/>
		<stop  offset="0.25" style="stop-color:#BCBCBC"/>
		<stop  offset="0.52" style="stop-color:#4D4B4B"/>
		<stop  offset="0.69" style="stop-color:#434242"/>
		<stop  offset="0.8" style="stop-color:#3F3E3E"/>
		<stop  offset="0.92" style="stop-color:#3B3A3A"/>
		<stop  offset="1" style="stop-color:#454444"/>
	</linearGradient>
	<path fill="url(#SVGID_1_)" d="M158.551,538.441h8.25v16.5h-8.25V538.441z"/>
	
		<linearGradient id="SVGID_2_" gradientUnits="userSpaceOnUse" x1="246.2222" y1="194.8066" x2="202.2222" y2="194.8066" gradientTransform="matrix(0.75 0 0 -0.75 -5.4249 705.7833)">
		<stop  offset="0" style="stop-color:#403E3E"/>
		<stop  offset="0.15" style="stop-color:#6D6C6C"/>
		<stop  offset="0.25" style="stop-color:#BCBCBC"/>
		<stop  offset="0.52" style="stop-color:#4D4B4B"/>
		<stop  offset="0.69" style="stop-color:#434242"/>
		<stop  offset="0.8" style="stop-color:#3F3E3E"/>
		<stop  offset="0.92" style="stop-color:#3B3A3A"/>
		<stop  offset="1" style="stop-color:#454444"/>
	</linearGradient>
	<path fill="url(#SVGID_2_)" d="M148.492,554.804h28.5c1.5,0,2.07,0.844,2.07,1.887l0.18,5.613c0,1.5-1.023,2.047-2.07,2.047
		l-28.68,0.203c-1.5,0-2.25-1.051-2.25-2.09v-5.41c0-1.5,0.848-2.25,1.895-2.25H148.492z"/>
	
		<linearGradient id="SVGID_3_" gradientUnits="userSpaceOnUse" x1="213.2246" y1="190.3086" x2="202.2246" y2="190.3086" gradientTransform="matrix(0.75 0 0 -0.75 227.9911 689.421)">
		<stop  offset="0" style="stop-color:#403E3E"/>
		<stop  offset="0.15" style="stop-color:#6D6C6C"/>
		<stop  offset="0.25" style="stop-color:#BCBCBC"/>
		<stop  offset="0.52" style="stop-color:#4D4B4B"/>
		<stop  offset="0.69" style="stop-color:#434242"/>
		<stop  offset="0.8" style="stop-color:#3F3E3E"/>
		<stop  offset="0.92" style="stop-color:#3B3A3A"/>
		<stop  offset="1" style="stop-color:#454444"/>
	</linearGradient>
	<path fill="url(#SVGID_3_)" d="M379.66,538.441h8.25v16.5h-8.25V538.441z"/>
	
		<linearGradient id="SVGID_4_" gradientUnits="userSpaceOnUse" x1="246.2236" y1="194.8066" x2="202.2236" y2="194.8066" gradientTransform="matrix(0.75 0 0 -0.75 215.6835 705.7833)">
		<stop  offset="0" style="stop-color:#403E3E"/>
		<stop  offset="0.15" style="stop-color:#6D6C6C"/>
		<stop  offset="0.25" style="stop-color:#BCBCBC"/>
		<stop  offset="0.52" style="stop-color:#4D4B4B"/>
		<stop  offset="0.69" style="stop-color:#434242"/>
		<stop  offset="0.8" style="stop-color:#3F3E3E"/>
		<stop  offset="0.92" style="stop-color:#3B3A3A"/>
		<stop  offset="1" style="stop-color:#454444"/>
	</linearGradient>
	<path fill="url(#SVGID_4_)" d="M369.601,554.804h28.5c1.5,0,2.07,0.844,2.07,1.887l0.18,5.613c0,1.5-1.027,2.047-2.07,2.047
		l-28.68,0.203c-1.5,0-2.25-1.051-2.25-2.09v-5.41c0-1.5,0.848-2.25,1.895-2.25H369.601z"/>
	
		<linearGradient id="SVGID_5_" gradientUnits="userSpaceOnUse" x1="578.2231" y1="129.2085" x2="202.2231" y2="129.2085" gradientTransform="matrix(0.75 0 0 -0.75 -20.7189 584.2306)">
		<stop  offset="0" style="stop-color:#292525"/>
		<stop  offset="0.01" style="stop-color:#868584"/>
		<stop  offset="0.02" style="stop-color:#383433"/>
		<stop  offset="0.64" style="stop-color:#373332"/>
		<stop  offset="0.99" style="stop-color:#363130"/>
		<stop  offset="1" style="stop-color:#252221"/>
	</linearGradient>
	<path fill="url(#SVGID_5_)" d="M133.199,433.253h276.75c1.5,0,2.707,1.027,2.707,2.336l0.293,103.414c0,1.5-1.41,2.395-2.719,2.395
		l-277.031-0.145c-1.5,0-2.25-0.914-2.25-2.219V435.503c0-1.5,1.004-2.25,2.313-2.25H133.199z"/>
	
		<linearGradient id="SVGID_6_" gradientUnits="userSpaceOnUse" x1="480.2251" y1="190.3032" x2="202.2256" y2="190.3032" gradientTransform="matrix(0.75 0 0 -0.75 15.7479 567.84)">
		<stop  offset="0" style="stop-color:#000000"/>
		<stop  offset="0.01" style="stop-color:#7C7C7C"/>
		<stop  offset="0.02" style="stop-color:#000000"/>
		<stop  offset="0.64" style="stop-color:#000000"/>
		<stop  offset="0.99" style="stop-color:#000000"/>
		<stop  offset="1" style="stop-color:#000000"/>
	</linearGradient>
	<path fill="url(#SVGID_6_)" d="M167.418,433.363h208.5v-16.5h-208.5V433.363z"/>
	
		<linearGradient id="SVGID_7_" gradientUnits="userSpaceOnUse" x1="615.2251" y1="177.3032" x2="202.2261" y2="177.3032" gradientTransform="matrix(0.75 0 0 -0.75 -32.7755 531.9337)">
		<stop  offset="0" style="stop-color:#292525"/>
		<stop  offset="0.01" style="stop-color:#868584"/>
		<stop  offset="0.02" style="stop-color:#383433"/>
		<stop  offset="0.64" style="stop-color:#373332"/>
		<stop  offset="0.99" style="stop-color:#363130"/>
		<stop  offset="1" style="stop-color:#252221"/>
	</linearGradient>
	<path fill="url(#SVGID_7_)" d="M118.895,416.957h309.75v-36h-309.75V416.957z"/>
	
		<linearGradient id="SVGID_8_" gradientUnits="userSpaceOnUse" x1="231.2266" y1="76.3027" x2="202.2266" y2="76.3027" gradientTransform="matrix(0.75 0 0 -0.75 -32.7755 344.2228)">
		<stop  offset="0" style="stop-color:#B5B5B5"/>
		<stop  offset="0.01" style="stop-color:#FFFFFF"/>
		<stop  offset="0.02" style="stop-color:#EBEBEB"/>
		<stop  offset="0.64" style="stop-color:#E7E7E7"/>
		<stop  offset="0.99" style="stop-color:#E2E2E2"/>
		<stop  offset="1" style="stop-color:#A8A8A8"/>
	</linearGradient>
	<path fill="url(#SVGID_8_)" d="M118.895,380.746h21.75v-187.5h-21.75V380.746z"/>
	
		<linearGradient id="SVGID_9_" gradientUnits="userSpaceOnUse" x1="269.2231" y1="172.8438" x2="202.2231" y2="172.8438" gradientTransform="matrix(0.75 0 0 -0.75 232.0936 532.4454)">
		<stop  offset="0" style="stop-color:#5F5F5F"/>
		<stop  offset="0.01" style="stop-color:#A9A9AA"/>
		<stop  offset="0.02" style="stop-color:#7D7D7E"/>
		<stop  offset="0.64" style="stop-color:#7B7B7C"/>
		<stop  offset="0.99" style="stop-color:#787879"/>
		<stop  offset="1" style="stop-color:#575758"/>
	</linearGradient>
	<path fill="url(#SVGID_9_)" d="M386.011,381.468h45.75c0.75,0,2.113,1,2.113,2.305l0.137,38.195c0,0.75-1.195,2.195-2.504,2.195
		l-45.496,0.055c-1.5,0-2.25-1.145-2.25-2.449v-38.051c0-1.5,1.035-2.309,2.344-2.309L386.011,381.468z"/>
	
		<linearGradient id="SVGID_10_" gradientUnits="userSpaceOnUse" x1="264.2256" y1="75.8027" x2="202.2256" y2="75.8027" gradientTransform="matrix(0.75 0 0 -0.75 234.4354 344.2228)">
		<stop  offset="0" style="stop-color:#B5B5B5"/>
		<stop  offset="0.01" style="stop-color:#FFFFFF"/>
		<stop  offset="0.02" style="stop-color:#EBEBEB"/>
		<stop  offset="0.64" style="stop-color:#E7E7E7"/>
		<stop  offset="0.99" style="stop-color:#E2E2E2"/>
		<stop  offset="1" style="stop-color:#A8A8A8"/>
	</linearGradient>
	<path fill="url(#SVGID_10_)" d="M386.105,381.496h46.5v-188.25h-46.5V381.496z"/>
	
		<linearGradient id="SVGID_11_" gradientUnits="userSpaceOnUse" x1="431.3394" y1="201.3057" x2="431.3394" y2="143.1279" gradientTransform="matrix(0.75 0 0 -0.75 -40.0402 301.4982)">
		<stop  offset="0" style="stop-color:#4E4D4D"/>
		<stop  offset="0.01" style="stop-color:#9C9B9B"/>
		<stop  offset="0.02" style="stop-color:#686767"/>
		<stop  offset="0.64" style="stop-color:#666565"/>
		<stop  offset="0.99" style="stop-color:#636262"/>
		<stop  offset="1" style="stop-color:#484747"/>
	</linearGradient>
	<path fill="url(#SVGID_11_)" d="M113.879,150.52h339c1.5,0,2.422,1.059,2.422,2.363l-0.172,38.887c0,1.5-0.891,2.383-2.199,2.383
		l-339.05-0.133c-1.5,0-2.25-0.926-2.25-2.23v-39.02c0-1.5,1.031-2.25,2.34-2.25H113.879z"/>
	
		<linearGradient id="SVGID_12_" gradientUnits="userSpaceOnUse" x1="404.2222" y1="201.3057" x2="404.2222" y2="143.3057" gradientTransform="matrix(0.75 0 0 -0.75 -19.6559 301.4982)">
		<stop  offset="0" style="stop-color:#000000"/>
		<stop  offset="0.01" style="stop-color:#7C7C7C"/>
		<stop  offset="0.02" style="stop-color:#000000"/>
		<stop  offset="0.64" style="stop-color:#000000"/>
		<stop  offset="0.99" style="stop-color:#000000"/>
		<stop  offset="1" style="stop-color:#000000"/>
	</linearGradient>
	<path fill="url(#SVGID_12_)" d="M132.012,150.52h303v43.5h-303V150.52z"/>
	
		<linearGradient id="SVGID_13_" gradientUnits="userSpaceOnUse" x1="212.7246" y1="201.3018" x2="212.7246" y2="173.3018" gradientTransform="matrix(0.75 0 0 -0.75 -35.3282 314.8595)">
		<stop  offset="0" style="stop-color:#403E3E"/>
		<stop  offset="0.15" style="stop-color:#6D6C6C"/>
		<stop  offset="0.25" style="stop-color:#BCBCBC"/>
		<stop  offset="0.52" style="stop-color:#4D4B4B"/>
		<stop  offset="0.69" style="stop-color:#434242"/>
		<stop  offset="0.8" style="stop-color:#3F3E3E"/>
		<stop  offset="0.92" style="stop-color:#3B3A3A"/>
		<stop  offset="1" style="stop-color:#454444"/>
	</linearGradient>
	<path fill="url(#SVGID_13_)" d="M116.34,163.883h15.75v21h-15.75V163.883z"/>
	
		<linearGradient id="SVGID_14_" gradientUnits="userSpaceOnUse" x1="212.2231" y1="201.3018" x2="212.2231" y2="173.3018" gradientTransform="matrix(0.75 0 0 -0.75 283.0272 314.8595)">
		<stop  offset="0" style="stop-color:#403E3E"/>
		<stop  offset="0.15" style="stop-color:#6D6C6C"/>
		<stop  offset="0.25" style="stop-color:#BCBCBC"/>
		<stop  offset="0.52" style="stop-color:#4D4B4B"/>
		<stop  offset="0.69" style="stop-color:#434242"/>
		<stop  offset="0.8" style="stop-color:#3F3E3E"/>
		<stop  offset="0.92" style="stop-color:#3B3A3A"/>
		<stop  offset="1" style="stop-color:#454444"/>
	</linearGradient>
	<path fill="url(#SVGID_14_)" d="M434.695,163.883h15v21h-15V163.883z"/>
	
		<linearGradient id="SVGID_15_" gradientUnits="userSpaceOnUse" x1="404.2222" y1="201.3018" x2="404.2222" y2="175.3018" gradientTransform="matrix(0.75 0 0 -0.75 -19.6559 315.8165)">
		<stop  offset="0" style="stop-color:#403E3E"/>
		<stop  offset="0.15" style="stop-color:#6D6C6C"/>
		<stop  offset="0.25" style="stop-color:#BCBCBC"/>
		<stop  offset="0.52" style="stop-color:#4D4B4B"/>
		<stop  offset="0.69" style="stop-color:#434242"/>
		<stop  offset="0.8" style="stop-color:#3F3E3E"/>
		<stop  offset="0.92" style="stop-color:#3B3A3A"/>
		<stop  offset="1" style="stop-color:#454444"/>
	</linearGradient>
	<path fill="url(#SVGID_15_)" d="M132.012,164.84h303v19.5h-303V164.84z"/>
	
		<linearGradient id="SVGID_16_" gradientUnits="userSpaceOnUse" x1="310.2222" y1="160.3066" x2="202.2231" y2="160.3066" gradientTransform="matrix(0.75 0 0 -0.75 72.309 301.4991)">
		<stop  offset="0" style="stop-color:#9B9B9C"/>
		<stop  offset="0.01" style="stop-color:#E4E4E4"/>
		<stop  offset="0.02" style="stop-color:#CBCBCB"/>
		<stop  offset="0.64" style="stop-color:#C7C7C8"/>
		<stop  offset="0.99" style="stop-color:#C3C3C4"/>
		<stop  offset="1" style="stop-color:#909091"/>
	</linearGradient>
	<path fill="url(#SVGID_16_)" d="M226.227,150.52h75.75c1.5,0,2.684,1.059,2.684,2.363l0.316,56.887c0,0.75-1.379,2.109-2.688,2.109
		l-76.062,0.141c-1.5,0-2.25-1.199-2.25-2.504V152.77c0-1.5,1.063-2.25,2.371-2.25H226.227z"/>
	
		<linearGradient id="SVGID_17_" gradientUnits="userSpaceOnUse" x1="310.2222" y1="183.3037" x2="202.2231" y2="183.3037" gradientTransform="matrix(0.75 0 0 -0.75 72.309 326.0431)">
		<stop  offset="0" style="stop-color:#B5B5B5"/>
		<stop  offset="0.01" style="stop-color:#FFFFFF"/>
		<stop  offset="0.02" style="stop-color:#EBEBEB"/>
		<stop  offset="0.64" style="stop-color:#E7E7E7"/>
		<stop  offset="0.99" style="stop-color:#E2E2E2"/>
		<stop  offset="1" style="stop-color:#A8A8A8"/>
	</linearGradient>
	<path fill="url(#SVGID_17_)" d="M223.977,175.066h81v27h-81V175.066z"/>
	
		<linearGradient id="SVGID_18_" gradientUnits="userSpaceOnUse" x1="268.2231" y1="91.3057" x2="202.2241" y2="91.3057" gradientTransform="matrix(0.75 0 0 -0.75 88.035 153.5568)">
		<stop  offset="0" style="stop-color:#A8A8A8"/>
		<stop  offset="0.01" style="stop-color:#F2F2F2"/>
		<stop  offset="0.02" style="stop-color:#DBDBDB"/>
		<stop  offset="0.64" style="stop-color:#D8D8D8"/>
		<stop  offset="0.99" style="stop-color:#D3D3D3"/>
		<stop  offset="1" style="stop-color:#9C9C9C"/>
	</linearGradient>
	<path fill="url(#SVGID_18_)" d="M241.953,2.578h44.25c1.5,0,2.73,1.059,2.73,2.363l0.27,160.387c0,1.5-1.328,2.238-2.641,2.238
		l-44.609,0.012c-1.5,0-2.25-1.07-2.25-2.375V4.828c0-1.5,1.063-2.25,2.371-2.25H241.953z"/>
	
		<linearGradient id="SVGID_19_" gradientUnits="userSpaceOnUse" x1="225.3193" y1="115.8032" x2="202.2256" y2="115.8032" gradientTransform="matrix(0.75 0 0 -0.75 103.975 357.9142)">
		<stop  offset="0" style="stop-color:#B5B5B5"/>
		<stop  offset="0.01" style="stop-color:#FFFFFF"/>
		<stop  offset="0.02" style="stop-color:#EBEBEB"/>
		<stop  offset="0.64" style="stop-color:#E7E7E7"/>
		<stop  offset="0.99" style="stop-color:#E2E2E2"/>
		<stop  offset="1" style="stop-color:#A8A8A8"/>
	</linearGradient>
	<path fill="url(#SVGID_19_)" d="M257.895,206.938h12.75c1.5,0,2.32,1,2.32,2.305l-0.07,123.695c0,0.75-0.988,2.172-2.301,2.172
		l-12.699,0.078c-1.5,0-2.25-1.195-2.25-2.5v-123.5c0-1.5,1.063-2.25,2.371-2.25H257.895z"/>
	
		<linearGradient id="SVGID_20_" gradientUnits="userSpaceOnUse" x1="327.2212" y1="192.2144" x2="202.2217" y2="192.2143" gradientTransform="matrix(0.75 0 0 -0.75 65.8134 518.299)">
		<stop  offset="0" style="stop-color:#6E6F6F"/>
		<stop  offset="0.01" style="stop-color:#B7B8B8"/>
		<stop  offset="0.02" style="stop-color:#919292"/>
		<stop  offset="0.64" style="stop-color:#8F9090"/>
		<stop  offset="0.99" style="stop-color:#8B8C8C"/>
		<stop  offset="1" style="stop-color:#666767"/>
	</linearGradient>
	<path fill="url(#SVGID_20_)" d="M219.73,367.32h89.25c0.75,0,2.176,1.059,2.176,2.363l0.074,8.887c0,1.5-1.137,2.387-2.445,2.387
		l-89.054-0.137c-1.5,0-2.25-0.922-2.25-2.227v-9.023c0-1.5,1.063-2.25,2.371-2.25H219.73z"/>
	
		<linearGradient id="SVGID_21_" gradientUnits="userSpaceOnUse" x1="227.2256" y1="190.2832" x2="202.2256" y2="190.2832" gradientTransform="matrix(0.75 0 0 -0.75 103.1161 469.5529)">
		<stop  offset="0" style="stop-color:#403E3E"/>
		<stop  offset="0.15" style="stop-color:#6D6C6C"/>
		<stop  offset="0.25" style="stop-color:#BCBCBC"/>
		<stop  offset="0.52" style="stop-color:#4D4B4B"/>
		<stop  offset="0.69" style="stop-color:#434242"/>
		<stop  offset="0.8" style="stop-color:#3F3E3E"/>
		<stop  offset="0.92" style="stop-color:#3B3A3A"/>
		<stop  offset="1" style="stop-color:#454444"/>
	</linearGradient>
	<path fill="url(#SVGID_21_)" d="M273.535,318.574v14.25c0,1.5-0.914,2.285-2.438,2.285l-13.313-0.035c-1.5,0-3-1.023-3-2.328
		v-14.172H273.535z"/>
	
		<linearGradient id="SVGID_22_" gradientUnits="userSpaceOnUse" x1="207.2393" y1="188.9946" x2="202.1973" y2="188.9946" gradientTransform="matrix(0.75 0 0 -0.75 110.7699 491.7101)">
		<stop  offset="0" style="stop-color:#979898"/>
		<stop  offset="0.15" style="stop-color:#D0D1D1"/>
		<stop  offset="0.25" style="stop-color:#E5E6E6"/>
		<stop  offset="0.52" style="stop-color:#B3B4B4"/>
		<stop  offset="0.69" style="stop-color:#9FA0A0"/>
		<stop  offset="0.8" style="stop-color:#969797"/>
		<stop  offset="0.92" style="stop-color:#8E8E8E"/>
		<stop  offset="1" style="stop-color:#A3A4A4"/>
	</linearGradient>
	<path fill="url(#SVGID_22_)" d="M263.938,340.73c1.5,0,2.262,0.848,2.262,1.887l-0.012,14.613c0,0.75-0.836,1.91-1.879,1.91
		c-1.121,0.34-1.891-0.844-1.891-1.887l0.02-14.273c0-1.5,0.824-2.25,1.871-2.25H263.938z"/>
	
		<linearGradient id="SVGID_23_" gradientUnits="userSpaceOnUse" x1="215.2227" y1="194.3027" x2="202.2227" y2="194.3027" gradientTransform="matrix(0.75 0 0 -0.75 107.8641 485.5743)">
		<stop  offset="0" style="stop-color:#979898"/>
		<stop  offset="0.15" style="stop-color:#D0D1D1"/>
		<stop  offset="0.25" style="stop-color:#E5E6E6"/>
		<stop  offset="0.52" style="stop-color:#B3B4B4"/>
		<stop  offset="0.69" style="stop-color:#9FA0A0"/>
		<stop  offset="0.8" style="stop-color:#969797"/>
		<stop  offset="0.92" style="stop-color:#8E8E8E"/>
		<stop  offset="1" style="stop-color:#A3A4A4"/>
	</linearGradient>
	<path fill="url(#SVGID_23_)" d="M261.781,334.597h5.25c0.75,0,2.074,1.059,2.074,2.363l0.176,5.137c0,1.5-1.238,2.727-2.547,2.727
		l-4.953,0.273c-1.5,0-2.25-1.332-2.25-2.637v-5.613c0-1.5,1.063-2.25,2.371-2.25H261.781z"/>
	
		<linearGradient id="SVGID_24_" gradientUnits="userSpaceOnUse" x1="239.603" y1="196.7583" x2="202.2231" y2="196.7583" gradientTransform="matrix(0.75 0 0 -0.75 98.6332 480.1202)">
		<stop  offset="0" style="stop-color:#403E3E"/>
		<stop  offset="0.15" style="stop-color:#6D6C6C"/>
		<stop  offset="0.25" style="stop-color:#BCBCBC"/>
		<stop  offset="0.52" style="stop-color:#4D4B4B"/>
		<stop  offset="0.69" style="stop-color:#434242"/>
		<stop  offset="0.8" style="stop-color:#3F3E3E"/>
		<stop  offset="0.92" style="stop-color:#3B3A3A"/>
		<stop  offset="1" style="stop-color:#454444"/>
	</linearGradient>
	<path fill="url(#SVGID_24_)" d="M252.551,329.144h23.25c1.5,0,2.535,1.055,2.535,2.363l-0.285,2.137c0,1.5-0.777,2.316-2.086,2.316
		l-23.414-0.066c-1.5,0-2.25-0.992-2.25-2.297v-2.203c0-1.5,1.063-2.25,2.371-2.25H252.551z"/>
	
		<linearGradient id="SVGID_25_" gradientUnits="userSpaceOnUse" x1="390.2261" y1="201.3027" x2="390.2261" y2="196.3027" gradientTransform="matrix(0.75 0 0 -0.75 -20.924 598.7462)">
		<stop  offset="0" style="stop-color:#4E4D4D"/>
		<stop  offset="0.01" style="stop-color:#9C9B9B"/>
		<stop  offset="0.02" style="stop-color:#686767"/>
		<stop  offset="0.64" style="stop-color:#666565"/>
		<stop  offset="0.99" style="stop-color:#636262"/>
		<stop  offset="1" style="stop-color:#484747"/>
	</linearGradient>
	<path fill="url(#SVGID_25_)" d="M130.746,447.769h282v3.75h-282V447.769z"/>
	
		<linearGradient id="SVGID_26_" gradientUnits="userSpaceOnUse" x1="390.2261" y1="201.3047" x2="390.2261" y2="196.3047" gradientTransform="matrix(0.75 0 0 -0.75 -20.924 608.2042)">
		<stop  offset="0" style="stop-color:#4E4D4D"/>
		<stop  offset="0.01" style="stop-color:#9C9B9B"/>
		<stop  offset="0.02" style="stop-color:#686767"/>
		<stop  offset="0.64" style="stop-color:#666565"/>
		<stop  offset="0.99" style="stop-color:#636262"/>
		<stop  offset="1" style="stop-color:#484747"/>
	</linearGradient>
	<path fill="url(#SVGID_26_)" d="M130.746,457.226h282v3.75h-282V457.226z"/>
	
		<linearGradient id="SVGID_27_" gradientUnits="userSpaceOnUse" x1="390.2261" y1="201.3057" x2="390.2261" y2="196.3057" gradientTransform="matrix(0.75 0 0 -0.75 -20.924 616.7452)">
		<stop  offset="0" style="stop-color:#4E4D4D"/>
		<stop  offset="0.01" style="stop-color:#9C9B9B"/>
		<stop  offset="0.02" style="stop-color:#686767"/>
		<stop  offset="0.64" style="stop-color:#666565"/>
		<stop  offset="0.99" style="stop-color:#636262"/>
		<stop  offset="1" style="stop-color:#484747"/>
	</linearGradient>
	<path fill="url(#SVGID_27_)" d="M130.746,465.765h282v3.75h-282V465.765z"/>
	
		<linearGradient id="SVGID_28_" gradientUnits="userSpaceOnUse" x1="390.2261" y1="201.3047" x2="390.2261" y2="196.3047" gradientTransform="matrix(0.75 0 0 -0.75 -20.924 627.1183)">
		<stop  offset="0" style="stop-color:#4E4D4D"/>
		<stop  offset="0.01" style="stop-color:#9C9B9B"/>
		<stop  offset="0.02" style="stop-color:#686767"/>
		<stop  offset="0.64" style="stop-color:#666565"/>
		<stop  offset="0.99" style="stop-color:#636262"/>
		<stop  offset="1" style="stop-color:#484747"/>
	</linearGradient>
	<path fill="url(#SVGID_28_)" d="M130.746,476.14h282v3.75h-282V476.14z"/>
	
		<linearGradient id="SVGID_29_" gradientUnits="userSpaceOnUse" x1="390.2261" y1="201.3047" x2="390.2261" y2="196.3047" gradientTransform="matrix(0.75 0 0 -0.75 -20.924 636.5763)">
		<stop  offset="0" style="stop-color:#4E4D4D"/>
		<stop  offset="0.01" style="stop-color:#9C9B9B"/>
		<stop  offset="0.02" style="stop-color:#686767"/>
		<stop  offset="0.64" style="stop-color:#666565"/>
		<stop  offset="0.99" style="stop-color:#636262"/>
		<stop  offset="1" style="stop-color:#484747"/>
	</linearGradient>
	<path fill="url(#SVGID_29_)" d="M130.746,485.597h282v3.75h-282V485.597z"/>
	
		<linearGradient id="SVGID_30_" gradientUnits="userSpaceOnUse" x1="254.2256" y1="91.3057" x2="202.2256" y2="91.3057" gradientTransform="matrix(0.75 0 0 -0.75 93.1703 153.5568)">
		<stop  offset="0" style="stop-color:#B5B5B5"/>
		<stop  offset="0.01" style="stop-color:#FFFFFF"/>
		<stop  offset="0.02" style="stop-color:#EBEBEB"/>
		<stop  offset="0.64" style="stop-color:#E7E7E7"/>
		<stop  offset="0.99" style="stop-color:#E2E2E2"/>
		<stop  offset="1" style="stop-color:#A8A8A8"/>
	</linearGradient>
	<path fill="url(#SVGID_30_)" d="M247.09,2.578h34.5c1.5,0,2.211,1.059,2.211,2.363l0.039,160.387c0,1.5-0.879,2.238-1.918,2.238
		l-34.832,0.012c-1.5,0-2.25-1.07-2.25-2.375V4.828c0-1.5,0.84-2.25,1.875-2.25H247.09z"/>
	<path stroke="#000000" stroke-linejoin="bevel" stroke-miterlimit="10" d="M220.559,370.14h87.75v9h-87.75V370.14z"/>
	
		<linearGradient id="SVGID_31_" gradientUnits="userSpaceOnUse" x1="264.2256" y1="189.8047" x2="202.2256" y2="189.8047" gradientTransform="matrix(0.75 0 0 -0.75 234.4354 514.8907)">
		<stop  offset="0" style="stop-color:#A8A8A8"/>
		<stop  offset="0.01" style="stop-color:#F2F2F2"/>
		<stop  offset="0.02" style="stop-color:#DBDBDB"/>
		<stop  offset="0.64" style="stop-color:#D8D8D8"/>
		<stop  offset="0.99" style="stop-color:#D3D3D3"/>
		<stop  offset="1" style="stop-color:#9C9C9C"/>
	</linearGradient>
	<path fill="url(#SVGID_31_)" d="M386.105,381.164h46.5v-17.25h-46.5V381.164z"/>
</g>
</svg>
