<?xml version="1.0" encoding="utf-8"?>
<!-- Generator: Adobe Illustrator 16.0.0, SVG Export Plug-In . SVG Version: 6.00 Build 0)  -->
<!DOCTYPE svg PUBLIC "-//W3C//DTD SVG 1.1//EN" "http://www.w3.org/Graphics/SVG/1.1/DTD/svg11.dtd">
<svg preserveAspectRatio="none" version="1.1" id="图层_1" xmlns="http://www.w3.org/2000/svg" xmlns:xlink="http://www.w3.org/1999/xlink" x="0px" y="0px"
	 width="561px" height="481.789px" viewBox="2.82 84.75 561 481.789" enable-background="new 2.82 84.75 561 481.789"
	 xml:space="preserve">
<g id="surface656">
	
		<linearGradient id="SVGID_1_" gradientUnits="userSpaceOnUse" x1="679.2212" y1="-82.1953" x2="202.2222" y2="-82.1954" gradientTransform="matrix(0.75 0 0 -0.75 -148.8468 235.7277)">
		<stop  offset="0" style="stop-color:#B59D79"/>
		<stop  offset="0.01" style="stop-color:#FFE5C1"/>
		<stop  offset="0.02" style="stop-color:#EBCC9F"/>
		<stop  offset="0.64" style="stop-color:#E7C99C"/>
		<stop  offset="0.99" style="stop-color:#E2C499"/>
		<stop  offset="1" style="stop-color:#A89170"/>
	</linearGradient>
	<path fill="url(#SVGID_1_)" d="M2.82,84.75h357.75V510H2.82V84.75z"/>
	
		<linearGradient id="SVGID_2_" gradientUnits="userSpaceOnUse" x1="473.2212" y1="65.8071" x2="202.2212" y2="65.8071" gradientTransform="matrix(0.75 0 0 -0.75 208.7548 458.296)">
		<stop  offset="0" style="stop-color:#B59D79"/>
		<stop  offset="0.01" style="stop-color:#FFE5C1"/>
		<stop  offset="0.02" style="stop-color:#EBCC9F"/>
		<stop  offset="0.64" style="stop-color:#E7C99C"/>
		<stop  offset="0.99" style="stop-color:#E2C499"/>
		<stop  offset="1" style="stop-color:#A89170"/>
	</linearGradient>
	<path fill="url(#SVGID_2_)" d="M360.421,510.566h203.25v-203.25h-203.25V510.566z"/>
	
		<linearGradient id="SVGID_3_" gradientUnits="userSpaceOnUse" x1="389.2231" y1="-82.1958" x2="202.2236" y2="-82.1958" gradientTransform="matrix(0.75 0 0 -0.75 68.4252 235.7277)">
		<stop  offset="0" style="stop-color:#B59D79"/>
		<stop  offset="0.01" style="stop-color:#FFE5C1"/>
		<stop  offset="0.02" style="stop-color:#EBCC9F"/>
		<stop  offset="0.64" style="stop-color:#E7C99C"/>
		<stop  offset="0.99" style="stop-color:#E2C499"/>
		<stop  offset="1" style="stop-color:#A89170"/>
	</linearGradient>
	<path fill="url(#SVGID_3_)" d="M220.094,84.75h140.25V510h-140.25V84.75z"/>
	
		<linearGradient id="SVGID_4_" gradientUnits="userSpaceOnUse" x1="272.2217" y1="70.3027" x2="202.2217" y2="70.3027" gradientTransform="matrix(0.75 0 0 -0.75 209.0126 261.8751)">
		<stop  offset="0" style="stop-color:#B4954F"/>
		<stop  offset="0.01" style="stop-color:#FEDD9C"/>
		<stop  offset="0.02" style="stop-color:#EAC268"/>
		<stop  offset="0.64" style="stop-color:#E6BF67"/>
		<stop  offset="0.99" style="stop-color:#E1BB64"/>
		<stop  offset="1" style="stop-color:#A78A48"/>
	</linearGradient>
	<path fill="url(#SVGID_4_)" d="M360.679,110.898h52.5v196.5h-52.5V110.898z"/>
	
		<linearGradient id="SVGID_5_" gradientUnits="userSpaceOnUse" x1="234.7275" y1="201.3037" x2="234.7275" y2="146.3037" gradientTransform="matrix(0.75 0 0 -0.75 261.2001 288.4425)">
		<stop  offset="0" style="stop-color:#BDA47F"/>
		<stop  offset="0.15" style="stop-color:#FFE0B3"/>
		<stop  offset="0.25" style="stop-color:#FFEED7"/>
		<stop  offset="0.52" style="stop-color:#DFC297"/>
		<stop  offset="0.69" style="stop-color:#C7AD86"/>
		<stop  offset="0.8" style="stop-color:#BCA37E"/>
		<stop  offset="0.92" style="stop-color:#B19A77"/>
		<stop  offset="1" style="stop-color:#CBB189"/>
	</linearGradient>
	<path fill="url(#SVGID_5_)" d="M412.871,137.465h48.75v41.25h-48.75V137.465z"/>
	
		<linearGradient id="SVGID_6_" gradientUnits="userSpaceOnUse" x1="950.2212" y1="185.8081" x2="202.2222" y2="185.808" gradientTransform="matrix(0.75 0 0 -0.75 -148.8468 661.3507)">
		<stop  offset="0" style="stop-color:#B59D79"/>
		<stop  offset="0.01" style="stop-color:#FFE5C1"/>
		<stop  offset="0.02" style="stop-color:#EBCC9F"/>
		<stop  offset="0.64" style="stop-color:#E7C99C"/>
		<stop  offset="0.99" style="stop-color:#E2C499"/>
		<stop  offset="1" style="stop-color:#A89170"/>
	</linearGradient>
	<path fill="url(#SVGID_6_)" d="M2.82,510.371h561v23.25h-561V510.371z"/>
	<path fill="#3E3938" stroke="#3E3938" stroke-linejoin="bevel" stroke-miterlimit="10" d="M229.602,118.414h120v58.5h-120V118.414z
		"/>
	
		<linearGradient id="SVGID_7_" gradientUnits="userSpaceOnUse" x1="256.2275" y1="201.3047" x2="256.2275" y2="170.3047" gradientTransform="matrix(0.75 0 0 -0.75 209.0126 435.0948)">
		<stop  offset="0" style="stop-color:#B59D79"/>
		<stop  offset="0.01" style="stop-color:#FFE5C1"/>
		<stop  offset="0.02" style="stop-color:#EBCC9F"/>
		<stop  offset="0.64" style="stop-color:#E7C99C"/>
		<stop  offset="0.99" style="stop-color:#E2C499"/>
		<stop  offset="1" style="stop-color:#A89170"/>
	</linearGradient>
	<path fill="url(#SVGID_7_)" d="M360.683,284.117h81v23.25h-81V284.117z"/>
	
		<linearGradient id="SVGID_8_" gradientUnits="userSpaceOnUse" x1="233.2266" y1="178.8037" x2="202.2266" y2="178.8037" gradientTransform="matrix(0.75 0 0 -0.75 -140.3263 683.7657)">
		<stop  offset="0" style="stop-color:#B59D79"/>
		<stop  offset="0.01" style="stop-color:#FFE5C1"/>
		<stop  offset="0.02" style="stop-color:#EBCC9F"/>
		<stop  offset="0.64" style="stop-color:#E7C99C"/>
		<stop  offset="0.99" style="stop-color:#E2C499"/>
		<stop  offset="1" style="stop-color:#A89170"/>
	</linearGradient>
	<path fill="url(#SVGID_8_)" d="M11.344,532.789h23.25v33.75h-23.25V532.789z"/>
	
		<linearGradient id="SVGID_9_" gradientUnits="userSpaceOnUse" x1="233.2266" y1="178.8037" x2="202.2266" y2="178.8037" gradientTransform="matrix(0.75 0 0 -0.75 32.4818 683.7657)">
		<stop  offset="0" style="stop-color:#B59D79"/>
		<stop  offset="0.01" style="stop-color:#FFE5C1"/>
		<stop  offset="0.02" style="stop-color:#EBCC9F"/>
		<stop  offset="0.64" style="stop-color:#E7C99C"/>
		<stop  offset="0.99" style="stop-color:#E2C499"/>
		<stop  offset="1" style="stop-color:#A89170"/>
	</linearGradient>
	<path fill="url(#SVGID_9_)" d="M184.152,532.789h23.25v33.75h-23.25V532.789z"/>
	
		<linearGradient id="SVGID_10_" gradientUnits="userSpaceOnUse" x1="233.2271" y1="178.8037" x2="202.2271" y2="178.8037" gradientTransform="matrix(0.75 0 0 -0.75 205.2899 683.7657)">
		<stop  offset="0" style="stop-color:#B59D79"/>
		<stop  offset="0.01" style="stop-color:#FFE5C1"/>
		<stop  offset="0.02" style="stop-color:#EBCC9F"/>
		<stop  offset="0.64" style="stop-color:#E7C99C"/>
		<stop  offset="0.99" style="stop-color:#E2C499"/>
		<stop  offset="1" style="stop-color:#A89170"/>
	</linearGradient>
	<path fill="url(#SVGID_10_)" d="M356.96,532.789h23.25v33.75h-23.25V532.789z"/>
	
		<linearGradient id="SVGID_11_" gradientUnits="userSpaceOnUse" x1="233.2217" y1="178.8037" x2="202.2217" y2="178.8037" gradientTransform="matrix(0.75 0 0 -0.75 378.0985 683.7657)">
		<stop  offset="0" style="stop-color:#B59D79"/>
		<stop  offset="0.01" style="stop-color:#FFE5C1"/>
		<stop  offset="0.02" style="stop-color:#EBCC9F"/>
		<stop  offset="0.64" style="stop-color:#E7C99C"/>
		<stop  offset="0.99" style="stop-color:#E2C499"/>
		<stop  offset="1" style="stop-color:#A89170"/>
	</linearGradient>
	<path fill="url(#SVGID_11_)" d="M529.765,532.789h23.25v33.75h-23.25V532.789z"/>
	
		<linearGradient id="SVGID_12_" gradientUnits="userSpaceOnUse" x1="460.2251" y1="99.8027" x2="202.2256" y2="99.8027" gradientTransform="matrix(0.75 0 0 -0.75 -137.1305 260.8126)">
		<stop  offset="0" style="stop-color:#B4954F"/>
		<stop  offset="0.01" style="stop-color:#FEDD9C"/>
		<stop  offset="0.02" style="stop-color:#EAC268"/>
		<stop  offset="0.64" style="stop-color:#E6BF67"/>
		<stop  offset="0.99" style="stop-color:#E1BB64"/>
		<stop  offset="1" style="stop-color:#A78A48"/>
	</linearGradient>
	<path fill="url(#SVGID_12_)" d="M14.539,109.836h193.5v152.25h-193.5V109.836z"/>
	
		<linearGradient id="SVGID_13_" gradientUnits="userSpaceOnUse" x1="227.7266" y1="201.3018" x2="227.7266" y2="195.3018" gradientTransform="matrix(0.75 0 0 -0.75 -118.5138 284.1915)">
		<stop  offset="0" style="stop-color:#BC9C53"/>
		<stop  offset="0.15" style="stop-color:#FED681"/>
		<stop  offset="0.25" style="stop-color:#FEE8C2"/>
		<stop  offset="0.52" style="stop-color:#DEB863"/>
		<stop  offset="0.69" style="stop-color:#C6A457"/>
		<stop  offset="0.8" style="stop-color:#BB9B52"/>
		<stop  offset="0.92" style="stop-color:#B0924D"/>
		<stop  offset="1" style="stop-color:#CBA859"/>
	</linearGradient>
	<path fill="url(#SVGID_13_)" d="M33.906,133.215h36.75c0,0,0.602,0.477,0.602,1.063l0.148,1.938c0,0.75-0.547,1.25-1.035,1.25
		l-36.465,0.25c0,0-0.75-0.727-0.75-1.313v-2.438c0,0,0.395-0.75,0.887-0.75H33.906z"/>
	
		<linearGradient id="SVGID_14_" gradientUnits="userSpaceOnUse" x1="227.7266" y1="201.3027" x2="227.7266" y2="195.3027" gradientTransform="matrix(0.75 0 0 -0.75 -118.5138 298.5392)">
		<stop  offset="0" style="stop-color:#BC9C53"/>
		<stop  offset="0.15" style="stop-color:#FED681"/>
		<stop  offset="0.25" style="stop-color:#FEE8C2"/>
		<stop  offset="0.52" style="stop-color:#DEB863"/>
		<stop  offset="0.69" style="stop-color:#C6A457"/>
		<stop  offset="0.8" style="stop-color:#BB9B52"/>
		<stop  offset="0.92" style="stop-color:#B0924D"/>
		<stop  offset="1" style="stop-color:#CBA859"/>
	</linearGradient>
	<path fill="url(#SVGID_14_)" d="M33.906,147.563h36.75c0,0,0.602,0.473,0.602,1.063l0.148,1.938c0,0.75-0.547,1.25-1.035,1.25
		l-36.465,0.25c0,0-0.75-0.727-0.75-1.313v-2.438c0,0,0.395-0.75,0.887-0.75H33.906z"/>
	
		<linearGradient id="SVGID_15_" gradientUnits="userSpaceOnUse" x1="227.7266" y1="201.3018" x2="227.7266" y2="195.3018" gradientTransform="matrix(0.75 0 0 -0.75 -118.5138 312.922)">
		<stop  offset="0" style="stop-color:#BC9C53"/>
		<stop  offset="0.15" style="stop-color:#FED681"/>
		<stop  offset="0.25" style="stop-color:#FEE8C2"/>
		<stop  offset="0.52" style="stop-color:#DEB863"/>
		<stop  offset="0.69" style="stop-color:#C6A457"/>
		<stop  offset="0.8" style="stop-color:#BB9B52"/>
		<stop  offset="0.92" style="stop-color:#B0924D"/>
		<stop  offset="1" style="stop-color:#CBA859"/>
	</linearGradient>
	<path fill="url(#SVGID_15_)" d="M33.906,161.945h36.75c0,0,0.602,0.477,0.602,1.063l0.148,1.938c0,0.75-0.547,1.25-1.035,1.25
		l-36.465,0.25c0,0-0.75-0.727-0.75-1.313v-2.438c0,0,0.395-0.75,0.887-0.75H33.906z"/>
	
		<linearGradient id="SVGID_16_" gradientUnits="userSpaceOnUse" x1="227.7266" y1="201.3037" x2="227.7266" y2="195.3037" gradientTransform="matrix(0.75 0 0 -0.75 -118.5138 327.7628)">
		<stop  offset="0" style="stop-color:#BC9C53"/>
		<stop  offset="0.15" style="stop-color:#FED681"/>
		<stop  offset="0.25" style="stop-color:#FEE8C2"/>
		<stop  offset="0.52" style="stop-color:#DEB863"/>
		<stop  offset="0.69" style="stop-color:#C6A457"/>
		<stop  offset="0.8" style="stop-color:#BB9B52"/>
		<stop  offset="0.92" style="stop-color:#B0924D"/>
		<stop  offset="1" style="stop-color:#CBA859"/>
	</linearGradient>
	<path fill="url(#SVGID_16_)" d="M33.906,176.785h36.75c0,0,0.602,0.477,0.602,1.063l0.148,1.938c0,0.75-0.547,1.25-1.035,1.25
		l-36.465,0.25c0,0-0.75-0.727-0.75-1.313v-2.438c0,0,0.395-0.75,0.887-0.75H33.906z"/>
	
		<linearGradient id="SVGID_17_" gradientUnits="userSpaceOnUse" x1="227.7266" y1="201.3027" x2="227.7266" y2="195.3027" gradientTransform="matrix(0.75 0 0 -0.75 -118.5138 341.6525)">
		<stop  offset="0" style="stop-color:#BC9C53"/>
		<stop  offset="0.15" style="stop-color:#FED681"/>
		<stop  offset="0.25" style="stop-color:#FEE8C2"/>
		<stop  offset="0.52" style="stop-color:#DEB863"/>
		<stop  offset="0.69" style="stop-color:#C6A457"/>
		<stop  offset="0.8" style="stop-color:#BB9B52"/>
		<stop  offset="0.92" style="stop-color:#B0924D"/>
		<stop  offset="1" style="stop-color:#CBA859"/>
	</linearGradient>
	<path fill="url(#SVGID_17_)" d="M33.906,190.676h36.75c0,0,0.602,0.477,0.602,1.063l0.148,1.938c0,0.75-0.547,1.25-1.035,1.25
		l-36.465,0.25c0,0-0.75-0.727-0.75-1.313v-2.438c0,0,0.395-0.75,0.887-0.75H33.906z"/>
	
		<linearGradient id="SVGID_18_" gradientUnits="userSpaceOnUse" x1="227.7266" y1="201.3037" x2="227.7266" y2="195.3037" gradientTransform="matrix(0.75 0 0 -0.75 -118.5138 356.0177)">
		<stop  offset="0" style="stop-color:#BC9C53"/>
		<stop  offset="0.15" style="stop-color:#FED681"/>
		<stop  offset="0.25" style="stop-color:#FEE8C2"/>
		<stop  offset="0.52" style="stop-color:#DEB863"/>
		<stop  offset="0.69" style="stop-color:#C6A457"/>
		<stop  offset="0.8" style="stop-color:#BB9B52"/>
		<stop  offset="0.92" style="stop-color:#B0924D"/>
		<stop  offset="1" style="stop-color:#CBA859"/>
	</linearGradient>
	<path fill="url(#SVGID_18_)" d="M33.906,205.039h36.75c0,0,0.602,0.477,0.602,1.063l0.148,1.938c0,0.75-0.547,1.254-1.035,1.254
		l-36.465,0.246c0,0-0.75-0.723-0.75-1.309v-2.441c0,0,0.395-0.75,0.887-0.75H33.906z"/>
	
		<linearGradient id="SVGID_19_" gradientUnits="userSpaceOnUse" x1="227.7266" y1="201.3018" x2="227.7266" y2="195.3018" gradientTransform="matrix(0.75 0 0 -0.75 -118.5138 370.3829)">
		<stop  offset="0" style="stop-color:#BC9C53"/>
		<stop  offset="0.15" style="stop-color:#FED681"/>
		<stop  offset="0.25" style="stop-color:#FEE8C2"/>
		<stop  offset="0.52" style="stop-color:#DEB863"/>
		<stop  offset="0.69" style="stop-color:#C6A457"/>
		<stop  offset="0.8" style="stop-color:#BB9B52"/>
		<stop  offset="0.92" style="stop-color:#B0924D"/>
		<stop  offset="1" style="stop-color:#CBA859"/>
	</linearGradient>
	<path fill="url(#SVGID_19_)" d="M33.906,219.406h36.75c0,0,0.602,0.477,0.602,1.063l0.148,1.938c0,0.75-0.547,1.25-1.035,1.25
		l-36.465,0.25c0,0-0.75-0.727-0.75-1.313v-2.438c0,0,0.395-0.75,0.887-0.75H33.906z"/>
	
		<linearGradient id="SVGID_20_" gradientUnits="userSpaceOnUse" x1="227.7266" y1="201.3057" x2="227.7266" y2="195.3057" gradientTransform="matrix(0.75 0 0 -0.75 -118.5138 384.7482)">
		<stop  offset="0" style="stop-color:#BC9C53"/>
		<stop  offset="0.15" style="stop-color:#FED681"/>
		<stop  offset="0.25" style="stop-color:#FEE8C2"/>
		<stop  offset="0.52" style="stop-color:#DEB863"/>
		<stop  offset="0.69" style="stop-color:#C6A457"/>
		<stop  offset="0.8" style="stop-color:#BB9B52"/>
		<stop  offset="0.92" style="stop-color:#B0924D"/>
		<stop  offset="1" style="stop-color:#CBA859"/>
	</linearGradient>
	<path fill="url(#SVGID_20_)" d="M33.906,233.77h36.75c0,0,0.602,0.477,0.602,1.063l0.148,1.938c0,0.75-0.547,1.254-1.035,1.254
		l-36.465,0.246c0,0-0.75-0.723-0.75-1.309v-2.441c0,0,0.395-0.75,0.887-0.75H33.906z"/>
	
		<linearGradient id="SVGID_21_" gradientUnits="userSpaceOnUse" x1="227.7227" y1="201.3018" x2="227.7227" y2="195.3018" gradientTransform="matrix(0.75 0 0 -0.75 -59.2609 284.1915)">
		<stop  offset="0" style="stop-color:#BC9C53"/>
		<stop  offset="0.15" style="stop-color:#FED681"/>
		<stop  offset="0.25" style="stop-color:#FEE8C2"/>
		<stop  offset="0.52" style="stop-color:#DEB863"/>
		<stop  offset="0.69" style="stop-color:#C6A457"/>
		<stop  offset="0.8" style="stop-color:#BB9B52"/>
		<stop  offset="0.92" style="stop-color:#B0924D"/>
		<stop  offset="1" style="stop-color:#CBA859"/>
	</linearGradient>
	<path fill="url(#SVGID_21_)" d="M93.156,133.215h36.75c0,0,0.602,0.477,0.602,1.063l0.148,1.938c0,0.75-0.543,1.25-1.031,1.25
		l-36.469,0.25c0,0-0.75-0.727-0.75-1.313v-2.438c0,0,0.398-0.75,0.887-0.75H93.156z"/>
	
		<linearGradient id="SVGID_22_" gradientUnits="userSpaceOnUse" x1="227.7227" y1="201.3027" x2="227.7227" y2="195.3027" gradientTransform="matrix(0.75 0 0 -0.75 -59.2609 298.5392)">
		<stop  offset="0" style="stop-color:#BC9C53"/>
		<stop  offset="0.15" style="stop-color:#FED681"/>
		<stop  offset="0.25" style="stop-color:#FEE8C2"/>
		<stop  offset="0.52" style="stop-color:#DEB863"/>
		<stop  offset="0.69" style="stop-color:#C6A457"/>
		<stop  offset="0.8" style="stop-color:#BB9B52"/>
		<stop  offset="0.92" style="stop-color:#B0924D"/>
		<stop  offset="1" style="stop-color:#CBA859"/>
	</linearGradient>
	<path fill="url(#SVGID_22_)" d="M93.156,147.563h36.75c0,0,0.602,0.473,0.602,1.063l0.148,1.938c0,0.75-0.543,1.25-1.031,1.25
		l-36.469,0.25c0,0-0.75-0.727-0.75-1.313v-2.438c0,0,0.398-0.75,0.887-0.75H93.156z"/>
	
		<linearGradient id="SVGID_23_" gradientUnits="userSpaceOnUse" x1="227.7227" y1="201.3018" x2="227.7227" y2="195.3018" gradientTransform="matrix(0.75 0 0 -0.75 -59.2609 312.922)">
		<stop  offset="0" style="stop-color:#BC9C53"/>
		<stop  offset="0.15" style="stop-color:#FED681"/>
		<stop  offset="0.25" style="stop-color:#FEE8C2"/>
		<stop  offset="0.52" style="stop-color:#DEB863"/>
		<stop  offset="0.69" style="stop-color:#C6A457"/>
		<stop  offset="0.8" style="stop-color:#BB9B52"/>
		<stop  offset="0.92" style="stop-color:#B0924D"/>
		<stop  offset="1" style="stop-color:#CBA859"/>
	</linearGradient>
	<path fill="url(#SVGID_23_)" d="M93.156,161.945h36.75c0,0,0.602,0.477,0.602,1.063l0.148,1.938c0,0.75-0.543,1.25-1.031,1.25
		l-36.469,0.25c0,0-0.75-0.727-0.75-1.313v-2.438c0,0,0.398-0.75,0.887-0.75H93.156z"/>
	
		<linearGradient id="SVGID_24_" gradientUnits="userSpaceOnUse" x1="227.7227" y1="201.3037" x2="227.7227" y2="195.3037" gradientTransform="matrix(0.75 0 0 -0.75 -59.2609 327.7628)">
		<stop  offset="0" style="stop-color:#BC9C53"/>
		<stop  offset="0.15" style="stop-color:#FED681"/>
		<stop  offset="0.25" style="stop-color:#FEE8C2"/>
		<stop  offset="0.52" style="stop-color:#DEB863"/>
		<stop  offset="0.69" style="stop-color:#C6A457"/>
		<stop  offset="0.8" style="stop-color:#BB9B52"/>
		<stop  offset="0.92" style="stop-color:#B0924D"/>
		<stop  offset="1" style="stop-color:#CBA859"/>
	</linearGradient>
	<path fill="url(#SVGID_24_)" d="M93.156,176.785h36.75c0,0,0.602,0.477,0.602,1.063l0.148,1.938c0,0.75-0.543,1.25-1.031,1.25
		l-36.469,0.25c0,0-0.75-0.727-0.75-1.313v-2.438c0,0,0.398-0.75,0.887-0.75H93.156z"/>
	
		<linearGradient id="SVGID_25_" gradientUnits="userSpaceOnUse" x1="227.7227" y1="201.3027" x2="227.7227" y2="195.3027" gradientTransform="matrix(0.75 0 0 -0.75 -59.2609 341.6525)">
		<stop  offset="0" style="stop-color:#BC9C53"/>
		<stop  offset="0.15" style="stop-color:#FED681"/>
		<stop  offset="0.25" style="stop-color:#FEE8C2"/>
		<stop  offset="0.52" style="stop-color:#DEB863"/>
		<stop  offset="0.69" style="stop-color:#C6A457"/>
		<stop  offset="0.8" style="stop-color:#BB9B52"/>
		<stop  offset="0.92" style="stop-color:#B0924D"/>
		<stop  offset="1" style="stop-color:#CBA859"/>
	</linearGradient>
	<path fill="url(#SVGID_25_)" d="M93.156,190.676h36.75c0,0,0.602,0.477,0.602,1.063l0.148,1.938c0,0.75-0.543,1.25-1.031,1.25
		l-36.469,0.25c0,0-0.75-0.727-0.75-1.313v-2.438c0,0,0.398-0.75,0.887-0.75H93.156z"/>
	
		<linearGradient id="SVGID_26_" gradientUnits="userSpaceOnUse" x1="227.7227" y1="201.3037" x2="227.7227" y2="195.3037" gradientTransform="matrix(0.75 0 0 -0.75 -59.2609 356.0177)">
		<stop  offset="0" style="stop-color:#BC9C53"/>
		<stop  offset="0.15" style="stop-color:#FED681"/>
		<stop  offset="0.25" style="stop-color:#FEE8C2"/>
		<stop  offset="0.52" style="stop-color:#DEB863"/>
		<stop  offset="0.69" style="stop-color:#C6A457"/>
		<stop  offset="0.8" style="stop-color:#BB9B52"/>
		<stop  offset="0.92" style="stop-color:#B0924D"/>
		<stop  offset="1" style="stop-color:#CBA859"/>
	</linearGradient>
	<path fill="url(#SVGID_26_)" d="M93.156,205.039h36.75c0,0,0.602,0.477,0.602,1.063l0.148,1.938c0,0.75-0.543,1.254-1.031,1.254
		l-36.469,0.246c0,0-0.75-0.723-0.75-1.309v-2.441c0,0,0.398-0.75,0.887-0.75H93.156z"/>
	
		<linearGradient id="SVGID_27_" gradientUnits="userSpaceOnUse" x1="227.7227" y1="201.3018" x2="227.7227" y2="195.3018" gradientTransform="matrix(0.75 0 0 -0.75 -59.2609 370.3829)">
		<stop  offset="0" style="stop-color:#BC9C53"/>
		<stop  offset="0.15" style="stop-color:#FED681"/>
		<stop  offset="0.25" style="stop-color:#FEE8C2"/>
		<stop  offset="0.52" style="stop-color:#DEB863"/>
		<stop  offset="0.69" style="stop-color:#C6A457"/>
		<stop  offset="0.8" style="stop-color:#BB9B52"/>
		<stop  offset="0.92" style="stop-color:#B0924D"/>
		<stop  offset="1" style="stop-color:#CBA859"/>
	</linearGradient>
	<path fill="url(#SVGID_27_)" d="M93.156,219.406h36.75c0,0,0.602,0.477,0.602,1.063l0.148,1.938c0,0.75-0.543,1.25-1.031,1.25
		l-36.469,0.25c0,0-0.75-0.727-0.75-1.313v-2.438c0,0,0.398-0.75,0.887-0.75H93.156z"/>
	
		<linearGradient id="SVGID_28_" gradientUnits="userSpaceOnUse" x1="227.7227" y1="201.3057" x2="227.7227" y2="195.3057" gradientTransform="matrix(0.75 0 0 -0.75 -59.2609 384.7482)">
		<stop  offset="0" style="stop-color:#BC9C53"/>
		<stop  offset="0.15" style="stop-color:#FED681"/>
		<stop  offset="0.25" style="stop-color:#FEE8C2"/>
		<stop  offset="0.52" style="stop-color:#DEB863"/>
		<stop  offset="0.69" style="stop-color:#C6A457"/>
		<stop  offset="0.8" style="stop-color:#BB9B52"/>
		<stop  offset="0.92" style="stop-color:#B0924D"/>
		<stop  offset="1" style="stop-color:#CBA859"/>
	</linearGradient>
	<path fill="url(#SVGID_28_)" d="M93.156,233.77h36.75c0,0,0.602,0.477,0.602,1.063l0.148,1.938c0,0.75-0.543,1.254-1.031,1.254
		l-36.469,0.246c0,0-0.75-0.723-0.75-1.309v-2.441c0,0,0.398-0.75,0.887-0.75H93.156z"/>
	
		<linearGradient id="SVGID_29_" gradientUnits="userSpaceOnUse" x1="227.7246" y1="201.3018" x2="227.7246" y2="195.3018" gradientTransform="matrix(0.75 0 0 -0.75 -0.0079 284.1915)">
		<stop  offset="0" style="stop-color:#BC9C53"/>
		<stop  offset="0.15" style="stop-color:#FED681"/>
		<stop  offset="0.25" style="stop-color:#FEE8C2"/>
		<stop  offset="0.52" style="stop-color:#DEB863"/>
		<stop  offset="0.69" style="stop-color:#C6A457"/>
		<stop  offset="0.8" style="stop-color:#BB9B52"/>
		<stop  offset="0.92" style="stop-color:#B0924D"/>
		<stop  offset="1" style="stop-color:#CBA859"/>
	</linearGradient>
	<path fill="url(#SVGID_29_)" d="M152.41,133.215h36.75c0,0,0.602,0.477,0.602,1.063l0.148,1.938c0,0.75-0.543,1.25-1.035,1.25
		l-36.465,0.25c0,0-0.75-0.727-0.75-1.313v-2.438c0,0,0.398-0.75,0.887-0.75H152.41z"/>
	
		<linearGradient id="SVGID_30_" gradientUnits="userSpaceOnUse" x1="227.7246" y1="201.3027" x2="227.7246" y2="195.3027" gradientTransform="matrix(0.75 0 0 -0.75 -0.0079 298.5392)">
		<stop  offset="0" style="stop-color:#BC9C53"/>
		<stop  offset="0.15" style="stop-color:#FED681"/>
		<stop  offset="0.25" style="stop-color:#FEE8C2"/>
		<stop  offset="0.52" style="stop-color:#DEB863"/>
		<stop  offset="0.69" style="stop-color:#C6A457"/>
		<stop  offset="0.8" style="stop-color:#BB9B52"/>
		<stop  offset="0.92" style="stop-color:#B0924D"/>
		<stop  offset="1" style="stop-color:#CBA859"/>
	</linearGradient>
	<path fill="url(#SVGID_30_)" d="M152.41,147.563h36.75c0,0,0.602,0.473,0.602,1.063l0.148,1.938c0,0.75-0.543,1.25-1.035,1.25
		l-36.465,0.25c0,0-0.75-0.727-0.75-1.313v-2.438c0,0,0.398-0.75,0.887-0.75H152.41z"/>
	
		<linearGradient id="SVGID_31_" gradientUnits="userSpaceOnUse" x1="227.7246" y1="201.3018" x2="227.7246" y2="195.3018" gradientTransform="matrix(0.75 0 0 -0.75 -0.0079 312.922)">
		<stop  offset="0" style="stop-color:#BC9C53"/>
		<stop  offset="0.15" style="stop-color:#FED681"/>
		<stop  offset="0.25" style="stop-color:#FEE8C2"/>
		<stop  offset="0.52" style="stop-color:#DEB863"/>
		<stop  offset="0.69" style="stop-color:#C6A457"/>
		<stop  offset="0.8" style="stop-color:#BB9B52"/>
		<stop  offset="0.92" style="stop-color:#B0924D"/>
		<stop  offset="1" style="stop-color:#CBA859"/>
	</linearGradient>
	<path fill="url(#SVGID_31_)" d="M152.41,161.945h36.75c0,0,0.602,0.477,0.602,1.063l0.148,1.938c0,0.75-0.543,1.25-1.035,1.25
		l-36.465,0.25c0,0-0.75-0.727-0.75-1.313v-2.438c0,0,0.398-0.75,0.887-0.75H152.41z"/>
	
		<linearGradient id="SVGID_32_" gradientUnits="userSpaceOnUse" x1="227.7246" y1="201.3037" x2="227.7246" y2="195.3037" gradientTransform="matrix(0.75 0 0 -0.75 -0.0079 327.7628)">
		<stop  offset="0" style="stop-color:#BC9C53"/>
		<stop  offset="0.15" style="stop-color:#FED681"/>
		<stop  offset="0.25" style="stop-color:#FEE8C2"/>
		<stop  offset="0.52" style="stop-color:#DEB863"/>
		<stop  offset="0.69" style="stop-color:#C6A457"/>
		<stop  offset="0.8" style="stop-color:#BB9B52"/>
		<stop  offset="0.92" style="stop-color:#B0924D"/>
		<stop  offset="1" style="stop-color:#CBA859"/>
	</linearGradient>
	<path fill="url(#SVGID_32_)" d="M152.41,176.785h36.75c0,0,0.602,0.477,0.602,1.063l0.148,1.938c0,0.75-0.543,1.25-1.035,1.25
		l-36.465,0.25c0,0-0.75-0.727-0.75-1.313v-2.438c0,0,0.398-0.75,0.887-0.75H152.41z"/>
	
		<linearGradient id="SVGID_33_" gradientUnits="userSpaceOnUse" x1="227.7246" y1="201.3027" x2="227.7246" y2="195.3027" gradientTransform="matrix(0.75 0 0 -0.75 -0.0079 341.6525)">
		<stop  offset="0" style="stop-color:#BC9C53"/>
		<stop  offset="0.15" style="stop-color:#FED681"/>
		<stop  offset="0.25" style="stop-color:#FEE8C2"/>
		<stop  offset="0.52" style="stop-color:#DEB863"/>
		<stop  offset="0.69" style="stop-color:#C6A457"/>
		<stop  offset="0.8" style="stop-color:#BB9B52"/>
		<stop  offset="0.92" style="stop-color:#B0924D"/>
		<stop  offset="1" style="stop-color:#CBA859"/>
	</linearGradient>
	<path fill="url(#SVGID_33_)" d="M152.41,190.676h36.75c0,0,0.602,0.477,0.602,1.063l0.148,1.938c0,0.75-0.543,1.25-1.035,1.25
		l-36.465,0.25c0,0-0.75-0.727-0.75-1.313v-2.438c0,0,0.398-0.75,0.887-0.75H152.41z"/>
	
		<linearGradient id="SVGID_34_" gradientUnits="userSpaceOnUse" x1="227.7246" y1="201.3037" x2="227.7246" y2="195.3037" gradientTransform="matrix(0.75 0 0 -0.75 -0.0079 356.0177)">
		<stop  offset="0" style="stop-color:#BC9C53"/>
		<stop  offset="0.15" style="stop-color:#FED681"/>
		<stop  offset="0.25" style="stop-color:#FEE8C2"/>
		<stop  offset="0.52" style="stop-color:#DEB863"/>
		<stop  offset="0.69" style="stop-color:#C6A457"/>
		<stop  offset="0.8" style="stop-color:#BB9B52"/>
		<stop  offset="0.92" style="stop-color:#B0924D"/>
		<stop  offset="1" style="stop-color:#CBA859"/>
	</linearGradient>
	<path fill="url(#SVGID_34_)" d="M152.41,205.039h36.75c0,0,0.602,0.477,0.602,1.063l0.148,1.938c0,0.75-0.543,1.254-1.035,1.254
		l-36.465,0.246c0,0-0.75-0.723-0.75-1.309v-2.441c0,0,0.398-0.75,0.887-0.75H152.41z"/>
	
		<linearGradient id="SVGID_35_" gradientUnits="userSpaceOnUse" x1="227.7246" y1="201.3018" x2="227.7246" y2="195.3018" gradientTransform="matrix(0.75 0 0 -0.75 -0.0079 370.3829)">
		<stop  offset="0" style="stop-color:#BC9C53"/>
		<stop  offset="0.15" style="stop-color:#FED681"/>
		<stop  offset="0.25" style="stop-color:#FEE8C2"/>
		<stop  offset="0.52" style="stop-color:#DEB863"/>
		<stop  offset="0.69" style="stop-color:#C6A457"/>
		<stop  offset="0.8" style="stop-color:#BB9B52"/>
		<stop  offset="0.92" style="stop-color:#B0924D"/>
		<stop  offset="1" style="stop-color:#CBA859"/>
	</linearGradient>
	<path fill="url(#SVGID_35_)" d="M152.41,219.406h36.75c0,0,0.602,0.477,0.602,1.063l0.148,1.938c0,0.75-0.543,1.25-1.035,1.25
		l-36.465,0.25c0,0-0.75-0.727-0.75-1.313v-2.438c0,0,0.398-0.75,0.887-0.75H152.41z"/>
	
		<linearGradient id="SVGID_36_" gradientUnits="userSpaceOnUse" x1="227.7246" y1="201.3057" x2="227.7246" y2="195.3057" gradientTransform="matrix(0.75 0 0 -0.75 -0.0079 384.7482)">
		<stop  offset="0" style="stop-color:#BC9C53"/>
		<stop  offset="0.15" style="stop-color:#FED681"/>
		<stop  offset="0.25" style="stop-color:#FEE8C2"/>
		<stop  offset="0.52" style="stop-color:#DEB863"/>
		<stop  offset="0.69" style="stop-color:#C6A457"/>
		<stop  offset="0.8" style="stop-color:#BB9B52"/>
		<stop  offset="0.92" style="stop-color:#B0924D"/>
		<stop  offset="1" style="stop-color:#CBA859"/>
	</linearGradient>
	<path fill="url(#SVGID_36_)" d="M152.41,233.77h36.75c0,0,0.602,0.477,0.602,1.063l0.148,1.938c0,0.75-0.543,1.254-1.035,1.254
		l-36.465,0.246c0,0-0.75-0.723-0.75-1.309v-2.441c0,0,0.398-0.75,0.887-0.75H152.41z"/>
	
		<linearGradient id="SVGID_37_" gradientUnits="userSpaceOnUse" x1="460.2251" y1="99.8047" x2="202.2256" y2="99.8047" gradientTransform="matrix(0.75 0 0 -0.75 -137.1305 483.8409)">
		<stop  offset="0" style="stop-color:#B4954F"/>
		<stop  offset="0.01" style="stop-color:#FEDD9C"/>
		<stop  offset="0.02" style="stop-color:#EAC268"/>
		<stop  offset="0.64" style="stop-color:#E6BF67"/>
		<stop  offset="0.99" style="stop-color:#E1BB64"/>
		<stop  offset="1" style="stop-color:#A78A48"/>
	</linearGradient>
	<path fill="url(#SVGID_37_)" d="M14.539,332.863h193.5v152.25h-193.5V332.863z"/>
	
		<linearGradient id="SVGID_38_" gradientUnits="userSpaceOnUse" x1="227.7266" y1="201.3057" x2="227.7266" y2="195.3057" gradientTransform="matrix(0.75 0 0 -0.75 -118.5138 507.2208)">
		<stop  offset="0" style="stop-color:#BC9C53"/>
		<stop  offset="0.15" style="stop-color:#FED681"/>
		<stop  offset="0.25" style="stop-color:#FEE8C2"/>
		<stop  offset="0.52" style="stop-color:#DEB863"/>
		<stop  offset="0.69" style="stop-color:#C6A457"/>
		<stop  offset="0.8" style="stop-color:#BB9B52"/>
		<stop  offset="0.92" style="stop-color:#B0924D"/>
		<stop  offset="1" style="stop-color:#CBA859"/>
	</linearGradient>
	<path fill="url(#SVGID_38_)" d="M33.906,356.242h36.75c0,0,0.602,0.477,0.602,1.063l0.148,1.938c0,0.75-0.547,1.25-1.035,1.25
		l-36.465,0.25c0,0-0.75-0.723-0.75-1.313v-2.438c0,0,0.395-0.75,0.887-0.75H33.906z"/>
	
		<linearGradient id="SVGID_39_" gradientUnits="userSpaceOnUse" x1="227.7266" y1="201.3027" x2="227.7266" y2="195.3027" gradientTransform="matrix(0.75 0 0 -0.75 -118.5138 521.5665)">
		<stop  offset="0" style="stop-color:#BC9C53"/>
		<stop  offset="0.15" style="stop-color:#FED681"/>
		<stop  offset="0.25" style="stop-color:#FEE8C2"/>
		<stop  offset="0.52" style="stop-color:#DEB863"/>
		<stop  offset="0.69" style="stop-color:#C6A457"/>
		<stop  offset="0.8" style="stop-color:#BB9B52"/>
		<stop  offset="0.92" style="stop-color:#B0924D"/>
		<stop  offset="1" style="stop-color:#CBA859"/>
	</linearGradient>
	<path fill="url(#SVGID_39_)" d="M33.906,370.589h36.75c0,0,0.602,0.477,0.602,1.063l0.148,1.938c0,0.75-0.547,1.25-1.035,1.25
		l-36.465,0.25c0,0-0.75-0.727-0.75-1.313v-2.438c0,0,0.395-0.75,0.887-0.75H33.906z"/>
	
		<linearGradient id="SVGID_40_" gradientUnits="userSpaceOnUse" x1="227.7266" y1="201.3057" x2="227.7266" y2="195.3057" gradientTransform="matrix(0.75 0 0 -0.75 -118.5138 535.9513)">
		<stop  offset="0" style="stop-color:#BC9C53"/>
		<stop  offset="0.15" style="stop-color:#FED681"/>
		<stop  offset="0.25" style="stop-color:#FEE8C2"/>
		<stop  offset="0.52" style="stop-color:#DEB863"/>
		<stop  offset="0.69" style="stop-color:#C6A457"/>
		<stop  offset="0.8" style="stop-color:#BB9B52"/>
		<stop  offset="0.92" style="stop-color:#B0924D"/>
		<stop  offset="1" style="stop-color:#CBA859"/>
	</linearGradient>
	<path fill="url(#SVGID_40_)" d="M33.906,384.972h36.75c0,0,0.602,0.477,0.602,1.063l0.148,1.938c0,0.75-0.547,1.25-1.035,1.25
		l-36.465,0.25c0,0-0.75-0.727-0.75-1.313v-2.438c0,0,0.395-0.75,0.887-0.75H33.906z"/>
	
		<linearGradient id="SVGID_41_" gradientUnits="userSpaceOnUse" x1="227.7266" y1="201.3057" x2="227.7266" y2="195.3057" gradientTransform="matrix(0.75 0 0 -0.75 -118.5138 550.7911)">
		<stop  offset="0" style="stop-color:#BC9C53"/>
		<stop  offset="0.15" style="stop-color:#FED681"/>
		<stop  offset="0.25" style="stop-color:#FEE8C2"/>
		<stop  offset="0.52" style="stop-color:#DEB863"/>
		<stop  offset="0.69" style="stop-color:#C6A457"/>
		<stop  offset="0.8" style="stop-color:#BB9B52"/>
		<stop  offset="0.92" style="stop-color:#B0924D"/>
		<stop  offset="1" style="stop-color:#CBA859"/>
	</linearGradient>
	<path fill="url(#SVGID_41_)" d="M33.906,399.812h36.75c0,0,0.602,0.477,0.602,1.063l0.148,1.938c0,0.75-0.547,1.25-1.035,1.25
		l-36.465,0.25c0,0-0.75-0.723-0.75-1.313v-2.438c0,0,0.395-0.75,0.887-0.75H33.906z"/>
	
		<linearGradient id="SVGID_42_" gradientUnits="userSpaceOnUse" x1="227.7266" y1="201.3047" x2="227.7266" y2="195.3047" gradientTransform="matrix(0.75 0 0 -0.75 -118.5138 564.6808)">
		<stop  offset="0" style="stop-color:#BC9C53"/>
		<stop  offset="0.15" style="stop-color:#FED681"/>
		<stop  offset="0.25" style="stop-color:#FEE8C2"/>
		<stop  offset="0.52" style="stop-color:#DEB863"/>
		<stop  offset="0.69" style="stop-color:#C6A457"/>
		<stop  offset="0.8" style="stop-color:#BB9B52"/>
		<stop  offset="0.92" style="stop-color:#B0924D"/>
		<stop  offset="1" style="stop-color:#CBA859"/>
	</linearGradient>
	<path fill="url(#SVGID_42_)" d="M33.906,413.703h36.75c0,0,0.602,0.477,0.602,1.063l0.148,1.938c0,0.75-0.547,1.25-1.035,1.25
		l-36.465,0.25c0,0-0.75-0.727-0.75-1.313v-2.438c0,0,0.395-0.75,0.887-0.75H33.906z"/>
	
		<linearGradient id="SVGID_43_" gradientUnits="userSpaceOnUse" x1="227.7266" y1="201.3008" x2="227.7266" y2="195.3008" gradientTransform="matrix(0.75 0 0 -0.75 -118.5138 579.046)">
		<stop  offset="0" style="stop-color:#BC9C53"/>
		<stop  offset="0.15" style="stop-color:#FED681"/>
		<stop  offset="0.25" style="stop-color:#FEE8C2"/>
		<stop  offset="0.52" style="stop-color:#DEB863"/>
		<stop  offset="0.69" style="stop-color:#C6A457"/>
		<stop  offset="0.8" style="stop-color:#BB9B52"/>
		<stop  offset="0.92" style="stop-color:#B0924D"/>
		<stop  offset="1" style="stop-color:#CBA859"/>
	</linearGradient>
	<path fill="url(#SVGID_43_)" d="M33.906,428.07h36.75c0,0,0.602,0.473,0.602,1.063l0.148,1.938c0,0.75-0.547,1.25-1.035,1.25
		l-36.465,0.25c0,0-0.75-0.727-0.75-1.313v-2.438c0,0,0.395-0.75,0.887-0.75H33.906z"/>
	
		<linearGradient id="SVGID_44_" gradientUnits="userSpaceOnUse" x1="227.7266" y1="201.3037" x2="227.7266" y2="195.3037" gradientTransform="matrix(0.75 0 0 -0.75 -118.5138 593.4113)">
		<stop  offset="0" style="stop-color:#BC9C53"/>
		<stop  offset="0.15" style="stop-color:#FED681"/>
		<stop  offset="0.25" style="stop-color:#FEE8C2"/>
		<stop  offset="0.52" style="stop-color:#DEB863"/>
		<stop  offset="0.69" style="stop-color:#C6A457"/>
		<stop  offset="0.8" style="stop-color:#BB9B52"/>
		<stop  offset="0.92" style="stop-color:#B0924D"/>
		<stop  offset="1" style="stop-color:#CBA859"/>
	</linearGradient>
	<path fill="url(#SVGID_44_)" d="M33.906,442.433h36.75c0,0,0.602,0.477,0.602,1.063l0.148,1.938c0,0.75-0.547,1.25-1.035,1.25
		l-36.465,0.25c0,0-0.75-0.727-0.75-1.313v-2.438c0,0,0.395-0.75,0.887-0.75H33.906z"/>
	
		<linearGradient id="SVGID_45_" gradientUnits="userSpaceOnUse" x1="227.7266" y1="201.3018" x2="227.7266" y2="195.3018" gradientTransform="matrix(0.75 0 0 -0.75 -118.5138 607.7765)">
		<stop  offset="0" style="stop-color:#BC9C53"/>
		<stop  offset="0.15" style="stop-color:#FED681"/>
		<stop  offset="0.25" style="stop-color:#FEE8C2"/>
		<stop  offset="0.52" style="stop-color:#DEB863"/>
		<stop  offset="0.69" style="stop-color:#C6A457"/>
		<stop  offset="0.8" style="stop-color:#BB9B52"/>
		<stop  offset="0.92" style="stop-color:#B0924D"/>
		<stop  offset="1" style="stop-color:#CBA859"/>
	</linearGradient>
	<path fill="url(#SVGID_45_)" d="M33.906,456.8h36.75c0,0,0.602,0.473,0.602,1.063l0.148,1.938c0,0.75-0.547,1.25-1.035,1.25
		l-36.465,0.25c0,0-0.75-0.727-0.75-1.313v-2.438c0,0,0.395-0.75,0.887-0.75H33.906z"/>
	
		<linearGradient id="SVGID_46_" gradientUnits="userSpaceOnUse" x1="227.7227" y1="201.3057" x2="227.7227" y2="195.3057" gradientTransform="matrix(0.75 0 0 -0.75 -59.2609 507.2208)">
		<stop  offset="0" style="stop-color:#BC9C53"/>
		<stop  offset="0.15" style="stop-color:#FED681"/>
		<stop  offset="0.25" style="stop-color:#FEE8C2"/>
		<stop  offset="0.52" style="stop-color:#DEB863"/>
		<stop  offset="0.69" style="stop-color:#C6A457"/>
		<stop  offset="0.8" style="stop-color:#BB9B52"/>
		<stop  offset="0.92" style="stop-color:#B0924D"/>
		<stop  offset="1" style="stop-color:#CBA859"/>
	</linearGradient>
	<path fill="url(#SVGID_46_)" d="M93.156,356.242h36.75c0,0,0.602,0.477,0.602,1.063l0.148,1.938c0,0.75-0.543,1.25-1.031,1.25
		l-36.469,0.25c0,0-0.75-0.723-0.75-1.313v-2.438c0,0,0.398-0.75,0.887-0.75H93.156z"/>
	
		<linearGradient id="SVGID_47_" gradientUnits="userSpaceOnUse" x1="227.7227" y1="201.3027" x2="227.7227" y2="195.3027" gradientTransform="matrix(0.75 0 0 -0.75 -59.2609 521.5665)">
		<stop  offset="0" style="stop-color:#BC9C53"/>
		<stop  offset="0.15" style="stop-color:#FED681"/>
		<stop  offset="0.25" style="stop-color:#FEE8C2"/>
		<stop  offset="0.52" style="stop-color:#DEB863"/>
		<stop  offset="0.69" style="stop-color:#C6A457"/>
		<stop  offset="0.8" style="stop-color:#BB9B52"/>
		<stop  offset="0.92" style="stop-color:#B0924D"/>
		<stop  offset="1" style="stop-color:#CBA859"/>
	</linearGradient>
	<path fill="url(#SVGID_47_)" d="M93.156,370.589h36.75c0,0,0.602,0.477,0.602,1.063l0.148,1.938c0,0.75-0.543,1.25-1.031,1.25
		l-36.469,0.25c0,0-0.75-0.727-0.75-1.313v-2.438c0,0,0.398-0.75,0.887-0.75H93.156z"/>
	
		<linearGradient id="SVGID_48_" gradientUnits="userSpaceOnUse" x1="227.7227" y1="201.3057" x2="227.7227" y2="195.3057" gradientTransform="matrix(0.75 0 0 -0.75 -59.2609 535.9513)">
		<stop  offset="0" style="stop-color:#BC9C53"/>
		<stop  offset="0.15" style="stop-color:#FED681"/>
		<stop  offset="0.25" style="stop-color:#FEE8C2"/>
		<stop  offset="0.52" style="stop-color:#DEB863"/>
		<stop  offset="0.69" style="stop-color:#C6A457"/>
		<stop  offset="0.8" style="stop-color:#BB9B52"/>
		<stop  offset="0.92" style="stop-color:#B0924D"/>
		<stop  offset="1" style="stop-color:#CBA859"/>
	</linearGradient>
	<path fill="url(#SVGID_48_)" d="M93.156,384.972h36.75c0,0,0.602,0.477,0.602,1.063l0.148,1.938c0,0.75-0.543,1.25-1.031,1.25
		l-36.469,0.25c0,0-0.75-0.727-0.75-1.313v-2.438c0,0,0.398-0.75,0.887-0.75H93.156z"/>
	
		<linearGradient id="SVGID_49_" gradientUnits="userSpaceOnUse" x1="227.7227" y1="201.3057" x2="227.7227" y2="195.3057" gradientTransform="matrix(0.75 0 0 -0.75 -59.2609 550.7911)">
		<stop  offset="0" style="stop-color:#BC9C53"/>
		<stop  offset="0.15" style="stop-color:#FED681"/>
		<stop  offset="0.25" style="stop-color:#FEE8C2"/>
		<stop  offset="0.52" style="stop-color:#DEB863"/>
		<stop  offset="0.69" style="stop-color:#C6A457"/>
		<stop  offset="0.8" style="stop-color:#BB9B52"/>
		<stop  offset="0.92" style="stop-color:#B0924D"/>
		<stop  offset="1" style="stop-color:#CBA859"/>
	</linearGradient>
	<path fill="url(#SVGID_49_)" d="M93.156,399.812h36.75c0,0,0.602,0.477,0.602,1.063l0.148,1.938c0,0.75-0.543,1.25-1.031,1.25
		l-36.469,0.25c0,0-0.75-0.723-0.75-1.313v-2.438c0,0,0.398-0.75,0.887-0.75H93.156z"/>
	
		<linearGradient id="SVGID_50_" gradientUnits="userSpaceOnUse" x1="227.7227" y1="201.3047" x2="227.7227" y2="195.3047" gradientTransform="matrix(0.75 0 0 -0.75 -59.2609 564.6808)">
		<stop  offset="0" style="stop-color:#BC9C53"/>
		<stop  offset="0.15" style="stop-color:#FED681"/>
		<stop  offset="0.25" style="stop-color:#FEE8C2"/>
		<stop  offset="0.52" style="stop-color:#DEB863"/>
		<stop  offset="0.69" style="stop-color:#C6A457"/>
		<stop  offset="0.8" style="stop-color:#BB9B52"/>
		<stop  offset="0.92" style="stop-color:#B0924D"/>
		<stop  offset="1" style="stop-color:#CBA859"/>
	</linearGradient>
	<path fill="url(#SVGID_50_)" d="M93.156,413.703h36.75c0,0,0.602,0.477,0.602,1.063l0.148,1.938c0,0.75-0.543,1.25-1.031,1.25
		l-36.469,0.25c0,0-0.75-0.727-0.75-1.313v-2.438c0,0,0.398-0.75,0.887-0.75H93.156z"/>
	
		<linearGradient id="SVGID_51_" gradientUnits="userSpaceOnUse" x1="227.7227" y1="201.3008" x2="227.7227" y2="195.3008" gradientTransform="matrix(0.75 0 0 -0.75 -59.2609 579.046)">
		<stop  offset="0" style="stop-color:#BC9C53"/>
		<stop  offset="0.15" style="stop-color:#FED681"/>
		<stop  offset="0.25" style="stop-color:#FEE8C2"/>
		<stop  offset="0.52" style="stop-color:#DEB863"/>
		<stop  offset="0.69" style="stop-color:#C6A457"/>
		<stop  offset="0.8" style="stop-color:#BB9B52"/>
		<stop  offset="0.92" style="stop-color:#B0924D"/>
		<stop  offset="1" style="stop-color:#CBA859"/>
	</linearGradient>
	<path fill="url(#SVGID_51_)" d="M93.156,428.07h36.75c0,0,0.602,0.473,0.602,1.063l0.148,1.938c0,0.75-0.543,1.25-1.031,1.25
		l-36.469,0.25c0,0-0.75-0.727-0.75-1.313v-2.438c0,0,0.398-0.75,0.887-0.75H93.156z"/>
	
		<linearGradient id="SVGID_52_" gradientUnits="userSpaceOnUse" x1="227.7227" y1="201.3037" x2="227.7227" y2="195.3037" gradientTransform="matrix(0.75 0 0 -0.75 -59.2609 593.4113)">
		<stop  offset="0" style="stop-color:#BC9C53"/>
		<stop  offset="0.15" style="stop-color:#FED681"/>
		<stop  offset="0.25" style="stop-color:#FEE8C2"/>
		<stop  offset="0.52" style="stop-color:#DEB863"/>
		<stop  offset="0.69" style="stop-color:#C6A457"/>
		<stop  offset="0.8" style="stop-color:#BB9B52"/>
		<stop  offset="0.92" style="stop-color:#B0924D"/>
		<stop  offset="1" style="stop-color:#CBA859"/>
	</linearGradient>
	<path fill="url(#SVGID_52_)" d="M93.156,442.433h36.75c0,0,0.602,0.477,0.602,1.063l0.148,1.938c0,0.75-0.543,1.25-1.031,1.25
		l-36.469,0.25c0,0-0.75-0.727-0.75-1.313v-2.438c0,0,0.398-0.75,0.887-0.75H93.156z"/>
	
		<linearGradient id="SVGID_53_" gradientUnits="userSpaceOnUse" x1="227.7227" y1="201.3018" x2="227.7227" y2="195.3018" gradientTransform="matrix(0.75 0 0 -0.75 -59.2609 607.7765)">
		<stop  offset="0" style="stop-color:#BC9C53"/>
		<stop  offset="0.15" style="stop-color:#FED681"/>
		<stop  offset="0.25" style="stop-color:#FEE8C2"/>
		<stop  offset="0.52" style="stop-color:#DEB863"/>
		<stop  offset="0.69" style="stop-color:#C6A457"/>
		<stop  offset="0.8" style="stop-color:#BB9B52"/>
		<stop  offset="0.92" style="stop-color:#B0924D"/>
		<stop  offset="1" style="stop-color:#CBA859"/>
	</linearGradient>
	<path fill="url(#SVGID_53_)" d="M93.156,456.8h36.75c0,0,0.602,0.473,0.602,1.063l0.148,1.938c0,0.75-0.543,1.25-1.031,1.25
		l-36.469,0.25c0,0-0.75-0.727-0.75-1.313v-2.438c0,0,0.398-0.75,0.887-0.75H93.156z"/>
	
		<linearGradient id="SVGID_54_" gradientUnits="userSpaceOnUse" x1="227.7246" y1="201.3057" x2="227.7246" y2="195.3057" gradientTransform="matrix(0.75 0 0 -0.75 -0.0079 507.2208)">
		<stop  offset="0" style="stop-color:#BC9C53"/>
		<stop  offset="0.15" style="stop-color:#FED681"/>
		<stop  offset="0.25" style="stop-color:#FEE8C2"/>
		<stop  offset="0.52" style="stop-color:#DEB863"/>
		<stop  offset="0.69" style="stop-color:#C6A457"/>
		<stop  offset="0.8" style="stop-color:#BB9B52"/>
		<stop  offset="0.92" style="stop-color:#B0924D"/>
		<stop  offset="1" style="stop-color:#CBA859"/>
	</linearGradient>
	<path fill="url(#SVGID_54_)" d="M152.41,356.242h36.75c0,0,0.602,0.477,0.602,1.063l0.148,1.938c0,0.75-0.543,1.25-1.035,1.25
		l-36.465,0.25c0,0-0.75-0.723-0.75-1.313v-2.438c0,0,0.398-0.75,0.887-0.75H152.41z"/>
	
		<linearGradient id="SVGID_55_" gradientUnits="userSpaceOnUse" x1="227.7246" y1="201.3027" x2="227.7246" y2="195.3027" gradientTransform="matrix(0.75 0 0 -0.75 -0.0079 521.5665)">
		<stop  offset="0" style="stop-color:#BC9C53"/>
		<stop  offset="0.15" style="stop-color:#FED681"/>
		<stop  offset="0.25" style="stop-color:#FEE8C2"/>
		<stop  offset="0.52" style="stop-color:#DEB863"/>
		<stop  offset="0.69" style="stop-color:#C6A457"/>
		<stop  offset="0.8" style="stop-color:#BB9B52"/>
		<stop  offset="0.92" style="stop-color:#B0924D"/>
		<stop  offset="1" style="stop-color:#CBA859"/>
	</linearGradient>
	<path fill="url(#SVGID_55_)" d="M152.41,370.589h36.75c0,0,0.602,0.477,0.602,1.063l0.148,1.938c0,0.75-0.543,1.25-1.035,1.25
		l-36.465,0.25c0,0-0.75-0.727-0.75-1.313v-2.438c0,0,0.398-0.75,0.887-0.75H152.41z"/>
	
		<linearGradient id="SVGID_56_" gradientUnits="userSpaceOnUse" x1="227.7246" y1="201.3057" x2="227.7246" y2="195.3057" gradientTransform="matrix(0.75 0 0 -0.75 -0.0079 535.9513)">
		<stop  offset="0" style="stop-color:#BC9C53"/>
		<stop  offset="0.15" style="stop-color:#FED681"/>
		<stop  offset="0.25" style="stop-color:#FEE8C2"/>
		<stop  offset="0.52" style="stop-color:#DEB863"/>
		<stop  offset="0.69" style="stop-color:#C6A457"/>
		<stop  offset="0.8" style="stop-color:#BB9B52"/>
		<stop  offset="0.92" style="stop-color:#B0924D"/>
		<stop  offset="1" style="stop-color:#CBA859"/>
	</linearGradient>
	<path fill="url(#SVGID_56_)" d="M152.41,384.972h36.75c0,0,0.602,0.477,0.602,1.063l0.148,1.938c0,0.75-0.543,1.25-1.035,1.25
		l-36.465,0.25c0,0-0.75-0.727-0.75-1.313v-2.438c0,0,0.398-0.75,0.887-0.75H152.41z"/>
	
		<linearGradient id="SVGID_57_" gradientUnits="userSpaceOnUse" x1="227.7246" y1="201.3057" x2="227.7246" y2="195.3057" gradientTransform="matrix(0.75 0 0 -0.75 -0.0079 550.7911)">
		<stop  offset="0" style="stop-color:#BC9C53"/>
		<stop  offset="0.15" style="stop-color:#FED681"/>
		<stop  offset="0.25" style="stop-color:#FEE8C2"/>
		<stop  offset="0.52" style="stop-color:#DEB863"/>
		<stop  offset="0.69" style="stop-color:#C6A457"/>
		<stop  offset="0.8" style="stop-color:#BB9B52"/>
		<stop  offset="0.92" style="stop-color:#B0924D"/>
		<stop  offset="1" style="stop-color:#CBA859"/>
	</linearGradient>
	<path fill="url(#SVGID_57_)" d="M152.41,399.812h36.75c0,0,0.602,0.477,0.602,1.063l0.148,1.938c0,0.75-0.543,1.25-1.035,1.25
		l-36.465,0.25c0,0-0.75-0.723-0.75-1.313v-2.438c0,0,0.398-0.75,0.887-0.75H152.41z"/>
	
		<linearGradient id="SVGID_58_" gradientUnits="userSpaceOnUse" x1="227.7246" y1="201.3047" x2="227.7246" y2="195.3047" gradientTransform="matrix(0.75 0 0 -0.75 -0.0079 564.6808)">
		<stop  offset="0" style="stop-color:#BC9C53"/>
		<stop  offset="0.15" style="stop-color:#FED681"/>
		<stop  offset="0.25" style="stop-color:#FEE8C2"/>
		<stop  offset="0.52" style="stop-color:#DEB863"/>
		<stop  offset="0.69" style="stop-color:#C6A457"/>
		<stop  offset="0.8" style="stop-color:#BB9B52"/>
		<stop  offset="0.92" style="stop-color:#B0924D"/>
		<stop  offset="1" style="stop-color:#CBA859"/>
	</linearGradient>
	<path fill="url(#SVGID_58_)" d="M152.41,413.703h36.75c0,0,0.602,0.477,0.602,1.063l0.148,1.938c0,0.75-0.543,1.25-1.035,1.25
		l-36.465,0.25c0,0-0.75-0.727-0.75-1.313v-2.438c0,0,0.398-0.75,0.887-0.75H152.41z"/>
	
		<linearGradient id="SVGID_59_" gradientUnits="userSpaceOnUse" x1="227.7246" y1="201.3008" x2="227.7246" y2="195.3008" gradientTransform="matrix(0.75 0 0 -0.75 -0.0079 579.046)">
		<stop  offset="0" style="stop-color:#BC9C53"/>
		<stop  offset="0.15" style="stop-color:#FED681"/>
		<stop  offset="0.25" style="stop-color:#FEE8C2"/>
		<stop  offset="0.52" style="stop-color:#DEB863"/>
		<stop  offset="0.69" style="stop-color:#C6A457"/>
		<stop  offset="0.8" style="stop-color:#BB9B52"/>
		<stop  offset="0.92" style="stop-color:#B0924D"/>
		<stop  offset="1" style="stop-color:#CBA859"/>
	</linearGradient>
	<path fill="url(#SVGID_59_)" d="M152.41,428.07h36.75c0,0,0.602,0.473,0.602,1.063l0.148,1.938c0,0.75-0.543,1.25-1.035,1.25
		l-36.465,0.25c0,0-0.75-0.727-0.75-1.313v-2.438c0,0,0.398-0.75,0.887-0.75H152.41z"/>
	
		<linearGradient id="SVGID_60_" gradientUnits="userSpaceOnUse" x1="227.7246" y1="201.3037" x2="227.7246" y2="195.3037" gradientTransform="matrix(0.75 0 0 -0.75 -0.0079 593.4113)">
		<stop  offset="0" style="stop-color:#BC9C53"/>
		<stop  offset="0.15" style="stop-color:#FED681"/>
		<stop  offset="0.25" style="stop-color:#FEE8C2"/>
		<stop  offset="0.52" style="stop-color:#DEB863"/>
		<stop  offset="0.69" style="stop-color:#C6A457"/>
		<stop  offset="0.8" style="stop-color:#BB9B52"/>
		<stop  offset="0.92" style="stop-color:#B0924D"/>
		<stop  offset="1" style="stop-color:#CBA859"/>
	</linearGradient>
	<path fill="url(#SVGID_60_)" d="M152.41,442.433h36.75c0,0,0.602,0.477,0.602,1.063l0.148,1.938c0,0.75-0.543,1.25-1.035,1.25
		l-36.465,0.25c0,0-0.75-0.727-0.75-1.313v-2.438c0,0,0.398-0.75,0.887-0.75H152.41z"/>
	
		<linearGradient id="SVGID_61_" gradientUnits="userSpaceOnUse" x1="227.7246" y1="201.3018" x2="227.7246" y2="195.3018" gradientTransform="matrix(0.75 0 0 -0.75 -0.0079 607.7765)">
		<stop  offset="0" style="stop-color:#BC9C53"/>
		<stop  offset="0.15" style="stop-color:#FED681"/>
		<stop  offset="0.25" style="stop-color:#FEE8C2"/>
		<stop  offset="0.52" style="stop-color:#DEB863"/>
		<stop  offset="0.69" style="stop-color:#C6A457"/>
		<stop  offset="0.8" style="stop-color:#BB9B52"/>
		<stop  offset="0.92" style="stop-color:#B0924D"/>
		<stop  offset="1" style="stop-color:#CBA859"/>
	</linearGradient>
	<path fill="url(#SVGID_61_)" d="M152.41,456.8h36.75c0,0,0.602,0.473,0.602,1.063l0.148,1.938c0,0.75-0.543,1.25-1.035,1.25
		l-36.465,0.25c0,0-0.75-0.727-0.75-1.313v-2.438c0,0,0.398-0.75,0.887-0.75H152.41z"/>
	<path fill="#595757" d="M232.875,122.234h114v51h-114V122.234z"/>
</g>
</svg>
