<?xml version="1.0" encoding="utf-8"?>
<!-- Generator: Adobe Illustrator 16.0.0, SVG Export Plug-In . SVG Version: 6.00 Build 0)  -->
<!DOCTYPE svg PUBLIC "-//W3C//DTD SVG 1.1//EN" "http://www.w3.org/Graphics/SVG/1.1/DTD/svg11.dtd">
<svg preserveAspectRatio="none" version="1.1" id="图层_1" xmlns="http://www.w3.org/2000/svg" xmlns:xlink="http://www.w3.org/1999/xlink" x="0px" y="0px"
	 width="561.773px" height="474.617px" viewBox="1.445 89.082 561.773 474.617"
	 enable-background="new 1.445 89.082 561.773 474.617" xml:space="preserve">
<g id="surface1016">
	
		<linearGradient id="SVGID_1_" gradientUnits="userSpaceOnUse" x1="485.7222" y1="201.3037" x2="485.7222" y2="110.3027" gradientTransform="matrix(0.75 0 0 -0.75 -81.7648 316.422)">
		<stop  offset="0" style="stop-color:#8B9453"/>
		<stop  offset="0.15" style="stop-color:#C1CC81"/>
		<stop  offset="0.25" style="stop-color:#CAD397"/>
		<stop  offset="0.52" style="stop-color:#A4AF63"/>
		<stop  offset="0.69" style="stop-color:#929B57"/>
		<stop  offset="0.74" style="stop-color:#899252"/>
		<stop  offset="1" style="stop-color:#5B6235"/>
	</linearGradient>
	<path fill="url(#SVGID_1_)" d="M69.902,165.445h425.25v68.25H69.902V165.445z"/>
	
		<linearGradient id="SVGID_2_" gradientUnits="userSpaceOnUse" x1="473.7241" y1="201.3057" x2="473.7241" y2="93.3057" gradientTransform="matrix(0.75 0 0 -0.75 -72.942 384.4982)">
		<stop  offset="0" style="stop-color:#A3A878"/>
		<stop  offset="0.01" style="stop-color:#ECF2C0"/>
		<stop  offset="0.02" style="stop-color:#D5DB9D"/>
		<stop  offset="0.64" style="stop-color:#D1D89B"/>
		<stop  offset="0.99" style="stop-color:#CDD397"/>
		<stop  offset="1" style="stop-color:#979C6F"/>
	</linearGradient>
	<path fill="url(#SVGID_2_)" d="M78.727,233.52h407.25v81H78.727V233.52z"/>
	<path fill="#BEC67D" d="M78.727,326.242h407.25v237H78.727V326.242z"/>
	
		<linearGradient id="SVGID_3_" gradientUnits="userSpaceOnUse" x1="473.7241" y1="201.3066" x2="473.7241" y2="184.3057" gradientTransform="matrix(0.75 0 0 -0.75 -72.942 701.9279)">
		<stop  offset="0" style="stop-color:#A3A878"/>
		<stop  offset="0.01" style="stop-color:#ECF2C0"/>
		<stop  offset="0.02" style="stop-color:#D5DB9D"/>
		<stop  offset="0.64" style="stop-color:#D1D89B"/>
		<stop  offset="0.99" style="stop-color:#CDD397"/>
		<stop  offset="1" style="stop-color:#979C6F"/>
	</linearGradient>
	<path fill="url(#SVGID_3_)" d="M78.727,550.949h407.25v12.75H78.727V550.949z"/>
	
		<linearGradient id="SVGID_4_" gradientUnits="userSpaceOnUse" x1="473.7241" y1="201.3066" x2="473.7241" y2="184.3057" gradientTransform="matrix(0.75 0 0 -0.75 -72.942 464.8107)">
		<stop  offset="0" style="stop-color:#A3A878"/>
		<stop  offset="0.01" style="stop-color:#ECF2C0"/>
		<stop  offset="0.02" style="stop-color:#D5DB9D"/>
		<stop  offset="0.64" style="stop-color:#D1D89B"/>
		<stop  offset="0.99" style="stop-color:#CDD397"/>
		<stop  offset="1" style="stop-color:#979C6F"/>
	</linearGradient>
	<path fill="url(#SVGID_4_)" d="M78.727,313.832h407.25v12.75H78.727V313.832z"/>
	
		<linearGradient id="SVGID_5_" gradientUnits="userSpaceOnUse" x1="220.2241" y1="51.3047" x2="202.2241" y2="51.3047" gradientTransform="matrix(0.75 0 0 -0.75 -13.1139 477.215)">
		<stop  offset="0" style="stop-color:#A3A878"/>
		<stop  offset="0.01" style="stop-color:#ECF2C0"/>
		<stop  offset="0.02" style="stop-color:#D5DB9D"/>
		<stop  offset="0.64" style="stop-color:#D1D89B"/>
		<stop  offset="0.99" style="stop-color:#CDD397"/>
		<stop  offset="1" style="stop-color:#979C6F"/>
	</linearGradient>
	<path fill="url(#SVGID_5_)" d="M138.555,326.238h13.5v225h-13.5V326.238z"/>
	
		<linearGradient id="SVGID_6_" gradientUnits="userSpaceOnUse" x1="220.2256" y1="51.3047" x2="202.2256" y2="51.3047" gradientTransform="matrix(0.75 0 0 -0.75 262.1971 477.2159)">
		<stop  offset="0" style="stop-color:#A3A878"/>
		<stop  offset="0.01" style="stop-color:#ECF2C0"/>
		<stop  offset="0.02" style="stop-color:#D5DB9D"/>
		<stop  offset="0.64" style="stop-color:#D1D89B"/>
		<stop  offset="0.99" style="stop-color:#CDD397"/>
		<stop  offset="1" style="stop-color:#979C6F"/>
	</linearGradient>
	<path fill="url(#SVGID_6_)" d="M413.867,326.238h13.5v225h-13.5V326.238z"/>
	
		<linearGradient id="SVGID_7_" gradientUnits="userSpaceOnUse" x1="220.2227" y1="51.3047" x2="202.2227" y2="51.3047" gradientTransform="matrix(0.75 0 0 -0.75 66.8793 477.2159)">
		<stop  offset="0" style="stop-color:#A3A878"/>
		<stop  offset="0.01" style="stop-color:#ECF2C0"/>
		<stop  offset="0.02" style="stop-color:#D5DB9D"/>
		<stop  offset="0.64" style="stop-color:#D1D89B"/>
		<stop  offset="0.99" style="stop-color:#CDD397"/>
		<stop  offset="1" style="stop-color:#979C6F"/>
	</linearGradient>
	<path fill="url(#SVGID_7_)" d="M218.547,326.238h13.5v225h-13.5V326.238z"/>
	
		<linearGradient id="SVGID_8_" gradientUnits="userSpaceOnUse" x1="220.2256" y1="51.3047" x2="202.2256" y2="51.3047" gradientTransform="matrix(0.75 0 0 -0.75 182.205 477.2159)">
		<stop  offset="0" style="stop-color:#A3A878"/>
		<stop  offset="0.01" style="stop-color:#ECF2C0"/>
		<stop  offset="0.02" style="stop-color:#D5DB9D"/>
		<stop  offset="0.64" style="stop-color:#D1D89B"/>
		<stop  offset="0.99" style="stop-color:#CDD397"/>
		<stop  offset="1" style="stop-color:#979C6F"/>
	</linearGradient>
	<path fill="url(#SVGID_8_)" d="M333.875,326.238h13.5v225h-13.5V326.238z"/>
	
		<linearGradient id="SVGID_9_" gradientUnits="userSpaceOnUse" x1="473.7241" y1="201.3066" x2="473.7241" y2="184.3057" gradientTransform="matrix(0.75 0 0 -0.75 -72.942 543.8497)">
		<stop  offset="0" style="stop-color:#A3A878"/>
		<stop  offset="0.01" style="stop-color:#ECF2C0"/>
		<stop  offset="0.02" style="stop-color:#D5DB9D"/>
		<stop  offset="0.64" style="stop-color:#D1D89B"/>
		<stop  offset="0.99" style="stop-color:#CDD397"/>
		<stop  offset="1" style="stop-color:#979C6F"/>
	</linearGradient>
	<path fill="url(#SVGID_9_)" d="M78.727,392.871h407.25v12.75H78.727V392.871z"/>
	
		<linearGradient id="SVGID_10_" gradientUnits="userSpaceOnUse" x1="473.7241" y1="201.3057" x2="473.7241" y2="184.3047" gradientTransform="matrix(0.75 0 0 -0.75 -72.942 622.8888)">
		<stop  offset="0" style="stop-color:#A3A878"/>
		<stop  offset="0.01" style="stop-color:#ECF2C0"/>
		<stop  offset="0.02" style="stop-color:#D5DB9D"/>
		<stop  offset="0.64" style="stop-color:#D1D89B"/>
		<stop  offset="0.99" style="stop-color:#CDD397"/>
		<stop  offset="1" style="stop-color:#979C6F"/>
	</linearGradient>
	<path fill="url(#SVGID_10_)" d="M78.727,471.91h407.25v12.75H78.727V471.91z"/>
	
		<linearGradient id="SVGID_11_" gradientUnits="userSpaceOnUse" x1="242.7266" y1="201.3027" x2="242.7266" y2="97.3027" gradientTransform="matrix(0.75 0 0 -0.75 -72.4591 306.7306)">
		<stop  offset="0" style="stop-color:#9AA072"/>
		<stop  offset="0.15" style="stop-color:#D4DBA3"/>
		<stop  offset="0.25" style="stop-color:#DADFB1"/>
		<stop  offset="0.52" style="stop-color:#B7BD87"/>
		<stop  offset="0.69" style="stop-color:#A2A878"/>
		<stop  offset="0.74" style="stop-color:#999E71"/>
		<stop  offset="1" style="stop-color:#666A4A"/>
	</linearGradient>
	<path fill="url(#SVGID_11_)" d="M79.211,155.754h60.75v78h-60.75V155.754z"/>
	
		<linearGradient id="SVGID_12_" gradientUnits="userSpaceOnUse" x1="242.7266" y1="201.3037" x2="242.7266" y2="97.3027" gradientTransform="matrix(0.75 0 0 -0.75 274.1932 306.7306)">
		<stop  offset="0" style="stop-color:#9AA072"/>
		<stop  offset="0.15" style="stop-color:#D4DBA3"/>
		<stop  offset="0.25" style="stop-color:#DADFB1"/>
		<stop  offset="0.52" style="stop-color:#B7BD87"/>
		<stop  offset="0.69" style="stop-color:#A2A878"/>
		<stop  offset="0.74" style="stop-color:#999E71"/>
		<stop  offset="1" style="stop-color:#666A4A"/>
	</linearGradient>
	<path fill="url(#SVGID_12_)" d="M425.863,155.754h60.75v78h-60.75V155.754z"/>
	
		<linearGradient id="SVGID_13_" gradientUnits="userSpaceOnUse" x1="247.8638" y1="201.3018" x2="247.8638" y2="-93.7959" gradientTransform="matrix(0.75 0 0 -0.75 -150.2242 240.0587)">
		<stop  offset="0" style="stop-color:#343232"/>
		<stop  offset="0.15" style="stop-color:#555454"/>
		<stop  offset="0.26" style="stop-color:#797777"/>
		<stop  offset="0.41" style="stop-color:#5D5B5B"/>
		<stop  offset="0.6" style="stop-color:#484646"/>
		<stop  offset="0.8" style="stop-color:#383636"/>
		<stop  offset="0.93" style="stop-color:#2C2B2B"/>
		<stop  offset="1" style="stop-color:#535151"/>
	</linearGradient>
	<path fill="url(#SVGID_13_)" d="M2.195,89.082h66.75c0.75,0,0.957,0.434,0.957,1.008l-0.207,219.492c0,0-0.289,0.824-0.867,0.824
		l-66.633-0.074c0,0-0.75-0.418-0.75-0.988V89.832c0,0,0.414-0.75,0.992-0.75H2.195z"/>
	
		<linearGradient id="SVGID_14_" gradientUnits="userSpaceOnUse" x1="247.8643" y1="201.3027" x2="247.8642" y2="-93.7949" gradientTransform="matrix(0.75 0 0 -0.75 343.0917 240.0587)">
		<stop  offset="0" style="stop-color:#343232"/>
		<stop  offset="0.15" style="stop-color:#555454"/>
		<stop  offset="0.26" style="stop-color:#797777"/>
		<stop  offset="0.41" style="stop-color:#5D5B5B"/>
		<stop  offset="0.6" style="stop-color:#484646"/>
		<stop  offset="0.8" style="stop-color:#383636"/>
		<stop  offset="0.93" style="stop-color:#2C2B2B"/>
		<stop  offset="1" style="stop-color:#535151"/>
	</linearGradient>
	<path fill="url(#SVGID_14_)" d="M495.511,89.082h66.75c0.75,0,0.957,0.434,0.957,1.008l-0.207,219.492c0,0-0.289,0.824-0.867,0.824
		l-66.633-0.074c0,0-0.75-0.418-0.75-0.988V89.832c0,0,0.414-0.75,0.992-0.75H495.511z"/>
	
		<linearGradient id="SVGID_15_" gradientUnits="userSpaceOnUse" x1="242.728" y1="201.3047" x2="242.728" y2="158.3047" gradientTransform="matrix(0.75 0 0 -0.75 -72.464 352.6583)">
		<stop  offset="0" style="stop-color:#A3A878"/>
		<stop  offset="0.01" style="stop-color:#ECF2C0"/>
		<stop  offset="0.02" style="stop-color:#D5DB9D"/>
		<stop  offset="0.64" style="stop-color:#D1D89B"/>
		<stop  offset="0.99" style="stop-color:#CDD397"/>
		<stop  offset="1" style="stop-color:#979C6F"/>
	</linearGradient>
	<path fill="url(#SVGID_15_)" d="M79.207,201.68h60.75v32.25h-60.75V201.68z"/>
	
		<linearGradient id="SVGID_16_" gradientUnits="userSpaceOnUse" x1="242.7266" y1="201.3057" x2="242.7266" y2="158.3047" gradientTransform="matrix(0.75 0 0 -0.75 274.1932 352.6583)">
		<stop  offset="0" style="stop-color:#A3A878"/>
		<stop  offset="0.01" style="stop-color:#ECF2C0"/>
		<stop  offset="0.02" style="stop-color:#D5DB9D"/>
		<stop  offset="0.64" style="stop-color:#D1D89B"/>
		<stop  offset="0.99" style="stop-color:#CDD397"/>
		<stop  offset="1" style="stop-color:#979C6F"/>
	</linearGradient>
	<path fill="url(#SVGID_16_)" d="M425.863,201.68h60.75v32.25h-60.75V201.68z"/>
	
		<linearGradient id="SVGID_17_" gradientUnits="userSpaceOnUse" x1="378.2241" y1="201.3018" x2="378.2241" y2="95.3027" gradientTransform="matrix(0.75 0 0 -0.75 -1.9889 385.7931)">
		<stop  offset="0" style="stop-color:#292525"/>
		<stop  offset="0.01" style="stop-color:#868584"/>
		<stop  offset="0.02" style="stop-color:#383433"/>
		<stop  offset="0.64" style="stop-color:#373332"/>
		<stop  offset="0.99" style="stop-color:#363130"/>
		<stop  offset="1" style="stop-color:#252221"/>
	</linearGradient>
	<path fill="url(#SVGID_17_)" d="M149.68,234.816h264v79.5h-264V234.816z"/>
	
		<linearGradient id="SVGID_18_" gradientUnits="userSpaceOnUse" x1="211.2275" y1="179.3042" x2="202.2275" y2="179.3042" gradientTransform="matrix(0.75 0 0 -0.75 12.6224 431.5245)">
		<stop  offset="0" style="stop-color:#3D3B3B"/>
		<stop  offset="0.01" style="stop-color:#908F8F"/>
		<stop  offset="0.02" style="stop-color:#514F4F"/>
		<stop  offset="0.64" style="stop-color:#504E4E"/>
		<stop  offset="0.99" style="stop-color:#4E4C4C"/>
		<stop  offset="1" style="stop-color:#383636"/>
	</linearGradient>
	<path fill="url(#SVGID_18_)" d="M164.293,313.546h6.75v-33h-6.75V313.546z"/>
	
		<linearGradient id="SVGID_19_" gradientUnits="userSpaceOnUse" x1="211.2227" y1="179.3042" x2="202.2227" y2="179.3042" gradientTransform="matrix(0.75 0 0 -0.75 31.8519 431.5245)">
		<stop  offset="0" style="stop-color:#3D3B3B"/>
		<stop  offset="0.01" style="stop-color:#908F8F"/>
		<stop  offset="0.02" style="stop-color:#514F4F"/>
		<stop  offset="0.64" style="stop-color:#504E4E"/>
		<stop  offset="0.99" style="stop-color:#4E4C4C"/>
		<stop  offset="1" style="stop-color:#383636"/>
	</linearGradient>
	<path fill="url(#SVGID_19_)" d="M183.52,313.546h6.75v-33h-6.75V313.546z"/>
	
		<linearGradient id="SVGID_20_" gradientUnits="userSpaceOnUse" x1="211.2241" y1="179.3042" x2="202.2241" y2="179.3042" gradientTransform="matrix(0.75 0 0 -0.75 51.0814 431.5245)">
		<stop  offset="0" style="stop-color:#3D3B3B"/>
		<stop  offset="0.01" style="stop-color:#908F8F"/>
		<stop  offset="0.02" style="stop-color:#514F4F"/>
		<stop  offset="0.64" style="stop-color:#504E4E"/>
		<stop  offset="0.99" style="stop-color:#4E4C4C"/>
		<stop  offset="1" style="stop-color:#383636"/>
	</linearGradient>
	<path fill="url(#SVGID_20_)" d="M202.75,313.546h6.75v-33h-6.75V313.546z"/>
	
		<linearGradient id="SVGID_21_" gradientUnits="userSpaceOnUse" x1="211.2246" y1="179.3042" x2="202.2246" y2="179.3042" gradientTransform="matrix(0.75 0 0 -0.75 70.3114 431.5245)">
		<stop  offset="0" style="stop-color:#3D3B3B"/>
		<stop  offset="0.01" style="stop-color:#908F8F"/>
		<stop  offset="0.02" style="stop-color:#514F4F"/>
		<stop  offset="0.64" style="stop-color:#504E4E"/>
		<stop  offset="0.99" style="stop-color:#4E4C4C"/>
		<stop  offset="1" style="stop-color:#383636"/>
	</linearGradient>
	<path fill="url(#SVGID_21_)" d="M221.98,313.546h6.75v-33h-6.75V313.546z"/>
	
		<linearGradient id="SVGID_22_" gradientUnits="userSpaceOnUse" x1="211.2266" y1="179.3042" x2="202.2266" y2="179.3042" gradientTransform="matrix(0.75 0 0 -0.75 89.5404 431.5245)">
		<stop  offset="0" style="stop-color:#3D3B3B"/>
		<stop  offset="0.01" style="stop-color:#908F8F"/>
		<stop  offset="0.02" style="stop-color:#514F4F"/>
		<stop  offset="0.64" style="stop-color:#504E4E"/>
		<stop  offset="0.99" style="stop-color:#4E4C4C"/>
		<stop  offset="1" style="stop-color:#383636"/>
	</linearGradient>
	<path fill="url(#SVGID_22_)" d="M241.211,313.546h6.75v-33h-6.75V313.546z"/>
	
		<linearGradient id="SVGID_23_" gradientUnits="userSpaceOnUse" x1="211.2227" y1="179.3042" x2="202.2227" y2="179.3042" gradientTransform="matrix(0.75 0 0 -0.75 108.7704 431.5245)">
		<stop  offset="0" style="stop-color:#3D3B3B"/>
		<stop  offset="0.01" style="stop-color:#908F8F"/>
		<stop  offset="0.02" style="stop-color:#514F4F"/>
		<stop  offset="0.64" style="stop-color:#504E4E"/>
		<stop  offset="0.99" style="stop-color:#4E4C4C"/>
		<stop  offset="1" style="stop-color:#383636"/>
	</linearGradient>
	<path fill="url(#SVGID_23_)" d="M260.438,313.546h6.75v-33h-6.75V313.546z"/>
	
		<linearGradient id="SVGID_24_" gradientUnits="userSpaceOnUse" x1="211.2236" y1="179.3042" x2="202.2246" y2="179.3042" gradientTransform="matrix(0.75 0 0 -0.75 127.9994 431.5245)">
		<stop  offset="0" style="stop-color:#3D3B3B"/>
		<stop  offset="0.01" style="stop-color:#908F8F"/>
		<stop  offset="0.02" style="stop-color:#514F4F"/>
		<stop  offset="0.64" style="stop-color:#504E4E"/>
		<stop  offset="0.99" style="stop-color:#4E4C4C"/>
		<stop  offset="1" style="stop-color:#383636"/>
	</linearGradient>
	<path fill="url(#SVGID_24_)" d="M279.668,313.546h6.75v-33h-6.75V313.546z"/>
	
		<linearGradient id="SVGID_25_" gradientUnits="userSpaceOnUse" x1="211.2241" y1="179.3042" x2="202.2241" y2="179.3042" gradientTransform="matrix(0.75 0 0 -0.75 147.2294 431.5245)">
		<stop  offset="0" style="stop-color:#3D3B3B"/>
		<stop  offset="0.01" style="stop-color:#908F8F"/>
		<stop  offset="0.02" style="stop-color:#514F4F"/>
		<stop  offset="0.64" style="stop-color:#504E4E"/>
		<stop  offset="0.99" style="stop-color:#4E4C4C"/>
		<stop  offset="1" style="stop-color:#383636"/>
	</linearGradient>
	<path fill="url(#SVGID_25_)" d="M298.898,313.546h6.75v-33h-6.75V313.546z"/>
	
		<linearGradient id="SVGID_26_" gradientUnits="userSpaceOnUse" x1="211.2256" y1="179.3042" x2="202.2256" y2="179.3042" gradientTransform="matrix(0.75 0 0 -0.75 166.4589 431.5245)">
		<stop  offset="0" style="stop-color:#3D3B3B"/>
		<stop  offset="0.01" style="stop-color:#908F8F"/>
		<stop  offset="0.02" style="stop-color:#514F4F"/>
		<stop  offset="0.64" style="stop-color:#504E4E"/>
		<stop  offset="0.99" style="stop-color:#4E4C4C"/>
		<stop  offset="1" style="stop-color:#383636"/>
	</linearGradient>
	<path fill="url(#SVGID_26_)" d="M318.128,313.546h6.75v-33h-6.75V313.546z"/>
	
		<linearGradient id="SVGID_27_" gradientUnits="userSpaceOnUse" x1="211.2266" y1="179.3042" x2="202.2266" y2="179.3042" gradientTransform="matrix(0.75 0 0 -0.75 185.6884 431.5245)">
		<stop  offset="0" style="stop-color:#3D3B3B"/>
		<stop  offset="0.01" style="stop-color:#908F8F"/>
		<stop  offset="0.02" style="stop-color:#514F4F"/>
		<stop  offset="0.64" style="stop-color:#504E4E"/>
		<stop  offset="0.99" style="stop-color:#4E4C4C"/>
		<stop  offset="1" style="stop-color:#383636"/>
	</linearGradient>
	<path fill="url(#SVGID_27_)" d="M337.359,313.546h6.75v-33h-6.75V313.546z"/>
	
		<linearGradient id="SVGID_28_" gradientUnits="userSpaceOnUse" x1="211.2231" y1="179.3042" x2="202.2231" y2="179.3042" gradientTransform="matrix(0.75 0 0 -0.75 204.9178 431.5245)">
		<stop  offset="0" style="stop-color:#3D3B3B"/>
		<stop  offset="0.01" style="stop-color:#908F8F"/>
		<stop  offset="0.02" style="stop-color:#514F4F"/>
		<stop  offset="0.64" style="stop-color:#504E4E"/>
		<stop  offset="0.99" style="stop-color:#4E4C4C"/>
		<stop  offset="1" style="stop-color:#383636"/>
	</linearGradient>
	<path fill="url(#SVGID_28_)" d="M356.585,313.546h6.75v-33h-6.75V313.546z"/>
	
		<linearGradient id="SVGID_29_" gradientUnits="userSpaceOnUse" x1="211.2246" y1="179.3042" x2="202.2246" y2="179.3042" gradientTransform="matrix(0.75 0 0 -0.75 224.1473 431.5245)">
		<stop  offset="0" style="stop-color:#3D3B3B"/>
		<stop  offset="0.01" style="stop-color:#908F8F"/>
		<stop  offset="0.02" style="stop-color:#514F4F"/>
		<stop  offset="0.64" style="stop-color:#504E4E"/>
		<stop  offset="0.99" style="stop-color:#4E4C4C"/>
		<stop  offset="1" style="stop-color:#383636"/>
	</linearGradient>
	<path fill="url(#SVGID_29_)" d="M375.816,313.546h6.75v-33h-6.75V313.546z"/>
	
		<linearGradient id="SVGID_30_" gradientUnits="userSpaceOnUse" x1="211.2256" y1="179.3042" x2="202.2256" y2="179.3042" gradientTransform="matrix(0.75 0 0 -0.75 243.3768 431.5245)">
		<stop  offset="0" style="stop-color:#3D3B3B"/>
		<stop  offset="0.01" style="stop-color:#908F8F"/>
		<stop  offset="0.02" style="stop-color:#514F4F"/>
		<stop  offset="0.64" style="stop-color:#504E4E"/>
		<stop  offset="0.99" style="stop-color:#4E4C4C"/>
		<stop  offset="1" style="stop-color:#383636"/>
	</linearGradient>
	<path fill="url(#SVGID_30_)" d="M395.046,313.546h6.75v-33h-6.75V313.546z"/>
	
		<linearGradient id="SVGID_31_" gradientUnits="userSpaceOnUse" x1="378.2241" y1="201.2998" x2="378.2241" y2="142.2998" gradientTransform="matrix(0.75 0 0 -0.75 -1.9884 385.7921)">
		<stop  offset="0" style="stop-color:#292525"/>
		<stop  offset="0.01" style="stop-color:#868584"/>
		<stop  offset="0.02" style="stop-color:#383433"/>
		<stop  offset="0.64" style="stop-color:#373332"/>
		<stop  offset="0.99" style="stop-color:#363130"/>
		<stop  offset="1" style="stop-color:#252221"/>
	</linearGradient>
	<path fill="url(#SVGID_31_)" d="M149.68,234.816h264v44.25h-264V234.816z"/>
	
		<linearGradient id="SVGID_32_" gradientUnits="userSpaceOnUse" x1="219.2266" y1="148.3022" x2="202.2266" y2="148.3022" gradientTransform="matrix(0.75 0 0 -0.75 -13.5963 384.9523)">
		<stop  offset="0" style="stop-color:#A3A878"/>
		<stop  offset="0.01" style="stop-color:#ECF2C0"/>
		<stop  offset="0.02" style="stop-color:#D5DB9D"/>
		<stop  offset="0.64" style="stop-color:#D1D89B"/>
		<stop  offset="0.99" style="stop-color:#CDD397"/>
		<stop  offset="1" style="stop-color:#979C6F"/>
	</linearGradient>
	<path fill="url(#SVGID_32_)" d="M138.074,313.476h12.75v-79.5h-12.75V313.476z"/>
	
		<linearGradient id="SVGID_33_" gradientUnits="userSpaceOnUse" x1="219.2236" y1="148.3022" x2="202.2236" y2="148.3022" gradientTransform="matrix(0.75 0 0 -0.75 261.8671 384.9523)">
		<stop  offset="0" style="stop-color:#A3A878"/>
		<stop  offset="0.01" style="stop-color:#ECF2C0"/>
		<stop  offset="0.02" style="stop-color:#D5DB9D"/>
		<stop  offset="0.64" style="stop-color:#D1D89B"/>
		<stop  offset="0.99" style="stop-color:#CDD397"/>
		<stop  offset="1" style="stop-color:#979C6F"/>
	</linearGradient>
	<path fill="url(#SVGID_33_)" d="M413.535,313.476h12.75v-79.5h-12.75V313.476z"/>
	
		<linearGradient id="SVGID_34_" gradientUnits="userSpaceOnUse" x1="552.2251" y1="149.3042" x2="202.2266" y2="149.3042" gradientTransform="matrix(0.75 0 0 -0.75 -0.5104 306.7306)">
		<stop  offset="0" style="stop-color:#A3A878"/>
		<stop  offset="0.01" style="stop-color:#ECF2C0"/>
		<stop  offset="0.02" style="stop-color:#D5DB9D"/>
		<stop  offset="0.64" style="stop-color:#D1D89B"/>
		<stop  offset="0.99" style="stop-color:#CDD397"/>
		<stop  offset="1" style="stop-color:#979C6F"/>
	</linearGradient>
	<path fill="url(#SVGID_34_)" d="M151.16,155.754h262.5v78h-262.5V155.754z"/>
	
		<linearGradient id="SVGID_35_" gradientUnits="userSpaceOnUse" x1="226.6055" y1="191.6982" x2="202.2256" y2="191.6982" gradientTransform="matrix(0.75 0 0 -0.75 278.0995 335.422)">
		<stop  offset="0" style="stop-color:#000000"/>
		<stop  offset="0.15" style="stop-color:#454545"/>
		<stop  offset="0.25" style="stop-color:#B3B3B3"/>
		<stop  offset="0.52" style="stop-color:#000000"/>
		<stop  offset="0.69" style="stop-color:#000000"/>
		<stop  offset="0.8" style="stop-color:#000000"/>
		<stop  offset="0.92" style="stop-color:#000000"/>
		<stop  offset="1" style="stop-color:#000000"/>
	</linearGradient>
	<path fill="url(#SVGID_35_)" d="M443.269,184.445c0.75,0.75,0.668,2.156,1.777,3.883c1.223,1.367,3.008,2.313,3.008,3.234
		c-0.285,1.133-1.883,1.551-2.93,3.113c-1.105,1.77-0.613,3.391-1.645,3.926c-0.961,0.844-2.234-0.664-4.594-0.652
		c-2.367-0.004-3.656,1.07-4.547,0.652c-0.82-0.656-0.477-1.996-1.727-3.871c-1.344-1.285-2.844-2.121-2.844-3.168
		c0-1.117,1.668-1.48,2.914-3.328c1.586-1.539,0.988-3.422,1.656-3.711c0.68-0.078,2.051,0.648,4.613,0.648
		c2.816,0.023,3.824-1.035,4.527-0.648L443.269,184.445z"/>
	<path fill="#FFFFFF" fill-opacity="0.2" d="M443.007,184.82c0.75,0.75,0.66,2.043,1.711,3.676c1.289,1.574,2.844,2.191,2.844,3.066
		c-0.055,0.758-1.777,1.473-2.77,2.949c-1.035,1.559-0.582,3.211-1.559,3.719c-0.977,0.84-2.113-0.629-4.348-0.617
		c-1.879-0.043-3.457,1.016-4.305,0.617c-0.574-0.66-0.449-1.887-1.629-3.668c-1.195-1.492-2.695-2.008-2.695-3
		c0-0.742,1.578-1.402,2.758-3.152c0.992-2.09,0.938-3.238,1.566-3.516c0.926-0.074,1.941,0.617,4.367,0.617
		c2.559,0.059,3.625-0.984,4.285-0.617L443.007,184.82z"/>
	<path fill="#3E3938" stroke="#9E9F9F" stroke-linejoin="bevel" stroke-miterlimit="10" d="M433.289,191.832
		c0-3,2.516-5.25,5.621-5.25c3.379,0,5.621,2.238,5.621,5c0.008,2.5-2.516,5-5.621,5c-3.371-0.25-5.621-2.238-5.621-5V191.832z"/>
	<path fill="#FFFFFF" fill-opacity="0.1725" d="M439.332,191.754c0-2.25-3.105-4.5-0.422-4.5c2.672,0,4.863,1.934,4.863,4.328
		c0.059,2.422-2.176,4.32-4.863,4.32c-2.578,0.352,0.27-1.617,0.27-4.004L439.332,191.754z"/>
	
		<linearGradient id="SVGID_36_" gradientUnits="userSpaceOnUse" x1="226.6045" y1="191.6982" x2="202.2246" y2="191.6982" gradientTransform="matrix(0.75 0 0 -0.75 312.5536 335.422)">
		<stop  offset="0" style="stop-color:#000000"/>
		<stop  offset="0.15" style="stop-color:#454545"/>
		<stop  offset="0.25" style="stop-color:#B3B3B3"/>
		<stop  offset="0.52" style="stop-color:#000000"/>
		<stop  offset="0.69" style="stop-color:#000000"/>
		<stop  offset="0.8" style="stop-color:#000000"/>
		<stop  offset="0.92" style="stop-color:#000000"/>
		<stop  offset="1" style="stop-color:#000000"/>
	</linearGradient>
	<path fill="url(#SVGID_36_)" d="M477.722,184.445c0.75,0.75,0.668,2.156,1.777,3.883c1.223,1.367,3.008,2.313,3.008,3.234
		c-0.285,1.133-1.883,1.551-2.93,3.113c-1.105,1.77-0.613,3.391-1.645,3.926c-0.961,0.844-2.234-0.664-4.594-0.652
		c-2.367-0.004-3.652,1.07-4.547,0.652c-0.82-0.656-0.477-1.996-1.723-3.871c-1.348-1.285-2.848-2.121-2.848-3.168
		c0-1.117,1.668-1.48,2.914-3.328c1.586-1.539,0.992-3.422,1.656-3.711c0.68-0.078,2.051,0.648,4.613,0.648
		c2.816,0.023,3.828-1.035,4.527-0.648L477.722,184.445z"/>
	<path fill="#FFFFFF" fill-opacity="0.2" d="M477.46,184.82c0.75,0.75,0.664,2.043,1.711,3.676c1.289,1.574,2.848,2.191,2.848,3.066
		c-0.059,0.758-1.781,1.473-2.773,2.949c-1.035,1.559-0.582,3.211-1.559,3.719c-0.977,0.84-2.113-0.629-4.344-0.617
		c-1.883-0.043-3.461,1.016-4.309,0.617c-0.574-0.66-0.449-1.887-1.629-3.668c-1.195-1.492-2.695-2.008-2.695-3
		c0-0.742,1.578-1.402,2.762-3.152c0.988-2.09,0.934-3.238,1.563-3.516c0.926-0.074,1.941,0.617,4.367,0.617
		c2.559,0.059,3.625-0.984,4.285-0.617L477.46,184.82z"/>
	<path fill="#3E3938" stroke="#9E9F9F" stroke-linejoin="bevel" stroke-miterlimit="10" d="M467.742,191.832
		c0-3,2.52-5.25,5.621-5.25c3.379,0,5.621,2.238,5.621,5c0.008,2.5-2.516,5-5.621,5c-3.371-0.25-5.621-2.238-5.621-5V191.832z"/>
	<path fill="#FFFFFF" fill-opacity="0.1725" d="M473.785,191.754c0-2.25-3.105-4.5-0.422-4.5c2.672,0,4.863,1.934,4.863,4.328
		c0.059,2.422-2.176,4.32-4.863,4.32c-2.578,0.352,0.27-1.617,0.27-4.004L473.785,191.754z"/>
	
		<linearGradient id="SVGID_37_" gradientUnits="userSpaceOnUse" x1="226.603" y1="191.6982" x2="202.228" y2="191.6982" gradientTransform="matrix(0.75 0 0 -0.75 -68.5538 335.422)">
		<stop  offset="0" style="stop-color:#000000"/>
		<stop  offset="0.15" style="stop-color:#454545"/>
		<stop  offset="0.25" style="stop-color:#B3B3B3"/>
		<stop  offset="0.52" style="stop-color:#000000"/>
		<stop  offset="0.69" style="stop-color:#000000"/>
		<stop  offset="0.8" style="stop-color:#000000"/>
		<stop  offset="0.92" style="stop-color:#000000"/>
		<stop  offset="1" style="stop-color:#000000"/>
	</linearGradient>
	<path fill="url(#SVGID_37_)" d="M96.617,184.445c0.75,0.75,0.668,2.156,1.773,3.883c1.227,1.367,3.008,2.313,3.008,3.234
		c-0.281,1.133-1.879,1.551-2.93,3.113c-1.102,1.77-0.613,3.391-1.641,3.926c-0.961,0.844-2.234-0.664-4.594-0.652
		c-2.367-0.004-3.656,1.07-4.547,0.652c-0.82-0.656-0.48-1.996-1.727-3.871c-1.344-1.285-2.844-2.121-2.844-3.168
		c0-1.117,1.668-1.48,2.914-3.328c1.586-1.539,0.988-3.422,1.656-3.711c0.68-0.078,2.047,0.648,4.609,0.648
		c2.82,0.023,3.828-1.035,4.531-0.648L96.617,184.445z"/>
	<path fill="#FFFFFF" fill-opacity="0.2" d="M96.355,184.82c0.75,0.75,0.66,2.043,1.711,3.676c1.289,1.574,2.844,2.191,2.844,3.066
		c-0.055,0.758-1.781,1.473-2.773,2.949c-1.031,1.559-0.578,3.211-1.555,3.719c-0.977,0.84-2.113-0.629-4.348-0.617
		c-1.879-0.043-3.461,1.016-4.305,0.617c-0.574-0.66-0.453-1.887-1.633-3.668c-1.191-1.492-2.691-2.008-2.691-3
		c0-0.742,1.578-1.402,2.758-3.152c0.992-2.09,0.938-3.238,1.566-3.516c0.926-0.074,1.941,0.617,4.367,0.617
		c2.559,0.059,3.621-0.984,4.285-0.617L96.355,184.82z"/>
	<path fill="#3E3938" stroke="#9E9F9F" stroke-linejoin="bevel" stroke-miterlimit="10" d="M86.637,191.832
		c0-3,2.516-5.25,5.621-5.25c3.379,0,5.621,2.238,5.621,5c0.008,2.5-2.516,5-5.621,5c-3.371-0.25-5.621-2.238-5.621-5V191.832z"/>
	<path fill="#FFFFFF" fill-opacity="0.1725" d="M92.676,191.754c0-2.25-3.102-4.5-0.418-4.5c2.668,0,4.859,1.934,4.859,4.328
		c0.059,2.422-2.176,4.32-4.859,4.32c-2.582,0.352,0.27-1.617,0.27-4.004L92.676,191.754z"/>
	
		<linearGradient id="SVGID_38_" gradientUnits="userSpaceOnUse" x1="226.6025" y1="191.6982" x2="202.2275" y2="191.6982" gradientTransform="matrix(0.75 0 0 -0.75 -34.1002 335.422)">
		<stop  offset="0" style="stop-color:#000000"/>
		<stop  offset="0.15" style="stop-color:#454545"/>
		<stop  offset="0.25" style="stop-color:#B3B3B3"/>
		<stop  offset="0.52" style="stop-color:#000000"/>
		<stop  offset="0.69" style="stop-color:#000000"/>
		<stop  offset="0.8" style="stop-color:#000000"/>
		<stop  offset="0.92" style="stop-color:#000000"/>
		<stop  offset="1" style="stop-color:#000000"/>
	</linearGradient>
	<path fill="url(#SVGID_38_)" d="M131.07,184.445c0.75,0.75,0.668,2.156,1.777,3.883c1.223,1.367,3.004,2.313,3.004,3.234
		c-0.281,1.133-1.879,1.551-2.93,3.113c-1.102,1.77-0.613,3.391-1.641,3.926c-0.961,0.844-2.234-0.664-4.594-0.652
		c-2.367-0.004-3.656,1.07-4.547,0.652c-0.82-0.656-0.48-1.996-1.727-3.871c-1.344-1.285-2.844-2.121-2.844-3.168
		c0-1.117,1.668-1.48,2.914-3.328c1.586-1.539,0.988-3.422,1.656-3.711c0.68-0.078,2.047,0.648,4.609,0.648
		c2.82,0.023,3.828-1.035,4.531-0.648L131.07,184.445z"/>
	<path fill="#FFFFFF" fill-opacity="0.2" d="M130.809,184.82c0.75,0.75,0.66,2.043,1.711,3.676c1.289,1.574,2.844,2.191,2.844,3.066
		c-0.055,0.758-1.781,1.473-2.773,2.949c-1.031,1.559-0.578,3.211-1.555,3.719c-0.977,0.84-2.113-0.629-4.348-0.617
		c-1.879-0.043-3.461,1.016-4.305,0.617c-0.574-0.66-0.453-1.887-1.633-3.668c-1.191-1.492-2.691-2.008-2.691-3
		c0-0.742,1.578-1.402,2.758-3.152c0.992-2.09,0.938-3.238,1.566-3.516c0.926-0.074,1.941,0.617,4.367,0.617
		c2.559,0.059,3.621-0.984,4.285-0.617L130.809,184.82z"/>
	<path fill="#3E3938" stroke="#9E9F9F" stroke-linejoin="bevel" stroke-miterlimit="10" d="M121.09,191.832
		c0-3,2.516-5.25,5.621-5.25c3.379,0,5.621,2.238,5.621,5c0.008,2.5-2.516,5-5.621,5c-3.371-0.25-5.621-2.238-5.621-5V191.832z"/>
	<path fill="#FFFFFF" fill-opacity="0.1725" d="M127.133,191.754c0-2.25-3.105-4.5-0.422-4.5c2.672,0,4.859,1.934,4.859,4.328
		c0.063,2.422-2.176,4.32-4.859,4.32c-2.578,0.352,0.27-1.617,0.27-4.004L127.133,191.754z"/>
</g>
</svg>
