<?xml version="1.0" encoding="utf-8"?>
<!-- Generator: Adobe Illustrator 16.0.0, SVG Export Plug-In . SVG Version: 6.00 Build 0)  -->
<!DOCTYPE svg PUBLIC "-//W3C//DTD SVG 1.1//EN" "http://www.w3.org/Graphics/SVG/1.1/DTD/svg11.dtd">
<svg preserveAspectRatio="none" version="1.1" id="图层_1" xmlns="http://www.w3.org/2000/svg" xmlns:xlink="http://www.w3.org/1999/xlink" x="0px" y="0px"
	 width="501.75px" height="501.687px" viewBox="32.25 62.621 501.75 501.687" enable-background="new 32.25 62.621 501.75 501.687"
	 xml:space="preserve">
<g id="surface946">
	
		<linearGradient id="SVGID_1_" gradientUnits="userSpaceOnUse" x1="557.2261" y1="41.3066" x2="202.2261" y2="41.3066" gradientTransform="matrix(0.75 0 0 -0.75 -1.7252 379.7755)">
		<stop  offset="0" style="stop-color:#B0A9A1"/>
		<stop  offset="0.03" style="stop-color:#F9F2EA"/>
		<stop  offset="0.08" style="stop-color:#E4DCD2"/>
		<stop  offset="0.64" style="stop-color:#E1D9CF"/>
		<stop  offset="0.95" style="stop-color:#DCD4CA"/>
		<stop  offset="1" style="stop-color:#A39D95"/>
	</linearGradient>
	<path fill="url(#SVGID_1_)" d="M416.195,468.796h-266.25v-240h266.25V468.796z"/>
	
		<linearGradient id="SVGID_2_" gradientUnits="userSpaceOnUse" x1="871.2231" y1="189.3052" x2="202.2246" y2="189.3051" gradientTransform="matrix(0.75 0 0 -0.75 -119.4191 697.2863)">
		<stop  offset="0" style="stop-color:#AB7400"/>
		<stop  offset="0.03" style="stop-color:#F4BC7C"/>
		<stop  offset="0.08" style="stop-color:#DE9800"/>
		<stop  offset="0.64" style="stop-color:#DA9500"/>
		<stop  offset="0.95" style="stop-color:#D59200"/>
		<stop  offset="1" style="stop-color:#9E6B00"/>
	</linearGradient>
	<path fill="url(#SVGID_2_)" d="M32.25,546.308H534v18H32.25V546.308z"/>
	
		<linearGradient id="SVGID_3_" gradientUnits="userSpaceOnUse" x1="594.2271" y1="184.8062" x2="202.2275" y2="184.8061" gradientTransform="matrix(0.75 0 0 -0.75 -15.5851 672.7628)">
		<stop  offset="0" style="stop-color:#3D3B3B"/>
		<stop  offset="0.03" style="stop-color:#908F8F"/>
		<stop  offset="0.08" style="stop-color:#514F4F"/>
		<stop  offset="0.64" style="stop-color:#504E4E"/>
		<stop  offset="0.95" style="stop-color:#4E4C4C"/>
		<stop  offset="1" style="stop-color:#383636"/>
	</linearGradient>
	<path fill="url(#SVGID_3_)" d="M136.086,546.535h294v-24.75h-294V546.535z"/>
	
		<linearGradient id="SVGID_4_" gradientUnits="userSpaceOnUse" x1="776.2251" y1="177.3032" x2="202.2266" y2="177.3032" gradientTransform="matrix(0.75 0 0 -0.75 -83.9479 640.4962)">
		<stop  offset="0" style="stop-color:#A8A8AD"/>
		<stop  offset="0.03" style="stop-color:#F1F2F6"/>
		<stop  offset="0.08" style="stop-color:#DADBE1"/>
		<stop  offset="0.64" style="stop-color:#D7D8DD"/>
		<stop  offset="0.95" style="stop-color:#D2D3D8"/>
		<stop  offset="1" style="stop-color:#9C9CA0"/>
	</linearGradient>
	<path fill="url(#SVGID_4_)" d="M67.723,525.519h430.5v-36h-430.5V525.519z"/>
	
		<linearGradient id="SVGID_5_" gradientUnits="userSpaceOnUse" x1="340.2251" y1="188.3047" x2="202.2256" y2="188.3047" gradientTransform="matrix(0.75 0 0 -0.75 79.5961 619.8448)">
		<stop  offset="0" style="stop-color:#3D3B3B"/>
		<stop  offset="0.03" style="stop-color:#908F8F"/>
		<stop  offset="0.08" style="stop-color:#514F4F"/>
		<stop  offset="0.64" style="stop-color:#504E4E"/>
		<stop  offset="0.95" style="stop-color:#4E4C4C"/>
		<stop  offset="1" style="stop-color:#383636"/>
	</linearGradient>
	<path fill="url(#SVGID_5_)" d="M231.266,488.367h103.5v-19.5h-103.5V488.367z"/>
	
		<linearGradient id="SVGID_6_" gradientUnits="userSpaceOnUse" x1="359.2231" y1="41.3062" x2="202.2231" y2="41.3061" gradientTransform="matrix(0.75 0 0 -0.75 72.7147 379.7755)">
		<stop  offset="0" style="stop-color:#B0A9A1"/>
		<stop  offset="0.03" style="stop-color:#F9F2EA"/>
		<stop  offset="0.08" style="stop-color:#E4DCD2"/>
		<stop  offset="0.64" style="stop-color:#E1D9CF"/>
		<stop  offset="0.95" style="stop-color:#DCD4CA"/>
		<stop  offset="1" style="stop-color:#A39D95"/>
	</linearGradient>
	<path fill="url(#SVGID_6_)" d="M342.132,468.796h-117.75v-240h117.75V468.796z"/>
	
		<linearGradient id="SVGID_7_" gradientUnits="userSpaceOnUse" x1="228.2261" y1="41.3062" x2="202.2261" y2="41.3061" gradientTransform="matrix(0.75 0 0 -0.75 92.4823 379.7755)">
		<stop  offset="0" style="stop-color:#3D3B3B"/>
		<stop  offset="0.03" style="stop-color:#908F8F"/>
		<stop  offset="0.08" style="stop-color:#514F4F"/>
		<stop  offset="0.64" style="stop-color:#504E4E"/>
		<stop  offset="0.95" style="stop-color:#4E4C4C"/>
		<stop  offset="1" style="stop-color:#383636"/>
	</linearGradient>
	<path fill="url(#SVGID_7_)" d="M263.652,468.796h-19.5v-240h19.5V468.796z"/>
	
		<linearGradient id="SVGID_8_" gradientUnits="userSpaceOnUse" x1="292.7241" y1="201.3037" x2="292.7241" y2="168.3037" gradientTransform="matrix(0.75 0 0 -0.75 64.2567 213.5988)">
		<stop  offset="0" style="stop-color:#2B2827"/>
		<stop  offset="0.15" style="stop-color:#5B5858"/>
		<stop  offset="0.25" style="stop-color:#959494"/>
		<stop  offset="0.52" style="stop-color:#353130"/>
		<stop  offset="0.69" style="stop-color:#2E2A29"/>
		<stop  offset="0.8" style="stop-color:#2B2726"/>
		<stop  offset="0.92" style="stop-color:#282424"/>
		<stop  offset="1" style="stop-color:#2F2B2B"/>
	</linearGradient>
	<path fill="url(#SVGID_8_)" d="M215.926,62.621h135.75v24.75h-135.75V62.621z"/>
	
		<linearGradient id="SVGID_9_" gradientUnits="userSpaceOnUse" x1="213.2256" y1="25.8052" x2="202.2256" y2="25.8052" gradientTransform="matrix(0.75 0 0 -0.75 98.1356 299.6271)">
		<stop  offset="0" style="stop-color:#292525"/>
		<stop  offset="0.03" style="stop-color:#868584"/>
		<stop  offset="0.08" style="stop-color:#383433"/>
		<stop  offset="0.64" style="stop-color:#373332"/>
		<stop  offset="0.95" style="stop-color:#363130"/>
		<stop  offset="1" style="stop-color:#252221"/>
	</linearGradient>
	<path fill="url(#SVGID_9_)" d="M249.805,148.648h8.25v263.25h-8.25V148.648z"/>
	
		<linearGradient id="SVGID_10_" gradientUnits="userSpaceOnUse" x1="213.2246" y1="151.3047" x2="202.2246" y2="151.3047" gradientTransform="matrix(0.75 0 0 -0.75 64.2572 213.5988)">
		<stop  offset="0" style="stop-color:#292525"/>
		<stop  offset="0.03" style="stop-color:#868584"/>
		<stop  offset="0.08" style="stop-color:#383433"/>
		<stop  offset="0.64" style="stop-color:#373332"/>
		<stop  offset="0.95" style="stop-color:#363130"/>
		<stop  offset="1" style="stop-color:#252221"/>
	</linearGradient>
	<path fill="url(#SVGID_10_)" d="M215.926,62.621h8.25v75h-8.25V62.621z"/>
	
		<linearGradient id="SVGID_11_" gradientUnits="userSpaceOnUse" x1="213.2217" y1="151.3047" x2="202.2217" y2="151.3047" gradientTransform="matrix(0.75 0 0 -0.75 191.6923 213.5988)">
		<stop  offset="0" style="stop-color:#292525"/>
		<stop  offset="0.03" style="stop-color:#868584"/>
		<stop  offset="0.08" style="stop-color:#383433"/>
		<stop  offset="0.64" style="stop-color:#373332"/>
		<stop  offset="0.95" style="stop-color:#363130"/>
		<stop  offset="1" style="stop-color:#252221"/>
	</linearGradient>
	<path fill="url(#SVGID_11_)" d="M343.359,62.621h8.25v75h-8.25V62.621z"/>
	
		<linearGradient id="SVGID_12_" gradientUnits="userSpaceOnUse" x1="258.2256" y1="188.3047" x2="202.2256" y2="188.3047" gradientTransform="matrix(0.75 0 0 -0.75 64.2567 283.9425)">
		<stop  offset="0" style="stop-color:#292525"/>
		<stop  offset="0.03" style="stop-color:#868584"/>
		<stop  offset="0.08" style="stop-color:#383433"/>
		<stop  offset="0.64" style="stop-color:#373332"/>
		<stop  offset="0.95" style="stop-color:#363130"/>
		<stop  offset="1" style="stop-color:#252221"/>
	</linearGradient>
	<path fill="url(#SVGID_12_)" d="M215.926,137.465l33.75,15l8.25-3.75l-33.75-15.75L215.926,137.465z"/>
	
		<linearGradient id="SVGID_13_" gradientUnits="userSpaceOnUse" x1="221.7051" y1="188.3047" x2="165.7051" y2="188.3047" gradientTransform="matrix(-0.75 0 0 -0.75 475.7198 283.9425)">
		<stop  offset="0" style="stop-color:#292525"/>
		<stop  offset="0.03" style="stop-color:#868584"/>
		<stop  offset="0.08" style="stop-color:#383433"/>
		<stop  offset="0.64" style="stop-color:#373332"/>
		<stop  offset="0.95" style="stop-color:#363130"/>
		<stop  offset="1" style="stop-color:#252221"/>
	</linearGradient>
	<path fill="url(#SVGID_13_)" d="M351.441,137.465l-33.75,15l-8.25-3.75l33.75-15.75L351.441,137.465z"/>
	
		<linearGradient id="SVGID_14_" gradientUnits="userSpaceOnUse" x1="228.2241" y1="41.3062" x2="202.2241" y2="41.3061" gradientTransform="matrix(0.75 0 0 -0.75 151.0262 379.7755)">
		<stop  offset="0" style="stop-color:#3D3B3B"/>
		<stop  offset="0.03" style="stop-color:#908F8F"/>
		<stop  offset="0.08" style="stop-color:#514F4F"/>
		<stop  offset="0.64" style="stop-color:#504E4E"/>
		<stop  offset="0.95" style="stop-color:#4E4C4C"/>
		<stop  offset="1" style="stop-color:#383636"/>
	</linearGradient>
	<path fill="url(#SVGID_14_)" d="M322.195,468.796h-19.5v-240h19.5V468.796z"/>
	
		<linearGradient id="SVGID_15_" gradientUnits="userSpaceOnUse" x1="213.2236" y1="25.8052" x2="202.2236" y2="25.8052" gradientTransform="matrix(0.75 0 0 -0.75 156.6796 299.6271)">
		<stop  offset="0" style="stop-color:#292525"/>
		<stop  offset="0.03" style="stop-color:#868584"/>
		<stop  offset="0.08" style="stop-color:#383433"/>
		<stop  offset="0.64" style="stop-color:#373332"/>
		<stop  offset="0.95" style="stop-color:#363130"/>
		<stop  offset="1" style="stop-color:#252221"/>
	</linearGradient>
	<path fill="url(#SVGID_15_)" d="M308.347,148.648h8.25v263.25h-8.25V148.648z"/>
	<path fill="#FFFFFF" fill-opacity="0.3922" d="M162.398,261.82h50.25v69.75h-50.25V261.82z"/>
	
		<linearGradient id="SVGID_16_" gradientUnits="userSpaceOnUse" x1="213.6445" y1="195.2202" x2="202.1807" y2="195.2202" gradientTransform="matrix(0.75 0 0 -0.75 17.6298 469.2306)">
		<stop  offset="0" style="stop-color:#A43944"/>
		<stop  offset="0.03" style="stop-color:#ED8E95"/>
		<stop  offset="0.08" style="stop-color:#D64D5B"/>
		<stop  offset="0.64" style="stop-color:#D24B5A"/>
		<stop  offset="0.95" style="stop-color:#CD4958"/>
		<stop  offset="1" style="stop-color:#98343F"/>
	</linearGradient>
	<path fill="url(#SVGID_16_)" d="M170.047,318.253h7.5c0,0,0.316,0.152,0.316,0.34l-0.316,8.66c0,0,0.027,0.125-0.328,0.125
		l-7.172-0.125c-0.75,0-0.781-0.031-0.781-0.219l0.031-8.781c0,0,0.258,0,0.613,0H170.047z"/>
	
		<linearGradient id="SVGID_17_" gradientUnits="userSpaceOnUse" x1="213.6479" y1="195.2241" x2="202.1792" y2="195.2241" gradientTransform="matrix(0.75 0 0 -0.75 16.7909 447.7531)">
		<stop  offset="0" style="stop-color:#B59D79"/>
		<stop  offset="0.03" style="stop-color:#FFE5C1"/>
		<stop  offset="0.08" style="stop-color:#EBCC9F"/>
		<stop  offset="0.64" style="stop-color:#E7C99C"/>
		<stop  offset="0.95" style="stop-color:#E2C499"/>
		<stop  offset="1" style="stop-color:#A89170"/>
	</linearGradient>
	<path fill="url(#SVGID_17_)" d="M169.211,296.773h7.5c0,0,0.316,0.156,0.316,0.344l-0.316,8.656c0,0,0.027,0.125-0.332,0.125
		l-7.168-0.125c-0.75,0-0.785-0.027-0.785-0.215l0.035-8.785c0,0,0.254,0,0.609,0H169.211z"/>
	
		<linearGradient id="SVGID_18_" gradientUnits="userSpaceOnUse" x1="213.6484" y1="195.2241" x2="202.1797" y2="195.2241" gradientTransform="matrix(0.75 0 0 -0.75 31.705 447.7531)">
		<stop  offset="0" style="stop-color:#B59D79"/>
		<stop  offset="0.03" style="stop-color:#FFE5C1"/>
		<stop  offset="0.08" style="stop-color:#EBCC9F"/>
		<stop  offset="0.64" style="stop-color:#E7C99C"/>
		<stop  offset="0.95" style="stop-color:#E2C499"/>
		<stop  offset="1" style="stop-color:#A89170"/>
	</linearGradient>
	<path fill="url(#SVGID_18_)" d="M184.125,296.773h7.5c0,0,0.316,0.156,0.316,0.344l-0.316,8.656c0,0,0.027,0.125-0.332,0.125
		l-7.168-0.125c-0.75,0-0.785-0.027-0.785-0.215l0.035-8.785c0,0,0.254,0,0.609,0H184.125z"/>
	
		<linearGradient id="SVGID_19_" gradientUnits="userSpaceOnUse" x1="213.6455" y1="195.2241" x2="202.1826" y2="195.2241" gradientTransform="matrix(0.75 0 0 -0.75 46.5585 447.7531)">
		<stop  offset="0" style="stop-color:#B59D79"/>
		<stop  offset="0.03" style="stop-color:#FFE5C1"/>
		<stop  offset="0.08" style="stop-color:#EBCC9F"/>
		<stop  offset="0.64" style="stop-color:#E7C99C"/>
		<stop  offset="0.95" style="stop-color:#E2C499"/>
		<stop  offset="1" style="stop-color:#A89170"/>
	</linearGradient>
	<path fill="url(#SVGID_19_)" d="M198.977,296.773h7.5c0,0,0.316,0.156,0.316,0.344l-0.316,8.656c0,0,0.027,0.125-0.328,0.125
		l-7.172-0.125c-0.75,0-0.781-0.027-0.781-0.215l0.031-8.785c0,0,0.258,0,0.613,0H198.977z"/>
	<path fill="#3E3938" fill-opacity="0.3922" d="M162.398,261.82h50.25v27h-50.25V261.82z"/>
	
		<linearGradient id="SVGID_20_" gradientUnits="userSpaceOnUse" x1="213.6436" y1="189.8052" x2="202.1797" y2="189.8052" gradientTransform="matrix(0.75 0 0 -0.75 16.7904 418.174)">
		<stop  offset="0" style="stop-color:#B5B5B5"/>
		<stop  offset="0.03" style="stop-color:#FFFFFF"/>
		<stop  offset="0.08" style="stop-color:#EBEBEB"/>
		<stop  offset="0.64" style="stop-color:#E7E7E7"/>
		<stop  offset="0.95" style="stop-color:#E2E2E2"/>
		<stop  offset="1" style="stop-color:#A8A8A8"/>
	</linearGradient>
	<path fill="url(#SVGID_20_)" d="M169.211,267.195h7.5c0,0,0.313,0.289,0.313,0.645l-0.313,15.855c0,0.75,0.023,0.71-0.332,0.71
		l-7.168,0.039c-0.75,0-0.785-0.328-0.785-0.683l0.035-15.816c0-0.75,0.254-0.75,0.609-0.75H169.211z"/>
	
		<linearGradient id="SVGID_21_" gradientUnits="userSpaceOnUse" x1="213.644" y1="189.8052" x2="202.1802" y2="189.8052" gradientTransform="matrix(0.75 0 0 -0.75 31.7045 418.174)">
		<stop  offset="0" style="stop-color:#B5B5B5"/>
		<stop  offset="0.03" style="stop-color:#FFFFFF"/>
		<stop  offset="0.08" style="stop-color:#EBEBEB"/>
		<stop  offset="0.64" style="stop-color:#E7E7E7"/>
		<stop  offset="0.95" style="stop-color:#E2E2E2"/>
		<stop  offset="1" style="stop-color:#A8A8A8"/>
	</linearGradient>
	<path fill="url(#SVGID_21_)" d="M184.125,267.195h7.5c0,0,0.313,0.289,0.313,0.645l-0.313,15.855c0,0.75,0.023,0.71-0.332,0.71
		l-7.168,0.039c-0.75,0-0.785-0.328-0.785-0.683l0.035-15.816c0-0.75,0.254-0.75,0.609-0.75H184.125z"/>
	
		<linearGradient id="SVGID_22_" gradientUnits="userSpaceOnUse" x1="213.646" y1="189.8052" x2="202.1831" y2="189.8052" gradientTransform="matrix(0.75 0 0 -0.75 46.558 418.174)">
		<stop  offset="0" style="stop-color:#B5B5B5"/>
		<stop  offset="0.03" style="stop-color:#FFFFFF"/>
		<stop  offset="0.08" style="stop-color:#EBEBEB"/>
		<stop  offset="0.64" style="stop-color:#E7E7E7"/>
		<stop  offset="0.95" style="stop-color:#E2E2E2"/>
		<stop  offset="1" style="stop-color:#A8A8A8"/>
	</linearGradient>
	<path fill="url(#SVGID_22_)" d="M198.977,267.195h7.5c0,0,0.316,0.289,0.316,0.645l-0.316,15.855c0,0.75,0.027,0.71-0.328,0.71
		l-7.172,0.039c-0.75,0-0.781-0.328-0.781-0.683l0.031-15.816c0-0.75,0.254-0.75,0.613-0.75H198.977z"/>
	
		<linearGradient id="SVGID_23_" gradientUnits="userSpaceOnUse" x1="337.2251" y1="194.8018" x2="202.2246" y2="194.8017" gradientTransform="matrix(0.75 0 0 -0.75 -20.9816 626.8351)">
		<stop  offset="0" style="stop-color:#B0A9A1"/>
		<stop  offset="0.03" style="stop-color:#F9F2EA"/>
		<stop  offset="0.08" style="stop-color:#E4DCD2"/>
		<stop  offset="0.64" style="stop-color:#E1D9CF"/>
		<stop  offset="0.95" style="stop-color:#DCD4CA"/>
		<stop  offset="1" style="stop-color:#A39D95"/>
	</linearGradient>
	<path fill="url(#SVGID_23_)" d="M231.938,485.609h-101.25v-9.75h101.25V485.609z"/>
	
		<linearGradient id="SVGID_24_" gradientUnits="userSpaceOnUse" x1="219.2231" y1="193.8047" x2="202.2231" y2="193.8047" gradientTransform="matrix(0.75 0 0 -0.75 -9.6949 615.005)">
		<stop  offset="0" style="stop-color:#BDBDBD"/>
		<stop  offset="0.15" style="stop-color:#FFFFFF"/>
		<stop  offset="0.25" style="stop-color:#FFFFFF"/>
		<stop  offset="0.52" style="stop-color:#DFDFDF"/>
		<stop  offset="0.69" style="stop-color:#C7C7C7"/>
		<stop  offset="0.8" style="stop-color:#BCBCBC"/>
		<stop  offset="0.92" style="stop-color:#B1B1B1"/>
		<stop  offset="1" style="stop-color:#CBCBCB"/>
	</linearGradient>
	<path fill="url(#SVGID_24_)" d="M141.973,475.277h12.75v-11.25h-12.75V475.277z"/>
	
		<linearGradient id="SVGID_25_" gradientUnits="userSpaceOnUse" x1="229.3662" y1="123.1245" x2="202.1367" y2="123.1245" gradientTransform="matrix(0.75 0 0 -0.75 -13.4235 498.8419)">
		<stop  offset="0" style="stop-color:#403E3E"/>
		<stop  offset="0.15" style="stop-color:#6D6C6C"/>
		<stop  offset="0.25" style="stop-color:#BCBCBC"/>
		<stop  offset="0.52" style="stop-color:#4D4B4B"/>
		<stop  offset="0.69" style="stop-color:#434242"/>
		<stop  offset="0.8" style="stop-color:#3F3E3E"/>
		<stop  offset="0.92" style="stop-color:#3B3A3A"/>
		<stop  offset="1" style="stop-color:#454444"/>
	</linearGradient>
	<path fill="url(#SVGID_25_)" d="M138.996,347.863h18.75c0.75,0,0.855,0.289,0.855,0.648l-0.105,115.602
		c0,0.75-0.184,1.023-0.539,1.023l-18.961-0.273c-0.75,0-0.816-0.051-0.816-0.406l0.066-115.844c0-0.75,0.223-0.75,0.578-0.75
		H138.996z"/>
	
		<linearGradient id="SVGID_26_" gradientUnits="userSpaceOnUse" x1="239.2236" y1="194.2993" x2="202.1094" y2="194.2993" gradientTransform="matrix(0.75 0 0 -0.75 -17.004 491.3126)">
		<stop  offset="0" style="stop-color:#403E3E"/>
		<stop  offset="0.15" style="stop-color:#6D6C6C"/>
		<stop  offset="0.25" style="stop-color:#BCBCBC"/>
		<stop  offset="0.52" style="stop-color:#4D4B4B"/>
		<stop  offset="0.69" style="stop-color:#434242"/>
		<stop  offset="0.8" style="stop-color:#3F3E3E"/>
		<stop  offset="0.92" style="stop-color:#3B3A3A"/>
		<stop  offset="1" style="stop-color:#454444"/>
	</linearGradient>
	<path fill="url(#SVGID_26_)" d="M135.414,340.335h26.25c0,0,0.434,0.348,0.434,0.809l0.316,8.941c0,0.75-0.625,0.785-1.008,0.785
		l-25.992-0.035c-0.75,0-0.836-0.336-0.836-0.797l0.086-8.953c0-0.75,0.223-0.777,0.602-0.777L135.414,340.335z"/>
</g>
</svg>
