<?xml version="1.0" encoding="utf-8"?>
<!-- Generator: Adobe Illustrator 16.0.0, SVG Export Plug-In . SVG Version: 6.00 Build 0)  -->
<!DOCTYPE svg PUBLIC "-//W3C//DTD SVG 1.1//EN" "http://www.w3.org/Graphics/SVG/1.1/DTD/svg11.dtd">
<svg preserveAspectRatio="none" version="1.1" id="图层_1" xmlns="http://www.w3.org/2000/svg" xmlns:xlink="http://www.w3.org/1999/xlink" x="0px" y="0px"
	 width="561.285px" height="274.953px" viewBox="2.82 290.753 561.285 274.953"
	 enable-background="new 2.82 290.753 561.285 274.953" xml:space="preserve">
<g id="surface666">
	
		<linearGradient id="SVGID_1_" gradientUnits="userSpaceOnUse" x1="236.7246" y1="201.3057" x2="236.7246" y2="158.3057" gradientTransform="matrix(0.75 0 0 -0.75 112.1595 494.6193)">
		<stop  offset="0" style="stop-color:#2B8056"/>
		<stop  offset="0.15" style="stop-color:#8EC0A3"/>
		<stop  offset="0.25" style="stop-color:#99C5AB"/>
		<stop  offset="0.52" style="stop-color:#329062"/>
		<stop  offset="0.69" style="stop-color:#2B8056"/>
		<stop  offset="0.8" style="stop-color:#287851"/>
		<stop  offset="0.92" style="stop-color:#25714C"/>
	</linearGradient>
	<path fill="url(#SVGID_1_)" d="M263.828,343.64h51.75v32.25h-51.75V343.64z"/>
	
		<linearGradient id="SVGID_2_" gradientUnits="userSpaceOnUse" x1="301.2261" y1="162.7104" x2="202.2261" y2="162.7104" gradientTransform="matrix(0.75 0 0 -0.75 203.1141 495.8898)">
		<stop  offset="0" style="stop-color:#2B8157"/>
		<stop  offset="0.01" style="stop-color:#87C9A3"/>
		<stop  offset="0.02" style="stop-color:#3BA974"/>
		<stop  offset="0.64" style="stop-color:#3AA672"/>
		<stop  offset="0.99" style="stop-color:#38A36F"/>
		<stop  offset="1" style="stop-color:#277851"/>
	</linearGradient>
	<path fill="url(#SVGID_2_)" d="M355.535,344.91h72c0.75,0,1.16,0.477,1.16,1.063l0.34,55.938c0,0.75-0.824,0.895-1.41,0.895
		l-72.09-0.145c0,0-0.75-0.352-0.75-0.934V345.66c0,0,0.461-0.75,1.043-0.75H355.535z"/>
	
		<linearGradient id="SVGID_3_" gradientUnits="userSpaceOnUse" x1="220.4253" y1="201.3047" x2="220.4253" y2="143.3047" gradientTransform="matrix(0.75 0 0 -0.75 152.9618 471.5411)">
		<stop  offset="0" style="stop-color:#2B8056"/>
		<stop  offset="0.15" style="stop-color:#8EC0A3"/>
		<stop  offset="0.25" style="stop-color:#99C5AB"/>
		<stop  offset="0.52" style="stop-color:#329062"/>
		<stop  offset="0.69" style="stop-color:#2B8056"/>
		<stop  offset="0.8" style="stop-color:#287851"/>
		<stop  offset="0.92" style="stop-color:#25714C"/>
	</linearGradient>
	<path fill="url(#SVGID_3_)" d="M306.132,320.562h24.75c0.75,0,1.047,0.445,1.047,1.008l-0.297,41.742c0,0-0.328,0.656-1.082,0.656
		l-24.418,0.094c-0.75,0-1.5-0.551-1.5-1.113v-41.637c0,0,0.594-0.75,1.348-0.75H306.132z"/>
	
		<linearGradient id="SVGID_4_" gradientUnits="userSpaceOnUse" x1="246.7275" y1="201.3018" x2="246.7275" y2="71.1816" gradientTransform="matrix(0.75 0 0 -0.75 177.7743 456.1906)">
		<stop  offset="0" style="stop-color:#2B8056"/>
		<stop  offset="0.1" style="stop-color:#8EC0A3"/>
		<stop  offset="0.1" style="stop-color:#99C5AB"/>
		<stop  offset="0.32" style="stop-color:#329062"/>
		<stop  offset="0.69" style="stop-color:#2B8056"/>
		<stop  offset="0.8" style="stop-color:#287851"/>
		<stop  offset="0.92" style="stop-color:#25714C"/>
	</linearGradient>
	<path fill="url(#SVGID_4_)" d="M330.945,305.214h63.75c0.75,0,1.328,0.516,1.328,1.152l0.172,95.598c0,0-0.738,0.84-1.438,0.84
		l-63.813-0.09c-0.75,0-1.5-0.449-1.5-1.086v-94.914c0-0.75,0.551-1.5,1.25-1.5H330.945z"/>
	
		<linearGradient id="SVGID_5_" gradientUnits="userSpaceOnUse" x1="279.2241" y1="187.8203" x2="202.2241" y2="187.8203" gradientTransform="matrix(0.75 0 0 -0.75 182.3739 484.9728)">
		<stop  offset="0" style="stop-color:#4C906E"/>
		<stop  offset="0.01" style="stop-color:#9AD7B7"/>
		<stop  offset="0.02" style="stop-color:#65BC91"/>
		<stop  offset="0.64" style="stop-color:#63B98F"/>
		<stop  offset="0.99" style="stop-color:#61B48B"/>
		<stop  offset="1" style="stop-color:#468566"/>
	</linearGradient>
	<path fill="url(#SVGID_5_)" d="M334.792,333.996h55.5c0.75,0,1.129,0.449,1.129,1.035l0.371,17.715c0,0.75-0.867,1.34-1.449,1.34
		l-55.551,0.16c0,0-0.75-0.633-0.75-1.219v-18.281c0,0,0.461-0.773,1.047-0.773L334.792,333.996z"/>
	
		<linearGradient id="SVGID_6_" gradientUnits="userSpaceOnUse" x1="222.2246" y1="195.3027" x2="202.1934" y2="195.3027" gradientTransform="matrix(0.75 0 0 -0.75 183.7762 510.7111)">
		<stop  offset="0" style="stop-color:#4C906E"/>
		<stop  offset="0.01" style="stop-color:#9AD7B7"/>
		<stop  offset="0.02" style="stop-color:#65BC91"/>
		<stop  offset="0.64" style="stop-color:#63B98F"/>
		<stop  offset="0.99" style="stop-color:#61B48B"/>
		<stop  offset="1" style="stop-color:#468566"/>
	</linearGradient>
	<path fill="url(#SVGID_6_)" d="M336.195,359.734h12.75c0.75,0,1.262,0.473,1.262,1.059l0.238,6.441c0,0.75-0.711,1.32-1.297,1.32
		l-12.953,0.18c0,0-0.773-0.652-0.773-1.238l0.023-7.012c0,0,0.449-0.75,1.035-0.75H336.195z"/>
	
		<linearGradient id="SVGID_7_" gradientUnits="userSpaceOnUse" x1="222.2222" y1="195.3027" x2="202.1958" y2="195.3027" gradientTransform="matrix(0.75 0 0 -0.75 203.6727 510.7111)">
		<stop  offset="0" style="stop-color:#4C906E"/>
		<stop  offset="0.01" style="stop-color:#9AD7B7"/>
		<stop  offset="0.02" style="stop-color:#65BC91"/>
		<stop  offset="0.64" style="stop-color:#63B98F"/>
		<stop  offset="0.99" style="stop-color:#61B48B"/>
		<stop  offset="1" style="stop-color:#468566"/>
	</linearGradient>
	<path fill="url(#SVGID_7_)" d="M356.089,359.734h12.75c0.75,0,1.262,0.473,1.262,1.059l0.238,6.441c0,0.75-0.711,1.32-1.293,1.32
		l-12.957,0.18c0,0-0.77-0.652-0.77-1.238l0.02-7.012c0,0,0.453-0.75,1.035-0.75H356.089z"/>
	
		<linearGradient id="SVGID_8_" gradientUnits="userSpaceOnUse" x1="222.2241" y1="195.3027" x2="202.1929" y2="195.3027" gradientTransform="matrix(0.75 0 0 -0.75 223.5887 510.7111)">
		<stop  offset="0" style="stop-color:#4C906E"/>
		<stop  offset="0.01" style="stop-color:#9AD7B7"/>
		<stop  offset="0.02" style="stop-color:#65BC91"/>
		<stop  offset="0.64" style="stop-color:#63B98F"/>
		<stop  offset="0.99" style="stop-color:#61B48B"/>
		<stop  offset="1" style="stop-color:#468566"/>
	</linearGradient>
	<path fill="url(#SVGID_8_)" d="M376.007,359.734h12.75c0.75,0,1.258,0.473,1.258,1.059l0.242,6.441c0,0.75-0.715,1.32-1.297,1.32
		l-12.953,0.18c0,0-0.773-0.652-0.773-1.238l0.023-7.012c0,0,0.449-0.75,1.035-0.75H376.007z"/>
	
		<linearGradient id="SVGID_9_" gradientUnits="userSpaceOnUse" x1="361.2251" y1="157.8066" x2="202.2246" y2="157.8066" gradientTransform="matrix(0.75 0 0 -0.75 -8.0558 483.1857)">
		<stop  offset="0" style="stop-color:#2B8157"/>
		<stop  offset="0.01" style="stop-color:#87C9A3"/>
		<stop  offset="0.02" style="stop-color:#3BA974"/>
		<stop  offset="0.64" style="stop-color:#3AA672"/>
		<stop  offset="0.99" style="stop-color:#38A36F"/>
		<stop  offset="1" style="stop-color:#277851"/>
	</linearGradient>
	<path fill="url(#SVGID_9_)" d="M145.113,332.207h115.5c0.75,0,1.949,0.547,1.949,1.238l0.301,62.512c0,0.75-1.156,1.191-2.16,1.191
		l-115.59,0.309c-0.75,0-1.5-0.879-1.5-1.57v-62.18c0-0.75,0.797-1.5,1.801-1.5H145.113z"/>
	
		<linearGradient id="SVGID_10_" gradientUnits="userSpaceOnUse" x1="282.9312" y1="201.3047" x2="282.9312" y2="161.3047" gradientTransform="matrix(0.75 0 0 -0.75 -8.0558 446.4972)">
		<stop  offset="0" style="stop-color:#2B8056"/>
		<stop  offset="0.15" style="stop-color:#8EC0A3"/>
		<stop  offset="0.25" style="stop-color:#99C5AB"/>
		<stop  offset="0.52" style="stop-color:#329062"/>
		<stop  offset="0.69" style="stop-color:#2B8056"/>
		<stop  offset="0.8" style="stop-color:#287851"/>
		<stop  offset="0.92" style="stop-color:#25714C"/>
	</linearGradient>
	<path fill="url(#SVGID_10_)" d="M144.363,295.519h119.25c0.75,0,1.059,0.465,1.059,1.047l-0.309,27.453
		c0,0.75-0.164,1.141-0.746,1.141l-119.254,0.359c0,0-0.75-0.844-0.75-1.426v-27.824c0,0,0.461-0.75,1.043-0.75H144.363z"/>
	
		<linearGradient id="SVGID_11_" gradientUnits="userSpaceOnUse" x1="220.728" y1="201.3076" x2="220.728" y2="51.3076" gradientTransform="matrix(0.75 0 0 -0.75 86.2782 441.7335)">
		<stop  offset="0" style="stop-color:#2B8056"/>
		<stop  offset="0.1" style="stop-color:#8EC0A3"/>
		<stop  offset="0.1" style="stop-color:#99C5AB"/>
		<stop  offset="0.32" style="stop-color:#329062"/>
		<stop  offset="0.69" style="stop-color:#2B8056"/>
		<stop  offset="0.8" style="stop-color:#287851"/>
		<stop  offset="0.92" style="stop-color:#25714C"/>
	</linearGradient>
	<path fill="url(#SVGID_11_)" d="M238.699,290.753h25.5c0.75,0,1.199,0.465,1.199,1.051l0.301,109.949
		c0,0.75-0.793,1.219-1.379,1.219l-25.621,0.281c0,0-0.75-0.766-0.75-1.352V291.503c0,0,0.449-0.75,1.031-0.75H238.699z"/>
	
		<linearGradient id="SVGID_12_" gradientUnits="userSpaceOnUse" x1="141.3057" y1="191.7007" x2="1.3057" y2="191.7007" gradientTransform="matrix(0 -0.75 -0.75 0 447.674 432.963)">
		<stop  offset="0" style="stop-color:#4C906E"/>
		<stop  offset="0.01" style="stop-color:#9AD7B7"/>
		<stop  offset="0.02" style="stop-color:#65BC91"/>
		<stop  offset="0.64" style="stop-color:#63B98F"/>
		<stop  offset="0.99" style="stop-color:#61B48B"/>
		<stop  offset="1" style="stop-color:#468566"/>
	</linearGradient>
	<path fill="url(#SVGID_12_)" d="M173.398,431.984v-105h261v105h-10.5v-94.5h-114.75v36.75l-11.25,0.75v-37.5h-114.75v93.75
		L173.398,431.984z"/>
	
		<linearGradient id="SVGID_13_" gradientUnits="userSpaceOnUse" x1="887.5591" y1="104.3062" x2="202.2261" y2="104.3061" gradientTransform="matrix(0.75 0 0 -0.75 -125.2057 571.1857)">
		<stop  offset="0" style="stop-color:#2B8157"/>
		<stop  offset="0.01" style="stop-color:#87C9A3"/>
		<stop  offset="0.02" style="stop-color:#3BA974"/>
		<stop  offset="0.64" style="stop-color:#3AA672"/>
		<stop  offset="0.99" style="stop-color:#38A36F"/>
		<stop  offset="1" style="stop-color:#277851"/>
	</linearGradient>
	<path fill="url(#SVGID_13_)" d="M27.215,420.207h512.25c0.75,0,1,0.449,1,1.031l-0.25,142.969c0,0.75,0.25,1.234-0.832,1.234
		l-512.167,0.266c-0.75,0-0.75-0.754-0.75-1.34v-143.41c0,0,0-0.75,1.043-0.75H27.215z"/>
	
		<linearGradient id="SVGID_14_" gradientUnits="userSpaceOnUse" x1="887.5591" y1="199.2759" x2="202.2261" y2="199.2758" gradientTransform="matrix(0.75 0 0 -0.75 -125.2057 642.2804)">
		<stop  offset="0" style="stop-color:#236C48"/>
		<stop  offset="0.01" style="stop-color:#84B498"/>
		<stop  offset="0.02" style="stop-color:#318D60"/>
		<stop  offset="0.64" style="stop-color:#308B5E"/>
		<stop  offset="0.99" style="stop-color:#2F885C"/>
		<stop  offset="1" style="stop-color:#206342"/>
	</linearGradient>
	<path fill="url(#SVGID_14_)" d="M27.215,491.3h512.25c0.75,0,1,0.012,1,0.023l-0.25,2.977c0,0,0.25,0.047-0.832,0.047L27.215,494.3
		c-0.75,0-0.75,0.035-0.75,0.023V491.3c0,0,0,0,1.043,0H27.215z"/>
	
		<linearGradient id="SVGID_15_" gradientUnits="userSpaceOnUse" x1="45.3057" y1="318.2036" x2="1.3057" y2="318.2036" gradientTransform="matrix(0 -0.75 -0.75 0 522.2657 566.5099)">
		<stop  offset="0" style="stop-color:#2D6C4C"/>
		<stop  offset="0.01" style="stop-color:#88B59B"/>
		<stop  offset="0.02" style="stop-color:#3D8E66"/>
		<stop  offset="0.64" style="stop-color:#3C8C64"/>
		<stop  offset="0.99" style="stop-color:#3A8961"/>
		<stop  offset="1" style="stop-color:#296446"/>
	</linearGradient>
	<path fill="url(#SVGID_15_)" d="M247.988,565.531v-33h71.25v33h-3v-29.25h-66l0.75,29.25H247.988z"/>
	
		<linearGradient id="SVGID_16_" gradientUnits="userSpaceOnUse" x1="245.728" y1="201.3047" x2="245.728" y2="196.3047" gradientTransform="matrix(0.75 0 0 -0.75 98.9935 702.5167)">
		<stop  offset="0" style="stop-color:#2D6C4C"/>
		<stop  offset="0.01" style="stop-color:#88B59B"/>
		<stop  offset="0.02" style="stop-color:#3D8E66"/>
		<stop  offset="0.64" style="stop-color:#3C8C64"/>
		<stop  offset="0.99" style="stop-color:#3A8961"/>
		<stop  offset="1" style="stop-color:#296446"/>
	</linearGradient>
	<path fill="url(#SVGID_16_)" d="M250.664,551.539h65.25v3.75h-65.25V551.539z"/>
	
		<linearGradient id="SVGID_17_" gradientUnits="userSpaceOnUse" x1="887.5591" y1="199.2773" x2="202.2261" y2="199.2773" gradientTransform="matrix(0.75 0 0 -0.75 -125.2057 572.8732)">
		<stop  offset="0" style="stop-color:#236C48"/>
		<stop  offset="0.01" style="stop-color:#84B498"/>
		<stop  offset="0.02" style="stop-color:#318D60"/>
		<stop  offset="0.64" style="stop-color:#308B5E"/>
		<stop  offset="0.99" style="stop-color:#2F885C"/>
		<stop  offset="1" style="stop-color:#206342"/>
	</linearGradient>
	<path fill="url(#SVGID_17_)" d="M27.215,421.894h512.25c0.75,0,1,0.012,1,0.023l-0.25,2.977c0,0,0.25,0.043-0.832,0.043
		l-512.167-0.043c-0.75,0-0.75,0.035-0.75,0.023v-3.023c0,0,0,0,1.043,0H27.215z"/>
	
		<linearGradient id="SVGID_18_" gradientUnits="userSpaceOnUse" x1="477.2251" y1="157.3052" x2="202.2251" y2="157.3051" gradientTransform="matrix(0.75 0 0 -0.75 28.6742 575.8175)">
		<stop  offset="0" style="stop-color:#2B8157"/>
		<stop  offset="0.01" style="stop-color:#87C9A3"/>
		<stop  offset="0.01" style="stop-color:#3BA974"/>
		<stop  offset="0.64" style="stop-color:#3AA672"/>
		<stop  offset="0.99" style="stop-color:#38A36F"/>
		<stop  offset="1" style="stop-color:#277851"/>
	</linearGradient>
	<path fill="url(#SVGID_18_)" d="M180.344,424.839h206.25v66h-206.25V424.839z"/>
	
		<linearGradient id="SVGID_19_" gradientUnits="userSpaceOnUse" x1="232.1997" y1="201.3008" x2="232.1997" y2="141.1914" gradientTransform="matrix(0.75 0 0 -0.75 40.0082 584.8585)">
		<stop  offset="0" style="stop-color:#C7C7C7"/>
		<stop  offset="0.15" style="stop-color:#FFFFFF"/>
		<stop  offset="0.25" style="stop-color:#FEFEFE"/>
		<stop  offset="0.59" style="stop-color:#DFDFDF"/>
		<stop  offset="0.83" style="stop-color:#C7C7C7"/>
		<stop  offset="1" style="stop-color:#BCBCBC"/>
	</linearGradient>
	<path fill="url(#SVGID_19_)" d="M191.676,456.382c0-12.75,10.059-22.5,22.484-22.5c12.766,0,22.48,10.074,22.48,22.539
		c0.035,12.711-10.066,22.543-22.48,22.543c-12.734-0.082-22.484-10.105-22.484-22.543V456.382z"/>
	<path fill="#3E3938" d="M195.375,456.324c0-10.5,8.402-18.75,18.785-18.75c10.465,0,18.785,8.434,18.785,18.848
		c-0.07,10.402-8.414,18.852-18.785,18.852c-10.535-0.199-18.785-8.457-18.785-18.852V456.324z"/>
	
		<linearGradient id="SVGID_20_" gradientUnits="userSpaceOnUse" x1="232.2017" y1="201.3008" x2="232.2017" y2="141.1914" gradientTransform="matrix(0.75 0 0 -0.75 179.3212 584.8585)">
		<stop  offset="0" style="stop-color:#C7C7C7"/>
		<stop  offset="0.15" style="stop-color:#FFFFFF"/>
		<stop  offset="0.25" style="stop-color:#FEFEFE"/>
		<stop  offset="0.59" style="stop-color:#DFDFDF"/>
		<stop  offset="0.83" style="stop-color:#C7C7C7"/>
		<stop  offset="1" style="stop-color:#BCBCBC"/>
	</linearGradient>
	<path fill="url(#SVGID_20_)" d="M330.992,456.382c0-12.75,10.055-22.5,22.48-22.5c12.77,0,22.48,10.074,22.48,22.539
		c0.039,12.711-10.066,22.543-22.48,22.543c-12.73-0.082-22.48-10.105-22.48-22.543V456.382z"/>
	<path fill="#3E3938" d="M334.687,456.324c0-10.5,8.402-18.75,18.785-18.75c10.465,0,18.785,8.434,18.785,18.848
		c-0.07,10.402-8.414,18.852-18.785,18.852c-10.535-0.199-18.785-8.457-18.785-18.852V456.324z"/>
	<path fill="#FFFFFF" fill-opacity="0.2078" d="M243.301,439.218h80.25c0,0,0.828,0.473,0.828,1.059l-0.078,31.941
		c0,0.75-0.395,1.406-0.977,1.406l-80.023,0.094c0,0-0.75-0.566-0.75-1.152v-32.598c0,0,0.473-0.75,1.055-0.75H243.301z"/>
	
		<linearGradient id="SVGID_21_" gradientUnits="userSpaceOnUse" x1="629.2251" y1="196.813" x2="202.2256" y2="196.813" gradientTransform="matrix(0.75 0 0 -0.75 -28.2867 547.5509)">
		<stop  offset="0" style="stop-color:#B5B5B5"/>
		<stop  offset="0.01" style="stop-color:#FFFFFF"/>
		<stop  offset="0.02" style="stop-color:#EBEBEB"/>
		<stop  offset="0.64" style="stop-color:#E7E7E7"/>
		<stop  offset="0.99" style="stop-color:#E2E2E2"/>
		<stop  offset="1" style="stop-color:#A8A8A8"/>
	</linearGradient>
	<path fill="url(#SVGID_21_)" d="M124.133,396.574h318.75c0.75,0,0.664,0.203,0.664,0.469l0.086,5.531c0,0-0.086,0.555-0.699,0.555
		l-318.8,0.195c-0.75,0-0.75-0.41-0.75-0.68v-5.32c0-0.75,0-0.762,0.586-0.762L124.133,396.574z"/>
	
		<linearGradient id="SVGID_22_" gradientUnits="userSpaceOnUse" x1="550.2261" y1="181.8042" x2="202.2271" y2="181.8042" gradientTransform="matrix(0.75 0 0 -0.75 21.7279 524.297)">
		<stop  offset="0" style="stop-color:#2B8157"/>
		<stop  offset="0.01" style="stop-color:#87C9A3"/>
		<stop  offset="0.01" style="stop-color:#3BA974"/>
		<stop  offset="0.64" style="stop-color:#3AA672"/>
		<stop  offset="0.99" style="stop-color:#38A36F"/>
		<stop  offset="1" style="stop-color:#277851"/>
	</linearGradient>
	<path fill="url(#SVGID_22_)" d="M434.398,373.32v27.75c0,0.75-0.469,1.461-1.051,1.461l-259.199,0.039c0,0-0.75-0.672-0.75-1.41
		v-27.84H434.398z"/>
	<path fill="#CFEBF6" fill-opacity="0.298" d="M185.84,338.625h111.75v32.25H185.84V338.625z"/>
	<path fill="#CFEBF6" fill-opacity="0.298" d="M310.597,338.625h111.75v32.25h-111.75V338.625z"/>
	
		<linearGradient id="SVGID_23_" gradientUnits="userSpaceOnUse" x1="220.2197" y1="192.3047" x2="202.1934" y2="192.3047" gradientTransform="matrix(0.75 0 0 -0.75 268.9247 614.9044)">
		<stop  offset="0" style="stop-color:#2B8056"/>
		<stop  offset="0.15" style="stop-color:#8EC0A3"/>
		<stop  offset="0.25" style="stop-color:#99C5AB"/>
		<stop  offset="0.52" style="stop-color:#329062"/>
		<stop  offset="0.69" style="stop-color:#2B8056"/>
		<stop  offset="0.8" style="stop-color:#287851"/>
		<stop  offset="0.92" style="stop-color:#25714C"/>
	</linearGradient>
	<path fill="url(#SVGID_23_)" d="M420.593,470.675c0-3.75,3-6.777,6.734-6.777c3.766,0.027,6.762,3.035,6.762,6.777
		c0.004,3.75-3.031,6.781-6.762,6.781c-3.734-0.031-6.758-3.039-6.758-6.781H420.593z"/>
	<path fill="#2E2A29" d="M421.847,470.449c0-3,2.441-5.277,5.473-5.277c2.777,0.027,5.492,2.465,5.492,5.508
		c0.285,2.77-2.461,5.504-5.492,5.504c-3.223,0.266-5.492-2.465-5.492-5.504L421.847,470.449z"/>
	
		<linearGradient id="SVGID_24_" gradientUnits="userSpaceOnUse" x1="215.2217" y1="183.4365" x2="202.2217" y2="183.4365" gradientTransform="matrix(0.75 0 0 -0.75 270.8173 599.1075)">
		<stop  offset="0" style="stop-color:#2B8056"/>
		<stop  offset="0.15" style="stop-color:#8EC0A3"/>
		<stop  offset="0.25" style="stop-color:#99C5AB"/>
		<stop  offset="0.52" style="stop-color:#329062"/>
		<stop  offset="0.69" style="stop-color:#2B8056"/>
		<stop  offset="0.8" style="stop-color:#287851"/>
		<stop  offset="0.92" style="stop-color:#25714C"/>
	</linearGradient>
	<path fill="url(#SVGID_24_)" d="M422.484,448.128h9.75v23.25c0,0-0.008,3.547-4.805,3.547c-4.945,0.203-4.945-3.242-4.945-3.242
		V448.128z"/>
	
		<linearGradient id="SVGID_25_" gradientUnits="userSpaceOnUse" x1="299.2241" y1="182.3047" x2="202.2241" y2="182.3047" gradientTransform="matrix(0.75 0 0 -0.75 239.3114 575.8175)">
		<stop  offset="0" style="stop-color:#4C906E"/>
		<stop  offset="0.01" style="stop-color:#9AD7B7"/>
		<stop  offset="0.02" style="stop-color:#65BC91"/>
		<stop  offset="0.64" style="stop-color:#63B98F"/>
		<stop  offset="0.99" style="stop-color:#61B48B"/>
		<stop  offset="1" style="stop-color:#468566"/>
	</linearGradient>
	<path fill="url(#SVGID_25_)" d="M390.98,424.839h72.75v28.5h-72.75V424.839z"/>
	
		<linearGradient id="SVGID_26_" gradientUnits="userSpaceOnUse" x1="211.6123" y1="189.3057" x2="202.2266" y2="189.3057" gradientTransform="matrix(0.75 0 0 -0.75 1.0839 465.5529)">
		<stop  offset="0" style="stop-color:#2B8157"/>
		<stop  offset="0.01" style="stop-color:#87C9A3"/>
		<stop  offset="0.02" style="stop-color:#3BA974"/>
		<stop  offset="0.64" style="stop-color:#3AA672"/>
		<stop  offset="0.99" style="stop-color:#38A36F"/>
		<stop  offset="1" style="stop-color:#277851"/>
	</linearGradient>
	<path fill="url(#SVGID_26_)" d="M153.504,314.574h5.25c0.75,0,1.039,0.465,1.039,1.047l-0.289,15.453
		c0,0.75-0.184,1.133-0.77,1.133l-5.23,0.367c0,0-0.75-0.84-0.75-1.426v-15.824c0,0,0.473-0.75,1.055-0.75H153.504z"/>
	
		<linearGradient id="SVGID_27_" gradientUnits="userSpaceOnUse" x1="664.2241" y1="197.314" x2="202.2251" y2="197.3139" gradientTransform="matrix(0.75 0 0 -0.75 -41.3644 553.0568)">
		<stop  offset="0" style="stop-color:#1B6942"/>
		<stop  offset="0.01" style="stop-color:#81B293"/>
		<stop  offset="0.02" style="stop-color:#268B58"/>
		<stop  offset="0.64" style="stop-color:#258856"/>
		<stop  offset="0.99" style="stop-color:#248554"/>
		<stop  offset="1" style="stop-color:#18613C"/>
	</linearGradient>
	<path fill="url(#SVGID_27_)" d="M111.055,402.078h345c0.75,0,0.57,0.188,0.57,0.43l0.18,4.82c0,0.75-0.18,0.742-0.844,0.742
		l-344.906,0.008c-0.75,0-0.75-0.207-0.75-0.449v-4.801c0-0.75,0-0.762,0.637-0.762L111.055,402.078z"/>
	
		<linearGradient id="SVGID_28_" gradientUnits="userSpaceOnUse" x1="950.6011" y1="191.7437" x2="202.2222" y2="191.7436" gradientTransform="matrix(0.75 0 0 -0.75 -148.8468 558.4825)">
		<stop  offset="0" style="stop-color:#2B8157"/>
		<stop  offset="0.01" style="stop-color:#87C9A3"/>
		<stop  offset="0.02" style="stop-color:#3BA974"/>
		<stop  offset="0.64" style="stop-color:#3AA672"/>
		<stop  offset="0.99" style="stop-color:#38A36F"/>
		<stop  offset="1" style="stop-color:#277851"/>
	</linearGradient>
	<path fill="url(#SVGID_28_)" d="M3.57,407.503h559.5c0.75,0,1.035,0.449,1.035,1.031l-0.285,12.469c0,0.75,0.285,0.871-0.789,0.871
		L3.57,421.753c-0.75,0-0.75-0.352-0.75-0.938v-12.563c0,0,0-0.777,1.031-0.777L3.57,407.503z"/>
	
		<linearGradient id="SVGID_29_" gradientUnits="userSpaceOnUse" x1="419.3638" y1="201.3428" x2="419.3638" y2="181.9678" gradientTransform="matrix(0.75 0 0 -0.75 -31.0587 558.3497)">
		<stop  offset="0" style="stop-color:#4C906E"/>
		<stop  offset="0.01" style="stop-color:#9AD7B7"/>
		<stop  offset="0.02" style="stop-color:#65BC91"/>
		<stop  offset="0.64" style="stop-color:#63B98F"/>
		<stop  offset="0.99" style="stop-color:#61B48B"/>
		<stop  offset="1" style="stop-color:#468566"/>
	</linearGradient>
	<path fill="url(#SVGID_29_)" d="M121.359,407.371h324c0.75,0,0.961,0.453,0.961,1.043l-0.211,12.457
		c0,0.75,0.211,1.004-0.414,1.004l-324.335-0.254c-0.75,0-0.75-0.223-0.75-0.813v-12.688c0,0,0-0.777,0.598-0.777L121.359,407.371z"
		/>
	<path fill="#CFEBF6" fill-opacity="0.4471" d="M185.844,338.625l111.75,32.25h-111.75V338.625z"/>
	<path fill="#CFEBF6" fill-opacity="0.4471" d="M310.597,338.625l111.75,32.25h-111.75V338.625z"/>
	
		<linearGradient id="SVGID_30_" gradientUnits="userSpaceOnUse" x1="51.3066" y1="287.5483" x2="1.3066" y2="287.5483" gradientTransform="matrix(0 -0.75 -0.75 0 581.9454 374.4005)">
		<stop  offset="0" style="stop-color:#292525"/>
		<stop  offset="0.01" style="stop-color:#868584"/>
		<stop  offset="0.03" style="stop-color:#383433"/>
		<stop  offset="0.64" style="stop-color:#373332"/>
		<stop  offset="0.99" style="stop-color:#363130"/>
		<stop  offset="1" style="stop-color:#252221"/>
	</linearGradient>
	<path fill="url(#SVGID_30_)" d="M307.667,373.421v-37.5c0,0,0,0.184,0.215,0.184l116.785-0.184c0,0,0.234,0.273,0.234,0.336
		l-0.234,37.164c0,0,0.234,0-0.008,0H307.667c0,0,0-0.047,0-0.113V373.421z M311.417,369.671v-30h109.5v30H311.417z"/>
	
		<linearGradient id="SVGID_31_" gradientUnits="userSpaceOnUse" x1="51.3066" y1="287.5474" x2="1.3066" y2="287.5474" gradientTransform="matrix(0 -0.75 -0.75 0 457.1779 374.4015)">
		<stop  offset="0" style="stop-color:#292525"/>
		<stop  offset="0.01" style="stop-color:#868584"/>
		<stop  offset="0.03" style="stop-color:#383433"/>
		<stop  offset="0.64" style="stop-color:#373332"/>
		<stop  offset="0.99" style="stop-color:#363130"/>
		<stop  offset="1" style="stop-color:#252221"/>
	</linearGradient>
	<path fill="url(#SVGID_31_)" d="M182.902,373.421v-37.5c0,0,0,0.184,0.215,0.184l116.785-0.184c0,0,0.23,0.273,0.23,0.336
		l-0.23,37.164c0,0,0.23,0-0.012,0H182.902c0,0,0-0.047,0-0.109V373.421z M186.652,369.671v-30h109.5v30H186.652z"/>
</g>
</svg>
