<?xml version="1.0" encoding="utf-8"?>
<!-- Generator: Adobe Illustrator 16.0.0, SVG Export Plug-In . SVG Version: 6.00 Build 0)  -->
<!DOCTYPE svg PUBLIC "-//W3C//DTD SVG 1.1//EN" "http://www.w3.org/Graphics/SVG/1.1/DTD/svg11.dtd">
<svg preserveAspectRatio="none" version="1.1" id="图层_1" xmlns="http://www.w3.org/2000/svg" xmlns:xlink="http://www.w3.org/1999/xlink" x="0px" y="0px"
	 width="562.425px" height="532.265px" viewBox="-0.133 33.148 562.425 532.265"
	 enable-background="new -0.133 33.148 562.425 532.265" xml:space="preserve">
<g id="surface911">
	
		<linearGradient id="SVGID_1_" gradientUnits="userSpaceOnUse" x1="338.3032" y1="110.666" x2="202.2256" y2="110.666" gradientTransform="matrix(0.75 0 0 -0.75 123.4594 278.0021)">
		<stop  offset="0" style="stop-color:#749671"/>
		<stop  offset="0.01" style="stop-color:#BCDEBA"/>
		<stop  offset="0.02" style="stop-color:#98C495"/>
		<stop  offset="0.64" style="stop-color:#95C192"/>
		<stop  offset="0.99" style="stop-color:#92BC8F"/>
		<stop  offset="1" style="stop-color:#6B8B69"/>
	</linearGradient>
	<path fill="url(#SVGID_1_)" d="M276.629,127.023h99c0.75,0,1.559,0.738,1.559,1.645l-0.059,132.605c0,0.75-0.742,1.711-1.648,1.711
		l-98.851-0.211c-0.75,0-1.5-0.543-1.5-1.453V128.523c0-0.75,0.68-1.5,1.586-1.5H276.629z"/>
	
		<linearGradient id="SVGID_2_" gradientUnits="userSpaceOnUse" x1="255.2236" y1="139.3027" x2="202.2236" y2="139.3027" gradientTransform="matrix(0.75 0 0 -0.75 137.4139 184.1251)">
		<stop  offset="0" style="stop-color:#90A38C"/>
		<stop  offset="0.01" style="stop-color:#D8EBD4"/>
		<stop  offset="0.02" style="stop-color:#BDD4B7"/>
		<stop  offset="0.64" style="stop-color:#BAD0B4"/>
		<stop  offset="0.99" style="stop-color:#B5CCB0"/>
		<stop  offset="1" style="stop-color:#869782"/>
	</linearGradient>
	<path fill="url(#SVGID_2_)" d="M289.082,126.148h39.75v-93h-39.75V126.148z"/>
	
		<linearGradient id="SVGID_3_" gradientUnits="userSpaceOnUse" x1="264.2217" y1="152.8057" x2="202.2217" y2="152.8057" gradientTransform="matrix(0.75 0 0 -0.75 177.4305 205.1427)">
		<stop  offset="0" style="stop-color:#90A38C"/>
		<stop  offset="0.01" style="stop-color:#D8EBD4"/>
		<stop  offset="0.02" style="stop-color:#BDD4B7"/>
		<stop  offset="0.64" style="stop-color:#BAD0B4"/>
		<stop  offset="0.99" style="stop-color:#B5CCB0"/>
		<stop  offset="1" style="stop-color:#869782"/>
	</linearGradient>
	<path fill="url(#SVGID_3_)" d="M329.097,54.164h18l28.5,27.75v45h-46.5V54.164z"/>
	
		<linearGradient id="SVGID_4_" gradientUnits="userSpaceOnUse" x1="349.2241" y1="193.3027" x2="202.2241" y2="193.3027" gradientTransform="matrix(0.75 0 0 -0.75 255.6434 231.1876)">
		<stop  offset="0" style="stop-color:#90A38C"/>
		<stop  offset="0.01" style="stop-color:#D8EBD4"/>
		<stop  offset="0.02" style="stop-color:#BDD4B7"/>
		<stop  offset="0.64" style="stop-color:#BAD0B4"/>
		<stop  offset="0.99" style="stop-color:#B5CCB0"/>
		<stop  offset="1" style="stop-color:#869782"/>
	</linearGradient>
	<path fill="url(#SVGID_4_)" d="M407.312,92.211h110.25v-12h-110.25V92.211z"/>
	
		<linearGradient id="SVGID_5_" gradientUnits="userSpaceOnUse" x1="429.2485" y1="111.3066" x2="202.2222" y2="111.3066" gradientTransform="matrix(0.75 0 0 -0.75 223.8124 278.0021)">
		<stop  offset="0" style="stop-color:#90A38C"/>
		<stop  offset="0.01" style="stop-color:#D8EBD4"/>
		<stop  offset="0.02" style="stop-color:#BDD4B7"/>
		<stop  offset="0.64" style="stop-color:#BAD0B4"/>
		<stop  offset="0.99" style="stop-color:#B5CCB0"/>
		<stop  offset="1" style="stop-color:#869782"/>
	</linearGradient>
	<path fill="url(#SVGID_5_)" d="M376.98,127.023h167.25c0.75,0,1.52,0.703,1.52,1.609l-0.02,131.891c0,0.75-0.73,1.348-1.633,1.348
		l-167.117,0.152c-0.75,0-1.5-0.891-1.5-1.797V128.523c0-0.75,0.734-1.5,1.637-1.5H376.98z"/>
	
		<linearGradient id="SVGID_6_" gradientUnits="userSpaceOnUse" x1="378.2222" y1="177.3027" x2="202.2222" y2="177.3027" gradientTransform="matrix(0.75 0 0 -0.75 244.7303 242.6095)">
		<stop  offset="0" style="stop-color:#B5B5B5"/>
		<stop  offset="0.01" style="stop-color:#FFFFFF"/>
		<stop  offset="0.02" style="stop-color:#EBEBEB"/>
		<stop  offset="0.64" style="stop-color:#E7E7E7"/>
		<stop  offset="0.99" style="stop-color:#E2E2E2"/>
		<stop  offset="1" style="stop-color:#A8A8A8"/>
	</linearGradient>
	<path fill="url(#SVGID_6_)" d="M396.398,127.633h132v-36h-132V127.633z"/>
	
		<linearGradient id="SVGID_7_" gradientUnits="userSpaceOnUse" x1="266.2261" y1="191.3047" x2="202.2261" y2="191.3047" gradientTransform="matrix(0.75 0 0 -0.75 47.576 263.1886)">
		<stop  offset="0" style="stop-color:#749671"/>
		<stop  offset="0.01" style="stop-color:#BCDEBA"/>
		<stop  offset="0.02" style="stop-color:#98C495"/>
		<stop  offset="0.64" style="stop-color:#95C192"/>
		<stop  offset="0.99" style="stop-color:#92BC8F"/>
		<stop  offset="1" style="stop-color:#6B8B69"/>
	</linearGradient>
	<path fill="url(#SVGID_7_)" d="M199.246,112.211h48v15h-48V112.211z"/>
	
		<linearGradient id="SVGID_8_" gradientUnits="userSpaceOnUse" x1="303.1079" y1="234.9063" x2="303.1079" y2="205.9048" gradientTransform="matrix(0.6495 0.375 0.375 -0.6495 -266.4266 149.5945)">
		<stop  offset="0" style="stop-color:#90A38C"/>
		<stop  offset="0.01" style="stop-color:#D8EBD4"/>
		<stop  offset="0.02" style="stop-color:#BDD4B7"/>
		<stop  offset="0.64" style="stop-color:#BAD0B4"/>
		<stop  offset="0.99" style="stop-color:#B5CCB0"/>
		<stop  offset="1" style="stop-color:#869782"/>
	</linearGradient>
	<path fill="url(#SVGID_8_)" d="M10.742,106.184l15.59,9L15.457,134.02l-15.59-9L10.742,106.184z"/>
	
		<linearGradient id="SVGID_9_" gradientUnits="userSpaceOnUse" x1="336.2231" y1="102.8027" x2="202.2227" y2="102.8027" gradientTransform="matrix(0.75 0 0 -0.75 -114.5074 291.9572)">
		<stop  offset="0" style="stop-color:#749671"/>
		<stop  offset="0.01" style="stop-color:#BCDEBA"/>
		<stop  offset="0.02" style="stop-color:#98C495"/>
		<stop  offset="0.64" style="stop-color:#95C192"/>
		<stop  offset="0.99" style="stop-color:#92BC8F"/>
		<stop  offset="1" style="stop-color:#6B8B69"/>
	</linearGradient>
	<path fill="url(#SVGID_9_)" d="M37.16,140.98h100.5v147.75H37.16V140.98z"/>
	
		<linearGradient id="SVGID_10_" gradientUnits="userSpaceOnUse" x1="362.2231" y1="90.8066" x2="202.2231" y2="90.8066" gradientTransform="matrix(0.75 0 0 -0.75 -72.4728 263.1896)">
		<stop  offset="0" style="stop-color:#90A38C"/>
		<stop  offset="0.01" style="stop-color:#D8EBD4"/>
		<stop  offset="0.02" style="stop-color:#BDD4B7"/>
		<stop  offset="0.64" style="stop-color:#BAD0B4"/>
		<stop  offset="0.99" style="stop-color:#B5CCB0"/>
		<stop  offset="1" style="stop-color:#869782"/>
	</linearGradient>
	<path fill="url(#SVGID_10_)" d="M199.195,112.211h-84l-36,63.75v60l24,42h96V112.211z"/>
	
		<linearGradient id="SVGID_11_" gradientUnits="userSpaceOnUse" x1="495.2251" y1="108.8047" x2="202.2261" y2="108.8047" gradientTransform="matrix(0.75 0 0 -0.75 -14.0685 301.047)">
		<stop  offset="0" style="stop-color:#90A38C"/>
		<stop  offset="0.01" style="stop-color:#D8EBD4"/>
		<stop  offset="0.02" style="stop-color:#BDD4B7"/>
		<stop  offset="0.64" style="stop-color:#BAD0B4"/>
		<stop  offset="0.99" style="stop-color:#B5CCB0"/>
		<stop  offset="1" style="stop-color:#869782"/>
	</linearGradient>
	<path fill="url(#SVGID_11_)" d="M139.102,150.07h216c0.75,0,1.879,0.684,1.879,1.594l0.371,137.156h-219.75V151.57
		c0-0.75,0.699-1.5,1.602-1.5H139.102z"/>
	
		<linearGradient id="SVGID_12_" gradientUnits="userSpaceOnUse" x1="475.2241" y1="180.3057" x2="202.2241" y2="180.3056" gradientTransform="matrix(0.75 0 0 -0.75 205.3114 408.0128)">
		<stop  offset="0" style="stop-color:#749671"/>
		<stop  offset="0.01" style="stop-color:#BCDEBA"/>
		<stop  offset="0.02" style="stop-color:#98C495"/>
		<stop  offset="0.64" style="stop-color:#95C192"/>
		<stop  offset="0.99" style="stop-color:#92BC8F"/>
		<stop  offset="1" style="stop-color:#6B8B69"/>
	</linearGradient>
	<path fill="url(#SVGID_12_)" d="M356.98,288.535h204.75v-31.5H356.98V288.535z"/>
	
		<linearGradient id="SVGID_13_" gradientUnits="userSpaceOnUse" x1="924.2261" y1="16.3062" x2="202.2261" y2="16.3061" gradientTransform="matrix(0.75 0 0 -0.75 -130.8776 438.8927)">
		<stop  offset="0" style="stop-color:#90A38C"/>
		<stop  offset="0.01" style="stop-color:#D8EBD4"/>
		<stop  offset="0.02" style="stop-color:#BDD4B7"/>
		<stop  offset="0.64" style="stop-color:#BAD0B4"/>
		<stop  offset="0.99" style="stop-color:#B5CCB0"/>
		<stop  offset="1" style="stop-color:#869782"/>
	</linearGradient>
	<path fill="url(#SVGID_13_)" d="M20.793,287.914h541.5v277.5h-541.5V287.914z"/>
	
		<linearGradient id="SVGID_14_" gradientUnits="userSpaceOnUse" x1="378.3159" y1="121.6304" x2="202.2231" y2="121.6304" gradientTransform="matrix(0.75 0 0 -0.75 29.5858 312.0138)">
		<stop  offset="0" style="stop-color:#749671"/>
		<stop  offset="0.01" style="stop-color:#BCDEBA"/>
		<stop  offset="0.02" style="stop-color:#98C495"/>
		<stop  offset="0.64" style="stop-color:#95C192"/>
		<stop  offset="0.99" style="stop-color:#92BC8F"/>
		<stop  offset="1" style="stop-color:#6B8B69"/>
	</linearGradient>
	<path fill="url(#SVGID_14_)" d="M182.754,161.035h129c0.75,0,1.57,0.668,1.57,1.578l-0.07,116.172c0,0.75-0.695,1.762-1.602,1.762
		l-128.898-0.262c-0.75,0-1.5-0.527-1.5-1.434V162.535c0-0.75,0.715-1.5,1.621-1.5H182.754z"/>
	
		<linearGradient id="SVGID_15_" gradientUnits="userSpaceOnUse" x1="312.2261" y1="140.3042" x2="202.2261" y2="140.3042" gradientTransform="matrix(0.75 0 0 -0.75 -130.8776 349.2462)">
		<stop  offset="0" style="stop-color:#90A38C"/>
		<stop  offset="0.01" style="stop-color:#D8EBD4"/>
		<stop  offset="0.02" style="stop-color:#BDD4B7"/>
		<stop  offset="0.64" style="stop-color:#BAD0B4"/>
		<stop  offset="0.99" style="stop-color:#B5CCB0"/>
		<stop  offset="1" style="stop-color:#869782"/>
	</linearGradient>
	<path fill="url(#SVGID_15_)" d="M71.043,198.27h-50.25v90.75l82.5,0.75l-32.25-55.5V198.27z"/>
	
		<linearGradient id="SVGID_16_" gradientUnits="userSpaceOnUse" x1="336.6089" y1="234.9072" x2="336.6089" y2="188.9058" gradientTransform="matrix(0.6495 0.375 0.375 -0.6495 -252.2684 150.4695)">
		<stop  offset="0" style="stop-color:#90A38C"/>
		<stop  offset="0.01" style="stop-color:#D8EBD4"/>
		<stop  offset="0.02" style="stop-color:#BDD4B7"/>
		<stop  offset="0.64" style="stop-color:#BAD0B4"/>
		<stop  offset="0.99" style="stop-color:#B5CCB0"/>
		<stop  offset="1" style="stop-color:#869782"/>
	</linearGradient>
	<path fill="url(#SVGID_16_)" d="M24.902,107.059l59.105,34.125l-17.25,29.879L7.652,136.938L24.902,107.059z"/>
	
		<linearGradient id="SVGID_17_" gradientUnits="userSpaceOnUse" x1="241.2261" y1="186.3066" x2="202.2261" y2="186.3066" gradientTransform="matrix(0.75 0 0 -0.75 47.576 278.2482)">
		<stop  offset="0" style="stop-color:#749671"/>
		<stop  offset="0.01" style="stop-color:#BCDEBA"/>
		<stop  offset="0.02" style="stop-color:#98C495"/>
		<stop  offset="0.64" style="stop-color:#95C192"/>
		<stop  offset="0.99" style="stop-color:#92BC8F"/>
		<stop  offset="1" style="stop-color:#6B8B69"/>
	</linearGradient>
	<path fill="url(#SVGID_17_)" d="M199.246,127.27h29.25l-15,22.5h-14.25V127.27z"/>
	
		<linearGradient id="SVGID_18_" gradientUnits="userSpaceOnUse" x1="418.2231" y1="142.8057" x2="202.2236" y2="142.8056" gradientTransform="matrix(0.75 0 0 -0.75 -111.7506 486.1417)">
		<stop  offset="0" style="stop-color:#749671"/>
		<stop  offset="0.01" style="stop-color:#BCDEBA"/>
		<stop  offset="0.02" style="stop-color:#98C495"/>
		<stop  offset="0.64" style="stop-color:#95C192"/>
		<stop  offset="0.99" style="stop-color:#92BC8F"/>
		<stop  offset="1" style="stop-color:#6B8B69"/>
	</linearGradient>
	<path fill="url(#SVGID_18_)" d="M41.418,335.164h159c0.75,0,1.355,0.629,1.355,1.406l0.145,84.844c0,0.75-0.82,1.332-1.594,1.332
		l-158.906,0.168c-0.75,0-1.5-0.82-1.5-1.598v-84.652c0-0.75,0.602-1.5,1.375-1.5H41.418z"/>
	
		<linearGradient id="SVGID_19_" gradientUnits="userSpaceOnUse" x1="386.5444" y1="142.8018" x2="202.2271" y2="142.8017" gradientTransform="matrix(0.75 0 0 -0.75 207.4423 599.3546)">
		<stop  offset="0" style="stop-color:#749671"/>
		<stop  offset="0.01" style="stop-color:#BCDEBA"/>
		<stop  offset="0.02" style="stop-color:#98C495"/>
		<stop  offset="0.64" style="stop-color:#95C192"/>
		<stop  offset="0.99" style="stop-color:#92BC8F"/>
		<stop  offset="1" style="stop-color:#6B8B69"/>
	</linearGradient>
	<path fill="url(#SVGID_19_)" d="M360.613,448.378h135.75c0.75,0,0.988,0.629,0.988,1.406l-0.238,84.844c0,0.75-0.34,1.332-1,1.332
		l-135.5,0.168c-0.75,0-1.5-0.824-1.5-1.602v-84.648c0-0.75,0.512-1.5,1.172-1.5H360.613z"/>
	
		<linearGradient id="SVGID_20_" gradientUnits="userSpaceOnUse" x1="283.3936" y1="149.3027" x2="202.2217" y2="149.3027" gradientTransform="matrix(0.75 0 0 -0.75 339.3719 495.3116)">
		<stop  offset="0" style="stop-color:#749671"/>
		<stop  offset="0.01" style="stop-color:#BCDEBA"/>
		<stop  offset="0.02" style="stop-color:#98C495"/>
		<stop  offset="0.64" style="stop-color:#95C192"/>
		<stop  offset="0.99" style="stop-color:#92BC8F"/>
		<stop  offset="1" style="stop-color:#6B8B69"/>
	</linearGradient>
	<path fill="url(#SVGID_20_)" d="M492.539,344.335h57.75c0.75,0,1.629,0.707,1.629,1.613l-0.129,74.137
		c0,1.5-0.605,1.953-1.508,1.953l-57.742,0.297c-0.75,0-1.5-1.09-1.5-2v-74.5c0-0.75,0.68-1.5,1.582-1.5H492.539z"/>
	
		<linearGradient id="SVGID_21_" gradientUnits="userSpaceOnUse" x1="269.2275" y1="191.8018" x2="202.2275" y2="191.8018" gradientTransform="matrix(0.75 0 0 -0.75 -115.4166 686.2726)">
		<stop  offset="0" style="stop-color:#3D3B3B"/>
		<stop  offset="0.01" style="stop-color:#908F8F"/>
		<stop  offset="0.02" style="stop-color:#514F4F"/>
		<stop  offset="0.64" style="stop-color:#504E4E"/>
		<stop  offset="0.99" style="stop-color:#4E4C4C"/>
		<stop  offset="1" style="stop-color:#383636"/>
	</linearGradient>
	<path fill="url(#SVGID_21_)" d="M36.254,535.296h50.25v14.25h-50.25V535.296z"/>
	
		<linearGradient id="SVGID_22_" gradientUnits="userSpaceOnUse" x1="269.2246" y1="191.8018" x2="202.2246" y2="191.8018" gradientTransform="matrix(0.75 0 0 -0.75 346.1356 686.2726)">
		<stop  offset="0" style="stop-color:#3D3B3B"/>
		<stop  offset="0.01" style="stop-color:#908F8F"/>
		<stop  offset="0.02" style="stop-color:#514F4F"/>
		<stop  offset="0.64" style="stop-color:#504E4E"/>
		<stop  offset="0.99" style="stop-color:#4E4C4C"/>
		<stop  offset="1" style="stop-color:#383636"/>
	</linearGradient>
	<path fill="url(#SVGID_22_)" d="M497.804,535.296h50.25v14.25h-50.25V535.296z"/>
	<path fill="#FFFFFF" fill-opacity="0.3804" d="M56.852,347.503h125.25c0.75,0,1.484,0.738,1.484,1.645l0.016,22.355
		c0,0.75-0.75,1.586-1.652,1.586l-125.098-0.086c-0.75,0-1.5-0.648-1.5-1.559v-22.441c0-0.75,0.734-1.5,1.637-1.5H56.852z"/>
	<path fill="#FFFFFF" fill-opacity="0.3804" d="M397.863,153.773h125.25v70.5h-125.25V153.773z"/>
	
		<linearGradient id="SVGID_23_" gradientUnits="userSpaceOnUse" x1="208.8574" y1="201.3027" x2="208.8574" y2="187.9014" gradientTransform="matrix(0.75 0 0 -0.75 257.4481 313.2462)">
		<stop  offset="0" style="stop-color:#BDA000"/>
		<stop  offset="0.15" style="stop-color:#FFDC45"/>
		<stop  offset="0.25" style="stop-color:#FFEBB3"/>
		<stop  offset="0.52" style="stop-color:#DFBE00"/>
		<stop  offset="0.69" style="stop-color:#C7A900"/>
		<stop  offset="0.8" style="stop-color:#BC9F00"/>
		<stop  offset="0.92" style="stop-color:#B19600"/>
		<stop  offset="1" style="stop-color:#CBAD00"/>
	</linearGradient>
	<path fill="url(#SVGID_23_)" d="M409.117,167.52c0-3,2.211-5.25,4.973-5.25c2.527,0,5.004,2.25,5.004,5.023
		c-0.227,2.477-2.238,5.027-5.004,5.027c-2.723-0.301-5-2.25-5-5.027L409.117,167.52z"/>
	
		<linearGradient id="SVGID_24_" gradientUnits="userSpaceOnUse" x1="208.8564" y1="201.3027" x2="208.8564" y2="187.9014" gradientTransform="matrix(0.75 0 0 -0.75 280.7675 313.2462)">
		<stop  offset="0" style="stop-color:#BDA000"/>
		<stop  offset="0.15" style="stop-color:#FFDC45"/>
		<stop  offset="0.25" style="stop-color:#FFEBB3"/>
		<stop  offset="0.52" style="stop-color:#DFBE00"/>
		<stop  offset="0.69" style="stop-color:#C7A900"/>
		<stop  offset="0.8" style="stop-color:#BC9F00"/>
		<stop  offset="0.92" style="stop-color:#B19600"/>
		<stop  offset="1" style="stop-color:#CBAD00"/>
	</linearGradient>
	<path fill="url(#SVGID_24_)" d="M432.437,167.52c0-3,2.211-5.25,4.973-5.25c2.527,0,5.004,2.25,5.004,5.023
		c-0.227,2.477-2.242,5.027-5.004,5.027c-2.723-0.301-5.004-2.25-5.004-5.027L432.437,167.52z"/>
	
		<linearGradient id="SVGID_25_" gradientUnits="userSpaceOnUse" x1="208.8579" y1="201.3027" x2="208.8579" y2="187.9014" gradientTransform="matrix(0.75 0 0 -0.75 304.038 313.2462)">
		<stop  offset="0" style="stop-color:#BDA000"/>
		<stop  offset="0.15" style="stop-color:#FFDC45"/>
		<stop  offset="0.25" style="stop-color:#FFEBB3"/>
		<stop  offset="0.52" style="stop-color:#DFBE00"/>
		<stop  offset="0.69" style="stop-color:#C7A900"/>
		<stop  offset="0.8" style="stop-color:#BC9F00"/>
		<stop  offset="0.92" style="stop-color:#B19600"/>
		<stop  offset="1" style="stop-color:#CBAD00"/>
	</linearGradient>
	<path fill="url(#SVGID_25_)" d="M455.707,167.52c0-3,2.211-5.25,4.973-5.25c2.527,0,5.004,2.25,5.004,5.023
		c-0.227,2.477-2.238,5.027-5.004,5.027c-2.723-0.301-5-2.25-5-5.027L455.707,167.52z"/>
	
		<linearGradient id="SVGID_26_" gradientUnits="userSpaceOnUse" x1="208.8564" y1="201.3018" x2="208.8564" y2="187.9004" gradientTransform="matrix(0.75 0 0 -0.75 257.4764 336.0773)">
		<stop  offset="0" style="stop-color:#AE4F52"/>
		<stop  offset="0.15" style="stop-color:#EC7D80"/>
		<stop  offset="0.25" style="stop-color:#F4C1C2"/>
		<stop  offset="0.52" style="stop-color:#CE5E62"/>
		<stop  offset="0.69" style="stop-color:#B75356"/>
		<stop  offset="0.8" style="stop-color:#AD4E51"/>
		<stop  offset="0.92" style="stop-color:#A3494C"/>
		<stop  offset="1" style="stop-color:#BB5559"/>
	</linearGradient>
	<path fill="url(#SVGID_26_)" d="M409.144,190.352c0-3,2.211-5.25,4.977-5.25c2.523,0,5,2.25,5,5.023
		c-0.227,2.477-2.238,5.027-5,5.027c-2.727-0.301-5.004-2.25-5.004-5.027L409.144,190.352z"/>
	
		<linearGradient id="SVGID_27_" gradientUnits="userSpaceOnUse" x1="208.8574" y1="201.3018" x2="208.8574" y2="187.9004" gradientTransform="matrix(0.75 0 0 -0.75 280.7958 336.0773)">
		<stop  offset="0" style="stop-color:#AE4F52"/>
		<stop  offset="0.15" style="stop-color:#EC7D80"/>
		<stop  offset="0.25" style="stop-color:#F4C1C2"/>
		<stop  offset="0.52" style="stop-color:#CE5E62"/>
		<stop  offset="0.69" style="stop-color:#B75356"/>
		<stop  offset="0.8" style="stop-color:#AD4E51"/>
		<stop  offset="0.92" style="stop-color:#A3494C"/>
		<stop  offset="1" style="stop-color:#BB5559"/>
	</linearGradient>
	<path fill="url(#SVGID_27_)" d="M432.464,190.352c0-3,2.211-5.25,4.973-5.25c2.527,0,5.004,2.25,5.004,5.023
		c-0.227,2.477-2.242,5.027-5.004,5.027c-2.723-0.301-5-2.25-5-5.027L432.464,190.352z"/>
	
		<linearGradient id="SVGID_28_" gradientUnits="userSpaceOnUse" x1="208.856" y1="201.3018" x2="208.856" y2="187.9004" gradientTransform="matrix(0.75 0 0 -0.75 304.0663 336.0773)">
		<stop  offset="0" style="stop-color:#AE4F52"/>
		<stop  offset="0.15" style="stop-color:#EC7D80"/>
		<stop  offset="0.25" style="stop-color:#F4C1C2"/>
		<stop  offset="0.52" style="stop-color:#CE5E62"/>
		<stop  offset="0.69" style="stop-color:#B75356"/>
		<stop  offset="0.8" style="stop-color:#AD4E51"/>
		<stop  offset="0.92" style="stop-color:#A3494C"/>
		<stop  offset="1" style="stop-color:#BB5559"/>
	</linearGradient>
	<path fill="url(#SVGID_28_)" d="M455.734,190.352c0-3,2.211-5.25,4.977-5.25c2.523,0,5,2.25,5,5.023
		c-0.227,2.477-2.238,5.027-5,5.027c-2.727-0.301-5.004-2.25-5.004-5.027L455.734,190.352z"/>
	
		<linearGradient id="SVGID_29_" gradientUnits="userSpaceOnUse" x1="208.855" y1="201.3027" x2="208.855" y2="187.9014" gradientTransform="matrix(0.75 0 0 -0.75 327.1219 336.0773)">
		<stop  offset="0" style="stop-color:#AE4F52"/>
		<stop  offset="0.15" style="stop-color:#EC7D80"/>
		<stop  offset="0.25" style="stop-color:#F4C1C2"/>
		<stop  offset="0.52" style="stop-color:#CE5E62"/>
		<stop  offset="0.69" style="stop-color:#B75356"/>
		<stop  offset="0.8" style="stop-color:#AD4E51"/>
		<stop  offset="0.92" style="stop-color:#A3494C"/>
		<stop  offset="1" style="stop-color:#BB5559"/>
	</linearGradient>
	<path fill="url(#SVGID_29_)" d="M478.789,190.352c0-3,2.211-5.25,4.977-5.25c2.523,0,5,2.25,5,5.023
		c-0.227,2.477-2.238,5.027-5,5.027c-2.727-0.301-5.004-2.25-5.004-5.027L478.789,190.352z"/>
	
		<linearGradient id="SVGID_30_" gradientUnits="userSpaceOnUse" x1="208.856" y1="201.3027" x2="208.856" y2="187.9014" gradientTransform="matrix(0.75 0 0 -0.75 350.3925 336.0773)">
		<stop  offset="0" style="stop-color:#AE4F52"/>
		<stop  offset="0.15" style="stop-color:#EC7D80"/>
		<stop  offset="0.25" style="stop-color:#F4C1C2"/>
		<stop  offset="0.52" style="stop-color:#CE5E62"/>
		<stop  offset="0.69" style="stop-color:#B75356"/>
		<stop  offset="0.8" style="stop-color:#AD4E51"/>
		<stop  offset="0.92" style="stop-color:#A3494C"/>
		<stop  offset="1" style="stop-color:#BB5559"/>
	</linearGradient>
	<path fill="url(#SVGID_30_)" d="M502.062,190.352c0-3,2.211-5.25,4.973-5.25c2.527,0,5.004,2.25,5.004,5.023
		c-0.227,2.477-2.242,5.027-5.004,5.027c-2.723-0.301-5.004-2.25-5.004-5.027L502.062,190.352z"/>
	
		<linearGradient id="SVGID_31_" gradientUnits="userSpaceOnUse" x1="208.8564" y1="201.3027" x2="208.8564" y2="187.9014" gradientTransform="matrix(0.75 0 0 -0.75 257.4764 356.5011)">
		<stop  offset="0" style="stop-color:#398C8E"/>
		<stop  offset="0.15" style="stop-color:#67C3C5"/>
		<stop  offset="0.25" style="stop-color:#BBDEE0"/>
		<stop  offset="0.52" style="stop-color:#45A6A9"/>
		<stop  offset="0.69" style="stop-color:#3C9396"/>
		<stop  offset="0.8" style="stop-color:#388B8D"/>
		<stop  offset="0.92" style="stop-color:#358385"/>
		<stop  offset="1" style="stop-color:#3E9799"/>
	</linearGradient>
	<path fill="url(#SVGID_31_)" d="M409.144,210.773c0-3,2.211-5.25,4.977-5.25c2.523,0,5,2.25,5,5.027
		c-0.227,2.473-2.238,5.023-5,5.023c-2.727-0.301-5.004-2.25-5.004-5.023L409.144,210.773z"/>
	
		<linearGradient id="SVGID_32_" gradientUnits="userSpaceOnUse" x1="208.8574" y1="201.3027" x2="208.8574" y2="187.9014" gradientTransform="matrix(0.75 0 0 -0.75 280.7958 356.5011)">
		<stop  offset="0" style="stop-color:#398C8E"/>
		<stop  offset="0.15" style="stop-color:#67C3C5"/>
		<stop  offset="0.25" style="stop-color:#BBDEE0"/>
		<stop  offset="0.52" style="stop-color:#45A6A9"/>
		<stop  offset="0.69" style="stop-color:#3C9396"/>
		<stop  offset="0.8" style="stop-color:#388B8D"/>
		<stop  offset="0.92" style="stop-color:#358385"/>
		<stop  offset="1" style="stop-color:#3E9799"/>
	</linearGradient>
	<path fill="url(#SVGID_32_)" d="M432.464,210.773c0-3,2.211-5.25,4.973-5.25c2.527,0,5.004,2.25,5.004,5.027
		c-0.227,2.473-2.242,5.023-5.004,5.023c-2.723-0.301-5-2.25-5-5.023L432.464,210.773z"/>
	
		<linearGradient id="SVGID_33_" gradientUnits="userSpaceOnUse" x1="208.856" y1="201.3027" x2="208.856" y2="187.9014" gradientTransform="matrix(0.75 0 0 -0.75 304.0663 356.5011)">
		<stop  offset="0" style="stop-color:#398C8E"/>
		<stop  offset="0.15" style="stop-color:#67C3C5"/>
		<stop  offset="0.25" style="stop-color:#BBDEE0"/>
		<stop  offset="0.52" style="stop-color:#45A6A9"/>
		<stop  offset="0.69" style="stop-color:#3C9396"/>
		<stop  offset="0.8" style="stop-color:#388B8D"/>
		<stop  offset="0.92" style="stop-color:#358385"/>
		<stop  offset="1" style="stop-color:#3E9799"/>
	</linearGradient>
	<path fill="url(#SVGID_33_)" d="M455.734,210.773c0-3,2.211-5.25,4.977-5.25c2.523,0,5,2.25,5,5.027
		c-0.227,2.473-2.238,5.023-5,5.023c-2.727-0.301-5.004-2.25-5.004-5.023L455.734,210.773z"/>
	
		<linearGradient id="SVGID_34_" gradientUnits="userSpaceOnUse" x1="208.855" y1="201.3037" x2="208.855" y2="187.9023" gradientTransform="matrix(0.75 0 0 -0.75 327.1219 356.5011)">
		<stop  offset="0" style="stop-color:#398C8E"/>
		<stop  offset="0.15" style="stop-color:#67C3C5"/>
		<stop  offset="0.25" style="stop-color:#BBDEE0"/>
		<stop  offset="0.52" style="stop-color:#45A6A9"/>
		<stop  offset="0.69" style="stop-color:#3C9396"/>
		<stop  offset="0.8" style="stop-color:#388B8D"/>
		<stop  offset="0.92" style="stop-color:#358385"/>
		<stop  offset="1" style="stop-color:#3E9799"/>
	</linearGradient>
	<path fill="url(#SVGID_34_)" d="M478.789,210.773c0-3,2.211-5.25,4.977-5.25c2.523,0,5,2.25,5,5.027
		c-0.227,2.473-2.238,5.023-5,5.023c-2.727-0.301-5.004-2.25-5.004-5.023L478.789,210.773z"/>
	
		<linearGradient id="SVGID_35_" gradientUnits="userSpaceOnUse" x1="208.856" y1="201.3037" x2="208.856" y2="187.9023" gradientTransform="matrix(0.75 0 0 -0.75 350.3925 356.5011)">
		<stop  offset="0" style="stop-color:#398C8E"/>
		<stop  offset="0.15" style="stop-color:#67C3C5"/>
		<stop  offset="0.25" style="stop-color:#BBDEE0"/>
		<stop  offset="0.52" style="stop-color:#45A6A9"/>
		<stop  offset="0.69" style="stop-color:#3C9396"/>
		<stop  offset="0.8" style="stop-color:#388B8D"/>
		<stop  offset="0.92" style="stop-color:#358385"/>
		<stop  offset="1" style="stop-color:#3E9799"/>
	</linearGradient>
	<path fill="url(#SVGID_35_)" d="M502.062,210.773c0-3,2.211-5.25,4.973-5.25c2.527,0,5.004,2.25,5.004,5.027
		c-0.227,2.473-2.242,5.023-5.004,5.023c-2.723-0.301-5.004-2.25-5.004-5.023L502.062,210.773z"/>
	<path fill="#FFFFFF" fill-opacity="0.3804" d="M498.765,349.808h45.75v66.75h-45.75V349.808z"/>
	<path fill="#9E9F9F" d="M63.945,360.574c0-4.5,3.207-7.5,7.164-7.5c4.086,0,7.16,3.219,7.16,7.195
		c-0.074,4.055-3.207,7.195-7.16,7.195c-4.164-0.141-7.164-3.223-7.164-7.195V360.574z"/>
	
		<linearGradient id="SVGID_36_" gradientUnits="userSpaceOnUse" x1="209.5195" y1="201.3057" x2="209.5195" y2="186.6543" gradientTransform="matrix(0.75 0 0 -0.75 -86.0182 505.7638)">
		<stop  offset="0" style="stop-color:#403E3E"/>
		<stop  offset="0.15" style="stop-color:#6D6C6C"/>
		<stop  offset="0.25" style="stop-color:#BCBCBC"/>
		<stop  offset="0.52" style="stop-color:#4D4B4B"/>
		<stop  offset="0.69" style="stop-color:#434242"/>
		<stop  offset="0.8" style="stop-color:#3F3E3E"/>
		<stop  offset="0.92" style="stop-color:#3B3A3A"/>
		<stop  offset="1" style="stop-color:#454444"/>
	</linearGradient>
	<path fill="url(#SVGID_36_)" d="M65.652,360.035c0-3,2.441-5.25,5.457-5.25c2.793,0,5.453,2.457,5.453,5.484
		c0.34,2.766-2.441,5.484-5.453,5.484c-3.207,0.281-5.457-2.457-5.457-5.484V360.035z"/>
	<path fill="#9E9F9F" d="M88.098,360.574c0-4.5,3.207-7.5,7.16-7.5c4.09,0,7.164,3.219,7.164,7.195
		c-0.074,4.055-3.207,7.195-7.164,7.195c-4.16-0.141-7.16-3.223-7.16-7.195V360.574z"/>
	
		<linearGradient id="SVGID_37_" gradientUnits="userSpaceOnUse" x1="209.5181" y1="201.3057" x2="209.5181" y2="186.6543" gradientTransform="matrix(0.75 0 0 -0.75 -61.8668 505.7638)">
		<stop  offset="0" style="stop-color:#403E3E"/>
		<stop  offset="0.15" style="stop-color:#6D6C6C"/>
		<stop  offset="0.25" style="stop-color:#BCBCBC"/>
		<stop  offset="0.52" style="stop-color:#4D4B4B"/>
		<stop  offset="0.69" style="stop-color:#434242"/>
		<stop  offset="0.8" style="stop-color:#3F3E3E"/>
		<stop  offset="0.92" style="stop-color:#3B3A3A"/>
		<stop  offset="1" style="stop-color:#454444"/>
	</linearGradient>
	<path fill="url(#SVGID_37_)" d="M89.801,360.035c0-3,2.445-5.25,5.457-5.25c2.793,0,5.457,2.457,5.457,5.484
		c0.336,2.766-2.441,5.484-5.457,5.484c-3.207,0.281-5.457-2.457-5.457-5.484V360.035z"/>
	<path fill="#9E9F9F" d="M112.305,360.574c0-4.5,3.207-7.5,7.164-7.5c4.086,0,7.16,3.219,7.16,7.195
		c-0.074,4.055-3.203,7.195-7.16,7.195c-4.164-0.141-7.164-3.223-7.164-7.195V360.574z"/>
	
		<linearGradient id="SVGID_38_" gradientUnits="userSpaceOnUse" x1="209.5195" y1="201.3057" x2="209.5195" y2="186.6543" gradientTransform="matrix(0.75 0 0 -0.75 -37.6573 505.7638)">
		<stop  offset="0" style="stop-color:#403E3E"/>
		<stop  offset="0.15" style="stop-color:#6D6C6C"/>
		<stop  offset="0.25" style="stop-color:#BCBCBC"/>
		<stop  offset="0.52" style="stop-color:#4D4B4B"/>
		<stop  offset="0.69" style="stop-color:#434242"/>
		<stop  offset="0.8" style="stop-color:#3F3E3E"/>
		<stop  offset="0.92" style="stop-color:#3B3A3A"/>
		<stop  offset="1" style="stop-color:#454444"/>
	</linearGradient>
	<path fill="url(#SVGID_38_)" d="M114.012,360.035c0-3,2.441-5.25,5.457-5.25c2.793,0,5.457,2.457,5.457,5.484
		c0.336,2.766-2.445,5.484-5.457,5.484c-3.207,0.281-5.457-2.457-5.457-5.484V360.035z"/>
	<path fill="#9E9F9F" d="M136.398,360.574c0-4.5,3.207-7.5,7.164-7.5c4.086,0,7.16,3.219,7.16,7.195
		c-0.074,4.055-3.207,7.195-7.16,7.195c-4.164-0.141-7.164-3.223-7.164-7.195V360.574z"/>
	
		<linearGradient id="SVGID_39_" gradientUnits="userSpaceOnUse" x1="209.521" y1="201.3057" x2="209.521" y2="186.6543" gradientTransform="matrix(0.75 0 0 -0.75 -13.5646 505.7638)">
		<stop  offset="0" style="stop-color:#403E3E"/>
		<stop  offset="0.15" style="stop-color:#6D6C6C"/>
		<stop  offset="0.25" style="stop-color:#BCBCBC"/>
		<stop  offset="0.52" style="stop-color:#4D4B4B"/>
		<stop  offset="0.69" style="stop-color:#434242"/>
		<stop  offset="0.8" style="stop-color:#3F3E3E"/>
		<stop  offset="0.92" style="stop-color:#3B3A3A"/>
		<stop  offset="1" style="stop-color:#454444"/>
	</linearGradient>
	<path fill="url(#SVGID_39_)" d="M138.105,360.035c0-3,2.441-5.25,5.457-5.25c2.793,0,5.457,2.457,5.457,5.484
		c0.336,2.766-2.445,5.484-5.457,5.484c-3.207,0.281-5.457-2.457-5.457-5.484V360.035z"/>
	<path fill="#9E9F9F" d="M160.551,360.574c0-4.5,3.207-7.5,7.16-7.5c4.09,0,7.164,3.219,7.164,7.195
		c-0.074,4.055-3.207,7.195-7.164,7.195c-4.16-0.141-7.16-3.223-7.16-7.195V360.574z"/>
	
		<linearGradient id="SVGID_40_" gradientUnits="userSpaceOnUse" x1="209.5176" y1="201.3057" x2="209.5176" y2="186.6543" gradientTransform="matrix(0.75 0 0 -0.75 10.5868 505.7638)">
		<stop  offset="0" style="stop-color:#403E3E"/>
		<stop  offset="0.15" style="stop-color:#6D6C6C"/>
		<stop  offset="0.25" style="stop-color:#BCBCBC"/>
		<stop  offset="0.52" style="stop-color:#4D4B4B"/>
		<stop  offset="0.69" style="stop-color:#434242"/>
		<stop  offset="0.8" style="stop-color:#3F3E3E"/>
		<stop  offset="0.92" style="stop-color:#3B3A3A"/>
		<stop  offset="1" style="stop-color:#454444"/>
	</linearGradient>
	<path fill="url(#SVGID_40_)" d="M162.254,360.035c0-3,2.445-5.25,5.457-5.25c2.793,0,5.457,2.457,5.457,5.484
		c0.336,2.766-2.441,5.484-5.457,5.484c-3.207,0.281-5.457-2.457-5.457-5.484V360.035z"/>
	
		<linearGradient id="SVGID_41_" gradientUnits="userSpaceOnUse" x1="924.2261" y1="195.8042" x2="202.2261" y2="195.8041" gradientTransform="matrix(0.75 0 0 -0.75 -130.8776 438.8907)">
		<stop  offset="0" style="stop-color:#799873"/>
		<stop  offset="0.01" style="stop-color:#C1E0BB"/>
		<stop  offset="0.02" style="stop-color:#9FC697"/>
		<stop  offset="0.64" style="stop-color:#9CC394"/>
		<stop  offset="0.99" style="stop-color:#99BE91"/>
		<stop  offset="1" style="stop-color:#708D6A"/>
	</linearGradient>
	<path fill="url(#SVGID_41_)" d="M20.793,287.914h541.5v8.25h-541.5V287.914z"/>
	
		<linearGradient id="SVGID_42_" gradientUnits="userSpaceOnUse" x1="924.2261" y1="194.8052" x2="202.2261" y2="194.8051" gradientTransform="matrix(0.75 0 0 -0.75 -130.8776 706.2863)">
		<stop  offset="0" style="stop-color:#799873"/>
		<stop  offset="0.01" style="stop-color:#C1E0BB"/>
		<stop  offset="0.02" style="stop-color:#9FC697"/>
		<stop  offset="0.64" style="stop-color:#9CC394"/>
		<stop  offset="0.99" style="stop-color:#99BE91"/>
		<stop  offset="1" style="stop-color:#708D6A"/>
	</linearGradient>
	<path fill="url(#SVGID_42_)" d="M20.793,555.308h541.5v9.75h-541.5V555.308z"/>
</g>
</svg>
