<?xml version="1.0" encoding="utf-8"?>
<!-- Generator: Adobe Illustrator 16.0.0, SVG Export Plug-In . SVG Version: 6.00 Build 0)  -->
<!DOCTYPE svg PUBLIC "-//W3C//DTD SVG 1.1//EN" "http://www.w3.org/Graphics/SVG/1.1/DTD/svg11.dtd">
<svg preserveAspectRatio="none" version="1.1" id="图层_1" xmlns="http://www.w3.org/2000/svg" xmlns:xlink="http://www.w3.org/1999/xlink" x="0px" y="0px"
	 width="77.402px" height="182.395px" viewBox="29.848 29.855 77.402 182.395"
	 enable-background="new 29.848 29.855 77.402 182.395" xml:space="preserve">
<g id="surface11">
	
		<linearGradient id="SVGID_1_" gradientUnits="userSpaceOnUse" x1="161.4873" y1="43.5635" x2="58.4873" y2="43.5635" gradientTransform="matrix(0.75 0 0 -0.75 -13.8662 153.7246)">
		<stop  offset="0" style="stop-color:#696E83"/>
		<stop  offset="0.01" style="stop-color:#B2B7CB"/>
		<stop  offset="0.05" style="stop-color:#8B91AC"/>
		<stop  offset="0.9" style="stop-color:#888FA9"/>
		<stop  offset="0.95" style="stop-color:#858BA5"/>
		<stop  offset="1" style="stop-color:#61667A"/>
	</linearGradient>
	<path fill="url(#SVGID_1_)" d="M31.5,29.855h74.25c0.75,0,1.5,0.789,1.5,1.773v178.977c0,0.75-0.809,1.645-1.789,1.645
		L31.5,212.105c-0.75,0-1.5-0.672-1.5-1.66V31.355c0-0.75,0.781-1.5,1.758-1.5H31.5z"/>
	
		<linearGradient id="SVGID_2_" gradientUnits="userSpaceOnUse" x1="-836.7388" y1="98.6597" x2="-881.7388" y2="98.6597" gradientTransform="matrix(-0.75 0 0 -0.75 -597.707 217.9551)">
		<stop  offset="0" style="stop-color:#000000"/>
		<stop  offset="0.05" style="stop-color:#7C7C7C"/>
		<stop  offset="0.11" style="stop-color:#000000"/>
		<stop  offset="0.9" style="stop-color:#000000"/>
		<stop  offset="0.95" style="stop-color:#000000"/>
		<stop  offset="1" style="stop-color:#000000"/>
	</linearGradient>
	<path fill="url(#SVGID_2_)" d="M63.598,94.086h-33.75v99.75h33.75V94.086z"/>
	<path fill="#696E83" d="M87.906,106.098h15c0.75,0,1.844,0.801,1.844,1.785l-0.344,71.715c0,1.5-0.445,2.148-1.422,2.148
		l-15.078,0.102c-0.75,0-1.5-0.902-1.5-1.887v-72.363c0-0.75,0.793-1.5,1.77-1.5H87.906z"/>
	
		<linearGradient id="SVGID_3_" gradientUnits="userSpaceOnUse" x1="73.4854" y1="157.6455" x2="58.4854" y2="157.6455" gradientTransform="matrix(0.75 0 0 -0.75 46.1431 216.9043)">
		<stop  offset="0" style="stop-color:#AAA89D"/>
		<stop  offset="0.01" style="stop-color:#F3F1E6"/>
		<stop  offset="0.05" style="stop-color:#DDDACD"/>
		<stop  offset="0.9" style="stop-color:#D9D7CA"/>
		<stop  offset="0.95" style="stop-color:#D5D2C5"/>
		<stop  offset="1" style="stop-color:#9E9C92"/>
	</linearGradient>
	<path fill="url(#SVGID_3_)" d="M90.758,93.035h9.75c0,0,0.691,0.379,0.691,0.871l0.059,9.629c0,0.75-0.453,0.797-0.941,0.797
		l-9.559-0.047c0,0-0.75-0.367-0.75-0.859v-9.641c0,0,0.391-0.773,0.879-0.773L90.758,93.035z"/>
	
		<linearGradient id="SVGID_4_" gradientUnits="userSpaceOnUse" x1="69.7715" y1="159.4502" x2="58.4541" y2="159.4502" gradientTransform="matrix(0.75 0 0 -0.75 47.5107 218.2578)">
		<stop  offset="0" style="stop-color:#303638"/>
		<stop  offset="0.01" style="stop-color:#898C8E"/>
		<stop  offset="0.05" style="stop-color:#42494C"/>
		<stop  offset="0.9" style="stop-color:#40484A"/>
		<stop  offset="0.95" style="stop-color:#3F4649"/>
		<stop  offset="1" style="stop-color:#2C3134"/>
	</linearGradient>
	<path fill="url(#SVGID_4_)" d="M91.379,98.887c0-2.25,1.875-4.5,4.219-4.5c2.531,0,4.242,1.918,4.242,4.285
		c-0.211,2.465-1.898,4.285-4.242,4.285c-1.969-0.32-4.246-1.918-4.246-4.285L91.379,98.887z"/>
	<path fill="#888FA9" d="M88.305,107.031h14.25c0.75,0,1.051,0.391,1.051,0.883l-0.301,71.867c0,0.75-0.105,1.027-0.594,1.027
		l-14.406-0.277c0,0-0.77-0.121-0.77-0.613l0.02-72.137c0,0,0.375-0.75,0.863-0.75H88.305z"/>
	
		<linearGradient id="SVGID_5_" gradientUnits="userSpaceOnUse" x1="71.4893" y1="140.4854" x2="58.4893" y2="140.4854" gradientTransform="matrix(0.75 0 0 -0.75 48.0425 232.8672)">
		<stop  offset="0" style="stop-color:#A8A389"/>
		<stop  offset="0.01" style="stop-color:#F1ECD1"/>
		<stop  offset="0.05" style="stop-color:#DAD5B3"/>
		<stop  offset="0.9" style="stop-color:#D7D1B0"/>
		<stop  offset="0.95" style="stop-color:#D2CDAC"/>
		<stop  offset="1" style="stop-color:#9C977F"/>
	</linearGradient>
	<path fill="url(#SVGID_5_)" d="M92.66,108.996h8.25c0,0,0.742,0.418,0.742,0.938l0.008,35.063c0,0.75-0.422,1.016-0.934,1.016
		l-8.066-0.266c0,0-0.75-0.156-0.75-0.672v-35.328c0,0,0.414-0.75,0.926-0.75H92.66z"/>
	
		<linearGradient id="SVGID_6_" gradientUnits="userSpaceOnUse" x1="71.5576" y1="144.9775" x2="58.4736" y2="144.9775" gradientTransform="matrix(0.75 0 0 -0.75 48.0542 272.7344)">
		<stop  offset="0" style="stop-color:#A8A389"/>
		<stop  offset="0.01" style="stop-color:#F1ECD1"/>
		<stop  offset="0.05" style="stop-color:#DAD5B3"/>
		<stop  offset="0.9" style="stop-color:#D7D1B0"/>
		<stop  offset="0.95" style="stop-color:#D2CDAC"/>
		<stop  offset="1" style="stop-color:#9C977F"/>
	</linearGradient>
	<path fill="url(#SVGID_6_)" d="M92.672,148.863h8.25c0.75,0,0.801,0.398,0.801,0.918l-0.051,28.332c0,0.75-0.363,1.027-0.875,1.027
		l-8.125-0.277c0,0-0.762-0.141-0.762-0.66l0.012-28.59c0,0,0.402-0.75,0.914-0.75H92.672z"/>
	
		<linearGradient id="SVGID_7_" gradientUnits="userSpaceOnUse" x1="67.4863" y1="145.665" x2="58.4658" y2="145.665" gradientTransform="matrix(0.75 0 0 -0.75 49.0996 236.9121)">
		<stop  offset="0" style="stop-color:#303638"/>
		<stop  offset="0.01" style="stop-color:#898C8E"/>
		<stop  offset="0.05" style="stop-color:#42494C"/>
		<stop  offset="0.9" style="stop-color:#40484A"/>
		<stop  offset="0.95" style="stop-color:#3F4649"/>
		<stop  offset="1" style="stop-color:#2C3134"/>
	</linearGradient>
	<path fill="url(#SVGID_7_)" d="M93.715,113.039l5.25,0.75c0,0,0.605,0.645,0.605,1.137l0.145,25.113
		c0,0.75-0.543,0.941-1.031,0.941l-4.969,1.309c0,0-0.766-0.73-0.766-1.227l0.016-27.273c0,0,0.379-0.75,0.867-0.75H93.715z"/>
	
		<linearGradient id="SVGID_8_" gradientUnits="userSpaceOnUse" x1="67.4873" y1="150.1592" x2="58.4766" y2="150.1592" gradientTransform="matrix(0.75 0 0 -0.75 49.0718 276.6738)">
		<stop  offset="0" style="stop-color:#303638"/>
		<stop  offset="0.01" style="stop-color:#898C8E"/>
		<stop  offset="0.05" style="stop-color:#42494C"/>
		<stop  offset="0.9" style="stop-color:#40484A"/>
		<stop  offset="0.95" style="stop-color:#3F4649"/>
		<stop  offset="1" style="stop-color:#2C3134"/>
	</linearGradient>
	<path fill="url(#SVGID_8_)" d="M93.688,152.805l5.25,0.75c0,0,0.633,0.645,0.633,1.137l0.117,18.363c0,0.75-0.531,1.164-1.02,1.164
		l-4.98,1.086c0,0-0.758-0.512-0.758-1.004l0.008-20.746c0,0,0.406-0.75,0.895-0.75H93.688z"/>
	<path d="M93.906,115.902c0,0,0.41-0.75,0.93-0.75c0.57,0,0.941,0.422,0.941,0.949c-0.371,0.551-0.422,0.953-0.941,0.953
		c-0.18,0.348-0.945-0.426-0.945-0.953L93.906,115.902z"/>
	<path d="M93.906,118.758c0,0,0.41-0.75,0.93-0.75c0.57,0,0.941,0.426,0.941,0.949c-0.371,0.551-0.422,0.953-0.941,0.953
		c-0.18,0.348-0.945-0.426-0.945-0.953L93.906,118.758z"/>
	<path d="M93.906,122.359c0,0,0.41-0.75,0.93-0.75c0.57,0,0.941,0.422,0.941,0.949c-0.371,0.551-0.422,0.953-0.941,0.953
		c-0.18,0.348-0.945-0.43-0.945-0.953L93.906,122.359z"/>
	<path d="M93.906,125.586c0,0,0.41-0.75,0.93-0.75c0.57,0,0.941,0.426,0.941,0.949c-0.371,0.551-0.422,0.953-0.941,0.953
		c-0.18,0.348-0.945-0.426-0.945-0.953L93.906,125.586z"/>
	<path d="M93.906,128.816c0,0,0.41-0.75,0.93-0.75c0.57,0,0.941,0.422,0.941,0.949c-0.371,0.551-0.422,0.949-0.941,0.949
		c-0.18,0.352-0.945-0.426-0.945-0.949L93.906,128.816z"/>
	<path d="M93.906,132.043c0,0,0.41-0.75,0.93-0.75c0.57,0,0.941,0.422,0.941,0.949c-0.371,0.551-0.422,0.953-0.941,0.953
		c-0.18,0.348-0.945-0.426-0.945-0.953L93.906,132.043z"/>
	<path d="M93.906,135.273c0,0,0.41-0.75,0.93-0.75c0.57,0,0.941,0.422,0.941,0.949c-0.371,0.551-0.422,0.949-0.941,0.949
		c-0.18,0.352-0.945-0.426-0.945-0.949L93.906,135.273z"/>
	<path d="M93.906,138.723c0,0,0.41-0.75,0.93-0.75c0.57,0,0.941,0.422,0.941,0.949c-0.371,0.551-0.422,0.953-0.941,0.953
		c-0.18,0.348-0.945-0.426-0.945-0.953L93.906,138.723z"/>
	<path d="M96.824,117.625c0,0,0.406-0.75,0.93-0.75c0.57,0,0.941,0.422,0.941,0.949c-0.371,0.551-0.422,0.953-0.941,0.953
		c-0.18,0.348-0.945-0.426-0.945-0.953L96.824,117.625z"/>
	<path d="M96.824,120.48c0,0,0.406-0.75,0.93-0.75c0.57,0,0.941,0.426,0.941,0.949c-0.371,0.551-0.422,0.953-0.941,0.953
		c-0.18,0.348-0.945-0.426-0.945-0.953L96.824,120.48z"/>
	<path d="M96.824,124.082c0,0,0.406-0.75,0.93-0.75c0.57,0,0.941,0.422,0.941,0.949c-0.371,0.551-0.422,0.953-0.941,0.953
		c-0.18,0.348-0.945-0.43-0.945-0.953L96.824,124.082z"/>
	<path d="M96.824,127.313c0,0,0.406-0.75,0.93-0.75c0.57,0,0.941,0.422,0.941,0.949c-0.371,0.551-0.422,0.949-0.941,0.949
		c-0.18,0.352-0.945-0.426-0.945-0.949L96.824,127.313z"/>
	<path d="M96.824,130.539c0,0,0.406-0.75,0.93-0.75c0.57,0,0.941,0.422,0.941,0.949c-0.371,0.551-0.422,0.949-0.941,0.949
		c-0.18,0.352-0.945-0.426-0.945-0.949L96.824,130.539z"/>
	<path d="M96.824,133.766c0,0,0.406-0.75,0.93-0.75c0.57,0,0.941,0.422,0.941,0.949c-0.371,0.551-0.422,0.953-0.941,0.953
		c-0.18,0.348-0.945-0.426-0.945-0.953L96.824,133.766z"/>
	<path d="M96.824,136.996c0,0,0.406-0.75,0.93-0.75c0.57,0,0.941,0.422,0.941,0.945c-0.371,0.555-0.422,0.953-0.941,0.953
		c-0.18,0.352-0.945-0.426-0.945-0.953L96.824,136.996z"/>
	<path d="M93.906,155.598c0,0,0.41-0.75,0.93-0.75c0.57,0,0.941,0.422,0.941,0.945c-0.371,0.555-0.422,0.953-0.941,0.953
		c-0.18,0.352-0.945-0.426-0.945-0.953L93.906,155.598z"/>
	<path d="M93.906,158.824c0,0,0.41-0.75,0.93-0.75c0.57,0,0.941,0.422,0.941,0.949c-0.371,0.551-0.422,0.953-0.941,0.953
		c-0.18,0.348-0.945-0.43-0.945-0.953L93.906,158.824z"/>
	<path d="M93.906,162.051c0,0,0.41-0.75,0.93-0.75c0.57,0,0.941,0.426,0.941,0.949c-0.371,0.551-0.422,0.953-0.941,0.953
		c-0.18,0.348-0.945-0.426-0.945-0.953L93.906,162.051z"/>
	<path d="M93.906,165.281c0,0,0.41-0.75,0.93-0.75c0.57,0,0.941,0.422,0.941,0.949c-0.371,0.551-0.422,0.949-0.941,0.949
		c-0.18,0.352-0.945-0.426-0.945-0.949L93.906,165.281z"/>
	<path d="M93.906,168.508c0,0,0.41-0.75,0.93-0.75c0.57,0,0.941,0.422,0.941,0.949c-0.371,0.551-0.422,0.953-0.941,0.953
		c-0.18,0.348-0.945-0.426-0.945-0.953L93.906,168.508z"/>
	<path d="M93.906,171.961c0,0,0.41-0.75,0.93-0.75c0.57,0,0.941,0.422,0.941,0.949c-0.371,0.551-0.422,0.949-0.941,0.949
		c-0.18,0.352-0.945-0.426-0.945-0.949L93.906,171.961z"/>
	<path d="M96.824,157.32c0,0,0.406-0.75,0.93-0.75c0.57,0,0.941,0.422,0.941,0.945c-0.371,0.555-0.422,0.953-0.941,0.953
		c-0.18,0.352-0.945-0.426-0.945-0.953L96.824,157.32z"/>
	<path d="M96.824,160.547c0,0,0.406-0.75,0.93-0.75c0.57,0,0.941,0.426,0.941,0.949c-0.371,0.551-0.422,0.953-0.941,0.953
		c-0.18,0.348-0.945-0.426-0.945-0.953L96.824,160.547z"/>
	<path d="M96.824,163.789c0,0,0.406-0.75,0.93-0.75c0.57,0,0.941,0.422,0.941,0.949c-0.371,0.551-0.422,0.953-0.941,0.953
		c-0.18,0.348-0.945-0.426-0.945-0.953L96.824,163.789z"/>
	<path d="M96.824,167.004c0,0,0.406-0.75,0.93-0.75c0.57,0,0.941,0.422,0.941,0.949c-0.371,0.551-0.422,0.949-0.941,0.949
		c-0.18,0.352-0.945-0.426-0.945-0.949L96.824,167.004z"/>
	<path d="M96.824,170.23c0,0,0.406-0.75,0.93-0.75c0.57,0,0.941,0.422,0.941,0.949c-0.371,0.551-0.422,0.953-0.941,0.953
		c-0.18,0.348-0.945-0.426-0.945-0.953L96.824,170.23z"/>
	<path fill="#6F7871" d="M48.289,41.125h39.75c0.75,0,1.785,0.824,1.785,1.867l-0.285,33.383c0,0.75-0.574,1.883-1.605,1.883
		l-39.645,0.367c-0.75,0-1.5-1.215-1.5-2.258V42.625c0-0.75,0.816-1.5,1.852-1.5H48.289z"/>
	<path fill="#CAD4CC" d="M49.789,42.035h37.5c0.75,0,1.672,0.781,1.672,1.766l-0.172,31.234c0,1.5-0.641,2.09-1.617,2.09
		l-37.383,0.16c-0.75,0-1.5-0.961-1.5-1.945V43.535c0-0.75,0.773-1.5,1.75-1.5H49.789z"/>
	
		<linearGradient id="SVGID_9_" gradientUnits="userSpaceOnUse" x1="103.4873" y1="158.6631" x2="58.4878" y2="158.6631" gradientTransform="matrix(0.75 0 0 -0.75 7.813 170.9453)">
		<stop  offset="0" style="stop-color:#292525"/>
		<stop  offset="0.01" style="stop-color:#868584"/>
		<stop  offset="0.05" style="stop-color:#383433"/>
		<stop  offset="0.9" style="stop-color:#373332"/>
		<stop  offset="0.95" style="stop-color:#363130"/>
		<stop  offset="1" style="stop-color:#252221"/>
	</linearGradient>
	<path fill="url(#SVGID_9_)" d="M51.68,47.074h33.75v9.75H51.68V47.074z"/>
	
		<linearGradient id="SVGID_10_" gradientUnits="userSpaceOnUse" x1="65.1567" y1="165.8662" x2="59.7535" y2="156.5076" gradientTransform="matrix(0.75 0 0 -0.75 17.5151 185.832)">
		<stop  offset="0" style="stop-color:#BDBDBD"/>
		<stop  offset="0.15" style="stop-color:#FFFFFF"/>
		<stop  offset="0.25" style="stop-color:#FFFFFF"/>
		<stop  offset="0.52" style="stop-color:#DFDFDF"/>
		<stop  offset="0.69" style="stop-color:#C7C7C7"/>
		<stop  offset="0.8" style="stop-color:#BCBCBC"/>
		<stop  offset="0.92" style="stop-color:#B1B1B1"/>
		<stop  offset="1" style="stop-color:#CBCBCB"/>
	</linearGradient>
	<path fill="url(#SVGID_10_)" d="M61.383,64.961c0-1.5,1.316-3.012,2.945-3.012c1.555,0.012,2.949,1.332,2.949,2.98
		c0.105,1.531-1.32,2.973-2.949,2.973c-1.445,0.059-2.945-1.332-2.945-2.973V64.961z"/>
	
		<linearGradient id="SVGID_11_" gradientUnits="userSpaceOnUse" x1="65.1553" y1="165.8672" x2="59.7521" y2="156.5085" gradientTransform="matrix(0.75 0 0 -0.75 26.0757 185.832)">
		<stop  offset="0" style="stop-color:#BDBDBD"/>
		<stop  offset="0.15" style="stop-color:#FFFFFF"/>
		<stop  offset="0.25" style="stop-color:#FFFFFF"/>
		<stop  offset="0.52" style="stop-color:#DFDFDF"/>
		<stop  offset="0.69" style="stop-color:#C7C7C7"/>
		<stop  offset="0.8" style="stop-color:#BCBCBC"/>
		<stop  offset="0.92" style="stop-color:#B1B1B1"/>
		<stop  offset="1" style="stop-color:#CBCBCB"/>
	</linearGradient>
	<path fill="url(#SVGID_11_)" d="M69.941,64.961c0-1.5,1.32-3.012,2.949-3.012c1.551,0.012,2.945,1.332,2.945,2.98
		c0.105,1.531-1.32,2.973-2.945,2.973c-1.449,0.059-2.949-1.332-2.949-2.973V64.961z"/>
	
		<linearGradient id="SVGID_12_" gradientUnits="userSpaceOnUse" x1="65.1567" y1="165.8662" x2="59.7535" y2="156.5076" gradientTransform="matrix(0.75 0 0 -0.75 13.1084 193.2695)">
		<stop  offset="0" style="stop-color:#BDBDBD"/>
		<stop  offset="0.15" style="stop-color:#FFFFFF"/>
		<stop  offset="0.25" style="stop-color:#FFFFFF"/>
		<stop  offset="0.52" style="stop-color:#DFDFDF"/>
		<stop  offset="0.69" style="stop-color:#C7C7C7"/>
		<stop  offset="0.8" style="stop-color:#BCBCBC"/>
		<stop  offset="0.92" style="stop-color:#B1B1B1"/>
		<stop  offset="1" style="stop-color:#CBCBCB"/>
	</linearGradient>
	<path fill="url(#SVGID_12_)" d="M56.977,72.398c0-1.5,1.316-3.008,2.945-3.008c1.555,0.008,2.945,1.332,2.945,2.98
		c0.109,1.527-1.316,2.969-2.945,2.969c-1.445,0.059-2.945-1.332-2.945-2.969V72.398z"/>
	
		<linearGradient id="SVGID_13_" gradientUnits="userSpaceOnUse" x1="65.1563" y1="165.8682" x2="59.7517" y2="156.5072" gradientTransform="matrix(0.75 0 0 -0.75 21.6689 193.2695)">
		<stop  offset="0" style="stop-color:#BDBDBD"/>
		<stop  offset="0.15" style="stop-color:#FFFFFF"/>
		<stop  offset="0.25" style="stop-color:#FFFFFF"/>
		<stop  offset="0.52" style="stop-color:#DFDFDF"/>
		<stop  offset="0.69" style="stop-color:#C7C7C7"/>
		<stop  offset="0.8" style="stop-color:#BCBCBC"/>
		<stop  offset="0.92" style="stop-color:#B1B1B1"/>
		<stop  offset="1" style="stop-color:#CBCBCB"/>
	</linearGradient>
	<path fill="url(#SVGID_13_)" d="M65.535,72.398c0-1.5,1.32-3.008,2.945-3.008c1.555,0.008,2.949,1.332,2.949,2.98
		c0.105,1.527-1.32,2.969-2.949,2.969c-1.445,0.059-2.945-1.332-2.945-2.969V72.398z"/>
	
		<linearGradient id="SVGID_14_" gradientUnits="userSpaceOnUse" x1="65.1563" y1="165.8652" x2="59.7537" y2="156.5078" gradientTransform="matrix(0.75 0 0 -0.75 30.4917 193.2695)">
		<stop  offset="0" style="stop-color:#BDBDBD"/>
		<stop  offset="0.15" style="stop-color:#FFFFFF"/>
		<stop  offset="0.25" style="stop-color:#FFFFFF"/>
		<stop  offset="0.52" style="stop-color:#DFDFDF"/>
		<stop  offset="0.69" style="stop-color:#C7C7C7"/>
		<stop  offset="0.8" style="stop-color:#BCBCBC"/>
		<stop  offset="0.92" style="stop-color:#B1B1B1"/>
		<stop  offset="1" style="stop-color:#CBCBCB"/>
	</linearGradient>
	<path fill="url(#SVGID_14_)" d="M74.359,72.398c0-1.5,1.316-3.008,2.945-3.008c1.555,0.008,2.949,1.332,2.949,2.98
		c0.105,1.527-1.32,2.969-2.949,2.969c-1.445,0.059-2.945-1.332-2.945-2.969V72.398z"/>
	<path d="M97.305,98.469c0,0,0.426-0.758,0.957-0.758c0.543,0.008,0.957,0.434,0.957,0.965c0.336,0.543-0.43,0.969-0.957,0.969
		c-0.207,0.324-0.957-0.434-0.957-0.969V98.469z"/>
	<path d="M92,98.469c0,0,0.426-0.758,0.957-0.758c0.543,0.008,0.957,0.434,0.957,0.965c0.336,0.543-0.43,0.969-0.957,0.969
		C92.75,99.969,92,99.211,92,98.676V98.469z"/>
	<path d="M94.652,101.148c0,0,0.426-0.762,0.957-0.762c0.543,0.012,0.957,0.434,0.957,0.969c0.336,0.543-0.43,0.969-0.957,0.969
		c-0.207,0.324-0.957-0.434-0.957-0.969V101.148z"/>
	<path d="M94.652,95.793c0,0,0.426-0.762,0.957-0.762c0.543,0.012,0.957,0.434,0.957,0.969c0.336,0.543-0.43,0.965-0.957,0.965
		c-0.207,0.328-0.957-0.43-0.957-0.965V95.793z"/>
	
		<linearGradient id="SVGID_15_" gradientUnits="userSpaceOnUse" x1="65.4863" y1="161.6631" x2="58.4658" y2="161.6631" gradientTransform="matrix(0.75 0 0 -0.75 -8.8379 160.5322)">
		<stop  offset="0" style="stop-color:#9B9B9C"/>
		<stop  offset="0.05" style="stop-color:#E4E4E4"/>
		<stop  offset="0.11" style="stop-color:#CBCBCB"/>
		<stop  offset="0.9" style="stop-color:#C7C7C8"/>
		<stop  offset="0.95" style="stop-color:#C3C3C4"/>
		<stop  offset="1" style="stop-color:#909091"/>
	</linearGradient>
	<path fill="url(#SVGID_15_)" d="M35.777,36.66h3c0.75,0,1.242,0.402,1.242,0.895l0.258,3.605c0,0-0.652,0.559-1.141,0.559
		l-3.359,0.191c0,0-0.766-0.59-0.766-1.082l0.016-3.418c0,0,0.379-0.75,0.867-0.75H35.777z"/>
	
		<linearGradient id="SVGID_16_" gradientUnits="userSpaceOnUse" x1="65.4863" y1="161.6641" x2="58.4658" y2="161.6641" gradientTransform="matrix(0.75 0 0 -0.75 -8.8379 172.1729)">
		<stop  offset="0" style="stop-color:#9B9B9C"/>
		<stop  offset="0.05" style="stop-color:#E4E4E4"/>
		<stop  offset="0.11" style="stop-color:#CBCBCB"/>
		<stop  offset="0.9" style="stop-color:#C7C7C8"/>
		<stop  offset="0.95" style="stop-color:#C3C3C4"/>
		<stop  offset="1" style="stop-color:#909091"/>
	</linearGradient>
	<path fill="url(#SVGID_16_)" d="M35.777,48.301h3c0.75,0,1.242,0.402,1.242,0.895l0.258,3.605c0,0-0.652,0.559-1.141,0.559
		l-3.359,0.191c0,0-0.766-0.59-0.766-1.082l0.016-3.418c0,0,0.379-0.75,0.867-0.75H35.777z"/>
	
		<linearGradient id="SVGID_17_" gradientUnits="userSpaceOnUse" x1="65.4863" y1="161.6621" x2="58.4658" y2="161.6621" gradientTransform="matrix(0.75 0 0 -0.75 -8.8379 183.8086)">
		<stop  offset="0" style="stop-color:#9B9B9C"/>
		<stop  offset="0.05" style="stop-color:#E4E4E4"/>
		<stop  offset="0.11" style="stop-color:#CBCBCB"/>
		<stop  offset="0.9" style="stop-color:#C7C7C8"/>
		<stop  offset="0.95" style="stop-color:#C3C3C4"/>
		<stop  offset="1" style="stop-color:#909091"/>
	</linearGradient>
	<path fill="url(#SVGID_17_)" d="M35.777,59.938h3c0.75,0,1.242,0.398,1.242,0.895l0.258,3.605c0,0-0.652,0.559-1.141,0.559
		l-3.359,0.191c0,0-0.766-0.59-0.766-1.082l0.016-3.418c0,0,0.379-0.75,0.867-0.75H35.777z"/>
	
		<linearGradient id="SVGID_18_" gradientUnits="userSpaceOnUse" x1="65.4863" y1="161.665" x2="58.4658" y2="161.665" gradientTransform="matrix(0.75 0 0 -0.75 -8.8379 195.4551)">
		<stop  offset="0" style="stop-color:#9B9B9C"/>
		<stop  offset="0.05" style="stop-color:#E4E4E4"/>
		<stop  offset="0.11" style="stop-color:#CBCBCB"/>
		<stop  offset="0.9" style="stop-color:#C7C7C8"/>
		<stop  offset="0.95" style="stop-color:#C3C3C4"/>
		<stop  offset="1" style="stop-color:#909091"/>
	</linearGradient>
	<path fill="url(#SVGID_18_)" d="M35.777,71.582h3c0.75,0,1.242,0.402,1.242,0.895l0.258,3.605c0,0-0.652,0.559-1.141,0.559
		l-3.359,0.191c0,0-0.766-0.59-0.766-1.082l0.016-3.418c0,0,0.379-0.75,0.867-0.75H35.777z"/>
	
		<linearGradient id="SVGID_19_" gradientUnits="userSpaceOnUse" x1="65.4863" y1="161.666" x2="58.4658" y2="161.666" gradientTransform="matrix(0.75 0 0 -0.75 -8.8379 207.0957)">
		<stop  offset="0" style="stop-color:#9B9B9C"/>
		<stop  offset="0.05" style="stop-color:#E4E4E4"/>
		<stop  offset="0.11" style="stop-color:#CBCBCB"/>
		<stop  offset="0.9" style="stop-color:#C7C7C8"/>
		<stop  offset="0.95" style="stop-color:#C3C3C4"/>
		<stop  offset="1" style="stop-color:#909091"/>
	</linearGradient>
	<path fill="url(#SVGID_19_)" d="M35.777,83.223h3c0.75,0,1.242,0.402,1.242,0.895l0.258,3.605c0,0-0.652,0.559-1.141,0.559
		l-3.359,0.191c0,0-0.766-0.59-0.766-1.082l0.016-3.418c0,0,0.379-0.75,0.867-0.75H35.777z"/>
	
		<linearGradient id="SVGID_20_" gradientUnits="userSpaceOnUse" x1="65.4863" y1="161.6631" x2="58.4648" y2="161.6631" gradientTransform="matrix(0.75 0 0 -0.75 53.5337 160.5322)">
		<stop  offset="0" style="stop-color:#9B9B9C"/>
		<stop  offset="0.05" style="stop-color:#E4E4E4"/>
		<stop  offset="0.11" style="stop-color:#CBCBCB"/>
		<stop  offset="0.9" style="stop-color:#C7C7C8"/>
		<stop  offset="0.95" style="stop-color:#C3C3C4"/>
		<stop  offset="1" style="stop-color:#909091"/>
	</linearGradient>
	<path fill="url(#SVGID_20_)" d="M98.148,36.66h3c0.75,0,1.242,0.398,1.242,0.895l0.258,3.605c0,0-0.652,0.559-1.141,0.559
		l-3.359,0.191c0,0-0.766-0.59-0.766-1.082l0.016-3.418c0,0,0.379-0.75,0.867-0.75H98.148z"/>
	
		<linearGradient id="SVGID_21_" gradientUnits="userSpaceOnUse" x1="65.4863" y1="161.6641" x2="58.4648" y2="161.6641" gradientTransform="matrix(0.75 0 0 -0.75 53.5337 172.1729)">
		<stop  offset="0" style="stop-color:#9B9B9C"/>
		<stop  offset="0.05" style="stop-color:#E4E4E4"/>
		<stop  offset="0.11" style="stop-color:#CBCBCB"/>
		<stop  offset="0.9" style="stop-color:#C7C7C8"/>
		<stop  offset="0.95" style="stop-color:#C3C3C4"/>
		<stop  offset="1" style="stop-color:#909091"/>
	</linearGradient>
	<path fill="url(#SVGID_21_)" d="M98.148,48.301h3c0.75,0,1.242,0.402,1.242,0.895l0.258,3.605c0,0-0.652,0.559-1.141,0.559
		l-3.359,0.191c0,0-0.766-0.59-0.766-1.082l0.016-3.418c0,0,0.379-0.75,0.867-0.75H98.148z"/>
	
		<linearGradient id="SVGID_22_" gradientUnits="userSpaceOnUse" x1="65.4863" y1="161.6621" x2="58.4648" y2="161.6621" gradientTransform="matrix(0.75 0 0 -0.75 53.5337 183.8086)">
		<stop  offset="0" style="stop-color:#9B9B9C"/>
		<stop  offset="0.05" style="stop-color:#E4E4E4"/>
		<stop  offset="0.11" style="stop-color:#CBCBCB"/>
		<stop  offset="0.9" style="stop-color:#C7C7C8"/>
		<stop  offset="0.95" style="stop-color:#C3C3C4"/>
		<stop  offset="1" style="stop-color:#909091"/>
	</linearGradient>
	<path fill="url(#SVGID_22_)" d="M98.148,59.938h3c0.75,0,1.242,0.398,1.242,0.895l0.258,3.605c0,0-0.652,0.559-1.141,0.559
		l-3.359,0.191c0,0-0.766-0.59-0.766-1.082l0.016-3.418c0,0,0.379-0.75,0.867-0.75H98.148z"/>
	
		<linearGradient id="SVGID_23_" gradientUnits="userSpaceOnUse" x1="65.4863" y1="161.665" x2="58.4648" y2="161.665" gradientTransform="matrix(0.75 0 0 -0.75 53.5337 195.4551)">
		<stop  offset="0" style="stop-color:#9B9B9C"/>
		<stop  offset="0.05" style="stop-color:#E4E4E4"/>
		<stop  offset="0.11" style="stop-color:#CBCBCB"/>
		<stop  offset="0.9" style="stop-color:#C7C7C8"/>
		<stop  offset="0.95" style="stop-color:#C3C3C4"/>
		<stop  offset="1" style="stop-color:#909091"/>
	</linearGradient>
	<path fill="url(#SVGID_23_)" d="M98.148,71.582h3c0.75,0,1.242,0.402,1.242,0.895l0.258,3.605c0,0-0.652,0.559-1.141,0.559
		l-3.359,0.191c0,0-0.766-0.59-0.766-1.082l0.016-3.418c0,0,0.379-0.75,0.867-0.75H98.148z"/>
	
		<linearGradient id="SVGID_24_" gradientUnits="userSpaceOnUse" x1="65.4863" y1="161.6611" x2="58.4648" y2="161.6611" gradientTransform="matrix(0.75 0 0 -0.75 53.5337 207.0957)">
		<stop  offset="0" style="stop-color:#9B9B9C"/>
		<stop  offset="0.05" style="stop-color:#E4E4E4"/>
		<stop  offset="0.11" style="stop-color:#CBCBCB"/>
		<stop  offset="0.9" style="stop-color:#C7C7C8"/>
		<stop  offset="0.95" style="stop-color:#C3C3C4"/>
		<stop  offset="1" style="stop-color:#909091"/>
	</linearGradient>
	<path fill="url(#SVGID_24_)" d="M98.148,83.227h3c0.75,0,1.242,0.398,1.242,0.891l0.258,3.609c0,0-0.652,0.555-1.141,0.555
		l-3.359,0.195c0,0-0.766-0.594-0.766-1.086l0.016-3.414c0,0,0.379-0.75,0.867-0.75H98.148z"/>
	
		<linearGradient id="SVGID_25_" gradientUnits="userSpaceOnUse" x1="65.4863" y1="161.6631" x2="58.4648" y2="161.6631" gradientTransform="matrix(0.75 0 0 -0.75 53.5337 315.1367)">
		<stop  offset="0" style="stop-color:#9B9B9C"/>
		<stop  offset="0.05" style="stop-color:#E4E4E4"/>
		<stop  offset="0.11" style="stop-color:#CBCBCB"/>
		<stop  offset="0.9" style="stop-color:#C7C7C8"/>
		<stop  offset="0.95" style="stop-color:#C3C3C4"/>
		<stop  offset="1" style="stop-color:#909091"/>
	</linearGradient>
	<path fill="url(#SVGID_25_)" d="M98.148,191.266h3c0.75,0,1.242,0.398,1.242,0.891l0.258,3.609c0,0-0.652,0.559-1.141,0.559
		l-3.359,0.191c0,0-0.766-0.59-0.766-1.086l0.016-3.414c0,0,0.379-0.75,0.867-0.75H98.148z"/>
	
		<linearGradient id="SVGID_26_" gradientUnits="userSpaceOnUse" x1="65.4863" y1="161.6621" x2="58.4648" y2="161.6621" gradientTransform="matrix(0.75 0 0 -0.75 53.5337 326.7773)">
		<stop  offset="0" style="stop-color:#9B9B9C"/>
		<stop  offset="0.05" style="stop-color:#E4E4E4"/>
		<stop  offset="0.11" style="stop-color:#CBCBCB"/>
		<stop  offset="0.9" style="stop-color:#C7C7C8"/>
		<stop  offset="0.95" style="stop-color:#C3C3C4"/>
		<stop  offset="1" style="stop-color:#909091"/>
	</linearGradient>
	<path fill="url(#SVGID_26_)" d="M98.148,202.906h3c0.75,0,1.242,0.398,1.242,0.895l0.258,3.605c0,0-0.652,0.559-1.141,0.559
		l-3.359,0.191c0,0-0.766-0.59-0.766-1.086l0.016-3.414c0,0,0.379-0.75,0.867-0.75H98.148z"/>
	
		<linearGradient id="SVGID_27_" gradientUnits="userSpaceOnUse" x1="65.4863" y1="161.6621" x2="58.4658" y2="161.6621" gradientTransform="matrix(0.75 0 0 -0.75 -8.8379 326.7773)">
		<stop  offset="0" style="stop-color:#9B9B9C"/>
		<stop  offset="0.05" style="stop-color:#E4E4E4"/>
		<stop  offset="0.11" style="stop-color:#CBCBCB"/>
		<stop  offset="0.9" style="stop-color:#C7C7C8"/>
		<stop  offset="0.95" style="stop-color:#C3C3C4"/>
		<stop  offset="1" style="stop-color:#909091"/>
	</linearGradient>
	<path fill="url(#SVGID_27_)" d="M35.777,202.906h3c0.75,0,1.242,0.398,1.242,0.895l0.258,3.605c0,0-0.652,0.559-1.141,0.559
		l-3.359,0.191c0,0-0.766-0.59-0.766-1.086l0.016-3.414c0,0,0.379-0.75,0.867-0.75H35.777z"/>
</g>
</svg>
