<?xml version="1.0" encoding="utf-8"?>
<!-- Generator: Adobe Illustrator 16.0.0, SVG Export Plug-In . SVG Version: 6.00 Build 0)  -->
<!DOCTYPE svg PUBLIC "-//W3C//DTD SVG 1.1//EN" "http://www.w3.org/Graphics/SVG/1.1/DTD/svg11.dtd">
<svg preserveAspectRatio="none" version="1.1" id="图层_1" xmlns="http://www.w3.org/2000/svg" xmlns:xlink="http://www.w3.org/1999/xlink" x="0px" y="0px"
	 width="190.5px" height="173.25px" viewBox="30 29.805 190.5 173.25" enable-background="new 30 29.805 190.5 173.25"
	 xml:space="preserve">
<g id="surface26">
	
		<linearGradient id="SVGID_1_" gradientUnits="userSpaceOnUse" x1="274.6133" y1="38.2856" x2="39.6133" y2="38.2856" gradientTransform="matrix(0.75 0 0 -0.75 7.5195 145.1436)">
		<stop  offset="0" style="stop-color:#A8A8A8"/>
		<stop  offset="0.01" style="stop-color:#F2F2F2"/>
		<stop  offset="0.05" style="stop-color:#DBDBDB"/>
		<stop  offset="0.9" style="stop-color:#D8D8D8"/>
		<stop  offset="0.95" style="stop-color:#D3D3D3"/>
		<stop  offset="1" style="stop-color:#9C9C9C"/>
	</linearGradient>
	<path fill="url(#SVGID_1_)" d="M38.73,29.805h173.25c0.75,0,1.289,0.598,1.289,1.332l0.211,170.418c0,0.75-0.813,1.203-1.559,1.203
		L38.73,203.055c-0.75,0-1.5-0.895-1.5-1.633V31.305c0-0.75,0.602-1.5,1.348-1.5H38.73z"/>
	
		<linearGradient id="SVGID_2_" gradientUnits="userSpaceOnUse" x1="293.6123" y1="83.272" x2="39.6123" y2="83.2719" gradientTransform="matrix(0.75 0 0 -0.75 0.29 179.0586)">
		<stop  offset="0" style="stop-color:#B5B5B5"/>
		<stop  offset="0.01" style="stop-color:#FFFFFF"/>
		<stop  offset="0.05" style="stop-color:#EBEBEB"/>
		<stop  offset="0.9" style="stop-color:#E7E7E7"/>
		<stop  offset="0.95" style="stop-color:#E2E2E2"/>
		<stop  offset="1" style="stop-color:#A8A8A8"/>
	</linearGradient>
	<path fill="url(#SVGID_2_)" d="M31.5,63.719H219c0.75,0,1.5,0.598,1.5,1.332v102.918c0,0.75-0.605,1.523-1.348,1.523L31.5,169.469
		c-0.75,0-1.5-0.574-1.5-1.313V65.219c0-0.75,0.605-1.5,1.348-1.5H31.5z"/>
	
		<linearGradient id="SVGID_3_" gradientUnits="userSpaceOnUse" x1="163.6152" y1="153.7871" x2="163.6152" y2="127.7871" gradientTransform="matrix(0.75 0 0 -0.75 2.4404 257.3164)">
		<stop  offset="0" style="stop-color:#51679A"/>
		<stop  offset="0.15" style="stop-color:#7C93CE"/>
		<stop  offset="0.25" style="stop-color:#C1C9E4"/>
		<stop  offset="0.44" style="stop-color:#5E76B1"/>
		<stop  offset="0.6" style="stop-color:#53699D"/>
		<stop  offset="0.8" style="stop-color:#445784"/>
		<stop  offset="0.97" style="stop-color:#3E4F78"/>
		<stop  offset="1" style="stop-color:#556BA1"/>
	</linearGradient>
	<path fill="url(#SVGID_3_)" d="M32.152,141.977h186v19.5h-186V141.977z"/>
	<path fill="#51679A" fill-opacity="0.8745" d="M36.688,74.438h178.5v6.75h-178.5V74.438z"/>
	<path fill="#EDEEF3" stroke="#595757" stroke-linejoin="bevel" stroke-miterlimit="10" d="M73.359,102.668h22.5v8.25h-22.5V102.668
		z"/>
	<path fill="#B4B4BC" d="M73.359,102.668h16.5v8.25h-16.5V102.668z"/>
	<path fill="#EDEEF3" stroke="#595757" stroke-linejoin="bevel" stroke-miterlimit="10" d="M138.426,103.145h22.5v8.25h-22.5
		V103.145z"/>
	<path fill="#4E4F41" d="M138.426,103.145h16.5v8.25h-16.5V103.145z"/>
	<path fill="#EDEEF3" stroke="#595757" stroke-linejoin="bevel" stroke-miterlimit="10" d="M195.18,102.668h22.5v8.25h-22.5V102.668
		z"/>
	<path fill="#4E4F41" d="M195.18,102.668h16.5v8.25h-16.5V102.668z"/>
	
		<linearGradient id="SVGID_4_" gradientUnits="userSpaceOnUse" x1="135.6113" y1="153.7832" x2="135.6113" y2="138.7832" gradientTransform="matrix(0.75 0 0 -0.75 23.7798 263.5488)">
		<stop  offset="0" style="stop-color:#35507E"/>
		<stop  offset="0.15" style="stop-color:#5A78AD"/>
		<stop  offset="0.3" style="stop-color:#476AA6"/>
		<stop  offset="0.9" style="stop-color:#4668A3"/>
		<stop  offset="0.9" style="stop-color:#4B6592"/>
		<stop  offset="1" style="stop-color:#304A75"/>
	</linearGradient>
	<path fill="url(#SVGID_4_)" d="M53.488,148.211h144v11.25h-144V148.211z"/>
	<path fill="#FFFFFF" fill-opacity="0.4353" d="M85.289,141.977h80.25v22.5h-80.25V141.977z"/>
	
		<linearGradient id="SVGID_5_" gradientUnits="userSpaceOnUse" x1="57.6377" y1="144.876" x2="39.6113" y2="144.876" gradientTransform="matrix(0.75 0 0 -0.75 23.4473 158.6113)">
		<stop  offset="0" style="stop-color:#C4AA84"/>
		<stop  offset="0.15" style="stop-color:#FFE0B3"/>
		<stop  offset="0.25" style="stop-color:#FFEED7"/>
		<stop  offset="0.44" style="stop-color:#DFC297"/>
		<stop  offset="0.6" style="stop-color:#C7AD86"/>
		<stop  offset="0.8" style="stop-color:#A89170"/>
		<stop  offset="0.97" style="stop-color:#998566"/>
		<stop  offset="1" style="stop-color:#CBB189"/>
	</linearGradient>
	<path fill="url(#SVGID_5_)" d="M53.156,50.02c0-3.75,3.027-6.75,6.758-6.75c3.742,0,6.762,2.992,6.762,6.684
		c-0.02,3.816-3.027,6.684-6.762,6.684c-3.758,0.133-6.758-2.992-6.758-6.684V50.02z"/>
	<path fill="#BF793E" d="M56.445,46.672c0.527-0.531,0.969-0.438,1.309-0.098l5.586,5.93c0,0,0.301,0.512-0.039,0.852
		c0.039,0.211-0.891,0.344-1.23,0l-5.625-5.625c0,0-0.266-0.813,0.074-1.156L56.445,46.672z"/>
	<path fill="#BF793E" d="M63.215,46.508c0.531,0.531,0.438,0.969,0.094,1.313l-5.93,5.582c0,0-0.508,0.305-0.852-0.035
		c-0.207,0.035-0.34-0.895,0-1.234l5.625-5.625c0,0,0.816-0.262,1.156,0.078L63.215,46.508z"/>
	
		<linearGradient id="SVGID_6_" gradientUnits="userSpaceOnUse" x1="57.6372" y1="144.876" x2="39.6108" y2="144.876" gradientTransform="matrix(0.75 0 0 -0.75 81.5103 158.6113)">
		<stop  offset="0" style="stop-color:#C4AA84"/>
		<stop  offset="0.15" style="stop-color:#FFE0B3"/>
		<stop  offset="0.25" style="stop-color:#FFEED7"/>
		<stop  offset="0.44" style="stop-color:#DFC297"/>
		<stop  offset="0.6" style="stop-color:#C7AD86"/>
		<stop  offset="0.8" style="stop-color:#A89170"/>
		<stop  offset="0.97" style="stop-color:#998566"/>
		<stop  offset="1" style="stop-color:#CBB189"/>
	</linearGradient>
	<path fill="url(#SVGID_6_)" d="M111.219,50.02c0-3.75,3.027-6.75,6.762-6.75c3.738,0,6.758,2.992,6.758,6.684
		c-0.02,3.816-3.027,6.684-6.758,6.684c-3.762,0.133-6.762-2.992-6.762-6.684V50.02z"/>
	<path fill="#BF793E" d="M114.508,46.672c0.527-0.531,0.969-0.438,1.309-0.098l5.586,5.93c0,0,0.301,0.512-0.039,0.852
		c0.039,0.211-0.891,0.344-1.23,0l-5.625-5.625c0,0-0.266-0.813,0.074-1.156L114.508,46.672z"/>
	<path fill="#BF793E" d="M121.277,46.508c0.531,0.531,0.438,0.969,0.094,1.313l-5.926,5.582c0,0-0.512,0.305-0.852-0.035
		c-0.211,0.035-0.344-0.895,0-1.234l5.621-5.625c0,0,0.816-0.262,1.156,0.078L121.277,46.508z"/>
	
		<linearGradient id="SVGID_7_" gradientUnits="userSpaceOnUse" x1="57.6411" y1="144.876" x2="39.6147" y2="144.876" gradientTransform="matrix(0.75 0 0 -0.75 139.5737 158.6113)">
		<stop  offset="0" style="stop-color:#C4AA84"/>
		<stop  offset="0.15" style="stop-color:#FFE0B3"/>
		<stop  offset="0.25" style="stop-color:#FFEED7"/>
		<stop  offset="0.44" style="stop-color:#DFC297"/>
		<stop  offset="0.6" style="stop-color:#C7AD86"/>
		<stop  offset="0.8" style="stop-color:#A89170"/>
		<stop  offset="0.97" style="stop-color:#998566"/>
		<stop  offset="1" style="stop-color:#CBB189"/>
	</linearGradient>
	<path fill="url(#SVGID_7_)" d="M169.285,50.02c0-3.75,3.023-6.75,6.758-6.75c3.742,0,6.762,2.992,6.762,6.684
		c-0.02,3.816-3.027,6.684-6.762,6.684c-3.758,0.133-6.758-2.992-6.758-6.684V50.02z"/>
	<path fill="#BF793E" d="M172.57,46.672c0.531-0.531,0.969-0.438,1.309-0.098l5.586,5.93c0,0,0.305,0.512-0.035,0.852
		c0.035,0.211-0.895,0.344-1.234,0l-5.625-5.625c0,0-0.266-0.813,0.078-1.156L172.57,46.672z"/>
	<path fill="#BF793E" d="M179.34,46.508c0.531,0.531,0.438,0.969,0.098,1.313l-5.93,5.582c0,0-0.512,0.305-0.852-0.035
		c-0.211,0.035-0.34-0.895,0-1.234l5.625-5.625c0,0,0.816-0.262,1.156,0.078L179.34,46.508z"/>
	
		<linearGradient id="SVGID_8_" gradientUnits="userSpaceOnUse" x1="57.6377" y1="144.876" x2="39.6113" y2="144.876" gradientTransform="matrix(0.75 0 0 -0.75 23.4473 290.4824)">
		<stop  offset="0" style="stop-color:#C4AA84"/>
		<stop  offset="0.15" style="stop-color:#FFE0B3"/>
		<stop  offset="0.25" style="stop-color:#FFEED7"/>
		<stop  offset="0.44" style="stop-color:#DFC297"/>
		<stop  offset="0.6" style="stop-color:#C7AD86"/>
		<stop  offset="0.8" style="stop-color:#A89170"/>
		<stop  offset="0.97" style="stop-color:#998566"/>
		<stop  offset="1" style="stop-color:#CBB189"/>
	</linearGradient>
	<path fill="url(#SVGID_8_)" d="M53.156,181.891c0-3.75,3.027-6.75,6.758-6.75c3.742,0,6.762,2.992,6.762,6.684
		c-0.02,3.816-3.027,6.684-6.762,6.684c-3.758,0.133-6.758-2.992-6.758-6.684V181.891z"/>
	<path fill="#BF793E" d="M56.445,178.543c0.527-0.531,0.969-0.438,1.309-0.094l5.586,5.926c0,0,0.301,0.512-0.039,0.852
		c0.039,0.211-0.891,0.344-1.23,0l-5.625-5.621c0,0-0.266-0.816,0.074-1.156L56.445,178.543z"/>
	<path fill="#BF793E" d="M63.215,178.379c0.531,0.531,0.438,0.969,0.094,1.313l-5.93,5.582c0,0-0.508,0.305-0.852-0.035
		c-0.207,0.035-0.34-0.895,0-1.234l5.625-5.625c0,0,0.816-0.262,1.156,0.078L63.215,178.379z"/>
	
		<linearGradient id="SVGID_9_" gradientUnits="userSpaceOnUse" x1="57.6372" y1="144.876" x2="39.6108" y2="144.876" gradientTransform="matrix(0.75 0 0 -0.75 81.5103 290.4824)">
		<stop  offset="0" style="stop-color:#C4AA84"/>
		<stop  offset="0.15" style="stop-color:#FFE0B3"/>
		<stop  offset="0.25" style="stop-color:#FFEED7"/>
		<stop  offset="0.44" style="stop-color:#DFC297"/>
		<stop  offset="0.6" style="stop-color:#C7AD86"/>
		<stop  offset="0.8" style="stop-color:#A89170"/>
		<stop  offset="0.97" style="stop-color:#998566"/>
		<stop  offset="1" style="stop-color:#CBB189"/>
	</linearGradient>
	<path fill="url(#SVGID_9_)" d="M111.219,181.891c0-3.75,3.027-6.75,6.762-6.75c3.738,0,6.758,2.992,6.758,6.684
		c-0.02,3.816-3.027,6.684-6.758,6.684c-3.762,0.133-6.762-2.992-6.762-6.684V181.891z"/>
	<path fill="#BF793E" d="M114.508,178.543c0.527-0.531,0.969-0.438,1.309-0.094l5.586,5.926c0,0,0.301,0.512-0.039,0.852
		c0.039,0.211-0.891,0.344-1.23,0l-5.625-5.621c0,0-0.266-0.816,0.074-1.156L114.508,178.543z"/>
	<path fill="#BF793E" d="M121.277,178.379c0.531,0.531,0.438,0.969,0.094,1.313l-5.926,5.582c0,0-0.512,0.305-0.852-0.035
		c-0.211,0.035-0.344-0.895,0-1.234l5.621-5.625c0,0,0.816-0.262,1.156,0.078L121.277,178.379z"/>
	
		<linearGradient id="SVGID_10_" gradientUnits="userSpaceOnUse" x1="57.6406" y1="144.876" x2="39.6143" y2="144.876" gradientTransform="matrix(0.75 0 0 -0.75 139.5742 290.4824)">
		<stop  offset="0" style="stop-color:#C4AA84"/>
		<stop  offset="0.15" style="stop-color:#FFE0B3"/>
		<stop  offset="0.25" style="stop-color:#FFEED7"/>
		<stop  offset="0.44" style="stop-color:#DFC297"/>
		<stop  offset="0.6" style="stop-color:#C7AD86"/>
		<stop  offset="0.8" style="stop-color:#A89170"/>
		<stop  offset="0.97" style="stop-color:#998566"/>
		<stop  offset="1" style="stop-color:#CBB189"/>
	</linearGradient>
	<path fill="url(#SVGID_10_)" d="M169.285,181.891c0-3.75,3.023-6.75,6.758-6.75c3.742,0,6.762,2.992,6.762,6.684
		c-0.02,3.816-3.027,6.684-6.762,6.684c-3.758,0.133-6.758-2.992-6.758-6.684V181.891z"/>
	<path fill="#BF793E" d="M172.57,178.543c0.531-0.531,0.969-0.438,1.309-0.094l5.586,5.926c0,0,0.305,0.512-0.035,0.852
		c0.035,0.211-0.895,0.344-1.234,0l-5.625-5.621c0,0-0.266-0.816,0.078-1.156L172.57,178.543z"/>
	<path fill="#BF793E" d="M179.34,178.379c0.531,0.531,0.438,0.969,0.098,1.313l-5.93,5.582c0,0-0.512,0.305-0.852-0.035
		c-0.211,0.035-0.34-0.895,0-1.234l5.625-5.625c0,0,0.816-0.262,1.156,0.078L179.34,178.379z"/>
	<path fill="#B0B0B0" d="M161.199,121.965h51.75v19.5h-51.75V121.965z"/>
	<path fill="#E9E9E9" d="M162.871,122.941h48.75v18.75h-48.75V122.941z"/>
	
		<linearGradient id="SVGID_11_" gradientUnits="userSpaceOnUse" x1="72.1143" y1="153.7891" x2="72.1143" y2="146.7891" gradientTransform="matrix(0.75 0 0 -0.75 133.1606 238.3926)">
		<stop  offset="0" style="stop-color:#B5B5B5"/>
		<stop  offset="0.13" style="stop-color:#EBEBEB"/>
		<stop  offset="0.86" style="stop-color:#E2E2E2"/>
		<stop  offset="0.9" style="stop-color:#E7E7E7"/>
		<stop  offset="1" style="stop-color:#A8A8A8"/>
	</linearGradient>
	<path fill="url(#SVGID_11_)" d="M162.871,123.051h48.75v5.25h-48.75V123.051z"/>
	
		<linearGradient id="SVGID_12_" gradientUnits="userSpaceOnUse" x1="42.6147" y1="153.7891" x2="42.6147" y2="128.7891" gradientTransform="matrix(0.75 0 0 -0.75 133.1602 238.2822)">
		<stop  offset="0" style="stop-color:#B6B6B6"/>
		<stop  offset="0.15" style="stop-color:#EFEFEF"/>
		<stop  offset="0.25" style="stop-color:#F6F6F6"/>
		<stop  offset="0.44" style="stop-color:#D0D0D0"/>
		<stop  offset="0.6" style="stop-color:#B9B9B9"/>
		<stop  offset="0.8" style="stop-color:#9C9C9C"/>
		<stop  offset="0.97" style="stop-color:#8F8F8F"/>
		<stop  offset="1" style="stop-color:#BEBEBE"/>
	</linearGradient>
	<path fill="url(#SVGID_12_)" d="M162.871,122.941h4.5v18.75h-4.5V122.941z"/>
	
		<linearGradient id="SVGID_13_" gradientUnits="userSpaceOnUse" x1="42.6157" y1="153.7891" x2="42.6157" y2="128.7891" gradientTransform="matrix(0.75 0 0 -0.75 177.2456 238.2822)">
		<stop  offset="0" style="stop-color:#B6B6B6"/>
		<stop  offset="0.15" style="stop-color:#EFEFEF"/>
		<stop  offset="0.25" style="stop-color:#F6F6F6"/>
		<stop  offset="0.44" style="stop-color:#D0D0D0"/>
		<stop  offset="0.6" style="stop-color:#B9B9B9"/>
		<stop  offset="0.8" style="stop-color:#9C9C9C"/>
		<stop  offset="0.97" style="stop-color:#8F8F8F"/>
		<stop  offset="1" style="stop-color:#BEBEBE"/>
	</linearGradient>
	<path fill="url(#SVGID_13_)" d="M206.957,122.941h4.5v18.75h-4.5V122.941z"/>
	<path fill="#B0B0B0" d="M37.211,121.965h51.75v19.5h-51.75V121.965z"/>
	<path fill="#E9E9E9" d="M38.883,122.941h48.75v18.75h-48.75V122.941z"/>
	
		<linearGradient id="SVGID_14_" gradientUnits="userSpaceOnUse" x1="72.1128" y1="153.7891" x2="72.1128" y2="146.7891" gradientTransform="matrix(0.75 0 0 -0.75 9.1729 238.3926)">
		<stop  offset="0" style="stop-color:#B5B5B5"/>
		<stop  offset="0.13" style="stop-color:#EBEBEB"/>
		<stop  offset="0.86" style="stop-color:#E2E2E2"/>
		<stop  offset="0.9" style="stop-color:#E7E7E7"/>
		<stop  offset="1" style="stop-color:#A8A8A8"/>
	</linearGradient>
	<path fill="url(#SVGID_14_)" d="M38.883,123.051h48.75v5.25h-48.75V123.051z"/>
	
		<linearGradient id="SVGID_15_" gradientUnits="userSpaceOnUse" x1="42.6128" y1="153.7891" x2="42.6128" y2="128.7891" gradientTransform="matrix(0.75 0 0 -0.75 9.1729 238.2822)">
		<stop  offset="0" style="stop-color:#B6B6B6"/>
		<stop  offset="0.15" style="stop-color:#EFEFEF"/>
		<stop  offset="0.25" style="stop-color:#F6F6F6"/>
		<stop  offset="0.44" style="stop-color:#D0D0D0"/>
		<stop  offset="0.6" style="stop-color:#B9B9B9"/>
		<stop  offset="0.8" style="stop-color:#9C9C9C"/>
		<stop  offset="0.97" style="stop-color:#8F8F8F"/>
		<stop  offset="1" style="stop-color:#BEBEBE"/>
	</linearGradient>
	<path fill="url(#SVGID_15_)" d="M38.883,122.941h4.5v18.75h-4.5V122.941z"/>
	
		<linearGradient id="SVGID_16_" gradientUnits="userSpaceOnUse" x1="42.6138" y1="153.7891" x2="42.6138" y2="128.7891" gradientTransform="matrix(0.75 0 0 -0.75 53.2583 238.2822)">
		<stop  offset="0" style="stop-color:#B6B6B6"/>
		<stop  offset="0.15" style="stop-color:#EFEFEF"/>
		<stop  offset="0.25" style="stop-color:#F6F6F6"/>
		<stop  offset="0.44" style="stop-color:#D0D0D0"/>
		<stop  offset="0.6" style="stop-color:#B9B9B9"/>
		<stop  offset="0.8" style="stop-color:#9C9C9C"/>
		<stop  offset="0.97" style="stop-color:#8F8F8F"/>
		<stop  offset="1" style="stop-color:#BEBEBE"/>
	</linearGradient>
	<path fill="url(#SVGID_16_)" d="M82.969,122.941h4.5v18.75h-4.5V122.941z"/>
	<path fill="#B0B0B0" d="M99.023,121.965h51.75v19.5h-51.75V121.965z"/>
	<path fill="#E9E9E9" d="M100.695,122.941h48.75v18.75h-48.75V122.941z"/>
	
		<linearGradient id="SVGID_17_" gradientUnits="userSpaceOnUse" x1="72.1118" y1="153.7891" x2="72.1118" y2="146.7891" gradientTransform="matrix(0.75 0 0 -0.75 70.9863 238.3926)">
		<stop  offset="0" style="stop-color:#B5B5B5"/>
		<stop  offset="0.13" style="stop-color:#EBEBEB"/>
		<stop  offset="0.86" style="stop-color:#E2E2E2"/>
		<stop  offset="0.9" style="stop-color:#E7E7E7"/>
		<stop  offset="1" style="stop-color:#A8A8A8"/>
	</linearGradient>
	<path fill="url(#SVGID_17_)" d="M100.695,123.051h48.75v5.25h-48.75V123.051z"/>
	
		<linearGradient id="SVGID_18_" gradientUnits="userSpaceOnUse" x1="42.6133" y1="153.7891" x2="42.6133" y2="128.7891" gradientTransform="matrix(0.75 0 0 -0.75 70.9854 238.2822)">
		<stop  offset="0" style="stop-color:#B6B6B6"/>
		<stop  offset="0.15" style="stop-color:#EFEFEF"/>
		<stop  offset="0.25" style="stop-color:#F6F6F6"/>
		<stop  offset="0.44" style="stop-color:#D0D0D0"/>
		<stop  offset="0.6" style="stop-color:#B9B9B9"/>
		<stop  offset="0.8" style="stop-color:#9C9C9C"/>
		<stop  offset="0.97" style="stop-color:#8F8F8F"/>
		<stop  offset="1" style="stop-color:#BEBEBE"/>
	</linearGradient>
	<path fill="url(#SVGID_18_)" d="M100.695,122.941h4.5v18.75h-4.5V122.941z"/>
	
		<linearGradient id="SVGID_19_" gradientUnits="userSpaceOnUse" x1="42.6138" y1="153.7891" x2="42.6138" y2="128.7891" gradientTransform="matrix(0.75 0 0 -0.75 115.0708 238.2822)">
		<stop  offset="0" style="stop-color:#B6B6B6"/>
		<stop  offset="0.15" style="stop-color:#EFEFEF"/>
		<stop  offset="0.25" style="stop-color:#F6F6F6"/>
		<stop  offset="0.44" style="stop-color:#D0D0D0"/>
		<stop  offset="0.6" style="stop-color:#B9B9B9"/>
		<stop  offset="0.8" style="stop-color:#9C9C9C"/>
		<stop  offset="0.97" style="stop-color:#8F8F8F"/>
		<stop  offset="1" style="stop-color:#BEBEBE"/>
	</linearGradient>
	<path fill="url(#SVGID_19_)" d="M144.781,122.941h4.5v18.75h-4.5V122.941z"/>
	
		<linearGradient id="SVGID_20_" gradientUnits="userSpaceOnUse" x1="59.6147" y1="153.7871" x2="59.6147" y2="135.7871" gradientTransform="matrix(0.75 0 0 -0.75 18.605 243.3477)">
		<stop  offset="0" style="stop-color:#51679A"/>
		<stop  offset="0.15" style="stop-color:#7C93CE"/>
		<stop  offset="0.25" style="stop-color:#C1C9E4"/>
		<stop  offset="0.44" style="stop-color:#5E76B1"/>
		<stop  offset="0.6" style="stop-color:#53699D"/>
		<stop  offset="0.8" style="stop-color:#445784"/>
		<stop  offset="0.97" style="stop-color:#3E4F78"/>
		<stop  offset="1" style="stop-color:#556BA1"/>
	</linearGradient>
	<path fill="url(#SVGID_20_)" d="M48.316,128.008h30v13.5h-30V128.008z"/>
	
		<linearGradient id="SVGID_21_" gradientUnits="userSpaceOnUse" x1="59.6128" y1="153.7871" x2="59.6128" y2="135.7871" gradientTransform="matrix(0.75 0 0 -0.75 80.5986 243.3477)">
		<stop  offset="0" style="stop-color:#51679A"/>
		<stop  offset="0.15" style="stop-color:#7C93CE"/>
		<stop  offset="0.25" style="stop-color:#C1C9E4"/>
		<stop  offset="0.44" style="stop-color:#5E76B1"/>
		<stop  offset="0.6" style="stop-color:#53699D"/>
		<stop  offset="0.8" style="stop-color:#445784"/>
		<stop  offset="0.97" style="stop-color:#3E4F78"/>
		<stop  offset="1" style="stop-color:#556BA1"/>
	</linearGradient>
	<path fill="url(#SVGID_21_)" d="M110.309,128.008h30v13.5h-30V128.008z"/>
	
		<linearGradient id="SVGID_22_" gradientUnits="userSpaceOnUse" x1="59.6104" y1="153.7871" x2="59.6104" y2="135.7871" gradientTransform="matrix(0.75 0 0 -0.75 142.5928 243.3477)">
		<stop  offset="0" style="stop-color:#51679A"/>
		<stop  offset="0.15" style="stop-color:#7C93CE"/>
		<stop  offset="0.25" style="stop-color:#C1C9E4"/>
		<stop  offset="0.44" style="stop-color:#5E76B1"/>
		<stop  offset="0.6" style="stop-color:#53699D"/>
		<stop  offset="0.8" style="stop-color:#445784"/>
		<stop  offset="0.97" style="stop-color:#3E4F78"/>
		<stop  offset="1" style="stop-color:#556BA1"/>
	</linearGradient>
	<path fill="url(#SVGID_22_)" d="M172.301,128.008h30v13.5h-30V128.008z"/>
	<path fill="#3E3938" d="M73.848,152.594h10.5v4.5h-10.5V152.594z"/>
	<path fill="#3E3938" d="M166.621,152.594h10.5v4.5h-10.5V152.594z"/>
</g>
</svg>
