<?xml version="1.0" encoding="utf-8"?>
<!-- Generator: Adobe Illustrator 16.0.0, SVG Export Plug-In . SVG Version: 6.00 Build 0)  -->
<!DOCTYPE svg PUBLIC "-//W3C//DTD SVG 1.1//EN" "http://www.w3.org/Graphics/SVG/1.1/DTD/svg11.dtd">
<svg preserveAspectRatio="none" version="1.1" id="图层_1" xmlns="http://www.w3.org/2000/svg" xmlns:xlink="http://www.w3.org/1999/xlink" x="0px" y="0px"
	 width="300.75px" height="1645.875px" viewBox="30 -698.957 300.75 1645.875" enable-background="new 30 -698.957 300.75 1645.875"
	 xml:space="preserve">
<g id="surface131">
	<path fill-opacity="0.0784" d="M31.5-591.023L31.516-591l0.051,0.066l0.09,0.109l0.125,0.152l0.168,0.191l0.211,0.23l0.254,0.27
		l0.305,0.305l0.352,0.336l0.402,0.371l0.457,0.406l0.512,0.43l0.57,0.461l0.629,0.488l0.691,0.516l0.754,0.535l0.82,0.563
		l0.887,0.578l0.961,0.602l1.031,0.621l1.105,0.637l1.18,0.652l1.262,0.664l1.34,0.676l1.426,0.691l1.508,0.699l1.594,0.703
		l1.684,0.715l1.777,0.719l1.867,0.719l1.965,0.727l2.063,0.723l2.16,0.723L63.977-574l2.363,0.719l2.473,0.715l2.578,0.703
		l2.688,0.699l2.801,0.688l2.918,0.68l3.027,0.664l3.152,0.652l3.27,0.637l3.391,0.621l3.516,0.598l3.645,0.582l3.77,0.563
		l3.902,0.535l4.039,0.516l4.168,0.488l4.309,0.461l4.445,0.43l4.59,0.402l4.73,0.371l4.875,0.34l5.027,0.305l5.172,0.266
		l5.324,0.234l5.48,0.191l5.637,0.152l4.457,0.082v-27.754H158.23l-1.27-0.082l-1.215-0.246l-1.152-0.395l-1.082-0.535l-0.992-0.66
		l-0.898-0.777l-0.789-0.887l-0.672-0.977l-0.543-1.066l-0.398-1.133l-0.25-1.199l-0.086-1.25v-92.082l0.086-1.25l0.25-1.199
		l0.398-1.137l0.543-1.063l0.672-0.977l0.789-0.887l0.898-0.777l0.992-0.66l1.082-0.535l1.152-0.395l1.215-0.246l1.27-0.082h45.789
		l1.27,0.082l1.215,0.246l1.152,0.395l1.082,0.535l0.992,0.66l0.898,0.777l0.789,0.887l0.672,0.977l0.543,1.063l0.398,1.137
		l0.25,1.199l0.086,1.25v92.082l-0.086,1.25l-0.25,1.199l-0.398,1.133l-0.543,1.066l-0.672,0.977l-0.789,0.887l-0.898,0.777
		l-0.992,0.66l-1.082,0.535l-1.152,0.395l-1.215,0.246l-1.27,0.082h-11.492v27.813l2.656-0.031l5.777-0.109l5.617-0.152l5.453-0.191
		l5.297-0.234l5.137-0.266l4.984-0.305l4.832-0.34l4.684-0.371l4.535-0.402l4.391-0.43l4.246-0.461l4.105-0.488l3.969-0.516
		l3.832-0.535l3.695-0.563l3.566-0.582l3.438-0.598l3.313-0.621l3.188-0.637l3.063-0.652l2.941-0.664l2.828-0.68l2.707-0.688
		l2.598-0.699l2.488-0.703l2.375-0.715l2.273-0.719l2.164-0.723l2.066-0.723l1.965-0.723l1.871-0.727l1.773-0.719l1.68-0.719
		l1.59-0.715l1.504-0.703l1.414-0.699l1.336-0.691l1.25-0.676l1.172-0.664l1.098-0.652l1.02-0.637l0.949-0.621l0.883-0.602
		l0.813-0.578l0.746-0.563l0.684-0.535l0.625-0.516l0.563-0.488l0.512-0.461l0.453-0.43l0.402-0.406l0.355-0.371l0.309-0.336
		l0.262-0.305l0.219-0.27l0.18-0.23l0.145-0.191l0.105-0.152l0.074-0.109l0.043-0.066l0.012-0.023v485.449l-0.008,0.023
		l-0.023,0.066l-0.043,0.109l-0.063,0.152l-0.09,0.191l-0.117,0.23l-0.145,0.27l-0.18,0.305l-0.219,0.336l-0.254,0.371l-0.301,0.402
		l-0.34,0.434l-0.395,0.461l-0.441,0.488l-0.492,0.512l-0.551,0.539l-0.613,0.563l-0.672,0.578l-0.738,0.602l-0.805,0.621
		l-0.879,0.637l-0.949,0.652l-1.027,0.664l-1.109,0.676L319.109-95l-1.273,0.699l-1.363,0.703l-1.453,0.715l-1.551,0.719
		l-1.645,0.719l-1.742,0.727l-1.848,0.723l-1.953,0.727l-2.059,0.719l-2.172,0.719l-2.285,0.715l-2.402,0.703l-2.523,0.699
		l-2.645,0.691l-2.77,0.676l-2.902,0.664l-3.027,0.652l-3.168,0.637l-3.301,0.621l-3.441,0.602L270-80.594l-3.73,0.563l-3.879,0.535
		l-4.031,0.516l-4.188,0.488l-4.34,0.461l-4.504,0.434l-4.664,0.402l-4.832,0.371l-5.004,0.336l-5.172,0.305l-5.348,0.27
		l-5.523,0.23l-5.703,0.191l-5.891,0.152l-6.074,0.109l-4.59,0.051v10.309l2.656-0.031l5.777-0.109l5.617-0.152l5.453-0.191
		l5.297-0.234l5.137-0.266l4.984-0.305l4.832-0.34l4.684-0.371l4.535-0.402l4.391-0.43l4.246-0.461l4.105-0.488l3.969-0.516
		l3.832-0.535l3.695-0.563l3.566-0.582l3.438-0.602l3.313-0.617l3.188-0.637l3.063-0.652l2.941-0.664l2.828-0.68l2.707-0.688
		l2.598-0.699l2.488-0.707l2.375-0.711l2.273-0.719l2.164-0.723l2.066-0.723l1.965-0.723l1.871-0.727l1.773-0.719l1.68-0.719
		l1.59-0.715l1.504-0.707l1.414-0.695l1.336-0.691l1.25-0.676l1.172-0.664l1.098-0.652l1.02-0.637l0.949-0.621l0.883-0.602
		l0.813-0.578l0.746-0.563l0.684-0.535l0.625-0.516l0.563-0.488l0.512-0.461l0.453-0.434l0.402-0.402l0.355-0.371l0.309-0.336
		l0.262-0.305l0.219-0.27l0.18-0.23l0.145-0.191l0.105-0.152l0.074-0.109l0.043-0.066l0.012-0.023v485.449l-0.008,0.023
		l-0.023,0.066l-0.043,0.109l-0.063,0.152l-0.09,0.191l-0.117,0.23l-0.145,0.27l-0.18,0.305l-0.219,0.336l-0.254,0.371l-0.301,0.402
		l-0.34,0.434l-0.395,0.461l-0.441,0.488l-0.492,0.512l-0.551,0.539l-0.613,0.559l-0.672,0.582l-0.738,0.602l-0.805,0.621
		l-0.879,0.637l-0.949,0.648l-1.027,0.668l-1.109,0.676l-1.188,0.691l-1.273,0.695l-1.363,0.707l-1.453,0.715l-1.551,0.719
		l-1.645,0.719l-1.742,0.727l-1.848,0.723l-1.953,0.723l-2.059,0.723l-2.172,0.719l-2.285,0.715l-2.402,0.703l-2.523,0.699
		l-2.645,0.688l-2.77,0.68l-2.902,0.664l-3.027,0.652l-3.168,0.637l-3.301,0.621l-3.441,0.598L270,415.184l-3.73,0.563l-3.879,0.535
		l-4.031,0.516l-4.188,0.488l-4.34,0.461l-4.504,0.43l-4.664,0.406l-4.832,0.371l-5.004,0.336l-5.172,0.305l-5.348,0.27l-5.523,0.23
		l-5.703,0.191l-5.891,0.152l-6.074,0.109l-4.59,0.051v17.609l2.656-0.027l5.777-0.113l5.617-0.148l5.453-0.195l5.297-0.23
		l5.137-0.266l4.984-0.305l4.832-0.34l4.684-0.371l4.535-0.402l4.391-0.434l4.246-0.461l4.105-0.484l3.969-0.516l3.832-0.539
		l3.695-0.559l3.566-0.582l3.438-0.602l3.313-0.617l3.188-0.637l3.063-0.652l2.941-0.664l2.828-0.68l2.707-0.688l2.598-0.699
		l2.488-0.707l2.375-0.711l2.273-0.719l2.164-0.723l2.066-0.723l1.965-0.727l1.871-0.723l1.773-0.723l1.68-0.715l1.59-0.715
		l1.504-0.707l1.414-0.695l1.336-0.691l1.25-0.676l1.172-0.668l1.098-0.648l1.02-0.637l0.949-0.621l0.883-0.602l0.813-0.582
		l0.746-0.559l0.684-0.539l0.625-0.512l0.563-0.488l0.512-0.461l0.453-0.434l0.402-0.402l0.355-0.371l0.309-0.336l0.262-0.305
		l0.219-0.27l0.18-0.23l0.145-0.191l0.105-0.152l0.074-0.109l0.043-0.07l0.012-0.02v485.449l-0.008,0.02l-0.023,0.07l-0.043,0.109
		l-0.063,0.152l-0.09,0.191l-0.117,0.23l-0.145,0.27l-0.18,0.305l-0.219,0.336l-0.254,0.371l-0.301,0.402l-0.34,0.434l-0.395,0.461
		l-0.441,0.488l-0.492,0.512l-0.551,0.539l-0.613,0.559l-0.672,0.582l-0.738,0.602l-0.805,0.621l-0.879,0.637l-0.949,0.648
		l-1.027,0.668l-1.109,0.676l-1.188,0.691l-1.273,0.695l-1.363,0.707l-1.453,0.715l-1.551,0.715l-1.645,0.723l-1.742,0.723
		l-1.848,0.727l-1.953,0.723l-2.059,0.723l-2.172,0.719l-2.285,0.711l-2.402,0.707l-2.523,0.699l-2.645,0.688l-2.77,0.68
		l-2.902,0.664l-3.027,0.652l-3.168,0.637l-3.301,0.617l-3.441,0.602L270,918.266l-3.73,0.563l-3.879,0.535l-4.031,0.516
		l-4.188,0.488l-4.34,0.461l-4.504,0.43l-4.664,0.402l-4.832,0.371l-5.004,0.34l-5.172,0.305l-5.348,0.266l-5.523,0.234
		l-5.703,0.191l-5.891,0.152l-6.074,0.109l-4.59,0.051v14.18l-0.078,1.055l-0.227,1.023l-0.363,0.977l-0.492,0.93l-0.617,0.871
		l-0.73,0.809l-0.832,0.742l-0.934,0.66l-1.016,0.582l-1.098,0.488l-1.172,0.391l-1.23,0.289l-1.285,0.18l-1.328,0.063l-1.328-0.063
		l-1.285-0.18l-1.23-0.289l-1.172-0.391l-1.098-0.488l-1.016-0.582l-0.934-0.66l-0.832-0.742l-0.73-0.809l-0.617-0.871l-0.492-0.93
		l-0.363-0.977l-0.227-1.023l-0.078-1.055v-14.266l-4.156-0.074l-5.922-0.152l-5.746-0.191l-5.574-0.234l-5.406-0.266l-5.234-0.305
		l-5.074-0.34l-4.914-0.371l-4.75-0.402l-4.598-0.43l-4.441-0.461l-4.289-0.488l-4.145-0.516l-3.992-0.535l-3.852-0.563
		l-3.711-0.582l-3.57-0.602l-3.438-0.617l-3.301-0.637l-3.172-0.652l-3.043-0.664l-2.918-0.68l-2.793-0.688l-2.672-0.699
		l-2.555-0.707l-2.438-0.711l-2.328-0.719l-2.215-0.723l-2.109-0.723l-2-0.727l-1.902-0.723l-1.797-0.723l-1.703-0.715l-1.609-0.715
		l-1.512-0.707l-1.426-0.695l-1.34-0.691l-1.25-0.676l-1.172-0.668l-1.09-0.648l-1.016-0.637l-0.938-0.621l-0.867-0.602
		l-0.801-0.582l-0.73-0.559l-0.668-0.539l-0.605-0.512l-0.547-0.488l-0.488-0.461l-0.438-0.434l-0.383-0.402l-0.336-0.371
		l-0.289-0.336l-0.246-0.305l-0.207-0.27l-0.164-0.23l-0.133-0.191l-0.094-0.152l-0.066-0.109l-0.039-0.07l-0.012-0.02V407.836
		l0.016,0.02l0.051,0.07l0.09,0.109l0.125,0.152l0.168,0.191l0.211,0.23l0.254,0.27l0.305,0.305l0.352,0.336l0.402,0.371
		l0.457,0.402l0.512,0.434l0.57,0.461l0.629,0.488l0.691,0.512l0.754,0.539l0.82,0.559l0.887,0.582l0.961,0.602l1.031,0.621
		l1.105,0.637l1.18,0.648l1.262,0.668l1.34,0.676l1.426,0.691l1.508,0.695l1.594,0.707l1.684,0.715l1.777,0.715l1.867,0.723
		l1.965,0.723l2.063,0.727l2.16,0.723l2.262,0.723l2.363,0.719l2.473,0.711l2.578,0.707l2.688,0.699l2.801,0.688l2.918,0.68
		l3.027,0.664l3.152,0.652l3.27,0.637l3.391,0.617l3.516,0.602l3.645,0.582l3.77,0.559l3.902,0.539l4.039,0.516l4.168,0.484
		l4.309,0.461l4.445,0.434l4.59,0.402l4.73,0.371l4.875,0.34l5.027,0.305l5.172,0.266l5.324,0.23l5.48,0.195l5.637,0.148
		l4.457,0.086v-17.641l-4.156-0.074l-5.922-0.152l-5.746-0.191l-5.574-0.23l-5.406-0.27l-5.234-0.305l-5.074-0.336l-4.914-0.371
		l-4.75-0.406l-4.598-0.43l-4.441-0.461l-4.289-0.488l-4.145-0.516l-3.992-0.535l-3.852-0.563l-3.711-0.582l-3.57-0.598
		l-3.438-0.621l-3.301-0.637l-3.172-0.652l-3.043-0.664l-2.918-0.68l-2.793-0.688l-2.672-0.699l-2.555-0.703l-2.438-0.715
		l-2.328-0.719l-2.215-0.723l-2.109-0.723l-2-0.723l-1.902-0.727l-1.797-0.719l-1.703-0.719l-1.609-0.715l-1.512-0.707l-1.426-0.695
		l-1.34-0.691l-1.25-0.676l-1.172-0.668l-1.09-0.648l-1.016-0.637l-0.938-0.621l-0.867-0.602l-0.801-0.582l-0.73-0.559l-0.668-0.539
		l-0.605-0.512l-0.547-0.488l-0.488-0.461l-0.438-0.434l-0.383-0.402l-0.336-0.371l-0.289-0.336l-0.246-0.305l-0.207-0.27
		l-0.164-0.23l-0.133-0.191l-0.094-0.152l-0.066-0.109l-0.039-0.066l-0.012-0.023V-95.246l0.016,0.023l0.051,0.066l0.09,0.109
		l0.125,0.152l0.168,0.191l0.211,0.23l0.254,0.27l0.305,0.305l0.352,0.336l0.402,0.371l0.457,0.402l0.512,0.434l0.57,0.461
		l0.629,0.488l0.691,0.516l0.754,0.535l0.82,0.563l0.887,0.578l0.961,0.602l1.031,0.621l1.105,0.637l1.18,0.652l1.262,0.664
		l1.34,0.676l1.426,0.691l1.508,0.695l1.594,0.707l1.684,0.715l1.777,0.719l1.867,0.719l1.965,0.727l2.063,0.723l2.16,0.723
		l2.262,0.723l2.363,0.719l2.473,0.711l2.578,0.707l2.688,0.699l2.801,0.688l2.918,0.68l3.027,0.664l3.152,0.652l3.27,0.637
		l3.391,0.617l3.516,0.602l3.645,0.582l3.77,0.563l3.902,0.535l4.039,0.516l4.168,0.488l4.309,0.461l4.445,0.43l4.59,0.402
		l4.73,0.371l4.875,0.34l5.027,0.305l5.172,0.266l5.324,0.234l5.48,0.191l5.637,0.152l4.457,0.082v-10.336l-4.156-0.074
		l-5.922-0.152l-5.746-0.191l-5.574-0.23l-5.406-0.27l-5.234-0.305l-5.074-0.336l-4.914-0.371l-4.75-0.402l-4.598-0.434
		l-4.441-0.461l-4.289-0.488l-4.145-0.516l-3.992-0.535l-3.852-0.563l-3.711-0.578l-3.57-0.602l-3.438-0.621l-3.301-0.637
		l-3.172-0.652l-3.043-0.664l-2.918-0.676l-2.793-0.691l-2.672-0.699l-2.555-0.703l-2.438-0.715l-2.328-0.719l-2.215-0.719
		l-2.109-0.727l-2-0.723l-1.902-0.727l-1.797-0.719l-1.703-0.719l-1.609-0.715l-1.512-0.703L45.418-95l-1.34-0.691l-1.25-0.676
		l-1.172-0.664l-1.09-0.652l-1.016-0.637l-0.938-0.621l-0.867-0.602l-0.801-0.578l-0.73-0.563l-0.668-0.539l-0.605-0.512
		l-0.547-0.488l-0.488-0.461l-0.438-0.434l-0.383-0.402l-0.336-0.371l-0.289-0.336l-0.246-0.305l-0.207-0.27l-0.164-0.23
		l-0.133-0.191l-0.094-0.152l-0.066-0.109l-0.039-0.066l-0.012-0.023l-0.008-485.449"/>
	
		<linearGradient id="SVGID_1_" gradientUnits="userSpaceOnUse" x1="420.4873" y1="-176.1357" x2="21.4873" y2="-176.1358" gradientTransform="matrix(0.75 0 0 -0.75 13.8838 29.0928)">
		<stop  offset="0" style="stop-color:#A0A0A0"/>
		<stop  offset="0.01" style="stop-color:#FFFFFF"/>
		<stop  offset="0.36" style="stop-color:#EBEBEB"/>
		<stop  offset="0.43" style="stop-color:#E7E7E7"/>
		<stop  offset="0.95" style="stop-color:#B8B8B8"/>
		<stop  offset="0.98" style="stop-color:#EBEBEB"/>
		<stop  offset="0.99" style="stop-color:#ADADAD"/>
		<stop  offset="1" style="stop-color:#A8A8A8"/>
	</linearGradient>
	<path fill="url(#SVGID_1_)" d="M30-96.746c0,0,21.484,30.434,151.625,30.434C312-65.996,329.25-96.746,329.25-96.746v485.25
		c0,0-8.758,30.633-146.348,30.633C45,419.254,30,388.703,30,388.703V-96.746z"/>
	
		<linearGradient id="SVGID_2_" gradientUnits="userSpaceOnUse" x1="391.5596" y1="-155.1855" x2="21.4863" y2="-155.1856" gradientTransform="matrix(0.75 0 0 -0.75 24.7324 49.8242)">
		<stop  offset="0" style="stop-color:#354F76"/>
		<stop  offset="0.06" style="stop-color:#3F5D8A"/>
		<stop  offset="0.18" style="stop-color:#47628F"/>
		<stop  offset="0.38" style="stop-color:#64779A"/>
		<stop  offset="0.5" style="stop-color:#617599"/>
		<stop  offset="0.73" style="stop-color:#415F8D"/>
		<stop  offset="0.88" style="stop-color:#3B5681"/>
		<stop  offset="1" style="stop-color:#354F76"/>
	</linearGradient>
	<path fill="url(#SVGID_2_)" d="M40.848-76.016v460.5c0,0,32.164,23.961,137.453,23.961
		c105.547,0.039,140.102-32.633,140.102-23.848l-0.055-460.613c0,0-27.027,22.984-137.469,21.805
		C70.098-55.766,40.848-76.016,40.848-76.016z"/>
	
		<linearGradient id="SVGID_3_" gradientUnits="userSpaceOnUse" x1="392.4854" y1="149.6602" x2="21.4854" y2="149.6601" gradientTransform="matrix(0.75 0 0 -0.75 24.5493 139.2295)">
		<stop  offset="0" style="stop-color:#A0A0A0"/>
		<stop  offset="0.29" style="stop-color:#FFFFFF"/>
		<stop  offset="0.43" style="stop-color:#EBEBEB"/>
		<stop  offset="0.51" style="stop-color:#E7E7E7"/>
		<stop  offset="0.65" style="stop-color:#B8B8B8"/>
		<stop  offset="1" style="stop-color:#A8A8A8"/>
	</linearGradient>
	<path fill="url(#SVGID_3_)" d="M40.664,13.391v5.25c0,0,33.746,21.559,138.961,21.93c105.539,0.57,138.961-21.652,138.961-21.652
		l0.328-5.527c0,0-28.996,23.66-139.289,22.48C69.164,34.391,40.664,13.391,40.664,13.391z"/>
	
		<linearGradient id="SVGID_4_" gradientUnits="userSpaceOnUse" x1="392.4854" y1="149.6602" x2="21.4854" y2="149.6601" gradientTransform="matrix(0.75 0 0 -0.75 24.5493 230.7529)">
		<stop  offset="0" style="stop-color:#A0A0A0"/>
		<stop  offset="0.29" style="stop-color:#FFFFFF"/>
		<stop  offset="0.43" style="stop-color:#EBEBEB"/>
		<stop  offset="0.51" style="stop-color:#E7E7E7"/>
		<stop  offset="0.65" style="stop-color:#B8B8B8"/>
		<stop  offset="1" style="stop-color:#A8A8A8"/>
	</linearGradient>
	<path fill="url(#SVGID_4_)" d="M40.664,104.914v5.25c0,0,33.746,21.559,138.961,21.93c105.539,0.57,138.961-21.652,138.961-21.652
		l0.328-5.527c0,0-28.996,23.66-139.289,22.48C69.164,125.914,40.664,104.914,40.664,104.914z"/>
	
		<linearGradient id="SVGID_5_" gradientUnits="userSpaceOnUse" x1="392.4854" y1="149.6602" x2="21.4854" y2="149.6601" gradientTransform="matrix(0.75 0 0 -0.75 24.5493 322.2764)">
		<stop  offset="0" style="stop-color:#A0A0A0"/>
		<stop  offset="0.29" style="stop-color:#FFFFFF"/>
		<stop  offset="0.43" style="stop-color:#EBEBEB"/>
		<stop  offset="0.51" style="stop-color:#E7E7E7"/>
		<stop  offset="0.65" style="stop-color:#B8B8B8"/>
		<stop  offset="1" style="stop-color:#A8A8A8"/>
	</linearGradient>
	<path fill="url(#SVGID_5_)" d="M40.664,196.438v5.25c0,0,33.746,21.559,138.961,21.93c105.539,0.57,138.961-21.652,138.961-21.652
		l0.328-5.527c0,0-28.996,23.66-139.289,22.48C69.164,217.438,40.664,196.438,40.664,196.438z"/>
	
		<linearGradient id="SVGID_6_" gradientUnits="userSpaceOnUse" x1="51.8911" y1="-881.272" x2="21.4849" y2="-881.272" gradientTransform="matrix(0.75 0 0 -0.75 152.1084 -502.334)">
		<stop  offset="0" style="stop-color:#C5CACC"/>
		<stop  offset="0.25" style="stop-color:#F4FAFC"/>
		<stop  offset="0.29" style="stop-color:#F8FCFD"/>
		<stop  offset="0.49" style="stop-color:#D5DBDD"/>
		<stop  offset="0.62" style="stop-color:#C7CDCE"/>
		<stop  offset="0.82" style="stop-color:#ADB1B2"/>
		<stop  offset="0.97" style="stop-color:#A7ACAC"/>
	</linearGradient>
	<path fill="url(#SVGID_6_)" d="M179.473-628.176c6.75,0,11.555,4.055,11.555,9.059l-0.305,1555.441
		c0,5.25-4.801,9.094-11.098,9.094c-6.152-0.094-11.402-4.055-11.402-9.059V-619.176c0-5.25,5.105-9,11.402-9H179.473z"/>
	
		<linearGradient id="SVGID_7_" gradientUnits="userSpaceOnUse" x1="32.4863" y1="-879.2163" x2="21.4863" y2="-879.2163" gradientTransform="matrix(0.75 0 0 -0.75 159.3027 -500.0332)">
		<stop  offset="0" style="stop-color:#C4AA84"/>
		<stop  offset="0.15" style="stop-color:#FFE0B3"/>
		<stop  offset="0.25" style="stop-color:#FFEED7"/>
		<stop  offset="0.52" style="stop-color:#DFC297"/>
		<stop  offset="0.69" style="stop-color:#C7AD86"/>
		<stop  offset="0.8" style="stop-color:#BCA37E"/>
		<stop  offset="0.97" style="stop-color:#B19A77"/>
		<stop  offset="1" style="stop-color:#CBB189"/>
	</linearGradient>
	<path fill="url(#SVGID_7_)" d="M175.418-625.871h8.25v1570.5h-8.25V-625.871z"/>
	<path fill="#9E9F9F" d="M163.457,35.863c0-8.25,6.969-15,15.563-15c8.438,0,15.559,6.863,15.559,15.332
		c-0.371,8.668-6.965,15.328-15.559,15.328c-8.813,0.09-15.563-6.863-15.563-15.328V35.863z"/>
	
		<linearGradient id="SVGID_8_" gradientUnits="userSpaceOnUse" x1="52.8535" y1="152.3379" x2="21.4893" y2="152.3379" gradientTransform="matrix(0.75 0 0 -0.75 151.1406 150.4463)">
		<stop  offset="0" style="stop-color:#C5CACC"/>
		<stop  offset="0.25" style="stop-color:#F4FAFC"/>
		<stop  offset="0.29" style="stop-color:#F8FCFD"/>
		<stop  offset="0.49" style="stop-color:#D5DBDD"/>
		<stop  offset="0.62" style="stop-color:#C7CDCE"/>
		<stop  offset="0.82" style="stop-color:#ADB1B2"/>
		<stop  offset="0.97" style="stop-color:#A7ACAC"/>
	</linearGradient>
	<path fill="url(#SVGID_8_)" d="M167.258,35.855c0-6,5.266-11.25,11.762-11.25c6.238,0,11.762,5.188,11.762,11.59
		c-0.273,6.41-5.266,11.586-11.762,11.586c-6.512,0.074-11.762-5.188-11.762-11.586V35.855z"/>
	
		<linearGradient id="SVGID_9_" gradientUnits="userSpaceOnUse" x1="42.5278" y1="157.4209" x2="21.4858" y2="157.4209" gradientTransform="matrix(0.75 0 0 -0.75 155.0142 154.2617)">
		<stop  offset="0" style="stop-color:#A5A6A6"/>
		<stop  offset="0.25" style="stop-color:#D0D1D1"/>
		<stop  offset="0.29" style="stop-color:#E5E6E6"/>
		<stop  offset="0.49" style="stop-color:#B3B4B4"/>
		<stop  offset="0.62" style="stop-color:#A8A9A9"/>
		<stop  offset="0.82" style="stop-color:#909191"/>
		<stop  offset="0.97" style="stop-color:#8C8D8D"/>
	</linearGradient>
	<path fill="url(#SVGID_9_)" d="M171.129,35.922c0-3.75,3.535-7.5,7.891-7.5c4.109,0,7.891,3.48,7.891,7.773
		c-0.031,4.227-3.535,7.77-7.891,7.77c-4.141,0.207-7.891-3.477-7.891-7.77V35.922z"/>
	<path fill="#9E9F9F" d="M163.457,125.184c0-8.25,6.969-15,15.563-15c8.438,0,15.559,6.863,15.559,15.332
		c-0.371,8.668-6.965,15.328-15.559,15.328c-8.813,0.09-15.563-6.863-15.563-15.328V125.184z"/>
	
		<linearGradient id="SVGID_10_" gradientUnits="userSpaceOnUse" x1="52.8535" y1="152.3359" x2="21.4893" y2="152.3359" gradientTransform="matrix(0.75 0 0 -0.75 151.1406 239.7656)">
		<stop  offset="0" style="stop-color:#C5CACC"/>
		<stop  offset="0.25" style="stop-color:#F4FAFC"/>
		<stop  offset="0.29" style="stop-color:#F8FCFD"/>
		<stop  offset="0.49" style="stop-color:#D5DBDD"/>
		<stop  offset="0.62" style="stop-color:#C7CDCE"/>
		<stop  offset="0.82" style="stop-color:#ADB1B2"/>
		<stop  offset="0.97" style="stop-color:#A7ACAC"/>
	</linearGradient>
	<path fill="url(#SVGID_10_)" d="M167.258,125.176c0-6,5.266-11.25,11.762-11.25c6.238,0,11.762,5.188,11.762,11.59
		c-0.273,6.41-5.266,11.586-11.762,11.586c-6.512,0.074-11.762-5.188-11.762-11.586V125.176z"/>
	
		<linearGradient id="SVGID_11_" gradientUnits="userSpaceOnUse" x1="42.5278" y1="157.4209" x2="21.4858" y2="157.4209" gradientTransform="matrix(0.75 0 0 -0.75 155.0142 243.582)">
		<stop  offset="0" style="stop-color:#A5A6A6"/>
		<stop  offset="0.25" style="stop-color:#D0D1D1"/>
		<stop  offset="0.29" style="stop-color:#E5E6E6"/>
		<stop  offset="0.49" style="stop-color:#B3B4B4"/>
		<stop  offset="0.62" style="stop-color:#A8A9A9"/>
		<stop  offset="0.82" style="stop-color:#909191"/>
		<stop  offset="0.97" style="stop-color:#8C8D8D"/>
	</linearGradient>
	<path fill="url(#SVGID_11_)" d="M171.129,125.242c0-3.75,3.535-7.5,7.891-7.5c4.109,0,7.891,3.48,7.891,7.773
		c-0.031,4.227-3.535,7.77-7.891,7.77c-4.141,0.207-7.891-3.48-7.891-7.77V125.242z"/>
	<path fill="#9E9F9F" d="M163.457,220.027c0-8.25,6.969-15,15.563-15c8.438,0,15.559,6.863,15.559,15.332
		c-0.371,8.668-6.965,15.328-15.559,15.328c-8.813,0.09-15.563-6.863-15.563-15.328V220.027z"/>
	
		<linearGradient id="SVGID_12_" gradientUnits="userSpaceOnUse" x1="52.8535" y1="152.3369" x2="21.4893" y2="152.3369" gradientTransform="matrix(0.75 0 0 -0.75 151.1406 334.6094)">
		<stop  offset="0" style="stop-color:#C5CACC"/>
		<stop  offset="0.25" style="stop-color:#F4FAFC"/>
		<stop  offset="0.29" style="stop-color:#F8FCFD"/>
		<stop  offset="0.49" style="stop-color:#D5DBDD"/>
		<stop  offset="0.62" style="stop-color:#C7CDCE"/>
		<stop  offset="0.82" style="stop-color:#ADB1B2"/>
		<stop  offset="0.97" style="stop-color:#A7ACAC"/>
	</linearGradient>
	<path fill="url(#SVGID_12_)" d="M167.258,220.02c0-6,5.266-11.25,11.762-11.25c6.238,0,11.762,5.188,11.762,11.59
		c-0.273,6.41-5.266,11.586-11.762,11.586c-6.512,0.074-11.762-5.188-11.762-11.586V220.02z"/>
	
		<linearGradient id="SVGID_13_" gradientUnits="userSpaceOnUse" x1="42.5278" y1="157.4199" x2="21.4858" y2="157.4199" gradientTransform="matrix(0.75 0 0 -0.75 155.0142 338.4258)">
		<stop  offset="0" style="stop-color:#A5A6A6"/>
		<stop  offset="0.25" style="stop-color:#D0D1D1"/>
		<stop  offset="0.29" style="stop-color:#E5E6E6"/>
		<stop  offset="0.49" style="stop-color:#B3B4B4"/>
		<stop  offset="0.62" style="stop-color:#A8A9A9"/>
		<stop  offset="0.82" style="stop-color:#909191"/>
		<stop  offset="0.97" style="stop-color:#8C8D8D"/>
	</linearGradient>
	<path fill="url(#SVGID_13_)" d="M171.129,220.086c0-3.75,3.535-7.5,7.891-7.5c4.109,0,7.891,3.48,7.891,7.773
		c-0.031,4.227-3.535,7.77-7.891,7.77c-4.141,0.207-7.891-3.48-7.891-7.77V220.086z"/>
</g>
</svg>
