<?xml version="1.0" encoding="utf-8"?>
<!-- Generator: Adobe Illustrator 16.0.0, SVG Export Plug-In . SVG Version: 6.00 Build 0)  -->
<!DOCTYPE svg PUBLIC "-//W3C//DTD SVG 1.1//EN" "http://www.w3.org/Graphics/SVG/1.1/DTD/svg11.dtd">
<svg preserveAspectRatio="none" version="1.1" id="图层_1" xmlns="http://www.w3.org/2000/svg" xmlns:xlink="http://www.w3.org/1999/xlink" x="0px" y="0px"
	 width="299.293px" height="252.063px" viewBox="30 -3.578 299.293 252.063" enable-background="new 30 -3.578 299.293 252.063"
	 xml:space="preserve">
<g id="surface246">
	
		<linearGradient id="SVGID_1_" gradientUnits="userSpaceOnUse" x1="64.4902" y1="167.7871" x2="64.4902" y2="152.7871" gradientTransform="matrix(0.75 0 0 -0.75 82.5269 152.0547)">
		<stop  offset="0" style="stop-color:#909191"/>
		<stop  offset="0.03" style="stop-color:#D8D9D9"/>
		<stop  offset="0.08" style="stop-color:#BDBEBE"/>
		<stop  offset="0.64" style="stop-color:#BABABA"/>
		<stop  offset="0.95" style="stop-color:#B5B6B6"/>
		<stop  offset="1" style="stop-color:#868787"/>
	</linearGradient>
	<path fill="url(#SVGID_1_)" d="M98.645,32.215l9.75,5.25l54.75-7.5l-9-3.75L98.645,32.215z"/>
	
		<linearGradient id="SVGID_2_" gradientUnits="userSpaceOnUse" x1="57.9897" y1="167.7891" x2="57.9897" y2="148.7891" gradientTransform="matrix(0.75 0 0 -0.75 92.4492 155.9395)">
		<stop  offset="0" style="stop-color:#A8A8A8"/>
		<stop  offset="0.03" style="stop-color:#F2F2F2"/>
		<stop  offset="0.08" style="stop-color:#DBDBDB"/>
		<stop  offset="0.64" style="stop-color:#D8D8D8"/>
		<stop  offset="0.95" style="stop-color:#D3D3D3"/>
		<stop  offset="1" style="stop-color:#9C9C9C"/>
	</linearGradient>
	<path fill="url(#SVGID_2_)" d="M108.566,37.598l54.75-7.5v7.5l-54.75,6.75V37.598z"/>
	
		<linearGradient id="SVGID_3_" gradientUnits="userSpaceOnUse" x1="64.4873" y1="167.7861" x2="64.4873" y2="152.7861" gradientTransform="matrix(0.75 0 0 -0.75 82.2866 181.5938)">
		<stop  offset="0" style="stop-color:#909191"/>
		<stop  offset="0.03" style="stop-color:#D8D9D9"/>
		<stop  offset="0.08" style="stop-color:#BDBEBE"/>
		<stop  offset="0.64" style="stop-color:#BABABA"/>
		<stop  offset="0.95" style="stop-color:#B5B6B6"/>
		<stop  offset="1" style="stop-color:#868787"/>
	</linearGradient>
	<path fill="url(#SVGID_3_)" d="M98.402,61.754l9.75,5.25l54.75-7.5l-9-3.75L98.402,61.754z"/>
	
		<linearGradient id="SVGID_4_" gradientUnits="userSpaceOnUse" x1="57.9873" y1="167.7891" x2="57.9873" y2="148.7891" gradientTransform="matrix(0.75 0 0 -0.75 92.2402 185.4785)">
		<stop  offset="0" style="stop-color:#A8A8A8"/>
		<stop  offset="0.03" style="stop-color:#F2F2F2"/>
		<stop  offset="0.08" style="stop-color:#DBDBDB"/>
		<stop  offset="0.64" style="stop-color:#D8D8D8"/>
		<stop  offset="0.95" style="stop-color:#D3D3D3"/>
		<stop  offset="1" style="stop-color:#9C9C9C"/>
	</linearGradient>
	<path fill="url(#SVGID_4_)" d="M108.355,67.137l54.75-7.5v7.5l-54.75,6.75V67.137z"/>
	
		<linearGradient id="SVGID_5_" gradientUnits="userSpaceOnUse" x1="50.6465" y1="1.3823" x2="21.4902" y2="1.3823" gradientTransform="matrix(0.75 0 0 -0.75 70.4058 124.7168)">
		<stop  offset="0" style="stop-color:#BAC0C1"/>
		<stop  offset="0.15" style="stop-color:#F4FAFC"/>
		<stop  offset="0.25" style="stop-color:#F8FCFD"/>
		<stop  offset="0.44" style="stop-color:#D5DBDD"/>
		<stop  offset="0.6" style="stop-color:#BDC3C4"/>
		<stop  offset="0.8" style="stop-color:#A0A4A6"/>
		<stop  offset="0.97" style="stop-color:#929697"/>
		<stop  offset="1" style="stop-color:#C2C7C9"/>
	</linearGradient>
	<path fill="url(#SVGID_5_)" d="M86.523,1.125v244.5c0,0,2.684,2.855,11.137,2.855c8.363,0.145,10.73-2.891,10.73-2.891
		L108.273,1.125c0,0-1.996-2.25-10.449-2.25c-8.301,0-9.156,2.313-11.27,2.313L86.523,1.125z"/>
	
		<linearGradient id="SVGID_6_" gradientUnits="userSpaceOnUse" x1="50.877" y1="161.4619" x2="21.4863" y2="161.4619" gradientTransform="matrix(0.75 0 0 -0.75 70.3032 122.2754)">
		<stop  offset="0" style="stop-color:#BAC0C1"/>
		<stop  offset="0.15" style="stop-color:#F4FAFC"/>
		<stop  offset="0.25" style="stop-color:#F8FCFD"/>
		<stop  offset="0.44" style="stop-color:#D5DBDD"/>
		<stop  offset="0.6" style="stop-color:#BDC3C4"/>
		<stop  offset="0.8" style="stop-color:#A0A4A6"/>
		<stop  offset="0.97" style="stop-color:#929697"/>
		<stop  offset="1" style="stop-color:#C2C7C9"/>
	</linearGradient>
	<path fill="url(#SVGID_6_)" d="M86.418,0.938c0-2.25,4.934-4.516,11.023-4.516c6.227,0.016,11.02,2.129,11.02,4.75
		c-0.293,2.766-4.941,4.746-11.02,4.746c-5.773,0.27-11.023-2.125-11.023-4.746V0.938z"/>
	<path fill="none" stroke="#3F3F3F" stroke-linejoin="bevel" stroke-miterlimit="10" d="M145.676,30.523
		c0,0,47.977,21.328,87.902,28.391c39.598,6.859,95.668,12.109,95.668,12.109"/>
	
		<linearGradient id="SVGID_7_" gradientUnits="userSpaceOnUse" x1="21.4873" y1="160.9932" x2="33.1641" y2="160.9932" gradientTransform="matrix(0.75 0 0 -0.75 125.5449 147.3086)">
		<stop  offset="0" style="stop-color:#686767"/>
		<stop  offset="0.29" style="stop-color:#ABABAB"/>
		<stop  offset="0.68" style="stop-color:#D0D0D0"/>
		<stop  offset="1" style="stop-color:#696868"/>
	</linearGradient>
	<path fill="url(#SVGID_7_)" d="M141.66,22.219v8.25c0,0,1.207,1.133,4.531,1.133c2.969,0.367,4.227-1.141,4.227-1.141l-0.508-8.242
		c0,0-0.492-0.75-3.816-0.75c-3.684,0-3.602,0.906-4.434,0.906V22.219z"/>
	
		<linearGradient id="SVGID_8_" gradientUnits="userSpaceOnUse" x1="22.665" y1="169.1953" x2="31.9186" y2="161.4306" gradientTransform="matrix(0.75 0 0 -0.75 125.5918 146.6279)">
		<stop  offset="0" style="stop-color:#C7C7C7"/>
		<stop  offset="1" style="stop-color:#FFFFFF"/>
	</linearGradient>
	<path fill="url(#SVGID_8_)" d="M141.707,22.289c0-0.75,1.938-1.504,4.332-1.504c2.418,0.004,4.332,0.832,4.332,1.863
		c0.336,1.141-1.945,1.867-4.332,1.867c-2.082,0.023-4.332-0.836-4.332-1.867V22.289z"/>
	
		<linearGradient id="SVGID_9_" gradientUnits="userSpaceOnUse" x1="21.4897" y1="160.9902" x2="33.1665" y2="160.9902" gradientTransform="matrix(0.75 0 0 -0.75 126.9531 176.8477)">
		<stop  offset="0" style="stop-color:#686767"/>
		<stop  offset="0.29" style="stop-color:#ABABAB"/>
		<stop  offset="0.68" style="stop-color:#D0D0D0"/>
		<stop  offset="1" style="stop-color:#696868"/>
	</linearGradient>
	<path fill="url(#SVGID_9_)" d="M143.07,51.758v8.25c0,0,1.207,1.137,4.531,1.137c2.969,0.363,4.227-1.145,4.227-1.145l-0.508-8.242
		c0,0-0.492-0.75-3.82-0.75c-3.68,0-3.598,0.91-4.43,0.91V51.758z"/>
	
		<linearGradient id="SVGID_10_" gradientUnits="userSpaceOnUse" x1="22.6641" y1="169.1934" x2="31.917" y2="161.4292" gradientTransform="matrix(0.75 0 0 -0.75 127.0005 176.168)">
		<stop  offset="0" style="stop-color:#C7C7C7"/>
		<stop  offset="1" style="stop-color:#FFFFFF"/>
	</linearGradient>
	<path fill="url(#SVGID_10_)" d="M143.117,51.828c0-0.75,1.938-1.504,4.332-1.504c2.418,0.004,4.328,0.836,4.328,1.863
		c0.34,1.141-1.941,1.867-4.328,1.867c-2.082,0.023-4.332-0.836-4.332-1.867V51.828z"/>
	
		<linearGradient id="SVGID_11_" gradientUnits="userSpaceOnUse" x1="63.9888" y1="167.79" x2="63.9888" y2="151.79" gradientTransform="matrix(0.75 0 0 -0.75 13.938 160.7715)">
		<stop  offset="0" style="stop-color:#909191"/>
		<stop  offset="0.03" style="stop-color:#D8D9D9"/>
		<stop  offset="0.08" style="stop-color:#BDBEBE"/>
		<stop  offset="0.64" style="stop-color:#BABABA"/>
		<stop  offset="0.95" style="stop-color:#B5B6B6"/>
		<stop  offset="1" style="stop-color:#868787"/>
	</linearGradient>
	<path fill="url(#SVGID_11_)" d="M30.055,42.43l9.75,4.5l54-6.75l-7.5-5.25L30.055,42.43z"/>
	<path fill="#6B4C32" d="M39.75,47.348v6.75l-9.75-4.5v-7.5L39.75,47.348z"/>
	
		<linearGradient id="SVGID_12_" gradientUnits="userSpaceOnUse" x1="57.4907" y1="167.7852" x2="57.4907" y2="148.7852" gradientTransform="matrix(0.75 0 0 -0.75 23.8037 165.8389)">
		<stop  offset="0" style="stop-color:#A8A8A8"/>
		<stop  offset="0.03" style="stop-color:#F2F2F2"/>
		<stop  offset="0.08" style="stop-color:#DBDBDB"/>
		<stop  offset="0.64" style="stop-color:#D8D8D8"/>
		<stop  offset="0.95" style="stop-color:#D3D3D3"/>
		<stop  offset="1" style="stop-color:#9C9C9C"/>
	</linearGradient>
	<path fill="url(#SVGID_12_)" d="M39.922,47.5l54-7.5v6.75l-54,7.5V47.5z"/>
	
		<linearGradient id="SVGID_13_" gradientUnits="userSpaceOnUse" x1="27.9873" y1="167.7871" x2="27.9873" y2="151.7871" gradientTransform="matrix(0.75 0 0 -0.75 13.8843 167.9385)">
		<stop  offset="0" style="stop-color:#6E6F6F"/>
		<stop  offset="0.03" style="stop-color:#B7B8B8"/>
		<stop  offset="0.08" style="stop-color:#919292"/>
		<stop  offset="0.64" style="stop-color:#8F9090"/>
		<stop  offset="0.95" style="stop-color:#8B8C8C"/>
		<stop  offset="1" style="stop-color:#666767"/>
	</linearGradient>
	<path fill="url(#SVGID_13_)" d="M39.75,47.348v6.75l-9.75-4.5v-7.5L39.75,47.348z"/>
	
		<linearGradient id="SVGID_14_" gradientUnits="userSpaceOnUse" x1="63.9907" y1="167.7852" x2="63.9907" y2="151.7852" gradientTransform="matrix(0.75 0 0 -0.75 14.2412 190.8545)">
		<stop  offset="0" style="stop-color:#909191"/>
		<stop  offset="0.03" style="stop-color:#D8D9D9"/>
		<stop  offset="0.08" style="stop-color:#BDBEBE"/>
		<stop  offset="0.64" style="stop-color:#BABABA"/>
		<stop  offset="0.95" style="stop-color:#B5B6B6"/>
		<stop  offset="1" style="stop-color:#868787"/>
	</linearGradient>
	<path fill="url(#SVGID_14_)" d="M30.359,72.516l9.75,4.5l54-6.75l-7.5-5.25L30.359,72.516z"/>
	
		<linearGradient id="SVGID_15_" gradientUnits="userSpaceOnUse" x1="57.4873" y1="167.7871" x2="57.4873" y2="148.7871" gradientTransform="matrix(0.75 0 0 -0.75 24.1074 195.9219)">
		<stop  offset="0" style="stop-color:#A8A8A8"/>
		<stop  offset="0.03" style="stop-color:#F2F2F2"/>
		<stop  offset="0.08" style="stop-color:#DBDBDB"/>
		<stop  offset="0.64" style="stop-color:#D8D8D8"/>
		<stop  offset="0.95" style="stop-color:#D3D3D3"/>
		<stop  offset="1" style="stop-color:#9C9C9C"/>
	</linearGradient>
	<path fill="url(#SVGID_15_)" d="M40.223,77.582l54-7.5v6.75l-54,7.5V77.582z"/>
	
		<linearGradient id="SVGID_16_" gradientUnits="userSpaceOnUse" x1="27.9897" y1="167.7891" x2="27.9897" y2="151.7891" gradientTransform="matrix(0.75 0 0 -0.75 14.187 198.0215)">
		<stop  offset="0" style="stop-color:#6E6F6F"/>
		<stop  offset="0.03" style="stop-color:#B7B8B8"/>
		<stop  offset="0.08" style="stop-color:#919292"/>
		<stop  offset="0.64" style="stop-color:#8F9090"/>
		<stop  offset="0.95" style="stop-color:#8B8C8C"/>
		<stop  offset="1" style="stop-color:#666767"/>
	</linearGradient>
	<path fill="url(#SVGID_16_)" d="M40.055,77.43v6.75l-9.75-4.5v-7.5L40.055,77.43z"/>
	<path fill="none" stroke="#3F3F3F" stroke-linejoin="bevel" stroke-miterlimit="10" d="M47.281,43.332
		c0,0,51.012,33.23,120.688,57.484c69.813,24.266,145.492,26.273,145.492,26.273"/>
	
		<linearGradient id="SVGID_17_" gradientUnits="userSpaceOnUse" x1="21.4878" y1="160.9912" x2="33.1646" y2="160.9912" gradientTransform="matrix(0.75 0 0 -0.75 29.0444 191.3223)">
		<stop  offset="0" style="stop-color:#686767"/>
		<stop  offset="0.29" style="stop-color:#ABABAB"/>
		<stop  offset="0.68" style="stop-color:#D0D0D0"/>
		<stop  offset="1" style="stop-color:#696868"/>
	</linearGradient>
	<path fill="url(#SVGID_17_)" d="M45.16,66.234v8.25c0,0,1.207,1.133,4.531,1.133c2.969,0.367,4.227-1.141,4.227-1.141l-0.508-8.242
		c0,0-0.492-0.75-3.816-0.75c-3.684,0-3.602,0.906-4.434,0.906V66.234z"/>
	
		<linearGradient id="SVGID_18_" gradientUnits="userSpaceOnUse" x1="22.6641" y1="169.1943" x2="31.9172" y2="161.43" gradientTransform="matrix(0.75 0 0 -0.75 29.0913 190.6426)">
		<stop  offset="0" style="stop-color:#C7C7C7"/>
		<stop  offset="1" style="stop-color:#FFFFFF"/>
	</linearGradient>
	<path fill="url(#SVGID_18_)" d="M45.207,66.301c0-0.75,1.938-1.504,4.332-1.504c2.418,0.004,4.332,0.836,4.332,1.867
		c0.336,1.137-1.945,1.863-4.332,1.863c-2.082,0.023-4.332-0.832-4.332-1.863V66.301z"/>
	
		<linearGradient id="SVGID_19_" gradientUnits="userSpaceOnUse" x1="21.4888" y1="160.9922" x2="33.1655" y2="160.9922" gradientTransform="matrix(0.75 0 0 -0.75 26.7783 161.0928)">
		<stop  offset="0" style="stop-color:#686767"/>
		<stop  offset="0.29" style="stop-color:#ABABAB"/>
		<stop  offset="0.68" style="stop-color:#D0D0D0"/>
		<stop  offset="1" style="stop-color:#696868"/>
	</linearGradient>
	<path fill="url(#SVGID_19_)" d="M42.895,36.004v8.25c0,0,1.207,1.133,4.531,1.133c2.969,0.367,4.227-1.141,4.227-1.141
		l-0.508-8.242c0,0-0.492-0.75-3.816-0.75c-3.684,0-3.602,0.906-4.434,0.906V36.004z"/>
	
		<linearGradient id="SVGID_20_" gradientUnits="userSpaceOnUse" x1="22.6646" y1="169.1953" x2="31.9178" y2="161.4309" gradientTransform="matrix(0.75 0 0 -0.75 26.8252 160.4121)">
		<stop  offset="0" style="stop-color:#C7C7C7"/>
		<stop  offset="1" style="stop-color:#FFFFFF"/>
	</linearGradient>
	<path fill="url(#SVGID_20_)" d="M42.941,36.074c0-0.75,1.938-1.508,4.332-1.508c2.418,0.008,4.332,0.836,4.332,1.867
		c0.336,1.141-1.945,1.863-4.332,1.863c-2.082,0.027-4.332-0.832-4.332-1.863V36.074z"/>
</g>
</svg>
