<?xml version="1.0" encoding="utf-8"?>
<!-- Generator: Adobe Illustrator 16.0.0, SVG Export Plug-In . SVG Version: 6.00 Build 0)  -->
<!DOCTYPE svg PUBLIC "-//W3C//DTD SVG 1.1//EN" "http://www.w3.org/Graphics/SVG/1.1/DTD/svg11.dtd">
<svg preserveAspectRatio="none" version="1.1" id="图层_1" xmlns="http://www.w3.org/2000/svg" xmlns:xlink="http://www.w3.org/1999/xlink" x="0px" y="0px"
	 width="270.75px" height="561.883px" viewBox="44.086 -158.941 270.75 561.883"
	 enable-background="new 44.086 -158.941 270.75 561.883" xml:space="preserve">
<g id="surface136">
	
		<linearGradient id="SVGID_1_" gradientUnits="userSpaceOnUse" x1="95.2661" y1="106.2788" x2="57.2651" y2="106.2788" gradientTransform="matrix(0.7386 0.1302 0.1302 -0.7386 205.8502 1.4702)">
		<stop  offset="0" style="stop-color:#B76C68"/>
		<stop  offset="0.15" style="stop-color:#F09995"/>
		<stop  offset="0.25" style="stop-color:#F6CCCA"/>
		<stop  offset="0.44" style="stop-color:#D17C78"/>
		<stop  offset="0.6" style="stop-color:#BA6E6A"/>
		<stop  offset="0.8" style="stop-color:#9D5C59"/>
		<stop  offset="0.97" style="stop-color:#8F5451"/>
		<stop  offset="1" style="stop-color:#BE716D"/>
	</linearGradient>
	<path fill="url(#SVGID_1_)" d="M277.746-158.941l28.066,4.949L274.297,24.75l-28.066-4.949L277.746-158.941z"/>
	
		<linearGradient id="SVGID_2_" gradientUnits="userSpaceOnUse" x1="165.6167" y1="221.7813" x2="57.2681" y2="221.7812" gradientTransform="matrix(0.7386 0.1302 0.1302 -0.7386 154.3575 142.2007)">
		<stop  offset="0" style="stop-color:#B6B6B6"/>
		<stop  offset="0.15" style="stop-color:#EFEFEF"/>
		<stop  offset="0.25" style="stop-color:#F6F6F6"/>
		<stop  offset="0.44" style="stop-color:#D0D0D0"/>
		<stop  offset="0.6" style="stop-color:#B9B9B9"/>
		<stop  offset="0.8" style="stop-color:#9C9C9C"/>
		<stop  offset="0.97" style="stop-color:#8F8F8F"/>
		<stop  offset="1" style="stop-color:#BEBEBE"/>
	</linearGradient>
	<path fill="url(#SVGID_2_)" d="M227.82-14.129l25.023,0.605l26.59,4.688l23.723,7.992c1.477,0.262,2.336,1.219,2.113,2.488
		c-0.418,0.855-1.445,2.117-2.695,1.895L227.035-9.695c-1.477-0.262-2.02-1.5-1.793-2.77c0.23-1.316,1.359-2.129,2.609-1.91
		L227.82-14.129z"/>
	
		<linearGradient id="SVGID_3_" gradientUnits="userSpaceOnUse" x1="165.6196" y1="221.7803" x2="57.2642" y2="221.7803" gradientTransform="matrix(0.7386 0.1302 0.1302 -0.7386 151.3672 159.4292)">
		<stop  offset="0" style="stop-color:#B6B6B6"/>
		<stop  offset="0.15" style="stop-color:#EFEFEF"/>
		<stop  offset="0.25" style="stop-color:#F6F6F6"/>
		<stop  offset="0.44" style="stop-color:#D0D0D0"/>
		<stop  offset="0.6" style="stop-color:#B9B9B9"/>
		<stop  offset="0.8" style="stop-color:#9C9C9C"/>
		<stop  offset="0.97" style="stop-color:#8F8F8F"/>
		<stop  offset="1" style="stop-color:#BEBEBE"/>
	</linearGradient>
	<path fill="url(#SVGID_3_)" d="M224.828,3.102l25.027,0.605l26.59,4.688l23.723,7.992c1.477,0.258,2.336,1.219,2.113,2.488
		c-0.422,0.855-1.445,2.113-2.695,1.895L224.047,7.531c-1.477-0.258-2.02-1.5-1.797-2.77c0.234-1.313,1.363-2.129,2.613-1.906
		L224.828,3.102z"/>
	
		<linearGradient id="SVGID_4_" gradientUnits="userSpaceOnUse" x1="-539.1733" y1="-5.5898" x2="-577.1763" y2="-5.5898" gradientTransform="matrix(-0.7386 0.1302 -0.1302 -0.7386 -329.9293 1.4702)">
		<stop  offset="0" style="stop-color:#B76C68"/>
		<stop  offset="0.15" style="stop-color:#F09995"/>
		<stop  offset="0.25" style="stop-color:#F6CCCA"/>
		<stop  offset="0.44" style="stop-color:#D17C78"/>
		<stop  offset="0.6" style="stop-color:#BA6E6A"/>
		<stop  offset="0.8" style="stop-color:#9D5C59"/>
		<stop  offset="0.97" style="stop-color:#8F5451"/>
		<stop  offset="1" style="stop-color:#BE716D"/>
	</linearGradient>
	<path fill="url(#SVGID_4_)" d="M81.344-158.941l-28.066,4.949L84.797,24.75l28.066-4.949L81.344-158.941z"/>
	
		<linearGradient id="SVGID_5_" gradientUnits="userSpaceOnUse" x1="-468.8198" y1="109.9126" x2="-577.1743" y2="109.9126" gradientTransform="matrix(-0.7386 0.1302 -0.1302 -0.7386 -278.4351 142.2007)">
		<stop  offset="0" style="stop-color:#B6B6B6"/>
		<stop  offset="0.15" style="stop-color:#EFEFEF"/>
		<stop  offset="0.25" style="stop-color:#F6F6F6"/>
		<stop  offset="0.44" style="stop-color:#D0D0D0"/>
		<stop  offset="0.6" style="stop-color:#B9B9B9"/>
		<stop  offset="0.8" style="stop-color:#9C9C9C"/>
		<stop  offset="0.97" style="stop-color:#8F8F8F"/>
		<stop  offset="1" style="stop-color:#BEBEBE"/>
	</linearGradient>
	<path fill="url(#SVGID_5_)" d="M131.273-14.129l-25.027,0.605l-26.59,4.688L55.934-0.844c-1.477,0.262-2.336,1.219-2.113,2.488
		c0.422,0.855,1.445,2.117,2.695,1.895l75.539-13.234c1.477-0.262,2.02-1.5,1.797-2.77c-0.234-1.316-1.363-2.129-2.613-1.91
		L131.273-14.129z"/>
	
		<linearGradient id="SVGID_6_" gradientUnits="userSpaceOnUse" x1="-468.8237" y1="109.9121" x2="-577.1733" y2="109.9121" gradientTransform="matrix(-0.7386 0.1302 -0.1302 -0.7386 -275.4459 159.4292)">
		<stop  offset="0" style="stop-color:#B6B6B6"/>
		<stop  offset="0.15" style="stop-color:#EFEFEF"/>
		<stop  offset="0.25" style="stop-color:#F6F6F6"/>
		<stop  offset="0.44" style="stop-color:#D0D0D0"/>
		<stop  offset="0.6" style="stop-color:#B9B9B9"/>
		<stop  offset="0.8" style="stop-color:#9C9C9C"/>
		<stop  offset="0.97" style="stop-color:#8F8F8F"/>
		<stop  offset="1" style="stop-color:#BEBEBE"/>
	</linearGradient>
	<path fill="url(#SVGID_6_)" d="M134.262,3.102l-25.023,0.605l-26.59,4.688l-23.723,7.992c-1.477,0.258-2.336,1.219-2.113,2.488
		c0.418,0.855,1.445,2.113,2.695,1.895l75.535-13.238c1.48-0.258,2.02-1.5,1.797-2.77c-0.23-1.313-1.359-2.129-2.609-1.906
		L134.262,3.102z"/>
	
		<linearGradient id="SVGID_7_" gradientUnits="userSpaceOnUse" x1="339.4883" y1="-58.2144" x2="21.4883" y2="-58.2144" gradientTransform="matrix(0.75 0 0 -0.75 44.4146 189.7803)">
		<stop  offset="0" style="stop-color:#C4C4C4"/>
		<stop  offset="0.33" style="stop-color:#FFFFFF"/>
		<stop  offset="0.39" style="stop-color:#FFFFFF"/>
		<stop  offset="0.51" style="stop-color:#DFDFDF"/>
		<stop  offset="0.8" style="stop-color:#A8A8A8"/>
		<stop  offset="0.97" style="stop-color:#999999"/>
		<stop  offset="1" style="stop-color:#CBCBCB"/>
	</linearGradient>
	<path fill="url(#SVGID_7_)" d="M60.531,63.941h238.5v339h-238.5V63.941z"/>
	
		<linearGradient id="SVGID_8_" gradientUnits="userSpaceOnUse" x1="382.4863" y1="138.2861" x2="21.4863" y2="138.2861" gradientTransform="matrix(0.75 0 0 -0.75 27.9702 145.2256)">
		<stop  offset="0" style="stop-color:#A8A8A9"/>
		<stop  offset="0.33" style="stop-color:#DEDEDF"/>
		<stop  offset="0.39" style="stop-color:#EDEDED"/>
		<stop  offset="0.51" style="stop-color:#C0C0C1"/>
		<stop  offset="0.8" style="stop-color:#909091"/>
		<stop  offset="0.97" style="stop-color:#848484"/>
		<stop  offset="1" style="stop-color:#AFAFB0"/>
	</linearGradient>
	<path fill="url(#SVGID_8_)" d="M44.086,63.637h270.75v-44.25H44.086V63.637z"/>
	
		<linearGradient id="SVGID_9_" gradientUnits="userSpaceOnUse" x1="83.9893" y1="415.5186" x2="75.9863" y2="415.5186" gradientTransform="matrix(0.4302 0.6144 0.6144 -0.4302 -107.3042 273.4349)">
		<stop  offset="0" style="stop-color:#B6B6B6"/>
		<stop  offset="0.15" style="stop-color:#EFEFEF"/>
		<stop  offset="0.25" style="stop-color:#F6F6F6"/>
		<stop  offset="0.44" style="stop-color:#D0D0D0"/>
		<stop  offset="0.6" style="stop-color:#B9B9B9"/>
		<stop  offset="0.8" style="stop-color:#9C9C9C"/>
		<stop  offset="0.97" style="stop-color:#8F8F8F"/>
		<stop  offset="1" style="stop-color:#BEBEBE"/>
	</linearGradient>
	<path fill="url(#SVGID_9_)" d="M251.93,91.469l3.441,4.914L112.84,196.188l-3.441-4.918L251.93,91.469z"/>
	
		<linearGradient id="SVGID_10_" gradientUnits="userSpaceOnUse" x1="-285.522" y1="-112.1987" x2="-293.5249" y2="-112.1987" gradientTransform="matrix(-0.4302 0.6144 -0.6144 -0.4302 -11.3364 273.4349)">
		<stop  offset="0" style="stop-color:#B6B6B6"/>
		<stop  offset="0.15" style="stop-color:#EFEFEF"/>
		<stop  offset="0.25" style="stop-color:#F6F6F6"/>
		<stop  offset="0.44" style="stop-color:#D0D0D0"/>
		<stop  offset="0.6" style="stop-color:#B9B9B9"/>
		<stop  offset="0.8" style="stop-color:#9C9C9C"/>
		<stop  offset="0.97" style="stop-color:#8F8F8F"/>
		<stop  offset="1" style="stop-color:#BEBEBE"/>
	</linearGradient>
	<path fill="url(#SVGID_10_)" d="M112.598,91.469l-3.441,4.914l142.531,99.805l3.441-4.918L112.598,91.469z"/>
	
		<linearGradient id="SVGID_11_" gradientUnits="userSpaceOnUse" x1="128.4897" y1="132.7871" x2="21.4897" y2="132.7871" gradientTransform="matrix(0.75 0 0 -0.75 125.9487 243.3857)">
		<stop  offset="0" style="stop-color:#A8A8A8"/>
		<stop  offset="0.03" style="stop-color:#F2F2F2"/>
		<stop  offset="0.08" style="stop-color:#DBDBDB"/>
		<stop  offset="0.64" style="stop-color:#D8D8D8"/>
		<stop  offset="0.95" style="stop-color:#D3D3D3"/>
		<stop  offset="1" style="stop-color:#9C9C9C"/>
	</linearGradient>
	<path fill="url(#SVGID_11_)" d="M142.066,117.547h80.25v52.5h-80.25V117.547z"/>
	<path fill="#3E3938" stroke="#3E3938" stroke-linejoin="bevel" stroke-miterlimit="10" d="M155.051,130.113h54.75v27.75h-54.75
		V130.113z"/>
</g>
</svg>
