<?xml version="1.0" encoding="utf-8"?>
<!-- Generator: Adobe Illustrator 16.0.0, SVG Export Plug-In . SVG Version: 6.00 Build 0)  -->
<!DOCTYPE svg PUBLIC "-//W3C//DTD SVG 1.1//EN" "http://www.w3.org/Graphics/SVG/1.1/DTD/svg11.dtd">
<svg preserveAspectRatio="none" version="1.1" id="图层_1" xmlns="http://www.w3.org/2000/svg" xmlns:xlink="http://www.w3.org/1999/xlink" x="0px" y="0px"
	 width="299.25px" height="454.5px" viewBox="30 -104.629 299.25 454.5" enable-background="new 30 -104.629 299.25 454.5"
	 xml:space="preserve">
<g id="surface96">
	
		<linearGradient id="SVGID_1_" gradientUnits="userSpaceOnUse" x1="420.4873" y1="-135.2129" x2="21.4873" y2="-135.2129" gradientTransform="matrix(0.75 0 0 -0.75 13.8838 21.21)">
		<stop  offset="0" style="stop-color:#B5B5B5"/>
		<stop  offset="0.03" style="stop-color:#FFFFFF"/>
		<stop  offset="0.08" style="stop-color:#EBEBEB"/>
		<stop  offset="0.64" style="stop-color:#E7E7E7"/>
		<stop  offset="0.95" style="stop-color:#E2E2E2"/>
		<stop  offset="1" style="stop-color:#A8A8A8"/>
	</linearGradient>
	<path fill="url(#SVGID_1_)" d="M46.5-104.629h266.25c9,0,16.5,7.309,16.5,16.332v421.668c0,9-7.316,16.219-16.34,16.219
		L46.5,349.871c-9,0-16.5-7.594-16.5-16.613V-88.129c0-9,7.316-16.5,16.34-16.5H46.5z"/>
	<path fill="#898C5B" stroke="#898C5B" stroke-linejoin="bevel" stroke-miterlimit="10" d="M58.496-56.676h240v119.25h-240V-56.676z
		"/>
	
		<linearGradient id="SVGID_2_" gradientUnits="userSpaceOnUse" x1="53.4897" y1="167.7852" x2="53.4897" y2="136.4824" gradientTransform="matrix(0.75 0 0 -0.75 46.4648 221.2529)">
		<stop  offset="0" style="stop-color:#B76C68"/>
		<stop  offset="0.15" style="stop-color:#F09995"/>
		<stop  offset="0.71" style="stop-color:#D17C78"/>
		<stop  offset="0.85" style="stop-color:#A96460"/>
		<stop  offset="1" style="stop-color:#874E4B"/>
	</linearGradient>
	<path fill="url(#SVGID_2_)" d="M74.582,95.414h24c6.75,0,12,5.254,12,11.738c0,6.262-5.258,11.738-11.742,11.738l-24.258-0.227
		c-6.75,0-12-5.031-12-11.512c0-6.488,5.258-11.738,11.746-11.738H74.582z"/>
	
		<linearGradient id="SVGID_3_" gradientUnits="userSpaceOnUse" x1="53.4907" y1="167.7881" x2="53.4907" y2="136.4863" gradientTransform="matrix(0.75 0 0 -0.75 234.3896 224.8252)">
		<stop  offset="0" style="stop-color:#338E5E"/>
		<stop  offset="0.15" style="stop-color:#60BF8A"/>
		<stop  offset="0.71" style="stop-color:#3CA26D"/>
		<stop  offset="0.85" style="stop-color:#2F8357"/>
		<stop  offset="1" style="stop-color:#236844"/>
	</linearGradient>
	<path fill="url(#SVGID_3_)" d="M262.508,98.984h24c6.75,0,12,5.258,12,11.738c0,6.262-5.258,11.738-11.746,11.738l-24.254-0.227
		c-6.75,0-12-5.027-12-11.512c0-6.488,5.258-11.738,11.742-11.738H262.508z"/>
	
		<linearGradient id="SVGID_4_" gradientUnits="userSpaceOnUse" x1="53.4897" y1="167.79" x2="53.4897" y2="136.4883" gradientTransform="matrix(0.75 0 0 -0.75 46.4648 286.0684)">
		<stop  offset="0" style="stop-color:#617687"/>
		<stop  offset="0.15" style="stop-color:#8CA3B7"/>
		<stop  offset="0.71" style="stop-color:#6F879A"/>
		<stop  offset="0.85" style="stop-color:#596C7C"/>
		<stop  offset="1" style="stop-color:#465562"/>
	</linearGradient>
	<path fill="url(#SVGID_4_)" d="M74.582,160.227h24c6.75,0,12,5.258,12,11.738c0,6.262-5.258,11.738-11.742,11.738l-24.258-0.227
		c-6.75,0-12-5.027-12-11.512c0-6.488,5.258-11.738,11.746-11.738H74.582z"/>
	
		<linearGradient id="SVGID_5_" gradientUnits="userSpaceOnUse" x1="53.4907" y1="167.79" x2="53.4907" y2="136.4883" gradientTransform="matrix(0.75 0 0 -0.75 109.1064 286.0684)">
		<stop  offset="0" style="stop-color:#617687"/>
		<stop  offset="0.15" style="stop-color:#8CA3B7"/>
		<stop  offset="0.71" style="stop-color:#6F879A"/>
		<stop  offset="0.85" style="stop-color:#596C7C"/>
		<stop  offset="1" style="stop-color:#465562"/>
	</linearGradient>
	<path fill="url(#SVGID_5_)" d="M137.223,160.227h24c6.75,0,12.004,5.258,12.004,11.738c-0.004,6.262-5.262,11.738-11.746,11.738
		l-24.258-0.227c-6.75,0-12-5.027-12-11.512c0-6.488,5.258-11.738,11.746-11.738H137.223z"/>
	
		<linearGradient id="SVGID_6_" gradientUnits="userSpaceOnUse" x1="53.4897" y1="167.79" x2="53.4897" y2="136.4883" gradientTransform="matrix(0.75 0 0 -0.75 170.416 286.0684)">
		<stop  offset="0" style="stop-color:#617687"/>
		<stop  offset="0.15" style="stop-color:#8CA3B7"/>
		<stop  offset="0.71" style="stop-color:#6F879A"/>
		<stop  offset="0.85" style="stop-color:#596C7C"/>
		<stop  offset="1" style="stop-color:#465562"/>
	</linearGradient>
	<path fill="url(#SVGID_6_)" d="M198.531,160.227h24c6.75,0,12.004,5.258,12.004,11.738c-0.004,6.262-5.258,11.738-11.746,11.738
		l-24.258-0.227c-6.75,0-12-5.027-12-11.512c0-6.488,5.258-11.738,11.746-11.738H198.531z"/>
	
		<linearGradient id="SVGID_7_" gradientUnits="userSpaceOnUse" x1="53.4907" y1="167.79" x2="53.4907" y2="136.4883" gradientTransform="matrix(0.75 0 0 -0.75 234.3896 286.0684)">
		<stop  offset="0" style="stop-color:#617687"/>
		<stop  offset="0.15" style="stop-color:#8CA3B7"/>
		<stop  offset="0.71" style="stop-color:#6F879A"/>
		<stop  offset="0.85" style="stop-color:#596C7C"/>
		<stop  offset="1" style="stop-color:#465562"/>
	</linearGradient>
	<path fill="url(#SVGID_7_)" d="M262.508,160.227h24c6.75,0,12,5.258,12,11.738c0,6.262-5.258,11.738-11.746,11.738l-24.254-0.227
		c-6.75,0-12-5.027-12-11.512c0-6.488,5.258-11.738,11.742-11.738H262.508z"/>
	
		<linearGradient id="SVGID_8_" gradientUnits="userSpaceOnUse" x1="53.4897" y1="167.7871" x2="53.4897" y2="136.4844" gradientTransform="matrix(0.75 0 0 -0.75 46.4648 328.5977)">
		<stop  offset="0" style="stop-color:#617687"/>
		<stop  offset="0.15" style="stop-color:#8CA3B7"/>
		<stop  offset="0.71" style="stop-color:#6F879A"/>
		<stop  offset="0.85" style="stop-color:#596C7C"/>
		<stop  offset="1" style="stop-color:#465562"/>
	</linearGradient>
	<path fill="url(#SVGID_8_)" d="M74.582,202.758h24c6.75,0,12,5.258,12,11.738c0,6.262-5.258,11.738-11.742,11.738l-24.258-0.227
		c-6.75,0-12-5.027-12-11.512c0-6.488,5.258-11.738,11.746-11.738H74.582z"/>
	
		<linearGradient id="SVGID_9_" gradientUnits="userSpaceOnUse" x1="53.4907" y1="167.7871" x2="53.4907" y2="136.4844" gradientTransform="matrix(0.75 0 0 -0.75 109.1064 328.5977)">
		<stop  offset="0" style="stop-color:#617687"/>
		<stop  offset="0.15" style="stop-color:#8CA3B7"/>
		<stop  offset="0.71" style="stop-color:#6F879A"/>
		<stop  offset="0.85" style="stop-color:#596C7C"/>
		<stop  offset="1" style="stop-color:#465562"/>
	</linearGradient>
	<path fill="url(#SVGID_9_)" d="M137.223,202.758h24c6.75,0,12.004,5.258,12.004,11.738c-0.004,6.262-5.262,11.738-11.746,11.738
		l-24.258-0.227c-6.75,0-12-5.027-12-11.512c0-6.488,5.258-11.738,11.746-11.738H137.223z"/>
	
		<linearGradient id="SVGID_10_" gradientUnits="userSpaceOnUse" x1="53.4897" y1="167.7871" x2="53.4897" y2="136.4844" gradientTransform="matrix(0.75 0 0 -0.75 170.416 328.5977)">
		<stop  offset="0" style="stop-color:#617687"/>
		<stop  offset="0.15" style="stop-color:#8CA3B7"/>
		<stop  offset="0.71" style="stop-color:#6F879A"/>
		<stop  offset="0.85" style="stop-color:#596C7C"/>
		<stop  offset="1" style="stop-color:#465562"/>
	</linearGradient>
	<path fill="url(#SVGID_10_)" d="M198.531,202.758h24c6.75,0,12.004,5.258,12.004,11.738c-0.004,6.262-5.258,11.738-11.746,11.738
		l-24.258-0.227c-6.75,0-12-5.027-12-11.512c0-6.488,5.258-11.738,11.746-11.738H198.531z"/>
	
		<linearGradient id="SVGID_11_" gradientUnits="userSpaceOnUse" x1="53.4907" y1="167.7871" x2="53.4907" y2="136.4844" gradientTransform="matrix(0.75 0 0 -0.75 234.3896 328.5977)">
		<stop  offset="0" style="stop-color:#617687"/>
		<stop  offset="0.15" style="stop-color:#8CA3B7"/>
		<stop  offset="0.71" style="stop-color:#6F879A"/>
		<stop  offset="0.85" style="stop-color:#596C7C"/>
		<stop  offset="1" style="stop-color:#465562"/>
	</linearGradient>
	<path fill="url(#SVGID_11_)" d="M262.508,202.758h24c6.75,0,12,5.258,12,11.738c0,6.262-5.258,11.738-11.746,11.738l-24.254-0.227
		c-6.75,0-12-5.027-12-11.512c0-6.488,5.258-11.738,11.742-11.738H262.508z"/>
	
		<linearGradient id="SVGID_12_" gradientUnits="userSpaceOnUse" x1="64.9873" y1="167.7871" x2="64.9873" y2="139.7871" gradientTransform="matrix(0.75 0 0 -0.75 128.5801 208.3916)">
		<stop  offset="0" style="stop-color:#617687"/>
		<stop  offset="0.15" style="stop-color:#8CA3B7"/>
		<stop  offset="0.71" style="stop-color:#6F879A"/>
		<stop  offset="0.85" style="stop-color:#596C7C"/>
		<stop  offset="1" style="stop-color:#465562"/>
	</linearGradient>
	<path fill="url(#SVGID_12_)" d="M153.695,82.551h45.75l10.5,9v12h-65.25v-12.75L153.695,82.551z"/>
	
		<linearGradient id="SVGID_13_" gradientUnits="userSpaceOnUse" x1="64.9878" y1="636.2109" x2="64.9878" y2="608.2109" gradientTransform="matrix(0.75 0 0 0.75 128.5801 -347.9277)">
		<stop  offset="0" style="stop-color:#617687"/>
		<stop  offset="0.15" style="stop-color:#8CA3B7"/>
		<stop  offset="0.71" style="stop-color:#6F879A"/>
		<stop  offset="0.85" style="stop-color:#596C7C"/>
		<stop  offset="1" style="stop-color:#465562"/>
	</linearGradient>
	<path fill="url(#SVGID_13_)" d="M153.695,129.23h45.75l10.5-9v-12h-65.25v12.75L153.695,129.23z"/>
	<path fill="#AAAC80" stroke="#AAAC80" stroke-linejoin="bevel" stroke-miterlimit="10" d="M65.32-49.641h226.5v106.5H65.32V-49.641
		z"/>
</g>
</svg>
