<?xml version="1.0" encoding="utf-8"?>
<!-- Generator: Adobe Illustrator 16.0.0, SVG Export Plug-In . SVG Version: 6.00 Build 0)  -->
<!DOCTYPE svg PUBLIC "-//W3C//DTD SVG 1.1//EN" "http://www.w3.org/Graphics/SVG/1.1/DTD/svg11.dtd">
<svg preserveAspectRatio="none" version="1.1" id="图层_1" xmlns="http://www.w3.org/2000/svg" xmlns:xlink="http://www.w3.org/1999/xlink" x="0px" y="0px"
	 width="299.051px" height="118.847px" viewBox="29.98 63.012 299.051 118.847"
	 enable-background="new 29.98 63.012 299.051 118.847" xml:space="preserve">
<g id="surface281">
	
		<linearGradient id="SVGID_1_" gradientUnits="userSpaceOnUse" x1="30.1201" y1="167.7891" x2="30.1201" y2="108.4346" gradientTransform="matrix(0.75 0 0 -0.75 280.0171 223.7744)">
		<stop  offset="0" style="stop-color:#2D2929"/>
		<stop  offset="0.15" style="stop-color:#5B5858"/>
		<stop  offset="0.25" style="stop-color:#8B8989"/>
		<stop  offset="0.44" style="stop-color:#353130"/>
		<stop  offset="0.6" style="stop-color:#2E2A29"/>
		<stop  offset="0.8" style="stop-color:#252221"/>
		<stop  offset="0.97" style="stop-color:#211E1E"/>
		<stop  offset="1" style="stop-color:#2F2B2B"/>
	</linearGradient>
	<path fill="url(#SVGID_1_)" d="M296.883,97.934h11.25c0.75,0,0.973,0.43,0.973,0.961l-0.223,42.539c0,0.75-0.215,1.016-0.754,1.016
		l-11.246-0.266c0,0-0.773-0.164-0.773-0.695l0.023-42.805c0,0,0.41-0.75,0.949-0.75H296.883z"/>
	
		<linearGradient id="SVGID_2_" gradientUnits="userSpaceOnUse" x1="34.9897" y1="167.7871" x2="34.9897" y2="120.7871" gradientTransform="matrix(0.75 0 0 -0.75 292.6641 228.6133)">
		<stop  offset="0" style="stop-color:#2D2929"/>
		<stop  offset="0.15" style="stop-color:#5B5858"/>
		<stop  offset="0.25" style="stop-color:#8B8989"/>
		<stop  offset="0.44" style="stop-color:#353130"/>
		<stop  offset="0.6" style="stop-color:#2E2A29"/>
		<stop  offset="0.8" style="stop-color:#252221"/>
		<stop  offset="0.97" style="stop-color:#211E1E"/>
		<stop  offset="1" style="stop-color:#2F2B2B"/>
	</linearGradient>
	<path fill="url(#SVGID_2_)" d="M308.781,102.773l20.25,3v28.5l-20.25,3.75V102.773z"/>
	
		<linearGradient id="SVGID_3_" gradientUnits="userSpaceOnUse" x1="214.9893" y1="167.7861" x2="214.9893" y2="54.7861" gradientTransform="matrix(0.75 0 0 -0.75 14.0156 213.3037)">
		<stop  offset="0" style="stop-color:#3D3B3B"/>
		<stop  offset="0.01" style="stop-color:#908F8F"/>
		<stop  offset="0.05" style="stop-color:#514F4F"/>
		<stop  offset="0.9" style="stop-color:#504E4E"/>
		<stop  offset="0.95" style="stop-color:#4E4C4C"/>
		<stop  offset="1" style="stop-color:#383636"/>
	</linearGradient>
	<path fill="url(#SVGID_3_)" d="M30.883,87.465h256.5c0,0,0.602,0.43,0.602,0.961l0.148,64.289h32.25v18
		c0,0.75-0.344,1.266-0.879,1.266l-37.371,0.234H30.883c0,0-0.75-0.715-0.75-1.246V88.215c0,0,0.387-0.75,0.922-0.75H30.883z"/>
	
		<linearGradient id="SVGID_4_" gradientUnits="userSpaceOnUse" x1="215.4893" y1="167.7881" x2="215.4893" y2="154.6162" gradientTransform="matrix(0.75 0 0 -0.75 13.8633 297.8213)">
		<stop  offset="0" style="stop-color:#3D3B3B"/>
		<stop  offset="0.01" style="stop-color:#908F8F"/>
		<stop  offset="0.05" style="stop-color:#514F4F"/>
		<stop  offset="0.9" style="stop-color:#504E4E"/>
		<stop  offset="0.95" style="stop-color:#4E4C4C"/>
		<stop  offset="1" style="stop-color:#383636"/>
	</linearGradient>
	<path fill="url(#SVGID_4_)" d="M320.98,171.98v9c0,0.75-0.766,0.879-1.305,0.879L30.73,181.73c0,0-0.75-0.301-0.75-0.832v-8.918
		H320.98z"/>
	
		<linearGradient id="SVGID_5_" gradientUnits="userSpaceOnUse" x1="78.7031" y1="167.8047" x2="78.7031" y2="157.5605" gradientTransform="matrix(0.75 0 0 -0.75 100.9824 205.873)">
		<stop  offset="0" style="stop-color:#292525"/>
		<stop  offset="0.01" style="stop-color:#868584"/>
		<stop  offset="0.05" style="stop-color:#383433"/>
		<stop  offset="0.9" style="stop-color:#373332"/>
		<stop  offset="0.95" style="stop-color:#363130"/>
		<stop  offset="1" style="stop-color:#252221"/>
	</linearGradient>
	<path fill="url(#SVGID_5_)" d="M117.848,80.031h84c0.75,0,1.074,0.418,1.074,0.949l-0.324,5.801c0,0.75-0.176,0.922-0.715,0.922
		l-84.035-0.172c0,0-0.75-0.258-0.75-0.789v-5.961c0,0,0.418-0.762,0.957-0.762L117.848,80.031z"/>
	
		<linearGradient id="SVGID_6_" gradientUnits="userSpaceOnUse" x1="72.4878" y1="167.8291" x2="72.4878" y2="144.7881" gradientTransform="matrix(0.75 0 0 -0.75 106.6377 188.8838)">
		<stop  offset="0" style="stop-color:#A64B4E"/>
		<stop  offset="0.01" style="stop-color:#EF9A9C"/>
		<stop  offset="0.05" style="stop-color:#D86468"/>
		<stop  offset="0.9" style="stop-color:#D56266"/>
		<stop  offset="0.95" style="stop-color:#D06063"/>
		<stop  offset="1" style="stop-color:#9A4548"/>
	</linearGradient>
	<path fill="url(#SVGID_6_)" d="M122.754,80.293c0,0,14.656-16.434,14.656-17.25c0.344-0.75,18.02,12.414,18.02,12.414l43.824,0.336
		v4.5H122.754z"/>
	<path fill="#EEF18A" d="M49.922,102.176h224.25c0.75,0,1.172,0.371,1.172,0.902l0.328,55.348c0,0.75-0.793,1.02-1.332,1.02
		l-224.418-0.27c0,0-0.75-0.164-0.75-0.695v-55.555c0-0.75,0.434-0.809,0.973-0.809L49.922,102.176z"/>
	
		<linearGradient id="SVGID_7_" gradientUnits="userSpaceOnUse" x1="27.1221" y1="167.7891" x2="27.1221" y2="92.7891" gradientTransform="matrix(0.75 0 0 -0.75 271.8691 218.0322)">
		<stop  offset="0" style="stop-color:#676768"/>
		<stop  offset="0.15" style="stop-color:#939394"/>
		<stop  offset="0.25" style="stop-color:#ACACAC"/>
		<stop  offset="0.44" style="stop-color:#767677"/>
		<stop  offset="0.6" style="stop-color:#696969"/>
		<stop  offset="0.8" style="stop-color:#575758"/>
		<stop  offset="0.97" style="stop-color:#4F4F50"/>
		<stop  offset="1" style="stop-color:#6B6B6C"/>
	</linearGradient>
	<path fill="url(#SVGID_7_)" d="M288.734,92.191h6.75c0.75,0,0.953,0.426,0.953,0.957l-0.203,53.793c0,0.75-0.238,1.32-0.777,1.32
		l-6.723,0.18c0,0-0.75-0.641-0.75-1.168V92.941c0,0,0.438-0.75,0.977-0.75H288.734z"/>
</g>
</svg>
