<?xml version="1.0" encoding="utf-8"?>
<!-- Generator: Adobe Illustrator 16.0.0, SVG Export Plug-In . SVG Version: 6.00 Build 0)  -->
<!DOCTYPE svg PUBLIC "-//W3C//DTD SVG 1.1//EN" "http://www.w3.org/Graphics/SVG/1.1/DTD/svg11.dtd">
<svg preserveAspectRatio="none" version="1.1" id="图层_1" xmlns="http://www.w3.org/2000/svg" xmlns:xlink="http://www.w3.org/1999/xlink" x="0px" y="0px"
	 width="299.512px" height="541.5px" viewBox="30 -148.27 299.512 541.5" enable-background="new 30 -148.27 299.512 541.5"
	 xml:space="preserve">
<g id="surface211">
	
		<linearGradient id="SVGID_1_" gradientUnits="userSpaceOnUse" x1="420.4873" y1="-193.2129" x2="21.4873" y2="-193.2129" gradientTransform="matrix(0.75 0 0 -0.75 13.8838 -22.4307)">
		<stop  offset="0" style="stop-color:#4C505A"/>
		<stop  offset="0.03" style="stop-color:#9B9EA5"/>
		<stop  offset="0.08" style="stop-color:#666A77"/>
		<stop  offset="0.64" style="stop-color:#646875"/>
		<stop  offset="0.95" style="stop-color:#616672"/>
		<stop  offset="1" style="stop-color:#464A53"/>
	</linearGradient>
	<path fill="url(#SVGID_1_)" d="M33.75-148.27h291c3,0,4.5,1.848,4.5,4.125V388.73c0,3-1.859,4.5-4.156,4.5H33.75
		c-2.25,0-3.75-1.848-3.75-4.129V-143.77c0-3,1.645-4.5,3.938-4.5H33.75z"/>
	<path fill="#4C505A" d="M30,116.875h299.25v6H30V116.875z"/>
	<path fill="#4C505A" d="M30,211.477h299.25v6H30V211.477z"/>
	<path fill="#4C505A" d="M30,141.902h65.25v6H30V141.902z"/>
	<path fill="#4C505A" d="M30,164.926h65.25v6H30V164.926z"/>
	<path fill="#4C505A" d="M30,185.949h65.25v6H30V185.949z"/>
	<path fill="#4C505A" d="M30,237.004h65.25v6H30V237.004z"/>
	<path fill="#4C505A" d="M264.262,141.902h65.25v6h-65.25V141.902z"/>
	<path fill="#4C505A" d="M264.262,164.926h65.25v6h-65.25V164.926z"/>
	<path fill="#4C505A" d="M264.262,185.949h65.25v6h-65.25V185.949z"/>
	<path fill="#4C505A" d="M264.262,237h65.25v6h-65.25V237z"/>
	
		<linearGradient id="SVGID_2_" gradientUnits="userSpaceOnUse" x1="220.9873" y1="167.7842" x2="220.9873" y2="90.7842" gradientTransform="matrix(0.75 0 0 -0.75 13.8838 69.5371)">
		<stop  offset="0" style="stop-color:#4C505A"/>
		<stop  offset="0.03" style="stop-color:#9B9EA5"/>
		<stop  offset="0.08" style="stop-color:#666A77"/>
		<stop  offset="0.64" style="stop-color:#646875"/>
		<stop  offset="0.95" style="stop-color:#616672"/>
		<stop  offset="1" style="stop-color:#464A53"/>
	</linearGradient>
	<path fill="url(#SVGID_2_)" d="M30-56.301h299.25v57.75H30V-56.301z"/>
	
		<linearGradient id="SVGID_3_" gradientUnits="userSpaceOnUse" x1="232.5732" y1="46.7856" x2="21.4897" y2="46.7856" gradientTransform="matrix(0.75 0 0 -0.75 84.3511 7.9131)">
		<stop  offset="0" style="stop-color:#474A54"/>
		<stop  offset="0.03" style="stop-color:#9799A1"/>
		<stop  offset="0.08" style="stop-color:#5F6370"/>
		<stop  offset="0.64" style="stop-color:#5E616E"/>
		<stop  offset="0.95" style="stop-color:#5B5F6B"/>
		<stop  offset="1" style="stop-color:#42444E"/>
	</linearGradient>
	<path fill="url(#SVGID_3_)" d="M102.719-117.926h153.75c0.75,0,2.313,1.074,2.313,2.402l-0.063,176.098
		c0,1.5-1.145,2.813-2.48,2.813l-153.52,0.188c-1.5,0-2.25-1.391-2.25-2.715v-176.535c0-1.5,1.082-2.25,2.418-2.25H102.719z"/>
	
		<linearGradient id="SVGID_4_" gradientUnits="userSpaceOnUse" x1="114.1851" y1="167.7861" x2="114.1851" y2="-49.6875" gradientTransform="matrix(0.75 0 0 -0.75 93.9863 17.0156)">
		<stop  offset="0" style="stop-color:#4C505A"/>
		<stop  offset="0.03" style="stop-color:#9B9EA5"/>
		<stop  offset="0.08" style="stop-color:#666A77"/>
		<stop  offset="0.64" style="stop-color:#646875"/>
		<stop  offset="0.95" style="stop-color:#616672"/>
		<stop  offset="1" style="stop-color:#464A53"/>
	</linearGradient>
	<path fill="url(#SVGID_4_)" d="M112.352-108.824h134.25c1.5,0,2.547,1.012,2.547,2.34l-0.297,158.16c0,1.5-0.914,2.605-2.246,2.605
		l-134.254-0.355c-1.5,0-2.25-0.719-2.25-2.047v-158.453c0-1.5,0.957-2.25,2.293-2.25H112.352z"/>
	<path fill="#3E3938" d="M112.07-108.824h134.25c1.5,0,2.543,1.012,2.543,2.34l0.457,122.16H110.57l-0.75-122.25
		c0-1.5,0.953-2.25,2.289-2.25H112.07z"/>
	<path fill="#CFEBF6" fill-opacity="0.7804" stroke="#91ACB8" stroke-linejoin="bevel" stroke-miterlimit="10" d="M127.734,3.941
		h105v-68.25h-105V3.941z"/>
	
		<linearGradient id="SVGID_5_" gradientUnits="userSpaceOnUse" x1="34.9878" y1="167.7871" x2="34.9878" y2="150.7871" gradientTransform="matrix(0.75 0 0 -0.75 111.6182 149.6221)">
		<stop  offset="0" style="stop-color:#9B9B9C"/>
		<stop  offset="0.03" style="stop-color:#E4E4E4"/>
		<stop  offset="0.08" style="stop-color:#CBCBCB"/>
		<stop  offset="0.64" style="stop-color:#C7C7C8"/>
		<stop  offset="0.95" style="stop-color:#C3C3C4"/>
		<stop  offset="1" style="stop-color:#909091"/>
	</linearGradient>
	<path fill="url(#SVGID_5_)" d="M127.734,23.781h20.25v12.75h-20.25V23.781z"/>
	
		<linearGradient id="SVGID_6_" gradientUnits="userSpaceOnUse" x1="34.9868" y1="167.7891" x2="34.9868" y2="150.7891" gradientTransform="matrix(0.75 0 0 -0.75 139.8926 149.623)">
		<stop  offset="0" style="stop-color:#9B9B9C"/>
		<stop  offset="0.03" style="stop-color:#E4E4E4"/>
		<stop  offset="0.08" style="stop-color:#CBCBCB"/>
		<stop  offset="0.64" style="stop-color:#C7C7C8"/>
		<stop  offset="0.95" style="stop-color:#C3C3C4"/>
		<stop  offset="1" style="stop-color:#909091"/>
	</linearGradient>
	<path fill="url(#SVGID_6_)" d="M156.008,23.781h20.25v12.75h-20.25V23.781z"/>
	
		<linearGradient id="SVGID_7_" gradientUnits="userSpaceOnUse" x1="34.9868" y1="167.7891" x2="34.9868" y2="150.7891" gradientTransform="matrix(0.75 0 0 -0.75 168.1665 149.623)">
		<stop  offset="0" style="stop-color:#9B9B9C"/>
		<stop  offset="0.03" style="stop-color:#E4E4E4"/>
		<stop  offset="0.08" style="stop-color:#CBCBCB"/>
		<stop  offset="0.64" style="stop-color:#C7C7C8"/>
		<stop  offset="0.95" style="stop-color:#C3C3C4"/>
		<stop  offset="1" style="stop-color:#909091"/>
	</linearGradient>
	<path fill="url(#SVGID_7_)" d="M184.281,23.781h20.25v12.75h-20.25V23.781z"/>
	
		<linearGradient id="SVGID_8_" gradientUnits="userSpaceOnUse" x1="34.9912" y1="167.7891" x2="34.9912" y2="150.7891" gradientTransform="matrix(0.75 0 0 -0.75 196.4404 149.623)">
		<stop  offset="0" style="stop-color:#9B9B9C"/>
		<stop  offset="0.03" style="stop-color:#E4E4E4"/>
		<stop  offset="0.08" style="stop-color:#CBCBCB"/>
		<stop  offset="0.64" style="stop-color:#C7C7C8"/>
		<stop  offset="0.95" style="stop-color:#C3C3C4"/>
		<stop  offset="1" style="stop-color:#909091"/>
	</linearGradient>
	<path fill="url(#SVGID_8_)" d="M212.559,23.781h20.25v12.75h-20.25V23.781z"/>
</g>
</svg>
