<?xml version="1.0" encoding="utf-8"?>
<!-- Generator: Adobe Illustrator 16.0.0, SVG Export Plug-In . SVG Version: 6.00 Build 0)  -->
<!DOCTYPE svg PUBLIC "-//W3C//DTD SVG 1.1//EN" "http://www.w3.org/Graphics/SVG/1.1/DTD/svg11.dtd">
<svg preserveAspectRatio="none" version="1.1" id="图层_1" xmlns="http://www.w3.org/2000/svg" xmlns:xlink="http://www.w3.org/1999/xlink" x="0px" y="0px"
	 width="270.75px" height="561.934px" viewBox="44.086 -159.074 270.75 561.934"
	 enable-background="new 44.086 -159.074 270.75 561.934" xml:space="preserve">
<g id="surface161">
	
		<linearGradient id="SVGID_1_" gradientUnits="userSpaceOnUse" x1="95.2676" y1="106.2769" x2="57.2666" y2="106.2769" gradientTransform="matrix(0.7386 0.1302 0.1302 -0.7386 205.8023 1.3365)">
		<stop  offset="0" style="stop-color:#C4AA84"/>
		<stop  offset="0.15" style="stop-color:#FFE0B3"/>
		<stop  offset="0.25" style="stop-color:#FFEED7"/>
		<stop  offset="0.44" style="stop-color:#DFC297"/>
		<stop  offset="0.6" style="stop-color:#C7AD86"/>
		<stop  offset="0.8" style="stop-color:#A89170"/>
		<stop  offset="0.97" style="stop-color:#998566"/>
		<stop  offset="1" style="stop-color:#CBB189"/>
	</linearGradient>
	<path fill="url(#SVGID_1_)" d="M277.699-159.074l28.066,4.949L274.25,24.617l-28.066-4.949L277.699-159.074z"/>
	
		<linearGradient id="SVGID_2_" gradientUnits="userSpaceOnUse" x1="165.6177" y1="221.7793" x2="57.2642" y2="221.7793" gradientTransform="matrix(0.7386 0.1302 0.1302 -0.7386 154.3062 142.1001)">
		<stop  offset="0" style="stop-color:#B6B6B6"/>
		<stop  offset="0.15" style="stop-color:#EFEFEF"/>
		<stop  offset="0.25" style="stop-color:#F6F6F6"/>
		<stop  offset="0.44" style="stop-color:#D0D0D0"/>
		<stop  offset="0.6" style="stop-color:#B9B9B9"/>
		<stop  offset="0.8" style="stop-color:#9C9C9C"/>
		<stop  offset="0.97" style="stop-color:#8F8F8F"/>
		<stop  offset="1" style="stop-color:#BEBEBE"/>
	</linearGradient>
	<path fill="url(#SVGID_2_)" d="M227.766-14.227l25.027,0.605l26.59,4.688l23.723,7.988c1.477,0.262,2.336,1.223,2.113,2.492
		c-0.418,0.855-1.445,2.117-2.695,1.895L226.984-9.797c-1.477-0.258-2.02-1.496-1.797-2.766c0.234-1.316,1.363-2.133,2.613-1.91
		L227.766-14.227z"/>
	
		<linearGradient id="SVGID_3_" gradientUnits="userSpaceOnUse" x1="165.6157" y1="221.7803" x2="57.2661" y2="221.7803" gradientTransform="matrix(0.7386 0.1302 0.1302 -0.7386 151.316 159.3335)">
		<stop  offset="0" style="stop-color:#B6B6B6"/>
		<stop  offset="0.15" style="stop-color:#EFEFEF"/>
		<stop  offset="0.25" style="stop-color:#F6F6F6"/>
		<stop  offset="0.44" style="stop-color:#D0D0D0"/>
		<stop  offset="0.6" style="stop-color:#B9B9B9"/>
		<stop  offset="0.8" style="stop-color:#9C9C9C"/>
		<stop  offset="0.97" style="stop-color:#8F8F8F"/>
		<stop  offset="1" style="stop-color:#BEBEBE"/>
	</linearGradient>
	<path fill="url(#SVGID_3_)" d="M224.777,3.004l25.023,0.605l26.59,4.691l23.723,7.988c1.48,0.262,2.34,1.223,2.113,2.492
		c-0.418,0.855-1.441,2.113-2.691,1.895L223.996,7.438c-1.477-0.262-2.02-1.5-1.797-2.77c0.23-1.316,1.359-2.129,2.609-1.91
		L224.777,3.004z"/>
	
		<linearGradient id="SVGID_4_" gradientUnits="userSpaceOnUse" x1="-539.1743" y1="-5.5923" x2="-577.1763" y2="-5.5923" gradientTransform="matrix(-0.7386 0.1302 -0.1302 -0.7386 -329.9839 1.3365)">
		<stop  offset="0" style="stop-color:#C4AA84"/>
		<stop  offset="0.15" style="stop-color:#FFE0B3"/>
		<stop  offset="0.25" style="stop-color:#FFEED7"/>
		<stop  offset="0.44" style="stop-color:#DFC297"/>
		<stop  offset="0.6" style="stop-color:#C7AD86"/>
		<stop  offset="0.8" style="stop-color:#A89170"/>
		<stop  offset="0.97" style="stop-color:#998566"/>
		<stop  offset="1" style="stop-color:#CBB189"/>
	</linearGradient>
	<path fill="url(#SVGID_4_)" d="M81.289-159.074l-28.066,4.949l31.52,178.742l28.066-4.949L81.289-159.074z"/>
	
		<linearGradient id="SVGID_5_" gradientUnits="userSpaceOnUse" x1="-468.8188" y1="109.9106" x2="-577.1724" y2="109.9106" gradientTransform="matrix(-0.7386 0.1302 -0.1302 -0.7386 -278.4869 142.1001)">
		<stop  offset="0" style="stop-color:#B6B6B6"/>
		<stop  offset="0.15" style="stop-color:#EFEFEF"/>
		<stop  offset="0.25" style="stop-color:#F6F6F6"/>
		<stop  offset="0.44" style="stop-color:#D0D0D0"/>
		<stop  offset="0.6" style="stop-color:#B9B9B9"/>
		<stop  offset="0.8" style="stop-color:#9C9C9C"/>
		<stop  offset="0.97" style="stop-color:#8F8F8F"/>
		<stop  offset="1" style="stop-color:#BEBEBE"/>
	</linearGradient>
	<path fill="url(#SVGID_5_)" d="M131.223-14.227l-25.027,0.605l-26.59,4.688L55.883-0.945c-1.477,0.262-2.336,1.223-2.113,2.492
		c0.418,0.855,1.445,2.117,2.695,1.895l75.539-13.238c1.477-0.258,2.02-1.496,1.797-2.766c-0.234-1.316-1.363-2.133-2.613-1.91
		L131.223-14.227z"/>
	
		<linearGradient id="SVGID_6_" gradientUnits="userSpaceOnUse" x1="-468.8237" y1="109.9121" x2="-577.1733" y2="109.9121" gradientTransform="matrix(-0.7386 0.1302 -0.1302 -0.7386 -275.4976 159.3335)">
		<stop  offset="0" style="stop-color:#B6B6B6"/>
		<stop  offset="0.15" style="stop-color:#EFEFEF"/>
		<stop  offset="0.25" style="stop-color:#F6F6F6"/>
		<stop  offset="0.44" style="stop-color:#D0D0D0"/>
		<stop  offset="0.6" style="stop-color:#B9B9B9"/>
		<stop  offset="0.8" style="stop-color:#9C9C9C"/>
		<stop  offset="0.97" style="stop-color:#8F8F8F"/>
		<stop  offset="1" style="stop-color:#BEBEBE"/>
	</linearGradient>
	<path fill="url(#SVGID_6_)" d="M134.211,3.004l-25.023,0.605l-26.59,4.691l-23.723,7.988c-1.477,0.262-2.34,1.223-2.113,2.492
		c0.418,0.855,1.445,2.113,2.695,1.895l75.535-13.238c1.477-0.262,2.023-1.5,1.797-2.77c-0.23-1.316-1.359-2.129-2.609-1.91
		L134.211,3.004z"/>
	
		<linearGradient id="SVGID_7_" gradientUnits="userSpaceOnUse" x1="339.4883" y1="-58.2144" x2="21.4883" y2="-58.2144" gradientTransform="matrix(0.75 0 0 -0.75 44.4146 189.6982)">
		<stop  offset="0" style="stop-color:#B5B5B5"/>
		<stop  offset="0.03" style="stop-color:#FFFFFF"/>
		<stop  offset="0.08" style="stop-color:#EBEBEB"/>
		<stop  offset="0.64" style="stop-color:#E7E7E7"/>
		<stop  offset="0.95" style="stop-color:#E2E2E2"/>
		<stop  offset="1" style="stop-color:#A8A8A8"/>
	</linearGradient>
	<path fill="url(#SVGID_7_)" d="M60.531,63.859h238.5v339h-238.5V63.859z"/>
	
		<linearGradient id="SVGID_8_" gradientUnits="userSpaceOnUse" x1="382.4863" y1="138.2881" x2="21.4863" y2="138.2881" gradientTransform="matrix(0.75 0 0 -0.75 27.9702 145.1328)">
		<stop  offset="0" style="stop-color:#A8A8A8"/>
		<stop  offset="0.03" style="stop-color:#F2F2F2"/>
		<stop  offset="0.08" style="stop-color:#DBDBDB"/>
		<stop  offset="0.64" style="stop-color:#D8D8D8"/>
		<stop  offset="0.95" style="stop-color:#D3D3D3"/>
		<stop  offset="1" style="stop-color:#9C9C9C"/>
	</linearGradient>
	<path fill="url(#SVGID_8_)" d="M44.086,63.543h270.75v-44.25H44.086V63.543z"/>
</g>
</svg>
