<?xml version="1.0" encoding="utf-8"?>
<!-- Generator: Adobe Illustrator 16.0.0, SVG Export Plug-In . SVG Version: 6.00 Build 0)  -->
<!DOCTYPE svg PUBLIC "-//W3C//DTD SVG 1.1//EN" "http://www.w3.org/Graphics/SVG/1.1/DTD/svg11.dtd">
<svg preserveAspectRatio="none" version="1.1" id="图层_1" xmlns="http://www.w3.org/2000/svg" xmlns:xlink="http://www.w3.org/1999/xlink" x="0px" y="0px"
	 width="299.25px" height="856.473px" viewBox="31.5 -304.258 299.25 856.473"
	 enable-background="new 31.5 -304.258 299.25 856.473" xml:space="preserve">
<g id="surface121">
	<path fill-opacity="0.0784" d="M279.656-233.875l-38.316,6.398l-0.93,0.188l-0.84,0.523l-0.707,0.816l-0.547,1.051l-0.355,1.246
		l-0.125,1.383l-0.035,51.266l-21.82,18.309v-146.188l-0.195-1.426l-0.539-1.285l-0.84-1.09l-1.086-0.84l-1.281-0.543l-1.426-0.191
		h-58.977l-1.426,0.191l-1.281,0.543l-1.086,0.84l-0.84,1.09l-0.539,1.285l-0.195,1.426v144.91l-21.82-18.309l-0.035-49.988
		l-0.125-1.383l-0.355-1.246l-0.547-1.051l-0.707-0.816l-0.84-0.523l-0.93-0.188l-38.316-6.398l-0.93,0.188l-0.836,0.523
		l-0.711,0.816l-0.547,1.051l-0.352,1.246l-0.125,1.383l-0.027,18.305l-25.145-21.098v-41.711l-0.059-1.43l-0.176-1.285l-0.27-1.09
		l-0.352-0.84l-0.41-0.543l-0.461-0.191H33.227l-0.461,0.191l-0.41,0.543l-0.352,0.84l-0.27,1.09l-0.172,1.285l-0.063,1.43V-4.57
		l0.063,1.43l0.172,1.281l0.27,1.09l0.352,0.84l0.41,0.543l0.461,0.191h18.969l0.461-0.191l0.41-0.543l0.352-0.84l0.27-1.09
		l0.176-1.281l0.059-1.43v-40.883l24.949-20.934l-0.129,92.355l0.125,1.387l0.355,1.242l0.547,1.055l0.711,0.813l0.836,0.523
		l0.93,0.188l38.848,5.391l0.934-0.188l0.836-0.523l0.707-0.813l0.551-1.055l0.352-1.242l0.125-1.387l-0.055-74.328l21.727-21.727
		v34.418l0.195,1.426l0.539,1.285l0.84,1.09l1.086,0.84l1.281,0.543l1.426,0.191h17.063v147.262h-6.211v377.695l-1.129-0.465h-4.035
		l-1.684,0.699l-0.699,1.688v37.605h-1.238l-1.688,0.699l-0.695,1.688v7.859l0.695,1.688l1.688,0.699h54.844l1.688-0.699
		l0.695-1.688v-7.859l-0.695-1.688l-1.688-0.699h-1.238v-37.605l-0.699-1.688l-1.684-0.699h-4.035l-1.129,0.465V122.359h-6.211
		V-24.902h17.063l1.426-0.191l1.281-0.543l1.086-0.84l0.84-1.09l0.539-1.285l0.195-1.426v-35.148l21.727,21.73l-0.055,75.055
		l0.125,1.387l0.352,1.242l0.551,1.055l0.707,0.813l0.836,0.523l0.934,0.188l38.848-5.391l0.93-0.188l0.836-0.523l0.711-0.813
		l0.547-1.055l0.355-1.242l0.125-1.387l-0.129-93.633l24.949,20.934v42.16l0.059,1.43l0.176,1.281l0.27,1.09l0.352,0.84l0.41,0.543
		l0.461,0.191h18.969l0.461-0.191l0.41-0.543l0.352-0.84l0.27-1.09l0.172-1.281l0.063-1.43v-268.602l-0.063-1.43l-0.172-1.285
		l-0.27-1.09l-0.352-0.84l-0.41-0.543l-0.461-0.191h-18.969l-0.461,0.191l-0.41,0.543l-0.352,0.84l-0.27,1.09l-0.176,1.285
		l-0.059,1.43v42.988l-25.145,21.094l-0.027-19.578l-0.125-1.383l-0.352-1.246l-0.547-1.051l-0.711-0.816l-0.836-0.523
		L279.656-233.875 M308.328-54.77l-24.961-20.941l-0.172-125.348l25.133-21.086V-54.77 M237.789-156.336l-0.031,42.355
		l-21.777-18.277v-11.484L237.789-156.336 M237.75-105.949l-0.039,53.551l-21.73-21.734v-50.086L237.75-105.949 M53.922-53.492
		l24.961-20.941l0.172-127.898l-25.133-21.09V-53.492 M124.457-164.238v0.367l1.398,0.809L124.457-164.238 M124.461-156.754
		l0.031,44.047l21.777-18.273v-13.184L124.461-156.754 M124.5-104.672l0.039,53.004l21.73-21.734v-49.539L124.5-104.672"/>
	
		<linearGradient id="SVGID_1_" gradientUnits="userSpaceOnUse" x1="-561.7397" y1="-12.5039" x2="-622.7397" y2="-12.5039" gradientTransform="matrix(-0.75 0 0 -0.75 -185.0469 -109.5332)">
		<stop  offset="0" style="stop-color:#B5B5B5"/>
		<stop  offset="0.01" style="stop-color:#FFFFFF"/>
		<stop  offset="0.05" style="stop-color:#EBEBEB"/>
		<stop  offset="0.9" style="stop-color:#E7E7E7"/>
		<stop  offset="0.99" style="stop-color:#E2E2E2"/>
		<stop  offset="1" style="stop-color:#A8A8A8"/>
	</linearGradient>
	<path fill="url(#SVGID_1_)" d="M278.258-235.375l-38.25,6.75c-2.25,0-3.672,1.98-3.672,4.855l-0.078,253.895
		c0,2.25,1.461,4.941,3.398,4.941l38.602-5.691c2.25,0,3.75-2.031,3.75-4.906v-254.594c0-3-1.918-5.25-3.852-5.25H278.258z"/>
	
		<linearGradient id="SVGID_2_" gradientUnits="userSpaceOnUse" x1="82.4863" y1="-12.5039" x2="21.4863" y2="-12.5039" gradientTransform="matrix(0.75 0 0 -0.75 61.1274 -109.5332)">
		<stop  offset="0" style="stop-color:#B5B5B5"/>
		<stop  offset="0.01" style="stop-color:#FFFFFF"/>
		<stop  offset="0.05" style="stop-color:#EBEBEB"/>
		<stop  offset="0.9" style="stop-color:#E7E7E7"/>
		<stop  offset="0.99" style="stop-color:#E2E2E2"/>
		<stop  offset="1" style="stop-color:#A8A8A8"/>
	</linearGradient>
	<path fill="url(#SVGID_2_)" d="M80.992-235.375l38.25,6.75c2.25,0,3.672,1.98,3.672,4.855l0.078,253.895
		c0,2.25-1.461,4.941-3.398,4.941l-38.602-5.691c-2.25,0-3.75-2.031-3.75-4.906v-254.594c0-3,1.918-5.25,3.852-5.25H80.992z"/>
	
		<linearGradient id="SVGID_3_" gradientUnits="userSpaceOnUse" x1="54.4868" y1="-57.7104" x2="21.4868" y2="-57.7105" gradientTransform="matrix(0.75 0 0 -0.75 151.084 -87.2988)">
		<stop  offset="0" style="stop-color:#C5CACC"/>
		<stop  offset="0.25" style="stop-color:#F4FAFC"/>
		<stop  offset="0.29" style="stop-color:#F8FCFD"/>
		<stop  offset="0.49" style="stop-color:#D5DBDD"/>
		<stop  offset="0.62" style="stop-color:#C7CDCE"/>
		<stop  offset="0.82" style="stop-color:#ADB1B2"/>
		<stop  offset="0.97" style="stop-color:#A7ACAC"/>
	</linearGradient>
	<path fill="url(#SVGID_3_)" d="M167.199-213.141h24.75v338.25h-24.75V-213.141z"/>
	
		<linearGradient id="SVGID_4_" gradientUnits="userSpaceOnUse" x1="71.4878" y1="-117.7124" x2="21.4878" y2="-117.7124" gradientTransform="matrix(0.75 0 0 -0.75 144.8721 246.6992)">
		<stop  offset="0" style="stop-color:#C5CACC"/>
		<stop  offset="0.25" style="stop-color:#F4FAFC"/>
		<stop  offset="0.29" style="stop-color:#F8FCFD"/>
		<stop  offset="0.49" style="stop-color:#D5DBDD"/>
		<stop  offset="0.62" style="stop-color:#C7CDCE"/>
		<stop  offset="0.82" style="stop-color:#ADB1B2"/>
		<stop  offset="0.97" style="stop-color:#A7ACAC"/>
	</linearGradient>
	<path fill="url(#SVGID_4_)" d="M160.988,120.859h37.5v428.25h-37.5V120.859z"/>
</g>
</svg>
