<?xml version="1.0" encoding="utf-8"?>
<!-- Generator: Adobe Illustrator 16.0.0, SVG Export Plug-In . SVG Version: 6.00 Build 0)  -->
<!DOCTYPE svg PUBLIC "-//W3C//DTD SVG 1.1//EN" "http://www.w3.org/Graphics/SVG/1.1/DTD/svg11.dtd">
<svg preserveAspectRatio="none" version="1.1" id="图层_1" xmlns="http://www.w3.org/2000/svg" xmlns:xlink="http://www.w3.org/1999/xlink" x="0px" y="0px"
	 width="299.25px" height="665.25px" viewBox="30 -210.039 299.25 665.25" enable-background="new 30 -210.039 299.25 665.25"
	 xml:space="preserve">
<g id="surface91">
	
		<linearGradient id="SVGID_1_" gradientUnits="userSpaceOnUse" x1="160.4888" y1="-275.7153" x2="21.4888" y2="-275.7153" gradientTransform="matrix(0.75 0 0 -0.75 111.2422 -84.2012)">
		<stop  offset="0" style="stop-color:#B6B6B6"/>
		<stop  offset="0.15" style="stop-color:#EFEFEF"/>
		<stop  offset="0.25" style="stop-color:#F6F6F6"/>
		<stop  offset="0.44" style="stop-color:#D0D0D0"/>
		<stop  offset="0.6" style="stop-color:#B9B9B9"/>
		<stop  offset="0.8" style="stop-color:#9C9C9C"/>
		<stop  offset="0.97" style="stop-color:#8F8F8F"/>
		<stop  offset="1" style="stop-color:#BEBEBE"/>
	</linearGradient>
	<path fill="url(#SVGID_1_)" d="M127.359-210.039h104.25v665.25h-104.25V-210.039z"/>
	
		<linearGradient id="SVGID_2_" gradientUnits="userSpaceOnUse" x1="420.4873" y1="147.7852" x2="21.4873" y2="147.7851" gradientTransform="matrix(0.75 0 0 -0.75 13.8838 136.4746)">
		<stop  offset="0" style="stop-color:#B6B6B6"/>
		<stop  offset="0.15" style="stop-color:#EFEFEF"/>
		<stop  offset="0.25" style="stop-color:#F6F6F6"/>
		<stop  offset="0.44" style="stop-color:#D0D0D0"/>
		<stop  offset="0.6" style="stop-color:#B9B9B9"/>
		<stop  offset="0.8" style="stop-color:#9C9C9C"/>
		<stop  offset="0.97" style="stop-color:#8F8F8F"/>
		<stop  offset="1" style="stop-color:#BEBEBE"/>
	</linearGradient>
	<path fill="url(#SVGID_2_)" d="M38.25,23.387l91.5-12.75h99L321,23.387c4.5,0,8.25,3.938,8.25,8.672
		c0,4.828-3.887,8.566-8.563,8.566L38.25,40.637c-4.5,0-8.25-3.848-8.25-8.578c0-4.922,3.574-8.57,8.246-8.57L38.25,23.387z"/>
	
		<linearGradient id="SVGID_3_" gradientUnits="userSpaceOnUse" x1="420.4873" y1="147.7881" x2="21.4873" y2="147.7881" gradientTransform="matrix(0.75 0 0 -0.75 13.8838 200.6797)">
		<stop  offset="0" style="stop-color:#B6B6B6"/>
		<stop  offset="0.15" style="stop-color:#EFEFEF"/>
		<stop  offset="0.25" style="stop-color:#F6F6F6"/>
		<stop  offset="0.44" style="stop-color:#D0D0D0"/>
		<stop  offset="0.6" style="stop-color:#B9B9B9"/>
		<stop  offset="0.8" style="stop-color:#9C9C9C"/>
		<stop  offset="0.97" style="stop-color:#8F8F8F"/>
		<stop  offset="1" style="stop-color:#BEBEBE"/>
	</linearGradient>
	<path fill="url(#SVGID_3_)" d="M38.25,87.59l91.5-12.75h99L321,87.59c4.5,0,8.25,3.941,8.25,8.672c0,4.828-3.887,8.57-8.563,8.57
		L38.25,104.84c-4.5,0-8.25-3.844-8.25-8.578c0-4.922,3.574-8.566,8.246-8.566L38.25,87.59z"/>
	
		<linearGradient id="SVGID_4_" gradientUnits="userSpaceOnUse" x1="420.4873" y1="147.7861" x2="21.4873" y2="147.7861" gradientTransform="matrix(0.75 0 0 -0.75 13.8838 264.8857)">
		<stop  offset="0" style="stop-color:#B6B6B6"/>
		<stop  offset="0.15" style="stop-color:#EFEFEF"/>
		<stop  offset="0.25" style="stop-color:#F6F6F6"/>
		<stop  offset="0.44" style="stop-color:#D0D0D0"/>
		<stop  offset="0.6" style="stop-color:#B9B9B9"/>
		<stop  offset="0.8" style="stop-color:#9C9C9C"/>
		<stop  offset="0.97" style="stop-color:#8F8F8F"/>
		<stop  offset="1" style="stop-color:#BEBEBE"/>
	</linearGradient>
	<path fill="url(#SVGID_4_)" d="M38.25,151.797l91.5-12.75h99l92.25,12.75c4.5,0,8.25,3.938,8.25,8.672
		c0,4.828-3.887,8.566-8.563,8.566L38.25,169.047c-4.5,0-8.25-3.848-8.25-8.578c0-4.922,3.574-8.57,8.246-8.57L38.25,151.797z"/>
	
		<linearGradient id="SVGID_5_" gradientUnits="userSpaceOnUse" x1="420.4873" y1="147.79" x2="21.4873" y2="147.79" gradientTransform="matrix(0.75 0 0 -0.75 13.8838 329.0908)">
		<stop  offset="0" style="stop-color:#B6B6B6"/>
		<stop  offset="0.15" style="stop-color:#EFEFEF"/>
		<stop  offset="0.25" style="stop-color:#F6F6F6"/>
		<stop  offset="0.44" style="stop-color:#D0D0D0"/>
		<stop  offset="0.6" style="stop-color:#B9B9B9"/>
		<stop  offset="0.8" style="stop-color:#9C9C9C"/>
		<stop  offset="0.97" style="stop-color:#8F8F8F"/>
		<stop  offset="1" style="stop-color:#BEBEBE"/>
	</linearGradient>
	<path fill="url(#SVGID_5_)" d="M38.25,216l91.5-12.75h99L321,216c4.5,0,8.25,3.941,8.25,8.672c0,4.828-3.887,8.57-8.563,8.57
		L38.25,233.25c-4.5,0-8.25-3.844-8.25-8.578c0-4.922,3.574-8.566,8.246-8.566L38.25,216z"/>
</g>
</svg>
