<?xml version="1.0" encoding="utf-8"?>
<!-- Generator: Adobe Illustrator 16.0.0, SVG Export Plug-In . SVG Version: 6.00 Build 0)  -->
<!DOCTYPE svg PUBLIC "-//W3C//DTD SVG 1.1//EN" "http://www.w3.org/Graphics/SVG/1.1/DTD/svg11.dtd">
<svg preserveAspectRatio="none" version="1.1" id="图层_1" xmlns="http://www.w3.org/2000/svg" xmlns:xlink="http://www.w3.org/1999/xlink" x="0px" y="0px"
	 width="294px" height="333.992px" viewBox="32.551 -43.613 294 333.992" enable-background="new 32.551 -43.613 294 333.992"
	 xml:space="preserve">
<g id="surface46">
	
		<linearGradient id="SVGID_1_" gradientUnits="userSpaceOnUse" x1="413.4883" y1="-54.7158" x2="21.4883" y2="-54.7159" gradientTransform="matrix(0.75 0 0 -0.75 16.4341 82.2246)">
		<stop  offset="0" style="stop-color:#00838E"/>
		<stop  offset="0.01" style="stop-color:#7CCBD6"/>
		<stop  offset="0.05" style="stop-color:#01ACBA"/>
		<stop  offset="0.9" style="stop-color:#01A9B7"/>
		<stop  offset="0.95" style="stop-color:#01A5B3"/>
		<stop  offset="1" style="stop-color:#007A84"/>
	</linearGradient>
	<path fill="url(#SVGID_1_)" d="M32.551-43.613h294v333.75h-294V-43.613z"/>
	<path fill="#FED372" stroke="#FED372" stroke-linejoin="bevel" stroke-miterlimit="10" d="M58.316-42.813h242.25v135.75H58.316
		V-42.813z"/>
	<path fill="#FED372" stroke="#FED372" stroke-linejoin="bevel" stroke-miterlimit="10" d="M58.316,115.129h242.25v174.75H58.316
		V115.129z"/>
	
		<linearGradient id="SVGID_2_" gradientUnits="userSpaceOnUse" x1="165.4888" y1="167.7881" x2="165.4888" y2="59.7881" gradientTransform="matrix(0.75 0 0 -0.75 55.6802 110.2861)">
		<stop  offset="0" style="stop-color:#292525"/>
		<stop  offset="0.01" style="stop-color:#868584"/>
		<stop  offset="0.05" style="stop-color:#383433"/>
		<stop  offset="0.97" style="stop-color:#373332"/>
		<stop  offset="0.99" style="stop-color:#524F4E"/>
		<stop  offset="1" style="stop-color:#23211F"/>
	</linearGradient>
	<path fill="url(#SVGID_2_)" d="M91.297-15.555h176.25c11.25,0,19.906,9,19.906,20.098l0.344,40.652
		c0,11.25-9.242,20.227-20.219,20.227L91.297,65.445c-10.5,0-19.5-9.02-19.5-20.121V4.695c0-11.25,8.898-20.25,19.875-20.25H91.297z
		"/>
	
		<linearGradient id="SVGID_3_" gradientUnits="userSpaceOnUse" x1="43.9741" y1="167.7891" x2="43.9741" y2="158.5234" gradientTransform="matrix(0.75 0 0 -0.75 78.8711 257.8066)">
		<stop  offset="0" style="stop-color:#C3A156"/>
		<stop  offset="0.15" style="stop-color:#FED681"/>
		<stop  offset="0.25" style="stop-color:#FEE8C2"/>
		<stop  offset="0.77" style="stop-color:#DEB863"/>
		<stop  offset="1" style="stop-color:#C6A457"/>
	</linearGradient>
	<path fill="url(#SVGID_3_)" d="M97.988,131.965h27c2.25,0,3.793,1.559,3.793,3.477c-0.043,1.773-1.57,3.473-3.469,3.473
		l-27.324-0.199c-1.5,0-3.066-1.355-3.066-3.273c0.066-1.977,1.539-3.477,3.434-3.477H97.988z"/>
	
		<linearGradient id="SVGID_4_" gradientUnits="userSpaceOnUse" x1="43.9741" y1="167.7891" x2="43.9741" y2="158.5234" gradientTransform="matrix(0.75 0 0 -0.75 78.8711 276.1934)">
		<stop  offset="0" style="stop-color:#C3A156"/>
		<stop  offset="0.15" style="stop-color:#FED681"/>
		<stop  offset="0.25" style="stop-color:#FEE8C2"/>
		<stop  offset="0.77" style="stop-color:#DEB863"/>
		<stop  offset="1" style="stop-color:#C6A457"/>
	</linearGradient>
	<path fill="url(#SVGID_4_)" d="M97.988,150.352h27c2.25,0,3.793,1.559,3.793,3.477c-0.043,1.773-1.57,3.473-3.469,3.473
		l-27.324-0.199c-1.5,0-3.066-1.355-3.066-3.273c0.066-1.977,1.539-3.477,3.434-3.477H97.988z"/>
	
		<linearGradient id="SVGID_5_" gradientUnits="userSpaceOnUse" x1="43.9741" y1="167.7891" x2="43.9741" y2="158.5234" gradientTransform="matrix(0.75 0 0 -0.75 78.8711 296.29)">
		<stop  offset="0" style="stop-color:#C3A156"/>
		<stop  offset="0.15" style="stop-color:#FED681"/>
		<stop  offset="0.25" style="stop-color:#FEE8C2"/>
		<stop  offset="0.77" style="stop-color:#DEB863"/>
		<stop  offset="1" style="stop-color:#C6A457"/>
	</linearGradient>
	<path fill="url(#SVGID_5_)" d="M97.988,170.449h27c2.25,0,3.793,1.555,3.793,3.477c-0.043,1.773-1.57,3.473-3.469,3.473
		l-27.324-0.199c-1.5,0-3.066-1.355-3.066-3.273c0.066-1.977,1.539-3.477,3.434-3.477H97.988z"/>
	
		<linearGradient id="SVGID_6_" gradientUnits="userSpaceOnUse" x1="43.9741" y1="167.7891" x2="43.9741" y2="158.5234" gradientTransform="matrix(0.75 0 0 -0.75 78.8711 314.7988)">
		<stop  offset="0" style="stop-color:#C3A156"/>
		<stop  offset="0.15" style="stop-color:#FED681"/>
		<stop  offset="0.25" style="stop-color:#FEE8C2"/>
		<stop  offset="0.77" style="stop-color:#DEB863"/>
		<stop  offset="1" style="stop-color:#C6A457"/>
	</linearGradient>
	<path fill="url(#SVGID_6_)" d="M97.988,188.957h27c2.25,0,3.793,1.559,3.793,3.477c-0.043,1.773-1.57,3.473-3.469,3.473
		l-27.324-0.199c-1.5,0-3.066-1.355-3.066-3.273c0.066-1.977,1.539-3.477,3.434-3.477H97.988z"/>
	
		<linearGradient id="SVGID_7_" gradientUnits="userSpaceOnUse" x1="43.9741" y1="167.7861" x2="43.9741" y2="158.5205" gradientTransform="matrix(0.75 0 0 -0.75 78.8711 333.7959)">
		<stop  offset="0" style="stop-color:#C3A156"/>
		<stop  offset="0.15" style="stop-color:#FED681"/>
		<stop  offset="0.25" style="stop-color:#FEE8C2"/>
		<stop  offset="0.77" style="stop-color:#DEB863"/>
		<stop  offset="1" style="stop-color:#C6A457"/>
	</linearGradient>
	<path fill="url(#SVGID_7_)" d="M97.988,207.957h27c2.25,0,3.793,1.555,3.793,3.473c-0.043,1.777-1.57,3.477-3.469,3.477
		l-27.324-0.199c-1.5,0-3.066-1.359-3.066-3.277c0.066-1.973,1.539-3.473,3.434-3.473H97.988z"/>
	
		<linearGradient id="SVGID_8_" gradientUnits="userSpaceOnUse" x1="43.9741" y1="167.7861" x2="43.9741" y2="158.5205" gradientTransform="matrix(0.75 0 0 -0.75 78.8711 352.793)">
		<stop  offset="0" style="stop-color:#C3A156"/>
		<stop  offset="0.15" style="stop-color:#FED681"/>
		<stop  offset="0.25" style="stop-color:#FEE8C2"/>
		<stop  offset="0.77" style="stop-color:#DEB863"/>
		<stop  offset="1" style="stop-color:#C6A457"/>
	</linearGradient>
	<path fill="url(#SVGID_8_)" d="M97.988,226.953h27c2.25,0,3.793,1.555,3.793,3.473c-0.043,1.777-1.57,3.477-3.469,3.477
		l-27.324-0.199c-1.5,0-3.066-1.355-3.066-3.277c0.066-1.973,1.539-3.473,3.434-3.473H97.988z"/>
	
		<linearGradient id="SVGID_9_" gradientUnits="userSpaceOnUse" x1="43.9741" y1="167.7832" x2="43.9741" y2="158.5234" gradientTransform="matrix(0.75 0 0 -0.75 148.0273 257.8066)">
		<stop  offset="0" style="stop-color:#C3A156"/>
		<stop  offset="0.15" style="stop-color:#FED681"/>
		<stop  offset="0.25" style="stop-color:#FEE8C2"/>
		<stop  offset="0.77" style="stop-color:#DEB863"/>
		<stop  offset="1" style="stop-color:#C6A457"/>
	</linearGradient>
	<path fill="url(#SVGID_9_)" d="M167.145,131.969h27c2.25,0,3.793,1.555,3.793,3.473c-0.043,1.777-1.57,3.473-3.469,3.473
		l-27.324-0.195c-1.5,0-3.066-1.359-3.066-3.277c0.066-1.973,1.539-3.473,3.434-3.473H167.145z"/>
	
		<linearGradient id="SVGID_10_" gradientUnits="userSpaceOnUse" x1="43.9741" y1="167.7891" x2="43.9741" y2="158.5234" gradientTransform="matrix(0.75 0 0 -0.75 148.0273 276.1934)">
		<stop  offset="0" style="stop-color:#C3A156"/>
		<stop  offset="0.15" style="stop-color:#FED681"/>
		<stop  offset="0.25" style="stop-color:#FEE8C2"/>
		<stop  offset="0.77" style="stop-color:#DEB863"/>
		<stop  offset="1" style="stop-color:#C6A457"/>
	</linearGradient>
	<path fill="url(#SVGID_10_)" d="M167.145,150.352h27c2.25,0,3.793,1.559,3.793,3.477c-0.043,1.773-1.57,3.473-3.469,3.473
		l-27.324-0.199c-1.5,0-3.066-1.355-3.066-3.273c0.066-1.977,1.539-3.477,3.434-3.477H167.145z"/>
	
		<linearGradient id="SVGID_11_" gradientUnits="userSpaceOnUse" x1="43.9741" y1="167.7891" x2="43.9741" y2="158.5234" gradientTransform="matrix(0.75 0 0 -0.75 148.0273 296.29)">
		<stop  offset="0" style="stop-color:#C3A156"/>
		<stop  offset="0.15" style="stop-color:#FED681"/>
		<stop  offset="0.25" style="stop-color:#FEE8C2"/>
		<stop  offset="0.77" style="stop-color:#DEB863"/>
		<stop  offset="1" style="stop-color:#C6A457"/>
	</linearGradient>
	<path fill="url(#SVGID_11_)" d="M167.145,170.449h27c2.25,0,3.793,1.555,3.793,3.477c-0.043,1.773-1.57,3.473-3.469,3.473
		l-27.324-0.199c-1.5,0-3.066-1.355-3.066-3.273c0.066-1.977,1.539-3.477,3.434-3.477H167.145z"/>
	
		<linearGradient id="SVGID_12_" gradientUnits="userSpaceOnUse" x1="43.9741" y1="167.7842" x2="43.9741" y2="158.5234" gradientTransform="matrix(0.75 0 0 -0.75 148.0273 314.7988)">
		<stop  offset="0" style="stop-color:#C3A156"/>
		<stop  offset="0.15" style="stop-color:#FED681"/>
		<stop  offset="0.25" style="stop-color:#FEE8C2"/>
		<stop  offset="0.77" style="stop-color:#DEB863"/>
		<stop  offset="1" style="stop-color:#C6A457"/>
	</linearGradient>
	<path fill="url(#SVGID_12_)" d="M167.145,188.961h27c2.25,0,3.793,1.555,3.793,3.473c-0.043,1.777-1.57,3.473-3.469,3.473
		l-27.324-0.195c-1.5,0-3.066-1.359-3.066-3.277c0.066-1.973,1.539-3.473,3.434-3.473H167.145z"/>
	
		<linearGradient id="SVGID_13_" gradientUnits="userSpaceOnUse" x1="43.9741" y1="167.7861" x2="43.9741" y2="158.5205" gradientTransform="matrix(0.75 0 0 -0.75 148.0273 333.7969)">
		<stop  offset="0" style="stop-color:#C3A156"/>
		<stop  offset="0.15" style="stop-color:#FED681"/>
		<stop  offset="0.25" style="stop-color:#FEE8C2"/>
		<stop  offset="0.77" style="stop-color:#DEB863"/>
		<stop  offset="1" style="stop-color:#C6A457"/>
	</linearGradient>
	<path fill="url(#SVGID_13_)" d="M167.145,207.957h27c2.25,0,3.793,1.555,3.793,3.473c-0.043,1.777-1.57,3.477-3.469,3.477
		l-27.324-0.199c-1.5,0-3.066-1.359-3.066-3.277c0.066-1.973,1.539-3.473,3.434-3.473H167.145z"/>
	
		<linearGradient id="SVGID_14_" gradientUnits="userSpaceOnUse" x1="43.9741" y1="167.7861" x2="43.9741" y2="158.5205" gradientTransform="matrix(0.75 0 0 -0.75 148.0273 352.793)">
		<stop  offset="0" style="stop-color:#C3A156"/>
		<stop  offset="0.15" style="stop-color:#FED681"/>
		<stop  offset="0.25" style="stop-color:#FEE8C2"/>
		<stop  offset="0.77" style="stop-color:#DEB863"/>
		<stop  offset="1" style="stop-color:#C6A457"/>
	</linearGradient>
	<path fill="url(#SVGID_14_)" d="M167.145,226.953h27c2.25,0,3.793,1.555,3.793,3.477c-0.043,1.773-1.57,3.473-3.469,3.473
		l-27.324-0.199c-1.5,0-3.066-1.355-3.066-3.273c0.066-1.977,1.539-3.477,3.434-3.477H167.145z"/>
	
		<linearGradient id="SVGID_15_" gradientUnits="userSpaceOnUse" x1="43.9746" y1="167.7832" x2="43.9746" y2="158.5234" gradientTransform="matrix(0.75 0 0 -0.75 217.1831 257.8066)">
		<stop  offset="0" style="stop-color:#C3A156"/>
		<stop  offset="0.15" style="stop-color:#FED681"/>
		<stop  offset="0.25" style="stop-color:#FEE8C2"/>
		<stop  offset="0.77" style="stop-color:#DEB863"/>
		<stop  offset="1" style="stop-color:#C6A457"/>
	</linearGradient>
	<path fill="url(#SVGID_15_)" d="M236.301,131.969h27c2.25,0,3.793,1.555,3.793,3.473c-0.043,1.777-1.57,3.473-3.469,3.473
		l-27.324-0.195c-1.5,0-3.066-1.359-3.066-3.277c0.066-1.973,1.535-3.473,3.434-3.473H236.301z"/>
	
		<linearGradient id="SVGID_16_" gradientUnits="userSpaceOnUse" x1="43.9746" y1="167.7891" x2="43.9746" y2="158.5234" gradientTransform="matrix(0.75 0 0 -0.75 217.1831 276.1934)">
		<stop  offset="0" style="stop-color:#C3A156"/>
		<stop  offset="0.15" style="stop-color:#FED681"/>
		<stop  offset="0.25" style="stop-color:#FEE8C2"/>
		<stop  offset="0.77" style="stop-color:#DEB863"/>
		<stop  offset="1" style="stop-color:#C6A457"/>
	</linearGradient>
	<path fill="url(#SVGID_16_)" d="M236.301,150.352h27c2.25,0,3.793,1.559,3.793,3.477c-0.043,1.773-1.57,3.473-3.469,3.473
		l-27.324-0.199c-1.5,0-3.066-1.355-3.066-3.273c0.066-1.977,1.535-3.477,3.434-3.477H236.301z"/>
	
		<linearGradient id="SVGID_17_" gradientUnits="userSpaceOnUse" x1="43.9746" y1="167.7891" x2="43.9746" y2="158.5234" gradientTransform="matrix(0.75 0 0 -0.75 217.1831 296.29)">
		<stop  offset="0" style="stop-color:#C3A156"/>
		<stop  offset="0.15" style="stop-color:#FED681"/>
		<stop  offset="0.25" style="stop-color:#FEE8C2"/>
		<stop  offset="0.77" style="stop-color:#DEB863"/>
		<stop  offset="1" style="stop-color:#C6A457"/>
	</linearGradient>
	<path fill="url(#SVGID_17_)" d="M236.301,170.449h27c2.25,0,3.793,1.555,3.793,3.477c-0.043,1.773-1.57,3.473-3.469,3.473
		l-27.324-0.199c-1.5,0-3.066-1.355-3.066-3.273c0.066-1.977,1.535-3.477,3.434-3.477H236.301z"/>
	
		<linearGradient id="SVGID_18_" gradientUnits="userSpaceOnUse" x1="43.9746" y1="167.7842" x2="43.9746" y2="158.5234" gradientTransform="matrix(0.75 0 0 -0.75 217.1831 314.7988)">
		<stop  offset="0" style="stop-color:#C3A156"/>
		<stop  offset="0.15" style="stop-color:#FED681"/>
		<stop  offset="0.25" style="stop-color:#FEE8C2"/>
		<stop  offset="0.77" style="stop-color:#DEB863"/>
		<stop  offset="1" style="stop-color:#C6A457"/>
	</linearGradient>
	<path fill="url(#SVGID_18_)" d="M236.301,188.961h27c2.25,0,3.793,1.555,3.793,3.473c-0.043,1.777-1.57,3.473-3.469,3.473
		l-27.324-0.195c-1.5,0-3.066-1.359-3.066-3.277c0.066-1.973,1.535-3.473,3.434-3.473H236.301z"/>
	
		<linearGradient id="SVGID_19_" gradientUnits="userSpaceOnUse" x1="43.9746" y1="167.7861" x2="43.9746" y2="158.5205" gradientTransform="matrix(0.75 0 0 -0.75 217.1831 333.7969)">
		<stop  offset="0" style="stop-color:#C3A156"/>
		<stop  offset="0.15" style="stop-color:#FED681"/>
		<stop  offset="0.25" style="stop-color:#FEE8C2"/>
		<stop  offset="0.77" style="stop-color:#DEB863"/>
		<stop  offset="1" style="stop-color:#C6A457"/>
	</linearGradient>
	<path fill="url(#SVGID_19_)" d="M236.301,207.957h27c2.25,0,3.793,1.555,3.793,3.473c-0.043,1.777-1.57,3.477-3.469,3.477
		l-27.324-0.199c-1.5,0-3.066-1.359-3.066-3.277c0.066-1.973,1.535-3.473,3.434-3.473H236.301z"/>
	
		<linearGradient id="SVGID_20_" gradientUnits="userSpaceOnUse" x1="43.9746" y1="167.7861" x2="43.9746" y2="158.5205" gradientTransform="matrix(0.75 0 0 -0.75 217.1831 352.793)">
		<stop  offset="0" style="stop-color:#C3A156"/>
		<stop  offset="0.15" style="stop-color:#FED681"/>
		<stop  offset="0.25" style="stop-color:#FEE8C2"/>
		<stop  offset="0.77" style="stop-color:#DEB863"/>
		<stop  offset="1" style="stop-color:#C6A457"/>
	</linearGradient>
	<path fill="url(#SVGID_20_)" d="M236.301,226.953h27c2.25,0,3.793,1.555,3.793,3.477c-0.043,1.773-1.57,3.473-3.469,3.473
		l-27.324-0.199c-1.5,0-3.066-1.355-3.066-3.273c0.066-1.977,1.535-3.477,3.434-3.477H236.301z"/>
	
		<linearGradient id="SVGID_21_" gradientUnits="userSpaceOnUse" x1="65.4907" y1="145.2852" x2="21.4907" y2="145.2852" gradientTransform="matrix(0.75 0 0 -0.75 73.4053 123.5605)">
		<stop  offset="0" style="stop-color:#9B9B9C"/>
		<stop  offset="0.02" style="stop-color:#E4E4E4"/>
		<stop  offset="0.02" style="stop-color:#CBCBCB"/>
		<stop  offset="0.64" style="stop-color:#C7C7C8"/>
		<stop  offset="0.95" style="stop-color:#C3C3C4"/>
		<stop  offset="1" style="stop-color:#909091"/>
	</linearGradient>
	<path fill="url(#SVGID_21_)" d="M90.273-2.277h31.5c0,0,0.527,0.238,0.527,0.535l0.223,32.465c0,0-0.469,0.566-0.762,0.566
		l-31.488,0.184c-0.75,0-0.75-0.438-0.75-0.734V-1.527c0-0.75,0.23-0.75,0.523-0.75H90.273z"/>
	<path fill="#888889" d="M92.305-0.266h27.75c0,0,0.215,0.238,0.215,0.535l-0.215,18.215l-10.5,10.5h-17.25
		c-0.75,0-0.75,0.039-0.75-0.258V0.484c0-0.75,0.227-0.75,0.52-0.75H92.305z"/>
	<path fill="#EEEEEE" d="M92.906,0.418h26.25c0.75,0,0.641,0.227,0.641,0.516l0.109,17.484l-10.5,10.5h-16.5
		c-0.75,0-0.75-0.305-0.75-0.59V1.168c0-0.75,0.215-0.75,0.5-0.75H92.906z"/>
	
		<linearGradient id="SVGID_22_" gradientUnits="userSpaceOnUse" x1="19.7344" y1="156.6016" x2="38.124" y2="163.2948" gradientTransform="matrix(0.75 0 0 -0.75 83.7266 133.1152)">
		<stop  offset="0" style="stop-color:#000000"/>
		<stop  offset="0.15" style="stop-color:#454545"/>
		<stop  offset="0.25" style="stop-color:#B3B3B3"/>
		<stop  offset="0.44" style="stop-color:#000000"/>
		<stop  offset="0.6" style="stop-color:#000000"/>
		<stop  offset="0.8" style="stop-color:#000000"/>
		<stop  offset="0.97" style="stop-color:#000000"/>
		<stop  offset="1" style="stop-color:#000000"/>
	</linearGradient>
	<path fill="url(#SVGID_22_)" d="M99.844,7.273l10.5,12l0.75-0.75L99.844,7.273z"/>
	<path fill="none" stroke="#000000" stroke-linejoin="bevel" stroke-miterlimit="10" d="M95.344,22.293h3"/>
	<path fill="none" stroke="#000000" stroke-linejoin="bevel" stroke-miterlimit="10" d="M96.484,13.895l3,1.5"/>
	<path fill="none" stroke="#000000" stroke-linejoin="bevel" stroke-miterlimit="10" d="M105.586,4.402l1.5,2.25"/>
	<path fill="none" stroke="#000000" stroke-linejoin="bevel" stroke-miterlimit="10" d="M114.543,2.891l-0.008,3"/>
	<path fill="#FFFFFF" fill-opacity="0.8157" d="M93.543,2.031h9v3.75h-9V2.031z"/>
	<path fill="#FFDEAD" d="M109.402,18.289c3.184-3.18,7.738-2.891,10.594-0.035c0.016,0.035-10.906,10.676-10.906,10.676
		c-2.867-3.215-2.754-7.57,0.27-10.594L109.402,18.289z"/>
	<path fill="#FDE9D0" d="M109.344,18.82c3.184-3.18,7.602-3.023,10.301-0.328c-0.223-0.203-10.305,10.094-10.305,10.094
		c-2.648-2.871-2.605-7.156,0.254-10.012L109.344,18.82z"/>
	
		<linearGradient id="SVGID_23_" gradientUnits="userSpaceOnUse" x1="24.2363" y1="167.0664" x2="21.1941" y2="165.9591" gradientTransform="matrix(0.75 0 0 -0.75 89.0498 152.3135)">
		<stop  offset="0" style="stop-color:#424141"/>
		<stop  offset="0.15" style="stop-color:#6D6C6C"/>
		<stop  offset="0.25" style="stop-color:#BCBCBC"/>
		<stop  offset="0.44" style="stop-color:#4D4B4B"/>
		<stop  offset="0.6" style="stop-color:#434242"/>
		<stop  offset="0.8" style="stop-color:#383636"/>
		<stop  offset="0.97" style="stop-color:#323131"/>
		<stop  offset="1" style="stop-color:#454444"/>
	</linearGradient>
	<path fill="url(#SVGID_23_)" d="M105.168,27.223c0,0,0.414-0.75,0.934-0.75c0.566,0,0.93,0.422,0.93,0.941
		c-0.363,0.559-0.418,0.945-0.93,0.945c-0.184,0.363-0.934-0.426-0.934-0.945V27.223z"/>
	
		<linearGradient id="SVGID_24_" gradientUnits="userSpaceOnUse" x1="24.2363" y1="167.0664" x2="21.1929" y2="165.9587" gradientTransform="matrix(0.75 0 0 -0.75 101.1016 140.2031)">
		<stop  offset="0" style="stop-color:#424141"/>
		<stop  offset="0.15" style="stop-color:#6D6C6C"/>
		<stop  offset="0.25" style="stop-color:#BCBCBC"/>
		<stop  offset="0.44" style="stop-color:#4D4B4B"/>
		<stop  offset="0.6" style="stop-color:#434242"/>
		<stop  offset="0.8" style="stop-color:#383636"/>
		<stop  offset="0.97" style="stop-color:#323131"/>
		<stop  offset="1" style="stop-color:#454444"/>
	</linearGradient>
	<path fill="url(#SVGID_24_)" d="M117.219,15.113c0,0,0.418-0.75,0.934-0.75c0.566,0,0.93,0.422,0.93,0.941
		c-0.363,0.559-0.418,0.941-0.93,0.941c-0.184,0.367-0.934-0.422-0.934-0.941V15.113z"/>
	
		<linearGradient id="SVGID_25_" gradientUnits="userSpaceOnUse" x1="65.4873" y1="145.2852" x2="21.4873" y2="145.2852" gradientTransform="matrix(0.75 0 0 -0.75 117.0054 123.5605)">
		<stop  offset="0" style="stop-color:#9B9B9C"/>
		<stop  offset="0.02" style="stop-color:#E4E4E4"/>
		<stop  offset="0.02" style="stop-color:#CBCBCB"/>
		<stop  offset="0.64" style="stop-color:#C7C7C8"/>
		<stop  offset="0.95" style="stop-color:#C3C3C4"/>
		<stop  offset="1" style="stop-color:#909091"/>
	</linearGradient>
	<path fill="url(#SVGID_25_)" d="M133.871-2.277h31.5c0,0,0.531,0.238,0.531,0.535l0.219,32.465c0,0-0.465,0.566-0.762,0.566
		l-31.488,0.184c-0.75,0-0.75-0.438-0.75-0.734V-1.527c0-0.75,0.234-0.75,0.527-0.75H133.871z"/>
	<path fill="#888889" d="M135.906-0.266h27.75c0,0,0.211,0.238,0.211,0.535l-0.211,18.215l-10.5,10.5h-17.25
		c-0.75,0-0.75,0.039-0.75-0.258V0.484c0-0.75,0.227-0.75,0.52-0.75H135.906z"/>
	<path fill="#EEEEEE" d="M136.504,0.418h26.25c0.75,0,0.641,0.227,0.641,0.516l0.109,17.484l-10.5,10.5h-16.5
		c-0.75,0-0.75-0.305-0.75-0.59V1.168c0-0.75,0.219-0.75,0.504-0.75H136.504z"/>
	
		<linearGradient id="SVGID_26_" gradientUnits="userSpaceOnUse" x1="19.7358" y1="156.6025" x2="38.1235" y2="163.2951" gradientTransform="matrix(0.75 0 0 -0.75 127.3267 133.1152)">
		<stop  offset="0" style="stop-color:#000000"/>
		<stop  offset="0.15" style="stop-color:#454545"/>
		<stop  offset="0.25" style="stop-color:#B3B3B3"/>
		<stop  offset="0.44" style="stop-color:#000000"/>
		<stop  offset="0.6" style="stop-color:#000000"/>
		<stop  offset="0.8" style="stop-color:#000000"/>
		<stop  offset="0.97" style="stop-color:#000000"/>
		<stop  offset="1" style="stop-color:#000000"/>
	</linearGradient>
	<path fill="url(#SVGID_26_)" d="M143.441,7.273l10.5,12l0.75-0.75L143.441,7.273z"/>
	<path fill="none" stroke="#000000" stroke-linejoin="bevel" stroke-miterlimit="10" d="M138.945,22.293h3"/>
	<path fill="none" stroke="#000000" stroke-linejoin="bevel" stroke-miterlimit="10" d="M140.082,13.895l3,1.5"/>
	<path fill="none" stroke="#000000" stroke-linejoin="bevel" stroke-miterlimit="10" d="M149.184,4.402l1.5,2.25"/>
	<path fill="none" stroke="#000000" stroke-linejoin="bevel" stroke-miterlimit="10" d="M158.145,2.891l-0.008,3"/>
	<path fill="#FFFFFF" fill-opacity="0.8157" d="M137.145,2.031h9v3.75h-9V2.031z"/>
	<path fill="#FFDEAD" d="M153.004,18.289c3.184-3.18,7.738-2.891,10.59-0.035c0.016,0.035-10.902,10.676-10.902,10.676
		c-2.871-3.215-2.758-7.57,0.266-10.594L153.004,18.289z"/>
	<path fill="#FDE9D0" d="M152.945,18.82c3.18-3.18,7.602-3.023,10.301-0.328c-0.227-0.203-10.309,10.094-10.309,10.094
		c-2.645-2.871-2.602-7.156,0.254-10.012L152.945,18.82z"/>
	
		<linearGradient id="SVGID_27_" gradientUnits="userSpaceOnUse" x1="24.2368" y1="167.0693" x2="21.1934" y2="165.9616" gradientTransform="matrix(0.75 0 0 -0.75 132.6499 152.3135)">
		<stop  offset="0" style="stop-color:#424141"/>
		<stop  offset="0.15" style="stop-color:#6D6C6C"/>
		<stop  offset="0.25" style="stop-color:#BCBCBC"/>
		<stop  offset="0.44" style="stop-color:#4D4B4B"/>
		<stop  offset="0.6" style="stop-color:#434242"/>
		<stop  offset="0.8" style="stop-color:#383636"/>
		<stop  offset="0.97" style="stop-color:#323131"/>
		<stop  offset="1" style="stop-color:#454444"/>
	</linearGradient>
	<path fill="url(#SVGID_27_)" d="M148.766,27.223c0,0,0.418-0.75,0.934-0.75c0.566,0,0.934,0.422,0.934,0.941
		c-0.367,0.559-0.418,0.941-0.934,0.941c-0.184,0.367-0.934-0.422-0.934-0.941V27.223z"/>
	
		<linearGradient id="SVGID_28_" gradientUnits="userSpaceOnUse" x1="24.2363" y1="167.0684" x2="21.1929" y2="165.9606" gradientTransform="matrix(0.75 0 0 -0.75 144.7012 140.2031)">
		<stop  offset="0" style="stop-color:#424141"/>
		<stop  offset="0.15" style="stop-color:#6D6C6C"/>
		<stop  offset="0.25" style="stop-color:#BCBCBC"/>
		<stop  offset="0.44" style="stop-color:#4D4B4B"/>
		<stop  offset="0.6" style="stop-color:#434242"/>
		<stop  offset="0.8" style="stop-color:#383636"/>
		<stop  offset="0.97" style="stop-color:#323131"/>
		<stop  offset="1" style="stop-color:#454444"/>
	</linearGradient>
	<path fill="url(#SVGID_28_)" d="M160.816,15.113c0,0,0.418-0.75,0.934-0.75c0.566,0,0.934,0.422,0.934,0.941
		c-0.367,0.559-0.418,0.941-0.934,0.941c-0.184,0.367-0.934-0.422-0.934-0.941V15.113z"/>
	
		<linearGradient id="SVGID_29_" gradientUnits="userSpaceOnUse" x1="65.4897" y1="145.2852" x2="21.4897" y2="145.2852" gradientTransform="matrix(0.75 0 0 -0.75 160.6055 123.5605)">
		<stop  offset="0" style="stop-color:#9B9B9C"/>
		<stop  offset="0.02" style="stop-color:#E4E4E4"/>
		<stop  offset="0.02" style="stop-color:#CBCBCB"/>
		<stop  offset="0.64" style="stop-color:#C7C7C8"/>
		<stop  offset="0.95" style="stop-color:#C3C3C4"/>
		<stop  offset="1" style="stop-color:#909091"/>
	</linearGradient>
	<path fill="url(#SVGID_29_)" d="M177.473-2.277h31.5c0,0,0.527,0.238,0.527,0.535l0.223,32.465c0,0-0.469,0.566-0.762,0.566
		l-31.488,0.184c-0.75,0-0.75-0.438-0.75-0.734V-1.527c0-0.75,0.23-0.75,0.527-0.75H177.473z"/>
	<path fill="#888889" d="M179.504-0.266h27.75c0,0,0.215,0.238,0.215,0.535l-0.215,18.215l-10.5,10.5h-17.25
		c-0.75,0-0.75,0.039-0.75-0.258V0.484c0-0.75,0.227-0.75,0.523-0.75H179.504z"/>
	<path fill="#EEEEEE" d="M180.105,0.418h26.25c0.75,0,0.641,0.227,0.641,0.516l0.109,17.484l-10.5,10.5h-16.5
		c-0.75,0-0.75-0.305-0.75-0.59V1.168c0-0.75,0.219-0.75,0.5-0.75H180.105z"/>
	
		<linearGradient id="SVGID_30_" gradientUnits="userSpaceOnUse" x1="19.7363" y1="156.6016" x2="38.124" y2="163.2941" gradientTransform="matrix(0.75 0 0 -0.75 170.9268 133.1152)">
		<stop  offset="0" style="stop-color:#000000"/>
		<stop  offset="0.15" style="stop-color:#454545"/>
		<stop  offset="0.25" style="stop-color:#B3B3B3"/>
		<stop  offset="0.44" style="stop-color:#000000"/>
		<stop  offset="0.6" style="stop-color:#000000"/>
		<stop  offset="0.8" style="stop-color:#000000"/>
		<stop  offset="0.97" style="stop-color:#000000"/>
		<stop  offset="1" style="stop-color:#000000"/>
	</linearGradient>
	<path fill="url(#SVGID_30_)" d="M187.043,7.273l10.5,12l0.75-0.75L187.043,7.273z"/>
	<path fill="none" stroke="#000000" stroke-linejoin="bevel" stroke-miterlimit="10" d="M182.547,22.293h3"/>
	<path fill="none" stroke="#000000" stroke-linejoin="bevel" stroke-miterlimit="10" d="M183.684,13.895l3,1.5"/>
	<path fill="none" stroke="#000000" stroke-linejoin="bevel" stroke-miterlimit="10" d="M192.785,4.402l1.5,2.25"/>
	<path fill="none" stroke="#000000" stroke-linejoin="bevel" stroke-miterlimit="10" d="M201.742,2.891l-0.008,3"/>
	<path fill="#FFFFFF" fill-opacity="0.8157" d="M180.742,2.031h9v3.75h-9V2.031z"/>
	<path fill="#FFDEAD" d="M196.605,18.289c3.18-3.18,7.734-2.891,10.59-0.035c0.016,0.035-10.906,10.676-10.906,10.676
		c-2.867-3.215-2.754-7.57,0.27-10.594L196.605,18.289z"/>
	<path fill="#FDE9D0" d="M196.543,18.82c3.184-3.18,7.605-3.023,10.301-0.328c-0.223-0.203-10.305,10.094-10.305,10.094
		c-2.648-2.871-2.605-7.156,0.254-10.012L196.543,18.82z"/>
	
		<linearGradient id="SVGID_31_" gradientUnits="userSpaceOnUse" x1="24.2373" y1="167.0684" x2="21.1939" y2="165.9606" gradientTransform="matrix(0.75 0 0 -0.75 176.25 152.3135)">
		<stop  offset="0" style="stop-color:#424141"/>
		<stop  offset="0.15" style="stop-color:#6D6C6C"/>
		<stop  offset="0.25" style="stop-color:#BCBCBC"/>
		<stop  offset="0.44" style="stop-color:#4D4B4B"/>
		<stop  offset="0.6" style="stop-color:#434242"/>
		<stop  offset="0.8" style="stop-color:#383636"/>
		<stop  offset="0.97" style="stop-color:#323131"/>
		<stop  offset="1" style="stop-color:#454444"/>
	</linearGradient>
	<path fill="url(#SVGID_31_)" d="M192.367,27.223c0,0,0.418-0.75,0.934-0.75c0.566,0,0.93,0.422,0.93,0.941
		c-0.363,0.559-0.418,0.941-0.93,0.941c-0.184,0.367-0.934-0.422-0.934-0.941V27.223z"/>
	
		<linearGradient id="SVGID_32_" gradientUnits="userSpaceOnUse" x1="24.2363" y1="167.0684" x2="21.1917" y2="165.9602" gradientTransform="matrix(0.75 0 0 -0.75 188.3013 140.2031)">
		<stop  offset="0" style="stop-color:#424141"/>
		<stop  offset="0.15" style="stop-color:#6D6C6C"/>
		<stop  offset="0.25" style="stop-color:#BCBCBC"/>
		<stop  offset="0.44" style="stop-color:#4D4B4B"/>
		<stop  offset="0.6" style="stop-color:#434242"/>
		<stop  offset="0.8" style="stop-color:#383636"/>
		<stop  offset="0.97" style="stop-color:#323131"/>
		<stop  offset="1" style="stop-color:#454444"/>
	</linearGradient>
	<path fill="url(#SVGID_32_)" d="M204.418,15.113c0,0,0.418-0.75,0.934-0.75c0.566,0,0.93,0.422,0.93,0.941
		c-0.363,0.559-0.414,0.941-0.93,0.941c-0.184,0.367-0.934-0.422-0.934-0.941V15.113z"/>
	
		<radialGradient id="SVGID_33_" cx="36.998" cy="152.1104" r="22.0505" gradientTransform="matrix(0.75 0 0 -0.75 234.144 140.2813)" gradientUnits="userSpaceOnUse">
		<stop  offset="0" style="stop-color:#76A2C9"/>
		<stop  offset="0.54" style="stop-color:#7EADD6"/>
		<stop  offset="0.74" style="stop-color:#B4CEEA"/>
		<stop  offset="0.91" style="stop-color:#76A2C9"/>
		<stop  offset="1" style="stop-color:#7EADD6"/>
	</radialGradient>
	<path fill="url(#SVGID_33_)" stroke="#5F89B9" stroke-width="0.25" stroke-linejoin="bevel" stroke-miterlimit="10" d="
		M250.262,26.441c0-6.75,5.207-12,11.629-12c6.371,0,11.633,5.266,11.633,11.758c-0.012,6.242-5.207,11.758-11.633,11.758
		c-6.379-0.266-11.629-5.262-11.629-11.758V26.441z"/>
	<path fill="#C6D5E8" stroke="#384E64" stroke-linejoin="bevel" stroke-miterlimit="10" d="M252.363,26.305
		c0-5.25,4.266-9.75,9.527-9.75c5.473,0,9.531,4.32,9.531,9.645c-0.309,5.355-4.266,9.645-9.531,9.645
		c-5.027,0.211-9.527-4.316-9.527-9.645V26.305z"/>
	<path fill="#E35020" d="M258.688,30.391c0,0,6.754-11.762,7.371-11.402c0.68,0.461-6.07,12.152-6.07,12.152L258.688,30.391z"/>
	<path fill="#4B6884" d="M260.367,26.156c0-0.75,0.684-1.5,1.523-1.5c0.727,0,1.527,0.691,1.527,1.543
		c-0.051,0.707-0.684,1.543-1.527,1.543c-0.773-0.086-1.523-0.691-1.523-1.543V26.156z"/>
	<path fill="none" stroke="#000000" stroke-linejoin="bevel" stroke-miterlimit="10" d="M261.645,18.129l-0.008,2.25"/>
	<path fill="none" stroke="#000000" stroke-linejoin="bevel" stroke-miterlimit="10" d="M254.422,25.926l2.25,0.008"/>
	<path fill="none" stroke="#000000" stroke-linejoin="bevel" stroke-miterlimit="10" d="M267.715,25.926l2.25,0.008"/>
	<path fill="none" stroke="#000000" stroke-linejoin="bevel" stroke-miterlimit="10" d="M256.59,20.563l1.586,1.594"/>
	<path fill="none" stroke="#000000" stroke-linejoin="bevel" stroke-miterlimit="10" d="M267.211,20.563l-1.586,1.594"/>
	<path fill="none" stroke="#3F77A8" stroke-linejoin="bevel" stroke-miterlimit="10" d="M258.328,31.848h7.5
		c0,0,0.645,0.355,0.645,0.82c0.105,0.68-0.375,0.988-0.836,0.988l-7.309-0.309c-0.75,0-0.777-0.07-0.777-0.539
		c0.027-0.961,0.375-0.984,0.836-0.984L258.328,31.848z"/>
	<path fill="#FFFFFF" fill-opacity="0.3804" d="M263.672,26.305c0-5.25-7.063-9.75-1.797-9.75c5.547,0,9.531,4.316,9.531,9.645
		c-0.234,5.355-4.27,9.645-9.531,9.645c-4.953,0.211,1.672-4.18,1.672-9.504L263.672,26.305z"/>
	
		<radialGradient id="SVGID_34_" cx="36.998" cy="152.1104" r="22.0505" gradientTransform="matrix(0.75 0 0 -0.75 199.3862 140.2813)" gradientUnits="userSpaceOnUse">
		<stop  offset="0" style="stop-color:#76A2C9"/>
		<stop  offset="0.54" style="stop-color:#7EADD6"/>
		<stop  offset="0.74" style="stop-color:#B4CEEA"/>
		<stop  offset="0.91" style="stop-color:#76A2C9"/>
		<stop  offset="1" style="stop-color:#7EADD6"/>
	</radialGradient>
	<path fill="url(#SVGID_34_)" stroke="#5F89B9" stroke-width="0.25" stroke-linejoin="bevel" stroke-miterlimit="10" d="
		M215.504,26.441c0-6.75,5.207-12,11.629-12c6.371,0,11.633,5.266,11.633,11.758c-0.012,6.242-5.207,11.758-11.633,11.758
		c-6.379-0.266-11.629-5.266-11.629-11.758V26.441z"/>
	<path fill="#C6D5E8" stroke="#384E64" stroke-linejoin="bevel" stroke-miterlimit="10" d="M217.602,26.305
		c0-5.25,4.27-9.75,9.531-9.75c5.469,0,9.531,4.32,9.531,9.645c-0.313,5.355-4.266,9.645-9.531,9.645
		c-5.031,0.211-9.531-4.32-9.531-9.645V26.305z"/>
	<path fill="#E35020" d="M223.93,30.391c0,0,6.754-11.762,7.371-11.402c0.68,0.461-6.07,12.152-6.07,12.152L223.93,30.391z"/>
	<path fill="#4B6884" d="M225.609,26.156c0-0.75,0.684-1.5,1.523-1.5c0.727,0,1.527,0.691,1.527,1.543
		c-0.051,0.707-0.684,1.543-1.527,1.543c-0.773-0.086-1.523-0.691-1.523-1.543V26.156z"/>
	<path fill="none" stroke="#000000" stroke-linejoin="bevel" stroke-miterlimit="10" d="M226.887,18.129l-0.008,2.25"/>
	<path fill="none" stroke="#000000" stroke-linejoin="bevel" stroke-miterlimit="10" d="M219.664,25.926l2.25,0.008"/>
	<path fill="none" stroke="#000000" stroke-linejoin="bevel" stroke-miterlimit="10" d="M232.957,25.926l2.25,0.008"/>
	<path fill="none" stroke="#000000" stroke-linejoin="bevel" stroke-miterlimit="10" d="M221.832,20.563l1.586,1.594"/>
	<path fill="none" stroke="#000000" stroke-linejoin="bevel" stroke-miterlimit="10" d="M232.453,20.563l-1.586,1.594"/>
	<path fill="none" stroke="#3F77A8" stroke-linejoin="bevel" stroke-miterlimit="10" d="M223.57,31.848h7.5
		c0,0,0.645,0.355,0.645,0.82c0.105,0.68-0.375,0.988-0.836,0.988l-7.309-0.309c-0.75,0-0.777-0.07-0.777-0.539
		c0.027-0.961,0.375-0.984,0.836-0.984L223.57,31.848z"/>
	<path fill="#FFFFFF" fill-opacity="0.3804" d="M228.914,26.305c0-5.25-7.063-9.75-1.797-9.75c5.547,0,9.527,4.316,9.527,9.645
		c-0.23,5.355-4.266,9.645-9.527,9.645c-4.953,0.211,1.672-4.18,1.672-9.504L228.914,26.305z"/>
	<path fill="#7D040F" stroke="#000000" stroke-width="0.25" stroke-linejoin="bevel" stroke-miterlimit="10" d="M174.949,40.691
		c3,0,5.266,2.508,5.266,5.629c-0.016,3.371-2.504,5.633-5.598,5.633c-3.418-0.012-5.582-2.531-5.582-5.633
		c-0.086-3.379,2.508-5.645,5.582-5.645L174.949,40.691z"/>
	
		<linearGradient id="SVGID_35_" gradientUnits="userSpaceOnUse" x1="-64.3877" y1="725.3047" x2="-56.0459" y2="710.8563" gradientTransform="matrix(0 0.75 0.75 0 -363.9087 91.5308)">
		<stop  offset="0" style="stop-color:#9F5153"/>
		<stop  offset="1" style="stop-color:#7B030D"/>
	</linearGradient>
	<path fill="url(#SVGID_35_)" stroke="#FFFFFF" stroke-width="0.25" stroke-linejoin="bevel" stroke-miterlimit="10" d="
		M174.676,41.723c2.25,0,4.512,2.047,4.512,4.598c-0.012,2.902-2.043,4.602-4.57,4.602c-2.191-0.199-4.563-2.066-4.563-4.602
		c0.121-2.348,2.051-4.609,4.563-4.609L174.676,41.723z"/>
	<path fill="#276F71" stroke="#000000" stroke-width="0.25" stroke-linejoin="bevel" stroke-miterlimit="10" d="M148.371,40.691
		c3,0,5.266,2.508,5.266,5.629c-0.016,3.371-2.504,5.633-5.598,5.633c-3.418-0.012-5.582-2.531-5.582-5.633
		c-0.086-3.379,2.508-5.645,5.582-5.645L148.371,40.691z"/>
	
		<linearGradient id="SVGID_36_" gradientUnits="userSpaceOnUse" x1="-64.3877" y1="725.3057" x2="-56.0453" y2="710.8561" gradientTransform="matrix(0 0.75 0.75 0 -390.4868 91.5308)">
		<stop  offset="0" style="stop-color:#91CFD1"/>
		<stop  offset="1" style="stop-color:#49AEB1"/>
	</linearGradient>
	<path fill="url(#SVGID_36_)" stroke="#FFFFFF" stroke-width="0.25" stroke-linejoin="bevel" stroke-miterlimit="10" d="
		M148.098,41.723c2.25,0,4.512,2.047,4.512,4.598c-0.012,2.902-2.043,4.602-4.57,4.602c-2.191-0.199-4.563-2.066-4.563-4.602
		c0.121-2.348,2.051-4.609,4.563-4.609L148.098,41.723z"/>
	<path fill="#7D040F" stroke="#000000" stroke-width="0.25" stroke-linejoin="bevel" stroke-miterlimit="10" d="M121.797,40.691
		c3,0,5.262,2.508,5.262,5.629c-0.012,3.371-2.5,5.633-5.594,5.633c-3.418-0.012-5.586-2.531-5.586-5.633
		c-0.082-3.379,2.512-5.645,5.586-5.645L121.797,40.691z"/>
	
		<linearGradient id="SVGID_37_" gradientUnits="userSpaceOnUse" x1="-64.3877" y1="725.3047" x2="-56.0453" y2="710.8552" gradientTransform="matrix(0 0.75 0.75 0 -417.0615 91.5308)">
		<stop  offset="0" style="stop-color:#9F5153"/>
		<stop  offset="1" style="stop-color:#7B030D"/>
	</linearGradient>
	<path fill="url(#SVGID_37_)" stroke="#FFFFFF" stroke-width="0.25" stroke-linejoin="bevel" stroke-miterlimit="10" d="
		M121.523,41.723c2.25,0,4.512,2.047,4.512,4.598c-0.012,2.902-2.043,4.602-4.57,4.602c-2.191-0.199-4.563-2.066-4.563-4.602
		c0.121-2.348,2.051-4.609,4.563-4.609L121.523,41.723z"/>
	<path fill="#FFFFFF" fill-opacity="0.1373" d="M84.313-6.934h189.75c2.25,0,3.875,1.5,3.875,3.418l-0.125,56.582
		c0,2.25-1.492,3.656-3.387,3.656L84.313,56.816c-1.5,0-3-1.648-3-3.566V-3.184c0-2.25,1.457-3.75,3.355-3.75H84.313z"/>
</g>
</svg>
