<?xml version="1.0" encoding="utf-8"?>
<!-- Generator: Adobe Illustrator 25.0.0, SVG Export Plug-In . SVG Version: 6.00 Build 0)  -->
<svg version="1.1" id="图层_1" xmlns="http://www.w3.org/2000/svg" xmlns:xlink="http://www.w3.org/1999/xlink" x="0px" y="0px"
	 viewBox="0 0 143 74" style="enable-background:new 0 0 143 74;" xml:space="preserve">
<style type="text/css">
	.st0{fill:url(#SVGID_1_);}
	.st1{fill:url(#SVGID_2_);}
	.st2{fill:url(#SVGID_3_);}
	.st3{fill:url(#SVGID_4_);}
	.st4{fill:url(#SVGID_5_);}
	.st5{fill:url(#SVGID_6_);}
	.st6{fill:url(#SVGID_7_);}
	.st7{fill:url(#SVGID_8_);}
	.st8{fill:url(#SVGID_9_);}
	.st9{fill:url(#SVGID_10_);}
	.st10{fill:url(#SVGID_11_);}
	.st11{fill:url(#SVGID_12_);}
	.st12{fill:url(#SVGID_13_);}
	.st13{fill:url(#SVGID_14_);}
	.st14{fill:url(#SVGID_15_);}
	.st15{fill:url(#SVGID_16_);}
	.st16{fill:url(#SVGID_17_);}
	.st17{fill:url(#SVGID_18_);}
	.st18{fill:url(#SVGID_19_);}
	.st19{fill:url(#SVGID_20_);}
	.st20{fill:url(#SVGID_21_);}
	.st21{fill:url(#SVGID_22_);}
	.st22{fill:url(#SVGID_23_);}
	.st23{fill:url(#SVGID_24_);}
	.st24{fill:url(#SVGID_25_);}
	.st25{fill:url(#SVGID_26_);}
	.st26{fill:url(#SVGID_27_);}
	.st27{fill:url(#SVGID_28_);}
	.st28{fill:url(#SVGID_29_);}
	.st29{fill:url(#SVGID_30_);}
	.st30{fill:url(#SVGID_31_);}
	.st31{fill:url(#SVGID_32_);}
	.st32{fill:url(#SVGID_33_);}
	.st33{fill:url(#SVGID_34_);}
	.st34{fill:url(#SVGID_35_);}
	.st35{fill:url(#SVGID_36_);}
	.st36{fill:url(#SVGID_37_);}
	.st37{fill:url(#SVGID_38_);}
	.st38{fill:url(#SVGID_39_);}
	.st39{fill:url(#SVGID_40_);}
	.st40{fill:url(#SVGID_41_);}
	.st41{fill:url(#SVGID_42_);}
	.st42{fill:url(#SVGID_43_);}
</style>
<linearGradient id="SVGID_1_" gradientUnits="userSpaceOnUse" x1="346.1715" y1="209.8947" x2="346.1715" y2="252.8947" gradientTransform="matrix(0.75 0 0 -0.75 -195.2332 227.5867)">
	<stop  offset="0" style="stop-color:#2C5274"/>
	<stop  offset="9.000000e-02" style="stop-color:#879FBC"/>
	<stop  offset="0.16" style="stop-color:#3C6D98"/>
	<stop  offset="0.64" style="stop-color:#3B6B95"/>
	<stop  offset="0.92" style="stop-color:#396992"/>
	<stop  offset="1" style="stop-color:#284C6B"/>
</linearGradient>
<path class="st0" d="M118.8,70.2H10V37.9h108.7V70.2z"/>
<linearGradient id="SVGID_2_" gradientUnits="userSpaceOnUse" x1="307.6678" y1="1049.3733" x2="307.6678" y2="1084.3733" gradientTransform="matrix(0.75 0 0 0.75 -130.9534 -775.5203)">
	<stop  offset="0" style="stop-color:#3A6890"/>
	<stop  offset="9.000000e-02" style="stop-color:#8FB1D7"/>
	<stop  offset="0.16" style="stop-color:#4E89BC"/>
	<stop  offset="0.64" style="stop-color:#4C87B9"/>
	<stop  offset="0.92" style="stop-color:#4A83B4"/>
	<stop  offset="1" style="stop-color:#356085"/>
</linearGradient>
<path class="st1" d="M125.3,11.5h-27V13h-3.8v-1.5h-5.2v3.8h-6.8v-3.8h-8.2v26.2h51V11.5z"/>
<linearGradient id="SVGID_3_" gradientUnits="userSpaceOnUse" x1="308.1696" y1="1049.3716" x2="308.1696" y2="1105.3716" gradientTransform="matrix(0.75 0 0 0.75 -193.5017 -786.824)">
	<stop  offset="0" style="stop-color:#4C4C4C"/>
	<stop  offset="0.2547" style="stop-color:#4EE572"/>
	<stop  offset="1" style="stop-color:#444444"/>
</linearGradient>
<path class="st2" d="M11.8,0.2h51.8v42H11.8C11.8,42.2,11.8,0.2,11.8,0.2z"/>
<linearGradient id="SVGID_4_" gradientUnits="userSpaceOnUse" x1="304.6444" y1="1049.3633" x2="304.6444" y2="1051.3708" gradientTransform="matrix(0.75 0 0 0.75 -190.7029 -783.6218)">
	<stop  offset="0" style="stop-color:#4C4C4C"/>
	<stop  offset="0.2547" style="stop-color:#4EE572"/>
	<stop  offset="1" style="stop-color:#444444"/>
</linearGradient>
<path class="st3" d="M15.3,3.4h45c0.8,0,0.7,0.2,0.7,0.5c0,0.2-0.2,0.7-0.5,0.7L15.3,4.9c-0.8,0-0.8-0.5-0.8-0.8
	c0-0.7,0.2-0.7,0.5-0.7L15.3,3.4z"/>
<linearGradient id="SVGID_5_" gradientUnits="userSpaceOnUse" x1="304.6444" y1="1049.3608" x2="304.6444" y2="1051.3702" gradientTransform="matrix(0.75 0 0 0.75 -190.7029 -779.281)">
	<stop  offset="0" style="stop-color:#4C4C4C"/>
	<stop  offset="0.2547" style="stop-color:#4EE572"/>
	<stop  offset="1" style="stop-color:#444444"/>
</linearGradient>
<path class="st4" d="M15.3,7.7h45C61.1,7.7,61,8,61,8.3c0,0.2-0.2,0.7-0.5,0.7L15.3,9.2c-0.8,0-0.8-0.5-0.8-0.8
	c0-0.7,0.2-0.7,0.5-0.7L15.3,7.7z"/>
<linearGradient id="SVGID_6_" gradientUnits="userSpaceOnUse" x1="304.6444" y1="1049.3624" x2="304.6444" y2="1051.3718" gradientTransform="matrix(0.75 0 0 0.75 -190.7029 -774.9412)">
	<stop  offset="0" style="stop-color:#4C4C4C"/>
	<stop  offset="0.2547" style="stop-color:#4EE572"/>
	<stop  offset="1" style="stop-color:#444444"/>
</linearGradient>
<path class="st5" d="M15.3,12.1h45c0.8,0,0.7,0.2,0.7,0.5c0,0.2-0.2,0.7-0.5,0.7l-45.2,0.2c-0.8,0-0.8-0.5-0.8-0.8
	c0-0.7,0.2-0.7,0.5-0.7L15.3,12.1z"/>
<linearGradient id="SVGID_7_" gradientUnits="userSpaceOnUse" x1="304.6444" y1="1049.364" x2="304.6444" y2="1051.3694" gradientTransform="matrix(0.75 0 0 0.75 -190.7029 -770.5994)">
	<stop  offset="0" style="stop-color:#4C4C4C"/>
	<stop  offset="0.2547" style="stop-color:#4EE572"/>
	<stop  offset="1" style="stop-color:#444444"/>
</linearGradient>
<path class="st6" d="M15.3,16.4h45c0.8,0,0.7,0.2,0.7,0.5c0,0.2-0.2,0.7-0.5,0.7l-45.2,0.2c-0.8,0-0.8-0.5-0.8-0.8
	c0-0.7,0.2-0.7,0.5-0.7L15.3,16.4z"/>
<linearGradient id="SVGID_8_" gradientUnits="userSpaceOnUse" x1="304.6444" y1="1049.3611" x2="304.6444" y2="1051.3705" gradientTransform="matrix(0.75 0 0 0.75 -190.7029 -766.6052)">
	<stop  offset="0" style="stop-color:#4C4C4C"/>
	<stop  offset="0.2547" style="stop-color:#4EE572"/>
	<stop  offset="1" style="stop-color:#444444"/>
</linearGradient>
<path class="st7" d="M15.3,20.4h45c0.8,0,0.7,0.2,0.7,0.5c0,0.2-0.2,0.7-0.5,0.7l-45.2,0.2c-0.8,0-0.8-0.5-0.8-0.8
	c0-0.7,0.2-0.7,0.5-0.7L15.3,20.4z"/>
<linearGradient id="SVGID_9_" gradientUnits="userSpaceOnUse" x1="304.6444" y1="1049.3627" x2="304.6444" y2="1051.3719" gradientTransform="matrix(0.75 0 0 0.75 -190.7029 -762.3513)">
	<stop  offset="0" style="stop-color:#4C4C4C"/>
	<stop  offset="0.2547" style="stop-color:#4EE572"/>
	<stop  offset="1" style="stop-color:#444444"/>
</linearGradient>
<path class="st8" d="M15.3,24.7h45c0.8,0,0.7,0.2,0.7,0.5c0,0.2-0.2,0.7-0.5,0.7l-45.2,0.2c-0.8,0-0.8-0.5-0.8-0.8
	c0-0.7,0.2-0.7,0.5-0.7L15.3,24.7z"/>
<linearGradient id="SVGID_10_" gradientUnits="userSpaceOnUse" x1="304.6444" y1="1049.3615" x2="304.6444" y2="1051.3707" gradientTransform="matrix(0.75 0 0 0.75 -190.7029 -758.0964)">
	<stop  offset="0" style="stop-color:#4C4C4C"/>
	<stop  offset="0.2547" style="stop-color:#4EE572"/>
	<stop  offset="1" style="stop-color:#444444"/>
</linearGradient>
<path class="st9" d="M15.3,28.9h45c0.8,0,0.7,0.2,0.7,0.5c0,0.2-0.2,0.7-0.5,0.7l-45.2,0.2c-0.8,0-0.8-0.5-0.8-0.8
	c0-0.7,0.2-0.7,0.5-0.7L15.3,28.9z"/>
<linearGradient id="SVGID_11_" gradientUnits="userSpaceOnUse" x1="304.6444" y1="1049.3656" x2="304.6444" y2="1051.3708" gradientTransform="matrix(0.75 0 0 0.75 -190.7029 -753.8425)">
	<stop  offset="0" style="stop-color:#4C4C4C"/>
	<stop  offset="0.2547" style="stop-color:#4EE572"/>
	<stop  offset="1" style="stop-color:#444444"/>
</linearGradient>
<path class="st10" d="M15.3,33.2h45c0.8,0,0.7,0.2,0.7,0.5c0,0.2-0.2,0.7-0.5,0.7l-45.2,0.2c-0.8,0-0.8-0.5-0.8-0.8
	c0-0.7,0.2-0.7,0.5-0.7L15.3,33.2z"/>
<linearGradient id="SVGID_12_" gradientUnits="userSpaceOnUse" x1="304.6444" y1="1049.363" x2="304.6444" y2="1051.3684" gradientTransform="matrix(0.75 0 0 0.75 -190.7029 -749.5876)">
	<stop  offset="0" style="stop-color:#4C4C4C"/>
	<stop  offset="0.2547" style="stop-color:#4EE572"/>
	<stop  offset="1" style="stop-color:#444444"/>
</linearGradient>
<path class="st11" d="M15.3,37.4h45c0.8,0,0.7,0.2,0.7,0.5c0,0.2-0.2,0.7-0.5,0.7l-45.2,0.2c-0.8,0-0.8-0.5-0.8-0.8
	c0-0.7,0.2-0.7,0.5-0.7L15.3,37.4z"/>
<linearGradient id="SVGID_13_" gradientUnits="userSpaceOnUse" x1="282.6481" y1="1049.3214" x2="282.6481" y2="1105.3696" gradientTransform="matrix(0.75 0 0 0.75 -143.321 -786.8806)">
	<stop  offset="0" style="stop-color:#4C4C4C"/>
	<stop  offset="0.2547" style="stop-color:#4EE572"/>
	<stop  offset="1" style="stop-color:#444444"/>
</linearGradient>
<path class="st12" d="M61.9,0.1h9.8c0,0,3.6-1.8,3.7,20.9c0,22.6-3.4,20.8-3.4,20.8l-10.1,0.3C61.9,42.1,61.9,0.1,61.9,0.1z"/>
<linearGradient id="SVGID_14_" gradientUnits="userSpaceOnUse" x1="280.1688" y1="1049.3696" x2="280.1688" y2="1105.3696" gradientTransform="matrix(0.75 0 0 0.75 -143.3831 -786.8806)">
	<stop  offset="0" style="stop-color:#4C4C4C"/>
	<stop  offset="0.2547" style="stop-color:#4EE572"/>
	<stop  offset="1" style="stop-color:#444444"/>
</linearGradient>
<path class="st13" d="M61.9,0.1h9.7v42h-9.7V0.1z"/>
<linearGradient id="SVGID_15_" gradientUnits="userSpaceOnUse" x1="274.1685" y1="1049.3693" x2="274.1685" y2="1105.3693" gradientTransform="matrix(0.75 0 0 0.75 -141.4929 -786.8533)">
	<stop  offset="0" style="stop-color:#4C574F"/>
	<stop  offset="0.15" style="stop-color:#4D905D"/>
	<stop  offset="0.25" style="stop-color:#FFFFFF"/>
	<stop  offset="0.52" style="stop-color:#488557"/>
	<stop  offset="0.69" style="stop-color:#477151"/>
	<stop  offset="0.8" style="stop-color:#477251"/>
	<stop  offset="0.92" style="stop-color:#46634D"/>
	<stop  offset="1" style="stop-color:#444845"/>
</linearGradient>
<path class="st14" d="M63.8,0.2h0.8v42h-0.8V0.2z"/>
<linearGradient id="SVGID_16_" gradientUnits="userSpaceOnUse" x1="-319.9621" y1="1049.3223" x2="-319.9621" y2="1105.3718" gradientTransform="matrix(-0.75 0 0 0.75 -232.5837 -786.8542)">
	<stop  offset="0" style="stop-color:#4C4C4C"/>
	<stop  offset="0.2547" style="stop-color:#4EE572"/>
	<stop  offset="1" style="stop-color:#444444"/>
</linearGradient>
<path class="st15" d="M14.1,0.2H4.4c0,0-3.6-1.8-3.7,20.9c0,22.6,3.4,20.8,3.4,20.8l10.1,0.3V0.2z"/>
<linearGradient id="SVGID_17_" gradientUnits="userSpaceOnUse" x1="-322.4397" y1="1049.3705" x2="-322.4397" y2="1105.3705" gradientTransform="matrix(-0.75 0 0 0.75 -232.5203 -786.8542)">
	<stop  offset="0" style="stop-color:#4C4C4C"/>
	<stop  offset="0.2547" style="stop-color:#4EE572"/>
	<stop  offset="1" style="stop-color:#444444"/>
</linearGradient>
<path class="st16" d="M14.2,0.2H4.4v42h9.8V0.2z"/>
<linearGradient id="SVGID_18_" gradientUnits="userSpaceOnUse" x1="-328.4363" y1="1049.3716" x2="-328.4363" y2="1105.3716" gradientTransform="matrix(-0.75 0 0 0.75 -234.4128 -786.824)">
	<stop  offset="0" style="stop-color:#4C574F"/>
	<stop  offset="0.15" style="stop-color:#4D905D"/>
	<stop  offset="0.25" style="stop-color:#FFFFFF"/>
	<stop  offset="0.52" style="stop-color:#488557"/>
	<stop  offset="0.69" style="stop-color:#477151"/>
	<stop  offset="0.8" style="stop-color:#477251"/>
	<stop  offset="0.92" style="stop-color:#46634D"/>
	<stop  offset="1" style="stop-color:#444845"/>
</linearGradient>
<path class="st17" d="M12.3,0.2h-0.8v42h0.8V0.2z"/>
<linearGradient id="SVGID_19_" gradientUnits="userSpaceOnUse" x1="364.6703" y1="1049.37" x2="364.6703" y2="1062.37" gradientTransform="matrix(0.75 0 0 0.75 -202.0603 -722.4128)">
	<stop  offset="0" style="stop-color:#3A6890"/>
	<stop  offset="9.000000e-02" style="stop-color:#8FB1D7"/>
	<stop  offset="0.16" style="stop-color:#4E89BC"/>
	<stop  offset="0.64" style="stop-color:#4C87B9"/>
	<stop  offset="0.92" style="stop-color:#4A83B4"/>
	<stop  offset="1" style="stop-color:#356085"/>
</linearGradient>
<path class="st18" d="M139.7,64.6H3.2v9.8h136.5V64.6z"/>
<linearGradient id="SVGID_20_" gradientUnits="userSpaceOnUse" x1="274.171" y1="1049.3693" x2="274.171" y2="1105.3693" gradientTransform="matrix(0.75 0 0 0.75 -134.1038 -786.8533)">
	<stop  offset="0" style="stop-color:#4C574F"/>
	<stop  offset="0.15" style="stop-color:#4D905D"/>
	<stop  offset="0.25" style="stop-color:#FFFFFF"/>
	<stop  offset="0.52" style="stop-color:#488557"/>
	<stop  offset="0.69" style="stop-color:#477151"/>
	<stop  offset="0.8" style="stop-color:#477251"/>
	<stop  offset="0.92" style="stop-color:#46634D"/>
	<stop  offset="1" style="stop-color:#444845"/>
</linearGradient>
<path class="st19" d="M71.1,0.2h0.8v42h-0.8V0.2z"/>
<linearGradient id="SVGID_21_" gradientUnits="userSpaceOnUse" x1="-328.4413" y1="1049.3716" x2="-328.4413" y2="1105.3716" gradientTransform="matrix(-0.75 0 0 0.75 -241.4705 -786.824)">
	<stop  offset="0" style="stop-color:#4C574F"/>
	<stop  offset="0.15" style="stop-color:#4D905D"/>
	<stop  offset="0.25" style="stop-color:#FFFFFF"/>
	<stop  offset="0.52" style="stop-color:#488557"/>
	<stop  offset="0.69" style="stop-color:#477151"/>
	<stop  offset="0.8" style="stop-color:#477251"/>
	<stop  offset="0.92" style="stop-color:#46634D"/>
	<stop  offset="1" style="stop-color:#444845"/>
</linearGradient>
<path class="st20" d="M5.2,0.2H4.5v42h0.8V0.2z"/>
<linearGradient id="SVGID_22_" gradientUnits="userSpaceOnUse" x1="276.169" y1="1049.3713" x2="276.169" y2="1054.3713" gradientTransform="matrix(0.75 0 0 0.75 -125.1023 -767.5818)">
	<stop  offset="0" style="stop-color:#94B9DA"/>
	<stop  offset="9.000000e-02" style="stop-color:#9CC3EB"/>
	<stop  offset="0.16" style="stop-color:#68A1D4"/>
	<stop  offset="0.79" style="stop-color:#679ED0"/>
	<stop  offset="1" style="stop-color:#9EC2E3"/>
</linearGradient>
<path class="st21" d="M83.9,19.4h-3.8v3.8h3.8V19.4z"/>
<linearGradient id="SVGID_23_" gradientUnits="userSpaceOnUse" x1="276.169" y1="1049.3694" x2="276.169" y2="1054.3694" gradientTransform="matrix(0.75 0 0 0.75 -125.1023 -755.0134)">
	<stop  offset="0" style="stop-color:#94B9DA"/>
	<stop  offset="9.000000e-02" style="stop-color:#9CC3EB"/>
	<stop  offset="0.16" style="stop-color:#68A1D4"/>
	<stop  offset="0.79" style="stop-color:#679ED0"/>
	<stop  offset="1" style="stop-color:#9EC2E3"/>
</linearGradient>
<path class="st22" d="M83.9,32h-3.8v3.8h3.8V32z"/>
<linearGradient id="SVGID_24_" gradientUnits="userSpaceOnUse" x1="276.1698" y1="1049.3694" x2="276.1698" y2="1054.3694" gradientTransform="matrix(0.75 0 0 0.75 -93.5759 -755.0134)">
	<stop  offset="0" style="stop-color:#94B9DA"/>
	<stop  offset="9.000000e-02" style="stop-color:#9CC3EB"/>
	<stop  offset="0.16" style="stop-color:#68A1D4"/>
	<stop  offset="0.79" style="stop-color:#679ED0"/>
	<stop  offset="1" style="stop-color:#9EC2E3"/>
</linearGradient>
<path class="st23" d="M115.4,32h-3.8v3.8h3.8V32z"/>
<linearGradient id="SVGID_25_" gradientUnits="userSpaceOnUse" x1="276.171" y1="1049.368" x2="276.171" y2="1054.368" gradientTransform="matrix(0.75 0 0 0.75 -191.0608 -741.7234)">
	<stop  offset="0" style="stop-color:#4D8ABC"/>
	<stop  offset="9.000000e-02" style="stop-color:#8CADD1"/>
	<stop  offset="0.16" style="stop-color:#4983B3"/>
	<stop  offset="0.79" style="stop-color:#4881B0"/>
	<stop  offset="1" style="stop-color:#5C94C5"/>
</linearGradient>
<path class="st24" d="M17.9,45.3h-3.7v3.8h3.7V45.3z"/>
<linearGradient id="SVGID_26_" gradientUnits="userSpaceOnUse" x1="276.171" y1="1049.3691" x2="276.171" y2="1054.3691" gradientTransform="matrix(0.75 0 0 0.75 -191.0608 -727.3572)">
	<stop  offset="0" style="stop-color:#4D8ABC"/>
	<stop  offset="9.000000e-02" style="stop-color:#8CADD1"/>
	<stop  offset="0.16" style="stop-color:#4983B3"/>
	<stop  offset="0.79" style="stop-color:#4881B0"/>
	<stop  offset="1" style="stop-color:#5C94C5"/>
</linearGradient>
<path class="st25" d="M17.9,59.7h-3.7v3.8h3.7V59.7z"/>
<linearGradient id="SVGID_27_" gradientUnits="userSpaceOnUse" x1="276.1698" y1="1049.3719" x2="276.1698" y2="1054.3719" gradientTransform="matrix(0.75 0 0 0.75 -93.5759 -742.1833)">
	<stop  offset="0" style="stop-color:#4D8ABC"/>
	<stop  offset="9.000000e-02" style="stop-color:#8CADD1"/>
	<stop  offset="0.16" style="stop-color:#4983B3"/>
	<stop  offset="0.79" style="stop-color:#4881B0"/>
	<stop  offset="1" style="stop-color:#5C94C5"/>
</linearGradient>
<path class="st26" d="M115.4,44.8h-3.8v3.8h3.8V44.8z"/>
<linearGradient id="SVGID_28_" gradientUnits="userSpaceOnUse" x1="276.1698" y1="1049.3677" x2="276.1698" y2="1054.3677" gradientTransform="matrix(0.75 0 0 0.75 -93.5759 -727.8171)">
	<stop  offset="0" style="stop-color:#4D8ABC"/>
	<stop  offset="9.000000e-02" style="stop-color:#8CADD1"/>
	<stop  offset="0.16" style="stop-color:#4983B3"/>
	<stop  offset="0.79" style="stop-color:#4881B0"/>
	<stop  offset="1" style="stop-color:#5C94C5"/>
</linearGradient>
<path class="st27" d="M115.4,59.2h-3.8V63h3.8V59.2z"/>
<linearGradient id="SVGID_29_" gradientUnits="userSpaceOnUse" x1="281.1726" y1="1049.3691" x2="281.1726" y2="1096.3691" gradientTransform="matrix(0.75 0 0 0.75 -78.343 -782.4392)">
	<stop  offset="0" style="stop-color:#2C5374"/>
	<stop  offset="9.000000e-02" style="stop-color:#87A0BC"/>
	<stop  offset="0.16" style="stop-color:#3C6E98"/>
	<stop  offset="0.64" style="stop-color:#3B6C95"/>
	<stop  offset="0.92" style="stop-color:#396A92"/>
	<stop  offset="1" style="stop-color:#284D6B"/>
</linearGradient>
<path class="st28" d="M138.2,4.6h-11.2v35.2h11.2V4.6z"/>
<linearGradient id="SVGID_30_" gradientUnits="userSpaceOnUse" x1="280.1689" y1="1049.3711" x2="280.1689" y2="1105.3711" gradientTransform="matrix(0.75 0 0 0.75 -81.7512 -785.2537)">
	<stop  offset="0" style="stop-color:#457DAC"/>
	<stop  offset="0.15" style="stop-color:#73B1E9"/>
	<stop  offset="0.25" style="stop-color:#BED6F3"/>
	<stop  offset="0.52" style="stop-color:#5394CB"/>
	<stop  offset="0.69" style="stop-color:#4984B5"/>
	<stop  offset="0.8" style="stop-color:#447CAA"/>
	<stop  offset="0.92" style="stop-color:#4075A1"/>
	<stop  offset="1" style="stop-color:#4B87B9"/>
</linearGradient>
<path class="st29" d="M123.5,1.8h9.8v42h-9.8C123.5,43.8,123.5,1.8,123.5,1.8z"/>
<linearGradient id="SVGID_31_" gradientUnits="userSpaceOnUse" x1="280.1689" y1="1049.3719" x2="280.1689" y2="1051.3719" gradientTransform="matrix(0.75 0 0 0.75 -81.7512 -786.0623)">
	<stop  offset="0" style="stop-color:#457DAC"/>
	<stop  offset="0.15" style="stop-color:#73B1E9"/>
	<stop  offset="0.25" style="stop-color:#BED6F3"/>
	<stop  offset="0.52" style="stop-color:#5394CB"/>
	<stop  offset="0.69" style="stop-color:#4984B5"/>
	<stop  offset="0.8" style="stop-color:#447CAA"/>
	<stop  offset="0.92" style="stop-color:#4075A1"/>
	<stop  offset="1" style="stop-color:#4B87B9"/>
</linearGradient>
<path class="st30" d="M123.5,1h9.8v1.5h-9.8C123.5,2.5,123.5,1,123.5,1z"/>
<linearGradient id="SVGID_32_" gradientUnits="userSpaceOnUse" x1="280.1689" y1="1049.3735" x2="280.1689" y2="1051.3735" gradientTransform="matrix(0.75 0 0 0.75 -81.7512 -775.7625)">
	<stop  offset="0" style="stop-color:#457DAC"/>
	<stop  offset="0.15" style="stop-color:#73B1E9"/>
	<stop  offset="0.25" style="stop-color:#BED6F3"/>
	<stop  offset="0.52" style="stop-color:#5394CB"/>
	<stop  offset="0.69" style="stop-color:#4984B5"/>
	<stop  offset="0.8" style="stop-color:#447CAA"/>
	<stop  offset="0.92" style="stop-color:#4075A1"/>
	<stop  offset="1" style="stop-color:#4B87B9"/>
</linearGradient>
<path class="st31" d="M123.5,11.3h9.8v1.5h-9.8C123.5,12.8,123.5,11.3,123.5,11.3z"/>
<linearGradient id="SVGID_33_" gradientUnits="userSpaceOnUse" x1="280.1689" y1="1049.3683" x2="280.1689" y2="1051.3683" gradientTransform="matrix(0.75 0 0 0.75 -81.7512 -765.4626)">
	<stop  offset="0" style="stop-color:#457DAC"/>
	<stop  offset="0.15" style="stop-color:#73B1E9"/>
	<stop  offset="0.25" style="stop-color:#BED6F3"/>
	<stop  offset="0.52" style="stop-color:#5394CB"/>
	<stop  offset="0.69" style="stop-color:#4984B5"/>
	<stop  offset="0.8" style="stop-color:#447CAA"/>
	<stop  offset="0.92" style="stop-color:#4075A1"/>
	<stop  offset="1" style="stop-color:#4B87B9"/>
</linearGradient>
<path class="st32" d="M123.5,21.6h9.8v1.5h-9.8C123.5,23.1,123.5,21.6,123.5,21.6z"/>
<linearGradient id="SVGID_34_" gradientUnits="userSpaceOnUse" x1="280.1689" y1="1049.369" x2="280.1689" y2="1051.369" gradientTransform="matrix(0.75 0 0 0.75 -81.7512 -744.8611)">
	<stop  offset="0" style="stop-color:#457DAC"/>
	<stop  offset="0.15" style="stop-color:#73B1E9"/>
	<stop  offset="0.25" style="stop-color:#BED6F3"/>
	<stop  offset="0.52" style="stop-color:#5394CB"/>
	<stop  offset="0.69" style="stop-color:#4984B5"/>
	<stop  offset="0.8" style="stop-color:#447CAA"/>
	<stop  offset="0.92" style="stop-color:#4075A1"/>
	<stop  offset="1" style="stop-color:#4B87B9"/>
</linearGradient>
<path class="st33" d="M123.5,42.2h9.8v1.5h-9.8C123.5,43.7,123.5,42.2,123.5,42.2z"/>
<linearGradient id="SVGID_35_" gradientUnits="userSpaceOnUse" x1="280.1689" y1="1049.3688" x2="280.1689" y2="1051.3688" gradientTransform="matrix(0.75 0 0 0.75 -81.7512 -755.1619)">
	<stop  offset="0" style="stop-color:#457DAC"/>
	<stop  offset="0.15" style="stop-color:#73B1E9"/>
	<stop  offset="0.25" style="stop-color:#BED6F3"/>
	<stop  offset="0.52" style="stop-color:#5394CB"/>
	<stop  offset="0.69" style="stop-color:#4984B5"/>
	<stop  offset="0.8" style="stop-color:#447CAA"/>
	<stop  offset="0.92" style="stop-color:#4075A1"/>
	<stop  offset="1" style="stop-color:#4B87B9"/>
</linearGradient>
<path class="st34" d="M123.5,31.9h9.8v1.5h-9.8C123.5,33.4,123.5,31.9,123.5,31.9z"/>
<linearGradient id="SVGID_36_" gradientUnits="userSpaceOnUse" x1="276.6689" y1="1049.3717" x2="276.6689" y2="1105.3717" gradientTransform="matrix(0.75 0 0 0.75 -68.3372 -785.5271)">
	<stop  offset="0" style="stop-color:#457DAC"/>
	<stop  offset="0.15" style="stop-color:#73B1E9"/>
	<stop  offset="0.25" style="stop-color:#BED6F3"/>
	<stop  offset="0.52" style="stop-color:#5394CB"/>
	<stop  offset="0.69" style="stop-color:#4984B5"/>
	<stop  offset="0.8" style="stop-color:#447CAA"/>
	<stop  offset="0.92" style="stop-color:#4075A1"/>
	<stop  offset="1" style="stop-color:#4B87B9"/>
</linearGradient>
<path class="st35" d="M136.9,1.5h4.5v42h-4.5V1.5z"/>
<linearGradient id="SVGID_37_" gradientUnits="userSpaceOnUse" x1="276.1736" y1="1049.3713" x2="276.1736" y2="1051.3713" gradientTransform="matrix(0.75 0 0 0.75 -66.4417 -784.3318)">
	<stop  offset="0" style="stop-color:#457DAC"/>
	<stop  offset="0.15" style="stop-color:#73B1E9"/>
	<stop  offset="0.25" style="stop-color:#BED6F3"/>
	<stop  offset="0.52" style="stop-color:#5394CB"/>
	<stop  offset="0.69" style="stop-color:#4984B5"/>
	<stop  offset="0.8" style="stop-color:#447CAA"/>
	<stop  offset="0.92" style="stop-color:#4075A1"/>
	<stop  offset="1" style="stop-color:#4B87B9"/>
</linearGradient>
<path class="st36" d="M138.8,2.7h3.8v1.5h-3.8V2.7z"/>
<linearGradient id="SVGID_38_" gradientUnits="userSpaceOnUse" x1="276.1736" y1="1049.369" x2="276.1736" y2="1051.369" gradientTransform="matrix(0.75 0 0 0.75 -66.4417 -771.6931)">
	<stop  offset="0" style="stop-color:#457DAC"/>
	<stop  offset="0.15" style="stop-color:#73B1E9"/>
	<stop  offset="0.25" style="stop-color:#BED6F3"/>
	<stop  offset="0.52" style="stop-color:#5394CB"/>
	<stop  offset="0.69" style="stop-color:#4984B5"/>
	<stop  offset="0.8" style="stop-color:#447CAA"/>
	<stop  offset="0.92" style="stop-color:#4075A1"/>
	<stop  offset="1" style="stop-color:#4B87B9"/>
</linearGradient>
<path class="st37" d="M138.8,15.3h3.8v1.5h-3.8V15.3z"/>
<linearGradient id="SVGID_39_" gradientUnits="userSpaceOnUse" x1="276.1736" y1="1049.3721" x2="276.1736" y2="1051.3721" gradientTransform="matrix(0.75 0 0 0.75 -66.4417 -759.0544)">
	<stop  offset="0" style="stop-color:#457DAC"/>
	<stop  offset="0.15" style="stop-color:#73B1E9"/>
	<stop  offset="0.25" style="stop-color:#BED6F3"/>
	<stop  offset="0.52" style="stop-color:#5394CB"/>
	<stop  offset="0.69" style="stop-color:#4984B5"/>
	<stop  offset="0.8" style="stop-color:#447CAA"/>
	<stop  offset="0.92" style="stop-color:#4075A1"/>
	<stop  offset="1" style="stop-color:#4B87B9"/>
</linearGradient>
<path class="st38" d="M138.8,28h3.8v1.5h-3.8V28z"/>
<linearGradient id="SVGID_40_" gradientUnits="userSpaceOnUse" x1="276.1736" y1="1049.3699" x2="276.1736" y2="1051.3699" gradientTransform="matrix(0.75 0 0 0.75 -66.4417 -746.4167)">
	<stop  offset="0" style="stop-color:#457DAC"/>
	<stop  offset="0.15" style="stop-color:#73B1E9"/>
	<stop  offset="0.25" style="stop-color:#BED6F3"/>
	<stop  offset="0.52" style="stop-color:#5394CB"/>
	<stop  offset="0.69" style="stop-color:#4984B5"/>
	<stop  offset="0.8" style="stop-color:#447CAA"/>
	<stop  offset="0.92" style="stop-color:#4075A1"/>
	<stop  offset="1" style="stop-color:#4B87B9"/>
</linearGradient>
<path class="st39" d="M138.8,40.6h3.8v1.5h-3.8V40.6z"/>
<linearGradient id="SVGID_41_" gradientUnits="userSpaceOnUse" x1="276.1736" y1="1049.369" x2="276.1736" y2="1051.369" gradientTransform="matrix(0.75 0 0 0.75 -66.4417 -752.7361)">
	<stop  offset="0" style="stop-color:#457DAC"/>
	<stop  offset="0.15" style="stop-color:#73B1E9"/>
	<stop  offset="0.25" style="stop-color:#BED6F3"/>
	<stop  offset="0.52" style="stop-color:#5394CB"/>
	<stop  offset="0.69" style="stop-color:#4984B5"/>
	<stop  offset="0.8" style="stop-color:#447CAA"/>
	<stop  offset="0.92" style="stop-color:#4075A1"/>
	<stop  offset="1" style="stop-color:#4B87B9"/>
</linearGradient>
<path class="st40" d="M138.8,34.3h3.8v1.5h-3.8V34.3z"/>
<linearGradient id="SVGID_42_" gradientUnits="userSpaceOnUse" x1="276.1736" y1="1049.3735" x2="276.1736" y2="1051.3735" gradientTransform="matrix(0.75 0 0 0.75 -66.4417 -778.0125)">
	<stop  offset="0" style="stop-color:#457DAC"/>
	<stop  offset="0.15" style="stop-color:#73B1E9"/>
	<stop  offset="0.25" style="stop-color:#BED6F3"/>
	<stop  offset="0.52" style="stop-color:#5394CB"/>
	<stop  offset="0.69" style="stop-color:#4984B5"/>
	<stop  offset="0.8" style="stop-color:#447CAA"/>
	<stop  offset="0.92" style="stop-color:#4075A1"/>
	<stop  offset="1" style="stop-color:#4B87B9"/>
</linearGradient>
<path class="st41" d="M138.8,9h3.8v1.5h-3.8V9z"/>
<linearGradient id="SVGID_43_" gradientUnits="userSpaceOnUse" x1="276.1736" y1="1049.3713" x2="276.1736" y2="1051.3713" gradientTransform="matrix(0.75 0 0 0.75 -66.4417 -765.3748)">
	<stop  offset="0" style="stop-color:#457DAC"/>
	<stop  offset="0.15" style="stop-color:#73B1E9"/>
	<stop  offset="0.25" style="stop-color:#BED6F3"/>
	<stop  offset="0.52" style="stop-color:#5394CB"/>
	<stop  offset="0.69" style="stop-color:#4984B5"/>
	<stop  offset="0.8" style="stop-color:#447CAA"/>
	<stop  offset="0.92" style="stop-color:#4075A1"/>
	<stop  offset="1" style="stop-color:#4B87B9"/>
</linearGradient>
<path class="st42" d="M138.8,21.7h3.8v1.5h-3.8V21.7z"/>
</svg>
