<?xml version="1.0" encoding="utf-8"?>
<!-- Generator: Adobe Illustrator 25.0.0, SVG Export Plug-In . SVG Version: 6.00 Build 0)  -->
<svg version="1.1" id="图层_1" xmlns="http://www.w3.org/2000/svg" xmlns:xlink="http://www.w3.org/1999/xlink" x="0px" y="0px"
	 viewBox="0 0 143 74" style="enable-background:new 0 0 143 74;" xml:space="preserve">
<style type="text/css">
	.st0{fill:url(#SVGID_1_);}
	.st1{fill:url(#SVGID_2_);}
	.st2{fill:url(#SVGID_3_);}
	.st3{fill:url(#SVGID_4_);}
	.st4{fill:url(#SVGID_5_);}
	.st5{fill:url(#SVGID_6_);}
	.st6{fill:url(#SVGID_7_);}
	.st7{fill:url(#SVGID_8_);}
	.st8{fill:url(#SVGID_9_);}
	.st9{fill:url(#SVGID_10_);}
	.st10{fill:url(#SVGID_11_);}
	.st11{fill:url(#SVGID_12_);}
	.st12{fill:url(#SVGID_13_);}
	.st13{fill:url(#SVGID_14_);}
	.st14{fill:url(#SVGID_15_);}
	.st15{fill:url(#SVGID_16_);}
	.st16{fill:url(#SVGID_17_);}
	.st17{fill:url(#SVGID_18_);}
	.st18{fill:url(#SVGID_19_);}
	.st19{fill:url(#SVGID_20_);}
	.st20{fill:url(#SVGID_21_);}
	.st21{fill:url(#SVGID_22_);}
	.st22{fill:url(#SVGID_23_);}
	.st23{fill:url(#SVGID_24_);}
	.st24{fill:url(#SVGID_25_);}
	.st25{fill:url(#SVGID_26_);}
	.st26{fill:url(#SVGID_27_);}
	.st27{fill:url(#SVGID_28_);}
	.st28{fill:url(#SVGID_29_);}
	.st29{fill:url(#SVGID_30_);}
	.st30{fill:url(#SVGID_31_);}
	.st31{fill:url(#SVGID_32_);}
	.st32{fill:url(#SVGID_33_);}
	.st33{fill:url(#SVGID_34_);}
	.st34{fill:url(#SVGID_35_);}
	.st35{fill:url(#SVGID_36_);}
	.st36{fill:url(#SVGID_37_);}
	.st37{fill:url(#SVGID_38_);}
	.st38{fill:url(#SVGID_39_);}
	.st39{fill:url(#SVGID_40_);}
	.st40{fill:url(#SVGID_41_);}
	.st41{fill:url(#SVGID_42_);}
	.st42{fill:url(#SVGID_43_);}
</style>
<linearGradient id="SVGID_1_" gradientUnits="userSpaceOnUse" x1="345.9773" y1="210.0421" x2="345.9773" y2="253.0421" gradientTransform="matrix(0.75 0 0 -0.75 -195.2332 227.5867)">
	<stop  offset="0" style="stop-color:#2C5274"/>
	<stop  offset="9.000000e-02" style="stop-color:#879FBC"/>
	<stop  offset="0.16" style="stop-color:#3C6D98"/>
	<stop  offset="0.64" style="stop-color:#3B6B95"/>
	<stop  offset="0.92" style="stop-color:#396992"/>
	<stop  offset="1" style="stop-color:#284C6B"/>
</linearGradient>
<path class="st0" d="M118.6,70.1H9.9V37.8h108.7V70.1z"/>
<linearGradient id="SVGID_2_" gradientUnits="userSpaceOnUse" x1="307.4735" y1="1049.2258" x2="307.4735" y2="1084.2258" gradientTransform="matrix(0.75 0 0 0.75 -130.9534 -775.5203)">
	<stop  offset="0" style="stop-color:#3A6890"/>
	<stop  offset="9.000000e-02" style="stop-color:#8FB1D7"/>
	<stop  offset="0.16" style="stop-color:#4E89BC"/>
	<stop  offset="0.64" style="stop-color:#4C87B9"/>
	<stop  offset="0.92" style="stop-color:#4A83B4"/>
	<stop  offset="1" style="stop-color:#356085"/>
</linearGradient>
<path class="st1" d="M125.2,11.4h-27v1.5h-3.8v-1.5h-5.2v3.8h-6.8v-3.8h-8.2v26.2h51V11.4z"/>
<linearGradient id="SVGID_3_" gradientUnits="userSpaceOnUse" x1="307.9753" y1="1049.2241" x2="307.9753" y2="1105.2241" gradientTransform="matrix(0.75 0 0 0.75 -193.5017 -786.824)">
	<stop  offset="0" style="stop-color:#4C4C4C"/>
	<stop  offset="0.2659" style="stop-color:#F7194E"/>
	<stop  offset="1" style="stop-color:#444444"/>
</linearGradient>
<path class="st2" d="M11.6,0.1h51.8v42H11.6C11.6,42.1,11.6,0.1,11.6,0.1z"/>
<linearGradient id="SVGID_4_" gradientUnits="userSpaceOnUse" x1="304.4501" y1="1049.2158" x2="304.4501" y2="1051.2235" gradientTransform="matrix(0.75 0 0 0.75 -190.7029 -783.6218)">
	<stop  offset="0" style="stop-color:#4C4C4C"/>
	<stop  offset="0.2659" style="stop-color:#F7194E"/>
	<stop  offset="1" style="stop-color:#444444"/>
</linearGradient>
<path class="st3" d="M15.2,3.3h45c0.8,0,0.7,0.2,0.7,0.5c0,0.2-0.2,0.7-0.5,0.7L15.2,4.8c-0.8,0-0.8-0.5-0.8-0.8
	c0-0.7,0.2-0.7,0.5-0.7L15.2,3.3z"/>
<linearGradient id="SVGID_5_" gradientUnits="userSpaceOnUse" x1="304.4501" y1="1049.2135" x2="304.4501" y2="1051.2228" gradientTransform="matrix(0.75 0 0 0.75 -190.7029 -779.281)">
	<stop  offset="0" style="stop-color:#4C4C4C"/>
	<stop  offset="0.2659" style="stop-color:#F7194E"/>
	<stop  offset="1" style="stop-color:#444444"/>
</linearGradient>
<path class="st4" d="M15.2,7.6h45c0.8,0,0.7,0.2,0.7,0.5c0,0.2-0.2,0.7-0.5,0.7L15.2,9.1c-0.8,0-0.8-0.5-0.8-0.8
	c0-0.7,0.2-0.7,0.5-0.7L15.2,7.6z"/>
<linearGradient id="SVGID_6_" gradientUnits="userSpaceOnUse" x1="304.4501" y1="1049.2151" x2="304.4501" y2="1051.2244" gradientTransform="matrix(0.75 0 0 0.75 -190.7029 -774.9412)">
	<stop  offset="0" style="stop-color:#4C4C4C"/>
	<stop  offset="0.2659" style="stop-color:#F7194E"/>
	<stop  offset="1" style="stop-color:#444444"/>
</linearGradient>
<path class="st5" d="M15.2,12h45c0.8,0,0.7,0.2,0.7,0.5c0,0.2-0.2,0.7-0.5,0.7l-45.2,0.2c-0.8,0-0.8-0.5-0.8-0.8
	c0-0.7,0.2-0.7,0.5-0.7L15.2,12z"/>
<linearGradient id="SVGID_7_" gradientUnits="userSpaceOnUse" x1="304.4501" y1="1049.2167" x2="304.4501" y2="1051.222" gradientTransform="matrix(0.75 0 0 0.75 -190.7029 -770.5994)">
	<stop  offset="0" style="stop-color:#4C4C4C"/>
	<stop  offset="0.2659" style="stop-color:#F7194E"/>
	<stop  offset="1" style="stop-color:#444444"/>
</linearGradient>
<path class="st6" d="M15.2,16.3h45c0.8,0,0.7,0.2,0.7,0.5c0,0.2-0.2,0.7-0.5,0.7l-45.2,0.2c-0.8,0-0.8-0.5-0.8-0.8
	c0-0.7,0.2-0.7,0.5-0.7L15.2,16.3z"/>
<linearGradient id="SVGID_8_" gradientUnits="userSpaceOnUse" x1="304.4501" y1="1049.2137" x2="304.4501" y2="1051.223" gradientTransform="matrix(0.75 0 0 0.75 -190.7029 -766.6052)">
	<stop  offset="0" style="stop-color:#4C4C4C"/>
	<stop  offset="0.2659" style="stop-color:#F7194E"/>
	<stop  offset="1" style="stop-color:#444444"/>
</linearGradient>
<path class="st7" d="M15.2,20.3h45c0.8,0,0.7,0.2,0.7,0.5c0,0.2-0.2,0.7-0.5,0.7l-45.2,0.2c-0.8,0-0.8-0.5-0.8-0.8
	c0-0.7,0.2-0.7,0.5-0.7L15.2,20.3z"/>
<linearGradient id="SVGID_9_" gradientUnits="userSpaceOnUse" x1="304.4501" y1="1049.2152" x2="304.4501" y2="1051.2245" gradientTransform="matrix(0.75 0 0 0.75 -190.7029 -762.3513)">
	<stop  offset="0" style="stop-color:#4C4C4C"/>
	<stop  offset="0.2659" style="stop-color:#F7194E"/>
	<stop  offset="1" style="stop-color:#444444"/>
</linearGradient>
<path class="st8" d="M15.2,24.6h45c0.8,0,0.7,0.2,0.7,0.5c0,0.2-0.2,0.7-0.5,0.7l-45.2,0.2c-0.8,0-0.8-0.5-0.8-0.8
	c0-0.7,0.2-0.7,0.5-0.7L15.2,24.6z"/>
<linearGradient id="SVGID_10_" gradientUnits="userSpaceOnUse" x1="304.4501" y1="1049.214" x2="304.4501" y2="1051.2234" gradientTransform="matrix(0.75 0 0 0.75 -190.7029 -758.0964)">
	<stop  offset="0" style="stop-color:#4C4C4C"/>
	<stop  offset="0.2659" style="stop-color:#F7194E"/>
	<stop  offset="1" style="stop-color:#444444"/>
</linearGradient>
<path class="st9" d="M15.2,28.8h45c0.8,0,0.7,0.2,0.7,0.5c0,0.2-0.2,0.7-0.5,0.7l-45.2,0.2c-0.8,0-0.8-0.5-0.8-0.8
	c0-0.7,0.2-0.7,0.5-0.7L15.2,28.8z"/>
<linearGradient id="SVGID_11_" gradientUnits="userSpaceOnUse" x1="304.4501" y1="1049.2181" x2="304.4501" y2="1051.2235" gradientTransform="matrix(0.75 0 0 0.75 -190.7029 -753.8425)">
	<stop  offset="0" style="stop-color:#4C4C4C"/>
	<stop  offset="0.2659" style="stop-color:#F7194E"/>
	<stop  offset="1" style="stop-color:#444444"/>
</linearGradient>
<path class="st10" d="M15.2,33.1h45c0.8,0,0.7,0.2,0.7,0.5c0,0.2-0.2,0.7-0.5,0.7l-45.2,0.2c-0.8,0-0.8-0.5-0.8-0.8
	c0-0.7,0.2-0.7,0.5-0.7L15.2,33.1z"/>
<linearGradient id="SVGID_12_" gradientUnits="userSpaceOnUse" x1="304.4501" y1="1049.2156" x2="304.4501" y2="1051.2209" gradientTransform="matrix(0.75 0 0 0.75 -190.7029 -749.5876)">
	<stop  offset="0" style="stop-color:#4C4C4C"/>
	<stop  offset="0.2659" style="stop-color:#F7194E"/>
	<stop  offset="1" style="stop-color:#444444"/>
</linearGradient>
<path class="st11" d="M15.2,37.3h45c0.8,0,0.7,0.2,0.7,0.5c0,0.2-0.2,0.7-0.5,0.7l-45.2,0.2c-0.8,0-0.8-0.5-0.8-0.8
	c0-0.7,0.2-0.7,0.5-0.7L15.2,37.3z"/>
<linearGradient id="SVGID_13_" gradientUnits="userSpaceOnUse" x1="282.4538" y1="1049.1741" x2="282.4538" y2="1105.2223" gradientTransform="matrix(0.75 0 0 0.75 -143.321 -786.8806)">
	<stop  offset="0" style="stop-color:#4C4C4C"/>
	<stop  offset="0.2659" style="stop-color:#F7194E"/>
	<stop  offset="1" style="stop-color:#444444"/>
</linearGradient>
<path class="st12" d="M61.8,0h9.8c0,0,3.6-1.8,3.7,20.9c0,22.6-3.4,20.8-3.4,20.8L61.8,42C61.8,42,61.8,0,61.8,0z"/>
<linearGradient id="SVGID_14_" gradientUnits="userSpaceOnUse" x1="279.9745" y1="1049.2223" x2="279.9745" y2="1105.2223" gradientTransform="matrix(0.75 0 0 0.75 -143.3831 -786.8806)">
	<stop  offset="0" style="stop-color:#4C4C4C"/>
	<stop  offset="0.2659" style="stop-color:#F7194E"/>
	<stop  offset="1" style="stop-color:#444444"/>
</linearGradient>
<path class="st13" d="M61.7,0h9.7v42h-9.7V0z"/>
<linearGradient id="SVGID_15_" gradientUnits="userSpaceOnUse" x1="273.9742" y1="1049.2219" x2="273.9742" y2="1105.2219" gradientTransform="matrix(0.75 0 0 0.75 -141.4929 -786.8533)">
	<stop  offset="0" style="stop-color:#65454C"/>
	<stop  offset="0.15" style="stop-color:#C6274D"/>
	<stop  offset="0.25" style="stop-color:#F5F8F6"/>
	<stop  offset="0.52" style="stop-color:#973049"/>
	<stop  offset="0.69" style="stop-color:#773847"/>
	<stop  offset="0.8" style="stop-color:#5E3E45"/>
	<stop  offset="0.92" style="stop-color:#653C46"/>
	<stop  offset="1" style="stop-color:#464344"/>
</linearGradient>
<path class="st14" d="M63.6,0.1h0.8v42h-0.8V0.1z"/>
<linearGradient id="SVGID_16_" gradientUnits="userSpaceOnUse" x1="-319.7678" y1="1049.1749" x2="-319.7678" y2="1105.2244" gradientTransform="matrix(-0.75 0 0 0.75 -232.5837 -786.8542)">
	<stop  offset="0" style="stop-color:#4C4C4C"/>
	<stop  offset="0.2659" style="stop-color:#F7194E"/>
	<stop  offset="1" style="stop-color:#444444"/>
</linearGradient>
<path class="st15" d="M14,0.1H4.2c0,0-3.6-1.8-3.7,20.9c0,22.6,3.4,20.8,3.4,20.8L14,42.1V0.1z"/>
<linearGradient id="SVGID_17_" gradientUnits="userSpaceOnUse" x1="-322.2454" y1="1049.223" x2="-322.2454" y2="1105.223" gradientTransform="matrix(-0.75 0 0 0.75 -232.5203 -786.8542)">
	<stop  offset="0" style="stop-color:#4C4C4C"/>
	<stop  offset="0.2659" style="stop-color:#F7194E"/>
	<stop  offset="1" style="stop-color:#444444"/>
</linearGradient>
<path class="st16" d="M14,0.1H4.3v42H14V0.1z"/>
<linearGradient id="SVGID_18_" gradientUnits="userSpaceOnUse" x1="-328.242" y1="1049.2241" x2="-328.242" y2="1105.2241" gradientTransform="matrix(-0.75 0 0 0.75 -234.4128 -786.824)">
	<stop  offset="0" style="stop-color:#65454C"/>
	<stop  offset="0.15" style="stop-color:#C6274D"/>
	<stop  offset="0.25" style="stop-color:#F5F8F6"/>
	<stop  offset="0.52" style="stop-color:#973049"/>
	<stop  offset="0.69" style="stop-color:#773847"/>
	<stop  offset="0.8" style="stop-color:#5E3E45"/>
	<stop  offset="0.92" style="stop-color:#653C46"/>
	<stop  offset="1" style="stop-color:#464344"/>
</linearGradient>
<path class="st17" d="M12.1,0.1h-0.8v42h0.8V0.1z"/>
<linearGradient id="SVGID_19_" gradientUnits="userSpaceOnUse" x1="364.476" y1="1049.2225" x2="364.476" y2="1062.2225" gradientTransform="matrix(0.75 0 0 0.75 -202.0603 -722.4128)">
	<stop  offset="0" style="stop-color:#3A6890"/>
	<stop  offset="9.000000e-02" style="stop-color:#8FB1D7"/>
	<stop  offset="0.16" style="stop-color:#4E89BC"/>
	<stop  offset="0.64" style="stop-color:#4C87B9"/>
	<stop  offset="0.92" style="stop-color:#4A83B4"/>
	<stop  offset="1" style="stop-color:#356085"/>
</linearGradient>
<path class="st18" d="M139.5,64.5H3v9.8h136.5V64.5z"/>
<linearGradient id="SVGID_20_" gradientUnits="userSpaceOnUse" x1="273.9767" y1="1049.2219" x2="273.9767" y2="1105.2219" gradientTransform="matrix(0.75 0 0 0.75 -134.1038 -786.8533)">
	<stop  offset="0" style="stop-color:#65454C"/>
	<stop  offset="0.15" style="stop-color:#C6274D"/>
	<stop  offset="0.25" style="stop-color:#F5F8F6"/>
	<stop  offset="0.52" style="stop-color:#973049"/>
	<stop  offset="0.69" style="stop-color:#773847"/>
	<stop  offset="0.8" style="stop-color:#5E3E45"/>
	<stop  offset="0.92" style="stop-color:#653C46"/>
	<stop  offset="1" style="stop-color:#464344"/>
</linearGradient>
<path class="st19" d="M71,0.1h0.8v42H71V0.1z"/>
<linearGradient id="SVGID_21_" gradientUnits="userSpaceOnUse" x1="-328.247" y1="1049.2241" x2="-328.247" y2="1105.2241" gradientTransform="matrix(-0.75 0 0 0.75 -241.4705 -786.824)">
	<stop  offset="0" style="stop-color:#65454C"/>
	<stop  offset="0.15" style="stop-color:#C6274D"/>
	<stop  offset="0.25" style="stop-color:#F5F8F6"/>
	<stop  offset="0.52" style="stop-color:#973049"/>
	<stop  offset="0.69" style="stop-color:#773847"/>
	<stop  offset="0.8" style="stop-color:#5E3E45"/>
	<stop  offset="0.92" style="stop-color:#653C46"/>
	<stop  offset="1" style="stop-color:#464344"/>
</linearGradient>
<path class="st20" d="M5.1,0.1H4.3v42h0.8V0.1z"/>
<linearGradient id="SVGID_22_" gradientUnits="userSpaceOnUse" x1="275.9747" y1="1049.2239" x2="275.9747" y2="1054.2239" gradientTransform="matrix(0.75 0 0 0.75 -125.1023 -767.5818)">
	<stop  offset="0" style="stop-color:#94B9DA"/>
	<stop  offset="9.000000e-02" style="stop-color:#9CC3EB"/>
	<stop  offset="0.16" style="stop-color:#68A1D4"/>
	<stop  offset="0.79" style="stop-color:#679ED0"/>
	<stop  offset="1" style="stop-color:#9EC2E3"/>
</linearGradient>
<path class="st21" d="M83.8,19.3H80v3.8h3.8V19.3z"/>
<linearGradient id="SVGID_23_" gradientUnits="userSpaceOnUse" x1="275.9747" y1="1049.222" x2="275.9747" y2="1054.222" gradientTransform="matrix(0.75 0 0 0.75 -125.1023 -755.0134)">
	<stop  offset="0" style="stop-color:#94B9DA"/>
	<stop  offset="9.000000e-02" style="stop-color:#9CC3EB"/>
	<stop  offset="0.16" style="stop-color:#68A1D4"/>
	<stop  offset="0.79" style="stop-color:#679ED0"/>
	<stop  offset="1" style="stop-color:#9EC2E3"/>
</linearGradient>
<path class="st22" d="M83.8,31.9H80v3.8h3.8V31.9z"/>
<linearGradient id="SVGID_24_" gradientUnits="userSpaceOnUse" x1="275.9755" y1="1049.222" x2="275.9755" y2="1054.222" gradientTransform="matrix(0.75 0 0 0.75 -93.5759 -755.0134)">
	<stop  offset="0" style="stop-color:#94B9DA"/>
	<stop  offset="9.000000e-02" style="stop-color:#9CC3EB"/>
	<stop  offset="0.16" style="stop-color:#68A1D4"/>
	<stop  offset="0.79" style="stop-color:#679ED0"/>
	<stop  offset="1" style="stop-color:#9EC2E3"/>
</linearGradient>
<path class="st23" d="M115.3,31.9h-3.8v3.8h3.8V31.9z"/>
<linearGradient id="SVGID_25_" gradientUnits="userSpaceOnUse" x1="275.9767" y1="1049.2207" x2="275.9767" y2="1054.2207" gradientTransform="matrix(0.75 0 0 0.75 -191.0608 -741.7234)">
	<stop  offset="0" style="stop-color:#4D8ABC"/>
	<stop  offset="9.000000e-02" style="stop-color:#8CADD1"/>
	<stop  offset="0.16" style="stop-color:#4983B3"/>
	<stop  offset="0.79" style="stop-color:#4881B0"/>
	<stop  offset="1" style="stop-color:#5C94C5"/>
</linearGradient>
<path class="st24" d="M17.8,45.2H14v3.8h3.8V45.2z"/>
<linearGradient id="SVGID_26_" gradientUnits="userSpaceOnUse" x1="275.9767" y1="1049.2217" x2="275.9767" y2="1054.2217" gradientTransform="matrix(0.75 0 0 0.75 -191.0608 -727.3572)">
	<stop  offset="0" style="stop-color:#4D8ABC"/>
	<stop  offset="9.000000e-02" style="stop-color:#8CADD1"/>
	<stop  offset="0.16" style="stop-color:#4983B3"/>
	<stop  offset="0.79" style="stop-color:#4881B0"/>
	<stop  offset="1" style="stop-color:#5C94C5"/>
</linearGradient>
<path class="st25" d="M17.8,59.6H14v3.8h3.8V59.6z"/>
<linearGradient id="SVGID_27_" gradientUnits="userSpaceOnUse" x1="275.9755" y1="1049.2245" x2="275.9755" y2="1054.2245" gradientTransform="matrix(0.75 0 0 0.75 -93.5759 -742.1833)">
	<stop  offset="0" style="stop-color:#4D8ABC"/>
	<stop  offset="9.000000e-02" style="stop-color:#8CADD1"/>
	<stop  offset="0.16" style="stop-color:#4983B3"/>
	<stop  offset="0.79" style="stop-color:#4881B0"/>
	<stop  offset="1" style="stop-color:#5C94C5"/>
</linearGradient>
<path class="st26" d="M115.3,44.7h-3.8v3.8h3.8V44.7z"/>
<linearGradient id="SVGID_28_" gradientUnits="userSpaceOnUse" x1="275.9755" y1="1049.2202" x2="275.9755" y2="1054.2202" gradientTransform="matrix(0.75 0 0 0.75 -93.5759 -727.8171)">
	<stop  offset="0" style="stop-color:#4D8ABC"/>
	<stop  offset="9.000000e-02" style="stop-color:#8CADD1"/>
	<stop  offset="0.16" style="stop-color:#4983B3"/>
	<stop  offset="0.79" style="stop-color:#4881B0"/>
	<stop  offset="1" style="stop-color:#5C94C5"/>
</linearGradient>
<path class="st27" d="M115.3,59.1h-3.8v3.8h3.8V59.1z"/>
<linearGradient id="SVGID_29_" gradientUnits="userSpaceOnUse" x1="280.9783" y1="1049.2217" x2="280.9783" y2="1096.2217" gradientTransform="matrix(0.75 0 0 0.75 -78.343 -782.4392)">
	<stop  offset="0" style="stop-color:#2C5374"/>
	<stop  offset="9.000000e-02" style="stop-color:#87A0BC"/>
	<stop  offset="0.16" style="stop-color:#3C6E98"/>
	<stop  offset="0.64" style="stop-color:#3B6C95"/>
	<stop  offset="0.92" style="stop-color:#396A92"/>
	<stop  offset="1" style="stop-color:#284D6B"/>
</linearGradient>
<path class="st28" d="M138,4.5h-11.3v35.2H138V4.5z"/>
<linearGradient id="SVGID_30_" gradientUnits="userSpaceOnUse" x1="279.9746" y1="1049.2238" x2="279.9746" y2="1105.2238" gradientTransform="matrix(0.75 0 0 0.75 -81.7512 -785.2537)">
	<stop  offset="0" style="stop-color:#457DAC"/>
	<stop  offset="0.15" style="stop-color:#73B1E9"/>
	<stop  offset="0.25" style="stop-color:#BED6F3"/>
	<stop  offset="0.52" style="stop-color:#5394CB"/>
	<stop  offset="0.69" style="stop-color:#4984B5"/>
	<stop  offset="0.8" style="stop-color:#447CAA"/>
	<stop  offset="0.92" style="stop-color:#4075A1"/>
	<stop  offset="1" style="stop-color:#4B87B9"/>
</linearGradient>
<path class="st29" d="M123.4,1.7h9.8v42h-9.8C123.4,43.7,123.4,1.7,123.4,1.7z"/>
<linearGradient id="SVGID_31_" gradientUnits="userSpaceOnUse" x1="279.9746" y1="1049.2245" x2="279.9746" y2="1051.2245" gradientTransform="matrix(0.75 0 0 0.75 -81.7512 -786.0623)">
	<stop  offset="0" style="stop-color:#457DAC"/>
	<stop  offset="0.15" style="stop-color:#73B1E9"/>
	<stop  offset="0.25" style="stop-color:#BED6F3"/>
	<stop  offset="0.52" style="stop-color:#5394CB"/>
	<stop  offset="0.69" style="stop-color:#4984B5"/>
	<stop  offset="0.8" style="stop-color:#447CAA"/>
	<stop  offset="0.92" style="stop-color:#4075A1"/>
	<stop  offset="1" style="stop-color:#4B87B9"/>
</linearGradient>
<path class="st30" d="M123.4,0.9h9.8v1.5h-9.8C123.4,2.4,123.4,0.9,123.4,0.9z"/>
<linearGradient id="SVGID_32_" gradientUnits="userSpaceOnUse" x1="279.9746" y1="1049.2261" x2="279.9746" y2="1051.2261" gradientTransform="matrix(0.75 0 0 0.75 -81.7512 -775.7625)">
	<stop  offset="0" style="stop-color:#457DAC"/>
	<stop  offset="0.15" style="stop-color:#73B1E9"/>
	<stop  offset="0.25" style="stop-color:#BED6F3"/>
	<stop  offset="0.52" style="stop-color:#5394CB"/>
	<stop  offset="0.69" style="stop-color:#4984B5"/>
	<stop  offset="0.8" style="stop-color:#447CAA"/>
	<stop  offset="0.92" style="stop-color:#4075A1"/>
	<stop  offset="1" style="stop-color:#4B87B9"/>
</linearGradient>
<path class="st31" d="M123.4,11.2h9.8v1.5h-9.8C123.4,12.7,123.4,11.2,123.4,11.2z"/>
<linearGradient id="SVGID_33_" gradientUnits="userSpaceOnUse" x1="279.9746" y1="1049.2209" x2="279.9746" y2="1051.2209" gradientTransform="matrix(0.75 0 0 0.75 -81.7512 -765.4626)">
	<stop  offset="0" style="stop-color:#457DAC"/>
	<stop  offset="0.15" style="stop-color:#73B1E9"/>
	<stop  offset="0.25" style="stop-color:#BED6F3"/>
	<stop  offset="0.52" style="stop-color:#5394CB"/>
	<stop  offset="0.69" style="stop-color:#4984B5"/>
	<stop  offset="0.8" style="stop-color:#447CAA"/>
	<stop  offset="0.92" style="stop-color:#4075A1"/>
	<stop  offset="1" style="stop-color:#4B87B9"/>
</linearGradient>
<path class="st32" d="M123.4,21.5h9.8V23h-9.8C123.4,23,123.4,21.5,123.4,21.5z"/>
<linearGradient id="SVGID_34_" gradientUnits="userSpaceOnUse" x1="279.9746" y1="1049.2216" x2="279.9746" y2="1051.2216" gradientTransform="matrix(0.75 0 0 0.75 -81.7512 -744.8611)">
	<stop  offset="0" style="stop-color:#457DAC"/>
	<stop  offset="0.15" style="stop-color:#73B1E9"/>
	<stop  offset="0.25" style="stop-color:#BED6F3"/>
	<stop  offset="0.52" style="stop-color:#5394CB"/>
	<stop  offset="0.69" style="stop-color:#4984B5"/>
	<stop  offset="0.8" style="stop-color:#447CAA"/>
	<stop  offset="0.92" style="stop-color:#4075A1"/>
	<stop  offset="1" style="stop-color:#4B87B9"/>
</linearGradient>
<path class="st33" d="M123.4,42.1h9.8v1.5h-9.8C123.4,43.6,123.4,42.1,123.4,42.1z"/>
<linearGradient id="SVGID_35_" gradientUnits="userSpaceOnUse" x1="279.9746" y1="1049.2213" x2="279.9746" y2="1051.2213" gradientTransform="matrix(0.75 0 0 0.75 -81.7512 -755.1619)">
	<stop  offset="0" style="stop-color:#457DAC"/>
	<stop  offset="0.15" style="stop-color:#73B1E9"/>
	<stop  offset="0.25" style="stop-color:#BED6F3"/>
	<stop  offset="0.52" style="stop-color:#5394CB"/>
	<stop  offset="0.69" style="stop-color:#4984B5"/>
	<stop  offset="0.8" style="stop-color:#447CAA"/>
	<stop  offset="0.92" style="stop-color:#4075A1"/>
	<stop  offset="1" style="stop-color:#4B87B9"/>
</linearGradient>
<path class="st34" d="M123.4,31.8h9.8v1.5h-9.8C123.4,33.3,123.4,31.8,123.4,31.8z"/>
<linearGradient id="SVGID_36_" gradientUnits="userSpaceOnUse" x1="276.4746" y1="1049.2242" x2="276.4746" y2="1105.2242" gradientTransform="matrix(0.75 0 0 0.75 -68.3372 -785.5271)">
	<stop  offset="0" style="stop-color:#457DAC"/>
	<stop  offset="0.15" style="stop-color:#73B1E9"/>
	<stop  offset="0.25" style="stop-color:#BED6F3"/>
	<stop  offset="0.52" style="stop-color:#5394CB"/>
	<stop  offset="0.69" style="stop-color:#4984B5"/>
	<stop  offset="0.8" style="stop-color:#447CAA"/>
	<stop  offset="0.92" style="stop-color:#4075A1"/>
	<stop  offset="1" style="stop-color:#4B87B9"/>
</linearGradient>
<path class="st35" d="M136.8,1.4h4.5v42h-4.5V1.4z"/>
<linearGradient id="SVGID_37_" gradientUnits="userSpaceOnUse" x1="275.9792" y1="1049.2239" x2="275.9792" y2="1051.2239" gradientTransform="matrix(0.75 0 0 0.75 -66.4417 -784.3318)">
	<stop  offset="0" style="stop-color:#457DAC"/>
	<stop  offset="0.15" style="stop-color:#73B1E9"/>
	<stop  offset="0.25" style="stop-color:#BED6F3"/>
	<stop  offset="0.52" style="stop-color:#5394CB"/>
	<stop  offset="0.69" style="stop-color:#4984B5"/>
	<stop  offset="0.8" style="stop-color:#447CAA"/>
	<stop  offset="0.92" style="stop-color:#4075A1"/>
	<stop  offset="1" style="stop-color:#4B87B9"/>
</linearGradient>
<path class="st36" d="M138.7,2.6h3.8v1.5h-3.8V2.6z"/>
<linearGradient id="SVGID_38_" gradientUnits="userSpaceOnUse" x1="275.9792" y1="1049.2216" x2="275.9792" y2="1051.2216" gradientTransform="matrix(0.75 0 0 0.75 -66.4417 -771.6931)">
	<stop  offset="0" style="stop-color:#457DAC"/>
	<stop  offset="0.15" style="stop-color:#73B1E9"/>
	<stop  offset="0.25" style="stop-color:#BED6F3"/>
	<stop  offset="0.52" style="stop-color:#5394CB"/>
	<stop  offset="0.69" style="stop-color:#4984B5"/>
	<stop  offset="0.8" style="stop-color:#447CAA"/>
	<stop  offset="0.92" style="stop-color:#4075A1"/>
	<stop  offset="1" style="stop-color:#4B87B9"/>
</linearGradient>
<path class="st37" d="M138.7,15.2h3.8v1.5h-3.8V15.2z"/>
<linearGradient id="SVGID_39_" gradientUnits="userSpaceOnUse" x1="275.9792" y1="1049.2246" x2="275.9792" y2="1051.2246" gradientTransform="matrix(0.75 0 0 0.75 -66.4417 -759.0544)">
	<stop  offset="0" style="stop-color:#457DAC"/>
	<stop  offset="0.15" style="stop-color:#73B1E9"/>
	<stop  offset="0.25" style="stop-color:#BED6F3"/>
	<stop  offset="0.52" style="stop-color:#5394CB"/>
	<stop  offset="0.69" style="stop-color:#4984B5"/>
	<stop  offset="0.8" style="stop-color:#447CAA"/>
	<stop  offset="0.92" style="stop-color:#4075A1"/>
	<stop  offset="1" style="stop-color:#4B87B9"/>
</linearGradient>
<path class="st38" d="M138.7,27.9h3.8v1.5h-3.8V27.9z"/>
<linearGradient id="SVGID_40_" gradientUnits="userSpaceOnUse" x1="275.9792" y1="1049.2224" x2="275.9792" y2="1051.2224" gradientTransform="matrix(0.75 0 0 0.75 -66.4417 -746.4167)">
	<stop  offset="0" style="stop-color:#457DAC"/>
	<stop  offset="0.15" style="stop-color:#73B1E9"/>
	<stop  offset="0.25" style="stop-color:#BED6F3"/>
	<stop  offset="0.52" style="stop-color:#5394CB"/>
	<stop  offset="0.69" style="stop-color:#4984B5"/>
	<stop  offset="0.8" style="stop-color:#447CAA"/>
	<stop  offset="0.92" style="stop-color:#4075A1"/>
	<stop  offset="1" style="stop-color:#4B87B9"/>
</linearGradient>
<path class="st39" d="M138.7,40.5h3.8V42h-3.8V40.5z"/>
<linearGradient id="SVGID_41_" gradientUnits="userSpaceOnUse" x1="275.9792" y1="1049.2216" x2="275.9792" y2="1051.2216" gradientTransform="matrix(0.75 0 0 0.75 -66.4417 -752.7361)">
	<stop  offset="0" style="stop-color:#457DAC"/>
	<stop  offset="0.15" style="stop-color:#73B1E9"/>
	<stop  offset="0.25" style="stop-color:#BED6F3"/>
	<stop  offset="0.52" style="stop-color:#5394CB"/>
	<stop  offset="0.69" style="stop-color:#4984B5"/>
	<stop  offset="0.8" style="stop-color:#447CAA"/>
	<stop  offset="0.92" style="stop-color:#4075A1"/>
	<stop  offset="1" style="stop-color:#4B87B9"/>
</linearGradient>
<path class="st40" d="M138.7,34.2h3.8v1.5h-3.8V34.2z"/>
<linearGradient id="SVGID_42_" gradientUnits="userSpaceOnUse" x1="275.9792" y1="1049.2261" x2="275.9792" y2="1051.2261" gradientTransform="matrix(0.75 0 0 0.75 -66.4417 -778.0125)">
	<stop  offset="0" style="stop-color:#457DAC"/>
	<stop  offset="0.15" style="stop-color:#73B1E9"/>
	<stop  offset="0.25" style="stop-color:#BED6F3"/>
	<stop  offset="0.52" style="stop-color:#5394CB"/>
	<stop  offset="0.69" style="stop-color:#4984B5"/>
	<stop  offset="0.8" style="stop-color:#447CAA"/>
	<stop  offset="0.92" style="stop-color:#4075A1"/>
	<stop  offset="1" style="stop-color:#4B87B9"/>
</linearGradient>
<path class="st41" d="M138.7,8.9h3.8v1.5h-3.8V8.9z"/>
<linearGradient id="SVGID_43_" gradientUnits="userSpaceOnUse" x1="275.9792" y1="1049.2239" x2="275.9792" y2="1051.2239" gradientTransform="matrix(0.75 0 0 0.75 -66.4417 -765.3748)">
	<stop  offset="0" style="stop-color:#457DAC"/>
	<stop  offset="0.15" style="stop-color:#73B1E9"/>
	<stop  offset="0.25" style="stop-color:#BED6F3"/>
	<stop  offset="0.52" style="stop-color:#5394CB"/>
	<stop  offset="0.69" style="stop-color:#4984B5"/>
	<stop  offset="0.8" style="stop-color:#447CAA"/>
	<stop  offset="0.92" style="stop-color:#4075A1"/>
	<stop  offset="1" style="stop-color:#4B87B9"/>
</linearGradient>
<path class="st42" d="M138.7,21.5h3.8V23h-3.8V21.5z"/>
</svg>
