<?xml version="1.0" encoding="utf-8"?>
<!-- Generator: Adobe Illustrator 25.0.0, SVG Export Plug-In . SVG Version: 6.00 Build 0)  -->
<svg version="1.1" id="图层_1" xmlns="http://www.w3.org/2000/svg" xmlns:xlink="http://www.w3.org/1999/xlink" x="0px" y="0px"
	 viewBox="0 0 293 567" style="enable-background:new 0 0 293 567;" xml:space="preserve">
<style type="text/css">
	.st0{fill:url(#SVGID_1_);}
	.st1{fill:url(#SVGID_2_);}
	.st2{fill:url(#SVGID_3_);}
	.st3{fill:url(#SVGID_4_);}
	.st4{fill:url(#SVGID_5_);}
	.st5{fill:url(#SVGID_6_);}
	.st6{fill:url(#SVGID_7_);}
	.st7{fill:url(#SVGID_8_);}
	.st8{fill:url(#SVGID_9_);}
	.st9{fill:url(#SVGID_10_);}
	.st10{fill:url(#SVGID_11_);}
	.st11{fill:url(#SVGID_12_);}
	.st12{fill:url(#SVGID_13_);}
	.st13{fill:url(#SVGID_14_);}
	.st14{fill:url(#SVGID_15_);}
	.st15{fill:url(#SVGID_16_);}
	.st16{fill:url(#SVGID_17_);}
	.st17{fill:url(#SVGID_18_);}
	.st18{fill:url(#SVGID_19_);}
	.st19{fill:#632B30;}
	.st20{fill:url(#SVGID_20_);}
	.st21{fill:url(#SVGID_21_);}
	.st22{fill:url(#SVGID_22_);}
	.st23{fill:url(#SVGID_23_);}
	.st24{fill:url(#SVGID_24_);}
	.st25{fill:url(#SVGID_25_);}
	.st26{fill:url(#SVGID_26_);}
	.st27{fill:url(#SVGID_27_);}
	.st28{fill:url(#SVGID_28_);}
	.st29{fill:url(#SVGID_29_);}
	.st30{fill:url(#SVGID_30_);}
	.st31{fill:url(#SVGID_31_);}
	.st32{fill:url(#SVGID_32_);}
	.st33{fill:url(#SVGID_33_);}
	.st34{fill:url(#SVGID_34_);}
	.st35{fill:url(#SVGID_35_);}
	.st36{fill:url(#SVGID_36_);}
	.st37{fill:url(#SVGID_37_);}
	.st38{fill:url(#SVGID_38_);}
	.st39{fill:url(#SVGID_39_);}
</style>
<linearGradient id="SVGID_1_" gradientUnits="userSpaceOnUse" x1="357.3626" y1="607.7941" x2="19.3626" y2="607.7941" gradientTransform="matrix(0.75 0 0 0.75 5.2953 -251.8173)">
	<stop  offset="0" style="stop-color:#9DA6B2"/>
	<stop  offset="9.000000e-02" style="stop-color:#A0A9B4"/>
	<stop  offset="0.36" style="stop-color:#C5D0DE"/>
	<stop  offset="0.56" style="stop-color:#B1BBC8"/>
	<stop  offset="0.83" style="stop-color:#8E96A1"/>
	<stop  offset="1" style="stop-color:#656B72"/>
</linearGradient>
<path class="st0" d="M19.8,210.8h253.5v-13.5H19.8V210.8z"/>
<linearGradient id="SVGID_2_" gradientUnits="userSpaceOnUse" x1="150.3641" y1="620.2908" x2="19.3641" y2="620.2908" gradientTransform="matrix(0.75 0 0 0.75 83.0052 -283.9198)">
	<stop  offset="0" style="stop-color:#9DA6B2"/>
	<stop  offset="9.000000e-02" style="stop-color:#A0A9B4"/>
	<stop  offset="0.36" style="stop-color:#C5D0DE"/>
	<stop  offset="0.56" style="stop-color:#B1BBC8"/>
	<stop  offset="0.83" style="stop-color:#8E96A1"/>
	<stop  offset="1" style="stop-color:#656B72"/>
</linearGradient>
<path class="st1" d="M97.5,197.4h98.2v-32.2H97.5V197.4z"/>
<linearGradient id="SVGID_3_" gradientUnits="userSpaceOnUse" x1="357.3649" y1="602.7886" x2="19.3649" y2="602.7886" gradientTransform="matrix(0.75 0 0 0.75 5.1766 -241.9032)">
	<stop  offset="0" style="stop-color:#636E7D"/>
	<stop  offset="0.15" style="stop-color:#929FB1"/>
	<stop  offset="0.25" style="stop-color:#A4AEBC"/>
	<stop  offset="0.52" style="stop-color:#758394"/>
	<stop  offset="0.69" style="stop-color:#687484"/>
	<stop  offset="0.8" style="stop-color:#626D7C"/>
	<stop  offset="0.92" style="stop-color:#5C6675"/>
	<stop  offset="1" style="stop-color:#6A7787"/>
</linearGradient>
<path class="st2" d="M19.7,207.2h253.5v6H19.7L19.7,207.2L19.7,207.2z"/>
<linearGradient id="SVGID_4_" gradientUnits="userSpaceOnUse" x1="410.3618" y1="609.2925" x2="19.3618" y2="609.2925" gradientTransform="matrix(0.75 0 0 0.75 -14.6891 -239.0311)">
	<stop  offset="0" style="stop-color:#9DA6B2"/>
	<stop  offset="9.000000e-02" style="stop-color:#A0A9B4"/>
	<stop  offset="0.36" style="stop-color:#C5D0DE"/>
	<stop  offset="0.56" style="stop-color:#B1BBC8"/>
	<stop  offset="0.83" style="stop-color:#8E96A1"/>
	<stop  offset="1" style="stop-color:#656B72"/>
</linearGradient>
<path class="st3" d="M-0.2,210.1h293.2v15.8H-0.2V210.1z"/>
<linearGradient id="SVGID_5_" gradientUnits="userSpaceOnUse" x1="443.031" y1="839.5037" x2="-9.0269" y2="759.7935" gradientTransform="matrix(0.75 0 0 0.75 -14.6891 -223.2596)">
	<stop  offset="0" style="stop-color:#9DA6B2"/>
	<stop  offset="9.000000e-02" style="stop-color:#A0A9B4"/>
	<stop  offset="0.36" style="stop-color:#C5D0DE"/>
	<stop  offset="0.56" style="stop-color:#B1BBC8"/>
	<stop  offset="0.83" style="stop-color:#8E96A1"/>
	<stop  offset="1" style="stop-color:#656B72"/>
</linearGradient>
<path class="st4" d="M293.1,225.8L186.6,545.3h-80.2L-0.2,225.8L293.1,225.8L293.1,225.8z"/>
<linearGradient id="SVGID_6_" gradientUnits="userSpaceOnUse" x1="125.3599" y1="607.2886" x2="19.3599" y2="607.2886" gradientTransform="matrix(0.75 0 0 0.75 92.2733 93.8468)">
	<stop  offset="0" style="stop-color:#9DA6B2"/>
	<stop  offset="9.000000e-02" style="stop-color:#A0A9B4"/>
	<stop  offset="0.36" style="stop-color:#C5D0DE"/>
	<stop  offset="0.56" style="stop-color:#B1BBC8"/>
	<stop  offset="0.83" style="stop-color:#8E96A1"/>
	<stop  offset="1" style="stop-color:#656B72"/>
</linearGradient>
<path class="st5" d="M106.8,542.9h79.5v12.8h-79.5L106.8,542.9L106.8,542.9z"/>
<linearGradient id="SVGID_7_" gradientUnits="userSpaceOnUse" x1="173.1521" y1="608.3405" x2="19.3652" y2="608.3406" gradientTransform="matrix(0.75 0 0 0.75 74.3827 103.8087)">
	<stop  offset="0" style="stop-color:#9DA6B2"/>
	<stop  offset="9.000000e-02" style="stop-color:#A0A9B4"/>
	<stop  offset="0.36" style="stop-color:#C5D0DE"/>
	<stop  offset="0.56" style="stop-color:#B1BBC8"/>
	<stop  offset="0.83" style="stop-color:#8E96A1"/>
	<stop  offset="1" style="stop-color:#656B72"/>
</linearGradient>
<path class="st6" d="M91.9,552.9h108.8c2.2,0,3.6,3.2,3.6,7.2c0.2,4.1-1.5,7.2-3.3,7.2l-109-0.1c-1.5,0-3-3.1-3-7.1
	c0-4.2,1.4-7.2,3.3-7.2H91.9z"/>
<linearGradient id="SVGID_8_" gradientUnits="userSpaceOnUse" x1="410.3618" y1="602.7905" x2="19.3618" y2="602.7905" gradientTransform="matrix(0.75 0 0 0.75 -14.6891 -226.3456)">
	<stop  offset="0" style="stop-color:#636E7D"/>
	<stop  offset="0.15" style="stop-color:#929FB1"/>
	<stop  offset="0.25" style="stop-color:#A4AEBC"/>
	<stop  offset="0.52" style="stop-color:#758394"/>
	<stop  offset="0.69" style="stop-color:#687484"/>
	<stop  offset="0.8" style="stop-color:#626D7C"/>
	<stop  offset="0.92" style="stop-color:#5C6675"/>
	<stop  offset="1" style="stop-color:#6A7787"/>
</linearGradient>
<path class="st7" d="M-0.2,222.7h293.2v6H-0.2V222.7z"/>
<linearGradient id="SVGID_9_" gradientUnits="userSpaceOnUse" x1="9.2096" y1="582.6419" x2="9.2096" y2="676.6419" gradientTransform="matrix(0 -0.75 -0.75 0 618.7157 127.3575)">
	<stop  offset="0" style="stop-color:#9DA6B2"/>
	<stop  offset="9.000000e-02" style="stop-color:#A0A9B4"/>
	<stop  offset="0.36" style="stop-color:#C5D0DE"/>
	<stop  offset="0.56" style="stop-color:#B1BBC8"/>
	<stop  offset="0.83" style="stop-color:#8E96A1"/>
	<stop  offset="1" style="stop-color:#656B72"/>
</linearGradient>
<path class="st8" d="M181.7,123.5V116h-70.5v7.5c0,0.8,1,1.5,1.9,1.5h67.1c0.8,0,1.5-0.7,1.5-1.7V123.5z"/>
<linearGradient id="SVGID_10_" gradientUnits="userSpaceOnUse" x1="54.2092" y1="582.6403" x2="54.2092" y2="679.6403" gradientTransform="matrix(0 -0.75 -0.75 0 620.0585 114.0802)">
	<stop  offset="0" style="stop-color:#4C4C4C"/>
	<stop  offset="0.4949" style="stop-color:#F7194E"/>
	<stop  offset="1" style="stop-color:#444444"/>
</linearGradient>
<path class="st9" d="M183.1,111.7V35.2h-72.8v76.5H183.1z"/>
<linearGradient id="SVGID_11_" gradientUnits="userSpaceOnUse" x1="28.2668" y1="582.6415" x2="28.2668" y2="680.0934" gradientTransform="matrix(0 -0.75 -0.75 0 620.0594 40.2794)">
	<stop  offset="0" style="stop-color:#4C4C4C"/>
	<stop  offset="0.4949" style="stop-color:#F7194E"/>
	<stop  offset="1" style="stop-color:#444444"/>
</linearGradient>
<path class="st10" d="M183.1,37.9V11.6c0,0,0-11.2-36.5-11.3C110.3,0.4,110,11.4,110,11.4l0.3,26.4H183.1z"/>
<linearGradient id="SVGID_12_" gradientUnits="userSpaceOnUse" x1="369.7041" y1="582.6359" x2="369.7041" y2="685.6359" gradientTransform="matrix(0 0.75 -0.75 0 622.0712 -163.5323)">
	<stop  offset="0" style="stop-color:#717781"/>
	<stop  offset="9.000000e-02" style="stop-color:#737983"/>
	<stop  offset="0.3377" style="stop-color:#FFFFFF"/>
	<stop  offset="0.56" style="stop-color:#808792"/>
	<stop  offset="0.83" style="stop-color:#666C74"/>
	<stop  offset="1" style="stop-color:#474B52"/>
</linearGradient>
<path class="st11" d="M185.1,112.3v3c0,0-0.3,0.7-0.8,0.7l-75.7,0.1c0,0-0.5-0.4-0.5-0.8l-0.2-2.9c0-0.8,0.6-0.8,1-0.8l75.5,0
	C185.1,111.5,185.1,111.8,185.1,112.3L185.1,112.3L185.1,112.3z"/>
<linearGradient id="SVGID_13_" gradientUnits="userSpaceOnUse" x1="368.6956" y1="582.6414" x2="368.6956" y2="685.0894" gradientTransform="matrix(0 0.75 -0.75 0 621.9813 -161.8004)">
	<stop  offset="0" style="stop-color:#9DA6B2"/>
	<stop  offset="9.000000e-02" style="stop-color:#A0A9B4"/>
	<stop  offset="0.36" style="stop-color:#C5D0DE"/>
	<stop  offset="0.56" style="stop-color:#B1BBC8"/>
	<stop  offset="0.83" style="stop-color:#8E96A1"/>
	<stop  offset="1" style="stop-color:#656B72"/>
</linearGradient>
<path class="st12" d="M185,114c0,1.5-0.3,1.9-0.8,1.9l-75,0.3c-0.8,0-1.1-0.8-1.1-1.3c0.3-0.9,0.4-1.7,0.8-1.7l75.3,0
	c0.8,0,0.8,0.4,0.8,0.9L185,114L185,114z"/>
<linearGradient id="SVGID_14_" gradientUnits="userSpaceOnUse" x1="46.2079" y1="582.6056" x2="46.2079" y2="585.8909" gradientTransform="matrix(0 -0.75 -0.75 0 603.6805 105.9572)">
	<stop  offset="0" style="stop-color:#4C4C4C"/>
	<stop  offset="0.4949" style="stop-color:#F7194E"/>
	<stop  offset="1" style="stop-color:#444444"/>
</linearGradient>
<path class="st13" d="M166.7,102.8v-63c0,0-0.3-0.6-0.7-0.6l-0.8-0.2c-0.8,0-0.9,0.4-0.9,0.8l0.2,63c0,0.8,0.2,0.8,0.6,0.8h0.9
	c0.8,0,0.8-0.3,0.8-0.6L166.7,102.8z"/>
<linearGradient id="SVGID_15_" gradientUnits="userSpaceOnUse" x1="46.2079" y1="582.6067" x2="46.2079" y2="585.892" gradientTransform="matrix(0 -0.75 -0.75 0 596.5013 105.9572)">
	<stop  offset="0" style="stop-color:#4C4C4C"/>
	<stop  offset="0.4949" style="stop-color:#F7194E"/>
	<stop  offset="1" style="stop-color:#444444"/>
</linearGradient>
<path class="st14" d="M159.5,102.8v-63c0,0-0.3-0.6-0.7-0.6l-0.8-0.2c-0.8,0-0.9,0.4-0.9,0.8l0.2,63c0,0.8,0.2,0.8,0.6,0.8h0.9
	c0.8,0,0.8-0.3,0.8-0.6L159.5,102.8z"/>
<linearGradient id="SVGID_16_" gradientUnits="userSpaceOnUse" x1="46.2079" y1="582.6052" x2="46.2079" y2="585.8906" gradientTransform="matrix(0 -0.75 -0.75 0 589.3212 105.9572)">
	<stop  offset="0" style="stop-color:#4C4C4C"/>
	<stop  offset="0.4949" style="stop-color:#F7194E"/>
	<stop  offset="1" style="stop-color:#444444"/>
</linearGradient>
<path class="st15" d="M152.3,102.8v-63c0,0-0.3-0.6-0.7-0.6l-0.8-0.2c-0.8,0-0.9,0.4-0.9,0.8l0.2,63c0,0.8,0.2,0.8,0.6,0.8h0.9
	c0.8,0,0.8-0.3,0.8-0.6L152.3,102.8z"/>
<linearGradient id="SVGID_17_" gradientUnits="userSpaceOnUse" x1="46.2079" y1="582.6043" x2="46.2079" y2="585.8896" gradientTransform="matrix(0 -0.75 -0.75 0 582.1415 105.9572)">
	<stop  offset="0" style="stop-color:#4C4C4C"/>
	<stop  offset="0.4949" style="stop-color:#F7194E"/>
	<stop  offset="1" style="stop-color:#444444"/>
</linearGradient>
<path class="st16" d="M145.2,102.8v-63c0,0-0.3-0.6-0.7-0.6l-0.8-0.2c-0.8,0-0.9,0.4-0.9,0.8l0.2,63c0,0.8,0.2,0.8,0.6,0.8h0.9
	c0.8,0,0.8-0.3,0.8-0.6L145.2,102.8z"/>
<linearGradient id="SVGID_18_" gradientUnits="userSpaceOnUse" x1="46.2079" y1="582.6047" x2="46.2079" y2="585.89" gradientTransform="matrix(0 -0.75 -0.75 0 574.9618 105.9572)">
	<stop  offset="0" style="stop-color:#4C4C4C"/>
	<stop  offset="0.4949" style="stop-color:#F7194E"/>
	<stop  offset="1" style="stop-color:#444444"/>
</linearGradient>
<path class="st17" d="M138,102.8v-63c0,0-0.3-0.6-0.7-0.6l-0.8-0.2c-0.8,0-0.9,0.4-0.9,0.8l0.2,63c0,0.8,0.2,0.8,0.6,0.8h0.9
	c0.8,0,0.8-0.3,0.8-0.6L138,102.8z"/>
<linearGradient id="SVGID_19_" gradientUnits="userSpaceOnUse" x1="46.2079" y1="582.6051" x2="46.2079" y2="585.8904" gradientTransform="matrix(0 -0.75 -0.75 0 567.7821 105.9572)">
	<stop  offset="0" style="stop-color:#4C4C4C"/>
	<stop  offset="0.4949" style="stop-color:#F7194E"/>
	<stop  offset="1" style="stop-color:#444444"/>
</linearGradient>
<path class="st18" d="M130.8,102.8v-63c0,0-0.3-0.6-0.7-0.6l-0.8-0.2c-0.8,0-0.9,0.4-0.9,0.8l0.2,63c0,0.8,0.2,0.8,0.6,0.8h0.9
	c0.8,0,0.8-0.3,0.8-0.6L130.8,102.8z"/>
<path class="st19" d="M195.8,110.8V73.3L183,77.8v29.2L195.8,110.8z"/>
<linearGradient id="SVGID_20_" gradientUnits="userSpaceOnUse" x1="29.2092" y1="582.6384" x2="29.2092" y2="586.1331" gradientTransform="matrix(0 -0.75 -0.75 0 634.5341 114.0802)">
	<stop  offset="0" style="stop-color:#4C4C4C"/>
	<stop  offset="0.4949" style="stop-color:#F7194E"/>
	<stop  offset="1" style="stop-color:#444444"/>
</linearGradient>
<path class="st20" d="M197.6,111.7V73.4c0-0.8-0.2-0.6-0.4-0.6l-1.9-0.2c0,0-0.4,0.4-0.4,0.6l0.4,38.4c0,0-0.2,0,0,0h1.5
	c0.8,0,0.8-0.2,0.8-0.4V111.7z"/>
<path class="st19" d="M124,100.5V42.8h-12.8v57.8H124z"/>
<linearGradient id="SVGID_21_" gradientUnits="userSpaceOnUse" x1="41.7072" y1="582.6387" x2="41.7072" y2="587.6387" gradientTransform="matrix(0 -0.75 -0.75 0 548.6283 102.9337)">
	<stop  offset="0" style="stop-color:#4C4C4C"/>
	<stop  offset="0.4949" style="stop-color:#F7194E"/>
	<stop  offset="1" style="stop-color:#444444"/>
</linearGradient>
<path class="st21" d="M111.6,100.5V42.8h-3.8v57.8H111.6z"/>
<linearGradient id="SVGID_22_" gradientUnits="userSpaceOnUse" x1="113.362" y1="599.7939" x2="19.362" y2="599.7939" gradientTransform="matrix(0.75 0 0 0.75 96.9208 -325.8602)">
	<stop  offset="0" style="stop-color:#717781"/>
	<stop  offset="9.000000e-02" style="stop-color:#737983"/>
	<stop  offset="0.36" style="stop-color:#8E96A2"/>
	<stop  offset="0.56" style="stop-color:#808792"/>
	<stop  offset="0.83" style="stop-color:#666C74"/>
	<stop  offset="1" style="stop-color:#474B52"/>
</linearGradient>
<path class="st22" d="M111.4,123.2h70.5v1.5h-70.5V123.2z"/>
<linearGradient id="SVGID_23_" gradientUnits="userSpaceOnUse" x1="131.4758" y1="602.2955" x2="19.3612" y2="602.2955" gradientTransform="matrix(0.75 0 0 0.75 90.0194 -324.3143)">
	<stop  offset="0" style="stop-color:#9DA6B2"/>
	<stop  offset="9.000000e-02" style="stop-color:#A0A9B4"/>
	<stop  offset="0.36" style="stop-color:#C5D0DE"/>
	<stop  offset="0.56" style="stop-color:#B1BBC8"/>
	<stop  offset="0.83" style="stop-color:#8E96A1"/>
	<stop  offset="1" style="stop-color:#656B72"/>
</linearGradient>
<path class="st23" d="M107.5,124.8h78.7c1.5,0,2.3,1.2,2.3,2.6c-0.1,1.1-1.2,2.7-2.7,2.7l-78.4,0c-1.5,0-3-1.2-3-2.6
	c0-1.1,1.2-2.7,2.7-2.7L107.5,124.8z"/>
<linearGradient id="SVGID_24_" gradientUnits="userSpaceOnUse" x1="110.3323" y1="35.0203" x2="183.0823" y2="35.0203">
	<stop  offset="0" style="stop-color:#717781"/>
	<stop  offset="9.000000e-02" style="stop-color:#737983"/>
	<stop  offset="0.3377" style="stop-color:#FFFFFF"/>
	<stop  offset="0.56" style="stop-color:#808792"/>
	<stop  offset="0.83" style="stop-color:#666C74"/>
	<stop  offset="1" style="stop-color:#474B52"/>
</linearGradient>
<path class="st24" d="M183.1,35.8v-1.5h-72.8v1.5H183.1z"/>
<linearGradient id="SVGID_25_" gradientUnits="userSpaceOnUse" x1="103.363" y1="606.7906" x2="19.363" y2="606.7906" gradientTransform="matrix(0.75 0 0 0.75 100.494 -319.7557)">
	<stop  offset="0" style="stop-color:#9DA6B2"/>
	<stop  offset="9.000000e-02" style="stop-color:#A0A9B4"/>
	<stop  offset="0.36" style="stop-color:#C5D0DE"/>
	<stop  offset="0.56" style="stop-color:#B1BBC8"/>
	<stop  offset="0.83" style="stop-color:#8E96A1"/>
	<stop  offset="1" style="stop-color:#656B72"/>
</linearGradient>
<path class="st25" d="M115,141.3h63v-12h-63V141.3z"/>
<linearGradient id="SVGID_26_" gradientUnits="userSpaceOnUse" x1="167.3638" y1="615.2902" x2="19.3638" y2="615.2902" gradientTransform="matrix(0.75 0 0 0.75 76.4584 -307.8104)">
	<stop  offset="0" style="stop-color:#9DA6B2"/>
	<stop  offset="9.000000e-02" style="stop-color:#A0A9B4"/>
	<stop  offset="0.36" style="stop-color:#C5D0DE"/>
	<stop  offset="0.56" style="stop-color:#B1BBC8"/>
	<stop  offset="0.83" style="stop-color:#8E96A1"/>
	<stop  offset="1" style="stop-color:#656B72"/>
</linearGradient>
<path class="st26" d="M91,166h111v-24.8H91V166z"/>
<linearGradient id="SVGID_27_" gradientUnits="userSpaceOnUse" x1="150.3641" y1="600.2908" x2="19.3641" y2="600.2908" gradientTransform="matrix(0.75 0 0 0.75 83.0052 -283.9198)">
	<stop  offset="0" style="stop-color:#636E7D"/>
	<stop  offset="0.15" style="stop-color:#929FB1"/>
	<stop  offset="0.25" style="stop-color:#A4AEBC"/>
	<stop  offset="0.52" style="stop-color:#758394"/>
	<stop  offset="0.69" style="stop-color:#687484"/>
	<stop  offset="0.8" style="stop-color:#626D7C"/>
	<stop  offset="0.92" style="stop-color:#5C6675"/>
	<stop  offset="1" style="stop-color:#6A7787"/>
</linearGradient>
<path class="st27" d="M97.5,167.4h98.2v-2.2H97.5V167.4z"/>
<linearGradient id="SVGID_28_" gradientUnits="userSpaceOnUse" x1="21.2236" y1="582.6092" x2="21.2236" y2="585.8946" gradientTransform="matrix(0 -0.75 -0.75 0 580.2582 169.381)">
	<stop  offset="0" style="stop-color:#9DA6B2"/>
	<stop  offset="9.000000e-02" style="stop-color:#A0A9B4"/>
	<stop  offset="0.36" style="stop-color:#C5D0DE"/>
	<stop  offset="0.56" style="stop-color:#B1BBC8"/>
	<stop  offset="0.83" style="stop-color:#8E96A1"/>
	<stop  offset="1" style="stop-color:#656B72"/>
</linearGradient>
<path class="st28" d="M143.3,167v-27c0,0-0.3,0-0.7,0l-0.8,0c-0.8,0-0.9,0.1-0.9,0.2L141,167c0,0,0.2,0,0.6,0h0.9
	c0.8,0,0.8-0.1,0.8-0.2L143.3,167z"/>
<linearGradient id="SVGID_29_" gradientUnits="userSpaceOnUse" x1="21.2236" y1="582.6061" x2="21.2236" y2="585.8915" gradientTransform="matrix(0 -0.75 -0.75 0 570.9779 169.381)">
	<stop  offset="0" style="stop-color:#9DA6B2"/>
	<stop  offset="9.000000e-02" style="stop-color:#A0A9B4"/>
	<stop  offset="0.36" style="stop-color:#C5D0DE"/>
	<stop  offset="0.56" style="stop-color:#B1BBC8"/>
	<stop  offset="0.83" style="stop-color:#8E96A1"/>
	<stop  offset="1" style="stop-color:#656B72"/>
</linearGradient>
<path class="st29" d="M134,167v-27c0,0-0.3,0-0.7,0l-0.8,0c-0.8,0-0.9,0.1-0.9,0.2l0.2,26.8c0,0,0.2,0,0.6,0h0.9
	c0.8,0,0.8-0.1,0.8-0.2L134,167z"/>
<linearGradient id="SVGID_30_" gradientUnits="userSpaceOnUse" x1="21.2236" y1="582.6064" x2="21.2236" y2="585.8918" gradientTransform="matrix(0 -0.75 -0.75 0 561.6971 169.381)">
	<stop  offset="0" style="stop-color:#9DA6B2"/>
	<stop  offset="9.000000e-02" style="stop-color:#A0A9B4"/>
	<stop  offset="0.36" style="stop-color:#C5D0DE"/>
	<stop  offset="0.56" style="stop-color:#B1BBC8"/>
	<stop  offset="0.83" style="stop-color:#8E96A1"/>
	<stop  offset="1" style="stop-color:#656B72"/>
</linearGradient>
<path class="st30" d="M124.7,167v-27c0,0-0.3,0-0.7,0l-0.8,0c-0.8,0-0.9,0.1-0.9,0.2l0.2,26.8c0,0,0.2,0,0.6,0h0.9
	c0.8,0,0.8-0.1,0.8-0.2L124.7,167z"/>
<linearGradient id="SVGID_31_" gradientUnits="userSpaceOnUse" x1="21.2236" y1="582.6075" x2="21.2236" y2="585.8928" gradientTransform="matrix(0 -0.75 -0.75 0 552.4169 169.381)">
	<stop  offset="0" style="stop-color:#9DA6B2"/>
	<stop  offset="9.000000e-02" style="stop-color:#A0A9B4"/>
	<stop  offset="0.36" style="stop-color:#C5D0DE"/>
	<stop  offset="0.56" style="stop-color:#B1BBC8"/>
	<stop  offset="0.83" style="stop-color:#8E96A1"/>
	<stop  offset="1" style="stop-color:#656B72"/>
</linearGradient>
<path class="st31" d="M115.4,167v-27c0,0-0.3,0-0.7,0l-0.8,0c-0.8,0-0.9,0.1-0.9,0.2l0.2,26.8c0,0,0.2,0,0.6,0h0.9
	c0.8,0,0.8-0.1,0.8-0.2L115.4,167z"/>
<linearGradient id="SVGID_32_" gradientUnits="userSpaceOnUse" x1="21.2236" y1="582.6091" x2="21.2236" y2="585.8944" gradientTransform="matrix(0 -0.75 -0.75 0 543.1371 169.381)">
	<stop  offset="0" style="stop-color:#9DA6B2"/>
	<stop  offset="9.000000e-02" style="stop-color:#A0A9B4"/>
	<stop  offset="0.36" style="stop-color:#C5D0DE"/>
	<stop  offset="0.56" style="stop-color:#B1BBC8"/>
	<stop  offset="0.83" style="stop-color:#8E96A1"/>
	<stop  offset="1" style="stop-color:#656B72"/>
</linearGradient>
<path class="st32" d="M106.2,167v-27c0,0-0.3,0-0.7,0l-0.8,0c-0.8,0-0.9,0.1-0.9,0.2l0.2,26.8c0,0,0.2,0,0.6,0h0.9
	c0.8,0,0.8-0.1,0.8-0.2L106.2,167z"/>
<linearGradient id="SVGID_33_" gradientUnits="userSpaceOnUse" x1="21.2238" y1="582.6053" x2="21.2238" y2="585.8907" gradientTransform="matrix(0 -0.75 -0.75 0 533.8563 169.3771)">
	<stop  offset="0" style="stop-color:#9DA6B2"/>
	<stop  offset="9.000000e-02" style="stop-color:#A0A9B4"/>
	<stop  offset="0.36" style="stop-color:#C5D0DE"/>
	<stop  offset="0.56" style="stop-color:#B1BBC8"/>
	<stop  offset="0.83" style="stop-color:#8E96A1"/>
	<stop  offset="1" style="stop-color:#656B72"/>
</linearGradient>
<path class="st33" d="M96.9,167v-27c0,0-0.3,0-0.7,0l-0.8,0c-0.8,0-0.9,0.1-0.9,0.2l0.2,26.8c0,0,0.2,0,0.6,0h0.9
	c0.8,0,0.8-0.1,0.8-0.2L96.9,167z"/>
<linearGradient id="SVGID_34_" gradientUnits="userSpaceOnUse" x1="21.2238" y1="582.6061" x2="21.2238" y2="585.8915" gradientTransform="matrix(0 -0.75 -0.75 0 589.5399 169.3771)">
	<stop  offset="0" style="stop-color:#9DA6B2"/>
	<stop  offset="9.000000e-02" style="stop-color:#A0A9B4"/>
	<stop  offset="0.36" style="stop-color:#C5D0DE"/>
	<stop  offset="0.56" style="stop-color:#B1BBC8"/>
	<stop  offset="0.83" style="stop-color:#8E96A1"/>
	<stop  offset="1" style="stop-color:#656B72"/>
</linearGradient>
<path class="st34" d="M152.6,167v-27c0,0-0.3,0-0.7,0l-0.8,0c-0.8,0-0.9,0.1-0.9,0.2l0.2,26.8c0,0,0.1,0,0.6,0h0.9
	c0.8,0,0.8-0.1,0.8-0.2L152.6,167z"/>
<linearGradient id="SVGID_35_" gradientUnits="userSpaceOnUse" x1="21.2226" y1="582.6089" x2="21.2226" y2="585.8943" gradientTransform="matrix(0 -0.75 -0.75 0 598.828 169.3732)">
	<stop  offset="0" style="stop-color:#9DA6B2"/>
	<stop  offset="9.000000e-02" style="stop-color:#A0A9B4"/>
	<stop  offset="0.36" style="stop-color:#C5D0DE"/>
	<stop  offset="0.56" style="stop-color:#B1BBC8"/>
	<stop  offset="0.83" style="stop-color:#8E96A1"/>
	<stop  offset="1" style="stop-color:#656B72"/>
</linearGradient>
<path class="st35" d="M161.8,167v-27c0,0-0.3,0-0.7,0l-0.8,0c-0.8,0-0.9,0.1-0.9,0.2l0.2,26.8c0,0,0.2,0,0.6,0h0.9
	c0.8,0,0.8-0.1,0.8-0.2L161.8,167z"/>
<linearGradient id="SVGID_36_" gradientUnits="userSpaceOnUse" x1="21.2231" y1="582.6082" x2="21.2231" y2="585.8935" gradientTransform="matrix(0 -0.75 -0.75 0 608.1434 169.3966)">
	<stop  offset="0" style="stop-color:#9DA6B2"/>
	<stop  offset="9.000000e-02" style="stop-color:#A0A9B4"/>
	<stop  offset="0.36" style="stop-color:#C5D0DE"/>
	<stop  offset="0.56" style="stop-color:#B1BBC8"/>
	<stop  offset="0.83" style="stop-color:#8E96A1"/>
	<stop  offset="1" style="stop-color:#656B72"/>
</linearGradient>
<path class="st36" d="M171.2,167v-27c0,0-0.3,0-0.7,0l-0.8,0c-0.8,0-0.9,0.1-0.9,0.2l0.2,26.8c0,0,0.2,0,0.6,0h0.9
	c0.8,0,0.8-0.1,0.8-0.2L171.2,167z"/>
<linearGradient id="SVGID_37_" gradientUnits="userSpaceOnUse" x1="21.2238" y1="582.6075" x2="21.2238" y2="585.8928" gradientTransform="matrix(0 -0.75 -0.75 0 617.4589 169.3741)">
	<stop  offset="0" style="stop-color:#9DA6B2"/>
	<stop  offset="9.000000e-02" style="stop-color:#A0A9B4"/>
	<stop  offset="0.36" style="stop-color:#C5D0DE"/>
	<stop  offset="0.56" style="stop-color:#B1BBC8"/>
	<stop  offset="0.83" style="stop-color:#8E96A1"/>
	<stop  offset="1" style="stop-color:#656B72"/>
</linearGradient>
<path class="st37" d="M180.5,167v-27c0,0-0.3,0-0.7,0l-0.8,0c-0.8,0-0.9,0.1-0.9,0.2l0.2,26.8c0,0,0.2,0,0.6,0h0.9
	c0.8,0,0.8-0.1,0.8-0.2L180.5,167z"/>
<linearGradient id="SVGID_38_" gradientUnits="userSpaceOnUse" x1="21.2224" y1="582.6088" x2="21.2224" y2="585.8942" gradientTransform="matrix(0 -0.75 -0.75 0 626.7489 169.3986)">
	<stop  offset="0" style="stop-color:#9DA6B2"/>
	<stop  offset="9.000000e-02" style="stop-color:#A0A9B4"/>
	<stop  offset="0.36" style="stop-color:#C5D0DE"/>
	<stop  offset="0.56" style="stop-color:#B1BBC8"/>
	<stop  offset="0.83" style="stop-color:#8E96A1"/>
	<stop  offset="1" style="stop-color:#656B72"/>
</linearGradient>
<path class="st38" d="M189.8,167v-27c0,0-0.3,0-0.7,0l-0.8,0c-0.8,0-0.9,0.1-0.9,0.2l0.2,26.8c0,0,0.2,0,0.6,0h0.9
	c0.8,0,0.8-0.1,0.8-0.2L189.8,167z"/>
<linearGradient id="SVGID_39_" gradientUnits="userSpaceOnUse" x1="21.2224" y1="582.6074" x2="21.2224" y2="585.8927" gradientTransform="matrix(0 -0.75 -0.75 0 636.0018 169.3986)">
	<stop  offset="0" style="stop-color:#9DA6B2"/>
	<stop  offset="9.000000e-02" style="stop-color:#A0A9B4"/>
	<stop  offset="0.36" style="stop-color:#C5D0DE"/>
	<stop  offset="0.56" style="stop-color:#B1BBC8"/>
	<stop  offset="0.83" style="stop-color:#8E96A1"/>
	<stop  offset="1" style="stop-color:#656B72"/>
</linearGradient>
<path class="st39" d="M199,167v-27c0,0-0.3,0-0.7,0l-0.8,0c-0.8,0-0.9,0.1-0.9,0.2l0.2,26.8c0,0,0.2,0,0.6,0h0.9
	c0.8,0,0.8-0.1,0.8-0.2L199,167z"/>
</svg>
