<?xml version="1.0" encoding="utf-8"?>
<!-- Generator: Adobe Illustrator 25.0.0, SVG Export Plug-In . SVG Version: 6.00 Build 0)  -->
<svg version="1.1" id="图层_1" xmlns="http://www.w3.org/2000/svg" xmlns:xlink="http://www.w3.org/1999/xlink" x="0px" y="0px"
	 viewBox="0 0 293 567" style="enable-background:new 0 0 293 567;" xml:space="preserve">
<style type="text/css">
	.st0{fill:url(#SVGID_1_);}
	.st1{fill:url(#SVGID_2_);}
	.st2{fill:url(#SVGID_3_);}
	.st3{fill:url(#SVGID_4_);}
	.st4{fill:url(#SVGID_5_);}
	.st5{fill:url(#SVGID_6_);}
	.st6{fill:url(#SVGID_7_);}
	.st7{fill:url(#SVGID_8_);}
	.st8{fill:url(#SVGID_9_);}
	.st9{fill:url(#SVGID_10_);}
	.st10{fill:url(#SVGID_11_);}
	.st11{fill:url(#SVGID_12_);}
	.st12{fill:url(#SVGID_13_);}
	.st13{fill:url(#SVGID_14_);}
	.st14{fill:url(#SVGID_15_);}
	.st15{fill:url(#SVGID_16_);}
	.st16{fill:url(#SVGID_17_);}
	.st17{fill:url(#SVGID_18_);}
	.st18{fill:url(#SVGID_19_);}
	.st19{fill:#42564A;}
	.st20{fill:url(#SVGID_20_);}
	.st21{fill:url(#SVGID_21_);}
	.st22{fill:url(#SVGID_22_);}
	.st23{fill:url(#SVGID_23_);}
	.st24{fill:url(#SVGID_24_);}
	.st25{fill:url(#SVGID_25_);}
	.st26{fill:url(#SVGID_26_);}
	.st27{fill:url(#SVGID_27_);}
	.st28{fill:url(#SVGID_28_);}
	.st29{fill:url(#SVGID_29_);}
	.st30{fill:url(#SVGID_30_);}
	.st31{fill:url(#SVGID_31_);}
	.st32{fill:url(#SVGID_32_);}
	.st33{fill:url(#SVGID_33_);}
	.st34{fill:url(#SVGID_34_);}
	.st35{fill:url(#SVGID_35_);}
	.st36{fill:url(#SVGID_36_);}
	.st37{fill:url(#SVGID_37_);}
	.st38{fill:url(#SVGID_38_);}
	.st39{fill:url(#SVGID_39_);}
</style>
<linearGradient id="SVGID_1_" gradientUnits="userSpaceOnUse" x1="357.6776" y1="607.6936" x2="19.6775" y2="607.6936" gradientTransform="matrix(0.75 0 0 0.75 5.2953 -251.8173)">
	<stop  offset="0" style="stop-color:#9DA6B2"/>
	<stop  offset="9.000000e-02" style="stop-color:#A0A9B4"/>
	<stop  offset="0.36" style="stop-color:#C5D0DE"/>
	<stop  offset="0.56" style="stop-color:#B1BBC8"/>
	<stop  offset="0.83" style="stop-color:#8E96A1"/>
	<stop  offset="1" style="stop-color:#656B72"/>
</linearGradient>
<path class="st0" d="M20.1,210.7h253.5v-13.5H20.1V210.7z"/>
<linearGradient id="SVGID_2_" gradientUnits="userSpaceOnUse" x1="150.679" y1="620.1903" x2="19.679" y2="620.1903" gradientTransform="matrix(0.75 0 0 0.75 83.0052 -283.9198)">
	<stop  offset="0" style="stop-color:#9DA6B2"/>
	<stop  offset="9.000000e-02" style="stop-color:#A0A9B4"/>
	<stop  offset="0.36" style="stop-color:#C5D0DE"/>
	<stop  offset="0.56" style="stop-color:#B1BBC8"/>
	<stop  offset="0.83" style="stop-color:#8E96A1"/>
	<stop  offset="1" style="stop-color:#656B72"/>
</linearGradient>
<path class="st1" d="M97.8,197.3H196v-32.2H97.8V197.3z"/>
<linearGradient id="SVGID_3_" gradientUnits="userSpaceOnUse" x1="357.6798" y1="602.6882" x2="19.6798" y2="602.6882" gradientTransform="matrix(0.75 0 0 0.75 5.1766 -241.9032)">
	<stop  offset="0" style="stop-color:#636E7D"/>
	<stop  offset="0.15" style="stop-color:#929FB1"/>
	<stop  offset="0.25" style="stop-color:#A4AEBC"/>
	<stop  offset="0.52" style="stop-color:#758394"/>
	<stop  offset="0.69" style="stop-color:#687484"/>
	<stop  offset="0.8" style="stop-color:#626D7C"/>
	<stop  offset="0.92" style="stop-color:#5C6675"/>
	<stop  offset="1" style="stop-color:#6A7787"/>
</linearGradient>
<path class="st2" d="M19.9,207.1h253.5v6H19.9L19.9,207.1L19.9,207.1z"/>
<linearGradient id="SVGID_4_" gradientUnits="userSpaceOnUse" x1="410.6767" y1="609.192" x2="19.6767" y2="609.192" gradientTransform="matrix(0.75 0 0 0.75 -14.6891 -239.0311)">
	<stop  offset="0" style="stop-color:#9DA6B2"/>
	<stop  offset="9.000000e-02" style="stop-color:#A0A9B4"/>
	<stop  offset="0.36" style="stop-color:#C5D0DE"/>
	<stop  offset="0.56" style="stop-color:#B1BBC8"/>
	<stop  offset="0.83" style="stop-color:#8E96A1"/>
	<stop  offset="1" style="stop-color:#656B72"/>
</linearGradient>
<path class="st3" d="M0.1,210h293.2v15.8H0.1V210z"/>
<linearGradient id="SVGID_5_" gradientUnits="userSpaceOnUse" x1="443.3459" y1="839.4032" x2="-8.712" y2="759.6931" gradientTransform="matrix(0.75 0 0 0.75 -14.6891 -223.2596)">
	<stop  offset="0" style="stop-color:#9DA6B2"/>
	<stop  offset="9.000000e-02" style="stop-color:#A0A9B4"/>
	<stop  offset="0.36" style="stop-color:#C5D0DE"/>
	<stop  offset="0.56" style="stop-color:#B1BBC8"/>
	<stop  offset="0.83" style="stop-color:#8E96A1"/>
	<stop  offset="1" style="stop-color:#656B72"/>
</linearGradient>
<path class="st4" d="M293.3,225.8L186.8,545.3h-80.3L0.1,225.8L293.3,225.8L293.3,225.8z"/>
<linearGradient id="SVGID_6_" gradientUnits="userSpaceOnUse" x1="125.6749" y1="607.1882" x2="19.6749" y2="607.1882" gradientTransform="matrix(0.75 0 0 0.75 92.2733 93.8468)">
	<stop  offset="0" style="stop-color:#9DA6B2"/>
	<stop  offset="9.000000e-02" style="stop-color:#A0A9B4"/>
	<stop  offset="0.36" style="stop-color:#C5D0DE"/>
	<stop  offset="0.56" style="stop-color:#B1BBC8"/>
	<stop  offset="0.83" style="stop-color:#8E96A1"/>
	<stop  offset="1" style="stop-color:#656B72"/>
</linearGradient>
<path class="st5" d="M107,542.9h79.5v12.8H107L107,542.9L107,542.9z"/>
<linearGradient id="SVGID_7_" gradientUnits="userSpaceOnUse" x1="173.467" y1="608.2401" x2="19.6802" y2="608.2401" gradientTransform="matrix(0.75 0 0 0.75 74.3827 103.8087)">
	<stop  offset="0" style="stop-color:#9DA6B2"/>
	<stop  offset="9.000000e-02" style="stop-color:#A0A9B4"/>
	<stop  offset="0.36" style="stop-color:#C5D0DE"/>
	<stop  offset="0.56" style="stop-color:#B1BBC8"/>
	<stop  offset="0.83" style="stop-color:#8E96A1"/>
	<stop  offset="1" style="stop-color:#656B72"/>
</linearGradient>
<path class="st6" d="M92.1,552.8h108.8c2.2,0,3.6,3.2,3.6,7.2c0.2,4.1-1.5,7.2-3.3,7.2l-109-0.1c-1.5,0-3-3.1-3-7.1
	c0-4.2,1.4-7.2,3.3-7.2H92.1z"/>
<linearGradient id="SVGID_8_" gradientUnits="userSpaceOnUse" x1="410.6767" y1="602.69" x2="19.6767" y2="602.69" gradientTransform="matrix(0.75 0 0 0.75 -14.6891 -226.3456)">
	<stop  offset="0" style="stop-color:#636E7D"/>
	<stop  offset="0.15" style="stop-color:#929FB1"/>
	<stop  offset="0.25" style="stop-color:#A4AEBC"/>
	<stop  offset="0.52" style="stop-color:#758394"/>
	<stop  offset="0.69" style="stop-color:#687484"/>
	<stop  offset="0.8" style="stop-color:#626D7C"/>
	<stop  offset="0.92" style="stop-color:#5C6675"/>
	<stop  offset="1" style="stop-color:#6A7787"/>
</linearGradient>
<path class="st7" d="M0.1,222.7h293.2v6H0.1V222.7z"/>
<linearGradient id="SVGID_9_" gradientUnits="userSpaceOnUse" x1="9.3101" y1="582.327" x2="9.3101" y2="676.327" gradientTransform="matrix(0 -0.75 -0.75 0 618.7157 127.3575)">
	<stop  offset="0" style="stop-color:#9DA6B2"/>
	<stop  offset="9.000000e-02" style="stop-color:#A0A9B4"/>
	<stop  offset="0.36" style="stop-color:#C5D0DE"/>
	<stop  offset="0.56" style="stop-color:#B1BBC8"/>
	<stop  offset="0.83" style="stop-color:#8E96A1"/>
	<stop  offset="1" style="stop-color:#656B72"/>
</linearGradient>
<path class="st8" d="M182,123.4v-7.5h-70.5v7.5c0,0.8,1,1.5,1.9,1.5h67.1c0.8,0,1.5-0.7,1.5-1.7V123.4z"/>
<linearGradient id="SVGID_10_" gradientUnits="userSpaceOnUse" x1="54.3097" y1="582.3254" x2="54.3097" y2="679.3254" gradientTransform="matrix(0 -0.75 -0.75 0 620.0585 114.0802)">
	<stop  offset="0" style="stop-color:#4C4C4C"/>
	<stop  offset="0.4949" style="stop-color:#4EE572"/>
	<stop  offset="1" style="stop-color:#444444"/>
</linearGradient>
<path class="st9" d="M183.3,111.6V35.1h-72.8v76.5H183.3z"/>
<linearGradient id="SVGID_11_" gradientUnits="userSpaceOnUse" x1="28.3673" y1="582.3265" x2="28.3673" y2="679.7786" gradientTransform="matrix(0 -0.75 -0.75 0 620.0594 40.2794)">
	<stop  offset="0" style="stop-color:#4C4C4C"/>
	<stop  offset="0.4949" style="stop-color:#4EE572"/>
	<stop  offset="1" style="stop-color:#444444"/>
</linearGradient>
<path class="st10" d="M183.3,37.8V11.5c0,0,0-11.2-36.5-11.3c-36.2,0.1-36.5,11.2-36.5,11.2l0.3,26.4H183.3z"/>
<linearGradient id="SVGID_12_" gradientUnits="userSpaceOnUse" x1="369.6036" y1="582.321" x2="369.6036" y2="685.321" gradientTransform="matrix(0 0.75 -0.75 0 622.0712 -163.5323)">
	<stop  offset="0" style="stop-color:#717781"/>
	<stop  offset="9.000000e-02" style="stop-color:#737983"/>
	<stop  offset="0.3377" style="stop-color:#FFFFFF"/>
	<stop  offset="0.56" style="stop-color:#808792"/>
	<stop  offset="0.83" style="stop-color:#666C74"/>
	<stop  offset="1" style="stop-color:#474B52"/>
</linearGradient>
<path class="st11" d="M185.3,112.2v3c0,0-0.3,0.7-0.8,0.7l-75.7,0.1c0,0-0.5-0.4-0.5-0.8l-0.2-2.9c0-0.8,0.6-0.8,1-0.8l75.5,0
	C185.3,111.4,185.3,111.7,185.3,112.2L185.3,112.2L185.3,112.2z"/>
<linearGradient id="SVGID_13_" gradientUnits="userSpaceOnUse" x1="368.5951" y1="582.3264" x2="368.5951" y2="684.7744" gradientTransform="matrix(0 0.75 -0.75 0 621.9813 -161.8004)">
	<stop  offset="0" style="stop-color:#9DA6B2"/>
	<stop  offset="9.000000e-02" style="stop-color:#A0A9B4"/>
	<stop  offset="0.36" style="stop-color:#C5D0DE"/>
	<stop  offset="0.56" style="stop-color:#B1BBC8"/>
	<stop  offset="0.83" style="stop-color:#8E96A1"/>
	<stop  offset="1" style="stop-color:#656B72"/>
</linearGradient>
<path class="st12" d="M185.2,113.9c0,1.5-0.3,1.9-0.8,1.9l-75,0.3c-0.8,0-1.1-0.8-1.1-1.3c0.3-0.9,0.4-1.7,0.8-1.7l75.3,0
	c0.8,0,0.8,0.4,0.8,0.9L185.2,113.9L185.2,113.9z"/>
<linearGradient id="SVGID_14_" gradientUnits="userSpaceOnUse" x1="46.3084" y1="582.2907" x2="46.3084" y2="585.576" gradientTransform="matrix(0 -0.75 -0.75 0 603.6805 105.9572)">
	<stop  offset="0" style="stop-color:#4C4C4C"/>
	<stop  offset="0.4949" style="stop-color:#4EE572"/>
	<stop  offset="1" style="stop-color:#444444"/>
</linearGradient>
<path class="st13" d="M166.9,102.7v-63c0,0-0.3-0.6-0.7-0.6l-0.8-0.2c-0.8,0-0.9,0.4-0.9,0.8l0.2,63c0,0.8,0.2,0.8,0.6,0.8h0.9
	c0.8,0,0.8-0.3,0.8-0.6L166.9,102.7z"/>
<linearGradient id="SVGID_15_" gradientUnits="userSpaceOnUse" x1="46.3084" y1="582.2918" x2="46.3084" y2="585.5771" gradientTransform="matrix(0 -0.75 -0.75 0 596.5013 105.9572)">
	<stop  offset="0" style="stop-color:#4C4C4C"/>
	<stop  offset="0.4949" style="stop-color:#4EE572"/>
	<stop  offset="1" style="stop-color:#444444"/>
</linearGradient>
<path class="st14" d="M159.8,102.7v-63c0,0-0.3-0.6-0.7-0.6l-0.8-0.2c-0.8,0-0.9,0.4-0.9,0.8l0.2,63c0,0.8,0.2,0.8,0.6,0.8h0.9
	c0.8,0,0.8-0.3,0.8-0.6L159.8,102.7z"/>
<linearGradient id="SVGID_16_" gradientUnits="userSpaceOnUse" x1="46.3084" y1="582.2903" x2="46.3084" y2="585.5757" gradientTransform="matrix(0 -0.75 -0.75 0 589.3212 105.9572)">
	<stop  offset="0" style="stop-color:#4C4C4C"/>
	<stop  offset="0.4949" style="stop-color:#4EE572"/>
	<stop  offset="1" style="stop-color:#444444"/>
</linearGradient>
<path class="st15" d="M152.6,102.7v-63c0,0-0.3-0.6-0.7-0.6l-0.8-0.2c-0.8,0-0.9,0.4-0.9,0.8l0.2,63c0,0.8,0.2,0.8,0.6,0.8h0.9
	c0.8,0,0.8-0.3,0.8-0.6L152.6,102.7z"/>
<linearGradient id="SVGID_17_" gradientUnits="userSpaceOnUse" x1="46.3084" y1="582.2894" x2="46.3084" y2="585.5748" gradientTransform="matrix(0 -0.75 -0.75 0 582.1415 105.9572)">
	<stop  offset="0" style="stop-color:#4C4C4C"/>
	<stop  offset="0.4949" style="stop-color:#4EE572"/>
	<stop  offset="1" style="stop-color:#444444"/>
</linearGradient>
<path class="st16" d="M145.4,102.7v-63c0,0-0.3-0.6-0.7-0.6l-0.8-0.2c-0.8,0-0.9,0.4-0.9,0.8l0.2,63c0,0.8,0.2,0.8,0.6,0.8h0.9
	c0.8,0,0.8-0.3,0.8-0.6L145.4,102.7z"/>
<linearGradient id="SVGID_18_" gradientUnits="userSpaceOnUse" x1="46.3084" y1="582.2898" x2="46.3084" y2="585.5751" gradientTransform="matrix(0 -0.75 -0.75 0 574.9618 105.9572)">
	<stop  offset="0" style="stop-color:#4C4C4C"/>
	<stop  offset="0.4949" style="stop-color:#4EE572"/>
	<stop  offset="1" style="stop-color:#444444"/>
</linearGradient>
<path class="st17" d="M138.2,102.7v-63c0,0-0.3-0.6-0.7-0.6l-0.8-0.2c-0.8,0-0.9,0.4-0.9,0.8l0.2,63c0,0.8,0.2,0.8,0.6,0.8h0.9
	c0.8,0,0.8-0.3,0.8-0.6L138.2,102.7z"/>
<linearGradient id="SVGID_19_" gradientUnits="userSpaceOnUse" x1="46.3084" y1="582.2902" x2="46.3084" y2="585.5755" gradientTransform="matrix(0 -0.75 -0.75 0 567.7821 105.9572)">
	<stop  offset="0" style="stop-color:#4C4C4C"/>
	<stop  offset="0.4949" style="stop-color:#4EE572"/>
	<stop  offset="1" style="stop-color:#444444"/>
</linearGradient>
<path class="st18" d="M131,102.7v-63c0,0-0.3-0.6-0.7-0.6l-0.8-0.2c-0.8,0-0.9,0.4-0.9,0.8l0.2,63c0,0.8,0.2,0.8,0.6,0.8h0.9
	c0.8,0,0.8-0.3,0.8-0.6L131,102.7z"/>
<path class="st19" d="M196,110.8V73.3l-12.8,4.5V107L196,110.8z"/>
<linearGradient id="SVGID_20_" gradientUnits="userSpaceOnUse" x1="29.3097" y1="582.3235" x2="29.3097" y2="585.8182" gradientTransform="matrix(0 -0.75 -0.75 0 634.5341 114.0802)">
	<stop  offset="0" style="stop-color:#4C4C4C"/>
	<stop  offset="0.4949" style="stop-color:#4EE572"/>
	<stop  offset="1" style="stop-color:#444444"/>
</linearGradient>
<path class="st20" d="M197.8,111.6V73.3c0-0.8-0.2-0.6-0.4-0.6l-1.9-0.2c0,0-0.4,0.4-0.4,0.6l0.4,38.4c0,0-0.2,0,0,0h1.5
	c0.8,0,0.8-0.2,0.8-0.4V111.6z"/>
<path class="st19" d="M124.2,100.5V42.7h-12.8v57.8H124.2z"/>
<linearGradient id="SVGID_21_" gradientUnits="userSpaceOnUse" x1="41.8077" y1="582.3238" x2="41.8077" y2="587.3238" gradientTransform="matrix(0 -0.75 -0.75 0 548.6283 102.9337)">
	<stop  offset="0" style="stop-color:#4C4C4C"/>
	<stop  offset="0.4949" style="stop-color:#4EE572"/>
	<stop  offset="1" style="stop-color:#444444"/>
</linearGradient>
<path class="st21" d="M111.9,100.5V42.7h-3.8v57.8H111.9z"/>
<linearGradient id="SVGID_22_" gradientUnits="userSpaceOnUse" x1="113.6769" y1="599.6935" x2="19.6769" y2="599.6935" gradientTransform="matrix(0.75 0 0 0.75 96.9208 -325.8602)">
	<stop  offset="0" style="stop-color:#717781"/>
	<stop  offset="9.000000e-02" style="stop-color:#737983"/>
	<stop  offset="0.36" style="stop-color:#8E96A2"/>
	<stop  offset="0.56" style="stop-color:#808792"/>
	<stop  offset="0.83" style="stop-color:#666C74"/>
	<stop  offset="1" style="stop-color:#474B52"/>
</linearGradient>
<path class="st22" d="M111.7,123.2h70.5v1.5h-70.5V123.2z"/>
<linearGradient id="SVGID_23_" gradientUnits="userSpaceOnUse" x1="131.7907" y1="602.1949" x2="19.6761" y2="602.1949" gradientTransform="matrix(0.75 0 0 0.75 90.0194 -324.3143)">
	<stop  offset="0" style="stop-color:#9DA6B2"/>
	<stop  offset="9.000000e-02" style="stop-color:#A0A9B4"/>
	<stop  offset="0.36" style="stop-color:#C5D0DE"/>
	<stop  offset="0.56" style="stop-color:#B1BBC8"/>
	<stop  offset="0.83" style="stop-color:#8E96A1"/>
	<stop  offset="1" style="stop-color:#656B72"/>
</linearGradient>
<path class="st23" d="M107.8,124.7h78.7c1.5,0,2.3,1.2,2.3,2.6c-0.1,1.1-1.2,2.7-2.7,2.7l-78.4,0c-1.5,0-3-1.2-3-2.6
	c0-1.1,1.2-2.7,2.7-2.7L107.8,124.7z"/>
<linearGradient id="SVGID_24_" gradientUnits="userSpaceOnUse" x1="110.5685" y1="34.9449" x2="183.3185" y2="34.9449">
	<stop  offset="0" style="stop-color:#717781"/>
	<stop  offset="9.000000e-02" style="stop-color:#737983"/>
	<stop  offset="0.3377" style="stop-color:#FFFFFF"/>
	<stop  offset="0.56" style="stop-color:#808792"/>
	<stop  offset="0.83" style="stop-color:#666C74"/>
	<stop  offset="1" style="stop-color:#474B52"/>
</linearGradient>
<path class="st24" d="M183.3,35.7v-1.5h-72.8v1.5H183.3z"/>
<linearGradient id="SVGID_25_" gradientUnits="userSpaceOnUse" x1="103.6779" y1="606.6902" x2="19.6779" y2="606.6902" gradientTransform="matrix(0.75 0 0 0.75 100.494 -319.7557)">
	<stop  offset="0" style="stop-color:#9DA6B2"/>
	<stop  offset="9.000000e-02" style="stop-color:#A0A9B4"/>
	<stop  offset="0.36" style="stop-color:#C5D0DE"/>
	<stop  offset="0.56" style="stop-color:#B1BBC8"/>
	<stop  offset="0.83" style="stop-color:#8E96A1"/>
	<stop  offset="1" style="stop-color:#656B72"/>
</linearGradient>
<path class="st25" d="M115.3,141.3h63v-12h-63V141.3z"/>
<linearGradient id="SVGID_26_" gradientUnits="userSpaceOnUse" x1="167.6788" y1="615.1898" x2="19.6788" y2="615.1898" gradientTransform="matrix(0.75 0 0 0.75 76.4584 -307.8104)">
	<stop  offset="0" style="stop-color:#9DA6B2"/>
	<stop  offset="9.000000e-02" style="stop-color:#A0A9B4"/>
	<stop  offset="0.36" style="stop-color:#C5D0DE"/>
	<stop  offset="0.56" style="stop-color:#B1BBC8"/>
	<stop  offset="0.83" style="stop-color:#8E96A1"/>
	<stop  offset="1" style="stop-color:#656B72"/>
</linearGradient>
<path class="st26" d="M91.2,166h111v-24.8h-111V166z"/>
<linearGradient id="SVGID_27_" gradientUnits="userSpaceOnUse" x1="150.679" y1="600.1903" x2="19.679" y2="600.1903" gradientTransform="matrix(0.75 0 0 0.75 83.0052 -283.9198)">
	<stop  offset="0" style="stop-color:#636E7D"/>
	<stop  offset="0.15" style="stop-color:#929FB1"/>
	<stop  offset="0.25" style="stop-color:#A4AEBC"/>
	<stop  offset="0.52" style="stop-color:#758394"/>
	<stop  offset="0.69" style="stop-color:#687484"/>
	<stop  offset="0.8" style="stop-color:#626D7C"/>
	<stop  offset="0.92" style="stop-color:#5C6675"/>
	<stop  offset="1" style="stop-color:#6A7787"/>
</linearGradient>
<path class="st27" d="M97.8,167.3H196v-2.2H97.8V167.3z"/>
<linearGradient id="SVGID_28_" gradientUnits="userSpaceOnUse" x1="21.3241" y1="582.2943" x2="21.3241" y2="585.5797" gradientTransform="matrix(0 -0.75 -0.75 0 580.2582 169.381)">
	<stop  offset="0" style="stop-color:#9DA6B2"/>
	<stop  offset="9.000000e-02" style="stop-color:#A0A9B4"/>
	<stop  offset="0.36" style="stop-color:#C5D0DE"/>
	<stop  offset="0.56" style="stop-color:#B1BBC8"/>
	<stop  offset="0.83" style="stop-color:#8E96A1"/>
	<stop  offset="1" style="stop-color:#656B72"/>
</linearGradient>
<path class="st28" d="M143.5,166.9v-27c0,0-0.3,0-0.7,0l-0.8,0c-0.8,0-0.9,0.1-0.9,0.2l0.2,26.8c0,0,0.2,0,0.6,0h0.9
	c0.8,0,0.8-0.1,0.8-0.2L143.5,166.9z"/>
<linearGradient id="SVGID_29_" gradientUnits="userSpaceOnUse" x1="21.3241" y1="582.2912" x2="21.3241" y2="585.5766" gradientTransform="matrix(0 -0.75 -0.75 0 570.9779 169.381)">
	<stop  offset="0" style="stop-color:#9DA6B2"/>
	<stop  offset="9.000000e-02" style="stop-color:#A0A9B4"/>
	<stop  offset="0.36" style="stop-color:#C5D0DE"/>
	<stop  offset="0.56" style="stop-color:#B1BBC8"/>
	<stop  offset="0.83" style="stop-color:#8E96A1"/>
	<stop  offset="1" style="stop-color:#656B72"/>
</linearGradient>
<path class="st29" d="M134.2,166.9v-27c0,0-0.3,0-0.7,0l-0.8,0c-0.8,0-0.9,0.1-0.9,0.2l0.2,26.8c0,0,0.2,0,0.6,0h0.9
	c0.8,0,0.8-0.1,0.8-0.2L134.2,166.9z"/>
<linearGradient id="SVGID_30_" gradientUnits="userSpaceOnUse" x1="21.3241" y1="582.2915" x2="21.3241" y2="585.5768" gradientTransform="matrix(0 -0.75 -0.75 0 561.6971 169.381)">
	<stop  offset="0" style="stop-color:#9DA6B2"/>
	<stop  offset="9.000000e-02" style="stop-color:#A0A9B4"/>
	<stop  offset="0.36" style="stop-color:#C5D0DE"/>
	<stop  offset="0.56" style="stop-color:#B1BBC8"/>
	<stop  offset="0.83" style="stop-color:#8E96A1"/>
	<stop  offset="1" style="stop-color:#656B72"/>
</linearGradient>
<path class="st30" d="M125,166.9v-27c0,0-0.3,0-0.7,0l-0.8,0c-0.8,0-0.9,0.1-0.9,0.2l0.2,26.8c0,0,0.2,0,0.6,0h0.9
	c0.8,0,0.8-0.1,0.8-0.2L125,166.9z"/>
<linearGradient id="SVGID_31_" gradientUnits="userSpaceOnUse" x1="21.3241" y1="582.2926" x2="21.3241" y2="585.5779" gradientTransform="matrix(0 -0.75 -0.75 0 552.4169 169.381)">
	<stop  offset="0" style="stop-color:#9DA6B2"/>
	<stop  offset="9.000000e-02" style="stop-color:#A0A9B4"/>
	<stop  offset="0.36" style="stop-color:#C5D0DE"/>
	<stop  offset="0.56" style="stop-color:#B1BBC8"/>
	<stop  offset="0.83" style="stop-color:#8E96A1"/>
	<stop  offset="1" style="stop-color:#656B72"/>
</linearGradient>
<path class="st31" d="M115.7,166.9v-27c0,0-0.3,0-0.7,0l-0.8,0c-0.8,0-0.9,0.1-0.9,0.2l0.2,26.8c0,0,0.2,0,0.6,0h0.9
	c0.8,0,0.8-0.1,0.8-0.2L115.7,166.9z"/>
<linearGradient id="SVGID_32_" gradientUnits="userSpaceOnUse" x1="21.3241" y1="582.2942" x2="21.3241" y2="585.5795" gradientTransform="matrix(0 -0.75 -0.75 0 543.1371 169.381)">
	<stop  offset="0" style="stop-color:#9DA6B2"/>
	<stop  offset="9.000000e-02" style="stop-color:#A0A9B4"/>
	<stop  offset="0.36" style="stop-color:#C5D0DE"/>
	<stop  offset="0.56" style="stop-color:#B1BBC8"/>
	<stop  offset="0.83" style="stop-color:#8E96A1"/>
	<stop  offset="1" style="stop-color:#656B72"/>
</linearGradient>
<path class="st32" d="M106.4,166.9v-27c0,0-0.3,0-0.7,0l-0.8,0c-0.8,0-0.9,0.1-0.9,0.2l0.2,26.8c0,0,0.2,0,0.6,0h0.9
	c0.8,0,0.8-0.1,0.8-0.2L106.4,166.9z"/>
<linearGradient id="SVGID_33_" gradientUnits="userSpaceOnUse" x1="21.3243" y1="582.2905" x2="21.3243" y2="585.5758" gradientTransform="matrix(0 -0.75 -0.75 0 533.8563 169.3771)">
	<stop  offset="0" style="stop-color:#9DA6B2"/>
	<stop  offset="9.000000e-02" style="stop-color:#A0A9B4"/>
	<stop  offset="0.36" style="stop-color:#C5D0DE"/>
	<stop  offset="0.56" style="stop-color:#B1BBC8"/>
	<stop  offset="0.83" style="stop-color:#8E96A1"/>
	<stop  offset="1" style="stop-color:#656B72"/>
</linearGradient>
<path class="st33" d="M97.1,166.9v-27c0,0-0.3,0-0.7,0l-0.8,0c-0.8,0-0.9,0.1-0.9,0.2l0.2,26.8c0,0,0.2,0,0.6,0h0.9
	c0.8,0,0.8-0.1,0.8-0.2L97.1,166.9z"/>
<linearGradient id="SVGID_34_" gradientUnits="userSpaceOnUse" x1="21.3243" y1="582.2913" x2="21.3243" y2="585.5766" gradientTransform="matrix(0 -0.75 -0.75 0 589.5399 169.3771)">
	<stop  offset="0" style="stop-color:#9DA6B2"/>
	<stop  offset="9.000000e-02" style="stop-color:#A0A9B4"/>
	<stop  offset="0.36" style="stop-color:#C5D0DE"/>
	<stop  offset="0.56" style="stop-color:#B1BBC8"/>
	<stop  offset="0.83" style="stop-color:#8E96A1"/>
	<stop  offset="1" style="stop-color:#656B72"/>
</linearGradient>
<path class="st34" d="M152.8,166.9v-27c0,0-0.3,0-0.7,0l-0.8,0c-0.8,0-0.9,0.1-0.9,0.2l0.2,26.8c0,0,0.1,0,0.6,0h0.9
	c0.8,0,0.8-0.1,0.8-0.2L152.8,166.9z"/>
<linearGradient id="SVGID_35_" gradientUnits="userSpaceOnUse" x1="21.3231" y1="582.294" x2="21.3231" y2="585.5794" gradientTransform="matrix(0 -0.75 -0.75 0 598.828 169.3732)">
	<stop  offset="0" style="stop-color:#9DA6B2"/>
	<stop  offset="9.000000e-02" style="stop-color:#A0A9B4"/>
	<stop  offset="0.36" style="stop-color:#C5D0DE"/>
	<stop  offset="0.56" style="stop-color:#B1BBC8"/>
	<stop  offset="0.83" style="stop-color:#8E96A1"/>
	<stop  offset="1" style="stop-color:#656B72"/>
</linearGradient>
<path class="st35" d="M162.1,166.9v-27c0,0-0.3,0-0.7,0l-0.8,0c-0.8,0-0.9,0.1-0.9,0.2l0.2,26.8c0,0,0.2,0,0.6,0h0.9
	c0.8,0,0.8-0.1,0.8-0.2L162.1,166.9z"/>
<linearGradient id="SVGID_36_" gradientUnits="userSpaceOnUse" x1="21.3236" y1="582.2932" x2="21.3236" y2="585.5786" gradientTransform="matrix(0 -0.75 -0.75 0 608.1434 169.3966)">
	<stop  offset="0" style="stop-color:#9DA6B2"/>
	<stop  offset="9.000000e-02" style="stop-color:#A0A9B4"/>
	<stop  offset="0.36" style="stop-color:#C5D0DE"/>
	<stop  offset="0.56" style="stop-color:#B1BBC8"/>
	<stop  offset="0.83" style="stop-color:#8E96A1"/>
	<stop  offset="1" style="stop-color:#656B72"/>
</linearGradient>
<path class="st36" d="M171.4,166.9v-27c0,0-0.3,0-0.7,0l-0.8,0c-0.8,0-0.9,0.1-0.9,0.2l0.2,26.8c0,0,0.2,0,0.6,0h0.9
	c0.8,0,0.8-0.1,0.8-0.2L171.4,166.9z"/>
<linearGradient id="SVGID_37_" gradientUnits="userSpaceOnUse" x1="21.3243" y1="582.2926" x2="21.3243" y2="585.5779" gradientTransform="matrix(0 -0.75 -0.75 0 617.4589 169.3741)">
	<stop  offset="0" style="stop-color:#9DA6B2"/>
	<stop  offset="9.000000e-02" style="stop-color:#A0A9B4"/>
	<stop  offset="0.36" style="stop-color:#C5D0DE"/>
	<stop  offset="0.56" style="stop-color:#B1BBC8"/>
	<stop  offset="0.83" style="stop-color:#8E96A1"/>
	<stop  offset="1" style="stop-color:#656B72"/>
</linearGradient>
<path class="st37" d="M180.7,166.9v-27c0,0-0.3,0-0.7,0l-0.8,0c-0.8,0-0.9,0.1-0.9,0.2l0.2,26.8c0,0,0.2,0,0.6,0h0.9
	c0.8,0,0.8-0.1,0.8-0.2L180.7,166.9z"/>
<linearGradient id="SVGID_38_" gradientUnits="userSpaceOnUse" x1="21.3229" y1="582.2939" x2="21.3229" y2="585.5793" gradientTransform="matrix(0 -0.75 -0.75 0 626.7489 169.3986)">
	<stop  offset="0" style="stop-color:#9DA6B2"/>
	<stop  offset="9.000000e-02" style="stop-color:#A0A9B4"/>
	<stop  offset="0.36" style="stop-color:#C5D0DE"/>
	<stop  offset="0.56" style="stop-color:#B1BBC8"/>
	<stop  offset="0.83" style="stop-color:#8E96A1"/>
	<stop  offset="1" style="stop-color:#656B72"/>
</linearGradient>
<path class="st38" d="M190,166.9v-27c0,0-0.3,0-0.7,0l-0.8,0c-0.8,0-0.9,0.1-0.9,0.2l0.2,26.8c0,0,0.2,0,0.6,0h0.9
	c0.8,0,0.8-0.1,0.8-0.2L190,166.9z"/>
<linearGradient id="SVGID_39_" gradientUnits="userSpaceOnUse" x1="21.3229" y1="582.2924" x2="21.3229" y2="585.5778" gradientTransform="matrix(0 -0.75 -0.75 0 636.0018 169.3986)">
	<stop  offset="0" style="stop-color:#9DA6B2"/>
	<stop  offset="9.000000e-02" style="stop-color:#A0A9B4"/>
	<stop  offset="0.36" style="stop-color:#C5D0DE"/>
	<stop  offset="0.56" style="stop-color:#B1BBC8"/>
	<stop  offset="0.83" style="stop-color:#8E96A1"/>
	<stop  offset="1" style="stop-color:#656B72"/>
</linearGradient>
<path class="st39" d="M199.3,166.9v-27c0,0-0.3,0-0.7,0l-0.8,0c-0.8,0-0.9,0.1-0.9,0.2l0.2,26.8c0,0,0.2,0,0.6,0h0.9
	c0.8,0,0.8-0.1,0.8-0.2L199.3,166.9z"/>
</svg>
