<?xml version="1.0" encoding="utf-8"?>
<!-- Generator: Adobe Illustrator 16.0.0, SVG Export Plug-In . SVG Version: 6.00 Build 0)  -->
<!DOCTYPE svg PUBLIC "-//W3C//DTD SVG 1.1//EN" "http://www.w3.org/Graphics/SVG/1.1/DTD/svg11.dtd">
<svg preserveAspectRatio="none"   version="1.1" id="图层_1" xmlns="http://www.w3.org/2000/svg" xmlns:xlink="http://www.w3.org/1999/xlink" x="0px" y="0px"
	 width="510px" height="561.773px" viewBox="28.465 2.559 510 561.773" enable-background="new 28.465 2.559 510 561.773"
	 xml:space="preserve">
<g id="surface249">
	
		<linearGradient id="SVGID_1_" gradientUnits="userSpaceOnUse" x1="819.2222" y1="180.3042" x2="202.2231" y2="180.3041" gradientTransform="matrix(0.75 0 0 -0.75 -99.4996 166.0587)">
		<stop  offset="0" style="stop-color:#424141"/>
		<stop  offset="0.15" style="stop-color:#6D6C6C"/>
		<stop  offset="0.25" style="stop-color:#BCBCBC"/>
		<stop  offset="0.52" style="stop-color:#4D4B4B"/>
		<stop  offset="0.69" style="stop-color:#434242"/>
		<stop  offset="0.8" style="stop-color:#3F3E3E"/>
		<stop  offset="0.97" style="stop-color:#3B3A3A"/>
		<stop  offset="1" style="stop-color:#454444"/>
	</linearGradient>
	<path fill="url(#SVGID_1_)" d="M52.168,15.082h462.75v31.5H52.168V15.082z"/>
	
		<linearGradient id="SVGID_2_" gradientUnits="userSpaceOnUse" x1="856.2251" y1="192.8032" x2="202.2251" y2="192.8032" gradientTransform="matrix(0.75 0 0 -0.75 -113.4039 153.5353)">
		<stop  offset="0" style="stop-color:#424141"/>
		<stop  offset="0.15" style="stop-color:#6D6C6C"/>
		<stop  offset="0.25" style="stop-color:#BCBCBC"/>
		<stop  offset="0.52" style="stop-color:#4D4B4B"/>
		<stop  offset="0.69" style="stop-color:#434242"/>
		<stop  offset="0.8" style="stop-color:#3F3E3E"/>
		<stop  offset="0.97" style="stop-color:#3B3A3A"/>
		<stop  offset="1" style="stop-color:#454444"/>
	</linearGradient>
	<path fill="url(#SVGID_2_)" d="M41.266,2.559h484.5c1.5,0,2.898,1.199,2.898,2.68l0.102,7.07c0,1.5-1.297,2.895-2.773,2.895
		L41.266,15.309c-1.5,0-3-1.309-3-2.789V5.559c0-1.5,1.195-3,2.672-3H41.266z"/>
	
		<linearGradient id="SVGID_3_" gradientUnits="userSpaceOnUse" x1="838.2261" y1="-129.6943" x2="202.2271" y2="-129.6944" gradientTransform="matrix(0.75 0 0 -0.75 -106.7799 197.298)">
		<stop  offset="0" style="stop-color:#AEAEAD"/>
		<stop  offset="0.03" style="stop-color:#F8F8F7"/>
		<stop  offset="0.08" style="stop-color:#E3E3E2"/>
		<stop  offset="0.64" style="stop-color:#DFDFDE"/>
		<stop  offset="0.95" style="stop-color:#DADAD9"/>
		<stop  offset="1" style="stop-color:#A2A2A1"/>
	</linearGradient>
	<path fill="url(#SVGID_3_)" d="M44.891,46.32h477v496.5h-477V46.32z"/>
	
		<linearGradient id="SVGID_4_" gradientUnits="userSpaceOnUse" x1="882.2241" y1="187.0723" x2="202.2251" y2="187.0722" gradientTransform="matrix(0.75 0 0 -0.75 -123.2047 693.9611)">
		<stop  offset="0" style="stop-color:#909191"/>
		<stop  offset="0.03" style="stop-color:#D8D9D9"/>
		<stop  offset="0.08" style="stop-color:#BDBEBE"/>
		<stop  offset="0.64" style="stop-color:#BABABA"/>
		<stop  offset="0.95" style="stop-color:#B5B6B6"/>
		<stop  offset="1" style="stop-color:#868787"/>
	</linearGradient>
	<path fill="url(#SVGID_4_)" d="M30.715,542.984h505.5c1.5,0,2.25,1.172,2.25,2.621v16.129c0,1.5-1.051,2.598-2.348,2.598
		l-505.402-0.348c-1.5,0-2.25-0.824-2.25-2.273v-16.477c0-0.75,1.051-2.25,2.348-2.25H30.715z"/>
	<path fill="#3E3938" d="M110.984,117.109h344.25c1.5,0,2.961,1.176,2.961,2.625l0.039,1.125c0,1.5-1.207,2.992-2.652,2.992
		l-344.597,0.008c-0.75,0-2.25-1.18-2.25-2.629v-1.871c0-0.75,1.168-2.25,2.613-2.25H110.984z"/>
	<path fill="#3E3938" d="M110.984,150.133h344.25c1.5,0,2.961,1.176,2.961,2.621l0.039,1.129c0,1.5-1.207,2.992-2.652,2.992
		l-344.597,0.008c-0.75,0-2.25-1.184-2.25-2.629v-1.871c0-0.75,1.168-2.25,2.613-2.25H110.984z"/>
	<path fill="#3E3938" d="M110.984,183.156h344.25c1.5,0,2.961,1.172,2.961,2.621l0.039,1.129c0,1.5-1.207,2.992-2.652,2.992
		l-344.597,0.008c-0.75,0-2.25-1.184-2.25-2.629v-1.871c0-0.75,1.168-2.25,2.613-2.25H110.984z"/>
	<path fill="#3E3938" d="M110.984,216.18h344.25c1.5,0,2.961,1.172,2.961,2.621l0.039,1.129c0,1.5-1.207,2.988-2.652,2.988
		l-344.597,0.012c-0.75,0-2.25-1.184-2.25-2.633v-1.867c0-0.75,1.168-2.25,2.613-2.25H110.984z"/>
	<path fill="#3E3938" d="M110.984,282.223h344.25c1.5,0,2.961,1.172,2.961,2.621l0.039,1.129c0,1.5-1.207,2.992-2.652,2.992
		l-344.597,0.008c-0.75,0-2.25-1.184-2.25-2.629v-1.871c0-0.75,1.168-2.25,2.613-2.25H110.984z"/>
	<path fill="#3E3938" d="M110.984,348.265h344.25c1.5,0,2.961,1.176,2.961,2.625l0.039,1.125c0,1.5-1.207,2.992-2.652,2.992
		l-344.597,0.008c-0.75,0-2.25-1.18-2.25-2.629v-1.871c0-0.75,1.168-2.25,2.613-2.25H110.984z"/>
	<path fill="#3E3938" d="M110.984,249.199h344.25c1.5,0,2.961,1.176,2.961,2.621l0.039,1.129c0,1.5-1.207,2.992-2.652,2.992
		l-344.597,0.008c-0.75,0-2.25-1.18-2.25-2.629v-1.871c0-0.75,1.168-2.25,2.613-2.25H110.984z"/>
	<path fill="#3E3938" d="M110.984,315.246h344.25c1.5,0,2.961,1.176,2.961,2.621l0.039,1.129c0,1.5-1.207,2.992-2.652,2.992
		l-344.597,0.008c-0.75,0-2.25-1.184-2.25-2.629v-1.871c0-0.75,1.168-2.25,2.613-2.25H110.984z"/>
	<path fill="#3E3938" d="M110.984,381.289h344.25c1.5,0,2.961,1.176,2.961,2.625l0.039,1.125c0,1.5-1.207,2.992-2.652,2.992
		l-344.597,0.008c-0.75,0-2.25-1.18-2.25-2.629v-1.871c0-0.75,1.168-2.25,2.613-2.25H110.984z"/>
	<path fill="#3E3938" d="M110.984,414.312h344.25c1.5,0,2.961,1.172,2.961,2.621l0.039,1.129c0,1.5-1.207,2.992-2.652,2.992
		l-344.597,0.008c-0.75,0-2.25-1.184-2.25-2.633v-1.867c0-0.75,1.168-2.25,2.613-2.25H110.984z"/>
	<path fill="#3E3938" d="M110.984,445.738h344.25c1.5,0,2.961,1.172,2.961,2.621l0.039,1.129c0,1.5-1.207,2.992-2.652,2.992
		l-344.597,0.008c-0.75,0-2.25-1.184-2.25-2.633v-1.867c0-0.75,1.168-2.25,2.613-2.25H110.984z"/>
	<path fill="#3E3938" d="M110.984,480.355h344.25c1.5,0,2.961,1.172,2.961,2.621l0.039,1.129c0,1.5-1.207,2.992-2.652,2.992
		l-344.597,0.008c-0.75,0-2.25-1.184-2.25-2.629v-1.871c0-0.75,1.168-2.25,2.613-2.25H110.984z"/>
</g>
</svg>
