<?xml version="1.0" encoding="utf-8"?>
<!-- Generator: Adobe Illustrator 16.0.0, SVG Export Plug-In . SVG Version: 6.00 Build 0)  -->
<!DOCTYPE svg PUBLIC "-//W3C//DTD SVG 1.1//EN" "http://www.w3.org/Graphics/SVG/1.1/DTD/svg11.dtd">
<svg preserveAspectRatio="none"   version="1.1" id="图层_1" xmlns="http://www.w3.org/2000/svg" xmlns:xlink="http://www.w3.org/1999/xlink" x="0px" y="0px"
	 width="409.199px" height="565.5px" viewBox="78.719 0.727 409.199 565.5" enable-background="new 78.719 0.727 409.199 565.5"
	 xml:space="preserve">
<g id="surface279">
	
		<linearGradient id="SVGID_1_" gradientUnits="userSpaceOnUse" x1="731.2241" y1="-175.6934" x2="202.2241" y2="-175.6934" gradientTransform="matrix(0.75 0 0 -0.75 -72.9503 151.7052)">
		<stop  offset="0" style="stop-color:#AEAEAD"/>
		<stop  offset="0.02" style="stop-color:#F8F8F7"/>
		<stop  offset="0.06" style="stop-color:#E3E3E2"/>
		<stop  offset="0.64" style="stop-color:#DFDFDE"/>
		<stop  offset="0.98" style="stop-color:#DADAD9"/>
		<stop  offset="1" style="stop-color:#A2A2A1"/>
	</linearGradient>
	<path fill="url(#SVGID_1_)" d="M87.719,0.727h378.75c4.5,0,8.781,3.375,8.781,7.539l0.219,550.46c0,3.75-4.289,7.477-9.191,7.477
		l-378.558,0.023c-5.25,0-9-3.398-9-7.563V8.227c0-3.75,3.789-7.5,8.695-7.5H87.719z"/>
	<path fill="#EEEEEE" d="M157.156,6.773h297.75c1.5,0,3.234,1.469,3.234,3.281l-0.234,546.468c0,2.25-1.172,3.629-2.867,3.629
		l-297.882,0.121c-1.5,0-3-1.656-3-3.469V9.773c0-1.5,1.344-3,3.039-3H157.156z"/>
	
		<linearGradient id="SVGID_2_" gradientUnits="userSpaceOnUse" x1="219.5498" y1="60.2441" x2="202.2266" y2="60.2441" gradientTransform="matrix(0.75 0 0 -0.75 323.2548 332.1671)">
		<stop  offset="0" style="stop-color:#AEAEAD"/>
		<stop  offset="0.03" style="stop-color:#F8F8F7"/>
		<stop  offset="0.08" style="stop-color:#E3E3E2"/>
		<stop  offset="0.64" style="stop-color:#DFDFDE"/>
		<stop  offset="0.95" style="stop-color:#DADAD9"/>
		<stop  offset="1" style="stop-color:#A2A2A1"/>
	</linearGradient>
	<path fill="url(#SVGID_2_)" d="M479.425,181.188h4.5c2.25,0,3.992,1.469,3.992,3.281l-0.242,205.218c0,1.5-1.699,3.094-4.09,3.094
		l-4.16-0.094c-2.25,0-4.5-1.375-4.5-3.188V184.188c0-1.5,1.938-3,4.328-3H479.425z"/>
	<path fill="#EEEEEE" d="M145.477,6.672h-6.75v553.5h6.75V6.672z"/>
	
		<linearGradient id="SVGID_3_" gradientUnits="userSpaceOnUse" x1="258.5293" y1="194.1958" x2="202.2275" y2="194.1958" gradientTransform="matrix(0.75 0 0 -0.75 -60.0421 194.3859)">
		<stop  offset="0" style="stop-color:#909191"/>
		<stop  offset="0.03" style="stop-color:#D8D9D9"/>
		<stop  offset="0.08" style="stop-color:#BDBEBE"/>
		<stop  offset="0.64" style="stop-color:#BABABA"/>
		<stop  offset="0.95" style="stop-color:#B5B6B6"/>
		<stop  offset="1" style="stop-color:#868787"/>
	</linearGradient>
	<path fill="url(#SVGID_3_)" d="M94.629,43.41h36c1.5,0,3.227,1.469,3.227,3.277l-0.227,4.223c0,1.5-1.227,3.16-3.023,3.16
		l-35.977-0.16c-1.5,0-3-1.309-3-3.121V46.41c0-1.5,1.453-3,3.246-3H94.629z"/>
	
		<linearGradient id="SVGID_4_" gradientUnits="userSpaceOnUse" x1="258.5293" y1="194.1973" x2="202.2275" y2="194.1973" gradientTransform="matrix(0.75 0 0 -0.75 -60.0421 213.2023)">
		<stop  offset="0" style="stop-color:#909191"/>
		<stop  offset="0.03" style="stop-color:#D8D9D9"/>
		<stop  offset="0.08" style="stop-color:#BDBEBE"/>
		<stop  offset="0.64" style="stop-color:#BABABA"/>
		<stop  offset="0.95" style="stop-color:#B5B6B6"/>
		<stop  offset="1" style="stop-color:#868787"/>
	</linearGradient>
	<path fill="url(#SVGID_4_)" d="M94.629,62.223h36c1.5,0,3.227,1.469,3.227,3.281l-0.227,4.219c0,1.5-1.227,3.164-3.023,3.164
		l-35.977-0.164c-1.5,0-3-1.305-3-3.117v-4.383c0-1.5,1.453-3,3.246-3H94.629z"/>
	
		<linearGradient id="SVGID_5_" gradientUnits="userSpaceOnUse" x1="258.5293" y1="194.1958" x2="202.2275" y2="194.1958" gradientTransform="matrix(0.75 0 0 -0.75 -60.0421 233.8087)">
		<stop  offset="0" style="stop-color:#909191"/>
		<stop  offset="0.03" style="stop-color:#D8D9D9"/>
		<stop  offset="0.08" style="stop-color:#BDBEBE"/>
		<stop  offset="0.64" style="stop-color:#BABABA"/>
		<stop  offset="0.95" style="stop-color:#B5B6B6"/>
		<stop  offset="1" style="stop-color:#868787"/>
	</linearGradient>
	<path fill="url(#SVGID_5_)" d="M94.629,82.832h36c1.5,0,3.227,1.469,3.227,3.281l-0.227,4.219c0,1.5-1.227,3.16-3.023,3.16
		l-35.977-0.16c-1.5,0-3-1.309-3-3.121v-4.379c0-1.5,1.453-3,3.246-3H94.629z"/>
	
		<linearGradient id="SVGID_6_" gradientUnits="userSpaceOnUse" x1="316.7261" y1="201.3018" x2="316.7261" y2="186.3018" gradientTransform="matrix(0.75 0 0 -0.75 64.7987 293.3439)">
		<stop  offset="0" style="stop-color:#B3A593"/>
		<stop  offset="0.02" style="stop-color:#FDEEDA"/>
		<stop  offset="0.08" style="stop-color:#E9D7BF"/>
		<stop  offset="0.64" style="stop-color:#E5D3BC"/>
		<stop  offset="0.99" style="stop-color:#E0CEB8"/>
		<stop  offset="1" style="stop-color:#A69988"/>
	</linearGradient>
	<path fill="url(#SVGID_6_)" d="M216.469,142.367h171.75v11.25h-171.75V142.367z"/>
	<path fill="#3E3938" d="M244.184,89.656h115.5c2.25,0,3.613,1.41,3.613,3.223l0.137,25.277c0,1.5-1.652,2.934-3.445,2.934
		l-115.804,0.066c-1.5,0-3-1.535-3-3.348V92.656c0-1.5,1.371-3.059,3.168-3.059L244.184,89.656z"/>
	<path fill="#D8E5D8" d="M245.395,93.367h114v24h-114V93.367z"/>
	
		<linearGradient id="SVGID_7_" gradientUnits="userSpaceOnUse" x1="316.7261" y1="201.3018" x2="316.7261" y2="186.3027" gradientTransform="matrix(0.75 0 0 -0.75 64.7987 426.5509)">
		<stop  offset="0" style="stop-color:#B3A593"/>
		<stop  offset="0.02" style="stop-color:#FDEEDA"/>
		<stop  offset="0.08" style="stop-color:#E9D7BF"/>
		<stop  offset="0.64" style="stop-color:#E5D3BC"/>
		<stop  offset="0.99" style="stop-color:#E0CEB8"/>
		<stop  offset="1" style="stop-color:#A69988"/>
	</linearGradient>
	<path fill="url(#SVGID_7_)" d="M216.469,275.574h171.75v11.25h-171.75V275.574z"/>
	<path fill="#3E3938" d="M244.184,222.863h115.5c2.25,0,3.613,1.41,3.613,3.219l0.137,25.281c0,1.5-1.648,2.934-3.445,2.934
		l-115.804,0.066c-1.5,0-3-1.535-3-3.348v-25.152c0-1.5,1.371-3.059,3.168-3.059L244.184,222.863z"/>
	<path fill="#D8E5D8" d="M245.395,226.574h114v24h-114V226.574z"/>
</g>
</svg>
