<?xml version="1.0" encoding="utf-8"?>
<!-- Generator: Adobe Illustrator 16.0.0, SVG Export Plug-In . SVG Version: 6.00 Build 0)  -->
<!DOCTYPE svg PUBLIC "-//W3C//DTD SVG 1.1//EN" "http://www.w3.org/Graphics/SVG/1.1/DTD/svg11.dtd">
<svg preserveAspectRatio="none"   version="1.1" id="图层_1" xmlns="http://www.w3.org/2000/svg" xmlns:xlink="http://www.w3.org/1999/xlink" x="0px" y="0px"
	 width="557.25px" height="520.5px" viewBox="4.977 23.301 557.25 520.5" enable-background="new 4.977 23.301 557.25 520.5"
	 xml:space="preserve">
<g id="surface374">
	
		<linearGradient id="SVGID_1_" gradientUnits="userSpaceOnUse" x1="223.2275" y1="-145.6973" x2="202.2275" y2="-145.6973" gradientTransform="matrix(0.75 0 0 -0.75 373.6962 174.2775)">
		<stop  offset="0" style="stop-color:#C1C2C3"/>
		<stop  offset="0.15" style="stop-color:#FBFDFE"/>
		<stop  offset="0.25" style="stop-color:#FDFEFE"/>
		<stop  offset="0.52" style="stop-color:#DCDEDE"/>
		<stop  offset="0.69" style="stop-color:#C4C5C6"/>
		<stop  offset="0.8" style="stop-color:#B9BABB"/>
		<stop  offset="0.97" style="stop-color:#AEB0B0"/>
		<stop  offset="1" style="stop-color:#C8CACB"/>
	</linearGradient>
	<path fill="url(#SVGID_1_)" d="M525.367,23.301h15.75v520.5h-15.75V23.301z"/>
	
		<linearGradient id="SVGID_2_" gradientUnits="userSpaceOnUse" x1="244.2241" y1="187.3057" x2="202.2241" y2="187.3057" gradientTransform="matrix(0.75 0 0 -0.75 365.9012 664.6417)">
		<stop  offset="0" style="stop-color:#C1C2C3"/>
		<stop  offset="0.15" style="stop-color:#FBFDFE"/>
		<stop  offset="0.25" style="stop-color:#FDFEFE"/>
		<stop  offset="0.52" style="stop-color:#DCDEDE"/>
		<stop  offset="0.69" style="stop-color:#C4C5C6"/>
		<stop  offset="0.8" style="stop-color:#B9BABB"/>
		<stop  offset="0.97" style="stop-color:#AEB0B0"/>
		<stop  offset="1" style="stop-color:#C8CACB"/>
	</linearGradient>
	<path fill="url(#SVGID_2_)" d="M517.57,513.664h31.5v21h-31.5V513.664z"/>
	
		<linearGradient id="SVGID_3_" gradientUnits="userSpaceOnUse" x1="244.2241" y1="187.3037" x2="202.2241" y2="187.3037" gradientTransform="matrix(0.75 0 0 -0.75 365.9012 185.9103)">
		<stop  offset="0" style="stop-color:#C1C2C3"/>
		<stop  offset="0.15" style="stop-color:#FBFDFE"/>
		<stop  offset="0.25" style="stop-color:#FDFEFE"/>
		<stop  offset="0.52" style="stop-color:#DCDEDE"/>
		<stop  offset="0.69" style="stop-color:#C4C5C6"/>
		<stop  offset="0.8" style="stop-color:#B9BABB"/>
		<stop  offset="0.97" style="stop-color:#AEB0B0"/>
		<stop  offset="1" style="stop-color:#C8CACB"/>
	</linearGradient>
	<path fill="url(#SVGID_3_)" d="M517.57,34.934h31.5v21h-31.5V34.934z"/>
	
		<linearGradient id="SVGID_4_" gradientUnits="userSpaceOnUse" x1="223.2236" y1="-145.6973" x2="202.2236" y2="-145.6973" gradientTransform="matrix(0.75 0 0 -0.75 -127.5587 174.2775)">
		<stop  offset="0" style="stop-color:#C1C2C3"/>
		<stop  offset="0.15" style="stop-color:#FBFDFE"/>
		<stop  offset="0.25" style="stop-color:#FDFEFE"/>
		<stop  offset="0.52" style="stop-color:#DCDEDE"/>
		<stop  offset="0.69" style="stop-color:#C4C5C6"/>
		<stop  offset="0.8" style="stop-color:#B9BABB"/>
		<stop  offset="0.97" style="stop-color:#AEB0B0"/>
		<stop  offset="1" style="stop-color:#C8CACB"/>
	</linearGradient>
	<path fill="url(#SVGID_4_)" d="M24.109,23.301h15.75v520.5h-15.75V23.301z"/>
	
		<linearGradient id="SVGID_5_" gradientUnits="userSpaceOnUse" x1="244.2261" y1="187.3037" x2="202.2261" y2="187.3037" gradientTransform="matrix(0.75 0 0 -0.75 -135.3536 185.9103)">
		<stop  offset="0" style="stop-color:#C1C2C3"/>
		<stop  offset="0.15" style="stop-color:#FBFDFE"/>
		<stop  offset="0.25" style="stop-color:#FDFEFE"/>
		<stop  offset="0.52" style="stop-color:#DCDEDE"/>
		<stop  offset="0.69" style="stop-color:#C4C5C6"/>
		<stop  offset="0.8" style="stop-color:#B9BABB"/>
		<stop  offset="0.97" style="stop-color:#AEB0B0"/>
		<stop  offset="1" style="stop-color:#C8CACB"/>
	</linearGradient>
	<path fill="url(#SVGID_5_)" d="M16.316,34.934h31.5v21h-31.5V34.934z"/>
	
		<linearGradient id="SVGID_6_" gradientUnits="userSpaceOnUse" x1="244.2261" y1="187.3057" x2="202.2261" y2="187.3057" gradientTransform="matrix(0.75 0 0 -0.75 -135.3536 664.6417)">
		<stop  offset="0" style="stop-color:#C1C2C3"/>
		<stop  offset="0.15" style="stop-color:#FBFDFE"/>
		<stop  offset="0.25" style="stop-color:#FDFEFE"/>
		<stop  offset="0.52" style="stop-color:#DCDEDE"/>
		<stop  offset="0.69" style="stop-color:#C4C5C6"/>
		<stop  offset="0.8" style="stop-color:#B9BABB"/>
		<stop  offset="0.97" style="stop-color:#AEB0B0"/>
		<stop  offset="1" style="stop-color:#C8CACB"/>
	</linearGradient>
	<path fill="url(#SVGID_6_)" d="M16.316,513.664h31.5v21h-31.5V513.664z"/>
	
		<linearGradient id="SVGID_7_" gradientUnits="userSpaceOnUse" x1="570.2251" y1="-61.6953" x2="202.2261" y2="-61.6953" gradientTransform="matrix(0.75 0 0 -0.75 -6.3849 237.0275)">
		<stop  offset="0" style="stop-color:#9D9D9D"/>
		<stop  offset="0.15" style="stop-color:#D0D1D1"/>
		<stop  offset="0.25" style="stop-color:#E5E6E6"/>
		<stop  offset="0.52" style="stop-color:#B3B4B4"/>
		<stop  offset="0.69" style="stop-color:#9FA0A0"/>
		<stop  offset="0.8" style="stop-color:#969797"/>
		<stop  offset="0.97" style="stop-color:#8E8E8E"/>
		<stop  offset="1" style="stop-color:#A3A4A4"/>
	</linearGradient>
	<path fill="url(#SVGID_7_)" d="M145.285,86.051h276v394.5h-276V86.051z"/>
	
		<linearGradient id="SVGID_8_" gradientUnits="userSpaceOnUse" x1="573.7241" y1="201.3027" x2="573.7241" y2="178.3018" gradientTransform="matrix(0.75 0 0 -0.75 -146.6915 206.004)">
		<stop  offset="0" style="stop-color:#C1C2C3"/>
		<stop  offset="0.15" style="stop-color:#FBFDFE"/>
		<stop  offset="0.25" style="stop-color:#FDFEFE"/>
		<stop  offset="0.52" style="stop-color:#DCDEDE"/>
		<stop  offset="0.69" style="stop-color:#C4C5C6"/>
		<stop  offset="0.8" style="stop-color:#B9BABB"/>
		<stop  offset="0.97" style="stop-color:#AEB0B0"/>
		<stop  offset="1" style="stop-color:#C8CACB"/>
	</linearGradient>
	<path fill="url(#SVGID_8_)" d="M4.977,55.027h557.25v17.25H4.977V55.027z"/>
	<path fill="#C1C2C3" d="M4.977,494.98h557.25v17.25H4.977V494.98z"/>
	
		<linearGradient id="SVGID_9_" gradientUnits="userSpaceOnUse" x1="807.2231" y1="171.3052" x2="202.2246" y2="171.3051" gradientTransform="matrix(0.75 0 0 -0.75 -94.962 631.8566)">
		<stop  offset="0" style="stop-color:#C1C2C3"/>
		<stop  offset="0.15" style="stop-color:#FBFDFE"/>
		<stop  offset="0.25" style="stop-color:#FDFEFE"/>
		<stop  offset="0.52" style="stop-color:#DCDEDE"/>
		<stop  offset="0.69" style="stop-color:#C4C5C6"/>
		<stop  offset="0.8" style="stop-color:#B9BABB"/>
		<stop  offset="0.97" style="stop-color:#AEB0B0"/>
		<stop  offset="1" style="stop-color:#C8CACB"/>
	</linearGradient>
	<path fill="url(#SVGID_9_)" d="M56.707,480.878h453.75v45H56.707V480.878z"/>
	
		<linearGradient id="SVGID_10_" gradientUnits="userSpaceOnUse" x1="807.2231" y1="171.3052" x2="202.2246" y2="171.3051" gradientTransform="matrix(0.75 0 0 -0.75 -94.962 191.9034)">
		<stop  offset="0" style="stop-color:#C1C2C3"/>
		<stop  offset="0.15" style="stop-color:#FBFDFE"/>
		<stop  offset="0.25" style="stop-color:#FDFEFE"/>
		<stop  offset="0.52" style="stop-color:#DCDEDE"/>
		<stop  offset="0.69" style="stop-color:#C4C5C6"/>
		<stop  offset="0.8" style="stop-color:#B9BABB"/>
		<stop  offset="0.97" style="stop-color:#AEB0B0"/>
		<stop  offset="1" style="stop-color:#C8CACB"/>
	</linearGradient>
	<path fill="url(#SVGID_10_)" d="M56.707,40.926h453.75v45H56.707V40.926z"/>
	
		<linearGradient id="SVGID_11_" gradientUnits="userSpaceOnUse" x1="391.2261" y1="201.3506" x2="391.2261" y2="174.2471" gradientTransform="matrix(0.75 0 0 -0.75 -9.9283 257.2755)">
		<stop  offset="0" style="stop-color:#C1C2C3"/>
		<stop  offset="0.15" style="stop-color:#FBFDFE"/>
		<stop  offset="0.25" style="stop-color:#FDFEFE"/>
		<stop  offset="0.52" style="stop-color:#DCDEDE"/>
		<stop  offset="0.69" style="stop-color:#C4C5C6"/>
		<stop  offset="0.8" style="stop-color:#B9BABB"/>
		<stop  offset="0.97" style="stop-color:#AEB0B0"/>
		<stop  offset="1" style="stop-color:#C8CACB"/>
	</linearGradient>
	<path fill="url(#SVGID_11_)" d="M143.242,106.297h279.75c1.5,0,2.195,0.754,2.195,1.727l0.055,17.023
		c0,0.75-0.922,1.543-1.898,1.543l-280.101-0.043c-0.75,0-1.5-0.746-1.5-1.719v-17.031c0-0.75,0.719-1.535,1.695-1.535
		L143.242,106.297z"/>
	
		<linearGradient id="SVGID_12_" gradientUnits="userSpaceOnUse" x1="391.2261" y1="201.3525" x2="391.2261" y2="174.248" gradientTransform="matrix(0.75 0 0 -0.75 -9.9283 282.631)">
		<stop  offset="0" style="stop-color:#C1C2C3"/>
		<stop  offset="0.15" style="stop-color:#FBFDFE"/>
		<stop  offset="0.25" style="stop-color:#FDFEFE"/>
		<stop  offset="0.52" style="stop-color:#DCDEDE"/>
		<stop  offset="0.69" style="stop-color:#C4C5C6"/>
		<stop  offset="0.8" style="stop-color:#B9BABB"/>
		<stop  offset="0.97" style="stop-color:#AEB0B0"/>
		<stop  offset="1" style="stop-color:#C8CACB"/>
	</linearGradient>
	<path fill="url(#SVGID_12_)" d="M143.242,131.652h279.75c1.5,0,2.195,0.754,2.195,1.727l0.055,17.023
		c0,0.75-0.922,1.543-1.898,1.543l-280.101-0.043c-0.75,0-1.5-0.746-1.5-1.719v-17.031c0-0.75,0.719-1.535,1.695-1.535
		L143.242,131.652z"/>
	
		<linearGradient id="SVGID_13_" gradientUnits="userSpaceOnUse" x1="391.2261" y1="201.3496" x2="391.2261" y2="174.2451" gradientTransform="matrix(0.75 0 0 -0.75 -9.9283 307.9855)">
		<stop  offset="0" style="stop-color:#C1C2C3"/>
		<stop  offset="0.15" style="stop-color:#FBFDFE"/>
		<stop  offset="0.25" style="stop-color:#FDFEFE"/>
		<stop  offset="0.52" style="stop-color:#DCDEDE"/>
		<stop  offset="0.69" style="stop-color:#C4C5C6"/>
		<stop  offset="0.8" style="stop-color:#B9BABB"/>
		<stop  offset="0.97" style="stop-color:#AEB0B0"/>
		<stop  offset="1" style="stop-color:#C8CACB"/>
	</linearGradient>
	<path fill="url(#SVGID_13_)" d="M143.242,157.008h279.75c1.5,0,2.195,0.754,2.195,1.727l0.055,17.023
		c0,0.75-0.922,1.543-1.898,1.543l-280.101-0.043c-0.75,0-1.5-0.746-1.5-1.719v-17.031c0-0.75,0.719-1.535,1.695-1.535
		L143.242,157.008z"/>
	
		<linearGradient id="SVGID_14_" gradientUnits="userSpaceOnUse" x1="391.2261" y1="201.3506" x2="391.2261" y2="174.2471" gradientTransform="matrix(0.75 0 0 -0.75 -9.9283 333.3409)">
		<stop  offset="0" style="stop-color:#C1C2C3"/>
		<stop  offset="0.15" style="stop-color:#FBFDFE"/>
		<stop  offset="0.25" style="stop-color:#FDFEFE"/>
		<stop  offset="0.52" style="stop-color:#DCDEDE"/>
		<stop  offset="0.69" style="stop-color:#C4C5C6"/>
		<stop  offset="0.8" style="stop-color:#B9BABB"/>
		<stop  offset="0.97" style="stop-color:#AEB0B0"/>
		<stop  offset="1" style="stop-color:#C8CACB"/>
	</linearGradient>
	<path fill="url(#SVGID_14_)" d="M143.242,182.363h279.75c1.5,0,2.195,0.754,2.195,1.727l0.055,17.023
		c0,0.75-0.922,1.543-1.898,1.543l-280.101-0.043c-0.75,0-1.5-0.746-1.5-1.719v-17.031c0-0.75,0.719-1.535,1.695-1.535
		L143.242,182.363z"/>
	
		<linearGradient id="SVGID_15_" gradientUnits="userSpaceOnUse" x1="391.2261" y1="201.3535" x2="391.2261" y2="174.2441" gradientTransform="matrix(0.75 0 0 -0.75 -9.9283 358.6954)">
		<stop  offset="0" style="stop-color:#C1C2C3"/>
		<stop  offset="0.15" style="stop-color:#FBFDFE"/>
		<stop  offset="0.25" style="stop-color:#FDFEFE"/>
		<stop  offset="0.52" style="stop-color:#DCDEDE"/>
		<stop  offset="0.69" style="stop-color:#C4C5C6"/>
		<stop  offset="0.8" style="stop-color:#B9BABB"/>
		<stop  offset="0.97" style="stop-color:#AEB0B0"/>
		<stop  offset="1" style="stop-color:#C8CACB"/>
	</linearGradient>
	<path fill="url(#SVGID_15_)" d="M143.242,207.719h279.75c1.5,0,2.195,0.75,2.195,1.727l0.055,17.023
		c0,0.75-0.922,1.543-1.898,1.543l-280.101-0.043c-0.75,0-1.5-0.746-1.5-1.723v-17.027c0-0.75,0.719-1.539,1.695-1.539
		L143.242,207.719z"/>
	
		<linearGradient id="SVGID_16_" gradientUnits="userSpaceOnUse" x1="391.2261" y1="201.3545" x2="391.2261" y2="174.2451" gradientTransform="matrix(0.75 0 0 -0.75 -9.9283 384.0509)">
		<stop  offset="0" style="stop-color:#C1C2C3"/>
		<stop  offset="0.15" style="stop-color:#FBFDFE"/>
		<stop  offset="0.25" style="stop-color:#FDFEFE"/>
		<stop  offset="0.52" style="stop-color:#DCDEDE"/>
		<stop  offset="0.69" style="stop-color:#C4C5C6"/>
		<stop  offset="0.8" style="stop-color:#B9BABB"/>
		<stop  offset="0.97" style="stop-color:#AEB0B0"/>
		<stop  offset="1" style="stop-color:#C8CACB"/>
	</linearGradient>
	<path fill="url(#SVGID_16_)" d="M143.242,233.074h279.75c1.5,0,2.195,0.75,2.195,1.727l0.055,17.023
		c0,0.75-0.922,1.543-1.898,1.543l-280.101-0.043c-0.75,0-1.5-0.75-1.5-1.723v-17.027c0-0.75,0.719-1.539,1.695-1.539
		L143.242,233.074z"/>
	
		<linearGradient id="SVGID_17_" gradientUnits="userSpaceOnUse" x1="391.2261" y1="201.3545" x2="391.2261" y2="174.25" gradientTransform="matrix(0.75 0 0 -0.75 -9.9283 409.4064)">
		<stop  offset="0" style="stop-color:#C1C2C3"/>
		<stop  offset="0.15" style="stop-color:#FBFDFE"/>
		<stop  offset="0.25" style="stop-color:#FDFEFE"/>
		<stop  offset="0.52" style="stop-color:#DCDEDE"/>
		<stop  offset="0.69" style="stop-color:#C4C5C6"/>
		<stop  offset="0.8" style="stop-color:#B9BABB"/>
		<stop  offset="0.97" style="stop-color:#AEB0B0"/>
		<stop  offset="1" style="stop-color:#C8CACB"/>
	</linearGradient>
	<path fill="url(#SVGID_17_)" d="M143.242,258.43h279.75c1.5,0,2.195,0.75,2.195,1.727l0.055,17.023c0,0.75-0.922,1.539-1.898,1.539
		l-280.101-0.039c-0.75,0-1.5-0.75-1.5-1.723V259.93c0-0.75,0.719-1.539,1.695-1.539L143.242,258.43z"/>
	
		<linearGradient id="SVGID_18_" gradientUnits="userSpaceOnUse" x1="391.2261" y1="201.3535" x2="391.2261" y2="174.25" gradientTransform="matrix(0.75 0 0 -0.75 -9.9283 434.7609)">
		<stop  offset="0" style="stop-color:#C1C2C3"/>
		<stop  offset="0.15" style="stop-color:#FBFDFE"/>
		<stop  offset="0.25" style="stop-color:#FDFEFE"/>
		<stop  offset="0.52" style="stop-color:#DCDEDE"/>
		<stop  offset="0.69" style="stop-color:#C4C5C6"/>
		<stop  offset="0.8" style="stop-color:#B9BABB"/>
		<stop  offset="0.97" style="stop-color:#AEB0B0"/>
		<stop  offset="1" style="stop-color:#C8CACB"/>
	</linearGradient>
	<path fill="url(#SVGID_18_)" d="M143.242,283.785h279.75c1.5,0,2.195,0.75,2.195,1.722l0.055,17.027
		c0,0.75-0.922,1.539-1.898,1.539l-280.101-0.039c-0.75,0-1.5-0.75-1.5-1.723v-17.027c0-0.75,0.719-1.539,1.695-1.539
		L143.242,283.785z"/>
	
		<linearGradient id="SVGID_19_" gradientUnits="userSpaceOnUse" x1="391.2261" y1="201.3535" x2="391.2261" y2="174.249" gradientTransform="matrix(0.75 0 0 -0.75 -9.9283 460.1163)">
		<stop  offset="0" style="stop-color:#C1C2C3"/>
		<stop  offset="0.15" style="stop-color:#FBFDFE"/>
		<stop  offset="0.25" style="stop-color:#FDFEFE"/>
		<stop  offset="0.52" style="stop-color:#DCDEDE"/>
		<stop  offset="0.69" style="stop-color:#C4C5C6"/>
		<stop  offset="0.8" style="stop-color:#B9BABB"/>
		<stop  offset="0.97" style="stop-color:#AEB0B0"/>
		<stop  offset="1" style="stop-color:#C8CACB"/>
	</linearGradient>
	<path fill="url(#SVGID_19_)" d="M143.242,309.136h279.75c1.5,0,2.195,0.754,2.195,1.727l0.055,17.023
		c0,0.75-0.922,1.543-1.898,1.543l-280.101-0.043c-0.75,0-1.5-0.746-1.5-1.719v-17.031c0-0.75,0.719-1.535,1.695-1.535
		L143.242,309.136z"/>
	
		<linearGradient id="SVGID_20_" gradientUnits="userSpaceOnUse" x1="391.2261" y1="201.3525" x2="391.2261" y2="174.249" gradientTransform="matrix(0.75 0 0 -0.75 -9.9283 485.4708)">
		<stop  offset="0" style="stop-color:#C1C2C3"/>
		<stop  offset="0.15" style="stop-color:#FBFDFE"/>
		<stop  offset="0.25" style="stop-color:#FDFEFE"/>
		<stop  offset="0.52" style="stop-color:#DCDEDE"/>
		<stop  offset="0.69" style="stop-color:#C4C5C6"/>
		<stop  offset="0.8" style="stop-color:#B9BABB"/>
		<stop  offset="0.97" style="stop-color:#AEB0B0"/>
		<stop  offset="1" style="stop-color:#C8CACB"/>
	</linearGradient>
	<path fill="url(#SVGID_20_)" d="M143.242,334.492h279.75c1.5,0,2.195,0.754,2.195,1.727l0.055,17.023
		c0,0.75-0.922,1.543-1.898,1.543l-280.101-0.043c-0.75,0-1.5-0.746-1.5-1.719v-17.031c0-0.75,0.719-1.535,1.695-1.535
		L143.242,334.492z"/>
	
		<linearGradient id="SVGID_21_" gradientUnits="userSpaceOnUse" x1="391.2261" y1="201.3525" x2="391.2261" y2="174.248" gradientTransform="matrix(0.75 0 0 -0.75 -9.9283 510.8263)">
		<stop  offset="0" style="stop-color:#C1C2C3"/>
		<stop  offset="0.15" style="stop-color:#FBFDFE"/>
		<stop  offset="0.25" style="stop-color:#FDFEFE"/>
		<stop  offset="0.52" style="stop-color:#DCDEDE"/>
		<stop  offset="0.69" style="stop-color:#C4C5C6"/>
		<stop  offset="0.8" style="stop-color:#B9BABB"/>
		<stop  offset="0.97" style="stop-color:#AEB0B0"/>
		<stop  offset="1" style="stop-color:#C8CACB"/>
	</linearGradient>
	<path fill="url(#SVGID_21_)" d="M143.242,359.847h279.75c1.5,0,2.195,0.754,2.195,1.727l0.055,17.023
		c0,0.75-0.922,1.543-1.898,1.543l-280.101-0.043c-0.75,0-1.5-0.746-1.5-1.719v-17.031c0-0.75,0.719-1.535,1.695-1.535
		L143.242,359.847z"/>
	
		<linearGradient id="SVGID_22_" gradientUnits="userSpaceOnUse" x1="391.2261" y1="201.3516" x2="391.2261" y2="174.2471" gradientTransform="matrix(0.75 0 0 -0.75 -9.9283 536.1818)">
		<stop  offset="0" style="stop-color:#C1C2C3"/>
		<stop  offset="0.15" style="stop-color:#FBFDFE"/>
		<stop  offset="0.25" style="stop-color:#FDFEFE"/>
		<stop  offset="0.52" style="stop-color:#DCDEDE"/>
		<stop  offset="0.69" style="stop-color:#C4C5C6"/>
		<stop  offset="0.8" style="stop-color:#B9BABB"/>
		<stop  offset="0.97" style="stop-color:#AEB0B0"/>
		<stop  offset="1" style="stop-color:#C8CACB"/>
	</linearGradient>
	<path fill="url(#SVGID_22_)" d="M143.242,385.203h279.75c1.5,0,2.195,0.754,2.195,1.727l0.055,17.023
		c0,0.75-0.922,1.543-1.898,1.543l-280.101-0.043c-0.75,0-1.5-0.746-1.5-1.719v-17.031c0-0.75,0.719-1.535,1.695-1.535
		L143.242,385.203z"/>
	
		<linearGradient id="SVGID_23_" gradientUnits="userSpaceOnUse" x1="391.2261" y1="201.3525" x2="391.2261" y2="174.249" gradientTransform="matrix(0.75 0 0 -0.75 -9.9283 561.5372)">
		<stop  offset="0" style="stop-color:#C1C2C3"/>
		<stop  offset="0.15" style="stop-color:#FBFDFE"/>
		<stop  offset="0.25" style="stop-color:#FDFEFE"/>
		<stop  offset="0.52" style="stop-color:#DCDEDE"/>
		<stop  offset="0.69" style="stop-color:#C4C5C6"/>
		<stop  offset="0.8" style="stop-color:#B9BABB"/>
		<stop  offset="0.97" style="stop-color:#AEB0B0"/>
		<stop  offset="1" style="stop-color:#C8CACB"/>
	</linearGradient>
	<path fill="url(#SVGID_23_)" d="M143.242,410.558h279.75c1.5,0,2.195,0.754,2.195,1.727l0.055,17.023
		c0,0.75-0.922,1.543-1.898,1.543l-280.101-0.043c-0.75,0-1.5-0.746-1.5-1.719v-17.031c0-0.75,0.719-1.535,1.695-1.535
		L143.242,410.558z"/>
	
		<linearGradient id="SVGID_24_" gradientUnits="userSpaceOnUse" x1="391.2261" y1="201.3555" x2="391.2261" y2="174.2461" gradientTransform="matrix(0.75 0 0 -0.75 -9.9283 586.8907)">
		<stop  offset="0" style="stop-color:#C1C2C3"/>
		<stop  offset="0.15" style="stop-color:#FBFDFE"/>
		<stop  offset="0.25" style="stop-color:#FDFEFE"/>
		<stop  offset="0.52" style="stop-color:#DCDEDE"/>
		<stop  offset="0.69" style="stop-color:#C4C5C6"/>
		<stop  offset="0.8" style="stop-color:#B9BABB"/>
		<stop  offset="0.97" style="stop-color:#AEB0B0"/>
		<stop  offset="1" style="stop-color:#C8CACB"/>
	</linearGradient>
	<path fill="url(#SVGID_24_)" d="M143.242,435.914h279.75c1.5,0,2.195,0.75,2.195,1.727l0.055,17.023
		c0,0.75-0.922,1.543-1.898,1.543l-280.101-0.043c-0.75,0-1.5-0.746-1.5-1.723v-17.027c0-0.75,0.719-1.539,1.695-1.539
		L143.242,435.914z"/>
</g>
</svg>
