<?xml version="1.0" encoding="utf-8"?>
<!-- Generator: Adobe Illustrator 16.0.0, SVG Export Plug-In . SVG Version: 6.00 Build 0)  -->
<!DOCTYPE svg PUBLIC "-//W3C//DTD SVG 1.1//EN" "http://www.w3.org/Graphics/SVG/1.1/DTD/svg11.dtd">
<svg preserveAspectRatio="none"   version="1.1" id="图层_1" xmlns="http://www.w3.org/2000/svg" xmlns:xlink="http://www.w3.org/1999/xlink" x="0px" y="0px"
	 width="384.75px" height="550.964px" viewBox="91.266 7.859 384.75 550.964" enable-background="new 91.266 7.859 384.75 550.964"
	 xml:space="preserve">
<g id="surface399">
	
		<linearGradient id="SVGID_1_" gradientUnits="userSpaceOnUse" x1="715.2231" y1="-110.1968" x2="202.2241" y2="-110.1968" gradientTransform="matrix(0.75 0 0 -0.75 -60.403 242.5509)">
		<stop  offset="0" style="stop-color:#8E9EA5"/>
		<stop  offset="0.03" style="stop-color:#D5E7EE"/>
		<stop  offset="0.08" style="stop-color:#B9CED7"/>
		<stop  offset="0.64" style="stop-color:#B6CBD3"/>
		<stop  offset="0.95" style="stop-color:#B2C6CE"/>
		<stop  offset="1" style="stop-color:#839399"/>
	</linearGradient>
	<path fill="url(#SVGID_1_)" d="M91.266,91.574h384.75v467.25H91.266V91.574z"/>
	
		<linearGradient id="SVGID_2_" gradientUnits="userSpaceOnUse" x1="715.2231" y1="184.8032" x2="202.2241" y2="184.8032" gradientTransform="matrix(0.75 0 0 -0.75 -60.403 242.5509)">
		<stop  offset="0" style="stop-color:#7A9397"/>
		<stop  offset="0.03" style="stop-color:#C2DADF"/>
		<stop  offset="0.08" style="stop-color:#A0BFC5"/>
		<stop  offset="0.64" style="stop-color:#9DBCC2"/>
		<stop  offset="0.95" style="stop-color:#9AB8BD"/>
		<stop  offset="1" style="stop-color:#71888C"/>
	</linearGradient>
	<path fill="url(#SVGID_2_)" d="M91.266,91.574h384.75v24.75H91.266V91.574z"/>
	
		<linearGradient id="SVGID_3_" gradientUnits="userSpaceOnUse" x1="715.2231" y1="184.8071" x2="202.2241" y2="184.8071" gradientTransform="matrix(0.75 0 0 -0.75 -60.403 685.0411)">
		<stop  offset="0" style="stop-color:#7A9397"/>
		<stop  offset="0.03" style="stop-color:#C2DADF"/>
		<stop  offset="0.08" style="stop-color:#A0BFC5"/>
		<stop  offset="0.64" style="stop-color:#9DBCC2"/>
		<stop  offset="0.95" style="stop-color:#9AB8BD"/>
		<stop  offset="1" style="stop-color:#71888C"/>
	</linearGradient>
	<path fill="url(#SVGID_3_)" d="M91.266,534.062h384.75v24.75H91.266V534.062z"/>
	
		<linearGradient id="SVGID_4_" gradientUnits="userSpaceOnUse" x1="522.2251" y1="-77.1968" x2="202.2261" y2="-77.1968" gradientTransform="matrix(0.75 0 0 -0.75 62.3456 267.5577)">
		<stop  offset="0" style="stop-color:#8E9EA5"/>
		<stop  offset="0.03" style="stop-color:#D5E7EE"/>
		<stop  offset="0.08" style="stop-color:#B9CED7"/>
		<stop  offset="0.64" style="stop-color:#B6CBD3"/>
		<stop  offset="0.95" style="stop-color:#B2C6CE"/>
		<stop  offset="1" style="stop-color:#839399"/>
	</linearGradient>
	<path fill="url(#SVGID_4_)" d="M214.016,116.582h240v417.75h-240V116.582z"/>
	
		<radialGradient id="SVGID_5_" cx="228.6982" cy="174.5742" r="37.6224" gradientTransform="matrix(0.75 0 0 -0.75 -18.4962 294.8663)" gradientUnits="userSpaceOnUse">
		<stop  offset="0" style="stop-color:#C7A578"/>
		<stop  offset="0.54" style="stop-color:#D4AF81"/>
		<stop  offset="0.74" style="stop-color:#E8D0B5"/>
		<stop  offset="0.91" style="stop-color:#C7A578"/>
		<stop  offset="1" style="stop-color:#D4AF81"/>
	</radialGradient>
	<path fill="url(#SVGID_5_)" stroke="#DEB887" stroke-width="0.25" stroke-linejoin="bevel" stroke-miterlimit="10" d="
		M133.172,164.137c0-11.25,8.891-20.25,19.855-20.25c10.895,0,19.855,8.977,19.855,20.051c0.039,10.699-8.891,20.047-19.855,20.047
		c-10.855-0.348-19.855-8.977-19.855-20.047V164.137z"/>
	<path fill="#FDE9D0" stroke="#EACD98" stroke-linejoin="bevel" stroke-miterlimit="10" d="M136.762,163.977
		c0-9,7.285-16.5,16.266-16.5c9.234,0,16.266,7.371,16.266,16.461c-0.281,9.039-7.281,16.457-16.266,16.457
		c-8.766,0.082-16.266-7.367-16.266-16.457V163.977z"/>
	<path fill="#E35020" d="M147.152,170.832c0,0,11.902-19.848,12.957-19.238c1.266,0.605-10.359,20.738-10.359,20.738
		L147.152,170.832z"/>
	<path fill="#4B6884" d="M150.426,164.305c0-1.5,1.164-3,2.602-3c1.148,0,2.605,1.18,2.605,2.633
		c0.043,1.117-1.168,2.633-2.605,2.633c-1.102-0.016-2.602-1.18-2.602-2.633V164.305z"/>
	<path fill="none" stroke="#000000" stroke-linejoin="bevel" stroke-miterlimit="10" d="M152.605,150.125l-0.008,3.75"/>
	<path fill="none" stroke="#000000" stroke-linejoin="bevel" stroke-miterlimit="10" d="M140.254,163.438l3.75,0.008"/>
	<path fill="none" stroke="#000000" stroke-linejoin="bevel" stroke-miterlimit="10" d="M162.938,163.438l3.75,0.008"/>
	<path fill="none" stroke="#000000" stroke-linejoin="bevel" stroke-miterlimit="10" d="M143.953,154.277l2.645,2.66"/>
	<path fill="none" stroke="#000000" stroke-linejoin="bevel" stroke-miterlimit="10" d="M162.078,154.277l-2.648,2.66"/>
	<path fill="none" stroke="#3F77A8" stroke-linejoin="bevel" stroke-miterlimit="10" d="M147.141,173.543h12
		c0.75,0,1.676,0.605,1.676,1.402c-0.176,0.848-0.637,1.684-1.426,1.684l-12.25-0.086c-0.75,0-1.551-0.563-1.551-1.359
		c0.051-0.891,0.641-1.684,1.43-1.684L147.141,173.543z"/>
	<path fill="#FFFFFF" fill-opacity="0.3804" d="M155.641,163.977c0-9-11.656-16.5-2.672-16.5c8.672,0,16.266,7.367,16.266,16.461
		c-0.094,9.039-7.281,16.461-16.266,16.461c-9.328,0.078,2.852-7.133,2.852-16.223L155.641,163.977z"/>
	
		<radialGradient id="SVGID_6_" cx="228.6982" cy="174.5728" r="37.6228" gradientTransform="matrix(0.75 0 0 -0.75 -18.4962 368.2521)" gradientUnits="userSpaceOnUse">
		<stop  offset="0" style="stop-color:#C7A578"/>
		<stop  offset="0.54" style="stop-color:#D4AF81"/>
		<stop  offset="0.74" style="stop-color:#E8D0B5"/>
		<stop  offset="0.91" style="stop-color:#C7A578"/>
		<stop  offset="1" style="stop-color:#D4AF81"/>
	</radialGradient>
	<path fill="url(#SVGID_6_)" stroke="#DEB887" stroke-width="0.25" stroke-linejoin="bevel" stroke-miterlimit="10" d="
		M133.172,237.523c0-11.25,8.891-20.25,19.855-20.25c10.895,0,19.855,8.977,19.855,20.051c0.039,10.699-8.891,20.047-19.855,20.047
		c-10.855-0.348-19.855-8.977-19.855-20.047V237.523z"/>
	<path fill="#FDE9D0" stroke="#EACD98" stroke-linejoin="bevel" stroke-miterlimit="10" d="M136.762,237.363
		c0-9,7.285-16.5,16.266-16.5c9.234,0,16.266,7.371,16.266,16.461c-0.281,9.039-7.281,16.457-16.266,16.457
		c-8.766,0.082-16.266-7.367-16.266-16.457V237.363z"/>
	<path fill="#E35020" d="M147.152,244.219c0,0,11.902-19.848,12.957-19.238c1.266,0.605-10.359,20.738-10.359,20.738
		L147.152,244.219z"/>
	<path fill="#4B6884" d="M150.426,237.691c0-1.5,1.164-3,2.602-3c1.148,0,2.605,1.176,2.605,2.633
		c0.043,1.117-1.168,2.629-2.605,2.629c-1.102-0.012-2.602-1.176-2.602-2.629V237.691z"/>
	<path fill="none" stroke="#000000" stroke-linejoin="bevel" stroke-miterlimit="10" d="M152.605,223.512l-0.008,3.75"/>
	<path fill="none" stroke="#000000" stroke-linejoin="bevel" stroke-miterlimit="10" d="M140.254,236.82l3.75,0.008"/>
	<path fill="none" stroke="#000000" stroke-linejoin="bevel" stroke-miterlimit="10" d="M162.938,236.82l3.75,0.008"/>
	<path fill="none" stroke="#000000" stroke-linejoin="bevel" stroke-miterlimit="10" d="M143.953,227.664l2.645,2.656"/>
	<path fill="none" stroke="#000000" stroke-linejoin="bevel" stroke-miterlimit="10" d="M162.078,227.664l-2.648,2.656"/>
	<path fill="none" stroke="#3F77A8" stroke-linejoin="bevel" stroke-miterlimit="10" d="M147.141,246.93h12
		c0.75,0,1.676,0.605,1.676,1.402c-0.176,0.848-0.637,1.684-1.426,1.684l-12.25-0.086c-0.75,0-1.551-0.563-1.551-1.359
		c0.051-0.891,0.641-1.684,1.43-1.684L147.141,246.93z"/>
	<path fill="#FFFFFF" fill-opacity="0.3804" d="M155.641,237.363c0-9-11.656-16.5-2.672-16.5c8.672,0,16.266,7.367,16.266,16.461
		c-0.094,9.039-7.281,16.457-16.266,16.457c-9.328,0.082,2.852-7.129,2.852-16.219L155.641,237.363z"/>
	<path fill="#3E3938" stroke="#3E3938" stroke-linejoin="bevel" stroke-miterlimit="10" d="M224.512,136.656
		c0-5.25,4.34-9.75,9.691-9.75c5.309,0,9.691,4.383,9.691,9.785c0.117,5.215-4.34,9.785-9.691,9.785
		c-5.191-0.07-9.691-4.379-9.691-9.785V136.656z"/>
	<path fill="#3E3938" stroke="#3E3938" stroke-linejoin="bevel" stroke-miterlimit="10" d="M251.848,136.656
		c0-5.25,4.34-9.75,9.691-9.75c5.309,0,9.691,4.383,9.691,9.785c0.117,5.215-4.34,9.785-9.691,9.785
		c-5.191-0.07-9.691-4.379-9.691-9.785V136.656z"/>
	<path fill="#3E3938" stroke="#3E3938" stroke-linejoin="bevel" stroke-miterlimit="10" d="M281.953,136.656
		c0-5.25,4.339-9.75,9.691-9.75c5.309,0,9.691,4.383,9.691,9.785c0.117,5.215-4.34,9.785-9.691,9.785
		c-5.191-0.07-9.691-4.379-9.691-9.785V136.656z"/>
	<path fill="#3E3938" stroke="#3E3938" stroke-linejoin="bevel" stroke-miterlimit="10" d="M310.675,136.656
		c0-5.25,4.336-9.75,9.688-9.75c5.313,0,9.691,4.383,9.691,9.785c0.121,5.215-4.336,9.785-9.691,9.785
		c-5.188-0.07-9.688-4.379-9.688-9.785V136.656z"/>
	<path fill="#3E3938" stroke="#3E3938" stroke-linejoin="bevel" stroke-miterlimit="10" d="M339.394,136.656
		c0-5.25,4.34-9.75,9.691-9.75c5.309,0,9.691,4.383,9.691,9.785c0.117,5.215-4.34,9.785-9.691,9.785
		c-5.191-0.07-9.691-4.379-9.691-9.785V136.656z"/>
	<path fill="#3E3938" stroke="#3E3938" stroke-linejoin="bevel" stroke-miterlimit="10" d="M368.113,136.656
		c0-5.25,4.34-9.75,9.691-9.75c5.309,0,9.691,4.383,9.691,9.785c0.117,5.215-4.34,9.785-9.691,9.785
		c-5.191-0.07-9.691-4.379-9.691-9.785V136.656z"/>
	<path fill="#3E3938" stroke="#3E3938" stroke-linejoin="bevel" stroke-miterlimit="10" d="M396.835,136.656
		c0-5.25,4.34-9.75,9.691-9.75c5.309,0,9.691,4.383,9.691,9.785c0.117,5.215-4.34,9.785-9.691,9.785
		c-5.191-0.07-9.691-4.379-9.691-9.785V136.656z"/>
	<path fill="#3E3938" stroke="#3E3938" stroke-linejoin="bevel" stroke-miterlimit="10" d="M425.554,136.656
		c0-5.25,4.34-9.75,9.691-9.75c5.309,0,9.691,4.383,9.691,9.785c0.117,5.215-4.34,9.785-9.691,9.785
		c-5.191-0.07-9.691-4.379-9.691-9.785V136.656z"/>
	<path fill="#3E3938" stroke="#3E3938" stroke-linejoin="bevel" stroke-miterlimit="10" d="M224.512,163.48
		c0-5.25,4.34-9.75,9.691-9.75c5.309,0,9.691,4.383,9.691,9.785c0.117,5.215-4.34,9.785-9.691,9.785
		c-5.191-0.07-9.691-4.379-9.691-9.785V163.48z"/>
	<path fill="#3E3938" stroke="#3E3938" stroke-linejoin="bevel" stroke-miterlimit="10" d="M251.848,163.48
		c0-5.25,4.34-9.75,9.691-9.75c5.309,0,9.691,4.383,9.691,9.785c0.117,5.215-4.34,9.785-9.691,9.785
		c-5.191-0.07-9.691-4.379-9.691-9.785V163.48z"/>
	<path fill="#3E3938" stroke="#3E3938" stroke-linejoin="bevel" stroke-miterlimit="10" d="M281.953,163.48
		c0-5.25,4.339-9.75,9.691-9.75c5.309,0,9.691,4.383,9.691,9.785c0.117,5.215-4.34,9.785-9.691,9.785
		c-5.191-0.07-9.691-4.379-9.691-9.785V163.48z"/>
	<path fill="#3E3938" stroke="#3E3938" stroke-linejoin="bevel" stroke-miterlimit="10" d="M310.675,163.48
		c0-5.25,4.336-9.75,9.688-9.75c5.313,0,9.691,4.383,9.691,9.785c0.121,5.215-4.336,9.785-9.691,9.785
		c-5.188-0.07-9.688-4.379-9.688-9.785V163.48z"/>
	<path fill="#3E3938" stroke="#3E3938" stroke-linejoin="bevel" stroke-miterlimit="10" d="M339.394,163.48
		c0-5.25,4.34-9.75,9.691-9.75c5.309,0,9.691,4.383,9.691,9.785c0.117,5.215-4.34,9.785-9.691,9.785
		c-5.191-0.07-9.691-4.379-9.691-9.785V163.48z"/>
	<path fill="#3E3938" stroke="#3E3938" stroke-linejoin="bevel" stroke-miterlimit="10" d="M368.113,163.48
		c0-5.25,4.34-9.75,9.691-9.75c5.309,0,9.691,4.383,9.691,9.785c0.117,5.215-4.34,9.785-9.691,9.785
		c-5.191-0.07-9.691-4.379-9.691-9.785V163.48z"/>
	<path fill="#3E3938" stroke="#3E3938" stroke-linejoin="bevel" stroke-miterlimit="10" d="M396.835,163.48
		c0-5.25,4.34-9.75,9.691-9.75c5.309,0,9.691,4.383,9.691,9.785c0.117,5.215-4.34,9.785-9.691,9.785
		c-5.191-0.07-9.691-4.379-9.691-9.785V163.48z"/>
	<path fill="#3E3938" stroke="#3E3938" stroke-linejoin="bevel" stroke-miterlimit="10" d="M425.554,163.48
		c0-5.25,4.34-9.75,9.691-9.75c5.309,0,9.691,4.383,9.691,9.785c0.117,5.215-4.34,9.785-9.691,9.785
		c-5.191-0.07-9.691-4.379-9.691-9.785V163.48z"/>
	<path fill="#3E3938" stroke="#3E3938" stroke-linejoin="bevel" stroke-miterlimit="10" d="M224.512,190.305
		c0-5.25,4.34-9.75,9.691-9.75c5.309,0,9.691,4.383,9.691,9.785c0.117,5.215-4.34,9.785-9.691,9.785
		c-5.191-0.07-9.691-4.379-9.691-9.785V190.305z"/>
	<path fill="#3E3938" stroke="#3E3938" stroke-linejoin="bevel" stroke-miterlimit="10" d="M251.848,190.305
		c0-5.25,4.34-9.75,9.691-9.75c5.309,0,9.691,4.383,9.691,9.785c0.117,5.215-4.34,9.785-9.691,9.785
		c-5.191-0.07-9.691-4.379-9.691-9.785V190.305z"/>
	<path fill="#3E3938" stroke="#3E3938" stroke-linejoin="bevel" stroke-miterlimit="10" d="M281.953,190.305
		c0-5.25,4.339-9.75,9.691-9.75c5.309,0,9.691,4.383,9.691,9.785c0.117,5.215-4.34,9.785-9.691,9.785
		c-5.191-0.07-9.691-4.379-9.691-9.785V190.305z"/>
	<path fill="#3E3938" stroke="#3E3938" stroke-linejoin="bevel" stroke-miterlimit="10" d="M310.675,190.305
		c0-5.25,4.336-9.75,9.688-9.75c5.313,0,9.691,4.383,9.691,9.785c0.121,5.215-4.336,9.785-9.691,9.785
		c-5.188-0.07-9.688-4.379-9.688-9.785V190.305z"/>
	<path fill="#3E3938" stroke="#3E3938" stroke-linejoin="bevel" stroke-miterlimit="10" d="M339.394,190.305
		c0-5.25,4.34-9.75,9.691-9.75c5.309,0,9.691,4.383,9.691,9.785c0.117,5.215-4.34,9.785-9.691,9.785
		c-5.191-0.07-9.691-4.379-9.691-9.785V190.305z"/>
	<path fill="#3E3938" stroke="#3E3938" stroke-linejoin="bevel" stroke-miterlimit="10" d="M368.113,190.305
		c0-5.25,4.34-9.75,9.691-9.75c5.309,0,9.691,4.383,9.691,9.785c0.117,5.215-4.34,9.785-9.691,9.785
		c-5.191-0.07-9.691-4.379-9.691-9.785V190.305z"/>
	<path fill="#3E3938" stroke="#3E3938" stroke-linejoin="bevel" stroke-miterlimit="10" d="M396.835,190.305
		c0-5.25,4.34-9.75,9.691-9.75c5.309,0,9.691,4.383,9.691,9.785c0.117,5.215-4.34,9.785-9.691,9.785
		c-5.191-0.07-9.691-4.379-9.691-9.785V190.305z"/>
	<path fill="#3E3938" stroke="#3E3938" stroke-linejoin="bevel" stroke-miterlimit="10" d="M425.554,190.305
		c0-5.25,4.34-9.75,9.691-9.75c5.309,0,9.691,4.383,9.691,9.785c0.117,5.215-4.34,9.785-9.691,9.785
		c-5.191-0.07-9.691-4.379-9.691-9.785V190.305z"/>
	<path fill="#3E3938" stroke="#3E3938" stroke-linejoin="bevel" stroke-miterlimit="10" d="M224.512,217.129
		c0-5.25,4.34-9.75,9.691-9.75c5.309,0,9.691,4.383,9.691,9.785c0.117,5.215-4.34,9.785-9.691,9.785
		c-5.191-0.07-9.691-4.379-9.691-9.785V217.129z"/>
	<path fill="#3E3938" stroke="#3E3938" stroke-linejoin="bevel" stroke-miterlimit="10" d="M251.848,217.129
		c0-5.25,4.34-9.75,9.691-9.75c5.309,0,9.691,4.383,9.691,9.785c0.117,5.215-4.34,9.785-9.691,9.785
		c-5.191-0.07-9.691-4.379-9.691-9.785V217.129z"/>
	<path fill="#3E3938" stroke="#3E3938" stroke-linejoin="bevel" stroke-miterlimit="10" d="M281.953,217.129
		c0-5.25,4.339-9.75,9.691-9.75c5.309,0,9.691,4.383,9.691,9.785c0.117,5.215-4.34,9.785-9.691,9.785
		c-5.191-0.07-9.691-4.379-9.691-9.785V217.129z"/>
	<path fill="#3E3938" stroke="#3E3938" stroke-linejoin="bevel" stroke-miterlimit="10" d="M310.675,217.129
		c0-5.25,4.336-9.75,9.688-9.75c5.313,0,9.691,4.383,9.691,9.785c0.121,5.215-4.336,9.785-9.691,9.785
		c-5.188-0.07-9.688-4.379-9.688-9.785V217.129z"/>
	<path fill="#3E3938" stroke="#3E3938" stroke-linejoin="bevel" stroke-miterlimit="10" d="M339.394,217.129
		c0-5.25,4.34-9.75,9.691-9.75c5.309,0,9.691,4.383,9.691,9.785c0.117,5.215-4.34,9.785-9.691,9.785
		c-5.191-0.07-9.691-4.379-9.691-9.785V217.129z"/>
	<path fill="#3E3938" stroke="#3E3938" stroke-linejoin="bevel" stroke-miterlimit="10" d="M368.113,217.129
		c0-5.25,4.34-9.75,9.691-9.75c5.309,0,9.691,4.383,9.691,9.785c0.117,5.215-4.34,9.785-9.691,9.785
		c-5.191-0.07-9.691-4.379-9.691-9.785V217.129z"/>
	<path fill="#3E3938" stroke="#3E3938" stroke-linejoin="bevel" stroke-miterlimit="10" d="M396.835,217.129
		c0-5.25,4.34-9.75,9.691-9.75c5.309,0,9.691,4.383,9.691,9.785c0.117,5.215-4.34,9.785-9.691,9.785
		c-5.191-0.07-9.691-4.379-9.691-9.785V217.129z"/>
	<path fill="#3E3938" stroke="#3E3938" stroke-linejoin="bevel" stroke-miterlimit="10" d="M425.554,217.129
		c0-5.25,4.34-9.75,9.691-9.75c5.309,0,9.691,4.383,9.691,9.785c0.117,5.215-4.34,9.785-9.691,9.785
		c-5.191-0.07-9.691-4.379-9.691-9.785V217.129z"/>
	<path fill="#3E3938" stroke="#3E3938" stroke-linejoin="bevel" stroke-miterlimit="10" d="M224.512,243.953
		c0-5.25,4.34-9.75,9.691-9.75c5.309,0,9.691,4.383,9.691,9.785c0.117,5.215-4.34,9.785-9.691,9.785
		c-5.191-0.07-9.691-4.379-9.691-9.785V243.953z"/>
	<path fill="#3E3938" stroke="#3E3938" stroke-linejoin="bevel" stroke-miterlimit="10" d="M251.848,243.953
		c0-5.25,4.34-9.75,9.691-9.75c5.309,0,9.691,4.383,9.691,9.785c0.117,5.215-4.34,9.785-9.691,9.785
		c-5.191-0.07-9.691-4.379-9.691-9.785V243.953z"/>
	<path fill="#3E3938" stroke="#3E3938" stroke-linejoin="bevel" stroke-miterlimit="10" d="M281.953,243.953
		c0-5.25,4.339-9.75,9.691-9.75c5.309,0,9.691,4.383,9.691,9.785c0.117,5.215-4.34,9.785-9.691,9.785
		c-5.191-0.07-9.691-4.379-9.691-9.785V243.953z"/>
	<path fill="#3E3938" stroke="#3E3938" stroke-linejoin="bevel" stroke-miterlimit="10" d="M310.675,243.953
		c0-5.25,4.336-9.75,9.688-9.75c5.313,0,9.691,4.383,9.691,9.785c0.121,5.215-4.336,9.785-9.691,9.785
		c-5.188-0.07-9.688-4.379-9.688-9.785V243.953z"/>
	<path fill="#3E3938" stroke="#3E3938" stroke-linejoin="bevel" stroke-miterlimit="10" d="M339.394,243.953
		c0-5.25,4.34-9.75,9.691-9.75c5.309,0,9.691,4.383,9.691,9.785c0.117,5.215-4.34,9.785-9.691,9.785
		c-5.191-0.07-9.691-4.379-9.691-9.785V243.953z"/>
	<path fill="#3E3938" stroke="#3E3938" stroke-linejoin="bevel" stroke-miterlimit="10" d="M368.113,243.953
		c0-5.25,4.34-9.75,9.691-9.75c5.309,0,9.691,4.383,9.691,9.785c0.117,5.215-4.34,9.785-9.691,9.785
		c-5.191-0.07-9.691-4.379-9.691-9.785V243.953z"/>
	<path fill="#3E3938" stroke="#3E3938" stroke-linejoin="bevel" stroke-miterlimit="10" d="M396.835,243.953
		c0-5.25,4.34-9.75,9.691-9.75c5.309,0,9.691,4.383,9.691,9.785c0.117,5.215-4.34,9.785-9.691,9.785
		c-5.191-0.07-9.691-4.379-9.691-9.785V243.953z"/>
	<path fill="#3E3938" stroke="#3E3938" stroke-linejoin="bevel" stroke-miterlimit="10" d="M425.554,243.953
		c0-5.25,4.34-9.75,9.691-9.75c5.309,0,9.691,4.383,9.691,9.785c0.117,5.215-4.34,9.785-9.691,9.785
		c-5.191-0.07-9.691-4.379-9.691-9.785V243.953z"/>
	<path fill="#3E3938" stroke="#3E3938" stroke-linejoin="bevel" stroke-miterlimit="10" d="M224.512,270.777
		c0-5.25,4.34-9.75,9.691-9.75c5.309,0,9.691,4.383,9.691,9.785c0.117,5.215-4.34,9.785-9.691,9.785
		c-5.191-0.07-9.691-4.379-9.691-9.785V270.777z"/>
	<path fill="#3E3938" stroke="#3E3938" stroke-linejoin="bevel" stroke-miterlimit="10" d="M251.848,270.777
		c0-5.25,4.34-9.75,9.691-9.75c5.309,0,9.691,4.383,9.691,9.785c0.117,5.215-4.34,9.785-9.691,9.785
		c-5.191-0.07-9.691-4.379-9.691-9.785V270.777z"/>
	<path fill="#3E3938" stroke="#3E3938" stroke-linejoin="bevel" stroke-miterlimit="10" d="M281.953,270.777
		c0-5.25,4.339-9.75,9.691-9.75c5.309,0,9.691,4.383,9.691,9.785c0.117,5.215-4.34,9.785-9.691,9.785
		c-5.191-0.07-9.691-4.379-9.691-9.785V270.777z"/>
	<path fill="#3E3938" stroke="#3E3938" stroke-linejoin="bevel" stroke-miterlimit="10" d="M310.675,270.777
		c0-5.25,4.336-9.75,9.688-9.75c5.313,0,9.691,4.383,9.691,9.785c0.121,5.215-4.336,9.785-9.691,9.785
		c-5.188-0.07-9.688-4.379-9.688-9.785V270.777z"/>
	<path fill="#3E3938" stroke="#3E3938" stroke-linejoin="bevel" stroke-miterlimit="10" d="M339.394,270.777
		c0-5.25,4.34-9.75,9.691-9.75c5.309,0,9.691,4.383,9.691,9.785c0.117,5.215-4.34,9.785-9.691,9.785
		c-5.191-0.07-9.691-4.379-9.691-9.785V270.777z"/>
	<path fill="#3E3938" stroke="#3E3938" stroke-linejoin="bevel" stroke-miterlimit="10" d="M368.113,270.777
		c0-5.25,4.34-9.75,9.691-9.75c5.309,0,9.691,4.383,9.691,9.785c0.117,5.215-4.34,9.785-9.691,9.785
		c-5.191-0.07-9.691-4.379-9.691-9.785V270.777z"/>
	<path fill="#3E3938" stroke="#3E3938" stroke-linejoin="bevel" stroke-miterlimit="10" d="M396.835,270.777
		c0-5.25,4.34-9.75,9.691-9.75c5.309,0,9.691,4.383,9.691,9.785c0.117,5.215-4.34,9.785-9.691,9.785
		c-5.191-0.07-9.691-4.379-9.691-9.785V270.777z"/>
	<path fill="#3E3938" stroke="#3E3938" stroke-linejoin="bevel" stroke-miterlimit="10" d="M425.554,270.777
		c0-5.25,4.34-9.75,9.691-9.75c5.309,0,9.691,4.383,9.691,9.785c0.117,5.215-4.34,9.785-9.691,9.785
		c-5.191-0.07-9.691-4.379-9.691-9.785V270.777z"/>
	<path fill="#3E3938" stroke="#3E3938" stroke-linejoin="bevel" stroke-miterlimit="10" d="M224.512,297.601
		c0-5.25,4.34-9.75,9.691-9.75c5.309,0,9.691,4.383,9.691,9.785c0.117,5.215-4.34,9.785-9.691,9.785
		c-5.191-0.07-9.691-4.379-9.691-9.785V297.601z"/>
	<path fill="#3E3938" stroke="#3E3938" stroke-linejoin="bevel" stroke-miterlimit="10" d="M251.848,297.601
		c0-5.25,4.34-9.75,9.691-9.75c5.309,0,9.691,4.383,9.691,9.785c0.117,5.215-4.34,9.785-9.691,9.785
		c-5.191-0.07-9.691-4.379-9.691-9.785V297.601z"/>
	<path fill="#3E3938" stroke="#3E3938" stroke-linejoin="bevel" stroke-miterlimit="10" d="M281.953,297.601
		c0-5.25,4.339-9.75,9.691-9.75c5.309,0,9.691,4.383,9.691,9.785c0.117,5.215-4.34,9.785-9.691,9.785
		c-5.191-0.07-9.691-4.379-9.691-9.785V297.601z"/>
	<path fill="#3E3938" stroke="#3E3938" stroke-linejoin="bevel" stroke-miterlimit="10" d="M310.675,297.601
		c0-5.25,4.336-9.75,9.688-9.75c5.313,0,9.691,4.383,9.691,9.785c0.121,5.215-4.336,9.785-9.691,9.785
		c-5.188-0.07-9.688-4.379-9.688-9.785V297.601z"/>
	<path fill="#3E3938" stroke="#3E3938" stroke-linejoin="bevel" stroke-miterlimit="10" d="M339.394,297.601
		c0-5.25,4.34-9.75,9.691-9.75c5.309,0,9.691,4.383,9.691,9.785c0.117,5.215-4.34,9.785-9.691,9.785
		c-5.191-0.07-9.691-4.379-9.691-9.785V297.601z"/>
	<path fill="#3E3938" stroke="#3E3938" stroke-linejoin="bevel" stroke-miterlimit="10" d="M368.113,297.601
		c0-5.25,4.34-9.75,9.691-9.75c5.309,0,9.691,4.383,9.691,9.785c0.117,5.215-4.34,9.785-9.691,9.785
		c-5.191-0.07-9.691-4.379-9.691-9.785V297.601z"/>
	<path fill="#3E3938" stroke="#3E3938" stroke-linejoin="bevel" stroke-miterlimit="10" d="M396.835,297.601
		c0-5.25,4.34-9.75,9.691-9.75c5.309,0,9.691,4.383,9.691,9.785c0.117,5.215-4.34,9.785-9.691,9.785
		c-5.191-0.07-9.691-4.379-9.691-9.785V297.601z"/>
	<path fill="#3E3938" stroke="#3E3938" stroke-linejoin="bevel" stroke-miterlimit="10" d="M425.554,297.601
		c0-5.25,4.34-9.75,9.691-9.75c5.309,0,9.691,4.383,9.691,9.785c0.117,5.215-4.34,9.785-9.691,9.785
		c-5.191-0.07-9.691-4.379-9.691-9.785V297.601z"/>
	<path fill="#3E3938" stroke="#3E3938" stroke-linejoin="bevel" stroke-miterlimit="10" d="M224.512,324.425
		c0-5.25,4.34-9.75,9.691-9.75c5.309,0,9.691,4.383,9.691,9.785c0.117,5.215-4.34,9.785-9.691,9.785
		c-5.191-0.07-9.691-4.379-9.691-9.785V324.425z"/>
	<path fill="#3E3938" stroke="#3E3938" stroke-linejoin="bevel" stroke-miterlimit="10" d="M251.848,324.425
		c0-5.25,4.34-9.75,9.691-9.75c5.309,0,9.691,4.383,9.691,9.785c0.117,5.215-4.34,9.785-9.691,9.785
		c-5.191-0.07-9.691-4.379-9.691-9.785V324.425z"/>
	<path fill="#3E3938" stroke="#3E3938" stroke-linejoin="bevel" stroke-miterlimit="10" d="M281.953,324.425
		c0-5.25,4.339-9.75,9.691-9.75c5.309,0,9.691,4.383,9.691,9.785c0.117,5.215-4.34,9.785-9.691,9.785
		c-5.191-0.07-9.691-4.379-9.691-9.785V324.425z"/>
	<path fill="#3E3938" stroke="#3E3938" stroke-linejoin="bevel" stroke-miterlimit="10" d="M310.675,324.425
		c0-5.25,4.336-9.75,9.688-9.75c5.313,0,9.691,4.383,9.691,9.785c0.121,5.215-4.336,9.785-9.691,9.785
		c-5.188-0.07-9.688-4.379-9.688-9.785V324.425z"/>
	<path fill="#3E3938" stroke="#3E3938" stroke-linejoin="bevel" stroke-miterlimit="10" d="M339.394,324.425
		c0-5.25,4.34-9.75,9.691-9.75c5.309,0,9.691,4.383,9.691,9.785c0.117,5.215-4.34,9.785-9.691,9.785
		c-5.191-0.07-9.691-4.379-9.691-9.785V324.425z"/>
	<path fill="#3E3938" stroke="#3E3938" stroke-linejoin="bevel" stroke-miterlimit="10" d="M368.113,324.425
		c0-5.25,4.34-9.75,9.691-9.75c5.309,0,9.691,4.383,9.691,9.785c0.117,5.215-4.34,9.785-9.691,9.785
		c-5.191-0.07-9.691-4.379-9.691-9.785V324.425z"/>
	<path fill="#3E3938" stroke="#3E3938" stroke-linejoin="bevel" stroke-miterlimit="10" d="M396.835,324.425
		c0-5.25,4.34-9.75,9.691-9.75c5.309,0,9.691,4.383,9.691,9.785c0.117,5.215-4.34,9.785-9.691,9.785
		c-5.191-0.07-9.691-4.379-9.691-9.785V324.425z"/>
	<path fill="#3E3938" stroke="#3E3938" stroke-linejoin="bevel" stroke-miterlimit="10" d="M425.554,324.425
		c0-5.25,4.34-9.75,9.691-9.75c5.309,0,9.691,4.383,9.691,9.785c0.117,5.215-4.34,9.785-9.691,9.785
		c-5.191-0.07-9.691-4.379-9.691-9.785V324.425z"/>
	<path fill="#3E3938" stroke="#3E3938" stroke-linejoin="bevel" stroke-miterlimit="10" d="M224.512,351.25
		c0-5.25,4.34-9.75,9.691-9.75c5.309,0,9.691,4.383,9.691,9.785c0.117,5.215-4.34,9.785-9.691,9.785
		c-5.191-0.07-9.691-4.379-9.691-9.785V351.25z"/>
	<path fill="#3E3938" stroke="#3E3938" stroke-linejoin="bevel" stroke-miterlimit="10" d="M251.848,351.25
		c0-5.25,4.34-9.75,9.691-9.75c5.309,0,9.691,4.383,9.691,9.785c0.117,5.215-4.34,9.785-9.691,9.785
		c-5.191-0.07-9.691-4.379-9.691-9.785V351.25z"/>
	<path fill="#3E3938" stroke="#3E3938" stroke-linejoin="bevel" stroke-miterlimit="10" d="M281.953,351.25
		c0-5.25,4.339-9.75,9.691-9.75c5.309,0,9.691,4.383,9.691,9.785c0.117,5.215-4.34,9.785-9.691,9.785
		c-5.191-0.07-9.691-4.379-9.691-9.785V351.25z"/>
	<path fill="#3E3938" stroke="#3E3938" stroke-linejoin="bevel" stroke-miterlimit="10" d="M310.675,351.25
		c0-5.25,4.336-9.75,9.688-9.75c5.313,0,9.691,4.383,9.691,9.785c0.121,5.215-4.336,9.785-9.691,9.785
		c-5.188-0.07-9.688-4.379-9.688-9.785V351.25z"/>
	<path fill="#3E3938" stroke="#3E3938" stroke-linejoin="bevel" stroke-miterlimit="10" d="M339.394,351.25
		c0-5.25,4.34-9.75,9.691-9.75c5.309,0,9.691,4.383,9.691,9.785c0.117,5.215-4.34,9.785-9.691,9.785
		c-5.191-0.07-9.691-4.379-9.691-9.785V351.25z"/>
	<path fill="#3E3938" stroke="#3E3938" stroke-linejoin="bevel" stroke-miterlimit="10" d="M368.113,351.25
		c0-5.25,4.34-9.75,9.691-9.75c5.309,0,9.691,4.383,9.691,9.785c0.117,5.215-4.34,9.785-9.691,9.785
		c-5.191-0.07-9.691-4.379-9.691-9.785V351.25z"/>
	<path fill="#3E3938" stroke="#3E3938" stroke-linejoin="bevel" stroke-miterlimit="10" d="M396.835,351.25
		c0-5.25,4.34-9.75,9.691-9.75c5.309,0,9.691,4.383,9.691,9.785c0.117,5.215-4.34,9.785-9.691,9.785
		c-5.191-0.07-9.691-4.379-9.691-9.785V351.25z"/>
	<path fill="#3E3938" stroke="#3E3938" stroke-linejoin="bevel" stroke-miterlimit="10" d="M425.554,351.25
		c0-5.25,4.34-9.75,9.691-9.75c5.309,0,9.691,4.383,9.691,9.785c0.117,5.215-4.34,9.785-9.691,9.785
		c-5.191-0.07-9.691-4.379-9.691-9.785V351.25z"/>
	<path fill="#3E3938" stroke="#3E3938" stroke-linejoin="bevel" stroke-miterlimit="10" d="M224.512,378.074
		c0-5.25,4.34-9.75,9.691-9.75c5.309,0,9.691,4.383,9.691,9.785c0.117,5.215-4.34,9.785-9.691,9.785
		c-5.191-0.07-9.691-4.379-9.691-9.785V378.074z"/>
	<path fill="#3E3938" stroke="#3E3938" stroke-linejoin="bevel" stroke-miterlimit="10" d="M251.848,378.074
		c0-5.25,4.34-9.75,9.691-9.75c5.309,0,9.691,4.383,9.691,9.785c0.117,5.215-4.34,9.785-9.691,9.785
		c-5.191-0.07-9.691-4.379-9.691-9.785V378.074z"/>
	<path fill="#3E3938" stroke="#3E3938" stroke-linejoin="bevel" stroke-miterlimit="10" d="M281.953,378.074
		c0-5.25,4.339-9.75,9.691-9.75c5.309,0,9.691,4.383,9.691,9.785c0.117,5.215-4.34,9.785-9.691,9.785
		c-5.191-0.07-9.691-4.379-9.691-9.785V378.074z"/>
	<path fill="#3E3938" stroke="#3E3938" stroke-linejoin="bevel" stroke-miterlimit="10" d="M310.675,378.074
		c0-5.25,4.336-9.75,9.688-9.75c5.313,0,9.691,4.383,9.691,9.785c0.121,5.215-4.336,9.785-9.691,9.785
		c-5.188-0.07-9.688-4.379-9.688-9.785V378.074z"/>
	<path fill="#3E3938" stroke="#3E3938" stroke-linejoin="bevel" stroke-miterlimit="10" d="M339.394,378.074
		c0-5.25,4.34-9.75,9.691-9.75c5.309,0,9.691,4.383,9.691,9.785c0.117,5.215-4.34,9.785-9.691,9.785
		c-5.191-0.07-9.691-4.379-9.691-9.785V378.074z"/>
	<path fill="#3E3938" stroke="#3E3938" stroke-linejoin="bevel" stroke-miterlimit="10" d="M368.113,378.074
		c0-5.25,4.34-9.75,9.691-9.75c5.309,0,9.691,4.383,9.691,9.785c0.117,5.215-4.34,9.785-9.691,9.785
		c-5.191-0.07-9.691-4.379-9.691-9.785V378.074z"/>
	<path fill="#3E3938" stroke="#3E3938" stroke-linejoin="bevel" stroke-miterlimit="10" d="M396.835,378.074
		c0-5.25,4.34-9.75,9.691-9.75c5.309,0,9.691,4.383,9.691,9.785c0.117,5.215-4.34,9.785-9.691,9.785
		c-5.191-0.07-9.691-4.379-9.691-9.785V378.074z"/>
	<path fill="#3E3938" stroke="#3E3938" stroke-linejoin="bevel" stroke-miterlimit="10" d="M425.554,378.074
		c0-5.25,4.34-9.75,9.691-9.75c5.309,0,9.691,4.383,9.691,9.785c0.117,5.215-4.34,9.785-9.691,9.785
		c-5.191-0.07-9.691-4.379-9.691-9.785V378.074z"/>
	<path fill="#3E3938" stroke="#3E3938" stroke-linejoin="bevel" stroke-miterlimit="10" d="M224.512,404.898
		c0-5.25,4.34-9.75,9.691-9.75c5.309,0,9.691,4.383,9.691,9.785c0.117,5.215-4.34,9.785-9.691,9.785
		c-5.191-0.07-9.691-4.379-9.691-9.785V404.898z"/>
	<path fill="#3E3938" stroke="#3E3938" stroke-linejoin="bevel" stroke-miterlimit="10" d="M251.848,404.898
		c0-5.25,4.34-9.75,9.691-9.75c5.309,0,9.691,4.383,9.691,9.785c0.117,5.215-4.34,9.785-9.691,9.785
		c-5.191-0.07-9.691-4.379-9.691-9.785V404.898z"/>
	<path fill="#3E3938" stroke="#3E3938" stroke-linejoin="bevel" stroke-miterlimit="10" d="M281.953,404.898
		c0-5.25,4.339-9.75,9.691-9.75c5.309,0,9.691,4.383,9.691,9.785c0.117,5.215-4.34,9.785-9.691,9.785
		c-5.191-0.07-9.691-4.379-9.691-9.785V404.898z"/>
	<path fill="#3E3938" stroke="#3E3938" stroke-linejoin="bevel" stroke-miterlimit="10" d="M310.675,404.898
		c0-5.25,4.336-9.75,9.688-9.75c5.313,0,9.691,4.383,9.691,9.785c0.121,5.215-4.336,9.785-9.691,9.785
		c-5.188-0.07-9.688-4.379-9.688-9.785V404.898z"/>
	<path fill="#3E3938" stroke="#3E3938" stroke-linejoin="bevel" stroke-miterlimit="10" d="M339.394,404.898
		c0-5.25,4.34-9.75,9.691-9.75c5.309,0,9.691,4.383,9.691,9.785c0.117,5.215-4.34,9.785-9.691,9.785
		c-5.191-0.07-9.691-4.379-9.691-9.785V404.898z"/>
	<path fill="#3E3938" stroke="#3E3938" stroke-linejoin="bevel" stroke-miterlimit="10" d="M368.113,404.898
		c0-5.25,4.34-9.75,9.691-9.75c5.309,0,9.691,4.383,9.691,9.785c0.117,5.215-4.34,9.785-9.691,9.785
		c-5.191-0.07-9.691-4.379-9.691-9.785V404.898z"/>
	<path fill="#3E3938" stroke="#3E3938" stroke-linejoin="bevel" stroke-miterlimit="10" d="M396.835,404.898
		c0-5.25,4.34-9.75,9.691-9.75c5.309,0,9.691,4.383,9.691,9.785c0.117,5.215-4.34,9.785-9.691,9.785
		c-5.191-0.07-9.691-4.379-9.691-9.785V404.898z"/>
	<path fill="#3E3938" stroke="#3E3938" stroke-linejoin="bevel" stroke-miterlimit="10" d="M425.554,404.898
		c0-5.25,4.34-9.75,9.691-9.75c5.309,0,9.691,4.383,9.691,9.785c0.117,5.215-4.34,9.785-9.691,9.785
		c-5.191-0.07-9.691-4.379-9.691-9.785V404.898z"/>
	<path fill="#3E3938" stroke="#3E3938" stroke-linejoin="bevel" stroke-miterlimit="10" d="M224.512,431.722
		c0-5.25,4.34-9.75,9.691-9.75c5.309,0,9.691,4.383,9.691,9.785c0.117,5.215-4.34,9.785-9.691,9.785
		c-5.191-0.07-9.691-4.379-9.691-9.785V431.722z"/>
	<path fill="#3E3938" stroke="#3E3938" stroke-linejoin="bevel" stroke-miterlimit="10" d="M251.848,431.722
		c0-5.25,4.34-9.75,9.691-9.75c5.309,0,9.691,4.383,9.691,9.785c0.117,5.215-4.34,9.785-9.691,9.785
		c-5.191-0.07-9.691-4.379-9.691-9.785V431.722z"/>
	<path fill="#3E3938" stroke="#3E3938" stroke-linejoin="bevel" stroke-miterlimit="10" d="M281.953,431.722
		c0-5.25,4.339-9.75,9.691-9.75c5.309,0,9.691,4.383,9.691,9.785c0.117,5.215-4.34,9.785-9.691,9.785
		c-5.191-0.07-9.691-4.379-9.691-9.785V431.722z"/>
	<path fill="#3E3938" stroke="#3E3938" stroke-linejoin="bevel" stroke-miterlimit="10" d="M310.675,431.722
		c0-5.25,4.336-9.75,9.688-9.75c5.313,0,9.691,4.383,9.691,9.785c0.121,5.215-4.336,9.785-9.691,9.785
		c-5.188-0.07-9.688-4.379-9.688-9.785V431.722z"/>
	<path fill="#3E3938" stroke="#3E3938" stroke-linejoin="bevel" stroke-miterlimit="10" d="M339.394,431.722
		c0-5.25,4.34-9.75,9.691-9.75c5.309,0,9.691,4.383,9.691,9.785c0.117,5.215-4.34,9.785-9.691,9.785
		c-5.191-0.07-9.691-4.379-9.691-9.785V431.722z"/>
	<path fill="#3E3938" stroke="#3E3938" stroke-linejoin="bevel" stroke-miterlimit="10" d="M368.113,431.722
		c0-5.25,4.34-9.75,9.691-9.75c5.309,0,9.691,4.383,9.691,9.785c0.117,5.215-4.34,9.785-9.691,9.785
		c-5.191-0.07-9.691-4.379-9.691-9.785V431.722z"/>
	<path fill="#3E3938" stroke="#3E3938" stroke-linejoin="bevel" stroke-miterlimit="10" d="M396.835,431.722
		c0-5.25,4.34-9.75,9.691-9.75c5.309,0,9.691,4.383,9.691,9.785c0.117,5.215-4.34,9.785-9.691,9.785
		c-5.191-0.07-9.691-4.379-9.691-9.785V431.722z"/>
	<path fill="#3E3938" stroke="#3E3938" stroke-linejoin="bevel" stroke-miterlimit="10" d="M425.554,431.722
		c0-5.25,4.34-9.75,9.691-9.75c5.309,0,9.691,4.383,9.691,9.785c0.117,5.215-4.34,9.785-9.691,9.785
		c-5.191-0.07-9.691-4.379-9.691-9.785V431.722z"/>
	<path fill="#3E3938" stroke="#3E3938" stroke-linejoin="bevel" stroke-miterlimit="10" d="M224.512,458.546
		c0-5.25,4.34-9.75,9.691-9.75c5.309,0,9.691,4.383,9.691,9.785c0.117,5.215-4.34,9.785-9.691,9.785
		c-5.191-0.07-9.691-4.379-9.691-9.785V458.546z"/>
	<path fill="#3E3938" stroke="#3E3938" stroke-linejoin="bevel" stroke-miterlimit="10" d="M251.848,458.546
		c0-5.25,4.34-9.75,9.691-9.75c5.309,0,9.691,4.383,9.691,9.785c0.117,5.215-4.34,9.785-9.691,9.785
		c-5.191-0.07-9.691-4.379-9.691-9.785V458.546z"/>
	<path fill="#3E3938" stroke="#3E3938" stroke-linejoin="bevel" stroke-miterlimit="10" d="M281.953,458.546
		c0-5.25,4.339-9.75,9.691-9.75c5.309,0,9.691,4.383,9.691,9.785c0.117,5.215-4.34,9.785-9.691,9.785
		c-5.191-0.07-9.691-4.379-9.691-9.785V458.546z"/>
	<path fill="#3E3938" stroke="#3E3938" stroke-linejoin="bevel" stroke-miterlimit="10" d="M310.675,458.546
		c0-5.25,4.336-9.75,9.688-9.75c5.313,0,9.691,4.383,9.691,9.785c0.121,5.215-4.336,9.785-9.691,9.785
		c-5.188-0.07-9.688-4.379-9.688-9.785V458.546z"/>
	<path fill="#3E3938" stroke="#3E3938" stroke-linejoin="bevel" stroke-miterlimit="10" d="M339.394,458.546
		c0-5.25,4.34-9.75,9.691-9.75c5.309,0,9.691,4.383,9.691,9.785c0.117,5.215-4.34,9.785-9.691,9.785
		c-5.191-0.07-9.691-4.379-9.691-9.785V458.546z"/>
	<path fill="#3E3938" stroke="#3E3938" stroke-linejoin="bevel" stroke-miterlimit="10" d="M368.113,458.546
		c0-5.25,4.34-9.75,9.691-9.75c5.309,0,9.691,4.383,9.691,9.785c0.117,5.215-4.34,9.785-9.691,9.785
		c-5.191-0.07-9.691-4.379-9.691-9.785V458.546z"/>
	<path fill="#3E3938" stroke="#3E3938" stroke-linejoin="bevel" stroke-miterlimit="10" d="M396.835,458.546
		c0-5.25,4.34-9.75,9.691-9.75c5.309,0,9.691,4.383,9.691,9.785c0.117,5.215-4.34,9.785-9.691,9.785
		c-5.191-0.07-9.691-4.379-9.691-9.785V458.546z"/>
	<path fill="#3E3938" stroke="#3E3938" stroke-linejoin="bevel" stroke-miterlimit="10" d="M425.554,458.546
		c0-5.25,4.34-9.75,9.691-9.75c5.309,0,9.691,4.383,9.691,9.785c0.117,5.215-4.34,9.785-9.691,9.785
		c-5.191-0.07-9.691-4.379-9.691-9.785V458.546z"/>
	<path fill="#3E3938" stroke="#3E3938" stroke-linejoin="bevel" stroke-miterlimit="10" d="M224.512,485.371
		c0-5.25,4.34-9.75,9.691-9.75c5.309,0,9.691,4.383,9.691,9.785c0.117,5.215-4.34,9.785-9.691,9.785
		c-5.191-0.07-9.691-4.379-9.691-9.785V485.371z"/>
	<path fill="#3E3938" stroke="#3E3938" stroke-linejoin="bevel" stroke-miterlimit="10" d="M251.848,485.371
		c0-5.25,4.34-9.75,9.691-9.75c5.309,0,9.691,4.383,9.691,9.785c0.117,5.215-4.34,9.785-9.691,9.785
		c-5.191-0.07-9.691-4.379-9.691-9.785V485.371z"/>
	<path fill="#3E3938" stroke="#3E3938" stroke-linejoin="bevel" stroke-miterlimit="10" d="M281.953,485.371
		c0-5.25,4.339-9.75,9.691-9.75c5.309,0,9.691,4.383,9.691,9.785c0.117,5.215-4.34,9.785-9.691,9.785
		c-5.191-0.07-9.691-4.379-9.691-9.785V485.371z"/>
	<path fill="#3E3938" stroke="#3E3938" stroke-linejoin="bevel" stroke-miterlimit="10" d="M310.675,485.371
		c0-5.25,4.336-9.75,9.688-9.75c5.313,0,9.691,4.383,9.691,9.785c0.121,5.215-4.336,9.785-9.691,9.785
		c-5.188-0.07-9.688-4.379-9.688-9.785V485.371z"/>
	<path fill="#3E3938" stroke="#3E3938" stroke-linejoin="bevel" stroke-miterlimit="10" d="M339.394,485.371
		c0-5.25,4.34-9.75,9.691-9.75c5.309,0,9.691,4.383,9.691,9.785c0.117,5.215-4.34,9.785-9.691,9.785
		c-5.191-0.07-9.691-4.379-9.691-9.785V485.371z"/>
	<path fill="#3E3938" stroke="#3E3938" stroke-linejoin="bevel" stroke-miterlimit="10" d="M368.113,485.371
		c0-5.25,4.34-9.75,9.691-9.75c5.309,0,9.691,4.383,9.691,9.785c0.117,5.215-4.34,9.785-9.691,9.785
		c-5.191-0.07-9.691-4.379-9.691-9.785V485.371z"/>
	<path fill="#3E3938" stroke="#3E3938" stroke-linejoin="bevel" stroke-miterlimit="10" d="M396.835,485.371
		c0-5.25,4.34-9.75,9.691-9.75c5.309,0,9.691,4.383,9.691,9.785c0.117,5.215-4.34,9.785-9.691,9.785
		c-5.191-0.07-9.691-4.379-9.691-9.785V485.371z"/>
	<path fill="#3E3938" stroke="#3E3938" stroke-linejoin="bevel" stroke-miterlimit="10" d="M425.554,485.371
		c0-5.25,4.34-9.75,9.691-9.75c5.309,0,9.691,4.383,9.691,9.785c0.117,5.215-4.34,9.785-9.691,9.785
		c-5.191-0.07-9.691-4.379-9.691-9.785V485.371z"/>
	<path fill="#3E3938" stroke="#3E3938" stroke-linejoin="bevel" stroke-miterlimit="10" d="M224.512,512.199
		c0-5.25,4.34-9.75,9.691-9.75c5.309,0,9.691,4.379,9.691,9.781c0.117,5.219-4.34,9.785-9.691,9.785
		c-5.191-0.066-9.691-4.379-9.691-9.785V512.199z"/>
	<path fill="#3E3938" stroke="#3E3938" stroke-linejoin="bevel" stroke-miterlimit="10" d="M251.848,512.199
		c0-5.25,4.34-9.75,9.691-9.75c5.309,0,9.691,4.379,9.691,9.781c0.117,5.219-4.34,9.785-9.691,9.785
		c-5.191-0.066-9.691-4.379-9.691-9.785V512.199z"/>
	<path fill="#3E3938" stroke="#3E3938" stroke-linejoin="bevel" stroke-miterlimit="10" d="M281.953,512.199
		c0-5.25,4.339-9.75,9.691-9.75c5.309,0,9.691,4.379,9.691,9.781c0.117,5.219-4.34,9.785-9.691,9.785
		c-5.191-0.066-9.691-4.379-9.691-9.785V512.199z"/>
	<path fill="#3E3938" stroke="#3E3938" stroke-linejoin="bevel" stroke-miterlimit="10" d="M310.675,512.199
		c0-5.25,4.336-9.75,9.688-9.75c5.313,0,9.691,4.379,9.691,9.781c0.121,5.219-4.336,9.785-9.691,9.785
		c-5.188-0.066-9.688-4.379-9.688-9.785V512.199z"/>
	<path fill="#3E3938" stroke="#3E3938" stroke-linejoin="bevel" stroke-miterlimit="10" d="M339.394,512.199
		c0-5.25,4.34-9.75,9.691-9.75c5.309,0,9.691,4.379,9.691,9.781c0.117,5.219-4.34,9.785-9.691,9.785
		c-5.191-0.066-9.691-4.379-9.691-9.785V512.199z"/>
	<path fill="#3E3938" stroke="#3E3938" stroke-linejoin="bevel" stroke-miterlimit="10" d="M368.113,512.199
		c0-5.25,4.34-9.75,9.691-9.75c5.309,0,9.691,4.379,9.691,9.781c0.117,5.219-4.34,9.785-9.691,9.785
		c-5.191-0.066-9.691-4.379-9.691-9.785V512.199z"/>
	<path fill="#3E3938" stroke="#3E3938" stroke-linejoin="bevel" stroke-miterlimit="10" d="M396.835,512.199
		c0-5.25,4.34-9.75,9.691-9.75c5.309,0,9.691,4.379,9.691,9.781c0.117,5.219-4.34,9.785-9.691,9.785
		c-5.191-0.066-9.691-4.379-9.691-9.785V512.199z"/>
	<path fill="#3E3938" stroke="#3E3938" stroke-linejoin="bevel" stroke-miterlimit="10" d="M425.554,512.199
		c0-5.25,4.34-9.75,9.691-9.75c5.309,0,9.691,4.379,9.691,9.781c0.117,5.219-4.34,9.785-9.691,9.785
		c-5.191-0.066-9.691-4.379-9.691-9.785V512.199z"/>
	
		<linearGradient id="SVGID_7_" gradientUnits="userSpaceOnUse" x1="578.2251" y1="153.8071" x2="202.2256" y2="153.8071" gradientTransform="matrix(0.75 0 0 -0.75 -9.1149 171.6544)">
		<stop  offset="0" style="stop-color:#9EB4BD"/>
		<stop  offset="0.15" style="stop-color:#D2ECF7"/>
		<stop  offset="0.25" style="stop-color:#E6F4FA"/>
		<stop  offset="0.52" style="stop-color:#B5CED7"/>
		<stop  offset="0.69" style="stop-color:#A1B7C0"/>
		<stop  offset="0.8" style="stop-color:#98ADB5"/>
		<stop  offset="0.97" style="stop-color:#8FA3AB"/>
		<stop  offset="1" style="stop-color:#A5BBC4"/>
	</linearGradient>
	<path fill="url(#SVGID_7_)" d="M142.555,20.676h282v71.25h-282V20.676z"/>
	<path fill="#4E8DB9" d="M149.719,349.117c0-12.75,10.328-23.25,23.113-23.25c12.887,0,23.152,10.465,23.152,23.391
		c0.234,12.609-10.367,23.391-23.152,23.391c-12.613-0.281-23.113-10.5-23.113-23.391V349.117z"/>
	<path fill="#73A5C8" d="M152.254,349.429c0-12,9.199-21,20.586-21c11.664,0,20.613,9.316,20.613,20.828
		c0.051,11.422-9.23,20.828-20.613,20.828c-11.586,0.344-20.586-9.348-20.586-20.828V349.429z"/>
	
		<linearGradient id="SVGID_8_" gradientUnits="userSpaceOnUse" x1="222.1992" y1="203.6396" x2="215.4592" y2="165.4148" gradientTransform="matrix(0.75 0 0 -0.75 8.7592 487.6593)">
		<stop  offset="0" style="stop-color:#89C3EB"/>
		<stop  offset="1" style="stop-color:#0168A5"/>
	</linearGradient>
	<path fill="url(#SVGID_8_)" d="M160.43,349.429c0-6.75,5.574-12.75,12.453-12.75c7.047,0,12.457,5.633,12.457,12.578
		c-0.16,6.922-5.578,12.574-12.457,12.574c-7.203,0.348-12.453-5.629-12.453-12.574V349.429z"/>
	<path fill="#4E8DB9" d="M149.719,448.656c0-12.75,10.328-23.25,23.113-23.25c12.887,0,23.152,10.465,23.152,23.391
		c0.234,12.609-10.367,23.395-23.152,23.395c-12.613-0.285-23.113-10.5-23.113-23.395V448.656z"/>
	<path fill="#73A5C8" d="M152.254,448.968c0-12,9.199-21,20.586-21c11.664,0,20.613,9.32,20.613,20.828
		c0.051,11.422-9.23,20.832-20.613,20.832c-11.586,0.34-20.586-9.352-20.586-20.832V448.968z"/>
	
		<linearGradient id="SVGID_9_" gradientUnits="userSpaceOnUse" x1="222.2002" y1="203.6396" x2="215.4603" y2="165.4159" gradientTransform="matrix(0.75 0 0 -0.75 8.7592 587.2003)">
		<stop  offset="0" style="stop-color:#89C3EB"/>
		<stop  offset="1" style="stop-color:#0168A5"/>
	</linearGradient>
	<path fill="url(#SVGID_9_)" d="M160.43,448.972c0-6.75,5.574-12.75,12.453-12.75c7.047,0,12.457,5.629,12.457,12.574
		c-0.16,6.926-5.578,12.578-12.457,12.578c-7.203,0.348-12.453-5.633-12.453-12.578V448.972z"/>
	<path fill="#DCDCDD" d="M156.133,378.05h33.75v42.75h-33.75V378.05z"/>
	<path fill="#FFFFFF" fill-opacity="0.6902" d="M158.789,380.636h28.5v37.5h-28.5V380.636z"/>
	<path fill="#FDE9D0" d="M158.789,380.636h28.5v13.5h-28.5V380.636z"/>
	
		<linearGradient id="SVGID_10_" gradientUnits="userSpaceOnUse" x1="595.2251" y1="190.8052" x2="202.2256" y2="190.8051" gradientTransform="matrix(0.75 0 0 -0.75 -15.4825 158.837)">
		<stop  offset="0" style="stop-color:#424141"/>
		<stop  offset="0.15" style="stop-color:#6D6C6C"/>
		<stop  offset="0.25" style="stop-color:#BCBCBC"/>
		<stop  offset="0.52" style="stop-color:#4D4B4B"/>
		<stop  offset="0.69" style="stop-color:#434242"/>
		<stop  offset="0.8" style="stop-color:#3F3E3E"/>
		<stop  offset="0.97" style="stop-color:#3B3A3A"/>
		<stop  offset="1" style="stop-color:#454444"/>
	</linearGradient>
	<path fill="url(#SVGID_10_)" d="M138.438,7.859h290.25c1.5,0,2.055,0.875,2.055,1.957l0.195,11.543c0,1.5-1.082,2.156-2.152,2.156
		l-290.347,0.094c-1.5,0-2.25-0.969-2.25-2.051V10.109c0-1.5,0.805-2.25,1.875-2.25H138.438z"/>
</g>
</svg>
