<?xml version="1.0" encoding="utf-8"?>
<!-- Generator: Adobe Illustrator 16.0.0, SVG Export Plug-In . SVG Version: 6.00 Build 0)  -->
<!DOCTYPE svg PUBLIC "-//W3C//DTD SVG 1.1//EN" "http://www.w3.org/Graphics/SVG/1.1/DTD/svg11.dtd">
<svg preserveAspectRatio="none"   version="1.1" id="图层_1" xmlns="http://www.w3.org/2000/svg" xmlns:xlink="http://www.w3.org/1999/xlink" x="0px" y="0px"
	 width="391.5px" height="567.75px" viewBox="87.813 -0.23 391.5 567.75" enable-background="new 87.813 -0.23 391.5 567.75"
	 xml:space="preserve">
<g id="surface171">
	
		<linearGradient id="SVGID_1_" gradientUnits="userSpaceOnUse" x1="724.2251" y1="-177.1968" x2="202.2251" y2="-177.1968" gradientTransform="matrix(0.75 0 0 -0.75 -63.8571 150.7462)">
		<stop  offset="0" style="stop-color:#AEAEAD"/>
		<stop  offset="0.03" style="stop-color:#F8F8F7"/>
		<stop  offset="0.08" style="stop-color:#E3E3E2"/>
		<stop  offset="0.64" style="stop-color:#DFDFDE"/>
		<stop  offset="0.95" style="stop-color:#DADAD9"/>
		<stop  offset="1" style="stop-color:#A2A2A1"/>
	</linearGradient>
	<path fill="url(#SVGID_1_)" d="M87.813-0.23h391.5v567.75h-391.5V-0.23z"/>
	
		<linearGradient id="SVGID_2_" gradientUnits="userSpaceOnUse" x1="724.2251" y1="187.8032" x2="202.2251" y2="187.8032" gradientTransform="matrix(0.75 0 0 -0.75 -63.8571 150.8556)">
		<stop  offset="0" style="stop-color:#383E4C"/>
		<stop  offset="0.03" style="stop-color:#8E919B"/>
		<stop  offset="0.08" style="stop-color:#4C5366"/>
		<stop  offset="0.64" style="stop-color:#4A5264"/>
		<stop  offset="0.95" style="stop-color:#495061"/>
		<stop  offset="1" style="stop-color:#343946"/>
	</linearGradient>
	<path fill="url(#SVGID_2_)" d="M87.813-0.121h391.5v20.25h-391.5V-0.121z"/>
	
		<linearGradient id="SVGID_3_" gradientUnits="userSpaceOnUse" x1="724.2251" y1="187.8062" x2="202.2251" y2="187.8061" gradientTransform="matrix(0.75 0 0 -0.75 -63.8571 697.9581)">
		<stop  offset="0" style="stop-color:#383E4C"/>
		<stop  offset="0.03" style="stop-color:#8E919B"/>
		<stop  offset="0.08" style="stop-color:#4C5366"/>
		<stop  offset="0.64" style="stop-color:#4A5264"/>
		<stop  offset="0.95" style="stop-color:#495061"/>
		<stop  offset="1" style="stop-color:#343946"/>
	</linearGradient>
	<path fill="url(#SVGID_3_)" d="M87.813,546.98h391.5v20.25h-391.5V546.98z"/>
	
		<linearGradient id="SVGID_4_" gradientUnits="userSpaceOnUse" x1="409.2271" y1="64.3037" x2="202.2275" y2="64.3037" gradientTransform="matrix(0.75 0 0 -0.75 -7.7921 204.1564)">
		<stop  offset="0" style="stop-color:#AEAEAD"/>
		<stop  offset="0.03" style="stop-color:#F8F8F7"/>
		<stop  offset="0.08" style="stop-color:#E3E3E2"/>
		<stop  offset="0.64" style="stop-color:#DFDFDE"/>
		<stop  offset="0.95" style="stop-color:#DADAD9"/>
		<stop  offset="1" style="stop-color:#A2A2A1"/>
	</linearGradient>
	<path fill="url(#SVGID_4_)" d="M143.879,53.18h155.25v205.5h-155.25V53.18z"/>
	
		<linearGradient id="SVGID_5_" gradientUnits="userSpaceOnUse" x1="409.2271" y1="189.3037" x2="202.2275" y2="189.3037" gradientTransform="matrix(0.75 0 0 -0.75 -7.7921 204.1564)">
		<stop  offset="0" style="stop-color:#383E4C"/>
		<stop  offset="0.03" style="stop-color:#8E919B"/>
		<stop  offset="0.08" style="stop-color:#4C5366"/>
		<stop  offset="0.64" style="stop-color:#4A5264"/>
		<stop  offset="0.95" style="stop-color:#495061"/>
		<stop  offset="1" style="stop-color:#343946"/>
	</linearGradient>
	<path fill="url(#SVGID_5_)" d="M143.879,53.18h155.25v18h-155.25V53.18z"/>
	
		<linearGradient id="SVGID_6_" gradientUnits="userSpaceOnUse" x1="409.2271" y1="189.3047" x2="202.2275" y2="189.3047" gradientTransform="matrix(0.75 0 0 -0.75 -7.7921 391.174)">
		<stop  offset="0" style="stop-color:#383E4C"/>
		<stop  offset="0.03" style="stop-color:#8E919B"/>
		<stop  offset="0.08" style="stop-color:#4C5366"/>
		<stop  offset="0.64" style="stop-color:#4A5264"/>
		<stop  offset="0.95" style="stop-color:#495061"/>
		<stop  offset="1" style="stop-color:#343946"/>
	</linearGradient>
	<path fill="url(#SVGID_6_)" d="M143.879,240.195h155.25v18h-155.25V240.195z"/>
	<path stroke="#000000" stroke-linejoin="bevel" stroke-miterlimit="10" d="M187.238,87.418h67.5c6.75,0,11.938,5.156,11.938,11.516
		l0.063,30.484c0,6.75-5.297,11.742-11.668,11.742l-67.832,0.258c-6,0-11.344-5.414-11.344-11.773l0.094-30.977
		c0-6,5.066-11.25,11.438-11.25H187.238z"/>
	<path fill="#3E3938" stroke="#000000" stroke-linejoin="bevel" stroke-miterlimit="10" d="M189.324,89.895h63.75
		c6,0,10.766,4.684,10.766,10.457l-0.266,27.793c0,6-4.641,10.535-10.609,10.535l-63.641-0.035c-6,0-10.59-4.645-10.59-10.418
		l0.09-27.832c0-6,4.75-10.5,10.719-10.5H189.324z"/>
	<path fill="#276F71" d="M195.641,174.348c0-6.75,5.766-12.781,12.945-12.781c7.305,0.031,12.949,5.797,12.949,12.973
		c0.355,7.309-5.816,12.941-12.949,12.941c-6.945,0.367-12.977-5.813-12.977-12.941L195.641,174.348z"/>
	
		<linearGradient id="SVGID_7_" gradientUnits="userSpaceOnUse" x1="206.6616" y1="203.9214" x2="225.9415" y2="170.5277" gradientTransform="matrix(0.75 0 0 -0.75 46.3431 314.9474)">
		<stop  offset="0" style="stop-color:#91CFD1"/>
		<stop  offset="1" style="stop-color:#49AEB1"/>
	</linearGradient>
	<path fill="url(#SVGID_7_)" stroke="#FFFFFF" stroke-linejoin="bevel" stroke-miterlimit="10" d="M198.012,174.469
		c0-6,4.711-10.527,10.574-10.527c5.926,0.027,10.578,4.738,10.578,10.598c-0.152,5.93-4.754,10.57-10.578,10.57
		c-6.074-0.141-10.602-4.75-10.602-10.57L198.012,174.469z"/>
	<path fill="#7D040F" d="M155.539,174.348c0-6.75,5.77-12.781,12.949-12.781c7.301,0.031,12.949,5.797,12.949,12.973
		c0.352,7.309-5.816,12.941-12.949,12.941c-6.949,0.367-12.98-5.813-12.98-12.941L155.539,174.348z"/>
	
		<linearGradient id="SVGID_8_" gradientUnits="userSpaceOnUse" x1="206.6616" y1="203.9209" x2="225.9415" y2="170.5272" gradientTransform="matrix(0.75 0 0 -0.75 6.2445 314.9474)">
		<stop  offset="0" style="stop-color:#9F5153"/>
		<stop  offset="1" style="stop-color:#7B030D"/>
	</linearGradient>
	<path fill="url(#SVGID_8_)" stroke="#FFFFFF" stroke-linejoin="bevel" stroke-miterlimit="10" d="M157.914,174.469
		c0-6,4.711-10.527,10.574-10.527c5.926,0.027,10.574,4.738,10.574,10.598c-0.148,5.93-4.75,10.57-10.574,10.57
		c-6.074-0.141-10.602-4.75-10.602-10.57L157.914,174.469z"/>
	<path fill="#FED372" d="M235.758,174.348c0-6.75,5.77-12.781,12.949-12.781c7.301,0.031,12.945,5.797,12.945,12.973
		c0.355,7.309-5.816,12.941-12.945,12.941c-6.949,0.367-12.98-5.813-12.98-12.941L235.758,174.348z"/>
	
		<linearGradient id="SVGID_9_" gradientUnits="userSpaceOnUse" x1="206.6611" y1="203.9214" x2="225.9417" y2="170.5265" gradientTransform="matrix(0.75 0 0 -0.75 86.4608 314.9474)">
		<stop  offset="0" style="stop-color:#FEDEA0"/>
		<stop  offset="1" style="stop-color:#E9C168"/>
	</linearGradient>
	<path fill="url(#SVGID_9_)" stroke="#FFFFFF" stroke-linejoin="bevel" stroke-miterlimit="10" d="M238.129,174.469
		c0-6,4.711-10.527,10.578-10.527c5.922,0.027,10.574,4.738,10.574,10.598c-0.152,5.93-4.75,10.57-10.574,10.57
		c-6.078-0.141-10.605-4.75-10.605-10.57L238.129,174.469z"/>
	<path fill="#276F71" d="M195.641,215.566c0-6.75,5.766-12.781,12.945-12.781c7.305,0.031,12.949,5.797,12.949,12.973
		c0.355,7.309-5.816,12.941-12.949,12.941c-6.945,0.367-12.977-5.813-12.977-12.941L195.641,215.566z"/>
	
		<linearGradient id="SVGID_10_" gradientUnits="userSpaceOnUse" x1="206.6621" y1="203.9204" x2="225.9413" y2="170.5279" gradientTransform="matrix(0.75 0 0 -0.75 46.3431 356.1652)">
		<stop  offset="0" style="stop-color:#91CFD1"/>
		<stop  offset="1" style="stop-color:#49AEB1"/>
	</linearGradient>
	<path fill="url(#SVGID_10_)" stroke="#FFFFFF" stroke-linejoin="bevel" stroke-miterlimit="10" d="M198.012,215.688
		c0-6,4.711-10.527,10.574-10.527c5.926,0.027,10.578,4.738,10.578,10.598c-0.152,5.93-4.754,10.57-10.578,10.57
		c-6.074-0.141-10.602-4.75-10.602-10.57L198.012,215.688z"/>
	<path fill="#7D040F" d="M155.5,215.566c0-6.75,5.77-12.781,12.949-12.781c7.301,0.031,12.949,5.797,12.949,12.973
		c0.352,7.309-5.816,12.941-12.949,12.941c-6.949,0.367-12.98-5.813-12.98-12.941L155.5,215.566z"/>
	
		<linearGradient id="SVGID_11_" gradientUnits="userSpaceOnUse" x1="206.6621" y1="203.9204" x2="225.9411" y2="170.5282" gradientTransform="matrix(0.75 0 0 -0.75 6.2054 356.1652)">
		<stop  offset="0" style="stop-color:#9F5153"/>
		<stop  offset="1" style="stop-color:#7B030D"/>
	</linearGradient>
	<path fill="url(#SVGID_11_)" stroke="#FFFFFF" stroke-linejoin="bevel" stroke-miterlimit="10" d="M157.875,215.688
		c0-6,4.711-10.527,10.574-10.527c5.926,0.027,10.574,4.738,10.574,10.598c-0.148,5.93-4.75,10.57-10.574,10.57
		c-6.074-0.141-10.602-4.75-10.602-10.57L157.875,215.688z"/>
	<path fill="#FED372" d="M235.715,215.566c0-6.75,5.766-12.781,12.945-12.781c7.305,0.031,12.949,5.797,12.949,12.973
		c0.355,7.309-5.816,12.941-12.949,12.941c-6.945,0.367-12.98-5.813-12.98-12.941L235.715,215.566z"/>
	
		<linearGradient id="SVGID_12_" gradientUnits="userSpaceOnUse" x1="206.6621" y1="203.9204" x2="225.9413" y2="170.5279" gradientTransform="matrix(0.75 0 0 -0.75 86.4164 356.1652)">
		<stop  offset="0" style="stop-color:#FEDEA0"/>
		<stop  offset="1" style="stop-color:#E9C168"/>
	</linearGradient>
	<path fill="url(#SVGID_12_)" stroke="#FFFFFF" stroke-linejoin="bevel" stroke-miterlimit="10" d="M238.086,215.688
		c0-6,4.711-10.527,10.574-10.527c5.926,0.027,10.574,4.738,10.574,10.598c-0.148,5.93-4.75,10.57-10.574,10.57
		c-6.074-0.141-10.602-4.75-10.602-10.57L238.086,215.688z"/>
	<path fill="#FFFFFF" fill-opacity="0.0588" d="M187.348,87.398h67.5l-58.5,54.75l-9-0.75c-6,0-11.344-5.414-11.344-11.773
		l0.094-30.977c0-6,5.066-11.25,11.434-11.25H187.348z"/>
	
		<linearGradient id="SVGID_13_" gradientUnits="userSpaceOnUse" x1="724.2251" y1="197.8032" x2="202.2251" y2="197.8032" gradientTransform="matrix(0.75 0 0 -0.75 -63.8571 671.1993)">
		<stop  offset="0" style="stop-color:#383E4C"/>
		<stop  offset="0.03" style="stop-color:#8E919B"/>
		<stop  offset="0.08" style="stop-color:#4C5366"/>
		<stop  offset="0.64" style="stop-color:#4A5264"/>
		<stop  offset="0.95" style="stop-color:#495061"/>
		<stop  offset="1" style="stop-color:#343946"/>
	</linearGradient>
	<path fill="url(#SVGID_13_)" d="M87.813,520.222h391.5v5.25h-391.5V520.222z"/>
	
		<linearGradient id="SVGID_14_" gradientUnits="userSpaceOnUse" x1="724.2251" y1="197.8071" x2="202.2251" y2="197.8071" gradientTransform="matrix(0.75 0 0 -0.75 -63.8571 653.3263)">
		<stop  offset="0" style="stop-color:#383E4C"/>
		<stop  offset="0.03" style="stop-color:#8E919B"/>
		<stop  offset="0.08" style="stop-color:#4C5366"/>
		<stop  offset="0.64" style="stop-color:#4A5264"/>
		<stop  offset="0.95" style="stop-color:#495061"/>
		<stop  offset="1" style="stop-color:#343946"/>
	</linearGradient>
	<path fill="url(#SVGID_14_)" d="M87.813,502.347h391.5v5.25h-391.5V502.347z"/>
	
		<linearGradient id="SVGID_15_" gradientUnits="userSpaceOnUse" x1="273.8765" y1="173.1055" x2="202.2236" y2="173.1055" gradientTransform="matrix(0.75 0 0 -0.75 -9.8204 594.2384)">
		<stop  offset="0" style="stop-color:#000000"/>
		<stop  offset="0.15" style="stop-color:#454545"/>
		<stop  offset="0.25" style="stop-color:#B3B3B3"/>
		<stop  offset="0.52" style="stop-color:#000000"/>
		<stop  offset="0.69" style="stop-color:#000000"/>
		<stop  offset="0.8" style="stop-color:#000000"/>
		<stop  offset="0.92" style="stop-color:#000000"/>
		<stop  offset="1" style="stop-color:#000000"/>
	</linearGradient>
	<path fill="url(#SVGID_15_)" d="M182.348,443.261c1.5,1.5,1.137,6.391,4.395,11.492c3.105,5.008,8.836,6.848,8.836,9.574
		c0.27,2.934-5.531,4.598-8.609,9.219c-3.121,4.965-1.801,10.035-4.828,11.617c-2.793,1.598-6.566-1.965-13.496-1.926
		c-7.297-0.227-10.742,3.168-13.367,1.926c-2.93-1.402-1.402-5.898-5.063-11.457c-3.117-4.945-8.367-6.273-8.367-9.379
		c0-3.066,4.906-4.379,8.57-9.848c3.43-5.219,2.906-10.125,4.859-10.984c2.32-0.984,6.027,1.922,13.555,1.922
		c7.516,0.094,11.25-3.066,13.309-1.922L182.348,443.261z"/>
	<path fill="#FFFFFF" fill-opacity="0.2" d="M181.535,444.375c1.5,1.5,1.16,6.051,4.242,10.887c3.258,4.863,8.363,6.484,8.363,9.07
		c0.145,2.543-5.234,4.355-8.145,8.734c-2.961,4.309-1.707,9.504-4.574,11.004c-2.887,1.555-6.215-1.859-12.777-1.824
		c-6.609,0.379-10.164,3-12.648,1.824c-2.211-1.445-1.328-5.59-4.797-10.855c-2.664-4.84-7.914-5.941-7.914-8.883
		c0-2.707,4.641-4.152,8.109-9.328c3.141-5.379,2.75-9.59,4.602-10.406c1.539-0.973,5.703,1.82,12.832,1.82
		c7.457,0.207,10.645-2.906,12.594-1.82L181.535,444.375z"/>
	<path fill="#3E3938" stroke="#9E9F9F" stroke-linejoin="bevel" stroke-miterlimit="10" d="M152.195,464.593
		c0-8.25,7.395-15,16.52-15c8.98,0,16.516,6.625,16.516,14.801c-0.035,8.449-7.395,14.801-16.516,14.801
		c-9.02-0.352-16.52-6.629-16.52-14.801V464.593z"/>
	<path fill="#FFFFFF" fill-opacity="0.1725" d="M169.289,465.074c0-6.75-8.465-13.5-0.574-13.5c8.074,0,14.285,5.73,14.285,12.82
		c-0.211,6.68-6.398,12.781-14.285,12.781c-7.676-0.102,0.785-4.781,0.785-11.848L169.289,465.074z"/>
	
		<linearGradient id="SVGID_16_" gradientUnits="userSpaceOnUse" x1="273.877" y1="173.1055" x2="202.2241" y2="173.1055" gradientTransform="matrix(0.75 0 0 -0.75 80.3783 594.2384)">
		<stop  offset="0" style="stop-color:#000000"/>
		<stop  offset="0.15" style="stop-color:#454545"/>
		<stop  offset="0.25" style="stop-color:#B3B3B3"/>
		<stop  offset="0.52" style="stop-color:#000000"/>
		<stop  offset="0.69" style="stop-color:#000000"/>
		<stop  offset="0.8" style="stop-color:#000000"/>
		<stop  offset="0.92" style="stop-color:#000000"/>
		<stop  offset="1" style="stop-color:#000000"/>
	</linearGradient>
	<path fill="url(#SVGID_16_)" d="M272.547,443.261c1.5,1.5,1.137,6.391,4.395,11.492c3.105,5.008,8.835,6.848,8.835,9.574
		c0.27,2.934-5.531,4.598-8.609,9.219c-3.121,4.965-1.801,10.035-4.832,11.617c-2.789,1.598-6.563-1.965-13.496-1.926
		c-7.293-0.227-10.738,3.168-13.363,1.926c-2.93-1.402-1.402-5.898-5.066-11.457c-3.113-4.945-8.363-6.273-8.363-9.379
		c0-3.066,4.906-4.379,8.566-9.848c3.434-5.219,2.91-10.125,4.863-10.984c2.32-0.984,6.027,1.922,13.555,1.922
		c7.516,0.094,11.246-3.066,13.305-1.922L272.547,443.261z"/>
	<path fill="#FFFFFF" fill-opacity="0.2" d="M271.73,444.375c1.5,1.5,1.164,6.051,4.246,10.887c3.254,4.863,8.363,6.484,8.363,9.07
		c0.141,2.543-5.234,4.355-8.148,8.734c-2.961,4.309-1.703,9.504-4.57,11.004c-2.891,1.555-6.215-1.859-12.777-1.824
		c-6.613,0.379-10.164,3-12.648,1.824c-2.215-1.445-1.328-5.59-4.797-10.855c-2.668-4.84-7.918-5.941-7.918-8.883
		c0-2.707,4.645-4.152,8.113-9.328c3.137-5.379,2.75-9.59,4.602-10.406c1.535-0.973,5.703,1.82,12.828,1.82
		c7.457,0.207,10.648-2.906,12.598-1.82L271.73,444.375z"/>
	<path fill="#3E3938" stroke="#9E9F9F" stroke-linejoin="bevel" stroke-miterlimit="10" d="M242.395,464.593
		c0-8.25,7.395-15,16.516-15c8.984,0,16.52,6.625,16.52,14.801c-0.035,8.449-7.395,14.801-16.52,14.801
		c-9.016-0.352-16.516-6.629-16.516-14.801V464.593z"/>
	<path fill="#FFFFFF" fill-opacity="0.1725" d="M259.488,465.074c0-6.75-8.465-13.5-0.578-13.5c8.078,0,14.289,5.73,14.289,12.82
		c-0.211,6.68-6.398,12.781-14.289,12.781c-7.672-0.102,0.789-4.781,0.789-11.848L259.488,465.074z"/>
	<path stroke="#000000" stroke-linejoin="bevel" stroke-miterlimit="10" d="M365.261,229.297c-10.078-10.078-10.309-26.816-0.125-37
		c10.199-10.199,26.68-10.195,36.852-0.027c10.473,9.98,10.156,26.668-0.027,36.852c-10.184,9.719-26.68,10.195-36.852,0.027
		L365.261,229.297z"/>
	
		<linearGradient id="SVGID_17_" gradientUnits="userSpaceOnUse" x1="134.7651" y1="232.1489" x2="62.1346" y2="190.2157" gradientTransform="matrix(0.5303 -0.5303 -0.5303 -0.5303 443.3653 374.9265)">
		<stop  offset="0.41" style="stop-color:#5D5B5B"/>
		<stop  offset="0.6" style="stop-color:#484646"/>
		<stop  offset="0.8" style="stop-color:#383636"/>
		<stop  offset="0.93" style="stop-color:#2C2B2B"/>
		<stop  offset="1" style="stop-color:#535151"/>
	</linearGradient>
	<path fill="url(#SVGID_17_)" d="M367.437,227.172c-9.016-9.016-9.148-23.734-0.152-32.727c9.168-9.168,23.566-9.008,32.551-0.023
		c8.965,9.414,8.973,23.559-0.023,32.551c-9.043,8.684-23.566,9.008-32.551,0.023L367.437,227.172z"/>
	
		<linearGradient id="SVGID_18_" gradientUnits="userSpaceOnUse" x1="81.7456" y1="214.3901" x2="67.6143" y2="214.3901" gradientTransform="matrix(0.5303 -0.5303 -0.5303 -0.5303 457.6944 364.1843)">
		<stop  offset="0" style="stop-color:#343232"/>
		<stop  offset="0.15" style="stop-color:#555454"/>
		<stop  offset="0.26" style="stop-color:#797777"/>
		<stop  offset="0.41" style="stop-color:#5D5B5B"/>
		<stop  offset="0.6" style="stop-color:#484646"/>
		<stop  offset="0.8" style="stop-color:#383636"/>
		<stop  offset="0.93" style="stop-color:#2C2B2B"/>
		<stop  offset="1" style="stop-color:#535151"/>
	</linearGradient>
	<path fill="url(#SVGID_18_)" d="M367.445,197.871l3.184-3.184c1.059-1.063,3.18-1.098,4.469,0.195l24.168,24.199
		c1.59,1.59,1.363,3.426,0.07,4.719l-2.723,3.238c-1.059,1.059-3.477,0.867-4.77-0.422l-24.398-24.504
		c-1.059-1.063-1.125-3.117,0.168-4.41L367.445,197.871z"/>
	<path fill="none" stroke="#FFFFFF" stroke-linejoin="bevel" stroke-miterlimit="10" d="M125.324,299.453h324v108.75h-324V299.453z"
		/>
	<path fill="#FFFFFF" fill-opacity="0.5412" d="M129.313,303.734h316.5v100.5h-316.5V303.734z"/>
	
		<linearGradient id="SVGID_19_" gradientUnits="userSpaceOnUse" x1="241.3721" y1="181.8027" x2="202.2256" y2="181.8027" gradientTransform="matrix(0.75 0 0 -0.75 43.1351 462.3829)">
		<stop  offset="0" style="stop-color:#292525"/>
		<stop  offset="0.03" style="stop-color:#868584"/>
		<stop  offset="0.08" style="stop-color:#383433"/>
		<stop  offset="0.64" style="stop-color:#373332"/>
		<stop  offset="0.95" style="stop-color:#363130"/>
		<stop  offset="1" style="stop-color:#252221"/>
	</linearGradient>
	<path fill="url(#SVGID_19_)" d="M197.055,311.406h24.75c1.5,0,2.359,1.102,2.359,2.465l-0.109,24.535
		c0,0.75-1.027,2.172-2.398,2.172l-24.602,0.078c-1.5,0-2.25-1.211-2.25-2.57v-24.43c0-1.5,1.109-2.25,2.48-2.25H197.055z"/>
	
		<linearGradient id="SVGID_20_" gradientUnits="userSpaceOnUse" x1="231.2266" y1="186.8037" x2="202.2266" y2="186.8037" gradientTransform="matrix(0.75 0 0 -0.75 46.7596 465.9845)">
		<stop  offset="0" style="stop-color:#AA646C"/>
		<stop  offset="0.03" style="stop-color:#F3AEB5"/>
		<stop  offset="0.08" style="stop-color:#DD848E"/>
		<stop  offset="0.64" style="stop-color:#D9828C"/>
		<stop  offset="0.95" style="stop-color:#D57F89"/>
		<stop  offset="1" style="stop-color:#9E5D64"/>
	</linearGradient>
	<path fill="url(#SVGID_20_)" d="M198.43,315.007h21.75v21.75h-21.75V315.007z"/>
	
		<linearGradient id="SVGID_21_" gradientUnits="userSpaceOnUse" x1="241.3726" y1="181.8027" x2="202.2271" y2="181.8027" gradientTransform="matrix(0.75 0 0 -0.75 -6.4283 462.3829)">
		<stop  offset="0" style="stop-color:#292525"/>
		<stop  offset="0.03" style="stop-color:#868584"/>
		<stop  offset="0.08" style="stop-color:#383433"/>
		<stop  offset="0.64" style="stop-color:#373332"/>
		<stop  offset="0.95" style="stop-color:#363130"/>
		<stop  offset="1" style="stop-color:#252221"/>
	</linearGradient>
	<path fill="url(#SVGID_21_)" d="M147.492,311.406h24.75c1.5,0,2.359,1.102,2.359,2.465l-0.109,24.535
		c0,0.75-1.027,2.172-2.398,2.172l-24.602,0.078c-1.5,0-2.25-1.211-2.25-2.57v-24.43c0-1.5,1.109-2.25,2.48-2.25H147.492z"/>
	
		<linearGradient id="SVGID_22_" gradientUnits="userSpaceOnUse" x1="231.2227" y1="186.8037" x2="202.2227" y2="186.8037" gradientTransform="matrix(0.75 0 0 -0.75 -2.8038 465.9845)">
		<stop  offset="0" style="stop-color:#AA646C"/>
		<stop  offset="0.03" style="stop-color:#F3AEB5"/>
		<stop  offset="0.08" style="stop-color:#DD848E"/>
		<stop  offset="0.64" style="stop-color:#D9828C"/>
		<stop  offset="0.95" style="stop-color:#D57F89"/>
		<stop  offset="1" style="stop-color:#9E5D64"/>
	</linearGradient>
	<path fill="url(#SVGID_22_)" d="M148.863,315.007h21.75v21.75h-21.75V315.007z"/>
	
		<linearGradient id="SVGID_23_" gradientUnits="userSpaceOnUse" x1="241.3726" y1="181.8027" x2="202.2261" y2="181.8027" gradientTransform="matrix(0.75 0 0 -0.75 137.8763 462.3829)">
		<stop  offset="0" style="stop-color:#292525"/>
		<stop  offset="0.03" style="stop-color:#868584"/>
		<stop  offset="0.08" style="stop-color:#383433"/>
		<stop  offset="0.64" style="stop-color:#373332"/>
		<stop  offset="0.95" style="stop-color:#363130"/>
		<stop  offset="1" style="stop-color:#252221"/>
	</linearGradient>
	<path fill="url(#SVGID_23_)" d="M291.796,311.406h24.75c1.5,0,2.359,1.102,2.359,2.465l-0.109,24.535
		c0,0.75-1.027,2.172-2.398,2.172l-24.602,0.078c-1.5,0-2.25-1.211-2.25-2.57v-24.43c0-1.5,1.109-2.25,2.48-2.25H291.796z"/>
	
		<linearGradient id="SVGID_24_" gradientUnits="userSpaceOnUse" x1="231.2275" y1="186.8037" x2="202.2275" y2="186.8037" gradientTransform="matrix(0.75 0 0 -0.75 141.5009 465.9845)">
		<stop  offset="0" style="stop-color:#AA646C"/>
		<stop  offset="0.03" style="stop-color:#F3AEB5"/>
		<stop  offset="0.08" style="stop-color:#DD848E"/>
		<stop  offset="0.64" style="stop-color:#D9828C"/>
		<stop  offset="0.95" style="stop-color:#D57F89"/>
		<stop  offset="1" style="stop-color:#9E5D64"/>
	</linearGradient>
	<path fill="url(#SVGID_24_)" d="M293.171,315.007h21.75v21.75h-21.75V315.007z"/>
	
		<linearGradient id="SVGID_25_" gradientUnits="userSpaceOnUse" x1="241.3726" y1="181.8027" x2="202.2261" y2="181.8027" gradientTransform="matrix(0.75 0 0 -0.75 89.7753 462.3829)">
		<stop  offset="0" style="stop-color:#292525"/>
		<stop  offset="0.03" style="stop-color:#868584"/>
		<stop  offset="0.08" style="stop-color:#383433"/>
		<stop  offset="0.64" style="stop-color:#373332"/>
		<stop  offset="0.95" style="stop-color:#363130"/>
		<stop  offset="1" style="stop-color:#252221"/>
	</linearGradient>
	<path fill="url(#SVGID_25_)" d="M243.695,311.406h24.75c1.5,0,2.359,1.102,2.359,2.465l-0.109,24.535
		c0,0.75-1.027,2.172-2.398,2.172l-24.602,0.078c-1.5,0-2.25-1.211-2.25-2.57v-24.43c0-1.5,1.109-2.25,2.48-2.25H243.695z"/>
	
		<linearGradient id="SVGID_26_" gradientUnits="userSpaceOnUse" x1="231.2275" y1="186.8037" x2="202.2275" y2="186.8037" gradientTransform="matrix(0.75 0 0 -0.75 93.3998 465.9845)">
		<stop  offset="0" style="stop-color:#AA646C"/>
		<stop  offset="0.03" style="stop-color:#F3AEB5"/>
		<stop  offset="0.08" style="stop-color:#DD848E"/>
		<stop  offset="0.64" style="stop-color:#D9828C"/>
		<stop  offset="0.95" style="stop-color:#D57F89"/>
		<stop  offset="1" style="stop-color:#9E5D64"/>
	</linearGradient>
	<path fill="url(#SVGID_26_)" d="M245.07,315.007h21.75v21.75h-21.75V315.007z"/>
	
		<linearGradient id="SVGID_27_" gradientUnits="userSpaceOnUse" x1="241.3721" y1="181.8057" x2="202.2256" y2="181.8057" gradientTransform="matrix(0.75 0 0 -0.75 43.1351 514.1622)">
		<stop  offset="0" style="stop-color:#292525"/>
		<stop  offset="0.03" style="stop-color:#868584"/>
		<stop  offset="0.08" style="stop-color:#383433"/>
		<stop  offset="0.64" style="stop-color:#373332"/>
		<stop  offset="0.95" style="stop-color:#363130"/>
		<stop  offset="1" style="stop-color:#252221"/>
	</linearGradient>
	<path fill="url(#SVGID_27_)" d="M197.055,363.183h24.75c1.5,0,2.359,1.105,2.359,2.469l-0.109,24.531
		c0,0.75-1.027,2.176-2.398,2.176l-24.602,0.074c-1.5,0-2.25-1.207-2.25-2.57v-24.43c0-1.5,1.109-2.25,2.48-2.25H197.055z"/>
	
		<linearGradient id="SVGID_28_" gradientUnits="userSpaceOnUse" x1="231.2266" y1="186.8066" x2="202.2266" y2="186.8066" gradientTransform="matrix(0.75 0 0 -0.75 46.7596 517.7638)">
		<stop  offset="0" style="stop-color:#AA646C"/>
		<stop  offset="0.03" style="stop-color:#F3AEB5"/>
		<stop  offset="0.08" style="stop-color:#DD848E"/>
		<stop  offset="0.64" style="stop-color:#D9828C"/>
		<stop  offset="0.95" style="stop-color:#D57F89"/>
		<stop  offset="1" style="stop-color:#9E5D64"/>
	</linearGradient>
	<path fill="url(#SVGID_28_)" d="M198.43,366.785h21.75v21.75h-21.75V366.785z"/>
	
		<linearGradient id="SVGID_29_" gradientUnits="userSpaceOnUse" x1="241.3726" y1="181.8057" x2="202.2271" y2="181.8057" gradientTransform="matrix(0.75 0 0 -0.75 -6.4283 514.1622)">
		<stop  offset="0" style="stop-color:#292525"/>
		<stop  offset="0.03" style="stop-color:#868584"/>
		<stop  offset="0.08" style="stop-color:#383433"/>
		<stop  offset="0.64" style="stop-color:#373332"/>
		<stop  offset="0.95" style="stop-color:#363130"/>
		<stop  offset="1" style="stop-color:#252221"/>
	</linearGradient>
	<path fill="url(#SVGID_29_)" d="M147.492,363.183h24.75c1.5,0,2.359,1.105,2.359,2.469l-0.109,24.531
		c0,0.75-1.027,2.176-2.398,2.176l-24.602,0.074c-1.5,0-2.25-1.207-2.25-2.57v-24.43c0-1.5,1.109-2.25,2.48-2.25H147.492z"/>
	
		<linearGradient id="SVGID_30_" gradientUnits="userSpaceOnUse" x1="231.2227" y1="186.8066" x2="202.2227" y2="186.8066" gradientTransform="matrix(0.75 0 0 -0.75 -2.8038 517.7638)">
		<stop  offset="0" style="stop-color:#AA646C"/>
		<stop  offset="0.03" style="stop-color:#F3AEB5"/>
		<stop  offset="0.08" style="stop-color:#DD848E"/>
		<stop  offset="0.64" style="stop-color:#D9828C"/>
		<stop  offset="0.95" style="stop-color:#D57F89"/>
		<stop  offset="1" style="stop-color:#9E5D64"/>
	</linearGradient>
	<path fill="url(#SVGID_30_)" d="M148.863,366.785h21.75v21.75h-21.75V366.785z"/>
	
		<linearGradient id="SVGID_31_" gradientUnits="userSpaceOnUse" x1="241.3726" y1="181.8057" x2="202.2261" y2="181.8057" gradientTransform="matrix(0.75 0 0 -0.75 137.8763 514.1622)">
		<stop  offset="0" style="stop-color:#292525"/>
		<stop  offset="0.03" style="stop-color:#868584"/>
		<stop  offset="0.08" style="stop-color:#383433"/>
		<stop  offset="0.64" style="stop-color:#373332"/>
		<stop  offset="0.95" style="stop-color:#363130"/>
		<stop  offset="1" style="stop-color:#252221"/>
	</linearGradient>
	<path fill="url(#SVGID_31_)" d="M291.796,363.183h24.75c1.5,0,2.359,1.105,2.359,2.469l-0.109,24.531
		c0,0.75-1.027,2.176-2.398,2.176l-24.602,0.074c-1.5,0-2.25-1.207-2.25-2.57v-24.43c0-1.5,1.109-2.25,2.48-2.25H291.796z"/>
	
		<linearGradient id="SVGID_32_" gradientUnits="userSpaceOnUse" x1="231.2275" y1="186.8066" x2="202.2275" y2="186.8066" gradientTransform="matrix(0.75 0 0 -0.75 141.5009 517.7638)">
		<stop  offset="0" style="stop-color:#AA646C"/>
		<stop  offset="0.03" style="stop-color:#F3AEB5"/>
		<stop  offset="0.08" style="stop-color:#DD848E"/>
		<stop  offset="0.64" style="stop-color:#D9828C"/>
		<stop  offset="0.95" style="stop-color:#D57F89"/>
		<stop  offset="1" style="stop-color:#9E5D64"/>
	</linearGradient>
	<path fill="url(#SVGID_32_)" d="M293.171,366.785h21.75v21.75h-21.75V366.785z"/>
	
		<linearGradient id="SVGID_33_" gradientUnits="userSpaceOnUse" x1="241.3726" y1="181.8057" x2="202.2261" y2="181.8057" gradientTransform="matrix(0.75 0 0 -0.75 89.7753 514.1622)">
		<stop  offset="0" style="stop-color:#292525"/>
		<stop  offset="0.03" style="stop-color:#868584"/>
		<stop  offset="0.08" style="stop-color:#383433"/>
		<stop  offset="0.64" style="stop-color:#373332"/>
		<stop  offset="0.95" style="stop-color:#363130"/>
		<stop  offset="1" style="stop-color:#252221"/>
	</linearGradient>
	<path fill="url(#SVGID_33_)" d="M243.695,363.183h24.75c1.5,0,2.359,1.105,2.359,2.469l-0.109,24.531
		c0,0.75-1.027,2.176-2.398,2.176l-24.602,0.074c-1.5,0-2.25-1.207-2.25-2.57v-24.43c0-1.5,1.109-2.25,2.48-2.25H243.695z"/>
	
		<linearGradient id="SVGID_34_" gradientUnits="userSpaceOnUse" x1="231.2275" y1="186.8066" x2="202.2275" y2="186.8066" gradientTransform="matrix(0.75 0 0 -0.75 93.3998 517.7638)">
		<stop  offset="0" style="stop-color:#AA646C"/>
		<stop  offset="0.03" style="stop-color:#F3AEB5"/>
		<stop  offset="0.08" style="stop-color:#DD848E"/>
		<stop  offset="0.64" style="stop-color:#D9828C"/>
		<stop  offset="0.95" style="stop-color:#D57F89"/>
		<stop  offset="1" style="stop-color:#9E5D64"/>
	</linearGradient>
	<path fill="url(#SVGID_34_)" d="M245.07,366.785h21.75v21.75h-21.75V366.785z"/>
	
		<radialGradient id="SVGID_35_" cx="258.7632" cy="144.959" r="79.8204" gradientTransform="matrix(0.75 0 0 -0.75 199.8397 462.7189)" gradientUnits="userSpaceOnUse">
		<stop  offset="0" style="stop-color:#76A2C9"/>
		<stop  offset="0.54" style="stop-color:#7EADD6"/>
		<stop  offset="0.74" style="stop-color:#B4CEEA"/>
		<stop  offset="0.91" style="stop-color:#76A2C9"/>
		<stop  offset="1" style="stop-color:#7EADD6"/>
	</radialGradient>
	<path fill="url(#SVGID_35_)" stroke="#5F89B9" stroke-width="0.25" stroke-linejoin="bevel" stroke-miterlimit="10" d="
		M351.507,353.742c0-23.25,18.984-42,42.406-42c23.594,0,42.402,18.918,42.402,42.258c-0.059,22.992-18.984,42.258-42.402,42.258
		c-23.656,0.234-42.406-18.922-42.406-42.258V353.742z"/>
	<path fill="#C6D5E8" stroke="#384E64" stroke-linejoin="bevel" stroke-miterlimit="10" d="M359.167,353.839
		c0-18.75,15.555-34.5,34.746-34.5c19.254,0,34.742,15.52,34.742,34.66c0.262,19.34-15.555,34.656-34.742,34.656
		c-18.996-0.316-34.746-15.516-34.746-34.656V353.839z"/>
	<path fill="#E35020" d="M381.898,368.843c0,0,24.824-42.137,27.066-40.84c1.855,1.246-21.871,43.84-21.871,43.84L381.898,368.843z"
		/>
	<path fill="#4B6884" d="M388.351,353.707c0-3,2.488-5.25,5.563-5.25c3.438,0,5.559,2.48,5.559,5.543
		c0.129,2.707-2.488,5.543-5.559,5.543c-3.313,0.164-5.563-2.484-5.563-5.543V353.707z"/>
	<path fill="none" stroke="#000000" stroke-linejoin="bevel" stroke-miterlimit="10" d="M393.007,324.992l-0.008,7.5"/>
	<path fill="none" stroke="#000000" stroke-linejoin="bevel" stroke-miterlimit="10" d="M366.683,353.015l7.5,0.008"/>
	<path fill="none" stroke="#000000" stroke-linejoin="bevel" stroke-miterlimit="10" d="M415.144,353.015l7.5,0.008"/>
	<path fill="none" stroke="#000000" stroke-linejoin="bevel" stroke-miterlimit="10" d="M374.609,333.718l5.297,5.309"/>
	<path fill="none" stroke="#000000" stroke-linejoin="bevel" stroke-miterlimit="10" d="M413.277,333.718l-5.297,5.309"/>
	<path fill="none" stroke="#3F77A8" stroke-linejoin="bevel" stroke-miterlimit="10" d="M381.191,374.296h26.25
		c1.5,0,3.172,1.273,3.172,2.953c-0.172,2.297-1.367,3.543-3.051,3.543l-26.371,0.254c-1.5,0-3.105-1.613-3.105-3.293
		c0.105-1.957,1.367-3.543,3.051-3.543L381.191,374.296z"/>
	<path fill="#FFFFFF" fill-opacity="0.3804" d="M400.238,354.589c0-19.5-25.578-35.25-6.391-35.25
		c19.141,0,34.742,15.516,34.742,34.66c0.148,19.34-15.555,34.66-34.742,34.66c-19.109-0.32,6.094-15.016,6.094-34.156
		L400.238,354.589z"/>
	<path stroke="#000000" stroke-linejoin="bevel" stroke-miterlimit="10" d="M365.23,121.445c-10.074-10.078-10.305-26.816-0.121-37
		c10.199-10.199,26.68-10.195,36.848-0.027c10.477,9.98,10.16,26.668-0.023,36.852c-10.184,9.719-26.68,10.195-36.852,0.023
		L365.23,121.445z"/>
	
		<linearGradient id="SVGID_36_" gradientUnits="userSpaceOnUse" x1="134.7642" y1="232.1523" x2="62.1336" y2="190.2191" gradientTransform="matrix(0.5303 -0.5303 -0.5303 -0.5303 443.338 267.0729)">
		<stop  offset="0.41" style="stop-color:#5D5B5B"/>
		<stop  offset="0.6" style="stop-color:#484646"/>
		<stop  offset="0.8" style="stop-color:#383636"/>
		<stop  offset="0.93" style="stop-color:#2C2B2B"/>
		<stop  offset="1" style="stop-color:#535151"/>
	</linearGradient>
	<path fill="url(#SVGID_36_)" d="M367.406,119.32c-9.016-9.016-9.148-23.734-0.152-32.73c9.168-9.168,23.57-9.004,32.555-0.02
		c8.965,9.414,8.973,23.555-0.023,32.551c-9.043,8.684-23.57,9.008-32.551,0.023L367.406,119.32z"/>
	
		<linearGradient id="SVGID_37_" gradientUnits="userSpaceOnUse" x1="81.7461" y1="214.394" x2="67.6152" y2="214.394" gradientTransform="matrix(0.5303 -0.5303 -0.5303 -0.5303 457.6661 256.3327)">
		<stop  offset="0" style="stop-color:#343232"/>
		<stop  offset="0.15" style="stop-color:#555454"/>
		<stop  offset="0.26" style="stop-color:#797777"/>
		<stop  offset="0.41" style="stop-color:#5D5B5B"/>
		<stop  offset="0.6" style="stop-color:#484646"/>
		<stop  offset="0.8" style="stop-color:#383636"/>
		<stop  offset="0.93" style="stop-color:#2C2B2B"/>
		<stop  offset="1" style="stop-color:#535151"/>
	</linearGradient>
	<path fill="url(#SVGID_37_)" d="M367.417,90.016l3.18-3.18c1.063-1.063,3.18-1.098,4.473,0.195l24.168,24.199
		c1.59,1.59,1.363,3.426,0.066,4.719l-2.719,3.234c-1.063,1.063-3.48,0.871-4.77-0.418l-24.398-24.504
		c-1.063-1.063-1.125-3.117,0.168-4.41L367.417,90.016z"/>
</g>
</svg>
