<?xml version="1.0" encoding="utf-8"?>
<!-- Generator: Adobe Illustrator 16.0.0, SVG Export Plug-In . SVG Version: 6.00 Build 0)  -->
<!DOCTYPE svg PUBLIC "-//W3C//DTD SVG 1.1//EN" "http://www.w3.org/Graphics/SVG/1.1/DTD/svg11.dtd">
<svg preserveAspectRatio="none"   version="1.1" id="图层_1" xmlns="http://www.w3.org/2000/svg" xmlns:xlink="http://www.w3.org/1999/xlink" x="0px" y="0px"
	 width="220.5px" height="567px" viewBox="173.398 -0.035 220.5 567" enable-background="new 173.398 -0.035 220.5 567"
	 xml:space="preserve">
<g id="surface71">
	
		<linearGradient id="SVGID_1_" gradientUnits="userSpaceOnUse" x1="496.2222" y1="-176.6953" x2="202.2231" y2="-176.6953" gradientTransform="matrix(0.75 0 0 -0.75 21.7308 150.9415)">
		<stop  offset="0" style="stop-color:#B3A593"/>
		<stop  offset="0.03" style="stop-color:#FDEEDA"/>
		<stop  offset="0.08" style="stop-color:#E9D7BF"/>
		<stop  offset="0.64" style="stop-color:#E5D3BC"/>
		<stop  offset="0.95" style="stop-color:#E0CEB8"/>
		<stop  offset="1" style="stop-color:#A69988"/>
	</linearGradient>
	<path fill="url(#SVGID_1_)" d="M173.398-0.035h220.5v567h-220.5V-0.035z"/>
	
		<linearGradient id="SVGID_2_" gradientUnits="userSpaceOnUse" x1="475.2222" y1="-165.1943" x2="202.2231" y2="-165.1944" gradientTransform="matrix(0.75 0 0 -0.75 29.4886 158.5919)">
		<stop  offset="0" style="stop-color:#B4B0AB"/>
		<stop  offset="0.03" style="stop-color:#FEF9F4"/>
		<stop  offset="0.08" style="stop-color:#EAE4DE"/>
		<stop  offset="0.64" style="stop-color:#E6E1DA"/>
		<stop  offset="0.95" style="stop-color:#E1DCD5"/>
		<stop  offset="1" style="stop-color:#A7A39E"/>
	</linearGradient>
	<path fill="url(#SVGID_2_)" d="M181.156,7.613h204.75v549.75h-204.75V7.613z"/>
	
		<linearGradient id="SVGID_3_" gradientUnits="userSpaceOnUse" x1="431.2261" y1="68.8027" x2="202.2271" y2="68.8027" gradientTransform="matrix(0.75 0 0 -0.75 45.974 205.2032)">
		<stop  offset="0" style="stop-color:#A8A8A8"/>
		<stop  offset="0.03" style="stop-color:#F2F2F2"/>
		<stop  offset="0.08" style="stop-color:#E5E5E5"/>
		<stop  offset="0.64" style="stop-color:#E3E3E3"/>
		<stop  offset="0.95" style="stop-color:#EBEBEB"/>
		<stop  offset="1" style="stop-color:#9C9C9C"/>
	</linearGradient>
	<path fill="url(#SVGID_3_)" d="M197.645,54.227h171.75v198.75h-171.75V54.227z"/>
	
		<linearGradient id="SVGID_4_" gradientUnits="userSpaceOnUse" x1="386.2241" y1="94.3057" x2="202.2251" y2="94.3056" gradientTransform="matrix(0.75 0 0 -0.75 62.9442 224.3263)">
		<stop  offset="0" style="stop-color:#B5B5B5"/>
		<stop  offset="0.03" style="stop-color:#FFFFFF"/>
		<stop  offset="0.08" style="stop-color:#F6F6F6"/>
		<stop  offset="0.64" style="stop-color:#F3F3F3"/>
		<stop  offset="0.95" style="stop-color:#FCFCFC"/>
		<stop  offset="1" style="stop-color:#A8A8A8"/>
	</linearGradient>
	<path fill="url(#SVGID_4_)" d="M214.613,73.348h138v160.5h-138V73.348z"/>
	
		<linearGradient id="SVGID_5_" gradientUnits="userSpaceOnUse" x1="316.2241" y1="131.3027" x2="202.2251" y2="131.3027" gradientTransform="matrix(0.75 0 0 -0.75 89.1273 252.0548)">
		<stop  offset="0" style="stop-color:#B4B0AB"/>
		<stop  offset="0.03" style="stop-color:#EAE4DE"/>
		<stop  offset="0.64" style="stop-color:#E6E1DA"/>
		<stop  offset="0.95" style="stop-color:#E1DCD5"/>
		<stop  offset="1" style="stop-color:#A7A39E"/>
	</linearGradient>
	<path fill="url(#SVGID_5_)" d="M240.797,101.078h85.5v105h-85.5V101.078z"/>
	
		<linearGradient id="SVGID_6_" gradientUnits="userSpaceOnUse" x1="254.2256" y1="173.3057" x2="202.2256" y2="173.3057" gradientTransform="matrix(0.75 0 0 -0.75 45.7797 444.4825)">
		<stop  offset="0" style="stop-color:#A8A8A8"/>
		<stop  offset="0.03" style="stop-color:#F2F2F2"/>
		<stop  offset="0.08" style="stop-color:#E5E5E5"/>
		<stop  offset="0.64" style="stop-color:#E3E3E3"/>
		<stop  offset="0.95" style="stop-color:#EBEBEB"/>
		<stop  offset="1" style="stop-color:#9C9C9C"/>
	</linearGradient>
	<path fill="url(#SVGID_6_)" d="M197.449,293.503h39v42h-39V293.503z"/>
	
		<linearGradient id="SVGID_7_" gradientUnits="userSpaceOnUse" x1="254.2256" y1="191.3057" x2="202.2256" y2="191.3057" gradientTransform="matrix(0.75 0 0 -0.75 45.7797 444.4825)">
		<stop  offset="0" style="stop-color:#B5B5B5"/>
		<stop  offset="0.03" style="stop-color:#FFFFFF"/>
		<stop  offset="0.08" style="stop-color:#F6F6F6"/>
		<stop  offset="0.64" style="stop-color:#F3F3F3"/>
		<stop  offset="0.95" style="stop-color:#FCFCFC"/>
		<stop  offset="1" style="stop-color:#A8A8A8"/>
	</linearGradient>
	<path fill="url(#SVGID_7_)" d="M197.449,293.503h39v15h-39V293.503z"/>
	
		<linearGradient id="SVGID_8_" gradientUnits="userSpaceOnUse" x1="210.2275" y1="185.3027" x2="202.2275" y2="185.3027" gradientTransform="matrix(0.75 0 0 -0.75 63.4774 247.2736)">
		<stop  offset="0" style="stop-color:#676768"/>
		<stop  offset="0.15" style="stop-color:#939394"/>
		<stop  offset="0.25" style="stop-color:#C9C9CA"/>
		<stop  offset="0.52" style="stop-color:#767677"/>
		<stop  offset="0.69" style="stop-color:#696969"/>
		<stop  offset="0.8" style="stop-color:#626263"/>
		<stop  offset="0.97" style="stop-color:#5D5D5D"/>
		<stop  offset="1" style="stop-color:#6B6B6C"/>
	</linearGradient>
	<path fill="url(#SVGID_8_)" d="M215.148,96.297h6v24h-6V96.297z"/>
	
		<linearGradient id="SVGID_9_" gradientUnits="userSpaceOnUse" x1="210.2275" y1="185.3027" x2="202.2275" y2="185.3027" gradientTransform="matrix(0.75 0 0 -0.75 63.4774 336.9142)">
		<stop  offset="0" style="stop-color:#676768"/>
		<stop  offset="0.15" style="stop-color:#939394"/>
		<stop  offset="0.25" style="stop-color:#C9C9CA"/>
		<stop  offset="0.52" style="stop-color:#767677"/>
		<stop  offset="0.69" style="stop-color:#696969"/>
		<stop  offset="0.8" style="stop-color:#626263"/>
		<stop  offset="0.97" style="stop-color:#5D5D5D"/>
		<stop  offset="1" style="stop-color:#6B6B6C"/>
	</linearGradient>
	<path fill="url(#SVGID_9_)" d="M215.148,185.938h6v24h-6V185.938z"/>
	
		<linearGradient id="SVGID_10_" gradientUnits="userSpaceOnUse" x1="273.3403" y1="166.2466" x2="202.2261" y2="166.2466" gradientTransform="matrix(0.75 0 0 -0.75 172.0878 468.4161)">
		<stop  offset="0" style="stop-color:#FFE0B3"/>
		<stop  offset="0.16" style="stop-color:#FFEED7"/>
		<stop  offset="0.52" style="stop-color:#DFC297"/>
		<stop  offset="0.69" style="stop-color:#C7AD86"/>
		<stop  offset="0.8" style="stop-color:#BCA37E"/>
		<stop  offset="0.97" style="stop-color:#B19A77"/>
		<stop  offset="1" style="stop-color:#CBB189"/>
	</linearGradient>
	<path fill="url(#SVGID_10_)" d="M323.757,343.687c0-14.25,11.938-26.25,26.668-26.25c14.582,0,26.668,11.742,26.668,26.293
		c-0.086,14.207-11.941,26.297-26.668,26.297c-14.668-0.09-26.668-11.805-26.668-26.297V343.687z"/>
	
		<linearGradient id="SVGID_11_" gradientUnits="userSpaceOnUse" x1="240.583" y1="182.394" x2="202.2236" y2="182.394" gradientTransform="matrix(0.75 0 0 -0.75 184.371 480.5255)">
		<stop  offset="0" style="stop-color:#A8A8A9"/>
		<stop  offset="0.15" style="stop-color:#DEDEDF"/>
		<stop  offset="0.52" style="stop-color:#C0C0C1"/>
		<stop  offset="0.69" style="stop-color:#ABABAC"/>
		<stop  offset="0.8" style="stop-color:#A1A1A2"/>
		<stop  offset="0.97" style="stop-color:#989899"/>
		<stop  offset="1" style="stop-color:#AFAFB0"/>
	</linearGradient>
	<path fill="url(#SVGID_11_)" d="M336.039,343.796c0-8.25,6.441-14.25,14.387-14.25c8.113,0,14.383,6.336,14.383,14.184
		c-0.27,7.566-6.441,14.184-14.383,14.184c-7.637,0.133-14.387-6.367-14.387-14.184V343.796z"/>
	<path d="M341.195,343.632c0-5.25,4.133-9,9.23-9c5.02,0,9.227,4.063,9.227,9.098c0.293,5.152-4.133,9.098-9.227,9.098
		c-4.73-0.195-9.23-4.082-9.23-9.098V343.632z"/>
	
		<linearGradient id="SVGID_12_" gradientUnits="userSpaceOnUse" x1="273.3403" y1="166.2471" x2="202.2261" y2="166.2471" gradientTransform="matrix(0.75 0 0 -0.75 172.0878 622.8263)">
		<stop  offset="0" style="stop-color:#FFE0B3"/>
		<stop  offset="0.16" style="stop-color:#FFEED7"/>
		<stop  offset="0.52" style="stop-color:#DFC297"/>
		<stop  offset="0.69" style="stop-color:#C7AD86"/>
		<stop  offset="0.8" style="stop-color:#BCA37E"/>
		<stop  offset="0.97" style="stop-color:#B19A77"/>
		<stop  offset="1" style="stop-color:#CBB189"/>
	</linearGradient>
	<path fill="url(#SVGID_12_)" d="M323.757,498.097c0-14.25,11.938-26.25,26.668-26.25c14.582,0,26.668,11.742,26.668,26.297
		c-0.086,14.203-11.941,26.293-26.668,26.293c-14.668-0.09-26.668-11.801-26.668-26.293V498.097z"/>
	
		<linearGradient id="SVGID_13_" gradientUnits="userSpaceOnUse" x1="240.584" y1="182.3945" x2="202.2246" y2="182.3945" gradientTransform="matrix(0.75 0 0 -0.75 184.37 634.9366)">
		<stop  offset="0" style="stop-color:#A8A8A9"/>
		<stop  offset="0.15" style="stop-color:#DEDEDF"/>
		<stop  offset="0.52" style="stop-color:#C0C0C1"/>
		<stop  offset="0.69" style="stop-color:#ABABAC"/>
		<stop  offset="0.8" style="stop-color:#A1A1A2"/>
		<stop  offset="0.97" style="stop-color:#989899"/>
		<stop  offset="1" style="stop-color:#AFAFB0"/>
	</linearGradient>
	<path fill="url(#SVGID_13_)" d="M336.039,498.207c0-8.25,6.441-14.25,14.387-14.25c8.113,0,14.383,6.336,14.383,14.184
		c-0.27,7.566-6.441,14.184-14.383,14.184c-7.637,0.133-14.387-6.363-14.387-14.184V498.207z"/>
	<path d="M341.195,498.042c0-5.25,4.133-9,9.23-9c5.02,0,9.227,4.063,9.227,9.098c0.293,5.152-4.133,9.102-9.227,9.102
		c-4.73-0.199-9.23-4.086-9.23-9.102V498.042z"/>
	<path fill="#FFFFFF" fill-opacity="0.4941" d="M249.813,111.836h63.75v20.25h-63.75V111.836z"/>
	<path fill="#DEB887" fill-opacity="0.2431" d="M258.266,272.469h50.25v63h-50.25V272.469z"/>
</g>
</svg>
