<?xml version="1.0" encoding="utf-8"?>
<!-- Generator: Adobe Illustrator 16.0.0, SVG Export Plug-In . SVG Version: 6.00 Build 0)  -->
<!DOCTYPE svg PUBLIC "-//W3C//DTD SVG 1.1//EN" "http://www.w3.org/Graphics/SVG/1.1/DTD/svg11.dtd">
<svg preserveAspectRatio="none"   version="1.1" id="图层_1" xmlns="http://www.w3.org/2000/svg" xmlns:xlink="http://www.w3.org/1999/xlink" x="0px" y="0px"
	 width="565.947px" height="216px" viewBox="0.523 -0.82 565.947 216" enable-background="new 0.523 -0.82 565.947 216"
	 xml:space="preserve">
<g id="surface389">
	
		<linearGradient id="SVGID_1_" gradientUnits="userSpaceOnUse" x1="323.7231" y1="201.3057" x2="323.7231" y2="146.3057" gradientTransform="matrix(0.75 0 0 -0.75 -51.2145 158.2247)">
		<stop  offset="0" style="stop-color:#424141"/>
		<stop  offset="0.15" style="stop-color:#6D6C6C"/>
		<stop  offset="0.25" style="stop-color:#BCBCBC"/>
		<stop  offset="0.52" style="stop-color:#4D4B4B"/>
		<stop  offset="0.69" style="stop-color:#434242"/>
		<stop  offset="0.8" style="stop-color:#3F3E3E"/>
		<stop  offset="0.97" style="stop-color:#3B3A3A"/>
		<stop  offset="1" style="stop-color:#454444"/>
	</linearGradient>
	<path fill="url(#SVGID_1_)" d="M100.453,7.246h182.25v41.25h-182.25V7.246z"/>
	
		<linearGradient id="SVGID_2_" gradientUnits="userSpaceOnUse" x1="219.2275" y1="201.3018" x2="219.2275" y2="136.3018" gradientTransform="matrix(0.75 0 0 -0.75 69.4584 154.5001)">
		<stop  offset="0" style="stop-color:#555454"/>
		<stop  offset="0.15" style="stop-color:#807F7F"/>
		<stop  offset="0.25" style="stop-color:#C2C2C2"/>
		<stop  offset="0.52" style="stop-color:#626161"/>
		<stop  offset="0.69" style="stop-color:#565656"/>
		<stop  offset="0.8" style="stop-color:#515050"/>
		<stop  offset="0.97" style="stop-color:#4C4B4B"/>
		<stop  offset="1" style="stop-color:#595858"/>
	</linearGradient>
	<path fill="url(#SVGID_2_)" d="M221.129,3.523h25.5v48.75h-25.5V3.523z"/>
	
		<linearGradient id="SVGID_3_" gradientUnits="userSpaceOnUse" x1="242.2241" y1="201.3027" x2="242.2241" y2="124.3027" gradientTransform="matrix(0.75 0 0 -0.75 -110.922 150.1564)">
		<stop  offset="0" style="stop-color:#555454"/>
		<stop  offset="0.15" style="stop-color:#807F7F"/>
		<stop  offset="0.25" style="stop-color:#C2C2C2"/>
		<stop  offset="0.52" style="stop-color:#626161"/>
		<stop  offset="0.69" style="stop-color:#565656"/>
		<stop  offset="0.8" style="stop-color:#515050"/>
		<stop  offset="0.97" style="stop-color:#4C4B4B"/>
		<stop  offset="1" style="stop-color:#595858"/>
	</linearGradient>
	<path fill="url(#SVGID_3_)" d="M42.996-0.82h55.5c0.75,0,2,1,2,2.234l0.25,53.266c0,1.5-1.305,2.223-2.555,2.223L42.996,56.93
		c-1.5,0-2.25-1.027-2.25-2.262V1.43c0-1.5,1.016-2.25,2.266-2.25H42.996z"/>
	
		<linearGradient id="SVGID_4_" gradientUnits="userSpaceOnUse" x1="207.7227" y1="201.3027" x2="207.7227" y2="148.3027" gradientTransform="matrix(0.75 0 0 -0.75 -118.464 159.1564)">
		<stop  offset="0" style="stop-color:#424141"/>
		<stop  offset="0.15" style="stop-color:#6D6C6C"/>
		<stop  offset="0.25" style="stop-color:#BCBCBC"/>
		<stop  offset="0.52" style="stop-color:#4D4B4B"/>
		<stop  offset="0.69" style="stop-color:#434242"/>
		<stop  offset="0.8" style="stop-color:#3F3E3E"/>
		<stop  offset="0.97" style="stop-color:#3B3A3A"/>
		<stop  offset="1" style="stop-color:#454444"/>
	</linearGradient>
	<path fill="url(#SVGID_4_)" d="M33.203,8.18h8.25v39.75h-8.25V8.18z"/>
	
		<linearGradient id="SVGID_5_" gradientUnits="userSpaceOnUse" x1="224.2266" y1="201.3018" x2="224.2266" y2="185.3018" gradientTransform="matrix(0.75 0 0 -0.75 -151.1461 173.1212)">
		<stop  offset="0" style="stop-color:#424141"/>
		<stop  offset="0.15" style="stop-color:#6D6C6C"/>
		<stop  offset="0.25" style="stop-color:#BCBCBC"/>
		<stop  offset="0.52" style="stop-color:#4D4B4B"/>
		<stop  offset="0.69" style="stop-color:#434242"/>
		<stop  offset="0.8" style="stop-color:#3F3E3E"/>
		<stop  offset="0.97" style="stop-color:#3B3A3A"/>
		<stop  offset="1" style="stop-color:#454444"/>
	</linearGradient>
	<path fill="url(#SVGID_5_)" d="M0.523,22.145h33v12h-33V22.145z"/>
	
		<linearGradient id="SVGID_6_" gradientUnits="userSpaceOnUse" x1="206.3628" y1="201.3018" x2="206.3628" y2="131.3018" gradientTransform="matrix(0.75 0 0 -0.75 129.8348 152.9493)">
		<stop  offset="0" style="stop-color:#555454"/>
		<stop  offset="0.15" style="stop-color:#807F7F"/>
		<stop  offset="0.25" style="stop-color:#C2C2C2"/>
		<stop  offset="0.52" style="stop-color:#626161"/>
		<stop  offset="0.69" style="stop-color:#565656"/>
		<stop  offset="0.8" style="stop-color:#515050"/>
		<stop  offset="0.97" style="stop-color:#4C4B4B"/>
		<stop  offset="1" style="stop-color:#595858"/>
	</linearGradient>
	<path fill="url(#SVGID_6_)" d="M283.754,1.973h1.5c1.5,0,2.496,0.961,2.496,2.195l-0.246,47.305c0,1.5-0.766,2.637-2.016,2.637
		l-1.734,0.363c-1.5,0-2.289-1.402-2.289-2.637l0.039-47.613c0-1.5,0.973-2.25,2.223-2.25H283.754z"/>
	
		<linearGradient id="SVGID_7_" gradientUnits="userSpaceOnUse" x1="253.2246" y1="187.8027" x2="202.2246" y2="187.8027" gradientTransform="matrix(0.75 0 0 -0.75 158.077 229.9767)">
		<stop  offset="0" style="stop-color:#424141"/>
		<stop  offset="0.15" style="stop-color:#6D6C6C"/>
		<stop  offset="0.25" style="stop-color:#BCBCBC"/>
		<stop  offset="0.52" style="stop-color:#4D4B4B"/>
		<stop  offset="0.69" style="stop-color:#434242"/>
		<stop  offset="0.8" style="stop-color:#3F3E3E"/>
		<stop  offset="0.97" style="stop-color:#3B3A3A"/>
		<stop  offset="1" style="stop-color:#454444"/>
	</linearGradient>
	<path fill="url(#SVGID_7_)" d="M309.746,79h38.25v20.25h-38.25V79z"/>
	
		<linearGradient id="SVGID_8_" gradientUnits="userSpaceOnUse" x1="282.2246" y1="193.356" x2="202.1201" y2="193.356" gradientTransform="matrix(0.75 0 0 -0.75 147.4325 250.1642)">
		<stop  offset="0" style="stop-color:#555454"/>
		<stop  offset="0.15" style="stop-color:#807F7F"/>
		<stop  offset="0.25" style="stop-color:#C2C2C2"/>
		<stop  offset="0.52" style="stop-color:#626161"/>
		<stop  offset="0.69" style="stop-color:#565656"/>
		<stop  offset="0.8" style="stop-color:#515050"/>
		<stop  offset="0.97" style="stop-color:#4C4B4B"/>
		<stop  offset="1" style="stop-color:#595858"/>
	</linearGradient>
	<path fill="url(#SVGID_8_)" d="M301.351,99.188h54.75c1.5,0,2.629,0.922,2.629,2.156l0.371,7.594c0,0.75-1.383,1.965-2.633,1.965
		l-55.117,0.285c-1.5,0-2.328-1.285-2.328-2.52l0.078-7.23c0-1.5,0.934-2.328,2.184-2.328L301.351,99.188z"/>
	
		<linearGradient id="SVGID_9_" gradientUnits="userSpaceOnUse" x1="526.3091" y1="201.3027" x2="526.3091" y2="111.9219" gradientTransform="matrix(0.75 0 0 -0.75 -71.3263 299.1212)">
		<stop  offset="0" style="stop-color:#6E6F6F"/>
		<stop  offset="0.03" style="stop-color:#B7B8B8"/>
		<stop  offset="0.08" style="stop-color:#919292"/>
		<stop  offset="0.64" style="stop-color:#8F9090"/>
		<stop  offset="0.95" style="stop-color:#8B8C8C"/>
		<stop  offset="1" style="stop-color:#666767"/>
	</linearGradient>
	<path fill="url(#SVGID_9_)" d="M80.344,148.145h486c0,0,3.855,36.371-30.902,67.035c0.152-0.285-424.363,0-424.363,0
		C79.594,189.395,80.344,148.145,80.344,148.145z"/>
	
		<linearGradient id="SVGID_10_" gradientUnits="userSpaceOnUse" x1="509.7222" y1="201.3057" x2="509.7222" y2="193.3047" gradientTransform="matrix(0.75 0 0 -0.75 -58.2535 300.2404)">
		<stop  offset="0" style="stop-color:#C1C2C3"/>
		<stop  offset="0.15" style="stop-color:#FBFDFE"/>
		<stop  offset="0.25" style="stop-color:#FDFEFE"/>
		<stop  offset="0.52" style="stop-color:#DCDEDE"/>
		<stop  offset="0.69" style="stop-color:#C4C5C6"/>
		<stop  offset="0.8" style="stop-color:#B9BABB"/>
		<stop  offset="0.97" style="stop-color:#AEB0B0"/>
		<stop  offset="1" style="stop-color:#C8CACB"/>
	</linearGradient>
	<path fill="url(#SVGID_10_)" d="M93.414,149.262h461.25v6H93.414V149.262z"/>
	
		<linearGradient id="SVGID_11_" gradientUnits="userSpaceOnUse" x1="509.7222" y1="201.3047" x2="509.7222" y2="193.3037" gradientTransform="matrix(0.75 0 0 -0.75 -58.2648 314.4581)">
		<stop  offset="0" style="stop-color:#C1C2C3"/>
		<stop  offset="0.15" style="stop-color:#FBFDFE"/>
		<stop  offset="0.25" style="stop-color:#FDFEFE"/>
		<stop  offset="0.52" style="stop-color:#DCDEDE"/>
		<stop  offset="0.69" style="stop-color:#C4C5C6"/>
		<stop  offset="0.8" style="stop-color:#B9BABB"/>
		<stop  offset="0.97" style="stop-color:#AEB0B0"/>
		<stop  offset="1" style="stop-color:#C8CACB"/>
	</linearGradient>
	<path fill="url(#SVGID_11_)" d="M93.402,163.48h461.25v6H93.402V163.48z"/>
	
		<linearGradient id="SVGID_12_" gradientUnits="userSpaceOnUse" x1="514.7241" y1="201.3096" x2="514.7241" y2="151.3047" gradientTransform="matrix(0.75 0 0 -0.75 -62.7784 261.756)">
		<stop  offset="0" style="stop-color:#424141"/>
		<stop  offset="0.15" style="stop-color:#6D6C6C"/>
		<stop  offset="0.25" style="stop-color:#BCBCBC"/>
		<stop  offset="0.52" style="stop-color:#4D4B4B"/>
		<stop  offset="0.69" style="stop-color:#434242"/>
		<stop  offset="0.8" style="stop-color:#3F3E3E"/>
		<stop  offset="0.97" style="stop-color:#3B3A3A"/>
		<stop  offset="1" style="stop-color:#454444"/>
	</linearGradient>
	<path fill="url(#SVGID_12_)" d="M88.891,148.277h468.75c0,0-3.152-17.637-46.395-27.07c-43.605-9.68-187.547-10.43-187.547-10.43
		c-0.059,0-148.828-0.496-188.046,10.43c-39.262,10.57-46.762,26.813-46.762,26.813V148.277z"/>
	
		<linearGradient id="SVGID_13_" gradientUnits="userSpaceOnUse" x1="272.6147" y1="197.165" x2="202.2241" y2="197.165" gradientTransform="matrix(0.75 0 0 -0.75 150.8505 224.2501)">
		<stop  offset="0" style="stop-color:#555454"/>
		<stop  offset="0.15" style="stop-color:#807F7F"/>
		<stop  offset="0.25" style="stop-color:#C2C2C2"/>
		<stop  offset="0.52" style="stop-color:#626161"/>
		<stop  offset="0.69" style="stop-color:#565656"/>
		<stop  offset="0.8" style="stop-color:#515050"/>
		<stop  offset="0.97" style="stop-color:#4C4B4B"/>
		<stop  offset="1" style="stop-color:#595858"/>
	</linearGradient>
	<path fill="url(#SVGID_13_)" d="M302.519,77.023v-1.5c0-1.5,0.973-2.25,2.223-2.25h48.027c1.5,0,2.543,1,2.543,2.234l-0.293,1.516
		c0,1.5-0.758,2.457-2.008,2.457l-48.242-0.207c-1.5,0-2.25-0.793-2.25-2.027V77.023z"/>
	
		<linearGradient id="SVGID_14_" gradientUnits="userSpaceOnUse" x1="289.8013" y1="155.2686" x2="202.2246" y2="155.2685" gradientTransform="matrix(0.75 0 0 -0.75 136.0804 155.1993)">
		<stop  offset="0" style="stop-color:#424141"/>
		<stop  offset="0.14" style="stop-color:#6D6C6C"/>
		<stop  offset="0.22" style="stop-color:#BCBCBC"/>
		<stop  offset="0.4" style="stop-color:#4D4B4B"/>
		<stop  offset="0.69" style="stop-color:#434242"/>
		<stop  offset="0.8" style="stop-color:#3F3E3E"/>
		<stop  offset="0.97" style="stop-color:#3B3A3A"/>
		<stop  offset="1" style="stop-color:#454444"/>
	</linearGradient>
	<path fill="url(#SVGID_14_)" d="M287.75,51.473c0,0,16.992-0.313,16.992,21.801L353,73.223c0,0,9.918-69-65.25-69V51.473z"/>
	
		<linearGradient id="SVGID_15_" gradientUnits="userSpaceOnUse" x1="232.0127" y1="201.3018" x2="232.0127" y2="111.9219" gradientTransform="matrix(0.75 0 0 -0.75 -71.3263 299.1212)">
		<stop  offset="0" style="stop-color:#A8A8A8"/>
		<stop  offset="0.03" style="stop-color:#F2F2F2"/>
		<stop  offset="0.08" style="stop-color:#DBDBDB"/>
		<stop  offset="0.64" style="stop-color:#D8D8D8"/>
		<stop  offset="0.95" style="stop-color:#D3D3D3"/>
		<stop  offset="1" style="stop-color:#9C9C9C"/>
	</linearGradient>
	<path fill="url(#SVGID_15_)" d="M80.344,148.145h12.75c0,0,1.23,31.438,31.926,67.035c0.324-0.285-13.918,0-13.918,0
		C79.594,189.395,80.344,148.145,80.344,148.145z"/>
	
		<linearGradient id="SVGID_16_" gradientUnits="userSpaceOnUse" x1="195.4922" y1="201.3008" x2="195.4922" y2="111.9209" gradientTransform="matrix(-0.75 0 0 -0.75 690.7296 299.1212)">
		<stop  offset="0" style="stop-color:#A8A8A8"/>
		<stop  offset="0.03" style="stop-color:#F2F2F2"/>
		<stop  offset="0.08" style="stop-color:#DBDBDB"/>
		<stop  offset="0.64" style="stop-color:#D8D8D8"/>
		<stop  offset="0.95" style="stop-color:#D3D3D3"/>
		<stop  offset="1" style="stop-color:#9C9C9C"/>
	</linearGradient>
	<path fill="url(#SVGID_16_)" d="M566.453,148.145h-12.75c0,0-1.234,31.438-31.93,67.035c-0.32-0.285,13.922,0,13.922,0
		C567.203,189.395,566.453,148.145,566.453,148.145z"/>
	
		<linearGradient id="SVGID_17_" gradientUnits="userSpaceOnUse" x1="382.6226" y1="402.228" x2="382.6226" y2="394.228" gradientTransform="matrix(0 0.75 0.75 0 -173.3737 -127.1661)">
		<stop  offset="0" style="stop-color:#A8A8A8"/>
		<stop  offset="0.03" style="stop-color:#F2F2F2"/>
		<stop  offset="0.08" style="stop-color:#DBDBDB"/>
		<stop  offset="0.64" style="stop-color:#D8D8D8"/>
		<stop  offset="0.95" style="stop-color:#D3D3D3"/>
		<stop  offset="1" style="stop-color:#9C9C9C"/>
	</linearGradient>
	<path fill="url(#SVGID_17_)" d="M128.297,147.801v24h-6v-24H128.297z"/>
	
		<linearGradient id="SVGID_18_" gradientUnits="userSpaceOnUse" x1="382.6226" y1="402.2241" x2="382.6226" y2="394.2241" gradientTransform="matrix(0 0.75 0.75 0 -40.129 -127.1661)">
		<stop  offset="0" style="stop-color:#A8A8A8"/>
		<stop  offset="0.03" style="stop-color:#F2F2F2"/>
		<stop  offset="0.08" style="stop-color:#DBDBDB"/>
		<stop  offset="0.64" style="stop-color:#D8D8D8"/>
		<stop  offset="0.95" style="stop-color:#D3D3D3"/>
		<stop  offset="1" style="stop-color:#9C9C9C"/>
	</linearGradient>
	<path fill="url(#SVGID_18_)" d="M261.539,147.801v24h-6v-24H261.539z"/>
	
		<linearGradient id="SVGID_19_" gradientUnits="userSpaceOnUse" x1="382.6226" y1="402.2251" x2="382.6226" y2="394.2251" gradientTransform="matrix(0 0.75 0.75 0 93.1161 -127.1661)">
		<stop  offset="0" style="stop-color:#A8A8A8"/>
		<stop  offset="0.03" style="stop-color:#F2F2F2"/>
		<stop  offset="0.08" style="stop-color:#DBDBDB"/>
		<stop  offset="0.64" style="stop-color:#D8D8D8"/>
		<stop  offset="0.95" style="stop-color:#D3D3D3"/>
		<stop  offset="1" style="stop-color:#9C9C9C"/>
	</linearGradient>
	<path fill="url(#SVGID_19_)" d="M394.785,147.801v24h-6v-24H394.785z"/>
	
		<linearGradient id="SVGID_20_" gradientUnits="userSpaceOnUse" x1="382.6226" y1="402.2261" x2="382.6226" y2="394.2261" gradientTransform="matrix(0 0.75 0.75 0 226.3612 -127.1661)">
		<stop  offset="0" style="stop-color:#A8A8A8"/>
		<stop  offset="0.03" style="stop-color:#F2F2F2"/>
		<stop  offset="0.08" style="stop-color:#DBDBDB"/>
		<stop  offset="0.64" style="stop-color:#D8D8D8"/>
		<stop  offset="0.95" style="stop-color:#D3D3D3"/>
		<stop  offset="1" style="stop-color:#9C9C9C"/>
	</linearGradient>
	<path fill="url(#SVGID_20_)" d="M528.031,147.801v24h-6v-24H528.031z"/>
</g>
</svg>
