<?xml version="1.0" encoding="utf-8"?>
<!-- Generator: Adobe Illustrator 16.0.0, SVG Export Plug-In . SVG Version: 6.00 Build 0)  -->
<!DOCTYPE svg PUBLIC "-//W3C//DTD SVG 1.1//EN" "http://www.w3.org/Graphics/SVG/1.1/DTD/svg11.dtd">
<svg preserveAspectRatio="none"   version="1.1" id="图层_1" xmlns="http://www.w3.org/2000/svg" xmlns:xlink="http://www.w3.org/1999/xlink" x="0px" y="0px"
	 width="222.207px" height="563.25px" viewBox="172.359 2.004 222.207 563.25"
	 enable-background="new 172.359 2.004 222.207 563.25" xml:space="preserve">
<g id="surface254">
	
		<linearGradient id="SVGID_1_" gradientUnits="userSpaceOnUse" x1="498.4985" y1="-174.1973" x2="202.2227" y2="-174.1973" gradientTransform="matrix(0.75 0 0 -0.75 20.6918 152.9796)">
		<stop  offset="0" style="stop-color:#AEAEAD"/>
		<stop  offset="0.03" style="stop-color:#F8F8F7"/>
		<stop  offset="0.08" style="stop-color:#E3E3E2"/>
		<stop  offset="0.64" style="stop-color:#DFDFDE"/>
		<stop  offset="0.95" style="stop-color:#DADAD9"/>
		<stop  offset="1" style="stop-color:#A2A2A1"/>
	</linearGradient>
	<path fill="url(#SVGID_1_)" d="M174.609,2.004h217.5c1.5,0,2.457,0.914,2.457,2.047l-0.207,558.953c0,0.75-0.945,1.922-2.313,1.922
		l-217.437,0.328c-1.5,0-2.25-1.281-2.25-2.41V4.254c0-1.5,1.109-2.25,2.477-2.25H174.609z"/>
	<path fill="#F2F2F2" d="M189.563,180.973h187.5v27h-187.5V180.973z"/>
	<path stroke="#000000" stroke-linejoin="bevel" stroke-miterlimit="10" d="M254.613,184.387h57.75v19.5h-57.75V184.387z"/>
	<path fill="#3E3938" d="M194.102,19.727h178.5c1.5,0,2.477,1.016,2.477,2.391l-0.227,104.109c0,1.5-0.918,2.645-2.281,2.645
		l-178.468,0.355c-1.5,0-2.25-1.539-2.25-2.914V21.977c0-1.5,1.02-2.25,2.387-2.25H194.102z"/>
	<path fill="#CDCECE" d="M210.469,19.629l6.75,8.25v93l-6.75,8.25V19.629z"/>
	<path fill="#CDCECE" d="M237.625,19.629l6.75,8.25v93l-6.75,8.25V19.629z"/>
	<path fill="#CDCECE" d="M265.344,19.629l6.75,8.25v93l-6.75,8.25V19.629z"/>
	<path fill="#CDCECE" d="M293.625,19.629l6.75,8.25v93l-6.75,8.25V19.629z"/>
	<path fill="#CDCECE" d="M322.476,19.629l6.75,8.25v93l-6.75,8.25V19.629z"/>
	<path fill="#CDCECE" d="M349.062,19.629l6.75,8.25v93l-6.75,8.25V19.629z"/>
	<path fill="#3E3938" d="M190.977,387.378h185.25v5.25h-185.25V387.378z"/>
	<path fill="#3E3938" d="M190.977,404.046h185.25v5.25h-185.25V404.046z"/>
	<path fill="#3E3938" d="M190.977,420.714h185.25v5.25h-185.25V420.714z"/>
	<path fill="#3E3938" d="M190.977,437.378h185.25v5.25h-185.25V437.378z"/>
	<path fill="#3E3938" d="M190.977,454.046h185.25v5.25h-185.25V454.046z"/>
	<path fill="#3E3938" d="M190.977,470.714h185.25v5.25h-185.25V470.714z"/>
	<path fill="#3E3938" d="M190.977,487.382h185.25v5.25h-185.25V487.382z"/>
	<path fill="#3E3938" d="M190.977,504.05h185.25v5.25h-185.25V504.05z"/>
	<path fill="#3E3938" d="M190.977,520.718h185.25v5.25h-185.25V520.718z"/>
	
		<linearGradient id="SVGID_2_" gradientUnits="userSpaceOnUse" x1="498.4985" y1="199.3042" x2="202.2227" y2="199.3042" gradientTransform="matrix(0.75 0 0 -0.75 20.6918 380.9923)">
		<stop  offset="0" style="stop-color:#999999"/>
		<stop  offset="0.03" style="stop-color:#E1E1E1"/>
		<stop  offset="0.08" style="stop-color:#C8C8C8"/>
		<stop  offset="0.64" style="stop-color:#C4C4C4"/>
		<stop  offset="0.95" style="stop-color:#C0C0C0"/>
		<stop  offset="1" style="stop-color:#8E8E8E"/>
	</linearGradient>
	<path fill="url(#SVGID_2_)" d="M174.609,230.016h217.5c1.5,0,2.457,0.004,2.457,0.012l-0.207,2.988c0,0-0.945-0.156-2.313-0.156
		l-217.437,0.156c-1.5,0-2.25-0.164-2.25-0.168v-2.832c0,0,1.109,0,2.477,0H174.609z"/>
	
		<linearGradient id="SVGID_3_" gradientUnits="userSpaceOnUse" x1="498.4985" y1="194.8071" x2="202.2227" y2="194.8071" gradientTransform="matrix(0.75 0 0 -0.75 20.6918 696.4982)">
		<stop  offset="0" style="stop-color:#959595"/>
		<stop  offset="0.03" style="stop-color:#DDDDDD"/>
		<stop  offset="0.08" style="stop-color:#C2C2C2"/>
		<stop  offset="0.64" style="stop-color:#BFBFBF"/>
		<stop  offset="0.95" style="stop-color:#BBBBBB"/>
		<stop  offset="1" style="stop-color:#8A8A8A"/>
	</linearGradient>
	<path fill="url(#SVGID_3_)" d="M174.609,545.519h217.5c1.5,0,2.457,0.016,2.457,0.035l-0.207,9.715c0,0-0.945-0.293-2.313-0.293
		l-217.437,0.293c-1.5,0-2.25-0.309-2.25-0.328v-9.422c0,0,1.109,0,2.477,0H174.609z"/>
	<path fill="#9E9F9F" d="M191.543,31.711h183.75v6h-183.75V31.711z"/>
	<path fill="#9E9F9F" d="M191.543,48.105h183.75v6h-183.75V48.105z"/>
	<path fill="#9E9F9F" d="M191.543,64.5h183.75v6h-183.75V64.5z"/>
	<path fill="#9E9F9F" d="M191.543,80.891h183.75v6h-183.75V80.891z"/>
	<path fill="#9E9F9F" d="M191.543,98.895h183.75v6h-183.75V98.895z"/>
	<path fill="#9E9F9F" d="M191.543,113.676h183.75v6h-183.75V113.676z"/>
	<path fill="#FFFFFF" fill-opacity="0.2314" d="M254.613,184.387l57.75,19.5h-57.75V184.387z"/>
</g>
</svg>
