<?xml version="1.0" encoding="utf-8"?>
<!-- Generator: Adobe Illustrator 16.0.0, SVG Export Plug-In . SVG Version: 6.00 Build 0)  -->
<!DOCTYPE svg PUBLIC "-//W3C//DTD SVG 1.1//EN" "http://www.w3.org/Graphics/SVG/1.1/DTD/svg11.dtd">
<svg preserveAspectRatio="none"   version="1.1" id="图层_1" xmlns="http://www.w3.org/2000/svg" xmlns:xlink="http://www.w3.org/1999/xlink" x="0px" y="0px"
	 width="362.25px" height="561.75px" viewBox="102.387 2.609 362.25 561.75" enable-background="new 102.387 2.609 362.25 561.75"
	 xml:space="preserve">
<g id="surface384">
	
		<linearGradient id="SVGID_1_" gradientUnits="userSpaceOnUse" x1="685.2222" y1="-173.1943" x2="202.2231" y2="-173.1944" gradientTransform="matrix(0.75 0 0 -0.75 -49.2814 153.588)">
		<stop  offset="0" style="stop-color:#A8A8A8"/>
		<stop  offset="0.03" style="stop-color:#F2F2F2"/>
		<stop  offset="0.08" style="stop-color:#DBDBDB"/>
		<stop  offset="0.64" style="stop-color:#D8D8D8"/>
		<stop  offset="0.95" style="stop-color:#D3D3D3"/>
		<stop  offset="1" style="stop-color:#9C9C9C"/>
	</linearGradient>
	<path fill="url(#SVGID_1_)" d="M110.637,2.609h345.75c4.5,0,8.156,3.355,8.156,7.492l0.094,546.757c0,3.75-3.813,7.457-8.289,7.457
		l-345.71,0.043c-4.5,0-8.25-3.395-8.25-7.531V10.109c0-4.5,3.465-7.5,7.941-7.5H110.637z"/>
	
		<linearGradient id="SVGID_2_" gradientUnits="userSpaceOnUse" x1="254.8262" y1="201.4365" x2="254.8262" y2="147.3018" gradientTransform="matrix(0.75 0 0 -0.75 -6.7252 395.4923)">
		<stop  offset="0" style="stop-color:#909191"/>
		<stop  offset="0.02" style="stop-color:#D8D9D9"/>
		<stop  offset="0.08" style="stop-color:#BDBEBE"/>
		<stop  offset="0.64" style="stop-color:#BABABA"/>
		<stop  offset="0.99" style="stop-color:#B5B6B6"/>
		<stop  offset="1" style="stop-color:#868787"/>
	</linearGradient>
	<path fill="url(#SVGID_2_)" d="M153.195,244.516h62.25c4.5,0,8.398,3.57,8.398,8.102l-0.148,24.148c0,4.5-3.484,8.113-7.961,8.113
		l-62.539,0.137c-4.5,0-8.25-3.812-8.25-8.339v-23.91c0-4.5,3.594-8.352,8.074-8.352L153.195,244.516z"/>
	
		<linearGradient id="SVGID_3_" gradientUnits="userSpaceOnUse" x1="239.3936" y1="182.5259" x2="201.9092" y2="182.5259" gradientTransform="matrix(0.75 0 0 -0.75 3.7675 401.5157)">
		<stop  offset="0" style="stop-color:#2D2929"/>
		<stop  offset="0.15" style="stop-color:#5B5858"/>
		<stop  offset="0.25" style="stop-color:#B8B7B7"/>
		<stop  offset="0.52" style="stop-color:#353130"/>
		<stop  offset="0.69" style="stop-color:#2E2A29"/>
		<stop  offset="0.8" style="stop-color:#2B2726"/>
		<stop  offset="0.97" style="stop-color:#282424"/>
		<stop  offset="1" style="stop-color:#2F2B2B"/>
	</linearGradient>
	<path fill="url(#SVGID_3_)" d="M155.438,264.789c0-8.25,6.055-14.387,13.82-14.387c7.93,0.137,14.055,6.363,14.055,14.215
		c-0.125,7.672-6.293,14.219-14.055,14.219c-7.82,0.203-14.059-6.367-14.059-14.219L155.438,264.789z"/>
	
		<linearGradient id="SVGID_4_" gradientUnits="userSpaceOnUse" x1="254.8262" y1="201.4385" x2="254.8262" y2="147.3027" gradientTransform="matrix(0.75 0 0 -0.75 -6.7252 463.2892)">
		<stop  offset="0" style="stop-color:#909191"/>
		<stop  offset="0.02" style="stop-color:#D8D9D9"/>
		<stop  offset="0.08" style="stop-color:#BDBEBE"/>
		<stop  offset="0.64" style="stop-color:#BABABA"/>
		<stop  offset="0.99" style="stop-color:#B5B6B6"/>
		<stop  offset="1" style="stop-color:#868787"/>
	</linearGradient>
	<path fill="url(#SVGID_4_)" d="M153.195,312.312h62.25c4.5,0,8.398,3.57,8.398,8.102l-0.148,24.148c0,4.5-3.484,8.113-7.961,8.113
		l-62.539,0.137c-4.5,0-8.25-3.813-8.25-8.34v-23.91c0-4.5,3.594-8.352,8.074-8.352L153.195,312.312z"/>
	
		<linearGradient id="SVGID_5_" gradientUnits="userSpaceOnUse" x1="239.3936" y1="182.5293" x2="201.9092" y2="182.5293" gradientTransform="matrix(0.75 0 0 -0.75 3.7675 469.3136)">
		<stop  offset="0" style="stop-color:#2D2929"/>
		<stop  offset="0.15" style="stop-color:#5B5858"/>
		<stop  offset="0.25" style="stop-color:#B8B7B7"/>
		<stop  offset="0.52" style="stop-color:#353130"/>
		<stop  offset="0.69" style="stop-color:#2E2A29"/>
		<stop  offset="0.8" style="stop-color:#2B2726"/>
		<stop  offset="0.97" style="stop-color:#282424"/>
		<stop  offset="1" style="stop-color:#2F2B2B"/>
	</linearGradient>
	<path fill="url(#SVGID_5_)" d="M155.438,332.585c0-8.25,6.055-14.387,13.82-14.387c7.93,0.137,14.055,6.363,14.055,14.215
		c-0.125,7.672-6.293,14.219-14.055,14.219c-7.82,0.203-14.059-6.367-14.059-14.219L155.438,332.585z"/>
	
		<linearGradient id="SVGID_6_" gradientUnits="userSpaceOnUse" x1="279.2856" y1="201.4375" x2="279.2856" y2="186.8594" gradientTransform="matrix(0.75 0 0 -0.75 73.3558 216.7384)">
		<stop  offset="0" style="stop-color:#B6B6B6"/>
		<stop  offset="0.15" style="stop-color:#EFEFEF"/>
		<stop  offset="0.25" style="stop-color:#F6F6F6"/>
		<stop  offset="0.52" style="stop-color:#D0D0D0"/>
		<stop  offset="0.69" style="stop-color:#B9B9B9"/>
		<stop  offset="0.8" style="stop-color:#AFAFAF"/>
		<stop  offset="0.97" style="stop-color:#A5A5A5"/>
		<stop  offset="1" style="stop-color:#BEBEBE"/>
	</linearGradient>
	<path fill="url(#SVGID_6_)" d="M230.273,65.762h105c3,0,5.344,2.344,5.344,5.363c-0.094,2.887-2.418,5.469-5.406,5.469
		l-104.937-0.332c-3,0-5.25-2.117-5.25-5.137c0-3.113,2.32-5.465,5.305-5.465L230.273,65.762z"/>
	
		<linearGradient id="SVGID_7_" gradientUnits="userSpaceOnUse" x1="302.3657" y1="201.4395" x2="302.3657" y2="186.8564" gradientTransform="matrix(0.75 0 0 -0.75 56.014 237.7872)">
		<stop  offset="0" style="stop-color:#B6B6B6"/>
		<stop  offset="0.15" style="stop-color:#EFEFEF"/>
		<stop  offset="0.25" style="stop-color:#F6F6F6"/>
		<stop  offset="0.52" style="stop-color:#D0D0D0"/>
		<stop  offset="0.69" style="stop-color:#B9B9B9"/>
		<stop  offset="0.8" style="stop-color:#AFAFAF"/>
		<stop  offset="0.97" style="stop-color:#A5A5A5"/>
		<stop  offset="1" style="stop-color:#BEBEBE"/>
	</linearGradient>
	<path fill="url(#SVGID_7_)" d="M214.434,86.809h136.5c3.75,0,6.961,2.348,6.961,5.367c-0.211,2.883-3.145,5.469-7.023,5.469
		l-136.437-0.336c-3.75,0-6.75-2.113-6.75-5.133c0-3.117,3.012-5.469,6.895-5.469L214.434,86.809z"/>
	
		<linearGradient id="SVGID_8_" gradientUnits="userSpaceOnUse" x1="314.2886" y1="201.4404" x2="314.2886" y2="186.8574" gradientTransform="matrix(0.75 0 0 -0.75 47.0541 280.5109)">
		<stop  offset="0" style="stop-color:#B6B6B6"/>
		<stop  offset="0.15" style="stop-color:#EFEFEF"/>
		<stop  offset="0.25" style="stop-color:#F6F6F6"/>
		<stop  offset="0.52" style="stop-color:#D0D0D0"/>
		<stop  offset="0.69" style="stop-color:#B9B9B9"/>
		<stop  offset="0.8" style="stop-color:#AFAFAF"/>
		<stop  offset="0.97" style="stop-color:#A5A5A5"/>
		<stop  offset="1" style="stop-color:#BEBEBE"/>
	</linearGradient>
	<path fill="url(#SVGID_8_)" d="M206.223,129.531h153c3.75,0,7.598,2.348,7.598,5.367c-0.098,2.883-3.52,5.469-7.859,5.469
		l-152.738-0.336c-4.5,0-7.5-2.113-7.5-5.133c0-3.117,3.371-5.469,7.715-5.469L206.223,129.531z"/>
	
		<linearGradient id="SVGID_9_" gradientUnits="userSpaceOnUse" x1="302.3657" y1="201.4385" x2="302.3657" y2="186.8555" gradientTransform="matrix(0.75 0 0 -0.75 56.014 300.9347)">
		<stop  offset="0" style="stop-color:#B6B6B6"/>
		<stop  offset="0.15" style="stop-color:#EFEFEF"/>
		<stop  offset="0.25" style="stop-color:#F6F6F6"/>
		<stop  offset="0.52" style="stop-color:#D0D0D0"/>
		<stop  offset="0.69" style="stop-color:#B9B9B9"/>
		<stop  offset="0.8" style="stop-color:#AFAFAF"/>
		<stop  offset="0.97" style="stop-color:#A5A5A5"/>
		<stop  offset="1" style="stop-color:#BEBEBE"/>
	</linearGradient>
	<path fill="url(#SVGID_9_)" d="M214.434,149.957h136.5c3.75,0,6.961,2.348,6.961,5.367c-0.211,2.883-3.145,5.469-7.023,5.469
		l-136.437-0.336c-3.75,0-6.75-2.113-6.75-5.133c0-3.117,3.012-5.469,6.895-5.469L214.434,149.957z"/>
	
		<linearGradient id="SVGID_10_" gradientUnits="userSpaceOnUse" x1="279.2856" y1="201.4375" x2="279.2856" y2="186.8594" gradientTransform="matrix(0.75 0 0 -0.75 73.3558 321.9845)">
		<stop  offset="0" style="stop-color:#B6B6B6"/>
		<stop  offset="0.15" style="stop-color:#EFEFEF"/>
		<stop  offset="0.25" style="stop-color:#F6F6F6"/>
		<stop  offset="0.52" style="stop-color:#D0D0D0"/>
		<stop  offset="0.69" style="stop-color:#B9B9B9"/>
		<stop  offset="0.8" style="stop-color:#AFAFAF"/>
		<stop  offset="0.97" style="stop-color:#A5A5A5"/>
		<stop  offset="1" style="stop-color:#BEBEBE"/>
	</linearGradient>
	<path fill="url(#SVGID_10_)" d="M230.273,171.008h105c3,0,5.344,2.344,5.344,5.363c-0.094,2.887-2.418,5.469-5.406,5.469
		l-104.937-0.332c-3,0-5.25-2.117-5.25-5.137c0-3.113,2.32-5.465,5.305-5.465L230.273,171.008z"/>
	
		<linearGradient id="SVGID_11_" gradientUnits="userSpaceOnUse" x1="314.2886" y1="201.4385" x2="314.2886" y2="186.8604" gradientTransform="matrix(0.75 0 0 -0.75 47.0541 258.8361)">
		<stop  offset="0" style="stop-color:#B6B6B6"/>
		<stop  offset="0.15" style="stop-color:#EFEFEF"/>
		<stop  offset="0.25" style="stop-color:#F6F6F6"/>
		<stop  offset="0.52" style="stop-color:#D0D0D0"/>
		<stop  offset="0.69" style="stop-color:#B9B9B9"/>
		<stop  offset="0.8" style="stop-color:#AFAFAF"/>
		<stop  offset="0.97" style="stop-color:#A5A5A5"/>
		<stop  offset="1" style="stop-color:#BEBEBE"/>
	</linearGradient>
	<path fill="url(#SVGID_11_)" d="M206.223,107.859h153c3.75,0,7.598,2.344,7.598,5.367c-0.098,2.883-3.52,5.465-7.859,5.465
		l-152.738-0.332c-4.5,0-7.5-2.113-7.5-5.133c0-3.117,3.371-5.469,7.715-5.469L206.223,107.859z"/>
	<path fill="#717070" stroke="#717070" stroke-width="0.25" stroke-linejoin="bevel" stroke-miterlimit="10" d="M164.629,500.031h3
		c1.5,0,2.301,0.914,2.301,2.039l-0.051,44.461c0,0.75-0.848,1.875-1.961,1.875l-3.289-0.375c-1.5,0-2.25-0.539-2.25-1.664v-44.086
		c0-1.5,0.902-2.25,2.016-2.25H164.629z"/>
	<path fill="#717070" stroke="#717070" stroke-width="0.25" stroke-linejoin="bevel" stroke-miterlimit="10" d="M185.516,500.031h3
		c1.5,0,2.301,0.914,2.301,2.039l-0.051,44.461c0,0.75-0.848,1.875-1.961,1.875l-3.289-0.375c-1.5,0-2.25-0.539-2.25-1.664v-44.086
		c0-1.5,0.902-2.25,2.016-2.25H185.516z"/>
	<path fill="#717070" stroke="#717070" stroke-width="0.25" stroke-linejoin="bevel" stroke-miterlimit="10" d="M206.406,500.031h3
		c1.5,0,2.301,0.914,2.301,2.039l-0.051,44.461c0,0.75-0.852,1.875-1.965,1.875l-3.285-0.375c-1.5,0-2.25-0.539-2.25-1.664v-44.086
		c0-1.5,0.898-2.25,2.012-2.25H206.406z"/>
	<path fill="#717070" stroke="#717070" stroke-width="0.25" stroke-linejoin="bevel" stroke-miterlimit="10" d="M227.293,500.031h3
		c1.5,0,2.301,0.914,2.301,2.039l-0.051,44.461c0,0.75-0.852,1.875-1.965,1.875l-3.285-0.375c-1.5,0-2.25-0.539-2.25-1.664v-44.086
		c0-1.5,0.898-2.25,2.012-2.25H227.293z"/>
	<path fill="#717070" stroke="#717070" stroke-width="0.25" stroke-linejoin="bevel" stroke-miterlimit="10" d="M248.18,500.031h3
		c1.5,0,2.301,0.914,2.301,2.039l-0.051,44.461c0,0.75-0.852,1.875-1.961,1.875l-3.289-0.375c-1.5,0-2.25-0.539-2.25-1.664v-44.086
		c0-1.5,0.902-2.25,2.012-2.25H248.18z"/>
	<path fill="#717070" stroke="#717070" stroke-width="0.25" stroke-linejoin="bevel" stroke-miterlimit="10" d="M269.066,500.031h3
		c1.5,0,2.301,0.914,2.301,2.039l-0.051,44.461c0,0.75-0.852,1.875-1.961,1.875l-3.289-0.375c-1.5,0-2.25-0.539-2.25-1.664v-44.086
		c0-1.5,0.902-2.25,2.016-2.25H269.066z"/>
	<path fill="#717070" stroke="#717070" stroke-width="0.25" stroke-linejoin="bevel" stroke-miterlimit="10" d="M289.953,500.031h3
		c1.5,0,2.301,0.914,2.301,2.039l-0.051,44.461c0,0.75-0.852,1.875-1.961,1.875l-3.289-0.375c-1.5,0-2.25-0.539-2.25-1.664v-44.086
		c0-1.5,0.902-2.25,2.016-2.25H289.953z"/>
	<path fill="#717070" stroke="#717070" stroke-width="0.25" stroke-linejoin="bevel" stroke-miterlimit="10" d="M310.839,500.031h3
		c1.5,0,2.305,0.914,2.305,2.039l-0.055,44.461c0,0.75-0.848,1.875-1.961,1.875l-3.289-0.375c-1.5,0-2.25-0.539-2.25-1.664v-44.086
		c0-1.5,0.902-2.25,2.016-2.25H310.839z"/>
	<path fill="#717070" stroke="#717070" stroke-width="0.25" stroke-linejoin="bevel" stroke-miterlimit="10" d="M331.726,500.031h3
		c1.5,0,2.305,0.914,2.305,2.039l-0.055,44.461c0,0.75-0.848,1.875-1.961,1.875l-3.289-0.375c-1.5,0-2.25-0.539-2.25-1.664v-44.086
		c0-1.5,0.902-2.25,2.016-2.25H331.726z"/>
	<path fill="#717070" stroke="#717070" stroke-width="0.25" stroke-linejoin="bevel" stroke-miterlimit="10" d="M352.617,500.031h3
		c1.5,0,2.301,0.914,2.301,2.039l-0.051,44.461c0,0.75-0.852,1.875-1.965,1.875l-3.285-0.375c-1.5,0-2.25-0.539-2.25-1.664v-44.086
		c0-1.5,0.902-2.25,2.012-2.25H352.617z"/>
	<path fill="#717070" stroke="#717070" stroke-width="0.25" stroke-linejoin="bevel" stroke-miterlimit="10" d="M373.503,500.031h3
		c1.5,0,2.301,0.914,2.301,2.039l-0.051,44.461c0,0.75-0.852,1.875-1.965,1.875l-3.285-0.375c-1.5,0-2.25-0.539-2.25-1.664v-44.086
		c0-1.5,0.902-2.25,2.012-2.25H373.503z"/>
	<path fill="#717070" stroke="#717070" stroke-width="0.25" stroke-linejoin="bevel" stroke-miterlimit="10" d="M394.39,500.031h3
		c1.5,0,2.301,0.914,2.301,2.039l-0.051,44.461c0,0.75-0.852,1.875-1.961,1.875l-3.289-0.375c-1.5,0-2.25-0.539-2.25-1.664v-44.086
		c0-1.5,0.902-2.25,2.016-2.25H394.39z"/>
	
		<linearGradient id="SVGID_12_" gradientUnits="userSpaceOnUse" x1="315.7261" y1="201.3037" x2="315.7261" y2="186.3047" gradientTransform="matrix(0.75 0 0 -0.75 90.4198 424.6769)">
		<stop  offset="0" style="stop-color:#909191"/>
		<stop  offset="0.02" style="stop-color:#D8D9D9"/>
		<stop  offset="0.08" style="stop-color:#BDBEBE"/>
		<stop  offset="0.64" style="stop-color:#BABABA"/>
		<stop  offset="0.99" style="stop-color:#B5B6B6"/>
		<stop  offset="1" style="stop-color:#868787"/>
	</linearGradient>
	<path fill="url(#SVGID_12_)" d="M242.09,273.699h170.25v11.25H242.09V273.699z"/>
	
		<linearGradient id="SVGID_13_" gradientUnits="userSpaceOnUse" x1="315.7251" y1="201.3037" x2="315.7251" y2="186.3037" gradientTransform="matrix(0.75 0 0 -0.75 90.4203 492.4738)">
		<stop  offset="0" style="stop-color:#909191"/>
		<stop  offset="0.02" style="stop-color:#D8D9D9"/>
		<stop  offset="0.08" style="stop-color:#BDBEBE"/>
		<stop  offset="0.64" style="stop-color:#BABABA"/>
		<stop  offset="0.99" style="stop-color:#B5B6B6"/>
		<stop  offset="1" style="stop-color:#868787"/>
	</linearGradient>
	<path fill="url(#SVGID_13_)" d="M242.09,341.496h170.25v11.25H242.09V341.496z"/>
</g>
</svg>
