<?xml version="1.0" encoding="utf-8"?>
<!-- Generator: Adobe Illustrator 16.0.0, SVG Export Plug-In . SVG Version: 6.00 Build 0)  -->
<!DOCTYPE svg PUBLIC "-//W3C//DTD SVG 1.1//EN" "http://www.w3.org/Graphics/SVG/1.1/DTD/svg11.dtd">
<svg preserveAspectRatio="none"   version="1.1" id="图层_1" xmlns="http://www.w3.org/2000/svg" xmlns:xlink="http://www.w3.org/1999/xlink" x="0px" y="0px"
	 width="566.437px" height="357.75px" viewBox="0.246 207.375 566.437 357.75"
	 enable-background="new 0.246 207.375 566.437 357.75" xml:space="preserve">
<g id="surface259">
	
		<linearGradient id="SVGID_1_" gradientUnits="userSpaceOnUse" x1="957.4741" y1="-37.1953" x2="202.2251" y2="-37.1954" gradientTransform="matrix(0.75 0 0 -0.75 -151.4235 358.3527)">
		<stop  offset="0" style="stop-color:#ACB0B2"/>
		<stop  offset="0.03" style="stop-color:#F5FAFC"/>
		<stop  offset="0.08" style="stop-color:#E0E5E7"/>
		<stop  offset="0.64" style="stop-color:#DCE2E3"/>
		<stop  offset="0.95" style="stop-color:#D7DDDE"/>
		<stop  offset="1" style="stop-color:#A0A4A5"/>
	</linearGradient>
	<path fill="url(#SVGID_1_)" d="M2.496,207.375h561.75c1.5,0,2.438,1.063,2.438,2.371l-0.188,353.128c0,1.5-0.934,2.25-2.262,2.25
		H2.496c-1.5,0-2.25-1.063-2.25-2.371V209.625c0-1.5,1.078-2.25,2.406-2.25H2.496z"/>
	<path fill="#595757" stroke="#595757" stroke-linejoin="bevel" stroke-miterlimit="10" d="M434.238,221.453h122.25
		c1.5,0,2.449,1.051,2.449,2.359l-0.199,201.64c0,1.5-0.887,2.566-2.215,2.566l-122.285-0.316c-1.5,0-2.25-0.805-2.25-2.113V223.703
		c0-1.5,0.992-2.25,2.32-2.25H434.238z"/>
	<path fill="#B9BFC0" d="M416.507,207.375h3c0,0-0.254,1.063-0.254,2.371l0.254,353.128c0,1.5-0.258,2.25-0.266,2.25h-2.734
		c0,0,0-1.063,0-2.371V209.625c0-1.5,0.004-2.25,0.012-2.25H416.507z"/>
	<path fill="#9E9F9F" d="M115.918,229.734h279v312.75h-372v-222L115.918,229.734z"/>
	<path fill="#B6C1C5" d="M436.253,444.281h118.5c2.25,0,4.184,1.762,4.184,4.008c0.316-0.258,0,37.672,0,37.672
		c-34.934,34.07-122.359,61.859-122.359,61.859c-2.574-0.039-4.074-1.887-4.074-4.133v-95.656c0-2.25,1.797-3.75,4.074-3.75H436.253
		z"/>
	<path fill="#CDCECE" d="M448.402,221.477h11.25v206.25h-11.25V221.477z"/>
	<path fill="#CDCECE" d="M477.265,221.477h11.25v206.25h-11.25V221.477z"/>
	<path fill="#CDCECE" d="M503.378,221.477h11.25v206.25h-11.25V221.477z"/>
	<path fill="#CDCECE" d="M530.867,221.477h11.25v206.25h-11.25V221.477z"/>
	<path fill="#9E9F9F" d="M431.902,234.586h126.75l-8.25,18h-109.5L431.902,234.586z"/>
	<path fill="#9E9F9F" d="M431.902,262.504h126.75l-8.25,18h-109.5L431.902,262.504z"/>
	<path fill="#9E9F9F" d="M431.902,289.742h126.75l-8.25,18h-109.5L431.902,289.742z"/>
	<path fill="#9E9F9F" d="M431.902,315.792h126.75l-8.25,18h-109.5L431.902,315.792z"/>
	<path fill="#9E9F9F" d="M431.902,344.898h126.75l-8.25,18h-109.5L431.902,344.898z"/>
	<path fill="#9E9F9F" d="M431.902,372.472h126.75l-8.25,18h-109.5L431.902,372.472z"/>
	<path fill="#9E9F9F" d="M431.902,400.05h126.75l-8.25,18h-109.5L431.902,400.05z"/>
	<path fill="#F2F7F9" d="M440.734,448.484h109.5c2.25,0,3.879,1.613,3.879,3.672c-0.129,0.078,0,34.539,0,34.539
		c-32.379,31.539-113.355,56.719-113.355,56.719c-2.273,0.32-3.773-1.73-3.773-3.789v-87.391c0-2.25,1.664-3.75,3.773-3.75H440.734z
		"/>
	
		<linearGradient id="SVGID_2_" gradientUnits="userSpaceOnUse" x1="226.3979" y1="201.3857" x2="226.3979" y2="153.6733" gradientTransform="matrix(0.75 0 0 -0.75 352.5477 617.0187)">
		<stop  offset="0" style="stop-color:#BAC0C1"/>
		<stop  offset="0.15" style="stop-color:#F4FAFC"/>
		<stop  offset="0.25" style="stop-color:#F8FCFD"/>
		<stop  offset="0.52" style="stop-color:#D5DBDD"/>
		<stop  offset="0.69" style="stop-color:#BDC3C4"/>
		<stop  offset="0.8" style="stop-color:#B3B8B9"/>
		<stop  offset="0.97" style="stop-color:#A9AEAF"/>
		<stop  offset="1" style="stop-color:#C2C7C9"/>
	</linearGradient>
	<path fill="url(#SVGID_2_)" stroke="#888889" stroke-linejoin="bevel" stroke-miterlimit="10" d="M504.214,484.039
		c0-9.75,8.094-18.059,18.113-18.059c10.387,0.059,18.148,8.008,18.148,17.887c-0.262,9.922-8.125,17.891-18.148,17.891
		c-9.863,0.281-18.113-8.008-18.113-17.891V484.039z"/>
	
		<linearGradient id="SVGID_3_" gradientUnits="userSpaceOnUse" x1="338.0376" y1="243.7114" x2="325.936" y2="243.7114" gradientTransform="matrix(0.5303 0.5303 0.5303 -0.5303 217.1849 437.1895)">
		<stop  offset="0" style="stop-color:#BAC0C1"/>
		<stop  offset="0.15" style="stop-color:#F4FAFC"/>
		<stop  offset="0.25" style="stop-color:#F8FCFD"/>
		<stop  offset="0.52" style="stop-color:#D5DBDD"/>
		<stop  offset="0.69" style="stop-color:#BDC3C4"/>
		<stop  offset="0.8" style="stop-color:#B3B8B9"/>
		<stop  offset="0.97" style="stop-color:#A9AEAF"/>
		<stop  offset="1" style="stop-color:#C2C7C9"/>
	</linearGradient>
	<path fill="url(#SVGID_3_)" d="M534.722,470.769c2.121,2.121,2.191,4.75,0.594,6.352l-19.688,20.168
		c-1.59,1.59-4.195,1.117-5.793-0.48c-2.16-2.172-1.984-4.578-0.387-6.176l19.969-19.863c1.59-1.59,3.895-1.41,5.492,0.191
		L534.722,470.769z"/>
	
		<linearGradient id="SVGID_4_" gradientUnits="userSpaceOnUse" x1="226.3984" y1="201.3828" x2="226.3984" y2="153.6704" gradientTransform="matrix(0.75 0 0 -0.75 291.4042 628.2911)">
		<stop  offset="0" style="stop-color:#BAC0C1"/>
		<stop  offset="0.15" style="stop-color:#F4FAFC"/>
		<stop  offset="0.25" style="stop-color:#F8FCFD"/>
		<stop  offset="0.52" style="stop-color:#D5DBDD"/>
		<stop  offset="0.69" style="stop-color:#BDC3C4"/>
		<stop  offset="0.8" style="stop-color:#B3B8B9"/>
		<stop  offset="0.97" style="stop-color:#A9AEAF"/>
		<stop  offset="1" style="stop-color:#C2C7C9"/>
	</linearGradient>
	<path fill="url(#SVGID_4_)" stroke="#888889" stroke-linejoin="bevel" stroke-miterlimit="10" d="M443.074,495.312
		c0-9.75,8.09-18.059,18.113-18.059c10.387,0.059,18.145,8.008,18.145,17.887c-0.258,9.922-8.125,17.891-18.145,17.891
		c-9.863,0.281-18.113-8.012-18.113-17.891V495.312z"/>
	
		<linearGradient id="SVGID_5_" gradientUnits="userSpaceOnUse" x1="338.0356" y1="243.709" x2="325.9341" y2="243.709" gradientTransform="matrix(0.5303 0.5303 0.5303 -0.5303 156.0423 448.462)">
		<stop  offset="0" style="stop-color:#BAC0C1"/>
		<stop  offset="0.15" style="stop-color:#F4FAFC"/>
		<stop  offset="0.25" style="stop-color:#F8FCFD"/>
		<stop  offset="0.52" style="stop-color:#D5DBDD"/>
		<stop  offset="0.69" style="stop-color:#BDC3C4"/>
		<stop  offset="0.8" style="stop-color:#B3B8B9"/>
		<stop  offset="0.97" style="stop-color:#A9AEAF"/>
		<stop  offset="1" style="stop-color:#C2C7C9"/>
	</linearGradient>
	<path fill="url(#SVGID_5_)" d="M473.578,482.042c2.121,2.121,2.195,4.75,0.594,6.348l-19.684,20.168
		c-1.59,1.594-4.195,1.121-5.797-0.477c-2.16-2.172-1.984-4.578-0.383-6.18l19.969-19.859c1.59-1.59,3.891-1.41,5.492,0.191
		L473.578,482.042z"/>
	
		<linearGradient id="SVGID_6_" gradientUnits="userSpaceOnUse" x1="338.1089" y1="-21.7832" x2="325.9106" y2="-21.7832" gradientTransform="matrix(0.5303 0.5303 0.5303 -0.5303 65.9466 206.4923)">
		<stop  offset="0" style="stop-color:#BAC0C1"/>
		<stop  offset="0.15" style="stop-color:#F4FAFC"/>
		<stop  offset="0.25" style="stop-color:#F8FCFD"/>
		<stop  offset="0.52" style="stop-color:#D5DBDD"/>
		<stop  offset="0.69" style="stop-color:#BDC3C4"/>
		<stop  offset="0.8" style="stop-color:#B3B8B9"/>
		<stop  offset="0.97" style="stop-color:#A9AEAF"/>
		<stop  offset="1" style="stop-color:#C2C7C9"/>
	</linearGradient>
	<path fill="url(#SVGID_6_)" d="M383.484,240.074l1.059,1.059c1.594,1.594,1.43,3.953-0.125,5.508L82.785,548.195
		c-1.059,1.059-3.793,1.348-5.348-0.207l-1.016-0.855c-1.59-1.59-1.375-4.055,0.18-5.613l301.578-301.445
		c1.59-1.594,3.848-1.457,5.402,0.098L383.484,240.074z"/>
	
		<linearGradient id="SVGID_7_" gradientUnits="userSpaceOnUse" x1="338.1079" y1="22.52" x2="325.9106" y2="22.52" gradientTransform="matrix(0.5303 0.5303 0.5303 -0.5303 65.6458 245.0709)">
		<stop  offset="0" style="stop-color:#BAC0C1"/>
		<stop  offset="0.15" style="stop-color:#F4FAFC"/>
		<stop  offset="0.25" style="stop-color:#F8FCFD"/>
		<stop  offset="0.52" style="stop-color:#D5DBDD"/>
		<stop  offset="0.69" style="stop-color:#BDC3C4"/>
		<stop  offset="0.8" style="stop-color:#B3B8B9"/>
		<stop  offset="0.97" style="stop-color:#A9AEAF"/>
		<stop  offset="1" style="stop-color:#C2C7C9"/>
	</linearGradient>
	<path fill="url(#SVGID_7_)" d="M383.183,278.652l1.059,1.063c1.594,1.59,1.625,3.758,0.305,5.074l-255.39,255.316
		c-1.063,1.059-3.555,1.105-5.109-0.449l-0.727-1.141c-1.59-1.594-1.855-3.578-0.539-4.898L378.41,278.121
		c1.059-1.059,3.316-0.926,4.871,0.629L383.183,278.652z"/>
	
		<linearGradient id="SVGID_8_" gradientUnits="userSpaceOnUse" x1="338.1089" y1="-15.4595" x2="325.9106" y2="-15.4595" gradientTransform="matrix(0.5303 0.5303 0.5303 -0.5303 30.2503 204.5445)">
		<stop  offset="0" style="stop-color:#BAC0C1"/>
		<stop  offset="0.15" style="stop-color:#F4FAFC"/>
		<stop  offset="0.25" style="stop-color:#F8FCFD"/>
		<stop  offset="0.52" style="stop-color:#D5DBDD"/>
		<stop  offset="0.69" style="stop-color:#BDC3C4"/>
		<stop  offset="0.8" style="stop-color:#B3B8B9"/>
		<stop  offset="0.97" style="stop-color:#A9AEAF"/>
		<stop  offset="1" style="stop-color:#C2C7C9"/>
	</linearGradient>
	<path fill="url(#SVGID_8_)" d="M347.789,238.125l1.059,1.063c1.59,1.59,1.457,3.922-0.066,5.445L53.984,539.351
		c-1.59,1.594-4.063,1.617-5.617,0.063l-0.746-1.121c-1.59-1.59-1.672-3.762-0.152-5.285l295.015-294.882
		c1.59-1.59,3.848-1.457,5.402,0.102L347.789,238.125z"/>
	
		<linearGradient id="SVGID_9_" gradientUnits="userSpaceOnUse" x1="338.1079" y1="8.5645" x2="325.9146" y2="8.5645" gradientTransform="matrix(0.5303 0.5303 0.5303 -0.5303 -7.9606 205.2091)">
		<stop  offset="0" style="stop-color:#BAC0C1"/>
		<stop  offset="0.15" style="stop-color:#F4FAFC"/>
		<stop  offset="0.25" style="stop-color:#F8FCFD"/>
		<stop  offset="0.52" style="stop-color:#D5DBDD"/>
		<stop  offset="0.69" style="stop-color:#BDC3C4"/>
		<stop  offset="0.8" style="stop-color:#B3B8B9"/>
		<stop  offset="0.97" style="stop-color:#A9AEAF"/>
		<stop  offset="1" style="stop-color:#C2C7C9"/>
	</linearGradient>
	<path fill="url(#SVGID_9_)" d="M309.578,238.789l1.059,1.063c1.59,1.59,1.563,3.82,0.168,5.211L40.699,515.093
		c-1.063,1.059-3.508,1.063-5.063-0.496l-0.77-1.098c-1.594-1.59-1.754-3.68-0.359-5.074l269.765-269.636
		c1.59-1.59,3.848-1.453,5.402,0.102L309.578,238.789z"/>
	
		<linearGradient id="SVGID_10_" gradientUnits="userSpaceOnUse" x1="338.272" y1="238.2598" x2="325.9771" y2="238.2598" gradientTransform="matrix(0.5303 0.5303 0.5303 -0.5303 65.9427 473.9171)">
		<stop  offset="0" style="stop-color:#BAC0C1"/>
		<stop  offset="0.15" style="stop-color:#F4FAFC"/>
		<stop  offset="0.25" style="stop-color:#F8FCFD"/>
		<stop  offset="0.52" style="stop-color:#D5DBDD"/>
		<stop  offset="0.69" style="stop-color:#BDC3C4"/>
		<stop  offset="0.8" style="stop-color:#B3B8B9"/>
		<stop  offset="0.97" style="stop-color:#A9AEAF"/>
		<stop  offset="1" style="stop-color:#C2C7C9"/>
	</linearGradient>
	<path fill="url(#SVGID_10_)" d="M383.48,507.5l1.059,1.059c1.594,1.59,1.82,3.738,0.574,4.98l-26.559,26.309
		c-1.59,1.59-3.578,1.313-5.137-0.246l-1.227-0.813c-1.594-1.594-1.469-3.898-0.227-5.141l26.742-26.68
		c1.059-1.063,3.398-0.938,4.953,0.617L383.48,507.5z"/>
	
		<linearGradient id="SVGID_11_" gradientUnits="userSpaceOnUse" x1="337.0356" y1="205.4766" x2="325.9263" y2="205.4766" gradientTransform="matrix(0.5303 0.5303 0.5303 -0.5303 66.0052 439.1134)">
		<stop  offset="0" style="stop-color:#BAC0C1"/>
		<stop  offset="0.15" style="stop-color:#F4FAFC"/>
		<stop  offset="0.25" style="stop-color:#F8FCFD"/>
		<stop  offset="0.52" style="stop-color:#D5DBDD"/>
		<stop  offset="0.69" style="stop-color:#BDC3C4"/>
		<stop  offset="0.8" style="stop-color:#B3B8B9"/>
		<stop  offset="0.97" style="stop-color:#A9AEAF"/>
		<stop  offset="1" style="stop-color:#C2C7C9"/>
	</linearGradient>
	<path fill="url(#SVGID_11_)" d="M383.542,472.695c1.59,1.59,1.906,3.934,0.598,5.246l-61.055,61.574
		c-1.063,1.063-3.898,0.855-5.453-0.699c-1.441-1.953-1.754-3.879-0.445-5.188l61.582-61.465c1.059-1.059,3.324-0.918,4.879,0.637
		L383.542,472.695z"/>
	
		<linearGradient id="SVGID_12_" gradientUnits="userSpaceOnUse" x1="338.52" y1="170.1699" x2="325.9243" y2="170.1699" gradientTransform="matrix(0.5303 0.5303 0.5303 -0.5303 65.6702 400.4454)">
		<stop  offset="0" style="stop-color:#BAC0C1"/>
		<stop  offset="0.15" style="stop-color:#F4FAFC"/>
		<stop  offset="0.25" style="stop-color:#F8FCFD"/>
		<stop  offset="0.52" style="stop-color:#D5DBDD"/>
		<stop  offset="0.69" style="stop-color:#BDC3C4"/>
		<stop  offset="0.8" style="stop-color:#B3B8B9"/>
		<stop  offset="0.97" style="stop-color:#A9AEAF"/>
		<stop  offset="1" style="stop-color:#C2C7C9"/>
	</linearGradient>
	<path fill="url(#SVGID_12_)" d="M383.207,434.027l1.063,1.059c1.59,1.594,1.82,3.996,0.414,5.402l-98.527,98.016
		c-1.59,1.59-3.703,1.695-5.261,0.141l-1.102-1.203c-1.59-1.59-1.574-3.848-0.168-5.254l98.277-98.16
		c1.594-1.59,3.855-1.449,5.41,0.105L383.207,434.027z"/>
	
		<linearGradient id="SVGID_13_" gradientUnits="userSpaceOnUse" x1="338.4272" y1="131.6147" x2="326.0347" y2="131.6147" gradientTransform="matrix(0.5303 0.5303 0.5303 -0.5303 65.5374 359.7433)">
		<stop  offset="0" style="stop-color:#BAC0C1"/>
		<stop  offset="0.15" style="stop-color:#F4FAFC"/>
		<stop  offset="0.25" style="stop-color:#F8FCFD"/>
		<stop  offset="0.52" style="stop-color:#D5DBDD"/>
		<stop  offset="0.69" style="stop-color:#BDC3C4"/>
		<stop  offset="0.8" style="stop-color:#B3B8B9"/>
		<stop  offset="0.97" style="stop-color:#A9AEAF"/>
		<stop  offset="1" style="stop-color:#C2C7C9"/>
	</linearGradient>
	<path fill="url(#SVGID_13_)" d="M383.074,393.324l1.063,1.063c1.59,1.59,1.684,4.031,0.203,5.512L245.188,538.636
		c-1.59,1.59-3.813,1.703-5.367,0.148l-0.996-1.211c-1.59-1.59-1.504-3.801-0.023-5.281l138.968-138.969
		c1.594-1.59,3.914-1.391,5.469,0.164L383.074,393.324z"/>
	
		<linearGradient id="SVGID_14_" gradientUnits="userSpaceOnUse" x1="338.3442" y1="95.1924" x2="325.9263" y2="95.1924" gradientTransform="matrix(0.5303 0.5303 0.5303 -0.5303 65.1566 321.7472)">
		<stop  offset="0" style="stop-color:#BAC0C1"/>
		<stop  offset="0.15" style="stop-color:#F4FAFC"/>
		<stop  offset="0.25" style="stop-color:#F8FCFD"/>
		<stop  offset="0.52" style="stop-color:#D5DBDD"/>
		<stop  offset="0.69" style="stop-color:#BDC3C4"/>
		<stop  offset="0.8" style="stop-color:#B3B8B9"/>
		<stop  offset="0.97" style="stop-color:#A9AEAF"/>
		<stop  offset="1" style="stop-color:#C2C7C9"/>
	</linearGradient>
	<path fill="url(#SVGID_14_)" d="M382.695,355.328l1.059,1.059c1.594,1.594,1.633,4.004,0.133,5.5L206.094,539.351
		c-1.59,1.59-3.777,1.586-5.332,0.027l-1.031-1.086c-1.59-1.594-1.496-3.926,0-5.422l177.66-177.543
		c1.59-1.59,3.855-1.449,5.41,0.105L382.695,355.328z"/>
	
		<linearGradient id="SVGID_15_" gradientUnits="userSpaceOnUse" x1="339.0376" y1="58.2163" x2="325.979" y2="58.2163" gradientTransform="matrix(0.5303 0.5303 0.5303 -0.5303 65.8128 282.5504)">
		<stop  offset="0" style="stop-color:#BAC0C1"/>
		<stop  offset="0.15" style="stop-color:#F4FAFC"/>
		<stop  offset="0.25" style="stop-color:#F8FCFD"/>
		<stop  offset="0.52" style="stop-color:#D5DBDD"/>
		<stop  offset="0.69" style="stop-color:#BDC3C4"/>
		<stop  offset="0.8" style="stop-color:#B3B8B9"/>
		<stop  offset="0.97" style="stop-color:#A9AEAF"/>
		<stop  offset="1" style="stop-color:#C2C7C9"/>
	</linearGradient>
	<path fill="url(#SVGID_15_)" d="M383.351,316.132l1.059,1.059c1.59,1.594,1.762,4.195,0.262,5.699L168.566,539.402
		c-1.59,1.59-4.434,1.504-5.988-0.051l-1.438-1.012c-1.59-1.59-1.195-4.164,0.305-5.668l216.601-216.539
		c1.59-1.594,3.883-1.422,5.438,0.133L383.351,316.132z"/>
	
		<linearGradient id="SVGID_16_" gradientUnits="userSpaceOnUse" x1="338.2153" y1="185.7178" x2="326.0356" y2="185.7178" gradientTransform="matrix(0.5303 0.5303 0.5303 -0.5303 -197.1266 204.1173)">
		<stop  offset="0" style="stop-color:#BAC0C1"/>
		<stop  offset="0.15" style="stop-color:#F4FAFC"/>
		<stop  offset="0.25" style="stop-color:#F8FCFD"/>
		<stop  offset="0.52" style="stop-color:#D5DBDD"/>
		<stop  offset="0.69" style="stop-color:#BDC3C4"/>
		<stop  offset="0.8" style="stop-color:#B3B8B9"/>
		<stop  offset="0.97" style="stop-color:#A9AEAF"/>
		<stop  offset="1" style="stop-color:#C2C7C9"/>
	</linearGradient>
	<path fill="url(#SVGID_16_)" d="M120.41,237.699l1.059,1.059c1.594,1.594,1.656,3.844,0.301,5.195l-81.969,81.781
		c-1.594,1.59-3.781,1.449-5.336-0.105l-1.027-0.957c-1.594-1.59-1.477-3.828-0.121-5.184l81.789-81.789
		c1.594-1.59,3.906-1.398,5.461,0.156L120.41,237.699z"/>
	
		<linearGradient id="SVGID_17_" gradientUnits="userSpaceOnUse" x1="338.0356" y1="146.1484" x2="326.0376" y2="146.1484" gradientTransform="matrix(0.5303 0.5303 0.5303 -0.5303 -154.2634 203.5851)">
		<stop  offset="0" style="stop-color:#BAC0C1"/>
		<stop  offset="0.15" style="stop-color:#F4FAFC"/>
		<stop  offset="0.25" style="stop-color:#F8FCFD"/>
		<stop  offset="0.52" style="stop-color:#D5DBDD"/>
		<stop  offset="0.69" style="stop-color:#BDC3C4"/>
		<stop  offset="0.8" style="stop-color:#B3B8B9"/>
		<stop  offset="0.97" style="stop-color:#A9AEAF"/>
		<stop  offset="1" style="stop-color:#C2C7C9"/>
	</linearGradient>
	<path fill="url(#SVGID_17_)" d="M163.273,237.168l0.531,0.527c1.59,1.594,1.957,4.188,0.52,5.625L40.766,367.097
		c-1.59,1.59-4.094,1.355-5.648-0.199l-0.715-0.863c-1.59-1.59-1.484-3.816-0.047-5.254l123.613-123.613
		c1.594-1.594,3.906-1.402,5.461,0.156L163.273,237.168z"/>
	
		<linearGradient id="SVGID_18_" gradientUnits="userSpaceOnUse" x1="338.0366" y1="113.0234" x2="325.9282" y2="113.0234" gradientTransform="matrix(0.5303 0.5303 0.5303 -0.5303 -118.8083 204.0352)">
		<stop  offset="0" style="stop-color:#BAC0C1"/>
		<stop  offset="0.15" style="stop-color:#F4FAFC"/>
		<stop  offset="0.25" style="stop-color:#F8FCFD"/>
		<stop  offset="0.52" style="stop-color:#D5DBDD"/>
		<stop  offset="0.69" style="stop-color:#BDC3C4"/>
		<stop  offset="0.8" style="stop-color:#B3B8B9"/>
		<stop  offset="0.97" style="stop-color:#A9AEAF"/>
		<stop  offset="1" style="stop-color:#C2C7C9"/>
	</linearGradient>
	<path fill="url(#SVGID_18_)" d="M198.727,237.617l1.063,1.059c1.59,1.594,1.477,3.75,0.008,5.219L41.219,402.55
		c-1.59,1.59-4.152,1.555-5.711,0l-0.652-1.063c-1.59-1.59-1.707-3.715-0.238-5.18l158.809-158.691
		c1.59-1.59,3.852-1.449,5.41,0.105L198.727,237.617z"/>
	
		<linearGradient id="SVGID_19_" gradientUnits="userSpaceOnUse" x1="338.0376" y1="77.2183" x2="325.979" y2="77.2183" gradientTransform="matrix(0.5303 0.5303 0.5303 -0.5303 -81.4001 204.1134)">
		<stop  offset="0" style="stop-color:#BAC0C1"/>
		<stop  offset="0.15" style="stop-color:#F4FAFC"/>
		<stop  offset="0.25" style="stop-color:#F8FCFD"/>
		<stop  offset="0.52" style="stop-color:#D5DBDD"/>
		<stop  offset="0.69" style="stop-color:#BDC3C4"/>
		<stop  offset="0.8" style="stop-color:#B3B8B9"/>
		<stop  offset="0.97" style="stop-color:#A9AEAF"/>
		<stop  offset="1" style="stop-color:#C2C7C9"/>
	</linearGradient>
	<path fill="url(#SVGID_19_)" d="M236.137,237.695l1.063,1.059c1.59,1.594,1.465,3.82-0.012,5.297L40.445,440.812
		c-1.059,1.059-3.773,1.234-5.332-0.32l-1.031-0.742c-1.59-1.59-1.309-4.051,0.168-5.531l196.586-196.523
		c1.59-1.59,3.883-1.422,5.438,0.133L236.137,237.695z"/>
	
		<linearGradient id="SVGID_20_" gradientUnits="userSpaceOnUse" x1="338.0396" y1="43.1411" x2="325.9634" y2="43.1411" gradientTransform="matrix(0.5303 0.5303 0.5303 -0.5303 -45.0817 203.8824)">
		<stop  offset="0" style="stop-color:#BAC0C1"/>
		<stop  offset="0.15" style="stop-color:#F4FAFC"/>
		<stop  offset="0.25" style="stop-color:#F8FCFD"/>
		<stop  offset="0.52" style="stop-color:#D5DBDD"/>
		<stop  offset="0.69" style="stop-color:#BDC3C4"/>
		<stop  offset="0.8" style="stop-color:#B3B8B9"/>
		<stop  offset="0.97" style="stop-color:#A9AEAF"/>
		<stop  offset="1" style="stop-color:#C2C7C9"/>
	</linearGradient>
	<path fill="url(#SVGID_20_)" d="M271.926,236.934l1.59,1.59c1.59,1.594,1.426,3.793-0.07,5.289L40.703,476.644
		c-1.594,1.59-3.844,1.621-5.16,0.305l-1.734-1.898c-1.063-1.059-1.004-3.32,0.492-4.813l232.852-232.773
		c1.59-1.594,3.68-1.625,4.996-0.309L271.926,236.934z"/>
	
		<linearGradient id="SVGID_21_" gradientUnits="userSpaceOnUse" x1="338.0337" y1="26.0322" x2="325.9614" y2="26.0322" gradientTransform="matrix(0.5303 0.5303 0.5303 -0.5303 -26.2106 204.0846)">
		<stop  offset="0" style="stop-color:#BAC0C1"/>
		<stop  offset="0.15" style="stop-color:#F4FAFC"/>
		<stop  offset="0.25" style="stop-color:#F8FCFD"/>
		<stop  offset="0.52" style="stop-color:#D5DBDD"/>
		<stop  offset="0.69" style="stop-color:#BDC3C4"/>
		<stop  offset="0.8" style="stop-color:#B3B8B9"/>
		<stop  offset="0.97" style="stop-color:#A9AEAF"/>
		<stop  offset="1" style="stop-color:#C2C7C9"/>
	</linearGradient>
	<path fill="url(#SVGID_21_)" d="M290.796,237.137l1.59,1.59c1.59,1.59,1.336,3.883-0.273,5.492L41.539,494.875
		c-1.59,1.594-3.953,1.738-5.273,0.418l-1.621-2.008c-1.059-1.063-1.02-3.301,0.59-4.91l250.789-250.71
		c1.59-1.59,3.68-1.621,4.996-0.305L290.796,237.137z"/>
	
		<linearGradient id="SVGID_22_" gradientUnits="userSpaceOnUse" x1="338.0376" y1="58.2178" x2="325.9614" y2="58.2178" gradientTransform="matrix(0.5303 0.5303 0.5303 -0.5303 -61.1931 203.4176)">
		<stop  offset="0" style="stop-color:#BAC0C1"/>
		<stop  offset="0.15" style="stop-color:#F4FAFC"/>
		<stop  offset="0.25" style="stop-color:#F8FCFD"/>
		<stop  offset="0.52" style="stop-color:#D5DBDD"/>
		<stop  offset="0.69" style="stop-color:#BDC3C4"/>
		<stop  offset="0.8" style="stop-color:#B3B8B9"/>
		<stop  offset="0.97" style="stop-color:#A9AEAF"/>
		<stop  offset="1" style="stop-color:#C2C7C9"/>
	</linearGradient>
	<path fill="url(#SVGID_22_)" d="M255.813,236.469l1.594,1.59c1.59,1.59,1.504,3.715,0.113,5.105L40.5,460.269
		c-1.059,1.059-3.531,1.309-4.848-0.012l-2.047-1.582c-1.059-1.059-0.773-3.547,0.621-4.941L251.043,237
		c1.59-1.594,3.68-1.625,4.996-0.309L255.813,236.469z"/>
	
		<linearGradient id="SVGID_23_" gradientUnits="userSpaceOnUse" x1="338.0347" y1="93.7168" x2="325.981" y2="93.7168" gradientTransform="matrix(0.5303 0.5303 0.5303 -0.5303 -98.0915 203.1441)">
		<stop  offset="0" style="stop-color:#BAC0C1"/>
		<stop  offset="0.15" style="stop-color:#F4FAFC"/>
		<stop  offset="0.25" style="stop-color:#F8FCFD"/>
		<stop  offset="0.52" style="stop-color:#D5DBDD"/>
		<stop  offset="0.69" style="stop-color:#BDC3C4"/>
		<stop  offset="0.8" style="stop-color:#B3B8B9"/>
		<stop  offset="0.97" style="stop-color:#A9AEAF"/>
		<stop  offset="1" style="stop-color:#C2C7C9"/>
	</linearGradient>
	<path fill="url(#SVGID_23_)" d="M219.445,236.727l1.063,1.059c1.59,1.59,1.566,3.715,0.215,5.066L41.254,422.339
		c-1.59,1.594-3.828,1.289-5.383-0.27l-0.98-0.789c-1.59-1.594-1.465-3.895-0.117-5.246l179.367-179.308
		c1.594-1.594,3.887-1.422,5.441,0.133L219.445,236.727z"/>
	
		<linearGradient id="SVGID_24_" gradientUnits="userSpaceOnUse" x1="338.0356" y1="130.1318" x2="325.9263" y2="130.1318" gradientTransform="matrix(0.5303 0.5303 0.5303 -0.5303 -138.6745 204.9601)">
		<stop  offset="0" style="stop-color:#BAC0C1"/>
		<stop  offset="0.15" style="stop-color:#F4FAFC"/>
		<stop  offset="0.25" style="stop-color:#F8FCFD"/>
		<stop  offset="0.52" style="stop-color:#D5DBDD"/>
		<stop  offset="0.69" style="stop-color:#BDC3C4"/>
		<stop  offset="0.8" style="stop-color:#B3B8B9"/>
		<stop  offset="0.97" style="stop-color:#A9AEAF"/>
		<stop  offset="1" style="stop-color:#C2C7C9"/>
	</linearGradient>
	<path fill="url(#SVGID_24_)" d="M178.863,238.543l1.059,1.059c1.594,1.59,1.605,3.621,0.297,4.93L38.855,385.972
		c-1.063,1.063-3.512,0.91-5.066-0.645l-0.766-0.945c-1.594-1.59-1.727-3.695-0.422-5L174.09,238.012
		c1.059-1.063,3.324-0.918,4.879,0.637L178.863,238.543z"/>
	
		<linearGradient id="SVGID_25_" gradientUnits="userSpaceOnUse" x1="338.0356" y1="168.2158" x2="326.0337" y2="168.2158" gradientTransform="matrix(0.5303 0.5303 0.5303 -0.5303 -178.1335 204.587)">
		<stop  offset="0" style="stop-color:#BAC0C1"/>
		<stop  offset="0.15" style="stop-color:#F4FAFC"/>
		<stop  offset="0.25" style="stop-color:#F8FCFD"/>
		<stop  offset="0.52" style="stop-color:#D5DBDD"/>
		<stop  offset="0.69" style="stop-color:#BDC3C4"/>
		<stop  offset="0.8" style="stop-color:#B3B8B9"/>
		<stop  offset="0.97" style="stop-color:#A9AEAF"/>
		<stop  offset="1" style="stop-color:#C2C7C9"/>
	</linearGradient>
	<path fill="url(#SVGID_25_)" d="M139.402,238.168l0.531,0.531c1.59,1.59,2.164,3.984,0.988,5.156L39.703,345.292
		c-1.063,1.063-3.352,0.613-4.906-0.945l-0.93-0.645c-1.59-1.59-1.496-3.805-0.32-4.98l101.082-101.085
		c1.063-1.059,3.375-0.867,4.93,0.688L139.402,238.168z"/>
	
		<linearGradient id="SVGID_26_" gradientUnits="userSpaceOnUse" x1="338.1089" y1="-8.9082" x2="325.9116" y2="-8.9082" gradientTransform="matrix(0.5303 0.5303 0.5303 -0.5303 11.3118 204.275)">
		<stop  offset="0" style="stop-color:#BAC0C1"/>
		<stop  offset="0.15" style="stop-color:#F4FAFC"/>
		<stop  offset="0.25" style="stop-color:#F8FCFD"/>
		<stop  offset="0.52" style="stop-color:#D5DBDD"/>
		<stop  offset="0.69" style="stop-color:#BDC3C4"/>
		<stop  offset="0.8" style="stop-color:#B3B8B9"/>
		<stop  offset="0.97" style="stop-color:#A9AEAF"/>
		<stop  offset="1" style="stop-color:#C2C7C9"/>
	</linearGradient>
	<path fill="url(#SVGID_26_)" d="M328.847,237.855l1.063,1.063c1.59,1.59,1.484,3.895,0,5.379L41.941,532.187
		c-1.59,1.594-4.008,1.563-5.563,0.008l-0.801-1.066c-1.594-1.59-1.648-3.789-0.16-5.277l288.128-287.996
		c1.59-1.59,3.848-1.457,5.402,0.102L328.847,237.855z"/>
	
		<linearGradient id="SVGID_27_" gradientUnits="userSpaceOnUse" x1="338.1089" y1="-16.2832" x2="325.9106" y2="-16.2832" gradientTransform="matrix(0.5303 0.5303 0.5303 -0.5303 50.8177 204.2735)">
		<stop  offset="0" style="stop-color:#BAC0C1"/>
		<stop  offset="0.15" style="stop-color:#F4FAFC"/>
		<stop  offset="0.25" style="stop-color:#F8FCFD"/>
		<stop  offset="0.52" style="stop-color:#D5DBDD"/>
		<stop  offset="0.69" style="stop-color:#BDC3C4"/>
		<stop  offset="0.8" style="stop-color:#B3B8B9"/>
		<stop  offset="0.97" style="stop-color:#A9AEAF"/>
		<stop  offset="1" style="stop-color:#C2C7C9"/>
	</linearGradient>
	<path fill="url(#SVGID_27_)" d="M368.355,237.855l1.059,1.059c1.594,1.594,1.453,3.93-0.07,5.453L74.023,539.613
		c-1.594,1.59-4.23,1.781-5.785,0.227l-1.109-0.758c-1.594-1.59-1.305-4.133,0.219-5.656l295.703-295.57
		c1.59-1.594,3.848-1.457,5.402,0.098L368.355,237.855z"/>
	
		<linearGradient id="SVGID_28_" gradientUnits="userSpaceOnUse" x1="338.1118" y1="6.1709" x2="325.9106" y2="6.1709" gradientTransform="matrix(0.5303 0.5303 0.5303 -0.5303 64.6732 226.9386)">
		<stop  offset="0" style="stop-color:#BAC0C1"/>
		<stop  offset="0.15" style="stop-color:#F4FAFC"/>
		<stop  offset="0.25" style="stop-color:#F8FCFD"/>
		<stop  offset="0.52" style="stop-color:#D5DBDD"/>
		<stop  offset="0.69" style="stop-color:#BDC3C4"/>
		<stop  offset="0.8" style="stop-color:#B3B8B9"/>
		<stop  offset="0.97" style="stop-color:#A9AEAF"/>
		<stop  offset="1" style="stop-color:#C2C7C9"/>
	</linearGradient>
	<path fill="url(#SVGID_28_)" d="M382.21,260.52l1.059,1.063c1.594,1.59,1.551,3.828,0.148,5.234L111.211,538.941
		c-1.59,1.594-3.922,1.48-5.477-0.074l-0.887-0.984c-1.59-1.59-1.625-3.809-0.223-5.215L376.906,260.52
		c1.594-1.59,3.848-1.457,5.402,0.098L382.21,260.52z"/>
	
		<linearGradient id="SVGID_29_" gradientUnits="userSpaceOnUse" x1="338.1118" y1="41.2178" x2="325.9146" y2="41.2178" gradientTransform="matrix(0.5303 0.5303 0.5303 -0.5303 65.3538 266.1319)">
		<stop  offset="0" style="stop-color:#BAC0C1"/>
		<stop  offset="0.15" style="stop-color:#F4FAFC"/>
		<stop  offset="0.25" style="stop-color:#F8FCFD"/>
		<stop  offset="0.52" style="stop-color:#D5DBDD"/>
		<stop  offset="0.69" style="stop-color:#BDC3C4"/>
		<stop  offset="0.8" style="stop-color:#B3B8B9"/>
		<stop  offset="0.97" style="stop-color:#A9AEAF"/>
		<stop  offset="1" style="stop-color:#C2C7C9"/>
	</linearGradient>
	<path fill="url(#SVGID_29_)" d="M382.89,299.714l1.063,1.059c1.59,1.59,1.703,3.676,0.488,4.895L149.016,541.011
		c-1.59,1.594-3.688,1.242-5.242-0.313l-1.121-0.746c-1.59-1.59-1.547-3.891-0.328-5.105l235.792-235.664
		c1.063-1.063,3.316-0.926,4.871,0.629L382.89,299.714z"/>
	
		<linearGradient id="SVGID_30_" gradientUnits="userSpaceOnUse" x1="339.0356" y1="78.2153" x2="325.9829" y2="78.2153" gradientTransform="matrix(0.5303 0.5303 0.5303 -0.5303 64.7767 304.504)">
		<stop  offset="0" style="stop-color:#BAC0C1"/>
		<stop  offset="0.15" style="stop-color:#F4FAFC"/>
		<stop  offset="0.25" style="stop-color:#F8FCFD"/>
		<stop  offset="0.52" style="stop-color:#D5DBDD"/>
		<stop  offset="0.69" style="stop-color:#BDC3C4"/>
		<stop  offset="0.8" style="stop-color:#B3B8B9"/>
		<stop  offset="0.97" style="stop-color:#A9AEAF"/>
		<stop  offset="1" style="stop-color:#C2C7C9"/>
	</linearGradient>
	<path fill="url(#SVGID_30_)" d="M382.312,338.085l1.063,1.059c1.59,1.594,1.879,4.082,0.52,5.438l-195.683,196.09
		c-1.059,1.059-3.871,0.945-5.426-0.613l-1.469-0.977c-1.59-1.594-1.285-4.078,0.074-5.434l195.621-195.563
		c1.59-1.59,3.883-1.422,5.438,0.137L382.312,338.085z"/>
	
		<linearGradient id="SVGID_31_" gradientUnits="userSpaceOnUse" x1="338.3462" y1="113.2163" x2="325.9243" y2="113.2163" gradientTransform="matrix(0.5303 0.5303 0.5303 -0.5303 66.1175 341.2442)">
		<stop  offset="0" style="stop-color:#BAC0C1"/>
		<stop  offset="0.15" style="stop-color:#F4FAFC"/>
		<stop  offset="0.25" style="stop-color:#F8FCFD"/>
		<stop  offset="0.52" style="stop-color:#D5DBDD"/>
		<stop  offset="0.69" style="stop-color:#BDC3C4"/>
		<stop  offset="0.8" style="stop-color:#B3B8B9"/>
		<stop  offset="0.97" style="stop-color:#A9AEAF"/>
		<stop  offset="1" style="stop-color:#C2C7C9"/>
	</linearGradient>
	<path fill="url(#SVGID_31_)" d="M383.656,374.824l1.059,1.063c1.59,1.59,1.758,3.875,0.418,5.215L226.145,539.757
		c-1.059,1.063-3.488,1.297-5.043-0.262l-1.32-0.797c-1.59-1.594-1.34-4.082,0-5.422l158.57-158.453
		c1.59-1.59,3.852-1.449,5.41,0.105L383.656,374.824z"/>
	
		<linearGradient id="SVGID_32_" gradientUnits="userSpaceOnUse" x1="338.4292" y1="150.7158" x2="326.0366" y2="150.7158" gradientTransform="matrix(0.5303 0.5303 0.5303 -0.5303 65.9398 380.7804)">
		<stop  offset="0" style="stop-color:#BAC0C1"/>
		<stop  offset="0.15" style="stop-color:#F4FAFC"/>
		<stop  offset="0.25" style="stop-color:#F8FCFD"/>
		<stop  offset="0.52" style="stop-color:#D5DBDD"/>
		<stop  offset="0.69" style="stop-color:#BDC3C4"/>
		<stop  offset="0.8" style="stop-color:#B3B8B9"/>
		<stop  offset="0.97" style="stop-color:#A9AEAF"/>
		<stop  offset="1" style="stop-color:#C2C7C9"/>
	</linearGradient>
	<path fill="url(#SVGID_32_)" d="M383.476,414.363l1.063,1.059c1.59,1.594,1.852,3.867,0.582,5.137L265.742,539.519
		c-1.59,1.59-3.531,1.426-5.086-0.129l-1.277-0.93c-1.59-1.594-1.402-3.902-0.129-5.176l119.453-119.453
		c1.063-1.063,3.383-0.859,4.938,0.695L383.476,414.363z"/>
	
		<linearGradient id="SVGID_33_" gradientUnits="userSpaceOnUse" x1="338.521" y1="188.7178" x2="325.9263" y2="188.7178" gradientTransform="matrix(0.5303 0.5303 0.5303 -0.5303 65.8519 419.7901)">
		<stop  offset="0" style="stop-color:#BAC0C1"/>
		<stop  offset="0.15" style="stop-color:#F4FAFC"/>
		<stop  offset="0.25" style="stop-color:#F8FCFD"/>
		<stop  offset="0.52" style="stop-color:#D5DBDD"/>
		<stop  offset="0.69" style="stop-color:#BDC3C4"/>
		<stop  offset="0.8" style="stop-color:#B3B8B9"/>
		<stop  offset="0.97" style="stop-color:#A9AEAF"/>
		<stop  offset="1" style="stop-color:#C2C7C9"/>
	</linearGradient>
	<path fill="url(#SVGID_33_)" d="M383.39,453.371l1.059,1.063c1.59,1.59,2.027,3.789,0.891,4.926l-79.91,79.395
		c-1.059,1.063-3.105,1.102-4.664-0.453l-1.168-1.137c-1.59-1.59-1.734-3.688-0.594-4.828l79.613-79.496
		c1.059-1.059,3.324-0.918,4.879,0.637L383.39,453.371z"/>
	
		<linearGradient id="SVGID_34_" gradientUnits="userSpaceOnUse" x1="337.0376" y1="221.8403" x2="325.9263" y2="221.8403" gradientTransform="matrix(0.5303 0.5303 0.5303 -0.5303 65.5941 455.5743)">
		<stop  offset="0" style="stop-color:#BAC0C1"/>
		<stop  offset="0.15" style="stop-color:#F4FAFC"/>
		<stop  offset="0.25" style="stop-color:#F8FCFD"/>
		<stop  offset="0.52" style="stop-color:#D5DBDD"/>
		<stop  offset="0.69" style="stop-color:#BDC3C4"/>
		<stop  offset="0.8" style="stop-color:#B3B8B9"/>
		<stop  offset="0.97" style="stop-color:#A9AEAF"/>
		<stop  offset="1" style="stop-color:#C2C7C9"/>
	</linearGradient>
	<path fill="url(#SVGID_34_)" d="M383.132,489.156c1.59,1.59,2.176,3.668,1.207,4.633l-44.695,45.219
		c-1.063,1.059-3.496,0.453-5.051-1.102c-1.844-1.551-2.035-3.602-1.066-4.566l45.359-45.246c1.063-1.059,2.797-0.387,4.352,1.168
		L383.132,489.156z"/>
</g>
</svg>
