<?xml version="1.0" encoding="utf-8"?>
<!-- Generator: Adobe Illustrator 16.0.0, SVG Export Plug-In . SVG Version: 6.00 Build 0)  -->
<!DOCTYPE svg PUBLIC "-//W3C//DTD SVG 1.1//EN" "http://www.w3.org/Graphics/SVG/1.1/DTD/svg11.dtd">
<svg preserveAspectRatio="none"   version="1.1" id="图层_1" xmlns="http://www.w3.org/2000/svg" xmlns:xlink="http://www.w3.org/1999/xlink" x="0px" y="0px"
	 width="566.898px" height="149.16px" viewBox="0 191.309 566.898 149.16" enable-background="new 0 191.309 566.898 149.16"
	 xml:space="preserve">
<g id="surface91">
	
		<linearGradient id="SVGID_1_" gradientUnits="userSpaceOnUse" x1="245.7393" y1="201.3018" x2="245.7393" y2="57.8857" gradientTransform="matrix(0.75 0 0 -0.75 191.3417 362.5157)">
		<stop  offset="0" style="stop-color:#C1C2C3"/>
		<stop  offset="0.15" style="stop-color:#FBFDFE"/>
		<stop  offset="0.25" style="stop-color:#FDFEFE"/>
		<stop  offset="0.52" style="stop-color:#DCDEDE"/>
		<stop  offset="0.69" style="stop-color:#C4C5C6"/>
		<stop  offset="0.8" style="stop-color:#B9BABB"/>
		<stop  offset="0.97" style="stop-color:#AEB0B0"/>
		<stop  offset="1" style="stop-color:#C8CACB"/>
	</linearGradient>
	<path fill="url(#SVGID_1_)" d="M345.261,211.539h60.75c1.5,0,2.27,0.988,2.27,2.211l-0.02,102.789c0,1.5-1,2.563-2.258,2.563
		l-60.742-0.313c-1.5,0-2.25-0.676-2.25-1.895V213.789c0-1.5,1.02-2.25,2.277-2.25H345.261z"/>
	
		<linearGradient id="SVGID_2_" gradientUnits="userSpaceOnUse" x1="220.7256" y1="201.3018" x2="220.7256" y2="65.3027" gradientTransform="matrix(0.75 0 0 -0.75 256.6112 366.1993)">
		<stop  offset="0" style="stop-color:#B6B6B6"/>
		<stop  offset="0.15" style="stop-color:#EFEFEF"/>
		<stop  offset="0.25" style="stop-color:#F6F6F6"/>
		<stop  offset="0.52" style="stop-color:#D0D0D0"/>
		<stop  offset="0.69" style="stop-color:#B9B9B9"/>
		<stop  offset="0.8" style="stop-color:#AFAFAF"/>
		<stop  offset="0.97" style="stop-color:#A5A5A5"/>
		<stop  offset="1" style="stop-color:#BEBEBE"/>
	</linearGradient>
	<path fill="url(#SVGID_2_)" d="M408.281,215.223h27.75v102h-27.75V215.223z"/>
	
		<linearGradient id="SVGID_3_" gradientUnits="userSpaceOnUse" x1="293.8042" y1="201.3027" x2="293.8042" y2="32.3037" gradientTransform="matrix(0.75 0 0 -0.75 21.3392 352.9376)">
		<stop  offset="0" style="stop-color:#C1C2C3"/>
		<stop  offset="0.15" style="stop-color:#FBFDFE"/>
		<stop  offset="0.25" style="stop-color:#FDFEFE"/>
		<stop  offset="0.52" style="stop-color:#DCDEDE"/>
		<stop  offset="0.69" style="stop-color:#C4C5C6"/>
		<stop  offset="0.8" style="stop-color:#B9BABB"/>
		<stop  offset="0.97" style="stop-color:#AEB0B0"/>
		<stop  offset="1" style="stop-color:#C8CACB"/>
	</linearGradient>
	<path fill="url(#SVGID_3_)" d="M175.258,201.961h132.75c1.5,0,2.371,0.988,2.371,2.211l-0.121,122.289
		c0,1.5-0.898,2.219-2.156,2.219l-132.843,0.031c-1.5,0-2.25-1.02-2.25-2.238V204.211c0-1.5,1.02-2.25,2.277-2.25H175.258z"/>
	
		<linearGradient id="SVGID_4_" gradientUnits="userSpaceOnUse" x1="230.2275" y1="201.2998" x2="230.2275" y2="5.8164" gradientTransform="matrix(0.75 0 0 -0.75 156.4305 344.0968)">
		<stop  offset="0" style="stop-color:#C1C2C3"/>
		<stop  offset="0.15" style="stop-color:#FBFDFE"/>
		<stop  offset="0.25" style="stop-color:#FDFEFE"/>
		<stop  offset="0.52" style="stop-color:#DCDEDE"/>
		<stop  offset="0.69" style="stop-color:#C4C5C6"/>
		<stop  offset="0.8" style="stop-color:#B9BABB"/>
		<stop  offset="0.97" style="stop-color:#AEB0B0"/>
		<stop  offset="1" style="stop-color:#C8CACB"/>
	</linearGradient>
	<path fill="url(#SVGID_4_)" d="M310.351,193.121h37.5c0.75,0,1.988,0.988,1.988,2.207l0.262,142.542
		c0,0.75-1.277,1.863-2.535,1.863l-37.215-0.363c-1.5,0-2.25-0.629-2.25-1.848V195.371c0-1.5,1.02-2.25,2.273-2.25H310.351z"/>
	
		<linearGradient id="SVGID_5_" gradientUnits="userSpaceOnUse" x1="229.7275" y1="201.3027" x2="229.7275" y2="68.3037" gradientTransform="matrix(0.75 0 0 -0.75 -19.6437 366.5675)">
		<stop  offset="0" style="stop-color:#B6B6B6"/>
		<stop  offset="0.15" style="stop-color:#EFEFEF"/>
		<stop  offset="0.25" style="stop-color:#F6F6F6"/>
		<stop  offset="0.52" style="stop-color:#D0D0D0"/>
		<stop  offset="0.69" style="stop-color:#B9B9B9"/>
		<stop  offset="0.8" style="stop-color:#AFAFAF"/>
		<stop  offset="0.97" style="stop-color:#A5A5A5"/>
		<stop  offset="1" style="stop-color:#BEBEBE"/>
	</linearGradient>
	<path fill="url(#SVGID_5_)" d="M173.277,215.59h-41.25v99.75h41.25V215.59z"/>
	
		<linearGradient id="SVGID_6_" gradientUnits="userSpaceOnUse" x1="303.9233" y1="201.3027" x2="303.9233" y2="3.8555" gradientTransform="matrix(0.75 0 0 -0.75 -151.6691 342.2853)">
		<stop  offset="0" style="stop-color:#C1C2C3"/>
		<stop  offset="0.15" style="stop-color:#FBFDFE"/>
		<stop  offset="0.25" style="stop-color:#FDFEFE"/>
		<stop  offset="0.52" style="stop-color:#DCDEDE"/>
		<stop  offset="0.69" style="stop-color:#C4C5C6"/>
		<stop  offset="0.8" style="stop-color:#B9BABB"/>
		<stop  offset="0.97" style="stop-color:#AEB0B0"/>
		<stop  offset="1" style="stop-color:#C8CACB"/>
	</linearGradient>
	<path fill="url(#SVGID_6_)" d="M0,265.559c0-41.25,34.148-74.25,76.273-74.25c42.227,0,76.273,33.148,76.273,74.043
		c-0.297,40.707-34.148,74.042-76.273,74.042C34.5,339.058,0,306.246,0,265.352V265.559z"/>
	<path fill="#C1C2C3" d="M14.168,265.063c0-33,27.805-60,62.105-60c34.645,0,62.105,26.992,62.105,60.289
		c0.289,33.46-27.805,60.289-62.105,60.289c-34.355,0.172-62.105-26.992-62.105-60.289V265.063z"/>
	
		<linearGradient id="SVGID_7_" gradientUnits="userSpaceOnUse" x1="268.9321" y1="201.3027" x2="268.9321" y2="71.7871" gradientTransform="matrix(0.75 0 0 -0.75 -125.4259 367.7618)">
		<stop  offset="0" style="stop-color:#C1C2C3"/>
		<stop  offset="0.15" style="stop-color:#FBFDFE"/>
		<stop  offset="0.25" style="stop-color:#FDFEFE"/>
		<stop  offset="0.52" style="stop-color:#DCDEDE"/>
		<stop  offset="0.69" style="stop-color:#C4C5C6"/>
		<stop  offset="0.8" style="stop-color:#B9BABB"/>
		<stop  offset="0.97" style="stop-color:#AEB0B0"/>
		<stop  offset="1" style="stop-color:#C8CACB"/>
	</linearGradient>
	<path fill="url(#SVGID_7_)" d="M26.242,265.535c0-27,22.402-48.75,50.031-48.75c27.969,0,50.031,21.742,50.031,48.566
		c-0.313,27.183-22.398,48.566-50.031,48.566c-27.531,0.367-50.031-21.742-50.031-48.566V265.535z"/>
	<path fill="#FFFFFF" d="M42.387,265.457c0-18,15.172-33,33.887-33c18.613,0,33.887,14.727,33.887,32.895
		c-0.273,18.105-15.172,32.894-33.887,32.894c-18.887,0.211-33.887-14.726-33.887-32.894V265.457z"/>
	
		<linearGradient id="SVGID_8_" gradientUnits="userSpaceOnUse" x1="303.9224" y1="201.3027" x2="303.9224" y2="3.8555" gradientTransform="matrix(0.75 0 0 -0.75 262.6825 343.3595)">
		<stop  offset="0" style="stop-color:#C1C2C3"/>
		<stop  offset="0.15" style="stop-color:#FBFDFE"/>
		<stop  offset="0.25" style="stop-color:#FDFEFE"/>
		<stop  offset="0.52" style="stop-color:#DCDEDE"/>
		<stop  offset="0.69" style="stop-color:#C4C5C6"/>
		<stop  offset="0.8" style="stop-color:#B9BABB"/>
		<stop  offset="0.97" style="stop-color:#AEB0B0"/>
		<stop  offset="1" style="stop-color:#C8CACB"/>
	</linearGradient>
	<path fill="url(#SVGID_8_)" d="M414.351,266.633c0-41.25,34.148-74.25,76.273-74.25c42.227,0,76.273,33.148,76.273,74.043
		c-0.297,40.707-34.148,74.042-76.273,74.042c-41.773-0.336-76.273-33.148-76.273-74.042V266.633z"/>
	<path fill="#C1C2C3" d="M428.519,266.137c0-33,27.805-60,62.105-60c34.645,0,62.105,26.992,62.105,60.289
		c0.289,33.46-27.805,60.292-62.105,60.292c-34.355,0.168-62.105-26.996-62.105-60.292V266.137z"/>
	
		<linearGradient id="SVGID_9_" gradientUnits="userSpaceOnUse" x1="268.9316" y1="201.3027" x2="268.9316" y2="71.7871" gradientTransform="matrix(0.75 0 0 -0.75 288.9257 368.8361)">
		<stop  offset="0" style="stop-color:#C1C2C3"/>
		<stop  offset="0.15" style="stop-color:#FBFDFE"/>
		<stop  offset="0.25" style="stop-color:#FDFEFE"/>
		<stop  offset="0.52" style="stop-color:#DCDEDE"/>
		<stop  offset="0.69" style="stop-color:#C4C5C6"/>
		<stop  offset="0.8" style="stop-color:#B9BABB"/>
		<stop  offset="0.97" style="stop-color:#AEB0B0"/>
		<stop  offset="1" style="stop-color:#C8CACB"/>
	</linearGradient>
	<path fill="url(#SVGID_9_)" d="M440.593,266.609c0-27,22.402-48.75,50.031-48.75c27.969,0,50.031,21.742,50.031,48.566
		c-0.313,27.183-22.398,48.566-50.031,48.566c-27.531,0.367-50.031-21.742-50.031-48.566V266.609z"/>
	<path fill="#FFFFFF" d="M456.738,266.531c0-18,15.172-33,33.887-33c18.613,0,33.887,14.727,33.887,32.895
		c-0.273,18.105-15.172,32.894-33.887,32.894c-18.887,0.211-33.887-14.727-33.887-32.894V266.531z"/>
	
		<linearGradient id="SVGID_10_" gradientUnits="userSpaceOnUse" x1="204.2246" y1="201.3018" x2="204.2246" y2="58.3018" gradientTransform="matrix(0.75 0 0 -0.75 198.077 362.5157)">
		<stop  offset="0" style="stop-color:#9D9D9D"/>
		<stop  offset="0.15" style="stop-color:#D0D1D1"/>
		<stop  offset="0.25" style="stop-color:#E5E6E6"/>
		<stop  offset="0.52" style="stop-color:#B3B4B4"/>
		<stop  offset="0.69" style="stop-color:#9FA0A0"/>
		<stop  offset="0.8" style="stop-color:#969797"/>
		<stop  offset="0.97" style="stop-color:#8E8E8E"/>
		<stop  offset="1" style="stop-color:#A3A4A4"/>
	</linearGradient>
	<path fill="url(#SVGID_10_)" d="M349.746,211.539h3v107.25h-3V211.539z"/>
	
		<linearGradient id="SVGID_11_" gradientUnits="userSpaceOnUse" x1="204.2227" y1="201.3027" x2="204.2227" y2="32.3037" gradientTransform="matrix(0.75 0 0 -0.75 153.1415 352.9376)">
		<stop  offset="0" style="stop-color:#9D9D9D"/>
		<stop  offset="0.15" style="stop-color:#D0D1D1"/>
		<stop  offset="0.25" style="stop-color:#E5E6E6"/>
		<stop  offset="0.52" style="stop-color:#B3B4B4"/>
		<stop  offset="0.69" style="stop-color:#9FA0A0"/>
		<stop  offset="0.8" style="stop-color:#969797"/>
		<stop  offset="0.97" style="stop-color:#8E8E8E"/>
		<stop  offset="1" style="stop-color:#A3A4A4"/>
	</linearGradient>
	<path fill="url(#SVGID_11_)" d="M304.808,201.961h3v126.75h-3V201.961z"/>
	
		<linearGradient id="SVGID_12_" gradientUnits="userSpaceOnUse" x1="204.2251" y1="201.3027" x2="204.2251" y2="68.3037" gradientTransform="matrix(0.75 0 0 -0.75 18.0502 366.5675)">
		<stop  offset="0" style="stop-color:#9D9D9D"/>
		<stop  offset="0.15" style="stop-color:#D0D1D1"/>
		<stop  offset="0.25" style="stop-color:#E5E6E6"/>
		<stop  offset="0.52" style="stop-color:#B3B4B4"/>
		<stop  offset="0.69" style="stop-color:#9FA0A0"/>
		<stop  offset="0.8" style="stop-color:#969797"/>
		<stop  offset="0.97" style="stop-color:#8E8E8E"/>
		<stop  offset="1" style="stop-color:#A3A4A4"/>
	</linearGradient>
	<path fill="url(#SVGID_12_)" d="M169.719,215.59h3v99.75h-3V215.59z"/>
	
		<linearGradient id="SVGID_13_" gradientUnits="userSpaceOnUse" x1="204.2231" y1="201.3027" x2="204.2231" y2="65.3037" gradientTransform="matrix(0.75 0 0 -0.75 256.4843 366.5675)">
		<stop  offset="0" style="stop-color:#9D9D9D"/>
		<stop  offset="0.15" style="stop-color:#D0D1D1"/>
		<stop  offset="0.25" style="stop-color:#E5E6E6"/>
		<stop  offset="0.52" style="stop-color:#B3B4B4"/>
		<stop  offset="0.69" style="stop-color:#9FA0A0"/>
		<stop  offset="0.8" style="stop-color:#969797"/>
		<stop  offset="0.97" style="stop-color:#8E8E8E"/>
		<stop  offset="1" style="stop-color:#A3A4A4"/>
	</linearGradient>
	<path fill="url(#SVGID_13_)" d="M408.152,215.59h3v102h-3V215.59z"/>
</g>
</svg>
