<?xml version="1.0" encoding="utf-8"?>
<!-- Generator: Adobe Illustrator 16.0.0, SVG Export Plug-In . SVG Version: 6.00 Build 0)  -->
<!DOCTYPE svg PUBLIC "-//W3C//DTD SVG 1.1//EN" "http://www.w3.org/Graphics/SVG/1.1/DTD/svg11.dtd">
<svg preserveAspectRatio="none"   version="1.1" id="图层_1" xmlns="http://www.w3.org/2000/svg" xmlns:xlink="http://www.w3.org/1999/xlink" x="0px" y="0px"
	 width="245.25px" height="563.968px" viewBox="160.719 1.484 245.25 563.968"
	 enable-background="new 160.719 1.484 245.25 563.968" xml:space="preserve">
<g id="surface304">
	
		<linearGradient id="SVGID_1_" gradientUnits="userSpaceOnUse" x1="218.2266" y1="161.8047" x2="202.2266" y2="161.8047" gradientTransform="matrix(0.75 0 0 -0.75 23.3412 152.462)">
		<stop  offset="0" style="stop-color:#A6A6A5"/>
		<stop  offset="0.15" style="stop-color:#E2E2E1"/>
		<stop  offset="0.25" style="stop-color:#EFEFEE"/>
		<stop  offset="0.52" style="stop-color:#C4C4C3"/>
		<stop  offset="0.69" style="stop-color:#AEAEAE"/>
		<stop  offset="0.8" style="stop-color:#A4A4A4"/>
		<stop  offset="0.92" style="stop-color:#9B9B9A"/>
		<stop  offset="1" style="stop-color:#B2B2B2"/>
	</linearGradient>
	<path fill="url(#SVGID_1_)" d="M175.012,60.734h12V1.484h-12V60.734z"/>
	
		<linearGradient id="SVGID_2_" gradientUnits="userSpaceOnUse" x1="218.2261" y1="161.8047" x2="202.2261" y2="161.8047" gradientTransform="matrix(0.75 0 0 -0.75 229.3807 152.462)">
		<stop  offset="0" style="stop-color:#A6A6A5"/>
		<stop  offset="0.15" style="stop-color:#E2E2E1"/>
		<stop  offset="0.25" style="stop-color:#EFEFEE"/>
		<stop  offset="0.52" style="stop-color:#C4C4C3"/>
		<stop  offset="0.69" style="stop-color:#AEAEAE"/>
		<stop  offset="0.8" style="stop-color:#A4A4A4"/>
		<stop  offset="0.92" style="stop-color:#9B9B9A"/>
		<stop  offset="1" style="stop-color:#B2B2B2"/>
	</linearGradient>
	<path fill="url(#SVGID_2_)" d="M381.05,60.734h12V1.484h-12V60.734z"/>
	
		<linearGradient id="SVGID_3_" gradientUnits="userSpaceOnUse" x1="218.2261" y1="161.8047" x2="202.2261" y2="161.8047" gradientTransform="matrix(0.75 0 0 -0.75 126.3612 152.462)">
		<stop  offset="0" style="stop-color:#A6A6A5"/>
		<stop  offset="0.15" style="stop-color:#E2E2E1"/>
		<stop  offset="0.25" style="stop-color:#EFEFEE"/>
		<stop  offset="0.52" style="stop-color:#C4C4C3"/>
		<stop  offset="0.69" style="stop-color:#AEAEAE"/>
		<stop  offset="0.8" style="stop-color:#A4A4A4"/>
		<stop  offset="0.92" style="stop-color:#9B9B9A"/>
		<stop  offset="1" style="stop-color:#B2B2B2"/>
	</linearGradient>
	<path fill="url(#SVGID_3_)" d="M278.031,60.734h12V1.484h-12V60.734z"/>
	
		<linearGradient id="SVGID_4_" gradientUnits="userSpaceOnUse" x1="345.2241" y1="201.3037" x2="345.2241" y2="197.3037" gradientTransform="matrix(0.75 0 0 -0.75 25.4252 166.3146)">
		<stop  offset="0" style="stop-color:#A6A6A5"/>
		<stop  offset="0.15" style="stop-color:#E2E2E1"/>
		<stop  offset="0.25" style="stop-color:#EFEFEE"/>
		<stop  offset="0.52" style="stop-color:#C4C4C3"/>
		<stop  offset="0.69" style="stop-color:#AEAEAE"/>
		<stop  offset="0.8" style="stop-color:#A4A4A4"/>
		<stop  offset="0.92" style="stop-color:#9B9B9A"/>
		<stop  offset="1" style="stop-color:#B2B2B2"/>
	</linearGradient>
	<path fill="url(#SVGID_4_)" d="M177.094,15.336v3h214.5v-3H177.094z"/>
	
		<linearGradient id="SVGID_5_" gradientUnits="userSpaceOnUse" x1="345.2241" y1="201.3047" x2="345.2241" y2="197.3047" gradientTransform="matrix(0.75 0 0 -0.75 25.4252 177.3575)">
		<stop  offset="0" style="stop-color:#A6A6A5"/>
		<stop  offset="0.15" style="stop-color:#E2E2E1"/>
		<stop  offset="0.25" style="stop-color:#EFEFEE"/>
		<stop  offset="0.52" style="stop-color:#C4C4C3"/>
		<stop  offset="0.69" style="stop-color:#AEAEAE"/>
		<stop  offset="0.8" style="stop-color:#A4A4A4"/>
		<stop  offset="0.92" style="stop-color:#9B9B9A"/>
		<stop  offset="1" style="stop-color:#B2B2B2"/>
	</linearGradient>
	<path fill="url(#SVGID_5_)" d="M177.094,26.379v3h214.5v-3H177.094z"/>
	
		<linearGradient id="SVGID_6_" gradientUnits="userSpaceOnUse" x1="345.2241" y1="201.3037" x2="345.2241" y2="197.3037" gradientTransform="matrix(0.75 0 0 -0.75 25.4252 188.3995)">
		<stop  offset="0" style="stop-color:#A6A6A5"/>
		<stop  offset="0.15" style="stop-color:#E2E2E1"/>
		<stop  offset="0.25" style="stop-color:#EFEFEE"/>
		<stop  offset="0.52" style="stop-color:#C4C4C3"/>
		<stop  offset="0.69" style="stop-color:#AEAEAE"/>
		<stop  offset="0.8" style="stop-color:#A4A4A4"/>
		<stop  offset="0.92" style="stop-color:#9B9B9A"/>
		<stop  offset="1" style="stop-color:#B2B2B2"/>
	</linearGradient>
	<path fill="url(#SVGID_6_)" d="M177.094,37.422v3h214.5v-3H177.094z"/>
	
		<linearGradient id="SVGID_7_" gradientUnits="userSpaceOnUse" x1="345.2241" y1="201.3018" x2="345.2241" y2="197.3018" gradientTransform="matrix(0.75 0 0 -0.75 25.4252 199.4415)">
		<stop  offset="0" style="stop-color:#A6A6A5"/>
		<stop  offset="0.15" style="stop-color:#E2E2E1"/>
		<stop  offset="0.25" style="stop-color:#EFEFEE"/>
		<stop  offset="0.52" style="stop-color:#C4C4C3"/>
		<stop  offset="0.69" style="stop-color:#AEAEAE"/>
		<stop  offset="0.8" style="stop-color:#A4A4A4"/>
		<stop  offset="0.92" style="stop-color:#9B9B9A"/>
		<stop  offset="1" style="stop-color:#B2B2B2"/>
	</linearGradient>
	<path fill="url(#SVGID_7_)" d="M177.094,48.465v3h214.5v-3H177.094z"/>
	
		<linearGradient id="SVGID_8_" gradientUnits="userSpaceOnUse" x1="345.2241" y1="201.3057" x2="345.2241" y2="197.3057" gradientTransform="matrix(0.75 0 0 -0.75 25.4252 155.2716)">
		<stop  offset="0" style="stop-color:#A6A6A5"/>
		<stop  offset="0.15" style="stop-color:#E2E2E1"/>
		<stop  offset="0.25" style="stop-color:#EFEFEE"/>
		<stop  offset="0.52" style="stop-color:#C4C4C3"/>
		<stop  offset="0.69" style="stop-color:#AEAEAE"/>
		<stop  offset="0.8" style="stop-color:#A4A4A4"/>
		<stop  offset="0.92" style="stop-color:#9B9B9A"/>
		<stop  offset="1" style="stop-color:#B2B2B2"/>
	</linearGradient>
	<path fill="url(#SVGID_8_)" d="M177.094,4.293v3h214.5v-3H177.094z"/>
	
		<linearGradient id="SVGID_9_" gradientUnits="userSpaceOnUse" x1="529.2222" y1="-138.1953" x2="202.2231" y2="-138.1953" gradientTransform="matrix(0.75 0 0 -0.75 9.0511 207.1798)">
		<stop  offset="0" style="stop-color:#316090"/>
		<stop  offset="0.03" style="stop-color:#8AAAD7"/>
		<stop  offset="0.08" style="stop-color:#427FBC"/>
		<stop  offset="0.64" style="stop-color:#417DB9"/>
		<stop  offset="0.95" style="stop-color:#407AB4"/>
		<stop  offset="1" style="stop-color:#2D5985"/>
	</linearGradient>
	<path fill="url(#SVGID_9_)" d="M160.719,56.203h245.25v509.25h-245.25V56.203z"/>
	
		<linearGradient id="SVGID_10_" gradientUnits="userSpaceOnUse" x1="487.2231" y1="90.8052" x2="202.2246" y2="90.8052" gradientTransform="matrix(0.75 0 0 -0.75 25.5419 223.6544)">
		<stop  offset="0" style="stop-color:#AEAEAD"/>
		<stop  offset="0.03" style="stop-color:#F8F8F7"/>
		<stop  offset="0.08" style="stop-color:#E3E3E2"/>
		<stop  offset="0.64" style="stop-color:#DFDFDE"/>
		<stop  offset="0.95" style="stop-color:#DADAD9"/>
		<stop  offset="1" style="stop-color:#A2A2A1"/>
	</linearGradient>
	<path fill="url(#SVGID_10_)" d="M177.211,72.676h213.75v165.75h-213.75V72.676z"/>
	
		<linearGradient id="SVGID_11_" gradientUnits="userSpaceOnUse" x1="487.2231" y1="26.3032" x2="202.2241" y2="26.3032" gradientTransform="matrix(0.75 0 0 -0.75 24.9799 437.5275)">
		<stop  offset="0" style="stop-color:#AEAEAD"/>
		<stop  offset="0.03" style="stop-color:#F8F8F7"/>
		<stop  offset="0.08" style="stop-color:#E3E3E2"/>
		<stop  offset="0.64" style="stop-color:#DFDFDE"/>
		<stop  offset="0.95" style="stop-color:#DADAD9"/>
		<stop  offset="1" style="stop-color:#A2A2A1"/>
	</linearGradient>
	<path fill="url(#SVGID_11_)" d="M176.648,286.55h213.75v262.5h-213.75V286.55z"/>
	
		<linearGradient id="SVGID_12_" gradientUnits="userSpaceOnUse" x1="360.2231" y1="146.3027" x2="202.2231" y2="146.3027" gradientTransform="matrix(0.75 0 0 -0.75 59.2733 267.09)">
		<stop  offset="0" style="stop-color:#316090"/>
		<stop  offset="0.03" style="stop-color:#8AAAD7"/>
		<stop  offset="0.08" style="stop-color:#427FBC"/>
		<stop  offset="0.64" style="stop-color:#417DB9"/>
		<stop  offset="0.95" style="stop-color:#407AB4"/>
		<stop  offset="1" style="stop-color:#2D5985"/>
	</linearGradient>
	<path fill="url(#SVGID_12_)" d="M210.941,116.113h118.5v82.5h-118.5V116.113z"/>
	<path fill="#3E3938" d="M219.188,148.313h32.25v15.75h-32.25V148.313z"/>
	<path fill="#FED372" d="M260.414,176.211h8.25v14.25h-8.25V176.211z"/>
	<path fill="#FED372" d="M279.344,176.211h8.25v14.25h-8.25V176.211z"/>
	<path fill="#FED372" d="M299.062,176.211h8.25v14.25h-8.25V176.211z"/>
	
		<linearGradient id="SVGID_13_" gradientUnits="userSpaceOnUse" x1="217.2246" y1="171.8037" x2="202.2246" y2="171.8037" gradientTransform="matrix(0.75 0 0 -0.75 202.0692 293.3009)">
		<stop  offset="0" style="stop-color:#316090"/>
		<stop  offset="0.03" style="stop-color:#8AAAD7"/>
		<stop  offset="0.08" style="stop-color:#427FBC"/>
		<stop  offset="0.64" style="stop-color:#417DB9"/>
		<stop  offset="0.95" style="stop-color:#407AB4"/>
		<stop  offset="1" style="stop-color:#2D5985"/>
	</linearGradient>
	<path fill="url(#SVGID_13_)" d="M353.738,142.324h11.25v44.25h-11.25V142.324z"/>
	
		<linearGradient id="SVGID_14_" gradientUnits="userSpaceOnUse" x1="217.7026" y1="189.3882" x2="200.9365" y2="199.0681" gradientTransform="matrix(0.75 0 0 -0.75 32.5399 682.6056)">
		<stop  offset="0" style="stop-color:#446387"/>
		<stop  offset="0.15" style="stop-color:#7192BC"/>
		<stop  offset="0.25" style="stop-color:#BDC9DB"/>
		<stop  offset="0.52" style="stop-color:#5175A0"/>
		<stop  offset="0.69" style="stop-color:#47688E"/>
		<stop  offset="0.8" style="stop-color:#436286"/>
		<stop  offset="0.92" style="stop-color:#3F5C7E"/>
		<stop  offset="1" style="stop-color:#496A91"/>
	</linearGradient>
	<path fill="url(#SVGID_14_)" stroke="#3A6890" stroke-width="0.25" stroke-linejoin="bevel" stroke-miterlimit="10" d="
		M184.207,536.878c0-3,2.383-5.25,5.316-5.25s5.316,2.379,5.316,5.316c-0.133,2.934-2.383,5.313-5.316,5.313
		c-3.066-0.129-5.316-2.379-5.316-5.313V536.878z"/>
	
		<linearGradient id="SVGID_15_" gradientUnits="userSpaceOnUse" x1="217.7036" y1="189.3901" x2="200.9375" y2="199.0701" gradientTransform="matrix(0.75 0 0 -0.75 32.5399 444.0138)">
		<stop  offset="0" style="stop-color:#446387"/>
		<stop  offset="0.15" style="stop-color:#7192BC"/>
		<stop  offset="0.25" style="stop-color:#BDC9DB"/>
		<stop  offset="0.52" style="stop-color:#5175A0"/>
		<stop  offset="0.69" style="stop-color:#47688E"/>
		<stop  offset="0.8" style="stop-color:#436286"/>
		<stop  offset="0.92" style="stop-color:#3F5C7E"/>
		<stop  offset="1" style="stop-color:#496A91"/>
	</linearGradient>
	<path fill="url(#SVGID_15_)" stroke="#3A6890" stroke-width="0.25" stroke-linejoin="bevel" stroke-miterlimit="10" d="
		M184.207,298.285c0-3,2.383-5.25,5.316-5.25s5.316,2.383,5.316,5.316c-0.133,2.934-2.383,5.316-5.316,5.316
		c-3.066-0.133-5.316-2.379-5.316-5.316V298.285z"/>
	
		<linearGradient id="SVGID_16_" gradientUnits="userSpaceOnUse" x1="217.7026" y1="189.3906" x2="200.9359" y2="199.0709" gradientTransform="matrix(0.75 0 0 -0.75 220.785 444.0138)">
		<stop  offset="0" style="stop-color:#446387"/>
		<stop  offset="0.15" style="stop-color:#7192BC"/>
		<stop  offset="0.25" style="stop-color:#BDC9DB"/>
		<stop  offset="0.52" style="stop-color:#5175A0"/>
		<stop  offset="0.69" style="stop-color:#47688E"/>
		<stop  offset="0.8" style="stop-color:#436286"/>
		<stop  offset="0.92" style="stop-color:#3F5C7E"/>
		<stop  offset="1" style="stop-color:#496A91"/>
	</linearGradient>
	<path fill="url(#SVGID_16_)" stroke="#3A6890" stroke-width="0.25" stroke-linejoin="bevel" stroke-miterlimit="10" d="
		M372.453,298.285c0-3,2.379-5.25,5.316-5.25c2.934,0,5.313,2.383,5.313,5.316c-0.129,2.934-2.379,5.316-5.313,5.316
		c-3.066-0.133-5.316-2.379-5.316-5.316V298.285z"/>
	
		<linearGradient id="SVGID_17_" gradientUnits="userSpaceOnUse" x1="217.7017" y1="189.3887" x2="200.9349" y2="199.0689" gradientTransform="matrix(0.75 0 0 -0.75 220.785 682.6056)">
		<stop  offset="0" style="stop-color:#446387"/>
		<stop  offset="0.15" style="stop-color:#7192BC"/>
		<stop  offset="0.25" style="stop-color:#BDC9DB"/>
		<stop  offset="0.52" style="stop-color:#5175A0"/>
		<stop  offset="0.69" style="stop-color:#47688E"/>
		<stop  offset="0.8" style="stop-color:#436286"/>
		<stop  offset="0.92" style="stop-color:#3F5C7E"/>
		<stop  offset="1" style="stop-color:#496A91"/>
	</linearGradient>
	<path fill="url(#SVGID_17_)" stroke="#3A6890" stroke-width="0.25" stroke-linejoin="bevel" stroke-miterlimit="10" d="
		M372.453,536.878c0-3,2.379-5.25,5.316-5.25c2.934,0,5.313,2.379,5.313,5.316c-0.129,2.934-2.379,5.313-5.313,5.313
		c-3.066-0.129-5.316-2.379-5.316-5.313V536.878z"/>
	<path fill="#7D040F" stroke="#000000" stroke-width="0.25" stroke-linejoin="bevel" stroke-miterlimit="10" d="M301.839,130.945
		c3.75,0,6.016,2.512,6.016,5.637c-0.016,3.363-2.531,5.633-5.66,5.633c-3.355-0.02-5.645-2.531-5.645-5.633
		c0.039-3.387,2.535-5.648,5.645-5.648L301.839,130.945z"/>
	
		<linearGradient id="SVGID_18_" gradientUnits="userSpaceOnUse" x1="368.6284" y1="403.4058" x2="377.0319" y2="388.8505" gradientTransform="matrix(0 0.75 0.75 0 5.1366 -142.9899)">
		<stop  offset="0" style="stop-color:#9F5153"/>
		<stop  offset="1" style="stop-color:#7B030D"/>
	</linearGradient>
	<path fill="url(#SVGID_18_)" stroke="#FFFFFF" stroke-width="0.25" stroke-linejoin="bevel" stroke-miterlimit="10" d="
		M302.304,131.98c2.25,0,4.512,2.047,4.512,4.602c-0.012,2.898-2.066,4.602-4.621,4.602c-2.891-0.203-4.613-2.066-4.613-4.602
		c0.223-2.352,2.074-4.613,4.613-4.613L302.304,131.98z"/>
	<path fill="#276F71" stroke="#000000" stroke-width="0.25" stroke-linejoin="bevel" stroke-miterlimit="10" d="M287.261,130.945
		c3.75,0,6.016,2.512,6.016,5.637c-0.016,3.363-2.527,5.633-5.66,5.633c-3.355-0.02-5.644-2.531-5.644-5.633
		c0.039-3.387,2.535-5.648,5.644-5.648L287.261,130.945z"/>
	
		<linearGradient id="SVGID_19_" gradientUnits="userSpaceOnUse" x1="368.6294" y1="403.4048" x2="377.0319" y2="388.8513" gradientTransform="matrix(0 0.75 0.75 0 -9.4401 -142.9899)">
		<stop  offset="0" style="stop-color:#91CFD1"/>
		<stop  offset="1" style="stop-color:#49AEB1"/>
	</linearGradient>
	<path fill="url(#SVGID_19_)" stroke="#FFFFFF" stroke-width="0.25" stroke-linejoin="bevel" stroke-miterlimit="10" d="
		M287.73,131.98c2.25,0,4.512,2.047,4.512,4.602c-0.012,2.898-2.066,4.602-4.625,4.602c-2.887-0.203-4.609-2.066-4.609-4.602
		c0.223-2.352,2.07-4.613,4.609-4.613L287.73,131.98z"/>
	<path fill="#7D040F" stroke="#000000" stroke-width="0.25" stroke-linejoin="bevel" stroke-miterlimit="10" d="M316.609,130.945
		c3.75,0,6.016,2.512,6.016,5.637c-0.016,3.363-2.527,5.633-5.66,5.633c-3.355-0.02-5.645-2.531-5.645-5.633
		c0.039-3.387,2.535-5.648,5.645-5.648L316.609,130.945z"/>
	
		<linearGradient id="SVGID_20_" gradientUnits="userSpaceOnUse" x1="368.6304" y1="403.4058" x2="377.0332" y2="388.8517" gradientTransform="matrix(0 0.75 0.75 0 19.9071 -142.9904)">
		<stop  offset="0" style="stop-color:#9F5153"/>
		<stop  offset="1" style="stop-color:#7B030D"/>
	</linearGradient>
	<path fill="url(#SVGID_20_)" stroke="#FFFFFF" stroke-width="0.25" stroke-linejoin="bevel" stroke-miterlimit="10" d="
		M317.078,131.98c2.25,0,4.512,2.047,4.512,4.602c-0.012,2.898-2.066,4.602-4.625,4.602c-2.887-0.203-4.609-2.066-4.609-4.602
		c0.223-2.352,2.07-4.613,4.609-4.613L317.078,131.98z"/>
	<path fill="#276F71" stroke="#000000" stroke-width="0.25" stroke-linejoin="bevel" stroke-miterlimit="10" d="M272.648,130.945
		c3.75,0,6.016,2.512,6.016,5.637c-0.016,3.363-2.531,5.633-5.66,5.633c-3.355-0.02-5.645-2.531-5.645-5.633
		c0.039-3.387,2.535-5.648,5.645-5.648L272.648,130.945z"/>
	
		<linearGradient id="SVGID_21_" gradientUnits="userSpaceOnUse" x1="368.6284" y1="403.4058" x2="377.0314" y2="388.8514" gradientTransform="matrix(0 0.75 0.75 0 -24.0543 -142.9899)">
		<stop  offset="0" style="stop-color:#91CFD1"/>
		<stop  offset="1" style="stop-color:#49AEB1"/>
	</linearGradient>
	<path fill="url(#SVGID_21_)" stroke="#FFFFFF" stroke-width="0.25" stroke-linejoin="bevel" stroke-miterlimit="10" d="
		M273.113,131.98c2.25,0,4.512,2.047,4.512,4.602c-0.012,2.898-2.066,4.602-4.621,4.602c-2.891-0.203-4.609-2.066-4.609-4.602
		c0.219-2.352,2.07-4.613,4.609-4.613L273.113,131.98z"/>
	<path fill="#7D040F" stroke="#000000" stroke-width="0.25" stroke-linejoin="bevel" stroke-miterlimit="10" d="M258.055,130.945
		c3.75,0,6.012,2.512,6.012,5.637c-0.012,3.363-2.527,5.633-5.656,5.633c-3.355-0.02-5.648-2.531-5.648-5.633
		c0.043-3.387,2.539-5.648,5.648-5.648L258.055,130.945z"/>
	
		<linearGradient id="SVGID_22_" gradientUnits="userSpaceOnUse" x1="368.6284" y1="403.4058" x2="377.0309" y2="388.8522" gradientTransform="matrix(0 0.75 0.75 0 -38.65 -142.9899)">
		<stop  offset="0" style="stop-color:#9F5153"/>
		<stop  offset="1" style="stop-color:#7B030D"/>
	</linearGradient>
	<path fill="url(#SVGID_22_)" stroke="#FFFFFF" stroke-width="0.25" stroke-linejoin="bevel" stroke-miterlimit="10" d="
		M258.52,131.98c2.25,0,4.512,2.047,4.512,4.602c-0.012,2.898-2.066,4.602-4.621,4.602c-2.891-0.203-4.613-2.066-4.613-4.602
		c0.223-2.352,2.07-4.613,4.613-4.613L258.52,131.98z"/>
	
		<radialGradient id="SVGID_23_" cx="230.1509" cy="173.373" r="39.4973" gradientTransform="matrix(0.75 0 0 -0.75 148.953 392.1896)" gradientUnits="userSpaceOnUse">
		<stop  offset="0" style="stop-color:#76A2C9"/>
		<stop  offset="0.54" style="stop-color:#7EADD6"/>
		<stop  offset="0.74" style="stop-color:#B4CEEA"/>
		<stop  offset="0.91" style="stop-color:#76A2C9"/>
		<stop  offset="1" style="stop-color:#7EADD6"/>
	</radialGradient>
	<path fill="url(#SVGID_23_)" stroke="#5F89B9" stroke-width="0.25" stroke-linejoin="bevel" stroke-miterlimit="10" d="
		M300.621,262.211c0-11.25,9.379-21,20.945-21c11.305,0,20.945,9.379,20.945,20.949c0.109,11.301-9.379,20.949-20.945,20.949
		c-11.195,0.102-20.945-9.379-20.945-20.949V262.211z"/>
	<path fill="#C6D5E8" stroke="#384E64" stroke-linejoin="bevel" stroke-miterlimit="10" d="M304.406,262.23
		c0-9.75,7.684-17.25,17.16-17.25c9.84,0,17.16,7.691,17.16,17.18c0.18,9.82-7.684,17.184-17.16,17.184
		c-9.66,0.137-17.16-7.691-17.16-17.184V262.23z"/>
	<path fill="#E35020" d="M315.585,269.496c0,0,12.324-20.852,13.434-20.211c1.164,0.926-10.836,21.711-10.836,21.711
		L315.585,269.496z"/>
	<path fill="#4B6884" d="M318.82,262.414c0-1.5,1.23-3,2.746-3c1.754,0,2.746,1.23,2.746,2.746c-0.242,1.754-1.23,2.75-2.746,2.75
		c-1.246-0.246-2.746-1.23-2.746-2.75V262.414z"/>
	<path fill="none" stroke="#000000" stroke-linejoin="bevel" stroke-miterlimit="10" d="M321.117,247.781l-0.004,3.75"/>
	<path fill="none" stroke="#000000" stroke-linejoin="bevel" stroke-miterlimit="10" d="M308.117,261.672l3.75,0.008"/>
	<path fill="none" stroke="#000000" stroke-linejoin="bevel" stroke-miterlimit="10" d="M332.054,261.672l3.75,0.008"/>
	<path fill="none" stroke="#000000" stroke-linejoin="bevel" stroke-miterlimit="10" d="M312.027,252.109l2.648,2.656"/>
	<path fill="none" stroke="#000000" stroke-linejoin="bevel" stroke-miterlimit="10" d="M331.132,252.109l-2.645,2.656"/>
	<path fill="none" stroke="#3F77A8" stroke-linejoin="bevel" stroke-miterlimit="10" d="M315.3,272.223h12.75
		c0.75,0,1.766,0.633,1.766,1.465c-0.266,0.785-0.676,1.758-1.508,1.758l-13.008-0.223c-0.75,0-1.551-0.453-1.551-1.285
		c0.051-0.965,0.672-1.758,1.504-1.758L315.3,272.223z"/>
	<path fill="#FFFFFF" fill-opacity="0.3804" d="M324.773,262.227c0-9-12.719-17.25-3.238-17.25c9.238,0,17.16,7.695,17.16,17.184
		c0.328,9.816-7.684,17.184-17.16,17.184c-9.512,0.133,3.008-7.441,3.008-16.934L324.773,262.227z"/>
	
		<radialGradient id="SVGID_24_" cx="230.1509" cy="173.373" r="39.4979" gradientTransform="matrix(0.75 0 0 -0.75 72.454 392.1896)" gradientUnits="userSpaceOnUse">
		<stop  offset="0" style="stop-color:#76A2C9"/>
		<stop  offset="0.54" style="stop-color:#7EADD6"/>
		<stop  offset="0.74" style="stop-color:#B4CEEA"/>
		<stop  offset="0.91" style="stop-color:#76A2C9"/>
		<stop  offset="1" style="stop-color:#7EADD6"/>
	</radialGradient>
	<path fill="url(#SVGID_24_)" stroke="#5F89B9" stroke-width="0.25" stroke-linejoin="bevel" stroke-miterlimit="10" d="
		M224.121,262.211c0-11.25,9.379-21,20.945-21c11.305,0,20.945,9.379,20.945,20.949c0.109,11.301-9.379,20.949-20.945,20.949
		c-11.195,0.102-20.945-9.379-20.945-20.949V262.211z"/>
	<path fill="#C6D5E8" stroke="#384E64" stroke-linejoin="bevel" stroke-miterlimit="10" d="M227.906,262.23
		c0-9.75,7.684-17.25,17.16-17.25c9.84,0,17.16,7.691,17.16,17.18c0.18,9.82-7.684,17.184-17.16,17.184
		c-9.66,0.137-17.16-7.691-17.16-17.184V262.23z"/>
	<path fill="#E35020" d="M239.086,269.496c0,0,12.324-20.852,13.434-20.211c1.164,0.926-10.836,21.711-10.836,21.711
		L239.086,269.496z"/>
	<path fill="#4B6884" d="M242.32,262.414c0-1.5,1.23-3,2.746-3c1.754,0,2.746,1.23,2.746,2.746c-0.242,1.754-1.227,2.75-2.746,2.75
		c-1.246-0.246-2.746-1.23-2.746-2.75V262.414z"/>
	<path fill="none" stroke="#000000" stroke-linejoin="bevel" stroke-miterlimit="10" d="M244.621,247.781l-0.008,3.75"/>
	<path fill="none" stroke="#000000" stroke-linejoin="bevel" stroke-miterlimit="10" d="M231.617,261.672l3.75,0.008"/>
	<path fill="none" stroke="#000000" stroke-linejoin="bevel" stroke-miterlimit="10" d="M255.555,261.672l3.75,0.008"/>
	<path fill="none" stroke="#000000" stroke-linejoin="bevel" stroke-miterlimit="10" d="M235.531,252.109l2.645,2.656"/>
	<path fill="none" stroke="#000000" stroke-linejoin="bevel" stroke-miterlimit="10" d="M254.637,252.109l-2.648,2.656"/>
	<path fill="none" stroke="#3F77A8" stroke-linejoin="bevel" stroke-miterlimit="10" d="M238.801,272.223h12.75
		c0.75,0,1.766,0.633,1.766,1.465c-0.266,0.785-0.676,1.758-1.508,1.758l-13.008-0.223c-0.75,0-1.551-0.453-1.551-1.285
		c0.051-0.965,0.676-1.758,1.508-1.758L238.801,272.223z"/>
	<path fill="#FFFFFF" fill-opacity="0.3804" d="M248.273,262.227c0-9-12.715-17.25-3.238-17.25c9.238,0,17.16,7.695,17.16,17.184
		c0.328,9.816-7.684,17.184-17.16,17.184c-9.512,0.133,3.008-7.445,3.008-16.934L248.273,262.227z"/>
</g>
</svg>
