<?xml version="1.0" encoding="utf-8"?>
<!-- Generator: Adobe Illustrator 16.0.0, SVG Export Plug-In . SVG Version: 6.00 Build 0)  -->
<!DOCTYPE svg PUBLIC "-//W3C//DTD SVG 1.1//EN" "http://www.w3.org/Graphics/SVG/1.1/DTD/svg11.dtd">
<svg preserveAspectRatio="none"   version="1.1" id="图层_1" xmlns="http://www.w3.org/2000/svg" xmlns:xlink="http://www.w3.org/1999/xlink" x="0px" y="0px"
	 width="567px" height="469.816px" viewBox="-0.035 96.988 567 469.816" enable-background="new -0.035 96.988 567 469.816"
	 xml:space="preserve">
<g id="surface31">
	
		<linearGradient id="SVGID_1_" gradientUnits="userSpaceOnUse" x1="454.2251" y1="-62.1938" x2="202.2251" y2="-62.1939" gradientTransform="matrix(0.75 0 0 -0.75 -151.1774 309.756)">
		<stop  offset="0" style="stop-color:#B5B5B5"/>
		<stop  offset="0.03" style="stop-color:#FFFFFF"/>
		<stop  offset="0.08" style="stop-color:#EBEBEB"/>
		<stop  offset="0.64" style="stop-color:#E7E7E7"/>
		<stop  offset="0.95" style="stop-color:#E2E2E2"/>
		<stop  offset="1" style="stop-color:#A8A8A8"/>
	</linearGradient>
	<path fill="url(#SVGID_1_)" d="M0.492,158.777h189v395.25h-189V158.777z"/>
	
		<linearGradient id="SVGID_2_" gradientUnits="userSpaceOnUse" x1="454.2251" y1="-62.1938" x2="202.2261" y2="-62.1939" gradientTransform="matrix(0.75 0 0 -0.75 37.3612 309.756)">
		<stop  offset="0" style="stop-color:#B5B5B5"/>
		<stop  offset="0.03" style="stop-color:#FFFFFF"/>
		<stop  offset="0.08" style="stop-color:#EBEBEB"/>
		<stop  offset="0.64" style="stop-color:#E7E7E7"/>
		<stop  offset="0.95" style="stop-color:#E2E2E2"/>
		<stop  offset="1" style="stop-color:#A8A8A8"/>
	</linearGradient>
	<path fill="url(#SVGID_2_)" d="M189.031,158.777h189v395.25h-189V158.777z"/>
	
		<linearGradient id="SVGID_3_" gradientUnits="userSpaceOnUse" x1="454.2241" y1="-62.1938" x2="202.2241" y2="-62.1939" gradientTransform="matrix(0.75 0 0 -0.75 226.1512 309.756)">
		<stop  offset="0" style="stop-color:#B5B5B5"/>
		<stop  offset="0.03" style="stop-color:#FFFFFF"/>
		<stop  offset="0.08" style="stop-color:#EBEBEB"/>
		<stop  offset="0.64" style="stop-color:#E7E7E7"/>
		<stop  offset="0.95" style="stop-color:#E2E2E2"/>
		<stop  offset="1" style="stop-color:#A8A8A8"/>
	</linearGradient>
	<path fill="url(#SVGID_3_)" d="M377.82,158.777h189v395.25h-189V158.777z"/>
	
		<linearGradient id="SVGID_4_" gradientUnits="userSpaceOnUse" x1="580.2251" y1="201.3027" x2="580.2251" y2="184.3018" gradientTransform="matrix(0.75 0 0 -0.75 -151.7047 296.8087)">
		<stop  offset="0" style="stop-color:#A8A8A8"/>
		<stop  offset="0.03" style="stop-color:#F2F2F2"/>
		<stop  offset="0.08" style="stop-color:#DBDBDB"/>
		<stop  offset="0.64" style="stop-color:#D8D8D8"/>
		<stop  offset="0.95" style="stop-color:#D3D3D3"/>
		<stop  offset="1" style="stop-color:#9C9C9C"/>
	</linearGradient>
	<path fill="url(#SVGID_4_)" d="M-0.035,158.582h567v-12.75h-567V158.582z"/>
	
		<linearGradient id="SVGID_5_" gradientUnits="userSpaceOnUse" x1="580.2261" y1="201.3027" x2="580.2261" y2="184.3018" gradientTransform="matrix(0.75 0 0 -0.75 -151.7047 705.0304)">
		<stop  offset="0" style="stop-color:#A8A8A8"/>
		<stop  offset="0.03" style="stop-color:#F2F2F2"/>
		<stop  offset="0.08" style="stop-color:#DBDBDB"/>
		<stop  offset="0.64" style="stop-color:#D8D8D8"/>
		<stop  offset="0.95" style="stop-color:#D3D3D3"/>
		<stop  offset="1" style="stop-color:#9C9C9C"/>
	</linearGradient>
	<path fill="url(#SVGID_5_)" d="M-0.035,566.804h567v-12.75h-567V566.804z"/>
	
		<linearGradient id="SVGID_6_" gradientUnits="userSpaceOnUse" x1="454.2251" y1="132.3057" x2="202.2251" y2="132.3056" gradientTransform="matrix(0.75 0 0 -0.75 -151.1774 601.5021)">
		<stop  offset="0" style="stop-color:#9B9B9C"/>
		<stop  offset="0.03" style="stop-color:#E4E4E4"/>
		<stop  offset="0.08" style="stop-color:#CBCBCB"/>
		<stop  offset="0.64" style="stop-color:#C7C7C8"/>
		<stop  offset="0.95" style="stop-color:#C3C3C4"/>
		<stop  offset="1" style="stop-color:#909091"/>
	</linearGradient>
	<path fill="url(#SVGID_6_)" d="M0.492,450.523h189v103.5h-189V450.523z"/>
	
		<linearGradient id="SVGID_7_" gradientUnits="userSpaceOnUse" x1="454.2251" y1="132.3057" x2="202.2261" y2="132.3056" gradientTransform="matrix(0.75 0 0 -0.75 37.3612 601.5021)">
		<stop  offset="0" style="stop-color:#9B9B9C"/>
		<stop  offset="0.03" style="stop-color:#E4E4E4"/>
		<stop  offset="0.08" style="stop-color:#CBCBCB"/>
		<stop  offset="0.64" style="stop-color:#C7C7C8"/>
		<stop  offset="0.95" style="stop-color:#C3C3C4"/>
		<stop  offset="1" style="stop-color:#909091"/>
	</linearGradient>
	<path fill="url(#SVGID_7_)" d="M189.031,450.523h189v103.5h-189V450.523z"/>
	
		<linearGradient id="SVGID_8_" gradientUnits="userSpaceOnUse" x1="454.2241" y1="132.3076" x2="202.2241" y2="132.3076" gradientTransform="matrix(0.75 0 0 -0.75 226.1512 601.5031)">
		<stop  offset="0" style="stop-color:#9B9B9C"/>
		<stop  offset="0.03" style="stop-color:#E4E4E4"/>
		<stop  offset="0.08" style="stop-color:#CBCBCB"/>
		<stop  offset="0.64" style="stop-color:#C7C7C8"/>
		<stop  offset="0.95" style="stop-color:#C3C3C4"/>
		<stop  offset="1" style="stop-color:#909091"/>
	</linearGradient>
	<path fill="url(#SVGID_8_)" d="M377.82,450.523h189v103.5h-189V450.523z"/>
	<path fill="#EEEEEE" d="M7.613,463.441c0-3,2.852-6,6.402-6c3.348,0,6.434,2.855,6.434,6.375c-0.086,3.375-2.879,6.375-6.434,6.375
		c-3.402,0-6.434-2.852-6.434-6.375L7.613,463.441z"/>
	<path fill="#EEEEEE" d="M30.719,463.441c0-3,2.848-6,6.402-6c3.348,0,6.434,2.855,6.434,6.375
		c-0.086,3.375-2.883,6.375-6.434,6.375c-3.402,0-6.434-2.852-6.434-6.375L30.719,463.441z"/>
	<path fill="#EEEEEE" d="M54.992,463.441c0-3,2.852-6,6.402-6c3.348,0,6.434,2.855,6.434,6.375
		c-0.086,3.375-2.879,6.375-6.434,6.375c-3.402,0-6.43-2.852-6.43-6.375L54.992,463.441z"/>
	<path fill="#EEEEEE" d="M76.582,463.441c0-3,2.848-6,6.402-6c3.348,0,6.434,2.855,6.434,6.375
		c-0.086,3.375-2.883,6.375-6.434,6.375c-3.402,0-6.434-2.852-6.434-6.375L76.582,463.441z"/>
	<path fill="#EEEEEE" d="M123.129,463.441c0-3,2.848-6,6.402-6c3.348,0,6.434,2.855,6.434,6.375
		c-0.086,3.375-2.883,6.375-6.434,6.375c-3.402,0-6.434-2.852-6.434-6.375L123.129,463.441z"/>
	<path fill="#EEEEEE" d="M146.23,463.441c0-3,2.848-6,6.402-6c3.348,0,6.434,2.855,6.434,6.375
		c-0.086,3.375-2.883,6.375-6.434,6.375c-3.402,0-6.434-2.852-6.434-6.375L146.23,463.441z"/>
	<path fill="#EEEEEE" d="M100.023,463.441c0-3,2.852-6,6.402-6c3.348,0,6.434,2.855,6.434,6.375
		c-0.086,3.375-2.879,6.375-6.434,6.375c-3.402,0-6.434-2.852-6.434-6.375L100.023,463.441z"/>
	<path fill="#EEEEEE" d="M169.332,463.441c0-3,2.852-6,6.402-6c3.348,0,6.434,2.855,6.434,6.375
		c-0.086,3.375-2.879,6.375-6.434,6.375c-3.402,0-6.434-2.852-6.434-6.375L169.332,463.441z"/>
	<path fill="#EEEEEE" d="M7.613,482.078c0-3,2.852-6,6.402-6c3.348,0,6.434,2.855,6.434,6.375c-0.086,3.375-2.879,6.375-6.434,6.375
		c-3.402,0-6.434-2.855-6.434-6.375L7.613,482.078z"/>
	<path fill="#EEEEEE" d="M30.719,482.078c0-3,2.848-6,6.402-6c3.348,0,6.434,2.855,6.434,6.375
		c-0.086,3.375-2.883,6.375-6.434,6.375c-3.402,0-6.434-2.855-6.434-6.375L30.719,482.078z"/>
	<path fill="#EEEEEE" d="M54.992,482.078c0-3,2.852-6,6.402-6c3.348,0,6.434,2.855,6.434,6.375
		c-0.086,3.375-2.879,6.375-6.434,6.375c-3.402,0-6.43-2.855-6.43-6.375L54.992,482.078z"/>
	<path fill="#EEEEEE" d="M76.582,482.078c0-3,2.848-6,6.402-6c3.348,0,6.434,2.855,6.434,6.375
		c-0.086,3.375-2.883,6.375-6.434,6.375c-3.402,0-6.434-2.855-6.434-6.375L76.582,482.078z"/>
	<path fill="#EEEEEE" d="M123.129,482.078c0-3,2.848-6,6.402-6c3.348,0,6.434,2.855,6.434,6.375
		c-0.086,3.375-2.883,6.375-6.434,6.375c-3.402,0-6.434-2.855-6.434-6.375L123.129,482.078z"/>
	<path fill="#EEEEEE" d="M146.23,482.078c0-3,2.848-6,6.402-6c3.348,0,6.434,2.855,6.434,6.375
		c-0.086,3.375-2.883,6.375-6.434,6.375c-3.402,0-6.434-2.855-6.434-6.375L146.23,482.078z"/>
	<path fill="#EEEEEE" d="M100.023,482.078c0-3,2.852-6,6.402-6c3.348,0,6.434,2.855,6.434,6.375
		c-0.086,3.375-2.879,6.375-6.434,6.375c-3.402,0-6.434-2.855-6.434-6.375L100.023,482.078z"/>
	<path fill="#EEEEEE" d="M169.332,482.078c0-3,2.852-6,6.402-6c3.348,0,6.434,2.855,6.434,6.375
		c-0.086,3.375-2.879,6.375-6.434,6.375c-3.402,0-6.434-2.855-6.434-6.375L169.332,482.078z"/>
	<path fill="#EEEEEE" d="M7.613,502.429c0-3,2.852-6,6.402-6c3.348,0,6.434,2.855,6.434,6.375c-0.086,3.375-2.879,6.375-6.434,6.375
		c-3.402,0-6.434-2.855-6.434-6.375L7.613,502.429z"/>
	<path fill="#EEEEEE" d="M30.719,502.429c0-3,2.848-6,6.402-6c3.348,0,6.434,2.855,6.434,6.375
		c-0.086,3.375-2.883,6.375-6.434,6.375c-3.402,0-6.434-2.855-6.434-6.375L30.719,502.429z"/>
	<path fill="#EEEEEE" d="M54.992,502.429c0-3,2.852-6,6.402-6c3.348,0,6.434,2.855,6.434,6.375
		c-0.086,3.375-2.879,6.375-6.434,6.375c-3.402,0-6.43-2.855-6.43-6.375L54.992,502.429z"/>
	<path fill="#EEEEEE" d="M76.582,502.429c0-3,2.848-6,6.402-6c3.348,0,6.434,2.855,6.434,6.375
		c-0.086,3.375-2.883,6.375-6.434,6.375c-3.402,0-6.434-2.855-6.434-6.375L76.582,502.429z"/>
	<path fill="#EEEEEE" d="M123.129,502.429c0-3,2.848-6,6.402-6c3.348,0,6.434,2.855,6.434,6.375
		c-0.086,3.375-2.883,6.375-6.434,6.375c-3.402,0-6.434-2.855-6.434-6.375L123.129,502.429z"/>
	<path fill="#EEEEEE" d="M146.23,502.429c0-3,2.848-6,6.402-6c3.348,0,6.434,2.855,6.434,6.375
		c-0.086,3.375-2.883,6.375-6.434,6.375c-3.402,0-6.434-2.855-6.434-6.375L146.23,502.429z"/>
	<path fill="#EEEEEE" d="M100.023,502.429c0-3,2.852-6,6.402-6c3.348,0,6.434,2.855,6.434,6.375
		c-0.086,3.375-2.879,6.375-6.434,6.375c-3.402,0-6.434-2.855-6.434-6.375L100.023,502.429z"/>
	<path fill="#EEEEEE" d="M169.332,502.429c0-3,2.852-6,6.402-6c3.348,0,6.434,2.855,6.434,6.375
		c-0.086,3.375-2.879,6.375-6.434,6.375c-3.402,0-6.434-2.855-6.434-6.375L169.332,502.429z"/>
	<path fill="#EEEEEE" d="M7.613,521.902c0-3,2.852-6,6.402-6c3.348,0,6.434,2.852,6.434,6.375c-0.086,3.375-2.879,6.375-6.434,6.375
		c-3.402,0-6.434-2.855-6.434-6.375L7.613,521.902z"/>
	<path fill="#EEEEEE" d="M30.719,521.902c0-3,2.848-6,6.402-6c3.348,0,6.434,2.852,6.434,6.375
		c-0.086,3.375-2.883,6.375-6.434,6.375c-3.402,0-6.434-2.855-6.434-6.375L30.719,521.902z"/>
	<path fill="#EEEEEE" d="M54.992,521.902c0-3,2.852-6,6.402-6c3.348,0,6.434,2.852,6.434,6.375
		c-0.086,3.375-2.879,6.375-6.434,6.375c-3.402,0-6.43-2.855-6.43-6.375L54.992,521.902z"/>
	<path fill="#EEEEEE" d="M76.582,521.902c0-3,2.848-6,6.402-6c3.348,0,6.434,2.852,6.434,6.375
		c-0.086,3.375-2.883,6.375-6.434,6.375c-3.402,0-6.434-2.855-6.434-6.375L76.582,521.902z"/>
	<path fill="#EEEEEE" d="M123.129,521.902c0-3,2.848-6,6.402-6c3.348,0,6.434,2.852,6.434,6.375
		c-0.086,3.375-2.883,6.375-6.434,6.375c-3.402,0-6.434-2.855-6.434-6.375L123.129,521.902z"/>
	<path fill="#EEEEEE" d="M146.23,521.902c0-3,2.848-6,6.402-6c3.348,0,6.434,2.852,6.434,6.375
		c-0.086,3.375-2.883,6.375-6.434,6.375c-3.402,0-6.434-2.855-6.434-6.375L146.23,521.902z"/>
	<path fill="#EEEEEE" d="M100.023,521.902c0-3,2.852-6,6.402-6c3.348,0,6.434,2.852,6.434,6.375
		c-0.086,3.375-2.879,6.375-6.434,6.375c-3.402,0-6.434-2.855-6.434-6.375L100.023,521.902z"/>
	<path fill="#EEEEEE" d="M169.332,521.902c0-3,2.852-6,6.402-6c3.348,0,6.434,2.852,6.434,6.375
		c-0.086,3.375-2.879,6.375-6.434,6.375c-3.402,0-6.434-2.855-6.434-6.375L169.332,521.902z"/>
	<path fill="#EEEEEE" d="M7.613,541.386c0-3,2.852-6,6.402-6c3.348,0,6.434,2.855,6.434,6.375c-0.086,3.375-2.879,6.375-6.434,6.375
		c-3.402,0-6.434-2.855-6.434-6.375L7.613,541.386z"/>
	<path fill="#EEEEEE" d="M30.719,541.386c0-3,2.848-6,6.402-6c3.348,0,6.434,2.855,6.434,6.375
		c-0.086,3.375-2.883,6.375-6.434,6.375c-3.402,0-6.434-2.855-6.434-6.375L30.719,541.386z"/>
	<path fill="#EEEEEE" d="M54.992,541.386c0-3,2.852-6,6.402-6c3.348,0,6.434,2.855,6.434,6.375
		c-0.086,3.375-2.879,6.375-6.434,6.375c-3.402,0-6.43-2.855-6.43-6.375L54.992,541.386z"/>
	<path fill="#EEEEEE" d="M76.582,541.386c0-3,2.848-6,6.402-6c3.348,0,6.434,2.855,6.434,6.375
		c-0.086,3.375-2.883,6.375-6.434,6.375c-3.402,0-6.434-2.855-6.434-6.375L76.582,541.386z"/>
	<path fill="#EEEEEE" d="M123.129,541.386c0-3,2.848-6,6.402-6c3.348,0,6.434,2.855,6.434,6.375
		c-0.086,3.375-2.883,6.375-6.434,6.375c-3.402,0-6.434-2.855-6.434-6.375L123.129,541.386z"/>
	<path fill="#EEEEEE" d="M146.23,541.386c0-3,2.848-6,6.402-6c3.348,0,6.434,2.855,6.434,6.375
		c-0.086,3.375-2.883,6.375-6.434,6.375c-3.402,0-6.434-2.855-6.434-6.375L146.23,541.386z"/>
	<path fill="#EEEEEE" d="M100.023,541.386c0-3,2.852-6,6.402-6c3.348,0,6.434,2.855,6.434,6.375
		c-0.086,3.375-2.879,6.375-6.434,6.375c-3.402,0-6.434-2.855-6.434-6.375L100.023,541.386z"/>
	<path fill="#EEEEEE" d="M169.332,541.386c0-3,2.852-6,6.402-6c3.348,0,6.434,2.855,6.434,6.375
		c-0.086,3.375-2.879,6.375-6.434,6.375c-3.402,0-6.434-2.855-6.434-6.375L169.332,541.386z"/>
	<path fill="#EEEEEE" d="M196.148,462.91c0-3,2.852-6,6.402-6c3.348,0,6.434,2.855,6.434,6.375
		c-0.086,3.375-2.879,6.375-6.434,6.375c-3.402,0-6.434-2.855-6.434-6.375L196.148,462.91z"/>
	<path fill="#EEEEEE" d="M219.254,462.91c0-3,2.848-6,6.402-6c3.348,0,6.434,2.855,6.434,6.375
		c-0.086,3.375-2.883,6.375-6.434,6.375c-3.402,0-6.434-2.855-6.434-6.375L219.254,462.91z"/>
	<path fill="#EEEEEE" d="M243.531,462.91c0-3,2.848-6,6.402-6c3.348,0,6.43,2.855,6.43,6.375c-0.082,3.375-2.879,6.375-6.43,6.375
		c-3.402,0-6.434-2.855-6.434-6.375L243.531,462.91z"/>
	<path fill="#EEEEEE" d="M265.117,462.91c0-3,2.848-6,6.402-6c3.348,0,6.434,2.855,6.434,6.375
		c-0.086,3.375-2.879,6.375-6.434,6.375c-3.402,0-6.434-2.855-6.434-6.375L265.117,462.91z"/>
	<path fill="#EEEEEE" d="M311.664,462.91c0-3,2.848-6,6.402-6c3.348,0,6.434,2.855,6.434,6.375
		c-0.086,3.375-2.883,6.375-6.434,6.375c-3.402,0-6.434-2.855-6.434-6.375L311.664,462.91z"/>
	<path fill="#EEEEEE" d="M334.765,462.91c0-3,2.848-6,6.402-6c3.348,0,6.434,2.855,6.434,6.375
		c-0.086,3.375-2.879,6.375-6.434,6.375c-3.402,0-6.434-2.855-6.434-6.375L334.765,462.91z"/>
	<path fill="#EEEEEE" d="M288.558,462.91c0-3,2.852-6,6.402-6c3.348,0,6.434,2.855,6.434,6.375
		c-0.086,3.375-2.879,6.375-6.434,6.375c-3.402,0-6.43-2.855-6.43-6.375L288.558,462.91z"/>
	<path fill="#EEEEEE" d="M357.867,462.91c0-3,2.852-6,6.402-6c3.348,0,6.434,2.855,6.434,6.375
		c-0.086,3.375-2.879,6.375-6.434,6.375c-3.402,0-6.434-2.855-6.434-6.375L357.867,462.91z"/>
	<path fill="#EEEEEE" d="M196.148,481.546c0-3,2.852-6,6.402-6c3.348,0,6.434,2.852,6.434,6.375
		c-0.086,3.375-2.879,6.375-6.434,6.375c-3.402,0-6.434-2.855-6.434-6.375L196.148,481.546z"/>
	<path fill="#EEEEEE" d="M219.254,481.546c0-3,2.848-6,6.402-6c3.348,0,6.434,2.852,6.434,6.375
		c-0.086,3.375-2.883,6.375-6.434,6.375c-3.402,0-6.434-2.855-6.434-6.375L219.254,481.546z"/>
	<path fill="#EEEEEE" d="M243.531,481.546c0-3,2.848-6,6.402-6c3.348,0,6.43,2.852,6.43,6.375c-0.082,3.375-2.879,6.375-6.43,6.375
		c-3.402,0-6.434-2.855-6.434-6.375L243.531,481.546z"/>
	<path fill="#EEEEEE" d="M265.117,481.546c0-3,2.848-6,6.402-6c3.348,0,6.434,2.852,6.434,6.375
		c-0.086,3.375-2.879,6.375-6.434,6.375c-3.402,0-6.434-2.855-6.434-6.375L265.117,481.546z"/>
	<path fill="#EEEEEE" d="M311.664,481.546c0-3,2.848-6,6.402-6c3.348,0,6.434,2.852,6.434,6.375
		c-0.086,3.375-2.883,6.375-6.434,6.375c-3.402,0-6.434-2.855-6.434-6.375L311.664,481.546z"/>
	<path fill="#EEEEEE" d="M334.765,481.546c0-3,2.848-6,6.402-6c3.348,0,6.434,2.852,6.434,6.375
		c-0.086,3.375-2.879,6.375-6.434,6.375c-3.402,0-6.434-2.855-6.434-6.375L334.765,481.546z"/>
	<path fill="#EEEEEE" d="M288.558,481.546c0-3,2.852-6,6.402-6c3.348,0,6.434,2.852,6.434,6.375
		c-0.086,3.375-2.879,6.375-6.434,6.375c-3.402,0-6.43-2.855-6.43-6.375L288.558,481.546z"/>
	<path fill="#EEEEEE" d="M357.867,481.546c0-3,2.852-6,6.402-6c3.348,0,6.434,2.852,6.434,6.375
		c-0.086,3.375-2.879,6.375-6.434,6.375c-3.402,0-6.434-2.855-6.434-6.375L357.867,481.546z"/>
	<path fill="#EEEEEE" d="M196.148,501.898c0-3,2.852-6,6.402-6c3.348,0,6.434,2.855,6.434,6.375
		c-0.086,3.375-2.879,6.375-6.434,6.375c-3.402,0-6.434-2.855-6.434-6.375L196.148,501.898z"/>
	<path fill="#EEEEEE" d="M219.254,501.898c0-3,2.848-6,6.402-6c3.348,0,6.434,2.855,6.434,6.375
		c-0.086,3.375-2.883,6.375-6.434,6.375c-3.402,0-6.434-2.855-6.434-6.375L219.254,501.898z"/>
	<path fill="#EEEEEE" d="M243.531,501.898c0-3,2.848-6,6.402-6c3.348,0,6.43,2.855,6.43,6.375c-0.082,3.375-2.879,6.375-6.43,6.375
		c-3.402,0-6.434-2.855-6.434-6.375L243.531,501.898z"/>
	<path fill="#EEEEEE" d="M265.117,501.898c0-3,2.848-6,6.402-6c3.348,0,6.434,2.855,6.434,6.375
		c-0.086,3.375-2.879,6.375-6.434,6.375c-3.402,0-6.434-2.855-6.434-6.375L265.117,501.898z"/>
	<path fill="#EEEEEE" d="M311.664,501.898c0-3,2.848-6,6.402-6c3.348,0,6.434,2.855,6.434,6.375
		c-0.086,3.375-2.883,6.375-6.434,6.375c-3.402,0-6.434-2.855-6.434-6.375L311.664,501.898z"/>
	<path fill="#EEEEEE" d="M334.765,501.898c0-3,2.848-6,6.402-6c3.348,0,6.434,2.855,6.434,6.375
		c-0.086,3.375-2.879,6.375-6.434,6.375c-3.402,0-6.434-2.855-6.434-6.375L334.765,501.898z"/>
	<path fill="#EEEEEE" d="M288.558,501.898c0-3,2.852-6,6.402-6c3.348,0,6.434,2.855,6.434,6.375
		c-0.086,3.375-2.879,6.375-6.434,6.375c-3.402,0-6.43-2.855-6.43-6.375L288.558,501.898z"/>
	<path fill="#EEEEEE" d="M357.867,501.898c0-3,2.852-6,6.402-6c3.348,0,6.434,2.855,6.434,6.375
		c-0.086,3.375-2.879,6.375-6.434,6.375c-3.402,0-6.434-2.855-6.434-6.375L357.867,501.898z"/>
	<path fill="#EEEEEE" d="M196.148,521.367c0-3,2.852-6,6.402-6c3.348,0,6.434,2.855,6.434,6.375
		c-0.086,3.375-2.879,6.375-6.434,6.375c-3.402,0-6.434-2.852-6.434-6.375L196.148,521.367z"/>
	<path fill="#EEEEEE" d="M219.254,521.367c0-3,2.848-6,6.402-6c3.348,0,6.434,2.855,6.434,6.375
		c-0.086,3.375-2.883,6.375-6.434,6.375c-3.402,0-6.434-2.852-6.434-6.375L219.254,521.367z"/>
	<path fill="#EEEEEE" d="M243.531,521.367c0-3,2.848-6,6.402-6c3.348,0,6.43,2.855,6.43,6.375c-0.082,3.375-2.879,6.375-6.43,6.375
		c-3.402,0-6.434-2.852-6.434-6.375L243.531,521.367z"/>
	<path fill="#EEEEEE" d="M265.117,521.367c0-3,2.848-6,6.402-6c3.348,0,6.434,2.855,6.434,6.375
		c-0.086,3.375-2.879,6.375-6.434,6.375c-3.402,0-6.434-2.852-6.434-6.375L265.117,521.367z"/>
	<path fill="#EEEEEE" d="M311.664,521.367c0-3,2.848-6,6.402-6c3.348,0,6.434,2.855,6.434,6.375
		c-0.086,3.375-2.883,6.375-6.434,6.375c-3.402,0-6.434-2.852-6.434-6.375L311.664,521.367z"/>
	<path fill="#EEEEEE" d="M334.765,521.367c0-3,2.848-6,6.402-6c3.348,0,6.434,2.855,6.434,6.375
		c-0.086,3.375-2.879,6.375-6.434,6.375c-3.402,0-6.434-2.852-6.434-6.375L334.765,521.367z"/>
	<path fill="#EEEEEE" d="M288.558,521.367c0-3,2.852-6,6.402-6c3.348,0,6.434,2.855,6.434,6.375
		c-0.086,3.375-2.879,6.375-6.434,6.375c-3.402,0-6.43-2.852-6.43-6.375L288.558,521.367z"/>
	<path fill="#EEEEEE" d="M357.867,521.367c0-3,2.852-6,6.402-6c3.348,0,6.434,2.855,6.434,6.375
		c-0.086,3.375-2.879,6.375-6.434,6.375c-3.402,0-6.434-2.852-6.434-6.375L357.867,521.367z"/>
	<path fill="#EEEEEE" d="M196.148,540.855c0-3,2.852-6,6.402-6c3.348,0,6.434,2.852,6.434,6.375
		c-0.086,3.375-2.879,6.375-6.434,6.375c-3.402,0-6.434-2.855-6.434-6.375L196.148,540.855z"/>
	<path fill="#EEEEEE" d="M219.254,540.855c0-3,2.848-6,6.402-6c3.348,0,6.434,2.852,6.434,6.375
		c-0.086,3.375-2.883,6.375-6.434,6.375c-3.402,0-6.434-2.855-6.434-6.375L219.254,540.855z"/>
	<path fill="#EEEEEE" d="M243.531,540.855c0-3,2.848-6,6.402-6c3.348,0,6.43,2.852,6.43,6.375c-0.082,3.375-2.879,6.375-6.43,6.375
		c-3.402,0-6.434-2.855-6.434-6.375L243.531,540.855z"/>
	<path fill="#EEEEEE" d="M265.117,540.855c0-3,2.848-6,6.402-6c3.348,0,6.434,2.852,6.434,6.375
		c-0.086,3.375-2.879,6.375-6.434,6.375c-3.402,0-6.434-2.855-6.434-6.375L265.117,540.855z"/>
	<path fill="#EEEEEE" d="M311.664,540.855c0-3,2.848-6,6.402-6c3.348,0,6.434,2.852,6.434,6.375
		c-0.086,3.375-2.883,6.375-6.434,6.375c-3.402,0-6.434-2.855-6.434-6.375L311.664,540.855z"/>
	<path fill="#EEEEEE" d="M334.765,540.855c0-3,2.848-6,6.402-6c3.348,0,6.434,2.852,6.434,6.375
		c-0.086,3.375-2.879,6.375-6.434,6.375c-3.402,0-6.434-2.855-6.434-6.375L334.765,540.855z"/>
	<path fill="#EEEEEE" d="M288.558,540.855c0-3,2.852-6,6.402-6c3.348,0,6.434,2.852,6.434,6.375
		c-0.086,3.375-2.879,6.375-6.434,6.375c-3.402,0-6.43-2.855-6.43-6.375L288.558,540.855z"/>
	<path fill="#EEEEEE" d="M357.867,540.855c0-3,2.852-6,6.402-6c3.348,0,6.434,2.852,6.434,6.375
		c-0.086,3.375-2.879,6.375-6.434,6.375c-3.402,0-6.434-2.855-6.434-6.375L357.867,540.855z"/>
	<path fill="#EEEEEE" d="M384.937,462.91c0-3,2.852-6,6.406-6c3.344,0,6.43,2.855,6.43,6.375c-0.086,3.375-2.879,6.375-6.43,6.375
		c-3.406,0-6.434-2.855-6.434-6.375L384.937,462.91z"/>
	<path fill="#EEEEEE" d="M408.042,462.91c0-3,2.848-6,6.402-6c3.348,0,6.434,2.855,6.434,6.375
		c-0.086,3.375-2.883,6.375-6.434,6.375c-3.402,0-6.434-2.855-6.434-6.375L408.042,462.91z"/>
	<path fill="#EEEEEE" d="M432.32,462.91c0-3,2.848-6,6.402-6c3.348,0,6.434,2.855,6.434,6.375c-0.086,3.375-2.883,6.375-6.434,6.375
		c-3.402,0-6.434-2.855-6.434-6.375L432.32,462.91z"/>
	<path fill="#EEEEEE" d="M453.906,462.91c0-3,2.848-6,6.402-6c3.348,0,6.434,2.855,6.434,6.375
		c-0.086,3.375-2.879,6.375-6.434,6.375c-3.402,0-6.434-2.855-6.434-6.375L453.906,462.91z"/>
	<path fill="#EEEEEE" d="M500.453,462.91c0-3,2.848-6,6.402-6c3.348,0,6.434,2.855,6.434,6.375
		c-0.086,3.375-2.883,6.375-6.434,6.375c-3.402,0-6.434-2.855-6.434-6.375L500.453,462.91z"/>
	<path fill="#EEEEEE" d="M523.554,462.91c0-3,2.852-6,6.402-6c3.348,0,6.434,2.855,6.434,6.375
		c-0.086,3.375-2.879,6.375-6.434,6.375c-3.402,0-6.434-2.855-6.434-6.375L523.554,462.91z"/>
	<path fill="#EEEEEE" d="M477.351,462.91c0-3,2.848-6,6.402-6c3.348,0,6.43,2.855,6.43,6.375c-0.082,3.375-2.879,6.375-6.43,6.375
		c-3.402,0-6.434-2.855-6.434-6.375L477.351,462.91z"/>
	<path fill="#EEEEEE" d="M546.656,462.91c0-3,2.852-6,6.402-6c3.348,0,6.434,2.855,6.434,6.375
		c-0.086,3.375-2.879,6.375-6.434,6.375c-3.402,0-6.434-2.855-6.434-6.375L546.656,462.91z"/>
	<path fill="#EEEEEE" d="M384.937,481.546c0-3,2.852-6,6.406-6c3.344,0,6.43,2.855,6.43,6.375c-0.086,3.375-2.879,6.375-6.43,6.375
		c-3.406,0-6.434-2.855-6.434-6.375L384.937,481.546z"/>
	<path fill="#EEEEEE" d="M408.042,481.546c0-3,2.848-6,6.402-6c3.348,0,6.434,2.855,6.434,6.375
		c-0.086,3.375-2.883,6.375-6.434,6.375c-3.402,0-6.434-2.855-6.434-6.375L408.042,481.546z"/>
	<path fill="#EEEEEE" d="M432.32,481.546c0-3,2.848-6,6.402-6c3.348,0,6.434,2.855,6.434,6.375
		c-0.086,3.375-2.883,6.375-6.434,6.375c-3.402,0-6.434-2.855-6.434-6.375L432.32,481.546z"/>
	<path fill="#EEEEEE" d="M453.906,481.546c0-3,2.848-6,6.402-6c3.348,0,6.434,2.855,6.434,6.375
		c-0.086,3.375-2.879,6.375-6.434,6.375c-3.402,0-6.434-2.855-6.434-6.375L453.906,481.546z"/>
	<path fill="#EEEEEE" d="M500.453,481.546c0-3,2.848-6,6.402-6c3.348,0,6.434,2.855,6.434,6.375
		c-0.086,3.375-2.883,6.375-6.434,6.375c-3.402,0-6.434-2.855-6.434-6.375L500.453,481.546z"/>
	<path fill="#EEEEEE" d="M523.554,481.546c0-3,2.852-6,6.402-6c3.348,0,6.434,2.855,6.434,6.375
		c-0.086,3.375-2.879,6.375-6.434,6.375c-3.402,0-6.434-2.855-6.434-6.375L523.554,481.546z"/>
	<path fill="#EEEEEE" d="M477.351,481.546c0-3,2.848-6,6.402-6c3.348,0,6.43,2.855,6.43,6.375c-0.082,3.375-2.879,6.375-6.43,6.375
		c-3.402,0-6.434-2.855-6.434-6.375L477.351,481.546z"/>
	<path fill="#EEEEEE" d="M546.656,481.546c0-3,2.852-6,6.402-6c3.348,0,6.434,2.855,6.434,6.375
		c-0.086,3.375-2.879,6.375-6.434,6.375c-3.402,0-6.434-2.855-6.434-6.375L546.656,481.546z"/>
	<path fill="#EEEEEE" d="M384.937,501.898c0-3,2.852-6,6.406-6c3.344,0,6.43,2.855,6.43,6.375c-0.086,3.375-2.879,6.375-6.43,6.375
		c-3.406,0-6.434-2.855-6.434-6.375L384.937,501.898z"/>
	<path fill="#EEEEEE" d="M408.042,501.898c0-3,2.848-6,6.402-6c3.348,0,6.434,2.855,6.434,6.375
		c-0.086,3.375-2.883,6.375-6.434,6.375c-3.402,0-6.434-2.855-6.434-6.375L408.042,501.898z"/>
	<path fill="#EEEEEE" d="M432.32,501.898c0-3,2.848-6,6.402-6c3.348,0,6.434,2.855,6.434,6.375
		c-0.086,3.375-2.883,6.375-6.434,6.375c-3.402,0-6.434-2.855-6.434-6.375L432.32,501.898z"/>
	<path fill="#EEEEEE" d="M453.906,501.898c0-3,2.848-6,6.402-6c3.348,0,6.434,2.855,6.434,6.375
		c-0.086,3.375-2.879,6.375-6.434,6.375c-3.402,0-6.434-2.855-6.434-6.375L453.906,501.898z"/>
	<path fill="#EEEEEE" d="M500.453,501.898c0-3,2.848-6,6.402-6c3.348,0,6.434,2.855,6.434,6.375
		c-0.086,3.375-2.883,6.375-6.434,6.375c-3.402,0-6.434-2.855-6.434-6.375L500.453,501.898z"/>
	<path fill="#EEEEEE" d="M523.554,501.898c0-3,2.852-6,6.402-6c3.348,0,6.434,2.855,6.434,6.375
		c-0.086,3.375-2.879,6.375-6.434,6.375c-3.402,0-6.434-2.855-6.434-6.375L523.554,501.898z"/>
	<path fill="#EEEEEE" d="M477.351,501.898c0-3,2.848-6,6.402-6c3.348,0,6.43,2.855,6.43,6.375c-0.082,3.375-2.879,6.375-6.43,6.375
		c-3.402,0-6.434-2.855-6.434-6.375L477.351,501.898z"/>
	<path fill="#EEEEEE" d="M546.656,501.898c0-3,2.852-6,6.402-6c3.348,0,6.434,2.855,6.434,6.375
		c-0.086,3.375-2.879,6.375-6.434,6.375c-3.402,0-6.434-2.855-6.434-6.375L546.656,501.898z"/>
	<path fill="#EEEEEE" d="M384.937,521.367c0-3,2.852-6,6.406-6c3.344,0,6.43,2.855,6.43,6.375c-0.086,3.375-2.879,6.375-6.43,6.375
		c-3.406,0-6.434-2.852-6.434-6.375L384.937,521.367z"/>
	<path fill="#EEEEEE" d="M408.042,521.367c0-3,2.848-6,6.402-6c3.348,0,6.434,2.855,6.434,6.375
		c-0.086,3.375-2.883,6.375-6.434,6.375c-3.402,0-6.434-2.852-6.434-6.375L408.042,521.367z"/>
	<path fill="#EEEEEE" d="M432.32,521.367c0-3,2.848-6,6.402-6c3.348,0,6.434,2.855,6.434,6.375
		c-0.086,3.375-2.883,6.375-6.434,6.375c-3.402,0-6.434-2.852-6.434-6.375L432.32,521.367z"/>
	<path fill="#EEEEEE" d="M453.906,521.367c0-3,2.848-6,6.402-6c3.348,0,6.434,2.855,6.434,6.375
		c-0.086,3.375-2.879,6.375-6.434,6.375c-3.402,0-6.434-2.852-6.434-6.375L453.906,521.367z"/>
	<path fill="#EEEEEE" d="M500.453,521.367c0-3,2.848-6,6.402-6c3.348,0,6.434,2.855,6.434,6.375
		c-0.086,3.375-2.883,6.375-6.434,6.375c-3.402,0-6.434-2.852-6.434-6.375L500.453,521.367z"/>
	<path fill="#EEEEEE" d="M523.554,521.367c0-3,2.852-6,6.402-6c3.348,0,6.434,2.855,6.434,6.375
		c-0.086,3.375-2.879,6.375-6.434,6.375c-3.402,0-6.434-2.852-6.434-6.375L523.554,521.367z"/>
	<path fill="#EEEEEE" d="M477.351,521.367c0-3,2.848-6,6.402-6c3.348,0,6.43,2.855,6.43,6.375c-0.082,3.375-2.879,6.375-6.43,6.375
		c-3.402,0-6.434-2.852-6.434-6.375L477.351,521.367z"/>
	<path fill="#EEEEEE" d="M546.656,521.367c0-3,2.852-6,6.402-6c3.348,0,6.434,2.855,6.434,6.375
		c-0.086,3.375-2.879,6.375-6.434,6.375c-3.402,0-6.434-2.852-6.434-6.375L546.656,521.367z"/>
	<path fill="#EEEEEE" d="M384.937,540.855c0-3,2.852-6,6.406-6c3.344,0,6.43,2.855,6.43,6.375c-0.086,3.375-2.879,6.375-6.43,6.375
		c-3.406,0-6.434-2.855-6.434-6.375L384.937,540.855z"/>
	<path fill="#EEEEEE" d="M408.042,540.855c0-3,2.848-6,6.402-6c3.348,0,6.434,2.855,6.434,6.375
		c-0.086,3.375-2.883,6.375-6.434,6.375c-3.402,0-6.434-2.855-6.434-6.375L408.042,540.855z"/>
	<path fill="#EEEEEE" d="M432.32,540.855c0-3,2.848-6,6.402-6c3.348,0,6.434,2.855,6.434,6.375
		c-0.086,3.375-2.883,6.375-6.434,6.375c-3.402,0-6.434-2.855-6.434-6.375L432.32,540.855z"/>
	<path fill="#EEEEEE" d="M453.906,540.855c0-3,2.848-6,6.402-6c3.348,0,6.434,2.855,6.434,6.375
		c-0.086,3.375-2.879,6.375-6.434,6.375c-3.402,0-6.434-2.855-6.434-6.375L453.906,540.855z"/>
	<path fill="#EEEEEE" d="M500.453,540.855c0-3,2.848-6,6.402-6c3.348,0,6.434,2.855,6.434,6.375
		c-0.086,3.375-2.883,6.375-6.434,6.375c-3.402,0-6.434-2.855-6.434-6.375L500.453,540.855z"/>
	<path fill="#EEEEEE" d="M523.554,540.855c0-3,2.852-6,6.402-6c3.348,0,6.434,2.855,6.434,6.375
		c-0.086,3.375-2.879,6.375-6.434,6.375c-3.402,0-6.434-2.855-6.434-6.375L523.554,540.855z"/>
	<path fill="#EEEEEE" d="M477.351,540.855c0-3,2.848-6,6.402-6c3.348,0,6.43,2.855,6.43,6.375c-0.082,3.375-2.879,6.375-6.43,6.375
		c-3.402,0-6.434-2.855-6.434-6.375L477.351,540.855z"/>
	<path fill="#EEEEEE" d="M546.656,540.855c0-3,2.852-6,6.402-6c3.348,0,6.434,2.855,6.434,6.375
		c-0.086,3.375-2.879,6.375-6.434,6.375c-3.402,0-6.434-2.855-6.434-6.375L546.656,540.855z"/>
	<path fill="#B60717" d="M248,263.855c0-4.5,3.242-7.516,7.281-7.516c3.969,0.016,7.277,3.23,7.277,7.23
		c-0.309,4.035-3.27,7.219-7.277,7.219c-4.281-0.184-7.297-3.242-7.297-7.219L248,263.855z"/>
	
		<linearGradient id="SVGID_9_" gradientUnits="userSpaceOnUse" x1="204.7524" y1="202.7939" x2="215.5422" y2="184.1055" gradientTransform="matrix(0.75 0 0 -0.75 97.6659 408.6564)">
		<stop  offset="0" style="stop-color:#C98283"/>
		<stop  offset="1" style="stop-color:#A60614"/>
	</linearGradient>
	<path fill="url(#SVGID_9_)" stroke="#FFFFFF" stroke-linejoin="bevel" stroke-miterlimit="10" d="M249.336,263.68
		c0-3,2.648-6.016,5.945-6.016c3.055,0.016,5.945,2.641,5.945,5.906c0.109,3.109-2.672,5.895-5.945,5.895
		c-2.945,0.215-5.961-2.648-5.961-5.895L249.336,263.68z"/>
	<path fill="#B60717" d="M220.828,263.855c0-4.5,3.242-7.516,7.281-7.516c3.969,0.016,7.277,3.23,7.277,7.23
		c-0.309,4.035-3.27,7.219-7.277,7.219c-4.281-0.184-7.297-3.242-7.297-7.219L220.828,263.855z"/>
	
		<linearGradient id="SVGID_10_" gradientUnits="userSpaceOnUse" x1="204.7524" y1="202.7944" x2="215.5425" y2="184.1054" gradientTransform="matrix(0.75 0 0 -0.75 70.494 408.6564)">
		<stop  offset="0" style="stop-color:#BD5154"/>
		<stop  offset="1" style="stop-color:#990512"/>
	</linearGradient>
	<path fill="url(#SVGID_10_)" stroke="#FFFFFF" stroke-linejoin="bevel" stroke-miterlimit="10" d="M222.164,263.68
		c0-3,2.648-6.016,5.945-6.016c3.055,0.016,5.945,2.641,5.945,5.906c0.109,3.109-2.672,5.895-5.945,5.895
		c-2.945,0.215-5.961-2.648-5.961-5.895L222.164,263.68z"/>
	<path fill="#B60717" d="M277.121,263.855c0-4.5,3.242-7.516,7.277-7.516c3.973,0.016,7.281,3.23,7.281,7.23
		c-0.309,4.035-3.27,7.219-7.281,7.219c-4.277-0.184-7.296-3.242-7.296-7.219L277.121,263.855z"/>
	
		<linearGradient id="SVGID_11_" gradientUnits="userSpaceOnUse" x1="204.7505" y1="202.7935" x2="215.5408" y2="184.1042" gradientTransform="matrix(0.75 0 0 -0.75 126.786 408.6564)">
		<stop  offset="0" style="stop-color:#C98283"/>
		<stop  offset="1" style="stop-color:#A60614"/>
	</linearGradient>
	<path fill="url(#SVGID_11_)" stroke="#FFFFFF" stroke-linejoin="bevel" stroke-miterlimit="10" d="M278.453,263.68
		c0-3,2.648-6.016,5.945-6.016c3.055,0.016,5.945,2.641,5.945,5.906c0.109,3.109-2.668,5.895-5.945,5.895
		c-2.945,0.215-5.957-2.648-5.957-5.895L278.453,263.68z"/>
	<path fill="#B60717" d="M303.777,263.855c0-4.5,3.242-7.516,7.277-7.516c3.973,0.016,7.281,3.23,7.281,7.23
		c-0.309,4.035-3.27,7.219-7.281,7.219c-4.277-0.184-7.297-3.242-7.297-7.219L303.777,263.855z"/>
	
		<linearGradient id="SVGID_12_" gradientUnits="userSpaceOnUse" x1="204.7495" y1="202.793" x2="215.5393" y2="184.1046" gradientTransform="matrix(0.75 0 0 -0.75 153.4423 408.6564)">
		<stop  offset="0" style="stop-color:#C98283"/>
		<stop  offset="1" style="stop-color:#A60614"/>
	</linearGradient>
	<path fill="url(#SVGID_12_)" stroke="#FFFFFF" stroke-linejoin="bevel" stroke-miterlimit="10" d="M305.109,263.68
		c0-3,2.648-6.016,5.945-6.016c3.055,0.016,5.945,2.641,5.945,5.906c0.109,3.109-2.668,5.895-5.945,5.895
		c-2.945,0.215-5.957-2.648-5.957-5.895L305.109,263.68z"/>
	<path fill="#B60717" d="M331.425,263.855c0-4.5,3.242-7.516,7.281-7.516c3.969,0.016,7.277,3.23,7.277,7.23
		c-0.309,4.035-3.27,7.219-7.277,7.219c-4.281-0.184-7.297-3.242-7.297-7.219L331.425,263.855z"/>
	
		<linearGradient id="SVGID_13_" gradientUnits="userSpaceOnUse" x1="204.7505" y1="202.7935" x2="215.5404" y2="184.1047" gradientTransform="matrix(0.75 0 0 -0.75 181.0917 408.6564)">
		<stop  offset="0" style="stop-color:#C98283"/>
		<stop  offset="1" style="stop-color:#A60614"/>
	</linearGradient>
	<path fill="url(#SVGID_13_)" stroke="#FFFFFF" stroke-linejoin="bevel" stroke-miterlimit="10" d="M332.761,263.68
		c0-3,2.648-6.016,5.945-6.016c3.055,0.016,5.941,2.641,5.941,5.906c0.113,3.109-2.668,5.895-5.941,5.895
		c-2.945,0.215-5.961-2.648-5.961-5.895L332.761,263.68z"/>
	<path fill="#276F71" d="M248,299.8c0-4.5,3.242-7.52,7.281-7.52c3.969,0.02,7.277,3.234,7.277,7.234
		c-0.309,4.035-3.27,7.215-7.277,7.215c-4.281-0.18-7.297-3.238-7.297-7.215L248,299.8z"/>
	
		<linearGradient id="SVGID_14_" gradientUnits="userSpaceOnUse" x1="204.7515" y1="202.7935" x2="215.5406" y2="184.1062" gradientTransform="matrix(0.75 0 0 -0.75 97.6659 444.5997)">
		<stop  offset="0" style="stop-color:#91CFD1"/>
		<stop  offset="1" style="stop-color:#49AEB1"/>
	</linearGradient>
	<path fill="url(#SVGID_14_)" stroke="#FFFFFF" stroke-linejoin="bevel" stroke-miterlimit="10" d="M249.336,299.621
		c0-3,2.648-6.012,5.945-6.012c3.055,0.012,5.945,2.637,5.945,5.906c0.109,3.105-2.672,5.895-5.945,5.895
		c-2.945,0.211-5.961-2.648-5.961-5.895L249.336,299.621z"/>
	<path d="M220.828,299.8c0-4.5,3.242-7.52,7.281-7.52c3.969,0.02,7.277,3.234,7.277,7.234c-0.309,4.035-3.27,7.215-7.277,7.215
		c-4.281-0.18-7.297-3.238-7.297-7.215L220.828,299.8z"/>
	
		<linearGradient id="SVGID_15_" gradientUnits="userSpaceOnUse" x1="204.7515" y1="202.7935" x2="215.5412" y2="184.105" gradientTransform="matrix(0.75 0 0 -0.75 70.494 444.5997)">
		<stop  offset="0" style="stop-color:#505050"/>
		<stop  offset="1" style="stop-color:#000000"/>
	</linearGradient>
	<path fill="url(#SVGID_15_)" stroke="#FFFFFF" stroke-linejoin="bevel" stroke-miterlimit="10" d="M222.164,299.621
		c0-3,2.648-6.012,5.945-6.012c3.055,0.012,5.945,2.637,5.945,5.906c0.109,3.105-2.672,5.895-5.945,5.895
		c-2.945,0.211-5.961-2.648-5.961-5.895L222.164,299.621z"/>
	<path fill="#276F71" d="M277.121,299.8c0-4.5,3.242-7.52,7.277-7.52c3.973,0.02,7.281,3.234,7.281,7.234
		c-0.309,4.035-3.27,7.215-7.281,7.215c-4.277-0.18-7.296-3.238-7.296-7.215L277.121,299.8z"/>
	
		<linearGradient id="SVGID_16_" gradientUnits="userSpaceOnUse" x1="204.7505" y1="202.7935" x2="215.5399" y2="184.1056" gradientTransform="matrix(0.75 0 0 -0.75 126.786 444.5997)">
		<stop  offset="0" style="stop-color:#91CFD1"/>
		<stop  offset="1" style="stop-color:#49AEB1"/>
	</linearGradient>
	<path fill="url(#SVGID_16_)" stroke="#FFFFFF" stroke-linejoin="bevel" stroke-miterlimit="10" d="M278.453,299.621
		c0-3,2.648-6.012,5.945-6.012c3.055,0.012,5.945,2.637,5.945,5.906c0.109,3.105-2.668,5.895-5.945,5.895
		c-2.945,0.211-5.957-2.648-5.957-5.895L278.453,299.621z"/>
	<path fill="#276F71" d="M303.777,299.8c0-4.5,3.242-7.52,7.277-7.52c3.973,0.02,7.281,3.234,7.281,7.234
		c-0.309,4.035-3.27,7.215-7.281,7.215c-4.277-0.18-7.297-3.238-7.297-7.215L303.777,299.8z"/>
	
		<linearGradient id="SVGID_17_" gradientUnits="userSpaceOnUse" x1="204.7505" y1="202.7935" x2="215.5397" y2="184.1059" gradientTransform="matrix(0.75 0 0 -0.75 153.4423 444.5997)">
		<stop  offset="0" style="stop-color:#91CFD1"/>
		<stop  offset="1" style="stop-color:#49AEB1"/>
	</linearGradient>
	<path fill="url(#SVGID_17_)" stroke="#FFFFFF" stroke-linejoin="bevel" stroke-miterlimit="10" d="M305.109,299.621
		c0-3,2.648-6.012,5.945-6.012c3.055,0.012,5.945,2.637,5.945,5.906c0.109,3.105-2.668,5.895-5.945,5.895
		c-2.945,0.211-5.957-2.648-5.957-5.895L305.109,299.621z"/>
	<path fill="#B60717" d="M331.425,299.8c0-4.5,3.242-7.52,7.281-7.52c3.969,0.02,7.277,3.234,7.277,7.234
		c-0.309,4.035-3.27,7.215-7.277,7.215c-4.281-0.18-7.297-3.238-7.297-7.215L331.425,299.8z"/>
	
		<linearGradient id="SVGID_18_" gradientUnits="userSpaceOnUse" x1="204.7495" y1="202.793" x2="215.5388" y2="184.1054" gradientTransform="matrix(0.75 0 0 -0.75 181.0917 444.5997)">
		<stop  offset="0" style="stop-color:#C98283"/>
		<stop  offset="1" style="stop-color:#A60614"/>
	</linearGradient>
	<path fill="url(#SVGID_18_)" stroke="#FFFFFF" stroke-linejoin="bevel" stroke-miterlimit="10" d="M332.761,299.621
		c0-3,2.648-6.012,5.945-6.012c3.055,0.012,5.941,2.637,5.941,5.906c0.113,3.105-2.668,5.895-5.941,5.895
		c-2.945,0.211-5.961-2.648-5.961-5.895L332.761,299.621z"/>
	
		<linearGradient id="SVGID_19_" gradientUnits="userSpaceOnUse" x1="408.2231" y1="168.8027" x2="202.2231" y2="168.8027" gradientTransform="matrix(0.75 0 0 -0.75 -133.9845 247.964)">
		<stop  offset="0" style="stop-color:#B5B5B5"/>
		<stop  offset="0.03" style="stop-color:#FFFFFF"/>
		<stop  offset="0.08" style="stop-color:#EBEBEB"/>
		<stop  offset="0.64" style="stop-color:#E7E7E7"/>
		<stop  offset="0.95" style="stop-color:#E2E2E2"/>
		<stop  offset="1" style="stop-color:#A8A8A8"/>
	</linearGradient>
	<path fill="url(#SVGID_19_)" d="M17.684,145.738h154.5v-48.75h-154.5V145.738z"/>
	
		<linearGradient id="SVGID_20_" gradientUnits="userSpaceOnUse" x1="408.2231" y1="168.8027" x2="202.2241" y2="168.8027" gradientTransform="matrix(0.75 0 0 -0.75 54.5541 247.964)">
		<stop  offset="0" style="stop-color:#B5B5B5"/>
		<stop  offset="0.03" style="stop-color:#FFFFFF"/>
		<stop  offset="0.08" style="stop-color:#EBEBEB"/>
		<stop  offset="0.64" style="stop-color:#E7E7E7"/>
		<stop  offset="0.95" style="stop-color:#E2E2E2"/>
		<stop  offset="1" style="stop-color:#A8A8A8"/>
	</linearGradient>
	<path fill="url(#SVGID_20_)" d="M206.223,145.738h154.5v-48.75h-154.5V145.738z"/>
	
		<linearGradient id="SVGID_21_" gradientUnits="userSpaceOnUse" x1="408.2212" y1="168.8027" x2="202.2212" y2="168.8027" gradientTransform="matrix(0.75 0 0 -0.75 243.3446 247.964)">
		<stop  offset="0" style="stop-color:#B5B5B5"/>
		<stop  offset="0.03" style="stop-color:#FFFFFF"/>
		<stop  offset="0.08" style="stop-color:#EBEBEB"/>
		<stop  offset="0.64" style="stop-color:#E7E7E7"/>
		<stop  offset="0.95" style="stop-color:#E2E2E2"/>
		<stop  offset="1" style="stop-color:#A8A8A8"/>
	</linearGradient>
	<path fill="url(#SVGID_21_)" d="M395.011,145.738h154.5v-48.75h-154.5V145.738z"/>
	<path fill="#EACD98" d="M228.348,188.203h25.5c3,0,5.637,2.637,5.637,5.887l0.363,30.863c0,3-3.023,5.918-6.305,5.918
		l-25.195,0.082c-3,0-6-2.719-6-5.969v-30.781c0-3,2.66-6,5.941-6H228.348z"/>
	<path fill="#595757" stroke="#000000" stroke-linejoin="bevel" stroke-miterlimit="10" d="M226.559,193.109h28.5v33.75h-28.5
		V193.109z"/>
	<path fill="#CAD4CC" d="M231.09,195.559h19.5v9h-19.5V195.559z"/>
	<path fill="#EACD98" d="M309.269,188.203h25.5c3,0,5.637,2.637,5.637,5.887l0.363,30.863c0,3-3.023,5.918-6.309,5.918
		l-25.191,0.082c-3,0-6-2.719-6-5.969v-30.781c0-3,2.66-6,5.941-6H309.269z"/>
	<path fill="#595757" stroke="#000000" stroke-linejoin="bevel" stroke-miterlimit="10" d="M307.476,193.109h28.5v33.75h-28.5
		V193.109z"/>
	<path fill="#CAD4CC" d="M312.007,195.559h19.5v9h-19.5V195.559z"/>
</g>
</svg>
