<?xml version="1.0" encoding="utf-8"?>
<!-- Generator: Adobe Illustrator 16.0.0, SVG Export Plug-In . SVG Version: 6.00 Build 0)  -->
<!DOCTYPE svg PUBLIC "-//W3C//DTD SVG 1.1//EN" "http://www.w3.org/Graphics/SVG/1.1/DTD/svg11.dtd">
<svg preserveAspectRatio="none"   version="1.1" id="图层_1" xmlns="http://www.w3.org/2000/svg" xmlns:xlink="http://www.w3.org/1999/xlink" x="0px" y="0px"
	 width="567.285px" height="567.285px" viewBox="-0.18 -0.125 567.285 567.285"
	 enable-background="new -0.18 -0.125 567.285 567.285" xml:space="preserve">
<g id="surface66">
	
		<radialGradient id="SVGID_1_" cx="580.2466" cy="-176.7197" r="534.6072" gradientTransform="matrix(0.75 0 0 -0.75 -151.7223 150.9777)" gradientUnits="userSpaceOnUse">
		<stop  offset="0" style="stop-color:#C7CBD1"/>
		<stop  offset="0.54" style="stop-color:#B6BCC4"/>
		<stop  offset="0.74" style="stop-color:#D4D8DD"/>
		<stop  offset="0.91" style="stop-color:#C4C7CD"/>
		<stop  offset="1" style="stop-color:#B6BCC4"/>
	</radialGradient>
	<path fill="url(#SVGID_1_)" stroke="#D4D6DB" stroke-width="0.25" stroke-linejoin="bevel" stroke-miterlimit="10" d="
		M-0.055,283.5C-0.055,126.75,126.883,0,283.465,0C440.195,0,566.98,126.934,566.98,283.52
		c-0.035,156.73-126.934,283.515-283.515,283.515C126.695,567-0.055,440.101-0.055,283.52V283.5z"/>
	
		<radialGradient id="SVGID_2_" cx="524.4634" cy="-120.9346" r="455.7131" gradientTransform="matrix(0.75 0 0 -0.75 -109.8824 192.8165)" gradientUnits="userSpaceOnUse">
		<stop  offset="0" style="stop-color:#A0A6B1"/>
		<stop  offset="0.54" style="stop-color:#9DA3AE"/>
		<stop  offset="0.68" style="stop-color:#D1D3D8"/>
		<stop  offset="0.84" style="stop-color:#9DA3AE"/>
		<stop  offset="0.91" style="stop-color:#989DA7"/>
		<stop  offset="1" style="stop-color:#9DA3AE"/>
	</radialGradient>
	<path fill="url(#SVGID_2_)" stroke="#D4D6DB" stroke-width="0.25" stroke-linejoin="bevel" stroke-miterlimit="10" d="
		M41.785,283.34c0-133.5,108.203-241.5,241.68-241.5c133.32,0,241.679,108.203,241.679,241.68
		c-0.359,133.32-108.203,241.675-241.679,241.675c-133.68-0.355-241.68-108.203-241.68-241.675V283.34z"/>
	
		<radialGradient id="SVGID_3_" cx="482.8071" cy="-79.187" r="396.7377" gradientTransform="matrix(0.75 0 0 -0.75 -78.6407 224.1281)" gradientUnits="userSpaceOnUse">
		<stop  offset="0" style="stop-color:#C7CBD1"/>
		<stop  offset="0.54" style="stop-color:#B6BCC4"/>
		<stop  offset="0.68" style="stop-color:#DFE1E5"/>
		<stop  offset="0.84" style="stop-color:#C4C7CD"/>
		<stop  offset="0.91" style="stop-color:#C4C7CB"/>
		<stop  offset="1" style="stop-color:#B6BCC4"/>
	</radialGradient>
	<path fill="url(#SVGID_3_)" stroke="#D4D6DB" stroke-width="0.25" stroke-linejoin="bevel" stroke-miterlimit="10" d="
		M73.027,283.152c0-116.25,94.129-210,210.438-210c115.812,0,210.437,94.121,210.437,210.367
		c-0.125,115.882-94.332,210.367-210.437,210.367C167.527,493.902,73.027,399.613,73.027,283.52V283.152z"/>
	
		<radialGradient id="SVGID_4_" cx="443.0581" cy="-39.5288" r="340.5878" gradientTransform="matrix(0.75 0 0 -0.75 -48.8278 253.8712)" gradientUnits="userSpaceOnUse">
		<stop  offset="0" style="stop-color:#C7CBD1"/>
		<stop  offset="0.54" style="stop-color:#B6BCC4"/>
		<stop  offset="0.68" style="stop-color:#DFE1E5"/>
		<stop  offset="0.84" style="stop-color:#C4C7CD"/>
		<stop  offset="0.91" style="stop-color:#C4C7CB"/>
		<stop  offset="1" style="stop-color:#B6BCC4"/>
	</radialGradient>
	<path fill="url(#SVGID_4_)" stroke="#D4D6DB" stroke-width="0.25" stroke-linejoin="bevel" stroke-miterlimit="10" d="
		M102.84,283.645c0-99.75,80.793-180.75,180.625-180.75c99.875,0,180.625,80.766,180.625,180.625
		c0.25,99.875-80.926,180.621-180.625,180.621C183.84,464.394,102.84,383.191,102.84,283.52V283.645z"/>
	
		<radialGradient id="SVGID_5_" cx="402.8403" cy="0.7759" r="283.6535" gradientTransform="matrix(0.75 0 0 -0.75 -18.6676 284.0997)" gradientUnits="userSpaceOnUse">
		<stop  offset="0" style="stop-color:#C7CBD1"/>
		<stop  offset="0.54" style="stop-color:#B6BCC4"/>
		<stop  offset="0.68" style="stop-color:#DFE1E5"/>
		<stop  offset="0.84" style="stop-color:#C4C7CD"/>
		<stop  offset="0.91" style="stop-color:#C4C7CB"/>
		<stop  offset="1" style="stop-color:#B6BCC4"/>
	</radialGradient>
	<path fill="url(#SVGID_5_)" stroke="#D4D6DB" stroke-width="0.25" stroke-linejoin="bevel" stroke-miterlimit="10" d="M133,283.871
		c0-83.25,67.328-150.75,150.465-150.75c82.785,0,150.46,67.266,150.46,150.398c-0.176,82.851-67.445,150.394-150.46,150.394
		C200.5,433.871,133,366.539,133,283.52V283.871z"/>
	
		<radialGradient id="SVGID_6_" cx="355.2681" cy="48.2603" r="216.4378" gradientTransform="matrix(0.75 0 0 -0.75 17.0121 319.712)" gradientUnits="userSpaceOnUse">
		<stop  offset="0" style="stop-color:#C7CBD1"/>
		<stop  offset="0.54" style="stop-color:#B6BCC4"/>
		<stop  offset="0.68" style="stop-color:#DFE1E5"/>
		<stop  offset="0.84" style="stop-color:#C4C7CD"/>
		<stop  offset="0.91" style="stop-color:#C4C7CB"/>
		<stop  offset="1" style="stop-color:#B6BCC4"/>
	</radialGradient>
	<path fill="url(#SVGID_6_)" stroke="#D4D6DB" stroke-width="0.25" stroke-linejoin="bevel" stroke-miterlimit="10" d="
		M168.68,283.484c0-63.75,51.328-114.75,114.785-114.75c63.714,0,114.781,51.324,114.781,114.785
		C398.179,347.234,346.812,398.3,283.465,398.3C219.68,398.234,168.68,346.867,168.68,283.52V283.484z"/>
	
		<radialGradient id="SVGID_7_" cx="306.3647" cy="97.1646" r="147.2746" gradientTransform="matrix(0.75 0 0 -0.75 53.6908 356.3907)" gradientUnits="userSpaceOnUse">
		<stop  offset="0" style="stop-color:#C7CBD1"/>
		<stop  offset="0.54" style="stop-color:#B6BCC4"/>
		<stop  offset="0.68" style="stop-color:#DFE1E5"/>
		<stop  offset="0.84" style="stop-color:#C4C7CD"/>
		<stop  offset="0.91" style="stop-color:#C4C7CB"/>
		<stop  offset="1" style="stop-color:#B6BCC4"/>
	</radialGradient>
	<path fill="url(#SVGID_7_)" stroke="#D4D6DB" stroke-width="0.25" stroke-linejoin="bevel" stroke-miterlimit="10" d="
		M205.359,283.414c0-42.75,34.922-78,78.105-78c43.394,0,78.105,34.902,78.105,78.105c-0.211,43.394-35.023,78.101-78.105,78.101
		c-42.855-0.207-78.105-35.039-78.105-78.101V283.414z"/>
	
		<linearGradient id="SVGID_8_" gradientUnits="userSpaceOnUse" x1="167.4971" y1="-11.2847" x2="452.6981" y2="92.52" gradientTransform="matrix(0.75 0 0 -0.75 7.5482 193.3263)">
		<stop  offset="0" style="stop-color:#7F8592"/>
		<stop  offset="0.22" style="stop-color:#9096A4"/>
		<stop  offset="0.57" style="stop-color:#CFD2D8"/>
		<stop  offset="0.84" style="stop-color:#B4B8C3"/>
		<stop  offset="1" style="stop-color:#8A919E"/>
	</linearGradient>
	<path fill="url(#SVGID_8_)" d="M159.219,76.848c0,0,71.473-46.863,158.136-31.449l-30.637,217.449l-20.25,10.5L159.219,76.848z"/>
	
		<linearGradient id="SVGID_9_" gradientUnits="userSpaceOnUse" x1="460.0444" y1="-30.0796" x2="158.0186" y2="79.8488" gradientTransform="matrix(0.75 0 0 -0.75 134.8558 196.424)">
		<stop  offset="0" style="stop-color:#7F8592"/>
		<stop  offset="0.22" style="stop-color:#9096A4"/>
		<stop  offset="0.57" style="stop-color:#CFD2D8"/>
		<stop  offset="0.84" style="stop-color:#B4B8C3"/>
		<stop  offset="1" style="stop-color:#8A919E"/>
	</linearGradient>
	<path fill="url(#SVGID_9_)" d="M317.273,45.445c0,0,74.906,1.422,141.703,71.891L303.773,276.445l-17.25-13.5L317.273,45.445z"/>
	
		<linearGradient id="SVGID_10_" gradientUnits="userSpaceOnUse" x1="414.605" y1="457.1118" x2="131.3486" y2="354.015" gradientTransform="matrix(-0.75 0 0 0.75 534.2452 99.9784)">
		<stop  offset="0" style="stop-color:#7F8592"/>
		<stop  offset="0.22" style="stop-color:#9096A4"/>
		<stop  offset="0.57" style="stop-color:#CFD2D8"/>
		<stop  offset="0.84" style="stop-color:#B4B8C3"/>
		<stop  offset="1" style="stop-color:#8A919E"/>
	</linearGradient>
	<path fill="url(#SVGID_10_)" d="M409.968,489.699c0,0-72.695,46.031-156.761,32.977l29.262-217.477l20.25-10.5L409.968,489.699z"/>
	
		<linearGradient id="SVGID_11_" gradientUnits="userSpaceOnUse" x1="422.9507" y1="336.6655" x2="121.8877" y2="446.2435" gradientTransform="matrix(-0.75 0 0 0.75 407.8185 97.7089)">
		<stop  offset="0" style="stop-color:#7F8592"/>
		<stop  offset="0.22" style="stop-color:#9096A4"/>
		<stop  offset="0.57" style="stop-color:#CFD2D8"/>
		<stop  offset="0.84" style="stop-color:#B4B8C3"/>
		<stop  offset="1" style="stop-color:#8A919E"/>
	</linearGradient>
	<path fill="url(#SVGID_11_)" d="M253.543,522.675c0,0-77.754-3.977-142.453-69.137l155.203-159.613l17.25,14.25L253.543,522.675z"
		/>
	
		<linearGradient id="SVGID_12_" gradientUnits="userSpaceOnUse" x1="195.6489" y1="155.0903" x2="273.0744" y2="183.2709" gradientTransform="matrix(0.75 0 0 -0.75 107.6879 410.3878)">
		<stop  offset="0" style="stop-color:#7F8592"/>
		<stop  offset="0.22" style="stop-color:#9096A4"/>
		<stop  offset="0.57" style="stop-color:#CFD2D8"/>
		<stop  offset="0.84" style="stop-color:#B4B8C3"/>
		<stop  offset="1" style="stop-color:#8A919E"/>
	</linearGradient>
	<path fill="url(#SVGID_12_)" d="M259.355,283.41c0-13.5,10.793-24,24.109-24c13.39,0,24.105,10.793,24.105,24.109
		c-0.215,13.39-10.793,24.105-24.105,24.105c-13.609-0.215-24.109-10.793-24.109-24.105V283.41z"/>
	
		<linearGradient id="SVGID_13_" gradientUnits="userSpaceOnUse" x1="199.1309" y1="179.4409" x2="235.7019" y2="192.7517" gradientTransform="matrix(0.75 0 0 -0.75 120.4086 423.1085)">
		<stop  offset="0" style="stop-color:#505968"/>
		<stop  offset="0.22" style="stop-color:#5B6575"/>
		<stop  offset="0.57" style="stop-color:#BEC1C6"/>
		<stop  offset="0.84" style="stop-color:#9499A3"/>
		<stop  offset="1" style="stop-color:#576171"/>
	</linearGradient>
	<path fill="url(#SVGID_13_)" d="M272.078,283.379c0-6,5.098-11.25,11.387-11.25c6.613,0,11.386,5.102,11.386,11.391
		c-0.273,6.609-5.098,11.386-11.386,11.386c-6.137-0.277-11.387-5.102-11.387-11.386V283.379z"/>
</g>
</svg>
