<?xml version="1.0" encoding="utf-8"?>
<!-- Generator: Adobe Illustrator 16.0.0, SVG Export Plug-In . SVG Version: 6.00 Build 0)  -->
<!DOCTYPE svg PUBLIC "-//W3C//DTD SVG 1.1//EN" "http://www.w3.org/Graphics/SVG/1.1/DTD/svg11.dtd">
<svg preserveAspectRatio="none"   version="1.1" id="图层_1" xmlns="http://www.w3.org/2000/svg" xmlns:xlink="http://www.w3.org/1999/xlink" x="0px" y="0px"
	 width="567px" height="357.75px" viewBox="-0.07 209.5 567 357.75" enable-background="new -0.07 209.5 567 357.75"
	 xml:space="preserve">
<g id="surface156">
	
		<linearGradient id="SVGID_1_" gradientUnits="userSpaceOnUse" x1="958.2241" y1="-37.1968" x2="202.2251" y2="-37.1968" gradientTransform="matrix(0.75 0 0 -0.75 -151.7399 360.4767)">
		<stop  offset="0" style="stop-color:#AEAEAD"/>
		<stop  offset="0.01" style="stop-color:#F8F8F7"/>
		<stop  offset="0.04" style="stop-color:#E3E3E2"/>
		<stop  offset="0.64" style="stop-color:#DFDFDE"/>
		<stop  offset="0.99" style="stop-color:#DADAD9"/>
		<stop  offset="1" style="stop-color:#A2A2A1"/>
	</linearGradient>
	<path fill="url(#SVGID_1_)" d="M-0.07,209.5h567v357.75h-567V209.5z"/>
	
		<linearGradient id="SVGID_2_" gradientUnits="userSpaceOnUse" x1="958.2241" y1="192.8062" x2="202.2251" y2="192.8061" gradientTransform="matrix(0.75 0 0 -0.75 -151.7399 360.545)">
		<stop  offset="0" style="stop-color:#383E4C"/>
		<stop  offset="0.02" style="stop-color:#8E919B"/>
		<stop  offset="0.03" style="stop-color:#4C5366"/>
		<stop  offset="0.64" style="stop-color:#4A5264"/>
		<stop  offset="0.99" style="stop-color:#495061"/>
		<stop  offset="1" style="stop-color:#343946"/>
	</linearGradient>
	<path fill="url(#SVGID_2_)" d="M-0.07,209.566h567v12.75h-567V209.566z"/>
	
		<linearGradient id="SVGID_3_" gradientUnits="userSpaceOnUse" x1="958.2241" y1="192.8052" x2="202.2251" y2="192.8051" gradientTransform="matrix(0.75 0 0 -0.75 -151.7399 705.2628)">
		<stop  offset="0" style="stop-color:#383E4C"/>
		<stop  offset="0.02" style="stop-color:#8E919B"/>
		<stop  offset="0.03" style="stop-color:#4C5366"/>
		<stop  offset="0.64" style="stop-color:#4A5264"/>
		<stop  offset="0.99" style="stop-color:#495061"/>
		<stop  offset="1" style="stop-color:#343946"/>
	</linearGradient>
	<path fill="url(#SVGID_3_)" d="M-0.07,554.285h567v12.75h-567V554.285z"/>
	
		<linearGradient id="SVGID_4_" gradientUnits="userSpaceOnUse" x1="958.2241" y1="199.3032" x2="202.2251" y2="199.3032" gradientTransform="matrix(0.75 0 0 -0.75 -151.7399 688.4015)">
		<stop  offset="0" style="stop-color:#383E4C"/>
		<stop  offset="0.03" style="stop-color:#8E919B"/>
		<stop  offset="0.08" style="stop-color:#4C5366"/>
		<stop  offset="0.64" style="stop-color:#4A5264"/>
		<stop  offset="0.95" style="stop-color:#495061"/>
		<stop  offset="1" style="stop-color:#343946"/>
	</linearGradient>
	<path fill="url(#SVGID_4_)" d="M-0.07,537.425h567v3h-567V537.425z"/>
	
		<linearGradient id="SVGID_5_" gradientUnits="userSpaceOnUse" x1="958.2241" y1="199.3032" x2="202.2251" y2="199.3032" gradientTransform="matrix(0.75 0 0 -0.75 -151.7399 677.1407)">
		<stop  offset="0" style="stop-color:#383E4C"/>
		<stop  offset="0.03" style="stop-color:#8E919B"/>
		<stop  offset="0.08" style="stop-color:#4C5366"/>
		<stop  offset="0.64" style="stop-color:#4A5264"/>
		<stop  offset="0.95" style="stop-color:#495061"/>
		<stop  offset="1" style="stop-color:#343946"/>
	</linearGradient>
	<path fill="url(#SVGID_5_)" d="M-0.07,526.164h567v3h-567V526.164z"/>
	
		<linearGradient id="SVGID_6_" gradientUnits="userSpaceOnUse" x1="341.2231" y1="109.3066" x2="202.2236" y2="109.3066" gradientTransform="matrix(0.75 0 0 -0.75 -133.5826 389.3419)">
		<stop  offset="0" style="stop-color:#AEAEAD"/>
		<stop  offset="0.03" style="stop-color:#F8F8F7"/>
		<stop  offset="0.08" style="stop-color:#E3E3E2"/>
		<stop  offset="0.64" style="stop-color:#DFDFDE"/>
		<stop  offset="0.95" style="stop-color:#DADAD9"/>
		<stop  offset="1" style="stop-color:#A2A2A1"/>
	</linearGradient>
	<path fill="url(#SVGID_6_)" d="M18.086,238.363h104.25v138H18.086V238.363z"/>
	
		<linearGradient id="SVGID_7_" gradientUnits="userSpaceOnUse" x1="341.2231" y1="193.3047" x2="202.2236" y2="193.3047" gradientTransform="matrix(0.75 0 0 -0.75 -133.5826 389.3409)">
		<stop  offset="0" style="stop-color:#383E4C"/>
		<stop  offset="0.03" style="stop-color:#8E919B"/>
		<stop  offset="0.08" style="stop-color:#4C5366"/>
		<stop  offset="0.64" style="stop-color:#4A5264"/>
		<stop  offset="0.95" style="stop-color:#495061"/>
		<stop  offset="1" style="stop-color:#343946"/>
	</linearGradient>
	<path fill="url(#SVGID_7_)" d="M18.086,238.363h104.25v12H18.086V238.363z"/>
	
		<linearGradient id="SVGID_8_" gradientUnits="userSpaceOnUse" x1="341.2231" y1="193.3027" x2="202.2236" y2="193.3027" gradientTransform="matrix(0.75 0 0 -0.75 -133.5826 514.8829)">
		<stop  offset="0" style="stop-color:#383E4C"/>
		<stop  offset="0.03" style="stop-color:#8E919B"/>
		<stop  offset="0.08" style="stop-color:#4C5366"/>
		<stop  offset="0.64" style="stop-color:#4A5264"/>
		<stop  offset="0.95" style="stop-color:#495061"/>
		<stop  offset="1" style="stop-color:#343946"/>
	</linearGradient>
	<path fill="url(#SVGID_8_)" d="M18.086,363.906h104.25v12H18.086V363.906z"/>
	<path stroke="#000000" stroke-linejoin="bevel" stroke-miterlimit="10" d="M47.172,261.348h45.75c4.5,0,7.707,3.461,7.707,7.73
		l-0.207,20.769c0,3.75-3.313,7.574-7.594,7.574l-45.656-0.074c-3.75,0-7.566-3.387-7.566-7.656l0.066-20.843
		c0-3.75,3.406-7.5,7.688-7.5H47.172z"/>
	<path fill="#3E3938" stroke="#000000" stroke-linejoin="bevel" stroke-miterlimit="10" d="M49.074,263.012h42
		c4.5,0,7.648,3.141,7.648,7.016l-0.148,18.484c0,3.75-3.148,7.246-7.164,7.246l-42.336,0.254c-4.5,0-7.559-3.395-7.559-7.27
		l0.059-18.98c0-3.75,3.195-6.75,7.207-6.75H49.074z"/>
	<path fill="#276F71" d="M52.879,320.144c0-5.25,3.879-9.023,8.703-9.023c4.797,0.023,8.703,3.891,8.703,8.711
		c-0.156,4.813-3.91,8.684-8.703,8.684c-4.953-0.121-8.723-3.902-8.723-8.684L52.879,320.144z"/>
	
		<linearGradient id="SVGID_9_" gradientUnits="userSpaceOnUse" x1="205.2188" y1="203.0688" x2="218.1674" y2="180.6412" gradientTransform="matrix(0.75 0 0 -0.75 -97.1945 463.713)">
		<stop  offset="0" style="stop-color:#91CFD1"/>
		<stop  offset="1" style="stop-color:#49AEB1"/>
	</linearGradient>
	<path fill="url(#SVGID_9_)" stroke="#FFFFFF" stroke-linejoin="bevel" stroke-miterlimit="10" d="M54.473,319.484
		c0-3.75,3.168-6.766,7.109-6.766c4.141,0.016,7.109,3.176,7.109,7.113c0.031,4.152-3.195,7.094-7.109,7.094
		c-4.109,0.059-7.125-3.188-7.125-7.094L54.473,319.484z"/>
	<path fill="#7D040F" d="M25.926,320.144c0-5.25,3.879-9.023,8.703-9.023c4.797,0.023,8.703,3.891,8.703,8.711
		c-0.156,4.813-3.91,8.684-8.703,8.684c-4.953-0.121-8.723-3.902-8.723-8.684L25.926,320.144z"/>
	
		<linearGradient id="SVGID_10_" gradientUnits="userSpaceOnUse" x1="205.2188" y1="203.0688" x2="218.1674" y2="180.6412" gradientTransform="matrix(0.75 0 0 -0.75 -124.1476 463.713)">
		<stop  offset="0" style="stop-color:#9F5153"/>
		<stop  offset="1" style="stop-color:#7B030D"/>
	</linearGradient>
	<path fill="url(#SVGID_10_)" stroke="#FFFFFF" stroke-linejoin="bevel" stroke-miterlimit="10" d="M27.52,319.484
		c0-3.75,3.168-6.766,7.109-6.766c4.141,0.016,7.109,3.176,7.109,7.113c0.031,4.152-3.195,7.094-7.109,7.094
		c-4.109,0.059-7.125-3.188-7.125-7.094L27.52,319.484z"/>
	<path fill="#FED372" d="M79.844,320.144c0-5.25,3.879-9.023,8.703-9.023c4.797,0.023,8.703,3.891,8.703,8.711
		c-0.156,4.813-3.906,8.684-8.703,8.684c-4.953-0.121-8.723-3.902-8.723-8.684L79.844,320.144z"/>
	
		<linearGradient id="SVGID_11_" gradientUnits="userSpaceOnUse" x1="205.2183" y1="203.0679" x2="218.1665" y2="180.6408" gradientTransform="matrix(0.75 0 0 -0.75 -70.2286 463.713)">
		<stop  offset="0" style="stop-color:#FEDEA0"/>
		<stop  offset="1" style="stop-color:#E9C168"/>
	</linearGradient>
	<path fill="url(#SVGID_11_)" stroke="#FFFFFF" stroke-linejoin="bevel" stroke-miterlimit="10" d="M81.441,319.484
		c0-3.75,3.164-6.766,7.105-6.766c4.145,0.016,7.109,3.176,7.109,7.113c0.035,4.152-3.191,7.094-7.109,7.094
		c-4.105,0.059-7.125-3.188-7.125-7.094L81.441,319.484z"/>
	<path fill="#276F71" d="M52.879,347.812c0-5.25,3.879-9.023,8.703-9.023c4.797,0.023,8.703,3.895,8.703,8.711
		c-0.156,4.813-3.91,8.688-8.703,8.688c-4.953-0.125-8.723-3.902-8.723-8.688L52.879,347.812z"/>
	
		<linearGradient id="SVGID_12_" gradientUnits="userSpaceOnUse" x1="205.2173" y1="203.0688" x2="218.1659" y2="180.6412" gradientTransform="matrix(0.75 0 0 -0.75 -97.1945 491.381)">
		<stop  offset="0" style="stop-color:#91CFD1"/>
		<stop  offset="1" style="stop-color:#49AEB1"/>
	</linearGradient>
	<path fill="url(#SVGID_12_)" stroke="#FFFFFF" stroke-linejoin="bevel" stroke-miterlimit="10" d="M54.473,347.152
		c0-3.75,3.168-6.766,7.109-6.766c4.141,0.016,7.109,3.18,7.109,7.113c0.031,4.152-3.195,7.094-7.109,7.094
		c-4.109,0.059-7.125-3.188-7.125-7.094L54.473,347.152z"/>
	<path fill="#7D040F" d="M25.898,347.812c0-5.25,3.879-9.023,8.707-9.023c4.793,0.023,8.703,3.895,8.703,8.711
		c-0.16,4.813-3.91,8.688-8.703,8.688c-4.957-0.125-8.727-3.902-8.727-8.688L25.898,347.812z"/>
	
		<linearGradient id="SVGID_13_" gradientUnits="userSpaceOnUse" x1="205.2188" y1="203.0688" x2="218.1669" y2="180.6421" gradientTransform="matrix(0.75 0 0 -0.75 -124.174 491.381)">
		<stop  offset="0" style="stop-color:#9F5153"/>
		<stop  offset="1" style="stop-color:#7B030D"/>
	</linearGradient>
	<path fill="url(#SVGID_13_)" stroke="#FFFFFF" stroke-linejoin="bevel" stroke-miterlimit="10" d="M27.496,347.152
		c0-3.75,3.164-6.766,7.109-6.766c4.141,0.016,7.105,3.18,7.105,7.113c0.035,4.152-3.191,7.094-7.105,7.094
		c-4.109,0.059-7.129-3.188-7.129-7.094L27.496,347.152z"/>
	<path fill="#FED372" d="M79.816,347.812c0-5.25,3.875-9.023,8.703-9.023c4.797,0.023,8.703,3.895,8.703,8.711
		c-0.156,4.813-3.91,8.688-8.703,8.688c-4.953-0.125-8.727-3.902-8.727-8.688L79.816,347.812z"/>
	
		<linearGradient id="SVGID_14_" gradientUnits="userSpaceOnUse" x1="205.2183" y1="203.0698" x2="218.1674" y2="180.6413" gradientTransform="matrix(0.75 0 0 -0.75 -70.2584 491.381)">
		<stop  offset="0" style="stop-color:#FEDEA0"/>
		<stop  offset="1" style="stop-color:#E9C168"/>
	</linearGradient>
	<path fill="url(#SVGID_14_)" stroke="#FFFFFF" stroke-linejoin="bevel" stroke-miterlimit="10" d="M81.41,347.152
		c0-3.75,3.168-6.766,7.109-6.766c4.141,0.016,7.109,3.18,7.109,7.113c0.031,4.152-3.195,7.094-7.109,7.094
		c-4.109,0.059-7.125-3.188-7.125-7.094L81.41,347.152z"/>
	<path fill="#FFFFFF" fill-opacity="0.0588" d="M47.246,261.336h45.75l-39.75,36.75l-6-0.75c-3.75,0-7.566-3.387-7.566-7.656
		l0.066-20.843c0-3.75,3.402-7.5,7.684-7.5H47.246z"/>
	<path fill="#717070" d="M135.148,227.086h408.75v320.25h-408.75V227.086z"/>
	
		<linearGradient id="SVGID_15_" gradientUnits="userSpaceOnUse" x1="356.6372" y1="171.8027" x2="202.2217" y2="171.8027" gradientTransform="matrix(0.75 0 0 -0.75 243.6337 387.2657)">
		<stop  offset="0" style="stop-color:#C4C4C4"/>
		<stop  offset="0.15" style="stop-color:#FFFFFF"/>
		<stop  offset="0.25" style="stop-color:#FFFFFF"/>
		<stop  offset="0.44" style="stop-color:#DFDFDF"/>
		<stop  offset="0.6" style="stop-color:#C7C7C7"/>
		<stop  offset="0.8" style="stop-color:#A8A8A8"/>
		<stop  offset="0.97" style="stop-color:#999999"/>
		<stop  offset="1" style="stop-color:#CBCBCB"/>
	</linearGradient>
	<path fill="url(#SVGID_15_)" d="M402.05,236.289h102c3.75,0,7.063,2.977,7.063,6.668l-0.313,37.582H395.3v-37.5
		c0-3.75,3.004-6.75,6.727-6.75H402.05z"/>
	
		<linearGradient id="SVGID_16_" gradientUnits="userSpaceOnUse" x1="405.2231" y1="26.8032" x2="202.2231" y2="26.8032" gradientTransform="matrix(0.75 0 0 -0.75 225.5038 431.0626)">
		<stop  offset="0" style="stop-color:#B5B5B5"/>
		<stop  offset="0.01" style="stop-color:#FFFFFF"/>
		<stop  offset="0.05" style="stop-color:#EBEBEB"/>
		<stop  offset="0.9" style="stop-color:#E7E7E7"/>
		<stop  offset="0.95" style="stop-color:#E2E2E2"/>
		<stop  offset="1" style="stop-color:#A8A8A8"/>
	</linearGradient>
	<path fill="url(#SVGID_16_)" d="M383.921,280.086h138c4.5,0,7.32,3.121,7.32,6.972l0.18,247.277c0,3.75-3.328,7.219-7.211,7.219
		l-138.289,0.281c-3.75,0-6.75-3.402-6.75-7.254V286.835c0-3.75,3.148-6.75,7.031-6.75H383.921z"/>
	
		<linearGradient id="SVGID_17_" gradientUnits="userSpaceOnUse" x1="405.2231" y1="196.6572" x2="202.2231" y2="196.6572" gradientTransform="matrix(0.75 0 0 -0.75 225.5038 685.5597)">
		<stop  offset="0" style="stop-color:#939393"/>
		<stop  offset="0.01" style="stop-color:#DADADA"/>
		<stop  offset="0.05" style="stop-color:#BFBFBF"/>
		<stop  offset="0.9" style="stop-color:#BCBCBC"/>
		<stop  offset="0.95" style="stop-color:#B8B8B8"/>
		<stop  offset="1" style="stop-color:#888888"/>
	</linearGradient>
	<path fill="url(#SVGID_17_)" d="M529.421,534.582c0,3.75-3.328,6.973-7.211,6.973l-138.289-0.223c-3.75,0-6.75-2.898-6.75-6.75
		H529.421z"/>
	
		<linearGradient id="SVGID_18_" gradientUnits="userSpaceOnUse" x1="405.2231" y1="561.979" x2="202.2231" y2="561.979" gradientTransform="matrix(0.75 0 0 0.75 225.5038 -137.9117)">
		<stop  offset="0" style="stop-color:#939393"/>
		<stop  offset="0.01" style="stop-color:#DADADA"/>
		<stop  offset="0.05" style="stop-color:#BFBFBF"/>
		<stop  offset="0.9" style="stop-color:#BCBCBC"/>
		<stop  offset="0.95" style="stop-color:#B8B8B8"/>
		<stop  offset="1" style="stop-color:#888888"/>
	</linearGradient>
	<path fill="url(#SVGID_18_)" d="M529.421,287.058c0-3.75-3.328-6.972-7.211-6.972l-138.289,0.223c-3.75,0-6.75,2.898-6.75,6.75
		H529.421z"/>
	<path fill="#CDCECE" stroke="#FFFFFF" stroke-linejoin="bevel" stroke-miterlimit="10" d="M393.152,297.187h115.5
		c3.75,0,7.078,2.973,7.078,6.66l-0.328,121.59c0,3.75-2.719,6.625-6.441,6.625l-115.809,0.125c-3.75,0-6.75-3.211-6.75-6.898
		V303.937c0-3.75,2.922-6.75,6.645-6.75H393.152z"/>
	<path fill="#5383A6" d="M398.21,304.105h22.5c3,0,5.023,2.238,5.023,5.031c0.227,2.469-2.285,5.059-5.102,5.059l-22.422-0.34
		c-3,0-5.305-1.926-5.305-4.719c0.055-2.781,2.285-5.059,5.102-5.059L398.21,304.105z"/>
	<path fill="#5383A6" d="M439.929,304.105h22.5c3,0,5.023,2.238,5.023,5.031c0.227,2.469-2.285,5.059-5.102,5.059l-22.422-0.34
		c-3,0-5.305-1.926-5.305-4.719c0.055-2.781,2.281-5.059,5.102-5.059L439.929,304.105z"/>
	<path fill="#5383A6" d="M481.613,304.105h22.5c3,0,5.023,2.238,5.023,5.031c0.227,2.469-2.285,5.059-5.102,5.059l-22.422-0.34
		c-3,0-5.305-1.926-5.305-4.719c0.055-2.781,2.285-5.059,5.102-5.059L481.613,304.105z"/>
	<path fill="#5383A6" d="M398.21,322.585h22.5c3,0,5.023,2.238,5.023,5.031c0.227,2.469-2.285,5.059-5.102,5.059l-22.422-0.34
		c-3,0-5.305-1.926-5.305-4.719c0.055-2.781,2.285-5.059,5.102-5.059L398.21,322.585z"/>
	<path fill="#5383A6" d="M439.929,322.585h22.5c3,0,5.023,2.238,5.023,5.031c0.227,2.469-2.285,5.059-5.102,5.059l-22.422-0.34
		c-3,0-5.305-1.926-5.305-4.719c0.055-2.781,2.281-5.059,5.102-5.059L439.929,322.585z"/>
	<path fill="#5383A6" d="M481.613,322.585h22.5c3,0,5.023,2.238,5.023,5.031c0.227,2.469-2.285,5.059-5.102,5.059l-22.422-0.34
		c-3,0-5.305-1.926-5.305-4.719c0.055-2.781,2.285-5.059,5.102-5.059L481.613,322.585z"/>
	<path fill="#5383A6" d="M398.21,341.066h22.5c3,0,5.023,2.238,5.023,5.031c0.227,2.469-2.285,5.059-5.102,5.059l-22.422-0.34
		c-3,0-5.305-1.922-5.305-4.719c0.055-2.781,2.285-5.059,5.102-5.059L398.21,341.066z"/>
	<path fill="#5383A6" d="M439.929,341.066h22.5c3,0,5.023,2.238,5.023,5.031c0.227,2.469-2.285,5.059-5.102,5.059l-22.422-0.34
		c-3,0-5.305-1.922-5.305-4.719c0.055-2.781,2.281-5.059,5.102-5.059L439.929,341.066z"/>
	<path fill="#5383A6" d="M481.613,341.066h22.5c3,0,5.023,2.238,5.023,5.031c0.227,2.469-2.285,5.059-5.102,5.059l-22.422-0.34
		c-3,0-5.305-1.922-5.305-4.719c0.055-2.781,2.285-5.059,5.102-5.059L481.613,341.066z"/>
	<path fill="#5383A6" d="M398.21,359.503h22.5c3,0,5.023,2.238,5.023,5.031c0.227,2.469-2.285,5.059-5.102,5.059l-22.422-0.34
		c-3,0-5.305-1.926-5.305-4.719c0.055-2.781,2.285-5.059,5.102-5.059L398.21,359.503z"/>
	<path fill="#5383A6" d="M439.929,359.503h22.5c3,0,5.023,2.238,5.023,5.031c0.227,2.469-2.285,5.059-5.102,5.059l-22.422-0.34
		c-3,0-5.305-1.926-5.305-4.719c0.055-2.781,2.281-5.059,5.102-5.059L439.929,359.503z"/>
	<path fill="#5383A6" d="M481.613,359.503h22.5c3,0,5.023,2.238,5.023,5.031c0.227,2.469-2.285,5.059-5.102,5.059l-22.422-0.34
		c-3,0-5.305-1.926-5.305-4.719c0.055-2.781,2.285-5.059,5.102-5.059L481.613,359.503z"/>
	<path fill="#5383A6" d="M398.21,378.031h22.5c3,0,5.023,2.238,5.023,5.031c0.227,2.469-2.285,5.059-5.102,5.059l-22.422-0.34
		c-3,0-5.305-1.926-5.305-4.719c0.055-2.781,2.285-5.059,5.102-5.059L398.21,378.031z"/>
	<path fill="#5383A6" d="M439.929,378.031h22.5c3,0,5.023,2.238,5.023,5.031c0.227,2.469-2.285,5.059-5.102,5.059l-22.422-0.34
		c-3,0-5.305-1.926-5.305-4.719c0.055-2.781,2.281-5.059,5.102-5.059L439.929,378.031z"/>
	<path fill="#5383A6" d="M481.613,378.031h22.5c3,0,5.023,2.238,5.023,5.031c0.227,2.469-2.285,5.059-5.102,5.059l-22.422-0.34
		c-3,0-5.305-1.926-5.305-4.719c0.055-2.781,2.285-5.059,5.102-5.059L481.613,378.031z"/>
	<path fill="#5383A6" d="M398.21,396.511h22.5c3,0,5.023,2.238,5.023,5.031c0.227,2.469-2.285,5.059-5.102,5.059l-22.422-0.34
		c-3,0-5.305-1.926-5.305-4.719c0.055-2.781,2.285-5.059,5.102-5.059L398.21,396.511z"/>
	<path fill="#5383A6" d="M439.929,396.511h22.5c3,0,5.023,2.238,5.023,5.031c0.227,2.469-2.285,5.059-5.102,5.059l-22.422-0.34
		c-3,0-5.305-1.926-5.305-4.719c0.055-2.781,2.281-5.059,5.102-5.059L439.929,396.511z"/>
	<path fill="#5383A6" d="M481.613,396.511h22.5c3,0,5.023,2.238,5.023,5.031c0.227,2.469-2.285,5.059-5.102,5.059l-22.422-0.34
		c-3,0-5.305-1.926-5.305-4.719c0.055-2.781,2.285-5.059,5.102-5.059L481.613,396.511z"/>
	<path fill="#5383A6" d="M398.21,414.992h22.5c3,0,5.023,2.238,5.023,5.031c0.227,2.469-2.285,5.059-5.102,5.059l-22.422-0.34
		c-3,0-5.305-1.922-5.305-4.719c0.055-2.781,2.285-5.059,5.102-5.059L398.21,414.992z"/>
	<path fill="#5383A6" d="M439.929,414.992h22.5c3,0,5.023,2.238,5.023,5.031c0.227,2.469-2.285,5.059-5.102,5.059l-22.422-0.34
		c-3,0-5.305-1.922-5.305-4.719c0.055-2.781,2.281-5.059,5.102-5.059L439.929,414.992z"/>
	<path fill="#5383A6" d="M481.613,414.992h22.5c3,0,5.023,2.238,5.023,5.031c0.227,2.469-2.285,5.059-5.102,5.059l-22.422-0.34
		c-3,0-5.305-1.922-5.305-4.719c0.055-2.781,2.285-5.059,5.102-5.059L481.613,414.992z"/>
	<path fill="#FFFFFF" d="M428.5,296.703h2.25v136.5h-2.25V296.703z"/>
	<path fill="#FFFFFF" d="M471.632,296.527h2.25v136.5h-2.25V296.527z"/>
	<path fill="#FFFFFF" d="M386.402,318.191v-1.5h129v1.5H386.402z"/>
	<path fill="#FFFFFF" d="M386.417,336.785v-1.5h129v1.5H386.417z"/>
	<path fill="#FFFFFF" d="M386.402,355.492v-1.5h129v1.5H386.402z"/>
	<path fill="#FFFFFF" d="M386.402,374.785v-1.5h129v1.5H386.402z"/>
	<path fill="#FFFFFF" d="M386.402,393.902v-1.5h129v1.5H386.402z"/>
	<path fill="#FFFFFF" d="M386.402,411.39v-1.5h129v1.5H386.402z"/>
	
		<linearGradient id="SVGID_19_" gradientUnits="userSpaceOnUse" x1="506.2261" y1="64.8057" x2="202.2261" y2="64.8056" gradientTransform="matrix(0.75 0 0 -0.75 -3.8815 434.4161)">
		<stop  offset="0" style="stop-color:#848E9A"/>
		<stop  offset="0.15" style="stop-color:#B9C5D3"/>
		<stop  offset="0.25" style="stop-color:#DADFE7"/>
		<stop  offset="0.52" style="stop-color:#9CA8B6"/>
		<stop  offset="0.69" style="stop-color:#8B95A2"/>
		<stop  offset="0.8" style="stop-color:#838C98"/>
		<stop  offset="0.92" style="stop-color:#7B8490"/>
		<stop  offset="1" style="stop-color:#8E99A5"/>
	</linearGradient>
	<path fill="url(#SVGID_19_)" d="M147.789,306.687c0,0,4.609-18.844,65.977-23.25c0.023,0,95.773,0,95.773,0
		c61.75,2.25,66.074,23.207,66.074,23.207l0.176,181.543h-228V306.687z"/>
	
		<linearGradient id="SVGID_20_" gradientUnits="userSpaceOnUse" x1="506.6157" y1="539.1255" x2="202.2256" y2="539.1255" gradientTransform="matrix(0.75 0 0 0.75 -4.1154 103.4843)">
		<stop  offset="0" style="stop-color:#848E9A"/>
		<stop  offset="0.15" style="stop-color:#B9C5D3"/>
		<stop  offset="0.25" style="stop-color:#DADFE7"/>
		<stop  offset="0.52" style="stop-color:#9CA8B6"/>
		<stop  offset="0.69" style="stop-color:#8B95A2"/>
		<stop  offset="0.8" style="stop-color:#838C98"/>
		<stop  offset="0.92" style="stop-color:#7B8490"/>
		<stop  offset="1" style="stop-color:#8E99A5"/>
	</linearGradient>
	<path fill="url(#SVGID_20_)" d="M147.555,487.203c0,0,4.781,33.43,66.188,41.25c-0.188,0,100.847,0,100.847,0
		c58.715-8.25,61.258-41.215,61.258-41.215L147.555,487.203z"/>
	
		<linearGradient id="SVGID_21_" gradientUnits="userSpaceOnUse" x1="506.6157" y1="173.75" x2="202.2256" y2="173.75" gradientTransform="matrix(0.75 0 0 -0.75 -4.1154 415.9142)">
		<stop  offset="0" style="stop-color:#848E9A"/>
		<stop  offset="0.15" style="stop-color:#B9C5D3"/>
		<stop  offset="0.25" style="stop-color:#DADFE7"/>
		<stop  offset="0.52" style="stop-color:#9CA8B6"/>
		<stop  offset="0.69" style="stop-color:#8B95A2"/>
		<stop  offset="0.8" style="stop-color:#838C98"/>
		<stop  offset="0.92" style="stop-color:#7B8490"/>
		<stop  offset="1" style="stop-color:#8E99A5"/>
	</linearGradient>
	<path fill="url(#SVGID_21_)" d="M147.555,306.187c0,0,4.781-33.316,66.188-41.132c-0.188-0.117,99.484-0.117,99.484-0.117
		c61.578,8.25,62.621,41.332,62.621,41.332L147.555,306.187z"/>
	
		<linearGradient id="SVGID_22_" gradientUnits="userSpaceOnUse" x1="506.2251" y1="199.3042" x2="202.2261" y2="199.3042" gradientTransform="matrix(0.75 0 0 -0.75 -3.8849 456.2345)">
		<stop  offset="0" style="stop-color:#646C75"/>
		<stop  offset="0.15" style="stop-color:#949CA7"/>
		<stop  offset="0.25" style="stop-color:#CACDD1"/>
		<stop  offset="0.52" style="stop-color:#77808B"/>
		<stop  offset="0.69" style="stop-color:#69717B"/>
		<stop  offset="0.8" style="stop-color:#636B74"/>
		<stop  offset="0.92" style="stop-color:#5D646D"/>
		<stop  offset="1" style="stop-color:#6C747E"/>
	</linearGradient>
	<path fill="url(#SVGID_22_)" d="M147.785,305.257h228v3h-228V305.257z"/>
	
		<linearGradient id="SVGID_23_" gradientUnits="userSpaceOnUse" x1="506.2251" y1="199.3062" x2="202.2261" y2="199.3061" gradientTransform="matrix(0.75 0 0 -0.75 -3.8849 638.4044)">
		<stop  offset="0" style="stop-color:#646C75"/>
		<stop  offset="0.15" style="stop-color:#949CA7"/>
		<stop  offset="0.25" style="stop-color:#CACDD1"/>
		<stop  offset="0.52" style="stop-color:#77808B"/>
		<stop  offset="0.69" style="stop-color:#69717B"/>
		<stop  offset="0.8" style="stop-color:#636B74"/>
		<stop  offset="0.92" style="stop-color:#5D646D"/>
		<stop  offset="1" style="stop-color:#6C747E"/>
	</linearGradient>
	<path fill="url(#SVGID_23_)" d="M147.785,487.425h228v3h-228V487.425z"/>
	
		<linearGradient id="SVGID_24_" gradientUnits="userSpaceOnUse" x1="202.2227" y1="185.3022" x2="339.2222" y2="185.3022" gradientTransform="matrix(0.75 0 0 -0.75 60.5516 393.254)">
		<stop  offset="0" style="stop-color:#5D5D5D"/>
		<stop  offset="0.12" style="stop-color:#0A0A0A"/>
		<stop  offset="0.23" style="stop-color:#252525"/>
		<stop  offset="0.38" style="stop-color:#272727"/>
		<stop  offset="0.6" style="stop-color:#3B3B3B"/>
		<stop  offset="0.79" style="stop-color:#5A5A5A"/>
		<stop  offset="0.89" style="stop-color:#343434"/>
		<stop  offset="1" style="stop-color:#151515"/>
	</linearGradient>
	<path fill="url(#SVGID_24_)" d="M212.219,266.277h102.75v-24h-102.75V266.277z"/>
	
		<linearGradient id="SVGID_25_" gradientUnits="userSpaceOnUse" x1="202.2266" y1="190.2192" x2="379.3237" y2="190.2192" gradientTransform="matrix(0.75 0 0 -0.75 43.6195 675.9044)">
		<stop  offset="0" style="stop-color:#5D5D5D"/>
		<stop  offset="0.12" style="stop-color:#0A0A0A"/>
		<stop  offset="0.23" style="stop-color:#252525"/>
		<stop  offset="0.38" style="stop-color:#272727"/>
		<stop  offset="0.6" style="stop-color:#3B3B3B"/>
		<stop  offset="0.79" style="stop-color:#5A5A5A"/>
		<stop  offset="0.89" style="stop-color:#343434"/>
		<stop  offset="1" style="stop-color:#151515"/>
	</linearGradient>
	<path fill="url(#SVGID_25_)" d="M196.789,524.925h129.75c0.75,0,1.574,2.277,1.574,5.082l-0.074,6.168c0,3-0.742,5.379-1.75,5.379
		l-129.5-0.129c-0.75,0-1.5-2.145-1.5-4.953v-6.297c0-3,0.816-5.25,1.824-5.25H196.789z"/>
	
		<linearGradient id="SVGID_26_" gradientUnits="userSpaceOnUse" x1="212.2236" y1="184.3027" x2="212.2236" y2="201.3027" gradientTransform="matrix(0.75 0 0 -0.75 45.2274 401.3986)">
		<stop  offset="0" style="stop-color:#5D5D5D"/>
		<stop  offset="0.12" style="stop-color:#0A0A0A"/>
		<stop  offset="0.23" style="stop-color:#252525"/>
		<stop  offset="0.38" style="stop-color:#272727"/>
		<stop  offset="0.6" style="stop-color:#3B3B3B"/>
		<stop  offset="0.79" style="stop-color:#5A5A5A"/>
		<stop  offset="0.89" style="stop-color:#343434"/>
		<stop  offset="1" style="stop-color:#151515"/>
	</linearGradient>
	<path fill="url(#SVGID_26_)" d="M211.895,250.422h-15v12.75h15V250.422z"/>
	
		<linearGradient id="SVGID_27_" gradientUnits="userSpaceOnUse" x1="210.7236" y1="181.3037" x2="210.7236" y2="201.3037" gradientTransform="matrix(0.75 0 0 -0.75 34.6058 400.4454)">
		<stop  offset="0" style="stop-color:#5D5D5D"/>
		<stop  offset="0.12" style="stop-color:#0A0A0A"/>
		<stop  offset="0.23" style="stop-color:#252525"/>
		<stop  offset="0.38" style="stop-color:#272727"/>
		<stop  offset="0.6" style="stop-color:#3B3B3B"/>
		<stop  offset="0.79" style="stop-color:#5A5A5A"/>
		<stop  offset="0.89" style="stop-color:#343434"/>
		<stop  offset="1" style="stop-color:#151515"/>
	</linearGradient>
	<path fill="url(#SVGID_27_)" d="M199.023,249.469h-12.75v15h12.75V249.469z"/>
	
		<linearGradient id="SVGID_28_" gradientUnits="userSpaceOnUse" x1="207.7275" y1="176.3037" x2="207.7275" y2="201.3037" gradientTransform="matrix(0.75 0 0 -0.75 46.5795 398.3009)">
		<stop  offset="0" style="stop-color:#6F6F6F"/>
		<stop  offset="0.12" style="stop-color:#323232"/>
		<stop  offset="0.23" style="stop-color:#494949"/>
		<stop  offset="0.38" style="stop-color:#4C4C4C"/>
		<stop  offset="0.6" style="stop-color:#5B5B5B"/>
		<stop  offset="0.79" style="stop-color:#A8A8A8"/>
		<stop  offset="0.89" style="stop-color:#575757"/>
		<stop  offset="1" style="stop-color:#2E2E2E"/>
	</linearGradient>
	<path fill="url(#SVGID_28_)" d="M198.25,247.324h8.25v18.75h-8.25V247.324z"/>
	
		<linearGradient id="SVGID_29_" gradientUnits="userSpaceOnUse" x1="202.2256" y1="196.3618" x2="346.605" y2="196.3618" gradientTransform="matrix(0.75 0 0 -0.75 57.8973 387.2657)">
		<stop  offset="0" style="stop-color:#505050"/>
		<stop  offset="0.12" style="stop-color:#000000"/>
		<stop  offset="0.23" style="stop-color:#000000"/>
		<stop  offset="0.38" style="stop-color:#000000"/>
		<stop  offset="0.6" style="stop-color:#272727"/>
		<stop  offset="0.79" style="stop-color:#505050"/>
		<stop  offset="0.89" style="stop-color:#191919"/>
		<stop  offset="1" style="stop-color:#000000"/>
	</linearGradient>
	<path fill="url(#SVGID_29_)" d="M211.066,236.289h105c0.75,0,1.785,0.688,1.785,1.645l-0.285,4.355c0,0.75-0.496,1.434-1.461,1.434
		l-105.039,0.066c-0.75,0-1.5-0.844-1.5-1.801v-4.199c0-0.75,0.711-1.59,1.676-1.59L211.066,236.289z"/>
	<path stroke="#000000" stroke-linejoin="bevel" stroke-miterlimit="10" d="M30.348,429.25c-6.363-6.367-6.461-16.875-0.043-23.293
		c6.406-6.406,16.824-6.43,23.234-0.016c6.508,6.336,6.406,16.813-0.016,23.23c-6.203,6.441-16.824,6.43-23.234,0.02L30.348,429.25z
		"/>
	
		<linearGradient id="SVGID_30_" gradientUnits="userSpaceOnUse" x1="110.0015" y1="235.7427" x2="64.2" y2="209.2992" gradientTransform="matrix(0.5303 -0.5303 -0.5303 -0.5303 113.7599 581.7741)">
		<stop  offset="0.41" style="stop-color:#5D5B5B"/>
		<stop  offset="0.6" style="stop-color:#484646"/>
		<stop  offset="0.8" style="stop-color:#383636"/>
		<stop  offset="0.93" style="stop-color:#2C2B2B"/>
		<stop  offset="1" style="stop-color:#535151"/>
	</linearGradient>
	<path fill="url(#SVGID_30_)" d="M31.465,427.656c-5.301-5.305-5.477-14.676,0.195-20.348c5.641-5.641,14.859-5.676,20.523-0.012
		c5.797,5.508,5.656,14.852-0.016,20.523c-5.324,5.668-14.859,5.68-20.523,0.016L31.465,427.656z"/>
	
		<linearGradient id="SVGID_31_" gradientUnits="userSpaceOnUse" x1="76.7183" y1="224.7065" x2="67.6548" y2="224.7065" gradientTransform="matrix(0.5303 -0.5303 -0.5303 -0.5303 122.794 575.0007)">
		<stop  offset="0" style="stop-color:#343232"/>
		<stop  offset="0.15" style="stop-color:#555454"/>
		<stop  offset="0.26" style="stop-color:#797777"/>
		<stop  offset="0.41" style="stop-color:#5D5B5B"/>
		<stop  offset="0.6" style="stop-color:#484646"/>
		<stop  offset="0.8" style="stop-color:#383636"/>
		<stop  offset="0.93" style="stop-color:#2C2B2B"/>
		<stop  offset="1" style="stop-color:#535151"/>
	</linearGradient>
	<path fill="url(#SVGID_31_)" d="M32.016,409.214l1.59-1.59c1.063-1.059,2.168-0.852,2.98-0.039l15.582,15.418
		c0.531,0.531,0.516,2-0.301,2.816l-1.82,1.426c-1.063,1.063-2.09,1.164-2.902,0.348l-15.129-15.195
		c-1.063-1.063-0.965-2.219-0.148-3.035L32.016,409.214z"/>
	
		<linearGradient id="SVGID_32_" gradientUnits="userSpaceOnUse" x1="227.2266" y1="188.8066" x2="202.2266" y2="188.8066" gradientTransform="matrix(0.75 0 0 -0.75 -105.0529 606.42)">
		<stop  offset="0" style="stop-color:#292525"/>
		<stop  offset="0.03" style="stop-color:#868584"/>
		<stop  offset="0.08" style="stop-color:#383433"/>
		<stop  offset="0.64" style="stop-color:#373332"/>
		<stop  offset="0.95" style="stop-color:#363130"/>
		<stop  offset="1" style="stop-color:#252221"/>
	</linearGradient>
	<path fill="url(#SVGID_32_)" d="M48.117,455.441h15.75c0.75,0,1.273,0.695,1.273,1.555l0.227,14.945c0,1.5-0.945,1.883-1.809,1.883
		l-15.441,0.367c-0.75,0-1.5-1.082-1.5-1.938v-15.313c0-0.75,0.699-1.5,1.566-1.5H48.117z"/>
	
		<linearGradient id="SVGID_33_" gradientUnits="userSpaceOnUse" x1="221.2246" y1="192.3066" x2="202.2246" y2="192.3066" gradientTransform="matrix(0.75 0 0 -0.75 -102.7662 608.6896)">
		<stop  offset="0" style="stop-color:#AA646C"/>
		<stop  offset="0.03" style="stop-color:#F3AEB5"/>
		<stop  offset="0.08" style="stop-color:#DD848E"/>
		<stop  offset="0.64" style="stop-color:#D9828C"/>
		<stop  offset="0.95" style="stop-color:#D57F89"/>
		<stop  offset="1" style="stop-color:#9E5D64"/>
	</linearGradient>
	<path fill="url(#SVGID_33_)" d="M48.902,457.71h14.25v13.5h-14.25V457.71z"/>
	
		<linearGradient id="SVGID_34_" gradientUnits="userSpaceOnUse" x1="227.2222" y1="188.8066" x2="202.2222" y2="188.8066" gradientTransform="matrix(0.75 0 0 -0.75 -136.3234 606.42)">
		<stop  offset="0" style="stop-color:#292525"/>
		<stop  offset="0.03" style="stop-color:#868584"/>
		<stop  offset="0.08" style="stop-color:#383433"/>
		<stop  offset="0.64" style="stop-color:#373332"/>
		<stop  offset="0.95" style="stop-color:#363130"/>
		<stop  offset="1" style="stop-color:#252221"/>
	</linearGradient>
	<path fill="url(#SVGID_34_)" d="M16.844,455.441h15.75c0.75,0,1.277,0.695,1.277,1.555l0.223,14.945c0,1.5-0.941,1.883-1.809,1.883
		l-15.441,0.367c-0.75,0-1.5-1.082-1.5-1.938v-15.313c0-0.75,0.703-1.5,1.566-1.5H16.844z"/>
	
		<linearGradient id="SVGID_35_" gradientUnits="userSpaceOnUse" x1="221.2261" y1="192.3066" x2="202.2261" y2="192.3066" gradientTransform="matrix(0.75 0 0 -0.75 -134.0367 608.6896)">
		<stop  offset="0" style="stop-color:#AA646C"/>
		<stop  offset="0.03" style="stop-color:#F3AEB5"/>
		<stop  offset="0.08" style="stop-color:#DD848E"/>
		<stop  offset="0.64" style="stop-color:#D9828C"/>
		<stop  offset="0.95" style="stop-color:#D57F89"/>
		<stop  offset="1" style="stop-color:#9E5D64"/>
	</linearGradient>
	<path fill="url(#SVGID_35_)" d="M17.633,457.71h14.25v13.5h-14.25V457.71z"/>
	
		<linearGradient id="SVGID_36_" gradientUnits="userSpaceOnUse" x1="227.2266" y1="188.8066" x2="202.2266" y2="188.8066" gradientTransform="matrix(0.75 0 0 -0.75 -45.2794 606.421)">
		<stop  offset="0" style="stop-color:#292525"/>
		<stop  offset="0.03" style="stop-color:#868584"/>
		<stop  offset="0.08" style="stop-color:#383433"/>
		<stop  offset="0.64" style="stop-color:#373332"/>
		<stop  offset="0.95" style="stop-color:#363130"/>
		<stop  offset="1" style="stop-color:#252221"/>
	</linearGradient>
	<path fill="url(#SVGID_36_)" d="M107.891,455.441h15.75c0.75,0,1.273,0.695,1.273,1.555l0.227,14.945
		c0,1.5-0.945,1.883-1.809,1.883l-15.441,0.367c-0.75,0-1.5-1.082-1.5-1.938v-15.313c0-0.75,0.699-1.5,1.566-1.5H107.891z"/>
	
		<linearGradient id="SVGID_37_" gradientUnits="userSpaceOnUse" x1="221.2246" y1="192.3066" x2="202.2246" y2="192.3066" gradientTransform="matrix(0.75 0 0 -0.75 -42.9928 608.6896)">
		<stop  offset="0" style="stop-color:#AA646C"/>
		<stop  offset="0.03" style="stop-color:#F3AEB5"/>
		<stop  offset="0.08" style="stop-color:#DD848E"/>
		<stop  offset="0.64" style="stop-color:#D9828C"/>
		<stop  offset="0.95" style="stop-color:#D57F89"/>
		<stop  offset="1" style="stop-color:#9E5D64"/>
	</linearGradient>
	<path fill="url(#SVGID_37_)" d="M108.676,457.71h14.25v13.5h-14.25V457.71z"/>
	
		<linearGradient id="SVGID_38_" gradientUnits="userSpaceOnUse" x1="227.2266" y1="188.8066" x2="202.2266" y2="188.8066" gradientTransform="matrix(0.75 0 0 -0.75 -75.6271 606.421)">
		<stop  offset="0" style="stop-color:#292525"/>
		<stop  offset="0.03" style="stop-color:#868584"/>
		<stop  offset="0.08" style="stop-color:#383433"/>
		<stop  offset="0.64" style="stop-color:#373332"/>
		<stop  offset="0.95" style="stop-color:#363130"/>
		<stop  offset="1" style="stop-color:#252221"/>
	</linearGradient>
	<path fill="url(#SVGID_38_)" d="M77.543,455.441h15.75c0.75,0,1.273,0.695,1.273,1.555l0.227,14.945c0,1.5-0.945,1.883-1.809,1.883
		l-15.441,0.367c-0.75,0-1.5-1.082-1.5-1.938v-15.313c0-0.75,0.699-1.5,1.566-1.5H77.543z"/>
	
		<linearGradient id="SVGID_39_" gradientUnits="userSpaceOnUse" x1="221.2246" y1="192.3066" x2="202.2246" y2="192.3066" gradientTransform="matrix(0.75 0 0 -0.75 -73.3405 608.6896)">
		<stop  offset="0" style="stop-color:#AA646C"/>
		<stop  offset="0.03" style="stop-color:#F3AEB5"/>
		<stop  offset="0.08" style="stop-color:#DD848E"/>
		<stop  offset="0.64" style="stop-color:#D9828C"/>
		<stop  offset="0.95" style="stop-color:#D57F89"/>
		<stop  offset="1" style="stop-color:#9E5D64"/>
	</linearGradient>
	<path fill="url(#SVGID_39_)" d="M78.328,457.71h14.25v13.5h-14.25V457.71z"/>
	
		<radialGradient id="SVGID_40_" cx="235.8501" cy="167.8398" r="47.4405" gradientTransform="matrix(0.75 0 0 -0.75 -81.5201 543.5333)" gradientUnits="userSpaceOnUse">
		<stop  offset="0" style="stop-color:#76A2C9"/>
		<stop  offset="0.54" style="stop-color:#7EADD6"/>
		<stop  offset="0.74" style="stop-color:#B4CEEA"/>
		<stop  offset="0.91" style="stop-color:#76A2C9"/>
		<stop  offset="1" style="stop-color:#7EADD6"/>
	</radialGradient>
	<path fill="url(#SVGID_40_)" stroke="#5F89B9" stroke-width="0.25" stroke-linejoin="bevel" stroke-miterlimit="10" d="
		M70.148,417.304c0-13.5,11.293-24.75,25.219-24.75c13.781,0,25.219,11.238,25.219,25.098
		c-0.188,13.902-11.289,25.102-25.219,25.102c-13.969,0.051-25.219-11.238-25.219-25.102V417.304z"/>
	<path fill="#C6D5E8" stroke="#384E64" stroke-linejoin="bevel" stroke-miterlimit="10" d="M74.703,417.32
		c0-11.25,9.254-20.25,20.664-20.25c11.586,0,20.664,9.215,20.664,20.582c-0.078,11.668-9.25,20.586-20.664,20.586
		c-11.664,0.082-20.664-9.215-20.664-20.586V417.32z"/>
	<path fill="#E35020" d="M88.07,426.382c0,0,14.91-24.941,16.242-24.172c1.633,0.715-12.992,26.047-12.992,26.047L88.07,426.382z"/>
	<path fill="#4B6884" d="M92.059,417.363c0-1.5,1.484-3,3.309-3c1.941,0,3.309,1.473,3.309,3.289
		c0.133,1.961-1.48,3.293-3.309,3.293c-1.809,0.168-3.309-1.473-3.309-3.293V417.363z"/>
	<path fill="none" stroke="#000000" stroke-linejoin="bevel" stroke-miterlimit="10" d="M94.828,400.425l-0.008,4.5"/>
	<path fill="none" stroke="#000000" stroke-linejoin="bevel" stroke-miterlimit="10" d="M79.176,417.07l4.5,0.008"/>
	<path fill="none" stroke="#000000" stroke-linejoin="bevel" stroke-miterlimit="10" d="M107.996,417.07l4.5,0.008"/>
	<path fill="none" stroke="#000000" stroke-linejoin="bevel" stroke-miterlimit="10" d="M83.887,405.605l3.18,3.188"/>
	<path fill="none" stroke="#000000" stroke-linejoin="bevel" stroke-miterlimit="10" d="M106.887,405.605l-3.18,3.188"/>
	<path fill="none" stroke="#3F77A8" stroke-linejoin="bevel" stroke-miterlimit="10" d="M87.516,429.71h15.75
		c1.5,0,2.035,0.754,2.035,1.754c0.215,1.246-0.813,2.105-1.813,2.105l-15.973-0.109c-0.75,0-1.559-0.699-1.559-1.695
		c0.059-1.305,0.813-2.105,1.813-2.105L87.516,429.71z"/>
	<path fill="#FFFFFF" fill-opacity="0.3804" d="M98.602,418.066c0-11.25-14.684-21-3.273-21c11.523,0,20.664,9.219,20.664,20.586
		c-0.141,11.664-9.25,20.59-20.664,20.59c-11.727,0.074,3.625-8.922,3.625-20.289L98.602,418.066z"/>
</g>
</svg>
