<?xml version="1.0" encoding="utf-8"?>
<!-- Generator: Adobe Illustrator 16.0.0, SVG Export Plug-In . SVG Version: 6.00 Build 0)  -->
<!DOCTYPE svg PUBLIC "-//W3C//DTD SVG 1.1//EN" "http://www.w3.org/Graphics/SVG/1.1/DTD/svg11.dtd">
<svg preserveAspectRatio="none"   version="1.1" id="图层_1" xmlns="http://www.w3.org/2000/svg" xmlns:xlink="http://www.w3.org/1999/xlink" x="0px" y="0px"
	 width="300.75px" height="557.496px" viewBox="133.09 4.719 300.75 557.496" enable-background="new 133.09 4.719 300.75 557.496"
	 xml:space="preserve">
<g id="surface121">
	
		<linearGradient id="SVGID_1_" gradientUnits="userSpaceOnUse" x1="602.2251" y1="-116.1943" x2="202.2256" y2="-116.1944" gradientTransform="matrix(0.75 0 0 -0.75 -18.2438 173.6505)">
		<stop  offset="0" style="stop-color:#C1C2C3"/>
		<stop  offset="0.15" style="stop-color:#FBFDFE"/>
		<stop  offset="0.25" style="stop-color:#FDFEFE"/>
		<stop  offset="0.52" style="stop-color:#DCDEDE"/>
		<stop  offset="0.69" style="stop-color:#C4C5C6"/>
		<stop  offset="0.8" style="stop-color:#B9BABB"/>
		<stop  offset="0.97" style="stop-color:#AEB0B0"/>
		<stop  offset="1" style="stop-color:#C8CACB"/>
	</linearGradient>
	<path fill="url(#SVGID_1_)" d="M133.426,22.672h300v476.25h-300V22.672z"/>
	
		<linearGradient id="SVGID_2_" gradientUnits="userSpaceOnUse" x1="603.2241" y1="189.3071" x2="202.2251" y2="189.3071" gradientTransform="matrix(0.75 0 0 -0.75 -18.5797 155.6984)">
		<stop  offset="0" style="stop-color:#B8B8B6"/>
		<stop  offset="0.15" style="stop-color:#F1F1EF"/>
		<stop  offset="0.25" style="stop-color:#F7F7F6"/>
		<stop  offset="0.52" style="stop-color:#D2D2D0"/>
		<stop  offset="0.69" style="stop-color:#BBBBB9"/>
		<stop  offset="0.8" style="stop-color:#B0B0AF"/>
		<stop  offset="0.97" style="stop-color:#A6A6A5"/>
		<stop  offset="1" style="stop-color:#BFBFBE"/>
	</linearGradient>
	<path fill="url(#SVGID_2_)" d="M133.09,22.719h300.75l-19.5-18H151.09L133.09,22.719z"/>
	
		<linearGradient id="SVGID_3_" gradientUnits="userSpaceOnUse" x1="603.2241" y1="554.6255" x2="202.2251" y2="554.6254" gradientTransform="matrix(0.75 0 0 0.75 -18.5797 91.6014)">
		<stop  offset="0" style="stop-color:#B8B8B6"/>
		<stop  offset="0.15" style="stop-color:#F1F1EF"/>
		<stop  offset="0.25" style="stop-color:#F7F7F6"/>
		<stop  offset="0.52" style="stop-color:#D2D2D0"/>
		<stop  offset="0.69" style="stop-color:#BBBBB9"/>
		<stop  offset="0.8" style="stop-color:#B0B0AF"/>
		<stop  offset="0.97" style="stop-color:#A6A6A5"/>
		<stop  offset="1" style="stop-color:#BFBFBE"/>
	</linearGradient>
	<path fill="url(#SVGID_3_)" d="M133.09,498.57h300.75l-19.5,18H151.09L133.09,498.57z"/>
	
		<linearGradient id="SVGID_4_" gradientUnits="userSpaceOnUse" x1="333.2251" y1="201.3057" x2="333.2251" y2="185.3057" gradientTransform="matrix(0.75 0 0 -0.75 34.0463 667.6974)">
		<stop  offset="0" style="stop-color:#B5B5B5"/>
		<stop  offset="0.03" style="stop-color:#FFFFFF"/>
		<stop  offset="0.08" style="stop-color:#EBEBEB"/>
		<stop  offset="0.64" style="stop-color:#E7E7E7"/>
		<stop  offset="0.95" style="stop-color:#E2E2E2"/>
		<stop  offset="1" style="stop-color:#A8A8A8"/>
	</linearGradient>
	<path fill="url(#SVGID_4_)" d="M185.715,516.718h196.5v12h-196.5V516.718z"/>
	
		<linearGradient id="SVGID_5_" gradientUnits="userSpaceOnUse" x1="274.2236" y1="201.3047" x2="274.2236" y2="141.3047" gradientTransform="matrix(0.75 0 0 -0.75 77.0985 668.1925)">
		<stop  offset="0" style="stop-color:#B5B5B5"/>
		<stop  offset="0.03" style="stop-color:#FFFFFF"/>
		<stop  offset="0.08" style="stop-color:#EBEBEB"/>
		<stop  offset="0.64" style="stop-color:#E7E7E7"/>
		<stop  offset="0.95" style="stop-color:#E2E2E2"/>
		<stop  offset="1" style="stop-color:#A8A8A8"/>
	</linearGradient>
	<path fill="url(#SVGID_5_)" d="M336.765,517.214v40.5c0,3-1.805,4.488-4.07,4.488l-100.179,0.012c-2.25,0-3.75-1.871-3.75-4.16
		v-40.84H336.765z"/>
	
		<linearGradient id="SVGID_6_" gradientUnits="userSpaceOnUse" x1="236.4697" y1="184.0723" x2="202.2246" y2="184.0723" gradientTransform="matrix(0.75 0 0 -0.75 144.2289 676.8927)">
		<stop  offset="0" style="stop-color:#C1C2C3"/>
		<stop  offset="0.15" style="stop-color:#FBFDFE"/>
		<stop  offset="0.25" style="stop-color:#FDFEFE"/>
		<stop  offset="0.52" style="stop-color:#DCDEDE"/>
		<stop  offset="0.69" style="stop-color:#C4C5C6"/>
		<stop  offset="0.8" style="stop-color:#B9BABB"/>
		<stop  offset="0.97" style="stop-color:#AEB0B0"/>
		<stop  offset="1" style="stop-color:#C8CACB"/>
	</linearGradient>
	<path fill="url(#SVGID_6_)" d="M295.898,538.664c0-6.75,5.734-12.805,12.84-12.805c7.41,0.055,12.844,5.809,12.844,12.973
		c-0.184,7.332-5.77,12.973-12.844,12.973c-6.84,0.359-12.84-5.809-12.84-12.973V538.664z"/>
	
		<linearGradient id="SVGID_7_" gradientUnits="userSpaceOnUse" x1="208.5669" y1="186.6763" x2="202.1919" y2="186.6763" gradientTransform="matrix(0.75 0 0 -0.75 154.6913 678.8732)">
		<stop  offset="0" style="stop-color:#C1C2C3"/>
		<stop  offset="0.15" style="stop-color:#FBFDFE"/>
		<stop  offset="0.25" style="stop-color:#FDFEFE"/>
		<stop  offset="0.52" style="stop-color:#DCDEDE"/>
		<stop  offset="0.69" style="stop-color:#C4C5C6"/>
		<stop  offset="0.8" style="stop-color:#B9BABB"/>
		<stop  offset="0.97" style="stop-color:#AEB0B0"/>
		<stop  offset="1" style="stop-color:#C8CACB"/>
	</linearGradient>
	<path fill="url(#SVGID_7_)" d="M308.609,527.894c1.5,0,2.508,1.035,2.508,2.367l-0.258,17.133c0,1.5-0.816,2.492-2.133,2.492
		c-1.617-0.242-2.391-1.094-2.391-2.43l0.023-17.313c0-1.5,1.047-2.297,2.367-2.297L308.609,527.894z"/>
	<path fill="#FDE9D0" stroke="#DEB887" stroke-linejoin="bevel" stroke-miterlimit="10" d="M263.934,524.652h25.5v30h-25.5V524.652z
		"/>
	<path fill="#B60717" d="M267.965,527.667h17.25v24.75h-17.25V527.667z"/>
	<path fill="#C16264" d="M267.965,527.667h17.25v8.25h-17.25V527.667z"/>
	
		<linearGradient id="SVGID_8_" gradientUnits="userSpaceOnUse" x1="215.7378" y1="203.2368" x2="207.4757" y2="180.5369" gradientTransform="matrix(0.75 0 0 -0.75 90.5287 683.6368)">
		<stop  offset="0" style="stop-color:#8B040F"/>
		<stop  offset="0.15" style="stop-color:#BB464A"/>
		<stop  offset="0.25" style="stop-color:#DBB3B4"/>
		<stop  offset="0.52" style="stop-color:#9F0513"/>
		<stop  offset="0.69" style="stop-color:#8D040F"/>
		<stop  offset="0.8" style="stop-color:#85040E"/>
		<stop  offset="0.97" style="stop-color:#7D030C"/>
		<stop  offset="1" style="stop-color:#900410"/>
	</linearGradient>
	<path fill="url(#SVGID_8_)" stroke="#595757" stroke-linejoin="bevel" stroke-miterlimit="10" d="M242.199,539.41
		c0-3.75,3.129-6.781,7-6.781c4.25,0.031,7.012,3.172,7.012,7.086c0.238,4.195-3.137,7.086-7.012,7.086c-4,0.109-7-3.172-7-7.086
		V539.41z"/>
	
		<linearGradient id="SVGID_9_" gradientUnits="userSpaceOnUse" x1="234.4624" y1="201.3037" x2="234.4624" y2="136.1533" gradientTransform="matrix(0.75 0 0 -0.75 107.5614 241.2325)">
		<stop  offset="0" style="stop-color:#2D2929"/>
		<stop  offset="0.15" style="stop-color:#5B5858"/>
		<stop  offset="0.25" style="stop-color:#B8B7B7"/>
		<stop  offset="0.52" style="stop-color:#353130"/>
		<stop  offset="0.69" style="stop-color:#2E2A29"/>
		<stop  offset="0.8" style="stop-color:#2B2726"/>
		<stop  offset="0.97" style="stop-color:#282424"/>
		<stop  offset="1" style="stop-color:#2F2B2B"/>
	</linearGradient>
	<path fill="url(#SVGID_9_)" d="M259.23,115.004c0-13.5,10.797-24.75,24.18-24.75c13.32,0,24.175,10.918,24.175,24.434
		c-0.355,13.816-10.852,24.43-24.175,24.43c-13.68-0.113-24.18-10.961-24.18-24.43V115.004z"/>
	<path fill="#FDE9D0" stroke="#000000" stroke-linejoin="bevel" stroke-miterlimit="10" d="M264.82,114.629
		c0-10.5,8.285-18.75,18.59-18.75c9.91,0,18.589,8.395,18.589,18.809c0.32,10.441-8.352,18.762-18.589,18.762
		c-10.34-0.07-18.633-8.414-18.633-18.762L264.82,114.629z"/>
	<path fill="#EEEEEE" stroke="#717070" stroke-linejoin="bevel" stroke-miterlimit="10" d="M275.309,122.492h16.5
		c0,0,7.277-13.824-7.949-15.77c-0.301,0.02-14.816,0.594-8.469,15.586L275.309,122.492z"/>
	<path fill="#FDE9D0" stroke="#000000" stroke-linejoin="bevel" stroke-miterlimit="10" d="M281.941,100.027
		c0-0.75,0.723-1.535,1.629-1.535c0.621,0.035,1.636,0.742,1.636,1.656c-0.266,0.629-0.73,1.656-1.636,1.656
		c-0.879-0.277-1.641-0.742-1.641-1.656L281.941,100.027z"/>
	<path fill="#FDE9D0" stroke="#000000" stroke-linejoin="bevel" stroke-miterlimit="10" d="M272.914,104
		c0-0.75,0.727-1.535,1.629-1.535c0.621,0.035,1.641,0.742,1.641,1.656c-0.27,0.629-0.734,1.656-1.641,1.656
		c-0.879-0.277-1.637-0.742-1.637-1.656L272.914,104z"/>
	<path fill="#FDE9D0" stroke="#000000" stroke-linejoin="bevel" stroke-miterlimit="10" d="M290.765,104
		c0-0.75,0.723-1.535,1.629-1.535c0.621,0.035,1.641,0.742,1.641,1.656c-0.27,0.629-0.734,1.656-1.641,1.656
		c-0.879-0.277-1.637-0.742-1.637-1.656L290.765,104z"/>
	<path fill="#FDE9D0" stroke="#000000" stroke-linejoin="bevel" stroke-miterlimit="10" d="M267.711,110.57
		c0-0.75,0.723-1.531,1.629-1.531c0.621,0.031,1.637,0.742,1.637,1.656c-0.266,0.625-0.734,1.652-1.637,1.652
		c-0.879-0.277-1.641-0.738-1.641-1.652L267.711,110.57z"/>
	<path fill="#FDE9D0" stroke="#000000" stroke-linejoin="bevel" stroke-miterlimit="10" d="M295.332,110.57
		c0-0.75,0.723-1.531,1.629-1.531c0.621,0.031,1.637,0.742,1.637,1.656c-0.266,0.625-0.734,1.652-1.637,1.652
		c-0.879-0.277-1.641-0.738-1.641-1.652L295.332,110.57z"/>
	<path fill="#FDE9D0" stroke="#000000" stroke-linejoin="bevel" stroke-miterlimit="10" d="M296.257,120.523
		c0-0.75,0.723-1.535,1.629-1.535c0.621,0.035,1.637,0.742,1.637,1.656c-0.266,0.629-0.734,1.656-1.637,1.656
		c-0.879-0.277-1.641-0.742-1.641-1.656L296.257,120.523z"/>
	<path fill="#FDE9D0" stroke="#000000" stroke-linejoin="bevel" stroke-miterlimit="10" d="M267.711,120.523
		c0-0.75,0.723-1.535,1.629-1.535c0.621,0.035,1.637,0.742,1.637,1.656c-0.266,0.629-0.734,1.656-1.637,1.656
		c-0.879-0.277-1.641-0.742-1.641-1.656L267.711,120.523z"/>
	<path fill="#B60717" stroke="#B60717" stroke-linejoin="bevel" stroke-miterlimit="10" d="M272.293,113.926l19.5,4.5l0.75-3.75
		L272.293,113.926z"/>
	<path fill="#EEEEEE" stroke="#717070" stroke-linejoin="bevel" stroke-miterlimit="10" d="M282.145,115.18
		c0-1.5,1.008-2.266,2.273-2.266c1.477,0.016,2.289,1.035,2.289,2.313c-0.063,1.453-1.027,2.313-2.289,2.313
		c-1.523-0.109-2.289-1.035-2.289-2.313L282.145,115.18z"/>
</g>
</svg>
