<?xml version="1.0" encoding="utf-8"?>
<!-- Generator: Adobe Illustrator 16.0.0, SVG Export Plug-In . SVG Version: 6.00 Build 0)  -->
<!DOCTYPE svg PUBLIC "-//W3C//DTD SVG 1.1//EN" "http://www.w3.org/Graphics/SVG/1.1/DTD/svg11.dtd">
<svg preserveAspectRatio="none"   version="1.1" id="图层_1" xmlns="http://www.w3.org/2000/svg" xmlns:xlink="http://www.w3.org/1999/xlink" x="0px" y="0px"
	 width="445.867px" height="564.488px" viewBox="60.656 1.238 445.867 564.488"
	 enable-background="new 60.656 1.238 445.867 564.488" xml:space="preserve">
<g id="surface274">
	
		<linearGradient id="SVGID_1_" gradientUnits="userSpaceOnUse" x1="217.7236" y1="201.3027" x2="217.7236" y2="174.3018" gradientTransform="matrix(0.75 0 0 -0.75 316.1366 432.922)">
		<stop  offset="0" style="stop-color:#B6B6B6"/>
		<stop  offset="0.15" style="stop-color:#EFEFEF"/>
		<stop  offset="0.25" style="stop-color:#F6F6F6"/>
		<stop  offset="0.52" style="stop-color:#D0D0D0"/>
		<stop  offset="0.69" style="stop-color:#B9B9B9"/>
		<stop  offset="0.8" style="stop-color:#AFAFAF"/>
		<stop  offset="0.97" style="stop-color:#A5A5A5"/>
		<stop  offset="1" style="stop-color:#BEBEBE"/>
	</linearGradient>
	<path fill="url(#SVGID_1_)" d="M467.804,281.945h23.25v20.25h-23.25V281.945z"/>
	
		<linearGradient id="SVGID_2_" gradientUnits="userSpaceOnUse" x1="212.7266" y1="201.3027" x2="212.7266" y2="174.3027" gradientTransform="matrix(0.75 0 0 -0.75 339.1034 432.922)">
		<stop  offset="0" style="stop-color:#B39D73"/>
		<stop  offset="0.15" style="stop-color:#EBD0A1"/>
		<stop  offset="0.25" style="stop-color:#F4E5CF"/>
		<stop  offset="0.52" style="stop-color:#CDB384"/>
		<stop  offset="0.69" style="stop-color:#B69F75"/>
		<stop  offset="0.8" style="stop-color:#AC966E"/>
		<stop  offset="0.97" style="stop-color:#A28E68"/>
		<stop  offset="1" style="stop-color:#BAA378"/>
	</linearGradient>
	<path fill="url(#SVGID_2_)" d="M490.773,281.945h15.75v20.25h-15.75V281.945z"/>
	
		<linearGradient id="SVGID_3_" gradientUnits="userSpaceOnUse" x1="217.7231" y1="201.3047" x2="217.7231" y2="174.3037" gradientTransform="matrix(0.75 0 0 -0.75 315.9218 574.6144)">
		<stop  offset="0" style="stop-color:#B6B6B6"/>
		<stop  offset="0.15" style="stop-color:#EFEFEF"/>
		<stop  offset="0.25" style="stop-color:#F6F6F6"/>
		<stop  offset="0.52" style="stop-color:#D0D0D0"/>
		<stop  offset="0.69" style="stop-color:#B9B9B9"/>
		<stop  offset="0.8" style="stop-color:#AFAFAF"/>
		<stop  offset="0.97" style="stop-color:#A5A5A5"/>
		<stop  offset="1" style="stop-color:#BEBEBE"/>
	</linearGradient>
	<path fill="url(#SVGID_3_)" d="M467.589,423.636h23.25v20.25h-23.25V423.636z"/>
	
		<linearGradient id="SVGID_4_" gradientUnits="userSpaceOnUse" x1="212.7271" y1="201.3047" x2="212.7271" y2="174.3047" gradientTransform="matrix(0.75 0 0 -0.75 338.8876 574.6144)">
		<stop  offset="0" style="stop-color:#B39D73"/>
		<stop  offset="0.15" style="stop-color:#EBD0A1"/>
		<stop  offset="0.25" style="stop-color:#F4E5CF"/>
		<stop  offset="0.52" style="stop-color:#CDB384"/>
		<stop  offset="0.69" style="stop-color:#B69F75"/>
		<stop  offset="0.8" style="stop-color:#AC966E"/>
		<stop  offset="0.97" style="stop-color:#A28E68"/>
		<stop  offset="1" style="stop-color:#BAA378"/>
	</linearGradient>
	<path fill="url(#SVGID_4_)" d="M490.558,423.636h15.75v20.25h-15.75V423.636z"/>
	<path fill="#999EA1" d="M60.656,26.211h408.75v517.5H60.656V26.211z"/>
	
		<linearGradient id="SVGID_5_" gradientUnits="userSpaceOnUse" x1="723.2231" y1="-131.1953" x2="202.2241" y2="-131.1954" gradientTransform="matrix(0.75 0 0 -0.75 -81.8639 185.8751)">
		<stop  offset="0" style="stop-color:#ACB0B2"/>
		<stop  offset="0.03" style="stop-color:#F5FAFC"/>
		<stop  offset="0.08" style="stop-color:#E0E5E7"/>
		<stop  offset="0.64" style="stop-color:#DCE2E3"/>
		<stop  offset="0.95" style="stop-color:#D7DDDE"/>
		<stop  offset="1" style="stop-color:#A0A4A5"/>
	</linearGradient>
	<path fill="url(#SVGID_5_)" d="M69.805,34.898h390.75v498.75H69.805V34.898z"/>
	
		<linearGradient id="SVGID_6_" gradientUnits="userSpaceOnUse" x1="747.2261" y1="186.8032" x2="202.2271" y2="186.8032" gradientTransform="matrix(0.75 0 0 -0.75 -91.0148 694.9523)">
		<stop  offset="0" style="stop-color:#7A8586"/>
		<stop  offset="0.03" style="stop-color:#C2CCCE"/>
		<stop  offset="0.08" style="stop-color:#A0AEB0"/>
		<stop  offset="0.64" style="stop-color:#9DABAD"/>
		<stop  offset="0.95" style="stop-color:#9AA7A9"/>
		<stop  offset="1" style="stop-color:#717B7C"/>
	</linearGradient>
	<path fill="url(#SVGID_6_)" d="M60.656,543.976h408.75v21.75H60.656V543.976z"/>
	<path fill="#3E3938" d="M108.871,270.363h148.5v99h-148.5V270.363z"/>
	<path fill="#3E3938" d="M272.734,270.363h148.5v99h-148.5V270.363z"/>
	<path fill="#3E3938" d="M108.871,384.367h148.5v99h-148.5V384.367z"/>
	<path fill="#3E3938" d="M272.734,384.367h148.5v99h-148.5V384.367z"/>
	
		<linearGradient id="SVGID_7_" gradientUnits="userSpaceOnUse" x1="400.2251" y1="188.8027" x2="202.2256" y2="188.8027" gradientTransform="matrix(0.75 0 0 -0.75 -57.9 158.5861)">
		<stop  offset="0" style="stop-color:#ACB0B2"/>
		<stop  offset="0.03" style="stop-color:#F5FAFC"/>
		<stop  offset="0.08" style="stop-color:#E0E5E7"/>
		<stop  offset="0.64" style="stop-color:#DCE2E3"/>
		<stop  offset="0.95" style="stop-color:#D7DDDE"/>
		<stop  offset="1" style="stop-color:#A0A4A5"/>
	</linearGradient>
	<path fill="url(#SVGID_7_)" d="M93.77,7.609h148.5v18.75H93.77V7.609z"/>
	
		<linearGradient id="SVGID_8_" gradientUnits="userSpaceOnUse" x1="414.2271" y1="197.3047" x2="202.2266" y2="197.3047" gradientTransform="matrix(0.75 0 0 -0.75 -62.9596 152.2159)">
		<stop  offset="0" style="stop-color:#9B9B9C"/>
		<stop  offset="0.03" style="stop-color:#E4E4E4"/>
		<stop  offset="0.08" style="stop-color:#CBCBCB"/>
		<stop  offset="0.64" style="stop-color:#C7C7C8"/>
		<stop  offset="0.95" style="stop-color:#C3C3C4"/>
		<stop  offset="1" style="stop-color:#909091"/>
	</linearGradient>
	<path fill="url(#SVGID_8_)" d="M88.711,1.238h159v6h-159V1.238z"/>
	
		<linearGradient id="SVGID_9_" gradientUnits="userSpaceOnUse" x1="400.2222" y1="188.8027" x2="202.2222" y2="188.8027" gradientTransform="matrix(0.75 0 0 -0.75 136.1678 158.5861)">
		<stop  offset="0" style="stop-color:#ACB0B2"/>
		<stop  offset="0.03" style="stop-color:#F5FAFC"/>
		<stop  offset="0.08" style="stop-color:#E0E5E7"/>
		<stop  offset="0.64" style="stop-color:#DCE2E3"/>
		<stop  offset="0.95" style="stop-color:#D7DDDE"/>
		<stop  offset="1" style="stop-color:#A0A4A5"/>
	</linearGradient>
	<path fill="url(#SVGID_9_)" d="M287.835,7.609h148.5v18.75h-148.5V7.609z"/>
	
		<linearGradient id="SVGID_10_" gradientUnits="userSpaceOnUse" x1="414.2241" y1="197.3047" x2="202.2241" y2="197.3047" gradientTransform="matrix(0.75 0 0 -0.75 131.1083 152.2159)">
		<stop  offset="0" style="stop-color:#9B9B9C"/>
		<stop  offset="0.03" style="stop-color:#E4E4E4"/>
		<stop  offset="0.08" style="stop-color:#CBCBCB"/>
		<stop  offset="0.64" style="stop-color:#C7C7C8"/>
		<stop  offset="0.95" style="stop-color:#C3C3C4"/>
		<stop  offset="1" style="stop-color:#909091"/>
	</linearGradient>
	<path fill="url(#SVGID_10_)" d="M282.777,1.238h159v6h-159V1.238z"/>
	<path fill="#B4B5B5" d="M108.871,276.441h148.5v3.75h-148.5V276.441z"/>
	<path fill="#B4B5B5" d="M108.871,283.754h148.5v3.75h-148.5V283.754z"/>
	<path fill="#B4B5B5" d="M108.871,292.152h148.5v3.75h-148.5V292.152z"/>
	<path fill="#B4B5B5" d="M108.871,309.71h148.5v3.75h-148.5V309.71z"/>
	<path fill="#B4B5B5" d="M108.871,326.343h148.5v3.75h-148.5V326.343z"/>
	<path fill="#B4B5B5" d="M108.871,318.027h148.5v3.75h-148.5V318.027z"/>
	<path fill="#B4B5B5" d="M108.871,300.546h148.5v3.75h-148.5V300.546z"/>
	<path fill="#B4B5B5" d="M108.871,334.66h148.5v3.75h-148.5V334.66z"/>
	<path fill="#B4B5B5" d="M108.871,342.98h148.5v3.75h-148.5V342.98z"/>
	<path fill="#B4B5B5" d="M108.871,351.296h148.5v3.75h-148.5V351.296z"/>
	<path fill="#B4B5B5" d="M108.871,359.613h148.5v3.75h-148.5V359.613z"/>
	<path fill="#B4B5B5" d="M272.734,276.445h148.5v3.75h-148.5V276.445z"/>
	<path fill="#B4B5B5" d="M272.734,283.754h148.5v3.75h-148.5V283.754z"/>
	<path fill="#B4B5B5" d="M272.734,292.152h148.5v3.75h-148.5V292.152z"/>
	<path fill="#B4B5B5" d="M272.734,309.71h148.5v3.75h-148.5V309.71z"/>
	<path fill="#B4B5B5" d="M272.734,326.343h148.5v3.75h-148.5V326.343z"/>
	<path fill="#B4B5B5" d="M272.734,318.027h148.5v3.75h-148.5V318.027z"/>
	<path fill="#B4B5B5" d="M272.734,300.546h148.5v3.75h-148.5V300.546z"/>
	<path fill="#B4B5B5" d="M272.734,334.664h148.5v3.75h-148.5V334.664z"/>
	<path fill="#B4B5B5" d="M272.734,342.98h148.5v3.75h-148.5V342.98z"/>
	<path fill="#B4B5B5" d="M272.734,351.296h148.5v3.75h-148.5V351.296z"/>
	<path fill="#B4B5B5" d="M272.734,359.613h148.5v3.75h-148.5V359.613z"/>
	<path fill="#B4B5B5" d="M108.871,390.449h148.5v3.75h-148.5V390.449z"/>
	<path fill="#B4B5B5" d="M108.871,397.757h148.5v3.75h-148.5V397.757z"/>
	<path fill="#B4B5B5" d="M108.871,406.156h148.5v3.75h-148.5V406.156z"/>
	<path fill="#B4B5B5" d="M108.871,423.714h148.5v3.75h-148.5V423.714z"/>
	<path fill="#B4B5B5" d="M108.871,440.351h148.5v3.75h-148.5V440.351z"/>
	<path fill="#B4B5B5" d="M108.871,432.031h148.5v3.75h-148.5V432.031z"/>
	<path fill="#B4B5B5" d="M108.871,414.55h148.5v3.75h-148.5V414.55z"/>
	<path fill="#B4B5B5" d="M108.871,448.667h148.5v3.75h-148.5V448.667z"/>
	<path fill="#B4B5B5" d="M108.871,456.984h148.5v3.75h-148.5V456.984z"/>
	<path fill="#B4B5B5" d="M108.871,465.3h148.5v3.75h-148.5V465.3z"/>
	<path fill="#B4B5B5" d="M108.871,473.617h148.5v3.75h-148.5V473.617z"/>
	<path fill="#B4B5B5" d="M272.734,390.449h148.5v3.75h-148.5V390.449z"/>
	<path fill="#B4B5B5" d="M272.734,397.757h148.5v3.75h-148.5V397.757z"/>
	<path fill="#B4B5B5" d="M272.734,406.156h148.5v3.75h-148.5V406.156z"/>
	<path fill="#B4B5B5" d="M272.734,423.714h148.5v3.75h-148.5V423.714z"/>
	<path fill="#B4B5B5" d="M272.734,440.351h148.5v3.75h-148.5V440.351z"/>
	<path fill="#B4B5B5" d="M272.734,432.031h148.5v3.75h-148.5V432.031z"/>
	<path fill="#B4B5B5" d="M272.734,414.55h148.5v3.75h-148.5V414.55z"/>
	<path fill="#B4B5B5" d="M272.734,448.667h148.5v3.75h-148.5V448.667z"/>
	<path fill="#B4B5B5" d="M272.734,456.984h148.5v3.75h-148.5V456.984z"/>
	<path fill="#B4B5B5" d="M272.734,465.3h148.5v3.75h-148.5V465.3z"/>
	<path fill="#B4B5B5" d="M272.734,473.617h148.5v3.75h-148.5V473.617z"/>
	<path fill="#ACB0B2" d="M371.777,52.27h60v15h-60V52.27z"/>
	<path fill="#EEEEEE" d="M416.703,52.27h15v15h-15V52.27z"/>
</g>
</svg>
