<?xml version="1.0" encoding="utf-8"?>
<!-- Generator: Adobe Illustrator 16.0.0, SVG Export Plug-In . SVG Version: 6.00 Build 0)  -->
<!DOCTYPE svg PUBLIC "-//W3C//DTD SVG 1.1//EN" "http://www.w3.org/Graphics/SVG/1.1/DTD/svg11.dtd">
<svg preserveAspectRatio="none"   version="1.1" id="图层_1" xmlns="http://www.w3.org/2000/svg" xmlns:xlink="http://www.w3.org/1999/xlink" x="0px" y="0px"
	 width="557.25px" height="498.14px" viewBox="4.977 34.293 557.25 498.14" enable-background="new 4.977 34.293 557.25 498.14"
	 xml:space="preserve">
<g id="surface369">
	
		<linearGradient id="SVGID_1_" gradientUnits="userSpaceOnUse" x1="651.2212" y1="37.8032" x2="202.2227" y2="37.8032" gradientTransform="matrix(0.75 0 0 -0.75 -35.8512 185.2697)">
		<stop  offset="0" style="stop-color:#C1C2C3"/>
		<stop  offset="0.15" style="stop-color:#FBFDFE"/>
		<stop  offset="0.25" style="stop-color:#FDFEFE"/>
		<stop  offset="0.52" style="stop-color:#DCDEDE"/>
		<stop  offset="0.69" style="stop-color:#C4C5C6"/>
		<stop  offset="0.8" style="stop-color:#B9BABB"/>
		<stop  offset="0.97" style="stop-color:#AEB0B0"/>
		<stop  offset="1" style="stop-color:#C8CACB"/>
	</linearGradient>
	<path fill="url(#SVGID_1_)" d="M115.816,34.293h336.75v245.25h-336.75V34.293z"/>
	
		<linearGradient id="SVGID_2_" gradientUnits="userSpaceOnUse" x1="659.7134" y1="194.3052" x2="202.2251" y2="194.3051" gradientTransform="matrix(0.75 0 0 -0.75 -39.0206 206.6613)">
		<stop  offset="0" style="stop-color:#AFB1B1"/>
		<stop  offset="0.15" style="stop-color:#E7E9E9"/>
		<stop  offset="0.25" style="stop-color:#F1F2F2"/>
		<stop  offset="0.52" style="stop-color:#C8CACA"/>
		<stop  offset="0.69" style="stop-color:#B2B4B4"/>
		<stop  offset="0.8" style="stop-color:#A8AAAA"/>
		<stop  offset="0.97" style="stop-color:#9FA0A0"/>
		<stop  offset="1" style="stop-color:#B6B8B8"/>
	</linearGradient>
	<path fill="url(#SVGID_2_)" d="M114.148,55.684h339.75c1.5,0,1.867,0.711,1.867,1.586l-0.367,7.414c0,0.75-0.34,1.301-1.215,1.301
		l-340.035,0.199c-0.75,0-1.5-0.91-1.5-1.785v-7.215c0-0.75,0.711-1.5,1.586-1.5H114.148z"/>
	
		<linearGradient id="SVGID_3_" gradientUnits="userSpaceOnUse" x1="659.7134" y1="194.3062" x2="202.2251" y2="194.3061" gradientTransform="matrix(0.75 0 0 -0.75 -39.0206 389.6779)">
		<stop  offset="0" style="stop-color:#AFB1B1"/>
		<stop  offset="0.15" style="stop-color:#E7E9E9"/>
		<stop  offset="0.25" style="stop-color:#F1F2F2"/>
		<stop  offset="0.52" style="stop-color:#C8CACA"/>
		<stop  offset="0.69" style="stop-color:#B2B4B4"/>
		<stop  offset="0.8" style="stop-color:#A8AAAA"/>
		<stop  offset="0.97" style="stop-color:#9FA0A0"/>
		<stop  offset="1" style="stop-color:#B6B8B8"/>
	</linearGradient>
	<path fill="url(#SVGID_3_)" d="M114.148,238.699h339.75c1.5,0,1.867,0.711,1.867,1.586l-0.367,7.414c0,0.75-0.34,1.301-1.215,1.301
		l-340.035,0.199c-0.75,0-1.5-0.91-1.5-1.785v-7.215c0-0.75,0.711-1.5,1.586-1.5H114.148z"/>
	
		<linearGradient id="SVGID_4_" gradientUnits="userSpaceOnUse" x1="944.8579" y1="91.897" x2="202.2236" y2="91.8969" gradientTransform="matrix(0.75 0 0 -0.75 -146.6915 430.8771)">
		<stop  offset="0" style="stop-color:#C1C2C3"/>
		<stop  offset="0.15" style="stop-color:#FBFDFE"/>
		<stop  offset="0.25" style="stop-color:#FDFEFE"/>
		<stop  offset="0.52" style="stop-color:#DCDEDE"/>
		<stop  offset="0.69" style="stop-color:#C4C5C6"/>
		<stop  offset="0.8" style="stop-color:#B9BABB"/>
		<stop  offset="0.97" style="stop-color:#AEB0B0"/>
		<stop  offset="1" style="stop-color:#C8CACB"/>
	</linearGradient>
	<path fill="url(#SVGID_4_)" d="M115.977,279.898h336.75c0,0,109.227,42.785,109.227,164.003c0.273,0.246-556.976,0-556.976,0
		c2.25-117.504,110.762-164.003,110.762-164.003H115.977z"/>
	
		<linearGradient id="SVGID_5_" gradientUnits="userSpaceOnUse" x1="743.2251" y1="172.8042" x2="202.2251" y2="172.8042" gradientTransform="matrix(0.75 0 0 -0.75 -67.5485 594.879)">
		<stop  offset="0" style="stop-color:#C1C2C3"/>
		<stop  offset="0.15" style="stop-color:#FBFDFE"/>
		<stop  offset="0.25" style="stop-color:#FDFEFE"/>
		<stop  offset="0.52" style="stop-color:#DCDEDE"/>
		<stop  offset="0.69" style="stop-color:#C4C5C6"/>
		<stop  offset="0.8" style="stop-color:#B9BABB"/>
		<stop  offset="0.97" style="stop-color:#AEB0B0"/>
		<stop  offset="1" style="stop-color:#C8CACB"/>
	</linearGradient>
	<path fill="url(#SVGID_5_)" d="M84.121,443.902h405.75v42.75H84.121V443.902z"/>
	<path fill="#D1D2D3" d="M4.977,486.683h557.25v45.75H4.977V486.683z"/>
</g>
</svg>
