<?xml version="1.0" encoding="utf-8"?>
<!-- Generator: Adobe Illustrator 16.0.0, SVG Export Plug-In . SVG Version: 6.00 Build 0)  -->
<!DOCTYPE svg PUBLIC "-//W3C//DTD SVG 1.1//EN" "http://www.w3.org/Graphics/SVG/1.1/DTD/svg11.dtd">
<svg preserveAspectRatio="none"   version="1.1" id="图层_1" xmlns="http://www.w3.org/2000/svg" xmlns:xlink="http://www.w3.org/1999/xlink" x="0px" y="0px"
	 width="566.996px" height="295.539px" viewBox="-0.059 269.25 566.996 295.539"
	 enable-background="new -0.059 269.25 566.996 295.539" xml:space="preserve">
<g id="surface314">
	
		<linearGradient id="SVGID_1_" gradientUnits="userSpaceOnUse" x1="243.2261" y1="192.3057" x2="202.2261" y2="192.3057" gradientTransform="matrix(0.75 0 0 -0.75 -74.7164 633.4816)">
		<stop  offset="0" style="stop-color:#316090"/>
		<stop  offset="0.03" style="stop-color:#8AAAD7"/>
		<stop  offset="0.08" style="stop-color:#427FBC"/>
		<stop  offset="0.64" style="stop-color:#417DB9"/>
		<stop  offset="0.95" style="stop-color:#407AB4"/>
		<stop  offset="1" style="stop-color:#2D5985"/>
	</linearGradient>
	<path fill="url(#SVGID_1_)" d="M76.953,496.003h30.75v-13.5h-30.75V496.003z"/>
	
		<linearGradient id="SVGID_2_" gradientUnits="userSpaceOnUse" x1="464.7261" y1="201.3027" x2="464.7261" y2="177.3018" gradientTransform="matrix(0.75 0 0 -0.75 -64.9161 524.4337)">
		<stop  offset="0" style="stop-color:#071536"/>
		<stop  offset="0.03" style="stop-color:#7D7F8C"/>
		<stop  offset="0.08" style="stop-color:#0C1F49"/>
		<stop  offset="0.64" style="stop-color:#0C1F48"/>
		<stop  offset="0.95" style="stop-color:#0B1E46"/>
		<stop  offset="1" style="stop-color:#061331"/>
	</linearGradient>
	<path fill="url(#SVGID_2_)" d="M86.754,373.457h393.75v18H86.754V373.457z"/>
	
		<linearGradient id="SVGID_3_" gradientUnits="userSpaceOnUse" x1="482.2222" y1="201.3047" x2="482.2222" y2="105.3037" gradientTransform="matrix(0.75 0 0 -0.75 -78.3434 456.298)">
		<stop  offset="0" style="stop-color:#04356C"/>
		<stop  offset="0.15" style="stop-color:#476299"/>
		<stop  offset="0.25" style="stop-color:#B3B9CC"/>
		<stop  offset="0.52" style="stop-color:#063E7C"/>
		<stop  offset="0.69" style="stop-color:#05366E"/>
		<stop  offset="0.8" style="stop-color:#043268"/>
		<stop  offset="0.97" style="stop-color:#042F62"/>
		<stop  offset="1" style="stop-color:#053871"/>
	</linearGradient>
	<path fill="url(#SVGID_3_)" d="M73.324,305.32h420v72h-420V305.32z"/>
	
		<linearGradient id="SVGID_4_" gradientUnits="userSpaceOnUse" x1="210.8833" y1="201.3047" x2="210.8833" y2="89.1064" gradientTransform="matrix(0.75 0 0 -0.75 -90.3424 450.0948)">
		<stop  offset="0" style="stop-color:#04356C"/>
		<stop  offset="0.15" style="stop-color:#476299"/>
		<stop  offset="0.25" style="stop-color:#B3B9CC"/>
		<stop  offset="0.52" style="stop-color:#063E7C"/>
		<stop  offset="0.69" style="stop-color:#05366E"/>
		<stop  offset="0.8" style="stop-color:#043268"/>
		<stop  offset="0.97" style="stop-color:#042F62"/>
		<stop  offset="1" style="stop-color:#053871"/>
	</linearGradient>
	<path fill="url(#SVGID_4_)" d="M64.328,299.117h7.5c1.5,0,2.484,1.285,2.484,2.871l-0.234,78.129c0,1.5-1.035,3.148-2.598,3.148
		l-7.152-0.148c-1.5,0-3-1.188-3-2.77v-78.23c0-1.5,1.266-3,2.832-3H64.328z"/>
	
		<linearGradient id="SVGID_5_" gradientUnits="userSpaceOnUse" x1="210.8823" y1="201.3057" x2="210.8823" y2="89.1074" gradientTransform="matrix(0.75 0 0 -0.75 341.0819 450.0948)">
		<stop  offset="0" style="stop-color:#04356C"/>
		<stop  offset="0.15" style="stop-color:#476299"/>
		<stop  offset="0.25" style="stop-color:#B3B9CC"/>
		<stop  offset="0.52" style="stop-color:#063E7C"/>
		<stop  offset="0.69" style="stop-color:#05366E"/>
		<stop  offset="0.8" style="stop-color:#043268"/>
		<stop  offset="0.97" style="stop-color:#042F62"/>
		<stop  offset="1" style="stop-color:#053871"/>
	</linearGradient>
	<path fill="url(#SVGID_5_)" d="M495.75,299.117h7.5c1.5,0,2.488,1.285,2.488,2.871l-0.238,78.129c0,1.5-1.031,3.148-2.598,3.148
		l-7.152-0.148c-1.5,0-3-1.188-3-2.77v-78.23c0-1.5,1.27-3,2.836-3H495.75z"/>
	
		<linearGradient id="SVGID_6_" gradientUnits="userSpaceOnUse" x1="243.2256" y1="201.3047" x2="243.2256" y2="112.3047" gradientTransform="matrix(0.75 0 0 -0.75 -151.7277 458.838)">
		<stop  offset="0" style="stop-color:#04356C"/>
		<stop  offset="0.15" style="stop-color:#476299"/>
		<stop  offset="0.25" style="stop-color:#B3B9CC"/>
		<stop  offset="0.52" style="stop-color:#063E7C"/>
		<stop  offset="0.69" style="stop-color:#05366E"/>
		<stop  offset="0.8" style="stop-color:#043268"/>
		<stop  offset="0.97" style="stop-color:#042F62"/>
		<stop  offset="1" style="stop-color:#053871"/>
	</linearGradient>
	<path fill="url(#SVGID_6_)" d="M61.441,307.859h-48c0,0-13.5,0.32-13.5,33.164c0,32.836,13.223,33.5,13.223,33.5l48.277,0.086
		V307.859z"/>
	
		<linearGradient id="SVGID_7_" gradientUnits="userSpaceOnUse" x1="206.7041" y1="201.3037" x2="206.7041" y2="112.3037" gradientTransform="matrix(-0.75 0 0 -0.75 691.214 458.838)">
		<stop  offset="0" style="stop-color:#04356C"/>
		<stop  offset="0.15" style="stop-color:#476299"/>
		<stop  offset="0.25" style="stop-color:#B3B9CC"/>
		<stop  offset="0.52" style="stop-color:#063E7C"/>
		<stop  offset="0.69" style="stop-color:#05366E"/>
		<stop  offset="0.8" style="stop-color:#043268"/>
		<stop  offset="0.97" style="stop-color:#042F62"/>
		<stop  offset="1" style="stop-color:#053871"/>
	</linearGradient>
	<path fill="url(#SVGID_7_)" d="M505.437,307.859h48c0,0,13.5,0.32,13.5,33.164c0,32.836-13.223,33.5-13.223,33.5l-48.277,0.086
		V307.859z"/>
	
		<linearGradient id="SVGID_8_" gradientUnits="userSpaceOnUse" x1="252.2432" y1="183.6475" x2="202.2246" y2="183.6475" gradientTransform="matrix(0.75 0 0 -0.75 -135.5944 442.1486)">
		<stop  offset="0" style="stop-color:#04356C"/>
		<stop  offset="0.15" style="stop-color:#476299"/>
		<stop  offset="0.25" style="stop-color:#B3B9CC"/>
		<stop  offset="0.52" style="stop-color:#063E7C"/>
		<stop  offset="0.69" style="stop-color:#05366E"/>
		<stop  offset="0.8" style="stop-color:#043268"/>
		<stop  offset="0.97" style="stop-color:#042F62"/>
		<stop  offset="1" style="stop-color:#053871"/>
	</linearGradient>
	<path fill="url(#SVGID_8_)" d="M16.074,291.171h37.5v21.75c0,0,1.184,4.734-18.332,4.734c-19.168-0.234-19.168-4.961-19.168-4.961
		V291.171z"/>
	
		<linearGradient id="SVGID_9_" gradientUnits="userSpaceOnUse" x1="283.228" y1="185.3042" x2="202.228" y2="185.3042" gradientTransform="matrix(0.75 0 0 -0.75 -146.6124 421.0245)">
		<stop  offset="0" style="stop-color:#04356C"/>
		<stop  offset="0.15" style="stop-color:#476299"/>
		<stop  offset="0.25" style="stop-color:#B3B9CC"/>
		<stop  offset="0.52" style="stop-color:#063E7C"/>
		<stop  offset="0.69" style="stop-color:#05366E"/>
		<stop  offset="0.8" style="stop-color:#043268"/>
		<stop  offset="0.97" style="stop-color:#042F62"/>
		<stop  offset="1" style="stop-color:#053871"/>
	</linearGradient>
	<path fill="url(#SVGID_9_)" d="M5.059,270.047h60.75v24H5.059V270.047z"/>
	
		<linearGradient id="SVGID_10_" gradientUnits="userSpaceOnUse" x1="261.2246" y1="174.3027" x2="202.2246" y2="174.3027" gradientTransform="matrix(0.75 0 0 -0.75 261.3427 609.2491)">
		<stop  offset="0" style="stop-color:#316090"/>
		<stop  offset="0.03" style="stop-color:#8AAAD7"/>
		<stop  offset="0.08" style="stop-color:#427FBC"/>
		<stop  offset="0.64" style="stop-color:#417DB9"/>
		<stop  offset="0.95" style="stop-color:#407AB4"/>
		<stop  offset="1" style="stop-color:#2D5985"/>
	</linearGradient>
	<path fill="url(#SVGID_10_)" d="M413.011,458.273h44.25v40.5h-44.25V458.273z"/>
	
		<linearGradient id="SVGID_11_" gradientUnits="userSpaceOnUse" x1="261.2266" y1="174.3047" x2="202.2266" y2="174.3047" gradientTransform="matrix(0.75 0 0 -0.75 -29.1505 610.6447)">
		<stop  offset="0" style="stop-color:#316090"/>
		<stop  offset="0.03" style="stop-color:#8AAAD7"/>
		<stop  offset="0.08" style="stop-color:#427FBC"/>
		<stop  offset="0.64" style="stop-color:#417DB9"/>
		<stop  offset="0.95" style="stop-color:#407AB4"/>
		<stop  offset="1" style="stop-color:#2D5985"/>
	</linearGradient>
	<path fill="url(#SVGID_11_)" d="M122.52,459.667h44.25v40.5h-44.25V459.667z"/>
	
		<linearGradient id="SVGID_12_" gradientUnits="userSpaceOnUse" x1="512.2261" y1="201.3047" x2="512.2261" y2="120.3037" gradientTransform="matrix(0.75 0 0 -0.75 -100.7238 644.6222)">
		<stop  offset="0" style="stop-color:#305F8F"/>
		<stop  offset="0.15" style="stop-color:#5E8AC0"/>
		<stop  offset="0.25" style="stop-color:#B8C6DD"/>
		<stop  offset="0.52" style="stop-color:#396DA3"/>
		<stop  offset="0.69" style="stop-color:#316191"/>
		<stop  offset="0.8" style="stop-color:#2E5B89"/>
		<stop  offset="0.97" style="stop-color:#2B5581"/>
		<stop  offset="1" style="stop-color:#336394"/>
	</linearGradient>
	<path fill="url(#SVGID_12_)" d="M50.945,493.644h465v60.75h-465V493.644z"/>
	
		<linearGradient id="SVGID_13_" gradientUnits="userSpaceOnUse" x1="212.457" y1="201.3037" x2="212.457" y2="92.0947" gradientTransform="matrix(0.75 0 0 -0.75 -116.0704 633.8605)">
		<stop  offset="0" style="stop-color:#305F8F"/>
		<stop  offset="0.15" style="stop-color:#5E8AC0"/>
		<stop  offset="0.25" style="stop-color:#B8C6DD"/>
		<stop  offset="0.52" style="stop-color:#396DA3"/>
		<stop  offset="0.69" style="stop-color:#316191"/>
		<stop  offset="0.8" style="stop-color:#2E5B89"/>
		<stop  offset="0.97" style="stop-color:#2B5581"/>
		<stop  offset="1" style="stop-color:#336394"/>
	</linearGradient>
	<path fill="url(#SVGID_13_)" d="M38.598,482.882h9.75c1.5,0,2.598,1.285,2.598,2.871l-0.348,75.879c0,1.5-0.922,3.156-2.484,3.156
		l-9.516-0.156c-1.5,0-3-1.129-3-2.715v-76.035c0-1.5,1.27-3,2.836-3H38.598z"/>
	
		<linearGradient id="SVGID_14_" gradientUnits="userSpaceOnUse" x1="212.4575" y1="201.3047" x2="212.4575" y2="92.0957" gradientTransform="matrix(0.75 0 0 -0.75 364.3856 633.8605)">
		<stop  offset="0" style="stop-color:#305F8F"/>
		<stop  offset="0.15" style="stop-color:#5E8AC0"/>
		<stop  offset="0.25" style="stop-color:#B8C6DD"/>
		<stop  offset="0.52" style="stop-color:#396DA3"/>
		<stop  offset="0.69" style="stop-color:#316191"/>
		<stop  offset="0.8" style="stop-color:#2E5B89"/>
		<stop  offset="0.97" style="stop-color:#2B5581"/>
		<stop  offset="1" style="stop-color:#336394"/>
	</linearGradient>
	<path fill="url(#SVGID_14_)" d="M519.054,482.882h9.75c1.5,0,2.598,1.285,2.598,2.871l-0.348,75.879c0,1.5-0.922,3.156-2.488,3.156
		l-9.512-0.156c-1.5,0-3-1.129-3-2.715v-76.035c0-1.5,1.27-3,2.832-3H519.054z"/>
	
		<linearGradient id="SVGID_15_" gradientUnits="userSpaceOnUse" x1="512.2251" y1="201.3066" x2="512.2251" y2="105.3057" gradientTransform="matrix(0.75 0 0 -0.75 -100.7242 541.7911)">
		<stop  offset="0" style="stop-color:#04356C"/>
		<stop  offset="0.15" style="stop-color:#476299"/>
		<stop  offset="0.25" style="stop-color:#B3B9CC"/>
		<stop  offset="0.52" style="stop-color:#063E7C"/>
		<stop  offset="0.69" style="stop-color:#05366E"/>
		<stop  offset="0.8" style="stop-color:#043268"/>
		<stop  offset="0.97" style="stop-color:#042F62"/>
		<stop  offset="1" style="stop-color:#053871"/>
	</linearGradient>
	<path fill="url(#SVGID_15_)" d="M50.945,390.812h465v72h-465V390.812z"/>
	
		<linearGradient id="SVGID_16_" gradientUnits="userSpaceOnUse" x1="219.9331" y1="201.3047" x2="219.9331" y2="85.3047" gradientTransform="matrix(0.75 0 0 -0.75 -127.1373 534.3185)">
		<stop  offset="0" style="stop-color:#04356C"/>
		<stop  offset="0.15" style="stop-color:#476299"/>
		<stop  offset="0.25" style="stop-color:#B3B9CC"/>
		<stop  offset="0.52" style="stop-color:#063E7C"/>
		<stop  offset="0.69" style="stop-color:#05366E"/>
		<stop  offset="0.8" style="stop-color:#043268"/>
		<stop  offset="0.97" style="stop-color:#042F62"/>
		<stop  offset="1" style="stop-color:#053871"/>
	</linearGradient>
	<path fill="url(#SVGID_16_)" d="M27.531,383.339h21c1.5,0,2.563,1.285,2.563,2.871l-0.313,81.129c0,1.5-0.957,2.688-2.523,2.688
		l-20.727,0.313c-1.5,0-3-1.594-3-3.18v-80.82c0-1.5,1.27-3,2.832-3H27.531z"/>
	
		<linearGradient id="SVGID_17_" gradientUnits="userSpaceOnUse" x1="219.9307" y1="201.3057" x2="219.9307" y2="85.3057" gradientTransform="matrix(0.75 0 0 -0.75 364.1962 534.3185)">
		<stop  offset="0" style="stop-color:#04356C"/>
		<stop  offset="0.15" style="stop-color:#476299"/>
		<stop  offset="0.25" style="stop-color:#B3B9CC"/>
		<stop  offset="0.52" style="stop-color:#063E7C"/>
		<stop  offset="0.69" style="stop-color:#05366E"/>
		<stop  offset="0.8" style="stop-color:#043268"/>
		<stop  offset="0.97" style="stop-color:#042F62"/>
		<stop  offset="1" style="stop-color:#053871"/>
	</linearGradient>
	<path fill="url(#SVGID_17_)" d="M518.863,383.339h21c1.5,0,2.563,1.285,2.563,2.871l-0.313,81.129c0,1.5-0.957,2.688-2.52,2.688
		l-20.73,0.313c-1.5,0-3-1.594-3-3.18v-80.82c0-1.5,1.27-3,2.836-3H518.863z"/>
	
		<linearGradient id="SVGID_18_" gradientUnits="userSpaceOnUse" x1="614.2231" y1="85.3047" x2="202.2241" y2="85.3046" gradientTransform="matrix(0.75 0 0 -0.75 -15.5787 420.2277)">
		<stop  offset="0" style="stop-color:#316090"/>
		<stop  offset="0.03" style="stop-color:#8AAAD7"/>
		<stop  offset="0.08" style="stop-color:#427FBC"/>
		<stop  offset="0.64" style="stop-color:#417DB9"/>
		<stop  offset="0.95" style="stop-color:#407AB4"/>
		<stop  offset="1" style="stop-color:#2D5985"/>
	</linearGradient>
	<path fill="url(#SVGID_18_)" d="M136.09,269.25h309v174h-309V269.25z"/>
	
		<linearGradient id="SVGID_19_" gradientUnits="userSpaceOnUse" x1="563.2241" y1="194.8052" x2="202.2241" y2="194.8051" gradientTransform="matrix(0.75 0 0 -0.75 3.702 593.6056)">
		<stop  offset="0" style="stop-color:#316090"/>
		<stop  offset="0.03" style="stop-color:#8AAAD7"/>
		<stop  offset="0.08" style="stop-color:#427FBC"/>
		<stop  offset="0.64" style="stop-color:#417DB9"/>
		<stop  offset="0.95" style="stop-color:#407AB4"/>
		<stop  offset="1" style="stop-color:#2D5985"/>
	</linearGradient>
	<path fill="url(#SVGID_19_)" d="M155.371,442.628h270.75v9.75h-270.75V442.628z"/>
	
		<linearGradient id="SVGID_20_" gradientUnits="userSpaceOnUse" x1="379.2212" y1="93.8027" x2="202.2227" y2="93.8027" gradientTransform="matrix(0.75 0 0 -0.75 15.1136 426.4054)">
		<stop  offset="0" style="stop-color:#AEAEAD"/>
		<stop  offset="0.03" style="stop-color:#F8F8F7"/>
		<stop  offset="0.08" style="stop-color:#E3E3E2"/>
		<stop  offset="0.64" style="stop-color:#DFDFDE"/>
		<stop  offset="0.95" style="stop-color:#DADAD9"/>
		<stop  offset="1" style="stop-color:#A2A2A1"/>
	</linearGradient>
	<path fill="url(#SVGID_20_)" d="M166.781,275.43h132.75v161.25h-132.75V275.43z"/>
	
		<linearGradient id="SVGID_21_" gradientUnits="userSpaceOnUse" x1="268.2236" y1="175.8037" x2="202.2236" y2="175.8037" gradientTransform="matrix(0.75 0 0 -0.75 56.8241 440.5548)">
		<stop  offset="0" style="stop-color:#292525"/>
		<stop  offset="0.03" style="stop-color:#868584"/>
		<stop  offset="0.08" style="stop-color:#383433"/>
		<stop  offset="0.64" style="stop-color:#373332"/>
		<stop  offset="0.95" style="stop-color:#363130"/>
		<stop  offset="1" style="stop-color:#252221"/>
	</linearGradient>
	<path fill="url(#SVGID_21_)" d="M208.492,289.578h49.5v38.25h-49.5V289.578z"/>
	<path fill="#717070" d="M211.836,293.164h42.75v30.75h-42.75V293.164z"/>
	<path fill="#FFFFFF" stroke="#000000" stroke-linejoin="bevel" stroke-miterlimit="10" d="M315.917,349.761h7.5v18.75h-7.5V349.761
		z"/>
	
		<linearGradient id="SVGID_22_" gradientUnits="userSpaceOnUse" x1="212.2241" y1="188.8066" x2="202.2241" y2="188.8066" gradientTransform="matrix(0.75 0 0 -0.75 132.7684 497.7482)">
		<stop  offset="0" style="stop-color:#6E6F6F"/>
		<stop  offset="0.09" style="stop-color:#B7B8B8"/>
		<stop  offset="0.17" style="stop-color:#919292"/>
		<stop  offset="0.64" style="stop-color:#8F9090"/>
		<stop  offset="0.83" style="stop-color:#8B8C8C"/>
		<stop  offset="1" style="stop-color:#666767"/>
	</linearGradient>
	<path fill="url(#SVGID_22_)" d="M284.437,346.769h7.5v18.75h-7.5V346.769z"/>
	
		<linearGradient id="SVGID_23_" gradientUnits="userSpaceOnUse" x1="379.2212" y1="93.8027" x2="202.2212" y2="93.8027" gradientTransform="matrix(0.75 0 0 -0.75 154.411 426.4054)">
		<stop  offset="0" style="stop-color:#AEAEAD"/>
		<stop  offset="0.03" style="stop-color:#F8F8F7"/>
		<stop  offset="0.08" style="stop-color:#E3E3E2"/>
		<stop  offset="0.64" style="stop-color:#DFDFDE"/>
		<stop  offset="0.95" style="stop-color:#DADAD9"/>
		<stop  offset="1" style="stop-color:#A2A2A1"/>
	</linearGradient>
	<path fill="url(#SVGID_23_)" d="M306.078,275.43h132.75v161.25h-132.75V275.43z"/>
	
		<linearGradient id="SVGID_24_" gradientUnits="userSpaceOnUse" x1="212.2236" y1="188.8066" x2="202.2236" y2="188.8066" gradientTransform="matrix(0.75 0 0 -0.75 160.3124 497.7482)">
		<stop  offset="0" style="stop-color:#6E6F6F"/>
		<stop  offset="0.09" style="stop-color:#B7B8B8"/>
		<stop  offset="0.17" style="stop-color:#919292"/>
		<stop  offset="0.64" style="stop-color:#8F9090"/>
		<stop  offset="0.83" style="stop-color:#8B8C8C"/>
		<stop  offset="1" style="stop-color:#666767"/>
	</linearGradient>
	<path fill="url(#SVGID_24_)" d="M311.98,346.769h7.5v18.75h-7.5V346.769z"/>
	
		<radialGradient id="SVGID_25_" cx="217.6196" cy="185.6968" r="21.9225" gradientTransform="matrix(0.75 0 0 -0.75 -11.3829 444.4904)" gradientUnits="userSpaceOnUse">
		<stop  offset="0" style="stop-color:#76A2C9"/>
		<stop  offset="0.54" style="stop-color:#7EADD6"/>
		<stop  offset="0.74" style="stop-color:#B4CEEA"/>
		<stop  offset="0.91" style="stop-color:#76A2C9"/>
		<stop  offset="1" style="stop-color:#7EADD6"/>
	</radialGradient>
	<path fill="url(#SVGID_25_)" stroke="#5F89B9" stroke-width="0.25" stroke-linejoin="bevel" stroke-miterlimit="10" d="
		M140.285,305.511c0-6.75,5.168-12,11.547-12c6.453,0,11.543,5.242,11.543,11.707c0.16,6.293-5.168,11.707-11.543,11.707
		c-6.297-0.164-11.547-5.238-11.547-11.707V305.511z"/>
	<path fill="#C6D5E8" stroke="#384E64" stroke-linejoin="bevel" stroke-miterlimit="10" d="M142.371,305.367
		c0-5.25,4.234-9.75,9.461-9.75c5.539,0,9.457,4.301,9.457,9.602c-0.168,5.398-4.234,9.602-9.457,9.602
		c-4.961,0.297-9.461-4.297-9.461-9.602V305.367z"/>
	<path fill="#E35020" d="M148.633,309.382c0,0,6.727-11.691,7.34-11.34c0.711,0.398-6.039,12.09-6.039,12.09L148.633,309.382z"/>
	<path fill="#4B6884" d="M150.316,305.183c0-0.75,0.676-1.5,1.516-1.5c0.734,0,1.512,0.688,1.512,1.535
		c-0.027,0.715-0.676,1.535-1.512,1.535c-0.766-0.07-1.516-0.688-1.516-1.535V305.183z"/>
	<path fill="none" stroke="#000000" stroke-linejoin="bevel" stroke-miterlimit="10" d="M151.582,297.183l-0.008,2.25"/>
	<path fill="none" stroke="#000000" stroke-linejoin="bevel" stroke-miterlimit="10" d="M144.418,304.949l2.25,0.004"/>
	<path fill="none" stroke="#000000" stroke-linejoin="bevel" stroke-miterlimit="10" d="M157.609,304.949l2.25,0.004"/>
	<path fill="none" stroke="#000000" stroke-linejoin="bevel" stroke-miterlimit="10" d="M146.566,299.605l1.586,1.598"/>
	<path fill="none" stroke="#000000" stroke-linejoin="bevel" stroke-miterlimit="10" d="M157.109,299.605l-1.586,1.598"/>
	<path fill="none" stroke="#3F77A8" stroke-linejoin="bevel" stroke-miterlimit="10" d="M148.301,310.843h7.5
		c0,0,0.574,0.352,0.574,0.816c0.176,0.684-0.371,0.984-0.828,0.984l-7.246-0.301c-0.75,0-0.777-0.078-0.777-0.543
		c0.027-0.957,0.371-0.98,0.828-0.98L148.301,310.843z"/>
	<path fill="#FFFFFF" fill-opacity="0.3804" d="M153.625,305.367c0-5.25-7.035-9.75-1.813-9.75c5.563,0,9.457,4.301,9.457,9.602
		c-0.145,5.398-4.234,9.605-9.457,9.605c-4.938,0.293,1.66-4.16,1.66-9.465L153.625,305.367z"/>
	
		<radialGradient id="SVGID_26_" cx="217.6196" cy="185.6919" r="21.9259" gradientTransform="matrix(0.75 0 0 -0.75 -11.3829 481.9562)" gradientUnits="userSpaceOnUse">
		<stop  offset="0" style="stop-color:#76A2C9"/>
		<stop  offset="0.54" style="stop-color:#7EADD6"/>
		<stop  offset="0.74" style="stop-color:#B4CEEA"/>
		<stop  offset="0.91" style="stop-color:#76A2C9"/>
		<stop  offset="1" style="stop-color:#7EADD6"/>
	</radialGradient>
	<path fill="url(#SVGID_26_)" stroke="#5F89B9" stroke-width="0.25" stroke-linejoin="bevel" stroke-miterlimit="10" d="
		M140.285,342.98c0-6.75,5.168-12,11.547-12c6.453,0,11.543,5.238,11.543,11.707c0.16,6.293-5.168,11.707-11.543,11.707
		c-6.297-0.164-11.547-5.242-11.547-11.707V342.98z"/>
	<path fill="#C6D5E8" stroke="#384E64" stroke-linejoin="bevel" stroke-miterlimit="10" d="M142.371,342.835
		c0-5.25,4.234-9.75,9.461-9.75c5.539,0,9.457,4.297,9.457,9.602c-0.168,5.398-4.234,9.602-9.457,9.602
		c-4.961,0.297-9.461-4.301-9.461-9.602V342.835z"/>
	<path fill="#E35020" d="M148.633,346.847c0,0,6.727-11.691,7.34-11.34c0.711,0.398-6.039,12.09-6.039,12.09L148.633,346.847z"/>
	<path fill="#4B6884" d="M150.316,342.648c0-0.75,0.676-1.5,1.516-1.5c0.734,0,1.512,0.688,1.512,1.539
		c-0.027,0.711-0.676,1.535-1.512,1.535c-0.766-0.074-1.516-0.688-1.516-1.535V342.648z"/>
	<path fill="none" stroke="#000000" stroke-linejoin="bevel" stroke-miterlimit="10" d="M151.582,334.648l-0.008,2.25"/>
	<path fill="none" stroke="#000000" stroke-linejoin="bevel" stroke-miterlimit="10" d="M144.418,342.414l2.25,0.008"/>
	<path fill="none" stroke="#000000" stroke-linejoin="bevel" stroke-miterlimit="10" d="M157.609,342.414l2.25,0.008"/>
	<path fill="none" stroke="#000000" stroke-linejoin="bevel" stroke-miterlimit="10" d="M146.566,337.074l1.586,1.594"/>
	<path fill="none" stroke="#000000" stroke-linejoin="bevel" stroke-miterlimit="10" d="M157.109,337.074l-1.586,1.594"/>
	<path fill="none" stroke="#3F77A8" stroke-linejoin="bevel" stroke-miterlimit="10" d="M148.301,348.308h7.5
		c0,0,0.574,0.352,0.574,0.816c0.176,0.684-0.371,0.984-0.828,0.984l-7.246-0.301c-0.75,0-0.777-0.078-0.777-0.543
		c0.027-0.957,0.371-0.98,0.828-0.98L148.301,348.308z"/>
	<path fill="#FFFFFF" fill-opacity="0.3804" d="M153.625,342.832c0-5.25-7.035-9.75-1.813-9.75c5.563,0,9.457,4.301,9.457,9.605
		c-0.145,5.395-4.234,9.602-9.457,9.602c-4.938,0.293,1.66-4.16,1.66-9.465L153.625,342.832z"/>
	
		<radialGradient id="SVGID_27_" cx="217.6196" cy="185.6968" r="21.9225" gradientTransform="matrix(0.75 0 0 -0.75 -11.3829 518.6583)" gradientUnits="userSpaceOnUse">
		<stop  offset="0" style="stop-color:#76A2C9"/>
		<stop  offset="0.54" style="stop-color:#7EADD6"/>
		<stop  offset="0.74" style="stop-color:#B4CEEA"/>
		<stop  offset="0.91" style="stop-color:#76A2C9"/>
		<stop  offset="1" style="stop-color:#7EADD6"/>
	</radialGradient>
	<path fill="url(#SVGID_27_)" stroke="#5F89B9" stroke-width="0.25" stroke-linejoin="bevel" stroke-miterlimit="10" d="
		M140.285,379.679c0-6.75,5.168-12,11.547-12c6.453,0,11.543,5.242,11.543,11.707c0.16,6.293-5.168,11.707-11.543,11.707
		c-6.297-0.164-11.547-5.242-11.547-11.707V379.679z"/>
	<path fill="#C6D5E8" stroke="#384E64" stroke-linejoin="bevel" stroke-miterlimit="10" d="M142.371,379.535
		c0-5.25,4.234-9.75,9.461-9.75c5.539,0,9.457,4.301,9.457,9.602c-0.168,5.398-4.234,9.602-9.457,9.602
		c-4.961,0.297-9.461-4.297-9.461-9.602V379.535z"/>
	<path fill="#E35020" d="M148.633,383.55c0,0,6.727-11.695,7.34-11.34c0.711,0.398-6.039,12.09-6.039,12.09L148.633,383.55z"/>
	<path fill="#4B6884" d="M150.316,379.351c0-0.75,0.676-1.5,1.516-1.5c0.734,0,1.512,0.688,1.512,1.535
		c-0.027,0.715-0.676,1.535-1.512,1.535c-0.766-0.07-1.516-0.688-1.516-1.535V379.351z"/>
	<path fill="none" stroke="#000000" stroke-linejoin="bevel" stroke-miterlimit="10" d="M151.582,371.351l-0.008,2.25"/>
	<path fill="none" stroke="#000000" stroke-linejoin="bevel" stroke-miterlimit="10" d="M144.418,379.113l2.25,0.008"/>
	<path fill="none" stroke="#000000" stroke-linejoin="bevel" stroke-miterlimit="10" d="M157.609,379.113l2.25,0.008"/>
	<path fill="none" stroke="#000000" stroke-linejoin="bevel" stroke-miterlimit="10" d="M146.566,373.773l1.586,1.598"/>
	<path fill="none" stroke="#000000" stroke-linejoin="bevel" stroke-miterlimit="10" d="M157.109,373.773l-1.586,1.598"/>
	<path fill="none" stroke="#3F77A8" stroke-linejoin="bevel" stroke-miterlimit="10" d="M148.301,385.011h7.5
		c0,0,0.574,0.352,0.574,0.816c0.176,0.684-0.371,0.98-0.828,0.98l-7.246-0.297c-0.75,0-0.777-0.078-0.777-0.543
		c0.027-0.957,0.371-0.98,0.828-0.98L148.301,385.011z"/>
	<path fill="#FFFFFF" fill-opacity="0.3804" d="M153.625,379.535c0-5.25-7.035-9.75-1.813-9.75c5.563,0,9.457,4.297,9.457,9.602
		c-0.145,5.398-4.234,9.602-9.457,9.602c-4.938,0.297,1.66-4.16,1.66-9.461L153.625,379.535z"/>
	
		<radialGradient id="SVGID_28_" cx="217.6196" cy="185.6938" r="21.9245" gradientTransform="matrix(0.75 0 0 -0.75 -11.3829 556.8868)" gradientUnits="userSpaceOnUse">
		<stop  offset="0" style="stop-color:#76A2C9"/>
		<stop  offset="0.54" style="stop-color:#7EADD6"/>
		<stop  offset="0.74" style="stop-color:#B4CEEA"/>
		<stop  offset="0.91" style="stop-color:#76A2C9"/>
		<stop  offset="1" style="stop-color:#7EADD6"/>
	</radialGradient>
	<path fill="url(#SVGID_28_)" stroke="#5F89B9" stroke-width="0.25" stroke-linejoin="bevel" stroke-miterlimit="10" d="
		M140.285,417.91c0-6.75,5.168-12,11.547-12c6.453,0,11.543,5.242,11.543,11.707c0.16,6.293-5.168,11.707-11.543,11.707
		c-6.297-0.164-11.547-5.242-11.547-11.707V417.91z"/>
	<path fill="#C6D5E8" stroke="#384E64" stroke-linejoin="bevel" stroke-miterlimit="10" d="M142.371,417.765
		c0-5.25,4.234-9.75,9.461-9.75c5.539,0,9.457,4.297,9.457,9.602c-0.168,5.398-4.234,9.602-9.457,9.602
		c-4.961,0.297-9.461-4.301-9.461-9.602V417.765z"/>
	<path fill="#E35020" d="M148.633,421.777c0,0,6.727-11.691,7.34-11.336c0.711,0.398-6.039,12.086-6.039,12.086L148.633,421.777z"/>
	<path fill="#4B6884" d="M150.316,417.582c0-0.75,0.676-1.5,1.516-1.5c0.734,0,1.512,0.688,1.512,1.535
		c-0.027,0.715-0.676,1.535-1.512,1.535c-0.766-0.07-1.516-0.688-1.516-1.535V417.582z"/>
	<path fill="none" stroke="#000000" stroke-linejoin="bevel" stroke-miterlimit="10" d="M151.582,409.582l-0.008,2.25"/>
	<path fill="none" stroke="#000000" stroke-linejoin="bevel" stroke-miterlimit="10" d="M144.418,417.343l2.25,0.008"/>
	<path fill="none" stroke="#000000" stroke-linejoin="bevel" stroke-miterlimit="10" d="M157.609,417.343l2.25,0.008"/>
	<path fill="none" stroke="#000000" stroke-linejoin="bevel" stroke-miterlimit="10" d="M146.566,412.003l1.586,1.598"/>
	<path fill="none" stroke="#000000" stroke-linejoin="bevel" stroke-miterlimit="10" d="M157.109,412.003l-1.586,1.598"/>
	<path fill="none" stroke="#3F77A8" stroke-linejoin="bevel" stroke-miterlimit="10" d="M148.301,423.238h7.5
		c0,0,0.574,0.355,0.574,0.82c0.176,0.68-0.371,0.98-0.828,0.98l-7.246-0.301c-0.75,0-0.777-0.074-0.777-0.539
		c0.027-0.961,0.371-0.984,0.828-0.984L148.301,423.238z"/>
	<path fill="#FFFFFF" fill-opacity="0.3804" d="M153.625,417.765c0-5.25-7.035-9.75-1.813-9.75c5.563,0,9.457,4.297,9.457,9.602
		c-0.145,5.398-4.234,9.602-9.457,9.602c-4.938,0.297,1.66-4.16,1.66-9.461L153.625,417.765z"/>
	<path fill="#DCDCDD" d="M144.156,283.699h15v5.25h-15V283.699z"/>
	<path fill="#DCDCDD" d="M144.156,321.164h15v5.25h-15V321.164z"/>
	<path fill="#DCDCDD" d="M144.156,358.128h15v5.25h-15V358.128z"/>
	<path fill="#DCDCDD" d="M144.156,395.992h15v5.25h-15V395.992z"/>
	
		<linearGradient id="SVGID_29_" gradientUnits="userSpaceOnUse" x1="228.2246" y1="161.3047" x2="202.2246" y2="161.3047" gradientTransform="matrix(0.75 0 0 -0.75 -15.5787 593.6056)">
		<stop  offset="0" style="stop-color:#292525"/>
		<stop  offset="0.03" style="stop-color:#868584"/>
		<stop  offset="0.08" style="stop-color:#383433"/>
		<stop  offset="0.64" style="stop-color:#373332"/>
		<stop  offset="0.95" style="stop-color:#363130"/>
		<stop  offset="1" style="stop-color:#252221"/>
	</linearGradient>
	<path fill="url(#SVGID_29_)" d="M136.09,442.628h19.5v60h-19.5V442.628z"/>
	
		<linearGradient id="SVGID_30_" gradientUnits="userSpaceOnUse" x1="228.2256" y1="161.3047" x2="202.2256" y2="161.3047" gradientTransform="matrix(0.75 0 0 -0.75 273.6385 593.6056)">
		<stop  offset="0" style="stop-color:#292525"/>
		<stop  offset="0.03" style="stop-color:#868584"/>
		<stop  offset="0.08" style="stop-color:#383433"/>
		<stop  offset="0.64" style="stop-color:#373332"/>
		<stop  offset="0.95" style="stop-color:#363130"/>
		<stop  offset="1" style="stop-color:#252221"/>
	</linearGradient>
	<path fill="url(#SVGID_30_)" d="M425.308,442.628h19.5v60h-19.5V442.628z"/>
	
		<linearGradient id="SVGID_31_" gradientUnits="userSpaceOnUse" x1="216.2251" y1="172.8037" x2="202.2251" y2="172.8037" gradientTransform="matrix(0.75 0 0 -0.75 103.9286 602.8712)">
		<stop  offset="0" style="stop-color:#555454"/>
		<stop  offset="0.15" style="stop-color:#807F7F"/>
		<stop  offset="0.25" style="stop-color:#C2C2C2"/>
		<stop  offset="0.52" style="stop-color:#626161"/>
		<stop  offset="0.69" style="stop-color:#565656"/>
		<stop  offset="0.8" style="stop-color:#515050"/>
		<stop  offset="0.97" style="stop-color:#4C4B4B"/>
		<stop  offset="1" style="stop-color:#595858"/>
	</linearGradient>
	<path fill="url(#SVGID_31_)" d="M255.598,451.894h10.5v42.75h-10.5V451.894z"/>
	
		<radialGradient id="SVGID_32_" cx="217.6196" cy="185.6948" r="21.9239" gradientTransform="matrix(0.75 0 0 -0.75 97.4608 612.3673)" gradientUnits="userSpaceOnUse">
		<stop  offset="0" style="stop-color:#76A2C9"/>
		<stop  offset="0.54" style="stop-color:#7EADD6"/>
		<stop  offset="0.74" style="stop-color:#B4CEEA"/>
		<stop  offset="0.91" style="stop-color:#76A2C9"/>
		<stop  offset="1" style="stop-color:#7EADD6"/>
	</radialGradient>
	<path fill="url(#SVGID_32_)" stroke="#5F89B9" stroke-width="0.25" stroke-linejoin="bevel" stroke-miterlimit="10" d="
		M249.129,473.39c0-6.75,5.168-12,11.547-12c6.453,0,11.543,5.242,11.543,11.707c0.16,6.293-5.168,11.707-11.543,11.707
		c-6.297-0.164-11.547-5.242-11.547-11.707V473.39z"/>
	<path fill="#C6D5E8" stroke="#384E64" stroke-linejoin="bevel" stroke-miterlimit="10" d="M251.215,473.246
		c0-5.25,4.234-9.75,9.461-9.75c5.539,0,9.457,4.297,9.457,9.602c-0.168,5.398-4.234,9.602-9.457,9.602
		c-4.961,0.297-9.461-4.301-9.461-9.602V473.246z"/>
	<path fill="#E35020" d="M257.477,477.261c0,0,6.727-11.695,7.34-11.34c0.711,0.398-6.039,12.09-6.039,12.09L257.477,477.261z"/>
	<path fill="#4B6884" d="M259.16,473.062c0-0.75,0.676-1.5,1.516-1.5c0.734,0,1.512,0.688,1.512,1.535
		c-0.027,0.715-0.676,1.535-1.512,1.535c-0.766-0.07-1.516-0.688-1.516-1.535V473.062z"/>
	<path fill="none" stroke="#000000" stroke-linejoin="bevel" stroke-miterlimit="10" d="M260.426,465.062l-0.008,2.25"/>
	<path fill="none" stroke="#000000" stroke-linejoin="bevel" stroke-miterlimit="10" d="M253.262,472.824l2.25,0.008"/>
	<path fill="none" stroke="#000000" stroke-linejoin="bevel" stroke-miterlimit="10" d="M266.453,472.824l2.25,0.008"/>
	<path fill="none" stroke="#000000" stroke-linejoin="bevel" stroke-miterlimit="10" d="M255.41,467.484l1.586,1.598"/>
	<path fill="none" stroke="#000000" stroke-linejoin="bevel" stroke-miterlimit="10" d="M265.953,467.484l-1.586,1.598"/>
	<path fill="none" stroke="#3F77A8" stroke-linejoin="bevel" stroke-miterlimit="10" d="M257.145,478.718h7.5
		c0,0,0.574,0.355,0.574,0.82c0.176,0.68-0.371,0.98-0.828,0.98l-7.246-0.301c-0.75,0-0.777-0.074-0.777-0.539
		c0.027-0.961,0.371-0.984,0.828-0.984L257.145,478.718z"/>
	<path fill="#FFFFFF" fill-opacity="0.3804" d="M262.469,473.246c0-5.25-7.035-9.75-1.813-9.75c5.563,0,9.457,4.297,9.457,9.602
		c-0.145,5.398-4.234,9.602-9.457,9.602c-4.938,0.297,1.66-4.16,1.66-9.461L262.469,473.246z"/>
	
		<linearGradient id="SVGID_33_" gradientUnits="userSpaceOnUse" x1="216.2246" y1="172.8066" x2="202.2246" y2="172.8066" gradientTransform="matrix(0.75 0 0 -0.75 163.245 603.17)">
		<stop  offset="0" style="stop-color:#555454"/>
		<stop  offset="0.15" style="stop-color:#807F7F"/>
		<stop  offset="0.25" style="stop-color:#C2C2C2"/>
		<stop  offset="0.52" style="stop-color:#626161"/>
		<stop  offset="0.69" style="stop-color:#565656"/>
		<stop  offset="0.8" style="stop-color:#515050"/>
		<stop  offset="0.97" style="stop-color:#4C4B4B"/>
		<stop  offset="1" style="stop-color:#595858"/>
	</linearGradient>
	<path fill="url(#SVGID_33_)" d="M314.914,452.191h10.5v42.75h-10.5V452.191z"/>
	
		<radialGradient id="SVGID_34_" cx="217.6206" cy="185.6968" r="21.9211" gradientTransform="matrix(0.75 0 0 -0.75 156.7762 612.6671)" gradientUnits="userSpaceOnUse">
		<stop  offset="0" style="stop-color:#76A2C9"/>
		<stop  offset="0.54" style="stop-color:#7EADD6"/>
		<stop  offset="0.74" style="stop-color:#B4CEEA"/>
		<stop  offset="0.91" style="stop-color:#76A2C9"/>
		<stop  offset="1" style="stop-color:#7EADD6"/>
	</radialGradient>
	<path fill="url(#SVGID_34_)" stroke="#5F89B9" stroke-width="0.25" stroke-linejoin="bevel" stroke-miterlimit="10" d="
		M308.445,473.687c0-6.75,5.168-12,11.543-12c6.457,0,11.547,5.242,11.547,11.707c0.16,6.293-5.168,11.707-11.547,11.707
		c-6.293-0.164-11.543-5.238-11.543-11.707V473.687z"/>
	<path fill="#C6D5E8" stroke="#384E64" stroke-linejoin="bevel" stroke-miterlimit="10" d="M310.531,473.542
		c0-5.25,4.234-9.75,9.457-9.75c5.543,0,9.461,4.301,9.461,9.602c-0.168,5.398-4.234,9.602-9.461,9.602
		c-4.957,0.297-9.457-4.297-9.457-9.602V473.542z"/>
	<path fill="#E35020" d="M316.792,477.558c0,0,6.727-11.691,7.34-11.34c0.711,0.398-6.039,12.09-6.039,12.09L316.792,477.558z"/>
	<path fill="#4B6884" d="M318.476,473.359c0-0.75,0.676-1.5,1.512-1.5c0.738,0,1.516,0.688,1.516,1.535
		c-0.027,0.715-0.676,1.539-1.516,1.539c-0.762-0.074-1.512-0.688-1.512-1.539V473.359z"/>
	<path fill="none" stroke="#000000" stroke-linejoin="bevel" stroke-miterlimit="10" d="M319.742,465.359l-0.008,2.25"/>
	<path fill="none" stroke="#000000" stroke-linejoin="bevel" stroke-miterlimit="10" d="M312.578,473.125l2.25,0.008"/>
	<path fill="none" stroke="#000000" stroke-linejoin="bevel" stroke-miterlimit="10" d="M325.769,473.125l2.25,0.008"/>
	<path fill="none" stroke="#000000" stroke-linejoin="bevel" stroke-miterlimit="10" d="M314.726,467.781l1.586,1.598"/>
	<path fill="none" stroke="#000000" stroke-linejoin="bevel" stroke-miterlimit="10" d="M325.269,467.781l-1.586,1.598"/>
	<path fill="none" stroke="#3F77A8" stroke-linejoin="bevel" stroke-miterlimit="10" d="M316.46,479.019h7.5
		c0,0,0.574,0.352,0.574,0.816c0.176,0.684-0.371,0.984-0.828,0.984l-7.246-0.301c-0.75,0-0.781-0.078-0.781-0.543
		c0.031-0.957,0.375-0.98,0.832-0.98L316.46,479.019z"/>
	<path fill="#FFFFFF" fill-opacity="0.3804" d="M321.785,473.542c0-5.25-7.035-9.75-1.813-9.75c5.563,0,9.457,4.301,9.457,9.602
		c-0.145,5.398-4.234,9.605-9.457,9.605c-4.938,0.293,1.656-4.16,1.656-9.465L321.785,473.542z"/>
	
		<linearGradient id="SVGID_35_" gradientUnits="userSpaceOnUse" x1="250.2261" y1="187.3027" x2="202.2261" y2="187.3027" gradientTransform="matrix(0.75 0 0 -0.75 25.5448 624.3947)">
		<stop  offset="0" style="stop-color:#316090"/>
		<stop  offset="0.03" style="stop-color:#8AAAD7"/>
		<stop  offset="0.08" style="stop-color:#427FBC"/>
		<stop  offset="0.64" style="stop-color:#417DB9"/>
		<stop  offset="0.95" style="stop-color:#407AB4"/>
		<stop  offset="1" style="stop-color:#2D5985"/>
	</linearGradient>
	<path fill="url(#SVGID_35_)" d="M177.215,494.417h36v-21h-36V494.417z"/>
	
		<linearGradient id="SVGID_36_" gradientUnits="userSpaceOnUse" x1="231.2246" y1="191.3066" x2="202.2246" y2="191.3066" gradientTransform="matrix(0.75 0 0 -0.75 71.1903 630.7716)">
		<stop  offset="0" style="stop-color:#316090"/>
		<stop  offset="0.03" style="stop-color:#8AAAD7"/>
		<stop  offset="0.08" style="stop-color:#427FBC"/>
		<stop  offset="0.64" style="stop-color:#417DB9"/>
		<stop  offset="0.95" style="stop-color:#407AB4"/>
		<stop  offset="1" style="stop-color:#2D5985"/>
	</linearGradient>
	<path fill="url(#SVGID_36_)" d="M222.859,494.792h21.75v-15h-21.75V494.792z"/>
	
		<linearGradient id="SVGID_37_" gradientUnits="userSpaceOnUse" x1="223.2236" y1="184.8086" x2="202.2236" y2="184.8086" gradientTransform="matrix(0.75 0 0 -0.75 184.91 620.4093)">
		<stop  offset="0" style="stop-color:#316090"/>
		<stop  offset="0.03" style="stop-color:#8AAAD7"/>
		<stop  offset="0.08" style="stop-color:#427FBC"/>
		<stop  offset="0.64" style="stop-color:#417DB9"/>
		<stop  offset="0.95" style="stop-color:#407AB4"/>
		<stop  offset="1" style="stop-color:#2D5985"/>
	</linearGradient>
	<path fill="url(#SVGID_37_)" d="M336.578,494.179h15.75v-24.75h-15.75V494.179z"/>
	
		<linearGradient id="SVGID_38_" gradientUnits="userSpaceOnUse" x1="258.2241" y1="189.3047" x2="202.2241" y2="189.3047" gradientTransform="matrix(0.75 0 0 -0.75 210.4872 627.1847)">
		<stop  offset="0" style="stop-color:#316090"/>
		<stop  offset="0.03" style="stop-color:#8AAAD7"/>
		<stop  offset="0.08" style="stop-color:#427FBC"/>
		<stop  offset="0.64" style="stop-color:#417DB9"/>
		<stop  offset="0.95" style="stop-color:#407AB4"/>
		<stop  offset="1" style="stop-color:#2D5985"/>
	</linearGradient>
	<path fill="url(#SVGID_38_)" d="M362.156,494.207h42v-18h-42V494.207z"/>
	<path fill="#7D040F" stroke="#000000" stroke-width="0.25" stroke-linejoin="bevel" stroke-miterlimit="10" d="M242.152,333.539
		c2.25,0,3.758,1.621,3.758,3.641c-0.008,2.359-1.613,3.637-3.605,3.637c-1.652,0.223-3.598-1.633-3.598-3.637
		c-0.305-2.141,1.613-3.652,3.598-3.652L242.152,333.539z"/>
	
		<linearGradient id="SVGID_39_" gradientUnits="userSpaceOnUse" x1="367.8921" y1="402.9722" x2="373.2784" y2="393.6429" gradientTransform="matrix(0 0.75 0.75 0 -56.4274 59.2357)">
		<stop  offset="0" style="stop-color:#9F5153"/>
		<stop  offset="1" style="stop-color:#7B030D"/>
	</linearGradient>
	<path fill="url(#SVGID_39_)" stroke="#FFFFFF" stroke-width="0.25" stroke-linejoin="bevel" stroke-miterlimit="10" d="
		M242.242,334.203c1.5,0,3.008,1.324,3.008,2.977c-0.008,1.523-1.316,2.973-2.945,2.973c-1.563,0.051-2.938-1.336-2.938-2.973
		c-0.125-1.477,1.316-2.984,2.938-2.984L242.242,334.203z"/>
	<path fill="#276F71" stroke="#000000" stroke-width="0.25" stroke-linejoin="bevel" stroke-miterlimit="10" d="M232.863,333.539
		c2.25,0,3.758,1.621,3.758,3.641c-0.008,2.359-1.609,3.637-3.605,3.637c-1.652,0.223-3.598-1.633-3.598-3.637
		c-0.305-2.141,1.617-3.652,3.598-3.652L232.863,333.539z"/>
	
		<linearGradient id="SVGID_40_" gradientUnits="userSpaceOnUse" x1="367.8931" y1="402.9731" x2="373.2795" y2="393.6436" gradientTransform="matrix(0 0.75 0.75 0 -65.7159 59.2357)">
		<stop  offset="0" style="stop-color:#91CFD1"/>
		<stop  offset="1" style="stop-color:#49AEB1"/>
	</linearGradient>
	<path fill="url(#SVGID_40_)" stroke="#FFFFFF" stroke-width="0.25" stroke-linejoin="bevel" stroke-miterlimit="10" d="
		M232.953,334.203c1.5,0,3.008,1.324,3.008,2.977c-0.008,1.523-1.316,2.973-2.945,2.973c-1.563,0.051-2.938-1.336-2.938-2.973
		c-0.125-1.477,1.32-2.984,2.938-2.984L232.953,334.203z"/>
	<path fill="#7D040F" stroke="#000000" stroke-width="0.25" stroke-linejoin="bevel" stroke-miterlimit="10" d="M251.563,333.539
		c2.25,0,3.762,1.621,3.762,3.637c-0.012,2.363-1.613,3.641-3.609,3.641c-1.652,0.223-3.598-1.633-3.598-3.641
		c-0.305-2.137,1.617-3.648,3.598-3.648L251.563,333.539z"/>
	
		<linearGradient id="SVGID_41_" gradientUnits="userSpaceOnUse" x1="367.8921" y1="402.9722" x2="373.2785" y2="393.6426" gradientTransform="matrix(0 0.75 0.75 0 -47.0148 59.2352)">
		<stop  offset="0" style="stop-color:#9F5153"/>
		<stop  offset="1" style="stop-color:#7B030D"/>
	</linearGradient>
	<path fill="url(#SVGID_41_)" stroke="#FFFFFF" stroke-width="0.25" stroke-linejoin="bevel" stroke-miterlimit="10" d="
		M251.652,334.203c1.5,0,3.008,1.324,3.008,2.973c-0.008,1.527-1.316,2.977-2.945,2.977c-1.563,0.051-2.938-1.336-2.938-2.977
		c-0.125-1.473,1.32-2.98,2.938-2.98L251.652,334.203z"/>
	<path fill="#276F71" stroke="#000000" stroke-width="0.25" stroke-linejoin="bevel" stroke-miterlimit="10" d="M223.551,333.539
		c2.25,0,3.758,1.621,3.758,3.641c-0.008,2.359-1.609,3.637-3.605,3.637c-1.652,0.223-3.598-1.633-3.598-3.637
		c-0.305-2.141,1.617-3.652,3.598-3.652L223.551,333.539z"/>
	
		<linearGradient id="SVGID_42_" gradientUnits="userSpaceOnUse" x1="367.8921" y1="402.9722" x2="373.2785" y2="393.6426" gradientTransform="matrix(0 0.75 0.75 0 -75.0284 59.2357)">
		<stop  offset="0" style="stop-color:#91CFD1"/>
		<stop  offset="1" style="stop-color:#49AEB1"/>
	</linearGradient>
	<path fill="url(#SVGID_42_)" stroke="#FFFFFF" stroke-width="0.25" stroke-linejoin="bevel" stroke-miterlimit="10" d="
		M223.641,334.203c1.5,0,3.008,1.324,3.008,2.977c-0.008,1.523-1.316,2.973-2.945,2.973c-1.563,0.051-2.938-1.336-2.938-2.973
		c-0.125-1.477,1.32-2.984,2.938-2.984L223.641,334.203z"/>
	<path fill="#7D040F" stroke="#000000" stroke-width="0.25" stroke-linejoin="bevel" stroke-miterlimit="10" d="M214.25,333.539
		c2.25,0,3.758,1.621,3.758,3.641c-0.008,2.359-1.609,3.637-3.605,3.637c-1.652,0.223-3.598-1.633-3.598-3.637
		c-0.305-2.141,1.617-3.652,3.598-3.652L214.25,333.539z"/>
	
		<linearGradient id="SVGID_43_" gradientUnits="userSpaceOnUse" x1="367.8921" y1="402.9741" x2="373.279" y2="393.6437" gradientTransform="matrix(0 0.75 0.75 0 -84.3287 59.2357)">
		<stop  offset="0" style="stop-color:#9F5153"/>
		<stop  offset="1" style="stop-color:#7B030D"/>
	</linearGradient>
	<path fill="url(#SVGID_43_)" stroke="#FFFFFF" stroke-width="0.25" stroke-linejoin="bevel" stroke-miterlimit="10" d="
		M214.34,334.203c1.5,0,3.008,1.324,3.008,2.977c-0.008,1.523-1.316,2.973-2.945,2.973c-1.563,0.051-2.938-1.336-2.938-2.973
		c-0.125-1.477,1.32-2.984,2.938-2.984L214.34,334.203z"/>
</g>
</svg>
