<?xml version="1.0" encoding="utf-8"?>
<!-- Generator: Adobe Illustrator 16.0.0, SVG Export Plug-In . SVG Version: 6.00 Build 0)  -->
<!DOCTYPE svg PUBLIC "-//W3C//DTD SVG 1.1//EN" "http://www.w3.org/Graphics/SVG/1.1/DTD/svg11.dtd">
<svg preserveAspectRatio="none"   version="1.1" id="图层_1" xmlns="http://www.w3.org/2000/svg" xmlns:xlink="http://www.w3.org/1999/xlink" x="0px" y="0px"
	 width="356.25px" height="564px" viewBox="105.41 1.543 356.25 564" enable-background="new 105.41 1.543 356.25 564"
	 xml:space="preserve">
<g id="surface6">
	
		<linearGradient id="SVGID_1_" gradientUnits="userSpaceOnUse" x1="677.2251" y1="-174.6943" x2="202.2261" y2="-174.6944" gradientTransform="matrix(0.75 0 0 -0.75 -46.2599 152.5216)">
		<stop  offset="0" style="stop-color:#B5B5B5"/>
		<stop  offset="0.03" style="stop-color:#FFFFFF"/>
		<stop  offset="0.08" style="stop-color:#EBEBEB"/>
		<stop  offset="0.64" style="stop-color:#E7E7E7"/>
		<stop  offset="0.95" style="stop-color:#E2E2E2"/>
		<stop  offset="1" style="stop-color:#A8A8A8"/>
	</linearGradient>
	<path fill="url(#SVGID_1_)" d="M105.41,1.543h356.25v564H105.41V1.543z"/>
	
		<linearGradient id="SVGID_2_" gradientUnits="userSpaceOnUse" x1="677.2251" y1="181.3052" x2="202.2261" y2="181.3051" gradientTransform="matrix(0.75 0 0 -0.75 -46.2599 152.5519)">
		<stop  offset="0" style="stop-color:#B3A593"/>
		<stop  offset="0.03" style="stop-color:#FDEEDA"/>
		<stop  offset="0.08" style="stop-color:#E9D7BF"/>
		<stop  offset="0.64" style="stop-color:#E5D3BC"/>
		<stop  offset="0.95" style="stop-color:#E0CEB8"/>
		<stop  offset="1" style="stop-color:#A69988"/>
	</linearGradient>
	<path fill="url(#SVGID_2_)" d="M105.41,1.574h356.25v30H105.41V1.574z"/>
	
		<linearGradient id="SVGID_3_" gradientUnits="userSpaceOnUse" x1="677.2251" y1="181.3042" x2="202.2261" y2="181.3042" gradientTransform="matrix(0.75 0 0 -0.75 -46.2599 686.2032)">
		<stop  offset="0" style="stop-color:#B3A593"/>
		<stop  offset="0.03" style="stop-color:#FDEEDA"/>
		<stop  offset="0.08" style="stop-color:#E9D7BF"/>
		<stop  offset="0.64" style="stop-color:#E5D3BC"/>
		<stop  offset="0.95" style="stop-color:#E0CEB8"/>
		<stop  offset="1" style="stop-color:#A69988"/>
	</linearGradient>
	<path fill="url(#SVGID_3_)" d="M105.41,535.226h356.25v30H105.41V535.226z"/>
	<path fill="#FFFFFF" stroke="#FFFFFF" stroke-linejoin="bevel" stroke-miterlimit="10" d="M149.23,70.57c0-6.75,5.281-12,11.793-12
		c6.207,0,11.797,5.285,11.797,11.801c-0.34,6.199-5.281,11.805-11.797,11.805c-6.543-0.355-11.793-5.285-11.793-11.805V70.57z"/>
	<path fill="#FFFFFF" stroke="#FFFFFF" stroke-linejoin="bevel" stroke-miterlimit="10" d="M210.406,70.57
		c0-6.75,5.281-12,11.797-12c6.203,0,11.797,5.285,11.797,11.801c-0.344,6.199-5.281,11.805-11.797,11.805
		c-6.547-0.355-11.797-5.285-11.797-11.805V70.57z"/>
	<path fill="#FFFFFF" stroke="#FFFFFF" stroke-linejoin="bevel" stroke-miterlimit="10" d="M271.668,70.57
		c0-6.75,5.281-12,11.797-12c6.203,0,11.796,5.285,11.796,11.801c-0.344,6.199-5.281,11.805-11.796,11.805
		c-6.547-0.355-11.797-5.285-11.797-11.805V70.57z"/>
	<path fill="#FFFFFF" stroke="#FFFFFF" stroke-linejoin="bevel" stroke-miterlimit="10" d="M332.765,70.57
		c0-6.75,5.281-12,11.793-12c6.207,0,11.797,5.285,11.797,11.801c-0.34,6.199-5.281,11.805-11.797,11.805
		c-6.543-0.355-11.793-5.285-11.793-11.805V70.57z"/>
	<path fill="#FFFFFF" stroke="#FFFFFF" stroke-linejoin="bevel" stroke-miterlimit="10" d="M393.941,70.57
		c0-6.75,5.281-12,11.797-12c6.203,0,11.797,5.285,11.797,11.801c-0.344,6.199-5.281,11.805-11.797,11.805
		c-6.547-0.355-11.797-5.285-11.797-11.805V70.57z"/>
	<path fill="#FFFFFF" stroke="#FFFFFF" stroke-linejoin="bevel" stroke-miterlimit="10" d="M149.23,140.762
		c0-6.75,5.281-12,11.793-12c6.207,0,11.797,5.285,11.797,11.801c-0.34,6.199-5.281,11.801-11.797,11.801
		c-6.543-0.352-11.793-5.281-11.793-11.801V140.762z"/>
	<path fill="#FFFFFF" stroke="#FFFFFF" stroke-linejoin="bevel" stroke-miterlimit="10" d="M210.406,140.762
		c0-6.75,5.281-12,11.797-12c6.203,0,11.797,5.285,11.797,11.801c-0.344,6.199-5.281,11.801-11.797,11.801
		c-6.547-0.352-11.797-5.281-11.797-11.801V140.762z"/>
	<path fill="#FFFFFF" stroke="#FFFFFF" stroke-linejoin="bevel" stroke-miterlimit="10" d="M271.668,140.762
		c0-6.75,5.281-12,11.797-12c6.203,0,11.796,5.285,11.796,11.801c-0.344,6.199-5.281,11.801-11.796,11.801
		c-6.547-0.352-11.797-5.281-11.797-11.801V140.762z"/>
	<path fill="#FFFFFF" stroke="#FFFFFF" stroke-linejoin="bevel" stroke-miterlimit="10" d="M332.765,140.762
		c0-6.75,5.281-12,11.793-12c6.207,0,11.797,5.285,11.797,11.801c-0.34,6.199-5.281,11.801-11.797,11.801
		c-6.543-0.352-11.793-5.281-11.793-11.801V140.762z"/>
	<path fill="#FFFFFF" stroke="#FFFFFF" stroke-linejoin="bevel" stroke-miterlimit="10" d="M393.941,140.762
		c0-6.75,5.281-12,11.797-12c6.203,0,11.797,5.285,11.797,11.801c-0.344,6.199-5.281,11.801-11.797,11.801
		c-6.547-0.352-11.797-5.281-11.797-11.801V140.762z"/>
	<path fill="#FFFFFF" stroke="#FFFFFF" stroke-linejoin="bevel" stroke-miterlimit="10" d="M149.23,210.953
		c0-6.75,5.281-12,11.793-12c6.207,0,11.797,5.285,11.797,11.801c-0.34,6.199-5.281,11.801-11.797,11.801
		c-6.543-0.352-11.793-5.281-11.793-11.801V210.953z"/>
	<path fill="#FFFFFF" stroke="#FFFFFF" stroke-linejoin="bevel" stroke-miterlimit="10" d="M210.406,210.953
		c0-6.75,5.281-12,11.797-12c6.203,0,11.797,5.285,11.797,11.801c-0.344,6.199-5.281,11.801-11.797,11.801
		c-6.547-0.352-11.797-5.281-11.797-11.801V210.953z"/>
	<path fill="#FFFFFF" stroke="#FFFFFF" stroke-linejoin="bevel" stroke-miterlimit="10" d="M271.668,210.953
		c0-6.75,5.281-12,11.797-12c6.203,0,11.796,5.285,11.796,11.801c-0.344,6.199-5.281,11.801-11.796,11.801
		c-6.547-0.352-11.797-5.281-11.797-11.801V210.953z"/>
	<path fill="#FFFFFF" stroke="#FFFFFF" stroke-linejoin="bevel" stroke-miterlimit="10" d="M332.765,210.953
		c0-6.75,5.281-12,11.793-12c6.207,0,11.797,5.285,11.797,11.801c-0.34,6.199-5.281,11.801-11.797,11.801
		c-6.543-0.352-11.793-5.281-11.793-11.801V210.953z"/>
	<path fill="#FFFFFF" stroke="#FFFFFF" stroke-linejoin="bevel" stroke-miterlimit="10" d="M393.941,210.953
		c0-6.75,5.281-12,11.797-12c6.203,0,11.797,5.285,11.797,11.801c-0.344,6.199-5.281,11.801-11.797,11.801
		c-6.547-0.352-11.797-5.281-11.797-11.801V210.953z"/>
	<path fill="#FFFFFF" stroke="#FFFFFF" stroke-linejoin="bevel" stroke-miterlimit="10" d="M149.23,281.145
		c0-6.75,5.281-12,11.793-12c6.207,0,11.797,5.281,11.797,11.801c-0.34,6.199-5.281,11.8-11.797,11.8
		c-6.543-0.352-11.793-5.285-11.793-11.8V281.145z"/>
	<path fill="#FFFFFF" stroke="#FFFFFF" stroke-linejoin="bevel" stroke-miterlimit="10" d="M210.406,281.145
		c0-6.75,5.281-12,11.797-12c6.203,0,11.797,5.281,11.797,11.801c-0.344,6.199-5.281,11.8-11.797,11.8
		c-6.547-0.352-11.797-5.285-11.797-11.8V281.145z"/>
	<path fill="#FFFFFF" stroke="#FFFFFF" stroke-linejoin="bevel" stroke-miterlimit="10" d="M271.668,281.145
		c0-6.75,5.281-12,11.797-12c6.203,0,11.796,5.281,11.796,11.801c-0.344,6.199-5.281,11.8-11.796,11.8
		c-6.547-0.352-11.797-5.285-11.797-11.8V281.145z"/>
	<path fill="#FFFFFF" stroke="#FFFFFF" stroke-linejoin="bevel" stroke-miterlimit="10" d="M332.765,281.145
		c0-6.75,5.281-12,11.793-12c6.207,0,11.797,5.281,11.797,11.801c-0.34,6.199-5.281,11.8-11.797,11.8
		c-6.543-0.352-11.793-5.285-11.793-11.8V281.145z"/>
	<path fill="#FFFFFF" stroke="#FFFFFF" stroke-linejoin="bevel" stroke-miterlimit="10" d="M393.941,281.145
		c0-6.75,5.281-12,11.797-12c6.203,0,11.797,5.281,11.797,11.801c-0.344,6.199-5.281,11.8-11.797,11.8
		c-6.547-0.352-11.797-5.285-11.797-11.8V281.145z"/>
	<path fill="#FFFFFF" stroke="#FFFFFF" stroke-linejoin="bevel" stroke-miterlimit="10" d="M149.23,352.664
		c0-6.75,5.281-12,11.793-12c6.207,0,11.797,5.285,11.797,11.801c-0.34,6.199-5.281,11.801-11.797,11.801
		c-6.543-0.352-11.793-5.281-11.793-11.801V352.664z"/>
	<path fill="#FFFFFF" stroke="#FFFFFF" stroke-linejoin="bevel" stroke-miterlimit="10" d="M210.406,352.664
		c0-6.75,5.281-12,11.797-12c6.203,0,11.797,5.285,11.797,11.801c-0.344,6.199-5.281,11.801-11.797,11.801
		c-6.547-0.352-11.797-5.281-11.797-11.801V352.664z"/>
	<path fill="#FFFFFF" stroke="#FFFFFF" stroke-linejoin="bevel" stroke-miterlimit="10" d="M271.668,352.664
		c0-6.75,5.281-12,11.797-12c6.203,0,11.796,5.285,11.796,11.801c-0.344,6.199-5.281,11.801-11.796,11.801
		c-6.547-0.352-11.797-5.281-11.797-11.801V352.664z"/>
	<path fill="#FFFFFF" stroke="#FFFFFF" stroke-linejoin="bevel" stroke-miterlimit="10" d="M332.765,352.664
		c0-6.75,5.281-12,11.793-12c6.207,0,11.797,5.285,11.797,11.801c-0.34,6.199-5.281,11.801-11.797,11.801
		c-6.543-0.352-11.793-5.281-11.793-11.801V352.664z"/>
	<path fill="#FFFFFF" stroke="#FFFFFF" stroke-linejoin="bevel" stroke-miterlimit="10" d="M393.941,352.664
		c0-6.75,5.281-12,11.797-12c6.203,0,11.797,5.285,11.797,11.801c-0.344,6.199-5.281,11.801-11.797,11.801
		c-6.547-0.352-11.797-5.281-11.797-11.801V352.664z"/>
	<path fill="#FFFFFF" stroke="#FFFFFF" stroke-linejoin="bevel" stroke-miterlimit="10" d="M149.23,424.484
		c0-6.75,5.281-12,11.793-12c6.207,0,11.797,5.281,11.797,11.801c-0.34,6.199-5.281,11.801-11.797,11.801
		c-6.543-0.352-11.793-5.285-11.793-11.801V424.484z"/>
	<path fill="#FFFFFF" stroke="#FFFFFF" stroke-linejoin="bevel" stroke-miterlimit="10" d="M210.406,424.484
		c0-6.75,5.281-12,11.797-12c6.203,0,11.797,5.281,11.797,11.801c-0.344,6.199-5.281,11.801-11.797,11.801
		c-6.547-0.352-11.797-5.285-11.797-11.801V424.484z"/>
	<path fill="#FFFFFF" stroke="#FFFFFF" stroke-linejoin="bevel" stroke-miterlimit="10" d="M271.668,424.484
		c0-6.75,5.281-12,11.797-12c6.203,0,11.796,5.281,11.796,11.801c-0.344,6.199-5.281,11.801-11.796,11.801
		c-6.547-0.352-11.797-5.285-11.797-11.801V424.484z"/>
	<path fill="#FFFFFF" stroke="#FFFFFF" stroke-linejoin="bevel" stroke-miterlimit="10" d="M332.765,424.484
		c0-6.75,5.281-12,11.793-12c6.207,0,11.797,5.281,11.797,11.801c-0.34,6.199-5.281,11.801-11.797,11.801
		c-6.543-0.352-11.793-5.285-11.793-11.801V424.484z"/>
	<path fill="#FFFFFF" stroke="#FFFFFF" stroke-linejoin="bevel" stroke-miterlimit="10" d="M393.941,424.484
		c0-6.75,5.281-12,11.797-12c6.203,0,11.797,5.281,11.797,11.801c-0.344,6.199-5.281,11.801-11.797,11.801
		c-6.547-0.352-11.797-5.285-11.797-11.801V424.484z"/>
	<path fill="#FFFFFF" stroke="#FFFFFF" stroke-linejoin="bevel" stroke-miterlimit="10" d="M149.23,491.718
		c0-6.75,5.281-12,11.793-12c6.207,0,11.797,5.281,11.797,11.801c-0.34,6.199-5.281,11.801-11.797,11.801
		c-6.543-0.352-11.793-5.285-11.793-11.801V491.718z"/>
	<path fill="#FFFFFF" stroke="#FFFFFF" stroke-linejoin="bevel" stroke-miterlimit="10" d="M210.406,491.718
		c0-6.75,5.281-12,11.797-12c6.203,0,11.797,5.281,11.797,11.801c-0.344,6.199-5.281,11.801-11.797,11.801
		c-6.547-0.352-11.797-5.285-11.797-11.801V491.718z"/>
	<path fill="#FFFFFF" stroke="#FFFFFF" stroke-linejoin="bevel" stroke-miterlimit="10" d="M271.668,491.718
		c0-6.75,5.281-12,11.797-12c6.203,0,11.796,5.281,11.796,11.801c-0.344,6.199-5.281,11.801-11.796,11.801
		c-6.547-0.352-11.797-5.285-11.797-11.801V491.718z"/>
	<path fill="#FFFFFF" stroke="#FFFFFF" stroke-linejoin="bevel" stroke-miterlimit="10" d="M332.765,491.718
		c0-6.75,5.281-12,11.793-12c6.207,0,11.797,5.281,11.797,11.801c-0.34,6.199-5.281,11.801-11.797,11.801
		c-6.543-0.352-11.793-5.285-11.793-11.801V491.718z"/>
	<path fill="#FFFFFF" stroke="#FFFFFF" stroke-linejoin="bevel" stroke-miterlimit="10" d="M393.941,491.718
		c0-6.75,5.281-12,11.797-12c6.203,0,11.797,5.281,11.797,11.801c-0.344,6.199-5.281,11.801-11.797,11.801
		c-6.547-0.352-11.797-5.285-11.797-11.801V491.718z"/>
</g>
</svg>
