<?xml version="1.0" encoding="utf-8"?>
<!-- Generator: Adobe Illustrator 16.0.0, SVG Export Plug-In . SVG Version: 6.00 Build 0)  -->
<!DOCTYPE svg PUBLIC "-//W3C//DTD SVG 1.1//EN" "http://www.w3.org/Graphics/SVG/1.1/DTD/svg11.dtd">
<svg preserveAspectRatio="none"   version="1.1" id="图层_1" xmlns="http://www.w3.org/2000/svg" xmlns:xlink="http://www.w3.org/1999/xlink" x="0px" y="0px"
	 width="561.75px" height="354.335px" viewBox="2.723 106.156 561.75 354.335"
	 enable-background="new 2.723 106.156 561.75 354.335" xml:space="preserve">
<g id="surface344">
	
		<linearGradient id="SVGID_1_" gradientUnits="userSpaceOnUse" x1="536.2241" y1="-3.1963" x2="202.2241" y2="-3.1963" gradientTransform="matrix(0.75 0 0 -0.75 6.5731 257.1329)">
		<stop  offset="0" style="stop-color:#C1C2C3"/>
		<stop  offset="0.15" style="stop-color:#FBFDFE"/>
		<stop  offset="0.25" style="stop-color:#FDFEFE"/>
		<stop  offset="0.52" style="stop-color:#DCDEDE"/>
		<stop  offset="0.69" style="stop-color:#C4C5C6"/>
		<stop  offset="0.8" style="stop-color:#B9BABB"/>
		<stop  offset="0.97" style="stop-color:#AEB0B0"/>
		<stop  offset="1" style="stop-color:#C8CACB"/>
	</linearGradient>
	<path fill="url(#SVGID_1_)" d="M170.242,106.156h226.5c6.75,0,11.945,5.348,11.945,11.988l0.055,282.761
		c0,6-5.48,11.75-12.172,11.75l-226.328,0.25c-6.75,0-12-5.664-12-12.305V118.156c0-6.75,5.426-12,12.117-12H170.242z"/>
	
		<linearGradient id="SVGID_2_" gradientUnits="userSpaceOnUse" x1="940.2271" y1="52.8071" x2="202.2271" y2="52.8071" gradientTransform="matrix(0.75 0 0 -0.75 -144.9054 388.7208)">
		<stop  offset="0" style="stop-color:#C1C2C3"/>
		<stop  offset="0.15" style="stop-color:#FBFDFE"/>
		<stop  offset="0.25" style="stop-color:#FDFEFE"/>
		<stop  offset="0.52" style="stop-color:#DCDEDE"/>
		<stop  offset="0.69" style="stop-color:#C4C5C6"/>
		<stop  offset="0.8" style="stop-color:#B9BABB"/>
		<stop  offset="0.97" style="stop-color:#AEB0B0"/>
		<stop  offset="1" style="stop-color:#C8CACB"/>
	</linearGradient>
	<path fill="url(#SVGID_2_)" d="M6.766,237.742l210.75,222.75h132l210.75-222.75H6.766z"/>
	
		<linearGradient id="SVGID_3_" gradientUnits="userSpaceOnUse" x1="576.7222" y1="201.3037" x2="576.7222" y2="161.2363" gradientTransform="matrix(0.75 0 0 -0.75 -148.9449 370.6925)">
		<stop  offset="0" style="stop-color:#C1C2C3"/>
		<stop  offset="0.15" style="stop-color:#FBFDFE"/>
		<stop  offset="0.25" style="stop-color:#FDFEFE"/>
		<stop  offset="0.52" style="stop-color:#DCDEDE"/>
		<stop  offset="0.69" style="stop-color:#C4C5C6"/>
		<stop  offset="0.8" style="stop-color:#B9BABB"/>
		<stop  offset="0.97" style="stop-color:#AEB0B0"/>
		<stop  offset="1" style="stop-color:#C8CACB"/>
	</linearGradient>
	<path fill="url(#SVGID_3_)" d="M14.723,219.715h537c6.75,0,12.48,5.383,12.48,12.02l0.27,5.98c0,6.75-5.773,12.051-12.563,12.051
		l-537.187-0.051c-6.75,0-12-5.332-12-11.969v-6.031c0-6.75,5.508-12,12.297-12H14.723z"/>
	
		<linearGradient id="SVGID_4_" gradientUnits="userSpaceOnUse" x1="524.7261" y1="201.3047" x2="524.7261" y2="161.2432" gradientTransform="matrix(0.75 0 0 -0.75 -110.0651 431.3331)">
		<stop  offset="0" style="stop-color:#C1C2C3"/>
		<stop  offset="0.15" style="stop-color:#FBFDFE"/>
		<stop  offset="0.25" style="stop-color:#FDFEFE"/>
		<stop  offset="0.52" style="stop-color:#DCDEDE"/>
		<stop  offset="0.69" style="stop-color:#C4C5C6"/>
		<stop  offset="0.8" style="stop-color:#B9BABB"/>
		<stop  offset="0.97" style="stop-color:#AEB0B0"/>
		<stop  offset="1" style="stop-color:#C8CACB"/>
	</linearGradient>
	<path fill="url(#SVGID_4_)" d="M53.605,280.355h459.75c6.75,0,11.969,5.382,11.969,12.019l0.031,5.98
		c0,6.75-5.457,12.047-12.148,12.047l-459.601-0.047c-6.75,0-12-5.332-12-11.973v-6.027c0-6.75,5.426-12,12.117-12H53.605z"/>
	
		<linearGradient id="SVGID_5_" gradientUnits="userSpaceOnUse" x1="452.7241" y1="201.3037" x2="452.7241" y2="161.2363" gradientTransform="matrix(0.75 0 0 -0.75 -55.9537 489.9698)">
		<stop  offset="0" style="stop-color:#C1C2C3"/>
		<stop  offset="0.15" style="stop-color:#FBFDFE"/>
		<stop  offset="0.25" style="stop-color:#FDFEFE"/>
		<stop  offset="0.52" style="stop-color:#DCDEDE"/>
		<stop  offset="0.69" style="stop-color:#C4C5C6"/>
		<stop  offset="0.8" style="stop-color:#B9BABB"/>
		<stop  offset="0.97" style="stop-color:#AEB0B0"/>
		<stop  offset="1" style="stop-color:#C8CACB"/>
	</linearGradient>
	<path fill="url(#SVGID_5_)" d="M106.965,338.992h352.5c6.75,0,11.75,5.383,11.75,12.02l0.25,5.98
		c0,6.75-5.383,12.051-11.715,12.051l-352.785-0.051c-6,0-11.25-5.332-11.25-11.969v-6.031c0-6.75,5.133-12,11.465-12H106.965z"/>
	
		<linearGradient id="SVGID_6_" gradientUnits="userSpaceOnUse" x1="377.3784" y1="201.3057" x2="377.3784" y2="161.2373" gradientTransform="matrix(0.75 0 0 -0.75 0.4301 548.6075)">
		<stop  offset="0" style="stop-color:#C1C2C3"/>
		<stop  offset="0.15" style="stop-color:#FBFDFE"/>
		<stop  offset="0.25" style="stop-color:#FDFEFE"/>
		<stop  offset="0.52" style="stop-color:#DCDEDE"/>
		<stop  offset="0.69" style="stop-color:#C4C5C6"/>
		<stop  offset="0.8" style="stop-color:#B9BABB"/>
		<stop  offset="0.97" style="stop-color:#AEB0B0"/>
		<stop  offset="1" style="stop-color:#C8CACB"/>
	</linearGradient>
	<path fill="url(#SVGID_6_)" d="M164.098,397.628h239.25c6,0,11.484,5.383,11.484,12.02l-0.234,5.98
		c0,6.75-4.977,12.051-11.402,12.051l-239.097-0.051c-6.75,0-12-5.332-12-11.969v-6.031c0-6.75,5.211-12,11.637-12H164.098z"/>
</g>
</svg>
