<?xml version="1.0" encoding="utf-8"?>
<!-- Generator: Adobe Illustrator 16.0.0, SVG Export Plug-In . SVG Version: 6.00 Build 0)  -->
<!DOCTYPE svg PUBLIC "-//W3C//DTD SVG 1.1//EN" "http://www.w3.org/Graphics/SVG/1.1/DTD/svg11.dtd">
<svg preserveAspectRatio="none"   version="1.1" id="图层_1" xmlns="http://www.w3.org/2000/svg" xmlns:xlink="http://www.w3.org/1999/xlink" x="0px" y="0px"
	 width="567px" height="262.5px" viewBox="-0.07 304.5 567 262.5" enable-background="new -0.07 304.5 567 262.5"
	 xml:space="preserve">
<g id="surface161">
	
		<linearGradient id="SVGID_1_" gradientUnits="userSpaceOnUse" x1="958.2241" y1="26.3052" x2="202.2251" y2="26.3051" gradientTransform="matrix(0.75 0 0 -0.75 -151.7399 455.4777)">
		<stop  offset="0" style="stop-color:#AEAEAD"/>
		<stop  offset="0.01" style="stop-color:#F8F8F7"/>
		<stop  offset="0.04" style="stop-color:#E3E3E2"/>
		<stop  offset="0.64" style="stop-color:#DFDFDE"/>
		<stop  offset="0.99" style="stop-color:#DADAD9"/>
		<stop  offset="1" style="stop-color:#A2A2A1"/>
	</linearGradient>
	<path fill="url(#SVGID_1_)" d="M-0.07,304.5h567V567h-567V304.5z"/>
	
		<linearGradient id="SVGID_2_" gradientUnits="userSpaceOnUse" x1="958.2241" y1="195.3052" x2="202.2251" y2="195.3051" gradientTransform="matrix(0.75 0 0 -0.75 -151.7399 455.5284)">
		<stop  offset="0" style="stop-color:#383E4C"/>
		<stop  offset="0.02" style="stop-color:#8E919B"/>
		<stop  offset="0.03" style="stop-color:#4C5366"/>
		<stop  offset="0.64" style="stop-color:#4A5264"/>
		<stop  offset="0.99" style="stop-color:#495061"/>
		<stop  offset="1" style="stop-color:#343946"/>
	</linearGradient>
	<path fill="url(#SVGID_2_)" d="M-0.07,304.55h567v9h-567V304.55z"/>
	
		<linearGradient id="SVGID_3_" gradientUnits="userSpaceOnUse" x1="958.2241" y1="195.3091" x2="202.2251" y2="195.309" gradientTransform="matrix(0.75 0 0 -0.75 -151.7399 708.3468)">
		<stop  offset="0" style="stop-color:#383E4C"/>
		<stop  offset="0.02" style="stop-color:#8E919B"/>
		<stop  offset="0.03" style="stop-color:#4C5366"/>
		<stop  offset="0.64" style="stop-color:#4A5264"/>
		<stop  offset="0.99" style="stop-color:#495061"/>
		<stop  offset="1" style="stop-color:#343946"/>
	</linearGradient>
	<path fill="url(#SVGID_3_)" d="M-0.07,557.367h567v9h-567V557.367z"/>
	
		<linearGradient id="SVGID_4_" gradientUnits="userSpaceOnUse" x1="958.2241" y1="199.8052" x2="202.2251" y2="199.8051" gradientTransform="matrix(0.75 0 0 -0.75 -151.7399 695.9806)">
		<stop  offset="0" style="stop-color:#383E4C"/>
		<stop  offset="0.03" style="stop-color:#8E919B"/>
		<stop  offset="0.08" style="stop-color:#4C5366"/>
		<stop  offset="0.64" style="stop-color:#4A5264"/>
		<stop  offset="0.95" style="stop-color:#495061"/>
		<stop  offset="1" style="stop-color:#343946"/>
	</linearGradient>
	<path fill="url(#SVGID_4_)" d="M-0.07,545.003h567v2.25h-567V545.003z"/>
	
		<linearGradient id="SVGID_5_" gradientUnits="userSpaceOnUse" x1="958.2241" y1="199.8071" x2="202.2251" y2="199.8071" gradientTransform="matrix(0.75 0 0 -0.75 -151.7399 687.7208)">
		<stop  offset="0" style="stop-color:#383E4C"/>
		<stop  offset="0.03" style="stop-color:#8E919B"/>
		<stop  offset="0.08" style="stop-color:#4C5366"/>
		<stop  offset="0.64" style="stop-color:#4A5264"/>
		<stop  offset="0.95" style="stop-color:#495061"/>
		<stop  offset="1" style="stop-color:#343946"/>
	</linearGradient>
	<path fill="url(#SVGID_5_)" d="M-0.07,536.742h567v2.25h-567V536.742z"/>
	
		<linearGradient id="SVGID_6_" gradientUnits="userSpaceOnUse" x1="304.2241" y1="133.8047" x2="202.2241" y2="133.8047" gradientTransform="matrix(0.75 0 0 -0.75 -126.5826 476.6525)">
		<stop  offset="0" style="stop-color:#AEAEAD"/>
		<stop  offset="0.03" style="stop-color:#F8F8F7"/>
		<stop  offset="0.08" style="stop-color:#E3E3E2"/>
		<stop  offset="0.64" style="stop-color:#DFDFDE"/>
		<stop  offset="0.95" style="stop-color:#DADAD9"/>
		<stop  offset="1" style="stop-color:#A2A2A1"/>
	</linearGradient>
	<path fill="url(#SVGID_6_)" d="M25.086,325.675h76.5v101.25h-76.5V325.675z"/>
	
		<linearGradient id="SVGID_7_" gradientUnits="userSpaceOnUse" x1="304.2241" y1="195.3047" x2="202.2241" y2="195.3047" gradientTransform="matrix(0.75 0 0 -0.75 -126.5826 476.6525)">
		<stop  offset="0" style="stop-color:#383E4C"/>
		<stop  offset="0.03" style="stop-color:#8E919B"/>
		<stop  offset="0.08" style="stop-color:#4C5366"/>
		<stop  offset="0.64" style="stop-color:#4A5264"/>
		<stop  offset="0.95" style="stop-color:#495061"/>
		<stop  offset="1" style="stop-color:#343946"/>
	</linearGradient>
	<path fill="url(#SVGID_7_)" d="M25.086,325.675h76.5v9h-76.5V325.675z"/>
	
		<linearGradient id="SVGID_8_" gradientUnits="userSpaceOnUse" x1="304.2241" y1="195.3057" x2="202.2241" y2="195.3056" gradientTransform="matrix(0.75 0 0 -0.75 -126.5826 568.7247)">
		<stop  offset="0" style="stop-color:#383E4C"/>
		<stop  offset="0.03" style="stop-color:#8E919B"/>
		<stop  offset="0.08" style="stop-color:#4C5366"/>
		<stop  offset="0.64" style="stop-color:#4A5264"/>
		<stop  offset="0.95" style="stop-color:#495061"/>
		<stop  offset="1" style="stop-color:#343946"/>
	</linearGradient>
	<path fill="url(#SVGID_8_)" d="M25.086,417.746h76.5v9h-76.5V417.746z"/>
	<path stroke="#000000" stroke-linejoin="bevel" stroke-miterlimit="10" d="M46.949,342.531h33c3,0,5.793,2.539,5.793,5.668
		l0.207,15.332c0,3-2.793,5.457-5.938,5.457l-33.063-0.207c-3.75,0-6.047-2.332-6.047-5.461l0.047-14.789c0-3.75,2.5-6,5.648-6
		H46.949z"/>
	<path fill="#3E3938" stroke="#000000" stroke-linejoin="bevel" stroke-miterlimit="10" d="M47.598,343.75h31.5
		c3,0,5.246,2.305,5.246,5.148l0.004,13.602c0,3-2.43,5.27-5.379,5.27l-31.371-0.02c-3,0-5.293-2.285-5.293-5.129L42.348,349
		c0-3,2.348-5.25,5.297-5.25H47.598z"/>
	<path fill="#276F71" d="M50.656,385.05c0-3,2.848-6.016,6.395-6.016c3.355,0.016,6.395,2.855,6.395,6.387
		c-0.039,3.379-2.871,6.371-6.395,6.371c-3.395,0.008-6.414-2.859-6.414-6.371L50.656,385.05z"/>
	
		<linearGradient id="SVGID_9_" gradientUnits="userSpaceOnUse" x1="204.4331" y1="202.6055" x2="213.9379" y2="186.1427" gradientTransform="matrix(0.75 0 0 -0.75 -99.8429 531.1974)">
		<stop  offset="0" style="stop-color:#91CFD1"/>
		<stop  offset="1" style="stop-color:#49AEB1"/>
	</linearGradient>
	<path fill="url(#SVGID_9_)" stroke="#FFFFFF" stroke-linejoin="bevel" stroke-miterlimit="10" d="M51.828,385.468
		c0-3,2.324-5.262,5.223-5.262c3.027,0.012,5.223,2.332,5.223,5.215c0.055,3.047-2.348,5.203-5.223,5.203
		c-2.973,0.094-5.238-2.336-5.238-5.203L51.828,385.468z"/>
	<path fill="#7D040F" d="M30.848,385.05c0-3,2.848-6.016,6.395-6.016c3.355,0.016,6.398,2.855,6.398,6.387
		c-0.043,3.379-2.875,6.371-6.398,6.371c-3.395,0.008-6.41-2.859-6.41-6.371L30.848,385.05z"/>
	
		<linearGradient id="SVGID_10_" gradientUnits="userSpaceOnUse" x1="204.4331" y1="202.605" x2="213.9372" y2="186.1434" gradientTransform="matrix(0.75 0 0 -0.75 -119.6495 531.1974)">
		<stop  offset="0" style="stop-color:#9F5153"/>
		<stop  offset="1" style="stop-color:#7B030D"/>
	</linearGradient>
	<path fill="url(#SVGID_10_)" stroke="#FFFFFF" stroke-linejoin="bevel" stroke-miterlimit="10" d="M32.02,385.468
		c0-3,2.328-5.262,5.223-5.262c3.027,0.012,5.227,2.332,5.227,5.215c0.051,3.047-2.348,5.203-5.227,5.203
		c-2.973,0.094-5.234-2.336-5.234-5.203L32.02,385.468z"/>
	<path fill="#FED372" d="M70.469,385.05c0-3,2.852-6.016,6.398-6.016c3.352,0.016,6.395,2.855,6.395,6.387
		c-0.043,3.379-2.875,6.371-6.395,6.371c-3.398,0.008-6.414-2.859-6.414-6.371L70.469,385.05z"/>
	
		<linearGradient id="SVGID_11_" gradientUnits="userSpaceOnUse" x1="204.4321" y1="202.6045" x2="213.9364" y2="186.1426" gradientTransform="matrix(0.75 0 0 -0.75 -80.027 531.1974)">
		<stop  offset="0" style="stop-color:#FEDEA0"/>
		<stop  offset="1" style="stop-color:#E9C168"/>
	</linearGradient>
	<path fill="url(#SVGID_11_)" stroke="#FFFFFF" stroke-linejoin="bevel" stroke-miterlimit="10" d="M71.641,385.468
		c0-3,2.328-5.262,5.227-5.262c3.023,0.012,5.223,2.332,5.223,5.215c0.051,3.047-2.348,5.203-5.223,5.203
		c-2.977,0.094-5.238-2.336-5.238-5.203L71.641,385.468z"/>
	<path fill="#276F71" d="M50.656,405.343c0-3,2.848-6.016,6.395-6.016c3.355,0.016,6.395,2.855,6.395,6.387
		c-0.039,3.379-2.871,6.371-6.395,6.371c-3.395,0.008-6.414-2.859-6.414-6.371L50.656,405.343z"/>
	
		<linearGradient id="SVGID_12_" gradientUnits="userSpaceOnUse" x1="204.4331" y1="202.6055" x2="213.9384" y2="186.1418" gradientTransform="matrix(0.75 0 0 -0.75 -99.8429 551.4894)">
		<stop  offset="0" style="stop-color:#91CFD1"/>
		<stop  offset="1" style="stop-color:#49AEB1"/>
	</linearGradient>
	<path fill="url(#SVGID_12_)" stroke="#FFFFFF" stroke-linejoin="bevel" stroke-miterlimit="10" d="M51.828,405.761
		c0-3,2.324-5.262,5.223-5.262c3.027,0.012,5.223,2.328,5.223,5.215c0.055,3.047-2.348,5.203-5.223,5.203
		c-2.973,0.094-5.238-2.336-5.238-5.203L51.828,405.761z"/>
	<path fill="#7D040F" d="M30.828,405.343c0-3,2.848-6.016,6.395-6.016c3.355,0.016,6.398,2.855,6.398,6.387
		c-0.043,3.379-2.875,6.371-6.398,6.371c-3.395,0.008-6.41-2.859-6.41-6.371L30.828,405.343z"/>
	
		<linearGradient id="SVGID_13_" gradientUnits="userSpaceOnUse" x1="204.4316" y1="202.605" x2="213.9364" y2="186.1422" gradientTransform="matrix(0.75 0 0 -0.75 -119.6686 551.4894)">
		<stop  offset="0" style="stop-color:#9F5153"/>
		<stop  offset="1" style="stop-color:#7B030D"/>
	</linearGradient>
	<path fill="url(#SVGID_13_)" stroke="#FFFFFF" stroke-linejoin="bevel" stroke-miterlimit="10" d="M32,405.761
		c0-3,2.328-5.262,5.223-5.262c3.027,0.012,5.227,2.328,5.227,5.215c0.051,3.047-2.348,5.203-5.227,5.203
		c-2.973,0.094-5.234-2.336-5.234-5.203L32,405.761z"/>
	<path fill="#FED372" d="M70.449,405.343c0-3,2.848-6.016,6.395-6.016c3.355,0.016,6.395,2.855,6.395,6.387
		c-0.039,3.379-2.871,6.371-6.395,6.371c-3.395,0.008-6.41-2.859-6.41-6.371L70.449,405.343z"/>
	
		<linearGradient id="SVGID_14_" gradientUnits="userSpaceOnUse" x1="204.4297" y1="202.604" x2="213.9345" y2="186.1412" gradientTransform="matrix(0.75 0 0 -0.75 -80.0485 551.4894)">
		<stop  offset="0" style="stop-color:#FEDEA0"/>
		<stop  offset="1" style="stop-color:#E9C168"/>
	</linearGradient>
	<path fill="url(#SVGID_14_)" stroke="#FFFFFF" stroke-linejoin="bevel" stroke-miterlimit="10" d="M71.621,405.761
		c0-3,2.328-5.262,5.223-5.262c3.027,0.012,5.223,2.328,5.223,5.215c0.055,3.047-2.344,5.203-5.223,5.203
		c-2.973,0.094-5.238-2.336-5.238-5.203L71.621,405.761z"/>
	<path fill="#FFFFFF" fill-opacity="0.0588" d="M47.004,342.519h33l-28.5,27l-4.5-0.75c-3.75,0-6.051-2.328-6.051-5.461
		l0.051-14.789c0-3.75,2.5-6,5.645-6H47.004z"/>
	<path stroke="#000000" stroke-linejoin="bevel" stroke-miterlimit="10" d="M34.023,465.597c-4.77-4.77-4.664-12.305,0.051-17.02
		c4.723-4.723,12.352-4.719,17.059-0.012c4.637,4.836,4.699,12.344-0.016,17.059c-4.895,4.746-12.348,4.719-17.055,0.012
		L34.023,465.597z"/>
	
		<linearGradient id="SVGID_15_" gradientUnits="userSpaceOnUse" x1="98.7104" y1="237.4565" x2="65.0909" y2="218.0463" gradientTransform="matrix(0.5303 -0.5303 -0.5303 -0.5303 119.8985 621.3054)">
		<stop  offset="0.41" style="stop-color:#5D5B5B"/>
		<stop  offset="0.6" style="stop-color:#484646"/>
		<stop  offset="0.8" style="stop-color:#383636"/>
		<stop  offset="0.93" style="stop-color:#2C2B2B"/>
		<stop  offset="1" style="stop-color:#535151"/>
	</linearGradient>
	<path fill="url(#SVGID_15_)" d="M34.953,464.539c-4.242-4.246-4.051-10.801,0.113-14.965c4.129-4.129,10.91-4.168,15.07-0.012
		c3.91,4.367,4.152,10.906-0.012,15.07c-4.566,4.148-10.91,4.168-15.066,0.008L34.953,464.539z"/>
	
		<linearGradient id="SVGID_16_" gradientUnits="userSpaceOnUse" x1="74.21" y1="229.2769" x2="67.6689" y2="229.2769" gradientTransform="matrix(0.5303 -0.5303 -0.5303 -0.5303 126.5309 616.3366)">
		<stop  offset="0" style="stop-color:#343232"/>
		<stop  offset="0.15" style="stop-color:#555454"/>
		<stop  offset="0.26" style="stop-color:#797777"/>
		<stop  offset="0.41" style="stop-color:#5D5B5B"/>
		<stop  offset="0.6" style="stop-color:#484646"/>
		<stop  offset="0.8" style="stop-color:#383636"/>
		<stop  offset="0.93" style="stop-color:#2C2B2B"/>
		<stop  offset="1" style="stop-color:#535151"/>
	</linearGradient>
	<path fill="url(#SVGID_16_)" d="M35.223,451.082l1.059-1.063c1.063-1.059,1.805-0.84,2.402-0.242l10.855,11.379
		c0.531,0.531,0.961,1.406,0.363,2.008l-1.422,1.176c-0.531,0.527-1.445,0.723-2.047,0.125l-11.211-11.262
		c-0.531-0.531-0.602-1.523-0.004-2.121H35.223z"/>
	
		<linearGradient id="SVGID_17_" gradientUnits="userSpaceOnUse" x1="220.375" y1="192.3057" x2="202.2246" y2="192.3057" gradientTransform="matrix(0.75 0 0 -0.75 -105.6178 635.8605)">
		<stop  offset="0" style="stop-color:#292525"/>
		<stop  offset="0.03" style="stop-color:#868584"/>
		<stop  offset="0.08" style="stop-color:#383433"/>
		<stop  offset="0.64" style="stop-color:#373332"/>
		<stop  offset="0.95" style="stop-color:#363130"/>
		<stop  offset="1" style="stop-color:#252221"/>
	</linearGradient>
	<path fill="url(#SVGID_17_)" d="M47.551,484.882h11.25c0,0,0.863,0.512,0.863,1.141l-0.113,10.859c0,0.75-0.414,1.48-1.051,1.48
		l-10.949,0.02c-0.75,0-1.5-0.543-1.5-1.172v-10.828c0-0.75,0.516-1.5,1.152-1.5H47.551z"/>
	
		<linearGradient id="SVGID_18_" gradientUnits="userSpaceOnUse" x1="216.2231" y1="194.3057" x2="202.2231" y2="194.3057" gradientTransform="matrix(0.75 0 0 -0.75 -103.9371 637.5245)">
		<stop  offset="0" style="stop-color:#AA646C"/>
		<stop  offset="0.03" style="stop-color:#F3AEB5"/>
		<stop  offset="0.08" style="stop-color:#DD848E"/>
		<stop  offset="0.64" style="stop-color:#D9828C"/>
		<stop  offset="0.95" style="stop-color:#D57F89"/>
		<stop  offset="1" style="stop-color:#9E5D64"/>
	</linearGradient>
	<path fill="url(#SVGID_18_)" d="M47.73,486.546h10.5v10.5h-10.5V486.546z"/>
	
		<linearGradient id="SVGID_19_" gradientUnits="userSpaceOnUse" x1="220.373" y1="192.3057" x2="202.2227" y2="192.3057" gradientTransform="matrix(0.75 0 0 -0.75 -128.5968 635.8605)">
		<stop  offset="0" style="stop-color:#292525"/>
		<stop  offset="0.03" style="stop-color:#868584"/>
		<stop  offset="0.08" style="stop-color:#383433"/>
		<stop  offset="0.64" style="stop-color:#373332"/>
		<stop  offset="0.95" style="stop-color:#363130"/>
		<stop  offset="1" style="stop-color:#252221"/>
	</linearGradient>
	<path fill="url(#SVGID_19_)" d="M24.57,484.882h11.25c0,0,0.863,0.512,0.863,1.141l-0.113,10.859c0,0.75-0.414,1.48-1.051,1.48
		l-10.949,0.02c-0.75,0-1.5-0.543-1.5-1.172v-10.828c0-0.75,0.516-1.5,1.152-1.5H24.57z"/>
	
		<linearGradient id="SVGID_20_" gradientUnits="userSpaceOnUse" x1="216.2266" y1="194.3057" x2="202.2266" y2="194.3057" gradientTransform="matrix(0.75 0 0 -0.75 -126.9166 637.5245)">
		<stop  offset="0" style="stop-color:#AA646C"/>
		<stop  offset="0.03" style="stop-color:#F3AEB5"/>
		<stop  offset="0.08" style="stop-color:#DD848E"/>
		<stop  offset="0.64" style="stop-color:#D9828C"/>
		<stop  offset="0.95" style="stop-color:#D57F89"/>
		<stop  offset="1" style="stop-color:#9E5D64"/>
	</linearGradient>
	<path fill="url(#SVGID_20_)" d="M24.754,486.546h10.5v10.5h-10.5V486.546z"/>
	
		<linearGradient id="SVGID_21_" gradientUnits="userSpaceOnUse" x1="220.3765" y1="192.3057" x2="202.2251" y2="192.3057" gradientTransform="matrix(0.75 0 0 -0.75 -61.6925 635.8605)">
		<stop  offset="0" style="stop-color:#292525"/>
		<stop  offset="0.03" style="stop-color:#868584"/>
		<stop  offset="0.08" style="stop-color:#383433"/>
		<stop  offset="0.64" style="stop-color:#373332"/>
		<stop  offset="0.95" style="stop-color:#363130"/>
		<stop  offset="1" style="stop-color:#252221"/>
	</linearGradient>
	<path fill="url(#SVGID_21_)" d="M91.477,484.882h11.25c0,0,0.863,0.512,0.863,1.141l-0.113,10.859c0,0.75-0.414,1.48-1.051,1.48
		l-10.949,0.02c-0.75,0-1.5-0.543-1.5-1.172v-10.828c0-0.75,0.516-1.5,1.152-1.5H91.477z"/>
	
		<linearGradient id="SVGID_22_" gradientUnits="userSpaceOnUse" x1="216.2236" y1="194.3057" x2="202.2236" y2="194.3057" gradientTransform="matrix(0.75 0 0 -0.75 -60.0118 637.5245)">
		<stop  offset="0" style="stop-color:#AA646C"/>
		<stop  offset="0.03" style="stop-color:#F3AEB5"/>
		<stop  offset="0.08" style="stop-color:#DD848E"/>
		<stop  offset="0.64" style="stop-color:#D9828C"/>
		<stop  offset="0.95" style="stop-color:#D57F89"/>
		<stop  offset="1" style="stop-color:#9E5D64"/>
	</linearGradient>
	<path fill="url(#SVGID_22_)" d="M91.656,486.546h10.5v10.5h-10.5V486.546z"/>
	
		<linearGradient id="SVGID_23_" gradientUnits="userSpaceOnUse" x1="220.377" y1="192.3057" x2="202.2256" y2="192.3057" gradientTransform="matrix(0.75 0 0 -0.75 -83.9938 635.8605)">
		<stop  offset="0" style="stop-color:#292525"/>
		<stop  offset="0.03" style="stop-color:#868584"/>
		<stop  offset="0.08" style="stop-color:#383433"/>
		<stop  offset="0.64" style="stop-color:#373332"/>
		<stop  offset="0.95" style="stop-color:#363130"/>
		<stop  offset="1" style="stop-color:#252221"/>
	</linearGradient>
	<path fill="url(#SVGID_23_)" d="M69.176,484.882h11.25c0,0,0.863,0.512,0.863,1.141l-0.113,10.859c0,0.75-0.414,1.48-1.051,1.48
		l-10.949,0.02c-0.75,0-1.5-0.543-1.5-1.172v-10.828c0-0.75,0.516-1.5,1.148-1.5H69.176z"/>
	
		<linearGradient id="SVGID_24_" gradientUnits="userSpaceOnUse" x1="216.2246" y1="194.3057" x2="202.2246" y2="194.3057" gradientTransform="matrix(0.75 0 0 -0.75 -82.3136 637.5245)">
		<stop  offset="0" style="stop-color:#AA646C"/>
		<stop  offset="0.03" style="stop-color:#F3AEB5"/>
		<stop  offset="0.08" style="stop-color:#DD848E"/>
		<stop  offset="0.64" style="stop-color:#D9828C"/>
		<stop  offset="0.95" style="stop-color:#D57F89"/>
		<stop  offset="1" style="stop-color:#9E5D64"/>
	</linearGradient>
	<path fill="url(#SVGID_24_)" d="M69.355,486.546h10.5v10.5h-10.5V486.546z"/>
	
		<radialGradient id="SVGID_25_" cx="226.9355" cy="176.7603" r="34.8277" gradientTransform="matrix(0.75 0 0 -0.75 -88.3248 589.7374)" gradientUnits="userSpaceOnUse">
		<stop  offset="0" style="stop-color:#76A2C9"/>
		<stop  offset="0.54" style="stop-color:#7EADD6"/>
		<stop  offset="0.74" style="stop-color:#B4CEEA"/>
		<stop  offset="0.91" style="stop-color:#76A2C9"/>
		<stop  offset="1" style="stop-color:#7EADD6"/>
	</radialGradient>
	<path fill="url(#SVGID_25_)" stroke="#5F89B9" stroke-width="0.25" stroke-linejoin="bevel" stroke-miterlimit="10" d="
		M63.344,457.511c0-10.5,8.297-18.75,18.535-18.75c9.965,0,18.531,8.238,18.531,18.406c-0.316,10.094-8.297,18.406-18.531,18.406
		c-10.285-0.063-18.535-8.238-18.535-18.406V457.511z"/>
	<path fill="#C6D5E8" stroke="#384E64" stroke-linejoin="bevel" stroke-miterlimit="10" d="M66.691,457.07
		c0-8.25,6.801-15,15.188-15c8.063,0,15.184,6.758,15.184,15.098c-0.371,8.152-6.801,15.098-15.184,15.098
		c-8.438-0.195-15.188-6.762-15.188-15.098V457.07z"/>
	<path fill="#E35020" d="M76.961,463.824c0,0,10.504-18.555,11.48-17.988c0.969,0.926-9.531,19.113-9.531,19.113L76.961,463.824z"/>
	<path fill="#4B6884" d="M79.445,457.003c0-1.5,1.09-2.25,2.434-2.25c1.316,0,2.43,1.082,2.43,2.414
		c-0.363,1.336-1.09,2.414-2.43,2.414c-1.684-0.328-2.434-1.082-2.434-2.414V457.003z"/>
	<path fill="none" stroke="#000000" stroke-linejoin="bevel" stroke-miterlimit="10" d="M81.48,444.531l-0.008,3"/>
	<path fill="none" stroke="#000000" stroke-linejoin="bevel" stroke-miterlimit="10" d="M69.977,456.738l3,0.008"/>
	<path fill="none" stroke="#000000" stroke-linejoin="bevel" stroke-miterlimit="10" d="M91.156,456.738l3,0.008"/>
	<path fill="none" stroke="#000000" stroke-linejoin="bevel" stroke-miterlimit="10" d="M73.441,448.332l2.117,2.125"/>
	<path fill="none" stroke="#000000" stroke-linejoin="bevel" stroke-miterlimit="10" d="M90.34,448.332l-2.117,2.125"/>
	<path fill="none" stroke="#3F77A8" stroke-linejoin="bevel" stroke-miterlimit="10" d="M76.504,466.007h11.25
		c0.75,0,1.422,0.555,1.422,1.289c0.078,0.961-0.598,1.543-1.332,1.543l-11.34,0.168c-0.75,0-1.543-0.762-1.543-1.492
		c0.043-0.758,0.598-1.543,1.332-1.543L76.504,466.007z"/>
	<path fill="#FFFFFF" fill-opacity="0.3804" d="M84.742,457.07c0-8.25-11.281-15-2.895-15c8.145,0,15.184,6.758,15.184,15.098
		c-0.289,8.152-6.797,15.098-15.184,15.098c-8.355-0.195,2.664-6.539,2.664-14.879L84.742,457.07z"/>
	
		<linearGradient id="SVGID_26_" gradientUnits="userSpaceOnUse" x1="448.7241" y1="201.3027" x2="448.7241" y2="-19.6982" gradientTransform="matrix(0.75 0 0 -0.75 -3.6798 474.2072)">
		<stop  offset="0" style="stop-color:#B5B5B5"/>
		<stop  offset="0.01" style="stop-color:#FFFFFF"/>
		<stop  offset="0.06" style="stop-color:#EBEBEB"/>
		<stop  offset="0.64" style="stop-color:#E7E7E7"/>
		<stop  offset="0.99" style="stop-color:#E2E2E2"/>
		<stop  offset="1" style="stop-color:#A8A8A8"/>
	</linearGradient>
	<path fill="url(#SVGID_26_)" d="M147.988,323.23h369.75v165.75h-369.75V323.23z"/>
	<path fill="#3E3938" d="M155.688,332.464h354.75v147.75h-354.75V332.464z"/>
	
		<linearGradient id="SVGID_27_" gradientUnits="userSpaceOnUse" x1="438.2241" y1="194.3047" x2="438.2241" y2="201.3057" gradientTransform="matrix(0.75 0 0 -0.75 4.3246 487.1495)">
		<stop  offset="0" style="stop-color:#BDBDBD"/>
		<stop  offset="0.15" style="stop-color:#FFFFFF"/>
		<stop  offset="0.25" style="stop-color:#FFFFFF"/>
		<stop  offset="0.52" style="stop-color:#DFDFDF"/>
		<stop  offset="0.69" style="stop-color:#C7C7C7"/>
		<stop  offset="0.8" style="stop-color:#BCBCBC"/>
		<stop  offset="0.92" style="stop-color:#B1B1B1"/>
		<stop  offset="1" style="stop-color:#CBCBCB"/>
	</linearGradient>
	<path fill="url(#SVGID_27_)" d="M155.992,336.171h354v5.25h-354V336.171z"/>
	
		<linearGradient id="SVGID_28_" gradientUnits="userSpaceOnUse" x1="438.2241" y1="194.3018" x2="438.2241" y2="201.3027" gradientTransform="matrix(0.75 0 0 -0.75 4.3246 498.254)">
		<stop  offset="0" style="stop-color:#BDBDBD"/>
		<stop  offset="0.15" style="stop-color:#FFFFFF"/>
		<stop  offset="0.25" style="stop-color:#FFFFFF"/>
		<stop  offset="0.52" style="stop-color:#DFDFDF"/>
		<stop  offset="0.69" style="stop-color:#C7C7C7"/>
		<stop  offset="0.8" style="stop-color:#BCBCBC"/>
		<stop  offset="0.92" style="stop-color:#B1B1B1"/>
		<stop  offset="1" style="stop-color:#CBCBCB"/>
	</linearGradient>
	<path fill="url(#SVGID_28_)" d="M155.992,347.277h354v5.25h-354V347.277z"/>
	
		<linearGradient id="SVGID_29_" gradientUnits="userSpaceOnUse" x1="438.2241" y1="194.3037" x2="438.2241" y2="201.3047" gradientTransform="matrix(0.75 0 0 -0.75 4.3246 509.3595)">
		<stop  offset="0" style="stop-color:#BDBDBD"/>
		<stop  offset="0.15" style="stop-color:#FFFFFF"/>
		<stop  offset="0.25" style="stop-color:#FFFFFF"/>
		<stop  offset="0.52" style="stop-color:#DFDFDF"/>
		<stop  offset="0.69" style="stop-color:#C7C7C7"/>
		<stop  offset="0.8" style="stop-color:#BCBCBC"/>
		<stop  offset="0.92" style="stop-color:#B1B1B1"/>
		<stop  offset="1" style="stop-color:#CBCBCB"/>
	</linearGradient>
	<path fill="url(#SVGID_29_)" d="M155.992,358.382h354v5.25h-354V358.382z"/>
	
		<linearGradient id="SVGID_30_" gradientUnits="userSpaceOnUse" x1="438.2241" y1="194.3027" x2="438.2241" y2="201.3037" gradientTransform="matrix(0.75 0 0 -0.75 4.3246 520.465)">
		<stop  offset="0" style="stop-color:#BDBDBD"/>
		<stop  offset="0.15" style="stop-color:#FFFFFF"/>
		<stop  offset="0.25" style="stop-color:#FFFFFF"/>
		<stop  offset="0.52" style="stop-color:#DFDFDF"/>
		<stop  offset="0.69" style="stop-color:#C7C7C7"/>
		<stop  offset="0.8" style="stop-color:#BCBCBC"/>
		<stop  offset="0.92" style="stop-color:#B1B1B1"/>
		<stop  offset="1" style="stop-color:#CBCBCB"/>
	</linearGradient>
	<path fill="url(#SVGID_30_)" d="M155.992,369.488h354v5.25h-354V369.488z"/>
	
		<linearGradient id="SVGID_31_" gradientUnits="userSpaceOnUse" x1="438.2241" y1="194.3076" x2="438.2241" y2="201.3086" gradientTransform="matrix(0.75 0 0 -0.75 4.3246 531.5695)">
		<stop  offset="0" style="stop-color:#BDBDBD"/>
		<stop  offset="0.15" style="stop-color:#FFFFFF"/>
		<stop  offset="0.25" style="stop-color:#FFFFFF"/>
		<stop  offset="0.52" style="stop-color:#DFDFDF"/>
		<stop  offset="0.69" style="stop-color:#C7C7C7"/>
		<stop  offset="0.8" style="stop-color:#BCBCBC"/>
		<stop  offset="0.92" style="stop-color:#B1B1B1"/>
		<stop  offset="1" style="stop-color:#CBCBCB"/>
	</linearGradient>
	<path fill="url(#SVGID_31_)" d="M155.992,380.589h354v5.25h-354V380.589z"/>
	
		<linearGradient id="SVGID_32_" gradientUnits="userSpaceOnUse" x1="438.2241" y1="194.3047" x2="438.2241" y2="201.3057" gradientTransform="matrix(0.75 0 0 -0.75 4.3246 542.674)">
		<stop  offset="0" style="stop-color:#BDBDBD"/>
		<stop  offset="0.15" style="stop-color:#FFFFFF"/>
		<stop  offset="0.25" style="stop-color:#FFFFFF"/>
		<stop  offset="0.52" style="stop-color:#DFDFDF"/>
		<stop  offset="0.69" style="stop-color:#C7C7C7"/>
		<stop  offset="0.8" style="stop-color:#BCBCBC"/>
		<stop  offset="0.92" style="stop-color:#B1B1B1"/>
		<stop  offset="1" style="stop-color:#CBCBCB"/>
	</linearGradient>
	<path fill="url(#SVGID_32_)" d="M155.992,391.695h354v5.25h-354V391.695z"/>
	
		<linearGradient id="SVGID_33_" gradientUnits="userSpaceOnUse" x1="438.2241" y1="194.3057" x2="438.2241" y2="201.3066" gradientTransform="matrix(0.75 0 0 -0.75 4.3246 552.2521)">
		<stop  offset="0" style="stop-color:#BDBDBD"/>
		<stop  offset="0.15" style="stop-color:#FFFFFF"/>
		<stop  offset="0.25" style="stop-color:#FFFFFF"/>
		<stop  offset="0.52" style="stop-color:#DFDFDF"/>
		<stop  offset="0.69" style="stop-color:#C7C7C7"/>
		<stop  offset="0.8" style="stop-color:#BCBCBC"/>
		<stop  offset="0.92" style="stop-color:#B1B1B1"/>
		<stop  offset="1" style="stop-color:#CBCBCB"/>
	</linearGradient>
	<path fill="url(#SVGID_33_)" d="M155.992,401.273h354v5.25h-354V401.273z"/>
	
		<linearGradient id="SVGID_34_" gradientUnits="userSpaceOnUse" x1="438.2241" y1="194.3037" x2="438.2241" y2="201.3047" gradientTransform="matrix(0.75 0 0 -0.75 4.3246 564.8839)">
		<stop  offset="0" style="stop-color:#BDBDBD"/>
		<stop  offset="0.15" style="stop-color:#FFFFFF"/>
		<stop  offset="0.25" style="stop-color:#FFFFFF"/>
		<stop  offset="0.52" style="stop-color:#DFDFDF"/>
		<stop  offset="0.69" style="stop-color:#C7C7C7"/>
		<stop  offset="0.8" style="stop-color:#BCBCBC"/>
		<stop  offset="0.92" style="stop-color:#B1B1B1"/>
		<stop  offset="1" style="stop-color:#CBCBCB"/>
	</linearGradient>
	<path fill="url(#SVGID_34_)" d="M155.992,413.906h354v5.25h-354V413.906z"/>
	
		<linearGradient id="SVGID_35_" gradientUnits="userSpaceOnUse" x1="438.2241" y1="194.3076" x2="438.2241" y2="201.3086" gradientTransform="matrix(0.75 0 0 -0.75 4.3246 575.4796)">
		<stop  offset="0" style="stop-color:#BDBDBD"/>
		<stop  offset="0.15" style="stop-color:#FFFFFF"/>
		<stop  offset="0.25" style="stop-color:#FFFFFF"/>
		<stop  offset="0.52" style="stop-color:#DFDFDF"/>
		<stop  offset="0.69" style="stop-color:#C7C7C7"/>
		<stop  offset="0.8" style="stop-color:#BCBCBC"/>
		<stop  offset="0.92" style="stop-color:#B1B1B1"/>
		<stop  offset="1" style="stop-color:#CBCBCB"/>
	</linearGradient>
	<path fill="url(#SVGID_35_)" d="M155.992,424.5h354v5.25h-354V424.5z"/>
	
		<linearGradient id="SVGID_36_" gradientUnits="userSpaceOnUse" x1="438.2241" y1="194.3018" x2="438.2241" y2="201.3027" gradientTransform="matrix(0.75 0 0 -0.75 4.3246 587.0939)">
		<stop  offset="0" style="stop-color:#BDBDBD"/>
		<stop  offset="0.15" style="stop-color:#FFFFFF"/>
		<stop  offset="0.25" style="stop-color:#FFFFFF"/>
		<stop  offset="0.52" style="stop-color:#DFDFDF"/>
		<stop  offset="0.69" style="stop-color:#C7C7C7"/>
		<stop  offset="0.8" style="stop-color:#BCBCBC"/>
		<stop  offset="0.92" style="stop-color:#B1B1B1"/>
		<stop  offset="1" style="stop-color:#CBCBCB"/>
	</linearGradient>
	<path fill="url(#SVGID_36_)" d="M155.992,436.117h354v5.25h-354V436.117z"/>
	
		<linearGradient id="SVGID_37_" gradientUnits="userSpaceOnUse" x1="438.2241" y1="194.3018" x2="438.2241" y2="201.3027" gradientTransform="matrix(0.75 0 0 -0.75 4.3246 598.7062)">
		<stop  offset="0" style="stop-color:#BDBDBD"/>
		<stop  offset="0.15" style="stop-color:#FFFFFF"/>
		<stop  offset="0.25" style="stop-color:#FFFFFF"/>
		<stop  offset="0.52" style="stop-color:#DFDFDF"/>
		<stop  offset="0.69" style="stop-color:#C7C7C7"/>
		<stop  offset="0.8" style="stop-color:#BCBCBC"/>
		<stop  offset="0.92" style="stop-color:#B1B1B1"/>
		<stop  offset="1" style="stop-color:#CBCBCB"/>
	</linearGradient>
	<path fill="url(#SVGID_37_)" d="M155.992,447.73h354v5.25h-354V447.73z"/>
	
		<linearGradient id="SVGID_38_" gradientUnits="userSpaceOnUse" x1="438.2241" y1="194.3018" x2="438.2241" y2="201.3027" gradientTransform="matrix(0.75 0 0 -0.75 4.3246 610.3204)">
		<stop  offset="0" style="stop-color:#BDBDBD"/>
		<stop  offset="0.15" style="stop-color:#FFFFFF"/>
		<stop  offset="0.25" style="stop-color:#FFFFFF"/>
		<stop  offset="0.52" style="stop-color:#DFDFDF"/>
		<stop  offset="0.69" style="stop-color:#C7C7C7"/>
		<stop  offset="0.8" style="stop-color:#BCBCBC"/>
		<stop  offset="0.92" style="stop-color:#B1B1B1"/>
		<stop  offset="1" style="stop-color:#CBCBCB"/>
	</linearGradient>
	<path fill="url(#SVGID_38_)" d="M155.992,459.343h354v5.25h-354V459.343z"/>
	
		<linearGradient id="SVGID_39_" gradientUnits="userSpaceOnUse" x1="438.2231" y1="194.3018" x2="438.2231" y2="201.3027" gradientTransform="matrix(0.75 0 0 -0.75 4.3246 621.9337)">
		<stop  offset="0" style="stop-color:#BDBDBD"/>
		<stop  offset="0.15" style="stop-color:#FFFFFF"/>
		<stop  offset="0.25" style="stop-color:#FFFFFF"/>
		<stop  offset="0.52" style="stop-color:#DFDFDF"/>
		<stop  offset="0.69" style="stop-color:#C7C7C7"/>
		<stop  offset="0.8" style="stop-color:#BCBCBC"/>
		<stop  offset="0.92" style="stop-color:#B1B1B1"/>
		<stop  offset="1" style="stop-color:#CBCBCB"/>
	</linearGradient>
	<path fill="url(#SVGID_39_)" d="M155.992,470.957h354v5.25h-354V470.957z"/>
</g>
</svg>
