<?xml version="1.0" encoding="utf-8"?>
<!-- Generator: Adobe Illustrator 16.0.0, SVG Export Plug-In . SVG Version: 6.00 Build 0)  -->
<!DOCTYPE svg PUBLIC "-//W3C//DTD SVG 1.1//EN" "http://www.w3.org/Graphics/SVG/1.1/DTD/svg11.dtd">
<svg preserveAspectRatio="none"   version="1.1" id="图层_1" xmlns="http://www.w3.org/2000/svg" xmlns:xlink="http://www.w3.org/1999/xlink" x="0px" y="0px"
	 width="567.07px" height="567.07px" viewBox="-0.07 -0.07 567.07 567.07" enable-background="new -0.07 -0.07 567.07 567.07"
	 xml:space="preserve">
<g id="surface151">
	
		<linearGradient id="SVGID_1_" gradientUnits="userSpaceOnUse" x1="580.272" y1="201.3037" x2="580.2719" y2="-554.7891" gradientTransform="matrix(0.75 0 0 -0.75 -151.7399 150.9064)">
		<stop  offset="0" style="stop-color:#93959A"/>
		<stop  offset="0.03" style="stop-color:#DADDE2"/>
		<stop  offset="0.05" style="stop-color:#BFC2C9"/>
		<stop  offset="0.64" style="stop-color:#BCBFC5"/>
		<stop  offset="0.95" style="stop-color:#B8BBC1"/>
		<stop  offset="1" style="stop-color:#888A8F"/>
	</linearGradient>
	<path fill="url(#SVGID_1_)" d="M4.43-0.07h558c2.25,0,4.57,1.813,4.57,4.277l-0.07,558.222c0,2.25-1.977,4.57-4.441,4.57
		L4.43,566.929c-3,0-4.5-2.254-4.5-4.719V4.43c0-3,1.742-4.5,4.211-4.5H4.43z"/>
	
		<radialGradient id="SVGID_2_" cx="528.0112" cy="-124.6338" r="460.8377" gradientTransform="matrix(0.75 0 0 -0.75 -112.5436 189.9884)" gradientUnits="userSpaceOnUse">
		<stop  offset="0" style="stop-color:#B3B7BE"/>
		<stop  offset="0.54" style="stop-color:#AFB3BA"/>
		<stop  offset="0.74" style="stop-color:#D0D2D7"/>
		<stop  offset="0.91" style="stop-color:#AFB3BA"/>
		<stop  offset="1" style="stop-color:#AFB3BA"/>
	</radialGradient>
	<path fill="url(#SVGID_2_)" stroke="#D4D6DB" stroke-width="0.25" stroke-linejoin="bevel" stroke-miterlimit="10" d="
		M39.125,283.512c0-135,109.332-244.5,244.34-244.5c135.16,0,244.339,109.445,244.339,244.453
		c0.32,135.046-109.461,244.453-244.339,244.453c-134.84,0.094-244.34-109.445-244.34-244.453V283.512z"/>
	<path fill="#989DA7" d="M60.504,283.152c0-123,99.824-222.75,222.961-222.75c122.789,0,222.957,99.805,222.957,223.063
		c0.332,123.437-99.82,223.062-222.957,223.062c-123.211,0.125-222.961-99.934-222.961-223.062V283.152z"/>
	<path fill="#FFFFFF" fill-opacity="0.1843" d="M71.012,283.16c0-117,95.117-212.25,212.453-212.25
		c117.546,0,212.453,95.105,212.453,212.555c0.344,117.445-95.117,212.55-212.453,212.55
		c-117.203,0.145-212.453-95.223-212.453-212.55V283.16z"/>
	
		<linearGradient id="SVGID_3_" gradientUnits="userSpaceOnUse" x1="356.4634" y1="89.5889" x2="202.2241" y2="89.5889" gradientTransform="matrix(0.75 0 0 -0.75 73.9559 250.5255)">
		<stop  offset="0.37" style="stop-color:#E3E5E9"/>
		<stop  offset="0.44" style="stop-color:#E0E2E7"/>
		<stop  offset="0.72" style="stop-color:#C5C7CB"/>
		<stop  offset="1" style="stop-color:#A2A3A7"/>
	</linearGradient>
	<path fill="url(#SVGID_3_)" d="M247.375,99.547h72c12,0,21.93,9.715,21.93,21.695c-0.18,0.055-23.086,145.879-35.066,145.879
		l-45.363-0.324c-12,0-35.25-145.555-35.25-145.555c0-11.945,9.711-21.695,21.691-21.695H247.375z"/>
	
		<linearGradient id="SVGID_4_" gradientUnits="userSpaceOnUse" x1="356.4634" y1="454.9106" x2="202.2241" y2="454.9106" gradientTransform="matrix(0.75 0 0 0.75 73.9559 42.1981)">
		<stop  offset="0.37" style="stop-color:#E3E5E9"/>
		<stop  offset="0.44" style="stop-color:#E0E2E7"/>
		<stop  offset="0.72" style="stop-color:#C5C7CB"/>
		<stop  offset="1" style="stop-color:#A2A3A7"/>
	</linearGradient>
	<path fill="url(#SVGID_4_)" d="M247.375,467.167h72c12,0,21.93-9.715,21.93-21.695c-0.18-0.055-23.086-145.879-35.066-145.879
		l-45.363,0.324c-12,0-35.25,145.555-35.25,145.555c0,11.945,9.711,21.695,21.691,21.695H247.375z"/>
	
		<linearGradient id="SVGID_5_" gradientUnits="userSpaceOnUse" x1="155.6162" y1="254.0381" x2="1.3047" y2="254.0381" gradientTransform="matrix(0 -0.75 -0.75 0 373.9054 342.3087)">
		<stop  offset="0.37" style="stop-color:#E3E5E9"/>
		<stop  offset="0.44" style="stop-color:#E0E2E7"/>
		<stop  offset="0.72" style="stop-color:#C5C7CB"/>
		<stop  offset="1" style="stop-color:#A2A3A7"/>
	</linearGradient>
	<path fill="url(#SVGID_5_)" d="M99.629,319.582v-72c0-12,9.707-21.984,21.684-21.984c0.066,0.234,145.813,23.098,145.813,35.082
		l-0.246,45.402c0,12-145.566,35.25-145.566,35.25c-11.934,0-21.684-9.715-21.684-21.699V319.582z"/>
	
		<linearGradient id="SVGID_6_" gradientUnits="userSpaceOnUse" x1="155.6162" y1="290.5581" x2="1.3047" y2="290.5581" gradientTransform="matrix(0 -0.75 0.75 0 165.4071 342.3087)">
		<stop  offset="0.37" style="stop-color:#E3E5E9"/>
		<stop  offset="0.44" style="stop-color:#E0E2E7"/>
		<stop  offset="0.72" style="stop-color:#C5C7CB"/>
		<stop  offset="1" style="stop-color:#A2A3A7"/>
	</linearGradient>
	<path fill="url(#SVGID_6_)" d="M467.074,319.582v-72c0-12-9.707-21.984-21.684-21.984c-0.066,0.234-145.813,23.098-145.813,35.082
		l0.246,45.402c0,12,145.566,35.25,145.566,35.25c11.934,0,21.684-9.715,21.684-21.699V319.582z"/>
	
		<linearGradient id="SVGID_7_" gradientUnits="userSpaceOnUse" x1="300.4819" y1="205.5991" x2="207.0562" y2="94.2587" gradientTransform="matrix(0.75 0 0 -0.75 93.0448 395.7687)">
		<stop  offset="0" style="stop-color:#737782"/>
		<stop  offset="0.15" style="stop-color:#A5AAB6"/>
		<stop  offset="0.52" style="stop-color:#898D9A"/>
		<stop  offset="0.69" style="stop-color:#797D88"/>
		<stop  offset="0.8" style="stop-color:#727680"/>
		<stop  offset="0.92" style="stop-color:#6B6F79"/>
		<stop  offset="1" style="stop-color:#7C808C"/>
	</linearGradient>
	<path fill="url(#SVGID_7_)" d="M244.715,283.043c0-21,17.281-38.418,38.648-38.418c21.351,0.168,38.687,17.328,38.687,38.707
		c-0.086,21.46-17.32,38.703-38.687,38.703c-21.398,0.008-38.648-17.328-38.648-38.703V283.043z"/>
	
		<radialGradient id="SVGID_8_" cx="245.585" cy="158.0864" r="61.3477" gradientTransform="matrix(0.75 0 0 -0.75 99.2084 401.92)" gradientUnits="userSpaceOnUse">
		<stop  offset="0" style="stop-color:#B9BCC3"/>
		<stop  offset="0.54" style="stop-color:#B5B8BF"/>
		<stop  offset="0.74" style="stop-color:#D4D5DA"/>
		<stop  offset="0.91" style="stop-color:#B5B8BF"/>
		<stop  offset="1" style="stop-color:#B5B8BF"/>
	</radialGradient>
	<path fill="url(#SVGID_8_)" stroke="#989DA7" stroke-width="0.25" stroke-linejoin="bevel" stroke-miterlimit="10" d="
		M250.879,283.191c0-18,14.531-32.387,32.5-32.387c17.75,0.137,32.535,14.57,32.535,32.547c0.215,17.839-14.566,32.55-32.535,32.55
		c-18.25,0.289-32.5-14.574-32.5-32.55V283.191z"/>
</g>
</svg>
