<?xml version="1.0" encoding="utf-8"?>
<!-- Generator: Adobe Illustrator 16.0.0, SVG Export Plug-In . SVG Version: 6.00 Build 0)  -->
<!DOCTYPE svg PUBLIC "-//W3C//DTD SVG 1.1//EN" "http://www.w3.org/Graphics/SVG/1.1/DTD/svg11.dtd">
<svg preserveAspectRatio="none" version="1.1" id="图层_1" xmlns="http://www.w3.org/2000/svg" xmlns:xlink="http://www.w3.org/1999/xlink" x="0px" y="0px"
	 width="139.75px" height="139.59px" viewBox="0.992 1.469 139.75 139.59" enable-background="new 0.992 1.469 139.75 139.59"
	 xml:space="preserve">
<g id="surface326">
	
		<linearGradient id="SVGID_1_" gradientUnits="userSpaceOnUse" x1="273.0908" y1="-306.7607" x2="282.0908" y2="-306.7607" gradientTransform="matrix(0.75 0 0 -0.75 -185.8577 -219.6013)">
		<stop  offset="0" style="stop-color:#858D89"/>
		<stop  offset="0.15" style="stop-color:#B4BEBA"/>
		<stop  offset="0.32" style="stop-color:#EBEDEC"/>
		<stop  offset="0.55" style="stop-color:#A0AAA6"/>
		<stop  offset="0.77" style="stop-color:#666C69"/>
		<stop  offset="1" style="stop-color:#A4AFAA"/>
	</linearGradient>
	<path fill="url(#SVGID_1_)" d="M20.461,1.469h3c1.5,0,1.883,0.691,1.883,1.547l0.367,16.453h-6.75v-16.5
		c0-0.75,0.715-1.5,1.594-1.5H20.461z"/>
	
		<linearGradient id="SVGID_2_" gradientUnits="userSpaceOnUse" x1="273.0898" y1="-306.7607" x2="282.0898" y2="-306.7607" gradientTransform="matrix(0.75 0 0 -0.75 -87.9265 -219.6013)">
		<stop  offset="0" style="stop-color:#858D89"/>
		<stop  offset="0.15" style="stop-color:#B4BEBA"/>
		<stop  offset="0.32" style="stop-color:#EBEDEC"/>
		<stop  offset="0.55" style="stop-color:#A0AAA6"/>
		<stop  offset="0.77" style="stop-color:#666C69"/>
		<stop  offset="1" style="stop-color:#A4AFAA"/>
	</linearGradient>
	<path fill="url(#SVGID_2_)" d="M118.391,1.469h3c1.5,0,1.883,0.691,1.883,1.547l0.367,16.453h-6.75v-16.5
		c0-0.75,0.715-1.5,1.598-1.5H118.391z"/>
	
		<linearGradient id="SVGID_3_" gradientUnits="userSpaceOnUse" x1="273.0928" y1="-297.7578" x2="286.0928" y2="-297.7578" gradientTransform="matrix(0.75 0 0 -0.75 -139.218 -206.2605)">
		<stop  offset="0" style="stop-color:#589C9D"/>
		<stop  offset="0.4" style="stop-color:#91CFD1"/>
		<stop  offset="1" style="stop-color:#549697"/>
	</linearGradient>
	<path fill="url(#SVGID_3_)" d="M67.102,14.809h6.75c0.75,0,1.285,0.594,1.285,1.332l0.215,3.168h-9.75v-3
		c0-0.75,0.613-1.5,1.371-1.5H67.102z"/>
	
		<linearGradient id="SVGID_4_" gradientUnits="userSpaceOnUse" x1="273.0908" y1="-297.2588" x2="280.2568" y2="-297.2588" gradientTransform="matrix(0.75 0 0 -0.75 -169.0598 -205.6365)">
		<stop  offset="0" style="stop-color:#A67458"/>
		<stop  offset="0.4" style="stop-color:#D6B5A7"/>
		<stop  offset="1" style="stop-color:#9A6B51"/>
	</linearGradient>
	<path fill="url(#SVGID_4_)" d="M37.258,15.434h2.25c0.75,0,1.625,0.613,1.625,1.375l-0.125,2.375h-5.25v-2.25
		c0-0.75,0.637-1.5,1.418-1.5H37.258z"/>
	
		<linearGradient id="SVGID_5_" gradientUnits="userSpaceOnUse" x1="273.0889" y1="-296.2578" x2="283.3916" y2="-296.2578" gradientTransform="matrix(0.75 0 0 -0.75 -156.6296 -204.1277)">
		<stop  offset="0" style="stop-color:#C6A96A"/>
		<stop  offset="0.37" style="stop-color:#FEE3B2"/>
		<stop  offset="1" style="stop-color:#C6A96A"/>
	</linearGradient>
	<path fill="url(#SVGID_5_)" d="M49.688,16.941h4.5c0.75,0,1.727,0.691,1.727,1.547l-7.727,0.703c0-1.5,0.715-2.25,1.598-2.25
		H49.688z"/>
	
		<linearGradient id="SVGID_6_" gradientUnits="userSpaceOnUse" x1="273.0928" y1="-297.7578" x2="286.0928" y2="-297.7578" gradientTransform="matrix(0.75 0 0 -0.75 -110.6125 -206.2605)">
		<stop  offset="0" style="stop-color:#D6974D"/>
		<stop  offset="0.39" style="stop-color:#F4BA76"/>
		<stop  offset="1" style="stop-color:#D89300"/>
	</linearGradient>
	<path fill="url(#SVGID_6_)" d="M95.707,14.809h6.75c0.75,0,1.285,0.594,1.285,1.332l0.215,3.168h-9.75v-3
		c0-0.75,0.613-1.5,1.371-1.5H95.707z"/>
	
		<linearGradient id="SVGID_7_" gradientUnits="userSpaceOnUse" x1="273.0898" y1="-297.7578" x2="286.0898" y2="-297.7578" gradientTransform="matrix(0.75 0 0 -0.75 -124.9148 -206.2605)">
		<stop  offset="0" style="stop-color:#B97A77"/>
		<stop  offset="0.38" style="stop-color:#F5BFBD"/>
		<stop  offset="1" style="stop-color:#C2817D"/>
	</linearGradient>
	<path fill="url(#SVGID_7_)" d="M81.402,14.809h6.75c0.75,0,1.289,0.594,1.289,1.332l0.211,3.168h-9.75v-3
		c0-0.75,0.617-1.5,1.375-1.5H81.402z"/>
	<path fill="#6BA396" stroke="#2F575B" stroke-linejoin="bevel" stroke-miterlimit="10" d="M1.492,19.059h138.75v121.5H1.492V19.059
		z"/>
	<path fill="#55897D" stroke="#2F575B" stroke-linejoin="bevel" stroke-miterlimit="10" d="M13.082,19.059h115.5v121.5h-115.5
		V19.059z"/>
	<path fill="none" stroke="#2F575B" stroke-linejoin="bevel" stroke-miterlimit="10" d="M1.492,27.527h138.75"/>
	<path fill="none" stroke="#2F575B" stroke-linejoin="bevel" stroke-miterlimit="10" d="M1.492,136.332h138.75"/>
	<path fill="#1B3737" stroke="#1B3737" stroke-width="0.25" stroke-linejoin="bevel" stroke-miterlimit="10" d="M27.695,34.789
		h14.25v2.25h-14.25V34.789z"/>
	<path fill="#1B3737" stroke="#1B3737" stroke-width="0.25" stroke-linejoin="bevel" stroke-miterlimit="10" d="M27.695,41.563
		h14.25v2.25h-14.25V41.563z"/>
	<path fill="#1B3737" stroke="#1B3737" stroke-width="0.25" stroke-linejoin="bevel" stroke-miterlimit="10" d="M27.695,48.336
		h14.25v2.25h-14.25V48.336z"/>
	<path fill="#1B3737" stroke="#1B3737" stroke-width="0.25" stroke-linejoin="bevel" stroke-miterlimit="10" d="M27.695,55.105
		h14.25v2.25h-14.25V55.105z"/>
	<path fill="#1B3737" stroke="#1B3737" stroke-width="0.25" stroke-linejoin="bevel" stroke-miterlimit="10" d="M27.695,61.879
		h14.25v2.25h-14.25V61.879z"/>
	<path fill="#1B3737" stroke="#1B3737" stroke-width="0.25" stroke-linejoin="bevel" stroke-miterlimit="10" d="M27.695,82.445
		h14.25v2.25h-14.25V82.445z"/>
	<path fill="#1B3737" stroke="#1B3737" stroke-width="0.25" stroke-linejoin="bevel" stroke-miterlimit="10" d="M27.695,88.969
		h14.25v2.25h-14.25V88.969z"/>
	<path fill="#1B3737" stroke="#1B3737" stroke-width="0.25" stroke-linejoin="bevel" stroke-miterlimit="10" d="M27.695,75.426
		h14.25v2.25h-14.25V75.426z"/>
	<path fill="#1B3737" stroke="#1B3737" stroke-width="0.25" stroke-linejoin="bevel" stroke-miterlimit="10" d="M27.695,68.652
		h14.25v2.25h-14.25V68.652z"/>
	<path fill="#1B3737" stroke="#1B3737" stroke-width="0.25" stroke-linejoin="bevel" stroke-miterlimit="10" d="M27.695,108.992
		h14.25v2.25h-14.25V108.992z"/>
	<path fill="#1B3737" stroke="#1B3737" stroke-width="0.25" stroke-linejoin="bevel" stroke-miterlimit="10" d="M27.695,116.059
		h14.25v2.25h-14.25V116.059z"/>
	<path fill="#1B3737" stroke="#1B3737" stroke-width="0.25" stroke-linejoin="bevel" stroke-miterlimit="10" d="M27.695,102.516
		h14.25v2.25h-14.25V102.516z"/>
	<path fill="#1B3737" stroke="#1B3737" stroke-width="0.25" stroke-linejoin="bevel" stroke-miterlimit="10" d="M27.695,95.742
		h14.25v2.25h-14.25V95.742z"/>
	<path fill="#1B3737" stroke="#1B3737" stroke-width="0.25" stroke-linejoin="bevel" stroke-miterlimit="10" d="M27.695,122.832
		h14.25v2.25h-14.25V122.832z"/>
	<path fill="#1B3737" stroke="#1B3737" stroke-width="0.25" stroke-linejoin="bevel" stroke-miterlimit="10" d="M52.016,34.789
		h14.25v2.25h-14.25V34.789z"/>
	<path fill="#1B3737" stroke="#1B3737" stroke-width="0.25" stroke-linejoin="bevel" stroke-miterlimit="10" d="M52.016,41.563
		h14.25v2.25h-14.25V41.563z"/>
	<path fill="#1B3737" stroke="#1B3737" stroke-width="0.25" stroke-linejoin="bevel" stroke-miterlimit="10" d="M52.016,48.336
		h14.25v2.25h-14.25V48.336z"/>
	<path fill="#1B3737" stroke="#1B3737" stroke-width="0.25" stroke-linejoin="bevel" stroke-miterlimit="10" d="M52.016,55.105
		h14.25v2.25h-14.25V55.105z"/>
	<path fill="#1B3737" stroke="#1B3737" stroke-width="0.25" stroke-linejoin="bevel" stroke-miterlimit="10" d="M52.016,61.879
		h14.25v2.25h-14.25V61.879z"/>
	<path fill="#1B3737" stroke="#1B3737" stroke-width="0.25" stroke-linejoin="bevel" stroke-miterlimit="10" d="M52.016,82.445
		h14.25v2.25h-14.25V82.445z"/>
	<path fill="#1B3737" stroke="#1B3737" stroke-width="0.25" stroke-linejoin="bevel" stroke-miterlimit="10" d="M52.016,88.969
		h14.25v2.25h-14.25V88.969z"/>
	<path fill="#1B3737" stroke="#1B3737" stroke-width="0.25" stroke-linejoin="bevel" stroke-miterlimit="10" d="M52.016,75.426
		h14.25v2.25h-14.25V75.426z"/>
	<path fill="#1B3737" stroke="#1B3737" stroke-width="0.25" stroke-linejoin="bevel" stroke-miterlimit="10" d="M52.016,68.652
		h14.25v2.25h-14.25V68.652z"/>
	<path fill="#1B3737" stroke="#1B3737" stroke-width="0.25" stroke-linejoin="bevel" stroke-miterlimit="10" d="M52.016,108.992
		h14.25v2.25h-14.25V108.992z"/>
	<path fill="#1B3737" stroke="#1B3737" stroke-width="0.25" stroke-linejoin="bevel" stroke-miterlimit="10" d="M52.016,116.063
		h14.25v2.25h-14.25V116.063z"/>
	<path fill="#1B3737" stroke="#1B3737" stroke-width="0.25" stroke-linejoin="bevel" stroke-miterlimit="10" d="M52.016,102.516
		h14.25v2.25h-14.25V102.516z"/>
	<path fill="#1B3737" stroke="#1B3737" stroke-width="0.25" stroke-linejoin="bevel" stroke-miterlimit="10" d="M52.016,95.742
		h14.25v2.25h-14.25V95.742z"/>
	<path fill="#1B3737" stroke="#1B3737" stroke-width="0.25" stroke-linejoin="bevel" stroke-miterlimit="10" d="M52.016,122.832
		h14.25v2.25h-14.25V122.832z"/>
	<path fill="#1B3737" stroke="#1B3737" stroke-width="0.25" stroke-linejoin="bevel" stroke-miterlimit="10" d="M76.336,34.789
		h14.25v2.25h-14.25V34.789z"/>
	<path fill="#1B3737" stroke="#1B3737" stroke-width="0.25" stroke-linejoin="bevel" stroke-miterlimit="10" d="M76.336,41.563
		h14.25v2.25h-14.25V41.563z"/>
	<path fill="#1B3737" stroke="#1B3737" stroke-width="0.25" stroke-linejoin="bevel" stroke-miterlimit="10" d="M76.336,48.336
		h14.25v2.25h-14.25V48.336z"/>
	<path fill="#1B3737" stroke="#1B3737" stroke-width="0.25" stroke-linejoin="bevel" stroke-miterlimit="10" d="M76.336,55.105
		h14.25v2.25h-14.25V55.105z"/>
	<path fill="#1B3737" stroke="#1B3737" stroke-width="0.25" stroke-linejoin="bevel" stroke-miterlimit="10" d="M76.336,61.879
		h14.25v2.25h-14.25V61.879z"/>
	<path fill="#1B3737" stroke="#1B3737" stroke-width="0.25" stroke-linejoin="bevel" stroke-miterlimit="10" d="M76.336,82.445
		h14.25v2.25h-14.25V82.445z"/>
	<path fill="#1B3737" stroke="#1B3737" stroke-width="0.25" stroke-linejoin="bevel" stroke-miterlimit="10" d="M76.336,88.969
		h14.25v2.25h-14.25V88.969z"/>
	<path fill="#1B3737" stroke="#1B3737" stroke-width="0.25" stroke-linejoin="bevel" stroke-miterlimit="10" d="M76.336,75.426
		h14.25v2.25h-14.25V75.426z"/>
	<path fill="#1B3737" stroke="#1B3737" stroke-width="0.25" stroke-linejoin="bevel" stroke-miterlimit="10" d="M76.336,68.652
		h14.25v2.25h-14.25V68.652z"/>
	<path fill="#1B3737" stroke="#1B3737" stroke-width="0.25" stroke-linejoin="bevel" stroke-miterlimit="10" d="M76.336,108.992
		h14.25v2.25h-14.25V108.992z"/>
	<path fill="#1B3737" stroke="#1B3737" stroke-width="0.25" stroke-linejoin="bevel" stroke-miterlimit="10" d="M76.336,116.063
		h14.25v2.25h-14.25V116.063z"/>
	<path fill="#1B3737" stroke="#1B3737" stroke-width="0.25" stroke-linejoin="bevel" stroke-miterlimit="10" d="M76.336,102.516
		h14.25v2.25h-14.25V102.516z"/>
	<path fill="#1B3737" stroke="#1B3737" stroke-width="0.25" stroke-linejoin="bevel" stroke-miterlimit="10" d="M76.336,95.742
		h14.25v2.25h-14.25V95.742z"/>
	<path fill="#1B3737" stroke="#1B3737" stroke-width="0.25" stroke-linejoin="bevel" stroke-miterlimit="10" d="M76.336,122.832
		h14.25v2.25h-14.25V122.832z"/>
	<path fill="#1B3737" stroke="#1B3737" stroke-width="0.25" stroke-linejoin="bevel" stroke-miterlimit="10" d="M100.652,34.789
		h14.25v2.25h-14.25V34.789z"/>
	<path fill="#1B3737" stroke="#1B3737" stroke-width="0.25" stroke-linejoin="bevel" stroke-miterlimit="10" d="M100.652,41.563
		h14.25v2.25h-14.25V41.563z"/>
	<path fill="#1B3737" stroke="#1B3737" stroke-width="0.25" stroke-linejoin="bevel" stroke-miterlimit="10" d="M100.652,48.336
		h14.25v2.25h-14.25V48.336z"/>
	<path fill="#1B3737" stroke="#1B3737" stroke-width="0.25" stroke-linejoin="bevel" stroke-miterlimit="10" d="M100.652,55.105
		h14.25v2.25h-14.25V55.105z"/>
	<path fill="#1B3737" stroke="#1B3737" stroke-width="0.25" stroke-linejoin="bevel" stroke-miterlimit="10" d="M100.652,61.879
		h14.25v2.25h-14.25V61.879z"/>
	<path fill="#1B3737" stroke="#1B3737" stroke-width="0.25" stroke-linejoin="bevel" stroke-miterlimit="10" d="M100.652,82.445
		h14.25v2.25h-14.25V82.445z"/>
	<path fill="#1B3737" stroke="#1B3737" stroke-width="0.25" stroke-linejoin="bevel" stroke-miterlimit="10" d="M100.652,88.969
		h14.25v2.25h-14.25V88.969z"/>
	<path fill="#1B3737" stroke="#1B3737" stroke-width="0.25" stroke-linejoin="bevel" stroke-miterlimit="10" d="M100.652,75.426
		h14.25v2.25h-14.25V75.426z"/>
	<path fill="#1B3737" stroke="#1B3737" stroke-width="0.25" stroke-linejoin="bevel" stroke-miterlimit="10" d="M100.652,68.652
		h14.25v2.25h-14.25V68.652z"/>
	<path fill="#1B3737" stroke="#1B3737" stroke-width="0.25" stroke-linejoin="bevel" stroke-miterlimit="10" d="M100.652,108.992
		h14.25v2.25h-14.25V108.992z"/>
	<path fill="#1B3737" stroke="#1B3737" stroke-width="0.25" stroke-linejoin="bevel" stroke-miterlimit="10" d="M100.652,116.063
		h14.25v2.25h-14.25V116.063z"/>
	<path fill="#1B3737" stroke="#1B3737" stroke-width="0.25" stroke-linejoin="bevel" stroke-miterlimit="10" d="M100.652,102.516
		h14.25v2.25h-14.25V102.516z"/>
	<path fill="#1B3737" stroke="#1B3737" stroke-width="0.25" stroke-linejoin="bevel" stroke-miterlimit="10" d="M100.652,95.742
		h14.25v2.25h-14.25V95.742z"/>
	<path fill="#1B3737" stroke="#1B3737" stroke-width="0.25" stroke-linejoin="bevel" stroke-miterlimit="10" d="M100.652,122.832
		h14.25v2.25h-14.25V122.832z"/>
	
		<linearGradient id="SVGID_8_" gradientUnits="userSpaceOnUse" x1="272.5977" y1="-296.1138" x2="278.4956" y2="-298.2605" gradientTransform="matrix(0.75 0 0 -0.75 -188.5452 -190.9343)">
		<stop  offset="0" style="stop-color:#858D89"/>
		<stop  offset="0.11" style="stop-color:#B4BEBA"/>
		<stop  offset="0.39" style="stop-color:#DBDFDD"/>
		<stop  offset="0.55" style="stop-color:#B5BEBB"/>
		<stop  offset="0.77" style="stop-color:#8A928F"/>
	</linearGradient>
	<path fill="url(#SVGID_8_)" stroke="#2F575B" stroke-linejoin="bevel" stroke-miterlimit="10" d="M16.273,31.637
		c0-0.75,0.828-1.5,1.848-1.5c1.152,0,1.848,0.801,1.848,1.789c0.055,1.211-0.828,1.793-1.848,1.793
		c-1.098,0.168-1.848-0.805-1.848-1.793V31.637z"/>
	
		<linearGradient id="SVGID_9_" gradientUnits="userSpaceOnUse" x1="272.5977" y1="-296.1123" x2="278.4956" y2="-298.259" gradientTransform="matrix(0.75 0 0 -0.75 -188.5452 -140.4412)">
		<stop  offset="0" style="stop-color:#858D89"/>
		<stop  offset="0.11" style="stop-color:#B4BEBA"/>
		<stop  offset="0.39" style="stop-color:#DBDFDD"/>
		<stop  offset="0.55" style="stop-color:#B5BEBB"/>
		<stop  offset="0.77" style="stop-color:#8A928F"/>
	</linearGradient>
	<path fill="url(#SVGID_9_)" stroke="#2F575B" stroke-linejoin="bevel" stroke-miterlimit="10" d="M16.273,82.129
		c0-0.75,0.828-1.5,1.848-1.5c1.152,0,1.848,0.801,1.848,1.789c0.055,1.211-0.828,1.793-1.848,1.793
		c-1.098,0.168-1.848-0.801-1.848-1.793V82.129z"/>
	
		<linearGradient id="SVGID_10_" gradientUnits="userSpaceOnUse" x1="272.5986" y1="-296.1128" x2="278.4966" y2="-298.2595" gradientTransform="matrix(0.75 0 0 -0.75 -188.5452 -89.949)">
		<stop  offset="0" style="stop-color:#858D89"/>
		<stop  offset="0.11" style="stop-color:#B4BEBA"/>
		<stop  offset="0.39" style="stop-color:#DBDFDD"/>
		<stop  offset="0.55" style="stop-color:#B5BEBB"/>
		<stop  offset="0.77" style="stop-color:#8A928F"/>
	</linearGradient>
	<path fill="url(#SVGID_10_)" stroke="#2F575B" stroke-linejoin="bevel" stroke-miterlimit="10" d="M16.273,132.621
		c0-0.75,0.828-1.5,1.848-1.5c1.152,0,1.848,0.801,1.848,1.789c0.055,1.211-0.828,1.793-1.848,1.793
		c-1.098,0.168-1.848-0.801-1.848-1.793V132.621z"/>
	
		<linearGradient id="SVGID_11_" gradientUnits="userSpaceOnUse" x1="272.5977" y1="-296.1147" x2="278.4951" y2="-298.2612" gradientTransform="matrix(0.75 0 0 -0.75 -83.3914 -190.9343)">
		<stop  offset="0" style="stop-color:#858D89"/>
		<stop  offset="0.11" style="stop-color:#B4BEBA"/>
		<stop  offset="0.39" style="stop-color:#DBDFDD"/>
		<stop  offset="0.55" style="stop-color:#B5BEBB"/>
		<stop  offset="0.77" style="stop-color:#8A928F"/>
	</linearGradient>
	<path fill="url(#SVGID_11_)" stroke="#2F575B" stroke-linejoin="bevel" stroke-miterlimit="10" d="M121.426,31.637
		c0-0.75,0.828-1.5,1.848-1.5c1.152,0,1.848,0.801,1.848,1.789c0.055,1.211-0.824,1.793-1.848,1.793
		c-1.098,0.168-1.848-0.805-1.848-1.793V31.637z"/>
	
		<linearGradient id="SVGID_12_" gradientUnits="userSpaceOnUse" x1="272.5977" y1="-296.1147" x2="278.4951" y2="-298.2612" gradientTransform="matrix(0.75 0 0 -0.75 -83.3914 -140.4412)">
		<stop  offset="0" style="stop-color:#858D89"/>
		<stop  offset="0.11" style="stop-color:#B4BEBA"/>
		<stop  offset="0.39" style="stop-color:#DBDFDD"/>
		<stop  offset="0.55" style="stop-color:#B5BEBB"/>
		<stop  offset="0.77" style="stop-color:#8A928F"/>
	</linearGradient>
	<path fill="url(#SVGID_12_)" stroke="#2F575B" stroke-linejoin="bevel" stroke-miterlimit="10" d="M121.426,82.129
		c0-0.75,0.828-1.5,1.848-1.5c1.152,0,1.848,0.801,1.848,1.789c0.055,1.211-0.824,1.793-1.848,1.793
		c-1.098,0.168-1.848-0.801-1.848-1.793V82.129z"/>
	
		<linearGradient id="SVGID_13_" gradientUnits="userSpaceOnUse" x1="272.5986" y1="-296.1133" x2="278.4955" y2="-298.2596" gradientTransform="matrix(0.75 0 0 -0.75 -83.3914 -89.949)">
		<stop  offset="0" style="stop-color:#858D89"/>
		<stop  offset="0.11" style="stop-color:#B4BEBA"/>
		<stop  offset="0.39" style="stop-color:#DBDFDD"/>
		<stop  offset="0.55" style="stop-color:#B5BEBB"/>
		<stop  offset="0.77" style="stop-color:#8A928F"/>
	</linearGradient>
	<path fill="url(#SVGID_13_)" stroke="#2F575B" stroke-linejoin="bevel" stroke-miterlimit="10" d="M121.426,132.621
		c0-0.75,0.828-1.5,1.848-1.5c1.152,0,1.848,0.801,1.848,1.789c0.055,1.211-0.824,1.793-1.848,1.793
		c-1.098,0.168-1.848-0.801-1.848-1.793V132.621z"/>
	
		<linearGradient id="SVGID_14_" gradientUnits="userSpaceOnUse" x1="272.5986" y1="-296.1128" x2="278.496" y2="-298.2593" gradientTransform="matrix(0.75 0 0 -0.75 -135.8 -89.949)">
		<stop  offset="0" style="stop-color:#858D89"/>
		<stop  offset="0.11" style="stop-color:#B4BEBA"/>
		<stop  offset="0.39" style="stop-color:#DBDFDD"/>
		<stop  offset="0.55" style="stop-color:#B5BEBB"/>
		<stop  offset="0.77" style="stop-color:#8A928F"/>
	</linearGradient>
	<path fill="url(#SVGID_14_)" stroke="#2F575B" stroke-linejoin="bevel" stroke-miterlimit="10" d="M69.02,132.621
		c0-0.75,0.824-1.5,1.848-1.5c1.152,0,1.848,0.801,1.848,1.789c0.055,1.211-0.828,1.793-1.848,1.793
		c-1.098,0.168-1.848-0.801-1.848-1.793V132.621z"/>
</g>
</svg>
