<?xml version="1.0" encoding="utf-8"?>
<!-- Generator: Adobe Illustrator 16.0.0, SVG Export Plug-In . SVG Version: 6.00 Build 0)  -->
<!DOCTYPE svg PUBLIC "-//W3C//DTD SVG 1.1//EN" "http://www.w3.org/Graphics/SVG/1.1/DTD/svg11.dtd">
<svg preserveAspectRatio="none" version="1.1" id="图层_1" xmlns="http://www.w3.org/2000/svg" xmlns:xlink="http://www.w3.org/1999/xlink" x="0px" y="0px"
	 width="141.766px" height="128.992px" viewBox="-0.02 6.512 141.766 128.992" enable-background="new -0.02 6.512 141.766 128.992"
	 xml:space="preserve">
<g id="surface381">
	
		<linearGradient id="SVGID_1_" gradientUnits="userSpaceOnUse" x1="280.5889" y1="-294.7573" x2="280.5889" y2="-327.7573" gradientTransform="matrix(0.75 0 0 -0.75 -88.8523 -123.6697)">
		<stop  offset="0" style="stop-color:#9C8561"/>
		<stop  offset="0.15" style="stop-color:#D6BA90"/>
		<stop  offset="0.25" style="stop-color:#E8DAC8"/>
		<stop  offset="0.52" style="stop-color:#B89D74"/>
		<stop  offset="0.69" style="stop-color:#A48B66"/>
		<stop  offset="0.8" style="stop-color:#9B8360"/>
		<stop  offset="0.92" style="stop-color:#927C5A"/>
		<stop  offset="1" style="stop-color:#A88F69"/>
	</linearGradient>
	<path fill="url(#SVGID_1_)" d="M115.965,97.398h11.25v24.75h-11.25V97.398z"/>
	<path fill="#AB8853" d="M38.34,90.684h78v40.5h-78V90.684z"/>
	<path fill="#B89D74" d="M40.313,90.688h73.5v40.5h-73.5V90.688z"/>
	<path fill="#906E3E" d="M38.34,90.656h78v6.75h-78V90.656z"/>
	
		<linearGradient id="SVGID_2_" gradientUnits="userSpaceOnUse" x1="334.0928" y1="-294.7612" x2="334.0928" y2="-306.7612" gradientTransform="matrix(0.75 0 0 -0.75 -173.8313 -94.5671)">
		<stop  offset="0" style="stop-color:#9C8561"/>
		<stop  offset="0.15" style="stop-color:#D6BA90"/>
		<stop  offset="0.25" style="stop-color:#E8DAC8"/>
		<stop  offset="0.52" style="stop-color:#B89D74"/>
		<stop  offset="0.69" style="stop-color:#A48B66"/>
		<stop  offset="0.8" style="stop-color:#9B8360"/>
		<stop  offset="0.92" style="stop-color:#927C5A"/>
		<stop  offset="1" style="stop-color:#A88F69"/>
	</linearGradient>
	<path fill="url(#SVGID_2_)" d="M30.988,126.504h91.5v9h-91.5V126.504z"/>
	
		<linearGradient id="SVGID_3_" gradientUnits="userSpaceOnUse" x1="329.5889" y1="-294.7593" x2="329.5889" y2="-381.7593" gradientTransform="matrix(0.75 0 0 -0.75 -170.0906 -195.1248)">
		<stop  offset="0" style="stop-color:#9C8561"/>
		<stop  offset="0.15" style="stop-color:#D6BA90"/>
		<stop  offset="0.25" style="stop-color:#E8DAC8"/>
		<stop  offset="0.52" style="stop-color:#B89D74"/>
		<stop  offset="0.69" style="stop-color:#A48B66"/>
		<stop  offset="0.8" style="stop-color:#9B8360"/>
		<stop  offset="0.92" style="stop-color:#927C5A"/>
		<stop  offset="1" style="stop-color:#A88F69"/>
	</linearGradient>
	<path fill="url(#SVGID_3_)" d="M34.727,25.945h84.75v65.25h-84.75V25.945z"/>
	
		<linearGradient id="SVGID_4_" gradientUnits="userSpaceOnUse" x1="286.5928" y1="-294.7593" x2="286.5928" y2="-381.7593" gradientTransform="matrix(0.75 0 0 -0.75 -86.9841 -195.1248)">
		<stop  offset="0" style="stop-color:#9C8561"/>
		<stop  offset="0.15" style="stop-color:#D6BA90"/>
		<stop  offset="0.25" style="stop-color:#E8DAC8"/>
		<stop  offset="0.52" style="stop-color:#B89D74"/>
		<stop  offset="0.69" style="stop-color:#A48B66"/>
		<stop  offset="0.8" style="stop-color:#9B8360"/>
		<stop  offset="0.92" style="stop-color:#927C5A"/>
		<stop  offset="1" style="stop-color:#A88F69"/>
	</linearGradient>
	<path fill="url(#SVGID_4_)" d="M117.836,25.945h20.25v65.25h-20.25V25.945z"/>
	
		<linearGradient id="SVGID_5_" gradientUnits="userSpaceOnUse" x1="276.5898" y1="-294.7583" x2="276.5898" y2="-437.7583" gradientTransform="matrix(0.75 0 0 -0.75 -174.5486 -214.2175)">
		<stop  offset="0" style="stop-color:#88683B"/>
		<stop  offset="0.15" style="stop-color:#BE9868"/>
		<stop  offset="0.25" style="stop-color:#DCCBBB"/>
		<stop  offset="0.52" style="stop-color:#A27C47"/>
		<stop  offset="0.69" style="stop-color:#8F6D3E"/>
		<stop  offset="0.8" style="stop-color:#87673A"/>
		<stop  offset="0.92" style="stop-color:#7F6136"/>
		<stop  offset="1" style="stop-color:#937040"/>
	</linearGradient>
	<path fill="url(#SVGID_5_)" d="M31.77,6.852h1.5c1.5,0,2.117,0.387,2.117,0.859l0.133,105.641c0,0-0.965,0.508-1.992,0.508
		l-1.758,0.242c-0.75,0-1.5-0.629-1.5-1.102V7.602c0,0,0.832-0.75,1.863-0.75H31.77z"/>
	
		<linearGradient id="SVGID_6_" gradientUnits="userSpaceOnUse" x1="294.0898" y1="-294.7554" x2="294.0898" y2="-437.7554" gradientTransform="matrix(0.75 0 0 -0.75 -203.2317 -214.1765)">
		<stop  offset="0" style="stop-color:#9C8561"/>
		<stop  offset="0.15" style="stop-color:#D6BA90"/>
		<stop  offset="0.25" style="stop-color:#E8DAC8"/>
		<stop  offset="0.52" style="stop-color:#B89D74"/>
		<stop  offset="0.69" style="stop-color:#A48B66"/>
		<stop  offset="0.8" style="stop-color:#9B8360"/>
		<stop  offset="0.92" style="stop-color:#927C5A"/>
		<stop  offset="1" style="stop-color:#A88F69"/>
	</linearGradient>
	<path fill="url(#SVGID_6_)" d="M3.086,6.891h28.5c0.75,0,1.438,0.57,1.438,1.301l0.063,104.449c0,0.75-0.691,1.188-1.461,1.188
		l-28.539,0.313c-0.75,0-1.5-0.949-1.5-1.676V8.391c0-0.75,0.617-1.5,1.391-1.5H3.086z"/>
	
		<linearGradient id="SVGID_7_" gradientUnits="userSpaceOnUse" x1="291.7529" y1="-294.7603" x2="291.7529" y2="-297.7603" gradientTransform="matrix(0.75 0 0 -0.75 -204.8362 -214.5583)">
		<stop  offset="0" style="stop-color:#947D5C"/>
		<stop  offset="0.15" style="stop-color:#CCB18A"/>
		<stop  offset="0.25" style="stop-color:#E3D6C6"/>
		<stop  offset="0.52" style="stop-color:#AF946D"/>
		<stop  offset="0.69" style="stop-color:#9B8461"/>
		<stop  offset="0.8" style="stop-color:#927C5B"/>
		<stop  offset="0.92" style="stop-color:#8A7555"/>
		<stop  offset="1" style="stop-color:#9F8763"/>
	</linearGradient>
	<path fill="url(#SVGID_7_)" d="M0.73,6.512h26.25c0.75,0,0.996,0.305,0.996,0.684c-0.246,0.816-0.309,1.438-0.691,1.438L0.73,8.762
		c-0.75,0-0.75-0.438-0.75-0.816c0-1.434,0.309-1.434,0.688-1.434H0.73z"/>
	
		<linearGradient id="SVGID_8_" gradientUnits="userSpaceOnUse" x1="291.7529" y1="-294.7593" x2="291.7529" y2="-297.7593" gradientTransform="matrix(0.75 0 0 -0.75 -204.8362 -207.0193)">
		<stop  offset="0" style="stop-color:#947D5C"/>
		<stop  offset="0.15" style="stop-color:#CCB18A"/>
		<stop  offset="0.25" style="stop-color:#E3D6C6"/>
		<stop  offset="0.52" style="stop-color:#AF946D"/>
		<stop  offset="0.69" style="stop-color:#9B8461"/>
		<stop  offset="0.8" style="stop-color:#927C5B"/>
		<stop  offset="0.92" style="stop-color:#8A7555"/>
		<stop  offset="1" style="stop-color:#9F8763"/>
	</linearGradient>
	<path fill="url(#SVGID_8_)" d="M0.73,14.051h26.25c0.75,0,0.996,0.305,0.996,0.684c-0.246,0.816-0.309,1.438-0.691,1.438
		L0.73,16.301c-0.75,0-0.75-0.438-0.75-0.816c0-1.434,0.309-1.434,0.688-1.434H0.73z"/>
	
		<linearGradient id="SVGID_9_" gradientUnits="userSpaceOnUse" x1="291.7529" y1="-294.7593" x2="291.7529" y2="-297.7593" gradientTransform="matrix(0.75 0 0 -0.75 -204.8362 -199.4812)">
		<stop  offset="0" style="stop-color:#947D5C"/>
		<stop  offset="0.15" style="stop-color:#CCB18A"/>
		<stop  offset="0.25" style="stop-color:#E3D6C6"/>
		<stop  offset="0.52" style="stop-color:#AF946D"/>
		<stop  offset="0.69" style="stop-color:#9B8461"/>
		<stop  offset="0.8" style="stop-color:#927C5B"/>
		<stop  offset="0.92" style="stop-color:#8A7555"/>
		<stop  offset="1" style="stop-color:#9F8763"/>
	</linearGradient>
	<path fill="url(#SVGID_9_)" d="M0.73,21.586h26.25c0.75,0,0.996,0.305,0.996,0.688c-0.246,0.813-0.309,1.438-0.691,1.438
		L0.73,23.836c-0.75,0-0.75-0.434-0.75-0.816c0-1.434,0.309-1.434,0.688-1.434H0.73z"/>
	
		<linearGradient id="SVGID_10_" gradientUnits="userSpaceOnUse" x1="291.7529" y1="-294.7573" x2="291.7529" y2="-297.7573" gradientTransform="matrix(0.75 0 0 -0.75 -204.8362 -191.9431)">
		<stop  offset="0" style="stop-color:#947D5C"/>
		<stop  offset="0.15" style="stop-color:#CCB18A"/>
		<stop  offset="0.25" style="stop-color:#E3D6C6"/>
		<stop  offset="0.52" style="stop-color:#AF946D"/>
		<stop  offset="0.69" style="stop-color:#9B8461"/>
		<stop  offset="0.8" style="stop-color:#927C5B"/>
		<stop  offset="0.92" style="stop-color:#8A7555"/>
		<stop  offset="1" style="stop-color:#9F8763"/>
	</linearGradient>
	<path fill="url(#SVGID_10_)" d="M0.73,29.125h26.25c0.75,0,0.996,0.305,0.996,0.688c-0.246,0.813-0.309,1.438-0.691,1.438
		L0.73,31.375c-0.75,0-0.75-0.438-0.75-0.816c0-1.434,0.309-1.434,0.688-1.434H0.73z"/>
	
		<linearGradient id="SVGID_11_" gradientUnits="userSpaceOnUse" x1="291.7529" y1="-294.7583" x2="291.7529" y2="-297.7583" gradientTransform="matrix(0.75 0 0 -0.75 -204.8362 -184.405)">
		<stop  offset="0" style="stop-color:#947D5C"/>
		<stop  offset="0.15" style="stop-color:#CCB18A"/>
		<stop  offset="0.25" style="stop-color:#E3D6C6"/>
		<stop  offset="0.52" style="stop-color:#AF946D"/>
		<stop  offset="0.69" style="stop-color:#9B8461"/>
		<stop  offset="0.8" style="stop-color:#927C5B"/>
		<stop  offset="0.92" style="stop-color:#8A7555"/>
		<stop  offset="1" style="stop-color:#9F8763"/>
	</linearGradient>
	<path fill="url(#SVGID_11_)" d="M0.73,36.664h26.25c0.75,0,0.996,0.305,0.996,0.684c-0.246,0.816-0.309,1.441-0.691,1.441
		L0.73,38.914c-0.75,0-0.75-0.438-0.75-0.816c0-1.434,0.309-1.434,0.688-1.434H0.73z"/>
	
		<linearGradient id="SVGID_12_" gradientUnits="userSpaceOnUse" x1="291.7529" y1="-294.7612" x2="291.7529" y2="-297.7612" gradientTransform="matrix(0.75 0 0 -0.75 -204.8362 -169.3279)">
		<stop  offset="0" style="stop-color:#947D5C"/>
		<stop  offset="0.15" style="stop-color:#CCB18A"/>
		<stop  offset="0.25" style="stop-color:#E3D6C6"/>
		<stop  offset="0.52" style="stop-color:#AF946D"/>
		<stop  offset="0.69" style="stop-color:#9B8461"/>
		<stop  offset="0.8" style="stop-color:#927C5B"/>
		<stop  offset="0.92" style="stop-color:#8A7555"/>
		<stop  offset="1" style="stop-color:#9F8763"/>
	</linearGradient>
	<path fill="url(#SVGID_12_)" d="M0.73,51.742h26.25c0.75,0,0.996,0.305,0.996,0.684c-0.246,0.816-0.309,1.438-0.691,1.438
		L0.73,53.992c-0.75,0-0.75-0.438-0.75-0.816c0-1.434,0.309-1.434,0.688-1.434H0.73z"/>
	
		<linearGradient id="SVGID_13_" gradientUnits="userSpaceOnUse" x1="291.7529" y1="-294.7593" x2="291.7529" y2="-297.7593" gradientTransform="matrix(0.75 0 0 -0.75 -204.8362 -176.8669)">
		<stop  offset="0" style="stop-color:#947D5C"/>
		<stop  offset="0.15" style="stop-color:#CCB18A"/>
		<stop  offset="0.25" style="stop-color:#E3D6C6"/>
		<stop  offset="0.52" style="stop-color:#AF946D"/>
		<stop  offset="0.69" style="stop-color:#9B8461"/>
		<stop  offset="0.8" style="stop-color:#927C5B"/>
		<stop  offset="0.92" style="stop-color:#8A7555"/>
		<stop  offset="1" style="stop-color:#9F8763"/>
	</linearGradient>
	<path fill="url(#SVGID_13_)" d="M0.73,44.203h26.25c0.75,0,0.996,0.305,0.996,0.684c-0.246,0.816-0.309,1.438-0.691,1.438
		L0.73,46.453c-0.75,0-0.75-0.438-0.75-0.816c0-1.434,0.309-1.434,0.688-1.434H0.73z"/>
	
		<linearGradient id="SVGID_14_" gradientUnits="userSpaceOnUse" x1="291.7529" y1="-294.7603" x2="291.7529" y2="-297.7603" gradientTransform="matrix(0.75 0 0 -0.75 -204.8362 -161.7888)">
		<stop  offset="0" style="stop-color:#947D5C"/>
		<stop  offset="0.15" style="stop-color:#CCB18A"/>
		<stop  offset="0.25" style="stop-color:#E3D6C6"/>
		<stop  offset="0.52" style="stop-color:#AF946D"/>
		<stop  offset="0.69" style="stop-color:#9B8461"/>
		<stop  offset="0.8" style="stop-color:#927C5B"/>
		<stop  offset="0.92" style="stop-color:#8A7555"/>
		<stop  offset="1" style="stop-color:#9F8763"/>
	</linearGradient>
	<path fill="url(#SVGID_14_)" d="M0.73,59.281h26.25c0.75,0,0.996,0.305,0.996,0.684c-0.246,0.816-0.309,1.438-0.691,1.438
		L0.73,61.531c-0.75,0-0.75-0.438-0.75-0.816c0-1.434,0.309-1.434,0.688-1.434H0.73z"/>
	
		<linearGradient id="SVGID_15_" gradientUnits="userSpaceOnUse" x1="291.7529" y1="-294.7593" x2="291.7529" y2="-297.7593" gradientTransform="matrix(0.75 0 0 -0.75 -204.8362 -146.7136)">
		<stop  offset="0" style="stop-color:#947D5C"/>
		<stop  offset="0.15" style="stop-color:#CCB18A"/>
		<stop  offset="0.25" style="stop-color:#E3D6C6"/>
		<stop  offset="0.52" style="stop-color:#AF946D"/>
		<stop  offset="0.69" style="stop-color:#9B8461"/>
		<stop  offset="0.8" style="stop-color:#927C5B"/>
		<stop  offset="0.92" style="stop-color:#8A7555"/>
		<stop  offset="1" style="stop-color:#9F8763"/>
	</linearGradient>
	<path fill="url(#SVGID_15_)" d="M0.73,74.355h26.25c0.75,0,0.996,0.305,0.996,0.684c-0.246,0.816-0.309,1.441-0.691,1.441
		L0.73,76.605c-0.75,0-0.75-0.438-0.75-0.816c0-1.434,0.309-1.434,0.688-1.434H0.73z"/>
	
		<linearGradient id="SVGID_16_" gradientUnits="userSpaceOnUse" x1="291.7529" y1="-294.7612" x2="291.7529" y2="-297.7612" gradientTransform="matrix(0.75 0 0 -0.75 -204.8362 -139.1755)">
		<stop  offset="0" style="stop-color:#947D5C"/>
		<stop  offset="0.15" style="stop-color:#CCB18A"/>
		<stop  offset="0.25" style="stop-color:#E3D6C6"/>
		<stop  offset="0.52" style="stop-color:#AF946D"/>
		<stop  offset="0.69" style="stop-color:#9B8461"/>
		<stop  offset="0.8" style="stop-color:#927C5B"/>
		<stop  offset="0.92" style="stop-color:#8A7555"/>
		<stop  offset="1" style="stop-color:#9F8763"/>
	</linearGradient>
	<path fill="url(#SVGID_16_)" d="M0.73,81.895h26.25c0.75,0,0.996,0.305,0.996,0.684c-0.246,0.816-0.309,1.438-0.691,1.438
		L0.73,84.145c-0.75,0-0.75-0.438-0.75-0.816c0-1.434,0.309-1.434,0.688-1.434H0.73z"/>
	
		<linearGradient id="SVGID_17_" gradientUnits="userSpaceOnUse" x1="291.7529" y1="-294.7583" x2="291.7529" y2="-297.7583" gradientTransform="matrix(0.75 0 0 -0.75 -204.8362 -124.0994)">
		<stop  offset="0" style="stop-color:#947D5C"/>
		<stop  offset="0.15" style="stop-color:#CCB18A"/>
		<stop  offset="0.25" style="stop-color:#E3D6C6"/>
		<stop  offset="0.52" style="stop-color:#AF946D"/>
		<stop  offset="0.69" style="stop-color:#9B8461"/>
		<stop  offset="0.8" style="stop-color:#927C5B"/>
		<stop  offset="0.92" style="stop-color:#8A7555"/>
		<stop  offset="1" style="stop-color:#9F8763"/>
	</linearGradient>
	<path fill="url(#SVGID_17_)" d="M0.73,96.969h26.25c0.75,0,0.996,0.305,0.996,0.688c-0.246,0.813-0.309,1.438-0.691,1.438
		L0.73,99.219c-0.75,0-0.75-0.434-0.75-0.816c0-1.434,0.309-1.434,0.688-1.434H0.73z"/>
	
		<linearGradient id="SVGID_18_" gradientUnits="userSpaceOnUse" x1="291.7529" y1="-294.7612" x2="291.7529" y2="-297.7612" gradientTransform="matrix(0.75 0 0 -0.75 -204.8362 -109.0232)">
		<stop  offset="0" style="stop-color:#947D5C"/>
		<stop  offset="0.15" style="stop-color:#CCB18A"/>
		<stop  offset="0.25" style="stop-color:#E3D6C6"/>
		<stop  offset="0.52" style="stop-color:#AF946D"/>
		<stop  offset="0.69" style="stop-color:#9B8461"/>
		<stop  offset="0.8" style="stop-color:#927C5B"/>
		<stop  offset="0.92" style="stop-color:#8A7555"/>
		<stop  offset="1" style="stop-color:#9F8763"/>
	</linearGradient>
	<path fill="url(#SVGID_18_)" d="M0.73,112.047h26.25c0.75,0,0.996,0.305,0.996,0.684c-0.246,0.816-0.309,1.441-0.691,1.441
		L0.73,114.297c-0.75,0-0.75-0.438-0.75-0.816c0-1.434,0.309-1.434,0.688-1.434H0.73z"/>
	
		<linearGradient id="SVGID_19_" gradientUnits="userSpaceOnUse" x1="291.7529" y1="-294.7573" x2="291.7529" y2="-297.7573" gradientTransform="matrix(0.75 0 0 -0.75 -204.8362 -116.5603)">
		<stop  offset="0" style="stop-color:#947D5C"/>
		<stop  offset="0.15" style="stop-color:#CCB18A"/>
		<stop  offset="0.25" style="stop-color:#E3D6C6"/>
		<stop  offset="0.52" style="stop-color:#AF946D"/>
		<stop  offset="0.69" style="stop-color:#9B8461"/>
		<stop  offset="0.8" style="stop-color:#927C5B"/>
		<stop  offset="0.92" style="stop-color:#8A7555"/>
		<stop  offset="1" style="stop-color:#9F8763"/>
	</linearGradient>
	<path fill="url(#SVGID_19_)" d="M0.73,104.508h26.25c0.75,0,0.996,0.305,0.996,0.684c-0.246,0.816-0.309,1.441-0.691,1.441
		L0.73,106.758c-0.75,0-0.75-0.438-0.75-0.816c0-1.434,0.309-1.434,0.688-1.434H0.73z"/>
	
		<linearGradient id="SVGID_20_" gradientUnits="userSpaceOnUse" x1="291.7529" y1="-294.7603" x2="291.7529" y2="-297.7603" gradientTransform="matrix(0.75 0 0 -0.75 -204.8362 -131.6365)">
		<stop  offset="0" style="stop-color:#947D5C"/>
		<stop  offset="0.15" style="stop-color:#CCB18A"/>
		<stop  offset="0.25" style="stop-color:#E3D6C6"/>
		<stop  offset="0.52" style="stop-color:#AF946D"/>
		<stop  offset="0.69" style="stop-color:#9B8461"/>
		<stop  offset="0.8" style="stop-color:#927C5B"/>
		<stop  offset="0.92" style="stop-color:#8A7555"/>
		<stop  offset="1" style="stop-color:#9F8763"/>
	</linearGradient>
	<path fill="url(#SVGID_20_)" d="M0.73,89.434h26.25c0.75,0,0.996,0.305,0.996,0.684c-0.246,0.816-0.309,1.438-0.691,1.438
		L0.73,91.684c-0.75,0-0.75-0.438-0.75-0.816c0-1.434,0.309-1.434,0.688-1.434H0.73z"/>
	
		<linearGradient id="SVGID_21_" gradientUnits="userSpaceOnUse" x1="291.7529" y1="-294.7583" x2="291.7529" y2="-297.7583" gradientTransform="matrix(0.75 0 0 -0.75 -204.8362 -154.2517)">
		<stop  offset="0" style="stop-color:#947D5C"/>
		<stop  offset="0.15" style="stop-color:#CCB18A"/>
		<stop  offset="0.25" style="stop-color:#E3D6C6"/>
		<stop  offset="0.52" style="stop-color:#AF946D"/>
		<stop  offset="0.69" style="stop-color:#9B8461"/>
		<stop  offset="0.8" style="stop-color:#927C5B"/>
		<stop  offset="0.92" style="stop-color:#8A7555"/>
		<stop  offset="1" style="stop-color:#9F8763"/>
	</linearGradient>
	<path fill="url(#SVGID_21_)" d="M0.73,66.816h26.25c0.75,0,0.996,0.305,0.996,0.684c-0.246,0.816-0.309,1.441-0.691,1.441
		L0.73,69.066c-0.75,0-0.75-0.438-0.75-0.816c0-1.434,0.309-1.434,0.688-1.434H0.73z"/>
	
		<linearGradient id="SVGID_22_" gradientUnits="userSpaceOnUse" x1="321.1885" y1="-294.73" x2="321.1885" y2="-297.7612" gradientTransform="matrix(0.75 0 0 -0.75 -164.6887 -189.0203)">
		<stop  offset="0" style="stop-color:#947D5C"/>
		<stop  offset="0.15" style="stop-color:#CCB18A"/>
		<stop  offset="0.25" style="stop-color:#E3D6C6"/>
		<stop  offset="0.52" style="stop-color:#AF946D"/>
		<stop  offset="0.69" style="stop-color:#9B8461"/>
		<stop  offset="0.8" style="stop-color:#927C5B"/>
		<stop  offset="0.92" style="stop-color:#8A7555"/>
		<stop  offset="1" style="stop-color:#9F8763"/>
	</linearGradient>
	<path fill="url(#SVGID_22_)" d="M40.879,32.051h70.5c0.75,0,0.898,0.285,0.898,0.664l-0.148,0.836c0,0.75-0.16,0.688-0.543,0.688
		l-70.707,0.063c-0.75,0-0.75-0.371-0.75-0.75v-0.75c0-0.75,0.289-0.773,0.668-0.773L40.879,32.051z"/>
	
		<linearGradient id="SVGID_23_" gradientUnits="userSpaceOnUse" x1="321.1885" y1="-294.73" x2="321.1885" y2="-297.7587" gradientTransform="matrix(0.75 0 0 -0.75 -164.6887 -180.4265)">
		<stop  offset="0" style="stop-color:#947D5C"/>
		<stop  offset="0.15" style="stop-color:#CCB18A"/>
		<stop  offset="0.25" style="stop-color:#E3D6C6"/>
		<stop  offset="0.52" style="stop-color:#AF946D"/>
		<stop  offset="0.69" style="stop-color:#9B8461"/>
		<stop  offset="0.8" style="stop-color:#927C5B"/>
		<stop  offset="0.92" style="stop-color:#8A7555"/>
		<stop  offset="1" style="stop-color:#9F8763"/>
	</linearGradient>
	<path fill="url(#SVGID_23_)" d="M40.879,40.641h70.5c0.75,0,0.898,0.289,0.898,0.668l-0.148,0.832c0,0.75-0.16,0.691-0.543,0.691
		l-70.707,0.059c-0.75,0-0.75-0.367-0.75-0.746v-0.754c0-0.75,0.289-0.77,0.668-0.77L40.879,40.641z"/>
	
		<linearGradient id="SVGID_24_" gradientUnits="userSpaceOnUse" x1="321.1885" y1="-294.731" x2="321.1885" y2="-297.7573" gradientTransform="matrix(0.75 0 0 -0.75 -164.6887 -171.8337)">
		<stop  offset="0" style="stop-color:#947D5C"/>
		<stop  offset="0.15" style="stop-color:#CCB18A"/>
		<stop  offset="0.25" style="stop-color:#E3D6C6"/>
		<stop  offset="0.52" style="stop-color:#AF946D"/>
		<stop  offset="0.69" style="stop-color:#9B8461"/>
		<stop  offset="0.8" style="stop-color:#927C5B"/>
		<stop  offset="0.92" style="stop-color:#8A7555"/>
		<stop  offset="1" style="stop-color:#9F8763"/>
	</linearGradient>
	<path fill="url(#SVGID_24_)" d="M40.879,49.234h70.5c0.75,0,0.898,0.289,0.898,0.668l-0.148,0.832c0,0.75-0.16,0.691-0.543,0.691
		l-70.707,0.059c-0.75,0-0.75-0.367-0.75-0.746v-0.754c0-0.75,0.289-0.77,0.668-0.77L40.879,49.234z"/>
	
		<linearGradient id="SVGID_25_" gradientUnits="userSpaceOnUse" x1="321.1885" y1="-294.7319" x2="321.1885" y2="-297.7583" gradientTransform="matrix(0.75 0 0 -0.75 -164.6887 -163.24)">
		<stop  offset="0" style="stop-color:#947D5C"/>
		<stop  offset="0.15" style="stop-color:#CCB18A"/>
		<stop  offset="0.25" style="stop-color:#E3D6C6"/>
		<stop  offset="0.52" style="stop-color:#AF946D"/>
		<stop  offset="0.69" style="stop-color:#9B8461"/>
		<stop  offset="0.8" style="stop-color:#927C5B"/>
		<stop  offset="0.92" style="stop-color:#8A7555"/>
		<stop  offset="1" style="stop-color:#9F8763"/>
	</linearGradient>
	<path fill="url(#SVGID_25_)" d="M40.879,57.828h70.5c0.75,0,0.898,0.285,0.898,0.668l-0.148,0.832c0,0.75-0.16,0.691-0.543,0.691
		l-70.707,0.059c-0.75,0-0.75-0.367-0.75-0.746v-0.754c0-0.75,0.289-0.77,0.668-0.77L40.879,57.828z"/>
	
		<linearGradient id="SVGID_26_" gradientUnits="userSpaceOnUse" x1="321.1885" y1="-294.7319" x2="321.1885" y2="-297.7607" gradientTransform="matrix(0.75 0 0 -0.75 -164.6887 -154.6462)">
		<stop  offset="0" style="stop-color:#947D5C"/>
		<stop  offset="0.15" style="stop-color:#CCB18A"/>
		<stop  offset="0.25" style="stop-color:#E3D6C6"/>
		<stop  offset="0.52" style="stop-color:#AF946D"/>
		<stop  offset="0.69" style="stop-color:#9B8461"/>
		<stop  offset="0.8" style="stop-color:#927C5B"/>
		<stop  offset="0.92" style="stop-color:#8A7555"/>
		<stop  offset="1" style="stop-color:#9F8763"/>
	</linearGradient>
	<path fill="url(#SVGID_26_)" d="M40.879,66.422h70.5c0.75,0,0.898,0.289,0.898,0.668l-0.148,0.832c0,0.75-0.16,0.691-0.543,0.691
		l-70.707,0.059c-0.75,0-0.75-0.367-0.75-0.746v-0.754c0-0.75,0.289-0.77,0.668-0.77L40.879,66.422z"/>
	
		<linearGradient id="SVGID_27_" gradientUnits="userSpaceOnUse" x1="321.1885" y1="-294.731" x2="321.1885" y2="-297.7573" gradientTransform="matrix(0.75 0 0 -0.75 -164.6887 -146.0525)">
		<stop  offset="0" style="stop-color:#947D5C"/>
		<stop  offset="0.15" style="stop-color:#CCB18A"/>
		<stop  offset="0.25" style="stop-color:#E3D6C6"/>
		<stop  offset="0.52" style="stop-color:#AF946D"/>
		<stop  offset="0.69" style="stop-color:#9B8461"/>
		<stop  offset="0.8" style="stop-color:#927C5B"/>
		<stop  offset="0.92" style="stop-color:#8A7555"/>
		<stop  offset="1" style="stop-color:#9F8763"/>
	</linearGradient>
	<path fill="url(#SVGID_27_)" d="M40.879,75.016h70.5c0.75,0,0.898,0.289,0.898,0.668l-0.148,0.832c0,0.75-0.16,0.691-0.543,0.691
		l-70.707,0.059c-0.75,0-0.75-0.367-0.75-0.746v-0.754c0-0.75,0.289-0.77,0.668-0.77L40.879,75.016z"/>
	
		<linearGradient id="SVGID_28_" gradientUnits="userSpaceOnUse" x1="321.1885" y1="-294.7319" x2="321.1885" y2="-297.7583" gradientTransform="matrix(0.75 0 0 -0.75 -164.6887 -137.4587)">
		<stop  offset="0" style="stop-color:#947D5C"/>
		<stop  offset="0.15" style="stop-color:#CCB18A"/>
		<stop  offset="0.25" style="stop-color:#E3D6C6"/>
		<stop  offset="0.52" style="stop-color:#AF946D"/>
		<stop  offset="0.69" style="stop-color:#9B8461"/>
		<stop  offset="0.8" style="stop-color:#927C5B"/>
		<stop  offset="0.92" style="stop-color:#8A7555"/>
		<stop  offset="1" style="stop-color:#9F8763"/>
	</linearGradient>
	<path fill="url(#SVGID_28_)" d="M40.879,83.609h70.5c0.75,0,0.898,0.289,0.898,0.668l-0.148,0.832c0,0.75-0.16,0.691-0.543,0.691
		l-70.707,0.059c-0.75,0-0.75-0.367-0.75-0.746v-0.754c0-0.75,0.289-0.77,0.668-0.77L40.879,83.609z"/>
	
		<linearGradient id="SVGID_29_" gradientUnits="userSpaceOnUse" x1="274.0918" y1="-294.7593" x2="274.0918" y2="-381.7593" gradientTransform="matrix(0.75 0 0 -0.75 -87.2761 -195.1248)">
		<stop  offset="0" style="stop-color:#88683B"/>
		<stop  offset="0.15" style="stop-color:#BE9868"/>
		<stop  offset="0.25" style="stop-color:#DCCBBB"/>
		<stop  offset="0.52" style="stop-color:#A27C47"/>
		<stop  offset="0.69" style="stop-color:#8F6D3E"/>
		<stop  offset="0.8" style="stop-color:#87673A"/>
		<stop  offset="0.92" style="stop-color:#7F6136"/>
		<stop  offset="1" style="stop-color:#937040"/>
	</linearGradient>
	<path fill="url(#SVGID_29_)" d="M117.543,25.945h1.5v65.25h-1.5V25.945z"/>
	
		<linearGradient id="SVGID_30_" gradientUnits="userSpaceOnUse" x1="275.7432" y1="-294.7573" x2="275.7432" y2="-386.9087" gradientTransform="matrix(0.75 0 0 -0.75 -67.0754 -196.9509)">
		<stop  offset="0" style="stop-color:#88683B"/>
		<stop  offset="0.15" style="stop-color:#BE9868"/>
		<stop  offset="0.25" style="stop-color:#DCCBBB"/>
		<stop  offset="0.52" style="stop-color:#A27C47"/>
		<stop  offset="0.69" style="stop-color:#8F6D3E"/>
		<stop  offset="0.8" style="stop-color:#87673A"/>
		<stop  offset="0.92" style="stop-color:#7F6136"/>
		<stop  offset="1" style="stop-color:#937040"/>
	</linearGradient>
	<path fill="url(#SVGID_30_)" d="M138.492,24.117h2.25c0.75,0,1.004,0.305,1.004,0.684l-0.254,67.566
		c0,0.75-0.055,0.863-0.434,0.863l-2.566-0.113c-0.75,0-0.773-0.215-0.773-0.598l0.023-67.652c0-0.75,0.285-0.75,0.664-0.75H138.492
		z"/>
	
		<linearGradient id="SVGID_31_" gradientUnits="userSpaceOnUse" x1="274.6826" y1="-294.7593" x2="274.6826" y2="-386.6982" gradientTransform="matrix(0.75 0 0 -0.75 -65.4944 -196.8123)">
		<stop  offset="0" style="stop-color:#9C8561"/>
		<stop  offset="0.15" style="stop-color:#D6BA90"/>
		<stop  offset="0.25" style="stop-color:#E8DAC8"/>
		<stop  offset="0.52" style="stop-color:#B89D74"/>
		<stop  offset="0.69" style="stop-color:#A48B66"/>
		<stop  offset="0.8" style="stop-color:#9B8360"/>
		<stop  offset="0.92" style="stop-color:#927C5A"/>
		<stop  offset="1" style="stop-color:#A88F69"/>
	</linearGradient>
	<path fill="url(#SVGID_31_)" d="M140.074,24.258c1.5,0,1.668,0.305,1.668,0.684l-0.168,67.566c0,0.75-0.23,0.699-0.719,0.699
		c-1.531,0.051-1.563-0.324-1.563-0.703l0.031-67.496c0-0.75,0.363-0.75,0.855-0.75H140.074z"/>
</g>
</svg>
