<?xml version="1.0" encoding="utf-8"?>
<!-- Generator: Adobe Illustrator 16.0.0, SVG Export Plug-In . SVG Version: 6.00 Build 0)  -->
<!DOCTYPE svg PUBLIC "-//W3C//DTD SVG 1.1//EN" "http://www.w3.org/Graphics/SVG/1.1/DTD/svg11.dtd">
<svg preserveAspectRatio="none" version="1.1" id="图层_1" xmlns="http://www.w3.org/2000/svg" xmlns:xlink="http://www.w3.org/1999/xlink" x="0px" y="0px"
	 width="110.258px" height="138.77px" viewBox="15.73 1.473 110.258 138.77" enable-background="new 15.73 1.473 110.258 138.77"
	 xml:space="preserve">
<g id="surface356">
	
		<linearGradient id="SVGID_1_" gradientUnits="userSpaceOnUse" x1="273.0928" y1="-307.3086" x2="289.0928" y2="-307.3086" gradientTransform="matrix(0.75 0 0 -0.75 -114.7527 -102.1658)">
		<stop  offset="0" style="stop-color:#5D5D5D"/>
		<stop  offset="0.12" style="stop-color:#0A0A0A"/>
		<stop  offset="0.23" style="stop-color:#252525"/>
		<stop  offset="0.38" style="stop-color:#272727"/>
		<stop  offset="0.6" style="stop-color:#3B3B3B"/>
		<stop  offset="0.79" style="stop-color:#5A5A5A"/>
		<stop  offset="0.89" style="stop-color:#343434"/>
		<stop  offset="1" style="stop-color:#151515"/>
	</linearGradient>
	<path fill="url(#SVGID_1_)" d="M90.816,118.902h9.75c0.75,0,1.152,0.492,1.152,1.098l0.348,16.902c0,0-0.836,0.828-1.438,0.828
		l-9.813-0.078c0,0-0.75-0.414-0.75-1.02v-16.98c0,0,0.488-0.75,1.094-0.75H90.816z"/>
	
		<linearGradient id="SVGID_2_" gradientUnits="userSpaceOnUse" x1="273.0928" y1="-307.3086" x2="289.0928" y2="-307.3086" gradientTransform="matrix(0.75 0 0 -0.75 -173.2571 -102.1658)">
		<stop  offset="0" style="stop-color:#5D5D5D"/>
		<stop  offset="0.12" style="stop-color:#0A0A0A"/>
		<stop  offset="0.23" style="stop-color:#252525"/>
		<stop  offset="0.38" style="stop-color:#272727"/>
		<stop  offset="0.6" style="stop-color:#3B3B3B"/>
		<stop  offset="0.79" style="stop-color:#5A5A5A"/>
		<stop  offset="0.89" style="stop-color:#343434"/>
		<stop  offset="1" style="stop-color:#151515"/>
	</linearGradient>
	<path fill="url(#SVGID_2_)" d="M32.313,118.902h9.75c0.75,0,1.152,0.492,1.152,1.098l0.348,16.902c0,0-0.836,0.828-1.438,0.828
		l-9.813-0.078c0,0-0.75-0.414-0.75-1.02v-16.98c0,0,0.488-0.75,1.094-0.75H32.313z"/>
	
		<linearGradient id="SVGID_3_" gradientUnits="userSpaceOnUse" x1="273.0889" y1="-297.4136" x2="293.2607" y2="-297.4136" gradientTransform="matrix(0.75 0 0 -0.75 -174.9812 -84.8083)">
		<stop  offset="0" style="stop-color:#6F6F6F"/>
		<stop  offset="0.12" style="stop-color:#323232"/>
		<stop  offset="0.23" style="stop-color:#494949"/>
		<stop  offset="0.38" style="stop-color:#4C4C4C"/>
		<stop  offset="0.6" style="stop-color:#5B5B5B"/>
		<stop  offset="0.79" style="stop-color:#A8A8A8"/>
		<stop  offset="0.89" style="stop-color:#575757"/>
		<stop  offset="1" style="stop-color:#2E2E2E"/>
	</linearGradient>
	<path fill="url(#SVGID_3_)" d="M30.586,136.262c0,0,4.09,0.688,7.059,0.688c2.691,0.063,6.215-0.688,6.215-0.688
		c0.227,0,1.105,0.492,1.105,1.098l-0.129,1.152c0,0.75-0.375,1.039-0.977,1.039c0.227-0.289-2.852,0.691-6.414,0.691
		c-3.859-0.23-6.516-0.691-6.516-0.691c-0.344-0.289-1.094-0.488-1.094-1.094v-1.445c0,0,0.492-0.75,1.094-0.75H30.586z"/>
	
		<linearGradient id="SVGID_4_" gradientUnits="userSpaceOnUse" x1="273.0938" y1="-378.4395" x2="389.3486" y2="-378.4395" gradientTransform="matrix(0.75 0 0 -0.75 -182.5818 -219.5974)">
		<stop  offset="0" style="stop-color:#5D5D5D"/>
		<stop  offset="0.12" style="stop-color:#0A0A0A"/>
		<stop  offset="0.23" style="stop-color:#252525"/>
		<stop  offset="0.38" style="stop-color:#272727"/>
		<stop  offset="0.6" style="stop-color:#3B3B3B"/>
		<stop  offset="0.79" style="stop-color:#5A5A5A"/>
		<stop  offset="0.89" style="stop-color:#343434"/>
		<stop  offset="1" style="stop-color:#151515"/>
	</linearGradient>
	<path fill="url(#SVGID_4_)" d="M22.238,17.973c0,0,5.379-16.5,43.594-16.5c38.156,0,43.598,16.387,43.598,16.387l-0.191,97.613
		c0,0,0.563,11.52-43.219,11.52c-43.781-0.27-43.781-11.73-43.781-11.73V17.973z"/>
	
		<linearGradient id="SVGID_5_" gradientUnits="userSpaceOnUse" x1="272.9629" y1="-303.4375" x2="392.4375" y2="-303.4375" gradientTransform="matrix(0.75 0 0 -0.75 -183.6726 -166.2888)">
		<stop  offset="0" style="stop-color:#818181"/>
		<stop  offset="0.12" style="stop-color:#2B2B2B"/>
		<stop  offset="0.23" style="stop-color:#2E2E2E"/>
		<stop  offset="0.38" style="stop-color:#3B3B3B"/>
		<stop  offset="0.6" style="stop-color:#4B4B4B"/>
		<stop  offset="0.79" style="stop-color:#A0A0A0"/>
		<stop  offset="0.89" style="stop-color:#464646"/>
		<stop  offset="1" style="stop-color:#161616"/>
	</linearGradient>
	<path fill="url(#SVGID_5_)" d="M22.645,57.781c0,0,40.031,10.371,86.832-0.129l0.168-2.871c0,0,2.383,4.359-0.168,8.434
		c0.168-0.184-39.75,10.402-87.289,0c-0.293-0.184-2.477-2.883,0.117-8.434L22.645,57.781z"/>
	
		<linearGradient id="SVGID_6_" gradientUnits="userSpaceOnUse" x1="275.0898" y1="-307.7603" x2="275.0898" y2="-294.7603" gradientTransform="matrix(0.75 0 0 -0.75 -185.0315 -153.6833)">
		<stop  offset="0" style="stop-color:#5D5D5D"/>
		<stop  offset="0.12" style="stop-color:#0A0A0A"/>
		<stop  offset="0.23" style="stop-color:#252525"/>
		<stop  offset="0.38" style="stop-color:#272727"/>
		<stop  offset="0.6" style="stop-color:#3B3B3B"/>
		<stop  offset="0.79" style="stop-color:#5A5A5A"/>
		<stop  offset="0.89" style="stop-color:#343434"/>
		<stop  offset="1" style="stop-color:#151515"/>
	</linearGradient>
	<path fill="url(#SVGID_6_)" d="M19.785,67.387h3v9.75h-3V67.387z"/>
	
		<linearGradient id="SVGID_7_" gradientUnits="userSpaceOnUse" x1="276.084" y1="-313.9722" x2="276.084" y2="-294.7583" gradientTransform="matrix(0.75 0 0 -0.75 -189.0759 -155.8318)">
		<stop  offset="0" style="stop-color:#6F6F6F"/>
		<stop  offset="0.12" style="stop-color:#323232"/>
		<stop  offset="0.23" style="stop-color:#494949"/>
		<stop  offset="0.38" style="stop-color:#4C4C4C"/>
		<stop  offset="0.6" style="stop-color:#5B5B5B"/>
		<stop  offset="0.79" style="stop-color:#A8A8A8"/>
		<stop  offset="0.89" style="stop-color:#575757"/>
		<stop  offset="1" style="stop-color:#2E2E2E"/>
	</linearGradient>
	<path fill="url(#SVGID_7_)" d="M16.492,65.238h2.25c0.75,0,1.145,0.441,1.145,0.988l0.355,12.512c0,0.75-0.801,0.91-1.348,0.91
		l-2.402-0.16c0,0-0.762-0.297-0.762-0.844l0.012-12.656c0,0,0.43-0.75,0.977-0.75H16.492z"/>
	<path fill="#FFFFFF" fill-opacity="0.1843" d="M56.324,70.82h18.75c2.25,0,3.27,1.328,3.27,2.973l-0.27,25.527
		c0,1.5-1.063,2.996-2.699,2.996l-19.051,0.004c-1.5,0-3-1.352-3-3v-25.5c0-1.5,1.313-3,2.953-3H56.324z"/>
	
		<linearGradient id="SVGID_8_" gradientUnits="userSpaceOnUse" x1="275.0928" y1="-304.7573" x2="275.0928" y2="-294.7573" gradientTransform="matrix(0.75 0 0 -0.75 -185.03 -125.1775)">
		<stop  offset="0" style="stop-color:#5D5D5D"/>
		<stop  offset="0.12" style="stop-color:#0A0A0A"/>
		<stop  offset="0.23" style="stop-color:#252525"/>
		<stop  offset="0.38" style="stop-color:#272727"/>
		<stop  offset="0.6" style="stop-color:#3B3B3B"/>
		<stop  offset="0.79" style="stop-color:#5A5A5A"/>
		<stop  offset="0.89" style="stop-color:#343434"/>
		<stop  offset="1" style="stop-color:#151515"/>
	</linearGradient>
	<path fill="url(#SVGID_8_)" d="M19.789,95.891h3v7.5h-3V95.891z"/>
	
		<linearGradient id="SVGID_9_" gradientUnits="userSpaceOnUse" x1="275.7236" y1="-309.0669" x2="275.7236" y2="-294.7593" gradientTransform="matrix(0.75 0 0 -0.75 -188.9812 -126.6208)">
		<stop  offset="0" style="stop-color:#6F6F6F"/>
		<stop  offset="0.12" style="stop-color:#323232"/>
		<stop  offset="0.23" style="stop-color:#494949"/>
		<stop  offset="0.38" style="stop-color:#4C4C4C"/>
		<stop  offset="0.6" style="stop-color:#5B5B5B"/>
		<stop  offset="0.79" style="stop-color:#A8A8A8"/>
		<stop  offset="0.89" style="stop-color:#575757"/>
		<stop  offset="1" style="stop-color:#2E2E2E"/>
	</linearGradient>
	<path fill="url(#SVGID_9_)" d="M16.586,94.449h2.25c0.75,0,0.953,0.445,0.953,0.992l-0.203,8.758c0,0.75-0.238,0.98-0.785,0.98
		l-2.215-0.23c0,0-0.754-0.219-0.754-0.766l0.004-8.984c0,0,0.438-0.75,0.984-0.75H16.586z"/>
	
		<linearGradient id="SVGID_10_" gradientUnits="userSpaceOnUse" x1="-328.3599" y1="-304.7563" x2="-328.3599" y2="-294.7563" gradientTransform="matrix(-0.75 0 0 -0.75 -135.5193 -116.1384)">
		<stop  offset="0" style="stop-color:#5D5D5D"/>
		<stop  offset="0.12" style="stop-color:#0A0A0A"/>
		<stop  offset="0.23" style="stop-color:#252525"/>
		<stop  offset="0.38" style="stop-color:#272727"/>
		<stop  offset="0.6" style="stop-color:#3B3B3B"/>
		<stop  offset="0.79" style="stop-color:#5A5A5A"/>
		<stop  offset="0.89" style="stop-color:#343434"/>
		<stop  offset="1" style="stop-color:#151515"/>
	</linearGradient>
	<path fill="url(#SVGID_10_)" d="M112.25,104.93h-3v7.5h3V104.93z"/>
	
		<linearGradient id="SVGID_11_" gradientUnits="userSpaceOnUse" x1="-327.7285" y1="-309.0659" x2="-327.7285" y2="-294.7583" gradientTransform="matrix(-0.75 0 0 -0.75 -131.5681 -117.5808)">
		<stop  offset="0" style="stop-color:#6F6F6F"/>
		<stop  offset="0.12" style="stop-color:#323232"/>
		<stop  offset="0.23" style="stop-color:#494949"/>
		<stop  offset="0.38" style="stop-color:#4C4C4C"/>
		<stop  offset="0.6" style="stop-color:#5B5B5B"/>
		<stop  offset="0.79" style="stop-color:#A8A8A8"/>
		<stop  offset="0.89" style="stop-color:#575757"/>
		<stop  offset="1" style="stop-color:#2E2E2E"/>
	</linearGradient>
	<path fill="url(#SVGID_11_)" d="M115.453,103.488h-2.25c-0.75,0-0.953,0.445-0.953,0.992l0.203,8.758c0,0.75,0.238,0.98,0.785,0.98
		l2.215-0.23c0,0,0.754-0.219,0.754-0.766l-0.004-8.984c0,0-0.438-0.75-0.984-0.75H115.453z"/>
	
		<linearGradient id="SVGID_12_" gradientUnits="userSpaceOnUse" x1="273.0908" y1="-305.2612" x2="293.5283" y2="-305.2612" gradientTransform="matrix(0.75 0 0 -0.75 -95.342 -195.8757)">
		<stop  offset="0.12" style="stop-color:#2A2A2A"/>
		<stop  offset="0.48" style="stop-color:#3A3A3A"/>
		<stop  offset="0.72" style="stop-color:#404040"/>
		<stop  offset="0.83" style="stop-color:#808080"/>
		<stop  offset="0.92" style="stop-color:#AFAFAF"/>
		<stop  offset="1" style="stop-color:#2D2D2D"/>
	</linearGradient>
	<path fill="url(#SVGID_12_)" d="M109.477,34.945v6h9c0,0,6.328,0.219,6.328-6.336l-0.328-9.414h-6v7.5c0,0,0.277,1.914-1.105,1.914
		L109.477,34.945z"/>
	
		<linearGradient id="SVGID_13_" gradientUnits="userSpaceOnUse" x1="273.0732" y1="-301.8389" x2="284.2861" y2="-301.8389" gradientTransform="matrix(0.75 0 0 -0.75 -87.2263 -202.6912)">
		<stop  offset="0" style="stop-color:#6F6F6F"/>
		<stop  offset="0.12" style="stop-color:#343434"/>
		<stop  offset="0.36" style="stop-color:#474747"/>
		<stop  offset="0.39" style="stop-color:#4E4E4E"/>
		<stop  offset="0.66" style="stop-color:#6B6B6B"/>
		<stop  offset="0.82" style="stop-color:#B4B4B4"/>
		<stop  offset="1" style="stop-color:#2E2E2E"/>
	</linearGradient>
	<path fill="url(#SVGID_13_)" d="M118.344,18.379h6.75c0.75,0,0.895,0.324,0.895,0.734l-0.145,9.016c0,0.75-0.188,0.867-0.598,0.867
		l-6.902-0.117c-0.75,0-0.766-0.215-0.766-0.629l0.016-9.121c0-0.75,0.316-0.75,0.727-0.75H118.344z"/>
	
		<linearGradient id="SVGID_14_" gradientUnits="userSpaceOnUse" x1="294.9424" y1="-345.6641" x2="375.4101" y2="-278.1436" gradientTransform="matrix(0.75 0 0 -0.75 -182.5818 -219.5974)">
		<stop  offset="0" style="stop-color:#5D5D5D"/>
		<stop  offset="0.12" style="stop-color:#0A0A0A"/>
		<stop  offset="0.23" style="stop-color:#252525"/>
		<stop  offset="0.38" style="stop-color:#272727"/>
		<stop  offset="0.6" style="stop-color:#3B3B3B"/>
		<stop  offset="0.79" style="stop-color:#5A5A5A"/>
		<stop  offset="0.89" style="stop-color:#343434"/>
		<stop  offset="1" style="stop-color:#151515"/>
	</linearGradient>
	<path fill="url(#SVGID_14_)" d="M22.238,17.973c0,0,5.379-16.5,43.594-16.5c38.156,0,43.598,16.387,43.598,16.387
		c-0.191,0.113-16.945,2.121-43.598,2.258c-26.344,0.105-43.594-2.258-43.594-2.258V17.973z"/>
	<path fill="#FFFFFF" fill-opacity="0.1255" d="M25.449,17.223c0,0,4.957-14.25,40.164-14.25c34.836,0,40.164,14.465,40.164,14.465
		c-0.078-0.215-15.613,1.871-40.164,1.992c-24.414,0.043-40.164-1.992-40.164-1.992V17.223z"/>
	<path fill-opacity="0.7922" d="M57.035,72.66h17.25c1.5,0,2.598,1.172,2.598,2.625L76.535,98.16c0,1.5-0.828,2.32-2.277,2.32
		l-17.223-0.07c-0.75,0-2.25-1.125-2.25-2.578V75.66c0-1.5,1.16-3,2.609-3H57.035z"/>
	<path fill="#FFFFFF" fill-opacity="0.1255" d="M58.223,73.891c0,0,17.797,25.426,16.41,25.426l-16.41,0.074
		c-1.5,0-2.25-1.164-2.25-2.492V76.141c0-1.5,1.109-2.25,2.5-2.25H58.223z"/>
	
		<linearGradient id="SVGID_15_" gradientUnits="userSpaceOnUse" x1="273.0908" y1="-297.4136" x2="293.2568" y2="-297.4136" gradientTransform="matrix(0.75 0 0 -0.75 -116.4856 -84.8083)">
		<stop  offset="0" style="stop-color:#6F6F6F"/>
		<stop  offset="0.12" style="stop-color:#323232"/>
		<stop  offset="0.23" style="stop-color:#494949"/>
		<stop  offset="0.38" style="stop-color:#4C4C4C"/>
		<stop  offset="0.6" style="stop-color:#5B5B5B"/>
		<stop  offset="0.79" style="stop-color:#A8A8A8"/>
		<stop  offset="0.89" style="stop-color:#575757"/>
		<stop  offset="1" style="stop-color:#2E2E2E"/>
	</linearGradient>
	<path fill="url(#SVGID_15_)" d="M89.082,136.262c0,0,4.09,0.688,7.059,0.688c2.691,0.063,6.215-0.688,6.215-0.688
		c0.227,0,1.102,0.492,1.102,1.098l-0.125,1.152c0,0.75-0.375,1.039-0.977,1.039c0.227-0.289-2.852,0.691-6.414,0.691
		c-3.859-0.23-6.516-0.691-6.516-0.691c-0.344-0.289-1.094-0.488-1.094-1.094v-1.445c0,0,0.488-0.75,1.094-0.75H89.082z"/>
</g>
</svg>
