<?xml version="1.0" encoding="utf-8"?>
<!-- Generator: Adobe Illustrator 16.0.0, SVG Export Plug-In . SVG Version: 6.00 Build 0)  -->
<!DOCTYPE svg PUBLIC "-//W3C//DTD SVG 1.1//EN" "http://www.w3.org/Graphics/SVG/1.1/DTD/svg11.dtd">
<svg preserveAspectRatio="none" version="1.1" id="图层_1" xmlns="http://www.w3.org/2000/svg" xmlns:xlink="http://www.w3.org/1999/xlink" x="0px" y="0px"
	 width="141.75px" height="102.598px" viewBox="-0.02 19.57 141.75 102.598" enable-background="new -0.02 19.57 141.75 102.598"
	 xml:space="preserve">
<g id="surface386">
	
		<linearGradient id="SVGID_1_" gradientUnits="userSpaceOnUse" x1="277.5908" y1="-294.7603" x2="277.5908" y2="-314.7603" gradientTransform="matrix(0.75 0 0 -0.75 -169.1858 -165.1169)">
		<stop  offset="0" style="stop-color:#BDBDBD"/>
		<stop  offset="0.15" style="stop-color:#FFFFFF"/>
		<stop  offset="0.25" style="stop-color:#FFFFFF"/>
		<stop  offset="0.52" style="stop-color:#DFDFDF"/>
		<stop  offset="0.69" style="stop-color:#C7C7C7"/>
		<stop  offset="0.8" style="stop-color:#BCBCBC"/>
		<stop  offset="0.92" style="stop-color:#B1B1B1"/>
		<stop  offset="1" style="stop-color:#CBCBCB"/>
	</linearGradient>
	<path fill="url(#SVGID_1_)" d="M35.633,55.953h6.75v15h-6.75V55.953z"/>
	
		<linearGradient id="SVGID_2_" gradientUnits="userSpaceOnUse" x1="278.0908" y1="-294.7583" x2="278.0908" y2="-367.7583" gradientTransform="matrix(0.75 0 0 -0.75 -163.2791 -183.5134)">
		<stop  offset="0" style="stop-color:#97AA93"/>
		<stop  offset="0.15" style="stop-color:#D0E8CB"/>
		<stop  offset="0.25" style="stop-color:#E5F2E2"/>
		<stop  offset="0.52" style="stop-color:#B3C9AE"/>
		<stop  offset="0.69" style="stop-color:#9FB39B"/>
		<stop  offset="0.8" style="stop-color:#96A992"/>
		<stop  offset="0.92" style="stop-color:#8E9F89"/>
		<stop  offset="1" style="stop-color:#A3B79E"/>
	</linearGradient>
	<path fill="url(#SVGID_2_)" d="M43.039,37.555h6v54.75h-6c-0.75,0-1.5-0.41-1.5-1.133V39.055c0-0.75,0.59-1.5,1.32-1.5H43.039z"/>
	
		<linearGradient id="SVGID_3_" gradientUnits="userSpaceOnUse" x1="312.5928" y1="-294.7612" x2="312.5928" y2="-370.7612" gradientTransform="matrix(0.75 0 0 -0.75 -152.7258 -184.5623)">
		<stop  offset="0" style="stop-color:#97AA93"/>
		<stop  offset="0.15" style="stop-color:#D0E8CB"/>
		<stop  offset="0.25" style="stop-color:#E5F2E2"/>
		<stop  offset="0.52" style="stop-color:#B3C9AE"/>
		<stop  offset="0.69" style="stop-color:#9FB39B"/>
		<stop  offset="0.8" style="stop-color:#96A992"/>
		<stop  offset="0.92" style="stop-color:#8E9F89"/>
		<stop  offset="1" style="stop-color:#A3B79E"/>
	</linearGradient>
	<path fill="url(#SVGID_3_)" d="M52.094,36.508h59.25v57h-59.25V36.508z"/>
	
		<linearGradient id="SVGID_4_" gradientUnits="userSpaceOnUse" x1="290.668" y1="-294.7612" x2="290.668" y2="-370.9067" gradientTransform="matrix(0.75 0 0 -0.75 -94.0623 -184.5632)">
		<stop  offset="0" style="stop-color:#97AA93"/>
		<stop  offset="0.15" style="stop-color:#D0E8CB"/>
		<stop  offset="0.25" style="stop-color:#E5F2E2"/>
		<stop  offset="0.52" style="stop-color:#B3C9AE"/>
		<stop  offset="0.69" style="stop-color:#9FB39B"/>
		<stop  offset="0.8" style="stop-color:#96A992"/>
		<stop  offset="0.92" style="stop-color:#8E9F89"/>
		<stop  offset="1" style="stop-color:#A3B79E"/>
	</linearGradient>
	<path fill="url(#SVGID_4_)" d="M110.758,36.508h21c0,0,5.242,0,5.363,28.555c-0.113,28.445-5.352,28.555-5.352,28.555
		l-21.012-0.109V36.508z"/>
	
		<linearGradient id="SVGID_5_" gradientUnits="userSpaceOnUse" x1="273.5908" y1="-294.7612" x2="273.5908" y2="-370.7612" gradientTransform="matrix(0.75 0 0 -0.75 -94.2756 -184.5623)">
		<stop  offset="0" style="stop-color:#769A6F"/>
		<stop  offset="0.15" style="stop-color:#A9D4A0"/>
		<stop  offset="0.25" style="stop-color:#D2E7CE"/>
		<stop  offset="0.52" style="stop-color:#8CB784"/>
		<stop  offset="0.69" style="stop-color:#7CA275"/>
		<stop  offset="0.8" style="stop-color:#75996E"/>
		<stop  offset="0.92" style="stop-color:#6E9067"/>
		<stop  offset="1" style="stop-color:#7FA677"/>
	</linearGradient>
	<path fill="url(#SVGID_5_)" d="M110.543,36.508h0.75v57h-0.75V36.508z"/>
	
		<linearGradient id="SVGID_6_" gradientUnits="userSpaceOnUse" x1="-327.8735" y1="-294.7573" x2="-327.8735" y2="-374.9976" gradientTransform="matrix(-0.75 0 0 -0.75 -195.5349 -186.1345)">
		<stop  offset="0" style="stop-color:#769A6F"/>
		<stop  offset="0.15" style="stop-color:#A9D4A0"/>
		<stop  offset="0.25" style="stop-color:#D2E7CE"/>
		<stop  offset="0.52" style="stop-color:#8CB784"/>
		<stop  offset="0.69" style="stop-color:#7CA275"/>
		<stop  offset="0.8" style="stop-color:#75996E"/>
		<stop  offset="0.92" style="stop-color:#6E9067"/>
		<stop  offset="1" style="stop-color:#7FA677"/>
	</linearGradient>
	<path fill="url(#SVGID_6_)" d="M51.484,34.934h-2.25c0,0-0.508,0.266-0.508,0.594l-0.242,58.656c0,0.75,0.512,0.93,0.848,0.93
		l2.152-0.18c0.75,0,0.773-0.109,0.773-0.441l-0.023-58.809c0-0.75-0.25-0.75-0.582-0.75H51.484z"/>
	
		<linearGradient id="SVGID_7_" gradientUnits="userSpaceOnUse" x1="-328.877" y1="-294.7573" x2="-328.877" y2="-374.8101" gradientTransform="matrix(-0.75 0 0 -0.75 -196.9207 -186.0642)">
		<stop  offset="0" style="stop-color:#97AA93"/>
		<stop  offset="0.15" style="stop-color:#D0E8CB"/>
		<stop  offset="0.25" style="stop-color:#E5F2E2"/>
		<stop  offset="0.52" style="stop-color:#B3C9AE"/>
		<stop  offset="0.69" style="stop-color:#9FB39B"/>
		<stop  offset="0.8" style="stop-color:#96A992"/>
		<stop  offset="0.92" style="stop-color:#8E9F89"/>
		<stop  offset="1" style="stop-color:#A3B79E"/>
	</linearGradient>
	<path fill="url(#SVGID_7_)" d="M50.098,35.004c-0.75,0-1.367,0.266-1.367,0.598l-0.133,58.652c0,0.75,0.48,0.789,0.91,0.789
		c1.34-0.039,1.371-0.285,1.371-0.617l-0.031-58.672C50.848,35.004,50.527,35.004,50.098,35.004z"/>
	
		<linearGradient id="SVGID_8_" gradientUnits="userSpaceOnUse" x1="309.0918" y1="-294.7612" x2="309.0918" y2="-310.7612" gradientTransform="matrix(0.75 0 0 -0.75 -150.1516 -136.1052)">
		<stop  offset="0" style="stop-color:#90A38C"/>
		<stop  offset="0.03" style="stop-color:#D8EBD4"/>
		<stop  offset="0.08" style="stop-color:#BDD4B7"/>
		<stop  offset="0.64" style="stop-color:#BAD0B4"/>
		<stop  offset="0.95" style="stop-color:#B5CCB0"/>
		<stop  offset="1" style="stop-color:#869782"/>
	</linearGradient>
	<path fill="url(#SVGID_8_)" d="M54.668,84.965h54v12h-54V84.965z"/>
	
		<linearGradient id="SVGID_9_" gradientUnits="userSpaceOnUse" x1="309.0918" y1="-294.7593" x2="309.0918" y2="-299.7593" gradientTransform="matrix(0.75 0 0 -0.75 -150.1516 -124.0222)">
		<stop  offset="0" style="stop-color:#769B76"/>
		<stop  offset="0.03" style="stop-color:#BEE3BE"/>
		<stop  offset="0.08" style="stop-color:#9ACA9A"/>
		<stop  offset="0.64" style="stop-color:#98C698"/>
		<stop  offset="0.95" style="stop-color:#94C294"/>
		<stop  offset="1" style="stop-color:#6D8F6D"/>
	</linearGradient>
	<path fill="url(#SVGID_9_)" d="M54.668,97.047h54v3.75h-54V97.047z"/>
	
		<linearGradient id="SVGID_10_" gradientUnits="userSpaceOnUse" x1="290.5918" y1="-400.7563" x2="290.5918" y2="-294.7563" gradientTransform="matrix(0.75 0 0 -0.75 -194.4827 -199.1189)">
		<stop  offset="0" style="stop-color:#647161"/>
		<stop  offset="0.09" style="stop-color:#C4DCBE"/>
		<stop  offset="0.16" style="stop-color:#C1D8BB"/>
		<stop  offset="0.25" style="stop-color:#BAD0B4"/>
		<stop  offset="0.92" style="stop-color:#B5CCB0"/>
	</linearGradient>
	<path fill="url(#SVGID_10_)" d="M36.586,21.949h-26.25v79.5h26.25V21.949z"/>
	
		<linearGradient id="SVGID_11_" gradientUnits="userSpaceOnUse" x1="307.1895" y1="-294.7349" x2="307.1895" y2="-297.7612" gradientTransform="matrix(0.75 0 0 -0.75 -146.2673 -171.7654)">
		<stop  offset="0" style="stop-color:#97AA93"/>
		<stop  offset="0.15" style="stop-color:#D0E8CB"/>
		<stop  offset="0.25" style="stop-color:#E5F2E2"/>
		<stop  offset="0.52" style="stop-color:#B3C9AE"/>
		<stop  offset="0.69" style="stop-color:#9FB39B"/>
		<stop  offset="0.8" style="stop-color:#96A992"/>
		<stop  offset="0.92" style="stop-color:#8E9F89"/>
		<stop  offset="1" style="stop-color:#A3B79E"/>
	</linearGradient>
	<path fill="url(#SVGID_11_)" d="M59.301,49.305h50.25c0,0,0.148,0.25,0.148,0.578c-0.148,0.922-0.219,1.328-0.488,1.328
		l-49.91,0.344c-0.75,0-0.75-0.613-0.75-0.941c0-1.309,0.203-1.328,0.473-1.328L59.301,49.305z"/>
	
		<linearGradient id="SVGID_12_" gradientUnits="userSpaceOnUse" x1="307.1895" y1="-294.7339" x2="307.1895" y2="-297.7593" gradientTransform="matrix(0.75 0 0 -0.75 -146.2673 -166.156)">
		<stop  offset="0" style="stop-color:#97AA93"/>
		<stop  offset="0.15" style="stop-color:#D0E8CB"/>
		<stop  offset="0.25" style="stop-color:#E5F2E2"/>
		<stop  offset="0.52" style="stop-color:#B3C9AE"/>
		<stop  offset="0.69" style="stop-color:#9FB39B"/>
		<stop  offset="0.8" style="stop-color:#96A992"/>
		<stop  offset="0.92" style="stop-color:#8E9F89"/>
		<stop  offset="1" style="stop-color:#A3B79E"/>
	</linearGradient>
	<path fill="url(#SVGID_12_)" d="M59.301,54.914h50.25c0,0,0.148,0.25,0.148,0.578c-0.148,0.922-0.219,1.328-0.488,1.328
		l-49.91,0.344c-0.75,0-0.75-0.613-0.75-0.941c0-1.309,0.203-1.328,0.473-1.328L59.301,54.914z"/>
	
		<linearGradient id="SVGID_13_" gradientUnits="userSpaceOnUse" x1="307.1895" y1="-294.7319" x2="307.1895" y2="-297.7583" gradientTransform="matrix(0.75 0 0 -0.75 -146.2673 -160.5457)">
		<stop  offset="0" style="stop-color:#97AA93"/>
		<stop  offset="0.15" style="stop-color:#D0E8CB"/>
		<stop  offset="0.25" style="stop-color:#E5F2E2"/>
		<stop  offset="0.52" style="stop-color:#B3C9AE"/>
		<stop  offset="0.69" style="stop-color:#9FB39B"/>
		<stop  offset="0.8" style="stop-color:#96A992"/>
		<stop  offset="0.92" style="stop-color:#8E9F89"/>
		<stop  offset="1" style="stop-color:#A3B79E"/>
	</linearGradient>
	<path fill="url(#SVGID_13_)" d="M59.301,60.523h50.25c0,0,0.148,0.25,0.148,0.582c-0.148,0.918-0.219,1.324-0.488,1.324
		l-49.91,0.344c-0.75,0-0.75-0.609-0.75-0.941c0-1.309,0.203-1.328,0.473-1.328L59.301,60.523z"/>
	
		<linearGradient id="SVGID_14_" gradientUnits="userSpaceOnUse" x1="307.1895" y1="-294.731" x2="307.1895" y2="-297.7573" gradientTransform="matrix(0.75 0 0 -0.75 -146.2673 -154.9353)">
		<stop  offset="0" style="stop-color:#97AA93"/>
		<stop  offset="0.15" style="stop-color:#D0E8CB"/>
		<stop  offset="0.25" style="stop-color:#E5F2E2"/>
		<stop  offset="0.52" style="stop-color:#B3C9AE"/>
		<stop  offset="0.69" style="stop-color:#9FB39B"/>
		<stop  offset="0.8" style="stop-color:#96A992"/>
		<stop  offset="0.92" style="stop-color:#8E9F89"/>
		<stop  offset="1" style="stop-color:#A3B79E"/>
	</linearGradient>
	<path fill="url(#SVGID_14_)" d="M59.301,66.133h50.25c0,0,0.148,0.25,0.148,0.582c-0.148,0.918-0.219,1.324-0.488,1.324
		l-49.91,0.344c-0.75,0-0.75-0.609-0.75-0.941c0-1.309,0.203-1.328,0.473-1.328L59.301,66.133z"/>
	
		<linearGradient id="SVGID_15_" gradientUnits="userSpaceOnUse" x1="307.1895" y1="-294.7319" x2="307.1895" y2="-297.7573" gradientTransform="matrix(0.75 0 0 -0.75 -146.2673 -149.3259)">
		<stop  offset="0" style="stop-color:#97AA93"/>
		<stop  offset="0.15" style="stop-color:#D0E8CB"/>
		<stop  offset="0.25" style="stop-color:#E5F2E2"/>
		<stop  offset="0.52" style="stop-color:#B3C9AE"/>
		<stop  offset="0.69" style="stop-color:#9FB39B"/>
		<stop  offset="0.8" style="stop-color:#96A992"/>
		<stop  offset="0.92" style="stop-color:#8E9F89"/>
		<stop  offset="1" style="stop-color:#A3B79E"/>
	</linearGradient>
	<path fill="url(#SVGID_15_)" d="M59.301,71.742h50.25c0,0,0.148,0.25,0.148,0.582c-0.148,0.918-0.219,1.328-0.488,1.328
		l-49.91,0.34c-0.75,0-0.75-0.609-0.75-0.941c0-1.309,0.203-1.328,0.473-1.328L59.301,71.742z"/>
	
		<linearGradient id="SVGID_16_" gradientUnits="userSpaceOnUse" x1="307.1895" y1="-294.7339" x2="307.1895" y2="-297.7589" gradientTransform="matrix(0.75 0 0 -0.75 -146.2673 -143.7166)">
		<stop  offset="0" style="stop-color:#97AA93"/>
		<stop  offset="0.15" style="stop-color:#D0E8CB"/>
		<stop  offset="0.25" style="stop-color:#E5F2E2"/>
		<stop  offset="0.52" style="stop-color:#B3C9AE"/>
		<stop  offset="0.69" style="stop-color:#9FB39B"/>
		<stop  offset="0.8" style="stop-color:#96A992"/>
		<stop  offset="0.92" style="stop-color:#8E9F89"/>
		<stop  offset="1" style="stop-color:#A3B79E"/>
	</linearGradient>
	<path fill="url(#SVGID_16_)" d="M59.301,77.352h50.25c0,0,0.148,0.25,0.148,0.582c-0.148,0.918-0.219,1.328-0.488,1.328
		l-49.91,0.34c-0.75,0-0.75-0.609-0.75-0.941c0-1.309,0.203-1.324,0.473-1.324L59.301,77.352z"/>
	
		<linearGradient id="SVGID_17_" gradientUnits="userSpaceOnUse" x1="292.5928" y1="-294.7612" x2="292.5928" y2="-307.7612" gradientTransform="matrix(0.75 0 0 -0.75 -152.0696 -194.4998)">
		<stop  offset="0" style="stop-color:#90A38C"/>
		<stop  offset="0.03" style="stop-color:#D8EBD4"/>
		<stop  offset="0.08" style="stop-color:#BDD4B7"/>
		<stop  offset="0.64" style="stop-color:#BAD0B4"/>
		<stop  offset="0.95" style="stop-color:#B5CCB0"/>
		<stop  offset="1" style="stop-color:#869782"/>
	</linearGradient>
	<path fill="url(#SVGID_17_)" d="M52.75,26.57H82l-3,9.75H55.75L52.75,26.57z"/>
	
		<linearGradient id="SVGID_18_" gradientUnits="userSpaceOnUse" x1="293.6543" y1="-294.7573" x2="293.6543" y2="-297.7573" gradientTransform="matrix(0.75 0 0 -0.75 -152.7253 -195.8728)">
		<stop  offset="0" style="stop-color:#769B76"/>
		<stop  offset="0.03" style="stop-color:#BEE3BE"/>
		<stop  offset="0.08" style="stop-color:#9ACA9A"/>
		<stop  offset="0.64" style="stop-color:#98C698"/>
		<stop  offset="0.95" style="stop-color:#94C294"/>
		<stop  offset="1" style="stop-color:#6D8F6D"/>
	</linearGradient>
	<path fill="url(#SVGID_18_)" d="M52.094,25.195h30.75c0,0,0.094,0.137,0.094,0.301l-0.094,1.199c0,0.75-0.043,0.547-0.207,0.547
		l-30.543,0.203c0,0,0-0.336,0-0.5V25.195c0,0,0.121,0,0.285,0H52.094z"/>
	
		<linearGradient id="SVGID_19_" gradientUnits="userSpaceOnUse" x1="367.0908" y1="-294.7573" x2="367.0908" y2="-319.9761" gradientTransform="matrix(0.75 0 0 -0.75 -204.4041 -118.9392)">
		<stop  offset="0" style="stop-color:#90A38C"/>
		<stop  offset="0.03" style="stop-color:#D8EBD4"/>
		<stop  offset="0.08" style="stop-color:#BDD4B7"/>
		<stop  offset="0.64" style="stop-color:#BAD0B4"/>
		<stop  offset="0.95" style="stop-color:#B5CCB0"/>
		<stop  offset="1" style="stop-color:#869782"/>
	</linearGradient>
	<path fill="url(#SVGID_19_)" d="M0.414,102.129h140.25c0.75,0,0.652,0.137,0.652,0.301l0.098,18.449c0,0-0.25,0.164-0.418,0.164
		L0.414,120.879c0,0,0,0.031,0-0.137V102.129c0,0,0,0,0.301,0H0.414z"/>
	<path fill="#90A38C" d="M-0.02,100.98h141.75v2.25H-0.02V100.98z"/>
	<path fill="#90A38C" d="M-0.02,119.918h141.75v2.25H-0.02V119.918z"/>
	
		<linearGradient id="SVGID_20_" gradientUnits="userSpaceOnUse" x1="292.5928" y1="-294.7612" x2="292.5928" y2="-298.7612" gradientTransform="matrix(0.75 0 0 -0.75 -195.9329 -201.5007)">
		<stop  offset="0" style="stop-color:#769B76"/>
		<stop  offset="0.03" style="stop-color:#BEE3BE"/>
		<stop  offset="0.08" style="stop-color:#9ACA9A"/>
		<stop  offset="0.64" style="stop-color:#98C698"/>
		<stop  offset="0.95" style="stop-color:#94C294"/>
		<stop  offset="1" style="stop-color:#6D8F6D"/>
	</linearGradient>
	<path fill="url(#SVGID_20_)" d="M8.887,19.57h28.5c0.75,0,0.52,0.098,0.52,0.223l0.23,2.777c0,0-0.336-0.074-0.461-0.074
		L8.887,22.57c0,0,0-0.176,0-0.301V19.57c0,0,0.086,0,0.211,0H8.887z"/>
</g>
</svg>
