<?xml version="1.0" encoding="utf-8"?>
<!-- Generator: Adobe Illustrator 16.0.0, SVG Export Plug-In . SVG Version: 6.00 Build 0)  -->
<!DOCTYPE svg PUBLIC "-//W3C//DTD SVG 1.1//EN" "http://www.w3.org/Graphics/SVG/1.1/DTD/svg11.dtd">
<svg preserveAspectRatio="none" version="1.1" id="图层_1" xmlns="http://www.w3.org/2000/svg" xmlns:xlink="http://www.w3.org/1999/xlink" x="0px" y="0px"
	 width="141.828px" height="119.488px" viewBox="-0.031 11.164 141.828 119.488"
	 enable-background="new -0.031 11.164 141.828 119.488" xml:space="preserve">
<g id="surface306">
	<path fill="#D0D3DA" d="M49.508,18.293c0,0-19.613-0.93-35.488,14.742C-1.492,49.043,0.008,69.023,0.008,69.023
		c0,0.27-0.676,18.574,14.992,35.504c15.758,17.266,32.168,19.59,32.168,19.59c0.09-0.074,27.555,4.477,52.457-10.633
		c0.133,0.059,19.297-11.895,29.375-39.316c0.008,0.375,5.309-15.355,5.488-55.684l-57.23-0.191v8.25c0,0-12.254-8.758-27.637-8.25
		H49.508z"/>
	<path fill="#909DAF" d="M27.434,115.301l-6,15h77.25l-5.25-13.5l-3.75,1.5l2.25,7.5h-63l3-7.5L27.434,115.301z"/>
	<path fill="#B1B6C1" d="M12.48,63.539c0-24,18.977-42.75,42.383-42.75c23.617,0,42.379,18.98,42.379,42.395
		c-0.012,23.605-18.973,42.391-42.379,42.391C31.23,105.539,12.48,86.598,12.48,63.184V63.539z"/>
	
		<linearGradient id="SVGID_1_" gradientUnits="userSpaceOnUse" x1="273.0908" y1="-344.0068" x2="371.5283" y2="-344.0068" gradientTransform="matrix(0.75 0 0 -0.75 -186.1619 -194.4041)">
		<stop  offset="0" style="stop-color:#CCCFD5"/>
		<stop  offset="0.45" style="stop-color:#B1B6BE"/>
		<stop  offset="1" style="stop-color:#94989F"/>
	</linearGradient>
	<path fill="url(#SVGID_1_)" d="M18.656,63.414c0-20.25,16.512-36.75,36.914-36.75c20.086,0,36.914,16.535,36.914,36.938
		c-0.328,20.063-16.539,36.938-36.914,36.938c-20.414-0.375-36.914-16.551-36.914-36.938V63.414z"/>
	<path fill="#A8B3C1" d="M50.094,115.652l-6,15h26.25l-5.25-15H50.094z"/>
	<path fill="#D9D9D9" d="M52.125,124.184l0.75,2.25l-0.75,1.5h-2.25l-1.5-1.5l1.5-2.25H52.125z"/>
	<path fill="#909DAF" d="M51.434,124.887l0.75,1.5l-0.75,0.75h-1.5l-0.75-0.75l0.75-1.5H51.434z"/>
	<path fill="#D9D9D9" d="M65.133,124.184l0.75,2.25l-0.75,1.5h-2.25l-1.5-1.5l1.5-2.25H65.133z"/>
	<path fill="#909DAF" d="M64.441,124.887l0.75,1.5l-0.75,0.75h-1.5l-0.75-0.75l0.75-1.5H64.441z"/>
	<path fill="#B5BECA" d="M77.32,26.555c0,0-10.637-8.141-27.699-8.25c-0.051,0-16.191-0.52-30.301,10.113
		c0.25-0.363-19.082,13.293-19.25,39.98c0,0.156-0.629,27.281,25.492,45.645c0.008,0.262,10.082,7.617,21.051,10.109
		c-0.043-0.098,1.059-2.688,1.34-3.668c0.117-0.18-21.539-5.211-33.652-21.273c0.02,0.094-15.477-18.98-11.191-38.613
		C3.07,60.305,6.887,40.172,21.293,29.816c-0.223-0.262,27.836-20.426,56.234-3.078L77.32,26.555z"/>
	<path fill="#B5BECA" d="M74.754,11.18h64.5c1.5,0,2.488,1.625,2.488,3.645c-0.238,2.355-1.012,3.664-2.25,3.664L74.754,18.68
		c-1.5,0-2.25-1.836-2.25-3.855c0-2.145,1.004-3.66,2.238-3.66L74.754,11.18z"/>
	
		<linearGradient id="SVGID_2_" gradientUnits="userSpaceOnUse" x1="273.0928" y1="-327.3154" x2="299.6016" y2="-327.3154" gradientTransform="matrix(0.75 0 0 -0.75 -127.2917 -202.7263)">
		<stop  offset="0" style="stop-color:#7F868E"/>
		<stop  offset="0.37" style="stop-color:#949BA5"/>
		<stop  offset="1" style="stop-color:#CED2D7"/>
	</linearGradient>
	<path fill="url(#SVGID_2_)" d="M77.527,18.344v8.25c0,0,21.953,13.855,19.723,40.582l-0.223-48.832H77.527z"/>
	<path fill="#7B8A9F" d="M141.797,16.16c-0.75,1.5-1.355,2.328-2.582,2.328L75.047,18.41c-1.5,0-2.141-1.074-2.25-2.25h68.656
		H141.797z"/>
	<path fill="#FFFFFF" fill-opacity="0.2863" d="M133.043,18.492c0,0-0.516,39.469-5.305,55.68
		c0.055-0.18-7.473,22.918-28.445,39.047c0-0.227,19.129-20.828,23.324-40.641c4.426-19.586,2.602-53.852,2.602-53.852
		L133.043,18.492z"/>
	<path fill="#FFFFFF" fill-opacity="0.749" d="M74.355,11.594h65.25c0.75,0,0.93,0.309,0.93,0.691
		c-0.18,0.059-0.48,0.691-1.074,0.691l-65.105,0.117c0,0-0.75-0.426-0.75-0.809c0-0.691,0.48-0.691,1.074-0.691H74.355z"/>
	<path fill="#BEC6D0" d="M49.492,115.848l-0.75,3h17.25l-1.5-3H49.492z"/>
	<path fill="#D0D3DA" d="M32.301,62.18c0-12.75,10.43-23.25,23.316-23.25c12.684,0,23.316,10.441,23.316,23.328
		C78.801,74.93,68.488,85.59,55.617,85.59c-12.816-0.16-23.316-10.453-23.316-23.332V62.18z"/>
	<path fill="#556377" d="M34.719,62.008c0-11.25,9.449-21,21.121-21c11.879,0,21.121,9.461,21.121,21.133
		C76.719,74.008,67.5,83.277,55.84,83.277c-11.371-0.27-21.121-9.473-21.121-21.137V62.008z"/>
	<path fill="#A7ACB9" stroke="#A7ACB9" stroke-width="0.25" stroke-linejoin="bevel" stroke-miterlimit="10" d="M35.48,56.512
		c0,0,4.023,5.258,9.344,10.242c-0.344,0.258,0.5,0.566-1.125,0.566c0.031-0.309-7.301-1.156-8.891-2.75
		c-0.078,0.191-0.449-4.363,0.668-8.059H35.48z"/>
	<path fill="#A7ACB9" stroke="#A7ACB9" stroke-width="0.25" stroke-linejoin="bevel" stroke-miterlimit="10" d="M38.621,74.258
		c0,0,6.613,0.297,13.855-0.578c-0.027,0.434,0.75-0.02-0.293,1.227c-0.215-0.219-5.578,4.852-7.824,5.043
		c0.098,0.188-3.629-2.457-5.742-5.691H38.621z"/>
	<path fill="#A7ACB9" stroke="#A7ACB9" stroke-width="0.25" stroke-linejoin="bevel" stroke-miterlimit="10" d="M55.516,83.207
		c0,0,4.035-5.25,7.473-11.684c0.34,0.273,0.414-0.625,0.836,0.945c-0.301,0.051,0.773,7.352-0.355,9.301
		c0.211,0.027-4.094,1.563-7.953,1.441V83.207z"/>
	<path fill="#A7ACB9" stroke="#A7ACB9" stroke-width="0.25" stroke-linejoin="bevel" stroke-miterlimit="10" d="M71.809,76.004
		c0,0-1.426-6.469-4.141-13.234c0.422-0.086-0.211-0.723,1.258-0.035c-0.156,0.266,6.129,4.133,6.898,6.25
		c0.152-0.141-1.438,4.145-4.012,7.02H71.809z"/>
	<path fill="#A7ACB9" stroke="#A7ACB9" stroke-width="0.25" stroke-linejoin="bevel" stroke-miterlimit="10" d="M76.641,58.777
		c0,0-5.871-3.066-12.801-5.332c0.203-0.379-0.691-0.301,0.781-0.988c0.102,0.289,7.105-2.039,9.223-1.266
		C73.832,50.984,76.094,54.953,76.641,58.777z"/>
	<path fill="#A7ACB9" stroke="#A7ACB9" stroke-width="0.25" stroke-linejoin="bevel" stroke-miterlimit="10" d="M66.664,44.027
		c0,0-6.117,2.531-12.313,6.383c-0.156-0.406-0.672,0.332-0.25-1.234c0.285,0.105,3.004-6.754,4.957-7.879
		C58.891,41.168,63.387,41.992,66.664,44.027z"/>
	<path fill="#A7ACB9" stroke="#A7ACB9" stroke-width="0.25" stroke-linejoin="bevel" stroke-miterlimit="10" d="M46.984,43.02
		c0,0-1.441,6.465-1.836,13.746c-0.422-0.102-0.113,0.742-1.156-0.5c0.25-0.176-3.809-6.34-3.609-8.582
		C40.184,47.75,43.434,44.535,46.984,43.02z"/>
	<path fill="#B1B6C1" stroke="#6F8198" stroke-linejoin="bevel" stroke-miterlimit="10" d="M54.043,62.066
		c0-0.75,0.746-1.512,1.672-1.512c0.578,0.012,1.68,0.75,1.68,1.68c-0.352,0.582-0.75,1.68-1.68,1.68
		c-0.922-0.348-1.676-0.754-1.676-1.68L54.043,62.066z"/>
	<path fill="#B1B6C1" stroke="#6F8198" stroke-linejoin="bevel" stroke-miterlimit="10" d="M50.75,58.559
		c0-0.75,0.582-1.512,1.301-1.512c0.949,0.012,1.301,0.582,1.301,1.301c-0.352,0.961-0.582,1.305-1.301,1.305
		c-0.551-0.344-1.301-0.586-1.301-1.305V58.559z"/>
	<path fill="#B1B6C1" stroke="#6F8198" stroke-linejoin="bevel" stroke-miterlimit="10" d="M50.746,66.344
		c0-0.75,0.586-1.512,1.305-1.512c0.945,0.012,1.301,0.582,1.301,1.301c-0.355,0.961-0.582,1.305-1.301,1.305
		c-0.555-0.344-1.305-0.582-1.305-1.305V66.344z"/>
	<path fill="#B1B6C1" stroke="#6F8198" stroke-linejoin="bevel" stroke-miterlimit="10" d="M58.074,66.344
		c0-0.75,0.582-1.512,1.301-1.512c0.949,0.012,1.301,0.582,1.301,1.301c-0.352,0.961-0.582,1.305-1.301,1.305
		c-0.551-0.344-1.301-0.582-1.301-1.305V66.344z"/>
	<path fill="#B1B6C1" stroke="#6F8198" stroke-linejoin="bevel" stroke-miterlimit="10" d="M58.074,58.559
		c0-0.75,0.582-1.512,1.301-1.512c0.949,0.012,1.301,0.582,1.301,1.301c-0.352,0.961-0.582,1.305-1.301,1.305
		c-0.551-0.344-1.301-0.586-1.301-1.305V58.559z"/>
	<path fill="#FFFFFF" fill-opacity="0.7373" d="M126.508,18.758c0,0,0.172,22.316-1.617,24.598c0.117,0.152,0.047-2.52-0.121-5.77
		c0.238-0.078-0.609-15.352-1.262-18.762L126.508,18.758z"/>
	<path fill="#FFFFFF" fill-opacity="0.1608" d="M26.027,41.906c0,0-15.672,17.855-1.543,41.77c0.043,0.23,5.359-3.609,11.531-6.695
		c-0.238,0.176-10.395-13.48-1.301-26.965c0.313,0.141-8.93-6.957-8.93-8.109H26.027z"/>
	<path fill="#FFFFFF" fill-opacity="0.1608" d="M26.445,86.008c0,0,5.996,7.707,13.469,11.297c0.031-0.047,2.598-6.676,4.727-13.012
		c-0.195,0.215-4.242-2.602-6.676-5.035c-0.27,0-8.121,4.223-11.52,6.984V86.008z"/>
</g>
</svg>
