<?xml version="1.0" encoding="utf-8"?>
<!-- Generator: Adobe Illustrator 16.0.0, SVG Export Plug-In . SVG Version: 6.00 Build 0)  -->
<!DOCTYPE svg PUBLIC "-//W3C//DTD SVG 1.1//EN" "http://www.w3.org/Graphics/SVG/1.1/DTD/svg11.dtd">
<svg preserveAspectRatio="none" version="1.1" id="图层_1" xmlns="http://www.w3.org/2000/svg" xmlns:xlink="http://www.w3.org/1999/xlink" x="0px" y="0px"
	 width="141.75px" height="114.832px" viewBox="-0.023 13.48 141.75 114.832" enable-background="new -0.023 13.48 141.75 114.832"
	 xml:space="preserve">
<g id="surface296">
	
		<linearGradient id="SVGID_1_" gradientUnits="userSpaceOnUse" x1="315.0801" y1="-294.7539" x2="315.0801" y2="-350.8354" gradientTransform="matrix(0.75 0 0 -0.75 -126.0764 -172.2439)">
		<stop  offset="0" style="stop-color:#939394"/>
		<stop  offset="0.1" style="stop-color:#BDBDBE"/>
		<stop  offset="0.25" style="stop-color:#DBDBDC"/>
		<stop  offset="0.41" style="stop-color:#F8F8F8"/>
		<stop  offset="0.62" style="stop-color:#E1E1E2"/>
		<stop  offset="0.83" style="stop-color:#BABABB"/>
		<stop  offset="1" style="stop-color:#8D8D8D"/>
	</linearGradient>
	<path fill="url(#SVGID_1_)" d="M78.742,55.574c0,0-0.133-2.965,4.965-2.965c0.285-0.035,2.551,0.145,3.555-3.785h49.23
		c0,0,5.234-0.688,5.234,20.73c0.016,21.27-5.016,21.328-5.016,21.328l-47.469-0.059c0,0-0.48-3.18-5.223-2.703
		c-0.027-0.297-4.383,1.809-5.277-2V55.574z"/>
	
		<linearGradient id="SVGID_2_" gradientUnits="userSpaceOnUse" x1="294.0928" y1="-309.7598" x2="273.0928" y2="-309.7598" gradientTransform="matrix(0.75 0 0 -0.75 -115.3396 -130.1873)">
		<stop  offset="0" style="stop-color:#1D6966"/>
		<stop  offset="0.09" style="stop-color:#37B2AD"/>
		<stop  offset="0.16" style="stop-color:#2F9894"/>
		<stop  offset="0.64" style="stop-color:#2E9591"/>
		<stop  offset="0.92" style="stop-color:#2D928E"/>
		<stop  offset="1" style="stop-color:#1F6B68"/>
	</linearGradient>
	<path fill="url(#SVGID_2_)" d="M89.48,90.883h15.75v22.5H89.48V90.883z"/>
	
		<linearGradient id="SVGID_3_" gradientUnits="userSpaceOnUse" x1="294.0898" y1="-309.7598" x2="273.0898" y2="-309.7598" gradientTransform="matrix(0.75 0 0 -0.75 -88.5129 -130.1873)">
		<stop  offset="0" style="stop-color:#1D6966"/>
		<stop  offset="0.09" style="stop-color:#37B0AB"/>
		<stop  offset="0.16" style="stop-color:#2F9894"/>
		<stop  offset="0.64" style="stop-color:#2E9591"/>
		<stop  offset="0.92" style="stop-color:#2D928E"/>
		<stop  offset="1" style="stop-color:#1F6B68"/>
	</linearGradient>
	<path fill="url(#SVGID_3_)" d="M116.305,90.883h15.75v22.5h-15.75V90.883z"/>
	
		<linearGradient id="SVGID_4_" gradientUnits="userSpaceOnUse" x1="278.0908" y1="-294.7612" x2="278.0908" y2="-311.7612" gradientTransform="matrix(0.75 0 0 -0.75 -149.3337 -158.196)">
		<stop  offset="0" style="stop-color:#185856"/>
		<stop  offset="0.09" style="stop-color:#82B5B2"/>
		<stop  offset="0.16" style="stop-color:#2B8E8B"/>
		<stop  offset="0.64" style="stop-color:#2A8C88"/>
		<stop  offset="0.92" style="stop-color:#298985"/>
		<stop  offset="1" style="stop-color:#1C6461"/>
	</linearGradient>
	<path fill="url(#SVGID_4_)" d="M62.984,62.875h-7.5v12.75h7.5V62.875z"/>
	
		<linearGradient id="SVGID_5_" gradientUnits="userSpaceOnUse" x1="292.0889" y1="-294.7573" x2="292.0889" y2="-381.7573" gradientTransform="matrix(0.75 0 0 -0.75 -177.6023 -172.5525)">
		<stop  offset="0" style="stop-color:#1D6966"/>
		<stop  offset="0.09" style="stop-color:#37B2AD"/>
		<stop  offset="0.16" style="stop-color:#2F9894"/>
		<stop  offset="0.64" style="stop-color:#2E9591"/>
		<stop  offset="0.92" style="stop-color:#2D928E"/>
		<stop  offset="1" style="stop-color:#1F6B68"/>
	</linearGradient>
	<path fill="url(#SVGID_5_)" d="M55.715,48.516h-28.5v65.25h28.5V48.516z"/>
	
		<linearGradient id="SVGID_6_" gradientUnits="userSpaceOnUse" x1="273.0918" y1="-300.7598" x2="293.873" y2="-300.7598" gradientTransform="matrix(0.75 0 0 -0.75 -202.5608 -205.113)">
		<stop  offset="0" style="stop-color:#1C6461"/>
		<stop  offset="0.4" style="stop-color:#2F9894"/>
		<stop  offset="0.64" style="stop-color:#39B4AF"/>
		<stop  offset="0.8" style="stop-color:#2D928E"/>
		<stop  offset="1" style="stop-color:#1C6461"/>
	</linearGradient>
	<path fill="url(#SVGID_6_)" d="M2.258,15.957h15c0.75,0,0.566,0.02,0.566,0.047l-2.816,8.953h-10.5L2.258,15.957
		c0,0,0.098,0,0.219,0H2.258z"/>
	
		<linearGradient id="SVGID_7_" gradientUnits="userSpaceOnUse" x1="357.5889" y1="-294.7573" x2="357.5889" y2="-314.7573" gradientTransform="matrix(0.75 0 0 -0.75 -190.2156 -107.7556)">
		<stop  offset="0" style="stop-color:#227875"/>
		<stop  offset="0.09" style="stop-color:#82B5B2"/>
		<stop  offset="0.16" style="stop-color:#2B8E8B"/>
		<stop  offset="0.64" style="stop-color:#2A8C88"/>
		<stop  offset="0.92" style="stop-color:#298985"/>
		<stop  offset="1" style="stop-color:#1C6461"/>
	</linearGradient>
	<path fill="url(#SVGID_7_)" d="M141.352,113.313H14.602v15h126.75V113.313z"/>
	
		<linearGradient id="SVGID_8_" gradientUnits="userSpaceOnUse" x1="273.0908" y1="-296.4385" x2="299.5713" y2="-296.4385" gradientTransform="matrix(0.75 0 0 -0.75 -204.842 -207.5886)">
		<stop  offset="0" style="stop-color:#1C6461"/>
		<stop  offset="0.4" style="stop-color:#2F9894"/>
		<stop  offset="0.64" style="stop-color:#39B4AF"/>
		<stop  offset="0.8" style="stop-color:#2D928E"/>
		<stop  offset="1" style="stop-color:#1C6461"/>
	</linearGradient>
	<path fill="url(#SVGID_8_)" d="M0.727,13.48h18.75c0,0,0.359,0.254,0.359,0.57l-0.359,1.68c0,0,0.148,0.27-0.109,0.27L0.727,15.73
		c-0.75,0-0.75,0.012-0.75-0.301V14.23c0-0.75,0.199-0.75,0.461-0.75H0.727z"/>
	<path fill="#3D484C" d="M93.09,57h39v24h-39V57z"/>
	<path fill="#EEEEEE" d="M93.09,58.164h39v1.5h-39V58.164z"/>
	<path fill="#EEEEEE" d="M93.09,61.453h39v1.5h-39V61.453z"/>
	<path fill="#EEEEEE" d="M93.09,65.129h39v1.5h-39V65.129z"/>
	<path fill="#EEEEEE" d="M93.09,68.613h39v1.5h-39V68.613z"/>
	<path fill="#EEEEEE" d="M93.09,72.094h39v1.5h-39V72.094z"/>
	<path fill="#EEEEEE" d="M93.09,75.578h39v1.5h-39V75.578z"/>
	<path fill="#EEEEEE" d="M93.09,79.063h39v1.5h-39V79.063z"/>
	
		<linearGradient id="SVGID_9_" gradientUnits="userSpaceOnUse" x1="299.0918" y1="-302.7578" x2="273.0918" y2="-302.7578" gradientTransform="matrix(0.75 0 0 -0.75 -143.8152 -119.7029)">
		<stop  offset="0" style="stop-color:#1D6966"/>
		<stop  offset="0.09" style="stop-color:#37B2AD"/>
		<stop  offset="0.16" style="stop-color:#2F9894"/>
		<stop  offset="0.64" style="stop-color:#2E9591"/>
		<stop  offset="0.92" style="stop-color:#2D928E"/>
		<stop  offset="1" style="stop-color:#1F6B68"/>
	</linearGradient>
	<path fill="url(#SVGID_9_)" d="M61.004,101.367h19.5v12h-19.5V101.367z"/>
	<path fill="#35A9A5" d="M89.48,90.883h15.75v2.25H89.48V90.883z"/>
	<path fill="#35A9A5" d="M96.598,90.883h1.5v22.5h-1.5V90.883z"/>
	<path fill="#35A9A5" d="M116.305,90.883h15.75v2.25h-15.75V90.883z"/>
	<path fill="#35A9A5" d="M123.422,90.883h1.5v22.5h-1.5V90.883z"/>
	
		<linearGradient id="SVGID_10_" gradientUnits="userSpaceOnUse" x1="283.5908" y1="-294.7593" x2="283.5908" y2="-356.7593" gradientTransform="matrix(0.75 0 0 -0.75 -141.6345 -165.5925)">
		<stop  offset="0" style="stop-color:#1D6966"/>
		<stop  offset="0.09" style="stop-color:#83BCB9"/>
		<stop  offset="0.16" style="stop-color:#2F9894"/>
		<stop  offset="0.64" style="stop-color:#2E9591"/>
		<stop  offset="0.92" style="stop-color:#2D928E"/>
		<stop  offset="1" style="stop-color:#1F6B68"/>
	</linearGradient>
	<path fill="url(#SVGID_10_)" d="M66.184,55.477h9.75c1.5,0,2.934,1.523,2.934,3.418l0.066,43.082h-15.75v-42.75
		c0-2.25,1.434-3.75,3.215-3.75H66.184z"/>
	
		<linearGradient id="SVGID_11_" gradientUnits="userSpaceOnUse" x1="299.0918" y1="-296.7568" x2="273.0918" y2="-296.7568" gradientTransform="matrix(0.75 0 0 -0.75 -143.6555 -119.8455)">
		<stop  offset="0" style="stop-color:#27736F"/>
		<stop  offset="0.09" style="stop-color:#46BEB8"/>
		<stop  offset="0.16" style="stop-color:#43B7B2"/>
		<stop  offset="0.64" style="stop-color:#42B4AF"/>
		<stop  offset="0.92" style="stop-color:#40B0AB"/>
		<stop  offset="1" style="stop-color:#2D827E"/>
	</linearGradient>
	<path fill="url(#SVGID_11_)" d="M61.164,101.223h19.5v3h-19.5V101.223z"/>
	<path fill="#247D79" d="M89.461,92.805h7.5v21h-1.5v-18.75c0,0,0.359-1.344-0.5-1.344l-5.5-0.156V92.805z"/>
	<path fill="#247D79" d="M116.305,92.797h7.5v21h-1.5v-18.75c0,0,0.359-1.34-0.496-1.34l-5.504-0.16V92.797z"/>
	<path fill="#247D79" d="M105.242,92.797h-7.5v0.75h7.5V92.797z"/>
	<path fill="#247D79" d="M132.016,92.805h-7.5v0.75h7.5V92.805z"/>
	
		<linearGradient id="SVGID_12_" gradientUnits="userSpaceOnUse" x1="303.0898" y1="-327.9482" x2="273.0879" y2="-327.9482" gradientTransform="matrix(0.75 0 0 -0.75 -200.1311 -195.9568)">
		<stop  offset="0" style="stop-color:#2F9894"/>
		<stop  offset="0.33" style="stop-color:#2C9490"/>
		<stop  offset="0.64" style="stop-color:#2E9591"/>
		<stop  offset="0.92" style="stop-color:#1F706D"/>
	</linearGradient>
	<path fill="url(#SVGID_12_)" d="M27.188,64.113h-8.25c0,0-3.684,0.359-3.684-4.637l-0.066-34.363h-10.5v42.75
		c0,0-0.27,7.035,6.289,7.035l16.211-0.285V64.113z"/>
</g>
</svg>
