<?xml version="1.0" encoding="utf-8"?>
<!-- Generator: Adobe Illustrator 16.0.0, SVG Export Plug-In . SVG Version: 6.00 Build 0)  -->
<!DOCTYPE svg PUBLIC "-//W3C//DTD SVG 1.1//EN" "http://www.w3.org/Graphics/SVG/1.1/DTD/svg11.dtd">
<svg preserveAspectRatio="none" version="1.1" id="图层_1" xmlns="http://www.w3.org/2000/svg" xmlns:xlink="http://www.w3.org/1999/xlink" x="0px" y="0px"
	 width="142.008px" height="63.77px" viewBox="-0.008 39.141 142.008 63.77" enable-background="new -0.008 39.141 142.008 63.77"
	 xml:space="preserve">
<g id="surface301">
	<path fill="#52689B" d="M5.992,53.168h-6v35.25h6V53.168z"/>
	<path fill="#7685AF" d="M5.5,39.16H142v63.75H5.5V39.16z"/>
	
		<linearGradient id="SVGID_1_" gradientUnits="userSpaceOnUse" x1="360.0889" y1="-294.7603" x2="360.0889" y2="-370.7603" gradientTransform="matrix(0.75 0 0 -0.75 -196.345 -178.8513)">
		<stop  offset="0" style="stop-color:#596893"/>
		<stop  offset="0.16" style="stop-color:#7C8AB2"/>
		<stop  offset="1" style="stop-color:#576690"/>
	</linearGradient>
	<path fill="url(#SVGID_1_)" d="M8.473,42.219h130.5v57H8.473V42.219z"/>
	<path fill="#384C77" d="M12.773,45.234h72v51h-72V45.234z"/>
	<path fill="#384C77" d="M97.773,86.039c-8.25-8.25-8.074-21.617,0.191-29.84c8.059-8.41,21.676-8.223,29.945,0
		c8.113,8.09,8.27,21.551,0,29.773c-8.387,8.316-21.676,8.223-29.945,0L97.773,86.039z"/>
	<path fill="#68769F" d="M14.43,46.688h68.25v48H14.43V46.688z"/>
	<path fill="#4B6296" d="M99.563,84.07c-6.75-6.75-7.074-18.84,0.203-26.078c7.297-6.922,19.086-7.238,26.363,0
		c7.184,7.328,7.281,18.973,0,26.211c-7.066,7.367-19.082,7.238-26.363,0L99.563,84.07z"/>
	<path fill="none" stroke="#7A89B1" stroke-width="4" stroke-linejoin="bevel" stroke-miterlimit="10" d="M99.77,84.242l26.25-26.25
		"/>
	<path fill="none" stroke="#7A89B1" stroke-width="4" stroke-linejoin="bevel" stroke-miterlimit="10" d="M99.77,57.992l26.25,26.25
		"/>
	<path fill="#5E6B94" d="M14.43,46.688h34.5v48h-34.5V46.688z"/>
	<path fill="#FFFFFF" fill-opacity="0.0706" d="M141.637,79.641l-136.5-36v-4.5l136.5,0.75V79.641z"/>
</g>
</svg>
