<?xml version="1.0" encoding="utf-8"?>
<!-- Generator: Adobe Illustrator 16.0.0, SVG Export Plug-In . SVG Version: 6.00 Build 0)  -->
<!DOCTYPE svg PUBLIC "-//W3C//DTD SVG 1.1//EN" "http://www.w3.org/Graphics/SVG/1.1/DTD/svg11.dtd">
<svg preserveAspectRatio="none" version="1.1" id="图层_1" xmlns="http://www.w3.org/2000/svg" xmlns:xlink="http://www.w3.org/1999/xlink" x="0px" y="0px"
	 width="107.371px" height="141.633px" viewBox="17.25 -0.016 107.371 141.633"
	 enable-background="new 17.25 -0.016 107.371 141.633" xml:space="preserve">
<g id="surface341">
	
		<linearGradient id="SVGID_1_" gradientUnits="userSpaceOnUse" x1="337.5918" y1="-294.7622" x2="337.5918" y2="-330.7622" gradientTransform="matrix(0.75 0 0 -0.75 -182.636 -111.446)">
		<stop  offset="0" style="stop-color:#717378"/>
		<stop  offset="0.22" style="stop-color:#9D9FA3"/>
		<stop  offset="0.41" style="stop-color:#C4C7CC"/>
		<stop  offset="0.84" style="stop-color:#A0A2A6"/>
		<stop  offset="1" style="stop-color:#909396"/>
	</linearGradient>
	<path fill="url(#SVGID_1_)" d="M37.184,109.625c0,0-2.355,5.453-8.684,6.625c-6.316,0.875-6.316,5.203-6.316,5.203v15.172h96.75
		v-15c0,0,0.07-4.465-6.309-5.375c-6.441-0.625-8.344-6.625-8.344-6.625H37.184z"/>
	
		<linearGradient id="SVGID_2_" gradientUnits="userSpaceOnUse" x1="273.0938" y1="-338.7598" x2="331.0938" y2="-338.7598" gradientTransform="matrix(0.75 0 0 -0.75 -125.9451 -215.2146)">
		<stop  offset="0" style="stop-color:#686E75"/>
		<stop  offset="0.22" style="stop-color:#9BA3AD"/>
		<stop  offset="0.57" style="stop-color:#E6E8EC"/>
		<stop  offset="0.84" style="stop-color:#CAD0D8"/>
		<stop  offset="1" style="stop-color:#858C95"/>
	</linearGradient>
	<path fill="url(#SVGID_2_)" d="M78.875,5.855h43.5v66h-43.5V5.855z"/>
	
		<radialGradient id="SVGID_3_" cx="342.6143" cy="-360.9487" r="95.9941" gradientTransform="matrix(0.75 0 0 -0.75 -186.4153 -198.8699)" gradientUnits="userSpaceOnUse">
		<stop  offset="0" style="stop-color:#AFB2B9"/>
		<stop  offset="0.54" style="stop-color:#DBDCDD"/>
		<stop  offset="0.74" style="stop-color:#D8DADF"/>
		<stop  offset="0.91" style="stop-color:#AFB2B9"/>
		<stop  offset="1" style="stop-color:#DBDCDD"/>
	</radialGradient>
	<path fill="url(#SVGID_3_)" stroke="#D4D6DB" stroke-width="0.25" stroke-linejoin="bevel" stroke-miterlimit="10" d="
		M18.402,71.699c0-27,23.348-49.5,52.145-49.5c28.855,0,52.141,22.227,52.141,49.645c-0.035,27.605-23.344,49.641-52.141,49.641
		c-28.895-0.285-52.145-22.227-52.145-49.641V71.699z"/>
	<path fill="#CDCECE" d="M30.402,71.875c0-21,17.973-38.25,40.145-38.25c22.105,0,40.141,17.109,40.141,38.219
		c-0.035,21.031-17.973,38.219-40.141,38.219c-22.145,0.063-40.145-17.113-40.145-38.219V71.875z"/>
	<path fill="#9EA0A4" d="M17.25,136.367h106.5v5.25H17.25V136.367z"/>
	<path fill="#3E3938" d="M33.285,71.66c0-19.5,16.684-35.25,37.262-35.25c20.488,0,37.258,15.863,37.258,35.434
		c-0.27,19.316-16.68,35.43-37.258,35.43c-20.762-0.363-37.262-15.863-37.262-35.43V71.66z"/>
	
		<linearGradient id="SVGID_4_" gradientUnits="userSpaceOnUse" x1="273.0889" y1="-298.75" x2="337.1621" y2="-298.75" gradientTransform="matrix(0.75 0 0 -0.75 -128.3987 -221.072)">
		<stop  offset="0" style="stop-color:#8F969D"/>
		<stop  offset="0.64" style="stop-color:#D3D8DE"/>
		<stop  offset="1" style="stop-color:#9AA0A8"/>
	</linearGradient>
	<path fill="url(#SVGID_4_)" d="M77.918-0.004h45c0.75,0,1.555,1.301,1.555,2.918c-0.055,1.582-0.699,2.938-1.559,2.938
		L77.918,5.996c-0.75,0-1.5-1.465-1.5-3.082c0-1.418,0.695-2.93,1.555-2.93L77.918-0.004z"/>
	
		<linearGradient id="SVGID_5_" gradientUnits="userSpaceOnUse" x1="273.0908" y1="-295.999" x2="337.0908" y2="-295.999" gradientTransform="matrix(0.75 0 0 -0.75 -128.197 -217.0798)">
		<stop  offset="0" style="stop-color:#626974"/>
		<stop  offset="0.66" style="stop-color:#CCD0D5"/>
		<stop  offset="1" style="stop-color:#5E6670"/>
	</linearGradient>
	<path fill="url(#SVGID_5_)" d="M124.621,3.988c-0.75,0.75-1.051,1.863-1.898,1.863L78.121,5.488c-0.75,0-1.422-0.559-1.5-1.5
		h47.652H124.621z"/>
	<path fill="#FFFFFF" fill-opacity="0.749" d="M77.934,0.328h45c0,0,0.703,0.25,0.703,0.555c0.047,0.195-0.332,0.555-0.746,0.555
		L77.934,1.078c-0.75,0-0.75,0.113-0.75-0.195c0-0.555,0.336-0.555,0.746-0.555H77.934z"/>
	<path fill="none" stroke="#D5D7DD" stroke-linejoin="bevel" stroke-miterlimit="10" d="M33.285,71.844h74.25"/>
	<path fill="none" stroke="#D5D7DD" stroke-linejoin="bevel" stroke-miterlimit="10" d="M34.535,62.617h72"/>
	<path fill="none" stroke="#D5D7DD" stroke-linejoin="bevel" stroke-miterlimit="10" d="M38.637,53.391h63.75"/>
	<path fill="none" stroke="#D5D7DD" stroke-linejoin="bevel" stroke-miterlimit="10" d="M47.18,44.164h46.5"/>
	<path fill="none" stroke="#D5D7DD" stroke-linejoin="bevel" stroke-miterlimit="10" d="M34.418,81.137h72"/>
	<path fill="none" stroke="#D5D7DD" stroke-linejoin="bevel" stroke-miterlimit="10" d="M39.047,90.43h63"/>
	<path fill="none" stroke="#D5D7DD" stroke-linejoin="bevel" stroke-miterlimit="10" d="M48.039,99.723h45"/>
	<path fill="none" stroke="#D5D7DD" stroke-linejoin="bevel" stroke-miterlimit="10" d="M70.949,107.031v-70.5"/>
	<path fill="none" stroke="#D5D7DD" stroke-linejoin="bevel" stroke-miterlimit="10" d="M61.262,105.84V37.59"/>
	<path fill="none" stroke="#D5D7DD" stroke-linejoin="bevel" stroke-miterlimit="10" d="M51.57,101.941v-60.75"/>
	<path fill="none" stroke="#D5D7DD" stroke-linejoin="bevel" stroke-miterlimit="10" d="M41.879,93.82V49.57"/>
	<path fill="none" stroke="#D5D7DD" stroke-linejoin="bevel" stroke-miterlimit="10" d="M80.711,105.953v-68.25"/>
	<path fill="none" stroke="#D5D7DD" stroke-linejoin="bevel" stroke-miterlimit="10" d="M90.473,101.551v-60"/>
	<path fill="none" stroke="#D5D7DD" stroke-linejoin="bevel" stroke-miterlimit="10" d="M100.234,93V50.25"/>
</g>
</svg>
