<?xml version="1.0" encoding="utf-8"?>
<!-- Generator: Adobe Illustrator 16.0.0, SVG Export Plug-In . SVG Version: 6.00 Build 0)  -->
<!DOCTYPE svg PUBLIC "-//W3C//DTD SVG 1.1//EN" "http://www.w3.org/Graphics/SVG/1.1/DTD/svg11.dtd">
<svg preserveAspectRatio="none" version="1.1" id="图层_1" xmlns="http://www.w3.org/2000/svg" xmlns:xlink="http://www.w3.org/1999/xlink" x="0px" y="0px"
	 width="141.703px" height="103.672px" viewBox="-0.008 19.117 141.703 103.672"
	 enable-background="new -0.008 19.117 141.703 103.672" xml:space="preserve">
<g id="surface336">
	
		<linearGradient id="SVGID_1_" gradientUnits="userSpaceOnUse" x1="285.5088" y1="-291.4307" x2="317.6202" y2="-411.2721" gradientTransform="matrix(0.75 0 0 -0.75 -204.8274 -186.0232)">
		<stop  offset="0" style="stop-color:#64655E"/>
		<stop  offset="0.15" style="stop-color:#9A9D92"/>
		<stop  offset="0.26" style="stop-color:#C5C9BB"/>
		<stop  offset="0.32" style="stop-color:#E6E9DF"/>
		<stop  offset="0.46" style="stop-color:#B9BCAF"/>
		<stop  offset="0.85" style="stop-color:#9A9D92"/>
	</linearGradient>
	<path fill="url(#SVGID_1_)" d="M38.242,35.047c0,0-5.563,2.734-22.355,19.863l-15.895-0.363v48.75h15.75
		c0,0,13.656,12.605,22.578,17.813L38.242,35.047z"/>
	
		<linearGradient id="SVGID_2_" gradientUnits="userSpaceOnUse" x1="302.7363" y1="-292.8921" x2="292.3641" y2="-411.4466" gradientTransform="matrix(0.75 0 0 -0.75 -101.3738 -186.0232)">
		<stop  offset="0" style="stop-color:#898A88"/>
		<stop  offset="0.15" style="stop-color:#9A9D92"/>
		<stop  offset="0.26" style="stop-color:#C5C9BB"/>
		<stop  offset="0.32" style="stop-color:#E6E9DF"/>
		<stop  offset="0.46" style="stop-color:#B9BCAF"/>
		<stop  offset="0.85" style="stop-color:#9A9D92"/>
	</linearGradient>
	<path fill="url(#SVGID_2_)" d="M103.445,35.047v86.25c0,0,18.375-12.023,22.43-18.16l15.82,0.16v-48.75h-15.75
		C125.945,54.547,112.137,39.391,103.445,35.047z"/>
	
		<linearGradient id="SVGID_3_" gradientUnits="userSpaceOnUse" x1="283.5928" y1="-294.7603" x2="283.5928" y2="-358.7603" gradientTransform="matrix(0.75 0 0 -0.75 -78.9451 -166.1716)">
		<stop  offset="0" style="stop-color:#949990"/>
		<stop  offset="0.15" style="stop-color:#CDD2C7"/>
		<stop  offset="0.25" style="stop-color:#E3E6E1"/>
		<stop  offset="0.52" style="stop-color:#B0B5AA"/>
		<stop  offset="0.69" style="stop-color:#9CA197"/>
		<stop  offset="0.8" style="stop-color:#93988F"/>
		<stop  offset="0.92" style="stop-color:#8B8F86"/>
		<stop  offset="1" style="stop-color:#A0A59B"/>
	</linearGradient>
	<path fill="url(#SVGID_3_)" d="M125.875,54.898h15.75v48h-15.75V54.898z"/>
	
		<linearGradient id="SVGID_4_" gradientUnits="userSpaceOnUse" x1="316.5928" y1="-294.7573" x2="316.5928" y2="-409.7573" gradientTransform="matrix(0.75 0 0 -0.75 -166.5266 -186.0251)">
		<stop  offset="0" style="stop-color:#929488"/>
		<stop  offset="0.15" style="stop-color:#CACDBE"/>
		<stop  offset="0.25" style="stop-color:#E2E3DC"/>
		<stop  offset="0.52" style="stop-color:#AEB1A2"/>
		<stop  offset="0.69" style="stop-color:#9B9D90"/>
		<stop  offset="0.8" style="stop-color:#929488"/>
		<stop  offset="0.92" style="stop-color:#898B80"/>
		<stop  offset="1" style="stop-color:#9EA194"/>
	</linearGradient>
	<path fill="url(#SVGID_4_)" d="M38.293,35.043h65.25v86.25h-65.25V35.043z"/>
	<path fill="#C9CFC3" d="M49.02,19.117h38.25v24H49.02V19.117z"/>
	
		<linearGradient id="SVGID_5_" gradientUnits="userSpaceOnUse" x1="279.5918" y1="-294.7603" x2="279.5918" y2="-326.7603" gradientTransform="matrix(0.75 0 0 -0.75 -124.7019 -155.1208)">
		<stop  offset="0" style="stop-color:#999DA8"/>
		<stop  offset="0.23" style="stop-color:#B9BDC8"/>
		<stop  offset="0.56" style="stop-color:#9FA5B3"/>
		<stop  offset="0.92" style="stop-color:#797E89"/>
		<stop  offset="1" style="stop-color:#808693"/>
	</linearGradient>
	<path fill="url(#SVGID_5_)" d="M80.117,65.949h9.75v24h-9.75V65.949z"/>
	
		<linearGradient id="SVGID_6_" gradientUnits="userSpaceOnUse" x1="283.5928" y1="-294.7603" x2="283.5928" y2="-358.7603" gradientTransform="matrix(0.75 0 0 -0.75 -204.8274 -166.1599)">
		<stop  offset="0" style="stop-color:#949990"/>
		<stop  offset="0.15" style="stop-color:#CDD2C7"/>
		<stop  offset="0.25" style="stop-color:#E3E6E1"/>
		<stop  offset="0.52" style="stop-color:#B0B5AA"/>
		<stop  offset="0.69" style="stop-color:#9CA197"/>
		<stop  offset="0.8" style="stop-color:#93988F"/>
		<stop  offset="0.92" style="stop-color:#8B8F86"/>
		<stop  offset="1" style="stop-color:#A0A59B"/>
	</linearGradient>
	<path fill="url(#SVGID_6_)" d="M15.742,54.91h-15.75v48h15.75V54.91z"/>
	
		<linearGradient id="SVGID_7_" gradientUnits="userSpaceOnUse" x1="278.7539" y1="-294.7593" x2="278.7539" y2="-413.7593" gradientTransform="matrix(0.75 0 0 -0.75 -166.5188 -187.531)">
		<stop  offset="0" style="stop-color:#888B7E"/>
		<stop  offset="0.15" style="stop-color:#BDC2B2"/>
		<stop  offset="0.52" style="stop-color:#A1A596"/>
		<stop  offset="0.69" style="stop-color:#8F9385"/>
		<stop  offset="0.8" style="stop-color:#868A7D"/>
		<stop  offset="0.92" style="stop-color:#7F8276"/>
		<stop  offset="1" style="stop-color:#929688"/>
	</linearGradient>
	<path fill="url(#SVGID_7_)" d="M39.801,33.539h6c0.75,0,1.012,0.637,1.012,1.445l-0.262,86.305c0,0.75-0.34,1.324-1.082,1.324
		l-5.668,0.176c-0.75,0-1.52-0.844-1.52-1.648l0.02-86.102c0-0.75,0.578-1.5,1.32-1.5H39.801z"/>
	
		<linearGradient id="SVGID_8_" gradientUnits="userSpaceOnUse" x1="278.5928" y1="-294.7622" x2="278.5928" y2="-325.7622" gradientTransform="matrix(0.75 0 0 -0.75 -166.574 -154.5007)">
		<stop  offset="0" style="stop-color:#4E5456"/>
		<stop  offset="0.15" style="stop-color:#7C8285"/>
		<stop  offset="0.52" style="stop-color:#5E6567"/>
		<stop  offset="0.69" style="stop-color:#53595B"/>
		<stop  offset="0.8" style="stop-color:#4D5356"/>
		<stop  offset="0.92" style="stop-color:#494E50"/>
		<stop  offset="1" style="stop-color:#555B5D"/>
	</linearGradient>
	<path fill="url(#SVGID_8_)" d="M38.246,66.57h8.25v23.25h-8.25V66.57z"/>
	
		<linearGradient id="SVGID_9_" gradientUnits="userSpaceOnUse" x1="278.7549" y1="-294.7593" x2="278.7549" y2="-413.7593" gradientTransform="matrix(0.75 0 0 -0.75 -109.8577 -187.531)">
		<stop  offset="0" style="stop-color:#888B7E"/>
		<stop  offset="0.15" style="stop-color:#BDC2B2"/>
		<stop  offset="0.52" style="stop-color:#A1A596"/>
		<stop  offset="0.69" style="stop-color:#8F9385"/>
		<stop  offset="0.8" style="stop-color:#868A7D"/>
		<stop  offset="0.92" style="stop-color:#7F8276"/>
		<stop  offset="1" style="stop-color:#929688"/>
	</linearGradient>
	<path fill="url(#SVGID_9_)" d="M96.461,33.539h6c0.75,0,1.016,0.637,1.016,1.445l-0.266,86.305c0,0.75-0.34,1.324-1.078,1.324
		l-5.672,0.176c-0.75,0-1.52-0.844-1.52-1.648l0.02-86.102c0-0.75,0.582-1.5,1.32-1.5H96.461z"/>
	
		<linearGradient id="SVGID_10_" gradientUnits="userSpaceOnUse" x1="278.5918" y1="-294.7603" x2="278.5918" y2="-325.7603" gradientTransform="matrix(0.75 0 0 -0.75 -109.866 -154.4998)">
		<stop  offset="0" style="stop-color:#4E5456"/>
		<stop  offset="0.15" style="stop-color:#7C8285"/>
		<stop  offset="0.52" style="stop-color:#5E6567"/>
		<stop  offset="0.69" style="stop-color:#53595B"/>
		<stop  offset="0.8" style="stop-color:#4D5356"/>
		<stop  offset="0.92" style="stop-color:#494E50"/>
		<stop  offset="1" style="stop-color:#555B5D"/>
	</linearGradient>
	<path fill="url(#SVGID_10_)" d="M94.953,66.57h8.25v23.25h-8.25V66.57z"/>
	<path fill="#DADECF" d="M49.02,19.117h38.25v3.75H49.02V19.117z"/>
</g>
</svg>
