<?xml version="1.0" encoding="utf-8"?>
<!-- Generator: Adobe Illustrator 16.0.0, SVG Export Plug-In . SVG Version: 6.00 Build 0)  -->
<!DOCTYPE svg PUBLIC "-//W3C//DTD SVG 1.1//EN" "http://www.w3.org/Graphics/SVG/1.1/DTD/svg11.dtd">
<svg preserveAspectRatio="none" version="1.1" id="图层_1" xmlns="http://www.w3.org/2000/svg" xmlns:xlink="http://www.w3.org/1999/xlink" x="0px" y="0px"
	 width="132.25px" height="128.77px" viewBox="4.746 6.48 132.25 128.77" enable-background="new 4.746 6.48 132.25 128.77"
	 xml:space="preserve">
<g id="surface286">
	<path fill="#3D484C" stroke="#3D484C" stroke-width="0.25" stroke-linejoin="bevel" stroke-miterlimit="10" d="M6.371,6.605h129
		c0.75,0,1.492,0.805,1.492,1.797l0.008,124.953c0,0.75-0.824,1.77-1.828,1.77l-128.672-0.27c-0.75,0-1.5-0.535-1.5-1.523V8.105
		c0-0.75,0.813-1.5,1.816-1.5H6.371z"/>
	<path fill="#D4D6D1" stroke="#CDCFCC" stroke-width="0.25" stroke-linejoin="bevel" stroke-miterlimit="10" d="M13.25,52.066H60.5
		v66H13.25V52.066z"/>
	<path fill="#D4D6D1" stroke="#CDCFCC" stroke-width="0.25" stroke-linejoin="bevel" stroke-miterlimit="10" d="M68.313,15.105
		h60.75v102.75h-60.75V15.105z"/>
	<path fill="#888889" stroke="#888889" stroke-width="0.25" stroke-linejoin="bevel" stroke-miterlimit="10" d="M116.688,19.121h3
		c0.75,0,0.785,0.195,0.785,0.441l-0.035,11.559c0,0-0.168,0.195-0.418,0.195l-3.332-0.195c-0.75,0-0.758-0.008-0.758-0.254
		l0.008-10.996c0-0.75,0.195-0.75,0.445-0.75H116.688z"/>
	<path fill="#CDCECE" stroke="#CDCECE" stroke-width="0.25" stroke-linejoin="bevel" stroke-miterlimit="10" d="M116.48,19.984h3.75
		v10.5h-3.75V19.984z"/>
	<path stroke="#000000" stroke-width="0.25" stroke-linejoin="bevel" stroke-miterlimit="10" d="M116.934,20.496h2.25v9.75h-2.25
		V20.496z"/>
	<path fill="#595757" stroke="#595757" stroke-width="0.25" stroke-linejoin="bevel" stroke-miterlimit="10" d="M116.934,26.234
		h2.25v3.75h-2.25V26.234z"/>
	<path stroke="#000000" stroke-width="0.25" stroke-linejoin="bevel" stroke-miterlimit="10" d="M116.934,28.746h2.25v1.5h-2.25
		V28.746z"/>
	<path fill="#888889" stroke="#888889" stroke-width="0.25" stroke-linejoin="bevel" stroke-miterlimit="10" d="M78.383,19.121h3
		c0.75,0,0.785,0.195,0.785,0.441l-0.035,11.559c0,0-0.168,0.195-0.418,0.195l-3.332-0.195c-0.75,0-0.758-0.008-0.758-0.254
		l0.008-10.996c0-0.75,0.199-0.75,0.449-0.75H78.383z"/>
	<path fill="#CDCECE" stroke="#CDCECE" stroke-width="0.25" stroke-linejoin="bevel" stroke-miterlimit="10" d="M78.176,19.984h3.75
		v10.5h-3.75V19.984z"/>
	<path stroke="#000000" stroke-width="0.25" stroke-linejoin="bevel" stroke-miterlimit="10" d="M78.633,20.496h2.25v9.75h-2.25
		V20.496z"/>
	<path fill="#595757" stroke="#595757" stroke-width="0.25" stroke-linejoin="bevel" stroke-miterlimit="10" d="M78.633,26.234h2.25
		v3.75h-2.25V26.234z"/>
	<path stroke="#000000" stroke-width="0.25" stroke-linejoin="bevel" stroke-miterlimit="10" d="M78.633,28.746h2.25v1.5h-2.25
		V28.746z"/>
	<path fill="#888889" stroke="#888889" stroke-width="0.25" stroke-linejoin="bevel" stroke-miterlimit="10" d="M49.043,55.445h3
		c0.75,0,0.785,0.195,0.785,0.445l-0.035,11.555c0,0-0.168,0.195-0.418,0.195l-3.332-0.195c-0.75,0-0.758-0.004-0.758-0.254
		l0.008-10.996c0-0.75,0.195-0.75,0.445-0.75H49.043z"/>
	<path fill="#CDCECE" stroke="#CDCECE" stroke-width="0.25" stroke-linejoin="bevel" stroke-miterlimit="10" d="M48.836,56.313h3.75
		v10.5h-3.75V56.313z"/>
	<path stroke="#000000" stroke-width="0.25" stroke-linejoin="bevel" stroke-miterlimit="10" d="M49.289,56.82h2.25v9.75h-2.25
		V56.82z"/>
	<path fill="#595757" stroke="#595757" stroke-width="0.25" stroke-linejoin="bevel" stroke-miterlimit="10" d="M49.289,62.563h2.25
		v3.75h-2.25V62.563z"/>
	<path stroke="#000000" stroke-width="0.25" stroke-linejoin="bevel" stroke-miterlimit="10" d="M49.289,65.074h2.25v1.5h-2.25
		V65.074z"/>
	<path fill="none" stroke="#000000" stroke-linejoin="bevel" stroke-miterlimit="10" d="M4.871,126.047h132"/>
	<path fill="#D4D6D1" stroke="#CDCFCC" stroke-width="0.25" stroke-linejoin="bevel" stroke-miterlimit="10" d="M13.25,15.105H60.5
		v31.5H13.25V15.105z"/>
	<path fill="#1E2426" stroke="#1E2426" stroke-linejoin="bevel" stroke-miterlimit="10" d="M25.422,128.102h23.25v3.75h-23.25
		V128.102z"/>
	<path fill="#1E2426" stroke="#1E2426" stroke-linejoin="bevel" stroke-miterlimit="10" d="M87.105,128.102h23.25v3.75h-23.25
		V128.102z"/>
	<path fill="#888889" stroke="#888889" stroke-width="0.25" stroke-linejoin="bevel" stroke-miterlimit="10" d="M21.617,55.363h3
		c0.75,0,0.789,0.191,0.789,0.441l-0.039,11.559c0,0-0.164,0.195-0.418,0.195l-3.332-0.195c-0.75,0-0.754-0.008-0.754-0.258
		l0.004-10.992c0-0.75,0.199-0.75,0.449-0.75H21.617z"/>
	<path fill="#CDCECE" stroke="#CDCECE" stroke-width="0.25" stroke-linejoin="bevel" stroke-miterlimit="10" d="M21.414,56.227h3.75
		v10.5h-3.75V56.227z"/>
	<path stroke="#000000" stroke-width="0.25" stroke-linejoin="bevel" stroke-miterlimit="10" d="M21.867,56.734h2.25v9.75h-2.25
		V56.734z"/>
	<path fill="#595757" stroke="#595757" stroke-width="0.25" stroke-linejoin="bevel" stroke-miterlimit="10" d="M21.867,62.477h2.25
		v3.75h-2.25V62.477z"/>
	<path stroke="#000000" stroke-width="0.25" stroke-linejoin="bevel" stroke-miterlimit="10" d="M21.867,64.988h2.25v1.5h-2.25
		V64.988z"/>
	<path fill="#888889" stroke="#888889" stroke-width="0.25" stroke-linejoin="bevel" stroke-miterlimit="10" d="M54.543,35.492v-4.5
		h3v4.5H54.543z"/>
	<path fill="none" stroke="#595757" stroke-width="0.25" stroke-linejoin="bevel" stroke-miterlimit="10" d="M54.711,35.137v-3.75
		V35.137z"/>
	<path fill="#717070" stroke="#717070" stroke-width="0.25" stroke-linejoin="bevel" stroke-miterlimit="10" d="M54.711,35.137
		l3.75,0.75L54.711,35.137z"/>
	<path fill="#BCBDB9" stroke="#BCBDB9" stroke-width="0.25" stroke-linejoin="bevel" stroke-miterlimit="10" d="M57.746,35.137
		l0.75-4.5L57.746,35.137z"/>
	<path fill="#9E9F9F" stroke="#9E9F9F" stroke-width="0.25" stroke-linejoin="bevel" stroke-miterlimit="10" d="M57.711,31.277
		l-3.75-0.75L57.711,31.277z"/>
	<path fill="#EEEEEE" stroke="#EEEEEE" stroke-width="0.25" stroke-linejoin="bevel" stroke-miterlimit="10" d="M17.16,19.961h35.25
		v21.75H17.16V19.961z"/>
	<path fill="#BABDB5" stroke="#BABDB5" stroke-width="0.25" stroke-linejoin="bevel" stroke-miterlimit="10" d="M20.594,23.566h28.5
		v15h-28.5V23.566z"/>
	<path fill="#9FA09A" stroke="#9FA09A" stroke-width="0.25" stroke-linejoin="bevel" stroke-miterlimit="10" d="M20.93,23.914h27.75
		l3-3H17.93L20.93,23.914z"/>
	<path fill="#B0B3AC" stroke="#B0B3AC" stroke-width="0.25" stroke-linejoin="bevel" stroke-miterlimit="10" d="M20.93,23.914l-3-3
		v20.25l3-3V23.914z"/>
	<path fill="#979993" stroke="#979993" stroke-width="0.25" stroke-linejoin="bevel" stroke-miterlimit="10" d="M20.93,38.223l-3,3
		h33.75l-3-3H20.93z"/>
	<path fill="#767676" stroke="#767676" stroke-width="0.25" stroke-linejoin="bevel" stroke-miterlimit="10" d="M48.82,38.164l3,3
		v-20.25l-3,3V38.164z"/>
	<path fill="#FACD94" stroke="#FACD94" stroke-width="0.25" stroke-linejoin="bevel" stroke-miterlimit="10" d="M22.605,25.66h24
		v10.5h-24V25.66z"/>
	<path fill="#FDE9D0" stroke="#FDE9D0" stroke-width="0.25" stroke-linejoin="bevel" stroke-miterlimit="10" d="M23.281,26.332h22.5
		v9h-22.5V26.332z"/>
	<path stroke="#000000" stroke-width="0.25" stroke-linejoin="bevel" stroke-miterlimit="10" d="M29.18,26.992h10.5v5.25h-10.5
		V26.992z"/>
	<path fill="#DFF0E6" d="M29.996,27.289h9v4.5h-9V27.289z"/>
	<path fill="#930512" stroke="#930512" stroke-width="0.25" stroke-linejoin="bevel" stroke-miterlimit="10" d="M41.988,29.473
		c0-0.75,0.848-1.508,1.895-1.508c1.105,0.008,1.891,0.836,1.891,1.867c-0.035,1.141-0.848,1.871-1.891,1.871
		c-1.145,0.02-1.895-0.84-1.895-1.871V29.473z"/>
	<path fill="#B60717" stroke="#B60717" stroke-linejoin="bevel" stroke-miterlimit="10" d="M42.508,29.984
		c0-0.75,0.613-1.508,1.375-1.508c0.875,0.008,1.375,0.605,1.375,1.355c0.25,0.902-0.617,1.359-1.375,1.359
		c-0.625,0.293-1.375-0.609-1.375-1.359V29.984z"/>
	<path fill="#FFFFFF" fill-opacity="0.1725" d="M42.738,31.418c-1.063-1.059,0.656-0.605,1.391-1.344
		c0.73-0.777,0.27-2.313,1.004-1.578c0.789,0.801,0.734,1.926,0.004,2.656c-0.809,0.797-1.93,0.738-2.664,0.004L42.738,31.418z"/>
	<path fill="none" stroke="#FACD94" stroke-linejoin="bevel" stroke-miterlimit="10" d="M23.16,26.281c0,0,1.445,5.711,7.297,6.238
		c6.203,0.512,11.594,0.98,14.039,3.039"/>
	<path fill="#FFFFFF" fill-opacity="0.1137" d="M6.371,6.582h129c0.75,0,1.492,0.805,1.492,1.797l0.008,121.203l-132-109.5v-12
		c0-0.75,0.813-1.5,1.816-1.5H6.371z"/>
</g>
</svg>
