<?xml version="1.0" encoding="utf-8"?>
<!-- Generator: Adobe Illustrator 16.0.0, SVG Export Plug-In . SVG Version: 6.00 Build 0)  -->
<!DOCTYPE svg PUBLIC "-//W3C//DTD SVG 1.1//EN" "http://www.w3.org/Graphics/SVG/1.1/DTD/svg11.dtd">
<svg preserveAspectRatio="none" version="1.1" id="图层_1" xmlns="http://www.w3.org/2000/svg" xmlns:xlink="http://www.w3.org/1999/xlink" x="0px" y="0px"
	 width="141.758px" height="80.199px" viewBox="-0.023 30.762 141.758 80.199"
	 enable-background="new -0.023 30.762 141.758 80.199" xml:space="preserve">
<g id="surface316">
	
		<linearGradient id="SVGID_1_" gradientUnits="userSpaceOnUse" x1="273.0928" y1="-303.2568" x2="278.0928" y2="-303.2568" gradientTransform="matrix(0.75 0 0 -0.75 -199.6516 -187.947)">
		<stop  offset="0" style="stop-color:#1C85A1"/>
		<stop  offset="0.09" style="stop-color:#1D87A3"/>
		<stop  offset="0.36" style="stop-color:#85C0D7"/>
		<stop  offset="0.56" style="stop-color:#2196B5"/>
		<stop  offset="0.83" style="stop-color:#187891"/>
		<stop  offset="1" style="stop-color:#0E5567"/>
	</linearGradient>
	<path fill="url(#SVGID_1_)" d="M5.168,45.871h3.75v-12.75h-3.75V45.871z"/>
	
		<linearGradient id="SVGID_2_" gradientUnits="userSpaceOnUse" x1="279.5908" y1="-294.7603" x2="279.5908" y2="-373.7603" gradientTransform="matrix(0.75 0 0 -0.75 -95.2366 -172.3943)">
		<stop  offset="0" style="stop-color:#1C85A1"/>
		<stop  offset="0.09" style="stop-color:#1D87A3"/>
		<stop  offset="0.36" style="stop-color:#85C0D7"/>
		<stop  offset="0.56" style="stop-color:#2196B5"/>
		<stop  offset="0.83" style="stop-color:#187891"/>
		<stop  offset="1" style="stop-color:#0E5567"/>
	</linearGradient>
	<path fill="url(#SVGID_2_)" d="M109.582,48.676l9.75,10.5v38.25l-9.75,10.5V48.676z"/>
	
		<linearGradient id="SVGID_3_" gradientUnits="userSpaceOnUse" x1="346.0908" y1="-294.7603" x2="346.0908" y2="-373.7603" gradientTransform="matrix(0.75 0 0 -0.75 -204.842 -172.3943)">
		<stop  offset="0" style="stop-color:#1C85A1"/>
		<stop  offset="0.09" style="stop-color:#1D87A3"/>
		<stop  offset="0.36" style="stop-color:#85C0D7"/>
		<stop  offset="0.56" style="stop-color:#2196B5"/>
		<stop  offset="0.83" style="stop-color:#187891"/>
		<stop  offset="1" style="stop-color:#0E5567"/>
	</linearGradient>
	<path fill="url(#SVGID_3_)" d="M2.977,48.676h106.5v59.25H2.977c0,0-3-6.145-3-29.789c0-23.461,3.176-29.461,3.176-29.461H2.977z"
		/>
	<path fill="none" stroke="#146D83" stroke-linejoin="bevel" stroke-miterlimit="10" d="M3.152,48.676l-0.008,59.25"/>
	
		<linearGradient id="SVGID_4_" gradientUnits="userSpaceOnUse" x1="344.5908" y1="-294.7534" x2="344.5908" y2="-302.0347" gradientTransform="matrix(0.75 0 0 -0.75 -202.0452 -175.0105)">
		<stop  offset="0" style="stop-color:#1C85A1"/>
		<stop  offset="0.09" style="stop-color:#1D87A3"/>
		<stop  offset="0.36" style="stop-color:#85C0D7"/>
		<stop  offset="0.56" style="stop-color:#2196B5"/>
		<stop  offset="0.83" style="stop-color:#187891"/>
		<stop  offset="1" style="stop-color:#0E5567"/>
	</linearGradient>
	<path fill="url(#SVGID_4_)" d="M3.523,46.059h105.75c0,0,0.648,0.488,0.648,1.098l0.102,3.402c0,0.75-0.5,0.957-0.984,0.957
		L3.523,51.309c0,0-0.75-0.285-0.75-0.895v-3.605c0,0,0.383-0.754,0.867-0.754L3.523,46.059z"/>
	
		<linearGradient id="SVGID_5_" gradientUnits="userSpaceOnUse" x1="344.5908" y1="-294.7505" x2="344.5908" y2="-302.0366" gradientTransform="matrix(0.75 0 0 -0.75 -202.0452 -160.3279)">
		<stop  offset="0" style="stop-color:#1C85A1"/>
		<stop  offset="0.09" style="stop-color:#1D87A3"/>
		<stop  offset="0.36" style="stop-color:#85C0D7"/>
		<stop  offset="0.56" style="stop-color:#2196B5"/>
		<stop  offset="0.83" style="stop-color:#187891"/>
		<stop  offset="1" style="stop-color:#0E5567"/>
	</linearGradient>
	<path fill="url(#SVGID_5_)" d="M3.523,60.742h105.75c0,0,0.648,0.488,0.648,1.094l0.102,3.406c0,0.75-0.5,0.957-0.984,0.957
		L3.523,65.992c0,0-0.75-0.285-0.75-0.895v-3.605c0,0,0.383-0.758,0.867-0.758L3.523,60.742z"/>
	
		<linearGradient id="SVGID_6_" gradientUnits="userSpaceOnUse" x1="344.5908" y1="-294.7505" x2="344.5908" y2="-302.0366" gradientTransform="matrix(0.75 0 0 -0.75 -202.0452 -145.5388)">
		<stop  offset="0" style="stop-color:#1C85A1"/>
		<stop  offset="0.09" style="stop-color:#1D87A3"/>
		<stop  offset="0.36" style="stop-color:#85C0D7"/>
		<stop  offset="0.56" style="stop-color:#2196B5"/>
		<stop  offset="0.83" style="stop-color:#187891"/>
		<stop  offset="1" style="stop-color:#0E5567"/>
	</linearGradient>
	<path fill="url(#SVGID_6_)" d="M3.523,75.531h105.75c0,0,0.648,0.488,0.648,1.094l0.102,3.406c0,0.75-0.5,0.957-0.984,0.957
		L3.523,80.781c0,0-0.75-0.285-0.75-0.895v-3.605c0,0,0.383-0.758,0.867-0.758L3.523,75.531z"/>
	
		<linearGradient id="SVGID_7_" gradientUnits="userSpaceOnUse" x1="344.5908" y1="-294.7534" x2="344.5908" y2="-302.0347" gradientTransform="matrix(0.75 0 0 -0.75 -202.0452 -130.8259)">
		<stop  offset="0" style="stop-color:#1C85A1"/>
		<stop  offset="0.09" style="stop-color:#1D87A3"/>
		<stop  offset="0.36" style="stop-color:#85C0D7"/>
		<stop  offset="0.56" style="stop-color:#2196B5"/>
		<stop  offset="0.83" style="stop-color:#187891"/>
		<stop  offset="1" style="stop-color:#0E5567"/>
	</linearGradient>
	<path fill="url(#SVGID_7_)" d="M3.523,90.242h105.75c0,0,0.648,0.488,0.648,1.098l0.102,3.402c0,0.75-0.5,0.957-0.984,0.957
		L3.523,95.492c0,0-0.75-0.285-0.75-0.891v-3.609c0,0,0.383-0.754,0.867-0.754L3.523,90.242z"/>
	
		<linearGradient id="SVGID_8_" gradientUnits="userSpaceOnUse" x1="344.5908" y1="-294.7495" x2="344.5908" y2="-302.0366" gradientTransform="matrix(0.75 0 0 -0.75 -202.0452 -116.074)">
		<stop  offset="0" style="stop-color:#1C85A1"/>
		<stop  offset="0.09" style="stop-color:#1D87A3"/>
		<stop  offset="0.36" style="stop-color:#85C0D7"/>
		<stop  offset="0.56" style="stop-color:#2196B5"/>
		<stop  offset="0.83" style="stop-color:#187891"/>
		<stop  offset="1" style="stop-color:#0E5567"/>
	</linearGradient>
	<path fill="url(#SVGID_8_)" d="M3.523,104.996h105.75c0,0,0.648,0.484,0.648,1.094l0.102,3.406c0,0.75-0.5,0.957-0.984,0.957
		L3.523,110.246c0,0-0.75-0.285-0.75-0.895v-3.605c0,0,0.383-0.758,0.867-0.758L3.523,104.996z"/>
	
		<linearGradient id="SVGID_9_" gradientUnits="userSpaceOnUse" x1="274.0967" y1="-294.7583" x2="274.0967" y2="-366.4883" gradientTransform="matrix(0.75 0 0 -0.75 -85.8254 -169.4626)">
		<stop  offset="0" style="stop-color:#858D89"/>
		<stop  offset="0.15" style="stop-color:#B4BEBA"/>
		<stop  offset="0.32" style="stop-color:#EBEDEC"/>
		<stop  offset="0.55" style="stop-color:#A0AAA6"/>
		<stop  offset="0.77" style="stop-color:#666C69"/>
		<stop  offset="1" style="stop-color:#A4AFAA"/>
	</linearGradient>
	<path fill="url(#SVGID_9_)" d="M119.742,51.605c0.75,0,0.762,0.438,0.762,0.977l-0.012,51.523c0,0.75-0.324,1.242-0.742,1.242
		c-0.758,0.258-0.758-0.438-0.758-0.977V52.355c0,0,0.34-0.75,0.758-0.75H119.742z"/>
	
		<linearGradient id="SVGID_10_" gradientUnits="userSpaceOnUse" x1="274.1006" y1="-294.7583" x2="274.1006" y2="-366.4883" gradientTransform="matrix(0.75 0 0 -0.75 -81.6799 -169.4626)">
		<stop  offset="0" style="stop-color:#858D89"/>
		<stop  offset="0.15" style="stop-color:#B4BEBA"/>
		<stop  offset="0.32" style="stop-color:#EBEDEC"/>
		<stop  offset="0.55" style="stop-color:#A0AAA6"/>
		<stop  offset="0.77" style="stop-color:#666C69"/>
		<stop  offset="1" style="stop-color:#A4AFAA"/>
	</linearGradient>
	<path fill="url(#SVGID_10_)" d="M123.891,51.605c0.75,0,0.762,0.438,0.762,0.977l-0.012,51.523c0,0.75-0.328,1.242-0.746,1.242
		c-0.754,0.258-0.754-0.438-0.754-0.977V52.355c0,0,0.336-0.75,0.754-0.75H123.891z"/>
	<path fill="#616A67" d="M120.504,59.422h2.25v38.25h-2.25V59.422z"/>
	
		<linearGradient id="SVGID_11_" gradientUnits="userSpaceOnUse" x1="273.0928" y1="-321.7598" x2="278.0928" y2="-321.7598" gradientTransform="matrix(0.75 0 0 -0.75 -69.8899 -188.2732)">
		<stop  offset="0" style="stop-color:#1C85A1"/>
		<stop  offset="0.09" style="stop-color:#1D87A3"/>
		<stop  offset="0.36" style="stop-color:#85C0D7"/>
		<stop  offset="0.56" style="stop-color:#2196B5"/>
		<stop  offset="0.83" style="stop-color:#187891"/>
		<stop  offset="1" style="stop-color:#0E5567"/>
	</linearGradient>
	<path fill="url(#SVGID_11_)" d="M134.93,73.297h3.75v-40.5h-3.75V73.297z"/>
	
		<linearGradient id="SVGID_12_" gradientUnits="userSpaceOnUse" x1="278.0928" y1="-294.7583" x2="278.0928" y2="-312.7583" gradientTransform="matrix(0.75 0 0 -0.75 -72.0422 -148.0886)">
		<stop  offset="0" style="stop-color:#858D89"/>
		<stop  offset="0.15" style="stop-color:#B4BEBA"/>
		<stop  offset="0.32" style="stop-color:#EBEDEC"/>
		<stop  offset="0.55" style="stop-color:#A0AAA6"/>
		<stop  offset="0.77" style="stop-color:#666C69"/>
		<stop  offset="1" style="stop-color:#A4AFAA"/>
	</linearGradient>
	<path fill="url(#SVGID_12_)" d="M132.777,72.98h7.5v13.5h-7.5V72.98z"/>
	
		<linearGradient id="SVGID_13_" gradientUnits="userSpaceOnUse" x1="287.0889" y1="-294.7573" x2="287.0889" y2="-300.7573" gradientTransform="matrix(0.75 0 0 -0.75 -93.8757 -187.865)">
		<stop  offset="0" style="stop-color:#1C85A1"/>
		<stop  offset="0.09" style="stop-color:#1D87A3"/>
		<stop  offset="0.36" style="stop-color:#85C0D7"/>
		<stop  offset="0.56" style="stop-color:#2196B5"/>
		<stop  offset="0.83" style="stop-color:#187891"/>
		<stop  offset="1" style="stop-color:#0E5567"/>
	</linearGradient>
	<path fill="url(#SVGID_13_)" d="M110.941,37.703h21v-4.5h-21V37.703z"/>
	
		<linearGradient id="SVGID_14_" gradientUnits="userSpaceOnUse" x1="346.0908" y1="-294.7573" x2="346.0908" y2="-303.7573" gradientTransform="matrix(0.75 0 0 -0.75 -202.8767 -188.9236)">
		<stop  offset="0" style="stop-color:#1C85A1"/>
		<stop  offset="0.09" style="stop-color:#1D87A3"/>
		<stop  offset="0.36" style="stop-color:#85C0D7"/>
		<stop  offset="0.56" style="stop-color:#2196B5"/>
		<stop  offset="0.83" style="stop-color:#187891"/>
		<stop  offset="1" style="stop-color:#0E5567"/>
	</linearGradient>
	<path fill="url(#SVGID_14_)" d="M1.941,38.895h109.5v-6.75H1.941V38.895z"/>
	
		<linearGradient id="SVGID_15_" gradientUnits="userSpaceOnUse" x1="280.1465" y1="-294.7593" x2="280.1465" y2="-307.1343" gradientTransform="matrix(0.75 0 0 -0.75 -73.6687 -190.3083)">
		<stop  offset="0" style="stop-color:#1C85A1"/>
		<stop  offset="0.09" style="stop-color:#1D87A3"/>
		<stop  offset="0.36" style="stop-color:#85C0D7"/>
		<stop  offset="0.56" style="stop-color:#2196B5"/>
		<stop  offset="0.83" style="stop-color:#187891"/>
		<stop  offset="1" style="stop-color:#0E5567"/>
	</linearGradient>
	<path fill="url(#SVGID_15_)" d="M132.648,30.762h7.5c0.75,0,1.586,0.867,1.586,1.949l-0.086,5.551c0,0.75-0.594,1.781-1.43,1.781
		l-7.57-0.281c-0.75,0-1.5-0.598-1.5-1.676v-5.074c0-1.5,0.68-2.25,1.512-2.25H132.648z"/>
	
		<linearGradient id="SVGID_16_" gradientUnits="userSpaceOnUse" x1="278.5928" y1="-294.7583" x2="278.5928" y2="-329.7583" gradientTransform="matrix(0.75 0 0 -0.75 -80.1682 -154.4392)">
		<stop  offset="0" style="stop-color:#858D89"/>
		<stop  offset="0.15" style="stop-color:#B4BEBA"/>
		<stop  offset="0.32" style="stop-color:#EBEDEC"/>
		<stop  offset="0.55" style="stop-color:#A0AAA6"/>
		<stop  offset="0.77" style="stop-color:#666C69"/>
		<stop  offset="1" style="stop-color:#A4AFAA"/>
	</linearGradient>
	<path fill="url(#SVGID_16_)" d="M124.652,66.629h8.25v26.25h-8.25V66.629z"/>
	
		<linearGradient id="SVGID_17_" gradientUnits="userSpaceOnUse" x1="303.5908" y1="-294.7603" x2="303.5908" y2="-380.7603" gradientTransform="matrix(0.75 0 0 -0.75 -171.4944 -174.9841)">
		<stop  offset="0" style="stop-color:#1C85A1"/>
		<stop  offset="0.09" style="stop-color:#1D87A3"/>
		<stop  offset="0.36" style="stop-color:#85C0D7"/>
		<stop  offset="0.56" style="stop-color:#2196B5"/>
		<stop  offset="0.83" style="stop-color:#187891"/>
		<stop  offset="1" style="stop-color:#0E5567"/>
	</linearGradient>
	<path fill="url(#SVGID_17_)" d="M33.324,46.086h45.75v64.5h-45.75V46.086z"/>
	
		<linearGradient id="SVGID_18_" gradientUnits="userSpaceOnUse" x1="273.0732" y1="-338.3335" x2="276.2021" y2="-338.3335" gradientTransform="matrix(0.75 0 0 -0.75 -171.4802 -175.4685)">
		<stop  offset="0" style="stop-color:#1C85A1"/>
		<stop  offset="0.09" style="stop-color:#1D87A3"/>
		<stop  offset="0.36" style="stop-color:#85C0D7"/>
		<stop  offset="0.56" style="stop-color:#2196B5"/>
		<stop  offset="0.83" style="stop-color:#187891"/>
		<stop  offset="1" style="stop-color:#0E5567"/>
	</linearGradient>
	<path fill="url(#SVGID_18_)" d="M34.84,45.602c0,0,0.832,0.512,0.832,1.148l-0.082,63.352c0,0-0.445,0.859-1.09,0.859
		c-0.41-0.109-1.176-0.52-1.176-1.16l0.016-62.699c0-0.75,0.512-1.5,1.16-1.5H34.84z"/>
	
		<linearGradient id="SVGID_19_" gradientUnits="userSpaceOnUse" x1="273.0723" y1="-338.3335" x2="276.2021" y2="-338.3335" gradientTransform="matrix(0.75 0 0 -0.75 -127.7805 -175.4685)">
		<stop  offset="0" style="stop-color:#1C85A1"/>
		<stop  offset="0.09" style="stop-color:#1D87A3"/>
		<stop  offset="0.36" style="stop-color:#85C0D7"/>
		<stop  offset="0.56" style="stop-color:#2196B5"/>
		<stop  offset="0.83" style="stop-color:#187891"/>
		<stop  offset="1" style="stop-color:#0E5567"/>
	</linearGradient>
	<path fill="url(#SVGID_19_)" d="M78.539,45.602c0,0,0.832,0.512,0.832,1.148l-0.082,63.352c0,0-0.441,0.859-1.09,0.859
		c-0.41-0.109-1.176-0.52-1.176-1.16l0.016-62.699c0-0.75,0.512-1.5,1.16-1.5H78.539z"/>
	
		<linearGradient id="SVGID_20_" gradientUnits="userSpaceOnUse" x1="273.0732" y1="-338.3335" x2="276.2041" y2="-338.3335" gradientTransform="matrix(0.75 0 0 -0.75 -160.5554 -175.4685)">
		<stop  offset="0" style="stop-color:#1C85A1"/>
		<stop  offset="0.09" style="stop-color:#1D87A3"/>
		<stop  offset="0.36" style="stop-color:#85C0D7"/>
		<stop  offset="0.56" style="stop-color:#2196B5"/>
		<stop  offset="0.83" style="stop-color:#187891"/>
		<stop  offset="1" style="stop-color:#0E5567"/>
	</linearGradient>
	<path fill="url(#SVGID_20_)" d="M45.762,45.602c0,0,0.836,0.512,0.836,1.148l-0.086,63.352c0,0-0.441,0.859-1.09,0.859
		c-0.41-0.109-1.172-0.52-1.172-1.16l0.012-62.699c0-0.75,0.512-1.5,1.16-1.5H45.762z"/>
	
		<linearGradient id="SVGID_21_" gradientUnits="userSpaceOnUse" x1="273.0713" y1="-338.3335" x2="276.2021" y2="-338.3335" gradientTransform="matrix(0.75 0 0 -0.75 -138.7058 -175.4685)">
		<stop  offset="0" style="stop-color:#1C85A1"/>
		<stop  offset="0.09" style="stop-color:#1D87A3"/>
		<stop  offset="0.36" style="stop-color:#85C0D7"/>
		<stop  offset="0.56" style="stop-color:#2196B5"/>
		<stop  offset="0.83" style="stop-color:#187891"/>
		<stop  offset="1" style="stop-color:#0E5567"/>
	</linearGradient>
	<path fill="url(#SVGID_21_)" d="M67.613,45.602c0,0,0.832,0.512,0.832,1.148l-0.082,63.352c0,0-0.441,0.859-1.09,0.859
		c-0.41-0.109-1.176-0.52-1.176-1.16l0.016-62.699c0-0.75,0.512-1.5,1.16-1.5H67.613z"/>
	
		<linearGradient id="SVGID_22_" gradientUnits="userSpaceOnUse" x1="273.0752" y1="-338.3335" x2="276.2061" y2="-338.3335" gradientTransform="matrix(0.75 0 0 -0.75 -149.6306 -175.4685)">
		<stop  offset="0" style="stop-color:#1C85A1"/>
		<stop  offset="0.09" style="stop-color:#1D87A3"/>
		<stop  offset="0.36" style="stop-color:#85C0D7"/>
		<stop  offset="0.56" style="stop-color:#2196B5"/>
		<stop  offset="0.83" style="stop-color:#187891"/>
		<stop  offset="1" style="stop-color:#0E5567"/>
	</linearGradient>
	<path fill="url(#SVGID_22_)" d="M56.688,45.602c0,0,0.836,0.512,0.836,1.148l-0.086,63.352c0,0-0.441,0.859-1.09,0.859
		c-0.41-0.109-1.172-0.52-1.172-1.16l0.012-62.699c0-0.75,0.512-1.5,1.16-1.5H56.688z"/>
	<path fill="#126479" d="M56.359,55.488c0,0,2.754,0,4.395,2.098c1.605,2.402,1.41,3.902,1.41,3.902c0.195,0-0.316,2.184,1.035,2.98
		c-0.09,0.02,3.098,1.258,5.871,5.254c3.039,3.766,2.547,8.254,2.547,8.254c-0.258,0.012,0.223,3.668-2.219,7.773
		c-2.539,4.238-5.727,5.512-5.727,5.512c0.188,0.227-1.785,0.973-1.508,3.191c0.195,0.035,0.051,2.535-1.809,4.301
		c-1.746,1.734-4.242,1.707-4.242,1.707c0.246,0.027-2.578,0.059-4.367-1.781c-2.137-1.941-1.754-4.227-1.754-4.227
		c0.367,0.035,0.223-2.184-1.305-3.082c0.172,0.117-3.434-1.656-5.875-5.582c-2.203-4.051-2.203-7.813-2.203-7.813
		c0,0.012-0.129-4.613,2.496-8.324c2.754-3.664,5.688-5.113,5.688-5.113c0.066-0.051,1.453-0.66,1.199-3.051
		c0.367,0-0.141-2.496,1.828-4.332c2.289-1.668,4.293-1.668,4.293-1.668H56.359z"/>
	
		<linearGradient id="SVGID_23_" gradientUnits="userSpaceOnUse" x1="275.3838" y1="-293.4336" x2="308.6584" y2="-351.067" gradientTransform="matrix(0.75 0 0 -0.75 -162.9729 -163.4333)">
		<stop  offset="0" style="stop-color:#858D89"/>
		<stop  offset="0.47" style="stop-color:#F5F5F5"/>
		<stop  offset="1" style="stop-color:#8C8C8C"/>
	</linearGradient>
	<path fill="url(#SVGID_23_)" d="M56.094,57.637c0,0,2.699,0,4.203,1.922c1.797,1.828,1.293,3.574,1.293,3.574
		c-0.246-0.246-0.289,2,0.945,2.73c0.309,0.023,2.84,1.152,5.379,4.813c2.43,3.461,2.332,7.559,2.332,7.559
		c0.098-0.348,0.207,3.359-2.031,7.121c-2.371,3.781-5.246,5.047-5.246,5.047c-0.125,0.234-1.637,0.891-1.379,2.922
		c-0.246,0.313,0.043,2.324-1.66,3.941c-1.586,1.621-3.883,1.563-3.883,1.563c0.047,0.059-2.363,0.051-4-1.629
		c-1.953-1.313-1.605-3.875-1.605-3.875c-0.348,0.313,0.203-1.996-1.199-2.824c0.102,0.137-3.141-1.516-5.379-5.113
		c-2.02-3.75-2.02-7.152-2.02-7.152c0-0.348-0.117-4.227,2.289-7.625c2.211-3.223,5.207-4.684,5.207-4.684
		c0.004-0.039,1.332-0.602,1.102-2.793c-0.348-0.246-0.133-2.289,1.672-3.969c1.73-1.527,3.934-1.527,3.934-1.527H56.094z"/>
	
		<linearGradient id="SVGID_24_" gradientUnits="userSpaceOnUse" x1="285.4014" y1="-294.7573" x2="285.4014" y2="-319.0649" gradientTransform="matrix(0.75 0 0 -0.75 -157.9973 -151.9509)">
		<stop  offset="0" style="stop-color:#969F9C"/>
		<stop  offset="0.53" style="stop-color:#DBDFDD"/>
		<stop  offset="1" style="stop-color:#98A19E"/>
	</linearGradient>
	<path fill="url(#SVGID_24_)" d="M46.82,78.117c0-5.25,4.125-9,9.227-9c5.023,0,9.227,4.074,9.227,9.117
		c0.297,5.133-4.133,9.113-9.227,9.113c-5.477-0.23-9.227-4.082-9.227-9.113V78.117z"/>
	<path fill="#616A67" d="M51.273,78.02c0-2.25,2.133-4.5,4.773-4.5c2.727,0,4.773,2.105,4.773,4.715
		c0.203,2.785-2.141,4.715-4.773,4.715c-2.523,0.32-4.773-2.113-4.773-4.715V78.02z"/>
	<path fill="#616A67" d="M54.277,65.094c0-0.75,0.789-1.5,1.77-1.5c1.23,0,1.77,0.781,1.77,1.75c0.211,1.25-0.793,1.746-1.77,1.746
		c-1.02,0.254-1.77-0.781-1.77-1.746V65.094z"/>
	<path fill="#616A67" d="M54.277,90.984c0-0.75,0.789-1.5,1.77-1.5c1.23,0,1.77,0.781,1.77,1.75c0.211,1.25-0.793,1.75-1.77,1.75
		c-1.02,0.25-1.77-0.785-1.77-1.75V90.984z"/>
</g>
</svg>
