<?xml version="1.0" encoding="utf-8"?>
<!-- Generator: Adobe Illustrator 16.0.0, SVG Export Plug-In . SVG Version: 6.00 Build 0)  -->
<!DOCTYPE svg PUBLIC "-//W3C//DTD SVG 1.1//EN" "http://www.w3.org/Graphics/SVG/1.1/DTD/svg11.dtd">
<svg preserveAspectRatio="none" version="1.1" id="图层_1" xmlns="http://www.w3.org/2000/svg" xmlns:xlink="http://www.w3.org/1999/xlink" x="0px" y="0px"
	 width="141.75px" height="111.813px" viewBox="-0.012 15.109 141.75 111.813"
	 enable-background="new -0.012 15.109 141.75 111.813" xml:space="preserve">
<g id="surface416">
	
		<linearGradient id="SVGID_1_" gradientUnits="userSpaceOnUse" x1="276.0938" y1="-357.7568" x2="273.0938" y2="-357.7568" gradientTransform="matrix(0.75 0 0 -0.75 -177.0862 -197.2595)">
		<stop  offset="0" style="stop-color:#97AA93"/>
		<stop  offset="0.15" style="stop-color:#D0E8CB"/>
		<stop  offset="0.25" style="stop-color:#E5F2E2"/>
		<stop  offset="0.52" style="stop-color:#B3C9AE"/>
		<stop  offset="0.69" style="stop-color:#9FB39B"/>
		<stop  offset="0.8" style="stop-color:#96A992"/>
		<stop  offset="0.92" style="stop-color:#8E9F89"/>
		<stop  offset="1" style="stop-color:#A3B79E"/>
	</linearGradient>
	<path fill="url(#SVGID_1_)" d="M27.734,23.809h2.25v94.5h-2.25V23.809z"/>
	
		<linearGradient id="SVGID_2_" gradientUnits="userSpaceOnUse" x1="276.0889" y1="-357.7568" x2="273.0889" y2="-357.7568" gradientTransform="matrix(0.75 0 0 -0.75 -149.3411 -197.2595)">
		<stop  offset="0" style="stop-color:#97AA93"/>
		<stop  offset="0.15" style="stop-color:#D0E8CB"/>
		<stop  offset="0.25" style="stop-color:#E5F2E2"/>
		<stop  offset="0.52" style="stop-color:#B3C9AE"/>
		<stop  offset="0.69" style="stop-color:#9FB39B"/>
		<stop  offset="0.8" style="stop-color:#96A992"/>
		<stop  offset="0.92" style="stop-color:#8E9F89"/>
		<stop  offset="1" style="stop-color:#A3B79E"/>
	</linearGradient>
	<path fill="url(#SVGID_2_)" d="M55.477,23.809h2.25v94.5h-2.25V23.809z"/>
	
		<linearGradient id="SVGID_3_" gradientUnits="userSpaceOnUse" x1="276.0898" y1="-357.7568" x2="273.0898" y2="-357.7568" gradientTransform="matrix(0.75 0 0 -0.75 -121.595 -197.2595)">
		<stop  offset="0" style="stop-color:#97AA93"/>
		<stop  offset="0.15" style="stop-color:#D0E8CB"/>
		<stop  offset="0.25" style="stop-color:#E5F2E2"/>
		<stop  offset="0.52" style="stop-color:#B3C9AE"/>
		<stop  offset="0.69" style="stop-color:#9FB39B"/>
		<stop  offset="0.8" style="stop-color:#96A992"/>
		<stop  offset="0.92" style="stop-color:#8E9F89"/>
		<stop  offset="1" style="stop-color:#A3B79E"/>
	</linearGradient>
	<path fill="url(#SVGID_3_)" d="M83.223,23.809h2.25v94.5h-2.25V23.809z"/>
	
		<linearGradient id="SVGID_4_" gradientUnits="userSpaceOnUse" x1="276.0908" y1="-357.7568" x2="273.0908" y2="-357.7568" gradientTransform="matrix(0.75 0 0 -0.75 -93.8499 -197.2595)">
		<stop  offset="0" style="stop-color:#97AA93"/>
		<stop  offset="0.15" style="stop-color:#D0E8CB"/>
		<stop  offset="0.25" style="stop-color:#E5F2E2"/>
		<stop  offset="0.52" style="stop-color:#B3C9AE"/>
		<stop  offset="0.69" style="stop-color:#9FB39B"/>
		<stop  offset="0.8" style="stop-color:#96A992"/>
		<stop  offset="0.92" style="stop-color:#8E9F89"/>
		<stop  offset="1" style="stop-color:#A3B79E"/>
	</linearGradient>
	<path fill="url(#SVGID_4_)" d="M110.969,23.809h2.25v94.5h-2.25V23.809z"/>
	
		<linearGradient id="SVGID_5_" gradientUnits="userSpaceOnUse" x1="273.0889" y1="-297.7598" x2="292.0889" y2="-297.7598" gradientTransform="matrix(0.75 0 0 -0.75 -181.8484 -108.1638)">
		<stop  offset="0" style="stop-color:#9AA1AA"/>
		<stop  offset="0.22" style="stop-color:#AEB5C0"/>
		<stop  offset="0.57" style="stop-color:#DCE0E5"/>
		<stop  offset="0.84" style="stop-color:#CACFD7"/>
		<stop  offset="1" style="stop-color:#A7AFB9"/>
	</linearGradient>
	<path fill="url(#SVGID_5_)" d="M22.969,112.906h14.25v4.5h-14.25V112.906z"/>
	
		<linearGradient id="SVGID_6_" gradientUnits="userSpaceOnUse" x1="-330.3594" y1="-303.2549" x2="-318.3594" y2="-303.2549" gradientTransform="matrix(-0.75 0 0 -0.75 -221.2068 -129.8484)">
		<stop  offset="0" style="stop-color:#9AA1AA"/>
		<stop  offset="0.22" style="stop-color:#AEB5C0"/>
		<stop  offset="0.57" style="stop-color:#DCE0E5"/>
		<stop  offset="0.84" style="stop-color:#CACFD7"/>
		<stop  offset="1" style="stop-color:#A7AFB9"/>
	</linearGradient>
	<path fill="url(#SVGID_6_)" d="M26.563,91.219h-9v12.75h9V91.219z"/>
	
		<linearGradient id="SVGID_7_" gradientUnits="userSpaceOnUse" x1="-330.3613" y1="-295.7563" x2="-317.2412" y2="-295.7563" gradientTransform="matrix(-0.75 0 0 -0.75 -220.7048 -130.8826)">
		<stop  offset="0" style="stop-color:#8F969D"/>
		<stop  offset="0.64" style="stop-color:#D3D8DE"/>
		<stop  offset="1" style="stop-color:#9AA0A8"/>
	</linearGradient>
	<path fill="url(#SVGID_7_)" d="M27.066,90.188h-9.75c0,0-0.09,0.305-0.09,0.688c0.09,0.063,0.145,0.691,0.32,0.691l9.52,0.121
		c0,0,0-0.43,0-0.813c0-0.688-0.145-0.691-0.32-0.691L27.066,90.188z"/>
	
		<linearGradient id="SVGID_8_" gradientUnits="userSpaceOnUse" x1="-330.3584" y1="-295.2607" x2="-317.3428" y2="-295.2607" gradientTransform="matrix(-0.75 0 0 -0.75 -220.7419 -129.9412)">
		<stop  offset="0" style="stop-color:#626974"/>
		<stop  offset="0.66" style="stop-color:#CCD0D5"/>
		<stop  offset="1" style="stop-color:#5E6670"/>
	</linearGradient>
	<path fill="url(#SVGID_8_)" d="M17.277,91.129c0,0,0.133,0.441,0.309,0.441l9.441,0.309c0,0-0.016-0.527,0-0.75h-9.762H17.277z"/>
	<path fill="#FFFFFF" fill-opacity="0.749" d="M26.902,90.266h-9c-0.75,0-0.512,0.059-0.512,0.129
		c-0.238-0.129,0.066,0.133,0.152,0.133L26.902,90.266c0,0,0,0.203,0,0.129c0-0.129-0.066-0.129-0.152-0.129H26.902z"/>
	
		<radialGradient id="SVGID_9_" cx="-314.6582" cy="-310.3794" r="22.1453" gradientTransform="matrix(-0.75 0 0 -0.75 -206.6951 -128.6892)" gradientUnits="userSpaceOnUse">
		<stop  offset="0" style="stop-color:#C7CBD1"/>
		<stop  offset="0.54" style="stop-color:#B6BCC4"/>
		<stop  offset="0.74" style="stop-color:#D4D8DD"/>
		<stop  offset="0.91" style="stop-color:#C4C7CD"/>
		<stop  offset="1" style="stop-color:#B6BCC4"/>
	</radialGradient>
	<path fill="url(#SVGID_9_)" stroke="#D4D6DB" stroke-width="0.25" stroke-linejoin="bevel" stroke-miterlimit="10" d="
		M41.074,104.379c0-6.75-5.273-12-11.773-12c-6.227,0-11.777,5.246-11.777,11.715c0.301,6.285,5.273,11.719,11.777,11.719
		c6.523-0.184,11.773-5.246,11.773-11.719V104.379z"/>
	<path fill="#FFFFFF" fill-opacity="0.2745" d="M39.086,104.105c0-5.25-4.383-9.75-9.789-9.75c-5.211,0-9.785,4.359-9.785,9.738
		c0.074,5.262,4.383,9.738,9.785,9.738c5.289,0.023,9.789-4.359,9.789-9.738V104.105z"/>
	<path fill="#FFFFFF" fill-opacity="0.1255" d="M39.082,103.734c0-4.5-3.934-7.5-3.934-7.5l-12.566,14.25
		c0,0,2.211,3.359,6.715,3.359c5.285-0.359,9.785-4.367,9.785-9.742V103.734z"/>
	
		<linearGradient id="SVGID_10_" gradientUnits="userSpaceOnUse" x1="273.0889" y1="-295.2588" x2="297.0889" y2="-295.2588" gradientTransform="matrix(0.75 0 0 -0.75 -183.6799 -103.9832)">
		<stop  offset="0" style="stop-color:#858C94"/>
		<stop  offset="0.22" style="stop-color:#969EA7"/>
		<stop  offset="0.57" style="stop-color:#D2D5D9"/>
		<stop  offset="0.84" style="stop-color:#B8BEC5"/>
		<stop  offset="1" style="stop-color:#9198A1"/>
	</linearGradient>
	<path fill="url(#SVGID_10_)" d="M21.137,117.086h18v0.75h-18V117.086z"/>
	
		<linearGradient id="SVGID_11_" gradientUnits="userSpaceOnUse" x1="273.0889" y1="-297.7598" x2="292.0889" y2="-297.7598" gradientTransform="matrix(0.75 0 0 -0.75 -153.5823 -108.1638)">
		<stop  offset="0" style="stop-color:#9AA1AA"/>
		<stop  offset="0.22" style="stop-color:#AEB5C0"/>
		<stop  offset="0.57" style="stop-color:#DCE0E5"/>
		<stop  offset="0.84" style="stop-color:#CACFD7"/>
		<stop  offset="1" style="stop-color:#A7AFB9"/>
	</linearGradient>
	<path fill="url(#SVGID_11_)" d="M51.234,112.906h14.25v4.5h-14.25V112.906z"/>
	
		<linearGradient id="SVGID_12_" gradientUnits="userSpaceOnUse" x1="-330.3594" y1="-303.2549" x2="-318.3594" y2="-303.2549" gradientTransform="matrix(-0.75 0 0 -0.75 -192.9412 -129.8484)">
		<stop  offset="0" style="stop-color:#9AA1AA"/>
		<stop  offset="0.22" style="stop-color:#AEB5C0"/>
		<stop  offset="0.57" style="stop-color:#DCE0E5"/>
		<stop  offset="0.84" style="stop-color:#CACFD7"/>
		<stop  offset="1" style="stop-color:#A7AFB9"/>
	</linearGradient>
	<path fill="url(#SVGID_12_)" d="M54.828,91.219h-9v12.75h9V91.219z"/>
	
		<linearGradient id="SVGID_13_" gradientUnits="userSpaceOnUse" x1="-330.3594" y1="-295.7563" x2="-317.2393" y2="-295.7563" gradientTransform="matrix(-0.75 0 0 -0.75 -192.4382 -130.8826)">
		<stop  offset="0" style="stop-color:#8F969D"/>
		<stop  offset="0.64" style="stop-color:#D3D8DE"/>
		<stop  offset="1" style="stop-color:#9AA0A8"/>
	</linearGradient>
	<path fill="url(#SVGID_13_)" d="M55.332,90.188h-9.75c0,0-0.09,0.305-0.09,0.688c0.09,0.063,0.145,0.691,0.32,0.691l9.52,0.121
		c0,0,0-0.43,0-0.813c0-0.688-0.145-0.691-0.32-0.691L55.332,90.188z"/>
	
		<linearGradient id="SVGID_14_" gradientUnits="userSpaceOnUse" x1="-330.3584" y1="-295.2607" x2="-317.3428" y2="-295.2607" gradientTransform="matrix(-0.75 0 0 -0.75 -192.4763 -129.9412)">
		<stop  offset="0" style="stop-color:#626974"/>
		<stop  offset="0.66" style="stop-color:#CCD0D5"/>
		<stop  offset="1" style="stop-color:#5E6670"/>
	</linearGradient>
	<path fill="url(#SVGID_14_)" d="M45.543,91.129c0,0,0.133,0.441,0.309,0.441l9.441,0.309c0,0-0.016-0.527,0-0.75h-9.762H45.543z"/>
	<path fill="#FFFFFF" fill-opacity="0.749" d="M55.168,90.266h-9c-0.75,0-0.512,0.059-0.512,0.129
		c-0.238-0.129,0.066,0.133,0.152,0.133L55.168,90.266c0,0,0,0.203,0,0.129c0-0.129-0.066-0.129-0.152-0.129H55.168z"/>
	
		<radialGradient id="SVGID_15_" cx="-314.6582" cy="-310.3794" r="22.1453" gradientTransform="matrix(-0.75 0 0 -0.75 -178.4294 -128.6892)" gradientUnits="userSpaceOnUse">
		<stop  offset="0" style="stop-color:#C7CBD1"/>
		<stop  offset="0.54" style="stop-color:#B6BCC4"/>
		<stop  offset="0.74" style="stop-color:#D4D8DD"/>
		<stop  offset="0.91" style="stop-color:#C4C7CD"/>
		<stop  offset="1" style="stop-color:#B6BCC4"/>
	</radialGradient>
	<path fill="url(#SVGID_15_)" stroke="#D4D6DB" stroke-width="0.25" stroke-linejoin="bevel" stroke-miterlimit="10" d="
		M69.34,104.379c0-6.75-5.273-12-11.773-12c-6.227,0-11.777,5.246-11.777,11.715c0.301,6.285,5.273,11.719,11.777,11.719
		c6.523-0.184,11.773-5.246,11.773-11.719V104.379z"/>
	<path fill="#FFFFFF" fill-opacity="0.2745" d="M67.352,104.105c0-5.25-4.383-9.75-9.785-9.75c-5.215,0-9.789,4.359-9.789,9.738
		c0.074,5.262,4.383,9.738,9.789,9.738c5.285,0.023,9.785-4.359,9.785-9.738V104.105z"/>
	<path fill="#FFFFFF" fill-opacity="0.1255" d="M67.348,103.734c0-4.5-3.934-7.5-3.934-7.5l-12.566,14.25
		c0,0,2.211,3.359,6.715,3.359c5.285-0.359,9.785-4.367,9.785-9.742V103.734z"/>
	
		<linearGradient id="SVGID_16_" gradientUnits="userSpaceOnUse" x1="273.0928" y1="-295.2588" x2="297.0928" y2="-295.2588" gradientTransform="matrix(0.75 0 0 -0.75 -155.4138 -103.9832)">
		<stop  offset="0" style="stop-color:#858C94"/>
		<stop  offset="0.22" style="stop-color:#969EA7"/>
		<stop  offset="0.57" style="stop-color:#D2D5D9"/>
		<stop  offset="0.84" style="stop-color:#B8BEC5"/>
		<stop  offset="1" style="stop-color:#9198A1"/>
	</linearGradient>
	<path fill="url(#SVGID_16_)" d="M49.406,117.086h18v0.75h-18V117.086z"/>
	
		<linearGradient id="SVGID_17_" gradientUnits="userSpaceOnUse" x1="273.0947" y1="-297.7598" x2="292.0947" y2="-297.7598" gradientTransform="matrix(0.75 0 0 -0.75 -125.3167 -108.1638)">
		<stop  offset="0" style="stop-color:#9AA1AA"/>
		<stop  offset="0.22" style="stop-color:#AEB5C0"/>
		<stop  offset="0.57" style="stop-color:#DCE0E5"/>
		<stop  offset="0.84" style="stop-color:#CACFD7"/>
		<stop  offset="1" style="stop-color:#A7AFB9"/>
	</linearGradient>
	<path fill="url(#SVGID_17_)" d="M79.504,112.906h14.25v4.5h-14.25V112.906z"/>
	
		<linearGradient id="SVGID_18_" gradientUnits="userSpaceOnUse" x1="-330.3594" y1="-303.2549" x2="-318.3594" y2="-303.2549" gradientTransform="matrix(-0.75 0 0 -0.75 -164.6755 -129.8484)">
		<stop  offset="0" style="stop-color:#9AA1AA"/>
		<stop  offset="0.22" style="stop-color:#AEB5C0"/>
		<stop  offset="0.57" style="stop-color:#DCE0E5"/>
		<stop  offset="0.84" style="stop-color:#CACFD7"/>
		<stop  offset="1" style="stop-color:#A7AFB9"/>
	</linearGradient>
	<path fill="url(#SVGID_18_)" d="M83.094,91.219h-9v12.75h9V91.219z"/>
	
		<linearGradient id="SVGID_19_" gradientUnits="userSpaceOnUse" x1="-330.3594" y1="-295.7563" x2="-317.2393" y2="-295.7563" gradientTransform="matrix(-0.75 0 0 -0.75 -164.1716 -130.8826)">
		<stop  offset="0" style="stop-color:#8F969D"/>
		<stop  offset="0.64" style="stop-color:#D3D8DE"/>
		<stop  offset="1" style="stop-color:#9AA0A8"/>
	</linearGradient>
	<path fill="url(#SVGID_19_)" d="M83.598,90.188h-9.75c0,0-0.09,0.305-0.09,0.688c0.09,0.063,0.145,0.691,0.32,0.691l9.52,0.121
		c0,0,0-0.43,0-0.813c0-0.688-0.145-0.691-0.32-0.691L83.598,90.188z"/>
	
		<linearGradient id="SVGID_20_" gradientUnits="userSpaceOnUse" x1="-330.3584" y1="-295.2607" x2="-317.3428" y2="-295.2607" gradientTransform="matrix(-0.75 0 0 -0.75 -164.2107 -129.9412)">
		<stop  offset="0" style="stop-color:#626974"/>
		<stop  offset="0.66" style="stop-color:#CCD0D5"/>
		<stop  offset="1" style="stop-color:#5E6670"/>
	</linearGradient>
	<path fill="url(#SVGID_20_)" d="M73.809,91.129c0,0,0.133,0.441,0.309,0.441l9.441,0.309c0,0-0.016-0.527,0-0.75h-9.762H73.809z"/>
	<path fill="#FFFFFF" fill-opacity="0.749" d="M83.438,90.266h-9c-0.75,0-0.516,0.059-0.516,0.129
		c-0.234-0.129,0.066,0.133,0.152,0.133L83.438,90.266c0,0,0,0.203,0,0.129c0-0.129-0.07-0.129-0.156-0.129H83.438z"/>
	
		<radialGradient id="SVGID_21_" cx="-314.6582" cy="-310.3794" r="22.1453" gradientTransform="matrix(-0.75 0 0 -0.75 -150.1638 -128.6892)" gradientUnits="userSpaceOnUse">
		<stop  offset="0" style="stop-color:#C7CBD1"/>
		<stop  offset="0.54" style="stop-color:#B6BCC4"/>
		<stop  offset="0.74" style="stop-color:#D4D8DD"/>
		<stop  offset="0.91" style="stop-color:#C4C7CD"/>
		<stop  offset="1" style="stop-color:#B6BCC4"/>
	</radialGradient>
	<path fill="url(#SVGID_21_)" stroke="#D4D6DB" stroke-width="0.25" stroke-linejoin="bevel" stroke-miterlimit="10" d="
		M97.605,104.379c0-6.75-5.273-12-11.773-12c-6.227,0-11.777,5.246-11.777,11.715c0.301,6.285,5.273,11.719,11.777,11.719
		c6.523-0.184,11.773-5.246,11.773-11.719V104.379z"/>
	<path fill="#FFFFFF" fill-opacity="0.2745" d="M95.617,104.105c0-5.25-4.383-9.75-9.785-9.75c-5.215,0-9.789,4.359-9.789,9.738
		c0.074,5.262,4.383,9.738,9.789,9.738c5.285,0.023,9.785-4.359,9.785-9.738V104.105z"/>
	<path fill="#FFFFFF" fill-opacity="0.1255" d="M95.613,103.734c0-4.5-3.934-7.5-3.934-7.5l-12.566,14.25
		c0,0,2.211,3.359,6.715,3.359c5.285-0.359,9.785-4.367,9.785-9.742V103.734z"/>
	
		<linearGradient id="SVGID_22_" gradientUnits="userSpaceOnUse" x1="273.0928" y1="-295.2588" x2="297.0928" y2="-295.2588" gradientTransform="matrix(0.75 0 0 -0.75 -127.1482 -103.9832)">
		<stop  offset="0" style="stop-color:#858C94"/>
		<stop  offset="0.22" style="stop-color:#969EA7"/>
		<stop  offset="0.57" style="stop-color:#D2D5D9"/>
		<stop  offset="0.84" style="stop-color:#B8BEC5"/>
		<stop  offset="1" style="stop-color:#9198A1"/>
	</linearGradient>
	<path fill="url(#SVGID_22_)" d="M77.672,117.086h18v0.75h-18V117.086z"/>
	
		<linearGradient id="SVGID_23_" gradientUnits="userSpaceOnUse" x1="273.0938" y1="-297.7598" x2="292.0938" y2="-297.7598" gradientTransform="matrix(0.75 0 0 -0.75 -97.7498 -108.1638)">
		<stop  offset="0" style="stop-color:#9AA1AA"/>
		<stop  offset="0.22" style="stop-color:#AEB5C0"/>
		<stop  offset="0.57" style="stop-color:#DCE0E5"/>
		<stop  offset="0.84" style="stop-color:#CACFD7"/>
		<stop  offset="1" style="stop-color:#A7AFB9"/>
	</linearGradient>
	<path fill="url(#SVGID_23_)" d="M107.07,112.906h14.25v4.5h-14.25V112.906z"/>
	
		<linearGradient id="SVGID_24_" gradientUnits="userSpaceOnUse" x1="-330.3584" y1="-303.2549" x2="-318.3584" y2="-303.2549" gradientTransform="matrix(-0.75 0 0 -0.75 -137.1091 -129.8484)">
		<stop  offset="0" style="stop-color:#9AA1AA"/>
		<stop  offset="0.22" style="stop-color:#AEB5C0"/>
		<stop  offset="0.57" style="stop-color:#DCE0E5"/>
		<stop  offset="0.84" style="stop-color:#CACFD7"/>
		<stop  offset="1" style="stop-color:#A7AFB9"/>
	</linearGradient>
	<path fill="url(#SVGID_24_)" d="M110.66,91.219h-9v12.75h9V91.219z"/>
	
		<linearGradient id="SVGID_25_" gradientUnits="userSpaceOnUse" x1="-330.3584" y1="-295.7563" x2="-317.2441" y2="-295.7563" gradientTransform="matrix(-0.75 0 0 -0.75 -136.6052 -130.8826)">
		<stop  offset="0" style="stop-color:#8F969D"/>
		<stop  offset="0.64" style="stop-color:#D3D8DE"/>
		<stop  offset="1" style="stop-color:#9AA0A8"/>
	</linearGradient>
	<path fill="url(#SVGID_25_)" d="M111.164,90.188h-9.75c0,0-0.086,0.305-0.086,0.688c0.086,0.063,0.141,0.691,0.316,0.691
		l9.52,0.121c0,0,0-0.43,0-0.813c0-0.688-0.145-0.691-0.316-0.691L111.164,90.188z"/>
	
		<linearGradient id="SVGID_26_" gradientUnits="userSpaceOnUse" x1="-330.3594" y1="-295.2607" x2="-317.3438" y2="-295.2607" gradientTransform="matrix(-0.75 0 0 -0.75 -136.6443 -129.9412)">
		<stop  offset="0" style="stop-color:#626974"/>
		<stop  offset="0.66" style="stop-color:#CCD0D5"/>
		<stop  offset="1" style="stop-color:#5E6670"/>
	</linearGradient>
	<path fill="url(#SVGID_26_)" d="M101.375,91.129c0,0,0.133,0.441,0.309,0.441l9.441,0.309c0,0-0.016-0.527,0-0.75h-9.762H101.375z"
		/>
	<path fill="#FFFFFF" fill-opacity="0.749" d="M111.004,90.266h-9c-0.75,0-0.516,0.059-0.516,0.129
		c-0.234-0.129,0.066,0.133,0.152,0.133L111.004,90.266c0,0,0,0.203,0,0.129c0-0.129-0.07-0.129-0.152-0.129H111.004z"/>
	
		<radialGradient id="SVGID_27_" cx="-314.6602" cy="-310.3794" r="22.1473" gradientTransform="matrix(-0.75 0 0 -0.75 -122.5974 -128.6892)" gradientUnits="userSpaceOnUse">
		<stop  offset="0" style="stop-color:#C7CBD1"/>
		<stop  offset="0.54" style="stop-color:#B6BCC4"/>
		<stop  offset="0.74" style="stop-color:#D4D8DD"/>
		<stop  offset="0.91" style="stop-color:#C4C7CD"/>
		<stop  offset="1" style="stop-color:#B6BCC4"/>
	</radialGradient>
	<path fill="url(#SVGID_27_)" stroke="#D4D6DB" stroke-width="0.25" stroke-linejoin="bevel" stroke-miterlimit="10" d="
		M125.172,104.379c0-6.75-5.27-12-11.773-12c-6.227,0-11.773,5.246-11.773,11.715c0.297,6.285,5.27,11.719,11.773,11.719
		c6.523-0.184,11.773-5.246,11.773-11.719V104.379z"/>
	<path fill="#FFFFFF" fill-opacity="0.2745" d="M123.184,104.105c0-5.25-4.379-9.75-9.785-9.75c-5.215,0-9.789,4.359-9.789,9.738
		c0.074,5.262,4.383,9.738,9.789,9.738c5.285,0.023,9.785-4.359,9.785-9.738V104.105z"/>
	<path fill="#FFFFFF" fill-opacity="0.1255" d="M123.18,103.734c0-4.5-3.934-7.5-3.934-7.5l-12.566,14.25
		c0,0,2.215,3.359,6.715,3.359c5.285-0.359,9.785-4.367,9.785-9.742V103.734z"/>
	
		<linearGradient id="SVGID_28_" gradientUnits="userSpaceOnUse" x1="273.0928" y1="-295.2588" x2="297.0928" y2="-295.2588" gradientTransform="matrix(0.75 0 0 -0.75 -99.5813 -103.9832)">
		<stop  offset="0" style="stop-color:#858C94"/>
		<stop  offset="0.22" style="stop-color:#969EA7"/>
		<stop  offset="0.57" style="stop-color:#D2D5D9"/>
		<stop  offset="0.84" style="stop-color:#B8BEC5"/>
		<stop  offset="1" style="stop-color:#9198A1"/>
	</linearGradient>
	<path fill="url(#SVGID_28_)" d="M105.238,117.086h18v0.75h-18V117.086z"/>
	<path fill="#CFEBF6" fill-opacity="0.4706" d="M5.117,22.508h131.25v96.75H5.117V22.508z"/>
	
		<linearGradient id="SVGID_29_" gradientUnits="userSpaceOnUse" x1="279.0928" y1="-357.7568" x2="273.0928" y2="-357.7568" gradientTransform="matrix(0.75 0 0 -0.75 -71.8162 -197.2595)">
		<stop  offset="0" style="stop-color:#90A38C"/>
		<stop  offset="0.01" style="stop-color:#D8EBD4"/>
		<stop  offset="0.05" style="stop-color:#BDD4B7"/>
		<stop  offset="0.9" style="stop-color:#BAD0B4"/>
		<stop  offset="0.95" style="stop-color:#B5CCB0"/>
		<stop  offset="1" style="stop-color:#869782"/>
	</linearGradient>
	<path fill="url(#SVGID_29_)" d="M133.004,23.809h4.5v94.5h-4.5V23.809z"/>
	
		<linearGradient id="SVGID_30_" gradientUnits="userSpaceOnUse" x1="279.0918" y1="-357.7568" x2="273.0918" y2="-357.7568" gradientTransform="matrix(0.75 0 0 -0.75 -201.3347 -197.2595)">
		<stop  offset="0" style="stop-color:#90A38C"/>
		<stop  offset="0.01" style="stop-color:#D8EBD4"/>
		<stop  offset="0.05" style="stop-color:#BDD4B7"/>
		<stop  offset="0.9" style="stop-color:#BAD0B4"/>
		<stop  offset="0.95" style="stop-color:#B5CCB0"/>
		<stop  offset="1" style="stop-color:#869782"/>
	</linearGradient>
	<path fill="url(#SVGID_30_)" d="M3.484,23.809h4.5v94.5h-4.5V23.809z"/>
	
		<linearGradient id="SVGID_31_" gradientUnits="userSpaceOnUse" x1="367.5928" y1="-294.7612" x2="367.5928" y2="-306.7612" gradientTransform="matrix(0.75 0 0 -0.75 -204.8318 -205.9617)">
		<stop  offset="0" style="stop-color:#90A38C"/>
		<stop  offset="0.01" style="stop-color:#D8EBD4"/>
		<stop  offset="0.05" style="stop-color:#BDD4B7"/>
		<stop  offset="0.9" style="stop-color:#BAD0B4"/>
		<stop  offset="0.95" style="stop-color:#B5CCB0"/>
		<stop  offset="1" style="stop-color:#869782"/>
	</linearGradient>
	<path fill="url(#SVGID_31_)" d="M-0.012,15.109h141.75v9H-0.012V15.109z"/>
	
		<linearGradient id="SVGID_32_" gradientUnits="userSpaceOnUse" x1="367.5928" y1="-294.7583" x2="367.5928" y2="-306.7583" gradientTransform="matrix(0.75 0 0 -0.75 -204.8318 -103.1462)">
		<stop  offset="0" style="stop-color:#90A38C"/>
		<stop  offset="0.01" style="stop-color:#D8EBD4"/>
		<stop  offset="0.05" style="stop-color:#BDD4B7"/>
		<stop  offset="0.9" style="stop-color:#BAD0B4"/>
		<stop  offset="0.95" style="stop-color:#B5CCB0"/>
		<stop  offset="1" style="stop-color:#869782"/>
	</linearGradient>
	<path fill="url(#SVGID_32_)" d="M-0.012,117.922h141.75v9H-0.012V117.922z"/>
</g>
</svg>
