<?xml version="1.0" encoding="utf-8"?>
<!-- Generator: Adobe Illustrator 16.0.0, SVG Export Plug-In . SVG Version: 6.00 Build 0)  -->
<!DOCTYPE svg PUBLIC "-//W3C//DTD SVG 1.1//EN" "http://www.w3.org/Graphics/SVG/1.1/DTD/svg11.dtd">
<svg preserveAspectRatio="none" version="1.1" id="图层_1" xmlns="http://www.w3.org/2000/svg" xmlns:xlink="http://www.w3.org/1999/xlink" x="0px" y="0px"
	 width="142.109px" height="111.748px" viewBox="-0.484 15.064 142.109 111.748"
	 enable-background="new -0.484 15.064 142.109 111.748" xml:space="preserve">
<g id="surface426">
	
		<linearGradient id="SVGID_1_" gradientUnits="userSpaceOnUse" x1="320.0889" y1="-294.7593" x2="320.0889" y2="-311.7593" gradientTransform="matrix(0.75 0 0 -0.75 -171.8059 -114.2537)">
		<stop  offset="0" style="stop-color:#7098A9"/>
		<stop  offset="0.01" style="stop-color:#B8E1F2"/>
		<stop  offset="0.05" style="stop-color:#93C7DC"/>
		<stop  offset="0.9" style="stop-color:#91C4D9"/>
		<stop  offset="0.95" style="stop-color:#8DBFD4"/>
		<stop  offset="1" style="stop-color:#688D9D"/>
	</linearGradient>
	<path fill="url(#SVGID_1_)" d="M46.512,106.816h43.5l13.5,12.75h-70.5L46.512,106.816z"/>
	
		<linearGradient id="SVGID_2_" gradientUnits="userSpaceOnUse" x1="367.0889" y1="-299.7559" x2="273.0889" y2="-299.7559" gradientTransform="matrix(0.75 0 0 -0.75 -171.8059 -101.7556)">
		<stop  offset="0" style="stop-color:#7098A9"/>
		<stop  offset="0.01" style="stop-color:#B8E1F2"/>
		<stop  offset="0.05" style="stop-color:#93C7DC"/>
		<stop  offset="0.9" style="stop-color:#91C4D9"/>
		<stop  offset="0.95" style="stop-color:#8DBFD4"/>
		<stop  offset="1" style="stop-color:#688D9D"/>
	</linearGradient>
	<path fill="url(#SVGID_2_)" d="M33.012,119.313h70.5v7.5h-70.5V119.313z"/>
	
		<linearGradient id="SVGID_3_" gradientUnits="userSpaceOnUse" x1="-494.7607" y1="430.0918" x2="-445.7607" y2="430.0918" gradientTransform="matrix(0 -0.75 0.75 0 -217.4241 -317.782)">
		<stop  offset="0" style="stop-color:#85B5C8"/>
		<stop  offset="0.22" style="stop-color:#96CBE1"/>
		<stop  offset="0.57" style="stop-color:#D2EBF6"/>
		<stop  offset="0.84" style="stop-color:#B8E1F2"/>
		<stop  offset="1" style="stop-color:#91C4D9"/>
	</linearGradient>
	<path fill="url(#SVGID_3_)" d="M137.395,53.289v-36.75h-64.5v36.75H137.395z"/>
	
		<linearGradient id="SVGID_4_" gradientUnits="userSpaceOnUse" x1="-494.7568" y1="470.0977" x2="-441.0303" y2="470.0977" gradientTransform="matrix(0 -0.75 0.75 0 -213.2019 -315.7087)">
		<stop  offset="0" style="stop-color:#7AA5B7"/>
		<stop  offset="0.64" style="stop-color:#C8E7F5"/>
		<stop  offset="1" style="stop-color:#82B1C4"/>
	</linearGradient>
	<path fill="url(#SVGID_4_)" d="M141.617,53.859v-37.5c0-0.75-0.938-1.25-2.102-1.25c-0.898-0.25-2.117,0.586-2.117,1.305
		l-0.281,37.445c0,0.75,1.23,1.5,2.398,1.5c1.352,0,2.109-0.582,2.109-1.301L141.617,53.859z"/>
	
		<linearGradient id="SVGID_5_" gradientUnits="userSpaceOnUse" x1="-494.7568" y1="472.0938" x2="-441.4971" y2="472.0938" gradientTransform="matrix(0 -0.75 0.75 0 -216.0779 -315.8611)">
		<stop  offset="0" style="stop-color:#6E95A6"/>
		<stop  offset="0.66" style="stop-color:#D2EBF6"/>
		<stop  offset="1" style="stop-color:#6A91A0"/>
	</linearGradient>
	<path fill="url(#SVGID_5_)" d="M138.742,15.457c-0.75,0-1.344,0.395-1.344,1.105l-0.156,37.145c0,0.75,0.82,1.434,1.5,1.5V15.262
		V15.457z"/>
	<path fill="#A0D8EF" d="M141.379,53.953v-37.5c0-0.75-0.18-0.688-0.402-0.688c-0.348-0.063-0.398,0.277-0.398,0.621l0.051,37.566
		c0,0.75,0.129,0.75,0.348,0.75c0.402,0,0.402-0.277,0.402-0.621V53.953z"/>
	
		<radialGradient id="SVGID_6_" cx="-430.4893" cy="409.1084" r="90.6895" gradientTransform="matrix(0 -0.75 0.75 0 -238.5247 -258.3396)" gradientUnits="userSpaceOnUse">
		<stop  offset="0" style="stop-color:#9CD2E9"/>
		<stop  offset="0.54" style="stop-color:#99CEE4"/>
		<stop  offset="0.74" style="stop-color:#C2E4F4"/>
		<stop  offset="0.91" style="stop-color:#99CEE4"/>
		<stop  offset="1" style="stop-color:#99CEE4"/>
	</radialGradient>
	<path fill="url(#SVGID_6_)" stroke="#D4D6DB" stroke-width="0.25" stroke-linejoin="bevel" stroke-miterlimit="10" d="
		M68.293,112.73c26.25,0,48-21.582,48-48.203c0-26.797-21.484-48.199-47.984-48.199C42.043,15.98,20.32,37.91,20.32,64.527
		C20.293,90.98,41.805,112.73,68.309,112.73H68.293z"/>
	<path fill="#A0D8EF" d="M68.449,104.586c21.75,0,39.75-17.934,39.75-40.059c0-22.191-17.859-40.059-39.891-40.059
		c-22.359-0.133-39.891,17.938-39.891,40.059c0.281,22.059,17.859,40.059,39.891,40.059H68.449z"/>
	<path fill="#64BFE4" d="M67.871,82.906c10.5,0,18.75-8.27,18.75-18.465c0-10.035-8.234-18.469-18.387-18.469
		c-10.113,0.184-18.387,8.27-18.387,18.469c0.023,10.215,8.23,18.465,18.387,18.465H67.871z"/>
	
		<linearGradient id="SVGID_7_" gradientUnits="userSpaceOnUse" x1="437.4922" y1="429.5889" x2="486.4922" y2="429.5889" gradientTransform="matrix(0 0.75 0.75 0 -283.7312 -282.2756)">
		<stop  offset="0" style="stop-color:#85B5C8"/>
		<stop  offset="0.22" style="stop-color:#96CBE1"/>
		<stop  offset="0.57" style="stop-color:#D2EBF6"/>
		<stop  offset="0.84" style="stop-color:#B8E1F2"/>
		<stop  offset="1" style="stop-color:#91C4D9"/>
	</linearGradient>
	<path fill="url(#SVGID_7_)" d="M59.836,45.844c0,0,11.25,0.375,11.25,18.66c0,18.09-11.523,18.066-11.523,18.066L5.836,82.594
		v-36.75H59.836z"/>
	
		<linearGradient id="SVGID_8_" gradientUnits="userSpaceOnUse" x1="437.4922" y1="469.0977" x2="491.2227" y2="469.0977" gradientTransform="matrix(0 0.75 0.75 0 -349.3015 -283.717)">
		<stop  offset="0" style="stop-color:#7AA5B7"/>
		<stop  offset="0.64" style="stop-color:#C8E7F5"/>
		<stop  offset="1" style="stop-color:#82B1C4"/>
	</linearGradient>
	<path fill="url(#SVGID_8_)" d="M5.516,45.902v37.5c0,0.75-1.254,1.254-2.82,1.254c-1.68,0.246-2.836-0.59-2.836-1.309
		l-0.344-37.445c0-0.75,1.617-1.5,3.18-1.5c1.32,0,2.832,0.582,2.832,1.301L5.516,45.902z"/>
	
		<linearGradient id="SVGID_9_" gradientUnits="userSpaceOnUse" x1="437.4912" y1="-131.5625" x2="490.752" y2="-131.5625" gradientTransform="matrix(0 0.75 -0.75 0 -94.0525 -283.5637)">
		<stop  offset="0" style="stop-color:#6E95A6"/>
		<stop  offset="0.66" style="stop-color:#D2EBF6"/>
		<stop  offset="1" style="stop-color:#6A91A0"/>
	</linearGradient>
	<path fill="url(#SVGID_9_)" d="M3.719,84.305c0.75,0,1.801-0.391,1.801-1.105L5.219,46.055c0-0.75-0.59-1.434-1.5-1.5V84.5V84.305z
		"/>
	<path fill="#A0D8EF" d="M1.254,45.809v37.5c0,0.75-0.242,0.688-0.535,0.688c-0.215,0.063-0.539-0.277-0.539-0.621l0.324-37.566
		c0-0.75-0.082-0.75,0.215-0.75c0.535,0,0.535,0.277,0.535,0.625V45.809z"/>
</g>
</svg>
