<?xml version="1.0" encoding="utf-8"?>
<!-- Generator: Adobe Illustrator 16.0.0, SVG Export Plug-In . SVG Version: 6.00 Build 0)  -->
<!DOCTYPE svg PUBLIC "-//W3C//DTD SVG 1.1//EN" "http://www.w3.org/Graphics/SVG/1.1/DTD/svg11.dtd">
<svg preserveAspectRatio="none" version="1.1" id="图层_1" xmlns="http://www.w3.org/2000/svg" xmlns:xlink="http://www.w3.org/1999/xlink" x="0px" y="0px"
	 width="128.535px" height="139.348px" viewBox="6.707 1.023 128.535 139.348" enable-background="new 6.707 1.023 128.535 139.348"
	 xml:space="preserve">
<g id="surface401">
	
		<linearGradient id="SVGID_1_" gradientUnits="userSpaceOnUse" x1="313.0889" y1="-294.7583" x2="313.0889" y2="-335.7583" gradientTransform="matrix(0.75 0 0 -0.75 -183.1331 -119.8923)">
		<stop  offset="0" style="stop-color:#A3ABB1"/>
		<stop  offset="0.03" style="stop-color:#ECF4FB"/>
		<stop  offset="0.05" style="stop-color:#D5DEE6"/>
		<stop  offset="0.64" style="stop-color:#D1DAE3"/>
		<stop  offset="0.95" style="stop-color:#CDD5DD"/>
		<stop  offset="1" style="stop-color:#979EA4"/>
	</linearGradient>
	<path fill="url(#SVGID_1_)" d="M21.684,131.926h60v-30.75h-60V131.926z"/>
	
		<linearGradient id="SVGID_2_" gradientUnits="userSpaceOnUse" x1="319.0918" y1="-294.7573" x2="319.0918" y2="-306.7573" gradientTransform="matrix(0.75 0 0 -0.75 -187.5144 -89.697)">
		<stop  offset="0" style="stop-color:#A3ABB1"/>
		<stop  offset="0.03" style="stop-color:#ECF4FB"/>
		<stop  offset="0.05" style="stop-color:#D5DEE6"/>
		<stop  offset="0.64" style="stop-color:#D1DAE3"/>
		<stop  offset="0.95" style="stop-color:#CDD5DD"/>
		<stop  offset="1" style="stop-color:#979EA4"/>
	</linearGradient>
	<path fill="url(#SVGID_2_)" d="M17.305,131.371h69v9h-69V131.371z"/>
	
		<linearGradient id="SVGID_3_" gradientUnits="userSpaceOnUse" x1="437.4912" y1="-171.3584" x2="477.4912" y2="-171.3584" gradientTransform="matrix(0 0.75 -0.75 0 -27.3123 -264.0554)">
		<stop  offset="0" style="stop-color:#9AA1AA"/>
		<stop  offset="0.22" style="stop-color:#AEB5C0"/>
		<stop  offset="0.57" style="stop-color:#DCE0E5"/>
		<stop  offset="0.84" style="stop-color:#CACFD7"/>
		<stop  offset="1" style="stop-color:#A7AFB9"/>
	</linearGradient>
	<path fill="url(#SVGID_3_)" d="M84.707,64.063c0,0-14.25,0.305-14.25,15.113c0,14.887,14.527,14.633,14.527,14.633l46.973,0.254
		v-30H84.707z"/>
	
		<linearGradient id="SVGID_4_" gradientUnits="userSpaceOnUse" x1="273.0918" y1="590.4922" x2="313.0918" y2="590.4922" gradientTransform="matrix(0.75 0 0 0.75 -191.7678 -401.1624)">
		<stop  offset="0" style="stop-color:#9AA1AA"/>
		<stop  offset="0.22" style="stop-color:#AEB5C0"/>
		<stop  offset="0.57" style="stop-color:#DCE0E5"/>
		<stop  offset="0.84" style="stop-color:#CACFD7"/>
		<stop  offset="1" style="stop-color:#A7AFB9"/>
	</linearGradient>
	<path fill="url(#SVGID_4_)" d="M13.051,76.957h30v-70.5h-30V76.957z"/>
	
		<radialGradient id="SVGID_5_" cx="325.0049" cy="585.458" r="73.5019" gradientTransform="matrix(0.75 0 0 0.75 -191.9548 -360.1287)" gradientUnits="userSpaceOnUse">
		<stop  offset="0" style="stop-color:#C7CBD1"/>
		<stop  offset="0.54" style="stop-color:#B6BCC4"/>
		<stop  offset="0.74" style="stop-color:#D4D8DD"/>
		<stop  offset="0.91" style="stop-color:#C4C7CD"/>
		<stop  offset="1" style="stop-color:#B6BCC4"/>
	</radialGradient>
	<path fill="url(#SVGID_5_)" stroke="#D4D6DB" stroke-width="0.25" stroke-linejoin="bevel" stroke-miterlimit="10" d="
		M12.863,78.988c0,21.75,17.434,39,38.934,39c21.816,0,38.938-17.469,38.938-39.023c0.129-21.727-17.434-39.023-38.938-39.023
		c-21.684,0.047-38.934,17.473-38.934,39.023V78.988z"/>
	<path fill="#FFFFFF" fill-opacity="0.2745" d="M19.441,79.156c0,18,14.484,32.25,32.355,32.25
		c17.895,0,32.359-14.523,32.359-32.441c-0.215-17.809-14.488-32.438-32.359-32.438c-18.105-0.371-32.355,14.523-32.355,32.438
		V79.156z"/>
	
		<linearGradient id="SVGID_6_" gradientUnits="userSpaceOnUse" x1="273.0889" y1="633.4971" x2="329.542" y2="633.4971" gradientTransform="matrix(0.75 0 0 0.75 -198.1096 -471.0701)">
		<stop  offset="0" style="stop-color:#8F969D"/>
		<stop  offset="0.64" style="stop-color:#D3D8DE"/>
		<stop  offset="1" style="stop-color:#9AA0A8"/>
	</linearGradient>
	<path fill="url(#SVGID_6_)" d="M8.207,7.047h39.75c0.75,0,1.09-1.332,1.09-2.992c-0.34-1.508-0.617-3.008-1.371-3.008H8.207
		c-0.75,0-1.5,1.352-1.5,3.008c0,1.492,0.613,3.004,1.371,3.004L8.207,7.047z"/>
	
		<linearGradient id="SVGID_7_" gradientUnits="userSpaceOnUse" x1="273.0928" y1="-296.2568" x2="329.1143" y2="-296.2568" gradientTransform="matrix(0.75 0 0 -0.75 -197.9485 -215.9304)">
		<stop  offset="0" style="stop-color:#626974"/>
		<stop  offset="0.66" style="stop-color:#CCD0D5"/>
		<stop  offset="1" style="stop-color:#5E6670"/>
	</linearGradient>
	<path fill="url(#SVGID_7_)" d="M48.871,5.137c0,0.75-0.602,1.914-1.352,1.914L8.371,7.387c-0.75,0-1.434-1.281-1.5-2.25h42.016
		H48.871z"/>
	<path fill="#FFFFFF" fill-opacity="0.3451" d="M8.148,2.523h39.75c0,0,0.461-0.254,0.461-0.566c0.289-0.184-0.297-0.57-0.656-0.57
		L8.148,1.023c-0.75,0-0.75,0.617-0.75,0.934c0,0.566,0.293,0.566,0.656,0.566H8.148z"/>
	
		<linearGradient id="SVGID_8_" gradientUnits="userSpaceOnUse" x1="-494.7607" y1="469.1016" x2="-438.083" y2="469.1016" gradientTransform="matrix(0 -0.75 0.75 0 -219.9216 -270.906)">
		<stop  offset="0" style="stop-color:#8F969D"/>
		<stop  offset="0.64" style="stop-color:#D3D8DE"/>
		<stop  offset="1" style="stop-color:#9AA0A8"/>
	</linearGradient>
	<path fill="url(#SVGID_8_)" d="M134.898,98.664v-39.75c0-0.75-1.332-1.199-2.984-1.199c-1.516-0.301-3.004,0.617-3.004,1.375
		l-0.012,39.574c0,0.75,1.359,1.5,3.016,1.5c1.484,0,2.996-0.613,2.996-1.371L134.898,98.664z"/>
	
		<linearGradient id="SVGID_9_" gradientUnits="userSpaceOnUse" x1="-494.7568" y1="-131.8594" x2="-438.5898" y2="-131.8594" gradientTransform="matrix(-9.200000e-017 -0.75 -0.75 -9.200000e-017 35.2229 -271.0671)">
		<stop  offset="0" style="stop-color:#626974"/>
		<stop  offset="0.66" style="stop-color:#CCD0D5"/>
		<stop  offset="1" style="stop-color:#5E6670"/>
	</linearGradient>
	<path fill="url(#SVGID_9_)" d="M132.992,58c0.75,0,1.906,0.496,1.906,1.25l0.344,39.25c0,0.75-1.285,1.434-2.25,1.5V57.875V58z"/>
	<path fill="#FFFFFF" fill-opacity="0.3451" d="M130.387,98.723v-39.75c0,0-0.254-0.566-0.57-0.566
		c-0.18-0.184-0.566,0.293-0.566,0.656l-0.363,39.66c0,0.75,0.617,0.75,0.93,0.75c0.57,0,0.57-0.297,0.57-0.66V98.723z"/>
	
		<linearGradient id="SVGID_10_" gradientUnits="userSpaceOnUse" x1="325.0693" y1="-292.5938" x2="275.6074" y2="-351.5402" gradientTransform="matrix(0.75 0 0 -0.75 -173.4421 -164.6404)">
		<stop  offset="0" style="stop-color:#9B9FA4"/>
		<stop  offset="0.15" style="stop-color:#D5DAE0"/>
		<stop  offset="0.52" style="stop-color:#B8BCC2"/>
		<stop  offset="0.69" style="stop-color:#A3A7AD"/>
		<stop  offset="0.8" style="stop-color:#9A9EA3"/>
		<stop  offset="0.92" style="stop-color:#91959A"/>
		<stop  offset="1" style="stop-color:#A7ABB1"/>
	</linearGradient>
	<path fill="url(#SVGID_10_)" d="M31.375,76.68c0-11.25,9.156-20.25,20.457-20.25c11.043,0,20.453,9.176,20.453,20.5
		c0.34,11-9.16,20.496-20.453,20.496C40.375,97.68,31.375,88.25,31.375,76.93V76.68z"/>
	
		<linearGradient id="SVGID_11_" gradientUnits="userSpaceOnUse" x1="316.5332" y1="-292.957" x2="275.2029" y2="-342.2126" gradientTransform="matrix(0.75 0 0 -0.75 -170.0784 -161.2693)">
		<stop  offset="0" style="stop-color:#7B828B"/>
		<stop  offset="0.15" style="stop-color:#AFB6C1"/>
		<stop  offset="0.52" style="stop-color:#939AA4"/>
		<stop  offset="0.69" style="stop-color:#828892"/>
		<stop  offset="0.8" style="stop-color:#7A8089"/>
		<stop  offset="0.92" style="stop-color:#737981"/>
		<stop  offset="1" style="stop-color:#858C95"/>
	</linearGradient>
	<path fill="url(#SVGID_11_)" d="M34.738,77.051c0-9.75,7.648-17.25,17.094-17.25c9.156,0,17.09,7.668,17.09,17.125
		c0.316,9.125-7.656,17.129-17.09,17.129c-9.594,0.246-17.094-7.668-17.094-17.129V77.051z"/>
	
		<linearGradient id="SVGID_12_" gradientUnits="userSpaceOnUse" x1="276.4102" y1="-304.7588" x2="273.0709" y2="-304.7588" gradientTransform="matrix(0.75 0 0 -0.75 -154.2024 -161.1677)">
		<stop  offset="0" style="stop-color:#858990"/>
		<stop  offset="0.03" style="stop-color:#CCD1D7"/>
		<stop  offset="0.08" style="stop-color:#AEB3BC"/>
		<stop  offset="0.64" style="stop-color:#ABB0B9"/>
		<stop  offset="0.95" style="stop-color:#A7ACB4"/>
		<stop  offset="1" style="stop-color:#7B7F85"/>
	</linearGradient>
	<path fill="url(#SVGID_12_)" d="M50.617,59.902h2.25c0,0,0.238,0.145,0.238,0.34l-0.238,13.91c0,0,0.078,0.484-0.117,0.484
		l-2.133,0.266c0,0-0.02-0.43-0.02-0.625L50.617,59.902c0,0,0.141,0,0.336,0H50.617z"/>
	
		<linearGradient id="SVGID_13_" gradientUnits="userSpaceOnUse" x1="227.502" y1="655.7295" x2="224.1582" y2="655.7295" gradientTransform="matrix(-0.375 0.6495 0.6495 0.375 -280.951 -311.1046)">
		<stop  offset="0" style="stop-color:#858990"/>
		<stop  offset="0.03" style="stop-color:#CCD1D7"/>
		<stop  offset="0.08" style="stop-color:#AEB3BC"/>
		<stop  offset="0.64" style="stop-color:#ABB0B9"/>
		<stop  offset="0.95" style="stop-color:#A7ACB4"/>
		<stop  offset="1" style="stop-color:#7B7F85"/>
	</linearGradient>
	<path fill="url(#SVGID_13_)" d="M67.387,84.152l-1.125,1.949c0,0-0.25,0.137-0.418,0.039l-11.922-7.164c0,0-0.449-0.16-0.352-0.332
		l0.824-1.992c0,0,0.398,0.211,0.566,0.309L67.387,84.152c0,0-0.07,0.125-0.168,0.293L67.387,84.152z"/>
	
		<linearGradient id="SVGID_14_" gradientUnits="userSpaceOnUse" x1="529.2266" y1="133.125" x2="525.8809" y2="133.125" gradientTransform="matrix(0.375 0.6495 -0.6495 0.375 -68.0641 -311.1046)">
		<stop  offset="0" style="stop-color:#858990"/>
		<stop  offset="0.03" style="stop-color:#CCD1D7"/>
		<stop  offset="0.08" style="stop-color:#AEB3BC"/>
		<stop  offset="0.64" style="stop-color:#ABB0B9"/>
		<stop  offset="0.95" style="stop-color:#A7ACB4"/>
		<stop  offset="1" style="stop-color:#7B7F85"/>
	</linearGradient>
	<path fill="url(#SVGID_14_)" d="M36.188,84.152l1.125,1.949c0,0,0.246,0.137,0.414,0.039l11.926-7.164c0,0,0.445-0.16,0.348-0.332
		l-0.824-1.992c0,0-0.398,0.211-0.566,0.309L36.188,84.152c0,0,0.07,0.125,0.168,0.293L36.188,84.152z"/>
	
		<linearGradient id="SVGID_15_" gradientUnits="userSpaceOnUse" x1="280.8086" y1="-294.4126" x2="273.4381" y2="-303.1964" gradientTransform="matrix(0.75 0 0 -0.75 -156.0364 -147.196)">
		<stop  offset="0" style="stop-color:#94989D"/>
		<stop  offset="0.15" style="stop-color:#CDD1D8"/>
		<stop  offset="0.52" style="stop-color:#B0B4BA"/>
		<stop  offset="0.69" style="stop-color:#9CA0A6"/>
		<stop  offset="0.8" style="stop-color:#93979C"/>
		<stop  offset="0.92" style="stop-color:#8B8E93"/>
		<stop  offset="1" style="stop-color:#A0A4A9"/>
	</linearGradient>
	<path fill="url(#SVGID_15_)" d="M48.781,76.871c0-1.5,1.367-3,3.051-3c1.449,0,3.047,1.371,3.047,3.059
		c-0.098,1.441-1.363,3.055-3.047,3.055c-1.551-0.113-3.051-1.367-3.051-3.055V76.871z"/>
</g>
</svg>
