<?xml version="1.0" encoding="utf-8"?>
<!-- Generator: Adobe Illustrator 16.0.0, SVG Export Plug-In . SVG Version: 6.00 Build 0)  -->
<!DOCTYPE svg PUBLIC "-//W3C//DTD SVG 1.1//EN" "http://www.w3.org/Graphics/SVG/1.1/DTD/svg11.dtd">
<svg preserveAspectRatio="none" version="1.1" id="图层_1" xmlns="http://www.w3.org/2000/svg" xmlns:xlink="http://www.w3.org/1999/xlink" x="0px" y="0px"
	 width="141.77px" height="142.146px" viewBox="-0.027 -0.083 141.77 142.146"
	 enable-background="new -0.027 -0.083 141.77 142.146" xml:space="preserve">
<g id="surface376">
	
		<linearGradient id="SVGID_1_" gradientUnits="userSpaceOnUse" x1="290.5938" y1="-301.7573" x2="290.5938" y2="-294.7573" gradientTransform="matrix(0.75 0 0 -0.75 -146.0227 -219.7712)">
		<stop  offset="0" style="stop-color:#555555"/>
		<stop  offset="0.12" style="stop-color:#0D0D0D"/>
		<stop  offset="0.23" style="stop-color:#171717"/>
		<stop  offset="0.38" style="stop-color:#181818"/>
		<stop  offset="0.6" style="stop-color:#313131"/>
		<stop  offset="0.79" style="stop-color:#555555"/>
		<stop  offset="0.89" style="stop-color:#282828"/>
		<stop  offset="1" style="stop-color:#0B0B0B"/>
	</linearGradient>
	<path fill="url(#SVGID_1_)" d="M58.797,1.297h26.25v5.25h-26.25V1.297z"/>
	
		<linearGradient id="SVGID_2_" gradientUnits="userSpaceOnUse" x1="286.0898" y1="-321.7593" x2="286.0898" y2="-294.7324" gradientTransform="matrix(0.75 0 0 -0.75 -163.3674 -221.1326)">
		<stop  offset="0" style="stop-color:#5D5D5D"/>
		<stop  offset="0.12" style="stop-color:#0A0A0A"/>
		<stop  offset="0.23" style="stop-color:#252525"/>
		<stop  offset="0.38" style="stop-color:#272727"/>
		<stop  offset="0.6" style="stop-color:#3B3B3B"/>
		<stop  offset="0.79" style="stop-color:#5A5A5A"/>
		<stop  offset="0.89" style="stop-color:#343434"/>
		<stop  offset="1" style="stop-color:#151515"/>
	</linearGradient>
	<path fill="url(#SVGID_2_)" d="M41.449,20.188h7.5l0.152-5.992c0.598-6.758,6.613-6.621,6.613-6.621l5.234-0.137v-7.5h-12.75
		c0,0-6.688-0.758-6.688,7.012L41.449,20.188z"/>
	
		<linearGradient id="SVGID_3_" gradientUnits="userSpaceOnUse" x1="-317.3608" y1="-321.7593" x2="-317.3608" y2="-294.7319" gradientTransform="matrix(-0.75 0 0 -0.75 -145.0281 -221.1326)">
		<stop  offset="0" style="stop-color:#5D5D5D"/>
		<stop  offset="0.12" style="stop-color:#0A0A0A"/>
		<stop  offset="0.23" style="stop-color:#252525"/>
		<stop  offset="0.38" style="stop-color:#272727"/>
		<stop  offset="0.6" style="stop-color:#3B3B3B"/>
		<stop  offset="0.79" style="stop-color:#5A5A5A"/>
		<stop  offset="0.89" style="stop-color:#343434"/>
		<stop  offset="1" style="stop-color:#151515"/>
	</linearGradient>
	<path fill="url(#SVGID_3_)" d="M102.742,20.188h-7.5l-0.129-6C94.492,7.438,88.5,7.566,88.5,7.566l-5.258-0.129v-7.5h12.75
		c0,0,6.711-0.766,6.711,7.004L102.742,20.188z"/>
	
		<linearGradient id="SVGID_4_" gradientUnits="userSpaceOnUse" x1="273.0908" y1="-321.7578" x2="289.0908" y2="-321.7578" gradientTransform="matrix(0.75 0 0 -0.75 -94.7087 -122.3416)">
		<stop  offset="0" style="stop-color:#BE6431"/>
		<stop  offset="0.09" style="stop-color:#C16632"/>
		<stop  offset="0.36" style="stop-color:#F3A78B"/>
		<stop  offset="0.56" style="stop-color:#D67138"/>
		<stop  offset="0.83" style="stop-color:#AC5A2B"/>
		<stop  offset="1" style="stop-color:#7B3E1C"/>
	</linearGradient>
	<path fill="url(#SVGID_4_)" d="M110.109,98.727h12v40.5h-12V98.727z"/>
	
		<linearGradient id="SVGID_5_" gradientUnits="userSpaceOnUse" x1="285.4932" y1="-294.7378" x2="285.4932" y2="-300.7583" gradientTransform="matrix(0.75 0 0 -0.75 -98.1648 -83.5056)">
		<stop  offset="0" style="stop-color:#BE6431"/>
		<stop  offset="0.09" style="stop-color:#C16632"/>
		<stop  offset="0.36" style="stop-color:#F3A78B"/>
		<stop  offset="0.56" style="stop-color:#D67138"/>
		<stop  offset="0.83" style="stop-color:#AC5A2B"/>
		<stop  offset="1" style="stop-color:#7B3E1C"/>
	</linearGradient>
	<path fill="url(#SVGID_5_)" d="M108.902,137.563h14.25c1.5,0,2.09,0.918,2.09,2.066c0.16,0.934-0.945,2.078-2.094,2.078
		l-14.246,0.355c-1.5,0-2.25-1.285-2.25-2.434c0-1.316,0.914-2.082,2.063-2.082L108.902,137.563z"/>
	
		<linearGradient id="SVGID_6_" gradientUnits="userSpaceOnUse" x1="273.0918" y1="-321.7578" x2="289.0918" y2="-321.7578" gradientTransform="matrix(0.75 0 0 -0.75 -185.7131 -122.3416)">
		<stop  offset="0" style="stop-color:#BE6431"/>
		<stop  offset="0.09" style="stop-color:#C16632"/>
		<stop  offset="0.36" style="stop-color:#F3A78B"/>
		<stop  offset="0.56" style="stop-color:#D67138"/>
		<stop  offset="0.83" style="stop-color:#AC5A2B"/>
		<stop  offset="1" style="stop-color:#7B3E1C"/>
	</linearGradient>
	<path fill="url(#SVGID_6_)" d="M19.105,98.727h12v40.5h-12V98.727z"/>
	
		<linearGradient id="SVGID_7_" gradientUnits="userSpaceOnUse" x1="285.4932" y1="-294.7378" x2="285.4932" y2="-300.7583" gradientTransform="matrix(0.75 0 0 -0.75 -189.1692 -83.5056)">
		<stop  offset="0" style="stop-color:#BE6431"/>
		<stop  offset="0.09" style="stop-color:#C16632"/>
		<stop  offset="0.36" style="stop-color:#F3A78B"/>
		<stop  offset="0.56" style="stop-color:#D67138"/>
		<stop  offset="0.83" style="stop-color:#AC5A2B"/>
		<stop  offset="1" style="stop-color:#7B3E1C"/>
	</linearGradient>
	<path fill="url(#SVGID_7_)" d="M17.898,137.563h14.25c1.5,0,2.09,0.918,2.09,2.066c0.16,0.934-0.945,2.078-2.094,2.078
		l-14.246,0.355c-1.5,0-2.25-1.285-2.25-2.434c0-1.316,0.914-2.082,2.063-2.082L17.898,137.563z"/>
	
		<linearGradient id="SVGID_8_" gradientUnits="userSpaceOnUse" x1="360.0889" y1="-294.7583" x2="360.0889" y2="-421.7583" gradientTransform="matrix(0.75 0 0 -0.75 -197.9773 -201.5027)">
		<stop  offset="0" style="stop-color:#BE6431"/>
		<stop  offset="0.09" style="stop-color:#C16632"/>
		<stop  offset="0.36" style="stop-color:#F3A78B"/>
		<stop  offset="0.56" style="stop-color:#D67138"/>
		<stop  offset="0.83" style="stop-color:#AC5A2B"/>
		<stop  offset="1" style="stop-color:#7B3E1C"/>
	</linearGradient>
	<path fill="url(#SVGID_8_)" d="M6.84,19.566h130.5v95.25H6.84V19.566z"/>
	
		<linearGradient id="SVGID_9_" gradientUnits="userSpaceOnUse" x1="278.165" y1="-294.7573" x2="278.165" y2="-437.856" gradientTransform="matrix(0.75 0 0 -0.75 -204.8445 -207.5759)">
		<stop  offset="0" style="stop-color:#A44633"/>
		<stop  offset="0.09" style="stop-color:#A64734"/>
		<stop  offset="0.36" style="stop-color:#D58175"/>
		<stop  offset="0.56" style="stop-color:#B8503A"/>
		<stop  offset="0.83" style="stop-color:#943F2D"/>
		<stop  offset="1" style="stop-color:#692A1D"/>
	</linearGradient>
	<path fill="url(#SVGID_9_)" d="M2.973,13.492h1.5c1.5,0,3.113,1.336,3.113,3.02l-0.113,101.23c0,1.5-1.25,3.074-2.93,3.074
		l-1.57-0.074c-1.5,0-3-1.324-3-3.004V16.492c0-1.5,1.359-3,3.039-3H2.973z"/>
	
		<linearGradient id="SVGID_10_" gradientUnits="userSpaceOnUse" x1="276.5889" y1="-294.7573" x2="276.5889" y2="-437.856" gradientTransform="matrix(0.75 0 0 -0.75 -204.8445 -207.5759)">
		<stop  offset="0" style="stop-color:#BE6431"/>
		<stop  offset="0.09" style="stop-color:#C16632"/>
		<stop  offset="0.36" style="stop-color:#F3A78B"/>
		<stop  offset="0.56" style="stop-color:#D67138"/>
		<stop  offset="0.83" style="stop-color:#AC5A2B"/>
		<stop  offset="1" style="stop-color:#7B3E1C"/>
	</linearGradient>
	<path fill="url(#SVGID_10_)" d="M2.223,13.492h0.75c1.5,0,2.219,1.336,2.219,3.02l0.031,101.23c0,1.5-0.965,3.074-2.117,3.074
		l-0.883-0.074c-1.5,0-2.25-1.324-2.25-3.004V16.492c0-1.5,0.934-3,2.086-3H2.223z"/>
	
		<linearGradient id="SVGID_11_" gradientUnits="userSpaceOnUse" x1="-325.2847" y1="-294.7573" x2="-325.2847" y2="-437.856" gradientTransform="matrix(-0.75 0 0 -0.75 -106.0271 -207.5759)">
		<stop  offset="0" style="stop-color:#A44633"/>
		<stop  offset="0.09" style="stop-color:#A64734"/>
		<stop  offset="0.36" style="stop-color:#D58175"/>
		<stop  offset="0.56" style="stop-color:#B8503A"/>
		<stop  offset="0.83" style="stop-color:#943F2D"/>
		<stop  offset="1" style="stop-color:#692A1D"/>
	</linearGradient>
	<path fill="url(#SVGID_11_)" d="M138.742,13.492h-1.5c-1.5,0-3.109,1.336-3.109,3.02l0.109,101.23c0,1.5,1.25,3.074,2.934,3.074
		l1.566-0.074c1.5,0,3-1.324,3-3.004V16.492c0-1.5-1.359-3-3.039-3H138.742z"/>
	
		<linearGradient id="SVGID_12_" gradientUnits="userSpaceOnUse" x1="-326.8579" y1="-294.7573" x2="-326.8579" y2="-437.856" gradientTransform="matrix(-0.75 0 0 -0.75 -106.0271 -207.5759)">
		<stop  offset="0" style="stop-color:#BE6431"/>
		<stop  offset="0.09" style="stop-color:#C16632"/>
		<stop  offset="0.36" style="stop-color:#F3A78B"/>
		<stop  offset="0.56" style="stop-color:#D67138"/>
		<stop  offset="0.83" style="stop-color:#AC5A2B"/>
		<stop  offset="1" style="stop-color:#7B3E1C"/>
	</linearGradient>
	<path fill="url(#SVGID_12_)" d="M139.492,13.492h-0.75c-1.5,0-2.219,1.336-2.219,3.02l-0.031,101.23c0,1.5,0.965,3.074,2.117,3.074
		l0.883-0.074c1.5,0,2.25-1.324,2.25-3.004V16.492c0-1.5-0.93-3-2.082-3H139.492z"/>
	
		<linearGradient id="SVGID_13_" gradientUnits="userSpaceOnUse" x1="272.2861" y1="-296.9702" x2="281.6813" y2="-300.3898" gradientTransform="matrix(0.75 0 0 -0.75 -196.0251 -157.1619)">
		<stop  offset="0" style="stop-color:#858D89"/>
		<stop  offset="0.11" style="stop-color:#B4BEBA"/>
		<stop  offset="0.39" style="stop-color:#DBDFDD"/>
		<stop  offset="0.55" style="stop-color:#B5BEBB"/>
		<stop  offset="0.77" style="stop-color:#8A928F"/>
	</linearGradient>
	<path fill="url(#SVGID_13_)" stroke="#A74835" stroke-linejoin="bevel" stroke-miterlimit="10" d="M8.793,66.906
		c0-1.5,1.309-3,2.918-3c1.582,0,2.922,1.309,2.922,2.922c0.16,1.578-1.309,2.922-2.922,2.922c-1.418,0.156-2.918-1.309-2.918-2.922
		V66.906z"/>
	
		<linearGradient id="SVGID_14_" gradientUnits="userSpaceOnUse" x1="272.2861" y1="-296.9702" x2="281.6819" y2="-300.39" gradientTransform="matrix(0.75 0 0 -0.75 -77.7966 -157.1619)">
		<stop  offset="0" style="stop-color:#858D89"/>
		<stop  offset="0.11" style="stop-color:#B4BEBA"/>
		<stop  offset="0.39" style="stop-color:#DBDFDD"/>
		<stop  offset="0.55" style="stop-color:#B5BEBB"/>
		<stop  offset="0.77" style="stop-color:#8A928F"/>
	</linearGradient>
	<path fill="url(#SVGID_14_)" stroke="#A74835" stroke-linejoin="bevel" stroke-miterlimit="10" d="M127.023,66.906
		c0-1.5,1.305-3,2.918-3c1.582,0,2.918,1.309,2.918,2.922c0.164,1.578-1.305,2.922-2.918,2.922
		c-1.418,0.156-2.918-1.309-2.918-2.922V66.906z"/>
	<path stroke="#000000" stroke-width="0.25" stroke-linejoin="bevel" stroke-miterlimit="10" d="M21.551,32h53.25v24h-53.25V32z"/>
	<path fill="#3E3938" stroke="#000000" stroke-width="0.25" stroke-linejoin="bevel" stroke-miterlimit="10" d="M22.805,33.496h51
		v21h-51V33.496z"/>
	<path fill="#FFFFFF" fill-opacity="0.1961" d="M21.551,32h9.75l36.75,24h-46.5V32z"/>
	
		<linearGradient id="SVGID_15_" gradientUnits="userSpaceOnUse" x1="272.2842" y1="-296.9741" x2="281.6799" y2="-300.3939" gradientTransform="matrix(0.75 0 0 -0.75 -196.0251 -196.5046)">
		<stop  offset="0" style="stop-color:#858D89"/>
		<stop  offset="0.11" style="stop-color:#B4BEBA"/>
		<stop  offset="0.39" style="stop-color:#DBDFDD"/>
		<stop  offset="0.55" style="stop-color:#B5BEBB"/>
		<stop  offset="0.77" style="stop-color:#8A928F"/>
	</linearGradient>
	<path fill="url(#SVGID_15_)" stroke="#A74835" stroke-linejoin="bevel" stroke-miterlimit="10" d="M8.793,27.566
		c0-1.5,1.309-3,2.918-3c1.582,0,2.922,1.305,2.922,2.918c0.16,1.582-1.309,2.922-2.922,2.922c-1.418,0.16-2.918-1.309-2.918-2.922
		V27.566z"/>
	
		<linearGradient id="SVGID_16_" gradientUnits="userSpaceOnUse" x1="272.2852" y1="-296.9722" x2="281.6809" y2="-300.3919" gradientTransform="matrix(0.75 0 0 -0.75 -196.0251 -118.3572)">
		<stop  offset="0" style="stop-color:#858D89"/>
		<stop  offset="0.11" style="stop-color:#B4BEBA"/>
		<stop  offset="0.39" style="stop-color:#DBDFDD"/>
		<stop  offset="0.55" style="stop-color:#B5BEBB"/>
		<stop  offset="0.77" style="stop-color:#8A928F"/>
	</linearGradient>
	<path fill="url(#SVGID_16_)" stroke="#A74835" stroke-linejoin="bevel" stroke-miterlimit="10" d="M8.793,105.711
		c0-1.5,1.309-3,2.918-3c1.582,0,2.922,1.309,2.922,2.922c0.16,1.578-1.309,2.922-2.922,2.922c-1.418,0.156-2.918-1.309-2.918-2.922
		V105.711z"/>
	
		<linearGradient id="SVGID_17_" gradientUnits="userSpaceOnUse" x1="272.2842" y1="-296.9741" x2="281.6799" y2="-300.3939" gradientTransform="matrix(0.75 0 0 -0.75 -77.7966 -196.5046)">
		<stop  offset="0" style="stop-color:#858D89"/>
		<stop  offset="0.11" style="stop-color:#B4BEBA"/>
		<stop  offset="0.39" style="stop-color:#DBDFDD"/>
		<stop  offset="0.55" style="stop-color:#B5BEBB"/>
		<stop  offset="0.77" style="stop-color:#8A928F"/>
	</linearGradient>
	<path fill="url(#SVGID_17_)" stroke="#A74835" stroke-linejoin="bevel" stroke-miterlimit="10" d="M127.023,27.566
		c0-1.5,1.305-3,2.918-3c1.582,0,2.918,1.305,2.918,2.918c0.164,1.582-1.305,2.922-2.918,2.922c-1.418,0.16-2.918-1.309-2.918-2.922
		V27.566z"/>
	
		<linearGradient id="SVGID_18_" gradientUnits="userSpaceOnUse" x1="272.2861" y1="-296.9712" x2="281.6813" y2="-300.3907" gradientTransform="matrix(0.75 0 0 -0.75 -77.7966 -118.3572)">
		<stop  offset="0" style="stop-color:#858D89"/>
		<stop  offset="0.11" style="stop-color:#B4BEBA"/>
		<stop  offset="0.39" style="stop-color:#DBDFDD"/>
		<stop  offset="0.55" style="stop-color:#B5BEBB"/>
		<stop  offset="0.77" style="stop-color:#8A928F"/>
	</linearGradient>
	<path fill="url(#SVGID_18_)" stroke="#A74835" stroke-linejoin="bevel" stroke-miterlimit="10" d="M127.023,105.711
		c0-1.5,1.305-3,2.918-3c1.582,0,2.918,1.309,2.918,2.922c0.164,1.578-1.305,2.922-2.918,2.922
		c-1.418,0.156-2.918-1.309-2.918-2.922V105.711z"/>
</g>
</svg>
