<?xml version="1.0" encoding="utf-8"?>
<!-- Generator: Adobe Illustrator 16.0.0, SVG Export Plug-In . SVG Version: 6.00 Build 0)  -->
<!DOCTYPE svg PUBLIC "-//W3C//DTD SVG 1.1//EN" "http://www.w3.org/Graphics/SVG/1.1/DTD/svg11.dtd">
<svg preserveAspectRatio="none" version="1.1" id="图层_1" xmlns="http://www.w3.org/2000/svg" xmlns:xlink="http://www.w3.org/1999/xlink" x="0px" y="0px"
	 width="141.77px" height="74.648px" viewBox="-0.059 33.422 141.77 74.648" enable-background="new -0.059 33.422 141.77 74.648"
	 xml:space="preserve">
<g id="surface391">
	
		<linearGradient id="SVGID_1_" gradientUnits="userSpaceOnUse" x1="437.4893" y1="-162.8604" x2="475.4893" y2="-162.8604" gradientTransform="matrix(0 0.75 -0.75 0 -93.5173 -271.3826)">
		<stop  offset="0" style="stop-color:#9AA1AA"/>
		<stop  offset="0.22" style="stop-color:#AEB5C0"/>
		<stop  offset="0.57" style="stop-color:#DCE0E5"/>
		<stop  offset="0.84" style="stop-color:#CACFD7"/>
		<stop  offset="1" style="stop-color:#A7AFB9"/>
	</linearGradient>
	<path fill="url(#SVGID_1_)" d="M4.254,56.734v28.5h48.75v-28.5H4.254z"/>
	
		<linearGradient id="SVGID_2_" gradientUnits="userSpaceOnUse" x1="437.4893" y1="-133.356" x2="478.7139" y2="-133.356" gradientTransform="matrix(0 0.75 -0.75 0 -97.822 -272.9763)">
		<stop  offset="0" style="stop-color:#8F969D"/>
		<stop  offset="0.64" style="stop-color:#D3D8DE"/>
		<stop  offset="1" style="stop-color:#9AA0A8"/>
	</linearGradient>
	<path fill="url(#SVGID_2_)" d="M-0.051,55.891v29.25c0,0.75,0.953,0.918,2.145,0.918c0.855-0.168,2.156-0.449,2.156-1.004
		l0.199-29.164c0,0-1.168-0.75-2.355-0.75c-1.395,0-2.152,0.449-2.152,1L-0.051,55.891z"/>
	
		<linearGradient id="SVGID_3_" gradientUnits="userSpaceOnUse" x1="437.4893" y1="-131.3604" x2="478.4893" y2="-131.3604" gradientTransform="matrix(0 0.75 -0.75 0 -94.8884 -272.8586)">
		<stop  offset="0" style="stop-color:#626974"/>
		<stop  offset="0.66" style="stop-color:#CCD0D5"/>
		<stop  offset="1" style="stop-color:#5E6670"/>
	</linearGradient>
	<path fill="url(#SVGID_3_)" d="M2.883,86.008c0.75,0,1.367-0.52,1.367-1.066l0.133-28.934c0,0-0.809-0.699-1.5-0.75v30.684V86.008z
		"/>
	<path fill="#FFFFFF" fill-opacity="0.3216" d="M0.191,56.395v28.5c0,0.75,0.184,0.66,0.41,0.66c0.34,0.09,0.406-0.215,0.406-0.48
		l-0.066-28.68c0-0.75-0.117-0.75-0.34-0.75c-0.41,0-0.41,0.215-0.41,0.48V56.395z"/>
	
		<linearGradient id="SVGID_4_" gradientUnits="userSpaceOnUse" x1="437.4912" y1="440.5889" x2="475.4912" y2="440.5889" gradientTransform="matrix(0 0.75 0.75 0 -217.4221 -249.3723)">
		<stop  offset="0" style="stop-color:#9AA1AA"/>
		<stop  offset="0.22" style="stop-color:#AEB5C0"/>
		<stop  offset="0.57" style="stop-color:#DCE0E5"/>
		<stop  offset="0.84" style="stop-color:#CACFD7"/>
		<stop  offset="1" style="stop-color:#A7AFB9"/>
	</linearGradient>
	<path fill="url(#SVGID_4_)" d="M137.395,78.746v28.5h-48.75v-28.5H137.395z"/>
	
		<linearGradient id="SVGID_5_" gradientUnits="userSpaceOnUse" x1="437.4922" y1="470.0967" x2="478.7158" y2="470.0967" gradientTransform="matrix(0 0.75 0.75 0 -213.1174 -250.9666)">
		<stop  offset="0" style="stop-color:#8F969D"/>
		<stop  offset="0.64" style="stop-color:#D3D8DE"/>
		<stop  offset="1" style="stop-color:#9AA0A8"/>
	</linearGradient>
	<path fill="url(#SVGID_5_)" d="M141.699,77.902v29.25c0,0.75-0.953,0.918-2.141,0.918c-0.859-0.168-2.16-0.453-2.16-1.004
		l-0.199-29.164c0,0,1.168-0.75,2.359-0.75c1.391,0,2.152,0.445,2.152,1L141.699,77.902z"/>
	
		<linearGradient id="SVGID_6_" gradientUnits="userSpaceOnUse" x1="437.4912" y1="472.0938" x2="478.4912" y2="472.0938" gradientTransform="matrix(0 0.75 0.75 0 -216.0505 -250.8489)">
		<stop  offset="0" style="stop-color:#626974"/>
		<stop  offset="0.66" style="stop-color:#CCD0D5"/>
		<stop  offset="1" style="stop-color:#5E6670"/>
	</linearGradient>
	<path fill="url(#SVGID_6_)" d="M138.77,108.02c-0.75,0-1.371-0.52-1.371-1.066L137.27,78.02c0,0,0.809-0.699,1.5-0.75v30.684
		V108.02z"/>
	<path fill="#FFFFFF" fill-opacity="0.3216" d="M141.457,78.406v28.5c0,0.75-0.184,0.66-0.406,0.66
		c-0.344,0.09-0.41-0.215-0.41-0.48l0.066-28.68c0-0.75,0.117-0.75,0.344-0.75c0.406,0,0.406,0.215,0.406,0.48V78.406z"/>
	
		<radialGradient id="SVGID_7_" cx="486.8975" cy="424.4482" r="69.3326" gradientTransform="matrix(0 0.75 0.75 0 -238.0745 -294.571)" gradientUnits="userSpaceOnUse">
		<stop  offset="0" style="stop-color:#C7CBD1"/>
		<stop  offset="0.54" style="stop-color:#B6BCC4"/>
		<stop  offset="0.74" style="stop-color:#D4D8DD"/>
		<stop  offset="0.91" style="stop-color:#C4C7CD"/>
		<stop  offset="1" style="stop-color:#B6BCC4"/>
	</radialGradient>
	<path fill="url(#SVGID_7_)" stroke="#D4D6DB" stroke-width="0.25" stroke-linejoin="bevel" stroke-miterlimit="10" d="
		M79.996,33.547c20.25,0,36.75,16.59,36.75,37.055c0,20.695-16.336,37.055-36.484,37.055c-20.516,0.141-36.484-16.59-36.484-37.055
		c0.219-20.555,16.332-37.055,36.484-37.055H79.996z"/>
	<path fill="#FFFFFF" fill-opacity="0.2745" d="M80.59,39.805c16.5,0,30,13.789,30,30.797c0,17.203-13.578,30.793-30.328,30.793
		c-16.922-0.09-30.328-13.785-30.328-30.793C49.84,53.305,63.512,39.805,80.262,39.805H80.59z"/>
	<path fill="#FFFFFF" fill-opacity="0.1255" d="M79.949,39.844c15.75,0,24.75,12.383,24.75,12.383l-45,40.117
		c0,0-9.832-7.543-9.832-21.703c0.082-17.297,13.594-30.797,30.336-30.797H79.949z"/>
</g>
</svg>
