<?xml version="1.0" encoding="utf-8"?>
<!-- Generator: Adobe Illustrator 16.0.0, SVG Export Plug-In . SVG Version: 6.00 Build 0)  -->
<!DOCTYPE svg PUBLIC "-//W3C//DTD SVG 1.1//EN" "http://www.w3.org/Graphics/SVG/1.1/DTD/svg11.dtd">
<svg preserveAspectRatio="none" version="1.1" id="图层_1" xmlns="http://www.w3.org/2000/svg" xmlns:xlink="http://www.w3.org/1999/xlink" x="0px" y="0px"
	 width="340.844px" height="196.352px" viewBox="30 43.348 340.844 196.352" enable-background="new 30 43.348 340.844 196.352"
	 xml:space="preserve">
<g id="surface771">
	<path fill="#763C30" d="M91.094,84.449l279-29.25v129.75l-279,54.75V84.449z"/>
	<path fill="#B1893D" d="M91.094,94.949v-10.5l279-29.25v15l-30,11.25l-91.5,13.5l-84,9.75L91.094,94.949z"/>
	<path fill="#C89A46" d="M90.75,84.387L30,68.637v135.75l60.75,35.25V84.387z"/>
	<path fill="#DAA94D" d="M30,68.848l60.75,15.75l279.75-29.25l-87.75-12L30,68.848z"/>
	<path fill="#665240" d="M91.094,111.836v-17.25c0,0,45.633-10.715,74.484,1.137c-0.234,0.363,15.617,1.27,24.512-7.617
		c9.004-8.52,19.48,2.539,38.965,2.539c19.539,0.191,30.492-13.543,49.125-10.16c18.414,3.602,32.188,1.695,52.516-6.77
		c20.648-8.379,39.793-6.758,39.793-6.758l0.355,13.379l-64.5,24l-96.75,15.75L91.094,111.836z"/>
	<path fill="#4B311E" d="M91.094,135.75v-24c0,0,65.961-22.801,87.137-15.18c20.863,7.68,25.41,23.699,50.824,11.848
		c25.539-11.668,41.504-27.086,60.984-17.773c19.305,9.105,20.328,4.23,34.727-4.234C339.344,78,370.488,78,370.488,78l0.355,25.5
		l-28.5,18.75c0,0-79.832,11.137-81.949,13.254c-2.051,1.746-99.105,8.523-107.574,8.523c-8.477-0.027-61.727-11.063-61.727-8.523
		V135.75z"/>
	<path fill="#665240" d="M91.094,159.988v-24.75c0,0,27.844-25.973,70.195-19.203c42.305,6.453,42.352,20.316,80.469,5.926
		c38.336-14.473,49.977-13.543,66.07-7.617c15.766,5.895,13.551-6.773,31.34-11.004c17.426-4.102,30.477-0.086,31.32-0.086
		l0.355,26.734l-18,12c0,0-39.934,19.754-45.016,19.754c-5.234-0.254-55.906,3.387-55.906,3.387l-49.828,2.359l-45.75,15
		c0,0-30.629-2.125-35.711-2.125c-4.789-0.125-29.539-18.621-29.539-20.313V159.988z"/>
	<path fill="#4B311E" d="M91.094,192.824v-33c0,0,9.953-14.059,40.445-3.055c18.055,6.055,29.75-2.645,44.996-9.414
		c15.059-7.031,43.332,5.238,54.953,0.105c20.855-9.387,33.988-17.035,67.867-10.266c33.988,6.879,30.441-15.234,49.078-15.234
		c18.66,0.363,22.055-3.387,22.055-3.387l0.355,24.75l-9,16.5c0,0-57.406,18.848-62.488,18.848c-5.012-0.098-91.48,0-91.48,0
		l-37.281,14.152c0,0-27.832,11.199-35.508,11.199c-7.992,0.051-43.992-9.27-43.992-10.961V192.824z"/>
	<path fill="#438C91" d="M91.094,216.535v-23.25c0,0,12.598-1.918,22.762-8.688c10.238-7.063,24.566,0,36.422-2.539
		c12.066-2.273,24.566-23.594,45.742-15.129c21.074,8.355,51.563,0.844,70.199-7.621c18.375-8.773,36.422-14.387,64.371-6.77
		c28.254,7.746,39.898-11.004,39.898-11.004l0.355,43.5l-9.75-4.5l-59.25,12.75l-81,15.75l-99,15L91.094,216.535z"/>
	<path fill="#494236" d="M91.094,239.25l279-54.75v-21.75c0,0-13.141,20.156-44.48,16.77c-31.27-3.27-11.855,5.078-51.668,12.695
		c-39.602,7.285-31.34-9.313-58.445-1.691c-26.906,7.477-24.563,28.777-52.516,19.465c-27.641-8.988-55.059-4.23-71.891,6.773
		V239.25z"/>
	<path fill="#494236" d="M90.75,239.348L30,204.098v-19.5l60.75,32.25V239.348z"/>
	<path fill="#438C91" d="M90.75,216.879L30,184.629v-19.5l60.75,26.25V216.879z"/>
	<path fill="#4B311E" d="M90.75,194.234L30,164.984v-28.5l60.75,25.5V194.234z"/>
	<path fill="#665240" d="M90.75,162.434L30,139.934v-27.75l60.75,23.25V162.434z"/>
	<path fill="#4B311E" d="M90.75,135.258L30,112.008v-19.5l60.75,19.5V135.258z"/>
	<path fill="#665240" d="M90.75,111.578L30,92.828v-17.25l60.75,19.5V111.578z"/>
</g>
</svg>
