<?xml version="1.0" encoding="utf-8"?>
<!-- Generator: Adobe Illustrator 16.0.0, SVG Export Plug-In . SVG Version: 6.00 Build 0)  -->
<!DOCTYPE svg PUBLIC "-//W3C//DTD SVG 1.1//EN" "http://www.w3.org/Graphics/SVG/1.1/DTD/svg11.dtd">
<svg preserveAspectRatio="none" version="1.1" id="图层_1" xmlns="http://www.w3.org/2000/svg" xmlns:xlink="http://www.w3.org/1999/xlink" x="0px" y="0px"
	 width="341.676px" height="211.75px" viewBox="29.5 35.602 341.676 211.75" enable-background="new 29.5 35.602 341.676 211.75"
	 xml:space="preserve">
<g id="surface1011">
	<path fill="#CFEBF6" stroke="#CFEBF6" stroke-linejoin="bevel" stroke-miterlimit="10" d="M38.031,46.605h152.25v192H38.031V46.605
		z"/>
	<path fill="#FDE9D0" stroke="#EACD98" stroke-linejoin="bevel" stroke-miterlimit="10" d="M38.25,36.102H30v210.75h170.25V36.102
		H192v202.5H38.25V36.102z"/>
	<path fill="#595757" stroke="#595757" stroke-linejoin="bevel" stroke-miterlimit="10" d="M40.586,238.117h150l-0.75-36.75
		c0,0-9.957-1.688-13.918-0.211c-4.082,1.711-5.016,0.594-7.391,0.594c-2.691,0.367-10.559-1.48-10.559-1.48
		c0.367,0.348-5.543,1.777-7.125,0.887c-1.508-0.539-1.059-2.367-3.168-0.887c-2.09,1.848-2.902,2.961-6.863,0.887
		c-4.227-2.039-6.598,0-10.559,0c-4.168,0.211-5.016,2.664-11.086,0c-5.832-2.789-3.539,0-8.973,0
		c-5.859,0.211-3.168,2.367-8.977,0.891c-5.883-1.43-12.141,0.59-12.668,0.59c-0.715,0.23-1.32,1.48-5.809,0
		c-4.656-1.27-6.336-2.957-7.918-2.957c-1.238,0.188-7.391,1.477-8.711,1.477c-1.527,0.211-2.113,2.074-6.336,0.594
		c-4.191-1.133-3.957-2.367-4.488-2.367c-0.453-0.266-3.43-2.664-5.277-1.773c-1.926,0.758-7.523-0.742-5.148-0.742
		c0.223,0-3.715-0.148-4.277,1.629V238.117z"/>
	<path fill="#CFEBF6" stroke="#CFEBF6" stroke-linejoin="bevel" stroke-miterlimit="10" d="M208.453,46.605h152.25v192h-152.25
		V46.605z"/>
	<path fill="#FDE9D0" stroke="#EACD98" stroke-linejoin="bevel" stroke-miterlimit="10" d="M208.676,36.102h-8.25v210.75h170.25
		V36.102h-8.25v202.5h-153.75V36.102z"/>
</g>
</svg>
