<?xml version="1.0" encoding="utf-8"?>
<!-- Generator: Adobe Illustrator 16.0.0, SVG Export Plug-In . SVG Version: 6.00 Build 0)  -->
<!DOCTYPE svg PUBLIC "-//W3C//DTD SVG 1.1//EN" "http://www.w3.org/Graphics/SVG/1.1/DTD/svg11.dtd">
<svg preserveAspectRatio="none" version="1.1" id="图层_1" xmlns="http://www.w3.org/2000/svg" xmlns:xlink="http://www.w3.org/1999/xlink" x="0px" y="0px"
	 width="341.5px" height="287.485px" viewBox="29.5 -2.375 341.5 287.485" enable-background="new 29.5 -2.375 341.5 287.485"
	 xml:space="preserve">
<g id="surface1016">
	<path fill="#CFEBF6" stroke="#CFEBF6" stroke-linejoin="bevel" stroke-miterlimit="10" d="M39.406,9.934h321v222.75l-160.5,39
		l-160.5-39V9.934z"/>
	<path fill="#595757" stroke="#595757" stroke-linejoin="bevel" stroke-miterlimit="10" d="M39.777,232.367l160.5,39.75l160.5-39.75
		v-12c0,0-21.531-2.914-30.043-0.105c-8.207,3.105-10.781,1.125-15.891,1.125c-5.066-0.27-22.699-2.809-22.699-2.809
		c-0.367,0.289-11.918,3.371-15.324,1.684c-3.043-1.395-2.27-4.492-6.809-1.684c-4.484,2.539-6.242,5.617-14.754,1.684
		c-8.48-3.645-14.188,0-22.699,0c-8.281,0.105-10.785,5.059-23.836,0c-12.945-5.145-7.379,0-19.297,0
		c-11.648,0.105-6.809,4.496-19.293,1.688c-12.605-3.082-26.105,1.121-27.238,1.121c-1.117,0.297-2.84,2.809-12.488,0
		c-9.629-2.703-13.617-5.617-17.023-5.617c-3.105-0.086-15.891,2.809-18.727,2.809c-3.129,0.105-4.539,3.934-13.621,1.125
		c-9.008-2.52-8.512-4.496-9.648-4.496c-0.859-0.273-7.375-5.055-11.348-3.367c-3.762,1.594-16.176-1.406-11.066-1.406
		c-0.195,0-7.984-0.281-9.195,3.09V232.367z"/>
	<path fill="#FFFFFF" fill-opacity="0.2431" d="M39.406,16.355h321v216.75l-160.5,39l-160.5-39V16.355z"/>
	<path fill="#FDE9D0" stroke="#EACD98" stroke-linejoin="bevel" stroke-miterlimit="10" d="M39.75-1.875H30v244.5l170.25,42
		l170.25-42v-244.5h-9.75v234l-160.5,39.75l-160.5-39.75V-1.875z"/>
</g>
</svg>
