<?xml version="1.0" encoding="utf-8"?>
<!-- Generator: Adobe Illustrator 16.0.0, SVG Export Plug-In . SVG Version: 6.00 Build 0)  -->
<!DOCTYPE svg PUBLIC "-//W3C//DTD SVG 1.1//EN" "http://www.w3.org/Graphics/SVG/1.1/DTD/svg11.dtd">
<svg preserveAspectRatio="none" version="1.1" id="图层_1" xmlns="http://www.w3.org/2000/svg" xmlns:xlink="http://www.w3.org/1999/xlink" x="0px" y="0px"
	 width="340.5px" height="296.473px" viewBox="30 -6.762 340.5 296.473" enable-background="new 30 -6.762 340.5 296.473"
	 xml:space="preserve">
<g id="surface1026">
	<path fill="#EACD98" fill-opacity="0.902" d="M370.5-6.723v283.5c0,6.75-7.672,12.934-17.133,12.934L47.25,289.527
		c-9.75,0-17.25-5.637-17.25-12.715V-6.723H370.5z"/>
	<path fill="#FFFFFF" d="M361.16-6.762v275.25c0,6.75-7.27,12.082-16.191,12.082L56.66,280.488c-9,0-16.5-5.363-16.5-11.926V-6.762
		H361.16z"/>
	
		<linearGradient id="SVGID_1_" gradientUnits="userSpaceOnUse" x1="228.6123" y1="213.2861" x2="228.6123" y2="-103.875" gradientTransform="matrix(0.75 0 0 -0.75 29.0171 202.6641)">
		<stop  offset="0" style="stop-color:#F7FBFD"/>
		<stop  offset="0.39" style="stop-color:#DBEFF8"/>
		<stop  offset="1" style="stop-color:#9ED5EC"/>
	</linearGradient>
	<path fill="url(#SVGID_1_)" d="M360.977,42.699v222.75c0,10.5-7.906,15.121-16.809,15.121l-288.441-0.121
		c-8.25,0-15.75-4.266-15.75-14.301V42.699H360.977z"/>
</g>
</svg>
