<?xml version="1.0" encoding="utf-8"?>
<!-- Generator: Adobe Illustrator 16.0.0, SVG Export Plug-In . SVG Version: 6.00 Build 0)  -->
<!DOCTYPE svg PUBLIC "-//W3C//DTD SVG 1.1//EN" "http://www.w3.org/Graphics/SVG/1.1/DTD/svg11.dtd">
<svg preserveAspectRatio="none" version="1.1" id="图层_1" xmlns="http://www.w3.org/2000/svg" xmlns:xlink="http://www.w3.org/1999/xlink" x="0px" y="0px"
	 width="340.5px" height="391.684px" viewBox="29.574 -54.297 340.5 391.684" enable-background="new 29.574 -54.297 340.5 391.684"
	 xml:space="preserve">
<g id="surface1066">
	<path fill="#E7F5FA" fill-opacity="0.902" d="M370.074-54.113v374.25c0,9-7.672,16.965-17.133,16.965l-306.117,0.285
		c-9.75,0-17.25-7.969-17.25-17.309V-54.113H370.074z"/>
	<path fill="#D7E4E9" fill-opacity="0.9529" d="M357.77-54.297v363.75c0,8.25-7.27,15.57-16.043,15.57l-283.957,0.18
		c-9,0-15.75-7.371-15.75-16.031V-54.297H357.77z"/>
	
		<linearGradient id="SVGID_1_" gradientUnits="userSpaceOnUse" x1="242.7383" y1="247.293" x2="204.1871" y2="28.6584" gradientTransform="matrix(0.75 0 0 -0.75 31.0601 371.5889)">
		<stop  offset="0" style="stop-color:#D0E5BA"/>
		<stop  offset="0.44" style="stop-color:#9EC95F"/>
		<stop  offset="0.87" style="stop-color:#8AAF52"/>
	</linearGradient>
	<path fill="url(#SVGID_1_)" d="M357.77,211.625v97.5c0,9-7.27,15.898-16.043,15.898L57.77,324.875c-9,0-15.75-7.047-15.75-15.703
		v-97.547c0,0,26.031,10.145,63.719,5.605c46.531-5.605,46.992,8.086,99.367,3.383c37.914-3.738,52.539-4.512,93.656,2.258
		c29.758,4.504,58.863-11.246,58.863-11.246H357.77z"/>
</g>
</svg>
