<?xml version="1.0" encoding="utf-8"?>
<!-- Generator: Adobe Illustrator 16.0.0, SVG Export Plug-In . SVG Version: 6.00 Build 0)  -->
<!DOCTYPE svg PUBLIC "-//W3C//DTD SVG 1.1//EN" "http://www.w3.org/Graphics/SVG/1.1/DTD/svg11.dtd">
<svg preserveAspectRatio="none" version="1.1" id="图层_1" xmlns="http://www.w3.org/2000/svg" xmlns:xlink="http://www.w3.org/1999/xlink" x="0px" y="0px"
	 width="299.371px" height="594px" viewBox="30 -145.168 299.371 594" enable-background="new 30 -145.168 299.371 594"
	 xml:space="preserve">
<g id="surface336">
	<path fill="#BED8E3" d="M231.121-55.52l96.75-40.5l1.5,495l-97.5,49.5L231.121-55.52z"/>
	<path fill="#CFEBF6" d="M231-55.168l-201-90l0.75,492.75l201,101.25L231-55.168z"/>
	<path fill="#94C1E2" d="M212.219-22.449l-168-73.5v67.5l168,75V-22.449z"/>
	<path fill="#94C1E2" d="M214.914,67.527l-168-73.5v67.5l168,75V67.527z"/>
	<path fill="#94C1E2" d="M214.914,155.813l-168-73.5v67.5l168,75V155.813z"/>
	<path fill="#94C1E2" d="M214.914,244.633l-168-73.5v67.5l168,75V244.633z"/>
	<path fill="#FFFFFF" d="M212.219,37.832l-168-75v8.25l168,75.75V37.832z"/>
	<path fill="#FFFFFF" d="M129.934-58.359l-8.25-3.75v66l8.25,3V-58.359z"/>
	<path fill="#FFFFFF" d="M214.668,127.805l-168-75v8.25l168,75.75V127.805z"/>
	<path fill="#FFFFFF" d="M54.918-2.223l-8.25-3.75v67.5l8.25,3V-2.223z"/>
	<path fill="#FFFFFF" d="M132.383,31.617l-8.25-3.75v66l8.25,3V31.617z"/>
	<path fill="#FFFFFF" d="M214.668,216.883l-168-75v8.25l168,75.75V216.883z"/>
	<path fill="#FFFFFF" d="M54.918,86.855l-8.25-3.75v67.5l8.25,3V86.855z"/>
	<path fill="#FFFFFF" d="M132.383,120.691l-8.25-3.75v66l8.25,3V120.691z"/>
	<path fill="#FFFFFF" d="M214.668,304.914l-168-75v8.25l168,75.75V304.914z"/>
	<path fill="#FFFFFF" d="M54.918,174.883l-8.25-3.75v67.5l8.25,3V174.883z"/>
	<path fill="#FFFFFF" d="M132.383,208.723l-8.25-3.75v66l8.25,3V208.723z"/>
	<path fill="#FFFFFF" fill-opacity="0.2078" d="M86.969-77.195l-42.75-18.75v67.5l168,75l0.75-17.25L86.969-77.195z"/>
	<path fill="#FFFFFF" fill-opacity="0.2078" d="M89.176,12.777l-42.75-18.75v67.5l168,75l0.75-17.25L89.176,12.777z"/>
	<path fill="#FFFFFF" fill-opacity="0.2078" d="M89.176,101.063l-42.75-18.75v67.5l168,75l0.75-17.25L89.176,101.063z"/>
	<path fill="#FFFFFF" fill-opacity="0.2078" d="M90.156,189.883l-42.75-18.75v67.5l168,75l0.75-17.25L90.156,189.883z"/>
</g>
</svg>
