<?xml version="1.0" encoding="utf-8"?>
<!-- Generator: Adobe Illustrator 16.0.0, SVG Export Plug-In . SVG Version: 6.00 Build 0)  -->
<!DOCTYPE svg PUBLIC "-//W3C//DTD SVG 1.1//EN" "http://www.w3.org/Graphics/SVG/1.1/DTD/svg11.dtd">
<svg preserveAspectRatio="none" version="1.1" id="图层_1" xmlns="http://www.w3.org/2000/svg" xmlns:xlink="http://www.w3.org/1999/xlink" x="0px" y="0px"
	 width="299.57px" height="216.91px" viewBox="29.68 14.199 299.57 216.91" enable-background="new 29.68 14.199 299.57 216.91"
	 xml:space="preserve">
<g id="surface326">
	<path fill="#FDE9D0" d="M200.477,231.105l-170.25-87.75v-90l170.25,78.75V231.105z"/>
	<path fill="#CDCECE" d="M275.738,103.609l-75,28.5v99l75-39.75V103.609z"/>
	<path fill="#BCBCBC" d="M38.926,71.5l12,6V97h-0.75l-9-5.25l-3-19.5L38.926,71.5z"/>
	<path fill="#F9F9F9" d="M38.176,71.973l12,6v19.5l-12-6V71.973z"/>
	<path fill="#A0A0A0" d="M39.59,74.699l9,4.5v15.75l-9-4.5V74.699z"/>
	<path fill="#BAD0D8" d="M40.527,75.113l8.25,3.75v15.75l-8.25-4.5V75.113z"/>
	<path fill="#9E9F9F" d="M90.348,128.887l35.25,16.5v46.5l-35.25-18V128.887z"/>
	<path fill="#B0DFF2" d="M94.191,135.633l11.25,6v33.75l-11.25-5.25V135.633z"/>
	<path fill="#888889" d="M108.094,138.047h1.5v44.25l-1.5-0.75V138.047z"/>
	<path fill="#717070" d="M90.387,128.891l1.5,0.75v44.25l-1.5-0.75V128.891z"/>
	<path fill="#717070" d="M90.449,128.891l34.5,16.5v0.75l-34.5-15.75V128.891z"/>
	<path fill="#9E9F9F" d="M91.871,171.898l33.75,17.25l-0.75,3l-34.5-18.75L91.871,171.898z"/>
	<path fill="#FFFFFF" fill-opacity="0.298" d="M92.066,131.035l9.75,4.5l23.25,54l-33-17.25V131.035z"/>
	<path fill="#B0DFF2" d="M111.438,143.938l11.25,6v33.75l-11.25-5.25V143.938z"/>
	<path fill="#BCBCBC" d="M65.813,84.496l12,6v19.5h-0.75l-9-5.25l-3-19.5L65.813,84.496z"/>
	<path fill="#F9F9F9" d="M65.063,84.969l12,6v19.5l-12-6V84.969z"/>
	<path fill="#A0A0A0" d="M66.477,87.691l9,4.5v15.75l-9-4.5V87.691z"/>
	<path fill="#BAD0D8" d="M67.414,88.105l8.25,3.75v15.75l-8.25-4.5V88.105z"/>
	<path fill="#BCBCBC" d="M148.395,120.527l12.75,6v21l-0.75,0.75l-9.75-6l-3-21L148.395,120.527z"/>
	<path fill="#F9F9F9" d="M147.645,121.035l12.75,6.75v20.25l-12.75-6V121.035z"/>
	<path fill="#A0A0A0" d="M149.164,123.957l9.75,4.5v17.25l-9.75-4.5V123.957z"/>
	<path fill="#BAD0D8" d="M150.168,124.402l9,4.5v16.5l-9-4.5V124.402z"/>
	<path fill="#BCBCBC" d="M174.66,132.906l12.75,6v21l-0.75,0.75l-9.75-6l-3-21L174.66,132.906z"/>
	<path fill="#F9F9F9" d="M173.91,133.414l12.75,6.75v20.25l-12.75-6V133.414z"/>
	<path fill="#A0A0A0" d="M175.43,136.336l9.75,4.5v17.25l-9.75-4.5V136.336z"/>
	<path fill="#BAD0D8" d="M176.434,136.781l9,4.5v16.5l-9-4.5V136.781z"/>
	<path fill="#E9D7BF" d="M329.25,75.48l-129,57v98.25l129-67.5V75.48z"/>
	<path fill="#F6E3CA" d="M157.5,14.199l-127.5,39l170.25,79.5l129-57L157.5,14.199z"/>
	<path fill="#EACD98" d="M43.391,54.543l114-36.75v6l-108,36L43.391,54.543z"/>
	<path fill="#F9D9A9" d="M37.93,51.355l-8.25,2.25l171,78.75l6.75-3L37.93,51.355z"/>
	<path fill="#DABF8D" d="M157.574,17.793v6l155.25,57l8.25-5.25L157.574,17.793z"/>
	<path fill="#F9D9A9" d="M321.75,73.332l-126.75,57l5.25,2.25l129-57L321.75,73.332z"/>
	<path fill="#F9D9A9" d="M157.5,14.199l-7.5,2.25l173.25,61.5l6-2.25L157.5,14.199z"/>
	<path fill="#F9D9A9" d="M157.203,14.199l-127.5,39l6.75,3l126.75-39L157.203,14.199z"/>
	<path fill="#BCBCBC" d="M120.813,109.887l12,6v19.5h-0.75l-9-5.25l-3-19.5L120.813,109.887z"/>
	<path fill="#F9F9F9" d="M120.063,110.359l12,6v19.5l-12-6V110.359z"/>
	<path fill="#A0A0A0" d="M121.48,113.082l9,4.5v15.75l-9-4.5V113.082z"/>
	<path fill="#BAD0D8" d="M122.418,113.496l8.25,3.75v15.75l-8.25-4.5V113.496z"/>
	<path fill="#BCBCBC" d="M93.012,97.488l12,6v19.5h-0.75l-9-5.25l-3-19.5L93.012,97.488z"/>
	<path fill="#F9F9F9" d="M92.262,97.961l12,6v19.5l-12-6V97.961z"/>
	<path fill="#A0A0A0" d="M93.676,100.684l9,4.5v15.75l-9-4.5V100.684z"/>
	<path fill="#BAD0D8" d="M94.613,101.098l8.25,3.75v15.75l-8.25-4.5V101.098z"/>
	<path fill="#E7E7E7" d="M157.5,44.723l-12-6v-6l12,5.25V44.723z"/>
	<path fill="#A9A9A9" d="M166.344,34.242l-9,3.75v6.75l9-4.5V34.242z"/>
	<path fill="#CDCECE" d="M154.344,30.035l-8.25,3l11.25,5.25l9-3.75L154.344,30.035z"/>
	<path fill="#E7E7E7" d="M184.66,56.609l-12-6v-6l12,5.25V56.609z"/>
	<path fill="#A9A9A9" d="M193.504,46.129l-9,3.75v6.75l9-4.5V46.129z"/>
	<path fill="#CDCECE" d="M181.508,41.922l-8.25,3l11.25,5.25l9-3.75L181.508,41.922z"/>
	<path fill="#E7E7E7" d="M213.109,67.398l-12-6v-6l12,5.25V67.398z"/>
	<path fill="#A9A9A9" d="M221.957,56.918l-9,3.75v6.75l9-4.5V56.918z"/>
	<path fill="#CDCECE" d="M209.957,52.707l-8.25,3l11.25,5.25l9-3.75L209.957,52.707z"/>
	<path fill="#E7E7E7" d="M243.234,77.254l-12-6v-6l12,5.25V77.254z"/>
	<path fill="#A9A9A9" d="M252.082,66.773l-9,3.75v6.75l9-4.5V66.773z"/>
	<path fill="#CDCECE" d="M240.082,62.563l-8.25,3l11.25,5.25l9-3.75L240.082,62.563z"/>
	<path fill="#E7E7E7" d="M273.82,88.176l-12-6v-6l12,5.25V88.176z"/>
	<path fill="#A9A9A9" d="M282.664,77.695l-9,3.75v6.75l9-4.5V77.695z"/>
	<path fill="#CDCECE" d="M270.664,73.484l-8.25,3l11.25,5.25l9-3.75L270.664,73.484z"/>
</g>
</svg>
