<?xml version="1.0" encoding="utf-8"?>
<!-- Generator: Adobe Illustrator 16.0.0, SVG Export Plug-In . SVG Version: 6.00 Build 0)  -->
<!DOCTYPE svg PUBLIC "-//W3C//DTD SVG 1.1//EN" "http://www.w3.org/Graphics/SVG/1.1/DTD/svg11.dtd">
<svg preserveAspectRatio="none" version="1.1" id="图层_1" xmlns="http://www.w3.org/2000/svg" xmlns:xlink="http://www.w3.org/1999/xlink" x="0px" y="0px"
	 width="299.363px" height="316.004px" viewBox="30 -35.457 299.363 316.004" enable-background="new 30 -35.457 299.363 316.004"
	 xml:space="preserve">
<g id="surface376">
	<path fill="#EEEEEE" d="M33.402,213.707l121.5,66.75l-1.5-158.25l-120-54.75V213.707z"/>
	<path fill="#DCDCDD" d="M155.16,280.547l171-76.5v-151.5l-79.5-39l-1.5,0.75l-91.5,108L155.16,280.547z"/>
	<path fill="#595757" d="M126.75-35.457L30,66.543l122.25,56.25l95.25-111.75L126.75-35.457z"/>
	<path fill="#9E9F9F" d="M327.113,52.953l2.25-1.5l-81.75-40.5l-95.25,111.75h3.75l92.25-108L327.113,52.953z"/>
	<path fill="#FFFFFF" fill-opacity="0.1725" d="M126.91-35.457l-93.75,99l121.5,56.25l33-132L126.91-35.457z"/>
	<path fill="#DEE3EC" d="M275.535,104.617l-56.25,24v123.75l56.25-29.25V104.617z"/>
	<path fill="#717070" d="M275.219,104.082l-55.5,24v3.75l55.5-24V104.082z"/>
	<path fill="#717070" d="M275.488,104.086l-3,2.25v121.5l3-2.25V104.086z"/>
	<path fill="#717070" d="M221.07,127.59l-3,1.5v123.75l3-2.25V127.59z"/>
	<path fill="#C4CDDD" d="M272.508,219.273l-51.75,22.5v9l51.75-22.5V219.273z"/>
	<path fill="#EEEEEE" d="M153.66,122.305l171.75-69.75v3l-171.75,70.5V122.305z"/>
	<path fill="#888888" d="M224.457,183.914l3.75-1.5c0,0,0.766,0.473,0.766,1.059l-0.016,13.941c0,0.75-0.441,0.906-1.012,0.906
		l-3.488,1.344c0,0-0.75-0.422-0.75-1.008v-13.992c0-0.75,0.461-0.855,1.031-0.855L224.457,183.914z"/>
	<path fill="#B4B5B5" d="M225.211,185.637l2.25-0.75c0.75,0,0.762,0.336,0.762,0.754l-0.012,9.746c0,0.75-0.316,0.863-0.723,0.863
		l-2.277,0.637c-0.75,0-0.75,0.023-0.75-0.395v-10.105c0,0,0.328-0.508,0.734-0.508L225.211,185.637z"/>
	<path fill="#888888" stroke="#888888" stroke-linejoin="bevel" stroke-miterlimit="10" d="M225.164,190.246
		c0-1.5,0.555-2.25,1.262-2.25c0.988,0,1.281,0.859,1.281,1.922c-0.293,1.078-0.574,1.922-1.281,1.922
		c-0.512-0.094-1.277-0.859-1.277-1.922L225.164,190.246z"/>
	<path fill="#CDCECE" d="M226.301,188.445l9-3.75v2.25l-9,3.75V188.445z"/>
	<path fill="#BAD0D8" d="M262.738,123.496l-31.5,14.25l-0.75,43.5l32.25-14.25V123.496z"/>
	<path fill="#A3B1CA" d="M262.754,123.496l-2.25,1.5v40.5l2.25,1.5V123.496z"/>
	<path fill="#AAB8D2" d="M262.738,167.348l-32.25,14.25v-3l30-12.75L262.738,167.348z"/>
</g>
</svg>
