<?xml version="1.0" encoding="utf-8"?>
<!-- Generator: Adobe Illustrator 16.0.0, SVG Export Plug-In . SVG Version: 6.00 Build 0)  -->
<!DOCTYPE svg PUBLIC "-//W3C//DTD SVG 1.1//EN" "http://www.w3.org/Graphics/SVG/1.1/DTD/svg11.dtd">
<svg preserveAspectRatio="none" version="1.1" id="图层_1" xmlns="http://www.w3.org/2000/svg" xmlns:xlink="http://www.w3.org/1999/xlink" x="0px" y="0px"
	 width="299.816px" height="295.684px" viewBox="29.5 -25.176 299.816 295.684"
	 enable-background="new 29.5 -25.176 299.816 295.684" xml:space="preserve">
<g id="surface321">
	<path fill="#DCDCDD" d="M236.813,270.25l-201-103.5L34.313,7l202.5,89.25V270.25z"/>
	<path fill="#CDCECE" d="M325.645,62.758l-88.5,34.5v173.25l88.5-47.25V62.758z"/>
	<path fill="#BCBCBC" d="M44.625,35.297l18,9v30l-0.75,0.75l-14.25-8.25l-4.5-30.75L44.625,35.297z"/>
	<path fill="#F9F9F9" d="M43.125,36.027l18.75,9v30.75l-18.75-9.75V36.027z"/>
	<path fill="#A0A0A0" d="M45.305,40.238l13.5,6.75l0.75,25.5l-14.25-7.5V40.238z"/>
	<path fill="#BAD0D8" d="M46.742,40.879l12.75,6v24l-12.75-6.75V40.879z"/>
	<path fill="#9E9F9F" d="M106.816,149.18l41.25,19.5v55.5l-41.25-21.75V149.18z"/>
	<path fill="#B0DFF2" d="M111.355,157.195l13.5,6.75v40.5l-13.5-6.75V157.195z"/>
	<path fill="#888889" d="M127.762,160.055l1.5,0.75v51.75l-1.5-0.75V160.055z"/>
	<path fill="#717070" d="M106.867,149.188l2.25,0.75v52.5l-2.25-0.75V149.188z"/>
	<path fill="#717070" d="M106.938,149.184l41.25,19.5v1.5l-41.25-19.5V149.184z"/>
	<path fill="#9E9F9F" d="M109.098,200.25l39,21v3l-41.25-21.75L109.098,200.25z"/>
	<path fill="#FFFFFF" fill-opacity="0.298" d="M108.848,151.734l11.25,5.25l27.75,63.75l-39-20.25V151.734z"/>
	<path fill="#B0DFF2" d="M131.715,167.051l13.5,6.75v40.5l-13.5-6.75V167.051z"/>
	<path fill="#CDCECE" stroke="#CDCECE" stroke-linejoin="bevel" stroke-miterlimit="10" d="M30,6.184l209.25,92.25v-5.25L30,0.934
		V6.184z"/>
	<path fill="#BFC0C0" stroke="#BFC0C0" stroke-linejoin="bevel" stroke-miterlimit="10" d="M239.566,93.621l89.25-36.75v5.25
		l-89.25,36V93.621z"/>
	<path fill="#B4B5B5" d="M119.25-25.176L30,0.324l209.25,92.25l90-36L119.25-25.176z"/>
	<path fill="#BCBCBC" d="M82.027,52.609l18,9v30l-0.75,0.75l-14.25-8.25l-4.5-30.75L82.027,52.609z"/>
	<path fill="#F9F9F9" d="M80.527,53.34l18.75,9v30.75l-18.75-9.75V53.34z"/>
	<path fill="#A0A0A0" d="M82.707,57.551l13.5,6.75l0.75,25.5l-14.25-7.5V57.551z"/>
	<path fill="#BAD0D8" d="M84.145,58.191l12.75,6v24l-12.75-6.75V58.191z"/>
	<path fill="#BCBCBC" d="M161.137,88.383l19.5,9.75v32.25l-1.5,0.75l-15-9l-4.5-33L161.137,88.383z"/>
	<path fill="#F9F9F9" d="M159.637,89.164l20.25,9.75l-0.75,32.25l-19.5-9.75V89.164z"/>
	<path fill="#A0A0A0" d="M161.973,93.68l15,7.5v27l-15-8.25V93.68z"/>
	<path fill="#BAD0D8" d="M163.516,94.367l13.5,6.75v25.5l-13.5-6.75V94.367z"/>
	<path fill="#BCBCBC" d="M201.508,107.52l19.5,9.75v32.25l-1.5,0.75l-15-9l-4.5-33L201.508,107.52z"/>
	<path fill="#F9F9F9" d="M200.008,108.305l20.25,9.75l-0.75,32.25l-19.5-9.75V108.305z"/>
	<path fill="#A0A0A0" d="M202.344,112.82l15,7.5v27l-15-8.25V112.82z"/>
	<path fill="#BAD0D8" d="M203.887,113.508l13.5,6.75v25.5l-13.5-6.75V113.508z"/>
	<path fill="#BCBCBC" d="M43.547,114.219l18,9v30l-0.75,0.75l-14.25-8.25l-4.5-30.75L43.547,114.219z"/>
	<path fill="#F9F9F9" d="M42.047,114.949l18.75,9v30.75l-18.75-9.75V114.949z"/>
	<path fill="#A0A0A0" d="M44.227,119.164l13.5,6.75l0.75,25.5l-14.25-7.5V119.164z"/>
	<path fill="#BAD0D8" d="M45.664,119.805l12.75,6v24l-12.75-6.75V119.805z"/>
	<path fill="#BCBCBC" d="M75.609,130.508l18,9v30l-0.75,0.75l-14.25-8.25l-4.5-30.75L75.609,130.508z"/>
	<path fill="#F9F9F9" d="M74.109,131.238l18.75,9v30.75l-18.75-9.75V131.238z"/>
	<path fill="#A0A0A0" d="M76.289,135.453l13.5,6.75l0.75,25.5l-14.25-7.5V135.453z"/>
	<path fill="#BAD0D8" d="M77.73,136.094l12.75,6v24l-12.75-6.75V136.094z"/>
	<path fill="#BCBCBC" d="M166.477,172.113l19.5,9.75v32.25l-1.5,0.75l-15-9l-4.5-33L166.477,172.113z"/>
	<path fill="#F9F9F9" d="M164.977,172.898l20.25,9.75l-0.75,32.25l-19.5-9.75V172.898z"/>
	<path fill="#A0A0A0" d="M167.313,177.414l15,7.5v27l-15-8.25V177.414z"/>
	<path fill="#BAD0D8" d="M168.855,178.102l13.5,6.75v25.5l-13.5-6.75V178.102z"/>
	<path fill="#BCBCBC" d="M201.508,189.473l19.5,9.75v32.25l-1.5,0.75l-15-9l-4.5-33L201.508,189.473z"/>
	<path fill="#F9F9F9" d="M200.008,190.254l20.25,9.75l-0.75,32.25l-19.5-9.75V190.254z"/>
	<path fill="#A0A0A0" d="M202.344,194.773l15,7.5v27l-15-8.25V194.773z"/>
	<path fill="#BAD0D8" d="M203.887,195.457l13.5,6.75v25.5l-13.5-6.75V195.457z"/>
	<path fill="#BCBCBC" d="M121.961,71.07l19.5,9.75v31.5l-1.5,0.75l-15-9l-4.5-32.25L121.961,71.07z"/>
	<path fill="#F9F9F9" d="M120.461,71.848l19.5,9.75v32.25l-19.5-9.75V71.848z"/>
	<path fill="#A0A0A0" d="M122.777,76.328l15,7.5v26.25l-15-7.5V76.328z"/>
	<path fill="#BAD0D8" d="M124.309,77.008l13.5,6.75v24.75l-13.5-6.75V77.008z"/>
</g>
</svg>
