<?xml version="1.0" encoding="utf-8"?>
<!-- Generator: Adobe Illustrator 16.0.0, SVG Export Plug-In . SVG Version: 6.00 Build 0)  -->
<!DOCTYPE svg PUBLIC "-//W3C//DTD SVG 1.1//EN" "http://www.w3.org/Graphics/SVG/1.1/DTD/svg11.dtd">
<svg preserveAspectRatio="none" version="1.1" id="图层_1" xmlns="http://www.w3.org/2000/svg" xmlns:xlink="http://www.w3.org/1999/xlink" x="0px" y="0px"
	 width="299.25px" height="283.762px" viewBox="30 -19.27 299.25 283.762" enable-background="new 30 -19.27 299.25 283.762"
	 xml:space="preserve">
<g id="surface331">
	<path fill="#C7B5A2" d="M235.723,264.492l-194.25-99.75l-0.75-152.25l195,85.5V264.492z"/>
	<path fill="#9C8B77" d="M320.684,70.883l-49.5-0.75l-35.25,28.5v165.75l85.5-45L320.684,70.883z"/>
	<path fill="#A97E6C" d="M82.621-19.27l204,90l-55.5,43.5l-201-96.75L82.621-19.27z"/>
	<path fill="#865F4E" d="M329.25,70.941L127.5-13.809l-45-5.25l204,90H329.25z"/>
	<path fill="#E1D1B8" d="M30,17.742l201.75,96.75v4.5L30,22.242V17.742z"/>
	<path fill="#B9AC98" d="M231.48,114.781l55.5-44.25l42,0.75v3.75h-42l-55.5,44.25V114.781z"/>
	<path fill="#763C30" d="M104.004,81.961l-12-6v32.25l12,6V81.961z"/>
	<path fill="#CFEBF6" d="M103.922,84.129l-11.25-6v30l11.25,6V84.129z"/>
	<path fill="#FFFFFF" fill-opacity="0.0902" d="M104.004,83.715l-3-1.5l-8.25,26.25l11.25,6V83.715z"/>
	<path fill="#763C30" d="M184.02,118.68l-12.75-6.75v33.75l12.75,6.75V118.68z"/>
	<path fill="#CFEBF6" d="M183.934,120.211l-11.25-6l-0.75,31.5l12,6.75V120.211z"/>
	<path fill="#FFFFFF" fill-opacity="0.0902" d="M184.02,120.016l-3-1.5l-9,27.75l12,6V120.016z"/>
	<path fill="#763C30" d="M221.469,137.445l-12.75-6.75v33.75l12.75,6.75V137.445z"/>
	<path fill="#CFEBF6" d="M221.383,138.977l-11.25-6l-0.75,31.5l12,6.75V138.977z"/>
	<path fill="#FFFFFF" fill-opacity="0.0902" d="M221.469,138.781l-3-1.5l-9,27.75l12,6V138.781z"/>
	<path fill="#763C30" d="M142.273,100.996l-12-6v32.25l12,6V100.996z"/>
	<path fill="#CFEBF6" d="M142.191,103.16l-11.25-6v30l11.25,6V103.16z"/>
	<path fill="#FFFFFF" fill-opacity="0.0902" d="M142.273,102.75l-3-1.5l-8.25,26.25l11.25,6V102.75z"/>
	<path fill="#763C30" d="M69.57,63.82l-12-6v32.25l12,6V63.82z"/>
	<path fill="#CFEBF6" d="M69.488,65.984l-11.25-6v30l11.25,6V65.984z"/>
	<path fill="#FFFFFF" fill-opacity="0.0902" d="M69.57,65.57l-3-1.5l-8.25,26.25l11.25,6V65.57z"/>
	<path fill="#AC9680" d="M166.91,177.203l39.75,21.75v50.25l-39.75-20.25V177.203z"/>
	<path fill="#6B5640" d="M170.098,184.219l33,17.25v43.5l-33-15.75V184.219z"/>
	<path fill="#7F664C" d="M170.242,184.219l6,3v39.75l-6,2.25V184.219z"/>
	<path fill="#856F59" d="M170.102,229.293l33.75,16.5v-5.25l-27.75-13.5L170.102,229.293z"/>
	<path fill="#AC9680" d="M112.852,152.281l37.5,21v47.25l-37.5-19.5V152.281z"/>
	<path fill="#6B5640" d="M115.855,158.898l31.5,16.5v40.5l-31.5-15V158.898z"/>
	<path fill="#7F664C" d="M115.992,158.898l5.25,3v37.5l-5.25,2.25V158.898z"/>
	<path fill="#856F59" d="M115.863,201.543l31.5,15.75v-5.25l-25.5-12.75L115.863,201.543z"/>
	<path fill="#AC9680" d="M63.824,130.211l35.25,19.5v45l-35.25-18.75V130.211z"/>
	<path fill="#6B5640" d="M66.664,136.465l29.25,15.75v38.25l-29.25-14.25V136.465z"/>
	<path fill="#7F664C" d="M66.793,136.465l5.25,3v35.25l-5.25,1.5V136.465z"/>
	<path fill="#856F59" d="M66.672,176.133l30,15v-4.5l-24.75-12L66.672,176.133z"/>
</g>
</svg>
