<?xml version="1.0" encoding="utf-8"?>
<!-- Generator: Adobe Illustrator 16.0.0, SVG Export Plug-In . SVG Version: 6.00 Build 0)  -->
<!DOCTYPE svg PUBLIC "-//W3C//DTD SVG 1.1//EN" "http://www.w3.org/Graphics/SVG/1.1/DTD/svg11.dtd">
<svg preserveAspectRatio="none" version="1.1" id="图层_1" xmlns="http://www.w3.org/2000/svg" xmlns:xlink="http://www.w3.org/1999/xlink" x="0px" y="0px"
	 width="299.57px" height="327.848px" viewBox="29.68 -39.953 299.57 327.848"
	 enable-background="new 29.68 -39.953 299.57 327.848" xml:space="preserve">
<g id="surface346">
	<path fill="#B6D8B1" d="M200.477,287.555l-170.25-87.75v-90.75l170.25,79.5V287.555z"/>
	<path fill="#CDCECE" d="M275.738,159.645l-75,29.25v99l75-39.75V159.645z"/>
	<path fill="#9E9F9F" d="M141.953,211.355l35.25,16.5v47.25l-35.25-18.75V211.355z"/>
	<path fill="#B0DFF2" d="M145.797,218.148l11.25,6v34.5l-11.25-6V218.148z"/>
	<path fill="#888889" d="M159.699,220.578h1.5v45l-1.5-0.75V220.578z"/>
	<path fill="#717070" d="M141.992,211.359l1.5,0.75v44.25h-1.5V211.359z"/>
	<path fill="#717070" d="M142.055,211.359l34.5,16.5v1.5l-34.5-16.5V211.359z"/>
	<path fill="#FFFFFF" fill-opacity="0.298" d="M143.672,213.52l9.75,4.5l23.25,54l-33-17.25V213.52z"/>
	<path fill="#B0DFF2" d="M163.043,226.508l11.25,6v34.5l-11.25-6V226.508z"/>
	<path fill="#A5C4A0" d="M329.25,131.328l-129,57v99l129-67.5V131.328z"/>
	<path fill="#C8CFD7" d="M157.5,69.633L30,109.383l170.25,79.5l129-57.75L157.5,69.633z"/>
	<path fill="#9DA7B3" d="M43.391,110.004l114-36.75v6l-108,36.75L43.391,110.004z"/>
	<path fill="#EBEBEB" d="M37.93,107.043l-8.25,2.25l171,79.5l6.75-3L37.93,107.043z"/>
	<path fill="#8E9CAC" d="M157.574,73.254v6l155.25,57.75l8.25-6L157.574,73.254z"/>
	<path fill="#EBEBEB" d="M321.75,129.164l-126.75,57l5.25,2.25l129-57L321.75,129.164z"/>
	<path fill="#EBEBEB" d="M157.5,69.633l-7.5,2.25l173.25,61.5l6-2.25L157.5,69.633z"/>
	<path fill="#EBEBEB" d="M157.203,69.633l-127.5,39.75l6.75,3l126.75-39.75L157.203,69.633z"/>
	<path fill="#C8D6D5" d="M50.598,138.152v51.75l67.5,33.75v-55.5L50.598,138.152z"/>
	<path fill="#EEEEEE" d="M118.098,223.457v-3.75l-64.5-31.5l-3,1.5L118.098,223.457z"/>
	<path fill="#DCDCDD" d="M53.676,139.652v48.75l-3,1.5v-51.75L53.676,139.652z"/>
	<path fill="#FFFFFF" fill-opacity="0.4157" d="M118.324,168.422l-0.75,51.75l-63.75-32.25l24.75-36.75L118.324,168.422z"/>
	<path fill="#9CC1D2" d="M73.918,173.5V199l-2.25,1.5v-27.75L73.918,173.5z"/>
	<path fill="#B9D1DD" d="M71.977,173.051v27l-2.25-0.75v-27.75L71.977,173.051z"/>
	<path fill="#9CC1D2" d="M99.176,185.184v26.25l-2.25,1.5v-28.5L99.176,185.184z"/>
	<path fill="#B9D1DD" d="M97.176,184.699v27.75l-2.25-0.75v-28.5L97.176,184.699z"/>
	<path fill="#B3CEDB" d="M50.738,162.617v3l67.5,31.5l-0.75-3.75L50.738,162.617z"/>
	<path fill="#81B4CA" d="M53.738,161.332l64.5,29.25v3l-67.5-30.75L53.738,161.332z"/>
	<path fill="#9CC1D2" d="M74.012,148.555v22.5l-2.25,0.75v-24L74.012,148.555z"/>
	<path fill="#B9D1DD" d="M72.102,147.566v24.75l-2.25-1.5v-24L72.102,147.566z"/>
	<path fill="#9CC1D2" d="M99.273,159.516v23.25l-2.25,0.75v-24.75L99.273,159.516z"/>
	<path fill="#B9D1DD" d="M97.309,158.496v25.5l-2.25-1.5v-24.75L97.309,158.496z"/>
	<path fill="#CDE6C7" d="M165.48,108.988l-35.25-18v-11.25l35.25,17.25V108.988z"/>
	<path fill="#A5C4A0" d="M191.934,84.266l-26.25,12.75l-0.75,12l27-13.5V84.266z"/>
	<path fill="#BBD1B5" d="M156.434,71.758l-26.25,8.25l35.25,16.5l26.25-12L156.434,71.758z"/>
	
		<linearGradient id="SVGID_1_" gradientUnits="userSpaceOnUse" x1="21.4863" y1="85.1089" x2="56.2734" y2="85.1089" gradientTransform="matrix(0.75 0 0 -0.75 133.9238 85.8867)">
		<stop  offset="0" style="stop-color:#5C6976"/>
		<stop  offset="0.39" style="stop-color:#B7BFC9"/>
		<stop  offset="0.61" style="stop-color:#D8DCE1"/>
		<stop  offset="1" style="stop-color:#91A1B2"/>
	</linearGradient>
	<path fill="url(#SVGID_1_)" d="M156.789-39.953l-6.75,118.5c0,0-0.352,4.457,13.855,5.516c-0.355-0.266,12.172,0.195,12.234-5.355
		l-6.59-118.66H156.789z"/>
	
		<linearGradient id="SVGID_2_" gradientUnits="userSpaceOnUse" x1="21.4858" y1="160.2422" x2="47.5015" y2="160.2422" gradientTransform="matrix(0.75 0 0 -0.75 137.2661 138.6953)">
		<stop  offset="0" style="stop-color:#546F4F"/>
		<stop  offset="0.29" style="stop-color:#769A6F"/>
		<stop  offset="0.62" style="stop-color:#A9D4A0"/>
		<stop  offset="1" style="stop-color:#89B280"/>
	</linearGradient>
	<path fill="url(#SVGID_2_)" d="M154.133,12.855c0,0-0.105,2.391,9.105,3.219c-0.105-0.219,8.543-0.426,9.211-3.219l0.434,8.25
		c0,0,0.664,2.641-9.43,3.066c-0.32-0.066-10.25-0.426-10.07-2.852L154.133,12.855z"/>
</g>
</svg>
