<?xml version="1.0" encoding="utf-8"?>
<!-- Generator: Adobe Illustrator 16.0.0, SVG Export Plug-In . SVG Version: 6.00 Build 0)  -->
<!DOCTYPE svg PUBLIC "-//W3C//DTD SVG 1.1//EN" "http://www.w3.org/Graphics/SVG/1.1/DTD/svg11.dtd">
<svg preserveAspectRatio="none" version="1.1" id="图层_1" xmlns="http://www.w3.org/2000/svg" xmlns:xlink="http://www.w3.org/1999/xlink" x="0px" y="0px"
	 width="299.383px" height="768.75px" viewBox="30 -232.59 299.383 768.75" enable-background="new 30 -232.59 299.383 768.75"
	 xml:space="preserve">
<g id="surface296">
	<path fill="#A9A9A9" d="M231.133-142.824l96.75-40.5l1.5,669.75l-97.5,49.5L231.133-142.824z"/>
	<path fill="#E7E7E7" d="M231-142.59l-201-90l0.75,667.5l201,101.25L231-142.59z"/>
	<path fill="#4881AC" d="M244.941-13.816l71.25-32.25v43.5l-71.25,32.25V-13.816z"/>
	<path fill="#4881AC" d="M244.941,43.16l71.25-33v42.75l-71.25,33.75V43.16z"/>
	<path fill="#4881AC" d="M244.941,100.305l71.25-33.75v42.75l-71.25,34.5V100.305z"/>
	<path fill="#4881AC" d="M244.117,157.445l71.25-34.5v42.75l-71.25,35.25V157.445z"/>
	<path fill="#4881AC" d="M244.117,214.281l71.25-34.5v42l-71.25,36V214.281z"/>
	<path fill="#6CAAD8" d="M54.82-89.078l152.25,67.5v42.75l-152.25-67.5V-89.078z"/>
	<path fill="#6CAAD8" d="M54.82-32.809l152.25,67.5v42.75L54.82,9.941V-32.809z"/>
	<path fill="#6CAAD8" d="M54.82,22.754l152.25,68.25v45.75L54.82,65.504V22.754z"/>
	<path fill="#6CAAD8" d="M54.82,76.941l152.25,72v46.5l-152.25-75.75V76.941z"/>
	<path fill="#6CAAD8" d="M54.82,132.871l152.25,76.5v42.75l-152.25-76.5V132.871z"/>
	<path fill="#6CAAD8" d="M54.621,189.383l152.25,75.75v42.75l-152.25-75.75V189.383z"/>
	<path fill="#E7E7E7" d="M79.383-191.48l7.5,6.75v609.75l-7.5-5.25V-191.48z"/>
	<path fill="#E7E7E7" d="M111.516-178.172l7.5,7.5v612l-7.5-6V-178.172z"/>
	<path fill="#E7E7E7" d="M143.832-163.887l7.5,4.5v618.75l-7.5-3V-163.887z"/>
	<path fill="#E7E7E7" d="M175.543-151.125l7.5,4.5v631.5l-7.5-3V-151.125z"/>
	<path fill="#FFFFFF" fill-opacity="0.2745" d="M54.711-201.598v603.75l151.5,75.75l-85.5-651L54.711-201.598z"/>
	<path fill="#4881AC" d="M245.352,269.582l71.25-33v42.75l-71.25,33.75V269.582z"/>
	<path fill="#A9A9A9" d="M265.438-136.113l7.5-4.5v625.5l-7.5,6V-136.113z"/>
	<path fill="#A9A9A9" d="M290.828-147.848l7.5-3.75v629.25l-7.5,6V-147.848z"/>
</g>
</svg>
