<?xml version="1.0" encoding="utf-8"?>
<!-- Generator: Adobe Illustrator 16.0.0, SVG Export Plug-In . SVG Version: 6.00 Build 0)  -->
<!DOCTYPE svg PUBLIC "-//W3C//DTD SVG 1.1//EN" "http://www.w3.org/Graphics/SVG/1.1/DTD/svg11.dtd">
<svg preserveAspectRatio="none" version="1.1" id="图层_1" xmlns="http://www.w3.org/2000/svg" xmlns:xlink="http://www.w3.org/1999/xlink" x="0px" y="0px"
	 width="299.188px" height="214.945px" viewBox="30 15.102 299.188 214.945" enable-background="new 30 15.102 299.188 214.945"
	 xml:space="preserve">
<g id="surface291">
	<path fill="#FFDEAD" d="M207.949,229.633l-168-84v-74.25l168,72V229.633z"/>
	<path fill="#E9C98E" d="M208.516,230.047l110.25-57.75v-84.75l-111,12L208.516,230.047z"/>
	<path fill="#A0D8EF" d="M202.5,143.848L30,62.098l59.25-44.25L273,90.598L202.5,143.848z"/>
	<path fill="#95CAE0" d="M148.438,15.102l-59.25,3l184.5,72.75l55.5-6.75L148.438,15.102z"/>
	<path fill="#415169" d="M234.969,166.203l69-36v49.5l-69,36V166.203z"/>
	<path fill="#3E3938" d="M302.137,133.836v47.25l-65.25,33.75v-46.5L302.137,133.836z"/>
	<path fill="#3F3F3F" d="M139.738,146.813v15.75l24.75,12v-15L139.738,146.813z"/>
	<path fill="#A0D8EF" d="M141.254,147.648v14.25l23.25,11.25v-14.25L141.254,147.648z"/>
	<path fill="#3F3F3F" d="M103.012,127.746v15.75l24.75,12v-15L103.012,127.746z"/>
	<path fill="#A0D8EF" d="M104.527,128.582v14.25l23.25,11.25v-14.25L104.527,128.582z"/>
	<path fill="#3F3F3F" d="M65.699,107.602v15.75l24.75,12v-15L65.699,107.602z"/>
	<path fill="#A0D8EF" d="M67.215,108.438v14.25l23.25,11.25v-14.25L67.215,108.438z"/>
	<path fill="#F8F8F8" d="M30,62.43l172.5,81v4.5L30,66.93V62.43z"/>
	<path fill="#B4B5B5" d="M202.34,144.031l70.5-53.25l56.25-6.75v3l-55.5,8.25l-71.25,53.25V144.031z"/>
	<path fill="#9E9F9F" d="M266.887,153.156l35.25,13.5v14.25l-65.25,33.75v-46.5L266.887,153.156z"/>
</g>
</svg>
