<?xml version="1.0" encoding="utf-8"?>
<!-- Generator: Adobe Illustrator 16.0.0, SVG Export Plug-In . SVG Version: 6.00 Build 0)  -->
<!DOCTYPE svg PUBLIC "-//W3C//DTD SVG 1.1//EN" "http://www.w3.org/Graphics/SVG/1.1/DTD/svg11.dtd">
<svg preserveAspectRatio="none" version="1.1" id="图层_1" xmlns="http://www.w3.org/2000/svg" xmlns:xlink="http://www.w3.org/1999/xlink" x="0px" y="0px"
	 width="299.32px" height="259.871px" viewBox="30 -7.473 299.32 259.871" enable-background="new 30 -7.473 299.32 259.871"
	 xml:space="preserve">
<g id="surface306">
	<path fill="#C8CFD7" d="M255.859,202.625l72.75-40.5l-171.75-59.25l-16.5,6L255.859,202.625z"/>
	<path fill="#A6B1BE" d="M158.926,107.152l-13.5,5.25l-6.75-4.5l20.25-6.75V107.152z"/>
	<path fill="#DCDCDD" d="M141.676,109.402l20.25-7.5l-3-0.75l-20.25,6.75L141.676,109.402z"/>
	<path fill="#9DA7B3" d="M326.891,163.695l-168-56.25v-4.5l168,54.75V163.695z"/>
	<path fill="#DCDCDD" d="M326.32,158.152l-170.25-55.5l3-1.5l170.25,55.5L326.32,158.152z"/>
	<path fill="#8E9CAC" d="M255.746,202.773l73.5-39.75v-6l-73.5,38.25V202.773z"/>
	<path fill="#DCDCDD" d="M255.746,195.531l73.5-38.25l-3.75-1.5l-69.75,36.75V195.531z"/>
	
		<linearGradient id="SVGID_1_" gradientUnits="userSpaceOnUse" x1="21.3921" y1="67.5728" x2="62.7383" y2="67.5728" gradientTransform="matrix(0.75 0 0 -0.75 239.6299 146.8057)">
		<stop  offset="0" style="stop-color:#5C6976"/>
		<stop  offset="0.39" style="stop-color:#B7BFC9"/>
		<stop  offset="0.61" style="stop-color:#D8DCE1"/>
		<stop  offset="1" style="stop-color:#91A1B2"/>
	</linearGradient>
	<path fill="url(#SVGID_1_)" d="M263.996,20.965l-8.25,141c0,0-1.98,8.121,14.836,9.324c0.164-0.324,15.492,0.359,16.102-9.449
		l-7.688-140.875H263.996z"/>
	
		<linearGradient id="SVGID_2_" gradientUnits="userSpaceOnUse" x1="28.9072" y1="170.4863" x2="34.7702" y2="154.3779" gradientTransform="matrix(0.75 0 0 -0.75 247.5034 142.8789)">
		<stop  offset="0" style="stop-color:#838D98"/>
		<stop  offset="0.51" style="stop-color:#DCE0E4"/>
		<stop  offset="1" style="stop-color:#95A0AC"/>
	</linearGradient>
	<path fill="url(#SVGID_2_)" d="M263.621,20.789c0-2.25,3.473-3.75,7.754-3.75c4.246,0,7.758,1.793,7.758,4.008
		c0.238,1.992-3.473,4.004-7.758,4.004c-4.004,0.238-7.754-1.793-7.754-4.004V20.789z"/>
	
		<linearGradient id="SVGID_3_" gradientUnits="userSpaceOnUse" x1="21.48" y1="157.0684" x2="52.4863" y2="157.0684" gradientTransform="matrix(0.75 0 0 -0.75 243.6626 209.4922)">
		<stop  offset="0" style="stop-color:#552223"/>
		<stop  offset="0.29" style="stop-color:#783334"/>
		<stop  offset="0.62" style="stop-color:#AA6262"/>
		<stop  offset="1" style="stop-color:#870809"/>
	</linearGradient>
	<path fill="url(#SVGID_3_)" d="M260.527,83.652c0,0-0.09,4.68,10.816,5.66c-0.316,0.34,9.648-0.164,11-5.66l0.684,9.75
		c0,0-0.082,5.824-12.027,6.328c0.027-0.328-11.5-0.566-11.223-6.027L260.527,83.652z"/>
	
		<linearGradient id="SVGID_4_" gradientUnits="userSpaceOnUse" x1="21.4868" y1="158.2686" x2="49.4868" y2="158.2686" gradientTransform="matrix(0.75 0 0 -0.75 244.873 187.4453)">
		<stop  offset="0" style="stop-color:#552223"/>
		<stop  offset="0.29" style="stop-color:#783334"/>
		<stop  offset="0.62" style="stop-color:#AA6262"/>
		<stop  offset="1" style="stop-color:#870809"/>
	</linearGradient>
	<path fill="url(#SVGID_4_)" d="M261.738,61.605c0,0-0.094,4.688,9.563,4.961c0.188,0.289,8.93-0.109,9.855-4.961l0.832,9
		c0,0-0.297,4.824-10.973,5.277c-0.277-0.027-8.555-0.109-10.027-4.906L261.738,61.605z"/>
	
		<linearGradient id="SVGID_5_" gradientUnits="userSpaceOnUse" x1="21.4888" y1="159.251" x2="45.4888" y2="159.251" gradientTransform="matrix(0.75 0 0 -0.75 246.2588 165.3955)">
		<stop  offset="0" style="stop-color:#552223"/>
		<stop  offset="0.29" style="stop-color:#783334"/>
		<stop  offset="0.62" style="stop-color:#AA6262"/>
		<stop  offset="1" style="stop-color:#870809"/>
	</linearGradient>
	<path fill="url(#SVGID_5_)" d="M262.375,39.555c0,0,0.344,3.938,8.906,4.594c0.094-0.094,7.59,0.164,8.684-4.594l0.41,8.25
		c0,0,0.047,4.156-9.348,4.555c0.348-0.055-7.785-0.148-8.652-4.078V39.555z"/>
	
		<linearGradient id="SVGID_6_" gradientUnits="userSpaceOnUse" x1="21.4912" y1="159.1016" x2="43.5015" y2="159.1016" gradientTransform="matrix(0.75 0 0 -0.75 246.9014 147.0059)">
		<stop  offset="0" style="stop-color:#552223"/>
		<stop  offset="0.29" style="stop-color:#783334"/>
		<stop  offset="0.62" style="stop-color:#AA6262"/>
		<stop  offset="1" style="stop-color:#870809"/>
	</linearGradient>
	<path fill="url(#SVGID_6_)" d="M263.77,21.164c0,0,0.348,3.887,7.609,3.887c-0.109-0.137,7.328,0.063,7.754-3.887l0.387,9
		c0,0,0.57,3.371-8.141,4.031c-0.109-0.281-7.68-0.246-8.359-3.961L263.77,21.164z"/>
	<path fill="#464D5B" d="M266.195,20.379c0-0.75,2.32-2.25,5.18-2.25c3.07,0,5.18,1.164,5.18,2.598
		c0.141,1.152-2.316,2.602-5.18,2.602c-2.93,0.051-5.18-1.164-5.18-2.602V20.379z"/>
	
		<linearGradient id="SVGID_7_" gradientUnits="userSpaceOnUse" x1="21.397" y1="72.4355" x2="60.707" y2="72.4355" gradientTransform="matrix(0.75 0 0 -0.75 194.0439 134.1563)">
		<stop  offset="0" style="stop-color:#5C6976"/>
		<stop  offset="0.39" style="stop-color:#B7BFC9"/>
		<stop  offset="0.61" style="stop-color:#D8DCE1"/>
		<stop  offset="1" style="stop-color:#91A1B2"/>
	</linearGradient>
	<path fill="url(#SVGID_7_)" d="M217.66,8.316l-7.5,134.25c0,0-1.883,7.539,14.109,8.684c0.141,0.316,14.727,0.344,15.305-8.984
		L232.66,8.316H217.66z"/>
	
		<linearGradient id="SVGID_8_" gradientUnits="userSpaceOnUse" x1="28.5293" y1="170.3496" x2="34.097" y2="155.0526" gradientTransform="matrix(0.75 0 0 -0.75 201.5303 130.4219)">
		<stop  offset="0" style="stop-color:#838D98"/>
		<stop  offset="0.51" style="stop-color:#DCE0E4"/>
		<stop  offset="1" style="stop-color:#95A0AC"/>
	</linearGradient>
	<path fill="url(#SVGID_8_)" d="M217.648,8.332c0-2.25,3.301-3.75,7.371-3.75c3.879,0,7.375,1.707,7.375,3.809
		c0.254,2.191-3.301,3.809-7.375,3.809c-4.371-0.117-7.371-1.703-7.371-3.809V8.332z"/>
	
		<linearGradient id="SVGID_9_" gradientUnits="userSpaceOnUse" x1="21.4839" y1="157.5967" x2="50.4912" y2="157.5967" gradientTransform="matrix(0.75 0 0 -0.75 197.8784 193.7617)">
		<stop  offset="0" style="stop-color:#552223"/>
		<stop  offset="0.29" style="stop-color:#783334"/>
		<stop  offset="0.62" style="stop-color:#AA6262"/>
		<stop  offset="1" style="stop-color:#870809"/>
	</linearGradient>
	<path fill="url(#SVGID_9_)" d="M214.746,67.922c0,0-0.125,4.449,10.242,5.383c0.258-0.133,9.176-0.156,10.461-5.383l0.297,9.75
		c0,0,0.277,5.059-11.082,5.535c-0.168-0.285-10.934-0.535-10.668-5.73L214.746,67.922z"/>
	
		<linearGradient id="SVGID_10_" gradientUnits="userSpaceOnUse" x1="21.4868" y1="158.7363" x2="47.4873" y2="158.7363" gradientTransform="matrix(0.75 0 0 -0.75 199.0293 172.7979)">
		<stop  offset="0" style="stop-color:#552223"/>
		<stop  offset="0.29" style="stop-color:#783334"/>
		<stop  offset="0.62" style="stop-color:#AA6262"/>
		<stop  offset="1" style="stop-color:#870809"/>
	</linearGradient>
	<path fill="url(#SVGID_10_)" d="M215.895,46.957c0,0-0.129,4.461,9.055,4.719c-0.055-0.219,8.492-0.102,9.371-4.719l0.324,8.25
		c0,0,0.188,4.895-9.965,5.328c0.215-0.078-8.137-0.105-9.535-4.668L215.895,46.957z"/>
	
		<linearGradient id="SVGID_11_" gradientUnits="userSpaceOnUse" x1="21.4902" y1="159.6699" x2="44.4902" y2="159.6699" gradientTransform="matrix(0.75 0 0 -0.75 200.3472 151.832)">
		<stop  offset="0" style="stop-color:#552223"/>
		<stop  offset="0.29" style="stop-color:#783334"/>
		<stop  offset="0.62" style="stop-color:#AA6262"/>
		<stop  offset="1" style="stop-color:#870809"/>
	</linearGradient>
	<path fill="url(#SVGID_11_)" d="M216.465,25.992c0,0,0.328,3.746,8.465,4.367c-0.215,0.133,7.219,0.156,8.262-4.367l0.523,7.5
		c0,0-0.09,4.293-9.023,4.676c0.023-0.176-7.402-0.145-8.227-3.879V25.992z"/>
	
		<linearGradient id="SVGID_12_" gradientUnits="userSpaceOnUse" x1="21.4883" y1="159.4658" x2="42.4951" y2="159.4658" gradientTransform="matrix(0.75 0 0 -0.75 200.958 134.3457)">
		<stop  offset="0" style="stop-color:#552223"/>
		<stop  offset="0.29" style="stop-color:#783334"/>
		<stop  offset="0.62" style="stop-color:#AA6262"/>
		<stop  offset="1" style="stop-color:#870809"/>
	</linearGradient>
	<path fill="url(#SVGID_12_)" d="M217.824,8.508c0,0,0.297,3.691,7.199,3.691c0.301,0.059,6.969,0.059,7.371-3.691l0.43,8.25
		c0,0,0.484,3.512-7.801,4.137c0.301,0.363-7.301-0.234-7.949-3.766L217.824,8.508z"/>
	<path fill="#464D5B" d="M220.094,7.871c0-1.5,2.207-2.25,4.926-2.25c2.574,0,4.926,1.105,4.926,2.469
		c-0.102,1.281-2.203,2.473-4.926,2.473c-2.676,0.309-4.926-1.109-4.926-2.473V7.871z"/>
	
		<linearGradient id="SVGID_13_" gradientUnits="userSpaceOnUse" x1="21.3979" y1="73.8604" x2="60.1333" y2="73.8604" gradientTransform="matrix(0.75 0 0 -0.75 148.4585 122.0488)">
		<stop  offset="0" style="stop-color:#5C6976"/>
		<stop  offset="0.39" style="stop-color:#B7BFC9"/>
		<stop  offset="0.61" style="stop-color:#D8DCE1"/>
		<stop  offset="1" style="stop-color:#91A1B2"/>
	</linearGradient>
	<path fill="url(#SVGID_13_)" d="M172.074-3.789l-7.5,132c0,0-1.855,7.715,13.902,8.844c0.348,0.156,14.512,0.336,15.082-8.855
		L186.324-3.789H172.074z"/>
	
		<linearGradient id="SVGID_14_" gradientUnits="userSpaceOnUse" x1="28.4307" y1="170.3135" x2="33.9151" y2="155.2451" gradientTransform="matrix(0.75 0 0 -0.75 155.8354 118.3691)">
		<stop  offset="0" style="stop-color:#838D98"/>
		<stop  offset="0.51" style="stop-color:#DCE0E4"/>
		<stop  offset="1" style="stop-color:#95A0AC"/>
	</linearGradient>
	<path fill="url(#SVGID_14_)" d="M171.953-3.723c0-2.25,3.254-3.75,7.266-3.75c3.984,0,7.266,1.684,7.266,3.754
		c-0.281,2.246-3.254,3.754-7.266,3.754c-4.266-0.008-7.266-1.68-7.266-3.754V-3.723z"/>
	
		<linearGradient id="SVGID_15_" gradientUnits="userSpaceOnUse" x1="21.4805" y1="157.7422" x2="50.4863" y2="157.7422" gradientTransform="matrix(0.75 0 0 -0.75 152.2368 180.7832)">
		<stop  offset="0" style="stop-color:#552223"/>
		<stop  offset="0.29" style="stop-color:#783334"/>
		<stop  offset="0.62" style="stop-color:#AA6262"/>
		<stop  offset="1" style="stop-color:#870809"/>
	</linearGradient>
	<path fill="url(#SVGID_15_)" d="M169.102,54.945c0,0-0.133,4.383,10.086,5.301c-0.336-0.051,9.043-0.152,10.309-5.301l0.605,9.75
		c0,0-0.043,4.84-11.234,5.313c-0.016-0.063-10.773-0.531-10.516-5.648L169.102,54.945z"/>
	
		<linearGradient id="SVGID_16_" gradientUnits="userSpaceOnUse" x1="21.4893" y1="158.8555" x2="47.4893" y2="158.8555" gradientTransform="matrix(0.75 0 0 -0.75 153.3711 160.127)">
		<stop  offset="0" style="stop-color:#552223"/>
		<stop  offset="0.29" style="stop-color:#783334"/>
		<stop  offset="0.62" style="stop-color:#AA6262"/>
		<stop  offset="1" style="stop-color:#870809"/>
	</linearGradient>
	<path fill="url(#SVGID_16_)" d="M170.238,34.285c0,0-0.141,4.395,8.91,4.648c0.09-0.148,8.367-0.102,9.234-4.648l0.605,8.25
		c0,0-0.105,4.703-10.105,5.129c0.355,0.121-8.02-0.102-9.395-4.598L170.238,34.285z"/>
	
		<linearGradient id="SVGID_17_" gradientUnits="userSpaceOnUse" x1="21.4878" y1="159.79" x2="44.4878" y2="159.79" gradientTransform="matrix(0.75 0 0 -0.75 154.6694 139.4668)">
		<stop  offset="0" style="stop-color:#552223"/>
		<stop  offset="0.29" style="stop-color:#783334"/>
		<stop  offset="0.62" style="stop-color:#AA6262"/>
		<stop  offset="1" style="stop-color:#870809"/>
	</linearGradient>
	<path fill="url(#SVGID_17_)" d="M170.785,13.625c0,0,0.324,3.691,8.344,4.305c-0.094,0.195,7.113,0.152,8.141-4.305l0.766,7.5
		c0,0-0.34,4.125-9.141,4.5c0.141,0-7.297-0.141-8.109-3.82V13.625z"/>
	
		<linearGradient id="SVGID_18_" gradientUnits="userSpaceOnUse" x1="21.4868" y1="159.6484" x2="42.4878" y2="159.6484" gradientTransform="matrix(0.75 0 0 -0.75 155.2715 122.2363)">
		<stop  offset="0" style="stop-color:#552223"/>
		<stop  offset="0.29" style="stop-color:#783334"/>
		<stop  offset="0.62" style="stop-color:#AA6262"/>
		<stop  offset="1" style="stop-color:#870809"/>
	</linearGradient>
	<path fill="url(#SVGID_18_)" d="M172.137-3.605c0,0,0.281,3.641,7.086,3.641c-0.336,0.109,6.867,0.059,7.262-3.641l0.652,8.25
		c0,0,0.246,3.34-7.914,3.961c-0.336-0.211-7.195-0.234-7.836-3.711L172.137-3.605z"/>
	<path fill="#0195B7" d="M163.906,194.648v57.75l91.5-50.25v-54L163.906,194.648z"/>
	<path fill="#59B2CF" d="M164.25,194.465v57.75l-134.25-66v-53.25L164.25,194.465z"/>
	<path fill="#00748E" d="M35.793,132.527l81-31.5v4.5l-75,32.25L35.793,132.527z"/>
	<path fill="#0195B7" d="M117.121,101.027v4.5l132,45l3.75-2.25L117.121,101.027z"/>
	<path fill="#697488" d="M42.805,136.039c0,0,15.508-15.414,41.676-17.25l124.074,50.25l-44.25,24.75L42.805,136.039z"/>
	<path fill="#B7C9C8" d="M183.422,194v39l65.25-35.25v-37.5L183.422,194z"/>
	<path fill="#C8D6D5" d="M167.375,204.273v30.75l3-1.5v-30.75L167.375,204.273z"/>
	<path fill="#D4DEE6" d="M117.914,99.633l1.5,0.75l-87,33.75l-2.25-1.5L117.914,99.633z"/>
	<path fill="#D4DEE6" d="M163.664,194.734l3.75-1.5l-134.25-61.5l-3,1.5L163.664,194.734z"/>
	<path fill="#697488" d="M84.855,118.426c0,0,12.832-13.082,32.266-13.5l128.984,45l-37.5,19.5L84.855,118.426z"/>
	<path fill="#9CC1D2" d="M248.512,160.25v37.5l-1.5-0.75v-36L248.512,160.25z"/>
	<path fill="#45A5C5" d="M248.59,197.57l-1.5-0.75l-63.75,33.75v2.25L248.59,197.57z"/>
	<path fill="#FFFFFF" fill-opacity="0.1961" d="M247.09,160.984v36l-63.75,33.75l33-54L247.09,160.984z"/>
	<path fill="#D4DEE6" d="M163.738,194.941l-3-1.5l91.5-46.5l3.75,1.5L163.738,194.941z"/>
	<path fill="#D4DEE6" d="M253.277,149.883l2.25-1.5l-138-48.75l-2.25,0.75L253.277,149.883z"/>
	<path fill="#9CC1D2" d="M226.512,189.867v18l1.5,0.75v-19.5L226.512,189.867z"/>
	<path fill="#B9D1DD" d="M227.887,189.016v19.5l1.5-0.75v-19.5L227.887,189.016z"/>
	<path fill="#9CC1D2" d="M205.645,200.895v18l1.5,0.75v-19.5L205.645,200.895z"/>
	<path fill="#B9D1DD" d="M207.039,200.031v20.25l1.5-1.5v-19.5L207.039,200.031z"/>
	<path fill="#81B4CA" d="M183.449,209.859l63.75-33l1.5,0.75l-65.25,33.75V209.859z"/>
	<path fill="#B3CEDB" d="M183.391,211.313v2.25l65.25-33.75v-2.25L183.391,211.313z"/>
	<path fill="#9CC1D2" d="M205.992,182.375v15.75l1.5,0.75v-17.25L205.992,182.375z"/>
	<path fill="#B9D1DD" d="M207.363,181.512v17.25l1.5-0.75v-17.25L207.363,181.512z"/>
	<path fill="#9CC1D2" d="M226.852,171.574v15.75l1.5,0.75v-17.25L226.852,171.574z"/>
	<path fill="#B9D1DD" d="M228.203,170.723v17.25l1.5-0.75v-17.25L228.203,170.723z"/>
	<path fill="#C8D6D5" d="M172.129,202.016v30.75l3-1.5v-30.75L172.129,202.016z"/>
	<path fill="#C8D6D5" d="M176.887,199.395v30.75l3-1.5v-30.75L176.887,199.395z"/>
	<path fill="#4B5462" d="M84.48,119.074l123,50.25l1.5-0.75l-123.75-50.25L84.48,119.074z"/>
	<path fill="#4B5462" d="M131.434,176.961c0,0,18.008-17.172,42.902-21.336c-0.152,0.336,17.215-15.027,37.504-17.805l-1.656-0.609
		c0,0-18.559,2.961-36.461,17.875c-0.289,0.125-19.211,1.723-43.789,20.965L131.434,176.961z"/>
	<path fill="#4B5462" d="M100.918,162.645c0,0,17.055-17.27,43.105-20.043c-0.355-0.207,13.484-13.41,35.73-16.418l-1.586-0.289
		c0,0-17.047,1.023-34.953,15.938c-0.297-0.188-20.859,0.652-43.797,19.844L100.918,162.645z"/>
	<path fill="#4B5462" d="M67.586,147.551c0,0,16.156-16.625,43.012-18.477c-0.262-0.273,11.988-10.984,34.473-14.684l-1.734-0.59
		c0,0-18.793,2.902-33.699,14.543c-0.051-0.293-20.133-0.426-42.801,18.371L67.586,147.551z"/>
	<path fill="#FFFFFF" fill-opacity="0.1608" d="M42.816,135.938c0,0,10.727-9.293,22.254-12.75l123.246,56.25l-24.75,12
		L42.816,135.938z"/>
	<path fill="#FFFFFF" fill-opacity="0.1608" d="M85.352,118.129c0,0,6.688-6.512,16.371-9.75l128.379,50.25l-21,10.5L85.352,118.129
		z"/>
	<path fill="#C8D6D5" d="M116.172,185.602v30.75l39.75,20.25l0.75-33L116.172,185.602z"/>
	<path fill="#45A5C5" d="M155.922,236.602v-2.25l-37.5-18.75l-2.25,0.75L155.922,236.602z"/>
	<path fill="#9CC1D2" d="M118.469,186.352v29.25l-2.25,1.5v-31.5L118.469,186.352z"/>
	<path fill="#FFFFFF" fill-opacity="0.4157" d="M156.352,203.906v30.75l-38.25-18.75l15-22.5L156.352,203.906z"/>
	<path fill="#9CC1D2" d="M130.105,206.336v15.75l-1.5,0.75v-16.5H130.105z"/>
	<path fill="#B9D1DD" d="M128.945,206.367v16.5l-1.5-0.75v-16.5L128.945,206.367z"/>
	<path fill="#9CC1D2" d="M145.199,213.34v16.5l-1.5,0.75v-17.25H145.199z"/>
	<path fill="#B9D1DD" d="M144.004,213.352v17.25l-1.5-0.75v-17.25L144.004,213.352z"/>
	<path fill="#B3CEDB" d="M116.258,200.266v2.25l40.5,18.75l-0.75-2.25L116.258,200.266z"/>
	<path fill="#81B4CA" d="M118.508,199.492l38.25,17.25l-0.75,2.25l-39.75-18.75L118.508,199.492z"/>
	<path fill="#9CC1D2" d="M130.164,192.133v13.5h-1.5v-14.25L130.164,192.133z"/>
	<path fill="#B9D1DD" d="M129.023,191.543v14.25l-1.5-0.75v-14.25L129.023,191.543z"/>
	<path fill="#9CC1D2" d="M145.258,198.703v13.5l-1.5,0.75v-15L145.258,198.703z"/>
	<path fill="#B9D1DD" d="M144.082,198.094v15l-1.5-0.75v-15L144.082,198.094z"/>
	<path fill="#C8D6D5" d="M37.109,147.441v30l39,19.5v-32.25L37.109,147.441z"/>
	<path fill="#45A5C5" d="M76.109,196.715v-2.25l-37.5-18l-1.5,0.75L76.109,196.715z"/>
	<path fill="#9CC1D2" d="M39.402,148.191l-0.75,28.5l-1.5,0.75v-30L39.402,148.191z"/>
	<path fill="#FFFFFF" fill-opacity="0.4157" d="M76.477,164.742l-0.75,30l-36.75-18l14.25-21.75L76.477,164.742z"/>
	<path fill="#9CC1D2" d="M50.59,167.504v15l-1.5,0.75l0.75-15.75H50.59z"/>
	<path fill="#B9D1DD" d="M49.465,167.559v15.75l-1.5-0.75v-15.75L49.465,167.559z"/>
	<path fill="#9CC1D2" d="M65.188,174.277v15.75l-1.5,0.75v-16.5H65.188z"/>
	<path fill="#B9D1DD" d="M64.035,174.313v16.5l-1.5-0.75v-16.5L64.035,174.313z"/>
	<path fill="#B3CEDB" d="M37.191,161.629v2.25l39,18v-2.25L37.191,161.629z"/>
	<path fill="#81B4CA" d="M38.691,160.883l37.5,16.5v2.25l-39-18L38.691,160.883z"/>
	<path fill="#9CC1D2" d="M50.645,153.789v12.75l-1.5,0.75l0.75-14.25L50.645,153.789z"/>
	<path fill="#B9D1DD" d="M49.539,153.215v14.25l-1.5-0.75v-14.25L49.539,153.215z"/>
	<path fill="#9CC1D2" d="M65.246,160.145v13.5h-1.5v-14.25L65.246,160.145z"/>
	<path fill="#B9D1DD" d="M64.109,159.555v14.25l-1.5-0.75v-14.25L64.109,159.555z"/>
	<path fill="#697488" d="M82.457,183.684v28.5l24,12v-28.5L82.457,183.684z"/>
	<path fill="#4E5766" d="M82.457,192.504l2.25-1.5v19.5l-2.25,1.5V192.504z"/>
	<path fill="#89C3EB" d="M82.438,183.391l27,13.5l-8.25,4.5l-27-14.25L82.438,183.391z"/>
	<path fill="#ACD2F0" d="M74.188,187.09v2.25l27,14.25v-2.25L74.188,187.09z"/>
	<path fill="#73A5C7" d="M101.246,201.516v2.25l8.25-5.25v-1.5L101.246,201.516z"/>
	<path fill="#969FAE" d="M82.457,212.082l24,12v-3l-21.75-10.5L82.457,212.082z"/>
</g>
</svg>
