<?xml version="1.0" encoding="utf-8"?>
<!-- Generator: Adobe Illustrator 16.0.0, SVG Export Plug-In . SVG Version: 6.00 Build 0)  -->
<!DOCTYPE svg PUBLIC "-//W3C//DTD SVG 1.1//EN" "http://www.w3.org/Graphics/SVG/1.1/DTD/svg11.dtd">
<svg preserveAspectRatio="none" version="1.1" id="图层_1" xmlns="http://www.w3.org/2000/svg" xmlns:xlink="http://www.w3.org/1999/xlink" x="0px" y="0px"
	 width="299.25px" height="215.125px" viewBox="30 15.102 299.25 215.125" enable-background="new 30 15.102 299.25 215.125"
	 xml:space="preserve">
<g id="surface371">
	<path fill="#EBF6FB" d="M200.477,229.52l-166.5-86.25v-87l166.5,78V229.52z"/>
	<path fill="#E4EEF3" d="M327.27,77.809l-126.75,56.25v95.25l126.75-66.75V77.809z"/>
	<path fill="#E1F1F7" d="M157.5,15.102L30,54.852l170.25,79.5l129-57.75L157.5,15.102z"/>
	<path fill="#CFEBF6" d="M197.453,227.836l-160.5-82.5l0.75-3l159.75,82.5V227.836z"/>
	<path fill="#C1DBE5" d="M327.176,89.238l-5.25,2.25v73.5l5.25-2.25V89.238z"/>
	<path fill="#C1DBE5" d="M205.563,142.477l-5.25-8.25v96l5.25-3V142.477z"/>
	<path fill="#9EB4BD" d="M329.25,79.078l-129,57v10.5l129-58.5V79.078z"/>
	<path fill="#C1DBE5" d="M329.25,76.879l-129,57v10.5l129-58.5V76.879z"/>
	<path fill="#BCBCBC" d="M148.332,148.137l16.5,8.25v27l-1.5,0.75l-12.75-8.25l-3.75-27L148.332,148.137z"/>
	<path fill="#F9F9F9" d="M146.832,148.793l16.5,8.25v27l-16.5-8.25V148.793z"/>
	<path fill="#A0A0A0" d="M148.785,152.574l12.75,6v22.5l-12.75-6.75V152.574z"/>
	<path fill="#BAD0D8" d="M150.074,153.148l11.25,5.25v21.75l-11.25-6V153.148z"/>
	<path fill="#CFEBF6" d="M141.512,116.918l2.25,1.5l0.75,78.75l-3-1.5V116.918z"/>
	<path fill="#CFEBF6" d="M89.461,92.363l3,1.5l-0.75,76.5l-2.25-1.5V92.363z"/>
	<path fill="#CFEBF6" d="M200.477,230.227l-4.5-3v-87.75l4.5-5.25V230.227z"/>
	<path fill="#CFEBF6" d="M38.859,146.578l-5.25-3l0.75-75l4.5,2.25V146.578z"/>
	<path fill="#BBD5DF" d="M200.477,146.773l-170.25-80.25v-9.75l170.25,79.5V146.773z"/>
	<path fill="#CFEBF6" d="M200.477,144.574l-170.25-80.25v-9.75l170.25,79.5V144.574z"/>
	<path fill="#DEE3EC" d="M167.113,164.559l21.75,9v47.25l-21.75-11.25V164.559z"/>
	<path fill="#717070" d="M167.234,164.355l21,9v1.5l-21-9V164.355z"/>
	<path fill="#717070" d="M167.133,164.355l1.5,0.75v45.75l-1.5-1.5V164.355z"/>
	<path fill="#717070" d="M187.949,173.348l1.5,0.75v47.25l-1.5-0.75V173.348z"/>
	<path fill="#C4CDDD" d="M168.406,207.066l19.5,9.75v3.75l-19.5-9.75V207.066z"/>
	<path fill="#BAD0D8" d="M171.273,171.41l13.5,6v18.75l-13.5-6V171.41z"/>
	<path fill="#A3B1CA" d="M171.258,171.414l0.75,0.75v17.25l-0.75,0.75V171.414z"/>
	<path fill="#AAB8D2" d="M171.273,190.469l13.5,6v-0.75l-12.75-6L171.273,190.469z"/>
	
		<linearGradient id="SVGID_1_" gradientUnits="userSpaceOnUse" x1="-137.7754" y1="38.1069" x2="-137.7754" y2="36.1089" gradientTransform="matrix(0.6495 -0.375 -0.375 -0.6495 289.4755 167.6672)">
		<stop  offset="0" style="stop-color:#BDA47F"/>
		<stop  offset="0.15" style="stop-color:#FFE0B3"/>
		<stop  offset="0.25" style="stop-color:#FFEED7"/>
		<stop  offset="0.52" style="stop-color:#DFC297"/>
		<stop  offset="0.69" style="stop-color:#C7AD86"/>
		<stop  offset="0.8" style="stop-color:#BCA37E"/>
		<stop  offset="0.92" style="stop-color:#B19A77"/>
		<stop  offset="1" style="stop-color:#CBB189"/>
	</linearGradient>
	<path fill="url(#SVGID_1_)" d="M185.047,194.957l1.301-0.75c0,0-0.117,0.066,0.172,0.441c0.203,0.207,0.168,0.762,0.168,0.762
		l-0.891,0.844L185.047,194.957z"/>
	
		<linearGradient id="SVGID_2_" gradientUnits="userSpaceOnUse" x1="-137.7749" y1="38.106" x2="-137.7749" y2="36.1069" gradientTransform="matrix(0.6495 -0.375 -0.375 -0.6495 289.4687 172.2453)">
		<stop  offset="0" style="stop-color:#BDA47F"/>
		<stop  offset="0.15" style="stop-color:#FFE0B3"/>
		<stop  offset="0.25" style="stop-color:#FFEED7"/>
		<stop  offset="0.52" style="stop-color:#DFC297"/>
		<stop  offset="0.69" style="stop-color:#C7AD86"/>
		<stop  offset="0.8" style="stop-color:#BCA37E"/>
		<stop  offset="0.92" style="stop-color:#B19A77"/>
		<stop  offset="1" style="stop-color:#CBB189"/>
	</linearGradient>
	<path fill="url(#SVGID_2_)" d="M185.043,199.535l1.297-0.75c0,0-0.113,0.066,0.176,0.445c0.199,0.203,0.164,0.762,0.164,0.762
		l-0.887,0.84L185.043,199.535z"/>
	
		<linearGradient id="SVGID_3_" gradientUnits="userSpaceOnUse" x1="22.7813" y1="161.4521" x2="21.4564" y2="161.4521" gradientTransform="matrix(0.75 0 0 -0.75 168.7163 318.7051)">
		<stop  offset="0" style="stop-color:#BDA47F"/>
		<stop  offset="0.15" style="stop-color:#FFE0B3"/>
		<stop  offset="0.25" style="stop-color:#FFEED7"/>
		<stop  offset="0.52" style="stop-color:#DFC297"/>
		<stop  offset="0.69" style="stop-color:#C7AD86"/>
		<stop  offset="0.8" style="stop-color:#BCA37E"/>
		<stop  offset="0.92" style="stop-color:#B19A77"/>
		<stop  offset="1" style="stop-color:#CBB189"/>
	</linearGradient>
	<path fill="url(#SVGID_3_)" d="M185.582,192.863c0,0,0.219,0.172,0.219,0.379l-0.219,8.621c0,0-0.004,0.383-0.277,0.383
		c-0.473,0.367-0.496-0.172-0.496-0.379l0.023-8.254c0-0.75,0.199-0.75,0.473-0.75H185.582z"/>
	
		<linearGradient id="SVGID_4_" gradientUnits="userSpaceOnUse" x1="23.4902" y1="166.6816" x2="21.4837" y2="166.6816" gradientTransform="matrix(0.75 0 0 -0.75 168.562 327.043)">
		<stop  offset="0" style="stop-color:#BC9C53"/>
		<stop  offset="0.15" style="stop-color:#FED681"/>
		<stop  offset="0.25" style="stop-color:#FEE8C2"/>
		<stop  offset="0.52" style="stop-color:#DEB863"/>
		<stop  offset="0.69" style="stop-color:#C6A457"/>
		<stop  offset="0.8" style="stop-color:#BB9B52"/>
		<stop  offset="0.92" style="stop-color:#B0924D"/>
		<stop  offset="1" style="stop-color:#CBA859"/>
	</linearGradient>
	<path fill="url(#SVGID_4_)" d="M184.68,201.203h0.75c0.75,0,0.535,0.102,0.535,0.23l0.215,1.27c0,0-0.316,0.164-0.445,0.164
		l-1.055-0.164c0,0-0.008,0.059-0.008-0.07L184.68,201.203c0,0,0.098-0.004,0.227-0.004L184.68,201.203z"/>
	
		<linearGradient id="SVGID_5_" gradientUnits="userSpaceOnUse" x1="23.4902" y1="166.6787" x2="21.4837" y2="166.6787" gradientTransform="matrix(0.75 0 0 -0.75 168.562 317.8223)">
		<stop  offset="0" style="stop-color:#BC9C53"/>
		<stop  offset="0.15" style="stop-color:#FED681"/>
		<stop  offset="0.25" style="stop-color:#FEE8C2"/>
		<stop  offset="0.52" style="stop-color:#DEB863"/>
		<stop  offset="0.69" style="stop-color:#C6A457"/>
		<stop  offset="0.8" style="stop-color:#BB9B52"/>
		<stop  offset="0.92" style="stop-color:#B0924D"/>
		<stop  offset="1" style="stop-color:#CBA859"/>
	</linearGradient>
	<path fill="url(#SVGID_5_)" d="M184.68,191.984h0.75c0.75,0,0.535,0.098,0.535,0.227l0.215,1.273c0,0-0.316,0.164-0.445,0.164
		l-1.055-0.164c0,0-0.008,0.059-0.008-0.07L184.68,191.984c0,0,0.098-0.004,0.227-0.004L184.68,191.984z"/>
	<path fill="#BCBCBC" d="M96.5,121.035l16.5,8.25v27l-1.5,0.75l-12.75-8.25l-3.75-27L96.5,121.035z"/>
	<path fill="#F9F9F9" d="M95,121.691l16.5,8.25v27l-16.5-8.25V121.691z"/>
	<path fill="#A0A0A0" d="M96.949,125.473l12.75,6v22.5l-12.75-6.75V125.473z"/>
	<path fill="#BAD0D8" d="M98.238,126.051l11.25,5.25v21.75l-11.25-6V126.051z"/>
	<path fill="#DEE3EC" d="M115.277,137.461l21.75,9v47.25l-21.75-11.25V137.461z"/>
	<path fill="#717070" d="M115.398,137.258l21,9v1.5l-21-9V137.258z"/>
	<path fill="#717070" d="M115.297,137.258l1.5,0.75v45.75l-1.5-1.5V137.258z"/>
	<path fill="#717070" d="M136.113,146.25l1.5,0.75v47.25l-1.5-0.75V146.25z"/>
	<path fill="#C4CDDD" d="M116.57,179.969l19.5,9.75v3.75l-19.5-9.75V179.969z"/>
	<path fill="#BAD0D8" d="M119.438,144.313l13.5,6v18.75l-13.5-6V144.313z"/>
	<path fill="#A3B1CA" d="M119.422,144.313l0.75,0.75v17.25l-0.75,0.75V144.313z"/>
	<path fill="#AAB8D2" d="M119.438,163.371l13.5,6v-0.75l-12.75-6L119.438,163.371z"/>
	
		<linearGradient id="SVGID_6_" gradientUnits="userSpaceOnUse" x1="-137.7725" y1="38.1099" x2="-137.7725" y2="36.1108" gradientTransform="matrix(0.6495 -0.375 -0.375 -0.6495 237.6401 140.5695)">
		<stop  offset="0" style="stop-color:#BDA47F"/>
		<stop  offset="0.15" style="stop-color:#FFE0B3"/>
		<stop  offset="0.25" style="stop-color:#FFEED7"/>
		<stop  offset="0.52" style="stop-color:#DFC297"/>
		<stop  offset="0.69" style="stop-color:#C7AD86"/>
		<stop  offset="0.8" style="stop-color:#BCA37E"/>
		<stop  offset="0.92" style="stop-color:#B19A77"/>
		<stop  offset="1" style="stop-color:#CBB189"/>
	</linearGradient>
	<path fill="url(#SVGID_6_)" d="M133.215,167.855l1.297-0.75c0,0-0.113,0.066,0.176,0.445c0.199,0.207,0.164,0.762,0.164,0.762
		l-0.887,0.844L133.215,167.855z"/>
	
		<linearGradient id="SVGID_7_" gradientUnits="userSpaceOnUse" x1="-137.7749" y1="38.1069" x2="-137.7749" y2="36.1089" gradientTransform="matrix(0.6495 -0.375 -0.375 -0.6495 237.6332 145.1477)">
		<stop  offset="0" style="stop-color:#BDA47F"/>
		<stop  offset="0.15" style="stop-color:#FFE0B3"/>
		<stop  offset="0.25" style="stop-color:#FFEED7"/>
		<stop  offset="0.52" style="stop-color:#DFC297"/>
		<stop  offset="0.69" style="stop-color:#C7AD86"/>
		<stop  offset="0.8" style="stop-color:#BCA37E"/>
		<stop  offset="0.92" style="stop-color:#B19A77"/>
		<stop  offset="1" style="stop-color:#CBB189"/>
	</linearGradient>
	<path fill="url(#SVGID_7_)" d="M133.207,172.438l1.297-0.75c0,0-0.113,0.066,0.176,0.441c0.199,0.207,0.164,0.766,0.164,0.766
		l-0.887,0.84L133.207,172.438z"/>
	
		<linearGradient id="SVGID_8_" gradientUnits="userSpaceOnUse" x1="22.7813" y1="161.4502" x2="21.4564" y2="161.4502" gradientTransform="matrix(0.75 0 0 -0.75 116.8809 291.6064)">
		<stop  offset="0" style="stop-color:#BDA47F"/>
		<stop  offset="0.15" style="stop-color:#FFE0B3"/>
		<stop  offset="0.25" style="stop-color:#FFEED7"/>
		<stop  offset="0.52" style="stop-color:#DFC297"/>
		<stop  offset="0.69" style="stop-color:#C7AD86"/>
		<stop  offset="0.8" style="stop-color:#BCA37E"/>
		<stop  offset="0.92" style="stop-color:#B19A77"/>
		<stop  offset="1" style="stop-color:#CBB189"/>
	</linearGradient>
	<path fill="url(#SVGID_8_)" d="M133.746,165.766c0,0,0.219,0.168,0.219,0.379l-0.219,8.621c0,0,0,0.383-0.277,0.383
		c-0.473,0.367-0.496-0.172-0.496-0.379l0.023-8.254c0-0.75,0.199-0.75,0.473-0.75H133.746z"/>
	
		<linearGradient id="SVGID_9_" gradientUnits="userSpaceOnUse" x1="23.4883" y1="166.6807" x2="21.4834" y2="166.6807" gradientTransform="matrix(0.75 0 0 -0.75 116.7271 299.9453)">
		<stop  offset="0" style="stop-color:#BC9C53"/>
		<stop  offset="0.15" style="stop-color:#FED681"/>
		<stop  offset="0.25" style="stop-color:#FEE8C2"/>
		<stop  offset="0.52" style="stop-color:#DEB863"/>
		<stop  offset="0.69" style="stop-color:#C6A457"/>
		<stop  offset="0.8" style="stop-color:#BB9B52"/>
		<stop  offset="0.92" style="stop-color:#B0924D"/>
		<stop  offset="1" style="stop-color:#CBA859"/>
	</linearGradient>
	<path fill="url(#SVGID_9_)" d="M132.844,174.105h0.75c0.75,0,0.539,0.102,0.539,0.23l0.211,1.27c0,0-0.316,0.164-0.445,0.164
		l-1.055-0.164c0,0-0.004,0.059-0.004-0.07L132.844,174.105c0,0,0.098-0.004,0.227-0.004L132.844,174.105z"/>
	
		<linearGradient id="SVGID_10_" gradientUnits="userSpaceOnUse" x1="23.4883" y1="166.6777" x2="21.4834" y2="166.6777" gradientTransform="matrix(0.75 0 0 -0.75 116.7271 290.7246)">
		<stop  offset="0" style="stop-color:#BC9C53"/>
		<stop  offset="0.15" style="stop-color:#FED681"/>
		<stop  offset="0.25" style="stop-color:#FEE8C2"/>
		<stop  offset="0.52" style="stop-color:#DEB863"/>
		<stop  offset="0.69" style="stop-color:#C6A457"/>
		<stop  offset="0.8" style="stop-color:#BB9B52"/>
		<stop  offset="0.92" style="stop-color:#B0924D"/>
		<stop  offset="1" style="stop-color:#CBA859"/>
	</linearGradient>
	<path fill="url(#SVGID_10_)" d="M132.844,164.887h0.75c0.75,0,0.539,0.098,0.539,0.227l0.211,1.273c0,0-0.316,0.164-0.445,0.164
		l-1.055-0.164c0,0-0.004,0.059-0.004-0.07L132.844,164.887c0,0,0.098-0.004,0.227-0.004L132.844,164.887z"/>
	<path fill="#BCBCBC" d="M44.695,94.156l16.5,8.25v27l-1.5,0.75l-12.75-8.25l-3.75-27L44.695,94.156z"/>
	<path fill="#F9F9F9" d="M43.195,94.813l16.5,8.25v27l-16.5-8.25V94.813z"/>
	<path fill="#A0A0A0" d="M45.148,98.594l12.75,6v22.5l-12.75-6.75V98.594z"/>
	<path fill="#BAD0D8" d="M46.438,99.168l11.25,5.25v21.75l-11.25-6V99.168z"/>
	<path fill="#DEE3EC" d="M63.477,110.582l21.75,9v47.25l-21.75-11.25V110.582z"/>
	<path fill="#717070" d="M63.598,110.375l21,9v1.5l-21-9V110.375z"/>
	<path fill="#717070" d="M63.496,110.379l1.5,0.75v45.75l-1.5-1.5V110.379z"/>
	<path fill="#717070" d="M84.313,119.371l1.5,0.75v47.25l-1.5-0.75V119.371z"/>
	<path fill="#C4CDDD" d="M64.77,153.09l19.5,9.75v3.75l-19.5-9.75V153.09z"/>
	<path fill="#BAD0D8" d="M67.637,117.434l13.5,6v18.75l-13.5-6V117.434z"/>
	<path fill="#A3B1CA" d="M67.621,117.434l0.75,0.75v17.25l-0.75,0.75V117.434z"/>
	<path fill="#AAB8D2" d="M67.637,136.488l13.5,6v-0.75l-12.75-6L67.637,136.488z"/>
	
		<linearGradient id="SVGID_11_" gradientUnits="userSpaceOnUse" x1="-137.7739" y1="38.1099" x2="-137.7739" y2="36.1079" gradientTransform="matrix(0.6495 -0.375 -0.375 -0.6495 185.8383 113.6887)">
		<stop  offset="0" style="stop-color:#BDA47F"/>
		<stop  offset="0.15" style="stop-color:#FFE0B3"/>
		<stop  offset="0.25" style="stop-color:#FFEED7"/>
		<stop  offset="0.52" style="stop-color:#DFC297"/>
		<stop  offset="0.69" style="stop-color:#C7AD86"/>
		<stop  offset="0.8" style="stop-color:#BCA37E"/>
		<stop  offset="0.92" style="stop-color:#B19A77"/>
		<stop  offset="1" style="stop-color:#CBB189"/>
	</linearGradient>
	<path fill="url(#SVGID_11_)" d="M81.41,140.977l1.301-0.75c0,0-0.117,0.066,0.172,0.445c0.203,0.203,0.168,0.762,0.168,0.762
		l-0.891,0.844L81.41,140.977z"/>
	
		<linearGradient id="SVGID_12_" gradientUnits="userSpaceOnUse" x1="-137.7729" y1="38.1079" x2="-137.7729" y2="36.1089" gradientTransform="matrix(0.6495 -0.375 -0.375 -0.6495 185.832 118.2688)">
		<stop  offset="0" style="stop-color:#BDA47F"/>
		<stop  offset="0.15" style="stop-color:#FFE0B3"/>
		<stop  offset="0.25" style="stop-color:#FFEED7"/>
		<stop  offset="0.52" style="stop-color:#DFC297"/>
		<stop  offset="0.69" style="stop-color:#C7AD86"/>
		<stop  offset="0.8" style="stop-color:#BCA37E"/>
		<stop  offset="0.92" style="stop-color:#B19A77"/>
		<stop  offset="1" style="stop-color:#CBB189"/>
	</linearGradient>
	<path fill="url(#SVGID_12_)" d="M81.406,145.555l1.297-0.75c0,0-0.113,0.066,0.176,0.445c0.199,0.207,0.164,0.762,0.164,0.762
		l-0.887,0.844L81.406,145.555z"/>
	
		<linearGradient id="SVGID_13_" gradientUnits="userSpaceOnUse" x1="22.7813" y1="161.4502" x2="21.4564" y2="161.4502" gradientTransform="matrix(0.75 0 0 -0.75 65.0791 264.7266)">
		<stop  offset="0" style="stop-color:#BDA47F"/>
		<stop  offset="0.15" style="stop-color:#FFE0B3"/>
		<stop  offset="0.25" style="stop-color:#FFEED7"/>
		<stop  offset="0.52" style="stop-color:#DFC297"/>
		<stop  offset="0.69" style="stop-color:#C7AD86"/>
		<stop  offset="0.8" style="stop-color:#BCA37E"/>
		<stop  offset="0.92" style="stop-color:#B19A77"/>
		<stop  offset="1" style="stop-color:#CBB189"/>
	</linearGradient>
	<path fill="url(#SVGID_13_)" d="M81.945,138.887c0,0,0.219,0.168,0.219,0.375l-0.219,8.625c0,0-0.004,0.379-0.277,0.379
		c-0.473,0.371-0.496-0.168-0.496-0.379l0.023-8.25c0-0.75,0.199-0.75,0.473-0.75H81.945z"/>
	
		<linearGradient id="SVGID_14_" gradientUnits="userSpaceOnUse" x1="23.4897" y1="166.6807" x2="21.4832" y2="166.6807" gradientTransform="matrix(0.75 0 0 -0.75 64.9253 273.0645)">
		<stop  offset="0" style="stop-color:#BC9C53"/>
		<stop  offset="0.15" style="stop-color:#FED681"/>
		<stop  offset="0.25" style="stop-color:#FEE8C2"/>
		<stop  offset="0.52" style="stop-color:#DEB863"/>
		<stop  offset="0.69" style="stop-color:#C6A457"/>
		<stop  offset="0.8" style="stop-color:#BB9B52"/>
		<stop  offset="0.92" style="stop-color:#B0924D"/>
		<stop  offset="1" style="stop-color:#CBA859"/>
	</linearGradient>
	<path fill="url(#SVGID_14_)" d="M81.043,147.227h0.75c0.75,0,0.535,0.098,0.535,0.227l0.215,1.273c0,0-0.316,0.164-0.449,0.164
		l-1.051-0.164c0,0-0.008,0.059-0.008-0.07L81.043,147.227c0,0,0.098-0.008,0.227-0.008L81.043,147.227z"/>
	
		<linearGradient id="SVGID_15_" gradientUnits="userSpaceOnUse" x1="23.4897" y1="166.6816" x2="21.4832" y2="166.6816" gradientTransform="matrix(0.75 0 0 -0.75 64.9253 263.8447)">
		<stop  offset="0" style="stop-color:#BC9C53"/>
		<stop  offset="0.15" style="stop-color:#FED681"/>
		<stop  offset="0.25" style="stop-color:#FEE8C2"/>
		<stop  offset="0.52" style="stop-color:#DEB863"/>
		<stop  offset="0.69" style="stop-color:#C6A457"/>
		<stop  offset="0.8" style="stop-color:#BB9B52"/>
		<stop  offset="0.92" style="stop-color:#B0924D"/>
		<stop  offset="1" style="stop-color:#CBA859"/>
	</linearGradient>
	<path fill="url(#SVGID_15_)" d="M81.043,138.004h0.75c0.75,0,0.535,0.102,0.535,0.23l0.215,1.27c0,0-0.316,0.164-0.449,0.164
		l-1.051-0.164c0,0-0.008,0.063-0.008-0.066L81.043,138.004c0,0,0.098-0.004,0.227-0.004L81.043,138.004z"/>
	<path fill="#BCBCBC" d="M253.406,135.18l-16.5,8.25v27l1.5,0.75l12.75-8.25l3.75-27L253.406,135.18z"/>
	<path fill="#F9F9F9" d="M254.906,135.836l-16.5,8.25v27l16.5-8.25V135.836z"/>
	<path fill="#A0A0A0" d="M252.957,139.617l-12.75,6v22.5l12.75-6.75V139.617z"/>
	<path fill="#BAD0D8" d="M251.668,140.191l-11.25,5.25v21.75l11.25-6V140.191z"/>
	<path fill="#BCBCBC" d="M236.926,143.625l-16.5,8.25v27l1.5,0.75l12.75-8.25l3.75-27L236.926,143.625z"/>
	<path fill="#F9F9F9" d="M238.426,144.281l-16.5,8.25v27l16.5-8.25V144.281z"/>
	<path fill="#A0A0A0" d="M236.473,148.066l-12.75,6v22.5l12.75-6.75V148.066z"/>
	<path fill="#BAD0D8" d="M235.184,148.641l-11.25,5.25v21.75l11.25-6V148.641z"/>
	<path fill="#BCBCBC" d="M307.844,109.359l-16.5,8.25v27l1.5,0.75l12.75-8.25l3.75-27L307.844,109.359z"/>
	<path fill="#F9F9F9" d="M309.344,110.016l-16.5,8.25v27l16.5-8.25V110.016z"/>
	<path fill="#A0A0A0" d="M307.395,113.797l-12.75,6v22.5l12.75-6.75V113.797z"/>
	<path fill="#BAD0D8" d="M306.105,114.371l-11.25,5.25v21.75l11.25-6V114.371z"/>
	<path fill="#BCBCBC" d="M291.363,117.805l-16.5,8.25v27l1.5,0.75l12.75-8.25l3.75-27L291.363,117.805z"/>
	<path fill="#F9F9F9" d="M292.863,118.461l-16.5,8.25v27l16.5-8.25V118.461z"/>
	<path fill="#A0A0A0" d="M290.91,122.246l-12.75,6v22.5l12.75-6.75V122.246z"/>
	<path fill="#BAD0D8" d="M289.621,122.82l-11.25,5.25v21.75l11.25-6V122.82z"/>
	<path fill="#C1DBE5" d="M200.922,226.973l121.5-64.5v3l-121.5,64.5V226.973z"/>
</g>
</svg>
