<?xml version="1.0" encoding="utf-8"?>
<!-- Generator: Adobe Illustrator 16.0.0, SVG Export Plug-In . SVG Version: 6.00 Build 0)  -->
<!DOCTYPE svg PUBLIC "-//W3C//DTD SVG 1.1//EN" "http://www.w3.org/Graphics/SVG/1.1/DTD/svg11.dtd">
<svg preserveAspectRatio="none" version="1.1" id="图层_1" xmlns="http://www.w3.org/2000/svg" xmlns:xlink="http://www.w3.org/1999/xlink" x="0px" y="0px"
	 width="299.25px" height="208.34px" viewBox="30 18.309 299.25 208.34" enable-background="new 30 18.309 299.25 208.34"
	 xml:space="preserve">
<g id="surface396">
	<path fill="#AB715E" d="M75.75,18.309h208.5c5.25,0.75,5.473,5.699,5.473,5.699l39.527,76.051H30l39.75-75.75
		c0,0,1.176-5.82,5.941-6H75.75z"/>
	
		<linearGradient id="SVGID_1_" gradientUnits="userSpaceOnUse" x1="21.4883" y1="163.7891" x2="420.4883" y2="163.7891" gradientTransform="matrix(0.75 0 0 -0.75 13.8838 226.002)">
		<stop  offset="0" style="stop-color:#67351B"/>
		<stop  offset="0.03" style="stop-color:#B18C81"/>
		<stop  offset="0.08" style="stop-color:#884726"/>
		<stop  offset="0.64" style="stop-color:#864625"/>
		<stop  offset="0.95" style="stop-color:#824424"/>
		<stop  offset="1" style="stop-color:#5F3018"/>
	</linearGradient>
	<path fill="url(#SVGID_1_)" d="M30,100.16h299.25v6H30V100.16z"/>
	
		<linearGradient id="SVGID_2_" gradientUnits="userSpaceOnUse" x1="21.4873" y1="91.7852" x2="394.4873" y2="91.7852" gradientTransform="matrix(0.75 0 0 -0.75 23.7012 232.1738)">
		<stop  offset="0" style="stop-color:#9D815E"/>
		<stop  offset="0.01" style="stop-color:#E5C9A8"/>
		<stop  offset="0.04" style="stop-color:#CCA97C"/>
		<stop  offset="0.64" style="stop-color:#C9A67A"/>
		<stop  offset="0.98" style="stop-color:#C4A377"/>
		<stop  offset="1" style="stop-color:#917857"/>
	</linearGradient>
	<path fill="url(#SVGID_2_)" d="M39.816,106.336h279.75v114H39.816V106.336z"/>
	
		<linearGradient id="SVGID_3_" gradientUnits="userSpaceOnUse" x1="21.4902" y1="134.168" x2="93.834" y2="134.168" gradientTransform="matrix(0.75 0 0 -0.75 42.7886 246.5938)">
		<stop  offset="0" style="stop-color:#B3A593"/>
		<stop  offset="0.01" style="stop-color:#FDEEDA"/>
		<stop  offset="0.04" style="stop-color:#E9D7BF"/>
		<stop  offset="0.64" style="stop-color:#E5D3BC"/>
		<stop  offset="0.98" style="stop-color:#E0CEB8"/>
		<stop  offset="1" style="stop-color:#A69988"/>
	</linearGradient>
	<path fill="url(#SVGID_3_)" d="M60.406,120.754h51c0.75,0,1.758,0.625,1.758,1.551l-0.258,47.199c0,0.75-0.52,1.801-1.445,1.801
		l-51.055-0.301c-0.75,0-1.5-0.445-1.5-1.367v-47.383c0-0.75,0.742-1.621,1.668-1.621L60.406,120.754z"/>
	<path fill="#CFEBF6" d="M66.602,126.375h39c0.75,0,1.367,0.539,1.367,1.328l0.133,36.922c0,0.75-0.813,1.066-1.602,1.066
		l-38.898-0.316c-0.75,0-1.59-0.324-1.59-1.109l0.09-36.391c0-0.75,0.551-1.598,1.34-1.598L66.602,126.375z"/>
	
		<linearGradient id="SVGID_4_" gradientUnits="userSpaceOnUse" x1="21.4907" y1="139.7871" x2="29.4907" y2="139.7871" gradientTransform="matrix(0.75 0 0 -0.75 66.7729 251.083)">
		<stop  offset="0" style="stop-color:#B3A593"/>
		<stop  offset="0.01" style="stop-color:#FDEEDA"/>
		<stop  offset="0.04" style="stop-color:#E9D7BF"/>
		<stop  offset="0.64" style="stop-color:#E5D3BC"/>
		<stop  offset="0.98" style="stop-color:#E0CEB8"/>
		<stop  offset="1" style="stop-color:#A69988"/>
	</linearGradient>
	<path fill="url(#SVGID_4_)" d="M82.891,125.242h6v42h-6V125.242z"/>
	
		<linearGradient id="SVGID_5_" gradientUnits="userSpaceOnUse" x1="-534.8379" y1="51.3867" x2="-526.8379" y2="51.3867" gradientTransform="matrix(0 -0.75 -0.75 0 124.4502 -251.9209)">
		<stop  offset="0" style="stop-color:#B3A593"/>
		<stop  offset="0.01" style="stop-color:#FDEEDA"/>
		<stop  offset="0.04" style="stop-color:#E9D7BF"/>
		<stop  offset="0.64" style="stop-color:#E5D3BC"/>
		<stop  offset="0.98" style="stop-color:#E0CEB8"/>
		<stop  offset="1" style="stop-color:#A69988"/>
	</linearGradient>
	<path fill="url(#SVGID_5_)" d="M64.535,149.207v-6h42.75v6H64.535z"/>
	
		<linearGradient id="SVGID_6_" gradientUnits="userSpaceOnUse" x1="21.4868" y1="134.168" x2="93.8306" y2="134.168" gradientTransform="matrix(0.75 0 0 -0.75 230.3184 246.5938)">
		<stop  offset="0" style="stop-color:#B3A593"/>
		<stop  offset="0.01" style="stop-color:#FDEEDA"/>
		<stop  offset="0.04" style="stop-color:#E9D7BF"/>
		<stop  offset="0.64" style="stop-color:#E5D3BC"/>
		<stop  offset="0.98" style="stop-color:#E0CEB8"/>
		<stop  offset="1" style="stop-color:#A69988"/>
	</linearGradient>
	<path fill="url(#SVGID_6_)" d="M247.934,120.754h51c0.75,0,1.758,0.625,1.758,1.551l-0.258,47.199c0,0.75-0.516,1.801-1.445,1.801
		l-51.055-0.301c-0.75,0-1.5-0.445-1.5-1.367v-47.383c0-0.75,0.742-1.621,1.668-1.621L247.934,120.754z"/>
	<path fill="#CFEBF6" d="M254.129,126.375h39c0.75,0,1.367,0.539,1.367,1.328l0.133,36.922c0,0.75-0.809,1.066-1.598,1.066
		l-38.902-0.316c-0.75,0-1.586-0.324-1.586-1.109l0.086-36.391c0-0.75,0.551-1.598,1.34-1.598L254.129,126.375z"/>
	
		<linearGradient id="SVGID_7_" gradientUnits="userSpaceOnUse" x1="21.4873" y1="139.7871" x2="29.4873" y2="139.7871" gradientTransform="matrix(0.75 0 0 -0.75 254.3027 251.083)">
		<stop  offset="0" style="stop-color:#B3A593"/>
		<stop  offset="0.01" style="stop-color:#FDEEDA"/>
		<stop  offset="0.04" style="stop-color:#E9D7BF"/>
		<stop  offset="0.64" style="stop-color:#E5D3BC"/>
		<stop  offset="0.98" style="stop-color:#E0CEB8"/>
		<stop  offset="1" style="stop-color:#A69988"/>
	</linearGradient>
	<path fill="url(#SVGID_7_)" d="M270.418,125.242h6v42h-6V125.242z"/>
	
		<linearGradient id="SVGID_8_" gradientUnits="userSpaceOnUse" x1="-534.8379" y1="51.3857" x2="-526.8379" y2="51.3857" gradientTransform="matrix(0 -0.75 -0.75 0 311.9805 -251.9209)">
		<stop  offset="0" style="stop-color:#B3A593"/>
		<stop  offset="0.01" style="stop-color:#FDEEDA"/>
		<stop  offset="0.04" style="stop-color:#E9D7BF"/>
		<stop  offset="0.64" style="stop-color:#E5D3BC"/>
		<stop  offset="0.98" style="stop-color:#E0CEB8"/>
		<stop  offset="1" style="stop-color:#A69988"/>
	</linearGradient>
	<path fill="url(#SVGID_8_)" d="M252.066,149.207v-6h42.75v6H252.066z"/>
	<path fill="#FDE9D0" d="M179.602,220.168h54v-68.25h-54V220.168z"/>
	<path fill="#FDE9D0" d="M125.301,220.168h54v-68.25h-54V220.168z"/>
	
		<linearGradient id="SVGID_9_" gradientUnits="userSpaceOnUse" x1="93.9131" y1="167.875" x2="93.9131" y2="139.7871" gradientTransform="matrix(0.75 0 0 -0.75 109.1904 257.8164)">
		<stop  offset="0" style="stop-color:#B3A593"/>
		<stop  offset="0.01" style="stop-color:#FDEEDA"/>
		<stop  offset="0.04" style="stop-color:#E9D7BF"/>
		<stop  offset="0.64" style="stop-color:#E5D3BC"/>
		<stop  offset="0.98" style="stop-color:#E0CEB8"/>
		<stop  offset="1" style="stop-color:#A69988"/>
	</linearGradient>
	<path fill="url(#SVGID_9_)" d="M125.305,152.977c0-12,24.25-21.066,54.32-21.066c29.68,0.066,54.32,9.43,54.32,21.055
		c0.109,0.012-108.641,0-108.641,0V152.977z"/>
	
		<linearGradient id="SVGID_10_" gradientUnits="userSpaceOnUse" x1="21.4858" y1="122.29" x2="27.4858" y2="122.29" gradientTransform="matrix(0.75 0 0 -0.75 109.1904 277.7598)">
		<stop  offset="0" style="stop-color:#B3A593"/>
		<stop  offset="0.01" style="stop-color:#FDEEDA"/>
		<stop  offset="0.04" style="stop-color:#E9D7BF"/>
		<stop  offset="0.64" style="stop-color:#E5D3BC"/>
		<stop  offset="0.98" style="stop-color:#E0CEB8"/>
		<stop  offset="1" style="stop-color:#A69988"/>
	</linearGradient>
	<path fill="url(#SVGID_10_)" d="M125.305,220.168h4.5v-68.25h-4.5V220.168z"/>
	
		<linearGradient id="SVGID_11_" gradientUnits="userSpaceOnUse" x1="21.4888" y1="122.29" x2="27.4888" y2="122.29" gradientTransform="matrix(0.75 0 0 -0.75 212.9731 277.7598)">
		<stop  offset="0" style="stop-color:#B3A593"/>
		<stop  offset="0.01" style="stop-color:#FDEEDA"/>
		<stop  offset="0.04" style="stop-color:#E9D7BF"/>
		<stop  offset="0.64" style="stop-color:#E5D3BC"/>
		<stop  offset="0.98" style="stop-color:#E0CEB8"/>
		<stop  offset="1" style="stop-color:#A69988"/>
	</linearGradient>
	<path fill="url(#SVGID_11_)" d="M229.09,220.168h4.5v-68.25h-4.5V220.168z"/>
	<path fill="#FFFFFF" fill-opacity="0.102" d="M78.813,21.336h52.5l120.75,78.75H33.813l39-72.75c0,0,2.805-5.785,5.91-5.785
		L78.813,21.336z"/>
	
		<linearGradient id="SVGID_12_" gradientUnits="userSpaceOnUse" x1="213.2158" y1="167.7852" x2="213.2158" y2="158.29" gradientTransform="matrix(0.75 0 0 -0.75 19.064 345.3652)">
		<stop  offset="0" style="stop-color:#90A38C"/>
		<stop  offset="0.03" style="stop-color:#D8EBD4"/>
		<stop  offset="0.08" style="stop-color:#BDD4B7"/>
		<stop  offset="0.64" style="stop-color:#BAD0B4"/>
		<stop  offset="0.95" style="stop-color:#B5CCB0"/>
		<stop  offset="1" style="stop-color:#869782"/>
	</linearGradient>
	<path fill="url(#SVGID_12_)" d="M36.68,219.527h285c0.75,0,1.094,0.637,1.094,1.422l-0.344,4.578c0,0.75-0.293,1.121-1.086,1.121
		L36.68,226.277c-0.75,0-1.5-0.266-1.5-1.055v-4.195c0-0.75,0.641-1.5,1.43-1.5H36.68z"/>
</g>
</svg>
