<?xml version="1.0" encoding="utf-8"?>
<!-- Generator: Adobe Illustrator 16.0.0, SVG Export Plug-In . SVG Version: 6.00 Build 0)  -->
<!DOCTYPE svg PUBLIC "-//W3C//DTD SVG 1.1//EN" "http://www.w3.org/Graphics/SVG/1.1/DTD/svg11.dtd">
<svg preserveAspectRatio="none" version="1.1" id="图层_1" xmlns="http://www.w3.org/2000/svg" xmlns:xlink="http://www.w3.org/1999/xlink" x="0px" y="0px"
	 width="299.25px" height="269.711px" viewBox="30 -11.535 299.25 269.711" enable-background="new 30 -11.535 299.25 269.711"
	 xml:space="preserve">
<g id="surface361">
	<path fill="#CEA36C" d="M30,75.543l90.75,46.5l76.5-47.25l-82.5-38.25L30,75.543z"/>
	<path fill="#EDCFA1" d="M122.25,191.547l-91.5-47.25l-0.75-69l92.25,47.25V191.547z"/>
	<path fill="#DEC087" d="M37.758,75.691l82.5,42l52.5-49.5l-57.75-28.5L37.758,75.691z"/>
	
		<linearGradient id="SVGID_1_" gradientUnits="userSpaceOnUse" x1="21.4897" y1="118.1772" x2="42.2666" y2="118.1772" gradientTransform="matrix(0.75 0 0 -0.75 131.605 123.8418)">
		<stop  offset="0" style="stop-color:#5C6976"/>
		<stop  offset="0.39" style="stop-color:#B7BFC9"/>
		<stop  offset="0.61" style="stop-color:#D8DCE1"/>
		<stop  offset="1" style="stop-color:#91A1B2"/>
	</linearGradient>
	<path fill="url(#SVGID_1_)" d="M151.473-2l-3.75,71.25c0,0-0.211,2.535,8.277,3.168c-0.027-0.168,7.27,0.121,7.305-3.211L159.723-2
		H151.473z"/>
	
		<linearGradient id="SVGID_2_" gradientUnits="userSpaceOnUse" x1="21.4883" y1="163.2588" x2="37.4902" y2="163.2588" gradientTransform="matrix(0.75 0 0 -0.75 133.6055 155.5332)">
		<stop  offset="0" style="stop-color:#766146"/>
		<stop  offset="0.29" style="stop-color:#A48863"/>
		<stop  offset="0.62" style="stop-color:#E0BD92"/>
		<stop  offset="1" style="stop-color:#BD9D72"/>
	</linearGradient>
	<path fill="url(#SVGID_2_)" d="M149.723,29.695c0,0,0.383,1.434,5.891,1.93c0.109,0.32,5.105-0.258,5.504-1.93l0.605,5.25
		c0,0,0.051,1.285-5.98,1.539c-0.02-0.039-6.129-0.258-6.02-1.711V29.695z"/>
	
		<linearGradient id="SVGID_3_" gradientUnits="userSpaceOnUse" x1="21.4912" y1="164.9434" x2="33.4912" y2="164.9434" gradientTransform="matrix(0.75 0 0 -0.75 135.0264 129.7471)">
		<stop  offset="0" style="stop-color:#766146"/>
		<stop  offset="0.29" style="stop-color:#A48863"/>
		<stop  offset="0.62" style="stop-color:#E0BD92"/>
		<stop  offset="1" style="stop-color:#BD9D72"/>
	</linearGradient>
	<path fill="url(#SVGID_3_)" d="M151.145,3.906c0,0,0.566,1.238,4.324,1.238c0.176,0.262,4.352,0.008,4.223-1.109l0.453,2.871
		c0,0-0.164,0.938-4.676,1.145c0.176,0.355-3.973-0.078-4.324-1.258V3.906z"/>
	<path fill="#CDA660" d="M329.188,110.988v105l-81,42v-108L329.188,110.988z"/>
	<path fill="#F8D8A8" d="M120.75,195.926V88.676l127.5,61.5v108L120.75,195.926z"/>
	<path fill="#CEA36C" d="M248.25,150.473l-127.5-61.5l78-37.5l130.5,59.25L248.25,150.473z"/>
	<path fill="#DEC087" d="M127.043,88.434l120.75,59.25l75-36l-123.75-57.75L127.043,88.434z"/>
	<path fill="#BF793E" d="M145.727,204.043v-59.25l75,36v60L145.727,204.043z"/>
	<path fill="#CEA36C" d="M145.727,144.793l3.75,2.25v59.25l-3.75,1.5V144.793z"/>
	<path fill="#E9C98E" d="M145.77,208.289l75.75,36.75v-3.75l-72-35.25L145.77,208.289z"/>
	<path fill="#AA5527" d="M149.191,146.543v59.25l1.5,0.75v-59.25L149.191,146.543z"/>
	<path fill="#CEA36C" d="M182.793,162.75V222l1.5,0.75V163.5L182.793,162.75z"/>
	<path fill="#AA5527" d="M219.742,180.406v60l1.5,0.75v-60L219.742,180.406z"/>
	<path fill="#FFFFFF" fill-opacity="0.102" d="M150.691,206.297v-59.25l15,7.5l55.5,86.25L150.691,206.297z"/>
	
		<linearGradient id="SVGID_4_" gradientUnits="userSpaceOnUse" x1="21.4878" y1="121.3359" x2="40.9365" y2="121.3359" gradientTransform="matrix(0.75 0 0 -0.75 99.3916 114.3027)">
		<stop  offset="0" style="stop-color:#5C6976"/>
		<stop  offset="0.39" style="stop-color:#B7BFC9"/>
		<stop  offset="0.61" style="stop-color:#D8DCE1"/>
		<stop  offset="1" style="stop-color:#91A1B2"/>
	</linearGradient>
	<path fill="url(#SVGID_4_)" d="M119.258-11.535l-3.75,66.75c0,0-0.199,2.297,7.746,2.891c-0.246,0.109,6.805,0.113,6.84-3.004
		l-3.336-66.637H119.258z"/>
	
		<linearGradient id="SVGID_5_" gradientUnits="userSpaceOnUse" x1="21.4858" y1="163.5508" x2="36.4873" y2="163.5508" gradientTransform="matrix(0.75 0 0 -0.75 101.2637 143.9619)">
		<stop  offset="0" style="stop-color:#766146"/>
		<stop  offset="0.29" style="stop-color:#A48863"/>
		<stop  offset="0.62" style="stop-color:#E0BD92"/>
		<stop  offset="1" style="stop-color:#BD9D72"/>
	</linearGradient>
	<path fill="url(#SVGID_5_)" d="M117.379,18.121c0,0,0.359,1.344,5.516,1.809c-0.266-0.309,4.777-0.238,5.148-1.809l0.586,4.5
		c0,0,0.031,1.617-5.617,1.855c0.367-0.355-5.73-0.238-5.633-1.602V18.121z"/>
	
		<linearGradient id="SVGID_6_" gradientUnits="userSpaceOnUse" x1="24.4888" y1="161.2891" x2="21.4888" y2="161.2891" gradientTransform="matrix(0.75 0 0 -0.75 133.2266 323.0752)">
		<stop  offset="0" style="stop-color:#A8A8A8"/>
		<stop  offset="0.01" style="stop-color:#F2F2F2"/>
		<stop  offset="0.02" style="stop-color:#DBDBDB"/>
		<stop  offset="0.64" style="stop-color:#D8D8D8"/>
		<stop  offset="0.99" style="stop-color:#D3D3D3"/>
		<stop  offset="1" style="stop-color:#9C9C9C"/>
	</linearGradient>
	<path fill="url(#SVGID_6_)" d="M149.344,206.234l2.25,0.75v-8.25l-2.25-1.5V206.234z"/>
	
		<linearGradient id="SVGID_7_" gradientUnits="userSpaceOnUse" x1="24.4888" y1="161.29" x2="21.4888" y2="161.29" gradientTransform="matrix(0.75 0 0 -0.75 133.2266 272.4082)">
		<stop  offset="0" style="stop-color:#A8A8A8"/>
		<stop  offset="0.01" style="stop-color:#F2F2F2"/>
		<stop  offset="0.02" style="stop-color:#DBDBDB"/>
		<stop  offset="0.64" style="stop-color:#D8D8D8"/>
		<stop  offset="0.99" style="stop-color:#D3D3D3"/>
		<stop  offset="1" style="stop-color:#9C9C9C"/>
	</linearGradient>
	<path fill="url(#SVGID_7_)" d="M149.344,155.566l2.25,0.75v-8.25l-2.25-1.5V155.566z"/>
	
		<linearGradient id="SVGID_8_" gradientUnits="userSpaceOnUse" x1="24.4863" y1="161.29" x2="21.4863" y2="161.29" gradientTransform="matrix(0.75 0 0 -0.75 202.8965 356.9863)">
		<stop  offset="0" style="stop-color:#A8A8A8"/>
		<stop  offset="0.01" style="stop-color:#F2F2F2"/>
		<stop  offset="0.02" style="stop-color:#DBDBDB"/>
		<stop  offset="0.64" style="stop-color:#D8D8D8"/>
		<stop  offset="0.99" style="stop-color:#D3D3D3"/>
		<stop  offset="1" style="stop-color:#9C9C9C"/>
	</linearGradient>
	<path fill="url(#SVGID_8_)" d="M219.012,240.145l2.25,0.75v-8.25l-2.25-1.5V240.145z"/>
	
		<linearGradient id="SVGID_9_" gradientUnits="userSpaceOnUse" x1="24.4863" y1="161.2871" x2="21.4863" y2="161.2871" gradientTransform="matrix(0.75 0 0 -0.75 202.627 305.8828)">
		<stop  offset="0" style="stop-color:#A8A8A8"/>
		<stop  offset="0.01" style="stop-color:#F2F2F2"/>
		<stop  offset="0.02" style="stop-color:#DBDBDB"/>
		<stop  offset="0.64" style="stop-color:#D8D8D8"/>
		<stop  offset="0.99" style="stop-color:#D3D3D3"/>
		<stop  offset="1" style="stop-color:#9C9C9C"/>
	</linearGradient>
	<path fill="url(#SVGID_9_)" d="M218.742,189.043l2.25,0.75v-8.25l-2.25-1.5V189.043z"/>
	<path fill="#94C1E2" d="M221.402,164.453l-75.75-36.75v12l75.75,36.75V164.453z"/>
	<path fill="#FFFFFF" d="M221.516,175.633l-75.75-37.5v1.5l75.75,36.75V175.633z"/>
	<path fill="#FFFFFF" d="M147.152,128.453l-1.5-0.75v12h1.5V128.453z"/>
	<path fill="#FFFFFF" d="M165.742,137.621l-1.5-0.75v10.5l1.5,0.75V137.621z"/>
	<path fill="#FFFFFF" fill-opacity="0.2078" d="M165.961,137.453l-20.25-9.75v12l75.75,36.75v-2.25L165.961,137.453z"/>
	<path fill="#FFFFFF" d="M204.633,156.578l-1.5-0.75v10.5l1.5,0.75V156.578z"/>
	<path fill="#FFFFFF" d="M185.504,147.098l-1.5-0.75v11.25h1.5V147.098z"/>
	<path fill="#94C1E2" d="M120.652,136.801l-75.75-36.75v12l75.75,36.75V136.801z"/>
	<path fill="#FFFFFF" d="M120.766,147.98l-75.75-37.5v1.5l75.75,36.75V147.98z"/>
	<path fill="#FFFFFF" d="M46.402,100.801l-1.5-0.75v12h1.5V100.801z"/>
	<path fill="#FFFFFF" d="M64.996,109.969l-1.5-0.75v10.5l1.5,0.75V109.969z"/>
	<path fill="#FFFFFF" fill-opacity="0.2078" d="M65.211,109.801l-20.25-9.75v12l75.75,36.75v-2.25L65.211,109.801z"/>
	<path fill="#FFFFFF" d="M103.883,128.926l-1.5-0.75v10.5l1.5,0.75V128.926z"/>
	<path fill="#FFFFFF" d="M84.758,119.449l-1.5-0.75v11.25h1.5V119.449z"/>
</g>
</svg>
